<?xml version="1.0" encoding="UTF-8" standalone="no"?>
<!DOCTYPE svg PUBLIC "-//W3C//DTD SVG 1.1//EN"
 "http://www.w3.org/Graphics/SVG/1.1/DTD/svg11.dtd">
<!-- Generated by graphviz version 2.43.0 (0)
 -->
<!-- Title: NoteButtonLatching Pages: 1 -->
<svg width="160pt" height="891pt"
 viewBox="0.00 0.00 160.00 891.00" xmlns="http://www.w3.org/2000/svg" xmlns:xlink="http://www.w3.org/1999/xlink">
<g id="graph0" class="graph" transform="scale(1 1) rotate(0) translate(4 887)">
<title>NoteButtonLatching</title>
<!-- Node1 -->
<g id="Node000001" class="node">
<title>Node1</title>
<g id="a_Node000001"><a xlink:title="A class of MIDIOutputElements that read the input of a latching push button or toggle switch,...">
<polygon fill="#999999" stroke="transparent" points="139,-79 13,-79 13,0 139,0 139,-79"/>
<text text-anchor="start" x="27.5" y="-66.5" font-family="Helvetica,sans-Serif" font-size="10.00">NoteButtonLatching</text>
<text text-anchor="start" x="74" y="-51.5" font-family="Helvetica,sans-Serif" font-size="10.00"> </text>
<text text-anchor="start" x="17" y="-36.5" font-family="Helvetica,sans-Serif" font-size="10.00">+</text>
<text text-anchor="start" x="30" y="-36.5" font-family="Helvetica,sans-Serif" font-size="10.00">NoteButtonLatching()</text>
<text text-anchor="start" x="17" y="-21.5" font-family="Helvetica,sans-Serif" font-size="10.00">+</text>
<text text-anchor="start" x="30" y="-21.5" font-family="Helvetica,sans-Serif" font-size="10.00">setVelocity()</text>
<text text-anchor="start" x="17" y="-6.5" font-family="Helvetica,sans-Serif" font-size="10.00">+</text>
<text text-anchor="start" x="30" y="-6.5" font-family="Helvetica,sans-Serif" font-size="10.00">getVelocity()</text>
<polygon fill="#666666" stroke="#666666" points="13,-61.5 13,-61.5 139,-61.5 139,-61.5 13,-61.5"/>
<polygon fill="#666666" stroke="#666666" points="13,-46.5 13,-46.5 139,-46.5 139,-46.5 13,-46.5"/>
<polygon fill="none" stroke="#666666" points="13,0 13,-79 139,-79 139,0 13,0"/>
</a>
</g>
</g>
<!-- Node2 -->
<g id="Node000002" class="node">
<title>Node2</title>
<g id="a_Node000002"><a xlink:href="../../d3/d0b/classBankable_1_1MIDIButtonLatching.html" target="_top" xlink:title=" ">
<polygon fill="white" stroke="transparent" points="152,-396 0,-396 0,-115 152,-115 152,-396"/>
<text text-anchor="start" x="5" y="-383.5" font-family="Helvetica,sans-Serif" font-size="10.00">MIDIButtonLatching</text>
<text text-anchor="start" x="5" y="-372.5" font-family="Helvetica,sans-Serif" font-size="10.00">&lt; SingleAddress, DigitalNote</text>
<text text-anchor="start" x="53" y="-361.5" font-family="Helvetica,sans-Serif" font-size="10.00">Sender &gt;</text>
<text text-anchor="start" x="10.5" y="-346.5" font-family="Helvetica,sans-Serif" font-size="10.00">+</text>
<text text-anchor="start" x="30" y="-346.5" font-family="Helvetica,sans-Serif" font-size="10.00">sender</text>
<text text-anchor="start" x="10.5" y="-331.5" font-family="Helvetica,sans-Serif" font-size="10.00">#</text>
<text text-anchor="start" x="30" y="-331.5" font-family="Helvetica,sans-Serif" font-size="10.00">address</text>
<text text-anchor="start" x="10.5" y="-316.5" font-family="Helvetica,sans-Serif" font-size="10.00">#</text>
<text text-anchor="start" x="30" y="-316.5" font-family="Helvetica,sans-Serif" font-size="10.00">button</text>
<text text-anchor="start" x="10.5" y="-301.5" font-family="Helvetica,sans-Serif" font-size="10.00">#</text>
<text text-anchor="start" x="30" y="-301.5" font-family="Helvetica,sans-Serif" font-size="10.00">next</text>
<text text-anchor="start" x="10.5" y="-286.5" font-family="Helvetica,sans-Serif" font-size="10.00">#</text>
<text text-anchor="start" x="30" y="-286.5" font-family="Helvetica,sans-Serif" font-size="10.00">previous</text>
<text text-anchor="start" x="10.5" y="-271.5" font-family="Helvetica,sans-Serif" font-size="10.00">#</text>
<text text-anchor="start" x="30" y="-271.5" font-family="Helvetica,sans-Serif" font-size="10.00">updatables</text>
<text text-anchor="start" x="10.5" y="-256.5" font-family="Helvetica,sans-Serif" font-size="10.00">+</text>
<text text-anchor="start" x="30" y="-256.5" font-family="Helvetica,sans-Serif" font-size="10.00">begin()</text>
<text text-anchor="start" x="10.5" y="-241.5" font-family="Helvetica,sans-Serif" font-size="10.00">+</text>
<text text-anchor="start" x="30" y="-241.5" font-family="Helvetica,sans-Serif" font-size="10.00">update()</text>
<text text-anchor="start" x="10.5" y="-226.5" font-family="Helvetica,sans-Serif" font-size="10.00">+</text>
<text text-anchor="start" x="30" y="-226.5" font-family="Helvetica,sans-Serif" font-size="10.00">getButtonState()</text>
<text text-anchor="start" x="10.5" y="-211.5" font-family="Helvetica,sans-Serif" font-size="10.00">#</text>
<text text-anchor="start" x="30" y="-211.5" font-family="Helvetica,sans-Serif" font-size="10.00">MIDIButtonLatching()</text>
<text text-anchor="start" x="12" y="-196.5" font-family="Helvetica,sans-Serif" font-size="10.00">*</text>
<text text-anchor="start" x="30" y="-196.5" font-family="Helvetica,sans-Serif" font-size="10.00">enable()</text>
<text text-anchor="start" x="12" y="-181.5" font-family="Helvetica,sans-Serif" font-size="10.00">*</text>
<text text-anchor="start" x="30" y="-181.5" font-family="Helvetica,sans-Serif" font-size="10.00">disable()</text>
<text text-anchor="start" x="12" y="-166.5" font-family="Helvetica,sans-Serif" font-size="10.00">*</text>
<text text-anchor="start" x="30" y="-166.5" font-family="Helvetica,sans-Serif" font-size="10.00">isEnabled()</text>
<text text-anchor="start" x="12" y="-151.5" font-family="Helvetica,sans-Serif" font-size="10.00">*</text>
<text text-anchor="start" x="30" y="-151.5" font-family="Helvetica,sans-Serif" font-size="10.00">moveDown()</text>
<text text-anchor="start" x="12" y="-136.5" font-family="Helvetica,sans-Serif" font-size="10.00">*</text>
<text text-anchor="start" x="30" y="-136.5" font-family="Helvetica,sans-Serif" font-size="10.00">beginAll()</text>
<text text-anchor="start" x="12" y="-121.5" font-family="Helvetica,sans-Serif" font-size="10.00">*</text>
<text text-anchor="start" x="30" y="-121.5" font-family="Helvetica,sans-Serif" font-size="10.00">updateAll()</text>
<polygon fill="#666666" stroke="#666666" points="0,-356.5 0,-356.5 152,-356.5 152,-356.5 0,-356.5"/>
<polygon fill="#666666" stroke="#666666" points="0,-266.5 0,-266.5 28,-266.5 28,-266.5 0,-266.5"/>
<polygon fill="#666666" stroke="#666666" points="28,-266.5 28,-266.5 152,-266.5 152,-266.5 28,-266.5"/>
<polygon fill="none" stroke="#666666" points="0,-115 0,-396 152,-396 152,-115 0,-115"/>
</a>
</g>
</g>
<!-- Node2&#45;&gt;Node1 -->
<g id="edge1_Node000001_Node000002" class="edge">
<title>Node2&#45;&gt;Node1</title>
<g id="a_edge1_Node000001_Node000002"><a xlink:title=" ">
<path fill="none" stroke="#63b8ff" d="M76,-104.67C76,-95.55 76,-86.93 76,-79.14"/>
<polygon fill="none" stroke="#63b8ff" points="72.5,-104.75 76,-114.75 79.5,-104.75 72.5,-104.75"/>
</a>
</g>
</g>
<!-- Node3 -->
<g id="Node000003" class="node">
<title>Node3</title>
<g id="a_Node000003"><a xlink:href="../../d1/d55/classAH_1_1Updatable.html" target="_top" xlink:title="A super class for object that have to be updated regularly.">
<polygon fill="white" stroke="transparent" points="129.5,-526 22.5,-526 22.5,-432 129.5,-432 129.5,-526"/>
<text text-anchor="start" x="28" y="-514" font-family="Helvetica,sans-Serif" font-size="10.00">MIDIOutputElement</text>
<text text-anchor="start" x="74.5" y="-499" font-family="Helvetica,sans-Serif" font-size="10.00"> </text>
<text text-anchor="start" x="35.5" y="-484" font-family="Helvetica,sans-Serif" font-size="10.00">*</text>
<text text-anchor="start" x="54" y="-484" font-family="Helvetica,sans-Serif" font-size="10.00">begin()</text>
<text text-anchor="start" x="35.5" y="-469" font-family="Helvetica,sans-Serif" font-size="10.00">*</text>
<text text-anchor="start" x="54" y="-469" font-family="Helvetica,sans-Serif" font-size="10.00">update()</text>
<text text-anchor="start" x="35.5" y="-454" font-family="Helvetica,sans-Serif" font-size="10.00">*</text>
<text text-anchor="start" x="54" y="-454" font-family="Helvetica,sans-Serif" font-size="10.00">beginAll()</text>
<text text-anchor="start" x="35.5" y="-439" font-family="Helvetica,sans-Serif" font-size="10.00">*</text>
<text text-anchor="start" x="54" y="-439" font-family="Helvetica,sans-Serif" font-size="10.00">updateAll()</text>
<polygon fill="#666666" stroke="#666666" points="23,-509 23,-509 130,-509 130,-509 23,-509"/>
<polygon fill="#666666" stroke="#666666" points="23,-494 23,-494 130,-494 130,-494 23,-494"/>
<polygon fill="none" stroke="#666666" points="22.5,-432 22.5,-526 129.5,-526 129.5,-432 22.5,-432"/>
</a>
</g>
</g>
<!-- Node3&#45;&gt;Node2 -->
<g id="edge2_Node000002_Node000003" class="edge">
<title>Node3&#45;&gt;Node2</title>
<g id="a_edge2_Node000002_Node000003"><a xlink:title=" ">
<path fill="none" stroke="#63b8ff" d="M76,-421.8C76,-413.65 76,-404.96 76,-396.01"/>
<polygon fill="none" stroke="#63b8ff" points="72.5,-421.84 76,-431.84 79.5,-421.84 72.5,-421.84"/>
</a>
</g>
</g>
<!-- Node4 -->
<g id="Node000004" class="node">
<title>Node4</title>
<g id="a_Node000004"><a xlink:href="../../d8/d1a/classAH_1_1UpdatableCRTP.html" target="_top" xlink:title=" ">
<polygon fill="white" stroke="transparent" points="149.5,-742 2.5,-742 2.5,-562 149.5,-562 149.5,-742"/>
<text text-anchor="start" x="8" y="-730" font-family="Helvetica,sans-Serif" font-size="10.00">UpdatableCRTP&lt; Updatable</text>
<text text-anchor="start" x="16" y="-719" font-family="Helvetica,sans-Serif" font-size="10.00">&lt; NormalUpdatable &gt; &gt;</text>
<text text-anchor="start" x="15.5" y="-704" font-family="Helvetica,sans-Serif" font-size="10.00">#</text>
<text text-anchor="start" x="37" y="-704" font-family="Helvetica,sans-Serif" font-size="10.00">next</text>
<text text-anchor="start" x="15.5" y="-689" font-family="Helvetica,sans-Serif" font-size="10.00">#</text>
<text text-anchor="start" x="37" y="-689" font-family="Helvetica,sans-Serif" font-size="10.00">previous</text>
<text text-anchor="start" x="15.5" y="-674" font-family="Helvetica,sans-Serif" font-size="10.00">#</text>
<text text-anchor="start" x="37" y="-674" font-family="Helvetica,sans-Serif" font-size="10.00">updatables</text>
<text text-anchor="start" x="15.5" y="-659" font-family="Helvetica,sans-Serif" font-size="10.00">+</text>
<text text-anchor="start" x="37" y="-659" font-family="Helvetica,sans-Serif" font-size="10.00">~UpdatableCRTP()</text>
<text text-anchor="start" x="15.5" y="-644" font-family="Helvetica,sans-Serif" font-size="10.00">#</text>
<text text-anchor="start" x="37" y="-644" font-family="Helvetica,sans-Serif" font-size="10.00">UpdatableCRTP()</text>
<text text-anchor="start" x="15.5" y="-629" font-family="Helvetica,sans-Serif" font-size="10.00">#</text>
<text text-anchor="start" x="37" y="-629" font-family="Helvetica,sans-Serif" font-size="10.00">operator=()</text>
<text text-anchor="start" x="17" y="-614" font-family="Helvetica,sans-Serif" font-size="10.00">*</text>
<text text-anchor="start" x="37" y="-614" font-family="Helvetica,sans-Serif" font-size="10.00">enable()</text>
<text text-anchor="start" x="17" y="-599" font-family="Helvetica,sans-Serif" font-size="10.00">*</text>
<text text-anchor="start" x="37" y="-599" font-family="Helvetica,sans-Serif" font-size="10.00">disable()</text>
<text text-anchor="start" x="17" y="-584" font-family="Helvetica,sans-Serif" font-size="10.00">*</text>
<text text-anchor="start" x="37" y="-584" font-family="Helvetica,sans-Serif" font-size="10.00">isEnabled()</text>
<text text-anchor="start" x="17" y="-569" font-family="Helvetica,sans-Serif" font-size="10.00">*</text>
<text text-anchor="start" x="37" y="-569" font-family="Helvetica,sans-Serif" font-size="10.00">moveDown()</text>
<polygon fill="#666666" stroke="#666666" points="3,-714 3,-714 150,-714 150,-714 3,-714"/>
<polygon fill="#666666" stroke="#666666" points="3,-669 3,-669 35,-669 35,-669 3,-669"/>
<polygon fill="#666666" stroke="#666666" points="35,-669 35,-669 150,-669 150,-669 35,-669"/>
<polygon fill="none" stroke="#666666" points="2.5,-562 2.5,-742 149.5,-742 149.5,-562 2.5,-562"/>
</a>
</g>
</g>
<!-- Node4&#45;&gt;Node3 -->
<g id="edge3_Node000003_Node000004" class="edge">
<title>Node4&#45;&gt;Node3</title>
<g id="a_edge3_Node000003_Node000004"><a xlink:title=" ">
<path fill="none" stroke="#63b8ff" d="M76,-551.92C76,-543.05 76,-534.38 76,-526.31"/>
<polygon fill="none" stroke="#63b8ff" points="72.5,-551.99 76,-561.99 79.5,-551.99 72.5,-551.99"/>
</a>
</g>
</g>
<!-- Node5 -->
<g id="Node000005" class="node">
<title>Node5</title>
<g id="a_Node000005"><a xlink:href="../../d4/d23/classDoublyLinkable.html" target="_top" xlink:title=" ">
<polygon fill="white" stroke="transparent" points="149.5,-883 2.5,-883 2.5,-778 149.5,-778 149.5,-883"/>
<text text-anchor="start" x="8" y="-870.5" font-family="Helvetica,sans-Serif" font-size="10.00">DoublyLinkable&lt; Updatable</text>
<text text-anchor="start" x="16" y="-859.5" font-family="Helvetica,sans-Serif" font-size="10.00">&lt; NormalUpdatable &gt; &gt;</text>
<text text-anchor="start" x="15.5" y="-844.5" font-family="Helvetica,sans-Serif" font-size="10.00">#</text>
<text text-anchor="start" x="37" y="-844.5" font-family="Helvetica,sans-Serif" font-size="10.00">next</text>
<text text-anchor="start" x="15.5" y="-829.5" font-family="Helvetica,sans-Serif" font-size="10.00">#</text>
<text text-anchor="start" x="37" y="-829.5" font-family="Helvetica,sans-Serif" font-size="10.00">previous</text>
<text text-anchor="start" x="15.5" y="-814.5" font-family="Helvetica,sans-Serif" font-size="10.00">#</text>
<text text-anchor="start" x="37" y="-814.5" font-family="Helvetica,sans-Serif" font-size="10.00">~DoublyLinkable()</text>
<text text-anchor="start" x="15.5" y="-799.5" font-family="Helvetica,sans-Serif" font-size="10.00">#</text>
<text text-anchor="start" x="37" y="-799.5" font-family="Helvetica,sans-Serif" font-size="10.00">DoublyLinkable()</text>
<text text-anchor="start" x="15.5" y="-784.5" font-family="Helvetica,sans-Serif" font-size="10.00">#</text>
<text text-anchor="start" x="37" y="-784.5" font-family="Helvetica,sans-Serif" font-size="10.00">operator=()</text>
<polygon fill="#666666" stroke="#666666" points="3,-854.5 3,-854.5 150,-854.5 150,-854.5 3,-854.5"/>
<polygon fill="#666666" stroke="#666666" points="3,-824.5 3,-824.5 35,-824.5 35,-824.5 3,-824.5"/>
<polygon fill="#666666" stroke="#666666" points="35,-824.5 35,-824.5 150,-824.5 150,-824.5 35,-824.5"/>
<polygon fill="none" stroke="#666666" points="2.5,-778 2.5,-883 149.5,-883 149.5,-778 2.5,-778"/>
</a>
</g>
</g>
<!-- Node5&#45;&gt;Node4 -->
<g id="edge4_Node000004_Node000005" class="edge">
<title>Node5&#45;&gt;Node4</title>
<g id="a_edge4_Node000004_Node000005"><a xlink:title=" ">
<path fill="none" stroke="#63b8ff" d="M76,-767.96C76,-759.58 76,-750.86 76,-742.12"/>
<polygon fill="none" stroke="#63b8ff" points="72.5,-767.97 76,-777.97 79.5,-767.97 72.5,-767.97"/>
</a>
</g>
</g>
</g>
</svg>
