<?xml version="1.0" encoding="UTF-8" standalone="no"?>
<!DOCTYPE svg PUBLIC "-//W3C//DTD SVG 1.1//EN"
 "http://www.w3.org/Graphics/SVG/1.1/DTD/svg11.dtd">
<!-- Generated by graphviz version 2.43.0 (0)
 -->
<!-- Title: CCSmartPotentiometer&lt; NumBanks &gt; Pages: 1 -->
<svg width="1235pt" height="1508pt"
 viewBox="0.00 0.00 1235.00 1508.00" xmlns="http://www.w3.org/2000/svg" xmlns:xlink="http://www.w3.org/1999/xlink">
<g id="graph0" class="graph" transform="scale(1 1) rotate(0) translate(4 1504)">
<title>CCSmartPotentiometer&lt; NumBanks &gt;</title>
<polygon fill="white" stroke="transparent" points="-4,4 -4,-1504 1231,-1504 1231,4 -4,4"/>
<!-- Node1 -->
<g id="node1" class="node">
<title>Node1</title>
<g id="a_node1"><a xlink:title="A class of MIDIOutputElements that read the analog input from a potentiometer or fader,...">
<polygon fill="#bfbfbf" stroke="black" points="569,-0.5 569,-68.5 717,-68.5 717,-0.5 569,-0.5"/>
<text text-anchor="start" x="577" y="-56.5" font-family="Helvetica,sans-Serif" font-size="10.00">CCSmartPotentiometer</text>
<text text-anchor="middle" x="643" y="-45.5" font-family="Helvetica,sans-Serif" font-size="10.00">&lt; NumBanks &gt;</text>
<polyline fill="none" stroke="black" points="569,-38.5 717,-38.5 "/>
<text text-anchor="middle" x="643" y="-26.5" font-family="Helvetica,sans-Serif" font-size="10.00"> </text>
<polyline fill="none" stroke="black" points="569,-19.5 717,-19.5 "/>
<text text-anchor="start" x="577" y="-7.5" font-family="Helvetica,sans-Serif" font-size="10.00">+ CCSmartPotentiometer()</text>
</a>
</g>
</g>
<!-- Node2 -->
<g id="node2" class="node">
<title>Node2</title>
<g id="a_node2"><a xlink:href="../../d2/db7/classBankable_1_1SmartMIDIFilteredAnalog.html" target="_top" xlink:title=" ">
<polygon fill="white" stroke="black" points="563.5,-156 563.5,-356 722.5,-356 722.5,-156 563.5,-156"/>
<text text-anchor="start" x="571.5" y="-344" font-family="Helvetica,sans-Serif" font-size="10.00">SmartMIDIFilteredAnalog</text>
<text text-anchor="start" x="571.5" y="-333" font-family="Helvetica,sans-Serif" font-size="10.00">&lt; NumBanks, SingleAddress,</text>
<text text-anchor="middle" x="643" y="-322" font-family="Helvetica,sans-Serif" font-size="10.00"> ContinuousCCSender &gt;</text>
<polyline fill="none" stroke="black" points="563.5,-315 722.5,-315 "/>
<text text-anchor="start" x="571.5" y="-303" font-family="Helvetica,sans-Serif" font-size="10.00"># state</text>
<text text-anchor="start" x="571.5" y="-292" font-family="Helvetica,sans-Serif" font-size="10.00"># previousBank</text>
<polyline fill="none" stroke="black" points="563.5,-285 722.5,-285 "/>
<text text-anchor="start" x="571.5" y="-273" font-family="Helvetica,sans-Serif" font-size="10.00">+ begin()</text>
<text text-anchor="start" x="571.5" y="-262" font-family="Helvetica,sans-Serif" font-size="10.00">+ update()</text>
<text text-anchor="start" x="571.5" y="-251" font-family="Helvetica,sans-Serif" font-size="10.00">+ getState()</text>
<text text-anchor="start" x="571.5" y="-240" font-family="Helvetica,sans-Serif" font-size="10.00">+ activate()</text>
<text text-anchor="start" x="571.5" y="-229" font-family="Helvetica,sans-Serif" font-size="10.00">+ map()</text>
<text text-anchor="start" x="571.5" y="-218" font-family="Helvetica,sans-Serif" font-size="10.00">+ invert()</text>
<text text-anchor="start" x="571.5" y="-207" font-family="Helvetica,sans-Serif" font-size="10.00">+ getRawValue()</text>
<text text-anchor="start" x="571.5" y="-196" font-family="Helvetica,sans-Serif" font-size="10.00">+ getValue()</text>
<text text-anchor="start" x="571.5" y="-185" font-family="Helvetica,sans-Serif" font-size="10.00">+ getPreviousValue()</text>
<text text-anchor="start" x="571.5" y="-174" font-family="Helvetica,sans-Serif" font-size="10.00">+ getPreviousValue()</text>
<text text-anchor="start" x="571.5" y="-163" font-family="Helvetica,sans-Serif" font-size="10.00"># SmartMIDIFilteredAnalog()</text>
</a>
</g>
</g>
<!-- Node2&#45;&gt;Node1 -->
<g id="edge1" class="edge">
<title>Node2&#45;&gt;Node1</title>
<path fill="none" stroke="midnightblue" d="M643,-145.53C643,-117.49 643,-89.42 643,-68.65"/>
<polygon fill="none" stroke="midnightblue" points="639.5,-145.85 643,-155.85 646.5,-145.85 639.5,-145.85"/>
</g>
<!-- Node3 -->
<g id="node3" class="node">
<title>Node3</title>
<g id="a_node3"><a xlink:href="../../d1/d55/classAH_1_1Updatable.html" target="_top" xlink:title="A super class for object that have to be updated regularly.">
<polygon fill="white" stroke="black" points="786.5,-464.5 786.5,-554.5 899.5,-554.5 899.5,-464.5 786.5,-464.5"/>
<text text-anchor="middle" x="843" y="-542.5" font-family="Helvetica,sans-Serif" font-size="10.00">MIDIOutputElement</text>
<polyline fill="none" stroke="black" points="786.5,-535.5 899.5,-535.5 "/>
<text text-anchor="middle" x="843" y="-523.5" font-family="Helvetica,sans-Serif" font-size="10.00"> </text>
<polyline fill="none" stroke="black" points="786.5,-516.5 899.5,-516.5 "/>
<text text-anchor="start" x="794.5" y="-504.5" font-family="Helvetica,sans-Serif" font-size="10.00">* begin()</text>
<text text-anchor="start" x="794.5" y="-493.5" font-family="Helvetica,sans-Serif" font-size="10.00">* update()</text>
<text text-anchor="start" x="794.5" y="-482.5" font-family="Helvetica,sans-Serif" font-size="10.00">* beginAll()</text>
<text text-anchor="start" x="794.5" y="-471.5" font-family="Helvetica,sans-Serif" font-size="10.00">* updateAll()</text>
</a>
</g>
</g>
<!-- Node3&#45;&gt;Node2 -->
<g id="edge2" class="edge">
<title>Node3&#45;&gt;Node2</title>
<path fill="none" stroke="midnightblue" d="M801.61,-456.45C778.57,-427.48 749.11,-390.43 721.85,-356.15"/>
<polygon fill="none" stroke="midnightblue" points="798.97,-458.76 807.93,-464.4 804.45,-454.4 798.97,-458.76"/>
</g>
<!-- Node4 -->
<g id="node4" class="node">
<title>Node4</title>
<g id="a_node4"><a xlink:href="../../d8/d1a/classAH_1_1UpdatableCRTP.html" target="_top" xlink:title=" ">
<polygon fill="white" stroke="black" points="886.5,-630 886.5,-863 1039.5,-863 1039.5,-630 886.5,-630"/>
<text text-anchor="start" x="894.5" y="-851" font-family="Helvetica,sans-Serif" font-size="10.00">UpdatableCRTP&lt; Updatable</text>
<text text-anchor="middle" x="963" y="-840" font-family="Helvetica,sans-Serif" font-size="10.00">&lt; NormalUpdatable &gt; &gt;</text>
<polyline fill="none" stroke="black" points="886.5,-833 1039.5,-833 "/>
<text text-anchor="middle" x="963" y="-821" font-family="Helvetica,sans-Serif" font-size="10.00"> </text>
<polyline fill="none" stroke="black" points="886.5,-814 1039.5,-814 "/>
<text text-anchor="start" x="894.5" y="-802" font-family="Helvetica,sans-Serif" font-size="10.00">+ ~UpdatableCRTP()</text>
<text text-anchor="start" x="894.5" y="-791" font-family="Helvetica,sans-Serif" font-size="10.00"># UpdatableCRTP()</text>
<text text-anchor="start" x="894.5" y="-780" font-family="Helvetica,sans-Serif" font-size="10.00"># UpdatableCRTP()</text>
<text text-anchor="start" x="894.5" y="-769" font-family="Helvetica,sans-Serif" font-size="10.00"># UpdatableCRTP()</text>
<text text-anchor="start" x="894.5" y="-758" font-family="Helvetica,sans-Serif" font-size="10.00"># operator=()</text>
<text text-anchor="start" x="894.5" y="-747" font-family="Helvetica,sans-Serif" font-size="10.00"># operator=()</text>
<text text-anchor="start" x="894.5" y="-736" font-family="Helvetica,sans-Serif" font-size="10.00">* enable()</text>
<text text-anchor="start" x="894.5" y="-725" font-family="Helvetica,sans-Serif" font-size="10.00">* disable()</text>
<text text-anchor="start" x="894.5" y="-714" font-family="Helvetica,sans-Serif" font-size="10.00">* isEnabled()</text>
<text text-anchor="start" x="894.5" y="-703" font-family="Helvetica,sans-Serif" font-size="10.00">* moveDown()</text>
<text text-anchor="start" x="894.5" y="-692" font-family="Helvetica,sans-Serif" font-size="10.00">* enable()</text>
<text text-anchor="start" x="894.5" y="-681" font-family="Helvetica,sans-Serif" font-size="10.00">* enable()</text>
<text text-anchor="start" x="894.5" y="-670" font-family="Helvetica,sans-Serif" font-size="10.00">* enable()</text>
<text text-anchor="start" x="894.5" y="-659" font-family="Helvetica,sans-Serif" font-size="10.00">* disable()</text>
<text text-anchor="start" x="894.5" y="-648" font-family="Helvetica,sans-Serif" font-size="10.00">* disable()</text>
<text text-anchor="start" x="894.5" y="-637" font-family="Helvetica,sans-Serif" font-size="10.00">* disable()</text>
</a>
</g>
</g>
<!-- Node4&#45;&gt;Node3 -->
<g id="edge3" class="edge">
<title>Node4&#45;&gt;Node3</title>
<path fill="none" stroke="midnightblue" d="M899.24,-620.63C887.14,-596.94 875.25,-573.65 865.54,-554.63"/>
<polygon fill="none" stroke="midnightblue" points="896.21,-622.41 903.88,-629.72 902.45,-619.22 896.21,-622.41"/>
</g>
<!-- Node6 -->
<g id="node6" class="node">
<title>Node6</title>
<g id="a_node6"><a xlink:href="../../d1/d55/classAH_1_1Updatable.html" target="_top" xlink:title=" ">
<polygon fill="white" stroke="black" points="956,-464.5 956,-554.5 1132,-554.5 1132,-464.5 956,-464.5"/>
<text text-anchor="middle" x="1044" y="-542.5" font-family="Helvetica,sans-Serif" font-size="10.00">Updatable&lt; NormalUpdatable &gt;</text>
<polyline fill="none" stroke="black" points="956,-535.5 1132,-535.5 "/>
<text text-anchor="middle" x="1044" y="-523.5" font-family="Helvetica,sans-Serif" font-size="10.00"> </text>
<polyline fill="none" stroke="black" points="956,-516.5 1132,-516.5 "/>
<text text-anchor="start" x="964" y="-504.5" font-family="Helvetica,sans-Serif" font-size="10.00">* begin()</text>
<text text-anchor="start" x="964" y="-493.5" font-family="Helvetica,sans-Serif" font-size="10.00">* update()</text>
<text text-anchor="start" x="964" y="-482.5" font-family="Helvetica,sans-Serif" font-size="10.00">* beginAll()</text>
<text text-anchor="start" x="964" y="-471.5" font-family="Helvetica,sans-Serif" font-size="10.00">* updateAll()</text>
</a>
</g>
</g>
<!-- Node4&#45;&gt;Node6 -->
<g id="edge6" class="edge">
<title>Node4&#45;&gt;Node6</title>
<path fill="none" stroke="midnightblue" d="M1006.26,-620C1014.35,-596.53 1022.29,-573.48 1028.79,-554.63"/>
<polygon fill="none" stroke="midnightblue" points="1002.86,-619.13 1002.91,-629.72 1009.47,-621.41 1002.86,-619.13"/>
</g>
<!-- Node5 -->
<g id="node5" class="node">
<title>Node5</title>
<g id="a_node5"><a xlink:href="../../d4/d23/classDoublyLinkable.html" target="_top" xlink:title=" ">
<polygon fill="white" stroke="black" points="883.5,-194.5 883.5,-317.5 1036.5,-317.5 1036.5,-194.5 883.5,-194.5"/>
<text text-anchor="start" x="891.5" y="-305.5" font-family="Helvetica,sans-Serif" font-size="10.00">DoublyLinkable&lt; Updatable</text>
<text text-anchor="middle" x="960" y="-294.5" font-family="Helvetica,sans-Serif" font-size="10.00">&lt; NormalUpdatable &gt; &gt;</text>
<polyline fill="none" stroke="black" points="883.5,-287.5 1036.5,-287.5 "/>
<text text-anchor="middle" x="960" y="-275.5" font-family="Helvetica,sans-Serif" font-size="10.00"> </text>
<polyline fill="none" stroke="black" points="883.5,-268.5 1036.5,-268.5 "/>
<text text-anchor="start" x="891.5" y="-256.5" font-family="Helvetica,sans-Serif" font-size="10.00"># ~DoublyLinkable()</text>
<text text-anchor="start" x="891.5" y="-245.5" font-family="Helvetica,sans-Serif" font-size="10.00"># DoublyLinkable()</text>
<text text-anchor="start" x="891.5" y="-234.5" font-family="Helvetica,sans-Serif" font-size="10.00"># DoublyLinkable()</text>
<text text-anchor="start" x="891.5" y="-223.5" font-family="Helvetica,sans-Serif" font-size="10.00"># DoublyLinkable()</text>
<text text-anchor="start" x="891.5" y="-212.5" font-family="Helvetica,sans-Serif" font-size="10.00"># operator=()</text>
<text text-anchor="start" x="891.5" y="-201.5" font-family="Helvetica,sans-Serif" font-size="10.00"># operator=()</text>
</a>
</g>
</g>
<!-- Node5&#45;&gt;Node4 -->
<g id="edge4" class="edge">
<title>Node5&#45;&gt;Node4</title>
<path fill="none" stroke="midnightblue" d="M953.49,-327.96C948.77,-388.34 943.75,-477.35 947,-555 948.02,-579.29 949.76,-605.28 951.74,-630"/>
<polygon fill="none" stroke="midnightblue" points="957,-328.03 954.31,-317.78 950.02,-327.47 957,-328.03"/>
</g>
<!-- Node6&#45;&gt;Node5 -->
<g id="edge5" class="edge">
<title>Node6&#45;&gt;Node5</title>
<path fill="none" stroke="#404040" d="M1029.27,-464.4C1016.79,-427.03 998.64,-372.7 984.06,-329.03"/>
<polygon fill="none" stroke="#404040" points="984.04,-328.97 978.34,-324.55 980.24,-317.59 985.93,-322.01 984.04,-328.97"/>
<text text-anchor="middle" x="1046.5" y="-438" font-family="Helvetica,sans-Serif" font-size="10.00"> #next</text>
<text text-anchor="middle" x="1046.5" y="-427" font-family="Helvetica,sans-Serif" font-size="10.00">#previous</text>
</g>
<!-- Node7 -->
<g id="node7" class="node">
<title>Node7</title>
<g id="a_node7"><a xlink:href="../../dd/d16/classDoublyLinkedList.html" target="_top" xlink:title=" ">
<polygon fill="white" stroke="black" points="1064.5,-106.5 1064.5,-405.5 1225.5,-405.5 1225.5,-106.5 1064.5,-106.5"/>
<text text-anchor="start" x="1072.5" y="-393.5" font-family="Helvetica,sans-Serif" font-size="10.00">DoublyLinkedList&lt; Updatable</text>
<text text-anchor="middle" x="1145" y="-382.5" font-family="Helvetica,sans-Serif" font-size="10.00">&lt; NormalUpdatable &gt; &gt;</text>
<polyline fill="none" stroke="black" points="1064.5,-375.5 1225.5,-375.5 "/>
<text text-anchor="middle" x="1145" y="-363.5" font-family="Helvetica,sans-Serif" font-size="10.00"> </text>
<polyline fill="none" stroke="black" points="1064.5,-356.5 1225.5,-356.5 "/>
<text text-anchor="start" x="1072.5" y="-344.5" font-family="Helvetica,sans-Serif" font-size="10.00">+ append()</text>
<text text-anchor="start" x="1072.5" y="-333.5" font-family="Helvetica,sans-Serif" font-size="10.00">+ append()</text>
<text text-anchor="start" x="1072.5" y="-322.5" font-family="Helvetica,sans-Serif" font-size="10.00">+ insertBefore()</text>
<text text-anchor="start" x="1072.5" y="-311.5" font-family="Helvetica,sans-Serif" font-size="10.00">+ insertBefore()</text>
<text text-anchor="start" x="1072.5" y="-300.5" font-family="Helvetica,sans-Serif" font-size="10.00">+ insertSorted()</text>
<text text-anchor="start" x="1072.5" y="-289.5" font-family="Helvetica,sans-Serif" font-size="10.00">+ insertSorted()</text>
<text text-anchor="start" x="1072.5" y="-278.5" font-family="Helvetica,sans-Serif" font-size="10.00">+ remove()</text>
<text text-anchor="start" x="1072.5" y="-267.5" font-family="Helvetica,sans-Serif" font-size="10.00">+ remove()</text>
<text text-anchor="start" x="1072.5" y="-256.5" font-family="Helvetica,sans-Serif" font-size="10.00">+ moveDown()</text>
<text text-anchor="start" x="1072.5" y="-245.5" font-family="Helvetica,sans-Serif" font-size="10.00">+ moveDown()</text>
<text text-anchor="start" x="1072.5" y="-234.5" font-family="Helvetica,sans-Serif" font-size="10.00">+ couldContain()</text>
<text text-anchor="start" x="1072.5" y="-223.5" font-family="Helvetica,sans-Serif" font-size="10.00">+ couldContain()</text>
<text text-anchor="start" x="1072.5" y="-212.5" font-family="Helvetica,sans-Serif" font-size="10.00">+ begin()</text>
<text text-anchor="start" x="1072.5" y="-201.5" font-family="Helvetica,sans-Serif" font-size="10.00">+ begin()</text>
<text text-anchor="start" x="1072.5" y="-190.5" font-family="Helvetica,sans-Serif" font-size="10.00">+ end()</text>
<text text-anchor="start" x="1072.5" y="-179.5" font-family="Helvetica,sans-Serif" font-size="10.00">+ end()</text>
<text text-anchor="start" x="1072.5" y="-168.5" font-family="Helvetica,sans-Serif" font-size="10.00">+ rbegin()</text>
<text text-anchor="start" x="1072.5" y="-157.5" font-family="Helvetica,sans-Serif" font-size="10.00">+ rbegin()</text>
<text text-anchor="start" x="1072.5" y="-146.5" font-family="Helvetica,sans-Serif" font-size="10.00">+ rend()</text>
<text text-anchor="start" x="1072.5" y="-135.5" font-family="Helvetica,sans-Serif" font-size="10.00">+ rend()</text>
<text text-anchor="start" x="1072.5" y="-124.5" font-family="Helvetica,sans-Serif" font-size="10.00">+ getFirst()</text>
<text text-anchor="start" x="1072.5" y="-113.5" font-family="Helvetica,sans-Serif" font-size="10.00">+ getLast()</text>
</a>
</g>
</g>
<!-- Node6&#45;&gt;Node7 -->
<g id="edge8" class="edge">
<title>Node6&#45;&gt;Node7</title>
<path fill="none" stroke="#404040" d="M1067.41,-464.44C1070.42,-458.3 1073.37,-452.03 1076,-446 1080.11,-436.58 1084.19,-426.83 1088.19,-416.95"/>
<polygon fill="none" stroke="#404040" points="1088.21,-416.89 1086.73,-409.83 1092.67,-405.74 1094.15,-412.8 1088.21,-416.89"/>
<text text-anchor="middle" x="1097" y="-438" font-family="Helvetica,sans-Serif" font-size="10.00"> &#45;first</text>
<text text-anchor="middle" x="1097" y="-427" font-family="Helvetica,sans-Serif" font-size="10.00">&#45;last</text>
</g>
<!-- Node7&#45;&gt;Node4 -->
<g id="edge7" class="edge">
<title>Node7&#45;&gt;Node4</title>
<path fill="none" stroke="#404040" d="M1163.97,-405.57C1164.81,-454.66 1159.68,-508.56 1141,-555 1121.77,-602.81 1084.44,-645.77 1048.91,-678.74"/>
<polygon fill="none" stroke="#404040" points="1048.81,-678.84 1047.06,-685.83 1039.93,-686.91 1041.67,-679.91 1048.81,-678.84"/>
<text text-anchor="middle" x="1194" y="-507" font-family="Helvetica,sans-Serif" font-size="10.00"> #updatables</text>
</g>
<!-- Node8 -->
<g id="node8" class="node">
<title>Node8</title>
<g id="a_node8"><a xlink:href="../../df/de5/classBankable_1_1SingleAddress.html" target="_top" xlink:title=" ">
<polygon fill="white" stroke="black" points="187.5,-470 187.5,-549 308.5,-549 308.5,-470 187.5,-470"/>
<text text-anchor="middle" x="248" y="-537" font-family="Helvetica,sans-Serif" font-size="10.00">SingleAddress</text>
<polyline fill="none" stroke="black" points="187.5,-530 308.5,-530 "/>
<text text-anchor="middle" x="248" y="-518" font-family="Helvetica,sans-Serif" font-size="10.00"> </text>
<polyline fill="none" stroke="black" points="187.5,-511 308.5,-511 "/>
<text text-anchor="start" x="195.5" y="-499" font-family="Helvetica,sans-Serif" font-size="10.00">+ SingleAddress()</text>
<text text-anchor="start" x="195.5" y="-488" font-family="Helvetica,sans-Serif" font-size="10.00">+ getBaseAddress()</text>
<text text-anchor="start" x="195.5" y="-477" font-family="Helvetica,sans-Serif" font-size="10.00">+ getActiveAddress()</text>
</a>
</g>
</g>
<!-- Node8&#45;&gt;Node2 -->
<g id="edge9" class="edge">
<title>Node8&#45;&gt;Node2</title>
<path fill="none" stroke="#404040" d="M308.85,-469.75C374.06,-428.23 478.25,-361.9 552.96,-314.33"/>
<polygon fill="none" stroke="#404040" points="553.17,-314.19 556.09,-307.6 563.3,-307.75 560.38,-314.35 553.17,-314.19"/>
<text text-anchor="middle" x="401" y="-432.5" font-family="Helvetica,sans-Serif" font-size="10.00"> #address</text>
</g>
<!-- Node9 -->
<g id="node9" class="node">
<title>Node9</title>
<g id="a_node9"><a xlink:href="../../d2/d97/classOutputBankableMIDIAddress.html" target="_top" xlink:title="A base class for all MIDIOutputElements that can be banked.">
<polygon fill="white" stroke="black" points="160.5,-701.5 160.5,-791.5 335.5,-791.5 335.5,-701.5 160.5,-701.5"/>
<text text-anchor="middle" x="248" y="-779.5" font-family="Helvetica,sans-Serif" font-size="10.00">OutputBankableMIDIAddress</text>
<polyline fill="none" stroke="black" points="160.5,-772.5 335.5,-772.5 "/>
<text text-anchor="start" x="168.5" y="-760.5" font-family="Helvetica,sans-Serif" font-size="10.00">&#45; type</text>
<polyline fill="none" stroke="black" points="160.5,-753.5 335.5,-753.5 "/>
<text text-anchor="start" x="168.5" y="-741.5" font-family="Helvetica,sans-Serif" font-size="10.00">+ OutputBankableMIDIAddress()</text>
<text text-anchor="start" x="168.5" y="-730.5" font-family="Helvetica,sans-Serif" font-size="10.00">+ OutputBankableMIDIAddress()</text>
<text text-anchor="start" x="168.5" y="-719.5" font-family="Helvetica,sans-Serif" font-size="10.00">+ getAddressOffset()</text>
<text text-anchor="start" x="168.5" y="-708.5" font-family="Helvetica,sans-Serif" font-size="10.00">+ getAddressOffset()</text>
</a>
</g>
</g>
<!-- Node9&#45;&gt;Node8 -->
<g id="edge10" class="edge">
<title>Node9&#45;&gt;Node8</title>
<path fill="none" stroke="midnightblue" d="M248,-691.17C248,-647.68 248,-587.74 248,-549.05"/>
<polygon fill="none" stroke="midnightblue" points="244.5,-691.3 248,-701.3 251.5,-691.3 244.5,-691.3"/>
</g>
<!-- Node10 -->
<g id="node10" class="node">
<title>Node10</title>
<g id="a_node10"><a xlink:href="../../d2/d4e/classOutputBankableMIDIAddress__Base.html" target="_top" xlink:title="Class for keeping track of the active bank, and allows locking of the bank setting.">
<polygon fill="white" stroke="black" points="89.5,-1117.5 89.5,-1240.5 274.5,-1240.5 274.5,-1117.5 89.5,-1117.5"/>
<text text-anchor="middle" x="182" y="-1228.5" font-family="Helvetica,sans-Serif" font-size="10.00">OutputBankableMIDIAddress_Base</text>
<polyline fill="none" stroke="black" points="89.5,-1221.5 274.5,-1221.5 "/>
<text text-anchor="start" x="97.5" y="-1209.5" font-family="Helvetica,sans-Serif" font-size="10.00">&#45; lockedSetting</text>
<text text-anchor="start" x="97.5" y="-1198.5" font-family="Helvetica,sans-Serif" font-size="10.00">&#45; UNLOCKED</text>
<polyline fill="none" stroke="black" points="89.5,-1191.5 274.5,-1191.5 "/>
<text text-anchor="start" x="97.5" y="-1179.5" font-family="Helvetica,sans-Serif" font-size="10.00">+ getRawBankSetting()</text>
<text text-anchor="start" x="97.5" y="-1168.5" font-family="Helvetica,sans-Serif" font-size="10.00">+ getSelection()</text>
<text text-anchor="start" x="97.5" y="-1157.5" font-family="Helvetica,sans-Serif" font-size="10.00">+ lock()</text>
<text text-anchor="start" x="97.5" y="-1146.5" font-family="Helvetica,sans-Serif" font-size="10.00">+ unlock()</text>
<text text-anchor="start" x="97.5" y="-1135.5" font-family="Helvetica,sans-Serif" font-size="10.00"># OutputBankableMIDIAddress</text>
<text text-anchor="start" x="97.5" y="-1124.5" font-family="Helvetica,sans-Serif" font-size="10.00">_Base()</text>
</a>
</g>
</g>
<!-- Node10&#45;&gt;Node9 -->
<g id="edge11" class="edge">
<title>Node10&#45;&gt;Node9</title>
<path fill="none" stroke="midnightblue" d="M192.86,-1107.16C206.59,-1017.6 229.81,-866.13 241.24,-791.6"/>
<polygon fill="none" stroke="midnightblue" points="189.37,-1106.82 191.32,-1117.23 196.29,-1107.88 189.37,-1106.82"/>
</g>
<!-- Node11 -->
<g id="node11" class="node">
<title>Node11</title>
<g id="a_node11"><a xlink:href="../../d9/d36/classOutputBank.html" target="_top" xlink:title="A class for changing the address of BankableMIDIOutputs.">
<polygon fill="white" stroke="black" points="119,-1354.5 119,-1499.5 245,-1499.5 245,-1354.5 119,-1354.5"/>
<text text-anchor="middle" x="182" y="-1487.5" font-family="Helvetica,sans-Serif" font-size="10.00">OutputBank</text>
<polyline fill="none" stroke="black" points="119,-1480.5 245,-1480.5 "/>
<text text-anchor="start" x="127" y="-1468.5" font-family="Helvetica,sans-Serif" font-size="10.00">&#45; tracksPerBank</text>
<text text-anchor="start" x="127" y="-1457.5" font-family="Helvetica,sans-Serif" font-size="10.00">&#45; bankSetting</text>
<text text-anchor="start" x="127" y="-1446.5" font-family="Helvetica,sans-Serif" font-size="10.00">&#45; selectionOffset</text>
<polyline fill="none" stroke="black" points="119,-1439.5 245,-1439.5 "/>
<text text-anchor="start" x="127" y="-1427.5" font-family="Helvetica,sans-Serif" font-size="10.00">+ OutputBank()</text>
<text text-anchor="start" x="127" y="-1416.5" font-family="Helvetica,sans-Serif" font-size="10.00">+ select()</text>
<text text-anchor="start" x="127" y="-1405.5" font-family="Helvetica,sans-Serif" font-size="10.00">+ getSelection()</text>
<text text-anchor="start" x="127" y="-1394.5" font-family="Helvetica,sans-Serif" font-size="10.00">+ getSelectionOffset()</text>
<text text-anchor="start" x="127" y="-1383.5" font-family="Helvetica,sans-Serif" font-size="10.00">+ getTracksPerBank()</text>
<text text-anchor="start" x="127" y="-1372.5" font-family="Helvetica,sans-Serif" font-size="10.00">+ getOffsetOfSetting()</text>
<text text-anchor="start" x="127" y="-1361.5" font-family="Helvetica,sans-Serif" font-size="10.00">+ getOffset()</text>
</a>
</g>
</g>
<!-- Node11&#45;&gt;Node10 -->
<g id="edge12" class="edge">
<title>Node11&#45;&gt;Node10</title>
<path fill="none" stroke="#404040" d="M182,-1354.19C182,-1322.39 182,-1285.03 182,-1253.08"/>
<polygon fill="none" stroke="#404040" points="182,-1252.67 178,-1246.67 182,-1240.67 186,-1246.67 182,-1252.67"/>
<text text-anchor="middle" x="200" y="-1306" font-family="Helvetica,sans-Serif" font-size="10.00"> #bank</text>
</g>
<!-- Node12 -->
<g id="node12" class="node">
<title>Node12</title>
<g id="a_node12"><a xlink:href="../../d7/d0f/classMIDIAddress.html" target="_top" xlink:title="A type&#45;safe utility class for saving a MIDI address consisting of a 7&#45;bit address,...">
<polygon fill="white" stroke="black" points="0,-602.5 0,-890.5 142,-890.5 142,-602.5 0,-602.5"/>
<text text-anchor="middle" x="71" y="-878.5" font-family="Helvetica,sans-Serif" font-size="10.00">MIDIAddress</text>
<polyline fill="none" stroke="black" points="0,-871.5 142,-871.5 "/>
<text text-anchor="start" x="8" y="-859.5" font-family="Helvetica,sans-Serif" font-size="10.00">&#45; addresses</text>
<polyline fill="none" stroke="black" points="0,-852.5 142,-852.5 "/>
<text text-anchor="start" x="8" y="-840.5" font-family="Helvetica,sans-Serif" font-size="10.00">* MIDIAddress()</text>
<text text-anchor="start" x="8" y="-829.5" font-family="Helvetica,sans-Serif" font-size="10.00">* MIDIAddress()</text>
<text text-anchor="start" x="8" y="-818.5" font-family="Helvetica,sans-Serif" font-size="10.00">* MIDIAddress()</text>
<text text-anchor="start" x="8" y="-807.5" font-family="Helvetica,sans-Serif" font-size="10.00">* MIDIAddress()</text>
<text text-anchor="start" x="8" y="-796.5" font-family="Helvetica,sans-Serif" font-size="10.00">* MIDIAddress()</text>
<text text-anchor="start" x="8" y="-785.5" font-family="Helvetica,sans-Serif" font-size="10.00">* MIDIAddress()</text>
<text text-anchor="start" x="8" y="-774.5" font-family="Helvetica,sans-Serif" font-size="10.00">* invalid()</text>
<text text-anchor="start" x="8" y="-763.5" font-family="Helvetica,sans-Serif" font-size="10.00">* operator+=()</text>
<text text-anchor="start" x="8" y="-752.5" font-family="Helvetica,sans-Serif" font-size="10.00">* operator&#45;=()</text>
<text text-anchor="start" x="8" y="-741.5" font-family="Helvetica,sans-Serif" font-size="10.00">* operator+()</text>
<text text-anchor="start" x="8" y="-730.5" font-family="Helvetica,sans-Serif" font-size="10.00">* operator&#45;()</text>
<text text-anchor="start" x="8" y="-719.5" font-family="Helvetica,sans-Serif" font-size="10.00">* getAddress()</text>
<text text-anchor="start" x="8" y="-708.5" font-family="Helvetica,sans-Serif" font-size="10.00">* getChannel()</text>
<text text-anchor="start" x="8" y="-697.5" font-family="Helvetica,sans-Serif" font-size="10.00">* getRawChannel()</text>
<text text-anchor="start" x="8" y="-686.5" font-family="Helvetica,sans-Serif" font-size="10.00">* getCableNumber()</text>
<text text-anchor="start" x="8" y="-675.5" font-family="Helvetica,sans-Serif" font-size="10.00">* getRawCableNumber()</text>
<text text-anchor="start" x="8" y="-664.5" font-family="Helvetica,sans-Serif" font-size="10.00">* operator==()</text>
<text text-anchor="start" x="8" y="-653.5" font-family="Helvetica,sans-Serif" font-size="10.00">* operator!=()</text>
<text text-anchor="start" x="8" y="-642.5" font-family="Helvetica,sans-Serif" font-size="10.00">* isValid()</text>
<text text-anchor="start" x="8" y="-631.5" font-family="Helvetica,sans-Serif" font-size="10.00">* operator bool()</text>
<text text-anchor="start" x="8" y="-620.5" font-family="Helvetica,sans-Serif" font-size="10.00">* matchSingle()</text>
<text text-anchor="start" x="8" y="-609.5" font-family="Helvetica,sans-Serif" font-size="10.00">* matchAddressInRange()</text>
</a>
</g>
</g>
<!-- Node12&#45;&gt;Node8 -->
<g id="edge13" class="edge">
<title>Node12&#45;&gt;Node8</title>
<path fill="none" stroke="#404040" d="M142.2,-613.82C145.08,-609.78 148.02,-605.83 151,-602 163.13,-586.42 177.95,-571.06 192.31,-557.51"/>
<polygon fill="none" stroke="#404040" points="192.36,-557.47 194.05,-550.46 201.17,-549.32 199.48,-556.33 192.36,-557.47"/>
<text text-anchor="middle" x="199" y="-576" font-family="Helvetica,sans-Serif" font-size="10.00"> &#45;address</text>
</g>
<!-- Node13 -->
<g id="node13" class="node">
<title>Node13</title>
<g id="a_node13"><a xlink:href="../../d3/d6e/classAH_1_1FilteredAnalog.html" target="_top" xlink:title=" ">
<polygon fill="white" stroke="black" points="529,-464.5 529,-554.5 661,-554.5 661,-464.5 529,-464.5"/>
<text text-anchor="start" x="537" y="-542.5" font-family="Helvetica,sans-Serif" font-size="10.00">FilteredAnalog&lt; Sender</text>
<text text-anchor="middle" x="595" y="-531.5" font-family="Helvetica,sans-Serif" font-size="10.00">::precision()&gt;</text>
<polyline fill="none" stroke="black" points="529,-524.5 661,-524.5 "/>
<text text-anchor="middle" x="595" y="-512.5" font-family="Helvetica,sans-Serif" font-size="10.00"> </text>
<polyline fill="none" stroke="black" points="529,-505.5 661,-505.5 "/>
<text text-anchor="start" x="537" y="-493.5" font-family="Helvetica,sans-Serif" font-size="10.00">+ FilteredAnalog()</text>
<text text-anchor="start" x="537" y="-482.5" font-family="Helvetica,sans-Serif" font-size="10.00">+ FilteredAnalog()</text>
<text text-anchor="start" x="537" y="-471.5" font-family="Helvetica,sans-Serif" font-size="10.00">+ invert()</text>
</a>
</g>
</g>
<!-- Node13&#45;&gt;Node2 -->
<g id="edge14" class="edge">
<title>Node13&#45;&gt;Node2</title>
<path fill="none" stroke="#404040" d="M593.34,-464.47C593.43,-451.39 594.12,-437.07 596,-424 598.64,-405.69 602.71,-386.56 607.39,-368.05"/>
<polygon fill="none" stroke="#404040" points="607.42,-367.92 605.06,-361.11 610.45,-356.31 612.81,-363.13 607.42,-367.92"/>
<text text-anchor="middle" x="636" y="-432.5" font-family="Helvetica,sans-Serif" font-size="10.00"> #filteredAnalog</text>
</g>
<!-- Node14 -->
<g id="node14" class="node">
<title>Node14</title>
<g id="a_node14"><a xlink:href="../../da/d36/classAH_1_1GenericFilteredAnalog.html" target="_top" xlink:title=" ">
<polygon fill="white" stroke="black" points="425,-608 425,-885 649,-885 649,-608 425,-608"/>
<text text-anchor="start" x="433" y="-873" font-family="Helvetica,sans-Serif" font-size="10.00">GenericFilteredAnalog</text>
<text text-anchor="start" x="433" y="-862" font-family="Helvetica,sans-Serif" font-size="10.00">&lt; analog_t(*)(analog</text>
<text text-anchor="start" x="433" y="-851" font-family="Helvetica,sans-Serif" font-size="10.00">_t), Precision, ANALOG</text>
<text text-anchor="start" x="433" y="-840" font-family="Helvetica,sans-Serif" font-size="10.00">_FILTER_SHIFT_FACTOR, ANALOG</text>
<text text-anchor="start" x="433" y="-829" font-family="Helvetica,sans-Serif" font-size="10.00">_FILTER_TYPE, analog_t, MaximumFiltered</text>
<text text-anchor="start" x="433" y="-818" font-family="Helvetica,sans-Serif" font-size="10.00">AnalogIncRes&lt; ANALOG_FILTER_SHIFT</text>
<text text-anchor="start" x="433" y="-807" font-family="Helvetica,sans-Serif" font-size="10.00">_FACTOR, ANALOG_FILTER_TYPE, analog</text>
<text text-anchor="middle" x="537" y="-796" font-family="Helvetica,sans-Serif" font-size="10.00">_t &gt;::value &gt;</text>
<polyline fill="none" stroke="black" points="425,-789 649,-789 "/>
<text text-anchor="start" x="433" y="-777" font-family="Helvetica,sans-Serif" font-size="10.00">&#45; analogPin</text>
<polyline fill="none" stroke="black" points="425,-770 649,-770 "/>
<text text-anchor="start" x="433" y="-758" font-family="Helvetica,sans-Serif" font-size="10.00">+ GenericFilteredAnalog()</text>
<text text-anchor="start" x="433" y="-747" font-family="Helvetica,sans-Serif" font-size="10.00">+ reset()</text>
<text text-anchor="start" x="433" y="-736" font-family="Helvetica,sans-Serif" font-size="10.00">+ resetToCurrentValue()</text>
<text text-anchor="start" x="433" y="-725" font-family="Helvetica,sans-Serif" font-size="10.00">+ map()</text>
<text text-anchor="start" x="433" y="-714" font-family="Helvetica,sans-Serif" font-size="10.00">+ getMappingFunction()</text>
<text text-anchor="start" x="433" y="-703" font-family="Helvetica,sans-Serif" font-size="10.00">+ getMappingFunction()</text>
<text text-anchor="start" x="433" y="-692" font-family="Helvetica,sans-Serif" font-size="10.00">+ update()</text>
<text text-anchor="start" x="433" y="-681" font-family="Helvetica,sans-Serif" font-size="10.00">+ getValue()</text>
<text text-anchor="start" x="433" y="-670" font-family="Helvetica,sans-Serif" font-size="10.00">+ getFloatValue()</text>
<text text-anchor="start" x="433" y="-659" font-family="Helvetica,sans-Serif" font-size="10.00">+ getRawValue()</text>
<text text-anchor="start" x="433" y="-648" font-family="Helvetica,sans-Serif" font-size="10.00">+ getMaxRawValue()</text>
<text text-anchor="start" x="433" y="-637" font-family="Helvetica,sans-Serif" font-size="10.00">+ setupADC()</text>
<text text-anchor="start" x="433" y="-626" font-family="Helvetica,sans-Serif" font-size="10.00">&#45; mapFnHelper()</text>
<text text-anchor="start" x="433" y="-615" font-family="Helvetica,sans-Serif" font-size="10.00">&#45; mapFnHelper()</text>
</a>
</g>
</g>
<!-- Node14&#45;&gt;Node13 -->
<g id="edge15" class="edge">
<title>Node14&#45;&gt;Node13</title>
<path fill="none" stroke="midnightblue" d="M573.39,-598.04C577.22,-582.54 580.86,-567.78 584.03,-554.95"/>
<polygon fill="none" stroke="midnightblue" points="569.99,-597.23 570.99,-607.78 576.78,-598.91 569.99,-597.23"/>
</g>
<!-- Node15 -->
<g id="node15" class="node">
<title>Node15</title>
<g id="a_node15"><a xlink:title=" ">
<polygon fill="white" stroke="black" points="626.5,-1398.5 626.5,-1455.5 685.5,-1455.5 685.5,-1398.5 626.5,-1398.5"/>
<text text-anchor="middle" x="656" y="-1443.5" font-family="Helvetica,sans-Serif" font-size="10.00">analog_t</text>
<polyline fill="none" stroke="black" points="626.5,-1436.5 685.5,-1436.5 "/>
<text text-anchor="middle" x="656" y="-1424.5" font-family="Helvetica,sans-Serif" font-size="10.00"> </text>
<polyline fill="none" stroke="black" points="626.5,-1417.5 685.5,-1417.5 "/>
<text text-anchor="middle" x="656" y="-1405.5" font-family="Helvetica,sans-Serif" font-size="10.00"> </text>
</a>
</g>
</g>
<!-- Node15&#45;&gt;Node2 -->
<g id="edge20" class="edge">
<title>Node15&#45;&gt;Node2</title>
<path fill="none" stroke="#404040" d="M663.15,-1398.2C667.46,-1380.51 672.73,-1357.04 676,-1336 686.68,-1267.21 690,-1249.61 690,-1180 690,-1180 690,-1180 690,-508.5 690,-462.01 682.15,-411.5 672.86,-368.03"/>
<polygon fill="none" stroke="#404040" points="672.85,-367.98 667.65,-362.97 670.27,-356.26 675.47,-361.26 672.85,-367.98"/>
<text text-anchor="middle" x="710" y="-744" font-family="Helvetica,sans-Serif" font-size="10.00"> #initial</text>
</g>
<!-- Node15&#45;&gt;Node14 -->
<g id="edge16" class="edge">
<title>Node15&#45;&gt;Node14</title>
<path fill="none" stroke="#404040" d="M626.23,-1408.78C585.19,-1383.09 513.01,-1330.46 484,-1263 456.6,-1199.28 481.43,-1025.32 505.52,-897.02"/>
<polygon fill="none" stroke="#404040" points="505.53,-896.93 502.72,-890.29 507.77,-885.14 510.58,-891.78 505.53,-896.93"/>
<text text-anchor="middle" x="504.5" y="-1176.5" font-family="Helvetica,sans-Serif" font-size="10.00"> &#45;mapFn</text>
</g>
<!-- Node17 -->
<g id="node17" class="node">
<title>Node17</title>
<g id="a_node17"><a xlink:href="../../d2/dcb/classHysteresis.html" target="_top" xlink:title=" ">
<polygon fill="white" stroke="black" points="534,-1128.5 534,-1229.5 662,-1229.5 662,-1128.5 534,-1128.5"/>
<text text-anchor="start" x="542" y="-1217.5" font-family="Helvetica,sans-Serif" font-size="10.00">Hysteresis&lt; ADC_BITS</text>
<text text-anchor="start" x="542" y="-1206.5" font-family="Helvetica,sans-Serif" font-size="10.00">+IncRes &#45; Precision,</text>
<text text-anchor="middle" x="598" y="-1195.5" font-family="Helvetica,sans-Serif" font-size="10.00"> analog_t, analog_t &gt;</text>
<polyline fill="none" stroke="black" points="534,-1188.5 662,-1188.5 "/>
<text text-anchor="middle" x="598" y="-1176.5" font-family="Helvetica,sans-Serif" font-size="10.00"> </text>
<polyline fill="none" stroke="black" points="534,-1169.5 662,-1169.5 "/>
<text text-anchor="start" x="542" y="-1157.5" font-family="Helvetica,sans-Serif" font-size="10.00">+ update()</text>
<text text-anchor="start" x="542" y="-1146.5" font-family="Helvetica,sans-Serif" font-size="10.00">+ getValue()</text>
<text text-anchor="start" x="542" y="-1135.5" font-family="Helvetica,sans-Serif" font-size="10.00">+ setValue()</text>
</a>
</g>
</g>
<!-- Node15&#45;&gt;Node17 -->
<g id="edge19" class="edge">
<title>Node15&#45;&gt;Node17</title>
<path fill="none" stroke="#404040" d="M644.77,-1398.42C637.95,-1380.81 629.53,-1357.35 624,-1336 616.05,-1305.3 609.98,-1270.55 605.71,-1241.65"/>
<polygon fill="none" stroke="#404040" points="605.7,-1241.53 600.89,-1236.16 604,-1229.65 608.81,-1235.02 605.7,-1241.53"/>
<text text-anchor="middle" x="650" y="-1328" font-family="Helvetica,sans-Serif" font-size="10.00"> &#45;margin</text>
<text text-anchor="middle" x="650" y="-1317" font-family="Helvetica,sans-Serif" font-size="10.00">&#45;max_in</text>
<text text-anchor="middle" x="650" y="-1306" font-family="Helvetica,sans-Serif" font-size="10.00">&#45;max_out</text>
<text text-anchor="middle" x="650" y="-1295" font-family="Helvetica,sans-Serif" font-size="10.00">&#45;offset</text>
<text text-anchor="middle" x="650" y="-1284" font-family="Helvetica,sans-Serif" font-size="10.00">&#45;prevLevel</text>
</g>
<!-- Node18 -->
<g id="node18" class="node">
<title>Node18</title>
<g id="a_node18"><a xlink:href="../../d0/d32/structAH_1_1Array.html" target="_top" xlink:title=" ">
<polygon fill="white" stroke="black" points="704.5,-909.5 704.5,-1076.5 871.5,-1076.5 871.5,-909.5 704.5,-909.5"/>
<text text-anchor="middle" x="788" y="-1064.5" font-family="Helvetica,sans-Serif" font-size="10.00">Array&lt; analog_t, NumBanks &gt;</text>
<polyline fill="none" stroke="black" points="704.5,-1057.5 871.5,-1057.5 "/>
<text text-anchor="start" x="712.5" y="-1045.5" font-family="Helvetica,sans-Serif" font-size="10.00">+ length</text>
<polyline fill="none" stroke="black" points="704.5,-1038.5 871.5,-1038.5 "/>
<text text-anchor="start" x="712.5" y="-1026.5" font-family="Helvetica,sans-Serif" font-size="10.00">+ operator[]()</text>
<text text-anchor="start" x="712.5" y="-1015.5" font-family="Helvetica,sans-Serif" font-size="10.00">+ operator[]()</text>
<text text-anchor="start" x="712.5" y="-1004.5" font-family="Helvetica,sans-Serif" font-size="10.00">+ begin()</text>
<text text-anchor="start" x="712.5" y="-993.5" font-family="Helvetica,sans-Serif" font-size="10.00">+ begin()</text>
<text text-anchor="start" x="712.5" y="-982.5" font-family="Helvetica,sans-Serif" font-size="10.00">+ end()</text>
<text text-anchor="start" x="712.5" y="-971.5" font-family="Helvetica,sans-Serif" font-size="10.00">+ end()</text>
<text text-anchor="start" x="712.5" y="-960.5" font-family="Helvetica,sans-Serif" font-size="10.00">+ operator==()</text>
<text text-anchor="start" x="712.5" y="-949.5" font-family="Helvetica,sans-Serif" font-size="10.00">+ operator!=()</text>
<text text-anchor="start" x="712.5" y="-938.5" font-family="Helvetica,sans-Serif" font-size="10.00">+ slice()</text>
<text text-anchor="start" x="712.5" y="-927.5" font-family="Helvetica,sans-Serif" font-size="10.00">+ slice()</text>
<text text-anchor="start" x="712.5" y="-916.5" font-family="Helvetica,sans-Serif" font-size="10.00">+ cslice()</text>
</a>
</g>
</g>
<!-- Node15&#45;&gt;Node18 -->
<g id="edge22" class="edge">
<title>Node15&#45;&gt;Node18</title>
<path fill="none" stroke="#404040" d="M673,-1398.48C683.15,-1381.08 695.65,-1357.83 704,-1336 735.08,-1254.76 757.56,-1158.19 771.4,-1088.42"/>
<polygon fill="none" stroke="#404040" points="771.41,-1088.37 768.63,-1081.71 773.71,-1076.59 776.49,-1083.25 771.41,-1088.37"/>
<text text-anchor="middle" x="739" y="-1306" font-family="Helvetica,sans-Serif" font-size="10.00"> +data</text>
</g>
<!-- Node16 -->
<g id="node16" class="node">
<title>Node16</title>
<g id="a_node16"><a xlink:href="../../d7/d40/classEMA.html" target="_top" xlink:title=" ">
<polygon fill="white" stroke="black" points="293,-1095.5 293,-1262.5 439,-1262.5 439,-1095.5 293,-1095.5"/>
<text text-anchor="start" x="301" y="-1250.5" font-family="Helvetica,sans-Serif" font-size="10.00">EMA&lt; FilterShiftFactor,</text>
<text text-anchor="start" x="301" y="-1239.5" font-family="Helvetica,sans-Serif" font-size="10.00"> analog_t, ANALOG_FILTER</text>
<text text-anchor="middle" x="366" y="-1228.5" font-family="Helvetica,sans-Serif" font-size="10.00">_TYPE &gt;</text>
<polyline fill="none" stroke="black" points="293,-1221.5 439,-1221.5 "/>
<text text-anchor="start" x="301" y="-1209.5" font-family="Helvetica,sans-Serif" font-size="10.00">+ max_state</text>
<text text-anchor="start" x="301" y="-1198.5" font-family="Helvetica,sans-Serif" font-size="10.00">+ half_state</text>
<text text-anchor="start" x="301" y="-1187.5" font-family="Helvetica,sans-Serif" font-size="10.00">+ zero</text>
<text text-anchor="start" x="301" y="-1176.5" font-family="Helvetica,sans-Serif" font-size="10.00">+ half</text>
<text text-anchor="start" x="301" y="-1165.5" font-family="Helvetica,sans-Serif" font-size="10.00">&#45; state</text>
<polyline fill="none" stroke="black" points="293,-1158.5 439,-1158.5 "/>
<text text-anchor="start" x="301" y="-1146.5" font-family="Helvetica,sans-Serif" font-size="10.00">+ EMA()</text>
<text text-anchor="start" x="301" y="-1135.5" font-family="Helvetica,sans-Serif" font-size="10.00">+ reset()</text>
<text text-anchor="start" x="301" y="-1124.5" font-family="Helvetica,sans-Serif" font-size="10.00">+ filter()</text>
<text text-anchor="start" x="301" y="-1113.5" font-family="Helvetica,sans-Serif" font-size="10.00">+ operator()()</text>
<text text-anchor="start" x="301" y="-1102.5" font-family="Helvetica,sans-Serif" font-size="10.00">+ supports_range()</text>
</a>
</g>
</g>
<!-- Node16&#45;&gt;Node14 -->
<g id="edge17" class="edge">
<title>Node16&#45;&gt;Node14</title>
<path fill="none" stroke="#404040" d="M378.38,-1095.31C388.36,-1040.86 405.06,-968.84 431,-909 432.81,-904.83 434.72,-900.65 436.72,-896.47"/>
<polygon fill="none" stroke="#404040" points="436.87,-896.17 435.96,-889.02 442.22,-885.43 443.13,-892.58 436.87,-896.17"/>
<text text-anchor="middle" x="446" y="-990.5" font-family="Helvetica,sans-Serif" font-size="10.00"> &#45;filter</text>
</g>
<!-- Node17&#45;&gt;Node14 -->
<g id="edge18" class="edge">
<title>Node17&#45;&gt;Node14</title>
<path fill="none" stroke="#404040" d="M590.94,-1128.2C582.99,-1072.09 569.69,-978.23 558.29,-897.74"/>
<polygon fill="none" stroke="#404040" points="558.23,-897.34 553.43,-891.96 556.55,-885.46 561.35,-890.84 558.23,-897.34"/>
<text text-anchor="middle" x="612" y="-990.5" font-family="Helvetica,sans-Serif" font-size="10.00"> &#45;hysteresis</text>
</g>
<!-- Node18&#45;&gt;Node2 -->
<g id="edge21" class="edge">
<title>Node18&#45;&gt;Node2</title>
<path fill="none" stroke="#404040" d="M781.62,-909.48C771.68,-797.89 748.8,-593.37 704,-424 699.13,-405.59 693.06,-386.35 686.66,-367.76"/>
<polygon fill="none" stroke="#404040" points="686.61,-367.6 680.85,-363.26 682.64,-356.28 688.4,-360.62 686.61,-367.6"/>
<text text-anchor="middle" x="780" y="-576" font-family="Helvetica,sans-Serif" font-size="10.00"> #previousValues</text>
</g>
<!-- Node19 -->
<g id="node19" class="node">
<title>Node19</title>
<g id="a_node19"><a xlink:href="../../da/d07/classContinuousCCSender.html" target="_top" xlink:title="Class that sends continuous MIDI control change messages with a resolution of 7 bits.">
<polygon fill="white" stroke="black" points="391.5,-475.5 391.5,-543.5 510.5,-543.5 510.5,-475.5 391.5,-475.5"/>
<text text-anchor="middle" x="451" y="-531.5" font-family="Helvetica,sans-Serif" font-size="10.00">ContinuousCCSender</text>
<polyline fill="none" stroke="black" points="391.5,-524.5 510.5,-524.5 "/>
<text text-anchor="middle" x="451" y="-512.5" font-family="Helvetica,sans-Serif" font-size="10.00"> </text>
<polyline fill="none" stroke="black" points="391.5,-505.5 510.5,-505.5 "/>
<text text-anchor="start" x="399.5" y="-493.5" font-family="Helvetica,sans-Serif" font-size="10.00">+ send()</text>
<text text-anchor="start" x="399.5" y="-482.5" font-family="Helvetica,sans-Serif" font-size="10.00">+ precision()</text>
</a>
</g>
</g>
<!-- Node19&#45;&gt;Node2 -->
<g id="edge23" class="edge">
<title>Node19&#45;&gt;Node2</title>
<path fill="none" stroke="#404040" d="M476.3,-475.36C497.7,-447.33 529.62,-405.52 559.82,-365.96"/>
<polygon fill="none" stroke="#404040" points="559.96,-365.77 560.43,-358.57 567.25,-356.23 566.78,-363.43 559.96,-365.77"/>
<text text-anchor="middle" x="535.5" y="-432.5" font-family="Helvetica,sans-Serif" font-size="10.00"> +sender</text>
</g>
</g>
</svg>
