<?xml version="1.0" encoding="UTF-8" standalone="no"?>
<!DOCTYPE svg PUBLIC "-//W3C//DTD SVG 1.1//EN"
 "http://www.w3.org/Graphics/SVG/1.1/DTD/svg11.dtd">
<!-- Generated by graphviz version 2.43.0 (0)
 -->
<!-- Title: MIDIChordButton&lt; Sender &gt; Pages: 1 -->
<svg width="810pt" height="947pt"
 viewBox="0.00 0.00 809.50 947.00" xmlns="http://www.w3.org/2000/svg" xmlns:xlink="http://www.w3.org/1999/xlink">
<g id="graph0" class="graph" transform="scale(1 1) rotate(0) translate(4 943)">
<title>MIDIChordButton&lt; Sender &gt;</title>
<polygon fill="white" stroke="transparent" points="-4,4 -4,-943 805.5,-943 805.5,4 -4,4"/>
<!-- Node1 -->
<g id="node1" class="node">
<title>Node1</title>
<g id="a_node1"><a xlink:title="An abstract class for momentary push buttons that send multiple MIDI events.">
<polygon fill="#bfbfbf" stroke="black" points="496.5,-72 496.5,-228 652.5,-228 652.5,-72 496.5,-72"/>
<text text-anchor="middle" x="574.5" y="-216" font-family="Helvetica,sans-Serif" font-size="10.00">MIDIChordButton&lt; Sender &gt;</text>
<polyline fill="none" stroke="black" points="496.5,-209 652.5,-209 "/>
<text text-anchor="start" x="504.5" y="-197" font-family="Helvetica,sans-Serif" font-size="10.00">+ sender</text>
<text text-anchor="start" x="504.5" y="-186" font-family="Helvetica,sans-Serif" font-size="10.00">&#45; chord</text>
<text text-anchor="start" x="504.5" y="-175" font-family="Helvetica,sans-Serif" font-size="10.00">&#45; newChord</text>
<polyline fill="none" stroke="black" points="496.5,-168 652.5,-168 "/>
<text text-anchor="start" x="504.5" y="-156" font-family="Helvetica,sans-Serif" font-size="10.00">+ MIDIChordButton()</text>
<text text-anchor="start" x="504.5" y="-145" font-family="Helvetica,sans-Serif" font-size="10.00">+ begin()</text>
<text text-anchor="start" x="504.5" y="-134" font-family="Helvetica,sans-Serif" font-size="10.00">+ update()</text>
<text text-anchor="start" x="504.5" y="-123" font-family="Helvetica,sans-Serif" font-size="10.00">+ invert()</text>
<text text-anchor="start" x="504.5" y="-112" font-family="Helvetica,sans-Serif" font-size="10.00">+ getButtonState()</text>
<text text-anchor="start" x="504.5" y="-101" font-family="Helvetica,sans-Serif" font-size="10.00">+ setChord()</text>
<text text-anchor="start" x="504.5" y="-90" font-family="Helvetica,sans-Serif" font-size="10.00">+ getAddress()</text>
<text text-anchor="start" x="504.5" y="-79" font-family="Helvetica,sans-Serif" font-size="10.00">+ setAddressUnsafe()</text>
</a>
</g>
</g>
<!-- Node2 -->
<g id="node2" class="node">
<title>Node2</title>
<g id="a_node2"><a xlink:href="../../d1/d55/classAH_1_1Updatable.html" target="_top" xlink:title="A super class for object that have to be updated regularly.">
<polygon fill="white" stroke="black" points="372,-463 372,-553 485,-553 485,-463 372,-463"/>
<text text-anchor="middle" x="428.5" y="-541" font-family="Helvetica,sans-Serif" font-size="10.00">MIDIOutputElement</text>
<polyline fill="none" stroke="black" points="372,-534 485,-534 "/>
<text text-anchor="middle" x="428.5" y="-522" font-family="Helvetica,sans-Serif" font-size="10.00"> </text>
<polyline fill="none" stroke="black" points="372,-515 485,-515 "/>
<text text-anchor="start" x="380" y="-503" font-family="Helvetica,sans-Serif" font-size="10.00">* begin()</text>
<text text-anchor="start" x="380" y="-492" font-family="Helvetica,sans-Serif" font-size="10.00">* update()</text>
<text text-anchor="start" x="380" y="-481" font-family="Helvetica,sans-Serif" font-size="10.00">* beginAll()</text>
<text text-anchor="start" x="380" y="-470" font-family="Helvetica,sans-Serif" font-size="10.00">* updateAll()</text>
</a>
</g>
</g>
<!-- Node2&#45;&gt;Node1 -->
<g id="edge1" class="edge">
<title>Node2&#45;&gt;Node1</title>
<path fill="none" stroke="midnightblue" d="M450.35,-453.73C474.86,-393.97 514.83,-296.49 542.78,-228.34"/>
<polygon fill="none" stroke="midnightblue" points="447.11,-452.41 446.55,-462.99 453.58,-455.07 447.11,-452.41"/>
</g>
<!-- Node3 -->
<g id="node3" class="node">
<title>Node3</title>
<g id="a_node3"><a xlink:href="../../d8/d1a/classAH_1_1UpdatableCRTP.html" target="_top" xlink:title=" ">
<polygon fill="white" stroke="black" points="149,-705.5 149,-938.5 302,-938.5 302,-705.5 149,-705.5"/>
<text text-anchor="start" x="157" y="-926.5" font-family="Helvetica,sans-Serif" font-size="10.00">UpdatableCRTP&lt; Updatable</text>
<text text-anchor="middle" x="225.5" y="-915.5" font-family="Helvetica,sans-Serif" font-size="10.00">&lt; NormalUpdatable &gt; &gt;</text>
<polyline fill="none" stroke="black" points="149,-908.5 302,-908.5 "/>
<text text-anchor="middle" x="225.5" y="-896.5" font-family="Helvetica,sans-Serif" font-size="10.00"> </text>
<polyline fill="none" stroke="black" points="149,-889.5 302,-889.5 "/>
<text text-anchor="start" x="157" y="-877.5" font-family="Helvetica,sans-Serif" font-size="10.00">+ ~UpdatableCRTP()</text>
<text text-anchor="start" x="157" y="-866.5" font-family="Helvetica,sans-Serif" font-size="10.00"># UpdatableCRTP()</text>
<text text-anchor="start" x="157" y="-855.5" font-family="Helvetica,sans-Serif" font-size="10.00"># UpdatableCRTP()</text>
<text text-anchor="start" x="157" y="-844.5" font-family="Helvetica,sans-Serif" font-size="10.00"># UpdatableCRTP()</text>
<text text-anchor="start" x="157" y="-833.5" font-family="Helvetica,sans-Serif" font-size="10.00"># operator=()</text>
<text text-anchor="start" x="157" y="-822.5" font-family="Helvetica,sans-Serif" font-size="10.00"># operator=()</text>
<text text-anchor="start" x="157" y="-811.5" font-family="Helvetica,sans-Serif" font-size="10.00">* enable()</text>
<text text-anchor="start" x="157" y="-800.5" font-family="Helvetica,sans-Serif" font-size="10.00">* disable()</text>
<text text-anchor="start" x="157" y="-789.5" font-family="Helvetica,sans-Serif" font-size="10.00">* isEnabled()</text>
<text text-anchor="start" x="157" y="-778.5" font-family="Helvetica,sans-Serif" font-size="10.00">* moveDown()</text>
<text text-anchor="start" x="157" y="-767.5" font-family="Helvetica,sans-Serif" font-size="10.00">* enable()</text>
<text text-anchor="start" x="157" y="-756.5" font-family="Helvetica,sans-Serif" font-size="10.00">* enable()</text>
<text text-anchor="start" x="157" y="-745.5" font-family="Helvetica,sans-Serif" font-size="10.00">* enable()</text>
<text text-anchor="start" x="157" y="-734.5" font-family="Helvetica,sans-Serif" font-size="10.00">* disable()</text>
<text text-anchor="start" x="157" y="-723.5" font-family="Helvetica,sans-Serif" font-size="10.00">* disable()</text>
<text text-anchor="start" x="157" y="-712.5" font-family="Helvetica,sans-Serif" font-size="10.00">* disable()</text>
</a>
</g>
</g>
<!-- Node3&#45;&gt;Node2 -->
<g id="edge2" class="edge">
<title>Node3&#45;&gt;Node2</title>
<path fill="none" stroke="midnightblue" d="M308.43,-726.25C325.66,-704.54 342.97,-681.04 357.5,-658 378.67,-624.43 397.72,-583.57 410.74,-553.14"/>
<polygon fill="none" stroke="midnightblue" points="305.61,-724.17 302.09,-734.17 311.07,-728.55 305.61,-724.17"/>
</g>
<!-- Node5 -->
<g id="node5" class="node">
<title>Node5</title>
<g id="a_node5"><a xlink:href="../../d1/d55/classAH_1_1Updatable.html" target="_top" xlink:title=" ">
<polygon fill="white" stroke="black" points="75.5,-463 75.5,-553 251.5,-553 251.5,-463 75.5,-463"/>
<text text-anchor="middle" x="163.5" y="-541" font-family="Helvetica,sans-Serif" font-size="10.00">Updatable&lt; NormalUpdatable &gt;</text>
<polyline fill="none" stroke="black" points="75.5,-534 251.5,-534 "/>
<text text-anchor="middle" x="163.5" y="-522" font-family="Helvetica,sans-Serif" font-size="10.00"> </text>
<polyline fill="none" stroke="black" points="75.5,-515 251.5,-515 "/>
<text text-anchor="start" x="83.5" y="-503" font-family="Helvetica,sans-Serif" font-size="10.00">* begin()</text>
<text text-anchor="start" x="83.5" y="-492" font-family="Helvetica,sans-Serif" font-size="10.00">* update()</text>
<text text-anchor="start" x="83.5" y="-481" font-family="Helvetica,sans-Serif" font-size="10.00">* beginAll()</text>
<text text-anchor="start" x="83.5" y="-470" font-family="Helvetica,sans-Serif" font-size="10.00">* updateAll()</text>
</a>
</g>
</g>
<!-- Node3&#45;&gt;Node5 -->
<g id="edge5" class="edge">
<title>Node3&#45;&gt;Node5</title>
<path fill="none" stroke="midnightblue" d="M200.52,-695.28C190.53,-645.01 179.67,-590.38 172.32,-553.36"/>
<polygon fill="none" stroke="midnightblue" points="197.12,-696.14 202.5,-705.27 203.99,-694.78 197.12,-696.14"/>
</g>
<!-- Node4 -->
<g id="node4" class="node">
<title>Node4</title>
<g id="a_node4"><a xlink:href="../../d4/d23/classDoublyLinkable.html" target="_top" xlink:title=" ">
<polygon fill="white" stroke="black" points="0,-88.5 0,-211.5 153,-211.5 153,-88.5 0,-88.5"/>
<text text-anchor="start" x="8" y="-199.5" font-family="Helvetica,sans-Serif" font-size="10.00">DoublyLinkable&lt; Updatable</text>
<text text-anchor="middle" x="76.5" y="-188.5" font-family="Helvetica,sans-Serif" font-size="10.00">&lt; NormalUpdatable &gt; &gt;</text>
<polyline fill="none" stroke="black" points="0,-181.5 153,-181.5 "/>
<text text-anchor="middle" x="76.5" y="-169.5" font-family="Helvetica,sans-Serif" font-size="10.00"> </text>
<polyline fill="none" stroke="black" points="0,-162.5 153,-162.5 "/>
<text text-anchor="start" x="8" y="-150.5" font-family="Helvetica,sans-Serif" font-size="10.00"># ~DoublyLinkable()</text>
<text text-anchor="start" x="8" y="-139.5" font-family="Helvetica,sans-Serif" font-size="10.00"># DoublyLinkable()</text>
<text text-anchor="start" x="8" y="-128.5" font-family="Helvetica,sans-Serif" font-size="10.00"># DoublyLinkable()</text>
<text text-anchor="start" x="8" y="-117.5" font-family="Helvetica,sans-Serif" font-size="10.00"># DoublyLinkable()</text>
<text text-anchor="start" x="8" y="-106.5" font-family="Helvetica,sans-Serif" font-size="10.00"># operator=()</text>
<text text-anchor="start" x="8" y="-95.5" font-family="Helvetica,sans-Serif" font-size="10.00"># operator=()</text>
</a>
</g>
</g>
<!-- Node4&#45;&gt;Node3 -->
<g id="edge3" class="edge">
<title>Node4&#45;&gt;Node3</title>
<path fill="none" stroke="midnightblue" d="M58.22,-221.33C35.67,-322.24 7.09,-512 66.5,-658 83.49,-699.74 116.88,-736.63 148.69,-764.71"/>
<polygon fill="none" stroke="midnightblue" points="61.64,-222.08 60.45,-211.55 54.82,-220.52 61.64,-222.08"/>
</g>
<!-- Node5&#45;&gt;Node4 -->
<g id="edge4" class="edge">
<title>Node5&#45;&gt;Node4</title>
<path fill="none" stroke="#404040" d="M144.41,-462.8C130.8,-429.6 113.1,-382.69 102.5,-340 93.11,-302.19 86.86,-259.22 82.84,-223.82"/>
<polygon fill="none" stroke="#404040" points="82.82,-223.56 78.19,-218.03 81.52,-211.63 86.14,-217.16 82.82,-223.56"/>
<text text-anchor="middle" x="128" y="-332" font-family="Helvetica,sans-Serif" font-size="10.00"> #next</text>
<text text-anchor="middle" x="128" y="-321" font-family="Helvetica,sans-Serif" font-size="10.00">#previous</text>
</g>
<!-- Node6 -->
<g id="node6" class="node">
<title>Node6</title>
<g id="a_node6"><a xlink:href="../../dd/d16/classDoublyLinkedList.html" target="_top" xlink:title=" ">
<polygon fill="white" stroke="black" points="183,-0.5 183,-299.5 344,-299.5 344,-0.5 183,-0.5"/>
<text text-anchor="start" x="191" y="-287.5" font-family="Helvetica,sans-Serif" font-size="10.00">DoublyLinkedList&lt; Updatable</text>
<text text-anchor="middle" x="263.5" y="-276.5" font-family="Helvetica,sans-Serif" font-size="10.00">&lt; NormalUpdatable &gt; &gt;</text>
<polyline fill="none" stroke="black" points="183,-269.5 344,-269.5 "/>
<text text-anchor="middle" x="263.5" y="-257.5" font-family="Helvetica,sans-Serif" font-size="10.00"> </text>
<polyline fill="none" stroke="black" points="183,-250.5 344,-250.5 "/>
<text text-anchor="start" x="191" y="-238.5" font-family="Helvetica,sans-Serif" font-size="10.00">+ append()</text>
<text text-anchor="start" x="191" y="-227.5" font-family="Helvetica,sans-Serif" font-size="10.00">+ append()</text>
<text text-anchor="start" x="191" y="-216.5" font-family="Helvetica,sans-Serif" font-size="10.00">+ insertBefore()</text>
<text text-anchor="start" x="191" y="-205.5" font-family="Helvetica,sans-Serif" font-size="10.00">+ insertBefore()</text>
<text text-anchor="start" x="191" y="-194.5" font-family="Helvetica,sans-Serif" font-size="10.00">+ insertSorted()</text>
<text text-anchor="start" x="191" y="-183.5" font-family="Helvetica,sans-Serif" font-size="10.00">+ insertSorted()</text>
<text text-anchor="start" x="191" y="-172.5" font-family="Helvetica,sans-Serif" font-size="10.00">+ remove()</text>
<text text-anchor="start" x="191" y="-161.5" font-family="Helvetica,sans-Serif" font-size="10.00">+ remove()</text>
<text text-anchor="start" x="191" y="-150.5" font-family="Helvetica,sans-Serif" font-size="10.00">+ moveDown()</text>
<text text-anchor="start" x="191" y="-139.5" font-family="Helvetica,sans-Serif" font-size="10.00">+ moveDown()</text>
<text text-anchor="start" x="191" y="-128.5" font-family="Helvetica,sans-Serif" font-size="10.00">+ couldContain()</text>
<text text-anchor="start" x="191" y="-117.5" font-family="Helvetica,sans-Serif" font-size="10.00">+ couldContain()</text>
<text text-anchor="start" x="191" y="-106.5" font-family="Helvetica,sans-Serif" font-size="10.00">+ begin()</text>
<text text-anchor="start" x="191" y="-95.5" font-family="Helvetica,sans-Serif" font-size="10.00">+ begin()</text>
<text text-anchor="start" x="191" y="-84.5" font-family="Helvetica,sans-Serif" font-size="10.00">+ end()</text>
<text text-anchor="start" x="191" y="-73.5" font-family="Helvetica,sans-Serif" font-size="10.00">+ end()</text>
<text text-anchor="start" x="191" y="-62.5" font-family="Helvetica,sans-Serif" font-size="10.00">+ rbegin()</text>
<text text-anchor="start" x="191" y="-51.5" font-family="Helvetica,sans-Serif" font-size="10.00">+ rbegin()</text>
<text text-anchor="start" x="191" y="-40.5" font-family="Helvetica,sans-Serif" font-size="10.00">+ rend()</text>
<text text-anchor="start" x="191" y="-29.5" font-family="Helvetica,sans-Serif" font-size="10.00">+ rend()</text>
<text text-anchor="start" x="191" y="-18.5" font-family="Helvetica,sans-Serif" font-size="10.00">+ getFirst()</text>
<text text-anchor="start" x="191" y="-7.5" font-family="Helvetica,sans-Serif" font-size="10.00">+ getLast()</text>
</a>
</g>
</g>
<!-- Node5&#45;&gt;Node6 -->
<g id="edge7" class="edge">
<title>Node5&#45;&gt;Node6</title>
<path fill="none" stroke="#404040" d="M175.86,-462.99C186.6,-424.78 202.82,-367.02 218.4,-311.54"/>
<polygon fill="none" stroke="#404040" points="218.47,-311.3 216.24,-304.44 221.72,-299.75 223.95,-306.61 218.47,-311.3"/>
<text text-anchor="middle" x="229.5" y="-332" font-family="Helvetica,sans-Serif" font-size="10.00"> &#45;first</text>
<text text-anchor="middle" x="229.5" y="-321" font-family="Helvetica,sans-Serif" font-size="10.00">&#45;last</text>
</g>
<!-- Node6&#45;&gt;Node3 -->
<g id="edge6" class="edge">
<title>Node6&#45;&gt;Node3</title>
<path fill="none" stroke="#404040" d="M270.62,-299.54C273.52,-400.85 273.61,-537.9 260.5,-658 259.24,-669.55 257.51,-681.48 255.5,-693.39"/>
<polygon fill="none" stroke="#404040" points="255.49,-693.46 258.38,-700.06 253.4,-705.28 250.51,-698.67 255.49,-693.46"/>
<text text-anchor="middle" x="305.5" y="-505.5" font-family="Helvetica,sans-Serif" font-size="10.00"> #updatables</text>
</g>
<!-- Node7 -->
<g id="node7" class="node">
<title>Node7</title>
<g id="a_node7"><a xlink:href="../../de/d0d/classAH_1_1Button.html" target="_top" xlink:title="A class for reading and debouncing buttons and switches.">
<polygon fill="white" stroke="black" points="663.5,-413.5 663.5,-602.5 801.5,-602.5 801.5,-413.5 663.5,-413.5"/>
<text text-anchor="middle" x="732.5" y="-590.5" font-family="Helvetica,sans-Serif" font-size="10.00">Button</text>
<polyline fill="none" stroke="black" points="663.5,-583.5 801.5,-583.5 "/>
<text text-anchor="start" x="671.5" y="-571.5" font-family="Helvetica,sans-Serif" font-size="10.00">&#45; pin</text>
<text text-anchor="start" x="671.5" y="-560.5" font-family="Helvetica,sans-Serif" font-size="10.00">&#45; debounceTime</text>
<polyline fill="none" stroke="black" points="663.5,-553.5 801.5,-553.5 "/>
<text text-anchor="start" x="671.5" y="-541.5" font-family="Helvetica,sans-Serif" font-size="10.00">+ Button()</text>
<text text-anchor="start" x="671.5" y="-530.5" font-family="Helvetica,sans-Serif" font-size="10.00">+ Button()</text>
<text text-anchor="start" x="671.5" y="-519.5" font-family="Helvetica,sans-Serif" font-size="10.00">+ begin()</text>
<text text-anchor="start" x="671.5" y="-508.5" font-family="Helvetica,sans-Serif" font-size="10.00">+ invert()</text>
<text text-anchor="start" x="671.5" y="-497.5" font-family="Helvetica,sans-Serif" font-size="10.00">+ update()</text>
<text text-anchor="start" x="671.5" y="-486.5" font-family="Helvetica,sans-Serif" font-size="10.00">+ getState()</text>
<text text-anchor="start" x="671.5" y="-475.5" font-family="Helvetica,sans-Serif" font-size="10.00">+ previousBounceTime()</text>
<text text-anchor="start" x="671.5" y="-464.5" font-family="Helvetica,sans-Serif" font-size="10.00">+ stableTime()</text>
<text text-anchor="start" x="671.5" y="-453.5" font-family="Helvetica,sans-Serif" font-size="10.00">+ stableTime()</text>
<text text-anchor="start" x="671.5" y="-442.5" font-family="Helvetica,sans-Serif" font-size="10.00">+ getName()</text>
<text text-anchor="start" x="671.5" y="-431.5" font-family="Helvetica,sans-Serif" font-size="10.00">+ setDebounceTime()</text>
<text text-anchor="start" x="671.5" y="-420.5" font-family="Helvetica,sans-Serif" font-size="10.00">+ getDebounceTime()</text>
</a>
</g>
</g>
<!-- Node7&#45;&gt;Node1 -->
<g id="edge8" class="edge">
<title>Node7&#45;&gt;Node1</title>
<path fill="none" stroke="#404040" d="M690.99,-413.47C667.04,-359.52 637.12,-292.09 613.6,-239.09"/>
<polygon fill="none" stroke="#404040" points="613.55,-238.98 607.46,-235.12 608.68,-228.01 614.77,-231.87 613.55,-238.98"/>
<text text-anchor="middle" x="677" y="-326.5" font-family="Helvetica,sans-Serif" font-size="10.00"> &#45;button</text>
</g>
<!-- Node8 -->
<g id="node8" class="node">
<title>Node8</title>
<g id="a_node8"><a xlink:href="../../dc/db4/structAH_1_1Button_1_1InternalState.html" target="_top" xlink:title=" ">
<polygon fill="white" stroke="black" points="677.5,-771.5 677.5,-872.5 787.5,-872.5 787.5,-771.5 677.5,-771.5"/>
<text text-anchor="middle" x="732.5" y="-860.5" font-family="Helvetica,sans-Serif" font-size="10.00">InternalState</text>
<polyline fill="none" stroke="black" points="677.5,-853.5 787.5,-853.5 "/>
<text text-anchor="start" x="685.5" y="-841.5" font-family="Helvetica,sans-Serif" font-size="10.00">+ debounced</text>
<text text-anchor="start" x="685.5" y="-830.5" font-family="Helvetica,sans-Serif" font-size="10.00">+ bouncing</text>
<text text-anchor="start" x="685.5" y="-819.5" font-family="Helvetica,sans-Serif" font-size="10.00">+ prevInput</text>
<text text-anchor="start" x="685.5" y="-808.5" font-family="Helvetica,sans-Serif" font-size="10.00">+ invert</text>
<text text-anchor="start" x="685.5" y="-797.5" font-family="Helvetica,sans-Serif" font-size="10.00">+ prevBounceTime</text>
<polyline fill="none" stroke="black" points="677.5,-790.5 787.5,-790.5 "/>
<text text-anchor="start" x="685.5" y="-778.5" font-family="Helvetica,sans-Serif" font-size="10.00">+ InternalState()</text>
</a>
</g>
</g>
<!-- Node8&#45;&gt;Node7 -->
<g id="edge9" class="edge">
<title>Node8&#45;&gt;Node7</title>
<path fill="none" stroke="#404040" d="M732.5,-771.22C732.5,-729.24 732.5,-667.72 732.5,-614.82"/>
<polygon fill="none" stroke="#404040" points="732.5,-614.63 728.5,-608.63 732.5,-602.63 736.5,-608.63 732.5,-614.63"/>
<text text-anchor="middle" x="748.5" y="-679" font-family="Helvetica,sans-Serif" font-size="10.00"> &#45;state</text>
</g>
<!-- Node9 -->
<g id="node9" class="node">
<title>Node9</title>
<g id="a_node9"><a xlink:href="../../d7/d0f/classMIDIAddress.html" target="_top" xlink:title="A type&#45;safe utility class for saving a MIDI address consisting of a 7&#45;bit address,...">
<polygon fill="white" stroke="black" points="503.5,-358.5 503.5,-657.5 645.5,-657.5 645.5,-358.5 503.5,-358.5"/>
<text text-anchor="middle" x="574.5" y="-645.5" font-family="Helvetica,sans-Serif" font-size="10.00">MIDIAddress</text>
<polyline fill="none" stroke="black" points="503.5,-638.5 645.5,-638.5 "/>
<text text-anchor="start" x="511.5" y="-626.5" font-family="Helvetica,sans-Serif" font-size="10.00">&#45; addresses</text>
<polyline fill="none" stroke="black" points="503.5,-619.5 645.5,-619.5 "/>
<text text-anchor="start" x="511.5" y="-607.5" font-family="Helvetica,sans-Serif" font-size="10.00">* MIDIAddress()</text>
<text text-anchor="start" x="511.5" y="-596.5" font-family="Helvetica,sans-Serif" font-size="10.00">* MIDIAddress()</text>
<text text-anchor="start" x="511.5" y="-585.5" font-family="Helvetica,sans-Serif" font-size="10.00">* MIDIAddress()</text>
<text text-anchor="start" x="511.5" y="-574.5" font-family="Helvetica,sans-Serif" font-size="10.00">* MIDIAddress()</text>
<text text-anchor="start" x="511.5" y="-563.5" font-family="Helvetica,sans-Serif" font-size="10.00">* MIDIAddress()</text>
<text text-anchor="start" x="511.5" y="-552.5" font-family="Helvetica,sans-Serif" font-size="10.00">* MIDIAddress()</text>
<text text-anchor="start" x="511.5" y="-541.5" font-family="Helvetica,sans-Serif" font-size="10.00">* invalid()</text>
<text text-anchor="start" x="511.5" y="-530.5" font-family="Helvetica,sans-Serif" font-size="10.00">* operator+=()</text>
<text text-anchor="start" x="511.5" y="-519.5" font-family="Helvetica,sans-Serif" font-size="10.00">* operator&#45;=()</text>
<text text-anchor="start" x="511.5" y="-508.5" font-family="Helvetica,sans-Serif" font-size="10.00">* operator+()</text>
<text text-anchor="start" x="511.5" y="-497.5" font-family="Helvetica,sans-Serif" font-size="10.00">* operator&#45;()</text>
<text text-anchor="start" x="511.5" y="-486.5" font-family="Helvetica,sans-Serif" font-size="10.00">* getAddress()</text>
<text text-anchor="start" x="511.5" y="-475.5" font-family="Helvetica,sans-Serif" font-size="10.00">* getChannel()</text>
<text text-anchor="start" x="511.5" y="-464.5" font-family="Helvetica,sans-Serif" font-size="10.00">* getRawChannel()</text>
<text text-anchor="start" x="511.5" y="-453.5" font-family="Helvetica,sans-Serif" font-size="10.00">* getCableNumber()</text>
<text text-anchor="start" x="511.5" y="-442.5" font-family="Helvetica,sans-Serif" font-size="10.00">* getRawCableNumber()</text>
<text text-anchor="start" x="511.5" y="-431.5" font-family="Helvetica,sans-Serif" font-size="10.00">* getChannelCable()</text>
<text text-anchor="start" x="511.5" y="-420.5" font-family="Helvetica,sans-Serif" font-size="10.00">* operator==()</text>
<text text-anchor="start" x="511.5" y="-409.5" font-family="Helvetica,sans-Serif" font-size="10.00">* operator!=()</text>
<text text-anchor="start" x="511.5" y="-398.5" font-family="Helvetica,sans-Serif" font-size="10.00">* isValid()</text>
<text text-anchor="start" x="511.5" y="-387.5" font-family="Helvetica,sans-Serif" font-size="10.00">* operator bool()</text>
<text text-anchor="start" x="511.5" y="-376.5" font-family="Helvetica,sans-Serif" font-size="10.00">* matchSingle()</text>
<text text-anchor="start" x="511.5" y="-365.5" font-family="Helvetica,sans-Serif" font-size="10.00">* matchAddressInRange()</text>
</a>
</g>
</g>
<!-- Node9&#45;&gt;Node1 -->
<g id="edge10" class="edge">
<title>Node9&#45;&gt;Node1</title>
<path fill="none" stroke="#404040" d="M574.5,-358.34C574.5,-318.26 574.5,-276.14 574.5,-240.41"/>
<polygon fill="none" stroke="#404040" points="574.5,-240.06 570.5,-234.06 574.5,-228.06 578.5,-234.06 574.5,-240.06"/>
<text text-anchor="middle" x="597.5" y="-326.5" font-family="Helvetica,sans-Serif" font-size="10.00"> &#45;address</text>
</g>
</g>
</svg>
