<?xml version="1.0" encoding="UTF-8" standalone="no"?>
<!DOCTYPE svg PUBLIC "-//W3C//DTD SVG 1.1//EN"
 "http://www.w3.org/Graphics/SVG/1.1/DTD/svg11.dtd">
<!-- Generated by graphviz version 2.38.0 (20140413.2041)
 -->
<!-- Title: DisplayInterface.cpp Pages: 1 -->
<svg width="1317pt" height="599pt"
 viewBox="0.00 0.00 1317.00 599.00" xmlns="http://www.w3.org/2000/svg" xmlns:xlink="http://www.w3.org/1999/xlink">
<g id="graph0" class="graph" transform="scale(1 1) rotate(0) translate(4 595)">
<title>DisplayInterface.cpp</title>
<polygon fill="white" stroke="none" points="-4,4 -4,-595 1313,-595 1313,4 -4,4"/>
<!-- Node1 -->
<g id="node1" class="node"><title>Node1</title>
<g id="a_node1"><a xlink:title=" ">
<polygon fill="#bfbfbf" stroke="black" points="941.5,-571.5 941.5,-590.5 1048.5,-590.5 1048.5,-571.5 941.5,-571.5"/>
<text text-anchor="middle" x="995" y="-578.5" font-family="Helvetica,sans-Serif" font-size="10.00">DisplayInterface.cpp</text>
</a>
</g>
</g>
<!-- Node2 -->
<g id="node2" class="node"><title>Node2</title>
<g id="a_node2"><a xlink:href="../../dc/d77/DisplayInterface_8hpp.html" target="_top" xlink:title=" ">
<polygon fill="white" stroke="black" points="941.5,-515.5 941.5,-534.5 1048.5,-534.5 1048.5,-515.5 941.5,-515.5"/>
<text text-anchor="middle" x="995" y="-522.5" font-family="Helvetica,sans-Serif" font-size="10.00">DisplayInterface.hpp</text>
</a>
</g>
</g>
<!-- Node1&#45;&gt;Node2 -->
<g id="edge1" class="edge"><title>Node1&#45;&gt;Node2</title>
<path fill="none" stroke="midnightblue" d="M995,-571.083C995,-564.006 995,-553.861 995,-544.986"/>
<polygon fill="midnightblue" stroke="midnightblue" points="998.5,-544.751 995,-534.751 991.5,-544.751 998.5,-544.751"/>
</g>
<!-- Node3 -->
<g id="node3" class="node"><title>Node3</title>
<g id="a_node3"><a xlink:href="../../d0/d4e/Def_8hpp.html" target="_top" xlink:title=" ">
<polygon fill="white" stroke="black" points="960,-459.5 960,-478.5 1030,-478.5 1030,-459.5 960,-459.5"/>
<text text-anchor="middle" x="995" y="-466.5" font-family="Helvetica,sans-Serif" font-size="10.00">Def/Def.hpp</text>
</a>
</g>
</g>
<!-- Node2&#45;&gt;Node3 -->
<g id="edge2" class="edge"><title>Node2&#45;&gt;Node3</title>
<path fill="none" stroke="midnightblue" d="M995,-515.083C995,-508.006 995,-497.861 995,-488.986"/>
<polygon fill="midnightblue" stroke="midnightblue" points="998.5,-488.751 995,-478.751 991.5,-488.751 998.5,-488.751"/>
</g>
<!-- Node25 -->
<g id="node25" class="node"><title>Node25</title>
<g id="a_node25"><a xlink:href="../../de/dd1/LinkedList_8hpp.html" target="_top" xlink:title=" ">
<polygon fill="white" stroke="black" points="260.5,-280.5 260.5,-299.5 407.5,-299.5 407.5,-280.5 260.5,-280.5"/>
<text text-anchor="middle" x="334" y="-287.5" font-family="Helvetica,sans-Serif" font-size="10.00">AH/Containers/LinkedList.hpp</text>
</a>
</g>
</g>
<!-- Node2&#45;&gt;Node25 -->
<g id="edge42" class="edge"><title>Node2&#45;&gt;Node25</title>
<path fill="none" stroke="midnightblue" d="M941.138,-519.9C815.557,-509.499 507.52,-478.863 422,-423 379.266,-395.086 352.287,-338.411 340.647,-309.245"/>
<polygon fill="midnightblue" stroke="midnightblue" points="343.774,-307.623 336.936,-299.531 337.235,-310.121 343.774,-307.623"/>
</g>
<!-- Node29 -->
<g id="node29" class="node"><title>Node29</title>
<g id="a_node29"><a xlink:title=" ">
<polygon fill="white" stroke="#bfbfbf" points="1048.5,-459.5 1048.5,-478.5 1093.5,-478.5 1093.5,-459.5 1048.5,-459.5"/>
<text text-anchor="middle" x="1071" y="-466.5" font-family="Helvetica,sans-Serif" font-size="10.00">Print.h</text>
</a>
</g>
</g>
<!-- Node2&#45;&gt;Node29 -->
<g id="edge51" class="edge"><title>Node2&#45;&gt;Node29</title>
<path fill="none" stroke="midnightblue" d="M1007.21,-515.324C1018.78,-507.107 1036.38,-494.602 1050.16,-484.807"/>
<polygon fill="midnightblue" stroke="midnightblue" points="1052.44,-487.479 1058.57,-478.834 1048.39,-481.773 1052.44,-487.479"/>
</g>
<!-- Node4 -->
<g id="node4" class="node"><title>Node4</title>
<g id="a_node4"><a xlink:href="../../d7/d42/Channel_8hpp.html" target="_top" xlink:title=" ">
<polygon fill="white" stroke="black" points="1125.5,-398 1125.5,-417 1196.5,-417 1196.5,-398 1125.5,-398"/>
<text text-anchor="middle" x="1161" y="-405" font-family="Helvetica,sans-Serif" font-size="10.00">Channel.hpp</text>
</a>
</g>
</g>
<!-- Node3&#45;&gt;Node4 -->
<g id="edge3" class="edge"><title>Node3&#45;&gt;Node4</title>
<path fill="none" stroke="midnightblue" d="M1018.78,-459.475C1047.38,-449.225 1095.55,-431.959 1127.8,-420.399"/>
<polygon fill="midnightblue" stroke="midnightblue" points="1129.03,-423.678 1137.26,-417.009 1126.67,-417.089 1129.03,-423.678"/>
</g>
<!-- Node5 -->
<g id="node5" class="node"><title>Node5</title>
<g id="a_node5"><a xlink:title=" ">
<polygon fill="white" stroke="#bfbfbf" points="1143.5,-56.5 1143.5,-75.5 1192.5,-75.5 1192.5,-56.5 1143.5,-56.5"/>
<text text-anchor="middle" x="1168" y="-63.5" font-family="Helvetica,sans-Serif" font-size="10.00">stdint.h</text>
</a>
</g>
</g>
<!-- Node3&#45;&gt;Node5 -->
<g id="edge41" class="edge"><title>Node3&#45;&gt;Node5</title>
<path fill="none" stroke="midnightblue" d="M1030.26,-460.639C1089.03,-448.345 1200.99,-424.796 1205,-423 1257.25,-399.599 1309,-404.249 1309,-347 1309,-347 1309,-347 1309,-177 1309,-122.963 1243.83,-91.5578 1202.1,-76.9881"/>
<polygon fill="midnightblue" stroke="midnightblue" points="1203.15,-73.6507 1192.56,-73.8056 1200.94,-80.2908 1203.15,-73.6507"/>
</g>
<!-- Node6 -->
<g id="node6" class="node"><title>Node6</title>
<g id="a_node6"><a xlink:title=" ">
<polygon fill="white" stroke="#bfbfbf" points="1079.5,-336.5 1079.5,-355.5 1242.5,-355.5 1242.5,-336.5 1079.5,-336.5"/>
<text text-anchor="middle" x="1161" y="-343.5" font-family="Helvetica,sans-Serif" font-size="10.00">Settings/NamespaceSettings.hpp</text>
</a>
</g>
</g>
<!-- Node3&#45;&gt;Node6 -->
<g id="edge39" class="edge"><title>Node3&#45;&gt;Node6</title>
<path fill="none" stroke="midnightblue" d="M1008.98,-459.381C1023.09,-450.567 1045.39,-436.319 1064,-423 1092.21,-402.807 1123.6,-377.701 1142.83,-362.008"/>
<polygon fill="midnightblue" stroke="midnightblue" points="1145.24,-364.56 1150.75,-355.512 1140.8,-359.147 1145.24,-364.56"/>
</g>
<!-- Node7 -->
<g id="node7" class="node"><title>Node7</title>
<g id="a_node7"><a xlink:href="../../de/d76/Array_8hpp.html" target="_top" xlink:title=" ">
<polygon fill="white" stroke="black" points="836,-336.5 836,-355.5 962,-355.5 962,-336.5 836,-336.5"/>
<text text-anchor="middle" x="899" y="-343.5" font-family="Helvetica,sans-Serif" font-size="10.00">AH/Containers/Array.hpp</text>
</a>
</g>
</g>
<!-- Node3&#45;&gt;Node7 -->
<g id="edge6" class="edge"><title>Node3&#45;&gt;Node7</title>
<path fill="none" stroke="midnightblue" d="M974.539,-459.412C958.947,-451.906 938.008,-439.604 925,-423 911.864,-406.232 905.147,-382.416 901.866,-365.933"/>
<polygon fill="midnightblue" stroke="midnightblue" points="905.276,-365.118 900.107,-355.87 898.381,-366.323 905.276,-365.118"/>
</g>
<!-- Node19 -->
<g id="node19" class="node"><title>Node19</title>
<g id="a_node19"><a xlink:title=" ">
<polygon fill="white" stroke="#bfbfbf" points="567,-56.5 567,-75.5 619,-75.5 619,-56.5 567,-56.5"/>
<text text-anchor="middle" x="593" y="-63.5" font-family="Helvetica,sans-Serif" font-size="10.00">stddef.h</text>
</a>
</g>
</g>
<!-- Node3&#45;&gt;Node19 -->
<g id="edge40" class="edge"><title>Node3&#45;&gt;Node19</title>
<path fill="none" stroke="midnightblue" d="M959.608,-467.928C836.728,-466.739 436,-454.612 436,-347 436,-347 436,-347 436,-177 436,-146.902 434.048,-133.608 455,-112 462.307,-104.464 518.556,-87.6767 556.947,-76.8718"/>
<polygon fill="midnightblue" stroke="midnightblue" points="558.074,-80.191 566.763,-74.1293 556.19,-73.4492 558.074,-80.191"/>
</g>
<!-- Node24 -->
<g id="node24" class="node"><title>Node24</title>
<g id="a_node24"><a xlink:href="../../d4/d35/Hardware-Types_8hpp.html" target="_top" xlink:title=" ">
<polygon fill="white" stroke="black" points="934.5,-392.5 934.5,-422.5 1055.5,-422.5 1055.5,-392.5 934.5,-392.5"/>
<text text-anchor="start" x="942.5" y="-410.5" font-family="Helvetica,sans-Serif" font-size="10.00">AH/Hardware/Hardware</text>
<text text-anchor="middle" x="995" y="-399.5" font-family="Helvetica,sans-Serif" font-size="10.00">&#45;Types.hpp</text>
</a>
</g>
</g>
<!-- Node3&#45;&gt;Node24 -->
<g id="edge34" class="edge"><title>Node3&#45;&gt;Node24</title>
<path fill="none" stroke="midnightblue" d="M995,-459.475C995,-452.471 995,-442.192 995,-432.696"/>
<polygon fill="midnightblue" stroke="midnightblue" points="998.5,-432.523 995,-422.523 991.5,-432.523 998.5,-432.523"/>
</g>
<!-- Node4&#45;&gt;Node5 -->
<g id="edge4" class="edge"><title>Node4&#45;&gt;Node5</title>
<path fill="none" stroke="midnightblue" d="M1187.06,-397.978C1207.24,-390.105 1234.46,-376.496 1251,-356 1269.98,-332.478 1271,-321.225 1271,-291 1271,-291 1271,-291 1271,-177 1271,-132.426 1225.38,-98.4604 1194.86,-80.726"/>
<polygon fill="midnightblue" stroke="midnightblue" points="1196.38,-77.5656 1185.94,-75.7495 1192.97,-83.6785 1196.38,-77.5656"/>
</g>
<!-- Node4&#45;&gt;Node6 -->
<g id="edge5" class="edge"><title>Node4&#45;&gt;Node6</title>
<path fill="none" stroke="midnightblue" d="M1161,-397.975C1161,-389.58 1161,-376.481 1161,-365.663"/>
<polygon fill="midnightblue" stroke="midnightblue" points="1164.5,-365.509 1161,-355.509 1157.5,-365.509 1164.5,-365.509"/>
</g>
<!-- Node8 -->
<g id="node8" class="node"><title>Node8</title>
<g id="a_node8"><a xlink:href="../../d1/d65/Warnings_8hpp.html" target="_top" xlink:title=" ">
<polygon fill="white" stroke="black" points="740.5,-0.5 740.5,-19.5 873.5,-19.5 873.5,-0.5 740.5,-0.5"/>
<text text-anchor="middle" x="807" y="-7.5" font-family="Helvetica,sans-Serif" font-size="10.00">AH/Settings/Warnings.hpp</text>
</a>
</g>
</g>
<!-- Node7&#45;&gt;Node8 -->
<g id="edge7" class="edge"><title>Node7&#45;&gt;Node8</title>
<path fill="none" stroke="midnightblue" d="M910.543,-336.433C931.804,-319.571 975,-279.799 975,-235 975,-235 975,-235 975,-121 975,-65.2274 909.393,-36.204 860.176,-22.2781"/>
<polygon fill="midnightblue" stroke="midnightblue" points="860.83,-18.8296 850.264,-19.611 859.011,-25.5892 860.83,-18.8296"/>
</g>
<!-- Node9 -->
<g id="node9" class="node"><title>Node9</title>
<g id="a_node9"><a xlink:href="../../d1/d93/Error_8hpp.html" target="_top" xlink:title=" ">
<polygon fill="white" stroke="black" points="773,-280.5 773,-299.5 871,-299.5 871,-280.5 773,-280.5"/>
<text text-anchor="middle" x="822" y="-287.5" font-family="Helvetica,sans-Serif" font-size="10.00">AH/Error/Error.hpp</text>
</a>
</g>
</g>
<!-- Node7&#45;&gt;Node9 -->
<g id="edge8" class="edge"><title>Node7&#45;&gt;Node9</title>
<path fill="none" stroke="midnightblue" d="M886.629,-336.324C874.842,-328.058 856.868,-315.453 842.864,-305.632"/>
<polygon fill="midnightblue" stroke="midnightblue" points="844.538,-302.531 834.341,-299.655 840.518,-308.262 844.538,-302.531"/>
</g>
<!-- Node7&#45;&gt;Node19 -->
<g id="edge33" class="edge"><title>Node7&#45;&gt;Node19</title>
<path fill="none" stroke="midnightblue" d="M898.178,-336.277C896.575,-323.072 892.06,-297.675 880,-280 811.403,-179.461 679.431,-107.941 621.475,-79.9961"/>
<polygon fill="midnightblue" stroke="midnightblue" points="622.721,-76.7133 612.187,-75.5865 619.719,-83.0369 622.721,-76.7133"/>
</g>
<!-- Node22 -->
<g id="node22" class="node"><title>Node22</title>
<g id="a_node22"><a xlink:title=" ">
<polygon fill="white" stroke="#bfbfbf" points="550.5,-280.5 550.5,-299.5 635.5,-299.5 635.5,-280.5 550.5,-280.5"/>
<text text-anchor="middle" x="593" y="-287.5" font-family="Helvetica,sans-Serif" font-size="10.00">AH/STL/iterator</text>
</a>
</g>
</g>
<!-- Node7&#45;&gt;Node22 -->
<g id="edge31" class="edge"><title>Node7&#45;&gt;Node22</title>
<path fill="none" stroke="midnightblue" d="M850.513,-336.444C794.712,-326.596 703.383,-310.479 645.817,-300.321"/>
<polygon fill="midnightblue" stroke="midnightblue" points="646.285,-296.849 635.829,-298.558 645.068,-303.743 646.285,-296.849"/>
</g>
<!-- Node23 -->
<g id="node23" class="node"><title>Node23</title>
<g id="a_node23"><a xlink:title=" ">
<polygon fill="white" stroke="#bfbfbf" points="653.5,-280.5 653.5,-299.5 754.5,-299.5 754.5,-280.5 653.5,-280.5"/>
<text text-anchor="middle" x="704" y="-287.5" font-family="Helvetica,sans-Serif" font-size="10.00">AH/STL/type_traits</text>
</a>
</g>
</g>
<!-- Node7&#45;&gt;Node23 -->
<g id="edge32" class="edge"><title>Node7&#45;&gt;Node23</title>
<path fill="none" stroke="midnightblue" d="M868.102,-336.444C834.726,-327.201 781.406,-312.436 744.651,-302.257"/>
<polygon fill="midnightblue" stroke="midnightblue" points="745.325,-298.812 734.754,-299.516 743.457,-305.558 745.325,-298.812"/>
</g>
<!-- Node9&#45;&gt;Node8 -->
<g id="edge9" class="edge"><title>Node9&#45;&gt;Node8</title>
<path fill="none" stroke="midnightblue" d="M842.826,-280.473C875.965,-265.358 937,-230.527 937,-179 937,-179 937,-179 937,-121 937,-90.2048 934.249,-78.2893 913,-56 897.766,-40.0204 875.951,-29.4535 856.067,-22.603"/>
<polygon fill="midnightblue" stroke="midnightblue" points="857.089,-19.2553 846.498,-19.5311 854.95,-25.9203 857.089,-19.2553"/>
</g>
<!-- Node10 -->
<g id="node10" class="node"><title>Node10</title>
<g id="a_node10"><a xlink:href="../../df/dee/Debug_8hpp.html" target="_top" xlink:title=" ">
<polygon fill="white" stroke="black" points="630.5,-224.5 630.5,-243.5 743.5,-243.5 743.5,-224.5 630.5,-224.5"/>
<text text-anchor="middle" x="687" y="-231.5" font-family="Helvetica,sans-Serif" font-size="10.00">AH/Debug/Debug.hpp</text>
</a>
</g>
</g>
<!-- Node9&#45;&gt;Node10 -->
<g id="edge10" class="edge"><title>Node9&#45;&gt;Node10</title>
<path fill="none" stroke="midnightblue" d="M800.609,-280.444C778.293,-271.517 743.097,-257.439 717.792,-247.317"/>
<polygon fill="midnightblue" stroke="midnightblue" points="718.876,-243.981 708.291,-243.516 716.276,-250.48 718.876,-243.981"/>
</g>
<!-- Node10&#45;&gt;Node8 -->
<g id="edge11" class="edge"><title>Node10&#45;&gt;Node8</title>
<path fill="none" stroke="midnightblue" d="M701.905,-224.449C735.634,-204.049 816.835,-148.759 842,-76 848.048,-58.5123 836.143,-40.0759 824.61,-27.3228"/>
<polygon fill="midnightblue" stroke="midnightblue" points="826.773,-24.5294 817.278,-19.8301 821.77,-29.4253 826.773,-24.5294"/>
</g>
<!-- Node11 -->
<g id="node11" class="node"><title>Node11</title>
<g id="a_node11"><a xlink:href="../../dd/d80/PrintStream_8hpp.html" target="_top" xlink:title=" ">
<polygon fill="white" stroke="black" points="674.5,-56.5 674.5,-75.5 833.5,-75.5 833.5,-56.5 674.5,-56.5"/>
<text text-anchor="middle" x="754" y="-63.5" font-family="Helvetica,sans-Serif" font-size="10.00">AH/PrintStream/PrintStream.hpp</text>
</a>
</g>
</g>
<!-- Node10&#45;&gt;Node11 -->
<g id="edge12" class="edge"><title>Node10&#45;&gt;Node11</title>
<path fill="none" stroke="midnightblue" d="M700.308,-224.352C711.48,-216.333 726.879,-203.346 735,-188 752.429,-155.062 754.9,-110.517 754.724,-85.692"/>
<polygon fill="midnightblue" stroke="midnightblue" points="758.219,-85.4224 754.49,-75.5053 751.221,-85.583 758.219,-85.4224"/>
</g>
<!-- Node13 -->
<g id="node13" class="node"><title>Node13</title>
<g id="a_node13"><a xlink:href="../../de/dd1/AH_2Settings_2SettingsWrapper_8hpp.html" target="_top" xlink:title=" ">
<polygon fill="white" stroke="black" points="466,-168.5 466,-187.5 630,-187.5 630,-168.5 466,-168.5"/>
<text text-anchor="middle" x="548" y="-175.5" font-family="Helvetica,sans-Serif" font-size="10.00">AH/Settings/SettingsWrapper.hpp</text>
</a>
</g>
</g>
<!-- Node10&#45;&gt;Node13 -->
<g id="edge15" class="edge"><title>Node10&#45;&gt;Node13</title>
<path fill="none" stroke="midnightblue" d="M659.886,-224.444C635.061,-215.557 598.807,-201.563 574.261,-191.451"/>
<polygon fill="midnightblue" stroke="midnightblue" points="575.418,-188.142 564.842,-187.516 572.72,-194.601 575.418,-188.142"/>
</g>
<!-- Node21 -->
<g id="node21" class="node"><title>Node21</title>
<g id="a_node21"><a xlink:href="../../d7/d52/DebugVal_8hpp.html" target="_top" xlink:title=" ">
<polygon fill="white" stroke="black" points="648,-168.5 648,-187.5 726,-187.5 726,-168.5 648,-168.5"/>
<text text-anchor="middle" x="687" y="-175.5" font-family="Helvetica,sans-Serif" font-size="10.00">DebugVal.hpp</text>
</a>
</g>
</g>
<!-- Node10&#45;&gt;Node21 -->
<g id="edge30" class="edge"><title>Node10&#45;&gt;Node21</title>
<path fill="none" stroke="midnightblue" d="M687,-224.083C687,-217.006 687,-206.861 687,-197.986"/>
<polygon fill="midnightblue" stroke="midnightblue" points="690.5,-197.751 687,-187.751 683.5,-197.751 690.5,-197.751"/>
</g>
<!-- Node11&#45;&gt;Node8 -->
<g id="edge13" class="edge"><title>Node11&#45;&gt;Node8</title>
<path fill="none" stroke="midnightblue" d="M762.752,-56.083C770.47,-48.2195 781.905,-36.5688 791.217,-27.0813"/>
<polygon fill="midnightblue" stroke="midnightblue" points="793.904,-29.3396 798.411,-19.7511 788.908,-24.4363 793.904,-29.3396"/>
</g>
<!-- Node12 -->
<g id="node12" class="node"><title>Node12</title>
<g id="a_node12"><a xlink:title=" ">
<polygon fill="white" stroke="#bfbfbf" points="380,-0.5 380,-19.5 438,-19.5 438,-0.5 380,-0.5"/>
<text text-anchor="middle" x="409" y="-7.5" font-family="Helvetica,sans-Serif" font-size="10.00">Arduino.h</text>
</a>
</g>
</g>
<!-- Node11&#45;&gt;Node12 -->
<g id="edge14" class="edge"><title>Node11&#45;&gt;Node12</title>
<path fill="none" stroke="midnightblue" d="M699.334,-56.4435C629.465,-45.5076 510.194,-26.8391 448.524,-17.1864"/>
<polygon fill="midnightblue" stroke="midnightblue" points="448.841,-13.6935 438.42,-15.6049 447.759,-20.6093 448.841,-13.6935"/>
</g>
<!-- Node13&#45;&gt;Node8 -->
<g id="edge16" class="edge"><title>Node13&#45;&gt;Node8</title>
<path fill="none" stroke="midnightblue" d="M580.521,-168.468C600.535,-161.657 625.278,-150.18 641,-132 664.17,-105.207 639.966,-81.0598 665,-56 682.59,-38.3921 707.023,-27.6633 730.669,-21.13"/>
<polygon fill="midnightblue" stroke="midnightblue" points="731.548,-24.5178 740.377,-18.6614 729.823,-17.7337 731.548,-24.5178"/>
</g>
<!-- Node13&#45;&gt;Node10 -->
<g id="edge29" class="edge"><title>Node13&#45;&gt;Node10</title>
<path fill="none" stroke="midnightblue" d="M575.002,-187.516C599.792,-196.388 636.047,-210.38 660.629,-220.503"/>
<polygon fill="midnightblue" stroke="midnightblue" points="659.487,-223.819 670.064,-224.444 662.185,-217.36 659.487,-223.819"/>
</g>
<!-- Node14 -->
<g id="node14" class="node"><title>Node14</title>
<g id="a_node14"><a xlink:href="../../d6/db0/AH_2Settings_2NamespaceSettings_8hpp.html" target="_top" xlink:title=" ">
<polygon fill="white" stroke="black" points="0,-0.5 0,-19.5 124,-19.5 124,-0.5 0,-0.5"/>
<text text-anchor="middle" x="62" y="-7.5" font-family="Helvetica,sans-Serif" font-size="10.00">NamespaceSettings.hpp</text>
</a>
</g>
</g>
<!-- Node13&#45;&gt;Node14 -->
<g id="edge17" class="edge"><title>Node13&#45;&gt;Node14</title>
<path fill="none" stroke="midnightblue" d="M465.829,-173.059C335.211,-164.882 89.4694,-141.048 36,-76 24.3677,-61.8489 35.4445,-41.8302 46.5226,-27.7581"/>
<polygon fill="midnightblue" stroke="midnightblue" points="49.4149,-29.7592 53.2175,-19.8702 44.078,-25.2295 49.4149,-29.7592"/>
</g>
<!-- Node15 -->
<g id="node15" class="node"><title>Node15</title>
<g id="a_node15"><a xlink:href="../../d5/d4f/AH_2Settings_2Settings_8hpp.html" target="_top" xlink:title="All user settings and debugging options can be changed here.">
<polygon fill="white" stroke="black" points="336.5,-112.5 336.5,-131.5 407.5,-131.5 407.5,-112.5 336.5,-112.5"/>
<text text-anchor="middle" x="372" y="-119.5" font-family="Helvetica,sans-Serif" font-size="10.00">Settings.hpp</text>
</a>
</g>
</g>
<!-- Node13&#45;&gt;Node15 -->
<g id="edge18" class="edge"><title>Node13&#45;&gt;Node15</title>
<path fill="none" stroke="midnightblue" d="M520.112,-168.444C490.246,-159.28 442.685,-144.688 409.544,-134.519"/>
<polygon fill="midnightblue" stroke="midnightblue" points="410.344,-131.104 399.757,-131.516 408.291,-137.796 410.344,-131.104"/>
</g>
<!-- Node20 -->
<g id="node20" class="node"><title>Node20</title>
<g id="a_node20"><a xlink:href="../../d9/d98/TeensyUSBTypes_8hpp.html" target="_top" xlink:title=" ">
<polygon fill="white" stroke="black" points="464,-112.5 464,-131.5 632,-131.5 632,-112.5 464,-112.5"/>
<text text-anchor="middle" x="548" y="-119.5" font-family="Helvetica,sans-Serif" font-size="10.00">AH/Teensy/TeensyUSBTypes.hpp</text>
</a>
</g>
</g>
<!-- Node13&#45;&gt;Node20 -->
<g id="edge28" class="edge"><title>Node13&#45;&gt;Node20</title>
<path fill="none" stroke="midnightblue" d="M548,-168.083C548,-161.006 548,-150.861 548,-141.986"/>
<polygon fill="midnightblue" stroke="midnightblue" points="551.5,-141.751 548,-131.751 544.5,-141.751 551.5,-141.751"/>
</g>
<!-- Node15&#45;&gt;Node5 -->
<g id="edge27" class="edge"><title>Node15&#45;&gt;Node5</title>
<path fill="none" stroke="midnightblue" d="M407.509,-116.795C422.194,-115.148 439.403,-113.337 455,-112 715.191,-89.6938 1029.69,-73.6398 1133.16,-68.6424"/>
<polygon fill="midnightblue" stroke="midnightblue" points="1133.52,-72.1292 1143.34,-68.1535 1133.19,-65.1372 1133.52,-72.1292"/>
</g>
<!-- Node16 -->
<g id="node16" class="node"><title>Node16</title>
<g id="a_node16"><a xlink:href="../../dc/d50/Frequency_8hpp.html" target="_top" xlink:title=" ">
<polygon fill="white" stroke="black" points="189,-56.5 189,-75.5 317,-75.5 317,-56.5 189,-56.5"/>
<text text-anchor="middle" x="253" y="-63.5" font-family="Helvetica,sans-Serif" font-size="10.00">AH/Types/Frequency.hpp</text>
</a>
</g>
</g>
<!-- Node15&#45;&gt;Node16 -->
<g id="edge19" class="edge"><title>Node15&#45;&gt;Node16</title>
<path fill="none" stroke="midnightblue" d="M353.144,-112.444C333.734,-103.636 303.27,-89.8116 281.035,-79.722"/>
<polygon fill="midnightblue" stroke="midnightblue" points="282.32,-76.4615 271.768,-75.5164 279.428,-82.836 282.32,-76.4615"/>
</g>
<!-- Node17 -->
<g id="node17" class="node"><title>Node17</title>
<g id="a_node17"><a xlink:href="../../d7/d7c/ADCConfig_8hpp.html" target="_top" xlink:title="This file contains the platform&#45;specific ADC resolutions. By default, the library automatically selec...">
<polygon fill="white" stroke="black" points="335,-56.5 335,-75.5 483,-75.5 483,-56.5 335,-56.5"/>
<text text-anchor="middle" x="409" y="-63.5" font-family="Helvetica,sans-Serif" font-size="10.00">AH/Hardware/ADCConfig.hpp</text>
</a>
</g>
</g>
<!-- Node15&#45;&gt;Node17 -->
<g id="edge22" class="edge"><title>Node15&#45;&gt;Node17</title>
<path fill="none" stroke="midnightblue" d="M378.11,-112.083C383.282,-104.534 390.846,-93.4948 397.194,-84.2298"/>
<polygon fill="midnightblue" stroke="midnightblue" points="400.239,-85.9787 403.004,-75.7511 394.464,-82.0221 400.239,-85.9787"/>
</g>
<!-- Node18 -->
<g id="node18" class="node"><title>Node18</title>
<g id="a_node18"><a xlink:title=" ">
<polygon fill="white" stroke="#bfbfbf" points="501,-56.5 501,-75.5 549,-75.5 549,-56.5 501,-56.5"/>
<text text-anchor="middle" x="525" y="-63.5" font-family="Helvetica,sans-Serif" font-size="10.00">limits.h</text>
</a>
</g>
</g>
<!-- Node15&#45;&gt;Node18 -->
<g id="edge25" class="edge"><title>Node15&#45;&gt;Node18</title>
<path fill="none" stroke="midnightblue" d="M396.243,-112.444C421.871,-103.399 462.485,-89.064 491.238,-78.9158"/>
<polygon fill="midnightblue" stroke="midnightblue" points="492.605,-82.1452 500.87,-75.5164 490.275,-75.5442 492.605,-82.1452"/>
</g>
<!-- Node15&#45;&gt;Node19 -->
<g id="edge26" class="edge"><title>Node15&#45;&gt;Node19</title>
<path fill="none" stroke="midnightblue" d="M407.695,-112.525C443.117,-104.078 499.219,-90.606 556.658,-76.3106"/>
<polygon fill="midnightblue" stroke="midnightblue" points="557.781,-79.6379 566.637,-73.8221 556.087,-72.8459 557.781,-79.6379"/>
</g>
<!-- Node16&#45;&gt;Node8 -->
<g id="edge20" class="edge"><title>Node16&#45;&gt;Node8</title>
<path fill="none" stroke="midnightblue" d="M317.082,-56.9915C320.096,-56.6488 323.08,-56.3165 326,-56 468.601,-40.5424 635.335,-25.6549 730.319,-17.4742"/>
<polygon fill="midnightblue" stroke="midnightblue" points="730.748,-20.9503 740.412,-16.6069 730.149,-13.976 730.748,-20.9503"/>
</g>
<!-- Node16&#45;&gt;Node14 -->
<g id="edge21" class="edge"><title>Node16&#45;&gt;Node14</title>
<path fill="none" stroke="midnightblue" d="M222.735,-56.4435C190.045,-47.2011 137.818,-32.4356 101.817,-22.2572"/>
<polygon fill="midnightblue" stroke="midnightblue" points="102.698,-18.8691 92.1229,-19.5164 100.794,-25.6051 102.698,-18.8691"/>
</g>
<!-- Node17&#45;&gt;Node8 -->
<g id="edge23" class="edge"><title>Node17&#45;&gt;Node8</title>
<path fill="none" stroke="midnightblue" d="M472.064,-56.4435C543.241,-46.7864 658.861,-31.0993 733.918,-20.9157"/>
<polygon fill="midnightblue" stroke="midnightblue" points="734.792,-24.3292 744.231,-19.5164 733.851,-17.3928 734.792,-24.3292"/>
</g>
<!-- Node17&#45;&gt;Node12 -->
<g id="edge24" class="edge"><title>Node17&#45;&gt;Node12</title>
<path fill="none" stroke="midnightblue" d="M409,-56.083C409,-49.0059 409,-38.8611 409,-29.9865"/>
<polygon fill="midnightblue" stroke="midnightblue" points="412.5,-29.751 409,-19.7511 405.5,-29.7511 412.5,-29.751"/>
</g>
<!-- Node24&#45;&gt;Node5 -->
<g id="edge38" class="edge"><title>Node24&#45;&gt;Node5</title>
<path fill="none" stroke="midnightblue" d="M1007.15,-392.265C1023.62,-371.465 1051,-330.89 1051,-291 1051,-291 1051,-291 1051,-177 1051,-129.599 1102.6,-96.6419 1137.27,-79.85"/>
<polygon fill="midnightblue" stroke="midnightblue" points="1138.95,-82.9307 1146.54,-75.5439 1136,-76.5821 1138.95,-82.9307"/>
</g>
<!-- Node24&#45;&gt;Node7 -->
<g id="edge36" class="edge"><title>Node24&#45;&gt;Node7</title>
<path fill="none" stroke="midnightblue" d="M972.249,-392.399C957.005,-382.951 937.011,-370.559 921.764,-361.109"/>
<polygon fill="midnightblue" stroke="midnightblue" points="923.313,-357.951 912.969,-355.658 919.625,-363.901 923.313,-357.951"/>
</g>
<!-- Node24&#45;&gt;Node8 -->
<g id="edge35" class="edge"><title>Node24&#45;&gt;Node8</title>
<path fill="none" stroke="midnightblue" d="M998.643,-392.385C1003.9,-370.731 1013,-327.935 1013,-291 1013,-291 1013,-291 1013,-121 1013,-60.1573 942.211,-32.8472 883.627,-20.6635"/>
<polygon fill="midnightblue" stroke="midnightblue" points="884.084,-17.1867 873.598,-18.6973 882.738,-24.0559 884.084,-17.1867"/>
</g>
<!-- Node24&#45;&gt;Node14 -->
<g id="edge37" class="edge"><title>Node24&#45;&gt;Node14</title>
<path fill="none" stroke="midnightblue" d="M934.408,-402.776C779.188,-392.459 371.06,-360.219 251,-300 125.431,-237.018 81.6137,-205.846 28,-76 20.8354,-58.6483 33.1944,-39.7282 44.9689,-26.7988"/>
<polygon fill="midnightblue" stroke="midnightblue" points="47.5375,-29.1784 52.0448,-19.5901 42.5419,-24.2748 47.5375,-29.1784"/>
</g>
<!-- Node25&#45;&gt;Node8 -->
<g id="edge43" class="edge"><title>Node25&#45;&gt;Node8</title>
<path fill="none" stroke="midnightblue" d="M407.716,-284.344C519.755,-276.776 723.013,-260.941 752,-244 828.02,-199.572 838.65,-162.117 857,-76 858.852,-67.3063 860.616,-64.12 857,-56 851.432,-43.4981 840.484,-33.0124 830.249,-25.3167"/>
<polygon fill="midnightblue" stroke="midnightblue" points="832.156,-22.3794 821.952,-19.5256 828.149,-28.1193 832.156,-22.3794"/>
</g>
<!-- Node25&#45;&gt;Node10 -->
<g id="edge44" class="edge"><title>Node25&#45;&gt;Node10</title>
<path fill="none" stroke="midnightblue" d="M389.934,-280.444C452.805,-270.826 554.772,-255.228 621.362,-245.041"/>
<polygon fill="midnightblue" stroke="midnightblue" points="621.972,-248.488 631.328,-243.516 620.913,-241.569 621.972,-248.488"/>
</g>
<!-- Node26 -->
<g id="node26" class="node"><title>Node26</title>
<g id="a_node26"><a xlink:href="../../d7/d79/MinMaxFix_8hpp.html" target="_top" xlink:title=" ">
<polygon fill="white" stroke="black" points="45.5,-56.5 45.5,-75.5 170.5,-75.5 170.5,-56.5 45.5,-56.5"/>
<text text-anchor="middle" x="108" y="-63.5" font-family="Helvetica,sans-Serif" font-size="10.00">AH/Math/MinMaxFix.hpp</text>
</a>
</g>
</g>
<!-- Node25&#45;&gt;Node26 -->
<g id="edge45" class="edge"><title>Node25&#45;&gt;Node26</title>
<path fill="none" stroke="midnightblue" d="M316.526,-280.398C300.847,-272.225 277.654,-258.985 260,-244 199.877,-192.967 143.287,-117.181 119.632,-83.8099"/>
<polygon fill="midnightblue" stroke="midnightblue" points="122.465,-81.755 113.857,-75.5782 116.735,-85.7749 122.465,-81.755"/>
</g>
<!-- Node27 -->
<g id="node27" class="node"><title>Node27</title>
<g id="a_node27"><a xlink:title=" ">
<polygon fill="white" stroke="#bfbfbf" points="269,-224.5 269,-243.5 317,-243.5 317,-224.5 269,-224.5"/>
<text text-anchor="middle" x="293" y="-231.5" font-family="Helvetica,sans-Serif" font-size="10.00">stdlib.h</text>
</a>
</g>
</g>
<!-- Node25&#45;&gt;Node27 -->
<g id="edge49" class="edge"><title>Node25&#45;&gt;Node27</title>
<path fill="none" stroke="midnightblue" d="M327.23,-280.083C321.438,-272.455 312.942,-261.264 305.862,-251.941"/>
<polygon fill="midnightblue" stroke="midnightblue" points="308.479,-249.599 299.644,-243.751 302.904,-253.832 308.479,-249.599"/>
</g>
<!-- Node28 -->
<g id="node28" class="node"><title>Node28</title>
<g id="a_node28"><a xlink:title=" ">
<polygon fill="white" stroke="#bfbfbf" points="335.5,-224.5 335.5,-243.5 382.5,-243.5 382.5,-224.5 335.5,-224.5"/>
<text text-anchor="middle" x="359" y="-231.5" font-family="Helvetica,sans-Serif" font-size="10.00">iterator</text>
</a>
</g>
</g>
<!-- Node25&#45;&gt;Node28 -->
<g id="edge50" class="edge"><title>Node25&#45;&gt;Node28</title>
<path fill="none" stroke="midnightblue" d="M338.128,-280.083C341.514,-272.77 346.416,-262.181 350.619,-253.103"/>
<polygon fill="midnightblue" stroke="midnightblue" points="353.923,-254.296 354.949,-243.751 347.571,-251.355 353.923,-254.296"/>
</g>
<!-- Node26&#45;&gt;Node8 -->
<g id="edge46" class="edge"><title>Node26&#45;&gt;Node8</title>
<path fill="none" stroke="midnightblue" d="M170.807,-56.9513C173.914,-56.6153 176.991,-56.2958 180,-56 377.877,-36.5454 611.672,-21.9898 730.038,-15.2136"/>
<polygon fill="midnightblue" stroke="midnightblue" points="730.305,-18.7041 740.09,-14.641 729.907,-11.7155 730.305,-18.7041"/>
</g>
<!-- Node26&#45;&gt;Node12 -->
<g id="edge47" class="edge"><title>Node26&#45;&gt;Node12</title>
<path fill="none" stroke="midnightblue" d="M155.694,-56.4435C214.873,-45.8268 314.673,-27.9224 369.678,-18.0544"/>
<polygon fill="midnightblue" stroke="midnightblue" points="370.508,-21.4616 379.733,-16.2506 369.272,-14.5716 370.508,-21.4616"/>
</g>
<!-- Node26&#45;&gt;Node14 -->
<g id="edge48" class="edge"><title>Node26&#45;&gt;Node14</title>
<path fill="none" stroke="midnightblue" d="M100.404,-56.083C93.7725,-48.2982 83.979,-36.8015 75.9419,-27.3665"/>
<polygon fill="midnightblue" stroke="midnightblue" points="78.6037,-25.0939 69.4546,-19.7511 73.275,-29.6332 78.6037,-25.0939"/>
</g>
</g>
</svg>
