<?xml version="1.0" encoding="UTF-8" standalone="no"?>
<!DOCTYPE svg PUBLIC "-//W3C//DTD SVG 1.1//EN"
 "http://www.w3.org/Graphics/SVG/1.1/DTD/svg11.dtd">
<!-- Generated by graphviz version 2.43.0 (0)
 -->
<!-- Title: ProgramChanger&lt; N &gt; Pages: 1 -->
<svg width="403pt" height="354pt"
 viewBox="0.00 0.00 402.50 354.00" xmlns="http://www.w3.org/2000/svg" xmlns:xlink="http://www.w3.org/1999/xlink">
<g id="graph0" class="graph" transform="scale(1 1) rotate(0) translate(4 350)">
<title>ProgramChanger&lt; N &gt;</title>
<!-- Node1 -->
<g id="Node000001" class="node">
<title>Node1</title>
<g id="a_Node000001"><a xlink:title=" ">
<polygon fill="#999999" stroke="transparent" points="251,-64 129,-64 129,0 251,0 251,-64"/>
<text text-anchor="start" x="134" y="-52" font-family="Helvetica,sans-Serif" font-size="10.00">ProgramChanger&lt; N &gt;</text>
<text text-anchor="start" x="188" y="-37" font-family="Helvetica,sans-Serif" font-size="10.00"> </text>
<text text-anchor="start" x="135.5" y="-22" font-family="Helvetica,sans-Serif" font-size="10.00">+</text>
<text text-anchor="start" x="151" y="-22" font-family="Helvetica,sans-Serif" font-size="10.00">ProgramChanger()</text>
<text text-anchor="start" x="135.5" y="-7" font-family="Helvetica,sans-Serif" font-size="10.00">+</text>
<text text-anchor="start" x="151" y="-7" font-family="Helvetica,sans-Serif" font-size="10.00">select()</text>
<polygon fill="#666666" stroke="#666666" points="129,-47 129,-47 251,-47 251,-47 129,-47"/>
<polygon fill="#666666" stroke="#666666" points="129,-32 129,-32 251,-32 251,-32 129,-32"/>
<polygon fill="none" stroke="#666666" points="129,0 129,-64 251,-64 251,0 129,0"/>
</a>
</g>
</g>
<!-- Node2 -->
<g id="Node000002" class="node">
<title>Node2</title>
<g id="a_Node000002"><a xlink:href="../../de/de7/classSelectable.html" target="_top" xlink:title=" ">
<polygon fill="white" stroke="transparent" points="118,-286 0,-286 0,-177 118,-177 118,-286"/>
<text text-anchor="start" x="18" y="-273.5" font-family="Helvetica,sans-Serif" font-size="10.00">Selectable&lt; N &gt;</text>
<text text-anchor="start" x="6.5" y="-258.5" font-family="Helvetica,sans-Serif" font-size="10.00">&#45;</text>
<text text-anchor="start" x="17" y="-258.5" font-family="Helvetica,sans-Serif" font-size="10.00">initialSelection</text>
<text text-anchor="start" x="4" y="-243.5" font-family="Helvetica,sans-Serif" font-size="10.00">+</text>
<text text-anchor="start" x="17" y="-243.5" font-family="Helvetica,sans-Serif" font-size="10.00">select()</text>
<text text-anchor="start" x="4" y="-228.5" font-family="Helvetica,sans-Serif" font-size="10.00">+</text>
<text text-anchor="start" x="17" y="-228.5" font-family="Helvetica,sans-Serif" font-size="10.00">getInitialSelection()</text>
<text text-anchor="start" x="4" y="-213.5" font-family="Helvetica,sans-Serif" font-size="10.00">+</text>
<text text-anchor="start" x="17" y="-213.5" font-family="Helvetica,sans-Serif" font-size="10.00">setInitialSelection()</text>
<text text-anchor="start" x="4" y="-198.5" font-family="Helvetica,sans-Serif" font-size="10.00">+</text>
<text text-anchor="start" x="17" y="-198.5" font-family="Helvetica,sans-Serif" font-size="10.00">validateSetting()</text>
<text text-anchor="start" x="4" y="-183.5" font-family="Helvetica,sans-Serif" font-size="10.00">#</text>
<text text-anchor="start" x="17" y="-183.5" font-family="Helvetica,sans-Serif" font-size="10.00">Selectable()</text>
<polygon fill="#666666" stroke="#666666" points="0,-268.5 0,-268.5 118,-268.5 118,-268.5 0,-268.5"/>
<polygon fill="#666666" stroke="#666666" points="0,-253.5 0,-253.5 15,-253.5 15,-253.5 0,-253.5"/>
<polygon fill="#666666" stroke="#666666" points="15,-253.5 15,-253.5 118,-253.5 118,-253.5 15,-253.5"/>
<polygon fill="none" stroke="#666666" points="0,-177 0,-286 118,-286 118,-177 0,-177"/>
</a>
</g>
</g>
<!-- Node2&#45;&gt;Node1 -->
<g id="edge1_Node000001_Node000002" class="edge">
<title>Node2&#45;&gt;Node1</title>
<g id="a_edge1_Node000001_Node000002"><a xlink:title=" ">
<path fill="none" stroke="#63b8ff" d="M94.71,-168.27C104.8,-151.41 116.04,-133.32 127,-117 139,-99.15 153.32,-79.9 165.27,-64.35"/>
<polygon fill="none" stroke="#63b8ff" points="91.64,-166.57 89.54,-176.95 97.66,-170.15 91.64,-166.57"/>
</a>
</g>
</g>
<!-- Node3 -->
<g id="Node000003" class="node">
<title>Node3</title>
<g id="a_Node000003"><a xlink:href="../../d0/d32/structAH_1_1Array.html" target="_top" xlink:title=" ">
<polygon fill="white" stroke="transparent" points="243.5,-338.5 136.5,-338.5 136.5,-124.5 243.5,-124.5 243.5,-338.5"/>
<text text-anchor="start" x="142" y="-326.5" font-family="Helvetica,sans-Serif" font-size="10.00">Array&lt; uint8_t, N &gt;</text>
<text text-anchor="start" x="146" y="-311.5" font-family="Helvetica,sans-Serif" font-size="10.00">+</text>
<text text-anchor="start" x="164" y="-311.5" font-family="Helvetica,sans-Serif" font-size="10.00">data</text>
<text text-anchor="start" x="146" y="-296.5" font-family="Helvetica,sans-Serif" font-size="10.00">+</text>
<text text-anchor="start" x="164" y="-296.5" font-family="Helvetica,sans-Serif" font-size="10.00">length</text>
<text text-anchor="start" x="146" y="-281.5" font-family="Helvetica,sans-Serif" font-size="10.00">+</text>
<text text-anchor="start" x="164" y="-281.5" font-family="Helvetica,sans-Serif" font-size="10.00">operator[]()</text>
<text text-anchor="start" x="146" y="-266.5" font-family="Helvetica,sans-Serif" font-size="10.00">+</text>
<text text-anchor="start" x="164" y="-266.5" font-family="Helvetica,sans-Serif" font-size="10.00">operator[]()</text>
<text text-anchor="start" x="146" y="-251.5" font-family="Helvetica,sans-Serif" font-size="10.00">+</text>
<text text-anchor="start" x="164" y="-251.5" font-family="Helvetica,sans-Serif" font-size="10.00">begin()</text>
<text text-anchor="start" x="146" y="-236.5" font-family="Helvetica,sans-Serif" font-size="10.00">+</text>
<text text-anchor="start" x="164" y="-236.5" font-family="Helvetica,sans-Serif" font-size="10.00">begin()</text>
<text text-anchor="start" x="146" y="-221.5" font-family="Helvetica,sans-Serif" font-size="10.00">+</text>
<text text-anchor="start" x="164" y="-221.5" font-family="Helvetica,sans-Serif" font-size="10.00">end()</text>
<text text-anchor="start" x="146" y="-206.5" font-family="Helvetica,sans-Serif" font-size="10.00">+</text>
<text text-anchor="start" x="164" y="-206.5" font-family="Helvetica,sans-Serif" font-size="10.00">end()</text>
<text text-anchor="start" x="146" y="-191.5" font-family="Helvetica,sans-Serif" font-size="10.00">+</text>
<text text-anchor="start" x="164" y="-191.5" font-family="Helvetica,sans-Serif" font-size="10.00">operator==()</text>
<text text-anchor="start" x="146" y="-176.5" font-family="Helvetica,sans-Serif" font-size="10.00">+</text>
<text text-anchor="start" x="164" y="-176.5" font-family="Helvetica,sans-Serif" font-size="10.00">operator!=()</text>
<text text-anchor="start" x="146" y="-161.5" font-family="Helvetica,sans-Serif" font-size="10.00">+</text>
<text text-anchor="start" x="164" y="-161.5" font-family="Helvetica,sans-Serif" font-size="10.00">slice()</text>
<text text-anchor="start" x="146" y="-146.5" font-family="Helvetica,sans-Serif" font-size="10.00">+</text>
<text text-anchor="start" x="164" y="-146.5" font-family="Helvetica,sans-Serif" font-size="10.00">slice()</text>
<text text-anchor="start" x="146" y="-131.5" font-family="Helvetica,sans-Serif" font-size="10.00">+</text>
<text text-anchor="start" x="164" y="-131.5" font-family="Helvetica,sans-Serif" font-size="10.00">cslice()</text>
<polygon fill="#666666" stroke="#666666" points="137,-321.5 137,-321.5 244,-321.5 244,-321.5 137,-321.5"/>
<polygon fill="#666666" stroke="#666666" points="137,-291.5 137,-291.5 162,-291.5 162,-291.5 137,-291.5"/>
<polygon fill="#666666" stroke="#666666" points="162,-291.5 162,-291.5 244,-291.5 244,-291.5 162,-291.5"/>
<polygon fill="none" stroke="#666666" points="136.5,-124.5 136.5,-338.5 243.5,-338.5 243.5,-124.5 136.5,-124.5"/>
</a>
</g>
</g>
<!-- Node3&#45;&gt;Node1 -->
<g id="edge2_Node000001_Node000003" class="edge">
<title>Node3&#45;&gt;Node1</title>
<g id="a_edge2_Node000001_Node000003"><a xlink:title=" ">
<path fill="none" stroke="#63b8ff" d="M190,-124.23C190,-107.46 190,-90.97 190,-76.73"/>
<polygon fill="none" stroke="#63b8ff" points="190,-76.34 186,-70.34 190,-64.34 194,-70.34 190,-76.34"/>
</a>
</g>
<text text-anchor="start" x="193.5" y="-87.5" font-family="Helvetica,sans-Serif" font-size="10.00" fill="grey">&#45;programs</text>
</g>
<!-- Node4 -->
<g id="Node000004" class="node">
<title>Node4</title>
<g id="a_Node000004"><a xlink:href="../../d7/d46/classMIDIChannelCable.html" target="_top" xlink:title="A class for saving a MIDI channel and cable number.">
<polygon fill="white" stroke="transparent" points="394.5,-346 261.5,-346 261.5,-117 394.5,-117 394.5,-346"/>
<text text-anchor="start" x="283" y="-333.5" font-family="Helvetica,sans-Serif" font-size="10.00">MIDIChannelCable</text>
<text text-anchor="start" x="268.5" y="-318.5" font-family="Helvetica,sans-Serif" font-size="10.00">&#45;</text>
<text text-anchor="start" x="279" y="-318.5" font-family="Helvetica,sans-Serif" font-size="10.00">addresses</text>
<text text-anchor="start" x="266" y="-303.5" font-family="Helvetica,sans-Serif" font-size="10.00">#</text>
<text text-anchor="start" x="279" y="-303.5" font-family="Helvetica,sans-Serif" font-size="10.00">MIDIChannelCable()</text>
<text text-anchor="start" x="267.5" y="-288.5" font-family="Helvetica,sans-Serif" font-size="10.00">*</text>
<text text-anchor="start" x="279" y="-288.5" font-family="Helvetica,sans-Serif" font-size="10.00">MIDIChannelCable()</text>
<text text-anchor="start" x="267.5" y="-273.5" font-family="Helvetica,sans-Serif" font-size="10.00">*</text>
<text text-anchor="start" x="279" y="-273.5" font-family="Helvetica,sans-Serif" font-size="10.00">MIDIChannelCable()</text>
<text text-anchor="start" x="267.5" y="-258.5" font-family="Helvetica,sans-Serif" font-size="10.00">*</text>
<text text-anchor="start" x="279" y="-258.5" font-family="Helvetica,sans-Serif" font-size="10.00">invalid()</text>
<text text-anchor="start" x="267.5" y="-243.5" font-family="Helvetica,sans-Serif" font-size="10.00">*</text>
<text text-anchor="start" x="279" y="-243.5" font-family="Helvetica,sans-Serif" font-size="10.00">getChannel()</text>
<text text-anchor="start" x="267.5" y="-228.5" font-family="Helvetica,sans-Serif" font-size="10.00">*</text>
<text text-anchor="start" x="279" y="-228.5" font-family="Helvetica,sans-Serif" font-size="10.00">getRawChannel()</text>
<text text-anchor="start" x="267.5" y="-213.5" font-family="Helvetica,sans-Serif" font-size="10.00">*</text>
<text text-anchor="start" x="279" y="-213.5" font-family="Helvetica,sans-Serif" font-size="10.00">getCableNumber()</text>
<text text-anchor="start" x="267.5" y="-198.5" font-family="Helvetica,sans-Serif" font-size="10.00">*</text>
<text text-anchor="start" x="279" y="-198.5" font-family="Helvetica,sans-Serif" font-size="10.00">getRawCableNumber()</text>
<text text-anchor="start" x="267.5" y="-183.5" font-family="Helvetica,sans-Serif" font-size="10.00">*</text>
<text text-anchor="start" x="279" y="-183.5" font-family="Helvetica,sans-Serif" font-size="10.00">operator==()</text>
<text text-anchor="start" x="267.5" y="-168.5" font-family="Helvetica,sans-Serif" font-size="10.00">*</text>
<text text-anchor="start" x="279" y="-168.5" font-family="Helvetica,sans-Serif" font-size="10.00">operator!=()</text>
<text text-anchor="start" x="267.5" y="-153.5" font-family="Helvetica,sans-Serif" font-size="10.00">*</text>
<text text-anchor="start" x="279" y="-153.5" font-family="Helvetica,sans-Serif" font-size="10.00">isValid()</text>
<text text-anchor="start" x="267.5" y="-138.5" font-family="Helvetica,sans-Serif" font-size="10.00">*</text>
<text text-anchor="start" x="279" y="-138.5" font-family="Helvetica,sans-Serif" font-size="10.00">operator bool()</text>
<text text-anchor="start" x="267.5" y="-123.5" font-family="Helvetica,sans-Serif" font-size="10.00">*</text>
<text text-anchor="start" x="279" y="-123.5" font-family="Helvetica,sans-Serif" font-size="10.00">matchSingle()</text>
<polygon fill="#666666" stroke="#666666" points="262,-328.5 262,-328.5 395,-328.5 395,-328.5 262,-328.5"/>
<polygon fill="#666666" stroke="#666666" points="262,-313.5 262,-313.5 277,-313.5 277,-313.5 262,-313.5"/>
<polygon fill="#666666" stroke="#666666" points="277,-313.5 277,-313.5 395,-313.5 395,-313.5 277,-313.5"/>
<polygon fill="none" stroke="#666666" points="261.5,-117 261.5,-346 394.5,-346 394.5,-117 261.5,-117"/>
</a>
</g>
</g>
<!-- Node4&#45;&gt;Node1 -->
<g id="edge3_Node000001_Node000004" class="edge">
<title>Node4&#45;&gt;Node1</title>
<g id="a_edge3_Node000001_Node000004"><a xlink:title=" ">
<path fill="none" stroke="#63b8ff" d="M275.36,-116.68C267.89,-104.5 259.74,-92.67 251,-82 248.34,-78.75 245.43,-75.57 242.37,-72.49"/>
<polygon fill="none" stroke="#63b8ff" points="242.18,-72.31 235.07,-71.12 233.44,-64.1 240.55,-65.29 242.18,-72.31"/>
</a>
</g>
<text text-anchor="start" x="264.5" y="-87.5" font-family="Helvetica,sans-Serif" font-size="10.00" fill="grey">&#45;channelCN</text>
</g>
</g>
</svg>
