<?xml version="1.0" encoding="UTF-8" standalone="no"?>
<!DOCTYPE svg PUBLIC "-//W3C//DTD SVG 1.1//EN"
 "http://www.w3.org/Graphics/SVG/1.1/DTD/svg11.dtd">
<!-- Generated by graphviz version 2.43.0 (0)
 -->
<!-- Title: MCP23017.hpp Pages: 1 -->
<svg width="1480pt" height="874pt"
 viewBox="0.00 0.00 1479.50 874.00" xmlns="http://www.w3.org/2000/svg" xmlns:xlink="http://www.w3.org/1999/xlink">
<g id="graph0" class="graph" transform="scale(1 1) rotate(0) translate(4 870)">
<title>MCP23017.hpp</title>
<!-- Node1 -->
<g id="Node000001" class="node">
<title>Node1</title>
<g id="a_Node000001"><a xlink:title=" ">
<polygon fill="#999999" stroke="#666666" points="576.5,-866 487.5,-866 487.5,-847 576.5,-847 576.5,-866"/>
<text text-anchor="middle" x="532" y="-854" font-family="Helvetica,sans-Serif" font-size="10.00">MCP23017.hpp</text>
</a>
</g>
</g>
<!-- Node2 -->
<g id="Node000002" class="node">
<title>Node2</title>
<g id="a_Node000002"><a xlink:href="../../dd/ddf/ExtendedInputOutput_8hpp.html" target="_top" xlink:title=" ">
<polygon fill="white" stroke="#666666" points="543.5,-701 402.5,-701 402.5,-682 543.5,-682 543.5,-701"/>
<text text-anchor="middle" x="473" y="-689" font-family="Helvetica,sans-Serif" font-size="10.00">ExtendedInputOutput.hpp</text>
</a>
</g>
</g>
<!-- Node1&#45;&gt;Node2 -->
<g id="edge1_Node000001_Node000002" class="edge">
<title>Node1&#45;&gt;Node2</title>
<g id="a_edge1_Node000001_Node000002"><a xlink:title=" ">
<path fill="none" stroke="#63b8ff" d="M521.29,-846.81C511.97,-838.61 498.89,-825.44 492,-811 476.41,-778.36 473.23,-735.5 472.79,-711.29"/>
<polygon fill="#63b8ff" stroke="#63b8ff" points="476.29,-711.01 472.76,-701.02 469.29,-711.04 476.29,-711.01"/>
</a>
</g>
</g>
<!-- Node31 -->
<g id="Node000031" class="node">
<title>Node31</title>
<g id="a_Node000031"><a xlink:href="../../d2/d05/StaticSizeExtendedIOElement_8hpp.html" target="_top" xlink:title=" ">
<polygon fill="white" stroke="#666666" points="683,-811 501,-811 501,-792 683,-792 683,-811"/>
<text text-anchor="middle" x="592" y="-799" font-family="Helvetica,sans-Serif" font-size="10.00">StaticSizeExtendedIOElement.hpp</text>
</a>
</g>
</g>
<!-- Node1&#45;&gt;Node31 -->
<g id="edge44_Node000001_Node000031" class="edge">
<title>Node1&#45;&gt;Node31</title>
<g id="a_edge44_Node000001_Node000031"><a xlink:title=" ">
<path fill="none" stroke="#63b8ff" d="M541.64,-846.98C550.51,-839.15 563.87,-827.34 574.61,-817.86"/>
<polygon fill="#63b8ff" stroke="#63b8ff" points="577.01,-820.41 582.18,-811.17 572.37,-815.17 577.01,-820.41"/>
</a>
</g>
</g>
<!-- Node40 -->
<g id="Node000040" class="node">
<title>Node40</title>
<g id="a_Node000040"><a xlink:href="../../d1/d40/BitArray_8hpp.html" target="_top" xlink:title=" ">
<polygon fill="white" stroke="#666666" points="420.5,-514 271.5,-514 271.5,-495 420.5,-495 420.5,-514"/>
<text text-anchor="middle" x="346" y="-502" font-family="Helvetica,sans-Serif" font-size="10.00">AH/Containers/BitArray.hpp</text>
</a>
</g>
</g>
<!-- Node1&#45;&gt;Node40 -->
<g id="edge64_Node000001_Node000040" class="edge">
<title>Node1&#45;&gt;Node40</title>
<g id="a_edge64_Node000001_Node000040"><a xlink:title=" ">
<path fill="none" stroke="#63b8ff" d="M487.26,-856.28C412.43,-855 270,-840.36 270,-747.5 270,-747.5 270,-747.5 270,-690.5 270,-624.42 312,-554.35 333.56,-522.74"/>
<polygon fill="#63b8ff" stroke="#63b8ff" points="336.66,-524.41 339.52,-514.21 330.92,-520.4 336.66,-524.41"/>
</a>
</g>
</g>
<!-- Node41 -->
<g id="Node000041" class="node">
<title>Node41</title>
<g id="a_Node000041"><a xlink:title=" ">
<polygon fill="#e0e0e0" stroke="#999999" points="787,-811 701,-811 701,-792 787,-792 787,-811"/>
<text text-anchor="middle" x="744" y="-799" font-family="Helvetica,sans-Serif" font-size="10.00">MCP23017.ipp</text>
</a>
</g>
</g>
<!-- Node1&#45;&gt;Node41 -->
<g id="edge68_Node000001_Node000041" class="edge">
<title>Node1&#45;&gt;Node41</title>
<g id="a_edge68_Node000001_Node000041"><a xlink:title=" ">
<path fill="none" stroke="#63b8ff" d="M566.06,-846.98C602.42,-837.89 660.17,-823.46 699.97,-813.51"/>
<polygon fill="#63b8ff" stroke="#63b8ff" points="700.82,-816.9 709.67,-811.08 699.12,-810.11 700.82,-816.9"/>
</a>
</g>
</g>
<!-- Node3 -->
<g id="Node000003" class="node">
<title>Node3</title>
<g id="a_Node000003"><a xlink:href="../../d2/d3c/Arduino-Hardware-Types_8hpp.html" target="_top" xlink:title=" ">
<polygon fill="white" stroke="#666666" points="564,-646 442,-646 442,-616 564,-616 564,-646"/>
<text text-anchor="start" x="450" y="-634" font-family="Helvetica,sans-Serif" font-size="10.00">AH/Hardware/Arduino</text>
<text text-anchor="middle" x="503" y="-623" font-family="Helvetica,sans-Serif" font-size="10.00">&#45;Hardware&#45;Types.hpp</text>
</a>
</g>
</g>
<!-- Node2&#45;&gt;Node3 -->
<g id="edge2_Node000002_Node000003" class="edge">
<title>Node2&#45;&gt;Node3</title>
<g id="a_edge2_Node000002_Node000003"><a xlink:title=" ">
<path fill="none" stroke="#63b8ff" d="M477.43,-681.87C481.04,-674.81 486.33,-664.5 491.16,-655.08"/>
<polygon fill="#63b8ff" stroke="#63b8ff" points="494.31,-656.61 495.76,-646.11 488.08,-653.42 494.31,-656.61"/>
</a>
</g>
</g>
<!-- Node14 -->
<g id="Node000014" class="node">
<title>Node14</title>
<g id="a_Node000014"><a xlink:href="../../d6/db0/AH_2Settings_2NamespaceSettings_8hpp.html" target="_top" xlink:title=" ">
<polygon fill="white" stroke="#666666" points="704.5,-74 509.5,-74 509.5,-55 704.5,-55 704.5,-74"/>
<text text-anchor="middle" x="607" y="-62" font-family="Helvetica,sans-Serif" font-size="10.00">AH/Settings/NamespaceSettings.hpp</text>
</a>
</g>
</g>
<!-- Node2&#45;&gt;Node14 -->
<g id="edge43_Node000002_Node000014" class="edge">
<title>Node2&#45;&gt;Node14</title>
<g id="a_edge43_Node000002_Node000014"><a xlink:title=" ">
<path fill="none" stroke="#63b8ff" d="M410.35,-681.94C382.57,-675.64 350.85,-664.76 327,-646 270,-601.16 244,-578.03 244,-505.5 244,-505.5 244,-505.5 244,-173.5 244,-118.08 401.38,-88.82 508.89,-75.3"/>
<polygon fill="#63b8ff" stroke="#63b8ff" points="509.63,-78.73 519.13,-74.04 508.78,-71.78 509.63,-78.73"/>
</a>
</g>
</g>
<!-- Node30 -->
<g id="Node000030" class="node">
<title>Node30</title>
<g id="a_Node000030"><a xlink:title=" ">
<polygon fill="#e0e0e0" stroke="#999999" points="423.5,-640.5 336.5,-640.5 336.5,-621.5 423.5,-621.5 423.5,-640.5"/>
<text text-anchor="middle" x="380" y="-628.5" font-family="Helvetica,sans-Serif" font-size="10.00">AH/STL/climits</text>
</a>
</g>
</g>
<!-- Node2&#45;&gt;Node30 -->
<g id="edge42_Node000002_Node000030" class="edge">
<title>Node2&#45;&gt;Node30</title>
<g id="a_edge42_Node000002_Node000030"><a xlink:title=" ">
<path fill="none" stroke="#63b8ff" d="M459.28,-681.87C444.3,-672.45 420.11,-657.23 402.38,-646.08"/>
<polygon fill="#63b8ff" stroke="#63b8ff" points="404.11,-643.03 393.78,-640.67 400.38,-648.95 404.11,-643.03"/>
</a>
</g>
</g>
<!-- Node4 -->
<g id="Node000004" class="node">
<title>Node4</title>
<g id="a_Node000004"><a xlink:href="../../d4/d35/Hardware-Types_8hpp.html" target="_top" xlink:title=" ">
<polygon fill="white" stroke="#666666" points="645.5,-580 514.5,-580 514.5,-550 645.5,-550 645.5,-580"/>
<text text-anchor="start" x="522.5" y="-568" font-family="Helvetica,sans-Serif" font-size="10.00">AH/Hardware/Hardware</text>
<text text-anchor="middle" x="580" y="-557" font-family="Helvetica,sans-Serif" font-size="10.00">&#45;Types.hpp</text>
</a>
</g>
</g>
<!-- Node3&#45;&gt;Node4 -->
<g id="edge3_Node000003_Node000004" class="edge">
<title>Node3&#45;&gt;Node4</title>
<g id="a_edge3_Node000003_Node000004"><a xlink:title=" ">
<path fill="none" stroke="#63b8ff" d="M520.09,-615.8C530.36,-607.26 543.6,-596.25 555.03,-586.75"/>
<polygon fill="#63b8ff" stroke="#63b8ff" points="557.51,-589.25 562.96,-580.16 553.03,-583.86 557.51,-589.25"/>
</a>
</g>
</g>
<!-- Node9 -->
<g id="Node000009" class="node">
<title>Node9</title>
<g id="a_Node000009"><a xlink:href="../../d6/ddf/Arduino-Wrapper_8h.html" target="_top" xlink:title=" ">
<polygon fill="white" stroke="#666666" points="955,-184 831,-184 831,-165 955,-165 955,-184"/>
<text text-anchor="middle" x="893" y="-172" font-family="Helvetica,sans-Serif" font-size="10.00">AH/Arduino&#45;Wrapper.h</text>
</a>
</g>
</g>
<!-- Node3&#45;&gt;Node9 -->
<g id="edge41_Node000003_Node000009" class="edge">
<title>Node3&#45;&gt;Node9</title>
<g id="a_edge41_Node000003_Node000009"><a xlink:title=" ">
<path fill="none" stroke="#63b8ff" d="M499.8,-615.9C494.88,-592.9 486,-545.86 486,-505.5 486,-505.5 486,-505.5 486,-448.5 486,-308.45 581.5,-289.67 703,-220 738.73,-199.51 783.37,-188.45 820.4,-182.48"/>
<polygon fill="#63b8ff" stroke="#63b8ff" points="821.27,-185.89 830.63,-180.92 820.22,-178.96 821.27,-185.89"/>
</a>
</g>
</g>
<!-- Node27 -->
<g id="Node000027" class="node">
<title>Node27</title>
<g id="a_Node000027"><a xlink:href="../../d0/db1/FunctionTraits_8hpp.html" target="_top" xlink:title=" ">
<polygon fill="white" stroke="#666666" points="179.5,-574.5 26.5,-574.5 26.5,-555.5 179.5,-555.5 179.5,-574.5"/>
<text text-anchor="middle" x="103" y="-562.5" font-family="Helvetica,sans-Serif" font-size="10.00">AH/Types/FunctionTraits.hpp</text>
</a>
</g>
</g>
<!-- Node3&#45;&gt;Node27 -->
<g id="edge37_Node000003_Node000027" class="edge">
<title>Node3&#45;&gt;Node27</title>
<g id="a_edge37_Node000003_Node000027"><a xlink:title=" ">
<path fill="none" stroke="#63b8ff" d="M441.84,-617.76C438.51,-617.15 435.22,-616.56 432,-616 343.49,-600.56 241.1,-585.42 174.36,-575.92"/>
<polygon fill="#63b8ff" stroke="#63b8ff" points="174.77,-572.45 164.37,-574.51 173.78,-579.38 174.77,-572.45"/>
</a>
</g>
</g>
<!-- Node5 -->
<g id="Node000005" class="node">
<title>Node5</title>
<g id="a_Node000005"><a xlink:href="../../de/d76/Array_8hpp.html" target="_top" xlink:title=" ">
<polygon fill="white" stroke="#666666" points="696.5,-514 561.5,-514 561.5,-495 696.5,-495 696.5,-514"/>
<text text-anchor="middle" x="629" y="-502" font-family="Helvetica,sans-Serif" font-size="10.00">AH/Containers/Array.hpp</text>
</a>
</g>
</g>
<!-- Node4&#45;&gt;Node5 -->
<g id="edge4_Node000004_Node000005" class="edge">
<title>Node4&#45;&gt;Node5</title>
<g id="a_edge4_Node000004_Node000005"><a xlink:title=" ">
<path fill="none" stroke="#63b8ff" d="M591.86,-549.84C598.9,-541.43 607.86,-530.74 615.21,-521.96"/>
<polygon fill="#63b8ff" stroke="#63b8ff" points="617.92,-524.18 621.66,-514.27 612.55,-519.68 617.92,-524.18"/>
</a>
</g>
</g>
<!-- Node4&#45;&gt;Node14 -->
<g id="edge35_Node000004_Node000014" class="edge">
<title>Node4&#45;&gt;Node14</title>
<g id="a_edge35_Node000004_Node000014"><a xlink:title=" ">
<path fill="none" stroke="#63b8ff" d="M547.62,-549.85C498.3,-525.85 410,-472.17 410,-395.5 410,-395.5 410,-395.5 410,-173.5 410,-115.82 475.73,-88.74 531.25,-76.16"/>
<polygon fill="#63b8ff" stroke="#63b8ff" points="532.08,-79.56 541.13,-74.04 530.62,-72.71 532.08,-79.56"/>
</a>
</g>
</g>
<!-- Node23 -->
<g id="Node000023" class="node">
<title>Node23</title>
<g id="a_Node000023"><a xlink:title=" ">
<polygon fill="#e0e0e0" stroke="#999999" points="497.5,-239 444.5,-239 444.5,-220 497.5,-220 497.5,-239"/>
<text text-anchor="middle" x="471" y="-227" font-family="Helvetica,sans-Serif" font-size="10.00">stdint.h</text>
</a>
</g>
</g>
<!-- Node4&#45;&gt;Node23 -->
<g id="edge36_Node000004_Node000023" class="edge">
<title>Node4&#45;&gt;Node23</title>
<g id="a_edge36_Node000004_Node000023"><a xlink:title=" ">
<path fill="none" stroke="#63b8ff" d="M571.36,-549.96C565.6,-540.15 558.16,-526.6 553,-514 513.47,-417.39 484.93,-294.99 474.92,-249.04"/>
<polygon fill="#63b8ff" stroke="#63b8ff" points="478.3,-248.11 472.77,-239.07 471.45,-249.58 478.3,-248.11"/>
</a>
</g>
</g>
<!-- Node6 -->
<g id="Node000006" class="node">
<title>Node6</title>
<g id="a_Node000006"><a xlink:href="../../d1/d93/Error_8hpp.html" target="_top" xlink:title=" ">
<polygon fill="white" stroke="#666666" points="770,-459 666,-459 666,-440 770,-440 770,-459"/>
<text text-anchor="middle" x="718" y="-447" font-family="Helvetica,sans-Serif" font-size="10.00">AH/Error/Error.hpp</text>
</a>
</g>
</g>
<!-- Node5&#45;&gt;Node6 -->
<g id="edge5_Node000005_Node000006" class="edge">
<title>Node5&#45;&gt;Node6</title>
<g id="a_edge5_Node000005_Node000006"><a xlink:title=" ">
<path fill="none" stroke="#63b8ff" d="M643.3,-494.98C657.1,-486.77 678.24,-474.18 694.51,-464.49"/>
<polygon fill="#63b8ff" stroke="#63b8ff" points="696.64,-467.29 703.44,-459.17 693.06,-461.28 696.64,-467.29"/>
</a>
</g>
</g>
<!-- Node15 -->
<g id="Node000015" class="node">
<title>Node15</title>
<g id="a_Node000015"><a xlink:title=" ">
<polygon fill="#e0e0e0" stroke="#999999" points="578.5,-129 471.5,-129 471.5,-110 578.5,-110 578.5,-129"/>
<text text-anchor="middle" x="525" y="-117" font-family="Helvetica,sans-Serif" font-size="10.00">AH/STL/type_traits</text>
</a>
</g>
</g>
<!-- Node5&#45;&gt;Node15 -->
<g id="edge33_Node000005_Node000015" class="edge">
<title>Node5&#45;&gt;Node15</title>
<g id="a_edge33_Node000005_Node000015"><a xlink:title=" ">
<path fill="none" stroke="#63b8ff" d="M624.28,-494.79C619.58,-485.92 612.32,-471.72 607,-459 577.08,-387.41 568.28,-369.4 550,-294 536.59,-238.68 529.43,-171.59 526.55,-139.45"/>
<polygon fill="#63b8ff" stroke="#63b8ff" points="530.01,-138.94 525.67,-129.28 523.04,-139.54 530.01,-138.94"/>
</a>
</g>
</g>
<!-- Node22 -->
<g id="Node000022" class="node">
<title>Node22</title>
<g id="a_Node000022"><a xlink:title=" ">
<polygon fill="#e0e0e0" stroke="#999999" points="1014,-239 958,-239 958,-220 1014,-220 1014,-239"/>
<text text-anchor="middle" x="986" y="-227" font-family="Helvetica,sans-Serif" font-size="10.00">stddef.h</text>
</a>
</g>
</g>
<!-- Node5&#45;&gt;Node22 -->
<g id="edge34_Node000005_Node000022" class="edge">
<title>Node5&#45;&gt;Node22</title>
<g id="a_edge34_Node000005_Node000022"><a xlink:title=" ">
<path fill="none" stroke="#63b8ff" d="M625.47,-494.94C617.7,-474.69 601.17,-422.7 619,-385 635.47,-350.17 653.76,-351.09 686,-330 691.64,-326.31 787.67,-277.3 794,-275 795.83,-274.33 892.27,-252.08 947.75,-239.3"/>
<polygon fill="#63b8ff" stroke="#63b8ff" points="948.64,-242.69 957.6,-237.04 947.07,-235.87 948.64,-242.69"/>
</a>
</g>
</g>
<!-- Node26 -->
<g id="Node000026" class="node">
<title>Node26</title>
<g id="a_Node000026"><a xlink:title=" ">
<polygon fill="#e0e0e0" stroke="#999999" points="718,-404 628,-404 628,-385 718,-385 718,-404"/>
<text text-anchor="middle" x="673" y="-392" font-family="Helvetica,sans-Serif" font-size="10.00">AH/STL/iterator</text>
</a>
</g>
</g>
<!-- Node5&#45;&gt;Node26 -->
<g id="edge32_Node000005_Node000026" class="edge">
<title>Node5&#45;&gt;Node26</title>
<g id="a_edge32_Node000005_Node000026"><a xlink:title=" ">
<path fill="none" stroke="#63b8ff" d="M632.6,-494.66C639.79,-477.01 656.06,-437.09 665.61,-413.64"/>
<polygon fill="#63b8ff" stroke="#63b8ff" points="668.94,-414.74 669.47,-404.16 662.46,-412.1 668.94,-414.74"/>
</a>
</g>
</g>
<!-- Node7 -->
<g id="Node000007" class="node">
<title>Node7</title>
<g id="a_Node000007"><a xlink:href="../../df/dee/Debug_8hpp.html" target="_top" xlink:title=" ">
<polygon fill="white" stroke="#666666" points="933.5,-404 812.5,-404 812.5,-385 933.5,-385 933.5,-404"/>
<text text-anchor="middle" x="873" y="-392" font-family="Helvetica,sans-Serif" font-size="10.00">AH/Debug/Debug.hpp</text>
</a>
</g>
</g>
<!-- Node6&#45;&gt;Node7 -->
<g id="edge6_Node000006_Node000007" class="edge">
<title>Node6&#45;&gt;Node7</title>
<g id="a_edge6_Node000006_Node000007"><a xlink:title=" ">
<path fill="none" stroke="#63b8ff" d="M742.9,-439.98C768.7,-431.16 809.22,-417.31 838.18,-407.41"/>
<polygon fill="#63b8ff" stroke="#63b8ff" points="839.57,-410.63 847.9,-404.08 837.31,-404.01 839.57,-410.63"/>
</a>
</g>
</g>
<!-- Node8 -->
<g id="Node000008" class="node">
<title>Node8</title>
<g id="a_Node000008"><a xlink:href="../../dd/d80/PrintStream_8hpp.html" target="_top" xlink:title=" ">
<polygon fill="white" stroke="#666666" points="1205.5,-349 1032.5,-349 1032.5,-330 1205.5,-330 1205.5,-349"/>
<text text-anchor="middle" x="1119" y="-337" font-family="Helvetica,sans-Serif" font-size="10.00">AH/PrintStream/PrintStream.hpp</text>
</a>
</g>
</g>
<!-- Node7&#45;&gt;Node8 -->
<g id="edge7_Node000007_Node000008" class="edge">
<title>Node7&#45;&gt;Node8</title>
<g id="a_edge7_Node000007_Node000008"><a xlink:title=" ">
<path fill="none" stroke="#63b8ff" d="M912.52,-384.98C955.17,-375.8 1023.15,-361.15 1069.36,-351.19"/>
<polygon fill="#63b8ff" stroke="#63b8ff" points="1070.13,-354.61 1079.17,-349.08 1068.65,-347.77 1070.13,-354.61"/>
</a>
</g>
</g>
<!-- Node17 -->
<g id="Node000017" class="node">
<title>Node17</title>
<g id="a_Node000017"><a xlink:href="../../de/dd1/AH_2Settings_2SettingsWrapper_8hpp.html" target="_top" xlink:title=" ">
<polygon fill="white" stroke="#666666" points="873,-349 695,-349 695,-330 873,-330 873,-349"/>
<text text-anchor="middle" x="784" y="-337" font-family="Helvetica,sans-Serif" font-size="10.00">AH/Settings/SettingsWrapper.hpp</text>
</a>
</g>
</g>
<!-- Node7&#45;&gt;Node17 -->
<g id="edge19_Node000007_Node000017" class="edge">
<title>Node7&#45;&gt;Node17</title>
<g id="a_edge19_Node000007_Node000017"><a xlink:title=" ">
<path fill="none" stroke="#63b8ff" d="M853.59,-384.98C838.12,-376.84 816.93,-364.41 801.88,-354.76"/>
<polygon fill="#63b8ff" stroke="#63b8ff" points="803.69,-351.76 793.41,-349.17 799.83,-357.6 803.69,-351.76"/>
</a>
</g>
</g>
<!-- Node25 -->
<g id="Node000025" class="node">
<title>Node25</title>
<g id="a_Node000025"><a xlink:href="../../d7/d52/DebugVal_8hpp.html" target="_top" xlink:title=" ">
<polygon fill="white" stroke="#666666" points="975,-349 891,-349 891,-330 975,-330 975,-349"/>
<text text-anchor="middle" x="933" y="-337" font-family="Helvetica,sans-Serif" font-size="10.00">DebugVal.hpp</text>
</a>
</g>
</g>
<!-- Node7&#45;&gt;Node25 -->
<g id="edge31_Node000007_Node000025" class="edge">
<title>Node7&#45;&gt;Node25</title>
<g id="a_edge31_Node000007_Node000025"><a xlink:title=" ">
<path fill="none" stroke="#63b8ff" d="M882.64,-384.98C891.51,-377.15 904.87,-365.34 915.61,-355.86"/>
<polygon fill="#63b8ff" stroke="#63b8ff" points="918.01,-358.41 923.18,-349.17 913.37,-353.17 918.01,-358.41"/>
</a>
</g>
</g>
<!-- Node8&#45;&gt;Node9 -->
<g id="edge8_Node000008_Node000009" class="edge">
<title>Node8&#45;&gt;Node9</title>
<g id="a_edge8_Node000008_Node000009"><a xlink:title=" ">
<path fill="none" stroke="#63b8ff" d="M1106.58,-330C1095.11,-321.73 1078.07,-308.34 1066,-294 1041.51,-264.89 1052.41,-244.13 1023,-220 1003.23,-203.78 977.23,-193.34 953.67,-186.69"/>
<polygon fill="#63b8ff" stroke="#63b8ff" points="954.32,-183.24 943.76,-184.06 952.53,-190 954.32,-183.24"/>
</a>
</g>
</g>
<!-- Node8&#45;&gt;Node14 -->
<g id="edge17_Node000008_Node000014" class="edge">
<title>Node8&#45;&gt;Node14</title>
<g id="a_edge17_Node000008_Node000014"><a xlink:title=" ">
<path fill="none" stroke="#63b8ff" d="M1115.09,-329.94C1105.35,-309.26 1078.28,-255.61 1044,-220 1014.08,-188.92 1003.09,-183.26 964,-165 864.76,-118.64 739.63,-89.93 666.94,-75.91"/>
<polygon fill="#63b8ff" stroke="#63b8ff" points="667.51,-72.45 657.03,-74.03 666.2,-79.33 667.51,-72.45"/>
</a>
</g>
</g>
<!-- Node16 -->
<g id="Node000016" class="node">
<title>Node16</title>
<g id="a_Node000016"><a xlink:title=" ">
<polygon fill="#e0e0e0" stroke="#999999" points="1286,-294 1108,-294 1108,-275 1286,-275 1286,-294"/>
<text text-anchor="middle" x="1197" y="-282" font-family="Helvetica,sans-Serif" font-size="10.00">Settings/NamespaceSettings.hpp</text>
</a>
</g>
</g>
<!-- Node8&#45;&gt;Node16 -->
<g id="edge18_Node000008_Node000016" class="edge">
<title>Node8&#45;&gt;Node16</title>
<g id="a_edge18_Node000008_Node000016"><a xlink:title=" ">
<path fill="none" stroke="#63b8ff" d="M1131.53,-329.98C1143.4,-321.92 1161.46,-309.65 1175.61,-300.03"/>
<polygon fill="#63b8ff" stroke="#63b8ff" points="1177.94,-302.69 1184.24,-294.17 1174,-296.9 1177.94,-302.69"/>
</a>
</g>
</g>
<!-- Node10 -->
<g id="Node000010" class="node">
<title>Node10</title>
<g id="a_Node000010"><a xlink:href="../../d7/d79/MinMaxFix_8hpp.html" target="_top" xlink:title=" ">
<polygon fill="white" stroke="#666666" points="1086,-129 950,-129 950,-110 1086,-110 1086,-129"/>
<text text-anchor="middle" x="1018" y="-117" font-family="Helvetica,sans-Serif" font-size="10.00">AH/Math/MinMaxFix.hpp</text>
</a>
</g>
</g>
<!-- Node9&#45;&gt;Node10 -->
<g id="edge9_Node000009_Node000010" class="edge">
<title>Node9&#45;&gt;Node10</title>
<g id="a_edge9_Node000009_Node000010"><a xlink:title=" ">
<path fill="none" stroke="#63b8ff" d="M913.08,-164.98C933.37,-156.38 964.96,-142.99 988.17,-133.15"/>
<polygon fill="#63b8ff" stroke="#63b8ff" points="989.71,-136.3 997.55,-129.17 986.98,-129.85 989.71,-136.3"/>
</a>
</g>
</g>
<!-- Node13 -->
<g id="Node000013" class="node">
<title>Node13</title>
<g id="a_Node000013"><a xlink:title=" ">
<polygon fill="#e0e0e0" stroke="#999999" points="1088.5,-19 1025.5,-19 1025.5,0 1088.5,0 1088.5,-19"/>
<text text-anchor="middle" x="1057" y="-7" font-family="Helvetica,sans-Serif" font-size="10.00">Arduino.h</text>
</a>
</g>
</g>
<!-- Node9&#45;&gt;Node13 -->
<g id="edge16_Node000009_Node000013" class="edge">
<title>Node9&#45;&gt;Node13</title>
<g id="a_edge16_Node000009_Node000013"><a xlink:title=" ">
<path fill="none" stroke="#63b8ff" d="M955.14,-168.23C1007.87,-162.32 1077.65,-150.59 1095,-129 1115.6,-103.36 1106.38,-85.86 1095,-55 1090.94,-43.99 1082.81,-33.86 1075.1,-26.05"/>
<polygon fill="#63b8ff" stroke="#63b8ff" points="1077.39,-23.39 1067.71,-19.07 1072.58,-28.48 1077.39,-23.39"/>
</a>
</g>
</g>
<!-- Node9&#45;&gt;Node15 -->
<g id="edge15_Node000009_Node000015" class="edge">
<title>Node9&#45;&gt;Node15</title>
<g id="a_edge15_Node000009_Node000015"><a xlink:title=" ">
<path fill="none" stroke="#63b8ff" d="M833.87,-164.98C766.82,-155.33 657.86,-139.63 588.89,-129.7"/>
<polygon fill="#63b8ff" stroke="#63b8ff" points="588.99,-126.18 578.59,-128.22 587.99,-133.11 588.99,-126.18"/>
</a>
</g>
</g>
<!-- Node11 -->
<g id="Node000011" class="node">
<title>Node11</title>
<g id="a_Node000011"><a xlink:href="../../d6/d3b/FixArduinoMacros_8hpp.html" target="_top" xlink:title=" ">
<polygon fill="white" stroke="#666666" points="1086,-74 916,-74 916,-55 1086,-55 1086,-74"/>
<text text-anchor="middle" x="1001" y="-62" font-family="Helvetica,sans-Serif" font-size="10.00">AH/Math/FixArduinoMacros.hpp</text>
</a>
</g>
</g>
<!-- Node10&#45;&gt;Node11 -->
<g id="edge10_Node000010_Node000011" class="edge">
<title>Node10&#45;&gt;Node11</title>
<g id="a_edge10_Node000010_Node000011"><a xlink:title=" ">
<path fill="none" stroke="#63b8ff" d="M1015.19,-109.75C1012.94,-102.72 1009.7,-92.62 1006.88,-83.84"/>
<polygon fill="#63b8ff" stroke="#63b8ff" points="1010.14,-82.54 1003.75,-74.09 1003.48,-84.68 1010.14,-82.54"/>
</a>
</g>
</g>
<!-- Node10&#45;&gt;Node14 -->
<g id="edge13_Node000010_Node000014" class="edge">
<title>Node10&#45;&gt;Node14</title>
<g id="a_edge13_Node000010_Node000014"><a xlink:title=" ">
<path fill="none" stroke="#63b8ff" d="M951.97,-109.98C878.67,-100.53 760.57,-85.3 683.36,-75.35"/>
<polygon fill="#63b8ff" stroke="#63b8ff" points="683.58,-71.85 673.21,-74.04 682.68,-78.79 683.58,-71.85"/>
</a>
</g>
</g>
<!-- Node12 -->
<g id="Node000012" class="node">
<title>Node12</title>
<g id="a_Node000012"><a xlink:href="../../d1/d65/Warnings_8hpp.html" target="_top" xlink:title=" ">
<polygon fill="white" stroke="#666666" points="949.5,-19 806.5,-19 806.5,0 949.5,0 949.5,-19"/>
<text text-anchor="middle" x="878" y="-7" font-family="Helvetica,sans-Serif" font-size="10.00">AH/Settings/Warnings.hpp</text>
</a>
</g>
</g>
<!-- Node11&#45;&gt;Node12 -->
<g id="edge11_Node000011_Node000012" class="edge">
<title>Node11&#45;&gt;Node12</title>
<g id="a_edge11_Node000011_Node000012"><a xlink:title=" ">
<path fill="none" stroke="#63b8ff" d="M981.24,-54.98C961.27,-46.38 930.2,-32.99 907.35,-23.15"/>
<polygon fill="#63b8ff" stroke="#63b8ff" points="908.69,-19.91 898.12,-19.17 905.92,-26.34 908.69,-19.91"/>
</a>
</g>
</g>
<!-- Node11&#45;&gt;Node13 -->
<g id="edge12_Node000011_Node000013" class="edge">
<title>Node11&#45;&gt;Node13</title>
<g id="a_edge12_Node000011_Node000013"><a xlink:title=" ">
<path fill="none" stroke="#63b8ff" d="M1010,-54.98C1018.19,-47.23 1030.51,-35.58 1040.47,-26.14"/>
<polygon fill="#63b8ff" stroke="#63b8ff" points="1042.98,-28.59 1047.84,-19.17 1038.17,-23.5 1042.98,-28.59"/>
</a>
</g>
</g>
<!-- Node14&#45;&gt;Node12 -->
<g id="edge14_Node000014_Node000012" class="edge">
<title>Node14&#45;&gt;Node12</title>
<g id="a_edge14_Node000014_Node000012"><a xlink:title=" ">
<path fill="none" stroke="#63b8ff" d="M650.54,-54.98C697.81,-45.74 773.35,-30.97 824.28,-21.01"/>
<polygon fill="#63b8ff" stroke="#63b8ff" points="824.98,-24.44 834.12,-19.08 823.63,-17.57 824.98,-24.44"/>
</a>
</g>
</g>
<!-- Node17&#45;&gt;Node7 -->
<g id="edge30_Node000017_Node000007" class="edge">
<title>Node17&#45;&gt;Node7</title>
<g id="a_edge30_Node000017_Node000007"><a xlink:title=" ">
<path fill="none" stroke="#63b8ff" d="M803.71,-349.17C819.25,-357.37 840.44,-369.81 855.4,-379.42"/>
<polygon fill="#63b8ff" stroke="#63b8ff" points="853.54,-382.39 863.82,-384.98 857.4,-376.55 853.54,-382.39"/>
</a>
</g>
</g>
<!-- Node17&#45;&gt;Node14 -->
<g id="edge20_Node000017_Node000014" class="edge">
<title>Node17&#45;&gt;Node14</title>
<g id="a_edge20_Node000017_Node000014"><a xlink:title=" ">
<path fill="none" stroke="#63b8ff" d="M728.19,-329.93C704.35,-323.64 677.94,-312.76 660,-294 603.42,-234.83 603.02,-127.68 605.46,-84.39"/>
<polygon fill="#63b8ff" stroke="#63b8ff" points="608.95,-84.62 606.14,-74.4 601.97,-84.14 608.95,-84.62"/>
</a>
</g>
</g>
<!-- Node18 -->
<g id="Node000018" class="node">
<title>Node18</title>
<g id="a_Node000018"><a xlink:href="../../d5/d4f/AH_2Settings_2Settings_8hpp.html" target="_top" xlink:title="All user settings and debugging options can be changed here.">
<polygon fill="white" stroke="#666666" points="745.5,-294 668.5,-294 668.5,-275 745.5,-275 745.5,-294"/>
<text text-anchor="middle" x="707" y="-282" font-family="Helvetica,sans-Serif" font-size="10.00">Settings.hpp</text>
</a>
</g>
</g>
<!-- Node17&#45;&gt;Node18 -->
<g id="edge21_Node000017_Node000018" class="edge">
<title>Node17&#45;&gt;Node18</title>
<g id="a_edge21_Node000017_Node000018"><a xlink:title=" ">
<path fill="none" stroke="#63b8ff" d="M771.63,-329.98C759.91,-321.92 742.08,-309.65 728.11,-300.03"/>
<polygon fill="#63b8ff" stroke="#63b8ff" points="729.82,-296.96 719.6,-294.17 725.85,-302.72 729.82,-296.96"/>
</a>
</g>
</g>
<!-- Node24 -->
<g id="Node000024" class="node">
<title>Node24</title>
<g id="a_Node000024"><a xlink:href="../../d9/d98/TeensyUSBTypes_8hpp.html" target="_top" xlink:title=" ">
<polygon fill="white" stroke="#666666" points="975.5,-294 802.5,-294 802.5,-275 975.5,-275 975.5,-294"/>
<text text-anchor="middle" x="889" y="-282" font-family="Helvetica,sans-Serif" font-size="10.00">AH/Teensy/TeensyUSBTypes.hpp</text>
</a>
</g>
</g>
<!-- Node17&#45;&gt;Node24 -->
<g id="edge29_Node000017_Node000024" class="edge">
<title>Node17&#45;&gt;Node24</title>
<g id="a_edge29_Node000017_Node000024"><a xlink:title=" ">
<path fill="none" stroke="#63b8ff" d="M800.87,-329.98C817.61,-321.54 843.5,-308.47 862.89,-298.68"/>
<polygon fill="#63b8ff" stroke="#63b8ff" points="864.47,-301.8 871.82,-294.17 861.32,-295.55 864.47,-301.8"/>
</a>
</g>
</g>
<!-- Node19 -->
<g id="Node000019" class="node">
<title>Node19</title>
<g id="a_Node000019"><a xlink:href="../../dc/d50/Frequency_8hpp.html" target="_top" xlink:title=" ">
<polygon fill="white" stroke="#666666" points="769,-184 635,-184 635,-165 769,-165 769,-184"/>
<text text-anchor="middle" x="702" y="-172" font-family="Helvetica,sans-Serif" font-size="10.00">AH/Types/Frequency.hpp</text>
</a>
</g>
</g>
<!-- Node18&#45;&gt;Node19 -->
<g id="edge22_Node000018_Node000019" class="edge">
<title>Node18&#45;&gt;Node19</title>
<g id="a_edge22_Node000018_Node000019"><a xlink:title=" ">
<path fill="none" stroke="#63b8ff" d="M706.05,-274.98C705.09,-266.04 703.66,-251.55 703,-239 702.21,-223.99 701.98,-206.97 701.93,-194.33"/>
<polygon fill="#63b8ff" stroke="#63b8ff" points="705.43,-194.14 701.93,-184.13 698.43,-194.13 705.43,-194.14"/>
</a>
</g>
</g>
<!-- Node20 -->
<g id="Node000020" class="node">
<title>Node20</title>
<g id="a_Node000020"><a xlink:href="../../d7/d7c/ADCConfig_8hpp.html" target="_top" xlink:title="This file contains the platform&#45;specific ADC resolutions.">
<polygon fill="white" stroke="#666666" points="939.5,-239 782.5,-239 782.5,-220 939.5,-220 939.5,-239"/>
<text text-anchor="middle" x="861" y="-227" font-family="Helvetica,sans-Serif" font-size="10.00">AH/Hardware/ADCConfig.hpp</text>
</a>
</g>
</g>
<!-- Node18&#45;&gt;Node20 -->
<g id="edge24_Node000018_Node000020" class="edge">
<title>Node18&#45;&gt;Node20</title>
<g id="a_edge24_Node000018_Node000020"><a xlink:title=" ">
<path fill="none" stroke="#63b8ff" d="M731.74,-274.98C757.37,-266.16 797.63,-252.31 826.41,-242.41"/>
<polygon fill="#63b8ff" stroke="#63b8ff" points="827.75,-245.65 836.06,-239.08 825.47,-239.03 827.75,-245.65"/>
</a>
</g>
</g>
<!-- Node21 -->
<g id="Node000021" class="node">
<title>Node21</title>
<g id="a_Node000021"><a xlink:title=" ">
<polygon fill="#e0e0e0" stroke="#999999" points="764.5,-239 711.5,-239 711.5,-220 764.5,-220 764.5,-239"/>
<text text-anchor="middle" x="738" y="-227" font-family="Helvetica,sans-Serif" font-size="10.00">limits.h</text>
</a>
</g>
</g>
<!-- Node18&#45;&gt;Node21 -->
<g id="edge26_Node000018_Node000021" class="edge">
<title>Node18&#45;&gt;Node21</title>
<g id="a_edge26_Node000018_Node000021"><a xlink:title=" ">
<path fill="none" stroke="#63b8ff" d="M712.12,-274.75C716.36,-267.49 722.53,-256.95 727.78,-247.98"/>
<polygon fill="#63b8ff" stroke="#63b8ff" points="730.95,-249.49 732.98,-239.09 724.91,-245.95 730.95,-249.49"/>
</a>
</g>
</g>
<!-- Node18&#45;&gt;Node22 -->
<g id="edge27_Node000018_Node000022" class="edge">
<title>Node18&#45;&gt;Node22</title>
<g id="a_edge27_Node000018_Node000022"><a xlink:title=" ">
<path fill="none" stroke="#63b8ff" d="M745.66,-276.93C791.56,-269.01 870.64,-255 947.85,-239.17"/>
<polygon fill="#63b8ff" stroke="#63b8ff" points="948.66,-242.57 957.75,-237.13 947.25,-235.72 948.66,-242.57"/>
</a>
</g>
</g>
<!-- Node18&#45;&gt;Node23 -->
<g id="edge28_Node000018_Node000023" class="edge">
<title>Node18&#45;&gt;Node23</title>
<g id="a_edge28_Node000018_Node000023"><a xlink:title=" ">
<path fill="none" stroke="#63b8ff" d="M669.08,-274.98C624.69,-265.02 551.67,-248.62 507.78,-238.76"/>
<polygon fill="#63b8ff" stroke="#63b8ff" points="508.34,-235.3 497.81,-236.52 506.8,-242.13 508.34,-235.3"/>
</a>
</g>
</g>
<!-- Node19&#45;&gt;Node14 -->
<g id="edge23_Node000019_Node000014" class="edge">
<title>Node19&#45;&gt;Node14</title>
<g id="a_edge23_Node000019_Node000014"><a xlink:title=" ">
<path fill="none" stroke="#63b8ff" d="M694.23,-164.66C678.28,-146.54 641.67,-104.91 621.31,-81.77"/>
<polygon fill="#63b8ff" stroke="#63b8ff" points="623.85,-79.36 614.62,-74.16 618.59,-83.98 623.85,-79.36"/>
</a>
</g>
</g>
<!-- Node20&#45;&gt;Node9 -->
<g id="edge25_Node000020_Node000009" class="edge">
<title>Node20&#45;&gt;Node9</title>
<g id="a_edge25_Node000020_Node000009"><a xlink:title=" ">
<path fill="none" stroke="#63b8ff" d="M866.28,-219.75C870.71,-212.42 877.16,-201.73 882.62,-192.7"/>
<polygon fill="#63b8ff" stroke="#63b8ff" points="885.64,-194.46 887.81,-184.09 879.65,-190.84 885.64,-194.46"/>
</a>
</g>
</g>
<!-- Node27&#45;&gt;Node14 -->
<g id="edge40_Node000027_Node000014" class="edge">
<title>Node27&#45;&gt;Node14</title>
<g id="a_edge40_Node000027_Node000014"><a xlink:title=" ">
<path fill="none" stroke="#63b8ff" d="M79.01,-555.39C60.11,-547.42 34.45,-533.81 19,-514 0.88,-490.77 0,-479.96 0,-450.5 0,-450.5 0,-450.5 0,-173.5 0,-123.36 325.14,-88.76 499.5,-73.82"/>
<polygon fill="#63b8ff" stroke="#63b8ff" points="499.81,-77.3 509.47,-72.97 499.21,-70.33 499.81,-77.3"/>
</a>
</g>
</g>
<!-- Node28 -->
<g id="Node000028" class="node">
<title>Node28</title>
<g id="a_Node000028"><a xlink:title=" ">
<polygon fill="#e0e0e0" stroke="#999999" points="216,-514 126,-514 126,-495 216,-495 216,-514"/>
<text text-anchor="middle" x="171" y="-502" font-family="Helvetica,sans-Serif" font-size="10.00">AH/STL/cstddef</text>
</a>
</g>
</g>
<!-- Node27&#45;&gt;Node28 -->
<g id="edge38_Node000027_Node000028" class="edge">
<title>Node27&#45;&gt;Node28</title>
<g id="a_edge38_Node000027_Node000028"><a xlink:title=" ">
<path fill="none" stroke="#63b8ff" d="M113.03,-555.37C123.58,-546.3 140.39,-531.84 153.19,-520.82"/>
<polygon fill="#63b8ff" stroke="#63b8ff" points="155.63,-523.34 160.93,-514.17 151.06,-518.04 155.63,-523.34"/>
</a>
</g>
</g>
<!-- Node29 -->
<g id="Node000029" class="node">
<title>Node29</title>
<g id="a_Node000029"><a xlink:title=" ">
<polygon fill="#e0e0e0" stroke="#999999" points="107.5,-514 28.5,-514 28.5,-495 107.5,-495 107.5,-514"/>
<text text-anchor="middle" x="68" y="-502" font-family="Helvetica,sans-Serif" font-size="10.00">AH/STL/tuple</text>
</a>
</g>
</g>
<!-- Node27&#45;&gt;Node29 -->
<g id="edge39_Node000027_Node000029" class="edge">
<title>Node27&#45;&gt;Node29</title>
<g id="a_edge39_Node000027_Node000029"><a xlink:title=" ">
<path fill="none" stroke="#63b8ff" d="M97.84,-555.37C92.77,-546.9 84.9,-533.74 78.51,-523.07"/>
<polygon fill="#63b8ff" stroke="#63b8ff" points="81.32,-520.95 73.19,-514.17 75.32,-524.55 81.32,-520.95"/>
</a>
</g>
</g>
<!-- Node32 -->
<g id="Node000032" class="node">
<title>Node32</title>
<g id="a_Node000032"><a xlink:href="../../d4/d57/ExtendedIOElement_8hpp.html" target="_top" xlink:title=" ">
<polygon fill="white" stroke="#666666" points="659,-756 525,-756 525,-737 659,-737 659,-756"/>
<text text-anchor="middle" x="592" y="-744" font-family="Helvetica,sans-Serif" font-size="10.00">ExtendedIOElement.hpp</text>
</a>
</g>
</g>
<!-- Node31&#45;&gt;Node32 -->
<g id="edge45_Node000031_Node000032" class="edge">
<title>Node31&#45;&gt;Node32</title>
<g id="a_edge45_Node000031_Node000032"><a xlink:title=" ">
<path fill="none" stroke="#63b8ff" d="M592,-791.75C592,-784.8 592,-774.85 592,-766.13"/>
<polygon fill="#63b8ff" stroke="#63b8ff" points="595.5,-766.09 592,-756.09 588.5,-766.09 595.5,-766.09"/>
</a>
</g>
</g>
<!-- Node38 -->
<g id="Node000038" class="node">
<title>Node38</title>
<g id="a_Node000038"><a xlink:href="../../d5/db6/ArrayHelpers_8hpp.html" target="_top" xlink:title=" ">
<polygon fill="white" stroke="#666666" points="1286,-574.5 1112,-574.5 1112,-555.5 1286,-555.5 1286,-574.5"/>
<text text-anchor="middle" x="1199" y="-562.5" font-family="Helvetica,sans-Serif" font-size="10.00">AH/Containers/ArrayHelpers.hpp</text>
</a>
</g>
</g>
<!-- Node31&#45;&gt;Node38 -->
<g id="edge60_Node000031_Node000038" class="edge">
<title>Node31&#45;&gt;Node38</title>
<g id="a_edge60_Node000031_Node000038"><a xlink:title=" ">
<path fill="none" stroke="#63b8ff" d="M614.32,-791.88C706.73,-756.18 1059.46,-619.91 1167.42,-578.2"/>
<polygon fill="#63b8ff" stroke="#63b8ff" points="1168.73,-581.45 1176.79,-574.58 1166.21,-574.92 1168.73,-581.45"/>
</a>
</g>
</g>
<!-- Node32&#45;&gt;Node2 -->
<g id="edge46_Node000032_Node000002" class="edge">
<title>Node32&#45;&gt;Node2</title>
<g id="a_edge46_Node000032_Node000002"><a xlink:title=" ">
<path fill="none" stroke="#63b8ff" d="M572.88,-736.98C553.65,-728.42 523.77,-715.11 501.69,-705.28"/>
<polygon fill="#63b8ff" stroke="#63b8ff" points="503.03,-702.04 492.47,-701.17 500.18,-708.44 503.03,-702.04"/>
</a>
</g>
</g>
<!-- Node32&#45;&gt;Node4 -->
<g id="edge59_Node000032_Node000004" class="edge">
<title>Node32&#45;&gt;Node4</title>
<g id="a_edge59_Node000032_Node000004"><a xlink:title=" ">
<path fill="none" stroke="#63b8ff" d="M591.42,-736.84C589.66,-710.54 584.34,-630.9 581.63,-590.33"/>
<polygon fill="#63b8ff" stroke="#63b8ff" points="585.11,-589.97 580.95,-580.22 578.13,-590.43 585.11,-589.97"/>
</a>
</g>
</g>
<!-- Node33 -->
<g id="Node000033" class="node">
<title>Node33</title>
<g id="a_Node000033"><a xlink:href="../../d4/d93/Updatable_8hpp.html" target="_top" xlink:title=" ">
<polygon fill="white" stroke="#666666" points="970.5,-514 809.5,-514 809.5,-495 970.5,-495 970.5,-514"/>
<text text-anchor="middle" x="890" y="-502" font-family="Helvetica,sans-Serif" font-size="10.00">AH/Containers/Updatable.hpp</text>
</a>
</g>
</g>
<!-- Node32&#45;&gt;Node33 -->
<g id="edge47_Node000032_Node000033" class="edge">
<title>Node32&#45;&gt;Node33</title>
<g id="a_edge47_Node000032_Node000033"><a xlink:title=" ">
<path fill="none" stroke="#63b8ff" d="M602.61,-736.96C646.5,-701.61 814.3,-566.47 871.08,-520.73"/>
<polygon fill="#63b8ff" stroke="#63b8ff" points="873.62,-523.19 879.21,-514.19 869.23,-517.74 873.62,-523.19"/>
</a>
</g>
</g>
<!-- Node33&#45;&gt;Node6 -->
<g id="edge54_Node000033_Node000006" class="edge">
<title>Node33&#45;&gt;Node6</title>
<g id="a_edge54_Node000033_Node000006"><a xlink:title=" ">
<path fill="none" stroke="#63b8ff" d="M862.37,-494.98C833.49,-486.09 787.99,-472.07 755.8,-462.15"/>
<polygon fill="#63b8ff" stroke="#63b8ff" points="756.44,-458.68 745.85,-459.08 754.38,-465.37 756.44,-458.68"/>
</a>
</g>
</g>
<!-- Node33&#45;&gt;Node15 -->
<g id="edge55_Node000033_Node000015" class="edge">
<title>Node33&#45;&gt;Node15</title>
<g id="a_edge55_Node000033_Node000015"><a xlink:title=" ">
<path fill="none" stroke="#63b8ff" d="M876.64,-494.94C863.15,-486.19 841.83,-472.08 824,-459 792.38,-435.8 713.91,-376.55 686,-349 663.52,-326.81 659.8,-319.38 641,-294 599.76,-238.32 555.41,-169.02 535.6,-137.51"/>
<polygon fill="#63b8ff" stroke="#63b8ff" points="538.55,-135.62 530.27,-129 532.62,-139.34 538.55,-135.62"/>
</a>
</g>
</g>
<!-- Node33&#45;&gt;Node17 -->
<g id="edge57_Node000033_Node000017" class="edge">
<title>Node33&#45;&gt;Node17</title>
<g id="a_edge57_Node000033_Node000017"><a xlink:title=" ">
<path fill="none" stroke="#63b8ff" d="M880.29,-494.88C862.66,-478.73 825.25,-442.08 804,-404 796.16,-389.95 790.93,-372.4 787.79,-359.31"/>
<polygon fill="#63b8ff" stroke="#63b8ff" points="791.13,-358.18 785.56,-349.16 784.29,-359.68 791.13,-358.18"/>
</a>
</g>
</g>
<!-- Node33&#45;&gt;Node22 -->
<g id="edge58_Node000033_Node000022" class="edge">
<title>Node33&#45;&gt;Node22</title>
<g id="a_edge58_Node000033_Node000022"><a xlink:title=" ">
<path fill="none" stroke="#63b8ff" d="M970.61,-496.31C994.17,-490.01 1017.47,-478.78 1032,-459 1044.53,-441.95 1005.88,-300.24 991.32,-248.94"/>
<polygon fill="#63b8ff" stroke="#63b8ff" points="994.64,-247.85 988.53,-239.2 987.91,-249.77 994.64,-247.85"/>
</a>
</g>
</g>
<!-- Node34 -->
<g id="Node000034" class="node">
<title>Node34</title>
<g id="a_Node000034"><a xlink:href="../../d4/dba/CRTP_8hpp.html" target="_top" xlink:title=" ">
<polygon fill="white" stroke="#666666" points="1314,-459 1180,-459 1180,-440 1314,-440 1314,-459"/>
<text text-anchor="middle" x="1247" y="-447" font-family="Helvetica,sans-Serif" font-size="10.00">AH/Containers/CRTP.hpp</text>
</a>
</g>
</g>
<!-- Node33&#45;&gt;Node34 -->
<g id="edge48_Node000033_Node000034" class="edge">
<title>Node33&#45;&gt;Node34</title>
<g id="a_edge48_Node000033_Node000034"><a xlink:title=" ">
<path fill="none" stroke="#63b8ff" d="M947.36,-494.98C1010.63,-485.59 1112.36,-470.49 1179.44,-460.53"/>
<polygon fill="#63b8ff" stroke="#63b8ff" points="1180.11,-463.97 1189.49,-459.04 1179.08,-457.04 1180.11,-463.97"/>
</a>
</g>
</g>
<!-- Node35 -->
<g id="Node000035" class="node">
<title>Node35</title>
<g id="a_Node000035"><a xlink:href="../../de/dd1/LinkedList_8hpp.html" target="_top" xlink:title=" ">
<polygon fill="white" stroke="#666666" points="1022.5,-459 863.5,-459 863.5,-440 1022.5,-440 1022.5,-459"/>
<text text-anchor="middle" x="943" y="-447" font-family="Helvetica,sans-Serif" font-size="10.00">AH/Containers/LinkedList.hpp</text>
</a>
</g>
</g>
<!-- Node33&#45;&gt;Node35 -->
<g id="edge49_Node000033_Node000035" class="edge">
<title>Node33&#45;&gt;Node35</title>
<g id="a_edge49_Node000033_Node000035"><a xlink:title=" ">
<path fill="none" stroke="#63b8ff" d="M898.75,-494.75C906.47,-487.03 917.9,-475.6 927.22,-466.28"/>
<polygon fill="#63b8ff" stroke="#63b8ff" points="929.81,-468.64 934.41,-459.09 924.86,-463.69 929.81,-468.64"/>
</a>
</g>
</g>
<!-- Node37 -->
<g id="Node000037" class="node">
<title>Node37</title>
<g id="a_Node000037"><a xlink:title=" ">
<polygon fill="#e0e0e0" stroke="#999999" points="1161.5,-459 1078.5,-459 1078.5,-440 1161.5,-440 1161.5,-459"/>
<text text-anchor="middle" x="1120" y="-447" font-family="Helvetica,sans-Serif" font-size="10.00">AH/STL/utility</text>
</a>
</g>
</g>
<!-- Node33&#45;&gt;Node37 -->
<g id="edge56_Node000033_Node000037" class="edge">
<title>Node33&#45;&gt;Node37</title>
<g id="a_edge56_Node000033_Node000037"><a xlink:title=" ">
<path fill="none" stroke="#63b8ff" d="M926.95,-494.98C966.57,-485.86 1029.59,-471.33 1072.77,-461.38"/>
<polygon fill="#63b8ff" stroke="#63b8ff" points="1073.8,-464.74 1082.76,-459.08 1072.23,-457.92 1073.8,-464.74"/>
</a>
</g>
</g>
<!-- Node35&#45;&gt;Node7 -->
<g id="edge50_Node000035_Node000007" class="edge">
<title>Node35&#45;&gt;Node7</title>
<g id="a_edge50_Node000035_Node000007"><a xlink:title=" ">
<path fill="none" stroke="#63b8ff" d="M931.75,-439.98C921.2,-432 905.2,-419.88 892.56,-410.31"/>
<polygon fill="#63b8ff" stroke="#63b8ff" points="894.54,-407.42 884.45,-404.17 890.31,-413 894.54,-407.42"/>
</a>
</g>
</g>
<!-- Node35&#45;&gt;Node10 -->
<g id="edge51_Node000035_Node000010" class="edge">
<title>Node35&#45;&gt;Node10</title>
<g id="a_edge51_Node000035_Node000010"><a xlink:title=" ">
<path fill="none" stroke="#63b8ff" d="M1022.63,-441.17C1109.53,-428.23 1243.19,-392.49 1295,-294 1344.43,-200.02 1173.59,-150.73 1078.09,-131.01"/>
<polygon fill="#63b8ff" stroke="#63b8ff" points="1078.74,-127.57 1068.25,-129.03 1077.36,-134.43 1078.74,-127.57"/>
</a>
</g>
</g>
<!-- Node35&#45;&gt;Node26 -->
<g id="edge53_Node000035_Node000026" class="edge">
<title>Node35&#45;&gt;Node26</title>
<g id="a_edge53_Node000035_Node000026"><a xlink:title=" ">
<path fill="none" stroke="#63b8ff" d="M899.62,-439.98C852.62,-430.76 777.57,-416.03 726.84,-406.07"/>
<polygon fill="#63b8ff" stroke="#63b8ff" points="727.21,-402.57 716.72,-404.08 725.86,-409.44 727.21,-402.57"/>
</a>
</g>
</g>
<!-- Node36 -->
<g id="Node000036" class="node">
<title>Node36</title>
<g id="a_Node000036"><a xlink:title=" ">
<polygon fill="#e0e0e0" stroke="#999999" points="1004.5,-404 951.5,-404 951.5,-385 1004.5,-385 1004.5,-404"/>
<text text-anchor="middle" x="978" y="-392" font-family="Helvetica,sans-Serif" font-size="10.00">stdlib.h</text>
</a>
</g>
</g>
<!-- Node35&#45;&gt;Node36 -->
<g id="edge52_Node000035_Node000036" class="edge">
<title>Node35&#45;&gt;Node36</title>
<g id="a_edge52_Node000035_Node000036"><a xlink:title=" ">
<path fill="none" stroke="#63b8ff" d="M948.78,-439.75C953.62,-432.42 960.68,-421.73 966.64,-412.7"/>
<polygon fill="#63b8ff" stroke="#63b8ff" points="969.74,-414.36 972.33,-404.09 963.9,-410.5 969.74,-414.36"/>
</a>
</g>
</g>
<!-- Node38&#45;&gt;Node5 -->
<g id="edge61_Node000038_Node000005" class="edge">
<title>Node38&#45;&gt;Node5</title>
<g id="a_edge61_Node000038_Node000005"><a xlink:title=" ">
<path fill="none" stroke="#63b8ff" d="M1116.12,-555.49C1006.34,-544.23 814.14,-524.5 706.92,-513.5"/>
<polygon fill="#63b8ff" stroke="#63b8ff" points="707.12,-510 696.81,-512.46 706.4,-516.96 707.12,-510"/>
</a>
</g>
</g>
<!-- Node38&#45;&gt;Node8 -->
<g id="edge63_Node000038_Node000008" class="edge">
<title>Node38&#45;&gt;Node8</title>
<g id="a_edge63_Node000038_Node000008"><a xlink:title=" ">
<path fill="none" stroke="#63b8ff" d="M1220.79,-555.38C1264.22,-536.87 1354.78,-490.86 1323,-440 1291.45,-389.51 1226.08,-363.96 1177.8,-351.5"/>
<polygon fill="#63b8ff" stroke="#63b8ff" points="1178.63,-348.1 1168.09,-349.1 1176.96,-354.89 1178.63,-348.1"/>
</a>
</g>
</g>
<!-- Node39 -->
<g id="Node000039" class="node">
<title>Node39</title>
<g id="a_Node000039"><a xlink:title=" ">
<polygon fill="#e0e0e0" stroke="#999999" points="1471.5,-514 1370.5,-514 1370.5,-495 1471.5,-495 1471.5,-514"/>
<text text-anchor="middle" x="1421" y="-502" font-family="Helvetica,sans-Serif" font-size="10.00">AH/STL/algorithm</text>
</a>
</g>
</g>
<!-- Node38&#45;&gt;Node39 -->
<g id="edge62_Node000038_Node000039" class="edge">
<title>Node38&#45;&gt;Node39</title>
<g id="a_edge62_Node000038_Node000039"><a xlink:title=" ">
<path fill="none" stroke="#63b8ff" d="M1231.28,-555.49C1270.25,-545.23 1335.88,-527.93 1378.82,-516.62"/>
<polygon fill="#63b8ff" stroke="#63b8ff" points="1379.9,-519.95 1388.68,-514.02 1378.12,-513.18 1379.9,-519.95"/>
</a>
</g>
</g>
<!-- Node40&#45;&gt;Node6 -->
<g id="edge65_Node000040_Node000006" class="edge">
<title>Node40&#45;&gt;Node6</title>
<g id="a_edge65_Node000040_Node000006"><a xlink:title=" ">
<path fill="none" stroke="#63b8ff" d="M405.77,-494.98C474.38,-485.21 586.38,-469.25 655.94,-459.34"/>
<polygon fill="#63b8ff" stroke="#63b8ff" points="656.48,-462.8 665.89,-457.92 655.49,-455.87 656.48,-462.8"/>
</a>
</g>
</g>
<!-- Node40&#45;&gt;Node14 -->
<g id="edge66_Node000040_Node000014" class="edge">
<title>Node40&#45;&gt;Node14</title>
<g id="a_edge66_Node000040_Node000014"><a xlink:title=" ">
<path fill="none" stroke="#63b8ff" d="M347.75,-494.86C351.3,-476.6 359,-432.7 359,-395.5 359,-395.5 359,-395.5 359,-173.5 359,-108.17 432.23,-81.95 499.1,-71.63"/>
<polygon fill="#63b8ff" stroke="#63b8ff" points="499.94,-75.04 509.34,-70.16 498.94,-68.11 499.94,-75.04"/>
</a>
</g>
</g>
<!-- Node40&#45;&gt;Node23 -->
<g id="edge67_Node000040_Node000023" class="edge">
<title>Node40&#45;&gt;Node23</title>
<g id="a_edge67_Node000040_Node000023"><a xlink:title=" ">
<path fill="none" stroke="#63b8ff" d="M363.77,-494.95C392.99,-479.5 448,-443.99 448,-395.5 448,-395.5 448,-395.5 448,-338.5 448,-306.34 457.88,-269.95 464.69,-248.69"/>
<polygon fill="#63b8ff" stroke="#63b8ff" points="468.06,-249.64 467.9,-239.05 461.42,-247.43 468.06,-249.64"/>
</a>
</g>
</g>
</g>
</svg>
