<?xml version="1.0" encoding="UTF-8" standalone="no"?>
<!DOCTYPE svg PUBLIC "-//W3C//DTD SVG 1.1//EN"
 "http://www.w3.org/Graphics/SVG/1.1/DTD/svg11.dtd">
<!-- Generated by graphviz version 2.43.0 (0)
 -->
<!-- Title: BorrowedCCRotaryEncoder Pages: 1 -->
<svg width="530pt" height="893pt"
 viewBox="0.00 0.00 529.50 893.00" xmlns="http://www.w3.org/2000/svg" xmlns:xlink="http://www.w3.org/1999/xlink">
<g id="graph0" class="graph" transform="scale(1 1) rotate(0) translate(4 889)">
<title>BorrowedCCRotaryEncoder</title>
<!-- Node1 -->
<g id="Node000001" class="node">
<title>Node1</title>
<g id="a_Node000001"><a xlink:title="A class of MIDIOutputElements that read the input of a quadrature (rotary) encoder and send out relat...">
<polygon fill="#999999" stroke="transparent" points="160,-49 0,-49 0,0 160,0 160,-49"/>
<text text-anchor="start" x="14" y="-36.5" font-family="Helvetica,sans-Serif" font-size="10.00">BorrowedCCRotaryEncoder</text>
<text text-anchor="start" x="78" y="-21.5" font-family="Helvetica,sans-Serif" font-size="10.00"> </text>
<text text-anchor="start" x="4" y="-6.5" font-family="Helvetica,sans-Serif" font-size="10.00">+</text>
<text text-anchor="start" x="17" y="-6.5" font-family="Helvetica,sans-Serif" font-size="10.00">BorrowedCCRotaryEncoder()</text>
<polygon fill="#666666" stroke="#666666" points="0,-31.5 0,-31.5 160,-31.5 160,-31.5 0,-31.5"/>
<polygon fill="#666666" stroke="#666666" points="0,-16.5 0,-16.5 160,-16.5 160,-16.5 0,-16.5"/>
<polygon fill="none" stroke="#666666" points="0,0 0,-49 160,-49 160,0 0,0"/>
</a>
</g>
</g>
<!-- Node2 -->
<g id="Node000002" class="node">
<title>Node2</title>
<g id="a_Node000002"><a xlink:href="../../d0/d9e/classGenericMIDIRotaryEncoder.html" target="_top" xlink:title=" ">
<polygon fill="white" stroke="transparent" points="160,-431 0,-431 0,-86 160,-86 160,-431"/>
<text text-anchor="start" x="9.5" y="-418.5" font-family="Helvetica,sans-Serif" font-size="10.00">BorrowedMIDIRotaryEncoder</text>
<text text-anchor="start" x="24.5" y="-407.5" font-family="Helvetica,sans-Serif" font-size="10.00">&lt; RelativeCCSender &gt;</text>
<text text-anchor="start" x="4" y="-392.5" font-family="Helvetica,sans-Serif" font-size="10.00">+</text>
<text text-anchor="start" x="17" y="-392.5" font-family="Helvetica,sans-Serif" font-size="10.00">sender</text>
<text text-anchor="start" x="4" y="-377.5" font-family="Helvetica,sans-Serif" font-size="10.00">#</text>
<text text-anchor="start" x="17" y="-377.5" font-family="Helvetica,sans-Serif" font-size="10.00">next</text>
<text text-anchor="start" x="4" y="-362.5" font-family="Helvetica,sans-Serif" font-size="10.00">#</text>
<text text-anchor="start" x="17" y="-362.5" font-family="Helvetica,sans-Serif" font-size="10.00">previous</text>
<text text-anchor="start" x="4" y="-347.5" font-family="Helvetica,sans-Serif" font-size="10.00">#</text>
<text text-anchor="start" x="17" y="-347.5" font-family="Helvetica,sans-Serif" font-size="10.00">updatables</text>
<text text-anchor="start" x="6.5" y="-332.5" font-family="Helvetica,sans-Serif" font-size="10.00">&#45;</text>
<text text-anchor="start" x="17" y="-332.5" font-family="Helvetica,sans-Serif" font-size="10.00">encoder</text>
<text text-anchor="start" x="6.5" y="-317.5" font-family="Helvetica,sans-Serif" font-size="10.00">&#45;</text>
<text text-anchor="start" x="17" y="-317.5" font-family="Helvetica,sans-Serif" font-size="10.00">address</text>
<text text-anchor="start" x="6.5" y="-302.5" font-family="Helvetica,sans-Serif" font-size="10.00">&#45;</text>
<text text-anchor="start" x="17" y="-302.5" font-family="Helvetica,sans-Serif" font-size="10.00">encstate</text>
<text text-anchor="start" x="4" y="-287.5" font-family="Helvetica,sans-Serif" font-size="10.00">+</text>
<text text-anchor="start" x="17" y="-287.5" font-family="Helvetica,sans-Serif" font-size="10.00">GenericMIDIRotaryEncoder()</text>
<text text-anchor="start" x="4" y="-272.5" font-family="Helvetica,sans-Serif" font-size="10.00">+</text>
<text text-anchor="start" x="17" y="-272.5" font-family="Helvetica,sans-Serif" font-size="10.00">begin()</text>
<text text-anchor="start" x="4" y="-257.5" font-family="Helvetica,sans-Serif" font-size="10.00">+</text>
<text text-anchor="start" x="17" y="-257.5" font-family="Helvetica,sans-Serif" font-size="10.00">update()</text>
<text text-anchor="start" x="4" y="-242.5" font-family="Helvetica,sans-Serif" font-size="10.00">+</text>
<text text-anchor="start" x="17" y="-242.5" font-family="Helvetica,sans-Serif" font-size="10.00">setSpeedMultiply()</text>
<text text-anchor="start" x="4" y="-227.5" font-family="Helvetica,sans-Serif" font-size="10.00">+</text>
<text text-anchor="start" x="17" y="-227.5" font-family="Helvetica,sans-Serif" font-size="10.00">getSpeedMultiply()</text>
<text text-anchor="start" x="4" y="-212.5" font-family="Helvetica,sans-Serif" font-size="10.00">+</text>
<text text-anchor="start" x="17" y="-212.5" font-family="Helvetica,sans-Serif" font-size="10.00">getAddress()</text>
<text text-anchor="start" x="4" y="-197.5" font-family="Helvetica,sans-Serif" font-size="10.00">+</text>
<text text-anchor="start" x="17" y="-197.5" font-family="Helvetica,sans-Serif" font-size="10.00">setAddress()</text>
<text text-anchor="start" x="4" y="-182.5" font-family="Helvetica,sans-Serif" font-size="10.00">+</text>
<text text-anchor="start" x="17" y="-182.5" font-family="Helvetica,sans-Serif" font-size="10.00">resetPositionOffset()</text>
<text text-anchor="start" x="5.5" y="-167.5" font-family="Helvetica,sans-Serif" font-size="10.00">*</text>
<text text-anchor="start" x="17" y="-167.5" font-family="Helvetica,sans-Serif" font-size="10.00">enable()</text>
<text text-anchor="start" x="5.5" y="-152.5" font-family="Helvetica,sans-Serif" font-size="10.00">*</text>
<text text-anchor="start" x="17" y="-152.5" font-family="Helvetica,sans-Serif" font-size="10.00">disable()</text>
<text text-anchor="start" x="5.5" y="-137.5" font-family="Helvetica,sans-Serif" font-size="10.00">*</text>
<text text-anchor="start" x="17" y="-137.5" font-family="Helvetica,sans-Serif" font-size="10.00">isEnabled()</text>
<text text-anchor="start" x="5.5" y="-122.5" font-family="Helvetica,sans-Serif" font-size="10.00">*</text>
<text text-anchor="start" x="17" y="-122.5" font-family="Helvetica,sans-Serif" font-size="10.00">moveDown()</text>
<text text-anchor="start" x="5.5" y="-107.5" font-family="Helvetica,sans-Serif" font-size="10.00">*</text>
<text text-anchor="start" x="17" y="-107.5" font-family="Helvetica,sans-Serif" font-size="10.00">beginAll()</text>
<text text-anchor="start" x="5.5" y="-92.5" font-family="Helvetica,sans-Serif" font-size="10.00">*</text>
<text text-anchor="start" x="17" y="-92.5" font-family="Helvetica,sans-Serif" font-size="10.00">updateAll()</text>
<polygon fill="#666666" stroke="#666666" points="0,-402.5 0,-402.5 160,-402.5 160,-402.5 0,-402.5"/>
<polygon fill="#666666" stroke="#666666" points="0,-297.5 0,-297.5 15,-297.5 15,-297.5 0,-297.5"/>
<polygon fill="#666666" stroke="#666666" points="15,-297.5 15,-297.5 160,-297.5 160,-297.5 15,-297.5"/>
<polygon fill="none" stroke="#666666" points="0,-86 0,-431 160,-431 160,-86 0,-86"/>
</a>
</g>
</g>
<!-- Node2&#45;&gt;Node1 -->
<g id="edge1_Node000001_Node000002" class="edge">
<title>Node2&#45;&gt;Node1</title>
<g id="a_edge1_Node000001_Node000002"><a xlink:title=" ">
<path fill="none" stroke="#63b8ff" d="M80,-75.63C80,-65.71 80,-56.76 80,-49.25"/>
<polygon fill="none" stroke="#63b8ff" points="76.5,-75.85 80,-85.85 83.5,-75.85 76.5,-75.85"/>
</a>
</g>
</g>
<!-- Node3 -->
<g id="Node000003" class="node">
<title>Node3</title>
<g id="a_Node000003"><a xlink:href="../../d1/d55/classAH_1_1Updatable.html" target="_top" xlink:title="A super class for object that have to be updated regularly.">
<polygon fill="white" stroke="transparent" points="133.5,-638 26.5,-638 26.5,-544 133.5,-544 133.5,-638"/>
<text text-anchor="start" x="32" y="-626" font-family="Helvetica,sans-Serif" font-size="10.00">MIDIOutputElement</text>
<text text-anchor="start" x="78.5" y="-611" font-family="Helvetica,sans-Serif" font-size="10.00"> </text>
<text text-anchor="start" x="39.5" y="-596" font-family="Helvetica,sans-Serif" font-size="10.00">*</text>
<text text-anchor="start" x="58" y="-596" font-family="Helvetica,sans-Serif" font-size="10.00">begin()</text>
<text text-anchor="start" x="39.5" y="-581" font-family="Helvetica,sans-Serif" font-size="10.00">*</text>
<text text-anchor="start" x="58" y="-581" font-family="Helvetica,sans-Serif" font-size="10.00">update()</text>
<text text-anchor="start" x="39.5" y="-566" font-family="Helvetica,sans-Serif" font-size="10.00">*</text>
<text text-anchor="start" x="58" y="-566" font-family="Helvetica,sans-Serif" font-size="10.00">beginAll()</text>
<text text-anchor="start" x="39.5" y="-551" font-family="Helvetica,sans-Serif" font-size="10.00">*</text>
<text text-anchor="start" x="58" y="-551" font-family="Helvetica,sans-Serif" font-size="10.00">updateAll()</text>
<polygon fill="#666666" stroke="#666666" points="27,-621 27,-621 134,-621 134,-621 27,-621"/>
<polygon fill="#666666" stroke="#666666" points="27,-606 27,-606 134,-606 134,-606 27,-606"/>
<polygon fill="none" stroke="#666666" points="26.5,-544 26.5,-638 133.5,-638 133.5,-544 26.5,-544"/>
</a>
</g>
</g>
<!-- Node3&#45;&gt;Node2 -->
<g id="edge2_Node000002_Node000003" class="edge">
<title>Node3&#45;&gt;Node2</title>
<g id="a_edge2_Node000002_Node000003"><a xlink:title=" ">
<path fill="none" stroke="#63b8ff" d="M80,-533.49C80,-504.78 80,-468.21 80,-431.19"/>
<polygon fill="none" stroke="#63b8ff" points="76.5,-533.7 80,-543.7 83.5,-533.7 76.5,-533.7"/>
</a>
</g>
</g>
<!-- Node4 -->
<g id="Node000004" class="node">
<title>Node4</title>
<g id="a_Node000004"><a xlink:href="../../d8/d1a/classAH_1_1UpdatableCRTP.html" target="_top" xlink:title=" ">
<polygon fill="white" stroke="transparent" points="329.5,-885 182.5,-885 182.5,-720 329.5,-720 329.5,-885"/>
<text text-anchor="start" x="188" y="-872.5" font-family="Helvetica,sans-Serif" font-size="10.00">UpdatableCRTP&lt; Updatable</text>
<text text-anchor="start" x="196" y="-861.5" font-family="Helvetica,sans-Serif" font-size="10.00">&lt; NormalUpdatable &gt; &gt;</text>
<text text-anchor="start" x="195.5" y="-846.5" font-family="Helvetica,sans-Serif" font-size="10.00">#</text>
<text text-anchor="start" x="217" y="-846.5" font-family="Helvetica,sans-Serif" font-size="10.00">next</text>
<text text-anchor="start" x="195.5" y="-831.5" font-family="Helvetica,sans-Serif" font-size="10.00">#</text>
<text text-anchor="start" x="217" y="-831.5" font-family="Helvetica,sans-Serif" font-size="10.00">previous</text>
<text text-anchor="start" x="195.5" y="-816.5" font-family="Helvetica,sans-Serif" font-size="10.00">+</text>
<text text-anchor="start" x="217" y="-816.5" font-family="Helvetica,sans-Serif" font-size="10.00">~UpdatableCRTP()</text>
<text text-anchor="start" x="195.5" y="-801.5" font-family="Helvetica,sans-Serif" font-size="10.00">#</text>
<text text-anchor="start" x="217" y="-801.5" font-family="Helvetica,sans-Serif" font-size="10.00">UpdatableCRTP()</text>
<text text-anchor="start" x="195.5" y="-786.5" font-family="Helvetica,sans-Serif" font-size="10.00">#</text>
<text text-anchor="start" x="217" y="-786.5" font-family="Helvetica,sans-Serif" font-size="10.00">operator=()</text>
<text text-anchor="start" x="197" y="-771.5" font-family="Helvetica,sans-Serif" font-size="10.00">*</text>
<text text-anchor="start" x="217" y="-771.5" font-family="Helvetica,sans-Serif" font-size="10.00">enable()</text>
<text text-anchor="start" x="197" y="-756.5" font-family="Helvetica,sans-Serif" font-size="10.00">*</text>
<text text-anchor="start" x="217" y="-756.5" font-family="Helvetica,sans-Serif" font-size="10.00">disable()</text>
<text text-anchor="start" x="197" y="-741.5" font-family="Helvetica,sans-Serif" font-size="10.00">*</text>
<text text-anchor="start" x="217" y="-741.5" font-family="Helvetica,sans-Serif" font-size="10.00">isEnabled()</text>
<text text-anchor="start" x="197" y="-726.5" font-family="Helvetica,sans-Serif" font-size="10.00">*</text>
<text text-anchor="start" x="217" y="-726.5" font-family="Helvetica,sans-Serif" font-size="10.00">moveDown()</text>
<polygon fill="#666666" stroke="#666666" points="183,-856.5 183,-856.5 330,-856.5 330,-856.5 183,-856.5"/>
<polygon fill="#666666" stroke="#666666" points="183,-826.5 183,-826.5 215,-826.5 215,-826.5 183,-826.5"/>
<polygon fill="#666666" stroke="#666666" points="215,-826.5 215,-826.5 330,-826.5 330,-826.5 215,-826.5"/>
<polygon fill="none" stroke="#666666" points="182.5,-720 182.5,-885 329.5,-885 329.5,-720 182.5,-720"/>
</a>
</g>
</g>
<!-- Node4&#45;&gt;Node3 -->
<g id="edge3_Node000003_Node000004" class="edge">
<title>Node4&#45;&gt;Node3</title>
<g id="a_edge3_Node000003_Node000004"><a xlink:title=" ">
<path fill="none" stroke="#63b8ff" d="M175.04,-723.57C168.43,-716.42 162,-709.18 156,-702 139.25,-681.96 122.55,-658.3 109.08,-638.06"/>
<polygon fill="none" stroke="#63b8ff" points="172.87,-726.37 182.26,-731.26 177.97,-721.58 172.87,-726.37"/>
</a>
</g>
</g>
<!-- Node6 -->
<g id="Node000006" class="node">
<title>Node6</title>
<g id="a_Node000006"><a xlink:href="../../d1/d55/classAH_1_1Updatable.html" target="_top" xlink:title=" ">
<polygon fill="white" stroke="transparent" points="427,-683 257,-683 257,-499 427,-499 427,-683"/>
<text text-anchor="start" x="262" y="-671" font-family="Helvetica,sans-Serif" font-size="10.00">Updatable&lt; NormalUpdatable &gt;</text>
<text text-anchor="start" x="282" y="-656" font-family="Helvetica,sans-Serif" font-size="10.00">#</text>
<text text-anchor="start" x="316" y="-656" font-family="Helvetica,sans-Serif" font-size="10.00">next</text>
<text text-anchor="start" x="282" y="-641" font-family="Helvetica,sans-Serif" font-size="10.00">#</text>
<text text-anchor="start" x="316" y="-641" font-family="Helvetica,sans-Serif" font-size="10.00">previous</text>
<text text-anchor="start" x="282" y="-626" font-family="Helvetica,sans-Serif" font-size="10.00">#</text>
<text text-anchor="start" x="316" y="-626" font-family="Helvetica,sans-Serif" font-size="10.00">updatables</text>
<text text-anchor="start" x="283.5" y="-611" font-family="Helvetica,sans-Serif" font-size="10.00">*</text>
<text text-anchor="start" x="316" y="-611" font-family="Helvetica,sans-Serif" font-size="10.00">begin()</text>
<text text-anchor="start" x="283.5" y="-596" font-family="Helvetica,sans-Serif" font-size="10.00">*</text>
<text text-anchor="start" x="316" y="-596" font-family="Helvetica,sans-Serif" font-size="10.00">update()</text>
<text text-anchor="start" x="283.5" y="-581" font-family="Helvetica,sans-Serif" font-size="10.00">*</text>
<text text-anchor="start" x="316" y="-581" font-family="Helvetica,sans-Serif" font-size="10.00">beginAll()</text>
<text text-anchor="start" x="283.5" y="-566" font-family="Helvetica,sans-Serif" font-size="10.00">*</text>
<text text-anchor="start" x="316" y="-566" font-family="Helvetica,sans-Serif" font-size="10.00">updateAll()</text>
<text text-anchor="start" x="283.5" y="-551" font-family="Helvetica,sans-Serif" font-size="10.00">*</text>
<text text-anchor="start" x="316" y="-551" font-family="Helvetica,sans-Serif" font-size="10.00">enable()</text>
<text text-anchor="start" x="283.5" y="-536" font-family="Helvetica,sans-Serif" font-size="10.00">*</text>
<text text-anchor="start" x="316" y="-536" font-family="Helvetica,sans-Serif" font-size="10.00">disable()</text>
<text text-anchor="start" x="283.5" y="-521" font-family="Helvetica,sans-Serif" font-size="10.00">*</text>
<text text-anchor="start" x="316" y="-521" font-family="Helvetica,sans-Serif" font-size="10.00">isEnabled()</text>
<text text-anchor="start" x="283.5" y="-506" font-family="Helvetica,sans-Serif" font-size="10.00">*</text>
<text text-anchor="start" x="316" y="-506" font-family="Helvetica,sans-Serif" font-size="10.00">moveDown()</text>
<polygon fill="#666666" stroke="#666666" points="257,-666 257,-666 427,-666 427,-666 257,-666"/>
<polygon fill="#666666" stroke="#666666" points="257,-621 257,-621 314,-621 314,-621 257,-621"/>
<polygon fill="#666666" stroke="#666666" points="314,-621 314,-621 427,-621 427,-621 314,-621"/>
<polygon fill="none" stroke="#666666" points="257,-499 257,-683 427,-683 427,-499 257,-499"/>
</a>
</g>
</g>
<!-- Node4&#45;&gt;Node6 -->
<g id="edge6_Node000006_Node000004" class="edge">
<title>Node4&#45;&gt;Node6</title>
<g id="a_edge6_Node000006_Node000004"><a xlink:title=" ">
<path fill="none" stroke="#63b8ff" d="M293.36,-710.5C297.09,-701.41 300.87,-692.19 304.6,-683.1"/>
<polygon fill="none" stroke="#63b8ff" points="290.06,-709.32 289.5,-719.9 296.53,-711.98 290.06,-709.32"/>
</a>
</g>
</g>
<!-- Node5 -->
<g id="Node000005" class="node">
<title>Node5</title>
<g id="a_Node000005"><a xlink:href="../../d4/d23/classDoublyLinkable.html" target="_top" xlink:title=" ">
<polygon fill="white" stroke="transparent" points="521.5,-303.5 374.5,-303.5 374.5,-213.5 521.5,-213.5 521.5,-303.5"/>
<text text-anchor="start" x="380" y="-291.5" font-family="Helvetica,sans-Serif" font-size="10.00">DoublyLinkable&lt; Updatable</text>
<text text-anchor="start" x="388" y="-280.5" font-family="Helvetica,sans-Serif" font-size="10.00">&lt; NormalUpdatable &gt; &gt;</text>
<text text-anchor="start" x="446.5" y="-265.5" font-family="Helvetica,sans-Serif" font-size="10.00"> </text>
<text text-anchor="start" x="387.5" y="-250.5" font-family="Helvetica,sans-Serif" font-size="10.00">#</text>
<text text-anchor="start" x="409" y="-250.5" font-family="Helvetica,sans-Serif" font-size="10.00">~DoublyLinkable()</text>
<text text-anchor="start" x="387.5" y="-235.5" font-family="Helvetica,sans-Serif" font-size="10.00">#</text>
<text text-anchor="start" x="409" y="-235.5" font-family="Helvetica,sans-Serif" font-size="10.00">DoublyLinkable()</text>
<text text-anchor="start" x="387.5" y="-220.5" font-family="Helvetica,sans-Serif" font-size="10.00">#</text>
<text text-anchor="start" x="409" y="-220.5" font-family="Helvetica,sans-Serif" font-size="10.00">operator=()</text>
<polygon fill="#666666" stroke="#666666" points="375,-275.5 375,-275.5 522,-275.5 522,-275.5 375,-275.5"/>
<polygon fill="#666666" stroke="#666666" points="375,-260.5 375,-260.5 522,-260.5 522,-260.5 375,-260.5"/>
<polygon fill="none" stroke="#666666" points="374.5,-213.5 374.5,-303.5 521.5,-303.5 521.5,-213.5 374.5,-213.5"/>
</a>
</g>
</g>
<!-- Node5&#45;&gt;Node4 -->
<g id="edge4_Node000004_Node000005" class="edge">
<title>Node5&#45;&gt;Node4</title>
<g id="a_edge4_Node000004_Node000005"><a xlink:title=" ">
<path fill="none" stroke="#63b8ff" d="M461.46,-313.74C479.37,-398.56 501.72,-565.08 436,-683 412.96,-724.34 368.74,-753.76 329.89,-772.95"/>
<polygon fill="none" stroke="#63b8ff" points="464.84,-312.84 459.3,-303.81 458,-314.32 464.84,-312.84"/>
</a>
</g>
</g>
<!-- Node6&#45;&gt;Node5 -->
<g id="edge5_Node000005_Node000006" class="edge">
<title>Node6&#45;&gt;Node5</title>
<g id="a_edge5_Node000005_Node000006"><a xlink:title=" ">
<path fill="none" stroke="#63b8ff" d="M368.63,-498.83C373.63,-482.22 378.9,-465.07 384,-449 398.33,-403.91 415.53,-353.13 428.49,-315.5"/>
<polygon fill="none" stroke="#63b8ff" points="428.63,-315.11 426.81,-308.13 432.54,-303.77 434.37,-310.74 428.63,-315.11"/>
</a>
</g>
<text text-anchor="start" x="387.5" y="-470" font-family="Helvetica,sans-Serif" font-size="10.00" fill="grey">#next</text>
<text text-anchor="start" x="387.5" y="-455" font-family="Helvetica,sans-Serif" font-size="10.00" fill="grey">#previous</text>
</g>
<!-- Node7 -->
<g id="Node000007" class="node">
<title>Node7</title>
<g id="a_Node000007"><a xlink:href="../../dd/d16/classDoublyLinkedList.html" target="_top" xlink:title=" ">
<polygon fill="white" stroke="transparent" points="341.5,-371 186.5,-371 186.5,-146 341.5,-146 341.5,-371"/>
<text text-anchor="start" x="192" y="-358.5" font-family="Helvetica,sans-Serif" font-size="10.00">DoublyLinkedList&lt; Updatable</text>
<text text-anchor="start" x="204" y="-347.5" font-family="Helvetica,sans-Serif" font-size="10.00">&lt; NormalUpdatable &gt; &gt;</text>
<text text-anchor="start" x="262.5" y="-332.5" font-family="Helvetica,sans-Serif" font-size="10.00"> </text>
<text text-anchor="start" x="206.5" y="-317.5" font-family="Helvetica,sans-Serif" font-size="10.00">+</text>
<text text-anchor="start" x="235" y="-317.5" font-family="Helvetica,sans-Serif" font-size="10.00">append()</text>
<text text-anchor="start" x="206.5" y="-302.5" font-family="Helvetica,sans-Serif" font-size="10.00">+</text>
<text text-anchor="start" x="235" y="-302.5" font-family="Helvetica,sans-Serif" font-size="10.00">insertBefore()</text>
<text text-anchor="start" x="206.5" y="-287.5" font-family="Helvetica,sans-Serif" font-size="10.00">+</text>
<text text-anchor="start" x="235" y="-287.5" font-family="Helvetica,sans-Serif" font-size="10.00">insertSorted()</text>
<text text-anchor="start" x="206.5" y="-272.5" font-family="Helvetica,sans-Serif" font-size="10.00">+</text>
<text text-anchor="start" x="235" y="-272.5" font-family="Helvetica,sans-Serif" font-size="10.00">remove()</text>
<text text-anchor="start" x="206.5" y="-257.5" font-family="Helvetica,sans-Serif" font-size="10.00">+</text>
<text text-anchor="start" x="235" y="-257.5" font-family="Helvetica,sans-Serif" font-size="10.00">moveDown()</text>
<text text-anchor="start" x="206.5" y="-242.5" font-family="Helvetica,sans-Serif" font-size="10.00">+</text>
<text text-anchor="start" x="235" y="-242.5" font-family="Helvetica,sans-Serif" font-size="10.00">couldContain()</text>
<text text-anchor="start" x="206.5" y="-227.5" font-family="Helvetica,sans-Serif" font-size="10.00">+</text>
<text text-anchor="start" x="235" y="-227.5" font-family="Helvetica,sans-Serif" font-size="10.00">begin()</text>
<text text-anchor="start" x="206.5" y="-212.5" font-family="Helvetica,sans-Serif" font-size="10.00">+</text>
<text text-anchor="start" x="235" y="-212.5" font-family="Helvetica,sans-Serif" font-size="10.00">end()</text>
<text text-anchor="start" x="206.5" y="-197.5" font-family="Helvetica,sans-Serif" font-size="10.00">+</text>
<text text-anchor="start" x="235" y="-197.5" font-family="Helvetica,sans-Serif" font-size="10.00">rbegin()</text>
<text text-anchor="start" x="206.5" y="-182.5" font-family="Helvetica,sans-Serif" font-size="10.00">+</text>
<text text-anchor="start" x="235" y="-182.5" font-family="Helvetica,sans-Serif" font-size="10.00">rend()</text>
<text text-anchor="start" x="206.5" y="-167.5" font-family="Helvetica,sans-Serif" font-size="10.00">+</text>
<text text-anchor="start" x="235" y="-167.5" font-family="Helvetica,sans-Serif" font-size="10.00">getFirst()</text>
<text text-anchor="start" x="206.5" y="-152.5" font-family="Helvetica,sans-Serif" font-size="10.00">+</text>
<text text-anchor="start" x="235" y="-152.5" font-family="Helvetica,sans-Serif" font-size="10.00">getLast()</text>
<polygon fill="#666666" stroke="#666666" points="187,-342.5 187,-342.5 342,-342.5 342,-342.5 187,-342.5"/>
<polygon fill="#666666" stroke="#666666" points="187,-327.5 187,-327.5 342,-327.5 342,-327.5 187,-327.5"/>
<polygon fill="none" stroke="#666666" points="186.5,-146 186.5,-371 341.5,-371 341.5,-146 186.5,-146"/>
</a>
</g>
</g>
<!-- Node6&#45;&gt;Node7 -->
<g id="edge8_Node000007_Node000006" class="edge">
<title>Node6&#45;&gt;Node7</title>
<g id="a_edge8_Node000007_Node000006"><a xlink:title=" ">
<path fill="none" stroke="#63b8ff" d="M315.58,-498.83C313.98,-492.81 312.44,-486.82 311,-481 303.18,-449.45 295.5,-415.17 288.7,-383.22"/>
<polygon fill="none" stroke="#63b8ff" points="288.62,-382.84 283.46,-377.8 286.14,-371.1 291.29,-376.14 288.62,-382.84"/>
</a>
</g>
<text text-anchor="start" x="314.5" y="-470" font-family="Helvetica,sans-Serif" font-size="10.00" fill="grey">&#45;first</text>
<text text-anchor="start" x="314.5" y="-455" font-family="Helvetica,sans-Serif" font-size="10.00" fill="grey">&#45;last</text>
</g>
<!-- Node7&#45;&gt;Node4 -->
<g id="edge7_Node000004_Node000007" class="edge">
<title>Node7&#45;&gt;Node4</title>
<g id="a_edge7_Node000004_Node000007"><a xlink:title=" ">
<path fill="none" stroke="#63b8ff" d="M212.15,-371.41C179.26,-457.57 148.21,-579.11 179,-683 181.62,-691.85 185.14,-700.66 189.22,-709.24"/>
<polygon fill="none" stroke="#63b8ff" points="189.25,-709.29 195.53,-712.83 194.68,-719.99 188.4,-716.45 189.25,-709.29"/>
</a>
</g>
<text text-anchor="start" x="182.5" y="-588" font-family="Helvetica,sans-Serif" font-size="10.00" fill="grey">#updatables</text>
</g>
</g>
</svg>
