<?xml version="1.0" encoding="UTF-8" standalone="no"?>
<!DOCTYPE svg PUBLIC "-//W3C//DTD SVG 1.1//EN"
 "http://www.w3.org/Graphics/SVG/1.1/DTD/svg11.dtd">
<!-- Generated by graphviz version 2.38.0 (20140413.2041)
 -->
<!-- Title: NoteValueLEDPWM&lt; BankSize &gt; Pages: 1 -->
<svg width="824pt" height="1320pt"
 viewBox="0.00 0.00 823.50 1320.00" xmlns="http://www.w3.org/2000/svg" xmlns:xlink="http://www.w3.org/1999/xlink">
<g id="graph0" class="graph" transform="scale(1 1) rotate(0) translate(4 1316)">
<title>NoteValueLEDPWM&lt; BankSize &gt;</title>
<polygon fill="white" stroke="none" points="-4,4 -4,-1316 819.5,-1316 819.5,4 -4,4"/>
<!-- Node1 -->
<g id="node1" class="node"><title>Node1</title>
<g id="a_node1"><a xlink:title=" ">
<polygon fill="#bfbfbf" stroke="black" points="545.5,-0.5 545.5,-57.5 712.5,-57.5 712.5,-0.5 545.5,-0.5"/>
<text text-anchor="middle" x="629" y="-45.5" font-family="Helvetica,sans-Serif" font-size="10.00">NoteValueLEDPWM&lt; BankSize &gt;</text>
<polyline fill="none" stroke="black" points="545.5,-38.5 712.5,-38.5 "/>
<text text-anchor="middle" x="629" y="-26.5" font-family="Helvetica,sans-Serif" font-size="10.00"> </text>
<polyline fill="none" stroke="black" points="545.5,-19.5 712.5,-19.5 "/>
<text text-anchor="start" x="553.5" y="-7.5" font-family="Helvetica,sans-Serif" font-size="10.00">+ NoteValueLEDPWM()</text>
</a>
</g>
</g>
<!-- Node2 -->
<g id="node2" class="node"><title>Node2</title>
<g id="a_node2"><a xlink:href="../../da/df0/classBankable_1_1GenericNoteCCRange.html" target="_top" xlink:title=" ">
<polygon fill="white" stroke="black" points="549.5,-95.5 549.5,-240.5 708.5,-240.5 708.5,-95.5 549.5,-95.5"/>
<text text-anchor="start" x="557.5" y="-228.5" font-family="Helvetica,sans-Serif" font-size="10.00">GenericNoteCCRange</text>
<text text-anchor="start" x="557.5" y="-217.5" font-family="Helvetica,sans-Serif" font-size="10.00">&lt; MIDIInputElementNote,</text>
<text text-anchor="start" x="557.5" y="-206.5" font-family="Helvetica,sans-Serif" font-size="10.00"> 1, BankSize, NoteCCLEDPWM</text>
<text text-anchor="middle" x="629" y="-195.5" font-family="Helvetica,sans-Serif" font-size="10.00">&lt; 1 &gt; &gt;</text>
<polyline fill="none" stroke="black" points="549.5,-188.5 708.5,-188.5 "/>
<text text-anchor="middle" x="629" y="-176.5" font-family="Helvetica,sans-Serif" font-size="10.00"> </text>
<polyline fill="none" stroke="black" points="549.5,-169.5 708.5,-169.5 "/>
<text text-anchor="start" x="557.5" y="-157.5" font-family="Helvetica,sans-Serif" font-size="10.00">+ GenericNoteCCRange()</text>
<text text-anchor="start" x="557.5" y="-146.5" font-family="Helvetica,sans-Serif" font-size="10.00">&#45; match()</text>
<text text-anchor="start" x="557.5" y="-135.5" font-family="Helvetica,sans-Serif" font-size="10.00">&#45; getSelection()</text>
<text text-anchor="start" x="557.5" y="-124.5" font-family="Helvetica,sans-Serif" font-size="10.00">&#45; getBankIndex()</text>
<text text-anchor="start" x="557.5" y="-113.5" font-family="Helvetica,sans-Serif" font-size="10.00">&#45; getRangeIndex()</text>
<text text-anchor="start" x="557.5" y="-102.5" font-family="Helvetica,sans-Serif" font-size="10.00">&#45; onBankSettingChange()</text>
</a>
</g>
</g>
<!-- Node2&#45;&gt;Node1 -->
<g id="edge1" class="edge"><title>Node2&#45;&gt;Node1</title>
<path fill="none" stroke="midnightblue" d="M629,-85.0423C629,-75.3063 629,-65.9479 629,-57.7962"/>
<polygon fill="none" stroke="midnightblue" points="625.5,-85.2901 629,-95.2901 632.5,-85.2901 625.5,-85.2901"/>
</g>
<!-- Node3 -->
<g id="node3" class="node"><title>Node3</title>
<g id="a_node3"><a xlink:href="../../d2/df4/classNoteCCRange.html" target="_top" xlink:title=" ">
<polygon fill="white" stroke="black" points="353,-317 353,-517 523,-517 523,-317 353,-317"/>
<text text-anchor="start" x="361" y="-505" font-family="Helvetica,sans-Serif" font-size="10.00">NoteCCRange&lt; MIDIInputElement</text>
<text text-anchor="start" x="361" y="-494" font-family="Helvetica,sans-Serif" font-size="10.00">Note, RangeLen, NumBanks,</text>
<text text-anchor="middle" x="438" y="-483" font-family="Helvetica,sans-Serif" font-size="10.00"> NoteCCLEDPWM&lt; 1 &gt; &gt;</text>
<polyline fill="none" stroke="black" points="353,-476 523,-476 "/>
<text text-anchor="middle" x="438" y="-464" font-family="Helvetica,sans-Serif" font-size="10.00"> </text>
<polyline fill="none" stroke="black" points="353,-457 523,-457 "/>
<text text-anchor="start" x="361" y="-445" font-family="Helvetica,sans-Serif" font-size="10.00">+ NoteCCRange()</text>
<text text-anchor="start" x="361" y="-434" font-family="Helvetica,sans-Serif" font-size="10.00">+ getValue()</text>
<text text-anchor="start" x="361" y="-423" font-family="Helvetica,sans-Serif" font-size="10.00">+ getValue()</text>
<text text-anchor="start" x="361" y="-412" font-family="Helvetica,sans-Serif" font-size="10.00">+ getValue()</text>
<text text-anchor="start" x="361" y="-401" font-family="Helvetica,sans-Serif" font-size="10.00">+ begin()</text>
<text text-anchor="start" x="361" y="-390" font-family="Helvetica,sans-Serif" font-size="10.00">+ reset()</text>
<text text-anchor="start" x="361" y="-379" font-family="Helvetica,sans-Serif" font-size="10.00">+ length()</text>
<text text-anchor="start" x="361" y="-368" font-family="Helvetica,sans-Serif" font-size="10.00">&#45; updateImpl()</text>
<text text-anchor="start" x="361" y="-357" font-family="Helvetica,sans-Serif" font-size="10.00">&#45; getSelection()</text>
<text text-anchor="start" x="361" y="-346" font-family="Helvetica,sans-Serif" font-size="10.00">&#45; getBankIndex()</text>
<text text-anchor="start" x="361" y="-335" font-family="Helvetica,sans-Serif" font-size="10.00">&#45; getRangeIndex()</text>
<text text-anchor="start" x="361" y="-324" font-family="Helvetica,sans-Serif" font-size="10.00">&#45; getValueFromMIDIMessage()</text>
</a>
</g>
</g>
<!-- Node3&#45;&gt;Node2 -->
<g id="edge2" class="edge"><title>Node3&#45;&gt;Node2</title>
<path fill="none" stroke="midnightblue" d="M520.859,-308.847C538.674,-285.808 557.087,-261.997 573.558,-240.697"/>
<polygon fill="none" stroke="midnightblue" points="517.935,-306.907 514.586,-316.959 523.472,-311.189 517.935,-306.907"/>
</g>
<!-- Node4 -->
<g id="node4" class="node"><title>Node4</title>
<g id="a_node4"><a xlink:href="../../db/d4b/classMIDIInputElementNote.html" target="_top" xlink:title="Class for objects that listen for incoming MIDI Note events.">
<polygon fill="white" stroke="black" points="108,-647.5 108,-770.5 246,-770.5 246,-647.5 108,-647.5"/>
<text text-anchor="middle" x="177" y="-758.5" font-family="Helvetica,sans-Serif" font-size="10.00">MIDIInputElementNote</text>
<polyline fill="none" stroke="black" points="108,-751.5 246,-751.5 "/>
<text text-anchor="middle" x="177" y="-739.5" font-family="Helvetica,sans-Serif" font-size="10.00"> </text>
<polyline fill="none" stroke="black" points="108,-732.5 246,-732.5 "/>
<text text-anchor="start" x="116" y="-720.5" font-family="Helvetica,sans-Serif" font-size="10.00">+ ~MIDIInputElementNote()</text>
<text text-anchor="start" x="116" y="-709.5" font-family="Helvetica,sans-Serif" font-size="10.00">+ beginAll()</text>
<text text-anchor="start" x="116" y="-698.5" font-family="Helvetica,sans-Serif" font-size="10.00">+ updateAll()</text>
<text text-anchor="start" x="116" y="-687.5" font-family="Helvetica,sans-Serif" font-size="10.00">+ resetAll()</text>
<text text-anchor="start" x="116" y="-676.5" font-family="Helvetica,sans-Serif" font-size="10.00">+ updateAllWith()</text>
<text text-anchor="start" x="116" y="-665.5" font-family="Helvetica,sans-Serif" font-size="10.00"># MIDIInputElementNote()</text>
<text text-anchor="start" x="116" y="-654.5" font-family="Helvetica,sans-Serif" font-size="10.00">&#45; moveDown()</text>
</a>
</g>
</g>
<!-- Node4&#45;&gt;Node3 -->
<g id="edge3" class="edge"><title>Node4&#45;&gt;Node3</title>
<path fill="none" stroke="midnightblue" d="M233.071,-639.472C240.373,-630.832 247.812,-622.165 255,-614 286.224,-578.534 321.456,-540.38 352.609,-507.245"/>
<polygon fill="none" stroke="midnightblue" points="230.175,-637.478 226.416,-647.384 235.532,-641.984 230.175,-637.478"/>
</g>
<!-- Node7 -->
<g id="node7" class="node"><title>Node7</title>
<g id="a_node7"><a xlink:href="../../d4/d23/classDoublyLinkable.html" target="_top" xlink:title=" ">
<polygon fill="white" stroke="black" points="0,-383 0,-451 136,-451 136,-383 0,-383"/>
<text text-anchor="start" x="8" y="-439" font-family="Helvetica,sans-Serif" font-size="10.00">DoublyLinkable&lt; MIDIInput</text>
<text text-anchor="middle" x="68" y="-428" font-family="Helvetica,sans-Serif" font-size="10.00">ElementNote &gt;</text>
<polyline fill="none" stroke="black" points="0,-421 136,-421 "/>
<text text-anchor="middle" x="68" y="-409" font-family="Helvetica,sans-Serif" font-size="10.00"> </text>
<polyline fill="none" stroke="black" points="0,-402 136,-402 "/>
<text text-anchor="start" x="8" y="-390" font-family="Helvetica,sans-Serif" font-size="10.00"># ~DoublyLinkable()</text>
</a>
</g>
</g>
<!-- Node4&#45;&gt;Node7 -->
<g id="edge7" class="edge"><title>Node4&#45;&gt;Node7</title>
<path fill="none" stroke="#404040" d="M114.811,-647.406C102.224,-631.853 90.5491,-614.305 83,-596 65.4957,-553.556 63.2204,-500.674 64.4142,-463.621"/>
<polygon fill="none" stroke="#404040" points="64.4324,-463.207 60.7011,-457.036 64.9619,-451.218 68.6933,-457.389 64.4324,-463.207"/>
<text text-anchor="middle" x="104.5" y="-588" font-family="Helvetica,sans-Serif" font-size="10.00"> #next</text>
<text text-anchor="middle" x="104.5" y="-577" font-family="Helvetica,sans-Serif" font-size="10.00">#previous</text>
</g>
<!-- Node8 -->
<g id="node8" class="node"><title>Node8</title>
<g id="a_node8"><a xlink:href="../../dd/d16/classDoublyLinkedList.html" target="_top" xlink:title=" ">
<polygon fill="white" stroke="black" points="154,-278.5 154,-555.5 298,-555.5 298,-278.5 154,-278.5"/>
<text text-anchor="start" x="162" y="-543.5" font-family="Helvetica,sans-Serif" font-size="10.00">DoublyLinkedList&lt; MIDIInput</text>
<text text-anchor="middle" x="226" y="-532.5" font-family="Helvetica,sans-Serif" font-size="10.00">ElementNote &gt;</text>
<polyline fill="none" stroke="black" points="154,-525.5 298,-525.5 "/>
<text text-anchor="middle" x="226" y="-513.5" font-family="Helvetica,sans-Serif" font-size="10.00"> </text>
<polyline fill="none" stroke="black" points="154,-506.5 298,-506.5 "/>
<text text-anchor="start" x="162" y="-494.5" font-family="Helvetica,sans-Serif" font-size="10.00">+ append()</text>
<text text-anchor="start" x="162" y="-483.5" font-family="Helvetica,sans-Serif" font-size="10.00">+ append()</text>
<text text-anchor="start" x="162" y="-472.5" font-family="Helvetica,sans-Serif" font-size="10.00">+ insertBefore()</text>
<text text-anchor="start" x="162" y="-461.5" font-family="Helvetica,sans-Serif" font-size="10.00">+ insertBefore()</text>
<text text-anchor="start" x="162" y="-450.5" font-family="Helvetica,sans-Serif" font-size="10.00">+ insertSorted()</text>
<text text-anchor="start" x="162" y="-439.5" font-family="Helvetica,sans-Serif" font-size="10.00">+ insertSorted()</text>
<text text-anchor="start" x="162" y="-428.5" font-family="Helvetica,sans-Serif" font-size="10.00">+ remove()</text>
<text text-anchor="start" x="162" y="-417.5" font-family="Helvetica,sans-Serif" font-size="10.00">+ remove()</text>
<text text-anchor="start" x="162" y="-406.5" font-family="Helvetica,sans-Serif" font-size="10.00">+ moveDown()</text>
<text text-anchor="start" x="162" y="-395.5" font-family="Helvetica,sans-Serif" font-size="10.00">+ couldContain()</text>
<text text-anchor="start" x="162" y="-384.5" font-family="Helvetica,sans-Serif" font-size="10.00">+ begin()</text>
<text text-anchor="start" x="162" y="-373.5" font-family="Helvetica,sans-Serif" font-size="10.00">+ begin()</text>
<text text-anchor="start" x="162" y="-362.5" font-family="Helvetica,sans-Serif" font-size="10.00">+ end()</text>
<text text-anchor="start" x="162" y="-351.5" font-family="Helvetica,sans-Serif" font-size="10.00">+ end()</text>
<text text-anchor="start" x="162" y="-340.5" font-family="Helvetica,sans-Serif" font-size="10.00">+ rbegin()</text>
<text text-anchor="start" x="162" y="-329.5" font-family="Helvetica,sans-Serif" font-size="10.00">+ rbegin()</text>
<text text-anchor="start" x="162" y="-318.5" font-family="Helvetica,sans-Serif" font-size="10.00">+ rend()</text>
<text text-anchor="start" x="162" y="-307.5" font-family="Helvetica,sans-Serif" font-size="10.00">+ rend()</text>
<text text-anchor="start" x="162" y="-296.5" font-family="Helvetica,sans-Serif" font-size="10.00">+ getFirst()</text>
<text text-anchor="start" x="162" y="-285.5" font-family="Helvetica,sans-Serif" font-size="10.00">+ getLast()</text>
</a>
</g>
</g>
<!-- Node4&#45;&gt;Node8 -->
<g id="edge9" class="edge"><title>Node4&#45;&gt;Node8</title>
<path fill="none" stroke="#404040" d="M175.718,-647.26C175.421,-630.641 175.148,-612.627 175,-596 174.913,-586.223 173.462,-583.656 175,-574 175.346,-571.826 175.718,-569.641 176.114,-567.447"/>
<polygon fill="none" stroke="#404040" points="176.118,-567.427 173.357,-560.765 178.445,-555.655 181.205,-562.317 176.118,-567.427"/>
<text text-anchor="middle" x="186" y="-588" font-family="Helvetica,sans-Serif" font-size="10.00"> &#45;last</text>
<text text-anchor="middle" x="186" y="-577" font-family="Helvetica,sans-Serif" font-size="10.00">&#45;first</text>
</g>
<!-- Node5 -->
<g id="node5" class="node"><title>Node5</title>
<g id="a_node5"><a xlink:href="../../d9/db1/classMIDIInputElement.html" target="_top" xlink:title="A class for objects that listen for incoming MIDI events.">
<polygon fill="white" stroke="black" points="118.5,-841.5 118.5,-997.5 235.5,-997.5 235.5,-841.5 118.5,-841.5"/>
<text text-anchor="middle" x="177" y="-985.5" font-family="Helvetica,sans-Serif" font-size="10.00">MIDIInputElement</text>
<polyline fill="none" stroke="black" points="118.5,-978.5 235.5,-978.5 "/>
<text text-anchor="middle" x="177" y="-966.5" font-family="Helvetica,sans-Serif" font-size="10.00"> </text>
<polyline fill="none" stroke="black" points="118.5,-959.5 235.5,-959.5 "/>
<text text-anchor="start" x="126.5" y="-947.5" font-family="Helvetica,sans-Serif" font-size="10.00">+ ~MIDIInputElement()</text>
<text text-anchor="start" x="126.5" y="-936.5" font-family="Helvetica,sans-Serif" font-size="10.00">+ begin()</text>
<text text-anchor="start" x="126.5" y="-925.5" font-family="Helvetica,sans-Serif" font-size="10.00">+ reset()</text>
<text text-anchor="start" x="126.5" y="-914.5" font-family="Helvetica,sans-Serif" font-size="10.00">+ update()</text>
<text text-anchor="start" x="126.5" y="-903.5" font-family="Helvetica,sans-Serif" font-size="10.00">+ updateWith()</text>
<text text-anchor="start" x="126.5" y="-892.5" font-family="Helvetica,sans-Serif" font-size="10.00"># MIDIInputElement()</text>
<text text-anchor="start" x="126.5" y="-881.5" font-family="Helvetica,sans-Serif" font-size="10.00"># MIDIInputElement()</text>
<text text-anchor="start" x="126.5" y="-870.5" font-family="Helvetica,sans-Serif" font-size="10.00">&#45; updateImpl()</text>
<text text-anchor="start" x="126.5" y="-859.5" font-family="Helvetica,sans-Serif" font-size="10.00">&#45; getTarget()</text>
<text text-anchor="start" x="126.5" y="-848.5" font-family="Helvetica,sans-Serif" font-size="10.00">&#45; match()</text>
</a>
</g>
</g>
<!-- Node5&#45;&gt;Node4 -->
<g id="edge4" class="edge"><title>Node5&#45;&gt;Node4</title>
<path fill="none" stroke="midnightblue" d="M177,-831.238C177,-810.9 177,-789.676 177,-770.774"/>
<polygon fill="none" stroke="midnightblue" points="173.5,-831.455 177,-841.455 180.5,-831.455 173.5,-831.455"/>
</g>
<!-- Node6 -->
<g id="node6" class="node"><title>Node6</title>
<g id="a_node6"><a xlink:href="../../d3/d10/classMIDICNChannelAddress.html" target="_top" xlink:title="A type&#45;safe utility class for saving a MIDI address consisting of a 7&#45;bit address,...">
<polygon fill="white" stroke="black" points="107,-1045.5 107,-1311.5 247,-1311.5 247,-1045.5 107,-1045.5"/>
<text text-anchor="middle" x="177" y="-1299.5" font-family="Helvetica,sans-Serif" font-size="10.00">MIDICNChannelAddress</text>
<polyline fill="none" stroke="black" points="107,-1292.5 247,-1292.5 "/>
<text text-anchor="start" x="115" y="-1280.5" font-family="Helvetica,sans-Serif" font-size="10.00">&#45; addresses</text>
<polyline fill="none" stroke="black" points="107,-1273.5 247,-1273.5 "/>
<text text-anchor="start" x="115" y="-1261.5" font-family="Helvetica,sans-Serif" font-size="10.00">+ MIDICNChannelAddress()</text>
<text text-anchor="start" x="115" y="-1250.5" font-family="Helvetica,sans-Serif" font-size="10.00">+ MIDICNChannelAddress()</text>
<text text-anchor="start" x="115" y="-1239.5" font-family="Helvetica,sans-Serif" font-size="10.00">+ MIDICNChannelAddress()</text>
<text text-anchor="start" x="115" y="-1228.5" font-family="Helvetica,sans-Serif" font-size="10.00">+ MIDICNChannelAddress()</text>
<text text-anchor="start" x="115" y="-1217.5" font-family="Helvetica,sans-Serif" font-size="10.00">+ MIDICNChannelAddress()</text>
<text text-anchor="start" x="115" y="-1206.5" font-family="Helvetica,sans-Serif" font-size="10.00">+ operator+=()</text>
<text text-anchor="start" x="115" y="-1195.5" font-family="Helvetica,sans-Serif" font-size="10.00">+ operator&#45;=()</text>
<text text-anchor="start" x="115" y="-1184.5" font-family="Helvetica,sans-Serif" font-size="10.00">+ operator+()</text>
<text text-anchor="start" x="115" y="-1173.5" font-family="Helvetica,sans-Serif" font-size="10.00">+ operator&#45;()</text>
<text text-anchor="start" x="115" y="-1162.5" font-family="Helvetica,sans-Serif" font-size="10.00">+ operator==()</text>
<text text-anchor="start" x="115" y="-1151.5" font-family="Helvetica,sans-Serif" font-size="10.00">+ operator!=()</text>
<text text-anchor="start" x="115" y="-1140.5" font-family="Helvetica,sans-Serif" font-size="10.00">+ getAddress()</text>
<text text-anchor="start" x="115" y="-1129.5" font-family="Helvetica,sans-Serif" font-size="10.00">+ getChannel()</text>
<text text-anchor="start" x="115" y="-1118.5" font-family="Helvetica,sans-Serif" font-size="10.00">+ getRawChannel()</text>
<text text-anchor="start" x="115" y="-1107.5" font-family="Helvetica,sans-Serif" font-size="10.00">+ getCableNumber()</text>
<text text-anchor="start" x="115" y="-1096.5" font-family="Helvetica,sans-Serif" font-size="10.00">+ isValid()</text>
<text text-anchor="start" x="115" y="-1085.5" font-family="Helvetica,sans-Serif" font-size="10.00">+ operator bool()</text>
<text text-anchor="start" x="115" y="-1074.5" font-family="Helvetica,sans-Serif" font-size="10.00">+ matchSingle()</text>
<text text-anchor="start" x="115" y="-1063.5" font-family="Helvetica,sans-Serif" font-size="10.00">+ matchAddressInRange()</text>
<text text-anchor="start" x="115" y="-1052.5" font-family="Helvetica,sans-Serif" font-size="10.00">+ invalid()</text>
</a>
</g>
</g>
<!-- Node6&#45;&gt;Node5 -->
<g id="edge5" class="edge"><title>Node6&#45;&gt;Node5</title>
<path fill="none" stroke="#404040" d="M177,-1045.24C177,-1033.31 177,-1021.43 177,-1010.01"/>
<polygon fill="none" stroke="#404040" points="177,-1009.81 173,-1003.81 177,-997.81 181,-1003.81 177,-1009.81"/>
<text text-anchor="middle" x="198.5" y="-1019" font-family="Helvetica,sans-Serif" font-size="10.00"> #address</text>
</g>
<!-- Node7&#45;&gt;Node4 -->
<g id="edge6" class="edge"><title>Node7&#45;&gt;Node4</title>
<path fill="none" stroke="midnightblue" d="M84.0124,-460.602C102.526,-509.857 133.14,-591.307 154.15,-647.206"/>
<polygon fill="none" stroke="midnightblue" points="87.2721,-459.326 80.4775,-451.197 80.7197,-461.789 87.2721,-459.326"/>
</g>
<!-- Node8&#45;&gt;Node4 -->
<g id="edge8" class="edge"><title>Node8&#45;&gt;Node4</title>
<path fill="none" stroke="#404040" d="M207.665,-555.662C205.547,-569.312 203.313,-582.941 201,-596 198.73,-608.818 196.051,-622.404 193.321,-635.527"/>
<polygon fill="none" stroke="#404040" points="193.291,-635.672 195.964,-642.369 190.811,-647.413 188.137,-640.716 193.291,-635.672"/>
<text text-anchor="middle" x="228" y="-582.5" font-family="Helvetica,sans-Serif" font-size="10.00"> &#45;elements</text>
</g>
<!-- Node9 -->
<g id="node9" class="node"><title>Node9</title>
<g id="a_node9"><a xlink:href="../../d7/dab/classINoteCCValue.html" target="_top" xlink:title="Interface for NoteCCValue objects: provides getters for the velocity or controller values.">
<polygon fill="white" stroke="black" points="264.5,-664 264.5,-754 359.5,-754 359.5,-664 264.5,-664"/>
<text text-anchor="middle" x="312" y="-742" font-family="Helvetica,sans-Serif" font-size="10.00">INoteCCValue</text>
<polyline fill="none" stroke="black" points="264.5,-735 359.5,-735 "/>
<text text-anchor="start" x="272.5" y="-723" font-family="Helvetica,sans-Serif" font-size="10.00">&#45; rangeLength</text>
<polyline fill="none" stroke="black" points="264.5,-716 359.5,-716 "/>
<text text-anchor="start" x="272.5" y="-704" font-family="Helvetica,sans-Serif" font-size="10.00">+ length()</text>
<text text-anchor="start" x="272.5" y="-693" font-family="Helvetica,sans-Serif" font-size="10.00">+ getValue()</text>
<text text-anchor="start" x="272.5" y="-682" font-family="Helvetica,sans-Serif" font-size="10.00">+ getValue()</text>
<text text-anchor="start" x="272.5" y="-671" font-family="Helvetica,sans-Serif" font-size="10.00"># INoteCCValue()</text>
</a>
</g>
</g>
<!-- Node9&#45;&gt;Node3 -->
<g id="edge10" class="edge"><title>Node9&#45;&gt;Node3</title>
<path fill="none" stroke="midnightblue" d="M335.237,-654.519C351.919,-616.124 374.892,-563.249 394.887,-517.228"/>
<polygon fill="none" stroke="midnightblue" points="331.912,-653.389 331.137,-663.955 338.332,-656.178 331.912,-653.389"/>
</g>
<!-- Node10 -->
<g id="node10" class="node"><title>Node10</title>
<g id="a_node10"><a xlink:href="../../db/d17/classNoteCCLEDPWM.html" target="_top" xlink:title=" ">
<polygon fill="white" stroke="black" points="378,-669.5 378,-748.5 498,-748.5 498,-669.5 378,-669.5"/>
<text text-anchor="middle" x="438" y="-736.5" font-family="Helvetica,sans-Serif" font-size="10.00">NoteCCLEDPWM&lt; 1 &gt;</text>
<polyline fill="none" stroke="black" points="378,-729.5 498,-729.5 "/>
<text text-anchor="start" x="386" y="-717.5" font-family="Helvetica,sans-Serif" font-size="10.00">&#45; ledPins</text>
<polyline fill="none" stroke="black" points="378,-710.5 498,-710.5 "/>
<text text-anchor="start" x="386" y="-698.5" font-family="Helvetica,sans-Serif" font-size="10.00">+ NoteCCLEDPWM()</text>
<text text-anchor="start" x="386" y="-687.5" font-family="Helvetica,sans-Serif" font-size="10.00">+ begin()</text>
<text text-anchor="start" x="386" y="-676.5" font-family="Helvetica,sans-Serif" font-size="10.00">+ update()</text>
</a>
</g>
</g>
<!-- Node10&#45;&gt;Node3 -->
<g id="edge11" class="edge"><title>Node10&#45;&gt;Node3</title>
<path fill="none" stroke="#404040" d="M438,-669.49C438,-633.764 438,-578.814 438,-529.381"/>
<polygon fill="none" stroke="#404040" points="438,-529.28 434,-523.28 438,-517.28 442,-523.28 438,-529.28"/>
<text text-anchor="middle" x="461" y="-582.5" font-family="Helvetica,sans-Serif" font-size="10.00"> +callback</text>
</g>
<!-- Node11 -->
<g id="node11" class="node"><title>Node11</title>
<g id="a_node11"><a xlink:href="../../de/d07/structSimpleNoteCCValueCallback.html" target="_top" xlink:title="A callback for NoteCCRange with an action that can be implemented by the user.">
<polygon fill="white" stroke="black" points="358,-874.5 358,-964.5 518,-964.5 518,-874.5 358,-874.5"/>
<text text-anchor="middle" x="438" y="-952.5" font-family="Helvetica,sans-Serif" font-size="10.00">SimpleNoteCCValueCallback</text>
<polyline fill="none" stroke="black" points="358,-945.5 518,-945.5 "/>
<text text-anchor="middle" x="438" y="-933.5" font-family="Helvetica,sans-Serif" font-size="10.00"> </text>
<polyline fill="none" stroke="black" points="358,-926.5 518,-926.5 "/>
<text text-anchor="start" x="366" y="-914.5" font-family="Helvetica,sans-Serif" font-size="10.00">+ begin()</text>
<text text-anchor="start" x="366" y="-903.5" font-family="Helvetica,sans-Serif" font-size="10.00">+ update()</text>
<text text-anchor="start" x="366" y="-892.5" font-family="Helvetica,sans-Serif" font-size="10.00">+ updateAll()</text>
<text text-anchor="start" x="366" y="-881.5" font-family="Helvetica,sans-Serif" font-size="10.00"># SimpleNoteCCValueCallback()</text>
</a>
</g>
</g>
<!-- Node11&#45;&gt;Node10 -->
<g id="edge12" class="edge"><title>Node11&#45;&gt;Node10</title>
<path fill="none" stroke="midnightblue" d="M438,-863.877C438,-827.63 438,-780.943 438,-748.546"/>
<polygon fill="none" stroke="midnightblue" points="434.5,-864.282 438,-874.283 441.5,-864.283 434.5,-864.282"/>
</g>
<!-- Node12 -->
<g id="node12" class="node"><title>Node12</title>
<g id="a_node12"><a xlink:href="../../d0/d32/structAH_1_1Array.html" target="_top" xlink:title=" ">
<polygon fill="white" stroke="black" points="516,-614.5 516,-803.5 664,-803.5 664,-614.5 516,-614.5"/>
<text text-anchor="start" x="524" y="-791.5" font-family="Helvetica,sans-Serif" font-size="10.00">Array&lt; Array&lt; uint8</text>
<text text-anchor="middle" x="590" y="-780.5" font-family="Helvetica,sans-Serif" font-size="10.00">_t, RangeLen &gt;, NumBanks &gt;</text>
<polyline fill="none" stroke="black" points="516,-773.5 664,-773.5 "/>
<text text-anchor="start" x="524" y="-761.5" font-family="Helvetica,sans-Serif" font-size="10.00">+ data</text>
<text text-anchor="start" x="524" y="-750.5" font-family="Helvetica,sans-Serif" font-size="10.00">+ length</text>
<polyline fill="none" stroke="black" points="516,-743.5 664,-743.5 "/>
<text text-anchor="start" x="524" y="-731.5" font-family="Helvetica,sans-Serif" font-size="10.00">+ operator[]()</text>
<text text-anchor="start" x="524" y="-720.5" font-family="Helvetica,sans-Serif" font-size="10.00">+ operator[]()</text>
<text text-anchor="start" x="524" y="-709.5" font-family="Helvetica,sans-Serif" font-size="10.00">+ begin()</text>
<text text-anchor="start" x="524" y="-698.5" font-family="Helvetica,sans-Serif" font-size="10.00">+ begin()</text>
<text text-anchor="start" x="524" y="-687.5" font-family="Helvetica,sans-Serif" font-size="10.00">+ end()</text>
<text text-anchor="start" x="524" y="-676.5" font-family="Helvetica,sans-Serif" font-size="10.00">+ end()</text>
<text text-anchor="start" x="524" y="-665.5" font-family="Helvetica,sans-Serif" font-size="10.00">+ operator==()</text>
<text text-anchor="start" x="524" y="-654.5" font-family="Helvetica,sans-Serif" font-size="10.00">+ operator!=()</text>
<text text-anchor="start" x="524" y="-643.5" font-family="Helvetica,sans-Serif" font-size="10.00">+ slice()</text>
<text text-anchor="start" x="524" y="-632.5" font-family="Helvetica,sans-Serif" font-size="10.00">+ slice()</text>
<text text-anchor="start" x="524" y="-621.5" font-family="Helvetica,sans-Serif" font-size="10.00">+ cslice()</text>
</a>
</g>
</g>
<!-- Node12&#45;&gt;Node3 -->
<g id="edge13" class="edge"><title>Node12&#45;&gt;Node3</title>
<path fill="none" stroke="#404040" d="M540.86,-614.246C526.439,-586.733 510.538,-556.394 495.638,-527.967"/>
<polygon fill="none" stroke="#404040" points="495.552,-527.804 489.224,-524.347 489.982,-517.175 496.31,-520.633 495.552,-527.804"/>
<text text-anchor="middle" x="545.5" y="-582.5" font-family="Helvetica,sans-Serif" font-size="10.00"> &#45;values</text>
</g>
<!-- Node13 -->
<g id="node13" class="node"><title>Node13</title>
<g id="a_node13"><a xlink:href="../../db/d6e/classBankableMIDIInput.html" target="_top" xlink:title=" ">
<polygon fill="white" stroke="black" points="627.5,-317 627.5,-517 798.5,-517 798.5,-317 627.5,-317"/>
<text text-anchor="start" x="635.5" y="-505" font-family="Helvetica,sans-Serif" font-size="10.00">BankableMIDIInput&lt;</text>
<text text-anchor="middle" x="713" y="-494" font-family="Helvetica,sans-Serif" font-size="10.00"> NumBanks &gt;</text>
<polyline fill="none" stroke="black" points="627.5,-487 798.5,-487 "/>
<text text-anchor="start" x="635.5" y="-475" font-family="Helvetica,sans-Serif" font-size="10.00">&#45; bank</text>
<text text-anchor="start" x="635.5" y="-464" font-family="Helvetica,sans-Serif" font-size="10.00">&#45; type</text>
<polyline fill="none" stroke="black" points="627.5,-457 798.5,-457 "/>
<text text-anchor="start" x="635.5" y="-445" font-family="Helvetica,sans-Serif" font-size="10.00">+ ~BankableMIDIInput()</text>
<text text-anchor="start" x="635.5" y="-434" font-family="Helvetica,sans-Serif" font-size="10.00">+ getSelection()</text>
<text text-anchor="start" x="635.5" y="-423" font-family="Helvetica,sans-Serif" font-size="10.00">+ getBankIndex()</text>
<text text-anchor="start" x="635.5" y="-412" font-family="Helvetica,sans-Serif" font-size="10.00"># BankableMIDIInput()</text>
<text text-anchor="start" x="635.5" y="-401" font-family="Helvetica,sans-Serif" font-size="10.00"># BankableMIDIInput()</text>
<text text-anchor="start" x="635.5" y="-390" font-family="Helvetica,sans-Serif" font-size="10.00"># matchBankable()</text>
<text text-anchor="start" x="635.5" y="-379" font-family="Helvetica,sans-Serif" font-size="10.00"># matchBankable()</text>
<text text-anchor="start" x="635.5" y="-368" font-family="Helvetica,sans-Serif" font-size="10.00"># matchBankableInRange()</text>
<text text-anchor="start" x="635.5" y="-357" font-family="Helvetica,sans-Serif" font-size="10.00"># getRangeIndex()</text>
<text text-anchor="start" x="635.5" y="-346" font-family="Helvetica,sans-Serif" font-size="10.00"># matchBankableAddressInRange()</text>
<text text-anchor="start" x="635.5" y="-335" font-family="Helvetica,sans-Serif" font-size="10.00"># inRange()</text>
<text text-anchor="start" x="635.5" y="-324" font-family="Helvetica,sans-Serif" font-size="10.00">&#45; onBankSettingChange()</text>
</a>
</g>
</g>
<!-- Node13&#45;&gt;Node2 -->
<g id="edge14" class="edge"><title>Node13&#45;&gt;Node2</title>
<path fill="none" stroke="midnightblue" d="M676.046,-307.337C668.371,-284.77 660.468,-261.532 653.383,-240.697"/>
<polygon fill="none" stroke="midnightblue" points="672.785,-308.618 679.318,-316.959 679.412,-306.364 672.785,-308.618"/>
</g>
<!-- Node14 -->
<g id="node14" class="node"><title>Node14</title>
<g id="a_node14"><a xlink:href="../../d4/d23/classDoublyLinkable.html" target="_top" xlink:title=" ">
<polygon fill="white" stroke="black" points="682.5,-669.5 682.5,-748.5 815.5,-748.5 815.5,-669.5 682.5,-669.5"/>
<text text-anchor="start" x="690.5" y="-736.5" font-family="Helvetica,sans-Serif" font-size="10.00">DoublyLinkable&lt; Bankable</text>
<text text-anchor="middle" x="749" y="-725.5" font-family="Helvetica,sans-Serif" font-size="10.00">MIDIInput&lt; N &gt; &gt;</text>
<polyline fill="none" stroke="black" points="682.5,-718.5 815.5,-718.5 "/>
<text text-anchor="start" x="690.5" y="-706.5" font-family="Helvetica,sans-Serif" font-size="10.00"># next</text>
<text text-anchor="start" x="690.5" y="-695.5" font-family="Helvetica,sans-Serif" font-size="10.00"># previous</text>
<polyline fill="none" stroke="black" points="682.5,-688.5 815.5,-688.5 "/>
<text text-anchor="start" x="690.5" y="-676.5" font-family="Helvetica,sans-Serif" font-size="10.00"># ~DoublyLinkable()</text>
</a>
</g>
</g>
<!-- Node14&#45;&gt;Node13 -->
<g id="edge15" class="edge"><title>Node14&#45;&gt;Node13</title>
<path fill="none" stroke="midnightblue" d="M742.984,-659.536C738.18,-620.837 731.289,-565.328 725.324,-517.28"/>
<polygon fill="none" stroke="midnightblue" points="739.514,-659.998 744.219,-669.49 746.461,-659.135 739.514,-659.998"/>
</g>
</g>
</svg>
