#define mute14b_width 14
#define mute14b_height 14
static unsigned char mute14b_bits[] = {
   0x01, 0x00, 0x09, 0x08, 0x19, 0x0c, 0x29, 0x0a, 0x49, 0x09, 0x89, 0x08,
   0x09, 0x08, 0x09, 0x08, 0x09, 0x08, 0x09, 0x08, 0x09, 0x08, 0x09, 0x08,
   0x01, 0x00, 0xff, 0x3f };
