#define play_10_width 10
#define play_10_height 9
static unsigned char play_10_bits[] = {
   0x03, 0x00, 0x0f, 0x00, 0x3f, 0x00, 0xff, 0x00, 0xff, 0x03, 0xff, 0x00,
   0x3f, 0x00, 0x0f, 0x00, 0x03, 0x00 };
