#define recordRdy14_width 14
#define recordRdy14_height 14
static unsigned char recordRdy14_bits[] = {
   0x01, 0x00, 0xf9, 0x03, 0x09, 0x04, 0x09, 0x08, 0x09, 0x08, 0x09, 0x04,
   0xf9, 0x03, 0x89, 0x00, 0x09, 0x01, 0x09, 0x02, 0x09, 0x04, 0x09, 0x08,
   0x01, 0x00, 0xff, 0x3f };
