#define solo7_width 7
#define solo7_height 7
static unsigned char solo7_bits[] = {
   0x1c, 0x22, 0x02, 0x1c, 0x20, 0x22, 0x1c };
