#define solo14b_width 14
#define solo14b_height 14
static unsigned char solo14b_bits[] = {
   0x01, 0x00, 0xe1, 0x03, 0x11, 0x04, 0x09, 0x08, 0x09, 0x08, 0x11, 0x00,
   0xe1, 0x03, 0x01, 0x04, 0x09, 0x08, 0x09, 0x08, 0x11, 0x04, 0xe1, 0x03,
   0x01, 0x00, 0xff, 0x3f };
