<?xml version="1.0" encoding="UTF-8" standalone="no"?>
<!DOCTYPE svg PUBLIC "-//W3C//DTD SVG 1.1//EN"
 "http://www.w3.org/Graphics/SVG/1.1/DTD/svg11.dtd">
<!-- Generated by graphviz version 2.43.0 (0)
 -->
<!-- Title: Transposer&lt; MinTransposition, MaxTransposition &gt; Pages: 1 -->
<svg width="284pt" height="489pt"
 viewBox="0.00 0.00 283.50 489.00" xmlns="http://www.w3.org/2000/svg" xmlns:xlink="http://www.w3.org/1999/xlink">
<g id="graph0" class="graph" transform="scale(1 1) rotate(0) translate(4 485)">
<title>Transposer&lt; MinTransposition, MaxTransposition &gt;</title>
<!-- Node1 -->
<g id="Node000001" class="node">
<title>Node1</title>
<g id="a_Node000001"><a xlink:title="Class for transposing the address of NoteButton and other MIDI elements.">
<polygon fill="#999999" stroke="transparent" points="222,-120 61,-120 61,0 222,0 222,-120"/>
<text text-anchor="start" x="67" y="-108" font-family="Helvetica,sans-Serif" font-size="10.00">Transposer&lt; MinTransposition,</text>
<text text-anchor="start" x="92" y="-97" font-family="Helvetica,sans-Serif" font-size="10.00"> MaxTransposition &gt;</text>
<text text-anchor="start" x="65.5" y="-82" font-family="Helvetica,sans-Serif" font-size="10.00">+</text>
<text text-anchor="start" x="78.5" y="-82" font-family="Helvetica,sans-Serif" font-size="10.00">N</text>
<text text-anchor="start" x="65.5" y="-67" font-family="Helvetica,sans-Serif" font-size="10.00">+</text>
<text text-anchor="start" x="78.5" y="-67" font-family="Helvetica,sans-Serif" font-size="10.00">NumBanks</text>
<text text-anchor="start" x="65.5" y="-52" font-family="Helvetica,sans-Serif" font-size="10.00">+</text>
<text text-anchor="start" x="78.5" y="-52" font-family="Helvetica,sans-Serif" font-size="10.00">Transposer()</text>
<text text-anchor="start" x="65.5" y="-37" font-family="Helvetica,sans-Serif" font-size="10.00">+</text>
<text text-anchor="start" x="78.5" y="-37" font-family="Helvetica,sans-Serif" font-size="10.00">setTransposition()</text>
<text text-anchor="start" x="65.5" y="-22" font-family="Helvetica,sans-Serif" font-size="10.00">+</text>
<text text-anchor="start" x="78.5" y="-22" font-family="Helvetica,sans-Serif" font-size="10.00">getTransposition()</text>
<text text-anchor="start" x="65.5" y="-7" font-family="Helvetica,sans-Serif" font-size="10.00">+</text>
<text text-anchor="start" x="78.5" y="-7" font-family="Helvetica,sans-Serif" font-size="10.00">getTranspositionSemitones()</text>
<polygon fill="#666666" stroke="#666666" points="61.5,-92 61.5,-92 222.5,-92 222.5,-92 61.5,-92"/>
<polygon fill="#666666" stroke="#666666" points="61.5,-62 61.5,-62 76.5,-62 76.5,-62 61.5,-62"/>
<polygon fill="#666666" stroke="#666666" points="76.5,-62 76.5,-62 222.5,-62 222.5,-62 76.5,-62"/>
<polygon fill="none" stroke="#666666" points="61,0 61,-120 222,-120 222,0 61,0"/>
</a>
</g>
</g>
<!-- Node2 -->
<g id="Node000002" class="node">
<title>Node2</title>
<g id="a_Node000002"><a xlink:href="../../db/dbd/classBank.html" target="_top" xlink:title=" ">
<polygon fill="white" stroke="transparent" points="207.5,-276 75.5,-276 75.5,-156 207.5,-156 207.5,-276"/>
<text text-anchor="start" x="80.5" y="-264" font-family="Helvetica,sans-Serif" font-size="10.00">Bank&lt; MaxTransposition</text>
<text text-anchor="start" x="82.5" y="-253" font-family="Helvetica,sans-Serif" font-size="10.00"> &#45; MinTransposition+1 &gt;</text>
<text text-anchor="start" x="83.5" y="-238" font-family="Helvetica,sans-Serif" font-size="10.00">&#45;</text>
<text text-anchor="start" x="95.5" y="-238" font-family="Helvetica,sans-Serif" font-size="10.00">inputBankables</text>
<text text-anchor="start" x="81" y="-223" font-family="Helvetica,sans-Serif" font-size="10.00">+</text>
<text text-anchor="start" x="95.5" y="-223" font-family="Helvetica,sans-Serif" font-size="10.00">Bank()</text>
<text text-anchor="start" x="81" y="-208" font-family="Helvetica,sans-Serif" font-size="10.00">+</text>
<text text-anchor="start" x="95.5" y="-208" font-family="Helvetica,sans-Serif" font-size="10.00">select()</text>
<text text-anchor="start" x="81" y="-193" font-family="Helvetica,sans-Serif" font-size="10.00">+</text>
<text text-anchor="start" x="95.5" y="-193" font-family="Helvetica,sans-Serif" font-size="10.00">add()</text>
<text text-anchor="start" x="81" y="-178" font-family="Helvetica,sans-Serif" font-size="10.00">+</text>
<text text-anchor="start" x="95.5" y="-178" font-family="Helvetica,sans-Serif" font-size="10.00">remove()</text>
<text text-anchor="start" x="81" y="-163" font-family="Helvetica,sans-Serif" font-size="10.00">+</text>
<text text-anchor="start" x="95.5" y="-163" font-family="Helvetica,sans-Serif" font-size="10.00">getNumberOfBanks()</text>
<polygon fill="#666666" stroke="#666666" points="75.5,-248 75.5,-248 207.5,-248 207.5,-248 75.5,-248"/>
<polygon fill="#666666" stroke="#666666" points="75.5,-233 75.5,-233 93.5,-233 93.5,-233 75.5,-233"/>
<polygon fill="#666666" stroke="#666666" points="93.5,-233 93.5,-233 207.5,-233 207.5,-233 93.5,-233"/>
<polygon fill="none" stroke="#666666" points="75.5,-156 75.5,-276 207.5,-276 207.5,-156 75.5,-156"/>
</a>
</g>
</g>
<!-- Node2&#45;&gt;Node1 -->
<g id="edge1_Node000001_Node000002" class="edge">
<title>Node2&#45;&gt;Node1</title>
<g id="a_edge1_Node000001_Node000002"><a xlink:title=" ">
<path fill="none" stroke="#63b8ff" d="M141.5,-145.63C141.5,-137.14 141.5,-128.52 141.5,-120.2"/>
<polygon fill="none" stroke="#63b8ff" points="138,-145.9 141.5,-155.9 145,-145.9 138,-145.9"/>
</a>
</g>
</g>
<!-- Node3 -->
<g id="Node000003" class="node">
<title>Node3</title>
<g id="a_Node000003"><a xlink:href="../../de/de7/classSelectable.html" target="_top" xlink:title=" ">
<polygon fill="white" stroke="transparent" points="137,-451 0,-451 0,-342 137,-342 137,-451"/>
<text text-anchor="start" x="5.5" y="-438.5" font-family="Helvetica,sans-Serif" font-size="10.00">Selectable&lt; NumBanks &gt;</text>
<text text-anchor="start" x="11.5" y="-423.5" font-family="Helvetica,sans-Serif" font-size="10.00">&#45;</text>
<text text-anchor="start" x="26.5" y="-423.5" font-family="Helvetica,sans-Serif" font-size="10.00">initialSelection</text>
<text text-anchor="start" x="9" y="-408.5" font-family="Helvetica,sans-Serif" font-size="10.00">+</text>
<text text-anchor="start" x="26.5" y="-408.5" font-family="Helvetica,sans-Serif" font-size="10.00">select()</text>
<text text-anchor="start" x="9" y="-393.5" font-family="Helvetica,sans-Serif" font-size="10.00">+</text>
<text text-anchor="start" x="26.5" y="-393.5" font-family="Helvetica,sans-Serif" font-size="10.00">getInitialSelection()</text>
<text text-anchor="start" x="9" y="-378.5" font-family="Helvetica,sans-Serif" font-size="10.00">+</text>
<text text-anchor="start" x="26.5" y="-378.5" font-family="Helvetica,sans-Serif" font-size="10.00">setInitialSelection()</text>
<text text-anchor="start" x="9" y="-363.5" font-family="Helvetica,sans-Serif" font-size="10.00">+</text>
<text text-anchor="start" x="26.5" y="-363.5" font-family="Helvetica,sans-Serif" font-size="10.00">validateSetting()</text>
<text text-anchor="start" x="9" y="-348.5" font-family="Helvetica,sans-Serif" font-size="10.00">#</text>
<text text-anchor="start" x="26.5" y="-348.5" font-family="Helvetica,sans-Serif" font-size="10.00">Selectable()</text>
<polygon fill="#666666" stroke="#666666" points="0.5,-433.5 0.5,-433.5 137.5,-433.5 137.5,-433.5 0.5,-433.5"/>
<polygon fill="#666666" stroke="#666666" points="0.5,-418.5 0.5,-418.5 24.5,-418.5 24.5,-418.5 0.5,-418.5"/>
<polygon fill="#666666" stroke="#666666" points="24.5,-418.5 24.5,-418.5 137.5,-418.5 137.5,-418.5 24.5,-418.5"/>
<polygon fill="none" stroke="#666666" points="0,-342 0,-451 137,-451 137,-342 0,-342"/>
</a>
</g>
</g>
<!-- Node3&#45;&gt;Node2 -->
<g id="edge2_Node000002_Node000003" class="edge">
<title>Node3&#45;&gt;Node2</title>
<g id="a_edge2_Node000002_Node000003"><a xlink:title=" ">
<path fill="none" stroke="#63b8ff" d="M94.26,-332.52C101.76,-314.18 109.92,-294.22 117.32,-276.13"/>
<polygon fill="none" stroke="#63b8ff" points="90.95,-331.36 90.4,-341.94 97.43,-334.01 90.95,-331.36"/>
</a>
</g>
</g>
<!-- Node4 -->
<g id="Node000004" class="node">
<title>Node4</title>
<g id="a_Node000004"><a xlink:href="../../d9/d36/classOutputBank.html" target="_top" xlink:title="A class for changing the address of BankableMIDIOutputs.">
<polygon fill="white" stroke="transparent" points="275.5,-481 155.5,-481 155.5,-312 275.5,-312 275.5,-481"/>
<text text-anchor="start" x="186.5" y="-468.5" font-family="Helvetica,sans-Serif" font-size="10.00">OutputBank</text>
<text text-anchor="start" x="162" y="-453.5" font-family="Helvetica,sans-Serif" font-size="10.00">&#45;</text>
<text text-anchor="start" x="172.5" y="-453.5" font-family="Helvetica,sans-Serif" font-size="10.00">tracksPerBank</text>
<text text-anchor="start" x="162" y="-438.5" font-family="Helvetica,sans-Serif" font-size="10.00">&#45;</text>
<text text-anchor="start" x="172.5" y="-438.5" font-family="Helvetica,sans-Serif" font-size="10.00">bankSetting</text>
<text text-anchor="start" x="162" y="-423.5" font-family="Helvetica,sans-Serif" font-size="10.00">&#45;</text>
<text text-anchor="start" x="172.5" y="-423.5" font-family="Helvetica,sans-Serif" font-size="10.00">selectionOffset</text>
<text text-anchor="start" x="159.5" y="-408.5" font-family="Helvetica,sans-Serif" font-size="10.00">+</text>
<text text-anchor="start" x="172.5" y="-408.5" font-family="Helvetica,sans-Serif" font-size="10.00">OutputBank()</text>
<text text-anchor="start" x="159.5" y="-393.5" font-family="Helvetica,sans-Serif" font-size="10.00">+</text>
<text text-anchor="start" x="172.5" y="-393.5" font-family="Helvetica,sans-Serif" font-size="10.00">select()</text>
<text text-anchor="start" x="159.5" y="-378.5" font-family="Helvetica,sans-Serif" font-size="10.00">+</text>
<text text-anchor="start" x="172.5" y="-378.5" font-family="Helvetica,sans-Serif" font-size="10.00">getSelection()</text>
<text text-anchor="start" x="159.5" y="-363.5" font-family="Helvetica,sans-Serif" font-size="10.00">+</text>
<text text-anchor="start" x="172.5" y="-363.5" font-family="Helvetica,sans-Serif" font-size="10.00">getSelectionOffset()</text>
<text text-anchor="start" x="159.5" y="-348.5" font-family="Helvetica,sans-Serif" font-size="10.00">+</text>
<text text-anchor="start" x="172.5" y="-348.5" font-family="Helvetica,sans-Serif" font-size="10.00">getTracksPerBank()</text>
<text text-anchor="start" x="159.5" y="-333.5" font-family="Helvetica,sans-Serif" font-size="10.00">+</text>
<text text-anchor="start" x="172.5" y="-333.5" font-family="Helvetica,sans-Serif" font-size="10.00">getOffsetOfSetting()</text>
<text text-anchor="start" x="159.5" y="-318.5" font-family="Helvetica,sans-Serif" font-size="10.00">+</text>
<text text-anchor="start" x="172.5" y="-318.5" font-family="Helvetica,sans-Serif" font-size="10.00">getOffset()</text>
<polygon fill="#666666" stroke="#666666" points="155.5,-463.5 155.5,-463.5 275.5,-463.5 275.5,-463.5 155.5,-463.5"/>
<polygon fill="#666666" stroke="#666666" points="155.5,-418.5 155.5,-418.5 170.5,-418.5 170.5,-418.5 155.5,-418.5"/>
<polygon fill="#666666" stroke="#666666" points="170.5,-418.5 170.5,-418.5 275.5,-418.5 275.5,-418.5 170.5,-418.5"/>
<polygon fill="none" stroke="#666666" points="155.5,-312 155.5,-481 275.5,-481 275.5,-312 155.5,-312"/>
</a>
</g>
</g>
<!-- Node4&#45;&gt;Node2 -->
<g id="edge3_Node000002_Node000004" class="edge">
<title>Node4&#45;&gt;Node2</title>
<g id="a_edge3_Node000002_Node000004"><a xlink:title=" ">
<path fill="none" stroke="#63b8ff" d="M176.98,-302.58C173.23,-293.55 169.51,-284.56 165.96,-276"/>
<polygon fill="none" stroke="#63b8ff" points="173.82,-304.1 180.88,-312 180.29,-301.42 173.82,-304.1"/>
</a>
</g>
</g>
</g>
</svg>
