<?xml version="1.0" encoding="UTF-8" standalone="no"?>
<!DOCTYPE svg PUBLIC "-//W3C//DTD SVG 1.1//EN"
 "http://www.w3.org/Graphics/SVG/1.1/DTD/svg11.dtd">
<!-- Generated by graphviz version 2.43.0 (0)
 -->
<!-- Title: EncoderSelectorLEDs&lt; N &gt; Pages: 1 -->
<svg width="858pt" height="1071pt"
 viewBox="0.00 0.00 858.00 1071.00" xmlns="http://www.w3.org/2000/svg" xmlns:xlink="http://www.w3.org/1999/xlink">
<g id="graph0" class="graph" transform="scale(1 1) rotate(0) translate(4 1067)">
<title>EncoderSelectorLEDs&lt; N &gt;</title>
<polygon fill="white" stroke="transparent" points="-4,4 -4,-1067 854,-1067 854,4 -4,4"/>
<!-- Node1 -->
<g id="node1" class="node">
<title>Node1</title>
<g id="a_node1"><a xlink:title="Selector that reads from a rotary encoder. This version displays the setting using LEDs.">
<polygon fill="#bfbfbf" stroke="black" points="558,-0.5 558,-57.5 707,-57.5 707,-0.5 558,-0.5"/>
<text text-anchor="middle" x="632.5" y="-45.5" font-family="Helvetica,sans-Serif" font-size="10.00">EncoderSelectorLEDs&lt; N &gt;</text>
<polyline fill="none" stroke="black" points="558,-38.5 707,-38.5 "/>
<text text-anchor="middle" x="632.5" y="-26.5" font-family="Helvetica,sans-Serif" font-size="10.00"> </text>
<polyline fill="none" stroke="black" points="558,-19.5 707,-19.5 "/>
<text text-anchor="start" x="566" y="-7.5" font-family="Helvetica,sans-Serif" font-size="10.00">+ EncoderSelectorLEDs()</text>
</a>
</g>
</g>
<!-- Node2 -->
<g id="node2" class="node">
<title>Node2</title>
<g id="a_node2"><a xlink:href="../../da/dbf/classGenericEncoderSelector.html" target="_top" xlink:title=" ">
<polygon fill="white" stroke="black" points="556.5,-95.5 556.5,-229.5 708.5,-229.5 708.5,-95.5 556.5,-95.5"/>
<text text-anchor="start" x="564.5" y="-217.5" font-family="Helvetica,sans-Serif" font-size="10.00">GenericEncoderSelector</text>
<text text-anchor="start" x="564.5" y="-206.5" font-family="Helvetica,sans-Serif" font-size="10.00">&lt; N, SelectorLEDsCallback</text>
<text text-anchor="middle" x="632.5" y="-195.5" font-family="Helvetica,sans-Serif" font-size="10.00">&lt; N &gt; &gt;</text>
<polyline fill="none" stroke="black" points="556.5,-188.5 708.5,-188.5 "/>
<text text-anchor="start" x="564.5" y="-176.5" font-family="Helvetica,sans-Serif" font-size="10.00">&#45; pulsesPerStep</text>
<text text-anchor="start" x="564.5" y="-165.5" font-family="Helvetica,sans-Serif" font-size="10.00">&#45; wrap</text>
<text text-anchor="start" x="564.5" y="-154.5" font-family="Helvetica,sans-Serif" font-size="10.00">&#45; previousPosition</text>
<text text-anchor="start" x="564.5" y="-143.5" font-family="Helvetica,sans-Serif" font-size="10.00">&#45; previousSwitchState</text>
<polyline fill="none" stroke="black" points="556.5,-136.5 708.5,-136.5 "/>
<text text-anchor="start" x="564.5" y="-124.5" font-family="Helvetica,sans-Serif" font-size="10.00">+ GenericEncoderSelector()</text>
<text text-anchor="start" x="564.5" y="-113.5" font-family="Helvetica,sans-Serif" font-size="10.00">+ begin()</text>
<text text-anchor="start" x="564.5" y="-102.5" font-family="Helvetica,sans-Serif" font-size="10.00">+ update()</text>
</a>
</g>
</g>
<!-- Node2&#45;&gt;Node1 -->
<g id="edge1" class="edge">
<title>Node2&#45;&gt;Node1</title>
<path fill="none" stroke="midnightblue" d="M632.5,-85.12C632.5,-75.36 632.5,-65.92 632.5,-57.7"/>
<polygon fill="none" stroke="midnightblue" points="629,-85.36 632.5,-95.36 636,-85.36 629,-85.36"/>
</g>
<!-- Node3 -->
<g id="node3" class="node">
<title>Node3</title>
<g id="a_node3"><a xlink:href="../../d0/d04/classGenericSelector.html" target="_top" xlink:title=" ">
<polygon fill="white" stroke="black" points="78,-349 78,-505 203,-505 203,-349 78,-349"/>
<text text-anchor="start" x="86" y="-493" font-family="Helvetica,sans-Serif" font-size="10.00">GenericSelector&lt; N,</text>
<text text-anchor="start" x="86" y="-482" font-family="Helvetica,sans-Serif" font-size="10.00"> SelectorLEDsCallback</text>
<text text-anchor="middle" x="140.5" y="-471" font-family="Helvetica,sans-Serif" font-size="10.00">&lt; N &gt; &gt;</text>
<polyline fill="none" stroke="black" points="78,-464 203,-464 "/>
<text text-anchor="start" x="86" y="-452" font-family="Helvetica,sans-Serif" font-size="10.00">+ callback</text>
<text text-anchor="start" x="86" y="-441" font-family="Helvetica,sans-Serif" font-size="10.00">&#45; selectable</text>
<polyline fill="none" stroke="black" points="78,-434 203,-434 "/>
<text text-anchor="start" x="86" y="-422" font-family="Helvetica,sans-Serif" font-size="10.00">+ GenericSelector()</text>
<text text-anchor="start" x="86" y="-411" font-family="Helvetica,sans-Serif" font-size="10.00">+ begin()</text>
<text text-anchor="start" x="86" y="-400" font-family="Helvetica,sans-Serif" font-size="10.00">+ update()</text>
<text text-anchor="start" x="86" y="-389" font-family="Helvetica,sans-Serif" font-size="10.00">+ reset()</text>
<text text-anchor="start" x="86" y="-378" font-family="Helvetica,sans-Serif" font-size="10.00">+ set()</text>
<text text-anchor="start" x="86" y="-367" font-family="Helvetica,sans-Serif" font-size="10.00">+ increment()</text>
<text text-anchor="start" x="86" y="-356" font-family="Helvetica,sans-Serif" font-size="10.00">+ decrement()</text>
</a>
</g>
</g>
<!-- Node3&#45;&gt;Node2 -->
<g id="edge2" class="edge">
<title>Node3&#45;&gt;Node2</title>
<path fill="none" stroke="midnightblue" d="M166.65,-339.48C177.3,-316.39 191.87,-293.36 211.5,-277 310.65,-194.37 464.48,-171.46 556.17,-165.37"/>
<polygon fill="none" stroke="midnightblue" points="163.44,-338.09 162.61,-348.65 169.84,-340.91 163.44,-338.09"/>
</g>
<!-- Node4 -->
<g id="node4" class="node">
<title>Node4</title>
<g id="a_node4"><a xlink:href="../../dc/d77/classSelectorBase.html" target="_top" xlink:title="Base class for all Selectors exposing the get method, so it can be used by display elements etc,...">
<polygon fill="white" stroke="black" points="0,-679.5 0,-747.5 99,-747.5 99,-679.5 0,-679.5"/>
<text text-anchor="middle" x="49.5" y="-735.5" font-family="Helvetica,sans-Serif" font-size="10.00">SelectorBase</text>
<polyline fill="none" stroke="black" points="0,-728.5 99,-728.5 "/>
<text text-anchor="start" x="8" y="-716.5" font-family="Helvetica,sans-Serif" font-size="10.00"># setting</text>
<polyline fill="none" stroke="black" points="0,-709.5 99,-709.5 "/>
<text text-anchor="start" x="8" y="-697.5" font-family="Helvetica,sans-Serif" font-size="10.00">+ get()</text>
<text text-anchor="start" x="8" y="-686.5" font-family="Helvetica,sans-Serif" font-size="10.00"># SelectorBase()</text>
</a>
</g>
</g>
<!-- Node4&#45;&gt;Node3 -->
<g id="edge3" class="edge">
<title>Node4&#45;&gt;Node3</title>
<path fill="none" stroke="midnightblue" d="M63.22,-669.62C77.12,-626.16 98.93,-557.96 115.84,-505.09"/>
<polygon fill="none" stroke="midnightblue" points="59.83,-668.72 60.12,-679.31 66.5,-670.85 59.83,-668.72"/>
</g>
<!-- Node5 -->
<g id="node5" class="node">
<title>Node5</title>
<g id="a_node5"><a xlink:href="../../d1/d55/classAH_1_1Updatable.html" target="_top" xlink:title="A super class for object that have to be updated regularly.">
<polygon fill="white" stroke="black" points="117,-668.5 117,-758.5 212,-758.5 212,-668.5 117,-668.5"/>
<text text-anchor="middle" x="164.5" y="-746.5" font-family="Helvetica,sans-Serif" font-size="10.00">Updatable&lt; T &gt;</text>
<polyline fill="none" stroke="black" points="117,-739.5 212,-739.5 "/>
<text text-anchor="middle" x="164.5" y="-727.5" font-family="Helvetica,sans-Serif" font-size="10.00"> </text>
<polyline fill="none" stroke="black" points="117,-720.5 212,-720.5 "/>
<text text-anchor="start" x="125" y="-708.5" font-family="Helvetica,sans-Serif" font-size="10.00">* begin()</text>
<text text-anchor="start" x="125" y="-697.5" font-family="Helvetica,sans-Serif" font-size="10.00">* update()</text>
<text text-anchor="start" x="125" y="-686.5" font-family="Helvetica,sans-Serif" font-size="10.00">* beginAll()</text>
<text text-anchor="start" x="125" y="-675.5" font-family="Helvetica,sans-Serif" font-size="10.00">* updateAll()</text>
</a>
</g>
</g>
<!-- Node5&#45;&gt;Node3 -->
<g id="edge4" class="edge">
<title>Node5&#45;&gt;Node3</title>
<path fill="none" stroke="midnightblue" d="M159.93,-658.3C156.27,-614.99 151.1,-553.71 147.02,-505.25"/>
<polygon fill="none" stroke="midnightblue" points="156.45,-658.69 160.78,-668.36 163.42,-658.1 156.45,-658.69"/>
</g>
<!-- Node6 -->
<g id="node6" class="node">
<title>Node6</title>
<g id="a_node6"><a xlink:href="../../d8/d1a/classAH_1_1UpdatableCRTP.html" target="_top" xlink:title=" ">
<polygon fill="white" stroke="black" points="199,-829.5 199,-1062.5 352,-1062.5 352,-829.5 199,-829.5"/>
<text text-anchor="start" x="207" y="-1050.5" font-family="Helvetica,sans-Serif" font-size="10.00">UpdatableCRTP&lt; Updatable</text>
<text text-anchor="middle" x="275.5" y="-1039.5" font-family="Helvetica,sans-Serif" font-size="10.00">&lt; NormalUpdatable &gt; &gt;</text>
<polyline fill="none" stroke="black" points="199,-1032.5 352,-1032.5 "/>
<text text-anchor="middle" x="275.5" y="-1020.5" font-family="Helvetica,sans-Serif" font-size="10.00"> </text>
<polyline fill="none" stroke="black" points="199,-1013.5 352,-1013.5 "/>
<text text-anchor="start" x="207" y="-1001.5" font-family="Helvetica,sans-Serif" font-size="10.00">+ ~UpdatableCRTP()</text>
<text text-anchor="start" x="207" y="-990.5" font-family="Helvetica,sans-Serif" font-size="10.00"># UpdatableCRTP()</text>
<text text-anchor="start" x="207" y="-979.5" font-family="Helvetica,sans-Serif" font-size="10.00"># UpdatableCRTP()</text>
<text text-anchor="start" x="207" y="-968.5" font-family="Helvetica,sans-Serif" font-size="10.00"># UpdatableCRTP()</text>
<text text-anchor="start" x="207" y="-957.5" font-family="Helvetica,sans-Serif" font-size="10.00"># operator=()</text>
<text text-anchor="start" x="207" y="-946.5" font-family="Helvetica,sans-Serif" font-size="10.00"># operator=()</text>
<text text-anchor="start" x="207" y="-935.5" font-family="Helvetica,sans-Serif" font-size="10.00">* enable()</text>
<text text-anchor="start" x="207" y="-924.5" font-family="Helvetica,sans-Serif" font-size="10.00">* disable()</text>
<text text-anchor="start" x="207" y="-913.5" font-family="Helvetica,sans-Serif" font-size="10.00">* isEnabled()</text>
<text text-anchor="start" x="207" y="-902.5" font-family="Helvetica,sans-Serif" font-size="10.00">* moveDown()</text>
<text text-anchor="start" x="207" y="-891.5" font-family="Helvetica,sans-Serif" font-size="10.00">* enable()</text>
<text text-anchor="start" x="207" y="-880.5" font-family="Helvetica,sans-Serif" font-size="10.00">* enable()</text>
<text text-anchor="start" x="207" y="-869.5" font-family="Helvetica,sans-Serif" font-size="10.00">* enable()</text>
<text text-anchor="start" x="207" y="-858.5" font-family="Helvetica,sans-Serif" font-size="10.00">* disable()</text>
<text text-anchor="start" x="207" y="-847.5" font-family="Helvetica,sans-Serif" font-size="10.00">* disable()</text>
<text text-anchor="start" x="207" y="-836.5" font-family="Helvetica,sans-Serif" font-size="10.00">* disable()</text>
</a>
</g>
</g>
<!-- Node6&#45;&gt;Node5 -->
<g id="edge5" class="edge">
<title>Node6&#45;&gt;Node5</title>
<path fill="none" stroke="midnightblue" d="M215.42,-820.24C204.76,-798.09 194.32,-776.42 185.7,-758.52"/>
<polygon fill="none" stroke="midnightblue" points="212.35,-821.92 219.84,-829.41 218.65,-818.88 212.35,-821.92"/>
</g>
<!-- Node8 -->
<g id="node8" class="node">
<title>Node8</title>
<g id="a_node8"><a xlink:href="../../d1/d55/classAH_1_1Updatable.html" target="_top" xlink:title=" ">
<polygon fill="white" stroke="black" points="268.5,-668.5 268.5,-758.5 444.5,-758.5 444.5,-668.5 268.5,-668.5"/>
<text text-anchor="middle" x="356.5" y="-746.5" font-family="Helvetica,sans-Serif" font-size="10.00">Updatable&lt; NormalUpdatable &gt;</text>
<polyline fill="none" stroke="black" points="268.5,-739.5 444.5,-739.5 "/>
<text text-anchor="middle" x="356.5" y="-727.5" font-family="Helvetica,sans-Serif" font-size="10.00"> </text>
<polyline fill="none" stroke="black" points="268.5,-720.5 444.5,-720.5 "/>
<text text-anchor="start" x="276.5" y="-708.5" font-family="Helvetica,sans-Serif" font-size="10.00">* begin()</text>
<text text-anchor="start" x="276.5" y="-697.5" font-family="Helvetica,sans-Serif" font-size="10.00">* update()</text>
<text text-anchor="start" x="276.5" y="-686.5" font-family="Helvetica,sans-Serif" font-size="10.00">* beginAll()</text>
<text text-anchor="start" x="276.5" y="-675.5" font-family="Helvetica,sans-Serif" font-size="10.00">* updateAll()</text>
</a>
</g>
</g>
<!-- Node6&#45;&gt;Node8 -->
<g id="edge8" class="edge">
<title>Node6&#45;&gt;Node8</title>
<path fill="none" stroke="midnightblue" d="M319.45,-819.95C327.19,-797.9 334.77,-776.34 341.03,-758.52"/>
<polygon fill="none" stroke="midnightblue" points="316.13,-818.82 316.12,-829.41 322.74,-821.14 316.13,-818.82"/>
</g>
<!-- Node7 -->
<g id="node7" class="node">
<title>Node7</title>
<g id="a_node7"><a xlink:href="../../d4/d23/classDoublyLinkable.html" target="_top" xlink:title=" ">
<polygon fill="white" stroke="black" points="221,-365.5 221,-488.5 374,-488.5 374,-365.5 221,-365.5"/>
<text text-anchor="start" x="229" y="-476.5" font-family="Helvetica,sans-Serif" font-size="10.00">DoublyLinkable&lt; Updatable</text>
<text text-anchor="middle" x="297.5" y="-465.5" font-family="Helvetica,sans-Serif" font-size="10.00">&lt; NormalUpdatable &gt; &gt;</text>
<polyline fill="none" stroke="black" points="221,-458.5 374,-458.5 "/>
<text text-anchor="middle" x="297.5" y="-446.5" font-family="Helvetica,sans-Serif" font-size="10.00"> </text>
<polyline fill="none" stroke="black" points="221,-439.5 374,-439.5 "/>
<text text-anchor="start" x="229" y="-427.5" font-family="Helvetica,sans-Serif" font-size="10.00"># ~DoublyLinkable()</text>
<text text-anchor="start" x="229" y="-416.5" font-family="Helvetica,sans-Serif" font-size="10.00"># DoublyLinkable()</text>
<text text-anchor="start" x="229" y="-405.5" font-family="Helvetica,sans-Serif" font-size="10.00"># DoublyLinkable()</text>
<text text-anchor="start" x="229" y="-394.5" font-family="Helvetica,sans-Serif" font-size="10.00"># DoublyLinkable()</text>
<text text-anchor="start" x="229" y="-383.5" font-family="Helvetica,sans-Serif" font-size="10.00"># operator=()</text>
<text text-anchor="start" x="229" y="-372.5" font-family="Helvetica,sans-Serif" font-size="10.00"># operator=()</text>
</a>
</g>
</g>
<!-- Node7&#45;&gt;Node6 -->
<g id="edge6" class="edge">
<title>Node7&#45;&gt;Node6</title>
<path fill="none" stroke="midnightblue" d="M281.25,-498.61C272.92,-538.42 263.67,-589.21 259.5,-635 253.17,-704.49 255.87,-722.32 259.5,-792 260.13,-804.14 261.05,-816.79 262.12,-829.4"/>
<polygon fill="none" stroke="midnightblue" points="284.69,-499.25 283.35,-488.74 277.85,-497.79 284.69,-499.25"/>
</g>
<!-- Node8&#45;&gt;Node7 -->
<g id="edge7" class="edge">
<title>Node8&#45;&gt;Node7</title>
<path fill="none" stroke="#404040" d="M347.35,-668.36C338.07,-623.62 323.55,-553.63 312.57,-500.69"/>
<polygon fill="none" stroke="#404040" points="312.51,-500.4 307.38,-495.33 310.08,-488.65 315.21,-493.71 312.51,-500.4"/>
<text text-anchor="middle" x="362" y="-609" font-family="Helvetica,sans-Serif" font-size="10.00"> #next</text>
<text text-anchor="middle" x="362" y="-598" font-family="Helvetica,sans-Serif" font-size="10.00">#previous</text>
</g>
<!-- Node9 -->
<g id="node9" class="node">
<title>Node9</title>
<g id="a_node9"><a xlink:href="../../dd/d16/classDoublyLinkedList.html" target="_top" xlink:title=" ">
<polygon fill="white" stroke="black" points="392,-277.5 392,-576.5 553,-576.5 553,-277.5 392,-277.5"/>
<text text-anchor="start" x="400" y="-564.5" font-family="Helvetica,sans-Serif" font-size="10.00">DoublyLinkedList&lt; Updatable</text>
<text text-anchor="middle" x="472.5" y="-553.5" font-family="Helvetica,sans-Serif" font-size="10.00">&lt; NormalUpdatable &gt; &gt;</text>
<polyline fill="none" stroke="black" points="392,-546.5 553,-546.5 "/>
<text text-anchor="middle" x="472.5" y="-534.5" font-family="Helvetica,sans-Serif" font-size="10.00"> </text>
<polyline fill="none" stroke="black" points="392,-527.5 553,-527.5 "/>
<text text-anchor="start" x="400" y="-515.5" font-family="Helvetica,sans-Serif" font-size="10.00">+ append()</text>
<text text-anchor="start" x="400" y="-504.5" font-family="Helvetica,sans-Serif" font-size="10.00">+ append()</text>
<text text-anchor="start" x="400" y="-493.5" font-family="Helvetica,sans-Serif" font-size="10.00">+ insertBefore()</text>
<text text-anchor="start" x="400" y="-482.5" font-family="Helvetica,sans-Serif" font-size="10.00">+ insertBefore()</text>
<text text-anchor="start" x="400" y="-471.5" font-family="Helvetica,sans-Serif" font-size="10.00">+ insertSorted()</text>
<text text-anchor="start" x="400" y="-460.5" font-family="Helvetica,sans-Serif" font-size="10.00">+ insertSorted()</text>
<text text-anchor="start" x="400" y="-449.5" font-family="Helvetica,sans-Serif" font-size="10.00">+ remove()</text>
<text text-anchor="start" x="400" y="-438.5" font-family="Helvetica,sans-Serif" font-size="10.00">+ remove()</text>
<text text-anchor="start" x="400" y="-427.5" font-family="Helvetica,sans-Serif" font-size="10.00">+ moveDown()</text>
<text text-anchor="start" x="400" y="-416.5" font-family="Helvetica,sans-Serif" font-size="10.00">+ moveDown()</text>
<text text-anchor="start" x="400" y="-405.5" font-family="Helvetica,sans-Serif" font-size="10.00">+ couldContain()</text>
<text text-anchor="start" x="400" y="-394.5" font-family="Helvetica,sans-Serif" font-size="10.00">+ couldContain()</text>
<text text-anchor="start" x="400" y="-383.5" font-family="Helvetica,sans-Serif" font-size="10.00">+ begin()</text>
<text text-anchor="start" x="400" y="-372.5" font-family="Helvetica,sans-Serif" font-size="10.00">+ begin()</text>
<text text-anchor="start" x="400" y="-361.5" font-family="Helvetica,sans-Serif" font-size="10.00">+ end()</text>
<text text-anchor="start" x="400" y="-350.5" font-family="Helvetica,sans-Serif" font-size="10.00">+ end()</text>
<text text-anchor="start" x="400" y="-339.5" font-family="Helvetica,sans-Serif" font-size="10.00">+ rbegin()</text>
<text text-anchor="start" x="400" y="-328.5" font-family="Helvetica,sans-Serif" font-size="10.00">+ rbegin()</text>
<text text-anchor="start" x="400" y="-317.5" font-family="Helvetica,sans-Serif" font-size="10.00">+ rend()</text>
<text text-anchor="start" x="400" y="-306.5" font-family="Helvetica,sans-Serif" font-size="10.00">+ rend()</text>
<text text-anchor="start" x="400" y="-295.5" font-family="Helvetica,sans-Serif" font-size="10.00">+ getFirst()</text>
<text text-anchor="start" x="400" y="-284.5" font-family="Helvetica,sans-Serif" font-size="10.00">+ getLast()</text>
</a>
</g>
</g>
<!-- Node8&#45;&gt;Node9 -->
<g id="edge10" class="edge">
<title>Node8&#45;&gt;Node9</title>
<path fill="none" stroke="#404040" d="M374.5,-668.36C383.58,-646.08 395.22,-617.53 407.28,-587.95"/>
<polygon fill="none" stroke="#404040" points="407.39,-587.69 405.95,-580.62 411.92,-576.58 413.36,-583.64 407.39,-587.69"/>
<text text-anchor="middle" x="417.5" y="-609" font-family="Helvetica,sans-Serif" font-size="10.00"> &#45;first</text>
<text text-anchor="middle" x="417.5" y="-598" font-family="Helvetica,sans-Serif" font-size="10.00">&#45;last</text>
</g>
<!-- Node9&#45;&gt;Node6 -->
<g id="edge9" class="edge">
<title>Node9&#45;&gt;Node6</title>
<path fill="none" stroke="#404040" d="M490.71,-576.85C492.76,-645.54 485.79,-726.25 453.5,-792 433.39,-832.96 396.82,-867.36 362.03,-893.1"/>
<polygon fill="none" stroke="#404040" points="362.02,-893.11 359.49,-899.86 352.28,-900.13 354.81,-893.37 362.02,-893.11"/>
<text text-anchor="middle" x="523.5" y="-711" font-family="Helvetica,sans-Serif" font-size="10.00"> #updatables</text>
</g>
<!-- Node10 -->
<g id="node10" class="node">
<title>Node10</title>
<g id="a_node10"><a xlink:href="../../dd/da9/classAHEncoder.html" target="_top" xlink:title="Class for reading quadrature encoders, heavily influenced by http://www.pjrc.com/teensy/td_libs_Encod...">
<polygon fill="white" stroke="black" points="571.5,-310.5 571.5,-543.5 693.5,-543.5 693.5,-310.5 571.5,-310.5"/>
<text text-anchor="middle" x="632.5" y="-531.5" font-family="Helvetica,sans-Serif" font-size="10.00">AHEncoder</text>
<polyline fill="none" stroke="black" points="571.5,-524.5 693.5,-524.5 "/>
<text text-anchor="start" x="579.5" y="-512.5" font-family="Helvetica,sans-Serif" font-size="10.00">&#45; pins</text>
<text text-anchor="start" x="579.5" y="-501.5" font-family="Helvetica,sans-Serif" font-size="10.00">&#45; interrupts_in_use</text>
<text text-anchor="start" x="579.5" y="-490.5" font-family="Helvetica,sans-Serif" font-size="10.00">&#45; state</text>
<polyline fill="none" stroke="black" points="571.5,-483.5 693.5,-483.5 "/>
<text text-anchor="start" x="579.5" y="-471.5" font-family="Helvetica,sans-Serif" font-size="10.00">+ AHEncoder()</text>
<text text-anchor="start" x="579.5" y="-460.5" font-family="Helvetica,sans-Serif" font-size="10.00">+ AHEncoder()</text>
<text text-anchor="start" x="579.5" y="-449.5" font-family="Helvetica,sans-Serif" font-size="10.00">+ operator=()</text>
<text text-anchor="start" x="579.5" y="-438.5" font-family="Helvetica,sans-Serif" font-size="10.00">+ AHEncoder()</text>
<text text-anchor="start" x="579.5" y="-427.5" font-family="Helvetica,sans-Serif" font-size="10.00">+ operator=()</text>
<text text-anchor="start" x="579.5" y="-416.5" font-family="Helvetica,sans-Serif" font-size="10.00">+ ~AHEncoder()</text>
<text text-anchor="start" x="579.5" y="-405.5" font-family="Helvetica,sans-Serif" font-size="10.00">+ begin()</text>
<text text-anchor="start" x="579.5" y="-394.5" font-family="Helvetica,sans-Serif" font-size="10.00">+ end()</text>
<text text-anchor="start" x="579.5" y="-383.5" font-family="Helvetica,sans-Serif" font-size="10.00">+ read()</text>
<text text-anchor="start" x="579.5" y="-372.5" font-family="Helvetica,sans-Serif" font-size="10.00">+ readAndReset()</text>
<text text-anchor="start" x="579.5" y="-361.5" font-family="Helvetica,sans-Serif" font-size="10.00">+ write()</text>
<text text-anchor="start" x="579.5" y="-350.5" font-family="Helvetica,sans-Serif" font-size="10.00">&#45; attachInterruptCtx()</text>
<text text-anchor="start" x="579.5" y="-339.5" font-family="Helvetica,sans-Serif" font-size="10.00">&#45; detachInterruptCtx()</text>
<text text-anchor="start" x="579.5" y="-328.5" font-family="Helvetica,sans-Serif" font-size="10.00">&#45; update()</text>
<text text-anchor="start" x="579.5" y="-317.5" font-family="Helvetica,sans-Serif" font-size="10.00">&#45; get_isr()</text>
</a>
</g>
</g>
<!-- Node10&#45;&gt;Node2 -->
<g id="edge11" class="edge">
<title>Node10&#45;&gt;Node2</title>
<path fill="none" stroke="#404040" d="M632.5,-310.48C632.5,-287.26 632.5,-263.38 632.5,-241.79"/>
<polygon fill="none" stroke="#404040" points="632.5,-241.71 628.5,-235.71 632.5,-229.71 636.5,-235.71 632.5,-241.71"/>
<text text-anchor="middle" x="655.5" y="-251" font-family="Helvetica,sans-Serif" font-size="10.00"> &#45;encoder</text>
</g>
<!-- Node10&#45;&gt;Node10 -->
<g id="edge14" class="edge">
<title>Node10&#45;&gt;Node10</title>
<path fill="none" stroke="#404040" d="M693.78,-457.11C704.25,-452.99 711.5,-442.96 711.5,-427 711.5,-417.03 708.67,-409.37 703.99,-404.02"/>
<polygon fill="none" stroke="#404040" points="703.62,-403.76 696.41,-403.61 693.78,-396.89 700.99,-397.05 703.62,-403.76"/>
<text text-anchor="middle" x="751" y="-424.5" font-family="Helvetica,sans-Serif" font-size="10.00"> &#45;instance_table</text>
</g>
<!-- Node11 -->
<g id="node11" class="node">
<title>Node11</title>
<g id="a_node11"><a xlink:href="../../dc/d9d/structDirectPinRead.html" target="_top" xlink:title=" ">
<polygon fill="white" stroke="black" points="580.5,-685 580.5,-742 666.5,-742 666.5,-685 580.5,-685"/>
<text text-anchor="middle" x="623.5" y="-730" font-family="Helvetica,sans-Serif" font-size="10.00">DirectPinRead</text>
<polyline fill="none" stroke="black" points="580.5,-723 666.5,-723 "/>
<text text-anchor="start" x="588.5" y="-711" font-family="Helvetica,sans-Serif" font-size="10.00">+ pin</text>
<polyline fill="none" stroke="black" points="580.5,-704 666.5,-704 "/>
<text text-anchor="start" x="588.5" y="-692" font-family="Helvetica,sans-Serif" font-size="10.00">+ read()</text>
</a>
</g>
</g>
<!-- Node11&#45;&gt;Node10 -->
<g id="edge12" class="edge">
<title>Node11&#45;&gt;Node10</title>
<path fill="none" stroke="#404040" d="M624.37,-684.96C625.32,-654.82 626.92,-604.32 628.45,-556.03"/>
<polygon fill="none" stroke="#404040" points="628.46,-555.8 624.65,-549.68 628.84,-543.81 632.64,-549.93 628.46,-555.8"/>
<text text-anchor="middle" x="658" y="-603.5" font-family="Helvetica,sans-Serif" font-size="10.00"> &#45;direct_pins</text>
</g>
<!-- Node12 -->
<g id="node12" class="node">
<title>Node12</title>
<g id="a_node12"><a xlink:href="../../de/d62/structAtomicPosition.html" target="_top" xlink:title=" ">
<polygon fill="white" stroke="black" points="684.5,-635.5 684.5,-791.5 830.5,-791.5 830.5,-635.5 684.5,-635.5"/>
<text text-anchor="middle" x="757.5" y="-779.5" font-family="Helvetica,sans-Serif" font-size="10.00">AtomicPosition&lt; int32_t &gt;</text>
<polyline fill="none" stroke="black" points="684.5,-772.5 830.5,-772.5 "/>
<text text-anchor="start" x="692.5" y="-760.5" font-family="Helvetica,sans-Serif" font-size="10.00">+ value</text>
<polyline fill="none" stroke="black" points="684.5,-753.5 830.5,-753.5 "/>
<text text-anchor="start" x="692.5" y="-741.5" font-family="Helvetica,sans-Serif" font-size="10.00">+ AtomicPosition()</text>
<text text-anchor="start" x="692.5" y="-730.5" font-family="Helvetica,sans-Serif" font-size="10.00">+ AtomicPosition()</text>
<text text-anchor="start" x="692.5" y="-719.5" font-family="Helvetica,sans-Serif" font-size="10.00">+ AtomicPosition()</text>
<text text-anchor="start" x="692.5" y="-708.5" font-family="Helvetica,sans-Serif" font-size="10.00">+ operator=()</text>
<text text-anchor="start" x="692.5" y="-697.5" font-family="Helvetica,sans-Serif" font-size="10.00">+ operator=()</text>
<text text-anchor="start" x="692.5" y="-686.5" font-family="Helvetica,sans-Serif" font-size="10.00">+ add()</text>
<text text-anchor="start" x="692.5" y="-675.5" font-family="Helvetica,sans-Serif" font-size="10.00">+ get()</text>
<text text-anchor="start" x="692.5" y="-664.5" font-family="Helvetica,sans-Serif" font-size="10.00">+ set()</text>
<text text-anchor="start" x="692.5" y="-653.5" font-family="Helvetica,sans-Serif" font-size="10.00">+ xchg()</text>
<text text-anchor="start" x="692.5" y="-642.5" font-family="Helvetica,sans-Serif" font-size="10.00">+ add_isr()</text>
</a>
</g>
</g>
<!-- Node12&#45;&gt;Node10 -->
<g id="edge13" class="edge">
<title>Node12&#45;&gt;Node10</title>
<path fill="none" stroke="#404040" d="M723.51,-635.13C712.61,-610.33 700.24,-582.18 688.21,-554.8"/>
<polygon fill="none" stroke="#404040" points="688.09,-554.53 682.02,-550.64 683.27,-543.54 689.34,-547.43 688.09,-554.53"/>
<text text-anchor="middle" x="736.5" y="-603.5" font-family="Helvetica,sans-Serif" font-size="10.00"> &#45;position</text>
</g>
<!-- Node13 -->
<g id="node13" class="node">
<title>Node13</title>
<g id="a_node13"><a xlink:title=" ">
<polygon fill="white" stroke="black" points="809,-398.5 809,-455.5 850,-455.5 850,-398.5 809,-398.5"/>
<text text-anchor="middle" x="829.5" y="-443.5" font-family="Helvetica,sans-Serif" font-size="10.00">pin_t</text>
<polyline fill="none" stroke="black" points="809,-436.5 850,-436.5 "/>
<text text-anchor="middle" x="829.5" y="-424.5" font-family="Helvetica,sans-Serif" font-size="10.00"> </text>
<polyline fill="none" stroke="black" points="809,-417.5 850,-417.5 "/>
<text text-anchor="middle" x="829.5" y="-405.5" font-family="Helvetica,sans-Serif" font-size="10.00"> </text>
</a>
</g>
</g>
<!-- Node13&#45;&gt;Node2 -->
<g id="edge15" class="edge">
<title>Node13&#45;&gt;Node2</title>
<path fill="none" stroke="#404040" d="M830,-398.38C829.28,-366.56 824.03,-313.93 799.5,-277 779.64,-247.09 748.93,-222.95 719.25,-204.74"/>
<polygon fill="none" stroke="#404040" points="719.13,-204.67 711.93,-205.05 708.81,-198.55 716.01,-198.17 719.13,-204.67"/>
<text text-anchor="middle" x="809.5" y="-251" font-family="Helvetica,sans-Serif" font-size="10.00"> &#45;switchPin</text>
</g>
</g>
</svg>
