<?xml version="1.0" encoding="UTF-8" standalone="no"?>
<!DOCTYPE svg PUBLIC "-//W3C//DTD SVG 1.1//EN"
 "http://www.w3.org/Graphics/SVG/1.1/DTD/svg11.dtd">
<!-- Generated by graphviz version 2.43.0 (0)
 -->
<!-- Title: round_div_helper&lt; N, T &gt; Pages: 1 -->
<svg width="151pt" height="160pt"
 viewBox="0.00 0.00 151.00 160.00" xmlns="http://www.w3.org/2000/svg" xmlns:xlink="http://www.w3.org/1999/xlink">
<g id="graph0" class="graph" transform="scale(1 1) rotate(0) translate(4 156)">
<title>round_div_helper&lt; N, T &gt;</title>
<polygon fill="white" stroke="transparent" points="-4,4 -4,-156 147,-156 147,4 -4,4"/>
<!-- Node1 -->
<g id="node1" class="node">
<title>Node1</title>
<g id="a_node1"><a xlink:title="Select the right rounding division operator, depending on whether T is an integer or not.">
<polygon fill="#bfbfbf" stroke="black" points="0,-0.5 0,-57.5 143,-57.5 143,-0.5 0,-0.5"/>
<text text-anchor="middle" x="71.5" y="-45.5" font-family="Helvetica,sans-Serif" font-size="10.00">round_div_helper&lt; N, T &gt;</text>
<polyline fill="none" stroke="black" points="0,-38.5 143,-38.5 "/>
<text text-anchor="middle" x="71.5" y="-26.5" font-family="Helvetica,sans-Serif" font-size="10.00"> </text>
<polyline fill="none" stroke="black" points="0,-19.5 143,-19.5 "/>
<text text-anchor="middle" x="71.5" y="-7.5" font-family="Helvetica,sans-Serif" font-size="10.00"> </text>
</a>
</g>
</g>
<!-- Node2 -->
<g id="node2" class="node">
<title>Node2</title>
<g id="a_node2"><a xlink:title=" ">
<polygon fill="white" stroke="black" points="52.5,-94.5 52.5,-151.5 90.5,-151.5 90.5,-94.5 52.5,-94.5"/>
<text text-anchor="middle" x="71.5" y="-139.5" font-family="Helvetica,sans-Serif" font-size="10.00">type</text>
<polyline fill="none" stroke="black" points="52.5,-132.5 90.5,-132.5 "/>
<text text-anchor="middle" x="71.5" y="-120.5" font-family="Helvetica,sans-Serif" font-size="10.00"> </text>
<polyline fill="none" stroke="black" points="52.5,-113.5 90.5,-113.5 "/>
<text text-anchor="middle" x="71.5" y="-101.5" font-family="Helvetica,sans-Serif" font-size="10.00"> </text>
</a>
</g>
</g>
<!-- Node2&#45;&gt;Node1 -->
<g id="edge1" class="edge">
<title>Node2&#45;&gt;Node1</title>
<path fill="none" stroke="midnightblue" d="M71.5,-84.21C71.5,-75.29 71.5,-65.95 71.5,-57.58"/>
<polygon fill="none" stroke="midnightblue" points="68,-84.4 71.5,-94.4 75,-84.4 68,-84.4"/>
</g>
</g>
</svg>
