<?xml version="1.0" encoding="UTF-8" standalone="no"?>
<!DOCTYPE svg PUBLIC "-//W3C//DTD SVG 1.1//EN"
 "http://www.w3.org/Graphics/SVG/1.1/DTD/svg11.dtd">
<!-- Generated by graphviz version 2.43.0 (0)
 -->
<!-- Title: SettingsWrapper.hpp Pages: 1 -->
<svg width="1054pt" height="364pt"
 viewBox="0.00 0.00 1054.29 364.00" xmlns="http://www.w3.org/2000/svg" xmlns:xlink="http://www.w3.org/1999/xlink">
<g id="graph0" class="graph" transform="scale(1 1) rotate(0) translate(4 360)">
<title>SettingsWrapper.hpp</title>
<polygon fill="white" stroke="transparent" points="-4,4 -4,-360 1050.29,-360 1050.29,4 -4,4"/>
<!-- Node1 -->
<g id="node1" class="node">
<title>Node1</title>
<g id="a_node1"><a xlink:title=" ">
<polygon fill="#bfbfbf" stroke="black" points="572.91,-336.5 572.91,-355.5 690.91,-355.5 690.91,-336.5 572.91,-336.5"/>
<text text-anchor="middle" x="631.91" y="-343.5" font-family="Helvetica,sans-Serif" font-size="10.00">SettingsWrapper.hpp</text>
</a>
</g>
</g>
<!-- Node2 -->
<g id="node2" class="node">
<title>Node2</title>
<g id="a_node2"><a xlink:href="../../d1/d65/Warnings_8hpp.html" target="_top" xlink:title=" ">
<polygon fill="white" stroke="black" points="426.41,-0.5 426.41,-19.5 569.41,-19.5 569.41,-0.5 426.41,-0.5"/>
<text text-anchor="middle" x="497.91" y="-7.5" font-family="Helvetica,sans-Serif" font-size="10.00">AH/Settings/Warnings.hpp</text>
</a>
</g>
</g>
<!-- Node1&#45;&gt;Node2 -->
<g id="edge1" class="edge">
<title>Node1&#45;&gt;Node2</title>
<path fill="none" stroke="midnightblue" d="M691.02,-345.26C781.53,-344.43 948.66,-337.66 992.91,-300 1015.83,-280.49 1011.91,-265.1 1011.91,-235 1011.91,-235 1011.91,-235 1011.91,-121 1011.91,-33.72 724.94,-15.46 579.85,-11.8"/>
<polygon fill="midnightblue" stroke="midnightblue" points="579.73,-8.3 569.65,-11.56 579.57,-15.3 579.73,-8.3"/>
</g>
<!-- Node3 -->
<g id="node3" class="node">
<title>Node3</title>
<g id="a_node3"><a xlink:href="../../dc/dc7/NamespaceSettings_8hpp.html" target="_top" xlink:title=" ">
<polygon fill="white" stroke="black" points="334.41,-56.5 334.41,-75.5 469.41,-75.5 469.41,-56.5 334.41,-56.5"/>
<text text-anchor="middle" x="401.91" y="-63.5" font-family="Helvetica,sans-Serif" font-size="10.00">NamespaceSettings.hpp</text>
</a>
</g>
</g>
<!-- Node1&#45;&gt;Node3 -->
<g id="edge2" class="edge">
<title>Node1&#45;&gt;Node3</title>
<path fill="none" stroke="midnightblue" d="M572.64,-341.58C504.79,-334.09 402.91,-310.31 402.91,-235 402.91,-235 402.91,-235 402.91,-177 402.91,-144.95 402.48,-107.64 402.18,-85.75"/>
<polygon fill="midnightblue" stroke="midnightblue" points="405.68,-85.51 402.04,-75.56 398.68,-85.61 405.68,-85.51"/>
</g>
<!-- Node4 -->
<g id="node4" class="node">
<title>Node4</title>
<g id="a_node4"><a xlink:href="../../db/d02/Settings_8hpp.html" target="_top" xlink:title="All user settings and debugging options can be changed here.">
<polygon fill="white" stroke="black" points="715.41,-280.5 715.41,-299.5 792.41,-299.5 792.41,-280.5 715.41,-280.5"/>
<text text-anchor="middle" x="753.91" y="-287.5" font-family="Helvetica,sans-Serif" font-size="10.00">Settings.hpp</text>
</a>
</g>
</g>
<!-- Node1&#45;&gt;Node4 -->
<g id="edge3" class="edge">
<title>Node1&#45;&gt;Node4</title>
<path fill="none" stroke="midnightblue" d="M651.24,-336.44C671.23,-327.6 702.65,-313.69 725.47,-303.59"/>
<polygon fill="midnightblue" stroke="midnightblue" points="726.94,-306.76 734.67,-299.52 724.11,-300.36 726.94,-306.76"/>
</g>
<!-- Node15 -->
<g id="node15" class="node">
<title>Node15</title>
<g id="a_node15"><a xlink:href="../../d9/d98/TeensyUSBTypes_8hpp.html" target="_top" xlink:title=" ">
<polygon fill="white" stroke="black" points="810.41,-280.5 810.41,-299.5 983.41,-299.5 983.41,-280.5 810.41,-280.5"/>
<text text-anchor="middle" x="896.91" y="-287.5" font-family="Helvetica,sans-Serif" font-size="10.00">AH/Teensy/TeensyUSBTypes.hpp</text>
</a>
</g>
</g>
<!-- Node1&#45;&gt;Node15 -->
<g id="edge21" class="edge">
<title>Node1&#45;&gt;Node15</title>
<path fill="none" stroke="midnightblue" d="M673.9,-336.44C720.32,-326.98 795.14,-311.74 845.15,-301.55"/>
<polygon fill="midnightblue" stroke="midnightblue" points="846.02,-304.94 855.12,-299.52 844.62,-298.08 846.02,-304.94"/>
</g>
<!-- Node16 -->
<g id="node16" class="node">
<title>Node16</title>
<g id="a_node16"><a xlink:href="../../df/dee/Debug_8hpp.html" target="_top" xlink:title=" ">
<polygon fill="white" stroke="black" points="450.41,-280.5 450.41,-299.5 571.41,-299.5 571.41,-280.5 450.41,-280.5"/>
<text text-anchor="middle" x="510.91" y="-287.5" font-family="Helvetica,sans-Serif" font-size="10.00">AH/Debug/Debug.hpp</text>
</a>
</g>
</g>
<!-- Node1&#45;&gt;Node16 -->
<g id="edge22" class="edge">
<title>Node1&#45;&gt;Node16</title>
<path fill="none" stroke="midnightblue" d="M607.65,-336.44C586.17,-327.71 555.32,-314.06 534.16,-303.99"/>
<polygon fill="midnightblue" stroke="midnightblue" points="535.44,-300.73 524.91,-299.52 532.39,-307.03 535.44,-300.73"/>
</g>
<!-- Node5 -->
<g id="node5" class="node">
<title>Node5</title>
<g id="a_node5"><a xlink:href="../../dc/d50/Frequency_8hpp.html" target="_top" xlink:title=" ">
<polygon fill="white" stroke="black" points="468.91,-112.5 468.91,-131.5 602.91,-131.5 602.91,-112.5 468.91,-112.5"/>
<text text-anchor="middle" x="535.91" y="-119.5" font-family="Helvetica,sans-Serif" font-size="10.00">AH/Types/Frequency.hpp</text>
</a>
</g>
</g>
<!-- Node4&#45;&gt;Node5 -->
<g id="edge4" class="edge">
<title>Node4&#45;&gt;Node5</title>
<path fill="none" stroke="midnightblue" d="M792.53,-280.99C850.19,-268.93 952.35,-247.2 954.91,-244 960.47,-237.06 960.41,-230.98 954.91,-224 913.16,-170.99 722.24,-142.54 613.08,-130.36"/>
<polygon fill="midnightblue" stroke="midnightblue" points="613.43,-126.87 603.1,-129.26 612.66,-133.83 613.43,-126.87"/>
</g>
<!-- Node6 -->
<g id="node6" class="node">
<title>Node6</title>
<g id="a_node6"><a xlink:href="../../d7/d7c/ADCConfig_8hpp.html" target="_top" xlink:title="This file contains the platform&#45;specific ADC resolutions.">
<polygon fill="white" stroke="black" points="571.41,-224.5 571.41,-243.5 728.41,-243.5 728.41,-224.5 571.41,-224.5"/>
<text text-anchor="middle" x="649.91" y="-231.5" font-family="Helvetica,sans-Serif" font-size="10.00">AH/Hardware/ADCConfig.hpp</text>
</a>
</g>
</g>
<!-- Node4&#45;&gt;Node6 -->
<g id="edge7" class="edge">
<title>Node4&#45;&gt;Node6</title>
<path fill="none" stroke="midnightblue" d="M737.2,-280.32C720.6,-271.7 694.91,-258.36 675.69,-248.39"/>
<polygon fill="midnightblue" stroke="midnightblue" points="677.07,-245.16 666.58,-243.65 673.84,-251.37 677.07,-245.16"/>
</g>
<!-- Node12 -->
<g id="node12" class="node">
<title>Node12</title>
<g id="a_node12"><a xlink:title=" ">
<polygon fill="white" stroke="#bfbfbf" points="746.41,-224.5 746.41,-243.5 799.41,-243.5 799.41,-224.5 746.41,-224.5"/>
<text text-anchor="middle" x="772.91" y="-231.5" font-family="Helvetica,sans-Serif" font-size="10.00">limits.h</text>
</a>
</g>
</g>
<!-- Node4&#45;&gt;Node12 -->
<g id="edge18" class="edge">
<title>Node4&#45;&gt;Node12</title>
<path fill="none" stroke="midnightblue" d="M757.05,-280.08C759.59,-272.85 763.27,-262.41 766.44,-253.4"/>
<polygon fill="midnightblue" stroke="midnightblue" points="769.81,-254.35 769.83,-243.75 763.21,-252.02 769.81,-254.35"/>
</g>
<!-- Node13 -->
<g id="node13" class="node">
<title>Node13</title>
<g id="a_node13"><a xlink:title=" ">
<polygon fill="white" stroke="#bfbfbf" points="817.91,-224.5 817.91,-243.5 873.91,-243.5 873.91,-224.5 817.91,-224.5"/>
<text text-anchor="middle" x="845.91" y="-231.5" font-family="Helvetica,sans-Serif" font-size="10.00">stddef.h</text>
</a>
</g>
</g>
<!-- Node4&#45;&gt;Node13 -->
<g id="edge19" class="edge">
<title>Node4&#45;&gt;Node13</title>
<path fill="none" stroke="midnightblue" d="M768.69,-280.32C783.18,-271.82 805.48,-258.73 822.4,-248.8"/>
<polygon fill="midnightblue" stroke="midnightblue" points="824.31,-251.74 831.17,-243.65 820.77,-245.7 824.31,-251.74"/>
</g>
<!-- Node14 -->
<g id="node14" class="node">
<title>Node14</title>
<g id="a_node14"><a xlink:title=" ">
<polygon fill="white" stroke="#bfbfbf" points="892.41,-224.5 892.41,-243.5 945.41,-243.5 945.41,-224.5 892.41,-224.5"/>
<text text-anchor="middle" x="918.91" y="-231.5" font-family="Helvetica,sans-Serif" font-size="10.00">stdint.h</text>
</a>
</g>
</g>
<!-- Node4&#45;&gt;Node14 -->
<g id="edge20" class="edge">
<title>Node4&#45;&gt;Node14</title>
<path fill="none" stroke="midnightblue" d="M780.06,-280.44C807.93,-271.32 852.26,-256.81 883.31,-246.65"/>
<polygon fill="midnightblue" stroke="midnightblue" points="884.47,-249.95 892.89,-243.52 882.3,-243.3 884.47,-249.95"/>
</g>
<!-- Node5&#45;&gt;Node2 -->
<g id="edge5" class="edge">
<title>Node5&#45;&gt;Node2</title>
<path fill="none" stroke="midnightblue" d="M532.93,-112.37C526.77,-94.54 512.52,-53.3 504.22,-29.27"/>
<polygon fill="midnightblue" stroke="midnightblue" points="507.45,-27.9 500.88,-19.59 500.84,-30.19 507.45,-27.9"/>
</g>
<!-- Node5&#45;&gt;Node3 -->
<g id="edge6" class="edge">
<title>Node5&#45;&gt;Node3</title>
<path fill="none" stroke="midnightblue" d="M514.68,-112.44C492.53,-103.52 457.59,-89.44 432.47,-79.32"/>
<polygon fill="midnightblue" stroke="midnightblue" points="433.63,-76.01 423.04,-75.52 431.01,-82.5 433.63,-76.01"/>
</g>
<!-- Node6&#45;&gt;Node2 -->
<g id="edge8" class="edge">
<title>Node6&#45;&gt;Node2</title>
<path fill="none" stroke="midnightblue" d="M726.23,-224.47C861.26,-206.58 1119.61,-158.03 1025.91,-56 996.39,-23.86 720.55,-14.64 579.76,-12.02"/>
<polygon fill="midnightblue" stroke="midnightblue" points="579.51,-8.52 569.45,-11.84 579.38,-15.52 579.51,-8.52"/>
</g>
<!-- Node7 -->
<g id="node7" class="node">
<title>Node7</title>
<g id="a_node7"><a xlink:href="../../d6/ddf/Arduino-Wrapper_8h.html" target="_top" xlink:title=" ">
<polygon fill="white" stroke="black" points="159.91,-168.5 159.91,-187.5 283.91,-187.5 283.91,-168.5 159.91,-168.5"/>
<text text-anchor="middle" x="221.91" y="-175.5" font-family="Helvetica,sans-Serif" font-size="10.00">AH/Arduino&#45;Wrapper.h</text>
</a>
</g>
</g>
<!-- Node6&#45;&gt;Node7 -->
<g id="edge9" class="edge">
<title>Node6&#45;&gt;Node7</title>
<path fill="none" stroke="midnightblue" d="M582.09,-224.44C503.54,-214.53 374.66,-198.27 294.24,-188.13"/>
<polygon fill="midnightblue" stroke="midnightblue" points="294.55,-184.64 284.19,-186.86 293.68,-191.58 294.55,-184.64"/>
</g>
<!-- Node8 -->
<g id="node8" class="node">
<title>Node8</title>
<g id="a_node8"><a xlink:href="../../d7/d79/MinMaxFix_8hpp.html" target="_top" xlink:title=" ">
<polygon fill="white" stroke="black" points="21.91,-112.5 21.91,-131.5 157.91,-131.5 157.91,-112.5 21.91,-112.5"/>
<text text-anchor="middle" x="89.91" y="-119.5" font-family="Helvetica,sans-Serif" font-size="10.00">AH/Math/MinMaxFix.hpp</text>
</a>
</g>
</g>
<!-- Node7&#45;&gt;Node8 -->
<g id="edge10" class="edge">
<title>Node7&#45;&gt;Node8</title>
<path fill="none" stroke="midnightblue" d="M200.99,-168.44C179.17,-159.52 144.76,-145.44 120.02,-135.32"/>
<polygon fill="midnightblue" stroke="midnightblue" points="121.31,-132.06 110.73,-131.52 118.66,-138.54 121.31,-132.06"/>
</g>
<!-- Node10 -->
<g id="node10" class="node">
<title>Node10</title>
<g id="a_node10"><a xlink:title=" ">
<polygon fill="white" stroke="#bfbfbf" points="19.41,-0.5 19.41,-19.5 82.41,-19.5 82.41,-0.5 19.41,-0.5"/>
<text text-anchor="middle" x="50.91" y="-7.5" font-family="Helvetica,sans-Serif" font-size="10.00">Arduino.h</text>
</a>
</g>
</g>
<!-- Node7&#45;&gt;Node10 -->
<g id="edge17" class="edge">
<title>Node7&#45;&gt;Node10</title>
<path fill="none" stroke="midnightblue" d="M159.74,-172.1C104.97,-166.34 31.13,-154.56 12.91,-132 -8.31,-105.72 1.31,-87.72 12.91,-56 16.97,-44.91 25.1,-34.67 32.8,-26.76"/>
<polygon fill="midnightblue" stroke="midnightblue" points="35.39,-29.14 40.2,-19.7 30.55,-24.07 35.39,-29.14"/>
</g>
<!-- Node11 -->
<g id="node11" class="node">
<title>Node11</title>
<g id="a_node11"><a xlink:title=" ">
<polygon fill="white" stroke="#bfbfbf" points="176.41,-112.5 176.41,-131.5 283.41,-131.5 283.41,-112.5 176.41,-112.5"/>
<text text-anchor="middle" x="229.91" y="-119.5" font-family="Helvetica,sans-Serif" font-size="10.00">AH/STL/type_traits</text>
</a>
</g>
</g>
<!-- Node7&#45;&gt;Node11 -->
<g id="edge16" class="edge">
<title>Node7&#45;&gt;Node11</title>
<path fill="none" stroke="midnightblue" d="M223.23,-168.08C224.29,-160.93 225.82,-150.64 227.14,-141.69"/>
<polygon fill="midnightblue" stroke="midnightblue" points="230.61,-142.16 228.61,-131.75 223.69,-141.13 230.61,-142.16"/>
</g>
<!-- Node8&#45;&gt;Node2 -->
<g id="edge11" class="edge">
<title>Node8&#45;&gt;Node2</title>
<path fill="none" stroke="midnightblue" d="M113.94,-112.44C151.56,-99.22 226.81,-73.54 291.91,-56 342.69,-42.32 401.35,-29.82 443.05,-21.49"/>
<polygon fill="midnightblue" stroke="midnightblue" points="443.88,-24.89 453.01,-19.51 442.52,-18.03 443.88,-24.89"/>
</g>
<!-- Node8&#45;&gt;Node3 -->
<g id="edge15" class="edge">
<title>Node8&#45;&gt;Node3</title>
<path fill="none" stroke="midnightblue" d="M139.35,-112.44C194.57,-102.89 283.93,-87.42 342.81,-77.23"/>
<polygon fill="midnightblue" stroke="midnightblue" points="343.45,-80.67 352.7,-75.52 342.25,-73.77 343.45,-80.67"/>
</g>
<!-- Node9 -->
<g id="node9" class="node">
<title>Node9</title>
<g id="a_node9"><a xlink:href="../../d6/d3b/FixArduinoMacros_8hpp.html" target="_top" xlink:title=" ">
<polygon fill="white" stroke="black" points="21.91,-56.5 21.91,-75.5 191.91,-75.5 191.91,-56.5 21.91,-56.5"/>
<text text-anchor="middle" x="106.91" y="-63.5" font-family="Helvetica,sans-Serif" font-size="10.00">AH/Math/FixArduinoMacros.hpp</text>
</a>
</g>
</g>
<!-- Node8&#45;&gt;Node9 -->
<g id="edge12" class="edge">
<title>Node8&#45;&gt;Node9</title>
<path fill="none" stroke="midnightblue" d="M92.72,-112.08C95,-104.85 98.28,-94.41 101.12,-85.4"/>
<polygon fill="midnightblue" stroke="midnightblue" points="104.49,-86.34 104.16,-75.75 97.81,-84.24 104.49,-86.34"/>
</g>
<!-- Node9&#45;&gt;Node2 -->
<g id="edge13" class="edge">
<title>Node9&#45;&gt;Node2</title>
<path fill="none" stroke="midnightblue" d="M168.87,-56.44C238.79,-46.79 352.38,-31.1 426.11,-20.92"/>
<polygon fill="midnightblue" stroke="midnightblue" points="426.82,-24.35 436.25,-19.52 425.86,-17.42 426.82,-24.35"/>
</g>
<!-- Node9&#45;&gt;Node10 -->
<g id="edge14" class="edge">
<title>Node9&#45;&gt;Node10</title>
<path fill="none" stroke="midnightblue" d="M97.91,-56.32C89.72,-48.42 77.41,-36.55 67.44,-26.94"/>
<polygon fill="midnightblue" stroke="midnightblue" points="69.7,-24.26 60.07,-19.83 64.84,-29.29 69.7,-24.26"/>
</g>
<!-- Node16&#45;&gt;Node1 -->
<g id="edge28" class="edge">
<title>Node16&#45;&gt;Node1</title>
<path fill="none" stroke="midnightblue" d="M535.41,-299.65C556.77,-308.35 587.29,-321.85 608.36,-331.86"/>
<polygon fill="midnightblue" stroke="midnightblue" points="607.06,-335.12 617.58,-336.32 610.11,-328.82 607.06,-335.12"/>
</g>
<!-- Node16&#45;&gt;Node2 -->
<g id="edge23" class="edge">
<title>Node16&#45;&gt;Node2</title>
<path fill="none" stroke="midnightblue" d="M495.18,-280.24C483.02,-272.48 467.1,-259.93 459.91,-244 435.78,-190.53 446.43,-169.1 459.91,-112 464.02,-94.59 471.26,-92.61 477.91,-76 484.09,-60.59 489.51,-42.49 493.15,-29.32"/>
<polygon fill="midnightblue" stroke="midnightblue" points="496.55,-30.13 495.76,-19.57 489.79,-28.32 496.55,-30.13"/>
</g>
<!-- Node17 -->
<g id="node17" class="node">
<title>Node17</title>
<g id="a_node17"><a xlink:href="../../dd/d80/PrintStream_8hpp.html" target="_top" xlink:title=" ">
<polygon fill="white" stroke="black" points="201.41,-224.5 201.41,-243.5 374.41,-243.5 374.41,-224.5 201.41,-224.5"/>
<text text-anchor="middle" x="287.91" y="-231.5" font-family="Helvetica,sans-Serif" font-size="10.00">AH/PrintStream/PrintStream.hpp</text>
</a>
</g>
</g>
<!-- Node16&#45;&gt;Node17 -->
<g id="edge24" class="edge">
<title>Node16&#45;&gt;Node17</title>
<path fill="none" stroke="midnightblue" d="M475.58,-280.44C437,-271.1 375.13,-256.12 333.06,-245.93"/>
<polygon fill="midnightblue" stroke="midnightblue" points="333.62,-242.47 323.08,-243.52 331.98,-249.27 333.62,-242.47"/>
</g>
<!-- Node18 -->
<g id="node18" class="node">
<title>Node18</title>
<g id="a_node18"><a xlink:href="../../d7/d52/DebugVal_8hpp.html" target="_top" xlink:title=" ">
<polygon fill="white" stroke="black" points="468.91,-224.5 468.91,-243.5 552.91,-243.5 552.91,-224.5 468.91,-224.5"/>
<text text-anchor="middle" x="510.91" y="-231.5" font-family="Helvetica,sans-Serif" font-size="10.00">DebugVal.hpp</text>
</a>
</g>
</g>
<!-- Node16&#45;&gt;Node18 -->
<g id="edge29" class="edge">
<title>Node16&#45;&gt;Node18</title>
<path fill="none" stroke="midnightblue" d="M510.91,-280.08C510.91,-273.01 510.91,-262.86 510.91,-253.99"/>
<polygon fill="midnightblue" stroke="midnightblue" points="514.41,-253.75 510.91,-243.75 507.41,-253.75 514.41,-253.75"/>
</g>
<!-- Node17&#45;&gt;Node2 -->
<g id="edge26" class="edge">
<title>Node17&#45;&gt;Node2</title>
<path fill="none" stroke="midnightblue" d="M289.19,-224.23C294.24,-190.23 313,-68.5 324.91,-56 339.48,-40.71 387.45,-28.96 429.19,-21.31"/>
<polygon fill="midnightblue" stroke="midnightblue" points="429.85,-24.74 439.09,-19.55 428.63,-17.85 429.85,-24.74"/>
</g>
<!-- Node17&#45;&gt;Node3 -->
<g id="edge25" class="edge">
<title>Node17&#45;&gt;Node3</title>
<path fill="none" stroke="midnightblue" d="M295.86,-224.33C303.83,-215.49 316.26,-201.21 325.91,-188 351.77,-152.62 378.13,-108.45 391.99,-84.47"/>
<polygon fill="midnightblue" stroke="midnightblue" points="395.03,-86.2 396.97,-75.78 388.96,-82.71 395.03,-86.2"/>
</g>
<!-- Node17&#45;&gt;Node7 -->
<g id="edge27" class="edge">
<title>Node17&#45;&gt;Node7</title>
<path fill="none" stroke="midnightblue" d="M277.31,-224.32C267.45,-216.26 252.56,-204.08 240.7,-194.37"/>
<polygon fill="midnightblue" stroke="midnightblue" points="242.66,-191.46 232.71,-187.83 238.23,-196.88 242.66,-191.46"/>
</g>
</g>
</svg>
