<?xml version="1.0" encoding="UTF-8" standalone="no"?>
<!DOCTYPE svg PUBLIC "-//W3C//DTD SVG 1.1//EN"
 "http://www.w3.org/Graphics/SVG/1.1/DTD/svg11.dtd">
<!-- Generated by graphviz version 2.43.0 (0)
 -->
<!-- Title: ShiftRegisterOut&lt; N &gt; Pages: 1 -->
<svg width="699pt" height="1780pt"
 viewBox="0.00 0.00 699.00 1780.00" xmlns="http://www.w3.org/2000/svg" xmlns:xlink="http://www.w3.org/1999/xlink">
<g id="graph0" class="graph" transform="scale(1 1) rotate(0) translate(4 1776)">
<title>ShiftRegisterOut&lt; N &gt;</title>
<!-- Node1 -->
<g id="Node000001" class="node">
<title>Node1</title>
<g id="a_Node000001"><a xlink:title="A class for serial&#45;in/parallel&#45;out shift registers, like the 74HC595.">
<polygon fill="#999999" stroke="transparent" points="206,-79 64,-79 64,0 206,0 206,-79"/>
<text text-anchor="start" x="80" y="-66.5" font-family="Helvetica,sans-Serif" font-size="10.00">ShiftRegisterOut&lt; N &gt;</text>
<text text-anchor="start" x="133" y="-51.5" font-family="Helvetica,sans-Serif" font-size="10.00"> </text>
<text text-anchor="start" x="68" y="-36.5" font-family="Helvetica,sans-Serif" font-size="10.00">+</text>
<text text-anchor="start" x="81" y="-36.5" font-family="Helvetica,sans-Serif" font-size="10.00">ShiftRegisterOut()</text>
<text text-anchor="start" x="68" y="-21.5" font-family="Helvetica,sans-Serif" font-size="10.00">+</text>
<text text-anchor="start" x="81" y="-21.5" font-family="Helvetica,sans-Serif" font-size="10.00">begin()</text>
<text text-anchor="start" x="68" y="-6.5" font-family="Helvetica,sans-Serif" font-size="10.00">+</text>
<text text-anchor="start" x="81" y="-6.5" font-family="Helvetica,sans-Serif" font-size="10.00">updateBufferedOutputs()</text>
<polygon fill="#666666" stroke="#666666" points="64,-61.5 64,-61.5 206,-61.5 206,-61.5 64,-61.5"/>
<polygon fill="#666666" stroke="#666666" points="64,-46.5 64,-46.5 206,-46.5 206,-46.5 64,-46.5"/>
<polygon fill="none" stroke="#666666" points="64,0 64,-79 206,-79 206,0 64,0"/>
</a>
</g>
</g>
<!-- Node2 -->
<g id="Node000002" class="node">
<title>Node2</title>
<g id="a_Node000002"><a xlink:href="../../dc/d0e/classAH_1_1ShiftRegisterOutBase.html" target="_top" xlink:title="A class for serial&#45;in/parallel&#45;out shift registers, like the 74HC595.">
<polygon fill="white" stroke="transparent" points="590,-540 446,-540 446,-206 590,-206 590,-540"/>
<text text-anchor="start" x="451" y="-528" font-family="Helvetica,sans-Serif" font-size="10.00">ShiftRegisterOutBase&lt; N &gt;</text>
<text text-anchor="start" x="452.5" y="-513" font-family="Helvetica,sans-Serif" font-size="10.00">#</text>
<text text-anchor="start" x="468" y="-513" font-family="Helvetica,sans-Serif" font-size="10.00">bitOrder</text>
<text text-anchor="start" x="452.5" y="-498" font-family="Helvetica,sans-Serif" font-size="10.00">#</text>
<text text-anchor="start" x="468" y="-498" font-family="Helvetica,sans-Serif" font-size="10.00">buffer</text>
<text text-anchor="start" x="452.5" y="-483" font-family="Helvetica,sans-Serif" font-size="10.00">#</text>
<text text-anchor="start" x="468" y="-483" font-family="Helvetica,sans-Serif" font-size="10.00">dirty</text>
<text text-anchor="start" x="452.5" y="-468" font-family="Helvetica,sans-Serif" font-size="10.00">+</text>
<text text-anchor="start" x="468" y="-468" font-family="Helvetica,sans-Serif" font-size="10.00">pinMode()</text>
<text text-anchor="start" x="452.5" y="-453" font-family="Helvetica,sans-Serif" font-size="10.00">+</text>
<text text-anchor="start" x="468" y="-453" font-family="Helvetica,sans-Serif" font-size="10.00">pinModeBuffered()</text>
<text text-anchor="start" x="452.5" y="-438" font-family="Helvetica,sans-Serif" font-size="10.00">+</text>
<text text-anchor="start" x="468" y="-438" font-family="Helvetica,sans-Serif" font-size="10.00">digitalWrite()</text>
<text text-anchor="start" x="452.5" y="-423" font-family="Helvetica,sans-Serif" font-size="10.00">+</text>
<text text-anchor="start" x="468" y="-423" font-family="Helvetica,sans-Serif" font-size="10.00">digitalWriteBuffered()</text>
<text text-anchor="start" x="452.5" y="-408" font-family="Helvetica,sans-Serif" font-size="10.00">+</text>
<text text-anchor="start" x="468" y="-408" font-family="Helvetica,sans-Serif" font-size="10.00">digitalRead()</text>
<text text-anchor="start" x="452.5" y="-393" font-family="Helvetica,sans-Serif" font-size="10.00">+</text>
<text text-anchor="start" x="468" y="-393" font-family="Helvetica,sans-Serif" font-size="10.00">digitalReadBuffered()</text>
<text text-anchor="start" x="452.5" y="-378" font-family="Helvetica,sans-Serif" font-size="10.00">+</text>
<text text-anchor="start" x="468" y="-378" font-family="Helvetica,sans-Serif" font-size="10.00">analogRead()</text>
<text text-anchor="start" x="452.5" y="-363" font-family="Helvetica,sans-Serif" font-size="10.00">+</text>
<text text-anchor="start" x="468" y="-363" font-family="Helvetica,sans-Serif" font-size="10.00">analogReadBuffered()</text>
<text text-anchor="start" x="452.5" y="-348" font-family="Helvetica,sans-Serif" font-size="10.00">+</text>
<text text-anchor="start" x="468" y="-348" font-family="Helvetica,sans-Serif" font-size="10.00">analogWrite()</text>
<text text-anchor="start" x="452.5" y="-333" font-family="Helvetica,sans-Serif" font-size="10.00">+</text>
<text text-anchor="start" x="468" y="-333" font-family="Helvetica,sans-Serif" font-size="10.00">analogWriteBuffered()</text>
<text text-anchor="start" x="452.5" y="-318" font-family="Helvetica,sans-Serif" font-size="10.00">+</text>
<text text-anchor="start" x="468" y="-318" font-family="Helvetica,sans-Serif" font-size="10.00">updateBufferedInputs()</text>
<text text-anchor="start" x="452.5" y="-303" font-family="Helvetica,sans-Serif" font-size="10.00">+</text>
<text text-anchor="start" x="468" y="-303" font-family="Helvetica,sans-Serif" font-size="10.00">red()</text>
<text text-anchor="start" x="452.5" y="-288" font-family="Helvetica,sans-Serif" font-size="10.00">+</text>
<text text-anchor="start" x="468" y="-288" font-family="Helvetica,sans-Serif" font-size="10.00">redPins()</text>
<text text-anchor="start" x="452.5" y="-273" font-family="Helvetica,sans-Serif" font-size="10.00">+</text>
<text text-anchor="start" x="468" y="-273" font-family="Helvetica,sans-Serif" font-size="10.00">green()</text>
<text text-anchor="start" x="452.5" y="-258" font-family="Helvetica,sans-Serif" font-size="10.00">+</text>
<text text-anchor="start" x="468" y="-258" font-family="Helvetica,sans-Serif" font-size="10.00">greenPins()</text>
<text text-anchor="start" x="452.5" y="-243" font-family="Helvetica,sans-Serif" font-size="10.00">+</text>
<text text-anchor="start" x="468" y="-243" font-family="Helvetica,sans-Serif" font-size="10.00">blue()</text>
<text text-anchor="start" x="452.5" y="-228" font-family="Helvetica,sans-Serif" font-size="10.00">+</text>
<text text-anchor="start" x="468" y="-228" font-family="Helvetica,sans-Serif" font-size="10.00">bluePins()</text>
<text text-anchor="start" x="452.5" y="-213" font-family="Helvetica,sans-Serif" font-size="10.00">#</text>
<text text-anchor="start" x="468" y="-213" font-family="Helvetica,sans-Serif" font-size="10.00">ShiftRegisterOutBase()</text>
<polygon fill="#666666" stroke="#666666" points="446,-523 446,-523 590,-523 590,-523 446,-523"/>
<polygon fill="#666666" stroke="#666666" points="446,-478 446,-478 466,-478 466,-478 446,-478"/>
<polygon fill="#666666" stroke="#666666" points="466,-478 466,-478 590,-478 590,-478 466,-478"/>
<polygon fill="none" stroke="#666666" points="446,-206 446,-540 590,-540 590,-206 446,-206"/>
</a>
</g>
</g>
<!-- Node2&#45;&gt;Node1 -->
<g id="edge1_Node000001_Node000002" class="edge">
<title>Node2&#45;&gt;Node1</title>
<g id="a_edge1_Node000001_Node000002"><a xlink:title=" ">
<path fill="none" stroke="#63b8ff" d="M465.72,-196.83C450.19,-166.62 430.32,-137.93 405,-116 349.54,-67.96 265.77,-50.31 206.27,-43.93"/>
<polygon fill="none" stroke="#63b8ff" points="462.61,-198.42 470.19,-205.82 468.87,-195.3 462.61,-198.42"/>
</a>
</g>
</g>
<!-- Node3 -->
<g id="Node000003" class="node">
<title>Node3</title>
<g id="a_Node000003"><a xlink:href="../../d6/d57/classAH_1_1StaticSizeExtendedIOElement.html" target="_top" xlink:title="A class for ExtendedIOElements with a fixed size.">
<polygon fill="white" stroke="transparent" points="610.5,-904 425.5,-904 425.5,-825 610.5,-825 610.5,-904"/>
<text text-anchor="start" x="431" y="-891.5" font-family="Helvetica,sans-Serif" font-size="10.00">StaticSizeExtendedIOElement&lt; N &gt;</text>
<text text-anchor="start" x="516.5" y="-876.5" font-family="Helvetica,sans-Serif" font-size="10.00"> </text>
<text text-anchor="start" x="432.5" y="-861.5" font-family="Helvetica,sans-Serif" font-size="10.00">+</text>
<text text-anchor="start" x="448" y="-861.5" font-family="Helvetica,sans-Serif" font-size="10.00">pins()</text>
<text text-anchor="start" x="432.5" y="-846.5" font-family="Helvetica,sans-Serif" font-size="10.00">+</text>
<text text-anchor="start" x="448" y="-846.5" font-family="Helvetica,sans-Serif" font-size="10.00">length()</text>
<text text-anchor="start" x="432.5" y="-831.5" font-family="Helvetica,sans-Serif" font-size="10.00">#</text>
<text text-anchor="start" x="448" y="-831.5" font-family="Helvetica,sans-Serif" font-size="10.00">StaticSizeExtendedIOElement()</text>
<polygon fill="#666666" stroke="#666666" points="426,-886.5 426,-886.5 611,-886.5 611,-886.5 426,-886.5"/>
<polygon fill="#666666" stroke="#666666" points="426,-871.5 426,-871.5 611,-871.5 611,-871.5 426,-871.5"/>
<polygon fill="none" stroke="#666666" points="425.5,-825 425.5,-904 610.5,-904 610.5,-825 425.5,-825"/>
</a>
</g>
</g>
<!-- Node3&#45;&gt;Node2 -->
<g id="edge2_Node000002_Node000003" class="edge">
<title>Node3&#45;&gt;Node2</title>
<g id="a_edge2_Node000002_Node000003"><a xlink:title=" ">
<path fill="none" stroke="#63b8ff" d="M518,-814.53C518,-750.89 518,-636.5 518,-540.24"/>
<polygon fill="none" stroke="#63b8ff" points="514.5,-814.68 518,-824.68 521.5,-814.68 514.5,-814.68"/>
</a>
</g>
</g>
<!-- Node4 -->
<g id="Node000004" class="node">
<title>Node4</title>
<g id="a_Node000004"><a xlink:href="../../d2/dda/classAH_1_1ExtendedIOElement.html" target="_top" xlink:title="An abstract base class for Extended Input/Output elements.">
<polygon fill="white" stroke="transparent" points="475.5,-1549 320.5,-1549 320.5,-1110 475.5,-1110 475.5,-1549"/>
<text text-anchor="start" x="350" y="-1536.5" font-family="Helvetica,sans-Serif" font-size="10.00">ExtendedIOElement</text>
<text text-anchor="start" x="327.5" y="-1521.5" font-family="Helvetica,sans-Serif" font-size="10.00">&#45;</text>
<text text-anchor="start" x="338" y="-1521.5" font-family="Helvetica,sans-Serif" font-size="10.00">length</text>
<text text-anchor="start" x="325" y="-1506.5" font-family="Helvetica,sans-Serif" font-size="10.00">+</text>
<text text-anchor="start" x="338" y="-1506.5" font-family="Helvetica,sans-Serif" font-size="10.00">pinMode()</text>
<text text-anchor="start" x="325" y="-1491.5" font-family="Helvetica,sans-Serif" font-size="10.00">+</text>
<text text-anchor="start" x="338" y="-1491.5" font-family="Helvetica,sans-Serif" font-size="10.00">pinModeBuffered()</text>
<text text-anchor="start" x="325" y="-1476.5" font-family="Helvetica,sans-Serif" font-size="10.00">+</text>
<text text-anchor="start" x="338" y="-1476.5" font-family="Helvetica,sans-Serif" font-size="10.00">digitalWrite()</text>
<text text-anchor="start" x="325" y="-1461.5" font-family="Helvetica,sans-Serif" font-size="10.00">+</text>
<text text-anchor="start" x="338" y="-1461.5" font-family="Helvetica,sans-Serif" font-size="10.00">digitalWriteBuffered()</text>
<text text-anchor="start" x="325" y="-1446.5" font-family="Helvetica,sans-Serif" font-size="10.00">+</text>
<text text-anchor="start" x="338" y="-1446.5" font-family="Helvetica,sans-Serif" font-size="10.00">digitalRead()</text>
<text text-anchor="start" x="325" y="-1431.5" font-family="Helvetica,sans-Serif" font-size="10.00">+</text>
<text text-anchor="start" x="338" y="-1431.5" font-family="Helvetica,sans-Serif" font-size="10.00">digitalReadBuffered()</text>
<text text-anchor="start" x="325" y="-1416.5" font-family="Helvetica,sans-Serif" font-size="10.00">+</text>
<text text-anchor="start" x="338" y="-1416.5" font-family="Helvetica,sans-Serif" font-size="10.00">analogWrite()</text>
<text text-anchor="start" x="325" y="-1401.5" font-family="Helvetica,sans-Serif" font-size="10.00">+</text>
<text text-anchor="start" x="338" y="-1401.5" font-family="Helvetica,sans-Serif" font-size="10.00">analogWriteBuffered()</text>
<text text-anchor="start" x="325" y="-1386.5" font-family="Helvetica,sans-Serif" font-size="10.00">+</text>
<text text-anchor="start" x="338" y="-1386.5" font-family="Helvetica,sans-Serif" font-size="10.00">analogRead()</text>
<text text-anchor="start" x="325" y="-1371.5" font-family="Helvetica,sans-Serif" font-size="10.00">+</text>
<text text-anchor="start" x="338" y="-1371.5" font-family="Helvetica,sans-Serif" font-size="10.00">analogReadBuffered()</text>
<text text-anchor="start" x="325" y="-1356.5" font-family="Helvetica,sans-Serif" font-size="10.00">+</text>
<text text-anchor="start" x="338" y="-1356.5" font-family="Helvetica,sans-Serif" font-size="10.00">begin()</text>
<text text-anchor="start" x="325" y="-1341.5" font-family="Helvetica,sans-Serif" font-size="10.00">+</text>
<text text-anchor="start" x="338" y="-1341.5" font-family="Helvetica,sans-Serif" font-size="10.00">updateBufferedOutputs()</text>
<text text-anchor="start" x="325" y="-1326.5" font-family="Helvetica,sans-Serif" font-size="10.00">+</text>
<text text-anchor="start" x="338" y="-1326.5" font-family="Helvetica,sans-Serif" font-size="10.00">updateBufferedInputs()</text>
<text text-anchor="start" x="325" y="-1311.5" font-family="Helvetica,sans-Serif" font-size="10.00">+</text>
<text text-anchor="start" x="338" y="-1311.5" font-family="Helvetica,sans-Serif" font-size="10.00">pin()</text>
<text text-anchor="start" x="325" y="-1296.5" font-family="Helvetica,sans-Serif" font-size="10.00">+</text>
<text text-anchor="start" x="338" y="-1296.5" font-family="Helvetica,sans-Serif" font-size="10.00">operator[]()</text>
<text text-anchor="start" x="325" y="-1281.5" font-family="Helvetica,sans-Serif" font-size="10.00">+</text>
<text text-anchor="start" x="338" y="-1281.5" font-family="Helvetica,sans-Serif" font-size="10.00">getLength()</text>
<text text-anchor="start" x="325" y="-1266.5" font-family="Helvetica,sans-Serif" font-size="10.00">+</text>
<text text-anchor="start" x="338" y="-1266.5" font-family="Helvetica,sans-Serif" font-size="10.00">getEnd()</text>
<text text-anchor="start" x="325" y="-1251.5" font-family="Helvetica,sans-Serif" font-size="10.00">+</text>
<text text-anchor="start" x="338" y="-1251.5" font-family="Helvetica,sans-Serif" font-size="10.00">getStart()</text>
<text text-anchor="start" x="325" y="-1236.5" font-family="Helvetica,sans-Serif" font-size="10.00">+</text>
<text text-anchor="start" x="338" y="-1236.5" font-family="Helvetica,sans-Serif" font-size="10.00">beginAll()</text>
<text text-anchor="start" x="325" y="-1221.5" font-family="Helvetica,sans-Serif" font-size="10.00">+</text>
<text text-anchor="start" x="338" y="-1221.5" font-family="Helvetica,sans-Serif" font-size="10.00">updateAllBufferedOutputs()</text>
<text text-anchor="start" x="325" y="-1206.5" font-family="Helvetica,sans-Serif" font-size="10.00">+</text>
<text text-anchor="start" x="338" y="-1206.5" font-family="Helvetica,sans-Serif" font-size="10.00">updateAllBufferedInputs()</text>
<text text-anchor="start" x="325" y="-1191.5" font-family="Helvetica,sans-Serif" font-size="10.00">+</text>
<text text-anchor="start" x="338" y="-1191.5" font-family="Helvetica,sans-Serif" font-size="10.00">getAll()</text>
<text text-anchor="start" x="325" y="-1176.5" font-family="Helvetica,sans-Serif" font-size="10.00">#</text>
<text text-anchor="start" x="338" y="-1176.5" font-family="Helvetica,sans-Serif" font-size="10.00">ExtendedIOElement()</text>
<text text-anchor="start" x="325" y="-1161.5" font-family="Helvetica,sans-Serif" font-size="10.00">#</text>
<text text-anchor="start" x="338" y="-1161.5" font-family="Helvetica,sans-Serif" font-size="10.00">ExtendedIOElement()</text>
<text text-anchor="start" x="325" y="-1146.5" font-family="Helvetica,sans-Serif" font-size="10.00">#</text>
<text text-anchor="start" x="338" y="-1146.5" font-family="Helvetica,sans-Serif" font-size="10.00">operator=()</text>
<text text-anchor="start" x="325" y="-1131.5" font-family="Helvetica,sans-Serif" font-size="10.00">#</text>
<text text-anchor="start" x="338" y="-1131.5" font-family="Helvetica,sans-Serif" font-size="10.00">ExtendedIOElement()</text>
<text text-anchor="start" x="325" y="-1116.5" font-family="Helvetica,sans-Serif" font-size="10.00">#</text>
<text text-anchor="start" x="338" y="-1116.5" font-family="Helvetica,sans-Serif" font-size="10.00">operator=()</text>
<polygon fill="#666666" stroke="#666666" points="321,-1531.5 321,-1531.5 476,-1531.5 476,-1531.5 321,-1531.5"/>
<polygon fill="#666666" stroke="#666666" points="321,-1516.5 321,-1516.5 336,-1516.5 336,-1516.5 321,-1516.5"/>
<polygon fill="#666666" stroke="#666666" points="336,-1516.5 336,-1516.5 476,-1516.5 476,-1516.5 336,-1516.5"/>
<polygon fill="none" stroke="#666666" points="320.5,-1110 320.5,-1549 475.5,-1549 475.5,-1110 320.5,-1110"/>
</a>
</g>
</g>
<!-- Node4&#45;&gt;Node3 -->
<g id="edge3_Node000003_Node000004" class="edge">
<title>Node4&#45;&gt;Node3</title>
<g id="a_edge3_Node000003_Node000004"><a xlink:title=" ">
<path fill="none" stroke="#63b8ff" d="M457.17,-1100.19C476.75,-1024.65 496.45,-948.65 507.92,-904.39"/>
<polygon fill="none" stroke="#63b8ff" points="453.78,-1099.32 454.66,-1109.88 460.56,-1101.08 453.78,-1099.32"/>
</a>
</g>
</g>
<!-- Node7 -->
<g id="Node000007" class="node">
<title>Node7</title>
<g id="a_Node000007"><a xlink:href="../../dd/d16/classDoublyLinkedList.html" target="_top" xlink:title=" ">
<polygon fill="white" stroke="transparent" points="369.5,-1052 218.5,-1052 218.5,-677 369.5,-677 369.5,-1052"/>
<text text-anchor="start" x="224" y="-1039.5" font-family="Helvetica,sans-Serif" font-size="10.00">DoublyLinkedList&lt; Extended</text>
<text text-anchor="start" x="263" y="-1028.5" font-family="Helvetica,sans-Serif" font-size="10.00">IOElement &gt;</text>
<text text-anchor="start" x="292.5" y="-1013.5" font-family="Helvetica,sans-Serif" font-size="10.00"> </text>
<text text-anchor="start" x="237.5" y="-998.5" font-family="Helvetica,sans-Serif" font-size="10.00">+</text>
<text text-anchor="start" x="265" y="-998.5" font-family="Helvetica,sans-Serif" font-size="10.00">append()</text>
<text text-anchor="start" x="237.5" y="-983.5" font-family="Helvetica,sans-Serif" font-size="10.00">+</text>
<text text-anchor="start" x="265" y="-983.5" font-family="Helvetica,sans-Serif" font-size="10.00">append()</text>
<text text-anchor="start" x="237.5" y="-968.5" font-family="Helvetica,sans-Serif" font-size="10.00">+</text>
<text text-anchor="start" x="265" y="-968.5" font-family="Helvetica,sans-Serif" font-size="10.00">insertBefore()</text>
<text text-anchor="start" x="237.5" y="-953.5" font-family="Helvetica,sans-Serif" font-size="10.00">+</text>
<text text-anchor="start" x="265" y="-953.5" font-family="Helvetica,sans-Serif" font-size="10.00">insertBefore()</text>
<text text-anchor="start" x="237.5" y="-938.5" font-family="Helvetica,sans-Serif" font-size="10.00">+</text>
<text text-anchor="start" x="265" y="-938.5" font-family="Helvetica,sans-Serif" font-size="10.00">insertSorted()</text>
<text text-anchor="start" x="237.5" y="-923.5" font-family="Helvetica,sans-Serif" font-size="10.00">+</text>
<text text-anchor="start" x="265" y="-923.5" font-family="Helvetica,sans-Serif" font-size="10.00">insertSorted()</text>
<text text-anchor="start" x="237.5" y="-908.5" font-family="Helvetica,sans-Serif" font-size="10.00">+</text>
<text text-anchor="start" x="265" y="-908.5" font-family="Helvetica,sans-Serif" font-size="10.00">remove()</text>
<text text-anchor="start" x="237.5" y="-893.5" font-family="Helvetica,sans-Serif" font-size="10.00">+</text>
<text text-anchor="start" x="265" y="-893.5" font-family="Helvetica,sans-Serif" font-size="10.00">remove()</text>
<text text-anchor="start" x="237.5" y="-878.5" font-family="Helvetica,sans-Serif" font-size="10.00">+</text>
<text text-anchor="start" x="265" y="-878.5" font-family="Helvetica,sans-Serif" font-size="10.00">moveDown()</text>
<text text-anchor="start" x="237.5" y="-863.5" font-family="Helvetica,sans-Serif" font-size="10.00">+</text>
<text text-anchor="start" x="265" y="-863.5" font-family="Helvetica,sans-Serif" font-size="10.00">moveDown()</text>
<text text-anchor="start" x="237.5" y="-848.5" font-family="Helvetica,sans-Serif" font-size="10.00">+</text>
<text text-anchor="start" x="265" y="-848.5" font-family="Helvetica,sans-Serif" font-size="10.00">couldContain()</text>
<text text-anchor="start" x="237.5" y="-833.5" font-family="Helvetica,sans-Serif" font-size="10.00">+</text>
<text text-anchor="start" x="265" y="-833.5" font-family="Helvetica,sans-Serif" font-size="10.00">couldContain()</text>
<text text-anchor="start" x="237.5" y="-818.5" font-family="Helvetica,sans-Serif" font-size="10.00">+</text>
<text text-anchor="start" x="265" y="-818.5" font-family="Helvetica,sans-Serif" font-size="10.00">begin()</text>
<text text-anchor="start" x="237.5" y="-803.5" font-family="Helvetica,sans-Serif" font-size="10.00">+</text>
<text text-anchor="start" x="265" y="-803.5" font-family="Helvetica,sans-Serif" font-size="10.00">begin()</text>
<text text-anchor="start" x="237.5" y="-788.5" font-family="Helvetica,sans-Serif" font-size="10.00">+</text>
<text text-anchor="start" x="265" y="-788.5" font-family="Helvetica,sans-Serif" font-size="10.00">end()</text>
<text text-anchor="start" x="237.5" y="-773.5" font-family="Helvetica,sans-Serif" font-size="10.00">+</text>
<text text-anchor="start" x="265" y="-773.5" font-family="Helvetica,sans-Serif" font-size="10.00">end()</text>
<text text-anchor="start" x="237.5" y="-758.5" font-family="Helvetica,sans-Serif" font-size="10.00">+</text>
<text text-anchor="start" x="265" y="-758.5" font-family="Helvetica,sans-Serif" font-size="10.00">rbegin()</text>
<text text-anchor="start" x="237.5" y="-743.5" font-family="Helvetica,sans-Serif" font-size="10.00">+</text>
<text text-anchor="start" x="265" y="-743.5" font-family="Helvetica,sans-Serif" font-size="10.00">rbegin()</text>
<text text-anchor="start" x="237.5" y="-728.5" font-family="Helvetica,sans-Serif" font-size="10.00">+</text>
<text text-anchor="start" x="265" y="-728.5" font-family="Helvetica,sans-Serif" font-size="10.00">rend()</text>
<text text-anchor="start" x="237.5" y="-713.5" font-family="Helvetica,sans-Serif" font-size="10.00">+</text>
<text text-anchor="start" x="265" y="-713.5" font-family="Helvetica,sans-Serif" font-size="10.00">rend()</text>
<text text-anchor="start" x="237.5" y="-698.5" font-family="Helvetica,sans-Serif" font-size="10.00">+</text>
<text text-anchor="start" x="265" y="-698.5" font-family="Helvetica,sans-Serif" font-size="10.00">getFirst()</text>
<text text-anchor="start" x="237.5" y="-683.5" font-family="Helvetica,sans-Serif" font-size="10.00">+</text>
<text text-anchor="start" x="265" y="-683.5" font-family="Helvetica,sans-Serif" font-size="10.00">getLast()</text>
<polygon fill="#666666" stroke="#666666" points="219,-1023.5 219,-1023.5 370,-1023.5 370,-1023.5 219,-1023.5"/>
<polygon fill="#666666" stroke="#666666" points="219,-1008.5 219,-1008.5 370,-1008.5 370,-1008.5 219,-1008.5"/>
<polygon fill="none" stroke="#666666" points="218.5,-677 218.5,-1052 369.5,-1052 369.5,-677 218.5,-677"/>
</a>
</g>
</g>
<!-- Node4&#45;&gt;Node7 -->
<g id="edge7_Node000007_Node000004" class="edge">
<title>Node4&#45;&gt;Node7</title>
<g id="a_edge7_Node000007_Node000004"><a xlink:title=" ">
<path fill="none" stroke="#63b8ff" d="M348.89,-1109.88C345.47,-1094.64 342.03,-1079.32 338.63,-1064.2"/>
<polygon fill="none" stroke="#63b8ff" points="338.55,-1063.82 333.33,-1058.84 335.92,-1052.11 341.13,-1057.09 338.55,-1063.82"/>
</a>
</g>
<text text-anchor="middle" x="356" y="-1084" font-family="Helvetica,sans-Serif" font-size="10.00" fill="grey"> &#45;first</text>
<text text-anchor="middle" x="356" y="-1073" font-family="Helvetica,sans-Serif" font-size="10.00" fill="grey">&#45;last</text>
</g>
<!-- Node5 -->
<g id="Node000005" class="node">
<title>Node5</title>
<g id="a_Node000005"><a xlink:href="../../d8/d1a/classAH_1_1UpdatableCRTP.html" target="_top" xlink:title=" ">
<polygon fill="white" stroke="transparent" points="396.5,-630 191.5,-630 191.5,-116 396.5,-116 396.5,-630"/>
<text text-anchor="start" x="197" y="-618" font-family="Helvetica,sans-Serif" font-size="10.00">UpdatableCRTP&lt; ExtendedIOElement &gt;</text>
<text text-anchor="start" x="292.5" y="-603" font-family="Helvetica,sans-Serif" font-size="10.00"> </text>
<text text-anchor="start" x="219" y="-588" font-family="Helvetica,sans-Serif" font-size="10.00">+</text>
<text text-anchor="start" x="255" y="-588" font-family="Helvetica,sans-Serif" font-size="10.00">~UpdatableCRTP()</text>
<text text-anchor="start" x="219" y="-573" font-family="Helvetica,sans-Serif" font-size="10.00">+</text>
<text text-anchor="start" x="255" y="-573" font-family="Helvetica,sans-Serif" font-size="10.00">~UpdatableCRTP()</text>
<text text-anchor="start" x="219" y="-558" font-family="Helvetica,sans-Serif" font-size="10.00">#</text>
<text text-anchor="start" x="255" y="-558" font-family="Helvetica,sans-Serif" font-size="10.00">UpdatableCRTP()</text>
<text text-anchor="start" x="219" y="-543" font-family="Helvetica,sans-Serif" font-size="10.00">#</text>
<text text-anchor="start" x="255" y="-543" font-family="Helvetica,sans-Serif" font-size="10.00">UpdatableCRTP()</text>
<text text-anchor="start" x="219" y="-528" font-family="Helvetica,sans-Serif" font-size="10.00">#</text>
<text text-anchor="start" x="255" y="-528" font-family="Helvetica,sans-Serif" font-size="10.00">UpdatableCRTP()</text>
<text text-anchor="start" x="219" y="-513" font-family="Helvetica,sans-Serif" font-size="10.00">#</text>
<text text-anchor="start" x="255" y="-513" font-family="Helvetica,sans-Serif" font-size="10.00">operator=()</text>
<text text-anchor="start" x="219" y="-498" font-family="Helvetica,sans-Serif" font-size="10.00">#</text>
<text text-anchor="start" x="255" y="-498" font-family="Helvetica,sans-Serif" font-size="10.00">operator=()</text>
<text text-anchor="start" x="219" y="-483" font-family="Helvetica,sans-Serif" font-size="10.00">#</text>
<text text-anchor="start" x="255" y="-483" font-family="Helvetica,sans-Serif" font-size="10.00">UpdatableCRTP()</text>
<text text-anchor="start" x="219" y="-468" font-family="Helvetica,sans-Serif" font-size="10.00">#</text>
<text text-anchor="start" x="255" y="-468" font-family="Helvetica,sans-Serif" font-size="10.00">UpdatableCRTP()</text>
<text text-anchor="start" x="219" y="-453" font-family="Helvetica,sans-Serif" font-size="10.00">#</text>
<text text-anchor="start" x="255" y="-453" font-family="Helvetica,sans-Serif" font-size="10.00">UpdatableCRTP()</text>
<text text-anchor="start" x="219" y="-438" font-family="Helvetica,sans-Serif" font-size="10.00">#</text>
<text text-anchor="start" x="255" y="-438" font-family="Helvetica,sans-Serif" font-size="10.00">operator=()</text>
<text text-anchor="start" x="219" y="-423" font-family="Helvetica,sans-Serif" font-size="10.00">#</text>
<text text-anchor="start" x="255" y="-423" font-family="Helvetica,sans-Serif" font-size="10.00">operator=()</text>
<text text-anchor="start" x="220.5" y="-408" font-family="Helvetica,sans-Serif" font-size="10.00">*</text>
<text text-anchor="start" x="255" y="-408" font-family="Helvetica,sans-Serif" font-size="10.00">enable()</text>
<text text-anchor="start" x="220.5" y="-393" font-family="Helvetica,sans-Serif" font-size="10.00">*</text>
<text text-anchor="start" x="255" y="-393" font-family="Helvetica,sans-Serif" font-size="10.00">disable()</text>
<text text-anchor="start" x="220.5" y="-378" font-family="Helvetica,sans-Serif" font-size="10.00">*</text>
<text text-anchor="start" x="255" y="-378" font-family="Helvetica,sans-Serif" font-size="10.00">isEnabled()</text>
<text text-anchor="start" x="220.5" y="-363" font-family="Helvetica,sans-Serif" font-size="10.00">*</text>
<text text-anchor="start" x="255" y="-363" font-family="Helvetica,sans-Serif" font-size="10.00">moveDown()</text>
<text text-anchor="start" x="220.5" y="-348" font-family="Helvetica,sans-Serif" font-size="10.00">*</text>
<text text-anchor="start" x="255" y="-348" font-family="Helvetica,sans-Serif" font-size="10.00">enable()</text>
<text text-anchor="start" x="220.5" y="-333" font-family="Helvetica,sans-Serif" font-size="10.00">*</text>
<text text-anchor="start" x="255" y="-333" font-family="Helvetica,sans-Serif" font-size="10.00">disable()</text>
<text text-anchor="start" x="220.5" y="-318" font-family="Helvetica,sans-Serif" font-size="10.00">*</text>
<text text-anchor="start" x="255" y="-318" font-family="Helvetica,sans-Serif" font-size="10.00">isEnabled()</text>
<text text-anchor="start" x="220.5" y="-303" font-family="Helvetica,sans-Serif" font-size="10.00">*</text>
<text text-anchor="start" x="255" y="-303" font-family="Helvetica,sans-Serif" font-size="10.00">moveDown()</text>
<text text-anchor="start" x="220.5" y="-288" font-family="Helvetica,sans-Serif" font-size="10.00">*</text>
<text text-anchor="start" x="255" y="-288" font-family="Helvetica,sans-Serif" font-size="10.00">enable()</text>
<text text-anchor="start" x="220.5" y="-273" font-family="Helvetica,sans-Serif" font-size="10.00">*</text>
<text text-anchor="start" x="255" y="-273" font-family="Helvetica,sans-Serif" font-size="10.00">enable()</text>
<text text-anchor="start" x="220.5" y="-258" font-family="Helvetica,sans-Serif" font-size="10.00">*</text>
<text text-anchor="start" x="255" y="-258" font-family="Helvetica,sans-Serif" font-size="10.00">enable()</text>
<text text-anchor="start" x="220.5" y="-243" font-family="Helvetica,sans-Serif" font-size="10.00">*</text>
<text text-anchor="start" x="255" y="-243" font-family="Helvetica,sans-Serif" font-size="10.00">disable()</text>
<text text-anchor="start" x="220.5" y="-228" font-family="Helvetica,sans-Serif" font-size="10.00">*</text>
<text text-anchor="start" x="255" y="-228" font-family="Helvetica,sans-Serif" font-size="10.00">disable()</text>
<text text-anchor="start" x="220.5" y="-213" font-family="Helvetica,sans-Serif" font-size="10.00">*</text>
<text text-anchor="start" x="255" y="-213" font-family="Helvetica,sans-Serif" font-size="10.00">disable()</text>
<text text-anchor="start" x="220.5" y="-198" font-family="Helvetica,sans-Serif" font-size="10.00">*</text>
<text text-anchor="start" x="255" y="-198" font-family="Helvetica,sans-Serif" font-size="10.00">enable()</text>
<text text-anchor="start" x="220.5" y="-183" font-family="Helvetica,sans-Serif" font-size="10.00">*</text>
<text text-anchor="start" x="255" y="-183" font-family="Helvetica,sans-Serif" font-size="10.00">enable()</text>
<text text-anchor="start" x="220.5" y="-168" font-family="Helvetica,sans-Serif" font-size="10.00">*</text>
<text text-anchor="start" x="255" y="-168" font-family="Helvetica,sans-Serif" font-size="10.00">enable()</text>
<text text-anchor="start" x="220.5" y="-153" font-family="Helvetica,sans-Serif" font-size="10.00">*</text>
<text text-anchor="start" x="255" y="-153" font-family="Helvetica,sans-Serif" font-size="10.00">disable()</text>
<text text-anchor="start" x="220.5" y="-138" font-family="Helvetica,sans-Serif" font-size="10.00">*</text>
<text text-anchor="start" x="255" y="-138" font-family="Helvetica,sans-Serif" font-size="10.00">disable()</text>
<text text-anchor="start" x="220.5" y="-123" font-family="Helvetica,sans-Serif" font-size="10.00">*</text>
<text text-anchor="start" x="255" y="-123" font-family="Helvetica,sans-Serif" font-size="10.00">disable()</text>
<polygon fill="#666666" stroke="#666666" points="192,-613 192,-613 397,-613 397,-613 192,-613"/>
<polygon fill="#666666" stroke="#666666" points="192,-598 192,-598 397,-598 397,-598 192,-598"/>
<polygon fill="none" stroke="#666666" points="191.5,-116 191.5,-630 396.5,-630 396.5,-116 191.5,-116"/>
</a>
</g>
</g>
<!-- Node5&#45;&gt;Node4 -->
<g id="edge4_Node000004_Node000005" class="edge">
<title>Node5&#45;&gt;Node4</title>
<g id="a_edge4_Node000004_Node000005"><a xlink:title=" ">
<path fill="none" stroke="#63b8ff" d="M371.57,-640.1C373.99,-652.52 376.16,-664.86 378,-677 399.7,-820.07 404.72,-982.76 404.3,-1109.78"/>
<polygon fill="none" stroke="#63b8ff" points="374.97,-639.25 369.58,-630.13 368.11,-640.62 374.97,-639.25"/>
</a>
</g>
</g>
<!-- Node6 -->
<g id="Node000006" class="node">
<title>Node6</title>
<g id="a_Node000006"><a xlink:href="../../d4/d23/classDoublyLinkable.html" target="_top" xlink:title="A class that can be inherited from to allow inserting into a DoublyLinkedList.">
<polygon fill="white" stroke="transparent" points="200,-934 66,-934 66,-795 200,-795 200,-934"/>
<text text-anchor="start" x="71" y="-921.5" font-family="Helvetica,sans-Serif" font-size="10.00">DoublyLinkable&lt; Node &gt;</text>
<text text-anchor="start" x="75.5" y="-906.5" font-family="Helvetica,sans-Serif" font-size="10.00">#</text>
<text text-anchor="start" x="94" y="-906.5" font-family="Helvetica,sans-Serif" font-size="10.00">next</text>
<text text-anchor="start" x="75.5" y="-891.5" font-family="Helvetica,sans-Serif" font-size="10.00">#</text>
<text text-anchor="start" x="94" y="-891.5" font-family="Helvetica,sans-Serif" font-size="10.00">previous</text>
<text text-anchor="start" x="75.5" y="-876.5" font-family="Helvetica,sans-Serif" font-size="10.00">#</text>
<text text-anchor="start" x="94" y="-876.5" font-family="Helvetica,sans-Serif" font-size="10.00">~DoublyLinkable()</text>
<text text-anchor="start" x="75.5" y="-861.5" font-family="Helvetica,sans-Serif" font-size="10.00">#</text>
<text text-anchor="start" x="94" y="-861.5" font-family="Helvetica,sans-Serif" font-size="10.00">DoublyLinkable()</text>
<text text-anchor="start" x="75.5" y="-846.5" font-family="Helvetica,sans-Serif" font-size="10.00">#</text>
<text text-anchor="start" x="94" y="-846.5" font-family="Helvetica,sans-Serif" font-size="10.00">DoublyLinkable()</text>
<text text-anchor="start" x="75.5" y="-831.5" font-family="Helvetica,sans-Serif" font-size="10.00">#</text>
<text text-anchor="start" x="94" y="-831.5" font-family="Helvetica,sans-Serif" font-size="10.00">operator=()</text>
<text text-anchor="start" x="75.5" y="-816.5" font-family="Helvetica,sans-Serif" font-size="10.00">#</text>
<text text-anchor="start" x="94" y="-816.5" font-family="Helvetica,sans-Serif" font-size="10.00">DoublyLinkable()</text>
<text text-anchor="start" x="75.5" y="-801.5" font-family="Helvetica,sans-Serif" font-size="10.00">#</text>
<text text-anchor="start" x="94" y="-801.5" font-family="Helvetica,sans-Serif" font-size="10.00">operator=()</text>
<polygon fill="#666666" stroke="#666666" points="66,-916.5 66,-916.5 200,-916.5 200,-916.5 66,-916.5"/>
<polygon fill="#666666" stroke="#666666" points="66,-886.5 66,-886.5 92,-886.5 92,-886.5 66,-886.5"/>
<polygon fill="#666666" stroke="#666666" points="92,-886.5 92,-886.5 200,-886.5 200,-886.5 92,-886.5"/>
<polygon fill="none" stroke="#666666" points="66,-795 66,-934 200,-934 200,-795 66,-795"/>
</a>
</g>
</g>
<!-- Node6&#45;&gt;Node5 -->
<g id="edge5_Node000005_Node000006" class="edge">
<title>Node6&#45;&gt;Node5</title>
<g id="a_edge5_Node000005_Node000006"><a xlink:title=" ">
<path fill="none" stroke="#63b8ff" d="M158.77,-785.16C172.84,-742.38 191.15,-686.7 209.73,-630.21"/>
<polygon fill="none" stroke="#63b8ff" points="155.36,-784.33 155.56,-794.92 162.01,-786.52 155.36,-784.33"/>
</a>
</g>
</g>
<!-- Node7&#45;&gt;Node5 -->
<g id="edge6_Node000005_Node000007" class="edge">
<title>Node7&#45;&gt;Node5</title>
<g id="a_edge6_Node000005_Node000007"><a xlink:title=" ">
<path fill="none" stroke="#63b8ff" d="M294,-676.7C294,-665.37 294,-653.87 294,-642.3"/>
<polygon fill="none" stroke="#63b8ff" points="294,-642.22 290,-636.22 294,-630.22 298,-636.22 294,-642.22"/>
</a>
</g>
<text text-anchor="middle" x="327" y="-651" font-family="Helvetica,sans-Serif" font-size="10.00" fill="grey"> #updatables</text>
</g>
<!-- Node8 -->
<g id="Node000008" class="node">
<title>Node8</title>
<g id="a_Node000008"><a xlink:href="../../d7/de2/structAH_1_1ExtIO_1_1pin__t.html" target="_top" xlink:title="Type for storing pin numbers of Extended Input/Output elements.">
<polygon fill="white" stroke="transparent" points="441.5,-1772 354.5,-1772 354.5,-1618 441.5,-1618 441.5,-1772"/>
<text text-anchor="start" x="386" y="-1760" font-family="Helvetica,sans-Serif" font-size="10.00">pin_t</text>
<text text-anchor="start" x="359" y="-1745" font-family="Helvetica,sans-Serif" font-size="10.00">+</text>
<text text-anchor="start" x="372" y="-1745" font-family="Helvetica,sans-Serif" font-size="10.00">pin</text>
<text text-anchor="start" x="359" y="-1730" font-family="Helvetica,sans-Serif" font-size="10.00">+</text>
<text text-anchor="start" x="372" y="-1730" font-family="Helvetica,sans-Serif" font-size="10.00">pin_t()</text>
<text text-anchor="start" x="359" y="-1715" font-family="Helvetica,sans-Serif" font-size="10.00">+</text>
<text text-anchor="start" x="372" y="-1715" font-family="Helvetica,sans-Serif" font-size="10.00">pin_t()</text>
<text text-anchor="start" x="359" y="-1700" font-family="Helvetica,sans-Serif" font-size="10.00">+</text>
<text text-anchor="start" x="372" y="-1700" font-family="Helvetica,sans-Serif" font-size="10.00">operator+=()</text>
<text text-anchor="start" x="359" y="-1685" font-family="Helvetica,sans-Serif" font-size="10.00">+</text>
<text text-anchor="start" x="372" y="-1685" font-family="Helvetica,sans-Serif" font-size="10.00">operator++()</text>
<text text-anchor="start" x="359" y="-1670" font-family="Helvetica,sans-Serif" font-size="10.00">+</text>
<text text-anchor="start" x="372" y="-1670" font-family="Helvetica,sans-Serif" font-size="10.00">operator++()</text>
<text text-anchor="start" x="359" y="-1655" font-family="Helvetica,sans-Serif" font-size="10.00">+</text>
<text text-anchor="start" x="372" y="-1655" font-family="Helvetica,sans-Serif" font-size="10.00">operator&#45;=()</text>
<text text-anchor="start" x="359" y="-1640" font-family="Helvetica,sans-Serif" font-size="10.00">+</text>
<text text-anchor="start" x="372" y="-1640" font-family="Helvetica,sans-Serif" font-size="10.00">operator&#45;&#45;()</text>
<text text-anchor="start" x="359" y="-1625" font-family="Helvetica,sans-Serif" font-size="10.00">+</text>
<text text-anchor="start" x="372" y="-1625" font-family="Helvetica,sans-Serif" font-size="10.00">operator&#45;&#45;()</text>
<polygon fill="#666666" stroke="#666666" points="355,-1755 355,-1755 442,-1755 442,-1755 355,-1755"/>
<polygon fill="#666666" stroke="#666666" points="355,-1740 355,-1740 370,-1740 370,-1740 355,-1740"/>
<polygon fill="#666666" stroke="#666666" points="370,-1740 370,-1740 442,-1740 442,-1740 370,-1740"/>
<polygon fill="none" stroke="#666666" points="354.5,-1618 354.5,-1772 441.5,-1772 441.5,-1618 354.5,-1618"/>
</a>
</g>
</g>
<!-- Node8&#45;&gt;Node1 -->
<g id="edge10_Node000001_Node000008" class="edge">
<title>Node8&#45;&gt;Node1</title>
<g id="a_edge10_Node000001_Node000008"><a xlink:title=" ">
<path fill="none" stroke="#63b8ff" d="M354.27,-1678.29C250.88,-1638.01 0,-1520.7 0,-1330.5 0,-1330.5 0,-1330.5 0,-372 0,-265.09 60.97,-152.15 100.97,-89.58"/>
<polygon fill="none" stroke="#63b8ff" points="101.15,-89.3 101.06,-82.09 107.68,-79.23 107.77,-86.44 101.15,-89.3"/>
</a>
</g>
<text text-anchor="middle" x="24" y="-867.5" font-family="Helvetica,sans-Serif" font-size="10.00" fill="grey"> &#45;clockPin</text>
<text text-anchor="middle" x="24" y="-856.5" font-family="Helvetica,sans-Serif" font-size="10.00" fill="grey">&#45;dataPin</text>
</g>
<!-- Node8&#45;&gt;Node2 -->
<g id="edge9_Node000002_Node000008" class="edge">
<title>Node8&#45;&gt;Node2</title>
<g id="a_edge9_Node000002_Node000008"><a xlink:title=" ">
<path fill="none" stroke="#63b8ff" d="M441.51,-1629.2C456.51,-1604.82 472.42,-1576.36 484,-1549 636.82,-1187.83 681.82,-1064.11 619,-677 612.3,-635.69 600.77,-592.4 587.84,-551.89"/>
<polygon fill="none" stroke="#63b8ff" points="587.77,-551.67 582.11,-547.2 584.06,-540.26 589.72,-544.73 587.77,-551.67"/>
</a>
</g>
<text text-anchor="middle" x="665.5" y="-1078.5" font-family="Helvetica,sans-Serif" font-size="10.00" fill="grey"> #latchPin</text>
</g>
<!-- Node8&#45;&gt;Node4 -->
<g id="edge8_Node000004_Node000008" class="edge">
<title>Node8&#45;&gt;Node4</title>
<g id="a_edge8_Node000004_Node000008"><a xlink:title=" ">
<path fill="none" stroke="#63b8ff" d="M398,-1617.8C398,-1600.56 398,-1581.39 398,-1561.36"/>
<polygon fill="none" stroke="#63b8ff" points="398,-1561.13 394,-1555.13 398,-1549.13 402,-1555.13 398,-1561.13"/>
</a>
</g>
<text text-anchor="middle" x="414" y="-1592" font-family="Helvetica,sans-Serif" font-size="10.00" fill="grey"> &#45;end</text>
<text text-anchor="middle" x="414" y="-1581" font-family="Helvetica,sans-Serif" font-size="10.00" fill="grey">&#45;offset</text>
<text text-anchor="middle" x="414" y="-1570" font-family="Helvetica,sans-Serif" font-size="10.00" fill="grey">&#45;start</text>
</g>
</g>
</svg>
