<?xml version="1.0" encoding="UTF-8" standalone="no"?>
<!DOCTYPE svg PUBLIC "-//W3C//DTD SVG 1.1//EN"
 "http://www.w3.org/Graphics/SVG/1.1/DTD/svg11.dtd">
<!-- Generated by graphviz version 2.38.0 (20140413.2041)
 -->
<!-- Title: ExtendedIOElement.hpp Pages: 1 -->
<svg width="956pt" height="487pt"
 viewBox="0.00 0.00 956.48 487.00" xmlns="http://www.w3.org/2000/svg" xmlns:xlink="http://www.w3.org/1999/xlink">
<g id="graph0" class="graph" transform="scale(1 1) rotate(0) translate(4 483)">
<title>ExtendedIOElement.hpp</title>
<polygon fill="white" stroke="none" points="-4,4 -4,-483 952.479,-483 952.479,4 -4,4"/>
<!-- Node1 -->
<g id="node1" class="node"><title>Node1</title>
<g id="a_node1"><a xlink:title=" ">
<polygon fill="#bfbfbf" stroke="black" points="270.479,-459.5 270.479,-478.5 393.479,-478.5 393.479,-459.5 270.479,-459.5"/>
<text text-anchor="middle" x="331.979" y="-466.5" font-family="Helvetica,sans-Serif" font-size="10.00">ExtendedIOElement.hpp</text>
</a>
</g>
</g>
<!-- Node2 -->
<g id="node2" class="node"><title>Node2</title>
<g id="a_node2"><a xlink:href="../../d4/d35/Hardware-Types_8hpp.html" target="_top" xlink:title=" ">
<polygon fill="white" stroke="black" points="38.4788,-392.5 38.4788,-422.5 159.479,-422.5 159.479,-392.5 38.4788,-392.5"/>
<text text-anchor="start" x="46.4788" y="-410.5" font-family="Helvetica,sans-Serif" font-size="10.00">AH/Hardware/Hardware</text>
<text text-anchor="middle" x="98.9788" y="-399.5" font-family="Helvetica,sans-Serif" font-size="10.00">&#45;Types.hpp</text>
</a>
</g>
</g>
<!-- Node1&#45;&gt;Node2 -->
<g id="edge1" class="edge"><title>Node1&#45;&gt;Node2</title>
<path fill="none" stroke="midnightblue" d="M298.596,-459.475C263.5,-450.513 207.406,-436.188 163.605,-425.003"/>
<polygon fill="midnightblue" stroke="midnightblue" points="164.447,-421.606 153.892,-422.523 162.715,-428.388 164.447,-421.606"/>
</g>
<!-- Node18 -->
<g id="node18" class="node"><title>Node18</title>
<g id="a_node18"><a xlink:href="../../de/dd1/LinkedList_8hpp.html" target="_top" xlink:title=" ">
<polygon fill="white" stroke="black" points="733.479,-280.5 733.479,-299.5 880.479,-299.5 880.479,-280.5 733.479,-280.5"/>
<text text-anchor="middle" x="806.979" y="-287.5" font-family="Helvetica,sans-Serif" font-size="10.00">AH/Containers/LinkedList.hpp</text>
</a>
</g>
</g>
<!-- Node1&#45;&gt;Node18 -->
<g id="edge24" class="edge"><title>Node1&#45;&gt;Node18</title>
<path fill="none" stroke="midnightblue" d="M354.889,-459.463C432.322,-430.609 684.462,-336.654 774.586,-303.071"/>
<polygon fill="midnightblue" stroke="midnightblue" points="775.873,-306.326 784.021,-299.555 773.428,-299.767 775.873,-306.326"/>
</g>
<!-- Node3 -->
<g id="node3" class="node"><title>Node3</title>
<g id="a_node3"><a xlink:href="../../de/d76/Array_8hpp.html" target="_top" xlink:title=" ">
<polygon fill="white" stroke="black" points="81.9788,-336.5 81.9788,-355.5 207.979,-355.5 207.979,-336.5 81.9788,-336.5"/>
<text text-anchor="middle" x="144.979" y="-343.5" font-family="Helvetica,sans-Serif" font-size="10.00">AH/Containers/Array.hpp</text>
</a>
</g>
</g>
<!-- Node2&#45;&gt;Node3 -->
<g id="edge2" class="edge"><title>Node2&#45;&gt;Node3</title>
<path fill="none" stroke="midnightblue" d="M109.88,-392.399C116.565,-383.753 125.155,-372.642 132.164,-363.576"/>
<polygon fill="midnightblue" stroke="midnightblue" points="134.938,-365.71 138.285,-355.658 129.4,-361.428 134.938,-365.71"/>
</g>
<!-- Node9 -->
<g id="node9" class="node"><title>Node9</title>
<g id="a_node9"><a xlink:href="../../dc/dc7/NamespaceSettings_8hpp.html" target="_top" xlink:title=" ">
<polygon fill="white" stroke="black" points="317.979,-0.5 317.979,-19.5 441.979,-19.5 441.979,-0.5 317.979,-0.5"/>
<text text-anchor="middle" x="379.979" y="-7.5" font-family="Helvetica,sans-Serif" font-size="10.00">NamespaceSettings.hpp</text>
</a>
</g>
</g>
<!-- Node2&#45;&gt;Node9 -->
<g id="edge22" class="edge"><title>Node2&#45;&gt;Node9</title>
<path fill="none" stroke="midnightblue" d="M75.0053,-392.461C45.9926,-373.459 0.978836,-336.626 0.978836,-291 0.978836,-291 0.978836,-291 0.978836,-121 0.978836,-90.9022 -2.93651,-75.5132 19.9788,-56 61.9838,-20.2314 215.08,-12.3438 307.556,-10.9284"/>
<polygon fill="midnightblue" stroke="midnightblue" points="307.738,-14.4265 317.692,-10.7954 307.647,-7.42705 307.738,-14.4265"/>
</g>
<!-- Node15 -->
<g id="node15" class="node"><title>Node15</title>
<g id="a_node15"><a xlink:title=" ">
<polygon fill="white" stroke="#bfbfbf" points="29.4788,-56.5 29.4788,-75.5 78.4788,-75.5 78.4788,-56.5 29.4788,-56.5"/>
<text text-anchor="middle" x="53.9788" y="-63.5" font-family="Helvetica,sans-Serif" font-size="10.00">stdint.h</text>
</a>
</g>
</g>
<!-- Node2&#45;&gt;Node15 -->
<g id="edge23" class="edge"><title>Node2&#45;&gt;Node15</title>
<path fill="none" stroke="midnightblue" d="M89.4355,-392.248C76.2261,-371.101 53.9788,-329.736 53.9788,-291 53.9788,-291 53.9788,-291 53.9788,-177 53.9788,-144.948 53.9788,-107.643 53.9788,-85.7489"/>
<polygon fill="midnightblue" stroke="midnightblue" points="57.4789,-85.5577 53.9788,-75.5578 50.4789,-85.5578 57.4789,-85.5577"/>
</g>
<!-- Node4 -->
<g id="node4" class="node"><title>Node4</title>
<g id="a_node4"><a xlink:href="../../d1/d93/Error_8hpp.html" target="_top" xlink:title=" ">
<polygon fill="white" stroke="black" points="313.979,-280.5 313.979,-299.5 411.979,-299.5 411.979,-280.5 313.979,-280.5"/>
<text text-anchor="middle" x="362.979" y="-287.5" font-family="Helvetica,sans-Serif" font-size="10.00">AH/Error/Error.hpp</text>
</a>
</g>
</g>
<!-- Node3&#45;&gt;Node4 -->
<g id="edge3" class="edge"><title>Node3&#45;&gt;Node4</title>
<path fill="none" stroke="midnightblue" d="M179.522,-336.444C217.232,-327.102 277.719,-312.119 318.844,-301.933"/>
<polygon fill="midnightblue" stroke="midnightblue" points="319.733,-305.318 328.598,-299.516 318.049,-298.524 319.733,-305.318"/>
</g>
<!-- Node14 -->
<g id="node14" class="node"><title>Node14</title>
<g id="a_node14"><a xlink:title=" ">
<polygon fill="white" stroke="#bfbfbf" points="96.9788,-56.5 96.9788,-75.5 148.979,-75.5 148.979,-56.5 96.9788,-56.5"/>
<text text-anchor="middle" x="122.979" y="-63.5" font-family="Helvetica,sans-Serif" font-size="10.00">stddef.h</text>
</a>
</g>
</g>
<!-- Node3&#45;&gt;Node14 -->
<g id="edge21" class="edge"><title>Node3&#45;&gt;Node14</title>
<path fill="none" stroke="midnightblue" d="M143.541,-336.471C140.559,-318.022 133.979,-273.001 133.979,-235 133.979,-235 133.979,-235 133.979,-177 133.979,-144.788 129.251,-107.532 125.994,-85.692"/>
<polygon fill="midnightblue" stroke="midnightblue" points="129.409,-84.8736 124.417,-75.5287 122.492,-85.9472 129.409,-84.8736"/>
</g>
<!-- Node5 -->
<g id="node5" class="node"><title>Node5</title>
<g id="a_node5"><a xlink:href="../../df/dee/Debug_8hpp.html" target="_top" xlink:title=" ">
<polygon fill="white" stroke="black" points="469.479,-224.5 469.479,-243.5 582.479,-243.5 582.479,-224.5 469.479,-224.5"/>
<text text-anchor="middle" x="525.979" y="-231.5" font-family="Helvetica,sans-Serif" font-size="10.00">AH/Debug/Debug.hpp</text>
</a>
</g>
</g>
<!-- Node4&#45;&gt;Node5 -->
<g id="edge4" class="edge"><title>Node4&#45;&gt;Node5</title>
<path fill="none" stroke="midnightblue" d="M388.807,-280.444C416.228,-271.359 459.756,-256.939 490.411,-246.783"/>
<polygon fill="midnightblue" stroke="midnightblue" points="491.88,-249.984 500.272,-243.516 489.678,-243.339 491.88,-249.984"/>
</g>
<!-- Node6 -->
<g id="node6" class="node"><title>Node6</title>
<g id="a_node6"><a xlink:href="../../dd/d80/PrintStream_8hpp.html" target="_top" xlink:title=" ">
<polygon fill="white" stroke="black" points="620.479,-112.5 620.479,-131.5 779.479,-131.5 779.479,-112.5 620.479,-112.5"/>
<text text-anchor="middle" x="699.979" y="-119.5" font-family="Helvetica,sans-Serif" font-size="10.00">AH/PrintStream/PrintStream.hpp</text>
</a>
</g>
</g>
<!-- Node5&#45;&gt;Node6 -->
<g id="edge5" class="edge"><title>Node5&#45;&gt;Node6</title>
<path fill="none" stroke="midnightblue" d="M542.711,-224.352C559.295,-215.632 585.288,-201.555 606.979,-188 632.963,-171.762 661.705,-151.259 680.26,-137.67"/>
<polygon fill="midnightblue" stroke="midnightblue" points="682.52,-140.352 688.495,-131.603 678.368,-134.717 682.52,-140.352"/>
</g>
<!-- Node7 -->
<g id="node7" class="node"><title>Node7</title>
<g id="a_node7"><a xlink:title=" ">
<polygon fill="white" stroke="#bfbfbf" points="608.979,-0.5 608.979,-19.5 666.979,-19.5 666.979,-0.5 608.979,-0.5"/>
<text text-anchor="middle" x="637.979" y="-7.5" font-family="Helvetica,sans-Serif" font-size="10.00">Arduino.h</text>
</a>
</g>
</g>
<!-- Node5&#45;&gt;Node7 -->
<g id="edge19" class="edge"><title>Node5&#45;&gt;Node7</title>
<path fill="none" stroke="midnightblue" d="M538.37,-224.393C549.252,-216.217 564.747,-202.974 573.979,-188 606.082,-135.927 589.315,-112.411 612.979,-56 616.955,-46.5224 622.403,-36.4789 627.199,-28.2905"/>
<polygon fill="midnightblue" stroke="midnightblue" points="630.229,-30.0448 632.402,-19.6753 624.237,-26.426 630.229,-30.0448"/>
</g>
<!-- Node8 -->
<g id="node8" class="node"><title>Node8</title>
<g id="a_node8"><a xlink:href="../../d2/dd5/SettingsWrapper_8hpp.html" target="_top" xlink:title=" ">
<polygon fill="white" stroke="black" points="304.979,-168.5 304.979,-187.5 468.979,-187.5 468.979,-168.5 304.979,-168.5"/>
<text text-anchor="middle" x="386.979" y="-175.5" font-family="Helvetica,sans-Serif" font-size="10.00">AH/Settings/SettingsWrapper.hpp</text>
</a>
</g>
</g>
<!-- Node5&#45;&gt;Node8 -->
<g id="edge7" class="edge"><title>Node5&#45;&gt;Node8</title>
<path fill="none" stroke="midnightblue" d="M498.865,-224.444C474.04,-215.557 437.786,-201.563 413.24,-191.451"/>
<polygon fill="midnightblue" stroke="midnightblue" points="414.397,-188.142 403.821,-187.516 411.699,-194.601 414.397,-188.142"/>
</g>
<!-- Node17 -->
<g id="node17" class="node"><title>Node17</title>
<g id="a_node17"><a xlink:href="../../d7/d52/DebugVal_8hpp.html" target="_top" xlink:title=" ">
<polygon fill="white" stroke="black" points="486.979,-168.5 486.979,-187.5 564.979,-187.5 564.979,-168.5 486.979,-168.5"/>
<text text-anchor="middle" x="525.979" y="-175.5" font-family="Helvetica,sans-Serif" font-size="10.00">DebugVal.hpp</text>
</a>
</g>
</g>
<!-- Node5&#45;&gt;Node17 -->
<g id="edge20" class="edge"><title>Node5&#45;&gt;Node17</title>
<path fill="none" stroke="midnightblue" d="M525.979,-224.083C525.979,-217.006 525.979,-206.861 525.979,-197.986"/>
<polygon fill="midnightblue" stroke="midnightblue" points="529.479,-197.751 525.979,-187.751 522.479,-197.751 529.479,-197.751"/>
</g>
<!-- Node6&#45;&gt;Node7 -->
<g id="edge6" class="edge"><title>Node6&#45;&gt;Node7</title>
<path fill="none" stroke="midnightblue" d="M716.959,-112.453C738.44,-100.473 770.936,-77.7113 755.979,-56 738.387,-30.4637 704.217,-19.4085 677.156,-14.6278"/>
<polygon fill="midnightblue" stroke="midnightblue" points="677.6,-11.1549 667.182,-13.0857 676.53,-18.0727 677.6,-11.1549"/>
</g>
<!-- Node8&#45;&gt;Node5 -->
<g id="edge18" class="edge"><title>Node8&#45;&gt;Node5</title>
<path fill="none" stroke="midnightblue" d="M413.981,-187.516C438.771,-196.388 475.025,-210.38 499.607,-220.503"/>
<polygon fill="midnightblue" stroke="midnightblue" points="498.466,-223.819 509.043,-224.444 501.164,-217.36 498.466,-223.819"/>
</g>
<!-- Node8&#45;&gt;Node9 -->
<g id="edge8" class="edge"><title>Node8&#45;&gt;Node9</title>
<path fill="none" stroke="midnightblue" d="M415.391,-168.373C468.691,-150.732 574.944,-107.794 535.979,-56 524.545,-40.8022 481.821,-29.1231 443.97,-21.4759"/>
<polygon fill="midnightblue" stroke="midnightblue" points="444.451,-18.0038 433.965,-19.5228 443.109,-24.8741 444.451,-18.0038"/>
</g>
<!-- Node10 -->
<g id="node10" class="node"><title>Node10</title>
<g id="a_node10"><a xlink:href="../../db/d02/Settings_8hpp.html" target="_top" xlink:title="All user settings and debugging options can be changed here.">
<polygon fill="white" stroke="black" points="204.479,-112.5 204.479,-131.5 275.479,-131.5 275.479,-112.5 204.479,-112.5"/>
<text text-anchor="middle" x="239.979" y="-119.5" font-family="Helvetica,sans-Serif" font-size="10.00">Settings.hpp</text>
</a>
</g>
</g>
<!-- Node8&#45;&gt;Node10 -->
<g id="edge9" class="edge"><title>Node8&#45;&gt;Node10</title>
<path fill="none" stroke="midnightblue" d="M363.686,-168.444C339.171,-159.438 300.383,-145.189 272.779,-135.049"/>
<polygon fill="midnightblue" stroke="midnightblue" points="273.756,-131.679 263.162,-131.516 271.342,-138.25 273.756,-131.679"/>
</g>
<!-- Node16 -->
<g id="node16" class="node"><title>Node16</title>
<g id="a_node16"><a xlink:href="../../d9/d98/TeensyUSBTypes_8hpp.html" target="_top" xlink:title=" ">
<polygon fill="white" stroke="black" points="302.979,-112.5 302.979,-131.5 470.979,-131.5 470.979,-112.5 302.979,-112.5"/>
<text text-anchor="middle" x="386.979" y="-119.5" font-family="Helvetica,sans-Serif" font-size="10.00">AH/Teensy/TeensyUSBTypes.hpp</text>
</a>
</g>
</g>
<!-- Node8&#45;&gt;Node16 -->
<g id="edge17" class="edge"><title>Node8&#45;&gt;Node16</title>
<path fill="none" stroke="midnightblue" d="M386.979,-168.083C386.979,-161.006 386.979,-150.861 386.979,-141.986"/>
<polygon fill="midnightblue" stroke="midnightblue" points="390.479,-141.751 386.979,-131.751 383.479,-141.751 390.479,-141.751"/>
</g>
<!-- Node11 -->
<g id="node11" class="node"><title>Node11</title>
<g id="a_node11"><a xlink:href="../../dc/d50/Frequency_8hpp.html" target="_top" xlink:title=" ">
<polygon fill="white" stroke="black" points="166.979,-56.5 166.979,-75.5 294.979,-75.5 294.979,-56.5 166.979,-56.5"/>
<text text-anchor="middle" x="230.979" y="-63.5" font-family="Helvetica,sans-Serif" font-size="10.00">AH/Types/Frequency.hpp</text>
</a>
</g>
</g>
<!-- Node10&#45;&gt;Node11 -->
<g id="edge10" class="edge"><title>Node10&#45;&gt;Node11</title>
<path fill="none" stroke="midnightblue" d="M238.493,-112.083C237.3,-104.927 235.585,-94.6353 234.094,-85.6911"/>
<polygon fill="midnightblue" stroke="midnightblue" points="237.534,-85.0396 232.437,-75.7511 230.629,-86.1904 237.534,-85.0396"/>
</g>
<!-- Node12 -->
<g id="node12" class="node"><title>Node12</title>
<g id="a_node12"><a xlink:href="../../d7/d7c/ADCConfig_8hpp.html" target="_top" xlink:title="This file contains the platform&#45;specific ADC resolutions. By default, the library automatically selec...">
<polygon fill="white" stroke="black" points="378.979,-56.5 378.979,-75.5 526.979,-75.5 526.979,-56.5 378.979,-56.5"/>
<text text-anchor="middle" x="452.979" y="-63.5" font-family="Helvetica,sans-Serif" font-size="10.00">AH/Hardware/ADCConfig.hpp</text>
</a>
</g>
</g>
<!-- Node10&#45;&gt;Node12 -->
<g id="edge12" class="edge"><title>Node10&#45;&gt;Node12</title>
<path fill="none" stroke="midnightblue" d="M273.729,-112.444C310.497,-103.122 369.425,-88.1828 409.601,-77.9972"/>
<polygon fill="midnightblue" stroke="midnightblue" points="410.553,-81.3666 419.386,-75.5164 408.833,-74.5813 410.553,-81.3666"/>
</g>
<!-- Node13 -->
<g id="node13" class="node"><title>Node13</title>
<g id="a_node13"><a xlink:title=" ">
<polygon fill="white" stroke="#bfbfbf" points="312.979,-56.5 312.979,-75.5 360.979,-75.5 360.979,-56.5 312.979,-56.5"/>
<text text-anchor="middle" x="336.979" y="-63.5" font-family="Helvetica,sans-Serif" font-size="10.00">limits.h</text>
</a>
</g>
</g>
<!-- Node10&#45;&gt;Node13 -->
<g id="edge14" class="edge"><title>Node10&#45;&gt;Node13</title>
<path fill="none" stroke="midnightblue" d="M255.564,-112.324C270.978,-103.743 294.791,-90.486 312.689,-80.5224"/>
<polygon fill="midnightblue" stroke="midnightblue" points="314.398,-83.5767 321.433,-75.6545 310.993,-77.4606 314.398,-83.5767"/>
</g>
<!-- Node10&#45;&gt;Node14 -->
<g id="edge15" class="edge"><title>Node10&#45;&gt;Node14</title>
<path fill="none" stroke="midnightblue" d="M221.44,-112.444C202.356,-103.636 172.404,-89.8116 150.543,-79.722"/>
<polygon fill="midnightblue" stroke="midnightblue" points="151.977,-76.5292 141.431,-75.5164 149.044,-82.8849 151.977,-76.5292"/>
</g>
<!-- Node10&#45;&gt;Node15 -->
<g id="edge16" class="edge"><title>Node10&#45;&gt;Node15</title>
<path fill="none" stroke="midnightblue" d="M210.507,-112.444C177.316,-102.808 123.446,-87.168 88.3634,-76.9826"/>
<polygon fill="midnightblue" stroke="midnightblue" points="89.1406,-73.5638 78.5612,-74.1368 87.1888,-80.2862 89.1406,-73.5638"/>
</g>
<!-- Node11&#45;&gt;Node9 -->
<g id="edge11" class="edge"><title>Node11&#45;&gt;Node9</title>
<path fill="none" stroke="midnightblue" d="M254.588,-56.4435C279.437,-47.4381 318.753,-33.1891 346.732,-23.049"/>
<polygon fill="midnightblue" stroke="midnightblue" points="348.271,-26.2144 356.48,-19.5164 345.886,-19.6332 348.271,-26.2144"/>
</g>
<!-- Node12&#45;&gt;Node7 -->
<g id="edge13" class="edge"><title>Node12&#45;&gt;Node7</title>
<path fill="none" stroke="midnightblue" d="M482.293,-56.4435C513.821,-47.2406 564.11,-32.5617 598.965,-22.3879"/>
<polygon fill="midnightblue" stroke="midnightblue" points="600.183,-25.6783 608.802,-19.5164 598.222,-18.9587 600.183,-25.6783"/>
</g>
<!-- Node18&#45;&gt;Node5 -->
<g id="edge25" class="edge"><title>Node18&#45;&gt;Node5</title>
<path fill="none" stroke="midnightblue" d="M762.454,-280.444C713.023,-270.944 633.232,-255.611 580.201,-245.42"/>
<polygon fill="midnightblue" stroke="midnightblue" points="580.777,-241.967 570.296,-243.516 579.456,-248.841 580.777,-241.967"/>
</g>
<!-- Node19 -->
<g id="node19" class="node"><title>Node19</title>
<g id="a_node19"><a xlink:href="../../d7/d79/MinMaxFix_8hpp.html" target="_top" xlink:title=" ">
<polygon fill="white" stroke="black" points="621.479,-56.5 621.479,-75.5 746.479,-75.5 746.479,-56.5 621.479,-56.5"/>
<text text-anchor="middle" x="683.979" y="-63.5" font-family="Helvetica,sans-Serif" font-size="10.00">AH/Math/MinMaxFix.hpp</text>
</a>
</g>
</g>
<!-- Node18&#45;&gt;Node19 -->
<g id="edge26" class="edge"><title>Node18&#45;&gt;Node19</title>
<path fill="none" stroke="midnightblue" d="M808.923,-280.184C814.525,-252.344 827.932,-165.02 788.979,-112 777.08,-95.8035 758.148,-85.3785 739.616,-78.6935"/>
<polygon fill="midnightblue" stroke="midnightblue" points="740.594,-75.3307 730.001,-75.5279 738.405,-81.9796 740.594,-75.3307"/>
</g>
<!-- Node20 -->
<g id="node20" class="node"><title>Node20</title>
<g id="a_node20"><a xlink:title=" ">
<polygon fill="white" stroke="#bfbfbf" points="834.979,-224.5 834.979,-243.5 882.979,-243.5 882.979,-224.5 834.979,-224.5"/>
<text text-anchor="middle" x="858.979" y="-231.5" font-family="Helvetica,sans-Serif" font-size="10.00">stdlib.h</text>
</a>
</g>
</g>
<!-- Node18&#45;&gt;Node20 -->
<g id="edge29" class="edge"><title>Node18&#45;&gt;Node20</title>
<path fill="none" stroke="midnightblue" d="M815.566,-280.083C823.138,-272.22 834.357,-260.569 843.493,-251.081"/>
<polygon fill="midnightblue" stroke="midnightblue" points="846.137,-253.382 850.552,-243.751 841.094,-248.527 846.137,-253.382"/>
</g>
<!-- Node21 -->
<g id="node21" class="node"><title>Node21</title>
<g id="a_node21"><a xlink:title=" ">
<polygon fill="white" stroke="#bfbfbf" points="901.479,-224.5 901.479,-243.5 948.479,-243.5 948.479,-224.5 901.479,-224.5"/>
<text text-anchor="middle" x="924.979" y="-231.5" font-family="Helvetica,sans-Serif" font-size="10.00">iterator</text>
</a>
</g>
</g>
<!-- Node18&#45;&gt;Node21 -->
<g id="edge30" class="edge"><title>Node18&#45;&gt;Node21</title>
<path fill="none" stroke="midnightblue" d="M825.676,-280.444C844.923,-271.636 875.131,-257.812 897.179,-247.722"/>
<polygon fill="midnightblue" stroke="midnightblue" points="898.732,-250.86 906.369,-243.516 895.819,-244.495 898.732,-250.86"/>
</g>
<!-- Node19&#45;&gt;Node7 -->
<g id="edge27" class="edge"><title>Node19&#45;&gt;Node7</title>
<path fill="none" stroke="midnightblue" d="M676.383,-56.083C669.751,-48.2982 659.958,-36.8015 651.921,-27.3665"/>
<polygon fill="midnightblue" stroke="midnightblue" points="654.583,-25.0939 645.433,-19.7511 649.254,-29.6332 654.583,-25.0939"/>
</g>
<!-- Node19&#45;&gt;Node9 -->
<g id="edge28" class="edge"><title>Node19&#45;&gt;Node9</title>
<path fill="none" stroke="midnightblue" d="M635.809,-56.4435C582.11,-46.9049 495.293,-31.4834 437.925,-21.293"/>
<polygon fill="midnightblue" stroke="midnightblue" points="438.381,-17.8194 427.923,-19.5164 437.157,-24.7115 438.381,-17.8194"/>
</g>
</g>
</svg>
