<?xml version="1.0" encoding="UTF-8" standalone="no"?>
<!DOCTYPE svg PUBLIC "-//W3C//DTD SVG 1.1//EN"
 "http://www.w3.org/Graphics/SVG/1.1/DTD/svg11.dtd">
<!-- Generated by graphviz version 2.38.0 (20140413.2041)
 -->
<!-- Title: NoteButtonLatching Pages: 1 -->
<svg width="562pt" height="1274pt"
 viewBox="0.00 0.00 561.50 1274.00" xmlns="http://www.w3.org/2000/svg" xmlns:xlink="http://www.w3.org/1999/xlink">
<g id="graph0" class="graph" transform="scale(1 1) rotate(0) translate(4 1270)">
<title>NoteButtonLatching</title>
<polygon fill="white" stroke="none" points="-4,4 -4,-1270 557.5,-1270 557.5,4 -4,4"/>
<!-- Node1 -->
<g id="node1" class="node"><title>Node1</title>
<g id="a_node1"><a xlink:title="A class of MIDIOutputElements that read the input of a latching push button or toggle switch,...">
<polygon fill="#bfbfbf" stroke="black" points="202.5,-0.5 202.5,-79.5 320.5,-79.5 320.5,-0.5 202.5,-0.5"/>
<text text-anchor="middle" x="261.5" y="-67.5" font-family="Helvetica,sans-Serif" font-size="10.00">NoteButtonLatching</text>
<polyline fill="none" stroke="black" points="202.5,-60.5 320.5,-60.5 "/>
<text text-anchor="middle" x="261.5" y="-48.5" font-family="Helvetica,sans-Serif" font-size="10.00"> </text>
<polyline fill="none" stroke="black" points="202.5,-41.5 320.5,-41.5 "/>
<text text-anchor="start" x="210.5" y="-29.5" font-family="Helvetica,sans-Serif" font-size="10.00">+ NoteButtonLatching()</text>
<text text-anchor="start" x="210.5" y="-18.5" font-family="Helvetica,sans-Serif" font-size="10.00">+ setVelocity()</text>
<text text-anchor="start" x="210.5" y="-7.5" font-family="Helvetica,sans-Serif" font-size="10.00">+ getVelocity()</text>
</a>
</g>
</g>
<!-- Node2 -->
<g id="node2" class="node"><title>Node2</title>
<g id="a_node2"><a xlink:href="../../d3/d0b/classBankable_1_1MIDIButtonLatching.html" target="_top" xlink:title=" ">
<polygon fill="white" stroke="black" points="190,-117.5 190,-229.5 333,-229.5 333,-117.5 190,-117.5"/>
<text text-anchor="start" x="198" y="-217.5" font-family="Helvetica,sans-Serif" font-size="10.00">MIDIButtonLatching</text>
<text text-anchor="start" x="198" y="-206.5" font-family="Helvetica,sans-Serif" font-size="10.00">&lt; SingleAddress, DigitalNote</text>
<text text-anchor="middle" x="261.5" y="-195.5" font-family="Helvetica,sans-Serif" font-size="10.00">Sender &gt;</text>
<polyline fill="none" stroke="black" points="190,-188.5 333,-188.5 "/>
<text text-anchor="middle" x="261.5" y="-176.5" font-family="Helvetica,sans-Serif" font-size="10.00"> </text>
<polyline fill="none" stroke="black" points="190,-169.5 333,-169.5 "/>
<text text-anchor="start" x="198" y="-157.5" font-family="Helvetica,sans-Serif" font-size="10.00">+ begin()</text>
<text text-anchor="start" x="198" y="-146.5" font-family="Helvetica,sans-Serif" font-size="10.00">+ update()</text>
<text text-anchor="start" x="198" y="-135.5" font-family="Helvetica,sans-Serif" font-size="10.00">+ getButtonState()</text>
<text text-anchor="start" x="198" y="-124.5" font-family="Helvetica,sans-Serif" font-size="10.00"># MIDIButtonLatching()</text>
</a>
</g>
</g>
<!-- Node2&#45;&gt;Node1 -->
<g id="edge1" class="edge"><title>Node2&#45;&gt;Node1</title>
<path fill="none" stroke="midnightblue" d="M261.5,-107.32C261.5,-97.9041 261.5,-88.4729 261.5,-79.7985"/>
<polygon fill="none" stroke="midnightblue" points="258,-107.494 261.5,-117.494 265,-107.494 258,-107.494"/>
</g>
<!-- Node3 -->
<g id="node3" class="node"><title>Node3</title>
<g id="a_node3"><a xlink:href="../../d1/d55/classAH_1_1Updatable.html" target="_top" xlink:title=" ">
<polygon fill="white" stroke="black" points="10.5,-288.5 10.5,-499.5 114.5,-499.5 114.5,-288.5 10.5,-288.5"/>
<text text-anchor="middle" x="62.5" y="-487.5" font-family="Helvetica,sans-Serif" font-size="10.00">MIDIOutputElement</text>
<polyline fill="none" stroke="black" points="10.5,-480.5 114.5,-480.5 "/>
<text text-anchor="middle" x="62.5" y="-468.5" font-family="Helvetica,sans-Serif" font-size="10.00"> </text>
<polyline fill="none" stroke="black" points="10.5,-461.5 114.5,-461.5 "/>
<text text-anchor="start" x="18.5" y="-449.5" font-family="Helvetica,sans-Serif" font-size="10.00">+ ~Updatable()</text>
<text text-anchor="start" x="18.5" y="-438.5" font-family="Helvetica,sans-Serif" font-size="10.00">+ update()</text>
<text text-anchor="start" x="18.5" y="-427.5" font-family="Helvetica,sans-Serif" font-size="10.00">+ begin()</text>
<text text-anchor="start" x="18.5" y="-416.5" font-family="Helvetica,sans-Serif" font-size="10.00">+ enable()</text>
<text text-anchor="start" x="18.5" y="-405.5" font-family="Helvetica,sans-Serif" font-size="10.00">+ disable()</text>
<text text-anchor="start" x="18.5" y="-394.5" font-family="Helvetica,sans-Serif" font-size="10.00">+ isEnabled()</text>
<text text-anchor="start" x="18.5" y="-383.5" font-family="Helvetica,sans-Serif" font-size="10.00">+ enable()</text>
<text text-anchor="start" x="18.5" y="-372.5" font-family="Helvetica,sans-Serif" font-size="10.00">+ enable()</text>
<text text-anchor="start" x="18.5" y="-361.5" font-family="Helvetica,sans-Serif" font-size="10.00">+ enable()</text>
<text text-anchor="start" x="18.5" y="-350.5" font-family="Helvetica,sans-Serif" font-size="10.00">+ disable()</text>
<text text-anchor="start" x="18.5" y="-339.5" font-family="Helvetica,sans-Serif" font-size="10.00">+ disable()</text>
<text text-anchor="start" x="18.5" y="-328.5" font-family="Helvetica,sans-Serif" font-size="10.00">+ disable()</text>
<text text-anchor="start" x="18.5" y="-317.5" font-family="Helvetica,sans-Serif" font-size="10.00">+ beginAll()</text>
<text text-anchor="start" x="18.5" y="-306.5" font-family="Helvetica,sans-Serif" font-size="10.00">+ updateAll()</text>
<text text-anchor="start" x="18.5" y="-295.5" font-family="Helvetica,sans-Serif" font-size="10.00"># Updatable()</text>
</a>
</g>
</g>
<!-- Node3&#45;&gt;Node2 -->
<g id="edge2" class="edge"><title>Node3&#45;&gt;Node2</title>
<path fill="none" stroke="midnightblue" d="M120.616,-280.455C121.568,-279.287 122.529,-278.134 123.5,-277 142.327,-255.009 166.699,-234.968 189.711,-218.555"/>
<polygon fill="none" stroke="midnightblue" points="117.829,-278.338 114.48,-288.39 123.366,-282.62 117.829,-278.338"/>
</g>
<!-- Node4 -->
<g id="node4" class="node"><title>Node4</title>
<g id="a_node4"><a xlink:href="../../d4/d23/classDoublyLinkable.html" target="_top" xlink:title=" ">
<polygon fill="white" stroke="black" points="0,-1170 0,-1249 137,-1249 137,-1170 0,-1170"/>
<text text-anchor="start" x="8" y="-1237" font-family="Helvetica,sans-Serif" font-size="10.00">DoublyLinkable&lt; Updatable</text>
<text text-anchor="middle" x="68.5" y="-1226" font-family="Helvetica,sans-Serif" font-size="10.00">&lt; NormalUpdatable &gt; &gt;</text>
<polyline fill="none" stroke="black" points="0,-1219 137,-1219 "/>
<text text-anchor="start" x="8" y="-1207" font-family="Helvetica,sans-Serif" font-size="10.00"># next</text>
<text text-anchor="start" x="8" y="-1196" font-family="Helvetica,sans-Serif" font-size="10.00"># previous</text>
<polyline fill="none" stroke="black" points="0,-1189 137,-1189 "/>
<text text-anchor="start" x="8" y="-1177" font-family="Helvetica,sans-Serif" font-size="10.00"># ~DoublyLinkable()</text>
</a>
</g>
</g>
<!-- Node4&#45;&gt;Node3 -->
<g id="edge3" class="edge"><title>Node4&#45;&gt;Node3</title>
<path fill="none" stroke="midnightblue" d="M60.4274,-1159.48C58.0118,-1142.59 55.6903,-1123.51 54.5,-1106 37.9819,-863.005 48.5286,-801.482 54.5,-558 54.9619,-539.164 55.7237,-519.116 56.5984,-499.755"/>
<polygon fill="none" stroke="midnightblue" points="57.011,-1160.31 61.9344,-1169.69 63.9359,-1159.29 57.011,-1160.31"/>
</g>
<!-- Node6 -->
<g id="node6" class="node"><title>Node6</title>
<g id="a_node6"><a xlink:href="../../d1/d55/classAH_1_1Updatable.html" target="_top" xlink:title=" ">
<polygon fill="white" stroke="black" points="64,-894.5 64,-1105.5 219,-1105.5 219,-894.5 64,-894.5"/>
<text text-anchor="middle" x="141.5" y="-1093.5" font-family="Helvetica,sans-Serif" font-size="10.00">Updatable&lt; NormalUpdatable &gt;</text>
<polyline fill="none" stroke="black" points="64,-1086.5 219,-1086.5 "/>
<text text-anchor="middle" x="141.5" y="-1074.5" font-family="Helvetica,sans-Serif" font-size="10.00"> </text>
<polyline fill="none" stroke="black" points="64,-1067.5 219,-1067.5 "/>
<text text-anchor="start" x="72" y="-1055.5" font-family="Helvetica,sans-Serif" font-size="10.00">+ ~Updatable()</text>
<text text-anchor="start" x="72" y="-1044.5" font-family="Helvetica,sans-Serif" font-size="10.00">+ update()</text>
<text text-anchor="start" x="72" y="-1033.5" font-family="Helvetica,sans-Serif" font-size="10.00">+ begin()</text>
<text text-anchor="start" x="72" y="-1022.5" font-family="Helvetica,sans-Serif" font-size="10.00">+ enable()</text>
<text text-anchor="start" x="72" y="-1011.5" font-family="Helvetica,sans-Serif" font-size="10.00">+ disable()</text>
<text text-anchor="start" x="72" y="-1000.5" font-family="Helvetica,sans-Serif" font-size="10.00">+ isEnabled()</text>
<text text-anchor="start" x="72" y="-989.5" font-family="Helvetica,sans-Serif" font-size="10.00">+ enable()</text>
<text text-anchor="start" x="72" y="-978.5" font-family="Helvetica,sans-Serif" font-size="10.00">+ enable()</text>
<text text-anchor="start" x="72" y="-967.5" font-family="Helvetica,sans-Serif" font-size="10.00">+ enable()</text>
<text text-anchor="start" x="72" y="-956.5" font-family="Helvetica,sans-Serif" font-size="10.00">+ disable()</text>
<text text-anchor="start" x="72" y="-945.5" font-family="Helvetica,sans-Serif" font-size="10.00">+ disable()</text>
<text text-anchor="start" x="72" y="-934.5" font-family="Helvetica,sans-Serif" font-size="10.00">+ disable()</text>
<text text-anchor="start" x="72" y="-923.5" font-family="Helvetica,sans-Serif" font-size="10.00">+ beginAll()</text>
<text text-anchor="start" x="72" y="-912.5" font-family="Helvetica,sans-Serif" font-size="10.00">+ updateAll()</text>
<text text-anchor="start" x="72" y="-901.5" font-family="Helvetica,sans-Serif" font-size="10.00"># Updatable()</text>
</a>
</g>
</g>
<!-- Node4&#45;&gt;Node6 -->
<g id="edge6" class="edge"><title>Node4&#45;&gt;Node6</title>
<path fill="none" stroke="midnightblue" d="M85.5329,-1160.08C91.3155,-1143.65 98.0196,-1124.59 104.736,-1105.5"/>
<polygon fill="none" stroke="midnightblue" points="82.0768,-1159.36 82.0597,-1169.96 88.6801,-1161.69 82.0768,-1159.36"/>
</g>
<!-- Node5 -->
<g id="node5" class="node"><title>Node5</title>
<g id="a_node5"><a xlink:href="../../dd/d16/classDoublyLinkedList.html" target="_top" xlink:title=" ">
<polygon fill="white" stroke="black" points="63.5,-558.5 63.5,-835.5 233.5,-835.5 233.5,-558.5 63.5,-558.5"/>
<text text-anchor="start" x="71.5" y="-823.5" font-family="Helvetica,sans-Serif" font-size="10.00">DoublyLinkedList&lt; AH</text>
<text text-anchor="middle" x="148.5" y="-812.5" font-family="Helvetica,sans-Serif" font-size="10.00">::Updatable&lt; NormalUpdatable &gt; &gt;</text>
<polyline fill="none" stroke="black" points="63.5,-805.5 233.5,-805.5 "/>
<text text-anchor="middle" x="148.5" y="-793.5" font-family="Helvetica,sans-Serif" font-size="10.00"> </text>
<polyline fill="none" stroke="black" points="63.5,-786.5 233.5,-786.5 "/>
<text text-anchor="start" x="71.5" y="-774.5" font-family="Helvetica,sans-Serif" font-size="10.00">+ append()</text>
<text text-anchor="start" x="71.5" y="-763.5" font-family="Helvetica,sans-Serif" font-size="10.00">+ append()</text>
<text text-anchor="start" x="71.5" y="-752.5" font-family="Helvetica,sans-Serif" font-size="10.00">+ insertBefore()</text>
<text text-anchor="start" x="71.5" y="-741.5" font-family="Helvetica,sans-Serif" font-size="10.00">+ insertBefore()</text>
<text text-anchor="start" x="71.5" y="-730.5" font-family="Helvetica,sans-Serif" font-size="10.00">+ insertSorted()</text>
<text text-anchor="start" x="71.5" y="-719.5" font-family="Helvetica,sans-Serif" font-size="10.00">+ insertSorted()</text>
<text text-anchor="start" x="71.5" y="-708.5" font-family="Helvetica,sans-Serif" font-size="10.00">+ remove()</text>
<text text-anchor="start" x="71.5" y="-697.5" font-family="Helvetica,sans-Serif" font-size="10.00">+ remove()</text>
<text text-anchor="start" x="71.5" y="-686.5" font-family="Helvetica,sans-Serif" font-size="10.00">+ moveDown()</text>
<text text-anchor="start" x="71.5" y="-675.5" font-family="Helvetica,sans-Serif" font-size="10.00">+ couldContain()</text>
<text text-anchor="start" x="71.5" y="-664.5" font-family="Helvetica,sans-Serif" font-size="10.00">+ begin()</text>
<text text-anchor="start" x="71.5" y="-653.5" font-family="Helvetica,sans-Serif" font-size="10.00">+ begin()</text>
<text text-anchor="start" x="71.5" y="-642.5" font-family="Helvetica,sans-Serif" font-size="10.00">+ end()</text>
<text text-anchor="start" x="71.5" y="-631.5" font-family="Helvetica,sans-Serif" font-size="10.00">+ end()</text>
<text text-anchor="start" x="71.5" y="-620.5" font-family="Helvetica,sans-Serif" font-size="10.00">+ rbegin()</text>
<text text-anchor="start" x="71.5" y="-609.5" font-family="Helvetica,sans-Serif" font-size="10.00">+ rbegin()</text>
<text text-anchor="start" x="71.5" y="-598.5" font-family="Helvetica,sans-Serif" font-size="10.00">+ rend()</text>
<text text-anchor="start" x="71.5" y="-587.5" font-family="Helvetica,sans-Serif" font-size="10.00">+ rend()</text>
<text text-anchor="start" x="71.5" y="-576.5" font-family="Helvetica,sans-Serif" font-size="10.00">+ getFirst()</text>
<text text-anchor="start" x="71.5" y="-565.5" font-family="Helvetica,sans-Serif" font-size="10.00">+ getLast()</text>
</a>
</g>
</g>
<!-- Node5&#45;&gt;Node3 -->
<g id="edge4" class="edge"><title>Node5&#45;&gt;Node3</title>
<path fill="none" stroke="#404040" d="M109.149,-558.273C104.673,-542.607 100.144,-526.755 95.7578,-511.402"/>
<polygon fill="none" stroke="#404040" points="95.7313,-511.309 90.2368,-506.639 92.4346,-499.771 97.929,-504.441 95.7313,-511.309"/>
<text text-anchor="middle" x="130.5" y="-532" font-family="Helvetica,sans-Serif" font-size="10.00"> &#45;updatables</text>
</g>
<!-- Node5&#45;&gt;Node6 -->
<g id="edge7" class="edge"><title>Node5&#45;&gt;Node6</title>
<path fill="none" stroke="#404040" d="M146.397,-835.511C146.123,-849.191 145.824,-862.868 145.5,-876 145.449,-878.056 145.397,-880.131 145.342,-882.221"/>
<polygon fill="none" stroke="#404040" points="145.34,-882.328 149.176,-888.434 145.016,-894.324 141.179,-888.218 145.34,-882.328"/>
<text text-anchor="middle" x="173.5" y="-862.5" font-family="Helvetica,sans-Serif" font-size="10.00"> &#45;updatables</text>
</g>
<!-- Node6&#45;&gt;Node5 -->
<g id="edge5" class="edge"><title>Node6&#45;&gt;Node5</title>
<path fill="none" stroke="#404040" d="M125.143,-894.434C124.497,-888.207 123.939,-882.027 123.5,-876 122.831,-866.809 122.649,-857.369 122.851,-847.861"/>
<polygon fill="none" stroke="#404040" points="122.853,-847.786 119.081,-841.641 123.303,-835.795 127.076,-841.941 122.853,-847.786"/>
<text text-anchor="middle" x="134.5" y="-868" font-family="Helvetica,sans-Serif" font-size="10.00"> &#45;last</text>
<text text-anchor="middle" x="134.5" y="-857" font-family="Helvetica,sans-Serif" font-size="10.00">&#45;first</text>
</g>
<!-- Node7 -->
<g id="node7" class="node"><title>Node7</title>
<g id="a_node7"><a xlink:href="../../de/d0d/classAH_1_1Button.html" target="_top" xlink:title="A class for reading and debouncing buttons and switches.">
<polygon fill="white" stroke="black" points="133,-277.5 133,-510.5 256,-510.5 256,-277.5 133,-277.5"/>
<text text-anchor="middle" x="194.5" y="-498.5" font-family="Helvetica,sans-Serif" font-size="10.00">Button</text>
<polyline fill="none" stroke="black" points="133,-491.5 256,-491.5 "/>
<text text-anchor="start" x="141" y="-479.5" font-family="Helvetica,sans-Serif" font-size="10.00">&#45; pin</text>
<text text-anchor="start" x="141" y="-468.5" font-family="Helvetica,sans-Serif" font-size="10.00">&#45; prevInput</text>
<text text-anchor="start" x="141" y="-457.5" font-family="Helvetica,sans-Serif" font-size="10.00">&#45; debouncedState</text>
<text text-anchor="start" x="141" y="-446.5" font-family="Helvetica,sans-Serif" font-size="10.00">&#45; prevBounceTime</text>
<text text-anchor="start" x="141" y="-435.5" font-family="Helvetica,sans-Serif" font-size="10.00">&#45; invertState</text>
<text text-anchor="start" x="141" y="-424.5" font-family="Helvetica,sans-Serif" font-size="10.00">&#45; debounceTime</text>
<polyline fill="none" stroke="black" points="133,-417.5 256,-417.5 "/>
<text text-anchor="start" x="141" y="-405.5" font-family="Helvetica,sans-Serif" font-size="10.00">+ Button()</text>
<text text-anchor="start" x="141" y="-394.5" font-family="Helvetica,sans-Serif" font-size="10.00">+ Button()</text>
<text text-anchor="start" x="141" y="-383.5" font-family="Helvetica,sans-Serif" font-size="10.00">+ begin()</text>
<text text-anchor="start" x="141" y="-372.5" font-family="Helvetica,sans-Serif" font-size="10.00">+ invert()</text>
<text text-anchor="start" x="141" y="-361.5" font-family="Helvetica,sans-Serif" font-size="10.00">+ update()</text>
<text text-anchor="start" x="141" y="-350.5" font-family="Helvetica,sans-Serif" font-size="10.00">+ getState()</text>
<text text-anchor="start" x="141" y="-339.5" font-family="Helvetica,sans-Serif" font-size="10.00">+ previousBounceTime()</text>
<text text-anchor="start" x="141" y="-328.5" font-family="Helvetica,sans-Serif" font-size="10.00">+ stableTime()</text>
<text text-anchor="start" x="141" y="-317.5" font-family="Helvetica,sans-Serif" font-size="10.00">+ stableTime()</text>
<text text-anchor="start" x="141" y="-306.5" font-family="Helvetica,sans-Serif" font-size="10.00">+ getName()</text>
<text text-anchor="start" x="141" y="-295.5" font-family="Helvetica,sans-Serif" font-size="10.00">+ setDebounceTime()</text>
<text text-anchor="start" x="141" y="-284.5" font-family="Helvetica,sans-Serif" font-size="10.00">+ getDebounceTime()</text>
</a>
</g>
</g>
<!-- Node7&#45;&gt;Node2 -->
<g id="edge8" class="edge"><title>Node7&#45;&gt;Node2</title>
<path fill="none" stroke="#404040" d="M229.962,-277.352C233.736,-265.044 237.477,-252.845 240.992,-241.382"/>
<polygon fill="none" stroke="#404040" points="241.047,-241.202 238.981,-234.293 244.565,-229.729 246.63,-236.638 241.047,-241.202"/>
<text text-anchor="middle" x="255.5" y="-251" font-family="Helvetica,sans-Serif" font-size="10.00"> &#45;button</text>
</g>
<!-- Node8 -->
<g id="node8" class="node"><title>Node8</title>
<g id="a_node8"><a xlink:href="../../dc/dd4/classDigitalNoteSender.html" target="_top" xlink:title=" ">
<polygon fill="white" stroke="black" points="274,-343.5 274,-444.5 385,-444.5 385,-343.5 274,-343.5"/>
<text text-anchor="middle" x="329.5" y="-432.5" font-family="Helvetica,sans-Serif" font-size="10.00">DigitalNoteSender</text>
<polyline fill="none" stroke="black" points="274,-425.5 385,-425.5 "/>
<text text-anchor="start" x="282" y="-413.5" font-family="Helvetica,sans-Serif" font-size="10.00">&#45; velocity</text>
<polyline fill="none" stroke="black" points="274,-406.5 385,-406.5 "/>
<text text-anchor="start" x="282" y="-394.5" font-family="Helvetica,sans-Serif" font-size="10.00">+ DigitalNoteSender()</text>
<text text-anchor="start" x="282" y="-383.5" font-family="Helvetica,sans-Serif" font-size="10.00">+ sendOn()</text>
<text text-anchor="start" x="282" y="-372.5" font-family="Helvetica,sans-Serif" font-size="10.00">+ sendOff()</text>
<text text-anchor="start" x="282" y="-361.5" font-family="Helvetica,sans-Serif" font-size="10.00">+ setVelocity()</text>
<text text-anchor="start" x="282" y="-350.5" font-family="Helvetica,sans-Serif" font-size="10.00">+ getVelocity()</text>
</a>
</g>
</g>
<!-- Node8&#45;&gt;Node2 -->
<g id="edge9" class="edge"><title>Node8&#45;&gt;Node2</title>
<path fill="none" stroke="#404040" d="M314.07,-343.419C304.682,-313.253 292.569,-274.333 282.337,-241.455"/>
<polygon fill="none" stroke="#404040" points="282.227,-241.101 276.625,-236.561 278.661,-229.643 284.264,-234.184 282.227,-241.101"/>
<text text-anchor="middle" x="307" y="-251" font-family="Helvetica,sans-Serif" font-size="10.00"> +sender</text>
</g>
<!-- Node9 -->
<g id="node9" class="node"><title>Node9</title>
<g id="a_node9"><a xlink:href="../../df/de5/classBankable_1_1SingleAddress.html" target="_top" xlink:title=" ">
<polygon fill="white" stroke="black" points="403,-354.5 403,-433.5 512,-433.5 512,-354.5 403,-354.5"/>
<text text-anchor="middle" x="457.5" y="-421.5" font-family="Helvetica,sans-Serif" font-size="10.00">SingleAddress</text>
<polyline fill="none" stroke="black" points="403,-414.5 512,-414.5 "/>
<text text-anchor="middle" x="457.5" y="-402.5" font-family="Helvetica,sans-Serif" font-size="10.00"> </text>
<polyline fill="none" stroke="black" points="403,-395.5 512,-395.5 "/>
<text text-anchor="start" x="411" y="-383.5" font-family="Helvetica,sans-Serif" font-size="10.00">+ SingleAddress()</text>
<text text-anchor="start" x="411" y="-372.5" font-family="Helvetica,sans-Serif" font-size="10.00">+ getBaseAddress()</text>
<text text-anchor="start" x="411" y="-361.5" font-family="Helvetica,sans-Serif" font-size="10.00">+ getActiveAddress()</text>
</a>
</g>
</g>
<!-- Node9&#45;&gt;Node2 -->
<g id="edge10" class="edge"><title>Node9&#45;&gt;Node2</title>
<path fill="none" stroke="#404040" d="M441.141,-354.5C429.877,-330.653 413.379,-300.252 393.5,-277 378.864,-259.881 360.968,-243.719 343.134,-229.509"/>
<polygon fill="none" stroke="#404040" points="342.724,-229.19 335.532,-228.662 333.253,-221.821 340.445,-222.349 342.724,-229.19"/>
<text text-anchor="middle" x="396" y="-251" font-family="Helvetica,sans-Serif" font-size="10.00"> &#45;address</text>
</g>
<!-- Node10 -->
<g id="node10" class="node"><title>Node10</title>
<g id="a_node10"><a xlink:href="../../d3/d43/classBankableMIDIOutput.html" target="_top" xlink:title="A base class for all MIDIOutputElements that can be banked.">
<polygon fill="white" stroke="black" points="272,-657.5 272,-736.5 395,-736.5 395,-657.5 272,-657.5"/>
<text text-anchor="middle" x="333.5" y="-724.5" font-family="Helvetica,sans-Serif" font-size="10.00">BankableMIDIOutput</text>
<polyline fill="none" stroke="black" points="272,-717.5 395,-717.5 "/>
<text text-anchor="start" x="280" y="-705.5" font-family="Helvetica,sans-Serif" font-size="10.00">&#45; type</text>
<polyline fill="none" stroke="black" points="272,-698.5 395,-698.5 "/>
<text text-anchor="start" x="280" y="-686.5" font-family="Helvetica,sans-Serif" font-size="10.00">+ BankableMIDIOutput()</text>
<text text-anchor="start" x="280" y="-675.5" font-family="Helvetica,sans-Serif" font-size="10.00">+ BankableMIDIOutput()</text>
<text text-anchor="start" x="280" y="-664.5" font-family="Helvetica,sans-Serif" font-size="10.00">+ getAddressOffset()</text>
</a>
</g>
</g>
<!-- Node10&#45;&gt;Node9 -->
<g id="edge11" class="edge"><title>Node10&#45;&gt;Node9</title>
<path fill="none" stroke="midnightblue" d="M353.391,-647.717C377.909,-588.201 419.084,-488.252 441.604,-433.586"/>
<polygon fill="none" stroke="midnightblue" points="350.03,-646.686 349.457,-657.266 356.502,-649.353 350.03,-646.686"/>
</g>
<!-- Node11 -->
<g id="node11" class="node"><title>Node11</title>
<g id="a_node11"><a xlink:href="../../d4/d6e/classBankableMIDIOutput__Base.html" target="_top" xlink:title=" ">
<polygon fill="white" stroke="black" points="258.5,-944 258.5,-1056 408.5,-1056 408.5,-944 258.5,-944"/>
<text text-anchor="middle" x="333.5" y="-1044" font-family="Helvetica,sans-Serif" font-size="10.00">BankableMIDIOutput_Base</text>
<polyline fill="none" stroke="black" points="258.5,-1037 408.5,-1037 "/>
<text text-anchor="start" x="266.5" y="-1025" font-family="Helvetica,sans-Serif" font-size="10.00">&#45; lockedSetting</text>
<text text-anchor="start" x="266.5" y="-1014" font-family="Helvetica,sans-Serif" font-size="10.00">&#45; UNLOCKED</text>
<polyline fill="none" stroke="black" points="258.5,-1007 408.5,-1007 "/>
<text text-anchor="start" x="266.5" y="-995" font-family="Helvetica,sans-Serif" font-size="10.00">+ getRawBankSetting()</text>
<text text-anchor="start" x="266.5" y="-984" font-family="Helvetica,sans-Serif" font-size="10.00">+ getSelection()</text>
<text text-anchor="start" x="266.5" y="-973" font-family="Helvetica,sans-Serif" font-size="10.00">+ lock()</text>
<text text-anchor="start" x="266.5" y="-962" font-family="Helvetica,sans-Serif" font-size="10.00">+ unlock()</text>
<text text-anchor="start" x="266.5" y="-951" font-family="Helvetica,sans-Serif" font-size="10.00"># BankableMIDIOutput_Base()</text>
</a>
</g>
</g>
<!-- Node11&#45;&gt;Node10 -->
<g id="edge12" class="edge"><title>Node11&#45;&gt;Node10</title>
<path fill="none" stroke="midnightblue" d="M333.5,-933.639C333.5,-873.501 333.5,-786.335 333.5,-736.61"/>
<polygon fill="none" stroke="midnightblue" points="330,-933.792 333.5,-943.792 337,-933.792 330,-933.792"/>
</g>
<!-- Node12 -->
<g id="node12" class="node"><title>Node12</title>
<g id="a_node12"><a xlink:href="../../d9/d36/classOutputBank.html" target="_top" xlink:title="A class for changing the address of BankableMIDIOutputs.">
<polygon fill="white" stroke="black" points="277,-1153.5 277,-1265.5 390,-1265.5 390,-1153.5 277,-1153.5"/>
<text text-anchor="middle" x="333.5" y="-1253.5" font-family="Helvetica,sans-Serif" font-size="10.00">OutputBank</text>
<polyline fill="none" stroke="black" points="277,-1246.5 390,-1246.5 "/>
<text text-anchor="start" x="285" y="-1234.5" font-family="Helvetica,sans-Serif" font-size="10.00">&#45; tracksPerBank</text>
<text text-anchor="start" x="285" y="-1223.5" font-family="Helvetica,sans-Serif" font-size="10.00">&#45; bankSetting</text>
<polyline fill="none" stroke="black" points="277,-1216.5 390,-1216.5 "/>
<text text-anchor="start" x="285" y="-1204.5" font-family="Helvetica,sans-Serif" font-size="10.00">+ OutputBank()</text>
<text text-anchor="start" x="285" y="-1193.5" font-family="Helvetica,sans-Serif" font-size="10.00">+ select()</text>
<text text-anchor="start" x="285" y="-1182.5" font-family="Helvetica,sans-Serif" font-size="10.00">+ getSelection()</text>
<text text-anchor="start" x="285" y="-1171.5" font-family="Helvetica,sans-Serif" font-size="10.00">+ getTracksPerBank()</text>
<text text-anchor="start" x="285" y="-1160.5" font-family="Helvetica,sans-Serif" font-size="10.00">+ getOffset()</text>
</a>
</g>
</g>
<!-- Node12&#45;&gt;Node11 -->
<g id="edge13" class="edge"><title>Node12&#45;&gt;Node11</title>
<path fill="none" stroke="#404040" d="M333.5,-1153.44C333.5,-1127.41 333.5,-1096.09 333.5,-1068.63"/>
<polygon fill="none" stroke="#404040" points="333.5,-1068.32 329.5,-1062.32 333.5,-1056.32 337.5,-1062.32 333.5,-1068.32"/>
<text text-anchor="middle" x="348.5" y="-1127" font-family="Helvetica,sans-Serif" font-size="10.00"> #bank</text>
</g>
<!-- Node13 -->
<g id="node13" class="node"><title>Node13</title>
<g id="a_node13"><a xlink:href="../../d3/d10/classMIDICNChannelAddress.html" target="_top" xlink:title="A type&#45;safe utility class for saving a MIDI address consisting of a 7&#45;bit address,...">
<polygon fill="white" stroke="black" points="413.5,-564 413.5,-830 553.5,-830 553.5,-564 413.5,-564"/>
<text text-anchor="middle" x="483.5" y="-818" font-family="Helvetica,sans-Serif" font-size="10.00">MIDICNChannelAddress</text>
<polyline fill="none" stroke="black" points="413.5,-811 553.5,-811 "/>
<text text-anchor="start" x="421.5" y="-799" font-family="Helvetica,sans-Serif" font-size="10.00">&#45; addresses</text>
<polyline fill="none" stroke="black" points="413.5,-792 553.5,-792 "/>
<text text-anchor="start" x="421.5" y="-780" font-family="Helvetica,sans-Serif" font-size="10.00">+ MIDICNChannelAddress()</text>
<text text-anchor="start" x="421.5" y="-769" font-family="Helvetica,sans-Serif" font-size="10.00">+ MIDICNChannelAddress()</text>
<text text-anchor="start" x="421.5" y="-758" font-family="Helvetica,sans-Serif" font-size="10.00">+ MIDICNChannelAddress()</text>
<text text-anchor="start" x="421.5" y="-747" font-family="Helvetica,sans-Serif" font-size="10.00">+ MIDICNChannelAddress()</text>
<text text-anchor="start" x="421.5" y="-736" font-family="Helvetica,sans-Serif" font-size="10.00">+ MIDICNChannelAddress()</text>
<text text-anchor="start" x="421.5" y="-725" font-family="Helvetica,sans-Serif" font-size="10.00">+ operator+=()</text>
<text text-anchor="start" x="421.5" y="-714" font-family="Helvetica,sans-Serif" font-size="10.00">+ operator&#45;=()</text>
<text text-anchor="start" x="421.5" y="-703" font-family="Helvetica,sans-Serif" font-size="10.00">+ operator+()</text>
<text text-anchor="start" x="421.5" y="-692" font-family="Helvetica,sans-Serif" font-size="10.00">+ operator&#45;()</text>
<text text-anchor="start" x="421.5" y="-681" font-family="Helvetica,sans-Serif" font-size="10.00">+ operator==()</text>
<text text-anchor="start" x="421.5" y="-670" font-family="Helvetica,sans-Serif" font-size="10.00">+ operator!=()</text>
<text text-anchor="start" x="421.5" y="-659" font-family="Helvetica,sans-Serif" font-size="10.00">+ getAddress()</text>
<text text-anchor="start" x="421.5" y="-648" font-family="Helvetica,sans-Serif" font-size="10.00">+ getChannel()</text>
<text text-anchor="start" x="421.5" y="-637" font-family="Helvetica,sans-Serif" font-size="10.00">+ getRawChannel()</text>
<text text-anchor="start" x="421.5" y="-626" font-family="Helvetica,sans-Serif" font-size="10.00">+ getCableNumber()</text>
<text text-anchor="start" x="421.5" y="-615" font-family="Helvetica,sans-Serif" font-size="10.00">+ isValid()</text>
<text text-anchor="start" x="421.5" y="-604" font-family="Helvetica,sans-Serif" font-size="10.00">+ operator bool()</text>
<text text-anchor="start" x="421.5" y="-593" font-family="Helvetica,sans-Serif" font-size="10.00">+ matchSingle()</text>
<text text-anchor="start" x="421.5" y="-582" font-family="Helvetica,sans-Serif" font-size="10.00">+ matchAddressInRange()</text>
<text text-anchor="start" x="421.5" y="-571" font-family="Helvetica,sans-Serif" font-size="10.00">+ invalid()</text>
</a>
</g>
</g>
<!-- Node13&#45;&gt;Node9 -->
<g id="edge14" class="edge"><title>Node13&#45;&gt;Node9</title>
<path fill="none" stroke="#404040" d="M472.096,-563.977C468.482,-522.143 464.702,-478.374 461.894,-445.867"/>
<polygon fill="none" stroke="#404040" points="461.862,-445.503 457.361,-439.869 460.83,-433.547 465.331,-439.181 461.862,-445.503"/>
<text text-anchor="middle" x="491" y="-532" font-family="Helvetica,sans-Serif" font-size="10.00"> &#45;address</text>
</g>
</g>
</svg>
