<?xml version="1.0" encoding="UTF-8" standalone="no"?>
<!DOCTYPE svg PUBLIC "-//W3C//DTD SVG 1.1//EN"
 "http://www.w3.org/Graphics/SVG/1.1/DTD/svg11.dtd">
<!-- Generated by graphviz version 2.43.0 (0)
 -->
<!-- Title: DisplayElement Pages: 1 -->
<svg width="1143pt" height="683pt"
 viewBox="0.00 0.00 1142.50 683.00" xmlns="http://www.w3.org/2000/svg" xmlns:xlink="http://www.w3.org/1999/xlink">
<g id="graph0" class="graph" transform="scale(1 1) rotate(0) translate(4 679)">
<title>DisplayElement</title>
<polygon fill="white" stroke="transparent" points="-4,4 -4,-679 1138.5,-679 1138.5,4 -4,4"/>
<!-- Node1 -->
<g id="node1" class="node">
<title>Node1</title>
<g id="a_node1"><a xlink:title="An interface for elements that draw to a display.">
<polygon fill="#bfbfbf" stroke="black" points="509,-281.5 509,-514.5 630,-514.5 630,-281.5 509,-281.5"/>
<text text-anchor="middle" x="569.5" y="-502.5" font-family="Helvetica,sans-Serif" font-size="10.00">DisplayElement</text>
<polyline fill="none" stroke="black" points="509,-495.5 630,-495.5 "/>
<text text-anchor="start" x="517" y="-483.5" font-family="Helvetica,sans-Serif" font-size="10.00"># display</text>
<text text-anchor="start" x="517" y="-472.5" font-family="Helvetica,sans-Serif" font-size="10.00"># elements</text>
<polyline fill="none" stroke="black" points="509,-465.5 630,-465.5 "/>
<text text-anchor="start" x="517" y="-453.5" font-family="Helvetica,sans-Serif" font-size="10.00">+ ~DisplayElement()</text>
<text text-anchor="start" x="517" y="-442.5" font-family="Helvetica,sans-Serif" font-size="10.00">+ draw()</text>
<text text-anchor="start" x="517" y="-431.5" font-family="Helvetica,sans-Serif" font-size="10.00">+ getDirty()</text>
<text text-anchor="start" x="517" y="-420.5" font-family="Helvetica,sans-Serif" font-size="10.00">+ getDisplay()</text>
<text text-anchor="start" x="517" y="-409.5" font-family="Helvetica,sans-Serif" font-size="10.00">+ getDisplay()</text>
<text text-anchor="start" x="517" y="-398.5" font-family="Helvetica,sans-Serif" font-size="10.00">+ getAll()</text>
<text text-anchor="start" x="517" y="-387.5" font-family="Helvetica,sans-Serif" font-size="10.00"># DisplayElement()</text>
<text text-anchor="start" x="517" y="-376.5" font-family="Helvetica,sans-Serif" font-size="10.00">* enable()</text>
<text text-anchor="start" x="517" y="-365.5" font-family="Helvetica,sans-Serif" font-size="10.00">* disable()</text>
<text text-anchor="start" x="517" y="-354.5" font-family="Helvetica,sans-Serif" font-size="10.00">* isEnabled()</text>
<text text-anchor="start" x="517" y="-343.5" font-family="Helvetica,sans-Serif" font-size="10.00">* enable()</text>
<text text-anchor="start" x="517" y="-332.5" font-family="Helvetica,sans-Serif" font-size="10.00">* enable()</text>
<text text-anchor="start" x="517" y="-321.5" font-family="Helvetica,sans-Serif" font-size="10.00">* enable()</text>
<text text-anchor="start" x="517" y="-310.5" font-family="Helvetica,sans-Serif" font-size="10.00">* disable()</text>
<text text-anchor="start" x="517" y="-299.5" font-family="Helvetica,sans-Serif" font-size="10.00">* disable()</text>
<text text-anchor="start" x="517" y="-288.5" font-family="Helvetica,sans-Serif" font-size="10.00">* disable()</text>
</a>
</g>
</g>
<!-- Node3 -->
<g id="node3" class="node">
<title>Node3</title>
<g id="a_node3"><a xlink:href="../../d6/dc4/classBankDisplay.html" target="_top" xlink:title="A class for displaying the setting of a Bank object.">
<polygon fill="white" stroke="black" points="0,-50 0,-195 97,-195 97,-50 0,-50"/>
<text text-anchor="middle" x="48.5" y="-183" font-family="Helvetica,sans-Serif" font-size="10.00">BankDisplay</text>
<polyline fill="none" stroke="black" points="0,-176 97,-176 "/>
<text text-anchor="start" x="8" y="-164" font-family="Helvetica,sans-Serif" font-size="10.00">&#45; bank</text>
<text text-anchor="start" x="8" y="-153" font-family="Helvetica,sans-Serif" font-size="10.00">&#45; previous</text>
<text text-anchor="start" x="8" y="-142" font-family="Helvetica,sans-Serif" font-size="10.00">&#45; offset</text>
<text text-anchor="start" x="8" y="-131" font-family="Helvetica,sans-Serif" font-size="10.00">&#45; x</text>
<text text-anchor="start" x="8" y="-120" font-family="Helvetica,sans-Serif" font-size="10.00">&#45; y</text>
<text text-anchor="start" x="8" y="-109" font-family="Helvetica,sans-Serif" font-size="10.00">&#45; size</text>
<text text-anchor="start" x="8" y="-98" font-family="Helvetica,sans-Serif" font-size="10.00">&#45; color</text>
<polyline fill="none" stroke="black" points="0,-91 97,-91 "/>
<text text-anchor="start" x="8" y="-79" font-family="Helvetica,sans-Serif" font-size="10.00">+ BankDisplay()</text>
<text text-anchor="start" x="8" y="-68" font-family="Helvetica,sans-Serif" font-size="10.00">+ draw()</text>
<text text-anchor="start" x="8" y="-57" font-family="Helvetica,sans-Serif" font-size="10.00">+ getDirty()</text>
</a>
</g>
</g>
<!-- Node1&#45;&gt;Node3 -->
<g id="edge2" class="edge">
<title>Node1&#45;&gt;Node3</title>
<path fill="none" stroke="midnightblue" d="M498.72,-391.2C399.57,-379.58 218.78,-345.23 105.5,-245 90.41,-231.64 79,-213.44 70.52,-195.19"/>
<polygon fill="none" stroke="midnightblue" points="498.61,-394.71 508.94,-392.35 499.39,-387.75 498.61,-394.71"/>
</g>
<!-- Node4 -->
<g id="node4" class="node">
<title>Node4</title>
<g id="a_node4"><a xlink:href="../../da/dce/classBitmapDisplay.html" target="_top" xlink:title="A class that displays a bitmap depending on the state of a MIDINote or any other object that has a ge...">
<polygon fill="white" stroke="black" points="115,-61 115,-184 262,-184 262,-61 115,-61"/>
<text text-anchor="middle" x="188.5" y="-172" font-family="Helvetica,sans-Serif" font-size="10.00">BitmapDisplay&lt; Value_t &gt;</text>
<polyline fill="none" stroke="black" points="115,-165 262,-165 "/>
<text text-anchor="start" x="123" y="-153" font-family="Helvetica,sans-Serif" font-size="10.00">&#45; value</text>
<text text-anchor="start" x="123" y="-142" font-family="Helvetica,sans-Serif" font-size="10.00">&#45; xbm</text>
<text text-anchor="start" x="123" y="-131" font-family="Helvetica,sans-Serif" font-size="10.00">&#45; x</text>
<text text-anchor="start" x="123" y="-120" font-family="Helvetica,sans-Serif" font-size="10.00">&#45; y</text>
<text text-anchor="start" x="123" y="-109" font-family="Helvetica,sans-Serif" font-size="10.00">&#45; color</text>
<polyline fill="none" stroke="black" points="115,-102 262,-102 "/>
<text text-anchor="start" x="123" y="-90" font-family="Helvetica,sans-Serif" font-size="10.00">+ BitmapDisplay()</text>
<text text-anchor="start" x="123" y="-79" font-family="Helvetica,sans-Serif" font-size="10.00">+ draw()</text>
<text text-anchor="start" x="123" y="-68" font-family="Helvetica,sans-Serif" font-size="10.00">+ getDirty()</text>
</a>
</g>
</g>
<!-- Node1&#45;&gt;Node4 -->
<g id="edge3" class="edge">
<title>Node1&#45;&gt;Node4</title>
<path fill="none" stroke="midnightblue" d="M499.13,-372.96C434.41,-348.3 338.47,-305.06 270.5,-245 251.14,-227.9 234.25,-205.26 220.9,-184.16"/>
<polygon fill="none" stroke="midnightblue" points="498.25,-376.37 508.84,-376.61 500.71,-369.81 498.25,-376.37"/>
</g>
<!-- Node5 -->
<g id="node5" class="node">
<title>Node5</title>
<g id="a_node5"><a xlink:href="../../dc/d95/classMCU_1_1AnalogVUDisplay.html" target="_top" xlink:title=" ">
<polygon fill="white" stroke="black" points="280,-44.5 280,-200.5 427,-200.5 427,-44.5 280,-44.5"/>
<text text-anchor="middle" x="353.5" y="-188.5" font-family="Helvetica,sans-Serif" font-size="10.00">AnalogVUDisplay&lt; VU_t &gt;</text>
<polyline fill="none" stroke="black" points="280,-181.5 427,-181.5 "/>
<text text-anchor="start" x="288" y="-169.5" font-family="Helvetica,sans-Serif" font-size="10.00">&#45; vu</text>
<text text-anchor="start" x="288" y="-158.5" font-family="Helvetica,sans-Serif" font-size="10.00">&#45; x</text>
<text text-anchor="start" x="288" y="-147.5" font-family="Helvetica,sans-Serif" font-size="10.00">&#45; y</text>
<text text-anchor="start" x="288" y="-136.5" font-family="Helvetica,sans-Serif" font-size="10.00">&#45; r_sq</text>
<text text-anchor="start" x="288" y="-125.5" font-family="Helvetica,sans-Serif" font-size="10.00">&#45; theta_min</text>
<text text-anchor="start" x="288" y="-114.5" font-family="Helvetica,sans-Serif" font-size="10.00">&#45; theta_diff</text>
<text text-anchor="start" x="288" y="-103.5" font-family="Helvetica,sans-Serif" font-size="10.00">&#45; color</text>
<polyline fill="none" stroke="black" points="280,-96.5 427,-96.5 "/>
<text text-anchor="start" x="288" y="-84.5" font-family="Helvetica,sans-Serif" font-size="10.00">+ AnalogVUDisplay()</text>
<text text-anchor="start" x="288" y="-73.5" font-family="Helvetica,sans-Serif" font-size="10.00">+ draw()</text>
<text text-anchor="start" x="288" y="-62.5" font-family="Helvetica,sans-Serif" font-size="10.00">+ drawNeedle()</text>
<text text-anchor="start" x="288" y="-51.5" font-family="Helvetica,sans-Serif" font-size="10.00">+ getDirty()</text>
</a>
</g>
</g>
<!-- Node1&#45;&gt;Node5 -->
<g id="edge4" class="edge">
<title>Node1&#45;&gt;Node5</title>
<path fill="none" stroke="midnightblue" d="M502.15,-324.45C480.19,-299.81 456.17,-271.74 435.5,-245 424.68,-231.01 413.69,-215.66 403.43,-200.72"/>
<polygon fill="none" stroke="midnightblue" points="499.61,-326.87 508.89,-331.99 504.83,-322.2 499.61,-326.87"/>
</g>
<!-- Node6 -->
<g id="node6" class="node">
<title>Node6</title>
<g id="a_node6"><a xlink:href="../../d7/dae/classMCU_1_1LCDDisplay.html" target="_top" xlink:title="Displays the text of the Mackie Control Universal LCD screen for a single track.">
<polygon fill="white" stroke="black" points="445,-17 445,-228 554,-228 554,-17 445,-17"/>
<text text-anchor="middle" x="499.5" y="-216" font-family="Helvetica,sans-Serif" font-size="10.00">LCDDisplay</text>
<polyline fill="none" stroke="black" points="445,-209 554,-209 "/>
<text text-anchor="start" x="453" y="-197" font-family="Helvetica,sans-Serif" font-size="10.00">&#45; lcd</text>
<text text-anchor="start" x="453" y="-186" font-family="Helvetica,sans-Serif" font-size="10.00">&#45; bank</text>
<text text-anchor="start" x="453" y="-175" font-family="Helvetica,sans-Serif" font-size="10.00">&#45; track</text>
<text text-anchor="start" x="453" y="-164" font-family="Helvetica,sans-Serif" font-size="10.00">&#45; line</text>
<text text-anchor="start" x="453" y="-153" font-family="Helvetica,sans-Serif" font-size="10.00">&#45; x</text>
<text text-anchor="start" x="453" y="-142" font-family="Helvetica,sans-Serif" font-size="10.00">&#45; y</text>
<text text-anchor="start" x="453" y="-131" font-family="Helvetica,sans-Serif" font-size="10.00">&#45; size</text>
<text text-anchor="start" x="453" y="-120" font-family="Helvetica,sans-Serif" font-size="10.00">&#45; color</text>
<polyline fill="none" stroke="black" points="445,-113 554,-113 "/>
<text text-anchor="start" x="453" y="-101" font-family="Helvetica,sans-Serif" font-size="10.00">+ LCDDisplay()</text>
<text text-anchor="start" x="453" y="-90" font-family="Helvetica,sans-Serif" font-size="10.00">+ LCDDisplay()</text>
<text text-anchor="start" x="453" y="-79" font-family="Helvetica,sans-Serif" font-size="10.00">+ LCDDisplay()</text>
<text text-anchor="start" x="453" y="-68" font-family="Helvetica,sans-Serif" font-size="10.00">+ LCDDisplay()</text>
<text text-anchor="start" x="453" y="-57" font-family="Helvetica,sans-Serif" font-size="10.00">+ draw()</text>
<text text-anchor="start" x="453" y="-46" font-family="Helvetica,sans-Serif" font-size="10.00">+ getDirty()</text>
<text text-anchor="start" x="453" y="-35" font-family="Helvetica,sans-Serif" font-size="10.00">+ separateTracks()</text>
<text text-anchor="start" x="453" y="-24" font-family="Helvetica,sans-Serif" font-size="10.00">+ setLine()</text>
</a>
</g>
</g>
<!-- Node1&#45;&gt;Node6 -->
<g id="edge5" class="edge">
<title>Node1&#45;&gt;Node6</title>
<path fill="none" stroke="midnightblue" d="M537.36,-271.44C533.67,-257 529.93,-242.38 526.31,-228.25"/>
<polygon fill="none" stroke="midnightblue" points="534.04,-272.59 539.92,-281.41 540.83,-270.85 534.04,-272.59"/>
</g>
<!-- Node7 -->
<g id="node7" class="node">
<title>Node7</title>
<g id="a_node7"><a xlink:href="../../d1/dc8/classMCU_1_1TimeDisplayDisplay.html" target="_top" xlink:title=" ">
<polygon fill="white" stroke="black" points="572.5,-17 572.5,-228 706.5,-228 706.5,-17 572.5,-17"/>
<text text-anchor="middle" x="639.5" y="-216" font-family="Helvetica,sans-Serif" font-size="10.00">TimeDisplayDisplay</text>
<polyline fill="none" stroke="black" points="572.5,-209 706.5,-209 "/>
<text text-anchor="start" x="580.5" y="-197" font-family="Helvetica,sans-Serif" font-size="10.00">&#45; timedisplay</text>
<text text-anchor="start" x="580.5" y="-186" font-family="Helvetica,sans-Serif" font-size="10.00">&#45; x</text>
<text text-anchor="start" x="580.5" y="-175" font-family="Helvetica,sans-Serif" font-size="10.00">&#45; y</text>
<text text-anchor="start" x="580.5" y="-164" font-family="Helvetica,sans-Serif" font-size="10.00">&#45; size</text>
<text text-anchor="start" x="580.5" y="-153" font-family="Helvetica,sans-Serif" font-size="10.00">&#45; color</text>
<polyline fill="none" stroke="black" points="572.5,-146 706.5,-146 "/>
<text text-anchor="start" x="580.5" y="-134" font-family="Helvetica,sans-Serif" font-size="10.00">+ TimeDisplayDisplay()</text>
<text text-anchor="start" x="580.5" y="-123" font-family="Helvetica,sans-Serif" font-size="10.00">+ draw()</text>
<text text-anchor="start" x="580.5" y="-112" font-family="Helvetica,sans-Serif" font-size="10.00">+ getDirty()</text>
<text text-anchor="start" x="580.5" y="-101" font-family="Helvetica,sans-Serif" font-size="10.00">+ getX()</text>
<text text-anchor="start" x="580.5" y="-90" font-family="Helvetica,sans-Serif" font-size="10.00">+ getY()</text>
<text text-anchor="start" x="580.5" y="-79" font-family="Helvetica,sans-Serif" font-size="10.00">+ getSize()</text>
<text text-anchor="start" x="580.5" y="-68" font-family="Helvetica,sans-Serif" font-size="10.00">+ getColor()</text>
<text text-anchor="start" x="580.5" y="-57" font-family="Helvetica,sans-Serif" font-size="10.00">+ setX()</text>
<text text-anchor="start" x="580.5" y="-46" font-family="Helvetica,sans-Serif" font-size="10.00">+ setY()</text>
<text text-anchor="start" x="580.5" y="-35" font-family="Helvetica,sans-Serif" font-size="10.00">+ setSize()</text>
<text text-anchor="start" x="580.5" y="-24" font-family="Helvetica,sans-Serif" font-size="10.00">+ setColor()</text>
</a>
</g>
</g>
<!-- Node1&#45;&gt;Node7 -->
<g id="edge6" class="edge">
<title>Node1&#45;&gt;Node7</title>
<path fill="none" stroke="midnightblue" d="M601.64,-271.44C605.33,-257 609.07,-242.38 612.69,-228.25"/>
<polygon fill="none" stroke="midnightblue" points="598.17,-270.85 599.08,-281.41 604.96,-272.59 598.17,-270.85"/>
</g>
<!-- Node8 -->
<g id="node8" class="node">
<title>Node8</title>
<g id="a_node8"><a xlink:href="../../d3/d98/classMCU_1_1VPotDisplay.html" target="_top" xlink:title=" ">
<polygon fill="white" stroke="black" points="724.5,-33.5 724.5,-211.5 854.5,-211.5 854.5,-33.5 724.5,-33.5"/>
<text text-anchor="middle" x="789.5" y="-199.5" font-family="Helvetica,sans-Serif" font-size="10.00">VPotDisplay&lt; VPot_t &gt;</text>
<polyline fill="none" stroke="black" points="724.5,-192.5 854.5,-192.5 "/>
<text text-anchor="start" x="732.5" y="-180.5" font-family="Helvetica,sans-Serif" font-size="10.00">&#45; vpot</text>
<text text-anchor="start" x="732.5" y="-169.5" font-family="Helvetica,sans-Serif" font-size="10.00">&#45; x</text>
<text text-anchor="start" x="732.5" y="-158.5" font-family="Helvetica,sans-Serif" font-size="10.00">&#45; y</text>
<text text-anchor="start" x="732.5" y="-147.5" font-family="Helvetica,sans-Serif" font-size="10.00">&#45; radius</text>
<text text-anchor="start" x="732.5" y="-136.5" font-family="Helvetica,sans-Serif" font-size="10.00">&#45; innerRadius</text>
<text text-anchor="start" x="732.5" y="-125.5" font-family="Helvetica,sans-Serif" font-size="10.00">&#45; color</text>
<text text-anchor="start" x="732.5" y="-114.5" font-family="Helvetica,sans-Serif" font-size="10.00">&#45; angleSpacing</text>
<polyline fill="none" stroke="black" points="724.5,-107.5 854.5,-107.5 "/>
<text text-anchor="start" x="732.5" y="-95.5" font-family="Helvetica,sans-Serif" font-size="10.00">+ VPotDisplay()</text>
<text text-anchor="start" x="732.5" y="-84.5" font-family="Helvetica,sans-Serif" font-size="10.00">+ draw()</text>
<text text-anchor="start" x="732.5" y="-73.5" font-family="Helvetica,sans-Serif" font-size="10.00">+ getDirty()</text>
<text text-anchor="start" x="732.5" y="-62.5" font-family="Helvetica,sans-Serif" font-size="10.00">+ setAngleSpacing()</text>
<text text-anchor="start" x="732.5" y="-51.5" font-family="Helvetica,sans-Serif" font-size="10.00">+ getAngleSpacing()</text>
<text text-anchor="start" x="732.5" y="-40.5" font-family="Helvetica,sans-Serif" font-size="10.00"># drawVPotSegment()</text>
</a>
</g>
</g>
<!-- Node1&#45;&gt;Node8 -->
<g id="edge7" class="edge">
<title>Node1&#45;&gt;Node8</title>
<path fill="none" stroke="midnightblue" d="M637.41,-332.6C663.22,-306.55 692.03,-275.48 715.5,-245 723.56,-234.53 731.49,-223.13 738.98,-211.65"/>
<polygon fill="none" stroke="midnightblue" points="634.81,-330.25 630.22,-339.8 639.76,-335.2 634.81,-330.25"/>
</g>
<!-- Node9 -->
<g id="node9" class="node">
<title>Node9</title>
<g id="a_node9"><a xlink:href="../../d4/d42/classMCU_1_1VUDisplay.html" target="_top" xlink:title=" ">
<polygon fill="white" stroke="black" points="872.5,-0.5 872.5,-244.5 1004.5,-244.5 1004.5,-0.5 872.5,-0.5"/>
<text text-anchor="middle" x="938.5" y="-232.5" font-family="Helvetica,sans-Serif" font-size="10.00">VUDisplay&lt; VU_t &gt;</text>
<polyline fill="none" stroke="black" points="872.5,-225.5 1004.5,-225.5 "/>
<text text-anchor="start" x="880.5" y="-213.5" font-family="Helvetica,sans-Serif" font-size="10.00">&#45; vu</text>
<text text-anchor="start" x="880.5" y="-202.5" font-family="Helvetica,sans-Serif" font-size="10.00">&#45; x</text>
<text text-anchor="start" x="880.5" y="-191.5" font-family="Helvetica,sans-Serif" font-size="10.00">&#45; y</text>
<text text-anchor="start" x="880.5" y="-180.5" font-family="Helvetica,sans-Serif" font-size="10.00">&#45; width</text>
<text text-anchor="start" x="880.5" y="-169.5" font-family="Helvetica,sans-Serif" font-size="10.00">&#45; blockheight</text>
<text text-anchor="start" x="880.5" y="-158.5" font-family="Helvetica,sans-Serif" font-size="10.00">&#45; spacing</text>
<text text-anchor="start" x="880.5" y="-147.5" font-family="Helvetica,sans-Serif" font-size="10.00">&#45; color</text>
<text text-anchor="start" x="880.5" y="-136.5" font-family="Helvetica,sans-Serif" font-size="10.00">&#45; peak</text>
<text text-anchor="start" x="880.5" y="-125.5" font-family="Helvetica,sans-Serif" font-size="10.00">&#45; previousDecay</text>
<text text-anchor="start" x="880.5" y="-114.5" font-family="Helvetica,sans-Serif" font-size="10.00">&#45; decaying</text>
<text text-anchor="start" x="880.5" y="-103.5" font-family="Helvetica,sans-Serif" font-size="10.00">&#45; decayTime</text>
<polyline fill="none" stroke="black" points="872.5,-96.5 1004.5,-96.5 "/>
<text text-anchor="start" x="880.5" y="-84.5" font-family="Helvetica,sans-Serif" font-size="10.00">+ VUDisplay()</text>
<text text-anchor="start" x="880.5" y="-73.5" font-family="Helvetica,sans-Serif" font-size="10.00">+ draw()</text>
<text text-anchor="start" x="880.5" y="-62.5" font-family="Helvetica,sans-Serif" font-size="10.00">+ getDirty()</text>
<text text-anchor="start" x="880.5" y="-51.5" font-family="Helvetica,sans-Serif" font-size="10.00"># drawPeak()</text>
<text text-anchor="start" x="880.5" y="-40.5" font-family="Helvetica,sans-Serif" font-size="10.00"># drawBlocks()</text>
<text text-anchor="start" x="880.5" y="-29.5" font-family="Helvetica,sans-Serif" font-size="10.00">&#45; updatePeak()</text>
<text text-anchor="start" x="880.5" y="-18.5" font-family="Helvetica,sans-Serif" font-size="10.00">&#45; shouldStartDecaying()</text>
<text text-anchor="start" x="880.5" y="-7.5" font-family="Helvetica,sans-Serif" font-size="10.00">&#45; shouldUpdateDecay()</text>
</a>
</g>
</g>
<!-- Node1&#45;&gt;Node9 -->
<g id="edge8" class="edge">
<title>Node1&#45;&gt;Node9</title>
<path fill="none" stroke="midnightblue" d="M639.83,-373.09C703.84,-348.65 798.06,-305.65 863.5,-245 866.5,-242.22 869.42,-239.29 872.27,-236.25"/>
<polygon fill="none" stroke="midnightblue" points="638.35,-369.91 630.22,-376.71 640.81,-376.46 638.35,-369.91"/>
</g>
<!-- Node10 -->
<g id="node10" class="node">
<title>Node10</title>
<g id="a_node10"><a xlink:href="../../d3/d51/classSelectorDisplay.html" target="_top" xlink:title="A class for displaying the setting of a Selector object.">
<polygon fill="white" stroke="black" points="1022.5,-44.5 1022.5,-200.5 1134.5,-200.5 1134.5,-44.5 1022.5,-44.5"/>
<text text-anchor="middle" x="1078.5" y="-188.5" font-family="Helvetica,sans-Serif" font-size="10.00">SelectorDisplay</text>
<polyline fill="none" stroke="black" points="1022.5,-181.5 1134.5,-181.5 "/>
<text text-anchor="start" x="1030.5" y="-169.5" font-family="Helvetica,sans-Serif" font-size="10.00">&#45; selector</text>
<text text-anchor="start" x="1030.5" y="-158.5" font-family="Helvetica,sans-Serif" font-size="10.00">&#45; previous</text>
<text text-anchor="start" x="1030.5" y="-147.5" font-family="Helvetica,sans-Serif" font-size="10.00">&#45; offset</text>
<text text-anchor="start" x="1030.5" y="-136.5" font-family="Helvetica,sans-Serif" font-size="10.00">&#45; multiplier</text>
<text text-anchor="start" x="1030.5" y="-125.5" font-family="Helvetica,sans-Serif" font-size="10.00">&#45; x</text>
<text text-anchor="start" x="1030.5" y="-114.5" font-family="Helvetica,sans-Serif" font-size="10.00">&#45; y</text>
<text text-anchor="start" x="1030.5" y="-103.5" font-family="Helvetica,sans-Serif" font-size="10.00">&#45; size</text>
<text text-anchor="start" x="1030.5" y="-92.5" font-family="Helvetica,sans-Serif" font-size="10.00">&#45; color</text>
<polyline fill="none" stroke="black" points="1022.5,-85.5 1134.5,-85.5 "/>
<text text-anchor="start" x="1030.5" y="-73.5" font-family="Helvetica,sans-Serif" font-size="10.00">+ SelectorDisplay()</text>
<text text-anchor="start" x="1030.5" y="-62.5" font-family="Helvetica,sans-Serif" font-size="10.00">+ draw()</text>
<text text-anchor="start" x="1030.5" y="-51.5" font-family="Helvetica,sans-Serif" font-size="10.00">+ getDirty()</text>
</a>
</g>
</g>
<!-- Node1&#45;&gt;Node10 -->
<g id="edge9" class="edge">
<title>Node1&#45;&gt;Node10</title>
<path fill="none" stroke="midnightblue" d="M640.34,-388.98C735.2,-374.94 904.21,-337.94 1013.5,-245 1027.72,-232.91 1039.3,-216.91 1048.54,-200.5"/>
<polygon fill="none" stroke="midnightblue" points="639.67,-385.54 630.27,-390.43 640.67,-392.47 639.67,-385.54"/>
</g>
<!-- Node2 -->
<g id="node2" class="node">
<title>Node2</title>
<g id="a_node2"><a xlink:href="../../d4/d23/classDoublyLinkable.html" target="_top" xlink:title=" ">
<polygon fill="white" stroke="black" points="474,-551.5 474,-674.5 665,-674.5 665,-551.5 474,-551.5"/>
<text text-anchor="middle" x="569.5" y="-662.5" font-family="Helvetica,sans-Serif" font-size="10.00">DoublyLinkable&lt; DisplayElement &gt;</text>
<polyline fill="none" stroke="black" points="474,-655.5 665,-655.5 "/>
<text text-anchor="start" x="482" y="-643.5" font-family="Helvetica,sans-Serif" font-size="10.00"># next</text>
<text text-anchor="start" x="482" y="-632.5" font-family="Helvetica,sans-Serif" font-size="10.00"># previous</text>
<polyline fill="none" stroke="black" points="474,-625.5 665,-625.5 "/>
<text text-anchor="start" x="482" y="-613.5" font-family="Helvetica,sans-Serif" font-size="10.00"># ~DoublyLinkable()</text>
<text text-anchor="start" x="482" y="-602.5" font-family="Helvetica,sans-Serif" font-size="10.00"># DoublyLinkable()</text>
<text text-anchor="start" x="482" y="-591.5" font-family="Helvetica,sans-Serif" font-size="10.00"># DoublyLinkable()</text>
<text text-anchor="start" x="482" y="-580.5" font-family="Helvetica,sans-Serif" font-size="10.00"># DoublyLinkable()</text>
<text text-anchor="start" x="482" y="-569.5" font-family="Helvetica,sans-Serif" font-size="10.00"># operator=()</text>
<text text-anchor="start" x="482" y="-558.5" font-family="Helvetica,sans-Serif" font-size="10.00"># operator=()</text>
</a>
</g>
</g>
<!-- Node2&#45;&gt;Node1 -->
<g id="edge1" class="edge">
<title>Node2&#45;&gt;Node1</title>
<path fill="none" stroke="midnightblue" d="M569.5,-541.02C569.5,-532.48 569.5,-523.6 569.5,-514.62"/>
<polygon fill="none" stroke="midnightblue" points="566,-541.25 569.5,-551.25 573,-541.25 566,-541.25"/>
</g>
</g>
</svg>
