<?xml version="1.0" encoding="UTF-8" standalone="no"?>
<!DOCTYPE svg PUBLIC "-//W3C//DTD SVG 1.1//EN"
 "http://www.w3.org/Graphics/SVG/1.1/DTD/svg11.dtd">
<!-- Generated by graphviz version 2.43.0 (0)
 -->
<!-- Title: MIDI Input Elements LEDs Pages: 1 -->
<svg width="454pt" height="38pt"
 viewBox="0.00 0.00 454.00 38.00" xmlns="http://www.w3.org/2000/svg" xmlns:xlink="http://www.w3.org/1999/xlink">
<g id="graph0" class="graph" transform="scale(1 1) rotate(0) translate(4 34)">
<title>MIDI Input Elements LEDs</title>
<polygon fill="white" stroke="transparent" points="-4,4 -4,-34 450,-34 450,4 -4,4"/>
<!-- Node3 -->
<g id="node1" class="node">
<title>Node3</title>
<g id="a_node1"><a xlink:href="../../d8/d8b/group__BankableMIDIInputElementsLEDs.html" target="_top" xlink:title="All Bankable MIDIInputElements that visualize their state using LEDs.">
<polygon fill="white" stroke="black" points="446,-30 331,-30 331,0 446,0 446,-30"/>
<text text-anchor="start" x="339" y="-18" font-family="Helvetica,sans-Serif" font-size="10.00">Bankable MIDI Input</text>
<text text-anchor="middle" x="388.5" y="-7" font-family="Helvetica,sans-Serif" font-size="10.00"> Elements LEDs</text>
</a>
</g>
</g>
<!-- Node2 -->
<g id="node2" class="node">
<title>Node2</title>
<g id="a_node2"><a xlink:href="../../df/d8b/group__MIDIInputElements.html" target="_top" xlink:title="All Elements that listen for incoming MIDI events.">
<polygon fill="white" stroke="black" points="116,-24.5 0,-24.5 0,-5.5 116,-5.5 116,-24.5"/>
<text text-anchor="middle" x="58" y="-12.5" font-family="Helvetica,sans-Serif" font-size="10.00">MIDI Input Elements</text>
</a>
</g>
</g>
<!-- Node1 -->
<g id="node3" class="node">
<title>Node1</title>
<g id="a_node3"><a xlink:title="All MIDIInputElements that visualize their state using LEDs.">
<polygon fill="#bfbfbf" stroke="black" points="295,-24.5 152,-24.5 152,-5.5 295,-5.5 295,-24.5"/>
<text text-anchor="middle" x="223.5" y="-12.5" font-family="Helvetica,sans-Serif" font-size="10.00">MIDI Input Elements LEDs</text>
</a>
</g>
</g>
<!-- Node2&#45;&gt;Node1 -->
<g id="edge1" class="edge">
<title>Node2&#45;&gt;Node1</title>
<path fill="none" stroke="black" d="M126.32,-15C134.74,-15 143.36,-15 151.83,-15"/>
<polygon fill="black" stroke="black" points="126.18,-11.5 116.18,-15 126.18,-18.5 126.18,-11.5"/>
</g>
<!-- Node1&#45;&gt;Node3 -->
<g id="edge2" class="edge">
<title>Node1&#45;&gt;Node3</title>
<path fill="none" stroke="black" d="M305.12,-15C313.72,-15 322.34,-15 330.58,-15"/>
<polygon fill="black" stroke="black" points="305.05,-11.5 295.05,-15 305.05,-18.5 305.05,-11.5"/>
</g>
</g>
</svg>
