<?xml version="1.0" encoding="UTF-8" standalone="no"?>
<!DOCTYPE svg PUBLIC "-//W3C//DTD SVG 1.1//EN"
 "http://www.w3.org/Graphics/SVG/1.1/DTD/svg11.dtd">
<!-- Generated by graphviz version 2.43.0 (0)
 -->
<!-- Title: BankableMatchingMIDIInputElement&lt; Type, Matcher &gt; Pages: 1 -->
<svg width="341pt" height="962pt"
 viewBox="0.00 0.00 341.00 962.00" xmlns="http://www.w3.org/2000/svg" xmlns:xlink="http://www.w3.org/1999/xlink">
<g id="graph0" class="graph" transform="scale(1 1) rotate(0) translate(4 958)">
<title>BankableMatchingMIDIInputElement&lt; Type, Matcher &gt;</title>
<!-- Node1 -->
<g id="Node000001" class="node">
<title>Node1</title>
<g id="a_Node000001"><a xlink:title="Similar to MatchingMIDIInputElement, but for Bankable MIDI Input Elements.">
<polygon fill="#999999" stroke="transparent" points="251.5,-112 84.5,-112 84.5,0 251.5,0 251.5,-112"/>
<text text-anchor="start" x="99.5" y="-100" font-family="Helvetica,sans-Serif" font-size="10.00">BankableMatchingMIDIInput</text>
<text text-anchor="start" x="102.5" y="-89" font-family="Helvetica,sans-Serif" font-size="10.00">Element&lt; Type, Matcher &gt;</text>
<text text-anchor="start" x="166.5" y="-74" font-family="Helvetica,sans-Serif" font-size="10.00"> </text>
<text text-anchor="start" x="89" y="-59" font-family="Helvetica,sans-Serif" font-size="10.00">+</text>
<text text-anchor="start" x="102" y="-59" font-family="Helvetica,sans-Serif" font-size="10.00">~BankableMatchingMIDIInput</text>
<text text-anchor="start" x="102" y="-48" font-family="Helvetica,sans-Serif" font-size="10.00">Element()</text>
<text text-anchor="start" x="89" y="-33" font-family="Helvetica,sans-Serif" font-size="10.00">#</text>
<text text-anchor="start" x="102" y="-33" font-family="Helvetica,sans-Serif" font-size="10.00">BankableMatchingMIDIInput</text>
<text text-anchor="start" x="102" y="-22" font-family="Helvetica,sans-Serif" font-size="10.00">Element()</text>
<text text-anchor="start" x="89" y="-7" font-family="Helvetica,sans-Serif" font-size="10.00">#</text>
<text text-anchor="start" x="102" y="-7" font-family="Helvetica,sans-Serif" font-size="10.00">getActiveBank()</text>
<polygon fill="#666666" stroke="#666666" points="85,-84 85,-84 252,-84 252,-84 85,-84"/>
<polygon fill="#666666" stroke="#666666" points="85,-69 85,-69 252,-69 252,-69 85,-69"/>
<polygon fill="none" stroke="#666666" points="84.5,0 84.5,-112 251.5,-112 251.5,0 84.5,0"/>
</a>
</g>
</g>
<!-- Node2 -->
<g id="Node000002" class="node">
<title>Node2</title>
<g id="a_Node000002"><a xlink:href="../../d5/dae/classMatchingMIDIInputElement.html" target="_top" xlink:title="The MIDIInputElement base class is very general: you give it a MIDI message, and it calls the updateW...">
<polygon fill="white" stroke="transparent" points="162,-238 0,-238 0,-148 162,-148 162,-238"/>
<text text-anchor="start" x="14.5" y="-226" font-family="Helvetica,sans-Serif" font-size="10.00">MatchingMIDIInputElement</text>
<text text-anchor="start" x="35.5" y="-215" font-family="Helvetica,sans-Serif" font-size="10.00">&lt; Type, Matcher &gt;</text>
<text text-anchor="start" x="4" y="-200" font-family="Helvetica,sans-Serif" font-size="10.00">#</text>
<text text-anchor="start" x="17" y="-200" font-family="Helvetica,sans-Serif" font-size="10.00">matcher</text>
<text text-anchor="start" x="4" y="-185" font-family="Helvetica,sans-Serif" font-size="10.00">+</text>
<text text-anchor="start" x="17" y="-185" font-family="Helvetica,sans-Serif" font-size="10.00">updateWith()</text>
<text text-anchor="start" x="4" y="-170" font-family="Helvetica,sans-Serif" font-size="10.00">+</text>
<text text-anchor="start" x="17" y="-170" font-family="Helvetica,sans-Serif" font-size="10.00">handleUpdate()</text>
<text text-anchor="start" x="4" y="-155" font-family="Helvetica,sans-Serif" font-size="10.00">#</text>
<text text-anchor="start" x="17" y="-155" font-family="Helvetica,sans-Serif" font-size="10.00">MatchingMIDIInputElement()</text>
<polygon fill="#666666" stroke="#666666" points="0,-210 0,-210 162,-210 162,-210 0,-210"/>
<polygon fill="#666666" stroke="#666666" points="0,-195 0,-195 15,-195 15,-195 0,-195"/>
<polygon fill="#666666" stroke="#666666" points="15,-195 15,-195 162,-195 162,-195 15,-195"/>
<polygon fill="none" stroke="#666666" points="0,-148 0,-238 162,-238 162,-148 0,-148"/>
</a>
</g>
</g>
<!-- Node2&#45;&gt;Node1 -->
<g id="edge1_Node000001_Node000002" class="edge">
<title>Node2&#45;&gt;Node1</title>
<g id="a_edge1_Node000001_Node000002"><a xlink:title=" ">
<path fill="none" stroke="#63b8ff" d="M114.92,-139.37C120.67,-130.45 126.66,-121.15 132.45,-112.17"/>
<polygon fill="none" stroke="#63b8ff" points="111.96,-137.49 109.49,-147.8 117.85,-141.29 111.96,-137.49"/>
</a>
</g>
</g>
<!-- Node3 -->
<g id="Node000003" class="node">
<title>Node3</title>
<g id="a_Node000003"><a xlink:href="../../d9/db1/classMIDIInputElement.html" target="_top" xlink:title="A class for objects that listen for incoming MIDI events.">
<polygon fill="white" stroke="transparent" points="152.5,-458 9.5,-458 9.5,-274 152.5,-274 152.5,-458"/>
<text text-anchor="start" x="15" y="-446" font-family="Helvetica,sans-Serif" font-size="10.00">MIDIInputElement&lt; Type &gt;</text>
<text text-anchor="start" x="79.5" y="-431" font-family="Helvetica,sans-Serif" font-size="10.00"> </text>
<text text-anchor="start" x="18.5" y="-416" font-family="Helvetica,sans-Serif" font-size="10.00">+</text>
<text text-anchor="start" x="36" y="-416" font-family="Helvetica,sans-Serif" font-size="10.00">~MIDIInputElement()</text>
<text text-anchor="start" x="18.5" y="-401" font-family="Helvetica,sans-Serif" font-size="10.00">+</text>
<text text-anchor="start" x="36" y="-401" font-family="Helvetica,sans-Serif" font-size="10.00">begin()</text>
<text text-anchor="start" x="18.5" y="-386" font-family="Helvetica,sans-Serif" font-size="10.00">+</text>
<text text-anchor="start" x="36" y="-386" font-family="Helvetica,sans-Serif" font-size="10.00">reset()</text>
<text text-anchor="start" x="18.5" y="-371" font-family="Helvetica,sans-Serif" font-size="10.00">+</text>
<text text-anchor="start" x="36" y="-371" font-family="Helvetica,sans-Serif" font-size="10.00">update()</text>
<text text-anchor="start" x="18.5" y="-356" font-family="Helvetica,sans-Serif" font-size="10.00">+</text>
<text text-anchor="start" x="36" y="-356" font-family="Helvetica,sans-Serif" font-size="10.00">updateWith()</text>
<text text-anchor="start" x="18.5" y="-341" font-family="Helvetica,sans-Serif" font-size="10.00">+</text>
<text text-anchor="start" x="36" y="-341" font-family="Helvetica,sans-Serif" font-size="10.00">updateAllWith()</text>
<text text-anchor="start" x="18.5" y="-326" font-family="Helvetica,sans-Serif" font-size="10.00">+</text>
<text text-anchor="start" x="36" y="-326" font-family="Helvetica,sans-Serif" font-size="10.00">updateAll()</text>
<text text-anchor="start" x="18.5" y="-311" font-family="Helvetica,sans-Serif" font-size="10.00">+</text>
<text text-anchor="start" x="36" y="-311" font-family="Helvetica,sans-Serif" font-size="10.00">beginAll()</text>
<text text-anchor="start" x="18.5" y="-296" font-family="Helvetica,sans-Serif" font-size="10.00">+</text>
<text text-anchor="start" x="36" y="-296" font-family="Helvetica,sans-Serif" font-size="10.00">resetAll()</text>
<text text-anchor="start" x="18.5" y="-281" font-family="Helvetica,sans-Serif" font-size="10.00">#</text>
<text text-anchor="start" x="36" y="-281" font-family="Helvetica,sans-Serif" font-size="10.00">MIDIInputElement()</text>
<polygon fill="#666666" stroke="#666666" points="10,-441 10,-441 153,-441 153,-441 10,-441"/>
<polygon fill="#666666" stroke="#666666" points="10,-426 10,-426 153,-426 153,-426 10,-426"/>
<polygon fill="none" stroke="#666666" points="9.5,-274 9.5,-458 152.5,-458 152.5,-274 9.5,-274"/>
</a>
</g>
</g>
<!-- Node3&#45;&gt;Node2 -->
<g id="edge2_Node000002_Node000003" class="edge">
<title>Node3&#45;&gt;Node2</title>
<g id="a_edge2_Node000002_Node000003"><a xlink:title=" ">
<path fill="none" stroke="#63b8ff" d="M81,-263.84C81,-254.92 81,-246.24 81,-238.19"/>
<polygon fill="none" stroke="#63b8ff" points="77.5,-263.99 81,-273.99 84.5,-263.99 77.5,-263.99"/>
</a>
</g>
</g>
<!-- Node4 -->
<g id="Node000004" class="node">
<title>Node4</title>
<g id="a_Node000004"><a xlink:href="../../d8/d1a/classAH_1_1UpdatableCRTP.html" target="_top" xlink:title=" ">
<polygon fill="white" stroke="transparent" points="153,-779 9,-779 9,-494 153,-494 153,-779"/>
<text text-anchor="start" x="14" y="-766.5" font-family="Helvetica,sans-Serif" font-size="10.00">UpdatableCRTP&lt; MIDIInput</text>
<text text-anchor="start" x="32.5" y="-755.5" font-family="Helvetica,sans-Serif" font-size="10.00">Element&lt; Type &gt; &gt;</text>
<text text-anchor="start" x="21" y="-740.5" font-family="Helvetica,sans-Serif" font-size="10.00">#</text>
<text text-anchor="start" x="42" y="-740.5" font-family="Helvetica,sans-Serif" font-size="10.00">updatables</text>
<text text-anchor="start" x="21" y="-725.5" font-family="Helvetica,sans-Serif" font-size="10.00">+</text>
<text text-anchor="start" x="42" y="-725.5" font-family="Helvetica,sans-Serif" font-size="10.00">~UpdatableCRTP()</text>
<text text-anchor="start" x="21" y="-710.5" font-family="Helvetica,sans-Serif" font-size="10.00">#</text>
<text text-anchor="start" x="42" y="-710.5" font-family="Helvetica,sans-Serif" font-size="10.00">UpdatableCRTP()</text>
<text text-anchor="start" x="21" y="-695.5" font-family="Helvetica,sans-Serif" font-size="10.00">#</text>
<text text-anchor="start" x="42" y="-695.5" font-family="Helvetica,sans-Serif" font-size="10.00">UpdatableCRTP()</text>
<text text-anchor="start" x="21" y="-680.5" font-family="Helvetica,sans-Serif" font-size="10.00">#</text>
<text text-anchor="start" x="42" y="-680.5" font-family="Helvetica,sans-Serif" font-size="10.00">UpdatableCRTP()</text>
<text text-anchor="start" x="21" y="-665.5" font-family="Helvetica,sans-Serif" font-size="10.00">#</text>
<text text-anchor="start" x="42" y="-665.5" font-family="Helvetica,sans-Serif" font-size="10.00">operator=()</text>
<text text-anchor="start" x="21" y="-650.5" font-family="Helvetica,sans-Serif" font-size="10.00">#</text>
<text text-anchor="start" x="42" y="-650.5" font-family="Helvetica,sans-Serif" font-size="10.00">operator=()</text>
<text text-anchor="start" x="22.5" y="-635.5" font-family="Helvetica,sans-Serif" font-size="10.00">*</text>
<text text-anchor="start" x="42" y="-635.5" font-family="Helvetica,sans-Serif" font-size="10.00">enable()</text>
<text text-anchor="start" x="22.5" y="-620.5" font-family="Helvetica,sans-Serif" font-size="10.00">*</text>
<text text-anchor="start" x="42" y="-620.5" font-family="Helvetica,sans-Serif" font-size="10.00">disable()</text>
<text text-anchor="start" x="22.5" y="-605.5" font-family="Helvetica,sans-Serif" font-size="10.00">*</text>
<text text-anchor="start" x="42" y="-605.5" font-family="Helvetica,sans-Serif" font-size="10.00">isEnabled()</text>
<text text-anchor="start" x="22.5" y="-590.5" font-family="Helvetica,sans-Serif" font-size="10.00">*</text>
<text text-anchor="start" x="42" y="-590.5" font-family="Helvetica,sans-Serif" font-size="10.00">moveDown()</text>
<text text-anchor="start" x="22.5" y="-575.5" font-family="Helvetica,sans-Serif" font-size="10.00">*</text>
<text text-anchor="start" x="42" y="-575.5" font-family="Helvetica,sans-Serif" font-size="10.00">enable()</text>
<text text-anchor="start" x="22.5" y="-560.5" font-family="Helvetica,sans-Serif" font-size="10.00">*</text>
<text text-anchor="start" x="42" y="-560.5" font-family="Helvetica,sans-Serif" font-size="10.00">enable()</text>
<text text-anchor="start" x="22.5" y="-545.5" font-family="Helvetica,sans-Serif" font-size="10.00">*</text>
<text text-anchor="start" x="42" y="-545.5" font-family="Helvetica,sans-Serif" font-size="10.00">enable()</text>
<text text-anchor="start" x="22.5" y="-530.5" font-family="Helvetica,sans-Serif" font-size="10.00">*</text>
<text text-anchor="start" x="42" y="-530.5" font-family="Helvetica,sans-Serif" font-size="10.00">disable()</text>
<text text-anchor="start" x="22.5" y="-515.5" font-family="Helvetica,sans-Serif" font-size="10.00">*</text>
<text text-anchor="start" x="42" y="-515.5" font-family="Helvetica,sans-Serif" font-size="10.00">disable()</text>
<text text-anchor="start" x="22.5" y="-500.5" font-family="Helvetica,sans-Serif" font-size="10.00">*</text>
<text text-anchor="start" x="42" y="-500.5" font-family="Helvetica,sans-Serif" font-size="10.00">disable()</text>
<polygon fill="#666666" stroke="#666666" points="9,-750.5 9,-750.5 153,-750.5 153,-750.5 9,-750.5"/>
<polygon fill="#666666" stroke="#666666" points="9,-735.5 9,-735.5 40,-735.5 40,-735.5 9,-735.5"/>
<polygon fill="#666666" stroke="#666666" points="40,-735.5 40,-735.5 153,-735.5 153,-735.5 40,-735.5"/>
<polygon fill="none" stroke="#666666" points="9,-494 9,-779 153,-779 153,-494 9,-494"/>
</a>
</g>
</g>
<!-- Node4&#45;&gt;Node3 -->
<g id="edge3_Node000003_Node000004" class="edge">
<title>Node4&#45;&gt;Node3</title>
<g id="a_edge3_Node000003_Node000004"><a xlink:title=" ">
<path fill="none" stroke="#63b8ff" d="M81,-483.6C81,-474.95 81,-466.41 81,-458.11"/>
<polygon fill="none" stroke="#63b8ff" points="77.5,-483.78 81,-493.78 84.5,-483.78 77.5,-483.78"/>
</a>
</g>
</g>
<!-- Node5 -->
<g id="Node000005" class="node">
<title>Node5</title>
<g id="a_Node000005"><a xlink:href="../../d4/d23/classDoublyLinkable.html" target="_top" xlink:title="A class that can be inherited from to allow inserting into a DoublyLinkedList.">
<polygon fill="white" stroke="transparent" points="148,-954 14,-954 14,-815 148,-815 148,-954"/>
<text text-anchor="start" x="19" y="-941.5" font-family="Helvetica,sans-Serif" font-size="10.00">DoublyLinkable&lt; Node &gt;</text>
<text text-anchor="start" x="23.5" y="-926.5" font-family="Helvetica,sans-Serif" font-size="10.00">#</text>
<text text-anchor="start" x="42" y="-926.5" font-family="Helvetica,sans-Serif" font-size="10.00">next</text>
<text text-anchor="start" x="23.5" y="-911.5" font-family="Helvetica,sans-Serif" font-size="10.00">#</text>
<text text-anchor="start" x="42" y="-911.5" font-family="Helvetica,sans-Serif" font-size="10.00">previous</text>
<text text-anchor="start" x="23.5" y="-896.5" font-family="Helvetica,sans-Serif" font-size="10.00">#</text>
<text text-anchor="start" x="42" y="-896.5" font-family="Helvetica,sans-Serif" font-size="10.00">~DoublyLinkable()</text>
<text text-anchor="start" x="23.5" y="-881.5" font-family="Helvetica,sans-Serif" font-size="10.00">#</text>
<text text-anchor="start" x="42" y="-881.5" font-family="Helvetica,sans-Serif" font-size="10.00">DoublyLinkable()</text>
<text text-anchor="start" x="23.5" y="-866.5" font-family="Helvetica,sans-Serif" font-size="10.00">#</text>
<text text-anchor="start" x="42" y="-866.5" font-family="Helvetica,sans-Serif" font-size="10.00">DoublyLinkable()</text>
<text text-anchor="start" x="23.5" y="-851.5" font-family="Helvetica,sans-Serif" font-size="10.00">#</text>
<text text-anchor="start" x="42" y="-851.5" font-family="Helvetica,sans-Serif" font-size="10.00">operator=()</text>
<text text-anchor="start" x="23.5" y="-836.5" font-family="Helvetica,sans-Serif" font-size="10.00">#</text>
<text text-anchor="start" x="42" y="-836.5" font-family="Helvetica,sans-Serif" font-size="10.00">DoublyLinkable()</text>
<text text-anchor="start" x="23.5" y="-821.5" font-family="Helvetica,sans-Serif" font-size="10.00">#</text>
<text text-anchor="start" x="42" y="-821.5" font-family="Helvetica,sans-Serif" font-size="10.00">operator=()</text>
<polygon fill="#666666" stroke="#666666" points="14,-936.5 14,-936.5 148,-936.5 148,-936.5 14,-936.5"/>
<polygon fill="#666666" stroke="#666666" points="14,-906.5 14,-906.5 40,-906.5 40,-906.5 14,-906.5"/>
<polygon fill="#666666" stroke="#666666" points="40,-906.5 40,-906.5 148,-906.5 148,-906.5 40,-906.5"/>
<polygon fill="none" stroke="#666666" points="14,-815 14,-954 148,-954 148,-815 14,-815"/>
</a>
</g>
</g>
<!-- Node5&#45;&gt;Node4 -->
<g id="edge4_Node000004_Node000005" class="edge">
<title>Node5&#45;&gt;Node4</title>
<g id="a_edge4_Node000004_Node000005"><a xlink:title=" ">
<path fill="none" stroke="#63b8ff" d="M81,-804.93C81,-796.55 81,-787.86 81,-779.04"/>
<polygon fill="none" stroke="#63b8ff" points="77.5,-804.98 81,-814.98 84.5,-804.98 77.5,-804.98"/>
</a>
</g>
</g>
<!-- Node6 -->
<g id="Node000006" class="node">
<title>Node6</title>
<g id="a_Node000006"><a xlink:href="../../d2/dbf/classBankSettingChangeCallback.html" target="_top" xlink:title="Callback class for Bankable objects that need to be notified when the active setting of their Bank ch...">
<polygon fill="white" stroke="transparent" points="329.5,-217.5 180.5,-217.5 180.5,-168.5 329.5,-168.5 329.5,-217.5"/>
<text text-anchor="start" x="186" y="-205" font-family="Helvetica,sans-Serif" font-size="10.00">BankSettingChangeCallback</text>
<text text-anchor="start" x="253.5" y="-190" font-family="Helvetica,sans-Serif" font-size="10.00"> </text>
<text text-anchor="start" x="189" y="-175" font-family="Helvetica,sans-Serif" font-size="10.00">&#45;</text>
<text text-anchor="start" x="201" y="-175" font-family="Helvetica,sans-Serif" font-size="10.00">onBankSettingChange()</text>
<polygon fill="#666666" stroke="#666666" points="181,-200 181,-200 330,-200 330,-200 181,-200"/>
<polygon fill="#666666" stroke="#666666" points="181,-185 181,-185 330,-185 330,-185 181,-185"/>
<polygon fill="none" stroke="#666666" points="180.5,-168.5 180.5,-217.5 329.5,-217.5 329.5,-168.5 180.5,-168.5"/>
</a>
</g>
</g>
<!-- Node6&#45;&gt;Node1 -->
<g id="edge5_Node000001_Node000006" class="edge">
<title>Node6&#45;&gt;Node1</title>
<g id="a_edge5_Node000001_Node000006"><a xlink:title=" ">
<path fill="none" stroke="#63b8ff" d="M234.38,-160.01C225.17,-145.72 214.05,-128.46 203.57,-112.19"/>
<polygon fill="none" stroke="#63b8ff" points="231.49,-161.98 239.85,-168.48 237.37,-158.18 231.49,-161.98"/>
</a>
</g>
</g>
<!-- Node7 -->
<g id="Node000007" class="node">
<title>Node7</title>
<g id="a_Node000007"><a xlink:href="../../d4/d23/classDoublyLinkable.html" target="_top" xlink:title=" ">
<polygon fill="white" stroke="transparent" points="333,-441 177,-441 177,-291 333,-291 333,-441"/>
<text text-anchor="start" x="182" y="-429" font-family="Helvetica,sans-Serif" font-size="10.00">DoublyLinkable&lt; BankSetting</text>
<text text-anchor="start" x="209.5" y="-418" font-family="Helvetica,sans-Serif" font-size="10.00">ChangeCallback &gt;</text>
<text text-anchor="start" x="192" y="-403" font-family="Helvetica,sans-Serif" font-size="10.00">#</text>
<text text-anchor="start" x="216" y="-403" font-family="Helvetica,sans-Serif" font-size="10.00">next</text>
<text text-anchor="start" x="192" y="-388" font-family="Helvetica,sans-Serif" font-size="10.00">#</text>
<text text-anchor="start" x="216" y="-388" font-family="Helvetica,sans-Serif" font-size="10.00">previous</text>
<text text-anchor="start" x="192" y="-373" font-family="Helvetica,sans-Serif" font-size="10.00">#</text>
<text text-anchor="start" x="216" y="-373" font-family="Helvetica,sans-Serif" font-size="10.00">~DoublyLinkable()</text>
<text text-anchor="start" x="192" y="-358" font-family="Helvetica,sans-Serif" font-size="10.00">#</text>
<text text-anchor="start" x="216" y="-358" font-family="Helvetica,sans-Serif" font-size="10.00">DoublyLinkable()</text>
<text text-anchor="start" x="192" y="-343" font-family="Helvetica,sans-Serif" font-size="10.00">#</text>
<text text-anchor="start" x="216" y="-343" font-family="Helvetica,sans-Serif" font-size="10.00">DoublyLinkable()</text>
<text text-anchor="start" x="192" y="-328" font-family="Helvetica,sans-Serif" font-size="10.00">#</text>
<text text-anchor="start" x="216" y="-328" font-family="Helvetica,sans-Serif" font-size="10.00">DoublyLinkable()</text>
<text text-anchor="start" x="192" y="-313" font-family="Helvetica,sans-Serif" font-size="10.00">#</text>
<text text-anchor="start" x="216" y="-313" font-family="Helvetica,sans-Serif" font-size="10.00">operator=()</text>
<text text-anchor="start" x="192" y="-298" font-family="Helvetica,sans-Serif" font-size="10.00">#</text>
<text text-anchor="start" x="216" y="-298" font-family="Helvetica,sans-Serif" font-size="10.00">operator=()</text>
<polygon fill="#666666" stroke="#666666" points="177,-413 177,-413 333,-413 333,-413 177,-413"/>
<polygon fill="#666666" stroke="#666666" points="177,-383 177,-383 214,-383 214,-383 177,-383"/>
<polygon fill="#666666" stroke="#666666" points="214,-383 214,-383 333,-383 333,-383 214,-383"/>
<polygon fill="none" stroke="#666666" points="177,-291 177,-441 333,-441 333,-291 177,-291"/>
</a>
</g>
</g>
<!-- Node7&#45;&gt;Node6 -->
<g id="edge6_Node000006_Node000007" class="edge">
<title>Node7&#45;&gt;Node6</title>
<g id="a_edge6_Node000006_Node000007"><a xlink:title=" ">
<path fill="none" stroke="#63b8ff" d="M255,-280.75C255,-257.6 255,-234.34 255,-217.73"/>
<polygon fill="none" stroke="#63b8ff" points="251.5,-280.99 255,-290.99 258.5,-280.99 251.5,-280.99"/>
</a>
</g>
</g>
</g>
</svg>
