<?xml version="1.0" encoding="UTF-8" standalone="no"?>
<!DOCTYPE svg PUBLIC "-//W3C//DTD SVG 1.1//EN"
 "http://www.w3.org/Graphics/SVG/1.1/DTD/svg11.dtd">
<!-- Generated by graphviz version 2.38.0 (20140413.2041)
 -->
<!-- Title: IncrementButton.cpp Pages: 1 -->
<svg width="962pt" height="722pt"
 viewBox="0.00 0.00 962.00 722.00" xmlns="http://www.w3.org/2000/svg" xmlns:xlink="http://www.w3.org/1999/xlink">
<g id="graph0" class="graph" transform="scale(1 1) rotate(0) translate(4 718)">
<title>IncrementButton.cpp</title>
<polygon fill="white" stroke="none" points="-4,4 -4,-718 958,-718 958,4 -4,4"/>
<!-- Node1 -->
<g id="node1" class="node"><title>Node1</title>
<g id="a_node1"><a xlink:title=" ">
<polygon fill="#bfbfbf" stroke="black" points="371.5,-694.5 371.5,-713.5 478.5,-713.5 478.5,-694.5 371.5,-694.5"/>
<text text-anchor="middle" x="425" y="-701.5" font-family="Helvetica,sans-Serif" font-size="10.00">IncrementButton.cpp</text>
</a>
</g>
</g>
<!-- Node2 -->
<g id="node2" class="node"><title>Node2</title>
<g id="a_node2"><a xlink:href="../../d5/d04/IncrementButton_8hpp.html" target="_top" xlink:title=" ">
<polygon fill="white" stroke="black" points="371.5,-638.5 371.5,-657.5 478.5,-657.5 478.5,-638.5 371.5,-638.5"/>
<text text-anchor="middle" x="425" y="-645.5" font-family="Helvetica,sans-Serif" font-size="10.00">IncrementButton.hpp</text>
</a>
</g>
</g>
<!-- Node1&#45;&gt;Node2 -->
<g id="edge1" class="edge"><title>Node1&#45;&gt;Node2</title>
<path fill="none" stroke="midnightblue" d="M425,-694.083C425,-687.006 425,-676.861 425,-667.986"/>
<polygon fill="midnightblue" stroke="midnightblue" points="428.5,-667.751 425,-657.751 421.5,-667.751 428.5,-667.751"/>
</g>
<!-- Node3 -->
<g id="node3" class="node"><title>Node3</title>
<g id="a_node3"><a xlink:href="../../d4/db3/Button_8hpp.html" target="_top" xlink:title=" ">
<polygon fill="white" stroke="black" points="393,-582.5 393,-601.5 457,-601.5 457,-582.5 393,-582.5"/>
<text text-anchor="middle" x="425" y="-589.5" font-family="Helvetica,sans-Serif" font-size="10.00">Button.hpp</text>
</a>
</g>
</g>
<!-- Node2&#45;&gt;Node3 -->
<g id="edge2" class="edge"><title>Node2&#45;&gt;Node3</title>
<path fill="none" stroke="midnightblue" d="M425,-638.083C425,-631.006 425,-620.861 425,-611.986"/>
<polygon fill="midnightblue" stroke="midnightblue" points="428.5,-611.751 425,-601.751 421.5,-611.751 428.5,-611.751"/>
</g>
<!-- Node4 -->
<g id="node4" class="node"><title>Node4</title>
<g id="a_node4"><a xlink:href="../../dd/ddf/ExtendedInputOutput_8hpp.html" target="_top" xlink:title=" ">
<polygon fill="white" stroke="black" points="275,-515.5 275,-545.5 435,-545.5 435,-515.5 275,-515.5"/>
<text text-anchor="start" x="283" y="-533.5" font-family="Helvetica,sans-Serif" font-size="10.00">AH/Hardware/ExtendedInput</text>
<text text-anchor="middle" x="355" y="-522.5" font-family="Helvetica,sans-Serif" font-size="10.00">Output/ExtendedInputOutput.hpp</text>
</a>
</g>
</g>
<!-- Node3&#45;&gt;Node4 -->
<g id="edge3" class="edge"><title>Node3&#45;&gt;Node4</title>
<path fill="none" stroke="midnightblue" d="M414.971,-582.475C405.667,-574.567 391.453,-562.485 379.197,-552.067"/>
<polygon fill="midnightblue" stroke="midnightblue" points="381.384,-549.333 371.498,-545.523 376.85,-554.666 381.384,-549.333"/>
</g>
<!-- Node12 -->
<g id="node12" class="node"><title>Node12</title>
<g id="a_node12"><a xlink:href="../../d2/dd5/SettingsWrapper_8hpp.html" target="_top" xlink:title=" ">
<polygon fill="white" stroke="black" points="450,-168.5 450,-187.5 614,-187.5 614,-168.5 450,-168.5"/>
<text text-anchor="middle" x="532" y="-175.5" font-family="Helvetica,sans-Serif" font-size="10.00">AH/Settings/SettingsWrapper.hpp</text>
</a>
</g>
</g>
<!-- Node3&#45;&gt;Node12 -->
<g id="edge36" class="edge"><title>Node3&#45;&gt;Node12</title>
<path fill="none" stroke="midnightblue" d="M434.441,-582.3C453.548,-563.691 495,-517.81 495,-470 495,-470 495,-470 495,-289 495,-254.889 511.182,-217.787 522.142,-196.568"/>
<polygon fill="midnightblue" stroke="midnightblue" points="525.359,-197.976 527.01,-187.51 519.193,-194.662 525.359,-197.976"/>
</g>
<!-- Node5 -->
<g id="node5" class="node"><title>Node5</title>
<g id="a_node5"><a xlink:href="../../d4/d57/ExtendedIOElement_8hpp.html" target="_top" xlink:title=" ">
<polygon fill="white" stroke="black" points="293.5,-459.5 293.5,-478.5 416.5,-478.5 416.5,-459.5 293.5,-459.5"/>
<text text-anchor="middle" x="355" y="-466.5" font-family="Helvetica,sans-Serif" font-size="10.00">ExtendedIOElement.hpp</text>
</a>
</g>
</g>
<!-- Node4&#45;&gt;Node5 -->
<g id="edge4" class="edge"><title>Node4&#45;&gt;Node5</title>
<path fill="none" stroke="midnightblue" d="M355,-515.399C355,-507.466 355,-497.458 355,-488.858"/>
<polygon fill="midnightblue" stroke="midnightblue" points="358.5,-488.658 355,-478.658 351.5,-488.658 358.5,-488.658"/>
</g>
<!-- Node11 -->
<g id="node11" class="node"><title>Node11</title>
<g id="a_node11"><a xlink:title=" ">
<polygon fill="white" stroke="#bfbfbf" points="149,-0.5 149,-19.5 207,-19.5 207,-0.5 149,-0.5"/>
<text text-anchor="middle" x="178" y="-7.5" font-family="Helvetica,sans-Serif" font-size="10.00">Arduino.h</text>
</a>
</g>
</g>
<!-- Node4&#45;&gt;Node11 -->
<g id="edge35" class="edge"><title>Node4&#45;&gt;Node11</title>
<path fill="none" stroke="midnightblue" d="M274.888,-518.577C170.185,-502.01 0,-466.207 0,-408.5 0,-408.5 0,-408.5 0,-121 0,-56.2917 86.1767,-28.3763 138.606,-17.3806"/>
<polygon fill="midnightblue" stroke="midnightblue" points="139.477,-20.7763 148.607,-15.4011 138.118,-13.9095 139.477,-20.7763"/>
</g>
<!-- Node6 -->
<g id="node6" class="node"><title>Node6</title>
<g id="a_node6"><a xlink:href="../../d4/d35/Hardware-Types_8hpp.html" target="_top" xlink:title=" ">
<polygon fill="white" stroke="black" points="303.5,-392.5 303.5,-422.5 424.5,-422.5 424.5,-392.5 303.5,-392.5"/>
<text text-anchor="start" x="311.5" y="-410.5" font-family="Helvetica,sans-Serif" font-size="10.00">AH/Hardware/Hardware</text>
<text text-anchor="middle" x="364" y="-399.5" font-family="Helvetica,sans-Serif" font-size="10.00">&#45;Types.hpp</text>
</a>
</g>
</g>
<!-- Node5&#45;&gt;Node6 -->
<g id="edge5" class="edge"><title>Node5&#45;&gt;Node6</title>
<path fill="none" stroke="midnightblue" d="M356.289,-459.475C357.349,-452.471 358.904,-442.192 360.34,-432.696"/>
<polygon fill="midnightblue" stroke="midnightblue" points="363.844,-432.934 361.879,-422.523 356.923,-431.887 363.844,-432.934"/>
</g>
<!-- Node22 -->
<g id="node22" class="node"><title>Node22</title>
<g id="a_node22"><a xlink:href="../../de/dd1/LinkedList_8hpp.html" target="_top" xlink:title=" ">
<polygon fill="white" stroke="black" points="92.5,-280.5 92.5,-299.5 239.5,-299.5 239.5,-280.5 92.5,-280.5"/>
<text text-anchor="middle" x="166" y="-287.5" font-family="Helvetica,sans-Serif" font-size="10.00">AH/Containers/LinkedList.hpp</text>
</a>
</g>
</g>
<!-- Node5&#45;&gt;Node22 -->
<g id="edge28" class="edge"><title>Node5&#45;&gt;Node22</title>
<path fill="none" stroke="midnightblue" d="M341.91,-459.28C329.224,-450.617 309.657,-436.682 294,-423 249.728,-384.313 202.905,-332.968 180.117,-307.204"/>
<polygon fill="midnightblue" stroke="midnightblue" points="182.579,-304.703 173.349,-299.502 177.321,-309.324 182.579,-304.703"/>
</g>
<!-- Node7 -->
<g id="node7" class="node"><title>Node7</title>
<g id="a_node7"><a xlink:href="../../de/d76/Array_8hpp.html" target="_top" xlink:title=" ">
<polygon fill="white" stroke="black" points="268,-336.5 268,-355.5 394,-355.5 394,-336.5 268,-336.5"/>
<text text-anchor="middle" x="331" y="-343.5" font-family="Helvetica,sans-Serif" font-size="10.00">AH/Containers/Array.hpp</text>
</a>
</g>
</g>
<!-- Node6&#45;&gt;Node7 -->
<g id="edge6" class="edge"><title>Node6&#45;&gt;Node7</title>
<path fill="none" stroke="midnightblue" d="M356.179,-392.399C351.532,-384.021 345.601,-373.327 340.663,-364.423"/>
<polygon fill="midnightblue" stroke="midnightblue" points="343.713,-362.705 335.802,-355.658 337.591,-366.1 343.713,-362.705"/>
</g>
<!-- Node13 -->
<g id="node13" class="node"><title>Node13</title>
<g id="a_node13"><a xlink:href="../../dc/dc7/NamespaceSettings_8hpp.html" target="_top" xlink:title=" ">
<polygon fill="white" stroke="black" points="715,-0.5 715,-19.5 839,-19.5 839,-0.5 715,-0.5"/>
<text text-anchor="middle" x="777" y="-7.5" font-family="Helvetica,sans-Serif" font-size="10.00">NamespaceSettings.hpp</text>
</a>
</g>
</g>
<!-- Node6&#45;&gt;Node13 -->
<g id="edge26" class="edge"><title>Node6&#45;&gt;Node13</title>
<path fill="none" stroke="midnightblue" d="M424.643,-407.312C575.201,-407.703 954,-398.049 954,-291 954,-291 954,-291 954,-121 954,-63.8979 886.724,-35.3944 835.125,-21.9306"/>
<polygon fill="midnightblue" stroke="midnightblue" points="835.914,-18.5204 825.366,-19.5112 834.23,-25.3147 835.914,-18.5204"/>
</g>
<!-- Node19 -->
<g id="node19" class="node"><title>Node19</title>
<g id="a_node19"><a xlink:title=" ">
<polygon fill="white" stroke="#bfbfbf" points="367.5,-56.5 367.5,-75.5 416.5,-75.5 416.5,-56.5 367.5,-56.5"/>
<text text-anchor="middle" x="392" y="-63.5" font-family="Helvetica,sans-Serif" font-size="10.00">stdint.h</text>
</a>
</g>
</g>
<!-- Node6&#45;&gt;Node19 -->
<g id="edge27" class="edge"><title>Node6&#45;&gt;Node19</title>
<path fill="none" stroke="midnightblue" d="M377.168,-392.464C385.584,-382.838 396.164,-369.425 403,-356 416.658,-329.179 422,-321.098 422,-291 422,-291 422,-291 422,-177 422,-143.64 408.999,-106.532 400.114,-85.0673"/>
<polygon fill="midnightblue" stroke="midnightblue" points="403.216,-83.4213 396.046,-75.6212 396.787,-86.1901 403.216,-83.4213"/>
</g>
<!-- Node8 -->
<g id="node8" class="node"><title>Node8</title>
<g id="a_node8"><a xlink:href="../../d1/d93/Error_8hpp.html" target="_top" xlink:title=" ">
<polygon fill="white" stroke="black" points="258,-280.5 258,-299.5 356,-299.5 356,-280.5 258,-280.5"/>
<text text-anchor="middle" x="307" y="-287.5" font-family="Helvetica,sans-Serif" font-size="10.00">AH/Error/Error.hpp</text>
</a>
</g>
</g>
<!-- Node7&#45;&gt;Node8 -->
<g id="edge7" class="edge"><title>Node7&#45;&gt;Node8</title>
<path fill="none" stroke="midnightblue" d="M327.037,-336.083C323.787,-328.77 319.081,-318.181 315.046,-309.103"/>
<polygon fill="midnightblue" stroke="midnightblue" points="318.149,-307.468 310.889,-299.751 311.752,-310.311 318.149,-307.468"/>
</g>
<!-- Node18 -->
<g id="node18" class="node"><title>Node18</title>
<g id="a_node18"><a xlink:title=" ">
<polygon fill="white" stroke="#bfbfbf" points="297,-56.5 297,-75.5 349,-75.5 349,-56.5 297,-56.5"/>
<text text-anchor="middle" x="323" y="-63.5" font-family="Helvetica,sans-Serif" font-size="10.00">stddef.h</text>
</a>
</g>
</g>
<!-- Node7&#45;&gt;Node18 -->
<g id="edge25" class="edge"><title>Node7&#45;&gt;Node18</title>
<path fill="none" stroke="midnightblue" d="M339.079,-336.343C346.73,-327.725 358.053,-313.823 365,-300 378.516,-273.108 384,-265.098 384,-235 384,-235 384,-235 384,-177 384,-146.902 379.894,-138.154 365,-112 358.748,-101.022 349.314,-90.5864 340.97,-82.5338"/>
<polygon fill="midnightblue" stroke="midnightblue" points="343.17,-79.8023 333.443,-75.6034 338.429,-84.9518 343.17,-79.8023"/>
</g>
<!-- Node9 -->
<g id="node9" class="node"><title>Node9</title>
<g id="a_node9"><a xlink:href="../../df/dee/Debug_8hpp.html" target="_top" xlink:title=" ">
<polygon fill="white" stroke="black" points="242.5,-224.5 242.5,-243.5 355.5,-243.5 355.5,-224.5 242.5,-224.5"/>
<text text-anchor="middle" x="299" y="-231.5" font-family="Helvetica,sans-Serif" font-size="10.00">AH/Debug/Debug.hpp</text>
</a>
</g>
</g>
<!-- Node8&#45;&gt;Node9 -->
<g id="edge8" class="edge"><title>Node8&#45;&gt;Node9</title>
<path fill="none" stroke="midnightblue" d="M305.679,-280.083C304.619,-272.927 303.094,-262.635 301.769,-253.691"/>
<polygon fill="midnightblue" stroke="midnightblue" points="305.224,-253.13 300.296,-243.751 298.3,-254.156 305.224,-253.13"/>
</g>
<!-- Node10 -->
<g id="node10" class="node"><title>Node10</title>
<g id="a_node10"><a xlink:href="../../dd/d80/PrintStream_8hpp.html" target="_top" xlink:title=" ">
<polygon fill="white" stroke="black" points="197.5,-112.5 197.5,-131.5 356.5,-131.5 356.5,-112.5 197.5,-112.5"/>
<text text-anchor="middle" x="277" y="-119.5" font-family="Helvetica,sans-Serif" font-size="10.00">AH/PrintStream/PrintStream.hpp</text>
</a>
</g>
</g>
<!-- Node9&#45;&gt;Node10 -->
<g id="edge9" class="edge"><title>Node9&#45;&gt;Node10</title>
<path fill="none" stroke="midnightblue" d="M290.786,-224.182C283.456,-215.663 273.245,-202.019 269,-188 264.367,-172.697 267.238,-154.593 270.767,-141.383"/>
<polygon fill="midnightblue" stroke="midnightblue" points="274.179,-142.191 273.735,-131.606 267.481,-140.157 274.179,-142.191"/>
</g>
<!-- Node9&#45;&gt;Node11 -->
<g id="edge23" class="edge"><title>Node9&#45;&gt;Node11</title>
<path fill="none" stroke="midnightblue" d="M279.425,-224.368C238.098,-204.914 142.733,-153.232 106,-76 95.2087,-53.3106 121.45,-34.9905 145.225,-23.6534"/>
<polygon fill="midnightblue" stroke="midnightblue" points="146.773,-26.7949 154.47,-19.5138 143.913,-20.4061 146.773,-26.7949"/>
</g>
<!-- Node9&#45;&gt;Node12 -->
<g id="edge11" class="edge"><title>Node9&#45;&gt;Node12</title>
<path fill="none" stroke="midnightblue" d="M330.831,-224.444C369.33,-215.043 434.401,-199.929 480.146,-189.739"/>
<polygon fill="midnightblue" stroke="midnightblue" points="481.168,-193.098 490.173,-187.516 479.653,-186.264 481.168,-193.098"/>
</g>
<!-- Node21 -->
<g id="node21" class="node"><title>Node21</title>
<g id="a_node21"><a xlink:href="../../d7/d52/DebugVal_8hpp.html" target="_top" xlink:title=" ">
<polygon fill="white" stroke="black" points="278,-168.5 278,-187.5 356,-187.5 356,-168.5 278,-168.5"/>
<text text-anchor="middle" x="317" y="-175.5" font-family="Helvetica,sans-Serif" font-size="10.00">DebugVal.hpp</text>
</a>
</g>
</g>
<!-- Node9&#45;&gt;Node21 -->
<g id="edge24" class="edge"><title>Node9&#45;&gt;Node21</title>
<path fill="none" stroke="midnightblue" d="M301.972,-224.083C304.384,-216.849 307.864,-206.409 310.868,-197.397"/>
<polygon fill="midnightblue" stroke="midnightblue" points="314.241,-198.345 314.083,-187.751 307.6,-196.131 314.241,-198.345"/>
</g>
<!-- Node10&#45;&gt;Node11 -->
<g id="edge10" class="edge"><title>Node10&#45;&gt;Node11</title>
<path fill="none" stroke="midnightblue" d="M274.972,-112.111C271.543,-98.6885 263.514,-73.0126 249,-56 237.578,-42.6123 221.163,-31.8524 206.994,-24.2151"/>
<polygon fill="midnightblue" stroke="midnightblue" points="208.577,-21.0939 198.081,-19.6509 205.387,-27.3244 208.577,-21.0939"/>
</g>
<!-- Node12&#45;&gt;Node9 -->
<g id="edge22" class="edge"><title>Node12&#45;&gt;Node9</title>
<path fill="none" stroke="midnightblue" d="M500.333,-187.516C461.91,-196.901 396.848,-212.013 351.049,-222.217"/>
<polygon fill="midnightblue" stroke="midnightblue" points="350.014,-218.862 341.008,-224.444 351.529,-225.696 350.014,-218.862"/>
</g>
<!-- Node12&#45;&gt;Node13 -->
<g id="edge12" class="edge"><title>Node12&#45;&gt;Node13</title>
<path fill="none" stroke="midnightblue" d="M560.766,-168.354C627.723,-147.947 789.441,-96.9366 804,-76 814.515,-60.8794 803.29,-41.0328 792.279,-27.2661"/>
<polygon fill="midnightblue" stroke="midnightblue" points="794.828,-24.8634 785.647,-19.5768 789.527,-29.4352 794.828,-24.8634"/>
</g>
<!-- Node14 -->
<g id="node14" class="node"><title>Node14</title>
<g id="a_node14"><a xlink:href="../../db/d02/Settings_8hpp.html" target="_top" xlink:title="All user settings and debugging options can be changed here.">
<polygon fill="white" stroke="black" points="484.5,-112.5 484.5,-131.5 555.5,-131.5 555.5,-112.5 484.5,-112.5"/>
<text text-anchor="middle" x="520" y="-119.5" font-family="Helvetica,sans-Serif" font-size="10.00">Settings.hpp</text>
</a>
</g>
</g>
<!-- Node12&#45;&gt;Node14 -->
<g id="edge13" class="edge"><title>Node12&#45;&gt;Node14</title>
<path fill="none" stroke="midnightblue" d="M530.018,-168.083C528.428,-160.927 526.141,-150.635 524.154,-141.691"/>
<polygon fill="midnightblue" stroke="midnightblue" points="527.531,-140.754 521.945,-131.751 520.697,-142.272 527.531,-140.754"/>
</g>
<!-- Node20 -->
<g id="node20" class="node"><title>Node20</title>
<g id="a_node20"><a xlink:href="../../d9/d98/TeensyUSBTypes_8hpp.html" target="_top" xlink:title=" ">
<polygon fill="white" stroke="black" points="758,-112.5 758,-131.5 926,-131.5 926,-112.5 758,-112.5"/>
<text text-anchor="middle" x="842" y="-119.5" font-family="Helvetica,sans-Serif" font-size="10.00">AH/Teensy/TeensyUSBTypes.hpp</text>
</a>
</g>
</g>
<!-- Node12&#45;&gt;Node20 -->
<g id="edge21" class="edge"><title>Node12&#45;&gt;Node20</title>
<path fill="none" stroke="midnightblue" d="M581.12,-168.444C635.879,-158.905 724.41,-143.483 782.911,-133.293"/>
<polygon fill="midnightblue" stroke="midnightblue" points="783.858,-136.681 793.109,-131.516 782.657,-129.785 783.858,-136.681"/>
</g>
<!-- Node15 -->
<g id="node15" class="node"><title>Node15</title>
<g id="a_node15"><a xlink:href="../../dc/d50/Frequency_8hpp.html" target="_top" xlink:title=" ">
<polygon fill="white" stroke="black" points="667,-56.5 667,-75.5 795,-75.5 795,-56.5 667,-56.5"/>
<text text-anchor="middle" x="731" y="-63.5" font-family="Helvetica,sans-Serif" font-size="10.00">AH/Types/Frequency.hpp</text>
</a>
</g>
</g>
<!-- Node14&#45;&gt;Node15 -->
<g id="edge14" class="edge"><title>Node14&#45;&gt;Node15</title>
<path fill="none" stroke="midnightblue" d="M553.434,-112.444C589.856,-103.122 648.23,-88.1828 688.029,-77.9972"/>
<polygon fill="midnightblue" stroke="midnightblue" points="688.903,-81.3866 697.723,-75.5164 687.167,-74.6051 688.903,-81.3866"/>
</g>
<!-- Node16 -->
<g id="node16" class="node"><title>Node16</title>
<g id="a_node16"><a xlink:href="../../d7/d7c/ADCConfig_8hpp.html" target="_top" xlink:title="This file contains the platform&#45;specific ADC resolutions. By default, the library automatically selec...">
<polygon fill="white" stroke="black" points="435,-56.5 435,-75.5 583,-75.5 583,-56.5 435,-56.5"/>
<text text-anchor="middle" x="509" y="-63.5" font-family="Helvetica,sans-Serif" font-size="10.00">AH/Hardware/ADCConfig.hpp</text>
</a>
</g>
</g>
<!-- Node14&#45;&gt;Node16 -->
<g id="edge16" class="edge"><title>Node14&#45;&gt;Node16</title>
<path fill="none" stroke="midnightblue" d="M518.184,-112.083C516.726,-104.927 514.629,-94.6353 512.807,-85.6911"/>
<polygon fill="midnightblue" stroke="midnightblue" points="516.208,-84.8512 510.783,-75.7511 509.349,-86.2485 516.208,-84.8512"/>
</g>
<!-- Node17 -->
<g id="node17" class="node"><title>Node17</title>
<g id="a_node17"><a xlink:title=" ">
<polygon fill="white" stroke="#bfbfbf" points="601,-56.5 601,-75.5 649,-75.5 649,-56.5 601,-56.5"/>
<text text-anchor="middle" x="625" y="-63.5" font-family="Helvetica,sans-Serif" font-size="10.00">limits.h</text>
</a>
</g>
</g>
<!-- Node14&#45;&gt;Node17 -->
<g id="edge18" class="edge"><title>Node14&#45;&gt;Node17</title>
<path fill="none" stroke="midnightblue" d="M536.87,-112.324C553.709,-103.664 579.807,-90.2424 599.238,-80.249"/>
<polygon fill="midnightblue" stroke="midnightblue" points="600.88,-83.3405 608.172,-75.6545 597.678,-77.1155 600.88,-83.3405"/>
</g>
<!-- Node14&#45;&gt;Node18 -->
<g id="edge19" class="edge"><title>Node14&#45;&gt;Node18</title>
<path fill="none" stroke="midnightblue" d="M488.785,-112.444C453.48,-102.766 396.086,-87.0336 358.941,-76.8518"/>
<polygon fill="midnightblue" stroke="midnightblue" points="359.606,-73.405 349.036,-74.1368 357.755,-80.156 359.606,-73.405"/>
</g>
<!-- Node14&#45;&gt;Node19 -->
<g id="edge20" class="edge"><title>Node14&#45;&gt;Node19</title>
<path fill="none" stroke="midnightblue" d="M499.718,-112.444C478.653,-103.557 445.483,-89.5632 421.514,-79.4514"/>
<polygon fill="midnightblue" stroke="midnightblue" points="422.761,-76.1787 412.187,-75.5164 420.04,-82.6283 422.761,-76.1787"/>
</g>
<!-- Node15&#45;&gt;Node13 -->
<g id="edge15" class="edge"><title>Node15&#45;&gt;Node13</title>
<path fill="none" stroke="midnightblue" d="M738.596,-56.083C745.227,-48.2982 755.021,-36.8015 763.058,-27.3665"/>
<polygon fill="midnightblue" stroke="midnightblue" points="765.725,-29.6332 769.545,-19.7511 760.396,-25.0939 765.725,-29.6332"/>
</g>
<!-- Node16&#45;&gt;Node11 -->
<g id="edge17" class="edge"><title>Node16&#45;&gt;Node11</title>
<path fill="none" stroke="midnightblue" d="M456.552,-56.4435C390.001,-45.5863 276.732,-27.1074 217.206,-17.3962"/>
<polygon fill="midnightblue" stroke="midnightblue" points="217.52,-13.9012 207.087,-15.7454 216.393,-20.8099 217.52,-13.9012"/>
</g>
<!-- Node22&#45;&gt;Node9 -->
<g id="edge29" class="edge"><title>Node22&#45;&gt;Node9</title>
<path fill="none" stroke="midnightblue" d="M187.074,-280.444C209.06,-271.517 243.734,-257.439 268.664,-247.317"/>
<polygon fill="midnightblue" stroke="midnightblue" points="270.076,-250.521 278.024,-243.516 267.442,-244.035 270.076,-250.521"/>
</g>
<!-- Node23 -->
<g id="node23" class="node"><title>Node23</title>
<g id="a_node23"><a xlink:href="../../d7/d79/MinMaxFix_8hpp.html" target="_top" xlink:title=" ">
<polygon fill="white" stroke="black" points="115.5,-56.5 115.5,-75.5 240.5,-75.5 240.5,-56.5 115.5,-56.5"/>
<text text-anchor="middle" x="178" y="-63.5" font-family="Helvetica,sans-Serif" font-size="10.00">AH/Math/MinMaxFix.hpp</text>
</a>
</g>
</g>
<!-- Node22&#45;&gt;Node23 -->
<g id="edge30" class="edge"><title>Node22&#45;&gt;Node23</title>
<path fill="none" stroke="midnightblue" d="M166.47,-280.297C168.236,-247.633 174.494,-131.866 176.975,-85.9573"/>
<polygon fill="midnightblue" stroke="midnightblue" points="180.475,-86.0581 177.52,-75.8837 173.485,-85.6802 180.475,-86.0581"/>
</g>
<!-- Node24 -->
<g id="node24" class="node"><title>Node24</title>
<g id="a_node24"><a xlink:title=" ">
<polygon fill="white" stroke="#bfbfbf" points="28,-224.5 28,-243.5 76,-243.5 76,-224.5 28,-224.5"/>
<text text-anchor="middle" x="52" y="-231.5" font-family="Helvetica,sans-Serif" font-size="10.00">stdlib.h</text>
</a>
</g>
</g>
<!-- Node22&#45;&gt;Node24 -->
<g id="edge33" class="edge"><title>Node22&#45;&gt;Node24</title>
<path fill="none" stroke="midnightblue" d="M147.936,-280.444C129.425,-271.675 100.419,-257.935 79.1445,-247.858"/>
<polygon fill="midnightblue" stroke="midnightblue" points="80.5148,-244.634 69.9791,-243.516 77.5182,-250.96 80.5148,-244.634"/>
</g>
<!-- Node25 -->
<g id="node25" class="node"><title>Node25</title>
<g id="a_node25"><a xlink:title=" ">
<polygon fill="white" stroke="#bfbfbf" points="94.5,-224.5 94.5,-243.5 141.5,-243.5 141.5,-224.5 94.5,-224.5"/>
<text text-anchor="middle" x="118" y="-231.5" font-family="Helvetica,sans-Serif" font-size="10.00">iterator</text>
</a>
</g>
</g>
<!-- Node22&#45;&gt;Node25 -->
<g id="edge34" class="edge"><title>Node22&#45;&gt;Node25</title>
<path fill="none" stroke="midnightblue" d="M158.074,-280.083C151.154,-272.298 140.935,-260.801 132.548,-251.367"/>
<polygon fill="midnightblue" stroke="midnightblue" points="135.038,-248.9 125.779,-243.751 129.806,-253.55 135.038,-248.9"/>
</g>
<!-- Node23&#45;&gt;Node11 -->
<g id="edge31" class="edge"><title>Node23&#45;&gt;Node11</title>
<path fill="none" stroke="midnightblue" d="M178,-56.083C178,-49.0059 178,-38.8611 178,-29.9865"/>
<polygon fill="midnightblue" stroke="midnightblue" points="181.5,-29.751 178,-19.7511 174.5,-29.7511 181.5,-29.751"/>
</g>
<!-- Node23&#45;&gt;Node13 -->
<g id="edge32" class="edge"><title>Node23&#45;&gt;Node13</title>
<path fill="none" stroke="midnightblue" d="M240.69,-59.3485C352.631,-49.257 586.245,-28.1966 704.741,-17.5142"/>
<polygon fill="midnightblue" stroke="midnightblue" points="705.157,-20.991 714.802,-16.6071 704.528,-14.0192 705.157,-20.991"/>
</g>
</g>
</svg>
