<?xml version="1.0" encoding="UTF-8" standalone="no"?>
<!DOCTYPE svg PUBLIC "-//W3C//DTD SVG 1.1//EN"
 "http://www.w3.org/Graphics/SVG/1.1/DTD/svg11.dtd">
<!-- Generated by graphviz version 2.38.0 (20140413.2041)
 -->
<!-- Title: MIDIButtonLatched&lt; Sender &gt; Pages: 1 -->
<svg width="477pt" height="1169pt"
 viewBox="0.00 0.00 477.00 1169.00" xmlns="http://www.w3.org/2000/svg" xmlns:xlink="http://www.w3.org/1999/xlink">
<g id="graph0" class="graph" transform="scale(1 1) rotate(0) translate(4 1165)">
<title>MIDIButtonLatched&lt; Sender &gt;</title>
<polygon fill="white" stroke="none" points="-4,4 -4,-1165 473,-1165 473,4 -4,4"/>
<!-- Node1 -->
<g id="node1" class="node"><title>Node1</title>
<g id="a_node1"><a xlink:title="A class for momentary buttons and switches that send MIDI events.">
<polygon fill="#bfbfbf" stroke="black" points="139,-0.5 139,-134.5 255,-134.5 255,-0.5 139,-0.5"/>
<text text-anchor="start" x="147" y="-122.5" font-family="Helvetica,sans-Serif" font-size="10.00">MIDIButtonLatched&lt;</text>
<text text-anchor="middle" x="197" y="-111.5" font-family="Helvetica,sans-Serif" font-size="10.00"> Sender &gt;</text>
<polyline fill="none" stroke="black" points="139,-104.5 255,-104.5 "/>
<text text-anchor="start" x="147" y="-92.5" font-family="Helvetica,sans-Serif" font-size="10.00">&#45; state</text>
<polyline fill="none" stroke="black" points="139,-85.5 255,-85.5 "/>
<text text-anchor="start" x="147" y="-73.5" font-family="Helvetica,sans-Serif" font-size="10.00">+ begin()</text>
<text text-anchor="start" x="147" y="-62.5" font-family="Helvetica,sans-Serif" font-size="10.00">+ update()</text>
<text text-anchor="start" x="147" y="-51.5" font-family="Helvetica,sans-Serif" font-size="10.00">+ toggleState()</text>
<text text-anchor="start" x="147" y="-40.5" font-family="Helvetica,sans-Serif" font-size="10.00">+ getState()</text>
<text text-anchor="start" x="147" y="-29.5" font-family="Helvetica,sans-Serif" font-size="10.00">+ setState()</text>
<text text-anchor="start" x="147" y="-18.5" font-family="Helvetica,sans-Serif" font-size="10.00">+ getButtonState()</text>
<text text-anchor="start" x="147" y="-7.5" font-family="Helvetica,sans-Serif" font-size="10.00"># MIDIButtonLatched()</text>
</a>
</g>
</g>
<!-- Node2 -->
<g id="node2" class="node"><title>Node2</title>
<g id="a_node2"><a xlink:href="../../d1/d55/classAH_1_1Updatable.html" target="_top" xlink:title=" ">
<polygon fill="white" stroke="black" points="0,-210 0,-421 104,-421 104,-210 0,-210"/>
<text text-anchor="middle" x="52" y="-409" font-family="Helvetica,sans-Serif" font-size="10.00">MIDIOutputElement</text>
<polyline fill="none" stroke="black" points="0,-402 104,-402 "/>
<text text-anchor="middle" x="52" y="-390" font-family="Helvetica,sans-Serif" font-size="10.00"> </text>
<polyline fill="none" stroke="black" points="0,-383 104,-383 "/>
<text text-anchor="start" x="8" y="-371" font-family="Helvetica,sans-Serif" font-size="10.00">+ ~Updatable()</text>
<text text-anchor="start" x="8" y="-360" font-family="Helvetica,sans-Serif" font-size="10.00">+ update()</text>
<text text-anchor="start" x="8" y="-349" font-family="Helvetica,sans-Serif" font-size="10.00">+ begin()</text>
<text text-anchor="start" x="8" y="-338" font-family="Helvetica,sans-Serif" font-size="10.00">+ enable()</text>
<text text-anchor="start" x="8" y="-327" font-family="Helvetica,sans-Serif" font-size="10.00">+ disable()</text>
<text text-anchor="start" x="8" y="-316" font-family="Helvetica,sans-Serif" font-size="10.00">+ isEnabled()</text>
<text text-anchor="start" x="8" y="-305" font-family="Helvetica,sans-Serif" font-size="10.00">+ enable()</text>
<text text-anchor="start" x="8" y="-294" font-family="Helvetica,sans-Serif" font-size="10.00">+ enable()</text>
<text text-anchor="start" x="8" y="-283" font-family="Helvetica,sans-Serif" font-size="10.00">+ enable()</text>
<text text-anchor="start" x="8" y="-272" font-family="Helvetica,sans-Serif" font-size="10.00">+ disable()</text>
<text text-anchor="start" x="8" y="-261" font-family="Helvetica,sans-Serif" font-size="10.00">+ disable()</text>
<text text-anchor="start" x="8" y="-250" font-family="Helvetica,sans-Serif" font-size="10.00">+ disable()</text>
<text text-anchor="start" x="8" y="-239" font-family="Helvetica,sans-Serif" font-size="10.00">+ beginAll()</text>
<text text-anchor="start" x="8" y="-228" font-family="Helvetica,sans-Serif" font-size="10.00">+ updateAll()</text>
<text text-anchor="start" x="8" y="-217" font-family="Helvetica,sans-Serif" font-size="10.00"># Updatable()</text>
</a>
</g>
</g>
<!-- Node2&#45;&gt;Node1 -->
<g id="edge1" class="edge"><title>Node2&#45;&gt;Node1</title>
<path fill="none" stroke="midnightblue" d="M102.671,-200.383C106.039,-194.097 109.491,-187.931 113,-182 122.363,-166.177 133.449,-149.883 144.446,-134.753"/>
<polygon fill="none" stroke="midnightblue" points="99.3479,-199.183 97.7999,-209.664 105.546,-202.436 99.3479,-199.183"/>
</g>
<!-- Node3 -->
<g id="node3" class="node"><title>Node3</title>
<g id="a_node3"><a xlink:href="../../d4/d23/classDoublyLinkable.html" target="_top" xlink:title=" ">
<polygon fill="white" stroke="black" points="2.5,-1081.5 2.5,-1160.5 139.5,-1160.5 139.5,-1081.5 2.5,-1081.5"/>
<text text-anchor="start" x="10.5" y="-1148.5" font-family="Helvetica,sans-Serif" font-size="10.00">DoublyLinkable&lt; Updatable</text>
<text text-anchor="middle" x="71" y="-1137.5" font-family="Helvetica,sans-Serif" font-size="10.00">&lt; NormalUpdatable &gt; &gt;</text>
<polyline fill="none" stroke="black" points="2.5,-1130.5 139.5,-1130.5 "/>
<text text-anchor="start" x="10.5" y="-1118.5" font-family="Helvetica,sans-Serif" font-size="10.00"># next</text>
<text text-anchor="start" x="10.5" y="-1107.5" font-family="Helvetica,sans-Serif" font-size="10.00"># previous</text>
<polyline fill="none" stroke="black" points="2.5,-1100.5 139.5,-1100.5 "/>
<text text-anchor="start" x="10.5" y="-1088.5" font-family="Helvetica,sans-Serif" font-size="10.00"># ~DoublyLinkable()</text>
</a>
</g>
</g>
<!-- Node3&#45;&gt;Node2 -->
<g id="edge2" class="edge"><title>Node3&#45;&gt;Node2</title>
<path fill="none" stroke="midnightblue" d="M59.2045,-1071.22C57.464,-1062.22 55.9415,-1052.87 55,-1044 31.5563,-823.264 38.888,-562.727 45.7883,-421.075"/>
<polygon fill="none" stroke="midnightblue" points="55.8101,-1072.09 61.2429,-1081.19 62.6681,-1070.69 55.8101,-1072.09"/>
</g>
<!-- Node5 -->
<g id="node5" class="node"><title>Node5</title>
<g id="a_node5"><a xlink:href="../../d1/d55/classAH_1_1Updatable.html" target="_top" xlink:title=" ">
<polygon fill="white" stroke="black" points="64.5,-832.5 64.5,-1043.5 239.5,-1043.5 239.5,-832.5 64.5,-832.5"/>
<text text-anchor="middle" x="152" y="-1031.5" font-family="Helvetica,sans-Serif" font-size="10.00">AH::Updatable&lt; NormalUpdatable &gt;</text>
<polyline fill="none" stroke="black" points="64.5,-1024.5 239.5,-1024.5 "/>
<text text-anchor="middle" x="152" y="-1012.5" font-family="Helvetica,sans-Serif" font-size="10.00"> </text>
<polyline fill="none" stroke="black" points="64.5,-1005.5 239.5,-1005.5 "/>
<text text-anchor="start" x="72.5" y="-993.5" font-family="Helvetica,sans-Serif" font-size="10.00">+ ~Updatable()</text>
<text text-anchor="start" x="72.5" y="-982.5" font-family="Helvetica,sans-Serif" font-size="10.00">+ update()</text>
<text text-anchor="start" x="72.5" y="-971.5" font-family="Helvetica,sans-Serif" font-size="10.00">+ begin()</text>
<text text-anchor="start" x="72.5" y="-960.5" font-family="Helvetica,sans-Serif" font-size="10.00">+ enable()</text>
<text text-anchor="start" x="72.5" y="-949.5" font-family="Helvetica,sans-Serif" font-size="10.00">+ disable()</text>
<text text-anchor="start" x="72.5" y="-938.5" font-family="Helvetica,sans-Serif" font-size="10.00">+ isEnabled()</text>
<text text-anchor="start" x="72.5" y="-927.5" font-family="Helvetica,sans-Serif" font-size="10.00">+ enable()</text>
<text text-anchor="start" x="72.5" y="-916.5" font-family="Helvetica,sans-Serif" font-size="10.00">+ enable()</text>
<text text-anchor="start" x="72.5" y="-905.5" font-family="Helvetica,sans-Serif" font-size="10.00">+ enable()</text>
<text text-anchor="start" x="72.5" y="-894.5" font-family="Helvetica,sans-Serif" font-size="10.00">+ disable()</text>
<text text-anchor="start" x="72.5" y="-883.5" font-family="Helvetica,sans-Serif" font-size="10.00">+ disable()</text>
<text text-anchor="start" x="72.5" y="-872.5" font-family="Helvetica,sans-Serif" font-size="10.00">+ disable()</text>
<text text-anchor="start" x="72.5" y="-861.5" font-family="Helvetica,sans-Serif" font-size="10.00">+ beginAll()</text>
<text text-anchor="start" x="72.5" y="-850.5" font-family="Helvetica,sans-Serif" font-size="10.00">+ updateAll()</text>
<text text-anchor="start" x="72.5" y="-839.5" font-family="Helvetica,sans-Serif" font-size="10.00"># Updatable()</text>
</a>
</g>
</g>
<!-- Node3&#45;&gt;Node5 -->
<g id="edge5" class="edge"><title>Node3&#45;&gt;Node5</title>
<path fill="none" stroke="midnightblue" d="M92.5578,-1071.83C96.5342,-1062.94 100.825,-1053.35 105.217,-1043.54"/>
<polygon fill="none" stroke="midnightblue" points="89.2667,-1070.61 88.3765,-1081.17 95.6561,-1073.47 89.2667,-1070.61"/>
</g>
<!-- Node4 -->
<g id="node4" class="node"><title>Node4</title>
<g id="a_node4"><a xlink:href="../../dd/d16/classDoublyLinkedList.html" target="_top" xlink:title=" ">
<polygon fill="white" stroke="black" points="64,-496.5 64,-773.5 234,-773.5 234,-496.5 64,-496.5"/>
<text text-anchor="start" x="72" y="-761.5" font-family="Helvetica,sans-Serif" font-size="10.00">DoublyLinkedList&lt; AH</text>
<text text-anchor="middle" x="149" y="-750.5" font-family="Helvetica,sans-Serif" font-size="10.00">::Updatable&lt; NormalUpdatable &gt; &gt;</text>
<polyline fill="none" stroke="black" points="64,-743.5 234,-743.5 "/>
<text text-anchor="middle" x="149" y="-731.5" font-family="Helvetica,sans-Serif" font-size="10.00"> </text>
<polyline fill="none" stroke="black" points="64,-724.5 234,-724.5 "/>
<text text-anchor="start" x="72" y="-712.5" font-family="Helvetica,sans-Serif" font-size="10.00">+ append()</text>
<text text-anchor="start" x="72" y="-701.5" font-family="Helvetica,sans-Serif" font-size="10.00">+ append()</text>
<text text-anchor="start" x="72" y="-690.5" font-family="Helvetica,sans-Serif" font-size="10.00">+ insertBefore()</text>
<text text-anchor="start" x="72" y="-679.5" font-family="Helvetica,sans-Serif" font-size="10.00">+ insertBefore()</text>
<text text-anchor="start" x="72" y="-668.5" font-family="Helvetica,sans-Serif" font-size="10.00">+ insertSorted()</text>
<text text-anchor="start" x="72" y="-657.5" font-family="Helvetica,sans-Serif" font-size="10.00">+ insertSorted()</text>
<text text-anchor="start" x="72" y="-646.5" font-family="Helvetica,sans-Serif" font-size="10.00">+ remove()</text>
<text text-anchor="start" x="72" y="-635.5" font-family="Helvetica,sans-Serif" font-size="10.00">+ remove()</text>
<text text-anchor="start" x="72" y="-624.5" font-family="Helvetica,sans-Serif" font-size="10.00">+ moveDown()</text>
<text text-anchor="start" x="72" y="-613.5" font-family="Helvetica,sans-Serif" font-size="10.00">+ couldContain()</text>
<text text-anchor="start" x="72" y="-602.5" font-family="Helvetica,sans-Serif" font-size="10.00">+ begin()</text>
<text text-anchor="start" x="72" y="-591.5" font-family="Helvetica,sans-Serif" font-size="10.00">+ begin()</text>
<text text-anchor="start" x="72" y="-580.5" font-family="Helvetica,sans-Serif" font-size="10.00">+ end()</text>
<text text-anchor="start" x="72" y="-569.5" font-family="Helvetica,sans-Serif" font-size="10.00">+ end()</text>
<text text-anchor="start" x="72" y="-558.5" font-family="Helvetica,sans-Serif" font-size="10.00">+ rbegin()</text>
<text text-anchor="start" x="72" y="-547.5" font-family="Helvetica,sans-Serif" font-size="10.00">+ rbegin()</text>
<text text-anchor="start" x="72" y="-536.5" font-family="Helvetica,sans-Serif" font-size="10.00">+ rend()</text>
<text text-anchor="start" x="72" y="-525.5" font-family="Helvetica,sans-Serif" font-size="10.00">+ rend()</text>
<text text-anchor="start" x="72" y="-514.5" font-family="Helvetica,sans-Serif" font-size="10.00">+ getFirst()</text>
<text text-anchor="start" x="72" y="-503.5" font-family="Helvetica,sans-Serif" font-size="10.00">+ getLast()</text>
</a>
</g>
</g>
<!-- Node4&#45;&gt;Node2 -->
<g id="edge3" class="edge"><title>Node4&#45;&gt;Node2</title>
<path fill="none" stroke="#404040" d="M106.878,-496.125C100.437,-475.043 93.843,-453.46 87.5617,-432.9"/>
<polygon fill="none" stroke="#404040" points="87.5118,-432.737 81.9332,-428.167 84.0056,-421.26 89.5841,-425.83 87.5118,-432.737"/>
<text text-anchor="middle" x="128" y="-470" font-family="Helvetica,sans-Serif" font-size="10.00"> &#45;updatables</text>
</g>
<!-- Node4&#45;&gt;Node5 -->
<g id="edge6" class="edge"><title>Node4&#45;&gt;Node5</title>
<path fill="none" stroke="#404040" d="M150.811,-773.806C150.878,-779.955 150.941,-786.041 151,-792 151.091,-801.204 151.176,-810.736 151.255,-820.316"/>
<polygon fill="none" stroke="#404040" points="151.256,-820.455 155.304,-826.422 151.353,-832.454 147.305,-826.487 151.256,-820.455"/>
<text text-anchor="middle" x="179" y="-800.5" font-family="Helvetica,sans-Serif" font-size="10.00"> &#45;updatables</text>
</g>
<!-- Node5&#45;&gt;Node4 -->
<g id="edge4" class="edge"><title>Node5&#45;&gt;Node4</title>
<path fill="none" stroke="#404040" d="M131.057,-832.171C130.25,-826.039 129.551,-819.949 129,-814 128.152,-804.856 127.766,-795.453 127.747,-785.972"/>
<polygon fill="none" stroke="#404040" points="127.747,-785.934 123.83,-779.88 127.911,-773.935 131.829,-779.989 127.747,-785.934"/>
<text text-anchor="middle" x="140" y="-806" font-family="Helvetica,sans-Serif" font-size="10.00"> &#45;last</text>
<text text-anchor="middle" x="140" y="-795" font-family="Helvetica,sans-Serif" font-size="10.00">&#45;first</text>
</g>
<!-- Node6 -->
<g id="node6" class="node"><title>Node6</title>
<g id="a_node6"><a xlink:title=" ">
<polygon fill="white" stroke="#bfbfbf" points="122.5,-287 122.5,-344 169.5,-344 169.5,-287 122.5,-287"/>
<text text-anchor="middle" x="146" y="-332" font-family="Helvetica,sans-Serif" font-size="10.00">Sender</text>
<polyline fill="none" stroke="#bfbfbf" points="122.5,-325 169.5,-325 "/>
<text text-anchor="middle" x="146" y="-313" font-family="Helvetica,sans-Serif" font-size="10.00"> </text>
<polyline fill="none" stroke="#bfbfbf" points="122.5,-306 169.5,-306 "/>
<text text-anchor="middle" x="146" y="-294" font-family="Helvetica,sans-Serif" font-size="10.00"> </text>
</a>
</g>
</g>
<!-- Node6&#45;&gt;Node1 -->
<g id="edge7" class="edge"><title>Node6&#45;&gt;Node1</title>
<path fill="none" stroke="#404040" d="M151.751,-286.759C158.752,-252.992 170.869,-194.546 180.803,-146.629"/>
<polygon fill="none" stroke="#404040" points="180.841,-146.445 178.142,-139.758 183.277,-134.695 185.975,-141.382 180.841,-146.445"/>
<text text-anchor="middle" x="199.5" y="-156" font-family="Helvetica,sans-Serif" font-size="10.00"> +sender</text>
</g>
<!-- Node7 -->
<g id="node7" class="node"><title>Node7</title>
<g id="a_node7"><a xlink:href="../../de/d0d/classAH_1_1Button.html" target="_top" xlink:title="A class for reading and debouncing buttons and switches.">
<polygon fill="white" stroke="black" points="187.5,-210 187.5,-421 310.5,-421 310.5,-210 187.5,-210"/>
<text text-anchor="middle" x="249" y="-409" font-family="Helvetica,sans-Serif" font-size="10.00">AH::Button</text>
<polyline fill="none" stroke="black" points="187.5,-402 310.5,-402 "/>
<text text-anchor="start" x="195.5" y="-390" font-family="Helvetica,sans-Serif" font-size="10.00">&#45; pin</text>
<text text-anchor="start" x="195.5" y="-379" font-family="Helvetica,sans-Serif" font-size="10.00">&#45; prevInput</text>
<text text-anchor="start" x="195.5" y="-368" font-family="Helvetica,sans-Serif" font-size="10.00">&#45; debouncedState</text>
<text text-anchor="start" x="195.5" y="-357" font-family="Helvetica,sans-Serif" font-size="10.00">&#45; prevBounceTime</text>
<text text-anchor="start" x="195.5" y="-346" font-family="Helvetica,sans-Serif" font-size="10.00">&#45; invertState</text>
<text text-anchor="start" x="195.5" y="-335" font-family="Helvetica,sans-Serif" font-size="10.00">&#45; debounceTime</text>
<polyline fill="none" stroke="black" points="187.5,-328 310.5,-328 "/>
<text text-anchor="start" x="195.5" y="-316" font-family="Helvetica,sans-Serif" font-size="10.00">+ Button()</text>
<text text-anchor="start" x="195.5" y="-305" font-family="Helvetica,sans-Serif" font-size="10.00">+ Button()</text>
<text text-anchor="start" x="195.5" y="-294" font-family="Helvetica,sans-Serif" font-size="10.00">+ begin()</text>
<text text-anchor="start" x="195.5" y="-283" font-family="Helvetica,sans-Serif" font-size="10.00">+ invert()</text>
<text text-anchor="start" x="195.5" y="-272" font-family="Helvetica,sans-Serif" font-size="10.00">+ update()</text>
<text text-anchor="start" x="195.5" y="-261" font-family="Helvetica,sans-Serif" font-size="10.00">+ getState()</text>
<text text-anchor="start" x="195.5" y="-250" font-family="Helvetica,sans-Serif" font-size="10.00">+ previousBounceTime()</text>
<text text-anchor="start" x="195.5" y="-239" font-family="Helvetica,sans-Serif" font-size="10.00">+ stableTime()</text>
<text text-anchor="start" x="195.5" y="-228" font-family="Helvetica,sans-Serif" font-size="10.00">+ stableTime()</text>
<text text-anchor="start" x="195.5" y="-217" font-family="Helvetica,sans-Serif" font-size="10.00">+ getName()</text>
</a>
</g>
</g>
<!-- Node7&#45;&gt;Node1 -->
<g id="edge8" class="edge"><title>Node7&#45;&gt;Node1</title>
<path fill="none" stroke="#404040" d="M234.326,-209.834C231.046,-190.83 227.256,-171.254 223,-153 222.499,-150.851 221.972,-148.677 221.424,-146.488"/>
<polygon fill="none" stroke="#404040" points="221.372,-146.29 215.976,-141.506 218.317,-134.686 223.713,-139.469 221.372,-146.29"/>
<text text-anchor="middle" x="242" y="-156" font-family="Helvetica,sans-Serif" font-size="10.00"> &#45;button</text>
</g>
<!-- Node8 -->
<g id="node8" class="node"><title>Node8</title>
<g id="a_node8"><a xlink:href="../../d3/d10/classMIDICNChannelAddress.html" target="_top" xlink:title="A type&#45;safe utility class for saving a MIDI address consisting of a 7&#45;bit address,...">
<polygon fill="white" stroke="black" points="329,-182.5 329,-448.5 469,-448.5 469,-182.5 329,-182.5"/>
<text text-anchor="middle" x="399" y="-436.5" font-family="Helvetica,sans-Serif" font-size="10.00">MIDICNChannelAddress</text>
<polyline fill="none" stroke="black" points="329,-429.5 469,-429.5 "/>
<text text-anchor="start" x="337" y="-417.5" font-family="Helvetica,sans-Serif" font-size="10.00">&#45; addresses</text>
<polyline fill="none" stroke="black" points="329,-410.5 469,-410.5 "/>
<text text-anchor="start" x="337" y="-398.5" font-family="Helvetica,sans-Serif" font-size="10.00">+ MIDICNChannelAddress()</text>
<text text-anchor="start" x="337" y="-387.5" font-family="Helvetica,sans-Serif" font-size="10.00">+ MIDICNChannelAddress()</text>
<text text-anchor="start" x="337" y="-376.5" font-family="Helvetica,sans-Serif" font-size="10.00">+ MIDICNChannelAddress()</text>
<text text-anchor="start" x="337" y="-365.5" font-family="Helvetica,sans-Serif" font-size="10.00">+ MIDICNChannelAddress()</text>
<text text-anchor="start" x="337" y="-354.5" font-family="Helvetica,sans-Serif" font-size="10.00">+ MIDICNChannelAddress()</text>
<text text-anchor="start" x="337" y="-343.5" font-family="Helvetica,sans-Serif" font-size="10.00">+ operator+=()</text>
<text text-anchor="start" x="337" y="-332.5" font-family="Helvetica,sans-Serif" font-size="10.00">+ operator&#45;=()</text>
<text text-anchor="start" x="337" y="-321.5" font-family="Helvetica,sans-Serif" font-size="10.00">+ operator+()</text>
<text text-anchor="start" x="337" y="-310.5" font-family="Helvetica,sans-Serif" font-size="10.00">+ operator&#45;()</text>
<text text-anchor="start" x="337" y="-299.5" font-family="Helvetica,sans-Serif" font-size="10.00">+ operator==()</text>
<text text-anchor="start" x="337" y="-288.5" font-family="Helvetica,sans-Serif" font-size="10.00">+ operator!=()</text>
<text text-anchor="start" x="337" y="-277.5" font-family="Helvetica,sans-Serif" font-size="10.00">+ getAddress()</text>
<text text-anchor="start" x="337" y="-266.5" font-family="Helvetica,sans-Serif" font-size="10.00">+ getChannel()</text>
<text text-anchor="start" x="337" y="-255.5" font-family="Helvetica,sans-Serif" font-size="10.00">+ getRawChannel()</text>
<text text-anchor="start" x="337" y="-244.5" font-family="Helvetica,sans-Serif" font-size="10.00">+ getCableNumber()</text>
<text text-anchor="start" x="337" y="-233.5" font-family="Helvetica,sans-Serif" font-size="10.00">+ isValid()</text>
<text text-anchor="start" x="337" y="-222.5" font-family="Helvetica,sans-Serif" font-size="10.00">+ operator bool()</text>
<text text-anchor="start" x="337" y="-211.5" font-family="Helvetica,sans-Serif" font-size="10.00">+ matchSingle()</text>
<text text-anchor="start" x="337" y="-200.5" font-family="Helvetica,sans-Serif" font-size="10.00">+ matchAddressInRange()</text>
<text text-anchor="start" x="337" y="-189.5" font-family="Helvetica,sans-Serif" font-size="10.00">+ invalid()</text>
</a>
</g>
</g>
<!-- Node8&#45;&gt;Node1 -->
<g id="edge9" class="edge"><title>Node8&#45;&gt;Node1</title>
<path fill="none" stroke="#404040" d="M328.782,-194.601C325.569,-190.283 322.304,-186.067 319,-182 302.774,-162.03 283.096,-142.235 264.323,-124.905"/>
<polygon fill="none" stroke="#404040" points="264.076,-124.681 256.946,-123.602 255.199,-116.606 262.329,-117.684 264.076,-124.681"/>
<text text-anchor="middle" x="322.5" y="-156" font-family="Helvetica,sans-Serif" font-size="10.00"> &#45;address</text>
</g>
</g>
</svg>
