<?xml version="1.0" encoding="UTF-8" standalone="no"?>
<!DOCTYPE svg PUBLIC "-//W3C//DTD SVG 1.1//EN"
 "http://www.w3.org/Graphics/SVG/1.1/DTD/svg11.dtd">
<!-- Generated by graphviz version 2.38.0 (20140413.2041)
 -->
<!-- Title: ManyButtonsSelector.hpp Pages: 1 -->
<svg width="159pt" height="140pt"
 viewBox="0.00 0.00 158.50 140.00" xmlns="http://www.w3.org/2000/svg" xmlns:xlink="http://www.w3.org/1999/xlink">
<g id="graph0" class="graph" transform="scale(1 1) rotate(0) translate(4 136)">
<title>ManyButtonsSelector.hpp</title>
<polygon fill="white" stroke="none" points="-4,4 -4,-136 154.5,-136 154.5,4 -4,4"/>
<!-- Node1 -->
<g id="node1" class="node"><title>Node1</title>
<g id="a_node1"><a xlink:title=" ">
<polygon fill="#bfbfbf" stroke="black" points="0,-112.5 0,-131.5 129,-131.5 129,-112.5 0,-112.5"/>
<text text-anchor="middle" x="64.5" y="-119.5" font-family="Helvetica,sans-Serif" font-size="10.00">ManyButtonsSelector.hpp</text>
</a>
</g>
</g>
<!-- Node2 -->
<g id="node2" class="node"><title>Node2</title>
<g id="a_node2"><a xlink:href="../../db/dbf/Control__Surface_8h.html" target="_top" xlink:title="The main header file that includes all Control&#45;Surface header files.">
<polygon fill="white" stroke="black" points="17,-0.5 17,-19.5 112,-19.5 112,-0.5 17,-0.5"/>
<text text-anchor="middle" x="64.5" y="-7.5" font-family="Helvetica,sans-Serif" font-size="10.00">Control_Surface.h</text>
</a>
</g>
</g>
<!-- Node1&#45;&gt;Node2 -->
<g id="edge1" class="edge"><title>Node1&#45;&gt;Node2</title>
<path fill="none" stroke="midnightblue" d="M55.0674,-103.247C51.2916,-95.1733 47.3931,-85.3507 45.5,-76 41.3473,-55.4888 52.1552,-32.0761 59.1268,-19.7132"/>
<polygon fill="midnightblue" stroke="midnightblue" points="52.0251,-104.989 59.6241,-112.372 58.2876,-101.862 52.0251,-104.989"/>
</g>
<!-- Node3 -->
<g id="node3" class="node"><title>Node3</title>
<g id="a_node3"><a xlink:href="../../d3/dce/SelectorLEDs_8hpp.html" target="_top" xlink:title=" ">
<polygon fill="white" stroke="black" points="54.5,-56.5 54.5,-75.5 150.5,-75.5 150.5,-56.5 54.5,-56.5"/>
<text text-anchor="middle" x="102.5" y="-63.5" font-family="Helvetica,sans-Serif" font-size="10.00">SelectorLEDs.hpp</text>
</a>
</g>
</g>
<!-- Node1&#45;&gt;Node3 -->
<g id="edge2" class="edge"><title>Node1&#45;&gt;Node3</title>
<path fill="none" stroke="midnightblue" d="M76.5647,-103.855C83.1447,-94.5048 91.011,-83.3265 96.3418,-75.7511"/>
<polygon fill="midnightblue" stroke="midnightblue" points="73.6676,-101.891 70.7749,-112.083 79.3922,-105.919 73.6676,-101.891"/>
</g>
<!-- Node3&#45;&gt;Node2 -->
<g id="edge3" class="edge"><title>Node3&#45;&gt;Node2</title>
<path fill="none" stroke="midnightblue" d="M90.4353,-47.8554C83.8553,-38.5048 75.989,-27.3265 70.6582,-19.7511"/>
<polygon fill="midnightblue" stroke="midnightblue" points="87.6078,-49.9192 96.2251,-56.083 93.3324,-45.8907 87.6078,-49.9192"/>
</g>
</g>
</svg>
