<?xml version="1.0" encoding="UTF-8" standalone="no"?>
<!DOCTYPE svg PUBLIC "-//W3C//DTD SVG 1.1//EN"
 "http://www.w3.org/Graphics/SVG/1.1/DTD/svg11.dtd">
<!-- Generated by graphviz version 2.40.1 (20161225.0304)
 -->
<!-- Title: MCP23017Encoders.hpp Pages: 1 -->
<svg width="1124pt" height="722pt"
 viewBox="0.00 0.00 1124.00 722.00" xmlns="http://www.w3.org/2000/svg" xmlns:xlink="http://www.w3.org/1999/xlink">
<g id="graph0" class="graph" transform="scale(1 1) rotate(0) translate(4 718)">
<title>MCP23017Encoders.hpp</title>
<polygon fill="#ffffff" stroke="transparent" points="-4,4 -4,-718 1120,-718 1120,4 -4,4"/>
<!-- Node1 -->
<g id="node1" class="node">
<title>Node1</title>
<g id="a_node1"><a xlink:title=" ">
<polygon fill="#bfbfbf" stroke="#000000" points="13.5,-694.5 13.5,-713.5 138.5,-713.5 138.5,-694.5 13.5,-694.5"/>
<text text-anchor="middle" x="76" y="-701.5" font-family="Helvetica,sans-Serif" font-size="10.00" fill="#000000">MCP23017Encoders.hpp</text>
</a>
</g>
</g>
<!-- Node2 -->
<g id="node2" class="node">
<title>Node2</title>
<g id="a_node2"><a xlink:href="../../dc/dc7/NamespaceSettings_8hpp.html" target="_top" xlink:title=" ">
<polygon fill="#ffffff" stroke="#000000" points="63,-56.5 63,-75.5 243,-75.5 243,-56.5 63,-56.5"/>
<text text-anchor="middle" x="153" y="-63.5" font-family="Helvetica,sans-Serif" font-size="10.00" fill="#000000">AH/Settings/NamespaceSettings.hpp</text>
</a>
</g>
</g>
<!-- Node1&#45;&gt;Node2 -->
<g id="edge1" class="edge">
<title>Node1&#45;&gt;Node2</title>
<path fill="none" stroke="#191970" d="M65.1111,-694.1981C44.0964,-674.144 0,-626.0417 0,-575.5 0,-575.5 0,-575.5 0,-178 0,-124.79 60.9968,-94.1229 105.9631,-78.7445"/>
<polygon fill="#191970" stroke="#191970" points="107.1545,-82.0374 115.572,-75.6035 104.9794,-75.3839 107.1545,-82.0374"/>
</g>
<!-- Node3 -->
<g id="node3" class="node">
<title>Node3</title>
<g id="a_node3"><a xlink:href="../../d1/d65/Warnings_8hpp.html" target="_top" xlink:title=" ">
<polygon fill="#ffffff" stroke="#000000" points="756.5,-.5 756.5,-19.5 889.5,-19.5 889.5,-.5 756.5,-.5"/>
<text text-anchor="middle" x="823" y="-7.5" font-family="Helvetica,sans-Serif" font-size="10.00" fill="#000000">AH/Settings/Warnings.hpp</text>
</a>
</g>
</g>
<!-- Node1&#45;&gt;Node3 -->
<g id="edge2" class="edge">
<title>Node1&#45;&gt;Node3</title>
<path fill="none" stroke="#191970" d="M138.7146,-702.884C363.5637,-698.0644 1116,-674.5374 1116,-575.5 1116,-575.5 1116,-575.5 1116,-122 1116,-81.7538 1089.1912,-75.5277 1054,-56 1027.859,-41.4942 956.2186,-28.5521 899.5833,-20.1197"/>
<polygon fill="#191970" stroke="#191970" points="899.9591,-16.6375 889.5572,-18.6502 898.9439,-23.5635 899.9591,-16.6375"/>
</g>
<!-- Node4 -->
<g id="node4" class="node">
<title>Node4</title>
<g id="a_node4"><a xlink:href="../../d6/ddf/Arduino-Wrapper_8h.html" target="_top" xlink:title=" ">
<polygon fill="#ffffff" stroke="#000000" points="294.5,-168.5 294.5,-187.5 409.5,-187.5 409.5,-168.5 294.5,-168.5"/>
<text text-anchor="middle" x="352" y="-175.5" font-family="Helvetica,sans-Serif" font-size="10.00" fill="#000000">AH/Arduino&#45;Wrapper.h</text>
</a>
</g>
</g>
<!-- Node1&#45;&gt;Node4 -->
<g id="edge3" class="edge">
<title>Node1&#45;&gt;Node4</title>
<path fill="none" stroke="#191970" d="M71.0322,-694.2942C60.7318,-673.2416 38,-621.5628 38,-575.5 38,-575.5 38,-575.5 38,-290 38,-238.1185 191.9962,-203.9746 284.2985,-188.1692"/>
<polygon fill="#191970" stroke="#191970" points="285.1266,-191.5792 294.4076,-186.469 283.9655,-184.6761 285.1266,-191.5792"/>
</g>
<!-- Node8 -->
<g id="node8" class="node">
<title>Node8</title>
<g id="a_node8"><a xlink:title=" ">
<polygon fill="#ffffff" stroke="#bfbfbf" points="142.5,-112.5 142.5,-131.5 243.5,-131.5 243.5,-112.5 142.5,-112.5"/>
<text text-anchor="middle" x="193" y="-119.5" font-family="Helvetica,sans-Serif" font-size="10.00" fill="#000000">AH/STL/type_traits</text>
</a>
</g>
</g>
<!-- Node1&#45;&gt;Node8 -->
<g id="edge48" class="edge">
<title>Node1&#45;&gt;Node8</title>
<path fill="none" stroke="#191970" d="M77.9331,-694.3839C91.3384,-627.7014 170.4717,-234.064 189.0824,-141.4877"/>
<polygon fill="#191970" stroke="#191970" points="192.5464,-142.0144 191.086,-131.5207 185.6837,-140.6348 192.5464,-142.0144"/>
</g>
<!-- Node9 -->
<g id="node9" class="node">
<title>Node9</title>
<g id="a_node9"><a xlink:href="../../dd/ddf/ExtendedInputOutput_8hpp.html" target="_top" xlink:title=" ">
<polygon fill="#ffffff" stroke="#000000" points="104,-627.5 104,-657.5 264,-657.5 264,-627.5 104,-627.5"/>
<text text-anchor="start" x="112" y="-645.5" font-family="Helvetica,sans-Serif" font-size="10.00" fill="#000000">AH/Hardware/ExtendedInput</text>
<text text-anchor="middle" x="184" y="-634.5" font-family="Helvetica,sans-Serif" font-size="10.00" fill="#000000">Output/ExtendedInputOutput.hpp</text>
</a>
</g>
</g>
<!-- Node1&#45;&gt;Node9 -->
<g id="edge12" class="edge">
<title>Node1&#45;&gt;Node9</title>
<path fill="none" stroke="#191970" d="M92.875,-694.3906C107.7622,-685.9132 129.9457,-673.2809 148.6975,-662.6028"/>
<polygon fill="#191970" stroke="#191970" points="150.6223,-665.5345 157.5802,-657.5446 147.1584,-659.4516 150.6223,-665.5345"/>
</g>
<!-- Node5 -->
<g id="node5" class="node">
<title>Node5</title>
<g id="a_node5"><a xlink:href="../../d7/d79/MinMaxFix_8hpp.html" target="_top" xlink:title=" ">
<polygon fill="#ffffff" stroke="#000000" points="346.5,-112.5 346.5,-131.5 471.5,-131.5 471.5,-112.5 346.5,-112.5"/>
<text text-anchor="middle" x="409" y="-119.5" font-family="Helvetica,sans-Serif" font-size="10.00" fill="#000000">AH/Math/MinMaxFix.hpp</text>
</a>
</g>
</g>
<!-- Node4&#45;&gt;Node5 -->
<g id="edge4" class="edge">
<title>Node4&#45;&gt;Node5</title>
<path fill="none" stroke="#191970" d="M361.9286,-168.2455C370.1838,-160.1352 382.1209,-148.4075 391.9082,-138.7919"/>
<polygon fill="#191970" stroke="#191970" points="394.5046,-141.1476 399.1851,-131.6427 389.5989,-136.1542 394.5046,-141.1476"/>
</g>
<!-- Node7 -->
<g id="node7" class="node">
<title>Node7</title>
<g id="a_node7"><a xlink:title=" ">
<polygon fill="#ffffff" stroke="#bfbfbf" points="334,-.5 334,-19.5 392,-19.5 392,-.5 334,-.5"/>
<text text-anchor="middle" x="363" y="-7.5" font-family="Helvetica,sans-Serif" font-size="10.00" fill="#000000">Arduino.h</text>
</a>
</g>
</g>
<!-- Node4&#45;&gt;Node7 -->
<g id="edge11" class="edge">
<title>Node4&#45;&gt;Node7</title>
<path fill="none" stroke="#191970" d="M346.9368,-168.2924C336.7078,-147.3477 315.6462,-96.5332 329,-56 332.5056,-45.3594 339.5241,-35.164 346.2787,-27.0877"/>
<polygon fill="#191970" stroke="#191970" points="349.0014,-29.2937 353.0638,-19.5087 343.786,-24.6247 349.0014,-29.2937"/>
</g>
<!-- Node4&#45;&gt;Node8 -->
<g id="edge10" class="edge">
<title>Node4&#45;&gt;Node8</title>
<path fill="none" stroke="#191970" d="M324.6669,-168.3733C298.4566,-159.1419 258.7016,-145.1402 229.7332,-134.9375"/>
<polygon fill="#191970" stroke="#191970" points="230.5712,-131.5219 219.9764,-131.5011 228.2458,-138.1244 230.5712,-131.5219"/>
</g>
<!-- Node5&#45;&gt;Node2 -->
<g id="edge9" class="edge">
<title>Node5&#45;&gt;Node2</title>
<path fill="none" stroke="#191970" d="M365.2829,-112.4369C321.3784,-102.8328 253.6587,-88.0191 206.555,-77.7152"/>
<polygon fill="#191970" stroke="#191970" points="207.0537,-74.2416 196.5368,-75.5237 205.5578,-81.0799 207.0537,-74.2416"/>
</g>
<!-- Node5&#45;&gt;Node3 -->
<g id="edge5" class="edge">
<title>Node5&#45;&gt;Node3</title>
<path fill="none" stroke="#191970" d="M428.4217,-112.4639C464.7562,-94.6489 539.9124,-57.9283 546,-56 611.844,-35.1438 689.6513,-23.2833 746.0117,-16.8495"/>
<polygon fill="#191970" stroke="#191970" points="746.7252,-20.2919 756.2782,-15.7104 745.9531,-13.3346 746.7252,-20.2919"/>
</g>
<!-- Node6 -->
<g id="node6" class="node">
<title>Node6</title>
<g id="a_node6"><a xlink:href="../../d6/d3b/FixArduinoMacros_8hpp.html" target="_top" xlink:title=" ">
<polygon fill="#ffffff" stroke="#000000" points="338,-56.5 338,-75.5 494,-75.5 494,-56.5 338,-56.5"/>
<text text-anchor="middle" x="416" y="-63.5" font-family="Helvetica,sans-Serif" font-size="10.00" fill="#000000">AH/Math/FixArduinoMacros.hpp</text>
</a>
</g>
</g>
<!-- Node5&#45;&gt;Node6 -->
<g id="edge6" class="edge">
<title>Node5&#45;&gt;Node6</title>
<path fill="none" stroke="#191970" d="M410.2193,-112.2455C411.1327,-104.9382 412.4132,-94.6944 413.5369,-85.7046"/>
<polygon fill="#191970" stroke="#191970" points="417.0272,-85.9996 414.7947,-75.6427 410.0813,-85.1313 417.0272,-85.9996"/>
</g>
<!-- Node6&#45;&gt;Node3 -->
<g id="edge7" class="edge">
<title>Node6&#45;&gt;Node3</title>
<path fill="none" stroke="#191970" d="M485.5033,-56.4369C557.9279,-46.4718 671.1146,-30.8982 746.1569,-20.573"/>
<polygon fill="#191970" stroke="#191970" points="747.0547,-23.9825 756.4843,-19.152 746.1005,-17.0479 747.0547,-23.9825"/>
</g>
<!-- Node6&#45;&gt;Node7 -->
<g id="edge8" class="edge">
<title>Node6&#45;&gt;Node7</title>
<path fill="none" stroke="#191970" d="M406.7681,-56.2455C399.1683,-48.2155 388.2123,-36.6394 379.1632,-27.0781"/>
<polygon fill="#191970" stroke="#191970" points="381.542,-24.4998 372.1261,-19.6427 376.4579,-29.3115 381.542,-24.4998"/>
</g>
<!-- Node9&#45;&gt;Node2 -->
<g id="edge13" class="edge">
<title>Node9&#45;&gt;Node2</title>
<path fill="none" stroke="#191970" d="M171.611,-627.253C143.2429,-590.7448 76,-494.4559 76,-402 76,-402 76,-402 76,-178 76,-138.0704 109.644,-101.9919 132.4539,-82.1198"/>
<polygon fill="#191970" stroke="#191970" points="134.8703,-84.6614 140.285,-75.5547 130.3731,-79.297 134.8703,-84.6614"/>
</g>
<!-- Node9&#45;&gt;Node3 -->
<g id="edge14" class="edge">
<title>Node9&#45;&gt;Node3</title>
<path fill="none" stroke="#191970" d="M264.1233,-639.3465C483.5565,-629.6504 1078,-595.8318 1078,-514 1078,-514 1078,-514 1078,-122 1078,-84.6561 1057.5769,-75.9366 1026,-56 1004.4171,-42.3733 944.8382,-29.7782 895.77,-21.2256"/>
<polygon fill="#191970" stroke="#191970" points="896.2415,-17.7555 885.7941,-19.5165 895.0594,-24.655 896.2415,-17.7555"/>
</g>
<!-- Node9&#45;&gt;Node4 -->
<g id="edge15" class="edge">
<title>Node9&#45;&gt;Node4</title>
<path fill="none" stroke="#191970" d="M183.9024,-627.2494C184.2531,-569.2408 192.1746,-358.8197 285,-224 294.1667,-210.6863 308.5468,-200.0764 321.6384,-192.4167"/>
<polygon fill="#191970" stroke="#191970" points="323.3412,-195.4746 330.4161,-187.5881 319.9673,-189.3413 323.3412,-195.4746"/>
</g>
<!-- Node10 -->
<g id="node10" class="node">
<title>Node10</title>
<g id="a_node10"><a xlink:href="../../d4/d35/Hardware-Types_8hpp.html" target="_top" xlink:title=" ">
<polygon fill="#ffffff" stroke="#000000" points="381.5,-560.5 381.5,-590.5 502.5,-590.5 502.5,-560.5 381.5,-560.5"/>
<text text-anchor="start" x="389.5" y="-578.5" font-family="Helvetica,sans-Serif" font-size="10.00" fill="#000000">AH/Hardware/Hardware</text>
<text text-anchor="middle" x="442" y="-567.5" font-family="Helvetica,sans-Serif" font-size="10.00" fill="#000000">&#45;Types.hpp</text>
</a>
</g>
</g>
<!-- Node9&#45;&gt;Node10 -->
<g id="edge16" class="edge">
<title>Node9&#45;&gt;Node10</title>
<path fill="none" stroke="#191970" d="M241.9002,-627.4639C281.0169,-617.3057 332.8179,-603.8535 373.9134,-593.1814"/>
<polygon fill="#191970" stroke="#191970" points="375.048,-596.5029 383.8472,-590.6017 373.2885,-589.7277 375.048,-596.5029"/>
</g>
<!-- Node10&#45;&gt;Node2 -->
<g id="edge46" class="edge">
<title>Node10&#45;&gt;Node2</title>
<path fill="none" stroke="#191970" d="M397.0807,-560.4422C307.2498,-527.168 114,-438.3472 114,-290 114,-290 114,-290 114,-178 114,-143.5398 130.6696,-106.2666 142.2124,-84.5877"/>
<polygon fill="#191970" stroke="#191970" points="145.3006,-86.2355 147.0767,-75.7906 139.1748,-82.8481 145.3006,-86.2355"/>
</g>
<!-- Node10&#45;&gt;Node3 -->
<g id="edge17" class="edge">
<title>Node10&#45;&gt;Node3</title>
<path fill="none" stroke="#191970" d="M502.6303,-569.9326C654.6593,-555.1605 1040,-512.3571 1040,-458 1040,-458 1040,-458 1040,-122 1040,-56.9074 961.945,-29.607 899.462,-18.1808"/>
<polygon fill="#191970" stroke="#191970" points="900.0307,-14.7273 889.5819,-16.4799 898.8431,-21.6258 900.0307,-14.7273"/>
</g>
<!-- Node11 -->
<g id="node11" class="node">
<title>Node11</title>
<g id="a_node11"><a xlink:href="../../de/d76/Array_8hpp.html" target="_top" xlink:title=" ">
<polygon fill="#ffffff" stroke="#000000" points="482,-504.5 482,-523.5 608,-523.5 608,-504.5 482,-504.5"/>
<text text-anchor="middle" x="545" y="-511.5" font-family="Helvetica,sans-Serif" font-size="10.00" fill="#000000">AH/Containers/Array.hpp</text>
</a>
</g>
</g>
<!-- Node10&#45;&gt;Node11 -->
<g id="edge18" class="edge">
<title>Node10&#45;&gt;Node11</title>
<path fill="none" stroke="#191970" d="M467.1966,-560.4554C483.3272,-550.8241 504.1638,-538.3828 520.2136,-528.7996"/>
<polygon fill="#191970" stroke="#191970" points="522.247,-531.662 529.0387,-523.5303 518.6584,-525.6518 522.247,-531.662"/>
</g>
<!-- Node21 -->
<g id="node21" class="node">
<title>Node21</title>
<g id="a_node21"><a xlink:title=" ">
<polygon fill="#ffffff" stroke="#bfbfbf" points="508.5,-224.5 508.5,-243.5 557.5,-243.5 557.5,-224.5 508.5,-224.5"/>
<text text-anchor="middle" x="533" y="-231.5" font-family="Helvetica,sans-Serif" font-size="10.00" fill="#000000">stdint.h</text>
</a>
</g>
</g>
<!-- Node10&#45;&gt;Node21 -->
<g id="edge47" class="edge">
<title>Node10&#45;&gt;Node21</title>
<path fill="none" stroke="#191970" d="M442,-560.2899C442,-537.892 442,-494.7188 442,-458 442,-458 442,-458 442,-346 442,-303.6829 481.6144,-268.4504 508.5688,-249.3755"/>
<polygon fill="#191970" stroke="#191970" points="510.8491,-252.0574 517.149,-243.5391 506.912,-246.2695 510.8491,-252.0574"/>
</g>
<!-- Node11&#45;&gt;Node3 -->
<g id="edge19" class="edge">
<title>Node11&#45;&gt;Node3</title>
<path fill="none" stroke="#191970" d="M534.5566,-504.3101C516.1826,-486.151 480,-444.9402 480,-402 480,-402 480,-402 480,-290 480,-136.843 687.763,-52.4822 779.8926,-22.6027"/>
<polygon fill="#191970" stroke="#191970" points="781.0174,-25.9178 789.4872,-19.5528 778.8968,-19.2467 781.0174,-25.9178"/>
</g>
<!-- Node11&#45;&gt;Node8 -->
<g id="edge44" class="edge">
<title>Node11&#45;&gt;Node8</title>
<path fill="none" stroke="#191970" d="M524.7016,-504.3827C458.2913,-471.5936 247.6519,-356.7805 176,-188 169.4516,-172.5749 175.3516,-154.0172 181.9307,-140.5138"/>
<polygon fill="#191970" stroke="#191970" points="185.021,-142.1569 186.673,-131.6917 178.8554,-138.8426 185.021,-142.1569"/>
</g>
<!-- Node12 -->
<g id="node12" class="node">
<title>Node12</title>
<g id="a_node12"><a xlink:href="../../d1/d93/Error_8hpp.html" target="_top" xlink:title=" ">
<polygon fill="#ffffff" stroke="#000000" points="543,-448.5 543,-467.5 641,-467.5 641,-448.5 543,-448.5"/>
<text text-anchor="middle" x="592" y="-455.5" font-family="Helvetica,sans-Serif" font-size="10.00" fill="#000000">AH/Error/Error.hpp</text>
</a>
</g>
</g>
<!-- Node11&#45;&gt;Node12 -->
<g id="edge20" class="edge">
<title>Node11&#45;&gt;Node12</title>
<path fill="none" stroke="#191970" d="M553.1868,-504.2455C559.8589,-496.2958 569.4479,-484.8706 577.4253,-475.3656"/>
<polygon fill="#191970" stroke="#191970" points="580.1592,-477.5525 583.907,-467.6427 574.7974,-473.0524 580.1592,-477.5525"/>
</g>
<!-- Node20 -->
<g id="node20" class="node">
<title>Node20</title>
<g id="a_node20"><a xlink:title=" ">
<polygon fill="#ffffff" stroke="#bfbfbf" points="884,-224.5 884,-243.5 936,-243.5 936,-224.5 884,-224.5"/>
<text text-anchor="middle" x="910" y="-231.5" font-family="Helvetica,sans-Serif" font-size="10.00" fill="#000000">stddef.h</text>
</a>
</g>
</g>
<!-- Node11&#45;&gt;Node20 -->
<g id="edge45" class="edge">
<title>Node11&#45;&gt;Node20</title>
<path fill="none" stroke="#191970" d="M608.0743,-505.3099C660.591,-497.1416 730.4462,-483.8241 754,-468 836.1694,-412.7964 886.0337,-298.2615 903.2238,-252.9986"/>
<polygon fill="#191970" stroke="#191970" points="906.5453,-254.1077 906.728,-243.5145 899.9791,-251.6817 906.5453,-254.1077"/>
</g>
<!-- Node24 -->
<g id="node24" class="node">
<title>Node24</title>
<g id="a_node24"><a xlink:title=" ">
<polygon fill="#ffffff" stroke="#bfbfbf" points="659.5,-448.5 659.5,-467.5 744.5,-467.5 744.5,-448.5 659.5,-448.5"/>
<text text-anchor="middle" x="702" y="-455.5" font-family="Helvetica,sans-Serif" font-size="10.00" fill="#000000">AH/STL/iterator</text>
</a>
</g>
</g>
<!-- Node11&#45;&gt;Node24 -->
<g id="edge43" class="edge">
<title>Node11&#45;&gt;Node24</title>
<path fill="none" stroke="#191970" d="M571.9893,-504.3733C597.8699,-495.1419 637.1248,-481.1402 665.7289,-470.9375"/>
<polygon fill="#191970" stroke="#191970" points="667.12,-474.1573 675.3629,-467.5011 664.7683,-467.5642 667.12,-474.1573"/>
</g>
<!-- Node12&#45;&gt;Node3 -->
<g id="edge21" class="edge">
<title>Node12&#45;&gt;Node3</title>
<path fill="none" stroke="#191970" d="M622.8166,-448.4751C718.1668,-418.0892 1002,-320.3834 1002,-234 1002,-234 1002,-234 1002,-122 1002,-65.3483 936.7688,-36.2797 885.063,-22.1369"/>
<polygon fill="#191970" stroke="#191970" points="885.8145,-18.7159 875.2554,-19.585 884.0518,-25.4904 885.8145,-18.7159"/>
</g>
<!-- Node13 -->
<g id="node13" class="node">
<title>Node13</title>
<g id="a_node13"><a xlink:href="../../df/dee/Debug_8hpp.html" target="_top" xlink:title=" ">
<polygon fill="#ffffff" stroke="#000000" points="571.5,-392.5 571.5,-411.5 684.5,-411.5 684.5,-392.5 571.5,-392.5"/>
<text text-anchor="middle" x="628" y="-399.5" font-family="Helvetica,sans-Serif" font-size="10.00" fill="#000000">AH/Debug/Debug.hpp</text>
</a>
</g>
</g>
<!-- Node12&#45;&gt;Node13 -->
<g id="edge22" class="edge">
<title>Node12&#45;&gt;Node13</title>
<path fill="none" stroke="#191970" d="M598.2707,-448.2455C603.2264,-440.5367 610.283,-429.5598 616.2776,-420.2348"/>
<polygon fill="#191970" stroke="#191970" points="619.3376,-421.9471 621.8011,-411.6427 613.4494,-418.1618 619.3376,-421.9471"/>
</g>
<!-- Node13&#45;&gt;Node3 -->
<g id="edge23" class="edge">
<title>Node13&#45;&gt;Node3</title>
<path fill="none" stroke="#191970" d="M684.8473,-395.1011C723.2289,-388.7786 774.1435,-377.0722 815,-356 906.6923,-308.7086 964,-281.1695 964,-178 964,-178 964,-178 964,-122 964,-70.6649 905.986,-39.1046 864.3831,-23.0721"/>
<polygon fill="#191970" stroke="#191970" points="865.5884,-19.7862 854.9951,-19.6062 863.164,-26.353 865.5884,-19.7862"/>
</g>
<!-- Node14 -->
<g id="node14" class="node">
<title>Node14</title>
<g id="a_node14"><a xlink:href="../../dd/d80/PrintStream_8hpp.html" target="_top" xlink:title=" ">
<polygon fill="#ffffff" stroke="#000000" points="293.5,-224.5 293.5,-243.5 452.5,-243.5 452.5,-224.5 293.5,-224.5"/>
<text text-anchor="middle" x="373" y="-231.5" font-family="Helvetica,sans-Serif" font-size="10.00" fill="#000000">AH/PrintStream/PrintStream.hpp</text>
</a>
</g>
</g>
<!-- Node13&#45;&gt;Node14 -->
<g id="edge24" class="edge">
<title>Node13&#45;&gt;Node14</title>
<path fill="none" stroke="#191970" d="M606.478,-392.3996C587.6756,-383.7149 559.8856,-370.1516 537,-356 482.0591,-322.0267 422.3314,-274.6836 392.4027,-250.1612"/>
<polygon fill="#191970" stroke="#191970" points="394.3867,-247.2609 384.4441,-243.6012 389.9344,-252.6625 394.3867,-247.2609"/>
</g>
<!-- Node15 -->
<g id="node15" class="node">
<title>Node15</title>
<g id="a_node15"><a xlink:href="../../d2/dd5/SettingsWrapper_8hpp.html" target="_top" xlink:title=" ">
<polygon fill="#ffffff" stroke="#000000" points="546,-336.5 546,-355.5 710,-355.5 710,-336.5 546,-336.5"/>
<text text-anchor="middle" x="628" y="-343.5" font-family="Helvetica,sans-Serif" font-size="10.00" fill="#000000">AH/Settings/SettingsWrapper.hpp</text>
</a>
</g>
</g>
<!-- Node13&#45;&gt;Node15 -->
<g id="edge27" class="edge">
<title>Node13&#45;&gt;Node15</title>
<path fill="none" stroke="#191970" d="M622.7332,-392.2455C621.3221,-384.9382 620.9179,-374.6944 621.5205,-365.7046"/>
<polygon fill="#191970" stroke="#191970" points="625.0111,-365.9945 622.7549,-355.6427 618.0632,-365.1421 625.0111,-365.9945"/>
</g>
<!-- Node23 -->
<g id="node23" class="node">
<title>Node23</title>
<g id="a_node23"><a xlink:href="../../d7/d52/DebugVal_8hpp.html" target="_top" xlink:title=" ">
<polygon fill="#ffffff" stroke="#000000" points="728,-336.5 728,-355.5 806,-355.5 806,-336.5 728,-336.5"/>
<text text-anchor="middle" x="767" y="-343.5" font-family="Helvetica,sans-Serif" font-size="10.00" fill="#000000">DebugVal.hpp</text>
</a>
</g>
</g>
<!-- Node13&#45;&gt;Node23 -->
<g id="edge42" class="edge">
<title>Node13&#45;&gt;Node23</title>
<path fill="none" stroke="#191970" d="M651.895,-392.3733C674.5082,-383.2629 708.6542,-369.5062 733.8873,-359.3404"/>
<polygon fill="#191970" stroke="#191970" points="735.4493,-362.4845 743.4169,-355.5011 732.8334,-355.9917 735.4493,-362.4845"/>
</g>
<!-- Node14&#45;&gt;Node3 -->
<g id="edge25" class="edge">
<title>Node14&#45;&gt;Node3</title>
<path fill="none" stroke="#191970" d="M382.9318,-224.4253C418.0946,-190.7233 537.0749,-78.405 584,-56 612.2059,-42.5327 687.629,-29.2685 746.2763,-20.4702"/>
<polygon fill="#191970" stroke="#191970" points="746.8949,-23.9168 756.2739,-18.9889 745.8689,-16.9924 746.8949,-23.9168"/>
</g>
<!-- Node14&#45;&gt;Node4 -->
<g id="edge26" class="edge">
<title>Node14&#45;&gt;Node4</title>
<path fill="none" stroke="#191970" d="M369.3421,-224.2455C366.5416,-216.7776 362.591,-206.2427 359.1676,-197.1137"/>
<polygon fill="#191970" stroke="#191970" points="362.4045,-195.777 355.616,-187.6427 355.8501,-198.2349 362.4045,-195.777"/>
</g>
<!-- Node15&#45;&gt;Node2 -->
<g id="edge29" class="edge">
<title>Node15&#45;&gt;Node2</title>
<path fill="none" stroke="#191970" d="M572.9684,-336.4934C486.5175,-320.4708 324.6347,-285.7183 285,-244 243.4217,-200.2359 291.3668,-158.6051 253,-112 240.3439,-96.6263 221.4225,-86.1466 203.4332,-79.124"/>
<polygon fill="#191970" stroke="#191970" points="204.1752,-75.6709 193.5808,-75.5691 201.7993,-82.2554 204.1752,-75.6709"/>
</g>
<!-- Node15&#45;&gt;Node3 -->
<g id="edge28" class="edge">
<title>Node15&#45;&gt;Node3</title>
<path fill="none" stroke="#191970" d="M710.0182,-336.6296C760.3164,-329.2763 818.5083,-317.3505 837,-300 859.2601,-279.1136 856,-264.5246 856,-234 856,-234 856,-234 856,-122 856,-88.051 841.8765,-50.5869 832.1089,-28.7366"/>
<polygon fill="#191970" stroke="#191970" points="835.2552,-27.202 827.8693,-19.6061 828.9063,-30.1501 835.2552,-27.202"/>
</g>
<!-- Node15&#45;&gt;Node13 -->
<g id="edge41" class="edge">
<title>Node15&#45;&gt;Node13</title>
<path fill="none" stroke="#191970" d="M633.2451,-355.6427C634.6665,-362.9199 635.081,-373.155 634.4887,-382.1575"/>
<polygon fill="#191970" stroke="#191970" points="630.9947,-381.8972 633.2668,-392.2455 637.9439,-382.739 630.9947,-381.8972"/>
</g>
<!-- Node16 -->
<g id="node16" class="node">
<title>Node16</title>
<g id="a_node16"><a xlink:href="../../db/d02/Settings_8hpp.html" target="_top" xlink:title="All user settings and debugging options can be changed here.">
<polygon fill="#ffffff" stroke="#000000" points="570.5,-280.5 570.5,-299.5 641.5,-299.5 641.5,-280.5 570.5,-280.5"/>
<text text-anchor="middle" x="606" y="-287.5" font-family="Helvetica,sans-Serif" font-size="10.00" fill="#000000">Settings.hpp</text>
</a>
</g>
</g>
<!-- Node15&#45;&gt;Node16 -->
<g id="edge30" class="edge">
<title>Node15&#45;&gt;Node16</title>
<path fill="none" stroke="#191970" d="M624.1679,-336.2455C621.2341,-328.7776 617.0953,-318.2427 613.509,-309.1137"/>
<polygon fill="#191970" stroke="#191970" points="616.7024,-307.6704 609.7882,-299.6427 610.1871,-310.23 616.7024,-307.6704"/>
</g>
<!-- Node22 -->
<g id="node22" class="node">
<title>Node22</title>
<g id="a_node22"><a xlink:href="../../d9/d98/TeensyUSBTypes_8hpp.html" target="_top" xlink:title=" ">
<polygon fill="#ffffff" stroke="#000000" points="660,-280.5 660,-299.5 828,-299.5 828,-280.5 660,-280.5"/>
<text text-anchor="middle" x="744" y="-287.5" font-family="Helvetica,sans-Serif" font-size="10.00" fill="#000000">AH/Teensy/TeensyUSBTypes.hpp</text>
</a>
</g>
</g>
<!-- Node15&#45;&gt;Node22 -->
<g id="edge40" class="edge">
<title>Node15&#45;&gt;Node22</title>
<path fill="none" stroke="#191970" d="M647.9411,-336.3733C666.4786,-327.4241 694.3028,-313.9917 715.2413,-303.8835"/>
<polygon fill="#191970" stroke="#191970" points="716.8352,-307.0006 724.3191,-299.5011 713.7919,-300.6967 716.8352,-307.0006"/>
</g>
<!-- Node17 -->
<g id="node17" class="node">
<title>Node17</title>
<g id="a_node17"><a xlink:href="../../dc/d50/Frequency_8hpp.html" target="_top" xlink:title=" ">
<polygon fill="#ffffff" stroke="#000000" points="700,-112.5 700,-131.5 828,-131.5 828,-112.5 700,-112.5"/>
<text text-anchor="middle" x="764" y="-119.5" font-family="Helvetica,sans-Serif" font-size="10.00" fill="#000000">AH/Types/Frequency.hpp</text>
</a>
</g>
</g>
<!-- Node16&#45;&gt;Node17 -->
<g id="edge31" class="edge">
<title>Node16&#45;&gt;Node17</title>
<path fill="none" stroke="#191970" d="M641.7322,-282.069C696.8401,-269.7565 796.5317,-247.1257 799,-244 823.5534,-212.9067 796.3516,-165.3085 777.9828,-139.7277"/>
<polygon fill="#191970" stroke="#191970" points="780.7437,-137.5752 771.9533,-131.6608 775.1368,-141.7661 780.7437,-137.5752"/>
</g>
<!-- Node18 -->
<g id="node18" class="node">
<title>Node18</title>
<g id="a_node18"><a xlink:href="../../d7/d7c/ADCConfig_8hpp.html" target="_top" xlink:title="This file contains the platform&#45;specific ADC resolutions. By default, the library automatically selec...">
<polygon fill="#ffffff" stroke="#000000" points="576,-224.5 576,-243.5 724,-243.5 724,-224.5 576,-224.5"/>
<text text-anchor="middle" x="650" y="-231.5" font-family="Helvetica,sans-Serif" font-size="10.00" fill="#000000">AH/Hardware/ADCConfig.hpp</text>
</a>
</g>
</g>
<!-- Node16&#45;&gt;Node18 -->
<g id="edge34" class="edge">
<title>Node16&#45;&gt;Node18</title>
<path fill="none" stroke="#191970" d="M613.6642,-280.2455C619.8473,-272.3761 628.7063,-261.101 636.1289,-251.6542"/>
<polygon fill="#191970" stroke="#191970" points="638.9975,-253.6683 642.4236,-243.6427 633.4932,-249.3435 638.9975,-253.6683"/>
</g>
<!-- Node19 -->
<g id="node19" class="node">
<title>Node19</title>
<g id="a_node19"><a xlink:title=" ">
<polygon fill="#ffffff" stroke="#bfbfbf" points="742,-224.5 742,-243.5 790,-243.5 790,-224.5 742,-224.5"/>
<text text-anchor="middle" x="766" y="-231.5" font-family="Helvetica,sans-Serif" font-size="10.00" fill="#000000">limits.h</text>
</a>
</g>
</g>
<!-- Node16&#45;&gt;Node19 -->
<g id="edge37" class="edge">
<title>Node16&#45;&gt;Node19</title>
<path fill="none" stroke="#191970" d="M633.505,-280.3733C660.8393,-270.8062 702.8126,-256.1156 732.1716,-245.8399"/>
<polygon fill="#191970" stroke="#191970" points="733.7032,-249.0121 741.9855,-242.4051 731.3907,-242.4051 733.7032,-249.0121"/>
</g>
<!-- Node16&#45;&gt;Node20 -->
<g id="edge38" class="edge">
<title>Node16&#45;&gt;Node20</title>
<path fill="none" stroke="#191970" d="M641.8321,-281.892C644.9294,-281.2352 648.0178,-280.5959 651,-280 730.2295,-264.1685 823.647,-248.2495 873.8033,-239.9249"/>
<polygon fill="#191970" stroke="#191970" points="874.5341,-243.3517 883.8288,-238.2666 873.3917,-236.4455 874.5341,-243.3517"/>
</g>
<!-- Node16&#45;&gt;Node21 -->
<g id="edge39" class="edge">
<title>Node16&#45;&gt;Node21</title>
<path fill="none" stroke="#191970" d="M593.2844,-280.2455C582.398,-271.8943 566.5117,-259.7076 553.78,-249.9408"/>
<polygon fill="#191970" stroke="#191970" points="555.6346,-246.9523 545.5699,-243.6427 551.3739,-252.5063 555.6346,-246.9523"/>
</g>
<!-- Node17&#45;&gt;Node2 -->
<g id="edge33" class="edge">
<title>Node17&#45;&gt;Node2</title>
<path fill="none" stroke="#191970" d="M699.7671,-116.1129C593.3444,-106.3589 379.6765,-86.7756 253.2541,-75.1886"/>
<polygon fill="#191970" stroke="#191970" points="253.4566,-71.6926 243.1789,-74.2652 252.8177,-78.6634 253.4566,-71.6926"/>
</g>
<!-- Node17&#45;&gt;Node3 -->
<g id="edge32" class="edge">
<title>Node17&#45;&gt;Node3</title>
<path fill="none" stroke="#191970" d="M769.0303,-112.4509C778.8273,-93.8533 800.6159,-52.4919 813.309,-28.3964"/>
<polygon fill="#191970" stroke="#191970" points="816.4183,-30.0036 817.9824,-19.5249 810.225,-26.7411 816.4183,-30.0036"/>
</g>
<!-- Node18&#45;&gt;Node3 -->
<g id="edge35" class="edge">
<title>Node18&#45;&gt;Node3</title>
<path fill="none" stroke="#191970" d="M651.3074,-224.2671C654.6384,-202.3918 665.0865,-148.409 691,-112 718.731,-73.0374 765.6083,-41.9002 795.3938,-24.7042"/>
<polygon fill="#191970" stroke="#191970" points="797.4244,-27.5774 804.4179,-19.6187 793.9877,-21.4791 797.4244,-27.5774"/>
</g>
<!-- Node18&#45;&gt;Node4 -->
<g id="edge36" class="edge">
<title>Node18&#45;&gt;Node4</title>
<path fill="none" stroke="#191970" d="M599.1106,-224.4369C547.4673,-214.7321 467.5174,-199.708 412.6251,-189.3926"/>
<polygon fill="#191970" stroke="#191970" points="413.1539,-185.9308 402.6795,-187.5237 411.8611,-192.8104 413.1539,-185.9308"/>
</g>
</g>
</svg>
