<?xml version="1.0" encoding="UTF-8" standalone="no"?>
<!DOCTYPE svg PUBLIC "-//W3C//DTD SVG 1.1//EN"
 "http://www.w3.org/Graphics/SVG/1.1/DTD/svg11.dtd">
<!-- Generated by graphviz version 2.43.0 (0)
 -->
<!-- Title: OneByteMIDIMatcher Pages: 1 -->
<svg width="148pt" height="303pt"
 viewBox="0.00 0.00 148.00 303.00" xmlns="http://www.w3.org/2000/svg" xmlns:xlink="http://www.w3.org/1999/xlink">
<g id="graph0" class="graph" transform="scale(1 1) rotate(0) translate(4 299)">
<title>OneByteMIDIMatcher</title>
<polygon fill="white" stroke="transparent" points="-4,4 -4,-299 144,-299 144,4 -4,4"/>
<!-- Node1 -->
<g id="node1" class="node">
<title>Node1</title>
<g id="a_node1"><a xlink:title="Matcher for MIDI messages with 1 data byte, such as Channel Pressure and Program Change.">
<polygon fill="#bfbfbf" stroke="black" points="0,-0.5 0,-68.5 140,-68.5 140,-0.5 0,-0.5"/>
<text text-anchor="middle" x="70" y="-56.5" font-family="Helvetica,sans-Serif" font-size="10.00">OneByteMIDIMatcher</text>
<polyline fill="none" stroke="black" points="0,-49.5 140,-49.5 "/>
<text text-anchor="middle" x="70" y="-37.5" font-family="Helvetica,sans-Serif" font-size="10.00"> </text>
<polyline fill="none" stroke="black" points="0,-30.5 140,-30.5 "/>
<text text-anchor="start" x="8" y="-18.5" font-family="Helvetica,sans-Serif" font-size="10.00">+ OneByteMIDIMatcher()</text>
<text text-anchor="start" x="8" y="-7.5" font-family="Helvetica,sans-Serif" font-size="10.00">+ operator()()</text>
</a>
</g>
</g>
<!-- Node2 -->
<g id="node2" class="node">
<title>Node2</title>
<g id="a_node2"><a xlink:href="../../d7/d46/classMIDIChannelCable.html" target="_top" xlink:title="A class for saving a MIDI channel and cable number.">
<polygon fill="white" stroke="black" points="2,-116.5 2,-294.5 138,-294.5 138,-116.5 2,-116.5"/>
<text text-anchor="middle" x="70" y="-282.5" font-family="Helvetica,sans-Serif" font-size="10.00">MIDIChannelCable</text>
<polyline fill="none" stroke="black" points="2,-275.5 138,-275.5 "/>
<text text-anchor="start" x="10" y="-263.5" font-family="Helvetica,sans-Serif" font-size="10.00">&#45; addresses</text>
<polyline fill="none" stroke="black" points="2,-256.5 138,-256.5 "/>
<text text-anchor="start" x="10" y="-244.5" font-family="Helvetica,sans-Serif" font-size="10.00">* MIDIChannelCable()</text>
<text text-anchor="start" x="10" y="-233.5" font-family="Helvetica,sans-Serif" font-size="10.00">* MIDIChannelCable()</text>
<text text-anchor="start" x="10" y="-222.5" font-family="Helvetica,sans-Serif" font-size="10.00">* invalid()</text>
<text text-anchor="start" x="10" y="-211.5" font-family="Helvetica,sans-Serif" font-size="10.00">* getChannel()</text>
<text text-anchor="start" x="10" y="-200.5" font-family="Helvetica,sans-Serif" font-size="10.00">* getRawChannel()</text>
<text text-anchor="start" x="10" y="-189.5" font-family="Helvetica,sans-Serif" font-size="10.00">* getCableNumber()</text>
<text text-anchor="start" x="10" y="-178.5" font-family="Helvetica,sans-Serif" font-size="10.00">* getRawCableNumber()</text>
<text text-anchor="start" x="10" y="-167.5" font-family="Helvetica,sans-Serif" font-size="10.00">* operator==()</text>
<text text-anchor="start" x="10" y="-156.5" font-family="Helvetica,sans-Serif" font-size="10.00">* operator!=()</text>
<text text-anchor="start" x="10" y="-145.5" font-family="Helvetica,sans-Serif" font-size="10.00">* isValid()</text>
<text text-anchor="start" x="10" y="-134.5" font-family="Helvetica,sans-Serif" font-size="10.00">* operator bool()</text>
<text text-anchor="start" x="10" y="-123.5" font-family="Helvetica,sans-Serif" font-size="10.00">* matchSingle()</text>
</a>
</g>
</g>
<!-- Node2&#45;&gt;Node1 -->
<g id="edge1" class="edge">
<title>Node2&#45;&gt;Node1</title>
<path fill="none" stroke="#404040" d="M70,-116.04C70,-103.87 70,-91.81 70,-80.87"/>
<polygon fill="none" stroke="#404040" points="70,-80.61 66,-74.61 70,-68.61 74,-74.61 70,-80.61"/>
<text text-anchor="middle" x="95" y="-90" font-family="Helvetica,sans-Serif" font-size="10.00"> +address</text>
</g>
</g>
</svg>
