<?xml version="1.0" encoding="UTF-8" standalone="no"?>
<!DOCTYPE svg PUBLIC "-//W3C//DTD SVG 1.1//EN"
 "http://www.w3.org/Graphics/SVG/1.1/DTD/svg11.dtd">
<!-- Generated by graphviz version 2.43.0 (0)
 -->
<!-- Title: MIDIFilteredAnalog&lt; BankAddress, Sender &gt; Pages: 1 -->
<svg width="740pt" height="1114pt"
 viewBox="0.00 0.00 740.00 1114.00" xmlns="http://www.w3.org/2000/svg" xmlns:xlink="http://www.w3.org/1999/xlink">
<g id="graph0" class="graph" transform="scale(1 1) rotate(0) translate(4 1110)">
<title>MIDIFilteredAnalog&lt; BankAddress, Sender &gt;</title>
<polygon fill="white" stroke="transparent" points="-4,4 -4,-1110 736,-1110 736,4 -4,4"/>
<!-- Node1 -->
<g id="node1" class="node">
<title>Node1</title>
<g id="a_node1"><a xlink:title="A class for potentiometers and faders that send MIDI events (with only a channel, no address) and tha...">
<polygon fill="#bfbfbf" stroke="black" points="316,-0.5 316,-145.5 459,-145.5 459,-0.5 316,-0.5"/>
<text text-anchor="start" x="324" y="-133.5" font-family="Helvetica,sans-Serif" font-size="10.00">MIDIFilteredAnalog</text>
<text text-anchor="middle" x="387.5" y="-122.5" font-family="Helvetica,sans-Serif" font-size="10.00">&lt; BankAddress, Sender &gt;</text>
<polyline fill="none" stroke="black" points="316,-115.5 459,-115.5 "/>
<text text-anchor="start" x="324" y="-103.5" font-family="Helvetica,sans-Serif" font-size="10.00">+ sender</text>
<text text-anchor="start" x="324" y="-92.5" font-family="Helvetica,sans-Serif" font-size="10.00">&#45; address</text>
<polyline fill="none" stroke="black" points="316,-85.5 459,-85.5 "/>
<text text-anchor="start" x="324" y="-73.5" font-family="Helvetica,sans-Serif" font-size="10.00">+ begin()</text>
<text text-anchor="start" x="324" y="-62.5" font-family="Helvetica,sans-Serif" font-size="10.00">+ update()</text>
<text text-anchor="start" x="324" y="-51.5" font-family="Helvetica,sans-Serif" font-size="10.00">+ map()</text>
<text text-anchor="start" x="324" y="-40.5" font-family="Helvetica,sans-Serif" font-size="10.00">+ invert()</text>
<text text-anchor="start" x="324" y="-29.5" font-family="Helvetica,sans-Serif" font-size="10.00">+ getRawValue()</text>
<text text-anchor="start" x="324" y="-18.5" font-family="Helvetica,sans-Serif" font-size="10.00">+ getValue()</text>
<text text-anchor="start" x="324" y="-7.5" font-family="Helvetica,sans-Serif" font-size="10.00"># MIDIFilteredAnalog()</text>
</a>
</g>
</g>
<!-- Node2 -->
<g id="node2" class="node">
<title>Node2</title>
<g id="a_node2"><a xlink:href="../../d1/d55/classAH_1_1Updatable.html" target="_top" xlink:title=" ">
<polygon fill="white" stroke="black" points="261,-193.5 261,-283.5 374,-283.5 374,-193.5 261,-193.5"/>
<text text-anchor="middle" x="317.5" y="-271.5" font-family="Helvetica,sans-Serif" font-size="10.00">MIDIOutputElement</text>
<polyline fill="none" stroke="black" points="261,-264.5 374,-264.5 "/>
<text text-anchor="middle" x="317.5" y="-252.5" font-family="Helvetica,sans-Serif" font-size="10.00"> </text>
<polyline fill="none" stroke="black" points="261,-245.5 374,-245.5 "/>
<text text-anchor="start" x="269" y="-233.5" font-family="Helvetica,sans-Serif" font-size="10.00">* begin()</text>
<text text-anchor="start" x="269" y="-222.5" font-family="Helvetica,sans-Serif" font-size="10.00">* update()</text>
<text text-anchor="start" x="269" y="-211.5" font-family="Helvetica,sans-Serif" font-size="10.00">* beginAll()</text>
<text text-anchor="start" x="269" y="-200.5" font-family="Helvetica,sans-Serif" font-size="10.00">* updateAll()</text>
</a>
</g>
</g>
<!-- Node2&#45;&gt;Node1 -->
<g id="edge1" class="edge">
<title>Node2&#45;&gt;Node1</title>
<path fill="none" stroke="midnightblue" d="M340.52,-183.73C345.73,-171.57 351.34,-158.47 356.8,-145.7"/>
<polygon fill="none" stroke="midnightblue" points="337.16,-182.68 336.44,-193.25 343.6,-185.44 337.16,-182.68"/>
</g>
<!-- Node3 -->
<g id="node3" class="node">
<title>Node3</title>
<g id="a_node3"><a xlink:href="../../d8/d1a/classAH_1_1UpdatableCRTP.html" target="_top" xlink:title=" ">
<polygon fill="white" stroke="black" points="192,-321.5 192,-598.5 345,-598.5 345,-321.5 192,-321.5"/>
<text text-anchor="start" x="200" y="-586.5" font-family="Helvetica,sans-Serif" font-size="10.00">UpdatableCRTP&lt; Updatable</text>
<text text-anchor="start" x="200" y="-575.5" font-family="Helvetica,sans-Serif" font-size="10.00">&lt; NormalUpdatable, false</text>
<text text-anchor="middle" x="268.5" y="-564.5" font-family="Helvetica,sans-Serif" font-size="10.00"> &gt;, false &gt;</text>
<polyline fill="none" stroke="black" points="192,-557.5 345,-557.5 "/>
<text text-anchor="start" x="200" y="-545.5" font-family="Helvetica,sans-Serif" font-size="10.00"># mutex</text>
<polyline fill="none" stroke="black" points="192,-538.5 345,-538.5 "/>
<text text-anchor="start" x="200" y="-526.5" font-family="Helvetica,sans-Serif" font-size="10.00">+ ~UpdatableCRTP()</text>
<text text-anchor="start" x="200" y="-515.5" font-family="Helvetica,sans-Serif" font-size="10.00">+ getMutex()</text>
<text text-anchor="start" x="200" y="-504.5" font-family="Helvetica,sans-Serif" font-size="10.00"># UpdatableCRTP()</text>
<text text-anchor="start" x="200" y="-493.5" font-family="Helvetica,sans-Serif" font-size="10.00">* enable()</text>
<text text-anchor="start" x="200" y="-482.5" font-family="Helvetica,sans-Serif" font-size="10.00">* enable()</text>
<text text-anchor="start" x="200" y="-471.5" font-family="Helvetica,sans-Serif" font-size="10.00">* disable()</text>
<text text-anchor="start" x="200" y="-460.5" font-family="Helvetica,sans-Serif" font-size="10.00">* disable()</text>
<text text-anchor="start" x="200" y="-449.5" font-family="Helvetica,sans-Serif" font-size="10.00">* isEnabled()</text>
<text text-anchor="start" x="200" y="-438.5" font-family="Helvetica,sans-Serif" font-size="10.00">* isEnabled()</text>
<text text-anchor="start" x="200" y="-427.5" font-family="Helvetica,sans-Serif" font-size="10.00">* moveDown()</text>
<text text-anchor="start" x="200" y="-416.5" font-family="Helvetica,sans-Serif" font-size="10.00">* moveDown()</text>
<text text-anchor="start" x="200" y="-405.5" font-family="Helvetica,sans-Serif" font-size="10.00">* enable()</text>
<text text-anchor="start" x="200" y="-394.5" font-family="Helvetica,sans-Serif" font-size="10.00">* enable()</text>
<text text-anchor="start" x="200" y="-383.5" font-family="Helvetica,sans-Serif" font-size="10.00">* enable()</text>
<text text-anchor="start" x="200" y="-372.5" font-family="Helvetica,sans-Serif" font-size="10.00">* disable()</text>
<text text-anchor="start" x="200" y="-361.5" font-family="Helvetica,sans-Serif" font-size="10.00">* disable()</text>
<text text-anchor="start" x="200" y="-350.5" font-family="Helvetica,sans-Serif" font-size="10.00">* disable()</text>
<text text-anchor="start" x="200" y="-339.5" font-family="Helvetica,sans-Serif" font-size="10.00">* applyToAll()</text>
<text text-anchor="start" x="200" y="-328.5" font-family="Helvetica,sans-Serif" font-size="10.00">* applyToAll()</text>
</a>
</g>
</g>
<!-- Node3&#45;&gt;Node2 -->
<g id="edge2" class="edge">
<title>Node3&#45;&gt;Node2</title>
<path fill="none" stroke="midnightblue" d="M301.48,-311.28C303.67,-301.47 305.75,-292.12 307.65,-283.61"/>
<polygon fill="none" stroke="midnightblue" points="298.02,-310.71 299.25,-321.23 304.85,-312.24 298.02,-310.71"/>
</g>
<!-- Node4 -->
<g id="node4" class="node">
<title>Node4</title>
<g id="a_node4"><a xlink:href="../../d4/d23/classDoublyLinkable.html" target="_top" xlink:title=" ">
<polygon fill="white" stroke="black" points="0,-762 0,-841 167,-841 167,-762 0,-762"/>
<text text-anchor="start" x="8" y="-829" font-family="Helvetica,sans-Serif" font-size="10.00">DoublyLinkable&lt; Updatable</text>
<text text-anchor="middle" x="83.5" y="-818" font-family="Helvetica,sans-Serif" font-size="10.00">&lt; NormalUpdatable, false &gt; &gt;</text>
<polyline fill="none" stroke="black" points="0,-811 167,-811 "/>
<text text-anchor="start" x="8" y="-799" font-family="Helvetica,sans-Serif" font-size="10.00"># next</text>
<text text-anchor="start" x="8" y="-788" font-family="Helvetica,sans-Serif" font-size="10.00"># previous</text>
<polyline fill="none" stroke="black" points="0,-781 167,-781 "/>
<text text-anchor="start" x="8" y="-769" font-family="Helvetica,sans-Serif" font-size="10.00"># ~DoublyLinkable()</text>
</a>
</g>
</g>
<!-- Node4&#45;&gt;Node3 -->
<g id="edge3" class="edge">
<title>Node4&#45;&gt;Node3</title>
<path fill="none" stroke="midnightblue" d="M109.45,-752.88C131.28,-712.81 163.64,-653.43 193.48,-598.68"/>
<polygon fill="none" stroke="midnightblue" points="106.25,-751.43 104.54,-761.89 112.4,-754.78 106.25,-751.43"/>
</g>
<!-- Node5 -->
<g id="node5" class="node">
<title>Node5</title>
<g id="a_node5"><a xlink:href="../../dd/d16/classDoublyLinkedList.html" target="_top" xlink:title=" ">
<polygon fill="white" stroke="black" points="185,-646.5 185,-956.5 352,-956.5 352,-646.5 185,-646.5"/>
<text text-anchor="start" x="193" y="-944.5" font-family="Helvetica,sans-Serif" font-size="10.00">DoublyLinkedList&lt; Updatable</text>
<text text-anchor="middle" x="268.5" y="-933.5" font-family="Helvetica,sans-Serif" font-size="10.00">&lt; NormalUpdatable, false &gt; &gt;</text>
<polyline fill="none" stroke="black" points="185,-926.5 352,-926.5 "/>
<text text-anchor="start" x="193" y="-914.5" font-family="Helvetica,sans-Serif" font-size="10.00">&#45; first</text>
<text text-anchor="start" x="193" y="-903.5" font-family="Helvetica,sans-Serif" font-size="10.00">&#45; last</text>
<polyline fill="none" stroke="black" points="185,-896.5 352,-896.5 "/>
<text text-anchor="start" x="193" y="-884.5" font-family="Helvetica,sans-Serif" font-size="10.00">+ append()</text>
<text text-anchor="start" x="193" y="-873.5" font-family="Helvetica,sans-Serif" font-size="10.00">+ append()</text>
<text text-anchor="start" x="193" y="-862.5" font-family="Helvetica,sans-Serif" font-size="10.00">+ insertBefore()</text>
<text text-anchor="start" x="193" y="-851.5" font-family="Helvetica,sans-Serif" font-size="10.00">+ insertBefore()</text>
<text text-anchor="start" x="193" y="-840.5" font-family="Helvetica,sans-Serif" font-size="10.00">+ insertSorted()</text>
<text text-anchor="start" x="193" y="-829.5" font-family="Helvetica,sans-Serif" font-size="10.00">+ insertSorted()</text>
<text text-anchor="start" x="193" y="-818.5" font-family="Helvetica,sans-Serif" font-size="10.00">+ remove()</text>
<text text-anchor="start" x="193" y="-807.5" font-family="Helvetica,sans-Serif" font-size="10.00">+ remove()</text>
<text text-anchor="start" x="193" y="-796.5" font-family="Helvetica,sans-Serif" font-size="10.00">+ moveDown()</text>
<text text-anchor="start" x="193" y="-785.5" font-family="Helvetica,sans-Serif" font-size="10.00">+ moveDown()</text>
<text text-anchor="start" x="193" y="-774.5" font-family="Helvetica,sans-Serif" font-size="10.00">+ couldContain()</text>
<text text-anchor="start" x="193" y="-763.5" font-family="Helvetica,sans-Serif" font-size="10.00">+ couldContain()</text>
<text text-anchor="start" x="193" y="-752.5" font-family="Helvetica,sans-Serif" font-size="10.00">+ begin()</text>
<text text-anchor="start" x="193" y="-741.5" font-family="Helvetica,sans-Serif" font-size="10.00">+ begin()</text>
<text text-anchor="start" x="193" y="-730.5" font-family="Helvetica,sans-Serif" font-size="10.00">+ end()</text>
<text text-anchor="start" x="193" y="-719.5" font-family="Helvetica,sans-Serif" font-size="10.00">+ end()</text>
<text text-anchor="start" x="193" y="-708.5" font-family="Helvetica,sans-Serif" font-size="10.00">+ rbegin()</text>
<text text-anchor="start" x="193" y="-697.5" font-family="Helvetica,sans-Serif" font-size="10.00">+ rbegin()</text>
<text text-anchor="start" x="193" y="-686.5" font-family="Helvetica,sans-Serif" font-size="10.00">+ rend()</text>
<text text-anchor="start" x="193" y="-675.5" font-family="Helvetica,sans-Serif" font-size="10.00">+ rend()</text>
<text text-anchor="start" x="193" y="-664.5" font-family="Helvetica,sans-Serif" font-size="10.00">+ getFirst()</text>
<text text-anchor="start" x="193" y="-653.5" font-family="Helvetica,sans-Serif" font-size="10.00">+ getLast()</text>
</a>
</g>
</g>
<!-- Node5&#45;&gt;Node3 -->
<g id="edge4" class="edge">
<title>Node5&#45;&gt;Node3</title>
<path fill="none" stroke="#404040" d="M268.5,-646.15C268.5,-634.38 268.5,-622.52 268.5,-610.78"/>
<polygon fill="none" stroke="#404040" points="268.5,-610.61 264.5,-604.61 268.5,-598.61 272.5,-604.61 268.5,-610.61"/>
<text text-anchor="middle" x="301.5" y="-620" font-family="Helvetica,sans-Serif" font-size="10.00"> #updatables</text>
</g>
<!-- Node6 -->
<g id="node6" class="node">
<title>Node6</title>
<g id="a_node6"><a xlink:href="../../d3/d6e/classAH_1_1FilteredAnalog.html" target="_top" xlink:title=" ">
<polygon fill="white" stroke="black" points="409.5,-199 409.5,-278 541.5,-278 541.5,-199 409.5,-199"/>
<text text-anchor="start" x="417.5" y="-266" font-family="Helvetica,sans-Serif" font-size="10.00">FilteredAnalog&lt; Sender</text>
<text text-anchor="middle" x="475.5" y="-255" font-family="Helvetica,sans-Serif" font-size="10.00">::precision()&gt;</text>
<polyline fill="none" stroke="black" points="409.5,-248 541.5,-248 "/>
<text text-anchor="middle" x="475.5" y="-236" font-family="Helvetica,sans-Serif" font-size="10.00"> </text>
<polyline fill="none" stroke="black" points="409.5,-229 541.5,-229 "/>
<text text-anchor="start" x="417.5" y="-217" font-family="Helvetica,sans-Serif" font-size="10.00">+ FilteredAnalog()</text>
<text text-anchor="start" x="417.5" y="-206" font-family="Helvetica,sans-Serif" font-size="10.00">+ invert()</text>
</a>
</g>
</g>
<!-- Node6&#45;&gt;Node1 -->
<g id="edge5" class="edge">
<title>Node6&#45;&gt;Node1</title>
<path fill="none" stroke="#404040" d="M454.65,-198.75C447.77,-185.99 439.85,-171.26 431.91,-156.51"/>
<polygon fill="none" stroke="#404040" points="431.83,-156.35 425.46,-152.97 426.14,-145.79 432.5,-149.18 431.83,-156.35"/>
<text text-anchor="middle" x="477.5" y="-167" font-family="Helvetica,sans-Serif" font-size="10.00"> &#45;filteredAnalog</text>
</g>
<!-- Node7 -->
<g id="node7" class="node">
<title>Node7</title>
<g id="a_node7"><a xlink:href="../../da/d36/classAH_1_1GenericFilteredAnalog.html" target="_top" xlink:title=" ">
<polygon fill="white" stroke="black" points="380.5,-327 380.5,-593 604.5,-593 604.5,-327 380.5,-327"/>
<text text-anchor="start" x="388.5" y="-581" font-family="Helvetica,sans-Serif" font-size="10.00">GenericFilteredAnalog</text>
<text text-anchor="start" x="388.5" y="-570" font-family="Helvetica,sans-Serif" font-size="10.00">&lt; analog_t(*)(analog</text>
<text text-anchor="start" x="388.5" y="-559" font-family="Helvetica,sans-Serif" font-size="10.00">_t), Precision, ANALOG</text>
<text text-anchor="start" x="388.5" y="-548" font-family="Helvetica,sans-Serif" font-size="10.00">_FILTER_SHIFT_FACTOR, ANALOG</text>
<text text-anchor="start" x="388.5" y="-537" font-family="Helvetica,sans-Serif" font-size="10.00">_FILTER_TYPE, analog_t, MaximumFiltered</text>
<text text-anchor="start" x="388.5" y="-526" font-family="Helvetica,sans-Serif" font-size="10.00">AnalogIncRes&lt; ANALOG_FILTER_SHIFT</text>
<text text-anchor="start" x="388.5" y="-515" font-family="Helvetica,sans-Serif" font-size="10.00">_FACTOR, ANALOG_FILTER_TYPE, analog</text>
<text text-anchor="middle" x="492.5" y="-504" font-family="Helvetica,sans-Serif" font-size="10.00">_t &gt;::value &gt;</text>
<polyline fill="none" stroke="black" points="380.5,-497 604.5,-497 "/>
<text text-anchor="start" x="388.5" y="-485" font-family="Helvetica,sans-Serif" font-size="10.00">&#45; analogPin</text>
<polyline fill="none" stroke="black" points="380.5,-478 604.5,-478 "/>
<text text-anchor="start" x="388.5" y="-466" font-family="Helvetica,sans-Serif" font-size="10.00">+ GenericFilteredAnalog()</text>
<text text-anchor="start" x="388.5" y="-455" font-family="Helvetica,sans-Serif" font-size="10.00">+ reset()</text>
<text text-anchor="start" x="388.5" y="-444" font-family="Helvetica,sans-Serif" font-size="10.00">+ map()</text>
<text text-anchor="start" x="388.5" y="-433" font-family="Helvetica,sans-Serif" font-size="10.00">+ getMappingFunction()</text>
<text text-anchor="start" x="388.5" y="-422" font-family="Helvetica,sans-Serif" font-size="10.00">+ getMappingFunction()</text>
<text text-anchor="start" x="388.5" y="-411" font-family="Helvetica,sans-Serif" font-size="10.00">+ update()</text>
<text text-anchor="start" x="388.5" y="-400" font-family="Helvetica,sans-Serif" font-size="10.00">+ getValue()</text>
<text text-anchor="start" x="388.5" y="-389" font-family="Helvetica,sans-Serif" font-size="10.00">+ getFloatValue()</text>
<text text-anchor="start" x="388.5" y="-378" font-family="Helvetica,sans-Serif" font-size="10.00">+ getRawValue()</text>
<text text-anchor="start" x="388.5" y="-367" font-family="Helvetica,sans-Serif" font-size="10.00">+ getMaxRawValue()</text>
<text text-anchor="start" x="388.5" y="-356" font-family="Helvetica,sans-Serif" font-size="10.00">+ setupADC()</text>
<text text-anchor="start" x="388.5" y="-345" font-family="Helvetica,sans-Serif" font-size="10.00">&#45; mapFnHelper()</text>
<text text-anchor="start" x="388.5" y="-334" font-family="Helvetica,sans-Serif" font-size="10.00">&#45; mapFnHelper()</text>
</a>
</g>
</g>
<!-- Node7&#45;&gt;Node6 -->
<g id="edge6" class="edge">
<title>Node7&#45;&gt;Node6</title>
<path fill="none" stroke="midnightblue" d="M481.48,-316.67C480.4,-302.81 479.39,-289.71 478.51,-278.37"/>
<polygon fill="none" stroke="midnightblue" points="478.01,-317.18 482.27,-326.88 484.98,-316.64 478.01,-317.18"/>
</g>
<!-- Node8 -->
<g id="node8" class="node">
<title>Node8</title>
<g id="a_node8"><a xlink:href="../../d2/dcb/classHysteresis.html" target="_top" xlink:title=" ">
<polygon fill="white" stroke="black" points="446.5,-756.5 446.5,-846.5 574.5,-846.5 574.5,-756.5 446.5,-756.5"/>
<text text-anchor="start" x="454.5" y="-834.5" font-family="Helvetica,sans-Serif" font-size="10.00">Hysteresis&lt; ADC_BITS</text>
<text text-anchor="start" x="454.5" y="-823.5" font-family="Helvetica,sans-Serif" font-size="10.00">+IncRes &#45; Precision,</text>
<text text-anchor="middle" x="510.5" y="-812.5" font-family="Helvetica,sans-Serif" font-size="10.00"> analog_t, analog_t &gt;</text>
<polyline fill="none" stroke="black" points="446.5,-805.5 574.5,-805.5 "/>
<text text-anchor="middle" x="510.5" y="-793.5" font-family="Helvetica,sans-Serif" font-size="10.00"> </text>
<polyline fill="none" stroke="black" points="446.5,-786.5 574.5,-786.5 "/>
<text text-anchor="start" x="454.5" y="-774.5" font-family="Helvetica,sans-Serif" font-size="10.00">+ update()</text>
<text text-anchor="start" x="454.5" y="-763.5" font-family="Helvetica,sans-Serif" font-size="10.00">+ getValue()</text>
</a>
</g>
</g>
<!-- Node8&#45;&gt;Node7 -->
<g id="edge7" class="edge">
<title>Node8&#45;&gt;Node7</title>
<path fill="none" stroke="#404040" d="M508.17,-756.46C506.13,-718.02 503.05,-659.99 500.16,-605.52"/>
<polygon fill="none" stroke="#404040" points="500.15,-605.21 495.83,-599.43 499.51,-593.23 503.82,-599.01 500.15,-605.21"/>
<text text-anchor="middle" x="530.5" y="-620" font-family="Helvetica,sans-Serif" font-size="10.00"> &#45;hysteresis</text>
</g>
<!-- Node9 -->
<g id="node9" class="node">
<title>Node9</title>
<g id="a_node9"><a xlink:title=" ">
<polygon fill="white" stroke="#bfbfbf" points="374,-1048.5 374,-1105.5 433,-1105.5 433,-1048.5 374,-1048.5"/>
<text text-anchor="middle" x="403.5" y="-1093.5" font-family="Helvetica,sans-Serif" font-size="10.00">analog_t</text>
<polyline fill="none" stroke="#bfbfbf" points="374,-1086.5 433,-1086.5 "/>
<text text-anchor="middle" x="403.5" y="-1074.5" font-family="Helvetica,sans-Serif" font-size="10.00"> </text>
<polyline fill="none" stroke="#bfbfbf" points="374,-1067.5 433,-1067.5 "/>
<text text-anchor="middle" x="403.5" y="-1055.5" font-family="Helvetica,sans-Serif" font-size="10.00"> </text>
</a>
</g>
</g>
<!-- Node9&#45;&gt;Node7 -->
<g id="edge10" class="edge">
<title>Node9&#45;&gt;Node7</title>
<path fill="none" stroke="#404040" d="M398.28,-1048.3C386.28,-979.17 360.39,-793.97 396.5,-646 399.87,-632.2 404.46,-618.28 409.82,-604.61"/>
<polygon fill="none" stroke="#404040" points="409.95,-604.29 408.52,-597.22 414.5,-593.18 415.93,-600.25 409.95,-604.29"/>
<text text-anchor="middle" x="417" y="-799" font-family="Helvetica,sans-Serif" font-size="10.00"> &#45;mapFn</text>
</g>
<!-- Node9&#45;&gt;Node8 -->
<g id="edge8" class="edge">
<title>Node9&#45;&gt;Node8</title>
<path fill="none" stroke="#404040" d="M414.35,-1048.27C431.7,-1003.93 466.02,-916.19 488.61,-858.44"/>
<polygon fill="none" stroke="#404040" points="488.74,-858.13 487.2,-851.09 493.11,-846.96 494.65,-854 488.74,-858.13"/>
<text text-anchor="middle" x="467.5" y="-1022" font-family="Helvetica,sans-Serif" font-size="10.00"> &#45;margin</text>
<text text-anchor="middle" x="467.5" y="-1011" font-family="Helvetica,sans-Serif" font-size="10.00">&#45;max_in</text>
<text text-anchor="middle" x="467.5" y="-1000" font-family="Helvetica,sans-Serif" font-size="10.00">&#45;max_out</text>
<text text-anchor="middle" x="467.5" y="-989" font-family="Helvetica,sans-Serif" font-size="10.00">&#45;offset</text>
<text text-anchor="middle" x="467.5" y="-978" font-family="Helvetica,sans-Serif" font-size="10.00">&#45;prevLevel</text>
</g>
<!-- Node10 -->
<g id="node10" class="node">
<title>Node10</title>
<g id="a_node10"><a xlink:href="../../d7/d40/classEMA.html" target="_top" xlink:title=" ">
<polygon fill="white" stroke="black" points="593,-745.5 593,-857.5 732,-857.5 732,-745.5 593,-745.5"/>
<text text-anchor="start" x="601" y="-845.5" font-family="Helvetica,sans-Serif" font-size="10.00">EMA&lt; FilterShiftFactor,</text>
<text text-anchor="middle" x="662.5" y="-834.5" font-family="Helvetica,sans-Serif" font-size="10.00"> ANALOG_FILTER_TYPE &gt;</text>
<polyline fill="none" stroke="black" points="593,-827.5 732,-827.5 "/>
<text text-anchor="start" x="601" y="-815.5" font-family="Helvetica,sans-Serif" font-size="10.00">&#45; filtered</text>
<text text-anchor="start" x="601" y="-804.5" font-family="Helvetica,sans-Serif" font-size="10.00">&#45; fixedPointAHalf</text>
<polyline fill="none" stroke="black" points="593,-797.5 732,-797.5 "/>
<text text-anchor="start" x="601" y="-785.5" font-family="Helvetica,sans-Serif" font-size="10.00">+ EMA()</text>
<text text-anchor="start" x="601" y="-774.5" font-family="Helvetica,sans-Serif" font-size="10.00">+ reset()</text>
<text text-anchor="start" x="601" y="-763.5" font-family="Helvetica,sans-Serif" font-size="10.00">+ filter()</text>
<text text-anchor="start" x="601" y="-752.5" font-family="Helvetica,sans-Serif" font-size="10.00">+ operator()()</text>
</a>
</g>
</g>
<!-- Node10&#45;&gt;Node7 -->
<g id="edge9" class="edge">
<title>Node10&#45;&gt;Node7</title>
<path fill="none" stroke="#404040" d="M634.81,-745.2C615.61,-706.86 589.12,-653.95 564.19,-604.17"/>
<polygon fill="none" stroke="#404040" points="564.1,-603.99 557.84,-600.42 558.73,-593.26 564.99,-596.84 564.1,-603.99"/>
<text text-anchor="middle" x="587.5" y="-620" font-family="Helvetica,sans-Serif" font-size="10.00"> &#45;filter</text>
</g>
</g>
</svg>
