<?xml version="1.0" encoding="UTF-8" standalone="no"?>
<!DOCTYPE svg PUBLIC "-//W3C//DTD SVG 1.1//EN"
 "http://www.w3.org/Graphics/SVG/1.1/DTD/svg11.dtd">
<!-- Generated by graphviz version 2.43.0 (0)
 -->
<!-- Title: IncrementSelector&lt; N &gt; Pages: 1 -->
<svg width="884pt" height="1112pt"
 viewBox="0.00 0.00 884.00 1112.00" xmlns="http://www.w3.org/2000/svg" xmlns:xlink="http://www.w3.org/1999/xlink">
<g id="graph0" class="graph" transform="scale(1 1) rotate(0) translate(4 1108)">
<title>IncrementSelector&lt; N &gt;</title>
<!-- Node1 -->
<g id="Node000001" class="node">
<title>Node1</title>
<g id="a_Node000001"><a xlink:title="Selector with one button that increments the selection.">
<polygon fill="#999999" stroke="transparent" points="303.5,-64 173.5,-64 173.5,0 303.5,0 303.5,-64"/>
<text text-anchor="start" x="178.5" y="-52" font-family="Helvetica,sans-Serif" font-size="10.00">IncrementSelector&lt; N &gt;</text>
<text text-anchor="start" x="236.5" y="-37" font-family="Helvetica,sans-Serif" font-size="10.00"> </text>
<text text-anchor="start" x="180.5" y="-22" font-family="Helvetica,sans-Serif" font-size="10.00">+</text>
<text text-anchor="start" x="196.5" y="-22" font-family="Helvetica,sans-Serif" font-size="10.00">IncrementSelector()</text>
<text text-anchor="start" x="180.5" y="-7" font-family="Helvetica,sans-Serif" font-size="10.00">+</text>
<text text-anchor="start" x="196.5" y="-7" font-family="Helvetica,sans-Serif" font-size="10.00">IncrementSelector()</text>
<polygon fill="#666666" stroke="#666666" points="173.5,-47 173.5,-47 303.5,-47 303.5,-47 173.5,-47"/>
<polygon fill="#666666" stroke="#666666" points="173.5,-32 173.5,-32 303.5,-32 303.5,-32 173.5,-32"/>
<polygon fill="none" stroke="#666666" points="173.5,0 173.5,-64 303.5,-64 303.5,0 173.5,0"/>
</a>
</g>
</g>
<!-- Node2 -->
<g id="Node000002" class="node">
<title>Node2</title>
<g id="a_Node000002"><a xlink:href="../../d1/d94/classGenericIncrementSelector.html" target="_top" xlink:title=" ">
<polygon fill="white" stroke="transparent" points="316.5,-221 160.5,-221 160.5,-101 316.5,-101 316.5,-221"/>
<text text-anchor="start" x="175" y="-209" font-family="Helvetica,sans-Serif" font-size="10.00">GenericIncrementSelector</text>
<text text-anchor="start" x="199" y="-198" font-family="Helvetica,sans-Serif" font-size="10.00">&lt; N, Callback &gt;</text>
<text text-anchor="start" x="236.5" y="-183" font-family="Helvetica,sans-Serif" font-size="10.00"> </text>
<text text-anchor="start" x="164.5" y="-168" font-family="Helvetica,sans-Serif" font-size="10.00">+</text>
<text text-anchor="start" x="177.5" y="-168" font-family="Helvetica,sans-Serif" font-size="10.00">GenericIncrementSelector()</text>
<text text-anchor="start" x="164.5" y="-153" font-family="Helvetica,sans-Serif" font-size="10.00">+</text>
<text text-anchor="start" x="177.5" y="-153" font-family="Helvetica,sans-Serif" font-size="10.00">begin()</text>
<text text-anchor="start" x="164.5" y="-138" font-family="Helvetica,sans-Serif" font-size="10.00">+</text>
<text text-anchor="start" x="177.5" y="-138" font-family="Helvetica,sans-Serif" font-size="10.00">update()</text>
<text text-anchor="start" x="164.5" y="-123" font-family="Helvetica,sans-Serif" font-size="10.00">+</text>
<text text-anchor="start" x="177.5" y="-123" font-family="Helvetica,sans-Serif" font-size="10.00">getButtonState()</text>
<text text-anchor="start" x="164.5" y="-108" font-family="Helvetica,sans-Serif" font-size="10.00">+</text>
<text text-anchor="start" x="177.5" y="-108" font-family="Helvetica,sans-Serif" font-size="10.00">invert()</text>
<polygon fill="#666666" stroke="#666666" points="160.5,-193 160.5,-193 316.5,-193 316.5,-193 160.5,-193"/>
<polygon fill="#666666" stroke="#666666" points="160.5,-178 160.5,-178 316.5,-178 316.5,-178 160.5,-178"/>
<polygon fill="none" stroke="#666666" points="160.5,-101 160.5,-221 316.5,-221 316.5,-101 160.5,-101"/>
</a>
</g>
</g>
<!-- Node2&#45;&gt;Node1 -->
<g id="edge1_Node000001_Node000002" class="edge">
<title>Node2&#45;&gt;Node1</title>
<g id="a_edge1_Node000001_Node000002"><a xlink:title=" ">
<path fill="none" stroke="#63b8ff" d="M238.5,-90.83C238.5,-81.52 238.5,-72.37 238.5,-64.2"/>
<polygon fill="none" stroke="#63b8ff" points="235,-90.96 238.5,-100.96 242,-90.96 235,-90.96"/>
</a>
</g>
</g>
<!-- Node3 -->
<g id="Node000003" class="node">
<title>Node3</title>
<g id="a_Node000003"><a xlink:href="../../d0/d04/classGenericSelector.html" target="_top" xlink:title=" ">
<polygon fill="white" stroke="transparent" points="398.5,-589 260.5,-589 260.5,-274 398.5,-274 398.5,-589"/>
<text text-anchor="start" x="265.5" y="-576.5" font-family="Helvetica,sans-Serif" font-size="10.00">GenericSelector&lt; N,</text>
<text text-anchor="start" x="265.5" y="-565.5" font-family="Helvetica,sans-Serif" font-size="10.00"> EmptySelectorCallback &gt;</text>
<text text-anchor="start" x="272.5" y="-550.5" font-family="Helvetica,sans-Serif" font-size="10.00">#</text>
<text text-anchor="start" x="293.5" y="-550.5" font-family="Helvetica,sans-Serif" font-size="10.00">setting</text>
<text text-anchor="start" x="272.5" y="-535.5" font-family="Helvetica,sans-Serif" font-size="10.00">#</text>
<text text-anchor="start" x="293.5" y="-535.5" font-family="Helvetica,sans-Serif" font-size="10.00">next</text>
<text text-anchor="start" x="272.5" y="-520.5" font-family="Helvetica,sans-Serif" font-size="10.00">#</text>
<text text-anchor="start" x="293.5" y="-520.5" font-family="Helvetica,sans-Serif" font-size="10.00">previous</text>
<text text-anchor="start" x="272.5" y="-505.5" font-family="Helvetica,sans-Serif" font-size="10.00">#</text>
<text text-anchor="start" x="293.5" y="-505.5" font-family="Helvetica,sans-Serif" font-size="10.00">updatables</text>
<text text-anchor="start" x="275" y="-490.5" font-family="Helvetica,sans-Serif" font-size="10.00">&#45;</text>
<text text-anchor="start" x="293.5" y="-490.5" font-family="Helvetica,sans-Serif" font-size="10.00">selectable</text>
<text text-anchor="start" x="272.5" y="-475.5" font-family="Helvetica,sans-Serif" font-size="10.00">+</text>
<text text-anchor="start" x="293.5" y="-475.5" font-family="Helvetica,sans-Serif" font-size="10.00">GenericSelector()</text>
<text text-anchor="start" x="272.5" y="-460.5" font-family="Helvetica,sans-Serif" font-size="10.00">+</text>
<text text-anchor="start" x="293.5" y="-460.5" font-family="Helvetica,sans-Serif" font-size="10.00">begin()</text>
<text text-anchor="start" x="272.5" y="-445.5" font-family="Helvetica,sans-Serif" font-size="10.00">+</text>
<text text-anchor="start" x="293.5" y="-445.5" font-family="Helvetica,sans-Serif" font-size="10.00">update()</text>
<text text-anchor="start" x="272.5" y="-430.5" font-family="Helvetica,sans-Serif" font-size="10.00">+</text>
<text text-anchor="start" x="293.5" y="-430.5" font-family="Helvetica,sans-Serif" font-size="10.00">reset()</text>
<text text-anchor="start" x="272.5" y="-415.5" font-family="Helvetica,sans-Serif" font-size="10.00">+</text>
<text text-anchor="start" x="293.5" y="-415.5" font-family="Helvetica,sans-Serif" font-size="10.00">set()</text>
<text text-anchor="start" x="272.5" y="-400.5" font-family="Helvetica,sans-Serif" font-size="10.00">+</text>
<text text-anchor="start" x="293.5" y="-400.5" font-family="Helvetica,sans-Serif" font-size="10.00">increment()</text>
<text text-anchor="start" x="272.5" y="-385.5" font-family="Helvetica,sans-Serif" font-size="10.00">+</text>
<text text-anchor="start" x="293.5" y="-385.5" font-family="Helvetica,sans-Serif" font-size="10.00">decrement()</text>
<text text-anchor="start" x="272.5" y="-370.5" font-family="Helvetica,sans-Serif" font-size="10.00">+</text>
<text text-anchor="start" x="293.5" y="-370.5" font-family="Helvetica,sans-Serif" font-size="10.00">get()</text>
<text text-anchor="start" x="274" y="-355.5" font-family="Helvetica,sans-Serif" font-size="10.00">*</text>
<text text-anchor="start" x="293.5" y="-355.5" font-family="Helvetica,sans-Serif" font-size="10.00">enable()</text>
<text text-anchor="start" x="274" y="-340.5" font-family="Helvetica,sans-Serif" font-size="10.00">*</text>
<text text-anchor="start" x="293.5" y="-340.5" font-family="Helvetica,sans-Serif" font-size="10.00">disable()</text>
<text text-anchor="start" x="274" y="-325.5" font-family="Helvetica,sans-Serif" font-size="10.00">*</text>
<text text-anchor="start" x="293.5" y="-325.5" font-family="Helvetica,sans-Serif" font-size="10.00">isEnabled()</text>
<text text-anchor="start" x="274" y="-310.5" font-family="Helvetica,sans-Serif" font-size="10.00">*</text>
<text text-anchor="start" x="293.5" y="-310.5" font-family="Helvetica,sans-Serif" font-size="10.00">moveDown()</text>
<text text-anchor="start" x="274" y="-295.5" font-family="Helvetica,sans-Serif" font-size="10.00">*</text>
<text text-anchor="start" x="293.5" y="-295.5" font-family="Helvetica,sans-Serif" font-size="10.00">beginAll()</text>
<text text-anchor="start" x="274" y="-280.5" font-family="Helvetica,sans-Serif" font-size="10.00">*</text>
<text text-anchor="start" x="293.5" y="-280.5" font-family="Helvetica,sans-Serif" font-size="10.00">updateAll()</text>
<polygon fill="#666666" stroke="#666666" points="260.5,-560.5 260.5,-560.5 398.5,-560.5 398.5,-560.5 260.5,-560.5"/>
<polygon fill="#666666" stroke="#666666" points="260.5,-485.5 260.5,-485.5 291.5,-485.5 291.5,-485.5 260.5,-485.5"/>
<polygon fill="#666666" stroke="#666666" points="291.5,-485.5 291.5,-485.5 398.5,-485.5 398.5,-485.5 291.5,-485.5"/>
<polygon fill="none" stroke="#666666" points="260.5,-274 260.5,-589 398.5,-589 398.5,-274 260.5,-274"/>
</a>
</g>
</g>
<!-- Node3&#45;&gt;Node2 -->
<g id="edge2_Node000002_Node000003" class="edge">
<title>Node3&#45;&gt;Node2</title>
<g id="a_edge2_Node000002_Node000003"><a xlink:title=" ">
<path fill="none" stroke="#63b8ff" d="M273.2,-264.37C268.03,-249.14 263.07,-234.49 258.59,-221.27"/>
<polygon fill="none" stroke="#63b8ff" points="269.91,-265.58 276.43,-273.92 276.54,-263.33 269.91,-265.58"/>
</a>
</g>
</g>
<!-- Node4 -->
<g id="Node000004" class="node">
<title>Node4</title>
<g id="a_Node000004"><a xlink:href="../../dc/d77/classSelectorBase.html" target="_top" xlink:title="Base class for all Selectors exposing the get method, so it can be used by display elements etc,...">
<polygon fill="white" stroke="transparent" points="527,-803.5 434,-803.5 434,-739.5 527,-739.5 527,-803.5"/>
<text text-anchor="start" x="449" y="-791.5" font-family="Helvetica,sans-Serif" font-size="10.00">SelectorBase</text>
<text text-anchor="start" x="438.5" y="-776.5" font-family="Helvetica,sans-Serif" font-size="10.00">#</text>
<text text-anchor="start" x="451.5" y="-776.5" font-family="Helvetica,sans-Serif" font-size="10.00">setting</text>
<text text-anchor="start" x="438.5" y="-761.5" font-family="Helvetica,sans-Serif" font-size="10.00">+</text>
<text text-anchor="start" x="451.5" y="-761.5" font-family="Helvetica,sans-Serif" font-size="10.00">get()</text>
<text text-anchor="start" x="438.5" y="-746.5" font-family="Helvetica,sans-Serif" font-size="10.00">#</text>
<text text-anchor="start" x="451.5" y="-746.5" font-family="Helvetica,sans-Serif" font-size="10.00">SelectorBase()</text>
<polygon fill="#666666" stroke="#666666" points="434.5,-786.5 434.5,-786.5 527.5,-786.5 527.5,-786.5 434.5,-786.5"/>
<polygon fill="#666666" stroke="#666666" points="434.5,-771.5 434.5,-771.5 449.5,-771.5 449.5,-771.5 434.5,-771.5"/>
<polygon fill="#666666" stroke="#666666" points="449.5,-771.5 449.5,-771.5 527.5,-771.5 527.5,-771.5 449.5,-771.5"/>
<polygon fill="none" stroke="#666666" points="434,-739.5 434,-803.5 527,-803.5 527,-739.5 434,-739.5"/>
</a>
</g>
</g>
<!-- Node4&#45;&gt;Node3 -->
<g id="edge3_Node000003_Node000004" class="edge">
<title>Node4&#45;&gt;Node3</title>
<g id="a_edge3_Node000003_Node000004"><a xlink:title=" ">
<path fill="none" stroke="#63b8ff" d="M462.28,-729.72C446.29,-693.92 421.98,-639.5 398.51,-586.97"/>
<polygon fill="none" stroke="#63b8ff" points="459.29,-731.6 466.56,-739.31 465.68,-728.75 459.29,-731.6"/>
</a>
</g>
</g>
<!-- Node5 -->
<g id="Node000005" class="node">
<title>Node5</title>
<g id="a_Node000005"><a xlink:href="../../d1/d55/classAH_1_1Updatable.html" target="_top" xlink:title="A super class for object that have to be updated regularly.">
<polygon fill="white" stroke="transparent" points="274,-818.5 185,-818.5 185,-724.5 274,-724.5 274,-818.5"/>
<text text-anchor="start" x="190.5" y="-806.5" font-family="Helvetica,sans-Serif" font-size="10.00">Updatable&lt; T &gt;</text>
<text text-anchor="start" x="228" y="-791.5" font-family="Helvetica,sans-Serif" font-size="10.00"> </text>
<text text-anchor="start" x="193.5" y="-776.5" font-family="Helvetica,sans-Serif" font-size="10.00">*</text>
<text text-anchor="start" x="207.5" y="-776.5" font-family="Helvetica,sans-Serif" font-size="10.00">begin()</text>
<text text-anchor="start" x="193.5" y="-761.5" font-family="Helvetica,sans-Serif" font-size="10.00">*</text>
<text text-anchor="start" x="207.5" y="-761.5" font-family="Helvetica,sans-Serif" font-size="10.00">update()</text>
<text text-anchor="start" x="193.5" y="-746.5" font-family="Helvetica,sans-Serif" font-size="10.00">*</text>
<text text-anchor="start" x="207.5" y="-746.5" font-family="Helvetica,sans-Serif" font-size="10.00">beginAll()</text>
<text text-anchor="start" x="193.5" y="-731.5" font-family="Helvetica,sans-Serif" font-size="10.00">*</text>
<text text-anchor="start" x="207.5" y="-731.5" font-family="Helvetica,sans-Serif" font-size="10.00">updateAll()</text>
<polygon fill="#666666" stroke="#666666" points="185.5,-801.5 185.5,-801.5 274.5,-801.5 274.5,-801.5 185.5,-801.5"/>
<polygon fill="#666666" stroke="#666666" points="185.5,-786.5 185.5,-786.5 274.5,-786.5 274.5,-786.5 185.5,-786.5"/>
<polygon fill="none" stroke="#666666" points="185,-724.5 185,-818.5 274,-818.5 274,-724.5 185,-724.5"/>
</a>
</g>
</g>
<!-- Node5&#45;&gt;Node3 -->
<g id="edge4_Node000003_Node000005" class="edge">
<title>Node5&#45;&gt;Node3</title>
<g id="a_edge4_Node000003_Node000005"><a xlink:title=" ">
<path fill="none" stroke="#63b8ff" d="M246.11,-714.37C256.28,-679.97 269.86,-634.08 283.1,-589.34"/>
<polygon fill="none" stroke="#63b8ff" points="242.68,-713.63 243.19,-724.21 249.39,-715.62 242.68,-713.63"/>
</a>
</g>
</g>
<!-- Node6 -->
<g id="Node000006" class="node">
<title>Node6</title>
<g id="a_Node000006"><a xlink:href="../../d8/d1a/classAH_1_1UpdatableCRTP.html" target="_top" xlink:title=" ">
<polygon fill="white" stroke="transparent" points="687,-1104 540,-1104 540,-939 687,-939 687,-1104"/>
<text text-anchor="start" x="545.5" y="-1091.5" font-family="Helvetica,sans-Serif" font-size="10.00">UpdatableCRTP&lt; Updatable</text>
<text text-anchor="start" x="553.5" y="-1080.5" font-family="Helvetica,sans-Serif" font-size="10.00">&lt; NormalUpdatable &gt; &gt;</text>
<text text-anchor="start" x="553" y="-1065.5" font-family="Helvetica,sans-Serif" font-size="10.00">#</text>
<text text-anchor="start" x="574.5" y="-1065.5" font-family="Helvetica,sans-Serif" font-size="10.00">next</text>
<text text-anchor="start" x="553" y="-1050.5" font-family="Helvetica,sans-Serif" font-size="10.00">#</text>
<text text-anchor="start" x="574.5" y="-1050.5" font-family="Helvetica,sans-Serif" font-size="10.00">previous</text>
<text text-anchor="start" x="553" y="-1035.5" font-family="Helvetica,sans-Serif" font-size="10.00">+</text>
<text text-anchor="start" x="574.5" y="-1035.5" font-family="Helvetica,sans-Serif" font-size="10.00">~UpdatableCRTP()</text>
<text text-anchor="start" x="553" y="-1020.5" font-family="Helvetica,sans-Serif" font-size="10.00">#</text>
<text text-anchor="start" x="574.5" y="-1020.5" font-family="Helvetica,sans-Serif" font-size="10.00">UpdatableCRTP()</text>
<text text-anchor="start" x="553" y="-1005.5" font-family="Helvetica,sans-Serif" font-size="10.00">#</text>
<text text-anchor="start" x="574.5" y="-1005.5" font-family="Helvetica,sans-Serif" font-size="10.00">operator=()</text>
<text text-anchor="start" x="554.5" y="-990.5" font-family="Helvetica,sans-Serif" font-size="10.00">*</text>
<text text-anchor="start" x="574.5" y="-990.5" font-family="Helvetica,sans-Serif" font-size="10.00">enable()</text>
<text text-anchor="start" x="554.5" y="-975.5" font-family="Helvetica,sans-Serif" font-size="10.00">*</text>
<text text-anchor="start" x="574.5" y="-975.5" font-family="Helvetica,sans-Serif" font-size="10.00">disable()</text>
<text text-anchor="start" x="554.5" y="-960.5" font-family="Helvetica,sans-Serif" font-size="10.00">*</text>
<text text-anchor="start" x="574.5" y="-960.5" font-family="Helvetica,sans-Serif" font-size="10.00">isEnabled()</text>
<text text-anchor="start" x="554.5" y="-945.5" font-family="Helvetica,sans-Serif" font-size="10.00">*</text>
<text text-anchor="start" x="574.5" y="-945.5" font-family="Helvetica,sans-Serif" font-size="10.00">moveDown()</text>
<polygon fill="#666666" stroke="#666666" points="540.5,-1075.5 540.5,-1075.5 687.5,-1075.5 687.5,-1075.5 540.5,-1075.5"/>
<polygon fill="#666666" stroke="#666666" points="540.5,-1045.5 540.5,-1045.5 572.5,-1045.5 572.5,-1045.5 540.5,-1045.5"/>
<polygon fill="#666666" stroke="#666666" points="572.5,-1045.5 572.5,-1045.5 687.5,-1045.5 687.5,-1045.5 572.5,-1045.5"/>
<polygon fill="none" stroke="#666666" points="540,-939 540,-1104 687,-1104 687,-939 540,-939"/>
</a>
</g>
</g>
<!-- Node6&#45;&gt;Node5 -->
<g id="edge5_Node000005_Node000006" class="edge">
<title>Node6&#45;&gt;Node5</title>
<g id="a_edge5_Node000005_Node000006"><a xlink:title=" ">
<path fill="none" stroke="#63b8ff" d="M529.69,-1004.55C456.49,-986.78 351.42,-951.5 282.5,-886 263.43,-867.87 250.54,-841.52 242.26,-818.78"/>
<polygon fill="none" stroke="#63b8ff" points="529.27,-1008.05 539.81,-1006.94 530.88,-1001.24 529.27,-1008.05"/>
</a>
</g>
</g>
<!-- Node8 -->
<g id="Node000008" class="node">
<title>Node8</title>
<g id="a_Node000008"><a xlink:href="../../d1/d55/classAH_1_1Updatable.html" target="_top" xlink:title=" ">
<polygon fill="white" stroke="transparent" points="820.5,-863.5 650.5,-863.5 650.5,-679.5 820.5,-679.5 820.5,-863.5"/>
<text text-anchor="start" x="655.5" y="-851.5" font-family="Helvetica,sans-Serif" font-size="10.00">Updatable&lt; NormalUpdatable &gt;</text>
<text text-anchor="start" x="675.5" y="-836.5" font-family="Helvetica,sans-Serif" font-size="10.00">#</text>
<text text-anchor="start" x="709.5" y="-836.5" font-family="Helvetica,sans-Serif" font-size="10.00">next</text>
<text text-anchor="start" x="675.5" y="-821.5" font-family="Helvetica,sans-Serif" font-size="10.00">#</text>
<text text-anchor="start" x="709.5" y="-821.5" font-family="Helvetica,sans-Serif" font-size="10.00">previous</text>
<text text-anchor="start" x="675.5" y="-806.5" font-family="Helvetica,sans-Serif" font-size="10.00">#</text>
<text text-anchor="start" x="709.5" y="-806.5" font-family="Helvetica,sans-Serif" font-size="10.00">updatables</text>
<text text-anchor="start" x="677" y="-791.5" font-family="Helvetica,sans-Serif" font-size="10.00">*</text>
<text text-anchor="start" x="709.5" y="-791.5" font-family="Helvetica,sans-Serif" font-size="10.00">begin()</text>
<text text-anchor="start" x="677" y="-776.5" font-family="Helvetica,sans-Serif" font-size="10.00">*</text>
<text text-anchor="start" x="709.5" y="-776.5" font-family="Helvetica,sans-Serif" font-size="10.00">update()</text>
<text text-anchor="start" x="677" y="-761.5" font-family="Helvetica,sans-Serif" font-size="10.00">*</text>
<text text-anchor="start" x="709.5" y="-761.5" font-family="Helvetica,sans-Serif" font-size="10.00">beginAll()</text>
<text text-anchor="start" x="677" y="-746.5" font-family="Helvetica,sans-Serif" font-size="10.00">*</text>
<text text-anchor="start" x="709.5" y="-746.5" font-family="Helvetica,sans-Serif" font-size="10.00">updateAll()</text>
<text text-anchor="start" x="677" y="-731.5" font-family="Helvetica,sans-Serif" font-size="10.00">*</text>
<text text-anchor="start" x="709.5" y="-731.5" font-family="Helvetica,sans-Serif" font-size="10.00">enable()</text>
<text text-anchor="start" x="677" y="-716.5" font-family="Helvetica,sans-Serif" font-size="10.00">*</text>
<text text-anchor="start" x="709.5" y="-716.5" font-family="Helvetica,sans-Serif" font-size="10.00">disable()</text>
<text text-anchor="start" x="677" y="-701.5" font-family="Helvetica,sans-Serif" font-size="10.00">*</text>
<text text-anchor="start" x="709.5" y="-701.5" font-family="Helvetica,sans-Serif" font-size="10.00">isEnabled()</text>
<text text-anchor="start" x="677" y="-686.5" font-family="Helvetica,sans-Serif" font-size="10.00">*</text>
<text text-anchor="start" x="709.5" y="-686.5" font-family="Helvetica,sans-Serif" font-size="10.00">moveDown()</text>
<polygon fill="#666666" stroke="#666666" points="650.5,-846.5 650.5,-846.5 820.5,-846.5 820.5,-846.5 650.5,-846.5"/>
<polygon fill="#666666" stroke="#666666" points="650.5,-801.5 650.5,-801.5 707.5,-801.5 707.5,-801.5 650.5,-801.5"/>
<polygon fill="#666666" stroke="#666666" points="707.5,-801.5 707.5,-801.5 820.5,-801.5 820.5,-801.5 707.5,-801.5"/>
<polygon fill="none" stroke="#666666" points="650.5,-679.5 650.5,-863.5 820.5,-863.5 820.5,-679.5 650.5,-679.5"/>
</a>
</g>
</g>
<!-- Node6&#45;&gt;Node8 -->
<g id="edge8_Node000008_Node000006" class="edge">
<title>Node6&#45;&gt;Node8</title>
<g id="a_edge8_Node000008_Node000006"><a xlink:title=" ">
<path fill="none" stroke="#63b8ff" d="M658.12,-929.79C668.75,-908.19 680.09,-885.14 690.72,-863.53"/>
<polygon fill="none" stroke="#63b8ff" points="654.89,-928.43 653.62,-938.95 661.17,-931.52 654.89,-928.43"/>
</a>
</g>
</g>
<!-- Node7 -->
<g id="Node000007" class="node">
<title>Node7</title>
<g id="a_Node000007"><a xlink:href="../../d4/d23/classDoublyLinkable.html" target="_top" xlink:title=" ">
<polygon fill="white" stroke="transparent" points="876,-476.5 729,-476.5 729,-386.5 876,-386.5 876,-476.5"/>
<text text-anchor="start" x="734.5" y="-464.5" font-family="Helvetica,sans-Serif" font-size="10.00">DoublyLinkable&lt; Updatable</text>
<text text-anchor="start" x="742.5" y="-453.5" font-family="Helvetica,sans-Serif" font-size="10.00">&lt; NormalUpdatable &gt; &gt;</text>
<text text-anchor="start" x="801" y="-438.5" font-family="Helvetica,sans-Serif" font-size="10.00"> </text>
<text text-anchor="start" x="742" y="-423.5" font-family="Helvetica,sans-Serif" font-size="10.00">#</text>
<text text-anchor="start" x="763.5" y="-423.5" font-family="Helvetica,sans-Serif" font-size="10.00">~DoublyLinkable()</text>
<text text-anchor="start" x="742" y="-408.5" font-family="Helvetica,sans-Serif" font-size="10.00">#</text>
<text text-anchor="start" x="763.5" y="-408.5" font-family="Helvetica,sans-Serif" font-size="10.00">DoublyLinkable()</text>
<text text-anchor="start" x="742" y="-393.5" font-family="Helvetica,sans-Serif" font-size="10.00">#</text>
<text text-anchor="start" x="763.5" y="-393.5" font-family="Helvetica,sans-Serif" font-size="10.00">operator=()</text>
<polygon fill="#666666" stroke="#666666" points="729.5,-448.5 729.5,-448.5 876.5,-448.5 876.5,-448.5 729.5,-448.5"/>
<polygon fill="#666666" stroke="#666666" points="729.5,-433.5 729.5,-433.5 876.5,-433.5 876.5,-433.5 729.5,-433.5"/>
<polygon fill="none" stroke="#666666" points="729,-386.5 729,-476.5 876,-476.5 876,-386.5 729,-386.5"/>
</a>
</g>
</g>
<!-- Node7&#45;&gt;Node6 -->
<g id="edge6_Node000006_Node000007" class="edge">
<title>Node7&#45;&gt;Node6</title>
<g id="a_edge6_Node000006_Node000007"><a xlink:title=" ">
<path fill="none" stroke="#63b8ff" d="M823.18,-486.18C853.94,-575.47 900.92,-757.4 829.5,-886 799.31,-940.36 737.03,-975.6 687.06,-996.32"/>
<polygon fill="none" stroke="#63b8ff" points="826.41,-484.81 819.79,-476.54 819.8,-487.13 826.41,-484.81"/>
</a>
</g>
</g>
<!-- Node8&#45;&gt;Node7 -->
<g id="edge7_Node000007_Node000008" class="edge">
<title>Node8&#45;&gt;Node7</title>
<g id="a_edge7_Node000007_Node000008"><a xlink:title=" ">
<path fill="none" stroke="#63b8ff" d="M753.54,-679.48C765.6,-618.66 781.08,-540.58 791.37,-488.66"/>
<polygon fill="none" stroke="#63b8ff" points="791.41,-488.47 788.65,-481.81 793.74,-476.7 796.5,-483.36 791.41,-488.47"/>
</a>
</g>
<text text-anchor="start" x="770" y="-628" font-family="Helvetica,sans-Serif" font-size="10.00" fill="grey">#next</text>
<text text-anchor="start" x="770" y="-613" font-family="Helvetica,sans-Serif" font-size="10.00" fill="grey">#previous</text>
</g>
<!-- Node9 -->
<g id="Node000009" class="node">
<title>Node9</title>
<g id="a_Node000009"><a xlink:href="../../dd/d16/classDoublyLinkedList.html" target="_top" xlink:title=" ">
<polygon fill="white" stroke="transparent" points="676,-544 521,-544 521,-319 676,-319 676,-544"/>
<text text-anchor="start" x="526.5" y="-531.5" font-family="Helvetica,sans-Serif" font-size="10.00">DoublyLinkedList&lt; Updatable</text>
<text text-anchor="start" x="538.5" y="-520.5" font-family="Helvetica,sans-Serif" font-size="10.00">&lt; NormalUpdatable &gt; &gt;</text>
<text text-anchor="start" x="597" y="-505.5" font-family="Helvetica,sans-Serif" font-size="10.00"> </text>
<text text-anchor="start" x="541" y="-490.5" font-family="Helvetica,sans-Serif" font-size="10.00">+</text>
<text text-anchor="start" x="569.5" y="-490.5" font-family="Helvetica,sans-Serif" font-size="10.00">append()</text>
<text text-anchor="start" x="541" y="-475.5" font-family="Helvetica,sans-Serif" font-size="10.00">+</text>
<text text-anchor="start" x="569.5" y="-475.5" font-family="Helvetica,sans-Serif" font-size="10.00">insertBefore()</text>
<text text-anchor="start" x="541" y="-460.5" font-family="Helvetica,sans-Serif" font-size="10.00">+</text>
<text text-anchor="start" x="569.5" y="-460.5" font-family="Helvetica,sans-Serif" font-size="10.00">insertSorted()</text>
<text text-anchor="start" x="541" y="-445.5" font-family="Helvetica,sans-Serif" font-size="10.00">+</text>
<text text-anchor="start" x="569.5" y="-445.5" font-family="Helvetica,sans-Serif" font-size="10.00">remove()</text>
<text text-anchor="start" x="541" y="-430.5" font-family="Helvetica,sans-Serif" font-size="10.00">+</text>
<text text-anchor="start" x="569.5" y="-430.5" font-family="Helvetica,sans-Serif" font-size="10.00">moveDown()</text>
<text text-anchor="start" x="541" y="-415.5" font-family="Helvetica,sans-Serif" font-size="10.00">+</text>
<text text-anchor="start" x="569.5" y="-415.5" font-family="Helvetica,sans-Serif" font-size="10.00">couldContain()</text>
<text text-anchor="start" x="541" y="-400.5" font-family="Helvetica,sans-Serif" font-size="10.00">+</text>
<text text-anchor="start" x="569.5" y="-400.5" font-family="Helvetica,sans-Serif" font-size="10.00">begin()</text>
<text text-anchor="start" x="541" y="-385.5" font-family="Helvetica,sans-Serif" font-size="10.00">+</text>
<text text-anchor="start" x="569.5" y="-385.5" font-family="Helvetica,sans-Serif" font-size="10.00">end()</text>
<text text-anchor="start" x="541" y="-370.5" font-family="Helvetica,sans-Serif" font-size="10.00">+</text>
<text text-anchor="start" x="569.5" y="-370.5" font-family="Helvetica,sans-Serif" font-size="10.00">rbegin()</text>
<text text-anchor="start" x="541" y="-355.5" font-family="Helvetica,sans-Serif" font-size="10.00">+</text>
<text text-anchor="start" x="569.5" y="-355.5" font-family="Helvetica,sans-Serif" font-size="10.00">rend()</text>
<text text-anchor="start" x="541" y="-340.5" font-family="Helvetica,sans-Serif" font-size="10.00">+</text>
<text text-anchor="start" x="569.5" y="-340.5" font-family="Helvetica,sans-Serif" font-size="10.00">getFirst()</text>
<text text-anchor="start" x="541" y="-325.5" font-family="Helvetica,sans-Serif" font-size="10.00">+</text>
<text text-anchor="start" x="569.5" y="-325.5" font-family="Helvetica,sans-Serif" font-size="10.00">getLast()</text>
<polygon fill="#666666" stroke="#666666" points="521.5,-515.5 521.5,-515.5 676.5,-515.5 676.5,-515.5 521.5,-515.5"/>
<polygon fill="#666666" stroke="#666666" points="521.5,-500.5 521.5,-500.5 676.5,-500.5 676.5,-500.5 521.5,-500.5"/>
<polygon fill="none" stroke="#666666" points="521,-319 521,-544 676,-544 676,-319 521,-319"/>
</a>
</g>
</g>
<!-- Node8&#45;&gt;Node9 -->
<g id="edge10_Node000009_Node000008" class="edge">
<title>Node8&#45;&gt;Node9</title>
<g id="a_edge10_Node000009_Node000008"><a xlink:title=" ">
<path fill="none" stroke="#63b8ff" d="M698.61,-679.48C683.14,-641.33 664.93,-596.39 648.3,-555.37"/>
<polygon fill="none" stroke="#63b8ff" points="648.28,-555.32 642.32,-551.26 643.77,-544.2 649.74,-548.26 648.28,-555.32"/>
</a>
</g>
<text text-anchor="start" x="682" y="-628" font-family="Helvetica,sans-Serif" font-size="10.00" fill="grey">&#45;first</text>
<text text-anchor="start" x="682" y="-613" font-family="Helvetica,sans-Serif" font-size="10.00" fill="grey">&#45;last</text>
</g>
<!-- Node9&#45;&gt;Node6 -->
<g id="edge9_Node000006_Node000009" class="edge">
<title>Node9&#45;&gt;Node6</title>
<g id="a_edge9_Node000006_Node000009"><a xlink:title=" ">
<path fill="none" stroke="#63b8ff" d="M579.4,-544.43C566.71,-636.57 555.27,-770.36 572.5,-886 574.5,-899.45 577.58,-913.41 581.16,-927.02"/>
<polygon fill="none" stroke="#63b8ff" points="581.24,-927.31 586.68,-932.03 584.42,-938.88 578.97,-934.15 581.24,-927.31"/>
</a>
</g>
<text text-anchor="start" x="576" y="-768.5" font-family="Helvetica,sans-Serif" font-size="10.00" fill="grey">#updatables</text>
</g>
<!-- Node10 -->
<g id="Node000010" class="node">
<title>Node10</title>
<g id="a_Node000010"><a xlink:href="../../d3/d8b/structEmptySelectorCallback.html" target="_top" xlink:title="A callback for the GenericSelector class that does nothing.">
<polygon fill="white" stroke="transparent" points="415.5,-811 291.5,-811 291.5,-732 415.5,-732 415.5,-811"/>
<text text-anchor="start" x="296.5" y="-798.5" font-family="Helvetica,sans-Serif" font-size="10.00">EmptySelectorCallback</text>
<text text-anchor="start" x="351.5" y="-783.5" font-family="Helvetica,sans-Serif" font-size="10.00"> </text>
<text text-anchor="start" x="310.5" y="-768.5" font-family="Helvetica,sans-Serif" font-size="10.00">+</text>
<text text-anchor="start" x="338.5" y="-768.5" font-family="Helvetica,sans-Serif" font-size="10.00">begin()</text>
<text text-anchor="start" x="310.5" y="-753.5" font-family="Helvetica,sans-Serif" font-size="10.00">+</text>
<text text-anchor="start" x="338.5" y="-753.5" font-family="Helvetica,sans-Serif" font-size="10.00">update()</text>
<text text-anchor="start" x="310.5" y="-738.5" font-family="Helvetica,sans-Serif" font-size="10.00">+</text>
<text text-anchor="start" x="338.5" y="-738.5" font-family="Helvetica,sans-Serif" font-size="10.00">update()</text>
<polygon fill="#666666" stroke="#666666" points="291.5,-793.5 291.5,-793.5 415.5,-793.5 415.5,-793.5 291.5,-793.5"/>
<polygon fill="#666666" stroke="#666666" points="291.5,-778.5 291.5,-778.5 415.5,-778.5 415.5,-778.5 291.5,-778.5"/>
<polygon fill="none" stroke="#666666" points="291.5,-732 291.5,-811 415.5,-811 415.5,-732 291.5,-732"/>
</a>
</g>
</g>
<!-- Node10&#45;&gt;Node3 -->
<g id="edge11_Node000003_Node000010" class="edge">
<title>Node10&#45;&gt;Node3</title>
<g id="a_edge11_Node000003_Node000010"><a xlink:title=" ">
<path fill="none" stroke="#63b8ff" d="M350.75,-731.73C348.43,-699.13 344.95,-650.13 341.48,-601.16"/>
<polygon fill="none" stroke="#63b8ff" points="341.47,-601.03 337.05,-595.33 340.62,-589.06 345.03,-594.76 341.47,-601.03"/>
</a>
</g>
<text text-anchor="start" x="347" y="-620" font-family="Helvetica,sans-Serif" font-size="10.00" fill="grey">+callback</text>
</g>
<!-- Node11 -->
<g id="Node000011" class="node">
<title>Node11</title>
<g id="a_Node000011"><a xlink:href="../../d7/d83/classAH_1_1IncrementButton.html" target="_top" xlink:title="A class for buttons that increment some counter or setting.">
<polygon fill="white" stroke="transparent" points="231,-508.5 90,-508.5 90,-354.5 231,-354.5 231,-508.5"/>
<text text-anchor="start" x="120" y="-496.5" font-family="Helvetica,sans-Serif" font-size="10.00">IncrementButton</text>
<text text-anchor="start" x="97" y="-481.5" font-family="Helvetica,sans-Serif" font-size="10.00">&#45;</text>
<text text-anchor="start" x="107.5" y="-481.5" font-family="Helvetica,sans-Serif" font-size="10.00">longPressState</text>
<text text-anchor="start" x="97" y="-466.5" font-family="Helvetica,sans-Serif" font-size="10.00">&#45;</text>
<text text-anchor="start" x="107.5" y="-466.5" font-family="Helvetica,sans-Serif" font-size="10.00">longPressRepeat</text>
<text text-anchor="start" x="97" y="-451.5" font-family="Helvetica,sans-Serif" font-size="10.00">&#45;</text>
<text text-anchor="start" x="107.5" y="-451.5" font-family="Helvetica,sans-Serif" font-size="10.00">state</text>
<text text-anchor="start" x="94.5" y="-436.5" font-family="Helvetica,sans-Serif" font-size="10.00">+</text>
<text text-anchor="start" x="107.5" y="-436.5" font-family="Helvetica,sans-Serif" font-size="10.00">IncrementButton()</text>
<text text-anchor="start" x="94.5" y="-421.5" font-family="Helvetica,sans-Serif" font-size="10.00">+</text>
<text text-anchor="start" x="107.5" y="-421.5" font-family="Helvetica,sans-Serif" font-size="10.00">begin()</text>
<text text-anchor="start" x="94.5" y="-406.5" font-family="Helvetica,sans-Serif" font-size="10.00">+</text>
<text text-anchor="start" x="107.5" y="-406.5" font-family="Helvetica,sans-Serif" font-size="10.00">update()</text>
<text text-anchor="start" x="94.5" y="-391.5" font-family="Helvetica,sans-Serif" font-size="10.00">+</text>
<text text-anchor="start" x="107.5" y="-391.5" font-family="Helvetica,sans-Serif" font-size="10.00">getState()</text>
<text text-anchor="start" x="94.5" y="-376.5" font-family="Helvetica,sans-Serif" font-size="10.00">+</text>
<text text-anchor="start" x="107.5" y="-376.5" font-family="Helvetica,sans-Serif" font-size="10.00">invert()</text>
<text text-anchor="start" x="94.5" y="-361.5" font-family="Helvetica,sans-Serif" font-size="10.00">#</text>
<text text-anchor="start" x="107.5" y="-361.5" font-family="Helvetica,sans-Serif" font-size="10.00">updateImplementation()</text>
<polygon fill="#666666" stroke="#666666" points="90.5,-491.5 90.5,-491.5 231.5,-491.5 231.5,-491.5 90.5,-491.5"/>
<polygon fill="#666666" stroke="#666666" points="90.5,-446.5 90.5,-446.5 105.5,-446.5 105.5,-446.5 90.5,-446.5"/>
<polygon fill="#666666" stroke="#666666" points="105.5,-446.5 105.5,-446.5 231.5,-446.5 231.5,-446.5 105.5,-446.5"/>
<polygon fill="none" stroke="#666666" points="90,-354.5 90,-508.5 231,-508.5 231,-354.5 90,-354.5"/>
</a>
</g>
</g>
<!-- Node11&#45;&gt;Node2 -->
<g id="edge12_Node000002_Node000011" class="edge">
<title>Node11&#45;&gt;Node2</title>
<g id="a_edge12_Node000002_Node000011"><a xlink:title=" ">
<path fill="none" stroke="#63b8ff" d="M182.64,-354.28C193.7,-316.22 206.99,-270.47 217.83,-233.14"/>
<polygon fill="none" stroke="#63b8ff" points="217.91,-232.86 215.75,-225.98 221.26,-221.34 223.43,-228.22 217.91,-232.86"/>
</a>
</g>
<text text-anchor="start" x="217.5" y="-244.5" font-family="Helvetica,sans-Serif" font-size="10.00" fill="grey">&#45;button</text>
</g>
<!-- Node12 -->
<g id="Node000012" class="node">
<title>Node12</title>
<g id="a_Node000012"><a xlink:href="../../de/d0d/classAH_1_1Button.html" target="_top" xlink:title="A class for reading and debouncing buttons and switches.">
<polygon fill="white" stroke="transparent" points="166.5,-886 34.5,-886 34.5,-657 166.5,-657 166.5,-886"/>
<text text-anchor="start" x="84" y="-873.5" font-family="Helvetica,sans-Serif" font-size="10.00">Button</text>
<text text-anchor="start" x="41" y="-858.5" font-family="Helvetica,sans-Serif" font-size="10.00">&#45;</text>
<text text-anchor="start" x="51.5" y="-858.5" font-family="Helvetica,sans-Serif" font-size="10.00">debounceTime</text>
<text text-anchor="start" x="38.5" y="-843.5" font-family="Helvetica,sans-Serif" font-size="10.00">+</text>
<text text-anchor="start" x="51.5" y="-843.5" font-family="Helvetica,sans-Serif" font-size="10.00">Button()</text>
<text text-anchor="start" x="38.5" y="-828.5" font-family="Helvetica,sans-Serif" font-size="10.00">+</text>
<text text-anchor="start" x="51.5" y="-828.5" font-family="Helvetica,sans-Serif" font-size="10.00">Button()</text>
<text text-anchor="start" x="38.5" y="-813.5" font-family="Helvetica,sans-Serif" font-size="10.00">+</text>
<text text-anchor="start" x="51.5" y="-813.5" font-family="Helvetica,sans-Serif" font-size="10.00">Button()</text>
<text text-anchor="start" x="38.5" y="-798.5" font-family="Helvetica,sans-Serif" font-size="10.00">+</text>
<text text-anchor="start" x="51.5" y="-798.5" font-family="Helvetica,sans-Serif" font-size="10.00">begin()</text>
<text text-anchor="start" x="38.5" y="-783.5" font-family="Helvetica,sans-Serif" font-size="10.00">+</text>
<text text-anchor="start" x="51.5" y="-783.5" font-family="Helvetica,sans-Serif" font-size="10.00">invert()</text>
<text text-anchor="start" x="38.5" y="-768.5" font-family="Helvetica,sans-Serif" font-size="10.00">+</text>
<text text-anchor="start" x="51.5" y="-768.5" font-family="Helvetica,sans-Serif" font-size="10.00">update()</text>
<text text-anchor="start" x="38.5" y="-753.5" font-family="Helvetica,sans-Serif" font-size="10.00">+</text>
<text text-anchor="start" x="51.5" y="-753.5" font-family="Helvetica,sans-Serif" font-size="10.00">getState()</text>
<text text-anchor="start" x="38.5" y="-738.5" font-family="Helvetica,sans-Serif" font-size="10.00">+</text>
<text text-anchor="start" x="51.5" y="-738.5" font-family="Helvetica,sans-Serif" font-size="10.00">previousBounceTime()</text>
<text text-anchor="start" x="38.5" y="-723.5" font-family="Helvetica,sans-Serif" font-size="10.00">+</text>
<text text-anchor="start" x="51.5" y="-723.5" font-family="Helvetica,sans-Serif" font-size="10.00">stableTime()</text>
<text text-anchor="start" x="38.5" y="-708.5" font-family="Helvetica,sans-Serif" font-size="10.00">+</text>
<text text-anchor="start" x="51.5" y="-708.5" font-family="Helvetica,sans-Serif" font-size="10.00">stableTime()</text>
<text text-anchor="start" x="38.5" y="-693.5" font-family="Helvetica,sans-Serif" font-size="10.00">+</text>
<text text-anchor="start" x="51.5" y="-693.5" font-family="Helvetica,sans-Serif" font-size="10.00">getName()</text>
<text text-anchor="start" x="38.5" y="-678.5" font-family="Helvetica,sans-Serif" font-size="10.00">+</text>
<text text-anchor="start" x="51.5" y="-678.5" font-family="Helvetica,sans-Serif" font-size="10.00">setDebounceTime()</text>
<text text-anchor="start" x="38.5" y="-663.5" font-family="Helvetica,sans-Serif" font-size="10.00">+</text>
<text text-anchor="start" x="51.5" y="-663.5" font-family="Helvetica,sans-Serif" font-size="10.00">getDebounceTime()</text>
<polygon fill="#666666" stroke="#666666" points="34.5,-868.5 34.5,-868.5 166.5,-868.5 166.5,-868.5 34.5,-868.5"/>
<polygon fill="#666666" stroke="#666666" points="34.5,-853.5 34.5,-853.5 49.5,-853.5 49.5,-853.5 34.5,-853.5"/>
<polygon fill="#666666" stroke="#666666" points="49.5,-853.5 49.5,-853.5 166.5,-853.5 166.5,-853.5 49.5,-853.5"/>
<polygon fill="none" stroke="#666666" points="34.5,-657 34.5,-886 166.5,-886 166.5,-657 34.5,-657"/>
</a>
</g>
</g>
<!-- Node12&#45;&gt;Node11 -->
<g id="edge13_Node000011_Node000012" class="edge">
<title>Node12&#45;&gt;Node11</title>
<g id="a_edge13_Node000011_Node000012"><a xlink:title=" ">
<path fill="none" stroke="#63b8ff" d="M120.73,-656.54C128.59,-612.23 137.47,-562.26 144.83,-520.78"/>
<polygon fill="none" stroke="#63b8ff" points="144.87,-520.57 141.98,-513.96 146.96,-508.75 149.85,-515.36 144.87,-520.57"/>
</a>
</g>
<text text-anchor="start" x="131.5" y="-620" font-family="Helvetica,sans-Serif" font-size="10.00" fill="grey">&#45;button</text>
</g>
<!-- Node13 -->
<g id="Node000013" class="node">
<title>Node13</title>
<g id="a_Node000013"><a xlink:href="../../d7/de2/structAH_1_1ExtIO_1_1pin__t.html" target="_top" xlink:title="Type for storing pin numbers of Extended Input/Output elements.">
<polygon fill="white" stroke="transparent" points="87,-1098.5 0,-1098.5 0,-944.5 87,-944.5 87,-1098.5"/>
<text text-anchor="start" x="31.5" y="-1086.5" font-family="Helvetica,sans-Serif" font-size="10.00">pin_t</text>
<text text-anchor="start" x="4.5" y="-1071.5" font-family="Helvetica,sans-Serif" font-size="10.00">+</text>
<text text-anchor="start" x="17.5" y="-1071.5" font-family="Helvetica,sans-Serif" font-size="10.00">pin</text>
<text text-anchor="start" x="4.5" y="-1056.5" font-family="Helvetica,sans-Serif" font-size="10.00">+</text>
<text text-anchor="start" x="17.5" y="-1056.5" font-family="Helvetica,sans-Serif" font-size="10.00">pin_t()</text>
<text text-anchor="start" x="4.5" y="-1041.5" font-family="Helvetica,sans-Serif" font-size="10.00">+</text>
<text text-anchor="start" x="17.5" y="-1041.5" font-family="Helvetica,sans-Serif" font-size="10.00">pin_t()</text>
<text text-anchor="start" x="4.5" y="-1026.5" font-family="Helvetica,sans-Serif" font-size="10.00">+</text>
<text text-anchor="start" x="17.5" y="-1026.5" font-family="Helvetica,sans-Serif" font-size="10.00">operator+=()</text>
<text text-anchor="start" x="4.5" y="-1011.5" font-family="Helvetica,sans-Serif" font-size="10.00">+</text>
<text text-anchor="start" x="17.5" y="-1011.5" font-family="Helvetica,sans-Serif" font-size="10.00">operator++()</text>
<text text-anchor="start" x="4.5" y="-996.5" font-family="Helvetica,sans-Serif" font-size="10.00">+</text>
<text text-anchor="start" x="17.5" y="-996.5" font-family="Helvetica,sans-Serif" font-size="10.00">operator++()</text>
<text text-anchor="start" x="4.5" y="-981.5" font-family="Helvetica,sans-Serif" font-size="10.00">+</text>
<text text-anchor="start" x="17.5" y="-981.5" font-family="Helvetica,sans-Serif" font-size="10.00">operator&#45;=()</text>
<text text-anchor="start" x="4.5" y="-966.5" font-family="Helvetica,sans-Serif" font-size="10.00">+</text>
<text text-anchor="start" x="17.5" y="-966.5" font-family="Helvetica,sans-Serif" font-size="10.00">operator&#45;&#45;()</text>
<text text-anchor="start" x="4.5" y="-951.5" font-family="Helvetica,sans-Serif" font-size="10.00">+</text>
<text text-anchor="start" x="17.5" y="-951.5" font-family="Helvetica,sans-Serif" font-size="10.00">operator&#45;&#45;()</text>
<polygon fill="#666666" stroke="#666666" points="0.5,-1081.5 0.5,-1081.5 87.5,-1081.5 87.5,-1081.5 0.5,-1081.5"/>
<polygon fill="#666666" stroke="#666666" points="0.5,-1066.5 0.5,-1066.5 15.5,-1066.5 15.5,-1066.5 0.5,-1066.5"/>
<polygon fill="#666666" stroke="#666666" points="15.5,-1066.5 15.5,-1066.5 87.5,-1066.5 87.5,-1066.5 15.5,-1066.5"/>
<polygon fill="none" stroke="#666666" points="0,-944.5 0,-1098.5 87,-1098.5 87,-944.5 0,-944.5"/>
</a>
</g>
</g>
<!-- Node13&#45;&gt;Node12 -->
<g id="edge14_Node000012_Node000013" class="edge">
<title>Node13&#45;&gt;Node12</title>
<g id="a_edge14_Node000012_Node000013"><a xlink:title=" ">
<path fill="none" stroke="#63b8ff" d="M60.99,-944.41C64.35,-929.77 67.96,-914.08 71.57,-898.35"/>
<polygon fill="none" stroke="#63b8ff" points="71.65,-898.03 69.09,-891.28 74.34,-886.33 76.89,-893.08 71.65,-898.03"/>
</a>
</g>
<text text-anchor="start" x="73" y="-909.5" font-family="Helvetica,sans-Serif" font-size="10.00" fill="grey">&#45;pin</text>
</g>
<!-- Node14 -->
<g id="Node000014" class="node">
<title>Node14</title>
<g id="a_Node000014"><a xlink:href="../../dc/db4/structAH_1_1Button_1_1InternalState.html" target="_top" xlink:title=" ">
<polygon fill="white" stroke="transparent" points="209.5,-1076 105.5,-1076 105.5,-967 209.5,-967 209.5,-1076"/>
<text text-anchor="start" x="125.5" y="-1063.5" font-family="Helvetica,sans-Serif" font-size="10.00">InternalState</text>
<text text-anchor="start" x="109.5" y="-1048.5" font-family="Helvetica,sans-Serif" font-size="10.00">+</text>
<text text-anchor="start" x="122.5" y="-1048.5" font-family="Helvetica,sans-Serif" font-size="10.00">debounced</text>
<text text-anchor="start" x="109.5" y="-1033.5" font-family="Helvetica,sans-Serif" font-size="10.00">+</text>
<text text-anchor="start" x="122.5" y="-1033.5" font-family="Helvetica,sans-Serif" font-size="10.00">bouncing</text>
<text text-anchor="start" x="109.5" y="-1018.5" font-family="Helvetica,sans-Serif" font-size="10.00">+</text>
<text text-anchor="start" x="122.5" y="-1018.5" font-family="Helvetica,sans-Serif" font-size="10.00">prevInput</text>
<text text-anchor="start" x="109.5" y="-1003.5" font-family="Helvetica,sans-Serif" font-size="10.00">+</text>
<text text-anchor="start" x="122.5" y="-1003.5" font-family="Helvetica,sans-Serif" font-size="10.00">invert</text>
<text text-anchor="start" x="109.5" y="-988.5" font-family="Helvetica,sans-Serif" font-size="10.00">+</text>
<text text-anchor="start" x="122.5" y="-988.5" font-family="Helvetica,sans-Serif" font-size="10.00">prevBounceTime</text>
<text text-anchor="start" x="109.5" y="-973.5" font-family="Helvetica,sans-Serif" font-size="10.00">+</text>
<text text-anchor="start" x="122.5" y="-973.5" font-family="Helvetica,sans-Serif" font-size="10.00">InternalState()</text>
<polygon fill="#666666" stroke="#666666" points="105.5,-1058.5 105.5,-1058.5 209.5,-1058.5 209.5,-1058.5 105.5,-1058.5"/>
<polygon fill="#666666" stroke="#666666" points="105.5,-983.5 105.5,-983.5 120.5,-983.5 120.5,-983.5 105.5,-983.5"/>
<polygon fill="#666666" stroke="#666666" points="120.5,-983.5 120.5,-983.5 209.5,-983.5 209.5,-983.5 120.5,-983.5"/>
<polygon fill="none" stroke="#666666" points="105.5,-967 105.5,-1076 209.5,-1076 209.5,-967 105.5,-967"/>
</a>
</g>
</g>
<!-- Node14&#45;&gt;Node12 -->
<g id="edge15_Node000012_Node000014" class="edge">
<title>Node14&#45;&gt;Node12</title>
<g id="a_edge15_Node000012_Node000014"><a xlink:title=" ">
<path fill="none" stroke="#63b8ff" d="M145.2,-966.99C140.51,-946.56 134.93,-922.3 129.34,-897.96"/>
<polygon fill="none" stroke="#63b8ff" points="129.28,-897.72 124.04,-892.77 126.59,-886.02 131.83,-890.98 129.28,-897.72"/>
</a>
</g>
<text text-anchor="start" x="137" y="-909.5" font-family="Helvetica,sans-Serif" font-size="10.00" fill="grey">&#45;state</text>
</g>
</g>
</svg>
