<?xml version="1.0" encoding="UTF-8" standalone="no"?>
<!DOCTYPE svg PUBLIC "-//W3C//DTD SVG 1.1//EN"
 "http://www.w3.org/Graphics/SVG/1.1/DTD/svg11.dtd">
<!-- Generated by graphviz version 2.43.0 (0)
 -->
<!-- Title: CCRangeLEDs&lt; RangeLen &gt; Pages: 1 -->
<svg width="346pt" height="805pt"
 viewBox="0.00 0.00 345.50 805.00" xmlns="http://www.w3.org/2000/svg" xmlns:xlink="http://www.w3.org/1999/xlink">
<g id="graph0" class="graph" transform="scale(1 1) rotate(0) translate(4 801)">
<title>CCRangeLEDs&lt; RangeLen &gt;</title>
<polygon fill="white" stroke="transparent" points="-4,4 -4,-801 341.5,-801 341.5,4 -4,4"/>
<!-- Node1 -->
<g id="node1" class="node">
<title>Node1</title>
<g id="a_node1"><a xlink:title="MIDI Input Element that listens for MIDI Control Change messages in a given range,...">
<polygon fill="#bfbfbf" stroke="black" points="138,-0.5 138,-57.5 293,-57.5 293,-0.5 138,-0.5"/>
<text text-anchor="middle" x="215.5" y="-45.5" font-family="Helvetica,sans-Serif" font-size="10.00">CCRangeLEDs&lt; RangeLen &gt;</text>
<polyline fill="none" stroke="black" points="138,-38.5 293,-38.5 "/>
<text text-anchor="middle" x="215.5" y="-26.5" font-family="Helvetica,sans-Serif" font-size="10.00"> </text>
<polyline fill="none" stroke="black" points="138,-19.5 293,-19.5 "/>
<text text-anchor="start" x="146" y="-7.5" font-family="Helvetica,sans-Serif" font-size="10.00">+ CCRangeLEDs()</text>
</a>
</g>
</g>
<!-- Node2 -->
<g id="node2" class="node">
<title>Node2</title>
<g id="a_node2"><a xlink:href="../../d5/d80/classGenericNoteCCRange.html" target="_top" xlink:title=" ">
<polygon fill="white" stroke="black" points="145.5,-94.5 145.5,-195.5 285.5,-195.5 285.5,-94.5 145.5,-94.5"/>
<text text-anchor="start" x="153.5" y="-183.5" font-family="Helvetica,sans-Serif" font-size="10.00">GenericNoteCCRange</text>
<text text-anchor="start" x="153.5" y="-172.5" font-family="Helvetica,sans-Serif" font-size="10.00">&lt; MIDIInputElementCC,</text>
<text text-anchor="start" x="153.5" y="-161.5" font-family="Helvetica,sans-Serif" font-size="10.00"> RangeLen, NoteCCLED</text>
<text text-anchor="middle" x="215.5" y="-150.5" font-family="Helvetica,sans-Serif" font-size="10.00">&lt; RangeLen &gt; &gt;</text>
<polyline fill="none" stroke="black" points="145.5,-143.5 285.5,-143.5 "/>
<text text-anchor="middle" x="215.5" y="-131.5" font-family="Helvetica,sans-Serif" font-size="10.00"> </text>
<polyline fill="none" stroke="black" points="145.5,-124.5 285.5,-124.5 "/>
<text text-anchor="start" x="153.5" y="-112.5" font-family="Helvetica,sans-Serif" font-size="10.00">+ GenericNoteCCRange()</text>
<text text-anchor="start" x="153.5" y="-101.5" font-family="Helvetica,sans-Serif" font-size="10.00">&#45; match()</text>
</a>
</g>
</g>
<!-- Node2&#45;&gt;Node1 -->
<g id="edge1" class="edge">
<title>Node2&#45;&gt;Node1</title>
<path fill="none" stroke="midnightblue" d="M215.5,-84.23C215.5,-74.92 215.5,-65.71 215.5,-57.59"/>
<polygon fill="none" stroke="midnightblue" points="212,-84.33 215.5,-94.33 219,-84.33 212,-84.33"/>
</g>
<!-- Node3 -->
<g id="node3" class="node">
<title>Node3</title>
<g id="a_node3"><a xlink:href="../../d2/df4/classNoteCCRange.html" target="_top" xlink:title=" ">
<polygon fill="white" stroke="black" points="124,-232.5 124,-443.5 307,-443.5 307,-232.5 124,-232.5"/>
<text text-anchor="start" x="132" y="-431.5" font-family="Helvetica,sans-Serif" font-size="10.00">NoteCCRange&lt; MIDIInputElement</text>
<text text-anchor="start" x="132" y="-420.5" font-family="Helvetica,sans-Serif" font-size="10.00">CC, RangeLen, 1, NoteCCLED</text>
<text text-anchor="middle" x="215.5" y="-409.5" font-family="Helvetica,sans-Serif" font-size="10.00">&lt; RangeLen &gt; &gt;</text>
<polyline fill="none" stroke="black" points="124,-402.5 307,-402.5 "/>
<text text-anchor="start" x="132" y="-390.5" font-family="Helvetica,sans-Serif" font-size="10.00">+ callback</text>
<text text-anchor="start" x="132" y="-379.5" font-family="Helvetica,sans-Serif" font-size="10.00">&#45; values</text>
<polyline fill="none" stroke="black" points="124,-372.5 307,-372.5 "/>
<text text-anchor="start" x="132" y="-360.5" font-family="Helvetica,sans-Serif" font-size="10.00">+ NoteCCRange()</text>
<text text-anchor="start" x="132" y="-349.5" font-family="Helvetica,sans-Serif" font-size="10.00">+ getValue()</text>
<text text-anchor="start" x="132" y="-338.5" font-family="Helvetica,sans-Serif" font-size="10.00">+ getValue()</text>
<text text-anchor="start" x="132" y="-327.5" font-family="Helvetica,sans-Serif" font-size="10.00">+ getValue()</text>
<text text-anchor="start" x="132" y="-316.5" font-family="Helvetica,sans-Serif" font-size="10.00">+ begin()</text>
<text text-anchor="start" x="132" y="-305.5" font-family="Helvetica,sans-Serif" font-size="10.00">+ reset()</text>
<text text-anchor="start" x="132" y="-294.5" font-family="Helvetica,sans-Serif" font-size="10.00">+ length()</text>
<text text-anchor="start" x="132" y="-283.5" font-family="Helvetica,sans-Serif" font-size="10.00">&#45; updateImpl()</text>
<text text-anchor="start" x="132" y="-272.5" font-family="Helvetica,sans-Serif" font-size="10.00">&#45; getSelection()</text>
<text text-anchor="start" x="132" y="-261.5" font-family="Helvetica,sans-Serif" font-size="10.00">&#45; getBankIndex()</text>
<text text-anchor="start" x="132" y="-250.5" font-family="Helvetica,sans-Serif" font-size="10.00">&#45; getRangeIndex()</text>
<text text-anchor="start" x="132" y="-239.5" font-family="Helvetica,sans-Serif" font-size="10.00">&#45; getValueFromMIDIMessage()</text>
</a>
</g>
</g>
<!-- Node3&#45;&gt;Node2 -->
<g id="edge2" class="edge">
<title>Node3&#45;&gt;Node2</title>
<path fill="none" stroke="midnightblue" d="M215.5,-222.23C215.5,-213.05 215.5,-204.12 215.5,-195.79"/>
<polygon fill="none" stroke="midnightblue" points="212,-222.28 215.5,-232.28 219,-222.28 212,-222.28"/>
</g>
<!-- Node4 -->
<g id="node4" class="node">
<title>Node4</title>
<g id="a_node4"><a xlink:href="../../d3/d96/classMIDIInputElementCC.html" target="_top" xlink:title="Class for objects that listen for incoming MIDI Controller Change events.">
<polygon fill="white" stroke="black" points="72,-480.5 72,-603.5 217,-603.5 217,-480.5 72,-480.5"/>
<text text-anchor="middle" x="144.5" y="-591.5" font-family="Helvetica,sans-Serif" font-size="10.00">MIDIInputElementCC</text>
<polyline fill="none" stroke="black" points="72,-584.5 217,-584.5 "/>
<text text-anchor="start" x="80" y="-572.5" font-family="Helvetica,sans-Serif" font-size="10.00">&#45; elements</text>
<polyline fill="none" stroke="black" points="72,-565.5 217,-565.5 "/>
<text text-anchor="start" x="80" y="-553.5" font-family="Helvetica,sans-Serif" font-size="10.00">+ MIDIInputElementCC()</text>
<text text-anchor="start" x="80" y="-542.5" font-family="Helvetica,sans-Serif" font-size="10.00">+ ~MIDIInputElementCC()</text>
<text text-anchor="start" x="80" y="-531.5" font-family="Helvetica,sans-Serif" font-size="10.00">+ beginAll()</text>
<text text-anchor="start" x="80" y="-520.5" font-family="Helvetica,sans-Serif" font-size="10.00">+ updateAll()</text>
<text text-anchor="start" x="80" y="-509.5" font-family="Helvetica,sans-Serif" font-size="10.00">+ resetAll()</text>
<text text-anchor="start" x="80" y="-498.5" font-family="Helvetica,sans-Serif" font-size="10.00">+ updateAllWith()</text>
<text text-anchor="start" x="80" y="-487.5" font-family="Helvetica,sans-Serif" font-size="10.00">&#45; moveDown()</text>
</a>
</g>
</g>
<!-- Node4&#45;&gt;Node3 -->
<g id="edge3" class="edge">
<title>Node4&#45;&gt;Node3</title>
<path fill="none" stroke="midnightblue" d="M169.21,-470.68C172.29,-461.94 175.48,-452.86 178.68,-443.74"/>
<polygon fill="none" stroke="midnightblue" points="165.82,-469.8 165.8,-480.39 172.42,-472.12 165.82,-469.8"/>
</g>
<!-- Node5 -->
<g id="node5" class="node">
<title>Node5</title>
<g id="a_node5"><a xlink:href="../../d9/db1/classMIDIInputElement.html" target="_top" xlink:title="A class for objects that listen for incoming MIDI events.">
<polygon fill="white" stroke="black" points="0,-640.5 0,-796.5 131,-796.5 131,-640.5 0,-640.5"/>
<text text-anchor="middle" x="65.5" y="-784.5" font-family="Helvetica,sans-Serif" font-size="10.00">MIDIInputElement</text>
<polyline fill="none" stroke="black" points="0,-777.5 131,-777.5 "/>
<text text-anchor="start" x="8" y="-765.5" font-family="Helvetica,sans-Serif" font-size="10.00"># address</text>
<polyline fill="none" stroke="black" points="0,-758.5 131,-758.5 "/>
<text text-anchor="start" x="8" y="-746.5" font-family="Helvetica,sans-Serif" font-size="10.00">+ ~MIDIInputElement()</text>
<text text-anchor="start" x="8" y="-735.5" font-family="Helvetica,sans-Serif" font-size="10.00">+ begin()</text>
<text text-anchor="start" x="8" y="-724.5" font-family="Helvetica,sans-Serif" font-size="10.00">+ reset()</text>
<text text-anchor="start" x="8" y="-713.5" font-family="Helvetica,sans-Serif" font-size="10.00">+ update()</text>
<text text-anchor="start" x="8" y="-702.5" font-family="Helvetica,sans-Serif" font-size="10.00">+ updateWith()</text>
<text text-anchor="start" x="8" y="-691.5" font-family="Helvetica,sans-Serif" font-size="10.00"># MIDIInputElement()</text>
<text text-anchor="start" x="8" y="-680.5" font-family="Helvetica,sans-Serif" font-size="10.00"># MIDIInputElement()</text>
<text text-anchor="start" x="8" y="-669.5" font-family="Helvetica,sans-Serif" font-size="10.00">&#45; updateImpl()</text>
<text text-anchor="start" x="8" y="-658.5" font-family="Helvetica,sans-Serif" font-size="10.00">&#45; getTarget()</text>
<text text-anchor="start" x="8" y="-647.5" font-family="Helvetica,sans-Serif" font-size="10.00">&#45; match()</text>
</a>
</g>
</g>
<!-- Node5&#45;&gt;Node4 -->
<g id="edge4" class="edge">
<title>Node5&#45;&gt;Node4</title>
<path fill="none" stroke="midnightblue" d="M104.58,-631.17C108.79,-621.87 113.01,-612.56 117.04,-603.65"/>
<polygon fill="none" stroke="midnightblue" points="101.32,-629.9 100.38,-640.45 107.69,-632.79 101.32,-629.9"/>
</g>
<!-- Node6 -->
<g id="node6" class="node">
<title>Node6</title>
<g id="a_node6"><a xlink:href="../../d4/d23/classDoublyLinkable.html" target="_top" xlink:title=" ">
<polygon fill="white" stroke="black" points="149.5,-679 149.5,-758 299.5,-758 299.5,-679 149.5,-679"/>
<text text-anchor="start" x="157.5" y="-746" font-family="Helvetica,sans-Serif" font-size="10.00">DoublyLinkable&lt; MIDIInput</text>
<text text-anchor="middle" x="224.5" y="-735" font-family="Helvetica,sans-Serif" font-size="10.00">ElementCC &gt;</text>
<polyline fill="none" stroke="black" points="149.5,-728 299.5,-728 "/>
<text text-anchor="start" x="157.5" y="-716" font-family="Helvetica,sans-Serif" font-size="10.00"># next</text>
<text text-anchor="start" x="157.5" y="-705" font-family="Helvetica,sans-Serif" font-size="10.00"># previous</text>
<polyline fill="none" stroke="black" points="149.5,-698 299.5,-698 "/>
<text text-anchor="start" x="157.5" y="-686" font-family="Helvetica,sans-Serif" font-size="10.00"># ~DoublyLinkable()</text>
</a>
</g>
</g>
<!-- Node6&#45;&gt;Node4 -->
<g id="edge5" class="edge">
<title>Node6&#45;&gt;Node4</title>
<path fill="none" stroke="midnightblue" d="M202.57,-669.67C193.21,-649.26 182.18,-625.19 172.26,-603.56"/>
<polygon fill="none" stroke="midnightblue" points="199.4,-671.14 206.75,-678.77 205.76,-668.22 199.4,-671.14"/>
</g>
<!-- Node7 -->
<g id="node7" class="node">
<title>Node7</title>
<g id="a_node7"><a xlink:href="../../d7/dab/classINoteCCValue.html" target="_top" xlink:title="Interface for NoteCCValue objects: provides getters for the velocity or controller values.">
<polygon fill="white" stroke="black" points="235.5,-497 235.5,-587 337.5,-587 337.5,-497 235.5,-497"/>
<text text-anchor="middle" x="286.5" y="-575" font-family="Helvetica,sans-Serif" font-size="10.00">INoteCCValue</text>
<polyline fill="none" stroke="black" points="235.5,-568 337.5,-568 "/>
<text text-anchor="start" x="243.5" y="-556" font-family="Helvetica,sans-Serif" font-size="10.00">&#45; rangeLength</text>
<polyline fill="none" stroke="black" points="235.5,-549 337.5,-549 "/>
<text text-anchor="start" x="243.5" y="-537" font-family="Helvetica,sans-Serif" font-size="10.00">+ length()</text>
<text text-anchor="start" x="243.5" y="-526" font-family="Helvetica,sans-Serif" font-size="10.00">+ getValue()</text>
<text text-anchor="start" x="243.5" y="-515" font-family="Helvetica,sans-Serif" font-size="10.00">+ getValue()</text>
<text text-anchor="start" x="243.5" y="-504" font-family="Helvetica,sans-Serif" font-size="10.00"># INoteCCValue()</text>
</a>
</g>
</g>
<!-- Node7&#45;&gt;Node3 -->
<g id="edge6" class="edge">
<title>Node7&#45;&gt;Node3</title>
<path fill="none" stroke="midnightblue" d="M267.56,-487.12C262.82,-473.63 257.57,-458.7 252.28,-443.65"/>
<polygon fill="none" stroke="midnightblue" points="264.3,-488.4 270.92,-496.67 270.9,-486.08 264.3,-488.4"/>
</g>
</g>
</svg>
