<?xml version="1.0" encoding="UTF-8" standalone="no"?>
<!DOCTYPE svg PUBLIC "-//W3C//DTD SVG 1.1//EN"
 "http://www.w3.org/Graphics/SVG/1.1/DTD/svg11.dtd">
<!-- Generated by graphviz version 2.43.0 (0)
 -->
<!-- Title: PitchBendSender&lt; INPUT_PRECISION_BITS &gt; Pages: 1 -->
<svg width="142pt" height="83pt"
 viewBox="0.00 0.00 142.00 83.00" xmlns="http://www.w3.org/2000/svg" xmlns:xlink="http://www.w3.org/1999/xlink">
<g id="graph0" class="graph" transform="scale(1 1) rotate(0) translate(4 79)">
<title>PitchBendSender&lt; INPUT_PRECISION_BITS &gt;</title>
<!-- Node1 -->
<g id="Node000001" class="node">
<title>Node1</title>
<g id="a_Node000001"><a xlink:title="Class that sends continuous MIDI pitch bend messages with a resolution of 14 bits.">
<polygon fill="#999999" stroke="transparent" points="134,-75 0,-75 0,0 134,0 134,-75"/>
<text text-anchor="start" x="5" y="-62.5" font-family="Helvetica,sans-Serif" font-size="10.00">PitchBendSender&lt; INPUT</text>
<text text-anchor="start" x="18.5" y="-51.5" font-family="Helvetica,sans-Serif" font-size="10.00">_PRECISION_BITS &gt;</text>
<text text-anchor="start" x="65" y="-36.5" font-family="Helvetica,sans-Serif" font-size="10.00"> </text>
<text text-anchor="start" x="19" y="-21.5" font-family="Helvetica,sans-Serif" font-size="10.00">+</text>
<text text-anchor="start" x="47" y="-21.5" font-family="Helvetica,sans-Serif" font-size="10.00">send()</text>
<text text-anchor="start" x="19" y="-6.5" font-family="Helvetica,sans-Serif" font-size="10.00">+</text>
<text text-anchor="start" x="47" y="-6.5" font-family="Helvetica,sans-Serif" font-size="10.00">precision()</text>
<polygon fill="#666666" stroke="#666666" points="0,-46.5 0,-46.5 134,-46.5 134,-46.5 0,-46.5"/>
<polygon fill="#666666" stroke="#666666" points="0,-31.5 0,-31.5 134,-31.5 134,-31.5 0,-31.5"/>
<polygon fill="none" stroke="#666666" points="0,0 0,-75 134,-75 134,0 0,0"/>
</a>
</g>
</g>
</g>
</svg>
