<?xml version="1.0" encoding="UTF-8" standalone="no"?>
<!DOCTYPE svg PUBLIC "-//W3C//DTD SVG 1.1//EN"
 "http://www.w3.org/Graphics/SVG/1.1/DTD/svg11.dtd">
<!-- Generated by graphviz version 2.43.0 (0)
 -->
<!-- Title: InterfaceMIDIInputElements.hpp Pages: 1 -->
<svg width="1148pt" height="196pt"
 viewBox="0.00 0.00 1147.50 196.00" xmlns="http://www.w3.org/2000/svg" xmlns:xlink="http://www.w3.org/1999/xlink">
<g id="graph0" class="graph" transform="scale(1 1) rotate(0) translate(4 192)">
<title>InterfaceMIDIInputElements.hpp</title>
<polygon fill="white" stroke="transparent" points="-4,4 -4,-192 1143.5,-192 1143.5,4 -4,4"/>
<!-- Node1 -->
<g id="node1" class="node">
<title>Node1</title>
<g id="a_node1"><a xlink:title=" ">
<polygon fill="#bfbfbf" stroke="black" points="647,-168.5 647,-187.5 821,-187.5 821,-168.5 647,-168.5"/>
<text text-anchor="middle" x="734" y="-175.5" font-family="Helvetica,sans-Serif" font-size="10.00">InterfaceMIDIInputElements.hpp</text>
</a>
</g>
</g>
<!-- Node2 -->
<g id="node2" class="node">
<title>Node2</title>
<g id="a_node2"><a xlink:href="../../dc/de8/AudioVU_8hpp.html" target="_top" xlink:title=" ">
<polygon fill="white" stroke="black" points="92,-112.5 92,-131.5 172,-131.5 172,-112.5 92,-112.5"/>
<text text-anchor="middle" x="132" y="-119.5" font-family="Helvetica,sans-Serif" font-size="10.00">AudioVU.hpp</text>
</a>
</g>
</g>
<!-- Node1&#45;&gt;Node2 -->
<g id="edge1" class="edge">
<title>Node1&#45;&gt;Node2</title>
<path fill="none" stroke="midnightblue" d="M636.49,-168.25C502.08,-156.2 265.87,-135.01 172.05,-126.59"/>
<polygon fill="midnightblue" stroke="midnightblue" points="636.51,-171.77 646.79,-169.18 637.14,-164.8 636.51,-171.77"/>
</g>
<!-- Node5 -->
<g id="node5" class="node">
<title>Node5</title>
<g id="a_node5"><a xlink:href="../../d4/d8e/BitmapDisplay_8hpp.html" target="_top" xlink:title=" ">
<polygon fill="white" stroke="black" points="160,-56.5 160,-75.5 268,-75.5 268,-56.5 160,-56.5"/>
<text text-anchor="middle" x="214" y="-63.5" font-family="Helvetica,sans-Serif" font-size="10.00">BitmapDisplay.hpp</text>
</a>
</g>
</g>
<!-- Node1&#45;&gt;Node5 -->
<g id="edge5" class="edge">
<title>Node1&#45;&gt;Node5</title>
<path fill="none" stroke="midnightblue" d="M652.74,-167.16C594.1,-159.4 513.23,-147.34 443,-132 368.51,-115.73 282.44,-89.15 240.18,-75.57"/>
<polygon fill="midnightblue" stroke="midnightblue" points="652.32,-170.64 662.69,-168.47 653.23,-163.7 652.32,-170.64"/>
</g>
<!-- Node6 -->
<g id="node6" class="node">
<title>Node6</title>
<g id="a_node6"><a xlink:href="../../d5/de4/NoteCCKPValue_8hpp.html" target="_top" xlink:title=" ">
<polygon fill="white" stroke="black" points="452,-112.5 452,-131.5 566,-131.5 566,-112.5 452,-112.5"/>
<text text-anchor="middle" x="509" y="-119.5" font-family="Helvetica,sans-Serif" font-size="10.00">NoteCCKPValue.hpp</text>
</a>
</g>
</g>
<!-- Node1&#45;&gt;Node6 -->
<g id="edge7" class="edge">
<title>Node1&#45;&gt;Node6</title>
<path fill="none" stroke="midnightblue" d="M688.53,-166.09C646.03,-155.89 583.42,-140.86 544.49,-131.52"/>
<polygon fill="midnightblue" stroke="midnightblue" points="687.81,-169.51 698.35,-168.44 689.44,-162.71 687.81,-169.51"/>
</g>
<!-- Node10 -->
<g id="node10" class="node">
<title>Node10</title>
<g id="a_node10"><a xlink:href="../../db/d4b/PBValue_8hpp.html" target="_top" xlink:title=" ">
<polygon fill="white" stroke="black" points="643.5,-112.5 643.5,-131.5 720.5,-131.5 720.5,-112.5 643.5,-112.5"/>
<text text-anchor="middle" x="682" y="-119.5" font-family="Helvetica,sans-Serif" font-size="10.00">PBValue.hpp</text>
</a>
</g>
</g>
<!-- Node1&#45;&gt;Node10 -->
<g id="edge15" class="edge">
<title>Node1&#45;&gt;Node10</title>
<path fill="none" stroke="midnightblue" d="M718.32,-160.72C709.16,-151.2 697.95,-139.56 690.43,-131.75"/>
<polygon fill="midnightblue" stroke="midnightblue" points="715.96,-163.31 725.41,-168.08 721,-158.45 715.96,-163.31"/>
</g>
<!-- Node11 -->
<g id="node11" class="node">
<title>Node11</title>
<g id="a_node11"><a xlink:href="../../d0/dbf/VPotDisplay_8hpp.html" target="_top" xlink:title=" ">
<polygon fill="white" stroke="black" points="738.5,-112.5 738.5,-131.5 833.5,-131.5 833.5,-112.5 738.5,-112.5"/>
<text text-anchor="middle" x="786" y="-119.5" font-family="Helvetica,sans-Serif" font-size="10.00">VPotDisplay.hpp</text>
</a>
</g>
</g>
<!-- Node1&#45;&gt;Node11 -->
<g id="edge17" class="edge">
<title>Node1&#45;&gt;Node11</title>
<path fill="none" stroke="midnightblue" d="M749.68,-160.72C758.84,-151.2 770.05,-139.56 777.57,-131.75"/>
<polygon fill="midnightblue" stroke="midnightblue" points="747,-158.45 742.59,-168.08 752.04,-163.31 747,-158.45"/>
</g>
<!-- Node12 -->
<g id="node12" class="node">
<title>Node12</title>
<g id="a_node12"><a xlink:href="../../d7/d81/VPotRing_8hpp.html" target="_top" xlink:title=" ">
<polygon fill="white" stroke="black" points="852,-112.5 852,-131.5 934,-131.5 934,-112.5 852,-112.5"/>
<text text-anchor="middle" x="893" y="-119.5" font-family="Helvetica,sans-Serif" font-size="10.00">VPotRing.hpp</text>
</a>
</g>
</g>
<!-- Node1&#45;&gt;Node12 -->
<g id="edge19" class="edge">
<title>Node1&#45;&gt;Node12</title>
<path fill="none" stroke="midnightblue" d="M768.83,-165.17C798.77,-155 841.22,-140.59 867.92,-131.52"/>
<polygon fill="midnightblue" stroke="midnightblue" points="767.54,-161.91 759.19,-168.44 769.79,-168.54 767.54,-161.91"/>
</g>
<!-- Node14 -->
<g id="node14" class="node">
<title>Node14</title>
<g id="a_node14"><a xlink:href="../../db/dda/VU_8hpp.html" target="_top" xlink:title=" ">
<polygon fill="white" stroke="black" points="960,-112.5 960,-131.5 1012,-131.5 1012,-112.5 960,-112.5"/>
<text text-anchor="middle" x="986" y="-119.5" font-family="Helvetica,sans-Serif" font-size="10.00">VU.hpp</text>
</a>
</g>
</g>
<!-- Node1&#45;&gt;Node14 -->
<g id="edge23" class="edge">
<title>Node1&#45;&gt;Node14</title>
<path fill="none" stroke="midnightblue" d="M783.78,-166.33C836.65,-155 918.22,-137.52 959.75,-128.62"/>
<polygon fill="midnightblue" stroke="midnightblue" points="782.97,-162.93 773.93,-168.44 784.44,-169.77 782.97,-162.93"/>
</g>
<!-- Node16 -->
<g id="node16" class="node">
<title>Node16</title>
<g id="a_node16"><a xlink:href="../../d0/db9/VUDisplay_8hpp.html" target="_top" xlink:title=" ">
<polygon fill="white" stroke="black" points="1052.5,-112.5 1052.5,-131.5 1139.5,-131.5 1139.5,-112.5 1052.5,-112.5"/>
<text text-anchor="middle" x="1096" y="-119.5" font-family="Helvetica,sans-Serif" font-size="10.00">VUDisplay.hpp</text>
</a>
</g>
</g>
<!-- Node1&#45;&gt;Node16 -->
<g id="edge27" class="edge">
<title>Node1&#45;&gt;Node16</title>
<path fill="none" stroke="midnightblue" d="M801.42,-166.94C874.77,-156 989.88,-138.83 1052.27,-129.52"/>
<polygon fill="midnightblue" stroke="midnightblue" points="800.73,-163.51 791.36,-168.44 801.77,-170.43 800.73,-163.51"/>
</g>
<!-- Node3 -->
<g id="node3" class="node">
<title>Node3</title>
<g id="a_node3"><a xlink:href="../../d4/dde/AudioVULEDs_8hpp.html" target="_top" xlink:title=" ">
<polygon fill="white" stroke="black" points="0,-56.5 0,-75.5 104,-75.5 104,-56.5 0,-56.5"/>
<text text-anchor="middle" x="52" y="-63.5" font-family="Helvetica,sans-Serif" font-size="10.00">AudioVULEDs.hpp</text>
</a>
</g>
</g>
<!-- Node2&#45;&gt;Node3 -->
<g id="edge2" class="edge">
<title>Node2&#45;&gt;Node3</title>
<path fill="none" stroke="midnightblue" d="M110.7,-106.62C96.08,-96.76 77.17,-83.99 64.82,-75.65"/>
<polygon fill="midnightblue" stroke="midnightblue" points="108.9,-109.63 119.15,-112.32 112.82,-103.83 108.9,-109.63"/>
</g>
<!-- Node4 -->
<g id="node4" class="node">
<title>Node4</title>
<g id="a_node4"><a xlink:href="../../db/dbf/Control__Surface_8h.html" target="_top" xlink:title="The main header file that includes all Control&#45;Surface header files.">
<polygon fill="white" stroke="black" points="649.5,-0.5 649.5,-19.5 752.5,-19.5 752.5,-0.5 649.5,-0.5"/>
<text text-anchor="middle" x="701" y="-7.5" font-family="Helvetica,sans-Serif" font-size="10.00">Control_Surface.h</text>
</a>
</g>
</g>
<!-- Node2&#45;&gt;Node4 -->
<g id="edge4" class="edge">
<title>Node2&#45;&gt;Node4</title>
<path fill="none" stroke="midnightblue" d="M132.09,-101.99C133.26,-87.06 137.49,-67.01 151,-56 189.1,-24.93 519.65,-14.76 649.22,-11.94"/>
<polygon fill="midnightblue" stroke="midnightblue" points="128.58,-102.05 131.68,-112.18 135.58,-102.32 128.58,-102.05"/>
</g>
<!-- Node3&#45;&gt;Node4 -->
<g id="edge3" class="edge">
<title>Node3&#45;&gt;Node4</title>
<path fill="none" stroke="midnightblue" d="M114.18,-56.42C115.46,-56.27 116.74,-56.13 118,-56 313.83,-35.11 547.66,-20.04 649.44,-13.96"/>
<polygon fill="midnightblue" stroke="midnightblue" points="113.73,-52.95 104.2,-57.59 114.55,-59.9 113.73,-52.95"/>
</g>
<!-- Node5&#45;&gt;Node4 -->
<g id="edge6" class="edge">
<title>Node5&#45;&gt;Node4</title>
<path fill="none" stroke="midnightblue" d="M278.17,-56.46C279.46,-56.31 280.74,-56.15 282,-56 414.21,-40.15 570.21,-24.09 649.35,-16.13"/>
<polygon fill="midnightblue" stroke="midnightblue" points="277.67,-53 268.18,-57.71 278.53,-59.95 277.67,-53"/>
</g>
<!-- Node6&#45;&gt;Node4 -->
<g id="edge8" class="edge">
<title>Node6&#45;&gt;Node4</title>
<path fill="none" stroke="midnightblue" d="M441.61,-119.02C370.98,-114.59 275.38,-100.51 315,-56 336.87,-31.43 549.39,-18.18 649.42,-13.26"/>
<polygon fill="midnightblue" stroke="midnightblue" points="441.64,-122.53 451.83,-119.6 442.04,-115.54 441.64,-122.53"/>
</g>
<!-- Node7 -->
<g id="node7" class="node">
<title>Node7</title>
<g id="a_node7"><a xlink:href="../../d2/df7/NoteCCKPLED_8hpp.html" target="_top" xlink:title=" ">
<polygon fill="white" stroke="black" points="324,-56.5 324,-75.5 430,-75.5 430,-56.5 324,-56.5"/>
<text text-anchor="middle" x="377" y="-63.5" font-family="Helvetica,sans-Serif" font-size="10.00">NoteCCKPLED.hpp</text>
</a>
</g>
</g>
<!-- Node6&#45;&gt;Node7 -->
<g id="edge9" class="edge">
<title>Node6&#45;&gt;Node7</title>
<path fill="none" stroke="midnightblue" d="M478.78,-108.64C454.01,-98.5 419.6,-84.43 397.82,-75.52"/>
<polygon fill="midnightblue" stroke="midnightblue" points="477.5,-111.9 488.08,-112.44 480.15,-105.42 477.5,-111.9"/>
</g>
<!-- Node8 -->
<g id="node8" class="node">
<title>Node8</title>
<g id="a_node8"><a xlink:href="../../db/db4/NoteCCKPLEDBar_8hpp.html" target="_top" xlink:title=" ">
<polygon fill="white" stroke="black" points="448,-56.5 448,-75.5 570,-75.5 570,-56.5 448,-56.5"/>
<text text-anchor="middle" x="509" y="-63.5" font-family="Helvetica,sans-Serif" font-size="10.00">NoteCCKPLEDBar.hpp</text>
</a>
</g>
</g>
<!-- Node6&#45;&gt;Node8 -->
<g id="edge11" class="edge">
<title>Node6&#45;&gt;Node8</title>
<path fill="none" stroke="midnightblue" d="M509,-101.8C509,-92.91 509,-82.78 509,-75.75"/>
<polygon fill="midnightblue" stroke="midnightblue" points="505.5,-102.08 509,-112.08 512.5,-102.08 505.5,-102.08"/>
</g>
<!-- Node9 -->
<g id="node9" class="node">
<title>Node9</title>
<g id="a_node9"><a xlink:href="../../dd/d26/NoteCCKPLEDPWM_8hpp.html" target="_top" xlink:title=" ">
<polygon fill="white" stroke="black" points="588.5,-56.5 588.5,-75.5 719.5,-75.5 719.5,-56.5 588.5,-56.5"/>
<text text-anchor="middle" x="654" y="-63.5" font-family="Helvetica,sans-Serif" font-size="10.00">NoteCCKPLEDPWM.hpp</text>
</a>
</g>
</g>
<!-- Node6&#45;&gt;Node9 -->
<g id="edge13" class="edge">
<title>Node6&#45;&gt;Node9</title>
<path fill="none" stroke="midnightblue" d="M541.48,-108.91C568.74,-98.75 606.99,-84.51 631.13,-75.52"/>
<polygon fill="midnightblue" stroke="midnightblue" points="540.13,-105.67 531.98,-112.44 542.57,-112.23 540.13,-105.67"/>
</g>
<!-- Node7&#45;&gt;Node4 -->
<g id="edge10" class="edge">
<title>Node7&#45;&gt;Node4</title>
<path fill="none" stroke="midnightblue" d="M438.26,-54.79C499.48,-44.59 592.53,-29.08 649.9,-19.52"/>
<polygon fill="midnightblue" stroke="midnightblue" points="437.63,-51.35 428.34,-56.44 438.78,-58.25 437.63,-51.35"/>
</g>
<!-- Node8&#45;&gt;Node4 -->
<g id="edge12" class="edge">
<title>Node8&#45;&gt;Node4</title>
<path fill="none" stroke="midnightblue" d="M549.18,-53.7C585.42,-43.51 637.91,-28.74 670.72,-19.52"/>
<polygon fill="midnightblue" stroke="midnightblue" points="548.1,-50.37 539.42,-56.44 550,-57.11 548.1,-50.37"/>
</g>
<!-- Node9&#45;&gt;Node4 -->
<g id="edge14" class="edge">
<title>Node9&#45;&gt;Node4</title>
<path fill="none" stroke="midnightblue" d="M668.42,-48.43C676.66,-38.97 686.65,-27.48 693.38,-19.75"/>
<polygon fill="midnightblue" stroke="midnightblue" points="665.69,-46.24 661.76,-56.08 670.97,-50.84 665.69,-46.24"/>
</g>
<!-- Node10&#45;&gt;Node4 -->
<g id="edge16" class="edge">
<title>Node10&#45;&gt;Node4</title>
<path fill="none" stroke="midnightblue" d="M704.17,-106.16C713.72,-98.42 723.85,-88.05 729,-76 737.59,-55.89 720.7,-32.32 709.61,-19.82"/>
<polygon fill="midnightblue" stroke="midnightblue" points="701.96,-103.45 696.08,-112.26 706.17,-109.04 701.96,-103.45"/>
</g>
<!-- Node11&#45;&gt;Node4 -->
<g id="edge18" class="edge">
<title>Node11&#45;&gt;Node4</title>
<path fill="none" stroke="midnightblue" d="M775.94,-103.52C767.92,-90.07 756.06,-71.28 744,-56 733.29,-42.43 719.17,-28.24 710.09,-19.51"/>
<polygon fill="midnightblue" stroke="midnightblue" points="772.98,-105.38 781.05,-112.23 779.01,-101.84 772.98,-105.38"/>
</g>
<!-- Node12&#45;&gt;Node4 -->
<g id="edge20" class="edge">
<title>Node12&#45;&gt;Node4</title>
<path fill="none" stroke="midnightblue" d="M869.09,-107.3C828.95,-84.3 749.16,-38.59 716,-19.59"/>
<polygon fill="midnightblue" stroke="midnightblue" points="867.52,-110.43 877.93,-112.37 871,-104.36 867.52,-110.43"/>
</g>
<!-- Node13 -->
<g id="node13" class="node">
<title>Node13</title>
<g id="a_node13"><a xlink:href="../../dc/d48/VPotRingLEDs_8hpp.html" target="_top" xlink:title=" ">
<polygon fill="white" stroke="black" points="852,-56.5 852,-75.5 958,-75.5 958,-56.5 852,-56.5"/>
<text text-anchor="middle" x="905" y="-63.5" font-family="Helvetica,sans-Serif" font-size="10.00">VPotRingLEDs.hpp</text>
</a>
</g>
</g>
<!-- Node12&#45;&gt;Node13 -->
<g id="edge21" class="edge">
<title>Node12&#45;&gt;Node13</title>
<path fill="none" stroke="midnightblue" d="M897.2,-102.1C899.19,-93.14 901.48,-82.86 903.06,-75.75"/>
<polygon fill="midnightblue" stroke="midnightblue" points="893.73,-101.56 894.98,-112.08 900.57,-103.08 893.73,-101.56"/>
</g>
<!-- Node13&#45;&gt;Node4 -->
<g id="edge22" class="edge">
<title>Node13&#45;&gt;Node4</title>
<path fill="none" stroke="midnightblue" d="M862.8,-53.83C824.28,-43.63 768.18,-28.78 733.17,-19.52"/>
<polygon fill="midnightblue" stroke="midnightblue" points="862.11,-57.27 872.68,-56.44 863.9,-50.5 862.11,-57.27"/>
</g>
<!-- Node14&#45;&gt;Node4 -->
<g id="edge24" class="edge">
<title>Node14&#45;&gt;Node4</title>
<path fill="none" stroke="midnightblue" d="M985.66,-102.3C984.33,-87.54 980.02,-67.58 967,-56 936.03,-28.45 820.73,-17.49 752.51,-13.34"/>
<polygon fill="midnightblue" stroke="midnightblue" points="982.16,-102.53 986.18,-112.34 989.15,-102.17 982.16,-102.53"/>
</g>
<!-- Node15 -->
<g id="node15" class="node">
<title>Node15</title>
<g id="a_node15"><a xlink:href="../../de/d3d/VULEDs_8hpp.html" target="_top" xlink:title=" ">
<polygon fill="white" stroke="black" points="1014,-56.5 1014,-75.5 1090,-75.5 1090,-56.5 1014,-56.5"/>
<text text-anchor="middle" x="1052" y="-63.5" font-family="Helvetica,sans-Serif" font-size="10.00">VULEDs.hpp</text>
</a>
</g>
</g>
<!-- Node14&#45;&gt;Node15 -->
<g id="edge25" class="edge">
<title>Node14&#45;&gt;Node15</title>
<path fill="none" stroke="midnightblue" d="M1004.55,-105.82C1016.38,-96.15 1031.29,-83.95 1041.2,-75.83"/>
<polygon fill="midnightblue" stroke="midnightblue" points="1002.13,-103.28 996.6,-112.32 1006.56,-108.7 1002.13,-103.28"/>
</g>
<!-- Node15&#45;&gt;Node4 -->
<g id="edge26" class="edge">
<title>Node15&#45;&gt;Node4</title>
<path fill="none" stroke="midnightblue" d="M1003.86,-56.63C1002.56,-56.42 1001.27,-56.21 1000,-56 913.33,-41.98 812.29,-27.07 752.64,-18.42"/>
<polygon fill="midnightblue" stroke="midnightblue" points="1003.52,-60.12 1013.96,-58.32 1004.67,-53.22 1003.52,-60.12"/>
</g>
<!-- Node16&#45;&gt;Node4 -->
<g id="edge28" class="edge">
<title>Node16&#45;&gt;Node4</title>
<path fill="none" stroke="midnightblue" d="M1103.22,-102.31C1107.45,-87.88 1110.03,-68.35 1099,-56 1076.3,-30.59 855.06,-17.71 752.6,-13.07"/>
<polygon fill="midnightblue" stroke="midnightblue" points="1099.78,-101.55 1099.86,-112.15 1106.4,-103.81 1099.78,-101.55"/>
</g>
</g>
</svg>
