<?xml version="1.0" encoding="UTF-8" standalone="no"?>
<!DOCTYPE svg PUBLIC "-//W3C//DTD SVG 1.1//EN"
 "http://www.w3.org/Graphics/SVG/1.1/DTD/svg11.dtd">
<!-- Generated by graphviz version 2.43.0 (0)
 -->
<!-- Title: IValue14 Pages: 1 -->
<svg width="260pt" height="262pt"
 viewBox="0.00 0.00 260.00 262.00" xmlns="http://www.w3.org/2000/svg" xmlns:xlink="http://www.w3.org/1999/xlink">
<g id="graph0" class="graph" transform="scale(1 1) rotate(0) translate(4 258)">
<title>IValue14</title>
<!-- Node1 -->
<g id="Node000001" class="node">
<title>Node1</title>
<g id="a_Node000001"><a xlink:title="Abstract interface for MIDI input elements that receive and store a 14&#45;bit value.">
<polygon fill="#999999" stroke="transparent" points="174,-254 97,-254 97,-175 174,-175 174,-254"/>
<text text-anchor="start" x="114.5" y="-241.5" font-family="Helvetica,sans-Serif" font-size="10.00">IValue14</text>
<text text-anchor="start" x="101.5" y="-226.5" font-family="Helvetica,sans-Serif" font-size="10.00">#</text>
<text text-anchor="start" x="114.5" y="-226.5" font-family="Helvetica,sans-Serif" font-size="10.00">dirty</text>
<text text-anchor="start" x="101.5" y="-211.5" font-family="Helvetica,sans-Serif" font-size="10.00">+</text>
<text text-anchor="start" x="114.5" y="-211.5" font-family="Helvetica,sans-Serif" font-size="10.00">getValue()</text>
<text text-anchor="start" x="103" y="-196.5" font-family="Helvetica,sans-Serif" font-size="10.00">*</text>
<text text-anchor="start" x="114.5" y="-196.5" font-family="Helvetica,sans-Serif" font-size="10.00">getDirty()</text>
<text text-anchor="start" x="103" y="-181.5" font-family="Helvetica,sans-Serif" font-size="10.00">*</text>
<text text-anchor="start" x="114.5" y="-181.5" font-family="Helvetica,sans-Serif" font-size="10.00">clearDirty()</text>
<polygon fill="#666666" stroke="#666666" points="97.5,-236.5 97.5,-236.5 174.5,-236.5 174.5,-236.5 97.5,-236.5"/>
<polygon fill="#666666" stroke="#666666" points="97.5,-221.5 97.5,-221.5 112.5,-221.5 112.5,-221.5 97.5,-221.5"/>
<polygon fill="#666666" stroke="#666666" points="112.5,-221.5 112.5,-221.5 174.5,-221.5 174.5,-221.5 112.5,-221.5"/>
<polygon fill="none" stroke="#666666" points="97,-175 97,-254 174,-254 174,-175 97,-175"/>
</a>
</g>
</g>
<!-- Node2 -->
<g id="Node000002" class="node">
<title>Node2</title>
<g id="a_Node000002"><a xlink:href="../../d1/d78/classBankable_1_1PBValue.html" target="_top" xlink:title="Class that listens for MIDI Pitch Bend events on a single address and saves their value.">
<polygon fill="white" stroke="transparent" points="137,-139 0,-139 0,0 137,0 137,-139"/>
<text text-anchor="start" x="15" y="-126.5" font-family="Helvetica,sans-Serif" font-size="10.00">PBValue&lt; BankSize &gt;</text>
<text text-anchor="start" x="4.5" y="-111.5" font-family="Helvetica,sans-Serif" font-size="10.00">+</text>
<text text-anchor="start" x="17.5" y="-111.5" font-family="Helvetica,sans-Serif" font-size="10.00">MessageType</text>
<text text-anchor="start" x="7" y="-96.5" font-family="Helvetica,sans-Serif" font-size="10.00">&#45;</text>
<text text-anchor="start" x="17.5" y="-96.5" font-family="Helvetica,sans-Serif" font-size="10.00">values</text>
<text text-anchor="start" x="4.5" y="-81.5" font-family="Helvetica,sans-Serif" font-size="10.00">+</text>
<text text-anchor="start" x="17.5" y="-81.5" font-family="Helvetica,sans-Serif" font-size="10.00">PBValue()</text>
<text text-anchor="start" x="4.5" y="-66.5" font-family="Helvetica,sans-Serif" font-size="10.00">+</text>
<text text-anchor="start" x="17.5" y="-66.5" font-family="Helvetica,sans-Serif" font-size="10.00">reset()</text>
<text text-anchor="start" x="4.5" y="-51.5" font-family="Helvetica,sans-Serif" font-size="10.00">#</text>
<text text-anchor="start" x="17.5" y="-51.5" font-family="Helvetica,sans-Serif" font-size="10.00">handleUpdate()</text>
<text text-anchor="start" x="4.5" y="-36.5" font-family="Helvetica,sans-Serif" font-size="10.00">#</text>
<text text-anchor="start" x="17.5" y="-36.5" font-family="Helvetica,sans-Serif" font-size="10.00">onBankSettingChange()</text>
<text text-anchor="start" x="6" y="-21.5" font-family="Helvetica,sans-Serif" font-size="10.00">*</text>
<text text-anchor="start" x="17.5" y="-21.5" font-family="Helvetica,sans-Serif" font-size="10.00">getValue()</text>
<text text-anchor="start" x="6" y="-6.5" font-family="Helvetica,sans-Serif" font-size="10.00">*</text>
<text text-anchor="start" x="17.5" y="-6.5" font-family="Helvetica,sans-Serif" font-size="10.00">getValue()</text>
<polygon fill="#666666" stroke="#666666" points="0.5,-121.5 0.5,-121.5 137.5,-121.5 137.5,-121.5 0.5,-121.5"/>
<polygon fill="#666666" stroke="#666666" points="0.5,-91.5 0.5,-91.5 15.5,-91.5 15.5,-91.5 0.5,-91.5"/>
<polygon fill="#666666" stroke="#666666" points="15.5,-91.5 15.5,-91.5 137.5,-91.5 137.5,-91.5 15.5,-91.5"/>
<polygon fill="none" stroke="#666666" points="0,0 0,-139 137,-139 137,0 0,0"/>
</a>
</g>
</g>
<!-- Node1&#45;&gt;Node2 -->
<g id="edge1_Node000001_Node000002" class="edge">
<title>Node1&#45;&gt;Node2</title>
<g id="a_edge1_Node000001_Node000002"><a xlink:title=" ">
<path fill="none" stroke="#63b8ff" d="M113.02,-165.51C109.06,-157.07 104.88,-148.14 100.72,-139.26"/>
<polygon fill="none" stroke="#63b8ff" points="109.96,-167.23 117.37,-174.8 116.3,-164.26 109.96,-167.23"/>
</a>
</g>
</g>
<!-- Node3 -->
<g id="Node000003" class="node">
<title>Node3</title>
<g id="a_Node000003"><a xlink:href="../../d2/d47/classPBValue.html" target="_top" xlink:title="Class that listens for MIDI Pitch Bend events on a single address and saves their value.">
<polygon fill="white" stroke="transparent" points="252,-116.5 155,-116.5 155,-22.5 252,-22.5 252,-116.5"/>
<text text-anchor="start" x="184" y="-104.5" font-family="Helvetica,sans-Serif" font-size="10.00">PBValue</text>
<text text-anchor="start" x="162" y="-89.5" font-family="Helvetica,sans-Serif" font-size="10.00">&#45;</text>
<text text-anchor="start" x="172.5" y="-89.5" font-family="Helvetica,sans-Serif" font-size="10.00">value</text>
<text text-anchor="start" x="159.5" y="-74.5" font-family="Helvetica,sans-Serif" font-size="10.00">+</text>
<text text-anchor="start" x="172.5" y="-74.5" font-family="Helvetica,sans-Serif" font-size="10.00">PBValue()</text>
<text text-anchor="start" x="159.5" y="-59.5" font-family="Helvetica,sans-Serif" font-size="10.00">+</text>
<text text-anchor="start" x="172.5" y="-59.5" font-family="Helvetica,sans-Serif" font-size="10.00">reset()</text>
<text text-anchor="start" x="159.5" y="-44.5" font-family="Helvetica,sans-Serif" font-size="10.00">#</text>
<text text-anchor="start" x="172.5" y="-44.5" font-family="Helvetica,sans-Serif" font-size="10.00">handleUpdate()</text>
<text text-anchor="start" x="161" y="-29.5" font-family="Helvetica,sans-Serif" font-size="10.00">*</text>
<text text-anchor="start" x="172.5" y="-29.5" font-family="Helvetica,sans-Serif" font-size="10.00">getValue()</text>
<polygon fill="#666666" stroke="#666666" points="155.5,-99.5 155.5,-99.5 252.5,-99.5 252.5,-99.5 155.5,-99.5"/>
<polygon fill="#666666" stroke="#666666" points="155.5,-84.5 155.5,-84.5 170.5,-84.5 170.5,-84.5 155.5,-84.5"/>
<polygon fill="#666666" stroke="#666666" points="170.5,-84.5 170.5,-84.5 252.5,-84.5 252.5,-84.5 170.5,-84.5"/>
<polygon fill="none" stroke="#666666" points="155,-22.5 155,-116.5 252,-116.5 252,-22.5 155,-22.5"/>
</a>
</g>
</g>
<!-- Node1&#45;&gt;Node3 -->
<g id="edge2_Node000001_Node000003" class="edge">
<title>Node1&#45;&gt;Node3</title>
<g id="a_edge2_Node000001_Node000003"><a xlink:title=" ">
<path fill="none" stroke="#63b8ff" d="M158.22,-165.71C165.75,-149.88 174.11,-132.3 181.58,-116.6"/>
<polygon fill="none" stroke="#63b8ff" points="155.04,-164.27 153.9,-174.8 161.36,-167.27 155.04,-164.27"/>
</a>
</g>
</g>
</g>
</svg>
