<?xml version="1.0" encoding="UTF-8" standalone="no"?>
<!DOCTYPE svg PUBLIC "-//W3C//DTD SVG 1.1//EN"
 "http://www.w3.org/Graphics/SVG/1.1/DTD/svg11.dtd">
<!-- Generated by graphviz version 2.43.0 (0)
 -->
<!-- Title: BankableOneByteMIDIMatcher&lt; BankSize &gt;::Result Pages: 1 -->
<svg width="168pt" height="98pt"
 viewBox="0.00 0.00 168.00 98.00" xmlns="http://www.w3.org/2000/svg" xmlns:xlink="http://www.w3.org/1999/xlink">
<g id="graph0" class="graph" transform="scale(1 1) rotate(0) translate(4 94)">
<title>BankableOneByteMIDIMatcher&lt; BankSize &gt;::Result</title>
<!-- Node1 -->
<g id="Node000001" class="node">
<title>Node1</title>
<g id="a_Node000001"><a xlink:title=" ">
<polygon fill="#999999" stroke="transparent" points="160,-90 0,-90 0,0 160,0 160,-90"/>
<text text-anchor="start" x="5" y="-78" font-family="Helvetica,sans-Serif" font-size="10.00">BankableOneByteMIDIMatcher</text>
<text text-anchor="start" x="27.5" y="-67" font-family="Helvetica,sans-Serif" font-size="10.00">&lt; BankSize &gt;::Result</text>
<text text-anchor="start" x="25.5" y="-52" font-family="Helvetica,sans-Serif" font-size="10.00">+</text>
<text text-anchor="start" x="60" y="-52" font-family="Helvetica,sans-Serif" font-size="10.00">match</text>
<text text-anchor="start" x="25.5" y="-37" font-family="Helvetica,sans-Serif" font-size="10.00">+</text>
<text text-anchor="start" x="60" y="-37" font-family="Helvetica,sans-Serif" font-size="10.00">value</text>
<text text-anchor="start" x="25.5" y="-22" font-family="Helvetica,sans-Serif" font-size="10.00">+</text>
<text text-anchor="start" x="60" y="-22" font-family="Helvetica,sans-Serif" font-size="10.00">bankIndex</text>
<text text-anchor="start" x="78" y="-7" font-family="Helvetica,sans-Serif" font-size="10.00"> </text>
<polygon fill="#666666" stroke="#666666" points="0,-62 0,-62 160,-62 160,-62 0,-62"/>
<polygon fill="#666666" stroke="#666666" points="0,-17 0,-17 58,-17 58,-17 0,-17"/>
<polygon fill="#666666" stroke="#666666" points="58,-17 58,-17 160,-17 160,-17 58,-17"/>
<polygon fill="none" stroke="#666666" points="0,0 0,-90 160,-90 160,0 0,0"/>
</a>
</g>
</g>
</g>
</svg>
