<?xml version="1.0" encoding="UTF-8" standalone="no"?>
<!DOCTYPE svg PUBLIC "-//W3C//DTD SVG 1.1//EN"
 "http://www.w3.org/Graphics/SVG/1.1/DTD/svg11.dtd">
<!-- Generated by graphviz version 2.38.0 (20140413.2041)
 -->
<!-- Title: BitArray.hpp Pages: 1 -->
<svg width="629pt" height="364pt"
 viewBox="0.00 0.00 629.03 364.00" xmlns="http://www.w3.org/2000/svg" xmlns:xlink="http://www.w3.org/1999/xlink">
<g id="graph0" class="graph" transform="scale(1 1) rotate(0) translate(4 360)">
<title>BitArray.hpp</title>
<polygon fill="white" stroke="none" points="-4,4 -4,-360 625.033,-360 625.033,4 -4,4"/>
<!-- Node1 -->
<g id="node1" class="node"><title>Node1</title>
<g id="a_node1"><a xlink:title=" ">
<polygon fill="#bfbfbf" stroke="black" points="17.5333,-336.5 17.5333,-355.5 88.5333,-355.5 88.5333,-336.5 17.5333,-336.5"/>
<text text-anchor="middle" x="53.0333" y="-343.5" font-family="Helvetica,sans-Serif" font-size="10.00">BitArray.hpp</text>
</a>
</g>
</g>
<!-- Node2 -->
<g id="node2" class="node"><title>Node2</title>
<g id="a_node2"><a xlink:href="../../d1/d93/Error_8hpp.html" target="_top" xlink:title=" ">
<polygon fill="white" stroke="black" points="125.033,-280.5 125.033,-299.5 223.033,-299.5 223.033,-280.5 125.033,-280.5"/>
<text text-anchor="middle" x="174.033" y="-287.5" font-family="Helvetica,sans-Serif" font-size="10.00">AH/Error/Error.hpp</text>
</a>
</g>
</g>
<!-- Node1&#45;&gt;Node2 -->
<g id="edge1" class="edge"><title>Node1&#45;&gt;Node2</title>
<path fill="none" stroke="midnightblue" d="M72.2061,-336.444C91.9425,-327.636 122.918,-313.812 145.527,-303.722"/>
<polygon fill="midnightblue" stroke="midnightblue" points="147.245,-306.788 154.95,-299.516 144.392,-300.396 147.245,-306.788"/>
</g>
<!-- Node7 -->
<g id="node7" class="node"><title>Node7</title>
<g id="a_node7"><a xlink:href="../../dc/dc7/NamespaceSettings_8hpp.html" target="_top" xlink:title=" ">
<polygon fill="white" stroke="black" points="44.0333,-0.5 44.0333,-19.5 168.033,-19.5 168.033,-0.5 44.0333,-0.5"/>
<text text-anchor="middle" x="106.033" y="-7.5" font-family="Helvetica,sans-Serif" font-size="10.00">NamespaceSettings.hpp</text>
</a>
</g>
</g>
<!-- Node1&#45;&gt;Node7 -->
<g id="edge18" class="edge"><title>Node1&#45;&gt;Node7</title>
<path fill="none" stroke="midnightblue" d="M45.4397,-336.281C30.7847,-318.523 0.0333068,-276.337 0.0333068,-235 0.0333068,-235 0.0333068,-235 0.0333068,-121 0.0333068,-90.9022 -0.0999205,-79.2335 19.0333,-56 31.3231,-41.0765 49.8552,-30.533 66.6616,-23.4225"/>
<polygon fill="midnightblue" stroke="midnightblue" points="68.2767,-26.548 76.2972,-19.6254 65.7103,-20.0354 68.2767,-26.548"/>
</g>
<!-- Node13 -->
<g id="node13" class="node"><title>Node13</title>
<g id="a_node13"><a xlink:title=" ">
<polygon fill="white" stroke="#bfbfbf" points="28.5333,-56.5 28.5333,-75.5 77.5333,-75.5 77.5333,-56.5 28.5333,-56.5"/>
<text text-anchor="middle" x="53.0333" y="-63.5" font-family="Helvetica,sans-Serif" font-size="10.00">stdint.h</text>
</a>
</g>
</g>
<!-- Node1&#45;&gt;Node13 -->
<g id="edge19" class="edge"><title>Node1&#45;&gt;Node13</title>
<path fill="none" stroke="midnightblue" d="M53.0333,-336.442C53.0333,-317.936 53.0333,-272.812 53.0333,-235 53.0333,-235 53.0333,-235 53.0333,-177 53.0333,-144.948 53.0333,-107.643 53.0333,-85.7489"/>
<polygon fill="midnightblue" stroke="midnightblue" points="56.5334,-85.5577 53.0333,-75.5578 49.5334,-85.5578 56.5334,-85.5577"/>
</g>
<!-- Node3 -->
<g id="node3" class="node"><title>Node3</title>
<g id="a_node3"><a xlink:href="../../df/dee/Debug_8hpp.html" target="_top" xlink:title=" ">
<polygon fill="white" stroke="black" points="192.533,-224.5 192.533,-243.5 305.533,-243.5 305.533,-224.5 192.533,-224.5"/>
<text text-anchor="middle" x="249.033" y="-231.5" font-family="Helvetica,sans-Serif" font-size="10.00">AH/Debug/Debug.hpp</text>
</a>
</g>
</g>
<!-- Node2&#45;&gt;Node3 -->
<g id="edge2" class="edge"><title>Node2&#45;&gt;Node3</title>
<path fill="none" stroke="midnightblue" d="M186.083,-280.324C197.496,-272.107 214.864,-259.602 228.468,-249.807"/>
<polygon fill="midnightblue" stroke="midnightblue" points="230.694,-252.517 236.764,-243.834 226.604,-246.837 230.694,-252.517"/>
</g>
<!-- Node4 -->
<g id="node4" class="node"><title>Node4</title>
<g id="a_node4"><a xlink:title=" ">
<polygon fill="white" stroke="#bfbfbf" points="563.033,-0.5 563.033,-19.5 621.033,-19.5 621.033,-0.5 563.033,-0.5"/>
<text text-anchor="middle" x="592.033" y="-7.5" font-family="Helvetica,sans-Serif" font-size="10.00">Arduino.h</text>
</a>
</g>
</g>
<!-- Node3&#45;&gt;Node4 -->
<g id="edge3" class="edge"><title>Node3&#45;&gt;Node4</title>
<path fill="none" stroke="midnightblue" d="M305.788,-231.211C382.161,-227.697 512.651,-217.449 549.033,-188 596.926,-149.235 596.825,-66.945 594.043,-29.8406"/>
<polygon fill="midnightblue" stroke="midnightblue" points="597.529,-29.5194 593.144,-19.8744 590.557,-30.1484 597.529,-29.5194"/>
</g>
<!-- Node5 -->
<g id="node5" class="node"><title>Node5</title>
<g id="a_node5"><a xlink:href="../../dd/d80/PrintStream_8hpp.html" target="_top" xlink:title=" ">
<polygon fill="white" stroke="black" points="381.533,-168.5 381.533,-187.5 540.533,-187.5 540.533,-168.5 381.533,-168.5"/>
<text text-anchor="middle" x="461.033" y="-175.5" font-family="Helvetica,sans-Serif" font-size="10.00">AH/PrintStream/PrintStream.hpp</text>
</a>
</g>
</g>
<!-- Node3&#45;&gt;Node5 -->
<g id="edge4" class="edge"><title>Node3&#45;&gt;Node5</title>
<path fill="none" stroke="midnightblue" d="M282.625,-224.444C319.221,-215.122 377.871,-200.183 417.859,-189.997"/>
<polygon fill="midnightblue" stroke="midnightblue" points="418.772,-193.377 427.598,-187.516 417.044,-186.593 418.772,-193.377"/>
</g>
<!-- Node6 -->
<g id="node6" class="node"><title>Node6</title>
<g id="a_node6"><a xlink:href="../../d2/dd5/SettingsWrapper_8hpp.html" target="_top" xlink:title=" ">
<polygon fill="white" stroke="black" points="167.033,-168.5 167.033,-187.5 331.033,-187.5 331.033,-168.5 167.033,-168.5"/>
<text text-anchor="middle" x="249.033" y="-175.5" font-family="Helvetica,sans-Serif" font-size="10.00">AH/Settings/SettingsWrapper.hpp</text>
</a>
</g>
</g>
<!-- Node3&#45;&gt;Node6 -->
<g id="edge6" class="edge"><title>Node3&#45;&gt;Node6</title>
<path fill="none" stroke="midnightblue" d="M243.867,-224.083C242.357,-216.927 241.927,-206.635 242.576,-197.691"/>
<polygon fill="midnightblue" stroke="midnightblue" points="246.049,-198.126 243.902,-187.751 239.11,-197.2 246.049,-198.126"/>
</g>
<!-- Node5&#45;&gt;Node4 -->
<g id="edge5" class="edge"><title>Node5&#45;&gt;Node4</title>
<path fill="none" stroke="midnightblue" d="M474.625,-168.479C498.212,-152.988 546.718,-117.909 573.033,-76 581.923,-61.8426 586.799,-43.3599 589.377,-29.724"/>
<polygon fill="midnightblue" stroke="midnightblue" points="592.871,-30.0467 591.041,-19.6112 585.964,-28.9106 592.871,-30.0467"/>
</g>
<!-- Node6&#45;&gt;Node3 -->
<g id="edge17" class="edge"><title>Node6&#45;&gt;Node3</title>
<path fill="none" stroke="midnightblue" d="M254.164,-187.751C255.691,-194.858 256.138,-205.136 255.506,-214.101"/>
<polygon fill="midnightblue" stroke="midnightblue" points="252.027,-213.713 254.2,-224.083 258.967,-214.622 252.027,-213.713"/>
</g>
<!-- Node6&#45;&gt;Node7 -->
<g id="edge7" class="edge"><title>Node6&#45;&gt;Node7</title>
<path fill="none" stroke="midnightblue" d="M188.712,-168.496C165.516,-162.181 140.835,-151.176 125.033,-132 101.003,-102.838 101.179,-55.858 103.535,-29.8486"/>
<polygon fill="midnightblue" stroke="midnightblue" points="107.025,-30.131 104.652,-19.8053 100.068,-29.3568 107.025,-30.131"/>
</g>
<!-- Node8 -->
<g id="node8" class="node"><title>Node8</title>
<g id="a_node8"><a xlink:href="../../db/d02/Settings_8hpp.html" target="_top" xlink:title="All user settings and debugging options can be changed here.">
<polygon fill="white" stroke="black" points="320.533,-112.5 320.533,-131.5 391.533,-131.5 391.533,-112.5 320.533,-112.5"/>
<text text-anchor="middle" x="356.033" y="-119.5" font-family="Helvetica,sans-Serif" font-size="10.00">Settings.hpp</text>
</a>
</g>
</g>
<!-- Node6&#45;&gt;Node8 -->
<g id="edge8" class="edge"><title>Node6&#45;&gt;Node8</title>
<path fill="none" stroke="midnightblue" d="M266.225,-168.324C283.384,-159.664 309.979,-146.242 329.781,-136.249"/>
<polygon fill="midnightblue" stroke="midnightblue" points="331.534,-139.285 338.885,-131.655 328.38,-133.035 331.534,-139.285"/>
</g>
<!-- Node14 -->
<g id="node14" class="node"><title>Node14</title>
<g id="a_node14"><a xlink:href="../../d9/d98/TeensyUSBTypes_8hpp.html" target="_top" xlink:title=" ">
<polygon fill="white" stroke="black" points="134.033,-112.5 134.033,-131.5 302.033,-131.5 302.033,-112.5 134.033,-112.5"/>
<text text-anchor="middle" x="218.033" y="-119.5" font-family="Helvetica,sans-Serif" font-size="10.00">AH/Teensy/TeensyUSBTypes.hpp</text>
</a>
</g>
</g>
<!-- Node6&#45;&gt;Node14 -->
<g id="edge16" class="edge"><title>Node6&#45;&gt;Node14</title>
<path fill="none" stroke="midnightblue" d="M243.914,-168.083C239.626,-160.613 233.375,-149.724 228.091,-140.52"/>
<polygon fill="midnightblue" stroke="midnightblue" points="231.071,-138.681 223.057,-131.751 225,-142.166 231.071,-138.681"/>
</g>
<!-- Node9 -->
<g id="node9" class="node"><title>Node9</title>
<g id="a_node9"><a xlink:href="../../dc/d50/Frequency_8hpp.html" target="_top" xlink:title=" ">
<polygon fill="white" stroke="black" points="200.033,-56.5 200.033,-75.5 328.033,-75.5 328.033,-56.5 200.033,-56.5"/>
<text text-anchor="middle" x="264.033" y="-63.5" font-family="Helvetica,sans-Serif" font-size="10.00">AH/Types/Frequency.hpp</text>
</a>
</g>
</g>
<!-- Node8&#45;&gt;Node9 -->
<g id="edge9" class="edge"><title>Node8&#45;&gt;Node9</title>
<path fill="none" stroke="midnightblue" d="M341.252,-112.324C326.766,-103.822 304.46,-90.7288 287.54,-80.7975"/>
<polygon fill="midnightblue" stroke="midnightblue" points="289.174,-77.6981 278.778,-75.6545 285.63,-83.735 289.174,-77.6981"/>
</g>
<!-- Node10 -->
<g id="node10" class="node"><title>Node10</title>
<g id="a_node10"><a xlink:href="../../d7/d7c/ADCConfig_8hpp.html" target="_top" xlink:title="This file contains the platform&#45;specific ADC resolutions. By default, the library automatically selec...">
<polygon fill="white" stroke="black" points="416.033,-56.5 416.033,-75.5 564.033,-75.5 564.033,-56.5 416.033,-56.5"/>
<text text-anchor="middle" x="490.033" y="-63.5" font-family="Helvetica,sans-Serif" font-size="10.00">AH/Hardware/ADCConfig.hpp</text>
</a>
</g>
</g>
<!-- Node8&#45;&gt;Node10 -->
<g id="edge11" class="edge"><title>Node8&#45;&gt;Node10</title>
<path fill="none" stroke="midnightblue" d="M377.266,-112.444C399.417,-103.517 434.352,-89.4387 459.469,-79.3168"/>
<polygon fill="midnightblue" stroke="midnightblue" points="460.933,-82.5006 468.9,-75.5164 458.317,-76.0079 460.933,-82.5006"/>
</g>
<!-- Node11 -->
<g id="node11" class="node"><title>Node11</title>
<g id="a_node11"><a xlink:title=" ">
<polygon fill="white" stroke="#bfbfbf" points="134.033,-56.5 134.033,-75.5 182.033,-75.5 182.033,-56.5 134.033,-56.5"/>
<text text-anchor="middle" x="158.033" y="-63.5" font-family="Helvetica,sans-Serif" font-size="10.00">limits.h</text>
</a>
</g>
</g>
<!-- Node8&#45;&gt;Node11 -->
<g id="edge13" class="edge"><title>Node8&#45;&gt;Node11</title>
<path fill="none" stroke="midnightblue" d="M324.66,-112.444C288.478,-102.576 229.213,-86.4126 191.978,-76.2577"/>
<polygon fill="midnightblue" stroke="midnightblue" points="192.666,-72.8176 182.098,-73.5631 190.825,-79.571 192.666,-72.8176"/>
</g>
<!-- Node12 -->
<g id="node12" class="node"><title>Node12</title>
<g id="a_node12"><a xlink:title=" ">
<polygon fill="white" stroke="#bfbfbf" points="346.033,-56.5 346.033,-75.5 398.033,-75.5 398.033,-56.5 346.033,-56.5"/>
<text text-anchor="middle" x="372.033" y="-63.5" font-family="Helvetica,sans-Serif" font-size="10.00">stddef.h</text>
</a>
</g>
</g>
<!-- Node8&#45;&gt;Node12 -->
<g id="edge14" class="edge"><title>Node8&#45;&gt;Node12</title>
<path fill="none" stroke="midnightblue" d="M358.675,-112.083C360.819,-104.849 363.912,-94.4087 366.582,-85.3968"/>
<polygon fill="midnightblue" stroke="midnightblue" points="369.955,-86.3334 369.44,-75.7511 363.244,-84.3447 369.955,-86.3334"/>
</g>
<!-- Node8&#45;&gt;Node13 -->
<g id="edge15" class="edge"><title>Node8&#45;&gt;Node13</title>
<path fill="none" stroke="midnightblue" d="M320.187,-113.748C317.093,-113.147 314.009,-112.557 311.033,-112 231.132,-97.0441 137,-81.0302 87.4833,-72.7304"/>
<polygon fill="midnightblue" stroke="midnightblue" points="88.0558,-69.2776 77.6153,-71.0796 86.9007,-76.1817 88.0558,-69.2776"/>
</g>
<!-- Node9&#45;&gt;Node7 -->
<g id="edge10" class="edge"><title>Node9&#45;&gt;Node7</title>
<path fill="none" stroke="midnightblue" d="M238.998,-56.4435C212.417,-47.3591 170.224,-32.9388 140.51,-22.7831"/>
<polygon fill="midnightblue" stroke="midnightblue" points="141.546,-19.4386 130.952,-19.5164 139.282,-26.0625 141.546,-19.4386"/>
</g>
<!-- Node10&#45;&gt;Node4 -->
<g id="edge12" class="edge"><title>Node10&#45;&gt;Node4</title>
<path fill="none" stroke="midnightblue" d="M506.421,-56.324C522.705,-47.7034 547.901,-34.3643 566.75,-24.3855"/>
<polygon fill="midnightblue" stroke="midnightblue" points="568.486,-27.4267 575.686,-19.6545 565.21,-21.2402 568.486,-27.4267"/>
</g>
</g>
</svg>
