<?xml version="1.0" encoding="UTF-8" standalone="no"?>
<!DOCTYPE svg PUBLIC "-//W3C//DTD SVG 1.1//EN"
 "http://www.w3.org/Graphics/SVG/1.1/DTD/svg11.dtd">
<!-- Generated by graphviz version 2.43.0 (0)
 -->
<!-- Title: BankableVPotMatcher&lt; BankSize &gt; Pages: 1 -->
<svg width="192pt" height="259pt"
 viewBox="0.00 0.00 192.00 259.00" xmlns="http://www.w3.org/2000/svg" xmlns:xlink="http://www.w3.org/1999/xlink">
<g id="graph0" class="graph" transform="scale(1 1) rotate(0) translate(4 255)">
<title>BankableVPotMatcher&lt; BankSize &gt;</title>
<polygon fill="white" stroke="transparent" points="-4,4 -4,-255 188,-255 188,4 -4,4"/>
<!-- Node1 -->
<g id="node1" class="node">
<title>Node1</title>
<g id="a_node1"><a xlink:title="MIDI Input matcher for Mackie Control Universal VPot LED rings with bank support.">
<polygon fill="#bfbfbf" stroke="black" points="20.5,-0.5 20.5,-68.5 163.5,-68.5 163.5,-0.5 20.5,-0.5"/>
<text text-anchor="start" x="28.5" y="-56.5" font-family="Helvetica,sans-Serif" font-size="10.00">BankableVPotMatcher</text>
<text text-anchor="middle" x="92" y="-45.5" font-family="Helvetica,sans-Serif" font-size="10.00">&lt; BankSize &gt;</text>
<polyline fill="none" stroke="black" points="20.5,-38.5 163.5,-38.5 "/>
<text text-anchor="middle" x="92" y="-26.5" font-family="Helvetica,sans-Serif" font-size="10.00"> </text>
<polyline fill="none" stroke="black" points="20.5,-19.5 163.5,-19.5 "/>
<text text-anchor="start" x="28.5" y="-7.5" font-family="Helvetica,sans-Serif" font-size="10.00">+ BankableVPotMatcher()</text>
</a>
</g>
</g>
<!-- Node2 -->
<g id="node2" class="node">
<title>Node2</title>
<g id="a_node2"><a xlink:href="../../d3/d28/structBankableTwoByteMIDIMatcher.html" target="_top" xlink:title="Matcher for MIDI messages with 2 data bytes, such as Note On/Off, Control Change, Key Pressure.">
<polygon fill="white" stroke="black" points="0,-105.5 0,-250.5 184,-250.5 184,-105.5 0,-105.5"/>
<text text-anchor="start" x="8" y="-238.5" font-family="Helvetica,sans-Serif" font-size="10.00">BankableTwoByteMIDIMatcher</text>
<text text-anchor="middle" x="92" y="-227.5" font-family="Helvetica,sans-Serif" font-size="10.00">&lt; BankSize &gt;</text>
<polyline fill="none" stroke="black" points="0,-220.5 184,-220.5 "/>
<text text-anchor="start" x="8" y="-208.5" font-family="Helvetica,sans-Serif" font-size="10.00">+ config</text>
<text text-anchor="start" x="8" y="-197.5" font-family="Helvetica,sans-Serif" font-size="10.00">+ address</text>
<polyline fill="none" stroke="black" points="0,-190.5 184,-190.5 "/>
<text text-anchor="start" x="8" y="-178.5" font-family="Helvetica,sans-Serif" font-size="10.00">+ BankableTwoByteMIDIMatcher()</text>
<text text-anchor="start" x="8" y="-167.5" font-family="Helvetica,sans-Serif" font-size="10.00">+ operator()()</text>
<text text-anchor="start" x="8" y="-156.5" font-family="Helvetica,sans-Serif" font-size="10.00">+ getBank()</text>
<text text-anchor="start" x="8" y="-145.5" font-family="Helvetica,sans-Serif" font-size="10.00">+ getBank()</text>
<text text-anchor="start" x="8" y="-134.5" font-family="Helvetica,sans-Serif" font-size="10.00">+ getBankType()</text>
<text text-anchor="start" x="8" y="-123.5" font-family="Helvetica,sans-Serif" font-size="10.00">+ getSelection()</text>
<text text-anchor="start" x="8" y="-112.5" font-family="Helvetica,sans-Serif" font-size="10.00">+ getBankSize()</text>
</a>
</g>
</g>
<!-- Node2&#45;&gt;Node1 -->
<g id="edge1" class="edge">
<title>Node2&#45;&gt;Node1</title>
<path fill="none" stroke="midnightblue" d="M92,-95.19C92,-85.83 92,-76.73 92,-68.58"/>
<polygon fill="none" stroke="midnightblue" points="88.5,-95.42 92,-105.42 95.5,-95.42 88.5,-95.42"/>
</g>
</g>
</svg>
