<?xml version="1.0" encoding="UTF-8" standalone="no"?>
<!DOCTYPE svg PUBLIC "-//W3C//DTD SVG 1.1//EN"
 "http://www.w3.org/Graphics/SVG/1.1/DTD/svg11.dtd">
<!-- Generated by graphviz version 2.43.0 (0)
 -->
<!-- Title: Updatable&lt; T &gt; Pages: 1 -->
<svg width="442pt" height="687pt"
 viewBox="0.00 0.00 441.50 687.00" xmlns="http://www.w3.org/2000/svg" xmlns:xlink="http://www.w3.org/1999/xlink">
<g id="graph0" class="graph" transform="scale(1 1) rotate(0) translate(4 683)">
<title>Updatable&lt; T &gt;</title>
<!-- Node1 -->
<g id="Node000001" class="node">
<title>Node1</title>
<g id="a_Node000001"><a xlink:title="A super class for object that have to be updated regularly.">
<polygon fill="#999999" stroke="transparent" points="89,-432 0,-432 0,-338 89,-338 89,-432"/>
<text text-anchor="start" x="5.5" y="-420" font-family="Helvetica,sans-Serif" font-size="10.00">Updatable&lt; T &gt;</text>
<text text-anchor="start" x="43" y="-405" font-family="Helvetica,sans-Serif" font-size="10.00"> </text>
<text text-anchor="start" x="8.5" y="-390" font-family="Helvetica,sans-Serif" font-size="10.00">*</text>
<text text-anchor="start" x="22.5" y="-390" font-family="Helvetica,sans-Serif" font-size="10.00">begin()</text>
<text text-anchor="start" x="8.5" y="-375" font-family="Helvetica,sans-Serif" font-size="10.00">*</text>
<text text-anchor="start" x="22.5" y="-375" font-family="Helvetica,sans-Serif" font-size="10.00">update()</text>
<text text-anchor="start" x="8.5" y="-360" font-family="Helvetica,sans-Serif" font-size="10.00">*</text>
<text text-anchor="start" x="22.5" y="-360" font-family="Helvetica,sans-Serif" font-size="10.00">beginAll()</text>
<text text-anchor="start" x="8.5" y="-345" font-family="Helvetica,sans-Serif" font-size="10.00">*</text>
<text text-anchor="start" x="22.5" y="-345" font-family="Helvetica,sans-Serif" font-size="10.00">updateAll()</text>
<polygon fill="#666666" stroke="#666666" points="0.5,-415 0.5,-415 89.5,-415 89.5,-415 0.5,-415"/>
<polygon fill="#666666" stroke="#666666" points="0.5,-400 0.5,-400 89.5,-400 89.5,-400 0.5,-400"/>
<polygon fill="none" stroke="#666666" points="0,-338 0,-432 89,-432 89,-338 0,-338"/>
</a>
</g>
</g>
<!-- Node2 -->
<g id="Node000002" class="node">
<title>Node2</title>
<g id="a_Node000002"><a xlink:href="../../d8/d1a/classAH_1_1UpdatableCRTP.html" target="_top" xlink:title=" ">
<polygon fill="white" stroke="transparent" points="225,-679 78,-679 78,-514 225,-514 225,-679"/>
<text text-anchor="start" x="83.5" y="-666.5" font-family="Helvetica,sans-Serif" font-size="10.00">UpdatableCRTP&lt; Updatable</text>
<text text-anchor="start" x="91.5" y="-655.5" font-family="Helvetica,sans-Serif" font-size="10.00">&lt; NormalUpdatable &gt; &gt;</text>
<text text-anchor="start" x="91" y="-640.5" font-family="Helvetica,sans-Serif" font-size="10.00">#</text>
<text text-anchor="start" x="112.5" y="-640.5" font-family="Helvetica,sans-Serif" font-size="10.00">next</text>
<text text-anchor="start" x="91" y="-625.5" font-family="Helvetica,sans-Serif" font-size="10.00">#</text>
<text text-anchor="start" x="112.5" y="-625.5" font-family="Helvetica,sans-Serif" font-size="10.00">previous</text>
<text text-anchor="start" x="91" y="-610.5" font-family="Helvetica,sans-Serif" font-size="10.00">+</text>
<text text-anchor="start" x="112.5" y="-610.5" font-family="Helvetica,sans-Serif" font-size="10.00">~UpdatableCRTP()</text>
<text text-anchor="start" x="91" y="-595.5" font-family="Helvetica,sans-Serif" font-size="10.00">#</text>
<text text-anchor="start" x="112.5" y="-595.5" font-family="Helvetica,sans-Serif" font-size="10.00">UpdatableCRTP()</text>
<text text-anchor="start" x="91" y="-580.5" font-family="Helvetica,sans-Serif" font-size="10.00">#</text>
<text text-anchor="start" x="112.5" y="-580.5" font-family="Helvetica,sans-Serif" font-size="10.00">operator=()</text>
<text text-anchor="start" x="92.5" y="-565.5" font-family="Helvetica,sans-Serif" font-size="10.00">*</text>
<text text-anchor="start" x="112.5" y="-565.5" font-family="Helvetica,sans-Serif" font-size="10.00">enable()</text>
<text text-anchor="start" x="92.5" y="-550.5" font-family="Helvetica,sans-Serif" font-size="10.00">*</text>
<text text-anchor="start" x="112.5" y="-550.5" font-family="Helvetica,sans-Serif" font-size="10.00">disable()</text>
<text text-anchor="start" x="92.5" y="-535.5" font-family="Helvetica,sans-Serif" font-size="10.00">*</text>
<text text-anchor="start" x="112.5" y="-535.5" font-family="Helvetica,sans-Serif" font-size="10.00">isEnabled()</text>
<text text-anchor="start" x="92.5" y="-520.5" font-family="Helvetica,sans-Serif" font-size="10.00">*</text>
<text text-anchor="start" x="112.5" y="-520.5" font-family="Helvetica,sans-Serif" font-size="10.00">moveDown()</text>
<polygon fill="#666666" stroke="#666666" points="78.5,-650.5 78.5,-650.5 225.5,-650.5 225.5,-650.5 78.5,-650.5"/>
<polygon fill="#666666" stroke="#666666" points="78.5,-620.5 78.5,-620.5 110.5,-620.5 110.5,-620.5 78.5,-620.5"/>
<polygon fill="#666666" stroke="#666666" points="110.5,-620.5 110.5,-620.5 225.5,-620.5 225.5,-620.5 110.5,-620.5"/>
<polygon fill="none" stroke="#666666" points="78,-514 78,-679 225,-679 225,-514 78,-514"/>
</a>
</g>
</g>
<!-- Node2&#45;&gt;Node1 -->
<g id="edge1_Node000001_Node000002" class="edge">
<title>Node2&#45;&gt;Node1</title>
<g id="a_edge1_Node000001_Node000002"><a xlink:title=" ">
<path fill="none" stroke="#63b8ff" d="M105.15,-504.75C92.37,-479.73 79.04,-453.63 68.14,-432.29"/>
<polygon fill="none" stroke="#63b8ff" points="102.16,-506.59 109.82,-513.9 108.39,-503.4 102.16,-506.59"/>
</a>
</g>
</g>
<!-- Node4 -->
<g id="Node000004" class="node">
<title>Node4</title>
<g id="a_Node000004"><a xlink:href="../../d1/d55/classAH_1_1Updatable.html" target="_top" xlink:title=" ">
<polygon fill="white" stroke="transparent" points="315.5,-477 145.5,-477 145.5,-293 315.5,-293 315.5,-477"/>
<text text-anchor="start" x="150.5" y="-465" font-family="Helvetica,sans-Serif" font-size="10.00">Updatable&lt; NormalUpdatable &gt;</text>
<text text-anchor="start" x="170.5" y="-450" font-family="Helvetica,sans-Serif" font-size="10.00">#</text>
<text text-anchor="start" x="204.5" y="-450" font-family="Helvetica,sans-Serif" font-size="10.00">next</text>
<text text-anchor="start" x="170.5" y="-435" font-family="Helvetica,sans-Serif" font-size="10.00">#</text>
<text text-anchor="start" x="204.5" y="-435" font-family="Helvetica,sans-Serif" font-size="10.00">previous</text>
<text text-anchor="start" x="170.5" y="-420" font-family="Helvetica,sans-Serif" font-size="10.00">#</text>
<text text-anchor="start" x="204.5" y="-420" font-family="Helvetica,sans-Serif" font-size="10.00">updatables</text>
<text text-anchor="start" x="172" y="-405" font-family="Helvetica,sans-Serif" font-size="10.00">*</text>
<text text-anchor="start" x="204.5" y="-405" font-family="Helvetica,sans-Serif" font-size="10.00">begin()</text>
<text text-anchor="start" x="172" y="-390" font-family="Helvetica,sans-Serif" font-size="10.00">*</text>
<text text-anchor="start" x="204.5" y="-390" font-family="Helvetica,sans-Serif" font-size="10.00">update()</text>
<text text-anchor="start" x="172" y="-375" font-family="Helvetica,sans-Serif" font-size="10.00">*</text>
<text text-anchor="start" x="204.5" y="-375" font-family="Helvetica,sans-Serif" font-size="10.00">beginAll()</text>
<text text-anchor="start" x="172" y="-360" font-family="Helvetica,sans-Serif" font-size="10.00">*</text>
<text text-anchor="start" x="204.5" y="-360" font-family="Helvetica,sans-Serif" font-size="10.00">updateAll()</text>
<text text-anchor="start" x="172" y="-345" font-family="Helvetica,sans-Serif" font-size="10.00">*</text>
<text text-anchor="start" x="204.5" y="-345" font-family="Helvetica,sans-Serif" font-size="10.00">enable()</text>
<text text-anchor="start" x="172" y="-330" font-family="Helvetica,sans-Serif" font-size="10.00">*</text>
<text text-anchor="start" x="204.5" y="-330" font-family="Helvetica,sans-Serif" font-size="10.00">disable()</text>
<text text-anchor="start" x="172" y="-315" font-family="Helvetica,sans-Serif" font-size="10.00">*</text>
<text text-anchor="start" x="204.5" y="-315" font-family="Helvetica,sans-Serif" font-size="10.00">isEnabled()</text>
<text text-anchor="start" x="172" y="-300" font-family="Helvetica,sans-Serif" font-size="10.00">*</text>
<text text-anchor="start" x="204.5" y="-300" font-family="Helvetica,sans-Serif" font-size="10.00">moveDown()</text>
<polygon fill="#666666" stroke="#666666" points="145.5,-460 145.5,-460 315.5,-460 315.5,-460 145.5,-460"/>
<polygon fill="#666666" stroke="#666666" points="145.5,-415 145.5,-415 202.5,-415 202.5,-415 145.5,-415"/>
<polygon fill="#666666" stroke="#666666" points="202.5,-415 202.5,-415 315.5,-415 315.5,-415 202.5,-415"/>
<polygon fill="none" stroke="#666666" points="145.5,-293 145.5,-477 315.5,-477 315.5,-293 145.5,-293"/>
</a>
</g>
</g>
<!-- Node2&#45;&gt;Node4 -->
<g id="edge4_Node000004_Node000002" class="edge">
<title>Node2&#45;&gt;Node4</title>
<g id="a_edge4_Node000004_Node000002"><a xlink:title=" ">
<path fill="none" stroke="#63b8ff" d="M185.82,-504.5C189.24,-495.41 192.72,-486.19 196.15,-477.1"/>
<polygon fill="none" stroke="#63b8ff" points="182.52,-503.31 182.27,-513.9 189.07,-505.78 182.52,-503.31"/>
</a>
</g>
</g>
<!-- Node3 -->
<g id="Node000003" class="node">
<title>Node3</title>
<g id="a_Node000003"><a xlink:href="../../d4/d23/classDoublyLinkable.html" target="_top" xlink:title=" ">
<polygon fill="white" stroke="transparent" points="232,-157.5 85,-157.5 85,-67.5 232,-67.5 232,-157.5"/>
<text text-anchor="start" x="90.5" y="-145.5" font-family="Helvetica,sans-Serif" font-size="10.00">DoublyLinkable&lt; Updatable</text>
<text text-anchor="start" x="98.5" y="-134.5" font-family="Helvetica,sans-Serif" font-size="10.00">&lt; NormalUpdatable &gt; &gt;</text>
<text text-anchor="start" x="157" y="-119.5" font-family="Helvetica,sans-Serif" font-size="10.00"> </text>
<text text-anchor="start" x="98" y="-104.5" font-family="Helvetica,sans-Serif" font-size="10.00">#</text>
<text text-anchor="start" x="119.5" y="-104.5" font-family="Helvetica,sans-Serif" font-size="10.00">~DoublyLinkable()</text>
<text text-anchor="start" x="98" y="-89.5" font-family="Helvetica,sans-Serif" font-size="10.00">#</text>
<text text-anchor="start" x="119.5" y="-89.5" font-family="Helvetica,sans-Serif" font-size="10.00">DoublyLinkable()</text>
<text text-anchor="start" x="98" y="-74.5" font-family="Helvetica,sans-Serif" font-size="10.00">#</text>
<text text-anchor="start" x="119.5" y="-74.5" font-family="Helvetica,sans-Serif" font-size="10.00">operator=()</text>
<polygon fill="#666666" stroke="#666666" points="85.5,-129.5 85.5,-129.5 232.5,-129.5 232.5,-129.5 85.5,-129.5"/>
<polygon fill="#666666" stroke="#666666" points="85.5,-114.5 85.5,-114.5 232.5,-114.5 232.5,-114.5 85.5,-114.5"/>
<polygon fill="none" stroke="#666666" points="85,-67.5 85,-157.5 232,-157.5 232,-67.5 85,-67.5"/>
</a>
</g>
</g>
<!-- Node3&#45;&gt;Node2 -->
<g id="edge2_Node000002_Node000003" class="edge">
<title>Node3&#45;&gt;Node2</title>
<g id="a_edge2_Node000002_Node000003"><a xlink:title=" ">
<path fill="none" stroke="#63b8ff" d="M150.1,-167.78C145.03,-203.3 139.08,-250.79 136.5,-293 131.52,-374.63 131.35,-395.38 136.5,-477 137.25,-488.9 138.42,-501.43 139.78,-513.71"/>
<polygon fill="none" stroke="#63b8ff" points="153.6,-168.02 151.57,-157.62 146.67,-167.02 153.6,-168.02"/>
</a>
</g>
</g>
<!-- Node4&#45;&gt;Node3 -->
<g id="edge3_Node000003_Node000004" class="edge">
<title>Node4&#45;&gt;Node3</title>
<g id="a_edge3_Node000003_Node000004"><a xlink:title=" ">
<path fill="none" stroke="#63b8ff" d="M181.55,-292.79C179.28,-286.86 177.23,-280.9 175.5,-275 165.46,-240.86 161.18,-201.11 159.43,-169.6"/>
<polygon fill="none" stroke="#63b8ff" points="159.43,-169.5 155.15,-163.7 158.86,-157.51 163.14,-163.32 159.43,-169.5"/>
</a>
</g>
<text text-anchor="start" x="179" y="-264" font-family="Helvetica,sans-Serif" font-size="10.00" fill="grey">#next</text>
<text text-anchor="start" x="179" y="-249" font-family="Helvetica,sans-Serif" font-size="10.00" fill="grey">#previous</text>
</g>
<!-- Node5 -->
<g id="Node000005" class="node">
<title>Node5</title>
<g id="a_Node000005"><a xlink:href="../../dd/d16/classDoublyLinkedList.html" target="_top" xlink:title=" ">
<polygon fill="white" stroke="transparent" points="417,-225 262,-225 262,0 417,0 417,-225"/>
<text text-anchor="start" x="267.5" y="-212.5" font-family="Helvetica,sans-Serif" font-size="10.00">DoublyLinkedList&lt; Updatable</text>
<text text-anchor="start" x="279.5" y="-201.5" font-family="Helvetica,sans-Serif" font-size="10.00">&lt; NormalUpdatable &gt; &gt;</text>
<text text-anchor="start" x="338" y="-186.5" font-family="Helvetica,sans-Serif" font-size="10.00"> </text>
<text text-anchor="start" x="282" y="-171.5" font-family="Helvetica,sans-Serif" font-size="10.00">+</text>
<text text-anchor="start" x="310.5" y="-171.5" font-family="Helvetica,sans-Serif" font-size="10.00">append()</text>
<text text-anchor="start" x="282" y="-156.5" font-family="Helvetica,sans-Serif" font-size="10.00">+</text>
<text text-anchor="start" x="310.5" y="-156.5" font-family="Helvetica,sans-Serif" font-size="10.00">insertBefore()</text>
<text text-anchor="start" x="282" y="-141.5" font-family="Helvetica,sans-Serif" font-size="10.00">+</text>
<text text-anchor="start" x="310.5" y="-141.5" font-family="Helvetica,sans-Serif" font-size="10.00">insertSorted()</text>
<text text-anchor="start" x="282" y="-126.5" font-family="Helvetica,sans-Serif" font-size="10.00">+</text>
<text text-anchor="start" x="310.5" y="-126.5" font-family="Helvetica,sans-Serif" font-size="10.00">remove()</text>
<text text-anchor="start" x="282" y="-111.5" font-family="Helvetica,sans-Serif" font-size="10.00">+</text>
<text text-anchor="start" x="310.5" y="-111.5" font-family="Helvetica,sans-Serif" font-size="10.00">moveDown()</text>
<text text-anchor="start" x="282" y="-96.5" font-family="Helvetica,sans-Serif" font-size="10.00">+</text>
<text text-anchor="start" x="310.5" y="-96.5" font-family="Helvetica,sans-Serif" font-size="10.00">couldContain()</text>
<text text-anchor="start" x="282" y="-81.5" font-family="Helvetica,sans-Serif" font-size="10.00">+</text>
<text text-anchor="start" x="310.5" y="-81.5" font-family="Helvetica,sans-Serif" font-size="10.00">begin()</text>
<text text-anchor="start" x="282" y="-66.5" font-family="Helvetica,sans-Serif" font-size="10.00">+</text>
<text text-anchor="start" x="310.5" y="-66.5" font-family="Helvetica,sans-Serif" font-size="10.00">end()</text>
<text text-anchor="start" x="282" y="-51.5" font-family="Helvetica,sans-Serif" font-size="10.00">+</text>
<text text-anchor="start" x="310.5" y="-51.5" font-family="Helvetica,sans-Serif" font-size="10.00">rbegin()</text>
<text text-anchor="start" x="282" y="-36.5" font-family="Helvetica,sans-Serif" font-size="10.00">+</text>
<text text-anchor="start" x="310.5" y="-36.5" font-family="Helvetica,sans-Serif" font-size="10.00">rend()</text>
<text text-anchor="start" x="282" y="-21.5" font-family="Helvetica,sans-Serif" font-size="10.00">+</text>
<text text-anchor="start" x="310.5" y="-21.5" font-family="Helvetica,sans-Serif" font-size="10.00">getFirst()</text>
<text text-anchor="start" x="282" y="-6.5" font-family="Helvetica,sans-Serif" font-size="10.00">+</text>
<text text-anchor="start" x="310.5" y="-6.5" font-family="Helvetica,sans-Serif" font-size="10.00">getLast()</text>
<polygon fill="#666666" stroke="#666666" points="262.5,-196.5 262.5,-196.5 417.5,-196.5 417.5,-196.5 262.5,-196.5"/>
<polygon fill="#666666" stroke="#666666" points="262.5,-181.5 262.5,-181.5 417.5,-181.5 417.5,-181.5 262.5,-181.5"/>
<polygon fill="none" stroke="#666666" points="262,0 262,-225 417,-225 417,0 262,0"/>
</a>
</g>
</g>
<!-- Node4&#45;&gt;Node5 -->
<g id="edge6_Node000005_Node000004" class="edge">
<title>Node4&#45;&gt;Node5</title>
<g id="a_edge6_Node000005_Node000004"><a xlink:title=" ">
<path fill="none" stroke="#63b8ff" d="M267.25,-292.8C274.5,-274.8 282.22,-255.64 289.82,-236.79"/>
<polygon fill="none" stroke="#63b8ff" points="289.91,-236.56 288.44,-229.5 294.4,-225.43 295.87,-232.49 289.91,-236.56"/>
</a>
</g>
<text text-anchor="start" x="289" y="-264" font-family="Helvetica,sans-Serif" font-size="10.00" fill="grey">&#45;first</text>
<text text-anchor="start" x="289" y="-249" font-family="Helvetica,sans-Serif" font-size="10.00" fill="grey">&#45;last</text>
</g>
<!-- Node5&#45;&gt;Node2 -->
<g id="edge5_Node000002_Node000005" class="edge">
<title>Node5&#45;&gt;Node2</title>
<g id="a_edge5_Node000002_Node000005"><a xlink:title=" ">
<path fill="none" stroke="#63b8ff" d="M359.79,-225.39C367.79,-301.08 366.73,-400.75 324.5,-477 304.85,-512.49 269.52,-539.54 235.89,-558.77"/>
<polygon fill="none" stroke="#63b8ff" points="235.57,-558.95 232.24,-565.35 225.06,-564.74 228.38,-558.34 235.57,-558.95"/>
</a>
</g>
<text text-anchor="start" x="368" y="-382" font-family="Helvetica,sans-Serif" font-size="10.00" fill="grey">#updatables</text>
</g>
</g>
</svg>
