<?xml version="1.0" encoding="UTF-8" standalone="no"?>
<!DOCTYPE svg PUBLIC "-//W3C//DTD SVG 1.1//EN"
 "http://www.w3.org/Graphics/SVG/1.1/DTD/svg11.dtd">
<!-- Generated by graphviz version 2.43.0 (0)
 -->
<!-- Title: Debug Pages: 1 -->
<svg width="170pt" height="151pt"
 viewBox="0.00 0.00 170.00 151.00" xmlns="http://www.w3.org/2000/svg" xmlns:xlink="http://www.w3.org/1999/xlink">
<g id="graph0" class="graph" transform="scale(1 1) rotate(0) translate(4 147)">
<title>Debug</title>
<polygon fill="white" stroke="transparent" points="-4,4 -4,-147 166,-147 166,4 -4,4"/>
<g id="clust1" class="cluster">
<title>clusterdir_15b6432dff6a6d357bf70f8fbf2cdf14</title>
<g id="a_clust1"><a xlink:href="dir_15b6432dff6a6d357bf70f8fbf2cdf14.html" target="_top" xlink:title="AH">
<polygon fill="#ddddee" stroke="black" points="8,-64 8,-135 78,-135 78,-64 8,-64"/>
<text text-anchor="middle" x="43" y="-123" font-family="Helvetica,sans-Serif" font-size="10.00">AH</text>
</a>
</g>
</g>
<!-- dir_54ed9a2f055393fe51924247a0779d9a -->
<g id="node1" class="node">
<title>dir_54ed9a2f055393fe51924247a0779d9a</title>
<g id="a_node1"><a xlink:href="dir_54ed9a2f055393fe51924247a0779d9a.html" target="_top" xlink:title="Debug">
<polygon fill="#eeeeff" stroke="black" points="70,-108 16,-108 16,-72 70,-72 70,-108"/>
<text text-anchor="middle" x="43" y="-87.5" font-family="Helvetica,sans-Serif" font-size="10.00">Debug</text>
</a>
</g>
</g>
<!-- dir_3c4018d305623b2abf46b1ad99013cf4 -->
<g id="node2" class="node">
<title>dir_3c4018d305623b2abf46b1ad99013cf4</title>
<g id="a_node2"><a xlink:href="dir_3c4018d305623b2abf46b1ad99013cf4.html" target="_top" xlink:title="PrintStream">
<polygon fill="none" stroke="black" points="162,-108 88,-108 88,-72 162,-72 162,-108"/>
<text text-anchor="middle" x="125" y="-87.5" font-family="Helvetica,sans-Serif" font-size="10.00">PrintStream</text>
</a>
</g>
</g>
<!-- dir_54ed9a2f055393fe51924247a0779d9a&#45;&gt;dir_3c4018d305623b2abf46b1ad99013cf4 -->
<g id="edge3" class="edge">
<title>dir_54ed9a2f055393fe51924247a0779d9a&#45;&gt;dir_3c4018d305623b2abf46b1ad99013cf4</title>
<path fill="none" stroke="black" d="M70.23,-90C72.69,-90 75.16,-90 77.63,-90"/>
<polygon fill="black" stroke="black" points="77.77,-93.5 87.77,-90 77.77,-86.5 77.77,-93.5"/>
<g id="a_edge3&#45;headlabel"><a xlink:href="dir_000021_000040.html" target="_top" xlink:title="1">
<text text-anchor="middle" x="74.18" y="-93.84" font-family="Helvetica,sans-Serif" font-size="10.00">1</text>
</a>
</g>
</g>
<!-- dir_c93ba603db00711c7f5106968469b448 -->
<g id="node3" class="node">
<title>dir_c93ba603db00711c7f5106968469b448</title>
<g id="a_node3"><a xlink:href="dir_c93ba603db00711c7f5106968469b448.html" target="_top" xlink:title="Settings">
<polygon fill="none" stroke="black" points="112,-36 56,-36 56,0 112,0 112,-36"/>
<text text-anchor="middle" x="84" y="-15.5" font-family="Helvetica,sans-Serif" font-size="10.00">Settings</text>
</a>
</g>
</g>
<!-- dir_54ed9a2f055393fe51924247a0779d9a&#45;&gt;dir_c93ba603db00711c7f5106968469b448 -->
<g id="edge4" class="edge">
<title>dir_54ed9a2f055393fe51924247a0779d9a&#45;&gt;dir_c93ba603db00711c7f5106968469b448</title>
<path fill="none" stroke="black" d="M47.22,-71.7C51.15,-63.56 56.72,-53.69 62.41,-44.7"/>
<polygon fill="black" stroke="black" points="65.5,-46.38 68.09,-36.1 59.66,-42.52 65.5,-46.38"/>
<g id="a_edge4&#45;headlabel"><a xlink:href="dir_000021_000038.html" target="_top" xlink:title="2">
<text text-anchor="middle" x="65.89" y="-48.44" font-family="Helvetica,sans-Serif" font-size="10.00">2</text>
</a>
</g>
</g>
<!-- dir_3c4018d305623b2abf46b1ad99013cf4&#45;&gt;dir_c93ba603db00711c7f5106968469b448 -->
<g id="edge1" class="edge">
<title>dir_3c4018d305623b2abf46b1ad99013cf4&#45;&gt;dir_c93ba603db00711c7f5106968469b448</title>
<path fill="none" stroke="black" d="M114.87,-71.7C110.15,-63.64 104.44,-53.89 99.22,-44.98"/>
<polygon fill="black" stroke="black" points="102.09,-42.96 94.02,-36.1 96.05,-46.5 102.09,-42.96"/>
<g id="a_edge1&#45;headlabel"><a xlink:href="dir_000040_000038.html" target="_top" xlink:title="2">
<text text-anchor="middle" x="106.36" y="-42.13" font-family="Helvetica,sans-Serif" font-size="10.00">2</text>
</a>
</g>
</g>
<!-- dir_c93ba603db00711c7f5106968469b448&#45;&gt;dir_54ed9a2f055393fe51924247a0779d9a -->
<g id="edge2" class="edge">
<title>dir_c93ba603db00711c7f5106968469b448&#45;&gt;dir_54ed9a2f055393fe51924247a0779d9a</title>
<path fill="none" stroke="black" d="M79.88,-36.1C75.98,-44.21 70.42,-54.08 64.73,-63.08"/>
<polygon fill="black" stroke="black" points="61.63,-61.42 59.05,-71.7 67.47,-65.27 61.63,-61.42"/>
<g id="a_edge2&#45;headlabel"><a xlink:href="dir_000038_000021.html" target="_top" xlink:title="1">
<text text-anchor="middle" x="61.23" y="-54.36" font-family="Helvetica,sans-Serif" font-size="10.00">1</text>
</a>
</g>
</g>
</g>
</svg>
