<?xml version="1.0" encoding="UTF-8" standalone="no"?>
<!DOCTYPE svg PUBLIC "-//W3C//DTD SVG 1.1//EN"
 "http://www.w3.org/Graphics/SVG/1.1/DTD/svg11.dtd">
<!-- Generated by graphviz version 2.43.0 (0)
 -->
<!-- Title: DigitalCCSender.hpp Pages: 1 -->
<svg width="1473pt" height="140pt"
 viewBox="0.00 0.00 1473.00 140.00" xmlns="http://www.w3.org/2000/svg" xmlns:xlink="http://www.w3.org/1999/xlink">
<g id="graph0" class="graph" transform="scale(1 1) rotate(0) translate(4 136)">
<title>DigitalCCSender.hpp</title>
<polygon fill="white" stroke="transparent" points="-4,4 -4,-136 1469,-136 1469,4 -4,4"/>
<!-- Node1 -->
<g id="node1" class="node">
<title>Node1</title>
<g id="a_node1"><a xlink:title=" ">
<polygon fill="#bfbfbf" stroke="black" points="659.5,-112.5 659.5,-131.5 775.5,-131.5 775.5,-112.5 659.5,-112.5"/>
<text text-anchor="middle" x="717.5" y="-119.5" font-family="Helvetica,sans-Serif" font-size="10.00">DigitalCCSender.hpp</text>
</a>
</g>
</g>
<!-- Node2 -->
<g id="node2" class="node">
<title>Node2</title>
<g id="a_node2"><a xlink:href="../../db/d15/Bankable_2CCButton_8hpp.html" target="_top" xlink:title=" ">
<polygon fill="white" stroke="black" points="0,-56.5 0,-75.5 83,-75.5 83,-56.5 0,-56.5"/>
<text text-anchor="middle" x="41.5" y="-63.5" font-family="Helvetica,sans-Serif" font-size="10.00">CCButton.hpp</text>
</a>
</g>
</g>
<!-- Node1&#45;&gt;Node2 -->
<g id="edge1" class="edge">
<title>Node1&#45;&gt;Node2</title>
<path fill="none" stroke="midnightblue" d="M649.39,-118.48C534.15,-113.68 293.52,-101.37 91.5,-76 88.79,-75.66 86,-75.27 83.19,-74.85"/>
<polygon fill="midnightblue" stroke="midnightblue" points="649.34,-121.98 659.47,-118.89 649.63,-114.98 649.34,-121.98"/>
</g>
<!-- Node4 -->
<g id="node4" class="node">
<title>Node4</title>
<g id="a_node4"><a xlink:href="../../d3/dd8/CCButton_8hpp.html" target="_top" xlink:title=" ">
<polygon fill="white" stroke="black" points="101,-56.5 101,-75.5 184,-75.5 184,-56.5 101,-56.5"/>
<text text-anchor="middle" x="142.5" y="-63.5" font-family="Helvetica,sans-Serif" font-size="10.00">CCButton.hpp</text>
</a>
</g>
</g>
<!-- Node1&#45;&gt;Node4 -->
<g id="edge3" class="edge">
<title>Node1&#45;&gt;Node4</title>
<path fill="none" stroke="midnightblue" d="M649.43,-117.18C549.11,-111.11 355.8,-97.65 192.5,-76 189.79,-75.64 187,-75.24 184.2,-74.8"/>
<polygon fill="midnightblue" stroke="midnightblue" points="649.24,-120.68 659.43,-117.79 649.66,-113.69 649.24,-120.68"/>
</g>
<!-- Node5 -->
<g id="node5" class="node">
<title>Node5</title>
<g id="a_node5"><a xlink:href="../../de/da8/ManyAddresses_2CCButton_8hpp.html" target="_top" xlink:title=" ">
<polygon fill="white" stroke="black" points="202,-56.5 202,-75.5 285,-75.5 285,-56.5 202,-56.5"/>
<text text-anchor="middle" x="243.5" y="-63.5" font-family="Helvetica,sans-Serif" font-size="10.00">CCButton.hpp</text>
</a>
</g>
</g>
<!-- Node1&#45;&gt;Node5 -->
<g id="edge5" class="edge">
<title>Node1&#45;&gt;Node5</title>
<path fill="none" stroke="midnightblue" d="M649.03,-115.17C565.23,-107.71 419.1,-93.6 294.5,-76 291.47,-75.57 288.35,-75.1 285.21,-74.6"/>
<polygon fill="midnightblue" stroke="midnightblue" points="648.91,-118.68 659.18,-116.07 649.53,-111.7 648.91,-118.68"/>
</g>
<!-- Node6 -->
<g id="node6" class="node">
<title>Node6</title>
<g id="a_node6"><a xlink:href="../../db/d53/Bankable_2CCButtonLatched_8hpp.html" target="_top" xlink:title=" ">
<polygon fill="white" stroke="black" points="303.5,-56.5 303.5,-75.5 425.5,-75.5 425.5,-56.5 303.5,-56.5"/>
<text text-anchor="middle" x="364.5" y="-63.5" font-family="Helvetica,sans-Serif" font-size="10.00">CCButtonLatched.hpp</text>
</a>
</g>
</g>
<!-- Node1&#45;&gt;Node6 -->
<g id="edge7" class="edge">
<title>Node1&#45;&gt;Node6</title>
<path fill="none" stroke="midnightblue" d="M651.58,-110.92C584.9,-100.71 482.93,-85.12 420.17,-75.52"/>
<polygon fill="midnightblue" stroke="midnightblue" points="651.15,-114.39 661.57,-112.44 652.21,-107.47 651.15,-114.39"/>
</g>
<!-- Node7 -->
<g id="node7" class="node">
<title>Node7</title>
<g id="a_node7"><a xlink:href="../../da/d85/CCButtonLatched_8hpp.html" target="_top" xlink:title=" ">
<polygon fill="white" stroke="black" points="443.5,-56.5 443.5,-75.5 565.5,-75.5 565.5,-56.5 443.5,-56.5"/>
<text text-anchor="middle" x="504.5" y="-63.5" font-family="Helvetica,sans-Serif" font-size="10.00">CCButtonLatched.hpp</text>
</a>
</g>
</g>
<!-- Node1&#45;&gt;Node7 -->
<g id="edge9" class="edge">
<title>Node1&#45;&gt;Node7</title>
<path fill="none" stroke="midnightblue" d="M673.95,-109.96C633.72,-99.76 574.8,-84.82 538.09,-75.52"/>
<polygon fill="midnightblue" stroke="midnightblue" points="673.2,-113.38 683.75,-112.44 674.92,-106.59 673.2,-113.38"/>
</g>
<!-- Node8 -->
<g id="node8" class="node">
<title>Node8</title>
<g id="a_node8"><a xlink:href="../../d2/dac/Bankable_2CCButtonLatching_8hpp.html" target="_top" xlink:title=" ">
<polygon fill="white" stroke="black" points="584,-56.5 584,-75.5 709,-75.5 709,-56.5 584,-56.5"/>
<text text-anchor="middle" x="646.5" y="-63.5" font-family="Helvetica,sans-Serif" font-size="10.00">CCButtonLatching.hpp</text>
</a>
</g>
</g>
<!-- Node1&#45;&gt;Node8 -->
<g id="edge11" class="edge">
<title>Node1&#45;&gt;Node8</title>
<path fill="none" stroke="midnightblue" d="M697.91,-106.1C685.13,-96.38 668.89,-84.03 658.11,-75.83"/>
<polygon fill="midnightblue" stroke="midnightblue" points="696.01,-109.06 706.09,-112.32 700.25,-103.48 696.01,-109.06"/>
</g>
<!-- Node9 -->
<g id="node9" class="node">
<title>Node9</title>
<g id="a_node9"><a xlink:href="../../d0/d04/CCButtonLatching_8hpp.html" target="_top" xlink:title=" ">
<polygon fill="white" stroke="black" points="727,-56.5 727,-75.5 852,-75.5 852,-56.5 727,-56.5"/>
<text text-anchor="middle" x="789.5" y="-63.5" font-family="Helvetica,sans-Serif" font-size="10.00">CCButtonLatching.hpp</text>
</a>
</g>
</g>
<!-- Node1&#45;&gt;Node9 -->
<g id="edge13" class="edge">
<title>Node1&#45;&gt;Node9</title>
<path fill="none" stroke="midnightblue" d="M737.37,-106.1C750.32,-96.38 766.8,-84.03 777.72,-75.83"/>
<polygon fill="midnightblue" stroke="midnightblue" points="734.97,-103.52 729.07,-112.32 739.17,-109.12 734.97,-103.52"/>
</g>
<!-- Node10 -->
<g id="node10" class="node">
<title>Node10</title>
<g id="a_node10"><a xlink:href="../../d9/d55/Bankable_2CCButtonMatrix_8hpp.html" target="_top" xlink:title=" ">
<polygon fill="white" stroke="black" points="870,-56.5 870,-75.5 985,-75.5 985,-56.5 870,-56.5"/>
<text text-anchor="middle" x="927.5" y="-63.5" font-family="Helvetica,sans-Serif" font-size="10.00">CCButtonMatrix.hpp</text>
</a>
</g>
</g>
<!-- Node1&#45;&gt;Node10 -->
<g id="edge15" class="edge">
<title>Node1&#45;&gt;Node10</title>
<path fill="none" stroke="midnightblue" d="M760.69,-109.89C800.35,-99.7 858.27,-84.8 894.38,-75.52"/>
<polygon fill="midnightblue" stroke="midnightblue" points="759.59,-106.56 750.78,-112.44 761.33,-113.34 759.59,-106.56"/>
</g>
<!-- Node11 -->
<g id="node11" class="node">
<title>Node11</title>
<g id="a_node11"><a xlink:href="../../d5/d9b/CCButtonMatrix_8hpp.html" target="_top" xlink:title=" ">
<polygon fill="white" stroke="black" points="1003,-56.5 1003,-75.5 1118,-75.5 1118,-56.5 1003,-56.5"/>
<text text-anchor="middle" x="1060.5" y="-63.5" font-family="Helvetica,sans-Serif" font-size="10.00">CCButtonMatrix.hpp</text>
</a>
</g>
</g>
<!-- Node1&#45;&gt;Node11 -->
<g id="edge17" class="edge">
<title>Node1&#45;&gt;Node11</title>
<path fill="none" stroke="midnightblue" d="M781.95,-110.85C846.75,-100.65 945.55,-85.1 1006.4,-75.52"/>
<polygon fill="midnightblue" stroke="midnightblue" points="781.18,-107.43 771.85,-112.44 782.27,-114.35 781.18,-107.43"/>
</g>
<!-- Node12 -->
<g id="node12" class="node">
<title>Node12</title>
<g id="a_node12"><a xlink:href="../../de/dfd/ManyAddresses_2CCButtonMatrix_8hpp.html" target="_top" xlink:title=" ">
<polygon fill="white" stroke="black" points="1136,-56.5 1136,-75.5 1251,-75.5 1251,-56.5 1136,-56.5"/>
<text text-anchor="middle" x="1193.5" y="-63.5" font-family="Helvetica,sans-Serif" font-size="10.00">CCButtonMatrix.hpp</text>
</a>
</g>
</g>
<!-- Node1&#45;&gt;Node12 -->
<g id="edge19" class="edge">
<title>Node1&#45;&gt;Node12</title>
<path fill="none" stroke="midnightblue" d="M785.73,-114.06C867.15,-105.66 1007.37,-90.78 1127.5,-76 1130.25,-75.66 1133.07,-75.31 1135.92,-74.94"/>
<polygon fill="midnightblue" stroke="midnightblue" points="785.2,-110.6 775.61,-115.11 785.91,-117.56 785.2,-110.6"/>
</g>
<!-- Node13 -->
<g id="node13" class="node">
<title>Node13</title>
<g id="a_node13"><a xlink:href="../../d7/d16/Bankable_2CCButtons_8hpp.html" target="_top" xlink:title=" ">
<polygon fill="white" stroke="black" points="1269,-56.5 1269,-75.5 1358,-75.5 1358,-56.5 1269,-56.5"/>
<text text-anchor="middle" x="1313.5" y="-63.5" font-family="Helvetica,sans-Serif" font-size="10.00">CCButtons.hpp</text>
</a>
</g>
</g>
<!-- Node1&#45;&gt;Node13 -->
<g id="edge21" class="edge">
<title>Node1&#45;&gt;Node13</title>
<path fill="none" stroke="midnightblue" d="M785.8,-117.22C888.92,-111.09 1090.37,-97.45 1260.5,-76 1263.19,-75.66 1265.94,-75.28 1268.72,-74.88"/>
<polygon fill="midnightblue" stroke="midnightblue" points="785.31,-113.74 775.53,-117.83 785.72,-120.73 785.31,-113.74"/>
</g>
<!-- Node14 -->
<g id="node14" class="node">
<title>Node14</title>
<g id="a_node14"><a xlink:href="../../d2/d03/CCButtons_8hpp.html" target="_top" xlink:title=" ">
<polygon fill="white" stroke="black" points="1376,-56.5 1376,-75.5 1465,-75.5 1465,-56.5 1376,-56.5"/>
<text text-anchor="middle" x="1420.5" y="-63.5" font-family="Helvetica,sans-Serif" font-size="10.00">CCButtons.hpp</text>
</a>
</g>
</g>
<!-- Node1&#45;&gt;Node14 -->
<g id="edge23" class="edge">
<title>Node1&#45;&gt;Node14</title>
<path fill="none" stroke="midnightblue" d="M785.53,-118.51C904.07,-113.68 1156.04,-101.21 1367.5,-76 1370.19,-75.68 1372.95,-75.32 1375.73,-74.92"/>
<polygon fill="midnightblue" stroke="midnightblue" points="785.36,-115.01 775.51,-118.91 785.64,-122.01 785.36,-115.01"/>
</g>
<!-- Node3 -->
<g id="node3" class="node">
<title>Node3</title>
<g id="a_node3"><a xlink:href="../../db/dbf/Control__Surface_8h.html" target="_top" xlink:title="The main header file that includes all Control&#45;Surface header files.">
<polygon fill="white" stroke="black" points="666,-0.5 666,-19.5 769,-19.5 769,-0.5 666,-0.5"/>
<text text-anchor="middle" x="717.5" y="-7.5" font-family="Helvetica,sans-Serif" font-size="10.00">Control_Surface.h</text>
</a>
</g>
</g>
<!-- Node2&#45;&gt;Node3 -->
<g id="edge2" class="edge">
<title>Node2&#45;&gt;Node3</title>
<path fill="none" stroke="midnightblue" d="M93.23,-55.9C311.35,-28.99 560.05,-17.05 665.79,-12.86"/>
<polygon fill="midnightblue" stroke="midnightblue" points="92.68,-52.44 83.19,-57.15 93.55,-59.39 92.68,-52.44"/>
</g>
<!-- Node4&#45;&gt;Node3 -->
<g id="edge4" class="edge">
<title>Node4&#45;&gt;Node3</title>
<path fill="none" stroke="midnightblue" d="M194.3,-55.87C372.88,-32.59 573.37,-19.26 665.91,-13.83"/>
<polygon fill="midnightblue" stroke="midnightblue" points="193.65,-52.42 184.2,-57.2 194.57,-59.36 193.65,-52.42"/>
</g>
<!-- Node5&#45;&gt;Node3 -->
<g id="edge6" class="edge">
<title>Node5&#45;&gt;Node3</title>
<path fill="none" stroke="midnightblue" d="M295.27,-55.98C435.33,-36.46 587.98,-22.14 665.92,-15.34"/>
<polygon fill="midnightblue" stroke="midnightblue" points="294.63,-52.54 285.21,-57.4 295.6,-59.47 294.63,-52.54"/>
</g>
<!-- Node6&#45;&gt;Node3 -->
<g id="edge8" class="edge">
<title>Node6&#45;&gt;Node3</title>
<path fill="none" stroke="midnightblue" d="M430.63,-54.88C498.76,-44.46 603.56,-28.43 665.85,-18.9"/>
<polygon fill="midnightblue" stroke="midnightblue" points="429.79,-51.47 420.43,-56.44 430.85,-58.39 429.79,-51.47"/>
</g>
<!-- Node7&#45;&gt;Node3 -->
<g id="edge10" class="edge">
<title>Node7&#45;&gt;Node3</title>
<path fill="none" stroke="midnightblue" d="M548.05,-53.96C588.28,-43.76 647.2,-28.82 683.91,-19.52"/>
<polygon fill="midnightblue" stroke="midnightblue" points="547.08,-50.59 538.25,-56.44 548.8,-57.38 547.08,-50.59"/>
</g>
<!-- Node8&#45;&gt;Node3 -->
<g id="edge12" class="edge">
<title>Node8&#45;&gt;Node3</title>
<path fill="none" stroke="midnightblue" d="M666.09,-50.1C678.87,-40.38 695.11,-28.03 705.89,-19.83"/>
<polygon fill="midnightblue" stroke="midnightblue" points="663.75,-47.48 657.91,-56.32 667.99,-53.06 663.75,-47.48"/>
</g>
<!-- Node9&#45;&gt;Node3 -->
<g id="edge14" class="edge">
<title>Node9&#45;&gt;Node3</title>
<path fill="none" stroke="midnightblue" d="M769.63,-50.1C756.68,-40.38 740.2,-28.03 729.28,-19.83"/>
<polygon fill="midnightblue" stroke="midnightblue" points="767.83,-53.12 777.93,-56.32 772.03,-47.52 767.83,-53.12"/>
</g>
<!-- Node10&#45;&gt;Node3 -->
<g id="edge16" class="edge">
<title>Node10&#45;&gt;Node3</title>
<path fill="none" stroke="midnightblue" d="M884.31,-53.89C844.65,-43.7 786.73,-28.8 750.62,-19.52"/>
<polygon fill="midnightblue" stroke="midnightblue" points="883.67,-57.34 894.22,-56.44 885.41,-50.56 883.67,-57.34"/>
</g>
<!-- Node11&#45;&gt;Node3 -->
<g id="edge18" class="edge">
<title>Node11&#45;&gt;Node3</title>
<path fill="none" stroke="midnightblue" d="M995.91,-54.83C930.2,-44.49 829.65,-28.66 769.07,-19.12"/>
<polygon fill="midnightblue" stroke="midnightblue" points="995.73,-58.35 1006.15,-56.44 996.82,-51.43 995.73,-58.35"/>
</g>
<!-- Node12&#45;&gt;Node3 -->
<g id="edge20" class="edge">
<title>Node12&#45;&gt;Node3</title>
<path fill="none" stroke="midnightblue" d="M1125.84,-55.82C991.31,-39.38 844.85,-23.99 769.01,-16.22"/>
<polygon fill="midnightblue" stroke="midnightblue" points="1125.57,-59.31 1135.92,-57.06 1126.42,-52.37 1125.57,-59.31"/>
</g>
<!-- Node13&#45;&gt;Node3 -->
<g id="edge22" class="edge">
<title>Node13&#45;&gt;Node3</title>
<path fill="none" stroke="midnightblue" d="M1258.79,-55.87C1073.26,-32.85 864.39,-19.3 769.31,-13.81"/>
<polygon fill="midnightblue" stroke="midnightblue" points="1258.36,-59.35 1268.72,-57.12 1259.23,-52.4 1258.36,-59.35"/>
</g>
<!-- Node14&#45;&gt;Node3 -->
<g id="edge24" class="edge">
<title>Node14&#45;&gt;Node3</title>
<path fill="none" stroke="midnightblue" d="M1365.59,-55.88C1137.89,-29.19 877.63,-17.07 769.06,-12.83"/>
<polygon fill="midnightblue" stroke="midnightblue" points="1365.38,-59.38 1375.73,-57.08 1366.21,-52.42 1365.38,-59.38"/>
</g>
</g>
</svg>
