<?xml version="1.0" encoding="UTF-8" standalone="no"?>
<!DOCTYPE svg PUBLIC "-//W3C//DTD SVG 1.1//EN"
 "http://www.w3.org/Graphics/SVG/1.1/DTD/svg11.dtd">
<!-- Generated by graphviz version 2.38.0 (20140413.2041)
 -->
<!-- Title: USBSerialMIDI_Interface Pages: 1 -->
<svg width="621pt" height="1099pt"
 viewBox="0.00 0.00 620.50 1099.00" xmlns="http://www.w3.org/2000/svg" xmlns:xlink="http://www.w3.org/1999/xlink">
<g id="graph0" class="graph" transform="scale(1 1) rotate(0) translate(4 1095)">
<title>USBSerialMIDI_Interface</title>
<polygon fill="white" stroke="none" points="-4,4 -4,-1095 616.5,-1095 616.5,4 -4,4"/>
<!-- Node1 -->
<g id="node1" class="node"><title>Node1</title>
<g id="a_node1"><a xlink:title="A class for MIDI interfaces sending and receiving MIDI messages over the Serial port of the USB conne...">
<polygon fill="#bfbfbf" stroke="black" points="177.5,-0.5 177.5,-57.5 320.5,-57.5 320.5,-0.5 177.5,-0.5"/>
<text text-anchor="middle" x="249" y="-45.5" font-family="Helvetica,sans-Serif" font-size="10.00">USBSerialMIDI_Interface</text>
<polyline fill="none" stroke="black" points="177.5,-38.5 320.5,-38.5 "/>
<text text-anchor="middle" x="249" y="-26.5" font-family="Helvetica,sans-Serif" font-size="10.00"> </text>
<polyline fill="none" stroke="black" points="177.5,-19.5 320.5,-19.5 "/>
<text text-anchor="start" x="185.5" y="-7.5" font-family="Helvetica,sans-Serif" font-size="10.00">+ USBSerialMIDI_Interface()</text>
</a>
</g>
</g>
<!-- Node2 -->
<g id="node2" class="node"><title>Node2</title>
<g id="a_node2"><a xlink:href="../../d9/db8/classSerialMIDI__Interface.html" target="_top" xlink:title=" ">
<polygon fill="white" stroke="black" points="188,-95.5 188,-185.5 310,-185.5 310,-95.5 188,-95.5"/>
<text text-anchor="start" x="196" y="-173.5" font-family="Helvetica,sans-Serif" font-size="10.00">SerialMIDI_Interface</text>
<text text-anchor="middle" x="249" y="-162.5" font-family="Helvetica,sans-Serif" font-size="10.00">&lt; decltype(Serial)&gt;</text>
<polyline fill="none" stroke="black" points="188,-155.5 310,-155.5 "/>
<text text-anchor="start" x="196" y="-143.5" font-family="Helvetica,sans-Serif" font-size="10.00">&#45; serial</text>
<text text-anchor="start" x="196" y="-132.5" font-family="Helvetica,sans-Serif" font-size="10.00">&#45; baud</text>
<polyline fill="none" stroke="black" points="188,-125.5 310,-125.5 "/>
<text text-anchor="start" x="196" y="-113.5" font-family="Helvetica,sans-Serif" font-size="10.00">+ SerialMIDI_Interface()</text>
<text text-anchor="start" x="196" y="-102.5" font-family="Helvetica,sans-Serif" font-size="10.00">+ begin()</text>
</a>
</g>
</g>
<!-- Node2&#45;&gt;Node1 -->
<g id="edge1" class="edge"><title>Node2&#45;&gt;Node1</title>
<path fill="none" stroke="midnightblue" d="M249,-85.0433C249,-75.5577 249,-66.0602 249,-57.6901"/>
<polygon fill="none" stroke="midnightblue" points="245.5,-85.2778 249,-95.2778 252.5,-85.2778 245.5,-85.2778"/>
</g>
<!-- Node3 -->
<g id="node3" class="node"><title>Node3</title>
<g id="a_node3"><a xlink:href="../../d3/dc3/classStreamMIDI__Interface.html" target="_top" xlink:title="A class for MIDI interfaces sending and receiving MIDI messages over a Stream.">
<polygon fill="white" stroke="black" points="185,-223.5 185,-324.5 313,-324.5 313,-223.5 185,-223.5"/>
<text text-anchor="middle" x="249" y="-312.5" font-family="Helvetica,sans-Serif" font-size="10.00">StreamMIDI_Interface</text>
<polyline fill="none" stroke="black" points="185,-305.5 313,-305.5 "/>
<text text-anchor="start" x="193" y="-293.5" font-family="Helvetica,sans-Serif" font-size="10.00"># stream</text>
<polyline fill="none" stroke="black" points="185,-286.5 313,-286.5 "/>
<text text-anchor="start" x="193" y="-274.5" font-family="Helvetica,sans-Serif" font-size="10.00">+ StreamMIDI_Interface()</text>
<text text-anchor="start" x="193" y="-263.5" font-family="Helvetica,sans-Serif" font-size="10.00">+ read()</text>
<text text-anchor="start" x="193" y="-252.5" font-family="Helvetica,sans-Serif" font-size="10.00"># sendImpl()</text>
<text text-anchor="start" x="193" y="-241.5" font-family="Helvetica,sans-Serif" font-size="10.00"># sendImpl()</text>
<text text-anchor="start" x="193" y="-230.5" font-family="Helvetica,sans-Serif" font-size="10.00"># sendImpl()</text>
</a>
</g>
</g>
<!-- Node3&#45;&gt;Node2 -->
<g id="edge2" class="edge"><title>Node3&#45;&gt;Node2</title>
<path fill="none" stroke="midnightblue" d="M249,-213.001C249,-203.8 249,-194.449 249,-185.673"/>
<polygon fill="none" stroke="midnightblue" points="245.5,-213.285 249,-223.285 252.5,-213.286 245.5,-213.285"/>
</g>
<!-- Node4 -->
<g id="node4" class="node"><title>Node4</title>
<g id="a_node4"><a xlink:href="../../de/d76/classParsing__MIDI__Interface.html" target="_top" xlink:title="An abstract class for MIDI interfaces.">
<polygon fill="white" stroke="black" points="240,-372.5 240,-572.5 374,-572.5 374,-372.5 240,-372.5"/>
<text text-anchor="middle" x="307" y="-560.5" font-family="Helvetica,sans-Serif" font-size="10.00">Parsing_MIDI_Interface</text>
<polyline fill="none" stroke="black" points="240,-553.5 374,-553.5 "/>
<text text-anchor="middle" x="307" y="-541.5" font-family="Helvetica,sans-Serif" font-size="10.00"> </text>
<polyline fill="none" stroke="black" points="240,-534.5 374,-534.5 "/>
<text text-anchor="start" x="248" y="-522.5" font-family="Helvetica,sans-Serif" font-size="10.00">+ getParser()</text>
<text text-anchor="start" x="248" y="-511.5" font-family="Helvetica,sans-Serif" font-size="10.00">+ getChannelMessage()</text>
<text text-anchor="start" x="248" y="-500.5" font-family="Helvetica,sans-Serif" font-size="10.00">+ getSysExMessage()</text>
<text text-anchor="start" x="248" y="-489.5" font-family="Helvetica,sans-Serif" font-size="10.00">+ getCN()</text>
<text text-anchor="start" x="248" y="-478.5" font-family="Helvetica,sans-Serif" font-size="10.00">+ update()</text>
<text text-anchor="start" x="248" y="-467.5" font-family="Helvetica,sans-Serif" font-size="10.00">+ setCallbacks()</text>
<text text-anchor="start" x="248" y="-456.5" font-family="Helvetica,sans-Serif" font-size="10.00">+ setCallbacks()</text>
<text text-anchor="start" x="248" y="-445.5" font-family="Helvetica,sans-Serif" font-size="10.00">+ setCallbacks()</text>
<text text-anchor="start" x="248" y="-434.5" font-family="Helvetica,sans-Serif" font-size="10.00"># Parsing_MIDI_Interface()</text>
<text text-anchor="start" x="248" y="-423.5" font-family="Helvetica,sans-Serif" font-size="10.00"># dispatchMIDIEvent()</text>
<text text-anchor="start" x="248" y="-412.5" font-family="Helvetica,sans-Serif" font-size="10.00">&#45; read()</text>
<text text-anchor="start" x="248" y="-401.5" font-family="Helvetica,sans-Serif" font-size="10.00">&#45; onRealtimeMessage()</text>
<text text-anchor="start" x="248" y="-390.5" font-family="Helvetica,sans-Serif" font-size="10.00">&#45; onChannelMessage()</text>
<text text-anchor="start" x="248" y="-379.5" font-family="Helvetica,sans-Serif" font-size="10.00">&#45; onSysExMessage()</text>
</a>
</g>
</g>
<!-- Node4&#45;&gt;Node3 -->
<g id="edge3" class="edge"><title>Node4&#45;&gt;Node3</title>
<path fill="none" stroke="midnightblue" d="M274.88,-362.68C270.958,-349.393 267.114,-336.368 263.637,-324.59"/>
<polygon fill="none" stroke="midnightblue" points="271.557,-363.786 277.745,-372.386 278.271,-361.805 271.557,-363.786"/>
</g>
<!-- Node5 -->
<g id="node5" class="node"><title>Node5</title>
<g id="a_node5"><a xlink:href="../../d9/d73/classMIDI__Interface.html" target="_top" xlink:title="An abstract class for MIDI interfaces.">
<polygon fill="white" stroke="black" points="388.5,-620.5 388.5,-941.5 491.5,-941.5 491.5,-620.5 388.5,-620.5"/>
<text text-anchor="middle" x="440" y="-929.5" font-family="Helvetica,sans-Serif" font-size="10.00">MIDI_Interface</text>
<polyline fill="none" stroke="black" points="388.5,-922.5 491.5,-922.5 "/>
<text text-anchor="middle" x="440" y="-910.5" font-family="Helvetica,sans-Serif" font-size="10.00"> </text>
<polyline fill="none" stroke="black" points="388.5,-903.5 491.5,-903.5 "/>
<text text-anchor="start" x="396.5" y="-891.5" font-family="Helvetica,sans-Serif" font-size="10.00">+ ~MIDI_Interface()</text>
<text text-anchor="start" x="396.5" y="-880.5" font-family="Helvetica,sans-Serif" font-size="10.00">+ begin()</text>
<text text-anchor="start" x="396.5" y="-869.5" font-family="Helvetica,sans-Serif" font-size="10.00">+ send()</text>
<text text-anchor="start" x="396.5" y="-858.5" font-family="Helvetica,sans-Serif" font-size="10.00">+ send()</text>
<text text-anchor="start" x="396.5" y="-847.5" font-family="Helvetica,sans-Serif" font-size="10.00">+ sendOnCable()</text>
<text text-anchor="start" x="396.5" y="-836.5" font-family="Helvetica,sans-Serif" font-size="10.00">+ sendOnCable()</text>
<text text-anchor="start" x="396.5" y="-825.5" font-family="Helvetica,sans-Serif" font-size="10.00">+ sendNoteOn()</text>
<text text-anchor="start" x="396.5" y="-814.5" font-family="Helvetica,sans-Serif" font-size="10.00">+ sendNoteOff()</text>
<text text-anchor="start" x="396.5" y="-803.5" font-family="Helvetica,sans-Serif" font-size="10.00">+ sendKP()</text>
<text text-anchor="start" x="396.5" y="-792.5" font-family="Helvetica,sans-Serif" font-size="10.00">+ sendCC()</text>
<text text-anchor="start" x="396.5" y="-781.5" font-family="Helvetica,sans-Serif" font-size="10.00">+ sendPC()</text>
<text text-anchor="start" x="396.5" y="-770.5" font-family="Helvetica,sans-Serif" font-size="10.00">+ sendPC()</text>
<text text-anchor="start" x="396.5" y="-759.5" font-family="Helvetica,sans-Serif" font-size="10.00">+ sendCP()</text>
<text text-anchor="start" x="396.5" y="-748.5" font-family="Helvetica,sans-Serif" font-size="10.00">+ sendPB()</text>
<text text-anchor="start" x="396.5" y="-737.5" font-family="Helvetica,sans-Serif" font-size="10.00">+ send()</text>
<text text-anchor="start" x="396.5" y="-726.5" font-family="Helvetica,sans-Serif" font-size="10.00">+ send()</text>
<text text-anchor="start" x="396.5" y="-715.5" font-family="Helvetica,sans-Serif" font-size="10.00">+ update()</text>
<text text-anchor="start" x="396.5" y="-704.5" font-family="Helvetica,sans-Serif" font-size="10.00">+ setAsDefault()</text>
<text text-anchor="start" x="396.5" y="-693.5" font-family="Helvetica,sans-Serif" font-size="10.00">+ setCallbacks()</text>
<text text-anchor="start" x="396.5" y="-682.5" font-family="Helvetica,sans-Serif" font-size="10.00">+ setCallbacks()</text>
<text text-anchor="start" x="396.5" y="-671.5" font-family="Helvetica,sans-Serif" font-size="10.00">+ sendImpl()</text>
<text text-anchor="start" x="396.5" y="-660.5" font-family="Helvetica,sans-Serif" font-size="10.00">+ sendImpl()</text>
<text text-anchor="start" x="396.5" y="-649.5" font-family="Helvetica,sans-Serif" font-size="10.00">+ sendImpl()</text>
<text text-anchor="start" x="396.5" y="-638.5" font-family="Helvetica,sans-Serif" font-size="10.00">+ getDefault()</text>
<text text-anchor="start" x="396.5" y="-627.5" font-family="Helvetica,sans-Serif" font-size="10.00"># MIDI_Interface()</text>
</a>
</g>
</g>
<!-- Node5&#45;&gt;Node4 -->
<g id="edge4" class="edge"><title>Node5&#45;&gt;Node4</title>
<path fill="none" stroke="midnightblue" d="M384.449,-632.724C382.636,-628.425 380.818,-624.176 379,-620 372.271,-604.539 364.78,-588.351 357.245,-572.609"/>
<polygon fill="none" stroke="midnightblue" points="381.324,-634.324 388.406,-642.204 387.784,-631.628 381.324,-634.324"/>
</g>
<!-- Node5&#45;&gt;Node5 -->
<g id="edge5" class="edge"><title>Node5&#45;&gt;Node5</title>
<path fill="none" stroke="#404040" d="M491.525,-814.184C502,-810.569 509.5,-799.508 509.5,-781 509.5,-769.143 506.422,-760.343 501.456,-754.598"/>
<polygon fill="none" stroke="#404040" points="501.435,-754.584 494.224,-754.503 491.525,-747.816 498.736,-747.897 501.435,-754.584"/>
<text text-anchor="middle" x="561" y="-778.5" font-family="Helvetica,sans-Serif" font-size="10.00"> &#45;DefaultMIDI_Interface</text>
</g>
<!-- Node6 -->
<g id="node6" class="node"><title>Node6</title>
<g id="a_node6"><a xlink:href="../../df/d0c/classMIDI__Parser.html" target="_top" xlink:title=" ">
<polygon fill="white" stroke="black" points="110.5,-719.5 110.5,-842.5 231.5,-842.5 231.5,-719.5 110.5,-719.5"/>
<text text-anchor="middle" x="171" y="-830.5" font-family="Helvetica,sans-Serif" font-size="10.00">MIDI_Parser</text>
<polyline fill="none" stroke="black" points="110.5,-823.5 231.5,-823.5 "/>
<text text-anchor="middle" x="171" y="-811.5" font-family="Helvetica,sans-Serif" font-size="10.00"> </text>
<polyline fill="none" stroke="black" points="110.5,-804.5 231.5,-804.5 "/>
<text text-anchor="start" x="118.5" y="-792.5" font-family="Helvetica,sans-Serif" font-size="10.00">+ getChannelMessage()</text>
<text text-anchor="start" x="118.5" y="-781.5" font-family="Helvetica,sans-Serif" font-size="10.00">+ getSysEx()</text>
<text text-anchor="start" x="118.5" y="-770.5" font-family="Helvetica,sans-Serif" font-size="10.00">+ getSysExBuffer()</text>
<text text-anchor="start" x="118.5" y="-759.5" font-family="Helvetica,sans-Serif" font-size="10.00">+ getSysExLength()</text>
<text text-anchor="start" x="118.5" y="-748.5" font-family="Helvetica,sans-Serif" font-size="10.00">+ getCN()</text>
<text text-anchor="start" x="118.5" y="-737.5" font-family="Helvetica,sans-Serif" font-size="10.00">+ isStatus()</text>
<text text-anchor="start" x="118.5" y="-726.5" font-family="Helvetica,sans-Serif" font-size="10.00">+ isData()</text>
</a>
</g>
</g>
<!-- Node6&#45;&gt;Node4 -->
<g id="edge6" class="edge"><title>Node6&#45;&gt;Node4</title>
<path fill="none" stroke="#404040" d="M196.739,-719.463C209.582,-689.474 225.447,-652.76 240,-620 245.216,-608.259 250.717,-596.014 256.234,-583.824"/>
<polygon fill="none" stroke="#404040" points="256.34,-583.59 255.175,-576.474 261.296,-572.662 262.461,-579.778 256.34,-583.59"/>
<text text-anchor="middle" x="270" y="-594" font-family="Helvetica,sans-Serif" font-size="10.00"> &#45;parser</text>
</g>
<!-- Node9 -->
<g id="node9" class="node"><title>Node9</title>
<g id="a_node9"><a xlink:href="../../d0/d0d/classSerialMIDI__Parser.html" target="_top" xlink:title=" ">
<polygon fill="white" stroke="black" points="122.5,-422 122.5,-523 219.5,-523 219.5,-422 122.5,-422"/>
<text text-anchor="middle" x="171" y="-511" font-family="Helvetica,sans-Serif" font-size="10.00">SerialMIDI_Parser</text>
<polyline fill="none" stroke="black" points="122.5,-504 219.5,-504 "/>
<text text-anchor="start" x="130.5" y="-492" font-family="Helvetica,sans-Serif" font-size="10.00">&#45; thirdByte</text>
<polyline fill="none" stroke="black" points="122.5,-485 219.5,-485 "/>
<text text-anchor="start" x="130.5" y="-473" font-family="Helvetica,sans-Serif" font-size="10.00">+ parse()</text>
<text text-anchor="start" x="130.5" y="-462" font-family="Helvetica,sans-Serif" font-size="10.00">+ getSysEx()</text>
<text text-anchor="start" x="130.5" y="-451" font-family="Helvetica,sans-Serif" font-size="10.00"># addSysExByte()</text>
<text text-anchor="start" x="130.5" y="-440" font-family="Helvetica,sans-Serif" font-size="10.00"># startSysEx()</text>
<text text-anchor="start" x="130.5" y="-429" font-family="Helvetica,sans-Serif" font-size="10.00"># endSysEx()</text>
</a>
</g>
</g>
<!-- Node6&#45;&gt;Node9 -->
<g id="edge10" class="edge"><title>Node6&#45;&gt;Node9</title>
<path fill="none" stroke="midnightblue" d="M171,-709.436C171,-652.5 171,-573.829 171,-523.301"/>
<polygon fill="none" stroke="midnightblue" points="167.5,-709.445 171,-719.445 174.5,-709.445 167.5,-709.445"/>
</g>
<!-- Node7 -->
<g id="node7" class="node"><title>Node7</title>
<g id="a_node7"><a xlink:href="../../d7/d3f/structChannelMessage.html" target="_top" xlink:title=" ">
<polygon fill="white" stroke="black" points="125,-989.5 125,-1090.5 217,-1090.5 217,-989.5 125,-989.5"/>
<text text-anchor="middle" x="171" y="-1078.5" font-family="Helvetica,sans-Serif" font-size="10.00">ChannelMessage</text>
<polyline fill="none" stroke="black" points="125,-1071.5 217,-1071.5 "/>
<text text-anchor="start" x="133" y="-1059.5" font-family="Helvetica,sans-Serif" font-size="10.00">+ header</text>
<text text-anchor="start" x="133" y="-1048.5" font-family="Helvetica,sans-Serif" font-size="10.00">+ data1</text>
<text text-anchor="start" x="133" y="-1037.5" font-family="Helvetica,sans-Serif" font-size="10.00">+ data2</text>
<text text-anchor="start" x="133" y="-1026.5" font-family="Helvetica,sans-Serif" font-size="10.00">+ CN</text>
<polyline fill="none" stroke="black" points="125,-1019.5 217,-1019.5 "/>
<text text-anchor="start" x="133" y="-1007.5" font-family="Helvetica,sans-Serif" font-size="10.00">+ operator==()</text>
<text text-anchor="start" x="133" y="-996.5" font-family="Helvetica,sans-Serif" font-size="10.00">+ operator!=()</text>
</a>
</g>
</g>
<!-- Node7&#45;&gt;Node6 -->
<g id="edge7" class="edge"><title>Node7&#45;&gt;Node6</title>
<path fill="none" stroke="#404040" d="M171,-989.448C171,-951.265 171,-897.898 171,-854.855"/>
<polygon fill="none" stroke="#404040" points="171,-854.722 167,-848.722 171,-842.722 175,-848.722 171,-854.722"/>
<text text-anchor="middle" x="194" y="-963" font-family="Helvetica,sans-Serif" font-size="10.00"> #midimsg</text>
</g>
<!-- Node8 -->
<g id="node8" class="node"><title>Node8</title>
<g id="a_node8"><a xlink:href="../../de/d55/classMIDI__Callbacks.html" target="_top" xlink:title="A class for callbacks from MIDI input.">
<polygon fill="white" stroke="black" points="249.5,-736 249.5,-826 370.5,-826 370.5,-736 249.5,-736"/>
<text text-anchor="middle" x="310" y="-814" font-family="Helvetica,sans-Serif" font-size="10.00">MIDI_Callbacks</text>
<polyline fill="none" stroke="black" points="249.5,-807 370.5,-807 "/>
<text text-anchor="middle" x="310" y="-795" font-family="Helvetica,sans-Serif" font-size="10.00"> </text>
<polyline fill="none" stroke="black" points="249.5,-788 370.5,-788 "/>
<text text-anchor="start" x="257.5" y="-776" font-family="Helvetica,sans-Serif" font-size="10.00">+ onChannelMessage()</text>
<text text-anchor="start" x="257.5" y="-765" font-family="Helvetica,sans-Serif" font-size="10.00">+ onSysExMessage()</text>
<text text-anchor="start" x="257.5" y="-754" font-family="Helvetica,sans-Serif" font-size="10.00">+ onRealtimeMessage()</text>
<text text-anchor="start" x="257.5" y="-743" font-family="Helvetica,sans-Serif" font-size="10.00">+ ~MIDI_Callbacks()</text>
</a>
</g>
</g>
<!-- Node8&#45;&gt;Node4 -->
<g id="edge8" class="edge"><title>Node8&#45;&gt;Node4</title>
<path fill="none" stroke="#404040" d="M309.567,-735.76C309.182,-696.387 308.601,-637.11 308.09,-584.868"/>
<polygon fill="none" stroke="#404040" points="308.089,-584.8 304.031,-578.839 307.972,-572.8 312.031,-578.761 308.089,-584.8"/>
<text text-anchor="middle" x="333" y="-594" font-family="Helvetica,sans-Serif" font-size="10.00"> &#45;callbacks</text>
</g>
<!-- Node9&#45;&gt;Node3 -->
<g id="edge9" class="edge"><title>Node9&#45;&gt;Node3</title>
<path fill="none" stroke="#404040" d="M190.683,-421.915C201.029,-395.85 213.802,-363.673 224.754,-336.082"/>
<polygon fill="none" stroke="#404040" points="224.896,-335.723 223.392,-328.67 229.324,-324.569 230.828,-331.622 224.896,-335.723"/>
<text text-anchor="middle" x="240" y="-346" font-family="Helvetica,sans-Serif" font-size="10.00"> #parser</text>
</g>
<!-- Node10 -->
<g id="node10" class="node"><title>Node10</title>
<g id="a_node10"><a xlink:href="../../d1/db1/classSysExBuffer.html" target="_top" xlink:title=" ">
<polygon fill="white" stroke="black" points="0,-708.5 0,-853.5 92,-853.5 92,-708.5 0,-708.5"/>
<text text-anchor="middle" x="46" y="-841.5" font-family="Helvetica,sans-Serif" font-size="10.00">SysExBuffer</text>
<polyline fill="none" stroke="black" points="0,-834.5 92,-834.5 "/>
<text text-anchor="start" x="8" y="-822.5" font-family="Helvetica,sans-Serif" font-size="10.00">&#45; SysExBuffer</text>
<text text-anchor="start" x="8" y="-811.5" font-family="Helvetica,sans-Serif" font-size="10.00">&#45; SysExLength</text>
<text text-anchor="start" x="8" y="-800.5" font-family="Helvetica,sans-Serif" font-size="10.00">&#45; receiving</text>
<polyline fill="none" stroke="black" points="0,-793.5 92,-793.5 "/>
<text text-anchor="start" x="8" y="-781.5" font-family="Helvetica,sans-Serif" font-size="10.00">+ start()</text>
<text text-anchor="start" x="8" y="-770.5" font-family="Helvetica,sans-Serif" font-size="10.00">+ end()</text>
<text text-anchor="start" x="8" y="-759.5" font-family="Helvetica,sans-Serif" font-size="10.00">+ add()</text>
<text text-anchor="start" x="8" y="-748.5" font-family="Helvetica,sans-Serif" font-size="10.00">+ hasSpaceLeft()</text>
<text text-anchor="start" x="8" y="-737.5" font-family="Helvetica,sans-Serif" font-size="10.00">+ isReceiving()</text>
<text text-anchor="start" x="8" y="-726.5" font-family="Helvetica,sans-Serif" font-size="10.00">+ getBuffer()</text>
<text text-anchor="start" x="8" y="-715.5" font-family="Helvetica,sans-Serif" font-size="10.00">+ getLength()</text>
</a>
</g>
</g>
<!-- Node10&#45;&gt;Node9 -->
<g id="edge11" class="edge"><title>Node10&#45;&gt;Node9</title>
<path fill="none" stroke="#404040" d="M65.6716,-708.394C76.3763,-672.559 90.7475,-628.862 107,-591 115.196,-571.908 125.477,-551.813 135.386,-533.748"/>
<polygon fill="none" stroke="#404040" points="135.487,-533.566 134.909,-526.378 141.322,-523.079 141.9,-530.267 135.487,-533.566"/>
<text text-anchor="middle" x="137" y="-594" font-family="Helvetica,sans-Serif" font-size="10.00"> #sysexbuffer</text>
</g>
</g>
</svg>
