<?xml version="1.0" encoding="UTF-8" standalone="no"?>
<!DOCTYPE svg PUBLIC "-//W3C//DTD SVG 1.1//EN"
 "http://www.w3.org/Graphics/SVG/1.1/DTD/svg11.dtd">
<!-- Generated by graphviz version 2.38.0 (20140413.2041)
 -->
<!-- Title: Exit.cpp Pages: 1 -->
<svg width="928pt" height="364pt"
 viewBox="0.00 0.00 928.00 364.00" xmlns="http://www.w3.org/2000/svg" xmlns:xlink="http://www.w3.org/1999/xlink">
<g id="graph0" class="graph" transform="scale(1 1) rotate(0) translate(4 360)">
<title>Exit.cpp</title>
<polygon fill="white" stroke="none" points="-4,4 -4,-360 924,-360 924,4 -4,4"/>
<!-- Node1 -->
<g id="node1" class="node"><title>Node1</title>
<g id="a_node1"><a xlink:title=" ">
<polygon fill="#bfbfbf" stroke="black" points="1.5,-336.5 1.5,-355.5 54.5,-355.5 54.5,-336.5 1.5,-336.5"/>
<text text-anchor="middle" x="28" y="-343.5" font-family="Helvetica,sans-Serif" font-size="10.00">Exit.cpp</text>
</a>
</g>
</g>
<!-- Node2 -->
<g id="node2" class="node"><title>Node2</title>
<g id="a_node2"><a xlink:href="../../d1/d65/Warnings_8hpp.html" target="_top" xlink:title=" ">
<polygon fill="white" stroke="black" points="116.5,-0.5 116.5,-19.5 249.5,-19.5 249.5,-0.5 116.5,-0.5"/>
<text text-anchor="middle" x="183" y="-7.5" font-family="Helvetica,sans-Serif" font-size="10.00">AH/Settings/Warnings.hpp</text>
</a>
</g>
</g>
<!-- Node1&#45;&gt;Node2 -->
<g id="edge1" class="edge"><title>Node1&#45;&gt;Node2</title>
<path fill="none" stroke="midnightblue" d="M24.2238,-336.351C16.581,-318.034 0,-273.821 0,-235 0,-235 0,-235 0,-121 0,-63.3657 67.5021,-35.1638 120.513,-21.9025"/>
<polygon fill="midnightblue" stroke="midnightblue" points="121.637,-25.2331 130.56,-19.5207 120.022,-18.4219 121.637,-25.2331"/>
</g>
<!-- Node3 -->
<g id="node3" class="node"><title>Node3</title>
<g id="a_node3"><a xlink:href="../../d1/d93/Error_8hpp.html" target="_top" xlink:title=" ">
<polygon fill="white" stroke="black" points="28,-280.5 28,-299.5 84,-299.5 84,-280.5 28,-280.5"/>
<text text-anchor="middle" x="56" y="-287.5" font-family="Helvetica,sans-Serif" font-size="10.00">Error.hpp</text>
</a>
</g>
</g>
<!-- Node1&#45;&gt;Node3 -->
<g id="edge2" class="edge"><title>Node1&#45;&gt;Node3</title>
<path fill="none" stroke="midnightblue" d="M32.6236,-336.083C36.4563,-328.691 42.0242,-317.953 46.7646,-308.811"/>
<polygon fill="midnightblue" stroke="midnightblue" points="49.9663,-310.24 51.4624,-299.751 43.752,-307.018 49.9663,-310.24"/>
</g>
<!-- Node3&#45;&gt;Node2 -->
<g id="edge3" class="edge"><title>Node3&#45;&gt;Node2</title>
<path fill="none" stroke="midnightblue" d="M53.5724,-280.24C48.6592,-261.711 38,-217.122 38,-179 38,-179 38,-179 38,-121 38,-68.5275 99.0157,-37.8439 141.887,-22.7611"/>
<polygon fill="midnightblue" stroke="midnightblue" points="143.173,-26.0211 151.537,-19.5176 140.943,-19.3859 143.173,-26.0211"/>
</g>
<!-- Node4 -->
<g id="node4" class="node"><title>Node4</title>
<g id="a_node4"><a xlink:href="../../df/dee/Debug_8hpp.html" target="_top" xlink:title=" ">
<polygon fill="white" stroke="black" points="181.5,-224.5 181.5,-243.5 294.5,-243.5 294.5,-224.5 181.5,-224.5"/>
<text text-anchor="middle" x="238" y="-231.5" font-family="Helvetica,sans-Serif" font-size="10.00">AH/Debug/Debug.hpp</text>
</a>
</g>
</g>
<!-- Node3&#45;&gt;Node4 -->
<g id="edge4" class="edge"><title>Node3&#45;&gt;Node4</title>
<path fill="none" stroke="midnightblue" d="M84.0386,-280.681C114.986,-271.499 164.987,-256.663 199.571,-246.402"/>
<polygon fill="midnightblue" stroke="midnightblue" points="200.737,-249.707 209.329,-243.507 198.746,-242.996 200.737,-249.707"/>
</g>
<!-- Node4&#45;&gt;Node2 -->
<g id="edge5" class="edge"><title>Node4&#45;&gt;Node2</title>
<path fill="none" stroke="midnightblue" d="M224.989,-224.326C194.743,-203.256 120.278,-145.937 94,-76 90.8735,-67.6791 89.3438,-63.5718 94,-56 103.553,-40.4655 120.311,-30.0963 136.728,-23.2717"/>
<polygon fill="midnightblue" stroke="midnightblue" points="138.183,-26.4632 146.298,-19.6508 135.706,-19.9162 138.183,-26.4632"/>
</g>
<!-- Node5 -->
<g id="node5" class="node"><title>Node5</title>
<g id="a_node5"><a xlink:href="../../dd/d80/PrintStream_8hpp.html" target="_top" xlink:title=" ">
<polygon fill="white" stroke="black" points="103.5,-56.5 103.5,-75.5 262.5,-75.5 262.5,-56.5 103.5,-56.5"/>
<text text-anchor="middle" x="183" y="-63.5" font-family="Helvetica,sans-Serif" font-size="10.00">AH/PrintStream/PrintStream.hpp</text>
</a>
</g>
</g>
<!-- Node4&#45;&gt;Node5 -->
<g id="edge6" class="edge"><title>Node4&#45;&gt;Node5</title>
<path fill="none" stroke="midnightblue" d="M228.694,-224.302C220.287,-215.867 208.296,-202.281 202,-188 187.041,-154.07 183.645,-110.22 183.001,-85.7083"/>
<polygon fill="midnightblue" stroke="midnightblue" points="186.5,-85.5863 182.866,-75.6338 179.5,-85.6796 186.5,-85.5863"/>
</g>
<!-- Node7 -->
<g id="node7" class="node"><title>Node7</title>
<g id="a_node7"><a xlink:href="../../de/dd1/AH_2Settings_2SettingsWrapper_8hpp.html" target="_top" xlink:title=" ">
<polygon fill="white" stroke="black" points="211,-168.5 211,-187.5 375,-187.5 375,-168.5 211,-168.5"/>
<text text-anchor="middle" x="293" y="-175.5" font-family="Helvetica,sans-Serif" font-size="10.00">AH/Settings/SettingsWrapper.hpp</text>
</a>
</g>
</g>
<!-- Node4&#45;&gt;Node7 -->
<g id="edge9" class="edge"><title>Node4&#45;&gt;Node7</title>
<path fill="none" stroke="midnightblue" d="M241.916,-224.083C248.457,-215.984 260.472,-203.866 271.34,-194.233"/>
<polygon fill="midnightblue" stroke="midnightblue" points="273.609,-196.898 278.956,-187.751 269.072,-191.567 273.609,-196.898"/>
</g>
<!-- Node16 -->
<g id="node16" class="node"><title>Node16</title>
<g id="a_node16"><a xlink:href="../../d7/d52/DebugVal_8hpp.html" target="_top" xlink:title=" ">
<polygon fill="white" stroke="black" points="393,-168.5 393,-187.5 471,-187.5 471,-168.5 393,-168.5"/>
<text text-anchor="middle" x="432" y="-175.5" font-family="Helvetica,sans-Serif" font-size="10.00">DebugVal.hpp</text>
</a>
</g>
</g>
<!-- Node4&#45;&gt;Node16 -->
<g id="edge24" class="edge"><title>Node4&#45;&gt;Node16</title>
<path fill="none" stroke="midnightblue" d="M268.74,-224.444C301.944,-215.201 354.991,-200.436 391.557,-190.257"/>
<polygon fill="midnightblue" stroke="midnightblue" points="392.709,-193.57 401.404,-187.516 390.832,-186.826 392.709,-193.57"/>
</g>
<!-- Node5&#45;&gt;Node2 -->
<g id="edge7" class="edge"><title>Node5&#45;&gt;Node2</title>
<path fill="none" stroke="midnightblue" d="M183,-56.083C183,-49.0059 183,-38.8611 183,-29.9865"/>
<polygon fill="midnightblue" stroke="midnightblue" points="186.5,-29.751 183,-19.7511 179.5,-29.7511 186.5,-29.751"/>
</g>
<!-- Node6 -->
<g id="node6" class="node"><title>Node6</title>
<g id="a_node6"><a xlink:title=" ">
<polygon fill="white" stroke="#bfbfbf" points="316,-0.5 316,-19.5 374,-19.5 374,-0.5 316,-0.5"/>
<text text-anchor="middle" x="345" y="-7.5" font-family="Helvetica,sans-Serif" font-size="10.00">Arduino.h</text>
</a>
</g>
</g>
<!-- Node5&#45;&gt;Node6 -->
<g id="edge8" class="edge"><title>Node5&#45;&gt;Node6</title>
<path fill="none" stroke="midnightblue" d="M208.669,-56.4435C235.923,-47.3591 279.184,-32.9388 309.651,-22.7831"/>
<polygon fill="midnightblue" stroke="midnightblue" points="311.071,-25.9992 319.451,-19.5164 308.857,-19.3584 311.071,-25.9992"/>
</g>
<!-- Node7&#45;&gt;Node2 -->
<g id="edge10" class="edge"><title>Node7&#45;&gt;Node2</title>
<path fill="none" stroke="midnightblue" d="M293.861,-168.379C295.523,-147.04 296.976,-90.9633 271,-56 259.708,-40.8013 241.801,-30.3444 225.08,-23.3652"/>
<polygon fill="midnightblue" stroke="midnightblue" points="226.02,-19.9768 215.43,-19.6484 223.504,-26.509 226.02,-19.9768"/>
</g>
<!-- Node7&#45;&gt;Node4 -->
<g id="edge23" class="edge"><title>Node7&#45;&gt;Node4</title>
<path fill="none" stroke="midnightblue" d="M289.151,-187.834C282.614,-195.948 270.521,-208.145 259.6,-217.82"/>
<polygon fill="midnightblue" stroke="midnightblue" points="257.302,-215.179 251.952,-224.324 261.837,-220.512 257.302,-215.179"/>
</g>
<!-- Node8 -->
<g id="node8" class="node"><title>Node8</title>
<g id="a_node8"><a xlink:href="../../d6/db0/AH_2Settings_2NamespaceSettings_8hpp.html" target="_top" xlink:title=" ">
<polygon fill="white" stroke="black" points="532,-0.5 532,-19.5 656,-19.5 656,-0.5 532,-0.5"/>
<text text-anchor="middle" x="594" y="-7.5" font-family="Helvetica,sans-Serif" font-size="10.00">NamespaceSettings.hpp</text>
</a>
</g>
</g>
<!-- Node7&#45;&gt;Node8 -->
<g id="edge11" class="edge"><title>Node7&#45;&gt;Node8</title>
<path fill="none" stroke="midnightblue" d="M345.777,-168.474C429.85,-153.695 588.084,-120.577 621,-76 631.94,-61.1842 620.64,-41.2835 609.494,-27.4208"/>
<polygon fill="midnightblue" stroke="midnightblue" points="611.97,-24.9331 602.775,-19.669 606.68,-29.518 611.97,-24.9331"/>
</g>
<!-- Node9 -->
<g id="node9" class="node"><title>Node9</title>
<g id="a_node9"><a xlink:href="../../d5/d4f/AH_2Settings_2Settings_8hpp.html" target="_top" xlink:title="All user settings and debugging options can be changed here.">
<polygon fill="white" stroke="black" points="662.5,-112.5 662.5,-131.5 733.5,-131.5 733.5,-112.5 662.5,-112.5"/>
<text text-anchor="middle" x="698" y="-119.5" font-family="Helvetica,sans-Serif" font-size="10.00">Settings.hpp</text>
</a>
</g>
</g>
<!-- Node7&#45;&gt;Node9 -->
<g id="edge12" class="edge"><title>Node7&#45;&gt;Node9</title>
<path fill="none" stroke="midnightblue" d="M369.335,-168.486C441.334,-160.181 552.204,-146.683 648,-132 649.444,-131.779 650.91,-131.548 652.39,-131.311"/>
<polygon fill="midnightblue" stroke="midnightblue" points="652.97,-134.763 662.258,-129.666 651.819,-127.858 652.97,-134.763"/>
</g>
<!-- Node15 -->
<g id="node15" class="node"><title>Node15</title>
<g id="a_node15"><a xlink:href="../../d9/d98/TeensyUSBTypes_8hpp.html" target="_top" xlink:title=" ">
<polygon fill="white" stroke="black" points="752,-112.5 752,-131.5 920,-131.5 920,-112.5 752,-112.5"/>
<text text-anchor="middle" x="836" y="-119.5" font-family="Helvetica,sans-Serif" font-size="10.00">AH/Teensy/TeensyUSBTypes.hpp</text>
</a>
</g>
</g>
<!-- Node7&#45;&gt;Node15 -->
<g id="edge22" class="edge"><title>Node7&#45;&gt;Node15</title>
<path fill="none" stroke="midnightblue" d="M375.175,-168.828C473.59,-159.041 638.095,-142.681 741.626,-132.385"/>
<polygon fill="midnightblue" stroke="midnightblue" points="742.156,-135.85 751.761,-131.377 741.463,-128.884 742.156,-135.85"/>
</g>
<!-- Node10 -->
<g id="node10" class="node"><title>Node10</title>
<g id="a_node10"><a xlink:href="../../dc/d50/Frequency_8hpp.html" target="_top" xlink:title=" ">
<polygon fill="white" stroke="black" points="484,-56.5 484,-75.5 612,-75.5 612,-56.5 484,-56.5"/>
<text text-anchor="middle" x="548" y="-63.5" font-family="Helvetica,sans-Serif" font-size="10.00">AH/Types/Frequency.hpp</text>
</a>
</g>
</g>
<!-- Node9&#45;&gt;Node10 -->
<g id="edge13" class="edge"><title>Node9&#45;&gt;Node10</title>
<path fill="none" stroke="midnightblue" d="M674.232,-112.444C649.107,-103.399 609.289,-89.064 581.1,-78.9158"/>
<polygon fill="midnightblue" stroke="midnightblue" points="582.251,-75.6106 571.657,-75.5164 579.88,-82.1968 582.251,-75.6106"/>
</g>
<!-- Node11 -->
<g id="node11" class="node"><title>Node11</title>
<g id="a_node11"><a xlink:href="../../d7/d7c/ADCConfig_8hpp.html" target="_top" xlink:title="This file contains the platform&#45;specific ADC resolutions. By default, the library automatically selec...">
<polygon fill="white" stroke="black" points="318,-56.5 318,-75.5 466,-75.5 466,-56.5 318,-56.5"/>
<text text-anchor="middle" x="392" y="-63.5" font-family="Helvetica,sans-Serif" font-size="10.00">AH/Hardware/ADCConfig.hpp</text>
</a>
</g>
</g>
<!-- Node9&#45;&gt;Node11 -->
<g id="edge16" class="edge"><title>Node9&#45;&gt;Node11</title>
<path fill="none" stroke="midnightblue" d="M662.299,-114.7C610.254,-105.515 512.952,-88.3445 450.39,-77.3042"/>
<polygon fill="midnightblue" stroke="midnightblue" points="450.735,-73.811 440.279,-75.5198 449.518,-80.7045 450.735,-73.811"/>
</g>
<!-- Node12 -->
<g id="node12" class="node"><title>Node12</title>
<g id="a_node12"><a xlink:title=" ">
<polygon fill="white" stroke="#bfbfbf" points="668,-56.5 668,-75.5 716,-75.5 716,-56.5 668,-56.5"/>
<text text-anchor="middle" x="692" y="-63.5" font-family="Helvetica,sans-Serif" font-size="10.00">limits.h</text>
</a>
</g>
</g>
<!-- Node9&#45;&gt;Node12 -->
<g id="edge19" class="edge"><title>Node9&#45;&gt;Node12</title>
<path fill="none" stroke="midnightblue" d="M697.009,-112.083C696.214,-104.927 695.071,-94.6353 694.077,-85.6911"/>
<polygon fill="midnightblue" stroke="midnightblue" points="697.555,-85.3034 692.972,-75.7511 690.598,-86.0765 697.555,-85.3034"/>
</g>
<!-- Node13 -->
<g id="node13" class="node"><title>Node13</title>
<g id="a_node13"><a xlink:title=" ">
<polygon fill="white" stroke="#bfbfbf" points="734,-56.5 734,-75.5 786,-75.5 786,-56.5 734,-56.5"/>
<text text-anchor="middle" x="760" y="-63.5" font-family="Helvetica,sans-Serif" font-size="10.00">stddef.h</text>
</a>
</g>
</g>
<!-- Node9&#45;&gt;Node13 -->
<g id="edge20" class="edge"><title>Node9&#45;&gt;Node13</title>
<path fill="none" stroke="midnightblue" d="M707.961,-112.324C717.127,-104.341 730.937,-92.3128 742.028,-82.6529"/>
<polygon fill="midnightblue" stroke="midnightblue" points="744.615,-85.041 749.857,-75.8339 740.018,-79.7624 744.615,-85.041"/>
</g>
<!-- Node14 -->
<g id="node14" class="node"><title>Node14</title>
<g id="a_node14"><a xlink:title=" ">
<polygon fill="white" stroke="#bfbfbf" points="804.5,-56.5 804.5,-75.5 853.5,-75.5 853.5,-56.5 804.5,-56.5"/>
<text text-anchor="middle" x="829" y="-63.5" font-family="Helvetica,sans-Serif" font-size="10.00">stdint.h</text>
</a>
</g>
</g>
<!-- Node9&#45;&gt;Node14 -->
<g id="edge21" class="edge"><title>Node9&#45;&gt;Node14</title>
<path fill="none" stroke="midnightblue" d="M718.757,-112.444C740.316,-103.557 774.263,-89.5632 798.794,-79.4514"/>
<polygon fill="midnightblue" stroke="midnightblue" points="800.428,-82.5634 808.34,-75.5164 797.761,-76.0917 800.428,-82.5634"/>
</g>
<!-- Node10&#45;&gt;Node2 -->
<g id="edge14" class="edge"><title>Node10&#45;&gt;Node2</title>
<path fill="none" stroke="midnightblue" d="M490.165,-56.4435C425.156,-46.8259 319.723,-31.2275 250.869,-21.0409"/>
<polygon fill="midnightblue" stroke="midnightblue" points="250.969,-17.5177 240.565,-19.5164 249.945,-24.4423 250.969,-17.5177"/>
</g>
<!-- Node10&#45;&gt;Node8 -->
<g id="edge15" class="edge"><title>Node10&#45;&gt;Node8</title>
<path fill="none" stroke="midnightblue" d="M555.596,-56.083C562.227,-48.2982 572.021,-36.8015 580.058,-27.3665"/>
<polygon fill="midnightblue" stroke="midnightblue" points="582.725,-29.6332 586.545,-19.7511 577.396,-25.0939 582.725,-29.6332"/>
</g>
<!-- Node11&#45;&gt;Node2 -->
<g id="edge17" class="edge"><title>Node11&#45;&gt;Node2</title>
<path fill="none" stroke="midnightblue" d="M358.883,-56.4435C322.882,-47.1419 265.23,-32.246 225.814,-22.062"/>
<polygon fill="midnightblue" stroke="midnightblue" points="226.519,-18.6294 215.962,-19.5164 224.768,-25.4068 226.519,-18.6294"/>
</g>
<!-- Node11&#45;&gt;Node6 -->
<g id="edge18" class="edge"><title>Node11&#45;&gt;Node6</title>
<path fill="none" stroke="midnightblue" d="M384.239,-56.083C377.463,-48.2982 367.457,-36.8015 359.245,-27.3665"/>
<polygon fill="midnightblue" stroke="midnightblue" points="361.822,-24.9963 352.617,-19.7511 356.542,-29.592 361.822,-24.9963"/>
</g>
</g>
</svg>
