<?xml version="1.0" encoding="UTF-8" standalone="no"?>
<!DOCTYPE svg PUBLIC "-//W3C//DTD SVG 1.1//EN"
 "http://www.w3.org/Graphics/SVG/1.1/DTD/svg11.dtd">
<!-- Generated by graphviz version 2.38.0 (20140413.2041)
 -->
<!-- Title: AH::ButtonMatrix&lt; nb_rows, nb_cols &gt; Pages: 1 -->
<svg width="1347pt" height="529pt"
 viewBox="0.00 0.00 1347.00 529.00" xmlns="http://www.w3.org/2000/svg" xmlns:xlink="http://www.w3.org/1999/xlink">
<g id="graph0" class="graph" transform="scale(1 1) rotate(0) translate(4 525)">
<title>AH::ButtonMatrix&lt; nb_rows, nb_cols &gt;</title>
<polygon fill="white" stroke="none" points="-4,4 -4,-525 1343,-525 1343,4 -4,4"/>
<!-- Node1 -->
<g id="node1" class="node"><title>Node1</title>
<g id="a_node1"><a xlink:title="A class that reads the states of a button matrix.">
<polygon fill="#bfbfbf" stroke="black" points="578,-320.5 578,-520.5 690,-520.5 690,-320.5 578,-320.5"/>
<text text-anchor="start" x="586" y="-508.5" font-family="Helvetica,sans-Serif" font-size="10.00">AH::ButtonMatrix&lt; nb</text>
<text text-anchor="middle" x="634" y="-497.5" font-family="Helvetica,sans-Serif" font-size="10.00">_rows, nb_cols &gt;</text>
<polyline fill="none" stroke="black" points="578,-490.5 690,-490.5 "/>
<text text-anchor="start" x="586" y="-478.5" font-family="Helvetica,sans-Serif" font-size="10.00">&#45; prevRefresh</text>
<text text-anchor="start" x="586" y="-467.5" font-family="Helvetica,sans-Serif" font-size="10.00">&#45; prevStates</text>
<text text-anchor="start" x="586" y="-456.5" font-family="Helvetica,sans-Serif" font-size="10.00">&#45; rowPins</text>
<text text-anchor="start" x="586" y="-445.5" font-family="Helvetica,sans-Serif" font-size="10.00">&#45; colPins</text>
<polyline fill="none" stroke="black" points="578,-438.5 690,-438.5 "/>
<text text-anchor="start" x="586" y="-426.5" font-family="Helvetica,sans-Serif" font-size="10.00">+ ButtonMatrix()</text>
<text text-anchor="start" x="586" y="-415.5" font-family="Helvetica,sans-Serif" font-size="10.00">+ ~ButtonMatrix()</text>
<text text-anchor="start" x="586" y="-404.5" font-family="Helvetica,sans-Serif" font-size="10.00">+ begin()</text>
<text text-anchor="start" x="586" y="-393.5" font-family="Helvetica,sans-Serif" font-size="10.00">+ update()</text>
<text text-anchor="start" x="586" y="-382.5" font-family="Helvetica,sans-Serif" font-size="10.00">+ getPrevState()</text>
<text text-anchor="start" x="586" y="-371.5" font-family="Helvetica,sans-Serif" font-size="10.00">&#45; onButtonChanged()</text>
<text text-anchor="start" x="586" y="-360.5" font-family="Helvetica,sans-Serif" font-size="10.00">&#45; setPrevState()</text>
<text text-anchor="start" x="586" y="-349.5" font-family="Helvetica,sans-Serif" font-size="10.00">&#45; positionToBits()</text>
<text text-anchor="start" x="586" y="-338.5" font-family="Helvetica,sans-Serif" font-size="10.00">&#45; bitsToIndex()</text>
<text text-anchor="start" x="586" y="-327.5" font-family="Helvetica,sans-Serif" font-size="10.00">&#45; bitsToBitmask()</text>
</a>
</g>
</g>
<!-- Node2 -->
<g id="node2" class="node"><title>Node2</title>
<g id="a_node2"><a xlink:href="../../d3/d65/classBankable_1_1MIDIButtonMatrix.html" target="_top" xlink:title="MIDIButtonMatrix.">
<polygon fill="white" stroke="black" points="0,-149.5 0,-272.5 140,-272.5 140,-149.5 0,-149.5"/>
<text text-anchor="start" x="8" y="-260.5" font-family="Helvetica,sans-Serif" font-size="10.00">Bankable::MIDIButtonMatrix</text>
<text text-anchor="middle" x="70" y="-249.5" font-family="Helvetica,sans-Serif" font-size="10.00">&lt; nb_rows, nb_cols &gt;</text>
<polyline fill="none" stroke="black" points="0,-242.5 140,-242.5 "/>
<text text-anchor="start" x="8" y="-230.5" font-family="Helvetica,sans-Serif" font-size="10.00">+ sender</text>
<text text-anchor="start" x="8" y="-219.5" font-family="Helvetica,sans-Serif" font-size="10.00">&#45; address</text>
<text text-anchor="start" x="8" y="-208.5" font-family="Helvetica,sans-Serif" font-size="10.00">&#45; activeButtons</text>
<polyline fill="none" stroke="black" points="0,-201.5 140,-201.5 "/>
<text text-anchor="start" x="8" y="-189.5" font-family="Helvetica,sans-Serif" font-size="10.00">+ begin()</text>
<text text-anchor="start" x="8" y="-178.5" font-family="Helvetica,sans-Serif" font-size="10.00">+ update()</text>
<text text-anchor="start" x="8" y="-167.5" font-family="Helvetica,sans-Serif" font-size="10.00"># MIDIButtonMatrix()</text>
<text text-anchor="start" x="8" y="-156.5" font-family="Helvetica,sans-Serif" font-size="10.00">&#45; onButtonChanged()</text>
</a>
</g>
</g>
<!-- Node1&#45;&gt;Node2 -->
<g id="edge1" class="edge"><title>Node1&#45;&gt;Node2</title>
<path fill="none" stroke="midnightblue" d="M567.746,-410.952C470.772,-396.306 286.762,-360.292 149,-284 142.994,-280.674 137.073,-276.805 131.339,-272.62"/>
<polygon fill="none" stroke="midnightblue" points="567.304,-414.425 577.709,-412.428 568.329,-407.501 567.304,-414.425"/>
</g>
<!-- Node3 -->
<g id="node3" class="node"><title>Node3</title>
<g id="a_node3"><a xlink:href="../../d0/d54/classMIDIButtonMatrix.html" target="_top" xlink:title="MIDIButtonMatrix.">
<polygon fill="white" stroke="black" points="158.5,-149.5 158.5,-272.5 271.5,-272.5 271.5,-149.5 158.5,-149.5"/>
<text text-anchor="start" x="166.5" y="-260.5" font-family="Helvetica,sans-Serif" font-size="10.00">MIDIButtonMatrix&lt; nb</text>
<text text-anchor="middle" x="215" y="-249.5" font-family="Helvetica,sans-Serif" font-size="10.00">_rows, nb_cols &gt;</text>
<polyline fill="none" stroke="black" points="158.5,-242.5 271.5,-242.5 "/>
<text text-anchor="start" x="166.5" y="-230.5" font-family="Helvetica,sans-Serif" font-size="10.00">+ sender</text>
<text text-anchor="start" x="166.5" y="-219.5" font-family="Helvetica,sans-Serif" font-size="10.00">&#45; addresses</text>
<text text-anchor="start" x="166.5" y="-208.5" font-family="Helvetica,sans-Serif" font-size="10.00">&#45; baseChannelCN</text>
<polyline fill="none" stroke="black" points="158.5,-201.5 271.5,-201.5 "/>
<text text-anchor="start" x="166.5" y="-189.5" font-family="Helvetica,sans-Serif" font-size="10.00">+ begin()</text>
<text text-anchor="start" x="166.5" y="-178.5" font-family="Helvetica,sans-Serif" font-size="10.00">+ update()</text>
<text text-anchor="start" x="166.5" y="-167.5" font-family="Helvetica,sans-Serif" font-size="10.00"># MIDIButtonMatrix()</text>
<text text-anchor="start" x="166.5" y="-156.5" font-family="Helvetica,sans-Serif" font-size="10.00">&#45; onButtonChanged()</text>
</a>
</g>
</g>
<!-- Node1&#45;&gt;Node3 -->
<g id="edge2" class="edge"><title>Node1&#45;&gt;Node3</title>
<path fill="none" stroke="midnightblue" d="M568.212,-404.04C493.882,-384.445 371.493,-345.602 281,-284 275.954,-280.565 271.022,-276.672 266.271,-272.518"/>
<polygon fill="none" stroke="midnightblue" points="567.367,-407.437 577.926,-406.564 569.127,-400.662 567.367,-407.437"/>
</g>
<!-- Node4 -->
<g id="node4" class="node"><title>Node4</title>
<g id="a_node4"><a xlink:href="../../d0/d54/classMIDIButtonMatrix.html" target="_top" xlink:title=" ">
<polygon fill="white" stroke="black" points="290,-149.5 290,-272.5 444,-272.5 444,-149.5 290,-149.5"/>
<text text-anchor="start" x="298" y="-260.5" font-family="Helvetica,sans-Serif" font-size="10.00">MIDIButtonMatrix&lt; Digital</text>
<text text-anchor="middle" x="367" y="-249.5" font-family="Helvetica,sans-Serif" font-size="10.00">CCSender, nb_rows, nb_cols &gt;</text>
<polyline fill="none" stroke="black" points="290,-242.5 444,-242.5 "/>
<text text-anchor="start" x="298" y="-230.5" font-family="Helvetica,sans-Serif" font-size="10.00">+ sender</text>
<text text-anchor="start" x="298" y="-219.5" font-family="Helvetica,sans-Serif" font-size="10.00">&#45; addresses</text>
<text text-anchor="start" x="298" y="-208.5" font-family="Helvetica,sans-Serif" font-size="10.00">&#45; baseChannelCN</text>
<polyline fill="none" stroke="black" points="290,-201.5 444,-201.5 "/>
<text text-anchor="start" x="298" y="-189.5" font-family="Helvetica,sans-Serif" font-size="10.00">+ begin()</text>
<text text-anchor="start" x="298" y="-178.5" font-family="Helvetica,sans-Serif" font-size="10.00">+ update()</text>
<text text-anchor="start" x="298" y="-167.5" font-family="Helvetica,sans-Serif" font-size="10.00"># MIDIButtonMatrix()</text>
<text text-anchor="start" x="298" y="-156.5" font-family="Helvetica,sans-Serif" font-size="10.00">&#45; onButtonChanged()</text>
</a>
</g>
</g>
<!-- Node1&#45;&gt;Node4 -->
<g id="edge3" class="edge"><title>Node1&#45;&gt;Node4</title>
<path fill="none" stroke="midnightblue" d="M569.74,-372.712C534.854,-346.983 491.174,-314.232 453,-284 448.42,-280.373 443.733,-276.608 439.026,-272.786"/>
<polygon fill="none" stroke="midnightblue" points="567.825,-375.649 577.953,-378.76 571.976,-370.012 567.825,-375.649"/>
</g>
<!-- Node6 -->
<g id="node6" class="node"><title>Node6</title>
<g id="a_node6"><a xlink:href="../../d0/d54/classMIDIButtonMatrix.html" target="_top" xlink:title=" ">
<polygon fill="white" stroke="black" points="462,-149.5 462,-272.5 622,-272.5 622,-149.5 462,-149.5"/>
<text text-anchor="start" x="470" y="-260.5" font-family="Helvetica,sans-Serif" font-size="10.00">MIDIButtonMatrix&lt; Digital</text>
<text text-anchor="middle" x="542" y="-249.5" font-family="Helvetica,sans-Serif" font-size="10.00">NoteSender, nb_rows, nb_cols &gt;</text>
<polyline fill="none" stroke="black" points="462,-242.5 622,-242.5 "/>
<text text-anchor="start" x="470" y="-230.5" font-family="Helvetica,sans-Serif" font-size="10.00">+ sender</text>
<text text-anchor="start" x="470" y="-219.5" font-family="Helvetica,sans-Serif" font-size="10.00">&#45; addresses</text>
<text text-anchor="start" x="470" y="-208.5" font-family="Helvetica,sans-Serif" font-size="10.00">&#45; baseChannelCN</text>
<polyline fill="none" stroke="black" points="462,-201.5 622,-201.5 "/>
<text text-anchor="start" x="470" y="-189.5" font-family="Helvetica,sans-Serif" font-size="10.00">+ begin()</text>
<text text-anchor="start" x="470" y="-178.5" font-family="Helvetica,sans-Serif" font-size="10.00">+ update()</text>
<text text-anchor="start" x="470" y="-167.5" font-family="Helvetica,sans-Serif" font-size="10.00"># MIDIButtonMatrix()</text>
<text text-anchor="start" x="470" y="-156.5" font-family="Helvetica,sans-Serif" font-size="10.00">&#45; onButtonChanged()</text>
</a>
</g>
</g>
<!-- Node1&#45;&gt;Node6 -->
<g id="edge5" class="edge"><title>Node1&#45;&gt;Node6</title>
<path fill="none" stroke="midnightblue" d="M585.965,-311.16C580.109,-297.953 574.298,-284.845 568.911,-272.695"/>
<polygon fill="none" stroke="midnightblue" points="582.768,-312.585 590.021,-320.308 589.167,-309.748 582.768,-312.585"/>
</g>
<!-- Node8 -->
<g id="node8" class="node"><title>Node8</title>
<g id="a_node8"><a xlink:href="../../d3/d65/classBankable_1_1MIDIButtonMatrix.html" target="_top" xlink:title=" ">
<polygon fill="white" stroke="black" points="640,-138.5 640,-283.5 814,-283.5 814,-138.5 640,-138.5"/>
<text text-anchor="start" x="648" y="-271.5" font-family="Helvetica,sans-Serif" font-size="10.00">MIDIButtonMatrix&lt; ManyMatrix</text>
<text text-anchor="start" x="648" y="-260.5" font-family="Helvetica,sans-Serif" font-size="10.00">Addresses&lt; NumBanks, nb</text>
<text text-anchor="start" x="648" y="-249.5" font-family="Helvetica,sans-Serif" font-size="10.00">_rows, nb_cols &gt;, DigitalCCSender,</text>
<text text-anchor="middle" x="727" y="-238.5" font-family="Helvetica,sans-Serif" font-size="10.00"> nb_rows, nb_cols &gt;</text>
<polyline fill="none" stroke="black" points="640,-231.5 814,-231.5 "/>
<text text-anchor="start" x="648" y="-219.5" font-family="Helvetica,sans-Serif" font-size="10.00">+ sender</text>
<text text-anchor="start" x="648" y="-208.5" font-family="Helvetica,sans-Serif" font-size="10.00">&#45; address</text>
<text text-anchor="start" x="648" y="-197.5" font-family="Helvetica,sans-Serif" font-size="10.00">&#45; activeButtons</text>
<polyline fill="none" stroke="black" points="640,-190.5 814,-190.5 "/>
<text text-anchor="start" x="648" y="-178.5" font-family="Helvetica,sans-Serif" font-size="10.00">+ begin()</text>
<text text-anchor="start" x="648" y="-167.5" font-family="Helvetica,sans-Serif" font-size="10.00">+ update()</text>
<text text-anchor="start" x="648" y="-156.5" font-family="Helvetica,sans-Serif" font-size="10.00"># MIDIButtonMatrix()</text>
<text text-anchor="start" x="648" y="-145.5" font-family="Helvetica,sans-Serif" font-size="10.00">&#45; onButtonChanged()</text>
</a>
</g>
</g>
<!-- Node1&#45;&gt;Node8 -->
<g id="edge7" class="edge"><title>Node1&#45;&gt;Node8</title>
<path fill="none" stroke="midnightblue" d="M682.627,-311.003C686.795,-301.704 690.94,-292.456 694.928,-283.559"/>
<polygon fill="none" stroke="midnightblue" points="679.353,-309.751 678.457,-320.308 685.741,-312.614 679.353,-309.751"/>
</g>
<!-- Node10 -->
<g id="node10" class="node"><title>Node10</title>
<g id="a_node10"><a xlink:href="../../d3/d65/classBankable_1_1MIDIButtonMatrix.html" target="_top" xlink:title=" ">
<polygon fill="white" stroke="black" points="832,-138.5 832,-283.5 1012,-283.5 1012,-138.5 832,-138.5"/>
<text text-anchor="start" x="840" y="-271.5" font-family="Helvetica,sans-Serif" font-size="10.00">MIDIButtonMatrix&lt; ManyMatrix</text>
<text text-anchor="start" x="840" y="-260.5" font-family="Helvetica,sans-Serif" font-size="10.00">Addresses&lt; NumBanks, nb</text>
<text text-anchor="start" x="840" y="-249.5" font-family="Helvetica,sans-Serif" font-size="10.00">_rows, nb_cols &gt;, DigitalNoteSender,</text>
<text text-anchor="middle" x="922" y="-238.5" font-family="Helvetica,sans-Serif" font-size="10.00"> nb_rows, nb_cols &gt;</text>
<polyline fill="none" stroke="black" points="832,-231.5 1012,-231.5 "/>
<text text-anchor="start" x="840" y="-219.5" font-family="Helvetica,sans-Serif" font-size="10.00">+ sender</text>
<text text-anchor="start" x="840" y="-208.5" font-family="Helvetica,sans-Serif" font-size="10.00">&#45; address</text>
<text text-anchor="start" x="840" y="-197.5" font-family="Helvetica,sans-Serif" font-size="10.00">&#45; activeButtons</text>
<polyline fill="none" stroke="black" points="832,-190.5 1012,-190.5 "/>
<text text-anchor="start" x="840" y="-178.5" font-family="Helvetica,sans-Serif" font-size="10.00">+ begin()</text>
<text text-anchor="start" x="840" y="-167.5" font-family="Helvetica,sans-Serif" font-size="10.00">+ update()</text>
<text text-anchor="start" x="840" y="-156.5" font-family="Helvetica,sans-Serif" font-size="10.00"># MIDIButtonMatrix()</text>
<text text-anchor="start" x="840" y="-145.5" font-family="Helvetica,sans-Serif" font-size="10.00">&#45; onButtonChanged()</text>
</a>
</g>
</g>
<!-- Node1&#45;&gt;Node10 -->
<g id="edge9" class="edge"><title>Node1&#45;&gt;Node10</title>
<path fill="none" stroke="midnightblue" d="M698.89,-373.143C735.397,-347.021 781.788,-313.759 823,-284 825.929,-281.885 828.906,-279.733 831.911,-277.559"/>
<polygon fill="none" stroke="midnightblue" points="696.405,-370.617 690.308,-379.282 700.478,-376.311 696.405,-370.617"/>
</g>
<!-- Node12 -->
<g id="node12" class="node"><title>Node12</title>
<g id="a_node12"><a xlink:href="../../d3/d65/classBankable_1_1MIDIButtonMatrix.html" target="_top" xlink:title=" ">
<polygon fill="white" stroke="black" points="1030.5,-138.5 1030.5,-283.5 1181.5,-283.5 1181.5,-138.5 1030.5,-138.5"/>
<text text-anchor="start" x="1038.5" y="-271.5" font-family="Helvetica,sans-Serif" font-size="10.00">MIDIButtonMatrix&lt; Matrix</text>
<text text-anchor="start" x="1038.5" y="-260.5" font-family="Helvetica,sans-Serif" font-size="10.00">Address&lt; nb_rows, nb_cols</text>
<text text-anchor="start" x="1038.5" y="-249.5" font-family="Helvetica,sans-Serif" font-size="10.00"> &gt;, DigitalCCSender, nb_rows,</text>
<text text-anchor="middle" x="1106" y="-238.5" font-family="Helvetica,sans-Serif" font-size="10.00"> nb_cols &gt;</text>
<polyline fill="none" stroke="black" points="1030.5,-231.5 1181.5,-231.5 "/>
<text text-anchor="start" x="1038.5" y="-219.5" font-family="Helvetica,sans-Serif" font-size="10.00">+ sender</text>
<text text-anchor="start" x="1038.5" y="-208.5" font-family="Helvetica,sans-Serif" font-size="10.00">&#45; address</text>
<text text-anchor="start" x="1038.5" y="-197.5" font-family="Helvetica,sans-Serif" font-size="10.00">&#45; activeButtons</text>
<polyline fill="none" stroke="black" points="1030.5,-190.5 1181.5,-190.5 "/>
<text text-anchor="start" x="1038.5" y="-178.5" font-family="Helvetica,sans-Serif" font-size="10.00">+ begin()</text>
<text text-anchor="start" x="1038.5" y="-167.5" font-family="Helvetica,sans-Serif" font-size="10.00">+ update()</text>
<text text-anchor="start" x="1038.5" y="-156.5" font-family="Helvetica,sans-Serif" font-size="10.00"># MIDIButtonMatrix()</text>
<text text-anchor="start" x="1038.5" y="-145.5" font-family="Helvetica,sans-Serif" font-size="10.00">&#45; onButtonChanged()</text>
</a>
</g>
</g>
<!-- Node1&#45;&gt;Node12 -->
<g id="edge11" class="edge"><title>Node1&#45;&gt;Node12</title>
<path fill="none" stroke="midnightblue" d="M700.147,-404.242C779.803,-384.129 915.978,-344.102 1021,-284 1024.02,-282.271 1027.04,-280.429 1030.04,-278.499"/>
<polygon fill="none" stroke="midnightblue" points="699.099,-400.897 690.244,-406.714 700.794,-407.688 699.099,-400.897"/>
</g>
<!-- Node14 -->
<g id="node14" class="node"><title>Node14</title>
<g id="a_node14"><a xlink:href="../../d3/d65/classBankable_1_1MIDIButtonMatrix.html" target="_top" xlink:title=" ">
<polygon fill="white" stroke="black" points="1200,-138.5 1200,-283.5 1338,-283.5 1338,-138.5 1200,-138.5"/>
<text text-anchor="start" x="1208" y="-271.5" font-family="Helvetica,sans-Serif" font-size="10.00">MIDIButtonMatrix&lt; Matrix</text>
<text text-anchor="start" x="1208" y="-260.5" font-family="Helvetica,sans-Serif" font-size="10.00">Address&lt; nb_rows, nb_cols</text>
<text text-anchor="start" x="1208" y="-249.5" font-family="Helvetica,sans-Serif" font-size="10.00"> &gt;, DigitalNoteSender, nb</text>
<text text-anchor="middle" x="1269" y="-238.5" font-family="Helvetica,sans-Serif" font-size="10.00">_rows, nb_cols &gt;</text>
<polyline fill="none" stroke="black" points="1200,-231.5 1338,-231.5 "/>
<text text-anchor="start" x="1208" y="-219.5" font-family="Helvetica,sans-Serif" font-size="10.00">+ sender</text>
<text text-anchor="start" x="1208" y="-208.5" font-family="Helvetica,sans-Serif" font-size="10.00">&#45; address</text>
<text text-anchor="start" x="1208" y="-197.5" font-family="Helvetica,sans-Serif" font-size="10.00">&#45; activeButtons</text>
<polyline fill="none" stroke="black" points="1200,-190.5 1338,-190.5 "/>
<text text-anchor="start" x="1208" y="-178.5" font-family="Helvetica,sans-Serif" font-size="10.00">+ begin()</text>
<text text-anchor="start" x="1208" y="-167.5" font-family="Helvetica,sans-Serif" font-size="10.00">+ update()</text>
<text text-anchor="start" x="1208" y="-156.5" font-family="Helvetica,sans-Serif" font-size="10.00"># MIDIButtonMatrix()</text>
<text text-anchor="start" x="1208" y="-145.5" font-family="Helvetica,sans-Serif" font-size="10.00">&#45; onButtonChanged()</text>
</a>
</g>
</g>
<!-- Node1&#45;&gt;Node14 -->
<g id="edge13" class="edge"><title>Node1&#45;&gt;Node14</title>
<path fill="none" stroke="midnightblue" d="M700.414,-414.177C808.886,-403.186 1028.27,-371.221 1191,-284 1193.92,-282.433 1196.82,-280.73 1199.68,-278.919"/>
<polygon fill="none" stroke="midnightblue" points="699.877,-410.712 690.269,-415.176 700.564,-417.679 699.877,-410.712"/>
</g>
<!-- Node5 -->
<g id="node5" class="node"><title>Node5</title>
<g id="a_node5"><a xlink:href="../../d3/d2a/classCCButtonMatrix.html" target="_top" xlink:title="A class of MIDIOutputElements that read the input from a matrix of momentary push buttons or switches...">
<polygon fill="white" stroke="black" points="313.5,-17 313.5,-85 420.5,-85 420.5,-17 313.5,-17"/>
<text text-anchor="start" x="321.5" y="-73" font-family="Helvetica,sans-Serif" font-size="10.00">CCButtonMatrix&lt; nb</text>
<text text-anchor="middle" x="367" y="-62" font-family="Helvetica,sans-Serif" font-size="10.00">_rows, nb_cols &gt;</text>
<polyline fill="none" stroke="black" points="313.5,-55 420.5,-55 "/>
<text text-anchor="middle" x="367" y="-43" font-family="Helvetica,sans-Serif" font-size="10.00"> </text>
<polyline fill="none" stroke="black" points="313.5,-36 420.5,-36 "/>
<text text-anchor="start" x="321.5" y="-24" font-family="Helvetica,sans-Serif" font-size="10.00">+ CCButtonMatrix()</text>
</a>
</g>
</g>
<!-- Node4&#45;&gt;Node5 -->
<g id="edge4" class="edge"><title>Node4&#45;&gt;Node5</title>
<path fill="none" stroke="midnightblue" d="M367,-139.31C367,-120.5 367,-101.054 367,-85.3026"/>
<polygon fill="none" stroke="midnightblue" points="363.5,-139.365 367,-149.365 370.5,-139.365 363.5,-139.365"/>
</g>
<!-- Node7 -->
<g id="node7" class="node"><title>Node7</title>
<g id="a_node7"><a xlink:href="../../d2/daf/classNoteButtonMatrix.html" target="_top" xlink:title="A class of MIDIOutputElements that read the input from a matrix of momentary push buttons or switches...">
<polygon fill="white" stroke="black" points="485.5,-6 485.5,-96 598.5,-96 598.5,-6 485.5,-6"/>
<text text-anchor="start" x="493.5" y="-84" font-family="Helvetica,sans-Serif" font-size="10.00">NoteButtonMatrix&lt; nb</text>
<text text-anchor="middle" x="542" y="-73" font-family="Helvetica,sans-Serif" font-size="10.00">_rows, nb_cols &gt;</text>
<polyline fill="none" stroke="black" points="485.5,-66 598.5,-66 "/>
<text text-anchor="middle" x="542" y="-54" font-family="Helvetica,sans-Serif" font-size="10.00"> </text>
<polyline fill="none" stroke="black" points="485.5,-47 598.5,-47 "/>
<text text-anchor="start" x="493.5" y="-35" font-family="Helvetica,sans-Serif" font-size="10.00">+ NoteButtonMatrix()</text>
<text text-anchor="start" x="493.5" y="-24" font-family="Helvetica,sans-Serif" font-size="10.00">+ setVelocity()</text>
<text text-anchor="start" x="493.5" y="-13" font-family="Helvetica,sans-Serif" font-size="10.00">+ getVelocity()</text>
</a>
</g>
</g>
<!-- Node6&#45;&gt;Node7 -->
<g id="edge6" class="edge"><title>Node6&#45;&gt;Node7</title>
<path fill="none" stroke="midnightblue" d="M542,-139.266C542,-124.553 542,-109.453 542,-96.0381"/>
<polygon fill="none" stroke="midnightblue" points="538.5,-139.365 542,-149.365 545.5,-139.365 538.5,-139.365"/>
</g>
<!-- Node9 -->
<g id="node9" class="node"><title>Node9</title>
<g id="a_node9"><a xlink:href="../../d7/d2b/classBankable_1_1ManyAddresses_1_1CCButtonMatrix.html" target="_top" xlink:title="A class of MIDIOutputElements that read the input from a matrix of momentary push buttons or switches...">
<polygon fill="white" stroke="black" points="650,-11.5 650,-90.5 804,-90.5 804,-11.5 650,-11.5"/>
<text text-anchor="start" x="658" y="-78.5" font-family="Helvetica,sans-Serif" font-size="10.00">Bankable::ManyAddresses</text>
<text text-anchor="start" x="658" y="-67.5" font-family="Helvetica,sans-Serif" font-size="10.00">::CCButtonMatrix&lt; NumBanks,</text>
<text text-anchor="middle" x="727" y="-56.5" font-family="Helvetica,sans-Serif" font-size="10.00"> nb_rows, nb_cols &gt;</text>
<polyline fill="none" stroke="black" points="650,-49.5 804,-49.5 "/>
<text text-anchor="middle" x="727" y="-37.5" font-family="Helvetica,sans-Serif" font-size="10.00"> </text>
<polyline fill="none" stroke="black" points="650,-30.5 804,-30.5 "/>
<text text-anchor="start" x="658" y="-18.5" font-family="Helvetica,sans-Serif" font-size="10.00">+ CCButtonMatrix()</text>
</a>
</g>
</g>
<!-- Node8&#45;&gt;Node9 -->
<g id="edge8" class="edge"><title>Node8&#45;&gt;Node9</title>
<path fill="none" stroke="midnightblue" d="M727,-128.317C727,-115.129 727,-102.041 727,-90.5248"/>
<polygon fill="none" stroke="midnightblue" points="723.5,-128.397 727,-138.397 730.5,-128.397 723.5,-128.397"/>
</g>
<!-- Node11 -->
<g id="node11" class="node"><title>Node11</title>
<g id="a_node11"><a xlink:href="../../d3/d39/classBankable_1_1ManyAddresses_1_1NoteButtonMatrix.html" target="_top" xlink:title="A class of MIDIOutputElements that read the input from a matrix of momentary push buttons or switches...">
<polygon fill="white" stroke="black" points="842,-0.5 842,-101.5 1002,-101.5 1002,-0.5 842,-0.5"/>
<text text-anchor="start" x="850" y="-89.5" font-family="Helvetica,sans-Serif" font-size="10.00">Bankable::ManyAddresses</text>
<text text-anchor="start" x="850" y="-78.5" font-family="Helvetica,sans-Serif" font-size="10.00">::NoteButtonMatrix&lt; NumBanks,</text>
<text text-anchor="middle" x="922" y="-67.5" font-family="Helvetica,sans-Serif" font-size="10.00"> nb_rows, nb_cols &gt;</text>
<polyline fill="none" stroke="black" points="842,-60.5 1002,-60.5 "/>
<text text-anchor="middle" x="922" y="-48.5" font-family="Helvetica,sans-Serif" font-size="10.00"> </text>
<polyline fill="none" stroke="black" points="842,-41.5 1002,-41.5 "/>
<text text-anchor="start" x="850" y="-29.5" font-family="Helvetica,sans-Serif" font-size="10.00">+ NoteButtonMatrix()</text>
<text text-anchor="start" x="850" y="-18.5" font-family="Helvetica,sans-Serif" font-size="10.00">+ setVelocity()</text>
<text text-anchor="start" x="850" y="-7.5" font-family="Helvetica,sans-Serif" font-size="10.00">+ getVelocity()</text>
</a>
</g>
</g>
<!-- Node10&#45;&gt;Node11 -->
<g id="edge10" class="edge"><title>Node10&#45;&gt;Node11</title>
<path fill="none" stroke="midnightblue" d="M922,-128.186C922,-119.139 922,-110.14 922,-101.667"/>
<polygon fill="none" stroke="midnightblue" points="918.5,-128.397 922,-138.397 925.5,-128.397 918.5,-128.397"/>
</g>
<!-- Node13 -->
<g id="node13" class="node"><title>Node13</title>
<g id="a_node13"><a xlink:href="../../db/d2b/classBankable_1_1CCButtonMatrix.html" target="_top" xlink:title="A class of MIDIOutputElements that read the input from a matrix of momentary push buttons or switches...">
<polygon fill="white" stroke="black" points="1039,-17 1039,-85 1173,-85 1173,-17 1039,-17"/>
<text text-anchor="start" x="1047" y="-73" font-family="Helvetica,sans-Serif" font-size="10.00">Bankable::CCButtonMatrix</text>
<text text-anchor="middle" x="1106" y="-62" font-family="Helvetica,sans-Serif" font-size="10.00">&lt; nb_rows, nb_cols &gt;</text>
<polyline fill="none" stroke="black" points="1039,-55 1173,-55 "/>
<text text-anchor="middle" x="1106" y="-43" font-family="Helvetica,sans-Serif" font-size="10.00"> </text>
<polyline fill="none" stroke="black" points="1039,-36 1173,-36 "/>
<text text-anchor="start" x="1047" y="-24" font-family="Helvetica,sans-Serif" font-size="10.00">+ CCButtonMatrix()</text>
</a>
</g>
</g>
<!-- Node12&#45;&gt;Node13 -->
<g id="edge12" class="edge"><title>Node12&#45;&gt;Node13</title>
<path fill="none" stroke="midnightblue" d="M1106,-128.332C1106,-113.009 1106,-97.8196 1106,-85.0739"/>
<polygon fill="none" stroke="midnightblue" points="1102.5,-128.397 1106,-138.397 1109.5,-128.397 1102.5,-128.397"/>
</g>
<!-- Node15 -->
<g id="node15" class="node"><title>Node15</title>
<g id="a_node15"><a xlink:href="../../d2/d2b/classBankable_1_1NoteButtonMatrix.html" target="_top" xlink:title="A class of MIDIOutputElements that read the input from a matrix of momentary push buttons or switches...">
<polygon fill="white" stroke="black" points="1199,-6 1199,-96 1339,-96 1339,-6 1199,-6"/>
<text text-anchor="start" x="1207" y="-84" font-family="Helvetica,sans-Serif" font-size="10.00">Bankable::NoteButtonMatrix</text>
<text text-anchor="middle" x="1269" y="-73" font-family="Helvetica,sans-Serif" font-size="10.00">&lt; nb_rows, nb_cols &gt;</text>
<polyline fill="none" stroke="black" points="1199,-66 1339,-66 "/>
<text text-anchor="middle" x="1269" y="-54" font-family="Helvetica,sans-Serif" font-size="10.00"> </text>
<polyline fill="none" stroke="black" points="1199,-47 1339,-47 "/>
<text text-anchor="start" x="1207" y="-35" font-family="Helvetica,sans-Serif" font-size="10.00">+ NoteButtonMatrix()</text>
<text text-anchor="start" x="1207" y="-24" font-family="Helvetica,sans-Serif" font-size="10.00">+ setVelocity()</text>
<text text-anchor="start" x="1207" y="-13" font-family="Helvetica,sans-Serif" font-size="10.00">+ getVelocity()</text>
</a>
</g>
</g>
<!-- Node14&#45;&gt;Node15 -->
<g id="edge14" class="edge"><title>Node14&#45;&gt;Node15</title>
<path fill="none" stroke="midnightblue" d="M1269,-128.263C1269,-117.223 1269,-106.255 1269,-96.2219"/>
<polygon fill="none" stroke="midnightblue" points="1265.5,-128.397 1269,-138.397 1272.5,-128.397 1265.5,-128.397"/>
</g>
</g>
</svg>
