<?xml version="1.0" encoding="UTF-8" standalone="no"?>
<!DOCTYPE svg PUBLIC "-//W3C//DTD SVG 1.1//EN"
 "http://www.w3.org/Graphics/SVG/1.1/DTD/svg11.dtd">
<!-- Generated by graphviz version 2.38.0 (20140413.2041)
 -->
<!-- Title: LEDs Pages: 1 -->
<svg width="106pt" height="223pt"
 viewBox="0.00 0.00 106.00 223.00" xmlns="http://www.w3.org/2000/svg" xmlns:xlink="http://www.w3.org/1999/xlink">
<g id="graph0" class="graph" transform="scale(1 1) rotate(0) translate(4 219)">
<title>LEDs</title>
<polygon fill="white" stroke="none" points="-4,4 -4,-219 102,-219 102,4 -4,4"/>
<g id="clust1" class="cluster"><title>clusterdir_ab77b90ed5338b1b1a87b678e21cf0af</title>
<g id="a_clust1"><a xlink:href="dir_ab77b90ed5338b1b1a87b678e21cf0af.html" target="_top" xlink:title="Selectors">
<polygon fill="#ddddee" stroke="black" points="8,-136 8,-207 78,-207 78,-136 8,-136"/>
<text text-anchor="middle" x="43" y="-195" font-family="Helvetica,sans-Serif" font-size="10.00">Selectors</text>
</a>
</g>
</g>
<!-- dir_0ea78650b5b26d01d8953c5346ad63ec -->
<g id="node1" class="node"><title>dir_0ea78650b5b26d01d8953c5346ad63ec</title>
<g id="a_node1"><a xlink:href="dir_0ea78650b5b26d01d8953c5346ad63ec.html" target="_top" xlink:title="LEDs">
<polygon fill="#eeeeff" stroke="black" points="70,-180 16,-180 16,-144 70,-144 70,-180"/>
<text text-anchor="middle" x="43" y="-159.5" font-family="Helvetica,sans-Serif" font-size="10.00">LEDs</text>
</a>
</g>
</g>
<!-- dir_15b6432dff6a6d357bf70f8fbf2cdf14 -->
<g id="node2" class="node"><title>dir_15b6432dff6a6d357bf70f8fbf2cdf14</title>
<g id="a_node2"><a xlink:href="dir_15b6432dff6a6d357bf70f8fbf2cdf14.html" target="_top" xlink:title="AH">
<polygon fill="white" stroke="red" points="70,-36 16,-36 16,-0 70,-0 70,-36"/>
<text text-anchor="middle" x="43" y="-15.5" font-family="Helvetica,sans-Serif" font-size="10.00">AH</text>
</a>
</g>
</g>
<!-- dir_0ea78650b5b26d01d8953c5346ad63ec&#45;&gt;dir_15b6432dff6a6d357bf70f8fbf2cdf14 -->
<g id="edge2" class="edge"><title>dir_0ea78650b5b26d01d8953c5346ad63ec&#45;&gt;dir_15b6432dff6a6d357bf70f8fbf2cdf14</title>
<path fill="none" stroke="black" d="M39.7517,-143.888C37.9542,-133.542 35.9053,-120.063 35,-108 33.8026,-92.0449 33.8026,-87.9551 35,-72 35.6366,-63.5179 36.8384,-54.3361 38.1208,-46.0356"/>
<polygon fill="black" stroke="black" points="41.5836,-46.5472 39.7517,-36.1119 34.6763,-45.412 41.5836,-46.5472"/>
<g id="a_edge2&#45;headlabel"><a xlink:href="dir_000041_000001.html" target="_top" xlink:title="1">
<text text-anchor="middle" x="43.8024" y="-48.0546" font-family="Helvetica,sans-Serif" font-size="10.00">1</text>
</a>
</g>
</g>
<!-- dir_c90f87021e89d05236fc514cb49c4dcf -->
<g id="node3" class="node"><title>dir_c90f87021e89d05236fc514cb49c4dcf</title>
<g id="a_node3"><a xlink:href="dir_c90f87021e89d05236fc514cb49c4dcf.html" target="_top" xlink:title="Def">
<polygon fill="none" stroke="black" points="98,-108 44,-108 44,-72 98,-72 98,-108"/>
<text text-anchor="middle" x="71" y="-87.5" font-family="Helvetica,sans-Serif" font-size="10.00">Def</text>
</a>
</g>
</g>
<!-- dir_0ea78650b5b26d01d8953c5346ad63ec&#45;&gt;dir_c90f87021e89d05236fc514cb49c4dcf -->
<g id="edge3" class="edge"><title>dir_0ea78650b5b26d01d8953c5346ad63ec&#45;&gt;dir_c90f87021e89d05236fc514cb49c4dcf</title>
<path fill="none" stroke="black" d="M49.9214,-143.697C53.0747,-135.813 56.8783,-126.304 60.3814,-117.546"/>
<polygon fill="black" stroke="black" points="63.694,-118.689 64.1583,-108.104 57.1946,-116.089 63.694,-118.689"/>
<g id="a_edge3&#45;headlabel"><a xlink:href="dir_000041_000015.html" target="_top" xlink:title="1">
<text text-anchor="middle" x="64.9952" y="-120.581" font-family="Helvetica,sans-Serif" font-size="10.00">1</text>
</a>
</g>
</g>
<!-- dir_c90f87021e89d05236fc514cb49c4dcf&#45;&gt;dir_15b6432dff6a6d357bf70f8fbf2cdf14 -->
<g id="edge1" class="edge"><title>dir_c90f87021e89d05236fc514cb49c4dcf&#45;&gt;dir_15b6432dff6a6d357bf70f8fbf2cdf14</title>
<path fill="none" stroke="black" d="M64.0786,-71.6966C60.9253,-63.8132 57.1217,-54.3042 53.6186,-45.5464"/>
<polygon fill="black" stroke="black" points="56.8054,-44.0892 49.8417,-36.1043 50.306,-46.689 56.8054,-44.0892"/>
<g id="a_edge1&#45;headlabel"><a xlink:href="dir_000015_000001.html" target="_top" xlink:title="2">
<text text-anchor="middle" x="60.7765" y="-43.8723" font-family="Helvetica,sans-Serif" font-size="10.00">2</text>
</a>
</g>
</g>
</g>
</svg>
