<?xml version="1.0" encoding="UTF-8" standalone="no"?>
<!DOCTYPE svg PUBLIC "-//W3C//DTD SVG 1.1//EN"
 "http://www.w3.org/Graphics/SVG/1.1/DTD/svg11.dtd">
<!-- Generated by graphviz version 2.43.0 (0)
 -->
<!-- Title: USBMIDI.hpp Pages: 1 -->
<svg width="975pt" height="588pt"
 viewBox="0.00 0.00 974.50 588.00" xmlns="http://www.w3.org/2000/svg" xmlns:xlink="http://www.w3.org/1999/xlink">
<g id="graph0" class="graph" transform="scale(1 1) rotate(0) translate(4 584)">
<title>USBMIDI.hpp</title>
<polygon fill="white" stroke="transparent" points="-4,4 -4,-584 970.5,-584 970.5,4 -4,4"/>
<!-- Node1 -->
<g id="node1" class="node">
<title>Node1</title>
<g id="a_node1"><a xlink:title=" ">
<polygon fill="#bfbfbf" stroke="black" points="39.5,-560.5 39.5,-579.5 119.5,-579.5 119.5,-560.5 39.5,-560.5"/>
<text text-anchor="middle" x="79.5" y="-567.5" font-family="Helvetica,sans-Serif" font-size="10.00">USBMIDI.hpp</text>
</a>
</g>
</g>
<!-- Node2 -->
<g id="node2" class="node">
<title>Node2</title>
<g id="a_node2"><a xlink:href="../../de/d76/Array_8hpp.html" target="_top" xlink:title=" ">
<polygon fill="white" stroke="black" points="106,-504.5 106,-523.5 241,-523.5 241,-504.5 106,-504.5"/>
<text text-anchor="middle" x="173.5" y="-511.5" font-family="Helvetica,sans-Serif" font-size="10.00">AH/Containers/Array.hpp</text>
</a>
</g>
</g>
<!-- Node1&#45;&gt;Node2 -->
<g id="edge1" class="edge">
<title>Node1&#45;&gt;Node2</title>
<path fill="none" stroke="midnightblue" d="M94.6,-560.32C109.4,-551.82 132.19,-538.73 149.48,-528.8"/>
<polygon fill="midnightblue" stroke="midnightblue" points="151.51,-531.67 158.43,-523.65 148.02,-525.6 151.51,-531.67"/>
</g>
<!-- Node13 -->
<g id="node13" class="node">
<title>Node13</title>
<g id="a_node13"><a xlink:title=" ">
<polygon fill="white" stroke="#bfbfbf" points="14.5,-168.5 14.5,-187.5 192.5,-187.5 192.5,-168.5 14.5,-168.5"/>
<text text-anchor="middle" x="103.5" y="-175.5" font-family="Helvetica,sans-Serif" font-size="10.00">Settings/NamespaceSettings.hpp</text>
</a>
</g>
</g>
<!-- Node1&#45;&gt;Node13 -->
<g id="edge39" class="edge">
<title>Node1&#45;&gt;Node13</title>
<path fill="none" stroke="midnightblue" d="M71.62,-560.33C56.41,-542.67 24.5,-500.64 24.5,-459 24.5,-459 24.5,-459 24.5,-289 24.5,-248.79 59.75,-213.22 83.16,-194.03"/>
<polygon fill="midnightblue" stroke="midnightblue" points="85.47,-196.66 91.16,-187.72 81.14,-191.17 85.47,-196.66"/>
</g>
<!-- Node3 -->
<g id="node3" class="node">
<title>Node3</title>
<g id="a_node3"><a xlink:href="../../d1/d65/Warnings_8hpp.html" target="_top" xlink:title=" ">
<polygon fill="white" stroke="black" points="709,-0.5 709,-19.5 852,-19.5 852,-0.5 709,-0.5"/>
<text text-anchor="middle" x="780.5" y="-7.5" font-family="Helvetica,sans-Serif" font-size="10.00">AH/Settings/Warnings.hpp</text>
</a>
</g>
</g>
<!-- Node2&#45;&gt;Node3 -->
<g id="edge2" class="edge">
<title>Node2&#45;&gt;Node3</title>
<path fill="none" stroke="midnightblue" d="M241.11,-510.69C432.88,-503.24 966.5,-475.97 966.5,-403 966.5,-403 966.5,-403 966.5,-121 966.5,-62.99 898.64,-34.93 844.9,-21.8"/>
<polygon fill="midnightblue" stroke="midnightblue" points="845.58,-18.36 835.05,-19.52 844,-25.18 845.58,-18.36"/>
</g>
<!-- Node4 -->
<g id="node4" class="node">
<title>Node4</title>
<g id="a_node4"><a xlink:href="../../d1/d93/Error_8hpp.html" target="_top" xlink:title=" ">
<polygon fill="white" stroke="black" points="608.5,-448.5 608.5,-467.5 712.5,-467.5 712.5,-448.5 608.5,-448.5"/>
<text text-anchor="middle" x="660.5" y="-455.5" font-family="Helvetica,sans-Serif" font-size="10.00">AH/Error/Error.hpp</text>
</a>
</g>
</g>
<!-- Node2&#45;&gt;Node4 -->
<g id="edge3" class="edge">
<title>Node2&#45;&gt;Node4</title>
<path fill="none" stroke="midnightblue" d="M241.22,-505.49C335.93,-494.99 506.64,-476.06 598.3,-465.9"/>
<polygon fill="midnightblue" stroke="midnightblue" points="598.71,-469.37 608.27,-464.79 597.94,-462.42 598.71,-469.37"/>
</g>
<!-- Node12 -->
<g id="node12" class="node">
<title>Node12</title>
<g id="a_node12"><a xlink:title=" ">
<polygon fill="white" stroke="#bfbfbf" points="0,-112.5 0,-131.5 107,-131.5 107,-112.5 0,-112.5"/>
<text text-anchor="middle" x="53.5" y="-119.5" font-family="Helvetica,sans-Serif" font-size="10.00">AH/STL/type_traits</text>
</a>
</g>
</g>
<!-- Node2&#45;&gt;Node12 -->
<g id="edge37" class="edge">
<title>Node2&#45;&gt;Node12</title>
<path fill="none" stroke="midnightblue" d="M141.81,-504.39C122.35,-497.55 98.39,-486.06 83.5,-468 1.33,-368.32 22.99,-315.99 5.5,-188 4.3,-179.19 1.97,-176.16 5.5,-168 10.77,-155.84 21.12,-145.46 30.86,-137.74"/>
<polygon fill="midnightblue" stroke="midnightblue" points="33.14,-140.41 39.13,-131.67 29,-134.77 33.14,-140.41"/>
</g>
<!-- Node19 -->
<g id="node19" class="node">
<title>Node19</title>
<g id="a_node19"><a xlink:title=" ">
<polygon fill="white" stroke="#bfbfbf" points="182.5,-224.5 182.5,-243.5 238.5,-243.5 238.5,-224.5 182.5,-224.5"/>
<text text-anchor="middle" x="210.5" y="-231.5" font-family="Helvetica,sans-Serif" font-size="10.00">stddef.h</text>
</a>
</g>
</g>
<!-- Node2&#45;&gt;Node19 -->
<g id="edge38" class="edge">
<title>Node2&#45;&gt;Node19</title>
<path fill="none" stroke="midnightblue" d="M178.49,-504.49C188.59,-486.44 210.5,-442.69 210.5,-403 210.5,-403 210.5,-403 210.5,-345 210.5,-312.95 210.5,-275.64 210.5,-253.75"/>
<polygon fill="midnightblue" stroke="midnightblue" points="214,-253.56 210.5,-243.56 207,-253.56 214,-253.56"/>
</g>
<!-- Node23 -->
<g id="node23" class="node">
<title>Node23</title>
<g id="a_node23"><a xlink:title=" ">
<polygon fill="white" stroke="#bfbfbf" points="92.5,-448.5 92.5,-467.5 182.5,-467.5 182.5,-448.5 92.5,-448.5"/>
<text text-anchor="middle" x="137.5" y="-455.5" font-family="Helvetica,sans-Serif" font-size="10.00">AH/STL/iterator</text>
</a>
</g>
</g>
<!-- Node2&#45;&gt;Node23 -->
<g id="edge36" class="edge">
<title>Node2&#45;&gt;Node23</title>
<path fill="none" stroke="midnightblue" d="M167.56,-504.08C162.52,-496.53 155.16,-485.49 148.99,-476.23"/>
<polygon fill="midnightblue" stroke="midnightblue" points="151.79,-474.13 143.33,-467.75 145.97,-478.01 151.79,-474.13"/>
</g>
<!-- Node4&#45;&gt;Node3 -->
<g id="edge4" class="edge">
<title>Node4&#45;&gt;Node3</title>
<path fill="none" stroke="midnightblue" d="M712.81,-457.74C790.8,-455.79 928.5,-439.29 928.5,-347 928.5,-347 928.5,-347 928.5,-121 928.5,-68.02 866.66,-37.57 822.92,-22.66"/>
<polygon fill="midnightblue" stroke="midnightblue" points="823.94,-19.31 813.35,-19.54 821.77,-25.97 823.94,-19.31"/>
</g>
<!-- Node5 -->
<g id="node5" class="node">
<title>Node5</title>
<g id="a_node5"><a xlink:href="../../df/dee/Debug_8hpp.html" target="_top" xlink:title=" ">
<polygon fill="white" stroke="black" points="600,-392.5 600,-411.5 721,-411.5 721,-392.5 600,-392.5"/>
<text text-anchor="middle" x="660.5" y="-399.5" font-family="Helvetica,sans-Serif" font-size="10.00">AH/Debug/Debug.hpp</text>
</a>
</g>
</g>
<!-- Node4&#45;&gt;Node5 -->
<g id="edge5" class="edge">
<title>Node4&#45;&gt;Node5</title>
<path fill="none" stroke="midnightblue" d="M660.5,-448.08C660.5,-441.01 660.5,-430.86 660.5,-421.99"/>
<polygon fill="midnightblue" stroke="midnightblue" points="664,-421.75 660.5,-411.75 657,-421.75 664,-421.75"/>
</g>
<!-- Node5&#45;&gt;Node3 -->
<g id="edge6" class="edge">
<title>Node5&#45;&gt;Node3</title>
<path fill="none" stroke="midnightblue" d="M680.69,-392.47C730.87,-371.12 858.13,-315.95 871.5,-300 890.83,-276.93 890.5,-265.1 890.5,-235 890.5,-235 890.5,-235 890.5,-121 890.5,-74.91 841.62,-41.39 809.03,-24.16"/>
<polygon fill="midnightblue" stroke="midnightblue" points="810.41,-20.94 799.91,-19.54 807.25,-27.18 810.41,-20.94"/>
</g>
<!-- Node6 -->
<g id="node6" class="node">
<title>Node6</title>
<g id="a_node6"><a xlink:href="../../dd/d80/PrintStream_8hpp.html" target="_top" xlink:title=" ">
<polygon fill="white" stroke="black" points="257,-224.5 257,-243.5 430,-243.5 430,-224.5 257,-224.5"/>
<text text-anchor="middle" x="343.5" y="-231.5" font-family="Helvetica,sans-Serif" font-size="10.00">AH/PrintStream/PrintStream.hpp</text>
</a>
</g>
</g>
<!-- Node5&#45;&gt;Node6 -->
<g id="edge7" class="edge">
<title>Node5&#45;&gt;Node6</title>
<path fill="none" stroke="midnightblue" d="M641.68,-392.44C621.93,-383.44 589.98,-368.83 562.5,-356 509.9,-331.44 495.23,-328.21 444.5,-300 415.74,-284.01 384.05,-263.03 363.98,-249.29"/>
<polygon fill="midnightblue" stroke="midnightblue" points="365.84,-246.33 355.62,-243.53 361.87,-252.09 365.84,-246.33"/>
</g>
<!-- Node14 -->
<g id="node14" class="node">
<title>Node14</title>
<g id="a_node14"><a xlink:href="../../de/dd1/AH_2Settings_2SettingsWrapper_8hpp.html" target="_top" xlink:title=" ">
<polygon fill="white" stroke="black" points="571.5,-336.5 571.5,-355.5 749.5,-355.5 749.5,-336.5 571.5,-336.5"/>
<text text-anchor="middle" x="660.5" y="-343.5" font-family="Helvetica,sans-Serif" font-size="10.00">AH/Settings/SettingsWrapper.hpp</text>
</a>
</g>
</g>
<!-- Node5&#45;&gt;Node14 -->
<g id="edge20" class="edge">
<title>Node5&#45;&gt;Node14</title>
<path fill="none" stroke="midnightblue" d="M655.33,-392.08C653.82,-384.93 653.39,-374.64 654.04,-365.69"/>
<polygon fill="midnightblue" stroke="midnightblue" points="657.52,-366.13 655.37,-355.75 650.58,-365.2 657.52,-366.13"/>
</g>
<!-- Node22 -->
<g id="node22" class="node">
<title>Node22</title>
<g id="a_node22"><a xlink:href="../../d7/d52/DebugVal_8hpp.html" target="_top" xlink:title=" ">
<polygon fill="white" stroke="black" points="816.5,-336.5 816.5,-355.5 900.5,-355.5 900.5,-336.5 816.5,-336.5"/>
<text text-anchor="middle" x="858.5" y="-343.5" font-family="Helvetica,sans-Serif" font-size="10.00">DebugVal.hpp</text>
</a>
</g>
</g>
<!-- Node5&#45;&gt;Node22 -->
<g id="edge35" class="edge">
<title>Node5&#45;&gt;Node22</title>
<path fill="none" stroke="midnightblue" d="M691.87,-392.44C725.76,-383.2 779.9,-368.44 817.22,-358.26"/>
<polygon fill="midnightblue" stroke="midnightblue" points="818.55,-361.52 827.27,-355.52 816.7,-354.77 818.55,-361.52"/>
</g>
<!-- Node6&#45;&gt;Node3 -->
<g id="edge9" class="edge">
<title>Node6&#45;&gt;Node3</title>
<path fill="none" stroke="midnightblue" d="M344.09,-224.19C345.92,-202.91 353.07,-147.79 379.5,-112 406.15,-75.9 421.58,-72 463.5,-56 539.91,-26.84 633.2,-16.34 698.73,-12.67"/>
<polygon fill="midnightblue" stroke="midnightblue" points="699.19,-16.16 709,-12.14 698.83,-9.16 699.19,-16.16"/>
</g>
<!-- Node7 -->
<g id="node7" class="node">
<title>Node7</title>
<g id="a_node7"><a xlink:href="../../d6/db0/AH_2Settings_2NamespaceSettings_8hpp.html" target="_top" xlink:title=" ">
<polygon fill="white" stroke="black" points="491,-56.5 491,-75.5 686,-75.5 686,-56.5 491,-56.5"/>
<text text-anchor="middle" x="588.5" y="-63.5" font-family="Helvetica,sans-Serif" font-size="10.00">AH/Settings/NamespaceSettings.hpp</text>
</a>
</g>
</g>
<!-- Node6&#45;&gt;Node7 -->
<g id="edge8" class="edge">
<title>Node6&#45;&gt;Node7</title>
<path fill="none" stroke="midnightblue" d="M365.62,-224.5C402.8,-209.53 479.12,-175.85 533.5,-132 550.68,-118.15 566.53,-98.34 576.75,-84.24"/>
<polygon fill="midnightblue" stroke="midnightblue" points="579.72,-86.11 582.62,-75.92 574,-82.08 579.72,-86.11"/>
</g>
<!-- Node8 -->
<g id="node8" class="node">
<title>Node8</title>
<g id="a_node8"><a xlink:href="../../d6/ddf/Arduino-Wrapper_8h.html" target="_top" xlink:title=" ">
<polygon fill="white" stroke="black" points="210.5,-168.5 210.5,-187.5 334.5,-187.5 334.5,-168.5 210.5,-168.5"/>
<text text-anchor="middle" x="272.5" y="-175.5" font-family="Helvetica,sans-Serif" font-size="10.00">AH/Arduino&#45;Wrapper.h</text>
</a>
</g>
</g>
<!-- Node6&#45;&gt;Node8 -->
<g id="edge10" class="edge">
<title>Node6&#45;&gt;Node8</title>
<path fill="none" stroke="midnightblue" d="M332.09,-224.32C321.39,-216.18 305.16,-203.84 292.34,-194.09"/>
<polygon fill="midnightblue" stroke="midnightblue" points="294.19,-191.1 284.11,-187.83 289.96,-196.67 294.19,-191.1"/>
</g>
<!-- Node6&#45;&gt;Node13 -->
<g id="edge19" class="edge">
<title>Node6&#45;&gt;Node13</title>
<path fill="none" stroke="midnightblue" d="M305.47,-224.44C263.69,-215.04 196.52,-199.93 151.23,-189.74"/>
<polygon fill="midnightblue" stroke="midnightblue" points="151.88,-186.3 141.35,-187.52 150.34,-193.13 151.88,-186.3"/>
</g>
<!-- Node9 -->
<g id="node9" class="node">
<title>Node9</title>
<g id="a_node9"><a xlink:href="../../d7/d79/MinMaxFix_8hpp.html" target="_top" xlink:title=" ">
<polygon fill="white" stroke="black" points="388.5,-112.5 388.5,-131.5 524.5,-131.5 524.5,-112.5 388.5,-112.5"/>
<text text-anchor="middle" x="456.5" y="-119.5" font-family="Helvetica,sans-Serif" font-size="10.00">AH/Math/MinMaxFix.hpp</text>
</a>
</g>
</g>
<!-- Node8&#45;&gt;Node9 -->
<g id="edge11" class="edge">
<title>Node8&#45;&gt;Node9</title>
<path fill="none" stroke="midnightblue" d="M301.66,-168.44C333.01,-159.24 383.03,-144.56 417.7,-134.39"/>
<polygon fill="midnightblue" stroke="midnightblue" points="418.87,-137.69 427.48,-131.52 416.9,-130.97 418.87,-137.69"/>
</g>
<!-- Node11 -->
<g id="node11" class="node">
<title>Node11</title>
<g id="a_node11"><a xlink:title=" ">
<polygon fill="white" stroke="#bfbfbf" points="191,-0.5 191,-19.5 254,-19.5 254,-0.5 191,-0.5"/>
<text text-anchor="middle" x="222.5" y="-7.5" font-family="Helvetica,sans-Serif" font-size="10.00">Arduino.h</text>
</a>
</g>
</g>
<!-- Node8&#45;&gt;Node11 -->
<g id="edge18" class="edge">
<title>Node8&#45;&gt;Node11</title>
<path fill="none" stroke="midnightblue" d="M260.74,-168.33C240.53,-152.6 199.92,-117.16 184.5,-76 177.82,-58.16 191.06,-39.56 203.71,-26.86"/>
<polygon fill="midnightblue" stroke="midnightblue" points="206.39,-29.14 211.32,-19.76 201.62,-24.02 206.39,-29.14"/>
</g>
<!-- Node8&#45;&gt;Node12 -->
<g id="edge17" class="edge">
<title>Node8&#45;&gt;Node12</title>
<path fill="none" stroke="midnightblue" d="M237.8,-168.44C199.92,-159.1 139.15,-144.12 97.84,-133.93"/>
<polygon fill="midnightblue" stroke="midnightblue" points="98.59,-130.51 88.04,-131.52 96.91,-137.31 98.59,-130.51"/>
</g>
<!-- Node9&#45;&gt;Node3 -->
<g id="edge12" class="edge">
<title>Node9&#45;&gt;Node3</title>
<path fill="none" stroke="midnightblue" d="M457.29,-112.23C459.09,-97.99 464.78,-70.04 482.5,-56 515.12,-30.15 622.31,-19.05 698.77,-14.35"/>
<polygon fill="midnightblue" stroke="midnightblue" points="699.09,-17.84 708.87,-13.75 698.68,-10.85 699.09,-17.84"/>
</g>
<!-- Node9&#45;&gt;Node7 -->
<g id="edge16" class="edge">
<title>Node9&#45;&gt;Node7</title>
<path fill="none" stroke="midnightblue" d="M477.42,-112.44C499.24,-103.52 533.65,-89.44 558.39,-79.32"/>
<polygon fill="midnightblue" stroke="midnightblue" points="559.75,-82.54 567.68,-75.52 557.1,-76.06 559.75,-82.54"/>
</g>
<!-- Node10 -->
<g id="node10" class="node">
<title>Node10</title>
<g id="a_node10"><a xlink:href="../../d6/d3b/FixArduinoMacros_8hpp.html" target="_top" xlink:title=" ">
<polygon fill="white" stroke="black" points="193.5,-56.5 193.5,-75.5 363.5,-75.5 363.5,-56.5 193.5,-56.5"/>
<text text-anchor="middle" x="278.5" y="-63.5" font-family="Helvetica,sans-Serif" font-size="10.00">AH/Math/FixArduinoMacros.hpp</text>
</a>
</g>
</g>
<!-- Node9&#45;&gt;Node10 -->
<g id="edge13" class="edge">
<title>Node9&#45;&gt;Node10</title>
<path fill="none" stroke="midnightblue" d="M428.3,-112.44C398.09,-103.28 349.99,-88.69 316.47,-78.52"/>
<polygon fill="midnightblue" stroke="midnightblue" points="317.16,-75.07 306.57,-75.52 315.13,-81.77 317.16,-75.07"/>
</g>
<!-- Node10&#45;&gt;Node3 -->
<g id="edge14" class="edge">
<title>Node10&#45;&gt;Node3</title>
<path fill="none" stroke="midnightblue" d="M357.77,-56.47C450.93,-46.45 604.75,-29.91 698.91,-19.78"/>
<polygon fill="midnightblue" stroke="midnightblue" points="699.39,-23.24 708.96,-18.7 698.65,-16.28 699.39,-23.24"/>
</g>
<!-- Node10&#45;&gt;Node11 -->
<g id="edge15" class="edge">
<title>Node10&#45;&gt;Node11</title>
<path fill="none" stroke="midnightblue" d="M269.5,-56.32C261.31,-48.42 248.99,-36.55 239.03,-26.94"/>
<polygon fill="midnightblue" stroke="midnightblue" points="241.29,-24.26 231.66,-19.83 236.43,-29.29 241.29,-24.26"/>
</g>
<!-- Node14&#45;&gt;Node3 -->
<g id="edge21" class="edge">
<title>Node14&#45;&gt;Node3</title>
<path fill="none" stroke="midnightblue" d="M660.65,-336.05C661.38,-322.07 664.88,-295.1 680.5,-280 724.54,-237.44 764.65,-280.93 813.5,-244 840.37,-223.68 852.5,-212.69 852.5,-179 852.5,-179 852.5,-179 852.5,-121 852.5,-81.94 820.32,-45.94 798.99,-26.37"/>
<polygon fill="midnightblue" stroke="midnightblue" points="801.25,-23.7 791.44,-19.7 796.62,-28.94 801.25,-23.7"/>
</g>
<!-- Node14&#45;&gt;Node5 -->
<g id="edge34" class="edge">
<title>Node14&#45;&gt;Node5</title>
<path fill="none" stroke="midnightblue" d="M665.63,-355.75C667.16,-362.86 667.6,-373.14 666.97,-382.1"/>
<polygon fill="midnightblue" stroke="midnightblue" points="663.49,-381.71 665.67,-392.08 670.43,-382.62 663.49,-381.71"/>
</g>
<!-- Node14&#45;&gt;Node7 -->
<g id="edge22" class="edge">
<title>Node14&#45;&gt;Node7</title>
<path fill="none" stroke="midnightblue" d="M618.33,-336.44C573.03,-324.61 504.1,-298.25 478.5,-244 454.59,-193.35 523.68,-183.92 557.5,-132 567.19,-117.12 575.67,-98.74 581.3,-85.33"/>
<polygon fill="midnightblue" stroke="midnightblue" points="584.65,-86.38 585.17,-75.8 578.17,-83.75 584.65,-86.38"/>
</g>
<!-- Node15 -->
<g id="node15" class="node">
<title>Node15</title>
<g id="a_node15"><a xlink:href="../../d5/d4f/AH_2Settings_2Settings_8hpp.html" target="_top" xlink:title="All user settings and debugging options can be changed here.">
<polygon fill="white" stroke="black" points="555,-280.5 555,-299.5 632,-299.5 632,-280.5 555,-280.5"/>
<text text-anchor="middle" x="593.5" y="-287.5" font-family="Helvetica,sans-Serif" font-size="10.00">Settings.hpp</text>
</a>
</g>
</g>
<!-- Node14&#45;&gt;Node15 -->
<g id="edge23" class="edge">
<title>Node14&#45;&gt;Node15</title>
<path fill="none" stroke="midnightblue" d="M649.74,-336.32C639.73,-328.26 624.61,-316.08 612.57,-306.37"/>
<polygon fill="midnightblue" stroke="midnightblue" points="614.44,-303.38 604.46,-299.83 610.05,-308.83 614.44,-303.38"/>
</g>
<!-- Node21 -->
<g id="node21" class="node">
<title>Node21</title>
<g id="a_node21"><a xlink:href="../../d9/d98/TeensyUSBTypes_8hpp.html" target="_top" xlink:title=" ">
<polygon fill="white" stroke="black" points="689,-280.5 689,-299.5 862,-299.5 862,-280.5 689,-280.5"/>
<text text-anchor="middle" x="775.5" y="-287.5" font-family="Helvetica,sans-Serif" font-size="10.00">AH/Teensy/TeensyUSBTypes.hpp</text>
</a>
</g>
</g>
<!-- Node14&#45;&gt;Node21 -->
<g id="edge33" class="edge">
<title>Node14&#45;&gt;Node21</title>
<path fill="none" stroke="midnightblue" d="M678.72,-336.44C697.4,-327.68 726.66,-313.94 748.12,-303.86"/>
<polygon fill="midnightblue" stroke="midnightblue" points="749.8,-306.93 757.36,-299.52 746.82,-300.6 749.8,-306.93"/>
</g>
<!-- Node16 -->
<g id="node16" class="node">
<title>Node16</title>
<g id="a_node16"><a xlink:href="../../dc/d50/Frequency_8hpp.html" target="_top" xlink:title=" ">
<polygon fill="white" stroke="black" points="618.5,-112.5 618.5,-131.5 752.5,-131.5 752.5,-112.5 618.5,-112.5"/>
<text text-anchor="middle" x="685.5" y="-119.5" font-family="Helvetica,sans-Serif" font-size="10.00">AH/Types/Frequency.hpp</text>
</a>
</g>
</g>
<!-- Node15&#45;&gt;Node16 -->
<g id="edge24" class="edge">
<title>Node15&#45;&gt;Node16</title>
<path fill="none" stroke="midnightblue" d="M632.15,-281.67C689.35,-270.65 790.36,-250.41 795.5,-244 828.44,-202.92 755.91,-157.85 713.45,-136.14"/>
<polygon fill="midnightblue" stroke="midnightblue" points="714.9,-132.95 704.39,-131.62 711.78,-139.22 714.9,-132.95"/>
</g>
<!-- Node17 -->
<g id="node17" class="node">
<title>Node17</title>
<g id="a_node17"><a xlink:href="../../d7/d7c/ADCConfig_8hpp.html" target="_top" xlink:title="This file contains the platform&#45;specific ADC resolutions.">
<polygon fill="white" stroke="black" points="487,-224.5 487,-243.5 644,-243.5 644,-224.5 487,-224.5"/>
<text text-anchor="middle" x="565.5" y="-231.5" font-family="Helvetica,sans-Serif" font-size="10.00">AH/Hardware/ADCConfig.hpp</text>
</a>
</g>
</g>
<!-- Node15&#45;&gt;Node17 -->
<g id="edge27" class="edge">
<title>Node15&#45;&gt;Node17</title>
<path fill="none" stroke="midnightblue" d="M588.88,-280.08C585.04,-272.69 579.48,-261.95 574.74,-252.81"/>
<polygon fill="midnightblue" stroke="midnightblue" points="577.75,-251.02 570.04,-243.75 571.53,-254.24 577.75,-251.02"/>
</g>
<!-- Node18 -->
<g id="node18" class="node">
<title>Node18</title>
<g id="a_node18"><a xlink:title=" ">
<polygon fill="white" stroke="#bfbfbf" points="733,-224.5 733,-243.5 786,-243.5 786,-224.5 733,-224.5"/>
<text text-anchor="middle" x="759.5" y="-231.5" font-family="Helvetica,sans-Serif" font-size="10.00">limits.h</text>
</a>
</g>
</g>
<!-- Node15&#45;&gt;Node18 -->
<g id="edge30" class="edge">
<title>Node15&#45;&gt;Node18</title>
<path fill="none" stroke="midnightblue" d="M619.8,-280.44C647.85,-271.32 692.44,-256.81 723.68,-246.65"/>
<polygon fill="midnightblue" stroke="midnightblue" points="724.89,-249.94 733.32,-243.52 722.73,-243.28 724.89,-249.94"/>
</g>
<!-- Node15&#45;&gt;Node19 -->
<g id="edge31" class="edge">
<title>Node15&#45;&gt;Node19</title>
<path fill="none" stroke="midnightblue" d="M554.75,-285.26C490.7,-278.78 358.86,-264.21 248.5,-244 248.4,-243.98 248.3,-243.96 248.2,-243.94"/>
<polygon fill="midnightblue" stroke="midnightblue" points="249.15,-240.57 238.65,-242.01 247.76,-247.43 249.15,-240.57"/>
</g>
<!-- Node20 -->
<g id="node20" class="node">
<title>Node20</title>
<g id="a_node20"><a xlink:title=" ">
<polygon fill="white" stroke="#bfbfbf" points="662,-224.5 662,-243.5 715,-243.5 715,-224.5 662,-224.5"/>
<text text-anchor="middle" x="688.5" y="-231.5" font-family="Helvetica,sans-Serif" font-size="10.00">stdint.h</text>
</a>
</g>
</g>
<!-- Node15&#45;&gt;Node20 -->
<g id="edge32" class="edge">
<title>Node15&#45;&gt;Node20</title>
<path fill="none" stroke="midnightblue" d="M608.76,-280.32C623.72,-271.82 646.75,-258.73 664.23,-248.8"/>
<polygon fill="midnightblue" stroke="midnightblue" points="666.31,-251.64 673.27,-243.65 662.85,-245.55 666.31,-251.64"/>
</g>
<!-- Node16&#45;&gt;Node3 -->
<g id="edge25" class="edge">
<title>Node16&#45;&gt;Node3</title>
<path fill="none" stroke="midnightblue" d="M692.95,-112.37C708.77,-94.05 745.91,-51.05 766.37,-27.36"/>
<polygon fill="midnightblue" stroke="midnightblue" points="769.19,-29.45 773.08,-19.59 763.9,-24.87 769.19,-29.45"/>
</g>
<!-- Node16&#45;&gt;Node7 -->
<g id="edge26" class="edge">
<title>Node16&#45;&gt;Node7</title>
<path fill="none" stroke="midnightblue" d="M669.92,-112.32C654.5,-103.74 630.69,-90.49 612.79,-80.52"/>
<polygon fill="midnightblue" stroke="midnightblue" points="614.49,-77.46 604.05,-75.65 611.08,-83.58 614.49,-77.46"/>
</g>
<!-- Node17&#45;&gt;Node3 -->
<g id="edge28" class="edge">
<title>Node17&#45;&gt;Node3</title>
<path fill="none" stroke="midnightblue" d="M603.7,-224.43C649.04,-212.15 723.29,-184.92 761.5,-132 783.52,-101.5 784.18,-55.37 782.49,-29.78"/>
<polygon fill="midnightblue" stroke="midnightblue" points="785.95,-29.26 781.61,-19.6 778.98,-29.86 785.95,-29.26"/>
</g>
<!-- Node17&#45;&gt;Node8 -->
<g id="edge29" class="edge">
<title>Node17&#45;&gt;Node8</title>
<path fill="none" stroke="midnightblue" d="M519.07,-224.44C467.42,-214.92 383.99,-199.55 328.69,-189.36"/>
<polygon fill="midnightblue" stroke="midnightblue" points="329.18,-185.89 318.71,-187.52 327.91,-192.77 329.18,-185.89"/>
</g>
</g>
</svg>
