<?xml version="1.0" encoding="UTF-8" standalone="no"?>
<!DOCTYPE svg PUBLIC "-//W3C//DTD SVG 1.1//EN"
 "http://www.w3.org/Graphics/SVG/1.1/DTD/svg11.dtd">
<!-- Generated by graphviz version 2.43.0 (0)
 -->
<!-- Title: NoteCCKPRangeFastLED&lt; Type, BankSize, RangeLen, ColorMapper &gt; Pages: 1 -->
<svg width="635pt" height="1700pt"
 viewBox="0.00 0.00 635.00 1700.00" xmlns="http://www.w3.org/2000/svg" xmlns:xlink="http://www.w3.org/1999/xlink">
<g id="graph0" class="graph" transform="scale(1 1) rotate(0) translate(4 1696)">
<title>NoteCCKPRangeFastLED&lt; Type, BankSize, RangeLen, ColorMapper &gt;</title>
<polygon fill="white" stroke="transparent" points="-4,4 -4,-1696 631,-1696 631,4 -4,4"/>
<!-- Node1 -->
<g id="node1" class="node">
<title>Node1</title>
<g id="a_node1"><a xlink:title="Generic base class for classes that listen for MIDI Note, Control Change and Key Pressure events on a...">
<polygon fill="#bfbfbf" stroke="black" points="295,-0.5 295,-277.5 453,-277.5 453,-0.5 295,-0.5"/>
<text text-anchor="start" x="303" y="-265.5" font-family="Helvetica,sans-Serif" font-size="10.00">NoteCCKPRangeFastLED</text>
<text text-anchor="start" x="303" y="-254.5" font-family="Helvetica,sans-Serif" font-size="10.00">&lt; Type, BankSize, RangeLen,</text>
<text text-anchor="middle" x="374" y="-243.5" font-family="Helvetica,sans-Serif" font-size="10.00"> ColorMapper &gt;</text>
<polyline fill="none" stroke="black" points="295,-236.5 453,-236.5 "/>
<text text-anchor="start" x="303" y="-224.5" font-family="Helvetica,sans-Serif" font-size="10.00">+ colormapper</text>
<text text-anchor="start" x="303" y="-213.5" font-family="Helvetica,sans-Serif" font-size="10.00">&#45; ledcolors</text>
<text text-anchor="start" x="303" y="-202.5" font-family="Helvetica,sans-Serif" font-size="10.00">&#45; brightness</text>
<text text-anchor="start" x="303" y="-191.5" font-family="Helvetica,sans-Serif" font-size="10.00">&#45; ledIndexPermuter</text>
<polyline fill="none" stroke="black" points="295,-184.5 453,-184.5 "/>
<text text-anchor="start" x="303" y="-172.5" font-family="Helvetica,sans-Serif" font-size="10.00">+ NoteCCKPRangeFastLED()</text>
<text text-anchor="start" x="303" y="-161.5" font-family="Helvetica,sans-Serif" font-size="10.00">+ NoteCCKPRangeFastLED()</text>
<text text-anchor="start" x="303" y="-150.5" font-family="Helvetica,sans-Serif" font-size="10.00">+ NoteCCKPRangeFastLED()</text>
<text text-anchor="start" x="303" y="-139.5" font-family="Helvetica,sans-Serif" font-size="10.00">+ NoteCCKPRangeFastLED()</text>
<text text-anchor="start" x="303" y="-128.5" font-family="Helvetica,sans-Serif" font-size="10.00">+ NoteCCKPRangeFastLED()</text>
<text text-anchor="start" x="303" y="-117.5" font-family="Helvetica,sans-Serif" font-size="10.00">+ NoteCCKPRangeFastLED()</text>
<text text-anchor="start" x="303" y="-106.5" font-family="Helvetica,sans-Serif" font-size="10.00">+ setBrightness()</text>
<text text-anchor="start" x="303" y="-95.5" font-family="Helvetica,sans-Serif" font-size="10.00">+ getBrightness()</text>
<text text-anchor="start" x="303" y="-84.5" font-family="Helvetica,sans-Serif" font-size="10.00">+ setLEDIndexPermuter()</text>
<text text-anchor="start" x="303" y="-73.5" font-family="Helvetica,sans-Serif" font-size="10.00">+ begin()</text>
<text text-anchor="start" x="303" y="-62.5" font-family="Helvetica,sans-Serif" font-size="10.00">+ handleUpdate()</text>
<text text-anchor="start" x="303" y="-51.5" font-family="Helvetica,sans-Serif" font-size="10.00">+ reset()</text>
<text text-anchor="start" x="303" y="-40.5" font-family="Helvetica,sans-Serif" font-size="10.00">+ updateLED()</text>
<text text-anchor="start" x="303" y="-29.5" font-family="Helvetica,sans-Serif" font-size="10.00">+ updateLEDs()</text>
<text text-anchor="start" x="303" y="-18.5" font-family="Helvetica,sans-Serif" font-size="10.00"># onBankSettingChange()</text>
<text text-anchor="start" x="303" y="-7.5" font-family="Helvetica,sans-Serif" font-size="10.00">&#45; identityPermuter()</text>
</a>
</g>
</g>
<!-- Node2 -->
<g id="node2" class="node">
<title>Node2</title>
<g id="a_node2"><a xlink:href="../../d9/dd1/classBankable_1_1NoteCCKPRange.html" target="_top" xlink:title="Generic base class for classes that listen for MIDI Note, Control Change and Key Pressure events on a...">
<polygon fill="white" stroke="black" points="302.5,-315.5 302.5,-471.5 445.5,-471.5 445.5,-315.5 302.5,-315.5"/>
<text text-anchor="start" x="310.5" y="-459.5" font-family="Helvetica,sans-Serif" font-size="10.00">NoteCCKPRange&lt; Type,</text>
<text text-anchor="middle" x="374" y="-448.5" font-family="Helvetica,sans-Serif" font-size="10.00"> BankSize, RangeLen &gt;</text>
<polyline fill="none" stroke="black" points="302.5,-441.5 445.5,-441.5 "/>
<text text-anchor="start" x="310.5" y="-429.5" font-family="Helvetica,sans-Serif" font-size="10.00"># dirty</text>
<polyline fill="none" stroke="black" points="302.5,-422.5 445.5,-422.5 "/>
<text text-anchor="start" x="310.5" y="-410.5" font-family="Helvetica,sans-Serif" font-size="10.00">+ NoteCCKPRange()</text>
<text text-anchor="start" x="310.5" y="-399.5" font-family="Helvetica,sans-Serif" font-size="10.00">+ reset()</text>
<text text-anchor="start" x="310.5" y="-388.5" font-family="Helvetica,sans-Serif" font-size="10.00"># handleUpdateImpl()</text>
<text text-anchor="start" x="310.5" y="-377.5" font-family="Helvetica,sans-Serif" font-size="10.00"># handleUpdate()</text>
<text text-anchor="start" x="310.5" y="-366.5" font-family="Helvetica,sans-Serif" font-size="10.00"># onBankSettingChange()</text>
<text text-anchor="start" x="310.5" y="-355.5" font-family="Helvetica,sans-Serif" font-size="10.00">* getValue()</text>
<text text-anchor="start" x="310.5" y="-344.5" font-family="Helvetica,sans-Serif" font-size="10.00">* getValue()</text>
<text text-anchor="start" x="310.5" y="-333.5" font-family="Helvetica,sans-Serif" font-size="10.00">* getDirty()</text>
<text text-anchor="start" x="310.5" y="-322.5" font-family="Helvetica,sans-Serif" font-size="10.00">* clearDirty()</text>
</a>
</g>
</g>
<!-- Node2&#45;&gt;Node1 -->
<g id="edge1" class="edge">
<title>Node2&#45;&gt;Node1</title>
<path fill="none" stroke="midnightblue" d="M374,-305.35C374,-296.35 374,-287.06 374,-277.68"/>
<polygon fill="none" stroke="midnightblue" points="370.5,-305.37 374,-315.37 377.5,-305.37 370.5,-305.37"/>
</g>
<!-- Node3 -->
<g id="node3" class="node">
<title>Node3</title>
<g id="a_node3"><a xlink:href="../../d9/dc0/classBankableMatchingMIDIInputElement.html" target="_top" xlink:title=" ">
<polygon fill="white" stroke="black" points="99,-552.5 99,-675.5 287,-675.5 287,-552.5 99,-552.5"/>
<text text-anchor="start" x="107" y="-663.5" font-family="Helvetica,sans-Serif" font-size="10.00">BankableMatchingMIDIInput</text>
<text text-anchor="start" x="107" y="-652.5" font-family="Helvetica,sans-Serif" font-size="10.00">Element&lt; Type, BankableTwoByte</text>
<text text-anchor="middle" x="193" y="-641.5" font-family="Helvetica,sans-Serif" font-size="10.00">RangeMIDIMatcher&lt; BankSize &gt; &gt;</text>
<polyline fill="none" stroke="black" points="99,-634.5 287,-634.5 "/>
<text text-anchor="middle" x="193" y="-622.5" font-family="Helvetica,sans-Serif" font-size="10.00"> </text>
<polyline fill="none" stroke="black" points="99,-615.5 287,-615.5 "/>
<text text-anchor="start" x="107" y="-603.5" font-family="Helvetica,sans-Serif" font-size="10.00">+ ~BankableMatchingMIDIInput</text>
<text text-anchor="start" x="107" y="-592.5" font-family="Helvetica,sans-Serif" font-size="10.00">Element()</text>
<text text-anchor="start" x="107" y="-581.5" font-family="Helvetica,sans-Serif" font-size="10.00"># BankableMatchingMIDIInput</text>
<text text-anchor="start" x="107" y="-570.5" font-family="Helvetica,sans-Serif" font-size="10.00">Element()</text>
<text text-anchor="start" x="107" y="-559.5" font-family="Helvetica,sans-Serif" font-size="10.00"># getActiveBank()</text>
</a>
</g>
</g>
<!-- Node3&#45;&gt;Node2 -->
<g id="edge2" class="edge">
<title>Node3&#45;&gt;Node2</title>
<path fill="none" stroke="midnightblue" d="M249.59,-544.68C268.8,-521.5 290.38,-495.44 310.11,-471.62"/>
<polygon fill="none" stroke="midnightblue" points="246.86,-542.49 243.18,-552.43 252.25,-546.96 246.86,-542.49"/>
</g>
<!-- Node4 -->
<g id="node4" class="node">
<title>Node4</title>
<g id="a_node4"><a xlink:href="../../d5/dae/classMatchingMIDIInputElement.html" target="_top" xlink:title=" ">
<polygon fill="white" stroke="black" points="43,-767.5 43,-868.5 279,-868.5 279,-767.5 43,-767.5"/>
<text text-anchor="start" x="51" y="-856.5" font-family="Helvetica,sans-Serif" font-size="10.00">MatchingMIDIInputElement</text>
<text text-anchor="start" x="51" y="-845.5" font-family="Helvetica,sans-Serif" font-size="10.00">&lt; Type, BankableTwoByteRangeMIDIMatcher</text>
<text text-anchor="middle" x="161" y="-834.5" font-family="Helvetica,sans-Serif" font-size="10.00">&lt; BankSize &gt; &gt;</text>
<polyline fill="none" stroke="black" points="43,-827.5 279,-827.5 "/>
<text text-anchor="start" x="51" y="-815.5" font-family="Helvetica,sans-Serif" font-size="10.00"># matcher</text>
<polyline fill="none" stroke="black" points="43,-808.5 279,-808.5 "/>
<text text-anchor="start" x="51" y="-796.5" font-family="Helvetica,sans-Serif" font-size="10.00">+ updateWith()</text>
<text text-anchor="start" x="51" y="-785.5" font-family="Helvetica,sans-Serif" font-size="10.00">+ handleUpdate()</text>
<text text-anchor="start" x="51" y="-774.5" font-family="Helvetica,sans-Serif" font-size="10.00"># MatchingMIDIInputElement()</text>
</a>
</g>
</g>
<!-- Node4&#45;&gt;Node3 -->
<g id="edge3" class="edge">
<title>Node4&#45;&gt;Node3</title>
<path fill="none" stroke="midnightblue" d="M170.45,-757.32C174.53,-731.58 179.29,-701.52 183.39,-675.67"/>
<polygon fill="none" stroke="midnightblue" points="166.98,-756.9 168.87,-767.33 173.89,-758 166.98,-756.9"/>
</g>
<!-- Node5 -->
<g id="node5" class="node">
<title>Node5</title>
<g id="a_node5"><a xlink:href="../../d9/db1/classMIDIInputElement.html" target="_top" xlink:title="A class for objects that listen for incoming MIDI events.">
<polygon fill="white" stroke="black" points="86.5,-906.5 86.5,-1062.5 235.5,-1062.5 235.5,-906.5 86.5,-906.5"/>
<text text-anchor="middle" x="161" y="-1050.5" font-family="Helvetica,sans-Serif" font-size="10.00">MIDIInputElement&lt; Type &gt;</text>
<polyline fill="none" stroke="black" points="86.5,-1043.5 235.5,-1043.5 "/>
<text text-anchor="middle" x="161" y="-1031.5" font-family="Helvetica,sans-Serif" font-size="10.00"> </text>
<polyline fill="none" stroke="black" points="86.5,-1024.5 235.5,-1024.5 "/>
<text text-anchor="start" x="94.5" y="-1012.5" font-family="Helvetica,sans-Serif" font-size="10.00">+ ~MIDIInputElement()</text>
<text text-anchor="start" x="94.5" y="-1001.5" font-family="Helvetica,sans-Serif" font-size="10.00">+ begin()</text>
<text text-anchor="start" x="94.5" y="-990.5" font-family="Helvetica,sans-Serif" font-size="10.00">+ reset()</text>
<text text-anchor="start" x="94.5" y="-979.5" font-family="Helvetica,sans-Serif" font-size="10.00">+ update()</text>
<text text-anchor="start" x="94.5" y="-968.5" font-family="Helvetica,sans-Serif" font-size="10.00">+ updateWith()</text>
<text text-anchor="start" x="94.5" y="-957.5" font-family="Helvetica,sans-Serif" font-size="10.00">+ updateAllWith()</text>
<text text-anchor="start" x="94.5" y="-946.5" font-family="Helvetica,sans-Serif" font-size="10.00">+ updateAll()</text>
<text text-anchor="start" x="94.5" y="-935.5" font-family="Helvetica,sans-Serif" font-size="10.00">+ beginAll()</text>
<text text-anchor="start" x="94.5" y="-924.5" font-family="Helvetica,sans-Serif" font-size="10.00">+ resetAll()</text>
<text text-anchor="start" x="94.5" y="-913.5" font-family="Helvetica,sans-Serif" font-size="10.00"># MIDIInputElement()</text>
</a>
</g>
</g>
<!-- Node5&#45;&gt;Node4 -->
<g id="edge4" class="edge">
<title>Node5&#45;&gt;Node4</title>
<path fill="none" stroke="midnightblue" d="M161,-895.96C161,-886.66 161,-877.46 161,-868.82"/>
<polygon fill="none" stroke="midnightblue" points="157.5,-896.07 161,-906.07 164.5,-896.07 157.5,-896.07"/>
</g>
<!-- Node6 -->
<g id="node6" class="node">
<title>Node6</title>
<g id="a_node6"><a xlink:href="../../d8/d1a/classAH_1_1UpdatableCRTP.html" target="_top" xlink:title=" ">
<polygon fill="white" stroke="black" points="86,-1100.5 86,-1333.5 236,-1333.5 236,-1100.5 86,-1100.5"/>
<text text-anchor="start" x="94" y="-1321.5" font-family="Helvetica,sans-Serif" font-size="10.00">UpdatableCRTP&lt; MIDIInput</text>
<text text-anchor="middle" x="161" y="-1310.5" font-family="Helvetica,sans-Serif" font-size="10.00">Element&lt; Type &gt; &gt;</text>
<polyline fill="none" stroke="black" points="86,-1303.5 236,-1303.5 "/>
<text text-anchor="middle" x="161" y="-1291.5" font-family="Helvetica,sans-Serif" font-size="10.00"> </text>
<polyline fill="none" stroke="black" points="86,-1284.5 236,-1284.5 "/>
<text text-anchor="start" x="94" y="-1272.5" font-family="Helvetica,sans-Serif" font-size="10.00">+ ~UpdatableCRTP()</text>
<text text-anchor="start" x="94" y="-1261.5" font-family="Helvetica,sans-Serif" font-size="10.00"># UpdatableCRTP()</text>
<text text-anchor="start" x="94" y="-1250.5" font-family="Helvetica,sans-Serif" font-size="10.00"># UpdatableCRTP()</text>
<text text-anchor="start" x="94" y="-1239.5" font-family="Helvetica,sans-Serif" font-size="10.00"># UpdatableCRTP()</text>
<text text-anchor="start" x="94" y="-1228.5" font-family="Helvetica,sans-Serif" font-size="10.00"># operator=()</text>
<text text-anchor="start" x="94" y="-1217.5" font-family="Helvetica,sans-Serif" font-size="10.00"># operator=()</text>
<text text-anchor="start" x="94" y="-1206.5" font-family="Helvetica,sans-Serif" font-size="10.00">* enable()</text>
<text text-anchor="start" x="94" y="-1195.5" font-family="Helvetica,sans-Serif" font-size="10.00">* disable()</text>
<text text-anchor="start" x="94" y="-1184.5" font-family="Helvetica,sans-Serif" font-size="10.00">* isEnabled()</text>
<text text-anchor="start" x="94" y="-1173.5" font-family="Helvetica,sans-Serif" font-size="10.00">* moveDown()</text>
<text text-anchor="start" x="94" y="-1162.5" font-family="Helvetica,sans-Serif" font-size="10.00">* enable()</text>
<text text-anchor="start" x="94" y="-1151.5" font-family="Helvetica,sans-Serif" font-size="10.00">* enable()</text>
<text text-anchor="start" x="94" y="-1140.5" font-family="Helvetica,sans-Serif" font-size="10.00">* enable()</text>
<text text-anchor="start" x="94" y="-1129.5" font-family="Helvetica,sans-Serif" font-size="10.00">* disable()</text>
<text text-anchor="start" x="94" y="-1118.5" font-family="Helvetica,sans-Serif" font-size="10.00">* disable()</text>
<text text-anchor="start" x="94" y="-1107.5" font-family="Helvetica,sans-Serif" font-size="10.00">* disable()</text>
</a>
</g>
</g>
<!-- Node6&#45;&gt;Node5 -->
<g id="edge5" class="edge">
<title>Node6&#45;&gt;Node5</title>
<path fill="none" stroke="midnightblue" d="M161,-1090.22C161,-1080.85 161,-1071.58 161,-1062.65"/>
<polygon fill="none" stroke="midnightblue" points="157.5,-1090.41 161,-1100.41 164.5,-1090.41 157.5,-1090.41"/>
</g>
<!-- Node7 -->
<g id="node7" class="node">
<title>Node7</title>
<g id="a_node7"><a xlink:href="../../d4/d23/classDoublyLinkable.html" target="_top" xlink:title=" ">
<polygon fill="white" stroke="black" points="0,-1469.5 0,-1603.5 150,-1603.5 150,-1469.5 0,-1469.5"/>
<text text-anchor="start" x="8" y="-1591.5" font-family="Helvetica,sans-Serif" font-size="10.00">DoublyLinkable&lt; MIDIInput</text>
<text text-anchor="middle" x="75" y="-1580.5" font-family="Helvetica,sans-Serif" font-size="10.00">Element&lt; Type &gt; &gt;</text>
<polyline fill="none" stroke="black" points="0,-1573.5 150,-1573.5 "/>
<text text-anchor="start" x="8" y="-1561.5" font-family="Helvetica,sans-Serif" font-size="10.00"># next</text>
<text text-anchor="start" x="8" y="-1550.5" font-family="Helvetica,sans-Serif" font-size="10.00"># previous</text>
<polyline fill="none" stroke="black" points="0,-1543.5 150,-1543.5 "/>
<text text-anchor="start" x="8" y="-1531.5" font-family="Helvetica,sans-Serif" font-size="10.00"># ~DoublyLinkable()</text>
<text text-anchor="start" x="8" y="-1520.5" font-family="Helvetica,sans-Serif" font-size="10.00"># DoublyLinkable()</text>
<text text-anchor="start" x="8" y="-1509.5" font-family="Helvetica,sans-Serif" font-size="10.00"># DoublyLinkable()</text>
<text text-anchor="start" x="8" y="-1498.5" font-family="Helvetica,sans-Serif" font-size="10.00"># DoublyLinkable()</text>
<text text-anchor="start" x="8" y="-1487.5" font-family="Helvetica,sans-Serif" font-size="10.00"># operator=()</text>
<text text-anchor="start" x="8" y="-1476.5" font-family="Helvetica,sans-Serif" font-size="10.00"># operator=()</text>
</a>
</g>
</g>
<!-- Node7&#45;&gt;Node6 -->
<g id="edge6" class="edge">
<title>Node7&#45;&gt;Node6</title>
<path fill="none" stroke="midnightblue" d="M95.6,-1459.44C105.81,-1421.76 118.35,-1375.46 129.71,-1333.52"/>
<polygon fill="none" stroke="midnightblue" points="92.16,-1458.76 92.92,-1469.33 98.92,-1460.59 92.16,-1458.76"/>
</g>
<!-- Node8 -->
<g id="node8" class="node">
<title>Node8</title>
<g id="a_node8"><a xlink:href="../../dd/d16/classDoublyLinkedList.html" target="_top" xlink:title=" ">
<polygon fill="white" stroke="black" points="168,-1381.5 168,-1691.5 326,-1691.5 326,-1381.5 168,-1381.5"/>
<text text-anchor="start" x="176" y="-1679.5" font-family="Helvetica,sans-Serif" font-size="10.00">DoublyLinkedList&lt; MIDIInput</text>
<text text-anchor="middle" x="247" y="-1668.5" font-family="Helvetica,sans-Serif" font-size="10.00">Element&lt; Type &gt; &gt;</text>
<polyline fill="none" stroke="black" points="168,-1661.5 326,-1661.5 "/>
<text text-anchor="start" x="176" y="-1649.5" font-family="Helvetica,sans-Serif" font-size="10.00">&#45; first</text>
<text text-anchor="start" x="176" y="-1638.5" font-family="Helvetica,sans-Serif" font-size="10.00">&#45; last</text>
<polyline fill="none" stroke="black" points="168,-1631.5 326,-1631.5 "/>
<text text-anchor="start" x="176" y="-1619.5" font-family="Helvetica,sans-Serif" font-size="10.00">+ append()</text>
<text text-anchor="start" x="176" y="-1608.5" font-family="Helvetica,sans-Serif" font-size="10.00">+ append()</text>
<text text-anchor="start" x="176" y="-1597.5" font-family="Helvetica,sans-Serif" font-size="10.00">+ insertBefore()</text>
<text text-anchor="start" x="176" y="-1586.5" font-family="Helvetica,sans-Serif" font-size="10.00">+ insertBefore()</text>
<text text-anchor="start" x="176" y="-1575.5" font-family="Helvetica,sans-Serif" font-size="10.00">+ insertSorted()</text>
<text text-anchor="start" x="176" y="-1564.5" font-family="Helvetica,sans-Serif" font-size="10.00">+ insertSorted()</text>
<text text-anchor="start" x="176" y="-1553.5" font-family="Helvetica,sans-Serif" font-size="10.00">+ remove()</text>
<text text-anchor="start" x="176" y="-1542.5" font-family="Helvetica,sans-Serif" font-size="10.00">+ remove()</text>
<text text-anchor="start" x="176" y="-1531.5" font-family="Helvetica,sans-Serif" font-size="10.00">+ moveDown()</text>
<text text-anchor="start" x="176" y="-1520.5" font-family="Helvetica,sans-Serif" font-size="10.00">+ moveDown()</text>
<text text-anchor="start" x="176" y="-1509.5" font-family="Helvetica,sans-Serif" font-size="10.00">+ couldContain()</text>
<text text-anchor="start" x="176" y="-1498.5" font-family="Helvetica,sans-Serif" font-size="10.00">+ couldContain()</text>
<text text-anchor="start" x="176" y="-1487.5" font-family="Helvetica,sans-Serif" font-size="10.00">+ begin()</text>
<text text-anchor="start" x="176" y="-1476.5" font-family="Helvetica,sans-Serif" font-size="10.00">+ begin()</text>
<text text-anchor="start" x="176" y="-1465.5" font-family="Helvetica,sans-Serif" font-size="10.00">+ end()</text>
<text text-anchor="start" x="176" y="-1454.5" font-family="Helvetica,sans-Serif" font-size="10.00">+ end()</text>
<text text-anchor="start" x="176" y="-1443.5" font-family="Helvetica,sans-Serif" font-size="10.00">+ rbegin()</text>
<text text-anchor="start" x="176" y="-1432.5" font-family="Helvetica,sans-Serif" font-size="10.00">+ rbegin()</text>
<text text-anchor="start" x="176" y="-1421.5" font-family="Helvetica,sans-Serif" font-size="10.00">+ rend()</text>
<text text-anchor="start" x="176" y="-1410.5" font-family="Helvetica,sans-Serif" font-size="10.00">+ rend()</text>
<text text-anchor="start" x="176" y="-1399.5" font-family="Helvetica,sans-Serif" font-size="10.00">+ getFirst()</text>
<text text-anchor="start" x="176" y="-1388.5" font-family="Helvetica,sans-Serif" font-size="10.00">+ getLast()</text>
</a>
</g>
</g>
<!-- Node8&#45;&gt;Node6 -->
<g id="edge7" class="edge">
<title>Node8&#45;&gt;Node6</title>
<path fill="none" stroke="#404040" d="M205.26,-1381.4C201.99,-1369.31 198.7,-1357.19 195.48,-1345.31"/>
<polygon fill="none" stroke="#404040" points="195.43,-1345.11 190,-1340.36 192.29,-1333.53 197.72,-1338.27 195.43,-1345.11"/>
<text text-anchor="middle" x="232" y="-1355" font-family="Helvetica,sans-Serif" font-size="10.00"> #updatables</text>
</g>
<!-- Node9 -->
<g id="node9" class="node">
<title>Node9</title>
<g id="a_node9"><a xlink:href="../../d2/dbf/classBankSettingChangeCallback.html" target="_top" xlink:title="Callback class for Bankable objects that need to be notified when the active setting of their Bank ch...">
<polygon fill="white" stroke="black" points="297.5,-789.5 297.5,-846.5 452.5,-846.5 452.5,-789.5 297.5,-789.5"/>
<text text-anchor="middle" x="375" y="-834.5" font-family="Helvetica,sans-Serif" font-size="10.00">BankSettingChangeCallback</text>
<polyline fill="none" stroke="black" points="297.5,-827.5 452.5,-827.5 "/>
<text text-anchor="middle" x="375" y="-815.5" font-family="Helvetica,sans-Serif" font-size="10.00"> </text>
<polyline fill="none" stroke="black" points="297.5,-808.5 452.5,-808.5 "/>
<text text-anchor="start" x="305.5" y="-796.5" font-family="Helvetica,sans-Serif" font-size="10.00">&#45; onBankSettingChange()</text>
</a>
</g>
</g>
<!-- Node9&#45;&gt;Node3 -->
<g id="edge8" class="edge">
<title>Node9&#45;&gt;Node3</title>
<path fill="none" stroke="midnightblue" d="M343.32,-781.84C317.05,-752.68 279.07,-710.53 247.86,-675.89"/>
<polygon fill="none" stroke="midnightblue" points="340.78,-784.25 350.08,-789.34 345.98,-779.56 340.78,-784.25"/>
</g>
<!-- Node10 -->
<g id="node10" class="node">
<title>Node10</title>
<g id="a_node10"><a xlink:href="../../d4/d23/classDoublyLinkable.html" target="_top" xlink:title=" ">
<polygon fill="white" stroke="black" points="305,-552.5 305,-675.5 467,-675.5 467,-552.5 305,-552.5"/>
<text text-anchor="start" x="313" y="-663.5" font-family="Helvetica,sans-Serif" font-size="10.00">DoublyLinkable&lt; BankSetting</text>
<text text-anchor="middle" x="386" y="-652.5" font-family="Helvetica,sans-Serif" font-size="10.00">ChangeCallback &gt;</text>
<polyline fill="none" stroke="black" points="305,-645.5 467,-645.5 "/>
<text text-anchor="middle" x="386" y="-633.5" font-family="Helvetica,sans-Serif" font-size="10.00"> </text>
<polyline fill="none" stroke="black" points="305,-626.5 467,-626.5 "/>
<text text-anchor="start" x="313" y="-614.5" font-family="Helvetica,sans-Serif" font-size="10.00"># ~DoublyLinkable()</text>
<text text-anchor="start" x="313" y="-603.5" font-family="Helvetica,sans-Serif" font-size="10.00"># DoublyLinkable()</text>
<text text-anchor="start" x="313" y="-592.5" font-family="Helvetica,sans-Serif" font-size="10.00"># DoublyLinkable()</text>
<text text-anchor="start" x="313" y="-581.5" font-family="Helvetica,sans-Serif" font-size="10.00"># DoublyLinkable()</text>
<text text-anchor="start" x="313" y="-570.5" font-family="Helvetica,sans-Serif" font-size="10.00"># operator=()</text>
<text text-anchor="start" x="313" y="-559.5" font-family="Helvetica,sans-Serif" font-size="10.00"># operator=()</text>
</a>
</g>
</g>
<!-- Node9&#45;&gt;Node10 -->
<g id="edge10" class="edge">
<title>Node9&#45;&gt;Node10</title>
<path fill="none" stroke="#404040" d="M354.76,-789.44C344.32,-772.02 334.62,-748.78 339,-727 341.69,-713.65 346.01,-699.91 350.97,-686.82"/>
<polygon fill="none" stroke="#404040" points="351.03,-686.66 349.54,-679.61 355.47,-675.51 356.97,-682.57 351.03,-686.66"/>
<text text-anchor="middle" x="364.5" y="-741" font-family="Helvetica,sans-Serif" font-size="10.00"> #next</text>
<text text-anchor="middle" x="364.5" y="-730" font-family="Helvetica,sans-Serif" font-size="10.00">#previous</text>
</g>
<!-- Node10&#45;&gt;Node9 -->
<g id="edge9" class="edge">
<title>Node10&#45;&gt;Node9</title>
<path fill="none" stroke="midnightblue" d="M395.39,-685.76C396.71,-706.22 396.8,-728.56 394,-749 392.15,-762.48 388.33,-777.05 384.6,-789.24"/>
<polygon fill="none" stroke="midnightblue" points="398.86,-685.27 394.62,-675.56 391.88,-685.79 398.86,-685.27"/>
</g>
<!-- Node11 -->
<g id="node11" class="node">
<title>Node11</title>
<g id="a_node11"><a xlink:href="../../d0/d32/structAH_1_1Array.html" target="_top" xlink:title=" ">
<polygon fill="white" stroke="black" points="485,-519.5 485,-708.5 627,-708.5 627,-519.5 485,-519.5"/>
<text text-anchor="start" x="493" y="-696.5" font-family="Helvetica,sans-Serif" font-size="10.00">Array&lt; uint8_t, BankSize,</text>
<text text-anchor="middle" x="556" y="-685.5" font-family="Helvetica,sans-Serif" font-size="10.00"> RangeLen &gt;</text>
<polyline fill="none" stroke="black" points="485,-678.5 627,-678.5 "/>
<text text-anchor="start" x="493" y="-666.5" font-family="Helvetica,sans-Serif" font-size="10.00">+ data</text>
<text text-anchor="start" x="493" y="-655.5" font-family="Helvetica,sans-Serif" font-size="10.00">+ length</text>
<polyline fill="none" stroke="black" points="485,-648.5 627,-648.5 "/>
<text text-anchor="start" x="493" y="-636.5" font-family="Helvetica,sans-Serif" font-size="10.00">+ operator[]()</text>
<text text-anchor="start" x="493" y="-625.5" font-family="Helvetica,sans-Serif" font-size="10.00">+ operator[]()</text>
<text text-anchor="start" x="493" y="-614.5" font-family="Helvetica,sans-Serif" font-size="10.00">+ begin()</text>
<text text-anchor="start" x="493" y="-603.5" font-family="Helvetica,sans-Serif" font-size="10.00">+ begin()</text>
<text text-anchor="start" x="493" y="-592.5" font-family="Helvetica,sans-Serif" font-size="10.00">+ end()</text>
<text text-anchor="start" x="493" y="-581.5" font-family="Helvetica,sans-Serif" font-size="10.00">+ end()</text>
<text text-anchor="start" x="493" y="-570.5" font-family="Helvetica,sans-Serif" font-size="10.00">+ operator==()</text>
<text text-anchor="start" x="493" y="-559.5" font-family="Helvetica,sans-Serif" font-size="10.00">+ operator!=()</text>
<text text-anchor="start" x="493" y="-548.5" font-family="Helvetica,sans-Serif" font-size="10.00">+ slice()</text>
<text text-anchor="start" x="493" y="-537.5" font-family="Helvetica,sans-Serif" font-size="10.00">+ slice()</text>
<text text-anchor="start" x="493" y="-526.5" font-family="Helvetica,sans-Serif" font-size="10.00">+ cslice()</text>
</a>
</g>
</g>
<!-- Node11&#45;&gt;Node2 -->
<g id="edge11" class="edge">
<title>Node11&#45;&gt;Node2</title>
<path fill="none" stroke="#404040" d="M484.85,-527.58C472.14,-512.32 458.88,-496.4 446.14,-481.1"/>
<polygon fill="none" stroke="#404040" points="445.96,-480.89 439.05,-478.84 438.28,-471.67 445.19,-473.72 445.96,-480.89"/>
<text text-anchor="middle" x="479.5" y="-493" font-family="Helvetica,sans-Serif" font-size="10.00"> &#45;values</text>
</g>
</g>
</svg>
