<?xml version="1.0" encoding="UTF-8" standalone="no"?>
<!DOCTYPE svg PUBLIC "-//W3C//DTD SVG 1.1//EN"
 "http://www.w3.org/Graphics/SVG/1.1/DTD/svg11.dtd">
<!-- Generated by graphviz version 2.38.0 (20140413.2041)
 -->
<!-- Title: MIDIInputElementCC.cpp Pages: 1 -->
<svg width="1283pt" height="767pt"
 viewBox="0.00 0.00 1282.50 767.00" xmlns="http://www.w3.org/2000/svg" xmlns:xlink="http://www.w3.org/1999/xlink">
<g id="graph0" class="graph" transform="scale(1 1) rotate(0) translate(4 763)">
<title>MIDIInputElementCC.cpp</title>
<polygon fill="white" stroke="none" points="-4,4 -4,-763 1278.5,-763 1278.5,4 -4,4"/>
<!-- Node1 -->
<g id="node1" class="node"><title>Node1</title>
<g id="a_node1"><a xlink:title=" ">
<polygon fill="#bfbfbf" stroke="black" points="609.5,-739.5 609.5,-758.5 739.5,-758.5 739.5,-739.5 609.5,-739.5"/>
<text text-anchor="middle" x="674.5" y="-746.5" font-family="Helvetica,sans-Serif" font-size="10.00">MIDIInputElementCC.cpp</text>
</a>
</g>
</g>
<!-- Node2 -->
<g id="node2" class="node"><title>Node2</title>
<g id="a_node2"><a xlink:href="../../df/de0/MIDIInputElementCC_8hpp.html" target="_top" xlink:title=" ">
<polygon fill="white" stroke="black" points="609.5,-683.5 609.5,-702.5 739.5,-702.5 739.5,-683.5 609.5,-683.5"/>
<text text-anchor="middle" x="674.5" y="-690.5" font-family="Helvetica,sans-Serif" font-size="10.00">MIDIInputElementCC.hpp</text>
</a>
</g>
</g>
<!-- Node1&#45;&gt;Node2 -->
<g id="edge1" class="edge"><title>Node1&#45;&gt;Node2</title>
<path fill="none" stroke="midnightblue" d="M674.5,-739.083C674.5,-732.006 674.5,-721.861 674.5,-712.986"/>
<polygon fill="midnightblue" stroke="midnightblue" points="678,-712.751 674.5,-702.751 671,-712.751 678,-712.751"/>
</g>
<!-- Node3 -->
<g id="node3" class="node"><title>Node3</title>
<g id="a_node3"><a xlink:href="../../de/dd1/LinkedList_8hpp.html" target="_top" xlink:title=" ">
<polygon fill="white" stroke="black" points="257,-515.5 257,-534.5 404,-534.5 404,-515.5 257,-515.5"/>
<text text-anchor="middle" x="330.5" y="-522.5" font-family="Helvetica,sans-Serif" font-size="10.00">AH/Containers/LinkedList.hpp</text>
</a>
</g>
</g>
<!-- Node2&#45;&gt;Node3 -->
<g id="edge2" class="edge"><title>Node2&#45;&gt;Node3</title>
<path fill="none" stroke="midnightblue" d="M656.489,-683.309C599.831,-655.968 424.998,-571.601 357.487,-539.023"/>
<polygon fill="midnightblue" stroke="midnightblue" points="358.86,-535.799 348.332,-534.605 355.817,-542.103 358.86,-535.799"/>
</g>
<!-- Node20 -->
<g id="node20" class="node"><title>Node20</title>
<g id="a_node20"><a xlink:href="../../dc/d90/MIDIInputElement_8hpp.html" target="_top" xlink:title=" ">
<polygon fill="white" stroke="black" points="772.5,-627.5 772.5,-646.5 944.5,-646.5 944.5,-627.5 772.5,-627.5"/>
<text text-anchor="middle" x="858.5" y="-634.5" font-family="Helvetica,sans-Serif" font-size="10.00">MIDI_Inputs/MIDIInputElement.hpp</text>
</a>
</g>
</g>
<!-- Node2&#45;&gt;Node20 -->
<g id="edge25" class="edge"><title>Node2&#45;&gt;Node20</title>
<path fill="none" stroke="midnightblue" d="M703.655,-683.444C735.013,-674.241 785.031,-659.562 819.697,-649.388"/>
<polygon fill="midnightblue" stroke="midnightblue" points="820.871,-652.691 829.481,-646.516 818.9,-645.974 820.871,-652.691"/>
</g>
<!-- Node4 -->
<g id="node4" class="node"><title>Node4</title>
<g id="a_node4"><a xlink:href="../../df/dee/Debug_8hpp.html" target="_top" xlink:title=" ">
<polygon fill="white" stroke="black" points="274,-224.5 274,-243.5 387,-243.5 387,-224.5 274,-224.5"/>
<text text-anchor="middle" x="330.5" y="-231.5" font-family="Helvetica,sans-Serif" font-size="10.00">AH/Debug/Debug.hpp</text>
</a>
</g>
</g>
<!-- Node3&#45;&gt;Node4 -->
<g id="edge3" class="edge"><title>Node3&#45;&gt;Node4</title>
<path fill="none" stroke="midnightblue" d="M330.5,-515.307C330.5,-496.062 330.5,-448.404 330.5,-408.5 330.5,-408.5 330.5,-408.5 330.5,-345 330.5,-312.948 330.5,-275.643 330.5,-253.749"/>
<polygon fill="midnightblue" stroke="midnightblue" points="334,-253.558 330.5,-243.558 327,-253.558 334,-253.558"/>
</g>
<!-- Node17 -->
<g id="node17" class="node"><title>Node17</title>
<g id="a_node17"><a xlink:href="../../d7/d79/MinMaxFix_8hpp.html" target="_top" xlink:title=" ">
<polygon fill="white" stroke="black" points="136,-56.5 136,-75.5 261,-75.5 261,-56.5 136,-56.5"/>
<text text-anchor="middle" x="198.5" y="-63.5" font-family="Helvetica,sans-Serif" font-size="10.00">AH/Math/MinMaxFix.hpp</text>
</a>
</g>
</g>
<!-- Node3&#45;&gt;Node17 -->
<g id="edge20" class="edge"><title>Node3&#45;&gt;Node17</title>
<path fill="none" stroke="midnightblue" d="M256.743,-520.991C181.432,-513.492 75.5,-488.691 75.5,-408.5 75.5,-408.5 75.5,-408.5 75.5,-177 75.5,-147.024 73.7787,-134.575 93.5,-112 107.508,-95.9644 128.235,-85.4642 147.58,-78.6769"/>
<polygon fill="midnightblue" stroke="midnightblue" points="148.797,-81.9619 157.228,-75.5459 146.636,-75.3037 148.797,-81.9619"/>
</g>
<!-- Node18 -->
<g id="node18" class="node"><title>Node18</title>
<g id="a_node18"><a xlink:title=" ">
<polygon fill="white" stroke="#bfbfbf" points="577.5,-459.5 577.5,-478.5 625.5,-478.5 625.5,-459.5 577.5,-459.5"/>
<text text-anchor="middle" x="601.5" y="-466.5" font-family="Helvetica,sans-Serif" font-size="10.00">stdlib.h</text>
</a>
</g>
</g>
<!-- Node3&#45;&gt;Node18 -->
<g id="edge23" class="edge"><title>Node3&#45;&gt;Node18</title>
<path fill="none" stroke="midnightblue" d="M373.441,-515.444C427.225,-504.726 518.277,-486.583 567.491,-476.777"/>
<polygon fill="midnightblue" stroke="midnightblue" points="568.206,-480.203 577.33,-474.816 566.838,-473.338 568.206,-480.203"/>
</g>
<!-- Node19 -->
<g id="node19" class="node"><title>Node19</title>
<g id="a_node19"><a xlink:title=" ">
<polygon fill="white" stroke="#bfbfbf" points="0,-459.5 0,-478.5 47,-478.5 47,-459.5 0,-459.5"/>
<text text-anchor="middle" x="23.5" y="-466.5" font-family="Helvetica,sans-Serif" font-size="10.00">iterator</text>
</a>
</g>
</g>
<!-- Node3&#45;&gt;Node19 -->
<g id="edge24" class="edge"><title>Node3&#45;&gt;Node19</title>
<path fill="none" stroke="midnightblue" d="M272.836,-515.495C218.227,-507.171 134.023,-493.637 61.5,-479 60.0462,-478.707 58.5635,-478.398 57.0673,-478.078"/>
<polygon fill="midnightblue" stroke="midnightblue" points="57.6858,-474.63 47.1629,-475.862 56.1577,-481.461 57.6858,-474.63"/>
</g>
<!-- Node5 -->
<g id="node5" class="node"><title>Node5</title>
<g id="a_node5"><a xlink:href="../../dd/d80/PrintStream_8hpp.html" target="_top" xlink:title=" ">
<polygon fill="white" stroke="black" points="103,-112.5 103,-131.5 262,-131.5 262,-112.5 103,-112.5"/>
<text text-anchor="middle" x="182.5" y="-119.5" font-family="Helvetica,sans-Serif" font-size="10.00">AH/PrintStream/PrintStream.hpp</text>
</a>
</g>
</g>
<!-- Node4&#45;&gt;Node5 -->
<g id="edge4" class="edge"><title>Node4&#45;&gt;Node5</title>
<path fill="none" stroke="midnightblue" d="M307.011,-224.372C287.736,-216.618 260.325,-203.998 239.5,-188 221.535,-174.199 204.939,-154.076 194.344,-139.884"/>
<polygon fill="midnightblue" stroke="midnightblue" points="196.997,-137.581 188.293,-131.54 191.33,-141.69 196.997,-137.581"/>
</g>
<!-- Node6 -->
<g id="node6" class="node"><title>Node6</title>
<g id="a_node6"><a xlink:title=" ">
<polygon fill="white" stroke="#bfbfbf" points="123.5,-0.5 123.5,-19.5 181.5,-19.5 181.5,-0.5 123.5,-0.5"/>
<text text-anchor="middle" x="152.5" y="-7.5" font-family="Helvetica,sans-Serif" font-size="10.00">Arduino.h</text>
</a>
</g>
</g>
<!-- Node4&#45;&gt;Node6 -->
<g id="edge18" class="edge"><title>Node4&#45;&gt;Node6</title>
<path fill="none" stroke="midnightblue" d="M273.925,-226.818C217.132,-217.237 132.614,-192.992 93.5,-132 70.5036,-96.1409 110.164,-50.0044 134.916,-26.4044"/>
<polygon fill="midnightblue" stroke="midnightblue" points="137.346,-28.9248 142.33,-19.5756 132.603,-23.7761 137.346,-28.9248"/>
</g>
<!-- Node7 -->
<g id="node7" class="node"><title>Node7</title>
<g id="a_node7"><a xlink:href="../../de/dd1/AH_2Settings_2SettingsWrapper_8hpp.html" target="_top" xlink:title=" ">
<polygon fill="white" stroke="black" points="248.5,-168.5 248.5,-187.5 412.5,-187.5 412.5,-168.5 248.5,-168.5"/>
<text text-anchor="middle" x="330.5" y="-175.5" font-family="Helvetica,sans-Serif" font-size="10.00">AH/Settings/SettingsWrapper.hpp</text>
</a>
</g>
</g>
<!-- Node4&#45;&gt;Node7 -->
<g id="edge6" class="edge"><title>Node4&#45;&gt;Node7</title>
<path fill="none" stroke="midnightblue" d="M325.334,-224.083C323.824,-216.927 323.394,-206.635 324.042,-197.691"/>
<polygon fill="midnightblue" stroke="midnightblue" points="327.515,-198.126 325.369,-187.751 320.577,-197.2 327.515,-198.126"/>
</g>
<!-- Node16 -->
<g id="node16" class="node"><title>Node16</title>
<g id="a_node16"><a xlink:href="../../d7/d52/DebugVal_8hpp.html" target="_top" xlink:title=" ">
<polygon fill="white" stroke="black" points="430.5,-168.5 430.5,-187.5 508.5,-187.5 508.5,-168.5 430.5,-168.5"/>
<text text-anchor="middle" x="469.5" y="-175.5" font-family="Helvetica,sans-Serif" font-size="10.00">DebugVal.hpp</text>
</a>
</g>
</g>
<!-- Node4&#45;&gt;Node16 -->
<g id="edge19" class="edge"><title>Node4&#45;&gt;Node16</title>
<path fill="none" stroke="midnightblue" d="M352.525,-224.444C375.604,-215.478 412.062,-201.314 438.141,-191.183"/>
<polygon fill="midnightblue" stroke="midnightblue" points="439.524,-194.4 447.578,-187.516 436.989,-187.875 439.524,-194.4"/>
</g>
<!-- Node5&#45;&gt;Node6 -->
<g id="edge5" class="edge"><title>Node5&#45;&gt;Node6</title>
<path fill="none" stroke="midnightblue" d="M164.998,-112.465C151.713,-104.917 134.424,-92.5333 126.5,-76 118.817,-59.9707 128.398,-41.042 138.025,-27.7582"/>
<polygon fill="midnightblue" stroke="midnightblue" points="141.04,-29.5875 144.486,-19.5686 135.545,-25.252 141.04,-29.5875"/>
</g>
<!-- Node7&#45;&gt;Node4 -->
<g id="edge17" class="edge"><title>Node7&#45;&gt;Node4</title>
<path fill="none" stroke="midnightblue" d="M335.631,-187.751C337.157,-194.858 337.604,-205.136 336.972,-214.101"/>
<polygon fill="midnightblue" stroke="midnightblue" points="333.493,-213.713 335.666,-224.083 340.434,-214.622 333.493,-213.713"/>
</g>
<!-- Node8 -->
<g id="node8" class="node"><title>Node8</title>
<g id="a_node8"><a xlink:href="../../d6/db0/AH_2Settings_2NamespaceSettings_8hpp.html" target="_top" xlink:title=" ">
<polygon fill="white" stroke="black" points="389.5,-0.5 389.5,-19.5 513.5,-19.5 513.5,-0.5 389.5,-0.5"/>
<text text-anchor="middle" x="451.5" y="-7.5" font-family="Helvetica,sans-Serif" font-size="10.00">NamespaceSettings.hpp</text>
</a>
</g>
</g>
<!-- Node7&#45;&gt;Node8 -->
<g id="edge7" class="edge"><title>Node7&#45;&gt;Node8</title>
<path fill="none" stroke="midnightblue" d="M324.956,-168.398C312.003,-147.103 282.735,-91.1189 308.5,-56 324.95,-33.5779 352.58,-22.0336 379.191,-16.1928"/>
<polygon fill="midnightblue" stroke="midnightblue" points="380.168,-19.5685 389.315,-14.2228 378.831,-12.6974 380.168,-19.5685"/>
</g>
<!-- Node9 -->
<g id="node9" class="node"><title>Node9</title>
<g id="a_node9"><a xlink:href="../../d5/d4f/AH_2Settings_2Settings_8hpp.html" target="_top" xlink:title="All user settings and debugging options can be changed here.">
<polygon fill="white" stroke="black" points="504,-112.5 504,-131.5 575,-131.5 575,-112.5 504,-112.5"/>
<text text-anchor="middle" x="539.5" y="-119.5" font-family="Helvetica,sans-Serif" font-size="10.00">Settings.hpp</text>
</a>
</g>
</g>
<!-- Node7&#45;&gt;Node9 -->
<g id="edge8" class="edge"><title>Node7&#45;&gt;Node9</title>
<path fill="none" stroke="midnightblue" d="M363.617,-168.444C399.618,-159.142 457.27,-144.246 496.686,-134.062"/>
<polygon fill="midnightblue" stroke="midnightblue" points="497.732,-137.407 506.538,-131.516 495.981,-130.629 497.732,-137.407"/>
</g>
<!-- Node15 -->
<g id="node15" class="node"><title>Node15</title>
<g id="a_node15"><a xlink:href="../../d9/d98/TeensyUSBTypes_8hpp.html" target="_top" xlink:title=" ">
<polygon fill="white" stroke="black" points="317.5,-112.5 317.5,-131.5 485.5,-131.5 485.5,-112.5 317.5,-112.5"/>
<text text-anchor="middle" x="401.5" y="-119.5" font-family="Helvetica,sans-Serif" font-size="10.00">AH/Teensy/TeensyUSBTypes.hpp</text>
</a>
</g>
</g>
<!-- Node7&#45;&gt;Node15 -->
<g id="edge16" class="edge"><title>Node7&#45;&gt;Node15</title>
<path fill="none" stroke="midnightblue" d="M341.907,-168.324C352.609,-160.185 368.841,-147.839 381.663,-138.087"/>
<polygon fill="midnightblue" stroke="midnightblue" points="384.044,-140.673 389.885,-131.834 379.807,-135.102 384.044,-140.673"/>
</g>
<!-- Node10 -->
<g id="node10" class="node"><title>Node10</title>
<g id="a_node10"><a xlink:href="../../dc/d50/Frequency_8hpp.html" target="_top" xlink:title=" ">
<polygon fill="white" stroke="black" points="549.5,-56.5 549.5,-75.5 677.5,-75.5 677.5,-56.5 549.5,-56.5"/>
<text text-anchor="middle" x="613.5" y="-63.5" font-family="Helvetica,sans-Serif" font-size="10.00">AH/Types/Frequency.hpp</text>
</a>
</g>
</g>
<!-- Node9&#45;&gt;Node10 -->
<g id="edge9" class="edge"><title>Node9&#45;&gt;Node10</title>
<path fill="none" stroke="midnightblue" d="M551.389,-112.324C562.65,-104.107 579.787,-91.6017 593.209,-81.8069"/>
<polygon fill="midnightblue" stroke="midnightblue" points="595.38,-84.5559 601.394,-75.8339 591.253,-78.9014 595.38,-84.5559"/>
</g>
<!-- Node11 -->
<g id="node11" class="node"><title>Node11</title>
<g id="a_node11"><a xlink:href="../../d7/d7c/ADCConfig_8hpp.html" target="_top" xlink:title="This file contains the platform&#45;specific ADC resolutions. By default, the library automatically selec...">
<polygon fill="white" stroke="black" points="317.5,-56.5 317.5,-75.5 465.5,-75.5 465.5,-56.5 317.5,-56.5"/>
<text text-anchor="middle" x="391.5" y="-63.5" font-family="Helvetica,sans-Serif" font-size="10.00">AH/Hardware/ADCConfig.hpp</text>
</a>
</g>
</g>
<!-- Node9&#45;&gt;Node11 -->
<g id="edge11" class="edge"><title>Node9&#45;&gt;Node11</title>
<path fill="none" stroke="midnightblue" d="M516.049,-112.444C491.367,-103.438 452.315,-89.1891 424.523,-79.049"/>
<polygon fill="midnightblue" stroke="midnightblue" points="425.435,-75.6561 414.841,-75.5164 423.036,-82.2321 425.435,-75.6561"/>
</g>
<!-- Node12 -->
<g id="node12" class="node"><title>Node12</title>
<g id="a_node12"><a xlink:title=" ">
<polygon fill="white" stroke="#bfbfbf" points="483.5,-56.5 483.5,-75.5 531.5,-75.5 531.5,-56.5 483.5,-56.5"/>
<text text-anchor="middle" x="507.5" y="-63.5" font-family="Helvetica,sans-Serif" font-size="10.00">limits.h</text>
</a>
</g>
</g>
<!-- Node9&#45;&gt;Node12 -->
<g id="edge13" class="edge"><title>Node9&#45;&gt;Node12</title>
<path fill="none" stroke="midnightblue" d="M534.216,-112.083C529.789,-104.613 523.337,-93.7244 517.882,-84.5199"/>
<polygon fill="midnightblue" stroke="midnightblue" points="520.795,-82.5697 512.686,-75.7511 514.773,-86.1383 520.795,-82.5697"/>
</g>
<!-- Node13 -->
<g id="node13" class="node"><title>Node13</title>
<g id="a_node13"><a xlink:title=" ">
<polygon fill="white" stroke="#bfbfbf" points="695.5,-56.5 695.5,-75.5 747.5,-75.5 747.5,-56.5 695.5,-56.5"/>
<text text-anchor="middle" x="721.5" y="-63.5" font-family="Helvetica,sans-Serif" font-size="10.00">stddef.h</text>
</a>
</g>
</g>
<!-- Node9&#45;&gt;Node13 -->
<g id="edge14" class="edge"><title>Node9&#45;&gt;Node13</title>
<path fill="none" stroke="midnightblue" d="M568.338,-112.444C600.177,-102.997 651.461,-87.7807 685.809,-77.5897"/>
<polygon fill="midnightblue" stroke="midnightblue" points="686.859,-80.929 695.45,-74.729 684.868,-74.2182 686.859,-80.929"/>
</g>
<!-- Node14 -->
<g id="node14" class="node"><title>Node14</title>
<g id="a_node14"><a xlink:title=" ">
<polygon fill="white" stroke="#bfbfbf" points="992,-56.5 992,-75.5 1041,-75.5 1041,-56.5 992,-56.5"/>
<text text-anchor="middle" x="1016.5" y="-63.5" font-family="Helvetica,sans-Serif" font-size="10.00">stdint.h</text>
</a>
</g>
</g>
<!-- Node9&#45;&gt;Node14 -->
<g id="edge15" class="edge"><title>Node9&#45;&gt;Node14</title>
<path fill="none" stroke="midnightblue" d="M575.353,-116.941C664.358,-106.865 894.529,-80.808 982.041,-70.901"/>
<polygon fill="midnightblue" stroke="midnightblue" points="982.444,-74.3778 991.987,-69.7751 981.657,-67.4222 982.444,-74.3778"/>
</g>
<!-- Node10&#45;&gt;Node8 -->
<g id="edge10" class="edge"><title>Node10&#45;&gt;Node8</title>
<path fill="none" stroke="midnightblue" d="M587.831,-56.4435C560.577,-47.3591 517.316,-32.9388 486.849,-22.7831"/>
<polygon fill="midnightblue" stroke="midnightblue" points="487.643,-19.3584 477.049,-19.5164 485.429,-25.9992 487.643,-19.3584"/>
</g>
<!-- Node11&#45;&gt;Node6 -->
<g id="edge12" class="edge"><title>Node11&#45;&gt;Node6</title>
<path fill="none" stroke="midnightblue" d="M353.63,-56.4435C309.303,-46.4283 236.272,-29.9277 191.475,-19.8061"/>
<polygon fill="midnightblue" stroke="midnightblue" points="192.073,-16.353 181.548,-17.5631 190.53,-23.1809 192.073,-16.353"/>
</g>
<!-- Node17&#45;&gt;Node6 -->
<g id="edge21" class="edge"><title>Node17&#45;&gt;Node6</title>
<path fill="none" stroke="midnightblue" d="M190.904,-56.083C184.273,-48.2982 174.479,-36.8015 166.442,-27.3665"/>
<polygon fill="midnightblue" stroke="midnightblue" points="169.104,-25.0939 159.955,-19.7511 163.775,-29.6332 169.104,-25.0939"/>
</g>
<!-- Node17&#45;&gt;Node8 -->
<g id="edge22" class="edge"><title>Node17&#45;&gt;Node8</title>
<path fill="none" stroke="midnightblue" d="M238.589,-56.4435C282.816,-47.0036 354.039,-31.802 401.785,-21.6111"/>
<polygon fill="midnightblue" stroke="midnightblue" points="402.55,-25.0268 411.599,-19.5164 401.089,-18.181 402.55,-25.0268"/>
</g>
<!-- Node21 -->
<g id="node21" class="node"><title>Node21</title>
<g id="a_node21"><a xlink:href="../../db/df6/ChannelMessageMatcher_8hpp.html" target="_top" xlink:title=" ">
<polygon fill="white" stroke="black" points="785.5,-571.5 785.5,-590.5 931.5,-590.5 931.5,-571.5 785.5,-571.5"/>
<text text-anchor="middle" x="858.5" y="-578.5" font-family="Helvetica,sans-Serif" font-size="10.00">ChannelMessageMatcher.hpp</text>
</a>
</g>
</g>
<!-- Node20&#45;&gt;Node21 -->
<g id="edge26" class="edge"><title>Node20&#45;&gt;Node21</title>
<path fill="none" stroke="midnightblue" d="M858.5,-627.083C858.5,-620.006 858.5,-609.861 858.5,-600.986"/>
<polygon fill="midnightblue" stroke="midnightblue" points="862,-600.751 858.5,-590.751 855,-600.751 862,-600.751"/>
</g>
<!-- Node32 -->
<g id="node32" class="node"><title>Node32</title>
<g id="a_node32"><a xlink:href="../../d8/d38/MIDICNChannelAddress_8hpp.html" target="_top" xlink:title=" ">
<polygon fill="white" stroke="black" points="950,-571.5 950,-590.5 1113,-590.5 1113,-571.5 950,-571.5"/>
<text text-anchor="middle" x="1031.5" y="-578.5" font-family="Helvetica,sans-Serif" font-size="10.00">Def/MIDICNChannelAddress.hpp</text>
</a>
</g>
</g>
<!-- Node20&#45;&gt;Node32 -->
<g id="edge49" class="edge"><title>Node20&#45;&gt;Node32</title>
<path fill="none" stroke="midnightblue" d="M885.912,-627.444C915.269,-618.28 962.019,-603.688 994.596,-593.519"/>
<polygon fill="midnightblue" stroke="midnightblue" points="995.713,-596.837 1004.22,-590.516 993.627,-590.155 995.713,-596.837"/>
</g>
<!-- Node22 -->
<g id="node22" class="node"><title>Node22</title>
<g id="a_node22"><a xlink:href="../../d7/d2d/MIDI__Parser_8hpp.html" target="_top" xlink:title=" ">
<polygon fill="white" stroke="black" points="804,-515.5 804,-534.5 959,-534.5 959,-515.5 804,-515.5"/>
<text text-anchor="middle" x="881.5" y="-522.5" font-family="Helvetica,sans-Serif" font-size="10.00">MIDI_Parsers/MIDI_Parser.hpp</text>
</a>
</g>
</g>
<!-- Node21&#45;&gt;Node22 -->
<g id="edge27" class="edge"><title>Node21&#45;&gt;Node22</title>
<path fill="none" stroke="midnightblue" d="M862.298,-571.083C865.413,-563.77 869.923,-553.181 873.789,-544.103"/>
<polygon fill="midnightblue" stroke="midnightblue" points="877.074,-545.323 877.773,-534.751 870.634,-542.58 877.074,-545.323"/>
</g>
<!-- Node22&#45;&gt;Node13 -->
<g id="edge28" class="edge"><title>Node22&#45;&gt;Node13</title>
<path fill="none" stroke="midnightblue" d="M862.204,-515.48C848.071,-508.081 829.943,-495.887 821.5,-479 817.525,-471.05 819.881,-467.74 821.5,-459 840.782,-354.906 902.5,-340.865 902.5,-235 902.5,-235 902.5,-235 902.5,-177 902.5,-109.949 810.671,-82.6087 757.829,-72.4264"/>
<polygon fill="midnightblue" stroke="midnightblue" points="758.283,-68.9517 747.819,-70.612 757.034,-75.8395 758.283,-68.9517"/>
</g>
<!-- Node22&#45;&gt;Node14 -->
<g id="edge29" class="edge"><title>Node22&#45;&gt;Node14</title>
<path fill="none" stroke="midnightblue" d="M959.144,-517.054C1073.68,-504.631 1274.5,-473.57 1274.5,-408.5 1274.5,-408.5 1274.5,-408.5 1274.5,-177 1274.5,-81.1273 1121.88,-67.6596 1051.41,-66.5515"/>
<polygon fill="midnightblue" stroke="midnightblue" points="1051.27,-63.0503 1041.24,-66.4691 1051.21,-70.0501 1051.27,-63.0503"/>
</g>
<!-- Node22&#45;&gt;Node18 -->
<g id="edge30" class="edge"><title>Node22&#45;&gt;Node18</title>
<path fill="none" stroke="midnightblue" d="M837.133,-515.444C781.275,-504.671 686.511,-486.395 635.851,-476.625"/>
<polygon fill="midnightblue" stroke="midnightblue" points="636.222,-473.132 625.74,-474.675 634.897,-480.005 636.222,-473.132"/>
</g>
<!-- Node23 -->
<g id="node23" class="node"><title>Node23</title>
<g id="a_node23"><a xlink:href="../../d0/d4e/Def_8hpp.html" target="_top" xlink:title=" ">
<polygon fill="white" stroke="black" points="996.5,-459.5 996.5,-478.5 1066.5,-478.5 1066.5,-459.5 996.5,-459.5"/>
<text text-anchor="middle" x="1031.5" y="-466.5" font-family="Helvetica,sans-Serif" font-size="10.00">Def/Def.hpp</text>
</a>
</g>
</g>
<!-- Node22&#45;&gt;Node23 -->
<g id="edge31" class="edge"><title>Node22&#45;&gt;Node23</title>
<path fill="none" stroke="midnightblue" d="M905.268,-515.444C930.393,-506.399 970.211,-492.064 998.4,-481.916"/>
<polygon fill="midnightblue" stroke="midnightblue" points="999.62,-485.197 1007.84,-478.516 997.249,-478.611 999.62,-485.197"/>
</g>
<!-- Node31 -->
<g id="node31" class="node"><title>Node31</title>
<g id="a_node31"><a xlink:title=" ">
<polygon fill="white" stroke="#bfbfbf" points="831,-459.5 831,-478.5 978,-478.5 978,-459.5 831,-459.5"/>
<text text-anchor="middle" x="904.5" y="-466.5" font-family="Helvetica,sans-Serif" font-size="10.00">Settings/SettingsWrapper.hpp</text>
</a>
</g>
</g>
<!-- Node22&#45;&gt;Node31 -->
<g id="edge48" class="edge"><title>Node22&#45;&gt;Node31</title>
<path fill="none" stroke="midnightblue" d="M885.298,-515.083C888.413,-507.77 892.923,-497.181 896.789,-488.103"/>
<polygon fill="midnightblue" stroke="midnightblue" points="900.074,-489.323 900.773,-478.751 893.634,-486.58 900.074,-489.323"/>
</g>
<!-- Node23&#45;&gt;Node13 -->
<g id="edge46" class="edge"><title>Node23&#45;&gt;Node13</title>
<path fill="none" stroke="midnightblue" d="M996.055,-460.835C934.971,-448.476 815.933,-424.335 811.5,-423 671.547,-380.848 588.273,-421.149 506.5,-300 443.415,-206.538 618.984,-113.448 691.641,-79.9885"/>
<polygon fill="midnightblue" stroke="midnightblue" points="693.51,-82.9841 701.174,-75.6691 690.621,-76.608 693.51,-82.9841"/>
</g>
<!-- Node23&#45;&gt;Node14 -->
<g id="edge47" class="edge"><title>Node23&#45;&gt;Node14</title>
<path fill="none" stroke="midnightblue" d="M1030.22,-459.182C1026.59,-433.38 1016.5,-355.763 1016.5,-291 1016.5,-291 1016.5,-291 1016.5,-177 1016.5,-144.948 1016.5,-107.643 1016.5,-85.7489"/>
<polygon fill="midnightblue" stroke="midnightblue" points="1020,-85.5577 1016.5,-75.5578 1013,-85.5578 1020,-85.5577"/>
</g>
<!-- Node24 -->
<g id="node24" class="node"><title>Node24</title>
<g id="a_node24"><a xlink:href="../../d7/d42/Channel_8hpp.html" target="_top" xlink:title=" ">
<polygon fill="white" stroke="black" points="1091,-398 1091,-417 1162,-417 1162,-398 1091,-398"/>
<text text-anchor="middle" x="1126.5" y="-405" font-family="Helvetica,sans-Serif" font-size="10.00">Channel.hpp</text>
</a>
</g>
</g>
<!-- Node23&#45;&gt;Node24 -->
<g id="edge32" class="edge"><title>Node23&#45;&gt;Node24</title>
<path fill="none" stroke="midnightblue" d="M1045.11,-459.475C1060.56,-449.799 1085.99,-433.872 1104.32,-422.394"/>
<polygon fill="midnightblue" stroke="midnightblue" points="1106.3,-425.283 1112.91,-417.009 1102.58,-419.351 1106.3,-425.283"/>
</g>
<!-- Node25 -->
<g id="node25" class="node"><title>Node25</title>
<g id="a_node25"><a xlink:title=" ">
<polygon fill="white" stroke="#bfbfbf" points="1045,-336.5 1045,-355.5 1208,-355.5 1208,-336.5 1045,-336.5"/>
<text text-anchor="middle" x="1126.5" y="-343.5" font-family="Helvetica,sans-Serif" font-size="10.00">Settings/NamespaceSettings.hpp</text>
</a>
</g>
</g>
<!-- Node23&#45;&gt;Node25 -->
<g id="edge45" class="edge"><title>Node23&#45;&gt;Node25</title>
<path fill="none" stroke="midnightblue" d="M1036.51,-459.169C1044.96,-444.575 1062.94,-414.775 1081.5,-392 1089.94,-381.638 1100.45,-371.021 1109.19,-362.704"/>
<polygon fill="midnightblue" stroke="midnightblue" points="1111.69,-365.165 1116.61,-355.785 1106.91,-360.046 1111.69,-365.165"/>
</g>
<!-- Node26 -->
<g id="node26" class="node"><title>Node26</title>
<g id="a_node26"><a xlink:href="../../de/d76/Array_8hpp.html" target="_top" xlink:title=" ">
<polygon fill="white" stroke="black" points="702.5,-336.5 702.5,-355.5 828.5,-355.5 828.5,-336.5 702.5,-336.5"/>
<text text-anchor="middle" x="765.5" y="-343.5" font-family="Helvetica,sans-Serif" font-size="10.00">AH/Containers/Array.hpp</text>
</a>
</g>
</g>
<!-- Node23&#45;&gt;Node26 -->
<g id="edge35" class="edge"><title>Node23&#45;&gt;Node26</title>
<path fill="none" stroke="midnightblue" d="M996.498,-460.674C953.501,-451.359 883.33,-435.042 859.5,-423 828.476,-407.323 798.248,-380.117 780.772,-362.864"/>
<polygon fill="midnightblue" stroke="midnightblue" points="783.21,-360.351 773.684,-355.714 778.239,-365.28 783.21,-360.351"/>
</g>
<!-- Node30 -->
<g id="node30" class="node"><title>Node30</title>
<g id="a_node30"><a xlink:href="../../d4/d35/Hardware-Types_8hpp.html" target="_top" xlink:title=" ">
<polygon fill="white" stroke="black" points="869,-392.5 869,-422.5 990,-422.5 990,-392.5 869,-392.5"/>
<text text-anchor="start" x="877" y="-410.5" font-family="Helvetica,sans-Serif" font-size="10.00">AH/Hardware/Hardware</text>
<text text-anchor="middle" x="929.5" y="-399.5" font-family="Helvetica,sans-Serif" font-size="10.00">&#45;Types.hpp</text>
</a>
</g>
</g>
<!-- Node23&#45;&gt;Node30 -->
<g id="edge41" class="edge"><title>Node23&#45;&gt;Node30</title>
<path fill="none" stroke="midnightblue" d="M1016.89,-459.475C1002.68,-451.191 980.628,-438.325 962.228,-427.591"/>
<polygon fill="midnightblue" stroke="midnightblue" points="963.941,-424.539 953.539,-422.523 960.414,-430.585 963.941,-424.539"/>
</g>
<!-- Node24&#45;&gt;Node14 -->
<g id="edge33" class="edge"><title>Node24&#45;&gt;Node14</title>
<path fill="none" stroke="midnightblue" d="M1152.56,-397.978C1172.74,-390.105 1199.96,-376.496 1216.5,-356 1235.48,-332.478 1236.5,-321.225 1236.5,-291 1236.5,-291 1236.5,-291 1236.5,-177 1236.5,-95.256 1113.49,-74.2559 1051.43,-68.8626"/>
<polygon fill="midnightblue" stroke="midnightblue" points="1051.55,-65.3614 1041.31,-68.0746 1051.01,-72.3403 1051.55,-65.3614"/>
</g>
<!-- Node24&#45;&gt;Node25 -->
<g id="edge34" class="edge"><title>Node24&#45;&gt;Node25</title>
<path fill="none" stroke="midnightblue" d="M1126.5,-397.975C1126.5,-389.58 1126.5,-376.481 1126.5,-365.663"/>
<polygon fill="midnightblue" stroke="midnightblue" points="1130,-365.509 1126.5,-355.509 1123,-365.509 1130,-365.509"/>
</g>
<!-- Node26&#45;&gt;Node13 -->
<g id="edge40" class="edge"><title>Node26&#45;&gt;Node13</title>
<path fill="none" stroke="midnightblue" d="M724.592,-336.441C702.769,-329.895 677.074,-318.702 660.5,-300 640.538,-277.475 641.5,-265.098 641.5,-235 641.5,-235 641.5,-235 641.5,-177 641.5,-136.621 677.195,-101.106 700.898,-81.9729"/>
<polygon fill="midnightblue" stroke="midnightblue" points="703.245,-84.582 709,-75.6866 698.954,-79.0515 703.245,-84.582"/>
</g>
<!-- Node27 -->
<g id="node27" class="node"><title>Node27</title>
<g id="a_node27"><a xlink:href="../../d1/d93/Error_8hpp.html" target="_top" xlink:title=" ">
<polygon fill="white" stroke="black" points="515.5,-280.5 515.5,-299.5 613.5,-299.5 613.5,-280.5 515.5,-280.5"/>
<text text-anchor="middle" x="564.5" y="-287.5" font-family="Helvetica,sans-Serif" font-size="10.00">AH/Error/Error.hpp</text>
</a>
</g>
</g>
<!-- Node26&#45;&gt;Node27 -->
<g id="edge36" class="edge"><title>Node26&#45;&gt;Node27</title>
<path fill="none" stroke="midnightblue" d="M733.651,-336.444C699.102,-327.162 643.818,-312.309 605.917,-302.127"/>
<polygon fill="midnightblue" stroke="midnightblue" points="606.766,-298.731 596.2,-299.516 604.949,-305.491 606.766,-298.731"/>
</g>
<!-- Node28 -->
<g id="node28" class="node"><title>Node28</title>
<g id="a_node28"><a xlink:title=" ">
<polygon fill="white" stroke="#bfbfbf" points="670,-280.5 670,-299.5 771,-299.5 771,-280.5 670,-280.5"/>
<text text-anchor="middle" x="720.5" y="-287.5" font-family="Helvetica,sans-Serif" font-size="10.00">AH/STL/type_traits</text>
</a>
</g>
</g>
<!-- Node26&#45;&gt;Node28 -->
<g id="edge38" class="edge"><title>Node26&#45;&gt;Node28</title>
<path fill="none" stroke="midnightblue" d="M758.069,-336.083C751.647,-328.377 742.194,-317.033 734.378,-307.653"/>
<polygon fill="midnightblue" stroke="midnightblue" points="736.883,-305.193 727.793,-299.751 731.506,-309.674 736.883,-305.193"/>
</g>
<!-- Node29 -->
<g id="node29" class="node"><title>Node29</title>
<g id="a_node29"><a xlink:title=" ">
<polygon fill="white" stroke="#bfbfbf" points="789,-280.5 789,-299.5 874,-299.5 874,-280.5 789,-280.5"/>
<text text-anchor="middle" x="831.5" y="-287.5" font-family="Helvetica,sans-Serif" font-size="10.00">AH/STL/iterator</text>
</a>
</g>
</g>
<!-- Node26&#45;&gt;Node29 -->
<g id="edge39" class="edge"><title>Node26&#45;&gt;Node29</title>
<path fill="none" stroke="midnightblue" d="M776.104,-336.324C785.956,-328.263 800.851,-316.077 812.715,-306.369"/>
<polygon fill="midnightblue" stroke="midnightblue" points="815.18,-308.875 820.703,-299.834 810.747,-303.457 815.18,-308.875"/>
</g>
<!-- Node27&#45;&gt;Node4 -->
<g id="edge37" class="edge"><title>Node27&#45;&gt;Node4</title>
<path fill="none" stroke="midnightblue" d="M527.422,-280.444C486.772,-271.063 421.468,-255.993 377.316,-245.804"/>
<polygon fill="midnightblue" stroke="midnightblue" points="377.935,-242.355 367.405,-243.516 376.361,-249.175 377.935,-242.355"/>
</g>
<!-- Node30&#45;&gt;Node8 -->
<g id="edge43" class="edge"><title>Node30&#45;&gt;Node8</title>
<path fill="none" stroke="midnightblue" d="M931.726,-392.316C934.94,-370.571 940.5,-327.66 940.5,-291 940.5,-291 940.5,-291 940.5,-121 940.5,-36.7222 660.535,-17.0049 524.278,-12.3993"/>
<polygon fill="midnightblue" stroke="midnightblue" points="524.035,-8.88991 513.929,-12.0693 523.812,-15.8863 524.035,-8.88991"/>
</g>
<!-- Node30&#45;&gt;Node14 -->
<g id="edge44" class="edge"><title>Node30&#45;&gt;Node14</title>
<path fill="none" stroke="midnightblue" d="M939.892,-392.372C954.275,-371.381 978.5,-330.208 978.5,-291 978.5,-291 978.5,-291 978.5,-177 978.5,-142.813 995.1,-105.764 1006.36,-84.5707"/>
<polygon fill="midnightblue" stroke="midnightblue" points="1009.45,-86.2151 1011.22,-75.769 1003.32,-82.832 1009.45,-86.2151"/>
</g>
<!-- Node30&#45;&gt;Node26 -->
<g id="edge42" class="edge"><title>Node30&#45;&gt;Node26</title>
<path fill="none" stroke="midnightblue" d="M890.634,-392.399C862.749,-382.283 825.561,-368.791 798.987,-359.149"/>
<polygon fill="midnightblue" stroke="midnightblue" points="799.958,-355.778 789.363,-355.658 797.57,-362.359 799.958,-355.778"/>
</g>
<!-- Node32&#45;&gt;Node23 -->
<g id="edge50" class="edge"><title>Node32&#45;&gt;Node23</title>
<path fill="none" stroke="midnightblue" d="M1031.5,-571.368C1031.5,-553.617 1031.5,-512.666 1031.5,-488.597"/>
<polygon fill="midnightblue" stroke="midnightblue" points="1035,-488.591 1031.5,-478.591 1028,-488.591 1035,-488.591"/>
</g>
</g>
</svg>
