<?xml version="1.0" encoding="UTF-8" standalone="no"?>
<!DOCTYPE svg PUBLIC "-//W3C//DTD SVG 1.1//EN"
 "http://www.w3.org/Graphics/SVG/1.1/DTD/svg11.dtd">
<!-- Generated by graphviz version 2.43.0 (0)
 -->
<!-- Title: BankDisplay Pages: 1 -->
<svg width="478pt" height="1033pt"
 viewBox="0.00 0.00 477.50 1033.00" xmlns="http://www.w3.org/2000/svg" xmlns:xlink="http://www.w3.org/1999/xlink">
<g id="graph0" class="graph" transform="scale(1 1) rotate(0) translate(4 1029)">
<title>BankDisplay</title>
<!-- Node1 -->
<g id="Node000001" class="node">
<title>Node1</title>
<g id="a_Node000001"><a xlink:title="A class for displaying the setting of a Bank object.">
<polygon fill="#999999" stroke="transparent" points="455,-189.5 364,-189.5 364,-35.5 455,-35.5 455,-189.5"/>
<text text-anchor="start" x="379" y="-177.5" font-family="Helvetica,sans-Serif" font-size="10.00">BankDisplay</text>
<text text-anchor="start" x="371" y="-162.5" font-family="Helvetica,sans-Serif" font-size="10.00">&#45;</text>
<text text-anchor="start" x="381.5" y="-162.5" font-family="Helvetica,sans-Serif" font-size="10.00">previous</text>
<text text-anchor="start" x="371" y="-147.5" font-family="Helvetica,sans-Serif" font-size="10.00">&#45;</text>
<text text-anchor="start" x="381.5" y="-147.5" font-family="Helvetica,sans-Serif" font-size="10.00">offset</text>
<text text-anchor="start" x="371" y="-132.5" font-family="Helvetica,sans-Serif" font-size="10.00">&#45;</text>
<text text-anchor="start" x="381.5" y="-132.5" font-family="Helvetica,sans-Serif" font-size="10.00">x</text>
<text text-anchor="start" x="371" y="-117.5" font-family="Helvetica,sans-Serif" font-size="10.00">&#45;</text>
<text text-anchor="start" x="381.5" y="-117.5" font-family="Helvetica,sans-Serif" font-size="10.00">y</text>
<text text-anchor="start" x="371" y="-102.5" font-family="Helvetica,sans-Serif" font-size="10.00">&#45;</text>
<text text-anchor="start" x="381.5" y="-102.5" font-family="Helvetica,sans-Serif" font-size="10.00">size</text>
<text text-anchor="start" x="371" y="-87.5" font-family="Helvetica,sans-Serif" font-size="10.00">&#45;</text>
<text text-anchor="start" x="381.5" y="-87.5" font-family="Helvetica,sans-Serif" font-size="10.00">color</text>
<text text-anchor="start" x="368.5" y="-72.5" font-family="Helvetica,sans-Serif" font-size="10.00">+</text>
<text text-anchor="start" x="381.5" y="-72.5" font-family="Helvetica,sans-Serif" font-size="10.00">BankDisplay()</text>
<text text-anchor="start" x="368.5" y="-57.5" font-family="Helvetica,sans-Serif" font-size="10.00">+</text>
<text text-anchor="start" x="381.5" y="-57.5" font-family="Helvetica,sans-Serif" font-size="10.00">draw()</text>
<text text-anchor="start" x="368.5" y="-42.5" font-family="Helvetica,sans-Serif" font-size="10.00">+</text>
<text text-anchor="start" x="381.5" y="-42.5" font-family="Helvetica,sans-Serif" font-size="10.00">getDirty()</text>
<polygon fill="#666666" stroke="#666666" points="364.5,-172.5 364.5,-172.5 455.5,-172.5 455.5,-172.5 364.5,-172.5"/>
<polygon fill="#666666" stroke="#666666" points="364.5,-82.5 364.5,-82.5 379.5,-82.5 379.5,-82.5 364.5,-82.5"/>
<polygon fill="#666666" stroke="#666666" points="379.5,-82.5 379.5,-82.5 455.5,-82.5 455.5,-82.5 379.5,-82.5"/>
<polygon fill="none" stroke="#666666" points="364,-35.5 364,-189.5 455,-189.5 455,-35.5 364,-35.5"/>
</a>
</g>
</g>
<!-- Node2 -->
<g id="Node000002" class="node">
<title>Node2</title>
<g id="a_Node000002"><a xlink:href="../../d8/d43/classDisplayElement.html" target="_top" xlink:title="An interface for elements that draw to a display.">
<polygon fill="white" stroke="transparent" points="280,-567 165,-567 165,-293 280,-293 280,-567"/>
<text text-anchor="start" x="184" y="-555" font-family="Helvetica,sans-Serif" font-size="10.00">DisplayElement</text>
<text text-anchor="start" x="221" y="-540" font-family="Helvetica,sans-Serif" font-size="10.00"> </text>
<text text-anchor="start" x="169.5" y="-525" font-family="Helvetica,sans-Serif" font-size="10.00">+</text>
<text text-anchor="start" x="182.5" y="-525" font-family="Helvetica,sans-Serif" font-size="10.00">~DisplayElement()</text>
<text text-anchor="start" x="169.5" y="-510" font-family="Helvetica,sans-Serif" font-size="10.00">+</text>
<text text-anchor="start" x="182.5" y="-510" font-family="Helvetica,sans-Serif" font-size="10.00">draw()</text>
<text text-anchor="start" x="169.5" y="-495" font-family="Helvetica,sans-Serif" font-size="10.00">+</text>
<text text-anchor="start" x="182.5" y="-495" font-family="Helvetica,sans-Serif" font-size="10.00">getDirty()</text>
<text text-anchor="start" x="169.5" y="-480" font-family="Helvetica,sans-Serif" font-size="10.00">+</text>
<text text-anchor="start" x="182.5" y="-480" font-family="Helvetica,sans-Serif" font-size="10.00">getDisplay()</text>
<text text-anchor="start" x="169.5" y="-465" font-family="Helvetica,sans-Serif" font-size="10.00">+</text>
<text text-anchor="start" x="182.5" y="-465" font-family="Helvetica,sans-Serif" font-size="10.00">getDisplay()</text>
<text text-anchor="start" x="169.5" y="-450" font-family="Helvetica,sans-Serif" font-size="10.00">+</text>
<text text-anchor="start" x="182.5" y="-450" font-family="Helvetica,sans-Serif" font-size="10.00">getAll()</text>
<text text-anchor="start" x="169.5" y="-435" font-family="Helvetica,sans-Serif" font-size="10.00">#</text>
<text text-anchor="start" x="182.5" y="-435" font-family="Helvetica,sans-Serif" font-size="10.00">DisplayElement()</text>
<text text-anchor="start" x="171" y="-420" font-family="Helvetica,sans-Serif" font-size="10.00">*</text>
<text text-anchor="start" x="182.5" y="-420" font-family="Helvetica,sans-Serif" font-size="10.00">enable()</text>
<text text-anchor="start" x="171" y="-405" font-family="Helvetica,sans-Serif" font-size="10.00">*</text>
<text text-anchor="start" x="182.5" y="-405" font-family="Helvetica,sans-Serif" font-size="10.00">disable()</text>
<text text-anchor="start" x="171" y="-390" font-family="Helvetica,sans-Serif" font-size="10.00">*</text>
<text text-anchor="start" x="182.5" y="-390" font-family="Helvetica,sans-Serif" font-size="10.00">isEnabled()</text>
<text text-anchor="start" x="171" y="-375" font-family="Helvetica,sans-Serif" font-size="10.00">*</text>
<text text-anchor="start" x="182.5" y="-375" font-family="Helvetica,sans-Serif" font-size="10.00">enable()</text>
<text text-anchor="start" x="171" y="-360" font-family="Helvetica,sans-Serif" font-size="10.00">*</text>
<text text-anchor="start" x="182.5" y="-360" font-family="Helvetica,sans-Serif" font-size="10.00">enable()</text>
<text text-anchor="start" x="171" y="-345" font-family="Helvetica,sans-Serif" font-size="10.00">*</text>
<text text-anchor="start" x="182.5" y="-345" font-family="Helvetica,sans-Serif" font-size="10.00">enable()</text>
<text text-anchor="start" x="171" y="-330" font-family="Helvetica,sans-Serif" font-size="10.00">*</text>
<text text-anchor="start" x="182.5" y="-330" font-family="Helvetica,sans-Serif" font-size="10.00">disable()</text>
<text text-anchor="start" x="171" y="-315" font-family="Helvetica,sans-Serif" font-size="10.00">*</text>
<text text-anchor="start" x="182.5" y="-315" font-family="Helvetica,sans-Serif" font-size="10.00">disable()</text>
<text text-anchor="start" x="171" y="-300" font-family="Helvetica,sans-Serif" font-size="10.00">*</text>
<text text-anchor="start" x="182.5" y="-300" font-family="Helvetica,sans-Serif" font-size="10.00">disable()</text>
<polygon fill="#666666" stroke="#666666" points="165.5,-550 165.5,-550 280.5,-550 280.5,-550 165.5,-550"/>
<polygon fill="#666666" stroke="#666666" points="165.5,-535 165.5,-535 280.5,-535 280.5,-535 165.5,-535"/>
<polygon fill="none" stroke="#666666" points="165,-293 165,-567 280,-567 280,-293 165,-293"/>
</a>
</g>
</g>
<!-- Node2&#45;&gt;Node1 -->
<g id="edge1_Node000001_Node000002" class="edge">
<title>Node2&#45;&gt;Node1</title>
<g id="a_edge1_Node000001_Node000002"><a xlink:title=" ">
<path fill="none" stroke="#63b8ff" d="M285.77,-336.43C308.4,-302 333.48,-262.25 354.5,-225 360.86,-213.72 367.27,-201.6 373.34,-189.66"/>
<polygon fill="none" stroke="#63b8ff" points="282.66,-334.78 280.08,-345.06 288.51,-338.64 282.66,-334.78"/>
</a>
</g>
</g>
<!-- Node3 -->
<g id="Node000003" class="node">
<title>Node3</title>
<g id="a_Node000003"><a xlink:href="../../d4/d23/classDoublyLinkable.html" target="_top" xlink:title=" ">
<polygon fill="white" stroke="transparent" points="185,-152 0,-152 0,-73 185,-73 185,-152"/>
<text text-anchor="start" x="5.5" y="-139.5" font-family="Helvetica,sans-Serif" font-size="10.00">DoublyLinkable&lt; DisplayElement &gt;</text>
<text text-anchor="start" x="91" y="-124.5" font-family="Helvetica,sans-Serif" font-size="10.00"> </text>
<text text-anchor="start" x="22.5" y="-109.5" font-family="Helvetica,sans-Serif" font-size="10.00">#</text>
<text text-anchor="start" x="53.5" y="-109.5" font-family="Helvetica,sans-Serif" font-size="10.00">~DoublyLinkable()</text>
<text text-anchor="start" x="22.5" y="-94.5" font-family="Helvetica,sans-Serif" font-size="10.00">#</text>
<text text-anchor="start" x="53.5" y="-94.5" font-family="Helvetica,sans-Serif" font-size="10.00">DoublyLinkable()</text>
<text text-anchor="start" x="22.5" y="-79.5" font-family="Helvetica,sans-Serif" font-size="10.00">#</text>
<text text-anchor="start" x="53.5" y="-79.5" font-family="Helvetica,sans-Serif" font-size="10.00">operator=()</text>
<polygon fill="#666666" stroke="#666666" points="0.5,-134.5 0.5,-134.5 185.5,-134.5 185.5,-134.5 0.5,-134.5"/>
<polygon fill="#666666" stroke="#666666" points="0.5,-119.5 0.5,-119.5 185.5,-119.5 185.5,-119.5 0.5,-119.5"/>
<polygon fill="none" stroke="#666666" points="0,-73 0,-152 185,-152 185,-73 0,-73"/>
</a>
</g>
</g>
<!-- Node2&#45;&gt;Node3 -->
<g id="edge3_Node000003_Node000002" class="edge">
<title>Node2&#45;&gt;Node3</title>
<g id="a_edge3_Node000003_Node000002"><a xlink:title=" ">
<path fill="none" stroke="#63b8ff" d="M164.88,-374.55C139.99,-347.27 113.43,-312.17 99.5,-275 86.22,-239.58 84.99,-196.69 86.79,-164.01"/>
<polygon fill="none" stroke="#63b8ff" points="86.79,-164 83.21,-157.74 87.61,-152.03 91.19,-158.29 86.79,-164"/>
</a>
</g>
<text text-anchor="start" x="103" y="-264" font-family="Helvetica,sans-Serif" font-size="10.00" fill="grey">#next</text>
<text text-anchor="start" x="103" y="-249" font-family="Helvetica,sans-Serif" font-size="10.00" fill="grey">#previous</text>
</g>
<!-- Node6 -->
<g id="Node000006" class="node">
<title>Node6</title>
<g id="a_Node000006"><a xlink:href="../../dd/d16/classDoublyLinkedList.html" target="_top" xlink:title=" ">
<polygon fill="white" stroke="transparent" points="345.5,-225 203.5,-225 203.5,0 345.5,0 345.5,-225"/>
<text text-anchor="start" x="208.5" y="-212.5" font-family="Helvetica,sans-Serif" font-size="10.00">DoublyLinkedList&lt; Display</text>
<text text-anchor="start" x="248.5" y="-201.5" font-family="Helvetica,sans-Serif" font-size="10.00">Element &gt;</text>
<text text-anchor="start" x="272.5" y="-186.5" font-family="Helvetica,sans-Serif" font-size="10.00"> </text>
<text text-anchor="start" x="219.5" y="-171.5" font-family="Helvetica,sans-Serif" font-size="10.00">+</text>
<text text-anchor="start" x="244.5" y="-171.5" font-family="Helvetica,sans-Serif" font-size="10.00">append()</text>
<text text-anchor="start" x="219.5" y="-156.5" font-family="Helvetica,sans-Serif" font-size="10.00">+</text>
<text text-anchor="start" x="244.5" y="-156.5" font-family="Helvetica,sans-Serif" font-size="10.00">insertBefore()</text>
<text text-anchor="start" x="219.5" y="-141.5" font-family="Helvetica,sans-Serif" font-size="10.00">+</text>
<text text-anchor="start" x="244.5" y="-141.5" font-family="Helvetica,sans-Serif" font-size="10.00">insertSorted()</text>
<text text-anchor="start" x="219.5" y="-126.5" font-family="Helvetica,sans-Serif" font-size="10.00">+</text>
<text text-anchor="start" x="244.5" y="-126.5" font-family="Helvetica,sans-Serif" font-size="10.00">remove()</text>
<text text-anchor="start" x="219.5" y="-111.5" font-family="Helvetica,sans-Serif" font-size="10.00">+</text>
<text text-anchor="start" x="244.5" y="-111.5" font-family="Helvetica,sans-Serif" font-size="10.00">moveDown()</text>
<text text-anchor="start" x="219.5" y="-96.5" font-family="Helvetica,sans-Serif" font-size="10.00">+</text>
<text text-anchor="start" x="244.5" y="-96.5" font-family="Helvetica,sans-Serif" font-size="10.00">couldContain()</text>
<text text-anchor="start" x="219.5" y="-81.5" font-family="Helvetica,sans-Serif" font-size="10.00">+</text>
<text text-anchor="start" x="244.5" y="-81.5" font-family="Helvetica,sans-Serif" font-size="10.00">begin()</text>
<text text-anchor="start" x="219.5" y="-66.5" font-family="Helvetica,sans-Serif" font-size="10.00">+</text>
<text text-anchor="start" x="244.5" y="-66.5" font-family="Helvetica,sans-Serif" font-size="10.00">end()</text>
<text text-anchor="start" x="219.5" y="-51.5" font-family="Helvetica,sans-Serif" font-size="10.00">+</text>
<text text-anchor="start" x="244.5" y="-51.5" font-family="Helvetica,sans-Serif" font-size="10.00">rbegin()</text>
<text text-anchor="start" x="219.5" y="-36.5" font-family="Helvetica,sans-Serif" font-size="10.00">+</text>
<text text-anchor="start" x="244.5" y="-36.5" font-family="Helvetica,sans-Serif" font-size="10.00">rend()</text>
<text text-anchor="start" x="219.5" y="-21.5" font-family="Helvetica,sans-Serif" font-size="10.00">+</text>
<text text-anchor="start" x="244.5" y="-21.5" font-family="Helvetica,sans-Serif" font-size="10.00">getFirst()</text>
<text text-anchor="start" x="219.5" y="-6.5" font-family="Helvetica,sans-Serif" font-size="10.00">+</text>
<text text-anchor="start" x="244.5" y="-6.5" font-family="Helvetica,sans-Serif" font-size="10.00">getLast()</text>
<polygon fill="#666666" stroke="#666666" points="203.5,-196.5 203.5,-196.5 345.5,-196.5 345.5,-196.5 203.5,-196.5"/>
<polygon fill="#666666" stroke="#666666" points="203.5,-181.5 203.5,-181.5 345.5,-181.5 345.5,-181.5 203.5,-181.5"/>
<polygon fill="none" stroke="#666666" points="203.5,0 203.5,-225 345.5,-225 345.5,0 203.5,0"/>
</a>
</g>
</g>
<!-- Node2&#45;&gt;Node6 -->
<g id="edge7_Node000006_Node000002" class="edge">
<title>Node2&#45;&gt;Node6</title>
<g id="a_edge7_Node000006_Node000002"><a xlink:title=" ">
<path fill="none" stroke="#63b8ff" d="M213.52,-292.75C214.39,-275.9 216.25,-258.98 219.5,-243 219.91,-240.98 220.35,-238.96 220.83,-236.93"/>
<polygon fill="none" stroke="#63b8ff" points="220.83,-236.9 218.47,-230.09 223.84,-225.28 226.21,-232.09 220.83,-236.9"/>
</a>
</g>
<text text-anchor="start" x="223" y="-264" font-family="Helvetica,sans-Serif" font-size="10.00" fill="grey">&#45;first</text>
<text text-anchor="start" x="223" y="-249" font-family="Helvetica,sans-Serif" font-size="10.00" fill="grey">&#45;last</text>
</g>
<!-- Node3&#45;&gt;Node2 -->
<g id="edge2_Node000002_Node000003" class="edge">
<title>Node3&#45;&gt;Node2</title>
<g id="a_edge2_Node000002_Node000003"><a xlink:title=" ">
<path fill="none" stroke="#63b8ff" d="M119.82,-161.02C133.06,-185.13 148.63,-215.14 160.5,-243 167.3,-258.97 173.85,-275.96 179.99,-292.93"/>
<polygon fill="none" stroke="#63b8ff" points="122.78,-159.14 114.87,-152.09 116.65,-162.53 122.78,-159.14"/>
</a>
</g>
</g>
<!-- Node4 -->
<g id="Node000004" class="node">
<title>Node4</title>
<g id="a_Node000004"><a xlink:href="../../df/d42/classDisplayInterface.html" target="_top" xlink:title="An interface for displays.">
<polygon fill="white" stroke="transparent" points="300,-939 145,-939 145,-620 300,-620 300,-939"/>
<text text-anchor="start" x="182.5" y="-926.5" font-family="Helvetica,sans-Serif" font-size="10.00">DisplayInterface</text>
<text text-anchor="start" x="221" y="-911.5" font-family="Helvetica,sans-Serif" font-size="10.00"> </text>
<text text-anchor="start" x="149.5" y="-896.5" font-family="Helvetica,sans-Serif" font-size="10.00">+</text>
<text text-anchor="start" x="162.5" y="-896.5" font-family="Helvetica,sans-Serif" font-size="10.00">~DisplayInterface()</text>
<text text-anchor="start" x="149.5" y="-881.5" font-family="Helvetica,sans-Serif" font-size="10.00">+</text>
<text text-anchor="start" x="162.5" y="-881.5" font-family="Helvetica,sans-Serif" font-size="10.00">begin()</text>
<text text-anchor="start" x="149.5" y="-866.5" font-family="Helvetica,sans-Serif" font-size="10.00">+</text>
<text text-anchor="start" x="162.5" y="-866.5" font-family="Helvetica,sans-Serif" font-size="10.00">clear()</text>
<text text-anchor="start" x="149.5" y="-851.5" font-family="Helvetica,sans-Serif" font-size="10.00">+</text>
<text text-anchor="start" x="162.5" y="-851.5" font-family="Helvetica,sans-Serif" font-size="10.00">drawBackground()</text>
<text text-anchor="start" x="149.5" y="-836.5" font-family="Helvetica,sans-Serif" font-size="10.00">+</text>
<text text-anchor="start" x="162.5" y="-836.5" font-family="Helvetica,sans-Serif" font-size="10.00">display()</text>
<text text-anchor="start" x="149.5" y="-821.5" font-family="Helvetica,sans-Serif" font-size="10.00">+</text>
<text text-anchor="start" x="162.5" y="-821.5" font-family="Helvetica,sans-Serif" font-size="10.00">drawPixel()</text>
<text text-anchor="start" x="149.5" y="-806.5" font-family="Helvetica,sans-Serif" font-size="10.00">+</text>
<text text-anchor="start" x="162.5" y="-806.5" font-family="Helvetica,sans-Serif" font-size="10.00">setTextColor()</text>
<text text-anchor="start" x="149.5" y="-791.5" font-family="Helvetica,sans-Serif" font-size="10.00">+</text>
<text text-anchor="start" x="162.5" y="-791.5" font-family="Helvetica,sans-Serif" font-size="10.00">setTextSize()</text>
<text text-anchor="start" x="149.5" y="-776.5" font-family="Helvetica,sans-Serif" font-size="10.00">+</text>
<text text-anchor="start" x="162.5" y="-776.5" font-family="Helvetica,sans-Serif" font-size="10.00">setCursor()</text>
<text text-anchor="start" x="149.5" y="-761.5" font-family="Helvetica,sans-Serif" font-size="10.00">+</text>
<text text-anchor="start" x="162.5" y="-761.5" font-family="Helvetica,sans-Serif" font-size="10.00">write()</text>
<text text-anchor="start" x="149.5" y="-746.5" font-family="Helvetica,sans-Serif" font-size="10.00">+</text>
<text text-anchor="start" x="162.5" y="-746.5" font-family="Helvetica,sans-Serif" font-size="10.00">drawLine()</text>
<text text-anchor="start" x="149.5" y="-731.5" font-family="Helvetica,sans-Serif" font-size="10.00">+</text>
<text text-anchor="start" x="162.5" y="-731.5" font-family="Helvetica,sans-Serif" font-size="10.00">drawFastVLine()</text>
<text text-anchor="start" x="149.5" y="-716.5" font-family="Helvetica,sans-Serif" font-size="10.00">+</text>
<text text-anchor="start" x="162.5" y="-716.5" font-family="Helvetica,sans-Serif" font-size="10.00">drawFastHLine()</text>
<text text-anchor="start" x="149.5" y="-701.5" font-family="Helvetica,sans-Serif" font-size="10.00">+</text>
<text text-anchor="start" x="162.5" y="-701.5" font-family="Helvetica,sans-Serif" font-size="10.00">drawXBitmap()</text>
<text text-anchor="start" x="149.5" y="-686.5" font-family="Helvetica,sans-Serif" font-size="10.00">+</text>
<text text-anchor="start" x="162.5" y="-686.5" font-family="Helvetica,sans-Serif" font-size="10.00">fillRect()</text>
<text text-anchor="start" x="149.5" y="-671.5" font-family="Helvetica,sans-Serif" font-size="10.00">+</text>
<text text-anchor="start" x="162.5" y="-671.5" font-family="Helvetica,sans-Serif" font-size="10.00">drawCircle()</text>
<text text-anchor="start" x="149.5" y="-656.5" font-family="Helvetica,sans-Serif" font-size="10.00">+</text>
<text text-anchor="start" x="162.5" y="-656.5" font-family="Helvetica,sans-Serif" font-size="10.00">fillCircle()</text>
<text text-anchor="start" x="149.5" y="-641.5" font-family="Helvetica,sans-Serif" font-size="10.00">+</text>
<text text-anchor="start" x="162.5" y="-641.5" font-family="Helvetica,sans-Serif" font-size="10.00">clearAndDrawBackground()</text>
<text text-anchor="start" x="149.5" y="-626.5" font-family="Helvetica,sans-Serif" font-size="10.00">#</text>
<text text-anchor="start" x="162.5" y="-626.5" font-family="Helvetica,sans-Serif" font-size="10.00">DisplayInterface()</text>
<polygon fill="#666666" stroke="#666666" points="145.5,-921.5 145.5,-921.5 300.5,-921.5 300.5,-921.5 145.5,-921.5"/>
<polygon fill="#666666" stroke="#666666" points="145.5,-906.5 145.5,-906.5 300.5,-906.5 300.5,-906.5 145.5,-906.5"/>
<polygon fill="none" stroke="#666666" points="145,-620 145,-939 300,-939 300,-620 145,-620"/>
</a>
</g>
</g>
<!-- Node4&#45;&gt;Node2 -->
<g id="edge4_Node000002_Node000004" class="edge">
<title>Node4&#45;&gt;Node2</title>
<g id="a_edge4_Node000002_Node000004"><a xlink:title=" ">
<path fill="none" stroke="#63b8ff" d="M222.5,-619.75C222.5,-606.26 222.5,-592.65 222.5,-579.25"/>
<polygon fill="none" stroke="#63b8ff" points="222.5,-579.01 218.5,-573.01 222.5,-567.01 226.5,-573.01 222.5,-579.01"/>
</a>
</g>
<text text-anchor="start" x="225.5" y="-590.5" font-family="Helvetica,sans-Serif" font-size="10.00" fill="grey">#display</text>
</g>
<!-- Node5 -->
<g id="Node000005" class="node">
<title>Node5</title>
<g id="a_Node000005"><a xlink:title=" ">
<polygon fill="white" stroke="transparent" points="239,-1025 206,-1025 206,-976 239,-976 239,-1025"/>
<text text-anchor="start" x="211.5" y="-1012.5" font-family="Helvetica,sans-Serif" font-size="10.00">Print</text>
<text text-anchor="start" x="221" y="-997.5" font-family="Helvetica,sans-Serif" font-size="10.00"> </text>
<text text-anchor="start" x="221" y="-982.5" font-family="Helvetica,sans-Serif" font-size="10.00"> </text>
<polygon fill="#666666" stroke="#666666" points="206.5,-1007.5 206.5,-1007.5 239.5,-1007.5 239.5,-1007.5 206.5,-1007.5"/>
<polygon fill="#666666" stroke="#666666" points="206.5,-992.5 206.5,-992.5 239.5,-992.5 239.5,-992.5 206.5,-992.5"/>
<polygon fill="none" stroke="#666666" points="206,-976 206,-1025 239,-1025 239,-976 206,-976"/>
</a>
</g>
</g>
<!-- Node5&#45;&gt;Node4 -->
<g id="edge5_Node000004_Node000005" class="edge">
<title>Node5&#45;&gt;Node4</title>
<g id="a_edge5_Node000004_Node000005"><a xlink:title=" ">
<path fill="none" stroke="#63b8ff" d="M222.5,-965.59C222.5,-957.73 222.5,-948.85 222.5,-939.34"/>
<polygon fill="none" stroke="#63b8ff" points="219,-965.65 222.5,-975.65 226,-965.65 219,-965.65"/>
</a>
</g>
</g>
<!-- Node6&#45;&gt;Node2 -->
<g id="edge6_Node000002_Node000006" class="edge">
<title>Node6&#45;&gt;Node2</title>
<g id="a_edge6_Node000002_Node000006"><a xlink:title=" ">
<path fill="none" stroke="#63b8ff" d="M260.12,-225.26C257.73,-241.96 255.15,-258.95 252.5,-275 252.19,-276.9 251.87,-278.8 251.54,-280.72"/>
<polygon fill="none" stroke="#63b8ff" points="251.53,-280.79 254.46,-287.39 249.5,-292.62 246.57,-286.03 251.53,-280.79"/>
</a>
</g>
<text text-anchor="start" x="261" y="-256" font-family="Helvetica,sans-Serif" font-size="10.00" fill="grey">#elements</text>
</g>
<!-- Node7 -->
<g id="Node000007" class="node">
<title>Node7</title>
<g id="a_Node000007"><a xlink:href="../../d9/d36/classOutputBank.html" target="_top" xlink:title="A class for changing the address of BankableMIDIOutputs.">
<polygon fill="white" stroke="transparent" points="469.5,-514.5 349.5,-514.5 349.5,-345.5 469.5,-345.5 469.5,-514.5"/>
<text text-anchor="start" x="380.5" y="-502" font-family="Helvetica,sans-Serif" font-size="10.00">OutputBank</text>
<text text-anchor="start" x="356" y="-487" font-family="Helvetica,sans-Serif" font-size="10.00">&#45;</text>
<text text-anchor="start" x="366.5" y="-487" font-family="Helvetica,sans-Serif" font-size="10.00">tracksPerBank</text>
<text text-anchor="start" x="356" y="-472" font-family="Helvetica,sans-Serif" font-size="10.00">&#45;</text>
<text text-anchor="start" x="366.5" y="-472" font-family="Helvetica,sans-Serif" font-size="10.00">bankSetting</text>
<text text-anchor="start" x="356" y="-457" font-family="Helvetica,sans-Serif" font-size="10.00">&#45;</text>
<text text-anchor="start" x="366.5" y="-457" font-family="Helvetica,sans-Serif" font-size="10.00">selectionOffset</text>
<text text-anchor="start" x="353.5" y="-442" font-family="Helvetica,sans-Serif" font-size="10.00">+</text>
<text text-anchor="start" x="366.5" y="-442" font-family="Helvetica,sans-Serif" font-size="10.00">OutputBank()</text>
<text text-anchor="start" x="353.5" y="-427" font-family="Helvetica,sans-Serif" font-size="10.00">+</text>
<text text-anchor="start" x="366.5" y="-427" font-family="Helvetica,sans-Serif" font-size="10.00">select()</text>
<text text-anchor="start" x="353.5" y="-412" font-family="Helvetica,sans-Serif" font-size="10.00">+</text>
<text text-anchor="start" x="366.5" y="-412" font-family="Helvetica,sans-Serif" font-size="10.00">getSelection()</text>
<text text-anchor="start" x="353.5" y="-397" font-family="Helvetica,sans-Serif" font-size="10.00">+</text>
<text text-anchor="start" x="366.5" y="-397" font-family="Helvetica,sans-Serif" font-size="10.00">getSelectionOffset()</text>
<text text-anchor="start" x="353.5" y="-382" font-family="Helvetica,sans-Serif" font-size="10.00">+</text>
<text text-anchor="start" x="366.5" y="-382" font-family="Helvetica,sans-Serif" font-size="10.00">getTracksPerBank()</text>
<text text-anchor="start" x="353.5" y="-367" font-family="Helvetica,sans-Serif" font-size="10.00">+</text>
<text text-anchor="start" x="366.5" y="-367" font-family="Helvetica,sans-Serif" font-size="10.00">getOffsetOfSetting()</text>
<text text-anchor="start" x="353.5" y="-352" font-family="Helvetica,sans-Serif" font-size="10.00">+</text>
<text text-anchor="start" x="366.5" y="-352" font-family="Helvetica,sans-Serif" font-size="10.00">getOffset()</text>
<polygon fill="#666666" stroke="#666666" points="349.5,-497 349.5,-497 469.5,-497 469.5,-497 349.5,-497"/>
<polygon fill="#666666" stroke="#666666" points="349.5,-452 349.5,-452 364.5,-452 364.5,-452 349.5,-452"/>
<polygon fill="#666666" stroke="#666666" points="364.5,-452 364.5,-452 469.5,-452 469.5,-452 364.5,-452"/>
<polygon fill="none" stroke="#666666" points="349.5,-345.5 349.5,-514.5 469.5,-514.5 469.5,-345.5 349.5,-345.5"/>
</a>
</g>
</g>
<!-- Node7&#45;&gt;Node1 -->
<g id="edge8_Node000001_Node000007" class="edge">
<title>Node7&#45;&gt;Node1</title>
<g id="a_edge8_Node000001_Node000007"><a xlink:title=" ">
<path fill="none" stroke="#63b8ff" d="M409.5,-345.28C409.5,-300.97 409.5,-246.57 409.5,-201.62"/>
<polygon fill="none" stroke="#63b8ff" points="409.5,-201.5 405.5,-195.5 409.5,-189.5 413.5,-195.5 409.5,-201.5"/>
</a>
</g>
<text text-anchor="start" x="412.5" y="-256" font-family="Helvetica,sans-Serif" font-size="10.00" fill="grey">&#45;bank</text>
</g>
</g>
</svg>
