#define mute10_width 10
#define mute10_height 10
static unsigned char mute10_bits[] = {
   0x01, 0x00, 0x89, 0x00, 0xd9, 0x00, 0xa9, 0x00, 0x89, 0x00, 0x89, 0x00,
   0x89, 0x00, 0x89, 0x00, 0x01, 0x00, 0xff, 0x03 };
