#define record10_width 10
#define record10_height 10
static unsigned char record10_bits[] = {
   0x01, 0x00, 0x79, 0x00, 0x89, 0x00, 0x89, 0x00, 0x79, 0x00, 0x29, 0x00,
   0x49, 0x00, 0x89, 0x00, 0x01, 0x00, 0xff, 0x03 };
