#define solo10_width 10
#define solo10_height 10
static unsigned char solo10_bits[] = {
   0x01, 0x00, 0x71, 0x00, 0x89, 0x00, 0x09, 0x00, 0x71, 0x00, 0x81, 0x00,
   0x89, 0x00, 0x71, 0x00, 0x01, 0x00, 0xff, 0x03 };
