<?xml version="1.0" encoding="UTF-8" standalone="no"?>
<!DOCTYPE svg PUBLIC "-//W3C//DTD SVG 1.1//EN"
 "http://www.w3.org/Graphics/SVG/1.1/DTD/svg11.dtd">
<!-- Generated by graphviz version 2.43.0 (0)
 -->
<!-- Title: MIDIChordButton&lt; Sender &gt; Pages: 1 -->
<svg width="523pt" height="1365pt"
 viewBox="0.00 0.00 523.00 1365.00" xmlns="http://www.w3.org/2000/svg" xmlns:xlink="http://www.w3.org/1999/xlink">
<g id="graph0" class="graph" transform="scale(1 1) rotate(0) translate(4 1361)">
<title>MIDIChordButton&lt; Sender &gt;</title>
<!-- Node1 -->
<g id="Node000001" class="node">
<title>Node1</title>
<g id="a_Node000001"><a xlink:title="An abstract class for momentary push buttons that send multiple MIDI events.">
<polygon fill="#999999" stroke="transparent" points="370,-184 220,-184 220,0 370,0 370,-184"/>
<text text-anchor="start" x="225" y="-172" font-family="Helvetica,sans-Serif" font-size="10.00">MIDIChordButton&lt; Sender &gt;</text>
<text text-anchor="start" x="232" y="-157" font-family="Helvetica,sans-Serif" font-size="10.00">+</text>
<text text-anchor="start" x="253" y="-157" font-family="Helvetica,sans-Serif" font-size="10.00">sender</text>
<text text-anchor="start" x="234.5" y="-142" font-family="Helvetica,sans-Serif" font-size="10.00">&#45;</text>
<text text-anchor="start" x="253" y="-142" font-family="Helvetica,sans-Serif" font-size="10.00">chord</text>
<text text-anchor="start" x="234.5" y="-127" font-family="Helvetica,sans-Serif" font-size="10.00">&#45;</text>
<text text-anchor="start" x="253" y="-127" font-family="Helvetica,sans-Serif" font-size="10.00">newChord</text>
<text text-anchor="start" x="232" y="-112" font-family="Helvetica,sans-Serif" font-size="10.00">+</text>
<text text-anchor="start" x="253" y="-112" font-family="Helvetica,sans-Serif" font-size="10.00">MIDIChordButton()</text>
<text text-anchor="start" x="232" y="-97" font-family="Helvetica,sans-Serif" font-size="10.00">+</text>
<text text-anchor="start" x="253" y="-97" font-family="Helvetica,sans-Serif" font-size="10.00">begin()</text>
<text text-anchor="start" x="232" y="-82" font-family="Helvetica,sans-Serif" font-size="10.00">+</text>
<text text-anchor="start" x="253" y="-82" font-family="Helvetica,sans-Serif" font-size="10.00">update()</text>
<text text-anchor="start" x="232" y="-67" font-family="Helvetica,sans-Serif" font-size="10.00">+</text>
<text text-anchor="start" x="253" y="-67" font-family="Helvetica,sans-Serif" font-size="10.00">invert()</text>
<text text-anchor="start" x="232" y="-52" font-family="Helvetica,sans-Serif" font-size="10.00">+</text>
<text text-anchor="start" x="253" y="-52" font-family="Helvetica,sans-Serif" font-size="10.00">getButtonState()</text>
<text text-anchor="start" x="232" y="-37" font-family="Helvetica,sans-Serif" font-size="10.00">+</text>
<text text-anchor="start" x="253" y="-37" font-family="Helvetica,sans-Serif" font-size="10.00">setChord()</text>
<text text-anchor="start" x="232" y="-22" font-family="Helvetica,sans-Serif" font-size="10.00">+</text>
<text text-anchor="start" x="253" y="-22" font-family="Helvetica,sans-Serif" font-size="10.00">getAddress()</text>
<text text-anchor="start" x="232" y="-7" font-family="Helvetica,sans-Serif" font-size="10.00">+</text>
<text text-anchor="start" x="253" y="-7" font-family="Helvetica,sans-Serif" font-size="10.00">setAddressUnsafe()</text>
<polygon fill="#666666" stroke="#666666" points="220,-167 220,-167 370,-167 370,-167 220,-167"/>
<polygon fill="#666666" stroke="#666666" points="220,-122 220,-122 251,-122 251,-122 220,-122"/>
<polygon fill="#666666" stroke="#666666" points="251,-122 251,-122 370,-122 370,-122 251,-122"/>
<polygon fill="none" stroke="#666666" points="220,0 220,-184 370,-184 370,0 220,0"/>
</a>
</g>
</g>
<!-- Node2 -->
<g id="Node000002" class="node">
<title>Node2</title>
<g id="a_Node000002"><a xlink:href="../../d1/d55/classAH_1_1Updatable.html" target="_top" xlink:title="A super class for object that have to be updated regularly.">
<polygon fill="white" stroke="transparent" points="210.5,-467.5 103.5,-467.5 103.5,-373.5 210.5,-373.5 210.5,-467.5"/>
<text text-anchor="start" x="109" y="-455.5" font-family="Helvetica,sans-Serif" font-size="10.00">MIDIOutputElement</text>
<text text-anchor="start" x="155.5" y="-440.5" font-family="Helvetica,sans-Serif" font-size="10.00"> </text>
<text text-anchor="start" x="116.5" y="-425.5" font-family="Helvetica,sans-Serif" font-size="10.00">*</text>
<text text-anchor="start" x="135" y="-425.5" font-family="Helvetica,sans-Serif" font-size="10.00">begin()</text>
<text text-anchor="start" x="116.5" y="-410.5" font-family="Helvetica,sans-Serif" font-size="10.00">*</text>
<text text-anchor="start" x="135" y="-410.5" font-family="Helvetica,sans-Serif" font-size="10.00">update()</text>
<text text-anchor="start" x="116.5" y="-395.5" font-family="Helvetica,sans-Serif" font-size="10.00">*</text>
<text text-anchor="start" x="135" y="-395.5" font-family="Helvetica,sans-Serif" font-size="10.00">beginAll()</text>
<text text-anchor="start" x="116.5" y="-380.5" font-family="Helvetica,sans-Serif" font-size="10.00">*</text>
<text text-anchor="start" x="135" y="-380.5" font-family="Helvetica,sans-Serif" font-size="10.00">updateAll()</text>
<polygon fill="#666666" stroke="#666666" points="104,-450.5 104,-450.5 211,-450.5 211,-450.5 104,-450.5"/>
<polygon fill="#666666" stroke="#666666" points="104,-435.5 104,-435.5 211,-435.5 211,-435.5 104,-435.5"/>
<polygon fill="none" stroke="#666666" points="103.5,-373.5 103.5,-467.5 210.5,-467.5 210.5,-373.5 103.5,-373.5"/>
</a>
</g>
</g>
<!-- Node2&#45;&gt;Node1 -->
<g id="edge1_Node000001_Node000002" class="edge">
<title>Node2&#45;&gt;Node1</title>
<g id="a_edge1_Node000001_Node000002"><a xlink:title=" ">
<path fill="none" stroke="#63b8ff" d="M172.9,-363.47C184.37,-325.46 201.12,-274.43 220,-231 226.69,-215.62 234.49,-199.67 242.49,-184.3"/>
<polygon fill="none" stroke="#63b8ff" points="169.47,-362.75 169.96,-373.33 176.17,-364.76 169.47,-362.75"/>
</a>
</g>
</g>
<!-- Node3 -->
<g id="Node000003" class="node">
<title>Node3</title>
<g id="a_Node000003"><a xlink:href="../../d8/d1a/classAH_1_1UpdatableCRTP.html" target="_top" xlink:title="A super class for object that have to be updated regularly.">
<polygon fill="white" stroke="transparent" points="230,-931 84,-931 84,-657 230,-657 230,-931"/>
<text text-anchor="start" x="89" y="-919" font-family="Helvetica,sans-Serif" font-size="10.00">UpdatableCRTP&lt; Derived &gt;</text>
<text text-anchor="start" x="155" y="-904" font-family="Helvetica,sans-Serif" font-size="10.00"> </text>
<text text-anchor="start" x="96.5" y="-889" font-family="Helvetica,sans-Serif" font-size="10.00">+</text>
<text text-anchor="start" x="118" y="-889" font-family="Helvetica,sans-Serif" font-size="10.00">~UpdatableCRTP()</text>
<text text-anchor="start" x="96.5" y="-874" font-family="Helvetica,sans-Serif" font-size="10.00">#</text>
<text text-anchor="start" x="118" y="-874" font-family="Helvetica,sans-Serif" font-size="10.00">UpdatableCRTP()</text>
<text text-anchor="start" x="96.5" y="-859" font-family="Helvetica,sans-Serif" font-size="10.00">#</text>
<text text-anchor="start" x="118" y="-859" font-family="Helvetica,sans-Serif" font-size="10.00">UpdatableCRTP()</text>
<text text-anchor="start" x="96.5" y="-844" font-family="Helvetica,sans-Serif" font-size="10.00">#</text>
<text text-anchor="start" x="118" y="-844" font-family="Helvetica,sans-Serif" font-size="10.00">operator=()</text>
<text text-anchor="start" x="96.5" y="-829" font-family="Helvetica,sans-Serif" font-size="10.00">#</text>
<text text-anchor="start" x="118" y="-829" font-family="Helvetica,sans-Serif" font-size="10.00">UpdatableCRTP()</text>
<text text-anchor="start" x="96.5" y="-814" font-family="Helvetica,sans-Serif" font-size="10.00">#</text>
<text text-anchor="start" x="118" y="-814" font-family="Helvetica,sans-Serif" font-size="10.00">operator=()</text>
<text text-anchor="start" x="98" y="-799" font-family="Helvetica,sans-Serif" font-size="10.00">*</text>
<text text-anchor="start" x="118" y="-799" font-family="Helvetica,sans-Serif" font-size="10.00">enable()</text>
<text text-anchor="start" x="98" y="-784" font-family="Helvetica,sans-Serif" font-size="10.00">*</text>
<text text-anchor="start" x="118" y="-784" font-family="Helvetica,sans-Serif" font-size="10.00">disable()</text>
<text text-anchor="start" x="98" y="-769" font-family="Helvetica,sans-Serif" font-size="10.00">*</text>
<text text-anchor="start" x="118" y="-769" font-family="Helvetica,sans-Serif" font-size="10.00">isEnabled()</text>
<text text-anchor="start" x="98" y="-754" font-family="Helvetica,sans-Serif" font-size="10.00">*</text>
<text text-anchor="start" x="118" y="-754" font-family="Helvetica,sans-Serif" font-size="10.00">moveDown()</text>
<text text-anchor="start" x="98" y="-739" font-family="Helvetica,sans-Serif" font-size="10.00">*</text>
<text text-anchor="start" x="118" y="-739" font-family="Helvetica,sans-Serif" font-size="10.00">enable()</text>
<text text-anchor="start" x="98" y="-724" font-family="Helvetica,sans-Serif" font-size="10.00">*</text>
<text text-anchor="start" x="118" y="-724" font-family="Helvetica,sans-Serif" font-size="10.00">enable()</text>
<text text-anchor="start" x="98" y="-709" font-family="Helvetica,sans-Serif" font-size="10.00">*</text>
<text text-anchor="start" x="118" y="-709" font-family="Helvetica,sans-Serif" font-size="10.00">enable()</text>
<text text-anchor="start" x="98" y="-694" font-family="Helvetica,sans-Serif" font-size="10.00">*</text>
<text text-anchor="start" x="118" y="-694" font-family="Helvetica,sans-Serif" font-size="10.00">disable()</text>
<text text-anchor="start" x="98" y="-679" font-family="Helvetica,sans-Serif" font-size="10.00">*</text>
<text text-anchor="start" x="118" y="-679" font-family="Helvetica,sans-Serif" font-size="10.00">disable()</text>
<text text-anchor="start" x="98" y="-664" font-family="Helvetica,sans-Serif" font-size="10.00">*</text>
<text text-anchor="start" x="118" y="-664" font-family="Helvetica,sans-Serif" font-size="10.00">disable()</text>
<polygon fill="#666666" stroke="#666666" points="84,-914 84,-914 230,-914 230,-914 84,-914"/>
<polygon fill="#666666" stroke="#666666" points="84,-899 84,-899 230,-899 230,-899 84,-899"/>
<polygon fill="none" stroke="#666666" points="84,-657 84,-931 230,-931 230,-657 84,-657"/>
</a>
</g>
</g>
<!-- Node3&#45;&gt;Node2 -->
<g id="edge2_Node000002_Node000003" class="edge">
<title>Node3&#45;&gt;Node2</title>
<g id="a_edge2_Node000002_Node000003"><a xlink:title=" ">
<path fill="none" stroke="#63b8ff" d="M157,-646.58C157,-582.7 157,-512.31 157,-467.55"/>
<polygon fill="none" stroke="#63b8ff" points="153.5,-646.78 157,-656.78 160.5,-646.78 153.5,-646.78"/>
</a>
</g>
</g>
<!-- Node4 -->
<g id="Node000004" class="node">
<title>Node4</title>
<g id="a_Node000004"><a xlink:href="../../d4/d23/classDoublyLinkable.html" target="_top" xlink:title=" ">
<polygon fill="white" stroke="transparent" points="146,-1237 0,-1237 0,-1098 146,-1098 146,-1237"/>
<text text-anchor="start" x="5" y="-1224.5" font-family="Helvetica,sans-Serif" font-size="10.00">DoublyLinkable&lt; Derived &gt;</text>
<text text-anchor="start" x="12.5" y="-1209.5" font-family="Helvetica,sans-Serif" font-size="10.00">#</text>
<text text-anchor="start" x="34" y="-1209.5" font-family="Helvetica,sans-Serif" font-size="10.00">next</text>
<text text-anchor="start" x="12.5" y="-1194.5" font-family="Helvetica,sans-Serif" font-size="10.00">#</text>
<text text-anchor="start" x="34" y="-1194.5" font-family="Helvetica,sans-Serif" font-size="10.00">previous</text>
<text text-anchor="start" x="12.5" y="-1179.5" font-family="Helvetica,sans-Serif" font-size="10.00">#</text>
<text text-anchor="start" x="34" y="-1179.5" font-family="Helvetica,sans-Serif" font-size="10.00">~DoublyLinkable()</text>
<text text-anchor="start" x="12.5" y="-1164.5" font-family="Helvetica,sans-Serif" font-size="10.00">#</text>
<text text-anchor="start" x="34" y="-1164.5" font-family="Helvetica,sans-Serif" font-size="10.00">DoublyLinkable()</text>
<text text-anchor="start" x="12.5" y="-1149.5" font-family="Helvetica,sans-Serif" font-size="10.00">#</text>
<text text-anchor="start" x="34" y="-1149.5" font-family="Helvetica,sans-Serif" font-size="10.00">DoublyLinkable()</text>
<text text-anchor="start" x="12.5" y="-1134.5" font-family="Helvetica,sans-Serif" font-size="10.00">#</text>
<text text-anchor="start" x="34" y="-1134.5" font-family="Helvetica,sans-Serif" font-size="10.00">DoublyLinkable()</text>
<text text-anchor="start" x="12.5" y="-1119.5" font-family="Helvetica,sans-Serif" font-size="10.00">#</text>
<text text-anchor="start" x="34" y="-1119.5" font-family="Helvetica,sans-Serif" font-size="10.00">operator=()</text>
<text text-anchor="start" x="12.5" y="-1104.5" font-family="Helvetica,sans-Serif" font-size="10.00">#</text>
<text text-anchor="start" x="34" y="-1104.5" font-family="Helvetica,sans-Serif" font-size="10.00">operator=()</text>
<polygon fill="#666666" stroke="#666666" points="0,-1219.5 0,-1219.5 146,-1219.5 146,-1219.5 0,-1219.5"/>
<polygon fill="#666666" stroke="#666666" points="0,-1189.5 0,-1189.5 32,-1189.5 32,-1189.5 0,-1189.5"/>
<polygon fill="#666666" stroke="#666666" points="32,-1189.5 32,-1189.5 146,-1189.5 146,-1189.5 32,-1189.5"/>
<polygon fill="none" stroke="#666666" points="0,-1098 0,-1237 146,-1237 146,-1098 0,-1098"/>
</a>
</g>
</g>
<!-- Node4&#45;&gt;Node3 -->
<g id="edge3_Node000003_Node000004" class="edge">
<title>Node4&#45;&gt;Node3</title>
<g id="a_edge3_Node000003_Node000004"><a xlink:title=" ">
<path fill="none" stroke="#63b8ff" d="M90.72,-1088.14C101,-1042.66 114.24,-984.09 126.18,-931.28"/>
<polygon fill="none" stroke="#63b8ff" points="87.3,-1087.4 88.5,-1097.93 94.12,-1088.95 87.3,-1087.4"/>
</a>
</g>
</g>
<!-- Node5 -->
<g id="Node000005" class="node">
<title>Node5</title>
<g id="a_Node000005"><a xlink:href="../../dd/d16/classDoublyLinkedList.html" target="_top" xlink:title=" ">
<polygon fill="white" stroke="transparent" points="319.5,-1357 164.5,-1357 164.5,-978 319.5,-978 319.5,-1357"/>
<text text-anchor="start" x="170" y="-1344.5" font-family="Helvetica,sans-Serif" font-size="10.00">DoublyLinkedList&lt; Derived &gt;</text>
<text text-anchor="start" x="187" y="-1329.5" font-family="Helvetica,sans-Serif" font-size="10.00">&#45;</text>
<text text-anchor="start" x="213" y="-1329.5" font-family="Helvetica,sans-Serif" font-size="10.00">first</text>
<text text-anchor="start" x="187" y="-1314.5" font-family="Helvetica,sans-Serif" font-size="10.00">&#45;</text>
<text text-anchor="start" x="213" y="-1314.5" font-family="Helvetica,sans-Serif" font-size="10.00">last</text>
<text text-anchor="start" x="184.5" y="-1299.5" font-family="Helvetica,sans-Serif" font-size="10.00">+</text>
<text text-anchor="start" x="213" y="-1299.5" font-family="Helvetica,sans-Serif" font-size="10.00">append()</text>
<text text-anchor="start" x="184.5" y="-1284.5" font-family="Helvetica,sans-Serif" font-size="10.00">+</text>
<text text-anchor="start" x="213" y="-1284.5" font-family="Helvetica,sans-Serif" font-size="10.00">append()</text>
<text text-anchor="start" x="184.5" y="-1269.5" font-family="Helvetica,sans-Serif" font-size="10.00">+</text>
<text text-anchor="start" x="213" y="-1269.5" font-family="Helvetica,sans-Serif" font-size="10.00">insertBefore()</text>
<text text-anchor="start" x="184.5" y="-1254.5" font-family="Helvetica,sans-Serif" font-size="10.00">+</text>
<text text-anchor="start" x="213" y="-1254.5" font-family="Helvetica,sans-Serif" font-size="10.00">insertBefore()</text>
<text text-anchor="start" x="184.5" y="-1239.5" font-family="Helvetica,sans-Serif" font-size="10.00">+</text>
<text text-anchor="start" x="213" y="-1239.5" font-family="Helvetica,sans-Serif" font-size="10.00">insertSorted()</text>
<text text-anchor="start" x="184.5" y="-1224.5" font-family="Helvetica,sans-Serif" font-size="10.00">+</text>
<text text-anchor="start" x="213" y="-1224.5" font-family="Helvetica,sans-Serif" font-size="10.00">insertSorted()</text>
<text text-anchor="start" x="184.5" y="-1209.5" font-family="Helvetica,sans-Serif" font-size="10.00">+</text>
<text text-anchor="start" x="213" y="-1209.5" font-family="Helvetica,sans-Serif" font-size="10.00">remove()</text>
<text text-anchor="start" x="184.5" y="-1194.5" font-family="Helvetica,sans-Serif" font-size="10.00">+</text>
<text text-anchor="start" x="213" y="-1194.5" font-family="Helvetica,sans-Serif" font-size="10.00">remove()</text>
<text text-anchor="start" x="184.5" y="-1179.5" font-family="Helvetica,sans-Serif" font-size="10.00">+</text>
<text text-anchor="start" x="213" y="-1179.5" font-family="Helvetica,sans-Serif" font-size="10.00">moveDown()</text>
<text text-anchor="start" x="184.5" y="-1164.5" font-family="Helvetica,sans-Serif" font-size="10.00">+</text>
<text text-anchor="start" x="213" y="-1164.5" font-family="Helvetica,sans-Serif" font-size="10.00">moveDown()</text>
<text text-anchor="start" x="184.5" y="-1149.5" font-family="Helvetica,sans-Serif" font-size="10.00">+</text>
<text text-anchor="start" x="213" y="-1149.5" font-family="Helvetica,sans-Serif" font-size="10.00">couldContain()</text>
<text text-anchor="start" x="184.5" y="-1134.5" font-family="Helvetica,sans-Serif" font-size="10.00">+</text>
<text text-anchor="start" x="213" y="-1134.5" font-family="Helvetica,sans-Serif" font-size="10.00">couldContain()</text>
<text text-anchor="start" x="184.5" y="-1119.5" font-family="Helvetica,sans-Serif" font-size="10.00">+</text>
<text text-anchor="start" x="213" y="-1119.5" font-family="Helvetica,sans-Serif" font-size="10.00">begin()</text>
<text text-anchor="start" x="184.5" y="-1104.5" font-family="Helvetica,sans-Serif" font-size="10.00">+</text>
<text text-anchor="start" x="213" y="-1104.5" font-family="Helvetica,sans-Serif" font-size="10.00">begin()</text>
<text text-anchor="start" x="184.5" y="-1089.5" font-family="Helvetica,sans-Serif" font-size="10.00">+</text>
<text text-anchor="start" x="213" y="-1089.5" font-family="Helvetica,sans-Serif" font-size="10.00">end()</text>
<text text-anchor="start" x="184.5" y="-1074.5" font-family="Helvetica,sans-Serif" font-size="10.00">+</text>
<text text-anchor="start" x="213" y="-1074.5" font-family="Helvetica,sans-Serif" font-size="10.00">end()</text>
<text text-anchor="start" x="184.5" y="-1059.5" font-family="Helvetica,sans-Serif" font-size="10.00">+</text>
<text text-anchor="start" x="213" y="-1059.5" font-family="Helvetica,sans-Serif" font-size="10.00">rbegin()</text>
<text text-anchor="start" x="184.5" y="-1044.5" font-family="Helvetica,sans-Serif" font-size="10.00">+</text>
<text text-anchor="start" x="213" y="-1044.5" font-family="Helvetica,sans-Serif" font-size="10.00">rbegin()</text>
<text text-anchor="start" x="184.5" y="-1029.5" font-family="Helvetica,sans-Serif" font-size="10.00">+</text>
<text text-anchor="start" x="213" y="-1029.5" font-family="Helvetica,sans-Serif" font-size="10.00">rend()</text>
<text text-anchor="start" x="184.5" y="-1014.5" font-family="Helvetica,sans-Serif" font-size="10.00">+</text>
<text text-anchor="start" x="213" y="-1014.5" font-family="Helvetica,sans-Serif" font-size="10.00">rend()</text>
<text text-anchor="start" x="184.5" y="-999.5" font-family="Helvetica,sans-Serif" font-size="10.00">+</text>
<text text-anchor="start" x="213" y="-999.5" font-family="Helvetica,sans-Serif" font-size="10.00">getFirst()</text>
<text text-anchor="start" x="184.5" y="-984.5" font-family="Helvetica,sans-Serif" font-size="10.00">+</text>
<text text-anchor="start" x="213" y="-984.5" font-family="Helvetica,sans-Serif" font-size="10.00">getLast()</text>
<polygon fill="#666666" stroke="#666666" points="165,-1339.5 165,-1339.5 320,-1339.5 320,-1339.5 165,-1339.5"/>
<polygon fill="#666666" stroke="#666666" points="165,-1309.5 165,-1309.5 211,-1309.5 211,-1309.5 165,-1309.5"/>
<polygon fill="#666666" stroke="#666666" points="211,-1309.5 211,-1309.5 320,-1309.5 320,-1309.5 211,-1309.5"/>
<polygon fill="none" stroke="#666666" points="164.5,-978 164.5,-1357 319.5,-1357 319.5,-978 164.5,-978"/>
</a>
</g>
</g>
<!-- Node5&#45;&gt;Node3 -->
<g id="edge4_Node000003_Node000005" class="edge">
<title>Node5&#45;&gt;Node3</title>
<g id="a_edge4_Node000003_Node000005"><a xlink:title=" ">
<path fill="none" stroke="#63b8ff" d="M198.82,-977.76C196.15,-966.1 193.49,-954.47 190.87,-943.03"/>
<polygon fill="none" stroke="#63b8ff" points="190.84,-942.89 185.6,-937.93 188.16,-931.19 193.4,-936.15 190.84,-942.89"/>
</a>
</g>
<text text-anchor="middle" x="228" y="-952" font-family="Helvetica,sans-Serif" font-size="10.00" fill="grey"> #updatables</text>
</g>
<!-- Node6 -->
<g id="Node000006" class="node">
<title>Node6</title>
<g id="a_Node000006"><a xlink:href="../../de/d0d/classAH_1_1Button.html" target="_top" xlink:title="A class for reading and debouncing buttons and switches.">
<polygon fill="white" stroke="transparent" points="361,-535 229,-535 229,-306 361,-306 361,-535"/>
<text text-anchor="start" x="278.5" y="-522.5" font-family="Helvetica,sans-Serif" font-size="10.00">Button</text>
<text text-anchor="start" x="235.5" y="-507.5" font-family="Helvetica,sans-Serif" font-size="10.00">&#45;</text>
<text text-anchor="start" x="246" y="-507.5" font-family="Helvetica,sans-Serif" font-size="10.00">debounceTime</text>
<text text-anchor="start" x="233" y="-492.5" font-family="Helvetica,sans-Serif" font-size="10.00">+</text>
<text text-anchor="start" x="246" y="-492.5" font-family="Helvetica,sans-Serif" font-size="10.00">Button()</text>
<text text-anchor="start" x="233" y="-477.5" font-family="Helvetica,sans-Serif" font-size="10.00">+</text>
<text text-anchor="start" x="246" y="-477.5" font-family="Helvetica,sans-Serif" font-size="10.00">Button()</text>
<text text-anchor="start" x="233" y="-462.5" font-family="Helvetica,sans-Serif" font-size="10.00">+</text>
<text text-anchor="start" x="246" y="-462.5" font-family="Helvetica,sans-Serif" font-size="10.00">Button()</text>
<text text-anchor="start" x="233" y="-447.5" font-family="Helvetica,sans-Serif" font-size="10.00">+</text>
<text text-anchor="start" x="246" y="-447.5" font-family="Helvetica,sans-Serif" font-size="10.00">begin()</text>
<text text-anchor="start" x="233" y="-432.5" font-family="Helvetica,sans-Serif" font-size="10.00">+</text>
<text text-anchor="start" x="246" y="-432.5" font-family="Helvetica,sans-Serif" font-size="10.00">invert()</text>
<text text-anchor="start" x="233" y="-417.5" font-family="Helvetica,sans-Serif" font-size="10.00">+</text>
<text text-anchor="start" x="246" y="-417.5" font-family="Helvetica,sans-Serif" font-size="10.00">update()</text>
<text text-anchor="start" x="233" y="-402.5" font-family="Helvetica,sans-Serif" font-size="10.00">+</text>
<text text-anchor="start" x="246" y="-402.5" font-family="Helvetica,sans-Serif" font-size="10.00">getState()</text>
<text text-anchor="start" x="233" y="-387.5" font-family="Helvetica,sans-Serif" font-size="10.00">+</text>
<text text-anchor="start" x="246" y="-387.5" font-family="Helvetica,sans-Serif" font-size="10.00">previousBounceTime()</text>
<text text-anchor="start" x="233" y="-372.5" font-family="Helvetica,sans-Serif" font-size="10.00">+</text>
<text text-anchor="start" x="246" y="-372.5" font-family="Helvetica,sans-Serif" font-size="10.00">stableTime()</text>
<text text-anchor="start" x="233" y="-357.5" font-family="Helvetica,sans-Serif" font-size="10.00">+</text>
<text text-anchor="start" x="246" y="-357.5" font-family="Helvetica,sans-Serif" font-size="10.00">stableTime()</text>
<text text-anchor="start" x="233" y="-342.5" font-family="Helvetica,sans-Serif" font-size="10.00">+</text>
<text text-anchor="start" x="246" y="-342.5" font-family="Helvetica,sans-Serif" font-size="10.00">getName()</text>
<text text-anchor="start" x="233" y="-327.5" font-family="Helvetica,sans-Serif" font-size="10.00">+</text>
<text text-anchor="start" x="246" y="-327.5" font-family="Helvetica,sans-Serif" font-size="10.00">setDebounceTime()</text>
<text text-anchor="start" x="233" y="-312.5" font-family="Helvetica,sans-Serif" font-size="10.00">+</text>
<text text-anchor="start" x="246" y="-312.5" font-family="Helvetica,sans-Serif" font-size="10.00">getDebounceTime()</text>
<polygon fill="#666666" stroke="#666666" points="229,-517.5 229,-517.5 361,-517.5 361,-517.5 229,-517.5"/>
<polygon fill="#666666" stroke="#666666" points="229,-502.5 229,-502.5 244,-502.5 244,-502.5 229,-502.5"/>
<polygon fill="#666666" stroke="#666666" points="244,-502.5 244,-502.5 361,-502.5 361,-502.5 244,-502.5"/>
<polygon fill="none" stroke="#666666" points="229,-306 229,-535 361,-535 361,-306 229,-306"/>
</a>
</g>
</g>
<!-- Node6&#45;&gt;Node1 -->
<g id="edge5_Node000001_Node000006" class="edge">
<title>Node6&#45;&gt;Node1</title>
<g id="a_edge5_Node000001_Node000006"><a xlink:title=" ">
<path fill="none" stroke="#63b8ff" d="M295,-305.76C295,-270.2 295,-231.18 295,-196.38"/>
<polygon fill="none" stroke="#63b8ff" points="295,-196.25 291,-190.25 295,-184.25 299,-190.25 295,-196.25"/>
</a>
</g>
<text text-anchor="middle" x="314.5" y="-205" font-family="Helvetica,sans-Serif" font-size="10.00" fill="grey"> &#45;button</text>
</g>
<!-- Node7 -->
<g id="Node000007" class="node">
<title>Node7</title>
<g id="a_Node000007"><a xlink:href="../../d7/de2/structAH_1_1ExtIO_1_1pin__t.html" target="_top" xlink:title="Type for storing pin numbers of Extended Input/Output elements.">
<polygon fill="white" stroke="transparent" points="336.5,-871 249.5,-871 249.5,-717 336.5,-717 336.5,-871"/>
<text text-anchor="start" x="281" y="-859" font-family="Helvetica,sans-Serif" font-size="10.00">pin_t</text>
<text text-anchor="start" x="254" y="-844" font-family="Helvetica,sans-Serif" font-size="10.00">+</text>
<text text-anchor="start" x="267" y="-844" font-family="Helvetica,sans-Serif" font-size="10.00">pin</text>
<text text-anchor="start" x="254" y="-829" font-family="Helvetica,sans-Serif" font-size="10.00">+</text>
<text text-anchor="start" x="267" y="-829" font-family="Helvetica,sans-Serif" font-size="10.00">pin_t()</text>
<text text-anchor="start" x="254" y="-814" font-family="Helvetica,sans-Serif" font-size="10.00">+</text>
<text text-anchor="start" x="267" y="-814" font-family="Helvetica,sans-Serif" font-size="10.00">pin_t()</text>
<text text-anchor="start" x="254" y="-799" font-family="Helvetica,sans-Serif" font-size="10.00">+</text>
<text text-anchor="start" x="267" y="-799" font-family="Helvetica,sans-Serif" font-size="10.00">operator+=()</text>
<text text-anchor="start" x="254" y="-784" font-family="Helvetica,sans-Serif" font-size="10.00">+</text>
<text text-anchor="start" x="267" y="-784" font-family="Helvetica,sans-Serif" font-size="10.00">operator++()</text>
<text text-anchor="start" x="254" y="-769" font-family="Helvetica,sans-Serif" font-size="10.00">+</text>
<text text-anchor="start" x="267" y="-769" font-family="Helvetica,sans-Serif" font-size="10.00">operator++()</text>
<text text-anchor="start" x="254" y="-754" font-family="Helvetica,sans-Serif" font-size="10.00">+</text>
<text text-anchor="start" x="267" y="-754" font-family="Helvetica,sans-Serif" font-size="10.00">operator&#45;=()</text>
<text text-anchor="start" x="254" y="-739" font-family="Helvetica,sans-Serif" font-size="10.00">+</text>
<text text-anchor="start" x="267" y="-739" font-family="Helvetica,sans-Serif" font-size="10.00">operator&#45;&#45;()</text>
<text text-anchor="start" x="254" y="-724" font-family="Helvetica,sans-Serif" font-size="10.00">+</text>
<text text-anchor="start" x="267" y="-724" font-family="Helvetica,sans-Serif" font-size="10.00">operator&#45;&#45;()</text>
<polygon fill="#666666" stroke="#666666" points="250,-854 250,-854 337,-854 337,-854 250,-854"/>
<polygon fill="#666666" stroke="#666666" points="250,-839 250,-839 265,-839 265,-839 250,-839"/>
<polygon fill="#666666" stroke="#666666" points="265,-839 265,-839 337,-839 337,-839 265,-839"/>
<polygon fill="none" stroke="#666666" points="249.5,-717 249.5,-871 336.5,-871 336.5,-717 249.5,-717"/>
</a>
</g>
</g>
<!-- Node7&#45;&gt;Node6 -->
<g id="edge6_Node000006_Node000007" class="edge">
<title>Node7&#45;&gt;Node6</title>
<g id="a_edge6_Node000006_Node000007"><a xlink:title=" ">
<path fill="none" stroke="#63b8ff" d="M293.41,-716.92C293.67,-668.18 294.02,-603.72 294.32,-547.46"/>
<polygon fill="none" stroke="#63b8ff" points="294.32,-547.22 290.36,-541.2 294.39,-535.22 298.36,-541.24 294.32,-547.22"/>
</a>
</g>
<text text-anchor="middle" x="305" y="-631" font-family="Helvetica,sans-Serif" font-size="10.00" fill="grey"> &#45;pin</text>
</g>
<!-- Node8 -->
<g id="Node000008" class="node">
<title>Node8</title>
<g id="a_Node000008"><a xlink:href="../../dc/db4/structAH_1_1Button_1_1InternalState.html" target="_top" xlink:title=" ">
<polygon fill="white" stroke="transparent" points="459,-848.5 355,-848.5 355,-739.5 459,-739.5 459,-848.5"/>
<text text-anchor="start" x="375" y="-836" font-family="Helvetica,sans-Serif" font-size="10.00">InternalState</text>
<text text-anchor="start" x="359" y="-821" font-family="Helvetica,sans-Serif" font-size="10.00">+</text>
<text text-anchor="start" x="372" y="-821" font-family="Helvetica,sans-Serif" font-size="10.00">debounced</text>
<text text-anchor="start" x="359" y="-806" font-family="Helvetica,sans-Serif" font-size="10.00">+</text>
<text text-anchor="start" x="372" y="-806" font-family="Helvetica,sans-Serif" font-size="10.00">bouncing</text>
<text text-anchor="start" x="359" y="-791" font-family="Helvetica,sans-Serif" font-size="10.00">+</text>
<text text-anchor="start" x="372" y="-791" font-family="Helvetica,sans-Serif" font-size="10.00">prevInput</text>
<text text-anchor="start" x="359" y="-776" font-family="Helvetica,sans-Serif" font-size="10.00">+</text>
<text text-anchor="start" x="372" y="-776" font-family="Helvetica,sans-Serif" font-size="10.00">invert</text>
<text text-anchor="start" x="359" y="-761" font-family="Helvetica,sans-Serif" font-size="10.00">+</text>
<text text-anchor="start" x="372" y="-761" font-family="Helvetica,sans-Serif" font-size="10.00">prevBounceTime</text>
<text text-anchor="start" x="359" y="-746" font-family="Helvetica,sans-Serif" font-size="10.00">+</text>
<text text-anchor="start" x="372" y="-746" font-family="Helvetica,sans-Serif" font-size="10.00">InternalState()</text>
<polygon fill="#666666" stroke="#666666" points="355,-831 355,-831 459,-831 459,-831 355,-831"/>
<polygon fill="#666666" stroke="#666666" points="355,-756 355,-756 370,-756 370,-756 355,-756"/>
<polygon fill="#666666" stroke="#666666" points="370,-756 370,-756 459,-756 459,-756 370,-756"/>
<polygon fill="none" stroke="#666666" points="355,-739.5 355,-848.5 459,-848.5 459,-739.5 355,-739.5"/>
</a>
</g>
</g>
<!-- Node8&#45;&gt;Node6 -->
<g id="edge7_Node000006_Node000008" class="edge">
<title>Node8&#45;&gt;Node6</title>
<g id="a_edge7_Node000006_Node000008"><a xlink:title=" ">
<path fill="none" stroke="#63b8ff" d="M390.83,-739.38C375.72,-689.24 352.58,-612.47 332.82,-546.94"/>
<polygon fill="none" stroke="#63b8ff" points="332.76,-546.76 327.2,-542.17 329.3,-535.27 334.86,-539.86 332.76,-546.76"/>
</a>
</g>
<text text-anchor="middle" x="373" y="-631" font-family="Helvetica,sans-Serif" font-size="10.00" fill="grey"> &#45;state</text>
</g>
<!-- Node9 -->
<g id="Node000009" class="node">
<title>Node9</title>
<g id="a_Node000009"><a xlink:href="../../d7/d0f/classMIDIAddress.html" target="_top" xlink:title="A type&#45;safe utility class for saving a MIDI address consisting of a 7&#45;bit address,...">
<polygon fill="white" stroke="transparent" points="515,-610 379,-610 379,-231 515,-231 515,-610"/>
<text text-anchor="start" x="416" y="-597.5" font-family="Helvetica,sans-Serif" font-size="10.00">MIDIAddress</text>
<text text-anchor="start" x="384" y="-582.5" font-family="Helvetica,sans-Serif" font-size="10.00">&#45;</text>
<text text-anchor="start" x="393" y="-582.5" font-family="Helvetica,sans-Serif" font-size="10.00">addresses</text>
<text text-anchor="start" x="383" y="-567.5" font-family="Helvetica,sans-Serif" font-size="10.00">*</text>
<text text-anchor="start" x="393" y="-567.5" font-family="Helvetica,sans-Serif" font-size="10.00">MIDIAddress()</text>
<text text-anchor="start" x="383" y="-552.5" font-family="Helvetica,sans-Serif" font-size="10.00">*</text>
<text text-anchor="start" x="393" y="-552.5" font-family="Helvetica,sans-Serif" font-size="10.00">MIDIAddress()</text>
<text text-anchor="start" x="383" y="-537.5" font-family="Helvetica,sans-Serif" font-size="10.00">*</text>
<text text-anchor="start" x="393" y="-537.5" font-family="Helvetica,sans-Serif" font-size="10.00">MIDIAddress()</text>
<text text-anchor="start" x="383" y="-522.5" font-family="Helvetica,sans-Serif" font-size="10.00">*</text>
<text text-anchor="start" x="393" y="-522.5" font-family="Helvetica,sans-Serif" font-size="10.00">MIDIAddress()</text>
<text text-anchor="start" x="383" y="-507.5" font-family="Helvetica,sans-Serif" font-size="10.00">*</text>
<text text-anchor="start" x="393" y="-507.5" font-family="Helvetica,sans-Serif" font-size="10.00">MIDIAddress()</text>
<text text-anchor="start" x="383" y="-492.5" font-family="Helvetica,sans-Serif" font-size="10.00">*</text>
<text text-anchor="start" x="393" y="-492.5" font-family="Helvetica,sans-Serif" font-size="10.00">MIDIAddress()</text>
<text text-anchor="start" x="383" y="-477.5" font-family="Helvetica,sans-Serif" font-size="10.00">*</text>
<text text-anchor="start" x="393" y="-477.5" font-family="Helvetica,sans-Serif" font-size="10.00">invalid()</text>
<text text-anchor="start" x="383" y="-462.5" font-family="Helvetica,sans-Serif" font-size="10.00">*</text>
<text text-anchor="start" x="393" y="-462.5" font-family="Helvetica,sans-Serif" font-size="10.00">operator+=()</text>
<text text-anchor="start" x="383" y="-447.5" font-family="Helvetica,sans-Serif" font-size="10.00">*</text>
<text text-anchor="start" x="393" y="-447.5" font-family="Helvetica,sans-Serif" font-size="10.00">operator&#45;=()</text>
<text text-anchor="start" x="383" y="-432.5" font-family="Helvetica,sans-Serif" font-size="10.00">*</text>
<text text-anchor="start" x="393" y="-432.5" font-family="Helvetica,sans-Serif" font-size="10.00">operator+()</text>
<text text-anchor="start" x="383" y="-417.5" font-family="Helvetica,sans-Serif" font-size="10.00">*</text>
<text text-anchor="start" x="393" y="-417.5" font-family="Helvetica,sans-Serif" font-size="10.00">operator&#45;()</text>
<text text-anchor="start" x="383" y="-402.5" font-family="Helvetica,sans-Serif" font-size="10.00">*</text>
<text text-anchor="start" x="393" y="-402.5" font-family="Helvetica,sans-Serif" font-size="10.00">getAddress()</text>
<text text-anchor="start" x="383" y="-387.5" font-family="Helvetica,sans-Serif" font-size="10.00">*</text>
<text text-anchor="start" x="393" y="-387.5" font-family="Helvetica,sans-Serif" font-size="10.00">getChannel()</text>
<text text-anchor="start" x="383" y="-372.5" font-family="Helvetica,sans-Serif" font-size="10.00">*</text>
<text text-anchor="start" x="393" y="-372.5" font-family="Helvetica,sans-Serif" font-size="10.00">getRawChannel()</text>
<text text-anchor="start" x="383" y="-357.5" font-family="Helvetica,sans-Serif" font-size="10.00">*</text>
<text text-anchor="start" x="393" y="-357.5" font-family="Helvetica,sans-Serif" font-size="10.00">getCableNumber()</text>
<text text-anchor="start" x="383" y="-342.5" font-family="Helvetica,sans-Serif" font-size="10.00">*</text>
<text text-anchor="start" x="393" y="-342.5" font-family="Helvetica,sans-Serif" font-size="10.00">getRawCableNumber()</text>
<text text-anchor="start" x="383" y="-327.5" font-family="Helvetica,sans-Serif" font-size="10.00">*</text>
<text text-anchor="start" x="393" y="-327.5" font-family="Helvetica,sans-Serif" font-size="10.00">getChannelCable()</text>
<text text-anchor="start" x="383" y="-312.5" font-family="Helvetica,sans-Serif" font-size="10.00">*</text>
<text text-anchor="start" x="393" y="-312.5" font-family="Helvetica,sans-Serif" font-size="10.00">operator==()</text>
<text text-anchor="start" x="383" y="-297.5" font-family="Helvetica,sans-Serif" font-size="10.00">*</text>
<text text-anchor="start" x="393" y="-297.5" font-family="Helvetica,sans-Serif" font-size="10.00">operator!=()</text>
<text text-anchor="start" x="383" y="-282.5" font-family="Helvetica,sans-Serif" font-size="10.00">*</text>
<text text-anchor="start" x="393" y="-282.5" font-family="Helvetica,sans-Serif" font-size="10.00">isValid()</text>
<text text-anchor="start" x="383" y="-267.5" font-family="Helvetica,sans-Serif" font-size="10.00">*</text>
<text text-anchor="start" x="393" y="-267.5" font-family="Helvetica,sans-Serif" font-size="10.00">operator bool()</text>
<text text-anchor="start" x="383" y="-252.5" font-family="Helvetica,sans-Serif" font-size="10.00">*</text>
<text text-anchor="start" x="393" y="-252.5" font-family="Helvetica,sans-Serif" font-size="10.00">matchSingle()</text>
<text text-anchor="start" x="383" y="-237.5" font-family="Helvetica,sans-Serif" font-size="10.00">*</text>
<text text-anchor="start" x="393" y="-237.5" font-family="Helvetica,sans-Serif" font-size="10.00">matchAddressInRange()</text>
<polygon fill="#666666" stroke="#666666" points="379,-592.5 379,-592.5 515,-592.5 515,-592.5 379,-592.5"/>
<polygon fill="#666666" stroke="#666666" points="379,-577.5 379,-577.5 391,-577.5 391,-577.5 379,-577.5"/>
<polygon fill="#666666" stroke="#666666" points="391,-577.5 391,-577.5 515,-577.5 515,-577.5 391,-577.5"/>
<polygon fill="none" stroke="#666666" points="379,-231 379,-610 515,-610 515,-231 379,-231"/>
</a>
</g>
</g>
<!-- Node9&#45;&gt;Node1 -->
<g id="edge8_Node000001_Node000009" class="edge">
<title>Node9&#45;&gt;Node1</title>
<g id="a_edge8_Node000001_Node000009"><a xlink:title=" ">
<path fill="none" stroke="#63b8ff" d="M378.83,-250.06C375.9,-243.6 372.95,-237.23 370,-231 364.45,-219.3 358.39,-207.2 352.18,-195.24"/>
<polygon fill="none" stroke="#63b8ff" points="352.02,-194.95 345.7,-191.49 346.45,-184.32 352.78,-187.78 352.02,-194.95"/>
</a>
</g>
<text text-anchor="middle" x="383" y="-205" font-family="Helvetica,sans-Serif" font-size="10.00" fill="grey"> &#45;address</text>
</g>
</g>
</svg>
