<?xml version="1.0" encoding="UTF-8" standalone="no"?>
<!DOCTYPE svg PUBLIC "-//W3C//DTD SVG 1.1//EN"
 "http://www.w3.org/Graphics/SVG/1.1/DTD/svg11.dtd">
<!-- Generated by graphviz version 2.43.0 (0)
 -->
<!-- Title: SingleAddress Pages: 1 -->
<svg width="349pt" height="778pt"
 viewBox="0.00 0.00 348.50 778.00" xmlns="http://www.w3.org/2000/svg" xmlns:xlink="http://www.w3.org/1999/xlink">
<g id="graph0" class="graph" transform="scale(1 1) rotate(0) translate(4 774)">
<title>SingleAddress</title>
<polygon fill="white" stroke="transparent" points="-4,4 -4,-774 344.5,-774 344.5,4 -4,4"/>
<!-- Node1 -->
<g id="node1" class="node">
<title>Node1</title>
<g id="a_node1"><a xlink:title=" ">
<polygon fill="#bfbfbf" stroke="black" points="120,-0.5 120,-79.5 241,-79.5 241,-0.5 120,-0.5"/>
<text text-anchor="middle" x="180.5" y="-67.5" font-family="Helvetica,sans-Serif" font-size="10.00">SingleAddress</text>
<polyline fill="none" stroke="black" points="120,-60.5 241,-60.5 "/>
<text text-anchor="middle" x="180.5" y="-48.5" font-family="Helvetica,sans-Serif" font-size="10.00"> </text>
<polyline fill="none" stroke="black" points="120,-41.5 241,-41.5 "/>
<text text-anchor="start" x="128" y="-29.5" font-family="Helvetica,sans-Serif" font-size="10.00">+ SingleAddress()</text>
<text text-anchor="start" x="128" y="-18.5" font-family="Helvetica,sans-Serif" font-size="10.00">+ getBaseAddress()</text>
<text text-anchor="start" x="128" y="-7.5" font-family="Helvetica,sans-Serif" font-size="10.00">+ getActiveAddress()</text>
</a>
</g>
</g>
<!-- Node2 -->
<g id="node2" class="node">
<title>Node2</title>
<g id="a_node2"><a xlink:href="../../d2/d97/classOutputBankableMIDIAddress.html" target="_top" xlink:title="A base class for all MIDIOutputElements that can be banked.">
<polygon fill="white" stroke="black" points="5,-226.5 5,-316.5 180,-316.5 180,-226.5 5,-226.5"/>
<text text-anchor="middle" x="92.5" y="-304.5" font-family="Helvetica,sans-Serif" font-size="10.00">OutputBankableMIDIAddress</text>
<polyline fill="none" stroke="black" points="5,-297.5 180,-297.5 "/>
<text text-anchor="start" x="13" y="-285.5" font-family="Helvetica,sans-Serif" font-size="10.00">&#45; type</text>
<polyline fill="none" stroke="black" points="5,-278.5 180,-278.5 "/>
<text text-anchor="start" x="13" y="-266.5" font-family="Helvetica,sans-Serif" font-size="10.00">+ OutputBankableMIDIAddress()</text>
<text text-anchor="start" x="13" y="-255.5" font-family="Helvetica,sans-Serif" font-size="10.00">+ OutputBankableMIDIAddress()</text>
<text text-anchor="start" x="13" y="-244.5" font-family="Helvetica,sans-Serif" font-size="10.00">+ getAddressOffset()</text>
<text text-anchor="start" x="13" y="-233.5" font-family="Helvetica,sans-Serif" font-size="10.00">+ getAddressOffset()</text>
</a>
</g>
</g>
<!-- Node2&#45;&gt;Node1 -->
<g id="edge1" class="edge">
<title>Node2&#45;&gt;Node1</title>
<path fill="none" stroke="midnightblue" d="M113.12,-216.73C129.22,-174.73 151.22,-117.37 165.63,-79.77"/>
<polygon fill="none" stroke="midnightblue" points="109.78,-215.66 109.47,-226.25 116.32,-218.17 109.78,-215.66"/>
</g>
<!-- Node3 -->
<g id="node3" class="node">
<title>Node3</title>
<g id="a_node3"><a xlink:href="../../d2/d4e/classOutputBankableMIDIAddress__Base.html" target="_top" xlink:title="Class for keeping track of the active bank, and allows locking of the bank setting.">
<polygon fill="white" stroke="black" points="0,-453.5 0,-576.5 185,-576.5 185,-453.5 0,-453.5"/>
<text text-anchor="middle" x="92.5" y="-564.5" font-family="Helvetica,sans-Serif" font-size="10.00">OutputBankableMIDIAddress_Base</text>
<polyline fill="none" stroke="black" points="0,-557.5 185,-557.5 "/>
<text text-anchor="start" x="8" y="-545.5" font-family="Helvetica,sans-Serif" font-size="10.00">&#45; lockedSetting</text>
<text text-anchor="start" x="8" y="-534.5" font-family="Helvetica,sans-Serif" font-size="10.00">&#45; UNLOCKED</text>
<polyline fill="none" stroke="black" points="0,-527.5 185,-527.5 "/>
<text text-anchor="start" x="8" y="-515.5" font-family="Helvetica,sans-Serif" font-size="10.00">+ getRawBankSetting()</text>
<text text-anchor="start" x="8" y="-504.5" font-family="Helvetica,sans-Serif" font-size="10.00">+ getSelection()</text>
<text text-anchor="start" x="8" y="-493.5" font-family="Helvetica,sans-Serif" font-size="10.00">+ lock()</text>
<text text-anchor="start" x="8" y="-482.5" font-family="Helvetica,sans-Serif" font-size="10.00">+ unlock()</text>
<text text-anchor="start" x="8" y="-471.5" font-family="Helvetica,sans-Serif" font-size="10.00"># OutputBankableMIDIAddress</text>
<text text-anchor="start" x="8" y="-460.5" font-family="Helvetica,sans-Serif" font-size="10.00">_Base()</text>
</a>
</g>
</g>
<!-- Node3&#45;&gt;Node2 -->
<g id="edge2" class="edge">
<title>Node3&#45;&gt;Node2</title>
<path fill="none" stroke="midnightblue" d="M92.5,-443.19C92.5,-402.28 92.5,-352.1 92.5,-316.77"/>
<polygon fill="none" stroke="midnightblue" points="89,-443.37 92.5,-453.37 96,-443.37 89,-443.37"/>
</g>
<!-- Node4 -->
<g id="node4" class="node">
<title>Node4</title>
<g id="a_node4"><a xlink:href="../../d9/d36/classOutputBank.html" target="_top" xlink:title="A class for changing the address of BankableMIDIOutputs.">
<polygon fill="white" stroke="black" points="29.5,-624.5 29.5,-769.5 155.5,-769.5 155.5,-624.5 29.5,-624.5"/>
<text text-anchor="middle" x="92.5" y="-757.5" font-family="Helvetica,sans-Serif" font-size="10.00">OutputBank</text>
<polyline fill="none" stroke="black" points="29.5,-750.5 155.5,-750.5 "/>
<text text-anchor="start" x="37.5" y="-738.5" font-family="Helvetica,sans-Serif" font-size="10.00">&#45; tracksPerBank</text>
<text text-anchor="start" x="37.5" y="-727.5" font-family="Helvetica,sans-Serif" font-size="10.00">&#45; bankSetting</text>
<text text-anchor="start" x="37.5" y="-716.5" font-family="Helvetica,sans-Serif" font-size="10.00">&#45; selectionOffset</text>
<polyline fill="none" stroke="black" points="29.5,-709.5 155.5,-709.5 "/>
<text text-anchor="start" x="37.5" y="-697.5" font-family="Helvetica,sans-Serif" font-size="10.00">+ OutputBank()</text>
<text text-anchor="start" x="37.5" y="-686.5" font-family="Helvetica,sans-Serif" font-size="10.00">+ select()</text>
<text text-anchor="start" x="37.5" y="-675.5" font-family="Helvetica,sans-Serif" font-size="10.00">+ getSelection()</text>
<text text-anchor="start" x="37.5" y="-664.5" font-family="Helvetica,sans-Serif" font-size="10.00">+ getSelectionOffset()</text>
<text text-anchor="start" x="37.5" y="-653.5" font-family="Helvetica,sans-Serif" font-size="10.00">+ getTracksPerBank()</text>
<text text-anchor="start" x="37.5" y="-642.5" font-family="Helvetica,sans-Serif" font-size="10.00">+ getOffsetOfSetting()</text>
<text text-anchor="start" x="37.5" y="-631.5" font-family="Helvetica,sans-Serif" font-size="10.00">+ getOffset()</text>
</a>
</g>
</g>
<!-- Node4&#45;&gt;Node3 -->
<g id="edge3" class="edge">
<title>Node4&#45;&gt;Node3</title>
<path fill="none" stroke="#404040" d="M92.5,-624.34C92.5,-612.63 92.5,-600.48 92.5,-588.74"/>
<polygon fill="none" stroke="#404040" points="92.5,-588.69 88.5,-582.69 92.5,-576.69 96.5,-582.69 92.5,-588.69"/>
<text text-anchor="middle" x="110.5" y="-598" font-family="Helvetica,sans-Serif" font-size="10.00"> #bank</text>
</g>
<!-- Node5 -->
<g id="node5" class="node">
<title>Node5</title>
<g id="a_node5"><a xlink:href="../../d7/d0f/classMIDIAddress.html" target="_top" xlink:title="A type&#45;safe utility class for saving a MIDI address consisting of a 7&#45;bit address,...">
<polygon fill="white" stroke="black" points="198.5,-127.5 198.5,-415.5 340.5,-415.5 340.5,-127.5 198.5,-127.5"/>
<text text-anchor="middle" x="269.5" y="-403.5" font-family="Helvetica,sans-Serif" font-size="10.00">MIDIAddress</text>
<polyline fill="none" stroke="black" points="198.5,-396.5 340.5,-396.5 "/>
<text text-anchor="start" x="206.5" y="-384.5" font-family="Helvetica,sans-Serif" font-size="10.00">&#45; addresses</text>
<polyline fill="none" stroke="black" points="198.5,-377.5 340.5,-377.5 "/>
<text text-anchor="start" x="206.5" y="-365.5" font-family="Helvetica,sans-Serif" font-size="10.00">* MIDIAddress()</text>
<text text-anchor="start" x="206.5" y="-354.5" font-family="Helvetica,sans-Serif" font-size="10.00">* MIDIAddress()</text>
<text text-anchor="start" x="206.5" y="-343.5" font-family="Helvetica,sans-Serif" font-size="10.00">* MIDIAddress()</text>
<text text-anchor="start" x="206.5" y="-332.5" font-family="Helvetica,sans-Serif" font-size="10.00">* MIDIAddress()</text>
<text text-anchor="start" x="206.5" y="-321.5" font-family="Helvetica,sans-Serif" font-size="10.00">* MIDIAddress()</text>
<text text-anchor="start" x="206.5" y="-310.5" font-family="Helvetica,sans-Serif" font-size="10.00">* MIDIAddress()</text>
<text text-anchor="start" x="206.5" y="-299.5" font-family="Helvetica,sans-Serif" font-size="10.00">* invalid()</text>
<text text-anchor="start" x="206.5" y="-288.5" font-family="Helvetica,sans-Serif" font-size="10.00">* operator+=()</text>
<text text-anchor="start" x="206.5" y="-277.5" font-family="Helvetica,sans-Serif" font-size="10.00">* operator&#45;=()</text>
<text text-anchor="start" x="206.5" y="-266.5" font-family="Helvetica,sans-Serif" font-size="10.00">* operator+()</text>
<text text-anchor="start" x="206.5" y="-255.5" font-family="Helvetica,sans-Serif" font-size="10.00">* operator&#45;()</text>
<text text-anchor="start" x="206.5" y="-244.5" font-family="Helvetica,sans-Serif" font-size="10.00">* getAddress()</text>
<text text-anchor="start" x="206.5" y="-233.5" font-family="Helvetica,sans-Serif" font-size="10.00">* getChannel()</text>
<text text-anchor="start" x="206.5" y="-222.5" font-family="Helvetica,sans-Serif" font-size="10.00">* getRawChannel()</text>
<text text-anchor="start" x="206.5" y="-211.5" font-family="Helvetica,sans-Serif" font-size="10.00">* getCableNumber()</text>
<text text-anchor="start" x="206.5" y="-200.5" font-family="Helvetica,sans-Serif" font-size="10.00">* getRawCableNumber()</text>
<text text-anchor="start" x="206.5" y="-189.5" font-family="Helvetica,sans-Serif" font-size="10.00">* operator==()</text>
<text text-anchor="start" x="206.5" y="-178.5" font-family="Helvetica,sans-Serif" font-size="10.00">* operator!=()</text>
<text text-anchor="start" x="206.5" y="-167.5" font-family="Helvetica,sans-Serif" font-size="10.00">* isValid()</text>
<text text-anchor="start" x="206.5" y="-156.5" font-family="Helvetica,sans-Serif" font-size="10.00">* operator bool()</text>
<text text-anchor="start" x="206.5" y="-145.5" font-family="Helvetica,sans-Serif" font-size="10.00">* matchSingle()</text>
<text text-anchor="start" x="206.5" y="-134.5" font-family="Helvetica,sans-Serif" font-size="10.00">* matchAddressInRange()</text>
</a>
</g>
</g>
<!-- Node5&#45;&gt;Node1 -->
<g id="edge4" class="edge">
<title>Node5&#45;&gt;Node1</title>
<path fill="none" stroke="#404040" d="M214.02,-127.44C209,-114.49 204.17,-102.05 199.83,-90.84"/>
<polygon fill="none" stroke="#404040" points="199.82,-90.83 193.92,-86.68 195.48,-79.64 201.38,-83.79 199.82,-90.83"/>
<text text-anchor="middle" x="230.5" y="-101" font-family="Helvetica,sans-Serif" font-size="10.00"> &#45;address</text>
</g>
</g>
</svg>
