<?xml version="1.0" encoding="UTF-8" standalone="no"?>
<!DOCTYPE svg PUBLIC "-//W3C//DTD SVG 1.1//EN"
 "http://www.w3.org/Graphics/SVG/1.1/DTD/svg11.dtd">
<!-- Generated by graphviz version 2.43.0 (0)
 -->
<!-- Title: MIDIButtonMatrix&lt; Sender, NumRows, NumCols &gt; Pages: 1 -->
<svg width="339pt" height="1005pt"
 viewBox="0.00 0.00 339.00 1005.00" xmlns="http://www.w3.org/2000/svg" xmlns:xlink="http://www.w3.org/1999/xlink">
<g id="graph0" class="graph" transform="scale(1 1) rotate(0) translate(4 1001)">
<title>MIDIButtonMatrix&lt; Sender, NumRows, NumCols &gt;</title>
<!-- Node1 -->
<g id="Node000001" class="node">
<title>Node1</title>
<g id="a_Node000001"><a xlink:title="MIDIButtonMatrix.">
<polygon fill="#999999" stroke="transparent" points="228,-195 82,-195 82,0 228,0 228,-195"/>
<text text-anchor="start" x="87.5" y="-182.5" font-family="Helvetica,sans-Serif" font-size="10.00">MIDIButtonMatrix&lt; Sender,</text>
<text text-anchor="start" x="97.5" y="-171.5" font-family="Helvetica,sans-Serif" font-size="10.00"> NumRows, NumCols &gt;</text>
<text text-anchor="start" x="86" y="-156.5" font-family="Helvetica,sans-Serif" font-size="10.00">+</text>
<text text-anchor="start" x="99" y="-156.5" font-family="Helvetica,sans-Serif" font-size="10.00">sender</text>
<text text-anchor="start" x="88.5" y="-141.5" font-family="Helvetica,sans-Serif" font-size="10.00">&#45;</text>
<text text-anchor="start" x="99" y="-141.5" font-family="Helvetica,sans-Serif" font-size="10.00">addresses</text>
<text text-anchor="start" x="88.5" y="-126.5" font-family="Helvetica,sans-Serif" font-size="10.00">&#45;</text>
<text text-anchor="start" x="99" y="-126.5" font-family="Helvetica,sans-Serif" font-size="10.00">baseChannelCN</text>
<text text-anchor="start" x="86" y="-111.5" font-family="Helvetica,sans-Serif" font-size="10.00">+</text>
<text text-anchor="start" x="99" y="-111.5" font-family="Helvetica,sans-Serif" font-size="10.00">begin()</text>
<text text-anchor="start" x="86" y="-96.5" font-family="Helvetica,sans-Serif" font-size="10.00">+</text>
<text text-anchor="start" x="99" y="-96.5" font-family="Helvetica,sans-Serif" font-size="10.00">update()</text>
<text text-anchor="start" x="86" y="-81.5" font-family="Helvetica,sans-Serif" font-size="10.00">+</text>
<text text-anchor="start" x="99" y="-81.5" font-family="Helvetica,sans-Serif" font-size="10.00">getAddress()</text>
<text text-anchor="start" x="86" y="-66.5" font-family="Helvetica,sans-Serif" font-size="10.00">+</text>
<text text-anchor="start" x="99" y="-66.5" font-family="Helvetica,sans-Serif" font-size="10.00">setAddressUnsafe()</text>
<text text-anchor="start" x="86" y="-51.5" font-family="Helvetica,sans-Serif" font-size="10.00">+</text>
<text text-anchor="start" x="99" y="-51.5" font-family="Helvetica,sans-Serif" font-size="10.00">getChannelCable()</text>
<text text-anchor="start" x="86" y="-36.5" font-family="Helvetica,sans-Serif" font-size="10.00">+</text>
<text text-anchor="start" x="99" y="-36.5" font-family="Helvetica,sans-Serif" font-size="10.00">setChannelCableUnsafe()</text>
<text text-anchor="start" x="86" y="-21.5" font-family="Helvetica,sans-Serif" font-size="10.00">#</text>
<text text-anchor="start" x="99" y="-21.5" font-family="Helvetica,sans-Serif" font-size="10.00">MIDIButtonMatrix()</text>
<text text-anchor="start" x="88.5" y="-6.5" font-family="Helvetica,sans-Serif" font-size="10.00">&#45;</text>
<text text-anchor="start" x="99" y="-6.5" font-family="Helvetica,sans-Serif" font-size="10.00">onButtonChanged()</text>
<polygon fill="#666666" stroke="#666666" points="82,-166.5 82,-166.5 228,-166.5 228,-166.5 82,-166.5"/>
<polygon fill="#666666" stroke="#666666" points="82,-121.5 82,-121.5 97,-121.5 97,-121.5 82,-121.5"/>
<polygon fill="#666666" stroke="#666666" points="97,-121.5 97,-121.5 228,-121.5 228,-121.5 97,-121.5"/>
<polygon fill="none" stroke="#666666" points="82,0 82,-195 228,-195 228,0 82,0"/>
</a>
</g>
</g>
<!-- Node2 -->
<g id="Node000002" class="node">
<title>Node2</title>
<g id="a_Node000002"><a xlink:href="../../d1/d55/classAH_1_1Updatable.html" target="_top" xlink:title="A super class for object that have to be updated regularly.">
<polygon fill="white" stroke="transparent" points="126.5,-418.5 19.5,-418.5 19.5,-324.5 126.5,-324.5 126.5,-418.5"/>
<text text-anchor="start" x="25" y="-406.5" font-family="Helvetica,sans-Serif" font-size="10.00">MIDIOutputElement</text>
<text text-anchor="start" x="71.5" y="-391.5" font-family="Helvetica,sans-Serif" font-size="10.00"> </text>
<text text-anchor="start" x="32.5" y="-376.5" font-family="Helvetica,sans-Serif" font-size="10.00">*</text>
<text text-anchor="start" x="51" y="-376.5" font-family="Helvetica,sans-Serif" font-size="10.00">begin()</text>
<text text-anchor="start" x="32.5" y="-361.5" font-family="Helvetica,sans-Serif" font-size="10.00">*</text>
<text text-anchor="start" x="51" y="-361.5" font-family="Helvetica,sans-Serif" font-size="10.00">update()</text>
<text text-anchor="start" x="32.5" y="-346.5" font-family="Helvetica,sans-Serif" font-size="10.00">*</text>
<text text-anchor="start" x="51" y="-346.5" font-family="Helvetica,sans-Serif" font-size="10.00">beginAll()</text>
<text text-anchor="start" x="32.5" y="-331.5" font-family="Helvetica,sans-Serif" font-size="10.00">*</text>
<text text-anchor="start" x="51" y="-331.5" font-family="Helvetica,sans-Serif" font-size="10.00">updateAll()</text>
<polygon fill="#666666" stroke="#666666" points="20,-401.5 20,-401.5 127,-401.5 127,-401.5 20,-401.5"/>
<polygon fill="#666666" stroke="#666666" points="20,-386.5 20,-386.5 127,-386.5 127,-386.5 20,-386.5"/>
<polygon fill="none" stroke="#666666" points="19.5,-324.5 19.5,-418.5 126.5,-418.5 126.5,-324.5 19.5,-324.5"/>
</a>
</g>
</g>
<!-- Node2&#45;&gt;Node1 -->
<g id="edge1_Node000001_Node000002" class="edge">
<title>Node2&#45;&gt;Node1</title>
<g id="a_edge1_Node000001_Node000002"><a xlink:title=" ">
<path fill="none" stroke="#63b8ff" d="M89.88,-314.5C100.25,-280.12 113.8,-235.15 125.86,-195.15"/>
<polygon fill="none" stroke="#63b8ff" points="86.45,-313.77 86.91,-324.36 93.15,-315.79 86.45,-313.77"/>
</a>
</g>
</g>
<!-- Node3 -->
<g id="Node000003" class="node">
<title>Node3</title>
<g id="a_Node000003"><a xlink:href="../../d8/d1a/classAH_1_1UpdatableCRTP.html" target="_top" xlink:title="A super class for object that have to be updated regularly.">
<polygon fill="white" stroke="transparent" points="146,-822 0,-822 0,-548 146,-548 146,-822"/>
<text text-anchor="start" x="5" y="-810" font-family="Helvetica,sans-Serif" font-size="10.00">UpdatableCRTP&lt; Derived &gt;</text>
<text text-anchor="start" x="12.5" y="-795" font-family="Helvetica,sans-Serif" font-size="10.00">#</text>
<text text-anchor="start" x="34" y="-795" font-family="Helvetica,sans-Serif" font-size="10.00">updatables</text>
<text text-anchor="start" x="12.5" y="-780" font-family="Helvetica,sans-Serif" font-size="10.00">+</text>
<text text-anchor="start" x="34" y="-780" font-family="Helvetica,sans-Serif" font-size="10.00">~UpdatableCRTP()</text>
<text text-anchor="start" x="12.5" y="-765" font-family="Helvetica,sans-Serif" font-size="10.00">#</text>
<text text-anchor="start" x="34" y="-765" font-family="Helvetica,sans-Serif" font-size="10.00">UpdatableCRTP()</text>
<text text-anchor="start" x="12.5" y="-750" font-family="Helvetica,sans-Serif" font-size="10.00">#</text>
<text text-anchor="start" x="34" y="-750" font-family="Helvetica,sans-Serif" font-size="10.00">UpdatableCRTP()</text>
<text text-anchor="start" x="12.5" y="-735" font-family="Helvetica,sans-Serif" font-size="10.00">#</text>
<text text-anchor="start" x="34" y="-735" font-family="Helvetica,sans-Serif" font-size="10.00">operator=()</text>
<text text-anchor="start" x="12.5" y="-720" font-family="Helvetica,sans-Serif" font-size="10.00">#</text>
<text text-anchor="start" x="34" y="-720" font-family="Helvetica,sans-Serif" font-size="10.00">UpdatableCRTP()</text>
<text text-anchor="start" x="12.5" y="-705" font-family="Helvetica,sans-Serif" font-size="10.00">#</text>
<text text-anchor="start" x="34" y="-705" font-family="Helvetica,sans-Serif" font-size="10.00">operator=()</text>
<text text-anchor="start" x="14" y="-690" font-family="Helvetica,sans-Serif" font-size="10.00">*</text>
<text text-anchor="start" x="34" y="-690" font-family="Helvetica,sans-Serif" font-size="10.00">enable()</text>
<text text-anchor="start" x="14" y="-675" font-family="Helvetica,sans-Serif" font-size="10.00">*</text>
<text text-anchor="start" x="34" y="-675" font-family="Helvetica,sans-Serif" font-size="10.00">disable()</text>
<text text-anchor="start" x="14" y="-660" font-family="Helvetica,sans-Serif" font-size="10.00">*</text>
<text text-anchor="start" x="34" y="-660" font-family="Helvetica,sans-Serif" font-size="10.00">isEnabled()</text>
<text text-anchor="start" x="14" y="-645" font-family="Helvetica,sans-Serif" font-size="10.00">*</text>
<text text-anchor="start" x="34" y="-645" font-family="Helvetica,sans-Serif" font-size="10.00">moveDown()</text>
<text text-anchor="start" x="14" y="-630" font-family="Helvetica,sans-Serif" font-size="10.00">*</text>
<text text-anchor="start" x="34" y="-630" font-family="Helvetica,sans-Serif" font-size="10.00">enable()</text>
<text text-anchor="start" x="14" y="-615" font-family="Helvetica,sans-Serif" font-size="10.00">*</text>
<text text-anchor="start" x="34" y="-615" font-family="Helvetica,sans-Serif" font-size="10.00">enable()</text>
<text text-anchor="start" x="14" y="-600" font-family="Helvetica,sans-Serif" font-size="10.00">*</text>
<text text-anchor="start" x="34" y="-600" font-family="Helvetica,sans-Serif" font-size="10.00">enable()</text>
<text text-anchor="start" x="14" y="-585" font-family="Helvetica,sans-Serif" font-size="10.00">*</text>
<text text-anchor="start" x="34" y="-585" font-family="Helvetica,sans-Serif" font-size="10.00">disable()</text>
<text text-anchor="start" x="14" y="-570" font-family="Helvetica,sans-Serif" font-size="10.00">*</text>
<text text-anchor="start" x="34" y="-570" font-family="Helvetica,sans-Serif" font-size="10.00">disable()</text>
<text text-anchor="start" x="14" y="-555" font-family="Helvetica,sans-Serif" font-size="10.00">*</text>
<text text-anchor="start" x="34" y="-555" font-family="Helvetica,sans-Serif" font-size="10.00">disable()</text>
<polygon fill="#666666" stroke="#666666" points="0,-805 0,-805 146,-805 146,-805 0,-805"/>
<polygon fill="#666666" stroke="#666666" points="0,-790 0,-790 32,-790 32,-790 0,-790"/>
<polygon fill="#666666" stroke="#666666" points="32,-790 32,-790 146,-790 146,-790 32,-790"/>
<polygon fill="none" stroke="#666666" points="0,-548 0,-822 146,-822 146,-548 0,-548"/>
</a>
</g>
</g>
<!-- Node3&#45;&gt;Node2 -->
<g id="edge2_Node000002_Node000003" class="edge">
<title>Node3&#45;&gt;Node2</title>
<g id="a_edge2_Node000002_Node000003"><a xlink:title=" ">
<path fill="none" stroke="#63b8ff" d="M73,-537.75C73,-494.53 73,-450.34 73,-418.54"/>
<polygon fill="none" stroke="#63b8ff" points="69.5,-537.82 73,-547.82 76.5,-537.82 69.5,-537.82"/>
</a>
</g>
</g>
<!-- Node4 -->
<g id="Node000004" class="node">
<title>Node4</title>
<g id="a_Node000004"><a xlink:href="../../d4/d23/classDoublyLinkable.html" target="_top" xlink:title=" ">
<polygon fill="white" stroke="transparent" points="146,-997 0,-997 0,-858 146,-858 146,-997"/>
<text text-anchor="start" x="5" y="-984.5" font-family="Helvetica,sans-Serif" font-size="10.00">DoublyLinkable&lt; Derived &gt;</text>
<text text-anchor="start" x="12.5" y="-969.5" font-family="Helvetica,sans-Serif" font-size="10.00">#</text>
<text text-anchor="start" x="34" y="-969.5" font-family="Helvetica,sans-Serif" font-size="10.00">next</text>
<text text-anchor="start" x="12.5" y="-954.5" font-family="Helvetica,sans-Serif" font-size="10.00">#</text>
<text text-anchor="start" x="34" y="-954.5" font-family="Helvetica,sans-Serif" font-size="10.00">previous</text>
<text text-anchor="start" x="12.5" y="-939.5" font-family="Helvetica,sans-Serif" font-size="10.00">#</text>
<text text-anchor="start" x="34" y="-939.5" font-family="Helvetica,sans-Serif" font-size="10.00">~DoublyLinkable()</text>
<text text-anchor="start" x="12.5" y="-924.5" font-family="Helvetica,sans-Serif" font-size="10.00">#</text>
<text text-anchor="start" x="34" y="-924.5" font-family="Helvetica,sans-Serif" font-size="10.00">DoublyLinkable()</text>
<text text-anchor="start" x="12.5" y="-909.5" font-family="Helvetica,sans-Serif" font-size="10.00">#</text>
<text text-anchor="start" x="34" y="-909.5" font-family="Helvetica,sans-Serif" font-size="10.00">DoublyLinkable()</text>
<text text-anchor="start" x="12.5" y="-894.5" font-family="Helvetica,sans-Serif" font-size="10.00">#</text>
<text text-anchor="start" x="34" y="-894.5" font-family="Helvetica,sans-Serif" font-size="10.00">DoublyLinkable()</text>
<text text-anchor="start" x="12.5" y="-879.5" font-family="Helvetica,sans-Serif" font-size="10.00">#</text>
<text text-anchor="start" x="34" y="-879.5" font-family="Helvetica,sans-Serif" font-size="10.00">operator=()</text>
<text text-anchor="start" x="12.5" y="-864.5" font-family="Helvetica,sans-Serif" font-size="10.00">#</text>
<text text-anchor="start" x="34" y="-864.5" font-family="Helvetica,sans-Serif" font-size="10.00">operator=()</text>
<polygon fill="#666666" stroke="#666666" points="0,-979.5 0,-979.5 146,-979.5 146,-979.5 0,-979.5"/>
<polygon fill="#666666" stroke="#666666" points="0,-949.5 0,-949.5 32,-949.5 32,-949.5 0,-949.5"/>
<polygon fill="#666666" stroke="#666666" points="32,-949.5 32,-949.5 146,-949.5 146,-949.5 32,-949.5"/>
<polygon fill="none" stroke="#666666" points="0,-858 0,-997 146,-997 146,-858 0,-858"/>
</a>
</g>
</g>
<!-- Node4&#45;&gt;Node3 -->
<g id="edge3_Node000003_Node000004" class="edge">
<title>Node4&#45;&gt;Node3</title>
<g id="a_edge3_Node000003_Node000004"><a xlink:title=" ">
<path fill="none" stroke="#63b8ff" d="M73,-847.71C73,-839.52 73,-831.04 73,-822.45"/>
<polygon fill="none" stroke="#63b8ff" points="69.5,-847.9 73,-857.9 76.5,-847.9 69.5,-847.9"/>
</a>
</g>
</g>
<!-- Node5 -->
<g id="Node000005" class="node">
<title>Node5</title>
<g id="a_Node000005"><a xlink:href="../../dd/d29/classAH_1_1ButtonMatrix.html" target="_top" xlink:title=" ">
<polygon fill="white" stroke="transparent" points="331,-512 145,-512 145,-231 331,-231 331,-512"/>
<text text-anchor="start" x="150" y="-499.5" font-family="Helvetica,sans-Serif" font-size="10.00">ButtonMatrix&lt; MIDIButton</text>
<text text-anchor="start" x="150" y="-488.5" font-family="Helvetica,sans-Serif" font-size="10.00">Matrix&lt; Sender, NumRows,</text>
<text text-anchor="start" x="150" y="-477.5" font-family="Helvetica,sans-Serif" font-size="10.00"> NumCols &gt;, NumRows, NumCols &gt;</text>
<text text-anchor="start" x="168.5" y="-462.5" font-family="Helvetica,sans-Serif" font-size="10.00">&#45;</text>
<text text-anchor="start" x="196" y="-462.5" font-family="Helvetica,sans-Serif" font-size="10.00">debounceTime</text>
<text text-anchor="start" x="168.5" y="-447.5" font-family="Helvetica,sans-Serif" font-size="10.00">&#45;</text>
<text text-anchor="start" x="196" y="-447.5" font-family="Helvetica,sans-Serif" font-size="10.00">prevRefresh</text>
<text text-anchor="start" x="168.5" y="-432.5" font-family="Helvetica,sans-Serif" font-size="10.00">&#45;</text>
<text text-anchor="start" x="196" y="-432.5" font-family="Helvetica,sans-Serif" font-size="10.00">prevStates</text>
<text text-anchor="start" x="168.5" y="-417.5" font-family="Helvetica,sans-Serif" font-size="10.00">&#45;</text>
<text text-anchor="start" x="196" y="-417.5" font-family="Helvetica,sans-Serif" font-size="10.00">rowPins</text>
<text text-anchor="start" x="168.5" y="-402.5" font-family="Helvetica,sans-Serif" font-size="10.00">&#45;</text>
<text text-anchor="start" x="196" y="-402.5" font-family="Helvetica,sans-Serif" font-size="10.00">colPins</text>
<text text-anchor="start" x="166" y="-387.5" font-family="Helvetica,sans-Serif" font-size="10.00">+</text>
<text text-anchor="start" x="196" y="-387.5" font-family="Helvetica,sans-Serif" font-size="10.00">ButtonMatrix()</text>
<text text-anchor="start" x="166" y="-372.5" font-family="Helvetica,sans-Serif" font-size="10.00">+</text>
<text text-anchor="start" x="196" y="-372.5" font-family="Helvetica,sans-Serif" font-size="10.00">begin()</text>
<text text-anchor="start" x="166" y="-357.5" font-family="Helvetica,sans-Serif" font-size="10.00">+</text>
<text text-anchor="start" x="196" y="-357.5" font-family="Helvetica,sans-Serif" font-size="10.00">update()</text>
<text text-anchor="start" x="166" y="-342.5" font-family="Helvetica,sans-Serif" font-size="10.00">+</text>
<text text-anchor="start" x="196" y="-342.5" font-family="Helvetica,sans-Serif" font-size="10.00">getPrevState()</text>
<text text-anchor="start" x="166" y="-327.5" font-family="Helvetica,sans-Serif" font-size="10.00">+</text>
<text text-anchor="start" x="196" y="-327.5" font-family="Helvetica,sans-Serif" font-size="10.00">setDebounceTime()</text>
<text text-anchor="start" x="166" y="-312.5" font-family="Helvetica,sans-Serif" font-size="10.00">+</text>
<text text-anchor="start" x="196" y="-312.5" font-family="Helvetica,sans-Serif" font-size="10.00">getDebounceTime()</text>
<text text-anchor="start" x="166" y="-297.5" font-family="Helvetica,sans-Serif" font-size="10.00">#</text>
<text text-anchor="start" x="196" y="-297.5" font-family="Helvetica,sans-Serif" font-size="10.00">onButtonChanged()</text>
<text text-anchor="start" x="168.5" y="-282.5" font-family="Helvetica,sans-Serif" font-size="10.00">&#45;</text>
<text text-anchor="start" x="196" y="-282.5" font-family="Helvetica,sans-Serif" font-size="10.00">setPrevState()</text>
<text text-anchor="start" x="168.5" y="-267.5" font-family="Helvetica,sans-Serif" font-size="10.00">&#45;</text>
<text text-anchor="start" x="196" y="-267.5" font-family="Helvetica,sans-Serif" font-size="10.00">positionToBits()</text>
<text text-anchor="start" x="168.5" y="-252.5" font-family="Helvetica,sans-Serif" font-size="10.00">&#45;</text>
<text text-anchor="start" x="196" y="-252.5" font-family="Helvetica,sans-Serif" font-size="10.00">bitsToIndex()</text>
<text text-anchor="start" x="168.5" y="-237.5" font-family="Helvetica,sans-Serif" font-size="10.00">&#45;</text>
<text text-anchor="start" x="196" y="-237.5" font-family="Helvetica,sans-Serif" font-size="10.00">bitsToBitmask()</text>
<polygon fill="#666666" stroke="#666666" points="145,-472.5 145,-472.5 331,-472.5 331,-472.5 145,-472.5"/>
<polygon fill="#666666" stroke="#666666" points="145,-397.5 145,-397.5 194,-397.5 194,-397.5 145,-397.5"/>
<polygon fill="#666666" stroke="#666666" points="194,-397.5 194,-397.5 331,-397.5 331,-397.5 194,-397.5"/>
<polygon fill="none" stroke="#666666" points="145,-231 145,-512 331,-512 331,-231 145,-231"/>
</a>
</g>
</g>
<!-- Node5&#45;&gt;Node1 -->
<g id="edge4_Node000001_Node000005" class="edge">
<title>Node5&#45;&gt;Node1</title>
<g id="a_edge4_Node000001_Node000005"><a xlink:title=" ">
<path fill="none" stroke="#63b8ff" d="M192.46,-221.26C189.75,-212.39 187.07,-203.59 184.45,-195.02"/>
<polygon fill="none" stroke="#63b8ff" points="189.14,-222.37 195.41,-230.91 195.83,-220.33 189.14,-222.37"/>
</a>
</g>
</g>
</g>
</svg>
