<?xml version="1.0" encoding="UTF-8" standalone="no"?>
<!DOCTYPE svg PUBLIC "-//W3C//DTD SVG 1.1//EN"
 "http://www.w3.org/Graphics/SVG/1.1/DTD/svg11.dtd">
<!-- Generated by graphviz version 2.43.0 (0)
 -->
<!-- Title: GenericFilteredAnalog&lt; MappingFunction, Precision, FilterShiftFactor, FilterType, AnalogType, IncRes &gt; Pages: 1 -->
<svg width="298pt" height="497pt"
 viewBox="0.00 0.00 298.00 497.00" xmlns="http://www.w3.org/2000/svg" xmlns:xlink="http://www.w3.org/1999/xlink">
<g id="graph0" class="graph" transform="scale(1 1) rotate(0) translate(4 493)">
<title>GenericFilteredAnalog&lt; MappingFunction, Precision, FilterShiftFactor, FilterType, AnalogType, IncRes &gt;</title>
<!-- Node1 -->
<g id="Node000001" class="node">
<title>Node1</title>
<g id="a_Node000001"><a xlink:title="FilteredAnalog base class with generic MappingFunction.">
<polygon fill="#999999" stroke="transparent" points="219,-489 61,-489 61,-152 219,-152 219,-489"/>
<text text-anchor="start" x="66" y="-476.5" font-family="Helvetica,sans-Serif" font-size="10.00">GenericFilteredAnalog</text>
<text text-anchor="start" x="66" y="-465.5" font-family="Helvetica,sans-Serif" font-size="10.00">&lt; MappingFunction, Precision,</text>
<text text-anchor="start" x="66" y="-454.5" font-family="Helvetica,sans-Serif" font-size="10.00"> FilterShiftFactor, FilterType,</text>
<text text-anchor="start" x="85.5" y="-443.5" font-family="Helvetica,sans-Serif" font-size="10.00"> AnalogType, IncRes &gt;</text>
<text text-anchor="start" x="72.5" y="-428.5" font-family="Helvetica,sans-Serif" font-size="10.00">&#45;</text>
<text text-anchor="start" x="88" y="-428.5" font-family="Helvetica,sans-Serif" font-size="10.00">analogPin</text>
<text text-anchor="start" x="72.5" y="-413.5" font-family="Helvetica,sans-Serif" font-size="10.00">&#45;</text>
<text text-anchor="start" x="88" y="-413.5" font-family="Helvetica,sans-Serif" font-size="10.00">mapFn</text>
<text text-anchor="start" x="72.5" y="-398.5" font-family="Helvetica,sans-Serif" font-size="10.00">&#45;</text>
<text text-anchor="start" x="88" y="-398.5" font-family="Helvetica,sans-Serif" font-size="10.00">filter</text>
<text text-anchor="start" x="72.5" y="-383.5" font-family="Helvetica,sans-Serif" font-size="10.00">&#45;</text>
<text text-anchor="start" x="88" y="-383.5" font-family="Helvetica,sans-Serif" font-size="10.00">hysteresis</text>
<text text-anchor="start" x="70" y="-368.5" font-family="Helvetica,sans-Serif" font-size="10.00">+</text>
<text text-anchor="start" x="88" y="-368.5" font-family="Helvetica,sans-Serif" font-size="10.00">GenericFilteredAnalog()</text>
<text text-anchor="start" x="70" y="-353.5" font-family="Helvetica,sans-Serif" font-size="10.00">+</text>
<text text-anchor="start" x="88" y="-353.5" font-family="Helvetica,sans-Serif" font-size="10.00">GenericFilteredAnalog()</text>
<text text-anchor="start" x="70" y="-338.5" font-family="Helvetica,sans-Serif" font-size="10.00">+</text>
<text text-anchor="start" x="88" y="-338.5" font-family="Helvetica,sans-Serif" font-size="10.00">reset()</text>
<text text-anchor="start" x="70" y="-323.5" font-family="Helvetica,sans-Serif" font-size="10.00">+</text>
<text text-anchor="start" x="88" y="-323.5" font-family="Helvetica,sans-Serif" font-size="10.00">resetToCurrentValue()</text>
<text text-anchor="start" x="70" y="-308.5" font-family="Helvetica,sans-Serif" font-size="10.00">+</text>
<text text-anchor="start" x="88" y="-308.5" font-family="Helvetica,sans-Serif" font-size="10.00">map()</text>
<text text-anchor="start" x="70" y="-293.5" font-family="Helvetica,sans-Serif" font-size="10.00">+</text>
<text text-anchor="start" x="88" y="-293.5" font-family="Helvetica,sans-Serif" font-size="10.00">getMappingFunction()</text>
<text text-anchor="start" x="70" y="-278.5" font-family="Helvetica,sans-Serif" font-size="10.00">+</text>
<text text-anchor="start" x="88" y="-278.5" font-family="Helvetica,sans-Serif" font-size="10.00">getMappingFunction()</text>
<text text-anchor="start" x="70" y="-263.5" font-family="Helvetica,sans-Serif" font-size="10.00">+</text>
<text text-anchor="start" x="88" y="-263.5" font-family="Helvetica,sans-Serif" font-size="10.00">update()</text>
<text text-anchor="start" x="70" y="-248.5" font-family="Helvetica,sans-Serif" font-size="10.00">+</text>
<text text-anchor="start" x="88" y="-248.5" font-family="Helvetica,sans-Serif" font-size="10.00">getValue()</text>
<text text-anchor="start" x="70" y="-233.5" font-family="Helvetica,sans-Serif" font-size="10.00">+</text>
<text text-anchor="start" x="88" y="-233.5" font-family="Helvetica,sans-Serif" font-size="10.00">getFloatValue()</text>
<text text-anchor="start" x="70" y="-218.5" font-family="Helvetica,sans-Serif" font-size="10.00">+</text>
<text text-anchor="start" x="88" y="-218.5" font-family="Helvetica,sans-Serif" font-size="10.00">getRawValue()</text>
<text text-anchor="start" x="70" y="-203.5" font-family="Helvetica,sans-Serif" font-size="10.00">+</text>
<text text-anchor="start" x="88" y="-203.5" font-family="Helvetica,sans-Serif" font-size="10.00">getMaxRawValue()</text>
<text text-anchor="start" x="70" y="-188.5" font-family="Helvetica,sans-Serif" font-size="10.00">+</text>
<text text-anchor="start" x="88" y="-188.5" font-family="Helvetica,sans-Serif" font-size="10.00">setupADC()</text>
<text text-anchor="start" x="72.5" y="-173.5" font-family="Helvetica,sans-Serif" font-size="10.00">&#45;</text>
<text text-anchor="start" x="88" y="-173.5" font-family="Helvetica,sans-Serif" font-size="10.00">mapFnHelper()</text>
<text text-anchor="start" x="72.5" y="-158.5" font-family="Helvetica,sans-Serif" font-size="10.00">&#45;</text>
<text text-anchor="start" x="88" y="-158.5" font-family="Helvetica,sans-Serif" font-size="10.00">mapFnHelper()</text>
<polygon fill="#666666" stroke="#666666" points="61,-438.5 61,-438.5 219,-438.5 219,-438.5 61,-438.5"/>
<polygon fill="#666666" stroke="#666666" points="61,-378.5 61,-378.5 86,-378.5 86,-378.5 61,-378.5"/>
<polygon fill="#666666" stroke="#666666" points="86,-378.5 86,-378.5 219,-378.5 219,-378.5 86,-378.5"/>
<polygon fill="none" stroke="#666666" points="61,-152 61,-489 219,-489 219,-152 61,-152"/>
</a>
</g>
</g>
<!-- Node2 -->
<g id="Node000002" class="node">
<title>Node2</title>
<g id="a_Node000002"><a xlink:href="../../d3/d6e/classAH_1_1FilteredAnalog.html" target="_top" xlink:title=" ">
<polygon fill="white" stroke="transparent" points="126,-110.5 0,-110.5 0,-5.5 126,-5.5 126,-110.5"/>
<text text-anchor="start" x="5" y="-98" font-family="Helvetica,sans-Serif" font-size="10.00">FilteredAnalog&lt; Sender</text>
<text text-anchor="start" x="29.5" y="-87" font-family="Helvetica,sans-Serif" font-size="10.00">::precision()&gt;</text>
<text text-anchor="start" x="61" y="-72" font-family="Helvetica,sans-Serif" font-size="10.00"> </text>
<text text-anchor="start" x="10.5" y="-57" font-family="Helvetica,sans-Serif" font-size="10.00">+</text>
<text text-anchor="start" x="30" y="-57" font-family="Helvetica,sans-Serif" font-size="10.00">FilteredAnalog()</text>
<text text-anchor="start" x="10.5" y="-42" font-family="Helvetica,sans-Serif" font-size="10.00">+</text>
<text text-anchor="start" x="30" y="-42" font-family="Helvetica,sans-Serif" font-size="10.00">FilteredAnalog()</text>
<text text-anchor="start" x="10.5" y="-27" font-family="Helvetica,sans-Serif" font-size="10.00">+</text>
<text text-anchor="start" x="30" y="-27" font-family="Helvetica,sans-Serif" font-size="10.00">FilteredAnalog()</text>
<text text-anchor="start" x="10.5" y="-12" font-family="Helvetica,sans-Serif" font-size="10.00">+</text>
<text text-anchor="start" x="30" y="-12" font-family="Helvetica,sans-Serif" font-size="10.00">invert()</text>
<polygon fill="#666666" stroke="#666666" points="0,-82 0,-82 126,-82 126,-82 0,-82"/>
<polygon fill="#666666" stroke="#666666" points="0,-67 0,-67 126,-67 126,-67 0,-67"/>
<polygon fill="none" stroke="#666666" points="0,-5.5 0,-110.5 126,-110.5 126,-5.5 0,-5.5"/>
</a>
</g>
</g>
<!-- Node1&#45;&gt;Node2 -->
<g id="edge1_Node000001_Node000002" class="edge">
<title>Node1&#45;&gt;Node2</title>
<g id="a_edge1_Node000001_Node000002"><a xlink:title=" ">
<path fill="none" stroke="#63b8ff" d="M87.55,-142.06C84.27,-130.95 81.14,-120.38 78.29,-110.72"/>
<polygon fill="none" stroke="#63b8ff" points="84.28,-143.35 90.47,-151.94 90.99,-141.36 84.28,-143.35"/>
</a>
</g>
</g>
<!-- Node3 -->
<g id="Node000003" class="node">
<title>Node3</title>
<g id="a_Node000003"><a xlink:href="../../d3/d6e/classAH_1_1FilteredAnalog.html" target="_top" xlink:title="A class that reads and filters an analog input.">
<polygon fill="white" stroke="transparent" points="290,-116 144,-116 144,0 290,0 290,-116"/>
<text text-anchor="start" x="149" y="-104" font-family="Helvetica,sans-Serif" font-size="10.00">FilteredAnalog&lt; Precision,</text>
<text text-anchor="start" x="149" y="-93" font-family="Helvetica,sans-Serif" font-size="10.00"> FilterShiftFactor, FilterType,</text>
<text text-anchor="start" x="162.5" y="-82" font-family="Helvetica,sans-Serif" font-size="10.00"> AnalogType, IncRes &gt;</text>
<text text-anchor="start" x="215" y="-67" font-family="Helvetica,sans-Serif" font-size="10.00"> </text>
<text text-anchor="start" x="159.5" y="-52" font-family="Helvetica,sans-Serif" font-size="10.00">+</text>
<text text-anchor="start" x="184" y="-52" font-family="Helvetica,sans-Serif" font-size="10.00">FilteredAnalog()</text>
<text text-anchor="start" x="159.5" y="-37" font-family="Helvetica,sans-Serif" font-size="10.00">+</text>
<text text-anchor="start" x="184" y="-37" font-family="Helvetica,sans-Serif" font-size="10.00">FilteredAnalog()</text>
<text text-anchor="start" x="159.5" y="-22" font-family="Helvetica,sans-Serif" font-size="10.00">+</text>
<text text-anchor="start" x="184" y="-22" font-family="Helvetica,sans-Serif" font-size="10.00">FilteredAnalog()</text>
<text text-anchor="start" x="159.5" y="-7" font-family="Helvetica,sans-Serif" font-size="10.00">+</text>
<text text-anchor="start" x="184" y="-7" font-family="Helvetica,sans-Serif" font-size="10.00">invert()</text>
<polygon fill="#666666" stroke="#666666" points="144,-77 144,-77 290,-77 290,-77 144,-77"/>
<polygon fill="#666666" stroke="#666666" points="144,-62 144,-62 290,-62 290,-62 144,-62"/>
<polygon fill="none" stroke="#666666" points="144,0 144,-116 290,-116 290,0 144,0"/>
</a>
</g>
</g>
<!-- Node1&#45;&gt;Node3 -->
<g id="edge2_Node000001_Node000003" class="edge">
<title>Node1&#45;&gt;Node3</title>
<g id="a_edge2_Node000001_Node000003"><a xlink:title=" ">
<path fill="none" stroke="#63b8ff" d="M192.38,-142.28C195.09,-133.12 197.69,-124.31 200.13,-116.09"/>
<polygon fill="none" stroke="#63b8ff" points="189.01,-141.36 189.53,-151.94 195.72,-143.35 189.01,-141.36"/>
</a>
</g>
</g>
</g>
</svg>
