<?xml version="1.0" encoding="UTF-8" standalone="no"?>
<!DOCTYPE svg PUBLIC "-//W3C//DTD SVG 1.1//EN"
 "http://www.w3.org/Graphics/SVG/1.1/DTD/svg11.dtd">
<!-- Generated by graphviz version 2.43.0 (0)
 -->
<!-- Title: MAX7219&lt; NumChips, SPIDriver &gt; Pages: 1 -->
<svg width="727pt" height="1717pt"
 viewBox="0.00 0.00 727.00 1717.00" xmlns="http://www.w3.org/2000/svg" xmlns:xlink="http://www.w3.org/1999/xlink">
<g id="graph0" class="graph" transform="scale(1 1) rotate(0) translate(4 1713)">
<title>MAX7219&lt; NumChips, SPIDriver &gt;</title>
<!-- Node1 -->
<g id="Node000001" class="node">
<title>Node1</title>
<g id="a_Node000001"><a xlink:title="A class for LED outputs using the MAX7219 LED display driver.">
<polygon fill="#999999" stroke="transparent" points="650.5,-285 492.5,-285 492.5,0 650.5,0 650.5,-285"/>
<text text-anchor="start" x="515.5" y="-272.5" font-family="Helvetica,sans-Serif" font-size="10.00">MAX7219&lt; NumChips,</text>
<text text-anchor="start" x="541.5" y="-261.5" font-family="Helvetica,sans-Serif" font-size="10.00"> SPIDriver &gt;</text>
<text text-anchor="start" x="499" y="-246.5" font-family="Helvetica,sans-Serif" font-size="10.00">&#45;</text>
<text text-anchor="start" x="509.5" y="-246.5" font-family="Helvetica,sans-Serif" font-size="10.00">dirty_rows</text>
<text text-anchor="start" x="496.5" y="-231.5" font-family="Helvetica,sans-Serif" font-size="10.00">+</text>
<text text-anchor="start" x="509.5" y="-231.5" font-family="Helvetica,sans-Serif" font-size="10.00">MAX7219()</text>
<text text-anchor="start" x="496.5" y="-216.5" font-family="Helvetica,sans-Serif" font-size="10.00">+</text>
<text text-anchor="start" x="509.5" y="-216.5" font-family="Helvetica,sans-Serif" font-size="10.00">begin()</text>
<text text-anchor="start" x="496.5" y="-201.5" font-family="Helvetica,sans-Serif" font-size="10.00">+</text>
<text text-anchor="start" x="509.5" y="-201.5" font-family="Helvetica,sans-Serif" font-size="10.00">pinMode()</text>
<text text-anchor="start" x="496.5" y="-186.5" font-family="Helvetica,sans-Serif" font-size="10.00">+</text>
<text text-anchor="start" x="509.5" y="-186.5" font-family="Helvetica,sans-Serif" font-size="10.00">pinModeBuffered()</text>
<text text-anchor="start" x="496.5" y="-171.5" font-family="Helvetica,sans-Serif" font-size="10.00">+</text>
<text text-anchor="start" x="509.5" y="-171.5" font-family="Helvetica,sans-Serif" font-size="10.00">digitalWrite()</text>
<text text-anchor="start" x="496.5" y="-156.5" font-family="Helvetica,sans-Serif" font-size="10.00">+</text>
<text text-anchor="start" x="509.5" y="-156.5" font-family="Helvetica,sans-Serif" font-size="10.00">digitalWriteBuffered()</text>
<text text-anchor="start" x="496.5" y="-141.5" font-family="Helvetica,sans-Serif" font-size="10.00">+</text>
<text text-anchor="start" x="509.5" y="-141.5" font-family="Helvetica,sans-Serif" font-size="10.00">digitalRead()</text>
<text text-anchor="start" x="496.5" y="-126.5" font-family="Helvetica,sans-Serif" font-size="10.00">+</text>
<text text-anchor="start" x="509.5" y="-126.5" font-family="Helvetica,sans-Serif" font-size="10.00">digitalReadBuffered()</text>
<text text-anchor="start" x="496.5" y="-111.5" font-family="Helvetica,sans-Serif" font-size="10.00">+</text>
<text text-anchor="start" x="509.5" y="-111.5" font-family="Helvetica,sans-Serif" font-size="10.00">analogRead()</text>
<text text-anchor="start" x="496.5" y="-96.5" font-family="Helvetica,sans-Serif" font-size="10.00">+</text>
<text text-anchor="start" x="509.5" y="-96.5" font-family="Helvetica,sans-Serif" font-size="10.00">analogReadBuffered()</text>
<text text-anchor="start" x="496.5" y="-81.5" font-family="Helvetica,sans-Serif" font-size="10.00">+</text>
<text text-anchor="start" x="509.5" y="-81.5" font-family="Helvetica,sans-Serif" font-size="10.00">analogWrite()</text>
<text text-anchor="start" x="496.5" y="-66.5" font-family="Helvetica,sans-Serif" font-size="10.00">+</text>
<text text-anchor="start" x="509.5" y="-66.5" font-family="Helvetica,sans-Serif" font-size="10.00">analogWriteBuffered()</text>
<text text-anchor="start" x="496.5" y="-51.5" font-family="Helvetica,sans-Serif" font-size="10.00">+</text>
<text text-anchor="start" x="509.5" y="-51.5" font-family="Helvetica,sans-Serif" font-size="10.00">updateBufferedOutputRow()</text>
<text text-anchor="start" x="496.5" y="-36.5" font-family="Helvetica,sans-Serif" font-size="10.00">+</text>
<text text-anchor="start" x="509.5" y="-36.5" font-family="Helvetica,sans-Serif" font-size="10.00">updateBufferedOutputs()</text>
<text text-anchor="start" x="496.5" y="-21.5" font-family="Helvetica,sans-Serif" font-size="10.00">+</text>
<text text-anchor="start" x="509.5" y="-21.5" font-family="Helvetica,sans-Serif" font-size="10.00">updateBufferedInputs()</text>
<text text-anchor="start" x="499" y="-6.5" font-family="Helvetica,sans-Serif" font-size="10.00">&#45;</text>
<text text-anchor="start" x="509.5" y="-6.5" font-family="Helvetica,sans-Serif" font-size="10.00">pin2index()</text>
<polygon fill="#666666" stroke="#666666" points="492.5,-256.5 492.5,-256.5 650.5,-256.5 650.5,-256.5 492.5,-256.5"/>
<polygon fill="#666666" stroke="#666666" points="492.5,-241.5 492.5,-241.5 507.5,-241.5 507.5,-241.5 492.5,-241.5"/>
<polygon fill="#666666" stroke="#666666" points="507.5,-241.5 507.5,-241.5 650.5,-241.5 650.5,-241.5 507.5,-241.5"/>
<polygon fill="none" stroke="#666666" points="492.5,0 492.5,-285 650.5,-285 650.5,0 492.5,0"/>
</a>
</g>
</g>
<!-- Node2 -->
<g id="Node000002" class="node">
<title>Node2</title>
<g id="a_Node000002"><a xlink:href="../../dd/de5/classAH_1_1MAX7219__Base.html" target="_top" xlink:title="A base class for classes that control MAX7219 LED drivers.">
<polygon fill="white" stroke="transparent" points="610.5,-1029 456.5,-1029 456.5,-725 610.5,-725 610.5,-1029"/>
<text text-anchor="start" x="461.5" y="-1017" font-family="Helvetica,sans-Serif" font-size="10.00">MAX7219_Base&lt; SPIDriver &gt;</text>
<text text-anchor="start" x="472.5" y="-1002" font-family="Helvetica,sans-Serif" font-size="10.00">+</text>
<text text-anchor="start" x="497.5" y="-1002" font-family="Helvetica,sans-Serif" font-size="10.00">settings</text>
<text text-anchor="start" x="472.5" y="-987" font-family="Helvetica,sans-Serif" font-size="10.00">+</text>
<text text-anchor="start" x="497.5" y="-987" font-family="Helvetica,sans-Serif" font-size="10.00">DECODEMODE</text>
<text text-anchor="start" x="472.5" y="-972" font-family="Helvetica,sans-Serif" font-size="10.00">+</text>
<text text-anchor="start" x="497.5" y="-972" font-family="Helvetica,sans-Serif" font-size="10.00">INTENSITY</text>
<text text-anchor="start" x="472.5" y="-957" font-family="Helvetica,sans-Serif" font-size="10.00">+</text>
<text text-anchor="start" x="497.5" y="-957" font-family="Helvetica,sans-Serif" font-size="10.00">SCANLIMIT</text>
<text text-anchor="start" x="472.5" y="-942" font-family="Helvetica,sans-Serif" font-size="10.00">+</text>
<text text-anchor="start" x="497.5" y="-942" font-family="Helvetica,sans-Serif" font-size="10.00">SHUTDOWN</text>
<text text-anchor="start" x="472.5" y="-927" font-family="Helvetica,sans-Serif" font-size="10.00">+</text>
<text text-anchor="start" x="497.5" y="-927" font-family="Helvetica,sans-Serif" font-size="10.00">DISPLAYTEST</text>
<text text-anchor="start" x="475" y="-912" font-family="Helvetica,sans-Serif" font-size="10.00">&#45;</text>
<text text-anchor="start" x="497.5" y="-912" font-family="Helvetica,sans-Serif" font-size="10.00">spi</text>
<text text-anchor="start" x="475" y="-897" font-family="Helvetica,sans-Serif" font-size="10.00">&#45;</text>
<text text-anchor="start" x="497.5" y="-897" font-family="Helvetica,sans-Serif" font-size="10.00">chainlength</text>
<text text-anchor="start" x="472.5" y="-882" font-family="Helvetica,sans-Serif" font-size="10.00">+</text>
<text text-anchor="start" x="497.5" y="-882" font-family="Helvetica,sans-Serif" font-size="10.00">MAX7219_Base()</text>
<text text-anchor="start" x="472.5" y="-867" font-family="Helvetica,sans-Serif" font-size="10.00">+</text>
<text text-anchor="start" x="497.5" y="-867" font-family="Helvetica,sans-Serif" font-size="10.00">begin()</text>
<text text-anchor="start" x="472.5" y="-852" font-family="Helvetica,sans-Serif" font-size="10.00">+</text>
<text text-anchor="start" x="497.5" y="-852" font-family="Helvetica,sans-Serif" font-size="10.00">clear()</text>
<text text-anchor="start" x="472.5" y="-837" font-family="Helvetica,sans-Serif" font-size="10.00">+</text>
<text text-anchor="start" x="497.5" y="-837" font-family="Helvetica,sans-Serif" font-size="10.00">send()</text>
<text text-anchor="start" x="472.5" y="-822" font-family="Helvetica,sans-Serif" font-size="10.00">+</text>
<text text-anchor="start" x="497.5" y="-822" font-family="Helvetica,sans-Serif" font-size="10.00">sendRowAll()</text>
<text text-anchor="start" x="472.5" y="-807" font-family="Helvetica,sans-Serif" font-size="10.00">+</text>
<text text-anchor="start" x="497.5" y="-807" font-family="Helvetica,sans-Serif" font-size="10.00">sendAll()</text>
<text text-anchor="start" x="472.5" y="-792" font-family="Helvetica,sans-Serif" font-size="10.00">+</text>
<text text-anchor="start" x="497.5" y="-792" font-family="Helvetica,sans-Serif" font-size="10.00">sendRawAll()</text>
<text text-anchor="start" x="472.5" y="-777" font-family="Helvetica,sans-Serif" font-size="10.00">+</text>
<text text-anchor="start" x="497.5" y="-777" font-family="Helvetica,sans-Serif" font-size="10.00">sendRaw()</text>
<text text-anchor="start" x="472.5" y="-762" font-family="Helvetica,sans-Serif" font-size="10.00">+</text>
<text text-anchor="start" x="497.5" y="-762" font-family="Helvetica,sans-Serif" font-size="10.00">setIntensity()</text>
<text text-anchor="start" x="472.5" y="-747" font-family="Helvetica,sans-Serif" font-size="10.00">+</text>
<text text-anchor="start" x="497.5" y="-747" font-family="Helvetica,sans-Serif" font-size="10.00">setIntensity()</text>
<text text-anchor="start" x="472.5" y="-732" font-family="Helvetica,sans-Serif" font-size="10.00">+</text>
<text text-anchor="start" x="497.5" y="-732" font-family="Helvetica,sans-Serif" font-size="10.00">getChainLength()</text>
<polygon fill="#666666" stroke="#666666" points="456.5,-1012 456.5,-1012 610.5,-1012 610.5,-1012 456.5,-1012"/>
<polygon fill="#666666" stroke="#666666" points="456.5,-892 456.5,-892 495.5,-892 495.5,-892 456.5,-892"/>
<polygon fill="#666666" stroke="#666666" points="495.5,-892 495.5,-892 610.5,-892 610.5,-892 495.5,-892"/>
<polygon fill="none" stroke="#666666" points="456.5,-725 456.5,-1029 610.5,-1029 610.5,-725 456.5,-725"/>
</a>
</g>
</g>
<!-- Node2&#45;&gt;Node1 -->
<g id="edge1_Node000001_Node000002" class="edge">
<title>Node2&#45;&gt;Node1</title>
<g id="a_edge1_Node000001_Node000002"><a xlink:title=" ">
<path fill="none" stroke="#63b8ff" d="M551.91,-714.79C552.11,-712.17 552.31,-709.58 552.5,-707 562.96,-563.61 567.67,-399.27 569.79,-285.22"/>
<polygon fill="none" stroke="#63b8ff" points="548.4,-714.7 551.07,-724.95 555.38,-715.27 548.4,-714.7"/>
</a>
</g>
</g>
<!-- Node3 -->
<g id="Node000003" class="node">
<title>Node3</title>
<g id="a_Node000003"><a xlink:href="../../d7/de2/structAH_1_1ExtIO_1_1pin__t.html" target="_top" xlink:title="Type for storing pin numbers of Extended Input/Output elements.">
<polygon fill="white" stroke="transparent" points="436,-1709 349,-1709 349,-1555 436,-1555 436,-1709"/>
<text text-anchor="start" x="380.5" y="-1697" font-family="Helvetica,sans-Serif" font-size="10.00">pin_t</text>
<text text-anchor="start" x="353.5" y="-1682" font-family="Helvetica,sans-Serif" font-size="10.00">+</text>
<text text-anchor="start" x="366.5" y="-1682" font-family="Helvetica,sans-Serif" font-size="10.00">pin</text>
<text text-anchor="start" x="353.5" y="-1667" font-family="Helvetica,sans-Serif" font-size="10.00">+</text>
<text text-anchor="start" x="366.5" y="-1667" font-family="Helvetica,sans-Serif" font-size="10.00">pin_t()</text>
<text text-anchor="start" x="353.5" y="-1652" font-family="Helvetica,sans-Serif" font-size="10.00">+</text>
<text text-anchor="start" x="366.5" y="-1652" font-family="Helvetica,sans-Serif" font-size="10.00">pin_t()</text>
<text text-anchor="start" x="353.5" y="-1637" font-family="Helvetica,sans-Serif" font-size="10.00">+</text>
<text text-anchor="start" x="366.5" y="-1637" font-family="Helvetica,sans-Serif" font-size="10.00">operator+=()</text>
<text text-anchor="start" x="353.5" y="-1622" font-family="Helvetica,sans-Serif" font-size="10.00">+</text>
<text text-anchor="start" x="366.5" y="-1622" font-family="Helvetica,sans-Serif" font-size="10.00">operator++()</text>
<text text-anchor="start" x="353.5" y="-1607" font-family="Helvetica,sans-Serif" font-size="10.00">+</text>
<text text-anchor="start" x="366.5" y="-1607" font-family="Helvetica,sans-Serif" font-size="10.00">operator++()</text>
<text text-anchor="start" x="353.5" y="-1592" font-family="Helvetica,sans-Serif" font-size="10.00">+</text>
<text text-anchor="start" x="366.5" y="-1592" font-family="Helvetica,sans-Serif" font-size="10.00">operator&#45;=()</text>
<text text-anchor="start" x="353.5" y="-1577" font-family="Helvetica,sans-Serif" font-size="10.00">+</text>
<text text-anchor="start" x="366.5" y="-1577" font-family="Helvetica,sans-Serif" font-size="10.00">operator&#45;&#45;()</text>
<text text-anchor="start" x="353.5" y="-1562" font-family="Helvetica,sans-Serif" font-size="10.00">+</text>
<text text-anchor="start" x="366.5" y="-1562" font-family="Helvetica,sans-Serif" font-size="10.00">operator&#45;&#45;()</text>
<polygon fill="#666666" stroke="#666666" points="349.5,-1692 349.5,-1692 436.5,-1692 436.5,-1692 349.5,-1692"/>
<polygon fill="#666666" stroke="#666666" points="349.5,-1677 349.5,-1677 364.5,-1677 364.5,-1677 349.5,-1677"/>
<polygon fill="#666666" stroke="#666666" points="364.5,-1677 364.5,-1677 436.5,-1677 436.5,-1677 364.5,-1677"/>
<polygon fill="none" stroke="#666666" points="349,-1555 349,-1709 436,-1709 436,-1555 349,-1555"/>
</a>
</g>
</g>
<!-- Node3&#45;&gt;Node2 -->
<g id="edge2_Node000002_Node000003" class="edge">
<title>Node3&#45;&gt;Node2</title>
<g id="a_edge2_Node000002_Node000003"><a xlink:title=" ">
<path fill="none" stroke="#63b8ff" d="M409.78,-1554.87C411.06,-1548.83 412.32,-1542.82 413.5,-1537 447.67,-1368.42 482.41,-1174.65 505.66,-1041.08"/>
<polygon fill="none" stroke="#63b8ff" points="505.68,-1040.97 502.76,-1034.38 507.73,-1029.15 510.65,-1035.75 505.68,-1040.97"/>
</a>
</g>
<text text-anchor="middle" x="441" y="-1518" font-family="Helvetica,sans-Serif" font-size="10.00" fill="grey"> &#45;loadPin</text>
</g>
<!-- Node5 -->
<g id="Node000005" class="node">
<title>Node5</title>
<g id="a_Node000005"><a xlink:href="../../d2/dda/classAH_1_1ExtendedIOElement.html" target="_top" xlink:title="An abstract base class for Extended Input/Output elements.">
<polygon fill="white" stroke="transparent" points="414,-1486 259,-1486 259,-1047 414,-1047 414,-1486"/>
<text text-anchor="start" x="288.5" y="-1473.5" font-family="Helvetica,sans-Serif" font-size="10.00">ExtendedIOElement</text>
<text text-anchor="start" x="266" y="-1458.5" font-family="Helvetica,sans-Serif" font-size="10.00">&#45;</text>
<text text-anchor="start" x="276.5" y="-1458.5" font-family="Helvetica,sans-Serif" font-size="10.00">length</text>
<text text-anchor="start" x="263.5" y="-1443.5" font-family="Helvetica,sans-Serif" font-size="10.00">+</text>
<text text-anchor="start" x="276.5" y="-1443.5" font-family="Helvetica,sans-Serif" font-size="10.00">pinMode()</text>
<text text-anchor="start" x="263.5" y="-1428.5" font-family="Helvetica,sans-Serif" font-size="10.00">+</text>
<text text-anchor="start" x="276.5" y="-1428.5" font-family="Helvetica,sans-Serif" font-size="10.00">pinModeBuffered()</text>
<text text-anchor="start" x="263.5" y="-1413.5" font-family="Helvetica,sans-Serif" font-size="10.00">+</text>
<text text-anchor="start" x="276.5" y="-1413.5" font-family="Helvetica,sans-Serif" font-size="10.00">digitalWrite()</text>
<text text-anchor="start" x="263.5" y="-1398.5" font-family="Helvetica,sans-Serif" font-size="10.00">+</text>
<text text-anchor="start" x="276.5" y="-1398.5" font-family="Helvetica,sans-Serif" font-size="10.00">digitalWriteBuffered()</text>
<text text-anchor="start" x="263.5" y="-1383.5" font-family="Helvetica,sans-Serif" font-size="10.00">+</text>
<text text-anchor="start" x="276.5" y="-1383.5" font-family="Helvetica,sans-Serif" font-size="10.00">digitalRead()</text>
<text text-anchor="start" x="263.5" y="-1368.5" font-family="Helvetica,sans-Serif" font-size="10.00">+</text>
<text text-anchor="start" x="276.5" y="-1368.5" font-family="Helvetica,sans-Serif" font-size="10.00">digitalReadBuffered()</text>
<text text-anchor="start" x="263.5" y="-1353.5" font-family="Helvetica,sans-Serif" font-size="10.00">+</text>
<text text-anchor="start" x="276.5" y="-1353.5" font-family="Helvetica,sans-Serif" font-size="10.00">analogWrite()</text>
<text text-anchor="start" x="263.5" y="-1338.5" font-family="Helvetica,sans-Serif" font-size="10.00">+</text>
<text text-anchor="start" x="276.5" y="-1338.5" font-family="Helvetica,sans-Serif" font-size="10.00">analogWriteBuffered()</text>
<text text-anchor="start" x="263.5" y="-1323.5" font-family="Helvetica,sans-Serif" font-size="10.00">+</text>
<text text-anchor="start" x="276.5" y="-1323.5" font-family="Helvetica,sans-Serif" font-size="10.00">analogRead()</text>
<text text-anchor="start" x="263.5" y="-1308.5" font-family="Helvetica,sans-Serif" font-size="10.00">+</text>
<text text-anchor="start" x="276.5" y="-1308.5" font-family="Helvetica,sans-Serif" font-size="10.00">analogReadBuffered()</text>
<text text-anchor="start" x="263.5" y="-1293.5" font-family="Helvetica,sans-Serif" font-size="10.00">+</text>
<text text-anchor="start" x="276.5" y="-1293.5" font-family="Helvetica,sans-Serif" font-size="10.00">begin()</text>
<text text-anchor="start" x="263.5" y="-1278.5" font-family="Helvetica,sans-Serif" font-size="10.00">+</text>
<text text-anchor="start" x="276.5" y="-1278.5" font-family="Helvetica,sans-Serif" font-size="10.00">updateBufferedOutputs()</text>
<text text-anchor="start" x="263.5" y="-1263.5" font-family="Helvetica,sans-Serif" font-size="10.00">+</text>
<text text-anchor="start" x="276.5" y="-1263.5" font-family="Helvetica,sans-Serif" font-size="10.00">updateBufferedInputs()</text>
<text text-anchor="start" x="263.5" y="-1248.5" font-family="Helvetica,sans-Serif" font-size="10.00">+</text>
<text text-anchor="start" x="276.5" y="-1248.5" font-family="Helvetica,sans-Serif" font-size="10.00">pin()</text>
<text text-anchor="start" x="263.5" y="-1233.5" font-family="Helvetica,sans-Serif" font-size="10.00">+</text>
<text text-anchor="start" x="276.5" y="-1233.5" font-family="Helvetica,sans-Serif" font-size="10.00">operator[]()</text>
<text text-anchor="start" x="263.5" y="-1218.5" font-family="Helvetica,sans-Serif" font-size="10.00">+</text>
<text text-anchor="start" x="276.5" y="-1218.5" font-family="Helvetica,sans-Serif" font-size="10.00">getLength()</text>
<text text-anchor="start" x="263.5" y="-1203.5" font-family="Helvetica,sans-Serif" font-size="10.00">+</text>
<text text-anchor="start" x="276.5" y="-1203.5" font-family="Helvetica,sans-Serif" font-size="10.00">getEnd()</text>
<text text-anchor="start" x="263.5" y="-1188.5" font-family="Helvetica,sans-Serif" font-size="10.00">+</text>
<text text-anchor="start" x="276.5" y="-1188.5" font-family="Helvetica,sans-Serif" font-size="10.00">getStart()</text>
<text text-anchor="start" x="263.5" y="-1173.5" font-family="Helvetica,sans-Serif" font-size="10.00">+</text>
<text text-anchor="start" x="276.5" y="-1173.5" font-family="Helvetica,sans-Serif" font-size="10.00">beginAll()</text>
<text text-anchor="start" x="263.5" y="-1158.5" font-family="Helvetica,sans-Serif" font-size="10.00">+</text>
<text text-anchor="start" x="276.5" y="-1158.5" font-family="Helvetica,sans-Serif" font-size="10.00">updateAllBufferedOutputs()</text>
<text text-anchor="start" x="263.5" y="-1143.5" font-family="Helvetica,sans-Serif" font-size="10.00">+</text>
<text text-anchor="start" x="276.5" y="-1143.5" font-family="Helvetica,sans-Serif" font-size="10.00">updateAllBufferedInputs()</text>
<text text-anchor="start" x="263.5" y="-1128.5" font-family="Helvetica,sans-Serif" font-size="10.00">+</text>
<text text-anchor="start" x="276.5" y="-1128.5" font-family="Helvetica,sans-Serif" font-size="10.00">getAll()</text>
<text text-anchor="start" x="263.5" y="-1113.5" font-family="Helvetica,sans-Serif" font-size="10.00">#</text>
<text text-anchor="start" x="276.5" y="-1113.5" font-family="Helvetica,sans-Serif" font-size="10.00">ExtendedIOElement()</text>
<text text-anchor="start" x="263.5" y="-1098.5" font-family="Helvetica,sans-Serif" font-size="10.00">#</text>
<text text-anchor="start" x="276.5" y="-1098.5" font-family="Helvetica,sans-Serif" font-size="10.00">ExtendedIOElement()</text>
<text text-anchor="start" x="263.5" y="-1083.5" font-family="Helvetica,sans-Serif" font-size="10.00">#</text>
<text text-anchor="start" x="276.5" y="-1083.5" font-family="Helvetica,sans-Serif" font-size="10.00">operator=()</text>
<text text-anchor="start" x="263.5" y="-1068.5" font-family="Helvetica,sans-Serif" font-size="10.00">#</text>
<text text-anchor="start" x="276.5" y="-1068.5" font-family="Helvetica,sans-Serif" font-size="10.00">ExtendedIOElement()</text>
<text text-anchor="start" x="263.5" y="-1053.5" font-family="Helvetica,sans-Serif" font-size="10.00">#</text>
<text text-anchor="start" x="276.5" y="-1053.5" font-family="Helvetica,sans-Serif" font-size="10.00">operator=()</text>
<polygon fill="#666666" stroke="#666666" points="259.5,-1468.5 259.5,-1468.5 414.5,-1468.5 414.5,-1468.5 259.5,-1468.5"/>
<polygon fill="#666666" stroke="#666666" points="259.5,-1453.5 259.5,-1453.5 274.5,-1453.5 274.5,-1453.5 259.5,-1453.5"/>
<polygon fill="#666666" stroke="#666666" points="274.5,-1453.5 274.5,-1453.5 414.5,-1453.5 414.5,-1453.5 274.5,-1453.5"/>
<polygon fill="none" stroke="#666666" points="259,-1047 259,-1486 414,-1486 414,-1047 259,-1047"/>
</a>
</g>
</g>
<!-- Node3&#45;&gt;Node5 -->
<g id="edge9_Node000005_Node000003" class="edge">
<title>Node3&#45;&gt;Node5</title>
<g id="a_edge9_Node000005_Node000003"><a xlink:title=" ">
<path fill="none" stroke="#63b8ff" d="M380.76,-1554.8C378.09,-1537.48 375.12,-1518.21 372.02,-1498.08"/>
<polygon fill="none" stroke="#63b8ff" points="372.01,-1497.99 367.14,-1492.67 370.18,-1486.13 375.05,-1491.45 372.01,-1497.99"/>
</a>
</g>
<text text-anchor="middle" x="393.5" y="-1529" font-family="Helvetica,sans-Serif" font-size="10.00" fill="grey"> &#45;end</text>
<text text-anchor="middle" x="393.5" y="-1518" font-family="Helvetica,sans-Serif" font-size="10.00" fill="grey">&#45;offset</text>
<text text-anchor="middle" x="393.5" y="-1507" font-family="Helvetica,sans-Serif" font-size="10.00" fill="grey">&#45;start</text>
</g>
<!-- Node4 -->
<g id="Node000004" class="node">
<title>Node4</title>
<g id="a_Node000004"><a xlink:href="../../d6/d57/classAH_1_1StaticSizeExtendedIOElement.html" target="_top" xlink:title="A class for ExtendedIOElements with a fixed size.">
<polygon fill="white" stroke="transparent" points="544,-559 359,-559 359,-480 544,-480 544,-559"/>
<text text-anchor="start" x="364.5" y="-546.5" font-family="Helvetica,sans-Serif" font-size="10.00">StaticSizeExtendedIOElement&lt; N &gt;</text>
<text text-anchor="start" x="450" y="-531.5" font-family="Helvetica,sans-Serif" font-size="10.00"> </text>
<text text-anchor="start" x="366" y="-516.5" font-family="Helvetica,sans-Serif" font-size="10.00">+</text>
<text text-anchor="start" x="381.5" y="-516.5" font-family="Helvetica,sans-Serif" font-size="10.00">pins()</text>
<text text-anchor="start" x="366" y="-501.5" font-family="Helvetica,sans-Serif" font-size="10.00">+</text>
<text text-anchor="start" x="381.5" y="-501.5" font-family="Helvetica,sans-Serif" font-size="10.00">length()</text>
<text text-anchor="start" x="366" y="-486.5" font-family="Helvetica,sans-Serif" font-size="10.00">#</text>
<text text-anchor="start" x="381.5" y="-486.5" font-family="Helvetica,sans-Serif" font-size="10.00">StaticSizeExtendedIOElement()</text>
<polygon fill="#666666" stroke="#666666" points="359.5,-541.5 359.5,-541.5 544.5,-541.5 544.5,-541.5 359.5,-541.5"/>
<polygon fill="#666666" stroke="#666666" points="359.5,-526.5 359.5,-526.5 544.5,-526.5 544.5,-526.5 359.5,-526.5"/>
<polygon fill="none" stroke="#666666" points="359,-480 359,-559 544,-559 544,-480 359,-480"/>
</a>
</g>
</g>
<!-- Node4&#45;&gt;Node1 -->
<g id="edge3_Node000001_Node000004" class="edge">
<title>Node4&#45;&gt;Node1</title>
<g id="a_edge3_Node000001_Node000004"><a xlink:title=" ">
<path fill="none" stroke="#63b8ff" d="M466.95,-470.22C481.9,-423.49 505.32,-350.32 526.2,-285.07"/>
<polygon fill="none" stroke="#63b8ff" points="463.6,-469.19 463.89,-479.78 470.27,-471.32 463.6,-469.19"/>
</a>
</g>
</g>
<!-- Node5&#45;&gt;Node4 -->
<g id="edge4_Node000004_Node000005" class="edge">
<title>Node5&#45;&gt;Node4</title>
<g id="a_edge4_Node000004_Node000005"><a xlink:title=" ">
<path fill="none" stroke="#63b8ff" d="M371.8,-1036.84C398.23,-865.62 432.05,-646.48 445.55,-559.04"/>
<polygon fill="none" stroke="#63b8ff" points="368.33,-1036.34 370.27,-1046.76 375.25,-1037.41 368.33,-1036.34"/>
</a>
</g>
</g>
<!-- Node8 -->
<g id="Node000008" class="node">
<title>Node8</title>
<g id="a_Node000008"><a xlink:href="../../dd/d16/classDoublyLinkedList.html" target="_top" xlink:title=" ">
<polygon fill="white" stroke="transparent" points="151,-707 0,-707 0,-332 151,-332 151,-707"/>
<text text-anchor="start" x="5.5" y="-694.5" font-family="Helvetica,sans-Serif" font-size="10.00">DoublyLinkedList&lt; Extended</text>
<text text-anchor="start" x="44.5" y="-683.5" font-family="Helvetica,sans-Serif" font-size="10.00">IOElement &gt;</text>
<text text-anchor="start" x="74" y="-668.5" font-family="Helvetica,sans-Serif" font-size="10.00"> </text>
<text text-anchor="start" x="19" y="-653.5" font-family="Helvetica,sans-Serif" font-size="10.00">+</text>
<text text-anchor="start" x="46.5" y="-653.5" font-family="Helvetica,sans-Serif" font-size="10.00">append()</text>
<text text-anchor="start" x="19" y="-638.5" font-family="Helvetica,sans-Serif" font-size="10.00">+</text>
<text text-anchor="start" x="46.5" y="-638.5" font-family="Helvetica,sans-Serif" font-size="10.00">append()</text>
<text text-anchor="start" x="19" y="-623.5" font-family="Helvetica,sans-Serif" font-size="10.00">+</text>
<text text-anchor="start" x="46.5" y="-623.5" font-family="Helvetica,sans-Serif" font-size="10.00">insertBefore()</text>
<text text-anchor="start" x="19" y="-608.5" font-family="Helvetica,sans-Serif" font-size="10.00">+</text>
<text text-anchor="start" x="46.5" y="-608.5" font-family="Helvetica,sans-Serif" font-size="10.00">insertBefore()</text>
<text text-anchor="start" x="19" y="-593.5" font-family="Helvetica,sans-Serif" font-size="10.00">+</text>
<text text-anchor="start" x="46.5" y="-593.5" font-family="Helvetica,sans-Serif" font-size="10.00">insertSorted()</text>
<text text-anchor="start" x="19" y="-578.5" font-family="Helvetica,sans-Serif" font-size="10.00">+</text>
<text text-anchor="start" x="46.5" y="-578.5" font-family="Helvetica,sans-Serif" font-size="10.00">insertSorted()</text>
<text text-anchor="start" x="19" y="-563.5" font-family="Helvetica,sans-Serif" font-size="10.00">+</text>
<text text-anchor="start" x="46.5" y="-563.5" font-family="Helvetica,sans-Serif" font-size="10.00">remove()</text>
<text text-anchor="start" x="19" y="-548.5" font-family="Helvetica,sans-Serif" font-size="10.00">+</text>
<text text-anchor="start" x="46.5" y="-548.5" font-family="Helvetica,sans-Serif" font-size="10.00">remove()</text>
<text text-anchor="start" x="19" y="-533.5" font-family="Helvetica,sans-Serif" font-size="10.00">+</text>
<text text-anchor="start" x="46.5" y="-533.5" font-family="Helvetica,sans-Serif" font-size="10.00">moveDown()</text>
<text text-anchor="start" x="19" y="-518.5" font-family="Helvetica,sans-Serif" font-size="10.00">+</text>
<text text-anchor="start" x="46.5" y="-518.5" font-family="Helvetica,sans-Serif" font-size="10.00">moveDown()</text>
<text text-anchor="start" x="19" y="-503.5" font-family="Helvetica,sans-Serif" font-size="10.00">+</text>
<text text-anchor="start" x="46.5" y="-503.5" font-family="Helvetica,sans-Serif" font-size="10.00">couldContain()</text>
<text text-anchor="start" x="19" y="-488.5" font-family="Helvetica,sans-Serif" font-size="10.00">+</text>
<text text-anchor="start" x="46.5" y="-488.5" font-family="Helvetica,sans-Serif" font-size="10.00">couldContain()</text>
<text text-anchor="start" x="19" y="-473.5" font-family="Helvetica,sans-Serif" font-size="10.00">+</text>
<text text-anchor="start" x="46.5" y="-473.5" font-family="Helvetica,sans-Serif" font-size="10.00">begin()</text>
<text text-anchor="start" x="19" y="-458.5" font-family="Helvetica,sans-Serif" font-size="10.00">+</text>
<text text-anchor="start" x="46.5" y="-458.5" font-family="Helvetica,sans-Serif" font-size="10.00">begin()</text>
<text text-anchor="start" x="19" y="-443.5" font-family="Helvetica,sans-Serif" font-size="10.00">+</text>
<text text-anchor="start" x="46.5" y="-443.5" font-family="Helvetica,sans-Serif" font-size="10.00">end()</text>
<text text-anchor="start" x="19" y="-428.5" font-family="Helvetica,sans-Serif" font-size="10.00">+</text>
<text text-anchor="start" x="46.5" y="-428.5" font-family="Helvetica,sans-Serif" font-size="10.00">end()</text>
<text text-anchor="start" x="19" y="-413.5" font-family="Helvetica,sans-Serif" font-size="10.00">+</text>
<text text-anchor="start" x="46.5" y="-413.5" font-family="Helvetica,sans-Serif" font-size="10.00">rbegin()</text>
<text text-anchor="start" x="19" y="-398.5" font-family="Helvetica,sans-Serif" font-size="10.00">+</text>
<text text-anchor="start" x="46.5" y="-398.5" font-family="Helvetica,sans-Serif" font-size="10.00">rbegin()</text>
<text text-anchor="start" x="19" y="-383.5" font-family="Helvetica,sans-Serif" font-size="10.00">+</text>
<text text-anchor="start" x="46.5" y="-383.5" font-family="Helvetica,sans-Serif" font-size="10.00">rend()</text>
<text text-anchor="start" x="19" y="-368.5" font-family="Helvetica,sans-Serif" font-size="10.00">+</text>
<text text-anchor="start" x="46.5" y="-368.5" font-family="Helvetica,sans-Serif" font-size="10.00">rend()</text>
<text text-anchor="start" x="19" y="-353.5" font-family="Helvetica,sans-Serif" font-size="10.00">+</text>
<text text-anchor="start" x="46.5" y="-353.5" font-family="Helvetica,sans-Serif" font-size="10.00">getFirst()</text>
<text text-anchor="start" x="19" y="-338.5" font-family="Helvetica,sans-Serif" font-size="10.00">+</text>
<text text-anchor="start" x="46.5" y="-338.5" font-family="Helvetica,sans-Serif" font-size="10.00">getLast()</text>
<polygon fill="#666666" stroke="#666666" points="0.5,-678.5 0.5,-678.5 151.5,-678.5 151.5,-678.5 0.5,-678.5"/>
<polygon fill="#666666" stroke="#666666" points="0.5,-663.5 0.5,-663.5 151.5,-663.5 151.5,-663.5 0.5,-663.5"/>
<polygon fill="none" stroke="#666666" points="0,-332 0,-707 151,-707 151,-332 0,-332"/>
</a>
</g>
</g>
<!-- Node5&#45;&gt;Node8 -->
<g id="edge8_Node000008_Node000005" class="edge">
<title>Node5&#45;&gt;Node8</title>
<g id="a_edge8_Node000008_Node000005"><a xlink:title=" ">
<path fill="none" stroke="#63b8ff" d="M259.87,-1046.76C223.48,-942.9 180.32,-819.69 144.9,-718.61"/>
<polygon fill="none" stroke="#63b8ff" points="144.81,-718.35 139.05,-714.01 140.85,-707.02 146.6,-711.36 144.81,-718.35"/>
</a>
</g>
<text text-anchor="middle" x="265.5" y="-880" font-family="Helvetica,sans-Serif" font-size="10.00" fill="grey"> &#45;first</text>
<text text-anchor="middle" x="265.5" y="-869" font-family="Helvetica,sans-Serif" font-size="10.00" fill="grey">&#45;last</text>
</g>
<!-- Node6 -->
<g id="Node000006" class="node">
<title>Node6</title>
<g id="a_Node000006"><a xlink:href="../../d8/d1a/classAH_1_1UpdatableCRTP.html" target="_top" xlink:title=" ">
<polygon fill="white" stroke="transparent" points="339,-279.5 134,-279.5 134,-5.5 339,-5.5 339,-279.5"/>
<text text-anchor="start" x="139.5" y="-267.5" font-family="Helvetica,sans-Serif" font-size="10.00">UpdatableCRTP&lt; ExtendedIOElement &gt;</text>
<text text-anchor="start" x="235" y="-252.5" font-family="Helvetica,sans-Serif" font-size="10.00"> </text>
<text text-anchor="start" x="161.5" y="-237.5" font-family="Helvetica,sans-Serif" font-size="10.00">+</text>
<text text-anchor="start" x="197.5" y="-237.5" font-family="Helvetica,sans-Serif" font-size="10.00">~UpdatableCRTP()</text>
<text text-anchor="start" x="161.5" y="-222.5" font-family="Helvetica,sans-Serif" font-size="10.00">#</text>
<text text-anchor="start" x="197.5" y="-222.5" font-family="Helvetica,sans-Serif" font-size="10.00">UpdatableCRTP()</text>
<text text-anchor="start" x="161.5" y="-207.5" font-family="Helvetica,sans-Serif" font-size="10.00">#</text>
<text text-anchor="start" x="197.5" y="-207.5" font-family="Helvetica,sans-Serif" font-size="10.00">UpdatableCRTP()</text>
<text text-anchor="start" x="161.5" y="-192.5" font-family="Helvetica,sans-Serif" font-size="10.00">#</text>
<text text-anchor="start" x="197.5" y="-192.5" font-family="Helvetica,sans-Serif" font-size="10.00">UpdatableCRTP()</text>
<text text-anchor="start" x="161.5" y="-177.5" font-family="Helvetica,sans-Serif" font-size="10.00">#</text>
<text text-anchor="start" x="197.5" y="-177.5" font-family="Helvetica,sans-Serif" font-size="10.00">operator=()</text>
<text text-anchor="start" x="161.5" y="-162.5" font-family="Helvetica,sans-Serif" font-size="10.00">#</text>
<text text-anchor="start" x="197.5" y="-162.5" font-family="Helvetica,sans-Serif" font-size="10.00">operator=()</text>
<text text-anchor="start" x="163" y="-147.5" font-family="Helvetica,sans-Serif" font-size="10.00">*</text>
<text text-anchor="start" x="197.5" y="-147.5" font-family="Helvetica,sans-Serif" font-size="10.00">enable()</text>
<text text-anchor="start" x="163" y="-132.5" font-family="Helvetica,sans-Serif" font-size="10.00">*</text>
<text text-anchor="start" x="197.5" y="-132.5" font-family="Helvetica,sans-Serif" font-size="10.00">disable()</text>
<text text-anchor="start" x="163" y="-117.5" font-family="Helvetica,sans-Serif" font-size="10.00">*</text>
<text text-anchor="start" x="197.5" y="-117.5" font-family="Helvetica,sans-Serif" font-size="10.00">isEnabled()</text>
<text text-anchor="start" x="163" y="-102.5" font-family="Helvetica,sans-Serif" font-size="10.00">*</text>
<text text-anchor="start" x="197.5" y="-102.5" font-family="Helvetica,sans-Serif" font-size="10.00">moveDown()</text>
<text text-anchor="start" x="163" y="-87.5" font-family="Helvetica,sans-Serif" font-size="10.00">*</text>
<text text-anchor="start" x="197.5" y="-87.5" font-family="Helvetica,sans-Serif" font-size="10.00">enable()</text>
<text text-anchor="start" x="163" y="-72.5" font-family="Helvetica,sans-Serif" font-size="10.00">*</text>
<text text-anchor="start" x="197.5" y="-72.5" font-family="Helvetica,sans-Serif" font-size="10.00">enable()</text>
<text text-anchor="start" x="163" y="-57.5" font-family="Helvetica,sans-Serif" font-size="10.00">*</text>
<text text-anchor="start" x="197.5" y="-57.5" font-family="Helvetica,sans-Serif" font-size="10.00">enable()</text>
<text text-anchor="start" x="163" y="-42.5" font-family="Helvetica,sans-Serif" font-size="10.00">*</text>
<text text-anchor="start" x="197.5" y="-42.5" font-family="Helvetica,sans-Serif" font-size="10.00">disable()</text>
<text text-anchor="start" x="163" y="-27.5" font-family="Helvetica,sans-Serif" font-size="10.00">*</text>
<text text-anchor="start" x="197.5" y="-27.5" font-family="Helvetica,sans-Serif" font-size="10.00">disable()</text>
<text text-anchor="start" x="163" y="-12.5" font-family="Helvetica,sans-Serif" font-size="10.00">*</text>
<text text-anchor="start" x="197.5" y="-12.5" font-family="Helvetica,sans-Serif" font-size="10.00">disable()</text>
<polygon fill="#666666" stroke="#666666" points="134.5,-262.5 134.5,-262.5 339.5,-262.5 339.5,-262.5 134.5,-262.5"/>
<polygon fill="#666666" stroke="#666666" points="134.5,-247.5 134.5,-247.5 339.5,-247.5 339.5,-247.5 134.5,-247.5"/>
<polygon fill="none" stroke="#666666" points="134,-5.5 134,-279.5 339,-279.5 339,-5.5 134,-5.5"/>
</a>
</g>
</g>
<!-- Node6&#45;&gt;Node5 -->
<g id="edge5_Node000005_Node000006" class="edge">
<title>Node6&#45;&gt;Node5</title>
<g id="a_edge5_Node000005_Node000006"><a xlink:title=" ">
<path fill="none" stroke="#63b8ff" d="M301.19,-289.46C305.69,-303.64 309.59,-317.96 312.5,-332 339.73,-463.31 341.79,-814.76 339.84,-1046.98"/>
<polygon fill="none" stroke="#63b8ff" points="304.42,-288.09 297.98,-279.68 297.77,-290.27 304.42,-288.09"/>
</a>
</g>
</g>
<!-- Node7 -->
<g id="Node000007" class="node">
<title>Node7</title>
<g id="a_Node000007"><a xlink:href="../../d4/d23/classDoublyLinkable.html" target="_top" xlink:title="A class that can be inherited from to allow inserting into a DoublyLinkedList.">
<polygon fill="white" stroke="transparent" points="303.5,-589 169.5,-589 169.5,-450 303.5,-450 303.5,-589"/>
<text text-anchor="start" x="174.5" y="-576.5" font-family="Helvetica,sans-Serif" font-size="10.00">DoublyLinkable&lt; Node &gt;</text>
<text text-anchor="start" x="179" y="-561.5" font-family="Helvetica,sans-Serif" font-size="10.00">#</text>
<text text-anchor="start" x="197.5" y="-561.5" font-family="Helvetica,sans-Serif" font-size="10.00">next</text>
<text text-anchor="start" x="179" y="-546.5" font-family="Helvetica,sans-Serif" font-size="10.00">#</text>
<text text-anchor="start" x="197.5" y="-546.5" font-family="Helvetica,sans-Serif" font-size="10.00">previous</text>
<text text-anchor="start" x="179" y="-531.5" font-family="Helvetica,sans-Serif" font-size="10.00">#</text>
<text text-anchor="start" x="197.5" y="-531.5" font-family="Helvetica,sans-Serif" font-size="10.00">~DoublyLinkable()</text>
<text text-anchor="start" x="179" y="-516.5" font-family="Helvetica,sans-Serif" font-size="10.00">#</text>
<text text-anchor="start" x="197.5" y="-516.5" font-family="Helvetica,sans-Serif" font-size="10.00">DoublyLinkable()</text>
<text text-anchor="start" x="179" y="-501.5" font-family="Helvetica,sans-Serif" font-size="10.00">#</text>
<text text-anchor="start" x="197.5" y="-501.5" font-family="Helvetica,sans-Serif" font-size="10.00">DoublyLinkable()</text>
<text text-anchor="start" x="179" y="-486.5" font-family="Helvetica,sans-Serif" font-size="10.00">#</text>
<text text-anchor="start" x="197.5" y="-486.5" font-family="Helvetica,sans-Serif" font-size="10.00">operator=()</text>
<text text-anchor="start" x="179" y="-471.5" font-family="Helvetica,sans-Serif" font-size="10.00">#</text>
<text text-anchor="start" x="197.5" y="-471.5" font-family="Helvetica,sans-Serif" font-size="10.00">DoublyLinkable()</text>
<text text-anchor="start" x="179" y="-456.5" font-family="Helvetica,sans-Serif" font-size="10.00">#</text>
<text text-anchor="start" x="197.5" y="-456.5" font-family="Helvetica,sans-Serif" font-size="10.00">operator=()</text>
<polygon fill="#666666" stroke="#666666" points="169.5,-571.5 169.5,-571.5 303.5,-571.5 303.5,-571.5 169.5,-571.5"/>
<polygon fill="#666666" stroke="#666666" points="169.5,-541.5 169.5,-541.5 195.5,-541.5 195.5,-541.5 169.5,-541.5"/>
<polygon fill="#666666" stroke="#666666" points="195.5,-541.5 195.5,-541.5 303.5,-541.5 303.5,-541.5 195.5,-541.5"/>
<polygon fill="none" stroke="#666666" points="169.5,-450 169.5,-589 303.5,-589 303.5,-450 169.5,-450"/>
</a>
</g>
</g>
<!-- Node7&#45;&gt;Node6 -->
<g id="edge6_Node000006_Node000007" class="edge">
<title>Node7&#45;&gt;Node6</title>
<g id="a_edge6_Node000006_Node000007"><a xlink:title=" ">
<path fill="none" stroke="#63b8ff" d="M236.5,-439.46C236.5,-393.18 236.5,-333.48 236.5,-279.82"/>
<polygon fill="none" stroke="#63b8ff" points="233,-439.72 236.5,-449.72 240,-439.72 233,-439.72"/>
</a>
</g>
</g>
<!-- Node8&#45;&gt;Node6 -->
<g id="edge7_Node000006_Node000008" class="edge">
<title>Node8&#45;&gt;Node6</title>
<g id="a_edge7_Node000006_Node000008"><a xlink:title=" ">
<path fill="none" stroke="#63b8ff" d="M151.03,-339.09C156.25,-326.87 161.44,-314.75 166.5,-303 168.25,-298.94 170.02,-294.83 171.82,-290.68"/>
<polygon fill="none" stroke="#63b8ff" points="171.84,-290.63 170.55,-283.53 176.61,-279.62 177.89,-286.71 171.84,-290.63"/>
</a>
</g>
<text text-anchor="middle" x="199.5" y="-306" font-family="Helvetica,sans-Serif" font-size="10.00" fill="grey"> #updatables</text>
</g>
<!-- Node9 -->
<g id="Node000009" class="node">
<title>Node9</title>
<g id="a_Node000009"><a xlink:href="../../d0/d32/structAH_1_1Array.html" target="_top" xlink:title=" ">
<polygon fill="white" stroke="transparent" points="719,-641.5 600,-641.5 600,-397.5 719,-397.5 719,-641.5"/>
<text text-anchor="start" x="605.5" y="-629.5" font-family="Helvetica,sans-Serif" font-size="10.00">Array&lt; uint8_t, 8 *1 &gt;</text>
<text text-anchor="start" x="612.5" y="-614.5" font-family="Helvetica,sans-Serif" font-size="10.00">+</text>
<text text-anchor="start" x="633.5" y="-614.5" font-family="Helvetica,sans-Serif" font-size="10.00">data</text>
<text text-anchor="start" x="612.5" y="-599.5" font-family="Helvetica,sans-Serif" font-size="10.00">+</text>
<text text-anchor="start" x="633.5" y="-599.5" font-family="Helvetica,sans-Serif" font-size="10.00">length</text>
<text text-anchor="start" x="612.5" y="-584.5" font-family="Helvetica,sans-Serif" font-size="10.00">+</text>
<text text-anchor="start" x="633.5" y="-584.5" font-family="Helvetica,sans-Serif" font-size="10.00">operator[]()</text>
<text text-anchor="start" x="612.5" y="-569.5" font-family="Helvetica,sans-Serif" font-size="10.00">+</text>
<text text-anchor="start" x="633.5" y="-569.5" font-family="Helvetica,sans-Serif" font-size="10.00">operator[]()</text>
<text text-anchor="start" x="612.5" y="-554.5" font-family="Helvetica,sans-Serif" font-size="10.00">+</text>
<text text-anchor="start" x="633.5" y="-554.5" font-family="Helvetica,sans-Serif" font-size="10.00">begin()</text>
<text text-anchor="start" x="612.5" y="-539.5" font-family="Helvetica,sans-Serif" font-size="10.00">+</text>
<text text-anchor="start" x="633.5" y="-539.5" font-family="Helvetica,sans-Serif" font-size="10.00">begin()</text>
<text text-anchor="start" x="612.5" y="-524.5" font-family="Helvetica,sans-Serif" font-size="10.00">+</text>
<text text-anchor="start" x="633.5" y="-524.5" font-family="Helvetica,sans-Serif" font-size="10.00">end()</text>
<text text-anchor="start" x="612.5" y="-509.5" font-family="Helvetica,sans-Serif" font-size="10.00">+</text>
<text text-anchor="start" x="633.5" y="-509.5" font-family="Helvetica,sans-Serif" font-size="10.00">end()</text>
<text text-anchor="start" x="612.5" y="-494.5" font-family="Helvetica,sans-Serif" font-size="10.00">+</text>
<text text-anchor="start" x="633.5" y="-494.5" font-family="Helvetica,sans-Serif" font-size="10.00">operator==()</text>
<text text-anchor="start" x="612.5" y="-479.5" font-family="Helvetica,sans-Serif" font-size="10.00">+</text>
<text text-anchor="start" x="633.5" y="-479.5" font-family="Helvetica,sans-Serif" font-size="10.00">operator!=()</text>
<text text-anchor="start" x="612.5" y="-464.5" font-family="Helvetica,sans-Serif" font-size="10.00">+</text>
<text text-anchor="start" x="633.5" y="-464.5" font-family="Helvetica,sans-Serif" font-size="10.00">slice()</text>
<text text-anchor="start" x="612.5" y="-449.5" font-family="Helvetica,sans-Serif" font-size="10.00">+</text>
<text text-anchor="start" x="633.5" y="-449.5" font-family="Helvetica,sans-Serif" font-size="10.00">slice()</text>
<text text-anchor="start" x="612.5" y="-434.5" font-family="Helvetica,sans-Serif" font-size="10.00">+</text>
<text text-anchor="start" x="633.5" y="-434.5" font-family="Helvetica,sans-Serif" font-size="10.00">slice()</text>
<text text-anchor="start" x="612.5" y="-419.5" font-family="Helvetica,sans-Serif" font-size="10.00">+</text>
<text text-anchor="start" x="633.5" y="-419.5" font-family="Helvetica,sans-Serif" font-size="10.00">slice()</text>
<text text-anchor="start" x="612.5" y="-404.5" font-family="Helvetica,sans-Serif" font-size="10.00">+</text>
<text text-anchor="start" x="633.5" y="-404.5" font-family="Helvetica,sans-Serif" font-size="10.00">cslice()</text>
<polygon fill="#666666" stroke="#666666" points="600.5,-624.5 600.5,-624.5 719.5,-624.5 719.5,-624.5 600.5,-624.5"/>
<polygon fill="#666666" stroke="#666666" points="600.5,-594.5 600.5,-594.5 631.5,-594.5 631.5,-594.5 600.5,-594.5"/>
<polygon fill="#666666" stroke="#666666" points="631.5,-594.5 631.5,-594.5 719.5,-594.5 719.5,-594.5 631.5,-594.5"/>
<polygon fill="none" stroke="#666666" points="600,-397.5 600,-641.5 719,-641.5 719,-397.5 600,-397.5"/>
</a>
</g>
</g>
<!-- Node9&#45;&gt;Node1 -->
<g id="edge10_Node000001_Node000009" class="edge">
<title>Node9&#45;&gt;Node1</title>
<g id="a_edge10_Node000001_Node000009"><a xlink:title=" ">
<path fill="none" stroke="#63b8ff" d="M631.05,-397.27C623.55,-365.3 615.36,-330.38 607.51,-296.96"/>
<polygon fill="none" stroke="#63b8ff" points="607.5,-296.89 602.23,-291.96 604.75,-285.21 610.02,-290.14 607.5,-296.89"/>
</a>
</g>
<text text-anchor="middle" x="628.5" y="-306" font-family="Helvetica,sans-Serif" font-size="10.00" fill="grey"> &#45;buffer</text>
</g>
</g>
</svg>
