<?xml version="1.0" encoding="UTF-8" standalone="no"?>
<!DOCTYPE svg PUBLIC "-//W3C//DTD SVG 1.1//EN"
 "http://www.w3.org/Graphics/SVG/1.1/DTD/svg11.dtd">
<!-- Generated by graphviz version 2.43.0 (0)
 -->
<!-- Title: SmartMIDIFilteredAnalog&lt; NumBanks, BankAddress, Sender &gt; Pages: 1 -->
<svg width="728pt" height="1330pt"
 viewBox="0.00 0.00 727.50 1330.00" xmlns="http://www.w3.org/2000/svg" xmlns:xlink="http://www.w3.org/1999/xlink">
<g id="graph0" class="graph" transform="scale(1 1) rotate(0) translate(4 1326)">
<title>SmartMIDIFilteredAnalog&lt; NumBanks, BankAddress, Sender &gt;</title>
<!-- Node1 -->
<g id="Node000001" class="node">
<title>Node1</title>
<g id="a_Node000001"><a xlink:title="A class for potentiometers and faders that send MIDI events.">
<polygon fill="#999999" stroke="transparent" points="527.5,-281 376.5,-281 376.5,0 527.5,0 527.5,-281"/>
<text text-anchor="start" x="383.5" y="-268.5" font-family="Helvetica,sans-Serif" font-size="10.00">SmartMIDIFilteredAnalog</text>
<text text-anchor="start" x="383.5" y="-257.5" font-family="Helvetica,sans-Serif" font-size="10.00">&lt; NumBanks, BankAddress,</text>
<text text-anchor="start" x="428" y="-246.5" font-family="Helvetica,sans-Serif" font-size="10.00"> Sender &gt;</text>
<text text-anchor="start" x="381" y="-231.5" font-family="Helvetica,sans-Serif" font-size="10.00">+</text>
<text text-anchor="start" x="394" y="-231.5" font-family="Helvetica,sans-Serif" font-size="10.00">sender</text>
<text text-anchor="start" x="381" y="-216.5" font-family="Helvetica,sans-Serif" font-size="10.00">#</text>
<text text-anchor="start" x="394" y="-216.5" font-family="Helvetica,sans-Serif" font-size="10.00">address</text>
<text text-anchor="start" x="381" y="-201.5" font-family="Helvetica,sans-Serif" font-size="10.00">#</text>
<text text-anchor="start" x="394" y="-201.5" font-family="Helvetica,sans-Serif" font-size="10.00">state</text>
<text text-anchor="start" x="381" y="-186.5" font-family="Helvetica,sans-Serif" font-size="10.00">#</text>
<text text-anchor="start" x="394" y="-186.5" font-family="Helvetica,sans-Serif" font-size="10.00">previousBank</text>
<text text-anchor="start" x="381" y="-171.5" font-family="Helvetica,sans-Serif" font-size="10.00">+</text>
<text text-anchor="start" x="394" y="-171.5" font-family="Helvetica,sans-Serif" font-size="10.00">begin()</text>
<text text-anchor="start" x="381" y="-156.5" font-family="Helvetica,sans-Serif" font-size="10.00">+</text>
<text text-anchor="start" x="394" y="-156.5" font-family="Helvetica,sans-Serif" font-size="10.00">update()</text>
<text text-anchor="start" x="381" y="-141.5" font-family="Helvetica,sans-Serif" font-size="10.00">+</text>
<text text-anchor="start" x="394" y="-141.5" font-family="Helvetica,sans-Serif" font-size="10.00">getState()</text>
<text text-anchor="start" x="381" y="-126.5" font-family="Helvetica,sans-Serif" font-size="10.00">+</text>
<text text-anchor="start" x="394" y="-126.5" font-family="Helvetica,sans-Serif" font-size="10.00">activate()</text>
<text text-anchor="start" x="381" y="-111.5" font-family="Helvetica,sans-Serif" font-size="10.00">+</text>
<text text-anchor="start" x="394" y="-111.5" font-family="Helvetica,sans-Serif" font-size="10.00">map()</text>
<text text-anchor="start" x="381" y="-96.5" font-family="Helvetica,sans-Serif" font-size="10.00">+</text>
<text text-anchor="start" x="394" y="-96.5" font-family="Helvetica,sans-Serif" font-size="10.00">invert()</text>
<text text-anchor="start" x="381" y="-81.5" font-family="Helvetica,sans-Serif" font-size="10.00">+</text>
<text text-anchor="start" x="394" y="-81.5" font-family="Helvetica,sans-Serif" font-size="10.00">getRawValue()</text>
<text text-anchor="start" x="381" y="-66.5" font-family="Helvetica,sans-Serif" font-size="10.00">+</text>
<text text-anchor="start" x="394" y="-66.5" font-family="Helvetica,sans-Serif" font-size="10.00">getValue()</text>
<text text-anchor="start" x="381" y="-51.5" font-family="Helvetica,sans-Serif" font-size="10.00">+</text>
<text text-anchor="start" x="394" y="-51.5" font-family="Helvetica,sans-Serif" font-size="10.00">getPreviousValue()</text>
<text text-anchor="start" x="381" y="-36.5" font-family="Helvetica,sans-Serif" font-size="10.00">+</text>
<text text-anchor="start" x="394" y="-36.5" font-family="Helvetica,sans-Serif" font-size="10.00">getPreviousValue()</text>
<text text-anchor="start" x="381" y="-21.5" font-family="Helvetica,sans-Serif" font-size="10.00">+</text>
<text text-anchor="start" x="394" y="-21.5" font-family="Helvetica,sans-Serif" font-size="10.00">getMaxRawValue()</text>
<text text-anchor="start" x="381" y="-6.5" font-family="Helvetica,sans-Serif" font-size="10.00">#</text>
<text text-anchor="start" x="394" y="-6.5" font-family="Helvetica,sans-Serif" font-size="10.00">SmartMIDIFilteredAnalog()</text>
<polygon fill="#666666" stroke="#666666" points="377,-241.5 377,-241.5 528,-241.5 528,-241.5 377,-241.5"/>
<polygon fill="#666666" stroke="#666666" points="377,-181.5 377,-181.5 392,-181.5 392,-181.5 377,-181.5"/>
<polygon fill="#666666" stroke="#666666" points="392,-181.5 392,-181.5 528,-181.5 528,-181.5 392,-181.5"/>
<polygon fill="none" stroke="#666666" points="376.5,0 376.5,-281 527.5,-281 527.5,0 376.5,0"/>
</a>
</g>
</g>
<!-- Node2 -->
<g id="Node000002" class="node">
<title>Node2</title>
<g id="a_Node000002"><a xlink:href="../../d1/d55/classAH_1_1Updatable.html" target="_top" xlink:title="A super class for object that have to be updated regularly.">
<polygon fill="white" stroke="transparent" points="315.5,-489.5 208.5,-489.5 208.5,-395.5 315.5,-395.5 315.5,-489.5"/>
<text text-anchor="start" x="214" y="-477.5" font-family="Helvetica,sans-Serif" font-size="10.00">MIDIOutputElement</text>
<text text-anchor="start" x="260.5" y="-462.5" font-family="Helvetica,sans-Serif" font-size="10.00"> </text>
<text text-anchor="start" x="221.5" y="-447.5" font-family="Helvetica,sans-Serif" font-size="10.00">*</text>
<text text-anchor="start" x="240" y="-447.5" font-family="Helvetica,sans-Serif" font-size="10.00">begin()</text>
<text text-anchor="start" x="221.5" y="-432.5" font-family="Helvetica,sans-Serif" font-size="10.00">*</text>
<text text-anchor="start" x="240" y="-432.5" font-family="Helvetica,sans-Serif" font-size="10.00">update()</text>
<text text-anchor="start" x="221.5" y="-417.5" font-family="Helvetica,sans-Serif" font-size="10.00">*</text>
<text text-anchor="start" x="240" y="-417.5" font-family="Helvetica,sans-Serif" font-size="10.00">beginAll()</text>
<text text-anchor="start" x="221.5" y="-402.5" font-family="Helvetica,sans-Serif" font-size="10.00">*</text>
<text text-anchor="start" x="240" y="-402.5" font-family="Helvetica,sans-Serif" font-size="10.00">updateAll()</text>
<polygon fill="#666666" stroke="#666666" points="209,-472.5 209,-472.5 316,-472.5 316,-472.5 209,-472.5"/>
<polygon fill="#666666" stroke="#666666" points="209,-457.5 209,-457.5 316,-457.5 316,-457.5 209,-457.5"/>
<polygon fill="none" stroke="#666666" points="208.5,-395.5 208.5,-489.5 315.5,-489.5 315.5,-395.5 208.5,-395.5"/>
</a>
</g>
</g>
<!-- Node2&#45;&gt;Node1 -->
<g id="edge1_Node000001_Node000002" class="edge">
<title>Node2&#45;&gt;Node1</title>
<g id="a_edge1_Node000001_Node000002"><a xlink:title=" ">
<path fill="none" stroke="#63b8ff" d="M293.64,-386.64C304.64,-367.92 317.18,-346.93 329,-328 344,-303.98 360.44,-278.5 376.29,-254.34"/>
<polygon fill="none" stroke="#63b8ff" points="290.58,-384.95 288.54,-395.35 296.62,-388.49 290.58,-384.95"/>
</a>
</g>
</g>
<!-- Node3 -->
<g id="Node000003" class="node">
<title>Node3</title>
<g id="a_Node000003"><a xlink:href="../../d8/d1a/classAH_1_1UpdatableCRTP.html" target="_top" xlink:title="A super class for object that have to be updated regularly.">
<polygon fill="white" stroke="transparent" points="314,-887 168,-887 168,-613 314,-613 314,-887"/>
<text text-anchor="start" x="173" y="-875" font-family="Helvetica,sans-Serif" font-size="10.00">UpdatableCRTP&lt; Derived &gt;</text>
<text text-anchor="start" x="239" y="-860" font-family="Helvetica,sans-Serif" font-size="10.00"> </text>
<text text-anchor="start" x="180.5" y="-845" font-family="Helvetica,sans-Serif" font-size="10.00">+</text>
<text text-anchor="start" x="202" y="-845" font-family="Helvetica,sans-Serif" font-size="10.00">~UpdatableCRTP()</text>
<text text-anchor="start" x="180.5" y="-830" font-family="Helvetica,sans-Serif" font-size="10.00">#</text>
<text text-anchor="start" x="202" y="-830" font-family="Helvetica,sans-Serif" font-size="10.00">UpdatableCRTP()</text>
<text text-anchor="start" x="180.5" y="-815" font-family="Helvetica,sans-Serif" font-size="10.00">#</text>
<text text-anchor="start" x="202" y="-815" font-family="Helvetica,sans-Serif" font-size="10.00">UpdatableCRTP()</text>
<text text-anchor="start" x="180.5" y="-800" font-family="Helvetica,sans-Serif" font-size="10.00">#</text>
<text text-anchor="start" x="202" y="-800" font-family="Helvetica,sans-Serif" font-size="10.00">operator=()</text>
<text text-anchor="start" x="180.5" y="-785" font-family="Helvetica,sans-Serif" font-size="10.00">#</text>
<text text-anchor="start" x="202" y="-785" font-family="Helvetica,sans-Serif" font-size="10.00">UpdatableCRTP()</text>
<text text-anchor="start" x="180.5" y="-770" font-family="Helvetica,sans-Serif" font-size="10.00">#</text>
<text text-anchor="start" x="202" y="-770" font-family="Helvetica,sans-Serif" font-size="10.00">operator=()</text>
<text text-anchor="start" x="182" y="-755" font-family="Helvetica,sans-Serif" font-size="10.00">*</text>
<text text-anchor="start" x="202" y="-755" font-family="Helvetica,sans-Serif" font-size="10.00">enable()</text>
<text text-anchor="start" x="182" y="-740" font-family="Helvetica,sans-Serif" font-size="10.00">*</text>
<text text-anchor="start" x="202" y="-740" font-family="Helvetica,sans-Serif" font-size="10.00">disable()</text>
<text text-anchor="start" x="182" y="-725" font-family="Helvetica,sans-Serif" font-size="10.00">*</text>
<text text-anchor="start" x="202" y="-725" font-family="Helvetica,sans-Serif" font-size="10.00">isEnabled()</text>
<text text-anchor="start" x="182" y="-710" font-family="Helvetica,sans-Serif" font-size="10.00">*</text>
<text text-anchor="start" x="202" y="-710" font-family="Helvetica,sans-Serif" font-size="10.00">moveDown()</text>
<text text-anchor="start" x="182" y="-695" font-family="Helvetica,sans-Serif" font-size="10.00">*</text>
<text text-anchor="start" x="202" y="-695" font-family="Helvetica,sans-Serif" font-size="10.00">enable()</text>
<text text-anchor="start" x="182" y="-680" font-family="Helvetica,sans-Serif" font-size="10.00">*</text>
<text text-anchor="start" x="202" y="-680" font-family="Helvetica,sans-Serif" font-size="10.00">enable()</text>
<text text-anchor="start" x="182" y="-665" font-family="Helvetica,sans-Serif" font-size="10.00">*</text>
<text text-anchor="start" x="202" y="-665" font-family="Helvetica,sans-Serif" font-size="10.00">enable()</text>
<text text-anchor="start" x="182" y="-650" font-family="Helvetica,sans-Serif" font-size="10.00">*</text>
<text text-anchor="start" x="202" y="-650" font-family="Helvetica,sans-Serif" font-size="10.00">disable()</text>
<text text-anchor="start" x="182" y="-635" font-family="Helvetica,sans-Serif" font-size="10.00">*</text>
<text text-anchor="start" x="202" y="-635" font-family="Helvetica,sans-Serif" font-size="10.00">disable()</text>
<text text-anchor="start" x="182" y="-620" font-family="Helvetica,sans-Serif" font-size="10.00">*</text>
<text text-anchor="start" x="202" y="-620" font-family="Helvetica,sans-Serif" font-size="10.00">disable()</text>
<polygon fill="#666666" stroke="#666666" points="168,-870 168,-870 314,-870 314,-870 168,-870"/>
<polygon fill="#666666" stroke="#666666" points="168,-855 168,-855 314,-855 314,-855 168,-855"/>
<polygon fill="none" stroke="#666666" points="168,-613 168,-887 314,-887 314,-613 168,-613"/>
</a>
</g>
</g>
<!-- Node3&#45;&gt;Node2 -->
<g id="edge2_Node000002_Node000003" class="edge">
<title>Node3&#45;&gt;Node2</title>
<g id="a_edge2_Node000002_Node000003"><a xlink:title=" ">
<path fill="none" stroke="#63b8ff" d="M251.06,-602.65C253.88,-561.6 256.75,-519.93 258.84,-489.54"/>
<polygon fill="none" stroke="#63b8ff" points="247.56,-602.56 250.36,-612.78 254.54,-603.04 247.56,-602.56"/>
</a>
</g>
</g>
<!-- Node4 -->
<g id="Node000004" class="node">
<title>Node4</title>
<g id="a_Node000004"><a xlink:href="../../d4/d23/classDoublyLinkable.html" target="_top" xlink:title=" ">
<polygon fill="white" stroke="transparent" points="146,-1202 0,-1202 0,-1063 146,-1063 146,-1202"/>
<text text-anchor="start" x="5" y="-1189.5" font-family="Helvetica,sans-Serif" font-size="10.00">DoublyLinkable&lt; Derived &gt;</text>
<text text-anchor="start" x="12.5" y="-1174.5" font-family="Helvetica,sans-Serif" font-size="10.00">#</text>
<text text-anchor="start" x="34" y="-1174.5" font-family="Helvetica,sans-Serif" font-size="10.00">next</text>
<text text-anchor="start" x="12.5" y="-1159.5" font-family="Helvetica,sans-Serif" font-size="10.00">#</text>
<text text-anchor="start" x="34" y="-1159.5" font-family="Helvetica,sans-Serif" font-size="10.00">previous</text>
<text text-anchor="start" x="12.5" y="-1144.5" font-family="Helvetica,sans-Serif" font-size="10.00">#</text>
<text text-anchor="start" x="34" y="-1144.5" font-family="Helvetica,sans-Serif" font-size="10.00">~DoublyLinkable()</text>
<text text-anchor="start" x="12.5" y="-1129.5" font-family="Helvetica,sans-Serif" font-size="10.00">#</text>
<text text-anchor="start" x="34" y="-1129.5" font-family="Helvetica,sans-Serif" font-size="10.00">DoublyLinkable()</text>
<text text-anchor="start" x="12.5" y="-1114.5" font-family="Helvetica,sans-Serif" font-size="10.00">#</text>
<text text-anchor="start" x="34" y="-1114.5" font-family="Helvetica,sans-Serif" font-size="10.00">DoublyLinkable()</text>
<text text-anchor="start" x="12.5" y="-1099.5" font-family="Helvetica,sans-Serif" font-size="10.00">#</text>
<text text-anchor="start" x="34" y="-1099.5" font-family="Helvetica,sans-Serif" font-size="10.00">DoublyLinkable()</text>
<text text-anchor="start" x="12.5" y="-1084.5" font-family="Helvetica,sans-Serif" font-size="10.00">#</text>
<text text-anchor="start" x="34" y="-1084.5" font-family="Helvetica,sans-Serif" font-size="10.00">operator=()</text>
<text text-anchor="start" x="12.5" y="-1069.5" font-family="Helvetica,sans-Serif" font-size="10.00">#</text>
<text text-anchor="start" x="34" y="-1069.5" font-family="Helvetica,sans-Serif" font-size="10.00">operator=()</text>
<polygon fill="#666666" stroke="#666666" points="0,-1184.5 0,-1184.5 146,-1184.5 146,-1184.5 0,-1184.5"/>
<polygon fill="#666666" stroke="#666666" points="0,-1154.5 0,-1154.5 32,-1154.5 32,-1154.5 0,-1154.5"/>
<polygon fill="#666666" stroke="#666666" points="32,-1154.5 32,-1154.5 146,-1154.5 146,-1154.5 32,-1154.5"/>
<polygon fill="none" stroke="#666666" points="0,-1063 0,-1202 146,-1202 146,-1063 0,-1063"/>
</a>
</g>
</g>
<!-- Node4&#45;&gt;Node3 -->
<g id="edge3_Node000003_Node000004" class="edge">
<title>Node4&#45;&gt;Node3</title>
<g id="a_edge3_Node000003_Node000004"><a xlink:title=" ">
<path fill="none" stroke="#63b8ff" d="M106.7,-1053.52C121.44,-1019.53 138.99,-979.26 155,-943 163,-924.87 171.47,-905.81 179.86,-887.01"/>
<polygon fill="none" stroke="#63b8ff" points="103.39,-1052.36 102.62,-1062.93 109.81,-1055.14 103.39,-1052.36"/>
</a>
</g>
</g>
<!-- Node5 -->
<g id="Node000005" class="node">
<title>Node5</title>
<g id="a_Node000005"><a xlink:href="../../dd/d16/classDoublyLinkedList.html" target="_top" xlink:title=" ">
<polygon fill="white" stroke="transparent" points="319.5,-1322 164.5,-1322 164.5,-943 319.5,-943 319.5,-1322"/>
<text text-anchor="start" x="170" y="-1309.5" font-family="Helvetica,sans-Serif" font-size="10.00">DoublyLinkedList&lt; Derived &gt;</text>
<text text-anchor="start" x="187" y="-1294.5" font-family="Helvetica,sans-Serif" font-size="10.00">&#45;</text>
<text text-anchor="start" x="213" y="-1294.5" font-family="Helvetica,sans-Serif" font-size="10.00">first</text>
<text text-anchor="start" x="187" y="-1279.5" font-family="Helvetica,sans-Serif" font-size="10.00">&#45;</text>
<text text-anchor="start" x="213" y="-1279.5" font-family="Helvetica,sans-Serif" font-size="10.00">last</text>
<text text-anchor="start" x="184.5" y="-1264.5" font-family="Helvetica,sans-Serif" font-size="10.00">+</text>
<text text-anchor="start" x="213" y="-1264.5" font-family="Helvetica,sans-Serif" font-size="10.00">append()</text>
<text text-anchor="start" x="184.5" y="-1249.5" font-family="Helvetica,sans-Serif" font-size="10.00">+</text>
<text text-anchor="start" x="213" y="-1249.5" font-family="Helvetica,sans-Serif" font-size="10.00">append()</text>
<text text-anchor="start" x="184.5" y="-1234.5" font-family="Helvetica,sans-Serif" font-size="10.00">+</text>
<text text-anchor="start" x="213" y="-1234.5" font-family="Helvetica,sans-Serif" font-size="10.00">insertBefore()</text>
<text text-anchor="start" x="184.5" y="-1219.5" font-family="Helvetica,sans-Serif" font-size="10.00">+</text>
<text text-anchor="start" x="213" y="-1219.5" font-family="Helvetica,sans-Serif" font-size="10.00">insertBefore()</text>
<text text-anchor="start" x="184.5" y="-1204.5" font-family="Helvetica,sans-Serif" font-size="10.00">+</text>
<text text-anchor="start" x="213" y="-1204.5" font-family="Helvetica,sans-Serif" font-size="10.00">insertSorted()</text>
<text text-anchor="start" x="184.5" y="-1189.5" font-family="Helvetica,sans-Serif" font-size="10.00">+</text>
<text text-anchor="start" x="213" y="-1189.5" font-family="Helvetica,sans-Serif" font-size="10.00">insertSorted()</text>
<text text-anchor="start" x="184.5" y="-1174.5" font-family="Helvetica,sans-Serif" font-size="10.00">+</text>
<text text-anchor="start" x="213" y="-1174.5" font-family="Helvetica,sans-Serif" font-size="10.00">remove()</text>
<text text-anchor="start" x="184.5" y="-1159.5" font-family="Helvetica,sans-Serif" font-size="10.00">+</text>
<text text-anchor="start" x="213" y="-1159.5" font-family="Helvetica,sans-Serif" font-size="10.00">remove()</text>
<text text-anchor="start" x="184.5" y="-1144.5" font-family="Helvetica,sans-Serif" font-size="10.00">+</text>
<text text-anchor="start" x="213" y="-1144.5" font-family="Helvetica,sans-Serif" font-size="10.00">moveDown()</text>
<text text-anchor="start" x="184.5" y="-1129.5" font-family="Helvetica,sans-Serif" font-size="10.00">+</text>
<text text-anchor="start" x="213" y="-1129.5" font-family="Helvetica,sans-Serif" font-size="10.00">moveDown()</text>
<text text-anchor="start" x="184.5" y="-1114.5" font-family="Helvetica,sans-Serif" font-size="10.00">+</text>
<text text-anchor="start" x="213" y="-1114.5" font-family="Helvetica,sans-Serif" font-size="10.00">couldContain()</text>
<text text-anchor="start" x="184.5" y="-1099.5" font-family="Helvetica,sans-Serif" font-size="10.00">+</text>
<text text-anchor="start" x="213" y="-1099.5" font-family="Helvetica,sans-Serif" font-size="10.00">couldContain()</text>
<text text-anchor="start" x="184.5" y="-1084.5" font-family="Helvetica,sans-Serif" font-size="10.00">+</text>
<text text-anchor="start" x="213" y="-1084.5" font-family="Helvetica,sans-Serif" font-size="10.00">begin()</text>
<text text-anchor="start" x="184.5" y="-1069.5" font-family="Helvetica,sans-Serif" font-size="10.00">+</text>
<text text-anchor="start" x="213" y="-1069.5" font-family="Helvetica,sans-Serif" font-size="10.00">begin()</text>
<text text-anchor="start" x="184.5" y="-1054.5" font-family="Helvetica,sans-Serif" font-size="10.00">+</text>
<text text-anchor="start" x="213" y="-1054.5" font-family="Helvetica,sans-Serif" font-size="10.00">end()</text>
<text text-anchor="start" x="184.5" y="-1039.5" font-family="Helvetica,sans-Serif" font-size="10.00">+</text>
<text text-anchor="start" x="213" y="-1039.5" font-family="Helvetica,sans-Serif" font-size="10.00">end()</text>
<text text-anchor="start" x="184.5" y="-1024.5" font-family="Helvetica,sans-Serif" font-size="10.00">+</text>
<text text-anchor="start" x="213" y="-1024.5" font-family="Helvetica,sans-Serif" font-size="10.00">rbegin()</text>
<text text-anchor="start" x="184.5" y="-1009.5" font-family="Helvetica,sans-Serif" font-size="10.00">+</text>
<text text-anchor="start" x="213" y="-1009.5" font-family="Helvetica,sans-Serif" font-size="10.00">rbegin()</text>
<text text-anchor="start" x="184.5" y="-994.5" font-family="Helvetica,sans-Serif" font-size="10.00">+</text>
<text text-anchor="start" x="213" y="-994.5" font-family="Helvetica,sans-Serif" font-size="10.00">rend()</text>
<text text-anchor="start" x="184.5" y="-979.5" font-family="Helvetica,sans-Serif" font-size="10.00">+</text>
<text text-anchor="start" x="213" y="-979.5" font-family="Helvetica,sans-Serif" font-size="10.00">rend()</text>
<text text-anchor="start" x="184.5" y="-964.5" font-family="Helvetica,sans-Serif" font-size="10.00">+</text>
<text text-anchor="start" x="213" y="-964.5" font-family="Helvetica,sans-Serif" font-size="10.00">getFirst()</text>
<text text-anchor="start" x="184.5" y="-949.5" font-family="Helvetica,sans-Serif" font-size="10.00">+</text>
<text text-anchor="start" x="213" y="-949.5" font-family="Helvetica,sans-Serif" font-size="10.00">getLast()</text>
<polygon fill="#666666" stroke="#666666" points="165,-1304.5 165,-1304.5 320,-1304.5 320,-1304.5 165,-1304.5"/>
<polygon fill="#666666" stroke="#666666" points="165,-1274.5 165,-1274.5 211,-1274.5 211,-1274.5 165,-1274.5"/>
<polygon fill="#666666" stroke="#666666" points="211,-1274.5 211,-1274.5 320,-1274.5 320,-1274.5 211,-1274.5"/>
<polygon fill="none" stroke="#666666" points="164.5,-943 164.5,-1322 319.5,-1322 319.5,-943 164.5,-943"/>
</a>
</g>
</g>
<!-- Node5&#45;&gt;Node3 -->
<g id="edge4_Node000003_Node000005" class="edge">
<title>Node5&#45;&gt;Node3</title>
<g id="a_edge4_Node000003_Node000005"><a xlink:title=" ">
<path fill="none" stroke="#63b8ff" d="M241.5,-942.92C241.47,-928.4 241.43,-913.86 241.39,-899.64"/>
<polygon fill="none" stroke="#63b8ff" points="241.39,-899.25 237.37,-893.26 241.36,-887.25 245.37,-893.24 241.39,-899.25"/>
</a>
</g>
<text text-anchor="middle" x="275" y="-917" font-family="Helvetica,sans-Serif" font-size="10.00" fill="grey"> #updatables</text>
</g>
<!-- Node6 -->
<g id="Node000006" class="node">
<title>Node6</title>
<g id="a_Node000006"><a xlink:href="../../d3/d6e/classAH_1_1FilteredAnalog.html" target="_top" xlink:title=" ">
<polygon fill="white" stroke="transparent" points="464,-487.5 338,-487.5 338,-397.5 464,-397.5 464,-487.5"/>
<text text-anchor="start" x="343" y="-475.5" font-family="Helvetica,sans-Serif" font-size="10.00">FilteredAnalog&lt; Sender</text>
<text text-anchor="start" x="367.5" y="-464.5" font-family="Helvetica,sans-Serif" font-size="10.00">::precision()&gt;</text>
<text text-anchor="start" x="399" y="-449.5" font-family="Helvetica,sans-Serif" font-size="10.00"> </text>
<text text-anchor="start" x="348.5" y="-434.5" font-family="Helvetica,sans-Serif" font-size="10.00">+</text>
<text text-anchor="start" x="368" y="-434.5" font-family="Helvetica,sans-Serif" font-size="10.00">FilteredAnalog()</text>
<text text-anchor="start" x="348.5" y="-419.5" font-family="Helvetica,sans-Serif" font-size="10.00">+</text>
<text text-anchor="start" x="368" y="-419.5" font-family="Helvetica,sans-Serif" font-size="10.00">FilteredAnalog()</text>
<text text-anchor="start" x="348.5" y="-404.5" font-family="Helvetica,sans-Serif" font-size="10.00">+</text>
<text text-anchor="start" x="368" y="-404.5" font-family="Helvetica,sans-Serif" font-size="10.00">invert()</text>
<polygon fill="#666666" stroke="#666666" points="338,-459.5 338,-459.5 464,-459.5 464,-459.5 338,-459.5"/>
<polygon fill="#666666" stroke="#666666" points="338,-444.5 338,-444.5 464,-444.5 464,-444.5 338,-444.5"/>
<polygon fill="none" stroke="#666666" points="338,-397.5 338,-487.5 464,-487.5 464,-397.5 338,-397.5"/>
</a>
</g>
</g>
<!-- Node6&#45;&gt;Node1 -->
<g id="edge5_Node000001_Node000006" class="edge">
<title>Node6&#45;&gt;Node1</title>
<g id="a_edge5_Node000001_Node000006"><a xlink:title=" ">
<path fill="none" stroke="#63b8ff" d="M399.73,-397.25C399.61,-368.98 400.75,-331.63 406,-299 406.33,-296.97 406.67,-294.93 407.03,-292.88"/>
<polygon fill="none" stroke="#63b8ff" points="407.04,-292.85 404.23,-286.21 409.28,-281.06 412.09,-287.71 407.04,-292.85"/>
</a>
</g>
<text text-anchor="middle" x="446" y="-302" font-family="Helvetica,sans-Serif" font-size="10.00" fill="grey"> #filteredAnalog</text>
</g>
<!-- Node7 -->
<g id="Node000007" class="node">
<title>Node7</title>
<g id="a_Node000007"><a xlink:href="../../da/d36/classAH_1_1GenericFilteredAnalog.html" target="_top" xlink:title="FilteredAnalog base class with generic MappingFunction.">
<polygon fill="white" stroke="transparent" points="490,-896 332,-896 332,-604 490,-604 490,-896"/>
<text text-anchor="start" x="337" y="-884" font-family="Helvetica,sans-Serif" font-size="10.00">GenericFilteredAnalog</text>
<text text-anchor="start" x="337" y="-873" font-family="Helvetica,sans-Serif" font-size="10.00">&lt; MappingFunction, Precision,</text>
<text text-anchor="start" x="337" y="-862" font-family="Helvetica,sans-Serif" font-size="10.00"> FilterShiftFactor, FilterType,</text>
<text text-anchor="start" x="356.5" y="-851" font-family="Helvetica,sans-Serif" font-size="10.00"> AnalogType, IncRes &gt;</text>
<text text-anchor="start" x="343.5" y="-836" font-family="Helvetica,sans-Serif" font-size="10.00">&#45;</text>
<text text-anchor="start" x="359" y="-836" font-family="Helvetica,sans-Serif" font-size="10.00">analogPin</text>
<text text-anchor="start" x="343.5" y="-821" font-family="Helvetica,sans-Serif" font-size="10.00">&#45;</text>
<text text-anchor="start" x="359" y="-821" font-family="Helvetica,sans-Serif" font-size="10.00">mapFn</text>
<text text-anchor="start" x="341" y="-806" font-family="Helvetica,sans-Serif" font-size="10.00">+</text>
<text text-anchor="start" x="359" y="-806" font-family="Helvetica,sans-Serif" font-size="10.00">GenericFilteredAnalog()</text>
<text text-anchor="start" x="341" y="-791" font-family="Helvetica,sans-Serif" font-size="10.00">+</text>
<text text-anchor="start" x="359" y="-791" font-family="Helvetica,sans-Serif" font-size="10.00">reset()</text>
<text text-anchor="start" x="341" y="-776" font-family="Helvetica,sans-Serif" font-size="10.00">+</text>
<text text-anchor="start" x="359" y="-776" font-family="Helvetica,sans-Serif" font-size="10.00">resetToCurrentValue()</text>
<text text-anchor="start" x="341" y="-761" font-family="Helvetica,sans-Serif" font-size="10.00">+</text>
<text text-anchor="start" x="359" y="-761" font-family="Helvetica,sans-Serif" font-size="10.00">map()</text>
<text text-anchor="start" x="341" y="-746" font-family="Helvetica,sans-Serif" font-size="10.00">+</text>
<text text-anchor="start" x="359" y="-746" font-family="Helvetica,sans-Serif" font-size="10.00">getMappingFunction()</text>
<text text-anchor="start" x="341" y="-731" font-family="Helvetica,sans-Serif" font-size="10.00">+</text>
<text text-anchor="start" x="359" y="-731" font-family="Helvetica,sans-Serif" font-size="10.00">getMappingFunction()</text>
<text text-anchor="start" x="341" y="-716" font-family="Helvetica,sans-Serif" font-size="10.00">+</text>
<text text-anchor="start" x="359" y="-716" font-family="Helvetica,sans-Serif" font-size="10.00">update()</text>
<text text-anchor="start" x="341" y="-701" font-family="Helvetica,sans-Serif" font-size="10.00">+</text>
<text text-anchor="start" x="359" y="-701" font-family="Helvetica,sans-Serif" font-size="10.00">getValue()</text>
<text text-anchor="start" x="341" y="-686" font-family="Helvetica,sans-Serif" font-size="10.00">+</text>
<text text-anchor="start" x="359" y="-686" font-family="Helvetica,sans-Serif" font-size="10.00">getFloatValue()</text>
<text text-anchor="start" x="341" y="-671" font-family="Helvetica,sans-Serif" font-size="10.00">+</text>
<text text-anchor="start" x="359" y="-671" font-family="Helvetica,sans-Serif" font-size="10.00">getRawValue()</text>
<text text-anchor="start" x="341" y="-656" font-family="Helvetica,sans-Serif" font-size="10.00">+</text>
<text text-anchor="start" x="359" y="-656" font-family="Helvetica,sans-Serif" font-size="10.00">getMaxRawValue()</text>
<text text-anchor="start" x="341" y="-641" font-family="Helvetica,sans-Serif" font-size="10.00">+</text>
<text text-anchor="start" x="359" y="-641" font-family="Helvetica,sans-Serif" font-size="10.00">setupADC()</text>
<text text-anchor="start" x="343.5" y="-626" font-family="Helvetica,sans-Serif" font-size="10.00">&#45;</text>
<text text-anchor="start" x="359" y="-626" font-family="Helvetica,sans-Serif" font-size="10.00">mapFnHelper()</text>
<text text-anchor="start" x="343.5" y="-611" font-family="Helvetica,sans-Serif" font-size="10.00">&#45;</text>
<text text-anchor="start" x="359" y="-611" font-family="Helvetica,sans-Serif" font-size="10.00">mapFnHelper()</text>
<polygon fill="#666666" stroke="#666666" points="332,-846 332,-846 490,-846 490,-846 332,-846"/>
<polygon fill="#666666" stroke="#666666" points="332,-816 332,-816 357,-816 357,-816 332,-816"/>
<polygon fill="#666666" stroke="#666666" points="357,-816 357,-816 490,-816 490,-816 357,-816"/>
<polygon fill="none" stroke="#666666" points="332,-604 332,-896 490,-896 490,-604 332,-604"/>
</a>
</g>
</g>
<!-- Node7&#45;&gt;Node6 -->
<g id="edge6_Node000006_Node000007" class="edge">
<title>Node7&#45;&gt;Node6</title>
<g id="a_edge6_Node000006_Node000007"><a xlink:title=" ">
<path fill="none" stroke="#63b8ff" d="M405.91,-593.43C404.63,-554.53 403.37,-515.87 402.44,-487.55"/>
<polygon fill="none" stroke="#63b8ff" points="402.42,-593.97 406.25,-603.85 409.42,-593.75 402.42,-593.97"/>
</a>
</g>
</g>
<!-- Node8 -->
<g id="Node000008" class="node">
<title>Node8</title>
<g id="a_Node000008"><a xlink:href="../../d9/d74/classAH_1_1EMA.html" target="_top" xlink:title=" ">
<polygon fill="white" stroke="transparent" points="483.5,-1228 338.5,-1228 338.5,-1037 483.5,-1037 483.5,-1228"/>
<text text-anchor="start" x="344" y="-1215.5" font-family="Helvetica,sans-Serif" font-size="10.00">EMA&lt; ANALOG_FILTER</text>
<text text-anchor="start" x="344" y="-1204.5" font-family="Helvetica,sans-Serif" font-size="10.00">_SHIFT_FACTOR, analog</text>
<text text-anchor="start" x="344" y="-1193.5" font-family="Helvetica,sans-Serif" font-size="10.00">_t, ANALOG_FILTER_TYPE &gt;</text>
<text text-anchor="start" x="353" y="-1178.5" font-family="Helvetica,sans-Serif" font-size="10.00">+</text>
<text text-anchor="start" x="376" y="-1178.5" font-family="Helvetica,sans-Serif" font-size="10.00">max_state</text>
<text text-anchor="start" x="353" y="-1163.5" font-family="Helvetica,sans-Serif" font-size="10.00">+</text>
<text text-anchor="start" x="376" y="-1163.5" font-family="Helvetica,sans-Serif" font-size="10.00">half_state</text>
<text text-anchor="start" x="353" y="-1148.5" font-family="Helvetica,sans-Serif" font-size="10.00">+</text>
<text text-anchor="start" x="376" y="-1148.5" font-family="Helvetica,sans-Serif" font-size="10.00">zero</text>
<text text-anchor="start" x="353" y="-1133.5" font-family="Helvetica,sans-Serif" font-size="10.00">+</text>
<text text-anchor="start" x="376" y="-1133.5" font-family="Helvetica,sans-Serif" font-size="10.00">half</text>
<text text-anchor="start" x="355.5" y="-1118.5" font-family="Helvetica,sans-Serif" font-size="10.00">&#45;</text>
<text text-anchor="start" x="376" y="-1118.5" font-family="Helvetica,sans-Serif" font-size="10.00">state</text>
<text text-anchor="start" x="353" y="-1103.5" font-family="Helvetica,sans-Serif" font-size="10.00">+</text>
<text text-anchor="start" x="376" y="-1103.5" font-family="Helvetica,sans-Serif" font-size="10.00">EMA()</text>
<text text-anchor="start" x="353" y="-1088.5" font-family="Helvetica,sans-Serif" font-size="10.00">+</text>
<text text-anchor="start" x="376" y="-1088.5" font-family="Helvetica,sans-Serif" font-size="10.00">reset()</text>
<text text-anchor="start" x="353" y="-1073.5" font-family="Helvetica,sans-Serif" font-size="10.00">+</text>
<text text-anchor="start" x="376" y="-1073.5" font-family="Helvetica,sans-Serif" font-size="10.00">filter()</text>
<text text-anchor="start" x="353" y="-1058.5" font-family="Helvetica,sans-Serif" font-size="10.00">+</text>
<text text-anchor="start" x="376" y="-1058.5" font-family="Helvetica,sans-Serif" font-size="10.00">operator()()</text>
<text text-anchor="start" x="353" y="-1043.5" font-family="Helvetica,sans-Serif" font-size="10.00">+</text>
<text text-anchor="start" x="376" y="-1043.5" font-family="Helvetica,sans-Serif" font-size="10.00">supports_range()</text>
<polygon fill="#666666" stroke="#666666" points="339,-1188.5 339,-1188.5 484,-1188.5 484,-1188.5 339,-1188.5"/>
<polygon fill="#666666" stroke="#666666" points="339,-1113.5 339,-1113.5 374,-1113.5 374,-1113.5 339,-1113.5"/>
<polygon fill="#666666" stroke="#666666" points="374,-1113.5 374,-1113.5 484,-1113.5 484,-1113.5 374,-1113.5"/>
<polygon fill="none" stroke="#666666" points="338.5,-1037 338.5,-1228 483.5,-1228 483.5,-1037 338.5,-1037"/>
</a>
</g>
</g>
<!-- Node8&#45;&gt;Node7 -->
<g id="edge7_Node000007_Node000008" class="edge">
<title>Node8&#45;&gt;Node7</title>
<g id="a_edge7_Node000007_Node000008"><a xlink:title=" ">
<path fill="none" stroke="#63b8ff" d="M411,-1036.95C411,-998.13 411,-952.11 411,-908.46"/>
<polygon fill="none" stroke="#63b8ff" points="411,-908.22 407,-902.22 411,-896.22 415,-902.22 411,-908.22"/>
</a>
</g>
<text text-anchor="middle" x="426" y="-917" font-family="Helvetica,sans-Serif" font-size="10.00" fill="grey"> &#45;filter</text>
</g>
<!-- Node9 -->
<g id="Node000009" class="node">
<title>Node9</title>
<g id="a_Node000009"><a xlink:href="../../da/df9/classAH_1_1Hysteresis.html" target="_top" xlink:title=" ">
<polygon fill="white" stroke="transparent" points="694.5,-1224 501.5,-1224 501.5,-1041 694.5,-1041 694.5,-1224"/>
<text text-anchor="start" x="507" y="-1211.5" font-family="Helvetica,sans-Serif" font-size="10.00">Hysteresis&lt; ADC_BITS</text>
<text text-anchor="start" x="507" y="-1200.5" font-family="Helvetica,sans-Serif" font-size="10.00">+MaximumFilteredAnalogIncRes</text>
<text text-anchor="start" x="507" y="-1189.5" font-family="Helvetica,sans-Serif" font-size="10.00">&lt; ANALOG_FILTER_SHIFT_FACTOR,</text>
<text text-anchor="start" x="507" y="-1178.5" font-family="Helvetica,sans-Serif" font-size="10.00"> ANALOG_FILTER_TYPE, analog</text>
<text text-anchor="start" x="507" y="-1167.5" font-family="Helvetica,sans-Serif" font-size="10.00">_t &gt;::value &#45; 10, analog_t, analog_t &gt;</text>
<text text-anchor="start" x="538.5" y="-1152.5" font-family="Helvetica,sans-Serif" font-size="10.00">&#45;</text>
<text text-anchor="start" x="579" y="-1152.5" font-family="Helvetica,sans-Serif" font-size="10.00">prevLevel</text>
<text text-anchor="start" x="538.5" y="-1137.5" font-family="Helvetica,sans-Serif" font-size="10.00">&#45;</text>
<text text-anchor="start" x="579" y="-1137.5" font-family="Helvetica,sans-Serif" font-size="10.00">margin</text>
<text text-anchor="start" x="538.5" y="-1122.5" font-family="Helvetica,sans-Serif" font-size="10.00">&#45;</text>
<text text-anchor="start" x="579" y="-1122.5" font-family="Helvetica,sans-Serif" font-size="10.00">offset</text>
<text text-anchor="start" x="538.5" y="-1107.5" font-family="Helvetica,sans-Serif" font-size="10.00">&#45;</text>
<text text-anchor="start" x="579" y="-1107.5" font-family="Helvetica,sans-Serif" font-size="10.00">max_in</text>
<text text-anchor="start" x="538.5" y="-1092.5" font-family="Helvetica,sans-Serif" font-size="10.00">&#45;</text>
<text text-anchor="start" x="579" y="-1092.5" font-family="Helvetica,sans-Serif" font-size="10.00">max_out</text>
<text text-anchor="start" x="536" y="-1077.5" font-family="Helvetica,sans-Serif" font-size="10.00">+</text>
<text text-anchor="start" x="579" y="-1077.5" font-family="Helvetica,sans-Serif" font-size="10.00">update()</text>
<text text-anchor="start" x="536" y="-1062.5" font-family="Helvetica,sans-Serif" font-size="10.00">+</text>
<text text-anchor="start" x="579" y="-1062.5" font-family="Helvetica,sans-Serif" font-size="10.00">getValue()</text>
<text text-anchor="start" x="536" y="-1047.5" font-family="Helvetica,sans-Serif" font-size="10.00">+</text>
<text text-anchor="start" x="579" y="-1047.5" font-family="Helvetica,sans-Serif" font-size="10.00">setValue()</text>
<polygon fill="#666666" stroke="#666666" points="502,-1162.5 502,-1162.5 695,-1162.5 695,-1162.5 502,-1162.5"/>
<polygon fill="#666666" stroke="#666666" points="502,-1087.5 502,-1087.5 577,-1087.5 577,-1087.5 502,-1087.5"/>
<polygon fill="#666666" stroke="#666666" points="577,-1087.5 577,-1087.5 695,-1087.5 695,-1087.5 577,-1087.5"/>
<polygon fill="none" stroke="#666666" points="501.5,-1041 501.5,-1224 694.5,-1224 694.5,-1041 501.5,-1041"/>
</a>
</g>
</g>
<!-- Node9&#45;&gt;Node7 -->
<g id="edge8_Node000007_Node000009" class="edge">
<title>Node9&#45;&gt;Node7</title>
<g id="a_edge8_Node000007_Node000009"><a xlink:title=" ">
<path fill="none" stroke="#63b8ff" d="M553.45,-1040.84C533.79,-1000.86 510.12,-952.69 487.77,-907.21"/>
<polygon fill="none" stroke="#63b8ff" points="487.72,-907.1 481.48,-903.48 482.43,-896.33 488.66,-899.95 487.72,-907.1"/>
</a>
</g>
<text text-anchor="middle" x="523" y="-917" font-family="Helvetica,sans-Serif" font-size="10.00" fill="grey"> &#45;hysteresis</text>
</g>
<!-- Node10 -->
<g id="Node000010" class="node">
<title>Node10</title>
<g id="a_Node000010"><a xlink:title=" ">
<polygon fill="white" stroke="transparent" points="564.5,-774.5 511.5,-774.5 511.5,-725.5 564.5,-725.5 564.5,-774.5"/>
<text text-anchor="start" x="517" y="-762" font-family="Helvetica,sans-Serif" font-size="10.00">analog_t</text>
<text text-anchor="start" x="536.5" y="-747" font-family="Helvetica,sans-Serif" font-size="10.00"> </text>
<text text-anchor="start" x="536.5" y="-732" font-family="Helvetica,sans-Serif" font-size="10.00"> </text>
<polygon fill="#666666" stroke="#666666" points="512,-757 512,-757 565,-757 565,-757 512,-757"/>
<polygon fill="#666666" stroke="#666666" points="512,-742 512,-742 565,-742 565,-742 512,-742"/>
<polygon fill="none" stroke="#666666" points="511.5,-725.5 511.5,-774.5 564.5,-774.5 564.5,-725.5 511.5,-725.5"/>
</a>
</g>
</g>
<!-- Node10&#45;&gt;Node1 -->
<g id="edge9_Node000001_Node000010" class="edge">
<title>Node10&#45;&gt;Node1</title>
<g id="a_edge9_Node000001_Node000010"><a xlink:title=" ">
<path fill="none" stroke="#63b8ff" d="M533.96,-725.42C527.88,-689.26 516.31,-617.92 509,-557 495.29,-442.7 503.29,-412.82 486,-299 485.71,-297.09 485.41,-295.18 485.11,-293.25"/>
<polygon fill="none" stroke="#63b8ff" points="485.09,-293.15 480.16,-287.89 483.12,-281.31 488.05,-286.58 485.09,-293.15"/>
</a>
</g>
<text text-anchor="middle" x="529" y="-440" font-family="Helvetica,sans-Serif" font-size="10.00" fill="grey"> #initial</text>
</g>
<!-- Node11 -->
<g id="Node000011" class="node">
<title>Node11</title>
<g id="a_Node000011"><a xlink:href="../../d0/d32/structAH_1_1Array.html" target="_top" xlink:title=" ">
<polygon fill="white" stroke="transparent" points="719.5,-557 558.5,-557 558.5,-328 719.5,-328 719.5,-557"/>
<text text-anchor="start" x="564" y="-544.5" font-family="Helvetica,sans-Serif" font-size="10.00">Array&lt; analog_t, NumBanks &gt;</text>
<text text-anchor="start" x="581.5" y="-529.5" font-family="Helvetica,sans-Serif" font-size="10.00">+</text>
<text text-anchor="start" x="613" y="-529.5" font-family="Helvetica,sans-Serif" font-size="10.00">length</text>
<text text-anchor="start" x="581.5" y="-514.5" font-family="Helvetica,sans-Serif" font-size="10.00">+</text>
<text text-anchor="start" x="613" y="-514.5" font-family="Helvetica,sans-Serif" font-size="10.00">operator[]()</text>
<text text-anchor="start" x="581.5" y="-499.5" font-family="Helvetica,sans-Serif" font-size="10.00">+</text>
<text text-anchor="start" x="613" y="-499.5" font-family="Helvetica,sans-Serif" font-size="10.00">operator[]()</text>
<text text-anchor="start" x="581.5" y="-484.5" font-family="Helvetica,sans-Serif" font-size="10.00">+</text>
<text text-anchor="start" x="613" y="-484.5" font-family="Helvetica,sans-Serif" font-size="10.00">begin()</text>
<text text-anchor="start" x="581.5" y="-469.5" font-family="Helvetica,sans-Serif" font-size="10.00">+</text>
<text text-anchor="start" x="613" y="-469.5" font-family="Helvetica,sans-Serif" font-size="10.00">begin()</text>
<text text-anchor="start" x="581.5" y="-454.5" font-family="Helvetica,sans-Serif" font-size="10.00">+</text>
<text text-anchor="start" x="613" y="-454.5" font-family="Helvetica,sans-Serif" font-size="10.00">end()</text>
<text text-anchor="start" x="581.5" y="-439.5" font-family="Helvetica,sans-Serif" font-size="10.00">+</text>
<text text-anchor="start" x="613" y="-439.5" font-family="Helvetica,sans-Serif" font-size="10.00">end()</text>
<text text-anchor="start" x="581.5" y="-424.5" font-family="Helvetica,sans-Serif" font-size="10.00">+</text>
<text text-anchor="start" x="613" y="-424.5" font-family="Helvetica,sans-Serif" font-size="10.00">operator==()</text>
<text text-anchor="start" x="581.5" y="-409.5" font-family="Helvetica,sans-Serif" font-size="10.00">+</text>
<text text-anchor="start" x="613" y="-409.5" font-family="Helvetica,sans-Serif" font-size="10.00">operator!=()</text>
<text text-anchor="start" x="581.5" y="-394.5" font-family="Helvetica,sans-Serif" font-size="10.00">+</text>
<text text-anchor="start" x="613" y="-394.5" font-family="Helvetica,sans-Serif" font-size="10.00">slice()</text>
<text text-anchor="start" x="581.5" y="-379.5" font-family="Helvetica,sans-Serif" font-size="10.00">+</text>
<text text-anchor="start" x="613" y="-379.5" font-family="Helvetica,sans-Serif" font-size="10.00">slice()</text>
<text text-anchor="start" x="581.5" y="-364.5" font-family="Helvetica,sans-Serif" font-size="10.00">+</text>
<text text-anchor="start" x="613" y="-364.5" font-family="Helvetica,sans-Serif" font-size="10.00">slice()</text>
<text text-anchor="start" x="581.5" y="-349.5" font-family="Helvetica,sans-Serif" font-size="10.00">+</text>
<text text-anchor="start" x="613" y="-349.5" font-family="Helvetica,sans-Serif" font-size="10.00">slice()</text>
<text text-anchor="start" x="581.5" y="-334.5" font-family="Helvetica,sans-Serif" font-size="10.00">+</text>
<text text-anchor="start" x="613" y="-334.5" font-family="Helvetica,sans-Serif" font-size="10.00">cslice()</text>
<polygon fill="#666666" stroke="#666666" points="559,-539.5 559,-539.5 720,-539.5 720,-539.5 559,-539.5"/>
<polygon fill="#666666" stroke="#666666" points="559,-524.5 559,-524.5 611,-524.5 611,-524.5 559,-524.5"/>
<polygon fill="#666666" stroke="#666666" points="611,-524.5 611,-524.5 720,-524.5 720,-524.5 611,-524.5"/>
<polygon fill="none" stroke="#666666" points="558.5,-328 558.5,-557 719.5,-557 719.5,-328 558.5,-328"/>
</a>
</g>
</g>
<!-- Node10&#45;&gt;Node11 -->
<g id="edge11_Node000011_Node000010" class="edge">
<title>Node10&#45;&gt;Node11</title>
<g id="a_edge11_Node000011_Node000010"><a xlink:title=" ">
<path fill="none" stroke="#63b8ff" d="M545.84,-725.28C556.99,-691.57 578.21,-627.37 597.59,-568.75"/>
<polygon fill="none" stroke="#63b8ff" points="597.67,-568.51 595.76,-561.56 601.44,-557.11 603.35,-564.07 597.67,-568.51"/>
</a>
</g>
<text text-anchor="middle" x="612" y="-578" font-family="Helvetica,sans-Serif" font-size="10.00" fill="grey"> +data</text>
</g>
<!-- Node11&#45;&gt;Node1 -->
<g id="edge10_Node000001_Node000011" class="edge">
<title>Node11&#45;&gt;Node1</title>
<g id="a_edge10_Node000001_Node000011"><a xlink:title=" ">
<path fill="none" stroke="#63b8ff" d="M568.04,-327.66C556.93,-309.84 545.37,-291.29 534.04,-273.12"/>
<polygon fill="none" stroke="#63b8ff" points="533.94,-272.95 527.37,-269.97 527.59,-262.76 534.16,-265.74 533.94,-272.95"/>
</a>
</g>
<text text-anchor="middle" x="600" y="-302" font-family="Helvetica,sans-Serif" font-size="10.00" fill="grey"> #previousValues</text>
</g>
</g>
</svg>
