<?xml version="1.0" encoding="UTF-8" standalone="no"?>
<!DOCTYPE svg PUBLIC "-//W3C//DTD SVG 1.1//EN"
 "http://www.w3.org/Graphics/SVG/1.1/DTD/svg11.dtd">
<!-- Generated by graphviz version 2.43.0 (0)
 -->
<!-- Title: VULEDs&lt; NumLEDs &gt; Pages: 1 -->
<svg width="637pt" height="1342pt"
 viewBox="0.00 0.00 636.50 1342.00" xmlns="http://www.w3.org/2000/svg" xmlns:xlink="http://www.w3.org/1999/xlink">
<g id="graph0" class="graph" transform="scale(1 1) rotate(0) translate(4 1338)">
<title>VULEDs&lt; NumLEDs &gt;</title>
<polygon fill="white" stroke="transparent" points="-4,4 -4,-1338 632.5,-1338 632.5,4 -4,4"/>
<!-- Node1 -->
<g id="node1" class="node">
<title>Node1</title>
<g id="a_node1"><a xlink:title=" ">
<polygon fill="#bfbfbf" stroke="black" points="363.5,-0.5 363.5,-123.5 488.5,-123.5 488.5,-0.5 363.5,-0.5"/>
<text text-anchor="middle" x="426" y="-111.5" font-family="Helvetica,sans-Serif" font-size="10.00">VULEDs&lt; NumLEDs &gt;</text>
<polyline fill="none" stroke="black" points="363.5,-104.5 488.5,-104.5 "/>
<text text-anchor="middle" x="426" y="-92.5" font-family="Helvetica,sans-Serif" font-size="10.00"> </text>
<polyline fill="none" stroke="black" points="363.5,-85.5 488.5,-85.5 "/>
<text text-anchor="start" x="371.5" y="-73.5" font-family="Helvetica,sans-Serif" font-size="10.00">+ VULEDs()</text>
<text text-anchor="start" x="371.5" y="-62.5" font-family="Helvetica,sans-Serif" font-size="10.00">+ VULEDs()</text>
<text text-anchor="start" x="371.5" y="-51.5" font-family="Helvetica,sans-Serif" font-size="10.00">+ getMode()</text>
<text text-anchor="start" x="371.5" y="-40.5" font-family="Helvetica,sans-Serif" font-size="10.00">+ setMode()</text>
<text text-anchor="start" x="371.5" y="-29.5" font-family="Helvetica,sans-Serif" font-size="10.00">+ dotMode()</text>
<text text-anchor="start" x="371.5" y="-18.5" font-family="Helvetica,sans-Serif" font-size="10.00">+ barMode()</text>
<text text-anchor="start" x="371.5" y="-7.5" font-family="Helvetica,sans-Serif" font-size="10.00">+ toggleMode()</text>
</a>
</g>
</g>
<!-- Node2 -->
<g id="node2" class="node">
<title>Node2</title>
<g id="a_node2"><a xlink:href="../../dd/de4/classMCU_1_1GenericVU.html" target="_top" xlink:title=" ">
<polygon fill="white" stroke="black" points="346,-161.5 346,-229.5 506,-229.5 506,-161.5 346,-161.5"/>
<text text-anchor="start" x="354" y="-217.5" font-family="Helvetica,sans-Serif" font-size="10.00">GenericVU&lt; VULEDsCallback</text>
<text text-anchor="middle" x="426" y="-206.5" font-family="Helvetica,sans-Serif" font-size="10.00">&lt; NumLEDs &gt; &gt;</text>
<polyline fill="none" stroke="black" points="346,-199.5 506,-199.5 "/>
<text text-anchor="middle" x="426" y="-187.5" font-family="Helvetica,sans-Serif" font-size="10.00"> </text>
<polyline fill="none" stroke="black" points="346,-180.5 506,-180.5 "/>
<text text-anchor="start" x="354" y="-168.5" font-family="Helvetica,sans-Serif" font-size="10.00">+ GenericVU()</text>
</a>
</g>
</g>
<!-- Node2&#45;&gt;Node1 -->
<g id="edge1" class="edge">
<title>Node2&#45;&gt;Node1</title>
<path fill="none" stroke="midnightblue" d="M426,-151.25C426,-142.39 426,-132.91 426,-123.57"/>
<polygon fill="none" stroke="midnightblue" points="422.5,-151.32 426,-161.32 429.5,-151.32 422.5,-151.32"/>
</g>
<!-- Node3 -->
<g id="node3" class="node">
<title>Node3</title>
<g id="a_node3"><a xlink:href="../../d4/d71/classMCU_1_1VU__Base.html" target="_top" xlink:title=" ">
<polygon fill="white" stroke="black" points="344,-289.5 344,-544.5 508,-544.5 508,-289.5 344,-289.5"/>
<text text-anchor="start" x="352" y="-532.5" font-family="Helvetica,sans-Serif" font-size="10.00">VU_Base&lt; 1, VULEDsCallback</text>
<text text-anchor="middle" x="426" y="-521.5" font-family="Helvetica,sans-Serif" font-size="10.00">&lt; NumLEDs &gt; &gt;</text>
<polyline fill="none" stroke="black" points="344,-514.5 508,-514.5 "/>
<text text-anchor="start" x="352" y="-502.5" font-family="Helvetica,sans-Serif" font-size="10.00">+ callback</text>
<text text-anchor="start" x="352" y="-491.5" font-family="Helvetica,sans-Serif" font-size="10.00">&#45; decayTime</text>
<text text-anchor="start" x="352" y="-480.5" font-family="Helvetica,sans-Serif" font-size="10.00">&#45; prevDecayTime</text>
<polyline fill="none" stroke="black" points="344,-473.5 508,-473.5 "/>
<text text-anchor="start" x="352" y="-461.5" font-family="Helvetica,sans-Serif" font-size="10.00">+ begin()</text>
<text text-anchor="start" x="352" y="-450.5" font-family="Helvetica,sans-Serif" font-size="10.00">+ reset()</text>
<text text-anchor="start" x="352" y="-439.5" font-family="Helvetica,sans-Serif" font-size="10.00">+ getValue()</text>
<text text-anchor="start" x="352" y="-428.5" font-family="Helvetica,sans-Serif" font-size="10.00">+ getOverload()</text>
<text text-anchor="start" x="352" y="-417.5" font-family="Helvetica,sans-Serif" font-size="10.00">+ update()</text>
<text text-anchor="start" x="352" y="-406.5" font-family="Helvetica,sans-Serif" font-size="10.00"># VU_Base()</text>
<text text-anchor="start" x="352" y="-395.5" font-family="Helvetica,sans-Serif" font-size="10.00">&#45; getValue()</text>
<text text-anchor="start" x="352" y="-384.5" font-family="Helvetica,sans-Serif" font-size="10.00">&#45; getOverload()</text>
<text text-anchor="start" x="352" y="-373.5" font-family="Helvetica,sans-Serif" font-size="10.00">&#45; updateImpl()</text>
<text text-anchor="start" x="352" y="-362.5" font-family="Helvetica,sans-Serif" font-size="10.00">&#45; getTarget()</text>
<text text-anchor="start" x="352" y="-351.5" font-family="Helvetica,sans-Serif" font-size="10.00">&#45; decay()</text>
<text text-anchor="start" x="352" y="-340.5" font-family="Helvetica,sans-Serif" font-size="10.00">&#45; getSelection()</text>
<text text-anchor="start" x="352" y="-329.5" font-family="Helvetica,sans-Serif" font-size="10.00">&#45; getBankIndex()</text>
<text text-anchor="start" x="352" y="-318.5" font-family="Helvetica,sans-Serif" font-size="10.00">&#45; setValue()</text>
<text text-anchor="start" x="352" y="-307.5" font-family="Helvetica,sans-Serif" font-size="10.00">&#45; setOverload()</text>
<text text-anchor="start" x="352" y="-296.5" font-family="Helvetica,sans-Serif" font-size="10.00">&#45; clearOverload()</text>
</a>
</g>
</g>
<!-- Node3&#45;&gt;Node2 -->
<g id="edge2" class="edge">
<title>Node3&#45;&gt;Node2</title>
<path fill="none" stroke="midnightblue" d="M426,-279.27C426,-260.89 426,-243.59 426,-229.6"/>
<polygon fill="none" stroke="midnightblue" points="422.5,-279.27 426,-289.27 429.5,-279.27 422.5,-279.27"/>
</g>
<!-- Node4 -->
<g id="node4" class="node">
<title>Node4</title>
<g id="a_node4"><a xlink:href="../../d1/df7/classMIDIInputElementChannelPressure.html" target="_top" xlink:title="Class for objects that listen for incoming MIDI Channel Pressure events.">
<polygon fill="white" stroke="black" points="95.5,-642 95.5,-787 300.5,-787 300.5,-642 95.5,-642"/>
<text text-anchor="middle" x="198" y="-775" font-family="Helvetica,sans-Serif" font-size="10.00">MIDIInputElementChannelPressure</text>
<polyline fill="none" stroke="black" points="95.5,-768 300.5,-768 "/>
<text text-anchor="middle" x="198" y="-756" font-family="Helvetica,sans-Serif" font-size="10.00"> </text>
<polyline fill="none" stroke="black" points="95.5,-749 300.5,-749 "/>
<text text-anchor="start" x="103.5" y="-737" font-family="Helvetica,sans-Serif" font-size="10.00">+ MIDIInputElementChannelPressure()</text>
<text text-anchor="start" x="103.5" y="-726" font-family="Helvetica,sans-Serif" font-size="10.00">+ ~MIDIInputElementChannel</text>
<text text-anchor="start" x="103.5" y="-715" font-family="Helvetica,sans-Serif" font-size="10.00">Pressure()</text>
<text text-anchor="start" x="103.5" y="-704" font-family="Helvetica,sans-Serif" font-size="10.00">+ beginAll()</text>
<text text-anchor="start" x="103.5" y="-693" font-family="Helvetica,sans-Serif" font-size="10.00">+ resetAll()</text>
<text text-anchor="start" x="103.5" y="-682" font-family="Helvetica,sans-Serif" font-size="10.00">+ updateAll()</text>
<text text-anchor="start" x="103.5" y="-671" font-family="Helvetica,sans-Serif" font-size="10.00">+ updateAllWith()</text>
<text text-anchor="start" x="103.5" y="-660" font-family="Helvetica,sans-Serif" font-size="10.00">&#45; getTarget()</text>
<text text-anchor="start" x="103.5" y="-649" font-family="Helvetica,sans-Serif" font-size="10.00">&#45; moveDown()</text>
</a>
</g>
</g>
<!-- Node4&#45;&gt;Node3 -->
<g id="edge3" class="edge">
<title>Node4&#45;&gt;Node3</title>
<path fill="none" stroke="midnightblue" d="M277.35,-634.54C297.08,-613.35 317.56,-589.94 335,-567 340.41,-559.88 345.79,-552.43 351.06,-544.8"/>
<polygon fill="none" stroke="midnightblue" points="274.7,-632.25 270.41,-641.93 279.8,-637.04 274.7,-632.25"/>
</g>
<!-- Node7 -->
<g id="node7" class="node">
<title>Node7</title>
<g id="a_node7"><a xlink:href="../../d4/d23/classDoublyLinkable.html" target="_top" xlink:title=" ">
<polygon fill="white" stroke="black" points="0,-383 0,-451 150,-451 150,-383 0,-383"/>
<text text-anchor="start" x="8" y="-439" font-family="Helvetica,sans-Serif" font-size="10.00">DoublyLinkable&lt; MIDIInput</text>
<text text-anchor="middle" x="75" y="-428" font-family="Helvetica,sans-Serif" font-size="10.00">ElementChannelPressure &gt;</text>
<polyline fill="none" stroke="black" points="0,-421 150,-421 "/>
<text text-anchor="middle" x="75" y="-409" font-family="Helvetica,sans-Serif" font-size="10.00"> </text>
<polyline fill="none" stroke="black" points="0,-402 150,-402 "/>
<text text-anchor="start" x="8" y="-390" font-family="Helvetica,sans-Serif" font-size="10.00"># ~DoublyLinkable()</text>
</a>
</g>
</g>
<!-- Node4&#45;&gt;Node7 -->
<g id="edge7" class="edge">
<title>Node4&#45;&gt;Node7</title>
<path fill="none" stroke="#404040" d="M115.11,-641.71C106.43,-630.89 98.71,-619.23 93,-607 71.74,-561.45 69.42,-503.1 71.02,-463.37"/>
<polygon fill="none" stroke="#404040" points="71.04,-463.14 67.35,-456.94 71.66,-451.16 75.34,-457.36 71.04,-463.14"/>
<text text-anchor="middle" x="118.5" y="-599" font-family="Helvetica,sans-Serif" font-size="10.00"> #next</text>
<text text-anchor="middle" x="118.5" y="-588" font-family="Helvetica,sans-Serif" font-size="10.00">#previous</text>
</g>
<!-- Node8 -->
<g id="node8" class="node">
<title>Node8</title>
<g id="a_node8"><a xlink:href="../../dd/d16/classDoublyLinkedList.html" target="_top" xlink:title=" ">
<polygon fill="white" stroke="black" points="168,-267.5 168,-566.5 326,-566.5 326,-267.5 168,-267.5"/>
<text text-anchor="start" x="176" y="-554.5" font-family="Helvetica,sans-Serif" font-size="10.00">DoublyLinkedList&lt; MIDIInput</text>
<text text-anchor="middle" x="247" y="-543.5" font-family="Helvetica,sans-Serif" font-size="10.00">ElementChannelPressure &gt;</text>
<polyline fill="none" stroke="black" points="168,-536.5 326,-536.5 "/>
<text text-anchor="middle" x="247" y="-524.5" font-family="Helvetica,sans-Serif" font-size="10.00"> </text>
<polyline fill="none" stroke="black" points="168,-517.5 326,-517.5 "/>
<text text-anchor="start" x="176" y="-505.5" font-family="Helvetica,sans-Serif" font-size="10.00">+ append()</text>
<text text-anchor="start" x="176" y="-494.5" font-family="Helvetica,sans-Serif" font-size="10.00">+ append()</text>
<text text-anchor="start" x="176" y="-483.5" font-family="Helvetica,sans-Serif" font-size="10.00">+ insertBefore()</text>
<text text-anchor="start" x="176" y="-472.5" font-family="Helvetica,sans-Serif" font-size="10.00">+ insertBefore()</text>
<text text-anchor="start" x="176" y="-461.5" font-family="Helvetica,sans-Serif" font-size="10.00">+ insertSorted()</text>
<text text-anchor="start" x="176" y="-450.5" font-family="Helvetica,sans-Serif" font-size="10.00">+ insertSorted()</text>
<text text-anchor="start" x="176" y="-439.5" font-family="Helvetica,sans-Serif" font-size="10.00">+ remove()</text>
<text text-anchor="start" x="176" y="-428.5" font-family="Helvetica,sans-Serif" font-size="10.00">+ remove()</text>
<text text-anchor="start" x="176" y="-417.5" font-family="Helvetica,sans-Serif" font-size="10.00">+ moveDown()</text>
<text text-anchor="start" x="176" y="-406.5" font-family="Helvetica,sans-Serif" font-size="10.00">+ moveDown()</text>
<text text-anchor="start" x="176" y="-395.5" font-family="Helvetica,sans-Serif" font-size="10.00">+ couldContain()</text>
<text text-anchor="start" x="176" y="-384.5" font-family="Helvetica,sans-Serif" font-size="10.00">+ couldContain()</text>
<text text-anchor="start" x="176" y="-373.5" font-family="Helvetica,sans-Serif" font-size="10.00">+ begin()</text>
<text text-anchor="start" x="176" y="-362.5" font-family="Helvetica,sans-Serif" font-size="10.00">+ begin()</text>
<text text-anchor="start" x="176" y="-351.5" font-family="Helvetica,sans-Serif" font-size="10.00">+ end()</text>
<text text-anchor="start" x="176" y="-340.5" font-family="Helvetica,sans-Serif" font-size="10.00">+ end()</text>
<text text-anchor="start" x="176" y="-329.5" font-family="Helvetica,sans-Serif" font-size="10.00">+ rbegin()</text>
<text text-anchor="start" x="176" y="-318.5" font-family="Helvetica,sans-Serif" font-size="10.00">+ rbegin()</text>
<text text-anchor="start" x="176" y="-307.5" font-family="Helvetica,sans-Serif" font-size="10.00">+ rend()</text>
<text text-anchor="start" x="176" y="-296.5" font-family="Helvetica,sans-Serif" font-size="10.00">+ rend()</text>
<text text-anchor="start" x="176" y="-285.5" font-family="Helvetica,sans-Serif" font-size="10.00">+ getFirst()</text>
<text text-anchor="start" x="176" y="-274.5" font-family="Helvetica,sans-Serif" font-size="10.00">+ getLast()</text>
</a>
</g>
</g>
<!-- Node4&#45;&gt;Node8 -->
<g id="edge9" class="edge">
<title>Node4&#45;&gt;Node8</title>
<path fill="none" stroke="#404040" d="M195.71,-641.9C195.41,-630.23 195.16,-618.28 195,-607 194.86,-597.22 193.53,-594.67 195,-585 195.31,-582.94 195.65,-580.86 196,-578.78"/>
<polygon fill="none" stroke="#404040" points="196.04,-578.59 193.2,-571.96 198.23,-566.79 201.07,-573.42 196.04,-578.59"/>
<text text-anchor="middle" x="208" y="-599" font-family="Helvetica,sans-Serif" font-size="10.00"> &#45;first</text>
<text text-anchor="middle" x="208" y="-588" font-family="Helvetica,sans-Serif" font-size="10.00">&#45;last</text>
</g>
<!-- Node5 -->
<g id="node5" class="node">
<title>Node5</title>
<g id="a_node5"><a xlink:href="../../d9/db1/classMIDIInputElement.html" target="_top" xlink:title="A class for objects that listen for incoming MIDI events.">
<polygon fill="white" stroke="black" points="132.5,-841.5 132.5,-997.5 263.5,-997.5 263.5,-841.5 132.5,-841.5"/>
<text text-anchor="middle" x="198" y="-985.5" font-family="Helvetica,sans-Serif" font-size="10.00">MIDIInputElement</text>
<polyline fill="none" stroke="black" points="132.5,-978.5 263.5,-978.5 "/>
<text text-anchor="middle" x="198" y="-966.5" font-family="Helvetica,sans-Serif" font-size="10.00"> </text>
<polyline fill="none" stroke="black" points="132.5,-959.5 263.5,-959.5 "/>
<text text-anchor="start" x="140.5" y="-947.5" font-family="Helvetica,sans-Serif" font-size="10.00">+ ~MIDIInputElement()</text>
<text text-anchor="start" x="140.5" y="-936.5" font-family="Helvetica,sans-Serif" font-size="10.00">+ begin()</text>
<text text-anchor="start" x="140.5" y="-925.5" font-family="Helvetica,sans-Serif" font-size="10.00">+ reset()</text>
<text text-anchor="start" x="140.5" y="-914.5" font-family="Helvetica,sans-Serif" font-size="10.00">+ update()</text>
<text text-anchor="start" x="140.5" y="-903.5" font-family="Helvetica,sans-Serif" font-size="10.00">+ updateWith()</text>
<text text-anchor="start" x="140.5" y="-892.5" font-family="Helvetica,sans-Serif" font-size="10.00"># MIDIInputElement()</text>
<text text-anchor="start" x="140.5" y="-881.5" font-family="Helvetica,sans-Serif" font-size="10.00"># MIDIInputElement()</text>
<text text-anchor="start" x="140.5" y="-870.5" font-family="Helvetica,sans-Serif" font-size="10.00">&#45; updateImpl()</text>
<text text-anchor="start" x="140.5" y="-859.5" font-family="Helvetica,sans-Serif" font-size="10.00">&#45; getTarget()</text>
<text text-anchor="start" x="140.5" y="-848.5" font-family="Helvetica,sans-Serif" font-size="10.00">&#45; match()</text>
</a>
</g>
</g>
<!-- Node5&#45;&gt;Node4 -->
<g id="edge4" class="edge">
<title>Node5&#45;&gt;Node4</title>
<path fill="none" stroke="midnightblue" d="M198,-831.34C198,-816.59 198,-801.43 198,-787.13"/>
<polygon fill="none" stroke="midnightblue" points="194.5,-831.46 198,-841.46 201.5,-831.46 194.5,-831.46"/>
</g>
<!-- Node6 -->
<g id="node6" class="node">
<title>Node6</title>
<g id="a_node6"><a xlink:href="../../d7/d0f/classMIDIAddress.html" target="_top" xlink:title="A type&#45;safe utility class for saving a MIDI address consisting of a 7&#45;bit address,...">
<polygon fill="white" stroke="black" points="127,-1045.5 127,-1333.5 269,-1333.5 269,-1045.5 127,-1045.5"/>
<text text-anchor="middle" x="198" y="-1321.5" font-family="Helvetica,sans-Serif" font-size="10.00">MIDIAddress</text>
<polyline fill="none" stroke="black" points="127,-1314.5 269,-1314.5 "/>
<text text-anchor="start" x="135" y="-1302.5" font-family="Helvetica,sans-Serif" font-size="10.00">&#45; addresses</text>
<polyline fill="none" stroke="black" points="127,-1295.5 269,-1295.5 "/>
<text text-anchor="start" x="135" y="-1283.5" font-family="Helvetica,sans-Serif" font-size="10.00">* MIDIAddress()</text>
<text text-anchor="start" x="135" y="-1272.5" font-family="Helvetica,sans-Serif" font-size="10.00">* MIDIAddress()</text>
<text text-anchor="start" x="135" y="-1261.5" font-family="Helvetica,sans-Serif" font-size="10.00">* MIDIAddress()</text>
<text text-anchor="start" x="135" y="-1250.5" font-family="Helvetica,sans-Serif" font-size="10.00">* MIDIAddress()</text>
<text text-anchor="start" x="135" y="-1239.5" font-family="Helvetica,sans-Serif" font-size="10.00">* MIDIAddress()</text>
<text text-anchor="start" x="135" y="-1228.5" font-family="Helvetica,sans-Serif" font-size="10.00">* MIDIAddress()</text>
<text text-anchor="start" x="135" y="-1217.5" font-family="Helvetica,sans-Serif" font-size="10.00">* invalid()</text>
<text text-anchor="start" x="135" y="-1206.5" font-family="Helvetica,sans-Serif" font-size="10.00">* operator+=()</text>
<text text-anchor="start" x="135" y="-1195.5" font-family="Helvetica,sans-Serif" font-size="10.00">* operator&#45;=()</text>
<text text-anchor="start" x="135" y="-1184.5" font-family="Helvetica,sans-Serif" font-size="10.00">* operator+()</text>
<text text-anchor="start" x="135" y="-1173.5" font-family="Helvetica,sans-Serif" font-size="10.00">* operator&#45;()</text>
<text text-anchor="start" x="135" y="-1162.5" font-family="Helvetica,sans-Serif" font-size="10.00">* getAddress()</text>
<text text-anchor="start" x="135" y="-1151.5" font-family="Helvetica,sans-Serif" font-size="10.00">* getChannel()</text>
<text text-anchor="start" x="135" y="-1140.5" font-family="Helvetica,sans-Serif" font-size="10.00">* getRawChannel()</text>
<text text-anchor="start" x="135" y="-1129.5" font-family="Helvetica,sans-Serif" font-size="10.00">* getCableNumber()</text>
<text text-anchor="start" x="135" y="-1118.5" font-family="Helvetica,sans-Serif" font-size="10.00">* getRawCableNumber()</text>
<text text-anchor="start" x="135" y="-1107.5" font-family="Helvetica,sans-Serif" font-size="10.00">* operator==()</text>
<text text-anchor="start" x="135" y="-1096.5" font-family="Helvetica,sans-Serif" font-size="10.00">* operator!=()</text>
<text text-anchor="start" x="135" y="-1085.5" font-family="Helvetica,sans-Serif" font-size="10.00">* isValid()</text>
<text text-anchor="start" x="135" y="-1074.5" font-family="Helvetica,sans-Serif" font-size="10.00">* operator bool()</text>
<text text-anchor="start" x="135" y="-1063.5" font-family="Helvetica,sans-Serif" font-size="10.00">* matchSingle()</text>
<text text-anchor="start" x="135" y="-1052.5" font-family="Helvetica,sans-Serif" font-size="10.00">* matchAddressInRange()</text>
</a>
</g>
</g>
<!-- Node6&#45;&gt;Node5 -->
<g id="edge5" class="edge">
<title>Node6&#45;&gt;Node5</title>
<path fill="none" stroke="#404040" d="M198,-1045.48C198,-1033.39 198,-1021.39 198,-1009.9"/>
<polygon fill="none" stroke="#404040" points="198,-1009.63 194,-1003.63 198,-997.63 202,-1003.63 198,-1009.63"/>
<text text-anchor="middle" x="223" y="-1019" font-family="Helvetica,sans-Serif" font-size="10.00"> #address</text>
</g>
<!-- Node7&#45;&gt;Node4 -->
<g id="edge6" class="edge">
<title>Node7&#45;&gt;Node4</title>
<path fill="none" stroke="midnightblue" d="M92.69,-460.5C112.41,-507.87 144.61,-585.24 168.23,-641.97"/>
<polygon fill="none" stroke="midnightblue" points="95.88,-459.05 88.8,-451.16 89.41,-461.74 95.88,-459.05"/>
</g>
<!-- Node8&#45;&gt;Node4 -->
<g id="edge8" class="edge">
<title>Node8&#45;&gt;Node4</title>
<path fill="none" stroke="#404040" d="M231.59,-566.59C229.6,-580.29 227.41,-593.92 225,-607 223.61,-614.54 222,-622.33 220.25,-630.12"/>
<polygon fill="none" stroke="#404040" points="220.24,-630.2 222.78,-636.94 217.53,-641.89 214.99,-635.14 220.24,-630.2"/>
<text text-anchor="middle" x="255.5" y="-593.5" font-family="Helvetica,sans-Serif" font-size="10.00"> &#45;elements</text>
</g>
<!-- Node9 -->
<g id="node9" class="node">
<title>Node9</title>
<g id="a_node9"><a xlink:href="../../d2/de9/classIVU.html" target="_top" xlink:title="An abstract interface for VU meters.">
<polygon fill="white" stroke="black" points="346.5,-664 346.5,-765 449.5,-765 449.5,-664 346.5,-664"/>
<text text-anchor="middle" x="398" y="-753" font-family="Helvetica,sans-Serif" font-size="10.00">IVU</text>
<polyline fill="none" stroke="black" points="346.5,-746 449.5,-746 "/>
<text text-anchor="start" x="354.5" y="-734" font-family="Helvetica,sans-Serif" font-size="10.00"># max</text>
<polyline fill="none" stroke="black" points="346.5,-727 449.5,-727 "/>
<text text-anchor="start" x="354.5" y="-715" font-family="Helvetica,sans-Serif" font-size="10.00">+ IVU()</text>
<text text-anchor="start" x="354.5" y="-704" font-family="Helvetica,sans-Serif" font-size="10.00">+ getValue()</text>
<text text-anchor="start" x="354.5" y="-693" font-family="Helvetica,sans-Serif" font-size="10.00">+ getOverload()</text>
<text text-anchor="start" x="354.5" y="-682" font-family="Helvetica,sans-Serif" font-size="10.00">+ getFloatValue()</text>
<text text-anchor="start" x="354.5" y="-671" font-family="Helvetica,sans-Serif" font-size="10.00">+ getMax()</text>
</a>
</g>
</g>
<!-- Node9&#45;&gt;Node3 -->
<g id="edge10" class="edge">
<title>Node9&#45;&gt;Node3</title>
<path fill="none" stroke="midnightblue" d="M403.7,-653.39C406.67,-621.98 410.43,-582.3 414.01,-544.51"/>
<polygon fill="none" stroke="midnightblue" points="400.18,-653.42 402.72,-663.71 407.15,-654.08 400.18,-653.42"/>
</g>
<!-- Node10 -->
<g id="node10" class="node">
<title>Node10</title>
<g id="a_node10"><a xlink:href="../../d0/d32/structAH_1_1Array.html" target="_top" xlink:title=" ">
<polygon fill="white" stroke="black" points="467.5,-625.5 467.5,-803.5 628.5,-803.5 628.5,-625.5 467.5,-625.5"/>
<text text-anchor="middle" x="548" y="-791.5" font-family="Helvetica,sans-Serif" font-size="10.00">Array&lt; uint8_t, NumValues &gt;</text>
<polyline fill="none" stroke="black" points="467.5,-784.5 628.5,-784.5 "/>
<text text-anchor="start" x="475.5" y="-772.5" font-family="Helvetica,sans-Serif" font-size="10.00">+ data</text>
<text text-anchor="start" x="475.5" y="-761.5" font-family="Helvetica,sans-Serif" font-size="10.00">+ length</text>
<polyline fill="none" stroke="black" points="467.5,-754.5 628.5,-754.5 "/>
<text text-anchor="start" x="475.5" y="-742.5" font-family="Helvetica,sans-Serif" font-size="10.00">+ operator[]()</text>
<text text-anchor="start" x="475.5" y="-731.5" font-family="Helvetica,sans-Serif" font-size="10.00">+ operator[]()</text>
<text text-anchor="start" x="475.5" y="-720.5" font-family="Helvetica,sans-Serif" font-size="10.00">+ begin()</text>
<text text-anchor="start" x="475.5" y="-709.5" font-family="Helvetica,sans-Serif" font-size="10.00">+ begin()</text>
<text text-anchor="start" x="475.5" y="-698.5" font-family="Helvetica,sans-Serif" font-size="10.00">+ end()</text>
<text text-anchor="start" x="475.5" y="-687.5" font-family="Helvetica,sans-Serif" font-size="10.00">+ end()</text>
<text text-anchor="start" x="475.5" y="-676.5" font-family="Helvetica,sans-Serif" font-size="10.00">+ operator==()</text>
<text text-anchor="start" x="475.5" y="-665.5" font-family="Helvetica,sans-Serif" font-size="10.00">+ operator!=()</text>
<text text-anchor="start" x="475.5" y="-654.5" font-family="Helvetica,sans-Serif" font-size="10.00">+ slice()</text>
<text text-anchor="start" x="475.5" y="-643.5" font-family="Helvetica,sans-Serif" font-size="10.00">+ slice()</text>
<text text-anchor="start" x="475.5" y="-632.5" font-family="Helvetica,sans-Serif" font-size="10.00">+ cslice()</text>
</a>
</g>
</g>
<!-- Node10&#45;&gt;Node3 -->
<g id="edge11" class="edge">
<title>Node10&#45;&gt;Node3</title>
<path fill="none" stroke="#404040" d="M511.56,-625.24C502.53,-603.37 492.64,-579.4 482.88,-555.78"/>
<polygon fill="none" stroke="#404040" points="482.84,-555.68 476.86,-551.66 478.26,-544.59 484.25,-548.61 482.84,-555.68"/>
<text text-anchor="middle" x="521.5" y="-593.5" font-family="Helvetica,sans-Serif" font-size="10.00"> &#45;values</text>
</g>
</g>
</svg>
