<?xml version="1.0" encoding="UTF-8" standalone="no"?>
<!DOCTYPE svg PUBLIC "-//W3C//DTD SVG 1.1//EN"
 "http://www.w3.org/Graphics/SVG/1.1/DTD/svg11.dtd">
<!-- Generated by graphviz version 2.43.0 (0)
 -->
<!-- Title: CCRotaryEncoder Pages: 1 -->
<svg width="168pt" height="918pt"
 viewBox="0.00 0.00 168.00 918.00" xmlns="http://www.w3.org/2000/svg" xmlns:xlink="http://www.w3.org/1999/xlink">
<g id="graph0" class="graph" transform="scale(1 1) rotate(0) translate(4 914)">
<title>CCRotaryEncoder</title>
<!-- Node1 -->
<g id="Node000001" class="node">
<title>Node1</title>
<g id="a_Node000001"><a xlink:title="A class of MIDIOutputElements that read the input of a quadrature (rotary) encoder and send out relat...">
<polygon fill="#999999" stroke="transparent" points="137,-49 23,-49 23,0 137,0 137,-49"/>
<text text-anchor="start" x="37.5" y="-36.5" font-family="Helvetica,sans-Serif" font-size="10.00">CCRotaryEncoder</text>
<text text-anchor="start" x="78" y="-21.5" font-family="Helvetica,sans-Serif" font-size="10.00"> </text>
<text text-anchor="start" x="27" y="-6.5" font-family="Helvetica,sans-Serif" font-size="10.00">+</text>
<text text-anchor="start" x="40" y="-6.5" font-family="Helvetica,sans-Serif" font-size="10.00">CCRotaryEncoder()</text>
<polygon fill="#666666" stroke="#666666" points="23,-31.5 23,-31.5 137,-31.5 137,-31.5 23,-31.5"/>
<polygon fill="#666666" stroke="#666666" points="23,-16.5 23,-16.5 137,-16.5 137,-16.5 23,-16.5"/>
<polygon fill="none" stroke="#666666" points="23,0 23,-49 137,-49 137,0 23,0"/>
</a>
</g>
</g>
<!-- Node2 -->
<g id="Node000002" class="node">
<title>Node2</title>
<g id="a_Node000002"><a xlink:href="../../d0/d9e/classGenericMIDIRotaryEncoder.html" target="_top" xlink:title="An abstract class for rotary encoders that send MIDI events.">
<polygon fill="white" stroke="transparent" points="160,-295 0,-295 0,-85 160,-85 160,-295"/>
<text text-anchor="start" x="28.5" y="-283" font-family="Helvetica,sans-Serif" font-size="10.00">MIDIRotaryEncoder&lt;</text>
<text text-anchor="start" x="28.5" y="-272" font-family="Helvetica,sans-Serif" font-size="10.00"> RelativeCCSender &gt;</text>
<text text-anchor="start" x="4" y="-257" font-family="Helvetica,sans-Serif" font-size="10.00">+</text>
<text text-anchor="start" x="17" y="-257" font-family="Helvetica,sans-Serif" font-size="10.00">sender</text>
<text text-anchor="start" x="6.5" y="-242" font-family="Helvetica,sans-Serif" font-size="10.00">&#45;</text>
<text text-anchor="start" x="17" y="-242" font-family="Helvetica,sans-Serif" font-size="10.00">encoder</text>
<text text-anchor="start" x="6.5" y="-227" font-family="Helvetica,sans-Serif" font-size="10.00">&#45;</text>
<text text-anchor="start" x="17" y="-227" font-family="Helvetica,sans-Serif" font-size="10.00">address</text>
<text text-anchor="start" x="6.5" y="-212" font-family="Helvetica,sans-Serif" font-size="10.00">&#45;</text>
<text text-anchor="start" x="17" y="-212" font-family="Helvetica,sans-Serif" font-size="10.00">encstate</text>
<text text-anchor="start" x="4" y="-197" font-family="Helvetica,sans-Serif" font-size="10.00">+</text>
<text text-anchor="start" x="17" y="-197" font-family="Helvetica,sans-Serif" font-size="10.00">GenericMIDIRotaryEncoder()</text>
<text text-anchor="start" x="4" y="-182" font-family="Helvetica,sans-Serif" font-size="10.00">+</text>
<text text-anchor="start" x="17" y="-182" font-family="Helvetica,sans-Serif" font-size="10.00">begin()</text>
<text text-anchor="start" x="4" y="-167" font-family="Helvetica,sans-Serif" font-size="10.00">+</text>
<text text-anchor="start" x="17" y="-167" font-family="Helvetica,sans-Serif" font-size="10.00">update()</text>
<text text-anchor="start" x="4" y="-152" font-family="Helvetica,sans-Serif" font-size="10.00">+</text>
<text text-anchor="start" x="17" y="-152" font-family="Helvetica,sans-Serif" font-size="10.00">setSpeedMultiply()</text>
<text text-anchor="start" x="4" y="-137" font-family="Helvetica,sans-Serif" font-size="10.00">+</text>
<text text-anchor="start" x="17" y="-137" font-family="Helvetica,sans-Serif" font-size="10.00">getSpeedMultiply()</text>
<text text-anchor="start" x="4" y="-122" font-family="Helvetica,sans-Serif" font-size="10.00">+</text>
<text text-anchor="start" x="17" y="-122" font-family="Helvetica,sans-Serif" font-size="10.00">getAddress()</text>
<text text-anchor="start" x="4" y="-107" font-family="Helvetica,sans-Serif" font-size="10.00">+</text>
<text text-anchor="start" x="17" y="-107" font-family="Helvetica,sans-Serif" font-size="10.00">setAddress()</text>
<text text-anchor="start" x="4" y="-92" font-family="Helvetica,sans-Serif" font-size="10.00">+</text>
<text text-anchor="start" x="17" y="-92" font-family="Helvetica,sans-Serif" font-size="10.00">resetPositionOffset()</text>
<polygon fill="#666666" stroke="#666666" points="0,-267 0,-267 160,-267 160,-267 0,-267"/>
<polygon fill="#666666" stroke="#666666" points="0,-207 0,-207 15,-207 15,-207 0,-207"/>
<polygon fill="#666666" stroke="#666666" points="15,-207 15,-207 160,-207 160,-207 15,-207"/>
<polygon fill="none" stroke="#666666" points="0,-85 0,-295 160,-295 160,-85 0,-85"/>
</a>
</g>
</g>
<!-- Node2&#45;&gt;Node1 -->
<g id="edge1_Node000001_Node000002" class="edge">
<title>Node2&#45;&gt;Node1</title>
<g id="a_edge1_Node000001_Node000002"><a xlink:title=" ">
<path fill="none" stroke="#63b8ff" d="M80,-74.86C80,-65.36 80,-56.55 80,-49.09"/>
<polygon fill="none" stroke="#63b8ff" points="76.5,-74.99 80,-84.99 83.5,-74.99 76.5,-74.99"/>
</a>
</g>
</g>
<!-- Node3 -->
<g id="Node000003" class="node">
<title>Node3</title>
<g id="a_Node000003"><a xlink:href="../../d1/d55/classAH_1_1Updatable.html" target="_top" xlink:title="A super class for object that have to be updated regularly.">
<polygon fill="white" stroke="transparent" points="133.5,-425 26.5,-425 26.5,-331 133.5,-331 133.5,-425"/>
<text text-anchor="start" x="32" y="-413" font-family="Helvetica,sans-Serif" font-size="10.00">MIDIOutputElement</text>
<text text-anchor="start" x="78.5" y="-398" font-family="Helvetica,sans-Serif" font-size="10.00"> </text>
<text text-anchor="start" x="39.5" y="-383" font-family="Helvetica,sans-Serif" font-size="10.00">*</text>
<text text-anchor="start" x="58" y="-383" font-family="Helvetica,sans-Serif" font-size="10.00">begin()</text>
<text text-anchor="start" x="39.5" y="-368" font-family="Helvetica,sans-Serif" font-size="10.00">*</text>
<text text-anchor="start" x="58" y="-368" font-family="Helvetica,sans-Serif" font-size="10.00">update()</text>
<text text-anchor="start" x="39.5" y="-353" font-family="Helvetica,sans-Serif" font-size="10.00">*</text>
<text text-anchor="start" x="58" y="-353" font-family="Helvetica,sans-Serif" font-size="10.00">beginAll()</text>
<text text-anchor="start" x="39.5" y="-338" font-family="Helvetica,sans-Serif" font-size="10.00">*</text>
<text text-anchor="start" x="58" y="-338" font-family="Helvetica,sans-Serif" font-size="10.00">updateAll()</text>
<polygon fill="#666666" stroke="#666666" points="27,-408 27,-408 134,-408 134,-408 27,-408"/>
<polygon fill="#666666" stroke="#666666" points="27,-393 27,-393 134,-393 134,-393 27,-393"/>
<polygon fill="none" stroke="#666666" points="26.5,-331 26.5,-425 133.5,-425 133.5,-331 26.5,-331"/>
</a>
</g>
</g>
<!-- Node3&#45;&gt;Node2 -->
<g id="edge2_Node000002_Node000003" class="edge">
<title>Node3&#45;&gt;Node2</title>
<g id="a_edge2_Node000002_Node000003"><a xlink:title=" ">
<path fill="none" stroke="#63b8ff" d="M80,-320.48C80,-312.34 80,-303.75 80,-295.02"/>
<polygon fill="none" stroke="#63b8ff" points="76.5,-320.54 80,-330.54 83.5,-320.54 76.5,-320.54"/>
</a>
</g>
</g>
<!-- Node4 -->
<g id="Node000004" class="node">
<title>Node4</title>
<g id="a_Node000004"><a xlink:href="../../d8/d1a/classAH_1_1UpdatableCRTP.html" target="_top" xlink:title="A super class for object that have to be updated regularly.">
<polygon fill="white" stroke="transparent" points="153,-735 7,-735 7,-461 153,-461 153,-735"/>
<text text-anchor="start" x="12" y="-723" font-family="Helvetica,sans-Serif" font-size="10.00">UpdatableCRTP&lt; Derived &gt;</text>
<text text-anchor="start" x="19.5" y="-708" font-family="Helvetica,sans-Serif" font-size="10.00">#</text>
<text text-anchor="start" x="41" y="-708" font-family="Helvetica,sans-Serif" font-size="10.00">updatables</text>
<text text-anchor="start" x="19.5" y="-693" font-family="Helvetica,sans-Serif" font-size="10.00">+</text>
<text text-anchor="start" x="41" y="-693" font-family="Helvetica,sans-Serif" font-size="10.00">~UpdatableCRTP()</text>
<text text-anchor="start" x="19.5" y="-678" font-family="Helvetica,sans-Serif" font-size="10.00">#</text>
<text text-anchor="start" x="41" y="-678" font-family="Helvetica,sans-Serif" font-size="10.00">UpdatableCRTP()</text>
<text text-anchor="start" x="19.5" y="-663" font-family="Helvetica,sans-Serif" font-size="10.00">#</text>
<text text-anchor="start" x="41" y="-663" font-family="Helvetica,sans-Serif" font-size="10.00">UpdatableCRTP()</text>
<text text-anchor="start" x="19.5" y="-648" font-family="Helvetica,sans-Serif" font-size="10.00">#</text>
<text text-anchor="start" x="41" y="-648" font-family="Helvetica,sans-Serif" font-size="10.00">operator=()</text>
<text text-anchor="start" x="19.5" y="-633" font-family="Helvetica,sans-Serif" font-size="10.00">#</text>
<text text-anchor="start" x="41" y="-633" font-family="Helvetica,sans-Serif" font-size="10.00">UpdatableCRTP()</text>
<text text-anchor="start" x="19.5" y="-618" font-family="Helvetica,sans-Serif" font-size="10.00">#</text>
<text text-anchor="start" x="41" y="-618" font-family="Helvetica,sans-Serif" font-size="10.00">operator=()</text>
<text text-anchor="start" x="21" y="-603" font-family="Helvetica,sans-Serif" font-size="10.00">*</text>
<text text-anchor="start" x="41" y="-603" font-family="Helvetica,sans-Serif" font-size="10.00">enable()</text>
<text text-anchor="start" x="21" y="-588" font-family="Helvetica,sans-Serif" font-size="10.00">*</text>
<text text-anchor="start" x="41" y="-588" font-family="Helvetica,sans-Serif" font-size="10.00">disable()</text>
<text text-anchor="start" x="21" y="-573" font-family="Helvetica,sans-Serif" font-size="10.00">*</text>
<text text-anchor="start" x="41" y="-573" font-family="Helvetica,sans-Serif" font-size="10.00">isEnabled()</text>
<text text-anchor="start" x="21" y="-558" font-family="Helvetica,sans-Serif" font-size="10.00">*</text>
<text text-anchor="start" x="41" y="-558" font-family="Helvetica,sans-Serif" font-size="10.00">moveDown()</text>
<text text-anchor="start" x="21" y="-543" font-family="Helvetica,sans-Serif" font-size="10.00">*</text>
<text text-anchor="start" x="41" y="-543" font-family="Helvetica,sans-Serif" font-size="10.00">enable()</text>
<text text-anchor="start" x="21" y="-528" font-family="Helvetica,sans-Serif" font-size="10.00">*</text>
<text text-anchor="start" x="41" y="-528" font-family="Helvetica,sans-Serif" font-size="10.00">enable()</text>
<text text-anchor="start" x="21" y="-513" font-family="Helvetica,sans-Serif" font-size="10.00">*</text>
<text text-anchor="start" x="41" y="-513" font-family="Helvetica,sans-Serif" font-size="10.00">enable()</text>
<text text-anchor="start" x="21" y="-498" font-family="Helvetica,sans-Serif" font-size="10.00">*</text>
<text text-anchor="start" x="41" y="-498" font-family="Helvetica,sans-Serif" font-size="10.00">disable()</text>
<text text-anchor="start" x="21" y="-483" font-family="Helvetica,sans-Serif" font-size="10.00">*</text>
<text text-anchor="start" x="41" y="-483" font-family="Helvetica,sans-Serif" font-size="10.00">disable()</text>
<text text-anchor="start" x="21" y="-468" font-family="Helvetica,sans-Serif" font-size="10.00">*</text>
<text text-anchor="start" x="41" y="-468" font-family="Helvetica,sans-Serif" font-size="10.00">disable()</text>
<polygon fill="#666666" stroke="#666666" points="7,-718 7,-718 153,-718 153,-718 7,-718"/>
<polygon fill="#666666" stroke="#666666" points="7,-703 7,-703 39,-703 39,-703 7,-703"/>
<polygon fill="#666666" stroke="#666666" points="39,-703 39,-703 153,-703 153,-703 39,-703"/>
<polygon fill="none" stroke="#666666" points="7,-461 7,-735 153,-735 153,-461 7,-461"/>
</a>
</g>
</g>
<!-- Node4&#45;&gt;Node3 -->
<g id="edge3_Node000003_Node000004" class="edge">
<title>Node4&#45;&gt;Node3</title>
<g id="a_edge3_Node000003_Node000004"><a xlink:title=" ">
<path fill="none" stroke="#63b8ff" d="M80,-450.62C80,-441.73 80,-433.22 80,-425.37"/>
<polygon fill="none" stroke="#63b8ff" points="76.5,-450.8 80,-460.8 83.5,-450.8 76.5,-450.8"/>
</a>
</g>
</g>
<!-- Node5 -->
<g id="Node000005" class="node">
<title>Node5</title>
<g id="a_Node000005"><a xlink:href="../../d4/d23/classDoublyLinkable.html" target="_top" xlink:title=" ">
<polygon fill="white" stroke="transparent" points="153,-910 7,-910 7,-771 153,-771 153,-910"/>
<text text-anchor="start" x="12" y="-897.5" font-family="Helvetica,sans-Serif" font-size="10.00">DoublyLinkable&lt; Derived &gt;</text>
<text text-anchor="start" x="19.5" y="-882.5" font-family="Helvetica,sans-Serif" font-size="10.00">#</text>
<text text-anchor="start" x="41" y="-882.5" font-family="Helvetica,sans-Serif" font-size="10.00">next</text>
<text text-anchor="start" x="19.5" y="-867.5" font-family="Helvetica,sans-Serif" font-size="10.00">#</text>
<text text-anchor="start" x="41" y="-867.5" font-family="Helvetica,sans-Serif" font-size="10.00">previous</text>
<text text-anchor="start" x="19.5" y="-852.5" font-family="Helvetica,sans-Serif" font-size="10.00">#</text>
<text text-anchor="start" x="41" y="-852.5" font-family="Helvetica,sans-Serif" font-size="10.00">~DoublyLinkable()</text>
<text text-anchor="start" x="19.5" y="-837.5" font-family="Helvetica,sans-Serif" font-size="10.00">#</text>
<text text-anchor="start" x="41" y="-837.5" font-family="Helvetica,sans-Serif" font-size="10.00">DoublyLinkable()</text>
<text text-anchor="start" x="19.5" y="-822.5" font-family="Helvetica,sans-Serif" font-size="10.00">#</text>
<text text-anchor="start" x="41" y="-822.5" font-family="Helvetica,sans-Serif" font-size="10.00">DoublyLinkable()</text>
<text text-anchor="start" x="19.5" y="-807.5" font-family="Helvetica,sans-Serif" font-size="10.00">#</text>
<text text-anchor="start" x="41" y="-807.5" font-family="Helvetica,sans-Serif" font-size="10.00">DoublyLinkable()</text>
<text text-anchor="start" x="19.5" y="-792.5" font-family="Helvetica,sans-Serif" font-size="10.00">#</text>
<text text-anchor="start" x="41" y="-792.5" font-family="Helvetica,sans-Serif" font-size="10.00">operator=()</text>
<text text-anchor="start" x="19.5" y="-777.5" font-family="Helvetica,sans-Serif" font-size="10.00">#</text>
<text text-anchor="start" x="41" y="-777.5" font-family="Helvetica,sans-Serif" font-size="10.00">operator=()</text>
<polygon fill="#666666" stroke="#666666" points="7,-892.5 7,-892.5 153,-892.5 153,-892.5 7,-892.5"/>
<polygon fill="#666666" stroke="#666666" points="7,-862.5 7,-862.5 39,-862.5 39,-862.5 7,-862.5"/>
<polygon fill="#666666" stroke="#666666" points="39,-862.5 39,-862.5 153,-862.5 153,-862.5 39,-862.5"/>
<polygon fill="none" stroke="#666666" points="7,-771 7,-910 153,-910 153,-771 7,-771"/>
</a>
</g>
</g>
<!-- Node5&#45;&gt;Node4 -->
<g id="edge4_Node000004_Node000005" class="edge">
<title>Node5&#45;&gt;Node4</title>
<g id="a_edge4_Node000004_Node000005"><a xlink:title=" ">
<path fill="none" stroke="#63b8ff" d="M80,-760.71C80,-752.52 80,-744.04 80,-735.45"/>
<polygon fill="none" stroke="#63b8ff" points="76.5,-760.9 80,-770.9 83.5,-760.9 76.5,-760.9"/>
</a>
</g>
</g>
</g>
</svg>
