<?xml version="1.0" encoding="UTF-8" standalone="no"?>
<!DOCTYPE svg PUBLIC "-//W3C//DTD SVG 1.1//EN"
 "http://www.w3.org/Graphics/SVG/1.1/DTD/svg11.dtd">
<!-- Generated by graphviz version 2.43.0 (0)
 -->
<!-- Title: NoteButtonLatched Pages: 1 -->
<svg width="946pt" height="1053pt"
 viewBox="0.00 0.00 946.00 1053.00" xmlns="http://www.w3.org/2000/svg" xmlns:xlink="http://www.w3.org/1999/xlink">
<g id="graph0" class="graph" transform="scale(1 1) rotate(0) translate(4 1049)">
<title>NoteButtonLatched</title>
<polygon fill="white" stroke="transparent" points="-4,4 -4,-1049 942,-1049 942,4 -4,4"/>
<!-- Node1 -->
<g id="node1" class="node">
<title>Node1</title>
<g id="a_node1"><a xlink:title="A class of MIDIOutputElements that read the input of a momentary push button or switch,...">
<polygon fill="#bfbfbf" stroke="black" points="604,-0.5 604,-79.5 733,-79.5 733,-0.5 604,-0.5"/>
<text text-anchor="middle" x="668.5" y="-67.5" font-family="Helvetica,sans-Serif" font-size="10.00">NoteButtonLatched</text>
<polyline fill="none" stroke="black" points="604,-60.5 733,-60.5 "/>
<text text-anchor="middle" x="668.5" y="-48.5" font-family="Helvetica,sans-Serif" font-size="10.00"> </text>
<polyline fill="none" stroke="black" points="604,-41.5 733,-41.5 "/>
<text text-anchor="start" x="612" y="-29.5" font-family="Helvetica,sans-Serif" font-size="10.00">+ NoteButtonLatched()</text>
<text text-anchor="start" x="612" y="-18.5" font-family="Helvetica,sans-Serif" font-size="10.00">+ setVelocity()</text>
<text text-anchor="start" x="612" y="-7.5" font-family="Helvetica,sans-Serif" font-size="10.00">+ getVelocity()</text>
</a>
</g>
</g>
<!-- Node2 -->
<g id="node2" class="node">
<title>Node2</title>
<g id="a_node2"><a xlink:href="../../d3/d88/classMIDIButtonLatched.html" target="_top" xlink:title=" ">
<polygon fill="white" stroke="black" points="604.5,-183.5 604.5,-350.5 732.5,-350.5 732.5,-183.5 604.5,-183.5"/>
<text text-anchor="start" x="612.5" y="-338.5" font-family="Helvetica,sans-Serif" font-size="10.00">MIDIButtonLatched&lt;</text>
<text text-anchor="middle" x="668.5" y="-327.5" font-family="Helvetica,sans-Serif" font-size="10.00"> DigitalNoteSender &gt;</text>
<polyline fill="none" stroke="black" points="604.5,-320.5 732.5,-320.5 "/>
<text text-anchor="start" x="612.5" y="-308.5" font-family="Helvetica,sans-Serif" font-size="10.00">&#45; state</text>
<polyline fill="none" stroke="black" points="604.5,-301.5 732.5,-301.5 "/>
<text text-anchor="start" x="612.5" y="-289.5" font-family="Helvetica,sans-Serif" font-size="10.00">+ begin()</text>
<text text-anchor="start" x="612.5" y="-278.5" font-family="Helvetica,sans-Serif" font-size="10.00">+ update()</text>
<text text-anchor="start" x="612.5" y="-267.5" font-family="Helvetica,sans-Serif" font-size="10.00">+ toggleState()</text>
<text text-anchor="start" x="612.5" y="-256.5" font-family="Helvetica,sans-Serif" font-size="10.00">+ getState()</text>
<text text-anchor="start" x="612.5" y="-245.5" font-family="Helvetica,sans-Serif" font-size="10.00">+ setState()</text>
<text text-anchor="start" x="612.5" y="-234.5" font-family="Helvetica,sans-Serif" font-size="10.00">+ invert()</text>
<text text-anchor="start" x="612.5" y="-223.5" font-family="Helvetica,sans-Serif" font-size="10.00">+ getButtonState()</text>
<text text-anchor="start" x="612.5" y="-212.5" font-family="Helvetica,sans-Serif" font-size="10.00">+ getAddress()</text>
<text text-anchor="start" x="612.5" y="-201.5" font-family="Helvetica,sans-Serif" font-size="10.00">+ setAddressUnsafe()</text>
<text text-anchor="start" x="612.5" y="-190.5" font-family="Helvetica,sans-Serif" font-size="10.00"># MIDIButtonLatched()</text>
</a>
</g>
</g>
<!-- Node2&#45;&gt;Node1 -->
<g id="edge1" class="edge">
<title>Node2&#45;&gt;Node1</title>
<path fill="none" stroke="midnightblue" d="M668.5,-173.41C668.5,-140.64 668.5,-105.54 668.5,-79.72"/>
<polygon fill="none" stroke="midnightblue" points="665,-173.5 668.5,-183.5 672,-173.5 665,-173.5"/>
</g>
<!-- Node3 -->
<g id="node3" class="node">
<title>Node3</title>
<g id="a_node3"><a xlink:href="../../d1/d55/classAH_1_1Updatable.html" target="_top" xlink:title="A super class for object that have to be updated regularly.">
<polygon fill="white" stroke="black" points="365,-574.5 365,-664.5 478,-664.5 478,-574.5 365,-574.5"/>
<text text-anchor="middle" x="421.5" y="-652.5" font-family="Helvetica,sans-Serif" font-size="10.00">MIDIOutputElement</text>
<polyline fill="none" stroke="black" points="365,-645.5 478,-645.5 "/>
<text text-anchor="middle" x="421.5" y="-633.5" font-family="Helvetica,sans-Serif" font-size="10.00"> </text>
<polyline fill="none" stroke="black" points="365,-626.5 478,-626.5 "/>
<text text-anchor="start" x="373" y="-614.5" font-family="Helvetica,sans-Serif" font-size="10.00">* begin()</text>
<text text-anchor="start" x="373" y="-603.5" font-family="Helvetica,sans-Serif" font-size="10.00">* update()</text>
<text text-anchor="start" x="373" y="-592.5" font-family="Helvetica,sans-Serif" font-size="10.00">* beginAll()</text>
<text text-anchor="start" x="373" y="-581.5" font-family="Helvetica,sans-Serif" font-size="10.00">* updateAll()</text>
</a>
</g>
</g>
<!-- Node3&#45;&gt;Node2 -->
<g id="edge2" class="edge">
<title>Node3&#45;&gt;Node2</title>
<path fill="none" stroke="midnightblue" d="M441.84,-564.86C453.44,-537.04 469.3,-503.1 487.5,-475 521.11,-423.11 567.03,-370.75 604.21,-331.67"/>
<polygon fill="none" stroke="midnightblue" points="438.47,-563.84 437.92,-574.42 444.95,-566.5 438.47,-563.84"/>
</g>
<!-- Node4 -->
<g id="node4" class="node">
<title>Node4</title>
<g id="a_node4"><a xlink:href="../../d8/d1a/classAH_1_1UpdatableCRTP.html" target="_top" xlink:title=" ">
<polygon fill="white" stroke="black" points="142,-811.5 142,-1044.5 295,-1044.5 295,-811.5 142,-811.5"/>
<text text-anchor="start" x="150" y="-1032.5" font-family="Helvetica,sans-Serif" font-size="10.00">UpdatableCRTP&lt; Updatable</text>
<text text-anchor="middle" x="218.5" y="-1021.5" font-family="Helvetica,sans-Serif" font-size="10.00">&lt; NormalUpdatable &gt; &gt;</text>
<polyline fill="none" stroke="black" points="142,-1014.5 295,-1014.5 "/>
<text text-anchor="middle" x="218.5" y="-1002.5" font-family="Helvetica,sans-Serif" font-size="10.00"> </text>
<polyline fill="none" stroke="black" points="142,-995.5 295,-995.5 "/>
<text text-anchor="start" x="150" y="-983.5" font-family="Helvetica,sans-Serif" font-size="10.00">+ ~UpdatableCRTP()</text>
<text text-anchor="start" x="150" y="-972.5" font-family="Helvetica,sans-Serif" font-size="10.00"># UpdatableCRTP()</text>
<text text-anchor="start" x="150" y="-961.5" font-family="Helvetica,sans-Serif" font-size="10.00"># UpdatableCRTP()</text>
<text text-anchor="start" x="150" y="-950.5" font-family="Helvetica,sans-Serif" font-size="10.00"># UpdatableCRTP()</text>
<text text-anchor="start" x="150" y="-939.5" font-family="Helvetica,sans-Serif" font-size="10.00"># operator=()</text>
<text text-anchor="start" x="150" y="-928.5" font-family="Helvetica,sans-Serif" font-size="10.00"># operator=()</text>
<text text-anchor="start" x="150" y="-917.5" font-family="Helvetica,sans-Serif" font-size="10.00">* enable()</text>
<text text-anchor="start" x="150" y="-906.5" font-family="Helvetica,sans-Serif" font-size="10.00">* disable()</text>
<text text-anchor="start" x="150" y="-895.5" font-family="Helvetica,sans-Serif" font-size="10.00">* isEnabled()</text>
<text text-anchor="start" x="150" y="-884.5" font-family="Helvetica,sans-Serif" font-size="10.00">* moveDown()</text>
<text text-anchor="start" x="150" y="-873.5" font-family="Helvetica,sans-Serif" font-size="10.00">* enable()</text>
<text text-anchor="start" x="150" y="-862.5" font-family="Helvetica,sans-Serif" font-size="10.00">* enable()</text>
<text text-anchor="start" x="150" y="-851.5" font-family="Helvetica,sans-Serif" font-size="10.00">* enable()</text>
<text text-anchor="start" x="150" y="-840.5" font-family="Helvetica,sans-Serif" font-size="10.00">* disable()</text>
<text text-anchor="start" x="150" y="-829.5" font-family="Helvetica,sans-Serif" font-size="10.00">* disable()</text>
<text text-anchor="start" x="150" y="-818.5" font-family="Helvetica,sans-Serif" font-size="10.00">* disable()</text>
</a>
</g>
</g>
<!-- Node4&#45;&gt;Node3 -->
<g id="edge3" class="edge">
<title>Node4&#45;&gt;Node3</title>
<path fill="none" stroke="midnightblue" d="M301.48,-831.7C318.62,-810.11 335.88,-786.8 350.5,-764 370.9,-732.18 389.66,-693.67 402.77,-664.55"/>
<polygon fill="none" stroke="midnightblue" points="298.7,-829.58 295.18,-839.58 304.16,-833.96 298.7,-829.58"/>
</g>
<!-- Node6 -->
<g id="node6" class="node">
<title>Node6</title>
<g id="a_node6"><a xlink:href="../../d1/d55/classAH_1_1Updatable.html" target="_top" xlink:title=" ">
<polygon fill="white" stroke="black" points="68.5,-574.5 68.5,-664.5 244.5,-664.5 244.5,-574.5 68.5,-574.5"/>
<text text-anchor="middle" x="156.5" y="-652.5" font-family="Helvetica,sans-Serif" font-size="10.00">Updatable&lt; NormalUpdatable &gt;</text>
<polyline fill="none" stroke="black" points="68.5,-645.5 244.5,-645.5 "/>
<text text-anchor="middle" x="156.5" y="-633.5" font-family="Helvetica,sans-Serif" font-size="10.00"> </text>
<polyline fill="none" stroke="black" points="68.5,-626.5 244.5,-626.5 "/>
<text text-anchor="start" x="76.5" y="-614.5" font-family="Helvetica,sans-Serif" font-size="10.00">* begin()</text>
<text text-anchor="start" x="76.5" y="-603.5" font-family="Helvetica,sans-Serif" font-size="10.00">* update()</text>
<text text-anchor="start" x="76.5" y="-592.5" font-family="Helvetica,sans-Serif" font-size="10.00">* beginAll()</text>
<text text-anchor="start" x="76.5" y="-581.5" font-family="Helvetica,sans-Serif" font-size="10.00">* updateAll()</text>
</a>
</g>
</g>
<!-- Node4&#45;&gt;Node6 -->
<g id="edge6" class="edge">
<title>Node4&#45;&gt;Node6</title>
<path fill="none" stroke="midnightblue" d="M193.04,-801.16C183.23,-752.64 172.65,-700.34 165.41,-664.56"/>
<polygon fill="none" stroke="midnightblue" points="189.65,-802.02 195.06,-811.13 196.51,-800.63 189.65,-802.02"/>
</g>
<!-- Node5 -->
<g id="node5" class="node">
<title>Node5</title>
<g id="a_node5"><a xlink:href="../../d4/d23/classDoublyLinkable.html" target="_top" xlink:title=" ">
<polygon fill="white" stroke="black" points="0,-205.5 0,-328.5 153,-328.5 153,-205.5 0,-205.5"/>
<text text-anchor="start" x="8" y="-316.5" font-family="Helvetica,sans-Serif" font-size="10.00">DoublyLinkable&lt; Updatable</text>
<text text-anchor="middle" x="76.5" y="-305.5" font-family="Helvetica,sans-Serif" font-size="10.00">&lt; NormalUpdatable &gt; &gt;</text>
<polyline fill="none" stroke="black" points="0,-298.5 153,-298.5 "/>
<text text-anchor="middle" x="76.5" y="-286.5" font-family="Helvetica,sans-Serif" font-size="10.00"> </text>
<polyline fill="none" stroke="black" points="0,-279.5 153,-279.5 "/>
<text text-anchor="start" x="8" y="-267.5" font-family="Helvetica,sans-Serif" font-size="10.00"># ~DoublyLinkable()</text>
<text text-anchor="start" x="8" y="-256.5" font-family="Helvetica,sans-Serif" font-size="10.00"># DoublyLinkable()</text>
<text text-anchor="start" x="8" y="-245.5" font-family="Helvetica,sans-Serif" font-size="10.00"># DoublyLinkable()</text>
<text text-anchor="start" x="8" y="-234.5" font-family="Helvetica,sans-Serif" font-size="10.00"># DoublyLinkable()</text>
<text text-anchor="start" x="8" y="-223.5" font-family="Helvetica,sans-Serif" font-size="10.00"># operator=()</text>
<text text-anchor="start" x="8" y="-212.5" font-family="Helvetica,sans-Serif" font-size="10.00"># operator=()</text>
</a>
</g>
</g>
<!-- Node5&#45;&gt;Node4 -->
<g id="edge4" class="edge">
<title>Node5&#45;&gt;Node4</title>
<path fill="none" stroke="midnightblue" d="M56.58,-338.7C32.45,-437.87 1.73,-622.03 59.5,-764 76.49,-805.74 109.88,-842.63 141.69,-870.71"/>
<polygon fill="none" stroke="midnightblue" points="60.03,-339.34 59.04,-328.79 53.24,-337.65 60.03,-339.34"/>
</g>
<!-- Node6&#45;&gt;Node5 -->
<g id="edge5" class="edge">
<title>Node6&#45;&gt;Node5</title>
<path fill="none" stroke="#404040" d="M138.39,-574.33C125.95,-542.28 110.01,-497.6 100.5,-457 91.63,-419.12 85.84,-376.14 82.18,-340.76"/>
<polygon fill="none" stroke="#404040" points="82.16,-340.52 77.58,-334.94 80.97,-328.58 85.54,-334.15 82.16,-340.52"/>
<text text-anchor="middle" x="126" y="-449" font-family="Helvetica,sans-Serif" font-size="10.00"> #next</text>
<text text-anchor="middle" x="126" y="-438" font-family="Helvetica,sans-Serif" font-size="10.00">#previous</text>
</g>
<!-- Node7 -->
<g id="node7" class="node">
<title>Node7</title>
<g id="a_node7"><a xlink:href="../../dd/d16/classDoublyLinkedList.html" target="_top" xlink:title=" ">
<polygon fill="white" stroke="black" points="189,-117.5 189,-416.5 350,-416.5 350,-117.5 189,-117.5"/>
<text text-anchor="start" x="197" y="-404.5" font-family="Helvetica,sans-Serif" font-size="10.00">DoublyLinkedList&lt; Updatable</text>
<text text-anchor="middle" x="269.5" y="-393.5" font-family="Helvetica,sans-Serif" font-size="10.00">&lt; NormalUpdatable &gt; &gt;</text>
<polyline fill="none" stroke="black" points="189,-386.5 350,-386.5 "/>
<text text-anchor="middle" x="269.5" y="-374.5" font-family="Helvetica,sans-Serif" font-size="10.00"> </text>
<polyline fill="none" stroke="black" points="189,-367.5 350,-367.5 "/>
<text text-anchor="start" x="197" y="-355.5" font-family="Helvetica,sans-Serif" font-size="10.00">+ append()</text>
<text text-anchor="start" x="197" y="-344.5" font-family="Helvetica,sans-Serif" font-size="10.00">+ append()</text>
<text text-anchor="start" x="197" y="-333.5" font-family="Helvetica,sans-Serif" font-size="10.00">+ insertBefore()</text>
<text text-anchor="start" x="197" y="-322.5" font-family="Helvetica,sans-Serif" font-size="10.00">+ insertBefore()</text>
<text text-anchor="start" x="197" y="-311.5" font-family="Helvetica,sans-Serif" font-size="10.00">+ insertSorted()</text>
<text text-anchor="start" x="197" y="-300.5" font-family="Helvetica,sans-Serif" font-size="10.00">+ insertSorted()</text>
<text text-anchor="start" x="197" y="-289.5" font-family="Helvetica,sans-Serif" font-size="10.00">+ remove()</text>
<text text-anchor="start" x="197" y="-278.5" font-family="Helvetica,sans-Serif" font-size="10.00">+ remove()</text>
<text text-anchor="start" x="197" y="-267.5" font-family="Helvetica,sans-Serif" font-size="10.00">+ moveDown()</text>
<text text-anchor="start" x="197" y="-256.5" font-family="Helvetica,sans-Serif" font-size="10.00">+ moveDown()</text>
<text text-anchor="start" x="197" y="-245.5" font-family="Helvetica,sans-Serif" font-size="10.00">+ couldContain()</text>
<text text-anchor="start" x="197" y="-234.5" font-family="Helvetica,sans-Serif" font-size="10.00">+ couldContain()</text>
<text text-anchor="start" x="197" y="-223.5" font-family="Helvetica,sans-Serif" font-size="10.00">+ begin()</text>
<text text-anchor="start" x="197" y="-212.5" font-family="Helvetica,sans-Serif" font-size="10.00">+ begin()</text>
<text text-anchor="start" x="197" y="-201.5" font-family="Helvetica,sans-Serif" font-size="10.00">+ end()</text>
<text text-anchor="start" x="197" y="-190.5" font-family="Helvetica,sans-Serif" font-size="10.00">+ end()</text>
<text text-anchor="start" x="197" y="-179.5" font-family="Helvetica,sans-Serif" font-size="10.00">+ rbegin()</text>
<text text-anchor="start" x="197" y="-168.5" font-family="Helvetica,sans-Serif" font-size="10.00">+ rbegin()</text>
<text text-anchor="start" x="197" y="-157.5" font-family="Helvetica,sans-Serif" font-size="10.00">+ rend()</text>
<text text-anchor="start" x="197" y="-146.5" font-family="Helvetica,sans-Serif" font-size="10.00">+ rend()</text>
<text text-anchor="start" x="197" y="-135.5" font-family="Helvetica,sans-Serif" font-size="10.00">+ getFirst()</text>
<text text-anchor="start" x="197" y="-124.5" font-family="Helvetica,sans-Serif" font-size="10.00">+ getLast()</text>
</a>
</g>
</g>
<!-- Node6&#45;&gt;Node7 -->
<g id="edge8" class="edge">
<title>Node6&#45;&gt;Node7</title>
<path fill="none" stroke="#404040" d="M170.7,-574.46C182.65,-537.38 200.52,-481.95 217.79,-428.39"/>
<polygon fill="none" stroke="#404040" points="217.9,-428.06 215.93,-421.12 221.58,-416.64 223.55,-423.58 217.9,-428.06"/>
<text text-anchor="middle" x="226.5" y="-449" font-family="Helvetica,sans-Serif" font-size="10.00"> &#45;first</text>
<text text-anchor="middle" x="226.5" y="-438" font-family="Helvetica,sans-Serif" font-size="10.00">&#45;last</text>
</g>
<!-- Node7&#45;&gt;Node4 -->
<g id="edge7" class="edge">
<title>Node7&#45;&gt;Node4</title>
<path fill="none" stroke="#404040" d="M271.64,-416.66C271.36,-515.47 267.72,-647.91 253.5,-764 252.09,-775.53 250.26,-787.45 248.18,-799.35"/>
<polygon fill="none" stroke="#404040" points="248.16,-799.43 251.03,-806.04 246.02,-811.23 243.16,-804.61 248.16,-799.43"/>
<text text-anchor="middle" x="304.5" y="-617" font-family="Helvetica,sans-Serif" font-size="10.00"> #updatables</text>
</g>
<!-- Node8 -->
<g id="node8" class="node">
<title>Node8</title>
<g id="a_node8"><a xlink:href="../../de/d0d/classAH_1_1Button.html" target="_top" xlink:title="A class for reading and debouncing buttons and switches.">
<polygon fill="white" stroke="black" points="496.5,-525 496.5,-714 634.5,-714 634.5,-525 496.5,-525"/>
<text text-anchor="middle" x="565.5" y="-702" font-family="Helvetica,sans-Serif" font-size="10.00">Button</text>
<polyline fill="none" stroke="black" points="496.5,-695 634.5,-695 "/>
<text text-anchor="start" x="504.5" y="-683" font-family="Helvetica,sans-Serif" font-size="10.00">&#45; debounceTime</text>
<polyline fill="none" stroke="black" points="496.5,-676 634.5,-676 "/>
<text text-anchor="start" x="504.5" y="-664" font-family="Helvetica,sans-Serif" font-size="10.00">+ Button()</text>
<text text-anchor="start" x="504.5" y="-653" font-family="Helvetica,sans-Serif" font-size="10.00">+ Button()</text>
<text text-anchor="start" x="504.5" y="-642" font-family="Helvetica,sans-Serif" font-size="10.00">+ Button()</text>
<text text-anchor="start" x="504.5" y="-631" font-family="Helvetica,sans-Serif" font-size="10.00">+ begin()</text>
<text text-anchor="start" x="504.5" y="-620" font-family="Helvetica,sans-Serif" font-size="10.00">+ invert()</text>
<text text-anchor="start" x="504.5" y="-609" font-family="Helvetica,sans-Serif" font-size="10.00">+ update()</text>
<text text-anchor="start" x="504.5" y="-598" font-family="Helvetica,sans-Serif" font-size="10.00">+ getState()</text>
<text text-anchor="start" x="504.5" y="-587" font-family="Helvetica,sans-Serif" font-size="10.00">+ previousBounceTime()</text>
<text text-anchor="start" x="504.5" y="-576" font-family="Helvetica,sans-Serif" font-size="10.00">+ stableTime()</text>
<text text-anchor="start" x="504.5" y="-565" font-family="Helvetica,sans-Serif" font-size="10.00">+ stableTime()</text>
<text text-anchor="start" x="504.5" y="-554" font-family="Helvetica,sans-Serif" font-size="10.00">+ getName()</text>
<text text-anchor="start" x="504.5" y="-543" font-family="Helvetica,sans-Serif" font-size="10.00">+ setDebounceTime()</text>
<text text-anchor="start" x="504.5" y="-532" font-family="Helvetica,sans-Serif" font-size="10.00">+ getDebounceTime()</text>
</a>
</g>
</g>
<!-- Node8&#45;&gt;Node2 -->
<g id="edge9" class="edge">
<title>Node8&#45;&gt;Node2</title>
<path fill="none" stroke="#404040" d="M593.1,-524.57C607.89,-474.25 626.06,-412.43 640.85,-362.08"/>
<polygon fill="none" stroke="#404040" points="640.86,-362.05 638.72,-355.17 644.24,-350.54 646.39,-357.42 640.86,-362.05"/>
<text text-anchor="middle" x="637" y="-443.5" font-family="Helvetica,sans-Serif" font-size="10.00"> &#45;button</text>
</g>
<!-- Node9 -->
<g id="node9" class="node">
<title>Node9</title>
<g id="a_node9"><a xlink:href="../../d7/de2/structAH_1_1ExtIO_1_1pin__t.html" target="_top" xlink:title="Type for storing pin numbers of Extended Input/Output elements.">
<polygon fill="white" stroke="black" points="430,-861 430,-995 523,-995 523,-861 430,-861"/>
<text text-anchor="middle" x="476.5" y="-983" font-family="Helvetica,sans-Serif" font-size="10.00">pin_t</text>
<polyline fill="none" stroke="black" points="430,-976 523,-976 "/>
<text text-anchor="start" x="438" y="-964" font-family="Helvetica,sans-Serif" font-size="10.00">+ pin</text>
<polyline fill="none" stroke="black" points="430,-957 523,-957 "/>
<text text-anchor="start" x="438" y="-945" font-family="Helvetica,sans-Serif" font-size="10.00">+ pin_t()</text>
<text text-anchor="start" x="438" y="-934" font-family="Helvetica,sans-Serif" font-size="10.00">+ pin_t()</text>
<text text-anchor="start" x="438" y="-923" font-family="Helvetica,sans-Serif" font-size="10.00">+ operator+=()</text>
<text text-anchor="start" x="438" y="-912" font-family="Helvetica,sans-Serif" font-size="10.00">+ operator++()</text>
<text text-anchor="start" x="438" y="-901" font-family="Helvetica,sans-Serif" font-size="10.00">+ operator++()</text>
<text text-anchor="start" x="438" y="-890" font-family="Helvetica,sans-Serif" font-size="10.00">+ operator&#45;=()</text>
<text text-anchor="start" x="438" y="-879" font-family="Helvetica,sans-Serif" font-size="10.00">+ operator&#45;&#45;()</text>
<text text-anchor="start" x="438" y="-868" font-family="Helvetica,sans-Serif" font-size="10.00">+ operator&#45;&#45;()</text>
</a>
</g>
</g>
<!-- Node9&#45;&gt;Node8 -->
<g id="edge10" class="edge">
<title>Node9&#45;&gt;Node8</title>
<path fill="none" stroke="#404040" d="M495.7,-860.87C507.15,-821.45 521.94,-770.52 534.96,-725.68"/>
<polygon fill="none" stroke="#404040" points="534.97,-725.65 532.8,-718.77 538.31,-714.13 540.48,-721.01 534.97,-725.65"/>
<text text-anchor="middle" x="529.5" y="-785" font-family="Helvetica,sans-Serif" font-size="10.00"> &#45;pin</text>
</g>
<!-- Node10 -->
<g id="node10" class="node">
<title>Node10</title>
<g id="a_node10"><a xlink:href="../../dc/db4/structAH_1_1Button_1_1InternalState.html" target="_top" xlink:title=" ">
<polygon fill="white" stroke="black" points="541.5,-877.5 541.5,-978.5 651.5,-978.5 651.5,-877.5 541.5,-877.5"/>
<text text-anchor="middle" x="596.5" y="-966.5" font-family="Helvetica,sans-Serif" font-size="10.00">InternalState</text>
<polyline fill="none" stroke="black" points="541.5,-959.5 651.5,-959.5 "/>
<text text-anchor="start" x="549.5" y="-947.5" font-family="Helvetica,sans-Serif" font-size="10.00">+ debounced</text>
<text text-anchor="start" x="549.5" y="-936.5" font-family="Helvetica,sans-Serif" font-size="10.00">+ bouncing</text>
<text text-anchor="start" x="549.5" y="-925.5" font-family="Helvetica,sans-Serif" font-size="10.00">+ prevInput</text>
<text text-anchor="start" x="549.5" y="-914.5" font-family="Helvetica,sans-Serif" font-size="10.00">+ invert</text>
<text text-anchor="start" x="549.5" y="-903.5" font-family="Helvetica,sans-Serif" font-size="10.00">+ prevBounceTime</text>
<polyline fill="none" stroke="black" points="541.5,-896.5 651.5,-896.5 "/>
<text text-anchor="start" x="549.5" y="-884.5" font-family="Helvetica,sans-Serif" font-size="10.00">+ InternalState()</text>
</a>
</g>
</g>
<!-- Node10&#45;&gt;Node8 -->
<g id="edge11" class="edge">
<title>Node10&#45;&gt;Node8</title>
<path fill="none" stroke="#404040" d="M591.48,-877.41C587.37,-836.71 581.39,-777.64 576.21,-726.4"/>
<polygon fill="none" stroke="#404040" points="576.19,-726.18 571.61,-720.62 574.98,-714.24 579.56,-719.81 576.19,-726.18"/>
<text text-anchor="middle" x="599.5" y="-785" font-family="Helvetica,sans-Serif" font-size="10.00"> &#45;state</text>
</g>
<!-- Node11 -->
<g id="node11" class="node">
<title>Node11</title>
<g id="a_node11"><a xlink:href="../../d7/d0f/classMIDIAddress.html" target="_top" xlink:title="A type&#45;safe utility class for saving a MIDI address consisting of a 7&#45;bit address,...">
<polygon fill="white" stroke="black" points="652.5,-475.5 652.5,-763.5 794.5,-763.5 794.5,-475.5 652.5,-475.5"/>
<text text-anchor="middle" x="723.5" y="-751.5" font-family="Helvetica,sans-Serif" font-size="10.00">MIDIAddress</text>
<polyline fill="none" stroke="black" points="652.5,-744.5 794.5,-744.5 "/>
<text text-anchor="start" x="660.5" y="-732.5" font-family="Helvetica,sans-Serif" font-size="10.00">&#45; addresses</text>
<polyline fill="none" stroke="black" points="652.5,-725.5 794.5,-725.5 "/>
<text text-anchor="start" x="660.5" y="-713.5" font-family="Helvetica,sans-Serif" font-size="10.00">* MIDIAddress()</text>
<text text-anchor="start" x="660.5" y="-702.5" font-family="Helvetica,sans-Serif" font-size="10.00">* MIDIAddress()</text>
<text text-anchor="start" x="660.5" y="-691.5" font-family="Helvetica,sans-Serif" font-size="10.00">* MIDIAddress()</text>
<text text-anchor="start" x="660.5" y="-680.5" font-family="Helvetica,sans-Serif" font-size="10.00">* MIDIAddress()</text>
<text text-anchor="start" x="660.5" y="-669.5" font-family="Helvetica,sans-Serif" font-size="10.00">* MIDIAddress()</text>
<text text-anchor="start" x="660.5" y="-658.5" font-family="Helvetica,sans-Serif" font-size="10.00">* MIDIAddress()</text>
<text text-anchor="start" x="660.5" y="-647.5" font-family="Helvetica,sans-Serif" font-size="10.00">* invalid()</text>
<text text-anchor="start" x="660.5" y="-636.5" font-family="Helvetica,sans-Serif" font-size="10.00">* operator+=()</text>
<text text-anchor="start" x="660.5" y="-625.5" font-family="Helvetica,sans-Serif" font-size="10.00">* operator&#45;=()</text>
<text text-anchor="start" x="660.5" y="-614.5" font-family="Helvetica,sans-Serif" font-size="10.00">* operator+()</text>
<text text-anchor="start" x="660.5" y="-603.5" font-family="Helvetica,sans-Serif" font-size="10.00">* operator&#45;()</text>
<text text-anchor="start" x="660.5" y="-592.5" font-family="Helvetica,sans-Serif" font-size="10.00">* getAddress()</text>
<text text-anchor="start" x="660.5" y="-581.5" font-family="Helvetica,sans-Serif" font-size="10.00">* getChannel()</text>
<text text-anchor="start" x="660.5" y="-570.5" font-family="Helvetica,sans-Serif" font-size="10.00">* getRawChannel()</text>
<text text-anchor="start" x="660.5" y="-559.5" font-family="Helvetica,sans-Serif" font-size="10.00">* getCableNumber()</text>
<text text-anchor="start" x="660.5" y="-548.5" font-family="Helvetica,sans-Serif" font-size="10.00">* getRawCableNumber()</text>
<text text-anchor="start" x="660.5" y="-537.5" font-family="Helvetica,sans-Serif" font-size="10.00">* operator==()</text>
<text text-anchor="start" x="660.5" y="-526.5" font-family="Helvetica,sans-Serif" font-size="10.00">* operator!=()</text>
<text text-anchor="start" x="660.5" y="-515.5" font-family="Helvetica,sans-Serif" font-size="10.00">* isValid()</text>
<text text-anchor="start" x="660.5" y="-504.5" font-family="Helvetica,sans-Serif" font-size="10.00">* operator bool()</text>
<text text-anchor="start" x="660.5" y="-493.5" font-family="Helvetica,sans-Serif" font-size="10.00">* matchSingle()</text>
<text text-anchor="start" x="660.5" y="-482.5" font-family="Helvetica,sans-Serif" font-size="10.00">* matchAddressInRange()</text>
</a>
</g>
</g>
<!-- Node11&#45;&gt;Node2 -->
<g id="edge12" class="edge">
<title>Node11&#45;&gt;Node2</title>
<path fill="none" stroke="#404040" d="M701.05,-475.43C695.1,-437.5 688.82,-397.49 683.38,-362.84"/>
<polygon fill="none" stroke="#404040" points="683.36,-362.67 678.47,-357.36 681.5,-350.81 686.38,-356.12 683.36,-362.67"/>
<text text-anchor="middle" x="721.5" y="-443.5" font-family="Helvetica,sans-Serif" font-size="10.00"> &#45;address</text>
</g>
<!-- Node12 -->
<g id="node12" class="node">
<title>Node12</title>
<g id="a_node12"><a xlink:href="../../dc/dd4/classDigitalNoteSender.html" target="_top" xlink:title="Class that sends MIDI note on and off messages.">
<polygon fill="white" stroke="black" points="813,-569 813,-670 938,-670 938,-569 813,-569"/>
<text text-anchor="middle" x="875.5" y="-658" font-family="Helvetica,sans-Serif" font-size="10.00">DigitalNoteSender</text>
<polyline fill="none" stroke="black" points="813,-651 938,-651 "/>
<text text-anchor="start" x="821" y="-639" font-family="Helvetica,sans-Serif" font-size="10.00">&#45; velocity</text>
<polyline fill="none" stroke="black" points="813,-632 938,-632 "/>
<text text-anchor="start" x="821" y="-620" font-family="Helvetica,sans-Serif" font-size="10.00">+ DigitalNoteSender()</text>
<text text-anchor="start" x="821" y="-609" font-family="Helvetica,sans-Serif" font-size="10.00">+ sendOn()</text>
<text text-anchor="start" x="821" y="-598" font-family="Helvetica,sans-Serif" font-size="10.00">+ sendOff()</text>
<text text-anchor="start" x="821" y="-587" font-family="Helvetica,sans-Serif" font-size="10.00">+ setVelocity()</text>
<text text-anchor="start" x="821" y="-576" font-family="Helvetica,sans-Serif" font-size="10.00">+ getVelocity()</text>
</a>
</g>
</g>
<!-- Node12&#45;&gt;Node2 -->
<g id="edge13" class="edge">
<title>Node12&#45;&gt;Node2</title>
<path fill="none" stroke="#404040" d="M852.35,-568.96C838.85,-540.97 821.06,-505.57 803.5,-475 781.62,-436.91 755.64,-396.17 732.35,-361"/>
<polygon fill="none" stroke="#404040" points="732.18,-360.75 725.53,-357.97 725.54,-350.76 732.19,-353.54 732.18,-360.75"/>
<text text-anchor="middle" x="813" y="-443.5" font-family="Helvetica,sans-Serif" font-size="10.00"> +sender</text>
</g>
</g>
</svg>
