<?xml version="1.0" encoding="UTF-8" standalone="no"?>
<!DOCTYPE svg PUBLIC "-//W3C//DTD SVG 1.1//EN"
 "http://www.w3.org/Graphics/SVG/1.1/DTD/svg11.dtd">
<!-- Generated by graphviz version 2.43.0 (0)
 -->
<!-- Title: NoteCCKPRangeFastLED&lt; Type, RangeLen, ColorMapper &gt; Pages: 1 -->
<svg width="204pt" height="1465pt"
 viewBox="0.00 0.00 204.00 1465.00" xmlns="http://www.w3.org/2000/svg" xmlns:xlink="http://www.w3.org/1999/xlink">
<g id="graph0" class="graph" transform="scale(1 1) rotate(0) translate(4 1461)">
<title>NoteCCKPRangeFastLED&lt; Type, RangeLen, ColorMapper &gt;</title>
<!-- Node1 -->
<g id="Node000001" class="node">
<title>Node1</title>
<g id="a_Node000001"><a xlink:title="Generic base class for classes that listen for MIDI Note, Control Change and Key Pressure events on a...">
<polygon fill="#999999" stroke="transparent" points="187,-360 9,-360 9,0 187,0 187,-360"/>
<text text-anchor="start" x="14" y="-348" font-family="Helvetica,sans-Serif" font-size="10.00">NoteCCKPRangeFastLED</text>
<text text-anchor="start" x="14" y="-337" font-family="Helvetica,sans-Serif" font-size="10.00">&lt; Type, RangeLen, ColorMapper &gt;</text>
<text text-anchor="start" x="20.5" y="-322" font-family="Helvetica,sans-Serif" font-size="10.00">+</text>
<text text-anchor="start" x="41" y="-322" font-family="Helvetica,sans-Serif" font-size="10.00">colormapper</text>
<text text-anchor="start" x="23" y="-307" font-family="Helvetica,sans-Serif" font-size="10.00">&#45;</text>
<text text-anchor="start" x="41" y="-307" font-family="Helvetica,sans-Serif" font-size="10.00">ledcolors</text>
<text text-anchor="start" x="23" y="-292" font-family="Helvetica,sans-Serif" font-size="10.00">&#45;</text>
<text text-anchor="start" x="41" y="-292" font-family="Helvetica,sans-Serif" font-size="10.00">dirty</text>
<text text-anchor="start" x="23" y="-277" font-family="Helvetica,sans-Serif" font-size="10.00">&#45;</text>
<text text-anchor="start" x="41" y="-277" font-family="Helvetica,sans-Serif" font-size="10.00">brightness</text>
<text text-anchor="start" x="23" y="-262" font-family="Helvetica,sans-Serif" font-size="10.00">&#45;</text>
<text text-anchor="start" x="41" y="-262" font-family="Helvetica,sans-Serif" font-size="10.00">ledIndexPermuter</text>
<text text-anchor="start" x="20.5" y="-247" font-family="Helvetica,sans-Serif" font-size="10.00">+</text>
<text text-anchor="start" x="41" y="-247" font-family="Helvetica,sans-Serif" font-size="10.00">NoteCCKPRangeFastLED()</text>
<text text-anchor="start" x="20.5" y="-232" font-family="Helvetica,sans-Serif" font-size="10.00">+</text>
<text text-anchor="start" x="41" y="-232" font-family="Helvetica,sans-Serif" font-size="10.00">NoteCCKPRangeFastLED()</text>
<text text-anchor="start" x="20.5" y="-217" font-family="Helvetica,sans-Serif" font-size="10.00">+</text>
<text text-anchor="start" x="41" y="-217" font-family="Helvetica,sans-Serif" font-size="10.00">NoteCCKPRangeFastLED()</text>
<text text-anchor="start" x="20.5" y="-202" font-family="Helvetica,sans-Serif" font-size="10.00">+</text>
<text text-anchor="start" x="41" y="-202" font-family="Helvetica,sans-Serif" font-size="10.00">NoteCCKPRangeFastLED()</text>
<text text-anchor="start" x="20.5" y="-187" font-family="Helvetica,sans-Serif" font-size="10.00">+</text>
<text text-anchor="start" x="41" y="-187" font-family="Helvetica,sans-Serif" font-size="10.00">NoteCCKPRangeFastLED()</text>
<text text-anchor="start" x="20.5" y="-172" font-family="Helvetica,sans-Serif" font-size="10.00">+</text>
<text text-anchor="start" x="41" y="-172" font-family="Helvetica,sans-Serif" font-size="10.00">NoteCCKPRangeFastLED()</text>
<text text-anchor="start" x="20.5" y="-157" font-family="Helvetica,sans-Serif" font-size="10.00">+</text>
<text text-anchor="start" x="41" y="-157" font-family="Helvetica,sans-Serif" font-size="10.00">setBrightness()</text>
<text text-anchor="start" x="20.5" y="-142" font-family="Helvetica,sans-Serif" font-size="10.00">+</text>
<text text-anchor="start" x="41" y="-142" font-family="Helvetica,sans-Serif" font-size="10.00">getBrightness()</text>
<text text-anchor="start" x="20.5" y="-127" font-family="Helvetica,sans-Serif" font-size="10.00">+</text>
<text text-anchor="start" x="41" y="-127" font-family="Helvetica,sans-Serif" font-size="10.00">setLEDIndexPermuter()</text>
<text text-anchor="start" x="20.5" y="-112" font-family="Helvetica,sans-Serif" font-size="10.00">+</text>
<text text-anchor="start" x="41" y="-112" font-family="Helvetica,sans-Serif" font-size="10.00">begin()</text>
<text text-anchor="start" x="20.5" y="-97" font-family="Helvetica,sans-Serif" font-size="10.00">+</text>
<text text-anchor="start" x="41" y="-97" font-family="Helvetica,sans-Serif" font-size="10.00">handleUpdate()</text>
<text text-anchor="start" x="20.5" y="-82" font-family="Helvetica,sans-Serif" font-size="10.00">+</text>
<text text-anchor="start" x="41" y="-82" font-family="Helvetica,sans-Serif" font-size="10.00">reset()</text>
<text text-anchor="start" x="20.5" y="-67" font-family="Helvetica,sans-Serif" font-size="10.00">+</text>
<text text-anchor="start" x="41" y="-67" font-family="Helvetica,sans-Serif" font-size="10.00">updateLED()</text>
<text text-anchor="start" x="20.5" y="-52" font-family="Helvetica,sans-Serif" font-size="10.00">+</text>
<text text-anchor="start" x="41" y="-52" font-family="Helvetica,sans-Serif" font-size="10.00">resetLEDs()</text>
<text text-anchor="start" x="20.5" y="-37" font-family="Helvetica,sans-Serif" font-size="10.00">+</text>
<text text-anchor="start" x="41" y="-37" font-family="Helvetica,sans-Serif" font-size="10.00">getDirty()</text>
<text text-anchor="start" x="20.5" y="-22" font-family="Helvetica,sans-Serif" font-size="10.00">+</text>
<text text-anchor="start" x="41" y="-22" font-family="Helvetica,sans-Serif" font-size="10.00">clearDirty()</text>
<text text-anchor="start" x="23" y="-7" font-family="Helvetica,sans-Serif" font-size="10.00">&#45;</text>
<text text-anchor="start" x="41" y="-7" font-family="Helvetica,sans-Serif" font-size="10.00">identityPermuter()</text>
<polygon fill="#666666" stroke="#666666" points="9,-332 9,-332 187,-332 187,-332 9,-332"/>
<polygon fill="#666666" stroke="#666666" points="9,-257 9,-257 39,-257 39,-257 9,-257"/>
<polygon fill="#666666" stroke="#666666" points="39,-257 39,-257 187,-257 187,-257 39,-257"/>
<polygon fill="none" stroke="#666666" points="9,0 9,-360 187,-360 187,0 9,0"/>
</a>
</g>
</g>
<!-- Node2 -->
<g id="Node000002" class="node">
<title>Node2</title>
<g id="a_Node000002"><a xlink:href="../../d5/dae/classMatchingMIDIInputElement.html" target="_top" xlink:title=" ">
<polygon fill="white" stroke="transparent" points="196,-486 0,-486 0,-396 196,-396 196,-486"/>
<text text-anchor="start" x="5" y="-474" font-family="Helvetica,sans-Serif" font-size="10.00">MatchingMIDIInputElement</text>
<text text-anchor="start" x="5" y="-463" font-family="Helvetica,sans-Serif" font-size="10.00">&lt; Type, TwoByteRangeMIDIMatcher &gt;</text>
<text text-anchor="start" x="12.5" y="-448" font-family="Helvetica,sans-Serif" font-size="10.00">#</text>
<text text-anchor="start" x="34" y="-448" font-family="Helvetica,sans-Serif" font-size="10.00">matcher</text>
<text text-anchor="start" x="12.5" y="-433" font-family="Helvetica,sans-Serif" font-size="10.00">+</text>
<text text-anchor="start" x="34" y="-433" font-family="Helvetica,sans-Serif" font-size="10.00">updateWith()</text>
<text text-anchor="start" x="12.5" y="-418" font-family="Helvetica,sans-Serif" font-size="10.00">+</text>
<text text-anchor="start" x="34" y="-418" font-family="Helvetica,sans-Serif" font-size="10.00">handleUpdate()</text>
<text text-anchor="start" x="12.5" y="-403" font-family="Helvetica,sans-Serif" font-size="10.00">#</text>
<text text-anchor="start" x="34" y="-403" font-family="Helvetica,sans-Serif" font-size="10.00">MatchingMIDIInputElement()</text>
<polygon fill="#666666" stroke="#666666" points="0,-458 0,-458 196,-458 196,-458 0,-458"/>
<polygon fill="#666666" stroke="#666666" points="0,-443 0,-443 32,-443 32,-443 0,-443"/>
<polygon fill="#666666" stroke="#666666" points="32,-443 32,-443 196,-443 196,-443 32,-443"/>
<polygon fill="none" stroke="#666666" points="0,-396 0,-486 196,-486 196,-396 0,-396"/>
</a>
</g>
</g>
<!-- Node2&#45;&gt;Node1 -->
<g id="edge1_Node000001_Node000002" class="edge">
<title>Node2&#45;&gt;Node1</title>
<g id="a_edge1_Node000001_Node000002"><a xlink:title=" ">
<path fill="none" stroke="#63b8ff" d="M98,-385.63C98,-377.64 98,-369.07 98,-360.14"/>
<polygon fill="none" stroke="#63b8ff" points="94.5,-385.77 98,-395.77 101.5,-385.77 94.5,-385.77"/>
</a>
</g>
</g>
<!-- Node3 -->
<g id="Node000003" class="node">
<title>Node3</title>
<g id="a_Node000003"><a xlink:href="../../d9/db1/classMIDIInputElement.html" target="_top" xlink:title="A class for objects that listen for incoming MIDI events.">
<polygon fill="white" stroke="transparent" points="169.5,-706 26.5,-706 26.5,-522 169.5,-522 169.5,-706"/>
<text text-anchor="start" x="32" y="-694" font-family="Helvetica,sans-Serif" font-size="10.00">MIDIInputElement&lt; Type &gt;</text>
<text text-anchor="start" x="96.5" y="-679" font-family="Helvetica,sans-Serif" font-size="10.00"> </text>
<text text-anchor="start" x="35.5" y="-664" font-family="Helvetica,sans-Serif" font-size="10.00">+</text>
<text text-anchor="start" x="53" y="-664" font-family="Helvetica,sans-Serif" font-size="10.00">~MIDIInputElement()</text>
<text text-anchor="start" x="35.5" y="-649" font-family="Helvetica,sans-Serif" font-size="10.00">+</text>
<text text-anchor="start" x="53" y="-649" font-family="Helvetica,sans-Serif" font-size="10.00">begin()</text>
<text text-anchor="start" x="35.5" y="-634" font-family="Helvetica,sans-Serif" font-size="10.00">+</text>
<text text-anchor="start" x="53" y="-634" font-family="Helvetica,sans-Serif" font-size="10.00">reset()</text>
<text text-anchor="start" x="35.5" y="-619" font-family="Helvetica,sans-Serif" font-size="10.00">+</text>
<text text-anchor="start" x="53" y="-619" font-family="Helvetica,sans-Serif" font-size="10.00">update()</text>
<text text-anchor="start" x="35.5" y="-604" font-family="Helvetica,sans-Serif" font-size="10.00">+</text>
<text text-anchor="start" x="53" y="-604" font-family="Helvetica,sans-Serif" font-size="10.00">updateWith()</text>
<text text-anchor="start" x="35.5" y="-589" font-family="Helvetica,sans-Serif" font-size="10.00">+</text>
<text text-anchor="start" x="53" y="-589" font-family="Helvetica,sans-Serif" font-size="10.00">updateAllWith()</text>
<text text-anchor="start" x="35.5" y="-574" font-family="Helvetica,sans-Serif" font-size="10.00">+</text>
<text text-anchor="start" x="53" y="-574" font-family="Helvetica,sans-Serif" font-size="10.00">updateAll()</text>
<text text-anchor="start" x="35.5" y="-559" font-family="Helvetica,sans-Serif" font-size="10.00">+</text>
<text text-anchor="start" x="53" y="-559" font-family="Helvetica,sans-Serif" font-size="10.00">beginAll()</text>
<text text-anchor="start" x="35.5" y="-544" font-family="Helvetica,sans-Serif" font-size="10.00">+</text>
<text text-anchor="start" x="53" y="-544" font-family="Helvetica,sans-Serif" font-size="10.00">resetAll()</text>
<text text-anchor="start" x="35.5" y="-529" font-family="Helvetica,sans-Serif" font-size="10.00">#</text>
<text text-anchor="start" x="53" y="-529" font-family="Helvetica,sans-Serif" font-size="10.00">MIDIInputElement()</text>
<polygon fill="#666666" stroke="#666666" points="27,-689 27,-689 170,-689 170,-689 27,-689"/>
<polygon fill="#666666" stroke="#666666" points="27,-674 27,-674 170,-674 170,-674 27,-674"/>
<polygon fill="none" stroke="#666666" points="26.5,-522 26.5,-706 169.5,-706 169.5,-522 26.5,-522"/>
</a>
</g>
</g>
<!-- Node3&#45;&gt;Node2 -->
<g id="edge2_Node000002_Node000003" class="edge">
<title>Node3&#45;&gt;Node2</title>
<g id="a_edge2_Node000002_Node000003"><a xlink:title=" ">
<path fill="none" stroke="#63b8ff" d="M98,-511.84C98,-502.92 98,-494.24 98,-486.19"/>
<polygon fill="none" stroke="#63b8ff" points="94.5,-511.99 98,-521.99 101.5,-511.99 94.5,-511.99"/>
</a>
</g>
</g>
<!-- Node4 -->
<g id="Node000004" class="node">
<title>Node4</title>
<g id="a_Node000004"><a xlink:href="../../d8/d1a/classAH_1_1UpdatableCRTP.html" target="_top" xlink:title=" ">
<polygon fill="white" stroke="transparent" points="170,-1282 26,-1282 26,-742 170,-742 170,-1282"/>
<text text-anchor="start" x="31" y="-1270" font-family="Helvetica,sans-Serif" font-size="10.00">UpdatableCRTP&lt; MIDIInput</text>
<text text-anchor="start" x="49.5" y="-1259" font-family="Helvetica,sans-Serif" font-size="10.00">Element&lt; Type &gt; &gt;</text>
<text text-anchor="start" x="38" y="-1244" font-family="Helvetica,sans-Serif" font-size="10.00">#</text>
<text text-anchor="start" x="59" y="-1244" font-family="Helvetica,sans-Serif" font-size="10.00">updatables</text>
<text text-anchor="start" x="38" y="-1229" font-family="Helvetica,sans-Serif" font-size="10.00">#</text>
<text text-anchor="start" x="59" y="-1229" font-family="Helvetica,sans-Serif" font-size="10.00">updatables</text>
<text text-anchor="start" x="38" y="-1214" font-family="Helvetica,sans-Serif" font-size="10.00">+</text>
<text text-anchor="start" x="59" y="-1214" font-family="Helvetica,sans-Serif" font-size="10.00">~UpdatableCRTP()</text>
<text text-anchor="start" x="38" y="-1199" font-family="Helvetica,sans-Serif" font-size="10.00">+</text>
<text text-anchor="start" x="59" y="-1199" font-family="Helvetica,sans-Serif" font-size="10.00">~UpdatableCRTP()</text>
<text text-anchor="start" x="38" y="-1184" font-family="Helvetica,sans-Serif" font-size="10.00">#</text>
<text text-anchor="start" x="59" y="-1184" font-family="Helvetica,sans-Serif" font-size="10.00">UpdatableCRTP()</text>
<text text-anchor="start" x="38" y="-1169" font-family="Helvetica,sans-Serif" font-size="10.00">#</text>
<text text-anchor="start" x="59" y="-1169" font-family="Helvetica,sans-Serif" font-size="10.00">UpdatableCRTP()</text>
<text text-anchor="start" x="38" y="-1154" font-family="Helvetica,sans-Serif" font-size="10.00">#</text>
<text text-anchor="start" x="59" y="-1154" font-family="Helvetica,sans-Serif" font-size="10.00">UpdatableCRTP()</text>
<text text-anchor="start" x="38" y="-1139" font-family="Helvetica,sans-Serif" font-size="10.00">#</text>
<text text-anchor="start" x="59" y="-1139" font-family="Helvetica,sans-Serif" font-size="10.00">operator=()</text>
<text text-anchor="start" x="38" y="-1124" font-family="Helvetica,sans-Serif" font-size="10.00">#</text>
<text text-anchor="start" x="59" y="-1124" font-family="Helvetica,sans-Serif" font-size="10.00">operator=()</text>
<text text-anchor="start" x="38" y="-1109" font-family="Helvetica,sans-Serif" font-size="10.00">#</text>
<text text-anchor="start" x="59" y="-1109" font-family="Helvetica,sans-Serif" font-size="10.00">UpdatableCRTP()</text>
<text text-anchor="start" x="38" y="-1094" font-family="Helvetica,sans-Serif" font-size="10.00">#</text>
<text text-anchor="start" x="59" y="-1094" font-family="Helvetica,sans-Serif" font-size="10.00">UpdatableCRTP()</text>
<text text-anchor="start" x="38" y="-1079" font-family="Helvetica,sans-Serif" font-size="10.00">#</text>
<text text-anchor="start" x="59" y="-1079" font-family="Helvetica,sans-Serif" font-size="10.00">UpdatableCRTP()</text>
<text text-anchor="start" x="38" y="-1064" font-family="Helvetica,sans-Serif" font-size="10.00">#</text>
<text text-anchor="start" x="59" y="-1064" font-family="Helvetica,sans-Serif" font-size="10.00">operator=()</text>
<text text-anchor="start" x="38" y="-1049" font-family="Helvetica,sans-Serif" font-size="10.00">#</text>
<text text-anchor="start" x="59" y="-1049" font-family="Helvetica,sans-Serif" font-size="10.00">operator=()</text>
<text text-anchor="start" x="39.5" y="-1034" font-family="Helvetica,sans-Serif" font-size="10.00">*</text>
<text text-anchor="start" x="59" y="-1034" font-family="Helvetica,sans-Serif" font-size="10.00">enable()</text>
<text text-anchor="start" x="39.5" y="-1019" font-family="Helvetica,sans-Serif" font-size="10.00">*</text>
<text text-anchor="start" x="59" y="-1019" font-family="Helvetica,sans-Serif" font-size="10.00">disable()</text>
<text text-anchor="start" x="39.5" y="-1004" font-family="Helvetica,sans-Serif" font-size="10.00">*</text>
<text text-anchor="start" x="59" y="-1004" font-family="Helvetica,sans-Serif" font-size="10.00">isEnabled()</text>
<text text-anchor="start" x="39.5" y="-989" font-family="Helvetica,sans-Serif" font-size="10.00">*</text>
<text text-anchor="start" x="59" y="-989" font-family="Helvetica,sans-Serif" font-size="10.00">moveDown()</text>
<text text-anchor="start" x="39.5" y="-974" font-family="Helvetica,sans-Serif" font-size="10.00">*</text>
<text text-anchor="start" x="59" y="-974" font-family="Helvetica,sans-Serif" font-size="10.00">enable()</text>
<text text-anchor="start" x="39.5" y="-959" font-family="Helvetica,sans-Serif" font-size="10.00">*</text>
<text text-anchor="start" x="59" y="-959" font-family="Helvetica,sans-Serif" font-size="10.00">disable()</text>
<text text-anchor="start" x="39.5" y="-944" font-family="Helvetica,sans-Serif" font-size="10.00">*</text>
<text text-anchor="start" x="59" y="-944" font-family="Helvetica,sans-Serif" font-size="10.00">isEnabled()</text>
<text text-anchor="start" x="39.5" y="-929" font-family="Helvetica,sans-Serif" font-size="10.00">*</text>
<text text-anchor="start" x="59" y="-929" font-family="Helvetica,sans-Serif" font-size="10.00">moveDown()</text>
<text text-anchor="start" x="39.5" y="-914" font-family="Helvetica,sans-Serif" font-size="10.00">*</text>
<text text-anchor="start" x="59" y="-914" font-family="Helvetica,sans-Serif" font-size="10.00">enable()</text>
<text text-anchor="start" x="39.5" y="-899" font-family="Helvetica,sans-Serif" font-size="10.00">*</text>
<text text-anchor="start" x="59" y="-899" font-family="Helvetica,sans-Serif" font-size="10.00">enable()</text>
<text text-anchor="start" x="39.5" y="-884" font-family="Helvetica,sans-Serif" font-size="10.00">*</text>
<text text-anchor="start" x="59" y="-884" font-family="Helvetica,sans-Serif" font-size="10.00">enable()</text>
<text text-anchor="start" x="39.5" y="-869" font-family="Helvetica,sans-Serif" font-size="10.00">*</text>
<text text-anchor="start" x="59" y="-869" font-family="Helvetica,sans-Serif" font-size="10.00">disable()</text>
<text text-anchor="start" x="39.5" y="-854" font-family="Helvetica,sans-Serif" font-size="10.00">*</text>
<text text-anchor="start" x="59" y="-854" font-family="Helvetica,sans-Serif" font-size="10.00">disable()</text>
<text text-anchor="start" x="39.5" y="-839" font-family="Helvetica,sans-Serif" font-size="10.00">*</text>
<text text-anchor="start" x="59" y="-839" font-family="Helvetica,sans-Serif" font-size="10.00">disable()</text>
<text text-anchor="start" x="39.5" y="-824" font-family="Helvetica,sans-Serif" font-size="10.00">*</text>
<text text-anchor="start" x="59" y="-824" font-family="Helvetica,sans-Serif" font-size="10.00">enable()</text>
<text text-anchor="start" x="39.5" y="-809" font-family="Helvetica,sans-Serif" font-size="10.00">*</text>
<text text-anchor="start" x="59" y="-809" font-family="Helvetica,sans-Serif" font-size="10.00">enable()</text>
<text text-anchor="start" x="39.5" y="-794" font-family="Helvetica,sans-Serif" font-size="10.00">*</text>
<text text-anchor="start" x="59" y="-794" font-family="Helvetica,sans-Serif" font-size="10.00">enable()</text>
<text text-anchor="start" x="39.5" y="-779" font-family="Helvetica,sans-Serif" font-size="10.00">*</text>
<text text-anchor="start" x="59" y="-779" font-family="Helvetica,sans-Serif" font-size="10.00">disable()</text>
<text text-anchor="start" x="39.5" y="-764" font-family="Helvetica,sans-Serif" font-size="10.00">*</text>
<text text-anchor="start" x="59" y="-764" font-family="Helvetica,sans-Serif" font-size="10.00">disable()</text>
<text text-anchor="start" x="39.5" y="-749" font-family="Helvetica,sans-Serif" font-size="10.00">*</text>
<text text-anchor="start" x="59" y="-749" font-family="Helvetica,sans-Serif" font-size="10.00">disable()</text>
<polygon fill="#666666" stroke="#666666" points="26,-1254 26,-1254 170,-1254 170,-1254 26,-1254"/>
<polygon fill="#666666" stroke="#666666" points="26,-1224 26,-1224 57,-1224 57,-1224 26,-1224"/>
<polygon fill="#666666" stroke="#666666" points="57,-1224 57,-1224 170,-1224 170,-1224 57,-1224"/>
<polygon fill="none" stroke="#666666" points="26,-742 26,-1282 170,-1282 170,-742 26,-742"/>
</a>
</g>
</g>
<!-- Node4&#45;&gt;Node3 -->
<g id="edge3_Node000003_Node000004" class="edge">
<title>Node4&#45;&gt;Node3</title>
<g id="a_edge3_Node000003_Node000004"><a xlink:title=" ">
<path fill="none" stroke="#63b8ff" d="M98,-731.88C98,-723.08 98,-714.53 98,-706.33"/>
<polygon fill="none" stroke="#63b8ff" points="94.5,-731.93 98,-741.93 101.5,-731.93 94.5,-731.93"/>
</a>
</g>
</g>
<!-- Node5 -->
<g id="Node000005" class="node">
<title>Node5</title>
<g id="a_Node000005"><a xlink:href="../../d4/d23/classDoublyLinkable.html" target="_top" xlink:title="A class that can be inherited from to allow inserting into a DoublyLinkedList.">
<polygon fill="white" stroke="transparent" points="165,-1457 31,-1457 31,-1318 165,-1318 165,-1457"/>
<text text-anchor="start" x="36" y="-1444.5" font-family="Helvetica,sans-Serif" font-size="10.00">DoublyLinkable&lt; Node &gt;</text>
<text text-anchor="start" x="40.5" y="-1429.5" font-family="Helvetica,sans-Serif" font-size="10.00">#</text>
<text text-anchor="start" x="59" y="-1429.5" font-family="Helvetica,sans-Serif" font-size="10.00">next</text>
<text text-anchor="start" x="40.5" y="-1414.5" font-family="Helvetica,sans-Serif" font-size="10.00">#</text>
<text text-anchor="start" x="59" y="-1414.5" font-family="Helvetica,sans-Serif" font-size="10.00">previous</text>
<text text-anchor="start" x="40.5" y="-1399.5" font-family="Helvetica,sans-Serif" font-size="10.00">#</text>
<text text-anchor="start" x="59" y="-1399.5" font-family="Helvetica,sans-Serif" font-size="10.00">~DoublyLinkable()</text>
<text text-anchor="start" x="40.5" y="-1384.5" font-family="Helvetica,sans-Serif" font-size="10.00">#</text>
<text text-anchor="start" x="59" y="-1384.5" font-family="Helvetica,sans-Serif" font-size="10.00">DoublyLinkable()</text>
<text text-anchor="start" x="40.5" y="-1369.5" font-family="Helvetica,sans-Serif" font-size="10.00">#</text>
<text text-anchor="start" x="59" y="-1369.5" font-family="Helvetica,sans-Serif" font-size="10.00">DoublyLinkable()</text>
<text text-anchor="start" x="40.5" y="-1354.5" font-family="Helvetica,sans-Serif" font-size="10.00">#</text>
<text text-anchor="start" x="59" y="-1354.5" font-family="Helvetica,sans-Serif" font-size="10.00">operator=()</text>
<text text-anchor="start" x="40.5" y="-1339.5" font-family="Helvetica,sans-Serif" font-size="10.00">#</text>
<text text-anchor="start" x="59" y="-1339.5" font-family="Helvetica,sans-Serif" font-size="10.00">DoublyLinkable()</text>
<text text-anchor="start" x="40.5" y="-1324.5" font-family="Helvetica,sans-Serif" font-size="10.00">#</text>
<text text-anchor="start" x="59" y="-1324.5" font-family="Helvetica,sans-Serif" font-size="10.00">operator=()</text>
<polygon fill="#666666" stroke="#666666" points="31,-1439.5 31,-1439.5 165,-1439.5 165,-1439.5 31,-1439.5"/>
<polygon fill="#666666" stroke="#666666" points="31,-1409.5 31,-1409.5 57,-1409.5 57,-1409.5 31,-1409.5"/>
<polygon fill="#666666" stroke="#666666" points="57,-1409.5 57,-1409.5 165,-1409.5 165,-1409.5 57,-1409.5"/>
<polygon fill="none" stroke="#666666" points="31,-1318 31,-1457 165,-1457 165,-1318 31,-1318"/>
</a>
</g>
</g>
<!-- Node5&#45;&gt;Node4 -->
<g id="edge4_Node000004_Node000005" class="edge">
<title>Node5&#45;&gt;Node4</title>
<g id="a_edge4_Node000004_Node000005"><a xlink:title=" ">
<path fill="none" stroke="#63b8ff" d="M98,-1307.91C98,-1299.76 98,-1291.19 98,-1282.32"/>
<polygon fill="none" stroke="#63b8ff" points="94.5,-1307.99 98,-1317.99 101.5,-1307.99 94.5,-1307.99"/>
</a>
</g>
</g>
</g>
</svg>
