<?xml version="1.0" encoding="UTF-8" standalone="no"?>
<!DOCTYPE svg PUBLIC "-//W3C//DTD SVG 1.1//EN"
 "http://www.w3.org/Graphics/SVG/1.1/DTD/svg11.dtd">
<!-- Generated by graphviz version 2.43.0 (0)
 -->
<!-- Title: AnyMIDI_Message.hpp Pages: 1 -->
<svg width="1238pt" height="874pt"
 viewBox="0.00 0.00 1237.70 874.00" xmlns="http://www.w3.org/2000/svg" xmlns:xlink="http://www.w3.org/1999/xlink">
<g id="graph0" class="graph" transform="scale(1 1) rotate(0) translate(4 870)">
<title>AnyMIDI_Message.hpp</title>
<!-- Node1 -->
<g id="Node000001" class="node">
<title>Node1</title>
<g id="a_Node000001"><a xlink:title=" ">
<polygon fill="#999999" stroke="#666666" points="178,-866 50,-866 50,-847 178,-847 178,-866"/>
<text text-anchor="middle" x="114" y="-854" font-family="Helvetica,sans-Serif" font-size="10.00">AnyMIDI_Message.hpp</text>
</a>
</g>
</g>
<!-- Node2 -->
<g id="Node000002" class="node">
<title>Node2</title>
<g id="a_Node000002"><a xlink:href="../../d1/d70/MIDIReadEvent_8hpp.html" target="_top" xlink:title=" ">
<polygon fill="white" stroke="#666666" points="331.5,-404 218.5,-404 218.5,-385 331.5,-385 331.5,-404"/>
<text text-anchor="middle" x="275" y="-392" font-family="Helvetica,sans-Serif" font-size="10.00">MIDIReadEvent.hpp</text>
</a>
</g>
</g>
<!-- Node1&#45;&gt;Node2 -->
<g id="edge1_Node000001_Node000002" class="edge">
<title>Node1&#45;&gt;Node2</title>
<g id="a_edge1_Node000001_Node000002"><a xlink:title=" ">
<path fill="none" stroke="#63b8ff" d="M114,-846.82C114,-828.48 114,-784.44 114,-747.5 114,-747.5 114,-747.5 114,-564 114,-487.89 200.94,-432.65 247.04,-408.7"/>
<polygon fill="#63b8ff" stroke="#63b8ff" points="248.87,-411.7 256.22,-404.07 245.71,-405.46 248.87,-411.7"/>
</a>
</g>
</g>
<!-- Node12 -->
<g id="Node000012" class="node">
<title>Node12</title>
<g id="a_Node000012"><a xlink:title=" ">
<polygon fill="#e0e0e0" stroke="#999999" points="241,-294 63,-294 63,-275 241,-275 241,-294"/>
<text text-anchor="middle" x="152" y="-282" font-family="Helvetica,sans-Serif" font-size="10.00">Settings/NamespaceSettings.hpp</text>
</a>
</g>
</g>
<!-- Node1&#45;&gt;Node12 -->
<g id="edge69_Node000001_Node000012" class="edge">
<title>Node1&#45;&gt;Node12</title>
<g id="a_edge69_Node000001_Node000012"><a xlink:title=" ">
<path fill="none" stroke="#63b8ff" d="M92.82,-846.95C59.86,-832.06 0,-798.07 0,-747.5 0,-747.5 0,-747.5 0,-503.5 0,-417.24 30.27,-394.99 87,-330 97.86,-317.56 112.92,-306.96 125.82,-299.23"/>
<polygon fill="#63b8ff" stroke="#63b8ff" points="127.8,-302.13 134.73,-294.12 124.32,-296.06 127.8,-302.13"/>
</a>
</g>
</g>
<!-- Node13 -->
<g id="Node000013" class="node">
<title>Node13</title>
<g id="a_Node000013"><a xlink:href="../../dc/d40/MIDI__MessageTypes_8hpp.html" target="_top" xlink:title=" ">
<polygon fill="white" stroke="#666666" points="362.5,-811 225.5,-811 225.5,-792 362.5,-792 362.5,-811"/>
<text text-anchor="middle" x="294" y="-799" font-family="Helvetica,sans-Serif" font-size="10.00">MIDI_MessageTypes.hpp</text>
</a>
</g>
</g>
<!-- Node1&#45;&gt;Node13 -->
<g id="edge16_Node000001_Node000013" class="edge">
<title>Node1&#45;&gt;Node13</title>
<g id="a_edge16_Node000001_Node000013"><a xlink:title=" ">
<path fill="none" stroke="#63b8ff" d="M142.92,-846.98C173.27,-838.05 221.17,-823.94 254.88,-814.02"/>
<polygon fill="#63b8ff" stroke="#63b8ff" points="256.25,-817.26 264.85,-811.08 254.27,-810.55 256.25,-817.26"/>
</a>
</g>
</g>
<!-- Node3 -->
<g id="Node000003" class="node">
<title>Node3</title>
<g id="a_Node000003"><a xlink:title=" ">
<polygon fill="#e0e0e0" stroke="#999999" points="680.5,-239 627.5,-239 627.5,-220 680.5,-220 680.5,-239"/>
<text text-anchor="middle" x="654" y="-227" font-family="Helvetica,sans-Serif" font-size="10.00">stdint.h</text>
</a>
</g>
</g>
<!-- Node2&#45;&gt;Node3 -->
<g id="edge2_Node000002_Node000003" class="edge">
<title>Node2&#45;&gt;Node3</title>
<g id="a_edge2_Node000002_Node000003"><a xlink:title=" ">
<path fill="none" stroke="#63b8ff" d="M273.67,-384.88C272.12,-371.4 271.28,-345.28 285,-330 329.7,-280.24 532.88,-247.14 617.18,-235.32"/>
<polygon fill="#63b8ff" stroke="#63b8ff" points="617.89,-238.76 627.32,-233.93 616.94,-231.82 617.89,-238.76"/>
</a>
</g>
</g>
<!-- Node4 -->
<g id="Node000004" class="node">
<title>Node4</title>
<g id="a_Node000004"><a xlink:href="../../dd/d80/PrintStream_8hpp.html" target="_top" xlink:title=" ">
<polygon fill="white" stroke="#666666" points="467.5,-349 294.5,-349 294.5,-330 467.5,-330 467.5,-349"/>
<text text-anchor="middle" x="381" y="-337" font-family="Helvetica,sans-Serif" font-size="10.00">AH/PrintStream/PrintStream.hpp</text>
</a>
</g>
</g>
<!-- Node2&#45;&gt;Node4 -->
<g id="edge3_Node000002_Node000004" class="edge">
<title>Node2&#45;&gt;Node4</title>
<g id="a_edge3_Node000002_Node000004"><a xlink:title=" ">
<path fill="none" stroke="#63b8ff" d="M292.03,-384.98C308.93,-376.54 335.06,-363.47 354.64,-353.68"/>
<polygon fill="#63b8ff" stroke="#63b8ff" points="356.28,-356.77 363.66,-349.17 353.15,-350.51 356.28,-356.77"/>
</a>
</g>
</g>
<!-- Node2&#45;&gt;Node12 -->
<g id="edge15_Node000002_Node000012" class="edge">
<title>Node2&#45;&gt;Node12</title>
<g id="a_edge15_Node000002_Node000012"><a xlink:title=" ">
<path fill="none" stroke="#63b8ff" d="M265.41,-384.81C251.83,-372.51 226.15,-349.38 204,-330 192.82,-320.22 180.16,-309.38 170.13,-300.85"/>
<polygon fill="#63b8ff" stroke="#63b8ff" points="172.31,-298.1 162.42,-294.3 167.77,-303.44 172.31,-298.1"/>
</a>
</g>
</g>
<!-- Node5 -->
<g id="Node000005" class="node">
<title>Node5</title>
<g id="a_Node000005"><a xlink:href="../../d6/ddf/Arduino-Wrapper_8h.html" target="_top" xlink:title=" ">
<polygon fill="white" stroke="#666666" points="509,-184 385,-184 385,-165 509,-165 509,-184"/>
<text text-anchor="middle" x="447" y="-172" font-family="Helvetica,sans-Serif" font-size="10.00">AH/Arduino&#45;Wrapper.h</text>
</a>
</g>
</g>
<!-- Node4&#45;&gt;Node5 -->
<g id="edge4_Node000004_Node000005" class="edge">
<title>Node4&#45;&gt;Node5</title>
<g id="a_edge4_Node000004_Node000005"><a xlink:title=" ">
<path fill="none" stroke="#63b8ff" d="M384.55,-329.74C394.93,-304.09 425.43,-228.78 439.6,-193.78"/>
<polygon fill="#63b8ff" stroke="#63b8ff" points="442.93,-194.89 443.43,-184.31 436.44,-192.26 442.93,-194.89"/>
</a>
</g>
</g>
<!-- Node10 -->
<g id="Node000010" class="node">
<title>Node10</title>
<g id="a_Node000010"><a xlink:href="../../d6/db0/AH_2Settings_2NamespaceSettings_8hpp.html" target="_top" xlink:title=" ">
<polygon fill="white" stroke="#666666" points="753.5,-74 558.5,-74 558.5,-55 753.5,-55 753.5,-74"/>
<text text-anchor="middle" x="656" y="-62" font-family="Helvetica,sans-Serif" font-size="10.00">AH/Settings/NamespaceSettings.hpp</text>
</a>
</g>
</g>
<!-- Node4&#45;&gt;Node10 -->
<g id="edge13_Node000004_Node000010" class="edge">
<title>Node4&#45;&gt;Node10</title>
<g id="a_edge13_Node000004_Node000010"><a xlink:title=" ">
<path fill="none" stroke="#63b8ff" d="M388.75,-329.75C425.35,-288.45 579.27,-114.83 585,-110 599,-98.18 616.41,-87.22 630.48,-79.14"/>
<polygon fill="#63b8ff" stroke="#63b8ff" points="632.6,-81.97 639.61,-74.02 629.18,-75.86 632.6,-81.97"/>
</a>
</g>
</g>
<!-- Node4&#45;&gt;Node12 -->
<g id="edge14_Node000004_Node000012" class="edge">
<title>Node4&#45;&gt;Node12</title>
<g id="a_edge14_Node000004_Node000012"><a xlink:title=" ">
<path fill="none" stroke="#63b8ff" d="M344.21,-329.98C304.76,-320.86 242.02,-306.33 199.02,-296.38"/>
<polygon fill="#63b8ff" stroke="#63b8ff" points="199.61,-292.93 189.08,-294.08 198.03,-299.75 199.61,-292.93"/>
</a>
</g>
</g>
<!-- Node6 -->
<g id="Node000006" class="node">
<title>Node6</title>
<g id="a_Node000006"><a xlink:href="../../d7/d79/MinMaxFix_8hpp.html" target="_top" xlink:title=" ">
<polygon fill="white" stroke="#666666" points="514,-129 378,-129 378,-110 514,-110 514,-129"/>
<text text-anchor="middle" x="446" y="-117" font-family="Helvetica,sans-Serif" font-size="10.00">AH/Math/MinMaxFix.hpp</text>
</a>
</g>
</g>
<!-- Node5&#45;&gt;Node6 -->
<g id="edge5_Node000005_Node000006" class="edge">
<title>Node5&#45;&gt;Node6</title>
<g id="a_edge5_Node000005_Node000006"><a xlink:title=" ">
<path fill="none" stroke="#63b8ff" d="M446.83,-164.75C446.7,-157.8 446.52,-147.85 446.35,-139.13"/>
<polygon fill="#63b8ff" stroke="#63b8ff" points="449.85,-139.02 446.16,-129.09 442.85,-139.15 449.85,-139.02"/>
</a>
</g>
</g>
<!-- Node9 -->
<g id="Node000009" class="node">
<title>Node9</title>
<g id="a_Node000009"><a xlink:title=" ">
<polygon fill="#e0e0e0" stroke="#999999" points="429.5,-19 366.5,-19 366.5,0 429.5,0 429.5,-19"/>
<text text-anchor="middle" x="398" y="-7" font-family="Helvetica,sans-Serif" font-size="10.00">Arduino.h</text>
</a>
</g>
</g>
<!-- Node5&#45;&gt;Node9 -->
<g id="edge12_Node000005_Node000009" class="edge">
<title>Node5&#45;&gt;Node9</title>
<g id="a_edge12_Node000005_Node000009"><a xlink:title=" ">
<path fill="none" stroke="#63b8ff" d="M419.52,-164.88C402.21,-157.98 380.94,-146.52 369,-129 350.37,-101.67 349.76,-86.11 361,-55 364.94,-44.09 372.86,-33.96 380.36,-26.14"/>
<polygon fill="#63b8ff" stroke="#63b8ff" points="382.84,-28.61 387.56,-19.13 377.95,-23.6 382.84,-28.61"/>
</a>
</g>
</g>
<!-- Node11 -->
<g id="Node000011" class="node">
<title>Node11</title>
<g id="a_Node000011"><a xlink:title=" ">
<polygon fill="#e0e0e0" stroke="#999999" points="855.5,-129 748.5,-129 748.5,-110 855.5,-110 855.5,-129"/>
<text text-anchor="middle" x="802" y="-117" font-family="Helvetica,sans-Serif" font-size="10.00">AH/STL/type_traits</text>
</a>
</g>
</g>
<!-- Node5&#45;&gt;Node11 -->
<g id="edge11_Node000005_Node000011" class="edge">
<title>Node5&#45;&gt;Node11</title>
<g id="a_edge11_Node000005_Node000011"><a xlink:title=" ">
<path fill="none" stroke="#63b8ff" d="M504.04,-164.98C568.07,-155.42 671.72,-139.95 738.34,-130"/>
<polygon fill="#63b8ff" stroke="#63b8ff" points="738.93,-133.46 748.3,-128.52 737.89,-126.53 738.93,-133.46"/>
</a>
</g>
</g>
<!-- Node7 -->
<g id="Node000007" class="node">
<title>Node7</title>
<g id="a_Node000007"><a xlink:href="../../d6/d3b/FixArduinoMacros_8hpp.html" target="_top" xlink:title=" ">
<polygon fill="white" stroke="#666666" points="540,-74 370,-74 370,-55 540,-55 540,-74"/>
<text text-anchor="middle" x="455" y="-62" font-family="Helvetica,sans-Serif" font-size="10.00">AH/Math/FixArduinoMacros.hpp</text>
</a>
</g>
</g>
<!-- Node6&#45;&gt;Node7 -->
<g id="edge6_Node000006_Node000007" class="edge">
<title>Node6&#45;&gt;Node7</title>
<g id="a_edge6_Node000006_Node000007"><a xlink:title=" ">
<path fill="none" stroke="#63b8ff" d="M447.49,-109.75C448.67,-102.8 450.36,-92.85 451.84,-84.13"/>
<polygon fill="#63b8ff" stroke="#63b8ff" points="455.32,-84.53 453.54,-74.09 448.42,-83.36 455.32,-84.53"/>
</a>
</g>
</g>
<!-- Node6&#45;&gt;Node10 -->
<g id="edge9_Node000006_Node000010" class="edge">
<title>Node6&#45;&gt;Node10</title>
<g id="a_edge9_Node000006_Node000010"><a xlink:title=" ">
<path fill="none" stroke="#63b8ff" d="M479.74,-109.98C515.68,-100.91 572.72,-86.52 612.13,-76.57"/>
<polygon fill="#63b8ff" stroke="#63b8ff" points="613.16,-79.92 622,-74.08 611.44,-73.14 613.16,-79.92"/>
</a>
</g>
</g>
<!-- Node8 -->
<g id="Node000008" class="node">
<title>Node8</title>
<g id="a_Node000008"><a xlink:href="../../d1/d65/Warnings_8hpp.html" target="_top" xlink:title=" ">
<polygon fill="white" stroke="#666666" points="658.5,-19 515.5,-19 515.5,0 658.5,0 658.5,-19"/>
<text text-anchor="middle" x="587" y="-7" font-family="Helvetica,sans-Serif" font-size="10.00">AH/Settings/Warnings.hpp</text>
</a>
</g>
</g>
<!-- Node7&#45;&gt;Node8 -->
<g id="edge7_Node000007_Node000008" class="edge">
<title>Node7&#45;&gt;Node8</title>
<g id="a_edge7_Node000007_Node000008"><a xlink:title=" ">
<path fill="none" stroke="#63b8ff" d="M476.21,-54.98C497.73,-46.34 531.28,-32.87 555.83,-23.02"/>
<polygon fill="#63b8ff" stroke="#63b8ff" points="557.43,-26.14 565.41,-19.17 554.82,-19.65 557.43,-26.14"/>
</a>
</g>
</g>
<!-- Node7&#45;&gt;Node9 -->
<g id="edge8_Node000007_Node000009" class="edge">
<title>Node7&#45;&gt;Node9</title>
<g id="a_edge8_Node000007_Node000009"><a xlink:title=" ">
<path fill="none" stroke="#63b8ff" d="M445.84,-54.98C437.5,-47.23 424.97,-35.58 414.82,-26.14"/>
<polygon fill="#63b8ff" stroke="#63b8ff" points="417.03,-23.42 407.32,-19.17 412.26,-28.54 417.03,-23.42"/>
</a>
</g>
</g>
<!-- Node10&#45;&gt;Node8 -->
<g id="edge10_Node000010_Node000008" class="edge">
<title>Node10&#45;&gt;Node8</title>
<g id="a_edge10_Node000010_Node000008"><a xlink:title=" ">
<path fill="none" stroke="#63b8ff" d="M644.91,-54.98C634.51,-47 618.74,-34.88 606.28,-25.31"/>
<polygon fill="#63b8ff" stroke="#63b8ff" points="608.35,-22.49 598.29,-19.17 604.09,-28.04 608.35,-22.49"/>
</a>
</g>
</g>
<!-- Node13&#45;&gt;Node4 -->
<g id="edge18_Node000013_Node000004" class="edge">
<title>Node13&#45;&gt;Node4</title>
<g id="a_edge18_Node000013_Node000004"><a xlink:title=" ">
<path fill="none" stroke="#63b8ff" d="M292.34,-791.71C286.51,-759.19 268.33,-642.77 288,-550 304,-474.53 349.1,-393.22 370.05,-358.2"/>
<polygon fill="#63b8ff" stroke="#63b8ff" points="373.3,-359.59 375.5,-349.23 367.32,-355.96 373.3,-359.59"/>
</a>
</g>
</g>
<!-- Node13&#45;&gt;Node5 -->
<g id="edge17_Node000013_Node000005" class="edge">
<title>Node13&#45;&gt;Node5</title>
<g id="a_edge17_Node000013_Node000005"><a xlink:title=" ">
<path fill="none" stroke="#63b8ff" d="M362.72,-796.93C481.59,-788.85 713,-763.96 713,-692.5 713,-692.5 713,-692.5 713,-338.5 713,-284.85 728.14,-257.73 690,-220 666.35,-196.6 582.15,-185.22 519.45,-179.89"/>
<polygon fill="#63b8ff" stroke="#63b8ff" points="519.45,-176.37 509.2,-179.05 518.88,-183.35 519.45,-176.37"/>
</a>
</g>
</g>
<!-- Node13&#45;&gt;Node12 -->
<g id="edge21_Node000013_Node000012" class="edge">
<title>Node13&#45;&gt;Node12</title>
<g id="a_edge21_Node000013_Node000012"><a xlink:title=" ">
<path fill="none" stroke="#63b8ff" d="M225.4,-799.8C149.57,-794.98 38,-774.02 38,-692.5 38,-692.5 38,-692.5 38,-630 38,-548.45 76,-532.05 76,-450.5 76,-450.5 76,-450.5 76,-393.5 76,-354.47 109.61,-319.58 132.13,-300.6"/>
<polygon fill="#63b8ff" stroke="#63b8ff" points="134.56,-303.14 140.12,-294.12 130.15,-297.7 134.56,-303.14"/>
</a>
</g>
</g>
<!-- Node14 -->
<g id="Node000014" class="node">
<title>Node14</title>
<g id="a_Node000014"><a xlink:title=" ">
<polygon fill="#e0e0e0" stroke="#999999" points="1044,-514 954,-514 954,-495 1044,-495 1044,-514"/>
<text text-anchor="middle" x="999" y="-502" font-family="Helvetica,sans-Serif" font-size="10.00">AH/STL/cstddef</text>
</a>
</g>
</g>
<!-- Node13&#45;&gt;Node14 -->
<g id="edge19_Node000013_Node000014" class="edge">
<title>Node13&#45;&gt;Node14</title>
<g id="a_edge19_Node000013_Node000014"><a xlink:title=" ">
<path fill="none" stroke="#63b8ff" d="M362.78,-797.11C539.93,-787.46 998,-756.34 998,-692.5 998,-692.5 998,-692.5 998,-630 998,-592.49 998.46,-548.63 998.76,-524.26"/>
<polygon fill="#63b8ff" stroke="#63b8ff" points="1002.26,-524.3 998.88,-514.25 995.26,-524.21 1002.26,-524.3"/>
</a>
</g>
</g>
<!-- Node15 -->
<g id="Node000015" class="node">
<title>Node15</title>
<g id="a_Node000015"><a xlink:title=" ">
<polygon fill="#e0e0e0" stroke="#999999" points="265.5,-756 180.5,-756 180.5,-737 265.5,-737 265.5,-756"/>
<text text-anchor="middle" x="223" y="-744" font-family="Helvetica,sans-Serif" font-size="10.00">AH/STL/vector</text>
</a>
</g>
</g>
<!-- Node13&#45;&gt;Node15 -->
<g id="edge20_Node000013_Node000015" class="edge">
<title>Node13&#45;&gt;Node15</title>
<g id="a_edge20_Node000013_Node000015"><a xlink:title=" ">
<path fill="none" stroke="#63b8ff" d="M282.59,-791.98C271.89,-784 255.66,-771.88 242.84,-762.31"/>
<polygon fill="#63b8ff" stroke="#63b8ff" points="244.72,-759.35 234.61,-756.17 240.53,-764.96 244.72,-759.35"/>
</a>
</g>
</g>
<!-- Node16 -->
<g id="Node000016" class="node">
<title>Node16</title>
<g id="a_Node000016"><a xlink:href="../../d2/dbc/Cable_8hpp.html" target="_top" xlink:title=" ">
<polygon fill="white" stroke="#666666" points="383,-574.5 297,-574.5 297,-555.5 383,-555.5 383,-574.5"/>
<text text-anchor="middle" x="340" y="-562.5" font-family="Helvetica,sans-Serif" font-size="10.00">Def/Cable.hpp</text>
</a>
</g>
</g>
<!-- Node13&#45;&gt;Node16 -->
<g id="edge22_Node000013_Node000016" class="edge">
<title>Node13&#45;&gt;Node16</title>
<g id="a_edge22_Node000013_Node000016"><a xlink:title=" ">
<path fill="none" stroke="#63b8ff" d="M297.15,-791.74C300.26,-782.83 304.97,-768.6 308,-756 322.89,-694.05 333.34,-619.11 337.71,-584.8"/>
<polygon fill="#63b8ff" stroke="#63b8ff" points="341.19,-585.15 338.96,-574.8 334.25,-584.29 341.19,-585.15"/>
</a>
</g>
</g>
<!-- Node17 -->
<g id="Node000017" class="node">
<title>Node17</title>
<g id="a_Node000017"><a xlink:href="../../d7/d42/Channel_8hpp.html" target="_top" xlink:title=" ">
<polygon fill="white" stroke="#666666" points="240,-640.5 142,-640.5 142,-621.5 240,-621.5 240,-640.5"/>
<text text-anchor="middle" x="191" y="-628.5" font-family="Helvetica,sans-Serif" font-size="10.00">Def/Channel.hpp</text>
</a>
</g>
</g>
<!-- Node13&#45;&gt;Node17 -->
<g id="edge25_Node000013_Node000017" class="edge">
<title>Node13&#45;&gt;Node17</title>
<g id="a_edge25_Node000013_Node000017"><a xlink:title=" ">
<path fill="none" stroke="#63b8ff" d="M227.82,-791.96C206.1,-785.66 184.17,-774.78 171,-756 148.44,-723.85 167.52,-675.57 180.82,-649.76"/>
<polygon fill="#63b8ff" stroke="#63b8ff" points="184.01,-651.22 185.7,-640.76 177.85,-647.89 184.01,-651.22"/>
</a>
</g>
</g>
<!-- Node18 -->
<g id="Node000018" class="node">
<title>Node18</title>
<g id="a_Node000018"><a xlink:href="../../db/dd6/MIDIAddress_8hpp.html" target="_top" xlink:title=" ">
<polygon fill="white" stroke="#666666" points="505.5,-756 386.5,-756 386.5,-737 505.5,-737 505.5,-756"/>
<text text-anchor="middle" x="446" y="-744" font-family="Helvetica,sans-Serif" font-size="10.00">Def/MIDIAddress.hpp</text>
</a>
</g>
</g>
<!-- Node13&#45;&gt;Node18 -->
<g id="edge28_Node000013_Node000018" class="edge">
<title>Node13&#45;&gt;Node18</title>
<g id="a_edge28_Node000013_Node000018"><a xlink:title=" ">
<path fill="none" stroke="#63b8ff" d="M318.42,-791.98C343.72,-783.16 383.45,-769.31 411.86,-759.41"/>
<polygon fill="#63b8ff" stroke="#63b8ff" points="413.1,-762.68 421.39,-756.08 410.79,-756.07 413.1,-762.68"/>
</a>
</g>
</g>
<!-- Node16&#45;&gt;Node5 -->
<g id="edge23_Node000016_Node000005" class="edge">
<title>Node16&#45;&gt;Node5</title>
<g id="a_edge23_Node000016_Node000005"><a xlink:title=" ">
<path fill="none" stroke="#63b8ff" d="M344.28,-555.34C350.9,-542.11 364.2,-516.17 377,-495 417.58,-427.92 452.99,-423.95 476,-349 478.48,-340.93 476.78,-338.41 476,-330 473.56,-303.76 458.3,-229.2 450.95,-194.15"/>
<polygon fill="#63b8ff" stroke="#63b8ff" points="454.35,-193.33 448.87,-184.26 447.5,-194.77 454.35,-193.33"/>
</a>
</g>
</g>
<!-- Node16&#45;&gt;Node12 -->
<g id="edge24_Node000016_Node000012" class="edge">
<title>Node16&#45;&gt;Node12</title>
<g id="a_edge24_Node000016_Node000012"><a xlink:title=" ">
<path fill="none" stroke="#63b8ff" d="M314.2,-555.4C276.94,-541.51 208.9,-510.4 176,-459 144.91,-410.43 146.71,-338.61 149.74,-304.64"/>
<polygon fill="#63b8ff" stroke="#63b8ff" points="153.26,-304.61 150.8,-294.3 146.29,-303.89 153.26,-304.61"/>
</a>
</g>
</g>
<!-- Node17&#45;&gt;Node5 -->
<g id="edge26_Node000017_Node000005" class="edge">
<title>Node17&#45;&gt;Node5</title>
<g id="a_edge26_Node000017_Node000005"><a xlink:title=" ">
<path fill="none" stroke="#63b8ff" d="M179.62,-621.43C138.51,-589.4 0,-471.77 0,-340.5 0,-340.5 0,-340.5 0,-283.5 0,-207.32 248.39,-184.7 374.85,-178.12"/>
<polygon fill="#63b8ff" stroke="#63b8ff" points="375.03,-181.62 384.85,-177.62 374.68,-174.63 375.03,-181.62"/>
</a>
</g>
</g>
<!-- Node17&#45;&gt;Node12 -->
<g id="edge27_Node000017_Node000012" class="edge">
<title>Node17&#45;&gt;Node12</title>
<g id="a_edge27_Node000017_Node000012"><a xlink:title=" ">
<path fill="none" stroke="#63b8ff" d="M188.94,-621.44C181.87,-591.65 158.44,-489.64 148,-404 145.04,-379.7 145.67,-373.47 145,-349 144.77,-340.56 144.34,-338.42 145,-330 145.66,-321.52 147.03,-312.22 148.37,-304.32"/>
<polygon fill="#63b8ff" stroke="#63b8ff" points="151.85,-304.78 150.2,-294.32 144.96,-303.53 151.85,-304.78"/>
</a>
</g>
</g>
<!-- Node19 -->
<g id="Node000019" class="node">
<title>Node19</title>
<g id="a_Node000019"><a xlink:href="../../d0/d4e/Def_8hpp.html" target="_top" xlink:title=" ">
<polygon fill="white" stroke="#666666" points="506,-701 432,-701 432,-682 506,-682 506,-701"/>
<text text-anchor="middle" x="469" y="-689" font-family="Helvetica,sans-Serif" font-size="10.00">Def/Def.hpp</text>
</a>
</g>
</g>
<!-- Node18&#45;&gt;Node19 -->
<g id="edge29_Node000018_Node000019" class="edge">
<title>Node18&#45;&gt;Node19</title>
<g id="a_edge29_Node000018_Node000019"><a xlink:title=" ">
<path fill="none" stroke="#63b8ff" d="M449.8,-736.75C452.91,-729.57 457.42,-719.18 461.29,-710.27"/>
<polygon fill="#63b8ff" stroke="#63b8ff" points="464.5,-711.66 465.27,-701.09 458.08,-708.87 464.5,-711.66"/>
</a>
</g>
</g>
<!-- Node19&#45;&gt;Node3 -->
<g id="edge68_Node000019_Node000003" class="edge">
<title>Node19&#45;&gt;Node3</title>
<g id="a_edge68_Node000019_Node000003"><a xlink:title=" ">
<path fill="none" stroke="#63b8ff" d="M506.1,-685.72C552.8,-678.99 629.43,-665.34 650,-646 677.14,-620.49 675,-603.25 675,-566 675,-566 675,-566 675,-338.5 675,-306.46 665.98,-270.03 659.77,-248.73"/>
<polygon fill="#63b8ff" stroke="#63b8ff" points="663.09,-247.62 656.83,-239.07 656.39,-249.65 663.09,-247.62"/>
</a>
</g>
</g>
<!-- Node19&#45;&gt;Node12 -->
<g id="edge66_Node000019_Node000012" class="edge">
<title>Node19&#45;&gt;Node12</title>
<g id="a_edge66_Node000019_Node000012"><a xlink:title=" ">
<path fill="none" stroke="#63b8ff" d="M464.83,-681.86C451.71,-654.88 411.07,-572.67 392,-550 325.02,-470.38 273.84,-485.37 209,-404 183.96,-372.59 166.42,-328.37 157.89,-303.79"/>
<polygon fill="#63b8ff" stroke="#63b8ff" points="161.2,-302.65 154.7,-294.28 154.56,-304.87 161.2,-302.65"/>
</a>
</g>
</g>
<!-- Node19&#45;&gt;Node16 -->
<g id="edge30_Node000019_Node000016" class="edge">
<title>Node19&#45;&gt;Node16</title>
<g id="a_edge30_Node000019_Node000016"><a xlink:title=" ">
<path fill="none" stroke="#63b8ff" d="M451.08,-681.99C435.63,-674.09 413.3,-661.27 397,-646 377.13,-627.39 359.87,-600.87 349.7,-583.55"/>
<polygon fill="#63b8ff" stroke="#63b8ff" points="352.56,-581.5 344.56,-574.55 346.48,-584.97 352.56,-581.5"/>
</a>
</g>
</g>
<!-- Node19&#45;&gt;Node17 -->
<g id="edge31_Node000019_Node000017" class="edge">
<title>Node19&#45;&gt;Node17</title>
<g id="a_edge31_Node000019_Node000017"><a xlink:title=" ">
<path fill="none" stroke="#63b8ff" d="M431.8,-682.67C382.77,-672.35 296.34,-654.17 241.46,-642.62"/>
<polygon fill="#63b8ff" stroke="#63b8ff" points="242.1,-639.18 231.59,-640.54 240.66,-646.03 242.1,-639.18"/>
</a>
</g>
</g>
<!-- Node20 -->
<g id="Node000020" class="node">
<title>Node20</title>
<g id="a_Node000020"><a xlink:href="../../de/d76/Array_8hpp.html" target="_top" xlink:title=" ">
<polygon fill="white" stroke="#666666" points="906.5,-514 771.5,-514 771.5,-495 906.5,-495 906.5,-514"/>
<text text-anchor="middle" x="839" y="-502" font-family="Helvetica,sans-Serif" font-size="10.00">AH/Containers/Array.hpp</text>
</a>
</g>
</g>
<!-- Node19&#45;&gt;Node20 -->
<g id="edge32_Node000019_Node000020" class="edge">
<title>Node19&#45;&gt;Node20</title>
<g id="a_edge32_Node000019_Node000020"><a xlink:title=" ">
<path fill="none" stroke="#63b8ff" d="M506.07,-689.14C551.51,-686.14 629.78,-676.54 689,-646 749.35,-614.87 802.87,-552.38 826.36,-522.36"/>
<polygon fill="#63b8ff" stroke="#63b8ff" points="829.35,-524.22 832.66,-514.15 823.8,-519.95 829.35,-524.22"/>
</a>
</g>
</g>
<!-- Node28 -->
<g id="Node000028" class="node">
<title>Node28</title>
<g id="a_Node000028"><a xlink:title=" ">
<polygon fill="#e0e0e0" stroke="#999999" points="1197,-239 1141,-239 1141,-220 1197,-220 1197,-239"/>
<text text-anchor="middle" x="1169" y="-227" font-family="Helvetica,sans-Serif" font-size="10.00">stddef.h</text>
</a>
</g>
</g>
<!-- Node19&#45;&gt;Node28 -->
<g id="edge67_Node000019_Node000028" class="edge">
<title>Node19&#45;&gt;Node28</title>
<g id="a_edge67_Node000019_Node000028"><a xlink:title=" ">
<path fill="none" stroke="#63b8ff" d="M506.41,-690.83C641.29,-691.17 1099.33,-684.48 1189,-580 1273.4,-481.66 1203.33,-304.67 1177.56,-248.27"/>
<polygon fill="#63b8ff" stroke="#63b8ff" points="1180.72,-246.77 1173.31,-239.19 1174.38,-249.73 1180.72,-246.77"/>
</a>
</g>
</g>
<!-- Node32 -->
<g id="Node000032" class="node">
<title>Node32</title>
<g id="a_Node000032"><a xlink:href="../../d2/d3c/Arduino-Hardware-Types_8hpp.html" target="_top" xlink:title=" ">
<polygon fill="white" stroke="#666666" points="641,-646 519,-646 519,-616 641,-616 641,-646"/>
<text text-anchor="start" x="527" y="-634" font-family="Helvetica,sans-Serif" font-size="10.00">AH/Hardware/Arduino</text>
<text text-anchor="middle" x="580" y="-623" font-family="Helvetica,sans-Serif" font-size="10.00">&#45;Hardware&#45;Types.hpp</text>
</a>
</g>
</g>
<!-- Node19&#45;&gt;Node32 -->
<g id="edge52_Node000019_Node000032" class="edge">
<title>Node19&#45;&gt;Node32</title>
<g id="a_edge52_Node000019_Node000032"><a xlink:title=" ">
<path fill="none" stroke="#63b8ff" d="M485.38,-681.87C500.79,-673.75 524.39,-661.31 544.16,-650.89"/>
<polygon fill="#63b8ff" stroke="#63b8ff" points="546,-653.87 553.22,-646.11 542.74,-647.68 546,-653.87"/>
</a>
</g>
</g>
<!-- Node33 -->
<g id="Node000033" class="node">
<title>Node33</title>
<g id="a_Node000033"><a xlink:href="../../d4/d35/Hardware-Types_8hpp.html" target="_top" xlink:title=" ">
<polygon fill="white" stroke="#666666" points="646.5,-580 515.5,-580 515.5,-550 646.5,-550 646.5,-580"/>
<text text-anchor="start" x="523.5" y="-568" font-family="Helvetica,sans-Serif" font-size="10.00">AH/Hardware/Hardware</text>
<text text-anchor="middle" x="581" y="-557" font-family="Helvetica,sans-Serif" font-size="10.00">&#45;Types.hpp</text>
</a>
</g>
</g>
<!-- Node19&#45;&gt;Node33 -->
<g id="edge64_Node000019_Node000033" class="edge">
<title>Node19&#45;&gt;Node33</title>
<g id="a_edge64_Node000019_Node000033"><a xlink:title=" ">
<path fill="none" stroke="#63b8ff" d="M472.22,-681.9C478.05,-667.16 491.49,-636.68 510,-616 520.54,-604.23 534.35,-593.71 546.99,-585.4"/>
<polygon fill="#63b8ff" stroke="#63b8ff" points="548.92,-588.32 555.49,-580.01 545.17,-582.41 548.92,-588.32"/>
</a>
</g>
</g>
<!-- Node34 -->
<g id="Node000034" class="node">
<title>Node34</title>
<g id="a_Node000034"><a xlink:title=" ">
<polygon fill="#e0e0e0" stroke="#999999" points="468,-514 386,-514 386,-495 468,-495 468,-514"/>
<text text-anchor="middle" x="427" y="-502" font-family="Helvetica,sans-Serif" font-size="10.00">AH/STL/limits</text>
</a>
</g>
</g>
<!-- Node19&#45;&gt;Node34 -->
<g id="edge65_Node000019_Node000034" class="edge">
<title>Node19&#45;&gt;Node34</title>
<g id="a_edge65_Node000019_Node000034"><a xlink:title=" ">
<path fill="none" stroke="#63b8ff" d="M466.97,-681.58C460.49,-653.01 440.14,-563.36 431.24,-524.16"/>
<polygon fill="#63b8ff" stroke="#63b8ff" points="434.63,-523.31 429.01,-514.33 427.81,-524.86 434.63,-523.31"/>
</a>
</g>
</g>
<!-- Node20&#45;&gt;Node11 -->
<g id="edge50_Node000020_Node000011" class="edge">
<title>Node20&#45;&gt;Node11</title>
<g id="a_edge50_Node000020_Node000011"><a xlink:title=" ">
<path fill="none" stroke="#63b8ff" d="M905.18,-494.96C926.9,-488.66 948.83,-477.78 962,-459 980.89,-432.08 978.51,-413.45 962,-385 945.81,-357.11 926.8,-365.34 899,-349 888.81,-343.01 813.8,-304.29 808,-294 777.59,-240.08 875.8,-279.69 904,-239 932.29,-198.17 868.02,-155.16 829.06,-133.95"/>
<polygon fill="#63b8ff" stroke="#63b8ff" points="830.25,-130.62 819.77,-129.05 826.98,-136.81 830.25,-130.62"/>
</a>
</g>
</g>
<!-- Node21 -->
<g id="Node000021" class="node">
<title>Node21</title>
<g id="a_Node000021"><a xlink:href="../../d1/d93/Error_8hpp.html" target="_top" xlink:title=" ">
<polygon fill="white" stroke="#666666" points="953,-459 849,-459 849,-440 953,-440 953,-459"/>
<text text-anchor="middle" x="901" y="-447" font-family="Helvetica,sans-Serif" font-size="10.00">AH/Error/Error.hpp</text>
</a>
</g>
</g>
<!-- Node20&#45;&gt;Node21 -->
<g id="edge33_Node000020_Node000021" class="edge">
<title>Node20&#45;&gt;Node21</title>
<g id="a_edge33_Node000020_Node000021"><a xlink:title=" ">
<path fill="none" stroke="#63b8ff" d="M848.96,-494.98C858.13,-487.15 871.94,-475.34 883.03,-465.86"/>
<polygon fill="#63b8ff" stroke="#63b8ff" points="885.53,-468.33 890.86,-459.17 880.98,-463.01 885.53,-468.33"/>
</a>
</g>
</g>
<!-- Node20&#45;&gt;Node28 -->
<g id="edge51_Node000020_Node000028" class="edge">
<title>Node20&#45;&gt;Node28</title>
<g id="a_edge51_Node000020_Node000028"><a xlink:title=" ">
<path fill="none" stroke="#63b8ff" d="M896.62,-494.97C927.5,-488.52 965.21,-477.49 995,-459 1081.29,-405.45 1140.41,-292.47 1160.98,-248.53"/>
<polygon fill="#63b8ff" stroke="#63b8ff" points="1164.2,-249.9 1165.17,-239.35 1157.83,-246.99 1164.2,-249.9"/>
</a>
</g>
</g>
<!-- Node31 -->
<g id="Node000031" class="node">
<title>Node31</title>
<g id="a_Node000031"><a xlink:title=" ">
<polygon fill="#e0e0e0" stroke="#999999" points="831,-459 741,-459 741,-440 831,-440 831,-459"/>
<text text-anchor="middle" x="786" y="-447" font-family="Helvetica,sans-Serif" font-size="10.00">AH/STL/iterator</text>
</a>
</g>
</g>
<!-- Node20&#45;&gt;Node31 -->
<g id="edge49_Node000020_Node000031" class="edge">
<title>Node20&#45;&gt;Node31</title>
<g id="a_edge49_Node000020_Node000031"><a xlink:title=" ">
<path fill="none" stroke="#63b8ff" d="M830.25,-494.75C822.53,-487.03 811.1,-475.6 801.78,-466.28"/>
<polygon fill="#63b8ff" stroke="#63b8ff" points="804.14,-463.69 794.59,-459.09 799.19,-468.64 804.14,-463.69"/>
</a>
</g>
</g>
<!-- Node22 -->
<g id="Node000022" class="node">
<title>Node22</title>
<g id="a_Node000022"><a xlink:href="../../df/dee/Debug_8hpp.html" target="_top" xlink:title=" ">
<polygon fill="white" stroke="#666666" points="952.5,-404 831.5,-404 831.5,-385 952.5,-385 952.5,-404"/>
<text text-anchor="middle" x="892" y="-392" font-family="Helvetica,sans-Serif" font-size="10.00">AH/Debug/Debug.hpp</text>
</a>
</g>
</g>
<!-- Node21&#45;&gt;Node22 -->
<g id="edge34_Node000021_Node000022" class="edge">
<title>Node21&#45;&gt;Node22</title>
<g id="a_edge34_Node000021_Node000022"><a xlink:title=" ">
<path fill="none" stroke="#63b8ff" d="M899.51,-439.75C898.33,-432.8 896.64,-422.85 895.16,-414.13"/>
<polygon fill="#63b8ff" stroke="#63b8ff" points="898.58,-413.36 893.46,-404.09 891.68,-414.53 898.58,-413.36"/>
</a>
</g>
</g>
<!-- Node22&#45;&gt;Node4 -->
<g id="edge35_Node000022_Node000004" class="edge">
<title>Node22&#45;&gt;Node4</title>
<g id="a_edge35_Node000022_Node000004"><a xlink:title=" ">
<path fill="none" stroke="#63b8ff" d="M831.37,-387.21C742.72,-378.02 577,-360.83 473.2,-350.06"/>
<polygon fill="#63b8ff" stroke="#63b8ff" points="473.34,-346.56 463.04,-349.01 472.62,-353.52 473.34,-346.56"/>
</a>
</g>
</g>
<!-- Node23 -->
<g id="Node000023" class="node">
<title>Node23</title>
<g id="a_Node000023"><a xlink:href="../../de/dd1/AH_2Settings_2SettingsWrapper_8hpp.html" target="_top" xlink:title=" ">
<polygon fill="white" stroke="#666666" points="1086,-349 908,-349 908,-330 1086,-330 1086,-349"/>
<text text-anchor="middle" x="997" y="-337" font-family="Helvetica,sans-Serif" font-size="10.00">AH/Settings/SettingsWrapper.hpp</text>
</a>
</g>
</g>
<!-- Node22&#45;&gt;Node23 -->
<g id="edge36_Node000022_Node000023" class="edge">
<title>Node22&#45;&gt;Node23</title>
<g id="a_edge36_Node000022_Node000023"><a xlink:title=" ">
<path fill="none" stroke="#63b8ff" d="M903.76,-384.98C918.77,-376.46 944.72,-363.23 965.53,-353.41"/>
<polygon fill="#63b8ff" stroke="#63b8ff" points="967.08,-356.55 974.67,-349.17 964.13,-350.2 967.08,-356.55"/>
</a>
</g>
</g>
<!-- Node30 -->
<g id="Node000030" class="node">
<title>Node30</title>
<g id="a_Node000030"><a xlink:href="../../d7/d52/DebugVal_8hpp.html" target="_top" xlink:title=" ">
<polygon fill="white" stroke="#666666" points="852,-349 768,-349 768,-330 852,-330 852,-349"/>
<text text-anchor="middle" x="810" y="-337" font-family="Helvetica,sans-Serif" font-size="10.00">DebugVal.hpp</text>
</a>
</g>
</g>
<!-- Node22&#45;&gt;Node30 -->
<g id="edge48_Node000022_Node000030" class="edge">
<title>Node22&#45;&gt;Node30</title>
<g id="a_edge48_Node000022_Node000030"><a xlink:title=" ">
<path fill="none" stroke="#63b8ff" d="M878.83,-384.98C866.23,-376.84 847,-364.41 832.06,-354.76"/>
<polygon fill="#63b8ff" stroke="#63b8ff" points="833.71,-351.66 823.41,-349.17 829.91,-357.54 833.71,-351.66"/>
</a>
</g>
</g>
<!-- Node23&#45;&gt;Node10 -->
<g id="edge37_Node000023_Node000010" class="edge">
<title>Node23&#45;&gt;Node10</title>
<g id="a_edge37_Node000023_Node000010"><a xlink:title=" ">
<path fill="none" stroke="#63b8ff" d="M1032.88,-329.98C1053.43,-323.37 1078.2,-312.18 1094,-294 1113.33,-271.77 1113,-259.96 1113,-230.5 1113,-230.5 1113,-230.5 1113,-173.5 1113,-102.07 898.86,-77.82 763.75,-69.64"/>
<polygon fill="#63b8ff" stroke="#63b8ff" points="763.95,-66.14 753.76,-69.05 763.54,-73.13 763.95,-66.14"/>
</a>
</g>
</g>
<!-- Node23&#45;&gt;Node22 -->
<g id="edge47_Node000023_Node000022" class="edge">
<title>Node23&#45;&gt;Node22</title>
<g id="a_edge47_Node000023_Node000022"><a xlink:title=" ">
<path fill="none" stroke="#63b8ff" d="M984.97,-349.17C969.83,-357.75 943.85,-370.99 923.09,-380.77"/>
<polygon fill="#63b8ff" stroke="#63b8ff" points="921.59,-377.61 913.98,-384.98 924.53,-383.96 921.59,-377.61"/>
</a>
</g>
</g>
<!-- Node24 -->
<g id="Node000024" class="node">
<title>Node24</title>
<g id="a_Node000024"><a xlink:href="../../d5/d4f/AH_2Settings_2Settings_8hpp.html" target="_top" xlink:title="All user settings and debugging options can be changed here.">
<polygon fill="white" stroke="#666666" points="1084.5,-294 1007.5,-294 1007.5,-275 1084.5,-275 1084.5,-294"/>
<text text-anchor="middle" x="1046" y="-282" font-family="Helvetica,sans-Serif" font-size="10.00">Settings.hpp</text>
</a>
</g>
</g>
<!-- Node23&#45;&gt;Node24 -->
<g id="edge38_Node000023_Node000024" class="edge">
<title>Node23&#45;&gt;Node24</title>
<g id="a_edge38_Node000023_Node000024"><a xlink:title=" ">
<path fill="none" stroke="#63b8ff" d="M1005.09,-329.75C1012.16,-322.11 1022.59,-310.82 1031.15,-301.56"/>
<polygon fill="#63b8ff" stroke="#63b8ff" points="1033.84,-303.81 1038.06,-294.09 1028.7,-299.06 1033.84,-303.81"/>
</a>
</g>
</g>
<!-- Node29 -->
<g id="Node000029" class="node">
<title>Node29</title>
<g id="a_Node000029"><a xlink:href="../../d9/d98/TeensyUSBTypes_8hpp.html" target="_top" xlink:title=" ">
<polygon fill="white" stroke="#666666" points="989.5,-294 816.5,-294 816.5,-275 989.5,-275 989.5,-294"/>
<text text-anchor="middle" x="903" y="-282" font-family="Helvetica,sans-Serif" font-size="10.00">AH/Teensy/TeensyUSBTypes.hpp</text>
</a>
</g>
</g>
<!-- Node23&#45;&gt;Node29 -->
<g id="edge46_Node000023_Node000029" class="edge">
<title>Node23&#45;&gt;Node29</title>
<g id="a_edge46_Node000023_Node000029"><a xlink:title=" ">
<path fill="none" stroke="#63b8ff" d="M981.9,-329.98C967.18,-321.69 944.58,-308.94 927.33,-299.22"/>
<polygon fill="#63b8ff" stroke="#63b8ff" points="928.81,-296.03 918.38,-294.17 925.37,-302.13 928.81,-296.03"/>
</a>
</g>
</g>
<!-- Node24&#45;&gt;Node3 -->
<g id="edge45_Node000024_Node000003" class="edge">
<title>Node24&#45;&gt;Node3</title>
<g id="a_edge45_Node000024_Node000003"><a xlink:title=" ">
<path fill="none" stroke="#63b8ff" d="M1007.3,-276.34C1004.49,-275.87 1001.7,-275.42 999,-275 887.29,-257.71 754.51,-241.91 691.18,-234.67"/>
<polygon fill="#63b8ff" stroke="#63b8ff" points="691.24,-231.15 680.91,-233.5 690.45,-238.11 691.24,-231.15"/>
</a>
</g>
</g>
<!-- Node25 -->
<g id="Node000025" class="node">
<title>Node25</title>
<g id="a_Node000025"><a xlink:href="../../dc/d50/Frequency_8hpp.html" target="_top" xlink:title=" ">
<polygon fill="white" stroke="#666666" points="1085,-184 951,-184 951,-165 1085,-165 1085,-184"/>
<text text-anchor="middle" x="1018" y="-172" font-family="Helvetica,sans-Serif" font-size="10.00">AH/Types/Frequency.hpp</text>
</a>
</g>
</g>
<!-- Node24&#45;&gt;Node25 -->
<g id="edge39_Node000024_Node000025" class="edge">
<title>Node24&#45;&gt;Node25</title>
<g id="a_edge39_Node000024_Node000025"><a xlink:title=" ">
<path fill="none" stroke="#63b8ff" d="M1043.71,-274.66C1039.15,-257.09 1028.88,-217.45 1022.78,-193.95"/>
<polygon fill="#63b8ff" stroke="#63b8ff" points="1026.14,-192.96 1020.24,-184.16 1019.37,-194.72 1026.14,-192.96"/>
</a>
</g>
</g>
<!-- Node26 -->
<g id="Node000026" class="node">
<title>Node26</title>
<g id="a_Node000026"><a xlink:href="../../d7/d7c/ADCConfig_8hpp.html" target="_top" xlink:title="This file contains the platform&#45;specific ADC resolutions.">
<polygon fill="white" stroke="#666666" points="894.5,-239 737.5,-239 737.5,-220 894.5,-220 894.5,-239"/>
<text text-anchor="middle" x="816" y="-227" font-family="Helvetica,sans-Serif" font-size="10.00">AH/Hardware/ADCConfig.hpp</text>
</a>
</g>
</g>
<!-- Node24&#45;&gt;Node26 -->
<g id="edge41_Node000024_Node000026" class="edge">
<title>Node24&#45;&gt;Node26</title>
<g id="a_edge41_Node000024_Node000026"><a xlink:title=" ">
<path fill="none" stroke="#63b8ff" d="M1009.05,-274.98C969.43,-265.86 906.41,-251.33 863.23,-241.38"/>
<polygon fill="#63b8ff" stroke="#63b8ff" points="863.77,-237.92 853.24,-239.08 862.2,-244.74 863.77,-237.92"/>
</a>
</g>
</g>
<!-- Node27 -->
<g id="Node000027" class="node">
<title>Node27</title>
<g id="a_Node000027"><a xlink:title=" ">
<polygon fill="#e0e0e0" stroke="#999999" points="1017.5,-239 964.5,-239 964.5,-220 1017.5,-220 1017.5,-239"/>
<text text-anchor="middle" x="991" y="-227" font-family="Helvetica,sans-Serif" font-size="10.00">limits.h</text>
</a>
</g>
</g>
<!-- Node24&#45;&gt;Node27 -->
<g id="edge43_Node000024_Node000027" class="edge">
<title>Node24&#45;&gt;Node27</title>
<g id="a_edge43_Node000024_Node000027"><a xlink:title=" ">
<path fill="none" stroke="#63b8ff" d="M1036.92,-274.75C1028.91,-267.03 1017.04,-255.6 1007.38,-246.28"/>
<polygon fill="#63b8ff" stroke="#63b8ff" points="1009.54,-243.51 999.91,-239.09 1004.69,-248.55 1009.54,-243.51"/>
</a>
</g>
</g>
<!-- Node24&#45;&gt;Node28 -->
<g id="edge44_Node000024_Node000028" class="edge">
<title>Node24&#45;&gt;Node28</title>
<g id="a_edge44_Node000024_Node000028"><a xlink:title=" ">
<path fill="none" stroke="#63b8ff" d="M1065.76,-274.98C1085.73,-266.38 1116.8,-252.99 1139.65,-243.15"/>
<polygon fill="#63b8ff" stroke="#63b8ff" points="1141.08,-246.34 1148.88,-239.17 1138.31,-239.91 1141.08,-246.34"/>
</a>
</g>
</g>
<!-- Node25&#45;&gt;Node10 -->
<g id="edge40_Node000025_Node000010" class="edge">
<title>Node25&#45;&gt;Node10</title>
<g id="a_edge40_Node000025_Node000010"><a xlink:title=" ">
<path fill="none" stroke="#63b8ff" d="M1000.49,-164.99C972.46,-151.65 915.53,-125.72 865,-110 816.89,-95.04 761.01,-83.42 719.14,-75.82"/>
<polygon fill="#63b8ff" stroke="#63b8ff" points="719.54,-72.34 709.08,-74.02 718.31,-79.23 719.54,-72.34"/>
</a>
</g>
</g>
<!-- Node26&#45;&gt;Node5 -->
<g id="edge42_Node000026_Node000005" class="edge">
<title>Node26&#45;&gt;Node5</title>
<g id="a_edge42_Node000026_Node000005"><a xlink:title=" ">
<path fill="none" stroke="#63b8ff" d="M756.71,-219.98C691.18,-210.57 585.74,-195.43 516.4,-185.47"/>
<polygon fill="#63b8ff" stroke="#63b8ff" points="516.84,-182 506.44,-184.04 515.85,-188.92 516.84,-182"/>
</a>
</g>
</g>
<!-- Node32&#45;&gt;Node5 -->
<g id="edge63_Node000032_Node000005" class="edge">
<title>Node32&#45;&gt;Node5</title>
<g id="a_edge63_Node000032_Node000005"><a xlink:title=" ">
<path fill="none" stroke="#63b8ff" d="M545.77,-615.95C530.7,-607.84 514.51,-596.02 506,-580 499.75,-568.22 504.18,-563.21 506,-550 512.28,-504.49 534,-496.44 534,-450.5 534,-450.5 534,-450.5 534,-393.5 534,-313.45 482.77,-227.89 458.93,-192.41"/>
<polygon fill="#63b8ff" stroke="#63b8ff" points="461.8,-190.4 453.26,-184.14 456.03,-194.36 461.8,-190.4"/>
</a>
</g>
</g>
<!-- Node32&#45;&gt;Node33 -->
<g id="edge53_Node000032_Node000033" class="edge">
<title>Node32&#45;&gt;Node33</title>
<g id="a_edge53_Node000032_Node000033"><a xlink:title=" ">
<path fill="none" stroke="#63b8ff" d="M580.22,-615.8C580.34,-608.34 580.48,-598.99 580.62,-590.41"/>
<polygon fill="#63b8ff" stroke="#63b8ff" points="584.12,-590.22 580.78,-580.16 577.12,-590.11 584.12,-590.22"/>
</a>
</g>
</g>
<!-- Node35 -->
<g id="Node000035" class="node">
<title>Node35</title>
<g id="a_Node000035"><a xlink:href="../../d0/db1/FunctionTraits_8hpp.html" target="_top" xlink:title=" ">
<polygon fill="white" stroke="#666666" points="1179.5,-574.5 1026.5,-574.5 1026.5,-555.5 1179.5,-555.5 1179.5,-574.5"/>
<text text-anchor="middle" x="1103" y="-562.5" font-family="Helvetica,sans-Serif" font-size="10.00">AH/Types/FunctionTraits.hpp</text>
</a>
</g>
</g>
<!-- Node32&#45;&gt;Node35 -->
<g id="edge59_Node000032_Node000035" class="edge">
<title>Node32&#45;&gt;Node35</title>
<g id="a_edge59_Node000032_Node000035"><a xlink:title=" ">
<path fill="none" stroke="#63b8ff" d="M641.02,-622.53C735.68,-610.95 917.93,-588.65 1023.01,-575.79"/>
<polygon fill="#63b8ff" stroke="#63b8ff" points="1023.75,-579.22 1033.25,-574.54 1022.9,-572.28 1023.75,-579.22"/>
</a>
</g>
</g>
<!-- Node33&#45;&gt;Node3 -->
<g id="edge58_Node000033_Node000003" class="edge">
<title>Node33&#45;&gt;Node3</title>
<g id="a_edge58_Node000033_Node000003"><a xlink:title=" ">
<path fill="none" stroke="#63b8ff" d="M579.96,-549.68C578.5,-528.16 576,-486.2 576,-450.5 576,-450.5 576,-450.5 576,-393.5 576,-335.19 617.12,-275.62 639.65,-247.36"/>
<polygon fill="#63b8ff" stroke="#63b8ff" points="642.6,-249.28 646.24,-239.33 637.19,-244.84 642.6,-249.28"/>
</a>
</g>
</g>
<!-- Node33&#45;&gt;Node4 -->
<g id="edge55_Node000033_Node000004" class="edge">
<title>Node33&#45;&gt;Node4</title>
<g id="a_edge55_Node000033_Node000004"><a xlink:title=" ">
<path fill="none" stroke="#63b8ff" d="M568.18,-549.68C532.7,-510.02 433.28,-398.92 395.67,-356.89"/>
<polygon fill="#63b8ff" stroke="#63b8ff" points="398.09,-354.35 388.81,-349.23 392.87,-359.02 398.09,-354.35"/>
</a>
</g>
</g>
<!-- Node33&#45;&gt;Node10 -->
<g id="edge57_Node000033_Node000010" class="edge">
<title>Node33&#45;&gt;Node10</title>
<g id="a_edge57_Node000033_Node000010"><a xlink:title=" ">
<path fill="none" stroke="#63b8ff" d="M588,-549.7C597.69,-528.54 614,-487.44 614,-450.5 614,-450.5 614,-450.5 614,-393.5 614,-320.75 599,-303.25 599,-230.5 599,-230.5 599,-230.5 599,-173.5 599,-137.51 624.06,-101.76 640.95,-81.76"/>
<polygon fill="#63b8ff" stroke="#63b8ff" points="643.62,-84.02 647.59,-74.2 638.36,-79.4 643.62,-84.02"/>
</a>
</g>
</g>
<!-- Node33&#45;&gt;Node20 -->
<g id="edge54_Node000033_Node000020" class="edge">
<title>Node33&#45;&gt;Node20</title>
<g id="a_edge54_Node000033_Node000020"><a xlink:title=" ">
<path fill="none" stroke="#63b8ff" d="M642.8,-549.99C688.38,-539.65 749.5,-525.79 791.34,-516.31"/>
<polygon fill="#63b8ff" stroke="#63b8ff" points="792.3,-519.68 801.28,-514.05 790.75,-512.85 792.3,-519.68"/>
</a>
</g>
</g>
<!-- Node33&#45;&gt;Node34 -->
<g id="edge56_Node000033_Node000034" class="edge">
<title>Node33&#45;&gt;Node34</title>
<g id="a_edge56_Node000033_Node000034"><a xlink:title=" ">
<path fill="none" stroke="#63b8ff" d="M544.11,-549.99C518.3,-540.18 484.15,-527.21 459.4,-517.81"/>
<polygon fill="#63b8ff" stroke="#63b8ff" points="460.33,-514.42 449.74,-514.14 457.85,-520.96 460.33,-514.42"/>
</a>
</g>
</g>
<!-- Node35&#45;&gt;Node10 -->
<g id="edge62_Node000035_Node000010" class="edge">
<title>Node35&#45;&gt;Node10</title>
<g id="a_edge62_Node000035_Node000010"><a xlink:title=" ">
<path fill="none" stroke="#63b8ff" d="M1113.28,-555.28C1123.83,-545.93 1140.17,-530.21 1151,-514 1197.76,-444 1227,-424.68 1227,-340.5 1227,-340.5 1227,-340.5 1227,-173.5 1227,-97.82 1142.43,-128.34 1069,-110 967.31,-84.6 847.96,-73.7 763.79,-69.02"/>
<polygon fill="#63b8ff" stroke="#63b8ff" points="763.87,-65.52 753.7,-68.48 763.5,-72.51 763.87,-65.52"/>
</a>
</g>
</g>
<!-- Node35&#45;&gt;Node14 -->
<g id="edge60_Node000035_Node000014" class="edge">
<title>Node35&#45;&gt;Node14</title>
<g id="a_edge60_Node000035_Node000014"><a xlink:title=" ">
<path fill="none" stroke="#63b8ff" d="M1087.65,-555.37C1070.68,-545.82 1043.1,-530.31 1023.21,-519.12"/>
<polygon fill="#63b8ff" stroke="#63b8ff" points="1024.84,-516.02 1014.41,-514.17 1021.41,-522.12 1024.84,-516.02"/>
</a>
</g>
</g>
<!-- Node36 -->
<g id="Node000036" class="node">
<title>Node36</title>
<g id="a_Node000036"><a xlink:title=" ">
<polygon fill="#e0e0e0" stroke="#999999" points="1141.5,-514 1062.5,-514 1062.5,-495 1141.5,-495 1141.5,-514"/>
<text text-anchor="middle" x="1102" y="-502" font-family="Helvetica,sans-Serif" font-size="10.00">AH/STL/tuple</text>
</a>
</g>
</g>
<!-- Node35&#45;&gt;Node36 -->
<g id="edge61_Node000035_Node000036" class="edge">
<title>Node35&#45;&gt;Node36</title>
<g id="a_edge61_Node000035_Node000036"><a xlink:title=" ">
<path fill="none" stroke="#63b8ff" d="M1102.85,-555.37C1102.71,-547.25 1102.5,-534.81 1102.32,-524.39"/>
<polygon fill="#63b8ff" stroke="#63b8ff" points="1105.82,-524.11 1102.15,-514.17 1098.82,-524.23 1105.82,-524.11"/>
</a>
</g>
</g>
</g>
</svg>
