<?xml version="1.0" encoding="UTF-8" standalone="no"?>
<!DOCTYPE svg PUBLIC "-//W3C//DTD SVG 1.1//EN"
 "http://www.w3.org/Graphics/SVG/1.1/DTD/svg11.dtd">
<!-- Generated by graphviz version 2.43.0 (0)
 -->
<!-- Title: Vector.cpp Pages: 1 -->
<svg width="667pt" height="302pt"
 viewBox="0.00 0.00 666.50 302.00" xmlns="http://www.w3.org/2000/svg" xmlns:xlink="http://www.w3.org/1999/xlink">
<g id="graph0" class="graph" transform="scale(1 1) rotate(0) translate(4 298)">
<title>Vector.cpp</title>
<!-- Node1 -->
<g id="Node000001" class="node">
<title>Node1</title>
<g id="a_Node000001"><a xlink:title=" ">
<polygon fill="#999999" stroke="#666666" points="355,-294 288,-294 288,-275 355,-275 355,-294"/>
<text text-anchor="middle" x="321.5" y="-282" font-family="Helvetica,sans-Serif" font-size="10.00">Vector.cpp</text>
</a>
</g>
</g>
<!-- Node2 -->
<g id="Node000002" class="node">
<title>Node2</title>
<g id="a_Node000002"><a xlink:href="../../de/dd9/Vector_8hpp.html" target="_top" xlink:title="Definition of Vec2f and Vec3f.">
<polygon fill="white" stroke="#666666" points="286.5,-239 218.5,-239 218.5,-220 286.5,-220 286.5,-239"/>
<text text-anchor="middle" x="252.5" y="-227" font-family="Helvetica,sans-Serif" font-size="10.00">Vector.hpp</text>
</a>
</g>
</g>
<!-- Node1&#45;&gt;Node2 -->
<g id="edge1_Node000001_Node000002" class="edge">
<title>Node1&#45;&gt;Node2</title>
<g id="a_edge1_Node000001_Node000002"><a xlink:title=" ">
<path fill="none" stroke="#63b8ff" d="M310.41,-274.98C300.01,-267 284.24,-254.88 271.78,-245.31"/>
<polygon fill="#63b8ff" stroke="#63b8ff" points="273.85,-242.49 263.79,-239.17 269.59,-248.04 273.85,-242.49"/>
</a>
</g>
</g>
<!-- Node11 -->
<g id="Node000011" class="node">
<title>Node11</title>
<g id="a_Node000011"><a xlink:href="../../dd/d80/PrintStream_8hpp.html" target="_top" xlink:title=" ">
<polygon fill="white" stroke="#666666" points="487,-239 314,-239 314,-220 487,-220 487,-239"/>
<text text-anchor="middle" x="400.5" y="-227" font-family="Helvetica,sans-Serif" font-size="10.00">AH/PrintStream/PrintStream.hpp</text>
</a>
</g>
</g>
<!-- Node1&#45;&gt;Node11 -->
<g id="edge12_Node000001_Node000011" class="edge">
<title>Node1&#45;&gt;Node11</title>
<g id="a_edge12_Node000001_Node000011"><a xlink:title=" ">
<path fill="none" stroke="#63b8ff" d="M334.19,-274.98C346.33,-266.84 364.86,-254.41 379.25,-244.76"/>
<polygon fill="#63b8ff" stroke="#63b8ff" points="381.22,-247.65 387.58,-239.17 377.32,-241.84 381.22,-247.65"/>
</a>
</g>
</g>
<!-- Node3 -->
<g id="Node000003" class="node">
<title>Node3</title>
<g id="a_Node000003"><a xlink:href="../../d6/ddf/Arduino-Wrapper_8h.html" target="_top" xlink:title=" ">
<polygon fill="white" stroke="#666666" points="314.5,-184 190.5,-184 190.5,-165 314.5,-165 314.5,-184"/>
<text text-anchor="middle" x="252.5" y="-172" font-family="Helvetica,sans-Serif" font-size="10.00">AH/Arduino&#45;Wrapper.h</text>
</a>
</g>
</g>
<!-- Node2&#45;&gt;Node3 -->
<g id="edge2_Node000002_Node000003" class="edge">
<title>Node2&#45;&gt;Node3</title>
<g id="a_edge2_Node000002_Node000003"><a xlink:title=" ">
<path fill="none" stroke="#63b8ff" d="M252.5,-219.75C252.5,-212.8 252.5,-202.85 252.5,-194.13"/>
<polygon fill="#63b8ff" stroke="#63b8ff" points="256,-194.09 252.5,-184.09 249,-194.09 256,-194.09"/>
</a>
</g>
</g>
<!-- Node10 -->
<g id="Node000010" class="node">
<title>Node10</title>
<g id="a_Node000010"><a xlink:title=" ">
<polygon fill="#e0e0e0" stroke="#999999" points="172,-184 87,-184 87,-165 172,-165 172,-184"/>
<text text-anchor="middle" x="129.5" y="-172" font-family="Helvetica,sans-Serif" font-size="10.00">AH/STL/cmath</text>
</a>
</g>
</g>
<!-- Node2&#45;&gt;Node10 -->
<g id="edge11_Node000002_Node000010" class="edge">
<title>Node2&#45;&gt;Node10</title>
<g id="a_edge11_Node000002_Node000010"><a xlink:title=" ">
<path fill="none" stroke="#63b8ff" d="M232.74,-219.98C212.77,-211.38 181.7,-197.99 158.85,-188.15"/>
<polygon fill="#63b8ff" stroke="#63b8ff" points="160.19,-184.91 149.62,-184.17 157.42,-191.34 160.19,-184.91"/>
</a>
</g>
</g>
<!-- Node4 -->
<g id="Node000004" class="node">
<title>Node4</title>
<g id="a_Node000004"><a xlink:href="../../d7/d79/MinMaxFix_8hpp.html" target="_top" xlink:title=" ">
<polygon fill="white" stroke="#666666" points="320.5,-129 184.5,-129 184.5,-110 320.5,-110 320.5,-129"/>
<text text-anchor="middle" x="252.5" y="-117" font-family="Helvetica,sans-Serif" font-size="10.00">AH/Math/MinMaxFix.hpp</text>
</a>
</g>
</g>
<!-- Node3&#45;&gt;Node4 -->
<g id="edge3_Node000003_Node000004" class="edge">
<title>Node3&#45;&gt;Node4</title>
<g id="a_edge3_Node000003_Node000004"><a xlink:title=" ">
<path fill="none" stroke="#63b8ff" d="M252.5,-164.75C252.5,-157.8 252.5,-147.85 252.5,-139.13"/>
<polygon fill="#63b8ff" stroke="#63b8ff" points="256,-139.09 252.5,-129.09 249,-139.09 256,-139.09"/>
</a>
</g>
</g>
<!-- Node7 -->
<g id="Node000007" class="node">
<title>Node7</title>
<g id="a_Node000007"><a xlink:title=" ">
<polygon fill="#e0e0e0" stroke="#999999" points="224,-19 161,-19 161,0 224,0 224,-19"/>
<text text-anchor="middle" x="192.5" y="-7" font-family="Helvetica,sans-Serif" font-size="10.00">Arduino.h</text>
</a>
</g>
</g>
<!-- Node3&#45;&gt;Node7 -->
<g id="edge10_Node000003_Node000007" class="edge">
<title>Node3&#45;&gt;Node7</title>
<g id="a_edge10_Node000003_Node000007"><a xlink:title=" ">
<path fill="none" stroke="#63b8ff" d="M229.11,-164.97C212.17,-157.72 189.82,-145.8 175.5,-129 158.53,-109.08 159.25,-99.73 154.5,-74 152.97,-65.7 151.58,-62.92 154.5,-55 158.56,-43.99 166.69,-33.86 174.4,-26.05"/>
<polygon fill="#63b8ff" stroke="#63b8ff" points="176.92,-28.48 181.79,-19.07 172.11,-23.39 176.92,-28.48"/>
</a>
</g>
</g>
<!-- Node9 -->
<g id="Node000009" class="node">
<title>Node9</title>
<g id="a_Node000009"><a xlink:title=" ">
<polygon fill="#e0e0e0" stroke="#999999" points="107,-129 0,-129 0,-110 107,-110 107,-129"/>
<text text-anchor="middle" x="53.5" y="-117" font-family="Helvetica,sans-Serif" font-size="10.00">AH/STL/type_traits</text>
</a>
</g>
</g>
<!-- Node3&#45;&gt;Node9 -->
<g id="edge9_Node000003_Node000009" class="edge">
<title>Node3&#45;&gt;Node9</title>
<g id="a_edge9_Node000003_Node000009"><a xlink:title=" ">
<path fill="none" stroke="#63b8ff" d="M220.53,-164.98C186.68,-155.97 133.1,-141.7 95.79,-131.76"/>
<polygon fill="#63b8ff" stroke="#63b8ff" points="96.29,-128.27 85.72,-129.08 94.49,-135.04 96.29,-128.27"/>
</a>
</g>
</g>
<!-- Node5 -->
<g id="Node000005" class="node">
<title>Node5</title>
<g id="a_Node000005"><a xlink:href="../../d6/d3b/FixArduinoMacros_8hpp.html" target="_top" xlink:title=" ">
<polygon fill="white" stroke="#666666" points="333.5,-74 163.5,-74 163.5,-55 333.5,-55 333.5,-74"/>
<text text-anchor="middle" x="248.5" y="-62" font-family="Helvetica,sans-Serif" font-size="10.00">AH/Math/FixArduinoMacros.hpp</text>
</a>
</g>
</g>
<!-- Node4&#45;&gt;Node5 -->
<g id="edge4_Node000004_Node000005" class="edge">
<title>Node4&#45;&gt;Node5</title>
<g id="a_edge4_Node000004_Node000005"><a xlink:title=" ">
<path fill="none" stroke="#63b8ff" d="M251.84,-109.75C251.32,-102.8 250.56,-92.85 249.91,-84.13"/>
<polygon fill="#63b8ff" stroke="#63b8ff" points="253.39,-83.8 249.15,-74.09 246.41,-84.32 253.39,-83.8"/>
</a>
</g>
</g>
<!-- Node8 -->
<g id="Node000008" class="node">
<title>Node8</title>
<g id="a_Node000008"><a xlink:href="../../d6/db0/AH_2Settings_2NamespaceSettings_8hpp.html" target="_top" xlink:title=" ">
<polygon fill="white" stroke="#666666" points="547,-74 352,-74 352,-55 547,-55 547,-74"/>
<text text-anchor="middle" x="449.5" y="-62" font-family="Helvetica,sans-Serif" font-size="10.00">AH/Settings/NamespaceSettings.hpp</text>
</a>
</g>
</g>
<!-- Node4&#45;&gt;Node8 -->
<g id="edge7_Node000004_Node000008" class="edge">
<title>Node4&#45;&gt;Node8</title>
<g id="a_edge7_Node000004_Node000008"><a xlink:title=" ">
<path fill="none" stroke="#63b8ff" d="M284.15,-109.98C317.66,-100.97 370.7,-86.7 407.64,-76.76"/>
<polygon fill="#63b8ff" stroke="#63b8ff" points="408.85,-80.06 417.6,-74.08 407.03,-73.3 408.85,-80.06"/>
</a>
</g>
</g>
<!-- Node6 -->
<g id="Node000006" class="node">
<title>Node6</title>
<g id="a_Node000006"><a xlink:href="../../d1/d65/Warnings_8hpp.html" target="_top" xlink:title=" ">
<polygon fill="white" stroke="#666666" points="521,-19 378,-19 378,0 521,0 521,-19"/>
<text text-anchor="middle" x="449.5" y="-7" font-family="Helvetica,sans-Serif" font-size="10.00">AH/Settings/Warnings.hpp</text>
</a>
</g>
</g>
<!-- Node5&#45;&gt;Node6 -->
<g id="edge5_Node000005_Node000006" class="edge">
<title>Node5&#45;&gt;Node6</title>
<g id="a_edge5_Node000005_Node000006"><a xlink:title=" ">
<path fill="none" stroke="#63b8ff" d="M280.79,-54.98C315.12,-45.93 369.56,-31.58 407.27,-21.64"/>
<polygon fill="#63b8ff" stroke="#63b8ff" points="408.18,-25.02 416.95,-19.08 406.39,-18.25 408.18,-25.02"/>
</a>
</g>
</g>
<!-- Node5&#45;&gt;Node7 -->
<g id="edge6_Node000005_Node000007" class="edge">
<title>Node5&#45;&gt;Node7</title>
<g id="a_edge6_Node000005_Node000007"><a xlink:title=" ">
<path fill="none" stroke="#63b8ff" d="M239.5,-54.98C231.31,-47.23 218.99,-35.58 209.03,-26.14"/>
<polygon fill="#63b8ff" stroke="#63b8ff" points="211.33,-23.5 201.66,-19.17 206.52,-28.59 211.33,-23.5"/>
</a>
</g>
</g>
<!-- Node8&#45;&gt;Node6 -->
<g id="edge8_Node000008_Node000006" class="edge">
<title>Node8&#45;&gt;Node6</title>
<g id="a_edge8_Node000008_Node000006"><a xlink:title=" ">
<path fill="none" stroke="#63b8ff" d="M449.5,-54.75C449.5,-47.8 449.5,-37.85 449.5,-29.13"/>
<polygon fill="#63b8ff" stroke="#63b8ff" points="453,-29.09 449.5,-19.09 446,-29.09 453,-29.09"/>
</a>
</g>
</g>
<!-- Node11&#45;&gt;Node3 -->
<g id="edge13_Node000011_Node000003" class="edge">
<title>Node11&#45;&gt;Node3</title>
<g id="a_edge13_Node000011_Node000003"><a xlink:title=" ">
<path fill="none" stroke="#63b8ff" d="M376.72,-219.98C352.27,-211.23 313.97,-197.51 286.35,-187.62"/>
<polygon fill="#63b8ff" stroke="#63b8ff" points="287.31,-184.25 276.71,-184.17 284.95,-190.84 287.31,-184.25"/>
</a>
</g>
</g>
<!-- Node11&#45;&gt;Node8 -->
<g id="edge14_Node000011_Node000008" class="edge">
<title>Node11&#45;&gt;Node8</title>
<g id="a_edge14_Node000011_Node000008"><a xlink:title=" ">
<path fill="none" stroke="#63b8ff" d="M403.13,-219.74C410.81,-194.2 433.29,-119.43 443.87,-84.23"/>
<polygon fill="#63b8ff" stroke="#63b8ff" points="447.33,-84.89 446.85,-74.31 440.62,-82.88 447.33,-84.89"/>
</a>
</g>
</g>
<!-- Node12 -->
<g id="Node000012" class="node">
<title>Node12</title>
<g id="a_Node000012"><a xlink:href="../../d0/da7/Settings_2NamespaceSettings_8hpp.html" target="_top" xlink:title=" ">
<polygon fill="white" stroke="#666666" points="658.5,-129 480.5,-129 480.5,-110 658.5,-110 658.5,-129"/>
<text text-anchor="middle" x="569.5" y="-117" font-family="Helvetica,sans-Serif" font-size="10.00">Settings/NamespaceSettings.hpp</text>
</a>
</g>
</g>
<!-- Node11&#45;&gt;Node12 -->
<g id="edge15_Node000011_Node000012" class="edge">
<title>Node11&#45;&gt;Node12</title>
<g id="a_edge15_Node000011_Node000012"><a xlink:title=" ">
<path fill="none" stroke="#63b8ff" d="M414.04,-219.84C443.09,-201.28 511.62,-157.49 547.2,-134.75"/>
<polygon fill="#63b8ff" stroke="#63b8ff" points="549.35,-137.53 555.89,-129.2 545.58,-131.63 549.35,-137.53"/>
</a>
</g>
</g>
<!-- Node12&#45;&gt;Node6 -->
<g id="edge16_Node000012_Node000006" class="edge">
<title>Node12&#45;&gt;Node6</title>
<g id="a_edge16_Node000012_Node000006"><a xlink:title=" ">
<path fill="none" stroke="#63b8ff" d="M570.13,-109.61C570.6,-96.23 569.53,-70.8 556.5,-55 543.36,-39.06 523.56,-28.75 504.54,-22.12"/>
<polygon fill="#63b8ff" stroke="#63b8ff" points="505.6,-18.78 495.01,-19.06 503.46,-25.45 505.6,-18.78"/>
</a>
</g>
</g>
</g>
</svg>
