<?xml version="1.0" encoding="UTF-8" standalone="no"?>
<!DOCTYPE svg PUBLIC "-//W3C//DTD SVG 1.1//EN"
 "http://www.w3.org/Graphics/SVG/1.1/DTD/svg11.dtd">
<!-- Generated by graphviz version 2.43.0 (0)
 -->
<!-- Title: MAX7219_Base.hpp Pages: 1 -->
<svg width="1266pt" height="722pt"
 viewBox="0.00 0.00 1265.77 722.00" xmlns="http://www.w3.org/2000/svg" xmlns:xlink="http://www.w3.org/1999/xlink">
<g id="graph0" class="graph" transform="scale(1 1) rotate(0) translate(4 718)">
<title>MAX7219_Base.hpp</title>
<polygon fill="white" stroke="transparent" points="-4,4 -4,-718 1261.77,-718 1261.77,4 -4,4"/>
<!-- Node1 -->
<g id="node1" class="node">
<title>Node1</title>
<g id="a_node1"><a xlink:title=" ">
<polygon fill="#bfbfbf" stroke="black" points="1131.77,-694.5 1131.77,-713.5 1244.77,-713.5 1244.77,-694.5 1131.77,-694.5"/>
<text text-anchor="middle" x="1188.27" y="-701.5" font-family="Helvetica,sans-Serif" font-size="10.00">MAX7219_Base.hpp</text>
</a>
</g>
</g>
<!-- Node2 -->
<g id="node2" class="node">
<title>Node2</title>
<g id="a_node2"><a xlink:href="../../d1/d65/Warnings_8hpp.html" target="_top" xlink:title=" ">
<polygon fill="white" stroke="black" points="907.77,-0.5 907.77,-19.5 1050.77,-19.5 1050.77,-0.5 907.77,-0.5"/>
<text text-anchor="middle" x="979.27" y="-7.5" font-family="Helvetica,sans-Serif" font-size="10.00">AH/Settings/Warnings.hpp</text>
</a>
</g>
</g>
<!-- Node1&#45;&gt;Node2 -->
<g id="edge1" class="edge">
<title>Node1&#45;&gt;Node2</title>
<path fill="none" stroke="midnightblue" d="M1188.27,-694.41C1188.27,-673.98 1188.27,-620.86 1188.27,-576.5 1188.27,-576.5 1188.27,-576.5 1188.27,-121 1188.27,-60.82 1119.58,-33.49 1060.96,-21.12"/>
<polygon fill="midnightblue" stroke="midnightblue" points="1061.4,-17.64 1050.91,-19.12 1060.03,-24.51 1061.4,-17.64"/>
</g>
<!-- Node3 -->
<g id="node3" class="node">
<title>Node3</title>
<g id="a_node3"><a xlink:href="../../dd/ddf/ExtendedInputOutput_8hpp.html" target="_top" xlink:title=" ">
<polygon fill="white" stroke="black" points="306.77,-627.5 306.77,-657.5 483.77,-657.5 483.77,-627.5 306.77,-627.5"/>
<text text-anchor="start" x="314.77" y="-645.5" font-family="Helvetica,sans-Serif" font-size="10.00">AH/Hardware/ExtendedInput</text>
<text text-anchor="middle" x="395.27" y="-634.5" font-family="Helvetica,sans-Serif" font-size="10.00">Output/ExtendedInputOutput.hpp</text>
</a>
</g>
</g>
<!-- Node1&#45;&gt;Node3 -->
<g id="edge2" class="edge">
<title>Node1&#45;&gt;Node3</title>
<path fill="none" stroke="midnightblue" d="M1131.56,-698.74C997.9,-688.72 661.8,-663.5 493.91,-650.9"/>
<polygon fill="midnightblue" stroke="midnightblue" points="494.07,-647.4 483.83,-650.14 493.54,-654.38 494.07,-647.4"/>
</g>
<!-- Node26 -->
<g id="node26" class="node">
<title>Node26</title>
<g id="a_node26"><a xlink:title=" ">
<polygon fill="white" stroke="#bfbfbf" points="1216.77,-633 1216.77,-652 1257.77,-652 1257.77,-633 1216.77,-633"/>
<text text-anchor="middle" x="1237.27" y="-640" font-family="Helvetica,sans-Serif" font-size="10.00">SPI.h</text>
</a>
</g>
</g>
<!-- Node1&#45;&gt;Node26 -->
<g id="edge48" class="edge">
<title>Node1&#45;&gt;Node26</title>
<path fill="none" stroke="midnightblue" d="M1195.29,-694.48C1202.72,-685.46 1214.6,-671.02 1223.84,-659.81"/>
<polygon fill="midnightblue" stroke="midnightblue" points="1226.61,-661.95 1230.26,-652.01 1221.21,-657.5 1226.61,-661.95"/>
</g>
<!-- Node3&#45;&gt;Node2 -->
<g id="edge4" class="edge">
<title>Node3&#45;&gt;Node2</title>
<path fill="none" stroke="midnightblue" d="M484.1,-635.79C683.68,-621.78 1150.27,-581.87 1150.27,-515 1150.27,-515 1150.27,-515 1150.27,-121 1150.27,-64.74 1084,-35.9 1033.97,-22.14"/>
<polygon fill="midnightblue" stroke="midnightblue" points="1034.76,-18.73 1024.2,-19.58 1032.99,-25.5 1034.76,-18.73"/>
</g>
<!-- Node4 -->
<g id="node4" class="node">
<title>Node4</title>
<g id="a_node4"><a xlink:href="../../d6/db0/AH_2Settings_2NamespaceSettings_8hpp.html" target="_top" xlink:title=" ">
<polygon fill="white" stroke="black" points="296.77,-56.5 296.77,-75.5 491.77,-75.5 491.77,-56.5 296.77,-56.5"/>
<text text-anchor="middle" x="394.27" y="-63.5" font-family="Helvetica,sans-Serif" font-size="10.00">AH/Settings/NamespaceSettings.hpp</text>
</a>
</g>
</g>
<!-- Node3&#45;&gt;Node4 -->
<g id="edge3" class="edge">
<title>Node3&#45;&gt;Node4</title>
<path fill="none" stroke="midnightblue" d="M318.63,-627.44C258.99,-611.55 186.27,-579.04 186.27,-515 186.27,-515 186.27,-515 186.27,-177 186.27,-117.53 253.53,-90.13 311.56,-77.55"/>
<polygon fill="midnightblue" stroke="midnightblue" points="312.43,-80.94 321.52,-75.51 311.02,-74.09 312.43,-80.94"/>
</g>
<!-- Node5 -->
<g id="node5" class="node">
<title>Node5</title>
<g id="a_node5"><a xlink:href="../../d6/ddf/Arduino-Wrapper_8h.html" target="_top" xlink:title=" ">
<polygon fill="white" stroke="black" points="252.27,-168.5 252.27,-187.5 376.27,-187.5 376.27,-168.5 252.27,-168.5"/>
<text text-anchor="middle" x="314.27" y="-175.5" font-family="Helvetica,sans-Serif" font-size="10.00">AH/Arduino&#45;Wrapper.h</text>
</a>
</g>
</g>
<!-- Node3&#45;&gt;Node5 -->
<g id="edge5" class="edge">
<title>Node3&#45;&gt;Node5</title>
<path fill="none" stroke="midnightblue" d="M306.72,-630.57C253.38,-622.29 192.06,-609.21 172.27,-591 146.2,-567.02 148.27,-550.42 148.27,-515 148.27,-515 148.27,-515 148.27,-289 148.27,-233.37 213.86,-204.21 262.58,-190.23"/>
<polygon fill="midnightblue" stroke="midnightblue" points="263.66,-193.56 272.38,-187.55 261.81,-186.81 263.66,-193.56"/>
</g>
<!-- Node10 -->
<g id="node10" class="node">
<title>Node10</title>
<g id="a_node10"><a xlink:href="../../d4/d35/Hardware-Types_8hpp.html" target="_top" xlink:title=" ">
<polygon fill="white" stroke="black" points="329.77,-560.5 329.77,-590.5 460.77,-590.5 460.77,-560.5 329.77,-560.5"/>
<text text-anchor="start" x="337.77" y="-578.5" font-family="Helvetica,sans-Serif" font-size="10.00">AH/Hardware/Hardware</text>
<text text-anchor="middle" x="395.27" y="-567.5" font-family="Helvetica,sans-Serif" font-size="10.00">&#45;Types.hpp</text>
</a>
</g>
</g>
<!-- Node3&#45;&gt;Node10 -->
<g id="edge14" class="edge">
<title>Node3&#45;&gt;Node10</title>
<path fill="none" stroke="midnightblue" d="M395.27,-627.4C395.27,-619.64 395.27,-609.81 395.27,-600.86"/>
<polygon fill="midnightblue" stroke="midnightblue" points="398.77,-600.58 395.27,-590.58 391.77,-600.58 398.77,-600.58"/>
</g>
<!-- Node6 -->
<g id="node6" class="node">
<title>Node6</title>
<g id="a_node6"><a xlink:href="../../d7/d79/MinMaxFix_8hpp.html" target="_top" xlink:title=" ">
<polygon fill="white" stroke="black" points="22.27,-112.5 22.27,-131.5 158.27,-131.5 158.27,-112.5 22.27,-112.5"/>
<text text-anchor="middle" x="90.27" y="-119.5" font-family="Helvetica,sans-Serif" font-size="10.00">AH/Math/MinMaxFix.hpp</text>
</a>
</g>
</g>
<!-- Node5&#45;&gt;Node6 -->
<g id="edge6" class="edge">
<title>Node5&#45;&gt;Node6</title>
<path fill="none" stroke="midnightblue" d="M278.78,-168.44C239.95,-159.08 177.62,-144.06 135.35,-133.87"/>
<polygon fill="midnightblue" stroke="midnightblue" points="136.14,-130.46 125.6,-131.52 134.5,-137.26 136.14,-130.46"/>
</g>
<!-- Node8 -->
<g id="node8" class="node">
<title>Node8</title>
<g id="a_node8"><a xlink:title=" ">
<polygon fill="white" stroke="#bfbfbf" points="19.77,-0.5 19.77,-19.5 82.77,-19.5 82.77,-0.5 19.77,-0.5"/>
<text text-anchor="middle" x="51.27" y="-7.5" font-family="Helvetica,sans-Serif" font-size="10.00">Arduino.h</text>
</a>
</g>
</g>
<!-- Node5&#45;&gt;Node8 -->
<g id="edge13" class="edge">
<title>Node5&#45;&gt;Node8</title>
<path fill="none" stroke="midnightblue" d="M252,-176.86C173.03,-175.19 43.45,-167.03 13.27,-132 -8.78,-106.41 1.67,-87.72 13.27,-56 17.33,-44.91 25.46,-34.67 33.16,-26.76"/>
<polygon fill="midnightblue" stroke="midnightblue" points="35.75,-29.14 40.56,-19.7 30.91,-24.07 35.75,-29.14"/>
</g>
<!-- Node9 -->
<g id="node9" class="node">
<title>Node9</title>
<g id="a_node9"><a xlink:title=" ">
<polygon fill="white" stroke="#bfbfbf" points="283.77,-112.5 283.77,-131.5 390.77,-131.5 390.77,-112.5 283.77,-112.5"/>
<text text-anchor="middle" x="337.27" y="-119.5" font-family="Helvetica,sans-Serif" font-size="10.00">AH/STL/type_traits</text>
</a>
</g>
</g>
<!-- Node5&#45;&gt;Node9 -->
<g id="edge12" class="edge">
<title>Node5&#45;&gt;Node9</title>
<path fill="none" stroke="midnightblue" d="M318.07,-168.08C321.18,-160.77 325.69,-150.18 329.56,-141.1"/>
<polygon fill="midnightblue" stroke="midnightblue" points="332.85,-142.32 333.54,-131.75 326.41,-139.58 332.85,-142.32"/>
</g>
<!-- Node6&#45;&gt;Node2 -->
<g id="edge7" class="edge">
<title>Node6&#45;&gt;Node2</title>
<path fill="none" stroke="midnightblue" d="M110.52,-112.41C145.72,-97.91 220.81,-68.91 287.27,-56 401.98,-33.72 740.6,-19.36 897.61,-13.71"/>
<polygon fill="midnightblue" stroke="midnightblue" points="897.82,-17.21 907.69,-13.35 897.57,-10.21 897.82,-17.21"/>
</g>
<!-- Node6&#45;&gt;Node4 -->
<g id="edge11" class="edge">
<title>Node6&#45;&gt;Node4</title>
<path fill="none" stroke="midnightblue" d="M138.44,-112.44C192.14,-102.9 278.96,-87.48 336.33,-77.29"/>
<polygon fill="midnightblue" stroke="midnightblue" points="337.09,-80.71 346.33,-75.52 335.87,-73.82 337.09,-80.71"/>
</g>
<!-- Node7 -->
<g id="node7" class="node">
<title>Node7</title>
<g id="a_node7"><a xlink:href="../../d6/d3b/FixArduinoMacros_8hpp.html" target="_top" xlink:title=" ">
<polygon fill="white" stroke="black" points="22.27,-56.5 22.27,-75.5 192.27,-75.5 192.27,-56.5 22.27,-56.5"/>
<text text-anchor="middle" x="107.27" y="-63.5" font-family="Helvetica,sans-Serif" font-size="10.00">AH/Math/FixArduinoMacros.hpp</text>
</a>
</g>
</g>
<!-- Node6&#45;&gt;Node7 -->
<g id="edge8" class="edge">
<title>Node6&#45;&gt;Node7</title>
<path fill="none" stroke="midnightblue" d="M93.08,-112.08C95.36,-104.85 98.64,-94.41 101.48,-85.4"/>
<polygon fill="midnightblue" stroke="midnightblue" points="104.85,-86.34 104.52,-75.75 98.18,-84.24 104.85,-86.34"/>
</g>
<!-- Node7&#45;&gt;Node2 -->
<g id="edge9" class="edge">
<title>Node7&#45;&gt;Node2</title>
<path fill="none" stroke="midnightblue" d="M192.31,-58.69C205.36,-57.76 218.67,-56.84 231.27,-56 473.47,-39.93 759.96,-23.38 897.52,-15.59"/>
<polygon fill="midnightblue" stroke="midnightblue" points="897.78,-19.08 907.57,-15.02 897.39,-12.09 897.78,-19.08"/>
</g>
<!-- Node7&#45;&gt;Node8 -->
<g id="edge10" class="edge">
<title>Node7&#45;&gt;Node8</title>
<path fill="none" stroke="midnightblue" d="M98.27,-56.32C90.08,-48.42 77.77,-36.55 67.8,-26.94"/>
<polygon fill="midnightblue" stroke="midnightblue" points="70.06,-24.26 60.43,-19.83 65.2,-29.29 70.06,-24.26"/>
</g>
<!-- Node10&#45;&gt;Node2 -->
<g id="edge15" class="edge">
<title>Node10&#45;&gt;Node2</title>
<path fill="none" stroke="midnightblue" d="M460.8,-570.8C637.8,-559.92 1112.27,-524.64 1112.27,-459 1112.27,-459 1112.27,-459 1112.27,-121 1112.27,-70.73 1055.14,-39.1 1015.77,-23.27"/>
<polygon fill="midnightblue" stroke="midnightblue" points="1016.78,-19.91 1006.19,-19.59 1014.26,-26.45 1016.78,-19.91"/>
</g>
<!-- Node10&#45;&gt;Node4 -->
<g id="edge46" class="edge">
<title>Node10&#45;&gt;Node4</title>
<path fill="none" stroke="midnightblue" d="M335.46,-560.38C286.15,-544.76 224.27,-514.17 224.27,-459 224.27,-459 224.27,-459 224.27,-177 224.27,-120.81 290.55,-91.9 340.34,-78.12"/>
<polygon fill="midnightblue" stroke="midnightblue" points="341.27,-81.49 350.05,-75.56 339.49,-74.72 341.27,-81.49"/>
</g>
<!-- Node11 -->
<g id="node11" class="node">
<title>Node11</title>
<g id="a_node11"><a xlink:href="../../de/d76/Array_8hpp.html" target="_top" xlink:title=" ">
<polygon fill="white" stroke="black" points="566.77,-504.5 566.77,-523.5 701.77,-523.5 701.77,-504.5 566.77,-504.5"/>
<text text-anchor="middle" x="634.27" y="-511.5" font-family="Helvetica,sans-Serif" font-size="10.00">AH/Containers/Array.hpp</text>
</a>
</g>
</g>
<!-- Node10&#45;&gt;Node11 -->
<g id="edge16" class="edge">
<title>Node10&#45;&gt;Node11</title>
<path fill="none" stroke="midnightblue" d="M451.61,-560.47C493.92,-549.94 551.06,-535.72 590.1,-526"/>
<polygon fill="midnightblue" stroke="midnightblue" points="591.25,-529.32 600.1,-523.51 589.55,-522.53 591.25,-529.32"/>
</g>
<!-- Node22 -->
<g id="node22" class="node">
<title>Node22</title>
<g id="a_node22"><a xlink:title=" ">
<polygon fill="white" stroke="#bfbfbf" points="290.77,-224.5 290.77,-243.5 343.77,-243.5 343.77,-224.5 290.77,-224.5"/>
<text text-anchor="middle" x="317.27" y="-231.5" font-family="Helvetica,sans-Serif" font-size="10.00">stdint.h</text>
</a>
</g>
</g>
<!-- Node10&#45;&gt;Node22 -->
<g id="edge47" class="edge">
<title>Node10&#45;&gt;Node22</title>
<path fill="none" stroke="midnightblue" d="M372.27,-560.45C344.16,-541.3 300.27,-504.18 300.27,-459 300.27,-459 300.27,-459 300.27,-345 300.27,-312.58 307.57,-275.42 312.6,-253.64"/>
<polygon fill="midnightblue" stroke="midnightblue" points="316.04,-254.31 314.98,-243.77 309.24,-252.67 316.04,-254.31"/>
</g>
<!-- Node11&#45;&gt;Node2 -->
<g id="edge17" class="edge">
<title>Node11&#45;&gt;Node2</title>
<path fill="none" stroke="midnightblue" d="M702.06,-510.04C825.48,-502.8 1074.27,-478.79 1074.27,-403 1074.27,-403 1074.27,-403 1074.27,-121 1074.27,-77.74 1031.66,-43.09 1003.52,-24.91"/>
<polygon fill="midnightblue" stroke="midnightblue" points="1005.3,-21.9 994.96,-19.6 1001.61,-27.85 1005.3,-21.9"/>
</g>
<!-- Node11&#45;&gt;Node9 -->
<g id="edge44" class="edge">
<title>Node11&#45;&gt;Node9</title>
<path fill="none" stroke="midnightblue" d="M611.54,-504.34C545.27,-477.67 352.53,-389.7 281.27,-244 251.16,-182.43 366.63,-214.18 385.27,-188 397.79,-170.42 377.93,-150.5 360.09,-137.4"/>
<polygon fill="midnightblue" stroke="midnightblue" points="361.86,-134.36 351.64,-131.55 357.87,-140.12 361.86,-134.36"/>
</g>
<!-- Node12 -->
<g id="node12" class="node">
<title>Node12</title>
<g id="a_node12"><a xlink:href="../../d1/d93/Error_8hpp.html" target="_top" xlink:title=" ">
<polygon fill="white" stroke="black" points="657.27,-448.5 657.27,-467.5 761.27,-467.5 761.27,-448.5 657.27,-448.5"/>
<text text-anchor="middle" x="709.27" y="-455.5" font-family="Helvetica,sans-Serif" font-size="10.00">AH/Error/Error.hpp</text>
</a>
</g>
</g>
<!-- Node11&#45;&gt;Node12 -->
<g id="edge18" class="edge">
<title>Node11&#45;&gt;Node12</title>
<path fill="none" stroke="midnightblue" d="M646.32,-504.32C657.73,-496.11 675.1,-483.6 688.71,-473.81"/>
<polygon fill="midnightblue" stroke="midnightblue" points="690.93,-476.52 697,-467.83 686.84,-470.84 690.93,-476.52"/>
</g>
<!-- Node21 -->
<g id="node21" class="node">
<title>Node21</title>
<g id="a_node21"><a xlink:title=" ">
<polygon fill="white" stroke="#bfbfbf" points="553.27,-224.5 553.27,-243.5 609.27,-243.5 609.27,-224.5 553.27,-224.5"/>
<text text-anchor="middle" x="581.27" y="-231.5" font-family="Helvetica,sans-Serif" font-size="10.00">stddef.h</text>
</a>
</g>
</g>
<!-- Node11&#45;&gt;Node21 -->
<g id="edge45" class="edge">
<title>Node11&#45;&gt;Node21</title>
<path fill="none" stroke="midnightblue" d="M622.88,-504.4C601.9,-487.48 559.27,-447.61 559.27,-403 559.27,-403 559.27,-403 559.27,-345 559.27,-312.33 568.72,-275.24 575.23,-253.55"/>
<polygon fill="midnightblue" stroke="midnightblue" points="578.66,-254.31 578.3,-243.72 571.98,-252.22 578.66,-254.31"/>
</g>
<!-- Node25 -->
<g id="node25" class="node">
<title>Node25</title>
<g id="a_node25"><a xlink:title=" ">
<polygon fill="white" stroke="#bfbfbf" points="779.27,-448.5 779.27,-467.5 869.27,-467.5 869.27,-448.5 779.27,-448.5"/>
<text text-anchor="middle" x="824.27" y="-455.5" font-family="Helvetica,sans-Serif" font-size="10.00">AH/STL/iterator</text>
</a>
</g>
</g>
<!-- Node11&#45;&gt;Node25 -->
<g id="edge43" class="edge">
<title>Node11&#45;&gt;Node25</title>
<path fill="none" stroke="midnightblue" d="M664.38,-504.44C696.9,-495.2 748.85,-480.44 784.66,-470.26"/>
<polygon fill="midnightblue" stroke="midnightblue" points="785.64,-473.62 794.31,-467.52 783.73,-466.88 785.64,-473.62"/>
</g>
<!-- Node12&#45;&gt;Node2 -->
<g id="edge19" class="edge">
<title>Node12&#45;&gt;Node2</title>
<path fill="none" stroke="midnightblue" d="M746.46,-448.49C832.17,-428.38 1036.27,-377.29 1036.27,-347 1036.27,-347 1036.27,-347 1036.27,-121 1036.27,-84.3 1010.95,-47.66 994.06,-27.3"/>
<polygon fill="midnightblue" stroke="midnightblue" points="996.62,-24.9 987.44,-19.62 991.32,-29.48 996.62,-24.9"/>
</g>
<!-- Node13 -->
<g id="node13" class="node">
<title>Node13</title>
<g id="a_node13"><a xlink:href="../../df/dee/Debug_8hpp.html" target="_top" xlink:title=" ">
<polygon fill="white" stroke="black" points="718.77,-392.5 718.77,-411.5 839.77,-411.5 839.77,-392.5 718.77,-392.5"/>
<text text-anchor="middle" x="779.27" y="-399.5" font-family="Helvetica,sans-Serif" font-size="10.00">AH/Debug/Debug.hpp</text>
</a>
</g>
</g>
<!-- Node12&#45;&gt;Node13 -->
<g id="edge20" class="edge">
<title>Node12&#45;&gt;Node13</title>
<path fill="none" stroke="midnightblue" d="M720.52,-448.32C731.07,-440.18 747.07,-427.84 759.71,-418.09"/>
<polygon fill="midnightblue" stroke="midnightblue" points="762.04,-420.71 767.82,-411.83 757.76,-415.17 762.04,-420.71"/>
</g>
<!-- Node13&#45;&gt;Node2 -->
<g id="edge21" class="edge">
<title>Node13&#45;&gt;Node2</title>
<path fill="none" stroke="midnightblue" d="M839.96,-394.16C891.2,-387.19 959.32,-374.73 979.27,-356 1001.21,-335.4 998.27,-321.1 998.27,-291 998.27,-291 998.27,-291 998.27,-121 998.27,-88.49 990.11,-51.35 984.49,-29.61"/>
<polygon fill="midnightblue" stroke="midnightblue" points="987.81,-28.5 981.83,-19.75 981.05,-30.32 987.81,-28.5"/>
</g>
<!-- Node14 -->
<g id="node14" class="node">
<title>Node14</title>
<g id="a_node14"><a xlink:href="../../dd/d80/PrintStream_8hpp.html" target="_top" xlink:title=" ">
<polygon fill="white" stroke="black" points="361.77,-224.5 361.77,-243.5 534.77,-243.5 534.77,-224.5 361.77,-224.5"/>
<text text-anchor="middle" x="448.27" y="-231.5" font-family="Helvetica,sans-Serif" font-size="10.00">AH/PrintStream/PrintStream.hpp</text>
</a>
</g>
</g>
<!-- Node13&#45;&gt;Node14 -->
<g id="edge22" class="edge">
<title>Node13&#45;&gt;Node14</title>
<path fill="none" stroke="midnightblue" d="M759.99,-392.48C740.13,-383.62 708.35,-369.24 681.27,-356 604.72,-318.58 515.73,-271.29 473.28,-248.5"/>
<polygon fill="midnightblue" stroke="midnightblue" points="474.7,-245.29 464.24,-243.63 471.39,-251.45 474.7,-245.29"/>
</g>
<!-- Node16 -->
<g id="node16" class="node">
<title>Node16</title>
<g id="a_node16"><a xlink:href="../../de/dd1/AH_2Settings_2SettingsWrapper_8hpp.html" target="_top" xlink:title=" ">
<polygon fill="white" stroke="black" points="690.27,-336.5 690.27,-355.5 868.27,-355.5 868.27,-336.5 690.27,-336.5"/>
<text text-anchor="middle" x="779.27" y="-343.5" font-family="Helvetica,sans-Serif" font-size="10.00">AH/Settings/SettingsWrapper.hpp</text>
</a>
</g>
</g>
<!-- Node13&#45;&gt;Node16 -->
<g id="edge27" class="edge">
<title>Node13&#45;&gt;Node16</title>
<path fill="none" stroke="midnightblue" d="M774.11,-392.08C772.6,-384.93 772.17,-374.64 772.81,-365.69"/>
<polygon fill="midnightblue" stroke="midnightblue" points="776.29,-366.13 774.14,-355.75 769.35,-365.2 776.29,-366.13"/>
</g>
<!-- Node24 -->
<g id="node24" class="node">
<title>Node24</title>
<g id="a_node24"><a xlink:href="../../d7/d52/DebugVal_8hpp.html" target="_top" xlink:title=" ">
<polygon fill="white" stroke="black" points="886.27,-336.5 886.27,-355.5 970.27,-355.5 970.27,-336.5 886.27,-336.5"/>
<text text-anchor="middle" x="928.27" y="-343.5" font-family="Helvetica,sans-Serif" font-size="10.00">DebugVal.hpp</text>
</a>
</g>
</g>
<!-- Node13&#45;&gt;Node24 -->
<g id="edge42" class="edge">
<title>Node13&#45;&gt;Node24</title>
<path fill="none" stroke="midnightblue" d="M802.88,-392.44C827.73,-383.44 867.05,-369.19 895.03,-359.05"/>
<polygon fill="midnightblue" stroke="midnightblue" points="896.56,-362.21 904.77,-355.52 894.18,-355.63 896.56,-362.21"/>
</g>
<!-- Node14&#45;&gt;Node2 -->
<g id="edge24" class="edge">
<title>Node14&#45;&gt;Node2</title>
<path fill="none" stroke="midnightblue" d="M510.97,-224.49C563.43,-216.48 633.43,-203.42 657.27,-188 692.51,-165.22 679.85,-137.37 713.27,-112 777.67,-63.11 868.45,-35.45 925.56,-21.86"/>
<polygon fill="midnightblue" stroke="midnightblue" points="926.52,-25.23 935.47,-19.56 924.94,-18.41 926.52,-25.23"/>
</g>
<!-- Node14&#45;&gt;Node4 -->
<g id="edge23" class="edge">
<title>Node14&#45;&gt;Node4</title>
<path fill="none" stroke="midnightblue" d="M445.37,-224.08C436.83,-197.83 411.69,-120.55 400.17,-85.12"/>
<polygon fill="midnightblue" stroke="midnightblue" points="403.48,-83.99 397.06,-75.57 396.82,-86.16 403.48,-83.99"/>
</g>
<!-- Node14&#45;&gt;Node5 -->
<g id="edge25" class="edge">
<title>Node14&#45;&gt;Node5</title>
<path fill="none" stroke="midnightblue" d="M427.04,-224.44C404.89,-215.52 369.95,-201.44 344.84,-191.32"/>
<polygon fill="midnightblue" stroke="midnightblue" points="345.99,-188.01 335.41,-187.52 343.37,-194.5 345.99,-188.01"/>
</g>
<!-- Node15 -->
<g id="node15" class="node">
<title>Node15</title>
<g id="a_node15"><a xlink:title=" ">
<polygon fill="white" stroke="#bfbfbf" points="470.27,-168.5 470.27,-187.5 648.27,-187.5 648.27,-168.5 470.27,-168.5"/>
<text text-anchor="middle" x="559.27" y="-175.5" font-family="Helvetica,sans-Serif" font-size="10.00">Settings/NamespaceSettings.hpp</text>
</a>
</g>
</g>
<!-- Node14&#45;&gt;Node15 -->
<g id="edge26" class="edge">
<title>Node14&#45;&gt;Node15</title>
<path fill="none" stroke="midnightblue" d="M466.11,-224.32C483.99,-215.62 511.75,-202.12 532.32,-192.11"/>
<polygon fill="midnightblue" stroke="midnightblue" points="534.02,-195.18 541.48,-187.65 530.96,-188.88 534.02,-195.18"/>
</g>
<!-- Node16&#45;&gt;Node2 -->
<g id="edge28" class="edge">
<title>Node16&#45;&gt;Node2</title>
<path fill="none" stroke="midnightblue" d="M841.38,-336.49C869.11,-330.15 900.76,-319.13 924.27,-300 949.89,-279.16 960.27,-268.02 960.27,-235 960.27,-235 960.27,-235 960.27,-121 960.27,-88.49 968.43,-51.35 974.06,-29.61"/>
<polygon fill="midnightblue" stroke="midnightblue" points="977.49,-30.32 976.71,-19.75 970.73,-28.5 977.49,-30.32"/>
</g>
<!-- Node16&#45;&gt;Node4 -->
<g id="edge29" class="edge">
<title>Node16&#45;&gt;Node4</title>
<path fill="none" stroke="midnightblue" d="M845.67,-336.41C867.68,-330.05 889.93,-319.03 903.27,-300 920.95,-274.77 991.24,-222.88 865.27,-112 838.59,-88.51 632.61,-76.21 502.03,-70.71"/>
<polygon fill="midnightblue" stroke="midnightblue" points="502.12,-67.21 491.98,-70.29 501.83,-74.2 502.12,-67.21"/>
</g>
<!-- Node16&#45;&gt;Node13 -->
<g id="edge41" class="edge">
<title>Node16&#45;&gt;Node13</title>
<path fill="none" stroke="midnightblue" d="M784.4,-355.75C785.93,-362.86 786.38,-373.14 785.74,-382.1"/>
<polygon fill="midnightblue" stroke="midnightblue" points="782.27,-381.71 784.44,-392.08 789.21,-382.62 782.27,-381.71"/>
</g>
<!-- Node17 -->
<g id="node17" class="node">
<title>Node17</title>
<g id="a_node17"><a xlink:href="../../d5/d4f/AH_2Settings_2Settings_8hpp.html" target="_top" xlink:title="All user settings and debugging options can be changed here.">
<polygon fill="white" stroke="black" points="625.77,-280.5 625.77,-299.5 702.77,-299.5 702.77,-280.5 625.77,-280.5"/>
<text text-anchor="middle" x="664.27" y="-287.5" font-family="Helvetica,sans-Serif" font-size="10.00">Settings.hpp</text>
</a>
</g>
</g>
<!-- Node16&#45;&gt;Node17 -->
<g id="edge30" class="edge">
<title>Node16&#45;&gt;Node17</title>
<path fill="none" stroke="midnightblue" d="M761.05,-336.44C742.38,-327.68 713.12,-313.94 691.65,-303.86"/>
<polygon fill="midnightblue" stroke="midnightblue" points="692.95,-300.6 682.41,-299.52 689.97,-306.93 692.95,-300.6"/>
</g>
<!-- Node23 -->
<g id="node23" class="node">
<title>Node23</title>
<g id="a_node23"><a xlink:href="../../d9/d98/TeensyUSBTypes_8hpp.html" target="_top" xlink:title=" ">
<polygon fill="white" stroke="black" points="720.77,-280.5 720.77,-299.5 893.77,-299.5 893.77,-280.5 720.77,-280.5"/>
<text text-anchor="middle" x="807.27" y="-287.5" font-family="Helvetica,sans-Serif" font-size="10.00">AH/Teensy/TeensyUSBTypes.hpp</text>
</a>
</g>
</g>
<!-- Node16&#45;&gt;Node23 -->
<g id="edge40" class="edge">
<title>Node16&#45;&gt;Node23</title>
<path fill="none" stroke="midnightblue" d="M783.9,-336.08C787.73,-328.69 793.3,-317.95 798.04,-308.81"/>
<polygon fill="midnightblue" stroke="midnightblue" points="801.24,-310.24 802.73,-299.75 795.02,-307.02 801.24,-310.24"/>
</g>
<!-- Node18 -->
<g id="node18" class="node">
<title>Node18</title>
<g id="a_node18"><a xlink:href="../../dc/d50/Frequency_8hpp.html" target="_top" xlink:title=" ">
<polygon fill="white" stroke="black" points="722.27,-112.5 722.27,-131.5 856.27,-131.5 856.27,-112.5 722.27,-112.5"/>
<text text-anchor="middle" x="789.27" y="-119.5" font-family="Helvetica,sans-Serif" font-size="10.00">AH/Types/Frequency.hpp</text>
</a>
</g>
</g>
<!-- Node17&#45;&gt;Node18 -->
<g id="edge31" class="edge">
<title>Node17&#45;&gt;Node18</title>
<path fill="none" stroke="midnightblue" d="M703.2,-281.58C760.19,-270.53 860.17,-250.37 865.27,-244 893.9,-208.25 841.7,-161.12 810.37,-137.63"/>
<polygon fill="midnightblue" stroke="midnightblue" points="812.32,-134.72 802.17,-131.66 808.19,-140.38 812.32,-134.72"/>
</g>
<!-- Node19 -->
<g id="node19" class="node">
<title>Node19</title>
<g id="a_node19"><a xlink:href="../../d7/d7c/ADCConfig_8hpp.html" target="_top" xlink:title="This file contains the platform&#45;specific ADC resolutions.">
<polygon fill="white" stroke="black" points="627.77,-224.5 627.77,-243.5 784.77,-243.5 784.77,-224.5 627.77,-224.5"/>
<text text-anchor="middle" x="706.27" y="-231.5" font-family="Helvetica,sans-Serif" font-size="10.00">AH/Hardware/ADCConfig.hpp</text>
</a>
</g>
</g>
<!-- Node17&#45;&gt;Node19 -->
<g id="edge34" class="edge">
<title>Node17&#45;&gt;Node19</title>
<path fill="none" stroke="midnightblue" d="M671.21,-280.08C677.2,-272.38 686.02,-261.03 693.32,-251.65"/>
<polygon fill="midnightblue" stroke="midnightblue" points="696.09,-253.79 699.47,-243.75 690.56,-249.5 696.09,-253.79"/>
</g>
<!-- Node20 -->
<g id="node20" class="node">
<title>Node20</title>
<g id="a_node20"><a xlink:title=" ">
<polygon fill="white" stroke="#bfbfbf" points="802.77,-224.5 802.77,-243.5 855.77,-243.5 855.77,-224.5 802.77,-224.5"/>
<text text-anchor="middle" x="829.27" y="-231.5" font-family="Helvetica,sans-Serif" font-size="10.00">limits.h</text>
</a>
</g>
</g>
<!-- Node17&#45;&gt;Node20 -->
<g id="edge37" class="edge">
<title>Node17&#45;&gt;Node20</title>
<path fill="none" stroke="midnightblue" d="M690.42,-280.44C718.3,-271.32 762.62,-256.81 793.67,-246.65"/>
<polygon fill="midnightblue" stroke="midnightblue" points="794.83,-249.95 803.25,-243.52 792.66,-243.3 794.83,-249.95"/>
</g>
<!-- Node17&#45;&gt;Node21 -->
<g id="edge38" class="edge">
<title>Node17&#45;&gt;Node21</title>
<path fill="none" stroke="midnightblue" d="M650.94,-280.32C638.11,-271.98 618.49,-259.21 603.33,-249.35"/>
<polygon fill="midnightblue" stroke="midnightblue" points="604.86,-246.17 594.57,-243.65 601.05,-252.04 604.86,-246.17"/>
</g>
<!-- Node17&#45;&gt;Node22 -->
<g id="edge39" class="edge">
<title>Node17&#45;&gt;Node22</title>
<path fill="none" stroke="midnightblue" d="M625.62,-284.79C568.28,-278.25 457.16,-264.44 353.92,-244.16"/>
<polygon fill="midnightblue" stroke="midnightblue" points="354.45,-240.7 343.96,-242.18 353.08,-247.56 354.45,-240.7"/>
</g>
<!-- Node18&#45;&gt;Node2 -->
<g id="edge32" class="edge">
<title>Node18&#45;&gt;Node2</title>
<path fill="none" stroke="midnightblue" d="M804.18,-112.37C837.06,-93.33 916.03,-47.62 955.69,-24.65"/>
<polygon fill="midnightblue" stroke="midnightblue" points="957.53,-27.63 964.43,-19.59 954.02,-21.57 957.53,-27.63"/>
</g>
<!-- Node18&#45;&gt;Node4 -->
<g id="edge33" class="edge">
<title>Node18&#45;&gt;Node4</title>
<path fill="none" stroke="midnightblue" d="M726.68,-112.44C656.04,-102.79 541.29,-87.1 466.8,-76.92"/>
<polygon fill="midnightblue" stroke="midnightblue" points="466.95,-73.4 456.57,-75.52 466,-80.34 466.95,-73.4"/>
</g>
<!-- Node19&#45;&gt;Node2 -->
<g id="edge35" class="edge">
<title>Node19&#45;&gt;Node2</title>
<path fill="none" stroke="midnightblue" d="M722.51,-224.47C752.31,-208.43 817.12,-171.79 865.27,-132 905.5,-98.76 945.77,-52.12 965.95,-27.59"/>
<polygon fill="midnightblue" stroke="midnightblue" points="968.84,-29.58 972.44,-19.61 963.42,-25.16 968.84,-29.58"/>
</g>
<!-- Node19&#45;&gt;Node5 -->
<g id="edge36" class="edge">
<title>Node19&#45;&gt;Node5</title>
<path fill="none" stroke="midnightblue" d="M644.16,-224.44C574.05,-214.79 460.18,-199.1 386.25,-188.92"/>
<polygon fill="midnightblue" stroke="midnightblue" points="386.48,-185.41 376.09,-187.52 385.52,-192.35 386.48,-185.41"/>
</g>
</g>
</svg>
