<?xml version="1.0" encoding="UTF-8" standalone="no"?>
<!DOCTYPE svg PUBLIC "-//W3C//DTD SVG 1.1//EN"
 "http://www.w3.org/Graphics/SVG/1.1/DTD/svg11.dtd">
<!-- Generated by graphviz version 2.38.0 (20140413.2041)
 -->
<!-- Title: SevenSegmentDisplay.hpp Pages: 1 -->
<svg width="253pt" height="196pt"
 viewBox="0.00 0.00 252.50 196.00" xmlns="http://www.w3.org/2000/svg" xmlns:xlink="http://www.w3.org/1999/xlink">
<g id="graph0" class="graph" transform="scale(1 1) rotate(0) translate(4 192)">
<title>SevenSegmentDisplay.hpp</title>
<polygon fill="white" stroke="none" points="-4,4 -4,-192 248.5,-192 248.5,4 -4,4"/>
<!-- Node1 -->
<g id="node1" class="node"><title>Node1</title>
<g id="a_node1"><a xlink:title=" ">
<polygon fill="#bfbfbf" stroke="black" points="53.5,-168.5 53.5,-187.5 188.5,-187.5 188.5,-168.5 53.5,-168.5"/>
<text text-anchor="middle" x="121" y="-175.5" font-family="Helvetica,sans-Serif" font-size="10.00">SevenSegmentDisplay.hpp</text>
</a>
</g>
</g>
<!-- Node2 -->
<g id="node2" class="node"><title>Node2</title>
<g id="a_node2"><a xlink:href="../../de/d83/AssignmentDisplay_8hpp.html" target="_top" xlink:title=" ">
<polygon fill="white" stroke="black" points="-7.10543e-15,-112.5 -7.10543e-15,-131.5 120,-131.5 120,-112.5 -7.10543e-15,-112.5"/>
<text text-anchor="middle" x="60" y="-119.5" font-family="Helvetica,sans-Serif" font-size="10.00">AssignmentDisplay.hpp</text>
</a>
</g>
</g>
<!-- Node1&#45;&gt;Node2 -->
<g id="edge1" class="edge"><title>Node1&#45;&gt;Node2</title>
<path fill="none" stroke="midnightblue" d="M103.533,-161.537C92.6562,-151.909 79.0561,-139.869 69.979,-131.834"/>
<polygon fill="midnightblue" stroke="midnightblue" points="101.392,-164.316 111.199,-168.324 106.032,-159.075 101.392,-164.316"/>
</g>
<!-- Node3 -->
<g id="node3" class="node"><title>Node3</title>
<g id="a_node3"><a xlink:href="../../d9/dc9/TimeDisplay_8hpp.html" target="_top" xlink:title=" ">
<polygon fill="white" stroke="black" points="138,-112.5 138,-131.5 228,-131.5 228,-112.5 138,-112.5"/>
<text text-anchor="middle" x="183" y="-119.5" font-family="Helvetica,sans-Serif" font-size="10.00">TimeDisplay.hpp</text>
</a>
</g>
</g>
<!-- Node1&#45;&gt;Node3 -->
<g id="edge2" class="edge"><title>Node1&#45;&gt;Node3</title>
<path fill="none" stroke="midnightblue" d="M138.754,-161.537C149.808,-151.909 163.631,-139.869 172.857,-131.834"/>
<polygon fill="midnightblue" stroke="midnightblue" points="136.203,-159.117 130.961,-168.324 140.801,-164.395 136.203,-159.117"/>
</g>
<!-- Node4 -->
<g id="node4" class="node"><title>Node4</title>
<g id="a_node4"><a xlink:href="../../d2/d35/TimeDisplayDisplay_8hpp.html" target="_top" xlink:title=" ">
<polygon fill="white" stroke="black" points="121.5,-56.5 121.5,-75.5 244.5,-75.5 244.5,-56.5 121.5,-56.5"/>
<text text-anchor="middle" x="183" y="-63.5" font-family="Helvetica,sans-Serif" font-size="10.00">TimeDisplayDisplay.hpp</text>
</a>
</g>
</g>
<!-- Node3&#45;&gt;Node4 -->
<g id="edge3" class="edge"><title>Node3&#45;&gt;Node4</title>
<path fill="none" stroke="midnightblue" d="M183,-101.805C183,-92.9102 183,-82.7798 183,-75.7511"/>
<polygon fill="midnightblue" stroke="midnightblue" points="179.5,-102.083 183,-112.083 186.5,-102.083 179.5,-102.083"/>
</g>
<!-- Node5 -->
<g id="node5" class="node"><title>Node5</title>
<g id="a_node5"><a xlink:href="../../db/dbf/Control__Surface_8h.html" target="_top" xlink:title="The main header file that includes all Control&#45;Surface header files.">
<polygon fill="white" stroke="black" points="135.5,-0.5 135.5,-19.5 230.5,-19.5 230.5,-0.5 135.5,-0.5"/>
<text text-anchor="middle" x="183" y="-7.5" font-family="Helvetica,sans-Serif" font-size="10.00">Control_Surface.h</text>
</a>
</g>
</g>
<!-- Node4&#45;&gt;Node5 -->
<g id="edge4" class="edge"><title>Node4&#45;&gt;Node5</title>
<path fill="none" stroke="midnightblue" d="M183,-45.8045C183,-36.9102 183,-26.7798 183,-19.7511"/>
<polygon fill="midnightblue" stroke="midnightblue" points="179.5,-46.083 183,-56.083 186.5,-46.083 179.5,-46.083"/>
</g>
</g>
</svg>
