<?xml version="1.0" encoding="UTF-8" standalone="no"?>
<!DOCTYPE svg PUBLIC "-//W3C//DTD SVG 1.1//EN"
 "http://www.w3.org/Graphics/SVG/1.1/DTD/svg11.dtd">
<!-- Generated by graphviz version 2.43.0 (0)
 -->
<!-- Title: RegisterEncoders.hpp Pages: 1 -->
<svg width="908pt" height="577pt"
 viewBox="0.00 0.00 907.50 577.00" xmlns="http://www.w3.org/2000/svg" xmlns:xlink="http://www.w3.org/1999/xlink">
<g id="graph0" class="graph" transform="scale(1 1) rotate(0) translate(4 573)">
<title>RegisterEncoders.hpp</title>
<!-- Node1 -->
<g id="Node000001" class="node">
<title>Node1</title>
<g id="a_Node000001"><a xlink:title=" ">
<polygon fill="#999999" stroke="#666666" points="299.5,-569 177.5,-569 177.5,-550 299.5,-550 299.5,-569"/>
<text text-anchor="middle" x="238.5" y="-557" font-family="Helvetica,sans-Serif" font-size="10.00">RegisterEncoders.hpp</text>
</a>
</g>
</g>
<!-- Node2 -->
<g id="Node000002" class="node">
<title>Node2</title>
<g id="a_Node000002"><a xlink:href="../../d6/ddf/Arduino-Wrapper_8h.html" target="_top" xlink:title=" ">
<polygon fill="white" stroke="#666666" points="286.5,-184 162.5,-184 162.5,-165 286.5,-165 286.5,-184"/>
<text text-anchor="middle" x="224.5" y="-172" font-family="Helvetica,sans-Serif" font-size="10.00">AH/Arduino&#45;Wrapper.h</text>
</a>
</g>
</g>
<!-- Node1&#45;&gt;Node2 -->
<g id="edge1_Node000001_Node000002" class="edge">
<title>Node1&#45;&gt;Node2</title>
<g id="a_edge1_Node000001_Node000002"><a xlink:title=" ">
<path fill="none" stroke="#63b8ff" d="M204.78,-549.89C161.38,-536.55 91.5,-506.39 91.5,-450.5 91.5,-450.5 91.5,-450.5 91.5,-283.5 91.5,-254.04 90.53,-241.66 110.5,-220 125.29,-203.96 146.56,-193.62 166.73,-187"/>
<polygon fill="#63b8ff" stroke="#63b8ff" points="167.95,-190.29 176.51,-184.04 165.92,-183.59 167.95,-190.29"/>
</a>
</g>
</g>
<!-- Node7 -->
<g id="Node000007" class="node">
<title>Node7</title>
<g id="a_Node000007"><a xlink:href="../../d6/db0/AH_2Settings_2NamespaceSettings_8hpp.html" target="_top" xlink:title=" ">
<polygon fill="white" stroke="#666666" points="713,-74 518,-74 518,-55 713,-55 713,-74"/>
<text text-anchor="middle" x="615.5" y="-62" font-family="Helvetica,sans-Serif" font-size="10.00">AH/Settings/NamespaceSettings.hpp</text>
</a>
</g>
</g>
<!-- Node1&#45;&gt;Node7 -->
<g id="edge10_Node000001_Node000007" class="edge">
<title>Node1&#45;&gt;Node7</title>
<g id="a_edge10_Node000001_Node000007"><a xlink:title=" ">
<path fill="none" stroke="#63b8ff" d="M299.57,-559.25C443.03,-559.38 789.5,-549.44 789.5,-450.5 789.5,-450.5 789.5,-450.5 789.5,-173.5 789.5,-117.84 724.42,-89.86 673.86,-76.53"/>
<polygon fill="#63b8ff" stroke="#63b8ff" points="674.52,-73.09 663.97,-74.05 672.82,-79.88 674.52,-73.09"/>
</a>
</g>
</g>
<!-- Node8 -->
<g id="Node000008" class="node">
<title>Node8</title>
<g id="a_Node000008"><a xlink:title=" ">
<polygon fill="#e0e0e0" stroke="#999999" points="107,-129 0,-129 0,-110 107,-110 107,-129"/>
<text text-anchor="middle" x="53.5" y="-117" font-family="Helvetica,sans-Serif" font-size="10.00">AH/STL/type_traits</text>
</a>
</g>
</g>
<!-- Node1&#45;&gt;Node8 -->
<g id="edge36_Node000001_Node000008" class="edge">
<title>Node1&#45;&gt;Node8</title>
<g id="a_edge36_Node000001_Node000008"><a xlink:title=" ">
<path fill="none" stroke="#63b8ff" d="M177.27,-554.57C111.25,-546.62 15.5,-522.66 15.5,-450.5 15.5,-450.5 15.5,-450.5 15.5,-228.5 15.5,-195.02 31.95,-158.84 43.2,-138.01"/>
<polygon fill="#63b8ff" stroke="#63b8ff" points="46.37,-139.53 48.22,-129.1 40.26,-136.1 46.37,-139.53"/>
</a>
</g>
</g>
<!-- Node9 -->
<g id="Node000009" class="node">
<title>Node9</title>
<g id="a_Node000009"><a xlink:href="../../de/d76/Array_8hpp.html" target="_top" xlink:title=" ">
<polygon fill="white" stroke="#666666" points="306,-514 171,-514 171,-495 306,-495 306,-514"/>
<text text-anchor="middle" x="238.5" y="-502" font-family="Helvetica,sans-Serif" font-size="10.00">AH/Containers/Array.hpp</text>
</a>
</g>
</g>
<!-- Node1&#45;&gt;Node9 -->
<g id="edge11_Node000001_Node000009" class="edge">
<title>Node1&#45;&gt;Node9</title>
<g id="a_edge11_Node000001_Node000009"><a xlink:title=" ">
<path fill="none" stroke="#63b8ff" d="M238.5,-549.75C238.5,-542.8 238.5,-532.85 238.5,-524.13"/>
<polygon fill="#63b8ff" stroke="#63b8ff" points="242,-524.09 238.5,-514.09 235,-524.09 242,-524.09"/>
</a>
</g>
</g>
<!-- Node24 -->
<g id="Node000024" class="node">
<title>Node24</title>
<g id="a_Node000024"><a xlink:title=" ">
<polygon fill="#e0e0e0" stroke="#999999" points="899.5,-514 817.5,-514 817.5,-495 899.5,-495 899.5,-514"/>
<text text-anchor="middle" x="858.5" y="-502" font-family="Helvetica,sans-Serif" font-size="10.00">AH/STL/limits</text>
</a>
</g>
</g>
<!-- Node1&#45;&gt;Node24 -->
<g id="edge35_Node000001_Node000024" class="edge">
<title>Node1&#45;&gt;Node24</title>
<g id="a_edge35_Node000001_Node000024"><a xlink:title=" ">
<path fill="none" stroke="#63b8ff" d="M299.68,-555.18C403.51,-549.22 620.74,-535.29 803.5,-514 804.77,-513.85 806.05,-513.7 807.35,-513.54"/>
<polygon fill="#63b8ff" stroke="#63b8ff" points="807.95,-516.99 817.4,-512.2 807.03,-510.05 807.95,-516.99"/>
</a>
</g>
</g>
<!-- Node3 -->
<g id="Node000003" class="node">
<title>Node3</title>
<g id="a_Node000003"><a xlink:href="../../d7/d79/MinMaxFix_8hpp.html" target="_top" xlink:title=" ">
<polygon fill="white" stroke="#666666" points="340.5,-129 204.5,-129 204.5,-110 340.5,-110 340.5,-129"/>
<text text-anchor="middle" x="272.5" y="-117" font-family="Helvetica,sans-Serif" font-size="10.00">AH/Math/MinMaxFix.hpp</text>
</a>
</g>
</g>
<!-- Node2&#45;&gt;Node3 -->
<g id="edge2_Node000002_Node000003" class="edge">
<title>Node2&#45;&gt;Node3</title>
<g id="a_edge2_Node000002_Node000003"><a xlink:title=" ">
<path fill="none" stroke="#63b8ff" d="M232.43,-164.75C239.35,-157.11 249.57,-145.82 257.95,-136.56"/>
<polygon fill="#63b8ff" stroke="#63b8ff" points="260.6,-138.85 264.72,-129.09 255.41,-134.15 260.6,-138.85"/>
</a>
</g>
</g>
<!-- Node6 -->
<g id="Node000006" class="node">
<title>Node6</title>
<g id="a_Node000006"><a xlink:title=" ">
<polygon fill="#e0e0e0" stroke="#999999" points="265,-19 202,-19 202,0 265,0 265,-19"/>
<text text-anchor="middle" x="233.5" y="-7" font-family="Helvetica,sans-Serif" font-size="10.00">Arduino.h</text>
</a>
</g>
</g>
<!-- Node2&#45;&gt;Node6 -->
<g id="edge9_Node000002_Node000006" class="edge">
<title>Node2&#45;&gt;Node6</title>
<g id="a_edge9_Node000002_Node000006"><a xlink:title=" ">
<path fill="none" stroke="#63b8ff" d="M216.56,-164.75C209.47,-156.3 199.6,-142.79 195.5,-129 186.13,-97.47 184.12,-85.86 195.5,-55 199.56,-43.99 207.69,-33.86 215.4,-26.05"/>
<polygon fill="#63b8ff" stroke="#63b8ff" points="217.92,-28.48 222.79,-19.07 213.11,-23.39 217.92,-28.48"/>
</a>
</g>
</g>
<!-- Node2&#45;&gt;Node8 -->
<g id="edge8_Node000002_Node000008" class="edge">
<title>Node2&#45;&gt;Node8</title>
<g id="a_edge8_Node000002_Node000008"><a xlink:title=" ">
<path fill="none" stroke="#63b8ff" d="M197.03,-164.98C168.32,-156.09 123.08,-142.07 91.08,-132.15"/>
<polygon fill="#63b8ff" stroke="#63b8ff" points="91.78,-128.7 81.19,-129.08 89.7,-135.39 91.78,-128.7"/>
</a>
</g>
</g>
<!-- Node4 -->
<g id="Node000004" class="node">
<title>Node4</title>
<g id="a_Node000004"><a xlink:href="../../d6/d3b/FixArduinoMacros_8hpp.html" target="_top" xlink:title=" ">
<polygon fill="white" stroke="#666666" points="374.5,-74 204.5,-74 204.5,-55 374.5,-55 374.5,-74"/>
<text text-anchor="middle" x="289.5" y="-62" font-family="Helvetica,sans-Serif" font-size="10.00">AH/Math/FixArduinoMacros.hpp</text>
</a>
</g>
</g>
<!-- Node3&#45;&gt;Node4 -->
<g id="edge3_Node000003_Node000004" class="edge">
<title>Node3&#45;&gt;Node4</title>
<g id="a_edge3_Node000003_Node000004"><a xlink:title=" ">
<path fill="none" stroke="#63b8ff" d="M275.31,-109.75C277.56,-102.72 280.8,-92.62 283.62,-83.84"/>
<polygon fill="#63b8ff" stroke="#63b8ff" points="287.02,-84.68 286.75,-74.09 280.36,-82.54 287.02,-84.68"/>
</a>
</g>
</g>
<!-- Node3&#45;&gt;Node7 -->
<g id="edge6_Node000003_Node000007" class="edge">
<title>Node3&#45;&gt;Node7</title>
<g id="a_edge6_Node000003_Node000007"><a xlink:title=" ">
<path fill="none" stroke="#63b8ff" d="M327.61,-109.98C388.28,-100.61 485.74,-85.55 550.19,-75.59"/>
<polygon fill="#63b8ff" stroke="#63b8ff" points="550.9,-79.02 560.24,-74.04 549.83,-72.11 550.9,-79.02"/>
</a>
</g>
</g>
<!-- Node5 -->
<g id="Node000005" class="node">
<title>Node5</title>
<g id="a_Node000005"><a xlink:href="../../d1/d65/Warnings_8hpp.html" target="_top" xlink:title=" ">
<polygon fill="white" stroke="#666666" points="519,-19 376,-19 376,0 519,0 519,-19"/>
<text text-anchor="middle" x="447.5" y="-7" font-family="Helvetica,sans-Serif" font-size="10.00">AH/Settings/Warnings.hpp</text>
</a>
</g>
</g>
<!-- Node4&#45;&gt;Node5 -->
<g id="edge4_Node000004_Node000005" class="edge">
<title>Node4&#45;&gt;Node5</title>
<g id="a_edge4_Node000004_Node000005"><a xlink:title=" ">
<path fill="none" stroke="#63b8ff" d="M314.89,-54.98C341.3,-46.13 382.85,-32.19 412.39,-22.28"/>
<polygon fill="#63b8ff" stroke="#63b8ff" points="413.55,-25.58 421.92,-19.08 411.32,-18.94 413.55,-25.58"/>
</a>
</g>
</g>
<!-- Node4&#45;&gt;Node6 -->
<g id="edge5_Node000004_Node000006" class="edge">
<title>Node4&#45;&gt;Node6</title>
<g id="a_edge5_Node000004_Node000006"><a xlink:title=" ">
<path fill="none" stroke="#63b8ff" d="M280.5,-54.98C272.31,-47.23 259.99,-35.58 250.03,-26.14"/>
<polygon fill="#63b8ff" stroke="#63b8ff" points="252.33,-23.5 242.66,-19.17 247.52,-28.59 252.33,-23.5"/>
</a>
</g>
</g>
<!-- Node7&#45;&gt;Node5 -->
<g id="edge7_Node000007_Node000005" class="edge">
<title>Node7&#45;&gt;Node5</title>
<g id="a_edge7_Node000007_Node000005"><a xlink:title=" ">
<path fill="none" stroke="#63b8ff" d="M588.51,-54.98C560.3,-46.09 515.86,-32.07 484.42,-22.15"/>
<polygon fill="#63b8ff" stroke="#63b8ff" points="485.29,-18.75 474.7,-19.08 483.19,-25.43 485.29,-18.75"/>
</a>
</g>
</g>
<!-- Node9&#45;&gt;Node8 -->
<g id="edge33_Node000009_Node000008" class="edge">
<title>Node9&#45;&gt;Node8</title>
<g id="a_edge33_Node000009_Node000008"><a xlink:title=" ">
<path fill="none" stroke="#63b8ff" d="M206.93,-494.97C187.52,-488.2 163.57,-476.85 148.5,-459 129.5,-436.49 129.5,-424.96 129.5,-395.5 129.5,-395.5 129.5,-395.5 129.5,-338.5 129.5,-297.5 80.96,-182.79 61.46,-138.38"/>
<polygon fill="#63b8ff" stroke="#63b8ff" points="64.62,-136.86 57.37,-129.13 58.21,-139.69 64.62,-136.86"/>
</a>
</g>
</g>
<!-- Node10 -->
<g id="Node000010" class="node">
<title>Node10</title>
<g id="a_Node000010"><a xlink:href="../../d1/d93/Error_8hpp.html" target="_top" xlink:title=" ">
<polygon fill="white" stroke="#666666" points="443.5,-459 339.5,-459 339.5,-440 443.5,-440 443.5,-459"/>
<text text-anchor="middle" x="391.5" y="-447" font-family="Helvetica,sans-Serif" font-size="10.00">AH/Error/Error.hpp</text>
</a>
</g>
</g>
<!-- Node9&#45;&gt;Node10 -->
<g id="edge12_Node000009_Node000010" class="edge">
<title>Node9&#45;&gt;Node10</title>
<g id="a_edge12_Node000009_Node000010"><a xlink:title=" ">
<path fill="none" stroke="#63b8ff" d="M263.08,-494.98C288.55,-486.16 328.54,-472.31 357.13,-462.41"/>
<polygon fill="#63b8ff" stroke="#63b8ff" points="358.42,-465.66 366.73,-459.08 356.13,-459.05 358.42,-465.66"/>
</a>
</g>
</g>
<!-- Node19 -->
<g id="Node000019" class="node">
<title>Node19</title>
<g id="a_Node000019"><a xlink:title=" ">
<polygon fill="#e0e0e0" stroke="#999999" points="175.5,-239 119.5,-239 119.5,-220 175.5,-220 175.5,-239"/>
<text text-anchor="middle" x="147.5" y="-227" font-family="Helvetica,sans-Serif" font-size="10.00">stddef.h</text>
</a>
</g>
</g>
<!-- Node9&#45;&gt;Node19 -->
<g id="edge34_Node000009_Node000019" class="edge">
<title>Node9&#45;&gt;Node19</title>
<g id="a_edge34_Node000009_Node000019"><a xlink:title=" ">
<path fill="none" stroke="#63b8ff" d="M243.64,-494.88C253.81,-477.02 275.5,-434.35 275.5,-395.5 275.5,-395.5 275.5,-395.5 275.5,-338.5 275.5,-289.92 220.98,-258.75 183.11,-242.96"/>
<polygon fill="#63b8ff" stroke="#63b8ff" points="183.99,-239.54 173.4,-239.09 181.4,-246.04 183.99,-239.54"/>
</a>
</g>
</g>
<!-- Node23 -->
<g id="Node000023" class="node">
<title>Node23</title>
<g id="a_Node000023"><a xlink:title=" ">
<polygon fill="#e0e0e0" stroke="#999999" points="247.5,-459 157.5,-459 157.5,-440 247.5,-440 247.5,-459"/>
<text text-anchor="middle" x="202.5" y="-447" font-family="Helvetica,sans-Serif" font-size="10.00">AH/STL/iterator</text>
</a>
</g>
</g>
<!-- Node9&#45;&gt;Node23 -->
<g id="edge32_Node000009_Node000023" class="edge">
<title>Node9&#45;&gt;Node23</title>
<g id="a_edge32_Node000009_Node000023"><a xlink:title=" ">
<path fill="none" stroke="#63b8ff" d="M232.56,-494.75C227.52,-487.34 220.16,-476.5 213.99,-467.41"/>
<polygon fill="#63b8ff" stroke="#63b8ff" points="216.85,-465.39 208.33,-459.09 211.06,-469.33 216.85,-465.39"/>
</a>
</g>
</g>
<!-- Node11 -->
<g id="Node000011" class="node">
<title>Node11</title>
<g id="a_Node000011"><a xlink:href="../../df/dee/Debug_8hpp.html" target="_top" xlink:title=" ">
<polygon fill="white" stroke="#666666" points="487,-404 366,-404 366,-385 487,-385 487,-404"/>
<text text-anchor="middle" x="426.5" y="-392" font-family="Helvetica,sans-Serif" font-size="10.00">AH/Debug/Debug.hpp</text>
</a>
</g>
</g>
<!-- Node10&#45;&gt;Node11 -->
<g id="edge13_Node000010_Node000011" class="edge">
<title>Node10&#45;&gt;Node11</title>
<g id="a_edge13_Node000010_Node000011"><a xlink:title=" ">
<path fill="none" stroke="#63b8ff" d="M397.28,-439.75C402.12,-432.42 409.18,-421.73 415.14,-412.7"/>
<polygon fill="#63b8ff" stroke="#63b8ff" points="418.24,-414.36 420.83,-404.09 412.4,-410.5 418.24,-414.36"/>
</a>
</g>
</g>
<!-- Node12 -->
<g id="Node000012" class="node">
<title>Node12</title>
<g id="a_Node000012"><a xlink:href="../../dd/d80/PrintStream_8hpp.html" target="_top" xlink:title=" ">
<polygon fill="white" stroke="#666666" points="542,-239 369,-239 369,-220 542,-220 542,-239"/>
<text text-anchor="middle" x="455.5" y="-227" font-family="Helvetica,sans-Serif" font-size="10.00">AH/PrintStream/PrintStream.hpp</text>
</a>
</g>
</g>
<!-- Node11&#45;&gt;Node12 -->
<g id="edge14_Node000011_Node000012" class="edge">
<title>Node11&#45;&gt;Node12</title>
<g id="a_edge14_Node000011_Node000012"><a xlink:title=" ">
<path fill="none" stroke="#63b8ff" d="M427.86,-384.86C430.96,-365.28 438.89,-316.03 446.5,-275 448.08,-266.47 449.97,-257.04 451.6,-249.07"/>
<polygon fill="#63b8ff" stroke="#63b8ff" points="455.09,-249.52 453.69,-239.02 448.23,-248.09 455.09,-249.52"/>
</a>
</g>
</g>
<!-- Node14 -->
<g id="Node000014" class="node">
<title>Node14</title>
<g id="a_Node000014"><a xlink:href="../../de/dd1/AH_2Settings_2SettingsWrapper_8hpp.html" target="_top" xlink:title=" ">
<polygon fill="white" stroke="#666666" points="632.5,-349 454.5,-349 454.5,-330 632.5,-330 632.5,-349"/>
<text text-anchor="middle" x="543.5" y="-337" font-family="Helvetica,sans-Serif" font-size="10.00">AH/Settings/SettingsWrapper.hpp</text>
</a>
</g>
</g>
<!-- Node11&#45;&gt;Node14 -->
<g id="edge19_Node000011_Node000014" class="edge">
<title>Node11&#45;&gt;Node14</title>
<g id="a_edge19_Node000011_Node000014"><a xlink:title=" ">
<path fill="none" stroke="#63b8ff" d="M440.18,-384.98C457.28,-376.38 486.59,-362.99 509.73,-353.15"/>
<polygon fill="#63b8ff" stroke="#63b8ff" points="511.34,-356.27 519.21,-349.17 508.64,-349.81 511.34,-356.27"/>
</a>
</g>
</g>
<!-- Node22 -->
<g id="Node000022" class="node">
<title>Node22</title>
<g id="a_Node000022"><a xlink:href="../../d7/d52/DebugVal_8hpp.html" target="_top" xlink:title=" ">
<polygon fill="white" stroke="#666666" points="398.5,-349 314.5,-349 314.5,-330 398.5,-330 398.5,-349"/>
<text text-anchor="middle" x="356.5" y="-337" font-family="Helvetica,sans-Serif" font-size="10.00">DebugVal.hpp</text>
</a>
</g>
</g>
<!-- Node11&#45;&gt;Node22 -->
<g id="edge31_Node000011_Node000022" class="edge">
<title>Node11&#45;&gt;Node22</title>
<g id="a_edge31_Node000011_Node000022"><a xlink:title=" ">
<path fill="none" stroke="#63b8ff" d="M415.25,-384.98C404.7,-377 388.7,-364.88 376.06,-355.31"/>
<polygon fill="#63b8ff" stroke="#63b8ff" points="378.04,-352.42 367.95,-349.17 373.81,-358 378.04,-352.42"/>
</a>
</g>
</g>
<!-- Node12&#45;&gt;Node2 -->
<g id="edge15_Node000012_Node000002" class="edge">
<title>Node12&#45;&gt;Node2</title>
<g id="a_edge15_Node000012_Node000002"><a xlink:title=" ">
<path fill="none" stroke="#63b8ff" d="M418.39,-219.98C378.51,-210.84 315.04,-196.27 271.66,-186.32"/>
<polygon fill="#63b8ff" stroke="#63b8ff" points="272.43,-182.91 261.91,-184.08 270.87,-189.73 272.43,-182.91"/>
</a>
</g>
</g>
<!-- Node12&#45;&gt;Node7 -->
<g id="edge16_Node000012_Node000007" class="edge">
<title>Node12&#45;&gt;Node7</title>
<g id="a_edge16_Node000012_Node000007"><a xlink:title=" ">
<path fill="none" stroke="#63b8ff" d="M464.1,-219.74C489.82,-193.53 566.41,-115.51 599.72,-81.57"/>
<polygon fill="#63b8ff" stroke="#63b8ff" points="602.35,-83.9 606.86,-74.31 597.35,-78.99 602.35,-83.9"/>
</a>
</g>
</g>
<!-- Node13 -->
<g id="Node000013" class="node">
<title>Node13</title>
<g id="a_Node000013"><a xlink:href="../../d0/da7/Settings_2NamespaceSettings_8hpp.html" target="_top" xlink:title=" ">
<polygon fill="white" stroke="#666666" points="536.5,-129 358.5,-129 358.5,-110 536.5,-110 536.5,-129"/>
<text text-anchor="middle" x="447.5" y="-117" font-family="Helvetica,sans-Serif" font-size="10.00">Settings/NamespaceSettings.hpp</text>
</a>
</g>
</g>
<!-- Node12&#45;&gt;Node13 -->
<g id="edge17_Node000012_Node000013" class="edge">
<title>Node12&#45;&gt;Node13</title>
<g id="a_edge17_Node000012_Node000013"><a xlink:title=" ">
<path fill="none" stroke="#63b8ff" d="M454.85,-219.66C453.55,-202.17 450.63,-162.8 448.89,-139.27"/>
<polygon fill="#63b8ff" stroke="#63b8ff" points="452.37,-138.87 448.14,-129.16 445.39,-139.39 452.37,-138.87"/>
</a>
</g>
</g>
<!-- Node13&#45;&gt;Node5 -->
<g id="edge18_Node000013_Node000005" class="edge">
<title>Node13&#45;&gt;Node5</title>
<g id="a_edge18_Node000013_Node000005"><a xlink:title=" ">
<path fill="none" stroke="#63b8ff" d="M447.5,-109.66C447.5,-92.17 447.5,-52.8 447.5,-29.27"/>
<polygon fill="#63b8ff" stroke="#63b8ff" points="451,-29.16 447.5,-19.16 444,-29.16 451,-29.16"/>
</a>
</g>
</g>
<!-- Node14&#45;&gt;Node7 -->
<g id="edge20_Node000014_Node000007" class="edge">
<title>Node14&#45;&gt;Node7</title>
<g id="a_edge20_Node000014_Node000007"><a xlink:title=" ">
<path fill="none" stroke="#63b8ff" d="M610.23,-329.96C657.24,-322.64 714.83,-310.64 732.5,-294 753.94,-273.8 751.5,-259.96 751.5,-230.5 751.5,-230.5 751.5,-230.5 751.5,-173.5 751.5,-123.36 694.12,-92.79 653.9,-77.52"/>
<polygon fill="#63b8ff" stroke="#63b8ff" points="654.94,-74.18 644.34,-74.05 652.55,-80.76 654.94,-74.18"/>
</a>
</g>
</g>
<!-- Node14&#45;&gt;Node11 -->
<g id="edge30_Node000014_Node000011" class="edge">
<title>Node14&#45;&gt;Node11</title>
<g id="a_edge30_Node000014_Node000011"><a xlink:title=" ">
<path fill="none" stroke="#63b8ff" d="M529.51,-349.17C512.27,-357.83 482.92,-371.23 459.86,-381.03"/>
<polygon fill="#63b8ff" stroke="#63b8ff" points="458.28,-377.89 450.41,-384.98 460.99,-384.35 458.28,-377.89"/>
</a>
</g>
</g>
<!-- Node15 -->
<g id="Node000015" class="node">
<title>Node15</title>
<g id="a_Node000015"><a xlink:href="../../d5/d4f/AH_2Settings_2Settings_8hpp.html" target="_top" xlink:title="All user settings and debugging options can be changed here.">
<polygon fill="white" stroke="#666666" points="532,-294 455,-294 455,-275 532,-275 532,-294"/>
<text text-anchor="middle" x="493.5" y="-282" font-family="Helvetica,sans-Serif" font-size="10.00">Settings.hpp</text>
</a>
</g>
</g>
<!-- Node14&#45;&gt;Node15 -->
<g id="edge21_Node000014_Node000015" class="edge">
<title>Node14&#45;&gt;Node15</title>
<g id="a_edge21_Node000014_Node000015"><a xlink:title=" ">
<path fill="none" stroke="#63b8ff" d="M535.24,-329.75C528.04,-322.11 517.39,-310.82 508.65,-301.56"/>
<polygon fill="#63b8ff" stroke="#63b8ff" points="511.01,-298.96 501.6,-294.09 505.92,-303.76 511.01,-298.96"/>
</a>
</g>
</g>
<!-- Node21 -->
<g id="Node000021" class="node">
<title>Node21</title>
<g id="a_Node000021"><a xlink:href="../../d9/d98/TeensyUSBTypes_8hpp.html" target="_top" xlink:title=" ">
<polygon fill="white" stroke="#666666" points="723,-294 550,-294 550,-275 723,-275 723,-294"/>
<text text-anchor="middle" x="636.5" y="-282" font-family="Helvetica,sans-Serif" font-size="10.00">AH/Teensy/TeensyUSBTypes.hpp</text>
</a>
</g>
</g>
<!-- Node14&#45;&gt;Node21 -->
<g id="edge29_Node000014_Node000021" class="edge">
<title>Node14&#45;&gt;Node21</title>
<g id="a_edge29_Node000014_Node000021"><a xlink:title=" ">
<path fill="none" stroke="#63b8ff" d="M558.44,-329.98C573,-321.69 595.37,-308.94 612.43,-299.22"/>
<polygon fill="#63b8ff" stroke="#63b8ff" points="614.33,-302.16 621.29,-294.17 610.86,-296.08 614.33,-302.16"/>
</a>
</g>
</g>
<!-- Node16 -->
<g id="Node000016" class="node">
<title>Node16</title>
<g id="a_Node000016"><a xlink:href="../../dc/d50/Frequency_8hpp.html" target="_top" xlink:title=" ">
<polygon fill="white" stroke="#666666" points="723.5,-184 589.5,-184 589.5,-165 723.5,-165 723.5,-184"/>
<text text-anchor="middle" x="656.5" y="-172" font-family="Helvetica,sans-Serif" font-size="10.00">AH/Types/Frequency.hpp</text>
</a>
</g>
</g>
<!-- Node15&#45;&gt;Node16 -->
<g id="edge22_Node000015_Node000016" class="edge">
<title>Node15&#45;&gt;Node16</title>
<g id="a_edge22_Node000015_Node000016"><a xlink:title=" ">
<path fill="none" stroke="#63b8ff" d="M506.56,-274.84C534.58,-256.28 600.68,-212.49 634.99,-189.75"/>
<polygon fill="#63b8ff" stroke="#63b8ff" points="636.97,-192.64 643.37,-184.2 633.1,-186.8 636.97,-192.64"/>
</a>
</g>
</g>
<!-- Node17 -->
<g id="Node000017" class="node">
<title>Node17</title>
<g id="a_Node000017"><a xlink:href="../../d7/d7c/ADCConfig_8hpp.html" target="_top" xlink:title="This file contains the platform&#45;specific ADC resolutions.">
<polygon fill="white" stroke="#666666" points="351,-239 194,-239 194,-220 351,-220 351,-239"/>
<text text-anchor="middle" x="272.5" y="-227" font-family="Helvetica,sans-Serif" font-size="10.00">AH/Hardware/ADCConfig.hpp</text>
</a>
</g>
</g>
<!-- Node15&#45;&gt;Node17 -->
<g id="edge24_Node000015_Node000017" class="edge">
<title>Node15&#45;&gt;Node17</title>
<g id="a_edge24_Node000015_Node000017"><a xlink:title=" ">
<path fill="none" stroke="#63b8ff" d="M457.99,-274.98C420.01,-265.87 359.63,-251.4 318.14,-241.45"/>
<polygon fill="#63b8ff" stroke="#63b8ff" points="318.83,-238.01 308.29,-239.08 317.19,-244.82 318.83,-238.01"/>
</a>
</g>
</g>
<!-- Node18 -->
<g id="Node000018" class="node">
<title>Node18</title>
<g id="a_Node000018"><a xlink:title=" ">
<polygon fill="#e0e0e0" stroke="#999999" points="723,-239 670,-239 670,-220 723,-220 723,-239"/>
<text text-anchor="middle" x="696.5" y="-227" font-family="Helvetica,sans-Serif" font-size="10.00">limits.h</text>
</a>
</g>
</g>
<!-- Node15&#45;&gt;Node18 -->
<g id="edge26_Node000015_Node000018" class="edge">
<title>Node15&#45;&gt;Node18</title>
<g id="a_edge26_Node000015_Node000018"><a xlink:title=" ">
<path fill="none" stroke="#63b8ff" d="M526.12,-274.98C562.59,-265.46 621.52,-250.08 659.64,-240.12"/>
<polygon fill="#63b8ff" stroke="#63b8ff" points="661.01,-243.38 669.8,-237.47 659.24,-236.61 661.01,-243.38"/>
</a>
</g>
</g>
<!-- Node15&#45;&gt;Node19 -->
<g id="edge27_Node000015_Node000019" class="edge">
<title>Node15&#45;&gt;Node19</title>
<g id="a_edge27_Node000015_Node000019"><a xlink:title=" ">
<path fill="none" stroke="#63b8ff" d="M454.79,-278.97C397.94,-272.09 288.33,-257.96 185.65,-239.08"/>
<polygon fill="#63b8ff" stroke="#63b8ff" points="186.2,-235.62 175.73,-237.24 184.92,-242.51 186.2,-235.62"/>
</a>
</g>
</g>
<!-- Node20 -->
<g id="Node000020" class="node">
<title>Node20</title>
<g id="a_Node000020"><a xlink:title=" ">
<polygon fill="#e0e0e0" stroke="#999999" points="652,-239 599,-239 599,-220 652,-220 652,-239"/>
<text text-anchor="middle" x="625.5" y="-227" font-family="Helvetica,sans-Serif" font-size="10.00">stdint.h</text>
</a>
</g>
</g>
<!-- Node15&#45;&gt;Node20 -->
<g id="edge28_Node000015_Node000020" class="edge">
<title>Node15&#45;&gt;Node20</title>
<g id="a_edge28_Node000015_Node000020"><a xlink:title=" ">
<path fill="none" stroke="#63b8ff" d="M514.71,-274.98C536.23,-266.34 569.78,-252.87 594.33,-243.02"/>
<polygon fill="#63b8ff" stroke="#63b8ff" points="595.93,-246.14 603.91,-239.17 593.32,-239.65 595.93,-246.14"/>
</a>
</g>
</g>
<!-- Node16&#45;&gt;Node7 -->
<g id="edge23_Node000016_Node000007" class="edge">
<title>Node16&#45;&gt;Node7</title>
<g id="a_edge23_Node000016_Node000007"><a xlink:title=" ">
<path fill="none" stroke="#63b8ff" d="M653.14,-164.66C646.44,-147.01 631.29,-107.09 622.38,-83.64"/>
<polygon fill="#63b8ff" stroke="#63b8ff" points="625.61,-82.27 618.79,-74.16 619.06,-84.75 625.61,-82.27"/>
</a>
</g>
</g>
<!-- Node17&#45;&gt;Node2 -->
<g id="edge25_Node000017_Node000002" class="edge">
<title>Node17&#45;&gt;Node2</title>
<g id="a_edge25_Node000017_Node000002"><a xlink:title=" ">
<path fill="none" stroke="#63b8ff" d="M264.57,-219.75C257.65,-212.11 247.43,-200.82 239.05,-191.56"/>
<polygon fill="#63b8ff" stroke="#63b8ff" points="241.59,-189.15 232.28,-184.09 236.4,-193.85 241.59,-189.15"/>
</a>
</g>
</g>
</g>
</svg>
