<?xml version="1.0" encoding="UTF-8" standalone="no"?>
<!DOCTYPE svg PUBLIC "-//W3C//DTD SVG 1.1//EN"
 "http://www.w3.org/Graphics/SVG/1.1/DTD/svg11.dtd">
<!-- Generated by graphviz version 2.43.0 (0)
 -->
<!-- Title: CCButton&lt; NumBanks &gt; Pages: 1 -->
<svg width="497pt" height="1237pt"
 viewBox="0.00 0.00 496.50 1237.00" xmlns="http://www.w3.org/2000/svg" xmlns:xlink="http://www.w3.org/1999/xlink">
<g id="graph0" class="graph" transform="scale(1 1) rotate(0) translate(4 1233)">
<title>CCButton&lt; NumBanks &gt;</title>
<!-- Node1 -->
<g id="Node000001" class="node">
<title>Node1</title>
<g id="a_Node000001"><a xlink:title="A class of MIDIOutputElements that read the input of a momentary push button or switch,...">
<polygon fill="#999999" stroke="transparent" points="361,-49 229,-49 229,0 361,0 361,-49"/>
<text text-anchor="start" x="234" y="-36.5" font-family="Helvetica,sans-Serif" font-size="10.00">CCButton&lt; NumBanks &gt;</text>
<text text-anchor="start" x="293" y="-21.5" font-family="Helvetica,sans-Serif" font-size="10.00"> </text>
<text text-anchor="start" x="247" y="-6.5" font-family="Helvetica,sans-Serif" font-size="10.00">+</text>
<text text-anchor="start" x="274" y="-6.5" font-family="Helvetica,sans-Serif" font-size="10.00">CCButton()</text>
<polygon fill="#666666" stroke="#666666" points="229,-31.5 229,-31.5 361,-31.5 361,-31.5 229,-31.5"/>
<polygon fill="#666666" stroke="#666666" points="229,-16.5 229,-16.5 361,-16.5 361,-16.5 229,-16.5"/>
<polygon fill="none" stroke="#666666" points="229,0 229,-49 361,-49 361,0 229,0"/>
</a>
</g>
</g>
<!-- Node2 -->
<g id="Node000002" class="node">
<title>Node2</title>
<g id="a_Node000002"><a xlink:href="../../d9/df9/classBankable_1_1MIDIButton.html" target="_top" xlink:title=" ">
<polygon fill="white" stroke="transparent" points="386.5,-206 203.5,-206 203.5,-86 386.5,-86 386.5,-206"/>
<text text-anchor="start" x="209" y="-194" font-family="Helvetica,sans-Serif" font-size="10.00">MIDIButton&lt; ManyAddresses</text>
<text text-anchor="start" x="209" y="-183" font-family="Helvetica,sans-Serif" font-size="10.00">&lt; NumBanks &gt;, DigitalCCSender &gt;</text>
<text text-anchor="start" x="228" y="-168" font-family="Helvetica,sans-Serif" font-size="10.00">#</text>
<text text-anchor="start" x="261" y="-168" font-family="Helvetica,sans-Serif" font-size="10.00">address</text>
<text text-anchor="start" x="228" y="-153" font-family="Helvetica,sans-Serif" font-size="10.00">+</text>
<text text-anchor="start" x="261" y="-153" font-family="Helvetica,sans-Serif" font-size="10.00">MIDIButton()</text>
<text text-anchor="start" x="228" y="-138" font-family="Helvetica,sans-Serif" font-size="10.00">+</text>
<text text-anchor="start" x="261" y="-138" font-family="Helvetica,sans-Serif" font-size="10.00">begin()</text>
<text text-anchor="start" x="228" y="-123" font-family="Helvetica,sans-Serif" font-size="10.00">+</text>
<text text-anchor="start" x="261" y="-123" font-family="Helvetica,sans-Serif" font-size="10.00">update()</text>
<text text-anchor="start" x="228" y="-108" font-family="Helvetica,sans-Serif" font-size="10.00">+</text>
<text text-anchor="start" x="261" y="-108" font-family="Helvetica,sans-Serif" font-size="10.00">invert()</text>
<text text-anchor="start" x="228" y="-93" font-family="Helvetica,sans-Serif" font-size="10.00">+</text>
<text text-anchor="start" x="261" y="-93" font-family="Helvetica,sans-Serif" font-size="10.00">getButtonState()</text>
<polygon fill="#666666" stroke="#666666" points="204,-178 204,-178 387,-178 387,-178 204,-178"/>
<polygon fill="#666666" stroke="#666666" points="204,-163 204,-163 259,-163 259,-163 204,-163"/>
<polygon fill="#666666" stroke="#666666" points="259,-163 259,-163 387,-163 387,-163 259,-163"/>
<polygon fill="none" stroke="#666666" points="203.5,-86 203.5,-206 386.5,-206 386.5,-86 203.5,-86"/>
</a>
</g>
</g>
<!-- Node2&#45;&gt;Node1 -->
<g id="edge1_Node000001_Node000002" class="edge">
<title>Node2&#45;&gt;Node1</title>
<g id="a_edge1_Node000001_Node000002"><a xlink:title=" ">
<path fill="none" stroke="#63b8ff" d="M295,-75.89C295,-66.3 295,-57.05 295,-49.15"/>
<polygon fill="none" stroke="#63b8ff" points="291.5,-75.95 295,-85.95 298.5,-75.95 291.5,-75.95"/>
</a>
</g>
</g>
<!-- Node3 -->
<g id="Node000003" class="node">
<title>Node3</title>
<g id="a_Node000003"><a xlink:href="../../d1/d55/classAH_1_1Updatable.html" target="_top" xlink:title="A super class for object that have to be updated regularly.">
<polygon fill="white" stroke="transparent" points="210.5,-414.5 103.5,-414.5 103.5,-320.5 210.5,-320.5 210.5,-414.5"/>
<text text-anchor="start" x="109" y="-402.5" font-family="Helvetica,sans-Serif" font-size="10.00">MIDIOutputElement</text>
<text text-anchor="start" x="155.5" y="-387.5" font-family="Helvetica,sans-Serif" font-size="10.00"> </text>
<text text-anchor="start" x="116.5" y="-372.5" font-family="Helvetica,sans-Serif" font-size="10.00">*</text>
<text text-anchor="start" x="135" y="-372.5" font-family="Helvetica,sans-Serif" font-size="10.00">begin()</text>
<text text-anchor="start" x="116.5" y="-357.5" font-family="Helvetica,sans-Serif" font-size="10.00">*</text>
<text text-anchor="start" x="135" y="-357.5" font-family="Helvetica,sans-Serif" font-size="10.00">update()</text>
<text text-anchor="start" x="116.5" y="-342.5" font-family="Helvetica,sans-Serif" font-size="10.00">*</text>
<text text-anchor="start" x="135" y="-342.5" font-family="Helvetica,sans-Serif" font-size="10.00">beginAll()</text>
<text text-anchor="start" x="116.5" y="-327.5" font-family="Helvetica,sans-Serif" font-size="10.00">*</text>
<text text-anchor="start" x="135" y="-327.5" font-family="Helvetica,sans-Serif" font-size="10.00">updateAll()</text>
<polygon fill="#666666" stroke="#666666" points="104,-397.5 104,-397.5 211,-397.5 211,-397.5 104,-397.5"/>
<polygon fill="#666666" stroke="#666666" points="104,-382.5 104,-382.5 211,-382.5 211,-382.5 104,-382.5"/>
<polygon fill="none" stroke="#666666" points="103.5,-320.5 103.5,-414.5 210.5,-414.5 210.5,-320.5 103.5,-320.5"/>
</a>
</g>
</g>
<!-- Node3&#45;&gt;Node2 -->
<g id="edge2_Node000002_Node000003" class="edge">
<title>Node3&#45;&gt;Node2</title>
<g id="a_edge2_Node000002_Node000003"><a xlink:title=" ">
<path fill="none" stroke="#63b8ff" d="M186.08,-311.27C196.37,-292.52 208.3,-271.61 220,-253 229.72,-237.54 240.8,-221.25 251.4,-206.21"/>
<polygon fill="none" stroke="#63b8ff" points="182.88,-309.82 181.17,-320.28 189.03,-313.17 182.88,-309.82"/>
</a>
</g>
</g>
<!-- Node4 -->
<g id="Node000004" class="node">
<title>Node4</title>
<g id="a_Node000004"><a xlink:href="../../d8/d1a/classAH_1_1UpdatableCRTP.html" target="_top" xlink:title="A super class for object that have to be updated regularly.">
<polygon fill="white" stroke="transparent" points="230,-803 84,-803 84,-529 230,-529 230,-803"/>
<text text-anchor="start" x="89" y="-791" font-family="Helvetica,sans-Serif" font-size="10.00">UpdatableCRTP&lt; Derived &gt;</text>
<text text-anchor="start" x="155" y="-776" font-family="Helvetica,sans-Serif" font-size="10.00"> </text>
<text text-anchor="start" x="96.5" y="-761" font-family="Helvetica,sans-Serif" font-size="10.00">+</text>
<text text-anchor="start" x="118" y="-761" font-family="Helvetica,sans-Serif" font-size="10.00">~UpdatableCRTP()</text>
<text text-anchor="start" x="96.5" y="-746" font-family="Helvetica,sans-Serif" font-size="10.00">#</text>
<text text-anchor="start" x="118" y="-746" font-family="Helvetica,sans-Serif" font-size="10.00">UpdatableCRTP()</text>
<text text-anchor="start" x="96.5" y="-731" font-family="Helvetica,sans-Serif" font-size="10.00">#</text>
<text text-anchor="start" x="118" y="-731" font-family="Helvetica,sans-Serif" font-size="10.00">UpdatableCRTP()</text>
<text text-anchor="start" x="96.5" y="-716" font-family="Helvetica,sans-Serif" font-size="10.00">#</text>
<text text-anchor="start" x="118" y="-716" font-family="Helvetica,sans-Serif" font-size="10.00">operator=()</text>
<text text-anchor="start" x="96.5" y="-701" font-family="Helvetica,sans-Serif" font-size="10.00">#</text>
<text text-anchor="start" x="118" y="-701" font-family="Helvetica,sans-Serif" font-size="10.00">UpdatableCRTP()</text>
<text text-anchor="start" x="96.5" y="-686" font-family="Helvetica,sans-Serif" font-size="10.00">#</text>
<text text-anchor="start" x="118" y="-686" font-family="Helvetica,sans-Serif" font-size="10.00">operator=()</text>
<text text-anchor="start" x="98" y="-671" font-family="Helvetica,sans-Serif" font-size="10.00">*</text>
<text text-anchor="start" x="118" y="-671" font-family="Helvetica,sans-Serif" font-size="10.00">enable()</text>
<text text-anchor="start" x="98" y="-656" font-family="Helvetica,sans-Serif" font-size="10.00">*</text>
<text text-anchor="start" x="118" y="-656" font-family="Helvetica,sans-Serif" font-size="10.00">disable()</text>
<text text-anchor="start" x="98" y="-641" font-family="Helvetica,sans-Serif" font-size="10.00">*</text>
<text text-anchor="start" x="118" y="-641" font-family="Helvetica,sans-Serif" font-size="10.00">isEnabled()</text>
<text text-anchor="start" x="98" y="-626" font-family="Helvetica,sans-Serif" font-size="10.00">*</text>
<text text-anchor="start" x="118" y="-626" font-family="Helvetica,sans-Serif" font-size="10.00">moveDown()</text>
<text text-anchor="start" x="98" y="-611" font-family="Helvetica,sans-Serif" font-size="10.00">*</text>
<text text-anchor="start" x="118" y="-611" font-family="Helvetica,sans-Serif" font-size="10.00">enable()</text>
<text text-anchor="start" x="98" y="-596" font-family="Helvetica,sans-Serif" font-size="10.00">*</text>
<text text-anchor="start" x="118" y="-596" font-family="Helvetica,sans-Serif" font-size="10.00">enable()</text>
<text text-anchor="start" x="98" y="-581" font-family="Helvetica,sans-Serif" font-size="10.00">*</text>
<text text-anchor="start" x="118" y="-581" font-family="Helvetica,sans-Serif" font-size="10.00">enable()</text>
<text text-anchor="start" x="98" y="-566" font-family="Helvetica,sans-Serif" font-size="10.00">*</text>
<text text-anchor="start" x="118" y="-566" font-family="Helvetica,sans-Serif" font-size="10.00">disable()</text>
<text text-anchor="start" x="98" y="-551" font-family="Helvetica,sans-Serif" font-size="10.00">*</text>
<text text-anchor="start" x="118" y="-551" font-family="Helvetica,sans-Serif" font-size="10.00">disable()</text>
<text text-anchor="start" x="98" y="-536" font-family="Helvetica,sans-Serif" font-size="10.00">*</text>
<text text-anchor="start" x="118" y="-536" font-family="Helvetica,sans-Serif" font-size="10.00">disable()</text>
<polygon fill="#666666" stroke="#666666" points="84,-786 84,-786 230,-786 230,-786 84,-786"/>
<polygon fill="#666666" stroke="#666666" points="84,-771 84,-771 230,-771 230,-771 84,-771"/>
<polygon fill="none" stroke="#666666" points="84,-529 84,-803 230,-803 230,-529 84,-529"/>
</a>
</g>
</g>
<!-- Node4&#45;&gt;Node3 -->
<g id="edge3_Node000003_Node000004" class="edge">
<title>Node4&#45;&gt;Node3</title>
<g id="a_edge3_Node000003_Node000004"><a xlink:title=" ">
<path fill="none" stroke="#63b8ff" d="M157,-518.77C157,-480.92 157,-442.91 157,-414.58"/>
<polygon fill="none" stroke="#63b8ff" points="153.5,-518.9 157,-528.9 160.5,-518.9 153.5,-518.9"/>
</a>
</g>
</g>
<!-- Node5 -->
<g id="Node000005" class="node">
<title>Node5</title>
<g id="a_Node000005"><a xlink:href="../../d4/d23/classDoublyLinkable.html" target="_top" xlink:title=" ">
<polygon fill="white" stroke="transparent" points="146,-1109 0,-1109 0,-970 146,-970 146,-1109"/>
<text text-anchor="start" x="5" y="-1096.5" font-family="Helvetica,sans-Serif" font-size="10.00">DoublyLinkable&lt; Derived &gt;</text>
<text text-anchor="start" x="12.5" y="-1081.5" font-family="Helvetica,sans-Serif" font-size="10.00">#</text>
<text text-anchor="start" x="34" y="-1081.5" font-family="Helvetica,sans-Serif" font-size="10.00">next</text>
<text text-anchor="start" x="12.5" y="-1066.5" font-family="Helvetica,sans-Serif" font-size="10.00">#</text>
<text text-anchor="start" x="34" y="-1066.5" font-family="Helvetica,sans-Serif" font-size="10.00">previous</text>
<text text-anchor="start" x="12.5" y="-1051.5" font-family="Helvetica,sans-Serif" font-size="10.00">#</text>
<text text-anchor="start" x="34" y="-1051.5" font-family="Helvetica,sans-Serif" font-size="10.00">~DoublyLinkable()</text>
<text text-anchor="start" x="12.5" y="-1036.5" font-family="Helvetica,sans-Serif" font-size="10.00">#</text>
<text text-anchor="start" x="34" y="-1036.5" font-family="Helvetica,sans-Serif" font-size="10.00">DoublyLinkable()</text>
<text text-anchor="start" x="12.5" y="-1021.5" font-family="Helvetica,sans-Serif" font-size="10.00">#</text>
<text text-anchor="start" x="34" y="-1021.5" font-family="Helvetica,sans-Serif" font-size="10.00">DoublyLinkable()</text>
<text text-anchor="start" x="12.5" y="-1006.5" font-family="Helvetica,sans-Serif" font-size="10.00">#</text>
<text text-anchor="start" x="34" y="-1006.5" font-family="Helvetica,sans-Serif" font-size="10.00">DoublyLinkable()</text>
<text text-anchor="start" x="12.5" y="-991.5" font-family="Helvetica,sans-Serif" font-size="10.00">#</text>
<text text-anchor="start" x="34" y="-991.5" font-family="Helvetica,sans-Serif" font-size="10.00">operator=()</text>
<text text-anchor="start" x="12.5" y="-976.5" font-family="Helvetica,sans-Serif" font-size="10.00">#</text>
<text text-anchor="start" x="34" y="-976.5" font-family="Helvetica,sans-Serif" font-size="10.00">operator=()</text>
<polygon fill="#666666" stroke="#666666" points="0,-1091.5 0,-1091.5 146,-1091.5 146,-1091.5 0,-1091.5"/>
<polygon fill="#666666" stroke="#666666" points="0,-1061.5 0,-1061.5 32,-1061.5 32,-1061.5 0,-1061.5"/>
<polygon fill="#666666" stroke="#666666" points="32,-1061.5 32,-1061.5 146,-1061.5 146,-1061.5 32,-1061.5"/>
<polygon fill="none" stroke="#666666" points="0,-970 0,-1109 146,-1109 146,-970 0,-970"/>
</a>
</g>
</g>
<!-- Node5&#45;&gt;Node4 -->
<g id="edge4_Node000004_Node000005" class="edge">
<title>Node5&#45;&gt;Node4</title>
<g id="a_edge4_Node000004_Node000005"><a xlink:title=" ">
<path fill="none" stroke="#63b8ff" d="M90.72,-960.14C101,-914.66 114.24,-856.09 126.18,-803.28"/>
<polygon fill="none" stroke="#63b8ff" points="87.3,-959.4 88.5,-969.93 94.12,-960.95 87.3,-959.4"/>
</a>
</g>
</g>
<!-- Node6 -->
<g id="Node000006" class="node">
<title>Node6</title>
<g id="a_Node000006"><a xlink:href="../../dd/d16/classDoublyLinkedList.html" target="_top" xlink:title=" ">
<polygon fill="white" stroke="transparent" points="319.5,-1229 164.5,-1229 164.5,-850 319.5,-850 319.5,-1229"/>
<text text-anchor="start" x="170" y="-1216.5" font-family="Helvetica,sans-Serif" font-size="10.00">DoublyLinkedList&lt; Derived &gt;</text>
<text text-anchor="start" x="187" y="-1201.5" font-family="Helvetica,sans-Serif" font-size="10.00">&#45;</text>
<text text-anchor="start" x="213" y="-1201.5" font-family="Helvetica,sans-Serif" font-size="10.00">first</text>
<text text-anchor="start" x="187" y="-1186.5" font-family="Helvetica,sans-Serif" font-size="10.00">&#45;</text>
<text text-anchor="start" x="213" y="-1186.5" font-family="Helvetica,sans-Serif" font-size="10.00">last</text>
<text text-anchor="start" x="184.5" y="-1171.5" font-family="Helvetica,sans-Serif" font-size="10.00">+</text>
<text text-anchor="start" x="213" y="-1171.5" font-family="Helvetica,sans-Serif" font-size="10.00">append()</text>
<text text-anchor="start" x="184.5" y="-1156.5" font-family="Helvetica,sans-Serif" font-size="10.00">+</text>
<text text-anchor="start" x="213" y="-1156.5" font-family="Helvetica,sans-Serif" font-size="10.00">append()</text>
<text text-anchor="start" x="184.5" y="-1141.5" font-family="Helvetica,sans-Serif" font-size="10.00">+</text>
<text text-anchor="start" x="213" y="-1141.5" font-family="Helvetica,sans-Serif" font-size="10.00">insertBefore()</text>
<text text-anchor="start" x="184.5" y="-1126.5" font-family="Helvetica,sans-Serif" font-size="10.00">+</text>
<text text-anchor="start" x="213" y="-1126.5" font-family="Helvetica,sans-Serif" font-size="10.00">insertBefore()</text>
<text text-anchor="start" x="184.5" y="-1111.5" font-family="Helvetica,sans-Serif" font-size="10.00">+</text>
<text text-anchor="start" x="213" y="-1111.5" font-family="Helvetica,sans-Serif" font-size="10.00">insertSorted()</text>
<text text-anchor="start" x="184.5" y="-1096.5" font-family="Helvetica,sans-Serif" font-size="10.00">+</text>
<text text-anchor="start" x="213" y="-1096.5" font-family="Helvetica,sans-Serif" font-size="10.00">insertSorted()</text>
<text text-anchor="start" x="184.5" y="-1081.5" font-family="Helvetica,sans-Serif" font-size="10.00">+</text>
<text text-anchor="start" x="213" y="-1081.5" font-family="Helvetica,sans-Serif" font-size="10.00">remove()</text>
<text text-anchor="start" x="184.5" y="-1066.5" font-family="Helvetica,sans-Serif" font-size="10.00">+</text>
<text text-anchor="start" x="213" y="-1066.5" font-family="Helvetica,sans-Serif" font-size="10.00">remove()</text>
<text text-anchor="start" x="184.5" y="-1051.5" font-family="Helvetica,sans-Serif" font-size="10.00">+</text>
<text text-anchor="start" x="213" y="-1051.5" font-family="Helvetica,sans-Serif" font-size="10.00">moveDown()</text>
<text text-anchor="start" x="184.5" y="-1036.5" font-family="Helvetica,sans-Serif" font-size="10.00">+</text>
<text text-anchor="start" x="213" y="-1036.5" font-family="Helvetica,sans-Serif" font-size="10.00">moveDown()</text>
<text text-anchor="start" x="184.5" y="-1021.5" font-family="Helvetica,sans-Serif" font-size="10.00">+</text>
<text text-anchor="start" x="213" y="-1021.5" font-family="Helvetica,sans-Serif" font-size="10.00">couldContain()</text>
<text text-anchor="start" x="184.5" y="-1006.5" font-family="Helvetica,sans-Serif" font-size="10.00">+</text>
<text text-anchor="start" x="213" y="-1006.5" font-family="Helvetica,sans-Serif" font-size="10.00">couldContain()</text>
<text text-anchor="start" x="184.5" y="-991.5" font-family="Helvetica,sans-Serif" font-size="10.00">+</text>
<text text-anchor="start" x="213" y="-991.5" font-family="Helvetica,sans-Serif" font-size="10.00">begin()</text>
<text text-anchor="start" x="184.5" y="-976.5" font-family="Helvetica,sans-Serif" font-size="10.00">+</text>
<text text-anchor="start" x="213" y="-976.5" font-family="Helvetica,sans-Serif" font-size="10.00">begin()</text>
<text text-anchor="start" x="184.5" y="-961.5" font-family="Helvetica,sans-Serif" font-size="10.00">+</text>
<text text-anchor="start" x="213" y="-961.5" font-family="Helvetica,sans-Serif" font-size="10.00">end()</text>
<text text-anchor="start" x="184.5" y="-946.5" font-family="Helvetica,sans-Serif" font-size="10.00">+</text>
<text text-anchor="start" x="213" y="-946.5" font-family="Helvetica,sans-Serif" font-size="10.00">end()</text>
<text text-anchor="start" x="184.5" y="-931.5" font-family="Helvetica,sans-Serif" font-size="10.00">+</text>
<text text-anchor="start" x="213" y="-931.5" font-family="Helvetica,sans-Serif" font-size="10.00">rbegin()</text>
<text text-anchor="start" x="184.5" y="-916.5" font-family="Helvetica,sans-Serif" font-size="10.00">+</text>
<text text-anchor="start" x="213" y="-916.5" font-family="Helvetica,sans-Serif" font-size="10.00">rbegin()</text>
<text text-anchor="start" x="184.5" y="-901.5" font-family="Helvetica,sans-Serif" font-size="10.00">+</text>
<text text-anchor="start" x="213" y="-901.5" font-family="Helvetica,sans-Serif" font-size="10.00">rend()</text>
<text text-anchor="start" x="184.5" y="-886.5" font-family="Helvetica,sans-Serif" font-size="10.00">+</text>
<text text-anchor="start" x="213" y="-886.5" font-family="Helvetica,sans-Serif" font-size="10.00">rend()</text>
<text text-anchor="start" x="184.5" y="-871.5" font-family="Helvetica,sans-Serif" font-size="10.00">+</text>
<text text-anchor="start" x="213" y="-871.5" font-family="Helvetica,sans-Serif" font-size="10.00">getFirst()</text>
<text text-anchor="start" x="184.5" y="-856.5" font-family="Helvetica,sans-Serif" font-size="10.00">+</text>
<text text-anchor="start" x="213" y="-856.5" font-family="Helvetica,sans-Serif" font-size="10.00">getLast()</text>
<polygon fill="#666666" stroke="#666666" points="165,-1211.5 165,-1211.5 320,-1211.5 320,-1211.5 165,-1211.5"/>
<polygon fill="#666666" stroke="#666666" points="165,-1181.5 165,-1181.5 211,-1181.5 211,-1181.5 165,-1181.5"/>
<polygon fill="#666666" stroke="#666666" points="211,-1181.5 211,-1181.5 320,-1181.5 320,-1181.5 211,-1181.5"/>
<polygon fill="none" stroke="#666666" points="164.5,-850 164.5,-1229 319.5,-1229 319.5,-850 164.5,-850"/>
</a>
</g>
</g>
<!-- Node6&#45;&gt;Node4 -->
<g id="edge5_Node000004_Node000006" class="edge">
<title>Node6&#45;&gt;Node4</title>
<g id="a_edge5_Node000004_Node000006"><a xlink:title=" ">
<path fill="none" stroke="#63b8ff" d="M198.82,-849.76C196.15,-838.1 193.49,-826.47 190.87,-815.03"/>
<polygon fill="none" stroke="#63b8ff" points="190.84,-814.89 185.6,-809.93 188.16,-803.19 193.4,-808.15 190.84,-814.89"/>
</a>
</g>
<text text-anchor="middle" x="228" y="-824" font-family="Helvetica,sans-Serif" font-size="10.00" fill="grey"> #updatables</text>
</g>
<!-- Node7 -->
<g id="Node000007" class="node">
<title>Node7</title>
<g id="a_Node000007"><a xlink:href="../../de/d0d/classAH_1_1Button.html" target="_top" xlink:title="A class for reading and debouncing buttons and switches.">
<polygon fill="white" stroke="transparent" points="361,-482 229,-482 229,-253 361,-253 361,-482"/>
<text text-anchor="start" x="278.5" y="-469.5" font-family="Helvetica,sans-Serif" font-size="10.00">Button</text>
<text text-anchor="start" x="235.5" y="-454.5" font-family="Helvetica,sans-Serif" font-size="10.00">&#45;</text>
<text text-anchor="start" x="246" y="-454.5" font-family="Helvetica,sans-Serif" font-size="10.00">debounceTime</text>
<text text-anchor="start" x="233" y="-439.5" font-family="Helvetica,sans-Serif" font-size="10.00">+</text>
<text text-anchor="start" x="246" y="-439.5" font-family="Helvetica,sans-Serif" font-size="10.00">Button()</text>
<text text-anchor="start" x="233" y="-424.5" font-family="Helvetica,sans-Serif" font-size="10.00">+</text>
<text text-anchor="start" x="246" y="-424.5" font-family="Helvetica,sans-Serif" font-size="10.00">Button()</text>
<text text-anchor="start" x="233" y="-409.5" font-family="Helvetica,sans-Serif" font-size="10.00">+</text>
<text text-anchor="start" x="246" y="-409.5" font-family="Helvetica,sans-Serif" font-size="10.00">Button()</text>
<text text-anchor="start" x="233" y="-394.5" font-family="Helvetica,sans-Serif" font-size="10.00">+</text>
<text text-anchor="start" x="246" y="-394.5" font-family="Helvetica,sans-Serif" font-size="10.00">begin()</text>
<text text-anchor="start" x="233" y="-379.5" font-family="Helvetica,sans-Serif" font-size="10.00">+</text>
<text text-anchor="start" x="246" y="-379.5" font-family="Helvetica,sans-Serif" font-size="10.00">invert()</text>
<text text-anchor="start" x="233" y="-364.5" font-family="Helvetica,sans-Serif" font-size="10.00">+</text>
<text text-anchor="start" x="246" y="-364.5" font-family="Helvetica,sans-Serif" font-size="10.00">update()</text>
<text text-anchor="start" x="233" y="-349.5" font-family="Helvetica,sans-Serif" font-size="10.00">+</text>
<text text-anchor="start" x="246" y="-349.5" font-family="Helvetica,sans-Serif" font-size="10.00">getState()</text>
<text text-anchor="start" x="233" y="-334.5" font-family="Helvetica,sans-Serif" font-size="10.00">+</text>
<text text-anchor="start" x="246" y="-334.5" font-family="Helvetica,sans-Serif" font-size="10.00">previousBounceTime()</text>
<text text-anchor="start" x="233" y="-319.5" font-family="Helvetica,sans-Serif" font-size="10.00">+</text>
<text text-anchor="start" x="246" y="-319.5" font-family="Helvetica,sans-Serif" font-size="10.00">stableTime()</text>
<text text-anchor="start" x="233" y="-304.5" font-family="Helvetica,sans-Serif" font-size="10.00">+</text>
<text text-anchor="start" x="246" y="-304.5" font-family="Helvetica,sans-Serif" font-size="10.00">stableTime()</text>
<text text-anchor="start" x="233" y="-289.5" font-family="Helvetica,sans-Serif" font-size="10.00">+</text>
<text text-anchor="start" x="246" y="-289.5" font-family="Helvetica,sans-Serif" font-size="10.00">getName()</text>
<text text-anchor="start" x="233" y="-274.5" font-family="Helvetica,sans-Serif" font-size="10.00">+</text>
<text text-anchor="start" x="246" y="-274.5" font-family="Helvetica,sans-Serif" font-size="10.00">setDebounceTime()</text>
<text text-anchor="start" x="233" y="-259.5" font-family="Helvetica,sans-Serif" font-size="10.00">+</text>
<text text-anchor="start" x="246" y="-259.5" font-family="Helvetica,sans-Serif" font-size="10.00">getDebounceTime()</text>
<polygon fill="#666666" stroke="#666666" points="229,-464.5 229,-464.5 361,-464.5 361,-464.5 229,-464.5"/>
<polygon fill="#666666" stroke="#666666" points="229,-449.5 229,-449.5 244,-449.5 244,-449.5 229,-449.5"/>
<polygon fill="#666666" stroke="#666666" points="244,-449.5 244,-449.5 361,-449.5 361,-449.5 244,-449.5"/>
<polygon fill="none" stroke="#666666" points="229,-253 229,-482 361,-482 361,-253 229,-253"/>
</a>
</g>
</g>
<!-- Node7&#45;&gt;Node2 -->
<g id="edge6_Node000002_Node000007" class="edge">
<title>Node7&#45;&gt;Node2</title>
<g id="a_edge6_Node000002_Node000007"><a xlink:title=" ">
<path fill="none" stroke="#63b8ff" d="M295,-252.89C295,-241.11 295,-229.39 295,-218.27"/>
<polygon fill="none" stroke="#63b8ff" points="295,-218 291,-212 295,-206 299,-212 295,-218"/>
</a>
</g>
<text text-anchor="middle" x="316.5" y="-227" font-family="Helvetica,sans-Serif" font-size="10.00" fill="grey"> #button</text>
</g>
<!-- Node8 -->
<g id="Node000008" class="node">
<title>Node8</title>
<g id="a_Node000008"><a xlink:href="../../d7/de2/structAH_1_1ExtIO_1_1pin__t.html" target="_top" xlink:title="Type for storing pin numbers of Extended Input/Output elements.">
<polygon fill="white" stroke="transparent" points="336.5,-743 249.5,-743 249.5,-589 336.5,-589 336.5,-743"/>
<text text-anchor="start" x="281" y="-731" font-family="Helvetica,sans-Serif" font-size="10.00">pin_t</text>
<text text-anchor="start" x="254" y="-716" font-family="Helvetica,sans-Serif" font-size="10.00">+</text>
<text text-anchor="start" x="267" y="-716" font-family="Helvetica,sans-Serif" font-size="10.00">pin</text>
<text text-anchor="start" x="254" y="-701" font-family="Helvetica,sans-Serif" font-size="10.00">+</text>
<text text-anchor="start" x="267" y="-701" font-family="Helvetica,sans-Serif" font-size="10.00">pin_t()</text>
<text text-anchor="start" x="254" y="-686" font-family="Helvetica,sans-Serif" font-size="10.00">+</text>
<text text-anchor="start" x="267" y="-686" font-family="Helvetica,sans-Serif" font-size="10.00">pin_t()</text>
<text text-anchor="start" x="254" y="-671" font-family="Helvetica,sans-Serif" font-size="10.00">+</text>
<text text-anchor="start" x="267" y="-671" font-family="Helvetica,sans-Serif" font-size="10.00">operator+=()</text>
<text text-anchor="start" x="254" y="-656" font-family="Helvetica,sans-Serif" font-size="10.00">+</text>
<text text-anchor="start" x="267" y="-656" font-family="Helvetica,sans-Serif" font-size="10.00">operator++()</text>
<text text-anchor="start" x="254" y="-641" font-family="Helvetica,sans-Serif" font-size="10.00">+</text>
<text text-anchor="start" x="267" y="-641" font-family="Helvetica,sans-Serif" font-size="10.00">operator++()</text>
<text text-anchor="start" x="254" y="-626" font-family="Helvetica,sans-Serif" font-size="10.00">+</text>
<text text-anchor="start" x="267" y="-626" font-family="Helvetica,sans-Serif" font-size="10.00">operator&#45;=()</text>
<text text-anchor="start" x="254" y="-611" font-family="Helvetica,sans-Serif" font-size="10.00">+</text>
<text text-anchor="start" x="267" y="-611" font-family="Helvetica,sans-Serif" font-size="10.00">operator&#45;&#45;()</text>
<text text-anchor="start" x="254" y="-596" font-family="Helvetica,sans-Serif" font-size="10.00">+</text>
<text text-anchor="start" x="267" y="-596" font-family="Helvetica,sans-Serif" font-size="10.00">operator&#45;&#45;()</text>
<polygon fill="#666666" stroke="#666666" points="250,-726 250,-726 337,-726 337,-726 250,-726"/>
<polygon fill="#666666" stroke="#666666" points="250,-711 250,-711 265,-711 265,-711 250,-711"/>
<polygon fill="#666666" stroke="#666666" points="265,-711 265,-711 337,-711 337,-711 265,-711"/>
<polygon fill="none" stroke="#666666" points="249.5,-589 249.5,-743 336.5,-743 336.5,-589 249.5,-589"/>
</a>
</g>
</g>
<!-- Node8&#45;&gt;Node7 -->
<g id="edge7_Node000007_Node000008" class="edge">
<title>Node8&#45;&gt;Node7</title>
<g id="a_edge7_Node000007_Node000008"><a xlink:title=" ">
<path fill="none" stroke="#63b8ff" d="M293.52,-588.64C293.71,-559.89 293.94,-526.37 294.15,-494.29"/>
<polygon fill="none" stroke="#63b8ff" points="294.15,-494.08 290.19,-488.05 294.23,-482.08 298.19,-488.11 294.15,-494.08"/>
</a>
</g>
<text text-anchor="middle" x="306" y="-503" font-family="Helvetica,sans-Serif" font-size="10.00" fill="grey"> &#45;pin</text>
</g>
<!-- Node9 -->
<g id="Node000009" class="node">
<title>Node9</title>
<g id="a_Node000009"><a xlink:href="../../dc/db4/structAH_1_1Button_1_1InternalState.html" target="_top" xlink:title=" ">
<polygon fill="white" stroke="transparent" points="459,-720.5 355,-720.5 355,-611.5 459,-611.5 459,-720.5"/>
<text text-anchor="start" x="375" y="-708" font-family="Helvetica,sans-Serif" font-size="10.00">InternalState</text>
<text text-anchor="start" x="359" y="-693" font-family="Helvetica,sans-Serif" font-size="10.00">+</text>
<text text-anchor="start" x="372" y="-693" font-family="Helvetica,sans-Serif" font-size="10.00">debounced</text>
<text text-anchor="start" x="359" y="-678" font-family="Helvetica,sans-Serif" font-size="10.00">+</text>
<text text-anchor="start" x="372" y="-678" font-family="Helvetica,sans-Serif" font-size="10.00">bouncing</text>
<text text-anchor="start" x="359" y="-663" font-family="Helvetica,sans-Serif" font-size="10.00">+</text>
<text text-anchor="start" x="372" y="-663" font-family="Helvetica,sans-Serif" font-size="10.00">prevInput</text>
<text text-anchor="start" x="359" y="-648" font-family="Helvetica,sans-Serif" font-size="10.00">+</text>
<text text-anchor="start" x="372" y="-648" font-family="Helvetica,sans-Serif" font-size="10.00">invert</text>
<text text-anchor="start" x="359" y="-633" font-family="Helvetica,sans-Serif" font-size="10.00">+</text>
<text text-anchor="start" x="372" y="-633" font-family="Helvetica,sans-Serif" font-size="10.00">prevBounceTime</text>
<text text-anchor="start" x="359" y="-618" font-family="Helvetica,sans-Serif" font-size="10.00">+</text>
<text text-anchor="start" x="372" y="-618" font-family="Helvetica,sans-Serif" font-size="10.00">InternalState()</text>
<polygon fill="#666666" stroke="#666666" points="355,-703 355,-703 459,-703 459,-703 355,-703"/>
<polygon fill="#666666" stroke="#666666" points="355,-628 355,-628 370,-628 370,-628 355,-628"/>
<polygon fill="#666666" stroke="#666666" points="370,-628 370,-628 459,-628 459,-628 370,-628"/>
<polygon fill="none" stroke="#666666" points="355,-611.5 355,-720.5 459,-720.5 459,-611.5 355,-611.5"/>
</a>
</g>
</g>
<!-- Node9&#45;&gt;Node7 -->
<g id="edge8_Node000007_Node000009" class="edge">
<title>Node9&#45;&gt;Node7</title>
<g id="a_edge8_Node000007_Node000009"><a xlink:title=" ">
<path fill="none" stroke="#63b8ff" d="M386.72,-611.31C374.27,-578.36 357.79,-534.73 342.24,-493.55"/>
<polygon fill="none" stroke="#63b8ff" points="342.22,-493.52 336.36,-489.32 337.98,-482.29 343.85,-486.49 342.22,-493.52"/>
</a>
</g>
<text text-anchor="middle" x="363" y="-503" font-family="Helvetica,sans-Serif" font-size="10.00" fill="grey"> &#45;state</text>
</g>
<!-- Node10 -->
<g id="Node000010" class="node">
<title>Node10</title>
<g id="a_Node000010"><a xlink:href="../../d5/db5/classDigitalCCSender.html" target="_top" xlink:title="Class that sends MIDI control change messages signifying either &quot;on&quot; or &quot;off&quot;.">
<polygon fill="white" stroke="transparent" points="488.5,-444.5 379.5,-444.5 379.5,-290.5 488.5,-290.5 488.5,-444.5"/>
<text text-anchor="start" x="394.5" y="-432.5" font-family="Helvetica,sans-Serif" font-size="10.00">DigitalCCSender</text>
<text text-anchor="start" x="386.5" y="-417.5" font-family="Helvetica,sans-Serif" font-size="10.00">&#45;</text>
<text text-anchor="start" x="397" y="-417.5" font-family="Helvetica,sans-Serif" font-size="10.00">onValue</text>
<text text-anchor="start" x="386.5" y="-402.5" font-family="Helvetica,sans-Serif" font-size="10.00">&#45;</text>
<text text-anchor="start" x="397" y="-402.5" font-family="Helvetica,sans-Serif" font-size="10.00">offValue</text>
<text text-anchor="start" x="384" y="-387.5" font-family="Helvetica,sans-Serif" font-size="10.00">+</text>
<text text-anchor="start" x="397" y="-387.5" font-family="Helvetica,sans-Serif" font-size="10.00">DigitalCCSender()</text>
<text text-anchor="start" x="384" y="-372.5" font-family="Helvetica,sans-Serif" font-size="10.00">+</text>
<text text-anchor="start" x="397" y="-372.5" font-family="Helvetica,sans-Serif" font-size="10.00">sendOn()</text>
<text text-anchor="start" x="384" y="-357.5" font-family="Helvetica,sans-Serif" font-size="10.00">+</text>
<text text-anchor="start" x="397" y="-357.5" font-family="Helvetica,sans-Serif" font-size="10.00">sendOff()</text>
<text text-anchor="start" x="384" y="-342.5" font-family="Helvetica,sans-Serif" font-size="10.00">+</text>
<text text-anchor="start" x="397" y="-342.5" font-family="Helvetica,sans-Serif" font-size="10.00">getOnValue()</text>
<text text-anchor="start" x="384" y="-327.5" font-family="Helvetica,sans-Serif" font-size="10.00">+</text>
<text text-anchor="start" x="397" y="-327.5" font-family="Helvetica,sans-Serif" font-size="10.00">setOnValue()</text>
<text text-anchor="start" x="384" y="-312.5" font-family="Helvetica,sans-Serif" font-size="10.00">+</text>
<text text-anchor="start" x="397" y="-312.5" font-family="Helvetica,sans-Serif" font-size="10.00">getOffValue()</text>
<text text-anchor="start" x="384" y="-297.5" font-family="Helvetica,sans-Serif" font-size="10.00">+</text>
<text text-anchor="start" x="397" y="-297.5" font-family="Helvetica,sans-Serif" font-size="10.00">setOffValue()</text>
<polygon fill="#666666" stroke="#666666" points="380,-427.5 380,-427.5 489,-427.5 489,-427.5 380,-427.5"/>
<polygon fill="#666666" stroke="#666666" points="380,-397.5 380,-397.5 395,-397.5 395,-397.5 380,-397.5"/>
<polygon fill="#666666" stroke="#666666" points="395,-397.5 395,-397.5 489,-397.5 489,-397.5 395,-397.5"/>
<polygon fill="none" stroke="#666666" points="379.5,-290.5 379.5,-444.5 488.5,-444.5 488.5,-290.5 379.5,-290.5"/>
</a>
</g>
</g>
<!-- Node10&#45;&gt;Node2 -->
<g id="edge9_Node000002_Node000010" class="edge">
<title>Node10&#45;&gt;Node2</title>
<g id="a_edge9_Node000002_Node000010"><a xlink:title=" ">
<path fill="none" stroke="#63b8ff" d="M392.55,-290.46C385.25,-277.82 377.57,-264.94 370,-253 362.37,-240.95 353.92,-228.38 345.54,-216.28"/>
<polygon fill="none" stroke="#63b8ff" points="345.4,-216.09 338.69,-213.46 338.53,-206.25 345.24,-208.88 345.4,-216.09"/>
</a>
</g>
<text text-anchor="middle" x="378.5" y="-227" font-family="Helvetica,sans-Serif" font-size="10.00" fill="grey"> +sender</text>
</g>
</g>
</svg>
