<?xml version="1.0" encoding="UTF-8" standalone="no"?>
<!DOCTYPE svg PUBLIC "-//W3C//DTD SVG 1.1//EN"
 "http://www.w3.org/Graphics/SVG/1.1/DTD/svg11.dtd">
<!-- Generated by graphviz version 2.43.0 (0)
 -->
<!-- Title: GenericMIDIRotaryEncoder&lt; Enc, Sender &gt; Pages: 1 -->
<svg width="346pt" height="849pt"
 viewBox="0.00 0.00 346.00 849.00" xmlns="http://www.w3.org/2000/svg" xmlns:xlink="http://www.w3.org/1999/xlink">
<g id="graph0" class="graph" transform="scale(1 1) rotate(0) translate(4 845)">
<title>GenericMIDIRotaryEncoder&lt; Enc, Sender &gt;</title>
<polygon fill="white" stroke="transparent" points="-4,4 -4,-845 342,-845 342,4 -4,4"/>
<!-- Node1 -->
<g id="node1" class="node">
<title>Node1</title>
<g id="a_node1"><a xlink:title="An abstract class for rotary encoders that send MIDI events.">
<polygon fill="#bfbfbf" stroke="black" points="89,-105.5 89,-272.5 256,-272.5 256,-105.5 89,-105.5"/>
<text text-anchor="start" x="97" y="-260.5" font-family="Helvetica,sans-Serif" font-size="10.00">GenericMIDIRotaryEncoder</text>
<text text-anchor="middle" x="172.5" y="-249.5" font-family="Helvetica,sans-Serif" font-size="10.00">&lt; Enc, Sender &gt;</text>
<polyline fill="none" stroke="black" points="89,-242.5 256,-242.5 "/>
<text text-anchor="start" x="97" y="-230.5" font-family="Helvetica,sans-Serif" font-size="10.00">+ sender</text>
<text text-anchor="start" x="97" y="-219.5" font-family="Helvetica,sans-Serif" font-size="10.00">&#45; encoder</text>
<text text-anchor="start" x="97" y="-208.5" font-family="Helvetica,sans-Serif" font-size="10.00">&#45; address</text>
<text text-anchor="start" x="97" y="-197.5" font-family="Helvetica,sans-Serif" font-size="10.00">&#45; encstate</text>
<polyline fill="none" stroke="black" points="89,-190.5 256,-190.5 "/>
<text text-anchor="start" x="97" y="-178.5" font-family="Helvetica,sans-Serif" font-size="10.00">+ GenericMIDIRotaryEncoder()</text>
<text text-anchor="start" x="97" y="-167.5" font-family="Helvetica,sans-Serif" font-size="10.00">+ begin()</text>
<text text-anchor="start" x="97" y="-156.5" font-family="Helvetica,sans-Serif" font-size="10.00">+ update()</text>
<text text-anchor="start" x="97" y="-145.5" font-family="Helvetica,sans-Serif" font-size="10.00">+ setSpeedMultiply()</text>
<text text-anchor="start" x="97" y="-134.5" font-family="Helvetica,sans-Serif" font-size="10.00">+ getSpeedMultiply()</text>
<text text-anchor="start" x="97" y="-123.5" font-family="Helvetica,sans-Serif" font-size="10.00">+ getAddress()</text>
<text text-anchor="start" x="97" y="-112.5" font-family="Helvetica,sans-Serif" font-size="10.00">+ setAddress()</text>
</a>
</g>
</g>
<!-- Node5 -->
<g id="node5" class="node">
<title>Node5</title>
<g id="a_node5"><a xlink:href="../../d5/d7d/classBorrowedCCRotaryEncoder.html" target="_top" xlink:title="A class of MIDIOutputElements that read the input of a quadrature (rotary) encoder and send out relat...">
<polygon fill="white" stroke="black" points="0,-0.5 0,-68.5 167,-68.5 167,-0.5 0,-0.5"/>
<text text-anchor="start" x="8" y="-56.5" font-family="Helvetica,sans-Serif" font-size="10.00">BorrowedCCRotaryEncoder</text>
<text text-anchor="middle" x="83.5" y="-45.5" font-family="Helvetica,sans-Serif" font-size="10.00">&lt; RelativeCCSender &gt;</text>
<polyline fill="none" stroke="black" points="0,-38.5 167,-38.5 "/>
<text text-anchor="middle" x="83.5" y="-26.5" font-family="Helvetica,sans-Serif" font-size="10.00"> </text>
<polyline fill="none" stroke="black" points="0,-19.5 167,-19.5 "/>
<text text-anchor="start" x="8" y="-7.5" font-family="Helvetica,sans-Serif" font-size="10.00">+ BorrowedCCRotaryEncoder()</text>
</a>
</g>
</g>
<!-- Node1&#45;&gt;Node5 -->
<g id="edge4" class="edge">
<title>Node1&#45;&gt;Node5</title>
<path fill="none" stroke="midnightblue" d="M119.03,-96.38C113.31,-86.58 107.8,-77.14 102.9,-68.74"/>
<polygon fill="none" stroke="midnightblue" points="116.03,-98.18 124.09,-105.06 122.08,-94.66 116.03,-98.18"/>
</g>
<!-- Node6 -->
<g id="node6" class="node">
<title>Node6</title>
<g id="a_node6"><a xlink:href="../../d3/d62/classCCRotaryEncoder.html" target="_top" xlink:title="A class of MIDIOutputElements that read the input of a quadrature (rotary) encoder and send out relat...">
<polygon fill="white" stroke="black" points="185,-0.5 185,-68.5 338,-68.5 338,-0.5 185,-0.5"/>
<text text-anchor="start" x="193" y="-56.5" font-family="Helvetica,sans-Serif" font-size="10.00">CCRotaryEncoder&lt; Relative</text>
<text text-anchor="middle" x="261.5" y="-45.5" font-family="Helvetica,sans-Serif" font-size="10.00">CCSender &gt;</text>
<polyline fill="none" stroke="black" points="185,-38.5 338,-38.5 "/>
<text text-anchor="middle" x="261.5" y="-26.5" font-family="Helvetica,sans-Serif" font-size="10.00"> </text>
<polyline fill="none" stroke="black" points="185,-19.5 338,-19.5 "/>
<text text-anchor="start" x="193" y="-7.5" font-family="Helvetica,sans-Serif" font-size="10.00">+ CCRotaryEncoder()</text>
</a>
</g>
</g>
<!-- Node1&#45;&gt;Node6 -->
<g id="edge5" class="edge">
<title>Node1&#45;&gt;Node6</title>
<path fill="none" stroke="midnightblue" d="M225.97,-96.38C231.69,-86.58 237.2,-77.14 242.1,-68.74"/>
<polygon fill="none" stroke="midnightblue" points="222.92,-94.66 220.91,-105.06 228.97,-98.18 222.92,-94.66"/>
</g>
<!-- Node2 -->
<g id="node2" class="node">
<title>Node2</title>
<g id="a_node2"><a xlink:href="../../d1/d55/classAH_1_1Updatable.html" target="_top" xlink:title="A super class for object that have to be updated regularly.">
<polygon fill="white" stroke="black" points="116,-309.5 116,-399.5 229,-399.5 229,-309.5 116,-309.5"/>
<text text-anchor="middle" x="172.5" y="-387.5" font-family="Helvetica,sans-Serif" font-size="10.00">MIDIOutputElement</text>
<polyline fill="none" stroke="black" points="116,-380.5 229,-380.5 "/>
<text text-anchor="middle" x="172.5" y="-368.5" font-family="Helvetica,sans-Serif" font-size="10.00"> </text>
<polyline fill="none" stroke="black" points="116,-361.5 229,-361.5 "/>
<text text-anchor="start" x="124" y="-349.5" font-family="Helvetica,sans-Serif" font-size="10.00">* begin()</text>
<text text-anchor="start" x="124" y="-338.5" font-family="Helvetica,sans-Serif" font-size="10.00">* update()</text>
<text text-anchor="start" x="124" y="-327.5" font-family="Helvetica,sans-Serif" font-size="10.00">* beginAll()</text>
<text text-anchor="start" x="124" y="-316.5" font-family="Helvetica,sans-Serif" font-size="10.00">* updateAll()</text>
</a>
</g>
</g>
<!-- Node2&#45;&gt;Node1 -->
<g id="edge1" class="edge">
<title>Node2&#45;&gt;Node1</title>
<path fill="none" stroke="midnightblue" d="M172.5,-299.13C172.5,-290.63 172.5,-281.68 172.5,-272.72"/>
<polygon fill="none" stroke="midnightblue" points="169,-299.25 172.5,-309.25 176,-299.25 169,-299.25"/>
</g>
<!-- Node3 -->
<g id="node3" class="node">
<title>Node3</title>
<g id="a_node3"><a xlink:href="../../d8/d1a/classAH_1_1UpdatableCRTP.html" target="_top" xlink:title=" ">
<polygon fill="white" stroke="black" points="96,-436.5 96,-669.5 249,-669.5 249,-436.5 96,-436.5"/>
<text text-anchor="start" x="104" y="-657.5" font-family="Helvetica,sans-Serif" font-size="10.00">UpdatableCRTP&lt; Updatable</text>
<text text-anchor="middle" x="172.5" y="-646.5" font-family="Helvetica,sans-Serif" font-size="10.00">&lt; NormalUpdatable &gt; &gt;</text>
<polyline fill="none" stroke="black" points="96,-639.5 249,-639.5 "/>
<text text-anchor="start" x="104" y="-627.5" font-family="Helvetica,sans-Serif" font-size="10.00"># updatables</text>
<polyline fill="none" stroke="black" points="96,-620.5 249,-620.5 "/>
<text text-anchor="start" x="104" y="-608.5" font-family="Helvetica,sans-Serif" font-size="10.00">+ ~UpdatableCRTP()</text>
<text text-anchor="start" x="104" y="-597.5" font-family="Helvetica,sans-Serif" font-size="10.00"># UpdatableCRTP()</text>
<text text-anchor="start" x="104" y="-586.5" font-family="Helvetica,sans-Serif" font-size="10.00"># UpdatableCRTP()</text>
<text text-anchor="start" x="104" y="-575.5" font-family="Helvetica,sans-Serif" font-size="10.00"># UpdatableCRTP()</text>
<text text-anchor="start" x="104" y="-564.5" font-family="Helvetica,sans-Serif" font-size="10.00"># operator=()</text>
<text text-anchor="start" x="104" y="-553.5" font-family="Helvetica,sans-Serif" font-size="10.00"># operator=()</text>
<text text-anchor="start" x="104" y="-542.5" font-family="Helvetica,sans-Serif" font-size="10.00">* enable()</text>
<text text-anchor="start" x="104" y="-531.5" font-family="Helvetica,sans-Serif" font-size="10.00">* disable()</text>
<text text-anchor="start" x="104" y="-520.5" font-family="Helvetica,sans-Serif" font-size="10.00">* isEnabled()</text>
<text text-anchor="start" x="104" y="-509.5" font-family="Helvetica,sans-Serif" font-size="10.00">* moveDown()</text>
<text text-anchor="start" x="104" y="-498.5" font-family="Helvetica,sans-Serif" font-size="10.00">* enable()</text>
<text text-anchor="start" x="104" y="-487.5" font-family="Helvetica,sans-Serif" font-size="10.00">* enable()</text>
<text text-anchor="start" x="104" y="-476.5" font-family="Helvetica,sans-Serif" font-size="10.00">* enable()</text>
<text text-anchor="start" x="104" y="-465.5" font-family="Helvetica,sans-Serif" font-size="10.00">* disable()</text>
<text text-anchor="start" x="104" y="-454.5" font-family="Helvetica,sans-Serif" font-size="10.00">* disable()</text>
<text text-anchor="start" x="104" y="-443.5" font-family="Helvetica,sans-Serif" font-size="10.00">* disable()</text>
</a>
</g>
</g>
<!-- Node3&#45;&gt;Node2 -->
<g id="edge2" class="edge">
<title>Node3&#45;&gt;Node2</title>
<path fill="none" stroke="midnightblue" d="M172.5,-426.15C172.5,-416.94 172.5,-408.08 172.5,-399.93"/>
<polygon fill="none" stroke="midnightblue" points="169,-426.27 172.5,-436.27 176,-426.27 169,-426.27"/>
</g>
<!-- Node4 -->
<g id="node4" class="node">
<title>Node4</title>
<g id="a_node4"><a xlink:href="../../d4/d23/classDoublyLinkable.html" target="_top" xlink:title=" ">
<polygon fill="white" stroke="black" points="96,-706.5 96,-840.5 249,-840.5 249,-706.5 96,-706.5"/>
<text text-anchor="start" x="104" y="-828.5" font-family="Helvetica,sans-Serif" font-size="10.00">DoublyLinkable&lt; Updatable</text>
<text text-anchor="middle" x="172.5" y="-817.5" font-family="Helvetica,sans-Serif" font-size="10.00">&lt; NormalUpdatable &gt; &gt;</text>
<polyline fill="none" stroke="black" points="96,-810.5 249,-810.5 "/>
<text text-anchor="start" x="104" y="-798.5" font-family="Helvetica,sans-Serif" font-size="10.00"># next</text>
<text text-anchor="start" x="104" y="-787.5" font-family="Helvetica,sans-Serif" font-size="10.00"># previous</text>
<polyline fill="none" stroke="black" points="96,-780.5 249,-780.5 "/>
<text text-anchor="start" x="104" y="-768.5" font-family="Helvetica,sans-Serif" font-size="10.00"># ~DoublyLinkable()</text>
<text text-anchor="start" x="104" y="-757.5" font-family="Helvetica,sans-Serif" font-size="10.00"># DoublyLinkable()</text>
<text text-anchor="start" x="104" y="-746.5" font-family="Helvetica,sans-Serif" font-size="10.00"># DoublyLinkable()</text>
<text text-anchor="start" x="104" y="-735.5" font-family="Helvetica,sans-Serif" font-size="10.00"># DoublyLinkable()</text>
<text text-anchor="start" x="104" y="-724.5" font-family="Helvetica,sans-Serif" font-size="10.00"># operator=()</text>
<text text-anchor="start" x="104" y="-713.5" font-family="Helvetica,sans-Serif" font-size="10.00"># operator=()</text>
</a>
</g>
</g>
<!-- Node4&#45;&gt;Node3 -->
<g id="edge3" class="edge">
<title>Node4&#45;&gt;Node3</title>
<path fill="none" stroke="midnightblue" d="M172.5,-696.32C172.5,-687.65 172.5,-678.67 172.5,-669.63"/>
<polygon fill="none" stroke="midnightblue" points="169,-696.35 172.5,-706.35 176,-696.35 169,-696.35"/>
</g>
</g>
</svg>
