<?xml version="1.0" encoding="UTF-8" standalone="no"?>
<!DOCTYPE svg PUBLIC "-//W3C//DTD SVG 1.1//EN"
 "http://www.w3.org/Graphics/SVG/1.1/DTD/svg11.dtd">
<!-- Generated by graphviz version 2.43.0 (0)
 -->
<!-- Title: PBAbsoluteEncoder Pages: 1 -->
<svg width="785pt" height="1032pt"
 viewBox="0.00 0.00 784.50 1032.00" xmlns="http://www.w3.org/2000/svg" xmlns:xlink="http://www.w3.org/1999/xlink">
<g id="graph0" class="graph" transform="scale(1 1) rotate(0) translate(4 1028)">
<title>PBAbsoluteEncoder</title>
<polygon fill="white" stroke="transparent" points="-4,4 -4,-1028 780.5,-1028 780.5,4 -4,4"/>
<!-- Node1 -->
<g id="node1" class="node">
<title>Node1</title>
<g id="a_node1"><a xlink:title="A class of MIDIOutputElements that read the input of a quadrature (rotary) encoder and send out absol...">
<polygon fill="#bfbfbf" stroke="black" points="137.5,-0.5 137.5,-57.5 267.5,-57.5 267.5,-0.5 137.5,-0.5"/>
<text text-anchor="middle" x="202.5" y="-45.5" font-family="Helvetica,sans-Serif" font-size="10.00">PBAbsoluteEncoder</text>
<polyline fill="none" stroke="black" points="137.5,-38.5 267.5,-38.5 "/>
<text text-anchor="middle" x="202.5" y="-26.5" font-family="Helvetica,sans-Serif" font-size="10.00"> </text>
<polyline fill="none" stroke="black" points="137.5,-19.5 267.5,-19.5 "/>
<text text-anchor="start" x="145.5" y="-7.5" font-family="Helvetica,sans-Serif" font-size="10.00">+ PBAbsoluteEncoder()</text>
</a>
</g>
</g>
<!-- Node2 -->
<g id="node2" class="node">
<title>Node2</title>
<g id="a_node2"><a xlink:href="../../df/d5d/classGenericMIDIAbsoluteEncoder.html" target="_top" xlink:title="An abstract class for rotary encoders that send absolute MIDI events.">
<polygon fill="white" stroke="black" points="114,-134 114,-356 291,-356 291,-134 114,-134"/>
<text text-anchor="start" x="122" y="-344" font-family="Helvetica,sans-Serif" font-size="10.00">MIDIAbsoluteEncoder</text>
<text text-anchor="middle" x="202.5" y="-333" font-family="Helvetica,sans-Serif" font-size="10.00">&lt; PitchBendSender&lt; 14 &gt; &gt;</text>
<polyline fill="none" stroke="black" points="114,-326 291,-326 "/>
<text text-anchor="start" x="122" y="-314" font-family="Helvetica,sans-Serif" font-size="10.00">+ sender</text>
<text text-anchor="start" x="122" y="-303" font-family="Helvetica,sans-Serif" font-size="10.00">&#45; encoder</text>
<text text-anchor="start" x="122" y="-292" font-family="Helvetica,sans-Serif" font-size="10.00">&#45; value</text>
<text text-anchor="start" x="122" y="-281" font-family="Helvetica,sans-Serif" font-size="10.00">&#45; maxValue</text>
<polyline fill="none" stroke="black" points="114,-274 291,-274 "/>
<text text-anchor="start" x="122" y="-262" font-family="Helvetica,sans-Serif" font-size="10.00">+ GenericMIDIAbsoluteEncoder()</text>
<text text-anchor="start" x="122" y="-251" font-family="Helvetica,sans-Serif" font-size="10.00">+ begin()</text>
<text text-anchor="start" x="122" y="-240" font-family="Helvetica,sans-Serif" font-size="10.00">+ update()</text>
<text text-anchor="start" x="122" y="-229" font-family="Helvetica,sans-Serif" font-size="10.00">+ forcedUpdate()</text>
<text text-anchor="start" x="122" y="-218" font-family="Helvetica,sans-Serif" font-size="10.00">+ getValue()</text>
<text text-anchor="start" x="122" y="-207" font-family="Helvetica,sans-Serif" font-size="10.00">+ setValue()</text>
<text text-anchor="start" x="122" y="-196" font-family="Helvetica,sans-Serif" font-size="10.00">+ setSpeedMultiply()</text>
<text text-anchor="start" x="122" y="-185" font-family="Helvetica,sans-Serif" font-size="10.00">+ getSpeedMultiply()</text>
<text text-anchor="start" x="122" y="-174" font-family="Helvetica,sans-Serif" font-size="10.00">+ getAddress()</text>
<text text-anchor="start" x="122" y="-163" font-family="Helvetica,sans-Serif" font-size="10.00">+ setAddress()</text>
<text text-anchor="start" x="122" y="-152" font-family="Helvetica,sans-Serif" font-size="10.00">+ resetPositionOffset()</text>
<text text-anchor="start" x="122" y="-141" font-family="Helvetica,sans-Serif" font-size="10.00">+ getMaxValue()</text>
</a>
</g>
</g>
<!-- Node2&#45;&gt;Node1 -->
<g id="edge1" class="edge">
<title>Node2&#45;&gt;Node1</title>
<path fill="none" stroke="midnightblue" d="M202.5,-123.62C202.5,-98.95 202.5,-75.23 202.5,-57.84"/>
<polygon fill="none" stroke="midnightblue" points="199,-123.87 202.5,-133.87 206,-123.87 199,-123.87"/>
</g>
<!-- Node3 -->
<g id="node3" class="node">
<title>Node3</title>
<g id="a_node3"><a xlink:href="../../d1/d55/classAH_1_1Updatable.html" target="_top" xlink:title="A super class for object that have to be updated regularly.">
<polygon fill="white" stroke="black" points="0,-558 0,-648 113,-648 113,-558 0,-558"/>
<text text-anchor="middle" x="56.5" y="-636" font-family="Helvetica,sans-Serif" font-size="10.00">MIDIOutputElement</text>
<polyline fill="none" stroke="black" points="0,-629 113,-629 "/>
<text text-anchor="middle" x="56.5" y="-617" font-family="Helvetica,sans-Serif" font-size="10.00"> </text>
<polyline fill="none" stroke="black" points="0,-610 113,-610 "/>
<text text-anchor="start" x="8" y="-598" font-family="Helvetica,sans-Serif" font-size="10.00">* begin()</text>
<text text-anchor="start" x="8" y="-587" font-family="Helvetica,sans-Serif" font-size="10.00">* update()</text>
<text text-anchor="start" x="8" y="-576" font-family="Helvetica,sans-Serif" font-size="10.00">* beginAll()</text>
<text text-anchor="start" x="8" y="-565" font-family="Helvetica,sans-Serif" font-size="10.00">* updateAll()</text>
</a>
</g>
</g>
<!-- Node3&#45;&gt;Node2 -->
<g id="edge2" class="edge">
<title>Node3&#45;&gt;Node2</title>
<path fill="none" stroke="midnightblue" d="M78.42,-548.54C99.2,-497.88 131.04,-420.25 157.26,-356.31"/>
<polygon fill="none" stroke="midnightblue" points="75.11,-547.41 74.55,-557.99 81.58,-550.07 75.11,-547.41"/>
</g>
<!-- Node4 -->
<g id="node4" class="node">
<title>Node4</title>
<g id="a_node4"><a xlink:href="../../d8/d1a/classAH_1_1UpdatableCRTP.html" target="_top" xlink:title=" ">
<polygon fill="white" stroke="black" points="435,-790.5 435,-1023.5 588,-1023.5 588,-790.5 435,-790.5"/>
<text text-anchor="start" x="443" y="-1011.5" font-family="Helvetica,sans-Serif" font-size="10.00">UpdatableCRTP&lt; Updatable</text>
<text text-anchor="middle" x="511.5" y="-1000.5" font-family="Helvetica,sans-Serif" font-size="10.00">&lt; NormalUpdatable &gt; &gt;</text>
<polyline fill="none" stroke="black" points="435,-993.5 588,-993.5 "/>
<text text-anchor="middle" x="511.5" y="-981.5" font-family="Helvetica,sans-Serif" font-size="10.00"> </text>
<polyline fill="none" stroke="black" points="435,-974.5 588,-974.5 "/>
<text text-anchor="start" x="443" y="-962.5" font-family="Helvetica,sans-Serif" font-size="10.00">+ ~UpdatableCRTP()</text>
<text text-anchor="start" x="443" y="-951.5" font-family="Helvetica,sans-Serif" font-size="10.00"># UpdatableCRTP()</text>
<text text-anchor="start" x="443" y="-940.5" font-family="Helvetica,sans-Serif" font-size="10.00"># UpdatableCRTP()</text>
<text text-anchor="start" x="443" y="-929.5" font-family="Helvetica,sans-Serif" font-size="10.00"># UpdatableCRTP()</text>
<text text-anchor="start" x="443" y="-918.5" font-family="Helvetica,sans-Serif" font-size="10.00"># operator=()</text>
<text text-anchor="start" x="443" y="-907.5" font-family="Helvetica,sans-Serif" font-size="10.00"># operator=()</text>
<text text-anchor="start" x="443" y="-896.5" font-family="Helvetica,sans-Serif" font-size="10.00">* enable()</text>
<text text-anchor="start" x="443" y="-885.5" font-family="Helvetica,sans-Serif" font-size="10.00">* disable()</text>
<text text-anchor="start" x="443" y="-874.5" font-family="Helvetica,sans-Serif" font-size="10.00">* isEnabled()</text>
<text text-anchor="start" x="443" y="-863.5" font-family="Helvetica,sans-Serif" font-size="10.00">* moveDown()</text>
<text text-anchor="start" x="443" y="-852.5" font-family="Helvetica,sans-Serif" font-size="10.00">* enable()</text>
<text text-anchor="start" x="443" y="-841.5" font-family="Helvetica,sans-Serif" font-size="10.00">* enable()</text>
<text text-anchor="start" x="443" y="-830.5" font-family="Helvetica,sans-Serif" font-size="10.00">* enable()</text>
<text text-anchor="start" x="443" y="-819.5" font-family="Helvetica,sans-Serif" font-size="10.00">* disable()</text>
<text text-anchor="start" x="443" y="-808.5" font-family="Helvetica,sans-Serif" font-size="10.00">* disable()</text>
<text text-anchor="start" x="443" y="-797.5" font-family="Helvetica,sans-Serif" font-size="10.00">* disable()</text>
</a>
</g>
</g>
<!-- Node4&#45;&gt;Node3 -->
<g id="edge3" class="edge">
<title>Node4&#45;&gt;Node3</title>
<path fill="none" stroke="midnightblue" d="M424.81,-891.71C338.37,-873.35 206.66,-833.67 122.5,-753 92.99,-724.71 75.76,-680.88 66.36,-648.07"/>
<polygon fill="none" stroke="midnightblue" points="424.36,-895.19 434.86,-893.79 425.78,-888.33 424.36,-895.19"/>
</g>
<!-- Node6 -->
<g id="node6" class="node">
<title>Node6</title>
<g id="a_node6"><a xlink:href="../../d1/d55/classAH_1_1Updatable.html" target="_top" xlink:title=" ">
<polygon fill="white" stroke="black" points="481.5,-558 481.5,-648 657.5,-648 657.5,-558 481.5,-558"/>
<text text-anchor="middle" x="569.5" y="-636" font-family="Helvetica,sans-Serif" font-size="10.00">Updatable&lt; NormalUpdatable &gt;</text>
<polyline fill="none" stroke="black" points="481.5,-629 657.5,-629 "/>
<text text-anchor="middle" x="569.5" y="-617" font-family="Helvetica,sans-Serif" font-size="10.00"> </text>
<polyline fill="none" stroke="black" points="481.5,-610 657.5,-610 "/>
<text text-anchor="start" x="489.5" y="-598" font-family="Helvetica,sans-Serif" font-size="10.00">* begin()</text>
<text text-anchor="start" x="489.5" y="-587" font-family="Helvetica,sans-Serif" font-size="10.00">* update()</text>
<text text-anchor="start" x="489.5" y="-576" font-family="Helvetica,sans-Serif" font-size="10.00">* beginAll()</text>
<text text-anchor="start" x="489.5" y="-565" font-family="Helvetica,sans-Serif" font-size="10.00">* updateAll()</text>
</a>
</g>
</g>
<!-- Node4&#45;&gt;Node6 -->
<g id="edge6" class="edge">
<title>Node4&#45;&gt;Node6</title>
<path fill="none" stroke="midnightblue" d="M535.67,-780.13C544.7,-733.13 554.37,-682.78 561.05,-648"/>
<polygon fill="none" stroke="midnightblue" points="532.21,-779.62 533.76,-790.1 539.08,-780.94 532.21,-779.62"/>
</g>
<!-- Node5 -->
<g id="node5" class="node">
<title>Node5</title>
<g id="a_node5"><a xlink:href="../../d4/d23/classDoublyLinkable.html" target="_top" xlink:title=" ">
<polygon fill="white" stroke="black" points="418,-183.5 418,-306.5 571,-306.5 571,-183.5 418,-183.5"/>
<text text-anchor="start" x="426" y="-294.5" font-family="Helvetica,sans-Serif" font-size="10.00">DoublyLinkable&lt; Updatable</text>
<text text-anchor="middle" x="494.5" y="-283.5" font-family="Helvetica,sans-Serif" font-size="10.00">&lt; NormalUpdatable &gt; &gt;</text>
<polyline fill="none" stroke="black" points="418,-276.5 571,-276.5 "/>
<text text-anchor="middle" x="494.5" y="-264.5" font-family="Helvetica,sans-Serif" font-size="10.00"> </text>
<polyline fill="none" stroke="black" points="418,-257.5 571,-257.5 "/>
<text text-anchor="start" x="426" y="-245.5" font-family="Helvetica,sans-Serif" font-size="10.00"># ~DoublyLinkable()</text>
<text text-anchor="start" x="426" y="-234.5" font-family="Helvetica,sans-Serif" font-size="10.00"># DoublyLinkable()</text>
<text text-anchor="start" x="426" y="-223.5" font-family="Helvetica,sans-Serif" font-size="10.00"># DoublyLinkable()</text>
<text text-anchor="start" x="426" y="-212.5" font-family="Helvetica,sans-Serif" font-size="10.00"># DoublyLinkable()</text>
<text text-anchor="start" x="426" y="-201.5" font-family="Helvetica,sans-Serif" font-size="10.00"># operator=()</text>
<text text-anchor="start" x="426" y="-190.5" font-family="Helvetica,sans-Serif" font-size="10.00"># operator=()</text>
</a>
</g>
</g>
<!-- Node5&#45;&gt;Node4 -->
<g id="edge4" class="edge">
<title>Node5&#45;&gt;Node4</title>
<path fill="none" stroke="midnightblue" d="M483.96,-316.86C471.03,-415.16 453.09,-598.28 472.5,-753 474.04,-765.24 476.24,-777.9 478.82,-790.46"/>
<polygon fill="none" stroke="midnightblue" points="487.46,-317.13 485.31,-306.75 480.52,-316.2 487.46,-317.13"/>
</g>
<!-- Node6&#45;&gt;Node5 -->
<g id="edge5" class="edge">
<title>Node6&#45;&gt;Node5</title>
<path fill="none" stroke="#404040" d="M554.58,-557.81C543.78,-524.41 529.55,-477.25 520.5,-435 512.37,-397.05 506.23,-354.24 501.97,-318.97"/>
<polygon fill="none" stroke="#404040" points="501.95,-318.75 497.27,-313.26 500.54,-306.83 505.22,-312.32 501.95,-318.75"/>
<text text-anchor="middle" x="546" y="-427" font-family="Helvetica,sans-Serif" font-size="10.00"> #next</text>
<text text-anchor="middle" x="546" y="-416" font-family="Helvetica,sans-Serif" font-size="10.00">#previous</text>
</g>
<!-- Node7 -->
<g id="node7" class="node">
<title>Node7</title>
<g id="a_node7"><a xlink:href="../../dd/d16/classDoublyLinkedList.html" target="_top" xlink:title=" ">
<polygon fill="white" stroke="black" points="601,-95.5 601,-394.5 762,-394.5 762,-95.5 601,-95.5"/>
<text text-anchor="start" x="609" y="-382.5" font-family="Helvetica,sans-Serif" font-size="10.00">DoublyLinkedList&lt; Updatable</text>
<text text-anchor="middle" x="681.5" y="-371.5" font-family="Helvetica,sans-Serif" font-size="10.00">&lt; NormalUpdatable &gt; &gt;</text>
<polyline fill="none" stroke="black" points="601,-364.5 762,-364.5 "/>
<text text-anchor="middle" x="681.5" y="-352.5" font-family="Helvetica,sans-Serif" font-size="10.00"> </text>
<polyline fill="none" stroke="black" points="601,-345.5 762,-345.5 "/>
<text text-anchor="start" x="609" y="-333.5" font-family="Helvetica,sans-Serif" font-size="10.00">+ append()</text>
<text text-anchor="start" x="609" y="-322.5" font-family="Helvetica,sans-Serif" font-size="10.00">+ append()</text>
<text text-anchor="start" x="609" y="-311.5" font-family="Helvetica,sans-Serif" font-size="10.00">+ insertBefore()</text>
<text text-anchor="start" x="609" y="-300.5" font-family="Helvetica,sans-Serif" font-size="10.00">+ insertBefore()</text>
<text text-anchor="start" x="609" y="-289.5" font-family="Helvetica,sans-Serif" font-size="10.00">+ insertSorted()</text>
<text text-anchor="start" x="609" y="-278.5" font-family="Helvetica,sans-Serif" font-size="10.00">+ insertSorted()</text>
<text text-anchor="start" x="609" y="-267.5" font-family="Helvetica,sans-Serif" font-size="10.00">+ remove()</text>
<text text-anchor="start" x="609" y="-256.5" font-family="Helvetica,sans-Serif" font-size="10.00">+ remove()</text>
<text text-anchor="start" x="609" y="-245.5" font-family="Helvetica,sans-Serif" font-size="10.00">+ moveDown()</text>
<text text-anchor="start" x="609" y="-234.5" font-family="Helvetica,sans-Serif" font-size="10.00">+ moveDown()</text>
<text text-anchor="start" x="609" y="-223.5" font-family="Helvetica,sans-Serif" font-size="10.00">+ couldContain()</text>
<text text-anchor="start" x="609" y="-212.5" font-family="Helvetica,sans-Serif" font-size="10.00">+ couldContain()</text>
<text text-anchor="start" x="609" y="-201.5" font-family="Helvetica,sans-Serif" font-size="10.00">+ begin()</text>
<text text-anchor="start" x="609" y="-190.5" font-family="Helvetica,sans-Serif" font-size="10.00">+ begin()</text>
<text text-anchor="start" x="609" y="-179.5" font-family="Helvetica,sans-Serif" font-size="10.00">+ end()</text>
<text text-anchor="start" x="609" y="-168.5" font-family="Helvetica,sans-Serif" font-size="10.00">+ end()</text>
<text text-anchor="start" x="609" y="-157.5" font-family="Helvetica,sans-Serif" font-size="10.00">+ rbegin()</text>
<text text-anchor="start" x="609" y="-146.5" font-family="Helvetica,sans-Serif" font-size="10.00">+ rbegin()</text>
<text text-anchor="start" x="609" y="-135.5" font-family="Helvetica,sans-Serif" font-size="10.00">+ rend()</text>
<text text-anchor="start" x="609" y="-124.5" font-family="Helvetica,sans-Serif" font-size="10.00">+ rend()</text>
<text text-anchor="start" x="609" y="-113.5" font-family="Helvetica,sans-Serif" font-size="10.00">+ getFirst()</text>
<text text-anchor="start" x="609" y="-102.5" font-family="Helvetica,sans-Serif" font-size="10.00">+ getLast()</text>
</a>
</g>
</g>
<!-- Node6&#45;&gt;Node7 -->
<g id="edge8" class="edge">
<title>Node6&#45;&gt;Node7</title>
<path fill="none" stroke="#404040" d="M583.35,-557.99C595.39,-519.7 613.61,-461.78 631.1,-406.2"/>
<polygon fill="none" stroke="#404040" points="631.1,-406.2 629.09,-399.27 634.7,-394.75 636.72,-401.67 631.1,-406.2"/>
<text text-anchor="middle" x="641.5" y="-427" font-family="Helvetica,sans-Serif" font-size="10.00"> &#45;first</text>
<text text-anchor="middle" x="641.5" y="-416" font-family="Helvetica,sans-Serif" font-size="10.00">&#45;last</text>
</g>
<!-- Node7&#45;&gt;Node4 -->
<g id="edge7" class="edge">
<title>Node7&#45;&gt;Node4</title>
<path fill="none" stroke="#404040" d="M705.4,-394.61C715.6,-499.19 715.68,-640.07 666.5,-753 651.44,-787.57 624.6,-818.43 597.43,-843.21"/>
<polygon fill="none" stroke="#404040" points="597.2,-843.42 595.36,-850.39 588.22,-851.38 590.05,-844.41 597.2,-843.42"/>
<text text-anchor="middle" x="743.5" y="-600.5" font-family="Helvetica,sans-Serif" font-size="10.00"> #updatables</text>
</g>
<!-- Node8 -->
<g id="node8" class="node">
<title>Node8</title>
<g id="a_node8"><a xlink:href="../../d7/d0f/classMIDIAddress.html" target="_top" xlink:title="A type&#45;safe utility class for saving a MIDI address consisting of a 7&#45;bit address,...">
<polygon fill="white" stroke="black" points="131.5,-453.5 131.5,-752.5 273.5,-752.5 273.5,-453.5 131.5,-453.5"/>
<text text-anchor="middle" x="202.5" y="-740.5" font-family="Helvetica,sans-Serif" font-size="10.00">MIDIAddress</text>
<polyline fill="none" stroke="black" points="131.5,-733.5 273.5,-733.5 "/>
<text text-anchor="start" x="139.5" y="-721.5" font-family="Helvetica,sans-Serif" font-size="10.00">&#45; addresses</text>
<polyline fill="none" stroke="black" points="131.5,-714.5 273.5,-714.5 "/>
<text text-anchor="start" x="139.5" y="-702.5" font-family="Helvetica,sans-Serif" font-size="10.00">* MIDIAddress()</text>
<text text-anchor="start" x="139.5" y="-691.5" font-family="Helvetica,sans-Serif" font-size="10.00">* MIDIAddress()</text>
<text text-anchor="start" x="139.5" y="-680.5" font-family="Helvetica,sans-Serif" font-size="10.00">* MIDIAddress()</text>
<text text-anchor="start" x="139.5" y="-669.5" font-family="Helvetica,sans-Serif" font-size="10.00">* MIDIAddress()</text>
<text text-anchor="start" x="139.5" y="-658.5" font-family="Helvetica,sans-Serif" font-size="10.00">* MIDIAddress()</text>
<text text-anchor="start" x="139.5" y="-647.5" font-family="Helvetica,sans-Serif" font-size="10.00">* MIDIAddress()</text>
<text text-anchor="start" x="139.5" y="-636.5" font-family="Helvetica,sans-Serif" font-size="10.00">* invalid()</text>
<text text-anchor="start" x="139.5" y="-625.5" font-family="Helvetica,sans-Serif" font-size="10.00">* operator+=()</text>
<text text-anchor="start" x="139.5" y="-614.5" font-family="Helvetica,sans-Serif" font-size="10.00">* operator&#45;=()</text>
<text text-anchor="start" x="139.5" y="-603.5" font-family="Helvetica,sans-Serif" font-size="10.00">* operator+()</text>
<text text-anchor="start" x="139.5" y="-592.5" font-family="Helvetica,sans-Serif" font-size="10.00">* operator&#45;()</text>
<text text-anchor="start" x="139.5" y="-581.5" font-family="Helvetica,sans-Serif" font-size="10.00">* getAddress()</text>
<text text-anchor="start" x="139.5" y="-570.5" font-family="Helvetica,sans-Serif" font-size="10.00">* getChannel()</text>
<text text-anchor="start" x="139.5" y="-559.5" font-family="Helvetica,sans-Serif" font-size="10.00">* getRawChannel()</text>
<text text-anchor="start" x="139.5" y="-548.5" font-family="Helvetica,sans-Serif" font-size="10.00">* getCableNumber()</text>
<text text-anchor="start" x="139.5" y="-537.5" font-family="Helvetica,sans-Serif" font-size="10.00">* getRawCableNumber()</text>
<text text-anchor="start" x="139.5" y="-526.5" font-family="Helvetica,sans-Serif" font-size="10.00">* getChannelCable()</text>
<text text-anchor="start" x="139.5" y="-515.5" font-family="Helvetica,sans-Serif" font-size="10.00">* operator==()</text>
<text text-anchor="start" x="139.5" y="-504.5" font-family="Helvetica,sans-Serif" font-size="10.00">* operator!=()</text>
<text text-anchor="start" x="139.5" y="-493.5" font-family="Helvetica,sans-Serif" font-size="10.00">* isValid()</text>
<text text-anchor="start" x="139.5" y="-482.5" font-family="Helvetica,sans-Serif" font-size="10.00">* operator bool()</text>
<text text-anchor="start" x="139.5" y="-471.5" font-family="Helvetica,sans-Serif" font-size="10.00">* matchSingle()</text>
<text text-anchor="start" x="139.5" y="-460.5" font-family="Helvetica,sans-Serif" font-size="10.00">* matchAddressInRange()</text>
</a>
</g>
</g>
<!-- Node8&#45;&gt;Node2 -->
<g id="edge9" class="edge">
<title>Node8&#45;&gt;Node2</title>
<path fill="none" stroke="#404040" d="M202.5,-453.34C202.5,-424.94 202.5,-395.52 202.5,-368.07"/>
<polygon fill="none" stroke="#404040" points="202.5,-368.02 198.5,-362.02 202.5,-356.02 206.5,-362.02 202.5,-368.02"/>
<text text-anchor="middle" x="225.5" y="-421.5" font-family="Helvetica,sans-Serif" font-size="10.00"> &#45;address</text>
</g>
<!-- Node9 -->
<g id="node9" class="node">
<title>Node9</title>
<g id="a_node9"><a xlink:href="../../db/dd2/classEncoderState.html" target="_top" xlink:title=" ">
<polygon fill="white" stroke="black" points="291.5,-536 291.5,-670 425.5,-670 425.5,-536 291.5,-536"/>
<text text-anchor="start" x="299.5" y="-658" font-family="Helvetica,sans-Serif" font-size="10.00">EncoderState&lt; decltype</text>
<text text-anchor="middle" x="358.5" y="-647" font-family="Helvetica,sans-Serif" font-size="10.00">(encoder.read())&gt;</text>
<polyline fill="none" stroke="black" points="291.5,-640 425.5,-640 "/>
<text text-anchor="start" x="299.5" y="-628" font-family="Helvetica,sans-Serif" font-size="10.00">&#45; speedMultiply</text>
<text text-anchor="start" x="299.5" y="-617" font-family="Helvetica,sans-Serif" font-size="10.00">&#45; pulsesPerStep</text>
<text text-anchor="start" x="299.5" y="-606" font-family="Helvetica,sans-Serif" font-size="10.00">&#45; remainder</text>
<text text-anchor="start" x="299.5" y="-595" font-family="Helvetica,sans-Serif" font-size="10.00">&#45; deltaOffset</text>
<polyline fill="none" stroke="black" points="291.5,-588 425.5,-588 "/>
<text text-anchor="start" x="299.5" y="-576" font-family="Helvetica,sans-Serif" font-size="10.00">+ EncoderState()</text>
<text text-anchor="start" x="299.5" y="-565" font-family="Helvetica,sans-Serif" font-size="10.00">+ update()</text>
<text text-anchor="start" x="299.5" y="-554" font-family="Helvetica,sans-Serif" font-size="10.00">+ setSpeedMultiply()</text>
<text text-anchor="start" x="299.5" y="-543" font-family="Helvetica,sans-Serif" font-size="10.00">+ getSpeedMultiply()</text>
</a>
</g>
</g>
<!-- Node9&#45;&gt;Node2 -->
<g id="edge10" class="edge">
<title>Node9&#45;&gt;Node2</title>
<path fill="none" stroke="#404040" d="M329.52,-535.87C308.83,-488.65 280.4,-423.76 255.68,-367.35"/>
<polygon fill="none" stroke="#404040" points="255.6,-367.18 249.53,-363.29 250.78,-356.19 256.86,-360.08 255.6,-367.18"/>
<text text-anchor="middle" x="309" y="-421.5" font-family="Helvetica,sans-Serif" font-size="10.00"> &#45;encstate</text>
</g>
</g>
</svg>
