<?xml version="1.0" encoding="UTF-8" standalone="no"?>
<!DOCTYPE svg PUBLIC "-//W3C//DTD SVG 1.1//EN"
 "http://www.w3.org/Graphics/SVG/1.1/DTD/svg11.dtd">
<!-- Generated by graphviz version 2.43.0 (0)
 -->
<!-- Title: MIDIButtonLatching&lt; BankAddress, Sender &gt; Pages: 1 -->
<svg width="373pt" height="1151pt"
 viewBox="0.00 0.00 373.00 1151.00" xmlns="http://www.w3.org/2000/svg" xmlns:xlink="http://www.w3.org/1999/xlink">
<g id="graph0" class="graph" transform="scale(1 1) rotate(0) translate(4 1147)">
<title>MIDIButtonLatching&lt; BankAddress, Sender &gt;</title>
<!-- Node1 -->
<g id="Node000001" class="node">
<title>Node1</title>
<g id="a_Node000001"><a xlink:title="A class for latching buttons and switches that send MIDI events.">
<polygon fill="#999999" stroke="transparent" points="296.5,-120 159.5,-120 159.5,0 296.5,0 296.5,-120"/>
<text text-anchor="start" x="165" y="-108" font-family="Helvetica,sans-Serif" font-size="10.00">MIDIButtonLatching</text>
<text text-anchor="start" x="165" y="-97" font-family="Helvetica,sans-Serif" font-size="10.00">&lt; BankAddress, Sender &gt;</text>
<text text-anchor="start" x="167" y="-82" font-family="Helvetica,sans-Serif" font-size="10.00">+</text>
<text text-anchor="start" x="183" y="-82" font-family="Helvetica,sans-Serif" font-size="10.00">sender</text>
<text text-anchor="start" x="167" y="-67" font-family="Helvetica,sans-Serif" font-size="10.00">#</text>
<text text-anchor="start" x="183" y="-67" font-family="Helvetica,sans-Serif" font-size="10.00">address</text>
<text text-anchor="start" x="167" y="-52" font-family="Helvetica,sans-Serif" font-size="10.00">+</text>
<text text-anchor="start" x="183" y="-52" font-family="Helvetica,sans-Serif" font-size="10.00">begin()</text>
<text text-anchor="start" x="167" y="-37" font-family="Helvetica,sans-Serif" font-size="10.00">+</text>
<text text-anchor="start" x="183" y="-37" font-family="Helvetica,sans-Serif" font-size="10.00">update()</text>
<text text-anchor="start" x="167" y="-22" font-family="Helvetica,sans-Serif" font-size="10.00">+</text>
<text text-anchor="start" x="183" y="-22" font-family="Helvetica,sans-Serif" font-size="10.00">getButtonState()</text>
<text text-anchor="start" x="167" y="-7" font-family="Helvetica,sans-Serif" font-size="10.00">#</text>
<text text-anchor="start" x="183" y="-7" font-family="Helvetica,sans-Serif" font-size="10.00">MIDIButtonLatching()</text>
<polygon fill="#666666" stroke="#666666" points="160,-92 160,-92 297,-92 297,-92 160,-92"/>
<polygon fill="#666666" stroke="#666666" points="160,-62 160,-62 181,-62 181,-62 160,-62"/>
<polygon fill="#666666" stroke="#666666" points="181,-62 181,-62 297,-62 297,-62 181,-62"/>
<polygon fill="none" stroke="#666666" points="159.5,0 159.5,-120 296.5,-120 296.5,0 159.5,0"/>
</a>
</g>
</g>
<!-- Node2 -->
<g id="Node000002" class="node">
<title>Node2</title>
<g id="a_Node000002"><a xlink:href="../../d1/d55/classAH_1_1Updatable.html" target="_top" xlink:title="A super class for object that have to be updated regularly.">
<polygon fill="white" stroke="transparent" points="213.5,-328.5 106.5,-328.5 106.5,-234.5 213.5,-234.5 213.5,-328.5"/>
<text text-anchor="start" x="112" y="-316.5" font-family="Helvetica,sans-Serif" font-size="10.00">MIDIOutputElement</text>
<text text-anchor="start" x="158.5" y="-301.5" font-family="Helvetica,sans-Serif" font-size="10.00"> </text>
<text text-anchor="start" x="119.5" y="-286.5" font-family="Helvetica,sans-Serif" font-size="10.00">*</text>
<text text-anchor="start" x="138" y="-286.5" font-family="Helvetica,sans-Serif" font-size="10.00">begin()</text>
<text text-anchor="start" x="119.5" y="-271.5" font-family="Helvetica,sans-Serif" font-size="10.00">*</text>
<text text-anchor="start" x="138" y="-271.5" font-family="Helvetica,sans-Serif" font-size="10.00">update()</text>
<text text-anchor="start" x="119.5" y="-256.5" font-family="Helvetica,sans-Serif" font-size="10.00">*</text>
<text text-anchor="start" x="138" y="-256.5" font-family="Helvetica,sans-Serif" font-size="10.00">beginAll()</text>
<text text-anchor="start" x="119.5" y="-241.5" font-family="Helvetica,sans-Serif" font-size="10.00">*</text>
<text text-anchor="start" x="138" y="-241.5" font-family="Helvetica,sans-Serif" font-size="10.00">updateAll()</text>
<polygon fill="#666666" stroke="#666666" points="107,-311.5 107,-311.5 214,-311.5 214,-311.5 107,-311.5"/>
<polygon fill="#666666" stroke="#666666" points="107,-296.5 107,-296.5 214,-296.5 214,-296.5 107,-296.5"/>
<polygon fill="none" stroke="#666666" points="106.5,-234.5 106.5,-328.5 213.5,-328.5 213.5,-234.5 106.5,-234.5"/>
</a>
</g>
</g>
<!-- Node2&#45;&gt;Node1 -->
<g id="edge1_Node000001_Node000002" class="edge">
<title>Node2&#45;&gt;Node1</title>
<g id="a_edge1_Node000001_Node000002"><a xlink:title=" ">
<path fill="none" stroke="#63b8ff" d="M177.24,-224.86C187.13,-192.92 199.55,-152.85 209.62,-120.32"/>
<polygon fill="none" stroke="#63b8ff" points="173.87,-223.9 174.26,-234.49 180.56,-225.97 173.87,-223.9"/>
</a>
</g>
</g>
<!-- Node3 -->
<g id="Node000003" class="node">
<title>Node3</title>
<g id="a_Node000003"><a xlink:href="../../d8/d1a/classAH_1_1UpdatableCRTP.html" target="_top" xlink:title="A super class for object that have to be updated regularly.">
<polygon fill="white" stroke="transparent" points="230,-717 84,-717 84,-443 230,-443 230,-717"/>
<text text-anchor="start" x="89" y="-705" font-family="Helvetica,sans-Serif" font-size="10.00">UpdatableCRTP&lt; Derived &gt;</text>
<text text-anchor="start" x="155" y="-690" font-family="Helvetica,sans-Serif" font-size="10.00"> </text>
<text text-anchor="start" x="96.5" y="-675" font-family="Helvetica,sans-Serif" font-size="10.00">+</text>
<text text-anchor="start" x="118" y="-675" font-family="Helvetica,sans-Serif" font-size="10.00">~UpdatableCRTP()</text>
<text text-anchor="start" x="96.5" y="-660" font-family="Helvetica,sans-Serif" font-size="10.00">#</text>
<text text-anchor="start" x="118" y="-660" font-family="Helvetica,sans-Serif" font-size="10.00">UpdatableCRTP()</text>
<text text-anchor="start" x="96.5" y="-645" font-family="Helvetica,sans-Serif" font-size="10.00">#</text>
<text text-anchor="start" x="118" y="-645" font-family="Helvetica,sans-Serif" font-size="10.00">UpdatableCRTP()</text>
<text text-anchor="start" x="96.5" y="-630" font-family="Helvetica,sans-Serif" font-size="10.00">#</text>
<text text-anchor="start" x="118" y="-630" font-family="Helvetica,sans-Serif" font-size="10.00">operator=()</text>
<text text-anchor="start" x="96.5" y="-615" font-family="Helvetica,sans-Serif" font-size="10.00">#</text>
<text text-anchor="start" x="118" y="-615" font-family="Helvetica,sans-Serif" font-size="10.00">UpdatableCRTP()</text>
<text text-anchor="start" x="96.5" y="-600" font-family="Helvetica,sans-Serif" font-size="10.00">#</text>
<text text-anchor="start" x="118" y="-600" font-family="Helvetica,sans-Serif" font-size="10.00">operator=()</text>
<text text-anchor="start" x="98" y="-585" font-family="Helvetica,sans-Serif" font-size="10.00">*</text>
<text text-anchor="start" x="118" y="-585" font-family="Helvetica,sans-Serif" font-size="10.00">enable()</text>
<text text-anchor="start" x="98" y="-570" font-family="Helvetica,sans-Serif" font-size="10.00">*</text>
<text text-anchor="start" x="118" y="-570" font-family="Helvetica,sans-Serif" font-size="10.00">disable()</text>
<text text-anchor="start" x="98" y="-555" font-family="Helvetica,sans-Serif" font-size="10.00">*</text>
<text text-anchor="start" x="118" y="-555" font-family="Helvetica,sans-Serif" font-size="10.00">isEnabled()</text>
<text text-anchor="start" x="98" y="-540" font-family="Helvetica,sans-Serif" font-size="10.00">*</text>
<text text-anchor="start" x="118" y="-540" font-family="Helvetica,sans-Serif" font-size="10.00">moveDown()</text>
<text text-anchor="start" x="98" y="-525" font-family="Helvetica,sans-Serif" font-size="10.00">*</text>
<text text-anchor="start" x="118" y="-525" font-family="Helvetica,sans-Serif" font-size="10.00">enable()</text>
<text text-anchor="start" x="98" y="-510" font-family="Helvetica,sans-Serif" font-size="10.00">*</text>
<text text-anchor="start" x="118" y="-510" font-family="Helvetica,sans-Serif" font-size="10.00">enable()</text>
<text text-anchor="start" x="98" y="-495" font-family="Helvetica,sans-Serif" font-size="10.00">*</text>
<text text-anchor="start" x="118" y="-495" font-family="Helvetica,sans-Serif" font-size="10.00">enable()</text>
<text text-anchor="start" x="98" y="-480" font-family="Helvetica,sans-Serif" font-size="10.00">*</text>
<text text-anchor="start" x="118" y="-480" font-family="Helvetica,sans-Serif" font-size="10.00">disable()</text>
<text text-anchor="start" x="98" y="-465" font-family="Helvetica,sans-Serif" font-size="10.00">*</text>
<text text-anchor="start" x="118" y="-465" font-family="Helvetica,sans-Serif" font-size="10.00">disable()</text>
<text text-anchor="start" x="98" y="-450" font-family="Helvetica,sans-Serif" font-size="10.00">*</text>
<text text-anchor="start" x="118" y="-450" font-family="Helvetica,sans-Serif" font-size="10.00">disable()</text>
<polygon fill="#666666" stroke="#666666" points="84,-700 84,-700 230,-700 230,-700 84,-700"/>
<polygon fill="#666666" stroke="#666666" points="84,-685 84,-685 230,-685 230,-685 84,-685"/>
<polygon fill="none" stroke="#666666" points="84,-443 84,-717 230,-717 230,-443 84,-443"/>
</a>
</g>
</g>
<!-- Node3&#45;&gt;Node2 -->
<g id="edge2_Node000002_Node000003" class="edge">
<title>Node3&#45;&gt;Node2</title>
<g id="a_edge2_Node000002_Node000003"><a xlink:title=" ">
<path fill="none" stroke="#63b8ff" d="M158.48,-432.77C158.86,-394.92 159.25,-356.91 159.53,-328.58"/>
<polygon fill="none" stroke="#63b8ff" points="154.98,-432.86 158.38,-442.9 161.98,-432.93 154.98,-432.86"/>
</a>
</g>
</g>
<!-- Node4 -->
<g id="Node000004" class="node">
<title>Node4</title>
<g id="a_Node000004"><a xlink:href="../../d4/d23/classDoublyLinkable.html" target="_top" xlink:title=" ">
<polygon fill="white" stroke="transparent" points="146,-1023 0,-1023 0,-884 146,-884 146,-1023"/>
<text text-anchor="start" x="5" y="-1010.5" font-family="Helvetica,sans-Serif" font-size="10.00">DoublyLinkable&lt; Derived &gt;</text>
<text text-anchor="start" x="12.5" y="-995.5" font-family="Helvetica,sans-Serif" font-size="10.00">#</text>
<text text-anchor="start" x="34" y="-995.5" font-family="Helvetica,sans-Serif" font-size="10.00">next</text>
<text text-anchor="start" x="12.5" y="-980.5" font-family="Helvetica,sans-Serif" font-size="10.00">#</text>
<text text-anchor="start" x="34" y="-980.5" font-family="Helvetica,sans-Serif" font-size="10.00">previous</text>
<text text-anchor="start" x="12.5" y="-965.5" font-family="Helvetica,sans-Serif" font-size="10.00">#</text>
<text text-anchor="start" x="34" y="-965.5" font-family="Helvetica,sans-Serif" font-size="10.00">~DoublyLinkable()</text>
<text text-anchor="start" x="12.5" y="-950.5" font-family="Helvetica,sans-Serif" font-size="10.00">#</text>
<text text-anchor="start" x="34" y="-950.5" font-family="Helvetica,sans-Serif" font-size="10.00">DoublyLinkable()</text>
<text text-anchor="start" x="12.5" y="-935.5" font-family="Helvetica,sans-Serif" font-size="10.00">#</text>
<text text-anchor="start" x="34" y="-935.5" font-family="Helvetica,sans-Serif" font-size="10.00">DoublyLinkable()</text>
<text text-anchor="start" x="12.5" y="-920.5" font-family="Helvetica,sans-Serif" font-size="10.00">#</text>
<text text-anchor="start" x="34" y="-920.5" font-family="Helvetica,sans-Serif" font-size="10.00">DoublyLinkable()</text>
<text text-anchor="start" x="12.5" y="-905.5" font-family="Helvetica,sans-Serif" font-size="10.00">#</text>
<text text-anchor="start" x="34" y="-905.5" font-family="Helvetica,sans-Serif" font-size="10.00">operator=()</text>
<text text-anchor="start" x="12.5" y="-890.5" font-family="Helvetica,sans-Serif" font-size="10.00">#</text>
<text text-anchor="start" x="34" y="-890.5" font-family="Helvetica,sans-Serif" font-size="10.00">operator=()</text>
<polygon fill="#666666" stroke="#666666" points="0,-1005.5 0,-1005.5 146,-1005.5 146,-1005.5 0,-1005.5"/>
<polygon fill="#666666" stroke="#666666" points="0,-975.5 0,-975.5 32,-975.5 32,-975.5 0,-975.5"/>
<polygon fill="#666666" stroke="#666666" points="32,-975.5 32,-975.5 146,-975.5 146,-975.5 32,-975.5"/>
<polygon fill="none" stroke="#666666" points="0,-884 0,-1023 146,-1023 146,-884 0,-884"/>
</a>
</g>
</g>
<!-- Node4&#45;&gt;Node3 -->
<g id="edge3_Node000003_Node000004" class="edge">
<title>Node4&#45;&gt;Node3</title>
<g id="a_edge3_Node000003_Node000004"><a xlink:title=" ">
<path fill="none" stroke="#63b8ff" d="M90.72,-874.14C101,-828.66 114.24,-770.09 126.18,-717.28"/>
<polygon fill="none" stroke="#63b8ff" points="87.3,-873.4 88.5,-883.93 94.12,-874.95 87.3,-873.4"/>
</a>
</g>
</g>
<!-- Node5 -->
<g id="Node000005" class="node">
<title>Node5</title>
<g id="a_Node000005"><a xlink:href="../../dd/d16/classDoublyLinkedList.html" target="_top" xlink:title=" ">
<polygon fill="white" stroke="transparent" points="319.5,-1143 164.5,-1143 164.5,-764 319.5,-764 319.5,-1143"/>
<text text-anchor="start" x="170" y="-1130.5" font-family="Helvetica,sans-Serif" font-size="10.00">DoublyLinkedList&lt; Derived &gt;</text>
<text text-anchor="start" x="187" y="-1115.5" font-family="Helvetica,sans-Serif" font-size="10.00">&#45;</text>
<text text-anchor="start" x="213" y="-1115.5" font-family="Helvetica,sans-Serif" font-size="10.00">first</text>
<text text-anchor="start" x="187" y="-1100.5" font-family="Helvetica,sans-Serif" font-size="10.00">&#45;</text>
<text text-anchor="start" x="213" y="-1100.5" font-family="Helvetica,sans-Serif" font-size="10.00">last</text>
<text text-anchor="start" x="184.5" y="-1085.5" font-family="Helvetica,sans-Serif" font-size="10.00">+</text>
<text text-anchor="start" x="213" y="-1085.5" font-family="Helvetica,sans-Serif" font-size="10.00">append()</text>
<text text-anchor="start" x="184.5" y="-1070.5" font-family="Helvetica,sans-Serif" font-size="10.00">+</text>
<text text-anchor="start" x="213" y="-1070.5" font-family="Helvetica,sans-Serif" font-size="10.00">append()</text>
<text text-anchor="start" x="184.5" y="-1055.5" font-family="Helvetica,sans-Serif" font-size="10.00">+</text>
<text text-anchor="start" x="213" y="-1055.5" font-family="Helvetica,sans-Serif" font-size="10.00">insertBefore()</text>
<text text-anchor="start" x="184.5" y="-1040.5" font-family="Helvetica,sans-Serif" font-size="10.00">+</text>
<text text-anchor="start" x="213" y="-1040.5" font-family="Helvetica,sans-Serif" font-size="10.00">insertBefore()</text>
<text text-anchor="start" x="184.5" y="-1025.5" font-family="Helvetica,sans-Serif" font-size="10.00">+</text>
<text text-anchor="start" x="213" y="-1025.5" font-family="Helvetica,sans-Serif" font-size="10.00">insertSorted()</text>
<text text-anchor="start" x="184.5" y="-1010.5" font-family="Helvetica,sans-Serif" font-size="10.00">+</text>
<text text-anchor="start" x="213" y="-1010.5" font-family="Helvetica,sans-Serif" font-size="10.00">insertSorted()</text>
<text text-anchor="start" x="184.5" y="-995.5" font-family="Helvetica,sans-Serif" font-size="10.00">+</text>
<text text-anchor="start" x="213" y="-995.5" font-family="Helvetica,sans-Serif" font-size="10.00">remove()</text>
<text text-anchor="start" x="184.5" y="-980.5" font-family="Helvetica,sans-Serif" font-size="10.00">+</text>
<text text-anchor="start" x="213" y="-980.5" font-family="Helvetica,sans-Serif" font-size="10.00">remove()</text>
<text text-anchor="start" x="184.5" y="-965.5" font-family="Helvetica,sans-Serif" font-size="10.00">+</text>
<text text-anchor="start" x="213" y="-965.5" font-family="Helvetica,sans-Serif" font-size="10.00">moveDown()</text>
<text text-anchor="start" x="184.5" y="-950.5" font-family="Helvetica,sans-Serif" font-size="10.00">+</text>
<text text-anchor="start" x="213" y="-950.5" font-family="Helvetica,sans-Serif" font-size="10.00">moveDown()</text>
<text text-anchor="start" x="184.5" y="-935.5" font-family="Helvetica,sans-Serif" font-size="10.00">+</text>
<text text-anchor="start" x="213" y="-935.5" font-family="Helvetica,sans-Serif" font-size="10.00">couldContain()</text>
<text text-anchor="start" x="184.5" y="-920.5" font-family="Helvetica,sans-Serif" font-size="10.00">+</text>
<text text-anchor="start" x="213" y="-920.5" font-family="Helvetica,sans-Serif" font-size="10.00">couldContain()</text>
<text text-anchor="start" x="184.5" y="-905.5" font-family="Helvetica,sans-Serif" font-size="10.00">+</text>
<text text-anchor="start" x="213" y="-905.5" font-family="Helvetica,sans-Serif" font-size="10.00">begin()</text>
<text text-anchor="start" x="184.5" y="-890.5" font-family="Helvetica,sans-Serif" font-size="10.00">+</text>
<text text-anchor="start" x="213" y="-890.5" font-family="Helvetica,sans-Serif" font-size="10.00">begin()</text>
<text text-anchor="start" x="184.5" y="-875.5" font-family="Helvetica,sans-Serif" font-size="10.00">+</text>
<text text-anchor="start" x="213" y="-875.5" font-family="Helvetica,sans-Serif" font-size="10.00">end()</text>
<text text-anchor="start" x="184.5" y="-860.5" font-family="Helvetica,sans-Serif" font-size="10.00">+</text>
<text text-anchor="start" x="213" y="-860.5" font-family="Helvetica,sans-Serif" font-size="10.00">end()</text>
<text text-anchor="start" x="184.5" y="-845.5" font-family="Helvetica,sans-Serif" font-size="10.00">+</text>
<text text-anchor="start" x="213" y="-845.5" font-family="Helvetica,sans-Serif" font-size="10.00">rbegin()</text>
<text text-anchor="start" x="184.5" y="-830.5" font-family="Helvetica,sans-Serif" font-size="10.00">+</text>
<text text-anchor="start" x="213" y="-830.5" font-family="Helvetica,sans-Serif" font-size="10.00">rbegin()</text>
<text text-anchor="start" x="184.5" y="-815.5" font-family="Helvetica,sans-Serif" font-size="10.00">+</text>
<text text-anchor="start" x="213" y="-815.5" font-family="Helvetica,sans-Serif" font-size="10.00">rend()</text>
<text text-anchor="start" x="184.5" y="-800.5" font-family="Helvetica,sans-Serif" font-size="10.00">+</text>
<text text-anchor="start" x="213" y="-800.5" font-family="Helvetica,sans-Serif" font-size="10.00">rend()</text>
<text text-anchor="start" x="184.5" y="-785.5" font-family="Helvetica,sans-Serif" font-size="10.00">+</text>
<text text-anchor="start" x="213" y="-785.5" font-family="Helvetica,sans-Serif" font-size="10.00">getFirst()</text>
<text text-anchor="start" x="184.5" y="-770.5" font-family="Helvetica,sans-Serif" font-size="10.00">+</text>
<text text-anchor="start" x="213" y="-770.5" font-family="Helvetica,sans-Serif" font-size="10.00">getLast()</text>
<polygon fill="#666666" stroke="#666666" points="165,-1125.5 165,-1125.5 320,-1125.5 320,-1125.5 165,-1125.5"/>
<polygon fill="#666666" stroke="#666666" points="165,-1095.5 165,-1095.5 211,-1095.5 211,-1095.5 165,-1095.5"/>
<polygon fill="#666666" stroke="#666666" points="211,-1095.5 211,-1095.5 320,-1095.5 320,-1095.5 211,-1095.5"/>
<polygon fill="none" stroke="#666666" points="164.5,-764 164.5,-1143 319.5,-1143 319.5,-764 164.5,-764"/>
</a>
</g>
</g>
<!-- Node5&#45;&gt;Node3 -->
<g id="edge4_Node000003_Node000005" class="edge">
<title>Node5&#45;&gt;Node3</title>
<g id="a_edge4_Node000003_Node000005"><a xlink:title=" ">
<path fill="none" stroke="#63b8ff" d="M198.82,-763.76C196.15,-752.1 193.49,-740.47 190.87,-729.03"/>
<polygon fill="none" stroke="#63b8ff" points="190.84,-728.89 185.6,-723.93 188.16,-717.19 193.4,-722.15 190.84,-728.89"/>
</a>
</g>
<text text-anchor="middle" x="228" y="-738" font-family="Helvetica,sans-Serif" font-size="10.00" fill="grey"> #updatables</text>
</g>
<!-- Node6 -->
<g id="Node000006" class="node">
<title>Node6</title>
<g id="a_Node000006"><a xlink:href="../../de/d0d/classAH_1_1Button.html" target="_top" xlink:title="A class for reading and debouncing buttons and switches.">
<polygon fill="white" stroke="transparent" points="365,-396 233,-396 233,-167 365,-167 365,-396"/>
<text text-anchor="start" x="282.5" y="-383.5" font-family="Helvetica,sans-Serif" font-size="10.00">Button</text>
<text text-anchor="start" x="239.5" y="-368.5" font-family="Helvetica,sans-Serif" font-size="10.00">&#45;</text>
<text text-anchor="start" x="250" y="-368.5" font-family="Helvetica,sans-Serif" font-size="10.00">pin</text>
<text text-anchor="start" x="239.5" y="-353.5" font-family="Helvetica,sans-Serif" font-size="10.00">&#45;</text>
<text text-anchor="start" x="250" y="-353.5" font-family="Helvetica,sans-Serif" font-size="10.00">debounceTime</text>
<text text-anchor="start" x="237" y="-338.5" font-family="Helvetica,sans-Serif" font-size="10.00">+</text>
<text text-anchor="start" x="250" y="-338.5" font-family="Helvetica,sans-Serif" font-size="10.00">Button()</text>
<text text-anchor="start" x="237" y="-323.5" font-family="Helvetica,sans-Serif" font-size="10.00">+</text>
<text text-anchor="start" x="250" y="-323.5" font-family="Helvetica,sans-Serif" font-size="10.00">Button()</text>
<text text-anchor="start" x="237" y="-308.5" font-family="Helvetica,sans-Serif" font-size="10.00">+</text>
<text text-anchor="start" x="250" y="-308.5" font-family="Helvetica,sans-Serif" font-size="10.00">begin()</text>
<text text-anchor="start" x="237" y="-293.5" font-family="Helvetica,sans-Serif" font-size="10.00">+</text>
<text text-anchor="start" x="250" y="-293.5" font-family="Helvetica,sans-Serif" font-size="10.00">invert()</text>
<text text-anchor="start" x="237" y="-278.5" font-family="Helvetica,sans-Serif" font-size="10.00">+</text>
<text text-anchor="start" x="250" y="-278.5" font-family="Helvetica,sans-Serif" font-size="10.00">update()</text>
<text text-anchor="start" x="237" y="-263.5" font-family="Helvetica,sans-Serif" font-size="10.00">+</text>
<text text-anchor="start" x="250" y="-263.5" font-family="Helvetica,sans-Serif" font-size="10.00">getState()</text>
<text text-anchor="start" x="237" y="-248.5" font-family="Helvetica,sans-Serif" font-size="10.00">+</text>
<text text-anchor="start" x="250" y="-248.5" font-family="Helvetica,sans-Serif" font-size="10.00">previousBounceTime()</text>
<text text-anchor="start" x="237" y="-233.5" font-family="Helvetica,sans-Serif" font-size="10.00">+</text>
<text text-anchor="start" x="250" y="-233.5" font-family="Helvetica,sans-Serif" font-size="10.00">stableTime()</text>
<text text-anchor="start" x="237" y="-218.5" font-family="Helvetica,sans-Serif" font-size="10.00">+</text>
<text text-anchor="start" x="250" y="-218.5" font-family="Helvetica,sans-Serif" font-size="10.00">stableTime()</text>
<text text-anchor="start" x="237" y="-203.5" font-family="Helvetica,sans-Serif" font-size="10.00">+</text>
<text text-anchor="start" x="250" y="-203.5" font-family="Helvetica,sans-Serif" font-size="10.00">getName()</text>
<text text-anchor="start" x="237" y="-188.5" font-family="Helvetica,sans-Serif" font-size="10.00">+</text>
<text text-anchor="start" x="250" y="-188.5" font-family="Helvetica,sans-Serif" font-size="10.00">setDebounceTime()</text>
<text text-anchor="start" x="237" y="-173.5" font-family="Helvetica,sans-Serif" font-size="10.00">+</text>
<text text-anchor="start" x="250" y="-173.5" font-family="Helvetica,sans-Serif" font-size="10.00">getDebounceTime()</text>
<polygon fill="#666666" stroke="#666666" points="233,-378.5 233,-378.5 365,-378.5 365,-378.5 233,-378.5"/>
<polygon fill="#666666" stroke="#666666" points="233,-348.5 233,-348.5 248,-348.5 248,-348.5 233,-348.5"/>
<polygon fill="#666666" stroke="#666666" points="248,-348.5 248,-348.5 365,-348.5 365,-348.5 248,-348.5"/>
<polygon fill="none" stroke="#666666" points="233,-167 233,-396 365,-396 365,-167 233,-167"/>
</a>
</g>
</g>
<!-- Node6&#45;&gt;Node1 -->
<g id="edge5_Node000001_Node000006" class="edge">
<title>Node6&#45;&gt;Node1</title>
<g id="a_edge5_Node000001_Node000006"><a xlink:title=" ">
<path fill="none" stroke="#63b8ff" d="M262.25,-166.89C258.36,-154.86 254.49,-142.89 250.82,-131.56"/>
<polygon fill="none" stroke="#63b8ff" points="250.78,-131.42 245.13,-126.94 247.09,-120 252.74,-124.48 250.78,-131.42"/>
</a>
</g>
<text text-anchor="middle" x="277.5" y="-141" font-family="Helvetica,sans-Serif" font-size="10.00" fill="grey"> #button</text>
</g>
<!-- Node7 -->
<g id="Node000007" class="node">
<title>Node7</title>
<g id="a_Node000007"><a xlink:href="../../dc/db4/structAH_1_1Button_1_1InternalState.html" target="_top" xlink:title=" ">
<polygon fill="white" stroke="transparent" points="352,-634.5 248,-634.5 248,-525.5 352,-525.5 352,-634.5"/>
<text text-anchor="start" x="268" y="-622" font-family="Helvetica,sans-Serif" font-size="10.00">InternalState</text>
<text text-anchor="start" x="252" y="-607" font-family="Helvetica,sans-Serif" font-size="10.00">+</text>
<text text-anchor="start" x="265" y="-607" font-family="Helvetica,sans-Serif" font-size="10.00">debounced</text>
<text text-anchor="start" x="252" y="-592" font-family="Helvetica,sans-Serif" font-size="10.00">+</text>
<text text-anchor="start" x="265" y="-592" font-family="Helvetica,sans-Serif" font-size="10.00">bouncing</text>
<text text-anchor="start" x="252" y="-577" font-family="Helvetica,sans-Serif" font-size="10.00">+</text>
<text text-anchor="start" x="265" y="-577" font-family="Helvetica,sans-Serif" font-size="10.00">prevInput</text>
<text text-anchor="start" x="252" y="-562" font-family="Helvetica,sans-Serif" font-size="10.00">+</text>
<text text-anchor="start" x="265" y="-562" font-family="Helvetica,sans-Serif" font-size="10.00">invert</text>
<text text-anchor="start" x="252" y="-547" font-family="Helvetica,sans-Serif" font-size="10.00">+</text>
<text text-anchor="start" x="265" y="-547" font-family="Helvetica,sans-Serif" font-size="10.00">prevBounceTime</text>
<text text-anchor="start" x="252" y="-532" font-family="Helvetica,sans-Serif" font-size="10.00">+</text>
<text text-anchor="start" x="265" y="-532" font-family="Helvetica,sans-Serif" font-size="10.00">InternalState()</text>
<polygon fill="#666666" stroke="#666666" points="248,-617 248,-617 352,-617 352,-617 248,-617"/>
<polygon fill="#666666" stroke="#666666" points="248,-542 248,-542 263,-542 263,-542 248,-542"/>
<polygon fill="#666666" stroke="#666666" points="263,-542 263,-542 352,-542 352,-542 263,-542"/>
<polygon fill="none" stroke="#666666" points="248,-525.5 248,-634.5 352,-634.5 352,-525.5 248,-525.5"/>
</a>
</g>
</g>
<!-- Node7&#45;&gt;Node6 -->
<g id="edge6_Node000006_Node000007" class="edge">
<title>Node7&#45;&gt;Node6</title>
<g id="a_edge6_Node000006_Node000007"><a xlink:title=" ">
<path fill="none" stroke="#63b8ff" d="M299.82,-525.31C299.71,-492.57 299.56,-449.29 299.42,-408.34"/>
<polygon fill="none" stroke="#63b8ff" points="299.42,-408.29 295.4,-402.3 299.38,-396.29 303.4,-402.28 299.42,-408.29"/>
</a>
</g>
<text text-anchor="middle" x="315" y="-417" font-family="Helvetica,sans-Serif" font-size="10.00" fill="grey"> &#45;state</text>
</g>
</g>
</svg>
