<?xml version="1.0" encoding="UTF-8" standalone="no"?>
<!DOCTYPE svg PUBLIC "-//W3C//DTD SVG 1.1//EN"
 "http://www.w3.org/Graphics/SVG/1.1/DTD/svg11.dtd">
<!-- Generated by graphviz version 2.38.0 (20140413.2041)
 -->
<!-- Title: IncrementSelector&lt; N &gt; Pages: 1 -->
<svg width="486pt" height="1358pt"
 viewBox="0.00 0.00 486.00 1358.00" xmlns="http://www.w3.org/2000/svg" xmlns:xlink="http://www.w3.org/1999/xlink">
<g id="graph0" class="graph" transform="scale(1 1) rotate(0) translate(4 1354)">
<title>IncrementSelector&lt; N &gt;</title>
<polygon fill="white" stroke="none" points="-4,4 -4,-1354 482,-1354 482,4 -4,4"/>
<!-- Node1 -->
<g id="node1" class="node"><title>Node1</title>
<g id="a_node1"><a xlink:title="Selector with one button that increments the selection.">
<polygon fill="#bfbfbf" stroke="black" points="295.5,-0.5 295.5,-68.5 417.5,-68.5 417.5,-0.5 295.5,-0.5"/>
<text text-anchor="middle" x="356.5" y="-56.5" font-family="Helvetica,sans-Serif" font-size="10.00">IncrementSelector&lt; N &gt;</text>
<polyline fill="none" stroke="black" points="295.5,-49.5 417.5,-49.5 "/>
<text text-anchor="middle" x="356.5" y="-37.5" font-family="Helvetica,sans-Serif" font-size="10.00"> </text>
<polyline fill="none" stroke="black" points="295.5,-30.5 417.5,-30.5 "/>
<text text-anchor="start" x="303.5" y="-18.5" font-family="Helvetica,sans-Serif" font-size="10.00">+ IncrementSelector()</text>
<text text-anchor="start" x="303.5" y="-7.5" font-family="Helvetica,sans-Serif" font-size="10.00">+ IncrementSelector()</text>
</a>
</g>
</g>
<!-- Node2 -->
<g id="node2" class="node"><title>Node2</title>
<g id="a_node2"><a xlink:href="../../d1/d94/classGenericIncrementSelector.html" target="_top" xlink:title=" ">
<polygon fill="white" stroke="black" points="279,-106.5 279,-196.5 434,-196.5 434,-106.5 279,-106.5"/>
<text text-anchor="middle" x="356.5" y="-184.5" font-family="Helvetica,sans-Serif" font-size="10.00">GenericIncrementSelector&lt; N &gt;</text>
<polyline fill="none" stroke="black" points="279,-177.5 434,-177.5 "/>
<text text-anchor="start" x="287" y="-165.5" font-family="Helvetica,sans-Serif" font-size="10.00">&#45; wrap</text>
<polyline fill="none" stroke="black" points="279,-158.5 434,-158.5 "/>
<text text-anchor="start" x="287" y="-146.5" font-family="Helvetica,sans-Serif" font-size="10.00">+ GenericIncrementSelector()</text>
<text text-anchor="start" x="287" y="-135.5" font-family="Helvetica,sans-Serif" font-size="10.00">+ begin()</text>
<text text-anchor="start" x="287" y="-124.5" font-family="Helvetica,sans-Serif" font-size="10.00">+ update()</text>
<text text-anchor="start" x="287" y="-113.5" font-family="Helvetica,sans-Serif" font-size="10.00">+ getButtonState()</text>
</a>
</g>
</g>
<!-- Node2&#45;&gt;Node1 -->
<g id="edge1" class="edge"><title>Node2&#45;&gt;Node1</title>
<path fill="none" stroke="midnightblue" d="M356.5,-96.2309C356.5,-86.8035 356.5,-77.2599 356.5,-68.6181"/>
<polygon fill="none" stroke="midnightblue" points="353,-96.3669 356.5,-106.367 360,-96.3669 353,-96.3669"/>
</g>
<!-- Node3 -->
<g id="node3" class="node"><title>Node3</title>
<g id="a_node3"><a xlink:href="../../d0/d04/classGenericSelector.html" target="_top" xlink:title=" ">
<polygon fill="white" stroke="black" points="131,-244.5 131,-378.5 262,-378.5 262,-244.5 131,-244.5"/>
<text text-anchor="start" x="139" y="-366.5" font-family="Helvetica,sans-Serif" font-size="10.00">GenericSelector&lt; N,</text>
<text text-anchor="middle" x="196.5" y="-355.5" font-family="Helvetica,sans-Serif" font-size="10.00"> EmptySelectorCallback &gt;</text>
<polyline fill="none" stroke="black" points="131,-348.5 262,-348.5 "/>
<text text-anchor="start" x="139" y="-336.5" font-family="Helvetica,sans-Serif" font-size="10.00">&#45; selectable</text>
<polyline fill="none" stroke="black" points="131,-329.5 262,-329.5 "/>
<text text-anchor="start" x="139" y="-317.5" font-family="Helvetica,sans-Serif" font-size="10.00">+ GenericSelector()</text>
<text text-anchor="start" x="139" y="-306.5" font-family="Helvetica,sans-Serif" font-size="10.00">+ begin()</text>
<text text-anchor="start" x="139" y="-295.5" font-family="Helvetica,sans-Serif" font-size="10.00">+ update()</text>
<text text-anchor="start" x="139" y="-284.5" font-family="Helvetica,sans-Serif" font-size="10.00">+ reset()</text>
<text text-anchor="start" x="139" y="-273.5" font-family="Helvetica,sans-Serif" font-size="10.00">+ set()</text>
<text text-anchor="start" x="139" y="-262.5" font-family="Helvetica,sans-Serif" font-size="10.00">+ increment()</text>
<text text-anchor="start" x="139" y="-251.5" font-family="Helvetica,sans-Serif" font-size="10.00">+ decrement()</text>
</a>
</g>
</g>
<!-- Node3&#45;&gt;Node2 -->
<g id="edge2" class="edge"><title>Node3&#45;&gt;Node2</title>
<path fill="none" stroke="midnightblue" d="M269.543,-238.37C283.964,-224.13 298.688,-209.589 311.823,-196.618"/>
<polygon fill="none" stroke="midnightblue" points="266.696,-236.263 262.04,-245.779 271.614,-241.243 266.696,-236.263"/>
</g>
<!-- Node4 -->
<g id="node4" class="node"><title>Node4</title>
<g id="a_node4"><a xlink:href="../../dc/d77/classSelectorBase.html" target="_top" xlink:title="Base class for all Selectors exposing the get method, so it can be used by display elements etc,...">
<polygon fill="white" stroke="black" points="0,-498 0,-566 89,-566 89,-498 0,-498"/>
<text text-anchor="middle" x="44.5" y="-554" font-family="Helvetica,sans-Serif" font-size="10.00">SelectorBase</text>
<polyline fill="none" stroke="black" points="0,-547 89,-547 "/>
<text text-anchor="start" x="8" y="-535" font-family="Helvetica,sans-Serif" font-size="10.00"># setting</text>
<polyline fill="none" stroke="black" points="0,-528 89,-528 "/>
<text text-anchor="start" x="8" y="-516" font-family="Helvetica,sans-Serif" font-size="10.00">+ get()</text>
<text text-anchor="start" x="8" y="-505" font-family="Helvetica,sans-Serif" font-size="10.00"># SelectorBase()</text>
</a>
</g>
</g>
<!-- Node4&#45;&gt;Node3 -->
<g id="edge3" class="edge"><title>Node4&#45;&gt;Node3</title>
<path fill="none" stroke="midnightblue" d="M63.0535,-488.339C72.3296,-468.712 84.3713,-445.508 97.5,-426 108.303,-409.947 121.133,-393.692 133.915,-378.691"/>
<polygon fill="none" stroke="midnightblue" points="59.7649,-487.111 58.7293,-497.655 66.1143,-490.059 59.7649,-487.111"/>
</g>
<!-- Node5 -->
<g id="node5" class="node"><title>Node5</title>
<g id="a_node5"><a xlink:href="../../d1/d55/classAH_1_1Updatable.html" target="_top" xlink:title=" ">
<polygon fill="white" stroke="black" points="107,-426.5 107,-637.5 200,-637.5 200,-426.5 107,-426.5"/>
<text text-anchor="middle" x="153.5" y="-625.5" font-family="Helvetica,sans-Serif" font-size="10.00">AH::Updatable&lt;&gt;</text>
<polyline fill="none" stroke="black" points="107,-618.5 200,-618.5 "/>
<text text-anchor="middle" x="153.5" y="-606.5" font-family="Helvetica,sans-Serif" font-size="10.00"> </text>
<polyline fill="none" stroke="black" points="107,-599.5 200,-599.5 "/>
<text text-anchor="start" x="115" y="-587.5" font-family="Helvetica,sans-Serif" font-size="10.00">+ ~Updatable()</text>
<text text-anchor="start" x="115" y="-576.5" font-family="Helvetica,sans-Serif" font-size="10.00">+ update()</text>
<text text-anchor="start" x="115" y="-565.5" font-family="Helvetica,sans-Serif" font-size="10.00">+ begin()</text>
<text text-anchor="start" x="115" y="-554.5" font-family="Helvetica,sans-Serif" font-size="10.00">+ enable()</text>
<text text-anchor="start" x="115" y="-543.5" font-family="Helvetica,sans-Serif" font-size="10.00">+ disable()</text>
<text text-anchor="start" x="115" y="-532.5" font-family="Helvetica,sans-Serif" font-size="10.00">+ isEnabled()</text>
<text text-anchor="start" x="115" y="-521.5" font-family="Helvetica,sans-Serif" font-size="10.00">+ enable()</text>
<text text-anchor="start" x="115" y="-510.5" font-family="Helvetica,sans-Serif" font-size="10.00">+ enable()</text>
<text text-anchor="start" x="115" y="-499.5" font-family="Helvetica,sans-Serif" font-size="10.00">+ enable()</text>
<text text-anchor="start" x="115" y="-488.5" font-family="Helvetica,sans-Serif" font-size="10.00">+ disable()</text>
<text text-anchor="start" x="115" y="-477.5" font-family="Helvetica,sans-Serif" font-size="10.00">+ disable()</text>
<text text-anchor="start" x="115" y="-466.5" font-family="Helvetica,sans-Serif" font-size="10.00">+ disable()</text>
<text text-anchor="start" x="115" y="-455.5" font-family="Helvetica,sans-Serif" font-size="10.00">+ beginAll()</text>
<text text-anchor="start" x="115" y="-444.5" font-family="Helvetica,sans-Serif" font-size="10.00">+ updateAll()</text>
<text text-anchor="start" x="115" y="-433.5" font-family="Helvetica,sans-Serif" font-size="10.00"># Updatable()</text>
</a>
</g>
</g>
<!-- Node5&#45;&gt;Node3 -->
<g id="edge4" class="edge"><title>Node5&#45;&gt;Node3</title>
<path fill="none" stroke="midnightblue" d="M176.063,-416.348C178.604,-403.435 181.126,-390.623 183.485,-378.636"/>
<polygon fill="none" stroke="midnightblue" points="172.615,-415.742 174.118,-426.23 179.484,-417.094 172.615,-415.742"/>
</g>
<!-- Node6 -->
<g id="node6" class="node"><title>Node6</title>
<g id="a_node6"><a xlink:href="../../d4/d23/classDoublyLinkable.html" target="_top" xlink:title=" ">
<polygon fill="white" stroke="black" points="104,-1270.5 104,-1349.5 241,-1349.5 241,-1270.5 104,-1270.5"/>
<text text-anchor="start" x="112" y="-1337.5" font-family="Helvetica,sans-Serif" font-size="10.00">DoublyLinkable&lt; Updatable</text>
<text text-anchor="middle" x="172.5" y="-1326.5" font-family="Helvetica,sans-Serif" font-size="10.00">&lt; NormalUpdatable &gt; &gt;</text>
<polyline fill="none" stroke="black" points="104,-1319.5 241,-1319.5 "/>
<text text-anchor="start" x="112" y="-1307.5" font-family="Helvetica,sans-Serif" font-size="10.00"># next</text>
<text text-anchor="start" x="112" y="-1296.5" font-family="Helvetica,sans-Serif" font-size="10.00"># previous</text>
<polyline fill="none" stroke="black" points="104,-1289.5 241,-1289.5 "/>
<text text-anchor="start" x="112" y="-1277.5" font-family="Helvetica,sans-Serif" font-size="10.00"># ~DoublyLinkable()</text>
</a>
</g>
</g>
<!-- Node6&#45;&gt;Node5 -->
<g id="edge5" class="edge"><title>Node6&#45;&gt;Node5</title>
<path fill="none" stroke="midnightblue" d="M160.706,-1260.22C158.965,-1251.22 157.442,-1241.87 156.5,-1233 134.15,-1022.72 140.796,-774.909 147.347,-637.728"/>
<polygon fill="none" stroke="midnightblue" points="157.311,-1261.09 162.744,-1270.19 164.169,-1259.69 157.311,-1261.09"/>
</g>
<!-- Node8 -->
<g id="node8" class="node"><title>Node8</title>
<g id="a_node8"><a xlink:href="../../d1/d55/classAH_1_1Updatable.html" target="_top" xlink:title=" ">
<polygon fill="white" stroke="black" points="166,-1021.5 166,-1232.5 341,-1232.5 341,-1021.5 166,-1021.5"/>
<text text-anchor="middle" x="253.5" y="-1220.5" font-family="Helvetica,sans-Serif" font-size="10.00">AH::Updatable&lt; NormalUpdatable &gt;</text>
<polyline fill="none" stroke="black" points="166,-1213.5 341,-1213.5 "/>
<text text-anchor="middle" x="253.5" y="-1201.5" font-family="Helvetica,sans-Serif" font-size="10.00"> </text>
<polyline fill="none" stroke="black" points="166,-1194.5 341,-1194.5 "/>
<text text-anchor="start" x="174" y="-1182.5" font-family="Helvetica,sans-Serif" font-size="10.00">+ ~Updatable()</text>
<text text-anchor="start" x="174" y="-1171.5" font-family="Helvetica,sans-Serif" font-size="10.00">+ update()</text>
<text text-anchor="start" x="174" y="-1160.5" font-family="Helvetica,sans-Serif" font-size="10.00">+ begin()</text>
<text text-anchor="start" x="174" y="-1149.5" font-family="Helvetica,sans-Serif" font-size="10.00">+ enable()</text>
<text text-anchor="start" x="174" y="-1138.5" font-family="Helvetica,sans-Serif" font-size="10.00">+ disable()</text>
<text text-anchor="start" x="174" y="-1127.5" font-family="Helvetica,sans-Serif" font-size="10.00">+ isEnabled()</text>
<text text-anchor="start" x="174" y="-1116.5" font-family="Helvetica,sans-Serif" font-size="10.00">+ enable()</text>
<text text-anchor="start" x="174" y="-1105.5" font-family="Helvetica,sans-Serif" font-size="10.00">+ enable()</text>
<text text-anchor="start" x="174" y="-1094.5" font-family="Helvetica,sans-Serif" font-size="10.00">+ enable()</text>
<text text-anchor="start" x="174" y="-1083.5" font-family="Helvetica,sans-Serif" font-size="10.00">+ disable()</text>
<text text-anchor="start" x="174" y="-1072.5" font-family="Helvetica,sans-Serif" font-size="10.00">+ disable()</text>
<text text-anchor="start" x="174" y="-1061.5" font-family="Helvetica,sans-Serif" font-size="10.00">+ disable()</text>
<text text-anchor="start" x="174" y="-1050.5" font-family="Helvetica,sans-Serif" font-size="10.00">+ beginAll()</text>
<text text-anchor="start" x="174" y="-1039.5" font-family="Helvetica,sans-Serif" font-size="10.00">+ updateAll()</text>
<text text-anchor="start" x="174" y="-1028.5" font-family="Helvetica,sans-Serif" font-size="10.00"># Updatable()</text>
</a>
</g>
</g>
<!-- Node6&#45;&gt;Node8 -->
<g id="edge8" class="edge"><title>Node6&#45;&gt;Node8</title>
<path fill="none" stroke="midnightblue" d="M194.058,-1260.83C198.034,-1251.94 202.325,-1242.35 206.717,-1232.54"/>
<polygon fill="none" stroke="midnightblue" points="190.767,-1259.61 189.877,-1270.17 197.156,-1262.47 190.767,-1259.61"/>
</g>
<!-- Node7 -->
<g id="node7" class="node"><title>Node7</title>
<g id="a_node7"><a xlink:href="../../dd/d16/classDoublyLinkedList.html" target="_top" xlink:title=" ">
<polygon fill="white" stroke="black" points="165.5,-685.5 165.5,-962.5 335.5,-962.5 335.5,-685.5 165.5,-685.5"/>
<text text-anchor="start" x="173.5" y="-950.5" font-family="Helvetica,sans-Serif" font-size="10.00">DoublyLinkedList&lt; AH</text>
<text text-anchor="middle" x="250.5" y="-939.5" font-family="Helvetica,sans-Serif" font-size="10.00">::Updatable&lt; NormalUpdatable &gt; &gt;</text>
<polyline fill="none" stroke="black" points="165.5,-932.5 335.5,-932.5 "/>
<text text-anchor="middle" x="250.5" y="-920.5" font-family="Helvetica,sans-Serif" font-size="10.00"> </text>
<polyline fill="none" stroke="black" points="165.5,-913.5 335.5,-913.5 "/>
<text text-anchor="start" x="173.5" y="-901.5" font-family="Helvetica,sans-Serif" font-size="10.00">+ append()</text>
<text text-anchor="start" x="173.5" y="-890.5" font-family="Helvetica,sans-Serif" font-size="10.00">+ append()</text>
<text text-anchor="start" x="173.5" y="-879.5" font-family="Helvetica,sans-Serif" font-size="10.00">+ insertBefore()</text>
<text text-anchor="start" x="173.5" y="-868.5" font-family="Helvetica,sans-Serif" font-size="10.00">+ insertBefore()</text>
<text text-anchor="start" x="173.5" y="-857.5" font-family="Helvetica,sans-Serif" font-size="10.00">+ insertSorted()</text>
<text text-anchor="start" x="173.5" y="-846.5" font-family="Helvetica,sans-Serif" font-size="10.00">+ insertSorted()</text>
<text text-anchor="start" x="173.5" y="-835.5" font-family="Helvetica,sans-Serif" font-size="10.00">+ remove()</text>
<text text-anchor="start" x="173.5" y="-824.5" font-family="Helvetica,sans-Serif" font-size="10.00">+ remove()</text>
<text text-anchor="start" x="173.5" y="-813.5" font-family="Helvetica,sans-Serif" font-size="10.00">+ moveDown()</text>
<text text-anchor="start" x="173.5" y="-802.5" font-family="Helvetica,sans-Serif" font-size="10.00">+ couldContain()</text>
<text text-anchor="start" x="173.5" y="-791.5" font-family="Helvetica,sans-Serif" font-size="10.00">+ begin()</text>
<text text-anchor="start" x="173.5" y="-780.5" font-family="Helvetica,sans-Serif" font-size="10.00">+ begin()</text>
<text text-anchor="start" x="173.5" y="-769.5" font-family="Helvetica,sans-Serif" font-size="10.00">+ end()</text>
<text text-anchor="start" x="173.5" y="-758.5" font-family="Helvetica,sans-Serif" font-size="10.00">+ end()</text>
<text text-anchor="start" x="173.5" y="-747.5" font-family="Helvetica,sans-Serif" font-size="10.00">+ rbegin()</text>
<text text-anchor="start" x="173.5" y="-736.5" font-family="Helvetica,sans-Serif" font-size="10.00">+ rbegin()</text>
<text text-anchor="start" x="173.5" y="-725.5" font-family="Helvetica,sans-Serif" font-size="10.00">+ rend()</text>
<text text-anchor="start" x="173.5" y="-714.5" font-family="Helvetica,sans-Serif" font-size="10.00">+ rend()</text>
<text text-anchor="start" x="173.5" y="-703.5" font-family="Helvetica,sans-Serif" font-size="10.00">+ getFirst()</text>
<text text-anchor="start" x="173.5" y="-692.5" font-family="Helvetica,sans-Serif" font-size="10.00">+ getLast()</text>
</a>
</g>
</g>
<!-- Node7&#45;&gt;Node5 -->
<g id="edge6" class="edge"><title>Node7&#45;&gt;Node5</title>
<path fill="none" stroke="#404040" d="M204.415,-685.219C200.419,-673.272 196.401,-661.259 192.469,-649.507"/>
<polygon fill="none" stroke="#404040" points="192.378,-649.233 186.681,-644.812 188.571,-637.853 194.268,-642.274 192.378,-649.233"/>
<text text-anchor="middle" x="223.5" y="-659" font-family="Helvetica,sans-Serif" font-size="10.00"> &#45;updatables</text>
</g>
<!-- Node7&#45;&gt;Node8 -->
<g id="edge9" class="edge"><title>Node7&#45;&gt;Node8</title>
<path fill="none" stroke="#404040" d="M252.311,-962.806C252.378,-968.955 252.441,-975.041 252.5,-981 252.591,-990.204 252.676,-999.736 252.755,-1009.32"/>
<polygon fill="none" stroke="#404040" points="252.756,-1009.45 256.804,-1015.42 252.853,-1021.45 248.805,-1015.49 252.756,-1009.45"/>
<text text-anchor="middle" x="280.5" y="-989.5" font-family="Helvetica,sans-Serif" font-size="10.00"> &#45;updatables</text>
</g>
<!-- Node8&#45;&gt;Node7 -->
<g id="edge7" class="edge"><title>Node8&#45;&gt;Node7</title>
<path fill="none" stroke="#404040" d="M232.557,-1021.17C231.75,-1015.04 231.051,-1008.95 230.5,-1003 229.652,-993.856 229.266,-984.453 229.247,-974.972"/>
<polygon fill="none" stroke="#404040" points="229.247,-974.934 225.33,-968.88 229.411,-962.935 233.329,-968.989 229.247,-974.934"/>
<text text-anchor="middle" x="241.5" y="-995" font-family="Helvetica,sans-Serif" font-size="10.00"> &#45;last</text>
<text text-anchor="middle" x="241.5" y="-984" font-family="Helvetica,sans-Serif" font-size="10.00">&#45;first</text>
</g>
<!-- Node9 -->
<g id="node9" class="node"><title>Node9</title>
<g id="a_node9"><a xlink:href="../../d3/d8b/structEmptySelectorCallback.html" target="_top" xlink:title="A callback for the GenericSelector class that does nothing.">
<polygon fill="white" stroke="black" points="218,-492.5 218,-571.5 337,-571.5 337,-492.5 218,-492.5"/>
<text text-anchor="middle" x="277.5" y="-559.5" font-family="Helvetica,sans-Serif" font-size="10.00">EmptySelectorCallback</text>
<polyline fill="none" stroke="black" points="218,-552.5 337,-552.5 "/>
<text text-anchor="middle" x="277.5" y="-540.5" font-family="Helvetica,sans-Serif" font-size="10.00"> </text>
<polyline fill="none" stroke="black" points="218,-533.5 337,-533.5 "/>
<text text-anchor="start" x="226" y="-521.5" font-family="Helvetica,sans-Serif" font-size="10.00">+ begin()</text>
<text text-anchor="start" x="226" y="-510.5" font-family="Helvetica,sans-Serif" font-size="10.00">+ update()</text>
<text text-anchor="start" x="226" y="-499.5" font-family="Helvetica,sans-Serif" font-size="10.00">+ update()</text>
</a>
</g>
</g>
<!-- Node9&#45;&gt;Node3 -->
<g id="edge10" class="edge"><title>Node9&#45;&gt;Node3</title>
<path fill="none" stroke="#404040" d="M263.205,-492.44C252.719,-464.151 238.124,-424.782 225.259,-390.079"/>
<polygon fill="none" stroke="#404040" points="225.143,-389.764 219.306,-385.528 220.971,-378.512 226.808,-382.748 225.143,-389.764"/>
<text text-anchor="middle" x="253.5" y="-400" font-family="Helvetica,sans-Serif" font-size="10.00"> +callback</text>
</g>
<!-- Node10 -->
<g id="node10" class="node"><title>Node10</title>
<g id="a_node10"><a xlink:href="../../d7/d83/classAH_1_1IncrementButton.html" target="_top" xlink:title="A class for buttons that increment some counter or setting.">
<polygon fill="white" stroke="black" points="346,-250 346,-373 473,-373 473,-250 346,-250"/>
<text text-anchor="middle" x="409.5" y="-361" font-family="Helvetica,sans-Serif" font-size="10.00">AH::IncrementButton</text>
<polyline fill="none" stroke="black" points="346,-354 473,-354 "/>
<text text-anchor="start" x="354" y="-342" font-family="Helvetica,sans-Serif" font-size="10.00">&#45; longPressState</text>
<text text-anchor="start" x="354" y="-331" font-family="Helvetica,sans-Serif" font-size="10.00">&#45; longPressRepeat</text>
<text text-anchor="start" x="354" y="-320" font-family="Helvetica,sans-Serif" font-size="10.00">&#45; state</text>
<polyline fill="none" stroke="black" points="346,-313 473,-313 "/>
<text text-anchor="start" x="354" y="-301" font-family="Helvetica,sans-Serif" font-size="10.00">+ IncrementButton()</text>
<text text-anchor="start" x="354" y="-290" font-family="Helvetica,sans-Serif" font-size="10.00">+ begin()</text>
<text text-anchor="start" x="354" y="-279" font-family="Helvetica,sans-Serif" font-size="10.00">+ update()</text>
<text text-anchor="start" x="354" y="-268" font-family="Helvetica,sans-Serif" font-size="10.00">+ getState()</text>
<text text-anchor="start" x="354" y="-257" font-family="Helvetica,sans-Serif" font-size="10.00"># updateImplementation()</text>
</a>
</g>
</g>
<!-- Node10&#45;&gt;Node2 -->
<g id="edge11" class="edge"><title>Node10&#45;&gt;Node2</title>
<path fill="none" stroke="#404040" d="M389.16,-249.865C384.554,-236.134 379.686,-221.619 375.153,-208.108"/>
<polygon fill="none" stroke="#404040" points="375.089,-207.915 369.388,-203.499 371.272,-196.538 376.973,-200.954 375.089,-207.915"/>
<text text-anchor="middle" x="397.5" y="-218" font-family="Helvetica,sans-Serif" font-size="10.00"> &#45;button</text>
</g>
<!-- Node11 -->
<g id="node11" class="node"><title>Node11</title>
<g id="a_node11"><a xlink:href="../../de/d0d/classAH_1_1Button.html" target="_top" xlink:title="A class for reading and debouncing buttons and switches.">
<polygon fill="white" stroke="black" points="355,-426.5 355,-637.5 478,-637.5 478,-426.5 355,-426.5"/>
<text text-anchor="middle" x="416.5" y="-625.5" font-family="Helvetica,sans-Serif" font-size="10.00">AH::Button</text>
<polyline fill="none" stroke="black" points="355,-618.5 478,-618.5 "/>
<text text-anchor="start" x="363" y="-606.5" font-family="Helvetica,sans-Serif" font-size="10.00">&#45; pin</text>
<text text-anchor="start" x="363" y="-595.5" font-family="Helvetica,sans-Serif" font-size="10.00">&#45; prevInput</text>
<text text-anchor="start" x="363" y="-584.5" font-family="Helvetica,sans-Serif" font-size="10.00">&#45; debouncedState</text>
<text text-anchor="start" x="363" y="-573.5" font-family="Helvetica,sans-Serif" font-size="10.00">&#45; prevBounceTime</text>
<text text-anchor="start" x="363" y="-562.5" font-family="Helvetica,sans-Serif" font-size="10.00">&#45; invertState</text>
<text text-anchor="start" x="363" y="-551.5" font-family="Helvetica,sans-Serif" font-size="10.00">&#45; debounceTime</text>
<polyline fill="none" stroke="black" points="355,-544.5 478,-544.5 "/>
<text text-anchor="start" x="363" y="-532.5" font-family="Helvetica,sans-Serif" font-size="10.00">+ Button()</text>
<text text-anchor="start" x="363" y="-521.5" font-family="Helvetica,sans-Serif" font-size="10.00">+ Button()</text>
<text text-anchor="start" x="363" y="-510.5" font-family="Helvetica,sans-Serif" font-size="10.00">+ begin()</text>
<text text-anchor="start" x="363" y="-499.5" font-family="Helvetica,sans-Serif" font-size="10.00">+ invert()</text>
<text text-anchor="start" x="363" y="-488.5" font-family="Helvetica,sans-Serif" font-size="10.00">+ update()</text>
<text text-anchor="start" x="363" y="-477.5" font-family="Helvetica,sans-Serif" font-size="10.00">+ getState()</text>
<text text-anchor="start" x="363" y="-466.5" font-family="Helvetica,sans-Serif" font-size="10.00">+ previousBounceTime()</text>
<text text-anchor="start" x="363" y="-455.5" font-family="Helvetica,sans-Serif" font-size="10.00">+ stableTime()</text>
<text text-anchor="start" x="363" y="-444.5" font-family="Helvetica,sans-Serif" font-size="10.00">+ stableTime()</text>
<text text-anchor="start" x="363" y="-433.5" font-family="Helvetica,sans-Serif" font-size="10.00">+ getName()</text>
</a>
</g>
</g>
<!-- Node11&#45;&gt;Node10 -->
<g id="edge12" class="edge"><title>Node11&#45;&gt;Node10</title>
<path fill="none" stroke="#404040" d="M413.144,-426.23C412.702,-412.452 412.258,-398.579 411.838,-385.489"/>
<polygon fill="none" stroke="#404040" points="411.829,-385.202 407.639,-379.333 411.445,-373.208 415.635,-379.077 411.829,-385.202"/>
<text text-anchor="middle" x="429.5" y="-400" font-family="Helvetica,sans-Serif" font-size="10.00"> &#45;button</text>
</g>
</g>
</svg>
