<?xml version="1.0" encoding="UTF-8" standalone="no"?>
<!DOCTYPE svg PUBLIC "-//W3C//DTD SVG 1.1//EN"
 "http://www.w3.org/Graphics/SVG/1.1/DTD/svg11.dtd">
<!-- Generated by graphviz version 2.43.0 (0)
 -->
<!-- Title: MIDIButtonLatched&lt; NumBanks, BankAddress, Sender &gt; Pages: 1 -->
<svg width="779pt" height="748pt"
 viewBox="0.00 0.00 778.68 748.00" xmlns="http://www.w3.org/2000/svg" xmlns:xlink="http://www.w3.org/1999/xlink">
<g id="graph0" class="graph" transform="scale(1 1) rotate(0) translate(4 744)">
<title>MIDIButtonLatched&lt; NumBanks, BankAddress, Sender &gt;</title>
<!-- Node1 -->
<g id="Node000001" class="node">
<title>Node1</title>
<g id="a_Node000001"><a xlink:title="A class for momentary buttons and switches that send MIDI events.">
<polygon fill="#999999" stroke="transparent" points="593.18,-200.5 453.18,-200.5 453.18,-24.5 593.18,-24.5 593.18,-200.5"/>
<text text-anchor="start" x="458.18" y="-188.5" font-family="Helvetica,sans-Serif" font-size="10.00">MIDIButtonLatched&lt;</text>
<text text-anchor="start" x="458.18" y="-177.5" font-family="Helvetica,sans-Serif" font-size="10.00"> NumBanks, BankAddress,</text>
<text text-anchor="start" x="498.68" y="-166.5" font-family="Helvetica,sans-Serif" font-size="10.00"> Sender &gt;</text>
<text text-anchor="start" x="461.68" y="-151.5" font-family="Helvetica,sans-Serif" font-size="10.00">+</text>
<text text-anchor="start" x="479.18" y="-151.5" font-family="Helvetica,sans-Serif" font-size="10.00">sender</text>
<text text-anchor="start" x="461.68" y="-136.5" font-family="Helvetica,sans-Serif" font-size="10.00">#</text>
<text text-anchor="start" x="479.18" y="-136.5" font-family="Helvetica,sans-Serif" font-size="10.00">address</text>
<text text-anchor="start" x="461.68" y="-121.5" font-family="Helvetica,sans-Serif" font-size="10.00">+</text>
<text text-anchor="start" x="479.18" y="-121.5" font-family="Helvetica,sans-Serif" font-size="10.00">begin()</text>
<text text-anchor="start" x="461.68" y="-106.5" font-family="Helvetica,sans-Serif" font-size="10.00">+</text>
<text text-anchor="start" x="479.18" y="-106.5" font-family="Helvetica,sans-Serif" font-size="10.00">update()</text>
<text text-anchor="start" x="461.68" y="-91.5" font-family="Helvetica,sans-Serif" font-size="10.00">+</text>
<text text-anchor="start" x="479.18" y="-91.5" font-family="Helvetica,sans-Serif" font-size="10.00">toggleState()</text>
<text text-anchor="start" x="461.68" y="-76.5" font-family="Helvetica,sans-Serif" font-size="10.00">+</text>
<text text-anchor="start" x="479.18" y="-76.5" font-family="Helvetica,sans-Serif" font-size="10.00">getState()</text>
<text text-anchor="start" x="461.68" y="-61.5" font-family="Helvetica,sans-Serif" font-size="10.00">+</text>
<text text-anchor="start" x="479.18" y="-61.5" font-family="Helvetica,sans-Serif" font-size="10.00">setState()</text>
<text text-anchor="start" x="461.68" y="-46.5" font-family="Helvetica,sans-Serif" font-size="10.00">+</text>
<text text-anchor="start" x="479.18" y="-46.5" font-family="Helvetica,sans-Serif" font-size="10.00">getButtonState()</text>
<text text-anchor="start" x="461.68" y="-31.5" font-family="Helvetica,sans-Serif" font-size="10.00">#</text>
<text text-anchor="start" x="479.18" y="-31.5" font-family="Helvetica,sans-Serif" font-size="10.00">MIDIButtonLatched()</text>
<polygon fill="#666666" stroke="#666666" points="453.18,-161.5 453.18,-161.5 593.18,-161.5 593.18,-161.5 453.18,-161.5"/>
<polygon fill="#666666" stroke="#666666" points="453.18,-131.5 453.18,-131.5 477.18,-131.5 477.18,-131.5 453.18,-131.5"/>
<polygon fill="#666666" stroke="#666666" points="477.18,-131.5 477.18,-131.5 593.18,-131.5 593.18,-131.5 477.18,-131.5"/>
<polygon fill="none" stroke="#666666" points="453.18,-24.5 453.18,-200.5 593.18,-200.5 593.18,-24.5 453.18,-24.5"/>
</a>
</g>
</g>
<!-- Node2 -->
<g id="Node000002" class="node">
<title>Node2</title>
<g id="a_Node000002"><a xlink:href="../../d1/d55/classAH_1_1Updatable.html" target="_top" xlink:title="A super class for object that have to be updated regularly.">
<polygon fill="white" stroke="transparent" points="441.68,-454.5 334.68,-454.5 334.68,-360.5 441.68,-360.5 441.68,-454.5"/>
<text text-anchor="start" x="340.18" y="-442.5" font-family="Helvetica,sans-Serif" font-size="10.00">MIDIOutputElement</text>
<text text-anchor="start" x="386.68" y="-427.5" font-family="Helvetica,sans-Serif" font-size="10.00"> </text>
<text text-anchor="start" x="347.68" y="-412.5" font-family="Helvetica,sans-Serif" font-size="10.00">*</text>
<text text-anchor="start" x="366.18" y="-412.5" font-family="Helvetica,sans-Serif" font-size="10.00">begin()</text>
<text text-anchor="start" x="347.68" y="-397.5" font-family="Helvetica,sans-Serif" font-size="10.00">*</text>
<text text-anchor="start" x="366.18" y="-397.5" font-family="Helvetica,sans-Serif" font-size="10.00">update()</text>
<text text-anchor="start" x="347.68" y="-382.5" font-family="Helvetica,sans-Serif" font-size="10.00">*</text>
<text text-anchor="start" x="366.18" y="-382.5" font-family="Helvetica,sans-Serif" font-size="10.00">beginAll()</text>
<text text-anchor="start" x="347.68" y="-367.5" font-family="Helvetica,sans-Serif" font-size="10.00">*</text>
<text text-anchor="start" x="366.18" y="-367.5" font-family="Helvetica,sans-Serif" font-size="10.00">updateAll()</text>
<polygon fill="#666666" stroke="#666666" points="335.18,-437.5 335.18,-437.5 442.18,-437.5 442.18,-437.5 335.18,-437.5"/>
<polygon fill="#666666" stroke="#666666" points="335.18,-422.5 335.18,-422.5 442.18,-422.5 442.18,-422.5 335.18,-422.5"/>
<polygon fill="none" stroke="#666666" points="334.68,-360.5 334.68,-454.5 441.68,-454.5 441.68,-360.5 334.68,-360.5"/>
</a>
</g>
</g>
<!-- Node2&#45;&gt;Node1 -->
<g id="edge1_Node000001_Node000002" class="edge">
<title>Node2&#45;&gt;Node1</title>
<g id="a_edge1_Node000001_Node000002"><a xlink:title=" ">
<path fill="none" stroke="#63b8ff" d="M413.72,-351.07C433.26,-308.66 460.58,-249.36 483.04,-200.62"/>
<polygon fill="none" stroke="#63b8ff" points="410.43,-349.85 409.42,-360.4 416.79,-352.78 410.43,-349.85"/>
</a>
</g>
</g>
<!-- Node3 -->
<g id="Node000003" class="node">
<title>Node3</title>
<g id="a_Node000003"><a xlink:href="../../d8/d1a/classAH_1_1UpdatableCRTP.html" target="_top" xlink:title=" ">
<polygon fill="white" stroke="transparent" points="323.68,-740 176.68,-740 176.68,-575 323.68,-575 323.68,-740"/>
<text text-anchor="start" x="182.18" y="-727.5" font-family="Helvetica,sans-Serif" font-size="10.00">UpdatableCRTP&lt; Updatable</text>
<text text-anchor="start" x="190.18" y="-716.5" font-family="Helvetica,sans-Serif" font-size="10.00">&lt; NormalUpdatable &gt; &gt;</text>
<text text-anchor="start" x="189.68" y="-701.5" font-family="Helvetica,sans-Serif" font-size="10.00">#</text>
<text text-anchor="start" x="211.18" y="-701.5" font-family="Helvetica,sans-Serif" font-size="10.00">next</text>
<text text-anchor="start" x="189.68" y="-686.5" font-family="Helvetica,sans-Serif" font-size="10.00">#</text>
<text text-anchor="start" x="211.18" y="-686.5" font-family="Helvetica,sans-Serif" font-size="10.00">previous</text>
<text text-anchor="start" x="189.68" y="-671.5" font-family="Helvetica,sans-Serif" font-size="10.00">+</text>
<text text-anchor="start" x="211.18" y="-671.5" font-family="Helvetica,sans-Serif" font-size="10.00">~UpdatableCRTP()</text>
<text text-anchor="start" x="189.68" y="-656.5" font-family="Helvetica,sans-Serif" font-size="10.00">#</text>
<text text-anchor="start" x="211.18" y="-656.5" font-family="Helvetica,sans-Serif" font-size="10.00">UpdatableCRTP()</text>
<text text-anchor="start" x="189.68" y="-641.5" font-family="Helvetica,sans-Serif" font-size="10.00">#</text>
<text text-anchor="start" x="211.18" y="-641.5" font-family="Helvetica,sans-Serif" font-size="10.00">operator=()</text>
<text text-anchor="start" x="191.18" y="-626.5" font-family="Helvetica,sans-Serif" font-size="10.00">*</text>
<text text-anchor="start" x="211.18" y="-626.5" font-family="Helvetica,sans-Serif" font-size="10.00">enable()</text>
<text text-anchor="start" x="191.18" y="-611.5" font-family="Helvetica,sans-Serif" font-size="10.00">*</text>
<text text-anchor="start" x="211.18" y="-611.5" font-family="Helvetica,sans-Serif" font-size="10.00">disable()</text>
<text text-anchor="start" x="191.18" y="-596.5" font-family="Helvetica,sans-Serif" font-size="10.00">*</text>
<text text-anchor="start" x="211.18" y="-596.5" font-family="Helvetica,sans-Serif" font-size="10.00">isEnabled()</text>
<text text-anchor="start" x="191.18" y="-581.5" font-family="Helvetica,sans-Serif" font-size="10.00">*</text>
<text text-anchor="start" x="211.18" y="-581.5" font-family="Helvetica,sans-Serif" font-size="10.00">moveDown()</text>
<polygon fill="#666666" stroke="#666666" points="177.18,-711.5 177.18,-711.5 324.18,-711.5 324.18,-711.5 177.18,-711.5"/>
<polygon fill="#666666" stroke="#666666" points="177.18,-681.5 177.18,-681.5 209.18,-681.5 209.18,-681.5 177.18,-681.5"/>
<polygon fill="#666666" stroke="#666666" points="209.18,-681.5 209.18,-681.5 324.18,-681.5 324.18,-681.5 209.18,-681.5"/>
<polygon fill="none" stroke="#666666" points="176.68,-575 176.68,-740 323.68,-740 323.68,-575 176.68,-575"/>
</a>
</g>
</g>
<!-- Node3&#45;&gt;Node2 -->
<g id="edge2_Node000002_Node000003" class="edge">
<title>Node3&#45;&gt;Node2</title>
<g id="a_edge2_Node000002_Node000003"><a xlink:title=" ">
<path fill="none" stroke="#63b8ff" d="M314.79,-566.12C316.64,-563.07 318.45,-560.02 320.18,-557 339.17,-523.93 356.98,-484.61 369.6,-454.75"/>
<polygon fill="none" stroke="#63b8ff" points="311.74,-564.4 309.44,-574.74 317.69,-568.09 311.74,-564.4"/>
</a>
</g>
</g>
<!-- Node5 -->
<g id="Node000005" class="node">
<title>Node5</title>
<g id="a_Node000005"><a xlink:href="../../d1/d55/classAH_1_1Updatable.html" target="_top" xlink:title=" ">
<polygon fill="white" stroke="transparent" points="278.18,-499.5 108.18,-499.5 108.18,-315.5 278.18,-315.5 278.18,-499.5"/>
<text text-anchor="start" x="113.18" y="-487.5" font-family="Helvetica,sans-Serif" font-size="10.00">Updatable&lt; NormalUpdatable &gt;</text>
<text text-anchor="start" x="133.18" y="-472.5" font-family="Helvetica,sans-Serif" font-size="10.00">#</text>
<text text-anchor="start" x="167.18" y="-472.5" font-family="Helvetica,sans-Serif" font-size="10.00">next</text>
<text text-anchor="start" x="133.18" y="-457.5" font-family="Helvetica,sans-Serif" font-size="10.00">#</text>
<text text-anchor="start" x="167.18" y="-457.5" font-family="Helvetica,sans-Serif" font-size="10.00">previous</text>
<text text-anchor="start" x="133.18" y="-442.5" font-family="Helvetica,sans-Serif" font-size="10.00">#</text>
<text text-anchor="start" x="167.18" y="-442.5" font-family="Helvetica,sans-Serif" font-size="10.00">updatables</text>
<text text-anchor="start" x="134.68" y="-427.5" font-family="Helvetica,sans-Serif" font-size="10.00">*</text>
<text text-anchor="start" x="167.18" y="-427.5" font-family="Helvetica,sans-Serif" font-size="10.00">begin()</text>
<text text-anchor="start" x="134.68" y="-412.5" font-family="Helvetica,sans-Serif" font-size="10.00">*</text>
<text text-anchor="start" x="167.18" y="-412.5" font-family="Helvetica,sans-Serif" font-size="10.00">update()</text>
<text text-anchor="start" x="134.68" y="-397.5" font-family="Helvetica,sans-Serif" font-size="10.00">*</text>
<text text-anchor="start" x="167.18" y="-397.5" font-family="Helvetica,sans-Serif" font-size="10.00">beginAll()</text>
<text text-anchor="start" x="134.68" y="-382.5" font-family="Helvetica,sans-Serif" font-size="10.00">*</text>
<text text-anchor="start" x="167.18" y="-382.5" font-family="Helvetica,sans-Serif" font-size="10.00">updateAll()</text>
<text text-anchor="start" x="134.68" y="-367.5" font-family="Helvetica,sans-Serif" font-size="10.00">*</text>
<text text-anchor="start" x="167.18" y="-367.5" font-family="Helvetica,sans-Serif" font-size="10.00">enable()</text>
<text text-anchor="start" x="134.68" y="-352.5" font-family="Helvetica,sans-Serif" font-size="10.00">*</text>
<text text-anchor="start" x="167.18" y="-352.5" font-family="Helvetica,sans-Serif" font-size="10.00">disable()</text>
<text text-anchor="start" x="134.68" y="-337.5" font-family="Helvetica,sans-Serif" font-size="10.00">*</text>
<text text-anchor="start" x="167.18" y="-337.5" font-family="Helvetica,sans-Serif" font-size="10.00">isEnabled()</text>
<text text-anchor="start" x="134.68" y="-322.5" font-family="Helvetica,sans-Serif" font-size="10.00">*</text>
<text text-anchor="start" x="167.18" y="-322.5" font-family="Helvetica,sans-Serif" font-size="10.00">moveDown()</text>
<polygon fill="#666666" stroke="#666666" points="108.18,-482.5 108.18,-482.5 278.18,-482.5 278.18,-482.5 108.18,-482.5"/>
<polygon fill="#666666" stroke="#666666" points="108.18,-437.5 108.18,-437.5 165.18,-437.5 165.18,-437.5 108.18,-437.5"/>
<polygon fill="#666666" stroke="#666666" points="165.18,-437.5 165.18,-437.5 278.18,-437.5 278.18,-437.5 165.18,-437.5"/>
<polygon fill="none" stroke="#666666" points="108.18,-315.5 108.18,-499.5 278.18,-499.5 278.18,-315.5 108.18,-315.5"/>
</a>
</g>
</g>
<!-- Node3&#45;&gt;Node5 -->
<g id="edge5_Node000005_Node000003" class="edge">
<title>Node3&#45;&gt;Node5</title>
<g id="a_edge5_Node000005_Node000003"><a xlink:title=" ">
<path fill="none" stroke="#63b8ff" d="M229.13,-564.92C224.23,-543.58 219,-520.85 214.1,-499.53"/>
<polygon fill="none" stroke="#63b8ff" points="225.79,-565.99 231.44,-574.95 232.61,-564.42 225.79,-565.99"/>
</a>
</g>
</g>
<!-- Node4 -->
<g id="Node000004" class="node">
<title>Node4</title>
<g id="a_Node000004"><a xlink:href="../../d4/d23/classDoublyLinkable.html" target="_top" xlink:title=" ">
<polygon fill="white" stroke="transparent" points="323.68,-157.5 176.68,-157.5 176.68,-67.5 323.68,-67.5 323.68,-157.5"/>
<text text-anchor="start" x="182.18" y="-145.5" font-family="Helvetica,sans-Serif" font-size="10.00">DoublyLinkable&lt; Updatable</text>
<text text-anchor="start" x="190.18" y="-134.5" font-family="Helvetica,sans-Serif" font-size="10.00">&lt; NormalUpdatable &gt; &gt;</text>
<text text-anchor="start" x="248.68" y="-119.5" font-family="Helvetica,sans-Serif" font-size="10.00"> </text>
<text text-anchor="start" x="189.68" y="-104.5" font-family="Helvetica,sans-Serif" font-size="10.00">#</text>
<text text-anchor="start" x="211.18" y="-104.5" font-family="Helvetica,sans-Serif" font-size="10.00">~DoublyLinkable()</text>
<text text-anchor="start" x="189.68" y="-89.5" font-family="Helvetica,sans-Serif" font-size="10.00">#</text>
<text text-anchor="start" x="211.18" y="-89.5" font-family="Helvetica,sans-Serif" font-size="10.00">DoublyLinkable()</text>
<text text-anchor="start" x="189.68" y="-74.5" font-family="Helvetica,sans-Serif" font-size="10.00">#</text>
<text text-anchor="start" x="211.18" y="-74.5" font-family="Helvetica,sans-Serif" font-size="10.00">operator=()</text>
<polygon fill="#666666" stroke="#666666" points="177.18,-129.5 177.18,-129.5 324.18,-129.5 324.18,-129.5 177.18,-129.5"/>
<polygon fill="#666666" stroke="#666666" points="177.18,-114.5 177.18,-114.5 324.18,-114.5 324.18,-114.5 177.18,-114.5"/>
<polygon fill="none" stroke="#666666" points="176.68,-67.5 176.68,-157.5 323.68,-157.5 323.68,-67.5 176.68,-67.5"/>
</a>
</g>
</g>
<!-- Node4&#45;&gt;Node3 -->
<g id="edge3_Node000003_Node000004" class="edge">
<title>Node4&#45;&gt;Node3</title>
<g id="a_edge3_Node000003_Node000004"><a xlink:title=" ">
<path fill="none" stroke="#63b8ff" d="M267.6,-167.23C274.32,-190.3 281.31,-217.72 285.18,-243 303.95,-365.57 303.78,-399.11 287.18,-522 284.85,-539.28 280.9,-557.48 276.43,-574.71"/>
<polygon fill="none" stroke="#63b8ff" points="270.95,-166.21 264.74,-157.62 264.24,-168.21 270.95,-166.21"/>
</a>
</g>
</g>
<!-- Node5&#45;&gt;Node4 -->
<g id="edge4_Node000004_Node000005" class="edge">
<title>Node5&#45;&gt;Node4</title>
<g id="a_edge4_Node000004_Node000005"><a xlink:title=" ">
<path fill="none" stroke="#63b8ff" d="M210.9,-315.4C220.16,-267.8 231.21,-211.04 239.22,-169.85"/>
<polygon fill="none" stroke="#63b8ff" points="239.26,-169.64 236.48,-162.99 241.55,-157.86 244.33,-164.51 239.26,-169.64"/>
</a>
</g>
<text text-anchor="start" x="227.68" y="-264" font-family="Helvetica,sans-Serif" font-size="10.00" fill="grey">#next</text>
<text text-anchor="start" x="227.68" y="-249" font-family="Helvetica,sans-Serif" font-size="10.00" fill="grey">#previous</text>
</g>
<!-- Node6 -->
<g id="Node000006" class="node">
<title>Node6</title>
<g id="a_Node000006"><a xlink:href="../../dd/d16/classDoublyLinkedList.html" target="_top" xlink:title=" ">
<polygon fill="white" stroke="transparent" points="157.68,-225 2.68,-225 2.68,0 157.68,0 157.68,-225"/>
<text text-anchor="start" x="8.18" y="-212.5" font-family="Helvetica,sans-Serif" font-size="10.00">DoublyLinkedList&lt; Updatable</text>
<text text-anchor="start" x="20.18" y="-201.5" font-family="Helvetica,sans-Serif" font-size="10.00">&lt; NormalUpdatable &gt; &gt;</text>
<text text-anchor="start" x="78.68" y="-186.5" font-family="Helvetica,sans-Serif" font-size="10.00"> </text>
<text text-anchor="start" x="22.68" y="-171.5" font-family="Helvetica,sans-Serif" font-size="10.00">+</text>
<text text-anchor="start" x="51.18" y="-171.5" font-family="Helvetica,sans-Serif" font-size="10.00">append()</text>
<text text-anchor="start" x="22.68" y="-156.5" font-family="Helvetica,sans-Serif" font-size="10.00">+</text>
<text text-anchor="start" x="51.18" y="-156.5" font-family="Helvetica,sans-Serif" font-size="10.00">insertBefore()</text>
<text text-anchor="start" x="22.68" y="-141.5" font-family="Helvetica,sans-Serif" font-size="10.00">+</text>
<text text-anchor="start" x="51.18" y="-141.5" font-family="Helvetica,sans-Serif" font-size="10.00">insertSorted()</text>
<text text-anchor="start" x="22.68" y="-126.5" font-family="Helvetica,sans-Serif" font-size="10.00">+</text>
<text text-anchor="start" x="51.18" y="-126.5" font-family="Helvetica,sans-Serif" font-size="10.00">remove()</text>
<text text-anchor="start" x="22.68" y="-111.5" font-family="Helvetica,sans-Serif" font-size="10.00">+</text>
<text text-anchor="start" x="51.18" y="-111.5" font-family="Helvetica,sans-Serif" font-size="10.00">moveDown()</text>
<text text-anchor="start" x="22.68" y="-96.5" font-family="Helvetica,sans-Serif" font-size="10.00">+</text>
<text text-anchor="start" x="51.18" y="-96.5" font-family="Helvetica,sans-Serif" font-size="10.00">couldContain()</text>
<text text-anchor="start" x="22.68" y="-81.5" font-family="Helvetica,sans-Serif" font-size="10.00">+</text>
<text text-anchor="start" x="51.18" y="-81.5" font-family="Helvetica,sans-Serif" font-size="10.00">begin()</text>
<text text-anchor="start" x="22.68" y="-66.5" font-family="Helvetica,sans-Serif" font-size="10.00">+</text>
<text text-anchor="start" x="51.18" y="-66.5" font-family="Helvetica,sans-Serif" font-size="10.00">end()</text>
<text text-anchor="start" x="22.68" y="-51.5" font-family="Helvetica,sans-Serif" font-size="10.00">+</text>
<text text-anchor="start" x="51.18" y="-51.5" font-family="Helvetica,sans-Serif" font-size="10.00">rbegin()</text>
<text text-anchor="start" x="22.68" y="-36.5" font-family="Helvetica,sans-Serif" font-size="10.00">+</text>
<text text-anchor="start" x="51.18" y="-36.5" font-family="Helvetica,sans-Serif" font-size="10.00">rend()</text>
<text text-anchor="start" x="22.68" y="-21.5" font-family="Helvetica,sans-Serif" font-size="10.00">+</text>
<text text-anchor="start" x="51.18" y="-21.5" font-family="Helvetica,sans-Serif" font-size="10.00">getFirst()</text>
<text text-anchor="start" x="22.68" y="-6.5" font-family="Helvetica,sans-Serif" font-size="10.00">+</text>
<text text-anchor="start" x="51.18" y="-6.5" font-family="Helvetica,sans-Serif" font-size="10.00">getLast()</text>
<polygon fill="#666666" stroke="#666666" points="3.18,-196.5 3.18,-196.5 158.18,-196.5 158.18,-196.5 3.18,-196.5"/>
<polygon fill="#666666" stroke="#666666" points="3.18,-181.5 3.18,-181.5 158.18,-181.5 158.18,-181.5 3.18,-181.5"/>
<polygon fill="none" stroke="#666666" points="2.68,0 2.68,-225 157.68,-225 157.68,0 2.68,0"/>
</a>
</g>
</g>
<!-- Node5&#45;&gt;Node6 -->
<g id="edge7_Node000006_Node000005" class="edge">
<title>Node5&#45;&gt;Node6</title>
<g id="a_edge7_Node000006_Node000005"><a xlink:title=" ">
<path fill="none" stroke="#63b8ff" d="M158.05,-315.4C148.41,-290.41 137.8,-262.9 127.6,-236.44"/>
<polygon fill="none" stroke="#63b8ff" points="127.57,-236.37 121.68,-232.22 123.25,-225.18 129.14,-229.34 127.57,-236.37"/>
</a>
</g>
<text text-anchor="start" x="143.68" y="-264" font-family="Helvetica,sans-Serif" font-size="10.00" fill="grey">&#45;first</text>
<text text-anchor="start" x="143.68" y="-249" font-family="Helvetica,sans-Serif" font-size="10.00" fill="grey">&#45;last</text>
</g>
<!-- Node6&#45;&gt;Node3 -->
<g id="edge6_Node000003_Node000006" class="edge">
<title>Node6&#45;&gt;Node3</title>
<g id="a_edge6_Node000003_Node000006"><a xlink:title=" ">
<path fill="none" stroke="#63b8ff" d="M31.86,-225.44C2.44,-311.76 -20.66,-431.32 30.18,-522 59.02,-573.44 116.44,-607.56 165.39,-628.55"/>
<polygon fill="none" stroke="#63b8ff" points="165.57,-628.63 172.64,-627.23 176.65,-633.23 169.58,-634.62 165.57,-628.63"/>
</a>
</g>
<text text-anchor="start" x="33.68" y="-404.5" font-family="Helvetica,sans-Serif" font-size="10.00" fill="grey">#updatables</text>
</g>
<!-- Node7 -->
<g id="Node000007" class="node">
<title>Node7</title>
<g id="a_Node000007"><a xlink:href="../../de/d0d/classAH_1_1Button.html" target="_top" xlink:title="A class for reading and debouncing buttons and switches.">
<polygon fill="white" stroke="transparent" points="736.18,-522 604.18,-522 604.18,-293 736.18,-293 736.18,-522"/>
<text text-anchor="start" x="653.68" y="-509.5" font-family="Helvetica,sans-Serif" font-size="10.00">Button</text>
<text text-anchor="start" x="610.68" y="-494.5" font-family="Helvetica,sans-Serif" font-size="10.00">&#45;</text>
<text text-anchor="start" x="621.18" y="-494.5" font-family="Helvetica,sans-Serif" font-size="10.00">debounceTime</text>
<text text-anchor="start" x="608.18" y="-479.5" font-family="Helvetica,sans-Serif" font-size="10.00">+</text>
<text text-anchor="start" x="621.18" y="-479.5" font-family="Helvetica,sans-Serif" font-size="10.00">Button()</text>
<text text-anchor="start" x="608.18" y="-464.5" font-family="Helvetica,sans-Serif" font-size="10.00">+</text>
<text text-anchor="start" x="621.18" y="-464.5" font-family="Helvetica,sans-Serif" font-size="10.00">Button()</text>
<text text-anchor="start" x="608.18" y="-449.5" font-family="Helvetica,sans-Serif" font-size="10.00">+</text>
<text text-anchor="start" x="621.18" y="-449.5" font-family="Helvetica,sans-Serif" font-size="10.00">Button()</text>
<text text-anchor="start" x="608.18" y="-434.5" font-family="Helvetica,sans-Serif" font-size="10.00">+</text>
<text text-anchor="start" x="621.18" y="-434.5" font-family="Helvetica,sans-Serif" font-size="10.00">begin()</text>
<text text-anchor="start" x="608.18" y="-419.5" font-family="Helvetica,sans-Serif" font-size="10.00">+</text>
<text text-anchor="start" x="621.18" y="-419.5" font-family="Helvetica,sans-Serif" font-size="10.00">invert()</text>
<text text-anchor="start" x="608.18" y="-404.5" font-family="Helvetica,sans-Serif" font-size="10.00">+</text>
<text text-anchor="start" x="621.18" y="-404.5" font-family="Helvetica,sans-Serif" font-size="10.00">update()</text>
<text text-anchor="start" x="608.18" y="-389.5" font-family="Helvetica,sans-Serif" font-size="10.00">+</text>
<text text-anchor="start" x="621.18" y="-389.5" font-family="Helvetica,sans-Serif" font-size="10.00">getState()</text>
<text text-anchor="start" x="608.18" y="-374.5" font-family="Helvetica,sans-Serif" font-size="10.00">+</text>
<text text-anchor="start" x="621.18" y="-374.5" font-family="Helvetica,sans-Serif" font-size="10.00">previousBounceTime()</text>
<text text-anchor="start" x="608.18" y="-359.5" font-family="Helvetica,sans-Serif" font-size="10.00">+</text>
<text text-anchor="start" x="621.18" y="-359.5" font-family="Helvetica,sans-Serif" font-size="10.00">stableTime()</text>
<text text-anchor="start" x="608.18" y="-344.5" font-family="Helvetica,sans-Serif" font-size="10.00">+</text>
<text text-anchor="start" x="621.18" y="-344.5" font-family="Helvetica,sans-Serif" font-size="10.00">stableTime()</text>
<text text-anchor="start" x="608.18" y="-329.5" font-family="Helvetica,sans-Serif" font-size="10.00">+</text>
<text text-anchor="start" x="621.18" y="-329.5" font-family="Helvetica,sans-Serif" font-size="10.00">getName()</text>
<text text-anchor="start" x="608.18" y="-314.5" font-family="Helvetica,sans-Serif" font-size="10.00">+</text>
<text text-anchor="start" x="621.18" y="-314.5" font-family="Helvetica,sans-Serif" font-size="10.00">setDebounceTime()</text>
<text text-anchor="start" x="608.18" y="-299.5" font-family="Helvetica,sans-Serif" font-size="10.00">+</text>
<text text-anchor="start" x="621.18" y="-299.5" font-family="Helvetica,sans-Serif" font-size="10.00">getDebounceTime()</text>
<polygon fill="#666666" stroke="#666666" points="604.18,-504.5 604.18,-504.5 736.18,-504.5 736.18,-504.5 604.18,-504.5"/>
<polygon fill="#666666" stroke="#666666" points="604.18,-489.5 604.18,-489.5 619.18,-489.5 619.18,-489.5 604.18,-489.5"/>
<polygon fill="#666666" stroke="#666666" points="619.18,-489.5 619.18,-489.5 736.18,-489.5 736.18,-489.5 619.18,-489.5"/>
<polygon fill="none" stroke="#666666" points="604.18,-293 604.18,-522 736.18,-522 736.18,-293 604.18,-293"/>
</a>
</g>
</g>
<!-- Node7&#45;&gt;Node1 -->
<g id="edge8_Node000001_Node000007" class="edge">
<title>Node7&#45;&gt;Node1</title>
<g id="a_edge8_Node000001_Node000007"><a xlink:title=" ">
<path fill="none" stroke="#63b8ff" d="M613.14,-292.8C599.72,-266.06 585.53,-237.78 572.49,-211.78"/>
<polygon fill="none" stroke="#63b8ff" points="572.35,-211.51 566.09,-207.94 566.97,-200.79 573.24,-204.35 572.35,-211.51"/>
</a>
</g>
<text text-anchor="start" x="603.18" y="-256" font-family="Helvetica,sans-Serif" font-size="10.00" fill="grey">#button</text>
</g>
<!-- Node8 -->
<g id="Node000008" class="node">
<title>Node8</title>
<g id="a_Node000008"><a xlink:href="../../d7/de2/structAH_1_1ExtIO_1_1pin__t.html" target="_top" xlink:title="Type for storing pin numbers of Extended Input/Output elements.">
<polygon fill="white" stroke="transparent" points="770.68,-734.5 683.68,-734.5 683.68,-580.5 770.68,-580.5 770.68,-734.5"/>
<text text-anchor="start" x="715.18" y="-722.5" font-family="Helvetica,sans-Serif" font-size="10.00">pin_t</text>
<text text-anchor="start" x="688.18" y="-707.5" font-family="Helvetica,sans-Serif" font-size="10.00">+</text>
<text text-anchor="start" x="701.18" y="-707.5" font-family="Helvetica,sans-Serif" font-size="10.00">pin</text>
<text text-anchor="start" x="688.18" y="-692.5" font-family="Helvetica,sans-Serif" font-size="10.00">+</text>
<text text-anchor="start" x="701.18" y="-692.5" font-family="Helvetica,sans-Serif" font-size="10.00">pin_t()</text>
<text text-anchor="start" x="688.18" y="-677.5" font-family="Helvetica,sans-Serif" font-size="10.00">+</text>
<text text-anchor="start" x="701.18" y="-677.5" font-family="Helvetica,sans-Serif" font-size="10.00">pin_t()</text>
<text text-anchor="start" x="688.18" y="-662.5" font-family="Helvetica,sans-Serif" font-size="10.00">+</text>
<text text-anchor="start" x="701.18" y="-662.5" font-family="Helvetica,sans-Serif" font-size="10.00">operator+=()</text>
<text text-anchor="start" x="688.18" y="-647.5" font-family="Helvetica,sans-Serif" font-size="10.00">+</text>
<text text-anchor="start" x="701.18" y="-647.5" font-family="Helvetica,sans-Serif" font-size="10.00">operator++()</text>
<text text-anchor="start" x="688.18" y="-632.5" font-family="Helvetica,sans-Serif" font-size="10.00">+</text>
<text text-anchor="start" x="701.18" y="-632.5" font-family="Helvetica,sans-Serif" font-size="10.00">operator++()</text>
<text text-anchor="start" x="688.18" y="-617.5" font-family="Helvetica,sans-Serif" font-size="10.00">+</text>
<text text-anchor="start" x="701.18" y="-617.5" font-family="Helvetica,sans-Serif" font-size="10.00">operator&#45;=()</text>
<text text-anchor="start" x="688.18" y="-602.5" font-family="Helvetica,sans-Serif" font-size="10.00">+</text>
<text text-anchor="start" x="701.18" y="-602.5" font-family="Helvetica,sans-Serif" font-size="10.00">operator&#45;&#45;()</text>
<text text-anchor="start" x="688.18" y="-587.5" font-family="Helvetica,sans-Serif" font-size="10.00">+</text>
<text text-anchor="start" x="701.18" y="-587.5" font-family="Helvetica,sans-Serif" font-size="10.00">operator&#45;&#45;()</text>
<polygon fill="#666666" stroke="#666666" points="684.18,-717.5 684.18,-717.5 771.18,-717.5 771.18,-717.5 684.18,-717.5"/>
<polygon fill="#666666" stroke="#666666" points="684.18,-702.5 684.18,-702.5 699.18,-702.5 699.18,-702.5 684.18,-702.5"/>
<polygon fill="#666666" stroke="#666666" points="699.18,-702.5 699.18,-702.5 771.18,-702.5 771.18,-702.5 699.18,-702.5"/>
<polygon fill="none" stroke="#666666" points="683.68,-580.5 683.68,-734.5 770.68,-734.5 770.68,-580.5 683.68,-580.5"/>
</a>
</g>
</g>
<!-- Node8&#45;&gt;Node7 -->
<g id="edge9_Node000007_Node000008" class="edge">
<title>Node8&#45;&gt;Node7</title>
<g id="a_edge9_Node000007_Node000008"><a xlink:title=" ">
<path fill="none" stroke="#63b8ff" d="M709.69,-580.41C706.33,-565.77 702.72,-550.08 699.11,-534.35"/>
<polygon fill="none" stroke="#63b8ff" points="699.03,-534.03 693.79,-529.08 696.34,-522.33 701.59,-527.28 699.03,-534.03"/>
</a>
</g>
<text text-anchor="start" x="706.68" y="-545.5" font-family="Helvetica,sans-Serif" font-size="10.00" fill="grey">&#45;pin</text>
</g>
<!-- Node9 -->
<g id="Node000009" class="node">
<title>Node9</title>
<g id="a_Node000009"><a xlink:href="../../dc/db4/structAH_1_1Button_1_1InternalState.html" target="_top" xlink:title=" ">
<polygon fill="white" stroke="transparent" points="665.18,-712 561.18,-712 561.18,-603 665.18,-603 665.18,-712"/>
<text text-anchor="start" x="581.18" y="-699.5" font-family="Helvetica,sans-Serif" font-size="10.00">InternalState</text>
<text text-anchor="start" x="565.18" y="-684.5" font-family="Helvetica,sans-Serif" font-size="10.00">+</text>
<text text-anchor="start" x="578.18" y="-684.5" font-family="Helvetica,sans-Serif" font-size="10.00">debounced</text>
<text text-anchor="start" x="565.18" y="-669.5" font-family="Helvetica,sans-Serif" font-size="10.00">+</text>
<text text-anchor="start" x="578.18" y="-669.5" font-family="Helvetica,sans-Serif" font-size="10.00">bouncing</text>
<text text-anchor="start" x="565.18" y="-654.5" font-family="Helvetica,sans-Serif" font-size="10.00">+</text>
<text text-anchor="start" x="578.18" y="-654.5" font-family="Helvetica,sans-Serif" font-size="10.00">prevInput</text>
<text text-anchor="start" x="565.18" y="-639.5" font-family="Helvetica,sans-Serif" font-size="10.00">+</text>
<text text-anchor="start" x="578.18" y="-639.5" font-family="Helvetica,sans-Serif" font-size="10.00">invert</text>
<text text-anchor="start" x="565.18" y="-624.5" font-family="Helvetica,sans-Serif" font-size="10.00">+</text>
<text text-anchor="start" x="578.18" y="-624.5" font-family="Helvetica,sans-Serif" font-size="10.00">prevBounceTime</text>
<text text-anchor="start" x="565.18" y="-609.5" font-family="Helvetica,sans-Serif" font-size="10.00">+</text>
<text text-anchor="start" x="578.18" y="-609.5" font-family="Helvetica,sans-Serif" font-size="10.00">InternalState()</text>
<polygon fill="#666666" stroke="#666666" points="561.18,-694.5 561.18,-694.5 665.18,-694.5 665.18,-694.5 561.18,-694.5"/>
<polygon fill="#666666" stroke="#666666" points="561.18,-619.5 561.18,-619.5 576.18,-619.5 576.18,-619.5 561.18,-619.5"/>
<polygon fill="#666666" stroke="#666666" points="576.18,-619.5 576.18,-619.5 665.18,-619.5 665.18,-619.5 576.18,-619.5"/>
<polygon fill="none" stroke="#666666" points="561.18,-603 561.18,-712 665.18,-712 665.18,-603 561.18,-603"/>
</a>
</g>
</g>
<!-- Node9&#45;&gt;Node7 -->
<g id="edge10_Node000007_Node000009" class="edge">
<title>Node9&#45;&gt;Node7</title>
<g id="a_edge10_Node000007_Node000009"><a xlink:title=" ">
<path fill="none" stroke="#63b8ff" d="M625.48,-602.99C630.18,-582.56 635.75,-558.3 641.35,-533.96"/>
<polygon fill="none" stroke="#63b8ff" points="641.4,-533.72 638.85,-526.98 644.09,-522.02 646.64,-528.77 641.4,-533.72"/>
</a>
</g>
<text text-anchor="start" x="641.68" y="-545.5" font-family="Helvetica,sans-Serif" font-size="10.00" fill="grey">&#45;state</text>
</g>
<!-- Node10 -->
<g id="Node000010" class="node">
<title>Node10</title>
<g id="a_Node000010"><a xlink:href="../../d6/da4/classAH_1_1BitArray.html" target="_top" xlink:title=" ">
<polygon fill="white" stroke="transparent" points="586.18,-507 460.18,-507 460.18,-308 586.18,-308 586.18,-507"/>
<text text-anchor="start" x="465.18" y="-494.5" font-family="Helvetica,sans-Serif" font-size="10.00">BitArray&lt; NumBanks &gt;</text>
<text text-anchor="start" x="471.18" y="-479.5" font-family="Helvetica,sans-Serif" font-size="10.00">&#45;</text>
<text text-anchor="start" x="486.18" y="-479.5" font-family="Helvetica,sans-Serif" font-size="10.00">buffer</text>
<text text-anchor="start" x="471.18" y="-464.5" font-family="Helvetica,sans-Serif" font-size="10.00">&#45;</text>
<text text-anchor="start" x="486.18" y="-464.5" font-family="Helvetica,sans-Serif" font-size="10.00">bufferLength</text>
<text text-anchor="start" x="468.68" y="-449.5" font-family="Helvetica,sans-Serif" font-size="10.00">+</text>
<text text-anchor="start" x="486.18" y="-449.5" font-family="Helvetica,sans-Serif" font-size="10.00">get()</text>
<text text-anchor="start" x="468.68" y="-434.5" font-family="Helvetica,sans-Serif" font-size="10.00">+</text>
<text text-anchor="start" x="486.18" y="-434.5" font-family="Helvetica,sans-Serif" font-size="10.00">set()</text>
<text text-anchor="start" x="468.68" y="-419.5" font-family="Helvetica,sans-Serif" font-size="10.00">+</text>
<text text-anchor="start" x="486.18" y="-419.5" font-family="Helvetica,sans-Serif" font-size="10.00">clear()</text>
<text text-anchor="start" x="468.68" y="-404.5" font-family="Helvetica,sans-Serif" font-size="10.00">+</text>
<text text-anchor="start" x="486.18" y="-404.5" font-family="Helvetica,sans-Serif" font-size="10.00">safeIndex()</text>
<text text-anchor="start" x="468.68" y="-389.5" font-family="Helvetica,sans-Serif" font-size="10.00">+</text>
<text text-anchor="start" x="486.18" y="-389.5" font-family="Helvetica,sans-Serif" font-size="10.00">getByte()</text>
<text text-anchor="start" x="468.68" y="-374.5" font-family="Helvetica,sans-Serif" font-size="10.00">+</text>
<text text-anchor="start" x="486.18" y="-374.5" font-family="Helvetica,sans-Serif" font-size="10.00">setByte()</text>
<text text-anchor="start" x="468.68" y="-359.5" font-family="Helvetica,sans-Serif" font-size="10.00">+</text>
<text text-anchor="start" x="486.18" y="-359.5" font-family="Helvetica,sans-Serif" font-size="10.00">getBufferLength()</text>
<text text-anchor="start" x="471.18" y="-344.5" font-family="Helvetica,sans-Serif" font-size="10.00">&#45;</text>
<text text-anchor="start" x="486.18" y="-344.5" font-family="Helvetica,sans-Serif" font-size="10.00">getBufferIndex()</text>
<text text-anchor="start" x="471.18" y="-329.5" font-family="Helvetica,sans-Serif" font-size="10.00">&#45;</text>
<text text-anchor="start" x="486.18" y="-329.5" font-family="Helvetica,sans-Serif" font-size="10.00">getBufferBit()</text>
<text text-anchor="start" x="471.18" y="-314.5" font-family="Helvetica,sans-Serif" font-size="10.00">&#45;</text>
<text text-anchor="start" x="486.18" y="-314.5" font-family="Helvetica,sans-Serif" font-size="10.00">getBufferMask()</text>
<polygon fill="#666666" stroke="#666666" points="460.18,-489.5 460.18,-489.5 586.18,-489.5 586.18,-489.5 460.18,-489.5"/>
<polygon fill="#666666" stroke="#666666" points="460.18,-459.5 460.18,-459.5 484.18,-459.5 484.18,-459.5 460.18,-459.5"/>
<polygon fill="#666666" stroke="#666666" points="484.18,-459.5 484.18,-459.5 586.18,-459.5 586.18,-459.5 484.18,-459.5"/>
<polygon fill="none" stroke="#666666" points="460.18,-308 460.18,-507 586.18,-507 586.18,-308 460.18,-308"/>
</a>
</g>
</g>
<!-- Node10&#45;&gt;Node1 -->
<g id="edge11_Node000001_Node000010" class="edge">
<title>Node10&#45;&gt;Node1</title>
<g id="a_edge11_Node000001_Node000010"><a xlink:title=" ">
<path fill="none" stroke="#63b8ff" d="M523.18,-307.71C523.18,-277.06 523.18,-243.28 523.18,-212.6"/>
<polygon fill="none" stroke="#63b8ff" points="523.18,-212.57 519.18,-206.57 523.18,-200.57 527.18,-206.57 523.18,-212.57"/>
</a>
</g>
<text text-anchor="start" x="526.68" y="-256" font-family="Helvetica,sans-Serif" font-size="10.00" fill="grey">#states</text>
</g>
</g>
</svg>
