<?xml version="1.0" encoding="UTF-8" standalone="no"?>
<!DOCTYPE svg PUBLIC "-//W3C//DTD SVG 1.1//EN"
 "http://www.w3.org/Graphics/SVG/1.1/DTD/svg11.dtd">
<!-- Generated by graphviz version 2.43.0 (0)
 -->
<!-- Title: BulkTX&lt; Derived, MessageTypeT, MaxPacketSizeV &gt;::Writing Pages: 1 -->
<svg width="414pt" height="372pt"
 viewBox="0.00 0.00 414.00 372.00" xmlns="http://www.w3.org/2000/svg" xmlns:xlink="http://www.w3.org/1999/xlink">
<g id="graph0" class="graph" transform="scale(1 1) rotate(0) translate(4 368)">
<title>BulkTX&lt; Derived, MessageTypeT, MaxPacketSizeV &gt;::Writing</title>
<!-- Node1 -->
<g id="Node000001" class="node">
<title>Node1</title>
<g id="a_Node000001"><a xlink:title="State for writing outgoing USB&#45;MIDI data.">
<polygon fill="#999999" stroke="transparent" points="220,-71 76,-71 76,0 220,0 220,-71"/>
<text text-anchor="start" x="81" y="-58.5" font-family="Helvetica,sans-Serif" font-size="10.00">BulkTX&lt; Derived, Message</text>
<text text-anchor="start" x="81" y="-47.5" font-family="Helvetica,sans-Serif" font-size="10.00">TypeT, MaxPacketSizeV</text>
<text text-anchor="start" x="121.5" y="-36.5" font-family="Helvetica,sans-Serif" font-size="10.00"> &gt;::Writing</text>
<text text-anchor="start" x="96" y="-21.5" font-family="Helvetica,sans-Serif" font-size="10.00">+</text>
<text text-anchor="start" x="125" y="-21.5" font-family="Helvetica,sans-Serif" font-size="10.00">packet_size</text>
<text text-anchor="start" x="146" y="-6.5" font-family="Helvetica,sans-Serif" font-size="10.00"> </text>
<polygon fill="#666666" stroke="#666666" points="76,-31.5 76,-31.5 220,-31.5 220,-31.5 76,-31.5"/>
<polygon fill="#666666" stroke="#666666" points="76,-16.5 76,-16.5 123,-16.5 123,-16.5 76,-16.5"/>
<polygon fill="#666666" stroke="#666666" points="123,-16.5 123,-16.5 220,-16.5 220,-16.5 123,-16.5"/>
<polygon fill="none" stroke="#666666" points="76,0 76,-71 220,-71 220,0 76,0"/>
</a>
</g>
</g>
<!-- Node2 -->
<g id="Node000002" class="node">
<title>Node2</title>
<g id="a_Node000002"><a xlink:href="../../d1/db2/structBulkTX_1_1Writing_1_1Buffer.html" target="_top" xlink:title=" ">
<polygon fill="white" stroke="transparent" points="50,-298.5 0,-298.5 0,-234.5 50,-234.5 50,-298.5"/>
<text text-anchor="start" x="10" y="-286.5" font-family="Helvetica,sans-Serif" font-size="10.00">Buffer</text>
<text text-anchor="start" x="4" y="-271.5" font-family="Helvetica,sans-Serif" font-size="10.00">+</text>
<text text-anchor="start" x="17" y="-271.5" font-family="Helvetica,sans-Serif" font-size="10.00">size</text>
<text text-anchor="start" x="4" y="-256.5" font-family="Helvetica,sans-Serif" font-size="10.00">+</text>
<text text-anchor="start" x="17" y="-256.5" font-family="Helvetica,sans-Serif" font-size="10.00">buffer</text>
<text text-anchor="start" x="23" y="-241.5" font-family="Helvetica,sans-Serif" font-size="10.00"> </text>
<polygon fill="#666666" stroke="#666666" points="0,-281.5 0,-281.5 50,-281.5 50,-281.5 0,-281.5"/>
<polygon fill="#666666" stroke="#666666" points="0,-251.5 0,-251.5 15,-251.5 15,-251.5 0,-251.5"/>
<polygon fill="#666666" stroke="#666666" points="15,-251.5 15,-251.5 50,-251.5 50,-251.5 15,-251.5"/>
<polygon fill="none" stroke="#666666" points="0,-234.5 0,-298.5 50,-298.5 50,-234.5 0,-234.5"/>
</a>
</g>
</g>
<!-- Node2&#45;&gt;Node1 -->
<g id="edge1_Node000001_Node000002" class="edge">
<title>Node2&#45;&gt;Node1</title>
<g id="a_edge1_Node000001_Node000002"><a xlink:title=" ">
<path fill="none" stroke="#63b8ff" d="M32.67,-234.39C42.79,-197.4 63.15,-134.91 95,-89 97.07,-86.01 99.33,-83.04 101.71,-80.13"/>
<polygon fill="none" stroke="#63b8ff" points="101.73,-80.11 102.66,-72.96 109.61,-71.06 108.69,-78.21 101.73,-80.11"/>
</a>
</g>
<text text-anchor="start" x="98.5" y="-117" font-family="Helvetica,sans-Serif" font-size="10.00" fill="grey">+buffers</text>
</g>
<!-- Node3 -->
<g id="Node000003" class="node">
<title>Node3</title>
<g id="a_Node000003"><a xlink:href="../../de/df5/classinterrupt__atomic.html" target="_top" xlink:title=" ">
<polygon fill="white" stroke="transparent" points="228,-364 68,-364 68,-169 228,-169 228,-364"/>
<text text-anchor="start" x="84.5" y="-351.5" font-family="Helvetica,sans-Serif" font-size="10.00">interrupt_atomic&lt; BulkTX</text>
<text text-anchor="start" x="99.5" y="-340.5" font-family="Helvetica,sans-Serif" font-size="10.00">::Writing::Buffer * &gt;</text>
<text text-anchor="start" x="74.5" y="-325.5" font-family="Helvetica,sans-Serif" font-size="10.00">&#45;</text>
<text text-anchor="start" x="85" y="-325.5" font-family="Helvetica,sans-Serif" font-size="10.00">value</text>
<text text-anchor="start" x="72" y="-310.5" font-family="Helvetica,sans-Serif" font-size="10.00">+</text>
<text text-anchor="start" x="85" y="-310.5" font-family="Helvetica,sans-Serif" font-size="10.00">interrupt_atomic()</text>
<text text-anchor="start" x="72" y="-295.5" font-family="Helvetica,sans-Serif" font-size="10.00">+</text>
<text text-anchor="start" x="85" y="-295.5" font-family="Helvetica,sans-Serif" font-size="10.00">load()</text>
<text text-anchor="start" x="72" y="-280.5" font-family="Helvetica,sans-Serif" font-size="10.00">+</text>
<text text-anchor="start" x="85" y="-280.5" font-family="Helvetica,sans-Serif" font-size="10.00">store()</text>
<text text-anchor="start" x="72" y="-265.5" font-family="Helvetica,sans-Serif" font-size="10.00">+</text>
<text text-anchor="start" x="85" y="-265.5" font-family="Helvetica,sans-Serif" font-size="10.00">exchange()</text>
<text text-anchor="start" x="72" y="-250.5" font-family="Helvetica,sans-Serif" font-size="10.00">+</text>
<text text-anchor="start" x="85" y="-250.5" font-family="Helvetica,sans-Serif" font-size="10.00">compare_exchange_strong()</text>
<text text-anchor="start" x="72" y="-235.5" font-family="Helvetica,sans-Serif" font-size="10.00">+</text>
<text text-anchor="start" x="85" y="-235.5" font-family="Helvetica,sans-Serif" font-size="10.00">compare_exchange_weak()</text>
<text text-anchor="start" x="72" y="-220.5" font-family="Helvetica,sans-Serif" font-size="10.00">+</text>
<text text-anchor="start" x="85" y="-220.5" font-family="Helvetica,sans-Serif" font-size="10.00">fetch_add()</text>
<text text-anchor="start" x="72" y="-205.5" font-family="Helvetica,sans-Serif" font-size="10.00">+</text>
<text text-anchor="start" x="85" y="-205.5" font-family="Helvetica,sans-Serif" font-size="10.00">fetch_sub()</text>
<text text-anchor="start" x="72" y="-190.5" font-family="Helvetica,sans-Serif" font-size="10.00">+</text>
<text text-anchor="start" x="85" y="-190.5" font-family="Helvetica,sans-Serif" font-size="10.00">after_load_fence()</text>
<text text-anchor="start" x="72" y="-175.5" font-family="Helvetica,sans-Serif" font-size="10.00">+</text>
<text text-anchor="start" x="85" y="-175.5" font-family="Helvetica,sans-Serif" font-size="10.00">before_store_fence()</text>
<polygon fill="#666666" stroke="#666666" points="68,-335.5 68,-335.5 228,-335.5 228,-335.5 68,-335.5"/>
<polygon fill="#666666" stroke="#666666" points="68,-320.5 68,-320.5 83,-320.5 83,-320.5 68,-320.5"/>
<polygon fill="#666666" stroke="#666666" points="83,-320.5 83,-320.5 228,-320.5 228,-320.5 83,-320.5"/>
<polygon fill="none" stroke="#666666" points="68,-169 68,-364 228,-364 228,-169 68,-169"/>
</a>
</g>
</g>
<!-- Node3&#45;&gt;Node1 -->
<g id="edge2_Node000001_Node000003" class="edge">
<title>Node3&#45;&gt;Node1</title>
<g id="a_edge2_Node000001_Node000003"><a xlink:title=" ">
<path fill="none" stroke="#63b8ff" d="M148,-168.72C148,-139.19 148,-108.06 148,-83.43"/>
<polygon fill="none" stroke="#63b8ff" points="148,-83.18 144,-77.18 148,-71.18 152,-77.18 148,-83.18"/>
</a>
</g>
<text text-anchor="start" x="151.5" y="-140" font-family="Helvetica,sans-Serif" font-size="10.00" fill="grey">+active_writebuffer</text>
<text text-anchor="start" x="151.5" y="-125" font-family="Helvetica,sans-Serif" font-size="10.00" fill="grey">+send_later</text>
<text text-anchor="start" x="151.5" y="-110" font-family="Helvetica,sans-Serif" font-size="10.00" fill="grey">+send_now</text>
<text text-anchor="start" x="151.5" y="-95" font-family="Helvetica,sans-Serif" font-size="10.00" fill="grey">+sending</text>
</g>
<!-- Node4 -->
<g id="Node000004" class="node">
<title>Node4</title>
<g id="a_Node000004"><a xlink:href="../../de/df5/classinterrupt__atomic.html" target="_top" xlink:title=" ">
<polygon fill="white" stroke="transparent" points="406,-358.5 246,-358.5 246,-174.5 406,-174.5 406,-358.5"/>
<text text-anchor="start" x="254" y="-346.5" font-family="Helvetica,sans-Serif" font-size="10.00">interrupt_atomic&lt; uint32_t &gt;</text>
<text text-anchor="start" x="252.5" y="-331.5" font-family="Helvetica,sans-Serif" font-size="10.00">&#45;</text>
<text text-anchor="start" x="263" y="-331.5" font-family="Helvetica,sans-Serif" font-size="10.00">value</text>
<text text-anchor="start" x="250" y="-316.5" font-family="Helvetica,sans-Serif" font-size="10.00">+</text>
<text text-anchor="start" x="263" y="-316.5" font-family="Helvetica,sans-Serif" font-size="10.00">interrupt_atomic()</text>
<text text-anchor="start" x="250" y="-301.5" font-family="Helvetica,sans-Serif" font-size="10.00">+</text>
<text text-anchor="start" x="263" y="-301.5" font-family="Helvetica,sans-Serif" font-size="10.00">load()</text>
<text text-anchor="start" x="250" y="-286.5" font-family="Helvetica,sans-Serif" font-size="10.00">+</text>
<text text-anchor="start" x="263" y="-286.5" font-family="Helvetica,sans-Serif" font-size="10.00">store()</text>
<text text-anchor="start" x="250" y="-271.5" font-family="Helvetica,sans-Serif" font-size="10.00">+</text>
<text text-anchor="start" x="263" y="-271.5" font-family="Helvetica,sans-Serif" font-size="10.00">exchange()</text>
<text text-anchor="start" x="250" y="-256.5" font-family="Helvetica,sans-Serif" font-size="10.00">+</text>
<text text-anchor="start" x="263" y="-256.5" font-family="Helvetica,sans-Serif" font-size="10.00">compare_exchange_strong()</text>
<text text-anchor="start" x="250" y="-241.5" font-family="Helvetica,sans-Serif" font-size="10.00">+</text>
<text text-anchor="start" x="263" y="-241.5" font-family="Helvetica,sans-Serif" font-size="10.00">compare_exchange_weak()</text>
<text text-anchor="start" x="250" y="-226.5" font-family="Helvetica,sans-Serif" font-size="10.00">+</text>
<text text-anchor="start" x="263" y="-226.5" font-family="Helvetica,sans-Serif" font-size="10.00">fetch_add()</text>
<text text-anchor="start" x="250" y="-211.5" font-family="Helvetica,sans-Serif" font-size="10.00">+</text>
<text text-anchor="start" x="263" y="-211.5" font-family="Helvetica,sans-Serif" font-size="10.00">fetch_sub()</text>
<text text-anchor="start" x="250" y="-196.5" font-family="Helvetica,sans-Serif" font-size="10.00">+</text>
<text text-anchor="start" x="263" y="-196.5" font-family="Helvetica,sans-Serif" font-size="10.00">after_load_fence()</text>
<text text-anchor="start" x="250" y="-181.5" font-family="Helvetica,sans-Serif" font-size="10.00">+</text>
<text text-anchor="start" x="263" y="-181.5" font-family="Helvetica,sans-Serif" font-size="10.00">before_store_fence()</text>
<polygon fill="#666666" stroke="#666666" points="246,-341.5 246,-341.5 406,-341.5 406,-341.5 246,-341.5"/>
<polygon fill="#666666" stroke="#666666" points="246,-326.5 246,-326.5 261,-326.5 261,-326.5 246,-326.5"/>
<polygon fill="#666666" stroke="#666666" points="261,-326.5 261,-326.5 406,-326.5 406,-326.5 261,-326.5"/>
<polygon fill="none" stroke="#666666" points="246,-174.5 246,-358.5 406,-358.5 406,-174.5 246,-174.5"/>
</a>
</g>
</g>
<!-- Node4&#45;&gt;Node1 -->
<g id="edge3_Node000001_Node000004" class="edge">
<title>Node4&#45;&gt;Node1</title>
<g id="a_edge3_Node000001_Node000004"><a xlink:title=" ">
<path fill="none" stroke="#63b8ff" d="M303.59,-174.35C292.76,-144.46 277.14,-112.84 255,-89 247.89,-81.34 239.42,-74.67 230.41,-68.88"/>
<polygon fill="none" stroke="#63b8ff" points="230.35,-68.85 223.15,-69.22 220.04,-62.72 227.24,-62.34 230.35,-68.85"/>
</a>
</g>
<text text-anchor="start" x="296" y="-117" font-family="Helvetica,sans-Serif" font-size="10.00" fill="grey">+error</text>
</g>
</g>
</svg>
