<?xml version="1.0" encoding="UTF-8" standalone="no"?>
<!DOCTYPE svg PUBLIC "-//W3C//DTD SVG 1.1//EN"
 "http://www.w3.org/Graphics/SVG/1.1/DTD/svg11.dtd">
<!-- Generated by graphviz version 2.43.0 (0)
 -->
<!-- Title: IVPotRing Pages: 1 -->
<svg width="1084pt" height="601pt"
 viewBox="0.00 0.00 1084.00 601.00" xmlns="http://www.w3.org/2000/svg" xmlns:xlink="http://www.w3.org/1999/xlink">
<g id="graph0" class="graph" transform="scale(1 1) rotate(0) translate(4 597)">
<title>IVPotRing</title>
<polygon fill="white" stroke="transparent" points="-4,4 -4,-597 1080,-597 1080,4 -4,4"/>
<!-- Node1 -->
<g id="node1" class="node">
<title>Node1</title>
<g id="a_node1"><a xlink:title=" ">
<polygon fill="#bfbfbf" stroke="black" points="391.5,-436.5 391.5,-592.5 492.5,-592.5 492.5,-436.5 391.5,-436.5"/>
<text text-anchor="middle" x="442" y="-580.5" font-family="Helvetica,sans-Serif" font-size="10.00">IVPotRing</text>
<polyline fill="none" stroke="black" points="391.5,-573.5 492.5,-573.5 "/>
<text text-anchor="middle" x="442" y="-561.5" font-family="Helvetica,sans-Serif" font-size="10.00"> </text>
<polyline fill="none" stroke="black" points="391.5,-554.5 492.5,-554.5 "/>
<text text-anchor="start" x="399.5" y="-542.5" font-family="Helvetica,sans-Serif" font-size="10.00">+ getPosition()</text>
<text text-anchor="start" x="399.5" y="-531.5" font-family="Helvetica,sans-Serif" font-size="10.00">+ getCenterLed()</text>
<text text-anchor="start" x="399.5" y="-520.5" font-family="Helvetica,sans-Serif" font-size="10.00">+ getMode()</text>
<text text-anchor="start" x="399.5" y="-509.5" font-family="Helvetica,sans-Serif" font-size="10.00">+ getStartOn()</text>
<text text-anchor="start" x="399.5" y="-498.5" font-family="Helvetica,sans-Serif" font-size="10.00">+ getStartOff()</text>
<text text-anchor="start" x="399.5" y="-487.5" font-family="Helvetica,sans-Serif" font-size="10.00"># IVPotRing()</text>
<text text-anchor="start" x="399.5" y="-476.5" font-family="Helvetica,sans-Serif" font-size="10.00">&#45; getValue()</text>
<text text-anchor="start" x="399.5" y="-465.5" font-family="Helvetica,sans-Serif" font-size="10.00">&#45; getPosition()</text>
<text text-anchor="start" x="399.5" y="-454.5" font-family="Helvetica,sans-Serif" font-size="10.00">&#45; getCenterLed()</text>
<text text-anchor="start" x="399.5" y="-443.5" font-family="Helvetica,sans-Serif" font-size="10.00">&#45; getMode()</text>
</a>
</g>
</g>
<!-- Node2 -->
<g id="node2" class="node">
<title>Node2</title>
<g id="a_node2"><a xlink:href="../../db/dac/classMCU_1_1VPotRing__Base.html" target="_top" xlink:title=" ">
<polygon fill="white" stroke="black" points="0,-243.5 0,-399.5 160,-399.5 160,-243.5 0,-243.5"/>
<text text-anchor="start" x="8" y="-387.5" font-family="Helvetica,sans-Serif" font-size="10.00">VPotRing_Base&lt; NumValues,</text>
<text text-anchor="middle" x="80" y="-376.5" font-family="Helvetica,sans-Serif" font-size="10.00"> Callback &gt;</text>
<polyline fill="none" stroke="black" points="0,-369.5 160,-369.5 "/>
<text text-anchor="start" x="8" y="-357.5" font-family="Helvetica,sans-Serif" font-size="10.00">+ callback</text>
<text text-anchor="start" x="8" y="-346.5" font-family="Helvetica,sans-Serif" font-size="10.00">&#45; values</text>
<polyline fill="none" stroke="black" points="0,-339.5 160,-339.5 "/>
<text text-anchor="start" x="8" y="-327.5" font-family="Helvetica,sans-Serif" font-size="10.00">+ begin()</text>
<text text-anchor="start" x="8" y="-316.5" font-family="Helvetica,sans-Serif" font-size="10.00">+ reset()</text>
<text text-anchor="start" x="8" y="-305.5" font-family="Helvetica,sans-Serif" font-size="10.00"># VPotRing_Base()</text>
<text text-anchor="start" x="8" y="-294.5" font-family="Helvetica,sans-Serif" font-size="10.00"># sanitizeValue()</text>
<text text-anchor="start" x="8" y="-283.5" font-family="Helvetica,sans-Serif" font-size="10.00">&#45; updateImpl()</text>
<text text-anchor="start" x="8" y="-272.5" font-family="Helvetica,sans-Serif" font-size="10.00">&#45; getValue()</text>
<text text-anchor="start" x="8" y="-261.5" font-family="Helvetica,sans-Serif" font-size="10.00">&#45; getSelection()</text>
<text text-anchor="start" x="8" y="-250.5" font-family="Helvetica,sans-Serif" font-size="10.00">&#45; getBankIndex()</text>
</a>
</g>
</g>
<!-- Node1&#45;&gt;Node2 -->
<g id="edge1" class="edge">
<title>Node1&#45;&gt;Node2</title>
<path fill="none" stroke="midnightblue" d="M381.73,-494.74C324.56,-475.51 237.45,-442.46 169,-400 166.04,-398.16 163.08,-396.23 160.14,-394.22"/>
<polygon fill="none" stroke="midnightblue" points="380.75,-498.1 391.35,-497.93 382.96,-491.46 380.75,-498.1"/>
</g>
<!-- Node3 -->
<g id="node3" class="node">
<title>Node3</title>
<g id="a_node3"><a xlink:href="../../db/dac/classMCU_1_1VPotRing__Base.html" target="_top" xlink:title=" ">
<polygon fill="white" stroke="black" points="178.5,-243.5 178.5,-399.5 345.5,-399.5 345.5,-243.5 178.5,-243.5"/>
<text text-anchor="start" x="186.5" y="-387.5" font-family="Helvetica,sans-Serif" font-size="10.00">VPotRing_Base&lt; 1, VPotEmpty</text>
<text text-anchor="middle" x="262" y="-376.5" font-family="Helvetica,sans-Serif" font-size="10.00">Callback &gt;</text>
<polyline fill="none" stroke="black" points="178.5,-369.5 345.5,-369.5 "/>
<text text-anchor="start" x="186.5" y="-357.5" font-family="Helvetica,sans-Serif" font-size="10.00">+ callback</text>
<text text-anchor="start" x="186.5" y="-346.5" font-family="Helvetica,sans-Serif" font-size="10.00">&#45; values</text>
<polyline fill="none" stroke="black" points="178.5,-339.5 345.5,-339.5 "/>
<text text-anchor="start" x="186.5" y="-327.5" font-family="Helvetica,sans-Serif" font-size="10.00">+ begin()</text>
<text text-anchor="start" x="186.5" y="-316.5" font-family="Helvetica,sans-Serif" font-size="10.00">+ reset()</text>
<text text-anchor="start" x="186.5" y="-305.5" font-family="Helvetica,sans-Serif" font-size="10.00"># VPotRing_Base()</text>
<text text-anchor="start" x="186.5" y="-294.5" font-family="Helvetica,sans-Serif" font-size="10.00"># sanitizeValue()</text>
<text text-anchor="start" x="186.5" y="-283.5" font-family="Helvetica,sans-Serif" font-size="10.00">&#45; updateImpl()</text>
<text text-anchor="start" x="186.5" y="-272.5" font-family="Helvetica,sans-Serif" font-size="10.00">&#45; getValue()</text>
<text text-anchor="start" x="186.5" y="-261.5" font-family="Helvetica,sans-Serif" font-size="10.00">&#45; getSelection()</text>
<text text-anchor="start" x="186.5" y="-250.5" font-family="Helvetica,sans-Serif" font-size="10.00">&#45; getBankIndex()</text>
</a>
</g>
</g>
<!-- Node1&#45;&gt;Node3 -->
<g id="edge2" class="edge">
<title>Node1&#45;&gt;Node3</title>
<path fill="none" stroke="midnightblue" d="M384.26,-452.23C368.5,-435.5 351.22,-417.17 334.74,-399.68"/>
<polygon fill="none" stroke="midnightblue" points="381.98,-454.91 391.38,-459.79 387.07,-450.11 381.98,-454.91"/>
</g>
<!-- Node7 -->
<g id="node7" class="node">
<title>Node7</title>
<g id="a_node7"><a xlink:href="../../db/dac/classMCU_1_1VPotRing__Base.html" target="_top" xlink:title=" ">
<polygon fill="white" stroke="black" points="363,-243.5 363,-399.5 521,-399.5 521,-243.5 363,-243.5"/>
<text text-anchor="start" x="371" y="-387.5" font-family="Helvetica,sans-Serif" font-size="10.00">VPotRing_Base&lt; 1, VPotRing</text>
<text text-anchor="middle" x="442" y="-376.5" font-family="Helvetica,sans-Serif" font-size="10.00">LEDsCallback &gt;</text>
<polyline fill="none" stroke="black" points="363,-369.5 521,-369.5 "/>
<text text-anchor="start" x="371" y="-357.5" font-family="Helvetica,sans-Serif" font-size="10.00">+ callback</text>
<text text-anchor="start" x="371" y="-346.5" font-family="Helvetica,sans-Serif" font-size="10.00">&#45; values</text>
<polyline fill="none" stroke="black" points="363,-339.5 521,-339.5 "/>
<text text-anchor="start" x="371" y="-327.5" font-family="Helvetica,sans-Serif" font-size="10.00">+ begin()</text>
<text text-anchor="start" x="371" y="-316.5" font-family="Helvetica,sans-Serif" font-size="10.00">+ reset()</text>
<text text-anchor="start" x="371" y="-305.5" font-family="Helvetica,sans-Serif" font-size="10.00"># VPotRing_Base()</text>
<text text-anchor="start" x="371" y="-294.5" font-family="Helvetica,sans-Serif" font-size="10.00"># sanitizeValue()</text>
<text text-anchor="start" x="371" y="-283.5" font-family="Helvetica,sans-Serif" font-size="10.00">&#45; updateImpl()</text>
<text text-anchor="start" x="371" y="-272.5" font-family="Helvetica,sans-Serif" font-size="10.00">&#45; getValue()</text>
<text text-anchor="start" x="371" y="-261.5" font-family="Helvetica,sans-Serif" font-size="10.00">&#45; getSelection()</text>
<text text-anchor="start" x="371" y="-250.5" font-family="Helvetica,sans-Serif" font-size="10.00">&#45; getBankIndex()</text>
</a>
</g>
</g>
<!-- Node1&#45;&gt;Node7 -->
<g id="edge6" class="edge">
<title>Node1&#45;&gt;Node7</title>
<path fill="none" stroke="midnightblue" d="M442,-426.35C442,-417.43 442,-408.41 442,-399.61"/>
<polygon fill="none" stroke="midnightblue" points="438.5,-426.36 442,-436.36 445.5,-426.36 438.5,-426.36"/>
</g>
<!-- Node10 -->
<g id="node10" class="node">
<title>Node10</title>
<g id="a_node10"><a xlink:href="../../db/dac/classMCU_1_1VPotRing__Base.html" target="_top" xlink:title=" ">
<polygon fill="white" stroke="black" points="542,-243.5 542,-399.5 700,-399.5 700,-243.5 542,-243.5"/>
<text text-anchor="start" x="550" y="-387.5" font-family="Helvetica,sans-Serif" font-size="10.00">VPotRing_Base&lt; NumBanks,</text>
<text text-anchor="middle" x="621" y="-376.5" font-family="Helvetica,sans-Serif" font-size="10.00"> VPotEmptyCallback &gt;</text>
<polyline fill="none" stroke="black" points="542,-369.5 700,-369.5 "/>
<text text-anchor="start" x="550" y="-357.5" font-family="Helvetica,sans-Serif" font-size="10.00">+ callback</text>
<text text-anchor="start" x="550" y="-346.5" font-family="Helvetica,sans-Serif" font-size="10.00">&#45; values</text>
<polyline fill="none" stroke="black" points="542,-339.5 700,-339.5 "/>
<text text-anchor="start" x="550" y="-327.5" font-family="Helvetica,sans-Serif" font-size="10.00">+ begin()</text>
<text text-anchor="start" x="550" y="-316.5" font-family="Helvetica,sans-Serif" font-size="10.00">+ reset()</text>
<text text-anchor="start" x="550" y="-305.5" font-family="Helvetica,sans-Serif" font-size="10.00"># VPotRing_Base()</text>
<text text-anchor="start" x="550" y="-294.5" font-family="Helvetica,sans-Serif" font-size="10.00"># sanitizeValue()</text>
<text text-anchor="start" x="550" y="-283.5" font-family="Helvetica,sans-Serif" font-size="10.00">&#45; updateImpl()</text>
<text text-anchor="start" x="550" y="-272.5" font-family="Helvetica,sans-Serif" font-size="10.00">&#45; getValue()</text>
<text text-anchor="start" x="550" y="-261.5" font-family="Helvetica,sans-Serif" font-size="10.00">&#45; getSelection()</text>
<text text-anchor="start" x="550" y="-250.5" font-family="Helvetica,sans-Serif" font-size="10.00">&#45; getBankIndex()</text>
</a>
</g>
</g>
<!-- Node1&#45;&gt;Node10 -->
<g id="edge9" class="edge">
<title>Node1&#45;&gt;Node10</title>
<path fill="none" stroke="midnightblue" d="M499.62,-452.02C515.19,-435.41 532.23,-417.22 548.5,-399.86"/>
<polygon fill="none" stroke="midnightblue" points="496.86,-449.84 492.58,-459.53 501.97,-454.63 496.86,-449.84"/>
</g>
<!-- Node14 -->
<g id="node14" class="node">
<title>Node14</title>
<g id="a_node14"><a xlink:href="../../db/dac/classMCU_1_1VPotRing__Base.html" target="_top" xlink:title=" ">
<polygon fill="white" stroke="black" points="816,-243.5 816,-399.5 974,-399.5 974,-243.5 816,-243.5"/>
<text text-anchor="start" x="824" y="-387.5" font-family="Helvetica,sans-Serif" font-size="10.00">VPotRing_Base&lt; NumBanks,</text>
<text text-anchor="middle" x="895" y="-376.5" font-family="Helvetica,sans-Serif" font-size="10.00"> VPotRingLEDsCallback &gt;</text>
<polyline fill="none" stroke="black" points="816,-369.5 974,-369.5 "/>
<text text-anchor="start" x="824" y="-357.5" font-family="Helvetica,sans-Serif" font-size="10.00">+ callback</text>
<text text-anchor="start" x="824" y="-346.5" font-family="Helvetica,sans-Serif" font-size="10.00">&#45; values</text>
<polyline fill="none" stroke="black" points="816,-339.5 974,-339.5 "/>
<text text-anchor="start" x="824" y="-327.5" font-family="Helvetica,sans-Serif" font-size="10.00">+ begin()</text>
<text text-anchor="start" x="824" y="-316.5" font-family="Helvetica,sans-Serif" font-size="10.00">+ reset()</text>
<text text-anchor="start" x="824" y="-305.5" font-family="Helvetica,sans-Serif" font-size="10.00"># VPotRing_Base()</text>
<text text-anchor="start" x="824" y="-294.5" font-family="Helvetica,sans-Serif" font-size="10.00"># sanitizeValue()</text>
<text text-anchor="start" x="824" y="-283.5" font-family="Helvetica,sans-Serif" font-size="10.00">&#45; updateImpl()</text>
<text text-anchor="start" x="824" y="-272.5" font-family="Helvetica,sans-Serif" font-size="10.00">&#45; getValue()</text>
<text text-anchor="start" x="824" y="-261.5" font-family="Helvetica,sans-Serif" font-size="10.00">&#45; getSelection()</text>
<text text-anchor="start" x="824" y="-250.5" font-family="Helvetica,sans-Serif" font-size="10.00">&#45; getBankIndex()</text>
</a>
</g>
</g>
<!-- Node1&#45;&gt;Node14 -->
<g id="edge13" class="edge">
<title>Node1&#45;&gt;Node14</title>
<path fill="none" stroke="midnightblue" d="M502.17,-488.13C582.9,-454.09 726.45,-393.57 815.86,-355.87"/>
<polygon fill="none" stroke="midnightblue" points="500.5,-485.04 492.65,-492.15 503.22,-491.49 500.5,-485.04"/>
</g>
<!-- Node4 -->
<g id="node4" class="node">
<title>Node4</title>
<g id="a_node4"><a xlink:href="../../df/dc2/classMCU_1_1GenericVPotRing.html" target="_top" xlink:title=" ">
<polygon fill="white" stroke="black" points="45.5,-122 45.5,-179 162.5,-179 162.5,-122 45.5,-122"/>
<text text-anchor="middle" x="104" y="-167" font-family="Helvetica,sans-Serif" font-size="10.00">GenericVPotRing&lt;&gt;</text>
<polyline fill="none" stroke="black" points="45.5,-160 162.5,-160 "/>
<text text-anchor="middle" x="104" y="-148" font-family="Helvetica,sans-Serif" font-size="10.00"> </text>
<polyline fill="none" stroke="black" points="45.5,-141 162.5,-141 "/>
<text text-anchor="start" x="53.5" y="-129" font-family="Helvetica,sans-Serif" font-size="10.00">+ GenericVPotRing()</text>
</a>
</g>
</g>
<!-- Node3&#45;&gt;Node4 -->
<g id="edge3" class="edge">
<title>Node3&#45;&gt;Node4</title>
<path fill="none" stroke="midnightblue" d="M182.87,-235.86C163.67,-215.32 144.47,-194.79 129.83,-179.13"/>
<polygon fill="none" stroke="midnightblue" points="180.55,-238.5 189.94,-243.42 185.66,-233.72 180.55,-238.5"/>
</g>
<!-- Node6 -->
<g id="node6" class="node">
<title>Node6</title>
<g id="a_node6"><a xlink:href="../../df/dc2/classMCU_1_1GenericVPotRing.html" target="_top" xlink:title="A class for MIDI input elements that represent Mackie Control Universal V&#45;Pots.">
<polygon fill="white" stroke="black" points="180.5,-122 180.5,-179 343.5,-179 343.5,-122 180.5,-122"/>
<text text-anchor="middle" x="262" y="-167" font-family="Helvetica,sans-Serif" font-size="10.00">GenericVPotRing&lt; Callback &gt;</text>
<polyline fill="none" stroke="black" points="180.5,-160 343.5,-160 "/>
<text text-anchor="middle" x="262" y="-148" font-family="Helvetica,sans-Serif" font-size="10.00"> </text>
<polyline fill="none" stroke="black" points="180.5,-141 343.5,-141 "/>
<text text-anchor="start" x="188.5" y="-129" font-family="Helvetica,sans-Serif" font-size="10.00">+ GenericVPotRing()</text>
</a>
</g>
</g>
<!-- Node3&#45;&gt;Node6 -->
<g id="edge5" class="edge">
<title>Node3&#45;&gt;Node6</title>
<path fill="none" stroke="midnightblue" d="M262,-233.16C262,-213.53 262,-194.11 262,-179.13"/>
<polygon fill="none" stroke="midnightblue" points="258.5,-233.42 262,-243.42 265.5,-233.42 258.5,-233.42"/>
</g>
<!-- Node5 -->
<g id="node5" class="node">
<title>Node5</title>
<g id="a_node5"><a xlink:href="../../d5/ddb/classMCU_1_1VPotRing.html" target="_top" xlink:title="A class for MIDI input elements that represent Mackie Control Universal V&#45;Pots.">
<polygon fill="white" stroke="black" points="64,-0.5 64,-57.5 144,-57.5 144,-0.5 64,-0.5"/>
<text text-anchor="middle" x="104" y="-45.5" font-family="Helvetica,sans-Serif" font-size="10.00">VPotRing</text>
<polyline fill="none" stroke="black" points="64,-38.5 144,-38.5 "/>
<text text-anchor="middle" x="104" y="-26.5" font-family="Helvetica,sans-Serif" font-size="10.00"> </text>
<polyline fill="none" stroke="black" points="64,-19.5 144,-19.5 "/>
<text text-anchor="start" x="72" y="-7.5" font-family="Helvetica,sans-Serif" font-size="10.00">+ VPotRing()</text>
</a>
</g>
</g>
<!-- Node4&#45;&gt;Node5 -->
<g id="edge4" class="edge">
<title>Node4&#45;&gt;Node5</title>
<path fill="none" stroke="midnightblue" d="M104,-111.33C104,-93.85 104,-73.53 104,-57.57"/>
<polygon fill="none" stroke="midnightblue" points="100.5,-111.78 104,-121.78 107.5,-111.78 100.5,-111.78"/>
</g>
<!-- Node8 -->
<g id="node8" class="node">
<title>Node8</title>
<g id="a_node8"><a xlink:href="../../df/dc2/classMCU_1_1GenericVPotRing.html" target="_top" xlink:title=" ">
<polygon fill="white" stroke="black" points="362,-116.5 362,-184.5 516,-184.5 516,-116.5 362,-116.5"/>
<text text-anchor="start" x="370" y="-172.5" font-family="Helvetica,sans-Serif" font-size="10.00">GenericVPotRing&lt; VPotRing</text>
<text text-anchor="middle" x="439" y="-161.5" font-family="Helvetica,sans-Serif" font-size="10.00">LEDsCallback &gt;</text>
<polyline fill="none" stroke="black" points="362,-154.5 516,-154.5 "/>
<text text-anchor="middle" x="439" y="-142.5" font-family="Helvetica,sans-Serif" font-size="10.00"> </text>
<polyline fill="none" stroke="black" points="362,-135.5 516,-135.5 "/>
<text text-anchor="start" x="370" y="-123.5" font-family="Helvetica,sans-Serif" font-size="10.00">+ GenericVPotRing()</text>
</a>
</g>
</g>
<!-- Node7&#45;&gt;Node8 -->
<g id="edge7" class="edge">
<title>Node7&#45;&gt;Node8</title>
<path fill="none" stroke="midnightblue" d="M440.45,-233.28C440.15,-216.05 439.84,-198.98 439.59,-184.92"/>
<polygon fill="none" stroke="midnightblue" points="436.95,-233.48 440.63,-243.42 443.95,-233.36 436.95,-233.48"/>
</g>
<!-- Node9 -->
<g id="node9" class="node">
<title>Node9</title>
<g id="a_node9"><a xlink:href="../../d6/d0d/classMCU_1_1VPotRingLEDs.html" target="_top" xlink:title=" ">
<polygon fill="white" stroke="black" points="387,-0.5 387,-57.5 491,-57.5 491,-0.5 387,-0.5"/>
<text text-anchor="middle" x="439" y="-45.5" font-family="Helvetica,sans-Serif" font-size="10.00">VPotRingLEDs</text>
<polyline fill="none" stroke="black" points="387,-38.5 491,-38.5 "/>
<text text-anchor="middle" x="439" y="-26.5" font-family="Helvetica,sans-Serif" font-size="10.00"> </text>
<polyline fill="none" stroke="black" points="387,-19.5 491,-19.5 "/>
<text text-anchor="start" x="395" y="-7.5" font-family="Helvetica,sans-Serif" font-size="10.00">+ VPotRingLEDs()</text>
</a>
</g>
</g>
<!-- Node8&#45;&gt;Node9 -->
<g id="edge8" class="edge">
<title>Node8&#45;&gt;Node9</title>
<path fill="none" stroke="midnightblue" d="M439,-105.96C439,-89.9 439,-72.16 439,-57.86"/>
<polygon fill="none" stroke="midnightblue" points="435.5,-106.21 439,-116.21 442.5,-106.21 435.5,-106.21"/>
</g>
<!-- Node11 -->
<g id="node11" class="node">
<title>Node11</title>
<g id="a_node11"><a xlink:href="../../d5/d07/classMCU_1_1Bankable_1_1GenericVPotRing.html" target="_top" xlink:title=" ">
<polygon fill="white" stroke="black" points="534,-100 534,-201 708,-201 708,-100 534,-100"/>
<text text-anchor="middle" x="621" y="-189" font-family="Helvetica,sans-Serif" font-size="10.00">GenericVPotRing&lt; NumBanks &gt;</text>
<polyline fill="none" stroke="black" points="534,-182 708,-182 "/>
<text text-anchor="middle" x="621" y="-170" font-family="Helvetica,sans-Serif" font-size="10.00"> </text>
<polyline fill="none" stroke="black" points="534,-163 708,-163 "/>
<text text-anchor="start" x="542" y="-151" font-family="Helvetica,sans-Serif" font-size="10.00">+ GenericVPotRing()</text>
<text text-anchor="start" x="542" y="-140" font-family="Helvetica,sans-Serif" font-size="10.00">&#45; getSelection()</text>
<text text-anchor="start" x="542" y="-129" font-family="Helvetica,sans-Serif" font-size="10.00">&#45; getBankIndex()</text>
<text text-anchor="start" x="542" y="-118" font-family="Helvetica,sans-Serif" font-size="10.00">&#45; match()</text>
<text text-anchor="start" x="542" y="-107" font-family="Helvetica,sans-Serif" font-size="10.00">&#45; onBankSettingChange()</text>
</a>
</g>
</g>
<!-- Node10&#45;&gt;Node11 -->
<g id="edge10" class="edge">
<title>Node10&#45;&gt;Node11</title>
<path fill="none" stroke="midnightblue" d="M621,-233.35C621,-222.39 621,-211.49 621,-201.38"/>
<polygon fill="none" stroke="midnightblue" points="617.5,-233.42 621,-243.42 624.5,-233.42 617.5,-233.42"/>
</g>
<!-- Node13 -->
<g id="node13" class="node">
<title>Node13</title>
<g id="a_node13"><a xlink:href="../../d5/d07/classMCU_1_1Bankable_1_1GenericVPotRing.html" target="_top" xlink:title="A class for MIDI input elements that represent Mackie Control Universal V&#45;Pots.">
<polygon fill="white" stroke="black" points="726,-94.5 726,-206.5 892,-206.5 892,-94.5 726,-94.5"/>
<text text-anchor="start" x="734" y="-194.5" font-family="Helvetica,sans-Serif" font-size="10.00">GenericVPotRing&lt; NumBanks,</text>
<text text-anchor="middle" x="809" y="-183.5" font-family="Helvetica,sans-Serif" font-size="10.00"> Callback &gt;</text>
<polyline fill="none" stroke="black" points="726,-176.5 892,-176.5 "/>
<text text-anchor="middle" x="809" y="-164.5" font-family="Helvetica,sans-Serif" font-size="10.00"> </text>
<polyline fill="none" stroke="black" points="726,-157.5 892,-157.5 "/>
<text text-anchor="start" x="734" y="-145.5" font-family="Helvetica,sans-Serif" font-size="10.00">+ GenericVPotRing()</text>
<text text-anchor="start" x="734" y="-134.5" font-family="Helvetica,sans-Serif" font-size="10.00">&#45; getSelection()</text>
<text text-anchor="start" x="734" y="-123.5" font-family="Helvetica,sans-Serif" font-size="10.00">&#45; getBankIndex()</text>
<text text-anchor="start" x="734" y="-112.5" font-family="Helvetica,sans-Serif" font-size="10.00">&#45; match()</text>
<text text-anchor="start" x="734" y="-101.5" font-family="Helvetica,sans-Serif" font-size="10.00">&#45; onBankSettingChange()</text>
</a>
</g>
</g>
<!-- Node10&#45;&gt;Node13 -->
<g id="edge12" class="edge">
<title>Node10&#45;&gt;Node13</title>
<path fill="none" stroke="midnightblue" d="M707.65,-242.61C721.14,-230.48 734.84,-218.17 747.61,-206.68"/>
<polygon fill="none" stroke="midnightblue" points="705.28,-240.03 700.18,-249.32 709.96,-245.24 705.28,-240.03"/>
</g>
<!-- Node12 -->
<g id="node12" class="node">
<title>Node12</title>
<g id="a_node12"><a xlink:href="../../da/d93/classMCU_1_1Bankable_1_1VPotRing.html" target="_top" xlink:title="A class for MIDI input elements that represent Mackie Control Universal V&#45;Pots.">
<polygon fill="white" stroke="black" points="552.5,-0.5 552.5,-57.5 689.5,-57.5 689.5,-0.5 552.5,-0.5"/>
<text text-anchor="middle" x="621" y="-45.5" font-family="Helvetica,sans-Serif" font-size="10.00">VPotRing&lt; NumBanks &gt;</text>
<polyline fill="none" stroke="black" points="552.5,-38.5 689.5,-38.5 "/>
<text text-anchor="middle" x="621" y="-26.5" font-family="Helvetica,sans-Serif" font-size="10.00"> </text>
<polyline fill="none" stroke="black" points="552.5,-19.5 689.5,-19.5 "/>
<text text-anchor="start" x="560.5" y="-7.5" font-family="Helvetica,sans-Serif" font-size="10.00">+ VPotRing()</text>
</a>
</g>
</g>
<!-- Node11&#45;&gt;Node12 -->
<g id="edge11" class="edge">
<title>Node11&#45;&gt;Node12</title>
<path fill="none" stroke="midnightblue" d="M621,-89.67C621,-78.53 621,-67.39 621,-57.81"/>
<polygon fill="none" stroke="midnightblue" points="617.5,-89.86 621,-99.86 624.5,-89.86 617.5,-89.86"/>
</g>
<!-- Node15 -->
<g id="node15" class="node">
<title>Node15</title>
<g id="a_node15"><a xlink:href="../../d5/d07/classMCU_1_1Bankable_1_1GenericVPotRing.html" target="_top" xlink:title=" ">
<polygon fill="white" stroke="black" points="910,-94.5 910,-206.5 1076,-206.5 1076,-94.5 910,-94.5"/>
<text text-anchor="start" x="918" y="-194.5" font-family="Helvetica,sans-Serif" font-size="10.00">GenericVPotRing&lt; NumBanks,</text>
<text text-anchor="middle" x="993" y="-183.5" font-family="Helvetica,sans-Serif" font-size="10.00"> VPotRingLEDsCallback &gt;</text>
<polyline fill="none" stroke="black" points="910,-176.5 1076,-176.5 "/>
<text text-anchor="middle" x="993" y="-164.5" font-family="Helvetica,sans-Serif" font-size="10.00"> </text>
<polyline fill="none" stroke="black" points="910,-157.5 1076,-157.5 "/>
<text text-anchor="start" x="918" y="-145.5" font-family="Helvetica,sans-Serif" font-size="10.00">+ GenericVPotRing()</text>
<text text-anchor="start" x="918" y="-134.5" font-family="Helvetica,sans-Serif" font-size="10.00">&#45; getSelection()</text>
<text text-anchor="start" x="918" y="-123.5" font-family="Helvetica,sans-Serif" font-size="10.00">&#45; getBankIndex()</text>
<text text-anchor="start" x="918" y="-112.5" font-family="Helvetica,sans-Serif" font-size="10.00">&#45; match()</text>
<text text-anchor="start" x="918" y="-101.5" font-family="Helvetica,sans-Serif" font-size="10.00">&#45; onBankSettingChange()</text>
</a>
</g>
</g>
<!-- Node14&#45;&gt;Node15 -->
<g id="edge14" class="edge">
<title>Node14&#45;&gt;Node15</title>
<path fill="none" stroke="midnightblue" d="M944.75,-234.7C950.26,-225.21 955.75,-215.73 960.95,-206.76"/>
<polygon fill="none" stroke="midnightblue" points="941.69,-233.01 939.7,-243.42 947.74,-236.52 941.69,-233.01"/>
</g>
<!-- Node16 -->
<g id="node16" class="node">
<title>Node16</title>
<g id="a_node16"><a xlink:href="../../d2/d89/classMCU_1_1Bankable_1_1VPotRingLEDs.html" target="_top" xlink:title=" ">
<polygon fill="white" stroke="black" points="912.5,-0.5 912.5,-57.5 1073.5,-57.5 1073.5,-0.5 912.5,-0.5"/>
<text text-anchor="middle" x="993" y="-45.5" font-family="Helvetica,sans-Serif" font-size="10.00">VPotRingLEDs&lt; NumBanks &gt;</text>
<polyline fill="none" stroke="black" points="912.5,-38.5 1073.5,-38.5 "/>
<text text-anchor="middle" x="993" y="-26.5" font-family="Helvetica,sans-Serif" font-size="10.00"> </text>
<polyline fill="none" stroke="black" points="912.5,-19.5 1073.5,-19.5 "/>
<text text-anchor="start" x="920.5" y="-7.5" font-family="Helvetica,sans-Serif" font-size="10.00">+ VPotRingLEDs()</text>
</a>
</g>
</g>
<!-- Node15&#45;&gt;Node16 -->
<g id="edge15" class="edge">
<title>Node15&#45;&gt;Node16</title>
<path fill="none" stroke="midnightblue" d="M993,-84.15C993,-74.82 993,-65.67 993,-57.63"/>
<polygon fill="none" stroke="midnightblue" points="989.5,-84.3 993,-94.3 996.5,-84.3 989.5,-84.3"/>
</g>
</g>
</svg>
