<?xml version="1.0" encoding="UTF-8" standalone="no"?>
<!DOCTYPE svg PUBLIC "-//W3C//DTD SVG 1.1//EN"
 "http://www.w3.org/Graphics/SVG/1.1/DTD/svg11.dtd">
<!-- Generated by graphviz version 2.38.0 (20140413.2041)
 -->
<!-- Title: MIDIFilteredAnalog&lt; BankAddress, Sender &gt; Pages: 1 -->
<svg width="749pt" height="1147pt"
 viewBox="0.00 0.00 749.00 1147.00" xmlns="http://www.w3.org/2000/svg" xmlns:xlink="http://www.w3.org/1999/xlink">
<g id="graph0" class="graph" transform="scale(1 1) rotate(0) translate(4 1143)">
<title>MIDIFilteredAnalog&lt; BankAddress, Sender &gt;</title>
<polygon fill="white" stroke="none" points="-4,4 -4,-1143 745,-1143 745,4 -4,4"/>
<!-- Node1 -->
<g id="node1" class="node"><title>Node1</title>
<g id="a_node1"><a xlink:title="A class for potentiometers and faders that send MIDI events (with only a channel, no address) and tha...">
<polygon fill="#bfbfbf" stroke="black" points="435.5,-0.5 435.5,-134.5 565.5,-134.5 565.5,-0.5 435.5,-0.5"/>
<text text-anchor="start" x="443.5" y="-122.5" font-family="Helvetica,sans-Serif" font-size="10.00">MIDIFilteredAnalog</text>
<text text-anchor="middle" x="500.5" y="-111.5" font-family="Helvetica,sans-Serif" font-size="10.00">&lt; BankAddress, Sender &gt;</text>
<polyline fill="none" stroke="black" points="435.5,-104.5 565.5,-104.5 "/>
<text text-anchor="middle" x="500.5" y="-92.5" font-family="Helvetica,sans-Serif" font-size="10.00"> </text>
<polyline fill="none" stroke="black" points="435.5,-85.5 565.5,-85.5 "/>
<text text-anchor="start" x="443.5" y="-73.5" font-family="Helvetica,sans-Serif" font-size="10.00">+ begin()</text>
<text text-anchor="start" x="443.5" y="-62.5" font-family="Helvetica,sans-Serif" font-size="10.00">+ update()</text>
<text text-anchor="start" x="443.5" y="-51.5" font-family="Helvetica,sans-Serif" font-size="10.00">+ map()</text>
<text text-anchor="start" x="443.5" y="-40.5" font-family="Helvetica,sans-Serif" font-size="10.00">+ invert()</text>
<text text-anchor="start" x="443.5" y="-29.5" font-family="Helvetica,sans-Serif" font-size="10.00">+ getRawValue()</text>
<text text-anchor="start" x="443.5" y="-18.5" font-family="Helvetica,sans-Serif" font-size="10.00">+ getValue()</text>
<text text-anchor="start" x="443.5" y="-7.5" font-family="Helvetica,sans-Serif" font-size="10.00"># MIDIFilteredAnalog()</text>
</a>
</g>
</g>
<!-- Node2 -->
<g id="node2" class="node"><title>Node2</title>
<g id="a_node2"><a xlink:href="../../d1/d55/classAH_1_1Updatable.html" target="_top" xlink:title=" ">
<polygon fill="white" stroke="black" points="97.5,-182.5 97.5,-393.5 201.5,-393.5 201.5,-182.5 97.5,-182.5"/>
<text text-anchor="middle" x="149.5" y="-381.5" font-family="Helvetica,sans-Serif" font-size="10.00">MIDIOutputElement</text>
<polyline fill="none" stroke="black" points="97.5,-374.5 201.5,-374.5 "/>
<text text-anchor="middle" x="149.5" y="-362.5" font-family="Helvetica,sans-Serif" font-size="10.00"> </text>
<polyline fill="none" stroke="black" points="97.5,-355.5 201.5,-355.5 "/>
<text text-anchor="start" x="105.5" y="-343.5" font-family="Helvetica,sans-Serif" font-size="10.00">+ ~Updatable()</text>
<text text-anchor="start" x="105.5" y="-332.5" font-family="Helvetica,sans-Serif" font-size="10.00">+ update()</text>
<text text-anchor="start" x="105.5" y="-321.5" font-family="Helvetica,sans-Serif" font-size="10.00">+ begin()</text>
<text text-anchor="start" x="105.5" y="-310.5" font-family="Helvetica,sans-Serif" font-size="10.00">+ enable()</text>
<text text-anchor="start" x="105.5" y="-299.5" font-family="Helvetica,sans-Serif" font-size="10.00">+ disable()</text>
<text text-anchor="start" x="105.5" y="-288.5" font-family="Helvetica,sans-Serif" font-size="10.00">+ isEnabled()</text>
<text text-anchor="start" x="105.5" y="-277.5" font-family="Helvetica,sans-Serif" font-size="10.00">+ enable()</text>
<text text-anchor="start" x="105.5" y="-266.5" font-family="Helvetica,sans-Serif" font-size="10.00">+ enable()</text>
<text text-anchor="start" x="105.5" y="-255.5" font-family="Helvetica,sans-Serif" font-size="10.00">+ enable()</text>
<text text-anchor="start" x="105.5" y="-244.5" font-family="Helvetica,sans-Serif" font-size="10.00">+ disable()</text>
<text text-anchor="start" x="105.5" y="-233.5" font-family="Helvetica,sans-Serif" font-size="10.00">+ disable()</text>
<text text-anchor="start" x="105.5" y="-222.5" font-family="Helvetica,sans-Serif" font-size="10.00">+ disable()</text>
<text text-anchor="start" x="105.5" y="-211.5" font-family="Helvetica,sans-Serif" font-size="10.00">+ beginAll()</text>
<text text-anchor="start" x="105.5" y="-200.5" font-family="Helvetica,sans-Serif" font-size="10.00">+ updateAll()</text>
<text text-anchor="start" x="105.5" y="-189.5" font-family="Helvetica,sans-Serif" font-size="10.00"># Updatable()</text>
</a>
</g>
</g>
<!-- Node2&#45;&gt;Node1 -->
<g id="edge1" class="edge"><title>Node2&#45;&gt;Node1</title>
<path fill="none" stroke="midnightblue" d="M210.306,-249.148C273.207,-209.991 371.081,-149.064 435.49,-108.969"/>
<polygon fill="none" stroke="midnightblue" points="208.309,-246.268 201.669,-254.524 212.008,-252.211 208.309,-246.268"/>
</g>
<!-- Node3 -->
<g id="node3" class="node"><title>Node3</title>
<g id="a_node3"><a xlink:href="../../d4/d23/classDoublyLinkable.html" target="_top" xlink:title=" ">
<polygon fill="white" stroke="black" points="0,-1059.5 0,-1138.5 137,-1138.5 137,-1059.5 0,-1059.5"/>
<text text-anchor="start" x="8" y="-1126.5" font-family="Helvetica,sans-Serif" font-size="10.00">DoublyLinkable&lt; Updatable</text>
<text text-anchor="middle" x="68.5" y="-1115.5" font-family="Helvetica,sans-Serif" font-size="10.00">&lt; NormalUpdatable &gt; &gt;</text>
<polyline fill="none" stroke="black" points="0,-1108.5 137,-1108.5 "/>
<text text-anchor="start" x="8" y="-1096.5" font-family="Helvetica,sans-Serif" font-size="10.00"># next</text>
<text text-anchor="start" x="8" y="-1085.5" font-family="Helvetica,sans-Serif" font-size="10.00"># previous</text>
<polyline fill="none" stroke="black" points="0,-1078.5 137,-1078.5 "/>
<text text-anchor="start" x="8" y="-1066.5" font-family="Helvetica,sans-Serif" font-size="10.00"># ~DoublyLinkable()</text>
</a>
</g>
</g>
<!-- Node3&#45;&gt;Node2 -->
<g id="edge2" class="edge"><title>Node3&#45;&gt;Node2</title>
<path fill="none" stroke="midnightblue" d="M58.0319,-1049.36C36.2496,-938.712 -6.95938,-660.749 55.5,-441 64.0677,-410.856 80.5066,-380.838 97.2721,-355.539"/>
<polygon fill="none" stroke="midnightblue" points="54.612,-1050.11 60.0055,-1059.23 61.4761,-1048.73 54.612,-1050.11"/>
</g>
<!-- Node5 -->
<g id="node5" class="node"><title>Node5</title>
<g id="a_node5"><a xlink:href="../../d1/d55/classAH_1_1Updatable.html" target="_top" xlink:title=" ">
<polygon fill="white" stroke="black" points="65,-810.5 65,-1021.5 220,-1021.5 220,-810.5 65,-810.5"/>
<text text-anchor="middle" x="142.5" y="-1009.5" font-family="Helvetica,sans-Serif" font-size="10.00">Updatable&lt; NormalUpdatable &gt;</text>
<polyline fill="none" stroke="black" points="65,-1002.5 220,-1002.5 "/>
<text text-anchor="middle" x="142.5" y="-990.5" font-family="Helvetica,sans-Serif" font-size="10.00"> </text>
<polyline fill="none" stroke="black" points="65,-983.5 220,-983.5 "/>
<text text-anchor="start" x="73" y="-971.5" font-family="Helvetica,sans-Serif" font-size="10.00">+ ~Updatable()</text>
<text text-anchor="start" x="73" y="-960.5" font-family="Helvetica,sans-Serif" font-size="10.00">+ update()</text>
<text text-anchor="start" x="73" y="-949.5" font-family="Helvetica,sans-Serif" font-size="10.00">+ begin()</text>
<text text-anchor="start" x="73" y="-938.5" font-family="Helvetica,sans-Serif" font-size="10.00">+ enable()</text>
<text text-anchor="start" x="73" y="-927.5" font-family="Helvetica,sans-Serif" font-size="10.00">+ disable()</text>
<text text-anchor="start" x="73" y="-916.5" font-family="Helvetica,sans-Serif" font-size="10.00">+ isEnabled()</text>
<text text-anchor="start" x="73" y="-905.5" font-family="Helvetica,sans-Serif" font-size="10.00">+ enable()</text>
<text text-anchor="start" x="73" y="-894.5" font-family="Helvetica,sans-Serif" font-size="10.00">+ enable()</text>
<text text-anchor="start" x="73" y="-883.5" font-family="Helvetica,sans-Serif" font-size="10.00">+ enable()</text>
<text text-anchor="start" x="73" y="-872.5" font-family="Helvetica,sans-Serif" font-size="10.00">+ disable()</text>
<text text-anchor="start" x="73" y="-861.5" font-family="Helvetica,sans-Serif" font-size="10.00">+ disable()</text>
<text text-anchor="start" x="73" y="-850.5" font-family="Helvetica,sans-Serif" font-size="10.00">+ disable()</text>
<text text-anchor="start" x="73" y="-839.5" font-family="Helvetica,sans-Serif" font-size="10.00">+ beginAll()</text>
<text text-anchor="start" x="73" y="-828.5" font-family="Helvetica,sans-Serif" font-size="10.00">+ updateAll()</text>
<text text-anchor="start" x="73" y="-817.5" font-family="Helvetica,sans-Serif" font-size="10.00"># Updatable()</text>
</a>
</g>
</g>
<!-- Node3&#45;&gt;Node5 -->
<g id="edge5" class="edge"><title>Node3&#45;&gt;Node5</title>
<path fill="none" stroke="midnightblue" d="M88.1948,-1049.83C91.8276,-1040.94 95.7476,-1031.35 99.7599,-1021.54"/>
<polygon fill="none" stroke="midnightblue" points="84.9196,-1048.59 84.3749,-1059.17 91.399,-1051.24 84.9196,-1048.59"/>
</g>
<!-- Node4 -->
<g id="node4" class="node"><title>Node4</title>
<g id="a_node4"><a xlink:href="../../dd/d16/classDoublyLinkedList.html" target="_top" xlink:title=" ">
<polygon fill="white" stroke="black" points="64.5,-441.5 64.5,-718.5 234.5,-718.5 234.5,-441.5 64.5,-441.5"/>
<text text-anchor="start" x="72.5" y="-706.5" font-family="Helvetica,sans-Serif" font-size="10.00">DoublyLinkedList&lt; AH</text>
<text text-anchor="middle" x="149.5" y="-695.5" font-family="Helvetica,sans-Serif" font-size="10.00">::Updatable&lt; NormalUpdatable &gt; &gt;</text>
<polyline fill="none" stroke="black" points="64.5,-688.5 234.5,-688.5 "/>
<text text-anchor="middle" x="149.5" y="-676.5" font-family="Helvetica,sans-Serif" font-size="10.00"> </text>
<polyline fill="none" stroke="black" points="64.5,-669.5 234.5,-669.5 "/>
<text text-anchor="start" x="72.5" y="-657.5" font-family="Helvetica,sans-Serif" font-size="10.00">+ append()</text>
<text text-anchor="start" x="72.5" y="-646.5" font-family="Helvetica,sans-Serif" font-size="10.00">+ append()</text>
<text text-anchor="start" x="72.5" y="-635.5" font-family="Helvetica,sans-Serif" font-size="10.00">+ insertBefore()</text>
<text text-anchor="start" x="72.5" y="-624.5" font-family="Helvetica,sans-Serif" font-size="10.00">+ insertBefore()</text>
<text text-anchor="start" x="72.5" y="-613.5" font-family="Helvetica,sans-Serif" font-size="10.00">+ insertSorted()</text>
<text text-anchor="start" x="72.5" y="-602.5" font-family="Helvetica,sans-Serif" font-size="10.00">+ insertSorted()</text>
<text text-anchor="start" x="72.5" y="-591.5" font-family="Helvetica,sans-Serif" font-size="10.00">+ remove()</text>
<text text-anchor="start" x="72.5" y="-580.5" font-family="Helvetica,sans-Serif" font-size="10.00">+ remove()</text>
<text text-anchor="start" x="72.5" y="-569.5" font-family="Helvetica,sans-Serif" font-size="10.00">+ moveDown()</text>
<text text-anchor="start" x="72.5" y="-558.5" font-family="Helvetica,sans-Serif" font-size="10.00">+ couldContain()</text>
<text text-anchor="start" x="72.5" y="-547.5" font-family="Helvetica,sans-Serif" font-size="10.00">+ begin()</text>
<text text-anchor="start" x="72.5" y="-536.5" font-family="Helvetica,sans-Serif" font-size="10.00">+ begin()</text>
<text text-anchor="start" x="72.5" y="-525.5" font-family="Helvetica,sans-Serif" font-size="10.00">+ end()</text>
<text text-anchor="start" x="72.5" y="-514.5" font-family="Helvetica,sans-Serif" font-size="10.00">+ end()</text>
<text text-anchor="start" x="72.5" y="-503.5" font-family="Helvetica,sans-Serif" font-size="10.00">+ rbegin()</text>
<text text-anchor="start" x="72.5" y="-492.5" font-family="Helvetica,sans-Serif" font-size="10.00">+ rbegin()</text>
<text text-anchor="start" x="72.5" y="-481.5" font-family="Helvetica,sans-Serif" font-size="10.00">+ rend()</text>
<text text-anchor="start" x="72.5" y="-470.5" font-family="Helvetica,sans-Serif" font-size="10.00">+ rend()</text>
<text text-anchor="start" x="72.5" y="-459.5" font-family="Helvetica,sans-Serif" font-size="10.00">+ getFirst()</text>
<text text-anchor="start" x="72.5" y="-448.5" font-family="Helvetica,sans-Serif" font-size="10.00">+ getLast()</text>
</a>
</g>
</g>
<!-- Node4&#45;&gt;Node2 -->
<g id="edge3" class="edge"><title>Node4&#45;&gt;Node2</title>
<path fill="none" stroke="#404040" d="M149.5,-441.219C149.5,-429.396 149.5,-417.51 149.5,-405.874"/>
<polygon fill="none" stroke="#404040" points="149.5,-405.853 145.5,-399.853 149.5,-393.853 153.5,-399.853 149.5,-405.853"/>
<text text-anchor="middle" x="176.5" y="-415" font-family="Helvetica,sans-Serif" font-size="10.00"> &#45;updatables</text>
</g>
<!-- Node4&#45;&gt;Node5 -->
<g id="edge6" class="edge"><title>Node4&#45;&gt;Node5</title>
<path fill="none" stroke="#404040" d="M147.907,-718.626C147.52,-743.068 147.054,-768.285 146.5,-792 146.452,-794.056 146.402,-796.131 146.35,-798.221"/>
<polygon fill="none" stroke="#404040" points="146.347,-798.328 150.189,-804.431 146.034,-810.324 142.192,-804.222 146.347,-798.328"/>
<text text-anchor="middle" x="175.5" y="-762" font-family="Helvetica,sans-Serif" font-size="10.00"> &#45;updatables</text>
</g>
<!-- Node5&#45;&gt;Node4 -->
<g id="edge4" class="edge"><title>Node5&#45;&gt;Node4</title>
<path fill="none" stroke="#404040" d="M126.143,-810.434C125.497,-804.207 124.939,-798.027 124.5,-792 123.056,-772.163 123.33,-751.322 124.661,-730.781"/>
<polygon fill="none" stroke="#404040" points="124.667,-730.697 121.126,-724.415 125.562,-718.73 129.103,-725.012 124.667,-730.697"/>
<text text-anchor="middle" x="135.5" y="-767.5" font-family="Helvetica,sans-Serif" font-size="10.00"> &#45;last</text>
<text text-anchor="middle" x="135.5" y="-756.5" font-family="Helvetica,sans-Serif" font-size="10.00">&#45;first</text>
</g>
<!-- Node6 -->
<g id="node6" class="node"><title>Node6</title>
<g id="a_node6"><a xlink:href="../../d3/d6e/classAH_1_1FilteredAnalog.html" target="_top" xlink:title=" ">
<polygon fill="white" stroke="black" points="371,-215.5 371,-360.5 490,-360.5 490,-215.5 371,-215.5"/>
<text text-anchor="start" x="379" y="-348.5" font-family="Helvetica,sans-Serif" font-size="10.00">FilteredAnalog&lt; Sender</text>
<text text-anchor="middle" x="430.5" y="-337.5" font-family="Helvetica,sans-Serif" font-size="10.00">::precision()&gt;</text>
<polyline fill="none" stroke="black" points="371,-330.5 490,-330.5 "/>
<text text-anchor="middle" x="430.5" y="-318.5" font-family="Helvetica,sans-Serif" font-size="10.00"> </text>
<polyline fill="none" stroke="black" points="371,-311.5 490,-311.5 "/>
<text text-anchor="start" x="379" y="-299.5" font-family="Helvetica,sans-Serif" font-size="10.00">+ FilteredAnalog()</text>
<text text-anchor="start" x="379" y="-288.5" font-family="Helvetica,sans-Serif" font-size="10.00">+ map()</text>
<text text-anchor="start" x="379" y="-277.5" font-family="Helvetica,sans-Serif" font-size="10.00">+ invert()</text>
<text text-anchor="start" x="379" y="-266.5" font-family="Helvetica,sans-Serif" font-size="10.00">+ update()</text>
<text text-anchor="start" x="379" y="-255.5" font-family="Helvetica,sans-Serif" font-size="10.00">+ getValue()</text>
<text text-anchor="start" x="379" y="-244.5" font-family="Helvetica,sans-Serif" font-size="10.00">+ getFloatValue()</text>
<text text-anchor="start" x="379" y="-233.5" font-family="Helvetica,sans-Serif" font-size="10.00">+ getRawValue()</text>
<text text-anchor="start" x="379" y="-222.5" font-family="Helvetica,sans-Serif" font-size="10.00">+ setupADC()</text>
</a>
</g>
</g>
<!-- Node6&#45;&gt;Node1 -->
<g id="edge7" class="edge"><title>Node6&#45;&gt;Node1</title>
<path fill="none" stroke="#404040" d="M435.255,-215.478C438.055,-194.9 442.488,-172.701 449.5,-153 450.353,-150.604 451.278,-148.201 452.265,-145.801"/>
<polygon fill="none" stroke="#404040" points="452.37,-145.568 451.18,-138.456 457.287,-134.622 458.477,-141.734 452.37,-145.568"/>
<text text-anchor="middle" x="482.5" y="-156" font-family="Helvetica,sans-Serif" font-size="10.00"> &#45;filteredAnalog</text>
</g>
<!-- Node7 -->
<g id="node7" class="node"><title>Node7</title>
<g id="a_node7"><a xlink:href="../../d7/d40/classEMA.html" target="_top" xlink:title=" ">
<polygon fill="white" stroke="black" points="253,-529.5 253,-630.5 398,-630.5 398,-529.5 253,-529.5"/>
<text text-anchor="start" x="261" y="-618.5" font-family="Helvetica,sans-Serif" font-size="10.00">EMA&lt; ANALOG_FILTER</text>
<text text-anchor="start" x="261" y="-607.5" font-family="Helvetica,sans-Serif" font-size="10.00">_SHIFT_FACTOR, ANALOG</text>
<text text-anchor="middle" x="325.5" y="-596.5" font-family="Helvetica,sans-Serif" font-size="10.00">_FILTER_TYPE &gt;</text>
<polyline fill="none" stroke="black" points="253,-589.5 398,-589.5 "/>
<text text-anchor="start" x="261" y="-577.5" font-family="Helvetica,sans-Serif" font-size="10.00">&#45; filtered</text>
<text text-anchor="start" x="261" y="-566.5" font-family="Helvetica,sans-Serif" font-size="10.00">&#45; fixedPointAHalf</text>
<polyline fill="none" stroke="black" points="253,-559.5 398,-559.5 "/>
<text text-anchor="start" x="261" y="-547.5" font-family="Helvetica,sans-Serif" font-size="10.00">+ filter()</text>
<text text-anchor="start" x="261" y="-536.5" font-family="Helvetica,sans-Serif" font-size="10.00">+ operator()()</text>
</a>
</g>
</g>
<!-- Node7&#45;&gt;Node6 -->
<g id="edge8" class="edge"><title>Node7&#45;&gt;Node6</title>
<path fill="none" stroke="#404040" d="M343.431,-529.477C359.059,-486.313 382.045,-422.828 400.475,-371.925"/>
<polygon fill="none" stroke="#404040" points="400.488,-371.889 398.77,-364.886 404.574,-360.606 406.292,-367.61 400.488,-371.889"/>
<text text-anchor="middle" x="397" y="-415" font-family="Helvetica,sans-Serif" font-size="10.00"> &#45;filter</text>
</g>
<!-- Node8 -->
<g id="node8" class="node"><title>Node8</title>
<g id="a_node8"><a xlink:title=" ">
<polygon fill="white" stroke="#bfbfbf" points="416.5,-551.5 416.5,-608.5 454.5,-608.5 454.5,-551.5 416.5,-551.5"/>
<text text-anchor="middle" x="435.5" y="-596.5" font-family="Helvetica,sans-Serif" font-size="10.00">pin_t</text>
<polyline fill="none" stroke="#bfbfbf" points="416.5,-589.5 454.5,-589.5 "/>
<text text-anchor="middle" x="435.5" y="-577.5" font-family="Helvetica,sans-Serif" font-size="10.00"> </text>
<polyline fill="none" stroke="#bfbfbf" points="416.5,-570.5 454.5,-570.5 "/>
<text text-anchor="middle" x="435.5" y="-558.5" font-family="Helvetica,sans-Serif" font-size="10.00"> </text>
</a>
</g>
</g>
<!-- Node8&#45;&gt;Node6 -->
<g id="edge9" class="edge"><title>Node8&#45;&gt;Node6</title>
<path fill="none" stroke="#404040" d="M434.64,-551.387C433.705,-520.211 432.244,-467.967 431.5,-423 431.233,-406.873 431.037,-389.654 430.894,-373.116"/>
<polygon fill="none" stroke="#404040" points="430.89,-372.631 426.842,-366.664 430.794,-360.632 434.842,-366.6 430.89,-372.631"/>
<text text-anchor="middle" x="456" y="-415" font-family="Helvetica,sans-Serif" font-size="10.00"> &#45;analogPin</text>
</g>
<!-- Node9 -->
<g id="node9" class="node"><title>Node9</title>
<g id="a_node9"><a xlink:href="../../d2/dcb/classHysteresis.html" target="_top" xlink:title=" ">
<polygon fill="white" stroke="black" points="550,-513 550,-647 741,-647 741,-513 550,-513"/>
<text text-anchor="start" x="558" y="-635" font-family="Helvetica,sans-Serif" font-size="10.00">Hysteresis&lt; ADC_BITS</text>
<text text-anchor="start" x="558" y="-624" font-family="Helvetica,sans-Serif" font-size="10.00">+min(sizeof(ANALOG_FILTER</text>
<text text-anchor="start" x="558" y="-613" font-family="Helvetica,sans-Serif" font-size="10.00">_TYPE) *CHAR_BIT &#45; ADC_BITS</text>
<text text-anchor="start" x="558" y="-602" font-family="Helvetica,sans-Serif" font-size="10.00"> &#45; ANALOG_FILTER_SHIFT_FACTOR,</text>
<text text-anchor="start" x="558" y="-591" font-family="Helvetica,sans-Serif" font-size="10.00"> sizeof(analog_t) *CHAR_BIT </text>
<text text-anchor="start" x="558" y="-580" font-family="Helvetica,sans-Serif" font-size="10.00">&#45; ADC_BITS) &#45; Precision, analog</text>
<text text-anchor="middle" x="645.5" y="-569" font-family="Helvetica,sans-Serif" font-size="10.00">_t, analog_t &gt;</text>
<polyline fill="none" stroke="black" points="550,-562 741,-562 "/>
<text text-anchor="middle" x="645.5" y="-550" font-family="Helvetica,sans-Serif" font-size="10.00"> </text>
<polyline fill="none" stroke="black" points="550,-543 741,-543 "/>
<text text-anchor="start" x="558" y="-531" font-family="Helvetica,sans-Serif" font-size="10.00">+ update()</text>
<text text-anchor="start" x="558" y="-520" font-family="Helvetica,sans-Serif" font-size="10.00">+ getValue()</text>
</a>
</g>
</g>
<!-- Node9&#45;&gt;Node6 -->
<g id="edge10" class="edge"><title>Node9&#45;&gt;Node6</title>
<path fill="none" stroke="#404040" d="M592.667,-512.819C552.355,-462.272 502.973,-400.226 498.5,-394 493.109,-386.497 487.632,-378.589 482.246,-370.617"/>
<polygon fill="none" stroke="#404040" points="482.158,-370.485 475.498,-367.721 475.487,-360.51 482.148,-363.274 482.158,-370.485"/>
<text text-anchor="middle" x="546.5" y="-415" font-family="Helvetica,sans-Serif" font-size="10.00"> &#45;hysteresis</text>
</g>
<!-- Node10 -->
<g id="node10" class="node"><title>Node10</title>
<g id="a_node10"><a xlink:title=" ">
<polygon fill="white" stroke="#bfbfbf" points="514,-887.5 514,-944.5 567,-944.5 567,-887.5 514,-887.5"/>
<text text-anchor="middle" x="540.5" y="-932.5" font-family="Helvetica,sans-Serif" font-size="10.00">analog_t</text>
<polyline fill="none" stroke="#bfbfbf" points="514,-925.5 567,-925.5 "/>
<text text-anchor="middle" x="540.5" y="-913.5" font-family="Helvetica,sans-Serif" font-size="10.00"> </text>
<polyline fill="none" stroke="#bfbfbf" points="514,-906.5 567,-906.5 "/>
<text text-anchor="middle" x="540.5" y="-894.5" font-family="Helvetica,sans-Serif" font-size="10.00"> </text>
</a>
</g>
</g>
<!-- Node10&#45;&gt;Node6 -->
<g id="edge12" class="edge"><title>Node10&#45;&gt;Node6</title>
<path fill="none" stroke="#404040" d="M534.245,-887.244C525.952,-849.407 511.442,-779.427 503.5,-719 485.67,-583.34 511.752,-545.21 480.5,-412 477.405,-398.808 473.095,-385.19 468.292,-372.036"/>
<polygon fill="none" stroke="#404040" points="468.217,-371.839 462.349,-367.647 463.962,-360.619 469.829,-364.81 468.217,-371.839"/>
<text text-anchor="middle" x="522" y="-577.5" font-family="Helvetica,sans-Serif" font-size="10.00"> &#45;mapFn</text>
</g>
<!-- Node10&#45;&gt;Node9 -->
<g id="edge11" class="edge"><title>Node10&#45;&gt;Node9</title>
<path fill="none" stroke="#404040" d="M549.182,-887.383C564.783,-837.758 598.076,-731.854 621.118,-658.558"/>
<polygon fill="none" stroke="#404040" points="621.125,-658.535 619.109,-651.612 624.724,-647.088 626.74,-654.011 621.125,-658.535"/>
<text text-anchor="middle" x="619.5" y="-784" font-family="Helvetica,sans-Serif" font-size="10.00"> &#45;max_in</text>
<text text-anchor="middle" x="619.5" y="-773" font-family="Helvetica,sans-Serif" font-size="10.00">&#45;max_out</text>
<text text-anchor="middle" x="619.5" y="-762" font-family="Helvetica,sans-Serif" font-size="10.00">&#45;offset</text>
<text text-anchor="middle" x="619.5" y="-751" font-family="Helvetica,sans-Serif" font-size="10.00">&#45;prevLevel</text>
<text text-anchor="middle" x="619.5" y="-740" font-family="Helvetica,sans-Serif" font-size="10.00">&#45;margin</text>
</g>
<!-- Node11 -->
<g id="node11" class="node"><title>Node11</title>
<g id="a_node11"><a xlink:title=" ">
<polygon fill="white" stroke="#bfbfbf" points="508,-259.5 508,-316.5 583,-316.5 583,-259.5 508,-259.5"/>
<text text-anchor="middle" x="545.5" y="-304.5" font-family="Helvetica,sans-Serif" font-size="10.00">BankAddress</text>
<polyline fill="none" stroke="#bfbfbf" points="508,-297.5 583,-297.5 "/>
<text text-anchor="middle" x="545.5" y="-285.5" font-family="Helvetica,sans-Serif" font-size="10.00"> </text>
<polyline fill="none" stroke="#bfbfbf" points="508,-278.5 583,-278.5 "/>
<text text-anchor="middle" x="545.5" y="-266.5" font-family="Helvetica,sans-Serif" font-size="10.00"> </text>
</a>
</g>
</g>
<!-- Node11&#45;&gt;Node1 -->
<g id="edge13" class="edge"><title>Node11&#45;&gt;Node1</title>
<path fill="none" stroke="#404040" d="M539.801,-259.327C533.992,-231.124 524.714,-186.071 516.63,-146.821"/>
<polygon fill="none" stroke="#404040" points="516.586,-146.605 511.458,-141.536 514.165,-134.852 519.293,-139.922 516.586,-146.605"/>
<text text-anchor="middle" x="540" y="-156" font-family="Helvetica,sans-Serif" font-size="10.00"> &#45;address</text>
</g>
<!-- Node12 -->
<g id="node12" class="node"><title>Node12</title>
<g id="a_node12"><a xlink:title=" ">
<polygon fill="white" stroke="#bfbfbf" points="601,-259.5 601,-316.5 648,-316.5 648,-259.5 601,-259.5"/>
<text text-anchor="middle" x="624.5" y="-304.5" font-family="Helvetica,sans-Serif" font-size="10.00">Sender</text>
<polyline fill="none" stroke="#bfbfbf" points="601,-297.5 648,-297.5 "/>
<text text-anchor="middle" x="624.5" y="-285.5" font-family="Helvetica,sans-Serif" font-size="10.00"> </text>
<polyline fill="none" stroke="#bfbfbf" points="601,-278.5 648,-278.5 "/>
<text text-anchor="middle" x="624.5" y="-266.5" font-family="Helvetica,sans-Serif" font-size="10.00"> </text>
</a>
</g>
</g>
<!-- Node12&#45;&gt;Node1 -->
<g id="edge14" class="edge"><title>Node12&#45;&gt;Node1</title>
<path fill="none" stroke="#404040" d="M618.732,-259.134C613.52,-237.304 604.634,-206.613 591.5,-182 584.719,-169.292 576.443,-156.613 567.675,-144.581"/>
<polygon fill="none" stroke="#404040" points="567.418,-144.238 560.617,-141.84 560.215,-134.64 567.016,-137.038 567.418,-144.238"/>
<text text-anchor="middle" x="599" y="-156" font-family="Helvetica,sans-Serif" font-size="10.00"> +sender</text>
</g>
</g>
</svg>
