<?xml version="1.0" encoding="UTF-8" standalone="no"?>
<!DOCTYPE svg PUBLIC "-//W3C//DTD SVG 1.1//EN"
 "http://www.w3.org/Graphics/SVG/1.1/DTD/svg11.dtd">
<!-- Generated by graphviz version 2.43.0 (0)
 -->
<!-- Title: GenericIncrementDecrementSelector&lt; N, Callback &gt; Pages: 1 -->
<svg width="237pt" height="1092pt"
 viewBox="0.00 0.00 237.00 1092.00" xmlns="http://www.w3.org/2000/svg" xmlns:xlink="http://www.w3.org/1999/xlink">
<g id="graph0" class="graph" transform="scale(1 1) rotate(0) translate(4 1088)">
<title>GenericIncrementDecrementSelector&lt; N, Callback &gt;</title>
<!-- Node1 -->
<g id="Node000001" class="node">
<title>Node1</title>
<g id="a_Node000001"><a xlink:title=" ">
<polygon fill="#999999" stroke="transparent" points="182,-231 19,-231 19,-85 182,-85 182,-231"/>
<text text-anchor="start" x="30" y="-219" font-family="Helvetica,sans-Serif" font-size="10.00">GenericIncrementDecrement</text>
<text text-anchor="start" x="42" y="-208" font-family="Helvetica,sans-Serif" font-size="10.00">Selector&lt; N, Callback &gt;</text>
<text text-anchor="start" x="26" y="-193" font-family="Helvetica,sans-Serif" font-size="10.00">&#45;</text>
<text text-anchor="start" x="36.5" y="-193" font-family="Helvetica,sans-Serif" font-size="10.00">buttons</text>
<text text-anchor="start" x="26" y="-178" font-family="Helvetica,sans-Serif" font-size="10.00">&#45;</text>
<text text-anchor="start" x="36.5" y="-178" font-family="Helvetica,sans-Serif" font-size="10.00">wrap</text>
<text text-anchor="start" x="23.5" y="-163" font-family="Helvetica,sans-Serif" font-size="10.00">+</text>
<text text-anchor="start" x="36.5" y="-163" font-family="Helvetica,sans-Serif" font-size="10.00">GenericIncrementDecrement</text>
<text text-anchor="start" x="36.5" y="-152" font-family="Helvetica,sans-Serif" font-size="10.00">Selector()</text>
<text text-anchor="start" x="23.5" y="-137" font-family="Helvetica,sans-Serif" font-size="10.00">+</text>
<text text-anchor="start" x="36.5" y="-137" font-family="Helvetica,sans-Serif" font-size="10.00">begin()</text>
<text text-anchor="start" x="23.5" y="-122" font-family="Helvetica,sans-Serif" font-size="10.00">+</text>
<text text-anchor="start" x="36.5" y="-122" font-family="Helvetica,sans-Serif" font-size="10.00">update()</text>
<text text-anchor="start" x="23.5" y="-107" font-family="Helvetica,sans-Serif" font-size="10.00">+</text>
<text text-anchor="start" x="36.5" y="-107" font-family="Helvetica,sans-Serif" font-size="10.00">invert()</text>
<text text-anchor="start" x="23.5" y="-92" font-family="Helvetica,sans-Serif" font-size="10.00">+</text>
<text text-anchor="start" x="36.5" y="-92" font-family="Helvetica,sans-Serif" font-size="10.00">getButtonsState()</text>
<polygon fill="#666666" stroke="#666666" points="19.5,-203 19.5,-203 182.5,-203 182.5,-203 19.5,-203"/>
<polygon fill="#666666" stroke="#666666" points="19.5,-173 19.5,-173 34.5,-173 34.5,-173 19.5,-173"/>
<polygon fill="#666666" stroke="#666666" points="34.5,-173 34.5,-173 182.5,-173 182.5,-173 34.5,-173"/>
<polygon fill="none" stroke="#666666" points="19,-85 19,-231 182,-231 182,-85 19,-85"/>
</a>
</g>
</g>
<!-- Node7 -->
<g id="Node000007" class="node">
<title>Node7</title>
<g id="a_Node000007"><a xlink:href="../../d2/deb/classIncrementDecrementSelector.html" target="_top" xlink:title="Selector with two buttons (one to increment, one to decrement).">
<polygon fill="white" stroke="transparent" points="192.5,-49 8.5,-49 8.5,0 192.5,0 192.5,-49"/>
<text text-anchor="start" x="13.5" y="-36.5" font-family="Helvetica,sans-Serif" font-size="10.00">IncrementDecrementSelector&lt; N &gt;</text>
<text text-anchor="start" x="98.5" y="-21.5" font-family="Helvetica,sans-Serif" font-size="10.00"> </text>
<text text-anchor="start" x="15.5" y="-6.5" font-family="Helvetica,sans-Serif" font-size="10.00">+</text>
<text text-anchor="start" x="31.5" y="-6.5" font-family="Helvetica,sans-Serif" font-size="10.00">IncrementDecrementSelector()</text>
<polygon fill="#666666" stroke="#666666" points="8.5,-31.5 8.5,-31.5 192.5,-31.5 192.5,-31.5 8.5,-31.5"/>
<polygon fill="#666666" stroke="#666666" points="8.5,-16.5 8.5,-16.5 192.5,-16.5 192.5,-16.5 8.5,-16.5"/>
<polygon fill="none" stroke="#666666" points="8.5,0 8.5,-49 192.5,-49 192.5,0 8.5,0"/>
</a>
</g>
</g>
<!-- Node1&#45;&gt;Node7 -->
<g id="edge6_Node000001_Node000007" class="edge">
<title>Node1&#45;&gt;Node7</title>
<g id="a_edge6_Node000001_Node000007"><a xlink:title=" ">
<path fill="none" stroke="#63b8ff" d="M100.5,-74.55C100.5,-65.32 100.5,-56.56 100.5,-49.06"/>
<polygon fill="none" stroke="#63b8ff" points="97,-74.71 100.5,-84.71 104,-74.71 97,-74.71"/>
</a>
</g>
</g>
<!-- Node2 -->
<g id="Node000002" class="node">
<title>Node2</title>
<g id="a_Node000002"><a xlink:href="../../d0/d04/classGenericSelector.html" target="_top" xlink:title=" ">
<polygon fill="white" stroke="transparent" points="169.5,-597 31.5,-597 31.5,-267 169.5,-267 169.5,-597"/>
<text text-anchor="start" x="36.5" y="-585" font-family="Helvetica,sans-Serif" font-size="10.00">GenericSelector&lt; N,</text>
<text text-anchor="start" x="36.5" y="-574" font-family="Helvetica,sans-Serif" font-size="10.00"> EmptySelectorCallback &gt;</text>
<text text-anchor="start" x="43.5" y="-559" font-family="Helvetica,sans-Serif" font-size="10.00">+</text>
<text text-anchor="start" x="64.5" y="-559" font-family="Helvetica,sans-Serif" font-size="10.00">callback</text>
<text text-anchor="start" x="43.5" y="-544" font-family="Helvetica,sans-Serif" font-size="10.00">#</text>
<text text-anchor="start" x="64.5" y="-544" font-family="Helvetica,sans-Serif" font-size="10.00">setting</text>
<text text-anchor="start" x="43.5" y="-529" font-family="Helvetica,sans-Serif" font-size="10.00">#</text>
<text text-anchor="start" x="64.5" y="-529" font-family="Helvetica,sans-Serif" font-size="10.00">next</text>
<text text-anchor="start" x="43.5" y="-514" font-family="Helvetica,sans-Serif" font-size="10.00">#</text>
<text text-anchor="start" x="64.5" y="-514" font-family="Helvetica,sans-Serif" font-size="10.00">previous</text>
<text text-anchor="start" x="43.5" y="-499" font-family="Helvetica,sans-Serif" font-size="10.00">#</text>
<text text-anchor="start" x="64.5" y="-499" font-family="Helvetica,sans-Serif" font-size="10.00">updatables</text>
<text text-anchor="start" x="46" y="-484" font-family="Helvetica,sans-Serif" font-size="10.00">&#45;</text>
<text text-anchor="start" x="64.5" y="-484" font-family="Helvetica,sans-Serif" font-size="10.00">selectable</text>
<text text-anchor="start" x="43.5" y="-469" font-family="Helvetica,sans-Serif" font-size="10.00">+</text>
<text text-anchor="start" x="64.5" y="-469" font-family="Helvetica,sans-Serif" font-size="10.00">GenericSelector()</text>
<text text-anchor="start" x="43.5" y="-454" font-family="Helvetica,sans-Serif" font-size="10.00">+</text>
<text text-anchor="start" x="64.5" y="-454" font-family="Helvetica,sans-Serif" font-size="10.00">begin()</text>
<text text-anchor="start" x="43.5" y="-439" font-family="Helvetica,sans-Serif" font-size="10.00">+</text>
<text text-anchor="start" x="64.5" y="-439" font-family="Helvetica,sans-Serif" font-size="10.00">update()</text>
<text text-anchor="start" x="43.5" y="-424" font-family="Helvetica,sans-Serif" font-size="10.00">+</text>
<text text-anchor="start" x="64.5" y="-424" font-family="Helvetica,sans-Serif" font-size="10.00">reset()</text>
<text text-anchor="start" x="43.5" y="-409" font-family="Helvetica,sans-Serif" font-size="10.00">+</text>
<text text-anchor="start" x="64.5" y="-409" font-family="Helvetica,sans-Serif" font-size="10.00">set()</text>
<text text-anchor="start" x="43.5" y="-394" font-family="Helvetica,sans-Serif" font-size="10.00">+</text>
<text text-anchor="start" x="64.5" y="-394" font-family="Helvetica,sans-Serif" font-size="10.00">increment()</text>
<text text-anchor="start" x="43.5" y="-379" font-family="Helvetica,sans-Serif" font-size="10.00">+</text>
<text text-anchor="start" x="64.5" y="-379" font-family="Helvetica,sans-Serif" font-size="10.00">decrement()</text>
<text text-anchor="start" x="43.5" y="-364" font-family="Helvetica,sans-Serif" font-size="10.00">+</text>
<text text-anchor="start" x="64.5" y="-364" font-family="Helvetica,sans-Serif" font-size="10.00">get()</text>
<text text-anchor="start" x="45" y="-349" font-family="Helvetica,sans-Serif" font-size="10.00">*</text>
<text text-anchor="start" x="64.5" y="-349" font-family="Helvetica,sans-Serif" font-size="10.00">enable()</text>
<text text-anchor="start" x="45" y="-334" font-family="Helvetica,sans-Serif" font-size="10.00">*</text>
<text text-anchor="start" x="64.5" y="-334" font-family="Helvetica,sans-Serif" font-size="10.00">disable()</text>
<text text-anchor="start" x="45" y="-319" font-family="Helvetica,sans-Serif" font-size="10.00">*</text>
<text text-anchor="start" x="64.5" y="-319" font-family="Helvetica,sans-Serif" font-size="10.00">isEnabled()</text>
<text text-anchor="start" x="45" y="-304" font-family="Helvetica,sans-Serif" font-size="10.00">*</text>
<text text-anchor="start" x="64.5" y="-304" font-family="Helvetica,sans-Serif" font-size="10.00">moveDown()</text>
<text text-anchor="start" x="45" y="-289" font-family="Helvetica,sans-Serif" font-size="10.00">*</text>
<text text-anchor="start" x="64.5" y="-289" font-family="Helvetica,sans-Serif" font-size="10.00">beginAll()</text>
<text text-anchor="start" x="45" y="-274" font-family="Helvetica,sans-Serif" font-size="10.00">*</text>
<text text-anchor="start" x="64.5" y="-274" font-family="Helvetica,sans-Serif" font-size="10.00">updateAll()</text>
<polygon fill="#666666" stroke="#666666" points="31.5,-569 31.5,-569 169.5,-569 169.5,-569 31.5,-569"/>
<polygon fill="#666666" stroke="#666666" points="31.5,-479 31.5,-479 62.5,-479 62.5,-479 31.5,-479"/>
<polygon fill="#666666" stroke="#666666" points="62.5,-479 62.5,-479 169.5,-479 169.5,-479 62.5,-479"/>
<polygon fill="none" stroke="#666666" points="31.5,-267 31.5,-597 169.5,-597 169.5,-267 31.5,-267"/>
</a>
</g>
</g>
<!-- Node2&#45;&gt;Node1 -->
<g id="edge1_Node000001_Node000002" class="edge">
<title>Node2&#45;&gt;Node1</title>
<g id="a_edge1_Node000001_Node000002"><a xlink:title=" ">
<path fill="none" stroke="#63b8ff" d="M100.5,-256.85C100.5,-248.03 100.5,-239.45 100.5,-231.27"/>
<polygon fill="none" stroke="#63b8ff" points="97,-256.89 100.5,-266.89 104,-256.89 97,-256.89"/>
</a>
</g>
</g>
<!-- Node3 -->
<g id="Node000003" class="node">
<title>Node3</title>
<g id="a_Node000003"><a xlink:href="../../dc/d77/classSelectorBase.html" target="_top" xlink:title="Base class for all Selectors exposing the get method, so it can be used by display elements etc,...">
<polygon fill="white" stroke="transparent" points="93,-712 0,-712 0,-648 93,-648 93,-712"/>
<text text-anchor="start" x="15" y="-700" font-family="Helvetica,sans-Serif" font-size="10.00">SelectorBase</text>
<text text-anchor="start" x="4.5" y="-685" font-family="Helvetica,sans-Serif" font-size="10.00">#</text>
<text text-anchor="start" x="17.5" y="-685" font-family="Helvetica,sans-Serif" font-size="10.00">setting</text>
<text text-anchor="start" x="4.5" y="-670" font-family="Helvetica,sans-Serif" font-size="10.00">+</text>
<text text-anchor="start" x="17.5" y="-670" font-family="Helvetica,sans-Serif" font-size="10.00">get()</text>
<text text-anchor="start" x="4.5" y="-655" font-family="Helvetica,sans-Serif" font-size="10.00">#</text>
<text text-anchor="start" x="17.5" y="-655" font-family="Helvetica,sans-Serif" font-size="10.00">SelectorBase()</text>
<polygon fill="#666666" stroke="#666666" points="0.5,-695 0.5,-695 93.5,-695 93.5,-695 0.5,-695"/>
<polygon fill="#666666" stroke="#666666" points="0.5,-680 0.5,-680 15.5,-680 15.5,-680 0.5,-680"/>
<polygon fill="#666666" stroke="#666666" points="15.5,-680 15.5,-680 93.5,-680 93.5,-680 15.5,-680"/>
<polygon fill="none" stroke="#666666" points="0,-648 0,-712 93,-712 93,-648 0,-648"/>
</a>
</g>
</g>
<!-- Node3&#45;&gt;Node2 -->
<g id="edge2_Node000002_Node000003" class="edge">
<title>Node3&#45;&gt;Node2</title>
<g id="a_edge2_Node000002_Node000003"><a xlink:title=" ">
<path fill="none" stroke="#63b8ff" d="M55.54,-637.81C58.17,-625.81 61.23,-611.91 64.47,-597.12"/>
<polygon fill="none" stroke="#63b8ff" points="52.06,-637.33 53.34,-647.84 58.9,-638.83 52.06,-637.33"/>
</a>
</g>
</g>
<!-- Node4 -->
<g id="Node000004" class="node">
<title>Node4</title>
<g id="a_Node000004"><a xlink:href="../../d1/d55/classAH_1_1Updatable.html" target="_top" xlink:title="A super class for object that have to be updated regularly.">
<polygon fill="white" stroke="transparent" points="200,-727 111,-727 111,-633 200,-633 200,-727"/>
<text text-anchor="start" x="116.5" y="-715" font-family="Helvetica,sans-Serif" font-size="10.00">Updatable&lt; T &gt;</text>
<text text-anchor="start" x="154" y="-700" font-family="Helvetica,sans-Serif" font-size="10.00"> </text>
<text text-anchor="start" x="119.5" y="-685" font-family="Helvetica,sans-Serif" font-size="10.00">*</text>
<text text-anchor="start" x="133.5" y="-685" font-family="Helvetica,sans-Serif" font-size="10.00">begin()</text>
<text text-anchor="start" x="119.5" y="-670" font-family="Helvetica,sans-Serif" font-size="10.00">*</text>
<text text-anchor="start" x="133.5" y="-670" font-family="Helvetica,sans-Serif" font-size="10.00">update()</text>
<text text-anchor="start" x="119.5" y="-655" font-family="Helvetica,sans-Serif" font-size="10.00">*</text>
<text text-anchor="start" x="133.5" y="-655" font-family="Helvetica,sans-Serif" font-size="10.00">beginAll()</text>
<text text-anchor="start" x="119.5" y="-640" font-family="Helvetica,sans-Serif" font-size="10.00">*</text>
<text text-anchor="start" x="133.5" y="-640" font-family="Helvetica,sans-Serif" font-size="10.00">updateAll()</text>
<polygon fill="#666666" stroke="#666666" points="111.5,-710 111.5,-710 200.5,-710 200.5,-710 111.5,-710"/>
<polygon fill="#666666" stroke="#666666" points="111.5,-695 111.5,-695 200.5,-695 200.5,-695 111.5,-695"/>
<polygon fill="none" stroke="#666666" points="111,-633 111,-727 200,-727 200,-633 111,-633"/>
</a>
</g>
</g>
<!-- Node4&#45;&gt;Node2 -->
<g id="edge3_Node000002_Node000004" class="edge">
<title>Node4&#45;&gt;Node2</title>
<g id="a_edge3_Node000002_Node000004"><a xlink:title=" ">
<path fill="none" stroke="#63b8ff" d="M142.95,-622.86C141.15,-614.82 139.23,-606.24 137.24,-597.33"/>
<polygon fill="none" stroke="#63b8ff" points="139.56,-623.73 145.15,-632.73 146.39,-622.21 139.56,-623.73"/>
</a>
</g>
</g>
<!-- Node5 -->
<g id="Node000005" class="node">
<title>Node5</title>
<g id="a_Node000005"><a xlink:href="../../d8/d1a/classAH_1_1UpdatableCRTP.html" target="_top" xlink:title=" ">
<polygon fill="white" stroke="transparent" points="229,-943 82,-943 82,-763 229,-763 229,-943"/>
<text text-anchor="start" x="87.5" y="-931" font-family="Helvetica,sans-Serif" font-size="10.00">UpdatableCRTP&lt; Updatable</text>
<text text-anchor="start" x="95.5" y="-920" font-family="Helvetica,sans-Serif" font-size="10.00">&lt; NormalUpdatable &gt; &gt;</text>
<text text-anchor="start" x="95" y="-905" font-family="Helvetica,sans-Serif" font-size="10.00">#</text>
<text text-anchor="start" x="116.5" y="-905" font-family="Helvetica,sans-Serif" font-size="10.00">next</text>
<text text-anchor="start" x="95" y="-890" font-family="Helvetica,sans-Serif" font-size="10.00">#</text>
<text text-anchor="start" x="116.5" y="-890" font-family="Helvetica,sans-Serif" font-size="10.00">previous</text>
<text text-anchor="start" x="95" y="-875" font-family="Helvetica,sans-Serif" font-size="10.00">#</text>
<text text-anchor="start" x="116.5" y="-875" font-family="Helvetica,sans-Serif" font-size="10.00">updatables</text>
<text text-anchor="start" x="95" y="-860" font-family="Helvetica,sans-Serif" font-size="10.00">+</text>
<text text-anchor="start" x="116.5" y="-860" font-family="Helvetica,sans-Serif" font-size="10.00">~UpdatableCRTP()</text>
<text text-anchor="start" x="95" y="-845" font-family="Helvetica,sans-Serif" font-size="10.00">#</text>
<text text-anchor="start" x="116.5" y="-845" font-family="Helvetica,sans-Serif" font-size="10.00">UpdatableCRTP()</text>
<text text-anchor="start" x="95" y="-830" font-family="Helvetica,sans-Serif" font-size="10.00">#</text>
<text text-anchor="start" x="116.5" y="-830" font-family="Helvetica,sans-Serif" font-size="10.00">operator=()</text>
<text text-anchor="start" x="96.5" y="-815" font-family="Helvetica,sans-Serif" font-size="10.00">*</text>
<text text-anchor="start" x="116.5" y="-815" font-family="Helvetica,sans-Serif" font-size="10.00">enable()</text>
<text text-anchor="start" x="96.5" y="-800" font-family="Helvetica,sans-Serif" font-size="10.00">*</text>
<text text-anchor="start" x="116.5" y="-800" font-family="Helvetica,sans-Serif" font-size="10.00">disable()</text>
<text text-anchor="start" x="96.5" y="-785" font-family="Helvetica,sans-Serif" font-size="10.00">*</text>
<text text-anchor="start" x="116.5" y="-785" font-family="Helvetica,sans-Serif" font-size="10.00">isEnabled()</text>
<text text-anchor="start" x="96.5" y="-770" font-family="Helvetica,sans-Serif" font-size="10.00">*</text>
<text text-anchor="start" x="116.5" y="-770" font-family="Helvetica,sans-Serif" font-size="10.00">moveDown()</text>
<polygon fill="#666666" stroke="#666666" points="82.5,-915 82.5,-915 229.5,-915 229.5,-915 82.5,-915"/>
<polygon fill="#666666" stroke="#666666" points="82.5,-870 82.5,-870 114.5,-870 114.5,-870 82.5,-870"/>
<polygon fill="#666666" stroke="#666666" points="114.5,-870 114.5,-870 229.5,-870 229.5,-870 114.5,-870"/>
<polygon fill="none" stroke="#666666" points="82,-763 82,-943 229,-943 229,-763 82,-763"/>
</a>
</g>
</g>
<!-- Node5&#45;&gt;Node4 -->
<g id="edge4_Node000004_Node000005" class="edge">
<title>Node5&#45;&gt;Node4</title>
<g id="a_edge4_Node000004_Node000005"><a xlink:title=" ">
<path fill="none" stroke="#63b8ff" d="M155.5,-752.92C155.5,-744.05 155.5,-735.38 155.5,-727.31"/>
<polygon fill="none" stroke="#63b8ff" points="152,-752.99 155.5,-762.99 159,-752.99 152,-752.99"/>
</a>
</g>
</g>
<!-- Node6 -->
<g id="Node000006" class="node">
<title>Node6</title>
<g id="a_Node000006"><a xlink:href="../../d4/d23/classDoublyLinkable.html" target="_top" xlink:title=" ">
<polygon fill="white" stroke="transparent" points="229,-1084 82,-1084 82,-979 229,-979 229,-1084"/>
<text text-anchor="start" x="87.5" y="-1071.5" font-family="Helvetica,sans-Serif" font-size="10.00">DoublyLinkable&lt; Updatable</text>
<text text-anchor="start" x="95.5" y="-1060.5" font-family="Helvetica,sans-Serif" font-size="10.00">&lt; NormalUpdatable &gt; &gt;</text>
<text text-anchor="start" x="95" y="-1045.5" font-family="Helvetica,sans-Serif" font-size="10.00">#</text>
<text text-anchor="start" x="116.5" y="-1045.5" font-family="Helvetica,sans-Serif" font-size="10.00">next</text>
<text text-anchor="start" x="95" y="-1030.5" font-family="Helvetica,sans-Serif" font-size="10.00">#</text>
<text text-anchor="start" x="116.5" y="-1030.5" font-family="Helvetica,sans-Serif" font-size="10.00">previous</text>
<text text-anchor="start" x="95" y="-1015.5" font-family="Helvetica,sans-Serif" font-size="10.00">#</text>
<text text-anchor="start" x="116.5" y="-1015.5" font-family="Helvetica,sans-Serif" font-size="10.00">~DoublyLinkable()</text>
<text text-anchor="start" x="95" y="-1000.5" font-family="Helvetica,sans-Serif" font-size="10.00">#</text>
<text text-anchor="start" x="116.5" y="-1000.5" font-family="Helvetica,sans-Serif" font-size="10.00">DoublyLinkable()</text>
<text text-anchor="start" x="95" y="-985.5" font-family="Helvetica,sans-Serif" font-size="10.00">#</text>
<text text-anchor="start" x="116.5" y="-985.5" font-family="Helvetica,sans-Serif" font-size="10.00">operator=()</text>
<polygon fill="#666666" stroke="#666666" points="82.5,-1055.5 82.5,-1055.5 229.5,-1055.5 229.5,-1055.5 82.5,-1055.5"/>
<polygon fill="#666666" stroke="#666666" points="82.5,-1025.5 82.5,-1025.5 114.5,-1025.5 114.5,-1025.5 82.5,-1025.5"/>
<polygon fill="#666666" stroke="#666666" points="114.5,-1025.5 114.5,-1025.5 229.5,-1025.5 229.5,-1025.5 114.5,-1025.5"/>
<polygon fill="none" stroke="#666666" points="82,-979 82,-1084 229,-1084 229,-979 82,-979"/>
</a>
</g>
</g>
<!-- Node6&#45;&gt;Node5 -->
<g id="edge5_Node000005_Node000006" class="edge">
<title>Node6&#45;&gt;Node5</title>
<g id="a_edge5_Node000005_Node000006"><a xlink:title=" ">
<path fill="none" stroke="#63b8ff" d="M155.5,-968.96C155.5,-960.58 155.5,-951.86 155.5,-943.12"/>
<polygon fill="none" stroke="#63b8ff" points="152,-968.97 155.5,-978.97 159,-968.97 152,-968.97"/>
</a>
</g>
</g>
</g>
</svg>
