<?xml version="1.0" encoding="UTF-8" standalone="no"?>
<!DOCTYPE svg PUBLIC "-//W3C//DTD SVG 1.1//EN"
 "http://www.w3.org/Graphics/SVG/1.1/DTD/svg11.dtd">
<!-- Generated by graphviz version 2.38.0 (20140413.2041)
 -->
<!-- Title: DisplayElement.hpp Pages: 1 -->
<svg width="1551pt" height="599pt"
 viewBox="0.00 0.00 1550.50 599.00" xmlns="http://www.w3.org/2000/svg" xmlns:xlink="http://www.w3.org/1999/xlink">
<g id="graph0" class="graph" transform="scale(1 1) rotate(0) translate(4 595)">
<title>DisplayElement.hpp</title>
<polygon fill="white" stroke="none" points="-4,4 -4,-595 1546.5,-595 1546.5,4 -4,4"/>
<!-- Node1 -->
<g id="node1" class="node"><title>Node1</title>
<g id="a_node1"><a xlink:title=" ">
<polygon fill="#bfbfbf" stroke="black" points="330.5,-571.5 330.5,-590.5 434.5,-590.5 434.5,-571.5 330.5,-571.5"/>
<text text-anchor="middle" x="382.5" y="-578.5" font-family="Helvetica,sans-Serif" font-size="10.00">DisplayElement.hpp</text>
</a>
</g>
</g>
<!-- Node2 -->
<g id="node2" class="node"><title>Node2</title>
<g id="a_node2"><a xlink:href="../../dc/d77/DisplayInterface_8hpp.html" target="_top" xlink:title=" ">
<polygon fill="white" stroke="black" points="361,-515.5 361,-534.5 504,-534.5 504,-515.5 361,-515.5"/>
<text text-anchor="middle" x="432.5" y="-522.5" font-family="Helvetica,sans-Serif" font-size="10.00">Display/DisplayInterface.hpp</text>
</a>
</g>
</g>
<!-- Node1&#45;&gt;Node2 -->
<g id="edge1" class="edge"><title>Node1&#45;&gt;Node2</title>
<path fill="none" stroke="midnightblue" d="M390.756,-571.083C397.965,-563.298 408.61,-551.801 417.346,-542.367"/>
<polygon fill="midnightblue" stroke="midnightblue" points="420.171,-544.467 424.397,-534.751 415.035,-539.711 420.171,-544.467"/>
</g>
<!-- Node25 -->
<g id="node25" class="node"><title>Node25</title>
<g id="a_node25"><a xlink:href="../../de/dd1/LinkedList_8hpp.html" target="_top" xlink:title=" ">
<polygon fill="white" stroke="black" points="259,-280.5 259,-299.5 406,-299.5 406,-280.5 259,-280.5"/>
<text text-anchor="middle" x="332.5" y="-287.5" font-family="Helvetica,sans-Serif" font-size="10.00">AH/Containers/LinkedList.hpp</text>
</a>
</g>
</g>
<!-- Node1&#45;&gt;Node25 -->
<g id="edge52" class="edge"><title>Node1&#45;&gt;Node25</title>
<path fill="none" stroke="midnightblue" d="M375.179,-571.217C368.236,-562.506 357.936,-548.537 351.5,-535 338.577,-507.818 332.5,-500.098 332.5,-470 332.5,-470 332.5,-470 332.5,-406.5 332.5,-372.364 332.5,-332.552 332.5,-309.709"/>
<polygon fill="midnightblue" stroke="midnightblue" points="336,-309.693 332.5,-299.693 329,-309.693 336,-309.693"/>
</g>
<!-- Node3 -->
<g id="node3" class="node"><title>Node3</title>
<g id="a_node3"><a xlink:href="../../d0/d4e/Def_8hpp.html" target="_top" xlink:title=" ">
<polygon fill="white" stroke="black" points="1220.5,-459.5 1220.5,-478.5 1290.5,-478.5 1290.5,-459.5 1220.5,-459.5"/>
<text text-anchor="middle" x="1255.5" y="-466.5" font-family="Helvetica,sans-Serif" font-size="10.00">Def/Def.hpp</text>
</a>
</g>
</g>
<!-- Node2&#45;&gt;Node3 -->
<g id="edge2" class="edge"><title>Node2&#45;&gt;Node3</title>
<path fill="none" stroke="midnightblue" d="M504.096,-519.302C669.514,-508.449 1074.45,-481.879 1210.26,-472.969"/>
<polygon fill="midnightblue" stroke="midnightblue" points="1210.56,-476.456 1220.31,-472.309 1210.11,-469.471 1210.56,-476.456"/>
</g>
<!-- Node2&#45;&gt;Node25 -->
<g id="edge42" class="edge"><title>Node2&#45;&gt;Node25</title>
<path fill="none" stroke="midnightblue" d="M425.378,-515.494C418.339,-506.768 407.618,-492.586 400.5,-479 384.343,-448.162 351.752,-350.211 338.404,-309.266"/>
<polygon fill="midnightblue" stroke="midnightblue" points="341.662,-307.967 335.245,-299.537 335.005,-310.129 341.662,-307.967"/>
</g>
<!-- Node29 -->
<g id="node29" class="node"><title>Node29</title>
<g id="a_node29"><a xlink:title=" ">
<polygon fill="white" stroke="#bfbfbf" points="410,-459.5 410,-478.5 455,-478.5 455,-459.5 410,-459.5"/>
<text text-anchor="middle" x="432.5" y="-466.5" font-family="Helvetica,sans-Serif" font-size="10.00">Print.h</text>
</a>
</g>
</g>
<!-- Node2&#45;&gt;Node29 -->
<g id="edge51" class="edge"><title>Node2&#45;&gt;Node29</title>
<path fill="none" stroke="midnightblue" d="M432.5,-515.083C432.5,-508.006 432.5,-497.861 432.5,-488.986"/>
<polygon fill="midnightblue" stroke="midnightblue" points="436,-488.751 432.5,-478.751 429,-488.751 436,-488.751"/>
</g>
<!-- Node4 -->
<g id="node4" class="node"><title>Node4</title>
<g id="a_node4"><a xlink:href="../../d7/d42/Channel_8hpp.html" target="_top" xlink:title=" ">
<polygon fill="white" stroke="black" points="1334,-398 1334,-417 1405,-417 1405,-398 1334,-398"/>
<text text-anchor="middle" x="1369.5" y="-405" font-family="Helvetica,sans-Serif" font-size="10.00">Channel.hpp</text>
</a>
</g>
</g>
<!-- Node3&#45;&gt;Node4 -->
<g id="edge3" class="edge"><title>Node3&#45;&gt;Node4</title>
<path fill="none" stroke="midnightblue" d="M1271.83,-459.475C1290.71,-449.622 1322.01,-433.288 1344.08,-421.77"/>
<polygon fill="midnightblue" stroke="midnightblue" points="1345.95,-424.739 1353.2,-417.009 1342.71,-418.533 1345.95,-424.739"/>
</g>
<!-- Node5 -->
<g id="node5" class="node"><title>Node5</title>
<g id="a_node5"><a xlink:title=" ">
<polygon fill="white" stroke="#bfbfbf" points="1286,-56.5 1286,-75.5 1335,-75.5 1335,-56.5 1286,-56.5"/>
<text text-anchor="middle" x="1310.5" y="-63.5" font-family="Helvetica,sans-Serif" font-size="10.00">stdint.h</text>
</a>
</g>
</g>
<!-- Node3&#45;&gt;Node5 -->
<g id="edge41" class="edge"><title>Node3&#45;&gt;Node5</title>
<path fill="none" stroke="midnightblue" d="M1290.69,-468.688C1367.33,-468.167 1542.5,-455.147 1542.5,-347 1542.5,-347 1542.5,-347 1542.5,-177 1542.5,-90.8607 1410.31,-72.0881 1345.49,-68.0607"/>
<polygon fill="midnightblue" stroke="midnightblue" points="1345.5,-64.5563 1335.33,-67.5161 1345.13,-71.5462 1345.5,-64.5563"/>
</g>
<!-- Node6 -->
<g id="node6" class="node"><title>Node6</title>
<g id="a_node6"><a xlink:title=" ">
<polygon fill="white" stroke="#bfbfbf" points="1351,-336.5 1351,-355.5 1514,-355.5 1514,-336.5 1351,-336.5"/>
<text text-anchor="middle" x="1432.5" y="-343.5" font-family="Helvetica,sans-Serif" font-size="10.00">Settings/NamespaceSettings.hpp</text>
</a>
</g>
</g>
<!-- Node3&#45;&gt;Node6 -->
<g id="edge39" class="edge"><title>Node3&#45;&gt;Node6</title>
<path fill="none" stroke="midnightblue" d="M1290.77,-467.682C1326.63,-465.4 1381.36,-456.198 1413.5,-423 1428.18,-407.835 1432.04,-383.128 1432.81,-366.02"/>
<polygon fill="midnightblue" stroke="midnightblue" points="1436.32,-365.644 1432.94,-355.601 1429.32,-365.556 1436.32,-365.644"/>
</g>
<!-- Node7 -->
<g id="node7" class="node"><title>Node7</title>
<g id="a_node7"><a xlink:href="../../de/d76/Array_8hpp.html" target="_top" xlink:title=" ">
<polygon fill="white" stroke="black" points="954.5,-336.5 954.5,-355.5 1080.5,-355.5 1080.5,-336.5 954.5,-336.5"/>
<text text-anchor="middle" x="1017.5" y="-343.5" font-family="Helvetica,sans-Serif" font-size="10.00">AH/Containers/Array.hpp</text>
</a>
</g>
</g>
<!-- Node3&#45;&gt;Node7 -->
<g id="edge6" class="edge"><title>Node3&#45;&gt;Node7</title>
<path fill="none" stroke="midnightblue" d="M1234.3,-459.475C1213.28,-450.846 1180.27,-436.839 1152.5,-423 1112.41,-403.02 1067.34,-376.87 1040.74,-361.035"/>
<polygon fill="midnightblue" stroke="midnightblue" points="1042.2,-357.829 1031.82,-355.698 1038.61,-363.836 1042.2,-357.829"/>
</g>
<!-- Node19 -->
<g id="node19" class="node"><title>Node19</title>
<g id="a_node19"><a xlink:title=" ">
<polygon fill="white" stroke="#bfbfbf" points="1090.5,-56.5 1090.5,-75.5 1142.5,-75.5 1142.5,-56.5 1090.5,-56.5"/>
<text text-anchor="middle" x="1116.5" y="-63.5" font-family="Helvetica,sans-Serif" font-size="10.00">stddef.h</text>
</a>
</g>
</g>
<!-- Node3&#45;&gt;Node19 -->
<g id="edge40" class="edge"><title>Node3&#45;&gt;Node19</title>
<path fill="none" stroke="midnightblue" d="M1233.4,-459.435C1217.57,-452.141 1197.09,-440.104 1185.5,-423 1147.28,-366.579 1124.35,-150.971 1118.19,-85.7804"/>
<polygon fill="midnightblue" stroke="midnightblue" points="1121.67,-85.3672 1117.26,-75.7317 1114.7,-86.0114 1121.67,-85.3672"/>
</g>
<!-- Node24 -->
<g id="node24" class="node"><title>Node24</title>
<g id="a_node24"><a xlink:href="../../d4/d35/Hardware-Types_8hpp.html" target="_top" xlink:title=" ">
<polygon fill="white" stroke="black" points="1195,-392.5 1195,-422.5 1316,-422.5 1316,-392.5 1195,-392.5"/>
<text text-anchor="start" x="1203" y="-410.5" font-family="Helvetica,sans-Serif" font-size="10.00">AH/Hardware/Hardware</text>
<text text-anchor="middle" x="1255.5" y="-399.5" font-family="Helvetica,sans-Serif" font-size="10.00">&#45;Types.hpp</text>
</a>
</g>
</g>
<!-- Node3&#45;&gt;Node24 -->
<g id="edge34" class="edge"><title>Node3&#45;&gt;Node24</title>
<path fill="none" stroke="midnightblue" d="M1255.5,-459.475C1255.5,-452.471 1255.5,-442.192 1255.5,-432.696"/>
<polygon fill="midnightblue" stroke="midnightblue" points="1259,-432.523 1255.5,-422.523 1252,-432.523 1259,-432.523"/>
</g>
<!-- Node4&#45;&gt;Node5 -->
<g id="edge4" class="edge"><title>Node4&#45;&gt;Node5</title>
<path fill="none" stroke="midnightblue" d="M1363.16,-397.719C1350.33,-379.055 1322.5,-333.648 1322.5,-291 1322.5,-291 1322.5,-291 1322.5,-177 1322.5,-144.758 1317.34,-107.512 1313.79,-85.6812"/>
<polygon fill="midnightblue" stroke="midnightblue" points="1317.19,-84.7982 1312.07,-75.5232 1310.29,-85.9673 1317.19,-84.7982"/>
</g>
<!-- Node4&#45;&gt;Node6 -->
<g id="edge5" class="edge"><title>Node4&#45;&gt;Node6</title>
<path fill="none" stroke="midnightblue" d="M1378.53,-397.975C1388.26,-388.785 1403.96,-373.956 1415.92,-362.656"/>
<polygon fill="midnightblue" stroke="midnightblue" points="1418.62,-364.92 1423.49,-355.509 1413.82,-359.831 1418.62,-364.92"/>
</g>
<!-- Node8 -->
<g id="node8" class="node"><title>Node8</title>
<g id="a_node8"><a xlink:href="../../d1/d65/Warnings_8hpp.html" target="_top" xlink:title=" ">
<polygon fill="white" stroke="black" points="619,-0.5 619,-19.5 752,-19.5 752,-0.5 619,-0.5"/>
<text text-anchor="middle" x="685.5" y="-7.5" font-family="Helvetica,sans-Serif" font-size="10.00">AH/Settings/Warnings.hpp</text>
</a>
</g>
</g>
<!-- Node7&#45;&gt;Node8 -->
<g id="edge7" class="edge"><title>Node7&#45;&gt;Node8</title>
<path fill="none" stroke="midnightblue" d="M954.466,-341.115C882.734,-335.635 771.042,-323.557 736.5,-300 647.886,-239.565 670.528,-83.0833 681.368,-29.3969"/>
<polygon fill="midnightblue" stroke="midnightblue" points="684.8,-30.082 683.457,-19.5726 677.953,-28.6255 684.8,-30.082"/>
</g>
<!-- Node9 -->
<g id="node9" class="node"><title>Node9</title>
<g id="a_node9"><a xlink:href="../../d1/d93/Error_8hpp.html" target="_top" xlink:title=" ">
<polygon fill="white" stroke="black" points="968.5,-280.5 968.5,-299.5 1066.5,-299.5 1066.5,-280.5 968.5,-280.5"/>
<text text-anchor="middle" x="1017.5" y="-287.5" font-family="Helvetica,sans-Serif" font-size="10.00">AH/Error/Error.hpp</text>
</a>
</g>
</g>
<!-- Node7&#45;&gt;Node9 -->
<g id="edge8" class="edge"><title>Node7&#45;&gt;Node9</title>
<path fill="none" stroke="midnightblue" d="M1017.5,-336.083C1017.5,-329.006 1017.5,-318.861 1017.5,-309.986"/>
<polygon fill="midnightblue" stroke="midnightblue" points="1021,-309.751 1017.5,-299.751 1014,-309.751 1021,-309.751"/>
</g>
<!-- Node7&#45;&gt;Node19 -->
<g id="edge33" class="edge"><title>Node7&#45;&gt;Node19</title>
<path fill="none" stroke="midnightblue" d="M1033.56,-336.372C1046.68,-328.537 1064.74,-315.803 1075.5,-300 1092.44,-275.12 1094.5,-265.098 1094.5,-235 1094.5,-235 1094.5,-235 1094.5,-177 1094.5,-144.328 1103.95,-107.24 1110.46,-85.5533"/>
<polygon fill="midnightblue" stroke="midnightblue" points="1113.89,-86.3103 1113.53,-75.7215 1107.21,-84.2221 1113.89,-86.3103"/>
</g>
<!-- Node22 -->
<g id="node22" class="node"><title>Node22</title>
<g id="a_node22"><a xlink:title=" ">
<polygon fill="white" stroke="#bfbfbf" points="746,-280.5 746,-299.5 831,-299.5 831,-280.5 746,-280.5"/>
<text text-anchor="middle" x="788.5" y="-287.5" font-family="Helvetica,sans-Serif" font-size="10.00">AH/STL/iterator</text>
</a>
</g>
</g>
<!-- Node7&#45;&gt;Node22 -->
<g id="edge31" class="edge"><title>Node7&#45;&gt;Node22</title>
<path fill="none" stroke="midnightblue" d="M981.214,-336.444C941.517,-327.083 877.793,-312.056 834.588,-301.868"/>
<polygon fill="midnightblue" stroke="midnightblue" points="835.152,-298.405 824.616,-299.516 833.546,-305.218 835.152,-298.405"/>
</g>
<!-- Node23 -->
<g id="node23" class="node"><title>Node23</title>
<g id="a_node23"><a xlink:title=" ">
<polygon fill="white" stroke="#bfbfbf" points="849,-280.5 849,-299.5 950,-299.5 950,-280.5 849,-280.5"/>
<text text-anchor="middle" x="899.5" y="-287.5" font-family="Helvetica,sans-Serif" font-size="10.00">AH/STL/type_traits</text>
</a>
</g>
</g>
<!-- Node7&#45;&gt;Node23 -->
<g id="edge32" class="edge"><title>Node7&#45;&gt;Node23</title>
<path fill="none" stroke="midnightblue" d="M998.803,-336.444C979.556,-327.636 949.348,-313.812 927.3,-303.722"/>
<polygon fill="midnightblue" stroke="midnightblue" points="928.66,-300.495 918.11,-299.516 925.747,-306.86 928.66,-300.495"/>
</g>
<!-- Node9&#45;&gt;Node8 -->
<g id="edge9" class="edge"><title>Node9&#45;&gt;Node8</title>
<path fill="none" stroke="midnightblue" d="M1017.92,-280.281C1018.55,-259.65 1018.08,-206.667 999.5,-168 984.787,-137.388 975.624,-131.042 947.5,-112 927.774,-98.6441 785.428,-46.8016 719.212,-23.0309"/>
<polygon fill="midnightblue" stroke="midnightblue" points="720.237,-19.6805 709.643,-19.601 717.875,-26.27 720.237,-19.6805"/>
</g>
<!-- Node10 -->
<g id="node10" class="node"><title>Node10</title>
<g id="a_node10"><a xlink:href="../../df/dee/Debug_8hpp.html" target="_top" xlink:title=" ">
<polygon fill="white" stroke="black" points="713,-224.5 713,-243.5 826,-243.5 826,-224.5 713,-224.5"/>
<text text-anchor="middle" x="769.5" y="-231.5" font-family="Helvetica,sans-Serif" font-size="10.00">AH/Debug/Debug.hpp</text>
</a>
</g>
</g>
<!-- Node9&#45;&gt;Node10 -->
<g id="edge10" class="edge"><title>Node9&#45;&gt;Node10</title>
<path fill="none" stroke="midnightblue" d="M978.204,-280.444C934.941,-271.023 865.327,-255.866 818.527,-245.675"/>
<polygon fill="midnightblue" stroke="midnightblue" points="819.128,-242.224 808.612,-243.516 817.639,-249.064 819.128,-242.224"/>
</g>
<!-- Node10&#45;&gt;Node8 -->
<g id="edge11" class="edge"><title>Node10&#45;&gt;Node8</title>
<path fill="none" stroke="midnightblue" d="M756.361,-224.26C745.298,-216.182 729.963,-203.16 721.5,-188 692.513,-136.075 686.717,-63.9497 685.66,-30.0467"/>
<polygon fill="midnightblue" stroke="midnightblue" points="689.153,-29.6724 685.453,-19.7446 682.154,-29.8128 689.153,-29.6724"/>
</g>
<!-- Node11 -->
<g id="node11" class="node"><title>Node11</title>
<g id="a_node11"><a xlink:href="../../dd/d80/PrintStream_8hpp.html" target="_top" xlink:title=" ">
<polygon fill="white" stroke="black" points="169,-56.5 169,-75.5 328,-75.5 328,-56.5 169,-56.5"/>
<text text-anchor="middle" x="248.5" y="-63.5" font-family="Helvetica,sans-Serif" font-size="10.00">AH/PrintStream/PrintStream.hpp</text>
</a>
</g>
</g>
<!-- Node10&#45;&gt;Node11 -->
<g id="edge12" class="edge"><title>Node10&#45;&gt;Node11</title>
<path fill="none" stroke="midnightblue" d="M742.586,-224.425C655.86,-196.792 383.637,-110.057 284.808,-78.5682"/>
<polygon fill="midnightblue" stroke="midnightblue" points="285.844,-75.2251 275.253,-75.5241 283.719,-81.8948 285.844,-75.2251"/>
</g>
<!-- Node13 -->
<g id="node13" class="node"><title>Node13</title>
<g id="a_node13"><a xlink:href="../../de/dd1/AH_2Settings_2SettingsWrapper_8hpp.html" target="_top" xlink:title=" ">
<polygon fill="white" stroke="black" points="826.5,-168.5 826.5,-187.5 990.5,-187.5 990.5,-168.5 826.5,-168.5"/>
<text text-anchor="middle" x="908.5" y="-175.5" font-family="Helvetica,sans-Serif" font-size="10.00">AH/Settings/SettingsWrapper.hpp</text>
</a>
</g>
</g>
<!-- Node10&#45;&gt;Node13 -->
<g id="edge15" class="edge"><title>Node10&#45;&gt;Node13</title>
<path fill="none" stroke="midnightblue" d="M786.436,-224.444C807.642,-215.438 844.106,-201.189 871.755,-191.049"/>
<polygon fill="midnightblue" stroke="midnightblue" points="873.29,-194.215 881.498,-187.516 870.904,-187.635 873.29,-194.215"/>
</g>
<!-- Node21 -->
<g id="node21" class="node"><title>Node21</title>
<g id="a_node21"><a xlink:href="../../d7/d52/DebugVal_8hpp.html" target="_top" xlink:title=" ">
<polygon fill="white" stroke="black" points="730.5,-168.5 730.5,-187.5 808.5,-187.5 808.5,-168.5 730.5,-168.5"/>
<text text-anchor="middle" x="769.5" y="-175.5" font-family="Helvetica,sans-Serif" font-size="10.00">DebugVal.hpp</text>
</a>
</g>
</g>
<!-- Node10&#45;&gt;Node21 -->
<g id="edge30" class="edge"><title>Node10&#45;&gt;Node21</title>
<path fill="none" stroke="midnightblue" d="M769.5,-224.083C769.5,-217.006 769.5,-206.861 769.5,-197.986"/>
<polygon fill="midnightblue" stroke="midnightblue" points="773,-197.751 769.5,-187.751 766,-197.751 773,-197.751"/>
</g>
<!-- Node11&#45;&gt;Node8 -->
<g id="edge13" class="edge"><title>Node11&#45;&gt;Node8</title>
<path fill="none" stroke="midnightblue" d="M317.744,-56.4435C396.988,-46.6514 526.404,-30.6595 608.687,-20.4918"/>
<polygon fill="midnightblue" stroke="midnightblue" points="609.234,-23.9508 618.73,-19.2508 608.376,-17.0037 609.234,-23.9508"/>
</g>
<!-- Node12 -->
<g id="node12" class="node"><title>Node12</title>
<g id="a_node12"><a xlink:title=" ">
<polygon fill="white" stroke="#bfbfbf" points="391.5,-0.5 391.5,-19.5 449.5,-19.5 449.5,-0.5 391.5,-0.5"/>
<text text-anchor="middle" x="420.5" y="-7.5" font-family="Helvetica,sans-Serif" font-size="10.00">Arduino.h</text>
</a>
</g>
</g>
<!-- Node11&#45;&gt;Node12 -->
<g id="edge14" class="edge"><title>Node11&#45;&gt;Node12</title>
<path fill="none" stroke="midnightblue" d="M275.754,-56.4435C304.941,-47.2801 351.421,-32.6876 383.809,-22.5192"/>
<polygon fill="midnightblue" stroke="midnightblue" points="384.881,-25.8512 393.374,-19.5164 382.784,-19.1726 384.881,-25.8512"/>
</g>
<!-- Node13&#45;&gt;Node8 -->
<g id="edge16" class="edge"><title>Node13&#45;&gt;Node8</title>
<path fill="none" stroke="midnightblue" d="M845.256,-168.489C817.25,-162.152 785.33,-151.132 761.5,-132 731.237,-107.703 739.567,-88.5935 718.5,-56 712.321,-46.4398 704.862,-36.1755 698.6,-27.8676"/>
<polygon fill="midnightblue" stroke="midnightblue" points="701.245,-25.5654 692.392,-19.7462 695.684,-29.8165 701.245,-25.5654"/>
</g>
<!-- Node13&#45;&gt;Node10 -->
<g id="edge29" class="edge"><title>Node13&#45;&gt;Node10</title>
<path fill="none" stroke="midnightblue" d="M891.658,-187.516C870.498,-196.506 834.043,-210.754 806.368,-220.906"/>
<polygon fill="midnightblue" stroke="midnightblue" points="804.821,-217.744 796.614,-224.444 807.208,-224.324 804.821,-217.744"/>
</g>
<!-- Node14 -->
<g id="node14" class="node"><title>Node14</title>
<g id="a_node14"><a xlink:href="../../d6/db0/AH_2Settings_2NamespaceSettings_8hpp.html" target="_top" xlink:title=" ">
<polygon fill="white" stroke="black" points="1046.5,-0.5 1046.5,-19.5 1170.5,-19.5 1170.5,-0.5 1046.5,-0.5"/>
<text text-anchor="middle" x="1108.5" y="-7.5" font-family="Helvetica,sans-Serif" font-size="10.00">NamespaceSettings.hpp</text>
</a>
</g>
</g>
<!-- Node13&#45;&gt;Node14 -->
<g id="edge17" class="edge"><title>Node13&#45;&gt;Node14</title>
<path fill="none" stroke="midnightblue" d="M990.803,-169.475C1049,-159.083 1121.75,-134.422 1151.5,-76 1160.67,-57.9932 1144.51,-38.8747 1129.45,-26.0697"/>
<polygon fill="midnightblue" stroke="midnightblue" points="1131.37,-23.128 1121.36,-19.6525 1127.02,-28.6109 1131.37,-23.128"/>
</g>
<!-- Node15 -->
<g id="node15" class="node"><title>Node15</title>
<g id="a_node15"><a xlink:href="../../d5/d4f/AH_2Settings_2Settings_8hpp.html" target="_top" xlink:title="All user settings and debugging options can be changed here.">
<polygon fill="white" stroke="black" points="995,-112.5 995,-131.5 1066,-131.5 1066,-112.5 995,-112.5"/>
<text text-anchor="middle" x="1030.5" y="-119.5" font-family="Helvetica,sans-Serif" font-size="10.00">Settings.hpp</text>
</a>
</g>
</g>
<!-- Node13&#45;&gt;Node15 -->
<g id="edge18" class="edge"><title>Node13&#45;&gt;Node15</title>
<path fill="none" stroke="midnightblue" d="M927.831,-168.444C947.82,-159.596 979.243,-145.687 1002.06,-135.586"/>
<polygon fill="midnightblue" stroke="midnightblue" points="1003.53,-138.764 1011.26,-131.516 1000.7,-132.363 1003.53,-138.764"/>
</g>
<!-- Node20 -->
<g id="node20" class="node"><title>Node20</title>
<g id="a_node20"><a xlink:href="../../d9/d98/TeensyUSBTypes_8hpp.html" target="_top" xlink:title=" ">
<polygon fill="white" stroke="black" points="770.5,-112.5 770.5,-131.5 938.5,-131.5 938.5,-112.5 770.5,-112.5"/>
<text text-anchor="middle" x="854.5" y="-119.5" font-family="Helvetica,sans-Serif" font-size="10.00">AH/Teensy/TeensyUSBTypes.hpp</text>
</a>
</g>
</g>
<!-- Node13&#45;&gt;Node20 -->
<g id="edge28" class="edge"><title>Node13&#45;&gt;Node20</title>
<path fill="none" stroke="midnightblue" d="M899.583,-168.083C891.72,-160.22 880.069,-148.569 870.581,-139.081"/>
<polygon fill="midnightblue" stroke="midnightblue" points="872.797,-136.347 863.251,-131.751 867.847,-141.297 872.797,-136.347"/>
</g>
<!-- Node15&#45;&gt;Node5 -->
<g id="edge27" class="edge"><title>Node15&#45;&gt;Node5</title>
<path fill="none" stroke="midnightblue" d="M1066.25,-114.106C1120.29,-103.684 1222.15,-84.0395 1275.65,-73.7205"/>
<polygon fill="midnightblue" stroke="midnightblue" points="1276.52,-77.1169 1285.68,-71.7865 1275.2,-70.2436 1276.52,-77.1169"/>
</g>
<!-- Node16 -->
<g id="node16" class="node"><title>Node16</title>
<g id="a_node16"><a xlink:href="../../dc/d50/Frequency_8hpp.html" target="_top" xlink:title=" ">
<polygon fill="white" stroke="black" points="944.5,-56.5 944.5,-75.5 1072.5,-75.5 1072.5,-56.5 944.5,-56.5"/>
<text text-anchor="middle" x="1008.5" y="-63.5" font-family="Helvetica,sans-Serif" font-size="10.00">AH/Types/Frequency.hpp</text>
</a>
</g>
</g>
<!-- Node15&#45;&gt;Node16 -->
<g id="edge19" class="edge"><title>Node15&#45;&gt;Node16</title>
<path fill="none" stroke="midnightblue" d="M1026.87,-112.083C1023.89,-104.77 1019.57,-94.1814 1015.88,-85.1034"/>
<polygon fill="midnightblue" stroke="midnightblue" points="1019.08,-83.6914 1012.07,-75.7511 1012.6,-86.3326 1019.08,-83.6914"/>
</g>
<!-- Node17 -->
<g id="node17" class="node"><title>Node17</title>
<g id="a_node17"><a xlink:href="../../d7/d7c/ADCConfig_8hpp.html" target="_top" xlink:title="This file contains the platform&#45;specific ADC resolutions. By default, the library automatically selec...">
<polygon fill="white" stroke="black" points="346.5,-56.5 346.5,-75.5 494.5,-75.5 494.5,-56.5 346.5,-56.5"/>
<text text-anchor="middle" x="420.5" y="-63.5" font-family="Helvetica,sans-Serif" font-size="10.00">AH/Hardware/ADCConfig.hpp</text>
</a>
</g>
</g>
<!-- Node15&#45;&gt;Node17 -->
<g id="edge22" class="edge"><title>Node15&#45;&gt;Node17</title>
<path fill="none" stroke="midnightblue" d="M994.978,-116.934C980.291,-115.309 963.084,-113.476 947.5,-112 753.674,-93.6369 702.293,-94.6339 504.829,-76.1021"/>
<polygon fill="midnightblue" stroke="midnightblue" points="504.986,-72.6016 494.702,-75.1467 504.329,-79.5706 504.986,-72.6016"/>
</g>
<!-- Node18 -->
<g id="node18" class="node"><title>Node18</title>
<g id="a_node18"><a xlink:title=" ">
<polygon fill="white" stroke="#bfbfbf" points="878.5,-56.5 878.5,-75.5 926.5,-75.5 926.5,-56.5 878.5,-56.5"/>
<text text-anchor="middle" x="902.5" y="-63.5" font-family="Helvetica,sans-Serif" font-size="10.00">limits.h</text>
</a>
</g>
</g>
<!-- Node15&#45;&gt;Node18 -->
<g id="edge25" class="edge"><title>Node15&#45;&gt;Node18</title>
<path fill="none" stroke="midnightblue" d="M1010.22,-112.444C989.153,-103.557 955.983,-89.5632 932.014,-79.4514"/>
<polygon fill="midnightblue" stroke="midnightblue" points="933.261,-76.1787 922.687,-75.5164 930.54,-82.6283 933.261,-76.1787"/>
</g>
<!-- Node15&#45;&gt;Node19 -->
<g id="edge26" class="edge"><title>Node15&#45;&gt;Node19</title>
<path fill="none" stroke="midnightblue" d="M1044.32,-112.324C1057.73,-103.9 1078.32,-90.9709 1094.09,-81.0741"/>
<polygon fill="midnightblue" stroke="midnightblue" points="1096.11,-83.9364 1102.72,-75.6545 1092.39,-78.0081 1096.11,-83.9364"/>
</g>
<!-- Node16&#45;&gt;Node8 -->
<g id="edge20" class="edge"><title>Node16&#45;&gt;Node8</title>
<path fill="none" stroke="midnightblue" d="M957.32,-56.4435C900.028,-46.8654 807.256,-31.3556 746.312,-21.1667"/>
<polygon fill="midnightblue" stroke="midnightblue" points="746.881,-17.7134 736.441,-19.5164 745.727,-24.6175 746.881,-17.7134"/>
</g>
<!-- Node16&#45;&gt;Node14 -->
<g id="edge21" class="edge"><title>Node16&#45;&gt;Node14</title>
<path fill="none" stroke="midnightblue" d="M1024.57,-56.324C1040.46,-47.7428 1065.01,-34.486 1083.46,-24.5224"/>
<polygon fill="midnightblue" stroke="midnightblue" points="1085.34,-27.4857 1092.47,-19.6545 1082.01,-21.3264 1085.34,-27.4857"/>
</g>
<!-- Node17&#45;&gt;Node8 -->
<g id="edge23" class="edge"><title>Node17&#45;&gt;Node8</title>
<path fill="none" stroke="midnightblue" d="M462.49,-56.4435C508.912,-46.9839 583.728,-31.7384 633.74,-21.5472"/>
<polygon fill="midnightblue" stroke="midnightblue" points="634.607,-24.9427 643.706,-19.5164 633.209,-18.0837 634.607,-24.9427"/>
</g>
<!-- Node17&#45;&gt;Node12 -->
<g id="edge24" class="edge"><title>Node17&#45;&gt;Node12</title>
<path fill="none" stroke="midnightblue" d="M420.5,-56.083C420.5,-49.0059 420.5,-38.8611 420.5,-29.9865"/>
<polygon fill="midnightblue" stroke="midnightblue" points="424,-29.751 420.5,-19.7511 417,-29.7511 424,-29.751"/>
</g>
<!-- Node24&#45;&gt;Node5 -->
<g id="edge38" class="edge"><title>Node24&#45;&gt;Node5</title>
<path fill="none" stroke="midnightblue" d="M1261.51,-392.204C1270,-370.664 1284.5,-328.421 1284.5,-291 1284.5,-291 1284.5,-291 1284.5,-177 1284.5,-143.929 1295.77,-106.729 1303.47,-85.1685"/>
<polygon fill="midnightblue" stroke="midnightblue" points="1306.79,-86.2679 1306.99,-75.675 1300.23,-83.8308 1306.79,-86.2679"/>
</g>
<!-- Node24&#45;&gt;Node7 -->
<g id="edge36" class="edge"><title>Node24&#45;&gt;Node7</title>
<path fill="none" stroke="midnightblue" d="M1199.4,-392.475C1157.26,-381.941 1100.36,-367.716 1061.49,-357.998"/>
<polygon fill="midnightblue" stroke="midnightblue" points="1062.08,-354.536 1051.53,-355.506 1060.38,-361.327 1062.08,-354.536"/>
</g>
<!-- Node24&#45;&gt;Node8 -->
<g id="edge35" class="edge"><title>Node24&#45;&gt;Node8</title>
<path fill="none" stroke="midnightblue" d="M1245.53,-392.309C1231.74,-371.239 1208.5,-329.968 1208.5,-291 1208.5,-291 1208.5,-291 1208.5,-177 1208.5,-117.554 1200.11,-90.2207 1151.5,-56 1120.47,-34.1553 886.727,-20.2345 762.538,-14.3016"/>
<polygon fill="midnightblue" stroke="midnightblue" points="762.485,-10.7953 752.331,-13.8202 762.155,-17.7876 762.485,-10.7953"/>
</g>
<!-- Node24&#45;&gt;Node14 -->
<g id="edge37" class="edge"><title>Node24&#45;&gt;Node14</title>
<path fill="none" stroke="midnightblue" d="M1253.68,-392.303C1251.05,-370.54 1246.5,-327.605 1246.5,-291 1246.5,-291 1246.5,-291 1246.5,-121 1246.5,-69.6605 1187.37,-38.4014 1146.53,-22.9312"/>
<polygon fill="midnightblue" stroke="midnightblue" points="1147.69,-19.6296 1137.09,-19.5128 1145.3,-26.2108 1147.69,-19.6296"/>
</g>
<!-- Node25&#45;&gt;Node8 -->
<g id="edge43" class="edge"><title>Node25&#45;&gt;Node8</title>
<path fill="none" stroke="midnightblue" d="M274.156,-280.473C217.986,-268.574 141.5,-240.991 141.5,-179 141.5,-179 141.5,-179 141.5,-121 141.5,-91.0239 136.438,-75.15 159.5,-56 176.504,-41.8801 466.603,-23.4855 608.531,-15.278"/>
<polygon fill="midnightblue" stroke="midnightblue" points="609.119,-18.7501 618.901,-14.6812 608.716,-11.7616 609.119,-18.7501"/>
</g>
<!-- Node25&#45;&gt;Node10 -->
<g id="edge44" class="edge"><title>Node25&#45;&gt;Node10</title>
<path fill="none" stroke="midnightblue" d="M401.744,-280.444C484.254,-270.248 621.156,-253.331 702.613,-243.265"/>
<polygon fill="midnightblue" stroke="midnightblue" points="703.257,-246.712 712.752,-242.012 702.399,-239.765 703.257,-246.712"/>
</g>
<!-- Node26 -->
<g id="node26" class="node"><title>Node26</title>
<g id="a_node26"><a xlink:href="../../d7/d79/MinMaxFix_8hpp.html" target="_top" xlink:title=" ">
<polygon fill="white" stroke="black" points="513,-56.5 513,-75.5 638,-75.5 638,-56.5 513,-56.5"/>
<text text-anchor="middle" x="575.5" y="-63.5" font-family="Helvetica,sans-Serif" font-size="10.00">AH/Math/MinMaxFix.hpp</text>
</a>
</g>
</g>
<!-- Node25&#45;&gt;Node26 -->
<g id="edge45" class="edge"><title>Node25&#45;&gt;Node26</title>
<path fill="none" stroke="midnightblue" d="M342.026,-280.297C378.697,-246.796 511.051,-125.88 558.458,-82.5688"/>
<polygon fill="midnightblue" stroke="midnightblue" points="561.018,-84.9714 566.04,-75.6425 556.296,-79.8034 561.018,-84.9714"/>
</g>
<!-- Node27 -->
<g id="node27" class="node"><title>Node27</title>
<g id="a_node27"><a xlink:title=" ">
<polygon fill="white" stroke="#bfbfbf" points="65.5,-224.5 65.5,-243.5 113.5,-243.5 113.5,-224.5 65.5,-224.5"/>
<text text-anchor="middle" x="89.5" y="-231.5" font-family="Helvetica,sans-Serif" font-size="10.00">stdlib.h</text>
</a>
</g>
</g>
<!-- Node25&#45;&gt;Node27 -->
<g id="edge49" class="edge"><title>Node25&#45;&gt;Node27</title>
<path fill="none" stroke="midnightblue" d="M292.774,-280.483C251.444,-271.573 184.872,-257.09 127.5,-244 126.236,-243.712 124.949,-243.416 123.649,-243.116"/>
<polygon fill="midnightblue" stroke="midnightblue" points="124.143,-239.637 113.609,-240.773 122.552,-246.454 124.143,-239.637"/>
</g>
<!-- Node28 -->
<g id="node28" class="node"><title>Node28</title>
<g id="a_node28"><a xlink:title=" ">
<polygon fill="white" stroke="#bfbfbf" points="0,-224.5 0,-243.5 47,-243.5 47,-224.5 0,-224.5"/>
<text text-anchor="middle" x="23.5" y="-231.5" font-family="Helvetica,sans-Serif" font-size="10.00">iterator</text>
</a>
</g>
</g>
<!-- Node25&#45;&gt;Node28 -->
<g id="edge50" class="edge"><title>Node25&#45;&gt;Node28</title>
<path fill="none" stroke="midnightblue" d="M268.285,-280.472C214.421,-272.876 135.308,-260.692 57.2302,-243.96"/>
<polygon fill="midnightblue" stroke="midnightblue" points="57.7346,-240.488 47.2198,-241.788 56.2503,-247.329 57.7346,-240.488"/>
</g>
<!-- Node26&#45;&gt;Node8 -->
<g id="edge46" class="edge"><title>Node26&#45;&gt;Node8</title>
<path fill="none" stroke="midnightblue" d="M593.173,-56.324C610.894,-47.6247 638.403,-34.1202 658.788,-24.113"/>
<polygon fill="midnightblue" stroke="midnightblue" points="660.436,-27.2031 667.87,-19.6545 657.351,-20.9195 660.436,-27.2031"/>
</g>
<!-- Node26&#45;&gt;Node12 -->
<g id="edge47" class="edge"><title>Node26&#45;&gt;Node12</title>
<path fill="none" stroke="midnightblue" d="M550.94,-56.4435C524.977,-47.3986 483.832,-33.064 454.703,-22.9158"/>
<polygon fill="midnightblue" stroke="midnightblue" points="455.54,-19.5013 444.945,-19.5164 453.237,-26.1116 455.54,-19.5013"/>
</g>
<!-- Node26&#45;&gt;Node14 -->
<g id="edge48" class="edge"><title>Node26&#45;&gt;Node14</title>
<path fill="none" stroke="midnightblue" d="M638.209,-58.6467C737.678,-48.5692 931.099,-28.9731 1036.24,-18.3211"/>
<polygon fill="midnightblue" stroke="midnightblue" points="1036.84,-21.7776 1046.44,-17.2874 1036.14,-14.8133 1036.84,-21.7776"/>
</g>
</g>
</svg>
