<?xml version="1.0" encoding="UTF-8" standalone="no"?>
<!DOCTYPE svg PUBLIC "-//W3C//DTD SVG 1.1//EN"
 "http://www.w3.org/Graphics/SVG/1.1/DTD/svg11.dtd">
<!-- Generated by graphviz version 2.43.0 (0)
 -->
<!-- Title: app.hpp Pages: 1 -->
<svg width="470pt" height="247pt"
 viewBox="0.00 0.00 470.00 247.00" xmlns="http://www.w3.org/2000/svg" xmlns:xlink="http://www.w3.org/1999/xlink">
<g id="graph0" class="graph" transform="scale(1 1) rotate(0) translate(4 243)">
<title>app.hpp</title>
<!-- Node1 -->
<g id="Node000001" class="node">
<title>Node1</title>
<g id="a_Node000001"><a xlink:title=" ">
<polygon fill="#999999" stroke="#666666" points="330,-239 274,-239 274,-220 330,-220 330,-239"/>
<text text-anchor="middle" x="302" y="-227" font-family="Helvetica,sans-Serif" font-size="10.00">app.hpp</text>
</a>
</g>
</g>
<!-- Node2 -->
<g id="Node000002" class="node">
<title>Node2</title>
<g id="a_Node000002"><a xlink:href="../../dd/d05/BLEAPI_8hpp.html" target="_top" xlink:title="Type definitions and callback interfaces for communication between the low&#45;level BLE stacks and highe...">
<polygon fill="white" stroke="#666666" points="300,-184 220,-184 220,-165 300,-165 300,-184"/>
<text text-anchor="middle" x="260" y="-172" font-family="Helvetica,sans-Serif" font-size="10.00">../BLEAPI.hpp</text>
</a>
</g>
</g>
<!-- Node1&#45;&gt;Node2 -->
<g id="edge1_Node000001_Node000002" class="edge">
<title>Node1&#45;&gt;Node2</title>
<g id="a_edge1_Node000001_Node000002"><a xlink:title=" ">
<path fill="none" stroke="#63b8ff" d="M295.06,-219.75C289.13,-212.26 280.43,-201.28 273.18,-192.13"/>
<polygon fill="#63b8ff" stroke="#63b8ff" points="275.76,-189.75 266.81,-184.09 270.27,-194.1 275.76,-189.75"/>
</a>
</g>
</g>
<!-- Node11 -->
<g id="Node000011" class="node">
<title>Node11</title>
<g id="a_Node000011"><a xlink:title=" ">
<polygon fill="#e0e0e0" stroke="#999999" points="371.5,-184 318.5,-184 318.5,-165 371.5,-165 371.5,-184"/>
<text text-anchor="middle" x="345" y="-172" font-family="Helvetica,sans-Serif" font-size="10.00">app.ipp</text>
</a>
</g>
</g>
<!-- Node1&#45;&gt;Node11 -->
<g id="edge12_Node000001_Node000011" class="edge">
<title>Node1&#45;&gt;Node11</title>
<g id="a_edge12_Node000001_Node000011"><a xlink:title=" ">
<path fill="none" stroke="#63b8ff" d="M309.1,-219.75C315.17,-212.26 324.09,-201.28 331.51,-192.13"/>
<polygon fill="#63b8ff" stroke="#63b8ff" points="334.45,-194.06 338.03,-184.09 329.01,-189.65 334.45,-194.06"/>
</a>
</g>
</g>
<!-- Node3 -->
<g id="Node000003" class="node">
<title>Node3</title>
<g id="a_Node000003"><a xlink:href="../../d0/da7/Settings_2NamespaceSettings_8hpp.html" target="_top" xlink:title=" ">
<polygon fill="white" stroke="#666666" points="178,-74 0,-74 0,-55 178,-55 178,-74"/>
<text text-anchor="middle" x="89" y="-62" font-family="Helvetica,sans-Serif" font-size="10.00">Settings/NamespaceSettings.hpp</text>
</a>
</g>
</g>
<!-- Node2&#45;&gt;Node3 -->
<g id="edge2_Node000002_Node000003" class="edge">
<title>Node2&#45;&gt;Node3</title>
<g id="a_edge2_Node000002_Node000003"><a xlink:title=" ">
<path fill="none" stroke="#63b8ff" d="M246.3,-164.84C216.9,-146.28 147.56,-102.49 111.57,-79.75"/>
<polygon fill="#63b8ff" stroke="#63b8ff" points="113.09,-76.58 102.77,-74.2 109.36,-82.5 113.09,-76.58"/>
</a>
</g>
</g>
<!-- Node5 -->
<g id="Node000005" class="node">
<title>Node5</title>
<g id="a_Node000005"><a xlink:href="../../dc/da9/compat_8hpp.html" target="_top" xlink:title=" ">
<polygon fill="white" stroke="#666666" points="307.5,-129 212.5,-129 212.5,-110 307.5,-110 307.5,-129"/>
<text text-anchor="middle" x="260" y="-117" font-family="Helvetica,sans-Serif" font-size="10.00">Util/compat.hpp</text>
</a>
</g>
</g>
<!-- Node2&#45;&gt;Node5 -->
<g id="edge4_Node000002_Node000005" class="edge">
<title>Node2&#45;&gt;Node5</title>
<g id="a_edge4_Node000002_Node000005"><a xlink:title=" ">
<path fill="none" stroke="#63b8ff" d="M260,-164.75C260,-157.8 260,-147.85 260,-139.13"/>
<polygon fill="#63b8ff" stroke="#63b8ff" points="263.5,-139.09 260,-129.09 256.5,-139.09 263.5,-139.09"/>
</a>
</g>
</g>
<!-- Node6 -->
<g id="Node000006" class="node">
<title>Node6</title>
<g id="a_Node000006"><a xlink:title=" ">
<polygon fill="#e0e0e0" stroke="#999999" points="248.5,-74 195.5,-74 195.5,-55 248.5,-55 248.5,-74"/>
<text text-anchor="middle" x="222" y="-62" font-family="Helvetica,sans-Serif" font-size="10.00">cstddef</text>
</a>
</g>
</g>
<!-- Node2&#45;&gt;Node6 -->
<g id="edge9_Node000002_Node000006" class="edge">
<title>Node2&#45;&gt;Node6</title>
<g id="a_edge9_Node000002_Node000006"><a xlink:title=" ">
<path fill="none" stroke="#63b8ff" d="M241.65,-164.88C228.21,-157.46 210.98,-145.36 203,-129 195.69,-114.02 202.73,-95.66 210.23,-82.55"/>
<polygon fill="#63b8ff" stroke="#63b8ff" points="213.22,-84.37 215.57,-74.04 207.29,-80.65 213.22,-84.37"/>
</a>
</g>
</g>
<!-- Node9 -->
<g id="Node000009" class="node">
<title>Node9</title>
<g id="a_Node000009"><a xlink:title=" ">
<polygon fill="#e0e0e0" stroke="#999999" points="376,-129 326,-129 326,-110 376,-110 376,-129"/>
<text text-anchor="middle" x="351" y="-117" font-family="Helvetica,sans-Serif" font-size="10.00">cstdint</text>
</a>
</g>
</g>
<!-- Node2&#45;&gt;Node9 -->
<g id="edge10_Node000002_Node000009" class="edge">
<title>Node2&#45;&gt;Node9</title>
<g id="a_edge10_Node000002_Node000009"><a xlink:title=" ">
<path fill="none" stroke="#63b8ff" d="M274.62,-164.98C288.86,-156.69 310.75,-143.94 327.45,-134.22"/>
<polygon fill="#63b8ff" stroke="#63b8ff" points="329.23,-137.23 336.11,-129.17 325.71,-131.18 329.23,-137.23"/>
</a>
</g>
</g>
<!-- Node10 -->
<g id="Node000010" class="node">
<title>Node10</title>
<g id="a_Node000010"><a xlink:title=" ">
<polygon fill="#e0e0e0" stroke="#999999" points="462,-129 394,-129 394,-110 462,-110 462,-129"/>
<text text-anchor="middle" x="428" y="-117" font-family="Helvetica,sans-Serif" font-size="10.00">BLEAPI.ipp</text>
</a>
</g>
</g>
<!-- Node2&#45;&gt;Node10 -->
<g id="edge11_Node000002_Node000010" class="edge">
<title>Node2&#45;&gt;Node10</title>
<g id="a_edge11_Node000002_Node000010"><a xlink:title=" ">
<path fill="none" stroke="#63b8ff" d="M286.99,-164.98C315.2,-156.09 359.64,-142.07 391.08,-132.15"/>
<polygon fill="#63b8ff" stroke="#63b8ff" points="392.31,-135.43 400.8,-129.08 390.21,-128.75 392.31,-135.43"/>
</a>
</g>
</g>
<!-- Node4 -->
<g id="Node000004" class="node">
<title>Node4</title>
<g id="a_Node000004"><a xlink:href="../../d1/d65/Warnings_8hpp.html" target="_top" xlink:title=" ">
<polygon fill="white" stroke="#666666" points="160.5,-19 17.5,-19 17.5,0 160.5,0 160.5,-19"/>
<text text-anchor="middle" x="89" y="-7" font-family="Helvetica,sans-Serif" font-size="10.00">AH/Settings/Warnings.hpp</text>
</a>
</g>
</g>
<!-- Node3&#45;&gt;Node4 -->
<g id="edge3_Node000003_Node000004" class="edge">
<title>Node3&#45;&gt;Node4</title>
<g id="a_edge3_Node000003_Node000004"><a xlink:title=" ">
<path fill="none" stroke="#63b8ff" d="M89,-54.75C89,-47.8 89,-37.85 89,-29.13"/>
<polygon fill="#63b8ff" stroke="#63b8ff" points="92.5,-29.09 89,-19.09 85.5,-29.09 92.5,-29.09"/>
</a>
</g>
</g>
<!-- Node5&#45;&gt;Node3 -->
<g id="edge5_Node000005_Node000003" class="edge">
<title>Node5&#45;&gt;Node3</title>
<g id="a_edge5_Node000005_Node000003"><a xlink:title=" ">
<path fill="none" stroke="#63b8ff" d="M232.53,-109.98C203.82,-101.09 158.58,-87.07 126.58,-77.15"/>
<polygon fill="#63b8ff" stroke="#63b8ff" points="127.28,-73.7 116.69,-74.08 125.2,-80.39 127.28,-73.7"/>
</a>
</g>
</g>
<!-- Node5&#45;&gt;Node6 -->
<g id="edge6_Node000005_Node000006" class="edge">
<title>Node5&#45;&gt;Node6</title>
<g id="a_edge6_Node000005_Node000006"><a xlink:title=" ">
<path fill="none" stroke="#63b8ff" d="M253.73,-109.75C248.41,-102.34 240.64,-91.5 234.12,-82.41"/>
<polygon fill="#63b8ff" stroke="#63b8ff" points="236.83,-80.18 228.16,-74.09 231.14,-84.26 236.83,-80.18"/>
</a>
</g>
</g>
<!-- Node7 -->
<g id="Node000007" class="node">
<title>Node7</title>
<g id="a_Node000007"><a xlink:title=" ">
<polygon fill="#e0e0e0" stroke="#999999" points="335.5,-74 266.5,-74 266.5,-55 335.5,-55 335.5,-74"/>
<text text-anchor="middle" x="301" y="-62" font-family="Helvetica,sans-Serif" font-size="10.00">type_traits</text>
</a>
</g>
</g>
<!-- Node5&#45;&gt;Node7 -->
<g id="edge7_Node000005_Node000007" class="edge">
<title>Node5&#45;&gt;Node7</title>
<g id="a_edge7_Node000005_Node000007"><a xlink:title=" ">
<path fill="none" stroke="#63b8ff" d="M266.77,-109.75C272.56,-102.26 281.06,-91.28 288.14,-82.13"/>
<polygon fill="#63b8ff" stroke="#63b8ff" points="291.01,-84.14 294.36,-74.09 285.47,-79.86 291.01,-84.14"/>
</a>
</g>
</g>
<!-- Node8 -->
<g id="Node000008" class="node">
<title>Node8</title>
<g id="a_Node000008"><a xlink:title=" ">
<polygon fill="#e0e0e0" stroke="#999999" points="398.5,-74 353.5,-74 353.5,-55 398.5,-55 398.5,-74"/>
<text text-anchor="middle" x="376" y="-62" font-family="Helvetica,sans-Serif" font-size="10.00">utility</text>
</a>
</g>
</g>
<!-- Node5&#45;&gt;Node8 -->
<g id="edge8_Node000005_Node000008" class="edge">
<title>Node5&#45;&gt;Node8</title>
<g id="a_edge8_Node000005_Node000008"><a xlink:title=" ">
<path fill="none" stroke="#63b8ff" d="M278.64,-109.98C297.3,-101.46 326.25,-88.23 347.74,-78.41"/>
<polygon fill="#63b8ff" stroke="#63b8ff" points="349.38,-81.51 357.02,-74.17 346.47,-75.14 349.38,-81.51"/>
</a>
</g>
</g>
</g>
</svg>
