<?xml version="1.0" encoding="UTF-8" standalone="no"?>
<!DOCTYPE svg PUBLIC "-//W3C//DTD SVG 1.1//EN"
 "http://www.w3.org/Graphics/SVG/1.1/DTD/svg11.dtd">
<!-- Generated by graphviz version 2.43.0 (0)
 -->
<!-- Title: MCU.hpp Pages: 1 -->
<svg width="569pt" height="302pt"
 viewBox="0.00 0.00 568.76 302.00" xmlns="http://www.w3.org/2000/svg" xmlns:xlink="http://www.w3.org/1999/xlink">
<g id="graph0" class="graph" transform="scale(1 1) rotate(0) translate(4 298)">
<title>MCU.hpp</title>
<!-- Node1 -->
<g id="Node000001" class="node">
<title>Node1</title>
<g id="a_Node000001"><a xlink:title=" ">
<polygon fill="#999999" stroke="#666666" points="306,-294 245,-294 245,-275 306,-275 306,-294"/>
<text text-anchor="middle" x="275.5" y="-282" font-family="Helvetica,sans-Serif" font-size="10.00">MCU.hpp</text>
</a>
</g>
</g>
<!-- Node2 -->
<g id="Node000002" class="node">
<title>Node2</title>
<g id="a_Node000002"><a xlink:href="../../d7/d42/Channel_8hpp.html" target="_top" xlink:title=" ">
<polygon fill="white" stroke="#666666" points="247.5,-239 149.5,-239 149.5,-220 247.5,-220 247.5,-239"/>
<text text-anchor="middle" x="198.5" y="-227" font-family="Helvetica,sans-Serif" font-size="10.00">Def/Channel.hpp</text>
</a>
</g>
</g>
<!-- Node1&#45;&gt;Node2 -->
<g id="edge1_Node000001_Node000002" class="edge">
<title>Node1&#45;&gt;Node2</title>
<g id="a_edge1_Node000001_Node000002"><a xlink:title=" ">
<path fill="none" stroke="#63b8ff" d="M263.13,-274.98C251.41,-266.92 233.58,-254.65 219.61,-245.03"/>
<polygon fill="#63b8ff" stroke="#63b8ff" points="221.32,-241.96 211.1,-239.17 217.35,-247.72 221.32,-241.96"/>
</a>
</g>
</g>
<!-- Node11 -->
<g id="Node000011" class="node">
<title>Node11</title>
<g id="a_Node000011"><a xlink:href="../../d8/dc0/MCUNameFromNoteNumber_8hpp.html" target="_top" xlink:title=" ">
<polygon fill="white" stroke="#666666" points="441.5,-239 265.5,-239 265.5,-220 441.5,-220 441.5,-239"/>
<text text-anchor="middle" x="353.5" y="-227" font-family="Helvetica,sans-Serif" font-size="10.00">MCUNameFromNoteNumber.hpp</text>
</a>
</g>
</g>
<!-- Node1&#45;&gt;Node11 -->
<g id="edge13_Node000001_Node000011" class="edge">
<title>Node1&#45;&gt;Node11</title>
<g id="a_edge13_Node000001_Node000011"><a xlink:title=" ">
<path fill="none" stroke="#63b8ff" d="M288.03,-274.98C299.9,-266.92 317.96,-254.65 332.11,-245.03"/>
<polygon fill="#63b8ff" stroke="#63b8ff" points="334.44,-247.69 340.74,-239.17 330.5,-241.9 334.44,-247.69"/>
</a>
</g>
</g>
<!-- Node3 -->
<g id="Node000003" class="node">
<title>Node3</title>
<g id="a_Node000003"><a xlink:href="../../d6/ddf/Arduino-Wrapper_8h.html" target="_top" xlink:title=" ">
<polygon fill="white" stroke="#666666" points="253.5,-184 129.5,-184 129.5,-165 253.5,-165 253.5,-184"/>
<text text-anchor="middle" x="191.5" y="-172" font-family="Helvetica,sans-Serif" font-size="10.00">AH/Arduino&#45;Wrapper.h</text>
</a>
</g>
</g>
<!-- Node2&#45;&gt;Node3 -->
<g id="edge2_Node000002_Node000003" class="edge">
<title>Node2&#45;&gt;Node3</title>
<g id="a_edge2_Node000002_Node000003"><a xlink:title=" ">
<path fill="none" stroke="#63b8ff" d="M197.34,-219.75C196.43,-212.8 195.11,-202.85 193.96,-194.13"/>
<polygon fill="#63b8ff" stroke="#63b8ff" points="197.41,-193.54 192.63,-184.09 190.47,-194.46 197.41,-193.54"/>
</a>
</g>
</g>
<!-- Node10 -->
<g id="Node000010" class="node">
<title>Node10</title>
<g id="a_Node000010"><a xlink:href="../../d0/da7/Settings_2NamespaceSettings_8hpp.html" target="_top" xlink:title=" ">
<polygon fill="white" stroke="#666666" points="449.5,-184 271.5,-184 271.5,-165 449.5,-165 449.5,-184"/>
<text text-anchor="middle" x="360.5" y="-172" font-family="Helvetica,sans-Serif" font-size="10.00">Settings/NamespaceSettings.hpp</text>
</a>
</g>
</g>
<!-- Node2&#45;&gt;Node10 -->
<g id="edge11_Node000002_Node000010" class="edge">
<title>Node2&#45;&gt;Node10</title>
<g id="a_edge11_Node000002_Node000010"><a xlink:title=" ">
<path fill="none" stroke="#63b8ff" d="M224.53,-219.98C251.61,-211.13 294.21,-197.19 324.51,-187.28"/>
<polygon fill="#63b8ff" stroke="#63b8ff" points="325.85,-190.52 334.27,-184.08 323.68,-183.87 325.85,-190.52"/>
</a>
</g>
</g>
<!-- Node4 -->
<g id="Node000004" class="node">
<title>Node4</title>
<g id="a_Node000004"><a xlink:href="../../d7/d79/MinMaxFix_8hpp.html" target="_top" xlink:title=" ">
<polygon fill="white" stroke="#666666" points="316.5,-129 180.5,-129 180.5,-110 316.5,-110 316.5,-129"/>
<text text-anchor="middle" x="248.5" y="-117" font-family="Helvetica,sans-Serif" font-size="10.00">AH/Math/MinMaxFix.hpp</text>
</a>
</g>
</g>
<!-- Node3&#45;&gt;Node4 -->
<g id="edge3_Node000003_Node000004" class="edge">
<title>Node3&#45;&gt;Node4</title>
<g id="a_edge3_Node000003_Node000004"><a xlink:title=" ">
<path fill="none" stroke="#63b8ff" d="M200.66,-164.98C209,-157.23 221.53,-145.58 231.68,-136.14"/>
<polygon fill="#63b8ff" stroke="#63b8ff" points="234.24,-138.54 239.18,-129.17 229.47,-133.42 234.24,-138.54"/>
</a>
</g>
</g>
<!-- Node7 -->
<g id="Node000007" class="node">
<title>Node7</title>
<g id="a_Node000007"><a xlink:title=" ">
<polygon fill="#e0e0e0" stroke="#999999" points="224,-19 161,-19 161,0 224,0 224,-19"/>
<text text-anchor="middle" x="192.5" y="-7" font-family="Helvetica,sans-Serif" font-size="10.00">Arduino.h</text>
</a>
</g>
</g>
<!-- Node3&#45;&gt;Node7 -->
<g id="edge10_Node000003_Node000007" class="edge">
<title>Node3&#45;&gt;Node7</title>
<g id="a_edge10_Node000003_Node000007"><a xlink:title=" ">
<path fill="none" stroke="#63b8ff" d="M184.82,-164.78C170.56,-145.02 139.58,-95.44 154.5,-55 158.56,-43.99 166.69,-33.86 174.4,-26.05"/>
<polygon fill="#63b8ff" stroke="#63b8ff" points="176.92,-28.48 181.79,-19.07 172.11,-23.39 176.92,-28.48"/>
</a>
</g>
</g>
<!-- Node9 -->
<g id="Node000009" class="node">
<title>Node9</title>
<g id="a_Node000009"><a xlink:title=" ">
<polygon fill="#e0e0e0" stroke="#999999" points="107,-129 0,-129 0,-110 107,-110 107,-129"/>
<text text-anchor="middle" x="53.5" y="-117" font-family="Helvetica,sans-Serif" font-size="10.00">AH/STL/type_traits</text>
</a>
</g>
</g>
<!-- Node3&#45;&gt;Node9 -->
<g id="edge9_Node000003_Node000009" class="edge">
<title>Node3&#45;&gt;Node9</title>
<g id="a_edge9_Node000003_Node000009"><a xlink:title=" ">
<path fill="none" stroke="#63b8ff" d="M169.33,-164.98C146.73,-156.3 111.44,-142.75 85.75,-132.88"/>
<polygon fill="#63b8ff" stroke="#63b8ff" points="86.67,-129.49 76.08,-129.17 84.16,-136.02 86.67,-129.49"/>
</a>
</g>
</g>
<!-- Node5 -->
<g id="Node000005" class="node">
<title>Node5</title>
<g id="a_Node000005"><a xlink:href="../../d6/d3b/FixArduinoMacros_8hpp.html" target="_top" xlink:title=" ">
<polygon fill="white" stroke="#666666" points="333.5,-74 163.5,-74 163.5,-55 333.5,-55 333.5,-74"/>
<text text-anchor="middle" x="248.5" y="-62" font-family="Helvetica,sans-Serif" font-size="10.00">AH/Math/FixArduinoMacros.hpp</text>
</a>
</g>
</g>
<!-- Node4&#45;&gt;Node5 -->
<g id="edge4_Node000004_Node000005" class="edge">
<title>Node4&#45;&gt;Node5</title>
<g id="a_edge4_Node000004_Node000005"><a xlink:title=" ">
<path fill="none" stroke="#63b8ff" d="M248.5,-109.75C248.5,-102.8 248.5,-92.85 248.5,-84.13"/>
<polygon fill="#63b8ff" stroke="#63b8ff" points="252,-84.09 248.5,-74.09 245,-84.09 252,-84.09"/>
</a>
</g>
</g>
<!-- Node8 -->
<g id="Node000008" class="node">
<title>Node8</title>
<g id="a_Node000008"><a xlink:href="../../d6/db0/AH_2Settings_2NamespaceSettings_8hpp.html" target="_top" xlink:title=" ">
<polygon fill="white" stroke="#666666" points="547,-74 352,-74 352,-55 547,-55 547,-74"/>
<text text-anchor="middle" x="449.5" y="-62" font-family="Helvetica,sans-Serif" font-size="10.00">AH/Settings/NamespaceSettings.hpp</text>
</a>
</g>
</g>
<!-- Node4&#45;&gt;Node8 -->
<g id="edge7_Node000004_Node000008" class="edge">
<title>Node4&#45;&gt;Node8</title>
<g id="a_edge7_Node000004_Node000008"><a xlink:title=" ">
<path fill="none" stroke="#63b8ff" d="M280.79,-109.98C315.12,-100.93 369.56,-86.58 407.27,-76.64"/>
<polygon fill="#63b8ff" stroke="#63b8ff" points="408.18,-80.02 416.95,-74.08 406.39,-73.25 408.18,-80.02"/>
</a>
</g>
</g>
<!-- Node6 -->
<g id="Node000006" class="node">
<title>Node6</title>
<g id="a_Node000006"><a xlink:href="../../d1/d65/Warnings_8hpp.html" target="_top" xlink:title=" ">
<polygon fill="white" stroke="#666666" points="521,-19 378,-19 378,0 521,0 521,-19"/>
<text text-anchor="middle" x="449.5" y="-7" font-family="Helvetica,sans-Serif" font-size="10.00">AH/Settings/Warnings.hpp</text>
</a>
</g>
</g>
<!-- Node5&#45;&gt;Node6 -->
<g id="edge5_Node000005_Node000006" class="edge">
<title>Node5&#45;&gt;Node6</title>
<g id="a_edge5_Node000005_Node000006"><a xlink:title=" ">
<path fill="none" stroke="#63b8ff" d="M280.79,-54.98C315.12,-45.93 369.56,-31.58 407.27,-21.64"/>
<polygon fill="#63b8ff" stroke="#63b8ff" points="408.18,-25.02 416.95,-19.08 406.39,-18.25 408.18,-25.02"/>
</a>
</g>
</g>
<!-- Node5&#45;&gt;Node7 -->
<g id="edge6_Node000005_Node000007" class="edge">
<title>Node5&#45;&gt;Node7</title>
<g id="a_edge6_Node000005_Node000007"><a xlink:title=" ">
<path fill="none" stroke="#63b8ff" d="M239.5,-54.98C231.31,-47.23 218.99,-35.58 209.03,-26.14"/>
<polygon fill="#63b8ff" stroke="#63b8ff" points="211.33,-23.5 201.66,-19.17 206.52,-28.59 211.33,-23.5"/>
</a>
</g>
</g>
<!-- Node8&#45;&gt;Node6 -->
<g id="edge8_Node000008_Node000006" class="edge">
<title>Node8&#45;&gt;Node6</title>
<g id="a_edge8_Node000008_Node000006"><a xlink:title=" ">
<path fill="none" stroke="#63b8ff" d="M449.5,-54.75C449.5,-47.8 449.5,-37.85 449.5,-29.13"/>
<polygon fill="#63b8ff" stroke="#63b8ff" points="453,-29.09 449.5,-19.09 446,-29.09 453,-29.09"/>
</a>
</g>
</g>
<!-- Node10&#45;&gt;Node6 -->
<g id="edge12_Node000010_Node000006" class="edge">
<title>Node10&#45;&gt;Node6</title>
<g id="a_edge12_Node000010_Node000006"><a xlink:title=" ">
<path fill="none" stroke="#63b8ff" d="M405.13,-164.96C452.09,-153.33 523.66,-127.5 556.5,-74 572.44,-48.03 538.32,-31.4 504.47,-21.7"/>
<polygon fill="#63b8ff" stroke="#63b8ff" points="505.07,-18.24 494.5,-19.03 503.26,-25 505.07,-18.24"/>
</a>
</g>
</g>
<!-- Node11&#45;&gt;Node3 -->
<g id="edge14_Node000011_Node000003" class="edge">
<title>Node11&#45;&gt;Node3</title>
<g id="a_edge14_Node000011_Node000003"><a xlink:title=" ">
<path fill="none" stroke="#63b8ff" d="M327.47,-219.98C300.39,-211.13 257.79,-197.19 227.49,-187.28"/>
<polygon fill="#63b8ff" stroke="#63b8ff" points="228.32,-183.87 217.73,-184.08 226.15,-190.52 228.32,-183.87"/>
</a>
</g>
</g>
<!-- Node11&#45;&gt;Node10 -->
<g id="edge15_Node000011_Node000010" class="edge">
<title>Node11&#45;&gt;Node10</title>
<g id="a_edge15_Node000011_Node000010"><a xlink:title=" ">
<path fill="none" stroke="#63b8ff" d="M354.66,-219.75C355.57,-212.8 356.89,-202.85 358.04,-194.13"/>
<polygon fill="#63b8ff" stroke="#63b8ff" points="361.53,-194.46 359.37,-184.09 354.59,-193.54 361.53,-194.46"/>
</a>
</g>
</g>
</g>
</svg>
