<?xml version="1.0" encoding="UTF-8" standalone="no"?>
<!DOCTYPE svg PUBLIC "-//W3C//DTD SVG 1.1//EN"
 "http://www.w3.org/Graphics/SVG/1.1/DTD/svg11.dtd">
<!-- Generated by graphviz version 2.43.0 (0)
 -->
<!-- Title: CCButtonLatched Pages: 1 -->
<svg width="651pt" height="1462pt"
 viewBox="0.00 0.00 650.50 1462.00" xmlns="http://www.w3.org/2000/svg" xmlns:xlink="http://www.w3.org/1999/xlink">
<g id="graph0" class="graph" transform="scale(1 1) rotate(0) translate(4 1458)">
<title>CCButtonLatched</title>
<!-- Node1 -->
<g id="Node000001" class="node">
<title>Node1</title>
<g id="a_Node000001"><a xlink:title="A class of MIDIOutputElements that read the input of a momentary push button or switch,...">
<polygon fill="#999999" stroke="transparent" points="465.5,-49 352.5,-49 352.5,0 465.5,0 465.5,-49"/>
<text text-anchor="start" x="367" y="-36.5" font-family="Helvetica,sans-Serif" font-size="10.00">CCButtonLatched</text>
<text text-anchor="start" x="407.5" y="-21.5" font-family="Helvetica,sans-Serif" font-size="10.00"> </text>
<text text-anchor="start" x="357" y="-6.5" font-family="Helvetica,sans-Serif" font-size="10.00">+</text>
<text text-anchor="start" x="370" y="-6.5" font-family="Helvetica,sans-Serif" font-size="10.00">CCButtonLatched()</text>
<polygon fill="#666666" stroke="#666666" points="353,-31.5 353,-31.5 466,-31.5 466,-31.5 353,-31.5"/>
<polygon fill="#666666" stroke="#666666" points="353,-16.5 353,-16.5 466,-16.5 466,-16.5 353,-16.5"/>
<polygon fill="none" stroke="#666666" points="352.5,0 352.5,-49 465.5,-49 465.5,0 352.5,0"/>
</a>
</g>
</g>
<!-- Node2 -->
<g id="Node000002" class="node">
<title>Node2</title>
<g id="a_Node000002"><a xlink:href="../../d3/d88/classMIDIButtonLatched.html" target="_top" xlink:title=" ">
<polygon fill="white" stroke="transparent" points="470,-281 348,-281 348,-86 470,-86 470,-281"/>
<text text-anchor="start" x="358" y="-268.5" font-family="Helvetica,sans-Serif" font-size="10.00">MIDIButtonLatched&lt;</text>
<text text-anchor="start" x="362" y="-257.5" font-family="Helvetica,sans-Serif" font-size="10.00"> DigitalCCSender &gt;</text>
<text text-anchor="start" x="354.5" y="-242.5" font-family="Helvetica,sans-Serif" font-size="10.00">&#45;</text>
<text text-anchor="start" x="365" y="-242.5" font-family="Helvetica,sans-Serif" font-size="10.00">state</text>
<text text-anchor="start" x="352" y="-227.5" font-family="Helvetica,sans-Serif" font-size="10.00">+</text>
<text text-anchor="start" x="365" y="-227.5" font-family="Helvetica,sans-Serif" font-size="10.00">begin()</text>
<text text-anchor="start" x="352" y="-212.5" font-family="Helvetica,sans-Serif" font-size="10.00">+</text>
<text text-anchor="start" x="365" y="-212.5" font-family="Helvetica,sans-Serif" font-size="10.00">update()</text>
<text text-anchor="start" x="352" y="-197.5" font-family="Helvetica,sans-Serif" font-size="10.00">+</text>
<text text-anchor="start" x="365" y="-197.5" font-family="Helvetica,sans-Serif" font-size="10.00">toggleState()</text>
<text text-anchor="start" x="352" y="-182.5" font-family="Helvetica,sans-Serif" font-size="10.00">+</text>
<text text-anchor="start" x="365" y="-182.5" font-family="Helvetica,sans-Serif" font-size="10.00">getState()</text>
<text text-anchor="start" x="352" y="-167.5" font-family="Helvetica,sans-Serif" font-size="10.00">+</text>
<text text-anchor="start" x="365" y="-167.5" font-family="Helvetica,sans-Serif" font-size="10.00">setState()</text>
<text text-anchor="start" x="352" y="-152.5" font-family="Helvetica,sans-Serif" font-size="10.00">+</text>
<text text-anchor="start" x="365" y="-152.5" font-family="Helvetica,sans-Serif" font-size="10.00">invert()</text>
<text text-anchor="start" x="352" y="-137.5" font-family="Helvetica,sans-Serif" font-size="10.00">+</text>
<text text-anchor="start" x="365" y="-137.5" font-family="Helvetica,sans-Serif" font-size="10.00">getButtonState()</text>
<text text-anchor="start" x="352" y="-122.5" font-family="Helvetica,sans-Serif" font-size="10.00">+</text>
<text text-anchor="start" x="365" y="-122.5" font-family="Helvetica,sans-Serif" font-size="10.00">getAddress()</text>
<text text-anchor="start" x="352" y="-107.5" font-family="Helvetica,sans-Serif" font-size="10.00">+</text>
<text text-anchor="start" x="365" y="-107.5" font-family="Helvetica,sans-Serif" font-size="10.00">setAddressUnsafe()</text>
<text text-anchor="start" x="352" y="-92.5" font-family="Helvetica,sans-Serif" font-size="10.00">#</text>
<text text-anchor="start" x="365" y="-92.5" font-family="Helvetica,sans-Serif" font-size="10.00">MIDIButtonLatched()</text>
<polygon fill="#666666" stroke="#666666" points="348,-252.5 348,-252.5 470,-252.5 470,-252.5 348,-252.5"/>
<polygon fill="#666666" stroke="#666666" points="348,-237.5 348,-237.5 363,-237.5 363,-237.5 348,-237.5"/>
<polygon fill="#666666" stroke="#666666" points="363,-237.5 363,-237.5 470,-237.5 470,-237.5 363,-237.5"/>
<polygon fill="none" stroke="#666666" points="348,-86 348,-281 470,-281 470,-86 348,-86"/>
</a>
</g>
</g>
<!-- Node2&#45;&gt;Node1 -->
<g id="edge1_Node000001_Node000002" class="edge">
<title>Node2&#45;&gt;Node1</title>
<g id="a_edge1_Node000001_Node000002"><a xlink:title=" ">
<path fill="none" stroke="#63b8ff" d="M409,-75.49C409,-65.84 409,-56.86 409,-49.25"/>
<polygon fill="none" stroke="#63b8ff" points="405.5,-75.75 409,-85.75 412.5,-75.75 405.5,-75.75"/>
</a>
</g>
</g>
<!-- Node3 -->
<g id="Node000003" class="node">
<title>Node3</title>
<g id="a_Node000003"><a xlink:href="../../d1/d55/classAH_1_1Updatable.html" target="_top" xlink:title="A super class for object that have to be updated regularly.">
<polygon fill="white" stroke="transparent" points="210.5,-564.5 103.5,-564.5 103.5,-470.5 210.5,-470.5 210.5,-564.5"/>
<text text-anchor="start" x="109" y="-552.5" font-family="Helvetica,sans-Serif" font-size="10.00">MIDIOutputElement</text>
<text text-anchor="start" x="155.5" y="-537.5" font-family="Helvetica,sans-Serif" font-size="10.00"> </text>
<text text-anchor="start" x="116.5" y="-522.5" font-family="Helvetica,sans-Serif" font-size="10.00">*</text>
<text text-anchor="start" x="135" y="-522.5" font-family="Helvetica,sans-Serif" font-size="10.00">begin()</text>
<text text-anchor="start" x="116.5" y="-507.5" font-family="Helvetica,sans-Serif" font-size="10.00">*</text>
<text text-anchor="start" x="135" y="-507.5" font-family="Helvetica,sans-Serif" font-size="10.00">update()</text>
<text text-anchor="start" x="116.5" y="-492.5" font-family="Helvetica,sans-Serif" font-size="10.00">*</text>
<text text-anchor="start" x="135" y="-492.5" font-family="Helvetica,sans-Serif" font-size="10.00">beginAll()</text>
<text text-anchor="start" x="116.5" y="-477.5" font-family="Helvetica,sans-Serif" font-size="10.00">*</text>
<text text-anchor="start" x="135" y="-477.5" font-family="Helvetica,sans-Serif" font-size="10.00">updateAll()</text>
<polygon fill="#666666" stroke="#666666" points="104,-547.5 104,-547.5 211,-547.5 211,-547.5 104,-547.5"/>
<polygon fill="#666666" stroke="#666666" points="104,-532.5 104,-532.5 211,-532.5 211,-532.5 104,-532.5"/>
<polygon fill="none" stroke="#666666" points="103.5,-470.5 103.5,-564.5 210.5,-564.5 210.5,-470.5 103.5,-470.5"/>
</a>
</g>
</g>
<!-- Node3&#45;&gt;Node2 -->
<g id="edge2_Node000002_Node000003" class="edge">
<title>Node3&#45;&gt;Node2</title>
<g id="a_edge2_Node000002_Node000003"><a xlink:title=" ">
<path fill="none" stroke="#63b8ff" d="M166.55,-460.54C175.41,-420.74 191.64,-367.55 220,-328 253.37,-281.46 306.22,-243.15 347.56,-217.86"/>
<polygon fill="none" stroke="#63b8ff" points="163.12,-459.84 164.45,-470.35 169.96,-461.3 163.12,-459.84"/>
</a>
</g>
</g>
<!-- Node4 -->
<g id="Node000004" class="node">
<title>Node4</title>
<g id="a_Node000004"><a xlink:href="../../d8/d1a/classAH_1_1UpdatableCRTP.html" target="_top" xlink:title="A super class for object that have to be updated regularly.">
<polygon fill="white" stroke="transparent" points="230,-1028 84,-1028 84,-754 230,-754 230,-1028"/>
<text text-anchor="start" x="89" y="-1016" font-family="Helvetica,sans-Serif" font-size="10.00">UpdatableCRTP&lt; Derived &gt;</text>
<text text-anchor="start" x="155" y="-1001" font-family="Helvetica,sans-Serif" font-size="10.00"> </text>
<text text-anchor="start" x="96.5" y="-986" font-family="Helvetica,sans-Serif" font-size="10.00">+</text>
<text text-anchor="start" x="118" y="-986" font-family="Helvetica,sans-Serif" font-size="10.00">~UpdatableCRTP()</text>
<text text-anchor="start" x="96.5" y="-971" font-family="Helvetica,sans-Serif" font-size="10.00">#</text>
<text text-anchor="start" x="118" y="-971" font-family="Helvetica,sans-Serif" font-size="10.00">UpdatableCRTP()</text>
<text text-anchor="start" x="96.5" y="-956" font-family="Helvetica,sans-Serif" font-size="10.00">#</text>
<text text-anchor="start" x="118" y="-956" font-family="Helvetica,sans-Serif" font-size="10.00">UpdatableCRTP()</text>
<text text-anchor="start" x="96.5" y="-941" font-family="Helvetica,sans-Serif" font-size="10.00">#</text>
<text text-anchor="start" x="118" y="-941" font-family="Helvetica,sans-Serif" font-size="10.00">operator=()</text>
<text text-anchor="start" x="96.5" y="-926" font-family="Helvetica,sans-Serif" font-size="10.00">#</text>
<text text-anchor="start" x="118" y="-926" font-family="Helvetica,sans-Serif" font-size="10.00">UpdatableCRTP()</text>
<text text-anchor="start" x="96.5" y="-911" font-family="Helvetica,sans-Serif" font-size="10.00">#</text>
<text text-anchor="start" x="118" y="-911" font-family="Helvetica,sans-Serif" font-size="10.00">operator=()</text>
<text text-anchor="start" x="98" y="-896" font-family="Helvetica,sans-Serif" font-size="10.00">*</text>
<text text-anchor="start" x="118" y="-896" font-family="Helvetica,sans-Serif" font-size="10.00">enable()</text>
<text text-anchor="start" x="98" y="-881" font-family="Helvetica,sans-Serif" font-size="10.00">*</text>
<text text-anchor="start" x="118" y="-881" font-family="Helvetica,sans-Serif" font-size="10.00">disable()</text>
<text text-anchor="start" x="98" y="-866" font-family="Helvetica,sans-Serif" font-size="10.00">*</text>
<text text-anchor="start" x="118" y="-866" font-family="Helvetica,sans-Serif" font-size="10.00">isEnabled()</text>
<text text-anchor="start" x="98" y="-851" font-family="Helvetica,sans-Serif" font-size="10.00">*</text>
<text text-anchor="start" x="118" y="-851" font-family="Helvetica,sans-Serif" font-size="10.00">moveDown()</text>
<text text-anchor="start" x="98" y="-836" font-family="Helvetica,sans-Serif" font-size="10.00">*</text>
<text text-anchor="start" x="118" y="-836" font-family="Helvetica,sans-Serif" font-size="10.00">enable()</text>
<text text-anchor="start" x="98" y="-821" font-family="Helvetica,sans-Serif" font-size="10.00">*</text>
<text text-anchor="start" x="118" y="-821" font-family="Helvetica,sans-Serif" font-size="10.00">enable()</text>
<text text-anchor="start" x="98" y="-806" font-family="Helvetica,sans-Serif" font-size="10.00">*</text>
<text text-anchor="start" x="118" y="-806" font-family="Helvetica,sans-Serif" font-size="10.00">enable()</text>
<text text-anchor="start" x="98" y="-791" font-family="Helvetica,sans-Serif" font-size="10.00">*</text>
<text text-anchor="start" x="118" y="-791" font-family="Helvetica,sans-Serif" font-size="10.00">disable()</text>
<text text-anchor="start" x="98" y="-776" font-family="Helvetica,sans-Serif" font-size="10.00">*</text>
<text text-anchor="start" x="118" y="-776" font-family="Helvetica,sans-Serif" font-size="10.00">disable()</text>
<text text-anchor="start" x="98" y="-761" font-family="Helvetica,sans-Serif" font-size="10.00">*</text>
<text text-anchor="start" x="118" y="-761" font-family="Helvetica,sans-Serif" font-size="10.00">disable()</text>
<polygon fill="#666666" stroke="#666666" points="84,-1011 84,-1011 230,-1011 230,-1011 84,-1011"/>
<polygon fill="#666666" stroke="#666666" points="84,-996 84,-996 230,-996 230,-996 84,-996"/>
<polygon fill="none" stroke="#666666" points="84,-754 84,-1028 230,-1028 230,-754 84,-754"/>
</a>
</g>
</g>
<!-- Node4&#45;&gt;Node3 -->
<g id="edge3_Node000003_Node000004" class="edge">
<title>Node4&#45;&gt;Node3</title>
<g id="a_edge3_Node000003_Node000004"><a xlink:title=" ">
<path fill="none" stroke="#63b8ff" d="M157,-743.58C157,-679.7 157,-609.31 157,-564.55"/>
<polygon fill="none" stroke="#63b8ff" points="153.5,-743.78 157,-753.78 160.5,-743.78 153.5,-743.78"/>
</a>
</g>
</g>
<!-- Node5 -->
<g id="Node000005" class="node">
<title>Node5</title>
<g id="a_Node000005"><a xlink:href="../../d4/d23/classDoublyLinkable.html" target="_top" xlink:title=" ">
<polygon fill="white" stroke="transparent" points="146,-1334 0,-1334 0,-1195 146,-1195 146,-1334"/>
<text text-anchor="start" x="5" y="-1321.5" font-family="Helvetica,sans-Serif" font-size="10.00">DoublyLinkable&lt; Derived &gt;</text>
<text text-anchor="start" x="12.5" y="-1306.5" font-family="Helvetica,sans-Serif" font-size="10.00">#</text>
<text text-anchor="start" x="34" y="-1306.5" font-family="Helvetica,sans-Serif" font-size="10.00">next</text>
<text text-anchor="start" x="12.5" y="-1291.5" font-family="Helvetica,sans-Serif" font-size="10.00">#</text>
<text text-anchor="start" x="34" y="-1291.5" font-family="Helvetica,sans-Serif" font-size="10.00">previous</text>
<text text-anchor="start" x="12.5" y="-1276.5" font-family="Helvetica,sans-Serif" font-size="10.00">#</text>
<text text-anchor="start" x="34" y="-1276.5" font-family="Helvetica,sans-Serif" font-size="10.00">~DoublyLinkable()</text>
<text text-anchor="start" x="12.5" y="-1261.5" font-family="Helvetica,sans-Serif" font-size="10.00">#</text>
<text text-anchor="start" x="34" y="-1261.5" font-family="Helvetica,sans-Serif" font-size="10.00">DoublyLinkable()</text>
<text text-anchor="start" x="12.5" y="-1246.5" font-family="Helvetica,sans-Serif" font-size="10.00">#</text>
<text text-anchor="start" x="34" y="-1246.5" font-family="Helvetica,sans-Serif" font-size="10.00">DoublyLinkable()</text>
<text text-anchor="start" x="12.5" y="-1231.5" font-family="Helvetica,sans-Serif" font-size="10.00">#</text>
<text text-anchor="start" x="34" y="-1231.5" font-family="Helvetica,sans-Serif" font-size="10.00">DoublyLinkable()</text>
<text text-anchor="start" x="12.5" y="-1216.5" font-family="Helvetica,sans-Serif" font-size="10.00">#</text>
<text text-anchor="start" x="34" y="-1216.5" font-family="Helvetica,sans-Serif" font-size="10.00">operator=()</text>
<text text-anchor="start" x="12.5" y="-1201.5" font-family="Helvetica,sans-Serif" font-size="10.00">#</text>
<text text-anchor="start" x="34" y="-1201.5" font-family="Helvetica,sans-Serif" font-size="10.00">operator=()</text>
<polygon fill="#666666" stroke="#666666" points="0,-1316.5 0,-1316.5 146,-1316.5 146,-1316.5 0,-1316.5"/>
<polygon fill="#666666" stroke="#666666" points="0,-1286.5 0,-1286.5 32,-1286.5 32,-1286.5 0,-1286.5"/>
<polygon fill="#666666" stroke="#666666" points="32,-1286.5 32,-1286.5 146,-1286.5 146,-1286.5 32,-1286.5"/>
<polygon fill="none" stroke="#666666" points="0,-1195 0,-1334 146,-1334 146,-1195 0,-1195"/>
</a>
</g>
</g>
<!-- Node5&#45;&gt;Node4 -->
<g id="edge4_Node000004_Node000005" class="edge">
<title>Node5&#45;&gt;Node4</title>
<g id="a_edge4_Node000004_Node000005"><a xlink:title=" ">
<path fill="none" stroke="#63b8ff" d="M90.72,-1185.14C101,-1139.66 114.24,-1081.09 126.18,-1028.28"/>
<polygon fill="none" stroke="#63b8ff" points="87.3,-1184.4 88.5,-1194.93 94.12,-1185.95 87.3,-1184.4"/>
</a>
</g>
</g>
<!-- Node6 -->
<g id="Node000006" class="node">
<title>Node6</title>
<g id="a_Node000006"><a xlink:href="../../dd/d16/classDoublyLinkedList.html" target="_top" xlink:title=" ">
<polygon fill="white" stroke="transparent" points="319.5,-1454 164.5,-1454 164.5,-1075 319.5,-1075 319.5,-1454"/>
<text text-anchor="start" x="170" y="-1441.5" font-family="Helvetica,sans-Serif" font-size="10.00">DoublyLinkedList&lt; Derived &gt;</text>
<text text-anchor="start" x="187" y="-1426.5" font-family="Helvetica,sans-Serif" font-size="10.00">&#45;</text>
<text text-anchor="start" x="213" y="-1426.5" font-family="Helvetica,sans-Serif" font-size="10.00">first</text>
<text text-anchor="start" x="187" y="-1411.5" font-family="Helvetica,sans-Serif" font-size="10.00">&#45;</text>
<text text-anchor="start" x="213" y="-1411.5" font-family="Helvetica,sans-Serif" font-size="10.00">last</text>
<text text-anchor="start" x="184.5" y="-1396.5" font-family="Helvetica,sans-Serif" font-size="10.00">+</text>
<text text-anchor="start" x="213" y="-1396.5" font-family="Helvetica,sans-Serif" font-size="10.00">append()</text>
<text text-anchor="start" x="184.5" y="-1381.5" font-family="Helvetica,sans-Serif" font-size="10.00">+</text>
<text text-anchor="start" x="213" y="-1381.5" font-family="Helvetica,sans-Serif" font-size="10.00">append()</text>
<text text-anchor="start" x="184.5" y="-1366.5" font-family="Helvetica,sans-Serif" font-size="10.00">+</text>
<text text-anchor="start" x="213" y="-1366.5" font-family="Helvetica,sans-Serif" font-size="10.00">insertBefore()</text>
<text text-anchor="start" x="184.5" y="-1351.5" font-family="Helvetica,sans-Serif" font-size="10.00">+</text>
<text text-anchor="start" x="213" y="-1351.5" font-family="Helvetica,sans-Serif" font-size="10.00">insertBefore()</text>
<text text-anchor="start" x="184.5" y="-1336.5" font-family="Helvetica,sans-Serif" font-size="10.00">+</text>
<text text-anchor="start" x="213" y="-1336.5" font-family="Helvetica,sans-Serif" font-size="10.00">insertSorted()</text>
<text text-anchor="start" x="184.5" y="-1321.5" font-family="Helvetica,sans-Serif" font-size="10.00">+</text>
<text text-anchor="start" x="213" y="-1321.5" font-family="Helvetica,sans-Serif" font-size="10.00">insertSorted()</text>
<text text-anchor="start" x="184.5" y="-1306.5" font-family="Helvetica,sans-Serif" font-size="10.00">+</text>
<text text-anchor="start" x="213" y="-1306.5" font-family="Helvetica,sans-Serif" font-size="10.00">remove()</text>
<text text-anchor="start" x="184.5" y="-1291.5" font-family="Helvetica,sans-Serif" font-size="10.00">+</text>
<text text-anchor="start" x="213" y="-1291.5" font-family="Helvetica,sans-Serif" font-size="10.00">remove()</text>
<text text-anchor="start" x="184.5" y="-1276.5" font-family="Helvetica,sans-Serif" font-size="10.00">+</text>
<text text-anchor="start" x="213" y="-1276.5" font-family="Helvetica,sans-Serif" font-size="10.00">moveDown()</text>
<text text-anchor="start" x="184.5" y="-1261.5" font-family="Helvetica,sans-Serif" font-size="10.00">+</text>
<text text-anchor="start" x="213" y="-1261.5" font-family="Helvetica,sans-Serif" font-size="10.00">moveDown()</text>
<text text-anchor="start" x="184.5" y="-1246.5" font-family="Helvetica,sans-Serif" font-size="10.00">+</text>
<text text-anchor="start" x="213" y="-1246.5" font-family="Helvetica,sans-Serif" font-size="10.00">couldContain()</text>
<text text-anchor="start" x="184.5" y="-1231.5" font-family="Helvetica,sans-Serif" font-size="10.00">+</text>
<text text-anchor="start" x="213" y="-1231.5" font-family="Helvetica,sans-Serif" font-size="10.00">couldContain()</text>
<text text-anchor="start" x="184.5" y="-1216.5" font-family="Helvetica,sans-Serif" font-size="10.00">+</text>
<text text-anchor="start" x="213" y="-1216.5" font-family="Helvetica,sans-Serif" font-size="10.00">begin()</text>
<text text-anchor="start" x="184.5" y="-1201.5" font-family="Helvetica,sans-Serif" font-size="10.00">+</text>
<text text-anchor="start" x="213" y="-1201.5" font-family="Helvetica,sans-Serif" font-size="10.00">begin()</text>
<text text-anchor="start" x="184.5" y="-1186.5" font-family="Helvetica,sans-Serif" font-size="10.00">+</text>
<text text-anchor="start" x="213" y="-1186.5" font-family="Helvetica,sans-Serif" font-size="10.00">end()</text>
<text text-anchor="start" x="184.5" y="-1171.5" font-family="Helvetica,sans-Serif" font-size="10.00">+</text>
<text text-anchor="start" x="213" y="-1171.5" font-family="Helvetica,sans-Serif" font-size="10.00">end()</text>
<text text-anchor="start" x="184.5" y="-1156.5" font-family="Helvetica,sans-Serif" font-size="10.00">+</text>
<text text-anchor="start" x="213" y="-1156.5" font-family="Helvetica,sans-Serif" font-size="10.00">rbegin()</text>
<text text-anchor="start" x="184.5" y="-1141.5" font-family="Helvetica,sans-Serif" font-size="10.00">+</text>
<text text-anchor="start" x="213" y="-1141.5" font-family="Helvetica,sans-Serif" font-size="10.00">rbegin()</text>
<text text-anchor="start" x="184.5" y="-1126.5" font-family="Helvetica,sans-Serif" font-size="10.00">+</text>
<text text-anchor="start" x="213" y="-1126.5" font-family="Helvetica,sans-Serif" font-size="10.00">rend()</text>
<text text-anchor="start" x="184.5" y="-1111.5" font-family="Helvetica,sans-Serif" font-size="10.00">+</text>
<text text-anchor="start" x="213" y="-1111.5" font-family="Helvetica,sans-Serif" font-size="10.00">rend()</text>
<text text-anchor="start" x="184.5" y="-1096.5" font-family="Helvetica,sans-Serif" font-size="10.00">+</text>
<text text-anchor="start" x="213" y="-1096.5" font-family="Helvetica,sans-Serif" font-size="10.00">getFirst()</text>
<text text-anchor="start" x="184.5" y="-1081.5" font-family="Helvetica,sans-Serif" font-size="10.00">+</text>
<text text-anchor="start" x="213" y="-1081.5" font-family="Helvetica,sans-Serif" font-size="10.00">getLast()</text>
<polygon fill="#666666" stroke="#666666" points="165,-1436.5 165,-1436.5 320,-1436.5 320,-1436.5 165,-1436.5"/>
<polygon fill="#666666" stroke="#666666" points="165,-1406.5 165,-1406.5 211,-1406.5 211,-1406.5 165,-1406.5"/>
<polygon fill="#666666" stroke="#666666" points="211,-1406.5 211,-1406.5 320,-1406.5 320,-1406.5 211,-1406.5"/>
<polygon fill="none" stroke="#666666" points="164.5,-1075 164.5,-1454 319.5,-1454 319.5,-1075 164.5,-1075"/>
</a>
</g>
</g>
<!-- Node6&#45;&gt;Node4 -->
<g id="edge5_Node000004_Node000006" class="edge">
<title>Node6&#45;&gt;Node4</title>
<g id="a_edge5_Node000004_Node000006"><a xlink:title=" ">
<path fill="none" stroke="#63b8ff" d="M198.82,-1074.76C196.15,-1063.1 193.49,-1051.47 190.87,-1040.03"/>
<polygon fill="none" stroke="#63b8ff" points="190.84,-1039.89 185.6,-1034.93 188.16,-1028.19 193.4,-1033.15 190.84,-1039.89"/>
</a>
</g>
<text text-anchor="middle" x="228" y="-1049" font-family="Helvetica,sans-Serif" font-size="10.00" fill="grey"> #updatables</text>
</g>
<!-- Node7 -->
<g id="Node000007" class="node">
<title>Node7</title>
<g id="a_Node000007"><a xlink:href="../../de/d0d/classAH_1_1Button.html" target="_top" xlink:title="A class for reading and debouncing buttons and switches.">
<polygon fill="white" stroke="transparent" points="361,-632 229,-632 229,-403 361,-403 361,-632"/>
<text text-anchor="start" x="278.5" y="-619.5" font-family="Helvetica,sans-Serif" font-size="10.00">Button</text>
<text text-anchor="start" x="235.5" y="-604.5" font-family="Helvetica,sans-Serif" font-size="10.00">&#45;</text>
<text text-anchor="start" x="246" y="-604.5" font-family="Helvetica,sans-Serif" font-size="10.00">debounceTime</text>
<text text-anchor="start" x="233" y="-589.5" font-family="Helvetica,sans-Serif" font-size="10.00">+</text>
<text text-anchor="start" x="246" y="-589.5" font-family="Helvetica,sans-Serif" font-size="10.00">Button()</text>
<text text-anchor="start" x="233" y="-574.5" font-family="Helvetica,sans-Serif" font-size="10.00">+</text>
<text text-anchor="start" x="246" y="-574.5" font-family="Helvetica,sans-Serif" font-size="10.00">Button()</text>
<text text-anchor="start" x="233" y="-559.5" font-family="Helvetica,sans-Serif" font-size="10.00">+</text>
<text text-anchor="start" x="246" y="-559.5" font-family="Helvetica,sans-Serif" font-size="10.00">Button()</text>
<text text-anchor="start" x="233" y="-544.5" font-family="Helvetica,sans-Serif" font-size="10.00">+</text>
<text text-anchor="start" x="246" y="-544.5" font-family="Helvetica,sans-Serif" font-size="10.00">begin()</text>
<text text-anchor="start" x="233" y="-529.5" font-family="Helvetica,sans-Serif" font-size="10.00">+</text>
<text text-anchor="start" x="246" y="-529.5" font-family="Helvetica,sans-Serif" font-size="10.00">invert()</text>
<text text-anchor="start" x="233" y="-514.5" font-family="Helvetica,sans-Serif" font-size="10.00">+</text>
<text text-anchor="start" x="246" y="-514.5" font-family="Helvetica,sans-Serif" font-size="10.00">update()</text>
<text text-anchor="start" x="233" y="-499.5" font-family="Helvetica,sans-Serif" font-size="10.00">+</text>
<text text-anchor="start" x="246" y="-499.5" font-family="Helvetica,sans-Serif" font-size="10.00">getState()</text>
<text text-anchor="start" x="233" y="-484.5" font-family="Helvetica,sans-Serif" font-size="10.00">+</text>
<text text-anchor="start" x="246" y="-484.5" font-family="Helvetica,sans-Serif" font-size="10.00">previousBounceTime()</text>
<text text-anchor="start" x="233" y="-469.5" font-family="Helvetica,sans-Serif" font-size="10.00">+</text>
<text text-anchor="start" x="246" y="-469.5" font-family="Helvetica,sans-Serif" font-size="10.00">stableTime()</text>
<text text-anchor="start" x="233" y="-454.5" font-family="Helvetica,sans-Serif" font-size="10.00">+</text>
<text text-anchor="start" x="246" y="-454.5" font-family="Helvetica,sans-Serif" font-size="10.00">stableTime()</text>
<text text-anchor="start" x="233" y="-439.5" font-family="Helvetica,sans-Serif" font-size="10.00">+</text>
<text text-anchor="start" x="246" y="-439.5" font-family="Helvetica,sans-Serif" font-size="10.00">getName()</text>
<text text-anchor="start" x="233" y="-424.5" font-family="Helvetica,sans-Serif" font-size="10.00">+</text>
<text text-anchor="start" x="246" y="-424.5" font-family="Helvetica,sans-Serif" font-size="10.00">setDebounceTime()</text>
<text text-anchor="start" x="233" y="-409.5" font-family="Helvetica,sans-Serif" font-size="10.00">+</text>
<text text-anchor="start" x="246" y="-409.5" font-family="Helvetica,sans-Serif" font-size="10.00">getDebounceTime()</text>
<polygon fill="#666666" stroke="#666666" points="229,-614.5 229,-614.5 361,-614.5 361,-614.5 229,-614.5"/>
<polygon fill="#666666" stroke="#666666" points="229,-599.5 229,-599.5 244,-599.5 244,-599.5 229,-599.5"/>
<polygon fill="#666666" stroke="#666666" points="244,-599.5 244,-599.5 361,-599.5 361,-599.5 244,-599.5"/>
<polygon fill="none" stroke="#666666" points="229,-403 229,-632 361,-632 361,-403 229,-403"/>
</a>
</g>
</g>
<!-- Node7&#45;&gt;Node2 -->
<g id="edge6_Node000002_Node000007" class="edge">
<title>Node7&#45;&gt;Node2</title>
<g id="a_edge6_Node000002_Node000007"><a xlink:title=" ">
<path fill="none" stroke="#63b8ff" d="M334.07,-402.71C346.29,-367.12 359.73,-327.98 371.82,-292.78"/>
<polygon fill="none" stroke="#63b8ff" points="371.96,-292.36 370.13,-285.39 375.86,-281.01 377.7,-287.98 371.96,-292.36"/>
</a>
</g>
<text text-anchor="middle" x="388.5" y="-302" font-family="Helvetica,sans-Serif" font-size="10.00" fill="grey"> &#45;button</text>
</g>
<!-- Node8 -->
<g id="Node000008" class="node">
<title>Node8</title>
<g id="a_Node000008"><a xlink:href="../../d7/de2/structAH_1_1ExtIO_1_1pin__t.html" target="_top" xlink:title="Type for storing pin numbers of Extended Input/Output elements.">
<polygon fill="white" stroke="transparent" points="336.5,-968 249.5,-968 249.5,-814 336.5,-814 336.5,-968"/>
<text text-anchor="start" x="281" y="-956" font-family="Helvetica,sans-Serif" font-size="10.00">pin_t</text>
<text text-anchor="start" x="254" y="-941" font-family="Helvetica,sans-Serif" font-size="10.00">+</text>
<text text-anchor="start" x="267" y="-941" font-family="Helvetica,sans-Serif" font-size="10.00">pin</text>
<text text-anchor="start" x="254" y="-926" font-family="Helvetica,sans-Serif" font-size="10.00">+</text>
<text text-anchor="start" x="267" y="-926" font-family="Helvetica,sans-Serif" font-size="10.00">pin_t()</text>
<text text-anchor="start" x="254" y="-911" font-family="Helvetica,sans-Serif" font-size="10.00">+</text>
<text text-anchor="start" x="267" y="-911" font-family="Helvetica,sans-Serif" font-size="10.00">pin_t()</text>
<text text-anchor="start" x="254" y="-896" font-family="Helvetica,sans-Serif" font-size="10.00">+</text>
<text text-anchor="start" x="267" y="-896" font-family="Helvetica,sans-Serif" font-size="10.00">operator+=()</text>
<text text-anchor="start" x="254" y="-881" font-family="Helvetica,sans-Serif" font-size="10.00">+</text>
<text text-anchor="start" x="267" y="-881" font-family="Helvetica,sans-Serif" font-size="10.00">operator++()</text>
<text text-anchor="start" x="254" y="-866" font-family="Helvetica,sans-Serif" font-size="10.00">+</text>
<text text-anchor="start" x="267" y="-866" font-family="Helvetica,sans-Serif" font-size="10.00">operator++()</text>
<text text-anchor="start" x="254" y="-851" font-family="Helvetica,sans-Serif" font-size="10.00">+</text>
<text text-anchor="start" x="267" y="-851" font-family="Helvetica,sans-Serif" font-size="10.00">operator&#45;=()</text>
<text text-anchor="start" x="254" y="-836" font-family="Helvetica,sans-Serif" font-size="10.00">+</text>
<text text-anchor="start" x="267" y="-836" font-family="Helvetica,sans-Serif" font-size="10.00">operator&#45;&#45;()</text>
<text text-anchor="start" x="254" y="-821" font-family="Helvetica,sans-Serif" font-size="10.00">+</text>
<text text-anchor="start" x="267" y="-821" font-family="Helvetica,sans-Serif" font-size="10.00">operator&#45;&#45;()</text>
<polygon fill="#666666" stroke="#666666" points="250,-951 250,-951 337,-951 337,-951 250,-951"/>
<polygon fill="#666666" stroke="#666666" points="250,-936 250,-936 265,-936 265,-936 250,-936"/>
<polygon fill="#666666" stroke="#666666" points="265,-936 265,-936 337,-936 337,-936 265,-936"/>
<polygon fill="none" stroke="#666666" points="249.5,-814 249.5,-968 336.5,-968 336.5,-814 249.5,-814"/>
</a>
</g>
</g>
<!-- Node8&#45;&gt;Node7 -->
<g id="edge7_Node000007_Node000008" class="edge">
<title>Node8&#45;&gt;Node7</title>
<g id="a_edge7_Node000007_Node000008"><a xlink:title=" ">
<path fill="none" stroke="#63b8ff" d="M293.41,-813.92C293.67,-765.18 294.02,-700.72 294.32,-644.46"/>
<polygon fill="none" stroke="#63b8ff" points="294.32,-644.22 290.36,-638.2 294.39,-632.22 298.36,-638.24 294.32,-644.22"/>
</a>
</g>
<text text-anchor="middle" x="305" y="-728" font-family="Helvetica,sans-Serif" font-size="10.00" fill="grey"> &#45;pin</text>
</g>
<!-- Node9 -->
<g id="Node000009" class="node">
<title>Node9</title>
<g id="a_Node000009"><a xlink:href="../../dc/db4/structAH_1_1Button_1_1InternalState.html" target="_top" xlink:title=" ">
<polygon fill="white" stroke="transparent" points="459,-945.5 355,-945.5 355,-836.5 459,-836.5 459,-945.5"/>
<text text-anchor="start" x="375" y="-933" font-family="Helvetica,sans-Serif" font-size="10.00">InternalState</text>
<text text-anchor="start" x="359" y="-918" font-family="Helvetica,sans-Serif" font-size="10.00">+</text>
<text text-anchor="start" x="372" y="-918" font-family="Helvetica,sans-Serif" font-size="10.00">debounced</text>
<text text-anchor="start" x="359" y="-903" font-family="Helvetica,sans-Serif" font-size="10.00">+</text>
<text text-anchor="start" x="372" y="-903" font-family="Helvetica,sans-Serif" font-size="10.00">bouncing</text>
<text text-anchor="start" x="359" y="-888" font-family="Helvetica,sans-Serif" font-size="10.00">+</text>
<text text-anchor="start" x="372" y="-888" font-family="Helvetica,sans-Serif" font-size="10.00">prevInput</text>
<text text-anchor="start" x="359" y="-873" font-family="Helvetica,sans-Serif" font-size="10.00">+</text>
<text text-anchor="start" x="372" y="-873" font-family="Helvetica,sans-Serif" font-size="10.00">invert</text>
<text text-anchor="start" x="359" y="-858" font-family="Helvetica,sans-Serif" font-size="10.00">+</text>
<text text-anchor="start" x="372" y="-858" font-family="Helvetica,sans-Serif" font-size="10.00">prevBounceTime</text>
<text text-anchor="start" x="359" y="-843" font-family="Helvetica,sans-Serif" font-size="10.00">+</text>
<text text-anchor="start" x="372" y="-843" font-family="Helvetica,sans-Serif" font-size="10.00">InternalState()</text>
<polygon fill="#666666" stroke="#666666" points="355,-928 355,-928 459,-928 459,-928 355,-928"/>
<polygon fill="#666666" stroke="#666666" points="355,-853 355,-853 370,-853 370,-853 355,-853"/>
<polygon fill="#666666" stroke="#666666" points="370,-853 370,-853 459,-853 459,-853 370,-853"/>
<polygon fill="none" stroke="#666666" points="355,-836.5 355,-945.5 459,-945.5 459,-836.5 355,-836.5"/>
</a>
</g>
</g>
<!-- Node9&#45;&gt;Node7 -->
<g id="edge8_Node000007_Node000009" class="edge">
<title>Node9&#45;&gt;Node7</title>
<g id="a_edge8_Node000007_Node000009"><a xlink:title=" ">
<path fill="none" stroke="#63b8ff" d="M390.83,-836.38C375.72,-786.24 352.58,-709.47 332.82,-643.94"/>
<polygon fill="none" stroke="#63b8ff" points="332.76,-643.76 327.2,-639.17 329.3,-632.27 334.86,-636.86 332.76,-643.76"/>
</a>
</g>
<text text-anchor="middle" x="374" y="-728" font-family="Helvetica,sans-Serif" font-size="10.00" fill="grey"> &#45;state</text>
</g>
<!-- Node10 -->
<g id="Node000010" class="node">
<title>Node10</title>
<g id="a_Node000010"><a xlink:href="../../d7/d0f/classMIDIAddress.html" target="_top" xlink:title="A type&#45;safe utility class for saving a MIDI address consisting of a 7&#45;bit address,...">
<polygon fill="white" stroke="transparent" points="515,-707 379,-707 379,-328 515,-328 515,-707"/>
<text text-anchor="start" x="416" y="-694.5" font-family="Helvetica,sans-Serif" font-size="10.00">MIDIAddress</text>
<text text-anchor="start" x="384" y="-679.5" font-family="Helvetica,sans-Serif" font-size="10.00">&#45;</text>
<text text-anchor="start" x="393" y="-679.5" font-family="Helvetica,sans-Serif" font-size="10.00">addresses</text>
<text text-anchor="start" x="383" y="-664.5" font-family="Helvetica,sans-Serif" font-size="10.00">*</text>
<text text-anchor="start" x="393" y="-664.5" font-family="Helvetica,sans-Serif" font-size="10.00">MIDIAddress()</text>
<text text-anchor="start" x="383" y="-649.5" font-family="Helvetica,sans-Serif" font-size="10.00">*</text>
<text text-anchor="start" x="393" y="-649.5" font-family="Helvetica,sans-Serif" font-size="10.00">MIDIAddress()</text>
<text text-anchor="start" x="383" y="-634.5" font-family="Helvetica,sans-Serif" font-size="10.00">*</text>
<text text-anchor="start" x="393" y="-634.5" font-family="Helvetica,sans-Serif" font-size="10.00">MIDIAddress()</text>
<text text-anchor="start" x="383" y="-619.5" font-family="Helvetica,sans-Serif" font-size="10.00">*</text>
<text text-anchor="start" x="393" y="-619.5" font-family="Helvetica,sans-Serif" font-size="10.00">MIDIAddress()</text>
<text text-anchor="start" x="383" y="-604.5" font-family="Helvetica,sans-Serif" font-size="10.00">*</text>
<text text-anchor="start" x="393" y="-604.5" font-family="Helvetica,sans-Serif" font-size="10.00">MIDIAddress()</text>
<text text-anchor="start" x="383" y="-589.5" font-family="Helvetica,sans-Serif" font-size="10.00">*</text>
<text text-anchor="start" x="393" y="-589.5" font-family="Helvetica,sans-Serif" font-size="10.00">MIDIAddress()</text>
<text text-anchor="start" x="383" y="-574.5" font-family="Helvetica,sans-Serif" font-size="10.00">*</text>
<text text-anchor="start" x="393" y="-574.5" font-family="Helvetica,sans-Serif" font-size="10.00">invalid()</text>
<text text-anchor="start" x="383" y="-559.5" font-family="Helvetica,sans-Serif" font-size="10.00">*</text>
<text text-anchor="start" x="393" y="-559.5" font-family="Helvetica,sans-Serif" font-size="10.00">operator+=()</text>
<text text-anchor="start" x="383" y="-544.5" font-family="Helvetica,sans-Serif" font-size="10.00">*</text>
<text text-anchor="start" x="393" y="-544.5" font-family="Helvetica,sans-Serif" font-size="10.00">operator&#45;=()</text>
<text text-anchor="start" x="383" y="-529.5" font-family="Helvetica,sans-Serif" font-size="10.00">*</text>
<text text-anchor="start" x="393" y="-529.5" font-family="Helvetica,sans-Serif" font-size="10.00">operator+()</text>
<text text-anchor="start" x="383" y="-514.5" font-family="Helvetica,sans-Serif" font-size="10.00">*</text>
<text text-anchor="start" x="393" y="-514.5" font-family="Helvetica,sans-Serif" font-size="10.00">operator&#45;()</text>
<text text-anchor="start" x="383" y="-499.5" font-family="Helvetica,sans-Serif" font-size="10.00">*</text>
<text text-anchor="start" x="393" y="-499.5" font-family="Helvetica,sans-Serif" font-size="10.00">getAddress()</text>
<text text-anchor="start" x="383" y="-484.5" font-family="Helvetica,sans-Serif" font-size="10.00">*</text>
<text text-anchor="start" x="393" y="-484.5" font-family="Helvetica,sans-Serif" font-size="10.00">getChannel()</text>
<text text-anchor="start" x="383" y="-469.5" font-family="Helvetica,sans-Serif" font-size="10.00">*</text>
<text text-anchor="start" x="393" y="-469.5" font-family="Helvetica,sans-Serif" font-size="10.00">getRawChannel()</text>
<text text-anchor="start" x="383" y="-454.5" font-family="Helvetica,sans-Serif" font-size="10.00">*</text>
<text text-anchor="start" x="393" y="-454.5" font-family="Helvetica,sans-Serif" font-size="10.00">getCableNumber()</text>
<text text-anchor="start" x="383" y="-439.5" font-family="Helvetica,sans-Serif" font-size="10.00">*</text>
<text text-anchor="start" x="393" y="-439.5" font-family="Helvetica,sans-Serif" font-size="10.00">getRawCableNumber()</text>
<text text-anchor="start" x="383" y="-424.5" font-family="Helvetica,sans-Serif" font-size="10.00">*</text>
<text text-anchor="start" x="393" y="-424.5" font-family="Helvetica,sans-Serif" font-size="10.00">getChannelCable()</text>
<text text-anchor="start" x="383" y="-409.5" font-family="Helvetica,sans-Serif" font-size="10.00">*</text>
<text text-anchor="start" x="393" y="-409.5" font-family="Helvetica,sans-Serif" font-size="10.00">operator==()</text>
<text text-anchor="start" x="383" y="-394.5" font-family="Helvetica,sans-Serif" font-size="10.00">*</text>
<text text-anchor="start" x="393" y="-394.5" font-family="Helvetica,sans-Serif" font-size="10.00">operator!=()</text>
<text text-anchor="start" x="383" y="-379.5" font-family="Helvetica,sans-Serif" font-size="10.00">*</text>
<text text-anchor="start" x="393" y="-379.5" font-family="Helvetica,sans-Serif" font-size="10.00">isValid()</text>
<text text-anchor="start" x="383" y="-364.5" font-family="Helvetica,sans-Serif" font-size="10.00">*</text>
<text text-anchor="start" x="393" y="-364.5" font-family="Helvetica,sans-Serif" font-size="10.00">operator bool()</text>
<text text-anchor="start" x="383" y="-349.5" font-family="Helvetica,sans-Serif" font-size="10.00">*</text>
<text text-anchor="start" x="393" y="-349.5" font-family="Helvetica,sans-Serif" font-size="10.00">matchSingle()</text>
<text text-anchor="start" x="383" y="-334.5" font-family="Helvetica,sans-Serif" font-size="10.00">*</text>
<text text-anchor="start" x="393" y="-334.5" font-family="Helvetica,sans-Serif" font-size="10.00">matchAddressInRange()</text>
<polygon fill="#666666" stroke="#666666" points="379,-689.5 379,-689.5 515,-689.5 515,-689.5 379,-689.5"/>
<polygon fill="#666666" stroke="#666666" points="379,-674.5 379,-674.5 391,-674.5 391,-674.5 379,-674.5"/>
<polygon fill="#666666" stroke="#666666" points="391,-674.5 391,-674.5 515,-674.5 515,-674.5 391,-674.5"/>
<polygon fill="none" stroke="#666666" points="379,-328 379,-707 515,-707 515,-328 379,-328"/>
</a>
</g>
</g>
<!-- Node10&#45;&gt;Node2 -->
<g id="edge9_Node000002_Node000010" class="edge">
<title>Node10&#45;&gt;Node2</title>
<g id="a_edge9_Node000002_Node000010"><a xlink:title=" ">
<path fill="none" stroke="#63b8ff" d="M425.39,-327.71C424.04,-315.91 422.71,-304.28 421.42,-293.04"/>
<polygon fill="none" stroke="#63b8ff" points="421.41,-292.94 416.76,-287.43 420.05,-281.02 424.7,-286.52 421.41,-292.94"/>
</a>
</g>
<text text-anchor="middle" x="446" y="-302" font-family="Helvetica,sans-Serif" font-size="10.00" fill="grey"> &#45;address</text>
</g>
<!-- Node11 -->
<g id="Node000011" class="node">
<title>Node11</title>
<g id="a_Node000011"><a xlink:href="../../d5/db5/classDigitalCCSender.html" target="_top" xlink:title="Class that sends MIDI control change messages signifying either &quot;on&quot; or &quot;off&quot;.">
<polygon fill="white" stroke="transparent" points="642.5,-594.5 533.5,-594.5 533.5,-440.5 642.5,-440.5 642.5,-594.5"/>
<text text-anchor="start" x="548.5" y="-582.5" font-family="Helvetica,sans-Serif" font-size="10.00">DigitalCCSender</text>
<text text-anchor="start" x="540.5" y="-567.5" font-family="Helvetica,sans-Serif" font-size="10.00">&#45;</text>
<text text-anchor="start" x="551" y="-567.5" font-family="Helvetica,sans-Serif" font-size="10.00">onValue</text>
<text text-anchor="start" x="540.5" y="-552.5" font-family="Helvetica,sans-Serif" font-size="10.00">&#45;</text>
<text text-anchor="start" x="551" y="-552.5" font-family="Helvetica,sans-Serif" font-size="10.00">offValue</text>
<text text-anchor="start" x="538" y="-537.5" font-family="Helvetica,sans-Serif" font-size="10.00">+</text>
<text text-anchor="start" x="551" y="-537.5" font-family="Helvetica,sans-Serif" font-size="10.00">DigitalCCSender()</text>
<text text-anchor="start" x="538" y="-522.5" font-family="Helvetica,sans-Serif" font-size="10.00">+</text>
<text text-anchor="start" x="551" y="-522.5" font-family="Helvetica,sans-Serif" font-size="10.00">sendOn()</text>
<text text-anchor="start" x="538" y="-507.5" font-family="Helvetica,sans-Serif" font-size="10.00">+</text>
<text text-anchor="start" x="551" y="-507.5" font-family="Helvetica,sans-Serif" font-size="10.00">sendOff()</text>
<text text-anchor="start" x="538" y="-492.5" font-family="Helvetica,sans-Serif" font-size="10.00">+</text>
<text text-anchor="start" x="551" y="-492.5" font-family="Helvetica,sans-Serif" font-size="10.00">getOnValue()</text>
<text text-anchor="start" x="538" y="-477.5" font-family="Helvetica,sans-Serif" font-size="10.00">+</text>
<text text-anchor="start" x="551" y="-477.5" font-family="Helvetica,sans-Serif" font-size="10.00">setOnValue()</text>
<text text-anchor="start" x="538" y="-462.5" font-family="Helvetica,sans-Serif" font-size="10.00">+</text>
<text text-anchor="start" x="551" y="-462.5" font-family="Helvetica,sans-Serif" font-size="10.00">getOffValue()</text>
<text text-anchor="start" x="538" y="-447.5" font-family="Helvetica,sans-Serif" font-size="10.00">+</text>
<text text-anchor="start" x="551" y="-447.5" font-family="Helvetica,sans-Serif" font-size="10.00">setOffValue()</text>
<polygon fill="#666666" stroke="#666666" points="534,-577.5 534,-577.5 643,-577.5 643,-577.5 534,-577.5"/>
<polygon fill="#666666" stroke="#666666" points="534,-547.5 534,-547.5 549,-547.5 549,-547.5 534,-547.5"/>
<polygon fill="#666666" stroke="#666666" points="549,-547.5 549,-547.5 643,-547.5 643,-547.5 549,-547.5"/>
<polygon fill="none" stroke="#666666" points="533.5,-440.5 533.5,-594.5 642.5,-594.5 642.5,-440.5 533.5,-440.5"/>
</a>
</g>
</g>
<!-- Node11&#45;&gt;Node2 -->
<g id="edge10_Node000002_Node000011" class="edge">
<title>Node11&#45;&gt;Node2</title>
<g id="a_edge10_Node000002_Node000011"><a xlink:title=" ">
<path fill="none" stroke="#63b8ff" d="M568.67,-440.12C558.09,-404.79 543.19,-363 524,-328 511.16,-304.57 494.42,-281.13 477.71,-260.18"/>
<polygon fill="none" stroke="#63b8ff" points="477.61,-260.06 470.73,-257.92 470.05,-250.74 476.94,-252.88 477.61,-260.06"/>
</a>
</g>
<text text-anchor="middle" x="533.5" y="-302" font-family="Helvetica,sans-Serif" font-size="10.00" fill="grey"> +sender</text>
</g>
</g>
</svg>
