<?xml version="1.0" encoding="UTF-8" standalone="no"?>
<!DOCTYPE svg PUBLIC "-//W3C//DTD SVG 1.1//EN"
 "http://www.w3.org/Graphics/SVG/1.1/DTD/svg11.dtd">
<!-- Generated by graphviz version 2.43.0 (0)
 -->
<!-- Title: NoteButton&lt; NumBanks &gt; Pages: 1 -->
<svg width="201pt" height="888pt"
 viewBox="0.00 0.00 201.00 888.00" xmlns="http://www.w3.org/2000/svg" xmlns:xlink="http://www.w3.org/1999/xlink">
<g id="graph0" class="graph" transform="scale(1 1) rotate(0) translate(4 884)">
<title>NoteButton&lt; NumBanks &gt;</title>
<!-- Node1 -->
<g id="Node000001" class="node">
<title>Node1</title>
<g id="a_Node000001"><a xlink:title="A class of MIDIOutputElements that read the input of a momentary push button or switch,...">
<polygon fill="#999999" stroke="transparent" points="167.5,-79 25.5,-79 25.5,0 167.5,0 167.5,-79"/>
<text text-anchor="start" x="30.5" y="-66.5" font-family="Helvetica,sans-Serif" font-size="10.00">NoteButton&lt; NumBanks &gt;</text>
<text text-anchor="start" x="94.5" y="-51.5" font-family="Helvetica,sans-Serif" font-size="10.00"> </text>
<text text-anchor="start" x="43.5" y="-36.5" font-family="Helvetica,sans-Serif" font-size="10.00">+</text>
<text text-anchor="start" x="70.5" y="-36.5" font-family="Helvetica,sans-Serif" font-size="10.00">NoteButton()</text>
<text text-anchor="start" x="43.5" y="-21.5" font-family="Helvetica,sans-Serif" font-size="10.00">+</text>
<text text-anchor="start" x="70.5" y="-21.5" font-family="Helvetica,sans-Serif" font-size="10.00">setVelocity()</text>
<text text-anchor="start" x="43.5" y="-6.5" font-family="Helvetica,sans-Serif" font-size="10.00">+</text>
<text text-anchor="start" x="70.5" y="-6.5" font-family="Helvetica,sans-Serif" font-size="10.00">getVelocity()</text>
<polygon fill="#666666" stroke="#666666" points="25.5,-61.5 25.5,-61.5 167.5,-61.5 167.5,-61.5 25.5,-61.5"/>
<polygon fill="#666666" stroke="#666666" points="25.5,-46.5 25.5,-46.5 167.5,-46.5 167.5,-46.5 25.5,-46.5"/>
<polygon fill="none" stroke="#666666" points="25.5,0 25.5,-79 167.5,-79 167.5,0 25.5,0"/>
</a>
</g>
</g>
<!-- Node2 -->
<g id="Node000002" class="node">
<title>Node2</title>
<g id="a_Node000002"><a xlink:href="../../d9/df9/classBankable_1_1MIDIButton.html" target="_top" xlink:title=" ">
<polygon fill="white" stroke="transparent" points="193,-265 0,-265 0,-115 193,-115 193,-265"/>
<text text-anchor="start" x="5.5" y="-253" font-family="Helvetica,sans-Serif" font-size="10.00">MIDIButton&lt; ManyAddresses</text>
<text text-anchor="start" x="5.5" y="-242" font-family="Helvetica,sans-Serif" font-size="10.00">&lt; NumBanks &gt;, DigitalNoteSender &gt;</text>
<text text-anchor="start" x="27" y="-227" font-family="Helvetica,sans-Serif" font-size="10.00">+</text>
<text text-anchor="start" x="62.5" y="-227" font-family="Helvetica,sans-Serif" font-size="10.00">sender</text>
<text text-anchor="start" x="27" y="-212" font-family="Helvetica,sans-Serif" font-size="10.00">#</text>
<text text-anchor="start" x="62.5" y="-212" font-family="Helvetica,sans-Serif" font-size="10.00">address</text>
<text text-anchor="start" x="27" y="-197" font-family="Helvetica,sans-Serif" font-size="10.00">#</text>
<text text-anchor="start" x="62.5" y="-197" font-family="Helvetica,sans-Serif" font-size="10.00">button</text>
<text text-anchor="start" x="27" y="-182" font-family="Helvetica,sans-Serif" font-size="10.00">+</text>
<text text-anchor="start" x="62.5" y="-182" font-family="Helvetica,sans-Serif" font-size="10.00">MIDIButton()</text>
<text text-anchor="start" x="27" y="-167" font-family="Helvetica,sans-Serif" font-size="10.00">+</text>
<text text-anchor="start" x="62.5" y="-167" font-family="Helvetica,sans-Serif" font-size="10.00">begin()</text>
<text text-anchor="start" x="27" y="-152" font-family="Helvetica,sans-Serif" font-size="10.00">+</text>
<text text-anchor="start" x="62.5" y="-152" font-family="Helvetica,sans-Serif" font-size="10.00">update()</text>
<text text-anchor="start" x="27" y="-137" font-family="Helvetica,sans-Serif" font-size="10.00">+</text>
<text text-anchor="start" x="62.5" y="-137" font-family="Helvetica,sans-Serif" font-size="10.00">invert()</text>
<text text-anchor="start" x="27" y="-122" font-family="Helvetica,sans-Serif" font-size="10.00">+</text>
<text text-anchor="start" x="62.5" y="-122" font-family="Helvetica,sans-Serif" font-size="10.00">getButtonState()</text>
<polygon fill="#666666" stroke="#666666" points="0.5,-237 0.5,-237 193.5,-237 193.5,-237 0.5,-237"/>
<polygon fill="#666666" stroke="#666666" points="0.5,-192 0.5,-192 60.5,-192 60.5,-192 0.5,-192"/>
<polygon fill="#666666" stroke="#666666" points="60.5,-192 60.5,-192 193.5,-192 193.5,-192 60.5,-192"/>
<polygon fill="none" stroke="#666666" points="0,-115 0,-265 193,-265 193,-115 0,-115"/>
</a>
</g>
</g>
<!-- Node2&#45;&gt;Node1 -->
<g id="edge1_Node000001_Node000002" class="edge">
<title>Node2&#45;&gt;Node1</title>
<g id="a_edge1_Node000001_Node000002"><a xlink:title=" ">
<path fill="none" stroke="#63b8ff" d="M96.5,-104.67C96.5,-95.78 96.5,-87.1 96.5,-79.13"/>
<polygon fill="none" stroke="#63b8ff" points="93,-104.75 96.5,-114.75 100,-104.75 93,-104.75"/>
</a>
</g>
</g>
<!-- Node3 -->
<g id="Node000003" class="node">
<title>Node3</title>
<g id="a_Node000003"><a xlink:href="../../d1/d55/classAH_1_1Updatable.html" target="_top" xlink:title="A super class for object that have to be updated regularly.">
<polygon fill="white" stroke="transparent" points="150,-395 43,-395 43,-301 150,-301 150,-395"/>
<text text-anchor="start" x="48.5" y="-383" font-family="Helvetica,sans-Serif" font-size="10.00">MIDIOutputElement</text>
<text text-anchor="start" x="95" y="-368" font-family="Helvetica,sans-Serif" font-size="10.00"> </text>
<text text-anchor="start" x="56" y="-353" font-family="Helvetica,sans-Serif" font-size="10.00">*</text>
<text text-anchor="start" x="74.5" y="-353" font-family="Helvetica,sans-Serif" font-size="10.00">begin()</text>
<text text-anchor="start" x="56" y="-338" font-family="Helvetica,sans-Serif" font-size="10.00">*</text>
<text text-anchor="start" x="74.5" y="-338" font-family="Helvetica,sans-Serif" font-size="10.00">update()</text>
<text text-anchor="start" x="56" y="-323" font-family="Helvetica,sans-Serif" font-size="10.00">*</text>
<text text-anchor="start" x="74.5" y="-323" font-family="Helvetica,sans-Serif" font-size="10.00">beginAll()</text>
<text text-anchor="start" x="56" y="-308" font-family="Helvetica,sans-Serif" font-size="10.00">*</text>
<text text-anchor="start" x="74.5" y="-308" font-family="Helvetica,sans-Serif" font-size="10.00">updateAll()</text>
<polygon fill="#666666" stroke="#666666" points="43.5,-378 43.5,-378 150.5,-378 150.5,-378 43.5,-378"/>
<polygon fill="#666666" stroke="#666666" points="43.5,-363 43.5,-363 150.5,-363 150.5,-363 43.5,-363"/>
<polygon fill="none" stroke="#666666" points="43,-301 43,-395 150,-395 150,-301 43,-301"/>
</a>
</g>
</g>
<!-- Node3&#45;&gt;Node2 -->
<g id="edge2_Node000002_Node000003" class="edge">
<title>Node3&#45;&gt;Node2</title>
<g id="a_edge2_Node000002_Node000003"><a xlink:title=" ">
<path fill="none" stroke="#63b8ff" d="M96.5,-290.45C96.5,-282.26 96.5,-273.73 96.5,-265.26"/>
<polygon fill="none" stroke="#63b8ff" points="93,-290.62 96.5,-300.62 100,-290.62 93,-290.62"/>
</a>
</g>
</g>
<!-- Node4 -->
<g id="Node000004" class="node">
<title>Node4</title>
<g id="a_Node000004"><a xlink:href="../../d8/d1a/classAH_1_1UpdatableCRTP.html" target="_top" xlink:title="A super class for object that have to be updated regularly.">
<polygon fill="white" stroke="transparent" points="169.5,-705 23.5,-705 23.5,-431 169.5,-431 169.5,-705"/>
<text text-anchor="start" x="28.5" y="-693" font-family="Helvetica,sans-Serif" font-size="10.00">UpdatableCRTP&lt; Derived &gt;</text>
<text text-anchor="start" x="36" y="-678" font-family="Helvetica,sans-Serif" font-size="10.00">#</text>
<text text-anchor="start" x="57.5" y="-678" font-family="Helvetica,sans-Serif" font-size="10.00">updatables</text>
<text text-anchor="start" x="36" y="-663" font-family="Helvetica,sans-Serif" font-size="10.00">+</text>
<text text-anchor="start" x="57.5" y="-663" font-family="Helvetica,sans-Serif" font-size="10.00">~UpdatableCRTP()</text>
<text text-anchor="start" x="36" y="-648" font-family="Helvetica,sans-Serif" font-size="10.00">#</text>
<text text-anchor="start" x="57.5" y="-648" font-family="Helvetica,sans-Serif" font-size="10.00">UpdatableCRTP()</text>
<text text-anchor="start" x="36" y="-633" font-family="Helvetica,sans-Serif" font-size="10.00">#</text>
<text text-anchor="start" x="57.5" y="-633" font-family="Helvetica,sans-Serif" font-size="10.00">UpdatableCRTP()</text>
<text text-anchor="start" x="36" y="-618" font-family="Helvetica,sans-Serif" font-size="10.00">#</text>
<text text-anchor="start" x="57.5" y="-618" font-family="Helvetica,sans-Serif" font-size="10.00">operator=()</text>
<text text-anchor="start" x="36" y="-603" font-family="Helvetica,sans-Serif" font-size="10.00">#</text>
<text text-anchor="start" x="57.5" y="-603" font-family="Helvetica,sans-Serif" font-size="10.00">UpdatableCRTP()</text>
<text text-anchor="start" x="36" y="-588" font-family="Helvetica,sans-Serif" font-size="10.00">#</text>
<text text-anchor="start" x="57.5" y="-588" font-family="Helvetica,sans-Serif" font-size="10.00">operator=()</text>
<text text-anchor="start" x="37.5" y="-573" font-family="Helvetica,sans-Serif" font-size="10.00">*</text>
<text text-anchor="start" x="57.5" y="-573" font-family="Helvetica,sans-Serif" font-size="10.00">enable()</text>
<text text-anchor="start" x="37.5" y="-558" font-family="Helvetica,sans-Serif" font-size="10.00">*</text>
<text text-anchor="start" x="57.5" y="-558" font-family="Helvetica,sans-Serif" font-size="10.00">disable()</text>
<text text-anchor="start" x="37.5" y="-543" font-family="Helvetica,sans-Serif" font-size="10.00">*</text>
<text text-anchor="start" x="57.5" y="-543" font-family="Helvetica,sans-Serif" font-size="10.00">isEnabled()</text>
<text text-anchor="start" x="37.5" y="-528" font-family="Helvetica,sans-Serif" font-size="10.00">*</text>
<text text-anchor="start" x="57.5" y="-528" font-family="Helvetica,sans-Serif" font-size="10.00">moveDown()</text>
<text text-anchor="start" x="37.5" y="-513" font-family="Helvetica,sans-Serif" font-size="10.00">*</text>
<text text-anchor="start" x="57.5" y="-513" font-family="Helvetica,sans-Serif" font-size="10.00">enable()</text>
<text text-anchor="start" x="37.5" y="-498" font-family="Helvetica,sans-Serif" font-size="10.00">*</text>
<text text-anchor="start" x="57.5" y="-498" font-family="Helvetica,sans-Serif" font-size="10.00">enable()</text>
<text text-anchor="start" x="37.5" y="-483" font-family="Helvetica,sans-Serif" font-size="10.00">*</text>
<text text-anchor="start" x="57.5" y="-483" font-family="Helvetica,sans-Serif" font-size="10.00">enable()</text>
<text text-anchor="start" x="37.5" y="-468" font-family="Helvetica,sans-Serif" font-size="10.00">*</text>
<text text-anchor="start" x="57.5" y="-468" font-family="Helvetica,sans-Serif" font-size="10.00">disable()</text>
<text text-anchor="start" x="37.5" y="-453" font-family="Helvetica,sans-Serif" font-size="10.00">*</text>
<text text-anchor="start" x="57.5" y="-453" font-family="Helvetica,sans-Serif" font-size="10.00">disable()</text>
<text text-anchor="start" x="37.5" y="-438" font-family="Helvetica,sans-Serif" font-size="10.00">*</text>
<text text-anchor="start" x="57.5" y="-438" font-family="Helvetica,sans-Serif" font-size="10.00">disable()</text>
<polygon fill="#666666" stroke="#666666" points="23.5,-688 23.5,-688 169.5,-688 169.5,-688 23.5,-688"/>
<polygon fill="#666666" stroke="#666666" points="23.5,-673 23.5,-673 55.5,-673 55.5,-673 23.5,-673"/>
<polygon fill="#666666" stroke="#666666" points="55.5,-673 55.5,-673 169.5,-673 169.5,-673 55.5,-673"/>
<polygon fill="none" stroke="#666666" points="23.5,-431 23.5,-705 169.5,-705 169.5,-431 23.5,-431"/>
</a>
</g>
</g>
<!-- Node4&#45;&gt;Node3 -->
<g id="edge3_Node000003_Node000004" class="edge">
<title>Node4&#45;&gt;Node3</title>
<g id="a_edge3_Node000003_Node000004"><a xlink:title=" ">
<path fill="none" stroke="#63b8ff" d="M96.5,-420.62C96.5,-411.73 96.5,-403.22 96.5,-395.37"/>
<polygon fill="none" stroke="#63b8ff" points="93,-420.8 96.5,-430.8 100,-420.8 93,-420.8"/>
</a>
</g>
</g>
<!-- Node5 -->
<g id="Node000005" class="node">
<title>Node5</title>
<g id="a_Node000005"><a xlink:href="../../d4/d23/classDoublyLinkable.html" target="_top" xlink:title=" ">
<polygon fill="white" stroke="transparent" points="169.5,-880 23.5,-880 23.5,-741 169.5,-741 169.5,-880"/>
<text text-anchor="start" x="28.5" y="-867.5" font-family="Helvetica,sans-Serif" font-size="10.00">DoublyLinkable&lt; Derived &gt;</text>
<text text-anchor="start" x="36" y="-852.5" font-family="Helvetica,sans-Serif" font-size="10.00">#</text>
<text text-anchor="start" x="57.5" y="-852.5" font-family="Helvetica,sans-Serif" font-size="10.00">next</text>
<text text-anchor="start" x="36" y="-837.5" font-family="Helvetica,sans-Serif" font-size="10.00">#</text>
<text text-anchor="start" x="57.5" y="-837.5" font-family="Helvetica,sans-Serif" font-size="10.00">previous</text>
<text text-anchor="start" x="36" y="-822.5" font-family="Helvetica,sans-Serif" font-size="10.00">#</text>
<text text-anchor="start" x="57.5" y="-822.5" font-family="Helvetica,sans-Serif" font-size="10.00">~DoublyLinkable()</text>
<text text-anchor="start" x="36" y="-807.5" font-family="Helvetica,sans-Serif" font-size="10.00">#</text>
<text text-anchor="start" x="57.5" y="-807.5" font-family="Helvetica,sans-Serif" font-size="10.00">DoublyLinkable()</text>
<text text-anchor="start" x="36" y="-792.5" font-family="Helvetica,sans-Serif" font-size="10.00">#</text>
<text text-anchor="start" x="57.5" y="-792.5" font-family="Helvetica,sans-Serif" font-size="10.00">DoublyLinkable()</text>
<text text-anchor="start" x="36" y="-777.5" font-family="Helvetica,sans-Serif" font-size="10.00">#</text>
<text text-anchor="start" x="57.5" y="-777.5" font-family="Helvetica,sans-Serif" font-size="10.00">DoublyLinkable()</text>
<text text-anchor="start" x="36" y="-762.5" font-family="Helvetica,sans-Serif" font-size="10.00">#</text>
<text text-anchor="start" x="57.5" y="-762.5" font-family="Helvetica,sans-Serif" font-size="10.00">operator=()</text>
<text text-anchor="start" x="36" y="-747.5" font-family="Helvetica,sans-Serif" font-size="10.00">#</text>
<text text-anchor="start" x="57.5" y="-747.5" font-family="Helvetica,sans-Serif" font-size="10.00">operator=()</text>
<polygon fill="#666666" stroke="#666666" points="23.5,-862.5 23.5,-862.5 169.5,-862.5 169.5,-862.5 23.5,-862.5"/>
<polygon fill="#666666" stroke="#666666" points="23.5,-832.5 23.5,-832.5 55.5,-832.5 55.5,-832.5 23.5,-832.5"/>
<polygon fill="#666666" stroke="#666666" points="55.5,-832.5 55.5,-832.5 169.5,-832.5 169.5,-832.5 55.5,-832.5"/>
<polygon fill="none" stroke="#666666" points="23.5,-741 23.5,-880 169.5,-880 169.5,-741 23.5,-741"/>
</a>
</g>
</g>
<!-- Node5&#45;&gt;Node4 -->
<g id="edge4_Node000004_Node000005" class="edge">
<title>Node5&#45;&gt;Node4</title>
<g id="a_edge4_Node000004_Node000005"><a xlink:title=" ">
<path fill="none" stroke="#63b8ff" d="M96.5,-730.71C96.5,-722.52 96.5,-714.04 96.5,-705.45"/>
<polygon fill="none" stroke="#63b8ff" points="93,-730.9 96.5,-740.9 100,-730.9 93,-730.9"/>
</a>
</g>
</g>
</g>
</svg>
