<?xml version="1.0" encoding="UTF-8" standalone="no"?>
<!DOCTYPE svg PUBLIC "-//W3C//DTD SVG 1.1//EN"
 "http://www.w3.org/Graphics/SVG/1.1/DTD/svg11.dtd">
<!-- Generated by graphviz version 2.43.0 (0)
 -->
<!-- Title: PBPotentiometer Pages: 1 -->
<svg width="158pt" height="933pt"
 viewBox="0.00 0.00 158.00 933.00" xmlns="http://www.w3.org/2000/svg" xmlns:xlink="http://www.w3.org/1999/xlink">
<g id="graph0" class="graph" transform="scale(1 1) rotate(0) translate(4 929)">
<title>PBPotentiometer</title>
<!-- Node1 -->
<g id="Node000001" class="node">
<title>Node1</title>
<g id="a_Node000001"><a xlink:title="A class of MIDIOutputElements that read the analog input from a potentiometer or fader,...">
<polygon fill="#999999" stroke="transparent" points="131,-49 19,-49 19,0 131,0 131,-49"/>
<text text-anchor="start" x="33.5" y="-36.5" font-family="Helvetica,sans-Serif" font-size="10.00">PBPotentiometer</text>
<text text-anchor="start" x="73" y="-21.5" font-family="Helvetica,sans-Serif" font-size="10.00"> </text>
<text text-anchor="start" x="23" y="-6.5" font-family="Helvetica,sans-Serif" font-size="10.00">+</text>
<text text-anchor="start" x="36" y="-6.5" font-family="Helvetica,sans-Serif" font-size="10.00">PBPotentiometer()</text>
<polygon fill="#666666" stroke="#666666" points="19,-31.5 19,-31.5 131,-31.5 131,-31.5 19,-31.5"/>
<polygon fill="#666666" stroke="#666666" points="19,-16.5 19,-16.5 131,-16.5 131,-16.5 19,-16.5"/>
<polygon fill="none" stroke="#666666" points="19,0 19,-49 131,-49 131,0 19,0"/>
</a>
</g>
</g>
<!-- Node2 -->
<g id="Node000002" class="node">
<title>Node2</title>
<g id="a_Node000002"><a xlink:href="../../d5/d8e/classMIDIFilteredAnalog.html" target="_top" xlink:title=" ">
<polygon fill="white" stroke="transparent" points="150,-310 0,-310 0,-85 150,-85 150,-310"/>
<text text-anchor="start" x="5" y="-297.5" font-family="Helvetica,sans-Serif" font-size="10.00">MIDIFilteredAnalog</text>
<text text-anchor="start" x="5" y="-286.5" font-family="Helvetica,sans-Serif" font-size="10.00">&lt; PitchBendSender&lt; 10 &gt; &gt;</text>
<text text-anchor="start" x="11" y="-271.5" font-family="Helvetica,sans-Serif" font-size="10.00">+</text>
<text text-anchor="start" x="31" y="-271.5" font-family="Helvetica,sans-Serif" font-size="10.00">sender</text>
<text text-anchor="start" x="13.5" y="-256.5" font-family="Helvetica,sans-Serif" font-size="10.00">&#45;</text>
<text text-anchor="start" x="31" y="-256.5" font-family="Helvetica,sans-Serif" font-size="10.00">filteredAnalog</text>
<text text-anchor="start" x="13.5" y="-241.5" font-family="Helvetica,sans-Serif" font-size="10.00">&#45;</text>
<text text-anchor="start" x="31" y="-241.5" font-family="Helvetica,sans-Serif" font-size="10.00">address</text>
<text text-anchor="start" x="11" y="-226.5" font-family="Helvetica,sans-Serif" font-size="10.00">+</text>
<text text-anchor="start" x="31" y="-226.5" font-family="Helvetica,sans-Serif" font-size="10.00">begin()</text>
<text text-anchor="start" x="11" y="-211.5" font-family="Helvetica,sans-Serif" font-size="10.00">+</text>
<text text-anchor="start" x="31" y="-211.5" font-family="Helvetica,sans-Serif" font-size="10.00">update()</text>
<text text-anchor="start" x="11" y="-196.5" font-family="Helvetica,sans-Serif" font-size="10.00">+</text>
<text text-anchor="start" x="31" y="-196.5" font-family="Helvetica,sans-Serif" font-size="10.00">forcedUpdate()</text>
<text text-anchor="start" x="11" y="-181.5" font-family="Helvetica,sans-Serif" font-size="10.00">+</text>
<text text-anchor="start" x="31" y="-181.5" font-family="Helvetica,sans-Serif" font-size="10.00">map()</text>
<text text-anchor="start" x="11" y="-166.5" font-family="Helvetica,sans-Serif" font-size="10.00">+</text>
<text text-anchor="start" x="31" y="-166.5" font-family="Helvetica,sans-Serif" font-size="10.00">invert()</text>
<text text-anchor="start" x="11" y="-151.5" font-family="Helvetica,sans-Serif" font-size="10.00">+</text>
<text text-anchor="start" x="31" y="-151.5" font-family="Helvetica,sans-Serif" font-size="10.00">getRawValue()</text>
<text text-anchor="start" x="11" y="-136.5" font-family="Helvetica,sans-Serif" font-size="10.00">+</text>
<text text-anchor="start" x="31" y="-136.5" font-family="Helvetica,sans-Serif" font-size="10.00">getValue()</text>
<text text-anchor="start" x="11" y="-121.5" font-family="Helvetica,sans-Serif" font-size="10.00">+</text>
<text text-anchor="start" x="31" y="-121.5" font-family="Helvetica,sans-Serif" font-size="10.00">getAddress()</text>
<text text-anchor="start" x="11" y="-106.5" font-family="Helvetica,sans-Serif" font-size="10.00">+</text>
<text text-anchor="start" x="31" y="-106.5" font-family="Helvetica,sans-Serif" font-size="10.00">setAddress()</text>
<text text-anchor="start" x="11" y="-91.5" font-family="Helvetica,sans-Serif" font-size="10.00">#</text>
<text text-anchor="start" x="31" y="-91.5" font-family="Helvetica,sans-Serif" font-size="10.00">MIDIFilteredAnalog()</text>
<polygon fill="#666666" stroke="#666666" points="0,-281.5 0,-281.5 150,-281.5 150,-281.5 0,-281.5"/>
<polygon fill="#666666" stroke="#666666" points="0,-236.5 0,-236.5 29,-236.5 29,-236.5 0,-236.5"/>
<polygon fill="#666666" stroke="#666666" points="29,-236.5 29,-236.5 150,-236.5 150,-236.5 29,-236.5"/>
<polygon fill="none" stroke="#666666" points="0,-85 0,-310 150,-310 150,-85 0,-85"/>
</a>
</g>
</g>
<!-- Node2&#45;&gt;Node1 -->
<g id="edge1_Node000001_Node000002" class="edge">
<title>Node2&#45;&gt;Node1</title>
<g id="a_edge1_Node000001_Node000002"><a xlink:title=" ">
<path fill="none" stroke="#63b8ff" d="M75,-74.75C75,-65.3 75,-56.58 75,-49.18"/>
<polygon fill="none" stroke="#63b8ff" points="71.5,-74.83 75,-84.83 78.5,-74.83 71.5,-74.83"/>
</a>
</g>
</g>
<!-- Node3 -->
<g id="Node000003" class="node">
<title>Node3</title>
<g id="a_Node000003"><a xlink:href="../../d1/d55/classAH_1_1Updatable.html" target="_top" xlink:title="A super class for object that have to be updated regularly.">
<polygon fill="white" stroke="transparent" points="128.5,-440 21.5,-440 21.5,-346 128.5,-346 128.5,-440"/>
<text text-anchor="start" x="27" y="-428" font-family="Helvetica,sans-Serif" font-size="10.00">MIDIOutputElement</text>
<text text-anchor="start" x="73.5" y="-413" font-family="Helvetica,sans-Serif" font-size="10.00"> </text>
<text text-anchor="start" x="34.5" y="-398" font-family="Helvetica,sans-Serif" font-size="10.00">*</text>
<text text-anchor="start" x="53" y="-398" font-family="Helvetica,sans-Serif" font-size="10.00">begin()</text>
<text text-anchor="start" x="34.5" y="-383" font-family="Helvetica,sans-Serif" font-size="10.00">*</text>
<text text-anchor="start" x="53" y="-383" font-family="Helvetica,sans-Serif" font-size="10.00">update()</text>
<text text-anchor="start" x="34.5" y="-368" font-family="Helvetica,sans-Serif" font-size="10.00">*</text>
<text text-anchor="start" x="53" y="-368" font-family="Helvetica,sans-Serif" font-size="10.00">beginAll()</text>
<text text-anchor="start" x="34.5" y="-353" font-family="Helvetica,sans-Serif" font-size="10.00">*</text>
<text text-anchor="start" x="53" y="-353" font-family="Helvetica,sans-Serif" font-size="10.00">updateAll()</text>
<polygon fill="#666666" stroke="#666666" points="22,-423 22,-423 129,-423 129,-423 22,-423"/>
<polygon fill="#666666" stroke="#666666" points="22,-408 22,-408 129,-408 129,-408 22,-408"/>
<polygon fill="none" stroke="#666666" points="21.5,-346 21.5,-440 128.5,-440 128.5,-346 21.5,-346"/>
</a>
</g>
</g>
<!-- Node3&#45;&gt;Node2 -->
<g id="edge2_Node000002_Node000003" class="edge">
<title>Node3&#45;&gt;Node2</title>
<g id="a_edge2_Node000002_Node000003"><a xlink:title=" ">
<path fill="none" stroke="#63b8ff" d="M75,-335.6C75,-327.45 75,-318.83 75,-310.05"/>
<polygon fill="none" stroke="#63b8ff" points="71.5,-335.65 75,-345.65 78.5,-335.65 71.5,-335.65"/>
</a>
</g>
</g>
<!-- Node4 -->
<g id="Node000004" class="node">
<title>Node4</title>
<g id="a_Node000004"><a xlink:href="../../d8/d1a/classAH_1_1UpdatableCRTP.html" target="_top" xlink:title="A super class for object that have to be updated regularly.">
<polygon fill="white" stroke="transparent" points="148,-750 2,-750 2,-476 148,-476 148,-750"/>
<text text-anchor="start" x="7" y="-738" font-family="Helvetica,sans-Serif" font-size="10.00">UpdatableCRTP&lt; Derived &gt;</text>
<text text-anchor="start" x="14.5" y="-723" font-family="Helvetica,sans-Serif" font-size="10.00">#</text>
<text text-anchor="start" x="36" y="-723" font-family="Helvetica,sans-Serif" font-size="10.00">updatables</text>
<text text-anchor="start" x="14.5" y="-708" font-family="Helvetica,sans-Serif" font-size="10.00">+</text>
<text text-anchor="start" x="36" y="-708" font-family="Helvetica,sans-Serif" font-size="10.00">~UpdatableCRTP()</text>
<text text-anchor="start" x="14.5" y="-693" font-family="Helvetica,sans-Serif" font-size="10.00">#</text>
<text text-anchor="start" x="36" y="-693" font-family="Helvetica,sans-Serif" font-size="10.00">UpdatableCRTP()</text>
<text text-anchor="start" x="14.5" y="-678" font-family="Helvetica,sans-Serif" font-size="10.00">#</text>
<text text-anchor="start" x="36" y="-678" font-family="Helvetica,sans-Serif" font-size="10.00">UpdatableCRTP()</text>
<text text-anchor="start" x="14.5" y="-663" font-family="Helvetica,sans-Serif" font-size="10.00">#</text>
<text text-anchor="start" x="36" y="-663" font-family="Helvetica,sans-Serif" font-size="10.00">operator=()</text>
<text text-anchor="start" x="14.5" y="-648" font-family="Helvetica,sans-Serif" font-size="10.00">#</text>
<text text-anchor="start" x="36" y="-648" font-family="Helvetica,sans-Serif" font-size="10.00">UpdatableCRTP()</text>
<text text-anchor="start" x="14.5" y="-633" font-family="Helvetica,sans-Serif" font-size="10.00">#</text>
<text text-anchor="start" x="36" y="-633" font-family="Helvetica,sans-Serif" font-size="10.00">operator=()</text>
<text text-anchor="start" x="16" y="-618" font-family="Helvetica,sans-Serif" font-size="10.00">*</text>
<text text-anchor="start" x="36" y="-618" font-family="Helvetica,sans-Serif" font-size="10.00">enable()</text>
<text text-anchor="start" x="16" y="-603" font-family="Helvetica,sans-Serif" font-size="10.00">*</text>
<text text-anchor="start" x="36" y="-603" font-family="Helvetica,sans-Serif" font-size="10.00">disable()</text>
<text text-anchor="start" x="16" y="-588" font-family="Helvetica,sans-Serif" font-size="10.00">*</text>
<text text-anchor="start" x="36" y="-588" font-family="Helvetica,sans-Serif" font-size="10.00">isEnabled()</text>
<text text-anchor="start" x="16" y="-573" font-family="Helvetica,sans-Serif" font-size="10.00">*</text>
<text text-anchor="start" x="36" y="-573" font-family="Helvetica,sans-Serif" font-size="10.00">moveDown()</text>
<text text-anchor="start" x="16" y="-558" font-family="Helvetica,sans-Serif" font-size="10.00">*</text>
<text text-anchor="start" x="36" y="-558" font-family="Helvetica,sans-Serif" font-size="10.00">enable()</text>
<text text-anchor="start" x="16" y="-543" font-family="Helvetica,sans-Serif" font-size="10.00">*</text>
<text text-anchor="start" x="36" y="-543" font-family="Helvetica,sans-Serif" font-size="10.00">enable()</text>
<text text-anchor="start" x="16" y="-528" font-family="Helvetica,sans-Serif" font-size="10.00">*</text>
<text text-anchor="start" x="36" y="-528" font-family="Helvetica,sans-Serif" font-size="10.00">enable()</text>
<text text-anchor="start" x="16" y="-513" font-family="Helvetica,sans-Serif" font-size="10.00">*</text>
<text text-anchor="start" x="36" y="-513" font-family="Helvetica,sans-Serif" font-size="10.00">disable()</text>
<text text-anchor="start" x="16" y="-498" font-family="Helvetica,sans-Serif" font-size="10.00">*</text>
<text text-anchor="start" x="36" y="-498" font-family="Helvetica,sans-Serif" font-size="10.00">disable()</text>
<text text-anchor="start" x="16" y="-483" font-family="Helvetica,sans-Serif" font-size="10.00">*</text>
<text text-anchor="start" x="36" y="-483" font-family="Helvetica,sans-Serif" font-size="10.00">disable()</text>
<polygon fill="#666666" stroke="#666666" points="2,-733 2,-733 148,-733 148,-733 2,-733"/>
<polygon fill="#666666" stroke="#666666" points="2,-718 2,-718 34,-718 34,-718 2,-718"/>
<polygon fill="#666666" stroke="#666666" points="34,-718 34,-718 148,-718 148,-718 34,-718"/>
<polygon fill="none" stroke="#666666" points="2,-476 2,-750 148,-750 148,-476 2,-476"/>
</a>
</g>
</g>
<!-- Node4&#45;&gt;Node3 -->
<g id="edge3_Node000003_Node000004" class="edge">
<title>Node4&#45;&gt;Node3</title>
<g id="a_edge3_Node000003_Node000004"><a xlink:title=" ">
<path fill="none" stroke="#63b8ff" d="M75,-465.62C75,-456.73 75,-448.22 75,-440.37"/>
<polygon fill="none" stroke="#63b8ff" points="71.5,-465.8 75,-475.8 78.5,-465.8 71.5,-465.8"/>
</a>
</g>
</g>
<!-- Node5 -->
<g id="Node000005" class="node">
<title>Node5</title>
<g id="a_Node000005"><a xlink:href="../../d4/d23/classDoublyLinkable.html" target="_top" xlink:title=" ">
<polygon fill="white" stroke="transparent" points="148,-925 2,-925 2,-786 148,-786 148,-925"/>
<text text-anchor="start" x="7" y="-912.5" font-family="Helvetica,sans-Serif" font-size="10.00">DoublyLinkable&lt; Derived &gt;</text>
<text text-anchor="start" x="14.5" y="-897.5" font-family="Helvetica,sans-Serif" font-size="10.00">#</text>
<text text-anchor="start" x="36" y="-897.5" font-family="Helvetica,sans-Serif" font-size="10.00">next</text>
<text text-anchor="start" x="14.5" y="-882.5" font-family="Helvetica,sans-Serif" font-size="10.00">#</text>
<text text-anchor="start" x="36" y="-882.5" font-family="Helvetica,sans-Serif" font-size="10.00">previous</text>
<text text-anchor="start" x="14.5" y="-867.5" font-family="Helvetica,sans-Serif" font-size="10.00">#</text>
<text text-anchor="start" x="36" y="-867.5" font-family="Helvetica,sans-Serif" font-size="10.00">~DoublyLinkable()</text>
<text text-anchor="start" x="14.5" y="-852.5" font-family="Helvetica,sans-Serif" font-size="10.00">#</text>
<text text-anchor="start" x="36" y="-852.5" font-family="Helvetica,sans-Serif" font-size="10.00">DoublyLinkable()</text>
<text text-anchor="start" x="14.5" y="-837.5" font-family="Helvetica,sans-Serif" font-size="10.00">#</text>
<text text-anchor="start" x="36" y="-837.5" font-family="Helvetica,sans-Serif" font-size="10.00">DoublyLinkable()</text>
<text text-anchor="start" x="14.5" y="-822.5" font-family="Helvetica,sans-Serif" font-size="10.00">#</text>
<text text-anchor="start" x="36" y="-822.5" font-family="Helvetica,sans-Serif" font-size="10.00">DoublyLinkable()</text>
<text text-anchor="start" x="14.5" y="-807.5" font-family="Helvetica,sans-Serif" font-size="10.00">#</text>
<text text-anchor="start" x="36" y="-807.5" font-family="Helvetica,sans-Serif" font-size="10.00">operator=()</text>
<text text-anchor="start" x="14.5" y="-792.5" font-family="Helvetica,sans-Serif" font-size="10.00">#</text>
<text text-anchor="start" x="36" y="-792.5" font-family="Helvetica,sans-Serif" font-size="10.00">operator=()</text>
<polygon fill="#666666" stroke="#666666" points="2,-907.5 2,-907.5 148,-907.5 148,-907.5 2,-907.5"/>
<polygon fill="#666666" stroke="#666666" points="2,-877.5 2,-877.5 34,-877.5 34,-877.5 2,-877.5"/>
<polygon fill="#666666" stroke="#666666" points="34,-877.5 34,-877.5 148,-877.5 148,-877.5 34,-877.5"/>
<polygon fill="none" stroke="#666666" points="2,-786 2,-925 148,-925 148,-786 2,-786"/>
</a>
</g>
</g>
<!-- Node5&#45;&gt;Node4 -->
<g id="edge4_Node000004_Node000005" class="edge">
<title>Node5&#45;&gt;Node4</title>
<g id="a_edge4_Node000004_Node000005"><a xlink:title=" ">
<path fill="none" stroke="#63b8ff" d="M75,-775.71C75,-767.52 75,-759.04 75,-750.45"/>
<polygon fill="none" stroke="#63b8ff" points="71.5,-775.9 75,-785.9 78.5,-775.9 71.5,-775.9"/>
</a>
</g>
</g>
</g>
</svg>
