<?xml version="1.0" encoding="UTF-8" standalone="no"?>
<!DOCTYPE svg PUBLIC "-//W3C//DTD SVG 1.1//EN"
 "http://www.w3.org/Graphics/SVG/1.1/DTD/svg11.dtd">
<!-- Generated by graphviz version 2.43.0 (0)
 -->
<!-- Title: NoteCCKPRange&lt; Type, BankSize, RangeLen &gt; Pages: 1 -->
<svg width="613pt" height="2083pt"
 viewBox="0.00 0.00 613.00 2083.00" xmlns="http://www.w3.org/2000/svg" xmlns:xlink="http://www.w3.org/1999/xlink">
<g id="graph0" class="graph" transform="scale(1 1) rotate(0) translate(4 2079)">
<title>NoteCCKPRange&lt; Type, BankSize, RangeLen &gt;</title>
<!-- Node1 -->
<g id="Node000001" class="node">
<title>Node1</title>
<g id="a_Node000001"><a xlink:title="Generic base class for classes that listen for MIDI Note, Control Change and Key Pressure events on a...">
<polygon fill="#999999" stroke="transparent" points="429.5,-180 292.5,-180 292.5,0 429.5,0 429.5,-180"/>
<text text-anchor="start" x="302.5" y="-168" font-family="Helvetica,sans-Serif" font-size="10.00">NoteCCKPRange&lt; Type,</text>
<text text-anchor="start" x="304.5" y="-157" font-family="Helvetica,sans-Serif" font-size="10.00"> BankSize, RangeLen &gt;</text>
<text text-anchor="start" x="297" y="-142" font-family="Helvetica,sans-Serif" font-size="10.00">#</text>
<text text-anchor="start" x="310" y="-142" font-family="Helvetica,sans-Serif" font-size="10.00">dirty</text>
<text text-anchor="start" x="297" y="-127" font-family="Helvetica,sans-Serif" font-size="10.00">+</text>
<text text-anchor="start" x="310" y="-127" font-family="Helvetica,sans-Serif" font-size="10.00">NoteCCKPRange()</text>
<text text-anchor="start" x="297" y="-112" font-family="Helvetica,sans-Serif" font-size="10.00">+</text>
<text text-anchor="start" x="310" y="-112" font-family="Helvetica,sans-Serif" font-size="10.00">reset()</text>
<text text-anchor="start" x="297" y="-97" font-family="Helvetica,sans-Serif" font-size="10.00">#</text>
<text text-anchor="start" x="310" y="-97" font-family="Helvetica,sans-Serif" font-size="10.00">handleUpdateImpl()</text>
<text text-anchor="start" x="297" y="-82" font-family="Helvetica,sans-Serif" font-size="10.00">#</text>
<text text-anchor="start" x="310" y="-82" font-family="Helvetica,sans-Serif" font-size="10.00">handleUpdate()</text>
<text text-anchor="start" x="297" y="-67" font-family="Helvetica,sans-Serif" font-size="10.00">#</text>
<text text-anchor="start" x="310" y="-67" font-family="Helvetica,sans-Serif" font-size="10.00">onBankSettingChange()</text>
<text text-anchor="start" x="298.5" y="-52" font-family="Helvetica,sans-Serif" font-size="10.00">*</text>
<text text-anchor="start" x="310" y="-52" font-family="Helvetica,sans-Serif" font-size="10.00">getValue()</text>
<text text-anchor="start" x="298.5" y="-37" font-family="Helvetica,sans-Serif" font-size="10.00">*</text>
<text text-anchor="start" x="310" y="-37" font-family="Helvetica,sans-Serif" font-size="10.00">getValue()</text>
<text text-anchor="start" x="298.5" y="-22" font-family="Helvetica,sans-Serif" font-size="10.00">*</text>
<text text-anchor="start" x="310" y="-22" font-family="Helvetica,sans-Serif" font-size="10.00">getDirty()</text>
<text text-anchor="start" x="298.5" y="-7" font-family="Helvetica,sans-Serif" font-size="10.00">*</text>
<text text-anchor="start" x="310" y="-7" font-family="Helvetica,sans-Serif" font-size="10.00">clearDirty()</text>
<polygon fill="#666666" stroke="#666666" points="293,-152 293,-152 430,-152 430,-152 293,-152"/>
<polygon fill="#666666" stroke="#666666" points="293,-137 293,-137 308,-137 308,-137 293,-137"/>
<polygon fill="#666666" stroke="#666666" points="308,-137 308,-137 430,-137 430,-137 308,-137"/>
<polygon fill="none" stroke="#666666" points="292.5,0 292.5,-180 429.5,-180 429.5,0 292.5,0"/>
</a>
</g>
</g>
<!-- Node2 -->
<g id="Node000002" class="node">
<title>Node2</title>
<g id="a_Node000002"><a xlink:href="../../d9/dc0/classBankableMatchingMIDIInputElement.html" target="_top" xlink:title=" ">
<polygon fill="white" stroke="transparent" points="277,-528.5 95,-528.5 95,-405.5 277,-405.5 277,-528.5"/>
<text text-anchor="start" x="100" y="-516" font-family="Helvetica,sans-Serif" font-size="10.00">BankableMatchingMIDIInput</text>
<text text-anchor="start" x="100" y="-505" font-family="Helvetica,sans-Serif" font-size="10.00">Element&lt; Type, BankableTwoByte</text>
<text text-anchor="start" x="100" y="-494" font-family="Helvetica,sans-Serif" font-size="10.00">RangeMIDIMatcher&lt; BankSize &gt; &gt;</text>
<text text-anchor="start" x="184" y="-479" font-family="Helvetica,sans-Serif" font-size="10.00"> </text>
<text text-anchor="start" x="102.5" y="-464" font-family="Helvetica,sans-Serif" font-size="10.00">+</text>
<text text-anchor="start" x="119" y="-464" font-family="Helvetica,sans-Serif" font-size="10.00">~BankableMatchingMIDIInput</text>
<text text-anchor="start" x="119" y="-453" font-family="Helvetica,sans-Serif" font-size="10.00">Element()</text>
<text text-anchor="start" x="102.5" y="-438" font-family="Helvetica,sans-Serif" font-size="10.00">#</text>
<text text-anchor="start" x="119" y="-438" font-family="Helvetica,sans-Serif" font-size="10.00">BankableMatchingMIDIInput</text>
<text text-anchor="start" x="119" y="-427" font-family="Helvetica,sans-Serif" font-size="10.00">Element()</text>
<text text-anchor="start" x="102.5" y="-412" font-family="Helvetica,sans-Serif" font-size="10.00">#</text>
<text text-anchor="start" x="119" y="-412" font-family="Helvetica,sans-Serif" font-size="10.00">getActiveBank()</text>
<polygon fill="#666666" stroke="#666666" points="95,-489 95,-489 277,-489 277,-489 95,-489"/>
<polygon fill="#666666" stroke="#666666" points="95,-474 95,-474 277,-474 277,-474 95,-474"/>
<polygon fill="none" stroke="#666666" points="95,-405.5 95,-528.5 277,-528.5 277,-405.5 95,-405.5"/>
</a>
</g>
</g>
<!-- Node2&#45;&gt;Node1 -->
<g id="edge1_Node000001_Node000002" class="edge">
<title>Node2&#45;&gt;Node1</title>
<g id="a_edge1_Node000001_Node000002"><a xlink:title=" ">
<path fill="none" stroke="#63b8ff" d="M213.02,-395.9C232.12,-347.8 259.03,-282.81 286,-227 293.39,-211.71 301.69,-195.7 309.99,-180.26"/>
<polygon fill="none" stroke="#63b8ff" points="209.73,-394.7 209.3,-405.29 216.24,-397.28 209.73,-394.7"/>
</a>
</g>
</g>
<!-- Node3 -->
<g id="Node000003" class="node">
<title>Node3</title>
<g id="a_Node000003"><a xlink:href="../../d5/dae/classMatchingMIDIInputElement.html" target="_top" xlink:title="The MIDIInputElement base class is very general: you give it a MIDI message, and it calls the updateW...">
<polygon fill="white" stroke="transparent" points="228,-855 66,-855 66,-765 228,-765 228,-855"/>
<text text-anchor="start" x="80.5" y="-843" font-family="Helvetica,sans-Serif" font-size="10.00">MatchingMIDIInputElement</text>
<text text-anchor="start" x="101.5" y="-832" font-family="Helvetica,sans-Serif" font-size="10.00">&lt; Type, Matcher &gt;</text>
<text text-anchor="start" x="70" y="-817" font-family="Helvetica,sans-Serif" font-size="10.00">#</text>
<text text-anchor="start" x="83" y="-817" font-family="Helvetica,sans-Serif" font-size="10.00">matcher</text>
<text text-anchor="start" x="70" y="-802" font-family="Helvetica,sans-Serif" font-size="10.00">+</text>
<text text-anchor="start" x="83" y="-802" font-family="Helvetica,sans-Serif" font-size="10.00">updateWith()</text>
<text text-anchor="start" x="70" y="-787" font-family="Helvetica,sans-Serif" font-size="10.00">+</text>
<text text-anchor="start" x="83" y="-787" font-family="Helvetica,sans-Serif" font-size="10.00">handleUpdate()</text>
<text text-anchor="start" x="70" y="-772" font-family="Helvetica,sans-Serif" font-size="10.00">#</text>
<text text-anchor="start" x="83" y="-772" font-family="Helvetica,sans-Serif" font-size="10.00">MatchingMIDIInputElement()</text>
<polygon fill="#666666" stroke="#666666" points="66,-827 66,-827 228,-827 228,-827 66,-827"/>
<polygon fill="#666666" stroke="#666666" points="66,-812 66,-812 81,-812 81,-812 66,-812"/>
<polygon fill="#666666" stroke="#666666" points="81,-812 81,-812 228,-812 228,-812 81,-812"/>
<polygon fill="none" stroke="#666666" points="66,-765 66,-855 228,-855 228,-765 66,-765"/>
</a>
</g>
</g>
<!-- Node3&#45;&gt;Node2 -->
<g id="edge2_Node000002_Node000003" class="edge">
<title>Node3&#45;&gt;Node2</title>
<g id="a_edge2_Node000002_Node000003"><a xlink:title=" ">
<path fill="none" stroke="#63b8ff" d="M153.24,-754.46C160.29,-692.78 171.75,-592.6 179.08,-528.54"/>
<polygon fill="none" stroke="#63b8ff" points="149.72,-754.44 152.06,-764.77 156.67,-755.23 149.72,-754.44"/>
</a>
</g>
</g>
<!-- Node4 -->
<g id="Node000004" class="node">
<title>Node4</title>
<g id="a_Node000004"><a xlink:href="../../d9/db1/classMIDIInputElement.html" target="_top" xlink:title="A class for objects that listen for incoming MIDI events.">
<polygon fill="white" stroke="transparent" points="218.5,-1076 75.5,-1076 75.5,-892 218.5,-892 218.5,-1076"/>
<text text-anchor="start" x="81" y="-1064" font-family="Helvetica,sans-Serif" font-size="10.00">MIDIInputElement&lt; Type &gt;</text>
<text text-anchor="start" x="145.5" y="-1049" font-family="Helvetica,sans-Serif" font-size="10.00"> </text>
<text text-anchor="start" x="84.5" y="-1034" font-family="Helvetica,sans-Serif" font-size="10.00">+</text>
<text text-anchor="start" x="102" y="-1034" font-family="Helvetica,sans-Serif" font-size="10.00">~MIDIInputElement()</text>
<text text-anchor="start" x="84.5" y="-1019" font-family="Helvetica,sans-Serif" font-size="10.00">+</text>
<text text-anchor="start" x="102" y="-1019" font-family="Helvetica,sans-Serif" font-size="10.00">begin()</text>
<text text-anchor="start" x="84.5" y="-1004" font-family="Helvetica,sans-Serif" font-size="10.00">+</text>
<text text-anchor="start" x="102" y="-1004" font-family="Helvetica,sans-Serif" font-size="10.00">reset()</text>
<text text-anchor="start" x="84.5" y="-989" font-family="Helvetica,sans-Serif" font-size="10.00">+</text>
<text text-anchor="start" x="102" y="-989" font-family="Helvetica,sans-Serif" font-size="10.00">update()</text>
<text text-anchor="start" x="84.5" y="-974" font-family="Helvetica,sans-Serif" font-size="10.00">+</text>
<text text-anchor="start" x="102" y="-974" font-family="Helvetica,sans-Serif" font-size="10.00">updateWith()</text>
<text text-anchor="start" x="84.5" y="-959" font-family="Helvetica,sans-Serif" font-size="10.00">+</text>
<text text-anchor="start" x="102" y="-959" font-family="Helvetica,sans-Serif" font-size="10.00">updateAllWith()</text>
<text text-anchor="start" x="84.5" y="-944" font-family="Helvetica,sans-Serif" font-size="10.00">+</text>
<text text-anchor="start" x="102" y="-944" font-family="Helvetica,sans-Serif" font-size="10.00">updateAll()</text>
<text text-anchor="start" x="84.5" y="-929" font-family="Helvetica,sans-Serif" font-size="10.00">+</text>
<text text-anchor="start" x="102" y="-929" font-family="Helvetica,sans-Serif" font-size="10.00">beginAll()</text>
<text text-anchor="start" x="84.5" y="-914" font-family="Helvetica,sans-Serif" font-size="10.00">+</text>
<text text-anchor="start" x="102" y="-914" font-family="Helvetica,sans-Serif" font-size="10.00">resetAll()</text>
<text text-anchor="start" x="84.5" y="-899" font-family="Helvetica,sans-Serif" font-size="10.00">#</text>
<text text-anchor="start" x="102" y="-899" font-family="Helvetica,sans-Serif" font-size="10.00">MIDIInputElement()</text>
<polygon fill="#666666" stroke="#666666" points="76,-1059 76,-1059 219,-1059 219,-1059 76,-1059"/>
<polygon fill="#666666" stroke="#666666" points="76,-1044 76,-1044 219,-1044 219,-1044 76,-1044"/>
<polygon fill="none" stroke="#666666" points="75.5,-892 75.5,-1076 218.5,-1076 218.5,-892 75.5,-892"/>
</a>
</g>
</g>
<!-- Node4&#45;&gt;Node3 -->
<g id="edge3_Node000003_Node000004" class="edge">
<title>Node4&#45;&gt;Node3</title>
<g id="a_edge3_Node000003_Node000004"><a xlink:title=" ">
<path fill="none" stroke="#63b8ff" d="M147,-881.87C147,-872.64 147,-863.64 147,-855.33"/>
<polygon fill="none" stroke="#63b8ff" points="143.5,-881.96 147,-891.96 150.5,-881.96 143.5,-881.96"/>
</a>
</g>
</g>
<!-- Node5 -->
<g id="Node000005" class="node">
<title>Node5</title>
<g id="a_Node000005"><a xlink:href="../../d8/d1a/classAH_1_1UpdatableCRTP.html" target="_top" xlink:title=" ">
<polygon fill="white" stroke="transparent" points="219,-1638 75,-1638 75,-1113 219,-1113 219,-1638"/>
<text text-anchor="start" x="80" y="-1625.5" font-family="Helvetica,sans-Serif" font-size="10.00">UpdatableCRTP&lt; MIDIInput</text>
<text text-anchor="start" x="98.5" y="-1614.5" font-family="Helvetica,sans-Serif" font-size="10.00">Element&lt; Type &gt; &gt;</text>
<text text-anchor="start" x="145" y="-1599.5" font-family="Helvetica,sans-Serif" font-size="10.00"> </text>
<text text-anchor="start" x="87" y="-1584.5" font-family="Helvetica,sans-Serif" font-size="10.00">+</text>
<text text-anchor="start" x="108" y="-1584.5" font-family="Helvetica,sans-Serif" font-size="10.00">~UpdatableCRTP()</text>
<text text-anchor="start" x="87" y="-1569.5" font-family="Helvetica,sans-Serif" font-size="10.00">+</text>
<text text-anchor="start" x="108" y="-1569.5" font-family="Helvetica,sans-Serif" font-size="10.00">~UpdatableCRTP()</text>
<text text-anchor="start" x="87" y="-1554.5" font-family="Helvetica,sans-Serif" font-size="10.00">#</text>
<text text-anchor="start" x="108" y="-1554.5" font-family="Helvetica,sans-Serif" font-size="10.00">UpdatableCRTP()</text>
<text text-anchor="start" x="87" y="-1539.5" font-family="Helvetica,sans-Serif" font-size="10.00">#</text>
<text text-anchor="start" x="108" y="-1539.5" font-family="Helvetica,sans-Serif" font-size="10.00">UpdatableCRTP()</text>
<text text-anchor="start" x="87" y="-1524.5" font-family="Helvetica,sans-Serif" font-size="10.00">#</text>
<text text-anchor="start" x="108" y="-1524.5" font-family="Helvetica,sans-Serif" font-size="10.00">UpdatableCRTP()</text>
<text text-anchor="start" x="87" y="-1509.5" font-family="Helvetica,sans-Serif" font-size="10.00">#</text>
<text text-anchor="start" x="108" y="-1509.5" font-family="Helvetica,sans-Serif" font-size="10.00">operator=()</text>
<text text-anchor="start" x="87" y="-1494.5" font-family="Helvetica,sans-Serif" font-size="10.00">#</text>
<text text-anchor="start" x="108" y="-1494.5" font-family="Helvetica,sans-Serif" font-size="10.00">operator=()</text>
<text text-anchor="start" x="87" y="-1479.5" font-family="Helvetica,sans-Serif" font-size="10.00">#</text>
<text text-anchor="start" x="108" y="-1479.5" font-family="Helvetica,sans-Serif" font-size="10.00">UpdatableCRTP()</text>
<text text-anchor="start" x="87" y="-1464.5" font-family="Helvetica,sans-Serif" font-size="10.00">#</text>
<text text-anchor="start" x="108" y="-1464.5" font-family="Helvetica,sans-Serif" font-size="10.00">UpdatableCRTP()</text>
<text text-anchor="start" x="87" y="-1449.5" font-family="Helvetica,sans-Serif" font-size="10.00">#</text>
<text text-anchor="start" x="108" y="-1449.5" font-family="Helvetica,sans-Serif" font-size="10.00">UpdatableCRTP()</text>
<text text-anchor="start" x="87" y="-1434.5" font-family="Helvetica,sans-Serif" font-size="10.00">#</text>
<text text-anchor="start" x="108" y="-1434.5" font-family="Helvetica,sans-Serif" font-size="10.00">operator=()</text>
<text text-anchor="start" x="87" y="-1419.5" font-family="Helvetica,sans-Serif" font-size="10.00">#</text>
<text text-anchor="start" x="108" y="-1419.5" font-family="Helvetica,sans-Serif" font-size="10.00">operator=()</text>
<text text-anchor="start" x="88.5" y="-1404.5" font-family="Helvetica,sans-Serif" font-size="10.00">*</text>
<text text-anchor="start" x="108" y="-1404.5" font-family="Helvetica,sans-Serif" font-size="10.00">enable()</text>
<text text-anchor="start" x="88.5" y="-1389.5" font-family="Helvetica,sans-Serif" font-size="10.00">*</text>
<text text-anchor="start" x="108" y="-1389.5" font-family="Helvetica,sans-Serif" font-size="10.00">disable()</text>
<text text-anchor="start" x="88.5" y="-1374.5" font-family="Helvetica,sans-Serif" font-size="10.00">*</text>
<text text-anchor="start" x="108" y="-1374.5" font-family="Helvetica,sans-Serif" font-size="10.00">isEnabled()</text>
<text text-anchor="start" x="88.5" y="-1359.5" font-family="Helvetica,sans-Serif" font-size="10.00">*</text>
<text text-anchor="start" x="108" y="-1359.5" font-family="Helvetica,sans-Serif" font-size="10.00">moveDown()</text>
<text text-anchor="start" x="88.5" y="-1344.5" font-family="Helvetica,sans-Serif" font-size="10.00">*</text>
<text text-anchor="start" x="108" y="-1344.5" font-family="Helvetica,sans-Serif" font-size="10.00">enable()</text>
<text text-anchor="start" x="88.5" y="-1329.5" font-family="Helvetica,sans-Serif" font-size="10.00">*</text>
<text text-anchor="start" x="108" y="-1329.5" font-family="Helvetica,sans-Serif" font-size="10.00">disable()</text>
<text text-anchor="start" x="88.5" y="-1314.5" font-family="Helvetica,sans-Serif" font-size="10.00">*</text>
<text text-anchor="start" x="108" y="-1314.5" font-family="Helvetica,sans-Serif" font-size="10.00">isEnabled()</text>
<text text-anchor="start" x="88.5" y="-1299.5" font-family="Helvetica,sans-Serif" font-size="10.00">*</text>
<text text-anchor="start" x="108" y="-1299.5" font-family="Helvetica,sans-Serif" font-size="10.00">moveDown()</text>
<text text-anchor="start" x="88.5" y="-1284.5" font-family="Helvetica,sans-Serif" font-size="10.00">*</text>
<text text-anchor="start" x="108" y="-1284.5" font-family="Helvetica,sans-Serif" font-size="10.00">enable()</text>
<text text-anchor="start" x="88.5" y="-1269.5" font-family="Helvetica,sans-Serif" font-size="10.00">*</text>
<text text-anchor="start" x="108" y="-1269.5" font-family="Helvetica,sans-Serif" font-size="10.00">enable()</text>
<text text-anchor="start" x="88.5" y="-1254.5" font-family="Helvetica,sans-Serif" font-size="10.00">*</text>
<text text-anchor="start" x="108" y="-1254.5" font-family="Helvetica,sans-Serif" font-size="10.00">enable()</text>
<text text-anchor="start" x="88.5" y="-1239.5" font-family="Helvetica,sans-Serif" font-size="10.00">*</text>
<text text-anchor="start" x="108" y="-1239.5" font-family="Helvetica,sans-Serif" font-size="10.00">disable()</text>
<text text-anchor="start" x="88.5" y="-1224.5" font-family="Helvetica,sans-Serif" font-size="10.00">*</text>
<text text-anchor="start" x="108" y="-1224.5" font-family="Helvetica,sans-Serif" font-size="10.00">disable()</text>
<text text-anchor="start" x="88.5" y="-1209.5" font-family="Helvetica,sans-Serif" font-size="10.00">*</text>
<text text-anchor="start" x="108" y="-1209.5" font-family="Helvetica,sans-Serif" font-size="10.00">disable()</text>
<text text-anchor="start" x="88.5" y="-1194.5" font-family="Helvetica,sans-Serif" font-size="10.00">*</text>
<text text-anchor="start" x="108" y="-1194.5" font-family="Helvetica,sans-Serif" font-size="10.00">enable()</text>
<text text-anchor="start" x="88.5" y="-1179.5" font-family="Helvetica,sans-Serif" font-size="10.00">*</text>
<text text-anchor="start" x="108" y="-1179.5" font-family="Helvetica,sans-Serif" font-size="10.00">enable()</text>
<text text-anchor="start" x="88.5" y="-1164.5" font-family="Helvetica,sans-Serif" font-size="10.00">*</text>
<text text-anchor="start" x="108" y="-1164.5" font-family="Helvetica,sans-Serif" font-size="10.00">enable()</text>
<text text-anchor="start" x="88.5" y="-1149.5" font-family="Helvetica,sans-Serif" font-size="10.00">*</text>
<text text-anchor="start" x="108" y="-1149.5" font-family="Helvetica,sans-Serif" font-size="10.00">disable()</text>
<text text-anchor="start" x="88.5" y="-1134.5" font-family="Helvetica,sans-Serif" font-size="10.00">*</text>
<text text-anchor="start" x="108" y="-1134.5" font-family="Helvetica,sans-Serif" font-size="10.00">disable()</text>
<text text-anchor="start" x="88.5" y="-1119.5" font-family="Helvetica,sans-Serif" font-size="10.00">*</text>
<text text-anchor="start" x="108" y="-1119.5" font-family="Helvetica,sans-Serif" font-size="10.00">disable()</text>
<polygon fill="#666666" stroke="#666666" points="75,-1609.5 75,-1609.5 219,-1609.5 219,-1609.5 75,-1609.5"/>
<polygon fill="#666666" stroke="#666666" points="75,-1594.5 75,-1594.5 219,-1594.5 219,-1594.5 75,-1594.5"/>
<polygon fill="none" stroke="#666666" points="75,-1113 75,-1638 219,-1638 219,-1113 75,-1113"/>
</a>
</g>
</g>
<!-- Node5&#45;&gt;Node4 -->
<g id="edge4_Node000004_Node000005" class="edge">
<title>Node5&#45;&gt;Node4</title>
<g id="a_edge4_Node000004_Node000005"><a xlink:title=" ">
<path fill="none" stroke="#63b8ff" d="M147,-1102.8C147,-1093.66 147,-1084.8 147,-1076.31"/>
<polygon fill="none" stroke="#63b8ff" points="143.5,-1102.81 147,-1112.81 150.5,-1102.81 143.5,-1102.81"/>
</a>
</g>
</g>
<!-- Node6 -->
<g id="Node000006" class="node">
<title>Node6</title>
<g id="a_Node000006"><a xlink:href="../../d4/d23/classDoublyLinkable.html" target="_top" xlink:title="A class that can be inherited from to allow inserting into a DoublyLinkedList.">
<polygon fill="white" stroke="transparent" points="134,-1949.5 0,-1949.5 0,-1810.5 134,-1810.5 134,-1949.5"/>
<text text-anchor="start" x="5" y="-1937" font-family="Helvetica,sans-Serif" font-size="10.00">DoublyLinkable&lt; Node &gt;</text>
<text text-anchor="start" x="9.5" y="-1922" font-family="Helvetica,sans-Serif" font-size="10.00">#</text>
<text text-anchor="start" x="28" y="-1922" font-family="Helvetica,sans-Serif" font-size="10.00">next</text>
<text text-anchor="start" x="9.5" y="-1907" font-family="Helvetica,sans-Serif" font-size="10.00">#</text>
<text text-anchor="start" x="28" y="-1907" font-family="Helvetica,sans-Serif" font-size="10.00">previous</text>
<text text-anchor="start" x="9.5" y="-1892" font-family="Helvetica,sans-Serif" font-size="10.00">#</text>
<text text-anchor="start" x="28" y="-1892" font-family="Helvetica,sans-Serif" font-size="10.00">~DoublyLinkable()</text>
<text text-anchor="start" x="9.5" y="-1877" font-family="Helvetica,sans-Serif" font-size="10.00">#</text>
<text text-anchor="start" x="28" y="-1877" font-family="Helvetica,sans-Serif" font-size="10.00">DoublyLinkable()</text>
<text text-anchor="start" x="9.5" y="-1862" font-family="Helvetica,sans-Serif" font-size="10.00">#</text>
<text text-anchor="start" x="28" y="-1862" font-family="Helvetica,sans-Serif" font-size="10.00">DoublyLinkable()</text>
<text text-anchor="start" x="9.5" y="-1847" font-family="Helvetica,sans-Serif" font-size="10.00">#</text>
<text text-anchor="start" x="28" y="-1847" font-family="Helvetica,sans-Serif" font-size="10.00">operator=()</text>
<text text-anchor="start" x="9.5" y="-1832" font-family="Helvetica,sans-Serif" font-size="10.00">#</text>
<text text-anchor="start" x="28" y="-1832" font-family="Helvetica,sans-Serif" font-size="10.00">DoublyLinkable()</text>
<text text-anchor="start" x="9.5" y="-1817" font-family="Helvetica,sans-Serif" font-size="10.00">#</text>
<text text-anchor="start" x="28" y="-1817" font-family="Helvetica,sans-Serif" font-size="10.00">operator=()</text>
<polygon fill="#666666" stroke="#666666" points="0,-1932 0,-1932 134,-1932 134,-1932 0,-1932"/>
<polygon fill="#666666" stroke="#666666" points="0,-1902 0,-1902 26,-1902 26,-1902 0,-1902"/>
<polygon fill="#666666" stroke="#666666" points="26,-1902 26,-1902 134,-1902 134,-1902 26,-1902"/>
<polygon fill="none" stroke="#666666" points="0,-1810.5 0,-1949.5 134,-1949.5 134,-1810.5 0,-1810.5"/>
</a>
</g>
</g>
<!-- Node6&#45;&gt;Node5 -->
<g id="edge5_Node000005_Node000006" class="edge">
<title>Node6&#45;&gt;Node5</title>
<g id="a_edge5_Node000005_Node000006"><a xlink:title=" ">
<path fill="none" stroke="#63b8ff" d="M79.53,-1800.31C86.61,-1755.82 95.92,-1697.37 105.35,-1638.14"/>
<polygon fill="none" stroke="#63b8ff" points="76.03,-1800.02 77.91,-1810.45 82.94,-1801.12 76.03,-1800.02"/>
</a>
</g>
</g>
<!-- Node7 -->
<g id="Node000007" class="node">
<title>Node7</title>
<g id="a_Node000007"><a xlink:href="../../dd/d16/classDoublyLinkedList.html" target="_top" xlink:title=" ">
<polygon fill="white" stroke="transparent" points="304,-2075 152,-2075 152,-1685 304,-1685 304,-2075"/>
<text text-anchor="start" x="157" y="-2063" font-family="Helvetica,sans-Serif" font-size="10.00">DoublyLinkedList&lt; MIDIInput</text>
<text text-anchor="start" x="179.5" y="-2052" font-family="Helvetica,sans-Serif" font-size="10.00">Element&lt; Type &gt; &gt;</text>
<text text-anchor="start" x="173" y="-2037" font-family="Helvetica,sans-Serif" font-size="10.00">&#45;</text>
<text text-anchor="start" x="198" y="-2037" font-family="Helvetica,sans-Serif" font-size="10.00">first</text>
<text text-anchor="start" x="173" y="-2022" font-family="Helvetica,sans-Serif" font-size="10.00">&#45;</text>
<text text-anchor="start" x="198" y="-2022" font-family="Helvetica,sans-Serif" font-size="10.00">last</text>
<text text-anchor="start" x="170.5" y="-2007" font-family="Helvetica,sans-Serif" font-size="10.00">+</text>
<text text-anchor="start" x="198" y="-2007" font-family="Helvetica,sans-Serif" font-size="10.00">append()</text>
<text text-anchor="start" x="170.5" y="-1992" font-family="Helvetica,sans-Serif" font-size="10.00">+</text>
<text text-anchor="start" x="198" y="-1992" font-family="Helvetica,sans-Serif" font-size="10.00">append()</text>
<text text-anchor="start" x="170.5" y="-1977" font-family="Helvetica,sans-Serif" font-size="10.00">+</text>
<text text-anchor="start" x="198" y="-1977" font-family="Helvetica,sans-Serif" font-size="10.00">insertBefore()</text>
<text text-anchor="start" x="170.5" y="-1962" font-family="Helvetica,sans-Serif" font-size="10.00">+</text>
<text text-anchor="start" x="198" y="-1962" font-family="Helvetica,sans-Serif" font-size="10.00">insertBefore()</text>
<text text-anchor="start" x="170.5" y="-1947" font-family="Helvetica,sans-Serif" font-size="10.00">+</text>
<text text-anchor="start" x="198" y="-1947" font-family="Helvetica,sans-Serif" font-size="10.00">insertSorted()</text>
<text text-anchor="start" x="170.5" y="-1932" font-family="Helvetica,sans-Serif" font-size="10.00">+</text>
<text text-anchor="start" x="198" y="-1932" font-family="Helvetica,sans-Serif" font-size="10.00">insertSorted()</text>
<text text-anchor="start" x="170.5" y="-1917" font-family="Helvetica,sans-Serif" font-size="10.00">+</text>
<text text-anchor="start" x="198" y="-1917" font-family="Helvetica,sans-Serif" font-size="10.00">remove()</text>
<text text-anchor="start" x="170.5" y="-1902" font-family="Helvetica,sans-Serif" font-size="10.00">+</text>
<text text-anchor="start" x="198" y="-1902" font-family="Helvetica,sans-Serif" font-size="10.00">remove()</text>
<text text-anchor="start" x="170.5" y="-1887" font-family="Helvetica,sans-Serif" font-size="10.00">+</text>
<text text-anchor="start" x="198" y="-1887" font-family="Helvetica,sans-Serif" font-size="10.00">moveDown()</text>
<text text-anchor="start" x="170.5" y="-1872" font-family="Helvetica,sans-Serif" font-size="10.00">+</text>
<text text-anchor="start" x="198" y="-1872" font-family="Helvetica,sans-Serif" font-size="10.00">moveDown()</text>
<text text-anchor="start" x="170.5" y="-1857" font-family="Helvetica,sans-Serif" font-size="10.00">+</text>
<text text-anchor="start" x="198" y="-1857" font-family="Helvetica,sans-Serif" font-size="10.00">couldContain()</text>
<text text-anchor="start" x="170.5" y="-1842" font-family="Helvetica,sans-Serif" font-size="10.00">+</text>
<text text-anchor="start" x="198" y="-1842" font-family="Helvetica,sans-Serif" font-size="10.00">couldContain()</text>
<text text-anchor="start" x="170.5" y="-1827" font-family="Helvetica,sans-Serif" font-size="10.00">+</text>
<text text-anchor="start" x="198" y="-1827" font-family="Helvetica,sans-Serif" font-size="10.00">begin()</text>
<text text-anchor="start" x="170.5" y="-1812" font-family="Helvetica,sans-Serif" font-size="10.00">+</text>
<text text-anchor="start" x="198" y="-1812" font-family="Helvetica,sans-Serif" font-size="10.00">begin()</text>
<text text-anchor="start" x="170.5" y="-1797" font-family="Helvetica,sans-Serif" font-size="10.00">+</text>
<text text-anchor="start" x="198" y="-1797" font-family="Helvetica,sans-Serif" font-size="10.00">end()</text>
<text text-anchor="start" x="170.5" y="-1782" font-family="Helvetica,sans-Serif" font-size="10.00">+</text>
<text text-anchor="start" x="198" y="-1782" font-family="Helvetica,sans-Serif" font-size="10.00">end()</text>
<text text-anchor="start" x="170.5" y="-1767" font-family="Helvetica,sans-Serif" font-size="10.00">+</text>
<text text-anchor="start" x="198" y="-1767" font-family="Helvetica,sans-Serif" font-size="10.00">rbegin()</text>
<text text-anchor="start" x="170.5" y="-1752" font-family="Helvetica,sans-Serif" font-size="10.00">+</text>
<text text-anchor="start" x="198" y="-1752" font-family="Helvetica,sans-Serif" font-size="10.00">rbegin()</text>
<text text-anchor="start" x="170.5" y="-1737" font-family="Helvetica,sans-Serif" font-size="10.00">+</text>
<text text-anchor="start" x="198" y="-1737" font-family="Helvetica,sans-Serif" font-size="10.00">rend()</text>
<text text-anchor="start" x="170.5" y="-1722" font-family="Helvetica,sans-Serif" font-size="10.00">+</text>
<text text-anchor="start" x="198" y="-1722" font-family="Helvetica,sans-Serif" font-size="10.00">rend()</text>
<text text-anchor="start" x="170.5" y="-1707" font-family="Helvetica,sans-Serif" font-size="10.00">+</text>
<text text-anchor="start" x="198" y="-1707" font-family="Helvetica,sans-Serif" font-size="10.00">getFirst()</text>
<text text-anchor="start" x="170.5" y="-1692" font-family="Helvetica,sans-Serif" font-size="10.00">+</text>
<text text-anchor="start" x="198" y="-1692" font-family="Helvetica,sans-Serif" font-size="10.00">getLast()</text>
<polygon fill="#666666" stroke="#666666" points="152,-2047 152,-2047 304,-2047 304,-2047 152,-2047"/>
<polygon fill="#666666" stroke="#666666" points="152,-2017 152,-2017 196,-2017 196,-2017 152,-2017"/>
<polygon fill="#666666" stroke="#666666" points="196,-2017 196,-2017 304,-2017 304,-2017 196,-2017"/>
<polygon fill="none" stroke="#666666" points="152,-1685 152,-2075 304,-2075 304,-1685 152,-1685"/>
</a>
</g>
</g>
<!-- Node7&#45;&gt;Node5 -->
<g id="edge6_Node000005_Node000007" class="edge">
<title>Node7&#45;&gt;Node5</title>
<g id="a_edge6_Node000005_Node000007"><a xlink:title=" ">
<path fill="none" stroke="#63b8ff" d="M196.68,-1684.72C194.85,-1673.34 192.99,-1661.8 191.12,-1650.2"/>
<polygon fill="none" stroke="#63b8ff" points="191.08,-1649.93 186.17,-1644.65 189.17,-1638.09 194.07,-1643.37 191.08,-1649.93"/>
</a>
</g>
<text text-anchor="middle" x="226" y="-1659" font-family="Helvetica,sans-Serif" font-size="10.00" fill="grey"> #updatables</text>
</g>
<!-- Node8 -->
<g id="Node000008" class="node">
<title>Node8</title>
<g id="a_Node000008"><a xlink:href="../../d2/dbf/classBankSettingChangeCallback.html" target="_top" xlink:title="Callback class for Bankable objects that need to be notified when the active setting of their Bank ch...">
<polygon fill="white" stroke="transparent" points="395.5,-834.5 246.5,-834.5 246.5,-785.5 395.5,-785.5 395.5,-834.5"/>
<text text-anchor="start" x="252" y="-822" font-family="Helvetica,sans-Serif" font-size="10.00">BankSettingChangeCallback</text>
<text text-anchor="start" x="319.5" y="-807" font-family="Helvetica,sans-Serif" font-size="10.00"> </text>
<text text-anchor="start" x="255" y="-792" font-family="Helvetica,sans-Serif" font-size="10.00">&#45;</text>
<text text-anchor="start" x="267" y="-792" font-family="Helvetica,sans-Serif" font-size="10.00">onBankSettingChange()</text>
<polygon fill="#666666" stroke="#666666" points="247,-817 247,-817 396,-817 396,-817 247,-817"/>
<polygon fill="#666666" stroke="#666666" points="247,-802 247,-802 396,-802 396,-802 247,-802"/>
<polygon fill="none" stroke="#666666" points="246.5,-785.5 246.5,-834.5 395.5,-834.5 395.5,-785.5 246.5,-785.5"/>
</a>
</g>
</g>
<!-- Node8&#45;&gt;Node2 -->
<g id="edge7_Node000002_Node000008" class="edge">
<title>Node8&#45;&gt;Node2</title>
<g id="a_edge7_Node000002_Node000008"><a xlink:title=" ">
<path fill="none" stroke="#63b8ff" d="M307.8,-775.66C285.14,-718.43 238.54,-600.71 210,-528.63"/>
<polygon fill="none" stroke="#63b8ff" points="304.68,-777.28 311.61,-785.29 311.19,-774.71 304.68,-777.28"/>
</a>
</g>
</g>
<!-- Node9 -->
<g id="Node000009" class="node">
<title>Node9</title>
<g id="a_Node000009"><a xlink:href="../../d4/d23/classDoublyLinkable.html" target="_top" xlink:title=" ">
<polygon fill="white" stroke="transparent" points="451,-534.5 295,-534.5 295,-399.5 451,-399.5 451,-534.5"/>
<text text-anchor="start" x="300" y="-522" font-family="Helvetica,sans-Serif" font-size="10.00">DoublyLinkable&lt; BankSetting</text>
<text text-anchor="start" x="327.5" y="-511" font-family="Helvetica,sans-Serif" font-size="10.00">ChangeCallback &gt;</text>
<text text-anchor="start" x="371" y="-496" font-family="Helvetica,sans-Serif" font-size="10.00"> </text>
<text text-anchor="start" x="310" y="-481" font-family="Helvetica,sans-Serif" font-size="10.00">#</text>
<text text-anchor="start" x="334" y="-481" font-family="Helvetica,sans-Serif" font-size="10.00">~DoublyLinkable()</text>
<text text-anchor="start" x="310" y="-466" font-family="Helvetica,sans-Serif" font-size="10.00">#</text>
<text text-anchor="start" x="334" y="-466" font-family="Helvetica,sans-Serif" font-size="10.00">DoublyLinkable()</text>
<text text-anchor="start" x="310" y="-451" font-family="Helvetica,sans-Serif" font-size="10.00">#</text>
<text text-anchor="start" x="334" y="-451" font-family="Helvetica,sans-Serif" font-size="10.00">DoublyLinkable()</text>
<text text-anchor="start" x="310" y="-436" font-family="Helvetica,sans-Serif" font-size="10.00">#</text>
<text text-anchor="start" x="334" y="-436" font-family="Helvetica,sans-Serif" font-size="10.00">DoublyLinkable()</text>
<text text-anchor="start" x="310" y="-421" font-family="Helvetica,sans-Serif" font-size="10.00">#</text>
<text text-anchor="start" x="334" y="-421" font-family="Helvetica,sans-Serif" font-size="10.00">operator=()</text>
<text text-anchor="start" x="310" y="-406" font-family="Helvetica,sans-Serif" font-size="10.00">#</text>
<text text-anchor="start" x="334" y="-406" font-family="Helvetica,sans-Serif" font-size="10.00">operator=()</text>
<polygon fill="#666666" stroke="#666666" points="295,-506 295,-506 451,-506 451,-506 295,-506"/>
<polygon fill="#666666" stroke="#666666" points="295,-491 295,-491 451,-491 451,-491 295,-491"/>
<polygon fill="none" stroke="#666666" points="295,-399.5 295,-534.5 451,-534.5 451,-399.5 295,-399.5"/>
</a>
</g>
</g>
<!-- Node8&#45;&gt;Node9 -->
<g id="edge9_Node000009_Node000008" class="edge">
<title>Node8&#45;&gt;Node9</title>
<g id="a_edge9_Node000009_Node000008"><a xlink:title=" ">
<path fill="none" stroke="#63b8ff" d="M315.21,-785.47C311.79,-768.62 308.57,-745.42 311,-725 318.24,-664.13 334.8,-596.83 348.98,-546.38"/>
<polygon fill="none" stroke="#63b8ff" points="349.05,-546.12 346.85,-539.25 352.34,-534.58 354.54,-541.44 349.05,-546.12"/>
</a>
</g>
<text text-anchor="middle" x="336.5" y="-739" font-family="Helvetica,sans-Serif" font-size="10.00" fill="grey"> #next</text>
<text text-anchor="middle" x="336.5" y="-728" font-family="Helvetica,sans-Serif" font-size="10.00" fill="grey">#previous</text>
</g>
<!-- Node9&#45;&gt;Node8 -->
<g id="edge8_Node000008_Node000009" class="edge">
<title>Node9&#45;&gt;Node8</title>
<g id="a_edge8_Node000008_Node000009"><a xlink:title=" ">
<path fill="none" stroke="#63b8ff" d="M383.11,-544.83C387.8,-602.1 388.21,-681.41 366,-747 361.27,-760.98 352.18,-774.5 343.4,-785.32"/>
<polygon fill="none" stroke="#63b8ff" points="386.59,-544.41 382.22,-534.76 379.61,-545.03 386.59,-544.41"/>
</a>
</g>
</g>
<!-- Node10 -->
<g id="Node000010" class="node">
<title>Node10</title>
<g id="a_Node000010"><a xlink:href="../../d0/d32/structAH_1_1Array.html" target="_top" xlink:title=" ">
<polygon fill="white" stroke="transparent" points="605,-707 469,-707 469,-227 605,-227 605,-707"/>
<text text-anchor="start" x="474" y="-695" font-family="Helvetica,sans-Serif" font-size="10.00">Array&lt; uint8_t, BankSize,</text>
<text text-anchor="start" x="505.5" y="-684" font-family="Helvetica,sans-Serif" font-size="10.00"> RangeLen &gt;</text>
<text text-anchor="start" x="485" y="-669" font-family="Helvetica,sans-Serif" font-size="10.00">+</text>
<text text-anchor="start" x="510" y="-669" font-family="Helvetica,sans-Serif" font-size="10.00">data</text>
<text text-anchor="start" x="485" y="-654" font-family="Helvetica,sans-Serif" font-size="10.00">+</text>
<text text-anchor="start" x="510" y="-654" font-family="Helvetica,sans-Serif" font-size="10.00">data</text>
<text text-anchor="start" x="485" y="-639" font-family="Helvetica,sans-Serif" font-size="10.00">+</text>
<text text-anchor="start" x="510" y="-639" font-family="Helvetica,sans-Serif" font-size="10.00">length</text>
<text text-anchor="start" x="485" y="-624" font-family="Helvetica,sans-Serif" font-size="10.00">+</text>
<text text-anchor="start" x="510" y="-624" font-family="Helvetica,sans-Serif" font-size="10.00">length</text>
<text text-anchor="start" x="485" y="-609" font-family="Helvetica,sans-Serif" font-size="10.00">+</text>
<text text-anchor="start" x="510" y="-609" font-family="Helvetica,sans-Serif" font-size="10.00">operator[]()</text>
<text text-anchor="start" x="485" y="-594" font-family="Helvetica,sans-Serif" font-size="10.00">+</text>
<text text-anchor="start" x="510" y="-594" font-family="Helvetica,sans-Serif" font-size="10.00">operator[]()</text>
<text text-anchor="start" x="485" y="-579" font-family="Helvetica,sans-Serif" font-size="10.00">+</text>
<text text-anchor="start" x="510" y="-579" font-family="Helvetica,sans-Serif" font-size="10.00">begin()</text>
<text text-anchor="start" x="485" y="-564" font-family="Helvetica,sans-Serif" font-size="10.00">+</text>
<text text-anchor="start" x="510" y="-564" font-family="Helvetica,sans-Serif" font-size="10.00">begin()</text>
<text text-anchor="start" x="485" y="-549" font-family="Helvetica,sans-Serif" font-size="10.00">+</text>
<text text-anchor="start" x="510" y="-549" font-family="Helvetica,sans-Serif" font-size="10.00">end()</text>
<text text-anchor="start" x="485" y="-534" font-family="Helvetica,sans-Serif" font-size="10.00">+</text>
<text text-anchor="start" x="510" y="-534" font-family="Helvetica,sans-Serif" font-size="10.00">end()</text>
<text text-anchor="start" x="485" y="-519" font-family="Helvetica,sans-Serif" font-size="10.00">+</text>
<text text-anchor="start" x="510" y="-519" font-family="Helvetica,sans-Serif" font-size="10.00">operator==()</text>
<text text-anchor="start" x="485" y="-504" font-family="Helvetica,sans-Serif" font-size="10.00">+</text>
<text text-anchor="start" x="510" y="-504" font-family="Helvetica,sans-Serif" font-size="10.00">operator!=()</text>
<text text-anchor="start" x="485" y="-489" font-family="Helvetica,sans-Serif" font-size="10.00">+</text>
<text text-anchor="start" x="510" y="-489" font-family="Helvetica,sans-Serif" font-size="10.00">slice()</text>
<text text-anchor="start" x="485" y="-474" font-family="Helvetica,sans-Serif" font-size="10.00">+</text>
<text text-anchor="start" x="510" y="-474" font-family="Helvetica,sans-Serif" font-size="10.00">slice()</text>
<text text-anchor="start" x="485" y="-459" font-family="Helvetica,sans-Serif" font-size="10.00">+</text>
<text text-anchor="start" x="510" y="-459" font-family="Helvetica,sans-Serif" font-size="10.00">slice()</text>
<text text-anchor="start" x="485" y="-444" font-family="Helvetica,sans-Serif" font-size="10.00">+</text>
<text text-anchor="start" x="510" y="-444" font-family="Helvetica,sans-Serif" font-size="10.00">slice()</text>
<text text-anchor="start" x="485" y="-429" font-family="Helvetica,sans-Serif" font-size="10.00">+</text>
<text text-anchor="start" x="510" y="-429" font-family="Helvetica,sans-Serif" font-size="10.00">cslice()</text>
<text text-anchor="start" x="485" y="-414" font-family="Helvetica,sans-Serif" font-size="10.00">+</text>
<text text-anchor="start" x="510" y="-414" font-family="Helvetica,sans-Serif" font-size="10.00">operator[]()</text>
<text text-anchor="start" x="485" y="-399" font-family="Helvetica,sans-Serif" font-size="10.00">+</text>
<text text-anchor="start" x="510" y="-399" font-family="Helvetica,sans-Serif" font-size="10.00">operator[]()</text>
<text text-anchor="start" x="485" y="-384" font-family="Helvetica,sans-Serif" font-size="10.00">+</text>
<text text-anchor="start" x="510" y="-384" font-family="Helvetica,sans-Serif" font-size="10.00">begin()</text>
<text text-anchor="start" x="485" y="-369" font-family="Helvetica,sans-Serif" font-size="10.00">+</text>
<text text-anchor="start" x="510" y="-369" font-family="Helvetica,sans-Serif" font-size="10.00">begin()</text>
<text text-anchor="start" x="485" y="-354" font-family="Helvetica,sans-Serif" font-size="10.00">+</text>
<text text-anchor="start" x="510" y="-354" font-family="Helvetica,sans-Serif" font-size="10.00">end()</text>
<text text-anchor="start" x="485" y="-339" font-family="Helvetica,sans-Serif" font-size="10.00">+</text>
<text text-anchor="start" x="510" y="-339" font-family="Helvetica,sans-Serif" font-size="10.00">end()</text>
<text text-anchor="start" x="485" y="-324" font-family="Helvetica,sans-Serif" font-size="10.00">+</text>
<text text-anchor="start" x="510" y="-324" font-family="Helvetica,sans-Serif" font-size="10.00">operator==()</text>
<text text-anchor="start" x="485" y="-309" font-family="Helvetica,sans-Serif" font-size="10.00">+</text>
<text text-anchor="start" x="510" y="-309" font-family="Helvetica,sans-Serif" font-size="10.00">operator!=()</text>
<text text-anchor="start" x="485" y="-294" font-family="Helvetica,sans-Serif" font-size="10.00">+</text>
<text text-anchor="start" x="510" y="-294" font-family="Helvetica,sans-Serif" font-size="10.00">slice()</text>
<text text-anchor="start" x="485" y="-279" font-family="Helvetica,sans-Serif" font-size="10.00">+</text>
<text text-anchor="start" x="510" y="-279" font-family="Helvetica,sans-Serif" font-size="10.00">slice()</text>
<text text-anchor="start" x="485" y="-264" font-family="Helvetica,sans-Serif" font-size="10.00">+</text>
<text text-anchor="start" x="510" y="-264" font-family="Helvetica,sans-Serif" font-size="10.00">slice()</text>
<text text-anchor="start" x="485" y="-249" font-family="Helvetica,sans-Serif" font-size="10.00">+</text>
<text text-anchor="start" x="510" y="-249" font-family="Helvetica,sans-Serif" font-size="10.00">slice()</text>
<text text-anchor="start" x="485" y="-234" font-family="Helvetica,sans-Serif" font-size="10.00">+</text>
<text text-anchor="start" x="510" y="-234" font-family="Helvetica,sans-Serif" font-size="10.00">cslice()</text>
<polygon fill="#666666" stroke="#666666" points="469,-679 469,-679 605,-679 605,-679 469,-679"/>
<polygon fill="#666666" stroke="#666666" points="469,-619 469,-619 508,-619 508,-619 469,-619"/>
<polygon fill="#666666" stroke="#666666" points="508,-619 508,-619 605,-619 605,-619 508,-619"/>
<polygon fill="none" stroke="#666666" points="469,-227 469,-707 605,-707 605,-227 469,-227"/>
</a>
</g>
</g>
<!-- Node10&#45;&gt;Node1 -->
<g id="edge10_Node000001_Node000010" class="edge">
<title>Node10&#45;&gt;Node1</title>
<g id="a_edge10_Node000001_Node000010"><a xlink:title=" ">
<path fill="none" stroke="#63b8ff" d="M468.92,-245.47C466.04,-239.19 463.06,-233.02 460,-227 453.21,-213.65 445.17,-200.19 436.65,-187.2"/>
<polygon fill="none" stroke="#63b8ff" points="436.41,-186.85 429.75,-184.1 429.72,-176.89 436.39,-179.64 436.41,-186.85"/>
</a>
</g>
<text text-anchor="middle" x="468.5" y="-201" font-family="Helvetica,sans-Serif" font-size="10.00" fill="grey"> &#45;values</text>
</g>
</g>
</svg>
