<?xml version="1.0" encoding="UTF-8" standalone="no"?>
<!DOCTYPE svg PUBLIC "-//W3C//DTD SVG 1.1//EN"
 "http://www.w3.org/Graphics/SVG/1.1/DTD/svg11.dtd">
<!-- Generated by graphviz version 2.43.0 (0)
 -->
<!-- Title: GenericMIDIRotaryEncoder&lt; Enc, Sender &gt; Pages: 1 -->
<svg width="168pt" height="705pt"
 viewBox="0.00 0.00 168.00 705.00" xmlns="http://www.w3.org/2000/svg" xmlns:xlink="http://www.w3.org/1999/xlink">
<g id="graph0" class="graph" transform="scale(1 1) rotate(0) translate(4 701)">
<title>GenericMIDIRotaryEncoder&lt; Enc, Sender &gt;</title>
<!-- Node1 -->
<g id="Node000001" class="node">
<title>Node1</title>
<g id="a_Node000001"><a xlink:title="An abstract class for rotary encoders that send MIDI events.">
<polygon fill="#999999" stroke="transparent" points="160,-210 0,-210 0,0 160,0 160,-210"/>
<text text-anchor="start" x="14" y="-198" font-family="Helvetica,sans-Serif" font-size="10.00">GenericMIDIRotaryEncoder</text>
<text text-anchor="start" x="40" y="-187" font-family="Helvetica,sans-Serif" font-size="10.00">&lt; Enc, Sender &gt;</text>
<text text-anchor="start" x="4" y="-172" font-family="Helvetica,sans-Serif" font-size="10.00">+</text>
<text text-anchor="start" x="17" y="-172" font-family="Helvetica,sans-Serif" font-size="10.00">sender</text>
<text text-anchor="start" x="6.5" y="-157" font-family="Helvetica,sans-Serif" font-size="10.00">&#45;</text>
<text text-anchor="start" x="17" y="-157" font-family="Helvetica,sans-Serif" font-size="10.00">encoder</text>
<text text-anchor="start" x="6.5" y="-142" font-family="Helvetica,sans-Serif" font-size="10.00">&#45;</text>
<text text-anchor="start" x="17" y="-142" font-family="Helvetica,sans-Serif" font-size="10.00">address</text>
<text text-anchor="start" x="6.5" y="-127" font-family="Helvetica,sans-Serif" font-size="10.00">&#45;</text>
<text text-anchor="start" x="17" y="-127" font-family="Helvetica,sans-Serif" font-size="10.00">encstate</text>
<text text-anchor="start" x="4" y="-112" font-family="Helvetica,sans-Serif" font-size="10.00">+</text>
<text text-anchor="start" x="17" y="-112" font-family="Helvetica,sans-Serif" font-size="10.00">GenericMIDIRotaryEncoder()</text>
<text text-anchor="start" x="4" y="-97" font-family="Helvetica,sans-Serif" font-size="10.00">+</text>
<text text-anchor="start" x="17" y="-97" font-family="Helvetica,sans-Serif" font-size="10.00">begin()</text>
<text text-anchor="start" x="4" y="-82" font-family="Helvetica,sans-Serif" font-size="10.00">+</text>
<text text-anchor="start" x="17" y="-82" font-family="Helvetica,sans-Serif" font-size="10.00">update()</text>
<text text-anchor="start" x="4" y="-67" font-family="Helvetica,sans-Serif" font-size="10.00">+</text>
<text text-anchor="start" x="17" y="-67" font-family="Helvetica,sans-Serif" font-size="10.00">setSpeedMultiply()</text>
<text text-anchor="start" x="4" y="-52" font-family="Helvetica,sans-Serif" font-size="10.00">+</text>
<text text-anchor="start" x="17" y="-52" font-family="Helvetica,sans-Serif" font-size="10.00">getSpeedMultiply()</text>
<text text-anchor="start" x="4" y="-37" font-family="Helvetica,sans-Serif" font-size="10.00">+</text>
<text text-anchor="start" x="17" y="-37" font-family="Helvetica,sans-Serif" font-size="10.00">getAddress()</text>
<text text-anchor="start" x="4" y="-22" font-family="Helvetica,sans-Serif" font-size="10.00">+</text>
<text text-anchor="start" x="17" y="-22" font-family="Helvetica,sans-Serif" font-size="10.00">setAddress()</text>
<text text-anchor="start" x="4" y="-7" font-family="Helvetica,sans-Serif" font-size="10.00">+</text>
<text text-anchor="start" x="17" y="-7" font-family="Helvetica,sans-Serif" font-size="10.00">resetPositionOffset()</text>
<polygon fill="#666666" stroke="#666666" points="0,-182 0,-182 160,-182 160,-182 0,-182"/>
<polygon fill="#666666" stroke="#666666" points="0,-122 0,-122 15,-122 15,-122 0,-122"/>
<polygon fill="#666666" stroke="#666666" points="15,-122 15,-122 160,-122 160,-122 15,-122"/>
<polygon fill="none" stroke="#666666" points="0,0 0,-210 160,-210 160,0 0,0"/>
</a>
</g>
</g>
<!-- Node2 -->
<g id="Node000002" class="node">
<title>Node2</title>
<g id="a_Node000002"><a xlink:href="../../d1/d55/classAH_1_1Updatable.html" target="_top" xlink:title="A super class for object that have to be updated regularly.">
<polygon fill="white" stroke="transparent" points="133.5,-340 26.5,-340 26.5,-246 133.5,-246 133.5,-340"/>
<text text-anchor="start" x="32" y="-328" font-family="Helvetica,sans-Serif" font-size="10.00">MIDIOutputElement</text>
<text text-anchor="start" x="78.5" y="-313" font-family="Helvetica,sans-Serif" font-size="10.00"> </text>
<text text-anchor="start" x="39.5" y="-298" font-family="Helvetica,sans-Serif" font-size="10.00">*</text>
<text text-anchor="start" x="58" y="-298" font-family="Helvetica,sans-Serif" font-size="10.00">begin()</text>
<text text-anchor="start" x="39.5" y="-283" font-family="Helvetica,sans-Serif" font-size="10.00">*</text>
<text text-anchor="start" x="58" y="-283" font-family="Helvetica,sans-Serif" font-size="10.00">update()</text>
<text text-anchor="start" x="39.5" y="-268" font-family="Helvetica,sans-Serif" font-size="10.00">*</text>
<text text-anchor="start" x="58" y="-268" font-family="Helvetica,sans-Serif" font-size="10.00">beginAll()</text>
<text text-anchor="start" x="39.5" y="-253" font-family="Helvetica,sans-Serif" font-size="10.00">*</text>
<text text-anchor="start" x="58" y="-253" font-family="Helvetica,sans-Serif" font-size="10.00">updateAll()</text>
<polygon fill="#666666" stroke="#666666" points="27,-323 27,-323 134,-323 134,-323 27,-323"/>
<polygon fill="#666666" stroke="#666666" points="27,-308 27,-308 134,-308 134,-308 27,-308"/>
<polygon fill="none" stroke="#666666" points="26.5,-246 26.5,-340 133.5,-340 133.5,-246 26.5,-246"/>
</a>
</g>
</g>
<!-- Node2&#45;&gt;Node1 -->
<g id="edge1_Node000001_Node000002" class="edge">
<title>Node2&#45;&gt;Node1</title>
<g id="a_edge1_Node000001_Node000002"><a xlink:title=" ">
<path fill="none" stroke="#63b8ff" d="M80,-235.48C80,-227.34 80,-218.75 80,-210.02"/>
<polygon fill="none" stroke="#63b8ff" points="76.5,-235.54 80,-245.54 83.5,-235.54 76.5,-235.54"/>
</a>
</g>
</g>
<!-- Node3 -->
<g id="Node000003" class="node">
<title>Node3</title>
<g id="a_Node000003"><a xlink:href="../../d8/d1a/classAH_1_1UpdatableCRTP.html" target="_top" xlink:title=" ">
<polygon fill="white" stroke="transparent" points="153.5,-556 6.5,-556 6.5,-376 153.5,-376 153.5,-556"/>
<text text-anchor="start" x="12" y="-544" font-family="Helvetica,sans-Serif" font-size="10.00">UpdatableCRTP&lt; Updatable</text>
<text text-anchor="start" x="20" y="-533" font-family="Helvetica,sans-Serif" font-size="10.00">&lt; NormalUpdatable &gt; &gt;</text>
<text text-anchor="start" x="19.5" y="-518" font-family="Helvetica,sans-Serif" font-size="10.00">#</text>
<text text-anchor="start" x="41" y="-518" font-family="Helvetica,sans-Serif" font-size="10.00">next</text>
<text text-anchor="start" x="19.5" y="-503" font-family="Helvetica,sans-Serif" font-size="10.00">#</text>
<text text-anchor="start" x="41" y="-503" font-family="Helvetica,sans-Serif" font-size="10.00">previous</text>
<text text-anchor="start" x="19.5" y="-488" font-family="Helvetica,sans-Serif" font-size="10.00">#</text>
<text text-anchor="start" x="41" y="-488" font-family="Helvetica,sans-Serif" font-size="10.00">updatables</text>
<text text-anchor="start" x="19.5" y="-473" font-family="Helvetica,sans-Serif" font-size="10.00">+</text>
<text text-anchor="start" x="41" y="-473" font-family="Helvetica,sans-Serif" font-size="10.00">~UpdatableCRTP()</text>
<text text-anchor="start" x="19.5" y="-458" font-family="Helvetica,sans-Serif" font-size="10.00">#</text>
<text text-anchor="start" x="41" y="-458" font-family="Helvetica,sans-Serif" font-size="10.00">UpdatableCRTP()</text>
<text text-anchor="start" x="19.5" y="-443" font-family="Helvetica,sans-Serif" font-size="10.00">#</text>
<text text-anchor="start" x="41" y="-443" font-family="Helvetica,sans-Serif" font-size="10.00">operator=()</text>
<text text-anchor="start" x="21" y="-428" font-family="Helvetica,sans-Serif" font-size="10.00">*</text>
<text text-anchor="start" x="41" y="-428" font-family="Helvetica,sans-Serif" font-size="10.00">enable()</text>
<text text-anchor="start" x="21" y="-413" font-family="Helvetica,sans-Serif" font-size="10.00">*</text>
<text text-anchor="start" x="41" y="-413" font-family="Helvetica,sans-Serif" font-size="10.00">disable()</text>
<text text-anchor="start" x="21" y="-398" font-family="Helvetica,sans-Serif" font-size="10.00">*</text>
<text text-anchor="start" x="41" y="-398" font-family="Helvetica,sans-Serif" font-size="10.00">isEnabled()</text>
<text text-anchor="start" x="21" y="-383" font-family="Helvetica,sans-Serif" font-size="10.00">*</text>
<text text-anchor="start" x="41" y="-383" font-family="Helvetica,sans-Serif" font-size="10.00">moveDown()</text>
<polygon fill="#666666" stroke="#666666" points="7,-528 7,-528 154,-528 154,-528 7,-528"/>
<polygon fill="#666666" stroke="#666666" points="7,-483 7,-483 39,-483 39,-483 7,-483"/>
<polygon fill="#666666" stroke="#666666" points="39,-483 39,-483 154,-483 154,-483 39,-483"/>
<polygon fill="none" stroke="#666666" points="6.5,-376 6.5,-556 153.5,-556 153.5,-376 6.5,-376"/>
</a>
</g>
</g>
<!-- Node3&#45;&gt;Node2 -->
<g id="edge2_Node000002_Node000003" class="edge">
<title>Node3&#45;&gt;Node2</title>
<g id="a_edge2_Node000002_Node000003"><a xlink:title=" ">
<path fill="none" stroke="#63b8ff" d="M80,-365.92C80,-357.05 80,-348.38 80,-340.31"/>
<polygon fill="none" stroke="#63b8ff" points="76.5,-365.99 80,-375.99 83.5,-365.99 76.5,-365.99"/>
</a>
</g>
</g>
<!-- Node4 -->
<g id="Node000004" class="node">
<title>Node4</title>
<g id="a_Node000004"><a xlink:href="../../d4/d23/classDoublyLinkable.html" target="_top" xlink:title=" ">
<polygon fill="white" stroke="transparent" points="153.5,-697 6.5,-697 6.5,-592 153.5,-592 153.5,-697"/>
<text text-anchor="start" x="12" y="-684.5" font-family="Helvetica,sans-Serif" font-size="10.00">DoublyLinkable&lt; Updatable</text>
<text text-anchor="start" x="20" y="-673.5" font-family="Helvetica,sans-Serif" font-size="10.00">&lt; NormalUpdatable &gt; &gt;</text>
<text text-anchor="start" x="19.5" y="-658.5" font-family="Helvetica,sans-Serif" font-size="10.00">#</text>
<text text-anchor="start" x="41" y="-658.5" font-family="Helvetica,sans-Serif" font-size="10.00">next</text>
<text text-anchor="start" x="19.5" y="-643.5" font-family="Helvetica,sans-Serif" font-size="10.00">#</text>
<text text-anchor="start" x="41" y="-643.5" font-family="Helvetica,sans-Serif" font-size="10.00">previous</text>
<text text-anchor="start" x="19.5" y="-628.5" font-family="Helvetica,sans-Serif" font-size="10.00">#</text>
<text text-anchor="start" x="41" y="-628.5" font-family="Helvetica,sans-Serif" font-size="10.00">~DoublyLinkable()</text>
<text text-anchor="start" x="19.5" y="-613.5" font-family="Helvetica,sans-Serif" font-size="10.00">#</text>
<text text-anchor="start" x="41" y="-613.5" font-family="Helvetica,sans-Serif" font-size="10.00">DoublyLinkable()</text>
<text text-anchor="start" x="19.5" y="-598.5" font-family="Helvetica,sans-Serif" font-size="10.00">#</text>
<text text-anchor="start" x="41" y="-598.5" font-family="Helvetica,sans-Serif" font-size="10.00">operator=()</text>
<polygon fill="#666666" stroke="#666666" points="7,-668.5 7,-668.5 154,-668.5 154,-668.5 7,-668.5"/>
<polygon fill="#666666" stroke="#666666" points="7,-638.5 7,-638.5 39,-638.5 39,-638.5 7,-638.5"/>
<polygon fill="#666666" stroke="#666666" points="39,-638.5 39,-638.5 154,-638.5 154,-638.5 39,-638.5"/>
<polygon fill="none" stroke="#666666" points="6.5,-592 6.5,-697 153.5,-697 153.5,-592 6.5,-592"/>
</a>
</g>
</g>
<!-- Node4&#45;&gt;Node3 -->
<g id="edge3_Node000003_Node000004" class="edge">
<title>Node4&#45;&gt;Node3</title>
<g id="a_edge3_Node000003_Node000004"><a xlink:title=" ">
<path fill="none" stroke="#63b8ff" d="M80,-581.96C80,-573.58 80,-564.86 80,-556.12"/>
<polygon fill="none" stroke="#63b8ff" points="76.5,-581.97 80,-591.97 83.5,-581.97 76.5,-581.97"/>
</a>
</g>
</g>
</g>
</svg>
