<?xml version="1.0" encoding="UTF-8" standalone="no"?>
<!DOCTYPE svg PUBLIC "-//W3C//DTD SVG 1.1//EN"
 "http://www.w3.org/Graphics/SVG/1.1/DTD/svg11.dtd">
<!-- Generated by graphviz version 2.38.0 (20140413.2041)
 -->
<!-- Title: Abstract Pages: 1 -->
<svg width="251pt" height="295pt"
 viewBox="0.00 0.00 251.43 295.00" xmlns="http://www.w3.org/2000/svg" xmlns:xlink="http://www.w3.org/1999/xlink">
<g id="graph0" class="graph" transform="scale(1 1) rotate(0) translate(4 291)">
<title>Abstract</title>
<polygon fill="white" stroke="none" points="-4,4 -4,-291 247.435,-291 247.435,4 -4,4"/>
<g id="clust1" class="cluster"><title>clusterdir_2203ff04ab105d4802e644d41d784e20</title>
<g id="a_clust1"><a xlink:href="dir_2203ff04ab105d4802e644d41d784e20.html" target="_top" xlink:title="MIDI_Outputs">
<polygon fill="#ddddee" stroke="black" points="52.9346,-208 52.9346,-279 130.935,-279 130.935,-208 52.9346,-208"/>
<text text-anchor="middle" x="91.9346" y="-267" font-family="Helvetica,sans-Serif" font-size="10.00">MIDI_Outputs</text>
</a>
</g>
</g>
<!-- dir_4c1305a51ad6ea1ac7063bb4084ac14b -->
<g id="node1" class="node"><title>dir_4c1305a51ad6ea1ac7063bb4084ac14b</title>
<g id="a_node1"><a xlink:href="dir_4c1305a51ad6ea1ac7063bb4084ac14b.html" target="_top" xlink:title="Abstract">
<polygon fill="#eeeeff" stroke="black" points="118.935,-252 64.9346,-252 64.9346,-216 118.935,-216 118.935,-252"/>
<text text-anchor="middle" x="91.9346" y="-231.5" font-family="Helvetica,sans-Serif" font-size="10.00">Abstract</text>
</a>
</g>
</g>
<!-- dir_15b6432dff6a6d357bf70f8fbf2cdf14 -->
<g id="node2" class="node"><title>dir_15b6432dff6a6d357bf70f8fbf2cdf14</title>
<g id="a_node2"><a xlink:href="dir_15b6432dff6a6d357bf70f8fbf2cdf14.html" target="_top" xlink:title="AH">
<polygon fill="white" stroke="red" points="84.9346,-36 30.9346,-36 30.9346,-0 84.9346,-0 84.9346,-36"/>
<text text-anchor="middle" x="57.9346" y="-15.5" font-family="Helvetica,sans-Serif" font-size="10.00">AH</text>
</a>
</g>
</g>
<!-- dir_4c1305a51ad6ea1ac7063bb4084ac14b&#45;&gt;dir_15b6432dff6a6d357bf70f8fbf2cdf14 -->
<g id="edge1" class="edge"><title>dir_4c1305a51ad6ea1ac7063bb4084ac14b&#45;&gt;dir_15b6432dff6a6d357bf70f8fbf2cdf14</title>
<path fill="none" stroke="black" d="M64.5632,-223.67C45.2043,-215.466 20.6828,-201.441 8.9346,-180 -15.4237,-135.545 15.74,-77.3983 38.357,-44.5363"/>
<polygon fill="black" stroke="black" points="41.228,-46.5384 44.1697,-36.3601 35.5228,-42.4823 41.228,-46.5384"/>
<g id="a_edge1&#45;headlabel"><a xlink:href="dir_000034_000001.html" target="_top" xlink:title="10">
<text text-anchor="middle" x="41.4593" y="-48.6132" font-family="Helvetica,sans-Serif" font-size="10.00">10</text>
</a>
</g>
</g>
<!-- dir_f5601f71f9b8dfdd9adc4acfaf93276a -->
<g id="node3" class="node"><title>dir_f5601f71f9b8dfdd9adc4acfaf93276a</title>
<g id="a_node3"><a xlink:href="dir_f5601f71f9b8dfdd9adc4acfaf93276a.html" target="_top" xlink:title="MIDI_Senders">
<polygon fill="none" stroke="black" points="97.9346,-180 17.9346,-180 17.9346,-144 97.9346,-144 97.9346,-180"/>
<text text-anchor="middle" x="57.9346" y="-159.5" font-family="Helvetica,sans-Serif" font-size="10.00">MIDI_Senders</text>
</a>
</g>
</g>
<!-- dir_4c1305a51ad6ea1ac7063bb4084ac14b&#45;&gt;dir_f5601f71f9b8dfdd9adc4acfaf93276a -->
<g id="edge2" class="edge"><title>dir_4c1305a51ad6ea1ac7063bb4084ac14b&#45;&gt;dir_f5601f71f9b8dfdd9adc4acfaf93276a</title>
<path fill="none" stroke="black" d="M83.5301,-215.697C79.6598,-207.728 74.9829,-198.1 70.6915,-189.264"/>
<polygon fill="black" stroke="black" points="73.7598,-187.57 66.2424,-180.104 67.4632,-190.629 73.7598,-187.57"/>
<g id="a_edge2&#45;headlabel"><a xlink:href="dir_000034_000018.html" target="_top" xlink:title="1">
<text text-anchor="middle" x="77.8842" y="-187.063" font-family="Helvetica,sans-Serif" font-size="10.00">1</text>
</a>
</g>
</g>
<!-- dir_c90f87021e89d05236fc514cb49c4dcf -->
<g id="node4" class="node"><title>dir_c90f87021e89d05236fc514cb49c4dcf</title>
<g id="a_node4"><a xlink:href="dir_c90f87021e89d05236fc514cb49c4dcf.html" target="_top" xlink:title="Def">
<polygon fill="none" stroke="black" points="152.935,-108 98.9346,-108 98.9346,-72 152.935,-72 152.935,-108"/>
<text text-anchor="middle" x="125.935" y="-87.5" font-family="Helvetica,sans-Serif" font-size="10.00">Def</text>
</a>
</g>
</g>
<!-- dir_4c1305a51ad6ea1ac7063bb4084ac14b&#45;&gt;dir_c90f87021e89d05236fc514cb49c4dcf -->
<g id="edge3" class="edge"><title>dir_4c1305a51ad6ea1ac7063bb4084ac14b&#45;&gt;dir_c90f87021e89d05236fc514cb49c4dcf</title>
<path fill="none" stroke="black" d="M97.0844,-215.89C100.121,-205.545 103.943,-192.066 106.935,-180 112.036,-159.427 117.009,-135.975 120.586,-118.311"/>
<polygon fill="black" stroke="black" points="124.092,-118.631 122.622,-108.138 117.228,-117.257 124.092,-118.631"/>
<g id="a_edge3&#45;headlabel"><a xlink:href="dir_000034_000015.html" target="_top" xlink:title="12">
<text text-anchor="middle" x="126.17" y="-120.212" font-family="Helvetica,sans-Serif" font-size="10.00">12</text>
</a>
</g>
</g>
<!-- dir_d1912c7983f599f589f0119eae45b817 -->
<g id="node5" class="node"><title>dir_d1912c7983f599f589f0119eae45b817</title>
<g id="a_node5"><a xlink:href="dir_d1912c7983f599f589f0119eae45b817.html" target="_top" xlink:title="MIDI_Constants">
<polygon fill="white" stroke="red" points="243.435,-180 154.435,-180 154.435,-144 243.435,-144 243.435,-180"/>
<text text-anchor="middle" x="198.935" y="-159.5" font-family="Helvetica,sans-Serif" font-size="10.00">MIDI_Constants</text>
</a>
</g>
</g>
<!-- dir_4c1305a51ad6ea1ac7063bb4084ac14b&#45;&gt;dir_d1912c7983f599f589f0119eae45b817 -->
<g id="edge4" class="edge"><title>dir_4c1305a51ad6ea1ac7063bb4084ac14b&#45;&gt;dir_d1912c7983f599f589f0119eae45b817</title>
<path fill="none" stroke="black" d="M118.11,-215.876C131.97,-206.808 149.176,-195.552 164.146,-185.759"/>
<polygon fill="black" stroke="black" points="166.207,-188.593 172.659,-180.19 162.374,-182.735 166.207,-188.593"/>
<g id="a_edge4&#45;headlabel"><a xlink:href="dir_000034_000016.html" target="_top" xlink:title="1">
<text text-anchor="middle" x="164.753" y="-190.437" font-family="Helvetica,sans-Serif" font-size="10.00">1</text>
</a>
</g>
</g>
<!-- dir_f5601f71f9b8dfdd9adc4acfaf93276a&#45;&gt;dir_15b6432dff6a6d357bf70f8fbf2cdf14 -->
<g id="edge5" class="edge"><title>dir_f5601f71f9b8dfdd9adc4acfaf93276a&#45;&gt;dir_15b6432dff6a6d357bf70f8fbf2cdf14</title>
<path fill="none" stroke="black" d="M57.9346,-143.871C57.9346,-119.67 57.9346,-75.2108 57.9346,-46.3932"/>
<polygon fill="black" stroke="black" points="61.4347,-46.1892 57.9346,-36.1893 54.4347,-46.1893 61.4347,-46.1892"/>
<g id="a_edge5&#45;headlabel"><a xlink:href="dir_000018_000001.html" target="_top" xlink:title="1">
<text text-anchor="middle" x="64.2739" y="-47.2839" font-family="Helvetica,sans-Serif" font-size="10.00">1</text>
</a>
</g>
</g>
<!-- dir_c90f87021e89d05236fc514cb49c4dcf&#45;&gt;dir_15b6432dff6a6d357bf70f8fbf2cdf14 -->
<g id="edge6" class="edge"><title>dir_c90f87021e89d05236fc514cb49c4dcf&#45;&gt;dir_15b6432dff6a6d357bf70f8fbf2cdf14</title>
<path fill="none" stroke="black" d="M109.126,-71.6966C100.809,-63.135 90.6292,-52.6562 81.5447,-43.3045"/>
<polygon fill="black" stroke="black" points="84.0286,-40.8384 74.5502,-36.1043 79.0076,-45.7159 84.0286,-40.8384"/>
<g id="a_edge6&#45;headlabel"><a xlink:href="dir_000015_000001.html" target="_top" xlink:title="2">
<text text-anchor="middle" x="88.5698" y="-38.9384" font-family="Helvetica,sans-Serif" font-size="10.00">2</text>
</a>
</g>
</g>
<!-- dir_d1912c7983f599f589f0119eae45b817&#45;&gt;dir_c90f87021e89d05236fc514cb49c4dcf -->
<g id="edge7" class="edge"><title>dir_d1912c7983f599f589f0119eae45b817&#45;&gt;dir_c90f87021e89d05236fc514cb49c4dcf</title>
<path fill="none" stroke="black" d="M180.89,-143.697C171.873,-135.05 160.817,-124.449 150.991,-115.027"/>
<polygon fill="black" stroke="black" points="153.412,-112.499 143.772,-108.104 148.567,-117.552 153.412,-112.499"/>
<g id="a_edge7&#45;headlabel"><a xlink:href="dir_000016_000015.html" target="_top" xlink:title="2">
<text text-anchor="middle" x="157.972" y="-110.438" font-family="Helvetica,sans-Serif" font-size="10.00">2</text>
</a>
</g>
</g>
</g>
</svg>
