<?xml version="1.0" encoding="UTF-8" standalone="no"?>
<!DOCTYPE svg PUBLIC "-//W3C//DTD SVG 1.1//EN"
 "http://www.w3.org/Graphics/SVG/1.1/DTD/svg11.dtd">
<!-- Generated by graphviz version 2.43.0 (0)
 -->
<!-- Title: DisplayElement.cpp Pages: 1 -->
<svg width="1009pt" height="808pt"
 viewBox="0.00 0.00 1009.27 808.00" xmlns="http://www.w3.org/2000/svg" xmlns:xlink="http://www.w3.org/1999/xlink">
<g id="graph0" class="graph" transform="scale(1 1) rotate(0) translate(4 804)">
<title>DisplayElement.cpp</title>
<!-- Node1 -->
<g id="Node000001" class="node">
<title>Node1</title>
<g id="a_Node000001"><a xlink:title=" ">
<polygon fill="#999999" stroke="#666666" points="153.5,-800 39.5,-800 39.5,-781 153.5,-781 153.5,-800"/>
<text text-anchor="middle" x="96.5" y="-788" font-family="Helvetica,sans-Serif" font-size="10.00">DisplayElement.cpp</text>
</a>
</g>
</g>
<!-- Node2 -->
<g id="Node000002" class="node">
<title>Node2</title>
<g id="a_Node000002"><a xlink:href="../../d6/dd2/DisplayElement_8hpp.html" target="_top" xlink:title=" ">
<polygon fill="white" stroke="#666666" points="154,-745 39,-745 39,-726 154,-726 154,-745"/>
<text text-anchor="middle" x="96.5" y="-733" font-family="Helvetica,sans-Serif" font-size="10.00">DisplayElement.hpp</text>
</a>
</g>
</g>
<!-- Node1&#45;&gt;Node2 -->
<g id="edge1_Node000001_Node000002" class="edge">
<title>Node1&#45;&gt;Node2</title>
<g id="a_edge1_Node000001_Node000002"><a xlink:title=" ">
<path fill="none" stroke="#63b8ff" d="M96.5,-780.75C96.5,-773.8 96.5,-763.85 96.5,-755.13"/>
<polygon fill="#63b8ff" stroke="#63b8ff" points="100,-755.09 96.5,-745.09 93,-755.09 100,-755.09"/>
</a>
</g>
</g>
<!-- Node3 -->
<g id="Node000003" class="node">
<title>Node3</title>
<g id="a_Node000003"><a xlink:href="../../de/dd1/LinkedList_8hpp.html" target="_top" xlink:title=" ">
<polygon fill="white" stroke="#666666" points="159,-514 0,-514 0,-495 159,-495 159,-514"/>
<text text-anchor="middle" x="79.5" y="-502" font-family="Helvetica,sans-Serif" font-size="10.00">AH/Containers/LinkedList.hpp</text>
</a>
</g>
</g>
<!-- Node2&#45;&gt;Node3 -->
<g id="edge2_Node000002_Node000003" class="edge">
<title>Node2&#45;&gt;Node3</title>
<g id="a_edge2_Node000002_Node000003"><a xlink:title=" ">
<path fill="none" stroke="#63b8ff" d="M86.89,-725.69C78.63,-717.41 67.3,-704.18 62.5,-690 42.78,-631.71 62.02,-557.51 73.01,-523.73"/>
<polygon fill="#63b8ff" stroke="#63b8ff" points="76.33,-524.85 76.23,-514.25 69.7,-522.6 76.33,-524.85"/>
</a>
</g>
</g>
<!-- Node25 -->
<g id="Node000025" class="node">
<title>Node25</title>
<g id="a_Node000025"><a xlink:href="../../dc/d77/DisplayInterface_8hpp.html" target="_top" xlink:title=" ">
<polygon fill="white" stroke="#666666" points="229.5,-690 71.5,-690 71.5,-671 229.5,-671 229.5,-690"/>
<text text-anchor="middle" x="150.5" y="-678" font-family="Helvetica,sans-Serif" font-size="10.00">Display/DisplayInterface.hpp</text>
</a>
</g>
</g>
<!-- Node2&#45;&gt;Node25 -->
<g id="edge32_Node000002_Node000025" class="edge">
<title>Node2&#45;&gt;Node25</title>
<g id="a_edge32_Node000002_Node000025"><a xlink:title=" ">
<path fill="none" stroke="#63b8ff" d="M105.42,-725.75C113.28,-718.03 124.93,-706.6 134.42,-697.28"/>
<polygon fill="#63b8ff" stroke="#63b8ff" points="137.06,-699.59 141.75,-690.09 132.16,-694.6 137.06,-699.59"/>
</a>
</g>
</g>
<!-- Node4 -->
<g id="Node000004" class="node">
<title>Node4</title>
<g id="a_Node000004"><a xlink:href="../../df/dee/Debug_8hpp.html" target="_top" xlink:title=" ">
<polygon fill="white" stroke="#666666" points="567,-404 446,-404 446,-385 567,-385 567,-404"/>
<text text-anchor="middle" x="506.5" y="-392" font-family="Helvetica,sans-Serif" font-size="10.00">AH/Debug/Debug.hpp</text>
</a>
</g>
</g>
<!-- Node3&#45;&gt;Node4 -->
<g id="edge3_Node000003_Node000004" class="edge">
<title>Node3&#45;&gt;Node4</title>
<g id="a_edge3_Node000003_Node000004"><a xlink:title=" ">
<path fill="none" stroke="#63b8ff" d="M113.36,-494.94C190.13,-475.52 377.34,-428.17 462.74,-406.57"/>
<polygon fill="#63b8ff" stroke="#63b8ff" points="463.8,-409.91 472.63,-404.07 462.08,-403.12 463.8,-409.91"/>
</a>
</g>
</g>
<!-- Node7 -->
<g id="Node000007" class="node">
<title>Node7</title>
<g id="a_Node000007"><a xlink:href="../../d7/d79/MinMaxFix_8hpp.html" target="_top" xlink:title=" ">
<polygon fill="white" stroke="#666666" points="369.5,-129 233.5,-129 233.5,-110 369.5,-110 369.5,-129"/>
<text text-anchor="middle" x="301.5" y="-117" font-family="Helvetica,sans-Serif" font-size="10.00">AH/Math/MinMaxFix.hpp</text>
</a>
</g>
</g>
<!-- Node3&#45;&gt;Node7 -->
<g id="edge29_Node000003_Node000007" class="edge">
<title>Node3&#45;&gt;Node7</title>
<g id="a_edge29_Node000003_Node000007"><a xlink:title=" ">
<path fill="none" stroke="#63b8ff" d="M74.49,-494.87C64.6,-476.97 43.5,-434.24 43.5,-395.5 43.5,-395.5 43.5,-395.5 43.5,-228.5 43.5,-149.61 147.4,-127.36 223.33,-121.62"/>
<polygon fill="#63b8ff" stroke="#63b8ff" points="223.63,-125.11 233.38,-120.95 223.16,-118.13 223.63,-125.11"/>
</a>
</g>
</g>
<!-- Node23 -->
<g id="Node000023" class="node">
<title>Node23</title>
<g id="a_Node000023"><a xlink:title=" ">
<polygon fill="#e0e0e0" stroke="#999999" points="125,-459 72,-459 72,-440 125,-440 125,-459"/>
<text text-anchor="middle" x="98.5" y="-447" font-family="Helvetica,sans-Serif" font-size="10.00">stdlib.h</text>
</a>
</g>
</g>
<!-- Node3&#45;&gt;Node23 -->
<g id="edge30_Node000003_Node000023" class="edge">
<title>Node3&#45;&gt;Node23</title>
<g id="a_edge30_Node000003_Node000023"><a xlink:title=" ">
<path fill="none" stroke="#63b8ff" d="M82.64,-494.75C85.18,-487.65 88.86,-477.4 92.03,-468.56"/>
<polygon fill="#63b8ff" stroke="#63b8ff" points="95.34,-469.68 95.42,-459.09 88.75,-467.32 95.34,-469.68"/>
</a>
</g>
</g>
<!-- Node24 -->
<g id="Node000024" class="node">
<title>Node24</title>
<g id="a_Node000024"><a xlink:title=" ">
<polygon fill="#e0e0e0" stroke="#999999" points="434.5,-459 344.5,-459 344.5,-440 434.5,-440 434.5,-459"/>
<text text-anchor="middle" x="389.5" y="-447" font-family="Helvetica,sans-Serif" font-size="10.00">AH/STL/iterator</text>
</a>
</g>
</g>
<!-- Node3&#45;&gt;Node24 -->
<g id="edge31_Node000003_Node000024" class="edge">
<title>Node3&#45;&gt;Node24</title>
<g id="a_edge31_Node000003_Node000024"><a xlink:title=" ">
<path fill="none" stroke="#63b8ff" d="M129.31,-494.98C185.33,-485.41 276.08,-469.89 334.24,-459.95"/>
<polygon fill="#63b8ff" stroke="#63b8ff" points="335.09,-463.35 344.35,-458.22 333.91,-456.45 335.09,-463.35"/>
</a>
</g>
</g>
<!-- Node5 -->
<g id="Node000005" class="node">
<title>Node5</title>
<g id="a_Node000005"><a xlink:href="../../dd/d80/PrintStream_8hpp.html" target="_top" xlink:title=" ">
<polygon fill="white" stroke="#666666" points="465,-349 292,-349 292,-330 465,-330 465,-349"/>
<text text-anchor="middle" x="378.5" y="-337" font-family="Helvetica,sans-Serif" font-size="10.00">AH/PrintStream/PrintStream.hpp</text>
</a>
</g>
</g>
<!-- Node4&#45;&gt;Node5 -->
<g id="edge4_Node000004_Node000005" class="edge">
<title>Node4&#45;&gt;Node5</title>
<g id="a_edge4_Node000004_Node000005"><a xlink:title=" ">
<path fill="none" stroke="#63b8ff" d="M485.93,-384.98C465.07,-376.34 432.53,-362.87 408.73,-353.02"/>
<polygon fill="#63b8ff" stroke="#63b8ff" points="410.02,-349.76 399.44,-349.17 407.34,-356.23 410.02,-349.76"/>
</a>
</g>
</g>
<!-- Node14 -->
<g id="Node000014" class="node">
<title>Node14</title>
<g id="a_Node000014"><a xlink:href="../../de/dd1/AH_2Settings_2SettingsWrapper_8hpp.html" target="_top" xlink:title=" ">
<polygon fill="white" stroke="#666666" points="801.5,-349 623.5,-349 623.5,-330 801.5,-330 801.5,-349"/>
<text text-anchor="middle" x="712.5" y="-337" font-family="Helvetica,sans-Serif" font-size="10.00">AH/Settings/SettingsWrapper.hpp</text>
</a>
</g>
</g>
<!-- Node4&#45;&gt;Node14 -->
<g id="edge16_Node000004_Node000014" class="edge">
<title>Node4&#45;&gt;Node14</title>
<g id="a_edge16_Node000004_Node000014"><a xlink:title=" ">
<path fill="none" stroke="#63b8ff" d="M534.48,-384.98C567.81,-375.89 623.76,-361.46 664.11,-351.51"/>
<polygon fill="#63b8ff" stroke="#63b8ff" points="665.13,-354.86 674.01,-349.08 663.47,-348.06 665.13,-354.86"/>
</a>
</g>
</g>
<!-- Node22 -->
<g id="Node000022" class="node">
<title>Node22</title>
<g id="a_Node000022"><a xlink:href="../../d7/d52/DebugVal_8hpp.html" target="_top" xlink:title=" ">
<polygon fill="white" stroke="#666666" points="567.5,-349 483.5,-349 483.5,-330 567.5,-330 567.5,-349"/>
<text text-anchor="middle" x="525.5" y="-337" font-family="Helvetica,sans-Serif" font-size="10.00">DebugVal.hpp</text>
</a>
</g>
</g>
<!-- Node4&#45;&gt;Node22 -->
<g id="edge28_Node000004_Node000022" class="edge">
<title>Node4&#45;&gt;Node22</title>
<g id="a_edge28_Node000004_Node000022"><a xlink:title=" ">
<path fill="none" stroke="#63b8ff" d="M509.64,-384.75C512.18,-377.65 515.86,-367.4 519.03,-358.56"/>
<polygon fill="#63b8ff" stroke="#63b8ff" points="522.34,-359.68 522.42,-349.09 515.75,-357.32 522.34,-359.68"/>
</a>
</g>
</g>
<!-- Node6 -->
<g id="Node000006" class="node">
<title>Node6</title>
<g id="a_Node000006"><a xlink:href="../../d6/ddf/Arduino-Wrapper_8h.html" target="_top" xlink:title=" ">
<polygon fill="white" stroke="#666666" points="363.5,-184 239.5,-184 239.5,-165 363.5,-165 363.5,-184"/>
<text text-anchor="middle" x="301.5" y="-172" font-family="Helvetica,sans-Serif" font-size="10.00">AH/Arduino&#45;Wrapper.h</text>
</a>
</g>
</g>
<!-- Node5&#45;&gt;Node6 -->
<g id="edge5_Node000005_Node000006" class="edge">
<title>Node5&#45;&gt;Node6</title>
<g id="a_edge5_Node000005_Node000006"><a xlink:title=" ">
<path fill="none" stroke="#63b8ff" d="M374.36,-329.74C362.24,-304.09 326.67,-228.78 310.13,-193.78"/>
<polygon fill="#63b8ff" stroke="#63b8ff" points="313.1,-191.85 305.66,-184.31 306.77,-194.84 313.1,-191.85"/>
</a>
</g>
</g>
<!-- Node11 -->
<g id="Node000011" class="node">
<title>Node11</title>
<g id="a_Node000011"><a xlink:href="../../d6/db0/AH_2Settings_2NamespaceSettings_8hpp.html" target="_top" xlink:title=" ">
<polygon fill="white" stroke="#666666" points="748,-74 553,-74 553,-55 748,-55 748,-74"/>
<text text-anchor="middle" x="650.5" y="-62" font-family="Helvetica,sans-Serif" font-size="10.00">AH/Settings/NamespaceSettings.hpp</text>
</a>
</g>
</g>
<!-- Node5&#45;&gt;Node11 -->
<g id="edge14_Node000005_Node000011" class="edge">
<title>Node5&#45;&gt;Node11</title>
<g id="a_edge14_Node000005_Node000011"><a xlink:title=" ">
<path fill="none" stroke="#63b8ff" d="M391.37,-329.86C411.19,-316.81 450.66,-291.81 486.5,-275 529.27,-254.94 552.97,-272.27 586.5,-239 609.21,-216.47 635.34,-123.89 645.81,-83.97"/>
<polygon fill="#63b8ff" stroke="#63b8ff" points="649.22,-84.76 648.33,-74.2 642.44,-83.01 649.22,-84.76"/>
</a>
</g>
</g>
<!-- Node13 -->
<g id="Node000013" class="node">
<title>Node13</title>
<g id="a_Node000013"><a xlink:title=" ">
<polygon fill="#e0e0e0" stroke="#999999" points="287.5,-294 109.5,-294 109.5,-275 287.5,-275 287.5,-294"/>
<text text-anchor="middle" x="198.5" y="-282" font-family="Helvetica,sans-Serif" font-size="10.00">Settings/NamespaceSettings.hpp</text>
</a>
</g>
</g>
<!-- Node5&#45;&gt;Node13 -->
<g id="edge15_Node000005_Node000013" class="edge">
<title>Node5&#45;&gt;Node13</title>
<g id="a_edge15_Node000005_Node000013"><a xlink:title=" ">
<path fill="none" stroke="#63b8ff" d="M349.58,-329.98C319.23,-321.05 271.33,-306.94 237.62,-297.02"/>
<polygon fill="#63b8ff" stroke="#63b8ff" points="238.23,-293.55 227.65,-294.08 236.25,-300.26 238.23,-293.55"/>
</a>
</g>
</g>
<!-- Node6&#45;&gt;Node7 -->
<g id="edge6_Node000006_Node000007" class="edge">
<title>Node6&#45;&gt;Node7</title>
<g id="a_edge6_Node000006_Node000007"><a xlink:title=" ">
<path fill="none" stroke="#63b8ff" d="M301.5,-164.75C301.5,-157.8 301.5,-147.85 301.5,-139.13"/>
<polygon fill="#63b8ff" stroke="#63b8ff" points="305,-139.09 301.5,-129.09 298,-139.09 305,-139.09"/>
</a>
</g>
</g>
<!-- Node10 -->
<g id="Node000010" class="node">
<title>Node10</title>
<g id="a_Node000010"><a xlink:title=" ">
<polygon fill="#e0e0e0" stroke="#999999" points="293,-19 230,-19 230,0 293,0 293,-19"/>
<text text-anchor="middle" x="261.5" y="-7" font-family="Helvetica,sans-Serif" font-size="10.00">Arduino.h</text>
</a>
</g>
</g>
<!-- Node6&#45;&gt;Node10 -->
<g id="edge13_Node000006_Node000010" class="edge">
<title>Node6&#45;&gt;Node10</title>
<g id="a_edge13_Node000006_Node000010"><a xlink:title=" ">
<path fill="none" stroke="#63b8ff" d="M272.36,-164.87C255.15,-158.1 234.76,-146.79 224.5,-129 208.06,-100.51 213.32,-85.93 224.5,-55 228.44,-44.09 236.36,-33.96 243.86,-26.14"/>
<polygon fill="#63b8ff" stroke="#63b8ff" points="246.34,-28.61 251.06,-19.13 241.45,-23.6 246.34,-28.61"/>
</a>
</g>
</g>
<!-- Node12 -->
<g id="Node000012" class="node">
<title>Node12</title>
<g id="a_Node000012"><a xlink:title=" ">
<polygon fill="#e0e0e0" stroke="#999999" points="495,-129 388,-129 388,-110 495,-110 495,-129"/>
<text text-anchor="middle" x="441.5" y="-117" font-family="Helvetica,sans-Serif" font-size="10.00">AH/STL/type_traits</text>
</a>
</g>
</g>
<!-- Node6&#45;&gt;Node12 -->
<g id="edge12_Node000006_Node000012" class="edge">
<title>Node6&#45;&gt;Node12</title>
<g id="a_edge12_Node000006_Node000012"><a xlink:title=" ">
<path fill="none" stroke="#63b8ff" d="M323.99,-164.98C347.02,-156.27 383.04,-142.63 409.13,-132.75"/>
<polygon fill="#63b8ff" stroke="#63b8ff" points="410.48,-135.98 418.6,-129.17 408.01,-129.44 410.48,-135.98"/>
</a>
</g>
</g>
<!-- Node8 -->
<g id="Node000008" class="node">
<title>Node8</title>
<g id="a_Node000008"><a xlink:href="../../d6/d3b/FixArduinoMacros_8hpp.html" target="_top" xlink:title=" ">
<polygon fill="white" stroke="#666666" points="403.5,-74 233.5,-74 233.5,-55 403.5,-55 403.5,-74"/>
<text text-anchor="middle" x="318.5" y="-62" font-family="Helvetica,sans-Serif" font-size="10.00">AH/Math/FixArduinoMacros.hpp</text>
</a>
</g>
</g>
<!-- Node7&#45;&gt;Node8 -->
<g id="edge7_Node000007_Node000008" class="edge">
<title>Node7&#45;&gt;Node8</title>
<g id="a_edge7_Node000007_Node000008"><a xlink:title=" ">
<path fill="none" stroke="#63b8ff" d="M304.31,-109.75C306.56,-102.72 309.8,-92.62 312.62,-83.84"/>
<polygon fill="#63b8ff" stroke="#63b8ff" points="316.02,-84.68 315.75,-74.09 309.36,-82.54 316.02,-84.68"/>
</a>
</g>
</g>
<!-- Node7&#45;&gt;Node11 -->
<g id="edge10_Node000007_Node000011" class="edge">
<title>Node7&#45;&gt;Node11</title>
<g id="a_edge10_Node000007_Node000011"><a xlink:title=" ">
<path fill="none" stroke="#63b8ff" d="M357.57,-109.98C419.3,-100.61 518.47,-85.55 584.05,-75.59"/>
<polygon fill="#63b8ff" stroke="#63b8ff" points="584.92,-79 594.28,-74.04 583.87,-72.08 584.92,-79"/>
</a>
</g>
</g>
<!-- Node9 -->
<g id="Node000009" class="node">
<title>Node9</title>
<g id="a_Node000009"><a xlink:href="../../d1/d65/Warnings_8hpp.html" target="_top" xlink:title=" ">
<polygon fill="white" stroke="#666666" points="563,-19 420,-19 420,0 563,0 563,-19"/>
<text text-anchor="middle" x="491.5" y="-7" font-family="Helvetica,sans-Serif" font-size="10.00">AH/Settings/Warnings.hpp</text>
</a>
</g>
</g>
<!-- Node8&#45;&gt;Node9 -->
<g id="edge8_Node000008_Node000009" class="edge">
<title>Node8&#45;&gt;Node9</title>
<g id="a_edge8_Node000008_Node000009"><a xlink:title=" ">
<path fill="none" stroke="#63b8ff" d="M346.3,-54.98C375.47,-46.05 421.5,-31.94 453.9,-22.02"/>
<polygon fill="#63b8ff" stroke="#63b8ff" points="454.95,-25.36 463.49,-19.08 452.9,-18.66 454.95,-25.36"/>
</a>
</g>
</g>
<!-- Node8&#45;&gt;Node10 -->
<g id="edge9_Node000008_Node000010" class="edge">
<title>Node8&#45;&gt;Node10</title>
<g id="a_edge9_Node000008_Node000010"><a xlink:title=" ">
<path fill="none" stroke="#63b8ff" d="M309.34,-54.98C301,-47.23 288.47,-35.58 278.32,-26.14"/>
<polygon fill="#63b8ff" stroke="#63b8ff" points="280.53,-23.42 270.82,-19.17 275.76,-28.54 280.53,-23.42"/>
</a>
</g>
</g>
<!-- Node11&#45;&gt;Node9 -->
<g id="edge11_Node000011_Node000009" class="edge">
<title>Node11&#45;&gt;Node9</title>
<g id="a_edge11_Node000011_Node000009"><a xlink:title=" ">
<path fill="none" stroke="#63b8ff" d="M624.95,-54.98C598.38,-46.13 556.56,-32.19 526.83,-22.28"/>
<polygon fill="#63b8ff" stroke="#63b8ff" points="527.84,-18.92 517.25,-19.08 525.63,-25.56 527.84,-18.92"/>
</a>
</g>
</g>
<!-- Node14&#45;&gt;Node4 -->
<g id="edge27_Node000014_Node000004" class="edge">
<title>Node14&#45;&gt;Node4</title>
<g id="a_edge27_Node000014_Node000004"><a xlink:title=" ">
<path fill="none" stroke="#63b8ff" d="M684.27,-349.08C650.83,-358.2 594.86,-372.64 554.59,-382.56"/>
<polygon fill="#63b8ff" stroke="#63b8ff" points="553.59,-379.21 544.71,-384.98 555.26,-386 553.59,-379.21"/>
</a>
</g>
</g>
<!-- Node14&#45;&gt;Node11 -->
<g id="edge17_Node000014_Node000011" class="edge">
<title>Node14&#45;&gt;Node11</title>
<g id="a_edge17_Node000014_Node000011"><a xlink:title=" ">
<path fill="none" stroke="#63b8ff" d="M732,-329.93C746.04,-322.61 763.95,-310.6 772.5,-294 798.75,-243.02 799.3,-216.7 774.5,-165 754.79,-123.91 708.91,-94.43 678.83,-78.68"/>
<polygon fill="#63b8ff" stroke="#63b8ff" points="680.17,-75.43 669.67,-74.05 677.02,-81.68 680.17,-75.43"/>
</a>
</g>
</g>
<!-- Node15 -->
<g id="Node000015" class="node">
<title>Node15</title>
<g id="a_Node000015"><a xlink:href="../../d5/d4f/AH_2Settings_2Settings_8hpp.html" target="_top" xlink:title="All user settings and debugging options can be changed here.">
<polygon fill="white" stroke="#666666" points="763,-294 686,-294 686,-275 763,-275 763,-294"/>
<text text-anchor="middle" x="724.5" y="-282" font-family="Helvetica,sans-Serif" font-size="10.00">Settings.hpp</text>
</a>
</g>
</g>
<!-- Node14&#45;&gt;Node15 -->
<g id="edge18_Node000014_Node000015" class="edge">
<title>Node14&#45;&gt;Node15</title>
<g id="a_edge18_Node000014_Node000015"><a xlink:title=" ">
<path fill="none" stroke="#63b8ff" d="M714.48,-329.75C716.07,-322.72 718.36,-312.62 720.35,-303.84"/>
<polygon fill="#63b8ff" stroke="#63b8ff" points="723.76,-304.62 722.56,-294.09 716.93,-303.07 723.76,-304.62"/>
</a>
</g>
</g>
<!-- Node21 -->
<g id="Node000021" class="node">
<title>Node21</title>
<g id="a_Node000021"><a xlink:href="../../d9/d98/TeensyUSBTypes_8hpp.html" target="_top" xlink:title=" ">
<polygon fill="white" stroke="#666666" points="668,-294 495,-294 495,-275 668,-275 668,-294"/>
<text text-anchor="middle" x="581.5" y="-282" font-family="Helvetica,sans-Serif" font-size="10.00">AH/Teensy/TeensyUSBTypes.hpp</text>
</a>
</g>
</g>
<!-- Node14&#45;&gt;Node21 -->
<g id="edge26_Node000014_Node000021" class="edge">
<title>Node14&#45;&gt;Node21</title>
<g id="a_edge26_Node000014_Node000021"><a xlink:title=" ">
<path fill="none" stroke="#63b8ff" d="M691.45,-329.98C670.09,-321.34 636.8,-307.87 612.44,-298.02"/>
<polygon fill="#63b8ff" stroke="#63b8ff" points="613.51,-294.68 602.93,-294.17 610.89,-301.17 613.51,-294.68"/>
</a>
</g>
</g>
<!-- Node16 -->
<g id="Node000016" class="node">
<title>Node16</title>
<g id="a_Node000016"><a xlink:href="../../dc/d50/Frequency_8hpp.html" target="_top" xlink:title=" ">
<polygon fill="white" stroke="#666666" points="765.5,-184 631.5,-184 631.5,-165 765.5,-165 765.5,-184"/>
<text text-anchor="middle" x="698.5" y="-172" font-family="Helvetica,sans-Serif" font-size="10.00">AH/Types/Frequency.hpp</text>
</a>
</g>
</g>
<!-- Node15&#45;&gt;Node16 -->
<g id="edge19_Node000015_Node000016" class="edge">
<title>Node15&#45;&gt;Node16</title>
<g id="a_edge19_Node000015_Node000016"><a xlink:title=" ">
<path fill="none" stroke="#63b8ff" d="M722.37,-274.66C718.14,-257.09 708.6,-217.45 702.94,-193.95"/>
<polygon fill="#63b8ff" stroke="#63b8ff" points="706.33,-193.06 700.58,-184.16 699.52,-194.7 706.33,-193.06"/>
</a>
</g>
</g>
<!-- Node17 -->
<g id="Node000017" class="node">
<title>Node17</title>
<g id="a_Node000017"><a xlink:href="../../d7/d7c/ADCConfig_8hpp.html" target="_top" xlink:title="This file contains the platform&#45;specific ADC resolutions.">
<polygon fill="white" stroke="#666666" points="577,-239 420,-239 420,-220 577,-220 577,-239"/>
<text text-anchor="middle" x="498.5" y="-227" font-family="Helvetica,sans-Serif" font-size="10.00">AH/Hardware/ADCConfig.hpp</text>
</a>
</g>
</g>
<!-- Node15&#45;&gt;Node17 -->
<g id="edge21_Node000015_Node000017" class="edge">
<title>Node15&#45;&gt;Node17</title>
<g id="a_edge21_Node000015_Node000017"><a xlink:title=" ">
<path fill="none" stroke="#63b8ff" d="M688.19,-274.98C649.26,-265.86 587.34,-251.33 544.9,-241.38"/>
<polygon fill="#63b8ff" stroke="#63b8ff" points="545.63,-237.96 535.1,-239.08 544.03,-244.77 545.63,-237.96"/>
</a>
</g>
</g>
<!-- Node18 -->
<g id="Node000018" class="node">
<title>Node18</title>
<g id="a_Node000018"><a xlink:title=" ">
<polygon fill="#e0e0e0" stroke="#999999" points="696,-239 643,-239 643,-220 696,-220 696,-239"/>
<text text-anchor="middle" x="669.5" y="-227" font-family="Helvetica,sans-Serif" font-size="10.00">limits.h</text>
</a>
</g>
</g>
<!-- Node15&#45;&gt;Node18 -->
<g id="edge23_Node000015_Node000018" class="edge">
<title>Node15&#45;&gt;Node18</title>
<g id="a_edge23_Node000015_Node000018"><a xlink:title=" ">
<path fill="none" stroke="#63b8ff" d="M715.42,-274.75C707.41,-267.03 695.54,-255.6 685.88,-246.28"/>
<polygon fill="#63b8ff" stroke="#63b8ff" points="688.04,-243.51 678.41,-239.09 683.19,-248.55 688.04,-243.51"/>
</a>
</g>
</g>
<!-- Node19 -->
<g id="Node000019" class="node">
<title>Node19</title>
<g id="a_Node000019"><a xlink:title=" ">
<polygon fill="#e0e0e0" stroke="#999999" points="875.5,-239 819.5,-239 819.5,-220 875.5,-220 875.5,-239"/>
<text text-anchor="middle" x="847.5" y="-227" font-family="Helvetica,sans-Serif" font-size="10.00">stddef.h</text>
</a>
</g>
</g>
<!-- Node15&#45;&gt;Node19 -->
<g id="edge24_Node000015_Node000019" class="edge">
<title>Node15&#45;&gt;Node19</title>
<g id="a_edge24_Node000015_Node000019"><a xlink:title=" ">
<path fill="none" stroke="#63b8ff" d="M744.26,-274.98C764.23,-266.38 795.3,-252.99 818.15,-243.15"/>
<polygon fill="#63b8ff" stroke="#63b8ff" points="819.58,-246.34 827.38,-239.17 816.81,-239.91 819.58,-246.34"/>
</a>
</g>
</g>
<!-- Node20 -->
<g id="Node000020" class="node">
<title>Node20</title>
<g id="a_Node000020"><a xlink:title=" ">
<polygon fill="#e0e0e0" stroke="#999999" points="987,-239 934,-239 934,-220 987,-220 987,-239"/>
<text text-anchor="middle" x="960.5" y="-227" font-family="Helvetica,sans-Serif" font-size="10.00">stdint.h</text>
</a>
</g>
</g>
<!-- Node15&#45;&gt;Node20 -->
<g id="edge25_Node000015_Node000020" class="edge">
<title>Node15&#45;&gt;Node20</title>
<g id="a_edge25_Node000015_Node000020"><a xlink:title=" ">
<path fill="none" stroke="#63b8ff" d="M762.42,-274.98C806.81,-265.02 879.83,-248.62 923.72,-238.76"/>
<polygon fill="#63b8ff" stroke="#63b8ff" points="924.7,-242.13 933.69,-236.52 923.16,-235.3 924.7,-242.13"/>
</a>
</g>
</g>
<!-- Node16&#45;&gt;Node11 -->
<g id="edge20_Node000016_Node000011" class="edge">
<title>Node16&#45;&gt;Node11</title>
<g id="a_edge20_Node000016_Node000011"><a xlink:title=" ">
<path fill="none" stroke="#63b8ff" d="M694.57,-164.66C686.69,-146.93 668.82,-106.73 658.42,-83.32"/>
<polygon fill="#63b8ff" stroke="#63b8ff" points="661.61,-81.87 654.35,-74.16 655.21,-84.72 661.61,-81.87"/>
</a>
</g>
</g>
<!-- Node17&#45;&gt;Node6 -->
<g id="edge22_Node000017_Node000006" class="edge">
<title>Node17&#45;&gt;Node6</title>
<g id="a_edge22_Node000017_Node000006"><a xlink:title=" ">
<path fill="none" stroke="#63b8ff" d="M466.85,-219.98C433.34,-210.97 380.3,-196.7 343.36,-186.76"/>
<polygon fill="#63b8ff" stroke="#63b8ff" points="343.97,-183.3 333.4,-184.08 342.15,-190.06 343.97,-183.3"/>
</a>
</g>
</g>
<!-- Node25&#45;&gt;Node3 -->
<g id="edge33_Node000025_Node000003" class="edge">
<title>Node25&#45;&gt;Node3</title>
<g id="a_edge33_Node000025_Node000003"><a xlink:title=" ">
<path fill="none" stroke="#63b8ff" d="M147.93,-670.77C144.23,-658.43 137.02,-635.25 129.5,-616 116.54,-582.79 98.85,-545.18 88.36,-523.51"/>
<polygon fill="#63b8ff" stroke="#63b8ff" points="91.37,-521.7 83.84,-514.25 85.08,-524.77 91.37,-521.7"/>
</a>
</g>
</g>
<!-- Node26 -->
<g id="Node000026" class="node">
<title>Node26</title>
<g id="a_Node000026"><a xlink:href="../../d0/d4e/Def_8hpp.html" target="_top" xlink:title=" ">
<polygon fill="white" stroke="#666666" points="494.5,-635 420.5,-635 420.5,-616 494.5,-616 494.5,-635"/>
<text text-anchor="middle" x="457.5" y="-623" font-family="Helvetica,sans-Serif" font-size="10.00">Def/Def.hpp</text>
</a>
</g>
</g>
<!-- Node25&#45;&gt;Node26 -->
<g id="edge34_Node000025_Node000026" class="edge">
<title>Node25&#45;&gt;Node26</title>
<g id="a_edge34_Node000025_Node000026"><a xlink:title=" ">
<path fill="none" stroke="#63b8ff" d="M199.82,-670.98C257.75,-660.99 353.14,-644.52 410.18,-634.67"/>
<polygon fill="#63b8ff" stroke="#63b8ff" points="411.11,-638.06 420.37,-632.91 409.92,-631.16 411.11,-638.06"/>
</a>
</g>
</g>
<!-- Node33 -->
<g id="Node000033" class="node">
<title>Node33</title>
<g id="a_Node000033"><a xlink:title=" ">
<polygon fill="#e0e0e0" stroke="#999999" points="120.5,-635 72.5,-635 72.5,-616 120.5,-616 120.5,-635"/>
<text text-anchor="middle" x="96.5" y="-623" font-family="Helvetica,sans-Serif" font-size="10.00">Print.h</text>
</a>
</g>
</g>
<!-- Node25&#45;&gt;Node33 -->
<g id="edge55_Node000025_Node000033" class="edge">
<title>Node25&#45;&gt;Node33</title>
<g id="a_edge55_Node000025_Node000033"><a xlink:title=" ">
<path fill="none" stroke="#63b8ff" d="M141.58,-670.75C133.72,-663.03 122.07,-651.6 112.58,-642.28"/>
<polygon fill="#63b8ff" stroke="#63b8ff" points="114.84,-639.6 105.25,-635.09 109.94,-644.59 114.84,-639.6"/>
</a>
</g>
</g>
<!-- Node26&#45;&gt;Node13 -->
<g id="edge52_Node000026_Node000013" class="edge">
<title>Node26&#45;&gt;Node13</title>
<g id="a_edge52_Node000026_Node000013"><a xlink:title=" ">
<path fill="none" stroke="#63b8ff" d="M420.3,-620.25C390.4,-615.13 348.83,-604.01 320.5,-580 232.23,-505.21 229.72,-460.94 200.5,-349 196.7,-334.46 196.38,-317.4 196.91,-304.63"/>
<polygon fill="#63b8ff" stroke="#63b8ff" points="200.43,-304.5 197.56,-294.3 193.44,-304.06 200.43,-304.5"/>
</a>
</g>
</g>
<!-- Node26&#45;&gt;Node19 -->
<g id="edge53_Node000026_Node000019" class="edge">
<title>Node26&#45;&gt;Node19</title>
<g id="a_edge53_Node000026_Node000019"><a xlink:title=" ">
<path fill="none" stroke="#63b8ff" d="M494.61,-621.33C595.53,-610.49 867.5,-565.49 867.5,-395.5 867.5,-395.5 867.5,-395.5 867.5,-338.5 867.5,-306.51 858.91,-270.07 852.99,-248.75"/>
<polygon fill="#63b8ff" stroke="#63b8ff" points="856.34,-247.71 850.2,-239.08 849.61,-249.66 856.34,-247.71"/>
</a>
</g>
</g>
<!-- Node26&#45;&gt;Node20 -->
<g id="edge54_Node000026_Node000020" class="edge">
<title>Node26&#45;&gt;Node20</title>
<g id="a_edge54_Node000026_Node000020"><a xlink:title=" ">
<path fill="none" stroke="#63b8ff" d="M494.87,-623.78C608.38,-621.27 943.61,-611.26 980.5,-580 1006.57,-557.91 999.5,-539.67 999.5,-505.5 999.5,-505.5 999.5,-505.5 999.5,-338.5 999.5,-304.92 982.62,-268.78 971.07,-247.98"/>
<polygon fill="#63b8ff" stroke="#63b8ff" points="973.96,-245.98 965.92,-239.08 967.9,-249.49 973.96,-245.98"/>
</a>
</g>
</g>
<!-- Node27 -->
<g id="Node000027" class="node">
<title>Node27</title>
<g id="a_Node000027"><a xlink:href="../../d2/dbc/Cable_8hpp.html" target="_top" xlink:title=" ">
<polygon fill="white" stroke="#666666" points="274,-349 209,-349 209,-330 274,-330 274,-349"/>
<text text-anchor="middle" x="241.5" y="-337" font-family="Helvetica,sans-Serif" font-size="10.00">Cable.hpp</text>
</a>
</g>
</g>
<!-- Node26&#45;&gt;Node27 -->
<g id="edge35_Node000026_Node000027" class="edge">
<title>Node26&#45;&gt;Node27</title>
<g id="a_edge35_Node000026_Node000027"><a xlink:title=" ">
<path fill="none" stroke="#63b8ff" d="M428.96,-615.95C385.96,-601.1 309.5,-566.17 309.5,-505.5 309.5,-505.5 309.5,-505.5 309.5,-448.5 309.5,-410.75 279.38,-375.41 259.23,-355.99"/>
<polygon fill="#63b8ff" stroke="#63b8ff" points="261.54,-353.36 251.83,-349.13 256.78,-358.5 261.54,-353.36"/>
</a>
</g>
</g>
<!-- Node28 -->
<g id="Node000028" class="node">
<title>Node28</title>
<g id="a_Node000028"><a xlink:href="../../d7/d42/Channel_8hpp.html" target="_top" xlink:title=" ">
<polygon fill="white" stroke="#666666" points="152,-349 75,-349 75,-330 152,-330 152,-349"/>
<text text-anchor="middle" x="113.5" y="-337" font-family="Helvetica,sans-Serif" font-size="10.00">Channel.hpp</text>
</a>
</g>
</g>
<!-- Node26&#45;&gt;Node28 -->
<g id="edge38_Node000026_Node000028" class="edge">
<title>Node26&#45;&gt;Node28</title>
<g id="a_edge38_Node000026_Node000028"><a xlink:title=" ">
<path fill="none" stroke="#63b8ff" d="M420.05,-621.25C363.25,-615.65 258.82,-602.58 229.5,-580 191.22,-550.52 138.06,-409.35 119.89,-358.66"/>
<polygon fill="#63b8ff" stroke="#63b8ff" points="123.12,-357.3 116.47,-349.05 116.52,-359.64 123.12,-357.3"/>
</a>
</g>
</g>
<!-- Node29 -->
<g id="Node000029" class="node">
<title>Node29</title>
<g id="a_Node000029"><a xlink:href="../../de/d76/Array_8hpp.html" target="_top" xlink:title=" ">
<polygon fill="white" stroke="#666666" points="650,-514 515,-514 515,-495 650,-495 650,-514"/>
<text text-anchor="middle" x="582.5" y="-502" font-family="Helvetica,sans-Serif" font-size="10.00">AH/Containers/Array.hpp</text>
</a>
</g>
</g>
<!-- Node26&#45;&gt;Node29 -->
<g id="edge41_Node000026_Node000029" class="edge">
<title>Node26&#45;&gt;Node29</title>
<g id="a_edge41_Node000026_Node000029"><a xlink:title=" ">
<path fill="none" stroke="#63b8ff" d="M467.61,-615.79C477.81,-606.94 493.95,-592.74 507.5,-580 528.45,-560.3 551.85,-536.81 566.85,-521.54"/>
<polygon fill="#63b8ff" stroke="#63b8ff" points="569.38,-523.97 573.88,-514.37 564.38,-519.07 569.38,-523.97"/>
</a>
</g>
</g>
<!-- Node31 -->
<g id="Node000031" class="node">
<title>Node31</title>
<g id="a_Node000031"><a xlink:href="../../d4/d35/Hardware-Types_8hpp.html" target="_top" xlink:title=" ">
<polygon fill="white" stroke="#666666" points="971,-580 840,-580 840,-550 971,-550 971,-580"/>
<text text-anchor="start" x="848" y="-568" font-family="Helvetica,sans-Serif" font-size="10.00">AH/Hardware/Hardware</text>
<text text-anchor="middle" x="905.5" y="-557" font-family="Helvetica,sans-Serif" font-size="10.00">&#45;Types.hpp</text>
</a>
</g>
</g>
<!-- Node26&#45;&gt;Node31 -->
<g id="edge47_Node000026_Node000031" class="edge">
<title>Node26&#45;&gt;Node31</title>
<g id="a_edge47_Node000026_Node000031"><a xlink:title=" ">
<path fill="none" stroke="#63b8ff" d="M494.67,-620.66C561.18,-613.65 704.86,-597.84 825.5,-580 826.79,-579.81 828.1,-579.61 829.42,-579.41"/>
<polygon fill="#63b8ff" stroke="#63b8ff" points="830.29,-582.82 839.62,-577.81 829.2,-575.9 830.29,-582.82"/>
</a>
</g>
</g>
<!-- Node32 -->
<g id="Node000032" class="node">
<title>Node32</title>
<g id="a_Node000032"><a xlink:title=" ">
<polygon fill="#e0e0e0" stroke="#999999" points="498.5,-574.5 416.5,-574.5 416.5,-555.5 498.5,-555.5 498.5,-574.5"/>
<text text-anchor="middle" x="457.5" y="-562.5" font-family="Helvetica,sans-Serif" font-size="10.00">AH/STL/limits</text>
</a>
</g>
</g>
<!-- Node26&#45;&gt;Node32 -->
<g id="edge51_Node000026_Node000032" class="edge">
<title>Node26&#45;&gt;Node32</title>
<g id="a_edge51_Node000026_Node000032"><a xlink:title=" ">
<path fill="none" stroke="#63b8ff" d="M457.5,-615.87C457.5,-607.75 457.5,-595.31 457.5,-584.89"/>
<polygon fill="#63b8ff" stroke="#63b8ff" points="461,-584.67 457.5,-574.67 454,-584.67 461,-584.67"/>
</a>
</g>
</g>
<!-- Node27&#45;&gt;Node6 -->
<g id="edge36_Node000027_Node000006" class="edge">
<title>Node27&#45;&gt;Node6</title>
<g id="a_edge36_Node000027_Node000006"><a xlink:title=" ">
<path fill="none" stroke="#63b8ff" d="M258.51,-329.94C271.45,-322.41 288.38,-310.13 296.5,-294 312.65,-261.93 309.11,-218.56 305.22,-194.17"/>
<polygon fill="#63b8ff" stroke="#63b8ff" points="308.63,-193.36 303.42,-184.13 301.74,-194.59 308.63,-193.36"/>
</a>
</g>
</g>
<!-- Node27&#45;&gt;Node13 -->
<g id="edge37_Node000027_Node000013" class="edge">
<title>Node27&#45;&gt;Node13</title>
<g id="a_edge37_Node000027_Node000013"><a xlink:title=" ">
<path fill="none" stroke="#63b8ff" d="M234.4,-329.75C228.33,-322.26 219.41,-311.28 211.99,-302.13"/>
<polygon fill="#63b8ff" stroke="#63b8ff" points="214.49,-299.65 205.47,-294.09 209.05,-304.06 214.49,-299.65"/>
</a>
</g>
</g>
<!-- Node28&#45;&gt;Node6 -->
<g id="edge39_Node000028_Node000006" class="edge">
<title>Node28&#45;&gt;Node6</title>
<g id="a_edge39_Node000028_Node000006"><a xlink:title=" ">
<path fill="none" stroke="#63b8ff" d="M107.92,-329.58C100.58,-316.61 89.82,-292.21 100.5,-275 131.75,-224.66 196.87,-199.01 244.56,-186.48"/>
<polygon fill="#63b8ff" stroke="#63b8ff" points="245.6,-189.83 254.45,-184 243.9,-183.04 245.6,-189.83"/>
</a>
</g>
</g>
<!-- Node28&#45;&gt;Node13 -->
<g id="edge40_Node000028_Node000013" class="edge">
<title>Node28&#45;&gt;Node13</title>
<g id="a_edge40_Node000028_Node000013"><a xlink:title=" ">
<path fill="none" stroke="#63b8ff" d="M127.16,-329.98C140.34,-321.77 160.53,-309.18 176.07,-299.49"/>
<polygon fill="#63b8ff" stroke="#63b8ff" points="177.96,-302.43 184.59,-294.17 174.26,-296.49 177.96,-302.43"/>
</a>
</g>
</g>
<!-- Node29&#45;&gt;Node12 -->
<g id="edge45_Node000029_Node000012" class="edge">
<title>Node29&#45;&gt;Node12</title>
<g id="a_edge45_Node000029_Node000012"><a xlink:title=" ">
<path fill="none" stroke="#63b8ff" d="M585.17,-494.91C593.05,-467.76 613.4,-382.53 576.5,-330 551.73,-294.75 524.17,-314.9 486.5,-294 450.36,-273.94 430.18,-275.87 411.5,-239 394.55,-205.56 415.28,-161.84 429.76,-137.95"/>
<polygon fill="#63b8ff" stroke="#63b8ff" points="432.86,-139.61 435.27,-129.29 426.95,-135.85 432.86,-139.61"/>
</a>
</g>
</g>
<!-- Node29&#45;&gt;Node19 -->
<g id="edge46_Node000029_Node000019" class="edge">
<title>Node29&#45;&gt;Node19</title>
<g id="a_edge46_Node000029_Node000019"><a xlink:title=" ">
<path fill="none" stroke="#63b8ff" d="M650.32,-501.84C723.44,-496 829.5,-474.01 829.5,-395.5 829.5,-395.5 829.5,-395.5 829.5,-338.5 829.5,-306.61 837.23,-270.14 842.56,-248.78"/>
<polygon fill="#63b8ff" stroke="#63b8ff" points="845.95,-249.66 845.07,-239.1 839.17,-247.9 845.95,-249.66"/>
</a>
</g>
</g>
<!-- Node29&#45;&gt;Node24 -->
<g id="edge44_Node000029_Node000024" class="edge">
<title>Node29&#45;&gt;Node24</title>
<g id="a_edge44_Node000029_Node000024"><a xlink:title=" ">
<path fill="none" stroke="#63b8ff" d="M551.49,-494.98C518.67,-485.97 466.7,-471.7 430.51,-461.76"/>
<polygon fill="#63b8ff" stroke="#63b8ff" points="431.32,-458.36 420.75,-459.08 429.47,-465.11 431.32,-458.36"/>
</a>
</g>
</g>
<!-- Node30 -->
<g id="Node000030" class="node">
<title>Node30</title>
<g id="a_Node000030"><a xlink:href="../../d1/d93/Error_8hpp.html" target="_top" xlink:title=" ">
<polygon fill="white" stroke="#666666" points="563.5,-459 459.5,-459 459.5,-440 563.5,-440 563.5,-459"/>
<text text-anchor="middle" x="511.5" y="-447" font-family="Helvetica,sans-Serif" font-size="10.00">AH/Error/Error.hpp</text>
</a>
</g>
</g>
<!-- Node29&#45;&gt;Node30 -->
<g id="edge42_Node000029_Node000030" class="edge">
<title>Node29&#45;&gt;Node30</title>
<g id="a_edge42_Node000029_Node000030"><a xlink:title=" ">
<path fill="none" stroke="#63b8ff" d="M571.09,-494.98C560.39,-487 544.16,-474.88 531.34,-465.31"/>
<polygon fill="#63b8ff" stroke="#63b8ff" points="533.22,-462.35 523.11,-459.17 529.03,-467.96 533.22,-462.35"/>
</a>
</g>
</g>
<!-- Node30&#45;&gt;Node4 -->
<g id="edge43_Node000030_Node000004" class="edge">
<title>Node30&#45;&gt;Node4</title>
<g id="a_edge43_Node000030_Node000004"><a xlink:title=" ">
<path fill="none" stroke="#63b8ff" d="M510.67,-439.75C510.02,-432.8 509.08,-422.85 508.26,-414.13"/>
<polygon fill="#63b8ff" stroke="#63b8ff" points="511.73,-413.72 507.31,-404.09 504.77,-414.37 511.73,-413.72"/>
</a>
</g>
</g>
<!-- Node31&#45;&gt;Node11 -->
<g id="edge49_Node000031_Node000011" class="edge">
<title>Node31&#45;&gt;Node11</title>
<g id="a_edge49_Node000031_Node000011"><a xlink:title=" ">
<path fill="none" stroke="#63b8ff" d="M905.5,-549.67C905.5,-528.14 905.5,-486.17 905.5,-450.5 905.5,-450.5 905.5,-450.5 905.5,-173.5 905.5,-105.68 828.07,-79.81 758.55,-70.25"/>
<polygon fill="#63b8ff" stroke="#63b8ff" points="758.72,-66.74 748.36,-68.95 757.84,-73.69 758.72,-66.74"/>
</a>
</g>
</g>
<!-- Node31&#45;&gt;Node20 -->
<g id="edge50_Node000031_Node000020" class="edge">
<title>Node31&#45;&gt;Node20</title>
<g id="a_edge50_Node000031_Node000020"><a xlink:title=" ">
<path fill="none" stroke="#63b8ff" d="M915.48,-549.7C929.01,-528.89 951.5,-488.56 951.5,-450.5 951.5,-450.5 951.5,-450.5 951.5,-338.5 951.5,-307.08 955.33,-270.7 957.99,-249.2"/>
<polygon fill="#63b8ff" stroke="#63b8ff" points="961.48,-249.52 959.29,-239.16 954.54,-248.63 961.48,-249.52"/>
</a>
</g>
</g>
<!-- Node31&#45;&gt;Node29 -->
<g id="edge48_Node000031_Node000029" class="edge">
<title>Node31&#45;&gt;Node29</title>
<g id="a_edge48_Node000031_Node000029"><a xlink:title=" ">
<path fill="none" stroke="#63b8ff" d="M839.75,-552.09C781.05,-541.46 695.96,-526.05 639.94,-515.9"/>
<polygon fill="#63b8ff" stroke="#63b8ff" points="640.3,-512.41 629.84,-514.07 639.05,-519.3 640.3,-512.41"/>
</a>
</g>
</g>
</g>
</svg>
