<?xml version="1.0" encoding="UTF-8" standalone="no"?>
<!DOCTYPE svg PUBLIC "-//W3C//DTD SVG 1.1//EN"
 "http://www.w3.org/Graphics/SVG/1.1/DTD/svg11.dtd">
<!-- Generated by graphviz version 2.43.0 (0)
 -->
<!-- Title: ManyAddresses&lt; NumBanks &gt; Pages: 1 -->
<svg width="354pt" height="832pt"
 viewBox="0.00 0.00 353.50 832.00" xmlns="http://www.w3.org/2000/svg" xmlns:xlink="http://www.w3.org/1999/xlink">
<g id="graph0" class="graph" transform="scale(1 1) rotate(0) translate(4 828)">
<title>ManyAddresses&lt; NumBanks &gt;</title>
<polygon fill="white" stroke="transparent" points="-4,4 -4,-828 349.5,-828 349.5,4 -4,4"/>
<!-- Node1 -->
<g id="node1" class="node">
<title>Node1</title>
<g id="a_node1"><a xlink:title=" ">
<polygon fill="#bfbfbf" stroke="black" points="102.5,-0.5 102.5,-68.5 272.5,-68.5 272.5,-0.5 102.5,-0.5"/>
<text text-anchor="middle" x="187.5" y="-56.5" font-family="Helvetica,sans-Serif" font-size="10.00">ManyAddresses&lt; NumBanks &gt;</text>
<polyline fill="none" stroke="black" points="102.5,-49.5 272.5,-49.5 "/>
<text text-anchor="middle" x="187.5" y="-37.5" font-family="Helvetica,sans-Serif" font-size="10.00"> </text>
<polyline fill="none" stroke="black" points="102.5,-30.5 272.5,-30.5 "/>
<text text-anchor="start" x="110.5" y="-18.5" font-family="Helvetica,sans-Serif" font-size="10.00">+ ManyAddresses()</text>
<text text-anchor="start" x="110.5" y="-7.5" font-family="Helvetica,sans-Serif" font-size="10.00">+ getActiveAddress()</text>
</a>
</g>
</g>
<!-- Node2 -->
<g id="node2" class="node">
<title>Node2</title>
<g id="a_node2"><a xlink:href="../../dd/d3a/classManyAddresses__Base.html" target="_top" xlink:title="A base class for all MIDIOutputElements that can have one of many addresses.">
<polygon fill="white" stroke="black" points="42.5,-177 42.5,-234 184.5,-234 184.5,-177 42.5,-177"/>
<text text-anchor="middle" x="113.5" y="-222" font-family="Helvetica,sans-Serif" font-size="10.00">ManyAddresses_Base</text>
<polyline fill="none" stroke="black" points="42.5,-215 184.5,-215 "/>
<text text-anchor="middle" x="113.5" y="-203" font-family="Helvetica,sans-Serif" font-size="10.00"> </text>
<polyline fill="none" stroke="black" points="42.5,-196 184.5,-196 "/>
<text text-anchor="start" x="50.5" y="-184" font-family="Helvetica,sans-Serif" font-size="10.00">+ ManyAddresses_Base()</text>
</a>
</g>
</g>
<!-- Node2&#45;&gt;Node1 -->
<g id="edge1" class="edge">
<title>Node2&#45;&gt;Node1</title>
<path fill="none" stroke="midnightblue" d="M129.73,-167.43C142.66,-137.9 160.6,-96.94 173.04,-68.53"/>
<polygon fill="none" stroke="midnightblue" points="126.36,-166.41 125.55,-176.97 132.77,-169.21 126.36,-166.41"/>
</g>
<!-- Node3 -->
<g id="node3" class="node">
<title>Node3</title>
<g id="a_node3"><a xlink:href="../../d2/d4e/classOutputBankableMIDIAddress__Base.html" target="_top" xlink:title="Class for keeping track of the active bank, and allows locking of the bank setting.">
<polygon fill="white" stroke="black" points="0,-425 0,-548 185,-548 185,-425 0,-425"/>
<text text-anchor="middle" x="92.5" y="-536" font-family="Helvetica,sans-Serif" font-size="10.00">OutputBankableMIDIAddress_Base</text>
<polyline fill="none" stroke="black" points="0,-529 185,-529 "/>
<text text-anchor="start" x="8" y="-517" font-family="Helvetica,sans-Serif" font-size="10.00">&#45; lockedSetting</text>
<text text-anchor="start" x="8" y="-506" font-family="Helvetica,sans-Serif" font-size="10.00">&#45; UNLOCKED</text>
<polyline fill="none" stroke="black" points="0,-499 185,-499 "/>
<text text-anchor="start" x="8" y="-487" font-family="Helvetica,sans-Serif" font-size="10.00">+ getRawBankSetting()</text>
<text text-anchor="start" x="8" y="-476" font-family="Helvetica,sans-Serif" font-size="10.00">+ getSelection()</text>
<text text-anchor="start" x="8" y="-465" font-family="Helvetica,sans-Serif" font-size="10.00">+ lock()</text>
<text text-anchor="start" x="8" y="-454" font-family="Helvetica,sans-Serif" font-size="10.00">+ unlock()</text>
<text text-anchor="start" x="8" y="-443" font-family="Helvetica,sans-Serif" font-size="10.00"># OutputBankableMIDIAddress</text>
<text text-anchor="start" x="8" y="-432" font-family="Helvetica,sans-Serif" font-size="10.00">_Base()</text>
</a>
</g>
</g>
<!-- Node3&#45;&gt;Node2 -->
<g id="edge2" class="edge">
<title>Node3&#45;&gt;Node2</title>
<path fill="none" stroke="midnightblue" d="M97.83,-414.65C102.24,-356.06 108.27,-275.95 111.41,-234.27"/>
<polygon fill="none" stroke="midnightblue" points="94.32,-414.73 97.06,-424.96 101.3,-415.25 94.32,-414.73"/>
</g>
<!-- Node4 -->
<g id="node4" class="node">
<title>Node4</title>
<g id="a_node4"><a xlink:href="../../d9/d36/classOutputBank.html" target="_top" xlink:title="A class for changing the address of BankableMIDIOutputs.">
<polygon fill="white" stroke="black" points="29.5,-678.5 29.5,-823.5 155.5,-823.5 155.5,-678.5 29.5,-678.5"/>
<text text-anchor="middle" x="92.5" y="-811.5" font-family="Helvetica,sans-Serif" font-size="10.00">OutputBank</text>
<polyline fill="none" stroke="black" points="29.5,-804.5 155.5,-804.5 "/>
<text text-anchor="start" x="37.5" y="-792.5" font-family="Helvetica,sans-Serif" font-size="10.00">&#45; tracksPerBank</text>
<text text-anchor="start" x="37.5" y="-781.5" font-family="Helvetica,sans-Serif" font-size="10.00">&#45; bankSetting</text>
<text text-anchor="start" x="37.5" y="-770.5" font-family="Helvetica,sans-Serif" font-size="10.00">&#45; selectionOffset</text>
<polyline fill="none" stroke="black" points="29.5,-763.5 155.5,-763.5 "/>
<text text-anchor="start" x="37.5" y="-751.5" font-family="Helvetica,sans-Serif" font-size="10.00">+ OutputBank()</text>
<text text-anchor="start" x="37.5" y="-740.5" font-family="Helvetica,sans-Serif" font-size="10.00">+ select()</text>
<text text-anchor="start" x="37.5" y="-729.5" font-family="Helvetica,sans-Serif" font-size="10.00">+ getSelection()</text>
<text text-anchor="start" x="37.5" y="-718.5" font-family="Helvetica,sans-Serif" font-size="10.00">+ getSelectionOffset()</text>
<text text-anchor="start" x="37.5" y="-707.5" font-family="Helvetica,sans-Serif" font-size="10.00">+ getTracksPerBank()</text>
<text text-anchor="start" x="37.5" y="-696.5" font-family="Helvetica,sans-Serif" font-size="10.00">+ getOffsetOfSetting()</text>
<text text-anchor="start" x="37.5" y="-685.5" font-family="Helvetica,sans-Serif" font-size="10.00">+ getOffset()</text>
</a>
</g>
</g>
<!-- Node4&#45;&gt;Node3 -->
<g id="edge3" class="edge">
<title>Node4&#45;&gt;Node3</title>
<path fill="none" stroke="#404040" d="M92.5,-678.27C92.5,-641.58 92.5,-597.03 92.5,-560.2"/>
<polygon fill="none" stroke="#404040" points="92.5,-560.03 88.5,-554.03 92.5,-548.03 96.5,-554.03 92.5,-560.03"/>
<text text-anchor="middle" x="110.5" y="-652" font-family="Helvetica,sans-Serif" font-size="10.00"> #bank</text>
</g>
<!-- Node5 -->
<g id="node5" class="node">
<title>Node5</title>
<g id="a_node5"><a xlink:href="../../d0/d32/structAH_1_1Array.html" target="_top" xlink:title=" ">
<polygon fill="white" stroke="black" points="211,-116.5 211,-294.5 330,-294.5 330,-116.5 211,-116.5"/>
<text text-anchor="start" x="219" y="-282.5" font-family="Helvetica,sans-Serif" font-size="10.00">Array&lt; MIDIAddress,</text>
<text text-anchor="middle" x="270.5" y="-271.5" font-family="Helvetica,sans-Serif" font-size="10.00"> NumBanks &gt;</text>
<polyline fill="none" stroke="black" points="211,-264.5 330,-264.5 "/>
<text text-anchor="start" x="219" y="-252.5" font-family="Helvetica,sans-Serif" font-size="10.00">+ length</text>
<polyline fill="none" stroke="black" points="211,-245.5 330,-245.5 "/>
<text text-anchor="start" x="219" y="-233.5" font-family="Helvetica,sans-Serif" font-size="10.00">+ operator[]()</text>
<text text-anchor="start" x="219" y="-222.5" font-family="Helvetica,sans-Serif" font-size="10.00">+ operator[]()</text>
<text text-anchor="start" x="219" y="-211.5" font-family="Helvetica,sans-Serif" font-size="10.00">+ begin()</text>
<text text-anchor="start" x="219" y="-200.5" font-family="Helvetica,sans-Serif" font-size="10.00">+ begin()</text>
<text text-anchor="start" x="219" y="-189.5" font-family="Helvetica,sans-Serif" font-size="10.00">+ end()</text>
<text text-anchor="start" x="219" y="-178.5" font-family="Helvetica,sans-Serif" font-size="10.00">+ end()</text>
<text text-anchor="start" x="219" y="-167.5" font-family="Helvetica,sans-Serif" font-size="10.00">+ operator==()</text>
<text text-anchor="start" x="219" y="-156.5" font-family="Helvetica,sans-Serif" font-size="10.00">+ operator!=()</text>
<text text-anchor="start" x="219" y="-145.5" font-family="Helvetica,sans-Serif" font-size="10.00">+ slice()</text>
<text text-anchor="start" x="219" y="-134.5" font-family="Helvetica,sans-Serif" font-size="10.00">+ slice()</text>
<text text-anchor="start" x="219" y="-123.5" font-family="Helvetica,sans-Serif" font-size="10.00">+ cslice()</text>
</a>
</g>
</g>
<!-- Node5&#45;&gt;Node1 -->
<g id="edge4" class="edge">
<title>Node5&#45;&gt;Node1</title>
<path fill="none" stroke="#404040" d="M227.06,-116.04C220.82,-103.34 214.64,-90.76 209.09,-79.45"/>
<polygon fill="none" stroke="#404040" points="209.05,-79.38 202.82,-75.76 203.76,-68.61 210,-72.23 209.05,-79.38"/>
<text text-anchor="middle" x="246" y="-90" font-family="Helvetica,sans-Serif" font-size="10.00"> &#45;addresses</text>
</g>
<!-- Node6 -->
<g id="node6" class="node">
<title>Node6</title>
<g id="a_node6"><a xlink:href="../../d7/d0f/classMIDIAddress.html" target="_top" xlink:title="A type&#45;safe utility class for saving a MIDI address consisting of a 7&#45;bit address,...">
<polygon fill="white" stroke="black" points="203.5,-342.5 203.5,-630.5 345.5,-630.5 345.5,-342.5 203.5,-342.5"/>
<text text-anchor="middle" x="274.5" y="-618.5" font-family="Helvetica,sans-Serif" font-size="10.00">MIDIAddress</text>
<polyline fill="none" stroke="black" points="203.5,-611.5 345.5,-611.5 "/>
<text text-anchor="start" x="211.5" y="-599.5" font-family="Helvetica,sans-Serif" font-size="10.00">&#45; addresses</text>
<polyline fill="none" stroke="black" points="203.5,-592.5 345.5,-592.5 "/>
<text text-anchor="start" x="211.5" y="-580.5" font-family="Helvetica,sans-Serif" font-size="10.00">* MIDIAddress()</text>
<text text-anchor="start" x="211.5" y="-569.5" font-family="Helvetica,sans-Serif" font-size="10.00">* MIDIAddress()</text>
<text text-anchor="start" x="211.5" y="-558.5" font-family="Helvetica,sans-Serif" font-size="10.00">* MIDIAddress()</text>
<text text-anchor="start" x="211.5" y="-547.5" font-family="Helvetica,sans-Serif" font-size="10.00">* MIDIAddress()</text>
<text text-anchor="start" x="211.5" y="-536.5" font-family="Helvetica,sans-Serif" font-size="10.00">* MIDIAddress()</text>
<text text-anchor="start" x="211.5" y="-525.5" font-family="Helvetica,sans-Serif" font-size="10.00">* MIDIAddress()</text>
<text text-anchor="start" x="211.5" y="-514.5" font-family="Helvetica,sans-Serif" font-size="10.00">* invalid()</text>
<text text-anchor="start" x="211.5" y="-503.5" font-family="Helvetica,sans-Serif" font-size="10.00">* operator+=()</text>
<text text-anchor="start" x="211.5" y="-492.5" font-family="Helvetica,sans-Serif" font-size="10.00">* operator&#45;=()</text>
<text text-anchor="start" x="211.5" y="-481.5" font-family="Helvetica,sans-Serif" font-size="10.00">* operator+()</text>
<text text-anchor="start" x="211.5" y="-470.5" font-family="Helvetica,sans-Serif" font-size="10.00">* operator&#45;()</text>
<text text-anchor="start" x="211.5" y="-459.5" font-family="Helvetica,sans-Serif" font-size="10.00">* getAddress()</text>
<text text-anchor="start" x="211.5" y="-448.5" font-family="Helvetica,sans-Serif" font-size="10.00">* getChannel()</text>
<text text-anchor="start" x="211.5" y="-437.5" font-family="Helvetica,sans-Serif" font-size="10.00">* getRawChannel()</text>
<text text-anchor="start" x="211.5" y="-426.5" font-family="Helvetica,sans-Serif" font-size="10.00">* getCableNumber()</text>
<text text-anchor="start" x="211.5" y="-415.5" font-family="Helvetica,sans-Serif" font-size="10.00">* getRawCableNumber()</text>
<text text-anchor="start" x="211.5" y="-404.5" font-family="Helvetica,sans-Serif" font-size="10.00">* operator==()</text>
<text text-anchor="start" x="211.5" y="-393.5" font-family="Helvetica,sans-Serif" font-size="10.00">* operator!=()</text>
<text text-anchor="start" x="211.5" y="-382.5" font-family="Helvetica,sans-Serif" font-size="10.00">* isValid()</text>
<text text-anchor="start" x="211.5" y="-371.5" font-family="Helvetica,sans-Serif" font-size="10.00">* operator bool()</text>
<text text-anchor="start" x="211.5" y="-360.5" font-family="Helvetica,sans-Serif" font-size="10.00">* matchSingle()</text>
<text text-anchor="start" x="211.5" y="-349.5" font-family="Helvetica,sans-Serif" font-size="10.00">* matchAddressInRange()</text>
</a>
</g>
</g>
<!-- Node6&#45;&gt;Node5 -->
<g id="edge5" class="edge">
<title>Node6&#45;&gt;Node5</title>
<path fill="none" stroke="#404040" d="M272.45,-342.32C272.28,-330.43 272.11,-318.58 271.94,-307.11"/>
<polygon fill="none" stroke="#404040" points="271.94,-306.82 267.85,-300.88 271.77,-294.83 275.85,-300.77 271.94,-306.82"/>
<text text-anchor="middle" x="289.5" y="-316" font-family="Helvetica,sans-Serif" font-size="10.00"> +data</text>
</g>
</g>
</svg>
