<?xml version="1.0" encoding="UTF-8" standalone="no"?>
<!DOCTYPE svg PUBLIC "-//W3C//DTD SVG 1.1//EN"
 "http://www.w3.org/Graphics/SVG/1.1/DTD/svg11.dtd">
<!-- Generated by graphviz version 2.43.0 (0)
 -->
<!-- Title: NoteButtonLatched Pages: 1 -->
<svg width="934pt" height="1119pt"
 viewBox="0.00 0.00 933.50 1119.00" xmlns="http://www.w3.org/2000/svg" xmlns:xlink="http://www.w3.org/1999/xlink">
<g id="graph0" class="graph" transform="scale(1 1) rotate(0) translate(4 1115)">
<title>NoteButtonLatched</title>
<!-- Node1 -->
<g id="Node000001" class="node">
<title>Node1</title>
<g id="a_Node000001"><a xlink:title="A class of MIDIOutputElements that read the input of a momentary push button or switch,...">
<polygon fill="#999999" stroke="transparent" points="729,-79 606,-79 606,0 729,0 729,-79"/>
<text text-anchor="start" x="621" y="-66.5" font-family="Helvetica,sans-Serif" font-size="10.00">NoteButtonLatched</text>
<text text-anchor="start" x="666" y="-51.5" font-family="Helvetica,sans-Serif" font-size="10.00"> </text>
<text text-anchor="start" x="610.5" y="-36.5" font-family="Helvetica,sans-Serif" font-size="10.00">+</text>
<text text-anchor="start" x="623.5" y="-36.5" font-family="Helvetica,sans-Serif" font-size="10.00">NoteButtonLatched()</text>
<text text-anchor="start" x="610.5" y="-21.5" font-family="Helvetica,sans-Serif" font-size="10.00">+</text>
<text text-anchor="start" x="623.5" y="-21.5" font-family="Helvetica,sans-Serif" font-size="10.00">setVelocity()</text>
<text text-anchor="start" x="610.5" y="-6.5" font-family="Helvetica,sans-Serif" font-size="10.00">+</text>
<text text-anchor="start" x="623.5" y="-6.5" font-family="Helvetica,sans-Serif" font-size="10.00">getVelocity()</text>
<polygon fill="#666666" stroke="#666666" points="606.5,-61.5 606.5,-61.5 729.5,-61.5 729.5,-61.5 606.5,-61.5"/>
<polygon fill="#666666" stroke="#666666" points="606.5,-46.5 606.5,-46.5 729.5,-46.5 729.5,-46.5 606.5,-46.5"/>
<polygon fill="none" stroke="#666666" points="606,0 606,-79 729,-79 729,0 606,0"/>
</a>
</g>
</g>
<!-- Node2 -->
<g id="Node000002" class="node">
<title>Node2</title>
<g id="a_Node000002"><a xlink:href="../../d3/d88/classMIDIButtonLatched.html" target="_top" xlink:title=" ">
<polygon fill="white" stroke="transparent" points="728.5,-446 606.5,-446 606.5,-116 728.5,-116 728.5,-446"/>
<text text-anchor="start" x="615.5" y="-434" font-family="Helvetica,sans-Serif" font-size="10.00">MIDIButtonLatched&lt;</text>
<text text-anchor="start" x="615.5" y="-423" font-family="Helvetica,sans-Serif" font-size="10.00"> DigitalNoteSender &gt;</text>
<text text-anchor="start" x="610.5" y="-408" font-family="Helvetica,sans-Serif" font-size="10.00">#</text>
<text text-anchor="start" x="623.5" y="-408" font-family="Helvetica,sans-Serif" font-size="10.00">next</text>
<text text-anchor="start" x="610.5" y="-393" font-family="Helvetica,sans-Serif" font-size="10.00">#</text>
<text text-anchor="start" x="623.5" y="-393" font-family="Helvetica,sans-Serif" font-size="10.00">previous</text>
<text text-anchor="start" x="610.5" y="-378" font-family="Helvetica,sans-Serif" font-size="10.00">#</text>
<text text-anchor="start" x="623.5" y="-378" font-family="Helvetica,sans-Serif" font-size="10.00">updatables</text>
<text text-anchor="start" x="613" y="-363" font-family="Helvetica,sans-Serif" font-size="10.00">&#45;</text>
<text text-anchor="start" x="623.5" y="-363" font-family="Helvetica,sans-Serif" font-size="10.00">state</text>
<text text-anchor="start" x="610.5" y="-348" font-family="Helvetica,sans-Serif" font-size="10.00">+</text>
<text text-anchor="start" x="623.5" y="-348" font-family="Helvetica,sans-Serif" font-size="10.00">begin()</text>
<text text-anchor="start" x="610.5" y="-333" font-family="Helvetica,sans-Serif" font-size="10.00">+</text>
<text text-anchor="start" x="623.5" y="-333" font-family="Helvetica,sans-Serif" font-size="10.00">update()</text>
<text text-anchor="start" x="610.5" y="-318" font-family="Helvetica,sans-Serif" font-size="10.00">+</text>
<text text-anchor="start" x="623.5" y="-318" font-family="Helvetica,sans-Serif" font-size="10.00">toggleState()</text>
<text text-anchor="start" x="610.5" y="-303" font-family="Helvetica,sans-Serif" font-size="10.00">+</text>
<text text-anchor="start" x="623.5" y="-303" font-family="Helvetica,sans-Serif" font-size="10.00">getState()</text>
<text text-anchor="start" x="610.5" y="-288" font-family="Helvetica,sans-Serif" font-size="10.00">+</text>
<text text-anchor="start" x="623.5" y="-288" font-family="Helvetica,sans-Serif" font-size="10.00">setState()</text>
<text text-anchor="start" x="610.5" y="-273" font-family="Helvetica,sans-Serif" font-size="10.00">+</text>
<text text-anchor="start" x="623.5" y="-273" font-family="Helvetica,sans-Serif" font-size="10.00">invert()</text>
<text text-anchor="start" x="610.5" y="-258" font-family="Helvetica,sans-Serif" font-size="10.00">+</text>
<text text-anchor="start" x="623.5" y="-258" font-family="Helvetica,sans-Serif" font-size="10.00">getButtonState()</text>
<text text-anchor="start" x="610.5" y="-243" font-family="Helvetica,sans-Serif" font-size="10.00">+</text>
<text text-anchor="start" x="623.5" y="-243" font-family="Helvetica,sans-Serif" font-size="10.00">getAddress()</text>
<text text-anchor="start" x="610.5" y="-228" font-family="Helvetica,sans-Serif" font-size="10.00">+</text>
<text text-anchor="start" x="623.5" y="-228" font-family="Helvetica,sans-Serif" font-size="10.00">setAddressUnsafe()</text>
<text text-anchor="start" x="610.5" y="-213" font-family="Helvetica,sans-Serif" font-size="10.00">#</text>
<text text-anchor="start" x="623.5" y="-213" font-family="Helvetica,sans-Serif" font-size="10.00">MIDIButtonLatched()</text>
<text text-anchor="start" x="612" y="-198" font-family="Helvetica,sans-Serif" font-size="10.00">*</text>
<text text-anchor="start" x="623.5" y="-198" font-family="Helvetica,sans-Serif" font-size="10.00">enable()</text>
<text text-anchor="start" x="612" y="-183" font-family="Helvetica,sans-Serif" font-size="10.00">*</text>
<text text-anchor="start" x="623.5" y="-183" font-family="Helvetica,sans-Serif" font-size="10.00">disable()</text>
<text text-anchor="start" x="612" y="-168" font-family="Helvetica,sans-Serif" font-size="10.00">*</text>
<text text-anchor="start" x="623.5" y="-168" font-family="Helvetica,sans-Serif" font-size="10.00">isEnabled()</text>
<text text-anchor="start" x="612" y="-153" font-family="Helvetica,sans-Serif" font-size="10.00">*</text>
<text text-anchor="start" x="623.5" y="-153" font-family="Helvetica,sans-Serif" font-size="10.00">moveDown()</text>
<text text-anchor="start" x="612" y="-138" font-family="Helvetica,sans-Serif" font-size="10.00">*</text>
<text text-anchor="start" x="623.5" y="-138" font-family="Helvetica,sans-Serif" font-size="10.00">beginAll()</text>
<text text-anchor="start" x="612" y="-123" font-family="Helvetica,sans-Serif" font-size="10.00">*</text>
<text text-anchor="start" x="623.5" y="-123" font-family="Helvetica,sans-Serif" font-size="10.00">updateAll()</text>
<polygon fill="#666666" stroke="#666666" points="606.5,-418 606.5,-418 728.5,-418 728.5,-418 606.5,-418"/>
<polygon fill="#666666" stroke="#666666" points="606.5,-358 606.5,-358 621.5,-358 621.5,-358 606.5,-358"/>
<polygon fill="#666666" stroke="#666666" points="621.5,-358 621.5,-358 728.5,-358 728.5,-358 621.5,-358"/>
<polygon fill="none" stroke="#666666" points="606.5,-116 606.5,-446 728.5,-446 728.5,-116 606.5,-116"/>
</a>
</g>
</g>
<!-- Node2&#45;&gt;Node1 -->
<g id="edge1_Node000001_Node000002" class="edge">
<title>Node2&#45;&gt;Node1</title>
<g id="a_edge1_Node000001_Node000002"><a xlink:title=" ">
<path fill="none" stroke="#63b8ff" d="M667.5,-105.75C667.5,-96.15 667.5,-87.14 667.5,-79.07"/>
<polygon fill="none" stroke="#63b8ff" points="664,-105.95 667.5,-115.95 671,-105.95 664,-105.95"/>
</a>
</g>
</g>
<!-- Node3 -->
<g id="Node000003" class="node">
<title>Node3</title>
<g id="a_Node000003"><a xlink:href="../../d1/d55/classAH_1_1Updatable.html" target="_top" xlink:title="A super class for object that have to be updated regularly.">
<polygon fill="white" stroke="transparent" points="485,-750.5 378,-750.5 378,-656.5 485,-656.5 485,-750.5"/>
<text text-anchor="start" x="383.5" y="-738.5" font-family="Helvetica,sans-Serif" font-size="10.00">MIDIOutputElement</text>
<text text-anchor="start" x="430" y="-723.5" font-family="Helvetica,sans-Serif" font-size="10.00"> </text>
<text text-anchor="start" x="391" y="-708.5" font-family="Helvetica,sans-Serif" font-size="10.00">*</text>
<text text-anchor="start" x="409.5" y="-708.5" font-family="Helvetica,sans-Serif" font-size="10.00">begin()</text>
<text text-anchor="start" x="391" y="-693.5" font-family="Helvetica,sans-Serif" font-size="10.00">*</text>
<text text-anchor="start" x="409.5" y="-693.5" font-family="Helvetica,sans-Serif" font-size="10.00">update()</text>
<text text-anchor="start" x="391" y="-678.5" font-family="Helvetica,sans-Serif" font-size="10.00">*</text>
<text text-anchor="start" x="409.5" y="-678.5" font-family="Helvetica,sans-Serif" font-size="10.00">beginAll()</text>
<text text-anchor="start" x="391" y="-663.5" font-family="Helvetica,sans-Serif" font-size="10.00">*</text>
<text text-anchor="start" x="409.5" y="-663.5" font-family="Helvetica,sans-Serif" font-size="10.00">updateAll()</text>
<polygon fill="#666666" stroke="#666666" points="378.5,-733.5 378.5,-733.5 485.5,-733.5 485.5,-733.5 378.5,-733.5"/>
<polygon fill="#666666" stroke="#666666" points="378.5,-718.5 378.5,-718.5 485.5,-718.5 485.5,-718.5 378.5,-718.5"/>
<polygon fill="none" stroke="#666666" points="378,-656.5 378,-750.5 485,-750.5 485,-656.5 378,-656.5"/>
</a>
</g>
</g>
<!-- Node3&#45;&gt;Node2 -->
<g id="edge2_Node000002_Node000003" class="edge">
<title>Node3&#45;&gt;Node2</title>
<g id="a_edge2_Node000002_Node000003"><a xlink:title=" ">
<path fill="none" stroke="#63b8ff" d="M445.22,-646.3C455.82,-607.79 472.42,-556.25 494.5,-514 525.16,-455.34 570.09,-395.61 606.47,-351.45"/>
<polygon fill="none" stroke="#63b8ff" points="441.75,-645.73 442.52,-656.29 448.51,-647.55 441.75,-645.73"/>
</a>
</g>
</g>
<!-- Node4 -->
<g id="Node000004" class="node">
<title>Node4</title>
<g id="a_Node000004"><a xlink:href="../../d8/d1a/classAH_1_1UpdatableCRTP.html" target="_top" xlink:title=" ">
<polygon fill="white" stroke="transparent" points="304,-1111 157,-1111 157,-946 304,-946 304,-1111"/>
<text text-anchor="start" x="162.5" y="-1098.5" font-family="Helvetica,sans-Serif" font-size="10.00">UpdatableCRTP&lt; Updatable</text>
<text text-anchor="start" x="170.5" y="-1087.5" font-family="Helvetica,sans-Serif" font-size="10.00">&lt; NormalUpdatable &gt; &gt;</text>
<text text-anchor="start" x="170" y="-1072.5" font-family="Helvetica,sans-Serif" font-size="10.00">#</text>
<text text-anchor="start" x="191.5" y="-1072.5" font-family="Helvetica,sans-Serif" font-size="10.00">next</text>
<text text-anchor="start" x="170" y="-1057.5" font-family="Helvetica,sans-Serif" font-size="10.00">#</text>
<text text-anchor="start" x="191.5" y="-1057.5" font-family="Helvetica,sans-Serif" font-size="10.00">previous</text>
<text text-anchor="start" x="170" y="-1042.5" font-family="Helvetica,sans-Serif" font-size="10.00">+</text>
<text text-anchor="start" x="191.5" y="-1042.5" font-family="Helvetica,sans-Serif" font-size="10.00">~UpdatableCRTP()</text>
<text text-anchor="start" x="170" y="-1027.5" font-family="Helvetica,sans-Serif" font-size="10.00">#</text>
<text text-anchor="start" x="191.5" y="-1027.5" font-family="Helvetica,sans-Serif" font-size="10.00">UpdatableCRTP()</text>
<text text-anchor="start" x="170" y="-1012.5" font-family="Helvetica,sans-Serif" font-size="10.00">#</text>
<text text-anchor="start" x="191.5" y="-1012.5" font-family="Helvetica,sans-Serif" font-size="10.00">operator=()</text>
<text text-anchor="start" x="171.5" y="-997.5" font-family="Helvetica,sans-Serif" font-size="10.00">*</text>
<text text-anchor="start" x="191.5" y="-997.5" font-family="Helvetica,sans-Serif" font-size="10.00">enable()</text>
<text text-anchor="start" x="171.5" y="-982.5" font-family="Helvetica,sans-Serif" font-size="10.00">*</text>
<text text-anchor="start" x="191.5" y="-982.5" font-family="Helvetica,sans-Serif" font-size="10.00">disable()</text>
<text text-anchor="start" x="171.5" y="-967.5" font-family="Helvetica,sans-Serif" font-size="10.00">*</text>
<text text-anchor="start" x="191.5" y="-967.5" font-family="Helvetica,sans-Serif" font-size="10.00">isEnabled()</text>
<text text-anchor="start" x="171.5" y="-952.5" font-family="Helvetica,sans-Serif" font-size="10.00">*</text>
<text text-anchor="start" x="191.5" y="-952.5" font-family="Helvetica,sans-Serif" font-size="10.00">moveDown()</text>
<polygon fill="#666666" stroke="#666666" points="157.5,-1082.5 157.5,-1082.5 304.5,-1082.5 304.5,-1082.5 157.5,-1082.5"/>
<polygon fill="#666666" stroke="#666666" points="157.5,-1052.5 157.5,-1052.5 189.5,-1052.5 189.5,-1052.5 157.5,-1052.5"/>
<polygon fill="#666666" stroke="#666666" points="189.5,-1052.5 189.5,-1052.5 304.5,-1052.5 304.5,-1052.5 189.5,-1052.5"/>
<polygon fill="none" stroke="#666666" points="157,-946 157,-1111 304,-1111 304,-946 157,-946"/>
</a>
</g>
</g>
<!-- Node4&#45;&gt;Node3 -->
<g id="edge3_Node000003_Node000004" class="edge">
<title>Node4&#45;&gt;Node3</title>
<g id="a_edge3_Node000003_Node000004"><a xlink:title=" ">
<path fill="none" stroke="#63b8ff" d="M311.37,-957.13C330.31,-937.77 349.12,-915.78 363.5,-893 391.63,-848.43 410.28,-790.59 420.82,-750.81"/>
<polygon fill="none" stroke="#63b8ff" points="308.69,-954.87 304.12,-964.42 313.65,-959.8 308.69,-954.87"/>
</a>
</g>
</g>
<!-- Node6 -->
<g id="Node000006" class="node">
<title>Node6</title>
<g id="a_Node000006"><a xlink:href="../../d1/d55/classAH_1_1Updatable.html" target="_top" xlink:title=" ">
<polygon fill="white" stroke="transparent" points="254.5,-795.5 84.5,-795.5 84.5,-611.5 254.5,-611.5 254.5,-795.5"/>
<text text-anchor="start" x="89.5" y="-783.5" font-family="Helvetica,sans-Serif" font-size="10.00">Updatable&lt; NormalUpdatable &gt;</text>
<text text-anchor="start" x="109.5" y="-768.5" font-family="Helvetica,sans-Serif" font-size="10.00">#</text>
<text text-anchor="start" x="143.5" y="-768.5" font-family="Helvetica,sans-Serif" font-size="10.00">next</text>
<text text-anchor="start" x="109.5" y="-753.5" font-family="Helvetica,sans-Serif" font-size="10.00">#</text>
<text text-anchor="start" x="143.5" y="-753.5" font-family="Helvetica,sans-Serif" font-size="10.00">previous</text>
<text text-anchor="start" x="109.5" y="-738.5" font-family="Helvetica,sans-Serif" font-size="10.00">#</text>
<text text-anchor="start" x="143.5" y="-738.5" font-family="Helvetica,sans-Serif" font-size="10.00">updatables</text>
<text text-anchor="start" x="111" y="-723.5" font-family="Helvetica,sans-Serif" font-size="10.00">*</text>
<text text-anchor="start" x="143.5" y="-723.5" font-family="Helvetica,sans-Serif" font-size="10.00">begin()</text>
<text text-anchor="start" x="111" y="-708.5" font-family="Helvetica,sans-Serif" font-size="10.00">*</text>
<text text-anchor="start" x="143.5" y="-708.5" font-family="Helvetica,sans-Serif" font-size="10.00">update()</text>
<text text-anchor="start" x="111" y="-693.5" font-family="Helvetica,sans-Serif" font-size="10.00">*</text>
<text text-anchor="start" x="143.5" y="-693.5" font-family="Helvetica,sans-Serif" font-size="10.00">beginAll()</text>
<text text-anchor="start" x="111" y="-678.5" font-family="Helvetica,sans-Serif" font-size="10.00">*</text>
<text text-anchor="start" x="143.5" y="-678.5" font-family="Helvetica,sans-Serif" font-size="10.00">updateAll()</text>
<text text-anchor="start" x="111" y="-663.5" font-family="Helvetica,sans-Serif" font-size="10.00">*</text>
<text text-anchor="start" x="143.5" y="-663.5" font-family="Helvetica,sans-Serif" font-size="10.00">enable()</text>
<text text-anchor="start" x="111" y="-648.5" font-family="Helvetica,sans-Serif" font-size="10.00">*</text>
<text text-anchor="start" x="143.5" y="-648.5" font-family="Helvetica,sans-Serif" font-size="10.00">disable()</text>
<text text-anchor="start" x="111" y="-633.5" font-family="Helvetica,sans-Serif" font-size="10.00">*</text>
<text text-anchor="start" x="143.5" y="-633.5" font-family="Helvetica,sans-Serif" font-size="10.00">isEnabled()</text>
<text text-anchor="start" x="111" y="-618.5" font-family="Helvetica,sans-Serif" font-size="10.00">*</text>
<text text-anchor="start" x="143.5" y="-618.5" font-family="Helvetica,sans-Serif" font-size="10.00">moveDown()</text>
<polygon fill="#666666" stroke="#666666" points="84.5,-778.5 84.5,-778.5 254.5,-778.5 254.5,-778.5 84.5,-778.5"/>
<polygon fill="#666666" stroke="#666666" points="84.5,-733.5 84.5,-733.5 141.5,-733.5 141.5,-733.5 84.5,-733.5"/>
<polygon fill="#666666" stroke="#666666" points="141.5,-733.5 141.5,-733.5 254.5,-733.5 254.5,-733.5 141.5,-733.5"/>
<polygon fill="none" stroke="#666666" points="84.5,-611.5 84.5,-795.5 254.5,-795.5 254.5,-611.5 84.5,-611.5"/>
</a>
</g>
</g>
<!-- Node4&#45;&gt;Node6 -->
<g id="edge6_Node000006_Node000004" class="edge">
<title>Node4&#45;&gt;Node6</title>
<g id="a_edge6_Node000006_Node000004"><a xlink:title=" ">
<path fill="none" stroke="#63b8ff" d="M213.2,-935.9C204.91,-891.98 195,-839.53 186.72,-795.67"/>
<polygon fill="none" stroke="#63b8ff" points="209.81,-936.82 215.11,-945.99 216.69,-935.52 209.81,-936.82"/>
</a>
</g>
</g>
<!-- Node5 -->
<g id="Node000005" class="node">
<title>Node5</title>
<g id="a_Node000005"><a xlink:href="../../d4/d23/classDoublyLinkable.html" target="_top" xlink:title=" ">
<polygon fill="white" stroke="transparent" points="147,-326 0,-326 0,-236 147,-236 147,-326"/>
<text text-anchor="start" x="5.5" y="-314" font-family="Helvetica,sans-Serif" font-size="10.00">DoublyLinkable&lt; Updatable</text>
<text text-anchor="start" x="13.5" y="-303" font-family="Helvetica,sans-Serif" font-size="10.00">&lt; NormalUpdatable &gt; &gt;</text>
<text text-anchor="start" x="72" y="-288" font-family="Helvetica,sans-Serif" font-size="10.00"> </text>
<text text-anchor="start" x="13" y="-273" font-family="Helvetica,sans-Serif" font-size="10.00">#</text>
<text text-anchor="start" x="34.5" y="-273" font-family="Helvetica,sans-Serif" font-size="10.00">~DoublyLinkable()</text>
<text text-anchor="start" x="13" y="-258" font-family="Helvetica,sans-Serif" font-size="10.00">#</text>
<text text-anchor="start" x="34.5" y="-258" font-family="Helvetica,sans-Serif" font-size="10.00">DoublyLinkable()</text>
<text text-anchor="start" x="13" y="-243" font-family="Helvetica,sans-Serif" font-size="10.00">#</text>
<text text-anchor="start" x="34.5" y="-243" font-family="Helvetica,sans-Serif" font-size="10.00">operator=()</text>
<polygon fill="#666666" stroke="#666666" points="0.5,-298 0.5,-298 147.5,-298 147.5,-298 0.5,-298"/>
<polygon fill="#666666" stroke="#666666" points="0.5,-283 0.5,-283 147.5,-283 147.5,-283 0.5,-283"/>
<polygon fill="none" stroke="#666666" points="0,-236 0,-326 147,-326 147,-236 0,-236"/>
</a>
</g>
</g>
<!-- Node5&#45;&gt;Node4 -->
<g id="edge4_Node000004_Node000005" class="edge">
<title>Node5&#45;&gt;Node4</title>
<g id="a_edge4_Node000004_Node000005"><a xlink:title=" ">
<path fill="none" stroke="#63b8ff" d="M59.46,-336C33.68,-446.55 -11.06,-704.1 75.5,-893 92.57,-930.25 125.58,-961.17 156.77,-983.94"/>
<polygon fill="none" stroke="#63b8ff" points="62.91,-336.63 61.81,-326.09 56.1,-335.01 62.91,-336.63"/>
</a>
</g>
</g>
<!-- Node6&#45;&gt;Node5 -->
<g id="edge5_Node000005_Node000006" class="edge">
<title>Node6&#45;&gt;Node5</title>
<g id="a_edge5_Node000005_Node000006"><a xlink:title=" ">
<path fill="none" stroke="#63b8ff" d="M148.67,-611.26C129.68,-528.09 102.24,-407.87 86.3,-338.05"/>
<polygon fill="none" stroke="#63b8ff" points="86.22,-337.74 80.99,-332.78 83.55,-326.04 88.79,-331 86.22,-337.74"/>
</a>
</g>
<text text-anchor="start" x="125" y="-485" font-family="Helvetica,sans-Serif" font-size="10.00" fill="grey">#next</text>
<text text-anchor="start" x="125" y="-470" font-family="Helvetica,sans-Serif" font-size="10.00" fill="grey">#previous</text>
</g>
<!-- Node7 -->
<g id="Node000007" class="node">
<title>Node7</title>
<g id="a_Node000007"><a xlink:href="../../dd/d16/classDoublyLinkedList.html" target="_top" xlink:title=" ">
<polygon fill="white" stroke="transparent" points="352,-393.5 197,-393.5 197,-168.5 352,-168.5 352,-393.5"/>
<text text-anchor="start" x="202.5" y="-381" font-family="Helvetica,sans-Serif" font-size="10.00">DoublyLinkedList&lt; Updatable</text>
<text text-anchor="start" x="214.5" y="-370" font-family="Helvetica,sans-Serif" font-size="10.00">&lt; NormalUpdatable &gt; &gt;</text>
<text text-anchor="start" x="273" y="-355" font-family="Helvetica,sans-Serif" font-size="10.00"> </text>
<text text-anchor="start" x="217" y="-340" font-family="Helvetica,sans-Serif" font-size="10.00">+</text>
<text text-anchor="start" x="245.5" y="-340" font-family="Helvetica,sans-Serif" font-size="10.00">append()</text>
<text text-anchor="start" x="217" y="-325" font-family="Helvetica,sans-Serif" font-size="10.00">+</text>
<text text-anchor="start" x="245.5" y="-325" font-family="Helvetica,sans-Serif" font-size="10.00">insertBefore()</text>
<text text-anchor="start" x="217" y="-310" font-family="Helvetica,sans-Serif" font-size="10.00">+</text>
<text text-anchor="start" x="245.5" y="-310" font-family="Helvetica,sans-Serif" font-size="10.00">insertSorted()</text>
<text text-anchor="start" x="217" y="-295" font-family="Helvetica,sans-Serif" font-size="10.00">+</text>
<text text-anchor="start" x="245.5" y="-295" font-family="Helvetica,sans-Serif" font-size="10.00">remove()</text>
<text text-anchor="start" x="217" y="-280" font-family="Helvetica,sans-Serif" font-size="10.00">+</text>
<text text-anchor="start" x="245.5" y="-280" font-family="Helvetica,sans-Serif" font-size="10.00">moveDown()</text>
<text text-anchor="start" x="217" y="-265" font-family="Helvetica,sans-Serif" font-size="10.00">+</text>
<text text-anchor="start" x="245.5" y="-265" font-family="Helvetica,sans-Serif" font-size="10.00">couldContain()</text>
<text text-anchor="start" x="217" y="-250" font-family="Helvetica,sans-Serif" font-size="10.00">+</text>
<text text-anchor="start" x="245.5" y="-250" font-family="Helvetica,sans-Serif" font-size="10.00">begin()</text>
<text text-anchor="start" x="217" y="-235" font-family="Helvetica,sans-Serif" font-size="10.00">+</text>
<text text-anchor="start" x="245.5" y="-235" font-family="Helvetica,sans-Serif" font-size="10.00">end()</text>
<text text-anchor="start" x="217" y="-220" font-family="Helvetica,sans-Serif" font-size="10.00">+</text>
<text text-anchor="start" x="245.5" y="-220" font-family="Helvetica,sans-Serif" font-size="10.00">rbegin()</text>
<text text-anchor="start" x="217" y="-205" font-family="Helvetica,sans-Serif" font-size="10.00">+</text>
<text text-anchor="start" x="245.5" y="-205" font-family="Helvetica,sans-Serif" font-size="10.00">rend()</text>
<text text-anchor="start" x="217" y="-190" font-family="Helvetica,sans-Serif" font-size="10.00">+</text>
<text text-anchor="start" x="245.5" y="-190" font-family="Helvetica,sans-Serif" font-size="10.00">getFirst()</text>
<text text-anchor="start" x="217" y="-175" font-family="Helvetica,sans-Serif" font-size="10.00">+</text>
<text text-anchor="start" x="245.5" y="-175" font-family="Helvetica,sans-Serif" font-size="10.00">getLast()</text>
<polygon fill="#666666" stroke="#666666" points="197.5,-365 197.5,-365 352.5,-365 352.5,-365 197.5,-365"/>
<polygon fill="#666666" stroke="#666666" points="197.5,-350 197.5,-350 352.5,-350 352.5,-350 197.5,-350"/>
<polygon fill="none" stroke="#666666" points="197,-168.5 197,-393.5 352,-393.5 352,-168.5 197,-168.5"/>
</a>
</g>
</g>
<!-- Node6&#45;&gt;Node7 -->
<g id="edge8_Node000007_Node000006" class="edge">
<title>Node6&#45;&gt;Node7</title>
<g id="a_edge8_Node000007_Node000006"><a xlink:title=" ">
<path fill="none" stroke="#63b8ff" d="M192.28,-611.26C207.33,-550.99 227.24,-471.26 243.7,-405.36"/>
<polygon fill="none" stroke="#63b8ff" points="243.71,-405.29 241.29,-398.5 246.62,-393.64 249.05,-400.44 243.71,-405.29"/>
</a>
</g>
<text text-anchor="start" x="232" y="-485" font-family="Helvetica,sans-Serif" font-size="10.00" fill="grey">&#45;first</text>
<text text-anchor="start" x="232" y="-470" font-family="Helvetica,sans-Serif" font-size="10.00" fill="grey">&#45;last</text>
</g>
<!-- Node7&#45;&gt;Node4 -->
<g id="edge7_Node000004_Node000007" class="edge">
<title>Node7&#45;&gt;Node4</title>
<g id="a_edge7_Node000004_Node000007"><a xlink:title=" ">
<path fill="none" stroke="#63b8ff" d="M279.9,-393.76C284.13,-516.69 286.02,-719.8 263.5,-893 261.76,-906.37 259.2,-920.34 256.26,-933.99"/>
<polygon fill="none" stroke="#63b8ff" points="256.22,-934.19 258.81,-940.92 253.59,-945.9 251,-939.17 256.22,-934.19"/>
</a>
</g>
<text text-anchor="start" x="287" y="-700.5" font-family="Helvetica,sans-Serif" font-size="10.00" fill="grey">#updatables</text>
</g>
<!-- Node8 -->
<g id="Node000008" class="node">
<title>Node8</title>
<g id="a_Node000008"><a xlink:href="../../de/d0d/classAH_1_1Button.html" target="_top" xlink:title="A class for reading and debouncing buttons and switches.">
<polygon fill="white" stroke="transparent" points="635.5,-818 503.5,-818 503.5,-589 635.5,-589 635.5,-818"/>
<text text-anchor="start" x="553" y="-805.5" font-family="Helvetica,sans-Serif" font-size="10.00">Button</text>
<text text-anchor="start" x="510" y="-790.5" font-family="Helvetica,sans-Serif" font-size="10.00">&#45;</text>
<text text-anchor="start" x="520.5" y="-790.5" font-family="Helvetica,sans-Serif" font-size="10.00">debounceTime</text>
<text text-anchor="start" x="507.5" y="-775.5" font-family="Helvetica,sans-Serif" font-size="10.00">+</text>
<text text-anchor="start" x="520.5" y="-775.5" font-family="Helvetica,sans-Serif" font-size="10.00">Button()</text>
<text text-anchor="start" x="507.5" y="-760.5" font-family="Helvetica,sans-Serif" font-size="10.00">+</text>
<text text-anchor="start" x="520.5" y="-760.5" font-family="Helvetica,sans-Serif" font-size="10.00">Button()</text>
<text text-anchor="start" x="507.5" y="-745.5" font-family="Helvetica,sans-Serif" font-size="10.00">+</text>
<text text-anchor="start" x="520.5" y="-745.5" font-family="Helvetica,sans-Serif" font-size="10.00">Button()</text>
<text text-anchor="start" x="507.5" y="-730.5" font-family="Helvetica,sans-Serif" font-size="10.00">+</text>
<text text-anchor="start" x="520.5" y="-730.5" font-family="Helvetica,sans-Serif" font-size="10.00">begin()</text>
<text text-anchor="start" x="507.5" y="-715.5" font-family="Helvetica,sans-Serif" font-size="10.00">+</text>
<text text-anchor="start" x="520.5" y="-715.5" font-family="Helvetica,sans-Serif" font-size="10.00">invert()</text>
<text text-anchor="start" x="507.5" y="-700.5" font-family="Helvetica,sans-Serif" font-size="10.00">+</text>
<text text-anchor="start" x="520.5" y="-700.5" font-family="Helvetica,sans-Serif" font-size="10.00">update()</text>
<text text-anchor="start" x="507.5" y="-685.5" font-family="Helvetica,sans-Serif" font-size="10.00">+</text>
<text text-anchor="start" x="520.5" y="-685.5" font-family="Helvetica,sans-Serif" font-size="10.00">getState()</text>
<text text-anchor="start" x="507.5" y="-670.5" font-family="Helvetica,sans-Serif" font-size="10.00">+</text>
<text text-anchor="start" x="520.5" y="-670.5" font-family="Helvetica,sans-Serif" font-size="10.00">previousBounceTime()</text>
<text text-anchor="start" x="507.5" y="-655.5" font-family="Helvetica,sans-Serif" font-size="10.00">+</text>
<text text-anchor="start" x="520.5" y="-655.5" font-family="Helvetica,sans-Serif" font-size="10.00">stableTime()</text>
<text text-anchor="start" x="507.5" y="-640.5" font-family="Helvetica,sans-Serif" font-size="10.00">+</text>
<text text-anchor="start" x="520.5" y="-640.5" font-family="Helvetica,sans-Serif" font-size="10.00">stableTime()</text>
<text text-anchor="start" x="507.5" y="-625.5" font-family="Helvetica,sans-Serif" font-size="10.00">+</text>
<text text-anchor="start" x="520.5" y="-625.5" font-family="Helvetica,sans-Serif" font-size="10.00">getName()</text>
<text text-anchor="start" x="507.5" y="-610.5" font-family="Helvetica,sans-Serif" font-size="10.00">+</text>
<text text-anchor="start" x="520.5" y="-610.5" font-family="Helvetica,sans-Serif" font-size="10.00">setDebounceTime()</text>
<text text-anchor="start" x="507.5" y="-595.5" font-family="Helvetica,sans-Serif" font-size="10.00">+</text>
<text text-anchor="start" x="520.5" y="-595.5" font-family="Helvetica,sans-Serif" font-size="10.00">getDebounceTime()</text>
<polygon fill="#666666" stroke="#666666" points="503.5,-800.5 503.5,-800.5 635.5,-800.5 635.5,-800.5 503.5,-800.5"/>
<polygon fill="#666666" stroke="#666666" points="503.5,-785.5 503.5,-785.5 518.5,-785.5 518.5,-785.5 503.5,-785.5"/>
<polygon fill="#666666" stroke="#666666" points="518.5,-785.5 518.5,-785.5 635.5,-785.5 635.5,-785.5 518.5,-785.5"/>
<polygon fill="none" stroke="#666666" points="503.5,-589 503.5,-818 635.5,-818 635.5,-589 503.5,-589"/>
</a>
</g>
</g>
<!-- Node8&#45;&gt;Node2 -->
<g id="edge9_Node000002_Node000008" class="edge">
<title>Node8&#45;&gt;Node2</title>
<g id="a_edge9_Node000002_Node000008"><a xlink:title=" ">
<path fill="none" stroke="#63b8ff" d="M595.96,-588.98C605.35,-548.68 616.15,-502.31 626.48,-458.03"/>
<polygon fill="none" stroke="#63b8ff" points="626.51,-457.9 623.97,-451.15 629.23,-446.21 631.76,-452.96 626.51,-457.9"/>
</a>
</g>
<text text-anchor="start" x="627.5" y="-477" font-family="Helvetica,sans-Serif" font-size="10.00" fill="grey">&#45;button</text>
</g>
<!-- Node9 -->
<g id="Node000009" class="node">
<title>Node9</title>
<g id="a_Node000009"><a xlink:href="../../d7/de2/structAH_1_1ExtIO_1_1pin__t.html" target="_top" xlink:title="Type for storing pin numbers of Extended Input/Output elements.">
<polygon fill="white" stroke="transparent" points="530,-1105.5 443,-1105.5 443,-951.5 530,-951.5 530,-1105.5"/>
<text text-anchor="start" x="474.5" y="-1093.5" font-family="Helvetica,sans-Serif" font-size="10.00">pin_t</text>
<text text-anchor="start" x="447.5" y="-1078.5" font-family="Helvetica,sans-Serif" font-size="10.00">+</text>
<text text-anchor="start" x="460.5" y="-1078.5" font-family="Helvetica,sans-Serif" font-size="10.00">pin</text>
<text text-anchor="start" x="447.5" y="-1063.5" font-family="Helvetica,sans-Serif" font-size="10.00">+</text>
<text text-anchor="start" x="460.5" y="-1063.5" font-family="Helvetica,sans-Serif" font-size="10.00">pin_t()</text>
<text text-anchor="start" x="447.5" y="-1048.5" font-family="Helvetica,sans-Serif" font-size="10.00">+</text>
<text text-anchor="start" x="460.5" y="-1048.5" font-family="Helvetica,sans-Serif" font-size="10.00">pin_t()</text>
<text text-anchor="start" x="447.5" y="-1033.5" font-family="Helvetica,sans-Serif" font-size="10.00">+</text>
<text text-anchor="start" x="460.5" y="-1033.5" font-family="Helvetica,sans-Serif" font-size="10.00">operator+=()</text>
<text text-anchor="start" x="447.5" y="-1018.5" font-family="Helvetica,sans-Serif" font-size="10.00">+</text>
<text text-anchor="start" x="460.5" y="-1018.5" font-family="Helvetica,sans-Serif" font-size="10.00">operator++()</text>
<text text-anchor="start" x="447.5" y="-1003.5" font-family="Helvetica,sans-Serif" font-size="10.00">+</text>
<text text-anchor="start" x="460.5" y="-1003.5" font-family="Helvetica,sans-Serif" font-size="10.00">operator++()</text>
<text text-anchor="start" x="447.5" y="-988.5" font-family="Helvetica,sans-Serif" font-size="10.00">+</text>
<text text-anchor="start" x="460.5" y="-988.5" font-family="Helvetica,sans-Serif" font-size="10.00">operator&#45;=()</text>
<text text-anchor="start" x="447.5" y="-973.5" font-family="Helvetica,sans-Serif" font-size="10.00">+</text>
<text text-anchor="start" x="460.5" y="-973.5" font-family="Helvetica,sans-Serif" font-size="10.00">operator&#45;&#45;()</text>
<text text-anchor="start" x="447.5" y="-958.5" font-family="Helvetica,sans-Serif" font-size="10.00">+</text>
<text text-anchor="start" x="460.5" y="-958.5" font-family="Helvetica,sans-Serif" font-size="10.00">operator&#45;&#45;()</text>
<polygon fill="#666666" stroke="#666666" points="443.5,-1088.5 443.5,-1088.5 530.5,-1088.5 530.5,-1088.5 443.5,-1088.5"/>
<polygon fill="#666666" stroke="#666666" points="443.5,-1073.5 443.5,-1073.5 458.5,-1073.5 458.5,-1073.5 443.5,-1073.5"/>
<polygon fill="#666666" stroke="#666666" points="458.5,-1073.5 458.5,-1073.5 530.5,-1073.5 530.5,-1073.5 458.5,-1073.5"/>
<polygon fill="none" stroke="#666666" points="443,-951.5 443,-1105.5 530,-1105.5 530,-951.5 443,-951.5"/>
</a>
</g>
</g>
<!-- Node9&#45;&gt;Node8 -->
<g id="edge10_Node000008_Node000009" class="edge">
<title>Node9&#45;&gt;Node8</title>
<g id="a_edge10_Node000008_Node000009"><a xlink:title=" ">
<path fill="none" stroke="#63b8ff" d="M506.06,-951.36C515.38,-915.13 526.75,-870.85 537.29,-829.84"/>
<polygon fill="none" stroke="#63b8ff" points="537.32,-829.72 534.94,-822.91 540.31,-818.09 542.69,-824.9 537.32,-829.72"/>
</a>
</g>
<text text-anchor="start" x="520" y="-916.5" font-family="Helvetica,sans-Serif" font-size="10.00" fill="grey">&#45;pin</text>
</g>
<!-- Node10 -->
<g id="Node000010" class="node">
<title>Node10</title>
<g id="a_Node000010"><a xlink:href="../../dc/db4/structAH_1_1Button_1_1InternalState.html" target="_top" xlink:title=" ">
<polygon fill="white" stroke="transparent" points="652.5,-1083 548.5,-1083 548.5,-974 652.5,-974 652.5,-1083"/>
<text text-anchor="start" x="568.5" y="-1070.5" font-family="Helvetica,sans-Serif" font-size="10.00">InternalState</text>
<text text-anchor="start" x="552.5" y="-1055.5" font-family="Helvetica,sans-Serif" font-size="10.00">+</text>
<text text-anchor="start" x="565.5" y="-1055.5" font-family="Helvetica,sans-Serif" font-size="10.00">debounced</text>
<text text-anchor="start" x="552.5" y="-1040.5" font-family="Helvetica,sans-Serif" font-size="10.00">+</text>
<text text-anchor="start" x="565.5" y="-1040.5" font-family="Helvetica,sans-Serif" font-size="10.00">bouncing</text>
<text text-anchor="start" x="552.5" y="-1025.5" font-family="Helvetica,sans-Serif" font-size="10.00">+</text>
<text text-anchor="start" x="565.5" y="-1025.5" font-family="Helvetica,sans-Serif" font-size="10.00">prevInput</text>
<text text-anchor="start" x="552.5" y="-1010.5" font-family="Helvetica,sans-Serif" font-size="10.00">+</text>
<text text-anchor="start" x="565.5" y="-1010.5" font-family="Helvetica,sans-Serif" font-size="10.00">invert</text>
<text text-anchor="start" x="552.5" y="-995.5" font-family="Helvetica,sans-Serif" font-size="10.00">+</text>
<text text-anchor="start" x="565.5" y="-995.5" font-family="Helvetica,sans-Serif" font-size="10.00">prevBounceTime</text>
<text text-anchor="start" x="552.5" y="-980.5" font-family="Helvetica,sans-Serif" font-size="10.00">+</text>
<text text-anchor="start" x="565.5" y="-980.5" font-family="Helvetica,sans-Serif" font-size="10.00">InternalState()</text>
<polygon fill="#666666" stroke="#666666" points="548.5,-1065.5 548.5,-1065.5 652.5,-1065.5 652.5,-1065.5 548.5,-1065.5"/>
<polygon fill="#666666" stroke="#666666" points="548.5,-990.5 548.5,-990.5 563.5,-990.5 563.5,-990.5 548.5,-990.5"/>
<polygon fill="#666666" stroke="#666666" points="563.5,-990.5 563.5,-990.5 652.5,-990.5 652.5,-990.5 563.5,-990.5"/>
<polygon fill="none" stroke="#666666" points="548.5,-974 548.5,-1083 652.5,-1083 652.5,-974 548.5,-974"/>
</a>
</g>
</g>
<!-- Node10&#45;&gt;Node8 -->
<g id="edge11_Node000008_Node000010" class="edge">
<title>Node10&#45;&gt;Node8</title>
<g id="a_edge11_Node000008_Node000010"><a xlink:title=" ">
<path fill="none" stroke="#63b8ff" d="M595.35,-973.8C591.6,-934.77 586.37,-880.29 581.6,-830.53"/>
<polygon fill="none" stroke="#63b8ff" points="581.57,-830.27 577.02,-824.68 580.42,-818.33 584.98,-823.92 581.57,-830.27"/>
</a>
</g>
<text text-anchor="start" x="594" y="-916.5" font-family="Helvetica,sans-Serif" font-size="10.00" fill="grey">&#45;state</text>
</g>
<!-- Node11 -->
<g id="Node000011" class="node">
<title>Node11</title>
<g id="a_Node000011"><a xlink:href="../../d7/d0f/classMIDIAddress.html" target="_top" xlink:title="A type&#45;safe utility class for saving a MIDI address consisting of a 7&#45;bit address,...">
<polygon fill="white" stroke="transparent" points="789.5,-893 653.5,-893 653.5,-514 789.5,-514 789.5,-893"/>
<text text-anchor="start" x="690.5" y="-880.5" font-family="Helvetica,sans-Serif" font-size="10.00">MIDIAddress</text>
<text text-anchor="start" x="658.5" y="-865.5" font-family="Helvetica,sans-Serif" font-size="10.00">&#45;</text>
<text text-anchor="start" x="667.5" y="-865.5" font-family="Helvetica,sans-Serif" font-size="10.00">addresses</text>
<text text-anchor="start" x="657.5" y="-850.5" font-family="Helvetica,sans-Serif" font-size="10.00">*</text>
<text text-anchor="start" x="667.5" y="-850.5" font-family="Helvetica,sans-Serif" font-size="10.00">MIDIAddress()</text>
<text text-anchor="start" x="657.5" y="-835.5" font-family="Helvetica,sans-Serif" font-size="10.00">*</text>
<text text-anchor="start" x="667.5" y="-835.5" font-family="Helvetica,sans-Serif" font-size="10.00">MIDIAddress()</text>
<text text-anchor="start" x="657.5" y="-820.5" font-family="Helvetica,sans-Serif" font-size="10.00">*</text>
<text text-anchor="start" x="667.5" y="-820.5" font-family="Helvetica,sans-Serif" font-size="10.00">MIDIAddress()</text>
<text text-anchor="start" x="657.5" y="-805.5" font-family="Helvetica,sans-Serif" font-size="10.00">*</text>
<text text-anchor="start" x="667.5" y="-805.5" font-family="Helvetica,sans-Serif" font-size="10.00">MIDIAddress()</text>
<text text-anchor="start" x="657.5" y="-790.5" font-family="Helvetica,sans-Serif" font-size="10.00">*</text>
<text text-anchor="start" x="667.5" y="-790.5" font-family="Helvetica,sans-Serif" font-size="10.00">MIDIAddress()</text>
<text text-anchor="start" x="657.5" y="-775.5" font-family="Helvetica,sans-Serif" font-size="10.00">*</text>
<text text-anchor="start" x="667.5" y="-775.5" font-family="Helvetica,sans-Serif" font-size="10.00">MIDIAddress()</text>
<text text-anchor="start" x="657.5" y="-760.5" font-family="Helvetica,sans-Serif" font-size="10.00">*</text>
<text text-anchor="start" x="667.5" y="-760.5" font-family="Helvetica,sans-Serif" font-size="10.00">invalid()</text>
<text text-anchor="start" x="657.5" y="-745.5" font-family="Helvetica,sans-Serif" font-size="10.00">*</text>
<text text-anchor="start" x="667.5" y="-745.5" font-family="Helvetica,sans-Serif" font-size="10.00">operator+=()</text>
<text text-anchor="start" x="657.5" y="-730.5" font-family="Helvetica,sans-Serif" font-size="10.00">*</text>
<text text-anchor="start" x="667.5" y="-730.5" font-family="Helvetica,sans-Serif" font-size="10.00">operator&#45;=()</text>
<text text-anchor="start" x="657.5" y="-715.5" font-family="Helvetica,sans-Serif" font-size="10.00">*</text>
<text text-anchor="start" x="667.5" y="-715.5" font-family="Helvetica,sans-Serif" font-size="10.00">operator+()</text>
<text text-anchor="start" x="657.5" y="-700.5" font-family="Helvetica,sans-Serif" font-size="10.00">*</text>
<text text-anchor="start" x="667.5" y="-700.5" font-family="Helvetica,sans-Serif" font-size="10.00">operator&#45;()</text>
<text text-anchor="start" x="657.5" y="-685.5" font-family="Helvetica,sans-Serif" font-size="10.00">*</text>
<text text-anchor="start" x="667.5" y="-685.5" font-family="Helvetica,sans-Serif" font-size="10.00">getAddress()</text>
<text text-anchor="start" x="657.5" y="-670.5" font-family="Helvetica,sans-Serif" font-size="10.00">*</text>
<text text-anchor="start" x="667.5" y="-670.5" font-family="Helvetica,sans-Serif" font-size="10.00">getChannel()</text>
<text text-anchor="start" x="657.5" y="-655.5" font-family="Helvetica,sans-Serif" font-size="10.00">*</text>
<text text-anchor="start" x="667.5" y="-655.5" font-family="Helvetica,sans-Serif" font-size="10.00">getRawChannel()</text>
<text text-anchor="start" x="657.5" y="-640.5" font-family="Helvetica,sans-Serif" font-size="10.00">*</text>
<text text-anchor="start" x="667.5" y="-640.5" font-family="Helvetica,sans-Serif" font-size="10.00">getCableNumber()</text>
<text text-anchor="start" x="657.5" y="-625.5" font-family="Helvetica,sans-Serif" font-size="10.00">*</text>
<text text-anchor="start" x="667.5" y="-625.5" font-family="Helvetica,sans-Serif" font-size="10.00">getRawCableNumber()</text>
<text text-anchor="start" x="657.5" y="-610.5" font-family="Helvetica,sans-Serif" font-size="10.00">*</text>
<text text-anchor="start" x="667.5" y="-610.5" font-family="Helvetica,sans-Serif" font-size="10.00">getChannelCable()</text>
<text text-anchor="start" x="657.5" y="-595.5" font-family="Helvetica,sans-Serif" font-size="10.00">*</text>
<text text-anchor="start" x="667.5" y="-595.5" font-family="Helvetica,sans-Serif" font-size="10.00">operator==()</text>
<text text-anchor="start" x="657.5" y="-580.5" font-family="Helvetica,sans-Serif" font-size="10.00">*</text>
<text text-anchor="start" x="667.5" y="-580.5" font-family="Helvetica,sans-Serif" font-size="10.00">operator!=()</text>
<text text-anchor="start" x="657.5" y="-565.5" font-family="Helvetica,sans-Serif" font-size="10.00">*</text>
<text text-anchor="start" x="667.5" y="-565.5" font-family="Helvetica,sans-Serif" font-size="10.00">isValid()</text>
<text text-anchor="start" x="657.5" y="-550.5" font-family="Helvetica,sans-Serif" font-size="10.00">*</text>
<text text-anchor="start" x="667.5" y="-550.5" font-family="Helvetica,sans-Serif" font-size="10.00">operator bool()</text>
<text text-anchor="start" x="657.5" y="-535.5" font-family="Helvetica,sans-Serif" font-size="10.00">*</text>
<text text-anchor="start" x="667.5" y="-535.5" font-family="Helvetica,sans-Serif" font-size="10.00">matchSingle()</text>
<text text-anchor="start" x="657.5" y="-520.5" font-family="Helvetica,sans-Serif" font-size="10.00">*</text>
<text text-anchor="start" x="667.5" y="-520.5" font-family="Helvetica,sans-Serif" font-size="10.00">matchAddressInRange()</text>
<polygon fill="#666666" stroke="#666666" points="653.5,-875.5 653.5,-875.5 789.5,-875.5 789.5,-875.5 653.5,-875.5"/>
<polygon fill="#666666" stroke="#666666" points="653.5,-860.5 653.5,-860.5 665.5,-860.5 665.5,-860.5 653.5,-860.5"/>
<polygon fill="#666666" stroke="#666666" points="665.5,-860.5 665.5,-860.5 789.5,-860.5 789.5,-860.5 665.5,-860.5"/>
<polygon fill="none" stroke="#666666" points="653.5,-514 653.5,-893 789.5,-893 789.5,-514 653.5,-514"/>
</a>
</g>
</g>
<!-- Node11&#45;&gt;Node2 -->
<g id="edge12_Node000002_Node000011" class="edge">
<title>Node11&#45;&gt;Node2</title>
<g id="a_edge12_Node000002_Node000011"><a xlink:title=" ">
<path fill="none" stroke="#63b8ff" d="M697.26,-513.78C694.88,-495.24 692.47,-476.48 690.11,-458.07"/>
<polygon fill="none" stroke="#63b8ff" points="690.09,-457.94 685.36,-452.5 688.57,-446.04 693.3,-451.48 690.09,-457.94"/>
</a>
</g>
<text text-anchor="start" x="698" y="-477" font-family="Helvetica,sans-Serif" font-size="10.00" fill="grey">&#45;address</text>
</g>
<!-- Node12 -->
<g id="Node000012" class="node">
<title>Node12</title>
<g id="a_Node000012"><a xlink:href="../../dc/dd4/classDigitalNoteSender.html" target="_top" xlink:title="Class that sends MIDI note on and off messages.">
<polygon fill="white" stroke="transparent" points="925.5,-758 807.5,-758 807.5,-649 925.5,-649 925.5,-758"/>
<text text-anchor="start" x="821.5" y="-745.5" font-family="Helvetica,sans-Serif" font-size="10.00">DigitalNoteSender</text>
<text text-anchor="start" x="814" y="-730.5" font-family="Helvetica,sans-Serif" font-size="10.00">&#45;</text>
<text text-anchor="start" x="824.5" y="-730.5" font-family="Helvetica,sans-Serif" font-size="10.00">velocity</text>
<text text-anchor="start" x="811.5" y="-715.5" font-family="Helvetica,sans-Serif" font-size="10.00">+</text>
<text text-anchor="start" x="824.5" y="-715.5" font-family="Helvetica,sans-Serif" font-size="10.00">DigitalNoteSender()</text>
<text text-anchor="start" x="811.5" y="-700.5" font-family="Helvetica,sans-Serif" font-size="10.00">+</text>
<text text-anchor="start" x="824.5" y="-700.5" font-family="Helvetica,sans-Serif" font-size="10.00">sendOn()</text>
<text text-anchor="start" x="811.5" y="-685.5" font-family="Helvetica,sans-Serif" font-size="10.00">+</text>
<text text-anchor="start" x="824.5" y="-685.5" font-family="Helvetica,sans-Serif" font-size="10.00">sendOff()</text>
<text text-anchor="start" x="811.5" y="-670.5" font-family="Helvetica,sans-Serif" font-size="10.00">+</text>
<text text-anchor="start" x="824.5" y="-670.5" font-family="Helvetica,sans-Serif" font-size="10.00">setVelocity()</text>
<text text-anchor="start" x="811.5" y="-655.5" font-family="Helvetica,sans-Serif" font-size="10.00">+</text>
<text text-anchor="start" x="824.5" y="-655.5" font-family="Helvetica,sans-Serif" font-size="10.00">getVelocity()</text>
<polygon fill="#666666" stroke="#666666" points="807.5,-740.5 807.5,-740.5 925.5,-740.5 925.5,-740.5 807.5,-740.5"/>
<polygon fill="#666666" stroke="#666666" points="807.5,-725.5 807.5,-725.5 822.5,-725.5 822.5,-725.5 807.5,-725.5"/>
<polygon fill="#666666" stroke="#666666" points="822.5,-725.5 822.5,-725.5 925.5,-725.5 925.5,-725.5 822.5,-725.5"/>
<polygon fill="none" stroke="#666666" points="807.5,-649 807.5,-758 925.5,-758 925.5,-649 807.5,-649"/>
</a>
</g>
</g>
<!-- Node12&#45;&gt;Node2 -->
<g id="edge13_Node000002_Node000012" class="edge">
<title>Node12&#45;&gt;Node2</title>
<g id="a_edge13_Node000002_Node000012"><a xlink:title=" ">
<path fill="none" stroke="#63b8ff" d="M849.78,-648.73C837.24,-610.49 818.81,-558.27 798.5,-514 779.81,-473.27 756.51,-430.13 734.75,-392.25"/>
<polygon fill="none" stroke="#63b8ff" points="734.67,-392.1 728.2,-388.91 728.66,-381.71 735.13,-384.91 734.67,-392.1"/>
</a>
</g>
<text text-anchor="start" x="792.5" y="-477" font-family="Helvetica,sans-Serif" font-size="10.00" fill="grey">+sender</text>
</g>
</g>
</svg>
