<?xml version="1.0" encoding="UTF-8" standalone="no"?>
<!DOCTYPE svg PUBLIC "-//W3C//DTD SVG 1.1//EN"
 "http://www.w3.org/Graphics/SVG/1.1/DTD/svg11.dtd">
<!-- Generated by graphviz version 2.38.0 (20140413.2041)
 -->
<!-- Title: NoteLEDBar&lt; NumLEDs &gt; Pages: 1 -->
<svg width="321pt" height="838pt"
 viewBox="0.00 0.00 321.00 838.00" xmlns="http://www.w3.org/2000/svg" xmlns:xlink="http://www.w3.org/1999/xlink">
<g id="graph0" class="graph" transform="scale(1 1) rotate(0) translate(4 834)">
<title>NoteLEDBar&lt; NumLEDs &gt;</title>
<polygon fill="white" stroke="none" points="-4,4 -4,-834 317,-834 317,4 -4,4"/>
<!-- Node1 -->
<g id="node1" class="node"><title>Node1</title>
<g id="a_node1"><a xlink:title="Class that listens for Note events and displays the velocity on an LED Bar Graph.">
<polygon fill="#bfbfbf" stroke="black" points="129.5,-0.5 129.5,-90.5 265.5,-90.5 265.5,-0.5 129.5,-0.5"/>
<text text-anchor="middle" x="197.5" y="-78.5" font-family="Helvetica,sans-Serif" font-size="10.00">NoteLEDBar&lt; NumLEDs &gt;</text>
<polyline fill="none" stroke="black" points="129.5,-71.5 265.5,-71.5 "/>
<text text-anchor="middle" x="197.5" y="-59.5" font-family="Helvetica,sans-Serif" font-size="10.00"> </text>
<polyline fill="none" stroke="black" points="129.5,-52.5 265.5,-52.5 "/>
<text text-anchor="start" x="137.5" y="-40.5" font-family="Helvetica,sans-Serif" font-size="10.00">+ NoteLEDBar()</text>
<text text-anchor="start" x="137.5" y="-29.5" font-family="Helvetica,sans-Serif" font-size="10.00">+ dotMode()</text>
<text text-anchor="start" x="137.5" y="-18.5" font-family="Helvetica,sans-Serif" font-size="10.00">+ barMode()</text>
<text text-anchor="start" x="137.5" y="-7.5" font-family="Helvetica,sans-Serif" font-size="10.00">+ setMode()</text>
</a>
</g>
</g>
<!-- Node2 -->
<g id="node2" class="node"><title>Node2</title>
<g id="a_node2"><a xlink:href="../../d5/d80/classGenericNoteCCRange.html" target="_top" xlink:title=" ">
<polygon fill="white" stroke="black" points="127.5,-127.5 127.5,-228.5 267.5,-228.5 267.5,-127.5 127.5,-127.5"/>
<text text-anchor="start" x="135.5" y="-216.5" font-family="Helvetica,sans-Serif" font-size="10.00">GenericNoteCCRange</text>
<text text-anchor="start" x="135.5" y="-205.5" font-family="Helvetica,sans-Serif" font-size="10.00">&lt; MIDIInputElementNote,</text>
<text text-anchor="start" x="135.5" y="-194.5" font-family="Helvetica,sans-Serif" font-size="10.00"> 1, NoteCCLEDBarCallback</text>
<text text-anchor="middle" x="197.5" y="-183.5" font-family="Helvetica,sans-Serif" font-size="10.00">&lt; NumLEDs &gt; &gt;</text>
<polyline fill="none" stroke="black" points="127.5,-176.5 267.5,-176.5 "/>
<text text-anchor="middle" x="197.5" y="-164.5" font-family="Helvetica,sans-Serif" font-size="10.00"> </text>
<polyline fill="none" stroke="black" points="127.5,-157.5 267.5,-157.5 "/>
<text text-anchor="start" x="135.5" y="-145.5" font-family="Helvetica,sans-Serif" font-size="10.00">+ GenericNoteCCRange()</text>
<text text-anchor="start" x="135.5" y="-134.5" font-family="Helvetica,sans-Serif" font-size="10.00">&#45; match()</text>
</a>
</g>
</g>
<!-- Node2&#45;&gt;Node1 -->
<g id="edge1" class="edge"><title>Node2&#45;&gt;Node1</title>
<path fill="none" stroke="midnightblue" d="M197.5,-117.232C197.5,-108.236 197.5,-99.1012 197.5,-90.5165"/>
<polygon fill="none" stroke="midnightblue" points="194,-117.291 197.5,-127.291 201,-117.291 194,-117.291"/>
</g>
<!-- Node3 -->
<g id="node3" class="node"><title>Node3</title>
<g id="a_node3"><a xlink:href="../../d2/df4/classNoteCCRange.html" target="_top" xlink:title=" ">
<polygon fill="white" stroke="black" points="90.5,-265.5 90.5,-476.5 304.5,-476.5 304.5,-265.5 90.5,-265.5"/>
<text text-anchor="start" x="98.5" y="-464.5" font-family="Helvetica,sans-Serif" font-size="10.00">NoteCCRange&lt; MIDIInputElement</text>
<text text-anchor="start" x="98.5" y="-453.5" font-family="Helvetica,sans-Serif" font-size="10.00">Note, RangeLen, 1, NoteCCLEDBarCallback</text>
<text text-anchor="middle" x="197.5" y="-442.5" font-family="Helvetica,sans-Serif" font-size="10.00">&lt; NumLEDs &gt; &gt;</text>
<polyline fill="none" stroke="black" points="90.5,-435.5 304.5,-435.5 "/>
<text text-anchor="start" x="98.5" y="-423.5" font-family="Helvetica,sans-Serif" font-size="10.00">+ callback</text>
<text text-anchor="start" x="98.5" y="-412.5" font-family="Helvetica,sans-Serif" font-size="10.00">&#45; values</text>
<polyline fill="none" stroke="black" points="90.5,-405.5 304.5,-405.5 "/>
<text text-anchor="start" x="98.5" y="-393.5" font-family="Helvetica,sans-Serif" font-size="10.00">+ NoteCCRange()</text>
<text text-anchor="start" x="98.5" y="-382.5" font-family="Helvetica,sans-Serif" font-size="10.00">+ getValue()</text>
<text text-anchor="start" x="98.5" y="-371.5" font-family="Helvetica,sans-Serif" font-size="10.00">+ getValue()</text>
<text text-anchor="start" x="98.5" y="-360.5" font-family="Helvetica,sans-Serif" font-size="10.00">+ getValue()</text>
<text text-anchor="start" x="98.5" y="-349.5" font-family="Helvetica,sans-Serif" font-size="10.00">+ begin()</text>
<text text-anchor="start" x="98.5" y="-338.5" font-family="Helvetica,sans-Serif" font-size="10.00">+ reset()</text>
<text text-anchor="start" x="98.5" y="-327.5" font-family="Helvetica,sans-Serif" font-size="10.00">+ length()</text>
<text text-anchor="start" x="98.5" y="-316.5" font-family="Helvetica,sans-Serif" font-size="10.00">&#45; updateImpl()</text>
<text text-anchor="start" x="98.5" y="-305.5" font-family="Helvetica,sans-Serif" font-size="10.00">&#45; getSelection()</text>
<text text-anchor="start" x="98.5" y="-294.5" font-family="Helvetica,sans-Serif" font-size="10.00">&#45; getBankIndex()</text>
<text text-anchor="start" x="98.5" y="-283.5" font-family="Helvetica,sans-Serif" font-size="10.00">&#45; getRangeIndex()</text>
<text text-anchor="start" x="98.5" y="-272.5" font-family="Helvetica,sans-Serif" font-size="10.00">&#45; getValueFromMIDIMessage()</text>
</a>
</g>
</g>
<!-- Node3&#45;&gt;Node2 -->
<g id="edge2" class="edge"><title>Node3&#45;&gt;Node2</title>
<path fill="none" stroke="midnightblue" d="M197.5,-255.234C197.5,-246.051 197.5,-237.115 197.5,-228.787"/>
<polygon fill="none" stroke="midnightblue" points="194,-255.28 197.5,-265.28 201,-255.28 194,-255.28"/>
</g>
<!-- Node4 -->
<g id="node4" class="node"><title>Node4</title>
<g id="a_node4"><a xlink:href="../../db/d4b/classMIDIInputElementNote.html" target="_top" xlink:title="Class for objects that listen for incoming MIDI Note events.">
<polygon fill="white" stroke="black" points="61.5,-513.5 61.5,-636.5 199.5,-636.5 199.5,-513.5 61.5,-513.5"/>
<text text-anchor="middle" x="130.5" y="-624.5" font-family="Helvetica,sans-Serif" font-size="10.00">MIDIInputElementNote</text>
<polyline fill="none" stroke="black" points="61.5,-617.5 199.5,-617.5 "/>
<text text-anchor="start" x="69.5" y="-605.5" font-family="Helvetica,sans-Serif" font-size="10.00">&#45; elements</text>
<polyline fill="none" stroke="black" points="61.5,-598.5 199.5,-598.5 "/>
<text text-anchor="start" x="69.5" y="-586.5" font-family="Helvetica,sans-Serif" font-size="10.00">+ ~MIDIInputElementNote()</text>
<text text-anchor="start" x="69.5" y="-575.5" font-family="Helvetica,sans-Serif" font-size="10.00">+ beginAll()</text>
<text text-anchor="start" x="69.5" y="-564.5" font-family="Helvetica,sans-Serif" font-size="10.00">+ updateAll()</text>
<text text-anchor="start" x="69.5" y="-553.5" font-family="Helvetica,sans-Serif" font-size="10.00">+ resetAll()</text>
<text text-anchor="start" x="69.5" y="-542.5" font-family="Helvetica,sans-Serif" font-size="10.00">+ updateAllWith()</text>
<text text-anchor="start" x="69.5" y="-531.5" font-family="Helvetica,sans-Serif" font-size="10.00"># MIDIInputElementNote()</text>
<text text-anchor="start" x="69.5" y="-520.5" font-family="Helvetica,sans-Serif" font-size="10.00">&#45; moveDown()</text>
</a>
</g>
</g>
<!-- Node4&#45;&gt;Node3 -->
<g id="edge3" class="edge"><title>Node4&#45;&gt;Node3</title>
<path fill="none" stroke="midnightblue" d="M153.822,-503.685C156.722,-494.944 159.733,-485.864 162.758,-476.744"/>
<polygon fill="none" stroke="midnightblue" points="150.428,-502.8 150.602,-513.393 157.072,-505.004 150.428,-502.8"/>
</g>
<!-- Node5 -->
<g id="node5" class="node"><title>Node5</title>
<g id="a_node5"><a xlink:href="../../d9/db1/classMIDIInputElement.html" target="_top" xlink:title="A class for objects that listen for incoming MIDI events.">
<polygon fill="white" stroke="black" points="0,-673.5 0,-829.5 117,-829.5 117,-673.5 0,-673.5"/>
<text text-anchor="middle" x="58.5" y="-817.5" font-family="Helvetica,sans-Serif" font-size="10.00">MIDIInputElement</text>
<polyline fill="none" stroke="black" points="0,-810.5 117,-810.5 "/>
<text text-anchor="start" x="8" y="-798.5" font-family="Helvetica,sans-Serif" font-size="10.00"># address</text>
<polyline fill="none" stroke="black" points="0,-791.5 117,-791.5 "/>
<text text-anchor="start" x="8" y="-779.5" font-family="Helvetica,sans-Serif" font-size="10.00">+ ~MIDIInputElement()</text>
<text text-anchor="start" x="8" y="-768.5" font-family="Helvetica,sans-Serif" font-size="10.00">+ begin()</text>
<text text-anchor="start" x="8" y="-757.5" font-family="Helvetica,sans-Serif" font-size="10.00">+ reset()</text>
<text text-anchor="start" x="8" y="-746.5" font-family="Helvetica,sans-Serif" font-size="10.00">+ update()</text>
<text text-anchor="start" x="8" y="-735.5" font-family="Helvetica,sans-Serif" font-size="10.00">+ updateWith()</text>
<text text-anchor="start" x="8" y="-724.5" font-family="Helvetica,sans-Serif" font-size="10.00"># MIDIInputElement()</text>
<text text-anchor="start" x="8" y="-713.5" font-family="Helvetica,sans-Serif" font-size="10.00"># MIDIInputElement()</text>
<text text-anchor="start" x="8" y="-702.5" font-family="Helvetica,sans-Serif" font-size="10.00">&#45; updateImpl()</text>
<text text-anchor="start" x="8" y="-691.5" font-family="Helvetica,sans-Serif" font-size="10.00">&#45; getTarget()</text>
<text text-anchor="start" x="8" y="-680.5" font-family="Helvetica,sans-Serif" font-size="10.00">&#45; match()</text>
</a>
</g>
</g>
<!-- Node5&#45;&gt;Node4 -->
<g id="edge4" class="edge"><title>Node5&#45;&gt;Node4</title>
<path fill="none" stroke="midnightblue" d="M94.1189,-664.174C97.9564,-654.873 101.8,-645.559 105.474,-636.653"/>
<polygon fill="none" stroke="midnightblue" points="90.8686,-662.875 90.2898,-673.454 97.3395,-665.545 90.8686,-662.875"/>
</g>
<!-- Node6 -->
<g id="node6" class="node"><title>Node6</title>
<g id="a_node6"><a xlink:href="../../d4/d23/classDoublyLinkable.html" target="_top" xlink:title=" ">
<polygon fill="white" stroke="black" points="135.5,-712 135.5,-791 271.5,-791 271.5,-712 135.5,-712"/>
<text text-anchor="start" x="143.5" y="-779" font-family="Helvetica,sans-Serif" font-size="10.00">DoublyLinkable&lt; MIDIInput</text>
<text text-anchor="middle" x="203.5" y="-768" font-family="Helvetica,sans-Serif" font-size="10.00">ElementNote &gt;</text>
<polyline fill="none" stroke="black" points="135.5,-761 271.5,-761 "/>
<text text-anchor="start" x="143.5" y="-749" font-family="Helvetica,sans-Serif" font-size="10.00"># next</text>
<text text-anchor="start" x="143.5" y="-738" font-family="Helvetica,sans-Serif" font-size="10.00"># previous</text>
<polyline fill="none" stroke="black" points="135.5,-731 271.5,-731 "/>
<text text-anchor="start" x="143.5" y="-719" font-family="Helvetica,sans-Serif" font-size="10.00"># ~DoublyLinkable()</text>
</a>
</g>
</g>
<!-- Node6&#45;&gt;Node4 -->
<g id="edge5" class="edge"><title>Node6&#45;&gt;Node4</title>
<path fill="none" stroke="midnightblue" d="M183.376,-702.395C174.86,-682.039 164.844,-658.097 155.833,-636.557"/>
<polygon fill="none" stroke="midnightblue" points="180.211,-703.898 187.299,-711.773 186.668,-701.197 180.211,-703.898"/>
</g>
<!-- Node7 -->
<g id="node7" class="node"><title>Node7</title>
<g id="a_node7"><a xlink:href="../../d7/dab/classINoteCCValue.html" target="_top" xlink:title=" ">
<polygon fill="white" stroke="black" points="218,-530 218,-620 313,-620 313,-530 218,-530"/>
<text text-anchor="middle" x="265.5" y="-608" font-family="Helvetica,sans-Serif" font-size="10.00">INoteCCValue</text>
<polyline fill="none" stroke="black" points="218,-601 313,-601 "/>
<text text-anchor="start" x="226" y="-589" font-family="Helvetica,sans-Serif" font-size="10.00">&#45; rangeLength</text>
<polyline fill="none" stroke="black" points="218,-582 313,-582 "/>
<text text-anchor="start" x="226" y="-570" font-family="Helvetica,sans-Serif" font-size="10.00">+ length()</text>
<text text-anchor="start" x="226" y="-559" font-family="Helvetica,sans-Serif" font-size="10.00">+ getValue()</text>
<text text-anchor="start" x="226" y="-548" font-family="Helvetica,sans-Serif" font-size="10.00">+ getValue()</text>
<text text-anchor="start" x="226" y="-537" font-family="Helvetica,sans-Serif" font-size="10.00"># INoteCCValue()</text>
</a>
</g>
</g>
<!-- Node7&#45;&gt;Node3 -->
<g id="edge6" class="edge"><title>Node7&#45;&gt;Node3</title>
<path fill="none" stroke="midnightblue" d="M247.363,-520.122C242.822,-506.632 237.794,-491.696 232.729,-476.652"/>
<polygon fill="none" stroke="midnightblue" points="244.07,-521.309 250.577,-529.67 250.704,-519.076 244.07,-521.309"/>
</g>
</g>
</svg>
