<?xml version="1.0" encoding="UTF-8" standalone="no"?>
<!DOCTYPE svg PUBLIC "-//W3C//DTD SVG 1.1//EN"
 "http://www.w3.org/Graphics/SVG/1.1/DTD/svg11.dtd">
<!-- Generated by graphviz version 2.43.0 (0)
 -->
<!-- Title: Selectable&lt; N &gt; Pages: 1 -->
<svg width="282pt" height="237pt"
 viewBox="0.00 0.00 282.00 237.00" xmlns="http://www.w3.org/2000/svg" xmlns:xlink="http://www.w3.org/1999/xlink">
<g id="graph0" class="graph" transform="scale(1 1) rotate(0) translate(4 233)">
<title>Selectable&lt; N &gt;</title>
<polygon fill="white" stroke="transparent" points="-4,4 -4,-233 278,-233 278,4 -4,4"/>
<!-- Node1 -->
<g id="node1" class="node">
<title>Node1</title>
<g id="a_node1"><a xlink:title=" ">
<polygon fill="#bfbfbf" stroke="black" points="75,-127.5 75,-228.5 199,-228.5 199,-127.5 75,-127.5"/>
<text text-anchor="middle" x="137" y="-216.5" font-family="Helvetica,sans-Serif" font-size="10.00">Selectable&lt; N &gt;</text>
<polyline fill="none" stroke="black" points="75,-209.5 199,-209.5 "/>
<text text-anchor="start" x="83" y="-197.5" font-family="Helvetica,sans-Serif" font-size="10.00">&#45; initialSelection</text>
<polyline fill="none" stroke="black" points="75,-190.5 199,-190.5 "/>
<text text-anchor="start" x="83" y="-178.5" font-family="Helvetica,sans-Serif" font-size="10.00">+ select()</text>
<text text-anchor="start" x="83" y="-167.5" font-family="Helvetica,sans-Serif" font-size="10.00">+ getInitialSelection()</text>
<text text-anchor="start" x="83" y="-156.5" font-family="Helvetica,sans-Serif" font-size="10.00">+ setInitialSelection()</text>
<text text-anchor="start" x="83" y="-145.5" font-family="Helvetica,sans-Serif" font-size="10.00">+ validateSetting()</text>
<text text-anchor="start" x="83" y="-134.5" font-family="Helvetica,sans-Serif" font-size="10.00"># Selectable()</text>
</a>
</g>
</g>
<!-- Node2 -->
<g id="node2" class="node">
<title>Node2</title>
<g id="a_node2"><a xlink:href="../../d1/df9/classBankable_1_1ProgramChanger.html" target="_top" xlink:title=" ">
<polygon fill="white" stroke="black" points="0,-0.5 0,-90.5 128,-90.5 128,-0.5 0,-0.5"/>
<text text-anchor="middle" x="64" y="-78.5" font-family="Helvetica,sans-Serif" font-size="10.00">ProgramChanger&lt; N &gt;</text>
<polyline fill="none" stroke="black" points="0,-71.5 128,-71.5 "/>
<text text-anchor="start" x="8" y="-59.5" font-family="Helvetica,sans-Serif" font-size="10.00">&#45; bank</text>
<text text-anchor="start" x="8" y="-48.5" font-family="Helvetica,sans-Serif" font-size="10.00">&#45; programs</text>
<text text-anchor="start" x="8" y="-37.5" font-family="Helvetica,sans-Serif" font-size="10.00">&#45; channelCN</text>
<polyline fill="none" stroke="black" points="0,-30.5 128,-30.5 "/>
<text text-anchor="start" x="8" y="-18.5" font-family="Helvetica,sans-Serif" font-size="10.00">+ ProgramChanger()</text>
<text text-anchor="start" x="8" y="-7.5" font-family="Helvetica,sans-Serif" font-size="10.00">+ select()</text>
</a>
</g>
</g>
<!-- Node1&#45;&gt;Node2 -->
<g id="edge1" class="edge">
<title>Node1&#45;&gt;Node2</title>
<path fill="none" stroke="midnightblue" d="M104.22,-118.39C98.97,-109.02 93.63,-99.47 88.62,-90.52"/>
<polygon fill="none" stroke="midnightblue" points="101.26,-120.27 109.19,-127.29 107.37,-116.86 101.26,-120.27"/>
</g>
<!-- Node3 -->
<g id="node3" class="node">
<title>Node3</title>
<g id="a_node3"><a xlink:href="../../de/d43/classProgramChanger.html" target="_top" xlink:title=" ">
<polygon fill="white" stroke="black" points="146,-6 146,-85 274,-85 274,-6 146,-6"/>
<text text-anchor="middle" x="210" y="-73" font-family="Helvetica,sans-Serif" font-size="10.00">ProgramChanger&lt; N &gt;</text>
<polyline fill="none" stroke="black" points="146,-66 274,-66 "/>
<text text-anchor="start" x="154" y="-54" font-family="Helvetica,sans-Serif" font-size="10.00">&#45; programs</text>
<text text-anchor="start" x="154" y="-43" font-family="Helvetica,sans-Serif" font-size="10.00">&#45; channelCN</text>
<polyline fill="none" stroke="black" points="146,-36 274,-36 "/>
<text text-anchor="start" x="154" y="-24" font-family="Helvetica,sans-Serif" font-size="10.00">+ ProgramChanger()</text>
<text text-anchor="start" x="154" y="-13" font-family="Helvetica,sans-Serif" font-size="10.00">+ select()</text>
</a>
</g>
</g>
<!-- Node1&#45;&gt;Node3 -->
<g id="edge2" class="edge">
<title>Node1&#45;&gt;Node3</title>
<path fill="none" stroke="midnightblue" d="M169.81,-118.34C176.12,-107.07 182.56,-95.55 188.4,-85.11"/>
<polygon fill="none" stroke="midnightblue" points="166.63,-116.86 164.81,-127.29 172.74,-120.27 166.63,-116.86"/>
</g>
</g>
</svg>
