<?xml version="1.0" encoding="UTF-8" standalone="no"?>
<!DOCTYPE svg PUBLIC "-//W3C//DTD SVG 1.1//EN"
 "http://www.w3.org/Graphics/SVG/1.1/DTD/svg11.dtd">
<!-- Generated by graphviz version 2.43.0 (0)
 -->
<!-- Title: SelectorDisplay Pages: 1 -->
<svg width="193pt" height="692pt"
 viewBox="0.00 0.00 193.00 692.00" xmlns="http://www.w3.org/2000/svg" xmlns:xlink="http://www.w3.org/1999/xlink">
<g id="graph0" class="graph" transform="scale(1 1) rotate(0) translate(4 688)">
<title>SelectorDisplay</title>
<!-- Node1 -->
<g id="Node000001" class="node">
<title>Node1</title>
<g id="a_Node000001"><a xlink:title="A class for displaying the setting of a Selector object.">
<polygon fill="#999999" stroke="transparent" points="145.5,-184 39.5,-184 39.5,0 145.5,0 145.5,-184"/>
<text text-anchor="start" x="54" y="-172" font-family="Helvetica,sans-Serif" font-size="10.00">SelectorDisplay</text>
<text text-anchor="start" x="46" y="-157" font-family="Helvetica,sans-Serif" font-size="10.00">&#45;</text>
<text text-anchor="start" x="56.5" y="-157" font-family="Helvetica,sans-Serif" font-size="10.00">selector</text>
<text text-anchor="start" x="46" y="-142" font-family="Helvetica,sans-Serif" font-size="10.00">&#45;</text>
<text text-anchor="start" x="56.5" y="-142" font-family="Helvetica,sans-Serif" font-size="10.00">previous</text>
<text text-anchor="start" x="46" y="-127" font-family="Helvetica,sans-Serif" font-size="10.00">&#45;</text>
<text text-anchor="start" x="56.5" y="-127" font-family="Helvetica,sans-Serif" font-size="10.00">offset</text>
<text text-anchor="start" x="46" y="-112" font-family="Helvetica,sans-Serif" font-size="10.00">&#45;</text>
<text text-anchor="start" x="56.5" y="-112" font-family="Helvetica,sans-Serif" font-size="10.00">multiplier</text>
<text text-anchor="start" x="46" y="-97" font-family="Helvetica,sans-Serif" font-size="10.00">&#45;</text>
<text text-anchor="start" x="56.5" y="-97" font-family="Helvetica,sans-Serif" font-size="10.00">x</text>
<text text-anchor="start" x="46" y="-82" font-family="Helvetica,sans-Serif" font-size="10.00">&#45;</text>
<text text-anchor="start" x="56.5" y="-82" font-family="Helvetica,sans-Serif" font-size="10.00">y</text>
<text text-anchor="start" x="46" y="-67" font-family="Helvetica,sans-Serif" font-size="10.00">&#45;</text>
<text text-anchor="start" x="56.5" y="-67" font-family="Helvetica,sans-Serif" font-size="10.00">size</text>
<text text-anchor="start" x="46" y="-52" font-family="Helvetica,sans-Serif" font-size="10.00">&#45;</text>
<text text-anchor="start" x="56.5" y="-52" font-family="Helvetica,sans-Serif" font-size="10.00">color</text>
<text text-anchor="start" x="43.5" y="-37" font-family="Helvetica,sans-Serif" font-size="10.00">+</text>
<text text-anchor="start" x="56.5" y="-37" font-family="Helvetica,sans-Serif" font-size="10.00">SelectorDisplay()</text>
<text text-anchor="start" x="43.5" y="-22" font-family="Helvetica,sans-Serif" font-size="10.00">+</text>
<text text-anchor="start" x="56.5" y="-22" font-family="Helvetica,sans-Serif" font-size="10.00">draw()</text>
<text text-anchor="start" x="43.5" y="-7" font-family="Helvetica,sans-Serif" font-size="10.00">+</text>
<text text-anchor="start" x="56.5" y="-7" font-family="Helvetica,sans-Serif" font-size="10.00">getDirty()</text>
<polygon fill="#666666" stroke="#666666" points="39.5,-167 39.5,-167 145.5,-167 145.5,-167 39.5,-167"/>
<polygon fill="#666666" stroke="#666666" points="39.5,-47 39.5,-47 54.5,-47 54.5,-47 39.5,-47"/>
<polygon fill="#666666" stroke="#666666" points="54.5,-47 54.5,-47 145.5,-47 145.5,-47 54.5,-47"/>
<polygon fill="none" stroke="#666666" points="39.5,0 39.5,-184 145.5,-184 145.5,0 39.5,0"/>
</a>
</g>
</g>
<!-- Node2 -->
<g id="Node000002" class="node">
<title>Node2</title>
<g id="a_Node000002"><a xlink:href="../../d8/d43/classDisplayElement.html" target="_top" xlink:title="An interface for elements that draw to a display.">
<polygon fill="white" stroke="transparent" points="150,-509 35,-509 35,-220 150,-220 150,-509"/>
<text text-anchor="start" x="54" y="-496.5" font-family="Helvetica,sans-Serif" font-size="10.00">DisplayElement</text>
<text text-anchor="start" x="39.5" y="-481.5" font-family="Helvetica,sans-Serif" font-size="10.00">#</text>
<text text-anchor="start" x="52.5" y="-481.5" font-family="Helvetica,sans-Serif" font-size="10.00">display</text>
<text text-anchor="start" x="39.5" y="-466.5" font-family="Helvetica,sans-Serif" font-size="10.00">#</text>
<text text-anchor="start" x="52.5" y="-466.5" font-family="Helvetica,sans-Serif" font-size="10.00">elements</text>
<text text-anchor="start" x="39.5" y="-451.5" font-family="Helvetica,sans-Serif" font-size="10.00">+</text>
<text text-anchor="start" x="52.5" y="-451.5" font-family="Helvetica,sans-Serif" font-size="10.00">~DisplayElement()</text>
<text text-anchor="start" x="39.5" y="-436.5" font-family="Helvetica,sans-Serif" font-size="10.00">+</text>
<text text-anchor="start" x="52.5" y="-436.5" font-family="Helvetica,sans-Serif" font-size="10.00">draw()</text>
<text text-anchor="start" x="39.5" y="-421.5" font-family="Helvetica,sans-Serif" font-size="10.00">+</text>
<text text-anchor="start" x="52.5" y="-421.5" font-family="Helvetica,sans-Serif" font-size="10.00">getDirty()</text>
<text text-anchor="start" x="39.5" y="-406.5" font-family="Helvetica,sans-Serif" font-size="10.00">+</text>
<text text-anchor="start" x="52.5" y="-406.5" font-family="Helvetica,sans-Serif" font-size="10.00">getDisplay()</text>
<text text-anchor="start" x="39.5" y="-391.5" font-family="Helvetica,sans-Serif" font-size="10.00">+</text>
<text text-anchor="start" x="52.5" y="-391.5" font-family="Helvetica,sans-Serif" font-size="10.00">getDisplay()</text>
<text text-anchor="start" x="39.5" y="-376.5" font-family="Helvetica,sans-Serif" font-size="10.00">+</text>
<text text-anchor="start" x="52.5" y="-376.5" font-family="Helvetica,sans-Serif" font-size="10.00">getAll()</text>
<text text-anchor="start" x="39.5" y="-361.5" font-family="Helvetica,sans-Serif" font-size="10.00">#</text>
<text text-anchor="start" x="52.5" y="-361.5" font-family="Helvetica,sans-Serif" font-size="10.00">DisplayElement()</text>
<text text-anchor="start" x="41" y="-346.5" font-family="Helvetica,sans-Serif" font-size="10.00">*</text>
<text text-anchor="start" x="52.5" y="-346.5" font-family="Helvetica,sans-Serif" font-size="10.00">enable()</text>
<text text-anchor="start" x="41" y="-331.5" font-family="Helvetica,sans-Serif" font-size="10.00">*</text>
<text text-anchor="start" x="52.5" y="-331.5" font-family="Helvetica,sans-Serif" font-size="10.00">disable()</text>
<text text-anchor="start" x="41" y="-316.5" font-family="Helvetica,sans-Serif" font-size="10.00">*</text>
<text text-anchor="start" x="52.5" y="-316.5" font-family="Helvetica,sans-Serif" font-size="10.00">isEnabled()</text>
<text text-anchor="start" x="41" y="-301.5" font-family="Helvetica,sans-Serif" font-size="10.00">*</text>
<text text-anchor="start" x="52.5" y="-301.5" font-family="Helvetica,sans-Serif" font-size="10.00">enable()</text>
<text text-anchor="start" x="41" y="-286.5" font-family="Helvetica,sans-Serif" font-size="10.00">*</text>
<text text-anchor="start" x="52.5" y="-286.5" font-family="Helvetica,sans-Serif" font-size="10.00">enable()</text>
<text text-anchor="start" x="41" y="-271.5" font-family="Helvetica,sans-Serif" font-size="10.00">*</text>
<text text-anchor="start" x="52.5" y="-271.5" font-family="Helvetica,sans-Serif" font-size="10.00">enable()</text>
<text text-anchor="start" x="41" y="-256.5" font-family="Helvetica,sans-Serif" font-size="10.00">*</text>
<text text-anchor="start" x="52.5" y="-256.5" font-family="Helvetica,sans-Serif" font-size="10.00">disable()</text>
<text text-anchor="start" x="41" y="-241.5" font-family="Helvetica,sans-Serif" font-size="10.00">*</text>
<text text-anchor="start" x="52.5" y="-241.5" font-family="Helvetica,sans-Serif" font-size="10.00">disable()</text>
<text text-anchor="start" x="41" y="-226.5" font-family="Helvetica,sans-Serif" font-size="10.00">*</text>
<text text-anchor="start" x="52.5" y="-226.5" font-family="Helvetica,sans-Serif" font-size="10.00">disable()</text>
<polygon fill="#666666" stroke="#666666" points="35.5,-491.5 35.5,-491.5 150.5,-491.5 150.5,-491.5 35.5,-491.5"/>
<polygon fill="#666666" stroke="#666666" points="35.5,-461.5 35.5,-461.5 50.5,-461.5 50.5,-461.5 35.5,-461.5"/>
<polygon fill="#666666" stroke="#666666" points="50.5,-461.5 50.5,-461.5 150.5,-461.5 150.5,-461.5 50.5,-461.5"/>
<polygon fill="none" stroke="#666666" points="35,-220 35,-509 150,-509 150,-220 35,-220"/>
</a>
</g>
</g>
<!-- Node2&#45;&gt;Node1 -->
<g id="edge1_Node000001_Node000002" class="edge">
<title>Node2&#45;&gt;Node1</title>
<g id="a_edge1_Node000001_Node000002"><a xlink:title=" ">
<path fill="none" stroke="#63b8ff" d="M92.5,-209.72C92.5,-201.05 92.5,-192.49 92.5,-184.18"/>
<polygon fill="none" stroke="#63b8ff" points="89,-209.93 92.5,-219.93 96,-209.93 89,-209.93"/>
</a>
</g>
</g>
<!-- Node3 -->
<g id="Node000003" class="node">
<title>Node3</title>
<g id="a_Node000003"><a xlink:href="../../d4/d23/classDoublyLinkable.html" target="_top" xlink:title=" ">
<polygon fill="white" stroke="transparent" points="185,-684 0,-684 0,-545 185,-545 185,-684"/>
<text text-anchor="start" x="5.5" y="-671.5" font-family="Helvetica,sans-Serif" font-size="10.00">DoublyLinkable&lt; DisplayElement &gt;</text>
<text text-anchor="start" x="22.5" y="-656.5" font-family="Helvetica,sans-Serif" font-size="10.00">#</text>
<text text-anchor="start" x="53.5" y="-656.5" font-family="Helvetica,sans-Serif" font-size="10.00">next</text>
<text text-anchor="start" x="22.5" y="-641.5" font-family="Helvetica,sans-Serif" font-size="10.00">#</text>
<text text-anchor="start" x="53.5" y="-641.5" font-family="Helvetica,sans-Serif" font-size="10.00">previous</text>
<text text-anchor="start" x="22.5" y="-626.5" font-family="Helvetica,sans-Serif" font-size="10.00">#</text>
<text text-anchor="start" x="53.5" y="-626.5" font-family="Helvetica,sans-Serif" font-size="10.00">~DoublyLinkable()</text>
<text text-anchor="start" x="22.5" y="-611.5" font-family="Helvetica,sans-Serif" font-size="10.00">#</text>
<text text-anchor="start" x="53.5" y="-611.5" font-family="Helvetica,sans-Serif" font-size="10.00">DoublyLinkable()</text>
<text text-anchor="start" x="22.5" y="-596.5" font-family="Helvetica,sans-Serif" font-size="10.00">#</text>
<text text-anchor="start" x="53.5" y="-596.5" font-family="Helvetica,sans-Serif" font-size="10.00">DoublyLinkable()</text>
<text text-anchor="start" x="22.5" y="-581.5" font-family="Helvetica,sans-Serif" font-size="10.00">#</text>
<text text-anchor="start" x="53.5" y="-581.5" font-family="Helvetica,sans-Serif" font-size="10.00">DoublyLinkable()</text>
<text text-anchor="start" x="22.5" y="-566.5" font-family="Helvetica,sans-Serif" font-size="10.00">#</text>
<text text-anchor="start" x="53.5" y="-566.5" font-family="Helvetica,sans-Serif" font-size="10.00">operator=()</text>
<text text-anchor="start" x="22.5" y="-551.5" font-family="Helvetica,sans-Serif" font-size="10.00">#</text>
<text text-anchor="start" x="53.5" y="-551.5" font-family="Helvetica,sans-Serif" font-size="10.00">operator=()</text>
<polygon fill="#666666" stroke="#666666" points="0.5,-666.5 0.5,-666.5 185.5,-666.5 185.5,-666.5 0.5,-666.5"/>
<polygon fill="#666666" stroke="#666666" points="0.5,-636.5 0.5,-636.5 51.5,-636.5 51.5,-636.5 0.5,-636.5"/>
<polygon fill="#666666" stroke="#666666" points="51.5,-636.5 51.5,-636.5 185.5,-636.5 185.5,-636.5 51.5,-636.5"/>
<polygon fill="none" stroke="#666666" points="0,-545 0,-684 185,-684 185,-545 0,-545"/>
</a>
</g>
</g>
<!-- Node3&#45;&gt;Node2 -->
<g id="edge2_Node000002_Node000003" class="edge">
<title>Node3&#45;&gt;Node2</title>
<g id="a_edge2_Node000002_Node000003"><a xlink:title=" ">
<path fill="none" stroke="#63b8ff" d="M92.5,-534.6C92.5,-526.46 92.5,-518.01 92.5,-509.43"/>
<polygon fill="none" stroke="#63b8ff" points="89,-534.75 92.5,-544.75 96,-534.75 89,-534.75"/>
</a>
</g>
</g>
</g>
</svg>
