<?xml version="1.0" encoding="UTF-8" standalone="no"?>
<!DOCTYPE svg PUBLIC "-//W3C//DTD SVG 1.1//EN"
 "http://www.w3.org/Graphics/SVG/1.1/DTD/svg11.dtd">
<!-- Generated by graphviz version 2.43.0 (0)
 -->
<!-- Title: VU Pages: 1 -->
<svg width="324pt" height="1291pt"
 viewBox="0.00 0.00 324.00 1291.00" xmlns="http://www.w3.org/2000/svg" xmlns:xlink="http://www.w3.org/1999/xlink">
<g id="graph0" class="graph" transform="scale(1 1) rotate(0) translate(4 1287)">
<title>VU</title>
<!-- Node1 -->
<g id="Node000001" class="node">
<title>Node1</title>
<g id="a_Node000001"><a xlink:title="A MIDI input element that represents a Mackie Control Universal VU meter.">
<polygon fill="#999999" stroke="transparent" points="243,-359 124,-359 124,-175 243,-175 243,-359"/>
<text text-anchor="start" x="176.5" y="-347" font-family="Helvetica,sans-Serif" font-size="10.00">VU</text>
<text text-anchor="start" x="131" y="-332" font-family="Helvetica,sans-Serif" font-size="10.00">&#45;</text>
<text text-anchor="start" x="141.5" y="-332" font-family="Helvetica,sans-Serif" font-size="10.00">state</text>
<text text-anchor="start" x="131" y="-317" font-family="Helvetica,sans-Serif" font-size="10.00">&#45;</text>
<text text-anchor="start" x="141.5" y="-317" font-family="Helvetica,sans-Serif" font-size="10.00">decayTimer</text>
<text text-anchor="start" x="128.5" y="-302" font-family="Helvetica,sans-Serif" font-size="10.00">+</text>
<text text-anchor="start" x="141.5" y="-302" font-family="Helvetica,sans-Serif" font-size="10.00">VU()</text>
<text text-anchor="start" x="128.5" y="-287" font-family="Helvetica,sans-Serif" font-size="10.00">+</text>
<text text-anchor="start" x="141.5" y="-287" font-family="Helvetica,sans-Serif" font-size="10.00">VU()</text>
<text text-anchor="start" x="128.5" y="-272" font-family="Helvetica,sans-Serif" font-size="10.00">+</text>
<text text-anchor="start" x="141.5" y="-272" font-family="Helvetica,sans-Serif" font-size="10.00">reset()</text>
<text text-anchor="start" x="128.5" y="-257" font-family="Helvetica,sans-Serif" font-size="10.00">+</text>
<text text-anchor="start" x="141.5" y="-257" font-family="Helvetica,sans-Serif" font-size="10.00">update()</text>
<text text-anchor="start" x="128.5" y="-242" font-family="Helvetica,sans-Serif" font-size="10.00">#</text>
<text text-anchor="start" x="141.5" y="-242" font-family="Helvetica,sans-Serif" font-size="10.00">handleUpdateImpl()</text>
<text text-anchor="start" x="128.5" y="-227" font-family="Helvetica,sans-Serif" font-size="10.00">#</text>
<text text-anchor="start" x="141.5" y="-227" font-family="Helvetica,sans-Serif" font-size="10.00">handleUpdate()</text>
<text text-anchor="start" x="128.5" y="-212" font-family="Helvetica,sans-Serif" font-size="10.00">#</text>
<text text-anchor="start" x="141.5" y="-212" font-family="Helvetica,sans-Serif" font-size="10.00">decay()</text>
<text text-anchor="start" x="130" y="-197" font-family="Helvetica,sans-Serif" font-size="10.00">*</text>
<text text-anchor="start" x="141.5" y="-197" font-family="Helvetica,sans-Serif" font-size="10.00">getValue()</text>
<text text-anchor="start" x="130" y="-182" font-family="Helvetica,sans-Serif" font-size="10.00">*</text>
<text text-anchor="start" x="141.5" y="-182" font-family="Helvetica,sans-Serif" font-size="10.00">getOverload()</text>
<polygon fill="#666666" stroke="#666666" points="124.5,-342 124.5,-342 243.5,-342 243.5,-342 124.5,-342"/>
<polygon fill="#666666" stroke="#666666" points="124.5,-312 124.5,-312 139.5,-312 139.5,-312 124.5,-312"/>
<polygon fill="#666666" stroke="#666666" points="139.5,-312 139.5,-312 243.5,-312 243.5,-312 139.5,-312"/>
<polygon fill="none" stroke="#666666" points="124,-175 124,-359 243,-359 243,-175 124,-175"/>
</a>
</g>
</g>
<!-- Node7 -->
<g id="Node000007" class="node">
<title>Node7</title>
<g id="a_Node000007"><a xlink:href="../../df/d36/classMCU_1_1VULEDs.html" target="_top" xlink:title="A MIDI input element that represents a Mackie Control Universal VU meter and displays its value using...">
<polygon fill="white" stroke="transparent" points="243,-139 124,-139 124,0 243,0 243,-139"/>
<text text-anchor="start" x="129.5" y="-126.5" font-family="Helvetica,sans-Serif" font-size="10.00">VULEDs&lt; NumLEDs &gt;</text>
<text text-anchor="start" x="182" y="-111.5" font-family="Helvetica,sans-Serif" font-size="10.00"> </text>
<text text-anchor="start" x="133" y="-96.5" font-family="Helvetica,sans-Serif" font-size="10.00">+</text>
<text text-anchor="start" x="150.5" y="-96.5" font-family="Helvetica,sans-Serif" font-size="10.00">VULEDs()</text>
<text text-anchor="start" x="133" y="-81.5" font-family="Helvetica,sans-Serif" font-size="10.00">+</text>
<text text-anchor="start" x="150.5" y="-81.5" font-family="Helvetica,sans-Serif" font-size="10.00">VULEDs()</text>
<text text-anchor="start" x="133" y="-66.5" font-family="Helvetica,sans-Serif" font-size="10.00">+</text>
<text text-anchor="start" x="150.5" y="-66.5" font-family="Helvetica,sans-Serif" font-size="10.00">begin()</text>
<text text-anchor="start" x="133" y="-51.5" font-family="Helvetica,sans-Serif" font-size="10.00">+</text>
<text text-anchor="start" x="150.5" y="-51.5" font-family="Helvetica,sans-Serif" font-size="10.00">reset()</text>
<text text-anchor="start" x="133" y="-36.5" font-family="Helvetica,sans-Serif" font-size="10.00">+</text>
<text text-anchor="start" x="150.5" y="-36.5" font-family="Helvetica,sans-Serif" font-size="10.00">update()</text>
<text text-anchor="start" x="133" y="-21.5" font-family="Helvetica,sans-Serif" font-size="10.00">#</text>
<text text-anchor="start" x="150.5" y="-21.5" font-family="Helvetica,sans-Serif" font-size="10.00">handleUpdate()</text>
<text text-anchor="start" x="133" y="-6.5" font-family="Helvetica,sans-Serif" font-size="10.00">#</text>
<text text-anchor="start" x="150.5" y="-6.5" font-family="Helvetica,sans-Serif" font-size="10.00">updateDisplay()</text>
<polygon fill="#666666" stroke="#666666" points="124.5,-121.5 124.5,-121.5 243.5,-121.5 243.5,-121.5 124.5,-121.5"/>
<polygon fill="#666666" stroke="#666666" points="124.5,-106.5 124.5,-106.5 243.5,-106.5 243.5,-106.5 124.5,-106.5"/>
<polygon fill="none" stroke="#666666" points="124,0 124,-139 243,-139 243,0 124,0"/>
</a>
</g>
</g>
<!-- Node1&#45;&gt;Node7 -->
<g id="edge6_Node000001_Node000007" class="edge">
<title>Node1&#45;&gt;Node7</title>
<g id="a_edge6_Node000001_Node000007"><a xlink:title=" ">
<path fill="none" stroke="#63b8ff" d="M183.5,-164.65C183.5,-155.98 183.5,-147.35 183.5,-139.03"/>
<polygon fill="none" stroke="#63b8ff" points="180,-164.83 183.5,-174.83 187,-164.83 180,-164.83"/>
</a>
</g>
</g>
<!-- Node2 -->
<g id="Node000002" class="node">
<title>Node2</title>
<g id="a_Node000002"><a xlink:href="../../d5/dae/classMatchingMIDIInputElement.html" target="_top" xlink:title=" ">
<polygon fill="white" stroke="transparent" points="201,-706 0,-706 0,-395 201,-395 201,-706"/>
<text text-anchor="start" x="5.5" y="-693.5" font-family="Helvetica,sans-Serif" font-size="10.00">MatchingMIDIInputElement</text>
<text text-anchor="start" x="5.5" y="-682.5" font-family="Helvetica,sans-Serif" font-size="10.00">&lt; MIDIMessageType::ChannelPressure,</text>
<text text-anchor="start" x="66.5" y="-671.5" font-family="Helvetica,sans-Serif" font-size="10.00"> VUMatcher &gt;</text>
<text text-anchor="start" x="14" y="-656.5" font-family="Helvetica,sans-Serif" font-size="10.00">#</text>
<text text-anchor="start" x="36.5" y="-656.5" font-family="Helvetica,sans-Serif" font-size="10.00">matcher</text>
<text text-anchor="start" x="14" y="-641.5" font-family="Helvetica,sans-Serif" font-size="10.00">#</text>
<text text-anchor="start" x="36.5" y="-641.5" font-family="Helvetica,sans-Serif" font-size="10.00">next</text>
<text text-anchor="start" x="14" y="-626.5" font-family="Helvetica,sans-Serif" font-size="10.00">#</text>
<text text-anchor="start" x="36.5" y="-626.5" font-family="Helvetica,sans-Serif" font-size="10.00">previous</text>
<text text-anchor="start" x="14" y="-611.5" font-family="Helvetica,sans-Serif" font-size="10.00">#</text>
<text text-anchor="start" x="36.5" y="-611.5" font-family="Helvetica,sans-Serif" font-size="10.00">updatables</text>
<text text-anchor="start" x="14" y="-596.5" font-family="Helvetica,sans-Serif" font-size="10.00">+</text>
<text text-anchor="start" x="36.5" y="-596.5" font-family="Helvetica,sans-Serif" font-size="10.00">updateWith()</text>
<text text-anchor="start" x="14" y="-581.5" font-family="Helvetica,sans-Serif" font-size="10.00">+</text>
<text text-anchor="start" x="36.5" y="-581.5" font-family="Helvetica,sans-Serif" font-size="10.00">handleUpdate()</text>
<text text-anchor="start" x="14" y="-566.5" font-family="Helvetica,sans-Serif" font-size="10.00">+</text>
<text text-anchor="start" x="36.5" y="-566.5" font-family="Helvetica,sans-Serif" font-size="10.00">begin()</text>
<text text-anchor="start" x="14" y="-551.5" font-family="Helvetica,sans-Serif" font-size="10.00">+</text>
<text text-anchor="start" x="36.5" y="-551.5" font-family="Helvetica,sans-Serif" font-size="10.00">reset()</text>
<text text-anchor="start" x="14" y="-536.5" font-family="Helvetica,sans-Serif" font-size="10.00">+</text>
<text text-anchor="start" x="36.5" y="-536.5" font-family="Helvetica,sans-Serif" font-size="10.00">update()</text>
<text text-anchor="start" x="14" y="-521.5" font-family="Helvetica,sans-Serif" font-size="10.00">+</text>
<text text-anchor="start" x="36.5" y="-521.5" font-family="Helvetica,sans-Serif" font-size="10.00">updateAllWith()</text>
<text text-anchor="start" x="14" y="-506.5" font-family="Helvetica,sans-Serif" font-size="10.00">+</text>
<text text-anchor="start" x="36.5" y="-506.5" font-family="Helvetica,sans-Serif" font-size="10.00">updateAll()</text>
<text text-anchor="start" x="14" y="-491.5" font-family="Helvetica,sans-Serif" font-size="10.00">+</text>
<text text-anchor="start" x="36.5" y="-491.5" font-family="Helvetica,sans-Serif" font-size="10.00">beginAll()</text>
<text text-anchor="start" x="14" y="-476.5" font-family="Helvetica,sans-Serif" font-size="10.00">+</text>
<text text-anchor="start" x="36.5" y="-476.5" font-family="Helvetica,sans-Serif" font-size="10.00">resetAll()</text>
<text text-anchor="start" x="14" y="-461.5" font-family="Helvetica,sans-Serif" font-size="10.00">#</text>
<text text-anchor="start" x="36.5" y="-461.5" font-family="Helvetica,sans-Serif" font-size="10.00">MatchingMIDIInputElement()</text>
<text text-anchor="start" x="15.5" y="-446.5" font-family="Helvetica,sans-Serif" font-size="10.00">*</text>
<text text-anchor="start" x="36.5" y="-446.5" font-family="Helvetica,sans-Serif" font-size="10.00">enable()</text>
<text text-anchor="start" x="15.5" y="-431.5" font-family="Helvetica,sans-Serif" font-size="10.00">*</text>
<text text-anchor="start" x="36.5" y="-431.5" font-family="Helvetica,sans-Serif" font-size="10.00">disable()</text>
<text text-anchor="start" x="15.5" y="-416.5" font-family="Helvetica,sans-Serif" font-size="10.00">*</text>
<text text-anchor="start" x="36.5" y="-416.5" font-family="Helvetica,sans-Serif" font-size="10.00">isEnabled()</text>
<text text-anchor="start" x="15.5" y="-401.5" font-family="Helvetica,sans-Serif" font-size="10.00">*</text>
<text text-anchor="start" x="36.5" y="-401.5" font-family="Helvetica,sans-Serif" font-size="10.00">moveDown()</text>
<polygon fill="#666666" stroke="#666666" points="0.5,-666.5 0.5,-666.5 201.5,-666.5 201.5,-666.5 0.5,-666.5"/>
<polygon fill="#666666" stroke="#666666" points="0.5,-606.5 0.5,-606.5 34.5,-606.5 34.5,-606.5 0.5,-606.5"/>
<polygon fill="#666666" stroke="#666666" points="34.5,-606.5 34.5,-606.5 201.5,-606.5 201.5,-606.5 34.5,-606.5"/>
<polygon fill="none" stroke="#666666" points="0,-395 0,-706 201,-706 201,-395 0,-395"/>
</a>
</g>
</g>
<!-- Node2&#45;&gt;Node1 -->
<g id="edge1_Node000001_Node000002" class="edge">
<title>Node2&#45;&gt;Node1</title>
<g id="a_edge1_Node000001_Node000002"><a xlink:title=" ">
<path fill="none" stroke="#63b8ff" d="M148.97,-385.12C151.57,-376.28 154.14,-367.56 156.63,-359.13"/>
<polygon fill="none" stroke="#63b8ff" points="145.6,-384.17 146.13,-394.75 152.31,-386.15 145.6,-384.17"/>
</a>
</g>
</g>
<!-- Node3 -->
<g id="Node000003" class="node">
<title>Node3</title>
<g id="a_Node000003"><a xlink:href="../../d9/db1/classMIDIInputElement.html" target="_top" xlink:title="A class for objects that listen for incoming MIDI events.">
<polygon fill="white" stroke="transparent" points="172,-926 29,-926 29,-742 172,-742 172,-926"/>
<text text-anchor="start" x="34.5" y="-914" font-family="Helvetica,sans-Serif" font-size="10.00">MIDIInputElement&lt; Type &gt;</text>
<text text-anchor="start" x="99" y="-899" font-family="Helvetica,sans-Serif" font-size="10.00"> </text>
<text text-anchor="start" x="38" y="-884" font-family="Helvetica,sans-Serif" font-size="10.00">+</text>
<text text-anchor="start" x="55.5" y="-884" font-family="Helvetica,sans-Serif" font-size="10.00">~MIDIInputElement()</text>
<text text-anchor="start" x="38" y="-869" font-family="Helvetica,sans-Serif" font-size="10.00">+</text>
<text text-anchor="start" x="55.5" y="-869" font-family="Helvetica,sans-Serif" font-size="10.00">begin()</text>
<text text-anchor="start" x="38" y="-854" font-family="Helvetica,sans-Serif" font-size="10.00">+</text>
<text text-anchor="start" x="55.5" y="-854" font-family="Helvetica,sans-Serif" font-size="10.00">reset()</text>
<text text-anchor="start" x="38" y="-839" font-family="Helvetica,sans-Serif" font-size="10.00">+</text>
<text text-anchor="start" x="55.5" y="-839" font-family="Helvetica,sans-Serif" font-size="10.00">update()</text>
<text text-anchor="start" x="38" y="-824" font-family="Helvetica,sans-Serif" font-size="10.00">+</text>
<text text-anchor="start" x="55.5" y="-824" font-family="Helvetica,sans-Serif" font-size="10.00">updateWith()</text>
<text text-anchor="start" x="38" y="-809" font-family="Helvetica,sans-Serif" font-size="10.00">+</text>
<text text-anchor="start" x="55.5" y="-809" font-family="Helvetica,sans-Serif" font-size="10.00">updateAllWith()</text>
<text text-anchor="start" x="38" y="-794" font-family="Helvetica,sans-Serif" font-size="10.00">+</text>
<text text-anchor="start" x="55.5" y="-794" font-family="Helvetica,sans-Serif" font-size="10.00">updateAll()</text>
<text text-anchor="start" x="38" y="-779" font-family="Helvetica,sans-Serif" font-size="10.00">+</text>
<text text-anchor="start" x="55.5" y="-779" font-family="Helvetica,sans-Serif" font-size="10.00">beginAll()</text>
<text text-anchor="start" x="38" y="-764" font-family="Helvetica,sans-Serif" font-size="10.00">+</text>
<text text-anchor="start" x="55.5" y="-764" font-family="Helvetica,sans-Serif" font-size="10.00">resetAll()</text>
<text text-anchor="start" x="38" y="-749" font-family="Helvetica,sans-Serif" font-size="10.00">#</text>
<text text-anchor="start" x="55.5" y="-749" font-family="Helvetica,sans-Serif" font-size="10.00">MIDIInputElement()</text>
<polygon fill="#666666" stroke="#666666" points="29.5,-909 29.5,-909 172.5,-909 172.5,-909 29.5,-909"/>
<polygon fill="#666666" stroke="#666666" points="29.5,-894 29.5,-894 172.5,-894 172.5,-894 29.5,-894"/>
<polygon fill="none" stroke="#666666" points="29,-742 29,-926 172,-926 172,-742 29,-742"/>
</a>
</g>
</g>
<!-- Node3&#45;&gt;Node2 -->
<g id="edge2_Node000002_Node000003" class="edge">
<title>Node3&#45;&gt;Node2</title>
<g id="a_edge2_Node000002_Node000003"><a xlink:title=" ">
<path fill="none" stroke="#63b8ff" d="M100.5,-731.84C100.5,-723.43 100.5,-714.82 100.5,-706.13"/>
<polygon fill="none" stroke="#63b8ff" points="97,-731.99 100.5,-741.99 104,-731.99 97,-731.99"/>
</a>
</g>
</g>
<!-- Node4 -->
<g id="Node000004" class="node">
<title>Node4</title>
<g id="a_Node000004"><a xlink:href="../../d8/d1a/classAH_1_1UpdatableCRTP.html" target="_top" xlink:title=" ">
<polygon fill="white" stroke="transparent" points="172.5,-1142 28.5,-1142 28.5,-962 172.5,-962 172.5,-1142"/>
<text text-anchor="start" x="33.5" y="-1130" font-family="Helvetica,sans-Serif" font-size="10.00">UpdatableCRTP&lt; MIDIInput</text>
<text text-anchor="start" x="52" y="-1119" font-family="Helvetica,sans-Serif" font-size="10.00">Element&lt; Type &gt; &gt;</text>
<text text-anchor="start" x="40.5" y="-1104" font-family="Helvetica,sans-Serif" font-size="10.00">#</text>
<text text-anchor="start" x="61.5" y="-1104" font-family="Helvetica,sans-Serif" font-size="10.00">next</text>
<text text-anchor="start" x="40.5" y="-1089" font-family="Helvetica,sans-Serif" font-size="10.00">#</text>
<text text-anchor="start" x="61.5" y="-1089" font-family="Helvetica,sans-Serif" font-size="10.00">previous</text>
<text text-anchor="start" x="40.5" y="-1074" font-family="Helvetica,sans-Serif" font-size="10.00">#</text>
<text text-anchor="start" x="61.5" y="-1074" font-family="Helvetica,sans-Serif" font-size="10.00">updatables</text>
<text text-anchor="start" x="40.5" y="-1059" font-family="Helvetica,sans-Serif" font-size="10.00">+</text>
<text text-anchor="start" x="61.5" y="-1059" font-family="Helvetica,sans-Serif" font-size="10.00">~UpdatableCRTP()</text>
<text text-anchor="start" x="40.5" y="-1044" font-family="Helvetica,sans-Serif" font-size="10.00">#</text>
<text text-anchor="start" x="61.5" y="-1044" font-family="Helvetica,sans-Serif" font-size="10.00">UpdatableCRTP()</text>
<text text-anchor="start" x="40.5" y="-1029" font-family="Helvetica,sans-Serif" font-size="10.00">#</text>
<text text-anchor="start" x="61.5" y="-1029" font-family="Helvetica,sans-Serif" font-size="10.00">operator=()</text>
<text text-anchor="start" x="42" y="-1014" font-family="Helvetica,sans-Serif" font-size="10.00">*</text>
<text text-anchor="start" x="61.5" y="-1014" font-family="Helvetica,sans-Serif" font-size="10.00">enable()</text>
<text text-anchor="start" x="42" y="-999" font-family="Helvetica,sans-Serif" font-size="10.00">*</text>
<text text-anchor="start" x="61.5" y="-999" font-family="Helvetica,sans-Serif" font-size="10.00">disable()</text>
<text text-anchor="start" x="42" y="-984" font-family="Helvetica,sans-Serif" font-size="10.00">*</text>
<text text-anchor="start" x="61.5" y="-984" font-family="Helvetica,sans-Serif" font-size="10.00">isEnabled()</text>
<text text-anchor="start" x="42" y="-969" font-family="Helvetica,sans-Serif" font-size="10.00">*</text>
<text text-anchor="start" x="61.5" y="-969" font-family="Helvetica,sans-Serif" font-size="10.00">moveDown()</text>
<polygon fill="#666666" stroke="#666666" points="28.5,-1114 28.5,-1114 172.5,-1114 172.5,-1114 28.5,-1114"/>
<polygon fill="#666666" stroke="#666666" points="28.5,-1069 28.5,-1069 59.5,-1069 59.5,-1069 28.5,-1069"/>
<polygon fill="#666666" stroke="#666666" points="59.5,-1069 59.5,-1069 172.5,-1069 172.5,-1069 59.5,-1069"/>
<polygon fill="none" stroke="#666666" points="28.5,-962 28.5,-1142 172.5,-1142 172.5,-962 28.5,-962"/>
</a>
</g>
</g>
<!-- Node4&#45;&gt;Node3 -->
<g id="edge3_Node000003_Node000004" class="edge">
<title>Node4&#45;&gt;Node3</title>
<g id="a_edge3_Node000003_Node000004"><a xlink:title=" ">
<path fill="none" stroke="#63b8ff" d="M100.5,-951.66C100.5,-943.22 100.5,-934.71 100.5,-926.34"/>
<polygon fill="none" stroke="#63b8ff" points="97,-951.9 100.5,-961.9 104,-951.9 97,-951.9"/>
</a>
</g>
</g>
<!-- Node5 -->
<g id="Node000005" class="node">
<title>Node5</title>
<g id="a_Node000005"><a xlink:href="../../d4/d23/classDoublyLinkable.html" target="_top" xlink:title=" ">
<polygon fill="white" stroke="transparent" points="172.5,-1283 28.5,-1283 28.5,-1178 172.5,-1178 172.5,-1283"/>
<text text-anchor="start" x="33.5" y="-1270.5" font-family="Helvetica,sans-Serif" font-size="10.00">DoublyLinkable&lt; MIDIInput</text>
<text text-anchor="start" x="52" y="-1259.5" font-family="Helvetica,sans-Serif" font-size="10.00">Element&lt; Type &gt; &gt;</text>
<text text-anchor="start" x="40.5" y="-1244.5" font-family="Helvetica,sans-Serif" font-size="10.00">#</text>
<text text-anchor="start" x="61.5" y="-1244.5" font-family="Helvetica,sans-Serif" font-size="10.00">next</text>
<text text-anchor="start" x="40.5" y="-1229.5" font-family="Helvetica,sans-Serif" font-size="10.00">#</text>
<text text-anchor="start" x="61.5" y="-1229.5" font-family="Helvetica,sans-Serif" font-size="10.00">previous</text>
<text text-anchor="start" x="40.5" y="-1214.5" font-family="Helvetica,sans-Serif" font-size="10.00">#</text>
<text text-anchor="start" x="61.5" y="-1214.5" font-family="Helvetica,sans-Serif" font-size="10.00">~DoublyLinkable()</text>
<text text-anchor="start" x="40.5" y="-1199.5" font-family="Helvetica,sans-Serif" font-size="10.00">#</text>
<text text-anchor="start" x="61.5" y="-1199.5" font-family="Helvetica,sans-Serif" font-size="10.00">DoublyLinkable()</text>
<text text-anchor="start" x="40.5" y="-1184.5" font-family="Helvetica,sans-Serif" font-size="10.00">#</text>
<text text-anchor="start" x="61.5" y="-1184.5" font-family="Helvetica,sans-Serif" font-size="10.00">operator=()</text>
<polygon fill="#666666" stroke="#666666" points="28.5,-1254.5 28.5,-1254.5 172.5,-1254.5 172.5,-1254.5 28.5,-1254.5"/>
<polygon fill="#666666" stroke="#666666" points="28.5,-1224.5 28.5,-1224.5 59.5,-1224.5 59.5,-1224.5 28.5,-1224.5"/>
<polygon fill="#666666" stroke="#666666" points="59.5,-1224.5 59.5,-1224.5 172.5,-1224.5 172.5,-1224.5 59.5,-1224.5"/>
<polygon fill="none" stroke="#666666" points="28.5,-1178 28.5,-1283 172.5,-1283 172.5,-1178 28.5,-1178"/>
</a>
</g>
</g>
<!-- Node5&#45;&gt;Node4 -->
<g id="edge4_Node000004_Node000005" class="edge">
<title>Node5&#45;&gt;Node4</title>
<g id="a_edge4_Node000004_Node000005"><a xlink:title=" ">
<path fill="none" stroke="#63b8ff" d="M100.5,-1167.96C100.5,-1159.58 100.5,-1150.86 100.5,-1142.12"/>
<polygon fill="none" stroke="#63b8ff" points="97,-1167.97 100.5,-1177.97 104,-1167.97 97,-1167.97"/>
</a>
</g>
</g>
<!-- Node6 -->
<g id="Node000006" class="node">
<title>Node6</title>
<g id="a_Node000006"><a xlink:href="../../dc/d25/classInterfaces_1_1MCU_1_1IVU.html" target="_top" xlink:title="An abstract interface for VU meters.">
<polygon fill="white" stroke="transparent" points="316,-635 219,-635 219,-466 316,-466 316,-635"/>
<text text-anchor="start" x="259" y="-622.5" font-family="Helvetica,sans-Serif" font-size="10.00">IVU</text>
<text text-anchor="start" x="223.5" y="-607.5" font-family="Helvetica,sans-Serif" font-size="10.00">#</text>
<text text-anchor="start" x="236.5" y="-607.5" font-family="Helvetica,sans-Serif" font-size="10.00">max</text>
<text text-anchor="start" x="223.5" y="-592.5" font-family="Helvetica,sans-Serif" font-size="10.00">#</text>
<text text-anchor="start" x="236.5" y="-592.5" font-family="Helvetica,sans-Serif" font-size="10.00">alwaysDirty</text>
<text text-anchor="start" x="223.5" y="-577.5" font-family="Helvetica,sans-Serif" font-size="10.00">#</text>
<text text-anchor="start" x="236.5" y="-577.5" font-family="Helvetica,sans-Serif" font-size="10.00">dirty</text>
<text text-anchor="start" x="223.5" y="-562.5" font-family="Helvetica,sans-Serif" font-size="10.00">+</text>
<text text-anchor="start" x="236.5" y="-562.5" font-family="Helvetica,sans-Serif" font-size="10.00">IVU()</text>
<text text-anchor="start" x="223.5" y="-547.5" font-family="Helvetica,sans-Serif" font-size="10.00">+</text>
<text text-anchor="start" x="236.5" y="-547.5" font-family="Helvetica,sans-Serif" font-size="10.00">getValue()</text>
<text text-anchor="start" x="223.5" y="-532.5" font-family="Helvetica,sans-Serif" font-size="10.00">+</text>
<text text-anchor="start" x="236.5" y="-532.5" font-family="Helvetica,sans-Serif" font-size="10.00">getOverload()</text>
<text text-anchor="start" x="223.5" y="-517.5" font-family="Helvetica,sans-Serif" font-size="10.00">+</text>
<text text-anchor="start" x="236.5" y="-517.5" font-family="Helvetica,sans-Serif" font-size="10.00">getFloatValue()</text>
<text text-anchor="start" x="223.5" y="-502.5" font-family="Helvetica,sans-Serif" font-size="10.00">+</text>
<text text-anchor="start" x="236.5" y="-502.5" font-family="Helvetica,sans-Serif" font-size="10.00">getMax()</text>
<text text-anchor="start" x="225" y="-487.5" font-family="Helvetica,sans-Serif" font-size="10.00">*</text>
<text text-anchor="start" x="236.5" y="-487.5" font-family="Helvetica,sans-Serif" font-size="10.00">getDirty()</text>
<text text-anchor="start" x="225" y="-472.5" font-family="Helvetica,sans-Serif" font-size="10.00">*</text>
<text text-anchor="start" x="236.5" y="-472.5" font-family="Helvetica,sans-Serif" font-size="10.00">clearDirty()</text>
<polygon fill="#666666" stroke="#666666" points="219.5,-617.5 219.5,-617.5 316.5,-617.5 316.5,-617.5 219.5,-617.5"/>
<polygon fill="#666666" stroke="#666666" points="219.5,-572.5 219.5,-572.5 234.5,-572.5 234.5,-572.5 219.5,-572.5"/>
<polygon fill="#666666" stroke="#666666" points="234.5,-572.5 234.5,-572.5 316.5,-572.5 316.5,-572.5 234.5,-572.5"/>
<polygon fill="none" stroke="#666666" points="219,-466 219,-635 316,-635 316,-466 219,-466"/>
</a>
</g>
</g>
<!-- Node6&#45;&gt;Node1 -->
<g id="edge5_Node000001_Node000006" class="edge">
<title>Node6&#45;&gt;Node1</title>
<g id="a_edge5_Node000001_Node000006"><a xlink:title=" ">
<path fill="none" stroke="#63b8ff" d="M239.55,-455.83C230.27,-424.73 219.95,-390.16 210.72,-359.24"/>
<polygon fill="none" stroke="#63b8ff" points="236.31,-457.22 242.52,-465.8 243.02,-455.22 236.31,-457.22"/>
</a>
</g>
</g>
</g>
</svg>
