<?xml version="1.0" encoding="UTF-8" standalone="no"?>
<!DOCTYPE svg PUBLIC "-//W3C//DTD SVG 1.1//EN"
 "http://www.w3.org/Graphics/SVG/1.1/DTD/svg11.dtd">
<!-- Generated by graphviz version 2.38.0 (20140413.2041)
 -->
<!-- Title: DisplayElement.cpp Pages: 1 -->
<svg width="804pt" height="655pt"
 viewBox="0.00 0.00 804.09 655.00" xmlns="http://www.w3.org/2000/svg" xmlns:xlink="http://www.w3.org/1999/xlink">
<g id="graph0" class="graph" transform="scale(1 1) rotate(0) translate(4 651)">
<title>DisplayElement.cpp</title>
<polygon fill="white" stroke="none" points="-4,4 -4,-651 800.093,-651 800.093,4 -4,4"/>
<!-- Node1 -->
<g id="node1" class="node"><title>Node1</title>
<g id="a_node1"><a xlink:title=" ">
<polygon fill="#bfbfbf" stroke="black" points="489.663,-627.5 489.663,-646.5 593.663,-646.5 593.663,-627.5 489.663,-627.5"/>
<text text-anchor="middle" x="541.663" y="-634.5" font-family="Helvetica,sans-Serif" font-size="10.00">DisplayElement.cpp</text>
</a>
</g>
</g>
<!-- Node2 -->
<g id="node2" class="node"><title>Node2</title>
<g id="a_node2"><a xlink:href="../../d6/dd2/DisplayElement_8hpp.html" target="_top" xlink:title=" ">
<polygon fill="white" stroke="black" points="489.663,-571.5 489.663,-590.5 593.663,-590.5 593.663,-571.5 489.663,-571.5"/>
<text text-anchor="middle" x="541.663" y="-578.5" font-family="Helvetica,sans-Serif" font-size="10.00">DisplayElement.hpp</text>
</a>
</g>
</g>
<!-- Node1&#45;&gt;Node2 -->
<g id="edge1" class="edge"><title>Node1&#45;&gt;Node2</title>
<path fill="none" stroke="midnightblue" d="M541.663,-627.083C541.663,-620.006 541.663,-609.861 541.663,-600.986"/>
<polygon fill="midnightblue" stroke="midnightblue" points="545.163,-600.751 541.663,-590.751 538.163,-600.751 545.163,-600.751"/>
</g>
<!-- Node3 -->
<g id="node3" class="node"><title>Node3</title>
<g id="a_node3"><a xlink:href="../../dc/d77/DisplayInterface_8hpp.html" target="_top" xlink:title=" ">
<polygon fill="white" stroke="black" points="302.163,-515.5 302.163,-534.5 445.163,-534.5 445.163,-515.5 302.163,-515.5"/>
<text text-anchor="middle" x="373.663" y="-522.5" font-family="Helvetica,sans-Serif" font-size="10.00">Display/DisplayInterface.hpp</text>
</a>
</g>
</g>
<!-- Node2&#45;&gt;Node3 -->
<g id="edge2" class="edge"><title>Node2&#45;&gt;Node3</title>
<path fill="none" stroke="midnightblue" d="M515.043,-571.444C486.657,-562.32 441.526,-547.813 409.91,-537.651"/>
<polygon fill="midnightblue" stroke="midnightblue" points="410.75,-534.244 400.158,-534.516 408.607,-540.909 410.75,-534.244"/>
</g>
<!-- Node25 -->
<g id="node25" class="node"><title>Node25</title>
<g id="a_node25"><a xlink:href="../../de/dd1/LinkedList_8hpp.html" target="_top" xlink:title=" ">
<polygon fill="white" stroke="black" points="572.163,-280.5 572.163,-299.5 719.163,-299.5 719.163,-280.5 572.163,-280.5"/>
<text text-anchor="middle" x="645.663" y="-287.5" font-family="Helvetica,sans-Serif" font-size="10.00">AH/Containers/LinkedList.hpp</text>
</a>
</g>
</g>
<!-- Node2&#45;&gt;Node25 -->
<g id="edge44" class="edge"><title>Node2&#45;&gt;Node25</title>
<path fill="none" stroke="midnightblue" d="M554.788,-571.463C578.413,-554.943 625.663,-516.135 625.663,-470 625.663,-470 625.663,-470 625.663,-406.5 625.663,-371.856 634.507,-332.212 640.433,-309.538"/>
<polygon fill="midnightblue" stroke="midnightblue" points="643.887,-310.173 643.13,-299.605 637.132,-308.339 643.887,-310.173"/>
</g>
<!-- Node4 -->
<g id="node4" class="node"><title>Node4</title>
<g id="a_node4"><a xlink:href="../../d0/d4e/Def_8hpp.html" target="_top" xlink:title=" ">
<polygon fill="white" stroke="black" points="254.663,-459.5 254.663,-478.5 324.663,-478.5 324.663,-459.5 254.663,-459.5"/>
<text text-anchor="middle" x="289.663" y="-466.5" font-family="Helvetica,sans-Serif" font-size="10.00">Def/Def.hpp</text>
</a>
</g>
</g>
<!-- Node3&#45;&gt;Node4 -->
<g id="edge3" class="edge"><title>Node3&#45;&gt;Node4</title>
<path fill="none" stroke="midnightblue" d="M360.167,-515.324C347.063,-506.9 326.951,-493.971 311.556,-484.074"/>
<polygon fill="midnightblue" stroke="midnightblue" points="313.43,-481.118 303.125,-478.655 309.644,-487.006 313.43,-481.118"/>
</g>
<!-- Node3&#45;&gt;Node25 -->
<g id="edge36" class="edge"><title>Node3&#45;&gt;Node25</title>
<path fill="none" stroke="midnightblue" d="M383.666,-515.431C424.068,-480.822 575.534,-351.074 627.798,-306.303"/>
<polygon fill="midnightblue" stroke="midnightblue" points="630.251,-308.811 635.569,-299.647 625.697,-303.494 630.251,-308.811"/>
</g>
<!-- Node29 -->
<g id="node29" class="node"><title>Node29</title>
<g id="a_node29"><a xlink:title=" ">
<polygon fill="white" stroke="#bfbfbf" points="191.163,-459.5 191.163,-478.5 236.163,-478.5 236.163,-459.5 191.163,-459.5"/>
<text text-anchor="middle" x="213.663" y="-466.5" font-family="Helvetica,sans-Serif" font-size="10.00">Print.h</text>
</a>
</g>
</g>
<!-- Node3&#45;&gt;Node29 -->
<g id="edge43" class="edge"><title>Node3&#45;&gt;Node29</title>
<path fill="none" stroke="midnightblue" d="M348.31,-515.444C320.602,-506.092 276.139,-491.086 245.954,-480.898"/>
<polygon fill="midnightblue" stroke="midnightblue" points="246.904,-477.525 236.31,-477.643 244.665,-484.157 246.904,-477.525"/>
</g>
<!-- Node5 -->
<g id="node5" class="node"><title>Node5</title>
<g id="a_node5"><a xlink:href="../../d7/d42/Channel_8hpp.html" target="_top" xlink:title=" ">
<polygon fill="white" stroke="black" points="286.163,-398 286.163,-417 357.163,-417 357.163,-398 286.163,-398"/>
<text text-anchor="middle" x="321.663" y="-405" font-family="Helvetica,sans-Serif" font-size="10.00">Channel.hpp</text>
</a>
</g>
</g>
<!-- Node4&#45;&gt;Node5 -->
<g id="edge4" class="edge"><title>Node4&#45;&gt;Node5</title>
<path fill="none" stroke="midnightblue" d="M294.248,-459.475C298.905,-450.815 306.255,-437.149 312.173,-426.145"/>
<polygon fill="midnightblue" stroke="midnightblue" points="315.432,-427.474 317.086,-417.009 309.267,-424.158 315.432,-427.474"/>
</g>
<!-- Node6 -->
<g id="node6" class="node"><title>Node6</title>
<g id="a_node6"><a xlink:title=" ">
<polygon fill="white" stroke="#bfbfbf" points="66.1627,-56.5 66.1627,-75.5 115.163,-75.5 115.163,-56.5 66.1627,-56.5"/>
<text text-anchor="middle" x="90.6627" y="-63.5" font-family="Helvetica,sans-Serif" font-size="10.00">stdint.h</text>
</a>
</g>
</g>
<!-- Node4&#45;&gt;Node6 -->
<g id="edge35" class="edge"><title>Node4&#45;&gt;Node6</title>
<path fill="none" stroke="midnightblue" d="M254.314,-460.798C251.054,-460.174 247.799,-459.565 244.663,-459 195.046,-450.055 57.8057,-457.091 20.6627,-423 -4.98806,-399.457 1.66269,-381.817 1.66269,-347 1.66269,-347 1.66269,-347 1.66269,-233 1.66269,-171.69 49.402,-111.144 74.9529,-83.1292"/>
<polygon fill="midnightblue" stroke="midnightblue" points="77.5224,-85.5059 81.8036,-75.8146 72.4132,-80.7208 77.5224,-85.5059"/>
</g>
<!-- Node7 -->
<g id="node7" class="node"><title>Node7</title>
<g id="a_node7"><a xlink:title=" ">
<polygon fill="white" stroke="#bfbfbf" points="339.163,-336.5 339.163,-355.5 502.163,-355.5 502.163,-336.5 339.163,-336.5"/>
<text text-anchor="middle" x="420.663" y="-343.5" font-family="Helvetica,sans-Serif" font-size="10.00">Settings/NamespaceSettings.hpp</text>
</a>
</g>
</g>
<!-- Node4&#45;&gt;Node7 -->
<g id="edge33" class="edge"><title>Node4&#45;&gt;Node7</title>
<path fill="none" stroke="midnightblue" d="M308.897,-459.374C325.188,-451.456 348.556,-438.604 365.663,-423 384.574,-405.751 400.994,-381.038 410.854,-364.526"/>
<polygon fill="midnightblue" stroke="midnightblue" points="413.884,-366.277 415.871,-355.87 407.828,-362.767 413.884,-366.277"/>
</g>
<!-- Node8 -->
<g id="node8" class="node"><title>Node8</title>
<g id="a_node8"><a xlink:href="../../de/d76/Array_8hpp.html" target="_top" xlink:title=" ">
<polygon fill="white" stroke="black" points="194.663,-336.5 194.663,-355.5 320.663,-355.5 320.663,-336.5 194.663,-336.5"/>
<text text-anchor="middle" x="257.663" y="-343.5" font-family="Helvetica,sans-Serif" font-size="10.00">AH/Containers/Array.hpp</text>
</a>
</g>
</g>
<!-- Node4&#45;&gt;Node8 -->
<g id="edge7" class="edge"><title>Node4&#45;&gt;Node8</title>
<path fill="none" stroke="midnightblue" d="M287.077,-459.399C284.385,-450.362 280.089,-435.72 276.663,-423 271.425,-403.556 265.891,-381.181 262.154,-365.769"/>
<polygon fill="midnightblue" stroke="midnightblue" points="265.526,-364.822 259.782,-355.919 258.721,-366.461 265.526,-364.822"/>
</g>
<!-- Node19 -->
<g id="node19" class="node"><title>Node19</title>
<g id="a_node19"><a xlink:title=" ">
<polygon fill="white" stroke="#bfbfbf" points="133.663,-56.5 133.663,-75.5 185.663,-75.5 185.663,-56.5 133.663,-56.5"/>
<text text-anchor="middle" x="159.663" y="-63.5" font-family="Helvetica,sans-Serif" font-size="10.00">stddef.h</text>
</a>
</g>
</g>
<!-- Node4&#45;&gt;Node19 -->
<g id="edge34" class="edge"><title>Node4&#45;&gt;Node19</title>
<path fill="none" stroke="midnightblue" d="M272.126,-459.387C230.399,-437.518 128.663,-375.534 128.663,-291 128.663,-291 128.663,-291 128.663,-177 128.663,-143.41 142.22,-106.14 151.404,-84.7473"/>
<polygon fill="midnightblue" stroke="midnightblue" points="154.604,-86.1651 155.482,-75.6067 148.211,-83.3128 154.604,-86.1651"/>
</g>
<!-- Node24 -->
<g id="node24" class="node"><title>Node24</title>
<g id="a_node24"><a xlink:href="../../d4/d35/Hardware-Types_8hpp.html" target="_top" xlink:title=" ">
<polygon fill="white" stroke="black" points="30.1627,-392.5 30.1627,-422.5 151.163,-422.5 151.163,-392.5 30.1627,-392.5"/>
<text text-anchor="start" x="38.1627" y="-410.5" font-family="Helvetica,sans-Serif" font-size="10.00">AH/Hardware/Hardware</text>
<text text-anchor="middle" x="90.6627" y="-399.5" font-family="Helvetica,sans-Serif" font-size="10.00">&#45;Types.hpp</text>
</a>
</g>
</g>
<!-- Node4&#45;&gt;Node24 -->
<g id="edge29" class="edge"><title>Node4&#45;&gt;Node24</title>
<path fill="none" stroke="midnightblue" d="M261.151,-459.475C231.554,-450.626 184.473,-436.549 147.278,-425.428"/>
<polygon fill="midnightblue" stroke="midnightblue" points="148.147,-422.034 137.563,-422.523 146.141,-428.741 148.147,-422.034"/>
</g>
<!-- Node5&#45;&gt;Node6 -->
<g id="edge5" class="edge"><title>Node5&#45;&gt;Node6</title>
<path fill="none" stroke="midnightblue" d="M286.085,-402.249C255.374,-396.731 211.925,-384.2 185.663,-356 165.151,-333.974 166.663,-321.098 166.663,-291 166.663,-291 166.663,-291 166.663,-177 166.663,-137.276 132.699,-101.504 110.181,-82.1536"/>
<polygon fill="midnightblue" stroke="midnightblue" points="112.145,-79.2364 102.205,-75.5672 107.687,-84.6337 112.145,-79.2364"/>
</g>
<!-- Node5&#45;&gt;Node7 -->
<g id="edge6" class="edge"><title>Node5&#45;&gt;Node7</title>
<path fill="none" stroke="midnightblue" d="M335.847,-397.975C352.02,-388.255 378.689,-372.227 397.806,-360.737"/>
<polygon fill="midnightblue" stroke="midnightblue" points="399.737,-363.66 406.505,-355.509 396.131,-357.661 399.737,-363.66"/>
</g>
<!-- Node9 -->
<g id="node9" class="node"><title>Node9</title>
<g id="a_node9"><a xlink:href="../../d1/d93/Error_8hpp.html" target="_top" xlink:title=" ">
<polygon fill="white" stroke="black" points="455.663,-280.5 455.663,-299.5 553.663,-299.5 553.663,-280.5 455.663,-280.5"/>
<text text-anchor="middle" x="504.663" y="-287.5" font-family="Helvetica,sans-Serif" font-size="10.00">AH/Error/Error.hpp</text>
</a>
</g>
</g>
<!-- Node8&#45;&gt;Node9 -->
<g id="edge8" class="edge"><title>Node8&#45;&gt;Node9</title>
<path fill="none" stroke="midnightblue" d="M296.801,-336.444C339.889,-327.023 409.222,-311.866 455.834,-301.675"/>
<polygon fill="midnightblue" stroke="midnightblue" points="456.686,-305.072 465.708,-299.516 455.191,-298.233 456.686,-305.072"/>
</g>
<!-- Node8&#45;&gt;Node19 -->
<g id="edge28" class="edge"><title>Node8&#45;&gt;Node19</title>
<path fill="none" stroke="midnightblue" d="M249.584,-336.343C241.933,-327.725 230.61,-313.823 223.663,-300 210.147,-273.108 204.663,-265.098 204.663,-235 204.663,-235 204.663,-235 204.663,-177 204.663,-141.93 184.826,-104.939 171.493,-84.037"/>
<polygon fill="midnightblue" stroke="midnightblue" points="174.363,-82.031 165.92,-75.6305 168.528,-85.8991 174.363,-82.031"/>
</g>
<!-- Node22 -->
<g id="node22" class="node"><title>Node22</title>
<g id="a_node22"><a xlink:title=" ">
<polygon fill="white" stroke="#bfbfbf" points="336.163,-280.5 336.163,-299.5 437.163,-299.5 437.163,-280.5 336.163,-280.5"/>
<text text-anchor="middle" x="386.663" y="-287.5" font-family="Helvetica,sans-Serif" font-size="10.00">AH/STL/type_traits</text>
</a>
</g>
</g>
<!-- Node8&#45;&gt;Node22 -->
<g id="edge26" class="edge"><title>Node8&#45;&gt;Node22</title>
<path fill="none" stroke="midnightblue" d="M278.103,-336.444C299.333,-327.557 332.762,-313.563 356.918,-303.451"/>
<polygon fill="midnightblue" stroke="midnightblue" points="358.445,-306.606 366.318,-299.516 355.742,-300.149 358.445,-306.606"/>
</g>
<!-- Node23 -->
<g id="node23" class="node"><title>Node23</title>
<g id="a_node23"><a xlink:title=" ">
<polygon fill="white" stroke="#bfbfbf" points="233.163,-280.5 233.163,-299.5 318.163,-299.5 318.163,-280.5 233.163,-280.5"/>
<text text-anchor="middle" x="275.663" y="-287.5" font-family="Helvetica,sans-Serif" font-size="10.00">AH/STL/iterator</text>
</a>
</g>
</g>
<!-- Node8&#45;&gt;Node23 -->
<g id="edge27" class="edge"><title>Node8&#45;&gt;Node23</title>
<path fill="none" stroke="midnightblue" d="M260.635,-336.083C263.046,-328.849 266.526,-318.409 269.53,-309.397"/>
<polygon fill="midnightblue" stroke="midnightblue" points="272.904,-310.345 272.746,-299.751 266.263,-308.131 272.904,-310.345"/>
</g>
<!-- Node10 -->
<g id="node10" class="node"><title>Node10</title>
<g id="a_node10"><a xlink:href="../../df/dee/Debug_8hpp.html" target="_top" xlink:title=" ">
<polygon fill="white" stroke="black" points="491.163,-224.5 491.163,-243.5 604.163,-243.5 604.163,-224.5 491.163,-224.5"/>
<text text-anchor="middle" x="547.663" y="-231.5" font-family="Helvetica,sans-Serif" font-size="10.00">AH/Debug/Debug.hpp</text>
</a>
</g>
</g>
<!-- Node9&#45;&gt;Node10 -->
<g id="edge9" class="edge"><title>Node9&#45;&gt;Node10</title>
<path fill="none" stroke="midnightblue" d="M511.763,-280.083C517.9,-272.377 526.932,-261.033 534.402,-251.653"/>
<polygon fill="midnightblue" stroke="midnightblue" points="537.203,-253.754 540.694,-243.751 531.727,-249.394 537.203,-253.754"/>
</g>
<!-- Node11 -->
<g id="node11" class="node"><title>Node11</title>
<g id="a_node11"><a xlink:href="../../dd/d80/PrintStream_8hpp.html" target="_top" xlink:title=" ">
<polygon fill="white" stroke="black" points="548.163,-112.5 548.163,-131.5 707.163,-131.5 707.163,-112.5 548.163,-112.5"/>
<text text-anchor="middle" x="627.663" y="-119.5" font-family="Helvetica,sans-Serif" font-size="10.00">AH/PrintStream/PrintStream.hpp</text>
</a>
</g>
</g>
<!-- Node10&#45;&gt;Node11 -->
<g id="edge10" class="edge"><title>Node10&#45;&gt;Node11</title>
<path fill="none" stroke="midnightblue" d="M559.642,-224.478C570.651,-216.167 586.853,-202.665 597.663,-188 608.253,-173.633 616.402,-154.93 621.517,-141.277"/>
<polygon fill="midnightblue" stroke="midnightblue" points="624.908,-142.184 624.956,-131.589 618.312,-139.842 624.908,-142.184"/>
</g>
<!-- Node12 -->
<g id="node12" class="node"><title>Node12</title>
<g id="a_node12"><a xlink:title=" ">
<polygon fill="white" stroke="#bfbfbf" points="645.663,-0.5 645.663,-19.5 703.663,-19.5 703.663,-0.5 645.663,-0.5"/>
<text text-anchor="middle" x="674.663" y="-7.5" font-family="Helvetica,sans-Serif" font-size="10.00">Arduino.h</text>
</a>
</g>
</g>
<!-- Node10&#45;&gt;Node12 -->
<g id="edge24" class="edge"><title>Node10&#45;&gt;Node12</title>
<path fill="none" stroke="midnightblue" d="M578.61,-224.431C634.183,-207.128 749.145,-162.12 792.663,-76 810.312,-41.0721 754.482,-24.0345 713.685,-16.4219"/>
<polygon fill="midnightblue" stroke="midnightblue" points="714.142,-12.949 703.691,-14.6844 712.943,-19.8455 714.142,-12.949"/>
</g>
<!-- Node13 -->
<g id="node13" class="node"><title>Node13</title>
<g id="a_node13"><a xlink:href="../../de/dd1/AH_2Settings_2SettingsWrapper_8hpp.html" target="_top" xlink:title=" ">
<polygon fill="white" stroke="black" points="328.663,-168.5 328.663,-187.5 492.663,-187.5 492.663,-168.5 328.663,-168.5"/>
<text text-anchor="middle" x="410.663" y="-175.5" font-family="Helvetica,sans-Serif" font-size="10.00">AH/Settings/SettingsWrapper.hpp</text>
</a>
</g>
</g>
<!-- Node10&#45;&gt;Node13 -->
<g id="edge12" class="edge"><title>Node10&#45;&gt;Node13</title>
<path fill="none" stroke="midnightblue" d="M520.866,-224.444C496.37,-215.557 460.634,-201.563 436.462,-191.451"/>
<polygon fill="midnightblue" stroke="midnightblue" points="437.762,-188.201 427.189,-187.516 435.027,-194.645 437.762,-188.201"/>
</g>
<!-- Node21 -->
<g id="node21" class="node"><title>Node21</title>
<g id="a_node21"><a xlink:href="../../d7/d52/DebugVal_8hpp.html" target="_top" xlink:title=" ">
<polygon fill="white" stroke="black" points="510.663,-168.5 510.663,-187.5 588.663,-187.5 588.663,-168.5 510.663,-168.5"/>
<text text-anchor="middle" x="549.663" y="-175.5" font-family="Helvetica,sans-Serif" font-size="10.00">DebugVal.hpp</text>
</a>
</g>
</g>
<!-- Node10&#45;&gt;Node21 -->
<g id="edge25" class="edge"><title>Node10&#45;&gt;Node21</title>
<path fill="none" stroke="midnightblue" d="M547.993,-224.083C548.255,-217.006 548.631,-206.861 548.959,-197.986"/>
<polygon fill="midnightblue" stroke="midnightblue" points="552.466,-197.874 549.339,-187.751 545.471,-197.615 552.466,-197.874"/>
</g>
<!-- Node11&#45;&gt;Node12 -->
<g id="edge11" class="edge"><title>Node11&#45;&gt;Node12</title>
<path fill="none" stroke="midnightblue" d="M630.033,-112.4C633.632,-99.778 640.983,-75.6092 649.663,-56 653.823,-46.6018 659.29,-36.5664 664.051,-28.3629"/>
<polygon fill="midnightblue" stroke="midnightblue" points="667.087,-30.1051 669.194,-19.722 661.072,-26.5247 667.087,-30.1051"/>
</g>
<!-- Node13&#45;&gt;Node10 -->
<g id="edge23" class="edge"><title>Node13&#45;&gt;Node10</title>
<path fill="none" stroke="midnightblue" d="M437.349,-187.516C461.811,-196.388 497.547,-210.38 521.754,-220.503"/>
<polygon fill="midnightblue" stroke="midnightblue" points="520.471,-223.76 531.043,-224.444 523.204,-217.316 520.471,-223.76"/>
</g>
<!-- Node14 -->
<g id="node14" class="node"><title>Node14</title>
<g id="a_node14"><a xlink:href="../../d6/db0/AH_2Settings_2NamespaceSettings_8hpp.html" target="_top" xlink:title=" ">
<polygon fill="white" stroke="black" points="197.663,-0.5 197.663,-19.5 321.663,-19.5 321.663,-0.5 197.663,-0.5"/>
<text text-anchor="middle" x="259.663" y="-7.5" font-family="Helvetica,sans-Serif" font-size="10.00">NamespaceSettings.hpp</text>
</a>
</g>
</g>
<!-- Node13&#45;&gt;Node14 -->
<g id="edge13" class="edge"><title>Node13&#45;&gt;Node14</title>
<path fill="none" stroke="midnightblue" d="M343.615,-168.489C315.813,-162.171 284.736,-151.165 261.663,-132 233.852,-108.9 223.012,-90.8415 232.663,-56 235.455,-45.9205 241.172,-35.832 246.629,-27.7694"/>
<polygon fill="midnightblue" stroke="midnightblue" points="249.488,-29.7899 252.511,-19.6357 243.815,-25.6881 249.488,-29.7899"/>
</g>
<!-- Node15 -->
<g id="node15" class="node"><title>Node15</title>
<g id="a_node15"><a xlink:href="../../d5/d4f/AH_2Settings_2Settings_8hpp.html" target="_top" xlink:title="All user settings and debugging options can be changed here.">
<polygon fill="white" stroke="black" points="271.163,-112.5 271.163,-131.5 342.163,-131.5 342.163,-112.5 271.163,-112.5"/>
<text text-anchor="middle" x="306.663" y="-119.5" font-family="Helvetica,sans-Serif" font-size="10.00">Settings.hpp</text>
</a>
</g>
</g>
<!-- Node13&#45;&gt;Node15 -->
<g id="edge14" class="edge"><title>Node13&#45;&gt;Node15</title>
<path fill="none" stroke="midnightblue" d="M393.953,-168.324C377.351,-159.703 351.661,-146.364 332.442,-136.386"/>
<polygon fill="midnightblue" stroke="midnightblue" points="333.818,-133.156 323.331,-131.655 330.593,-139.369 333.818,-133.156"/>
</g>
<!-- Node20 -->
<g id="node20" class="node"><title>Node20</title>
<g id="a_node20"><a xlink:href="../../d9/d98/TeensyUSBTypes_8hpp.html" target="_top" xlink:title=" ">
<polygon fill="white" stroke="black" points="360.663,-112.5 360.663,-131.5 528.663,-131.5 528.663,-112.5 360.663,-112.5"/>
<text text-anchor="middle" x="444.663" y="-119.5" font-family="Helvetica,sans-Serif" font-size="10.00">AH/Teensy/TeensyUSBTypes.hpp</text>
</a>
</g>
</g>
<!-- Node13&#45;&gt;Node20 -->
<g id="edge22" class="edge"><title>Node13&#45;&gt;Node20</title>
<path fill="none" stroke="midnightblue" d="M416.277,-168.083C421.03,-160.534 427.981,-149.495 433.814,-140.23"/>
<polygon fill="midnightblue" stroke="midnightblue" points="436.786,-142.078 439.153,-131.751 430.863,-138.349 436.786,-142.078"/>
</g>
<!-- Node15&#45;&gt;Node6 -->
<g id="edge21" class="edge"><title>Node15&#45;&gt;Node6</title>
<path fill="none" stroke="midnightblue" d="M271.389,-112.46C236.699,-104.021 181.985,-90.6037 125.062,-76.0698"/>
<polygon fill="midnightblue" stroke="midnightblue" points="125.72,-72.6254 115.164,-73.5369 123.984,-79.4069 125.72,-72.6254"/>
</g>
<!-- Node16 -->
<g id="node16" class="node"><title>Node16</title>
<g id="a_node16"><a xlink:href="../../dc/d50/Frequency_8hpp.html" target="_top" xlink:title=" ">
<polygon fill="white" stroke="black" points="241.663,-56.5 241.663,-75.5 369.663,-75.5 369.663,-56.5 241.663,-56.5"/>
<text text-anchor="middle" x="305.663" y="-63.5" font-family="Helvetica,sans-Serif" font-size="10.00">AH/Types/Frequency.hpp</text>
</a>
</g>
</g>
<!-- Node15&#45;&gt;Node16 -->
<g id="edge15" class="edge"><title>Node15&#45;&gt;Node16</title>
<path fill="none" stroke="midnightblue" d="M306.498,-112.083C306.366,-105.006 306.179,-94.8611 306.014,-85.9865"/>
<polygon fill="midnightblue" stroke="midnightblue" points="309.509,-85.6845 305.825,-75.7511 302.511,-85.8142 309.509,-85.6845"/>
</g>
<!-- Node17 -->
<g id="node17" class="node"><title>Node17</title>
<g id="a_node17"><a xlink:href="../../d7/d7c/ADCConfig_8hpp.html" target="_top" xlink:title="This file contains the platform&#45;specific ADC resolutions. By default, the library automatically selec...">
<polygon fill="white" stroke="black" points="453.663,-56.5 453.663,-75.5 601.663,-75.5 601.663,-56.5 453.663,-56.5"/>
<text text-anchor="middle" x="527.663" y="-63.5" font-family="Helvetica,sans-Serif" font-size="10.00">AH/Hardware/ADCConfig.hpp</text>
</a>
</g>
</g>
<!-- Node15&#45;&gt;Node17 -->
<g id="edge17" class="edge"><title>Node15&#45;&gt;Node17</title>
<path fill="none" stroke="midnightblue" d="M341.681,-112.444C379.91,-103.102 441.229,-88.1194 482.92,-77.9326"/>
<polygon fill="midnightblue" stroke="midnightblue" points="483.925,-81.2901 492.808,-75.5164 482.263,-74.4901 483.925,-81.2901"/>
</g>
<!-- Node18 -->
<g id="node18" class="node"><title>Node18</title>
<g id="a_node18"><a xlink:title=" ">
<polygon fill="white" stroke="#bfbfbf" points="387.663,-56.5 387.663,-75.5 435.663,-75.5 435.663,-56.5 387.663,-56.5"/>
<text text-anchor="middle" x="411.663" y="-63.5" font-family="Helvetica,sans-Serif" font-size="10.00">limits.h</text>
</a>
</g>
</g>
<!-- Node15&#45;&gt;Node18 -->
<g id="edge19" class="edge"><title>Node15&#45;&gt;Node18</title>
<path fill="none" stroke="midnightblue" d="M323.533,-112.324C340.371,-103.664 366.469,-90.2424 385.901,-80.249"/>
<polygon fill="midnightblue" stroke="midnightblue" points="387.542,-83.3405 394.834,-75.6545 384.341,-77.1155 387.542,-83.3405"/>
</g>
<!-- Node15&#45;&gt;Node19 -->
<g id="edge20" class="edge"><title>Node15&#45;&gt;Node19</title>
<path fill="none" stroke="midnightblue" d="M283.37,-112.444C258.855,-103.438 220.066,-89.1891 192.463,-79.049"/>
<polygon fill="midnightblue" stroke="midnightblue" points="193.44,-75.6793 182.846,-75.5164 191.026,-82.25 193.44,-75.6793"/>
</g>
<!-- Node16&#45;&gt;Node14 -->
<g id="edge16" class="edge"><title>Node16&#45;&gt;Node14</title>
<path fill="none" stroke="midnightblue" d="M298.067,-56.083C291.435,-48.2982 281.642,-36.8015 273.605,-27.3665"/>
<polygon fill="midnightblue" stroke="midnightblue" points="276.266,-25.0939 267.117,-19.7511 270.938,-29.6332 276.266,-25.0939"/>
</g>
<!-- Node17&#45;&gt;Node12 -->
<g id="edge18" class="edge"><title>Node17&#45;&gt;Node12</title>
<path fill="none" stroke="midnightblue" d="M550.955,-56.4435C575.47,-47.4381 614.259,-33.1891 641.863,-23.049"/>
<polygon fill="midnightblue" stroke="midnightblue" points="643.299,-26.25 651.479,-19.5164 640.885,-19.6793 643.299,-26.25"/>
</g>
<!-- Node24&#45;&gt;Node6 -->
<g id="edge32" class="edge"><title>Node24&#45;&gt;Node6</title>
<path fill="none" stroke="midnightblue" d="M90.6627,-392.275C90.6627,-370.476 90.6627,-327.495 90.6627,-291 90.6627,-291 90.6627,-291 90.6627,-177 90.6627,-144.948 90.6627,-107.643 90.6627,-85.7489"/>
<polygon fill="midnightblue" stroke="midnightblue" points="94.1628,-85.5577 90.6627,-75.5578 87.1628,-85.5578 94.1628,-85.5577"/>
</g>
<!-- Node24&#45;&gt;Node8 -->
<g id="edge30" class="edge"><title>Node24&#45;&gt;Node8</title>
<path fill="none" stroke="midnightblue" d="M130.239,-392.399C158.759,-382.238 196.837,-368.672 223.92,-359.022"/>
<polygon fill="midnightblue" stroke="midnightblue" points="225.117,-362.311 233.363,-355.658 222.768,-355.717 225.117,-362.311"/>
</g>
<!-- Node24&#45;&gt;Node14 -->
<g id="edge31" class="edge"><title>Node24&#45;&gt;Node14</title>
<path fill="none" stroke="midnightblue" d="M79.8469,-392.438C64.8763,-371.528 39.6627,-330.456 39.6627,-291 39.6627,-291 39.6627,-291 39.6627,-233 39.6627,-153.971 4.3033,-115.195 56.6627,-56 73.9275,-36.4813 136.284,-24.6658 187.381,-18.0728"/>
<polygon fill="midnightblue" stroke="midnightblue" points="187.942,-21.5302 197.434,-16.8232 187.078,-14.5836 187.942,-21.5302"/>
</g>
<!-- Node25&#45;&gt;Node10 -->
<g id="edge37" class="edge"><title>Node25&#45;&gt;Node10</title>
<path fill="none" stroke="midnightblue" d="M629.917,-280.324C614.344,-271.743 590.285,-258.486 572.203,-248.522"/>
<polygon fill="midnightblue" stroke="midnightblue" points="573.817,-245.415 563.369,-243.655 570.438,-251.546 573.817,-245.415"/>
</g>
<!-- Node26 -->
<g id="node26" class="node"><title>Node26</title>
<g id="a_node26"><a xlink:href="../../d7/d79/MinMaxFix_8hpp.html" target="_top" xlink:title=" ">
<polygon fill="white" stroke="black" points="658.163,-56.5 658.163,-75.5 783.163,-75.5 783.163,-56.5 658.163,-56.5"/>
<text text-anchor="middle" x="720.663" y="-63.5" font-family="Helvetica,sans-Serif" font-size="10.00">AH/Math/MinMaxFix.hpp</text>
</a>
</g>
</g>
<!-- Node25&#45;&gt;Node26 -->
<g id="edge38" class="edge"><title>Node25&#45;&gt;Node26</title>
<path fill="none" stroke="midnightblue" d="M689.668,-280.441C710.065,-274.034 732.448,-262.969 744.663,-244 777.07,-193.672 746.96,-118.606 730.187,-84.7235"/>
<polygon fill="midnightblue" stroke="midnightblue" points="733.181,-82.8935 725.493,-75.6033 726.957,-86.0965 733.181,-82.8935"/>
</g>
<!-- Node27 -->
<g id="node27" class="node"><title>Node27</title>
<g id="a_node27"><a xlink:title=" ">
<polygon fill="white" stroke="#bfbfbf" points="687.663,-224.5 687.663,-243.5 735.663,-243.5 735.663,-224.5 687.663,-224.5"/>
<text text-anchor="middle" x="711.663" y="-231.5" font-family="Helvetica,sans-Serif" font-size="10.00">stdlib.h</text>
</a>
</g>
</g>
<!-- Node25&#45;&gt;Node27 -->
<g id="edge41" class="edge"><title>Node25&#45;&gt;Node27</title>
<path fill="none" stroke="midnightblue" d="M656.267,-280.324C666.119,-272.263 681.014,-260.077 692.878,-250.369"/>
<polygon fill="midnightblue" stroke="midnightblue" points="695.342,-252.875 700.866,-243.834 690.91,-247.457 695.342,-252.875"/>
</g>
<!-- Node28 -->
<g id="node28" class="node"><title>Node28</title>
<g id="a_node28"><a xlink:title=" ">
<polygon fill="white" stroke="#bfbfbf" points="622.163,-224.5 622.163,-243.5 669.163,-243.5 669.163,-224.5 622.163,-224.5"/>
<text text-anchor="middle" x="645.663" y="-231.5" font-family="Helvetica,sans-Serif" font-size="10.00">iterator</text>
</a>
</g>
</g>
<!-- Node25&#45;&gt;Node28 -->
<g id="edge42" class="edge"><title>Node25&#45;&gt;Node28</title>
<path fill="none" stroke="midnightblue" d="M645.663,-280.083C645.663,-273.006 645.663,-262.861 645.663,-253.986"/>
<polygon fill="midnightblue" stroke="midnightblue" points="649.163,-253.751 645.663,-243.751 642.163,-253.751 649.163,-253.751"/>
</g>
<!-- Node26&#45;&gt;Node12 -->
<g id="edge39" class="edge"><title>Node26&#45;&gt;Node12</title>
<path fill="none" stroke="midnightblue" d="M713.067,-56.083C706.435,-48.2982 696.642,-36.8015 688.605,-27.3665"/>
<polygon fill="midnightblue" stroke="midnightblue" points="691.266,-25.0939 682.117,-19.7511 685.938,-29.6332 691.266,-25.0939"/>
</g>
<!-- Node26&#45;&gt;Node14 -->
<g id="edge40" class="edge"><title>Node26&#45;&gt;Node14</title>
<path fill="none" stroke="midnightblue" d="M658.01,-57.6611C573.029,-47.7067 421.565,-29.9647 331.894,-19.461"/>
<polygon fill="midnightblue" stroke="midnightblue" points="332.149,-15.9669 321.809,-18.2797 331.334,-22.9194 332.149,-15.9669"/>
</g>
</g>
</svg>
