<?xml version="1.0" encoding="UTF-8" standalone="no"?>
<!DOCTYPE svg PUBLIC "-//W3C//DTD SVG 1.1//EN"
 "http://www.w3.org/Graphics/SVG/1.1/DTD/svg11.dtd">
<!-- Generated by graphviz version 2.43.0 (0)
 -->
<!-- Title: NoteCCKPValue&lt; Type &gt; Pages: 1 -->
<svg width="268pt" height="1030pt"
 viewBox="0.00 0.00 268.00 1030.00" xmlns="http://www.w3.org/2000/svg" xmlns:xlink="http://www.w3.org/1999/xlink">
<g id="graph0" class="graph" transform="scale(1 1) rotate(0) translate(4 1026)">
<title>NoteCCKPValue&lt; Type &gt;</title>
<!-- Node1 -->
<g id="Node000001" class="node">
<title>Node1</title>
<g id="a_Node000001"><a xlink:title="Generic base class for classes that listen for MIDI Note, Control Change and Key Pressure events on a...">
<polygon fill="#999999" stroke="transparent" points="217.5,-109 85.5,-109 85.5,0 217.5,0 217.5,-109"/>
<text text-anchor="start" x="90.5" y="-96.5" font-family="Helvetica,sans-Serif" font-size="10.00">NoteCCKPValue&lt; Type &gt;</text>
<text text-anchor="start" x="95" y="-81.5" font-family="Helvetica,sans-Serif" font-size="10.00">&#45;</text>
<text text-anchor="start" x="108.5" y="-81.5" font-family="Helvetica,sans-Serif" font-size="10.00">value</text>
<text text-anchor="start" x="92.5" y="-66.5" font-family="Helvetica,sans-Serif" font-size="10.00">+</text>
<text text-anchor="start" x="108.5" y="-66.5" font-family="Helvetica,sans-Serif" font-size="10.00">NoteCCKPValue()</text>
<text text-anchor="start" x="92.5" y="-51.5" font-family="Helvetica,sans-Serif" font-size="10.00">+</text>
<text text-anchor="start" x="108.5" y="-51.5" font-family="Helvetica,sans-Serif" font-size="10.00">reset()</text>
<text text-anchor="start" x="92.5" y="-36.5" font-family="Helvetica,sans-Serif" font-size="10.00">#</text>
<text text-anchor="start" x="108.5" y="-36.5" font-family="Helvetica,sans-Serif" font-size="10.00">handleUpdateImpl()</text>
<text text-anchor="start" x="92.5" y="-21.5" font-family="Helvetica,sans-Serif" font-size="10.00">#</text>
<text text-anchor="start" x="108.5" y="-21.5" font-family="Helvetica,sans-Serif" font-size="10.00">handleUpdate()</text>
<text text-anchor="start" x="94" y="-6.5" font-family="Helvetica,sans-Serif" font-size="10.00">*</text>
<text text-anchor="start" x="108.5" y="-6.5" font-family="Helvetica,sans-Serif" font-size="10.00">getValue()</text>
<polygon fill="#666666" stroke="#666666" points="85.5,-91.5 85.5,-91.5 217.5,-91.5 217.5,-91.5 85.5,-91.5"/>
<polygon fill="#666666" stroke="#666666" points="85.5,-76.5 85.5,-76.5 106.5,-76.5 106.5,-76.5 85.5,-76.5"/>
<polygon fill="#666666" stroke="#666666" points="106.5,-76.5 106.5,-76.5 217.5,-76.5 217.5,-76.5 106.5,-76.5"/>
<polygon fill="none" stroke="#666666" points="85.5,0 85.5,-109 217.5,-109 217.5,0 85.5,0"/>
</a>
</g>
</g>
<!-- Node2 -->
<g id="Node000002" class="node">
<title>Node2</title>
<g id="a_Node000002"><a xlink:href="../../d5/dae/classMatchingMIDIInputElement.html" target="_top" xlink:title=" ">
<polygon fill="white" stroke="transparent" points="165,-445 0,-445 0,-145 165,-145 165,-445"/>
<text text-anchor="start" x="5.5" y="-433" font-family="Helvetica,sans-Serif" font-size="10.00">MatchingMIDIInputElement</text>
<text text-anchor="start" x="5.5" y="-422" font-family="Helvetica,sans-Serif" font-size="10.00">&lt; Type, TwoByteMIDIMatcher &gt;</text>
<text text-anchor="start" x="5" y="-407" font-family="Helvetica,sans-Serif" font-size="10.00">#</text>
<text text-anchor="start" x="18.5" y="-407" font-family="Helvetica,sans-Serif" font-size="10.00">matcher</text>
<text text-anchor="start" x="5" y="-392" font-family="Helvetica,sans-Serif" font-size="10.00">#</text>
<text text-anchor="start" x="18.5" y="-392" font-family="Helvetica,sans-Serif" font-size="10.00">next</text>
<text text-anchor="start" x="5" y="-377" font-family="Helvetica,sans-Serif" font-size="10.00">#</text>
<text text-anchor="start" x="18.5" y="-377" font-family="Helvetica,sans-Serif" font-size="10.00">previous</text>
<text text-anchor="start" x="5" y="-362" font-family="Helvetica,sans-Serif" font-size="10.00">#</text>
<text text-anchor="start" x="18.5" y="-362" font-family="Helvetica,sans-Serif" font-size="10.00">updatables</text>
<text text-anchor="start" x="5" y="-347" font-family="Helvetica,sans-Serif" font-size="10.00">+</text>
<text text-anchor="start" x="18.5" y="-347" font-family="Helvetica,sans-Serif" font-size="10.00">updateWith()</text>
<text text-anchor="start" x="5" y="-332" font-family="Helvetica,sans-Serif" font-size="10.00">+</text>
<text text-anchor="start" x="18.5" y="-332" font-family="Helvetica,sans-Serif" font-size="10.00">handleUpdate()</text>
<text text-anchor="start" x="5" y="-317" font-family="Helvetica,sans-Serif" font-size="10.00">+</text>
<text text-anchor="start" x="18.5" y="-317" font-family="Helvetica,sans-Serif" font-size="10.00">begin()</text>
<text text-anchor="start" x="5" y="-302" font-family="Helvetica,sans-Serif" font-size="10.00">+</text>
<text text-anchor="start" x="18.5" y="-302" font-family="Helvetica,sans-Serif" font-size="10.00">reset()</text>
<text text-anchor="start" x="5" y="-287" font-family="Helvetica,sans-Serif" font-size="10.00">+</text>
<text text-anchor="start" x="18.5" y="-287" font-family="Helvetica,sans-Serif" font-size="10.00">update()</text>
<text text-anchor="start" x="5" y="-272" font-family="Helvetica,sans-Serif" font-size="10.00">+</text>
<text text-anchor="start" x="18.5" y="-272" font-family="Helvetica,sans-Serif" font-size="10.00">updateAllWith()</text>
<text text-anchor="start" x="5" y="-257" font-family="Helvetica,sans-Serif" font-size="10.00">+</text>
<text text-anchor="start" x="18.5" y="-257" font-family="Helvetica,sans-Serif" font-size="10.00">updateAll()</text>
<text text-anchor="start" x="5" y="-242" font-family="Helvetica,sans-Serif" font-size="10.00">+</text>
<text text-anchor="start" x="18.5" y="-242" font-family="Helvetica,sans-Serif" font-size="10.00">beginAll()</text>
<text text-anchor="start" x="5" y="-227" font-family="Helvetica,sans-Serif" font-size="10.00">+</text>
<text text-anchor="start" x="18.5" y="-227" font-family="Helvetica,sans-Serif" font-size="10.00">resetAll()</text>
<text text-anchor="start" x="5" y="-212" font-family="Helvetica,sans-Serif" font-size="10.00">#</text>
<text text-anchor="start" x="18.5" y="-212" font-family="Helvetica,sans-Serif" font-size="10.00">MatchingMIDIInputElement()</text>
<text text-anchor="start" x="6.5" y="-197" font-family="Helvetica,sans-Serif" font-size="10.00">*</text>
<text text-anchor="start" x="18.5" y="-197" font-family="Helvetica,sans-Serif" font-size="10.00">enable()</text>
<text text-anchor="start" x="6.5" y="-182" font-family="Helvetica,sans-Serif" font-size="10.00">*</text>
<text text-anchor="start" x="18.5" y="-182" font-family="Helvetica,sans-Serif" font-size="10.00">disable()</text>
<text text-anchor="start" x="6.5" y="-167" font-family="Helvetica,sans-Serif" font-size="10.00">*</text>
<text text-anchor="start" x="18.5" y="-167" font-family="Helvetica,sans-Serif" font-size="10.00">isEnabled()</text>
<text text-anchor="start" x="6.5" y="-152" font-family="Helvetica,sans-Serif" font-size="10.00">*</text>
<text text-anchor="start" x="18.5" y="-152" font-family="Helvetica,sans-Serif" font-size="10.00">moveDown()</text>
<polygon fill="#666666" stroke="#666666" points="0.5,-417 0.5,-417 165.5,-417 165.5,-417 0.5,-417"/>
<polygon fill="#666666" stroke="#666666" points="0.5,-357 0.5,-357 16.5,-357 16.5,-357 0.5,-357"/>
<polygon fill="#666666" stroke="#666666" points="16.5,-357 16.5,-357 165.5,-357 165.5,-357 16.5,-357"/>
<polygon fill="none" stroke="#666666" points="0,-145 0,-445 165,-445 165,-145 0,-145"/>
</a>
</g>
</g>
<!-- Node2&#45;&gt;Node1 -->
<g id="edge1_Node000001_Node000002" class="edge">
<title>Node2&#45;&gt;Node1</title>
<g id="a_edge1_Node000001_Node000002"><a xlink:title=" ">
<path fill="none" stroke="#63b8ff" d="M128.4,-135.33C131.05,-126.18 133.6,-117.38 135.97,-109.18"/>
<polygon fill="none" stroke="#63b8ff" points="125.03,-134.41 125.61,-144.99 131.75,-136.35 125.03,-134.41"/>
</a>
</g>
</g>
<!-- Node3 -->
<g id="Node000003" class="node">
<title>Node3</title>
<g id="a_Node000003"><a xlink:href="../../d9/db1/classMIDIInputElement.html" target="_top" xlink:title="A class for objects that listen for incoming MIDI events.">
<polygon fill="white" stroke="transparent" points="154,-665 11,-665 11,-481 154,-481 154,-665"/>
<text text-anchor="start" x="16.5" y="-653" font-family="Helvetica,sans-Serif" font-size="10.00">MIDIInputElement&lt; Type &gt;</text>
<text text-anchor="start" x="81" y="-638" font-family="Helvetica,sans-Serif" font-size="10.00"> </text>
<text text-anchor="start" x="20" y="-623" font-family="Helvetica,sans-Serif" font-size="10.00">+</text>
<text text-anchor="start" x="37.5" y="-623" font-family="Helvetica,sans-Serif" font-size="10.00">~MIDIInputElement()</text>
<text text-anchor="start" x="20" y="-608" font-family="Helvetica,sans-Serif" font-size="10.00">+</text>
<text text-anchor="start" x="37.5" y="-608" font-family="Helvetica,sans-Serif" font-size="10.00">begin()</text>
<text text-anchor="start" x="20" y="-593" font-family="Helvetica,sans-Serif" font-size="10.00">+</text>
<text text-anchor="start" x="37.5" y="-593" font-family="Helvetica,sans-Serif" font-size="10.00">reset()</text>
<text text-anchor="start" x="20" y="-578" font-family="Helvetica,sans-Serif" font-size="10.00">+</text>
<text text-anchor="start" x="37.5" y="-578" font-family="Helvetica,sans-Serif" font-size="10.00">update()</text>
<text text-anchor="start" x="20" y="-563" font-family="Helvetica,sans-Serif" font-size="10.00">+</text>
<text text-anchor="start" x="37.5" y="-563" font-family="Helvetica,sans-Serif" font-size="10.00">updateWith()</text>
<text text-anchor="start" x="20" y="-548" font-family="Helvetica,sans-Serif" font-size="10.00">+</text>
<text text-anchor="start" x="37.5" y="-548" font-family="Helvetica,sans-Serif" font-size="10.00">updateAllWith()</text>
<text text-anchor="start" x="20" y="-533" font-family="Helvetica,sans-Serif" font-size="10.00">+</text>
<text text-anchor="start" x="37.5" y="-533" font-family="Helvetica,sans-Serif" font-size="10.00">updateAll()</text>
<text text-anchor="start" x="20" y="-518" font-family="Helvetica,sans-Serif" font-size="10.00">+</text>
<text text-anchor="start" x="37.5" y="-518" font-family="Helvetica,sans-Serif" font-size="10.00">beginAll()</text>
<text text-anchor="start" x="20" y="-503" font-family="Helvetica,sans-Serif" font-size="10.00">+</text>
<text text-anchor="start" x="37.5" y="-503" font-family="Helvetica,sans-Serif" font-size="10.00">resetAll()</text>
<text text-anchor="start" x="20" y="-488" font-family="Helvetica,sans-Serif" font-size="10.00">#</text>
<text text-anchor="start" x="37.5" y="-488" font-family="Helvetica,sans-Serif" font-size="10.00">MIDIInputElement()</text>
<polygon fill="#666666" stroke="#666666" points="11.5,-648 11.5,-648 154.5,-648 154.5,-648 11.5,-648"/>
<polygon fill="#666666" stroke="#666666" points="11.5,-633 11.5,-633 154.5,-633 154.5,-633 11.5,-633"/>
<polygon fill="none" stroke="#666666" points="11,-481 11,-665 154,-665 154,-481 11,-481"/>
</a>
</g>
</g>
<!-- Node3&#45;&gt;Node2 -->
<g id="edge2_Node000002_Node000003" class="edge">
<title>Node3&#45;&gt;Node2</title>
<g id="a_edge2_Node000002_Node000003"><a xlink:title=" ">
<path fill="none" stroke="#63b8ff" d="M82.5,-470.81C82.5,-462.48 82.5,-453.96 82.5,-445.38"/>
<polygon fill="none" stroke="#63b8ff" points="79,-470.86 82.5,-480.86 86,-470.86 79,-470.86"/>
</a>
</g>
</g>
<!-- Node4 -->
<g id="Node000004" class="node">
<title>Node4</title>
<g id="a_Node000004"><a xlink:href="../../d8/d1a/classAH_1_1UpdatableCRTP.html" target="_top" xlink:title=" ">
<polygon fill="white" stroke="transparent" points="154.5,-881 10.5,-881 10.5,-701 154.5,-701 154.5,-881"/>
<text text-anchor="start" x="15.5" y="-869" font-family="Helvetica,sans-Serif" font-size="10.00">UpdatableCRTP&lt; MIDIInput</text>
<text text-anchor="start" x="34" y="-858" font-family="Helvetica,sans-Serif" font-size="10.00">Element&lt; Type &gt; &gt;</text>
<text text-anchor="start" x="22.5" y="-843" font-family="Helvetica,sans-Serif" font-size="10.00">#</text>
<text text-anchor="start" x="43.5" y="-843" font-family="Helvetica,sans-Serif" font-size="10.00">next</text>
<text text-anchor="start" x="22.5" y="-828" font-family="Helvetica,sans-Serif" font-size="10.00">#</text>
<text text-anchor="start" x="43.5" y="-828" font-family="Helvetica,sans-Serif" font-size="10.00">previous</text>
<text text-anchor="start" x="22.5" y="-813" font-family="Helvetica,sans-Serif" font-size="10.00">#</text>
<text text-anchor="start" x="43.5" y="-813" font-family="Helvetica,sans-Serif" font-size="10.00">updatables</text>
<text text-anchor="start" x="22.5" y="-798" font-family="Helvetica,sans-Serif" font-size="10.00">+</text>
<text text-anchor="start" x="43.5" y="-798" font-family="Helvetica,sans-Serif" font-size="10.00">~UpdatableCRTP()</text>
<text text-anchor="start" x="22.5" y="-783" font-family="Helvetica,sans-Serif" font-size="10.00">#</text>
<text text-anchor="start" x="43.5" y="-783" font-family="Helvetica,sans-Serif" font-size="10.00">UpdatableCRTP()</text>
<text text-anchor="start" x="22.5" y="-768" font-family="Helvetica,sans-Serif" font-size="10.00">#</text>
<text text-anchor="start" x="43.5" y="-768" font-family="Helvetica,sans-Serif" font-size="10.00">operator=()</text>
<text text-anchor="start" x="24" y="-753" font-family="Helvetica,sans-Serif" font-size="10.00">*</text>
<text text-anchor="start" x="43.5" y="-753" font-family="Helvetica,sans-Serif" font-size="10.00">enable()</text>
<text text-anchor="start" x="24" y="-738" font-family="Helvetica,sans-Serif" font-size="10.00">*</text>
<text text-anchor="start" x="43.5" y="-738" font-family="Helvetica,sans-Serif" font-size="10.00">disable()</text>
<text text-anchor="start" x="24" y="-723" font-family="Helvetica,sans-Serif" font-size="10.00">*</text>
<text text-anchor="start" x="43.5" y="-723" font-family="Helvetica,sans-Serif" font-size="10.00">isEnabled()</text>
<text text-anchor="start" x="24" y="-708" font-family="Helvetica,sans-Serif" font-size="10.00">*</text>
<text text-anchor="start" x="43.5" y="-708" font-family="Helvetica,sans-Serif" font-size="10.00">moveDown()</text>
<polygon fill="#666666" stroke="#666666" points="10.5,-853 10.5,-853 154.5,-853 154.5,-853 10.5,-853"/>
<polygon fill="#666666" stroke="#666666" points="10.5,-808 10.5,-808 41.5,-808 41.5,-808 10.5,-808"/>
<polygon fill="#666666" stroke="#666666" points="41.5,-808 41.5,-808 154.5,-808 154.5,-808 41.5,-808"/>
<polygon fill="none" stroke="#666666" points="10.5,-701 10.5,-881 154.5,-881 154.5,-701 10.5,-701"/>
</a>
</g>
</g>
<!-- Node4&#45;&gt;Node3 -->
<g id="edge3_Node000003_Node000004" class="edge">
<title>Node4&#45;&gt;Node3</title>
<g id="a_edge3_Node000003_Node000004"><a xlink:title=" ">
<path fill="none" stroke="#63b8ff" d="M82.5,-690.66C82.5,-682.22 82.5,-673.71 82.5,-665.34"/>
<polygon fill="none" stroke="#63b8ff" points="79,-690.9 82.5,-700.9 86,-690.9 79,-690.9"/>
</a>
</g>
</g>
<!-- Node5 -->
<g id="Node000005" class="node">
<title>Node5</title>
<g id="a_Node000005"><a xlink:href="../../d4/d23/classDoublyLinkable.html" target="_top" xlink:title=" ">
<polygon fill="white" stroke="transparent" points="154.5,-1022 10.5,-1022 10.5,-917 154.5,-917 154.5,-1022"/>
<text text-anchor="start" x="15.5" y="-1009.5" font-family="Helvetica,sans-Serif" font-size="10.00">DoublyLinkable&lt; MIDIInput</text>
<text text-anchor="start" x="34" y="-998.5" font-family="Helvetica,sans-Serif" font-size="10.00">Element&lt; Type &gt; &gt;</text>
<text text-anchor="start" x="22.5" y="-983.5" font-family="Helvetica,sans-Serif" font-size="10.00">#</text>
<text text-anchor="start" x="43.5" y="-983.5" font-family="Helvetica,sans-Serif" font-size="10.00">next</text>
<text text-anchor="start" x="22.5" y="-968.5" font-family="Helvetica,sans-Serif" font-size="10.00">#</text>
<text text-anchor="start" x="43.5" y="-968.5" font-family="Helvetica,sans-Serif" font-size="10.00">previous</text>
<text text-anchor="start" x="22.5" y="-953.5" font-family="Helvetica,sans-Serif" font-size="10.00">#</text>
<text text-anchor="start" x="43.5" y="-953.5" font-family="Helvetica,sans-Serif" font-size="10.00">~DoublyLinkable()</text>
<text text-anchor="start" x="22.5" y="-938.5" font-family="Helvetica,sans-Serif" font-size="10.00">#</text>
<text text-anchor="start" x="43.5" y="-938.5" font-family="Helvetica,sans-Serif" font-size="10.00">DoublyLinkable()</text>
<text text-anchor="start" x="22.5" y="-923.5" font-family="Helvetica,sans-Serif" font-size="10.00">#</text>
<text text-anchor="start" x="43.5" y="-923.5" font-family="Helvetica,sans-Serif" font-size="10.00">operator=()</text>
<polygon fill="#666666" stroke="#666666" points="10.5,-993.5 10.5,-993.5 154.5,-993.5 154.5,-993.5 10.5,-993.5"/>
<polygon fill="#666666" stroke="#666666" points="10.5,-963.5 10.5,-963.5 41.5,-963.5 41.5,-963.5 10.5,-963.5"/>
<polygon fill="#666666" stroke="#666666" points="41.5,-963.5 41.5,-963.5 154.5,-963.5 154.5,-963.5 41.5,-963.5"/>
<polygon fill="none" stroke="#666666" points="10.5,-917 10.5,-1022 154.5,-1022 154.5,-917 10.5,-917"/>
</a>
</g>
</g>
<!-- Node5&#45;&gt;Node4 -->
<g id="edge4_Node000004_Node000005" class="edge">
<title>Node5&#45;&gt;Node4</title>
<g id="a_edge4_Node000004_Node000005"><a xlink:title=" ">
<path fill="none" stroke="#63b8ff" d="M82.5,-906.96C82.5,-898.58 82.5,-889.86 82.5,-881.12"/>
<polygon fill="none" stroke="#63b8ff" points="79,-906.97 82.5,-916.97 86,-906.97 79,-906.97"/>
</a>
</g>
</g>
<!-- Node6 -->
<g id="Node000006" class="node">
<title>Node6</title>
<g id="a_Node000006"><a xlink:href="../../d8/d87/classInterfaces_1_1IValue.html" target="_top" xlink:title="Abstract interface for MIDI input elements that receive and store a 7&#45;bit value.">
<polygon fill="white" stroke="transparent" points="260,-334.5 183,-334.5 183,-255.5 260,-255.5 260,-334.5"/>
<text text-anchor="start" x="206.5" y="-322" font-family="Helvetica,sans-Serif" font-size="10.00">IValue</text>
<text text-anchor="start" x="187.5" y="-307" font-family="Helvetica,sans-Serif" font-size="10.00">#</text>
<text text-anchor="start" x="200.5" y="-307" font-family="Helvetica,sans-Serif" font-size="10.00">dirty</text>
<text text-anchor="start" x="187.5" y="-292" font-family="Helvetica,sans-Serif" font-size="10.00">+</text>
<text text-anchor="start" x="200.5" y="-292" font-family="Helvetica,sans-Serif" font-size="10.00">getValue()</text>
<text text-anchor="start" x="189" y="-277" font-family="Helvetica,sans-Serif" font-size="10.00">*</text>
<text text-anchor="start" x="200.5" y="-277" font-family="Helvetica,sans-Serif" font-size="10.00">getDirty()</text>
<text text-anchor="start" x="189" y="-262" font-family="Helvetica,sans-Serif" font-size="10.00">*</text>
<text text-anchor="start" x="200.5" y="-262" font-family="Helvetica,sans-Serif" font-size="10.00">clearDirty()</text>
<polygon fill="#666666" stroke="#666666" points="183.5,-317 183.5,-317 260.5,-317 260.5,-317 183.5,-317"/>
<polygon fill="#666666" stroke="#666666" points="183.5,-302 183.5,-302 198.5,-302 198.5,-302 183.5,-302"/>
<polygon fill="#666666" stroke="#666666" points="198.5,-302 198.5,-302 260.5,-302 260.5,-302 198.5,-302"/>
<polygon fill="none" stroke="#666666" points="183,-255.5 183,-334.5 260,-334.5 260,-255.5 183,-255.5"/>
</a>
</g>
</g>
<!-- Node6&#45;&gt;Node1 -->
<g id="edge5_Node000001_Node000006" class="edge">
<title>Node6&#45;&gt;Node1</title>
<g id="a_edge5_Node000001_Node000006"><a xlink:title=" ">
<path fill="none" stroke="#63b8ff" d="M207.33,-245.72C195.71,-206.13 179.28,-150.14 167.25,-109.15"/>
<polygon fill="none" stroke="#63b8ff" points="204,-246.81 210.18,-255.42 210.72,-244.83 204,-246.81"/>
</a>
</g>
</g>
</g>
</svg>
