<?xml version="1.0" encoding="UTF-8" standalone="no"?>
<!DOCTYPE svg PUBLIC "-//W3C//DTD SVG 1.1//EN"
 "http://www.w3.org/Graphics/SVG/1.1/DTD/svg11.dtd">
<!-- Generated by graphviz version 2.38.0 (20140413.2041)
 -->
<!-- Title: NoteButtons&lt; NUMBER_OF_BUTTONS &gt; Pages: 1 -->
<svg width="856pt" height="1264pt"
 viewBox="0.00 0.00 856.00 1264.00" xmlns="http://www.w3.org/2000/svg" xmlns:xlink="http://www.w3.org/1999/xlink">
<g id="graph0" class="graph" transform="scale(1 1) rotate(0) translate(4 1260)">
<title>NoteButtons&lt; NUMBER_OF_BUTTONS &gt;</title>
<polygon fill="white" stroke="none" points="-4,4 -4,-1260 852,-1260 852,4 -4,4"/>
<!-- Node1 -->
<g id="node1" class="node"><title>Node1</title>
<g id="a_node1"><a xlink:title="A class of MIDIOutputElements that read the input of a collection of momentary push buttons or switch...">
<polygon fill="#bfbfbf" stroke="black" points="410,-0.5 410,-90.5 535,-90.5 535,-0.5 410,-0.5"/>
<text text-anchor="start" x="418" y="-78.5" font-family="Helvetica,sans-Serif" font-size="10.00">NoteButtons&lt; NUMBER</text>
<text text-anchor="middle" x="472.5" y="-67.5" font-family="Helvetica,sans-Serif" font-size="10.00">_OF_BUTTONS &gt;</text>
<polyline fill="none" stroke="black" points="410,-60.5 535,-60.5 "/>
<text text-anchor="middle" x="472.5" y="-48.5" font-family="Helvetica,sans-Serif" font-size="10.00"> </text>
<polyline fill="none" stroke="black" points="410,-41.5 535,-41.5 "/>
<text text-anchor="start" x="418" y="-29.5" font-family="Helvetica,sans-Serif" font-size="10.00">+ NoteButtons()</text>
<text text-anchor="start" x="418" y="-18.5" font-family="Helvetica,sans-Serif" font-size="10.00">+ setVelocity()</text>
<text text-anchor="start" x="418" y="-7.5" font-family="Helvetica,sans-Serif" font-size="10.00">+ getVelocity()</text>
</a>
</g>
</g>
<!-- Node2 -->
<g id="node2" class="node"><title>Node2</title>
<g id="a_node2"><a xlink:href="../../d2/d87/classMIDIButtons.html" target="_top" xlink:title=" ">
<polygon fill="white" stroke="black" points="383,-128.5 383,-229.5 562,-229.5 562,-128.5 383,-128.5"/>
<text text-anchor="start" x="391" y="-217.5" font-family="Helvetica,sans-Serif" font-size="10.00">MIDIButtons&lt; DigitalNote</text>
<text text-anchor="middle" x="472.5" y="-206.5" font-family="Helvetica,sans-Serif" font-size="10.00">Sender, NUMBER_OF_BUTTONS &gt;</text>
<polyline fill="none" stroke="black" points="383,-199.5 562,-199.5 "/>
<text text-anchor="middle" x="472.5" y="-187.5" font-family="Helvetica,sans-Serif" font-size="10.00"> </text>
<polyline fill="none" stroke="black" points="383,-180.5 562,-180.5 "/>
<text text-anchor="start" x="391" y="-168.5" font-family="Helvetica,sans-Serif" font-size="10.00">+ begin()</text>
<text text-anchor="start" x="391" y="-157.5" font-family="Helvetica,sans-Serif" font-size="10.00">+ update()</text>
<text text-anchor="start" x="391" y="-146.5" font-family="Helvetica,sans-Serif" font-size="10.00">+ getButtonState()</text>
<text text-anchor="start" x="391" y="-135.5" font-family="Helvetica,sans-Serif" font-size="10.00"># MIDIButtons()</text>
</a>
</g>
</g>
<!-- Node2&#45;&gt;Node1 -->
<g id="edge1" class="edge"><title>Node2&#45;&gt;Node1</title>
<path fill="none" stroke="midnightblue" d="M472.5,-118.001C472.5,-108.8 472.5,-99.4486 472.5,-90.6734"/>
<polygon fill="none" stroke="midnightblue" points="469,-118.285 472.5,-128.285 476,-118.286 469,-118.285"/>
</g>
<!-- Node3 -->
<g id="node3" class="node"><title>Node3</title>
<g id="a_node3"><a xlink:href="../../d1/d55/classAH_1_1Updatable.html" target="_top" xlink:title=" ">
<polygon fill="white" stroke="black" points="94.5,-305 94.5,-516 198.5,-516 198.5,-305 94.5,-305"/>
<text text-anchor="middle" x="146.5" y="-504" font-family="Helvetica,sans-Serif" font-size="10.00">MIDIOutputElement</text>
<polyline fill="none" stroke="black" points="94.5,-497 198.5,-497 "/>
<text text-anchor="middle" x="146.5" y="-485" font-family="Helvetica,sans-Serif" font-size="10.00"> </text>
<polyline fill="none" stroke="black" points="94.5,-478 198.5,-478 "/>
<text text-anchor="start" x="102.5" y="-466" font-family="Helvetica,sans-Serif" font-size="10.00">+ ~Updatable()</text>
<text text-anchor="start" x="102.5" y="-455" font-family="Helvetica,sans-Serif" font-size="10.00">+ update()</text>
<text text-anchor="start" x="102.5" y="-444" font-family="Helvetica,sans-Serif" font-size="10.00">+ begin()</text>
<text text-anchor="start" x="102.5" y="-433" font-family="Helvetica,sans-Serif" font-size="10.00">+ enable()</text>
<text text-anchor="start" x="102.5" y="-422" font-family="Helvetica,sans-Serif" font-size="10.00">+ disable()</text>
<text text-anchor="start" x="102.5" y="-411" font-family="Helvetica,sans-Serif" font-size="10.00">+ isEnabled()</text>
<text text-anchor="start" x="102.5" y="-400" font-family="Helvetica,sans-Serif" font-size="10.00">+ enable()</text>
<text text-anchor="start" x="102.5" y="-389" font-family="Helvetica,sans-Serif" font-size="10.00">+ enable()</text>
<text text-anchor="start" x="102.5" y="-378" font-family="Helvetica,sans-Serif" font-size="10.00">+ enable()</text>
<text text-anchor="start" x="102.5" y="-367" font-family="Helvetica,sans-Serif" font-size="10.00">+ disable()</text>
<text text-anchor="start" x="102.5" y="-356" font-family="Helvetica,sans-Serif" font-size="10.00">+ disable()</text>
<text text-anchor="start" x="102.5" y="-345" font-family="Helvetica,sans-Serif" font-size="10.00">+ disable()</text>
<text text-anchor="start" x="102.5" y="-334" font-family="Helvetica,sans-Serif" font-size="10.00">+ beginAll()</text>
<text text-anchor="start" x="102.5" y="-323" font-family="Helvetica,sans-Serif" font-size="10.00">+ updateAll()</text>
<text text-anchor="start" x="102.5" y="-312" font-family="Helvetica,sans-Serif" font-size="10.00"># Updatable()</text>
</a>
</g>
</g>
<!-- Node3&#45;&gt;Node2 -->
<g id="edge2" class="edge"><title>Node3&#45;&gt;Node2</title>
<path fill="none" stroke="midnightblue" d="M193.892,-296.437C199.224,-289.387 205.081,-282.806 211.5,-277 259.272,-233.792 328.025,-209.284 382.975,-195.715"/>
<polygon fill="none" stroke="midnightblue" points="190.811,-294.732 187.873,-304.911 196.518,-298.785 190.811,-294.732"/>
</g>
<!-- Node4 -->
<g id="node4" class="node"><title>Node4</title>
<g id="a_node4"><a xlink:href="../../d4/d23/classDoublyLinkable.html" target="_top" xlink:title=" ">
<polygon fill="white" stroke="black" points="0,-1176.5 0,-1255.5 137,-1255.5 137,-1176.5 0,-1176.5"/>
<text text-anchor="start" x="8" y="-1243.5" font-family="Helvetica,sans-Serif" font-size="10.00">DoublyLinkable&lt; Updatable</text>
<text text-anchor="middle" x="68.5" y="-1232.5" font-family="Helvetica,sans-Serif" font-size="10.00">&lt; NormalUpdatable &gt; &gt;</text>
<polyline fill="none" stroke="black" points="0,-1225.5 137,-1225.5 "/>
<text text-anchor="start" x="8" y="-1213.5" font-family="Helvetica,sans-Serif" font-size="10.00"># next</text>
<text text-anchor="start" x="8" y="-1202.5" font-family="Helvetica,sans-Serif" font-size="10.00"># previous</text>
<polyline fill="none" stroke="black" points="0,-1195.5 137,-1195.5 "/>
<text text-anchor="start" x="8" y="-1183.5" font-family="Helvetica,sans-Serif" font-size="10.00"># ~DoublyLinkable()</text>
</a>
</g>
</g>
<!-- Node4&#45;&gt;Node3 -->
<g id="edge3" class="edge"><title>Node4&#45;&gt;Node3</title>
<path fill="none" stroke="midnightblue" d="M56.6743,-1166.22C54.9369,-1157.22 53.4233,-1147.87 52.5,-1139 27.2769,-896.754 -5.67873,-827.505 52.5,-591 61.029,-556.328 77.5716,-520.933 94.4324,-490.838"/>
<polygon fill="none" stroke="midnightblue" points="53.2798,-1167.1 58.7115,-1176.19 60.138,-1165.69 53.2798,-1167.1"/>
</g>
<!-- Node6 -->
<g id="node6" class="node"><title>Node6</title>
<g id="a_node6"><a xlink:href="../../d1/d55/classAH_1_1Updatable.html" target="_top" xlink:title=" ">
<polygon fill="white" stroke="black" points="62,-927.5 62,-1138.5 237,-1138.5 237,-927.5 62,-927.5"/>
<text text-anchor="middle" x="149.5" y="-1126.5" font-family="Helvetica,sans-Serif" font-size="10.00">AH::Updatable&lt; NormalUpdatable &gt;</text>
<polyline fill="none" stroke="black" points="62,-1119.5 237,-1119.5 "/>
<text text-anchor="middle" x="149.5" y="-1107.5" font-family="Helvetica,sans-Serif" font-size="10.00"> </text>
<polyline fill="none" stroke="black" points="62,-1100.5 237,-1100.5 "/>
<text text-anchor="start" x="70" y="-1088.5" font-family="Helvetica,sans-Serif" font-size="10.00">+ ~Updatable()</text>
<text text-anchor="start" x="70" y="-1077.5" font-family="Helvetica,sans-Serif" font-size="10.00">+ update()</text>
<text text-anchor="start" x="70" y="-1066.5" font-family="Helvetica,sans-Serif" font-size="10.00">+ begin()</text>
<text text-anchor="start" x="70" y="-1055.5" font-family="Helvetica,sans-Serif" font-size="10.00">+ enable()</text>
<text text-anchor="start" x="70" y="-1044.5" font-family="Helvetica,sans-Serif" font-size="10.00">+ disable()</text>
<text text-anchor="start" x="70" y="-1033.5" font-family="Helvetica,sans-Serif" font-size="10.00">+ isEnabled()</text>
<text text-anchor="start" x="70" y="-1022.5" font-family="Helvetica,sans-Serif" font-size="10.00">+ enable()</text>
<text text-anchor="start" x="70" y="-1011.5" font-family="Helvetica,sans-Serif" font-size="10.00">+ enable()</text>
<text text-anchor="start" x="70" y="-1000.5" font-family="Helvetica,sans-Serif" font-size="10.00">+ enable()</text>
<text text-anchor="start" x="70" y="-989.5" font-family="Helvetica,sans-Serif" font-size="10.00">+ disable()</text>
<text text-anchor="start" x="70" y="-978.5" font-family="Helvetica,sans-Serif" font-size="10.00">+ disable()</text>
<text text-anchor="start" x="70" y="-967.5" font-family="Helvetica,sans-Serif" font-size="10.00">+ disable()</text>
<text text-anchor="start" x="70" y="-956.5" font-family="Helvetica,sans-Serif" font-size="10.00">+ beginAll()</text>
<text text-anchor="start" x="70" y="-945.5" font-family="Helvetica,sans-Serif" font-size="10.00">+ updateAll()</text>
<text text-anchor="start" x="70" y="-934.5" font-family="Helvetica,sans-Serif" font-size="10.00"># Updatable()</text>
</a>
</g>
</g>
<!-- Node4&#45;&gt;Node6 -->
<g id="edge6" class="edge"><title>Node4&#45;&gt;Node6</title>
<path fill="none" stroke="midnightblue" d="M90.0578,-1166.83C94.0342,-1157.94 98.3251,-1148.35 102.717,-1138.54"/>
<polygon fill="none" stroke="midnightblue" points="86.7667,-1165.61 85.8765,-1176.17 93.1561,-1168.47 86.7667,-1165.61"/>
</g>
<!-- Node5 -->
<g id="node5" class="node"><title>Node5</title>
<g id="a_node5"><a xlink:href="../../dd/d16/classDoublyLinkedList.html" target="_top" xlink:title=" ">
<polygon fill="white" stroke="black" points="61.5,-591.5 61.5,-868.5 231.5,-868.5 231.5,-591.5 61.5,-591.5"/>
<text text-anchor="start" x="69.5" y="-856.5" font-family="Helvetica,sans-Serif" font-size="10.00">DoublyLinkedList&lt; AH</text>
<text text-anchor="middle" x="146.5" y="-845.5" font-family="Helvetica,sans-Serif" font-size="10.00">::Updatable&lt; NormalUpdatable &gt; &gt;</text>
<polyline fill="none" stroke="black" points="61.5,-838.5 231.5,-838.5 "/>
<text text-anchor="middle" x="146.5" y="-826.5" font-family="Helvetica,sans-Serif" font-size="10.00"> </text>
<polyline fill="none" stroke="black" points="61.5,-819.5 231.5,-819.5 "/>
<text text-anchor="start" x="69.5" y="-807.5" font-family="Helvetica,sans-Serif" font-size="10.00">+ append()</text>
<text text-anchor="start" x="69.5" y="-796.5" font-family="Helvetica,sans-Serif" font-size="10.00">+ append()</text>
<text text-anchor="start" x="69.5" y="-785.5" font-family="Helvetica,sans-Serif" font-size="10.00">+ insertBefore()</text>
<text text-anchor="start" x="69.5" y="-774.5" font-family="Helvetica,sans-Serif" font-size="10.00">+ insertBefore()</text>
<text text-anchor="start" x="69.5" y="-763.5" font-family="Helvetica,sans-Serif" font-size="10.00">+ insertSorted()</text>
<text text-anchor="start" x="69.5" y="-752.5" font-family="Helvetica,sans-Serif" font-size="10.00">+ insertSorted()</text>
<text text-anchor="start" x="69.5" y="-741.5" font-family="Helvetica,sans-Serif" font-size="10.00">+ remove()</text>
<text text-anchor="start" x="69.5" y="-730.5" font-family="Helvetica,sans-Serif" font-size="10.00">+ remove()</text>
<text text-anchor="start" x="69.5" y="-719.5" font-family="Helvetica,sans-Serif" font-size="10.00">+ moveDown()</text>
<text text-anchor="start" x="69.5" y="-708.5" font-family="Helvetica,sans-Serif" font-size="10.00">+ couldContain()</text>
<text text-anchor="start" x="69.5" y="-697.5" font-family="Helvetica,sans-Serif" font-size="10.00">+ begin()</text>
<text text-anchor="start" x="69.5" y="-686.5" font-family="Helvetica,sans-Serif" font-size="10.00">+ begin()</text>
<text text-anchor="start" x="69.5" y="-675.5" font-family="Helvetica,sans-Serif" font-size="10.00">+ end()</text>
<text text-anchor="start" x="69.5" y="-664.5" font-family="Helvetica,sans-Serif" font-size="10.00">+ end()</text>
<text text-anchor="start" x="69.5" y="-653.5" font-family="Helvetica,sans-Serif" font-size="10.00">+ rbegin()</text>
<text text-anchor="start" x="69.5" y="-642.5" font-family="Helvetica,sans-Serif" font-size="10.00">+ rbegin()</text>
<text text-anchor="start" x="69.5" y="-631.5" font-family="Helvetica,sans-Serif" font-size="10.00">+ rend()</text>
<text text-anchor="start" x="69.5" y="-620.5" font-family="Helvetica,sans-Serif" font-size="10.00">+ rend()</text>
<text text-anchor="start" x="69.5" y="-609.5" font-family="Helvetica,sans-Serif" font-size="10.00">+ getFirst()</text>
<text text-anchor="start" x="69.5" y="-598.5" font-family="Helvetica,sans-Serif" font-size="10.00">+ getLast()</text>
</a>
</g>
</g>
<!-- Node5&#45;&gt;Node3 -->
<g id="edge4" class="edge"><title>Node5&#45;&gt;Node3</title>
<path fill="none" stroke="#404040" d="M146.5,-591.125C146.5,-570.239 146.5,-548.862 146.5,-528.475"/>
<polygon fill="none" stroke="#404040" points="146.5,-528.26 142.5,-522.26 146.5,-516.26 150.5,-522.26 146.5,-528.26"/>
<text text-anchor="middle" x="173.5" y="-565" font-family="Helvetica,sans-Serif" font-size="10.00"> &#45;updatables</text>
</g>
<!-- Node5&#45;&gt;Node6 -->
<g id="edge7" class="edge"><title>Node5&#45;&gt;Node6</title>
<path fill="none" stroke="#404040" d="M148.311,-868.806C148.378,-874.955 148.441,-881.041 148.5,-887 148.591,-896.204 148.676,-905.736 148.755,-915.316"/>
<polygon fill="none" stroke="#404040" points="148.756,-915.455 152.804,-921.422 148.853,-927.454 144.805,-921.487 148.756,-915.455"/>
<text text-anchor="middle" x="176.5" y="-895.5" font-family="Helvetica,sans-Serif" font-size="10.00"> &#45;updatables</text>
</g>
<!-- Node6&#45;&gt;Node5 -->
<g id="edge5" class="edge"><title>Node6&#45;&gt;Node5</title>
<path fill="none" stroke="#404040" d="M128.557,-927.171C127.75,-921.039 127.051,-914.949 126.5,-909 125.652,-899.856 125.266,-890.453 125.247,-880.972"/>
<polygon fill="none" stroke="#404040" points="125.247,-880.934 121.33,-874.88 125.411,-868.935 129.329,-874.989 125.247,-880.934"/>
<text text-anchor="middle" x="137.5" y="-901" font-family="Helvetica,sans-Serif" font-size="10.00"> &#45;last</text>
<text text-anchor="middle" x="137.5" y="-890" font-family="Helvetica,sans-Serif" font-size="10.00">&#45;first</text>
</g>
<!-- Node7 -->
<g id="node7" class="node"><title>Node7</title>
<g id="a_node7"><a xlink:href="../../d0/d32/structAH_1_1Array.html" target="_top" xlink:title=" ">
<polygon fill="white" stroke="black" points="221,-321.5 221,-499.5 366,-499.5 366,-321.5 221,-321.5"/>
<text text-anchor="start" x="229" y="-487.5" font-family="Helvetica,sans-Serif" font-size="10.00">AH::Array&lt; AH::Button,</text>
<text text-anchor="middle" x="293.5" y="-476.5" font-family="Helvetica,sans-Serif" font-size="10.00"> NUMBER_OF_BUTTONS &gt;</text>
<polyline fill="none" stroke="black" points="221,-469.5 366,-469.5 "/>
<text text-anchor="start" x="229" y="-457.5" font-family="Helvetica,sans-Serif" font-size="10.00">+ length</text>
<polyline fill="none" stroke="black" points="221,-450.5 366,-450.5 "/>
<text text-anchor="start" x="229" y="-438.5" font-family="Helvetica,sans-Serif" font-size="10.00">+ operator[]()</text>
<text text-anchor="start" x="229" y="-427.5" font-family="Helvetica,sans-Serif" font-size="10.00">+ operator[]()</text>
<text text-anchor="start" x="229" y="-416.5" font-family="Helvetica,sans-Serif" font-size="10.00">+ begin()</text>
<text text-anchor="start" x="229" y="-405.5" font-family="Helvetica,sans-Serif" font-size="10.00">+ begin()</text>
<text text-anchor="start" x="229" y="-394.5" font-family="Helvetica,sans-Serif" font-size="10.00">+ end()</text>
<text text-anchor="start" x="229" y="-383.5" font-family="Helvetica,sans-Serif" font-size="10.00">+ end()</text>
<text text-anchor="start" x="229" y="-372.5" font-family="Helvetica,sans-Serif" font-size="10.00">+ operator==()</text>
<text text-anchor="start" x="229" y="-361.5" font-family="Helvetica,sans-Serif" font-size="10.00">+ operator!=()</text>
<text text-anchor="start" x="229" y="-350.5" font-family="Helvetica,sans-Serif" font-size="10.00">+ slice()</text>
<text text-anchor="start" x="229" y="-339.5" font-family="Helvetica,sans-Serif" font-size="10.00">+ slice()</text>
<text text-anchor="start" x="229" y="-328.5" font-family="Helvetica,sans-Serif" font-size="10.00">+ cslice()</text>
</a>
</g>
</g>
<!-- Node7&#45;&gt;Node2 -->
<g id="edge8" class="edge"><title>Node7&#45;&gt;Node2</title>
<path fill="none" stroke="#404040" d="M344.095,-321.309C353.924,-306.112 364.584,-290.785 375.5,-277 385.91,-263.854 397.932,-250.602 409.891,-238.296"/>
<polygon fill="none" stroke="#404040" points="410.13,-238.054 411.501,-230.975 418.564,-229.518 417.192,-236.597 410.13,-238.054"/>
<text text-anchor="middle" x="420" y="-251" font-family="Helvetica,sans-Serif" font-size="10.00"> &#45;buttons</text>
</g>
<!-- Node8 -->
<g id="node8" class="node"><title>Node8</title>
<g id="a_node8"><a xlink:href="../../de/d0d/classAH_1_1Button.html" target="_top" xlink:title="A class for reading and debouncing buttons and switches.">
<polygon fill="white" stroke="black" points="249.5,-635.5 249.5,-824.5 345.5,-824.5 345.5,-635.5 249.5,-635.5"/>
<text text-anchor="middle" x="297.5" y="-812.5" font-family="Helvetica,sans-Serif" font-size="10.00">AH::Button</text>
<polyline fill="none" stroke="black" points="249.5,-805.5 345.5,-805.5 "/>
<text text-anchor="start" x="257.5" y="-793.5" font-family="Helvetica,sans-Serif" font-size="10.00">&#45; pin</text>
<text text-anchor="start" x="257.5" y="-782.5" font-family="Helvetica,sans-Serif" font-size="10.00">&#45; prevInput</text>
<text text-anchor="start" x="257.5" y="-771.5" font-family="Helvetica,sans-Serif" font-size="10.00">&#45; debouncedState</text>
<text text-anchor="start" x="257.5" y="-760.5" font-family="Helvetica,sans-Serif" font-size="10.00">&#45; prevBounceTime</text>
<text text-anchor="start" x="257.5" y="-749.5" font-family="Helvetica,sans-Serif" font-size="10.00">&#45; invertState</text>
<text text-anchor="start" x="257.5" y="-738.5" font-family="Helvetica,sans-Serif" font-size="10.00">&#45; debounceTime</text>
<polyline fill="none" stroke="black" points="249.5,-731.5 345.5,-731.5 "/>
<text text-anchor="start" x="257.5" y="-719.5" font-family="Helvetica,sans-Serif" font-size="10.00">+ Button()</text>
<text text-anchor="start" x="257.5" y="-708.5" font-family="Helvetica,sans-Serif" font-size="10.00">+ Button()</text>
<text text-anchor="start" x="257.5" y="-697.5" font-family="Helvetica,sans-Serif" font-size="10.00">+ begin()</text>
<text text-anchor="start" x="257.5" y="-686.5" font-family="Helvetica,sans-Serif" font-size="10.00">+ invert()</text>
<text text-anchor="start" x="257.5" y="-675.5" font-family="Helvetica,sans-Serif" font-size="10.00">+ update()</text>
<text text-anchor="start" x="257.5" y="-664.5" font-family="Helvetica,sans-Serif" font-size="10.00">+ getState()</text>
<text text-anchor="start" x="257.5" y="-653.5" font-family="Helvetica,sans-Serif" font-size="10.00">+ stableTime()</text>
<text text-anchor="start" x="257.5" y="-642.5" font-family="Helvetica,sans-Serif" font-size="10.00">+ getName()</text>
</a>
</g>
</g>
<!-- Node8&#45;&gt;Node7 -->
<g id="edge9" class="edge"><title>Node8&#45;&gt;Node7</title>
<path fill="none" stroke="#404040" d="M296.322,-635.457C295.832,-596.584 295.262,-551.397 294.764,-511.834"/>
<polygon fill="none" stroke="#404040" points="294.763,-511.749 290.688,-505.8 294.612,-499.75 298.687,-505.699 294.763,-511.749"/>
<text text-anchor="middle" x="309.5" y="-565" font-family="Helvetica,sans-Serif" font-size="10.00"> +data</text>
</g>
<!-- Node9 -->
<g id="node9" class="node"><title>Node9</title>
<g id="a_node9"><a xlink:href="../../da/dc7/classRelativeMIDICNChannelAddress.html" target="_top" xlink:title="A class for saving an offset to a MIDI address.">
<polygon fill="white" stroke="black" points="384.5,-371 384.5,-450 560.5,-450 560.5,-371 384.5,-371"/>
<text text-anchor="middle" x="472.5" y="-438" font-family="Helvetica,sans-Serif" font-size="10.00">RelativeMIDICNChannelAddress</text>
<polyline fill="none" stroke="black" points="384.5,-431 560.5,-431 "/>
<text text-anchor="start" x="392.5" y="-419" font-family="Helvetica,sans-Serif" font-size="10.00">&#45; addresses</text>
<polyline fill="none" stroke="black" points="384.5,-412 560.5,-412 "/>
<text text-anchor="start" x="392.5" y="-400" font-family="Helvetica,sans-Serif" font-size="10.00">+ RelativeMIDICNChannelAddress()</text>
<text text-anchor="start" x="392.5" y="-389" font-family="Helvetica,sans-Serif" font-size="10.00">+ RelativeMIDICNChannelAddress()</text>
<text text-anchor="start" x="392.5" y="-378" font-family="Helvetica,sans-Serif" font-size="10.00">+ isValid()</text>
</a>
</g>
</g>
<!-- Node9&#45;&gt;Node2 -->
<g id="edge10" class="edge"><title>Node9&#45;&gt;Node2</title>
<path fill="none" stroke="#404040" d="M472.5,-370.828C472.5,-335.558 472.5,-282.837 472.5,-241.741"/>
<polygon fill="none" stroke="#404040" points="472.5,-241.666 468.5,-235.666 472.5,-229.666 476.5,-235.666 472.5,-241.666"/>
<text text-anchor="middle" x="515" y="-251" font-family="Helvetica,sans-Serif" font-size="10.00"> &#45;incrementAddress</text>
</g>
<!-- Node10 -->
<g id="node10" class="node"><title>Node10</title>
<g id="a_node10"><a xlink:href="../../d3/d10/classMIDICNChannelAddress.html" target="_top" xlink:title="A type&#45;safe utility class for saving a MIDI address consisting of a 7&#45;bit address,...">
<polygon fill="white" stroke="black" points="578.5,-277.5 578.5,-543.5 718.5,-543.5 718.5,-277.5 578.5,-277.5"/>
<text text-anchor="middle" x="648.5" y="-531.5" font-family="Helvetica,sans-Serif" font-size="10.00">MIDICNChannelAddress</text>
<polyline fill="none" stroke="black" points="578.5,-524.5 718.5,-524.5 "/>
<text text-anchor="start" x="586.5" y="-512.5" font-family="Helvetica,sans-Serif" font-size="10.00">&#45; addresses</text>
<polyline fill="none" stroke="black" points="578.5,-505.5 718.5,-505.5 "/>
<text text-anchor="start" x="586.5" y="-493.5" font-family="Helvetica,sans-Serif" font-size="10.00">+ MIDICNChannelAddress()</text>
<text text-anchor="start" x="586.5" y="-482.5" font-family="Helvetica,sans-Serif" font-size="10.00">+ MIDICNChannelAddress()</text>
<text text-anchor="start" x="586.5" y="-471.5" font-family="Helvetica,sans-Serif" font-size="10.00">+ MIDICNChannelAddress()</text>
<text text-anchor="start" x="586.5" y="-460.5" font-family="Helvetica,sans-Serif" font-size="10.00">+ MIDICNChannelAddress()</text>
<text text-anchor="start" x="586.5" y="-449.5" font-family="Helvetica,sans-Serif" font-size="10.00">+ MIDICNChannelAddress()</text>
<text text-anchor="start" x="586.5" y="-438.5" font-family="Helvetica,sans-Serif" font-size="10.00">+ operator+=()</text>
<text text-anchor="start" x="586.5" y="-427.5" font-family="Helvetica,sans-Serif" font-size="10.00">+ operator&#45;=()</text>
<text text-anchor="start" x="586.5" y="-416.5" font-family="Helvetica,sans-Serif" font-size="10.00">+ operator+()</text>
<text text-anchor="start" x="586.5" y="-405.5" font-family="Helvetica,sans-Serif" font-size="10.00">+ operator&#45;()</text>
<text text-anchor="start" x="586.5" y="-394.5" font-family="Helvetica,sans-Serif" font-size="10.00">+ operator==()</text>
<text text-anchor="start" x="586.5" y="-383.5" font-family="Helvetica,sans-Serif" font-size="10.00">+ operator!=()</text>
<text text-anchor="start" x="586.5" y="-372.5" font-family="Helvetica,sans-Serif" font-size="10.00">+ getAddress()</text>
<text text-anchor="start" x="586.5" y="-361.5" font-family="Helvetica,sans-Serif" font-size="10.00">+ getChannel()</text>
<text text-anchor="start" x="586.5" y="-350.5" font-family="Helvetica,sans-Serif" font-size="10.00">+ getRawChannel()</text>
<text text-anchor="start" x="586.5" y="-339.5" font-family="Helvetica,sans-Serif" font-size="10.00">+ getCableNumber()</text>
<text text-anchor="start" x="586.5" y="-328.5" font-family="Helvetica,sans-Serif" font-size="10.00">+ isValid()</text>
<text text-anchor="start" x="586.5" y="-317.5" font-family="Helvetica,sans-Serif" font-size="10.00">+ operator bool()</text>
<text text-anchor="start" x="586.5" y="-306.5" font-family="Helvetica,sans-Serif" font-size="10.00">+ matchSingle()</text>
<text text-anchor="start" x="586.5" y="-295.5" font-family="Helvetica,sans-Serif" font-size="10.00">+ matchAddressInRange()</text>
<text text-anchor="start" x="586.5" y="-284.5" font-family="Helvetica,sans-Serif" font-size="10.00">+ invalid()</text>
</a>
</g>
</g>
<!-- Node10&#45;&gt;Node2 -->
<g id="edge11" class="edge"><title>Node10&#45;&gt;Node2</title>
<path fill="none" stroke="#404040" d="M583.492,-277.239C576.598,-266.976 569.251,-257.086 561.5,-248 558.617,-244.62 555.54,-241.303 552.327,-238.062"/>
<polygon fill="none" stroke="#404040" points="552.222,-237.962 545.12,-236.714 543.541,-229.677 550.643,-230.926 552.222,-237.962"/>
<text text-anchor="middle" x="600.5" y="-251" font-family="Helvetica,sans-Serif" font-size="10.00"> &#45;baseAddress</text>
</g>
<!-- Node11 -->
<g id="node11" class="node"><title>Node11</title>
<g id="a_node11"><a xlink:href="../../dc/dd4/classDigitalNoteSender.html" target="_top" xlink:title=" ">
<polygon fill="white" stroke="black" points="737,-360 737,-461 848,-461 848,-360 737,-360"/>
<text text-anchor="middle" x="792.5" y="-449" font-family="Helvetica,sans-Serif" font-size="10.00">DigitalNoteSender</text>
<polyline fill="none" stroke="black" points="737,-442 848,-442 "/>
<text text-anchor="start" x="745" y="-430" font-family="Helvetica,sans-Serif" font-size="10.00">&#45; velocity</text>
<polyline fill="none" stroke="black" points="737,-423 848,-423 "/>
<text text-anchor="start" x="745" y="-411" font-family="Helvetica,sans-Serif" font-size="10.00">+ DigitalNoteSender()</text>
<text text-anchor="start" x="745" y="-400" font-family="Helvetica,sans-Serif" font-size="10.00">+ sendOn()</text>
<text text-anchor="start" x="745" y="-389" font-family="Helvetica,sans-Serif" font-size="10.00">+ sendOff()</text>
<text text-anchor="start" x="745" y="-378" font-family="Helvetica,sans-Serif" font-size="10.00">+ setVelocity()</text>
<text text-anchor="start" x="745" y="-367" font-family="Helvetica,sans-Serif" font-size="10.00">+ getVelocity()</text>
</a>
</g>
</g>
<!-- Node11&#45;&gt;Node2 -->
<g id="edge12" class="edge"><title>Node11&#45;&gt;Node2</title>
<path fill="none" stroke="#404040" d="M778.179,-359.82C767.989,-332.218 751.739,-299.093 727.5,-277 684.793,-238.075 624.879,-214.22 573.858,-199.913"/>
<polygon fill="none" stroke="#404040" points="573.694,-199.869 566.859,-202.166 562.109,-196.741 568.944,-194.443 573.694,-199.869"/>
<text text-anchor="middle" x="725" y="-251" font-family="Helvetica,sans-Serif" font-size="10.00"> +sender</text>
</g>
</g>
</svg>
