<?xml version="1.0" encoding="UTF-8" standalone="no"?>
<!DOCTYPE svg PUBLIC "-//W3C//DTD SVG 1.1//EN"
 "http://www.w3.org/Graphics/SVG/1.1/DTD/svg11.dtd">
<!-- Generated by graphviz version 2.43.0 (0)
 -->
<!-- Title: IVU Pages: 1 -->
<svg width="458pt" height="573pt"
 viewBox="0.00 0.00 458.00 573.00" xmlns="http://www.w3.org/2000/svg" xmlns:xlink="http://www.w3.org/1999/xlink">
<g id="graph0" class="graph" transform="scale(1 1) rotate(0) translate(4 569)">
<title>IVU</title>
<polygon fill="white" stroke="transparent" points="-4,4 -4,-569 454,-569 454,4 -4,4"/>
<!-- Node1 -->
<g id="node1" class="node">
<title>Node1</title>
<g id="a_node1"><a xlink:title="An abstract interface for VU meters.">
<polygon fill="#bfbfbf" stroke="black" points="168,-419.5 168,-564.5 271,-564.5 271,-419.5 168,-419.5"/>
<text text-anchor="middle" x="219.5" y="-552.5" font-family="Helvetica,sans-Serif" font-size="10.00">IVU</text>
<polyline fill="none" stroke="black" points="168,-545.5 271,-545.5 "/>
<text text-anchor="start" x="176" y="-533.5" font-family="Helvetica,sans-Serif" font-size="10.00"># max</text>
<text text-anchor="start" x="176" y="-522.5" font-family="Helvetica,sans-Serif" font-size="10.00"># alwaysDirty</text>
<text text-anchor="start" x="176" y="-511.5" font-family="Helvetica,sans-Serif" font-size="10.00"># dirty</text>
<polyline fill="none" stroke="black" points="168,-504.5 271,-504.5 "/>
<text text-anchor="start" x="176" y="-492.5" font-family="Helvetica,sans-Serif" font-size="10.00">+ IVU()</text>
<text text-anchor="start" x="176" y="-481.5" font-family="Helvetica,sans-Serif" font-size="10.00">+ getValue()</text>
<text text-anchor="start" x="176" y="-470.5" font-family="Helvetica,sans-Serif" font-size="10.00">+ getOverload()</text>
<text text-anchor="start" x="176" y="-459.5" font-family="Helvetica,sans-Serif" font-size="10.00">+ getFloatValue()</text>
<text text-anchor="start" x="176" y="-448.5" font-family="Helvetica,sans-Serif" font-size="10.00">+ getMax()</text>
<text text-anchor="start" x="176" y="-437.5" font-family="Helvetica,sans-Serif" font-size="10.00">* getDirty()</text>
<text text-anchor="start" x="176" y="-426.5" font-family="Helvetica,sans-Serif" font-size="10.00">* clearDirty()</text>
</a>
</g>
</g>
<!-- Node2 -->
<g id="node2" class="node">
<title>Node2</title>
<g id="a_node2"><a xlink:href="../../d4/dce/classAudioVU.html" target="_top" xlink:title="A VU meter that reads from an Audio stream using the Analyzer class.">
<polygon fill="white" stroke="black" points="16,-210 16,-344 119,-344 119,-210 16,-210"/>
<text text-anchor="middle" x="67.5" y="-332" font-family="Helvetica,sans-Serif" font-size="10.00">AudioVU</text>
<polyline fill="none" stroke="black" points="16,-325 119,-325 "/>
<text text-anchor="start" x="24" y="-313" font-family="Helvetica,sans-Serif" font-size="10.00">&#45; ballistics</text>
<text text-anchor="start" x="24" y="-302" font-family="Helvetica,sans-Serif" font-size="10.00">&#45; level</text>
<text text-anchor="start" x="24" y="-291" font-family="Helvetica,sans-Serif" font-size="10.00">&#45; gain</text>
<polyline fill="none" stroke="black" points="16,-284 119,-284 "/>
<text text-anchor="start" x="24" y="-272" font-family="Helvetica,sans-Serif" font-size="10.00">+ AudioVU()</text>
<text text-anchor="start" x="24" y="-261" font-family="Helvetica,sans-Serif" font-size="10.00">+ AudioVU()</text>
<text text-anchor="start" x="24" y="-250" font-family="Helvetica,sans-Serif" font-size="10.00">+ getValue()</text>
<text text-anchor="start" x="24" y="-239" font-family="Helvetica,sans-Serif" font-size="10.00">+ getFloatValue()</text>
<text text-anchor="start" x="24" y="-228" font-family="Helvetica,sans-Serif" font-size="10.00">+ getOverload()</text>
<text text-anchor="start" x="24" y="-217" font-family="Helvetica,sans-Serif" font-size="10.00">+ setGain()</text>
</a>
</g>
</g>
<!-- Node1&#45;&gt;Node2 -->
<g id="edge1" class="edge">
<title>Node1&#45;&gt;Node2</title>
<path fill="none" stroke="midnightblue" d="M161.76,-414.99C153.86,-404.31 145.92,-393.42 138.5,-383 129.63,-370.54 120.34,-357.11 111.51,-344.15"/>
<polygon fill="none" stroke="midnightblue" points="159.02,-417.16 167.79,-423.1 164.64,-412.99 159.02,-417.16"/>
</g>
<!-- Node4 -->
<g id="node4" class="node">
<title>Node4</title>
<g id="a_node4"><a xlink:href="../../d0/d43/classMCU_1_1Bankable_1_1VU.html" target="_top" xlink:title="A MIDI input element that represents a Mackie Control Universal VU meter.">
<polygon fill="white" stroke="black" points="148,-171.5 148,-382.5 291,-382.5 291,-171.5 148,-171.5"/>
<text text-anchor="middle" x="219.5" y="-370.5" font-family="Helvetica,sans-Serif" font-size="10.00">VU&lt; BankSize &gt;</text>
<polyline fill="none" stroke="black" points="148,-363.5 291,-363.5 "/>
<text text-anchor="start" x="156" y="-351.5" font-family="Helvetica,sans-Serif" font-size="10.00">&#45; states</text>
<text text-anchor="start" x="156" y="-340.5" font-family="Helvetica,sans-Serif" font-size="10.00">&#45; decayTimer</text>
<polyline fill="none" stroke="black" points="148,-333.5 291,-333.5 "/>
<text text-anchor="start" x="156" y="-321.5" font-family="Helvetica,sans-Serif" font-size="10.00">+ VU()</text>
<text text-anchor="start" x="156" y="-310.5" font-family="Helvetica,sans-Serif" font-size="10.00">+ VU()</text>
<text text-anchor="start" x="156" y="-299.5" font-family="Helvetica,sans-Serif" font-size="10.00">+ reset()</text>
<text text-anchor="start" x="156" y="-288.5" font-family="Helvetica,sans-Serif" font-size="10.00">+ update()</text>
<text text-anchor="start" x="156" y="-277.5" font-family="Helvetica,sans-Serif" font-size="10.00"># handleUpdateImpl()</text>
<text text-anchor="start" x="156" y="-266.5" font-family="Helvetica,sans-Serif" font-size="10.00"># handleUpdate()</text>
<text text-anchor="start" x="156" y="-255.5" font-family="Helvetica,sans-Serif" font-size="10.00"># decay()</text>
<text text-anchor="start" x="156" y="-244.5" font-family="Helvetica,sans-Serif" font-size="10.00"># onBankSettingChange()</text>
<text text-anchor="start" x="156" y="-233.5" font-family="Helvetica,sans-Serif" font-size="10.00">* getValue()</text>
<text text-anchor="start" x="156" y="-222.5" font-family="Helvetica,sans-Serif" font-size="10.00">* getOverload()</text>
<text text-anchor="start" x="156" y="-211.5" font-family="Helvetica,sans-Serif" font-size="10.00">* getFloatValue()</text>
<text text-anchor="start" x="156" y="-200.5" font-family="Helvetica,sans-Serif" font-size="10.00">* getValue()</text>
<text text-anchor="start" x="156" y="-189.5" font-family="Helvetica,sans-Serif" font-size="10.00">* getOverload()</text>
<text text-anchor="start" x="156" y="-178.5" font-family="Helvetica,sans-Serif" font-size="10.00">* getFloatValue()</text>
</a>
</g>
</g>
<!-- Node1&#45;&gt;Node4 -->
<g id="edge3" class="edge">
<title>Node1&#45;&gt;Node4</title>
<path fill="none" stroke="midnightblue" d="M219.5,-409.35C219.5,-400.61 219.5,-391.64 219.5,-382.68"/>
<polygon fill="none" stroke="midnightblue" points="216,-409.48 219.5,-419.48 223,-409.48 216,-409.48"/>
</g>
<!-- Node6 -->
<g id="node6" class="node">
<title>Node6</title>
<g id="a_node6"><a xlink:href="../../d8/d4c/classMCU_1_1VU.html" target="_top" xlink:title="A MIDI input element that represents a Mackie Control Universal VU meter.">
<polygon fill="white" stroke="black" points="317,-199 317,-355 442,-355 442,-199 317,-199"/>
<text text-anchor="middle" x="379.5" y="-343" font-family="Helvetica,sans-Serif" font-size="10.00">VU</text>
<polyline fill="none" stroke="black" points="317,-336 442,-336 "/>
<text text-anchor="start" x="325" y="-324" font-family="Helvetica,sans-Serif" font-size="10.00">&#45; state</text>
<text text-anchor="start" x="325" y="-313" font-family="Helvetica,sans-Serif" font-size="10.00">&#45; decayTimer</text>
<polyline fill="none" stroke="black" points="317,-306 442,-306 "/>
<text text-anchor="start" x="325" y="-294" font-family="Helvetica,sans-Serif" font-size="10.00">+ VU()</text>
<text text-anchor="start" x="325" y="-283" font-family="Helvetica,sans-Serif" font-size="10.00">+ VU()</text>
<text text-anchor="start" x="325" y="-272" font-family="Helvetica,sans-Serif" font-size="10.00">+ reset()</text>
<text text-anchor="start" x="325" y="-261" font-family="Helvetica,sans-Serif" font-size="10.00">+ update()</text>
<text text-anchor="start" x="325" y="-250" font-family="Helvetica,sans-Serif" font-size="10.00"># handleUpdateImpl()</text>
<text text-anchor="start" x="325" y="-239" font-family="Helvetica,sans-Serif" font-size="10.00"># handleUpdate()</text>
<text text-anchor="start" x="325" y="-228" font-family="Helvetica,sans-Serif" font-size="10.00"># decay()</text>
<text text-anchor="start" x="325" y="-217" font-family="Helvetica,sans-Serif" font-size="10.00">* getValue()</text>
<text text-anchor="start" x="325" y="-206" font-family="Helvetica,sans-Serif" font-size="10.00">* getOverload()</text>
</a>
</g>
</g>
<!-- Node1&#45;&gt;Node6 -->
<g id="edge5" class="edge">
<title>Node1&#45;&gt;Node6</title>
<path fill="none" stroke="midnightblue" d="M277.11,-414.3C291.52,-395.12 306.99,-374.53 321.43,-355.31"/>
<polygon fill="none" stroke="midnightblue" points="274.21,-412.34 271.01,-422.43 279.81,-416.54 274.21,-412.34"/>
</g>
<!-- Node3 -->
<g id="node3" class="node">
<title>Node3</title>
<g id="a_node3"><a xlink:href="../../d9/dbf/classAudioVULEDs.html" target="_top" xlink:title="A VU meter that reads from an Audio stream using the AudioAnalyzePeak class, and displays it on an LE...">
<polygon fill="white" stroke="black" points="0,-6 0,-129 113,-129 113,-6 0,-6"/>
<text text-anchor="middle" x="56.5" y="-117" font-family="Helvetica,sans-Serif" font-size="10.00">AudioVULEDs&lt; N &gt;</text>
<polyline fill="none" stroke="black" points="0,-110 113,-110 "/>
<text text-anchor="start" x="8" y="-98" font-family="Helvetica,sans-Serif" font-size="10.00">&#45; vuleds</text>
<text text-anchor="start" x="8" y="-87" font-family="Helvetica,sans-Serif" font-size="10.00">&#45; previousValue</text>
<polyline fill="none" stroke="black" points="0,-80 113,-80 "/>
<text text-anchor="start" x="8" y="-68" font-family="Helvetica,sans-Serif" font-size="10.00">+ AudioVULEDs()</text>
<text text-anchor="start" x="8" y="-57" font-family="Helvetica,sans-Serif" font-size="10.00">+ begin()</text>
<text text-anchor="start" x="8" y="-46" font-family="Helvetica,sans-Serif" font-size="10.00">+ update()</text>
<text text-anchor="start" x="8" y="-35" font-family="Helvetica,sans-Serif" font-size="10.00">+ setMode()</text>
<text text-anchor="start" x="8" y="-24" font-family="Helvetica,sans-Serif" font-size="10.00">+ dotMode()</text>
<text text-anchor="start" x="8" y="-13" font-family="Helvetica,sans-Serif" font-size="10.00">+ barMode()</text>
</a>
</g>
</g>
<!-- Node2&#45;&gt;Node3 -->
<g id="edge2" class="edge">
<title>Node2&#45;&gt;Node3</title>
<path fill="none" stroke="midnightblue" d="M63.45,-199.61C62.22,-176.4 60.88,-151.21 59.72,-129.17"/>
<polygon fill="none" stroke="midnightblue" points="59.96,-199.97 63.99,-209.78 66.95,-199.6 59.96,-199.97"/>
</g>
<!-- Node5 -->
<g id="node5" class="node">
<title>Node5</title>
<g id="a_node5"><a xlink:href="../../db/d17/classMCU_1_1Bankable_1_1VULEDs.html" target="_top" xlink:title="A MIDI input element that represents a Mackie Control Universal VU meter and displays its value using...">
<polygon fill="white" stroke="black" points="131.5,-0.5 131.5,-134.5 307.5,-134.5 307.5,-0.5 131.5,-0.5"/>
<text text-anchor="middle" x="219.5" y="-122.5" font-family="Helvetica,sans-Serif" font-size="10.00">VULEDs&lt; BankSize, NumLEDs &gt;</text>
<polyline fill="none" stroke="black" points="131.5,-115.5 307.5,-115.5 "/>
<text text-anchor="middle" x="219.5" y="-103.5" font-family="Helvetica,sans-Serif" font-size="10.00"> </text>
<polyline fill="none" stroke="black" points="131.5,-96.5 307.5,-96.5 "/>
<text text-anchor="start" x="139.5" y="-84.5" font-family="Helvetica,sans-Serif" font-size="10.00">+ VULEDs()</text>
<text text-anchor="start" x="139.5" y="-73.5" font-family="Helvetica,sans-Serif" font-size="10.00">+ VULEDs()</text>
<text text-anchor="start" x="139.5" y="-62.5" font-family="Helvetica,sans-Serif" font-size="10.00">+ begin()</text>
<text text-anchor="start" x="139.5" y="-51.5" font-family="Helvetica,sans-Serif" font-size="10.00">+ reset()</text>
<text text-anchor="start" x="139.5" y="-40.5" font-family="Helvetica,sans-Serif" font-size="10.00">+ update()</text>
<text text-anchor="start" x="139.5" y="-29.5" font-family="Helvetica,sans-Serif" font-size="10.00"># handleUpdate()</text>
<text text-anchor="start" x="139.5" y="-18.5" font-family="Helvetica,sans-Serif" font-size="10.00"># updateDisplay()</text>
<text text-anchor="start" x="139.5" y="-7.5" font-family="Helvetica,sans-Serif" font-size="10.00"># onBankSettingChange()</text>
</a>
</g>
</g>
<!-- Node4&#45;&gt;Node5 -->
<g id="edge4" class="edge">
<title>Node4&#45;&gt;Node5</title>
<path fill="none" stroke="midnightblue" d="M219.5,-161.11C219.5,-152.08 219.5,-143.17 219.5,-134.65"/>
<polygon fill="none" stroke="midnightblue" points="216,-161.34 219.5,-171.34 223,-161.34 216,-161.34"/>
</g>
<!-- Node7 -->
<g id="node7" class="node">
<title>Node7</title>
<g id="a_node7"><a xlink:href="../../df/d36/classMCU_1_1VULEDs.html" target="_top" xlink:title="A MIDI input element that represents a Mackie Control Universal VU meter and displays its value using...">
<polygon fill="white" stroke="black" points="325,-6 325,-129 450,-129 450,-6 325,-6"/>
<text text-anchor="middle" x="387.5" y="-117" font-family="Helvetica,sans-Serif" font-size="10.00">VULEDs&lt; NumLEDs &gt;</text>
<polyline fill="none" stroke="black" points="325,-110 450,-110 "/>
<text text-anchor="middle" x="387.5" y="-98" font-family="Helvetica,sans-Serif" font-size="10.00"> </text>
<polyline fill="none" stroke="black" points="325,-91 450,-91 "/>
<text text-anchor="start" x="333" y="-79" font-family="Helvetica,sans-Serif" font-size="10.00">+ VULEDs()</text>
<text text-anchor="start" x="333" y="-68" font-family="Helvetica,sans-Serif" font-size="10.00">+ VULEDs()</text>
<text text-anchor="start" x="333" y="-57" font-family="Helvetica,sans-Serif" font-size="10.00">+ begin()</text>
<text text-anchor="start" x="333" y="-46" font-family="Helvetica,sans-Serif" font-size="10.00">+ reset()</text>
<text text-anchor="start" x="333" y="-35" font-family="Helvetica,sans-Serif" font-size="10.00">+ update()</text>
<text text-anchor="start" x="333" y="-24" font-family="Helvetica,sans-Serif" font-size="10.00"># handleUpdate()</text>
<text text-anchor="start" x="333" y="-13" font-family="Helvetica,sans-Serif" font-size="10.00"># updateDisplay()</text>
</a>
</g>
</g>
<!-- Node6&#45;&gt;Node7 -->
<g id="edge6" class="edge">
<title>Node6&#45;&gt;Node7</title>
<path fill="none" stroke="midnightblue" d="M382.87,-188.69C383.64,-168.71 384.44,-147.89 385.16,-129.3"/>
<polygon fill="none" stroke="midnightblue" points="379.37,-188.61 382.48,-198.73 386.36,-188.88 379.37,-188.61"/>
</g>
</g>
</svg>
