<?xml version="1.0" encoding="UTF-8" standalone="no"?>
<!DOCTYPE svg PUBLIC "-//W3C//DTD SVG 1.1//EN"
 "http://www.w3.org/Graphics/SVG/1.1/DTD/svg11.dtd">
<!-- Generated by graphviz version 2.43.0 (0)
 -->
<!-- Title: LCDCounter Pages: 1 -->
<svg width="110pt" height="277pt"
 viewBox="0.00 0.00 110.00 277.00" xmlns="http://www.w3.org/2000/svg" xmlns:xlink="http://www.w3.org/1999/xlink">
<g id="graph0" class="graph" transform="scale(1 1) rotate(0) translate(4 273)">
<title>LCDCounter</title>
<!-- Node1 -->
<g id="Node000001" class="node">
<title>Node1</title>
<g id="a_Node000001"><a xlink:title="Counts the number of instances of the LCD class.">
<polygon fill="#999999" stroke="transparent" points="98.5,-269 3.5,-269 3.5,-190 98.5,-190 98.5,-269"/>
<text text-anchor="start" x="22.5" y="-256.5" font-family="Helvetica,sans-Serif" font-size="10.00">LCDCounter</text>
<text text-anchor="start" x="10.5" y="-241.5" font-family="Helvetica,sans-Serif" font-size="10.00">&#45;</text>
<text text-anchor="start" x="21" y="-241.5" font-family="Helvetica,sans-Serif" font-size="10.00">instances</text>
<text text-anchor="start" x="8" y="-226.5" font-family="Helvetica,sans-Serif" font-size="10.00">+</text>
<text text-anchor="start" x="21" y="-226.5" font-family="Helvetica,sans-Serif" font-size="10.00">LCDCounter()</text>
<text text-anchor="start" x="8" y="-211.5" font-family="Helvetica,sans-Serif" font-size="10.00">+</text>
<text text-anchor="start" x="21" y="-211.5" font-family="Helvetica,sans-Serif" font-size="10.00">~LCDCounter()</text>
<text text-anchor="start" x="8" y="-196.5" font-family="Helvetica,sans-Serif" font-size="10.00">+</text>
<text text-anchor="start" x="21" y="-196.5" font-family="Helvetica,sans-Serif" font-size="10.00">getInstances()</text>
<polygon fill="#666666" stroke="#666666" points="4,-251.5 4,-251.5 99,-251.5 99,-251.5 4,-251.5"/>
<polygon fill="#666666" stroke="#666666" points="4,-236.5 4,-236.5 19,-236.5 19,-236.5 4,-236.5"/>
<polygon fill="#666666" stroke="#666666" points="19,-236.5 19,-236.5 99,-236.5 99,-236.5 19,-236.5"/>
<polygon fill="none" stroke="#666666" points="3.5,-190 3.5,-269 98.5,-269 98.5,-190 3.5,-190"/>
</a>
</g>
</g>
<!-- Node2 -->
<g id="Node000002" class="node">
<title>Node2</title>
<g id="a_Node000002"><a xlink:href="../../d5/d2e/classMCU_1_1LCD.html" target="_top" xlink:title="A class that represents the Mackie Control Universal LCD display and saves the text it receives.">
<polygon fill="white" stroke="transparent" points="102,-154 0,-154 0,0 102,0 102,-154"/>
<text text-anchor="start" x="5" y="-142" font-family="Helvetica,sans-Serif" font-size="10.00">LCD&lt; BufferSize &gt;</text>
<text text-anchor="start" x="10.5" y="-127" font-family="Helvetica,sans-Serif" font-size="10.00">&#45;</text>
<text text-anchor="start" x="25" y="-127" font-family="Helvetica,sans-Serif" font-size="10.00">buffer</text>
<text text-anchor="start" x="10.5" y="-112" font-family="Helvetica,sans-Serif" font-size="10.00">&#45;</text>
<text text-anchor="start" x="25" y="-112" font-family="Helvetica,sans-Serif" font-size="10.00">offset</text>
<text text-anchor="start" x="10.5" y="-97" font-family="Helvetica,sans-Serif" font-size="10.00">&#45;</text>
<text text-anchor="start" x="25" y="-97" font-family="Helvetica,sans-Serif" font-size="10.00">cable</text>
<text text-anchor="start" x="10.5" y="-82" font-family="Helvetica,sans-Serif" font-size="10.00">&#45;</text>
<text text-anchor="start" x="25" y="-82" font-family="Helvetica,sans-Serif" font-size="10.00">dirty</text>
<text text-anchor="start" x="8" y="-67" font-family="Helvetica,sans-Serif" font-size="10.00">+</text>
<text text-anchor="start" x="25" y="-67" font-family="Helvetica,sans-Serif" font-size="10.00">LCD()</text>
<text text-anchor="start" x="8" y="-52" font-family="Helvetica,sans-Serif" font-size="10.00">#</text>
<text text-anchor="start" x="25" y="-52" font-family="Helvetica,sans-Serif" font-size="10.00">updateWith()</text>
<text text-anchor="start" x="9.5" y="-37" font-family="Helvetica,sans-Serif" font-size="10.00">*</text>
<text text-anchor="start" x="25" y="-37" font-family="Helvetica,sans-Serif" font-size="10.00">getText()</text>
<text text-anchor="start" x="9.5" y="-22" font-family="Helvetica,sans-Serif" font-size="10.00">*</text>
<text text-anchor="start" x="25" y="-22" font-family="Helvetica,sans-Serif" font-size="10.00">getDirty()</text>
<text text-anchor="start" x="9.5" y="-7" font-family="Helvetica,sans-Serif" font-size="10.00">*</text>
<text text-anchor="start" x="25" y="-7" font-family="Helvetica,sans-Serif" font-size="10.00">clearDirty()</text>
<polygon fill="#666666" stroke="#666666" points="0,-137 0,-137 102,-137 102,-137 0,-137"/>
<polygon fill="#666666" stroke="#666666" points="0,-77 0,-77 23,-77 23,-77 0,-77"/>
<polygon fill="#666666" stroke="#666666" points="23,-77 23,-77 102,-77 102,-77 23,-77"/>
<polygon fill="none" stroke="#666666" points="0,0 0,-154 102,-154 102,0 0,0"/>
</a>
</g>
</g>
<!-- Node1&#45;&gt;Node2 -->
<g id="edge1_Node000001_Node000002" class="edge">
<title>Node1&#45;&gt;Node2</title>
<g id="a_edge1_Node000001_Node000002"><a xlink:title=" ">
<path fill="none" stroke="#8b1a1a" d="M51,-179.64C51,-171.44 51,-162.76 51,-154.06"/>
<polygon fill="none" stroke="#8b1a1a" points="47.5,-179.74 51,-189.74 54.5,-179.74 47.5,-179.74"/>
</a>
</g>
</g>
</g>
</svg>
