<?xml version="1.0" encoding="UTF-8" standalone="no"?>
<!DOCTYPE svg PUBLIC "-//W3C//DTD SVG 1.1//EN"
 "http://www.w3.org/Graphics/SVG/1.1/DTD/svg11.dtd">
<!-- Generated by graphviz version 2.38.0 (20140413.2041)
 -->
<!-- Title: IncrementSelector.hpp Pages: 1 -->
<svg width="1285pt" height="722pt"
 viewBox="0.00 0.00 1284.59 722.00" xmlns="http://www.w3.org/2000/svg" xmlns:xlink="http://www.w3.org/1999/xlink">
<g id="graph0" class="graph" transform="scale(1 1) rotate(0) translate(4 718)">
<title>IncrementSelector.hpp</title>
<polygon fill="white" stroke="none" points="-4,4 -4,-718 1280.59,-718 1280.59,4 -4,4"/>
<!-- Node1 -->
<g id="node1" class="node"><title>Node1</title>
<g id="a_node1"><a xlink:title=" ">
<polygon fill="#bfbfbf" stroke="black" points="930.5,-694.5 930.5,-713.5 1045.5,-713.5 1045.5,-694.5 930.5,-694.5"/>
<text text-anchor="middle" x="988" y="-701.5" font-family="Helvetica,sans-Serif" font-size="10.00">IncrementSelector.hpp</text>
</a>
</g>
</g>
<!-- Node2 -->
<g id="node2" class="node"><title>Node2</title>
<g id="a_node2"><a xlink:href="../../d6/d16/Selector_8hpp.html" target="_top" xlink:title=" ">
<polygon fill="white" stroke="black" points="699.5,-582.5 699.5,-601.5 770.5,-601.5 770.5,-582.5 699.5,-582.5"/>
<text text-anchor="middle" x="735" y="-589.5" font-family="Helvetica,sans-Serif" font-size="10.00">Selector.hpp</text>
</a>
</g>
</g>
<!-- Node1&#45;&gt;Node2 -->
<g id="edge1" class="edge"><title>Node1&#45;&gt;Node2</title>
<path fill="none" stroke="midnightblue" d="M968.148,-694.368C923.717,-675.051 816.096,-628.259 764.091,-605.648"/>
<polygon fill="midnightblue" stroke="midnightblue" points="765.327,-602.369 754.76,-601.591 762.535,-608.788 765.327,-602.369"/>
</g>
<!-- Node30 -->
<g id="node30" class="node"><title>Node30</title>
<g id="a_node30"><a xlink:href="../../d5/d04/IncrementButton_8hpp.html" target="_top" xlink:title=" ">
<polygon fill="white" stroke="black" points="999,-638.5 999,-657.5 1169,-657.5 1169,-638.5 999,-638.5"/>
<text text-anchor="middle" x="1084" y="-645.5" font-family="Helvetica,sans-Serif" font-size="10.00">AH/Hardware/IncrementButton.hpp</text>
</a>
</g>
</g>
<!-- Node1&#45;&gt;Node30 -->
<g id="edge52" class="edge"><title>Node1&#45;&gt;Node30</title>
<path fill="none" stroke="midnightblue" d="M1003.42,-694.324C1018.54,-685.822 1041.82,-672.729 1059.47,-662.797"/>
<polygon fill="midnightblue" stroke="midnightblue" points="1061.61,-665.608 1068.61,-657.655 1058.18,-659.507 1061.61,-665.608"/>
</g>
<!-- Node3 -->
<g id="node3" class="node"><title>Node3</title>
<g id="a_node3"><a xlink:href="../../d9/d46/Selectable_8hpp.html" target="_top" xlink:title=" ">
<polygon fill="white" stroke="black" points="366.5,-521 366.5,-540 447.5,-540 447.5,-521 366.5,-521"/>
<text text-anchor="middle" x="407" y="-528" font-family="Helvetica,sans-Serif" font-size="10.00">Selectable.hpp</text>
</a>
</g>
</g>
<!-- Node2&#45;&gt;Node3 -->
<g id="edge2" class="edge"><title>Node2&#45;&gt;Node3</title>
<path fill="none" stroke="midnightblue" d="M699.274,-584.519C640.761,-573.905 524.331,-552.784 457.432,-540.649"/>
<polygon fill="midnightblue" stroke="midnightblue" points="458,-537.195 447.536,-538.853 456.751,-544.082 458,-537.195"/>
</g>
<!-- Node5 -->
<g id="node5" class="node"><title>Node5</title>
<g id="a_node5"><a xlink:href="../../df/dee/Debug_8hpp.html" target="_top" xlink:title=" ">
<polygon fill="white" stroke="black" points="952.5,-224.5 952.5,-243.5 1065.5,-243.5 1065.5,-224.5 952.5,-224.5"/>
<text text-anchor="middle" x="1009" y="-231.5" font-family="Helvetica,sans-Serif" font-size="10.00">AH/Debug/Debug.hpp</text>
</a>
</g>
</g>
<!-- Node2&#45;&gt;Node5 -->
<g id="edge50" class="edge"><title>Node2&#45;&gt;Node5</title>
<path fill="none" stroke="midnightblue" d="M770.638,-586.037C857.675,-572.922 1074,-533.897 1074,-470 1074,-470 1074,-470 1074,-345 1074,-314.902 1070.48,-305.809 1055,-280 1048.22,-268.704 1037.93,-258.268 1028.8,-250.295"/>
<polygon fill="midnightblue" stroke="midnightblue" points="1030.8,-247.409 1020.87,-243.712 1026.33,-252.794 1030.8,-247.409"/>
</g>
<!-- Node19 -->
<g id="node19" class="node"><title>Node19</title>
<g id="a_node19"><a xlink:href="../../d0/d4e/Def_8hpp.html" target="_top" xlink:title=" ">
<polygon fill="white" stroke="black" points="372,-459.5 372,-478.5 442,-478.5 442,-459.5 372,-459.5"/>
<text text-anchor="middle" x="407" y="-466.5" font-family="Helvetica,sans-Serif" font-size="10.00">Def/Def.hpp</text>
</a>
</g>
</g>
<!-- Node2&#45;&gt;Node19 -->
<g id="edge51" class="edge"><title>Node2&#45;&gt;Node19</title>
<path fill="none" stroke="midnightblue" d="M711.936,-582.492C654.791,-561.411 506.482,-506.699 440.04,-482.188"/>
<polygon fill="midnightblue" stroke="midnightblue" points="441.071,-478.838 430.478,-478.661 438.648,-485.406 441.071,-478.838"/>
</g>
<!-- Node25 -->
<g id="node25" class="node"><title>Node25</title>
<g id="a_node25"><a xlink:href="../../d4/d93/Updatable_8hpp.html" target="_top" xlink:title=" ">
<polygon fill="white" stroke="black" points="661.5,-336.5 661.5,-355.5 808.5,-355.5 808.5,-336.5 661.5,-336.5"/>
<text text-anchor="middle" x="735" y="-343.5" font-family="Helvetica,sans-Serif" font-size="10.00">AH/Containers/Updatable.hpp</text>
</a>
</g>
</g>
<!-- Node2&#45;&gt;Node25 -->
<g id="edge39" class="edge"><title>Node2&#45;&gt;Node25</title>
<path fill="none" stroke="midnightblue" d="M735,-582.316C735,-547.185 735,-415.119 735,-365.763"/>
<polygon fill="midnightblue" stroke="midnightblue" points="738.5,-365.58 735,-355.58 731.5,-365.58 738.5,-365.58"/>
</g>
<!-- Node4 -->
<g id="node4" class="node"><title>Node4</title>
<g id="a_node4"><a xlink:href="../../d1/d93/Error_8hpp.html" target="_top" xlink:title=" ">
<polygon fill="white" stroke="black" points="948,-280.5 948,-299.5 1046,-299.5 1046,-280.5 948,-280.5"/>
<text text-anchor="middle" x="997" y="-287.5" font-family="Helvetica,sans-Serif" font-size="10.00">AH/Error/Error.hpp</text>
</a>
</g>
</g>
<!-- Node3&#45;&gt;Node4 -->
<g id="edge3" class="edge"><title>Node3&#45;&gt;Node4</title>
<path fill="none" stroke="midnightblue" d="M447.594,-527.993C563.196,-523.364 888.26,-507.89 926,-479 980.481,-437.295 993.157,-348.723 996.106,-309.9"/>
<polygon fill="midnightblue" stroke="midnightblue" points="999.622,-309.753 996.744,-299.556 992.635,-309.321 999.622,-309.753"/>
</g>
<!-- Node15 -->
<g id="node15" class="node"><title>Node15</title>
<g id="a_node15"><a xlink:title=" ">
<polygon fill="white" stroke="#bfbfbf" points="171.5,-56.5 171.5,-75.5 220.5,-75.5 220.5,-56.5 171.5,-56.5"/>
<text text-anchor="middle" x="196" y="-63.5" font-family="Helvetica,sans-Serif" font-size="10.00">stdint.h</text>
</a>
</g>
</g>
<!-- Node3&#45;&gt;Node15 -->
<g id="edge38" class="edge"><title>Node3&#45;&gt;Node15</title>
<path fill="none" stroke="midnightblue" d="M366.487,-526.145C263.541,-516.509 0,-484.428 0,-408.5 0,-408.5 0,-408.5 0,-177 0,-103.899 104.963,-78.8803 161.266,-70.7184"/>
<polygon fill="midnightblue" stroke="midnightblue" points="161.734,-74.1872 171.176,-69.3828 160.799,-67.2499 161.734,-74.1872"/>
</g>
<!-- Node18 -->
<g id="node18" class="node"><title>Node18</title>
<g id="a_node18"><a xlink:title=" ">
<polygon fill="white" stroke="#bfbfbf" points="66.5,-280.5 66.5,-299.5 167.5,-299.5 167.5,-280.5 66.5,-280.5"/>
<text text-anchor="middle" x="117" y="-287.5" font-family="Helvetica,sans-Serif" font-size="10.00">AH/STL/type_traits</text>
</a>
</g>
</g>
<!-- Node3&#45;&gt;Node18 -->
<g id="edge21" class="edge"><title>Node3&#45;&gt;Node18</title>
<path fill="none" stroke="midnightblue" d="M370.632,-520.997C305.022,-503.387 169.112,-455.937 120,-356 112.916,-341.584 112.775,-323.13 114.051,-309.571"/>
<polygon fill="midnightblue" stroke="midnightblue" points="117.538,-309.891 115.334,-299.528 110.595,-309.004 117.538,-309.891"/>
</g>
<!-- Node3&#45;&gt;Node19 -->
<g id="edge22" class="edge"><title>Node3&#45;&gt;Node19</title>
<path fill="none" stroke="midnightblue" d="M407,-520.975C407,-512.58 407,-499.481 407,-488.663"/>
<polygon fill="midnightblue" stroke="midnightblue" points="410.5,-488.509 407,-478.509 403.5,-488.509 410.5,-488.509"/>
</g>
<!-- Node4&#45;&gt;Node5 -->
<g id="edge4" class="edge"><title>Node4&#45;&gt;Node5</title>
<path fill="none" stroke="midnightblue" d="M998.982,-280.083C1000.57,-272.927 1002.86,-262.635 1004.85,-253.691"/>
<polygon fill="midnightblue" stroke="midnightblue" points="1008.3,-254.272 1007.06,-243.751 1001.47,-252.754 1008.3,-254.272"/>
</g>
<!-- Node6 -->
<g id="node6" class="node"><title>Node6</title>
<g id="a_node6"><a xlink:href="../../dd/d80/PrintStream_8hpp.html" target="_top" xlink:title=" ">
<polygon fill="white" stroke="black" points="1085.5,-112.5 1085.5,-131.5 1244.5,-131.5 1244.5,-112.5 1085.5,-112.5"/>
<text text-anchor="middle" x="1165" y="-119.5" font-family="Helvetica,sans-Serif" font-size="10.00">AH/PrintStream/PrintStream.hpp</text>
</a>
</g>
</g>
<!-- Node5&#45;&gt;Node6 -->
<g id="edge5" class="edge"><title>Node5&#45;&gt;Node6</title>
<path fill="none" stroke="midnightblue" d="M1021.24,-224.368C1047.9,-205.573 1111.44,-160.768 1144.39,-137.533"/>
<polygon fill="midnightblue" stroke="midnightblue" points="1146.66,-140.215 1152.82,-131.591 1142.63,-134.494 1146.66,-140.215"/>
</g>
<!-- Node7 -->
<g id="node7" class="node"><title>Node7</title>
<g id="a_node7"><a xlink:title=" ">
<polygon fill="white" stroke="#bfbfbf" points="1113,-0.5 1113,-19.5 1171,-19.5 1171,-0.5 1113,-0.5"/>
<text text-anchor="middle" x="1142" y="-7.5" font-family="Helvetica,sans-Serif" font-size="10.00">Arduino.h</text>
</a>
</g>
</g>
<!-- Node5&#45;&gt;Node7 -->
<g id="edge19" class="edge"><title>Node5&#45;&gt;Node7</title>
<path fill="none" stroke="midnightblue" d="M1015.34,-224.26C1021.68,-215.353 1031.53,-201.033 1039,-188 1057.68,-155.408 1052.23,-141.091 1076,-112 1092.65,-91.625 1108.13,-97.7051 1123,-76 1132.45,-62.2102 1137.26,-43.6868 1139.68,-29.942"/>
<polygon fill="midnightblue" stroke="midnightblue" points="1143.19,-30.1337 1141.19,-19.7291 1136.26,-29.1093 1143.19,-30.1337"/>
</g>
<!-- Node8 -->
<g id="node8" class="node"><title>Node8</title>
<g id="a_node8"><a xlink:href="../../de/dd1/AH_2Settings_2SettingsWrapper_8hpp.html" target="_top" xlink:title=" ">
<polygon fill="white" stroke="black" points="672,-168.5 672,-187.5 836,-187.5 836,-168.5 672,-168.5"/>
<text text-anchor="middle" x="754" y="-175.5" font-family="Helvetica,sans-Serif" font-size="10.00">AH/Settings/SettingsWrapper.hpp</text>
</a>
</g>
</g>
<!-- Node5&#45;&gt;Node8 -->
<g id="edge7" class="edge"><title>Node5&#45;&gt;Node8</title>
<path fill="none" stroke="midnightblue" d="M963.506,-224.444C916.955,-215.023 845.238,-199.866 798.906,-189.675"/>
<polygon fill="midnightblue" stroke="midnightblue" points="799.656,-186.257 789.137,-187.516 798.146,-193.092 799.656,-186.257"/>
</g>
<!-- Node17 -->
<g id="node17" class="node"><title>Node17</title>
<g id="a_node17"><a xlink:href="../../d7/d52/DebugVal_8hpp.html" target="_top" xlink:title=" ">
<polygon fill="white" stroke="black" points="952,-168.5 952,-187.5 1030,-187.5 1030,-168.5 952,-168.5"/>
<text text-anchor="middle" x="991" y="-175.5" font-family="Helvetica,sans-Serif" font-size="10.00">DebugVal.hpp</text>
</a>
</g>
</g>
<!-- Node5&#45;&gt;Node17 -->
<g id="edge20" class="edge"><title>Node5&#45;&gt;Node17</title>
<path fill="none" stroke="midnightblue" d="M1006.03,-224.083C1003.62,-216.849 1000.14,-206.409 997.132,-197.397"/>
<polygon fill="midnightblue" stroke="midnightblue" points="1000.4,-196.131 993.917,-187.751 993.759,-198.345 1000.4,-196.131"/>
</g>
<!-- Node6&#45;&gt;Node7 -->
<g id="edge6" class="edge"><title>Node6&#45;&gt;Node7</title>
<path fill="none" stroke="midnightblue" d="M1164.23,-112.086C1163.04,-99.4853 1160.42,-75.7914 1156,-56 1153.99,-47.0052 1151.04,-37.2138 1148.37,-29.0682"/>
<polygon fill="midnightblue" stroke="midnightblue" points="1151.65,-27.8497 1145.11,-19.5135 1145.02,-30.108 1151.65,-27.8497"/>
</g>
<!-- Node8&#45;&gt;Node5 -->
<g id="edge18" class="edge"><title>Node8&#45;&gt;Node5</title>
<path fill="none" stroke="midnightblue" d="M799.296,-187.516C845.775,-196.92 917.493,-212.077 963.897,-222.281"/>
<polygon fill="midnightblue" stroke="midnightblue" points="963.164,-225.704 973.683,-224.444 964.674,-218.869 963.164,-225.704"/>
</g>
<!-- Node9 -->
<g id="node9" class="node"><title>Node9</title>
<g id="a_node9"><a xlink:href="../../d6/db0/AH_2Settings_2NamespaceSettings_8hpp.html" target="_top" xlink:title=" ">
<polygon fill="white" stroke="black" points="566,-0.5 566,-19.5 690,-19.5 690,-0.5 566,-0.5"/>
<text text-anchor="middle" x="628" y="-7.5" font-family="Helvetica,sans-Serif" font-size="10.00">NamespaceSettings.hpp</text>
</a>
</g>
</g>
<!-- Node8&#45;&gt;Node9 -->
<g id="edge8" class="edge"><title>Node8&#45;&gt;Node9</title>
<path fill="none" stroke="midnightblue" d="M705.014,-168.439C679.894,-161.966 650.209,-150.842 629,-132 602.088,-108.093 591.391,-90.6911 601,-56 603.792,-45.9205 609.509,-35.832 614.967,-27.7694"/>
<polygon fill="midnightblue" stroke="midnightblue" points="617.825,-29.7899 620.849,-19.6357 612.153,-25.6881 617.825,-29.7899"/>
</g>
<!-- Node10 -->
<g id="node10" class="node"><title>Node10</title>
<g id="a_node10"><a xlink:href="../../d5/d4f/AH_2Settings_2Settings_8hpp.html" target="_top" xlink:title="All user settings and debugging options can be changed here.">
<polygon fill="white" stroke="black" points="638.5,-112.5 638.5,-131.5 709.5,-131.5 709.5,-112.5 638.5,-112.5"/>
<text text-anchor="middle" x="674" y="-119.5" font-family="Helvetica,sans-Serif" font-size="10.00">Settings.hpp</text>
</a>
</g>
</g>
<!-- Node8&#45;&gt;Node10 -->
<g id="edge9" class="edge"><title>Node8&#45;&gt;Node10</title>
<path fill="none" stroke="midnightblue" d="M741.147,-168.324C728.784,-159.979 709.87,-147.212 695.263,-137.352"/>
<polygon fill="midnightblue" stroke="midnightblue" points="697.068,-134.348 686.821,-131.655 693.152,-140.15 697.068,-134.348"/>
</g>
<!-- Node16 -->
<g id="node16" class="node"><title>Node16</title>
<g id="a_node16"><a xlink:href="../../d9/d98/TeensyUSBTypes_8hpp.html" target="_top" xlink:title=" ">
<polygon fill="white" stroke="black" points="728,-112.5 728,-131.5 896,-131.5 896,-112.5 728,-112.5"/>
<text text-anchor="middle" x="812" y="-119.5" font-family="Helvetica,sans-Serif" font-size="10.00">AH/Teensy/TeensyUSBTypes.hpp</text>
</a>
</g>
</g>
<!-- Node8&#45;&gt;Node16 -->
<g id="edge17" class="edge"><title>Node8&#45;&gt;Node16</title>
<path fill="none" stroke="midnightblue" d="M763.319,-168.324C771.893,-160.341 784.812,-148.313 795.188,-138.653"/>
<polygon fill="midnightblue" stroke="midnightblue" points="797.578,-141.21 802.512,-131.834 792.808,-136.086 797.578,-141.21"/>
</g>
<!-- Node11 -->
<g id="node11" class="node"><title>Node11</title>
<g id="a_node11"><a xlink:href="../../dc/d50/Frequency_8hpp.html" target="_top" xlink:title=" ">
<polygon fill="white" stroke="black" points="610,-56.5 610,-75.5 738,-75.5 738,-56.5 610,-56.5"/>
<text text-anchor="middle" x="674" y="-63.5" font-family="Helvetica,sans-Serif" font-size="10.00">AH/Types/Frequency.hpp</text>
</a>
</g>
</g>
<!-- Node10&#45;&gt;Node11 -->
<g id="edge10" class="edge"><title>Node10&#45;&gt;Node11</title>
<path fill="none" stroke="midnightblue" d="M674,-112.083C674,-105.006 674,-94.8611 674,-85.9865"/>
<polygon fill="midnightblue" stroke="midnightblue" points="677.5,-85.751 674,-75.7511 670.5,-85.7511 677.5,-85.751"/>
</g>
<!-- Node12 -->
<g id="node12" class="node"><title>Node12</title>
<g id="a_node12"><a xlink:href="../../d7/d7c/ADCConfig_8hpp.html" target="_top" xlink:title="This file contains the platform&#45;specific ADC resolutions. By default, the library automatically selec...">
<polygon fill="white" stroke="black" points="966,-56.5 966,-75.5 1114,-75.5 1114,-56.5 966,-56.5"/>
<text text-anchor="middle" x="1040" y="-63.5" font-family="Helvetica,sans-Serif" font-size="10.00">AH/Hardware/ADCConfig.hpp</text>
</a>
</g>
</g>
<!-- Node10&#45;&gt;Node12 -->
<g id="edge12" class="edge"><title>Node10&#45;&gt;Node12</title>
<path fill="none" stroke="midnightblue" d="M709.827,-113.64C712.925,-113.062 716.015,-112.507 719,-112 801.152,-98.0387 895.666,-85.1725 960.755,-76.8057"/>
<polygon fill="midnightblue" stroke="midnightblue" points="961.467,-80.2432 970.942,-75.502 960.579,-73.2998 961.467,-80.2432"/>
</g>
<!-- Node13 -->
<g id="node13" class="node"><title>Node13</title>
<g id="a_node13"><a xlink:title=" ">
<polygon fill="white" stroke="#bfbfbf" points="756,-56.5 756,-75.5 804,-75.5 804,-56.5 756,-56.5"/>
<text text-anchor="middle" x="780" y="-63.5" font-family="Helvetica,sans-Serif" font-size="10.00">limits.h</text>
</a>
</g>
</g>
<!-- Node10&#45;&gt;Node13 -->
<g id="edge14" class="edge"><title>Node10&#45;&gt;Node13</title>
<path fill="none" stroke="midnightblue" d="M691.031,-112.324C708.03,-103.664 734.376,-90.2424 753.993,-80.249"/>
<polygon fill="midnightblue" stroke="midnightblue" points="755.69,-83.3125 763.012,-75.6545 752.512,-77.0752 755.69,-83.3125"/>
</g>
<!-- Node14 -->
<g id="node14" class="node"><title>Node14</title>
<g id="a_node14"><a xlink:title=" ">
<polygon fill="white" stroke="#bfbfbf" points="502,-56.5 502,-75.5 554,-75.5 554,-56.5 502,-56.5"/>
<text text-anchor="middle" x="528" y="-63.5" font-family="Helvetica,sans-Serif" font-size="10.00">stddef.h</text>
</a>
</g>
</g>
<!-- Node10&#45;&gt;Node14 -->
<g id="edge15" class="edge"><title>Node10&#45;&gt;Node14</title>
<path fill="none" stroke="midnightblue" d="M650.866,-112.444C626.518,-103.438 587.993,-89.1891 560.577,-79.049"/>
<polygon fill="midnightblue" stroke="midnightblue" points="561.619,-75.7028 551.026,-75.5164 559.191,-82.2681 561.619,-75.7028"/>
</g>
<!-- Node10&#45;&gt;Node15 -->
<g id="edge16" class="edge"><title>Node10&#45;&gt;Node15</title>
<path fill="none" stroke="midnightblue" d="M638.463,-116.985C549.581,-106.944 318.488,-80.8376 230.607,-70.9096"/>
<polygon fill="midnightblue" stroke="midnightblue" points="230.949,-67.426 220.619,-69.7812 230.163,-74.3818 230.949,-67.426"/>
</g>
<!-- Node11&#45;&gt;Node9 -->
<g id="edge11" class="edge"><title>Node11&#45;&gt;Node9</title>
<path fill="none" stroke="midnightblue" d="M666.404,-56.083C659.773,-48.2982 649.979,-36.8015 641.942,-27.3665"/>
<polygon fill="midnightblue" stroke="midnightblue" points="644.604,-25.0939 635.455,-19.7511 639.275,-29.6332 644.604,-25.0939"/>
</g>
<!-- Node12&#45;&gt;Node7 -->
<g id="edge13" class="edge"><title>Node12&#45;&gt;Node7</title>
<path fill="none" stroke="midnightblue" d="M1056.39,-56.324C1072.67,-47.7034 1097.87,-34.3643 1116.72,-24.3855"/>
<polygon fill="midnightblue" stroke="midnightblue" points="1118.45,-27.4267 1125.65,-19.6545 1115.18,-21.2402 1118.45,-27.4267"/>
</g>
<!-- Node19&#45;&gt;Node14 -->
<g id="edge36" class="edge"><title>Node19&#45;&gt;Node14</title>
<path fill="none" stroke="midnightblue" d="M414.298,-459.383C429.078,-441.438 462.538,-398.21 479,-356 516.672,-259.406 525.417,-133.518 527.417,-86.1411"/>
<polygon fill="midnightblue" stroke="midnightblue" points="530.926,-85.9747 527.794,-75.8532 523.93,-85.7184 530.926,-85.9747"/>
</g>
<!-- Node19&#45;&gt;Node15 -->
<g id="edge37" class="edge"><title>Node19&#45;&gt;Node15</title>
<path fill="none" stroke="midnightblue" d="M371.953,-464.108C279.844,-452.912 38,-416.863 38,-347 38,-347 38,-347 38,-177 38,-117.213 115.139,-87.2716 161.619,-74.6569"/>
<polygon fill="midnightblue" stroke="midnightblue" points="162.505,-78.0431 171.312,-72.155 160.755,-71.2652 162.505,-78.0431"/>
</g>
<!-- Node20 -->
<g id="node20" class="node"><title>Node20</title>
<g id="a_node20"><a xlink:href="../../d7/d42/Channel_8hpp.html" target="_top" xlink:title=" ">
<polygon fill="white" stroke="black" points="208.5,-398 208.5,-417 279.5,-417 279.5,-398 208.5,-398"/>
<text text-anchor="middle" x="244" y="-405" font-family="Helvetica,sans-Serif" font-size="10.00">Channel.hpp</text>
</a>
</g>
</g>
<!-- Node19&#45;&gt;Node20 -->
<g id="edge23" class="edge"><title>Node19&#45;&gt;Node20</title>
<path fill="none" stroke="midnightblue" d="M383.646,-459.475C355.686,-449.269 308.674,-432.108 277.009,-420.549"/>
<polygon fill="midnightblue" stroke="midnightblue" points="277.905,-417.15 267.311,-417.009 275.504,-423.726 277.905,-417.15"/>
</g>
<!-- Node21 -->
<g id="node21" class="node"><title>Node21</title>
<g id="a_node21"><a xlink:title=" ">
<polygon fill="white" stroke="#bfbfbf" points="162.5,-336.5 162.5,-355.5 325.5,-355.5 325.5,-336.5 162.5,-336.5"/>
<text text-anchor="middle" x="244" y="-343.5" font-family="Helvetica,sans-Serif" font-size="10.00">Settings/NamespaceSettings.hpp</text>
</a>
</g>
</g>
<!-- Node19&#45;&gt;Node21 -->
<g id="edge35" class="edge"><title>Node19&#45;&gt;Node21</title>
<path fill="none" stroke="midnightblue" d="M395.538,-459.492C368.132,-439.147 298.528,-387.478 264.022,-361.863"/>
<polygon fill="midnightblue" stroke="midnightblue" points="265.783,-358.811 255.667,-355.661 261.611,-364.432 265.783,-358.811"/>
</g>
<!-- Node22 -->
<g id="node22" class="node"><title>Node22</title>
<g id="a_node22"><a xlink:href="../../de/d76/Array_8hpp.html" target="_top" xlink:title=" ">
<polygon fill="white" stroke="black" points="344,-336.5 344,-355.5 470,-355.5 470,-336.5 344,-336.5"/>
<text text-anchor="middle" x="407" y="-343.5" font-family="Helvetica,sans-Serif" font-size="10.00">AH/Containers/Array.hpp</text>
</a>
</g>
</g>
<!-- Node19&#45;&gt;Node22 -->
<g id="edge26" class="edge"><title>Node19&#45;&gt;Node22</title>
<path fill="none" stroke="midnightblue" d="M407,-459.298C407,-439.85 407,-392.49 407,-365.904"/>
<polygon fill="midnightblue" stroke="midnightblue" points="410.5,-365.623 407,-355.623 403.5,-365.623 410.5,-365.623"/>
</g>
<!-- Node24 -->
<g id="node24" class="node"><title>Node24</title>
<g id="a_node24"><a xlink:href="../../d4/d35/Hardware-Types_8hpp.html" target="_top" xlink:title=" ">
<polygon fill="white" stroke="black" points="519.5,-392.5 519.5,-422.5 640.5,-422.5 640.5,-392.5 519.5,-392.5"/>
<text text-anchor="start" x="527.5" y="-410.5" font-family="Helvetica,sans-Serif" font-size="10.00">AH/Hardware/Hardware</text>
<text text-anchor="middle" x="580" y="-399.5" font-family="Helvetica,sans-Serif" font-size="10.00">&#45;Types.hpp</text>
</a>
</g>
</g>
<!-- Node19&#45;&gt;Node24 -->
<g id="edge31" class="edge"><title>Node19&#45;&gt;Node24</title>
<path fill="none" stroke="midnightblue" d="M431.787,-459.475C457.188,-450.739 497.404,-436.907 529.539,-425.855"/>
<polygon fill="midnightblue" stroke="midnightblue" points="530.909,-429.085 539.227,-422.523 528.633,-422.466 530.909,-429.085"/>
</g>
<!-- Node20&#45;&gt;Node15 -->
<g id="edge24" class="edge"><title>Node20&#45;&gt;Node15</title>
<path fill="none" stroke="midnightblue" d="M211.884,-397.899C191.105,-390.483 165.65,-377.487 153,-356 148.49,-348.34 150.507,-344.532 153,-336 158.325,-317.775 168.024,-317.23 176,-300 188.697,-272.57 196,-265.225 196,-235 196,-235 196,-235 196,-177 196,-144.948 196,-107.643 196,-85.7489"/>
<polygon fill="midnightblue" stroke="midnightblue" points="199.5,-85.5577 196,-75.5578 192.5,-85.5578 199.5,-85.5577"/>
</g>
<!-- Node20&#45;&gt;Node21 -->
<g id="edge25" class="edge"><title>Node20&#45;&gt;Node21</title>
<path fill="none" stroke="midnightblue" d="M244,-397.975C244,-389.58 244,-376.481 244,-365.663"/>
<polygon fill="midnightblue" stroke="midnightblue" points="247.5,-365.509 244,-355.509 240.5,-365.509 247.5,-365.509"/>
</g>
<!-- Node22&#45;&gt;Node4 -->
<g id="edge27" class="edge"><title>Node22&#45;&gt;Node4</title>
<path fill="none" stroke="midnightblue" d="M470.078,-341.024C567.834,-334.56 762.032,-320.513 937.828,-299.934"/>
<polygon fill="midnightblue" stroke="midnightblue" points="938.257,-303.408 947.778,-298.76 937.437,-296.456 938.257,-303.408"/>
</g>
<!-- Node22&#45;&gt;Node14 -->
<g id="edge30" class="edge"><title>Node22&#45;&gt;Node14</title>
<path fill="none" stroke="midnightblue" d="M410.754,-336.375C427.657,-297.54 496.892,-138.47 520.257,-84.7886"/>
<polygon fill="midnightblue" stroke="midnightblue" points="523.508,-86.0902 524.29,-75.5243 517.09,-83.2966 523.508,-86.0902"/>
</g>
<!-- Node22&#45;&gt;Node18 -->
<g id="edge28" class="edge"><title>Node22&#45;&gt;Node18</title>
<path fill="none" stroke="midnightblue" d="M361.049,-336.444C309.929,-326.925 227.346,-311.547 172.617,-301.356"/>
<polygon fill="midnightblue" stroke="midnightblue" points="173.208,-297.906 162.736,-299.516 171.927,-304.788 173.208,-297.906"/>
</g>
<!-- Node23 -->
<g id="node23" class="node"><title>Node23</title>
<g id="a_node23"><a xlink:title=" ">
<polygon fill="white" stroke="#bfbfbf" points="306.5,-280.5 306.5,-299.5 391.5,-299.5 391.5,-280.5 306.5,-280.5"/>
<text text-anchor="middle" x="349" y="-287.5" font-family="Helvetica,sans-Serif" font-size="10.00">AH/STL/iterator</text>
</a>
</g>
</g>
<!-- Node22&#45;&gt;Node23 -->
<g id="edge29" class="edge"><title>Node22&#45;&gt;Node23</title>
<path fill="none" stroke="midnightblue" d="M397.681,-336.324C389.107,-328.341 376.188,-316.313 365.812,-306.653"/>
<polygon fill="midnightblue" stroke="midnightblue" points="368.192,-304.086 358.488,-299.834 363.422,-309.21 368.192,-304.086"/>
</g>
<!-- Node24&#45;&gt;Node9 -->
<g id="edge33" class="edge"><title>Node24&#45;&gt;Node9</title>
<path fill="none" stroke="midnightblue" d="M573.474,-392.188C547.188,-333.578 452.399,-112.33 493,-56 507.664,-35.6547 531.926,-24.3688 555.868,-18.1567"/>
<polygon fill="midnightblue" stroke="midnightblue" points="556.772,-21.5401 565.72,-15.8676 555.188,-14.7217 556.772,-21.5401"/>
</g>
<!-- Node24&#45;&gt;Node15 -->
<g id="edge34" class="edge"><title>Node24&#45;&gt;Node15</title>
<path fill="none" stroke="midnightblue" d="M567.1,-392.326C553.703,-377.8 531.951,-354.749 512,-336 403.78,-234.302 264.968,-121.98 214.987,-82.0727"/>
<polygon fill="midnightblue" stroke="midnightblue" points="216.973,-79.1798 206.971,-75.6856 212.611,-84.6545 216.973,-79.1798"/>
</g>
<!-- Node24&#45;&gt;Node22 -->
<g id="edge32" class="edge"><title>Node24&#45;&gt;Node22</title>
<path fill="none" stroke="midnightblue" d="M539.001,-392.399C509.368,-382.207 469.774,-368.59 441.702,-358.935"/>
<polygon fill="midnightblue" stroke="midnightblue" points="442.515,-355.514 431.92,-355.571 440.239,-362.133 442.515,-355.514"/>
</g>
<!-- Node25&#45;&gt;Node4 -->
<g id="edge47" class="edge"><title>Node25&#45;&gt;Node4</title>
<path fill="none" stroke="midnightblue" d="M776.515,-336.444C822.412,-326.984 896.38,-311.738 945.826,-301.547"/>
<polygon fill="midnightblue" stroke="midnightblue" points="946.592,-304.963 955.68,-299.516 945.179,-298.107 946.592,-304.963"/>
</g>
<!-- Node25&#45;&gt;Node8 -->
<g id="edge48" class="edge"><title>Node25&#45;&gt;Node8</title>
<path fill="none" stroke="midnightblue" d="M734.595,-336.411C733.819,-316.485 732.79,-265.64 740,-224 741.553,-215.031 744.4,-205.359 747.123,-197.289"/>
<polygon fill="midnightblue" stroke="midnightblue" points="750.446,-198.391 750.513,-187.797 743.854,-196.037 750.446,-198.391"/>
</g>
<!-- Node25&#45;&gt;Node14 -->
<g id="edge49" class="edge"><title>Node25&#45;&gt;Node14</title>
<path fill="none" stroke="midnightblue" d="M728.578,-336.375C699.48,-297.297 579.733,-136.477 540.505,-83.7944"/>
<polygon fill="midnightblue" stroke="midnightblue" points="543.127,-81.4547 534.347,-75.5243 537.512,-85.6353 543.127,-81.4547"/>
</g>
<!-- Node26 -->
<g id="node26" class="node"><title>Node26</title>
<g id="a_node26"><a xlink:href="../../de/dd1/LinkedList_8hpp.html" target="_top" xlink:title=" ">
<polygon fill="white" stroke="black" points="782.5,-280.5 782.5,-299.5 929.5,-299.5 929.5,-280.5 782.5,-280.5"/>
<text text-anchor="middle" x="856" y="-287.5" font-family="Helvetica,sans-Serif" font-size="10.00">AH/Containers/LinkedList.hpp</text>
</a>
</g>
</g>
<!-- Node25&#45;&gt;Node26 -->
<g id="edge40" class="edge"><title>Node25&#45;&gt;Node26</title>
<path fill="none" stroke="midnightblue" d="M754.173,-336.444C773.909,-327.636 804.885,-313.812 827.493,-303.722"/>
<polygon fill="midnightblue" stroke="midnightblue" points="829.211,-306.788 836.917,-299.516 826.359,-300.396 829.211,-306.788"/>
</g>
<!-- Node26&#45;&gt;Node5 -->
<g id="edge41" class="edge"><title>Node26&#45;&gt;Node5</title>
<path fill="none" stroke="midnightblue" d="M880.243,-280.444C905.871,-271.399 946.485,-257.064 975.238,-246.916"/>
<polygon fill="midnightblue" stroke="midnightblue" points="976.605,-250.145 984.87,-243.516 974.275,-243.544 976.605,-250.145"/>
</g>
<!-- Node27 -->
<g id="node27" class="node"><title>Node27</title>
<g id="a_node27"><a xlink:href="../../d7/d79/MinMaxFix_8hpp.html" target="_top" xlink:title=" ">
<polygon fill="white" stroke="black" points="822.5,-56.5 822.5,-75.5 947.5,-75.5 947.5,-56.5 822.5,-56.5"/>
<text text-anchor="middle" x="885" y="-63.5" font-family="Helvetica,sans-Serif" font-size="10.00">AH/Math/MinMaxFix.hpp</text>
</a>
</g>
</g>
<!-- Node26&#45;&gt;Node27 -->
<g id="edge42" class="edge"><title>Node26&#45;&gt;Node27</title>
<path fill="none" stroke="midnightblue" d="M870.661,-280.402C882.406,-272.585 898.031,-259.862 905,-244 928.598,-190.289 917.179,-169.389 905,-112 903.003,-102.591 898.899,-92.7618 894.925,-84.6981"/>
<polygon fill="midnightblue" stroke="midnightblue" points="897.887,-82.8101 890.13,-75.5932 891.693,-86.0721 897.887,-82.8101"/>
</g>
<!-- Node28 -->
<g id="node28" class="node"><title>Node28</title>
<g id="a_node28"><a xlink:title=" ">
<polygon fill="white" stroke="#bfbfbf" points="848,-224.5 848,-243.5 896,-243.5 896,-224.5 848,-224.5"/>
<text text-anchor="middle" x="872" y="-231.5" font-family="Helvetica,sans-Serif" font-size="10.00">stdlib.h</text>
</a>
</g>
</g>
<!-- Node26&#45;&gt;Node28 -->
<g id="edge45" class="edge"><title>Node26&#45;&gt;Node28</title>
<path fill="none" stroke="midnightblue" d="M858.642,-280.083C860.786,-272.849 863.879,-262.409 866.549,-253.397"/>
<polygon fill="midnightblue" stroke="midnightblue" points="869.922,-254.333 869.407,-243.751 863.21,-252.345 869.922,-254.333"/>
</g>
<!-- Node29 -->
<g id="node29" class="node"><title>Node29</title>
<g id="a_node29"><a xlink:title=" ">
<polygon fill="white" stroke="#bfbfbf" points="782.5,-224.5 782.5,-243.5 829.5,-243.5 829.5,-224.5 782.5,-224.5"/>
<text text-anchor="middle" x="806" y="-231.5" font-family="Helvetica,sans-Serif" font-size="10.00">iterator</text>
</a>
</g>
</g>
<!-- Node26&#45;&gt;Node29 -->
<g id="edge46" class="edge"><title>Node26&#45;&gt;Node29</title>
<path fill="none" stroke="midnightblue" d="M847.744,-280.083C840.535,-272.298 829.89,-260.801 821.154,-251.367"/>
<polygon fill="midnightblue" stroke="midnightblue" points="823.465,-248.711 814.103,-243.751 818.329,-253.467 823.465,-248.711"/>
</g>
<!-- Node27&#45;&gt;Node7 -->
<g id="edge43" class="edge"><title>Node27&#45;&gt;Node7</title>
<path fill="none" stroke="midnightblue" d="M925.722,-56.4435C974.248,-46.2476 1054.76,-29.3301 1102.67,-19.2646"/>
<polygon fill="midnightblue" stroke="midnightblue" points="1103.59,-22.6464 1112.66,-17.1649 1102.15,-15.796 1103.59,-22.6464"/>
</g>
<!-- Node27&#45;&gt;Node9 -->
<g id="edge44" class="edge"><title>Node27&#45;&gt;Node9</title>
<path fill="none" stroke="midnightblue" d="M844.278,-56.4435C799.351,-47.0036 727.002,-31.802 678.501,-21.6111"/>
<polygon fill="midnightblue" stroke="midnightblue" points="679.038,-18.1476 668.532,-19.5164 677.598,-24.998 679.038,-18.1476"/>
</g>
<!-- Node31 -->
<g id="node31" class="node"><title>Node31</title>
<g id="a_node31"><a xlink:href="../../d4/db3/Button_8hpp.html" target="_top" xlink:title=" ">
<polygon fill="white" stroke="black" points="1150,-582.5 1150,-601.5 1214,-601.5 1214,-582.5 1150,-582.5"/>
<text text-anchor="middle" x="1182" y="-589.5" font-family="Helvetica,sans-Serif" font-size="10.00">Button.hpp</text>
</a>
</g>
</g>
<!-- Node30&#45;&gt;Node31 -->
<g id="edge53" class="edge"><title>Node30&#45;&gt;Node31</title>
<path fill="none" stroke="midnightblue" d="M1099.75,-638.324C1115.32,-629.743 1139.38,-616.486 1157.46,-606.522"/>
<polygon fill="midnightblue" stroke="midnightblue" points="1159.22,-609.546 1166.29,-601.655 1155.85,-603.415 1159.22,-609.546"/>
</g>
<!-- Node31&#45;&gt;Node8 -->
<g id="edge59" class="edge"><title>Node31&#45;&gt;Node8</title>
<path fill="none" stroke="midnightblue" d="M1214.2,-583.829C1234.32,-577.505 1258.67,-566.058 1271,-546 1278.22,-534.264 1278.57,-526.512 1271,-515 1204.78,-414.28 846.857,-395.263 773,-300 749.951,-270.271 749.684,-223.848 751.72,-198"/>
<polygon fill="midnightblue" stroke="midnightblue" points="755.237,-198.003 752.743,-187.706 748.271,-197.31 755.237,-198.003"/>
</g>
<!-- Node32 -->
<g id="node32" class="node"><title>Node32</title>
<g id="a_node32"><a xlink:href="../../dd/ddf/ExtendedInputOutput_8hpp.html" target="_top" xlink:title=" ">
<polygon fill="white" stroke="black" points="1102,-515.5 1102,-545.5 1262,-545.5 1262,-515.5 1102,-515.5"/>
<text text-anchor="start" x="1110" y="-533.5" font-family="Helvetica,sans-Serif" font-size="10.00">AH/Hardware/ExtendedInput</text>
<text text-anchor="middle" x="1182" y="-522.5" font-family="Helvetica,sans-Serif" font-size="10.00">Output/ExtendedInputOutput.hpp</text>
</a>
</g>
</g>
<!-- Node31&#45;&gt;Node32 -->
<g id="edge54" class="edge"><title>Node31&#45;&gt;Node32</title>
<path fill="none" stroke="midnightblue" d="M1182,-582.475C1182,-575.471 1182,-565.192 1182,-555.696"/>
<polygon fill="midnightblue" stroke="midnightblue" points="1185.5,-555.523 1182,-545.523 1178.5,-555.523 1185.5,-555.523"/>
</g>
<!-- Node32&#45;&gt;Node7 -->
<g id="edge58" class="edge"><title>Node32&#45;&gt;Node7</title>
<path fill="none" stroke="midnightblue" d="M1189.9,-515.46C1219.41,-461.024 1318.26,-259.602 1253,-112 1235.47,-72.3518 1193.84,-41.5773 1166.84,-24.8897"/>
<polygon fill="midnightblue" stroke="midnightblue" points="1168.34,-21.7103 1157.96,-19.5832 1164.75,-27.7186 1168.34,-21.7103"/>
</g>
<!-- Node33 -->
<g id="node33" class="node"><title>Node33</title>
<g id="a_node33"><a xlink:href="../../d4/d57/ExtendedIOElement_8hpp.html" target="_top" xlink:title=" ">
<polygon fill="white" stroke="black" points="794.5,-459.5 794.5,-478.5 917.5,-478.5 917.5,-459.5 794.5,-459.5"/>
<text text-anchor="middle" x="856" y="-466.5" font-family="Helvetica,sans-Serif" font-size="10.00">ExtendedIOElement.hpp</text>
</a>
</g>
</g>
<!-- Node32&#45;&gt;Node33 -->
<g id="edge55" class="edge"><title>Node32&#45;&gt;Node33</title>
<path fill="none" stroke="midnightblue" d="M1105.16,-515.475C1046.09,-504.694 965.842,-490.048 912.559,-480.323"/>
<polygon fill="midnightblue" stroke="midnightblue" points="913.072,-476.859 902.606,-478.506 911.815,-483.745 913.072,-476.859"/>
</g>
<!-- Node33&#45;&gt;Node24 -->
<g id="edge56" class="edge"><title>Node33&#45;&gt;Node24</title>
<path fill="none" stroke="midnightblue" d="M816.456,-459.475C773.256,-450.162 703.198,-435.059 650.531,-423.705"/>
<polygon fill="midnightblue" stroke="midnightblue" points="651.089,-420.245 640.576,-421.559 649.614,-427.088 651.089,-420.245"/>
</g>
<!-- Node33&#45;&gt;Node26 -->
<g id="edge57" class="edge"><title>Node33&#45;&gt;Node26</title>
<path fill="none" stroke="midnightblue" d="M856,-459.463C856,-432.428 856,-348.239 856,-310.109"/>
<polygon fill="midnightblue" stroke="midnightblue" points="859.5,-309.868 856,-299.868 852.5,-309.868 859.5,-309.868"/>
</g>
</g>
</svg>
