<?xml version="1.0" encoding="UTF-8" standalone="no"?>
<!DOCTYPE svg PUBLIC "-//W3C//DTD SVG 1.1//EN"
 "http://www.w3.org/Graphics/SVG/1.1/DTD/svg11.dtd">
<!-- Generated by graphviz version 2.43.0 (0)
 -->
<!-- Title: MIDIButtonMatrix.hpp Pages: 1 -->
<svg width="1321pt" height="819pt"
 viewBox="0.00 0.00 1320.50 819.00" xmlns="http://www.w3.org/2000/svg" xmlns:xlink="http://www.w3.org/1999/xlink">
<g id="graph0" class="graph" transform="scale(1 1) rotate(0) translate(4 815)">
<title>MIDIButtonMatrix.hpp</title>
<!-- Node1 -->
<g id="Node000001" class="node">
<title>Node1</title>
<g id="a_Node000001"><a xlink:title=" ">
<polygon fill="#999999" stroke="#666666" points="320,-811 196,-811 196,-792 320,-792 320,-811"/>
<text text-anchor="middle" x="258" y="-799" font-family="Helvetica,sans-Serif" font-size="10.00">MIDIButtonMatrix.hpp</text>
</a>
</g>
</g>
<!-- Node2 -->
<g id="Node000002" class="node">
<title>Node2</title>
<g id="a_Node000002"><a xlink:href="../../d9/d4b/ButtonMatrix_8hpp.html" target="_top" xlink:title=" ">
<polygon fill="white" stroke="#666666" points="230.5,-750.5 61.5,-750.5 61.5,-731.5 230.5,-731.5 230.5,-750.5"/>
<text text-anchor="middle" x="146" y="-738.5" font-family="Helvetica,sans-Serif" font-size="10.00">AH/Hardware/ButtonMatrix.hpp</text>
</a>
</g>
</g>
<!-- Node1&#45;&gt;Node2 -->
<g id="edge1_Node000001_Node000002" class="edge">
<title>Node1&#45;&gt;Node2</title>
<g id="a_edge1_Node000001_Node000002"><a xlink:title=" ">
<path fill="none" stroke="#63b8ff" d="M241.47,-791.87C223.03,-782.23 192.96,-766.53 171.49,-755.31"/>
<polygon fill="#63b8ff" stroke="#63b8ff" points="173.08,-752.19 162.59,-750.67 169.84,-758.4 173.08,-752.19"/>
</a>
</g>
</g>
<!-- Node27 -->
<g id="Node000027" class="node">
<title>Node27</title>
<g id="a_Node000027"><a xlink:href="../../d0/d4e/Def_8hpp.html" target="_top" xlink:title=" ">
<polygon fill="white" stroke="#666666" points="480,-635 406,-635 406,-616 480,-616 480,-635"/>
<text text-anchor="middle" x="443" y="-623" font-family="Helvetica,sans-Serif" font-size="10.00">Def/Def.hpp</text>
</a>
</g>
</g>
<!-- Node1&#45;&gt;Node27 -->
<g id="edge37_Node000001_Node000027" class="edge">
<title>Node1&#45;&gt;Node27</title>
<g id="a_edge37_Node000001_Node000027"><a xlink:title=" ">
<path fill="none" stroke="#63b8ff" d="M258.22,-791.84C259,-777.03 262.41,-746.42 277,-726 308.92,-681.33 367.72,-653.15 406.08,-638.6"/>
<polygon fill="#63b8ff" stroke="#63b8ff" points="407.66,-641.75 415.84,-635.03 405.25,-635.18 407.66,-641.75"/>
</a>
</g>
</g>
<!-- Node31 -->
<g id="Node000031" class="node">
<title>Node31</title>
<g id="a_Node000031"><a xlink:href="../../d1/d41/MIDIOutputElement_8hpp.html" target="_top" xlink:title=" ">
<polygon fill="white" stroke="#666666" points="423.5,-756 286.5,-756 286.5,-726 423.5,-726 423.5,-756"/>
<text text-anchor="start" x="294.5" y="-744" font-family="Helvetica,sans-Serif" font-size="10.00">MIDI_Outputs/Abstract</text>
<text text-anchor="middle" x="355" y="-733" font-family="Helvetica,sans-Serif" font-size="10.00">/MIDIOutputElement.hpp</text>
</a>
</g>
</g>
<!-- Node1&#45;&gt;Node31 -->
<g id="edge50_Node000001_Node000031" class="edge">
<title>Node1&#45;&gt;Node31</title>
<g id="a_edge50_Node000001_Node000031"><a xlink:title=" ">
<path fill="none" stroke="#63b8ff" d="M272.31,-791.87C285.6,-783.86 305.84,-771.65 322.97,-761.31"/>
<polygon fill="#63b8ff" stroke="#63b8ff" points="324.84,-764.28 331.6,-756.11 321.23,-758.28 324.84,-764.28"/>
</a>
</g>
</g>
<!-- Node3 -->
<g id="Node000003" class="node">
<title>Node3</title>
<g id="a_Node000003"><a xlink:href="../../d4/d35/Hardware-Types_8hpp.html" target="_top" xlink:title=" ">
<polygon fill="white" stroke="#666666" points="239.5,-580 108.5,-580 108.5,-550 239.5,-550 239.5,-580"/>
<text text-anchor="start" x="116.5" y="-568" font-family="Helvetica,sans-Serif" font-size="10.00">AH/Hardware/Hardware</text>
<text text-anchor="middle" x="174" y="-557" font-family="Helvetica,sans-Serif" font-size="10.00">&#45;Types.hpp</text>
</a>
</g>
</g>
<!-- Node2&#45;&gt;Node3 -->
<g id="edge2_Node000002_Node000003" class="edge">
<title>Node2&#45;&gt;Node3</title>
<g id="a_edge2_Node000002_Node000003"><a xlink:title=" ">
<path fill="none" stroke="#63b8ff" d="M147.66,-731.16C149.52,-721.18 152.59,-704.44 155,-690 160.77,-655.38 166.8,-615.21 170.48,-590.19"/>
<polygon fill="#63b8ff" stroke="#63b8ff" points="173.97,-590.55 171.95,-580.15 167.04,-589.54 173.97,-590.55"/>
</a>
</g>
</g>
<!-- Node26 -->
<g id="Node000026" class="node">
<title>Node26</title>
<g id="a_Node000026"><a xlink:title=" ">
<polygon fill="#e0e0e0" stroke="#999999" points="146,-690 48,-690 48,-671 146,-671 146,-690"/>
<text text-anchor="middle" x="97" y="-678" font-family="Helvetica,sans-Serif" font-size="10.00">ButtonMatrix.ipp</text>
</a>
</g>
</g>
<!-- Node2&#45;&gt;Node26 -->
<g id="edge36_Node000002_Node000026" class="edge">
<title>Node2&#45;&gt;Node26</title>
<g id="a_edge36_Node000002_Node000026"><a xlink:title=" ">
<path fill="none" stroke="#63b8ff" d="M138.77,-731.37C131.46,-722.64 119.98,-708.93 110.9,-698.09"/>
<polygon fill="#63b8ff" stroke="#63b8ff" points="113.36,-695.59 104.26,-690.17 108,-700.08 113.36,-695.59"/>
</a>
</g>
</g>
<!-- Node4 -->
<g id="Node000004" class="node">
<title>Node4</title>
<g id="a_Node000004"><a xlink:href="../../de/d76/Array_8hpp.html" target="_top" xlink:title=" ">
<polygon fill="white" stroke="#666666" points="326.5,-514 191.5,-514 191.5,-495 326.5,-495 326.5,-514"/>
<text text-anchor="middle" x="259" y="-502" font-family="Helvetica,sans-Serif" font-size="10.00">AH/Containers/Array.hpp</text>
</a>
</g>
</g>
<!-- Node3&#45;&gt;Node4 -->
<g id="edge3_Node000003_Node000004" class="edge">
<title>Node3&#45;&gt;Node4</title>
<g id="a_edge3_Node000003_Node000004"><a xlink:title=" ">
<path fill="none" stroke="#63b8ff" d="M194.58,-549.84C207.67,-540.83 224.59,-529.18 237.8,-520.09"/>
<polygon fill="#63b8ff" stroke="#63b8ff" points="240.01,-522.82 246.26,-514.27 236.04,-517.05 240.01,-522.82"/>
</a>
</g>
</g>
<!-- Node13 -->
<g id="Node000013" class="node">
<title>Node13</title>
<g id="a_Node000013"><a xlink:href="../../d6/db0/AH_2Settings_2NamespaceSettings_8hpp.html" target="_top" xlink:title=" ">
<polygon fill="white" stroke="#666666" points="785.5,-74 590.5,-74 590.5,-55 785.5,-55 785.5,-74"/>
<text text-anchor="middle" x="688" y="-62" font-family="Helvetica,sans-Serif" font-size="10.00">AH/Settings/NamespaceSettings.hpp</text>
</a>
</g>
</g>
<!-- Node3&#45;&gt;Node13 -->
<g id="edge34_Node000003_Node000013" class="edge">
<title>Node3&#45;&gt;Node13</title>
<g id="a_edge34_Node000003_Node000013"><a xlink:title=" ">
<path fill="none" stroke="#63b8ff" d="M110.2,-549.87C60.54,-534.66 0,-504.96 0,-450.5 0,-450.5 0,-450.5 0,-173.5 0,-137.3 18.93,-126.78 51,-110 96.58,-86.16 410.84,-73.5 580.27,-68.34"/>
<polygon fill="#63b8ff" stroke="#63b8ff" points="580.58,-71.83 590.47,-68.03 580.37,-64.83 580.58,-71.83"/>
</a>
</g>
</g>
<!-- Node22 -->
<g id="Node000022" class="node">
<title>Node22</title>
<g id="a_Node000022"><a xlink:title=" ">
<polygon fill="#e0e0e0" stroke="#999999" points="216.5,-239 163.5,-239 163.5,-220 216.5,-220 216.5,-239"/>
<text text-anchor="middle" x="190" y="-227" font-family="Helvetica,sans-Serif" font-size="10.00">stdint.h</text>
</a>
</g>
</g>
<!-- Node3&#45;&gt;Node22 -->
<g id="edge35_Node000003_Node000022" class="edge">
<title>Node3&#45;&gt;Node22</title>
<g id="a_edge35_Node000003_Node000022"><a xlink:title=" ">
<path fill="none" stroke="#63b8ff" d="M162.55,-549.6C155.63,-540.07 147.34,-526.98 143,-514 135.21,-490.72 139.11,-483.52 138,-459 134.38,-379.1 166.98,-287.16 182.31,-248.8"/>
<polygon fill="#63b8ff" stroke="#63b8ff" points="185.75,-249.64 186.3,-239.06 179.27,-246.99 185.75,-249.64"/>
</a>
</g>
</g>
<!-- Node5 -->
<g id="Node000005" class="node">
<title>Node5</title>
<g id="a_Node000005"><a xlink:href="../../d1/d93/Error_8hpp.html" target="_top" xlink:title=" ">
<polygon fill="white" stroke="#666666" points="322,-459 218,-459 218,-440 322,-440 322,-459"/>
<text text-anchor="middle" x="270" y="-447" font-family="Helvetica,sans-Serif" font-size="10.00">AH/Error/Error.hpp</text>
</a>
</g>
</g>
<!-- Node4&#45;&gt;Node5 -->
<g id="edge4_Node000004_Node000005" class="edge">
<title>Node4&#45;&gt;Node5</title>
<g id="a_edge4_Node000004_Node000005"><a xlink:title=" ">
<path fill="none" stroke="#63b8ff" d="M260.82,-494.75C262.26,-487.8 264.32,-477.85 266.13,-469.13"/>
<polygon fill="#63b8ff" stroke="#63b8ff" points="269.61,-469.59 268.22,-459.09 262.76,-468.17 269.61,-469.59"/>
</a>
</g>
</g>
<!-- Node14 -->
<g id="Node000014" class="node">
<title>Node14</title>
<g id="a_Node000014"><a xlink:title=" ">
<polygon fill="#e0e0e0" stroke="#999999" points="167.5,-129 60.5,-129 60.5,-110 167.5,-110 167.5,-129"/>
<text text-anchor="middle" x="114" y="-117" font-family="Helvetica,sans-Serif" font-size="10.00">AH/STL/type_traits</text>
</a>
</g>
</g>
<!-- Node4&#45;&gt;Node14 -->
<g id="edge32_Node000004_Node000014" class="edge">
<title>Node4&#45;&gt;Node14</title>
<g id="a_edge32_Node000004_Node000014"><a xlink:title=" ">
<path fill="none" stroke="#63b8ff" d="M191.16,-498.42C160.08,-492.88 124.74,-481.64 100,-459 77.74,-438.63 76,-425.67 76,-395.5 76,-395.5 76,-395.5 76,-228.5 76,-195.02 92.45,-158.84 103.7,-138.01"/>
<polygon fill="#63b8ff" stroke="#63b8ff" points="106.87,-139.53 108.72,-129.1 100.76,-136.1 106.87,-139.53"/>
</a>
</g>
</g>
<!-- Node21 -->
<g id="Node000021" class="node">
<title>Node21</title>
<g id="a_Node000021"><a xlink:title=" ">
<polygon fill="#e0e0e0" stroke="#999999" points="874,-239 818,-239 818,-220 874,-220 874,-239"/>
<text text-anchor="middle" x="846" y="-227" font-family="Helvetica,sans-Serif" font-size="10.00">stddef.h</text>
</a>
</g>
</g>
<!-- Node4&#45;&gt;Node21 -->
<g id="edge33_Node000004_Node000021" class="edge">
<title>Node4&#45;&gt;Node21</title>
<g id="a_edge33_Node000004_Node000021"><a xlink:title=" ">
<path fill="none" stroke="#63b8ff" d="M326.59,-496.69C332.81,-496.11 339.02,-495.53 345,-495 395.4,-490.51 759.64,-490.8 799,-459 821.91,-440.49 818,-424.96 818,-395.5 818,-395.5 818,-395.5 818,-338.5 818,-306.02 830.01,-269.76 838.3,-248.6"/>
<polygon fill="#63b8ff" stroke="#63b8ff" points="841.57,-249.84 842.11,-239.26 835.09,-247.2 841.57,-249.84"/>
</a>
</g>
</g>
<!-- Node25 -->
<g id="Node000025" class="node">
<title>Node25</title>
<g id="a_Node000025"><a xlink:title=" ">
<polygon fill="#e0e0e0" stroke="#999999" points="296,-404 206,-404 206,-385 296,-385 296,-404"/>
<text text-anchor="middle" x="251" y="-392" font-family="Helvetica,sans-Serif" font-size="10.00">AH/STL/iterator</text>
</a>
</g>
</g>
<!-- Node4&#45;&gt;Node25 -->
<g id="edge31_Node000004_Node000025" class="edge">
<title>Node4&#45;&gt;Node25</title>
<g id="a_edge31_Node000004_Node000025"><a xlink:title=" ">
<path fill="none" stroke="#63b8ff" d="M243.57,-494.8C231.65,-487.11 216.04,-474.69 209,-459 201.04,-441.26 216.1,-422.94 230.35,-410.56"/>
<polygon fill="#63b8ff" stroke="#63b8ff" points="232.88,-413.01 238.47,-404.01 228.49,-407.57 232.88,-413.01"/>
</a>
</g>
</g>
<!-- Node6 -->
<g id="Node000006" class="node">
<title>Node6</title>
<g id="a_Node000006"><a xlink:href="../../df/dee/Debug_8hpp.html" target="_top" xlink:title=" ">
<polygon fill="white" stroke="#666666" points="633.5,-404 512.5,-404 512.5,-385 633.5,-385 633.5,-404"/>
<text text-anchor="middle" x="573" y="-392" font-family="Helvetica,sans-Serif" font-size="10.00">AH/Debug/Debug.hpp</text>
</a>
</g>
</g>
<!-- Node5&#45;&gt;Node6 -->
<g id="edge5_Node000005_Node000006" class="edge">
<title>Node5&#45;&gt;Node6</title>
<g id="a_edge5_Node000005_Node000006"><a xlink:title=" ">
<path fill="none" stroke="#63b8ff" d="M318.68,-439.98C371.94,-430.67 457.31,-415.74 514.25,-405.78"/>
<polygon fill="#63b8ff" stroke="#63b8ff" points="514.94,-409.21 524.19,-404.04 513.73,-402.31 514.94,-409.21"/>
</a>
</g>
</g>
<!-- Node7 -->
<g id="Node000007" class="node">
<title>Node7</title>
<g id="a_Node000007"><a xlink:href="../../dd/d80/PrintStream_8hpp.html" target="_top" xlink:title=" ">
<polygon fill="white" stroke="#666666" points="1095.5,-349 922.5,-349 922.5,-330 1095.5,-330 1095.5,-349"/>
<text text-anchor="middle" x="1009" y="-337" font-family="Helvetica,sans-Serif" font-size="10.00">AH/PrintStream/PrintStream.hpp</text>
</a>
</g>
</g>
<!-- Node6&#45;&gt;Node7 -->
<g id="edge6_Node000006_Node000007" class="edge">
<title>Node6&#45;&gt;Node7</title>
<g id="a_edge6_Node000006_Node000007"><a xlink:title=" ">
<path fill="none" stroke="#63b8ff" d="M633.62,-386.13C710.52,-376.78 843.36,-360.64 928.64,-350.27"/>
<polygon fill="#63b8ff" stroke="#63b8ff" points="929.29,-353.71 938.8,-349.03 928.45,-346.77 929.29,-353.71"/>
</a>
</g>
</g>
<!-- Node16 -->
<g id="Node000016" class="node">
<title>Node16</title>
<g id="a_Node000016"><a xlink:href="../../de/dd1/AH_2Settings_2SettingsWrapper_8hpp.html" target="_top" xlink:title=" ">
<polygon fill="white" stroke="#666666" points="571,-349 393,-349 393,-330 571,-330 571,-349"/>
<text text-anchor="middle" x="482" y="-337" font-family="Helvetica,sans-Serif" font-size="10.00">AH/Settings/SettingsWrapper.hpp</text>
</a>
</g>
</g>
<!-- Node6&#45;&gt;Node16 -->
<g id="edge18_Node000006_Node000016" class="edge">
<title>Node6&#45;&gt;Node16</title>
<g id="a_edge18_Node000006_Node000016"><a xlink:title=" ">
<path fill="none" stroke="#63b8ff" d="M553.26,-384.98C537.49,-376.84 515.83,-364.41 500.42,-354.76"/>
<polygon fill="#63b8ff" stroke="#63b8ff" points="502.04,-351.64 491.74,-349.17 498.25,-357.53 502.04,-351.64"/>
</a>
</g>
</g>
<!-- Node24 -->
<g id="Node000024" class="node">
<title>Node24</title>
<g id="a_Node000024"><a xlink:href="../../d7/d52/DebugVal_8hpp.html" target="_top" xlink:title=" ">
<polygon fill="white" stroke="#666666" points="673,-349 589,-349 589,-330 673,-330 673,-349"/>
<text text-anchor="middle" x="631" y="-337" font-family="Helvetica,sans-Serif" font-size="10.00">DebugVal.hpp</text>
</a>
</g>
</g>
<!-- Node6&#45;&gt;Node24 -->
<g id="edge30_Node000006_Node000024" class="edge">
<title>Node6&#45;&gt;Node24</title>
<g id="a_edge30_Node000006_Node000024"><a xlink:title=" ">
<path fill="none" stroke="#63b8ff" d="M582.32,-384.98C590.81,-377.23 603.56,-365.58 613.88,-356.14"/>
<polygon fill="#63b8ff" stroke="#63b8ff" points="616.49,-358.5 621.51,-349.17 611.77,-353.33 616.49,-358.5"/>
</a>
</g>
</g>
<!-- Node8 -->
<g id="Node000008" class="node">
<title>Node8</title>
<g id="a_Node000008"><a xlink:href="../../d6/ddf/Arduino-Wrapper_8h.html" target="_top" xlink:title=" ">
<polygon fill="white" stroke="#666666" points="1069,-184 945,-184 945,-165 1069,-165 1069,-184"/>
<text text-anchor="middle" x="1007" y="-172" font-family="Helvetica,sans-Serif" font-size="10.00">AH/Arduino&#45;Wrapper.h</text>
</a>
</g>
</g>
<!-- Node7&#45;&gt;Node8 -->
<g id="edge7_Node000007_Node000008" class="edge">
<title>Node7&#45;&gt;Node8</title>
<g id="a_edge7_Node000007_Node000008"><a xlink:title=" ">
<path fill="none" stroke="#63b8ff" d="M1008.89,-329.74C1008.58,-304.31 1007.67,-230.08 1007.24,-194.69"/>
<polygon fill="#63b8ff" stroke="#63b8ff" points="1010.73,-194.26 1007.11,-184.31 1003.73,-194.35 1010.73,-194.26"/>
</a>
</g>
</g>
<!-- Node7&#45;&gt;Node13 -->
<g id="edge16_Node000007_Node000013" class="edge">
<title>Node7&#45;&gt;Node13</title>
<g id="a_edge16_Node000007_Node000013"><a xlink:title=" ">
<path fill="none" stroke="#63b8ff" d="M1000.38,-329.9C980.3,-310 928.68,-259.45 883,-220 820.92,-166.39 743.64,-107.29 707.87,-80.36"/>
<polygon fill="#63b8ff" stroke="#63b8ff" points="709.8,-77.43 699.7,-74.22 705.6,-83.03 709.8,-77.43"/>
</a>
</g>
</g>
<!-- Node15 -->
<g id="Node000015" class="node">
<title>Node15</title>
<g id="a_Node000015"><a xlink:title=" ">
<polygon fill="#e0e0e0" stroke="#999999" points="1213,-294 1035,-294 1035,-275 1213,-275 1213,-294"/>
<text text-anchor="middle" x="1124" y="-282" font-family="Helvetica,sans-Serif" font-size="10.00">Settings/NamespaceSettings.hpp</text>
</a>
</g>
</g>
<!-- Node7&#45;&gt;Node15 -->
<g id="edge17_Node000007_Node000015" class="edge">
<title>Node7&#45;&gt;Node15</title>
<g id="a_edge17_Node000007_Node000015"><a xlink:title=" ">
<path fill="none" stroke="#63b8ff" d="M1027.48,-329.98C1045.98,-321.46 1074.68,-308.23 1095.98,-298.41"/>
<polygon fill="#63b8ff" stroke="#63b8ff" points="1097.57,-301.53 1105.19,-294.17 1094.64,-295.18 1097.57,-301.53"/>
</a>
</g>
</g>
<!-- Node9 -->
<g id="Node000009" class="node">
<title>Node9</title>
<g id="a_Node000009"><a xlink:href="../../d7/d79/MinMaxFix_8hpp.html" target="_top" xlink:title=" ">
<polygon fill="white" stroke="#666666" points="1027,-129 891,-129 891,-110 1027,-110 1027,-129"/>
<text text-anchor="middle" x="959" y="-117" font-family="Helvetica,sans-Serif" font-size="10.00">AH/Math/MinMaxFix.hpp</text>
</a>
</g>
</g>
<!-- Node8&#45;&gt;Node9 -->
<g id="edge8_Node000008_Node000009" class="edge">
<title>Node8&#45;&gt;Node9</title>
<g id="a_edge8_Node000008_Node000009"><a xlink:title=" ">
<path fill="none" stroke="#63b8ff" d="M999.07,-164.75C992.15,-157.11 981.93,-145.82 973.55,-136.56"/>
<polygon fill="#63b8ff" stroke="#63b8ff" points="976.09,-134.15 966.78,-129.09 970.9,-138.85 976.09,-134.15"/>
</a>
</g>
</g>
<!-- Node12 -->
<g id="Node000012" class="node">
<title>Node12</title>
<g id="a_Node000012"><a xlink:title=" ">
<polygon fill="#e0e0e0" stroke="#999999" points="1029.5,-19 966.5,-19 966.5,0 1029.5,0 1029.5,-19"/>
<text text-anchor="middle" x="998" y="-7" font-family="Helvetica,sans-Serif" font-size="10.00">Arduino.h</text>
</a>
</g>
</g>
<!-- Node8&#45;&gt;Node12 -->
<g id="edge15_Node000008_Node000012" class="edge">
<title>Node8&#45;&gt;Node12</title>
<g id="a_edge15_Node000008_Node000012"><a xlink:title=" ">
<path fill="none" stroke="#63b8ff" d="M1014.94,-164.75C1022.03,-156.3 1031.9,-142.79 1036,-129 1045.37,-97.47 1047.38,-85.86 1036,-55 1031.94,-43.99 1023.81,-33.86 1016.1,-26.05"/>
<polygon fill="#63b8ff" stroke="#63b8ff" points="1018.39,-23.39 1008.71,-19.07 1013.58,-28.48 1018.39,-23.39"/>
</a>
</g>
</g>
<!-- Node8&#45;&gt;Node14 -->
<g id="edge14_Node000008_Node000014" class="edge">
<title>Node8&#45;&gt;Node14</title>
<g id="a_edge14_Node000008_Node000014"><a xlink:title=" ">
<path fill="none" stroke="#63b8ff" d="M944.91,-169.82C781.81,-160.13 342.44,-134.06 177.62,-124.28"/>
<polygon fill="#63b8ff" stroke="#63b8ff" points="177.82,-120.78 167.63,-123.68 177.41,-127.77 177.82,-120.78"/>
</a>
</g>
</g>
<!-- Node10 -->
<g id="Node000010" class="node">
<title>Node10</title>
<g id="a_Node000010"><a xlink:href="../../d6/d3b/FixArduinoMacros_8hpp.html" target="_top" xlink:title=" ">
<polygon fill="white" stroke="#666666" points="1027,-74 857,-74 857,-55 1027,-55 1027,-74"/>
<text text-anchor="middle" x="942" y="-62" font-family="Helvetica,sans-Serif" font-size="10.00">AH/Math/FixArduinoMacros.hpp</text>
</a>
</g>
</g>
<!-- Node9&#45;&gt;Node10 -->
<g id="edge9_Node000009_Node000010" class="edge">
<title>Node9&#45;&gt;Node10</title>
<g id="a_edge9_Node000009_Node000010"><a xlink:title=" ">
<path fill="none" stroke="#63b8ff" d="M956.19,-109.75C953.94,-102.72 950.7,-92.62 947.88,-83.84"/>
<polygon fill="#63b8ff" stroke="#63b8ff" points="951.14,-82.54 944.75,-74.09 944.48,-84.68 951.14,-82.54"/>
</a>
</g>
</g>
<!-- Node9&#45;&gt;Node13 -->
<g id="edge12_Node000009_Node000013" class="edge">
<title>Node9&#45;&gt;Node13</title>
<g id="a_edge12_Node000009_Node000013"><a xlink:title=" ">
<path fill="none" stroke="#63b8ff" d="M915.46,-109.98C868.19,-100.74 792.65,-85.97 741.72,-76.01"/>
<polygon fill="#63b8ff" stroke="#63b8ff" points="742.37,-72.57 731.88,-74.08 741.02,-79.44 742.37,-72.57"/>
</a>
</g>
</g>
<!-- Node11 -->
<g id="Node000011" class="node">
<title>Node11</title>
<g id="a_Node000011"><a xlink:href="../../d1/d65/Warnings_8hpp.html" target="_top" xlink:title=" ">
<polygon fill="white" stroke="#666666" points="908.5,-19 765.5,-19 765.5,0 908.5,0 908.5,-19"/>
<text text-anchor="middle" x="837" y="-7" font-family="Helvetica,sans-Serif" font-size="10.00">AH/Settings/Warnings.hpp</text>
</a>
</g>
</g>
<!-- Node10&#45;&gt;Node11 -->
<g id="edge10_Node000010_Node000011" class="edge">
<title>Node10&#45;&gt;Node11</title>
<g id="a_edge10_Node000010_Node000011"><a xlink:title=" ">
<path fill="none" stroke="#63b8ff" d="M925.13,-54.98C908.39,-46.54 882.5,-33.47 863.11,-23.68"/>
<polygon fill="#63b8ff" stroke="#63b8ff" points="864.68,-20.55 854.18,-19.17 861.53,-26.8 864.68,-20.55"/>
</a>
</g>
</g>
<!-- Node10&#45;&gt;Node12 -->
<g id="edge11_Node000010_Node000012" class="edge">
<title>Node10&#45;&gt;Node12</title>
<g id="a_edge11_Node000010_Node000012"><a xlink:title=" ">
<path fill="none" stroke="#63b8ff" d="M951,-54.98C959.19,-47.23 971.51,-35.58 981.47,-26.14"/>
<polygon fill="#63b8ff" stroke="#63b8ff" points="983.98,-28.59 988.84,-19.17 979.17,-23.5 983.98,-28.59"/>
</a>
</g>
</g>
<!-- Node13&#45;&gt;Node11 -->
<g id="edge13_Node000013_Node000011" class="edge">
<title>Node13&#45;&gt;Node11</title>
<g id="a_edge13_Node000013_Node000011"><a xlink:title=" ">
<path fill="none" stroke="#63b8ff" d="M711.94,-54.98C736.56,-46.23 775.12,-32.51 802.92,-22.62"/>
<polygon fill="#63b8ff" stroke="#63b8ff" points="804.38,-25.82 812.62,-19.17 802.03,-19.22 804.38,-25.82"/>
</a>
</g>
</g>
<!-- Node16&#45;&gt;Node6 -->
<g id="edge29_Node000016_Node000006" class="edge">
<title>Node16&#45;&gt;Node6</title>
<g id="a_edge29_Node000016_Node000006"><a xlink:title=" ">
<path fill="none" stroke="#63b8ff" d="M502.04,-349.17C517.89,-357.37 539.54,-369.81 554.87,-379.42"/>
<polygon fill="#63b8ff" stroke="#63b8ff" points="553.19,-382.51 563.49,-384.98 556.99,-376.62 553.19,-382.51"/>
</a>
</g>
</g>
<!-- Node16&#45;&gt;Node13 -->
<g id="edge19_Node000016_Node000013" class="edge">
<title>Node16&#45;&gt;Node13</title>
<g id="a_edge19_Node000016_Node000013"><a xlink:title=" ">
<path fill="none" stroke="#63b8ff" d="M446.49,-329.89C426.15,-323.25 401.63,-312.05 386,-294 366.71,-271.73 367,-259.96 367,-230.5 367,-230.5 367,-230.5 367,-173.5 367,-121.95 517.62,-90.34 612.51,-75.55"/>
<polygon fill="#63b8ff" stroke="#63b8ff" points="613.3,-78.97 622.65,-74 612.24,-72.05 613.3,-78.97"/>
</a>
</g>
</g>
<!-- Node17 -->
<g id="Node000017" class="node">
<title>Node17</title>
<g id="a_Node000017"><a xlink:href="../../d5/d4f/AH_2Settings_2Settings_8hpp.html" target="_top" xlink:title="All user settings and debugging options can be changed here.">
<polygon fill="white" stroke="#666666" points="663.5,-294 586.5,-294 586.5,-275 663.5,-275 663.5,-294"/>
<text text-anchor="middle" x="625" y="-282" font-family="Helvetica,sans-Serif" font-size="10.00">Settings.hpp</text>
</a>
</g>
</g>
<!-- Node16&#45;&gt;Node17 -->
<g id="edge20_Node000016_Node000017" class="edge">
<title>Node16&#45;&gt;Node17</title>
<g id="a_edge20_Node000016_Node000017"><a xlink:title=" ">
<path fill="none" stroke="#63b8ff" d="M504.98,-329.98C528.5,-321.27 565.29,-307.63 591.94,-297.75"/>
<polygon fill="#63b8ff" stroke="#63b8ff" points="593.45,-300.93 601.61,-294.17 591.01,-294.36 593.45,-300.93"/>
</a>
</g>
</g>
<!-- Node23 -->
<g id="Node000023" class="node">
<title>Node23</title>
<g id="a_Node000023"><a xlink:href="../../d9/d98/TeensyUSBTypes_8hpp.html" target="_top" xlink:title=" ">
<polygon fill="white" stroke="#666666" points="568.5,-294 395.5,-294 395.5,-275 568.5,-275 568.5,-294"/>
<text text-anchor="middle" x="482" y="-282" font-family="Helvetica,sans-Serif" font-size="10.00">AH/Teensy/TeensyUSBTypes.hpp</text>
</a>
</g>
</g>
<!-- Node16&#45;&gt;Node23 -->
<g id="edge28_Node000016_Node000023" class="edge">
<title>Node16&#45;&gt;Node23</title>
<g id="a_edge28_Node000016_Node000023"><a xlink:title=" ">
<path fill="none" stroke="#63b8ff" d="M482,-329.75C482,-322.8 482,-312.85 482,-304.13"/>
<polygon fill="#63b8ff" stroke="#63b8ff" points="485.5,-304.09 482,-294.09 478.5,-304.09 485.5,-304.09"/>
</a>
</g>
</g>
<!-- Node18 -->
<g id="Node000018" class="node">
<title>Node18</title>
<g id="a_Node000018"><a xlink:href="../../dc/d50/Frequency_8hpp.html" target="_top" xlink:title=" ">
<polygon fill="white" stroke="#666666" points="694,-184 560,-184 560,-165 694,-165 694,-184"/>
<text text-anchor="middle" x="627" y="-172" font-family="Helvetica,sans-Serif" font-size="10.00">AH/Types/Frequency.hpp</text>
</a>
</g>
</g>
<!-- Node17&#45;&gt;Node18 -->
<g id="edge21_Node000017_Node000018" class="edge">
<title>Node17&#45;&gt;Node18</title>
<g id="a_edge21_Node000017_Node000018"><a xlink:title=" ">
<path fill="none" stroke="#63b8ff" d="M614.68,-274.88C601.84,-263.04 582.47,-240.84 590,-220 593.94,-209.09 601.86,-198.96 609.36,-191.14"/>
<polygon fill="#63b8ff" stroke="#63b8ff" points="611.84,-193.61 616.56,-184.13 606.95,-188.6 611.84,-193.61"/>
</a>
</g>
</g>
<!-- Node19 -->
<g id="Node000019" class="node">
<title>Node19</title>
<g id="a_Node000019"><a xlink:href="../../d7/d7c/ADCConfig_8hpp.html" target="_top" xlink:title="This file contains the platform&#45;specific ADC resolutions.">
<polygon fill="white" stroke="#666666" points="756.5,-239 599.5,-239 599.5,-220 756.5,-220 756.5,-239"/>
<text text-anchor="middle" x="678" y="-227" font-family="Helvetica,sans-Serif" font-size="10.00">AH/Hardware/ADCConfig.hpp</text>
</a>
</g>
</g>
<!-- Node17&#45;&gt;Node19 -->
<g id="edge23_Node000017_Node000019" class="edge">
<title>Node17&#45;&gt;Node19</title>
<g id="a_edge23_Node000017_Node000019"><a xlink:title=" ">
<path fill="none" stroke="#63b8ff" d="M633.75,-274.75C641.47,-267.03 652.9,-255.6 662.22,-246.28"/>
<polygon fill="#63b8ff" stroke="#63b8ff" points="664.81,-248.64 669.41,-239.09 659.86,-243.69 664.81,-248.64"/>
</a>
</g>
</g>
<!-- Node20 -->
<g id="Node000020" class="node">
<title>Node20</title>
<g id="a_Node000020"><a xlink:title=" ">
<polygon fill="#e0e0e0" stroke="#999999" points="542.5,-239 489.5,-239 489.5,-220 542.5,-220 542.5,-239"/>
<text text-anchor="middle" x="516" y="-227" font-family="Helvetica,sans-Serif" font-size="10.00">limits.h</text>
</a>
</g>
</g>
<!-- Node17&#45;&gt;Node20 -->
<g id="edge25_Node000017_Node000020" class="edge">
<title>Node17&#45;&gt;Node20</title>
<g id="a_edge25_Node000017_Node000020"><a xlink:title=" ">
<path fill="none" stroke="#63b8ff" d="M607.49,-274.98C590.03,-266.5 562.99,-253.35 542.83,-243.54"/>
<polygon fill="#63b8ff" stroke="#63b8ff" points="544.36,-240.4 533.83,-239.17 541.29,-246.69 544.36,-240.4"/>
</a>
</g>
</g>
<!-- Node17&#45;&gt;Node21 -->
<g id="edge26_Node000017_Node000021" class="edge">
<title>Node17&#45;&gt;Node21</title>
<g id="a_edge26_Node000017_Node000021"><a xlink:title=" ">
<path fill="none" stroke="#63b8ff" d="M660.51,-274.98C700.89,-265.3 766.57,-249.55 807.97,-239.62"/>
<polygon fill="#63b8ff" stroke="#63b8ff" points="809.03,-242.96 817.94,-237.23 807.4,-236.16 809.03,-242.96"/>
</a>
</g>
</g>
<!-- Node17&#45;&gt;Node22 -->
<g id="edge27_Node000017_Node000022" class="edge">
<title>Node17&#45;&gt;Node22</title>
<g id="a_edge27_Node000017_Node000022"><a xlink:title=" ">
<path fill="none" stroke="#63b8ff" d="M586.26,-276.43C583.13,-275.92 580.01,-275.44 577,-275 449,-256.33 296.24,-240.72 227.17,-234.01"/>
<polygon fill="#63b8ff" stroke="#63b8ff" points="227.11,-230.49 216.82,-233.02 226.43,-237.46 227.11,-230.49"/>
</a>
</g>
</g>
<!-- Node18&#45;&gt;Node13 -->
<g id="edge22_Node000018_Node000013" class="edge">
<title>Node18&#45;&gt;Node13</title>
<g id="a_edge22_Node000018_Node000013"><a xlink:title=" ">
<path fill="none" stroke="#63b8ff" d="M631.99,-164.66C642.05,-146.85 664.92,-106.37 678.11,-83.01"/>
<polygon fill="#63b8ff" stroke="#63b8ff" points="681.24,-84.59 683.11,-74.16 675.14,-81.14 681.24,-84.59"/>
</a>
</g>
</g>
<!-- Node19&#45;&gt;Node8 -->
<g id="edge24_Node000019_Node000008" class="edge">
<title>Node19&#45;&gt;Node8</title>
<g id="a_edge24_Node000019_Node000008"><a xlink:title=" ">
<path fill="none" stroke="#63b8ff" d="M730.86,-219.98C788.93,-210.63 882.15,-195.61 943.98,-185.65"/>
<polygon fill="#63b8ff" stroke="#63b8ff" points="944.68,-189.08 954,-184.04 943.57,-182.17 944.68,-189.08"/>
</a>
</g>
</g>
<!-- Node27&#45;&gt;Node3 -->
<g id="edge45_Node000027_Node000003" class="edge">
<title>Node27&#45;&gt;Node3</title>
<g id="a_edge45_Node000027_Node000003"><a xlink:title=" ">
<path fill="none" stroke="#63b8ff" d="M405.88,-616.43C365.48,-607.64 299.81,-593.36 248.65,-582.24"/>
<polygon fill="#63b8ff" stroke="#63b8ff" points="249.14,-578.76 238.63,-580.05 247.66,-585.6 249.14,-578.76"/>
</a>
</g>
</g>
<!-- Node27&#45;&gt;Node4 -->
<g id="edge44_Node000027_Node000004" class="edge">
<title>Node27&#45;&gt;Node4</title>
<g id="a_edge44_Node000027_Node000004"><a xlink:title=" ">
<path fill="none" stroke="#63b8ff" d="M433.5,-615.98C416.92,-601.37 381.29,-571.08 348,-550 328.91,-537.92 306.1,-526.56 288.35,-518.35"/>
<polygon fill="#63b8ff" stroke="#63b8ff" points="289.62,-515.08 279.06,-514.13 286.72,-521.45 289.62,-515.08"/>
</a>
</g>
</g>
<!-- Node27&#45;&gt;Node15 -->
<g id="edge47_Node000027_Node000015" class="edge">
<title>Node27&#45;&gt;Node15</title>
<g id="a_edge47_Node000027_Node000015"><a xlink:title=" ">
<path fill="none" stroke="#63b8ff" d="M480.23,-623.91C559.7,-622.02 751.48,-613.98 908,-580 1007.24,-558.46 1124,-607.05 1124,-505.5 1124,-505.5 1124,-505.5 1124,-393.5 1124,-362.19 1124,-325.77 1124,-304.23"/>
<polygon fill="#63b8ff" stroke="#63b8ff" points="1127.5,-304.18 1124,-294.18 1120.5,-304.18 1127.5,-304.18"/>
</a>
</g>
</g>
<!-- Node27&#45;&gt;Node21 -->
<g id="edge48_Node000027_Node000021" class="edge">
<title>Node27&#45;&gt;Node21</title>
<g id="a_edge48_Node000027_Node000021"><a xlink:title=" ">
<path fill="none" stroke="#63b8ff" d="M480.29,-622.66C588.34,-616.32 894,-590.83 894,-505.5 894,-505.5 894,-505.5 894,-338.5 894,-303.8 873.06,-267.82 858.84,-247.39"/>
<polygon fill="#63b8ff" stroke="#63b8ff" points="861.58,-245.21 852.88,-239.16 855.91,-249.31 861.58,-245.21"/>
</a>
</g>
</g>
<!-- Node27&#45;&gt;Node22 -->
<g id="edge49_Node000027_Node000022" class="edge">
<title>Node27&#45;&gt;Node22</title>
<g id="a_edge49_Node000027_Node000022"><a xlink:title=" ">
<path fill="none" stroke="#63b8ff" d="M421,-615.95C359.38,-591.91 189.12,-524.74 182,-514 153.19,-470.51 177.55,-304.78 186.8,-248.97"/>
<polygon fill="#63b8ff" stroke="#63b8ff" points="190.26,-249.52 188.48,-239.07 183.36,-248.35 190.26,-249.52"/>
</a>
</g>
</g>
<!-- Node28 -->
<g id="Node000028" class="node">
<title>Node28</title>
<g id="a_Node000028"><a xlink:href="../../d2/dbc/Cable_8hpp.html" target="_top" xlink:title=" ">
<polygon fill="white" stroke="#666666" points="1312.5,-349 1247.5,-349 1247.5,-330 1312.5,-330 1312.5,-349"/>
<text text-anchor="middle" x="1280" y="-337" font-family="Helvetica,sans-Serif" font-size="10.00">Cable.hpp</text>
</a>
</g>
</g>
<!-- Node27&#45;&gt;Node28 -->
<g id="edge38_Node000027_Node000028" class="edge">
<title>Node27&#45;&gt;Node28</title>
<g id="a_edge38_Node000027_Node000028"><a xlink:title=" ">
<path fill="none" stroke="#63b8ff" d="M480.13,-624.33C619.27,-623.42 1104.74,-617.55 1162,-580 1193.08,-559.62 1200,-542.67 1200,-505.5 1200,-505.5 1200,-505.5 1200,-448.5 1200,-408.81 1235.32,-374.18 1259.03,-355.41"/>
<polygon fill="#63b8ff" stroke="#63b8ff" points="1261.31,-358.07 1267.15,-349.23 1257.07,-352.5 1261.31,-358.07"/>
</a>
</g>
</g>
<!-- Node29 -->
<g id="Node000029" class="node">
<title>Node29</title>
<g id="a_Node000029"><a xlink:href="../../d7/d42/Channel_8hpp.html" target="_top" xlink:title=" ">
<polygon fill="white" stroke="#666666" points="1229.5,-349 1152.5,-349 1152.5,-330 1229.5,-330 1229.5,-349"/>
<text text-anchor="middle" x="1191" y="-337" font-family="Helvetica,sans-Serif" font-size="10.00">Channel.hpp</text>
</a>
</g>
</g>
<!-- Node27&#45;&gt;Node29 -->
<g id="edge41_Node000027_Node000029" class="edge">
<title>Node27&#45;&gt;Node29</title>
<g id="a_edge41_Node000027_Node000029"><a xlink:title=" ">
<path fill="none" stroke="#63b8ff" d="M480.02,-624.53C616.43,-624.3 1085.89,-620.57 1138,-580 1165.45,-558.63 1162,-540.29 1162,-505.5 1162,-505.5 1162,-505.5 1162,-448.5 1162,-415.95 1174.44,-379.71 1183.03,-358.57"/>
<polygon fill="#63b8ff" stroke="#63b8ff" points="1186.3,-359.82 1186.97,-349.25 1179.85,-357.09 1186.3,-359.82"/>
</a>
</g>
</g>
<!-- Node30 -->
<g id="Node000030" class="node">
<title>Node30</title>
<g id="a_Node000030"><a xlink:title=" ">
<polygon fill="#e0e0e0" stroke="#999999" points="1310,-574.5 1228,-574.5 1228,-555.5 1310,-555.5 1310,-574.5"/>
<text text-anchor="middle" x="1269" y="-562.5" font-family="Helvetica,sans-Serif" font-size="10.00">AH/STL/limits</text>
</a>
</g>
</g>
<!-- Node27&#45;&gt;Node30 -->
<g id="edge46_Node000027_Node000030" class="edge">
<title>Node27&#45;&gt;Node30</title>
<g id="a_edge46_Node000027_Node000030"><a xlink:title=" ">
<path fill="none" stroke="#63b8ff" d="M480.18,-624.87C591.94,-625.43 934.42,-623.24 1214,-580 1219.16,-579.2 1224.55,-578.13 1229.84,-576.94"/>
<polygon fill="#63b8ff" stroke="#63b8ff" points="1230.91,-580.28 1239.81,-574.54 1229.27,-573.48 1230.91,-580.28"/>
</a>
</g>
</g>
<!-- Node28&#45;&gt;Node8 -->
<g id="edge39_Node000028_Node000008" class="edge">
<title>Node28&#45;&gt;Node8</title>
<g id="a_edge39_Node000028_Node000008"><a xlink:title=" ">
<path fill="none" stroke="#63b8ff" d="M1276.17,-329.88C1265.76,-307.58 1234.65,-247.77 1189,-220 1155.99,-199.92 1114.44,-188.89 1079.37,-182.84"/>
<polygon fill="#63b8ff" stroke="#63b8ff" points="1079.62,-179.34 1069.19,-181.19 1078.5,-186.25 1079.62,-179.34"/>
</a>
</g>
</g>
<!-- Node28&#45;&gt;Node15 -->
<g id="edge40_Node000028_Node000015" class="edge">
<title>Node28&#45;&gt;Node15</title>
<g id="a_edge40_Node000028_Node000015"><a xlink:title=" ">
<path fill="none" stroke="#63b8ff" d="M1254.94,-329.98C1228.97,-321.16 1188.19,-307.31 1159.04,-297.41"/>
<polygon fill="#63b8ff" stroke="#63b8ff" points="1159.85,-293.99 1149.26,-294.08 1157.6,-300.61 1159.85,-293.99"/>
</a>
</g>
</g>
<!-- Node29&#45;&gt;Node8 -->
<g id="edge42_Node000029_Node000008" class="edge">
<title>Node29&#45;&gt;Node8</title>
<g id="a_edge42_Node000029_Node000008"><a xlink:title=" ">
<path fill="none" stroke="#63b8ff" d="M1200.72,-329.95C1213.73,-317.44 1233.89,-293.61 1222,-275 1189.19,-223.67 1122.37,-198.42 1071.88,-186.27"/>
<polygon fill="#63b8ff" stroke="#63b8ff" points="1072.54,-182.83 1062.01,-184.01 1070.98,-189.65 1072.54,-182.83"/>
</a>
</g>
</g>
<!-- Node29&#45;&gt;Node15 -->
<g id="edge43_Node000029_Node000015" class="edge">
<title>Node29&#45;&gt;Node15</title>
<g id="a_edge43_Node000029_Node000015"><a xlink:title=" ">
<path fill="none" stroke="#63b8ff" d="M1180.24,-329.98C1170.23,-322.07 1155.11,-310.11 1143.07,-300.58"/>
<polygon fill="#63b8ff" stroke="#63b8ff" points="1144.97,-297.63 1134.96,-294.17 1140.63,-303.12 1144.97,-297.63"/>
</a>
</g>
</g>
<!-- Node31&#45;&gt;Node27 -->
<g id="edge63_Node000031_Node000027" class="edge">
<title>Node31&#45;&gt;Node27</title>
<g id="a_edge63_Node000031_Node000027"><a xlink:title=" ">
<path fill="none" stroke="#63b8ff" d="M355.95,-725.76C357.59,-710.83 362.01,-687.32 374,-671 383.87,-657.56 399.13,-647.11 412.79,-639.72"/>
<polygon fill="#63b8ff" stroke="#63b8ff" points="414.57,-642.74 421.91,-635.1 411.41,-636.5 414.57,-642.74"/>
</a>
</g>
</g>
<!-- Node32 -->
<g id="Node000032" class="node">
<title>Node32</title>
<g id="a_Node000032"><a xlink:href="../../d4/d93/Updatable_8hpp.html" target="_top" xlink:title=" ">
<polygon fill="white" stroke="#666666" points="515.5,-514 354.5,-514 354.5,-495 515.5,-495 515.5,-514"/>
<text text-anchor="middle" x="435" y="-502" font-family="Helvetica,sans-Serif" font-size="10.00">AH/Containers/Updatable.hpp</text>
</a>
</g>
</g>
<!-- Node31&#45;&gt;Node32 -->
<g id="edge51_Node000031_Node000032" class="edge">
<title>Node31&#45;&gt;Node32</title>
<g id="a_edge51_Node000031_Node000032"><a xlink:title=" ">
<path fill="none" stroke="#63b8ff" d="M354.87,-725.76C355.05,-711.64 356.2,-689.51 361,-671 375.69,-614.31 408.12,-552.6 424.74,-523.11"/>
<polygon fill="#63b8ff" stroke="#63b8ff" points="427.97,-524.51 429.9,-514.09 421.9,-521.03 427.97,-524.51"/>
</a>
</g>
</g>
<!-- Node37 -->
<g id="Node000037" class="node">
<title>Node37</title>
<g id="a_Node000037"><a xlink:href="../../db/dd6/MIDIAddress_8hpp.html" target="_top" xlink:title=" ">
<polygon fill="white" stroke="#666666" points="502.5,-690 383.5,-690 383.5,-671 502.5,-671 502.5,-690"/>
<text text-anchor="middle" x="443" y="-678" font-family="Helvetica,sans-Serif" font-size="10.00">Def/MIDIAddress.hpp</text>
</a>
</g>
</g>
<!-- Node31&#45;&gt;Node37 -->
<g id="edge64_Node000031_Node000037" class="edge">
<title>Node31&#45;&gt;Node37</title>
<g id="a_edge64_Node000031_Node000037"><a xlink:title=" ">
<path fill="none" stroke="#63b8ff" d="M376.3,-725.84C390.07,-716.68 407.93,-704.82 421.7,-695.66"/>
<polygon fill="#63b8ff" stroke="#63b8ff" points="423.68,-698.55 430.07,-690.09 419.81,-692.72 423.68,-698.55"/>
</a>
</g>
</g>
<!-- Node32&#45;&gt;Node5 -->
<g id="edge58_Node000032_Node000005" class="edge">
<title>Node32&#45;&gt;Node5</title>
<g id="a_edge58_Node000032_Node000005"><a xlink:title=" ">
<path fill="none" stroke="#63b8ff" d="M408.49,-494.98C380.79,-486.09 337.14,-472.07 306.26,-462.15"/>
<polygon fill="#63b8ff" stroke="#63b8ff" points="307.31,-458.81 296.72,-459.08 305.17,-465.47 307.31,-458.81"/>
</a>
</g>
</g>
<!-- Node32&#45;&gt;Node14 -->
<g id="edge59_Node000032_Node000014" class="edge">
<title>Node32&#45;&gt;Node14</title>
<g id="a_edge59_Node000032_Node000014"><a xlink:title=" ">
<path fill="none" stroke="#63b8ff" d="M369.65,-495C275.8,-480.93 114,-448.93 114,-395.5 114,-395.5 114,-395.5 114,-228.5 114,-197.19 114,-160.77 114,-139.23"/>
<polygon fill="#63b8ff" stroke="#63b8ff" points="117.5,-139.18 114,-129.18 110.5,-139.18 117.5,-139.18"/>
</a>
</g>
</g>
<!-- Node32&#45;&gt;Node16 -->
<g id="edge61_Node000032_Node000016" class="edge">
<title>Node32&#45;&gt;Node16</title>
<g id="a_edge61_Node000032_Node000016"><a xlink:title=" ">
<path fill="none" stroke="#63b8ff" d="M413.48,-494.97C390.24,-484.32 357.93,-464.49 369,-440 386.89,-400.41 429.18,-370.28 456.65,-354.02"/>
<polygon fill="#63b8ff" stroke="#63b8ff" points="458.4,-357.05 465.34,-349.05 454.92,-350.98 458.4,-357.05"/>
</a>
</g>
</g>
<!-- Node32&#45;&gt;Node21 -->
<g id="edge62_Node000032_Node000021" class="edge">
<title>Node32&#45;&gt;Node21</title>
<g id="a_edge62_Node000032_Node000021"><a xlink:title=" ">
<path fill="none" stroke="#63b8ff" d="M515.56,-504.13C617.11,-503.32 784.22,-496.13 832,-459 855.82,-440.49 856,-425.67 856,-395.5 856,-395.5 856,-395.5 856,-338.5 856,-307.06 851.75,-270.68 848.79,-249.19"/>
<polygon fill="#63b8ff" stroke="#63b8ff" points="852.23,-248.56 847.35,-239.15 845.3,-249.55 852.23,-248.56"/>
</a>
</g>
</g>
<!-- Node33 -->
<g id="Node000033" class="node">
<title>Node33</title>
<g id="a_Node000033"><a xlink:href="../../d4/dba/CRTP_8hpp.html" target="_top" xlink:title=" ">
<polygon fill="white" stroke="#666666" points="512,-459 378,-459 378,-440 512,-440 512,-459"/>
<text text-anchor="middle" x="445" y="-447" font-family="Helvetica,sans-Serif" font-size="10.00">AH/Containers/CRTP.hpp</text>
</a>
</g>
</g>
<!-- Node32&#45;&gt;Node33 -->
<g id="edge52_Node000032_Node000033" class="edge">
<title>Node32&#45;&gt;Node33</title>
<g id="a_edge52_Node000032_Node000033"><a xlink:title=" ">
<path fill="none" stroke="#63b8ff" d="M436.65,-494.75C437.96,-487.8 439.84,-477.85 441.48,-469.13"/>
<polygon fill="#63b8ff" stroke="#63b8ff" points="444.96,-469.56 443.38,-459.09 438.09,-468.27 444.96,-469.56"/>
</a>
</g>
</g>
<!-- Node34 -->
<g id="Node000034" class="node">
<title>Node34</title>
<g id="a_Node000034"><a xlink:href="../../de/dd1/LinkedList_8hpp.html" target="_top" xlink:title=" ">
<polygon fill="white" stroke="#666666" points="790.5,-459 631.5,-459 631.5,-440 790.5,-440 790.5,-459"/>
<text text-anchor="middle" x="711" y="-447" font-family="Helvetica,sans-Serif" font-size="10.00">AH/Containers/LinkedList.hpp</text>
</a>
</g>
</g>
<!-- Node32&#45;&gt;Node34 -->
<g id="edge53_Node000032_Node000034" class="edge">
<title>Node32&#45;&gt;Node34</title>
<g id="a_edge53_Node000032_Node000034"><a xlink:title=" ">
<path fill="none" stroke="#63b8ff" d="M479.34,-494.98C527.49,-485.74 604.42,-470.97 656.29,-461.01"/>
<polygon fill="#63b8ff" stroke="#63b8ff" points="657.15,-464.41 666.31,-459.08 655.83,-457.53 657.15,-464.41"/>
</a>
</g>
</g>
<!-- Node36 -->
<g id="Node000036" class="node">
<title>Node36</title>
<g id="a_Node000036"><a xlink:title=" ">
<polygon fill="#e0e0e0" stroke="#999999" points="613.5,-459 530.5,-459 530.5,-440 613.5,-440 613.5,-459"/>
<text text-anchor="middle" x="572" y="-447" font-family="Helvetica,sans-Serif" font-size="10.00">AH/STL/utility</text>
</a>
</g>
</g>
<!-- Node32&#45;&gt;Node36 -->
<g id="edge60_Node000032_Node000036" class="edge">
<title>Node32&#45;&gt;Node36</title>
<g id="a_edge60_Node000032_Node000036"><a xlink:title=" ">
<path fill="none" stroke="#63b8ff" d="M457.01,-494.98C479.45,-486.3 514.48,-472.75 539.99,-462.88"/>
<polygon fill="#63b8ff" stroke="#63b8ff" points="541.52,-466.04 549.59,-459.17 539,-459.51 541.52,-466.04"/>
</a>
</g>
</g>
<!-- Node34&#45;&gt;Node6 -->
<g id="edge54_Node000034_Node000006" class="edge">
<title>Node34&#45;&gt;Node6</title>
<g id="a_edge54_Node000034_Node000006"><a xlink:title=" ">
<path fill="none" stroke="#63b8ff" d="M688.83,-439.98C666.23,-431.3 630.94,-417.75 605.25,-407.88"/>
<polygon fill="#63b8ff" stroke="#63b8ff" points="606.17,-404.49 595.58,-404.17 603.66,-411.02 606.17,-404.49"/>
</a>
</g>
</g>
<!-- Node34&#45;&gt;Node9 -->
<g id="edge55_Node000034_Node000009" class="edge">
<title>Node34&#45;&gt;Node9</title>
<g id="a_edge55_Node000034_Node000009"><a xlink:title=" ">
<path fill="none" stroke="#63b8ff" d="M719.2,-439.93C726.99,-431.4 738.58,-417.64 746,-404 787.3,-328.07 756.17,-288.42 809,-220 840.81,-178.8 894.72,-149.09 928.51,-133.36"/>
<polygon fill="#63b8ff" stroke="#63b8ff" points="930.23,-136.43 937.89,-129.12 927.34,-130.05 930.23,-136.43"/>
</a>
</g>
</g>
<!-- Node34&#45;&gt;Node25 -->
<g id="edge57_Node000034_Node000025" class="edge">
<title>Node34&#45;&gt;Node25</title>
<g id="a_edge57_Node000034_Node000025"><a xlink:title=" ">
<path fill="none" stroke="#63b8ff" d="M637.09,-439.98C544.69,-429.34 388.65,-411.36 306.08,-401.85"/>
<polygon fill="#63b8ff" stroke="#63b8ff" points="306.47,-398.37 296.14,-400.7 305.67,-405.32 306.47,-398.37"/>
</a>
</g>
</g>
<!-- Node35 -->
<g id="Node000035" class="node">
<title>Node35</title>
<g id="a_Node000035"><a xlink:title=" ">
<polygon fill="#e0e0e0" stroke="#999999" points="737.5,-404 684.5,-404 684.5,-385 737.5,-385 737.5,-404"/>
<text text-anchor="middle" x="711" y="-392" font-family="Helvetica,sans-Serif" font-size="10.00">stdlib.h</text>
</a>
</g>
</g>
<!-- Node34&#45;&gt;Node35 -->
<g id="edge56_Node000034_Node000035" class="edge">
<title>Node34&#45;&gt;Node35</title>
<g id="a_edge56_Node000034_Node000035"><a xlink:title=" ">
<path fill="none" stroke="#63b8ff" d="M711,-439.75C711,-432.8 711,-422.85 711,-414.13"/>
<polygon fill="#63b8ff" stroke="#63b8ff" points="714.5,-414.09 711,-404.09 707.5,-414.09 714.5,-414.09"/>
</a>
</g>
</g>
<!-- Node37&#45;&gt;Node27 -->
<g id="edge65_Node000037_Node000027" class="edge">
<title>Node37&#45;&gt;Node27</title>
<g id="a_edge65_Node000037_Node000027"><a xlink:title=" ">
<path fill="none" stroke="#63b8ff" d="M443,-670.75C443,-663.8 443,-653.85 443,-645.13"/>
<polygon fill="#63b8ff" stroke="#63b8ff" points="446.5,-645.09 443,-635.09 439.5,-645.09 446.5,-645.09"/>
</a>
</g>
</g>
</g>
</svg>
