<?xml version="1.0" encoding="UTF-8" standalone="no"?>
<!DOCTYPE svg PUBLIC "-//W3C//DTD SVG 1.1//EN"
 "http://www.w3.org/Graphics/SVG/1.1/DTD/svg11.dtd">
<!-- Generated by graphviz version 2.43.0 (0)
 -->
<!-- Title: Graphical Class Hierarchy Pages: 1 -->
<svg width="267pt" height="98pt"
 viewBox="0.00 0.00 267.00 97.50" xmlns="http://www.w3.org/2000/svg" xmlns:xlink="http://www.w3.org/1999/xlink">
<g id="graph0" class="graph" transform="scale(1 1) rotate(0) translate(4 93.5)">
<title>Graphical Class Hierarchy</title>
<!-- Node0 -->
<g id="Node000000" class="node">
<title>Node0</title>
<g id="a_Node000000"><a xlink:title=" ">
<polygon fill="#e0e0e0" stroke="#999999" points="68,-33.5 0,-33.5 0,-14.5 68,-14.5 68,-33.5"/>
<text text-anchor="middle" x="34" y="-21.5" font-family="Helvetica,sans-Serif" font-size="10.00">false_type</text>
</a>
</g>
</g>
<!-- Node1 -->
<g id="Node000001" class="node">
<title>Node1</title>
<g id="a_Node000001"><a xlink:href="de/d86/structhas__method__begin_3_01T_00_01void__t_3_01decltype_07std_1_1declval_3_01T_01_4_07_08_8begin_07_08_08_4_01_4.html" target="_top" xlink:title=" ">
<polygon fill="white" stroke="#666666" points="259,-89.5 104,-89.5 104,-48.5 259,-48.5 259,-89.5"/>
<text text-anchor="start" x="112" y="-77.5" font-family="Helvetica,sans-Serif" font-size="10.00">has_method_begin&lt; T,</text>
<text text-anchor="start" x="112" y="-66.5" font-family="Helvetica,sans-Serif" font-size="10.00"> void_t&lt; decltype(std</text>
<text text-anchor="middle" x="181.5" y="-55.5" font-family="Helvetica,sans-Serif" font-size="10.00">::declval&lt; T &gt;().begin())&gt; &gt;</text>
</a>
</g>
</g>
<!-- Node0&#45;&gt;Node1 -->
<g id="edge436_Node000000_Node000001" class="edge">
<title>Node0&#45;&gt;Node1</title>
<g id="a_edge436_Node000000_Node000001"><a xlink:title=" ">
<path fill="none" stroke="#63b8ff" d="M75.53,-36.53C87.49,-40.24 100.92,-44.39 114.06,-48.45"/>
<polygon fill="#63b8ff" stroke="#63b8ff" points="76.44,-33.15 65.86,-33.54 74.38,-39.84 76.44,-33.15"/>
</a>
</g>
</g>
<!-- Node3 -->
<g id="Node000003" class="node">
<title>Node3</title>
<g id="a_Node000003"><a xlink:href="d1/d58/structhas__method__begin.html" target="_top" xlink:title=" ">
<polygon fill="white" stroke="#666666" points="255.5,-30 107.5,-30 107.5,0 255.5,0 255.5,-30"/>
<text text-anchor="start" x="115.5" y="-18" font-family="Helvetica,sans-Serif" font-size="10.00">has_method_begin&lt; class,</text>
<text text-anchor="middle" x="181.5" y="-7" font-family="Helvetica,sans-Serif" font-size="10.00"> class &gt;</text>
</a>
</g>
</g>
<!-- Node0&#45;&gt;Node3 -->
<g id="edge437_Node000000_Node000003" class="edge">
<title>Node0&#45;&gt;Node3</title>
<g id="a_edge437_Node000000_Node000003"><a xlink:title=" ">
<path fill="none" stroke="#63b8ff" d="M78.05,-21.34C87.26,-20.77 97.24,-20.15 107.24,-19.53"/>
<polygon fill="#63b8ff" stroke="#63b8ff" points="77.78,-17.85 68.02,-21.96 78.21,-24.83 77.78,-17.85"/>
</a>
</g>
</g>
<!-- Node2 -->
<g id="Node000002" class="node">
<title>Node2</title>
<g id="a_Node000002"><a xlink:title=" ">
<polygon fill="#e0e0e0" stroke="#999999" points="65.5,-78.5 2.5,-78.5 2.5,-59.5 65.5,-59.5 65.5,-78.5"/>
<text text-anchor="middle" x="34" y="-66.5" font-family="Helvetica,sans-Serif" font-size="10.00">true_type</text>
</a>
</g>
</g>
<!-- Node2&#45;&gt;Node1 -->
<g id="edge438_Node000002_Node000001" class="edge">
<title>Node2&#45;&gt;Node1</title>
<g id="a_edge438_Node000002_Node000001"><a xlink:title=" ">
<path fill="none" stroke="#63b8ff" d="M75.52,-69C84.4,-69 94.09,-69 103.87,-69"/>
<polygon fill="#63b8ff" stroke="#63b8ff" points="75.5,-65.5 65.5,-69 75.5,-72.5 75.5,-65.5"/>
</a>
</g>
</g>
</g>
</svg>
