<?xml version="1.0" encoding="UTF-8" standalone="no"?>
<!DOCTYPE svg PUBLIC "-//W3C//DTD SVG 1.1//EN"
 "http://www.w3.org/Graphics/SVG/1.1/DTD/svg11.dtd">
<!-- Generated by graphviz version 2.43.0 (0)
 -->
<!-- Title: MCP23017Encoders&lt; WireType, EncoderPositionType, InterruptSafe &gt; Pages: 1 -->
<svg width="264pt" height="729pt"
 viewBox="0.00 0.00 263.50 729.00" xmlns="http://www.w3.org/2000/svg" xmlns:xlink="http://www.w3.org/1999/xlink">
<g id="graph0" class="graph" transform="scale(1 1) rotate(0) translate(4 725)">
<title>MCP23017Encoders&lt; WireType, EncoderPositionType, InterruptSafe &gt;</title>
<!-- Node1 -->
<g id="Node000001" class="node">
<title>Node1</title>
<g id="a_Node000001"><a xlink:title="Class for reading 8 rotary encoders using a MCP23017 I²C port expander.">
<polygon fill="#999999" stroke="transparent" points="182.5,-236 16.5,-236 16.5,0 182.5,0 182.5,-236"/>
<text text-anchor="start" x="21.5" y="-224" font-family="Helvetica,sans-Serif" font-size="10.00">MCP23017Encoders&lt; WireType,</text>
<text text-anchor="start" x="21.5" y="-213" font-family="Helvetica,sans-Serif" font-size="10.00"> EncoderPositionType, Interrupt</text>
<text text-anchor="start" x="82.5" y="-202" font-family="Helvetica,sans-Serif" font-size="10.00">Safe &gt;</text>
<text text-anchor="start" x="33" y="-187" font-family="Helvetica,sans-Serif" font-size="10.00">&#45;</text>
<text text-anchor="start" x="53.5" y="-187" font-family="Helvetica,sans-Serif" font-size="10.00">wire</text>
<text text-anchor="start" x="33" y="-172" font-family="Helvetica,sans-Serif" font-size="10.00">&#45;</text>
<text text-anchor="start" x="53.5" y="-172" font-family="Helvetica,sans-Serif" font-size="10.00">address</text>
<text text-anchor="start" x="33" y="-157" font-family="Helvetica,sans-Serif" font-size="10.00">&#45;</text>
<text text-anchor="start" x="53.5" y="-157" font-family="Helvetica,sans-Serif" font-size="10.00">I2C_BASE_ADDRESS</text>
<text text-anchor="start" x="30.5" y="-142" font-family="Helvetica,sans-Serif" font-size="10.00">+</text>
<text text-anchor="start" x="53.5" y="-142" font-family="Helvetica,sans-Serif" font-size="10.00">MCP23017Encoders()</text>
<text text-anchor="start" x="30.5" y="-127" font-family="Helvetica,sans-Serif" font-size="10.00">+</text>
<text text-anchor="start" x="53.5" y="-127" font-family="Helvetica,sans-Serif" font-size="10.00">begin()</text>
<text text-anchor="start" x="30.5" y="-112" font-family="Helvetica,sans-Serif" font-size="10.00">+</text>
<text text-anchor="start" x="53.5" y="-112" font-family="Helvetica,sans-Serif" font-size="10.00">update()</text>
<text text-anchor="start" x="30.5" y="-97" font-family="Helvetica,sans-Serif" font-size="10.00">+</text>
<text text-anchor="start" x="53.5" y="-97" font-family="Helvetica,sans-Serif" font-size="10.00">read()</text>
<text text-anchor="start" x="30.5" y="-82" font-family="Helvetica,sans-Serif" font-size="10.00">+</text>
<text text-anchor="start" x="53.5" y="-82" font-family="Helvetica,sans-Serif" font-size="10.00">readAndReset()</text>
<text text-anchor="start" x="30.5" y="-67" font-family="Helvetica,sans-Serif" font-size="10.00">+</text>
<text text-anchor="start" x="53.5" y="-67" font-family="Helvetica,sans-Serif" font-size="10.00">write()</text>
<text text-anchor="start" x="30.5" y="-52" font-family="Helvetica,sans-Serif" font-size="10.00">+</text>
<text text-anchor="start" x="53.5" y="-52" font-family="Helvetica,sans-Serif" font-size="10.00">operator[]()</text>
<text text-anchor="start" x="30.5" y="-37" font-family="Helvetica,sans-Serif" font-size="10.00">#</text>
<text text-anchor="start" x="53.5" y="-37" font-family="Helvetica,sans-Serif" font-size="10.00">writeI2C()</text>
<text text-anchor="start" x="30.5" y="-22" font-family="Helvetica,sans-Serif" font-size="10.00">#</text>
<text text-anchor="start" x="53.5" y="-22" font-family="Helvetica,sans-Serif" font-size="10.00">writeI2C()</text>
<text text-anchor="start" x="30.5" y="-7" font-family="Helvetica,sans-Serif" font-size="10.00">#</text>
<text text-anchor="start" x="53.5" y="-7" font-family="Helvetica,sans-Serif" font-size="10.00">readGPIO()</text>
<polygon fill="#666666" stroke="#666666" points="16.5,-197 16.5,-197 182.5,-197 182.5,-197 16.5,-197"/>
<polygon fill="#666666" stroke="#666666" points="16.5,-152 16.5,-152 51.5,-152 51.5,-152 16.5,-152"/>
<polygon fill="#666666" stroke="#666666" points="51.5,-152 51.5,-152 182.5,-152 182.5,-152 51.5,-152"/>
<polygon fill="none" stroke="#666666" points="16.5,0 16.5,-236 182.5,-236 182.5,0 16.5,0"/>
</a>
</g>
</g>
<!-- Node2 -->
<g id="Node000002" class="node">
<title>Node2</title>
<g id="a_Node000002"><a xlink:href="../../d7/de2/structAH_1_1ExtIO_1_1pin__t.html" target="_top" xlink:title="Type for storing pin numbers of Extended Input/Output elements.">
<polygon fill="white" stroke="transparent" points="87,-443 0,-443 0,-289 87,-289 87,-443"/>
<text text-anchor="start" x="31.5" y="-431" font-family="Helvetica,sans-Serif" font-size="10.00">pin_t</text>
<text text-anchor="start" x="4.5" y="-416" font-family="Helvetica,sans-Serif" font-size="10.00">+</text>
<text text-anchor="start" x="17.5" y="-416" font-family="Helvetica,sans-Serif" font-size="10.00">pin</text>
<text text-anchor="start" x="4.5" y="-401" font-family="Helvetica,sans-Serif" font-size="10.00">+</text>
<text text-anchor="start" x="17.5" y="-401" font-family="Helvetica,sans-Serif" font-size="10.00">pin_t()</text>
<text text-anchor="start" x="4.5" y="-386" font-family="Helvetica,sans-Serif" font-size="10.00">+</text>
<text text-anchor="start" x="17.5" y="-386" font-family="Helvetica,sans-Serif" font-size="10.00">pin_t()</text>
<text text-anchor="start" x="4.5" y="-371" font-family="Helvetica,sans-Serif" font-size="10.00">+</text>
<text text-anchor="start" x="17.5" y="-371" font-family="Helvetica,sans-Serif" font-size="10.00">operator+=()</text>
<text text-anchor="start" x="4.5" y="-356" font-family="Helvetica,sans-Serif" font-size="10.00">+</text>
<text text-anchor="start" x="17.5" y="-356" font-family="Helvetica,sans-Serif" font-size="10.00">operator++()</text>
<text text-anchor="start" x="4.5" y="-341" font-family="Helvetica,sans-Serif" font-size="10.00">+</text>
<text text-anchor="start" x="17.5" y="-341" font-family="Helvetica,sans-Serif" font-size="10.00">operator++()</text>
<text text-anchor="start" x="4.5" y="-326" font-family="Helvetica,sans-Serif" font-size="10.00">+</text>
<text text-anchor="start" x="17.5" y="-326" font-family="Helvetica,sans-Serif" font-size="10.00">operator&#45;=()</text>
<text text-anchor="start" x="4.5" y="-311" font-family="Helvetica,sans-Serif" font-size="10.00">+</text>
<text text-anchor="start" x="17.5" y="-311" font-family="Helvetica,sans-Serif" font-size="10.00">operator&#45;&#45;()</text>
<text text-anchor="start" x="4.5" y="-296" font-family="Helvetica,sans-Serif" font-size="10.00">+</text>
<text text-anchor="start" x="17.5" y="-296" font-family="Helvetica,sans-Serif" font-size="10.00">operator&#45;&#45;()</text>
<polygon fill="#666666" stroke="#666666" points="0.5,-426 0.5,-426 87.5,-426 87.5,-426 0.5,-426"/>
<polygon fill="#666666" stroke="#666666" points="0.5,-411 0.5,-411 15.5,-411 15.5,-411 0.5,-411"/>
<polygon fill="#666666" stroke="#666666" points="15.5,-411 15.5,-411 87.5,-411 87.5,-411 15.5,-411"/>
<polygon fill="none" stroke="#666666" points="0,-289 0,-443 87,-443 87,-289 0,-289"/>
</a>
</g>
</g>
<!-- Node2&#45;&gt;Node1 -->
<g id="edge1_Node000001_Node000002" class="edge">
<title>Node2&#45;&gt;Node1</title>
<g id="a_edge1_Node000001_Node000002"><a xlink:title=" ">
<path fill="none" stroke="#63b8ff" d="M54.66,-288.95C56.72,-277.21 59.01,-265.25 61.5,-254 61.94,-252 62.4,-249.98 62.86,-247.95"/>
<polygon fill="none" stroke="#63b8ff" points="62.87,-247.91 60.36,-241.15 65.64,-236.24 68.15,-243 62.87,-247.91"/>
</a>
</g>
<text text-anchor="start" x="65" y="-259.5" font-family="Helvetica,sans-Serif" font-size="10.00" fill="grey">&#45;interrupt_pin</text>
</g>
<!-- Node3 -->
<g id="Node000003" class="node">
<title>Node3</title>
<g id="a_Node000003"><a xlink:href="../../d2/d7b/classAH_1_1RegisterEncoders.html" target="_top" xlink:title=" ">
<polygon fill="white" stroke="transparent" points="242,-433.5 105,-433.5 105,-298.5 242,-298.5 242,-433.5"/>
<text text-anchor="start" x="110.5" y="-421" font-family="Helvetica,sans-Serif" font-size="10.00">RegisterEncoders&lt; uint16</text>
<text text-anchor="start" x="122.5" y="-410" font-family="Helvetica,sans-Serif" font-size="10.00">_t, 8, int32_t, false &gt;</text>
<text text-anchor="start" x="122" y="-395" font-family="Helvetica,sans-Serif" font-size="10.00">&#45;</text>
<text text-anchor="start" x="142.5" y="-395" font-family="Helvetica,sans-Serif" font-size="10.00">state</text>
<text text-anchor="start" x="119.5" y="-380" font-family="Helvetica,sans-Serif" font-size="10.00">+</text>
<text text-anchor="start" x="142.5" y="-380" font-family="Helvetica,sans-Serif" font-size="10.00">reset()</text>
<text text-anchor="start" x="119.5" y="-365" font-family="Helvetica,sans-Serif" font-size="10.00">+</text>
<text text-anchor="start" x="142.5" y="-365" font-family="Helvetica,sans-Serif" font-size="10.00">update()</text>
<text text-anchor="start" x="119.5" y="-350" font-family="Helvetica,sans-Serif" font-size="10.00">+</text>
<text text-anchor="start" x="142.5" y="-350" font-family="Helvetica,sans-Serif" font-size="10.00">read()</text>
<text text-anchor="start" x="119.5" y="-335" font-family="Helvetica,sans-Serif" font-size="10.00">+</text>
<text text-anchor="start" x="142.5" y="-335" font-family="Helvetica,sans-Serif" font-size="10.00">readAndReset()</text>
<text text-anchor="start" x="119.5" y="-320" font-family="Helvetica,sans-Serif" font-size="10.00">+</text>
<text text-anchor="start" x="142.5" y="-320" font-family="Helvetica,sans-Serif" font-size="10.00">write()</text>
<text text-anchor="start" x="119.5" y="-305" font-family="Helvetica,sans-Serif" font-size="10.00">+</text>
<text text-anchor="start" x="142.5" y="-305" font-family="Helvetica,sans-Serif" font-size="10.00">operator[]()</text>
<polygon fill="#666666" stroke="#666666" points="105.5,-405 105.5,-405 242.5,-405 242.5,-405 105.5,-405"/>
<polygon fill="#666666" stroke="#666666" points="105.5,-390 105.5,-390 140.5,-390 140.5,-390 105.5,-390"/>
<polygon fill="#666666" stroke="#666666" points="140.5,-390 140.5,-390 242.5,-390 242.5,-390 140.5,-390"/>
<polygon fill="none" stroke="#666666" points="105,-298.5 105,-433.5 242,-433.5 242,-298.5 105,-298.5"/>
</a>
</g>
</g>
<!-- Node3&#45;&gt;Node1 -->
<g id="edge2_Node000001_Node000003" class="edge">
<title>Node3&#45;&gt;Node1</title>
<g id="a_edge2_Node000001_Node000003"><a xlink:title=" ">
<path fill="none" stroke="#63b8ff" d="M153.47,-298.43C148.73,-282.67 143.52,-265.34 138.26,-247.84"/>
<polygon fill="none" stroke="#63b8ff" points="138.25,-247.83 132.7,-243.24 134.8,-236.34 140.36,-240.93 138.25,-247.83"/>
</a>
</g>
<text text-anchor="start" x="146" y="-259.5" font-family="Helvetica,sans-Serif" font-size="10.00" fill="grey">&#45;encs</text>
</g>
<!-- Node4 -->
<g id="Node000004" class="node">
<title>Node4</title>
<g id="a_Node000004"><a xlink:href="../../d0/d32/structAH_1_1Array.html" target="_top" xlink:title=" ">
<polygon fill="white" stroke="transparent" points="255.5,-721 91.5,-721 91.5,-496 255.5,-496 255.5,-721"/>
<text text-anchor="start" x="96.5" y="-708.5" font-family="Helvetica,sans-Serif" font-size="10.00">Array&lt; EncoderPositionStorage</text>
<text text-anchor="start" x="133" y="-697.5" font-family="Helvetica,sans-Serif" font-size="10.00">Type, NumEnc &gt;</text>
<text text-anchor="start" x="114.5" y="-682.5" font-family="Helvetica,sans-Serif" font-size="10.00">+</text>
<text text-anchor="start" x="146.5" y="-682.5" font-family="Helvetica,sans-Serif" font-size="10.00">data</text>
<text text-anchor="start" x="114.5" y="-667.5" font-family="Helvetica,sans-Serif" font-size="10.00">+</text>
<text text-anchor="start" x="146.5" y="-667.5" font-family="Helvetica,sans-Serif" font-size="10.00">length</text>
<text text-anchor="start" x="114.5" y="-652.5" font-family="Helvetica,sans-Serif" font-size="10.00">+</text>
<text text-anchor="start" x="146.5" y="-652.5" font-family="Helvetica,sans-Serif" font-size="10.00">operator[]()</text>
<text text-anchor="start" x="114.5" y="-637.5" font-family="Helvetica,sans-Serif" font-size="10.00">+</text>
<text text-anchor="start" x="146.5" y="-637.5" font-family="Helvetica,sans-Serif" font-size="10.00">operator[]()</text>
<text text-anchor="start" x="114.5" y="-622.5" font-family="Helvetica,sans-Serif" font-size="10.00">+</text>
<text text-anchor="start" x="146.5" y="-622.5" font-family="Helvetica,sans-Serif" font-size="10.00">begin()</text>
<text text-anchor="start" x="114.5" y="-607.5" font-family="Helvetica,sans-Serif" font-size="10.00">+</text>
<text text-anchor="start" x="146.5" y="-607.5" font-family="Helvetica,sans-Serif" font-size="10.00">begin()</text>
<text text-anchor="start" x="114.5" y="-592.5" font-family="Helvetica,sans-Serif" font-size="10.00">+</text>
<text text-anchor="start" x="146.5" y="-592.5" font-family="Helvetica,sans-Serif" font-size="10.00">end()</text>
<text text-anchor="start" x="114.5" y="-577.5" font-family="Helvetica,sans-Serif" font-size="10.00">+</text>
<text text-anchor="start" x="146.5" y="-577.5" font-family="Helvetica,sans-Serif" font-size="10.00">end()</text>
<text text-anchor="start" x="114.5" y="-562.5" font-family="Helvetica,sans-Serif" font-size="10.00">+</text>
<text text-anchor="start" x="146.5" y="-562.5" font-family="Helvetica,sans-Serif" font-size="10.00">operator==()</text>
<text text-anchor="start" x="114.5" y="-547.5" font-family="Helvetica,sans-Serif" font-size="10.00">+</text>
<text text-anchor="start" x="146.5" y="-547.5" font-family="Helvetica,sans-Serif" font-size="10.00">operator!=()</text>
<text text-anchor="start" x="114.5" y="-532.5" font-family="Helvetica,sans-Serif" font-size="10.00">+</text>
<text text-anchor="start" x="146.5" y="-532.5" font-family="Helvetica,sans-Serif" font-size="10.00">slice()</text>
<text text-anchor="start" x="114.5" y="-517.5" font-family="Helvetica,sans-Serif" font-size="10.00">+</text>
<text text-anchor="start" x="146.5" y="-517.5" font-family="Helvetica,sans-Serif" font-size="10.00">slice()</text>
<text text-anchor="start" x="114.5" y="-502.5" font-family="Helvetica,sans-Serif" font-size="10.00">+</text>
<text text-anchor="start" x="146.5" y="-502.5" font-family="Helvetica,sans-Serif" font-size="10.00">cslice()</text>
<polygon fill="#666666" stroke="#666666" points="91.5,-692.5 91.5,-692.5 255.5,-692.5 255.5,-692.5 91.5,-692.5"/>
<polygon fill="#666666" stroke="#666666" points="91.5,-662.5 91.5,-662.5 144.5,-662.5 144.5,-662.5 91.5,-662.5"/>
<polygon fill="#666666" stroke="#666666" points="144.5,-662.5 144.5,-662.5 255.5,-662.5 255.5,-662.5 144.5,-662.5"/>
<polygon fill="none" stroke="#666666" points="91.5,-496 91.5,-721 255.5,-721 255.5,-496 91.5,-496"/>
</a>
</g>
</g>
<!-- Node4&#45;&gt;Node3 -->
<g id="edge3_Node000003_Node000004" class="edge">
<title>Node4&#45;&gt;Node3</title>
<g id="a_edge3_Node000003_Node000004"><a xlink:title=" ">
<path fill="none" stroke="#63b8ff" d="M173.5,-495.7C173.5,-478.79 173.5,-461.65 173.5,-445.64"/>
<polygon fill="none" stroke="#63b8ff" points="173.5,-445.64 169.5,-439.64 173.5,-433.64 177.5,-439.64 173.5,-445.64"/>
</a>
</g>
<text text-anchor="start" x="177" y="-466.5" font-family="Helvetica,sans-Serif" font-size="10.00" fill="grey">&#45;positions</text>
</g>
</g>
</svg>
