<?xml version="1.0" encoding="UTF-8" standalone="no"?>
<!DOCTYPE svg PUBLIC "-//W3C//DTD SVG 1.1//EN"
 "http://www.w3.org/Graphics/SVG/1.1/DTD/svg11.dtd">
<!-- Generated by graphviz version 2.43.0 (0)
 -->
<!-- Title: USBMIDI_Interface.ipp Pages: 1 -->
<svg width="456pt" height="140pt"
 viewBox="0.00 0.00 455.50 140.00" xmlns="http://www.w3.org/2000/svg" xmlns:xlink="http://www.w3.org/1999/xlink">
<g id="graph0" class="graph" transform="scale(1 1) rotate(0) translate(4 136)">
<title>USBMIDI_Interface.ipp</title>
<polygon fill="white" stroke="transparent" points="-4,4 -4,-136 451.5,-136 451.5,4 -4,4"/>
<!-- Node1 -->
<g id="node1" class="node">
<title>Node1</title>
<g id="a_node1"><a xlink:title=" ">
<polygon fill="#bfbfbf" stroke="black" points="100,-112.5 100,-131.5 226,-131.5 226,-112.5 100,-112.5"/>
<text text-anchor="middle" x="163" y="-119.5" font-family="Helvetica,sans-Serif" font-size="10.00">USBMIDI_Interface.ipp</text>
</a>
</g>
</g>
<!-- Node2 -->
<g id="node2" class="node">
<title>Node2</title>
<g id="a_node2"><a xlink:href="../../d0/d81/TypeTraits_8hpp.html" target="_top" xlink:title=" ">
<polygon fill="white" stroke="black" points="188.5,-56.5 188.5,-75.5 295.5,-75.5 295.5,-56.5 188.5,-56.5"/>
<text text-anchor="middle" x="242" y="-63.5" font-family="Helvetica,sans-Serif" font-size="10.00">Def/TypeTraits.hpp</text>
</a>
</g>
</g>
<!-- Node1&#45;&gt;Node2 -->
<g id="edge1" class="edge">
<title>Node1&#45;&gt;Node2</title>
<path fill="none" stroke="midnightblue" d="M175.69,-112.32C187.9,-103.98 206.58,-91.21 221,-81.35"/>
<polygon fill="midnightblue" stroke="midnightblue" points="223.06,-84.19 229.34,-75.65 219.11,-78.41 223.06,-84.19"/>
</g>
<!-- Node6 -->
<g id="node6" class="node">
<title>Node6</title>
<g id="a_node6"><a xlink:href="../../d5/d2e/LambdaPuller_8hpp.html" target="_top" xlink:title=" ">
<polygon fill="white" stroke="black" points="0,-56.5 0,-75.5 170,-75.5 170,-56.5 0,-56.5"/>
<text text-anchor="middle" x="85" y="-63.5" font-family="Helvetica,sans-Serif" font-size="10.00">MIDI_Parsers/LambdaPuller.hpp</text>
</a>
</g>
</g>
<!-- Node1&#45;&gt;Node6 -->
<g id="edge5" class="edge">
<title>Node1&#45;&gt;Node6</title>
<path fill="none" stroke="midnightblue" d="M150.47,-112.32C138.41,-103.98 119.97,-91.21 105.73,-81.35"/>
<polygon fill="midnightblue" stroke="midnightblue" points="107.72,-78.47 97.5,-75.65 103.73,-84.22 107.72,-78.47"/>
</g>
<!-- Node3 -->
<g id="node3" class="node">
<title>Node3</title>
<g id="a_node3"><a xlink:title=" ">
<polygon fill="white" stroke="#bfbfbf" points="145,-0.5 145,-19.5 323,-19.5 323,-0.5 145,-0.5"/>
<text text-anchor="middle" x="234" y="-7.5" font-family="Helvetica,sans-Serif" font-size="10.00">Settings/NamespaceSettings.hpp</text>
</a>
</g>
</g>
<!-- Node2&#45;&gt;Node3 -->
<g id="edge2" class="edge">
<title>Node2&#45;&gt;Node3</title>
<path fill="none" stroke="midnightblue" d="M240.68,-56.08C239.62,-48.93 238.09,-38.64 236.77,-29.69"/>
<polygon fill="midnightblue" stroke="midnightblue" points="240.22,-29.13 235.3,-19.75 233.3,-30.16 240.22,-29.13"/>
</g>
<!-- Node4 -->
<g id="node4" class="node">
<title>Node4</title>
<g id="a_node4"><a xlink:title=" ">
<polygon fill="white" stroke="#bfbfbf" points="340.5,-0.5 340.5,-19.5 447.5,-19.5 447.5,-0.5 340.5,-0.5"/>
<text text-anchor="middle" x="394" y="-7.5" font-family="Helvetica,sans-Serif" font-size="10.00">AH/STL/type_traits</text>
</a>
</g>
</g>
<!-- Node2&#45;&gt;Node4 -->
<g id="edge3" class="edge">
<title>Node2&#45;&gt;Node4</title>
<path fill="none" stroke="midnightblue" d="M266.08,-56.44C291.54,-47.4 331.89,-33.06 360.46,-22.92"/>
<polygon fill="midnightblue" stroke="midnightblue" points="361.78,-26.16 370.03,-19.52 359.43,-19.57 361.78,-26.16"/>
</g>
<!-- Node5 -->
<g id="node5" class="node">
<title>Node5</title>
<g id="a_node5"><a xlink:title=" ">
<polygon fill="white" stroke="#bfbfbf" points="43.5,-0.5 43.5,-19.5 126.5,-19.5 126.5,-0.5 43.5,-0.5"/>
<text text-anchor="middle" x="85" y="-7.5" font-family="Helvetica,sans-Serif" font-size="10.00">AH/STL/utility</text>
</a>
</g>
</g>
<!-- Node2&#45;&gt;Node5 -->
<g id="edge4" class="edge">
<title>Node2&#45;&gt;Node5</title>
<path fill="none" stroke="midnightblue" d="M217.12,-56.44C190.71,-47.36 148.78,-32.94 119.26,-22.78"/>
<polygon fill="midnightblue" stroke="midnightblue" points="120.36,-19.46 109.76,-19.52 118.08,-26.08 120.36,-19.46"/>
</g>
<!-- Node6&#45;&gt;Node3 -->
<g id="edge7" class="edge">
<title>Node6&#45;&gt;Node3</title>
<path fill="none" stroke="midnightblue" d="M108.61,-56.44C133.46,-47.44 172.77,-33.19 200.75,-23.05"/>
<polygon fill="midnightblue" stroke="midnightblue" points="202.29,-26.21 210.5,-19.52 199.91,-19.63 202.29,-26.21"/>
</g>
<!-- Node6&#45;&gt;Node5 -->
<g id="edge6" class="edge">
<title>Node6&#45;&gt;Node5</title>
<path fill="none" stroke="midnightblue" d="M85,-56.08C85,-49.01 85,-38.86 85,-29.99"/>
<polygon fill="midnightblue" stroke="midnightblue" points="88.5,-29.75 85,-19.75 81.5,-29.75 88.5,-29.75"/>
</g>
</g>
</svg>
