<?xml version="1.0" encoding="UTF-8" standalone="no"?>
<!DOCTYPE svg PUBLIC "-//W3C//DTD SVG 1.1//EN"
 "http://www.w3.org/Graphics/SVG/1.1/DTD/svg11.dtd">
<!-- Generated by graphviz version 2.43.0 (0)
 -->
<!-- Title: GenericVU&lt; Callback &gt; Pages: 1 -->
<svg width="720pt" height="1170pt"
 viewBox="0.00 0.00 720.00 1170.00" xmlns="http://www.w3.org/2000/svg" xmlns:xlink="http://www.w3.org/1999/xlink">
<g id="graph0" class="graph" transform="scale(1 1) rotate(0) translate(4 1166)">
<title>GenericVU&lt; Callback &gt;</title>
<polygon fill="white" stroke="transparent" points="-4,4 -4,-1166 716,-1166 716,4 -4,4"/>
<!-- Node1 -->
<g id="node1" class="node">
<title>Node1</title>
<g id="a_node1"><a xlink:title="A class for MIDI input elements that represent Mackie Control Universal VU meters.">
<polygon fill="#bfbfbf" stroke="black" points="405.5,-0.5 405.5,-57.5 538.5,-57.5 538.5,-0.5 405.5,-0.5"/>
<text text-anchor="middle" x="472" y="-45.5" font-family="Helvetica,sans-Serif" font-size="10.00">GenericVU&lt; Callback &gt;</text>
<polyline fill="none" stroke="black" points="405.5,-38.5 538.5,-38.5 "/>
<text text-anchor="middle" x="472" y="-26.5" font-family="Helvetica,sans-Serif" font-size="10.00"> </text>
<polyline fill="none" stroke="black" points="405.5,-19.5 538.5,-19.5 "/>
<text text-anchor="start" x="413.5" y="-7.5" font-family="Helvetica,sans-Serif" font-size="10.00">+ GenericVU()</text>
</a>
</g>
</g>
<!-- Node2 -->
<g id="node2" class="node">
<title>Node2</title>
<g id="a_node2"><a xlink:href="../../d4/d71/classMCU_1_1VU__Base.html" target="_top" xlink:title=" ">
<polygon fill="white" stroke="black" points="381,-128.5 381,-361.5 563,-361.5 563,-128.5 381,-128.5"/>
<text text-anchor="middle" x="472" y="-349.5" font-family="Helvetica,sans-Serif" font-size="10.00">VU_Base&lt; 1, VUEmptyCallback &gt;</text>
<polyline fill="none" stroke="black" points="381,-342.5 563,-342.5 "/>
<text text-anchor="start" x="389" y="-330.5" font-family="Helvetica,sans-Serif" font-size="10.00">&#45; decayTime</text>
<text text-anchor="start" x="389" y="-319.5" font-family="Helvetica,sans-Serif" font-size="10.00">&#45; prevDecayTime</text>
<polyline fill="none" stroke="black" points="381,-312.5 563,-312.5 "/>
<text text-anchor="start" x="389" y="-300.5" font-family="Helvetica,sans-Serif" font-size="10.00">+ begin()</text>
<text text-anchor="start" x="389" y="-289.5" font-family="Helvetica,sans-Serif" font-size="10.00">+ reset()</text>
<text text-anchor="start" x="389" y="-278.5" font-family="Helvetica,sans-Serif" font-size="10.00">+ getValue()</text>
<text text-anchor="start" x="389" y="-267.5" font-family="Helvetica,sans-Serif" font-size="10.00">+ getOverload()</text>
<text text-anchor="start" x="389" y="-256.5" font-family="Helvetica,sans-Serif" font-size="10.00">+ update()</text>
<text text-anchor="start" x="389" y="-245.5" font-family="Helvetica,sans-Serif" font-size="10.00"># VU_Base()</text>
<text text-anchor="start" x="389" y="-234.5" font-family="Helvetica,sans-Serif" font-size="10.00">&#45; getValue()</text>
<text text-anchor="start" x="389" y="-223.5" font-family="Helvetica,sans-Serif" font-size="10.00">&#45; getOverload()</text>
<text text-anchor="start" x="389" y="-212.5" font-family="Helvetica,sans-Serif" font-size="10.00">&#45; updateImpl()</text>
<text text-anchor="start" x="389" y="-201.5" font-family="Helvetica,sans-Serif" font-size="10.00">&#45; getTarget()</text>
<text text-anchor="start" x="389" y="-190.5" font-family="Helvetica,sans-Serif" font-size="10.00">&#45; decay()</text>
<text text-anchor="start" x="389" y="-179.5" font-family="Helvetica,sans-Serif" font-size="10.00">&#45; getSelection()</text>
<text text-anchor="start" x="389" y="-168.5" font-family="Helvetica,sans-Serif" font-size="10.00">&#45; getBankIndex()</text>
<text text-anchor="start" x="389" y="-157.5" font-family="Helvetica,sans-Serif" font-size="10.00">&#45; setValue()</text>
<text text-anchor="start" x="389" y="-146.5" font-family="Helvetica,sans-Serif" font-size="10.00">&#45; setOverload()</text>
<text text-anchor="start" x="389" y="-135.5" font-family="Helvetica,sans-Serif" font-size="10.00">&#45; clearOverload()</text>
</a>
</g>
</g>
<!-- Node2&#45;&gt;Node1 -->
<g id="edge1" class="edge">
<title>Node2&#45;&gt;Node1</title>
<path fill="none" stroke="midnightblue" d="M472,-118.07C472,-95.34 472,-73.78 472,-57.68"/>
<polygon fill="none" stroke="midnightblue" points="468.5,-118.23 472,-128.23 475.5,-118.23 468.5,-118.23"/>
</g>
<!-- Node3 -->
<g id="node3" class="node">
<title>Node3</title>
<g id="a_node3"><a xlink:href="../../d1/df7/classMIDIInputElementChannelPressure.html" target="_top" xlink:title="Class for objects that listen for incoming MIDI Channel Pressure events.">
<polygon fill="white" stroke="black" points="84.5,-470 84.5,-615 289.5,-615 289.5,-470 84.5,-470"/>
<text text-anchor="middle" x="187" y="-603" font-family="Helvetica,sans-Serif" font-size="10.00">MIDIInputElementChannelPressure</text>
<polyline fill="none" stroke="black" points="84.5,-596 289.5,-596 "/>
<text text-anchor="middle" x="187" y="-584" font-family="Helvetica,sans-Serif" font-size="10.00"> </text>
<polyline fill="none" stroke="black" points="84.5,-577 289.5,-577 "/>
<text text-anchor="start" x="92.5" y="-565" font-family="Helvetica,sans-Serif" font-size="10.00">+ MIDIInputElementChannelPressure()</text>
<text text-anchor="start" x="92.5" y="-554" font-family="Helvetica,sans-Serif" font-size="10.00">+ ~MIDIInputElementChannel</text>
<text text-anchor="start" x="92.5" y="-543" font-family="Helvetica,sans-Serif" font-size="10.00">Pressure()</text>
<text text-anchor="start" x="92.5" y="-532" font-family="Helvetica,sans-Serif" font-size="10.00">+ beginAll()</text>
<text text-anchor="start" x="92.5" y="-521" font-family="Helvetica,sans-Serif" font-size="10.00">+ resetAll()</text>
<text text-anchor="start" x="92.5" y="-510" font-family="Helvetica,sans-Serif" font-size="10.00">+ updateAll()</text>
<text text-anchor="start" x="92.5" y="-499" font-family="Helvetica,sans-Serif" font-size="10.00">+ updateAllWith()</text>
<text text-anchor="start" x="92.5" y="-488" font-family="Helvetica,sans-Serif" font-size="10.00">&#45; getTarget()</text>
<text text-anchor="start" x="92.5" y="-477" font-family="Helvetica,sans-Serif" font-size="10.00">&#45; moveDown()</text>
</a>
</g>
</g>
<!-- Node3&#45;&gt;Node2 -->
<g id="edge2" class="edge">
<title>Node3&#45;&gt;Node2</title>
<path fill="none" stroke="midnightblue" d="M268.07,-462.61C290,-440.91 313.59,-417.22 335,-395 350,-379.44 365.7,-362.76 380.89,-346.39"/>
<polygon fill="none" stroke="midnightblue" points="265.35,-460.38 260.7,-469.89 270.27,-465.35 265.35,-460.38"/>
</g>
<!-- Node6 -->
<g id="node6" class="node">
<title>Node6</title>
<g id="a_node6"><a xlink:href="../../d4/d23/classDoublyLinkable.html" target="_top" xlink:title=" ">
<polygon fill="white" stroke="black" points="0,-211 0,-279 150,-279 150,-211 0,-211"/>
<text text-anchor="start" x="8" y="-267" font-family="Helvetica,sans-Serif" font-size="10.00">DoublyLinkable&lt; MIDIInput</text>
<text text-anchor="middle" x="75" y="-256" font-family="Helvetica,sans-Serif" font-size="10.00">ElementChannelPressure &gt;</text>
<polyline fill="none" stroke="black" points="0,-249 150,-249 "/>
<text text-anchor="middle" x="75" y="-237" font-family="Helvetica,sans-Serif" font-size="10.00"> </text>
<polyline fill="none" stroke="black" points="0,-230 150,-230 "/>
<text text-anchor="start" x="8" y="-218" font-family="Helvetica,sans-Serif" font-size="10.00"># ~DoublyLinkable()</text>
</a>
</g>
</g>
<!-- Node3&#45;&gt;Node6 -->
<g id="edge6" class="edge">
<title>Node3&#45;&gt;Node6</title>
<path fill="none" stroke="#404040" d="M107.92,-469.76C99.62,-458.91 92.29,-447.22 87,-435 67.13,-389.13 66.63,-331.07 69.5,-291.49"/>
<polygon fill="none" stroke="#404040" points="69.52,-291.29 66.04,-284.97 70.53,-279.33 74.01,-285.64 69.52,-291.29"/>
<text text-anchor="middle" x="112.5" y="-427" font-family="Helvetica,sans-Serif" font-size="10.00"> #next</text>
<text text-anchor="middle" x="112.5" y="-416" font-family="Helvetica,sans-Serif" font-size="10.00">#previous</text>
</g>
<!-- Node7 -->
<g id="node7" class="node">
<title>Node7</title>
<g id="a_node7"><a xlink:href="../../dd/d16/classDoublyLinkedList.html" target="_top" xlink:title=" ">
<polygon fill="white" stroke="black" points="168,-95.5 168,-394.5 326,-394.5 326,-95.5 168,-95.5"/>
<text text-anchor="start" x="176" y="-382.5" font-family="Helvetica,sans-Serif" font-size="10.00">DoublyLinkedList&lt; MIDIInput</text>
<text text-anchor="middle" x="247" y="-371.5" font-family="Helvetica,sans-Serif" font-size="10.00">ElementChannelPressure &gt;</text>
<polyline fill="none" stroke="black" points="168,-364.5 326,-364.5 "/>
<text text-anchor="middle" x="247" y="-352.5" font-family="Helvetica,sans-Serif" font-size="10.00"> </text>
<polyline fill="none" stroke="black" points="168,-345.5 326,-345.5 "/>
<text text-anchor="start" x="176" y="-333.5" font-family="Helvetica,sans-Serif" font-size="10.00">+ append()</text>
<text text-anchor="start" x="176" y="-322.5" font-family="Helvetica,sans-Serif" font-size="10.00">+ append()</text>
<text text-anchor="start" x="176" y="-311.5" font-family="Helvetica,sans-Serif" font-size="10.00">+ insertBefore()</text>
<text text-anchor="start" x="176" y="-300.5" font-family="Helvetica,sans-Serif" font-size="10.00">+ insertBefore()</text>
<text text-anchor="start" x="176" y="-289.5" font-family="Helvetica,sans-Serif" font-size="10.00">+ insertSorted()</text>
<text text-anchor="start" x="176" y="-278.5" font-family="Helvetica,sans-Serif" font-size="10.00">+ insertSorted()</text>
<text text-anchor="start" x="176" y="-267.5" font-family="Helvetica,sans-Serif" font-size="10.00">+ remove()</text>
<text text-anchor="start" x="176" y="-256.5" font-family="Helvetica,sans-Serif" font-size="10.00">+ remove()</text>
<text text-anchor="start" x="176" y="-245.5" font-family="Helvetica,sans-Serif" font-size="10.00">+ moveDown()</text>
<text text-anchor="start" x="176" y="-234.5" font-family="Helvetica,sans-Serif" font-size="10.00">+ moveDown()</text>
<text text-anchor="start" x="176" y="-223.5" font-family="Helvetica,sans-Serif" font-size="10.00">+ couldContain()</text>
<text text-anchor="start" x="176" y="-212.5" font-family="Helvetica,sans-Serif" font-size="10.00">+ couldContain()</text>
<text text-anchor="start" x="176" y="-201.5" font-family="Helvetica,sans-Serif" font-size="10.00">+ begin()</text>
<text text-anchor="start" x="176" y="-190.5" font-family="Helvetica,sans-Serif" font-size="10.00">+ begin()</text>
<text text-anchor="start" x="176" y="-179.5" font-family="Helvetica,sans-Serif" font-size="10.00">+ end()</text>
<text text-anchor="start" x="176" y="-168.5" font-family="Helvetica,sans-Serif" font-size="10.00">+ end()</text>
<text text-anchor="start" x="176" y="-157.5" font-family="Helvetica,sans-Serif" font-size="10.00">+ rbegin()</text>
<text text-anchor="start" x="176" y="-146.5" font-family="Helvetica,sans-Serif" font-size="10.00">+ rbegin()</text>
<text text-anchor="start" x="176" y="-135.5" font-family="Helvetica,sans-Serif" font-size="10.00">+ rend()</text>
<text text-anchor="start" x="176" y="-124.5" font-family="Helvetica,sans-Serif" font-size="10.00">+ rend()</text>
<text text-anchor="start" x="176" y="-113.5" font-family="Helvetica,sans-Serif" font-size="10.00">+ getFirst()</text>
<text text-anchor="start" x="176" y="-102.5" font-family="Helvetica,sans-Serif" font-size="10.00">+ getLast()</text>
</a>
</g>
</g>
<!-- Node3&#45;&gt;Node7 -->
<g id="edge8" class="edge">
<title>Node3&#45;&gt;Node7</title>
<path fill="none" stroke="#404040" d="M186.98,-469.75C187.89,-451.16 189.69,-431.24 193,-413 193.37,-410.94 193.77,-408.87 194.18,-406.79"/>
<polygon fill="none" stroke="#404040" points="194.23,-406.55 191.56,-399.86 196.71,-394.81 199.38,-401.51 194.23,-406.55"/>
<text text-anchor="middle" x="206" y="-427" font-family="Helvetica,sans-Serif" font-size="10.00"> &#45;first</text>
<text text-anchor="middle" x="206" y="-416" font-family="Helvetica,sans-Serif" font-size="10.00">&#45;last</text>
</g>
<!-- Node4 -->
<g id="node4" class="node">
<title>Node4</title>
<g id="a_node4"><a xlink:href="../../d9/db1/classMIDIInputElement.html" target="_top" xlink:title="A class for objects that listen for incoming MIDI events.">
<polygon fill="white" stroke="black" points="121.5,-669.5 121.5,-825.5 252.5,-825.5 252.5,-669.5 121.5,-669.5"/>
<text text-anchor="middle" x="187" y="-813.5" font-family="Helvetica,sans-Serif" font-size="10.00">MIDIInputElement</text>
<polyline fill="none" stroke="black" points="121.5,-806.5 252.5,-806.5 "/>
<text text-anchor="middle" x="187" y="-794.5" font-family="Helvetica,sans-Serif" font-size="10.00"> </text>
<polyline fill="none" stroke="black" points="121.5,-787.5 252.5,-787.5 "/>
<text text-anchor="start" x="129.5" y="-775.5" font-family="Helvetica,sans-Serif" font-size="10.00">+ ~MIDIInputElement()</text>
<text text-anchor="start" x="129.5" y="-764.5" font-family="Helvetica,sans-Serif" font-size="10.00">+ begin()</text>
<text text-anchor="start" x="129.5" y="-753.5" font-family="Helvetica,sans-Serif" font-size="10.00">+ reset()</text>
<text text-anchor="start" x="129.5" y="-742.5" font-family="Helvetica,sans-Serif" font-size="10.00">+ update()</text>
<text text-anchor="start" x="129.5" y="-731.5" font-family="Helvetica,sans-Serif" font-size="10.00">+ updateWith()</text>
<text text-anchor="start" x="129.5" y="-720.5" font-family="Helvetica,sans-Serif" font-size="10.00"># MIDIInputElement()</text>
<text text-anchor="start" x="129.5" y="-709.5" font-family="Helvetica,sans-Serif" font-size="10.00"># MIDIInputElement()</text>
<text text-anchor="start" x="129.5" y="-698.5" font-family="Helvetica,sans-Serif" font-size="10.00">&#45; updateImpl()</text>
<text text-anchor="start" x="129.5" y="-687.5" font-family="Helvetica,sans-Serif" font-size="10.00">&#45; getTarget()</text>
<text text-anchor="start" x="129.5" y="-676.5" font-family="Helvetica,sans-Serif" font-size="10.00">&#45; match()</text>
</a>
</g>
</g>
<!-- Node4&#45;&gt;Node3 -->
<g id="edge3" class="edge">
<title>Node4&#45;&gt;Node3</title>
<path fill="none" stroke="midnightblue" d="M187,-659.34C187,-644.59 187,-629.43 187,-615.13"/>
<polygon fill="none" stroke="midnightblue" points="183.5,-659.46 187,-669.46 190.5,-659.46 183.5,-659.46"/>
</g>
<!-- Node5 -->
<g id="node5" class="node">
<title>Node5</title>
<g id="a_node5"><a xlink:href="../../d7/d0f/classMIDIAddress.html" target="_top" xlink:title="A type&#45;safe utility class for saving a MIDI address consisting of a 7&#45;bit address,...">
<polygon fill="white" stroke="black" points="116,-873.5 116,-1161.5 258,-1161.5 258,-873.5 116,-873.5"/>
<text text-anchor="middle" x="187" y="-1149.5" font-family="Helvetica,sans-Serif" font-size="10.00">MIDIAddress</text>
<polyline fill="none" stroke="black" points="116,-1142.5 258,-1142.5 "/>
<text text-anchor="start" x="124" y="-1130.5" font-family="Helvetica,sans-Serif" font-size="10.00">&#45; addresses</text>
<polyline fill="none" stroke="black" points="116,-1123.5 258,-1123.5 "/>
<text text-anchor="start" x="124" y="-1111.5" font-family="Helvetica,sans-Serif" font-size="10.00">* MIDIAddress()</text>
<text text-anchor="start" x="124" y="-1100.5" font-family="Helvetica,sans-Serif" font-size="10.00">* MIDIAddress()</text>
<text text-anchor="start" x="124" y="-1089.5" font-family="Helvetica,sans-Serif" font-size="10.00">* MIDIAddress()</text>
<text text-anchor="start" x="124" y="-1078.5" font-family="Helvetica,sans-Serif" font-size="10.00">* MIDIAddress()</text>
<text text-anchor="start" x="124" y="-1067.5" font-family="Helvetica,sans-Serif" font-size="10.00">* MIDIAddress()</text>
<text text-anchor="start" x="124" y="-1056.5" font-family="Helvetica,sans-Serif" font-size="10.00">* MIDIAddress()</text>
<text text-anchor="start" x="124" y="-1045.5" font-family="Helvetica,sans-Serif" font-size="10.00">* invalid()</text>
<text text-anchor="start" x="124" y="-1034.5" font-family="Helvetica,sans-Serif" font-size="10.00">* operator+=()</text>
<text text-anchor="start" x="124" y="-1023.5" font-family="Helvetica,sans-Serif" font-size="10.00">* operator&#45;=()</text>
<text text-anchor="start" x="124" y="-1012.5" font-family="Helvetica,sans-Serif" font-size="10.00">* operator+()</text>
<text text-anchor="start" x="124" y="-1001.5" font-family="Helvetica,sans-Serif" font-size="10.00">* operator&#45;()</text>
<text text-anchor="start" x="124" y="-990.5" font-family="Helvetica,sans-Serif" font-size="10.00">* getAddress()</text>
<text text-anchor="start" x="124" y="-979.5" font-family="Helvetica,sans-Serif" font-size="10.00">* getChannel()</text>
<text text-anchor="start" x="124" y="-968.5" font-family="Helvetica,sans-Serif" font-size="10.00">* getRawChannel()</text>
<text text-anchor="start" x="124" y="-957.5" font-family="Helvetica,sans-Serif" font-size="10.00">* getCableNumber()</text>
<text text-anchor="start" x="124" y="-946.5" font-family="Helvetica,sans-Serif" font-size="10.00">* getRawCableNumber()</text>
<text text-anchor="start" x="124" y="-935.5" font-family="Helvetica,sans-Serif" font-size="10.00">* operator==()</text>
<text text-anchor="start" x="124" y="-924.5" font-family="Helvetica,sans-Serif" font-size="10.00">* operator!=()</text>
<text text-anchor="start" x="124" y="-913.5" font-family="Helvetica,sans-Serif" font-size="10.00">* isValid()</text>
<text text-anchor="start" x="124" y="-902.5" font-family="Helvetica,sans-Serif" font-size="10.00">* operator bool()</text>
<text text-anchor="start" x="124" y="-891.5" font-family="Helvetica,sans-Serif" font-size="10.00">* matchSingle()</text>
<text text-anchor="start" x="124" y="-880.5" font-family="Helvetica,sans-Serif" font-size="10.00">* matchAddressInRange()</text>
</a>
</g>
</g>
<!-- Node5&#45;&gt;Node4 -->
<g id="edge4" class="edge">
<title>Node5&#45;&gt;Node4</title>
<path fill="none" stroke="#404040" d="M187,-873.48C187,-861.39 187,-849.39 187,-837.9"/>
<polygon fill="none" stroke="#404040" points="187,-837.63 183,-831.63 187,-825.63 191,-831.63 187,-837.63"/>
<text text-anchor="middle" x="212" y="-847" font-family="Helvetica,sans-Serif" font-size="10.00"> #address</text>
</g>
<!-- Node6&#45;&gt;Node3 -->
<g id="edge5" class="edge">
<title>Node6&#45;&gt;Node3</title>
<path fill="none" stroke="midnightblue" d="M92.71,-288.61C106.53,-322.24 126.01,-370.41 142,-413 148.9,-431.37 156.05,-451.33 162.57,-469.93"/>
<polygon fill="none" stroke="midnightblue" points="95.83,-287.01 88.79,-279.1 89.36,-289.68 95.83,-287.01"/>
</g>
<!-- Node7&#45;&gt;Node3 -->
<g id="edge7" class="edge">
<title>Node7&#45;&gt;Node3</title>
<path fill="none" stroke="#404040" d="M231,-394.55C228.66,-408.29 226,-421.95 223,-435 221.26,-442.58 219.18,-450.38 216.93,-458.15"/>
<polygon fill="none" stroke="#404040" points="216.85,-458.39 218.94,-465.29 213.38,-469.88 211.29,-462.98 216.85,-458.39"/>
<text text-anchor="middle" x="254.5" y="-421.5" font-family="Helvetica,sans-Serif" font-size="10.00"> &#45;elements</text>
</g>
<!-- Node8 -->
<g id="node8" class="node">
<title>Node8</title>
<g id="a_node8"><a xlink:href="../../d2/de9/classIVU.html" target="_top" xlink:title="An abstract interface for VU meters.">
<polygon fill="white" stroke="black" points="307.5,-492 307.5,-593 410.5,-593 410.5,-492 307.5,-492"/>
<text text-anchor="middle" x="359" y="-581" font-family="Helvetica,sans-Serif" font-size="10.00">IVU</text>
<polyline fill="none" stroke="black" points="307.5,-574 410.5,-574 "/>
<text text-anchor="start" x="315.5" y="-562" font-family="Helvetica,sans-Serif" font-size="10.00"># max</text>
<polyline fill="none" stroke="black" points="307.5,-555 410.5,-555 "/>
<text text-anchor="start" x="315.5" y="-543" font-family="Helvetica,sans-Serif" font-size="10.00">+ IVU()</text>
<text text-anchor="start" x="315.5" y="-532" font-family="Helvetica,sans-Serif" font-size="10.00">+ getValue()</text>
<text text-anchor="start" x="315.5" y="-521" font-family="Helvetica,sans-Serif" font-size="10.00">+ getOverload()</text>
<text text-anchor="start" x="315.5" y="-510" font-family="Helvetica,sans-Serif" font-size="10.00">+ getFloatValue()</text>
<text text-anchor="start" x="315.5" y="-499" font-family="Helvetica,sans-Serif" font-size="10.00">+ getMax()</text>
</a>
</g>
</g>
<!-- Node8&#45;&gt;Node2 -->
<g id="edge9" class="edge">
<title>Node8&#45;&gt;Node2</title>
<path fill="none" stroke="midnightblue" d="M381.66,-482.25C394.85,-447.74 411.96,-403.02 427.72,-361.79"/>
<polygon fill="none" stroke="midnightblue" points="378.34,-481.12 378.04,-491.71 384.88,-483.62 378.34,-481.12"/>
</g>
<!-- Node9 -->
<g id="node9" class="node">
<title>Node9</title>
<g id="a_node9"><a xlink:href="../../d0/d32/structAH_1_1Array.html" target="_top" xlink:title=" ">
<polygon fill="white" stroke="black" points="428.5,-453.5 428.5,-631.5 589.5,-631.5 589.5,-453.5 428.5,-453.5"/>
<text text-anchor="middle" x="509" y="-619.5" font-family="Helvetica,sans-Serif" font-size="10.00">Array&lt; uint8_t, NumValues &gt;</text>
<polyline fill="none" stroke="black" points="428.5,-612.5 589.5,-612.5 "/>
<text text-anchor="start" x="436.5" y="-600.5" font-family="Helvetica,sans-Serif" font-size="10.00">+ data</text>
<text text-anchor="start" x="436.5" y="-589.5" font-family="Helvetica,sans-Serif" font-size="10.00">+ length</text>
<polyline fill="none" stroke="black" points="428.5,-582.5 589.5,-582.5 "/>
<text text-anchor="start" x="436.5" y="-570.5" font-family="Helvetica,sans-Serif" font-size="10.00">+ operator[]()</text>
<text text-anchor="start" x="436.5" y="-559.5" font-family="Helvetica,sans-Serif" font-size="10.00">+ operator[]()</text>
<text text-anchor="start" x="436.5" y="-548.5" font-family="Helvetica,sans-Serif" font-size="10.00">+ begin()</text>
<text text-anchor="start" x="436.5" y="-537.5" font-family="Helvetica,sans-Serif" font-size="10.00">+ begin()</text>
<text text-anchor="start" x="436.5" y="-526.5" font-family="Helvetica,sans-Serif" font-size="10.00">+ end()</text>
<text text-anchor="start" x="436.5" y="-515.5" font-family="Helvetica,sans-Serif" font-size="10.00">+ end()</text>
<text text-anchor="start" x="436.5" y="-504.5" font-family="Helvetica,sans-Serif" font-size="10.00">+ operator==()</text>
<text text-anchor="start" x="436.5" y="-493.5" font-family="Helvetica,sans-Serif" font-size="10.00">+ operator!=()</text>
<text text-anchor="start" x="436.5" y="-482.5" font-family="Helvetica,sans-Serif" font-size="10.00">+ slice()</text>
<text text-anchor="start" x="436.5" y="-471.5" font-family="Helvetica,sans-Serif" font-size="10.00">+ slice()</text>
<text text-anchor="start" x="436.5" y="-460.5" font-family="Helvetica,sans-Serif" font-size="10.00">+ cslice()</text>
</a>
</g>
</g>
<!-- Node9&#45;&gt;Node2 -->
<g id="edge10" class="edge">
<title>Node9&#45;&gt;Node2</title>
<path fill="none" stroke="#404040" d="M497.95,-453.24C494.83,-428.32 491.37,-400.68 488.02,-373.93"/>
<polygon fill="none" stroke="#404040" points="487.98,-373.62 483.26,-368.16 486.49,-361.71 491.2,-367.17 487.98,-373.62"/>
<text text-anchor="middle" x="514.5" y="-421.5" font-family="Helvetica,sans-Serif" font-size="10.00"> &#45;values</text>
</g>
<!-- Node10 -->
<g id="node10" class="node">
<title>Node10</title>
<g id="a_node10"><a xlink:href="../../de/dc6/structMCU_1_1VUEmptyCallback.html" target="_top" xlink:title="Empty callback for VU meters that does nothing.">
<polygon fill="white" stroke="black" points="608,-508.5 608,-576.5 712,-576.5 712,-508.5 608,-508.5"/>
<text text-anchor="middle" x="660" y="-564.5" font-family="Helvetica,sans-Serif" font-size="10.00">VUEmptyCallback</text>
<polyline fill="none" stroke="black" points="608,-557.5 712,-557.5 "/>
<text text-anchor="middle" x="660" y="-545.5" font-family="Helvetica,sans-Serif" font-size="10.00"> </text>
<polyline fill="none" stroke="black" points="608,-538.5 712,-538.5 "/>
<text text-anchor="start" x="616" y="-526.5" font-family="Helvetica,sans-Serif" font-size="10.00">+ begin()</text>
<text text-anchor="start" x="616" y="-515.5" font-family="Helvetica,sans-Serif" font-size="10.00">+ update()</text>
</a>
</g>
</g>
<!-- Node10&#45;&gt;Node2 -->
<g id="edge11" class="edge">
<title>Node10&#45;&gt;Node2</title>
<path fill="none" stroke="#404040" d="M638.98,-508.46C617.83,-475.21 583.86,-421.83 552.08,-371.86"/>
<polygon fill="none" stroke="#404040" points="551.98,-371.72 545.39,-368.8 545.54,-361.59 552.14,-364.51 551.98,-371.72"/>
<text text-anchor="middle" x="615" y="-421.5" font-family="Helvetica,sans-Serif" font-size="10.00"> +callback</text>
</g>
</g>
</svg>
