#define OLED_Demo_width 128
#define OLED_Demo_height 64
static unsigned char OLED_Demo_bits[] = {
   0xc0, 0xe7, 0x00, 0x0e, 0x01, 0x20, 0x0e, 0x07, 0x00, 0x00, 0x01, 0x38,
   0xc0, 0x01, 0x00, 0x00, 0x00, 0x14, 0x01, 0x91, 0x01, 0x30, 0x91, 0x00,
   0x00, 0x00, 0x07, 0x7c, 0x20, 0x02, 0x00, 0x00, 0x00, 0x02, 0x01, 0x19,
   0x01, 0x28, 0x51, 0x00, 0x00, 0x00, 0x1f, 0xfe, 0x20, 0x00, 0x00, 0x00,
   0x00, 0xe3, 0x00, 0x15, 0x01, 0x24, 0xde, 0x03, 0x00, 0x00, 0x7f, 0xfe,
   0xc0, 0x01, 0x00, 0x00, 0x00, 0x14, 0x00, 0x13, 0x01, 0x7c, 0x50, 0x04,
   0x00, 0x00, 0x1f, 0xfe, 0x00, 0x02, 0x00, 0x00, 0x40, 0x14, 0x00, 0x11,
   0x01, 0x20, 0x48, 0x04, 0x00, 0x00, 0x07, 0x7c, 0x20, 0x02, 0x00, 0x00,
   0x80, 0xf3, 0x01, 0x8e, 0x03, 0x20, 0x87, 0x03, 0x00, 0x00, 0x01, 0x38,
   0xc0, 0x01, 0x00, 0x00, 0x00, 0x00, 0x00, 0x00, 0x00, 0x00, 0x00, 0x00,
   0x00, 0x00, 0x00, 0x00, 0x00, 0x00, 0x00, 0x00, 0xfe, 0xff, 0xff, 0xff,
   0xff, 0xff, 0xff, 0xff, 0xff, 0xff, 0xff, 0xff, 0xff, 0xff, 0xff, 0x7f,
   0x00, 0x00, 0x00, 0x00, 0x00, 0x00, 0x00, 0x00, 0x00, 0x00, 0x00, 0x00,
   0x00, 0x00, 0x00, 0x00, 0x00, 0x00, 0x01, 0x00, 0x00, 0x00, 0x00, 0x00,
   0x00, 0x00, 0x01, 0x00, 0x00, 0x00, 0x00, 0x00, 0x00, 0xf0, 0x1e, 0x00,
   0x00, 0x00, 0x00, 0x00, 0x00, 0xf0, 0x1e, 0x00, 0x00, 0x00, 0x00, 0x00,
   0x00, 0x0c, 0x60, 0x00, 0x00, 0x00, 0x00, 0x00, 0x00, 0x0c, 0x60, 0x00,
   0x00, 0x00, 0x00, 0x00, 0x00, 0x03, 0x80, 0x01, 0x00, 0x00, 0x00, 0x00,
   0x00, 0x03, 0x81, 0x01, 0x00, 0x00, 0x00, 0x00, 0x80, 0x00, 0x00, 0x02,
   0x00, 0x00, 0x00, 0x00, 0x80, 0x00, 0x01, 0x02, 0x00, 0x00, 0x00, 0x00,
   0x40, 0x00, 0x00, 0x04, 0x00, 0x00, 0x00, 0x00, 0x40, 0x00, 0x01, 0x04,
   0x00, 0x00, 0x00, 0x00, 0x20, 0x00, 0x00, 0x08, 0x00, 0x00, 0x00, 0x00,
   0x20, 0x00, 0x01, 0x08, 0x00, 0x00, 0x00, 0x00, 0x10, 0x00, 0x00, 0x10,
   0x00, 0x00, 0x00, 0x00, 0x10, 0x00, 0x01, 0x10, 0x00, 0x00, 0x00, 0x00,
   0x08, 0x00, 0x00, 0x20, 0x00, 0x00, 0x00, 0x00, 0x08, 0x00, 0x01, 0x20,
   0x00, 0x00, 0x00, 0x00, 0x08, 0x00, 0x00, 0x20, 0x00, 0x00, 0x00, 0x00,
   0x08, 0x00, 0x01, 0x20, 0x00, 0x00, 0x00, 0x00, 0x04, 0x00, 0x00, 0x40,
   0x00, 0x00, 0x00, 0x00, 0x04, 0x00, 0x00, 0x40, 0x00, 0x00, 0x00, 0x00,
   0x04, 0x00, 0x00, 0x40, 0x00, 0x00, 0x00, 0x00, 0x04, 0x00, 0x00, 0x40,
   0x00, 0x00, 0x00, 0x00, 0x02, 0x00, 0x00, 0x80, 0x00, 0x00, 0x00, 0x00,
   0x02, 0x00, 0x00, 0x80, 0x00, 0x00, 0x00, 0x00, 0x02, 0x00, 0x01, 0x80,
   0x00, 0x00, 0x00, 0x00, 0x02, 0x00, 0x01, 0x80, 0x00, 0x00, 0x00, 0x00,
   0x02, 0x80, 0x02, 0x80, 0x00, 0x00, 0x00, 0x00, 0x02, 0x80, 0x02, 0x80,
   0x00, 0x00, 0x00, 0x00, 0x02, 0x40, 0x04, 0x80, 0x00, 0x00, 0x00, 0x00,
   0x02, 0x40, 0x04, 0x80, 0x00, 0x00, 0x00, 0x00, 0xf9, 0x27, 0x08, 0x00,
   0x01, 0x00, 0x00, 0x00, 0x01, 0x20, 0x08, 0x00, 0x01, 0xf8, 0xff, 0x07,
   0x02, 0x40, 0x04, 0x80, 0x00, 0x00, 0x00, 0x00, 0x02, 0x40, 0x04, 0x80,
   0x00, 0x00, 0x00, 0x00, 0x02, 0x80, 0x02, 0x80, 0x00, 0x00, 0x00, 0x00,
   0x02, 0x80, 0x02, 0x80, 0x00, 0xf8, 0xff, 0x07, 0x02, 0x00, 0x01, 0x80,
   0x00, 0x00, 0x00, 0x00, 0x02, 0x00, 0x01, 0x80, 0x00, 0xf8, 0xff, 0x07,
   0x02, 0x00, 0x00, 0x80, 0x00, 0x00, 0x00, 0x00, 0x02, 0x00, 0x00, 0x80,
   0x00, 0xf8, 0xff, 0x07, 0x04, 0x00, 0x00, 0x40, 0x00, 0x00, 0x00, 0x00,
   0x04, 0x00, 0x00, 0x40, 0x00, 0x00, 0x00, 0x00, 0x04, 0x00, 0x00, 0x40,
   0x00, 0x00, 0x00, 0x00, 0x04, 0x00, 0x00, 0x40, 0x00, 0xf8, 0xff, 0x07,
   0x08, 0x00, 0x00, 0x20, 0x00, 0x00, 0x00, 0x00, 0x08, 0x00, 0x00, 0x20,
   0x00, 0xf8, 0xff, 0x07, 0x08, 0x00, 0x00, 0x20, 0x00, 0x00, 0x00, 0x00,
   0x08, 0x00, 0x00, 0x20, 0x00, 0xf8, 0xff, 0x07, 0x10, 0x00, 0x00, 0x10,
   0x00, 0x00, 0x00, 0x00, 0x10, 0x00, 0x00, 0x10, 0x00, 0x00, 0x00, 0x00,
   0x20, 0x00, 0x00, 0x08, 0x00, 0x00, 0x00, 0x00, 0x20, 0x00, 0x00, 0x08,
   0x00, 0xf8, 0xff, 0x07, 0x40, 0x00, 0x00, 0x04, 0x00, 0x00, 0x00, 0x00,
   0x40, 0x00, 0x00, 0x04, 0x00, 0xf8, 0xff, 0x07, 0x80, 0x00, 0x00, 0x02,
   0x00, 0x00, 0x00, 0x00, 0x80, 0x00, 0x00, 0x02, 0x00, 0xf8, 0xff, 0x07,
   0x00, 0x03, 0x80, 0x01, 0x00, 0x00, 0x00, 0x00, 0x00, 0x03, 0x80, 0x01,
   0x00, 0x00, 0x00, 0x00, 0x00, 0x0c, 0x60, 0x00, 0x00, 0x00, 0x00, 0x00,
   0x00, 0x0c, 0x60, 0x00, 0x00, 0xf8, 0xff, 0x07, 0x00, 0xf0, 0x1e, 0x00,
   0x00, 0x00, 0x00, 0x00, 0x00, 0xf0, 0x1e, 0x00, 0x00, 0xf8, 0xff, 0x07,
   0x00, 0x00, 0x01, 0x00, 0x00, 0x00, 0x00, 0x00, 0x00, 0x00, 0x01, 0x00,
   0x00, 0xf8, 0xff, 0x07, 0x00, 0x00, 0x00, 0x00, 0x00, 0x00, 0x00, 0x00,
   0x00, 0x00, 0x00, 0x00, 0x00, 0x00, 0x00, 0x00, 0x00, 0x00, 0x00, 0x00,
   0x00, 0x00, 0x00, 0x00, 0x00, 0x00, 0x00, 0x00, 0x00, 0xf8, 0xff, 0x07,
   0x00, 0x00, 0x00, 0x00, 0x00, 0x00, 0x00, 0x00, 0x00, 0x00, 0x00, 0x00,
   0x00, 0xf8, 0xff, 0x07, 0x00, 0x00, 0x00, 0x00, 0x00, 0x00, 0x00, 0x00,
   0x00, 0x00, 0x00, 0x00, 0x00, 0xf8, 0xff, 0x07, 0x00, 0x00, 0x00, 0x00,
   0x00, 0x00, 0x00, 0x00, 0x00, 0x00, 0x00, 0x00, 0x00, 0x00, 0x00, 0x00,
   0x00, 0x00, 0x00, 0x00, 0x00, 0x00, 0x00, 0x00, 0x00, 0x00, 0x00, 0x00,
   0x00, 0xf8, 0xff, 0x07, 0x00, 0x00, 0x00, 0x00, 0x00, 0x00, 0x00, 0x00,
   0x00, 0x00, 0x00, 0x00, 0x00, 0xf8, 0xff, 0x07, 0x30, 0x40, 0x00, 0x00,
   0x00, 0x00, 0x00, 0x00, 0xfc, 0x40, 0x00, 0x10, 0x00, 0xf8, 0xff, 0x07,
   0x30, 0x40, 0x22, 0x00, 0x00, 0x00, 0x00, 0x00, 0xfc, 0x40, 0x1c, 0x90,
   0x07, 0x00, 0x00, 0x00, 0x3c, 0x40, 0x36, 0x00, 0x00, 0x00, 0x00, 0x00,
   0x03, 0x43, 0x22, 0x90, 0x08, 0xf8, 0xff, 0x07, 0x3c, 0x40, 0x2a, 0x00,
   0x00, 0x00, 0x00, 0x00, 0x03, 0x43, 0x02, 0x90, 0x08, 0xf8, 0xff, 0x07,
   0x30, 0x40, 0x22, 0x00, 0x00, 0x00, 0x00, 0x00, 0x00, 0x43, 0x1c, 0x90,
   0x07, 0xf8, 0xff, 0x07, 0x30, 0x40, 0x22, 0x00, 0x00, 0x00, 0x00, 0x00,
   0x00, 0x43, 0x20, 0x90, 0x02, 0x00, 0x00, 0x00, 0x30, 0x40, 0x22, 0x00,
   0x00, 0x00, 0x00, 0x00, 0xfc, 0x40, 0x22, 0x90, 0x04, 0xf8, 0xff, 0x07,
   0x30, 0x40, 0x22, 0x00, 0x00, 0x00, 0x00, 0x00, 0xfc, 0x40, 0x1c, 0x90,
   0x08, 0xf8, 0xff, 0x07, 0x30, 0x40, 0x00, 0x00, 0x00, 0x00, 0x00, 0x00,
   0x03, 0x40, 0x00, 0x10, 0x00, 0xf8, 0xff, 0x07, 0x30, 0xc0, 0xff, 0x00,
   0x00, 0x00, 0x00, 0x00, 0x03, 0xc0, 0xff, 0xf0, 0x3f, 0x00, 0x00, 0x00,
   0x30, 0x00, 0x00, 0x00, 0x00, 0x00, 0x00, 0x00, 0x03, 0x00, 0x00, 0x00,
   0x00, 0xf8, 0xff, 0x07, 0x30, 0x00, 0x00, 0x00, 0x00, 0x00, 0x00, 0x00,
   0x03, 0x00, 0x00, 0x00, 0x00, 0xf8, 0xff, 0x07, 0xfc, 0x00, 0x00, 0x00,
   0x00, 0x00, 0x00, 0x00, 0xff, 0x03, 0x00, 0x00, 0x00, 0xf8, 0xff, 0x07,
   0xfc, 0x00, 0x00, 0x00, 0x00, 0x00, 0x00, 0x00, 0xff, 0x03, 0x00, 0x00,
   0x00, 0x00, 0x00, 0x00 };
