<?xml version="1.0" encoding="UTF-8" standalone="no"?>
<!DOCTYPE svg PUBLIC "-//W3C//DTD SVG 1.1//EN"
 "http://www.w3.org/Graphics/SVG/1.1/DTD/svg11.dtd">
<!-- Generated by graphviz version 2.38.0 (20140413.2041)
 -->
<!-- Title: MCU::VUDisplay Pages: 1 -->
<svg width="178pt" height="485pt"
 viewBox="0.00 0.00 178.00 485.00" xmlns="http://www.w3.org/2000/svg" xmlns:xlink="http://www.w3.org/1999/xlink">
<g id="graph0" class="graph" transform="scale(1 1) rotate(0) translate(4 481)">
<title>MCU::VUDisplay</title>
<polygon fill="white" stroke="none" points="-4,4 -4,-481 174,-481 174,4 -4,4"/>
<!-- Node1 -->
<g id="node1" class="node"><title>Node1</title>
<g id="a_node1"><a xlink:title=" ">
<polygon fill="#bfbfbf" stroke="black" points="38.5,-0.5 38.5,-211.5 131.5,-211.5 131.5,-0.5 38.5,-0.5"/>
<text text-anchor="middle" x="85" y="-199.5" font-family="Helvetica,sans-Serif" font-size="10.00">MCU::VUDisplay</text>
<polyline fill="none" stroke="black" points="38.5,-192.5 131.5,-192.5 "/>
<text text-anchor="start" x="46.5" y="-180.5" font-family="Helvetica,sans-Serif" font-size="10.00">&#45; vu</text>
<text text-anchor="start" x="46.5" y="-169.5" font-family="Helvetica,sans-Serif" font-size="10.00">&#45; x</text>
<text text-anchor="start" x="46.5" y="-158.5" font-family="Helvetica,sans-Serif" font-size="10.00">&#45; y</text>
<text text-anchor="start" x="46.5" y="-147.5" font-family="Helvetica,sans-Serif" font-size="10.00">&#45; width</text>
<text text-anchor="start" x="46.5" y="-136.5" font-family="Helvetica,sans-Serif" font-size="10.00">&#45; blockheight</text>
<text text-anchor="start" x="46.5" y="-125.5" font-family="Helvetica,sans-Serif" font-size="10.00">&#45; spacing</text>
<text text-anchor="start" x="46.5" y="-114.5" font-family="Helvetica,sans-Serif" font-size="10.00">&#45; color</text>
<text text-anchor="start" x="46.5" y="-103.5" font-family="Helvetica,sans-Serif" font-size="10.00">&#45; peak</text>
<text text-anchor="start" x="46.5" y="-92.5" font-family="Helvetica,sans-Serif" font-size="10.00">&#45; previousDecay</text>
<text text-anchor="start" x="46.5" y="-81.5" font-family="Helvetica,sans-Serif" font-size="10.00">&#45; decaying</text>
<text text-anchor="start" x="46.5" y="-70.5" font-family="Helvetica,sans-Serif" font-size="10.00">&#45; decayTime</text>
<polyline fill="none" stroke="black" points="38.5,-63.5 131.5,-63.5 "/>
<text text-anchor="start" x="46.5" y="-51.5" font-family="Helvetica,sans-Serif" font-size="10.00">+ VUDisplay()</text>
<text text-anchor="start" x="46.5" y="-40.5" font-family="Helvetica,sans-Serif" font-size="10.00">+ draw()</text>
<text text-anchor="start" x="46.5" y="-29.5" font-family="Helvetica,sans-Serif" font-size="10.00"># drawPeak()</text>
<text text-anchor="start" x="46.5" y="-18.5" font-family="Helvetica,sans-Serif" font-size="10.00"># drawBlocks()</text>
<text text-anchor="start" x="46.5" y="-7.5" font-family="Helvetica,sans-Serif" font-size="10.00">&#45; updatePeak()</text>
</a>
</g>
</g>
<!-- Node2 -->
<g id="node2" class="node"><title>Node2</title>
<g id="a_node2"><a xlink:href="../../d8/d43/classDisplayElement.html" target="_top" xlink:title="An interface for elements that draw to a display.">
<polygon fill="white" stroke="black" points="31.5,-248.5 31.5,-371.5 138.5,-371.5 138.5,-248.5 31.5,-248.5"/>
<text text-anchor="middle" x="85" y="-359.5" font-family="Helvetica,sans-Serif" font-size="10.00">DisplayElement</text>
<polyline fill="none" stroke="black" points="31.5,-352.5 138.5,-352.5 "/>
<text text-anchor="start" x="39.5" y="-340.5" font-family="Helvetica,sans-Serif" font-size="10.00"># display</text>
<text text-anchor="start" x="39.5" y="-329.5" font-family="Helvetica,sans-Serif" font-size="10.00"># elements</text>
<polyline fill="none" stroke="black" points="31.5,-322.5 138.5,-322.5 "/>
<text text-anchor="start" x="39.5" y="-310.5" font-family="Helvetica,sans-Serif" font-size="10.00">+ ~DisplayElement()</text>
<text text-anchor="start" x="39.5" y="-299.5" font-family="Helvetica,sans-Serif" font-size="10.00">+ draw()</text>
<text text-anchor="start" x="39.5" y="-288.5" font-family="Helvetica,sans-Serif" font-size="10.00">+ getDisplay()</text>
<text text-anchor="start" x="39.5" y="-277.5" font-family="Helvetica,sans-Serif" font-size="10.00">+ getDisplay()</text>
<text text-anchor="start" x="39.5" y="-266.5" font-family="Helvetica,sans-Serif" font-size="10.00">+ getAll()</text>
<text text-anchor="start" x="39.5" y="-255.5" font-family="Helvetica,sans-Serif" font-size="10.00"># DisplayElement()</text>
</a>
</g>
</g>
<!-- Node2&#45;&gt;Node1 -->
<g id="edge1" class="edge"><title>Node2&#45;&gt;Node1</title>
<path fill="none" stroke="midnightblue" d="M85,-238.12C85,-229.553 85,-220.668 85,-211.744"/>
<polygon fill="none" stroke="midnightblue" points="81.5001,-238.393 85,-248.393 88.5001,-238.393 81.5001,-238.393"/>
</g>
<!-- Node3 -->
<g id="node3" class="node"><title>Node3</title>
<g id="a_node3"><a xlink:href="../../d4/d23/classDoublyLinkable.html" target="_top" xlink:title=" ">
<polygon fill="white" stroke="black" points="0,-408.5 0,-476.5 170,-476.5 170,-408.5 0,-408.5"/>
<text text-anchor="middle" x="85" y="-464.5" font-family="Helvetica,sans-Serif" font-size="10.00">DoublyLinkable&lt; DisplayElement &gt;</text>
<polyline fill="none" stroke="black" points="0,-457.5 170,-457.5 "/>
<text text-anchor="start" x="8" y="-445.5" font-family="Helvetica,sans-Serif" font-size="10.00"># next</text>
<text text-anchor="start" x="8" y="-434.5" font-family="Helvetica,sans-Serif" font-size="10.00"># previous</text>
<polyline fill="none" stroke="black" points="0,-427.5 170,-427.5 "/>
<text text-anchor="start" x="8" y="-415.5" font-family="Helvetica,sans-Serif" font-size="10.00"># ~DoublyLinkable()</text>
</a>
</g>
</g>
<!-- Node3&#45;&gt;Node2 -->
<g id="edge2" class="edge"><title>Node3&#45;&gt;Node2</title>
<path fill="none" stroke="midnightblue" d="M85,-398.169C85,-389.652 85,-380.572 85,-371.609"/>
<polygon fill="none" stroke="midnightblue" points="81.5001,-398.232 85,-408.232 88.5001,-398.232 81.5001,-398.232"/>
</g>
</g>
</svg>
