<?xml version="1.0" encoding="UTF-8" standalone="no"?>
<!DOCTYPE svg PUBLIC "-//W3C//DTD SVG 1.1//EN"
 "http://www.w3.org/Graphics/SVG/1.1/DTD/svg11.dtd">
<!-- Generated by graphviz version 2.43.0 (0)
 -->
<!-- Title: BitArray.hpp Pages: 1 -->
<svg width="749pt" height="522pt"
 viewBox="0.00 0.00 749.23 522.00" xmlns="http://www.w3.org/2000/svg" xmlns:xlink="http://www.w3.org/1999/xlink">
<g id="graph0" class="graph" transform="scale(1 1) rotate(0) translate(4 518)">
<title>BitArray.hpp</title>
<!-- Node1 -->
<g id="Node000001" class="node">
<title>Node1</title>
<g id="a_Node000001"><a xlink:title=" ">
<polygon fill="#999999" stroke="#666666" points="396.73,-514 320.73,-514 320.73,-495 396.73,-495 396.73,-514"/>
<text text-anchor="middle" x="358.73" y="-502" font-family="Helvetica,sans-Serif" font-size="10.00">BitArray.hpp</text>
</a>
</g>
</g>
<!-- Node2 -->
<g id="Node000002" class="node">
<title>Node2</title>
<g id="a_Node000002"><a xlink:href="../../d1/d93/Error_8hpp.html" target="_top" xlink:title=" ">
<polygon fill="white" stroke="#666666" points="410.73,-459 306.73,-459 306.73,-440 410.73,-440 410.73,-459"/>
<text text-anchor="middle" x="358.73" y="-447" font-family="Helvetica,sans-Serif" font-size="10.00">AH/Error/Error.hpp</text>
</a>
</g>
</g>
<!-- Node1&#45;&gt;Node2 -->
<g id="edge1_Node000001_Node000002" class="edge">
<title>Node1&#45;&gt;Node2</title>
<g id="a_edge1_Node000001_Node000002"><a xlink:title=" ">
<path fill="none" stroke="#63b8ff" d="M358.73,-494.75C358.73,-487.8 358.73,-477.85 358.73,-469.13"/>
<polygon fill="#63b8ff" stroke="#63b8ff" points="362.23,-469.09 358.73,-459.09 355.23,-469.09 362.23,-469.09"/>
</a>
</g>
</g>
<!-- Node10 -->
<g id="Node000010" class="node">
<title>Node10</title>
<g id="a_Node000010"><a xlink:href="../../d6/db0/AH_2Settings_2NamespaceSettings_8hpp.html" target="_top" xlink:title=" ">
<polygon fill="white" stroke="#666666" points="355.23,-74 160.23,-74 160.23,-55 355.23,-55 355.23,-74"/>
<text text-anchor="middle" x="257.73" y="-62" font-family="Helvetica,sans-Serif" font-size="10.00">AH/Settings/NamespaceSettings.hpp</text>
</a>
</g>
</g>
<!-- Node1&#45;&gt;Node10 -->
<g id="edge29_Node000001_Node000010" class="edge">
<title>Node1&#45;&gt;Node10</title>
<g id="a_edge29_Node000001_Node000010"><a xlink:title=" ">
<path fill="none" stroke="#63b8ff" d="M320.41,-500.14C228.06,-490.98 0.73,-461.72 0.73,-395.5 0.73,-395.5 0.73,-395.5 0.73,-173.5 0.73,-144.04 -2.18,-129.7 19.73,-110 39.29,-92.4 96.65,-81.37 150.15,-74.7"/>
<polygon fill="#63b8ff" stroke="#63b8ff" points="150.58,-78.17 160.09,-73.5 149.74,-71.22 150.58,-78.17"/>
</a>
</g>
</g>
<!-- Node19 -->
<g id="Node000019" class="node">
<title>Node19</title>
<g id="a_Node000019"><a xlink:title=" ">
<polygon fill="#e0e0e0" stroke="#999999" points="741.23,-239 688.23,-239 688.23,-220 741.23,-220 741.23,-239"/>
<text text-anchor="middle" x="714.73" y="-227" font-family="Helvetica,sans-Serif" font-size="10.00">stdint.h</text>
</a>
</g>
</g>
<!-- Node1&#45;&gt;Node19 -->
<g id="edge30_Node000001_Node000019" class="edge">
<title>Node1&#45;&gt;Node19</title>
<g id="a_edge30_Node000001_Node000019"><a xlink:title=" ">
<path fill="none" stroke="#63b8ff" d="M396.86,-498.46C479.91,-486.42 669.73,-452.66 669.73,-395.5 669.73,-395.5 669.73,-395.5 669.73,-338.5 669.73,-304.31 689.18,-268.38 702.51,-247.79"/>
<polygon fill="#63b8ff" stroke="#63b8ff" points="705.59,-249.48 708.28,-239.23 699.79,-245.57 705.59,-249.48"/>
</a>
</g>
</g>
<!-- Node3 -->
<g id="Node000003" class="node">
<title>Node3</title>
<g id="a_Node000003"><a xlink:href="../../df/dee/Debug_8hpp.html" target="_top" xlink:title=" ">
<polygon fill="white" stroke="#666666" points="419.23,-404 298.23,-404 298.23,-385 419.23,-385 419.23,-404"/>
<text text-anchor="middle" x="358.73" y="-392" font-family="Helvetica,sans-Serif" font-size="10.00">AH/Debug/Debug.hpp</text>
</a>
</g>
</g>
<!-- Node2&#45;&gt;Node3 -->
<g id="edge2_Node000002_Node000003" class="edge">
<title>Node2&#45;&gt;Node3</title>
<g id="a_edge2_Node000002_Node000003"><a xlink:title=" ">
<path fill="none" stroke="#63b8ff" d="M358.73,-439.75C358.73,-432.8 358.73,-422.85 358.73,-414.13"/>
<polygon fill="#63b8ff" stroke="#63b8ff" points="362.23,-414.09 358.73,-404.09 355.23,-414.09 362.23,-414.09"/>
</a>
</g>
</g>
<!-- Node4 -->
<g id="Node000004" class="node">
<title>Node4</title>
<g id="a_Node000004"><a xlink:href="../../dd/d80/PrintStream_8hpp.html" target="_top" xlink:title=" ">
<polygon fill="white" stroke="#666666" points="244.23,-239 71.23,-239 71.23,-220 244.23,-220 244.23,-239"/>
<text text-anchor="middle" x="157.73" y="-227" font-family="Helvetica,sans-Serif" font-size="10.00">AH/PrintStream/PrintStream.hpp</text>
</a>
</g>
</g>
<!-- Node3&#45;&gt;Node4 -->
<g id="edge3_Node000003_Node000004" class="edge">
<title>Node3&#45;&gt;Node4</title>
<g id="a_edge3_Node000003_Node000004"><a xlink:title=" ">
<path fill="none" stroke="#63b8ff" d="M332.11,-384.95C311.4,-377.49 282.6,-365.31 260.73,-349 221.2,-319.52 186.1,-272.54 168.91,-247.5"/>
<polygon fill="#63b8ff" stroke="#63b8ff" points="171.72,-245.41 163.23,-239.07 165.92,-249.32 171.72,-245.41"/>
</a>
</g>
</g>
<!-- Node13 -->
<g id="Node000013" class="node">
<title>Node13</title>
<g id="a_Node000013"><a xlink:href="../../de/dd1/AH_2Settings_2SettingsWrapper_8hpp.html" target="_top" xlink:title=" ">
<polygon fill="white" stroke="#666666" points="447.73,-349 269.73,-349 269.73,-330 447.73,-330 447.73,-349"/>
<text text-anchor="middle" x="358.73" y="-337" font-family="Helvetica,sans-Serif" font-size="10.00">AH/Settings/SettingsWrapper.hpp</text>
</a>
</g>
</g>
<!-- Node3&#45;&gt;Node13 -->
<g id="edge16_Node000003_Node000013" class="edge">
<title>Node3&#45;&gt;Node13</title>
<g id="a_edge16_Node000003_Node000013"><a xlink:title=" ">
<path fill="none" stroke="#63b8ff" d="M353.56,-384.75C352.07,-377.8 351.63,-367.85 352.25,-359.13"/>
<polygon fill="#63b8ff" stroke="#63b8ff" points="355.73,-359.47 353.59,-349.09 348.8,-358.53 355.73,-359.47"/>
</a>
</g>
</g>
<!-- Node21 -->
<g id="Node000021" class="node">
<title>Node21</title>
<g id="a_Node000021"><a xlink:href="../../d7/d52/DebugVal_8hpp.html" target="_top" xlink:title=" ">
<polygon fill="white" stroke="#666666" points="549.73,-349 465.73,-349 465.73,-330 549.73,-330 549.73,-349"/>
<text text-anchor="middle" x="507.73" y="-337" font-family="Helvetica,sans-Serif" font-size="10.00">DebugVal.hpp</text>
</a>
</g>
</g>
<!-- Node3&#45;&gt;Node21 -->
<g id="edge28_Node000003_Node000021" class="edge">
<title>Node3&#45;&gt;Node21</title>
<g id="a_edge28_Node000003_Node000021"><a xlink:title=" ">
<path fill="none" stroke="#63b8ff" d="M382.67,-384.98C407.28,-376.23 445.85,-362.51 473.64,-352.62"/>
<polygon fill="#63b8ff" stroke="#63b8ff" points="475.1,-355.82 483.35,-349.17 472.76,-349.22 475.1,-355.82"/>
</a>
</g>
</g>
<!-- Node5 -->
<g id="Node000005" class="node">
<title>Node5</title>
<g id="a_Node000005"><a xlink:href="../../d6/ddf/Arduino-Wrapper_8h.html" target="_top" xlink:title=" ">
<polygon fill="white" stroke="#666666" points="608.73,-184 484.73,-184 484.73,-165 608.73,-165 608.73,-184"/>
<text text-anchor="middle" x="546.73" y="-172" font-family="Helvetica,sans-Serif" font-size="10.00">AH/Arduino&#45;Wrapper.h</text>
</a>
</g>
</g>
<!-- Node4&#45;&gt;Node5 -->
<g id="edge4_Node000004_Node000005" class="edge">
<title>Node4&#45;&gt;Node5</title>
<g id="a_edge4_Node000004_Node000005"><a xlink:title=" ">
<path fill="none" stroke="#63b8ff" d="M220.23,-219.98C289.66,-210.52 401.59,-195.27 474.66,-185.32"/>
<polygon fill="#63b8ff" stroke="#63b8ff" points="475.27,-188.77 484.7,-183.95 474.32,-181.83 475.27,-188.77"/>
</a>
</g>
</g>
<!-- Node4&#45;&gt;Node10 -->
<g id="edge13_Node000004_Node000010" class="edge">
<title>Node4&#45;&gt;Node10</title>
<g id="a_edge13_Node000004_Node000010"><a xlink:title=" ">
<path fill="none" stroke="#63b8ff" d="M163.1,-219.74C178.97,-193.87 225.84,-117.48 247.06,-82.88"/>
<polygon fill="#63b8ff" stroke="#63b8ff" points="250.08,-84.66 252.32,-74.31 244.11,-81 250.08,-84.66"/>
</a>
</g>
</g>
<!-- Node12 -->
<g id="Node000012" class="node">
<title>Node12</title>
<g id="a_Node000012"><a xlink:href="../../d0/da7/Settings_2NamespaceSettings_8hpp.html" target="_top" xlink:title=" ">
<polygon fill="white" stroke="#666666" points="206.73,-129 28.73,-129 28.73,-110 206.73,-110 206.73,-129"/>
<text text-anchor="middle" x="117.73" y="-117" font-family="Helvetica,sans-Serif" font-size="10.00">Settings/NamespaceSettings.hpp</text>
</a>
</g>
</g>
<!-- Node4&#45;&gt;Node12 -->
<g id="edge14_Node000004_Node000012" class="edge">
<title>Node4&#45;&gt;Node12</title>
<g id="a_edge14_Node000004_Node000012"><a xlink:title=" ">
<path fill="none" stroke="#63b8ff" d="M154.45,-219.66C147.92,-202.01 133.13,-162.09 124.44,-138.64"/>
<polygon fill="#63b8ff" stroke="#63b8ff" points="127.69,-137.32 120.93,-129.16 121.12,-139.75 127.69,-137.32"/>
</a>
</g>
</g>
<!-- Node6 -->
<g id="Node000006" class="node">
<title>Node6</title>
<g id="a_Node000006"><a xlink:href="../../d7/d79/MinMaxFix_8hpp.html" target="_top" xlink:title=" ">
<polygon fill="white" stroke="#666666" points="474.73,-129 338.73,-129 338.73,-110 474.73,-110 474.73,-129"/>
<text text-anchor="middle" x="406.73" y="-117" font-family="Helvetica,sans-Serif" font-size="10.00">AH/Math/MinMaxFix.hpp</text>
</a>
</g>
</g>
<!-- Node5&#45;&gt;Node6 -->
<g id="edge5_Node000005_Node000006" class="edge">
<title>Node5&#45;&gt;Node6</title>
<g id="a_edge5_Node000005_Node000006"><a xlink:title=" ">
<path fill="none" stroke="#63b8ff" d="M524.23,-164.98C501.2,-156.27 465.19,-142.63 439.09,-132.75"/>
<polygon fill="#63b8ff" stroke="#63b8ff" points="440.22,-129.44 429.63,-129.17 437.74,-135.98 440.22,-129.44"/>
</a>
</g>
</g>
<!-- Node9 -->
<g id="Node000009" class="node">
<title>Node9</title>
<g id="a_Node000009"><a xlink:title=" ">
<polygon fill="#e0e0e0" stroke="#999999" points="575.23,-19 512.23,-19 512.23,0 575.23,0 575.23,-19"/>
<text text-anchor="middle" x="543.73" y="-7" font-family="Helvetica,sans-Serif" font-size="10.00">Arduino.h</text>
</a>
</g>
</g>
<!-- Node5&#45;&gt;Node9 -->
<g id="edge12_Node000005_Node000009" class="edge">
<title>Node5&#45;&gt;Node9</title>
<g id="a_edge12_Node000005_Node000009"><a xlink:title=" ">
<path fill="none" stroke="#63b8ff" d="M567.88,-164.93C582.55,-157.73 600.98,-145.88 609.73,-129 613.61,-121.5 612.16,-118.08 609.73,-110 599.81,-77.13 575.1,-45.14 558.89,-26.65"/>
<polygon fill="#63b8ff" stroke="#63b8ff" points="561.42,-24.23 552.12,-19.15 556.22,-28.92 561.42,-24.23"/>
</a>
</g>
</g>
<!-- Node11 -->
<g id="Node000011" class="node">
<title>Node11</title>
<g id="a_Node000011"><a xlink:title=" ">
<polygon fill="#e0e0e0" stroke="#999999" points="600.23,-129 493.23,-129 493.23,-110 600.23,-110 600.23,-129"/>
<text text-anchor="middle" x="546.73" y="-117" font-family="Helvetica,sans-Serif" font-size="10.00">AH/STL/type_traits</text>
</a>
</g>
</g>
<!-- Node5&#45;&gt;Node11 -->
<g id="edge11_Node000005_Node000011" class="edge">
<title>Node5&#45;&gt;Node11</title>
<g id="a_edge11_Node000005_Node000011"><a xlink:title=" ">
<path fill="none" stroke="#63b8ff" d="M546.73,-164.75C546.73,-157.8 546.73,-147.85 546.73,-139.13"/>
<polygon fill="#63b8ff" stroke="#63b8ff" points="550.23,-139.09 546.73,-129.09 543.23,-139.09 550.23,-139.09"/>
</a>
</g>
</g>
<!-- Node7 -->
<g id="Node000007" class="node">
<title>Node7</title>
<g id="a_Node000007"><a xlink:href="../../d6/d3b/FixArduinoMacros_8hpp.html" target="_top" xlink:title=" ">
<polygon fill="white" stroke="#666666" points="543.73,-74 373.73,-74 373.73,-55 543.73,-55 543.73,-74"/>
<text text-anchor="middle" x="458.73" y="-62" font-family="Helvetica,sans-Serif" font-size="10.00">AH/Math/FixArduinoMacros.hpp</text>
</a>
</g>
</g>
<!-- Node6&#45;&gt;Node7 -->
<g id="edge6_Node000006_Node000007" class="edge">
<title>Node6&#45;&gt;Node7</title>
<g id="a_edge6_Node000006_Node000007"><a xlink:title=" ">
<path fill="none" stroke="#63b8ff" d="M415.31,-109.75C422.88,-102.03 434.1,-90.6 443.24,-81.28"/>
<polygon fill="#63b8ff" stroke="#63b8ff" points="445.79,-83.68 450.3,-74.09 440.8,-78.78 445.79,-83.68"/>
</a>
</g>
</g>
<!-- Node6&#45;&gt;Node10 -->
<g id="edge9_Node000006_Node000010" class="edge">
<title>Node6&#45;&gt;Node10</title>
<g id="a_edge9_Node000006_Node000010"><a xlink:title=" ">
<path fill="none" stroke="#63b8ff" d="M382.79,-109.98C358.17,-101.23 319.61,-87.51 291.81,-77.62"/>
<polygon fill="#63b8ff" stroke="#63b8ff" points="292.7,-74.22 282.1,-74.17 290.35,-80.82 292.7,-74.22"/>
</a>
</g>
</g>
<!-- Node8 -->
<g id="Node000008" class="node">
<title>Node8</title>
<g id="a_Node000008"><a xlink:href="../../d1/d65/Warnings_8hpp.html" target="_top" xlink:title=" ">
<polygon fill="white" stroke="#666666" points="329.23,-19 186.23,-19 186.23,0 329.23,0 329.23,-19"/>
<text text-anchor="middle" x="257.73" y="-7" font-family="Helvetica,sans-Serif" font-size="10.00">AH/Settings/Warnings.hpp</text>
</a>
</g>
</g>
<!-- Node7&#45;&gt;Node8 -->
<g id="edge7_Node000007_Node000008" class="edge">
<title>Node7&#45;&gt;Node8</title>
<g id="a_edge7_Node000007_Node000008"><a xlink:title=" ">
<path fill="none" stroke="#63b8ff" d="M426.43,-54.98C392.1,-45.93 337.67,-31.58 299.96,-21.64"/>
<polygon fill="#63b8ff" stroke="#63b8ff" points="300.84,-18.25 290.27,-19.08 299.05,-25.02 300.84,-18.25"/>
</a>
</g>
</g>
<!-- Node7&#45;&gt;Node9 -->
<g id="edge8_Node000007_Node000009" class="edge">
<title>Node7&#45;&gt;Node9</title>
<g id="a_edge8_Node000007_Node000009"><a xlink:title=" ">
<path fill="none" stroke="#63b8ff" d="M472.38,-54.98C485.56,-46.77 505.75,-34.18 521.3,-24.49"/>
<polygon fill="#63b8ff" stroke="#63b8ff" points="523.19,-27.43 529.82,-19.17 519.48,-21.49 523.19,-27.43"/>
</a>
</g>
</g>
<!-- Node10&#45;&gt;Node8 -->
<g id="edge10_Node000010_Node000008" class="edge">
<title>Node10&#45;&gt;Node8</title>
<g id="a_edge10_Node000010_Node000008"><a xlink:title=" ">
<path fill="none" stroke="#63b8ff" d="M257.73,-54.75C257.73,-47.8 257.73,-37.85 257.73,-29.13"/>
<polygon fill="#63b8ff" stroke="#63b8ff" points="261.23,-29.09 257.73,-19.09 254.23,-29.09 261.23,-29.09"/>
</a>
</g>
</g>
<!-- Node12&#45;&gt;Node8 -->
<g id="edge15_Node000012_Node000008" class="edge">
<title>Node12&#45;&gt;Node8</title>
<g id="a_edge15_Node000012_Node000008"><a xlink:title=" ">
<path fill="none" stroke="#63b8ff" d="M120.09,-109.93C124.21,-96.5 133.89,-70.46 150.73,-55 167.54,-39.56 190.46,-29.07 210.77,-22.17"/>
<polygon fill="#63b8ff" stroke="#63b8ff" points="212.04,-25.44 220.5,-19.06 209.91,-18.77 212.04,-25.44"/>
</a>
</g>
</g>
<!-- Node13&#45;&gt;Node3 -->
<g id="edge27_Node000013_Node000003" class="edge">
<title>Node13&#45;&gt;Node3</title>
<g id="a_edge27_Node000013_Node000003"><a xlink:title=" ">
<path fill="none" stroke="#63b8ff" d="M363.86,-349.09C365.37,-355.99 365.82,-365.93 365.22,-374.66"/>
<polygon fill="#63b8ff" stroke="#63b8ff" points="361.73,-374.38 363.89,-384.75 368.67,-375.29 361.73,-374.38"/>
</a>
</g>
</g>
<!-- Node13&#45;&gt;Node10 -->
<g id="edge17_Node000013_Node000010" class="edge">
<title>Node13&#45;&gt;Node10</title>
<g id="a_edge17_Node000013_Node000010"><a xlink:title=" ">
<path fill="none" stroke="#63b8ff" d="M338.97,-329.99C323.95,-322.55 303.86,-310.38 291.73,-294 274.19,-270.33 272.73,-259.96 272.73,-230.5 272.73,-230.5 272.73,-230.5 272.73,-173.5 272.73,-141.89 266.34,-105.56 261.91,-84.13"/>
<polygon fill="#63b8ff" stroke="#63b8ff" points="265.28,-83.16 259.75,-74.12 258.43,-84.64 265.28,-83.16"/>
</a>
</g>
</g>
<!-- Node14 -->
<g id="Node000014" class="node">
<title>Node14</title>
<g id="a_Node000014"><a xlink:href="../../d5/d4f/AH_2Settings_2Settings_8hpp.html" target="_top" xlink:title="All user settings and debugging options can be changed here.">
<polygon fill="white" stroke="#666666" points="569.23,-294 492.23,-294 492.23,-275 569.23,-275 569.23,-294"/>
<text text-anchor="middle" x="530.73" y="-282" font-family="Helvetica,sans-Serif" font-size="10.00">Settings.hpp</text>
</a>
</g>
</g>
<!-- Node13&#45;&gt;Node14 -->
<g id="edge18_Node000013_Node000014" class="edge">
<title>Node13&#45;&gt;Node14</title>
<g id="a_edge18_Node000013_Node000014"><a xlink:title=" ">
<path fill="none" stroke="#63b8ff" d="M386.36,-329.98C415.24,-321.09 460.74,-307.07 492.93,-297.15"/>
<polygon fill="#63b8ff" stroke="#63b8ff" points="494.35,-300.37 502.87,-294.08 492.29,-293.68 494.35,-300.37"/>
</a>
</g>
</g>
<!-- Node20 -->
<g id="Node000020" class="node">
<title>Node20</title>
<g id="a_Node000020"><a xlink:href="../../d9/d98/TeensyUSBTypes_8hpp.html" target="_top" xlink:title=" ">
<polygon fill="white" stroke="#666666" points="474.23,-294 301.23,-294 301.23,-275 474.23,-275 474.23,-294"/>
<text text-anchor="middle" x="387.73" y="-282" font-family="Helvetica,sans-Serif" font-size="10.00">AH/Teensy/TeensyUSBTypes.hpp</text>
</a>
</g>
</g>
<!-- Node13&#45;&gt;Node20 -->
<g id="edge26_Node000013_Node000020" class="edge">
<title>Node13&#45;&gt;Node20</title>
<g id="a_edge26_Node000013_Node000020"><a xlink:title=" ">
<path fill="none" stroke="#63b8ff" d="M363.51,-329.75C367.48,-322.49 373.25,-311.95 378.16,-302.98"/>
<polygon fill="#63b8ff" stroke="#63b8ff" points="381.3,-304.54 383.03,-294.09 375.16,-301.18 381.3,-304.54"/>
</a>
</g>
</g>
<!-- Node15 -->
<g id="Node000015" class="node">
<title>Node15</title>
<g id="a_Node000015"><a xlink:href="../../dc/d50/Frequency_8hpp.html" target="_top" xlink:title=" ">
<polygon fill="white" stroke="#666666" points="434.73,-184 300.73,-184 300.73,-165 434.73,-165 434.73,-184"/>
<text text-anchor="middle" x="367.73" y="-172" font-family="Helvetica,sans-Serif" font-size="10.00">AH/Types/Frequency.hpp</text>
</a>
</g>
</g>
<!-- Node14&#45;&gt;Node15 -->
<g id="edge19_Node000014_Node000015" class="edge">
<title>Node14&#45;&gt;Node15</title>
<g id="a_edge19_Node000014_Node000015"><a xlink:title=" ">
<path fill="none" stroke="#63b8ff" d="M492.03,-276.08C443.89,-266.45 366.96,-249.64 358.73,-239 348.84,-226.23 353.04,-207.55 358.55,-193.75"/>
<polygon fill="#63b8ff" stroke="#63b8ff" points="361.87,-194.89 362.79,-184.33 355.49,-192.01 361.87,-194.89"/>
</a>
</g>
</g>
<!-- Node16 -->
<g id="Node000016" class="node">
<title>Node16</title>
<g id="a_Node000016"><a xlink:href="../../d7/d7c/ADCConfig_8hpp.html" target="_top" xlink:title="This file contains the platform&#45;specific ADC resolutions.">
<polygon fill="white" stroke="#666666" points="670.23,-239 513.23,-239 513.23,-220 670.23,-220 670.23,-239"/>
<text text-anchor="middle" x="591.73" y="-227" font-family="Helvetica,sans-Serif" font-size="10.00">AH/Hardware/ADCConfig.hpp</text>
</a>
</g>
</g>
<!-- Node14&#45;&gt;Node16 -->
<g id="edge21_Node000014_Node000016" class="edge">
<title>Node14&#45;&gt;Node16</title>
<g id="a_edge21_Node000014_Node000016"><a xlink:title=" ">
<path fill="none" stroke="#63b8ff" d="M540.53,-274.98C549.54,-267.15 563.13,-255.34 574.04,-245.86"/>
<polygon fill="#63b8ff" stroke="#63b8ff" points="576.49,-248.37 581.75,-239.17 571.9,-243.09 576.49,-248.37"/>
</a>
</g>
</g>
<!-- Node17 -->
<g id="Node000017" class="node">
<title>Node17</title>
<g id="a_Node000017"><a xlink:title=" ">
<polygon fill="#e0e0e0" stroke="#999999" points="495.23,-239 442.23,-239 442.23,-220 495.23,-220 495.23,-239"/>
<text text-anchor="middle" x="468.73" y="-227" font-family="Helvetica,sans-Serif" font-size="10.00">limits.h</text>
</a>
</g>
</g>
<!-- Node14&#45;&gt;Node17 -->
<g id="edge23_Node000014_Node000017" class="edge">
<title>Node14&#45;&gt;Node17</title>
<g id="a_edge23_Node000014_Node000017"><a xlink:title=" ">
<path fill="none" stroke="#63b8ff" d="M520.76,-274.98C511.6,-267.15 497.79,-255.34 486.7,-245.86"/>
<polygon fill="#63b8ff" stroke="#63b8ff" points="488.74,-243.01 478.87,-239.17 484.2,-248.33 488.74,-243.01"/>
</a>
</g>
</g>
<!-- Node18 -->
<g id="Node000018" class="node">
<title>Node18</title>
<g id="a_Node000018"><a xlink:title=" ">
<polygon fill="#e0e0e0" stroke="#999999" points="423.73,-239 367.73,-239 367.73,-220 423.73,-220 423.73,-239"/>
<text text-anchor="middle" x="395.73" y="-227" font-family="Helvetica,sans-Serif" font-size="10.00">stddef.h</text>
</a>
</g>
</g>
<!-- Node14&#45;&gt;Node18 -->
<g id="edge24_Node000014_Node000018" class="edge">
<title>Node14&#45;&gt;Node18</title>
<g id="a_edge24_Node000014_Node000018"><a xlink:title=" ">
<path fill="none" stroke="#63b8ff" d="M509.04,-274.98C486.93,-266.3 452.4,-252.75 427.27,-242.88"/>
<polygon fill="#63b8ff" stroke="#63b8ff" points="428.4,-239.57 417.81,-239.17 425.84,-246.08 428.4,-239.57"/>
</a>
</g>
</g>
<!-- Node14&#45;&gt;Node19 -->
<g id="edge25_Node000014_Node000019" class="edge">
<title>Node14&#45;&gt;Node19</title>
<g id="a_edge25_Node000014_Node000019"><a xlink:title=" ">
<path fill="none" stroke="#63b8ff" d="M560.29,-274.98C592.46,-265.72 643.93,-250.89 678.51,-240.93"/>
<polygon fill="#63b8ff" stroke="#63b8ff" points="679.58,-244.27 688.22,-238.13 677.64,-237.54 679.58,-244.27"/>
</a>
</g>
</g>
<!-- Node15&#45;&gt;Node10 -->
<g id="edge20_Node000015_Node000010" class="edge">
<title>Node15&#45;&gt;Node10</title>
<g id="a_edge20_Node000015_Node000010"><a xlink:title=" ">
<path fill="none" stroke="#63b8ff" d="M358.72,-164.66C340.1,-146.38 297.12,-104.18 273.68,-81.17"/>
<polygon fill="#63b8ff" stroke="#63b8ff" points="276.13,-78.67 266.54,-74.16 271.23,-83.66 276.13,-78.67"/>
</a>
</g>
</g>
<!-- Node16&#45;&gt;Node5 -->
<g id="edge22_Node000016_Node000005" class="edge">
<title>Node16&#45;&gt;Node5</title>
<g id="a_edge22_Node000016_Node000005"><a xlink:title=" ">
<path fill="none" stroke="#63b8ff" d="M584.3,-219.75C577.87,-212.18 568.42,-201.05 560.6,-191.84"/>
<polygon fill="#63b8ff" stroke="#63b8ff" points="563.16,-189.45 554.02,-184.09 557.82,-193.98 563.16,-189.45"/>
</a>
</g>
</g>
</g>
</svg>
