<?xml version="1.0" encoding="UTF-8" standalone="no"?>
<!DOCTYPE svg PUBLIC "-//W3C//DTD SVG 1.1//EN"
 "http://www.w3.org/Graphics/SVG/1.1/DTD/svg11.dtd">
<!-- Generated by graphviz version 2.43.0 (0)
 -->
<!-- Title: NoteCCKPValue&lt; Type, BankSize &gt; Pages: 1 -->
<svg width="707pt" height="1714pt"
 viewBox="0.00 0.00 707.00 1714.00" xmlns="http://www.w3.org/2000/svg" xmlns:xlink="http://www.w3.org/1999/xlink">
<g id="graph0" class="graph" transform="scale(1 1) rotate(0) translate(4 1710)">
<title>NoteCCKPValue&lt; Type, BankSize &gt;</title>
<!-- Node1 -->
<g id="Node000001" class="node">
<title>Node1</title>
<g id="a_Node000001"><a xlink:title="Generic base class for classes that listen for MIDI Note, Control Change and Key Pressure events on a...">
<polygon fill="#999999" stroke="transparent" points="566.5,-150 429.5,-150 429.5,0 566.5,0 566.5,-150"/>
<text text-anchor="start" x="441.5" y="-138" font-family="Helvetica,sans-Serif" font-size="10.00">NoteCCKPValue&lt; Type,</text>
<text text-anchor="start" x="468.5" y="-127" font-family="Helvetica,sans-Serif" font-size="10.00"> BankSize &gt;</text>
<text text-anchor="start" x="496.5" y="-112" font-family="Helvetica,sans-Serif" font-size="10.00"> </text>
<text text-anchor="start" x="434" y="-97" font-family="Helvetica,sans-Serif" font-size="10.00">+</text>
<text text-anchor="start" x="447" y="-97" font-family="Helvetica,sans-Serif" font-size="10.00">NoteCCKPValue()</text>
<text text-anchor="start" x="434" y="-82" font-family="Helvetica,sans-Serif" font-size="10.00">+</text>
<text text-anchor="start" x="447" y="-82" font-family="Helvetica,sans-Serif" font-size="10.00">reset()</text>
<text text-anchor="start" x="434" y="-67" font-family="Helvetica,sans-Serif" font-size="10.00">#</text>
<text text-anchor="start" x="447" y="-67" font-family="Helvetica,sans-Serif" font-size="10.00">handleUpdateImpl()</text>
<text text-anchor="start" x="434" y="-52" font-family="Helvetica,sans-Serif" font-size="10.00">#</text>
<text text-anchor="start" x="447" y="-52" font-family="Helvetica,sans-Serif" font-size="10.00">handleUpdate()</text>
<text text-anchor="start" x="434" y="-37" font-family="Helvetica,sans-Serif" font-size="10.00">#</text>
<text text-anchor="start" x="447" y="-37" font-family="Helvetica,sans-Serif" font-size="10.00">onBankSettingChange()</text>
<text text-anchor="start" x="435.5" y="-22" font-family="Helvetica,sans-Serif" font-size="10.00">*</text>
<text text-anchor="start" x="447" y="-22" font-family="Helvetica,sans-Serif" font-size="10.00">getValue()</text>
<text text-anchor="start" x="435.5" y="-7" font-family="Helvetica,sans-Serif" font-size="10.00">*</text>
<text text-anchor="start" x="447" y="-7" font-family="Helvetica,sans-Serif" font-size="10.00">getValue()</text>
<polygon fill="#666666" stroke="#666666" points="430,-122 430,-122 567,-122 567,-122 430,-122"/>
<polygon fill="#666666" stroke="#666666" points="430,-107 430,-107 567,-107 567,-107 430,-107"/>
<polygon fill="none" stroke="#666666" points="429.5,0 429.5,-150 566.5,-150 566.5,0 429.5,0"/>
</a>
</g>
</g>
<!-- Node2 -->
<g id="Node000002" class="node">
<title>Node2</title>
<g id="a_Node000002"><a xlink:href="../../d9/dc0/classBankableMatchingMIDIInputElement.html" target="_top" xlink:title=" ">
<polygon fill="white" stroke="transparent" points="266.5,-611 89.5,-611 89.5,-203 266.5,-203 266.5,-611"/>
<text text-anchor="start" x="95" y="-599" font-family="Helvetica,sans-Serif" font-size="10.00">BankableMatchingMIDIInput</text>
<text text-anchor="start" x="95" y="-588" font-family="Helvetica,sans-Serif" font-size="10.00">Element&lt; Type, BankableTwoByte</text>
<text text-anchor="start" x="107.5" y="-577" font-family="Helvetica,sans-Serif" font-size="10.00">MIDIMatcher&lt; BankSize &gt; &gt;</text>
<text text-anchor="start" x="96.5" y="-562" font-family="Helvetica,sans-Serif" font-size="10.00">#</text>
<text text-anchor="start" x="112" y="-562" font-family="Helvetica,sans-Serif" font-size="10.00">matcher</text>
<text text-anchor="start" x="96.5" y="-547" font-family="Helvetica,sans-Serif" font-size="10.00">#</text>
<text text-anchor="start" x="112" y="-547" font-family="Helvetica,sans-Serif" font-size="10.00">next</text>
<text text-anchor="start" x="96.5" y="-532" font-family="Helvetica,sans-Serif" font-size="10.00">#</text>
<text text-anchor="start" x="112" y="-532" font-family="Helvetica,sans-Serif" font-size="10.00">previous</text>
<text text-anchor="start" x="96.5" y="-517" font-family="Helvetica,sans-Serif" font-size="10.00">#</text>
<text text-anchor="start" x="112" y="-517" font-family="Helvetica,sans-Serif" font-size="10.00">next</text>
<text text-anchor="start" x="96.5" y="-502" font-family="Helvetica,sans-Serif" font-size="10.00">#</text>
<text text-anchor="start" x="112" y="-502" font-family="Helvetica,sans-Serif" font-size="10.00">previous</text>
<text text-anchor="start" x="96.5" y="-487" font-family="Helvetica,sans-Serif" font-size="10.00">#</text>
<text text-anchor="start" x="112" y="-487" font-family="Helvetica,sans-Serif" font-size="10.00">updatables</text>
<text text-anchor="start" x="96.5" y="-472" font-family="Helvetica,sans-Serif" font-size="10.00">+</text>
<text text-anchor="start" x="112" y="-472" font-family="Helvetica,sans-Serif" font-size="10.00">~BankableMatchingMIDIInput</text>
<text text-anchor="start" x="112" y="-461" font-family="Helvetica,sans-Serif" font-size="10.00">Element()</text>
<text text-anchor="start" x="96.5" y="-446" font-family="Helvetica,sans-Serif" font-size="10.00">+</text>
<text text-anchor="start" x="112" y="-446" font-family="Helvetica,sans-Serif" font-size="10.00">updateWith()</text>
<text text-anchor="start" x="96.5" y="-431" font-family="Helvetica,sans-Serif" font-size="10.00">+</text>
<text text-anchor="start" x="112" y="-431" font-family="Helvetica,sans-Serif" font-size="10.00">handleUpdate()</text>
<text text-anchor="start" x="96.5" y="-416" font-family="Helvetica,sans-Serif" font-size="10.00">+</text>
<text text-anchor="start" x="112" y="-416" font-family="Helvetica,sans-Serif" font-size="10.00">begin()</text>
<text text-anchor="start" x="96.5" y="-401" font-family="Helvetica,sans-Serif" font-size="10.00">+</text>
<text text-anchor="start" x="112" y="-401" font-family="Helvetica,sans-Serif" font-size="10.00">reset()</text>
<text text-anchor="start" x="96.5" y="-386" font-family="Helvetica,sans-Serif" font-size="10.00">+</text>
<text text-anchor="start" x="112" y="-386" font-family="Helvetica,sans-Serif" font-size="10.00">update()</text>
<text text-anchor="start" x="96.5" y="-371" font-family="Helvetica,sans-Serif" font-size="10.00">+</text>
<text text-anchor="start" x="112" y="-371" font-family="Helvetica,sans-Serif" font-size="10.00">updateAllWith()</text>
<text text-anchor="start" x="96.5" y="-356" font-family="Helvetica,sans-Serif" font-size="10.00">+</text>
<text text-anchor="start" x="112" y="-356" font-family="Helvetica,sans-Serif" font-size="10.00">updateAll()</text>
<text text-anchor="start" x="96.5" y="-341" font-family="Helvetica,sans-Serif" font-size="10.00">+</text>
<text text-anchor="start" x="112" y="-341" font-family="Helvetica,sans-Serif" font-size="10.00">beginAll()</text>
<text text-anchor="start" x="96.5" y="-326" font-family="Helvetica,sans-Serif" font-size="10.00">+</text>
<text text-anchor="start" x="112" y="-326" font-family="Helvetica,sans-Serif" font-size="10.00">resetAll()</text>
<text text-anchor="start" x="96.5" y="-311" font-family="Helvetica,sans-Serif" font-size="10.00">#</text>
<text text-anchor="start" x="112" y="-311" font-family="Helvetica,sans-Serif" font-size="10.00">BankableMatchingMIDIInput</text>
<text text-anchor="start" x="112" y="-300" font-family="Helvetica,sans-Serif" font-size="10.00">Element()</text>
<text text-anchor="start" x="96.5" y="-285" font-family="Helvetica,sans-Serif" font-size="10.00">#</text>
<text text-anchor="start" x="112" y="-285" font-family="Helvetica,sans-Serif" font-size="10.00">getActiveBank()</text>
<text text-anchor="start" x="99" y="-270" font-family="Helvetica,sans-Serif" font-size="10.00">&#45;</text>
<text text-anchor="start" x="112" y="-270" font-family="Helvetica,sans-Serif" font-size="10.00">onBankSettingChange()</text>
<text text-anchor="start" x="98" y="-255" font-family="Helvetica,sans-Serif" font-size="10.00">*</text>
<text text-anchor="start" x="112" y="-255" font-family="Helvetica,sans-Serif" font-size="10.00">enable()</text>
<text text-anchor="start" x="98" y="-240" font-family="Helvetica,sans-Serif" font-size="10.00">*</text>
<text text-anchor="start" x="112" y="-240" font-family="Helvetica,sans-Serif" font-size="10.00">disable()</text>
<text text-anchor="start" x="98" y="-225" font-family="Helvetica,sans-Serif" font-size="10.00">*</text>
<text text-anchor="start" x="112" y="-225" font-family="Helvetica,sans-Serif" font-size="10.00">isEnabled()</text>
<text text-anchor="start" x="98" y="-210" font-family="Helvetica,sans-Serif" font-size="10.00">*</text>
<text text-anchor="start" x="112" y="-210" font-family="Helvetica,sans-Serif" font-size="10.00">moveDown()</text>
<polygon fill="#666666" stroke="#666666" points="90,-572 90,-572 267,-572 267,-572 90,-572"/>
<polygon fill="#666666" stroke="#666666" points="90,-482 90,-482 110,-482 110,-482 90,-482"/>
<polygon fill="#666666" stroke="#666666" points="110,-482 110,-482 267,-482 267,-482 110,-482"/>
<polygon fill="none" stroke="#666666" points="89.5,-203 89.5,-611 266.5,-611 266.5,-203 89.5,-203"/>
</a>
</g>
</g>
<!-- Node2&#45;&gt;Node1 -->
<g id="edge1_Node000001_Node000002" class="edge">
<title>Node2&#45;&gt;Node1</title>
<g id="a_edge1_Node000001_Node000002"><a xlink:title=" ">
<path fill="none" stroke="#63b8ff" d="M273.32,-205.93C274.21,-204.94 275.1,-203.97 276,-203 318.62,-157.29 381.48,-123.45 429.45,-102.25"/>
<polygon fill="none" stroke="#63b8ff" points="270.53,-203.8 266.65,-213.66 275.83,-208.37 270.53,-203.8"/>
</a>
</g>
</g>
<!-- Node3 -->
<g id="Node000003" class="node">
<title>Node3</title>
<g id="a_Node000003"><a xlink:href="../../d5/dae/classMatchingMIDIInputElement.html" target="_top" xlink:title=" ">
<polygon fill="white" stroke="transparent" points="254.5,-990 55.5,-990 55.5,-679 254.5,-679 254.5,-990"/>
<text text-anchor="start" x="61" y="-977.5" font-family="Helvetica,sans-Serif" font-size="10.00">MatchingMIDIInputElement</text>
<text text-anchor="start" x="61" y="-966.5" font-family="Helvetica,sans-Serif" font-size="10.00">&lt; Type, BankableTwoByteMIDIMatcher</text>
<text text-anchor="start" x="116" y="-955.5" font-family="Helvetica,sans-Serif" font-size="10.00">&lt; BankSize &gt; &gt;</text>
<text text-anchor="start" x="69" y="-940.5" font-family="Helvetica,sans-Serif" font-size="10.00">#</text>
<text text-anchor="start" x="91" y="-940.5" font-family="Helvetica,sans-Serif" font-size="10.00">matcher</text>
<text text-anchor="start" x="69" y="-925.5" font-family="Helvetica,sans-Serif" font-size="10.00">#</text>
<text text-anchor="start" x="91" y="-925.5" font-family="Helvetica,sans-Serif" font-size="10.00">next</text>
<text text-anchor="start" x="69" y="-910.5" font-family="Helvetica,sans-Serif" font-size="10.00">#</text>
<text text-anchor="start" x="91" y="-910.5" font-family="Helvetica,sans-Serif" font-size="10.00">previous</text>
<text text-anchor="start" x="69" y="-895.5" font-family="Helvetica,sans-Serif" font-size="10.00">#</text>
<text text-anchor="start" x="91" y="-895.5" font-family="Helvetica,sans-Serif" font-size="10.00">updatables</text>
<text text-anchor="start" x="69" y="-880.5" font-family="Helvetica,sans-Serif" font-size="10.00">+</text>
<text text-anchor="start" x="91" y="-880.5" font-family="Helvetica,sans-Serif" font-size="10.00">updateWith()</text>
<text text-anchor="start" x="69" y="-865.5" font-family="Helvetica,sans-Serif" font-size="10.00">+</text>
<text text-anchor="start" x="91" y="-865.5" font-family="Helvetica,sans-Serif" font-size="10.00">handleUpdate()</text>
<text text-anchor="start" x="69" y="-850.5" font-family="Helvetica,sans-Serif" font-size="10.00">+</text>
<text text-anchor="start" x="91" y="-850.5" font-family="Helvetica,sans-Serif" font-size="10.00">begin()</text>
<text text-anchor="start" x="69" y="-835.5" font-family="Helvetica,sans-Serif" font-size="10.00">+</text>
<text text-anchor="start" x="91" y="-835.5" font-family="Helvetica,sans-Serif" font-size="10.00">reset()</text>
<text text-anchor="start" x="69" y="-820.5" font-family="Helvetica,sans-Serif" font-size="10.00">+</text>
<text text-anchor="start" x="91" y="-820.5" font-family="Helvetica,sans-Serif" font-size="10.00">update()</text>
<text text-anchor="start" x="69" y="-805.5" font-family="Helvetica,sans-Serif" font-size="10.00">+</text>
<text text-anchor="start" x="91" y="-805.5" font-family="Helvetica,sans-Serif" font-size="10.00">updateAllWith()</text>
<text text-anchor="start" x="69" y="-790.5" font-family="Helvetica,sans-Serif" font-size="10.00">+</text>
<text text-anchor="start" x="91" y="-790.5" font-family="Helvetica,sans-Serif" font-size="10.00">updateAll()</text>
<text text-anchor="start" x="69" y="-775.5" font-family="Helvetica,sans-Serif" font-size="10.00">+</text>
<text text-anchor="start" x="91" y="-775.5" font-family="Helvetica,sans-Serif" font-size="10.00">beginAll()</text>
<text text-anchor="start" x="69" y="-760.5" font-family="Helvetica,sans-Serif" font-size="10.00">+</text>
<text text-anchor="start" x="91" y="-760.5" font-family="Helvetica,sans-Serif" font-size="10.00">resetAll()</text>
<text text-anchor="start" x="69" y="-745.5" font-family="Helvetica,sans-Serif" font-size="10.00">#</text>
<text text-anchor="start" x="91" y="-745.5" font-family="Helvetica,sans-Serif" font-size="10.00">MatchingMIDIInputElement()</text>
<text text-anchor="start" x="70.5" y="-730.5" font-family="Helvetica,sans-Serif" font-size="10.00">*</text>
<text text-anchor="start" x="91" y="-730.5" font-family="Helvetica,sans-Serif" font-size="10.00">enable()</text>
<text text-anchor="start" x="70.5" y="-715.5" font-family="Helvetica,sans-Serif" font-size="10.00">*</text>
<text text-anchor="start" x="91" y="-715.5" font-family="Helvetica,sans-Serif" font-size="10.00">disable()</text>
<text text-anchor="start" x="70.5" y="-700.5" font-family="Helvetica,sans-Serif" font-size="10.00">*</text>
<text text-anchor="start" x="91" y="-700.5" font-family="Helvetica,sans-Serif" font-size="10.00">isEnabled()</text>
<text text-anchor="start" x="70.5" y="-685.5" font-family="Helvetica,sans-Serif" font-size="10.00">*</text>
<text text-anchor="start" x="91" y="-685.5" font-family="Helvetica,sans-Serif" font-size="10.00">moveDown()</text>
<polygon fill="#666666" stroke="#666666" points="56,-950.5 56,-950.5 255,-950.5 255,-950.5 56,-950.5"/>
<polygon fill="#666666" stroke="#666666" points="56,-890.5 56,-890.5 89,-890.5 89,-890.5 56,-890.5"/>
<polygon fill="#666666" stroke="#666666" points="89,-890.5 89,-890.5 255,-890.5 255,-890.5 89,-890.5"/>
<polygon fill="none" stroke="#666666" points="55.5,-679 55.5,-990 254.5,-990 254.5,-679 55.5,-679"/>
</a>
</g>
</g>
<!-- Node3&#45;&gt;Node2 -->
<g id="edge2_Node000002_Node000003" class="edge">
<title>Node3&#45;&gt;Node2</title>
<g id="a_edge2_Node000002_Node000003"><a xlink:title=" ">
<path fill="none" stroke="#63b8ff" d="M163.9,-668.87C164.92,-650.02 165.97,-630.64 167.01,-611.36"/>
<polygon fill="none" stroke="#63b8ff" points="160.4,-668.81 163.35,-678.98 167.39,-669.19 160.4,-668.81"/>
</a>
</g>
</g>
<!-- Node4 -->
<g id="Node000004" class="node">
<title>Node4</title>
<g id="a_Node000004"><a xlink:href="../../d9/db1/classMIDIInputElement.html" target="_top" xlink:title="A class for objects that listen for incoming MIDI events.">
<polygon fill="white" stroke="transparent" points="226.5,-1211 83.5,-1211 83.5,-1027 226.5,-1027 226.5,-1211"/>
<text text-anchor="start" x="89" y="-1199" font-family="Helvetica,sans-Serif" font-size="10.00">MIDIInputElement&lt; Type &gt;</text>
<text text-anchor="start" x="153.5" y="-1184" font-family="Helvetica,sans-Serif" font-size="10.00"> </text>
<text text-anchor="start" x="92.5" y="-1169" font-family="Helvetica,sans-Serif" font-size="10.00">+</text>
<text text-anchor="start" x="110" y="-1169" font-family="Helvetica,sans-Serif" font-size="10.00">~MIDIInputElement()</text>
<text text-anchor="start" x="92.5" y="-1154" font-family="Helvetica,sans-Serif" font-size="10.00">+</text>
<text text-anchor="start" x="110" y="-1154" font-family="Helvetica,sans-Serif" font-size="10.00">begin()</text>
<text text-anchor="start" x="92.5" y="-1139" font-family="Helvetica,sans-Serif" font-size="10.00">+</text>
<text text-anchor="start" x="110" y="-1139" font-family="Helvetica,sans-Serif" font-size="10.00">reset()</text>
<text text-anchor="start" x="92.5" y="-1124" font-family="Helvetica,sans-Serif" font-size="10.00">+</text>
<text text-anchor="start" x="110" y="-1124" font-family="Helvetica,sans-Serif" font-size="10.00">update()</text>
<text text-anchor="start" x="92.5" y="-1109" font-family="Helvetica,sans-Serif" font-size="10.00">+</text>
<text text-anchor="start" x="110" y="-1109" font-family="Helvetica,sans-Serif" font-size="10.00">updateWith()</text>
<text text-anchor="start" x="92.5" y="-1094" font-family="Helvetica,sans-Serif" font-size="10.00">+</text>
<text text-anchor="start" x="110" y="-1094" font-family="Helvetica,sans-Serif" font-size="10.00">updateAllWith()</text>
<text text-anchor="start" x="92.5" y="-1079" font-family="Helvetica,sans-Serif" font-size="10.00">+</text>
<text text-anchor="start" x="110" y="-1079" font-family="Helvetica,sans-Serif" font-size="10.00">updateAll()</text>
<text text-anchor="start" x="92.5" y="-1064" font-family="Helvetica,sans-Serif" font-size="10.00">+</text>
<text text-anchor="start" x="110" y="-1064" font-family="Helvetica,sans-Serif" font-size="10.00">beginAll()</text>
<text text-anchor="start" x="92.5" y="-1049" font-family="Helvetica,sans-Serif" font-size="10.00">+</text>
<text text-anchor="start" x="110" y="-1049" font-family="Helvetica,sans-Serif" font-size="10.00">resetAll()</text>
<text text-anchor="start" x="92.5" y="-1034" font-family="Helvetica,sans-Serif" font-size="10.00">#</text>
<text text-anchor="start" x="110" y="-1034" font-family="Helvetica,sans-Serif" font-size="10.00">MIDIInputElement()</text>
<polygon fill="#666666" stroke="#666666" points="84,-1194 84,-1194 227,-1194 227,-1194 84,-1194"/>
<polygon fill="#666666" stroke="#666666" points="84,-1179 84,-1179 227,-1179 227,-1179 84,-1179"/>
<polygon fill="none" stroke="#666666" points="83.5,-1027 83.5,-1211 226.5,-1211 226.5,-1027 83.5,-1027"/>
</a>
</g>
</g>
<!-- Node4&#45;&gt;Node3 -->
<g id="edge3_Node000003_Node000004" class="edge">
<title>Node4&#45;&gt;Node3</title>
<g id="a_edge3_Node000003_Node000004"><a xlink:title=" ">
<path fill="none" stroke="#63b8ff" d="M155,-1016.62C155,-1007.97 155,-999.11 155,-990.17"/>
<polygon fill="none" stroke="#63b8ff" points="151.5,-1016.67 155,-1026.67 158.5,-1016.67 151.5,-1016.67"/>
</a>
</g>
</g>
<!-- Node5 -->
<g id="Node000005" class="node">
<title>Node5</title>
<g id="a_Node000005"><a xlink:href="../../d8/d1a/classAH_1_1UpdatableCRTP.html" target="_top" xlink:title=" ">
<polygon fill="white" stroke="transparent" points="227,-1413 83,-1413 83,-1248 227,-1248 227,-1413"/>
<text text-anchor="start" x="88" y="-1400.5" font-family="Helvetica,sans-Serif" font-size="10.00">UpdatableCRTP&lt; MIDIInput</text>
<text text-anchor="start" x="106.5" y="-1389.5" font-family="Helvetica,sans-Serif" font-size="10.00">Element&lt; Type &gt; &gt;</text>
<text text-anchor="start" x="95" y="-1374.5" font-family="Helvetica,sans-Serif" font-size="10.00">#</text>
<text text-anchor="start" x="116" y="-1374.5" font-family="Helvetica,sans-Serif" font-size="10.00">next</text>
<text text-anchor="start" x="95" y="-1359.5" font-family="Helvetica,sans-Serif" font-size="10.00">#</text>
<text text-anchor="start" x="116" y="-1359.5" font-family="Helvetica,sans-Serif" font-size="10.00">previous</text>
<text text-anchor="start" x="95" y="-1344.5" font-family="Helvetica,sans-Serif" font-size="10.00">+</text>
<text text-anchor="start" x="116" y="-1344.5" font-family="Helvetica,sans-Serif" font-size="10.00">~UpdatableCRTP()</text>
<text text-anchor="start" x="95" y="-1329.5" font-family="Helvetica,sans-Serif" font-size="10.00">#</text>
<text text-anchor="start" x="116" y="-1329.5" font-family="Helvetica,sans-Serif" font-size="10.00">UpdatableCRTP()</text>
<text text-anchor="start" x="95" y="-1314.5" font-family="Helvetica,sans-Serif" font-size="10.00">#</text>
<text text-anchor="start" x="116" y="-1314.5" font-family="Helvetica,sans-Serif" font-size="10.00">operator=()</text>
<text text-anchor="start" x="96.5" y="-1299.5" font-family="Helvetica,sans-Serif" font-size="10.00">*</text>
<text text-anchor="start" x="116" y="-1299.5" font-family="Helvetica,sans-Serif" font-size="10.00">enable()</text>
<text text-anchor="start" x="96.5" y="-1284.5" font-family="Helvetica,sans-Serif" font-size="10.00">*</text>
<text text-anchor="start" x="116" y="-1284.5" font-family="Helvetica,sans-Serif" font-size="10.00">disable()</text>
<text text-anchor="start" x="96.5" y="-1269.5" font-family="Helvetica,sans-Serif" font-size="10.00">*</text>
<text text-anchor="start" x="116" y="-1269.5" font-family="Helvetica,sans-Serif" font-size="10.00">isEnabled()</text>
<text text-anchor="start" x="96.5" y="-1254.5" font-family="Helvetica,sans-Serif" font-size="10.00">*</text>
<text text-anchor="start" x="116" y="-1254.5" font-family="Helvetica,sans-Serif" font-size="10.00">moveDown()</text>
<polygon fill="#666666" stroke="#666666" points="83,-1384.5 83,-1384.5 227,-1384.5 227,-1384.5 83,-1384.5"/>
<polygon fill="#666666" stroke="#666666" points="83,-1354.5 83,-1354.5 114,-1354.5 114,-1354.5 83,-1354.5"/>
<polygon fill="#666666" stroke="#666666" points="114,-1354.5 114,-1354.5 227,-1354.5 227,-1354.5 114,-1354.5"/>
<polygon fill="none" stroke="#666666" points="83,-1248 83,-1413 227,-1413 227,-1248 83,-1248"/>
</a>
</g>
</g>
<!-- Node5&#45;&gt;Node4 -->
<g id="edge4_Node000004_Node000005" class="edge">
<title>Node5&#45;&gt;Node4</title>
<g id="a_edge4_Node000004_Node000005"><a xlink:title=" ">
<path fill="none" stroke="#63b8ff" d="M155,-1237.64C155,-1228.83 155,-1219.9 155,-1211.1"/>
<polygon fill="none" stroke="#63b8ff" points="151.5,-1237.9 155,-1247.9 158.5,-1237.9 151.5,-1237.9"/>
</a>
</g>
</g>
<!-- Node6 -->
<g id="Node000006" class="node">
<title>Node6</title>
<g id="a_Node000006"><a xlink:href="../../d4/d23/classDoublyLinkable.html" target="_top" xlink:title=" ">
<polygon fill="white" stroke="transparent" points="144,-1638.5 0,-1638.5 0,-1533.5 144,-1533.5 144,-1638.5"/>
<text text-anchor="start" x="5" y="-1626" font-family="Helvetica,sans-Serif" font-size="10.00">DoublyLinkable&lt; MIDIInput</text>
<text text-anchor="start" x="23.5" y="-1615" font-family="Helvetica,sans-Serif" font-size="10.00">Element&lt; Type &gt; &gt;</text>
<text text-anchor="start" x="12" y="-1600" font-family="Helvetica,sans-Serif" font-size="10.00">#</text>
<text text-anchor="start" x="33" y="-1600" font-family="Helvetica,sans-Serif" font-size="10.00">next</text>
<text text-anchor="start" x="12" y="-1585" font-family="Helvetica,sans-Serif" font-size="10.00">#</text>
<text text-anchor="start" x="33" y="-1585" font-family="Helvetica,sans-Serif" font-size="10.00">previous</text>
<text text-anchor="start" x="12" y="-1570" font-family="Helvetica,sans-Serif" font-size="10.00">#</text>
<text text-anchor="start" x="33" y="-1570" font-family="Helvetica,sans-Serif" font-size="10.00">~DoublyLinkable()</text>
<text text-anchor="start" x="12" y="-1555" font-family="Helvetica,sans-Serif" font-size="10.00">#</text>
<text text-anchor="start" x="33" y="-1555" font-family="Helvetica,sans-Serif" font-size="10.00">DoublyLinkable()</text>
<text text-anchor="start" x="12" y="-1540" font-family="Helvetica,sans-Serif" font-size="10.00">#</text>
<text text-anchor="start" x="33" y="-1540" font-family="Helvetica,sans-Serif" font-size="10.00">operator=()</text>
<polygon fill="#666666" stroke="#666666" points="0,-1610 0,-1610 144,-1610 144,-1610 0,-1610"/>
<polygon fill="#666666" stroke="#666666" points="0,-1580 0,-1580 31,-1580 31,-1580 0,-1580"/>
<polygon fill="#666666" stroke="#666666" points="31,-1580 31,-1580 144,-1580 144,-1580 31,-1580"/>
<polygon fill="none" stroke="#666666" points="0,-1533.5 0,-1638.5 144,-1638.5 144,-1533.5 0,-1533.5"/>
</a>
</g>
</g>
<!-- Node6&#45;&gt;Node5 -->
<g id="edge5_Node000005_Node000006" class="edge">
<title>Node6&#45;&gt;Node5</title>
<g id="a_edge5_Node000005_Node000006"><a xlink:title=" ">
<path fill="none" stroke="#63b8ff" d="M92.02,-1523.84C102.87,-1490.72 116.41,-1449.35 128.16,-1413.47"/>
<polygon fill="none" stroke="#63b8ff" points="88.68,-1522.8 88.9,-1533.39 95.33,-1524.98 88.68,-1522.8"/>
</a>
</g>
</g>
<!-- Node7 -->
<g id="Node000007" class="node">
<title>Node7</title>
<g id="a_Node000007"><a xlink:href="../../dd/d16/classDoublyLinkedList.html" target="_top" xlink:title=" ">
<polygon fill="white" stroke="transparent" points="314,-1706 162,-1706 162,-1466 314,-1466 314,-1706"/>
<text text-anchor="start" x="167" y="-1694" font-family="Helvetica,sans-Serif" font-size="10.00">DoublyLinkedList&lt; MIDIInput</text>
<text text-anchor="start" x="189.5" y="-1683" font-family="Helvetica,sans-Serif" font-size="10.00">Element&lt; Type &gt; &gt;</text>
<text text-anchor="start" x="183" y="-1668" font-family="Helvetica,sans-Serif" font-size="10.00">&#45;</text>
<text text-anchor="start" x="208" y="-1668" font-family="Helvetica,sans-Serif" font-size="10.00">first</text>
<text text-anchor="start" x="183" y="-1653" font-family="Helvetica,sans-Serif" font-size="10.00">&#45;</text>
<text text-anchor="start" x="208" y="-1653" font-family="Helvetica,sans-Serif" font-size="10.00">last</text>
<text text-anchor="start" x="180.5" y="-1638" font-family="Helvetica,sans-Serif" font-size="10.00">+</text>
<text text-anchor="start" x="208" y="-1638" font-family="Helvetica,sans-Serif" font-size="10.00">append()</text>
<text text-anchor="start" x="180.5" y="-1623" font-family="Helvetica,sans-Serif" font-size="10.00">+</text>
<text text-anchor="start" x="208" y="-1623" font-family="Helvetica,sans-Serif" font-size="10.00">insertBefore()</text>
<text text-anchor="start" x="180.5" y="-1608" font-family="Helvetica,sans-Serif" font-size="10.00">+</text>
<text text-anchor="start" x="208" y="-1608" font-family="Helvetica,sans-Serif" font-size="10.00">insertSorted()</text>
<text text-anchor="start" x="180.5" y="-1593" font-family="Helvetica,sans-Serif" font-size="10.00">+</text>
<text text-anchor="start" x="208" y="-1593" font-family="Helvetica,sans-Serif" font-size="10.00">remove()</text>
<text text-anchor="start" x="180.5" y="-1578" font-family="Helvetica,sans-Serif" font-size="10.00">+</text>
<text text-anchor="start" x="208" y="-1578" font-family="Helvetica,sans-Serif" font-size="10.00">moveDown()</text>
<text text-anchor="start" x="180.5" y="-1563" font-family="Helvetica,sans-Serif" font-size="10.00">+</text>
<text text-anchor="start" x="208" y="-1563" font-family="Helvetica,sans-Serif" font-size="10.00">couldContain()</text>
<text text-anchor="start" x="180.5" y="-1548" font-family="Helvetica,sans-Serif" font-size="10.00">+</text>
<text text-anchor="start" x="208" y="-1548" font-family="Helvetica,sans-Serif" font-size="10.00">begin()</text>
<text text-anchor="start" x="180.5" y="-1533" font-family="Helvetica,sans-Serif" font-size="10.00">+</text>
<text text-anchor="start" x="208" y="-1533" font-family="Helvetica,sans-Serif" font-size="10.00">end()</text>
<text text-anchor="start" x="180.5" y="-1518" font-family="Helvetica,sans-Serif" font-size="10.00">+</text>
<text text-anchor="start" x="208" y="-1518" font-family="Helvetica,sans-Serif" font-size="10.00">rbegin()</text>
<text text-anchor="start" x="180.5" y="-1503" font-family="Helvetica,sans-Serif" font-size="10.00">+</text>
<text text-anchor="start" x="208" y="-1503" font-family="Helvetica,sans-Serif" font-size="10.00">rend()</text>
<text text-anchor="start" x="180.5" y="-1488" font-family="Helvetica,sans-Serif" font-size="10.00">+</text>
<text text-anchor="start" x="208" y="-1488" font-family="Helvetica,sans-Serif" font-size="10.00">getFirst()</text>
<text text-anchor="start" x="180.5" y="-1473" font-family="Helvetica,sans-Serif" font-size="10.00">+</text>
<text text-anchor="start" x="208" y="-1473" font-family="Helvetica,sans-Serif" font-size="10.00">getLast()</text>
<polygon fill="#666666" stroke="#666666" points="162,-1678 162,-1678 314,-1678 314,-1678 162,-1678"/>
<polygon fill="#666666" stroke="#666666" points="162,-1648 162,-1648 206,-1648 206,-1648 162,-1648"/>
<polygon fill="#666666" stroke="#666666" points="206,-1648 206,-1648 314,-1648 314,-1648 206,-1648"/>
<polygon fill="none" stroke="#666666" points="162,-1466 162,-1706 314,-1706 314,-1466 162,-1466"/>
</a>
</g>
</g>
<!-- Node7&#45;&gt;Node5 -->
<g id="edge6_Node000005_Node000007" class="edge">
<title>Node7&#45;&gt;Node5</title>
<g id="a_edge6_Node000005_Node000007"><a xlink:title=" ">
<path fill="none" stroke="#63b8ff" d="M198.93,-1465.67C194.44,-1451.97 189.92,-1438.14 185.56,-1424.85"/>
<polygon fill="none" stroke="#63b8ff" points="185.52,-1424.72 179.85,-1420.26 181.79,-1413.32 187.46,-1417.77 185.52,-1424.72"/>
</a>
</g>
<text text-anchor="start" x="195.5" y="-1436.5" font-family="Helvetica,sans-Serif" font-size="10.00" fill="grey">#updatables</text>
</g>
<!-- Node8 -->
<g id="Node000008" class="node">
<title>Node8</title>
<g id="a_Node000008"><a xlink:href="../../d2/dbf/classBankSettingChangeCallback.html" target="_top" xlink:title="Callback class for Bankable objects that need to be notified when the active setting of their Bank ch...">
<polygon fill="white" stroke="transparent" points="421.5,-859 272.5,-859 272.5,-810 421.5,-810 421.5,-859"/>
<text text-anchor="start" x="278" y="-846.5" font-family="Helvetica,sans-Serif" font-size="10.00">BankSettingChangeCallback</text>
<text text-anchor="start" x="345.5" y="-831.5" font-family="Helvetica,sans-Serif" font-size="10.00"> </text>
<text text-anchor="start" x="281" y="-816.5" font-family="Helvetica,sans-Serif" font-size="10.00">&#45;</text>
<text text-anchor="start" x="293" y="-816.5" font-family="Helvetica,sans-Serif" font-size="10.00">onBankSettingChange()</text>
<polygon fill="#666666" stroke="#666666" points="273,-841.5 273,-841.5 422,-841.5 422,-841.5 273,-841.5"/>
<polygon fill="#666666" stroke="#666666" points="273,-826.5 273,-826.5 422,-826.5 422,-826.5 273,-826.5"/>
<polygon fill="none" stroke="#666666" points="272.5,-810 272.5,-859 421.5,-859 421.5,-810 272.5,-810"/>
</a>
</g>
</g>
<!-- Node8&#45;&gt;Node2 -->
<g id="edge7_Node000002_Node000008" class="edge">
<title>Node8&#45;&gt;Node2</title>
<g id="a_edge7_Node000002_Node000008"><a xlink:title=" ">
<path fill="none" stroke="#63b8ff" d="M333.85,-800.39C317.37,-758.89 287.75,-684.32 258.72,-611.24"/>
<polygon fill="none" stroke="#63b8ff" points="330.61,-801.71 337.55,-809.71 337.11,-799.13 330.61,-801.71"/>
</a>
</g>
</g>
<!-- Node9 -->
<g id="Node000009" class="node">
<title>Node9</title>
<g id="a_Node000009"><a xlink:href="../../d4/d23/classDoublyLinkable.html" target="_top" xlink:title=" ">
<polygon fill="white" stroke="transparent" points="441,-452 285,-452 285,-362 441,-362 441,-452"/>
<text text-anchor="start" x="290" y="-440" font-family="Helvetica,sans-Serif" font-size="10.00">DoublyLinkable&lt; BankSetting</text>
<text text-anchor="start" x="317.5" y="-429" font-family="Helvetica,sans-Serif" font-size="10.00">ChangeCallback &gt;</text>
<text text-anchor="start" x="361" y="-414" font-family="Helvetica,sans-Serif" font-size="10.00"> </text>
<text text-anchor="start" x="300" y="-399" font-family="Helvetica,sans-Serif" font-size="10.00">#</text>
<text text-anchor="start" x="324" y="-399" font-family="Helvetica,sans-Serif" font-size="10.00">~DoublyLinkable()</text>
<text text-anchor="start" x="300" y="-384" font-family="Helvetica,sans-Serif" font-size="10.00">#</text>
<text text-anchor="start" x="324" y="-384" font-family="Helvetica,sans-Serif" font-size="10.00">DoublyLinkable()</text>
<text text-anchor="start" x="300" y="-369" font-family="Helvetica,sans-Serif" font-size="10.00">#</text>
<text text-anchor="start" x="324" y="-369" font-family="Helvetica,sans-Serif" font-size="10.00">operator=()</text>
<polygon fill="#666666" stroke="#666666" points="285,-424 285,-424 441,-424 441,-424 285,-424"/>
<polygon fill="#666666" stroke="#666666" points="285,-409 285,-409 441,-409 441,-409 285,-409"/>
<polygon fill="none" stroke="#666666" points="285,-362 285,-452 441,-452 441,-362 285,-362"/>
</a>
</g>
</g>
<!-- Node8&#45;&gt;Node9 -->
<g id="edge9_Node000009_Node000008" class="edge">
<title>Node8&#45;&gt;Node9</title>
<g id="a_edge9_Node000009_Node000008"><a xlink:title=" ">
<path fill="none" stroke="#63b8ff" d="M339.87,-809.79C330.36,-776.8 314.03,-715.01 308,-661 300.32,-592.2 321.78,-514.62 340.11,-463.72"/>
<polygon fill="none" stroke="#63b8ff" points="340.16,-463.58 338.49,-456.57 344.32,-452.33 345.99,-459.34 340.16,-463.58"/>
</a>
</g>
<text text-anchor="start" x="311.5" y="-650" font-family="Helvetica,sans-Serif" font-size="10.00" fill="grey">#next</text>
<text text-anchor="start" x="311.5" y="-635" font-family="Helvetica,sans-Serif" font-size="10.00" fill="grey">#previous</text>
</g>
<!-- Node9&#45;&gt;Node8 -->
<g id="edge8_Node000008_Node000009" class="edge">
<title>Node9&#45;&gt;Node8</title>
<g id="a_edge8_Node000008_Node000009"><a xlink:title=" ">
<path fill="none" stroke="#63b8ff" d="M367.03,-462.57C370.18,-513.85 373.34,-592.7 369,-661 365.6,-714.48 356.34,-776.73 350.98,-809.87"/>
<polygon fill="none" stroke="#63b8ff" points="370.51,-462.14 366.39,-452.38 363.53,-462.58 370.51,-462.14"/>
</a>
</g>
</g>
<!-- Node10 -->
<g id="Node000010" class="node">
<title>Node10</title>
<g id="a_Node000010"><a xlink:href="../../d8/d87/classInterfaces_1_1IValue.html" target="_top" xlink:title="Abstract interface for MIDI input elements that receive and store a 7&#45;bit value.">
<polygon fill="white" stroke="transparent" points="536.5,-446.5 459.5,-446.5 459.5,-367.5 536.5,-367.5 536.5,-446.5"/>
<text text-anchor="start" x="483" y="-434" font-family="Helvetica,sans-Serif" font-size="10.00">IValue</text>
<text text-anchor="start" x="464" y="-419" font-family="Helvetica,sans-Serif" font-size="10.00">#</text>
<text text-anchor="start" x="477" y="-419" font-family="Helvetica,sans-Serif" font-size="10.00">dirty</text>
<text text-anchor="start" x="464" y="-404" font-family="Helvetica,sans-Serif" font-size="10.00">+</text>
<text text-anchor="start" x="477" y="-404" font-family="Helvetica,sans-Serif" font-size="10.00">getValue()</text>
<text text-anchor="start" x="465.5" y="-389" font-family="Helvetica,sans-Serif" font-size="10.00">*</text>
<text text-anchor="start" x="477" y="-389" font-family="Helvetica,sans-Serif" font-size="10.00">getDirty()</text>
<text text-anchor="start" x="465.5" y="-374" font-family="Helvetica,sans-Serif" font-size="10.00">*</text>
<text text-anchor="start" x="477" y="-374" font-family="Helvetica,sans-Serif" font-size="10.00">clearDirty()</text>
<polygon fill="#666666" stroke="#666666" points="460,-429 460,-429 537,-429 537,-429 460,-429"/>
<polygon fill="#666666" stroke="#666666" points="460,-414 460,-414 475,-414 475,-414 460,-414"/>
<polygon fill="#666666" stroke="#666666" points="475,-414 475,-414 537,-414 537,-414 475,-414"/>
<polygon fill="none" stroke="#666666" points="459.5,-367.5 459.5,-446.5 536.5,-446.5 536.5,-367.5 459.5,-367.5"/>
</a>
</g>
</g>
<!-- Node10&#45;&gt;Node1 -->
<g id="edge10_Node000001_Node000010" class="edge">
<title>Node10&#45;&gt;Node1</title>
<g id="a_edge10_Node000001_Node000010"><a xlink:title=" ">
<path fill="none" stroke="#63b8ff" d="M498,-357.38C498,-302.75 498,-213.42 498,-150.08"/>
<polygon fill="none" stroke="#63b8ff" points="494.5,-357.5 498,-367.5 501.5,-357.5 494.5,-357.5"/>
</a>
</g>
</g>
<!-- Node11 -->
<g id="Node000011" class="node">
<title>Node11</title>
<g id="a_Node000011"><a xlink:href="../../d0/d32/structAH_1_1Array.html" target="_top" xlink:title=" ">
<polygon fill="white" stroke="transparent" points="699,-514 555,-514 555,-300 699,-300 699,-514"/>
<text text-anchor="start" x="560" y="-502" font-family="Helvetica,sans-Serif" font-size="10.00">Array&lt; uint8_t, BankSize &gt;</text>
<text text-anchor="start" x="573" y="-487" font-family="Helvetica,sans-Serif" font-size="10.00">+</text>
<text text-anchor="start" x="600" y="-487" font-family="Helvetica,sans-Serif" font-size="10.00">data</text>
<text text-anchor="start" x="573" y="-472" font-family="Helvetica,sans-Serif" font-size="10.00">+</text>
<text text-anchor="start" x="600" y="-472" font-family="Helvetica,sans-Serif" font-size="10.00">length</text>
<text text-anchor="start" x="573" y="-457" font-family="Helvetica,sans-Serif" font-size="10.00">+</text>
<text text-anchor="start" x="600" y="-457" font-family="Helvetica,sans-Serif" font-size="10.00">operator[]()</text>
<text text-anchor="start" x="573" y="-442" font-family="Helvetica,sans-Serif" font-size="10.00">+</text>
<text text-anchor="start" x="600" y="-442" font-family="Helvetica,sans-Serif" font-size="10.00">operator[]()</text>
<text text-anchor="start" x="573" y="-427" font-family="Helvetica,sans-Serif" font-size="10.00">+</text>
<text text-anchor="start" x="600" y="-427" font-family="Helvetica,sans-Serif" font-size="10.00">begin()</text>
<text text-anchor="start" x="573" y="-412" font-family="Helvetica,sans-Serif" font-size="10.00">+</text>
<text text-anchor="start" x="600" y="-412" font-family="Helvetica,sans-Serif" font-size="10.00">begin()</text>
<text text-anchor="start" x="573" y="-397" font-family="Helvetica,sans-Serif" font-size="10.00">+</text>
<text text-anchor="start" x="600" y="-397" font-family="Helvetica,sans-Serif" font-size="10.00">end()</text>
<text text-anchor="start" x="573" y="-382" font-family="Helvetica,sans-Serif" font-size="10.00">+</text>
<text text-anchor="start" x="600" y="-382" font-family="Helvetica,sans-Serif" font-size="10.00">end()</text>
<text text-anchor="start" x="573" y="-367" font-family="Helvetica,sans-Serif" font-size="10.00">+</text>
<text text-anchor="start" x="600" y="-367" font-family="Helvetica,sans-Serif" font-size="10.00">operator==()</text>
<text text-anchor="start" x="573" y="-352" font-family="Helvetica,sans-Serif" font-size="10.00">+</text>
<text text-anchor="start" x="600" y="-352" font-family="Helvetica,sans-Serif" font-size="10.00">operator!=()</text>
<text text-anchor="start" x="573" y="-337" font-family="Helvetica,sans-Serif" font-size="10.00">+</text>
<text text-anchor="start" x="600" y="-337" font-family="Helvetica,sans-Serif" font-size="10.00">slice()</text>
<text text-anchor="start" x="573" y="-322" font-family="Helvetica,sans-Serif" font-size="10.00">+</text>
<text text-anchor="start" x="600" y="-322" font-family="Helvetica,sans-Serif" font-size="10.00">slice()</text>
<text text-anchor="start" x="573" y="-307" font-family="Helvetica,sans-Serif" font-size="10.00">+</text>
<text text-anchor="start" x="600" y="-307" font-family="Helvetica,sans-Serif" font-size="10.00">cslice()</text>
<polygon fill="#666666" stroke="#666666" points="555,-497 555,-497 699,-497 699,-497 555,-497"/>
<polygon fill="#666666" stroke="#666666" points="555,-467 555,-467 598,-467 598,-467 555,-467"/>
<polygon fill="#666666" stroke="#666666" points="598,-467 598,-467 699,-467 699,-467 598,-467"/>
<polygon fill="none" stroke="#666666" points="555,-300 555,-514 699,-514 699,-300 555,-300"/>
</a>
</g>
</g>
<!-- Node11&#45;&gt;Node1 -->
<g id="edge11_Node000001_Node000011" class="edge">
<title>Node11&#45;&gt;Node1</title>
<g id="a_edge11_Node000001_Node000011"><a xlink:title=" ">
<path fill="none" stroke="#63b8ff" d="M585.47,-299.77C568,-255.07 547.94,-203.75 531.44,-161.54"/>
<polygon fill="none" stroke="#63b8ff" points="531.36,-161.35 525.45,-157.22 526.99,-150.17 532.9,-154.3 531.36,-161.35"/>
</a>
</g>
<text text-anchor="start" x="543" y="-173.5" font-family="Helvetica,sans-Serif" font-size="10.00" fill="grey">&#45;values</text>
</g>
</g>
</svg>
