<?xml version="1.0" encoding="UTF-8" standalone="no"?>
<!DOCTYPE svg PUBLIC "-//W3C//DTD SVG 1.1//EN"
 "http://www.w3.org/Graphics/SVG/1.1/DTD/svg11.dtd">
<!-- Generated by graphviz version 2.43.0 (0)
 -->
<!-- Title: NoteRangeLEDs&lt; RangeLen &gt; Pages: 1 -->
<svg width="741pt" height="1320pt"
 viewBox="0.00 0.00 740.50 1320.00" xmlns="http://www.w3.org/2000/svg" xmlns:xlink="http://www.w3.org/1999/xlink">
<g id="graph0" class="graph" transform="scale(1 1) rotate(0) translate(4 1316)">
<title>NoteRangeLEDs&lt; RangeLen &gt;</title>
<polygon fill="white" stroke="transparent" points="-4,4 -4,-1316 736.5,-1316 736.5,4 -4,4"/>
<!-- Node1 -->
<g id="node1" class="node">
<title>Node1</title>
<g id="a_node1"><a xlink:title="MIDI Input Element that listens for MIDI Note messages in a given range, and displays their values by...">
<polygon fill="#bfbfbf" stroke="black" points="365.5,-0.5 365.5,-57.5 530.5,-57.5 530.5,-0.5 365.5,-0.5"/>
<text text-anchor="middle" x="448" y="-45.5" font-family="Helvetica,sans-Serif" font-size="10.00">NoteRangeLEDs&lt; RangeLen &gt;</text>
<polyline fill="none" stroke="black" points="365.5,-38.5 530.5,-38.5 "/>
<text text-anchor="middle" x="448" y="-26.5" font-family="Helvetica,sans-Serif" font-size="10.00"> </text>
<polyline fill="none" stroke="black" points="365.5,-19.5 530.5,-19.5 "/>
<text text-anchor="start" x="373.5" y="-7.5" font-family="Helvetica,sans-Serif" font-size="10.00">+ NoteRangeLEDs()</text>
</a>
</g>
</g>
<!-- Node2 -->
<g id="node2" class="node">
<title>Node2</title>
<g id="a_node2"><a xlink:href="../../d5/d80/classGenericNoteCCRange.html" target="_top" xlink:title=" ">
<polygon fill="white" stroke="black" points="377,-95.5 377,-196.5 519,-196.5 519,-95.5 377,-95.5"/>
<text text-anchor="start" x="385" y="-184.5" font-family="Helvetica,sans-Serif" font-size="10.00">GenericNoteCCRange</text>
<text text-anchor="start" x="385" y="-173.5" font-family="Helvetica,sans-Serif" font-size="10.00">&lt; MIDIInputElementNote,</text>
<text text-anchor="start" x="385" y="-162.5" font-family="Helvetica,sans-Serif" font-size="10.00"> RangeLen, NoteCCLED&lt;</text>
<text text-anchor="middle" x="448" y="-151.5" font-family="Helvetica,sans-Serif" font-size="10.00"> RangeLen &gt; &gt;</text>
<polyline fill="none" stroke="black" points="377,-144.5 519,-144.5 "/>
<text text-anchor="middle" x="448" y="-132.5" font-family="Helvetica,sans-Serif" font-size="10.00"> </text>
<polyline fill="none" stroke="black" points="377,-125.5 519,-125.5 "/>
<text text-anchor="start" x="385" y="-113.5" font-family="Helvetica,sans-Serif" font-size="10.00">+ GenericNoteCCRange()</text>
<text text-anchor="start" x="385" y="-102.5" font-family="Helvetica,sans-Serif" font-size="10.00">&#45; match()</text>
</a>
</g>
</g>
<!-- Node2&#45;&gt;Node1 -->
<g id="edge1" class="edge">
<title>Node2&#45;&gt;Node1</title>
<path fill="none" stroke="midnightblue" d="M448,-85.22C448,-75.59 448,-66.06 448,-57.68"/>
<polygon fill="none" stroke="midnightblue" points="444.5,-85.23 448,-95.23 451.5,-85.23 444.5,-85.23"/>
</g>
<!-- Node3 -->
<g id="node3" class="node">
<title>Node3</title>
<g id="a_node3"><a xlink:href="../../d2/df4/classNoteCCRange.html" target="_top" xlink:title=" ">
<polygon fill="white" stroke="black" points="356.5,-284 356.5,-484 539.5,-484 539.5,-284 356.5,-284"/>
<text text-anchor="start" x="364.5" y="-472" font-family="Helvetica,sans-Serif" font-size="10.00">NoteCCRange&lt; MIDIInputElement</text>
<text text-anchor="start" x="364.5" y="-461" font-family="Helvetica,sans-Serif" font-size="10.00">Note, RangeLen, 1, NoteCCLED</text>
<text text-anchor="middle" x="448" y="-450" font-family="Helvetica,sans-Serif" font-size="10.00">&lt; RangeLen &gt; &gt;</text>
<polyline fill="none" stroke="black" points="356.5,-443 539.5,-443 "/>
<text text-anchor="middle" x="448" y="-431" font-family="Helvetica,sans-Serif" font-size="10.00"> </text>
<polyline fill="none" stroke="black" points="356.5,-424 539.5,-424 "/>
<text text-anchor="start" x="364.5" y="-412" font-family="Helvetica,sans-Serif" font-size="10.00">+ NoteCCRange()</text>
<text text-anchor="start" x="364.5" y="-401" font-family="Helvetica,sans-Serif" font-size="10.00">+ getValue()</text>
<text text-anchor="start" x="364.5" y="-390" font-family="Helvetica,sans-Serif" font-size="10.00">+ getValue()</text>
<text text-anchor="start" x="364.5" y="-379" font-family="Helvetica,sans-Serif" font-size="10.00">+ getValue()</text>
<text text-anchor="start" x="364.5" y="-368" font-family="Helvetica,sans-Serif" font-size="10.00">+ begin()</text>
<text text-anchor="start" x="364.5" y="-357" font-family="Helvetica,sans-Serif" font-size="10.00">+ reset()</text>
<text text-anchor="start" x="364.5" y="-346" font-family="Helvetica,sans-Serif" font-size="10.00">+ length()</text>
<text text-anchor="start" x="364.5" y="-335" font-family="Helvetica,sans-Serif" font-size="10.00">&#45; updateImpl()</text>
<text text-anchor="start" x="364.5" y="-324" font-family="Helvetica,sans-Serif" font-size="10.00">&#45; getSelection()</text>
<text text-anchor="start" x="364.5" y="-313" font-family="Helvetica,sans-Serif" font-size="10.00">&#45; getBankIndex()</text>
<text text-anchor="start" x="364.5" y="-302" font-family="Helvetica,sans-Serif" font-size="10.00">&#45; getRangeIndex()</text>
<text text-anchor="start" x="364.5" y="-291" font-family="Helvetica,sans-Serif" font-size="10.00">&#45; getValueFromMIDIMessage()</text>
</a>
</g>
</g>
<!-- Node3&#45;&gt;Node2 -->
<g id="edge2" class="edge">
<title>Node3&#45;&gt;Node2</title>
<path fill="none" stroke="midnightblue" d="M448,-273.64C448,-246.66 448,-219.08 448,-196.57"/>
<polygon fill="none" stroke="midnightblue" points="444.5,-273.94 448,-283.94 451.5,-273.94 444.5,-273.94"/>
</g>
<!-- Node4 -->
<g id="node4" class="node">
<title>Node4</title>
<g id="a_node4"><a xlink:href="../../db/d4b/classMIDIInputElementNote.html" target="_top" xlink:title="Class for objects that listen for incoming MIDI Note events.">
<polygon fill="white" stroke="black" points="116.5,-625.5 116.5,-748.5 271.5,-748.5 271.5,-625.5 116.5,-625.5"/>
<text text-anchor="middle" x="194" y="-736.5" font-family="Helvetica,sans-Serif" font-size="10.00">MIDIInputElementNote</text>
<polyline fill="none" stroke="black" points="116.5,-729.5 271.5,-729.5 "/>
<text text-anchor="middle" x="194" y="-717.5" font-family="Helvetica,sans-Serif" font-size="10.00"> </text>
<polyline fill="none" stroke="black" points="116.5,-710.5 271.5,-710.5 "/>
<text text-anchor="start" x="124.5" y="-698.5" font-family="Helvetica,sans-Serif" font-size="10.00">+ ~MIDIInputElementNote()</text>
<text text-anchor="start" x="124.5" y="-687.5" font-family="Helvetica,sans-Serif" font-size="10.00">+ beginAll()</text>
<text text-anchor="start" x="124.5" y="-676.5" font-family="Helvetica,sans-Serif" font-size="10.00">+ updateAll()</text>
<text text-anchor="start" x="124.5" y="-665.5" font-family="Helvetica,sans-Serif" font-size="10.00">+ resetAll()</text>
<text text-anchor="start" x="124.5" y="-654.5" font-family="Helvetica,sans-Serif" font-size="10.00">+ updateAllWith()</text>
<text text-anchor="start" x="124.5" y="-643.5" font-family="Helvetica,sans-Serif" font-size="10.00"># MIDIInputElementNote()</text>
<text text-anchor="start" x="124.5" y="-632.5" font-family="Helvetica,sans-Serif" font-size="10.00">&#45; moveDown()</text>
</a>
</g>
</g>
<!-- Node4&#45;&gt;Node3 -->
<g id="edge3" class="edge">
<title>Node4&#45;&gt;Node3</title>
<path fill="none" stroke="midnightblue" d="M257.15,-617.72C265.18,-609.06 273.28,-600.32 281,-592 304.96,-566.19 312.33,-560.95 335,-534 348.27,-518.22 361.91,-501.1 374.92,-484.28"/>
<polygon fill="none" stroke="midnightblue" points="254.36,-615.58 250.13,-625.3 259.5,-620.34 254.36,-615.58"/>
</g>
<!-- Node7 -->
<g id="node7" class="node">
<title>Node7</title>
<g id="a_node7"><a xlink:href="../../d4/d23/classDoublyLinkable.html" target="_top" xlink:title=" ">
<polygon fill="white" stroke="black" points="0,-350 0,-418 150,-418 150,-350 0,-350"/>
<text text-anchor="start" x="8" y="-406" font-family="Helvetica,sans-Serif" font-size="10.00">DoublyLinkable&lt; MIDIInput</text>
<text text-anchor="middle" x="75" y="-395" font-family="Helvetica,sans-Serif" font-size="10.00">ElementNote &gt;</text>
<polyline fill="none" stroke="black" points="0,-388 150,-388 "/>
<text text-anchor="middle" x="75" y="-376" font-family="Helvetica,sans-Serif" font-size="10.00"> </text>
<polyline fill="none" stroke="black" points="0,-369 150,-369 "/>
<text text-anchor="start" x="8" y="-357" font-family="Helvetica,sans-Serif" font-size="10.00"># ~DoublyLinkable()</text>
</a>
</g>
</g>
<!-- Node4&#45;&gt;Node7 -->
<g id="edge7" class="edge">
<title>Node4&#45;&gt;Node7</title>
<path fill="none" stroke="#404040" d="M121.58,-625.21C107.8,-609.97 95.15,-592.6 87,-574 66.88,-528.08 66.47,-469.8 69.43,-430.18"/>
<polygon fill="none" stroke="#404040" points="69.45,-429.97 65.98,-423.65 70.49,-418.01 73.95,-424.34 69.45,-429.97"/>
<text text-anchor="middle" x="112.5" y="-566" font-family="Helvetica,sans-Serif" font-size="10.00"> #next</text>
<text text-anchor="middle" x="112.5" y="-555" font-family="Helvetica,sans-Serif" font-size="10.00">#previous</text>
</g>
<!-- Node8 -->
<g id="node8" class="node">
<title>Node8</title>
<g id="a_node8"><a xlink:href="../../dd/d16/classDoublyLinkedList.html" target="_top" xlink:title=" ">
<polygon fill="white" stroke="black" points="168,-234.5 168,-533.5 326,-533.5 326,-234.5 168,-234.5"/>
<text text-anchor="start" x="176" y="-521.5" font-family="Helvetica,sans-Serif" font-size="10.00">DoublyLinkedList&lt; MIDIInput</text>
<text text-anchor="middle" x="247" y="-510.5" font-family="Helvetica,sans-Serif" font-size="10.00">ElementNote &gt;</text>
<polyline fill="none" stroke="black" points="168,-503.5 326,-503.5 "/>
<text text-anchor="middle" x="247" y="-491.5" font-family="Helvetica,sans-Serif" font-size="10.00"> </text>
<polyline fill="none" stroke="black" points="168,-484.5 326,-484.5 "/>
<text text-anchor="start" x="176" y="-472.5" font-family="Helvetica,sans-Serif" font-size="10.00">+ append()</text>
<text text-anchor="start" x="176" y="-461.5" font-family="Helvetica,sans-Serif" font-size="10.00">+ append()</text>
<text text-anchor="start" x="176" y="-450.5" font-family="Helvetica,sans-Serif" font-size="10.00">+ insertBefore()</text>
<text text-anchor="start" x="176" y="-439.5" font-family="Helvetica,sans-Serif" font-size="10.00">+ insertBefore()</text>
<text text-anchor="start" x="176" y="-428.5" font-family="Helvetica,sans-Serif" font-size="10.00">+ insertSorted()</text>
<text text-anchor="start" x="176" y="-417.5" font-family="Helvetica,sans-Serif" font-size="10.00">+ insertSorted()</text>
<text text-anchor="start" x="176" y="-406.5" font-family="Helvetica,sans-Serif" font-size="10.00">+ remove()</text>
<text text-anchor="start" x="176" y="-395.5" font-family="Helvetica,sans-Serif" font-size="10.00">+ remove()</text>
<text text-anchor="start" x="176" y="-384.5" font-family="Helvetica,sans-Serif" font-size="10.00">+ moveDown()</text>
<text text-anchor="start" x="176" y="-373.5" font-family="Helvetica,sans-Serif" font-size="10.00">+ moveDown()</text>
<text text-anchor="start" x="176" y="-362.5" font-family="Helvetica,sans-Serif" font-size="10.00">+ couldContain()</text>
<text text-anchor="start" x="176" y="-351.5" font-family="Helvetica,sans-Serif" font-size="10.00">+ couldContain()</text>
<text text-anchor="start" x="176" y="-340.5" font-family="Helvetica,sans-Serif" font-size="10.00">+ begin()</text>
<text text-anchor="start" x="176" y="-329.5" font-family="Helvetica,sans-Serif" font-size="10.00">+ begin()</text>
<text text-anchor="start" x="176" y="-318.5" font-family="Helvetica,sans-Serif" font-size="10.00">+ end()</text>
<text text-anchor="start" x="176" y="-307.5" font-family="Helvetica,sans-Serif" font-size="10.00">+ end()</text>
<text text-anchor="start" x="176" y="-296.5" font-family="Helvetica,sans-Serif" font-size="10.00">+ rbegin()</text>
<text text-anchor="start" x="176" y="-285.5" font-family="Helvetica,sans-Serif" font-size="10.00">+ rbegin()</text>
<text text-anchor="start" x="176" y="-274.5" font-family="Helvetica,sans-Serif" font-size="10.00">+ rend()</text>
<text text-anchor="start" x="176" y="-263.5" font-family="Helvetica,sans-Serif" font-size="10.00">+ rend()</text>
<text text-anchor="start" x="176" y="-252.5" font-family="Helvetica,sans-Serif" font-size="10.00">+ getFirst()</text>
<text text-anchor="start" x="176" y="-241.5" font-family="Helvetica,sans-Serif" font-size="10.00">+ getLast()</text>
</a>
</g>
</g>
<!-- Node4&#45;&gt;Node8 -->
<g id="edge9" class="edge">
<title>Node4&#45;&gt;Node8</title>
<path fill="none" stroke="#404040" d="M193.36,-625.26C193.21,-608.64 193.07,-590.63 193,-574 192.96,-564.22 191.48,-561.66 193,-552 193.33,-549.93 193.67,-547.85 194.04,-545.77"/>
<polygon fill="none" stroke="#404040" points="194.09,-545.54 191.29,-538.89 196.36,-533.75 199.15,-540.4 194.09,-545.54"/>
<text text-anchor="middle" x="206" y="-566" font-family="Helvetica,sans-Serif" font-size="10.00"> &#45;first</text>
<text text-anchor="middle" x="206" y="-555" font-family="Helvetica,sans-Serif" font-size="10.00">&#45;last</text>
</g>
<!-- Node5 -->
<g id="node5" class="node">
<title>Node5</title>
<g id="a_node5"><a xlink:href="../../d9/db1/classMIDIInputElement.html" target="_top" xlink:title="A class for objects that listen for incoming MIDI events.">
<polygon fill="white" stroke="black" points="128.5,-819.5 128.5,-975.5 259.5,-975.5 259.5,-819.5 128.5,-819.5"/>
<text text-anchor="middle" x="194" y="-963.5" font-family="Helvetica,sans-Serif" font-size="10.00">MIDIInputElement</text>
<polyline fill="none" stroke="black" points="128.5,-956.5 259.5,-956.5 "/>
<text text-anchor="middle" x="194" y="-944.5" font-family="Helvetica,sans-Serif" font-size="10.00"> </text>
<polyline fill="none" stroke="black" points="128.5,-937.5 259.5,-937.5 "/>
<text text-anchor="start" x="136.5" y="-925.5" font-family="Helvetica,sans-Serif" font-size="10.00">+ ~MIDIInputElement()</text>
<text text-anchor="start" x="136.5" y="-914.5" font-family="Helvetica,sans-Serif" font-size="10.00">+ begin()</text>
<text text-anchor="start" x="136.5" y="-903.5" font-family="Helvetica,sans-Serif" font-size="10.00">+ reset()</text>
<text text-anchor="start" x="136.5" y="-892.5" font-family="Helvetica,sans-Serif" font-size="10.00">+ update()</text>
<text text-anchor="start" x="136.5" y="-881.5" font-family="Helvetica,sans-Serif" font-size="10.00">+ updateWith()</text>
<text text-anchor="start" x="136.5" y="-870.5" font-family="Helvetica,sans-Serif" font-size="10.00"># MIDIInputElement()</text>
<text text-anchor="start" x="136.5" y="-859.5" font-family="Helvetica,sans-Serif" font-size="10.00"># MIDIInputElement()</text>
<text text-anchor="start" x="136.5" y="-848.5" font-family="Helvetica,sans-Serif" font-size="10.00">&#45; updateImpl()</text>
<text text-anchor="start" x="136.5" y="-837.5" font-family="Helvetica,sans-Serif" font-size="10.00">&#45; getTarget()</text>
<text text-anchor="start" x="136.5" y="-826.5" font-family="Helvetica,sans-Serif" font-size="10.00">&#45; match()</text>
</a>
</g>
</g>
<!-- Node5&#45;&gt;Node4 -->
<g id="edge4" class="edge">
<title>Node5&#45;&gt;Node4</title>
<path fill="none" stroke="midnightblue" d="M194,-809.24C194,-788.9 194,-767.68 194,-748.77"/>
<polygon fill="none" stroke="midnightblue" points="190.5,-809.45 194,-819.45 197.5,-809.45 190.5,-809.45"/>
</g>
<!-- Node6 -->
<g id="node6" class="node">
<title>Node6</title>
<g id="a_node6"><a xlink:href="../../d7/d0f/classMIDIAddress.html" target="_top" xlink:title="A type&#45;safe utility class for saving a MIDI address consisting of a 7&#45;bit address,...">
<polygon fill="white" stroke="black" points="123,-1023.5 123,-1311.5 265,-1311.5 265,-1023.5 123,-1023.5"/>
<text text-anchor="middle" x="194" y="-1299.5" font-family="Helvetica,sans-Serif" font-size="10.00">MIDIAddress</text>
<polyline fill="none" stroke="black" points="123,-1292.5 265,-1292.5 "/>
<text text-anchor="start" x="131" y="-1280.5" font-family="Helvetica,sans-Serif" font-size="10.00">&#45; addresses</text>
<polyline fill="none" stroke="black" points="123,-1273.5 265,-1273.5 "/>
<text text-anchor="start" x="131" y="-1261.5" font-family="Helvetica,sans-Serif" font-size="10.00">* MIDIAddress()</text>
<text text-anchor="start" x="131" y="-1250.5" font-family="Helvetica,sans-Serif" font-size="10.00">* MIDIAddress()</text>
<text text-anchor="start" x="131" y="-1239.5" font-family="Helvetica,sans-Serif" font-size="10.00">* MIDIAddress()</text>
<text text-anchor="start" x="131" y="-1228.5" font-family="Helvetica,sans-Serif" font-size="10.00">* MIDIAddress()</text>
<text text-anchor="start" x="131" y="-1217.5" font-family="Helvetica,sans-Serif" font-size="10.00">* MIDIAddress()</text>
<text text-anchor="start" x="131" y="-1206.5" font-family="Helvetica,sans-Serif" font-size="10.00">* MIDIAddress()</text>
<text text-anchor="start" x="131" y="-1195.5" font-family="Helvetica,sans-Serif" font-size="10.00">* invalid()</text>
<text text-anchor="start" x="131" y="-1184.5" font-family="Helvetica,sans-Serif" font-size="10.00">* operator+=()</text>
<text text-anchor="start" x="131" y="-1173.5" font-family="Helvetica,sans-Serif" font-size="10.00">* operator&#45;=()</text>
<text text-anchor="start" x="131" y="-1162.5" font-family="Helvetica,sans-Serif" font-size="10.00">* operator+()</text>
<text text-anchor="start" x="131" y="-1151.5" font-family="Helvetica,sans-Serif" font-size="10.00">* operator&#45;()</text>
<text text-anchor="start" x="131" y="-1140.5" font-family="Helvetica,sans-Serif" font-size="10.00">* getAddress()</text>
<text text-anchor="start" x="131" y="-1129.5" font-family="Helvetica,sans-Serif" font-size="10.00">* getChannel()</text>
<text text-anchor="start" x="131" y="-1118.5" font-family="Helvetica,sans-Serif" font-size="10.00">* getRawChannel()</text>
<text text-anchor="start" x="131" y="-1107.5" font-family="Helvetica,sans-Serif" font-size="10.00">* getCableNumber()</text>
<text text-anchor="start" x="131" y="-1096.5" font-family="Helvetica,sans-Serif" font-size="10.00">* getRawCableNumber()</text>
<text text-anchor="start" x="131" y="-1085.5" font-family="Helvetica,sans-Serif" font-size="10.00">* operator==()</text>
<text text-anchor="start" x="131" y="-1074.5" font-family="Helvetica,sans-Serif" font-size="10.00">* operator!=()</text>
<text text-anchor="start" x="131" y="-1063.5" font-family="Helvetica,sans-Serif" font-size="10.00">* isValid()</text>
<text text-anchor="start" x="131" y="-1052.5" font-family="Helvetica,sans-Serif" font-size="10.00">* operator bool()</text>
<text text-anchor="start" x="131" y="-1041.5" font-family="Helvetica,sans-Serif" font-size="10.00">* matchSingle()</text>
<text text-anchor="start" x="131" y="-1030.5" font-family="Helvetica,sans-Serif" font-size="10.00">* matchAddressInRange()</text>
</a>
</g>
</g>
<!-- Node6&#45;&gt;Node5 -->
<g id="edge5" class="edge">
<title>Node6&#45;&gt;Node5</title>
<path fill="none" stroke="#404040" d="M194,-1023.48C194,-1011.39 194,-999.39 194,-987.9"/>
<polygon fill="none" stroke="#404040" points="194,-987.63 190,-981.63 194,-975.63 198,-981.63 194,-987.63"/>
<text text-anchor="middle" x="219" y="-997" font-family="Helvetica,sans-Serif" font-size="10.00"> #address</text>
</g>
<!-- Node7&#45;&gt;Node4 -->
<g id="edge6" class="edge">
<title>Node7&#45;&gt;Node4</title>
<path fill="none" stroke="midnightblue" d="M92.31,-427.76C105.92,-461.47 125.3,-509.68 142,-552 151.43,-575.91 161.7,-602.27 170.59,-625.24"/>
<polygon fill="none" stroke="midnightblue" points="95.45,-426.19 88.46,-418.23 88.96,-428.81 95.45,-426.19"/>
</g>
<!-- Node8&#45;&gt;Node4 -->
<g id="edge8" class="edge">
<title>Node8&#45;&gt;Node4</title>
<path fill="none" stroke="#404040" d="M229.95,-533.59C227.83,-547.29 225.51,-560.93 223,-574 220.53,-586.84 217.45,-600.38 214.21,-613.45"/>
<polygon fill="none" stroke="#404040" points="214.16,-613.65 216.57,-620.45 211.22,-625.29 208.81,-618.49 214.16,-613.65"/>
<text text-anchor="middle" x="253.5" y="-560.5" font-family="Helvetica,sans-Serif" font-size="10.00"> &#45;elements</text>
</g>
<!-- Node9 -->
<g id="node9" class="node">
<title>Node9</title>
<g id="a_node9"><a xlink:href="../../d7/dab/classINoteCCValue.html" target="_top" xlink:title="Interface for NoteCCValue objects: provides getters for the velocity or controller values.">
<polygon fill="white" stroke="black" points="290,-642 290,-732 392,-732 392,-642 290,-642"/>
<text text-anchor="middle" x="341" y="-720" font-family="Helvetica,sans-Serif" font-size="10.00">INoteCCValue</text>
<polyline fill="none" stroke="black" points="290,-713 392,-713 "/>
<text text-anchor="start" x="298" y="-701" font-family="Helvetica,sans-Serif" font-size="10.00">&#45; rangeLength</text>
<polyline fill="none" stroke="black" points="290,-694 392,-694 "/>
<text text-anchor="start" x="298" y="-682" font-family="Helvetica,sans-Serif" font-size="10.00">+ length()</text>
<text text-anchor="start" x="298" y="-671" font-family="Helvetica,sans-Serif" font-size="10.00">+ getValue()</text>
<text text-anchor="start" x="298" y="-660" font-family="Helvetica,sans-Serif" font-size="10.00">+ getValue()</text>
<text text-anchor="start" x="298" y="-649" font-family="Helvetica,sans-Serif" font-size="10.00"># INoteCCValue()</text>
</a>
</g>
</g>
<!-- Node9&#45;&gt;Node3 -->
<g id="edge10" class="edge">
<title>Node9&#45;&gt;Node3</title>
<path fill="none" stroke="midnightblue" d="M360.06,-632.38C374.64,-591.37 395.15,-533.67 412.7,-484.31"/>
<polygon fill="none" stroke="midnightblue" points="356.73,-631.31 356.67,-641.91 363.32,-633.66 356.73,-631.31"/>
</g>
<!-- Node10 -->
<g id="node10" class="node">
<title>Node10</title>
<g id="a_node10"><a xlink:href="../../d5/ddd/classNoteCCLED.html" target="_top" xlink:title=" ">
<polygon fill="white" stroke="black" points="410.5,-631 410.5,-743 553.5,-743 553.5,-631 410.5,-631"/>
<text text-anchor="middle" x="482" y="-731" font-family="Helvetica,sans-Serif" font-size="10.00">NoteCCLED&lt; RangeLen &gt;</text>
<polyline fill="none" stroke="black" points="410.5,-724 553.5,-724 "/>
<text text-anchor="start" x="418.5" y="-712" font-family="Helvetica,sans-Serif" font-size="10.00">&#45; ledPins</text>
<text text-anchor="start" x="418.5" y="-701" font-family="Helvetica,sans-Serif" font-size="10.00">&#45; threshold</text>
<polyline fill="none" stroke="black" points="410.5,-694 553.5,-694 "/>
<text text-anchor="start" x="418.5" y="-682" font-family="Helvetica,sans-Serif" font-size="10.00">+ NoteCCLED()</text>
<text text-anchor="start" x="418.5" y="-671" font-family="Helvetica,sans-Serif" font-size="10.00">+ setThreshold()</text>
<text text-anchor="start" x="418.5" y="-660" font-family="Helvetica,sans-Serif" font-size="10.00">+ getThreshold()</text>
<text text-anchor="start" x="418.5" y="-649" font-family="Helvetica,sans-Serif" font-size="10.00">+ begin()</text>
<text text-anchor="start" x="418.5" y="-638" font-family="Helvetica,sans-Serif" font-size="10.00">+ update()</text>
</a>
</g>
</g>
<!-- Node10&#45;&gt;Node3 -->
<g id="edge11" class="edge">
<title>Node10&#45;&gt;Node3</title>
<path fill="none" stroke="#404040" d="M475.76,-630.79C471.51,-593.17 465.74,-542.04 460.56,-496.17"/>
<polygon fill="none" stroke="#404040" points="460.53,-495.93 455.88,-490.42 459.18,-484 463.83,-489.52 460.53,-495.93"/>
<text text-anchor="middle" x="496" y="-560.5" font-family="Helvetica,sans-Serif" font-size="10.00"> +callback</text>
</g>
<!-- Node11 -->
<g id="node11" class="node">
<title>Node11</title>
<g id="a_node11"><a xlink:href="../../de/d07/structSimpleNoteCCValueCallback.html" target="_top" xlink:title="A callback for NoteCCRange with an action that can be implemented by the user.">
<polygon fill="white" stroke="black" points="394.5,-852.5 394.5,-942.5 569.5,-942.5 569.5,-852.5 394.5,-852.5"/>
<text text-anchor="middle" x="482" y="-930.5" font-family="Helvetica,sans-Serif" font-size="10.00">SimpleNoteCCValueCallback</text>
<polyline fill="none" stroke="black" points="394.5,-923.5 569.5,-923.5 "/>
<text text-anchor="middle" x="482" y="-911.5" font-family="Helvetica,sans-Serif" font-size="10.00"> </text>
<polyline fill="none" stroke="black" points="394.5,-904.5 569.5,-904.5 "/>
<text text-anchor="start" x="402.5" y="-892.5" font-family="Helvetica,sans-Serif" font-size="10.00">+ begin()</text>
<text text-anchor="start" x="402.5" y="-881.5" font-family="Helvetica,sans-Serif" font-size="10.00">+ update()</text>
<text text-anchor="start" x="402.5" y="-870.5" font-family="Helvetica,sans-Serif" font-size="10.00">+ updateAll()</text>
<text text-anchor="start" x="402.5" y="-859.5" font-family="Helvetica,sans-Serif" font-size="10.00"># SimpleNoteCCValueCallback()</text>
</a>
</g>
</g>
<!-- Node11&#45;&gt;Node10 -->
<g id="edge12" class="edge">
<title>Node11&#45;&gt;Node10</title>
<path fill="none" stroke="midnightblue" d="M482,-842.27C482,-811.82 482,-773.92 482,-743.31"/>
<polygon fill="none" stroke="midnightblue" points="478.5,-842.28 482,-852.28 485.5,-842.28 478.5,-842.28"/>
</g>
<!-- Node12 -->
<g id="node12" class="node">
<title>Node12</title>
<g id="a_node12"><a xlink:href="../../d0/d32/structAH_1_1Array.html" target="_top" xlink:title=" ">
<polygon fill="white" stroke="black" points="571.5,-592.5 571.5,-781.5 732.5,-781.5 732.5,-592.5 571.5,-592.5"/>
<text text-anchor="start" x="579.5" y="-769.5" font-family="Helvetica,sans-Serif" font-size="10.00">Array&lt; Array&lt; uint8</text>
<text text-anchor="middle" x="652" y="-758.5" font-family="Helvetica,sans-Serif" font-size="10.00">_t, RangeLen &gt;, NumBanks &gt;</text>
<polyline fill="none" stroke="black" points="571.5,-751.5 732.5,-751.5 "/>
<text text-anchor="start" x="579.5" y="-739.5" font-family="Helvetica,sans-Serif" font-size="10.00">+ data</text>
<text text-anchor="start" x="579.5" y="-728.5" font-family="Helvetica,sans-Serif" font-size="10.00">+ length</text>
<polyline fill="none" stroke="black" points="571.5,-721.5 732.5,-721.5 "/>
<text text-anchor="start" x="579.5" y="-709.5" font-family="Helvetica,sans-Serif" font-size="10.00">+ operator[]()</text>
<text text-anchor="start" x="579.5" y="-698.5" font-family="Helvetica,sans-Serif" font-size="10.00">+ operator[]()</text>
<text text-anchor="start" x="579.5" y="-687.5" font-family="Helvetica,sans-Serif" font-size="10.00">+ begin()</text>
<text text-anchor="start" x="579.5" y="-676.5" font-family="Helvetica,sans-Serif" font-size="10.00">+ begin()</text>
<text text-anchor="start" x="579.5" y="-665.5" font-family="Helvetica,sans-Serif" font-size="10.00">+ end()</text>
<text text-anchor="start" x="579.5" y="-654.5" font-family="Helvetica,sans-Serif" font-size="10.00">+ end()</text>
<text text-anchor="start" x="579.5" y="-643.5" font-family="Helvetica,sans-Serif" font-size="10.00">+ operator==()</text>
<text text-anchor="start" x="579.5" y="-632.5" font-family="Helvetica,sans-Serif" font-size="10.00">+ operator!=()</text>
<text text-anchor="start" x="579.5" y="-621.5" font-family="Helvetica,sans-Serif" font-size="10.00">+ slice()</text>
<text text-anchor="start" x="579.5" y="-610.5" font-family="Helvetica,sans-Serif" font-size="10.00">+ slice()</text>
<text text-anchor="start" x="579.5" y="-599.5" font-family="Helvetica,sans-Serif" font-size="10.00">+ cslice()</text>
</a>
</g>
</g>
<!-- Node12&#45;&gt;Node3 -->
<g id="edge13" class="edge">
<title>Node12&#45;&gt;Node3</title>
<path fill="none" stroke="#404040" d="M588.57,-592.41C567.52,-561.34 543.89,-526.48 522.1,-494.34"/>
<polygon fill="none" stroke="#404040" points="521.83,-493.94 515.15,-491.21 515.1,-484 521.78,-486.73 521.83,-493.94"/>
<text text-anchor="middle" x="594.5" y="-560.5" font-family="Helvetica,sans-Serif" font-size="10.00"> &#45;values</text>
</g>
</g>
</svg>
