<?xml version="1.0" encoding="UTF-8" standalone="no"?>
<!DOCTYPE svg PUBLIC "-//W3C//DTD SVG 1.1//EN"
 "http://www.w3.org/Graphics/SVG/1.1/DTD/svg11.dtd">
<!-- Generated by graphviz version 2.43.0 (0)
 -->
<!-- Title: CCIncrementDecrementButtons&lt; NumBanks &gt; Pages: 1 -->
<svg width="230pt" height="947pt"
 viewBox="0.00 0.00 230.00 947.00" xmlns="http://www.w3.org/2000/svg" xmlns:xlink="http://www.w3.org/1999/xlink">
<g id="graph0" class="graph" transform="scale(1 1) rotate(0) translate(4 943)">
<title>CCIncrementDecrementButtons&lt; NumBanks &gt;</title>
<!-- Node1 -->
<g id="Node000001" class="node">
<title>Node1</title>
<g id="a_Node000001"><a xlink:title="A class of MIDIOutputElements that read the input of two momentary push buttons to increment or decre...">
<polygon fill="#999999" stroke="transparent" points="203,-60 19,-60 19,0 203,0 203,-60"/>
<text text-anchor="start" x="33.5" y="-48" font-family="Helvetica,sans-Serif" font-size="10.00">CCIncrementDecrementButtons</text>
<text text-anchor="start" x="73" y="-37" font-family="Helvetica,sans-Serif" font-size="10.00">&lt; NumBanks &gt;</text>
<text text-anchor="start" x="109" y="-22" font-family="Helvetica,sans-Serif" font-size="10.00"> </text>
<text text-anchor="start" x="23" y="-7" font-family="Helvetica,sans-Serif" font-size="10.00">+</text>
<text text-anchor="start" x="36" y="-7" font-family="Helvetica,sans-Serif" font-size="10.00">CCIncrementDecrementButtons()</text>
<polygon fill="#666666" stroke="#666666" points="19,-32 19,-32 203,-32 203,-32 19,-32"/>
<polygon fill="#666666" stroke="#666666" points="19,-17 19,-17 203,-17 203,-17 19,-17"/>
<polygon fill="none" stroke="#666666" points="19,0 19,-60 203,-60 203,0 19,0"/>
</a>
</g>
</g>
<!-- Node2 -->
<g id="Node000002" class="node">
<title>Node2</title>
<g id="a_Node000002"><a xlink:href="../../d1/d2f/classBankable_1_1MIDIIncrementDecrementButtons.html" target="_top" xlink:title=" ">
<polygon fill="white" stroke="transparent" points="222,-452 0,-452 0,-96 222,-96 222,-452"/>
<text text-anchor="start" x="5" y="-440" font-family="Helvetica,sans-Serif" font-size="10.00">MIDIIncrementDecrementButtons</text>
<text text-anchor="start" x="5" y="-429" font-family="Helvetica,sans-Serif" font-size="10.00">&lt; DualManyAddresses&lt; NumBanks</text>
<text text-anchor="start" x="5" y="-418" font-family="Helvetica,sans-Serif" font-size="10.00"> &gt;, RelativeCCSender, DigitalNoteSender &gt;</text>
<text text-anchor="start" x="11" y="-403" font-family="Helvetica,sans-Serif" font-size="10.00">+</text>
<text text-anchor="start" x="31" y="-403" font-family="Helvetica,sans-Serif" font-size="10.00">relativeSender</text>
<text text-anchor="start" x="11" y="-388" font-family="Helvetica,sans-Serif" font-size="10.00">+</text>
<text text-anchor="start" x="31" y="-388" font-family="Helvetica,sans-Serif" font-size="10.00">resetSender</text>
<text text-anchor="start" x="11" y="-373" font-family="Helvetica,sans-Serif" font-size="10.00">#</text>
<text text-anchor="start" x="31" y="-373" font-family="Helvetica,sans-Serif" font-size="10.00">addresses</text>
<text text-anchor="start" x="11" y="-358" font-family="Helvetica,sans-Serif" font-size="10.00">#</text>
<text text-anchor="start" x="31" y="-358" font-family="Helvetica,sans-Serif" font-size="10.00">buttons</text>
<text text-anchor="start" x="11" y="-343" font-family="Helvetica,sans-Serif" font-size="10.00">#</text>
<text text-anchor="start" x="31" y="-343" font-family="Helvetica,sans-Serif" font-size="10.00">multiplier</text>
<text text-anchor="start" x="11" y="-328" font-family="Helvetica,sans-Serif" font-size="10.00">#</text>
<text text-anchor="start" x="31" y="-328" font-family="Helvetica,sans-Serif" font-size="10.00">next</text>
<text text-anchor="start" x="11" y="-313" font-family="Helvetica,sans-Serif" font-size="10.00">#</text>
<text text-anchor="start" x="31" y="-313" font-family="Helvetica,sans-Serif" font-size="10.00">previous</text>
<text text-anchor="start" x="11" y="-298" font-family="Helvetica,sans-Serif" font-size="10.00">#</text>
<text text-anchor="start" x="31" y="-298" font-family="Helvetica,sans-Serif" font-size="10.00">updatables</text>
<text text-anchor="start" x="11" y="-283" font-family="Helvetica,sans-Serif" font-size="10.00">+</text>
<text text-anchor="start" x="31" y="-283" font-family="Helvetica,sans-Serif" font-size="10.00">begin()</text>
<text text-anchor="start" x="11" y="-268" font-family="Helvetica,sans-Serif" font-size="10.00">+</text>
<text text-anchor="start" x="31" y="-268" font-family="Helvetica,sans-Serif" font-size="10.00">update()</text>
<text text-anchor="start" x="11" y="-253" font-family="Helvetica,sans-Serif" font-size="10.00">+</text>
<text text-anchor="start" x="31" y="-253" font-family="Helvetica,sans-Serif" font-size="10.00">send()</text>
<text text-anchor="start" x="11" y="-238" font-family="Helvetica,sans-Serif" font-size="10.00">+</text>
<text text-anchor="start" x="31" y="-238" font-family="Helvetica,sans-Serif" font-size="10.00">reset()</text>
<text text-anchor="start" x="11" y="-223" font-family="Helvetica,sans-Serif" font-size="10.00">+</text>
<text text-anchor="start" x="31" y="-223" font-family="Helvetica,sans-Serif" font-size="10.00">invert()</text>
<text text-anchor="start" x="11" y="-208" font-family="Helvetica,sans-Serif" font-size="10.00">+</text>
<text text-anchor="start" x="31" y="-208" font-family="Helvetica,sans-Serif" font-size="10.00">getButtonsState()</text>
<text text-anchor="start" x="11" y="-193" font-family="Helvetica,sans-Serif" font-size="10.00">#</text>
<text text-anchor="start" x="31" y="-193" font-family="Helvetica,sans-Serif" font-size="10.00">MIDIIncrementDecrementButtons()</text>
<text text-anchor="start" x="12.5" y="-178" font-family="Helvetica,sans-Serif" font-size="10.00">*</text>
<text text-anchor="start" x="31" y="-178" font-family="Helvetica,sans-Serif" font-size="10.00">enable()</text>
<text text-anchor="start" x="12.5" y="-163" font-family="Helvetica,sans-Serif" font-size="10.00">*</text>
<text text-anchor="start" x="31" y="-163" font-family="Helvetica,sans-Serif" font-size="10.00">disable()</text>
<text text-anchor="start" x="12.5" y="-148" font-family="Helvetica,sans-Serif" font-size="10.00">*</text>
<text text-anchor="start" x="31" y="-148" font-family="Helvetica,sans-Serif" font-size="10.00">isEnabled()</text>
<text text-anchor="start" x="12.5" y="-133" font-family="Helvetica,sans-Serif" font-size="10.00">*</text>
<text text-anchor="start" x="31" y="-133" font-family="Helvetica,sans-Serif" font-size="10.00">moveDown()</text>
<text text-anchor="start" x="12.5" y="-118" font-family="Helvetica,sans-Serif" font-size="10.00">*</text>
<text text-anchor="start" x="31" y="-118" font-family="Helvetica,sans-Serif" font-size="10.00">beginAll()</text>
<text text-anchor="start" x="12.5" y="-103" font-family="Helvetica,sans-Serif" font-size="10.00">*</text>
<text text-anchor="start" x="31" y="-103" font-family="Helvetica,sans-Serif" font-size="10.00">updateAll()</text>
<polygon fill="#666666" stroke="#666666" points="0,-413 0,-413 222,-413 222,-413 0,-413"/>
<polygon fill="#666666" stroke="#666666" points="0,-293 0,-293 29,-293 29,-293 0,-293"/>
<polygon fill="#666666" stroke="#666666" points="29,-293 29,-293 222,-293 222,-293 29,-293"/>
<polygon fill="none" stroke="#666666" points="0,-96 0,-452 222,-452 222,-96 0,-96"/>
</a>
</g>
</g>
<!-- Node2&#45;&gt;Node1 -->
<g id="edge1_Node000001_Node000002" class="edge">
<title>Node2&#45;&gt;Node1</title>
<g id="a_edge1_Node000001_Node000002"><a xlink:title=" ">
<path fill="none" stroke="#63b8ff" d="M111,-85.73C111,-76.28 111,-67.61 111,-60.09"/>
<polygon fill="none" stroke="#63b8ff" points="107.5,-85.85 111,-95.85 114.5,-85.85 107.5,-85.85"/>
</a>
</g>
</g>
<!-- Node3 -->
<g id="Node000003" class="node">
<title>Node3</title>
<g id="a_Node000003"><a xlink:href="../../d1/d55/classAH_1_1Updatable.html" target="_top" xlink:title="A super class for object that have to be updated regularly.">
<polygon fill="white" stroke="transparent" points="164.5,-582 57.5,-582 57.5,-488 164.5,-488 164.5,-582"/>
<text text-anchor="start" x="63" y="-570" font-family="Helvetica,sans-Serif" font-size="10.00">MIDIOutputElement</text>
<text text-anchor="start" x="109.5" y="-555" font-family="Helvetica,sans-Serif" font-size="10.00"> </text>
<text text-anchor="start" x="70.5" y="-540" font-family="Helvetica,sans-Serif" font-size="10.00">*</text>
<text text-anchor="start" x="89" y="-540" font-family="Helvetica,sans-Serif" font-size="10.00">begin()</text>
<text text-anchor="start" x="70.5" y="-525" font-family="Helvetica,sans-Serif" font-size="10.00">*</text>
<text text-anchor="start" x="89" y="-525" font-family="Helvetica,sans-Serif" font-size="10.00">update()</text>
<text text-anchor="start" x="70.5" y="-510" font-family="Helvetica,sans-Serif" font-size="10.00">*</text>
<text text-anchor="start" x="89" y="-510" font-family="Helvetica,sans-Serif" font-size="10.00">beginAll()</text>
<text text-anchor="start" x="70.5" y="-495" font-family="Helvetica,sans-Serif" font-size="10.00">*</text>
<text text-anchor="start" x="89" y="-495" font-family="Helvetica,sans-Serif" font-size="10.00">updateAll()</text>
<polygon fill="#666666" stroke="#666666" points="58,-565 58,-565 165,-565 165,-565 58,-565"/>
<polygon fill="#666666" stroke="#666666" points="58,-550 58,-550 165,-550 165,-550 58,-550"/>
<polygon fill="none" stroke="#666666" points="57.5,-488 57.5,-582 164.5,-582 164.5,-488 57.5,-488"/>
</a>
</g>
</g>
<!-- Node3&#45;&gt;Node2 -->
<g id="edge2_Node000002_Node000003" class="edge">
<title>Node3&#45;&gt;Node2</title>
<g id="a_edge2_Node000002_Node000003"><a xlink:title=" ">
<path fill="none" stroke="#63b8ff" d="M111,-477.73C111,-469.67 111,-461.04 111,-452.06"/>
<polygon fill="none" stroke="#63b8ff" points="107.5,-477.99 111,-487.99 114.5,-477.99 107.5,-477.99"/>
</a>
</g>
</g>
<!-- Node4 -->
<g id="Node000004" class="node">
<title>Node4</title>
<g id="a_Node000004"><a xlink:href="../../d8/d1a/classAH_1_1UpdatableCRTP.html" target="_top" xlink:title=" ">
<polygon fill="white" stroke="transparent" points="184.5,-798 37.5,-798 37.5,-618 184.5,-618 184.5,-798"/>
<text text-anchor="start" x="43" y="-786" font-family="Helvetica,sans-Serif" font-size="10.00">UpdatableCRTP&lt; Updatable</text>
<text text-anchor="start" x="51" y="-775" font-family="Helvetica,sans-Serif" font-size="10.00">&lt; NormalUpdatable &gt; &gt;</text>
<text text-anchor="start" x="50.5" y="-760" font-family="Helvetica,sans-Serif" font-size="10.00">#</text>
<text text-anchor="start" x="72" y="-760" font-family="Helvetica,sans-Serif" font-size="10.00">next</text>
<text text-anchor="start" x="50.5" y="-745" font-family="Helvetica,sans-Serif" font-size="10.00">#</text>
<text text-anchor="start" x="72" y="-745" font-family="Helvetica,sans-Serif" font-size="10.00">previous</text>
<text text-anchor="start" x="50.5" y="-730" font-family="Helvetica,sans-Serif" font-size="10.00">#</text>
<text text-anchor="start" x="72" y="-730" font-family="Helvetica,sans-Serif" font-size="10.00">updatables</text>
<text text-anchor="start" x="50.5" y="-715" font-family="Helvetica,sans-Serif" font-size="10.00">+</text>
<text text-anchor="start" x="72" y="-715" font-family="Helvetica,sans-Serif" font-size="10.00">~UpdatableCRTP()</text>
<text text-anchor="start" x="50.5" y="-700" font-family="Helvetica,sans-Serif" font-size="10.00">#</text>
<text text-anchor="start" x="72" y="-700" font-family="Helvetica,sans-Serif" font-size="10.00">UpdatableCRTP()</text>
<text text-anchor="start" x="50.5" y="-685" font-family="Helvetica,sans-Serif" font-size="10.00">#</text>
<text text-anchor="start" x="72" y="-685" font-family="Helvetica,sans-Serif" font-size="10.00">operator=()</text>
<text text-anchor="start" x="52" y="-670" font-family="Helvetica,sans-Serif" font-size="10.00">*</text>
<text text-anchor="start" x="72" y="-670" font-family="Helvetica,sans-Serif" font-size="10.00">enable()</text>
<text text-anchor="start" x="52" y="-655" font-family="Helvetica,sans-Serif" font-size="10.00">*</text>
<text text-anchor="start" x="72" y="-655" font-family="Helvetica,sans-Serif" font-size="10.00">disable()</text>
<text text-anchor="start" x="52" y="-640" font-family="Helvetica,sans-Serif" font-size="10.00">*</text>
<text text-anchor="start" x="72" y="-640" font-family="Helvetica,sans-Serif" font-size="10.00">isEnabled()</text>
<text text-anchor="start" x="52" y="-625" font-family="Helvetica,sans-Serif" font-size="10.00">*</text>
<text text-anchor="start" x="72" y="-625" font-family="Helvetica,sans-Serif" font-size="10.00">moveDown()</text>
<polygon fill="#666666" stroke="#666666" points="38,-770 38,-770 185,-770 185,-770 38,-770"/>
<polygon fill="#666666" stroke="#666666" points="38,-725 38,-725 70,-725 70,-725 38,-725"/>
<polygon fill="#666666" stroke="#666666" points="70,-725 70,-725 185,-725 185,-725 70,-725"/>
<polygon fill="none" stroke="#666666" points="37.5,-618 37.5,-798 184.5,-798 184.5,-618 37.5,-618"/>
</a>
</g>
</g>
<!-- Node4&#45;&gt;Node3 -->
<g id="edge3_Node000003_Node000004" class="edge">
<title>Node4&#45;&gt;Node3</title>
<g id="a_edge3_Node000003_Node000004"><a xlink:title=" ">
<path fill="none" stroke="#63b8ff" d="M111,-607.92C111,-599.05 111,-590.38 111,-582.31"/>
<polygon fill="none" stroke="#63b8ff" points="107.5,-607.99 111,-617.99 114.5,-607.99 107.5,-607.99"/>
</a>
</g>
</g>
<!-- Node5 -->
<g id="Node000005" class="node">
<title>Node5</title>
<g id="a_Node000005"><a xlink:href="../../d4/d23/classDoublyLinkable.html" target="_top" xlink:title=" ">
<polygon fill="white" stroke="transparent" points="184.5,-939 37.5,-939 37.5,-834 184.5,-834 184.5,-939"/>
<text text-anchor="start" x="43" y="-926.5" font-family="Helvetica,sans-Serif" font-size="10.00">DoublyLinkable&lt; Updatable</text>
<text text-anchor="start" x="51" y="-915.5" font-family="Helvetica,sans-Serif" font-size="10.00">&lt; NormalUpdatable &gt; &gt;</text>
<text text-anchor="start" x="50.5" y="-900.5" font-family="Helvetica,sans-Serif" font-size="10.00">#</text>
<text text-anchor="start" x="72" y="-900.5" font-family="Helvetica,sans-Serif" font-size="10.00">next</text>
<text text-anchor="start" x="50.5" y="-885.5" font-family="Helvetica,sans-Serif" font-size="10.00">#</text>
<text text-anchor="start" x="72" y="-885.5" font-family="Helvetica,sans-Serif" font-size="10.00">previous</text>
<text text-anchor="start" x="50.5" y="-870.5" font-family="Helvetica,sans-Serif" font-size="10.00">#</text>
<text text-anchor="start" x="72" y="-870.5" font-family="Helvetica,sans-Serif" font-size="10.00">~DoublyLinkable()</text>
<text text-anchor="start" x="50.5" y="-855.5" font-family="Helvetica,sans-Serif" font-size="10.00">#</text>
<text text-anchor="start" x="72" y="-855.5" font-family="Helvetica,sans-Serif" font-size="10.00">DoublyLinkable()</text>
<text text-anchor="start" x="50.5" y="-840.5" font-family="Helvetica,sans-Serif" font-size="10.00">#</text>
<text text-anchor="start" x="72" y="-840.5" font-family="Helvetica,sans-Serif" font-size="10.00">operator=()</text>
<polygon fill="#666666" stroke="#666666" points="38,-910.5 38,-910.5 185,-910.5 185,-910.5 38,-910.5"/>
<polygon fill="#666666" stroke="#666666" points="38,-880.5 38,-880.5 70,-880.5 70,-880.5 38,-880.5"/>
<polygon fill="#666666" stroke="#666666" points="70,-880.5 70,-880.5 185,-880.5 185,-880.5 70,-880.5"/>
<polygon fill="none" stroke="#666666" points="37.5,-834 37.5,-939 184.5,-939 184.5,-834 37.5,-834"/>
</a>
</g>
</g>
<!-- Node5&#45;&gt;Node4 -->
<g id="edge4_Node000004_Node000005" class="edge">
<title>Node5&#45;&gt;Node4</title>
<g id="a_edge4_Node000004_Node000005"><a xlink:title=" ">
<path fill="none" stroke="#63b8ff" d="M111,-823.96C111,-815.58 111,-806.86 111,-798.12"/>
<polygon fill="none" stroke="#63b8ff" points="107.5,-823.97 111,-833.97 114.5,-823.97 107.5,-823.97"/>
</a>
</g>
</g>
</g>
</svg>
