<?xml version="1.0" encoding="UTF-8" standalone="no"?>
<!DOCTYPE svg PUBLIC "-//W3C//DTD SVG 1.1//EN"
 "http://www.w3.org/Graphics/SVG/1.1/DTD/svg11.dtd">
<!-- Generated by graphviz version 2.38.0 (20140413.2041)
 -->
<!-- Title: ShiftRegisterOutBase.ipp Pages: 1 -->
<svg width="927pt" height="644pt"
 viewBox="0.00 0.00 927.00 644.00" xmlns="http://www.w3.org/2000/svg" xmlns:xlink="http://www.w3.org/1999/xlink">
<g id="graph0" class="graph" transform="scale(1 1) rotate(0) translate(4 640)">
<title>ShiftRegisterOutBase.ipp</title>
<polygon fill="white" stroke="none" points="-4,4 -4,-640 923,-640 923,4 -4,4"/>
<!-- Node1 -->
<g id="node1" class="node"><title>Node1</title>
<g id="a_node1"><a xlink:title=" ">
<polygon fill="#bfbfbf" stroke="black" points="570,-616.5 570,-635.5 698,-635.5 698,-616.5 570,-616.5"/>
<text text-anchor="middle" x="634" y="-623.5" font-family="Helvetica,sans-Serif" font-size="10.00">ShiftRegisterOutBase.ipp</text>
</a>
</g>
</g>
<!-- Node2 -->
<g id="node2" class="node"><title>Node2</title>
<g id="a_node2"><a xlink:href="../../dd/ddf/ExtendedInputOutput_8hpp.html" target="_top" xlink:title=" ">
<polygon fill="white" stroke="black" points="339,-504.5 339,-523.5 467,-523.5 467,-504.5 339,-504.5"/>
<text text-anchor="middle" x="403" y="-511.5" font-family="Helvetica,sans-Serif" font-size="10.00">ExtendedInputOutput.hpp</text>
</a>
</g>
</g>
<!-- Node1&#45;&gt;Node2 -->
<g id="edge1" class="edge"><title>Node1&#45;&gt;Node2</title>
<path fill="none" stroke="midnightblue" d="M615.874,-616.368C575.475,-597.131 477.86,-550.648 430.156,-527.931"/>
<polygon fill="midnightblue" stroke="midnightblue" points="431.575,-524.731 421.042,-523.591 428.566,-531.051 431.575,-524.731"/>
</g>
<!-- Node23 -->
<g id="node23" class="node"><title>Node23</title>
<g id="a_node23"><a xlink:href="../../d8/d93/ShiftRegisterOutBase_8hpp.html" target="_top" xlink:title=" ">
<polygon fill="white" stroke="black" points="568.5,-560.5 568.5,-579.5 699.5,-579.5 699.5,-560.5 568.5,-560.5"/>
<text text-anchor="middle" x="634" y="-567.5" font-family="Helvetica,sans-Serif" font-size="10.00">ShiftRegisterOutBase.hpp</text>
</a>
</g>
</g>
<!-- Node1&#45;&gt;Node23 -->
<g id="edge33" class="edge"><title>Node1&#45;&gt;Node23</title>
<path fill="none" stroke="midnightblue" d="M628.834,-616.083C627.324,-608.927 626.894,-598.635 627.542,-589.691"/>
<polygon fill="midnightblue" stroke="midnightblue" points="631.015,-590.126 628.869,-579.751 624.077,-589.2 631.015,-590.126"/>
</g>
<!-- Node27 -->
<g id="node27" class="node"><title>Node27</title>
<g id="a_node27"><a xlink:href="../../d1/d1f/ShiftRegisterOutRGB_8hpp.html" target="_top" xlink:title=" ">
<polygon fill="white" stroke="black" points="761,-224.5 761,-243.5 891,-243.5 891,-224.5 761,-224.5"/>
<text text-anchor="middle" x="826" y="-231.5" font-family="Helvetica,sans-Serif" font-size="10.00">ShiftRegisterOutRGB.hpp</text>
</a>
</g>
</g>
<!-- Node1&#45;&gt;Node27 -->
<g id="edge43" class="edge"><title>Node1&#45;&gt;Node27</title>
<path fill="none" stroke="midnightblue" d="M693.173,-616.461C749.587,-604.583 826,-577.042 826,-515 826,-515 826,-515 826,-345 826,-312.948 826,-275.643 826,-253.749"/>
<polygon fill="midnightblue" stroke="midnightblue" points="829.5,-253.558 826,-243.558 822.5,-253.558 829.5,-253.558"/>
</g>
<!-- Node3 -->
<g id="node3" class="node"><title>Node3</title>
<g id="a_node3"><a xlink:href="../../d4/d57/ExtendedIOElement_8hpp.html" target="_top" xlink:title=" ">
<polygon fill="white" stroke="black" points="398.5,-448.5 398.5,-467.5 521.5,-467.5 521.5,-448.5 398.5,-448.5"/>
<text text-anchor="middle" x="460" y="-455.5" font-family="Helvetica,sans-Serif" font-size="10.00">ExtendedIOElement.hpp</text>
</a>
</g>
</g>
<!-- Node2&#45;&gt;Node3 -->
<g id="edge2" class="edge"><title>Node2&#45;&gt;Node3</title>
<path fill="none" stroke="midnightblue" d="M412.158,-504.324C420.501,-496.42 433.032,-484.548 443.177,-474.938"/>
<polygon fill="midnightblue" stroke="midnightblue" points="445.823,-477.252 450.675,-467.834 441.009,-472.171 445.823,-477.252"/>
</g>
<!-- Node8 -->
<g id="node8" class="node"><title>Node8</title>
<g id="a_node8"><a xlink:title=" ">
<polygon fill="white" stroke="#bfbfbf" points="57,-0.5 57,-19.5 115,-19.5 115,-0.5 57,-0.5"/>
<text text-anchor="middle" x="86" y="-7.5" font-family="Helvetica,sans-Serif" font-size="10.00">Arduino.h</text>
</a>
</g>
</g>
<!-- Node2&#45;&gt;Node8 -->
<g id="edge32" class="edge"><title>Node2&#45;&gt;Node8</title>
<path fill="none" stroke="midnightblue" d="M338.698,-508.759C224.92,-499.475 0,-472.352 0,-403 0,-403 0,-403 0,-121 0,-79.583 38.3068,-44.4526 63.7882,-25.6658"/>
<polygon fill="midnightblue" stroke="midnightblue" points="66.0461,-28.3555 72.1826,-19.7187 61.9995,-22.6436 66.0461,-28.3555"/>
</g>
<!-- Node4 -->
<g id="node4" class="node"><title>Node4</title>
<g id="a_node4"><a xlink:href="../../d4/d35/Hardware-Types_8hpp.html" target="_top" xlink:title=" ">
<polygon fill="white" stroke="black" points="384,-392.5 384,-411.5 536,-411.5 536,-392.5 384,-392.5"/>
<text text-anchor="middle" x="460" y="-399.5" font-family="Helvetica,sans-Serif" font-size="10.00">Hardware/Hardware&#45;Types.hpp</text>
</a>
</g>
</g>
<!-- Node3&#45;&gt;Node4 -->
<g id="edge3" class="edge"><title>Node3&#45;&gt;Node4</title>
<path fill="none" stroke="midnightblue" d="M460,-448.083C460,-441.006 460,-430.861 460,-421.986"/>
<polygon fill="midnightblue" stroke="midnightblue" points="463.5,-421.751 460,-411.751 456.5,-421.751 463.5,-421.751"/>
</g>
<!-- Node19 -->
<g id="node19" class="node"><title>Node19</title>
<g id="a_node19"><a xlink:href="../../de/dd1/LinkedList_8hpp.html" target="_top" xlink:title=" ">
<polygon fill="white" stroke="black" points="149,-280.5 149,-299.5 279,-299.5 279,-280.5 149,-280.5"/>
<text text-anchor="middle" x="214" y="-287.5" font-family="Helvetica,sans-Serif" font-size="10.00">Containers/LinkedList.hpp</text>
</a>
</g>
</g>
<!-- Node3&#45;&gt;Node19 -->
<g id="edge25" class="edge"><title>Node3&#45;&gt;Node19</title>
<path fill="none" stroke="midnightblue" d="M398.474,-454.526C333.152,-450.454 236.176,-439.78 213,-412 188.86,-383.065 199.04,-335.273 207.297,-309.255"/>
<polygon fill="midnightblue" stroke="midnightblue" points="210.689,-310.151 210.612,-299.556 204.066,-307.887 210.689,-310.151"/>
</g>
<!-- Node5 -->
<g id="node5" class="node"><title>Node5</title>
<g id="a_node5"><a xlink:href="../../de/d76/Array_8hpp.html" target="_top" xlink:title=" ">
<polygon fill="white" stroke="black" points="222.5,-336.5 222.5,-355.5 331.5,-355.5 331.5,-336.5 222.5,-336.5"/>
<text text-anchor="middle" x="277" y="-343.5" font-family="Helvetica,sans-Serif" font-size="10.00">Containers/Array.hpp</text>
</a>
</g>
</g>
<!-- Node4&#45;&gt;Node5 -->
<g id="edge4" class="edge"><title>Node4&#45;&gt;Node5</title>
<path fill="none" stroke="midnightblue" d="M431.003,-392.444C399.815,-383.241 350.07,-368.562 315.592,-358.388"/>
<polygon fill="midnightblue" stroke="midnightblue" points="316.443,-354.99 305.861,-355.516 314.462,-361.704 316.443,-354.99"/>
</g>
<!-- Node11 -->
<g id="node11" class="node"><title>Node11</title>
<g id="a_node11"><a xlink:href="../../dc/dc7/NamespaceSettings_8hpp.html" target="_top" xlink:title=" ">
<polygon fill="white" stroke="black" points="558,-0.5 558,-19.5 682,-19.5 682,-0.5 558,-0.5"/>
<text text-anchor="middle" x="620" y="-7.5" font-family="Helvetica,sans-Serif" font-size="10.00">NamespaceSettings.hpp</text>
</a>
</g>
</g>
<!-- Node4&#45;&gt;Node11 -->
<g id="edge23" class="edge"><title>Node4&#45;&gt;Node11</title>
<path fill="none" stroke="midnightblue" d="M443.036,-392.364C414.506,-376.489 360,-339.779 360,-291 360,-291 360,-291 360,-177 360,-109.711 224.548,-106.515 269,-56 287.105,-35.4257 450.496,-21.6703 547.845,-15.2236"/>
<polygon fill="midnightblue" stroke="midnightblue" points="548.172,-18.7099 557.923,-14.5667 547.717,-11.7247 548.172,-18.7099"/>
</g>
<!-- Node17 -->
<g id="node17" class="node"><title>Node17</title>
<g id="a_node17"><a xlink:title=" ">
<polygon fill="white" stroke="#bfbfbf" points="732.5,-56.5 732.5,-75.5 781.5,-75.5 781.5,-56.5 732.5,-56.5"/>
<text text-anchor="middle" x="757" y="-63.5" font-family="Helvetica,sans-Serif" font-size="10.00">stdint.h</text>
</a>
</g>
</g>
<!-- Node4&#45;&gt;Node17 -->
<g id="edge24" class="edge"><title>Node4&#45;&gt;Node17</title>
<path fill="none" stroke="midnightblue" d="M467.64,-392.408C507.275,-347.835 689.668,-142.72 742.576,-83.2206"/>
<polygon fill="midnightblue" stroke="midnightblue" points="745.381,-85.3337 749.41,-75.5351 740.15,-80.6822 745.381,-85.3337"/>
</g>
<!-- Node6 -->
<g id="node6" class="node"><title>Node6</title>
<g id="a_node6"><a xlink:href="../../d1/d93/Error_8hpp.html" target="_top" xlink:title=" ">
<polygon fill="white" stroke="black" points="51,-280.5 51,-299.5 131,-299.5 131,-280.5 51,-280.5"/>
<text text-anchor="middle" x="91" y="-287.5" font-family="Helvetica,sans-Serif" font-size="10.00">Error/Error.hpp</text>
</a>
</g>
</g>
<!-- Node5&#45;&gt;Node6 -->
<g id="edge5" class="edge"><title>Node5&#45;&gt;Node6</title>
<path fill="none" stroke="midnightblue" d="M247.528,-336.444C215.829,-327.241 165.268,-312.562 130.225,-302.388"/>
<polygon fill="midnightblue" stroke="midnightblue" points="130.914,-298.943 120.334,-299.516 128.962,-305.666 130.914,-298.943"/>
</g>
<!-- Node16 -->
<g id="node16" class="node"><title>Node16</title>
<g id="a_node16"><a xlink:title=" ">
<polygon fill="white" stroke="#bfbfbf" points="278,-56.5 278,-75.5 330,-75.5 330,-56.5 278,-56.5"/>
<text text-anchor="middle" x="304" y="-63.5" font-family="Helvetica,sans-Serif" font-size="10.00">stddef.h</text>
</a>
</g>
</g>
<!-- Node5&#45;&gt;Node16 -->
<g id="edge22" class="edge"><title>Node5&#45;&gt;Node16</title>
<path fill="none" stroke="midnightblue" d="M283.257,-336.37C295.622,-318.437 322,-275.442 322,-235 322,-235 322,-235 322,-177 322,-144.537 314.27,-107.384 308.942,-85.6276"/>
<polygon fill="midnightblue" stroke="midnightblue" points="312.288,-84.5867 306.428,-75.7605 305.505,-86.3151 312.288,-84.5867"/>
</g>
<!-- Node7 -->
<g id="node7" class="node"><title>Node7</title>
<g id="a_node7"><a xlink:href="../../df/dee/Debug_8hpp.html" target="_top" xlink:title=" ">
<polygon fill="white" stroke="black" points="28.5,-224.5 28.5,-243.5 123.5,-243.5 123.5,-224.5 28.5,-224.5"/>
<text text-anchor="middle" x="76" y="-231.5" font-family="Helvetica,sans-Serif" font-size="10.00">Debug/Debug.hpp</text>
</a>
</g>
</g>
<!-- Node6&#45;&gt;Node7 -->
<g id="edge6" class="edge"><title>Node6&#45;&gt;Node7</title>
<path fill="none" stroke="midnightblue" d="M88.5231,-280.083C86.5135,-272.849 83.6135,-262.409 81.1102,-253.397"/>
<polygon fill="midnightblue" stroke="midnightblue" points="84.4797,-252.449 78.4309,-243.751 77.7351,-254.323 84.4797,-252.449"/>
</g>
<!-- Node7&#45;&gt;Node8 -->
<g id="edge7" class="edge"><title>Node7&#45;&gt;Node8</title>
<path fill="none" stroke="midnightblue" d="M72.4,-224.222C68.9438,-215.285 63.9668,-200.942 62,-188 53.2481,-130.408 70.2633,-62.0307 79.9426,-29.7074"/>
<polygon fill="midnightblue" stroke="midnightblue" points="83.3791,-30.4429 83.0061,-19.8546 76.6948,-28.3645 83.3791,-30.4429"/>
</g>
<!-- Node9 -->
<g id="node9" class="node"><title>Node9</title>
<g id="a_node9"><a xlink:href="../../dd/d80/PrintStream_8hpp.html" target="_top" xlink:title=" ">
<polygon fill="white" stroke="black" points="71,-168.5 71,-187.5 213,-187.5 213,-168.5 71,-168.5"/>
<text text-anchor="middle" x="142" y="-175.5" font-family="Helvetica,sans-Serif" font-size="10.00">PrintStream/PrintStream.hpp</text>
</a>
</g>
</g>
<!-- Node7&#45;&gt;Node9 -->
<g id="edge8" class="edge"><title>Node7&#45;&gt;Node9</title>
<path fill="none" stroke="midnightblue" d="M86.604,-224.324C96.4562,-216.263 111.351,-204.077 123.215,-194.369"/>
<polygon fill="midnightblue" stroke="midnightblue" points="125.68,-196.875 131.203,-187.834 121.247,-191.457 125.68,-196.875"/>
</g>
<!-- Node10 -->
<g id="node10" class="node"><title>Node10</title>
<g id="a_node10"><a xlink:href="../../d2/dd5/SettingsWrapper_8hpp.html" target="_top" xlink:title=" ">
<polygon fill="white" stroke="black" points="434.5,-168.5 434.5,-187.5 581.5,-187.5 581.5,-168.5 434.5,-168.5"/>
<text text-anchor="middle" x="508" y="-175.5" font-family="Helvetica,sans-Serif" font-size="10.00">Settings/SettingsWrapper.hpp</text>
</a>
</g>
</g>
<!-- Node7&#45;&gt;Node10 -->
<g id="edge10" class="edge"><title>Node7&#45;&gt;Node10</title>
<path fill="none" stroke="midnightblue" d="M120.695,-224.465C121.805,-224.307 122.908,-224.152 124,-224 226.87,-209.712 345.996,-195.878 424.016,-187.406"/>
<polygon fill="midnightblue" stroke="midnightblue" points="424.705,-190.852 434.271,-186.298 423.953,-183.892 424.705,-190.852"/>
</g>
<!-- Node9&#45;&gt;Node8 -->
<g id="edge9" class="edge"><title>Node9&#45;&gt;Node8</title>
<path fill="none" stroke="midnightblue" d="M138.637,-168.421C131.89,-151.087 116.378,-110.592 105,-76 99.8916,-60.469 94.7266,-42.6311 91.0738,-29.5754"/>
<polygon fill="midnightblue" stroke="midnightblue" points="94.4341,-28.5947 88.3957,-19.8891 87.6872,-30.4602 94.4341,-28.5947"/>
</g>
<!-- Node10&#45;&gt;Node7 -->
<g id="edge21" class="edge"><title>Node10&#45;&gt;Node7</title>
<path fill="none" stroke="midnightblue" d="M436.859,-187.509C363.036,-195.989 244.455,-209.769 142,-224 139.347,-224.368 136.627,-224.758 133.871,-225.161"/>
<polygon fill="midnightblue" stroke="midnightblue" points="133.178,-221.725 123.802,-226.658 134.208,-228.649 133.178,-221.725"/>
</g>
<!-- Node10&#45;&gt;Node11 -->
<g id="edge11" class="edge"><title>Node10&#45;&gt;Node11</title>
<path fill="none" stroke="midnightblue" d="M551.369,-168.492C596.75,-156.79 664.116,-130.622 684,-76 687.041,-67.6473 688.097,-63.8885 684,-56 676.847,-42.2262 663.329,-31.783 650.553,-24.4413"/>
<polygon fill="midnightblue" stroke="midnightblue" points="651.958,-21.2252 641.483,-19.6403 648.683,-27.412 651.958,-21.2252"/>
</g>
<!-- Node12 -->
<g id="node12" class="node"><title>Node12</title>
<g id="a_node12"><a xlink:href="../../db/d02/Settings_8hpp.html" target="_top" xlink:title="All user settings and debugging options can be changed here.">
<polygon fill="white" stroke="black" points="388.5,-112.5 388.5,-131.5 459.5,-131.5 459.5,-112.5 388.5,-112.5"/>
<text text-anchor="middle" x="424" y="-119.5" font-family="Helvetica,sans-Serif" font-size="10.00">Settings.hpp</text>
</a>
</g>
</g>
<!-- Node10&#45;&gt;Node12 -->
<g id="edge12" class="edge"><title>Node10&#45;&gt;Node12</title>
<path fill="none" stroke="midnightblue" d="M494.504,-168.324C481.4,-159.9 461.288,-146.971 445.893,-137.074"/>
<polygon fill="midnightblue" stroke="midnightblue" points="447.767,-134.118 437.463,-131.655 443.982,-140.006 447.767,-134.118"/>
</g>
<!-- Node18 -->
<g id="node18" class="node"><title>Node18</title>
<g id="a_node18"><a xlink:href="../../d9/d98/TeensyUSBTypes_8hpp.html" target="_top" xlink:title=" ">
<polygon fill="white" stroke="black" points="477.5,-112.5 477.5,-131.5 628.5,-131.5 628.5,-112.5 477.5,-112.5"/>
<text text-anchor="middle" x="553" y="-119.5" font-family="Helvetica,sans-Serif" font-size="10.00">Teensy/TeensyUSBTypes.hpp</text>
</a>
</g>
</g>
<!-- Node10&#45;&gt;Node18 -->
<g id="edge20" class="edge"><title>Node10&#45;&gt;Node18</title>
<path fill="none" stroke="midnightblue" d="M515.431,-168.083C521.853,-160.377 531.306,-149.033 539.122,-139.653"/>
<polygon fill="midnightblue" stroke="midnightblue" points="541.994,-141.674 545.707,-131.751 536.617,-137.193 541.994,-141.674"/>
</g>
<!-- Node13 -->
<g id="node13" class="node"><title>Node13</title>
<g id="a_node13"><a xlink:href="../../dc/d50/Frequency_8hpp.html" target="_top" xlink:title=" ">
<polygon fill="white" stroke="black" points="564.5,-56.5 564.5,-75.5 675.5,-75.5 675.5,-56.5 564.5,-56.5"/>
<text text-anchor="middle" x="620" y="-63.5" font-family="Helvetica,sans-Serif" font-size="10.00">Types/Frequency.hpp</text>
</a>
</g>
</g>
<!-- Node12&#45;&gt;Node13 -->
<g id="edge13" class="edge"><title>Node12&#45;&gt;Node13</title>
<path fill="none" stroke="midnightblue" d="M455.057,-112.444C488.603,-103.201 542.197,-88.4356 579.141,-78.2572"/>
<polygon fill="midnightblue" stroke="midnightblue" points="580.377,-81.5469 589.089,-75.5164 578.518,-74.7984 580.377,-81.5469"/>
</g>
<!-- Node14 -->
<g id="node14" class="node"><title>Node14</title>
<g id="a_node14"><a xlink:href="../../d7/d7c/ADCConfig_8hpp.html" target="_top" xlink:title="This file contains the platform&#45;specific ADC resolutions. By default, the library automatically selec...">
<polygon fill="white" stroke="black" points="348.5,-56.5 348.5,-75.5 479.5,-75.5 479.5,-56.5 348.5,-56.5"/>
<text text-anchor="middle" x="414" y="-63.5" font-family="Helvetica,sans-Serif" font-size="10.00">Hardware/ADCConfig.hpp</text>
</a>
</g>
</g>
<!-- Node12&#45;&gt;Node14 -->
<g id="edge15" class="edge"><title>Node12&#45;&gt;Node14</title>
<path fill="none" stroke="midnightblue" d="M422.349,-112.083C421.024,-104.927 419.118,-94.6353 417.461,-85.6911"/>
<polygon fill="midnightblue" stroke="midnightblue" points="420.883,-84.9466 415.621,-75.7511 414,-86.2212 420.883,-84.9466"/>
</g>
<!-- Node15 -->
<g id="node15" class="node"><title>Node15</title>
<g id="a_node15"><a xlink:title=" ">
<polygon fill="white" stroke="#bfbfbf" points="498,-56.5 498,-75.5 546,-75.5 546,-56.5 498,-56.5"/>
<text text-anchor="middle" x="522" y="-63.5" font-family="Helvetica,sans-Serif" font-size="10.00">limits.h</text>
</a>
</g>
</g>
<!-- Node12&#45;&gt;Node15 -->
<g id="edge17" class="edge"><title>Node12&#45;&gt;Node15</title>
<path fill="none" stroke="midnightblue" d="M439.745,-112.324C455.319,-103.743 479.377,-90.486 497.459,-80.5224"/>
<polygon fill="midnightblue" stroke="midnightblue" points="499.224,-83.546 506.294,-75.6545 495.846,-77.4152 499.224,-83.546"/>
</g>
<!-- Node12&#45;&gt;Node16 -->
<g id="edge18" class="edge"><title>Node12&#45;&gt;Node16</title>
<path fill="none" stroke="midnightblue" d="M404.986,-112.444C385.412,-103.636 354.692,-89.8116 332.271,-79.722"/>
<polygon fill="midnightblue" stroke="midnightblue" points="333.481,-76.4284 322.925,-75.5164 330.608,-82.8119 333.481,-76.4284"/>
</g>
<!-- Node12&#45;&gt;Node17 -->
<g id="edge19" class="edge"><title>Node12&#45;&gt;Node17</title>
<path fill="none" stroke="midnightblue" d="M459.514,-113.586C462.382,-113.033 465.237,-112.497 468,-112 559.36,-95.553 667.615,-79.648 722.045,-71.8981"/>
<polygon fill="midnightblue" stroke="midnightblue" points="722.783,-75.3286 732.193,-70.4592 721.8,-68.3979 722.783,-75.3286"/>
</g>
<!-- Node13&#45;&gt;Node11 -->
<g id="edge14" class="edge"><title>Node13&#45;&gt;Node11</title>
<path fill="none" stroke="midnightblue" d="M620,-56.083C620,-49.0059 620,-38.8611 620,-29.9865"/>
<polygon fill="midnightblue" stroke="midnightblue" points="623.5,-29.751 620,-19.7511 616.5,-29.7511 623.5,-29.751"/>
</g>
<!-- Node14&#45;&gt;Node8 -->
<g id="edge16" class="edge"><title>Node14&#45;&gt;Node8</title>
<path fill="none" stroke="midnightblue" d="M362.027,-56.4435C296.25,-45.6144 184.417,-27.2028 125.309,-17.4717"/>
<polygon fill="midnightblue" stroke="midnightblue" points="125.69,-13.9873 115.254,-15.8162 124.553,-20.8943 125.69,-13.9873"/>
</g>
<!-- Node19&#45;&gt;Node7 -->
<g id="edge26" class="edge"><title>Node19&#45;&gt;Node7</title>
<path fill="none" stroke="midnightblue" d="M192.133,-280.444C169.221,-271.478 133.025,-257.314 107.134,-247.183"/>
<polygon fill="midnightblue" stroke="midnightblue" points="108.352,-243.901 97.7642,-243.516 105.801,-250.42 108.352,-243.901"/>
</g>
<!-- Node20 -->
<g id="node20" class="node"><title>Node20</title>
<g id="a_node20"><a xlink:href="../../d7/d79/MinMaxFix_8hpp.html" target="_top" xlink:title=" ">
<polygon fill="white" stroke="black" points="114,-56.5 114,-75.5 222,-75.5 222,-56.5 114,-56.5"/>
<text text-anchor="middle" x="168" y="-63.5" font-family="Helvetica,sans-Serif" font-size="10.00">Math/MinMaxFix.hpp</text>
</a>
</g>
</g>
<!-- Node19&#45;&gt;Node20 -->
<g id="edge27" class="edge"><title>Node19&#45;&gt;Node20</title>
<path fill="none" stroke="midnightblue" d="M228.952,-280.474C240.932,-272.702 256.873,-260.002 264,-244 267.616,-235.88 266.409,-232.556 264,-224 247.986,-167.112 204.991,-110.463 182.368,-83.4103"/>
<polygon fill="midnightblue" stroke="midnightblue" points="184.95,-81.0437 175.799,-75.7041 179.623,-85.5849 184.95,-81.0437"/>
</g>
<!-- Node21 -->
<g id="node21" class="node"><title>Node21</title>
<g id="a_node21"><a xlink:title=" ">
<polygon fill="white" stroke="#bfbfbf" points="142,-224.5 142,-243.5 190,-243.5 190,-224.5 142,-224.5"/>
<text text-anchor="middle" x="166" y="-231.5" font-family="Helvetica,sans-Serif" font-size="10.00">stdlib.h</text>
</a>
</g>
</g>
<!-- Node19&#45;&gt;Node21 -->
<g id="edge30" class="edge"><title>Node19&#45;&gt;Node21</title>
<path fill="none" stroke="midnightblue" d="M206.074,-280.083C199.154,-272.298 188.935,-260.801 180.548,-251.367"/>
<polygon fill="midnightblue" stroke="midnightblue" points="183.038,-248.9 173.779,-243.751 177.806,-253.55 183.038,-248.9"/>
</g>
<!-- Node22 -->
<g id="node22" class="node"><title>Node22</title>
<g id="a_node22"><a xlink:title=" ">
<polygon fill="white" stroke="#bfbfbf" points="208.5,-224.5 208.5,-243.5 255.5,-243.5 255.5,-224.5 208.5,-224.5"/>
<text text-anchor="middle" x="232" y="-231.5" font-family="Helvetica,sans-Serif" font-size="10.00">iterator</text>
</a>
</g>
</g>
<!-- Node19&#45;&gt;Node22 -->
<g id="edge31" class="edge"><title>Node19&#45;&gt;Node22</title>
<path fill="none" stroke="midnightblue" d="M216.972,-280.083C219.384,-272.849 222.864,-262.409 225.868,-253.397"/>
<polygon fill="midnightblue" stroke="midnightblue" points="229.241,-254.345 229.083,-243.751 222.6,-252.131 229.241,-254.345"/>
</g>
<!-- Node20&#45;&gt;Node8 -->
<g id="edge28" class="edge"><title>Node20&#45;&gt;Node8</title>
<path fill="none" stroke="midnightblue" d="M154.825,-56.324C142.153,-47.979 122.767,-35.2122 107.794,-25.3524"/>
<polygon fill="midnightblue" stroke="midnightblue" points="109.419,-22.2313 99.142,-19.6545 105.569,-28.0776 109.419,-22.2313"/>
</g>
<!-- Node20&#45;&gt;Node11 -->
<g id="edge29" class="edge"><title>Node20&#45;&gt;Node11</title>
<path fill="none" stroke="midnightblue" d="M222.181,-57.7548C226.854,-57.1525 231.51,-56.5602 236,-56 344.525,-42.4601 470.458,-27.9266 547.679,-19.1492"/>
<polygon fill="midnightblue" stroke="midnightblue" points="548.238,-22.6083 557.779,-18.0023 547.448,-15.6529 548.238,-22.6083"/>
</g>
<!-- Node23&#45;&gt;Node1 -->
<g id="edge42" class="edge"><title>Node23&#45;&gt;Node1</title>
<path fill="none" stroke="midnightblue" d="M639.131,-579.751C640.657,-586.858 641.104,-597.136 640.472,-606.101"/>
<polygon fill="midnightblue" stroke="midnightblue" points="636.993,-605.713 639.166,-616.083 643.934,-606.622 636.993,-605.713"/>
</g>
<!-- Node24 -->
<g id="node24" class="node"><title>Node24</title>
<g id="a_node24"><a xlink:href="../../d2/d05/StaticSizeExtendedIOElement_8hpp.html" target="_top" xlink:title=" ">
<polygon fill="white" stroke="black" points="485,-504.5 485,-523.5 653,-523.5 653,-504.5 485,-504.5"/>
<text text-anchor="middle" x="569" y="-511.5" font-family="Helvetica,sans-Serif" font-size="10.00">StaticSizeExtendedIOElement.hpp</text>
</a>
</g>
</g>
<!-- Node23&#45;&gt;Node24 -->
<g id="edge34" class="edge"><title>Node23&#45;&gt;Node24</title>
<path fill="none" stroke="midnightblue" d="M623.557,-560.324C613.854,-552.263 599.185,-540.077 587.5,-530.369"/>
<polygon fill="midnightblue" stroke="midnightblue" points="589.562,-527.532 579.633,-523.834 585.089,-532.916 589.562,-527.532"/>
</g>
<!-- Node26 -->
<g id="node26" class="node"><title>Node26</title>
<g id="a_node26"><a xlink:href="../../d1/d40/BitArray_8hpp.html" target="_top" xlink:title=" ">
<polygon fill="white" stroke="black" points="676.5,-336.5 676.5,-355.5 797.5,-355.5 797.5,-336.5 676.5,-336.5"/>
<text text-anchor="middle" x="737" y="-343.5" font-family="Helvetica,sans-Serif" font-size="10.00">Containers/BitArray.hpp</text>
</a>
</g>
</g>
<!-- Node23&#45;&gt;Node26 -->
<g id="edge38" class="edge"><title>Node23&#45;&gt;Node26</title>
<path fill="none" stroke="midnightblue" d="M639.998,-560.275C645.976,-551.379 655.219,-537.067 662,-524 691.142,-467.844 718.251,-397.798 730.357,-365.226"/>
<polygon fill="midnightblue" stroke="midnightblue" points="733.697,-366.284 733.869,-355.691 727.129,-363.865 733.697,-366.284"/>
</g>
<!-- Node24&#45;&gt;Node3 -->
<g id="edge35" class="edge"><title>Node24&#45;&gt;Node3</title>
<path fill="none" stroke="midnightblue" d="M551.487,-504.324C533.928,-495.625 506.669,-482.12 486.469,-472.113"/>
<polygon fill="midnightblue" stroke="midnightblue" points="487.984,-468.958 477.469,-467.655 484.876,-475.23 487.984,-468.958"/>
</g>
<!-- Node25 -->
<g id="node25" class="node"><title>Node25</title>
<g id="a_node25"><a xlink:href="../../d5/db6/ArrayHelpers_8hpp.html" target="_top" xlink:title=" ">
<polygon fill="white" stroke="black" points="222.5,-392.5 222.5,-411.5 365.5,-411.5 365.5,-392.5 222.5,-392.5"/>
<text text-anchor="middle" x="294" y="-399.5" font-family="Helvetica,sans-Serif" font-size="10.00">Containers/ArrayHelpers.hpp</text>
</a>
</g>
</g>
<!-- Node24&#45;&gt;Node25 -->
<g id="edge36" class="edge"><title>Node24&#45;&gt;Node25</title>
<path fill="none" stroke="midnightblue" d="M566.349,-504.221C561.565,-489.975 550.072,-462.01 530,-448 516.263,-438.411 426.823,-423.135 362.107,-413.086"/>
<polygon fill="midnightblue" stroke="midnightblue" points="362.365,-409.585 351.948,-411.52 361.298,-416.503 362.365,-409.585"/>
</g>
<!-- Node25&#45;&gt;Node5 -->
<g id="edge37" class="edge"><title>Node25&#45;&gt;Node5</title>
<path fill="none" stroke="midnightblue" d="M291.193,-392.083C288.915,-384.849 285.629,-374.409 282.792,-365.397"/>
<polygon fill="midnightblue" stroke="midnightblue" points="286.096,-364.239 279.755,-355.751 279.419,-366.341 286.096,-364.239"/>
</g>
<!-- Node26&#45;&gt;Node6 -->
<g id="edge39" class="edge"><title>Node26&#45;&gt;Node6</title>
<path fill="none" stroke="midnightblue" d="M676.192,-342.556C569.792,-337.812 342.785,-325.61 141.242,-300.023"/>
<polygon fill="midnightblue" stroke="midnightblue" points="141.421,-296.518 131.057,-298.716 140.53,-303.461 141.421,-296.518"/>
</g>
<!-- Node26&#45;&gt;Node11 -->
<g id="edge40" class="edge"><title>Node26&#45;&gt;Node11</title>
<path fill="none" stroke="midnightblue" d="M788.667,-336.497C842.474,-324.344 919,-296.287 919,-235 919,-235 919,-235 919,-121 919,-71.3364 771.869,-37.2206 684.027,-21.2779"/>
<polygon fill="midnightblue" stroke="midnightblue" points="684.606,-17.826 674.147,-19.5158 683.377,-24.7173 684.606,-17.826"/>
</g>
<!-- Node26&#45;&gt;Node17 -->
<g id="edge41" class="edge"><title>Node26&#45;&gt;Node17</title>
<path fill="none" stroke="midnightblue" d="M736.477,-336.446C735.393,-317.948 733,-272.837 733,-235 733,-235 733,-235 733,-177 733,-144.059 743.401,-106.818 750.509,-85.2139"/>
<polygon fill="midnightblue" stroke="midnightblue" points="753.838,-86.2937 753.763,-75.6992 747.215,-84.0282 753.838,-86.2937"/>
</g>
<!-- Node27&#45;&gt;Node10 -->
<g id="edge45" class="edge"><title>Node27&#45;&gt;Node10</title>
<path fill="none" stroke="midnightblue" d="M775.612,-224.444C719.324,-214.885 628.248,-199.419 568.242,-189.23"/>
<polygon fill="midnightblue" stroke="midnightblue" points="568.597,-185.74 558.152,-187.516 567.425,-192.641 568.597,-185.74"/>
</g>
<!-- Node27&#45;&gt;Node17 -->
<g id="edge44" class="edge"><title>Node27&#45;&gt;Node17</title>
<path fill="none" stroke="midnightblue" d="M822.29,-224.075C811.382,-197.832 779.257,-120.545 764.53,-85.1165"/>
<polygon fill="midnightblue" stroke="midnightblue" points="767.632,-83.4588 760.561,-75.5681 761.168,-86.1456 767.632,-83.4588"/>
</g>
</g>
</svg>
