<?xml version="1.0" encoding="UTF-8" standalone="no"?>
<!DOCTYPE svg PUBLIC "-//W3C//DTD SVG 1.1//EN"
 "http://www.w3.org/Graphics/SVG/1.1/DTD/svg11.dtd">
<!-- Generated by graphviz version 2.43.0 (0)
 -->
<!-- Title: Graphical Class Hierarchy Pages: 1 -->
<svg width="527pt" height="113pt"
 viewBox="0.00 0.00 527.00 112.50" xmlns="http://www.w3.org/2000/svg" xmlns:xlink="http://www.w3.org/1999/xlink">
<g id="graph0" class="graph" transform="scale(1 1) rotate(0) translate(4 108.5)">
<title>Graphical Class Hierarchy</title>
<!-- Node0 -->
<g id="Node000000" class="node">
<title>Node0</title>
<g id="a_Node000000"><a xlink:href="d9/d36/classOutputBank.html" target="_top" xlink:title="A class for changing the address of BankableMIDIOutputs.">
<polygon fill="white" stroke="#666666" points="108.5,-74 34.5,-74 34.5,-55 108.5,-55 108.5,-74"/>
<text text-anchor="middle" x="71.5" y="-62" font-family="Helvetica,sans-Serif" font-size="10.00">OutputBank</text>
</a>
</g>
</g>
<!-- Node1 -->
<g id="Node000001" class="node">
<title>Node1</title>
<g id="a_Node000001"><a xlink:href="db/dbd/classBank.html" target="_top" xlink:title=" ">
<polygon fill="white" stroke="#666666" points="317,-104.5 179,-104.5 179,-74.5 317,-74.5 317,-104.5"/>
<text text-anchor="start" x="187" y="-92.5" font-family="Helvetica,sans-Serif" font-size="10.00">Bank&lt; MaxTransposition</text>
<text text-anchor="middle" x="248" y="-81.5" font-family="Helvetica,sans-Serif" font-size="10.00"> &#45; MinTransposition+1 &gt;</text>
</a>
</g>
</g>
<!-- Node0&#45;&gt;Node1 -->
<g id="edge359_Node000000_Node000001" class="edge">
<title>Node0&#45;&gt;Node1</title>
<g id="a_edge359_Node000000_Node000001"><a xlink:title=" ">
<path fill="none" stroke="#63b8ff" d="M118.8,-71.13C137.18,-73.77 158.7,-76.85 178.8,-79.73"/>
<polygon fill="#63b8ff" stroke="#63b8ff" points="119.05,-67.63 108.66,-69.68 118.06,-74.56 119.05,-67.63"/>
</a>
</g>
</g>
<!-- Node4 -->
<g id="Node000004" class="node">
<title>Node4</title>
<g id="a_Node000004"><a xlink:href="db/dbd/classBank.html" target="_top" xlink:title=" ">
<polygon fill="white" stroke="#666666" points="283.5,-56 212.5,-56 212.5,-37 283.5,-37 283.5,-56"/>
<text text-anchor="middle" x="248" y="-44" font-family="Helvetica,sans-Serif" font-size="10.00">Bank&lt; N &gt;</text>
</a>
</g>
</g>
<!-- Node0&#45;&gt;Node4 -->
<g id="edge361_Node000000_Node000004" class="edge">
<title>Node0&#45;&gt;Node4</title>
<g id="a_edge361_Node000000_Node000004"><a xlink:title=" ">
<path fill="none" stroke="#63b8ff" d="M118.69,-59.74C148.08,-56.7 185.53,-52.84 212.38,-50.07"/>
<polygon fill="#63b8ff" stroke="#63b8ff" points="118.24,-56.26 108.66,-60.77 118.96,-63.23 118.24,-56.26"/>
</a>
</g>
</g>
<!-- Node5 -->
<g id="Node000005" class="node">
<title>Node5</title>
<g id="a_Node000005"><a xlink:href="db/dbd/classBank.html" target="_top" xlink:title="A class that groups Bankable MIDI Output Elements and Bankable MIDI Input Elements,...">
<polygon fill="white" stroke="#666666" points="306.5,-19 189.5,-19 189.5,0 306.5,0 306.5,-19"/>
<text text-anchor="middle" x="248" y="-7" font-family="Helvetica,sans-Serif" font-size="10.00">Bank&lt; NumBanks &gt;</text>
</a>
</g>
</g>
<!-- Node0&#45;&gt;Node5 -->
<g id="edge362_Node000000_Node000005" class="edge">
<title>Node0&#45;&gt;Node5</title>
<g id="a_edge362_Node000000_Node000005"><a xlink:title=" ">
<path fill="none" stroke="#63b8ff" d="M118.66,-53.49C126.86,-51.13 135.25,-48.45 143,-45.5 159.72,-39.14 162.27,-33.82 179,-27.5 187.45,-24.31 196.7,-21.45 205.58,-19.01"/>
<polygon fill="#63b8ff" stroke="#63b8ff" points="117.52,-50.17 108.81,-56.2 119.38,-56.92 117.52,-50.17"/>
</a>
</g>
</g>
<!-- Node2 -->
<g id="Node000002" class="node">
<title>Node2</title>
<g id="a_Node000002"><a xlink:href="da/db8/classTransposer.html" target="_top" xlink:title="Class for transposing the address of NoteButton and other MIDI elements.">
<polygon fill="white" stroke="#666666" points="519,-104.5 353,-104.5 353,-74.5 519,-74.5 519,-104.5"/>
<text text-anchor="start" x="361" y="-92.5" font-family="Helvetica,sans-Serif" font-size="10.00">Transposer&lt; MinTransposition,</text>
<text text-anchor="middle" x="436" y="-81.5" font-family="Helvetica,sans-Serif" font-size="10.00"> MaxTransposition &gt;</text>
</a>
</g>
</g>
<!-- Node1&#45;&gt;Node2 -->
<g id="edge360_Node000001_Node000002" class="edge">
<title>Node1&#45;&gt;Node2</title>
<g id="a_edge360_Node000001_Node000002"><a xlink:title=" ">
<path fill="none" stroke="#63b8ff" d="M327.39,-89.5C335.83,-89.5 344.43,-89.5 352.91,-89.5"/>
<polygon fill="#63b8ff" stroke="#63b8ff" points="327.2,-86 317.2,-89.5 327.2,-93 327.2,-86"/>
</a>
</g>
</g>
<!-- Node3 -->
<g id="Node000003" class="node">
<title>Node3</title>
<g id="a_Node000003"><a xlink:href="de/de7/classSelectable.html" target="_top" xlink:title=" ">
<polygon fill="white" stroke="#666666" points="143,-37 0,-37 0,-18 143,-18 143,-37"/>
<text text-anchor="middle" x="71.5" y="-25" font-family="Helvetica,sans-Serif" font-size="10.00">Selectable&lt; NumBanks &gt;</text>
</a>
</g>
</g>
<!-- Node3&#45;&gt;Node1 -->
<g id="edge363_Node000003_Node000001" class="edge">
<title>Node3&#45;&gt;Node1</title>
<g id="a_edge363_Node000003_Node000001"><a xlink:title=" ">
<path fill="none" stroke="#63b8ff" d="M126.66,-39.93C132.23,-41.63 137.77,-43.48 143,-45.5 159.88,-52.01 162.47,-57.14 179,-64.5 186.81,-67.98 195.27,-71.37 203.49,-74.48"/>
<polygon fill="#63b8ff" stroke="#63b8ff" points="127.2,-36.45 116.63,-37.06 125.28,-43.18 127.2,-36.45"/>
</a>
</g>
</g>
<!-- Node3&#45;&gt;Node4 -->
<g id="edge364_Node000003_Node000004" class="edge">
<title>Node3&#45;&gt;Node4</title>
<g id="a_edge364_Node000003_Node000004"><a xlink:title=" ">
<path fill="none" stroke="#63b8ff" d="M153.35,-36.3C174.09,-38.56 195.32,-40.87 212.31,-42.72"/>
<polygon fill="#63b8ff" stroke="#63b8ff" points="153.54,-32.8 143.22,-35.2 152.79,-39.76 153.54,-32.8"/>
</a>
</g>
</g>
<!-- Node3&#45;&gt;Node5 -->
<g id="edge365_Node000003_Node000005" class="edge">
<title>Node3&#45;&gt;Node5</title>
<g id="a_edge365_Node000003_Node000005"><a xlink:title=" ">
<path fill="none" stroke="#63b8ff" d="M153.35,-19.16C165.47,-17.91 177.76,-16.64 189.27,-15.45"/>
<polygon fill="#63b8ff" stroke="#63b8ff" points="152.81,-15.7 143.22,-20.2 153.53,-22.66 152.81,-15.7"/>
</a>
</g>
</g>
</g>
</svg>
