<?xml version="1.0" encoding="UTF-8" standalone="no"?>
<!DOCTYPE svg PUBLIC "-//W3C//DTD SVG 1.1//EN"
 "http://www.w3.org/Graphics/SVG/1.1/DTD/svg11.dtd">
<!-- Generated by graphviz version 2.43.0 (0)
 -->
<!-- Title: NoteCCKPLEDBar&lt; Type, BankSize, NumLEDs &gt; Pages: 1 -->
<svg width="537pt" height="1421pt"
 viewBox="0.00 0.00 537.00 1421.00" xmlns="http://www.w3.org/2000/svg" xmlns:xlink="http://www.w3.org/1999/xlink">
<g id="graph0" class="graph" transform="scale(1 1) rotate(0) translate(4 1417)">
<title>NoteCCKPLEDBar&lt; Type, BankSize, NumLEDs &gt;</title>
<!-- Node1 -->
<g id="Node000001" class="node">
<title>Node1</title>
<g id="a_Node000001"><a xlink:title="Class that turns on a different number of LEDs depending on the received MIDI velocity,...">
<polygon fill="#999999" stroke="transparent" points="445.5,-135 308.5,-135 308.5,0 445.5,0 445.5,-135"/>
<text text-anchor="start" x="316.5" y="-122.5" font-family="Helvetica,sans-Serif" font-size="10.00">NoteCCKPLEDBar&lt; Type,</text>
<text text-anchor="start" x="321" y="-111.5" font-family="Helvetica,sans-Serif" font-size="10.00"> BankSize, NumLEDs &gt;</text>
<text text-anchor="start" x="375.5" y="-96.5" font-family="Helvetica,sans-Serif" font-size="10.00"> </text>
<text text-anchor="start" x="313" y="-81.5" font-family="Helvetica,sans-Serif" font-size="10.00">+</text>
<text text-anchor="start" x="326" y="-81.5" font-family="Helvetica,sans-Serif" font-size="10.00">NoteCCKPLEDBar()</text>
<text text-anchor="start" x="313" y="-66.5" font-family="Helvetica,sans-Serif" font-size="10.00">+</text>
<text text-anchor="start" x="326" y="-66.5" font-family="Helvetica,sans-Serif" font-size="10.00">begin()</text>
<text text-anchor="start" x="313" y="-51.5" font-family="Helvetica,sans-Serif" font-size="10.00">+</text>
<text text-anchor="start" x="326" y="-51.5" font-family="Helvetica,sans-Serif" font-size="10.00">reset()</text>
<text text-anchor="start" x="313" y="-36.5" font-family="Helvetica,sans-Serif" font-size="10.00">#</text>
<text text-anchor="start" x="326" y="-36.5" font-family="Helvetica,sans-Serif" font-size="10.00">handleUpdate()</text>
<text text-anchor="start" x="313" y="-21.5" font-family="Helvetica,sans-Serif" font-size="10.00">#</text>
<text text-anchor="start" x="326" y="-21.5" font-family="Helvetica,sans-Serif" font-size="10.00">updateDisplay()</text>
<text text-anchor="start" x="313" y="-6.5" font-family="Helvetica,sans-Serif" font-size="10.00">#</text>
<text text-anchor="start" x="326" y="-6.5" font-family="Helvetica,sans-Serif" font-size="10.00">onBankSettingChange()</text>
<polygon fill="#666666" stroke="#666666" points="309,-106.5 309,-106.5 446,-106.5 446,-106.5 309,-106.5"/>
<polygon fill="#666666" stroke="#666666" points="309,-91.5 309,-91.5 446,-91.5 446,-91.5 309,-91.5"/>
<polygon fill="none" stroke="#666666" points="308.5,0 308.5,-135 445.5,-135 445.5,0 308.5,0"/>
</a>
</g>
</g>
<!-- Node2 -->
<g id="Node000002" class="node">
<title>Node2</title>
<g id="a_Node000002"><a xlink:href="../../d5/dcd/classBankable_1_1NoteCCKPValue.html" target="_top" xlink:title="Generic base class for classes that listen for MIDI Note, Control Change and Key Pressure events on a...">
<polygon fill="white" stroke="transparent" points="366.5,-321 229.5,-321 229.5,-171 366.5,-171 366.5,-321"/>
<text text-anchor="start" x="241.5" y="-309" font-family="Helvetica,sans-Serif" font-size="10.00">NoteCCKPValue&lt; Type,</text>
<text text-anchor="start" x="268.5" y="-298" font-family="Helvetica,sans-Serif" font-size="10.00"> BankSize &gt;</text>
<text text-anchor="start" x="236.5" y="-283" font-family="Helvetica,sans-Serif" font-size="10.00">&#45;</text>
<text text-anchor="start" x="247" y="-283" font-family="Helvetica,sans-Serif" font-size="10.00">values</text>
<text text-anchor="start" x="234" y="-268" font-family="Helvetica,sans-Serif" font-size="10.00">+</text>
<text text-anchor="start" x="247" y="-268" font-family="Helvetica,sans-Serif" font-size="10.00">NoteCCKPValue()</text>
<text text-anchor="start" x="234" y="-253" font-family="Helvetica,sans-Serif" font-size="10.00">+</text>
<text text-anchor="start" x="247" y="-253" font-family="Helvetica,sans-Serif" font-size="10.00">reset()</text>
<text text-anchor="start" x="234" y="-238" font-family="Helvetica,sans-Serif" font-size="10.00">#</text>
<text text-anchor="start" x="247" y="-238" font-family="Helvetica,sans-Serif" font-size="10.00">handleUpdateImpl()</text>
<text text-anchor="start" x="234" y="-223" font-family="Helvetica,sans-Serif" font-size="10.00">#</text>
<text text-anchor="start" x="247" y="-223" font-family="Helvetica,sans-Serif" font-size="10.00">handleUpdate()</text>
<text text-anchor="start" x="234" y="-208" font-family="Helvetica,sans-Serif" font-size="10.00">#</text>
<text text-anchor="start" x="247" y="-208" font-family="Helvetica,sans-Serif" font-size="10.00">onBankSettingChange()</text>
<text text-anchor="start" x="235.5" y="-193" font-family="Helvetica,sans-Serif" font-size="10.00">*</text>
<text text-anchor="start" x="247" y="-193" font-family="Helvetica,sans-Serif" font-size="10.00">getValue()</text>
<text text-anchor="start" x="235.5" y="-178" font-family="Helvetica,sans-Serif" font-size="10.00">*</text>
<text text-anchor="start" x="247" y="-178" font-family="Helvetica,sans-Serif" font-size="10.00">getValue()</text>
<polygon fill="#666666" stroke="#666666" points="230,-293 230,-293 367,-293 367,-293 230,-293"/>
<polygon fill="#666666" stroke="#666666" points="230,-278 230,-278 245,-278 245,-278 230,-278"/>
<polygon fill="#666666" stroke="#666666" points="245,-278 245,-278 367,-278 367,-278 245,-278"/>
<polygon fill="none" stroke="#666666" points="229.5,-171 229.5,-321 366.5,-321 366.5,-171 229.5,-171"/>
</a>
</g>
</g>
<!-- Node2&#45;&gt;Node1 -->
<g id="edge1_Node000001_Node000002" class="edge">
<title>Node2&#45;&gt;Node1</title>
<g id="a_edge1_Node000001_Node000002"><a xlink:title=" ">
<path fill="none" stroke="#63b8ff" d="M335.3,-161.67C339.29,-152.75 343.31,-143.77 347.19,-135.09"/>
<polygon fill="none" stroke="#63b8ff" points="332.05,-160.36 331.16,-170.92 338.44,-163.22 332.05,-160.36"/>
</a>
</g>
</g>
<!-- Node3 -->
<g id="Node000003" class="node">
<title>Node3</title>
<g id="a_Node000003"><a xlink:href="../../d9/dc0/classBankableMatchingMIDIInputElement.html" target="_top" xlink:title=" ">
<polygon fill="white" stroke="transparent" points="261.5,-501 84.5,-501 84.5,-378 261.5,-378 261.5,-501"/>
<text text-anchor="start" x="90" y="-488.5" font-family="Helvetica,sans-Serif" font-size="10.00">BankableMatchingMIDIInput</text>
<text text-anchor="start" x="90" y="-477.5" font-family="Helvetica,sans-Serif" font-size="10.00">Element&lt; Type, BankableTwoByte</text>
<text text-anchor="start" x="102.5" y="-466.5" font-family="Helvetica,sans-Serif" font-size="10.00">MIDIMatcher&lt; BankSize &gt; &gt;</text>
<text text-anchor="start" x="171.5" y="-451.5" font-family="Helvetica,sans-Serif" font-size="10.00"> </text>
<text text-anchor="start" x="91.5" y="-436.5" font-family="Helvetica,sans-Serif" font-size="10.00">+</text>
<text text-anchor="start" x="107" y="-436.5" font-family="Helvetica,sans-Serif" font-size="10.00">~BankableMatchingMIDIInput</text>
<text text-anchor="start" x="107" y="-425.5" font-family="Helvetica,sans-Serif" font-size="10.00">Element()</text>
<text text-anchor="start" x="91.5" y="-410.5" font-family="Helvetica,sans-Serif" font-size="10.00">#</text>
<text text-anchor="start" x="107" y="-410.5" font-family="Helvetica,sans-Serif" font-size="10.00">BankableMatchingMIDIInput</text>
<text text-anchor="start" x="107" y="-399.5" font-family="Helvetica,sans-Serif" font-size="10.00">Element()</text>
<text text-anchor="start" x="91.5" y="-384.5" font-family="Helvetica,sans-Serif" font-size="10.00">#</text>
<text text-anchor="start" x="107" y="-384.5" font-family="Helvetica,sans-Serif" font-size="10.00">getActiveBank()</text>
<polygon fill="#666666" stroke="#666666" points="85,-461.5 85,-461.5 262,-461.5 262,-461.5 85,-461.5"/>
<polygon fill="#666666" stroke="#666666" points="85,-446.5 85,-446.5 262,-446.5 262,-446.5 85,-446.5"/>
<polygon fill="none" stroke="#666666" points="84.5,-378 84.5,-501 261.5,-501 261.5,-378 84.5,-378"/>
</a>
</g>
</g>
<!-- Node3&#45;&gt;Node2 -->
<g id="edge2_Node000002_Node000003" class="edge">
<title>Node3&#45;&gt;Node2</title>
<g id="a_edge2_Node000002_Node000003"><a xlink:title=" ">
<path fill="none" stroke="#63b8ff" d="M218.13,-369.36C228.32,-353.75 239.17,-337.12 249.49,-321.31"/>
<polygon fill="none" stroke="#63b8ff" points="215.09,-367.62 212.55,-377.91 220.95,-371.45 215.09,-367.62"/>
</a>
</g>
</g>
<!-- Node4 -->
<g id="Node000004" class="node">
<title>Node4</title>
<g id="a_Node000004"><a xlink:href="../../d5/dae/classMatchingMIDIInputElement.html" target="_top" xlink:title="The MIDIInputElement base class is very general: you give it a MIDI message, and it calls the updateW...">
<polygon fill="white" stroke="transparent" points="162,-672.5 0,-672.5 0,-582.5 162,-582.5 162,-672.5"/>
<text text-anchor="start" x="14.5" y="-660.5" font-family="Helvetica,sans-Serif" font-size="10.00">MatchingMIDIInputElement</text>
<text text-anchor="start" x="35.5" y="-649.5" font-family="Helvetica,sans-Serif" font-size="10.00">&lt; Type, Matcher &gt;</text>
<text text-anchor="start" x="4" y="-634.5" font-family="Helvetica,sans-Serif" font-size="10.00">#</text>
<text text-anchor="start" x="17" y="-634.5" font-family="Helvetica,sans-Serif" font-size="10.00">matcher</text>
<text text-anchor="start" x="4" y="-619.5" font-family="Helvetica,sans-Serif" font-size="10.00">+</text>
<text text-anchor="start" x="17" y="-619.5" font-family="Helvetica,sans-Serif" font-size="10.00">updateWith()</text>
<text text-anchor="start" x="4" y="-604.5" font-family="Helvetica,sans-Serif" font-size="10.00">+</text>
<text text-anchor="start" x="17" y="-604.5" font-family="Helvetica,sans-Serif" font-size="10.00">handleUpdate()</text>
<text text-anchor="start" x="4" y="-589.5" font-family="Helvetica,sans-Serif" font-size="10.00">#</text>
<text text-anchor="start" x="17" y="-589.5" font-family="Helvetica,sans-Serif" font-size="10.00">MatchingMIDIInputElement()</text>
<polygon fill="#666666" stroke="#666666" points="0,-644.5 0,-644.5 162,-644.5 162,-644.5 0,-644.5"/>
<polygon fill="#666666" stroke="#666666" points="0,-629.5 0,-629.5 15,-629.5 15,-629.5 0,-629.5"/>
<polygon fill="#666666" stroke="#666666" points="15,-629.5 15,-629.5 162,-629.5 162,-629.5 15,-629.5"/>
<polygon fill="none" stroke="#666666" points="0,-582.5 0,-672.5 162,-672.5 162,-582.5 0,-582.5"/>
</a>
</g>
</g>
<!-- Node4&#45;&gt;Node3 -->
<g id="edge3_Node000003_Node000004" class="edge">
<title>Node4&#45;&gt;Node3</title>
<g id="a_edge3_Node000003_Node000004"><a xlink:title=" ">
<path fill="none" stroke="#63b8ff" d="M107.29,-573.35C118.44,-550.81 131.48,-524.44 143,-501.15"/>
<polygon fill="none" stroke="#63b8ff" points="104.1,-571.91 102.8,-582.42 110.37,-575.01 104.1,-571.91"/>
</a>
</g>
</g>
<!-- Node5 -->
<g id="Node000005" class="node">
<title>Node5</title>
<g id="a_Node000005"><a xlink:href="../../d9/db1/classMIDIInputElement.html" target="_top" xlink:title="A class for objects that listen for incoming MIDI events.">
<polygon fill="white" stroke="transparent" points="152.5,-917 9.5,-917 9.5,-733 152.5,-733 152.5,-917"/>
<text text-anchor="start" x="15" y="-905" font-family="Helvetica,sans-Serif" font-size="10.00">MIDIInputElement&lt; Type &gt;</text>
<text text-anchor="start" x="79.5" y="-890" font-family="Helvetica,sans-Serif" font-size="10.00"> </text>
<text text-anchor="start" x="18.5" y="-875" font-family="Helvetica,sans-Serif" font-size="10.00">+</text>
<text text-anchor="start" x="36" y="-875" font-family="Helvetica,sans-Serif" font-size="10.00">~MIDIInputElement()</text>
<text text-anchor="start" x="18.5" y="-860" font-family="Helvetica,sans-Serif" font-size="10.00">+</text>
<text text-anchor="start" x="36" y="-860" font-family="Helvetica,sans-Serif" font-size="10.00">begin()</text>
<text text-anchor="start" x="18.5" y="-845" font-family="Helvetica,sans-Serif" font-size="10.00">+</text>
<text text-anchor="start" x="36" y="-845" font-family="Helvetica,sans-Serif" font-size="10.00">reset()</text>
<text text-anchor="start" x="18.5" y="-830" font-family="Helvetica,sans-Serif" font-size="10.00">+</text>
<text text-anchor="start" x="36" y="-830" font-family="Helvetica,sans-Serif" font-size="10.00">update()</text>
<text text-anchor="start" x="18.5" y="-815" font-family="Helvetica,sans-Serif" font-size="10.00">+</text>
<text text-anchor="start" x="36" y="-815" font-family="Helvetica,sans-Serif" font-size="10.00">updateWith()</text>
<text text-anchor="start" x="18.5" y="-800" font-family="Helvetica,sans-Serif" font-size="10.00">+</text>
<text text-anchor="start" x="36" y="-800" font-family="Helvetica,sans-Serif" font-size="10.00">updateAllWith()</text>
<text text-anchor="start" x="18.5" y="-785" font-family="Helvetica,sans-Serif" font-size="10.00">+</text>
<text text-anchor="start" x="36" y="-785" font-family="Helvetica,sans-Serif" font-size="10.00">updateAll()</text>
<text text-anchor="start" x="18.5" y="-770" font-family="Helvetica,sans-Serif" font-size="10.00">+</text>
<text text-anchor="start" x="36" y="-770" font-family="Helvetica,sans-Serif" font-size="10.00">beginAll()</text>
<text text-anchor="start" x="18.5" y="-755" font-family="Helvetica,sans-Serif" font-size="10.00">+</text>
<text text-anchor="start" x="36" y="-755" font-family="Helvetica,sans-Serif" font-size="10.00">resetAll()</text>
<text text-anchor="start" x="18.5" y="-740" font-family="Helvetica,sans-Serif" font-size="10.00">#</text>
<text text-anchor="start" x="36" y="-740" font-family="Helvetica,sans-Serif" font-size="10.00">MIDIInputElement()</text>
<polygon fill="#666666" stroke="#666666" points="10,-900 10,-900 153,-900 153,-900 10,-900"/>
<polygon fill="#666666" stroke="#666666" points="10,-885 10,-885 153,-885 153,-885 10,-885"/>
<polygon fill="none" stroke="#666666" points="9.5,-733 9.5,-917 152.5,-917 152.5,-733 9.5,-733"/>
</a>
</g>
</g>
<!-- Node5&#45;&gt;Node4 -->
<g id="edge4_Node000004_Node000005" class="edge">
<title>Node5&#45;&gt;Node4</title>
<g id="a_edge4_Node000004_Node000005"><a xlink:title=" ">
<path fill="none" stroke="#63b8ff" d="M81,-722.48C81,-704.9 81,-687.48 81,-672.5"/>
<polygon fill="none" stroke="#63b8ff" points="77.5,-722.83 81,-732.83 84.5,-722.83 77.5,-722.83"/>
</a>
</g>
</g>
<!-- Node6 -->
<g id="Node000006" class="node">
<title>Node6</title>
<g id="a_Node000006"><a xlink:href="../../d8/d1a/classAH_1_1UpdatableCRTP.html" target="_top" xlink:title=" ">
<polygon fill="white" stroke="transparent" points="153,-1238 9,-1238 9,-953 153,-953 153,-1238"/>
<text text-anchor="start" x="14" y="-1225.5" font-family="Helvetica,sans-Serif" font-size="10.00">UpdatableCRTP&lt; MIDIInput</text>
<text text-anchor="start" x="32.5" y="-1214.5" font-family="Helvetica,sans-Serif" font-size="10.00">Element&lt; Type &gt; &gt;</text>
<text text-anchor="start" x="21" y="-1199.5" font-family="Helvetica,sans-Serif" font-size="10.00">#</text>
<text text-anchor="start" x="42" y="-1199.5" font-family="Helvetica,sans-Serif" font-size="10.00">updatables</text>
<text text-anchor="start" x="21" y="-1184.5" font-family="Helvetica,sans-Serif" font-size="10.00">+</text>
<text text-anchor="start" x="42" y="-1184.5" font-family="Helvetica,sans-Serif" font-size="10.00">~UpdatableCRTP()</text>
<text text-anchor="start" x="21" y="-1169.5" font-family="Helvetica,sans-Serif" font-size="10.00">#</text>
<text text-anchor="start" x="42" y="-1169.5" font-family="Helvetica,sans-Serif" font-size="10.00">UpdatableCRTP()</text>
<text text-anchor="start" x="21" y="-1154.5" font-family="Helvetica,sans-Serif" font-size="10.00">#</text>
<text text-anchor="start" x="42" y="-1154.5" font-family="Helvetica,sans-Serif" font-size="10.00">UpdatableCRTP()</text>
<text text-anchor="start" x="21" y="-1139.5" font-family="Helvetica,sans-Serif" font-size="10.00">#</text>
<text text-anchor="start" x="42" y="-1139.5" font-family="Helvetica,sans-Serif" font-size="10.00">UpdatableCRTP()</text>
<text text-anchor="start" x="21" y="-1124.5" font-family="Helvetica,sans-Serif" font-size="10.00">#</text>
<text text-anchor="start" x="42" y="-1124.5" font-family="Helvetica,sans-Serif" font-size="10.00">operator=()</text>
<text text-anchor="start" x="21" y="-1109.5" font-family="Helvetica,sans-Serif" font-size="10.00">#</text>
<text text-anchor="start" x="42" y="-1109.5" font-family="Helvetica,sans-Serif" font-size="10.00">operator=()</text>
<text text-anchor="start" x="22.5" y="-1094.5" font-family="Helvetica,sans-Serif" font-size="10.00">*</text>
<text text-anchor="start" x="42" y="-1094.5" font-family="Helvetica,sans-Serif" font-size="10.00">enable()</text>
<text text-anchor="start" x="22.5" y="-1079.5" font-family="Helvetica,sans-Serif" font-size="10.00">*</text>
<text text-anchor="start" x="42" y="-1079.5" font-family="Helvetica,sans-Serif" font-size="10.00">disable()</text>
<text text-anchor="start" x="22.5" y="-1064.5" font-family="Helvetica,sans-Serif" font-size="10.00">*</text>
<text text-anchor="start" x="42" y="-1064.5" font-family="Helvetica,sans-Serif" font-size="10.00">isEnabled()</text>
<text text-anchor="start" x="22.5" y="-1049.5" font-family="Helvetica,sans-Serif" font-size="10.00">*</text>
<text text-anchor="start" x="42" y="-1049.5" font-family="Helvetica,sans-Serif" font-size="10.00">moveDown()</text>
<text text-anchor="start" x="22.5" y="-1034.5" font-family="Helvetica,sans-Serif" font-size="10.00">*</text>
<text text-anchor="start" x="42" y="-1034.5" font-family="Helvetica,sans-Serif" font-size="10.00">enable()</text>
<text text-anchor="start" x="22.5" y="-1019.5" font-family="Helvetica,sans-Serif" font-size="10.00">*</text>
<text text-anchor="start" x="42" y="-1019.5" font-family="Helvetica,sans-Serif" font-size="10.00">enable()</text>
<text text-anchor="start" x="22.5" y="-1004.5" font-family="Helvetica,sans-Serif" font-size="10.00">*</text>
<text text-anchor="start" x="42" y="-1004.5" font-family="Helvetica,sans-Serif" font-size="10.00">enable()</text>
<text text-anchor="start" x="22.5" y="-989.5" font-family="Helvetica,sans-Serif" font-size="10.00">*</text>
<text text-anchor="start" x="42" y="-989.5" font-family="Helvetica,sans-Serif" font-size="10.00">disable()</text>
<text text-anchor="start" x="22.5" y="-974.5" font-family="Helvetica,sans-Serif" font-size="10.00">*</text>
<text text-anchor="start" x="42" y="-974.5" font-family="Helvetica,sans-Serif" font-size="10.00">disable()</text>
<text text-anchor="start" x="22.5" y="-959.5" font-family="Helvetica,sans-Serif" font-size="10.00">*</text>
<text text-anchor="start" x="42" y="-959.5" font-family="Helvetica,sans-Serif" font-size="10.00">disable()</text>
<polygon fill="#666666" stroke="#666666" points="9,-1209.5 9,-1209.5 153,-1209.5 153,-1209.5 9,-1209.5"/>
<polygon fill="#666666" stroke="#666666" points="9,-1194.5 9,-1194.5 40,-1194.5 40,-1194.5 9,-1194.5"/>
<polygon fill="#666666" stroke="#666666" points="40,-1194.5 40,-1194.5 153,-1194.5 153,-1194.5 40,-1194.5"/>
<polygon fill="none" stroke="#666666" points="9,-953 9,-1238 153,-1238 153,-953 9,-953"/>
</a>
</g>
</g>
<!-- Node6&#45;&gt;Node5 -->
<g id="edge5_Node000005_Node000006" class="edge">
<title>Node6&#45;&gt;Node5</title>
<g id="a_edge5_Node000005_Node000006"><a xlink:title=" ">
<path fill="none" stroke="#63b8ff" d="M81,-942.6C81,-933.95 81,-925.41 81,-917.11"/>
<polygon fill="none" stroke="#63b8ff" points="77.5,-942.78 81,-952.78 84.5,-942.78 77.5,-942.78"/>
</a>
</g>
</g>
<!-- Node7 -->
<g id="Node000007" class="node">
<title>Node7</title>
<g id="a_Node000007"><a xlink:href="../../d4/d23/classDoublyLinkable.html" target="_top" xlink:title="A class that can be inherited from to allow inserting into a DoublyLinkedList.">
<polygon fill="white" stroke="transparent" points="148,-1413 14,-1413 14,-1274 148,-1274 148,-1413"/>
<text text-anchor="start" x="19" y="-1400.5" font-family="Helvetica,sans-Serif" font-size="10.00">DoublyLinkable&lt; Node &gt;</text>
<text text-anchor="start" x="23.5" y="-1385.5" font-family="Helvetica,sans-Serif" font-size="10.00">#</text>
<text text-anchor="start" x="42" y="-1385.5" font-family="Helvetica,sans-Serif" font-size="10.00">next</text>
<text text-anchor="start" x="23.5" y="-1370.5" font-family="Helvetica,sans-Serif" font-size="10.00">#</text>
<text text-anchor="start" x="42" y="-1370.5" font-family="Helvetica,sans-Serif" font-size="10.00">previous</text>
<text text-anchor="start" x="23.5" y="-1355.5" font-family="Helvetica,sans-Serif" font-size="10.00">#</text>
<text text-anchor="start" x="42" y="-1355.5" font-family="Helvetica,sans-Serif" font-size="10.00">~DoublyLinkable()</text>
<text text-anchor="start" x="23.5" y="-1340.5" font-family="Helvetica,sans-Serif" font-size="10.00">#</text>
<text text-anchor="start" x="42" y="-1340.5" font-family="Helvetica,sans-Serif" font-size="10.00">DoublyLinkable()</text>
<text text-anchor="start" x="23.5" y="-1325.5" font-family="Helvetica,sans-Serif" font-size="10.00">#</text>
<text text-anchor="start" x="42" y="-1325.5" font-family="Helvetica,sans-Serif" font-size="10.00">DoublyLinkable()</text>
<text text-anchor="start" x="23.5" y="-1310.5" font-family="Helvetica,sans-Serif" font-size="10.00">#</text>
<text text-anchor="start" x="42" y="-1310.5" font-family="Helvetica,sans-Serif" font-size="10.00">operator=()</text>
<text text-anchor="start" x="23.5" y="-1295.5" font-family="Helvetica,sans-Serif" font-size="10.00">#</text>
<text text-anchor="start" x="42" y="-1295.5" font-family="Helvetica,sans-Serif" font-size="10.00">DoublyLinkable()</text>
<text text-anchor="start" x="23.5" y="-1280.5" font-family="Helvetica,sans-Serif" font-size="10.00">#</text>
<text text-anchor="start" x="42" y="-1280.5" font-family="Helvetica,sans-Serif" font-size="10.00">operator=()</text>
<polygon fill="#666666" stroke="#666666" points="14,-1395.5 14,-1395.5 148,-1395.5 148,-1395.5 14,-1395.5"/>
<polygon fill="#666666" stroke="#666666" points="14,-1365.5 14,-1365.5 40,-1365.5 40,-1365.5 14,-1365.5"/>
<polygon fill="#666666" stroke="#666666" points="40,-1365.5 40,-1365.5 148,-1365.5 148,-1365.5 40,-1365.5"/>
<polygon fill="none" stroke="#666666" points="14,-1274 14,-1413 148,-1413 148,-1274 14,-1274"/>
</a>
</g>
</g>
<!-- Node7&#45;&gt;Node6 -->
<g id="edge6_Node000006_Node000007" class="edge">
<title>Node7&#45;&gt;Node6</title>
<g id="a_edge6_Node000006_Node000007"><a xlink:title=" ">
<path fill="none" stroke="#63b8ff" d="M81,-1263.93C81,-1255.55 81,-1246.86 81,-1238.04"/>
<polygon fill="none" stroke="#63b8ff" points="77.5,-1263.98 81,-1273.98 84.5,-1263.98 77.5,-1263.98"/>
</a>
</g>
</g>
<!-- Node8 -->
<g id="Node000008" class="node">
<title>Node8</title>
<g id="a_Node000008"><a xlink:href="../../d2/dbf/classBankSettingChangeCallback.html" target="_top" xlink:title="Callback class for Bankable objects that need to be notified when the active setting of their Bank ch...">
<polygon fill="white" stroke="transparent" points="329.5,-652 180.5,-652 180.5,-603 329.5,-603 329.5,-652"/>
<text text-anchor="start" x="186" y="-639.5" font-family="Helvetica,sans-Serif" font-size="10.00">BankSettingChangeCallback</text>
<text text-anchor="start" x="253.5" y="-624.5" font-family="Helvetica,sans-Serif" font-size="10.00"> </text>
<text text-anchor="start" x="189" y="-609.5" font-family="Helvetica,sans-Serif" font-size="10.00">&#45;</text>
<text text-anchor="start" x="201" y="-609.5" font-family="Helvetica,sans-Serif" font-size="10.00">onBankSettingChange()</text>
<polygon fill="#666666" stroke="#666666" points="181,-634.5 181,-634.5 330,-634.5 330,-634.5 181,-634.5"/>
<polygon fill="#666666" stroke="#666666" points="181,-619.5 181,-619.5 330,-619.5 330,-619.5 181,-619.5"/>
<polygon fill="none" stroke="#666666" points="180.5,-603 180.5,-652 329.5,-652 329.5,-603 180.5,-603"/>
</a>
</g>
</g>
<!-- Node8&#45;&gt;Node3 -->
<g id="edge7_Node000003_Node000008" class="edge">
<title>Node8&#45;&gt;Node3</title>
<g id="a_edge7_Node000003_Node000008"><a xlink:title=" ">
<path fill="none" stroke="#63b8ff" d="M240.55,-593.72C229.3,-568.21 213.38,-532.1 199.83,-501.35"/>
<polygon fill="none" stroke="#63b8ff" points="237.38,-595.2 244.61,-602.94 243.78,-592.38 237.38,-595.2"/>
</a>
</g>
</g>
<!-- Node9 -->
<g id="Node000009" class="node">
<title>Node9</title>
<g id="a_Node000009"><a xlink:href="../../d4/d23/classDoublyLinkable.html" target="_top" xlink:title=" ">
<polygon fill="white" stroke="transparent" points="333,-900 177,-900 177,-750 333,-750 333,-900"/>
<text text-anchor="start" x="182" y="-888" font-family="Helvetica,sans-Serif" font-size="10.00">DoublyLinkable&lt; BankSetting</text>
<text text-anchor="start" x="209.5" y="-877" font-family="Helvetica,sans-Serif" font-size="10.00">ChangeCallback &gt;</text>
<text text-anchor="start" x="192" y="-862" font-family="Helvetica,sans-Serif" font-size="10.00">#</text>
<text text-anchor="start" x="216" y="-862" font-family="Helvetica,sans-Serif" font-size="10.00">next</text>
<text text-anchor="start" x="192" y="-847" font-family="Helvetica,sans-Serif" font-size="10.00">#</text>
<text text-anchor="start" x="216" y="-847" font-family="Helvetica,sans-Serif" font-size="10.00">previous</text>
<text text-anchor="start" x="192" y="-832" font-family="Helvetica,sans-Serif" font-size="10.00">#</text>
<text text-anchor="start" x="216" y="-832" font-family="Helvetica,sans-Serif" font-size="10.00">~DoublyLinkable()</text>
<text text-anchor="start" x="192" y="-817" font-family="Helvetica,sans-Serif" font-size="10.00">#</text>
<text text-anchor="start" x="216" y="-817" font-family="Helvetica,sans-Serif" font-size="10.00">DoublyLinkable()</text>
<text text-anchor="start" x="192" y="-802" font-family="Helvetica,sans-Serif" font-size="10.00">#</text>
<text text-anchor="start" x="216" y="-802" font-family="Helvetica,sans-Serif" font-size="10.00">DoublyLinkable()</text>
<text text-anchor="start" x="192" y="-787" font-family="Helvetica,sans-Serif" font-size="10.00">#</text>
<text text-anchor="start" x="216" y="-787" font-family="Helvetica,sans-Serif" font-size="10.00">DoublyLinkable()</text>
<text text-anchor="start" x="192" y="-772" font-family="Helvetica,sans-Serif" font-size="10.00">#</text>
<text text-anchor="start" x="216" y="-772" font-family="Helvetica,sans-Serif" font-size="10.00">operator=()</text>
<text text-anchor="start" x="192" y="-757" font-family="Helvetica,sans-Serif" font-size="10.00">#</text>
<text text-anchor="start" x="216" y="-757" font-family="Helvetica,sans-Serif" font-size="10.00">operator=()</text>
<polygon fill="#666666" stroke="#666666" points="177,-872 177,-872 333,-872 333,-872 177,-872"/>
<polygon fill="#666666" stroke="#666666" points="177,-842 177,-842 214,-842 214,-842 177,-842"/>
<polygon fill="#666666" stroke="#666666" points="214,-842 214,-842 333,-842 333,-842 214,-842"/>
<polygon fill="none" stroke="#666666" points="177,-750 177,-900 333,-900 333,-750 177,-750"/>
</a>
</g>
</g>
<!-- Node9&#45;&gt;Node8 -->
<g id="edge8_Node000008_Node000009" class="edge">
<title>Node9&#45;&gt;Node8</title>
<g id="a_edge8_Node000008_Node000009"><a xlink:title=" ">
<path fill="none" stroke="#63b8ff" d="M255,-739.58C255,-707.82 255,-674.14 255,-652.3"/>
<polygon fill="none" stroke="#63b8ff" points="251.5,-739.81 255,-749.81 258.5,-739.81 251.5,-739.81"/>
</a>
</g>
</g>
<!-- Node10 -->
<g id="Node000010" class="node">
<title>Node10</title>
<g id="a_Node000010"><a xlink:href="../../d8/d87/classInterfaces_1_1IValue.html" target="_top" xlink:title="Abstract interface for MIDI input elements that receive and store a 7&#45;bit value.">
<polygon fill="white" stroke="transparent" points="356.5,-479 279.5,-479 279.5,-400 356.5,-400 356.5,-479"/>
<text text-anchor="start" x="303" y="-466.5" font-family="Helvetica,sans-Serif" font-size="10.00">IValue</text>
<text text-anchor="start" x="284" y="-451.5" font-family="Helvetica,sans-Serif" font-size="10.00">#</text>
<text text-anchor="start" x="297" y="-451.5" font-family="Helvetica,sans-Serif" font-size="10.00">dirty</text>
<text text-anchor="start" x="284" y="-436.5" font-family="Helvetica,sans-Serif" font-size="10.00">+</text>
<text text-anchor="start" x="297" y="-436.5" font-family="Helvetica,sans-Serif" font-size="10.00">getValue()</text>
<text text-anchor="start" x="285.5" y="-421.5" font-family="Helvetica,sans-Serif" font-size="10.00">*</text>
<text text-anchor="start" x="297" y="-421.5" font-family="Helvetica,sans-Serif" font-size="10.00">getDirty()</text>
<text text-anchor="start" x="285.5" y="-406.5" font-family="Helvetica,sans-Serif" font-size="10.00">*</text>
<text text-anchor="start" x="297" y="-406.5" font-family="Helvetica,sans-Serif" font-size="10.00">clearDirty()</text>
<polygon fill="#666666" stroke="#666666" points="280,-461.5 280,-461.5 357,-461.5 357,-461.5 280,-461.5"/>
<polygon fill="#666666" stroke="#666666" points="280,-446.5 280,-446.5 295,-446.5 295,-446.5 280,-446.5"/>
<polygon fill="#666666" stroke="#666666" points="295,-446.5 295,-446.5 357,-446.5 357,-446.5 295,-446.5"/>
<polygon fill="none" stroke="#666666" points="279.5,-400 279.5,-479 356.5,-479 356.5,-400 279.5,-400"/>
</a>
</g>
</g>
<!-- Node10&#45;&gt;Node2 -->
<g id="edge9_Node000002_Node000010" class="edge">
<title>Node10&#45;&gt;Node2</title>
<g id="a_edge9_Node000002_Node000010"><a xlink:title=" ">
<path fill="none" stroke="#63b8ff" d="M312.89,-389.6C310.73,-368.86 308.16,-344.24 305.76,-321.34"/>
<polygon fill="none" stroke="#63b8ff" points="309.43,-390.16 313.95,-399.75 316.39,-389.44 309.43,-390.16"/>
</a>
</g>
</g>
<!-- Node11 -->
<g id="Node000011" class="node">
<title>Node11</title>
<g id="a_Node000011"><a xlink:href="../../d6/d44/classNoteCCKPLEDBarDriver.html" target="_top" xlink:title="Callback class that drives a LED dot/bar display based on a note or control change value.">
<polygon fill="white" stroke="transparent" points="529,-283.5 385,-283.5 385,-208.5 529,-208.5 529,-283.5"/>
<text text-anchor="start" x="399.5" y="-271" font-family="Helvetica,sans-Serif" font-size="10.00">NoteCCKPLEDBarDriver</text>
<text text-anchor="start" x="422" y="-260" font-family="Helvetica,sans-Serif" font-size="10.00">&lt; NumLEDs &gt;</text>
<text text-anchor="start" x="455" y="-245" font-family="Helvetica,sans-Serif" font-size="10.00"> </text>
<text text-anchor="start" x="389" y="-230" font-family="Helvetica,sans-Serif" font-size="10.00">+</text>
<text text-anchor="start" x="402" y="-230" font-family="Helvetica,sans-Serif" font-size="10.00">NoteCCKPLEDBarDriver()</text>
<text text-anchor="start" x="389" y="-215" font-family="Helvetica,sans-Serif" font-size="10.00">+</text>
<text text-anchor="start" x="402" y="-215" font-family="Helvetica,sans-Serif" font-size="10.00">displayBar()</text>
<polygon fill="#666666" stroke="#666666" points="385,-255 385,-255 529,-255 529,-255 385,-255"/>
<polygon fill="#666666" stroke="#666666" points="385,-240 385,-240 529,-240 529,-240 385,-240"/>
<polygon fill="none" stroke="#666666" points="385,-208.5 385,-283.5 529,-283.5 529,-208.5 385,-208.5"/>
</a>
</g>
</g>
<!-- Node11&#45;&gt;Node1 -->
<g id="edge10_Node000001_Node000011" class="edge">
<title>Node11&#45;&gt;Node1</title>
<g id="a_edge10_Node000001_Node000011"><a xlink:title=" ">
<path fill="none" stroke="#63b8ff" d="M436.24,-199.19C427.41,-179.73 416.95,-156.65 407.3,-135.34"/>
<polygon fill="none" stroke="#63b8ff" points="433.11,-200.77 440.42,-208.43 439.48,-197.88 433.11,-200.77"/>
</a>
</g>
</g>
<!-- Node12 -->
<g id="Node000012" class="node">
<title>Node12</title>
<g id="a_Node000012"><a xlink:href="../../d9/d89/classAH_1_1DotBarDisplayLEDs.html" target="_top" xlink:title=" ">
<polygon fill="white" stroke="transparent" points="519,-522 395,-522 395,-357 519,-357 519,-522"/>
<text text-anchor="start" x="405.5" y="-509.5" font-family="Helvetica,sans-Serif" font-size="10.00">DotBarDisplayLEDs&lt;</text>
<text text-anchor="start" x="426" y="-498.5" font-family="Helvetica,sans-Serif" font-size="10.00"> NumLEDs &gt;</text>
<text text-anchor="start" x="401.5" y="-483.5" font-family="Helvetica,sans-Serif" font-size="10.00">&#45;</text>
<text text-anchor="start" x="412" y="-483.5" font-family="Helvetica,sans-Serif" font-size="10.00">mode</text>
<text text-anchor="start" x="399" y="-468.5" font-family="Helvetica,sans-Serif" font-size="10.00">+</text>
<text text-anchor="start" x="412" y="-468.5" font-family="Helvetica,sans-Serif" font-size="10.00">DotBarDisplayLEDs()</text>
<text text-anchor="start" x="399" y="-453.5" font-family="Helvetica,sans-Serif" font-size="10.00">+</text>
<text text-anchor="start" x="412" y="-453.5" font-family="Helvetica,sans-Serif" font-size="10.00">display()</text>
<text text-anchor="start" x="399" y="-438.5" font-family="Helvetica,sans-Serif" font-size="10.00">+</text>
<text text-anchor="start" x="412" y="-438.5" font-family="Helvetica,sans-Serif" font-size="10.00">display()</text>
<text text-anchor="start" x="399" y="-423.5" font-family="Helvetica,sans-Serif" font-size="10.00">+</text>
<text text-anchor="start" x="412" y="-423.5" font-family="Helvetica,sans-Serif" font-size="10.00">getMode()</text>
<text text-anchor="start" x="399" y="-408.5" font-family="Helvetica,sans-Serif" font-size="10.00">+</text>
<text text-anchor="start" x="412" y="-408.5" font-family="Helvetica,sans-Serif" font-size="10.00">setMode()</text>
<text text-anchor="start" x="399" y="-393.5" font-family="Helvetica,sans-Serif" font-size="10.00">+</text>
<text text-anchor="start" x="412" y="-393.5" font-family="Helvetica,sans-Serif" font-size="10.00">dotMode()</text>
<text text-anchor="start" x="399" y="-378.5" font-family="Helvetica,sans-Serif" font-size="10.00">+</text>
<text text-anchor="start" x="412" y="-378.5" font-family="Helvetica,sans-Serif" font-size="10.00">barMode()</text>
<text text-anchor="start" x="399" y="-363.5" font-family="Helvetica,sans-Serif" font-size="10.00">+</text>
<text text-anchor="start" x="412" y="-363.5" font-family="Helvetica,sans-Serif" font-size="10.00">toggleMode()</text>
<polygon fill="#666666" stroke="#666666" points="395,-493.5 395,-493.5 519,-493.5 519,-493.5 395,-493.5"/>
<polygon fill="#666666" stroke="#666666" points="395,-478.5 395,-478.5 410,-478.5 410,-478.5 395,-478.5"/>
<polygon fill="#666666" stroke="#666666" points="410,-478.5 410,-478.5 519,-478.5 519,-478.5 410,-478.5"/>
<polygon fill="none" stroke="#666666" points="395,-357 395,-522 519,-522 519,-357 395,-357"/>
</a>
</g>
</g>
<!-- Node12&#45;&gt;Node11 -->
<g id="edge11_Node000011_Node000012" class="edge">
<title>Node12&#45;&gt;Node11</title>
<g id="a_edge11_Node000011_Node000012"><a xlink:title=" ">
<path fill="none" stroke="#63b8ff" d="M457,-346.55C457,-324.32 457,-301.81 457,-283.83"/>
<polygon fill="none" stroke="#63b8ff" points="453.5,-346.73 457,-356.73 460.5,-346.73 453.5,-346.73"/>
</a>
</g>
</g>
<!-- Node13 -->
<g id="Node000013" class="node">
<title>Node13</title>
<g id="a_Node000013"><a xlink:href="../../df/d06/classAH_1_1LEDs.html" target="_top" xlink:title="A class for collections of LEDs that can display ranges.">
<polygon fill="white" stroke="transparent" points="504.5,-697 409.5,-697 409.5,-558 504.5,-558 504.5,-697"/>
<text text-anchor="start" x="430" y="-684.5" font-family="Helvetica,sans-Serif" font-size="10.00">LEDs&lt; N &gt;</text>
<text text-anchor="start" x="416.5" y="-669.5" font-family="Helvetica,sans-Serif" font-size="10.00">&#45;</text>
<text text-anchor="start" x="427" y="-669.5" font-family="Helvetica,sans-Serif" font-size="10.00">ledPins</text>
<text text-anchor="start" x="414" y="-654.5" font-family="Helvetica,sans-Serif" font-size="10.00">+</text>
<text text-anchor="start" x="427" y="-654.5" font-family="Helvetica,sans-Serif" font-size="10.00">LEDs()</text>
<text text-anchor="start" x="414" y="-639.5" font-family="Helvetica,sans-Serif" font-size="10.00">+</text>
<text text-anchor="start" x="427" y="-639.5" font-family="Helvetica,sans-Serif" font-size="10.00">begin()</text>
<text text-anchor="start" x="414" y="-624.5" font-family="Helvetica,sans-Serif" font-size="10.00">+</text>
<text text-anchor="start" x="427" y="-624.5" font-family="Helvetica,sans-Serif" font-size="10.00">displayRange()</text>
<text text-anchor="start" x="414" y="-609.5" font-family="Helvetica,sans-Serif" font-size="10.00">+</text>
<text text-anchor="start" x="427" y="-609.5" font-family="Helvetica,sans-Serif" font-size="10.00">set()</text>
<text text-anchor="start" x="414" y="-594.5" font-family="Helvetica,sans-Serif" font-size="10.00">+</text>
<text text-anchor="start" x="427" y="-594.5" font-family="Helvetica,sans-Serif" font-size="10.00">clear()</text>
<text text-anchor="start" x="414" y="-579.5" font-family="Helvetica,sans-Serif" font-size="10.00">+</text>
<text text-anchor="start" x="427" y="-579.5" font-family="Helvetica,sans-Serif" font-size="10.00">displayDot()</text>
<text text-anchor="start" x="414" y="-564.5" font-family="Helvetica,sans-Serif" font-size="10.00">+</text>
<text text-anchor="start" x="427" y="-564.5" font-family="Helvetica,sans-Serif" font-size="10.00">clear()</text>
<polygon fill="#666666" stroke="#666666" points="410,-679.5 410,-679.5 505,-679.5 505,-679.5 410,-679.5"/>
<polygon fill="#666666" stroke="#666666" points="410,-664.5 410,-664.5 425,-664.5 425,-664.5 410,-664.5"/>
<polygon fill="#666666" stroke="#666666" points="425,-664.5 425,-664.5 505,-664.5 505,-664.5 425,-664.5"/>
<polygon fill="none" stroke="#666666" points="409.5,-558 409.5,-697 504.5,-697 504.5,-558 409.5,-558"/>
</a>
</g>
</g>
<!-- Node13&#45;&gt;Node12 -->
<g id="edge12_Node000012_Node000013" class="edge">
<title>Node13&#45;&gt;Node12</title>
<g id="a_edge12_Node000012_Node000013"><a xlink:title=" ">
<path fill="none" stroke="#63b8ff" d="M457,-547.6C457,-539.19 457,-530.61 457,-522.17"/>
<polygon fill="none" stroke="#63b8ff" points="453.5,-547.77 457,-557.77 460.5,-547.77 453.5,-547.77"/>
</a>
</g>
</g>
</g>
</svg>
