<?xml version="1.0" encoding="UTF-8" standalone="no"?>
<!DOCTYPE svg PUBLIC "-//W3C//DTD SVG 1.1//EN"
 "http://www.w3.org/Graphics/SVG/1.1/DTD/svg11.dtd">
<!-- Generated by graphviz version 2.43.0 (0)
 -->
<!-- Title: FilteredAnalog&lt; Precision, FilterShiftFactor, FilterType, AnalogType, IncRes &gt; Pages: 1 -->
<svg width="469pt" height="697pt"
 viewBox="0.00 0.00 469.00 697.00" xmlns="http://www.w3.org/2000/svg" xmlns:xlink="http://www.w3.org/1999/xlink">
<g id="graph0" class="graph" transform="scale(1 1) rotate(0) translate(4 693)">
<title>FilteredAnalog&lt; Precision, FilterShiftFactor, FilterType, AnalogType, IncRes &gt;</title>
<!-- Node1 -->
<g id="Node000001" class="node">
<title>Node1</title>
<g id="a_Node000001"><a xlink:title="A class that reads and filters an analog input.">
<polygon fill="#999999" stroke="transparent" points="250.5,-116 104.5,-116 104.5,0 250.5,0 250.5,-116"/>
<text text-anchor="start" x="109.5" y="-104" font-family="Helvetica,sans-Serif" font-size="10.00">FilteredAnalog&lt; Precision,</text>
<text text-anchor="start" x="109.5" y="-93" font-family="Helvetica,sans-Serif" font-size="10.00"> FilterShiftFactor, FilterType,</text>
<text text-anchor="start" x="123" y="-82" font-family="Helvetica,sans-Serif" font-size="10.00"> AnalogType, IncRes &gt;</text>
<text text-anchor="start" x="175.5" y="-67" font-family="Helvetica,sans-Serif" font-size="10.00"> </text>
<text text-anchor="start" x="120" y="-52" font-family="Helvetica,sans-Serif" font-size="10.00">+</text>
<text text-anchor="start" x="144.5" y="-52" font-family="Helvetica,sans-Serif" font-size="10.00">FilteredAnalog()</text>
<text text-anchor="start" x="120" y="-37" font-family="Helvetica,sans-Serif" font-size="10.00">+</text>
<text text-anchor="start" x="144.5" y="-37" font-family="Helvetica,sans-Serif" font-size="10.00">FilteredAnalog()</text>
<text text-anchor="start" x="120" y="-22" font-family="Helvetica,sans-Serif" font-size="10.00">+</text>
<text text-anchor="start" x="144.5" y="-22" font-family="Helvetica,sans-Serif" font-size="10.00">FilteredAnalog()</text>
<text text-anchor="start" x="120" y="-7" font-family="Helvetica,sans-Serif" font-size="10.00">+</text>
<text text-anchor="start" x="144.5" y="-7" font-family="Helvetica,sans-Serif" font-size="10.00">invert()</text>
<polygon fill="#666666" stroke="#666666" points="104.5,-77 104.5,-77 250.5,-77 250.5,-77 104.5,-77"/>
<polygon fill="#666666" stroke="#666666" points="104.5,-62 104.5,-62 250.5,-62 250.5,-62 104.5,-62"/>
<polygon fill="none" stroke="#666666" points="104.5,0 104.5,-116 250.5,-116 250.5,0 104.5,0"/>
</a>
</g>
</g>
<!-- Node2 -->
<g id="Node000002" class="node">
<title>Node2</title>
<g id="a_Node000002"><a xlink:href="../../da/d36/classAH_1_1GenericFilteredAnalog.html" target="_top" xlink:title="FilteredAnalog base class with generic MappingFunction.">
<polygon fill="white" stroke="transparent" points="256.5,-445 98.5,-445 98.5,-153 256.5,-153 256.5,-445"/>
<text text-anchor="start" x="103.5" y="-433" font-family="Helvetica,sans-Serif" font-size="10.00">GenericFilteredAnalog</text>
<text text-anchor="start" x="103.5" y="-422" font-family="Helvetica,sans-Serif" font-size="10.00">&lt; MappingFunction, Precision,</text>
<text text-anchor="start" x="103.5" y="-411" font-family="Helvetica,sans-Serif" font-size="10.00"> FilterShiftFactor, FilterType,</text>
<text text-anchor="start" x="123" y="-400" font-family="Helvetica,sans-Serif" font-size="10.00"> AnalogType, IncRes &gt;</text>
<text text-anchor="start" x="110" y="-385" font-family="Helvetica,sans-Serif" font-size="10.00">&#45;</text>
<text text-anchor="start" x="125.5" y="-385" font-family="Helvetica,sans-Serif" font-size="10.00">mapFn</text>
<text text-anchor="start" x="107.5" y="-370" font-family="Helvetica,sans-Serif" font-size="10.00">+</text>
<text text-anchor="start" x="125.5" y="-370" font-family="Helvetica,sans-Serif" font-size="10.00">GenericFilteredAnalog()</text>
<text text-anchor="start" x="107.5" y="-355" font-family="Helvetica,sans-Serif" font-size="10.00">+</text>
<text text-anchor="start" x="125.5" y="-355" font-family="Helvetica,sans-Serif" font-size="10.00">GenericFilteredAnalog()</text>
<text text-anchor="start" x="107.5" y="-340" font-family="Helvetica,sans-Serif" font-size="10.00">+</text>
<text text-anchor="start" x="125.5" y="-340" font-family="Helvetica,sans-Serif" font-size="10.00">reset()</text>
<text text-anchor="start" x="107.5" y="-325" font-family="Helvetica,sans-Serif" font-size="10.00">+</text>
<text text-anchor="start" x="125.5" y="-325" font-family="Helvetica,sans-Serif" font-size="10.00">resetToCurrentValue()</text>
<text text-anchor="start" x="107.5" y="-310" font-family="Helvetica,sans-Serif" font-size="10.00">+</text>
<text text-anchor="start" x="125.5" y="-310" font-family="Helvetica,sans-Serif" font-size="10.00">map()</text>
<text text-anchor="start" x="107.5" y="-295" font-family="Helvetica,sans-Serif" font-size="10.00">+</text>
<text text-anchor="start" x="125.5" y="-295" font-family="Helvetica,sans-Serif" font-size="10.00">getMappingFunction()</text>
<text text-anchor="start" x="107.5" y="-280" font-family="Helvetica,sans-Serif" font-size="10.00">+</text>
<text text-anchor="start" x="125.5" y="-280" font-family="Helvetica,sans-Serif" font-size="10.00">getMappingFunction()</text>
<text text-anchor="start" x="107.5" y="-265" font-family="Helvetica,sans-Serif" font-size="10.00">+</text>
<text text-anchor="start" x="125.5" y="-265" font-family="Helvetica,sans-Serif" font-size="10.00">update()</text>
<text text-anchor="start" x="107.5" y="-250" font-family="Helvetica,sans-Serif" font-size="10.00">+</text>
<text text-anchor="start" x="125.5" y="-250" font-family="Helvetica,sans-Serif" font-size="10.00">getValue()</text>
<text text-anchor="start" x="107.5" y="-235" font-family="Helvetica,sans-Serif" font-size="10.00">+</text>
<text text-anchor="start" x="125.5" y="-235" font-family="Helvetica,sans-Serif" font-size="10.00">getFloatValue()</text>
<text text-anchor="start" x="107.5" y="-220" font-family="Helvetica,sans-Serif" font-size="10.00">+</text>
<text text-anchor="start" x="125.5" y="-220" font-family="Helvetica,sans-Serif" font-size="10.00">getRawValue()</text>
<text text-anchor="start" x="107.5" y="-205" font-family="Helvetica,sans-Serif" font-size="10.00">+</text>
<text text-anchor="start" x="125.5" y="-205" font-family="Helvetica,sans-Serif" font-size="10.00">getMaxRawValue()</text>
<text text-anchor="start" x="107.5" y="-190" font-family="Helvetica,sans-Serif" font-size="10.00">+</text>
<text text-anchor="start" x="125.5" y="-190" font-family="Helvetica,sans-Serif" font-size="10.00">setupADC()</text>
<text text-anchor="start" x="110" y="-175" font-family="Helvetica,sans-Serif" font-size="10.00">&#45;</text>
<text text-anchor="start" x="125.5" y="-175" font-family="Helvetica,sans-Serif" font-size="10.00">mapFnHelper()</text>
<text text-anchor="start" x="110" y="-160" font-family="Helvetica,sans-Serif" font-size="10.00">&#45;</text>
<text text-anchor="start" x="125.5" y="-160" font-family="Helvetica,sans-Serif" font-size="10.00">mapFnHelper()</text>
<polygon fill="#666666" stroke="#666666" points="98.5,-395 98.5,-395 256.5,-395 256.5,-395 98.5,-395"/>
<polygon fill="#666666" stroke="#666666" points="98.5,-380 98.5,-380 123.5,-380 123.5,-380 98.5,-380"/>
<polygon fill="#666666" stroke="#666666" points="123.5,-380 123.5,-380 256.5,-380 256.5,-380 123.5,-380"/>
<polygon fill="none" stroke="#666666" points="98.5,-153 98.5,-445 256.5,-445 256.5,-153 98.5,-153"/>
</a>
</g>
</g>
<!-- Node2&#45;&gt;Node1 -->
<g id="edge1_Node000001_Node000002" class="edge">
<title>Node2&#45;&gt;Node1</title>
<g id="a_edge1_Node000001_Node000002"><a xlink:title=" ">
<path fill="none" stroke="#63b8ff" d="M177.5,-142.67C177.5,-133.46 177.5,-124.56 177.5,-116.23"/>
<polygon fill="none" stroke="#63b8ff" points="174,-142.77 177.5,-152.77 181,-142.77 174,-142.77"/>
</a>
</g>
</g>
<!-- Node3 -->
<g id="Node000003" class="node">
<title>Node3</title>
<g id="a_Node000003"><a xlink:href="../../d7/de2/structAH_1_1ExtIO_1_1pin__t.html" target="_top" xlink:title="Type for storing pin numbers of Extended Input/Output elements.">
<polygon fill="white" stroke="transparent" points="87,-670.5 0,-670.5 0,-516.5 87,-516.5 87,-670.5"/>
<text text-anchor="start" x="31.5" y="-658.5" font-family="Helvetica,sans-Serif" font-size="10.00">pin_t</text>
<text text-anchor="start" x="4.5" y="-643.5" font-family="Helvetica,sans-Serif" font-size="10.00">+</text>
<text text-anchor="start" x="17.5" y="-643.5" font-family="Helvetica,sans-Serif" font-size="10.00">pin</text>
<text text-anchor="start" x="4.5" y="-628.5" font-family="Helvetica,sans-Serif" font-size="10.00">+</text>
<text text-anchor="start" x="17.5" y="-628.5" font-family="Helvetica,sans-Serif" font-size="10.00">pin_t()</text>
<text text-anchor="start" x="4.5" y="-613.5" font-family="Helvetica,sans-Serif" font-size="10.00">+</text>
<text text-anchor="start" x="17.5" y="-613.5" font-family="Helvetica,sans-Serif" font-size="10.00">pin_t()</text>
<text text-anchor="start" x="4.5" y="-598.5" font-family="Helvetica,sans-Serif" font-size="10.00">+</text>
<text text-anchor="start" x="17.5" y="-598.5" font-family="Helvetica,sans-Serif" font-size="10.00">operator+=()</text>
<text text-anchor="start" x="4.5" y="-583.5" font-family="Helvetica,sans-Serif" font-size="10.00">+</text>
<text text-anchor="start" x="17.5" y="-583.5" font-family="Helvetica,sans-Serif" font-size="10.00">operator++()</text>
<text text-anchor="start" x="4.5" y="-568.5" font-family="Helvetica,sans-Serif" font-size="10.00">+</text>
<text text-anchor="start" x="17.5" y="-568.5" font-family="Helvetica,sans-Serif" font-size="10.00">operator++()</text>
<text text-anchor="start" x="4.5" y="-553.5" font-family="Helvetica,sans-Serif" font-size="10.00">+</text>
<text text-anchor="start" x="17.5" y="-553.5" font-family="Helvetica,sans-Serif" font-size="10.00">operator&#45;=()</text>
<text text-anchor="start" x="4.5" y="-538.5" font-family="Helvetica,sans-Serif" font-size="10.00">+</text>
<text text-anchor="start" x="17.5" y="-538.5" font-family="Helvetica,sans-Serif" font-size="10.00">operator&#45;&#45;()</text>
<text text-anchor="start" x="4.5" y="-523.5" font-family="Helvetica,sans-Serif" font-size="10.00">+</text>
<text text-anchor="start" x="17.5" y="-523.5" font-family="Helvetica,sans-Serif" font-size="10.00">operator&#45;&#45;()</text>
<polygon fill="#666666" stroke="#666666" points="0.5,-653.5 0.5,-653.5 87.5,-653.5 87.5,-653.5 0.5,-653.5"/>
<polygon fill="#666666" stroke="#666666" points="0.5,-638.5 0.5,-638.5 15.5,-638.5 15.5,-638.5 0.5,-638.5"/>
<polygon fill="#666666" stroke="#666666" points="15.5,-638.5 15.5,-638.5 87.5,-638.5 87.5,-638.5 15.5,-638.5"/>
<polygon fill="none" stroke="#666666" points="0,-516.5 0,-670.5 87,-670.5 87,-516.5 0,-516.5"/>
</a>
</g>
</g>
<!-- Node3&#45;&gt;Node2 -->
<g id="edge2_Node000002_Node000003" class="edge">
<title>Node3&#45;&gt;Node2</title>
<g id="a_edge2_Node000002_Node000003"><a xlink:title=" ">
<path fill="none" stroke="#63b8ff" d="M78.36,-516.41C86.91,-497.75 96.38,-477.08 105.97,-456.14"/>
<polygon fill="none" stroke="#63b8ff" points="105.99,-456.09 104.85,-448.97 110.99,-445.18 112.13,-452.3 105.99,-456.09"/>
</a>
</g>
<text text-anchor="start" x="105.5" y="-468.5" font-family="Helvetica,sans-Serif" font-size="10.00" fill="grey">&#45;analogPin</text>
</g>
<!-- Node4 -->
<g id="Node000004" class="node">
<title>Node4</title>
<g id="a_Node000004"><a xlink:href="../../d9/d74/classAH_1_1EMA.html" target="_top" xlink:title=" ">
<polygon fill="white" stroke="transparent" points="250,-689 105,-689 105,-498 250,-498 250,-689"/>
<text text-anchor="start" x="110.5" y="-676.5" font-family="Helvetica,sans-Serif" font-size="10.00">EMA&lt; ANALOG_FILTER</text>
<text text-anchor="start" x="110.5" y="-665.5" font-family="Helvetica,sans-Serif" font-size="10.00">_SHIFT_FACTOR, analog</text>
<text text-anchor="start" x="110.5" y="-654.5" font-family="Helvetica,sans-Serif" font-size="10.00">_t, ANALOG_FILTER_TYPE &gt;</text>
<text text-anchor="start" x="119.5" y="-639.5" font-family="Helvetica,sans-Serif" font-size="10.00">+</text>
<text text-anchor="start" x="142.5" y="-639.5" font-family="Helvetica,sans-Serif" font-size="10.00">max_state</text>
<text text-anchor="start" x="119.5" y="-624.5" font-family="Helvetica,sans-Serif" font-size="10.00">+</text>
<text text-anchor="start" x="142.5" y="-624.5" font-family="Helvetica,sans-Serif" font-size="10.00">half_state</text>
<text text-anchor="start" x="119.5" y="-609.5" font-family="Helvetica,sans-Serif" font-size="10.00">+</text>
<text text-anchor="start" x="142.5" y="-609.5" font-family="Helvetica,sans-Serif" font-size="10.00">zero</text>
<text text-anchor="start" x="119.5" y="-594.5" font-family="Helvetica,sans-Serif" font-size="10.00">+</text>
<text text-anchor="start" x="142.5" y="-594.5" font-family="Helvetica,sans-Serif" font-size="10.00">half</text>
<text text-anchor="start" x="122" y="-579.5" font-family="Helvetica,sans-Serif" font-size="10.00">&#45;</text>
<text text-anchor="start" x="142.5" y="-579.5" font-family="Helvetica,sans-Serif" font-size="10.00">state</text>
<text text-anchor="start" x="119.5" y="-564.5" font-family="Helvetica,sans-Serif" font-size="10.00">+</text>
<text text-anchor="start" x="142.5" y="-564.5" font-family="Helvetica,sans-Serif" font-size="10.00">EMA()</text>
<text text-anchor="start" x="119.5" y="-549.5" font-family="Helvetica,sans-Serif" font-size="10.00">+</text>
<text text-anchor="start" x="142.5" y="-549.5" font-family="Helvetica,sans-Serif" font-size="10.00">reset()</text>
<text text-anchor="start" x="119.5" y="-534.5" font-family="Helvetica,sans-Serif" font-size="10.00">+</text>
<text text-anchor="start" x="142.5" y="-534.5" font-family="Helvetica,sans-Serif" font-size="10.00">filter()</text>
<text text-anchor="start" x="119.5" y="-519.5" font-family="Helvetica,sans-Serif" font-size="10.00">+</text>
<text text-anchor="start" x="142.5" y="-519.5" font-family="Helvetica,sans-Serif" font-size="10.00">operator()()</text>
<text text-anchor="start" x="119.5" y="-504.5" font-family="Helvetica,sans-Serif" font-size="10.00">+</text>
<text text-anchor="start" x="142.5" y="-504.5" font-family="Helvetica,sans-Serif" font-size="10.00">supports_range()</text>
<polygon fill="#666666" stroke="#666666" points="105.5,-649.5 105.5,-649.5 250.5,-649.5 250.5,-649.5 105.5,-649.5"/>
<polygon fill="#666666" stroke="#666666" points="105.5,-574.5 105.5,-574.5 140.5,-574.5 140.5,-574.5 105.5,-574.5"/>
<polygon fill="#666666" stroke="#666666" points="140.5,-574.5 140.5,-574.5 250.5,-574.5 250.5,-574.5 140.5,-574.5"/>
<polygon fill="none" stroke="#666666" points="105,-498 105,-689 250,-689 250,-498 105,-498"/>
</a>
</g>
</g>
<!-- Node4&#45;&gt;Node2 -->
<g id="edge3_Node000002_Node000004" class="edge">
<title>Node4&#45;&gt;Node2</title>
<g id="a_edge3_Node000002_Node000004"><a xlink:title=" ">
<path fill="none" stroke="#63b8ff" d="M177.5,-497.94C177.5,-484.83 177.5,-471.1 177.5,-457.23"/>
<polygon fill="none" stroke="#63b8ff" points="177.5,-457.01 173.5,-451.01 177.5,-445.01 181.5,-451.01 177.5,-457.01"/>
</a>
</g>
<text text-anchor="start" x="181" y="-468.5" font-family="Helvetica,sans-Serif" font-size="10.00" fill="grey">&#45;filter</text>
</g>
<!-- Node5 -->
<g id="Node000005" class="node">
<title>Node5</title>
<g id="a_Node000005"><a xlink:href="../../da/df9/classAH_1_1Hysteresis.html" target="_top" xlink:title=" ">
<polygon fill="white" stroke="transparent" points="461,-685 268,-685 268,-502 461,-502 461,-685"/>
<text text-anchor="start" x="273.5" y="-672.5" font-family="Helvetica,sans-Serif" font-size="10.00">Hysteresis&lt; ADC_BITS</text>
<text text-anchor="start" x="273.5" y="-661.5" font-family="Helvetica,sans-Serif" font-size="10.00">+MaximumFilteredAnalogIncRes</text>
<text text-anchor="start" x="273.5" y="-650.5" font-family="Helvetica,sans-Serif" font-size="10.00">&lt; ANALOG_FILTER_SHIFT_FACTOR,</text>
<text text-anchor="start" x="273.5" y="-639.5" font-family="Helvetica,sans-Serif" font-size="10.00"> ANALOG_FILTER_TYPE, analog</text>
<text text-anchor="start" x="273.5" y="-628.5" font-family="Helvetica,sans-Serif" font-size="10.00">_t &gt;::value &#45; 10, analog_t, analog_t &gt;</text>
<text text-anchor="start" x="305" y="-613.5" font-family="Helvetica,sans-Serif" font-size="10.00">&#45;</text>
<text text-anchor="start" x="345.5" y="-613.5" font-family="Helvetica,sans-Serif" font-size="10.00">prevLevel</text>
<text text-anchor="start" x="305" y="-598.5" font-family="Helvetica,sans-Serif" font-size="10.00">&#45;</text>
<text text-anchor="start" x="345.5" y="-598.5" font-family="Helvetica,sans-Serif" font-size="10.00">margin</text>
<text text-anchor="start" x="305" y="-583.5" font-family="Helvetica,sans-Serif" font-size="10.00">&#45;</text>
<text text-anchor="start" x="345.5" y="-583.5" font-family="Helvetica,sans-Serif" font-size="10.00">offset</text>
<text text-anchor="start" x="305" y="-568.5" font-family="Helvetica,sans-Serif" font-size="10.00">&#45;</text>
<text text-anchor="start" x="345.5" y="-568.5" font-family="Helvetica,sans-Serif" font-size="10.00">max_in</text>
<text text-anchor="start" x="305" y="-553.5" font-family="Helvetica,sans-Serif" font-size="10.00">&#45;</text>
<text text-anchor="start" x="345.5" y="-553.5" font-family="Helvetica,sans-Serif" font-size="10.00">max_out</text>
<text text-anchor="start" x="302.5" y="-538.5" font-family="Helvetica,sans-Serif" font-size="10.00">+</text>
<text text-anchor="start" x="345.5" y="-538.5" font-family="Helvetica,sans-Serif" font-size="10.00">update()</text>
<text text-anchor="start" x="302.5" y="-523.5" font-family="Helvetica,sans-Serif" font-size="10.00">+</text>
<text text-anchor="start" x="345.5" y="-523.5" font-family="Helvetica,sans-Serif" font-size="10.00">getValue()</text>
<text text-anchor="start" x="302.5" y="-508.5" font-family="Helvetica,sans-Serif" font-size="10.00">+</text>
<text text-anchor="start" x="345.5" y="-508.5" font-family="Helvetica,sans-Serif" font-size="10.00">setValue()</text>
<polygon fill="#666666" stroke="#666666" points="268.5,-623.5 268.5,-623.5 461.5,-623.5 461.5,-623.5 268.5,-623.5"/>
<polygon fill="#666666" stroke="#666666" points="268.5,-548.5 268.5,-548.5 343.5,-548.5 343.5,-548.5 268.5,-548.5"/>
<polygon fill="#666666" stroke="#666666" points="343.5,-548.5 343.5,-548.5 461.5,-548.5 461.5,-548.5 343.5,-548.5"/>
<polygon fill="none" stroke="#666666" points="268,-502 268,-685 461,-685 461,-502 268,-502"/>
</a>
</g>
</g>
<!-- Node5&#45;&gt;Node2 -->
<g id="edge4_Node000002_Node000005" class="edge">
<title>Node5&#45;&gt;Node2</title>
<g id="a_edge4_Node000002_Node000005"><a xlink:title=" ">
<path fill="none" stroke="#63b8ff" d="M306.61,-501.95C292.83,-480.4 277.83,-456.94 263.1,-433.9"/>
<polygon fill="none" stroke="#63b8ff" points="263.05,-433.81 256.45,-430.91 256.58,-423.7 263.19,-426.6 263.05,-433.81"/>
</a>
</g>
<text text-anchor="start" x="291" y="-468.5" font-family="Helvetica,sans-Serif" font-size="10.00" fill="grey">&#45;hysteresis</text>
</g>
</g>
</svg>
