<?xml version="1.0" encoding="UTF-8" standalone="no"?>
<!DOCTYPE svg PUBLIC "-//W3C//DTD SVG 1.1//EN"
 "http://www.w3.org/Graphics/SVG/1.1/DTD/svg11.dtd">
<!-- Generated by graphviz version 2.43.0 (0)
 -->
<!-- Title: MIDI_MessageTypes.cpp Pages: 1 -->
<svg width="1249pt" height="808pt"
 viewBox="0.00 0.00 1249.00 808.00" xmlns="http://www.w3.org/2000/svg" xmlns:xlink="http://www.w3.org/1999/xlink">
<g id="graph0" class="graph" transform="scale(1 1) rotate(0) translate(4 804)">
<title>MIDI_MessageTypes.cpp</title>
<!-- Node1 -->
<g id="Node000001" class="node">
<title>Node1</title>
<g id="a_Node000001"><a xlink:title=" ">
<polygon fill="#999999" stroke="#666666" points="201,-800 65,-800 65,-781 201,-781 201,-800"/>
<text text-anchor="middle" x="133" y="-788" font-family="Helvetica,sans-Serif" font-size="10.00">MIDI_MessageTypes.cpp</text>
</a>
</g>
</g>
<!-- Node2 -->
<g id="Node000002" class="node">
<title>Node2</title>
<g id="a_Node000002"><a xlink:href="../../dc/d40/MIDI__MessageTypes_8hpp.html" target="_top" xlink:title=" ">
<polygon fill="white" stroke="#666666" points="294.5,-745 157.5,-745 157.5,-726 294.5,-726 294.5,-745"/>
<text text-anchor="middle" x="226" y="-733" font-family="Helvetica,sans-Serif" font-size="10.00">MIDI_MessageTypes.hpp</text>
</a>
</g>
</g>
<!-- Node1&#45;&gt;Node2 -->
<g id="edge1_Node000001_Node000002" class="edge">
<title>Node1&#45;&gt;Node2</title>
<g id="a_edge1_Node000001_Node000002"><a xlink:title=" ">
<path fill="none" stroke="#63b8ff" d="M147.94,-780.98C162.5,-772.69 184.87,-759.94 201.93,-750.22"/>
<polygon fill="#63b8ff" stroke="#63b8ff" points="203.83,-753.16 210.79,-745.17 200.36,-747.08 203.83,-753.16"/>
</a>
</g>
</g>
<!-- Node11 -->
<g id="Node000011" class="node">
<title>Node11</title>
<g id="a_Node000011"><a xlink:title=" ">
<polygon fill="#e0e0e0" stroke="#999999" points="267,-294 89,-294 89,-275 267,-275 267,-294"/>
<text text-anchor="middle" x="178" y="-282" font-family="Helvetica,sans-Serif" font-size="10.00">Settings/NamespaceSettings.hpp</text>
</a>
</g>
</g>
<!-- Node1&#45;&gt;Node11 -->
<g id="edge65_Node000001_Node000011" class="edge">
<title>Node1&#45;&gt;Node11</title>
<g id="a_edge65_Node000001_Node000011"><a xlink:title=" ">
<path fill="none" stroke="#63b8ff" d="M124.59,-780.8C108.73,-763.44 76,-722.63 76,-681.5 76,-681.5 76,-681.5 76,-393.5 76,-349.56 121.18,-316.27 151.4,-298.92"/>
<polygon fill="#63b8ff" stroke="#63b8ff" points="153.16,-301.94 160.23,-294.05 149.79,-295.81 153.16,-301.94"/>
</a>
</g>
</g>
<!-- Node3 -->
<g id="Node000003" class="node">
<title>Node3</title>
<g id="a_Node000003"><a xlink:href="../../d6/ddf/Arduino-Wrapper_8h.html" target="_top" xlink:title=" ">
<polygon fill="white" stroke="#666666" points="361,-184 237,-184 237,-165 361,-165 361,-184"/>
<text text-anchor="middle" x="299" y="-172" font-family="Helvetica,sans-Serif" font-size="10.00">AH/Arduino&#45;Wrapper.h</text>
</a>
</g>
</g>
<!-- Node2&#45;&gt;Node3 -->
<g id="edge2_Node000002_Node000003" class="edge">
<title>Node2&#45;&gt;Node3</title>
<g id="a_edge2_Node000002_Node000003"><a xlink:title=" ">
<path fill="none" stroke="#63b8ff" d="M157.27,-730.04C90.78,-721.56 0,-697.06 0,-626.5 0,-626.5 0,-626.5 0,-283.5 0,-248.12 17.83,-238.48 48,-220 77.27,-202.07 163.22,-189.53 226.42,-182.43"/>
<polygon fill="#63b8ff" stroke="#63b8ff" points="227.19,-185.87 236.75,-181.3 226.43,-178.91 227.19,-185.87"/>
</a>
</g>
</g>
<!-- Node5 -->
<g id="Node000005" class="node">
<title>Node5</title>
<g id="a_Node000005"><a xlink:href="../../d1/d65/Warnings_8hpp.html" target="_top" xlink:title=" ">
<polygon fill="white" stroke="#666666" points="1046.5,-19 903.5,-19 903.5,0 1046.5,0 1046.5,-19"/>
<text text-anchor="middle" x="975" y="-7" font-family="Helvetica,sans-Serif" font-size="10.00">AH/Settings/Warnings.hpp</text>
</a>
</g>
</g>
<!-- Node2&#45;&gt;Node5 -->
<g id="edge18_Node000002_Node000005" class="edge">
<title>Node2&#45;&gt;Node5</title>
<g id="a_edge18_Node000002_Node000005"><a xlink:title=" ">
<path fill="none" stroke="#63b8ff" d="M294.57,-734.41C522.58,-733.23 1241,-721.92 1241,-626.5 1241,-626.5 1241,-626.5 1241,-118.5 1241,-82.85 1222.24,-73.87 1192,-55 1151.68,-29.84 1099.71,-18.6 1056.74,-13.7"/>
<polygon fill="#63b8ff" stroke="#63b8ff" points="1056.9,-10.2 1046.59,-12.65 1056.17,-17.16 1056.9,-10.2"/>
</a>
</g>
</g>
<!-- Node10 -->
<g id="Node000010" class="node">
<title>Node10</title>
<g id="a_Node000010"><a xlink:href="../../dd/d80/PrintStream_8hpp.html" target="_top" xlink:title=" ">
<polygon fill="white" stroke="#666666" points="610.5,-349 437.5,-349 437.5,-330 610.5,-330 610.5,-349"/>
<text text-anchor="middle" x="524" y="-337" font-family="Helvetica,sans-Serif" font-size="10.00">AH/PrintStream/PrintStream.hpp</text>
</a>
</g>
</g>
<!-- Node2&#45;&gt;Node10 -->
<g id="edge11_Node000002_Node000010" class="edge">
<title>Node2&#45;&gt;Node10</title>
<g id="a_edge11_Node000002_Node000010"><a xlink:title=" ">
<path fill="none" stroke="#63b8ff" d="M294.57,-727.86C344.2,-721.47 405.22,-709.78 421,-690 426.27,-683.4 424.23,-678.8 421,-671 399.11,-618.16 351.89,-632.84 330,-580 324.9,-567.68 325.13,-562.41 330,-550 365.38,-459.73 459.94,-385.11 502.6,-354.91"/>
<polygon fill="#63b8ff" stroke="#63b8ff" points="504.66,-357.74 510.87,-349.15 500.67,-351.99 504.66,-357.74"/>
</a>
</g>
</g>
<!-- Node2&#45;&gt;Node11 -->
<g id="edge19_Node000002_Node000011" class="edge">
<title>Node2&#45;&gt;Node11</title>
<g id="a_edge19_Node000002_Node000011"><a xlink:title=" ">
<path fill="none" stroke="#63b8ff" d="M205.46,-725.96C173.12,-710.99 114,-676.74 114,-626.5 114,-626.5 114,-626.5 114,-393.5 114,-356.53 142.1,-321.14 161.06,-301.46"/>
<polygon fill="#63b8ff" stroke="#63b8ff" points="163.67,-303.8 168.28,-294.26 158.73,-298.84 163.67,-303.8"/>
</a>
</g>
</g>
<!-- Node12 -->
<g id="Node000012" class="node">
<title>Node12</title>
<g id="a_Node000012"><a xlink:title=" ">
<polygon fill="#e0e0e0" stroke="#999999" points="308,-690 218,-690 218,-671 308,-671 308,-690"/>
<text text-anchor="middle" x="263" y="-678" font-family="Helvetica,sans-Serif" font-size="10.00">AH/STL/cstddef</text>
</a>
</g>
</g>
<!-- Node2&#45;&gt;Node12 -->
<g id="edge16_Node000002_Node000012" class="edge">
<title>Node2&#45;&gt;Node12</title>
<g id="a_edge16_Node000002_Node000012"><a xlink:title=" ">
<path fill="none" stroke="#63b8ff" d="M232.11,-725.75C237.28,-718.34 244.85,-707.5 251.19,-698.41"/>
<polygon fill="#63b8ff" stroke="#63b8ff" points="254.15,-700.29 257,-690.09 248.41,-696.29 254.15,-700.29"/>
</a>
</g>
</g>
<!-- Node13 -->
<g id="Node000013" class="node">
<title>Node13</title>
<g id="a_Node000013"><a xlink:title=" ">
<polygon fill="#e0e0e0" stroke="#999999" points="411.5,-690 326.5,-690 326.5,-671 411.5,-671 411.5,-690"/>
<text text-anchor="middle" x="369" y="-678" font-family="Helvetica,sans-Serif" font-size="10.00">AH/STL/vector</text>
</a>
</g>
</g>
<!-- Node2&#45;&gt;Node13 -->
<g id="edge17_Node000002_Node000013" class="edge">
<title>Node2&#45;&gt;Node13</title>
<g id="a_edge17_Node000002_Node000013"><a xlink:title=" ">
<path fill="none" stroke="#63b8ff" d="M248.98,-725.98C272.5,-717.27 309.29,-703.63 335.94,-693.75"/>
<polygon fill="#63b8ff" stroke="#63b8ff" points="337.45,-696.93 345.61,-690.17 335.01,-690.36 337.45,-696.93"/>
</a>
</g>
</g>
<!-- Node14 -->
<g id="Node000014" class="node">
<title>Node14</title>
<g id="a_Node000014"><a xlink:href="../../d2/dbc/Cable_8hpp.html" target="_top" xlink:title=" ">
<polygon fill="white" stroke="#666666" points="228,-514 142,-514 142,-495 228,-495 228,-514"/>
<text text-anchor="middle" x="185" y="-502" font-family="Helvetica,sans-Serif" font-size="10.00">Def/Cable.hpp</text>
</a>
</g>
</g>
<!-- Node2&#45;&gt;Node14 -->
<g id="edge20_Node000002_Node000014" class="edge">
<title>Node2&#45;&gt;Node14</title>
<g id="a_edge20_Node000002_Node000014"><a xlink:title=" ">
<path fill="none" stroke="#63b8ff" d="M210.57,-725.8C198.65,-718.11 183.04,-705.69 176,-690 150.77,-633.76 168.5,-557.97 178.9,-523.69"/>
<polygon fill="#63b8ff" stroke="#63b8ff" points="182.26,-524.68 181.96,-514.09 175.59,-522.56 182.26,-524.68"/>
</a>
</g>
</g>
<!-- Node15 -->
<g id="Node000015" class="node">
<title>Node15</title>
<g id="a_Node000015"><a xlink:href="../../d7/d42/Channel_8hpp.html" target="_top" xlink:title=" ">
<polygon fill="white" stroke="#666666" points="305,-404 207,-404 207,-385 305,-385 305,-404"/>
<text text-anchor="middle" x="256" y="-392" font-family="Helvetica,sans-Serif" font-size="10.00">Def/Channel.hpp</text>
</a>
</g>
</g>
<!-- Node2&#45;&gt;Node15 -->
<g id="edge23_Node000002_Node000015" class="edge">
<title>Node2&#45;&gt;Node15</title>
<g id="a_edge23_Node000002_Node000015"><a xlink:title=" ">
<path fill="none" stroke="#63b8ff" d="M221.63,-725.91C217.44,-717.14 211.4,-703.01 209,-690 207.47,-681.7 208.26,-679.41 209,-671 215.25,-600.4 225.17,-583.88 237,-514 242.98,-478.69 249.49,-437.38 253.13,-414.04"/>
<polygon fill="#63b8ff" stroke="#63b8ff" points="256.59,-414.55 254.67,-404.13 249.68,-413.48 256.59,-414.55"/>
</a>
</g>
</g>
<!-- Node16 -->
<g id="Node000016" class="node">
<title>Node16</title>
<g id="a_Node000016"><a xlink:href="../../db/dd6/MIDIAddress_8hpp.html" target="_top" xlink:title=" ">
<polygon fill="white" stroke="#666666" points="587.5,-690 468.5,-690 468.5,-671 587.5,-671 587.5,-690"/>
<text text-anchor="middle" x="528" y="-678" font-family="Helvetica,sans-Serif" font-size="10.00">Def/MIDIAddress.hpp</text>
</a>
</g>
</g>
<!-- Node2&#45;&gt;Node16 -->
<g id="edge26_Node000002_Node000016" class="edge">
<title>Node2&#45;&gt;Node16</title>
<g id="a_edge26_Node000002_Node000016"><a xlink:title=" ">
<path fill="none" stroke="#63b8ff" d="M274.52,-725.98C327.61,-716.67 412.69,-701.74 469.44,-691.78"/>
<polygon fill="#63b8ff" stroke="#63b8ff" points="470.1,-695.21 479.35,-690.04 468.89,-688.32 470.1,-695.21"/>
</a>
</g>
</g>
<!-- Node4 -->
<g id="Node000004" class="node">
<title>Node4</title>
<g id="a_Node000004"><a xlink:href="../../d7/d79/MinMaxFix_8hpp.html" target="_top" xlink:title=" ">
<polygon fill="white" stroke="#666666" points="376,-129 240,-129 240,-110 376,-110 376,-129"/>
<text text-anchor="middle" x="308" y="-117" font-family="Helvetica,sans-Serif" font-size="10.00">AH/Math/MinMaxFix.hpp</text>
</a>
</g>
</g>
<!-- Node3&#45;&gt;Node4 -->
<g id="edge3_Node000003_Node000004" class="edge">
<title>Node3&#45;&gt;Node4</title>
<g id="a_edge3_Node000003_Node000004"><a xlink:title=" ">
<path fill="none" stroke="#63b8ff" d="M300.49,-164.75C301.67,-157.8 303.36,-147.85 304.84,-139.13"/>
<polygon fill="#63b8ff" stroke="#63b8ff" points="308.32,-139.53 306.54,-129.09 301.42,-138.36 308.32,-139.53"/>
</a>
</g>
</g>
<!-- Node7 -->
<g id="Node000007" class="node">
<title>Node7</title>
<g id="a_Node000007"><a xlink:title=" ">
<polygon fill="#e0e0e0" stroke="#999999" points="300.5,-19 237.5,-19 237.5,0 300.5,0 300.5,-19"/>
<text text-anchor="middle" x="269" y="-7" font-family="Helvetica,sans-Serif" font-size="10.00">Arduino.h</text>
</a>
</g>
</g>
<!-- Node3&#45;&gt;Node7 -->
<g id="edge10_Node000003_Node000007" class="edge">
<title>Node3&#45;&gt;Node7</title>
<g id="a_edge10_Node000003_Node000007"><a xlink:title=" ">
<path fill="none" stroke="#63b8ff" d="M275.22,-164.92C259.57,-157.89 240.33,-146.25 231,-129 215.36,-100.07 219.62,-85.86 231,-55 235.06,-43.99 243.19,-33.86 250.9,-26.05"/>
<polygon fill="#63b8ff" stroke="#63b8ff" points="253.42,-28.48 258.29,-19.07 248.61,-23.39 253.42,-28.48"/>
</a>
</g>
</g>
<!-- Node9 -->
<g id="Node000009" class="node">
<title>Node9</title>
<g id="a_Node000009"><a xlink:title=" ">
<polygon fill="#e0e0e0" stroke="#999999" points="501.5,-129 394.5,-129 394.5,-110 501.5,-110 501.5,-129"/>
<text text-anchor="middle" x="448" y="-117" font-family="Helvetica,sans-Serif" font-size="10.00">AH/STL/type_traits</text>
</a>
</g>
</g>
<!-- Node3&#45;&gt;Node9 -->
<g id="edge9_Node000003_Node000009" class="edge">
<title>Node3&#45;&gt;Node9</title>
<g id="a_edge9_Node000003_Node000009"><a xlink:title=" ">
<path fill="none" stroke="#63b8ff" d="M322.94,-164.98C347.56,-156.23 386.12,-142.51 413.92,-132.62"/>
<polygon fill="#63b8ff" stroke="#63b8ff" points="415.38,-135.82 423.62,-129.17 413.03,-129.22 415.38,-135.82"/>
</a>
</g>
</g>
<!-- Node4&#45;&gt;Node5 -->
<g id="edge4_Node000004_Node000005" class="edge">
<title>Node4&#45;&gt;Node5</title>
<g id="a_edge4_Node000004_Node000005"><a xlink:title=" ">
<path fill="none" stroke="#63b8ff" d="M330.7,-109.93C368.53,-96.02 447.12,-68.71 516,-55 646.37,-29.05 800.69,-18.04 893.07,-13.51"/>
<polygon fill="#63b8ff" stroke="#63b8ff" points="893.37,-17 903.19,-13.03 893.04,-10.01 893.37,-17"/>
</a>
</g>
</g>
<!-- Node6 -->
<g id="Node000006" class="node">
<title>Node6</title>
<g id="a_Node000006"><a xlink:href="../../d6/d3b/FixArduinoMacros_8hpp.html" target="_top" xlink:title=" ">
<polygon fill="white" stroke="#666666" points="410,-74 240,-74 240,-55 410,-55 410,-74"/>
<text text-anchor="middle" x="325" y="-62" font-family="Helvetica,sans-Serif" font-size="10.00">AH/Math/FixArduinoMacros.hpp</text>
</a>
</g>
</g>
<!-- Node4&#45;&gt;Node6 -->
<g id="edge5_Node000004_Node000006" class="edge">
<title>Node4&#45;&gt;Node6</title>
<g id="a_edge5_Node000004_Node000006"><a xlink:title=" ">
<path fill="none" stroke="#63b8ff" d="M310.81,-109.75C313.06,-102.72 316.3,-92.62 319.12,-83.84"/>
<polygon fill="#63b8ff" stroke="#63b8ff" points="322.52,-84.68 322.25,-74.09 315.86,-82.54 322.52,-84.68"/>
</a>
</g>
</g>
<!-- Node8 -->
<g id="Node000008" class="node">
<title>Node8</title>
<g id="a_Node000008"><a xlink:href="../../d6/db0/AH_2Settings_2NamespaceSettings_8hpp.html" target="_top" xlink:title=" ">
<polygon fill="white" stroke="#666666" points="752.5,-74 557.5,-74 557.5,-55 752.5,-55 752.5,-74"/>
<text text-anchor="middle" x="655" y="-62" font-family="Helvetica,sans-Serif" font-size="10.00">AH/Settings/NamespaceSettings.hpp</text>
</a>
</g>
</g>
<!-- Node4&#45;&gt;Node8 -->
<g id="edge8_Node000004_Node000008" class="edge">
<title>Node4&#45;&gt;Node8</title>
<g id="a_edge8_Node000004_Node000008"><a xlink:title=" ">
<path fill="none" stroke="#63b8ff" d="M363.75,-109.98C425.13,-100.61 523.72,-85.55 588.93,-75.59"/>
<polygon fill="#63b8ff" stroke="#63b8ff" points="589.74,-79.01 599.1,-74.04 588.69,-72.09 589.74,-79.01"/>
</a>
</g>
</g>
<!-- Node6&#45;&gt;Node5 -->
<g id="edge6_Node000006_Node000005" class="edge">
<title>Node6&#45;&gt;Node5</title>
<g id="a_edge6_Node000006_Node000005"><a xlink:title=" ">
<path fill="none" stroke="#63b8ff" d="M410.31,-56.54C535.94,-46.3 769.16,-27.28 892.91,-17.19"/>
<polygon fill="#63b8ff" stroke="#63b8ff" points="893.41,-20.66 903.09,-16.36 892.84,-13.69 893.41,-20.66"/>
</a>
</g>
</g>
<!-- Node6&#45;&gt;Node7 -->
<g id="edge7_Node000006_Node000007" class="edge">
<title>Node6&#45;&gt;Node7</title>
<g id="a_edge7_Node000006_Node000007"><a xlink:title=" ">
<path fill="none" stroke="#63b8ff" d="M316,-54.98C307.81,-47.23 295.49,-35.58 285.53,-26.14"/>
<polygon fill="#63b8ff" stroke="#63b8ff" points="287.83,-23.5 278.16,-19.17 283.02,-28.59 287.83,-23.5"/>
</a>
</g>
</g>
<!-- Node10&#45;&gt;Node3 -->
<g id="edge14_Node000010_Node000003" class="edge">
<title>Node10&#45;&gt;Node3</title>
<g id="a_edge14_Node000010_Node000003"><a xlink:title=" ">
<path fill="none" stroke="#63b8ff" d="M515.15,-329.76C506.63,-321.11 493.66,-307.27 484,-294 461.61,-263.25 470.72,-243.74 441,-220 420.24,-203.42 393.24,-192.97 368.37,-186.42"/>
<polygon fill="#63b8ff" stroke="#63b8ff" points="369.14,-183 358.59,-184.01 367.47,-189.8 369.14,-183"/>
</a>
</g>
</g>
<!-- Node10&#45;&gt;Node5 -->
<g id="edge13_Node000010_Node000005" class="edge">
<title>Node10&#45;&gt;Node5</title>
<g id="a_edge13_Node000010_Node000005"><a xlink:title=" ">
<path fill="none" stroke="#63b8ff" d="M523.36,-329.94C520.36,-286.89 509.34,-94.65 549,-55 572.82,-31.18 776.39,-18.78 893.28,-13.58"/>
<polygon fill="#63b8ff" stroke="#63b8ff" points="893.44,-17.07 903.28,-13.14 893.13,-10.08 893.44,-17.07"/>
</a>
</g>
</g>
<!-- Node10&#45;&gt;Node8 -->
<g id="edge12_Node000010_Node000008" class="edge">
<title>Node10&#45;&gt;Node8</title>
<g id="a_edge12_Node000010_Node000008"><a xlink:title=" ">
<path fill="none" stroke="#63b8ff" d="M524.96,-329.81C528.87,-297.81 545.88,-184.48 598,-110 606.52,-97.83 619.35,-87.4 630.67,-79.7"/>
<polygon fill="#63b8ff" stroke="#63b8ff" points="632.81,-82.49 639.33,-74.13 629.02,-76.6 632.81,-82.49"/>
</a>
</g>
</g>
<!-- Node10&#45;&gt;Node11 -->
<g id="edge15_Node000010_Node000011" class="edge">
<title>Node10&#45;&gt;Node11</title>
<g id="a_edge15_Node000010_Node000011"><a xlink:title=" ">
<path fill="none" stroke="#63b8ff" d="M468.41,-329.98C407.21,-320.61 308.9,-305.55 243.88,-295.59"/>
<polygon fill="#63b8ff" stroke="#63b8ff" points="244.15,-292.09 233.74,-294.04 243.09,-299.01 244.15,-292.09"/>
</a>
</g>
</g>
<!-- Node14&#45;&gt;Node3 -->
<g id="edge21_Node000014_Node000003" class="edge">
<title>Node14&#45;&gt;Node3</title>
<g id="a_edge21_Node000014_Node000003"><a xlink:title=" ">
<path fill="none" stroke="#63b8ff" d="M151.28,-494.89C107.88,-481.55 38,-451.39 38,-395.5 38,-395.5 38,-395.5 38,-283.5 38,-201.49 149.39,-180.54 226.63,-175.87"/>
<polygon fill="#63b8ff" stroke="#63b8ff" points="227.01,-179.35 236.82,-175.33 226.65,-172.36 227.01,-179.35"/>
</a>
</g>
</g>
<!-- Node14&#45;&gt;Node11 -->
<g id="edge22_Node000014_Node000011" class="edge">
<title>Node14&#45;&gt;Node11</title>
<g id="a_edge22_Node000014_Node000011"><a xlink:title=" ">
<path fill="none" stroke="#63b8ff" d="M184.73,-494.95C183.7,-462.95 180.06,-349.68 178.61,-304.4"/>
<polygon fill="#63b8ff" stroke="#63b8ff" points="182.1,-304.11 178.28,-294.22 175.1,-304.33 182.1,-304.11"/>
</a>
</g>
</g>
<!-- Node15&#45;&gt;Node3 -->
<g id="edge24_Node000015_Node000003" class="edge">
<title>Node15&#45;&gt;Node3</title>
<g id="a_edge24_Node000015_Node000003"><a xlink:title=" ">
<path fill="none" stroke="#63b8ff" d="M257.73,-384.99C261.22,-367.8 269.34,-327.71 276,-294 282.98,-258.66 290.96,-217.36 295.44,-194.03"/>
<polygon fill="#63b8ff" stroke="#63b8ff" points="298.9,-194.61 297.35,-184.13 292.02,-193.29 298.9,-194.61"/>
</a>
</g>
</g>
<!-- Node15&#45;&gt;Node11 -->
<g id="edge25_Node000015_Node000011" class="edge">
<title>Node15&#45;&gt;Node11</title>
<g id="a_edge25_Node000015_Node000011"><a xlink:title=" ">
<path fill="none" stroke="#63b8ff" d="M249.62,-384.66C236.64,-366.69 206.99,-325.64 190.19,-302.38"/>
<polygon fill="#63b8ff" stroke="#63b8ff" points="192.95,-300.22 184.25,-294.16 187.27,-304.31 192.95,-300.22"/>
</a>
</g>
</g>
<!-- Node17 -->
<g id="Node000017" class="node">
<title>Node17</title>
<g id="a_Node000017"><a xlink:href="../../d0/d4e/Def_8hpp.html" target="_top" xlink:title=" ">
<polygon fill="white" stroke="#666666" points="547,-635 473,-635 473,-616 547,-616 547,-635"/>
<text text-anchor="middle" x="510" y="-623" font-family="Helvetica,sans-Serif" font-size="10.00">Def/Def.hpp</text>
</a>
</g>
</g>
<!-- Node16&#45;&gt;Node17 -->
<g id="edge27_Node000016_Node000017" class="edge">
<title>Node16&#45;&gt;Node17</title>
<g id="a_edge27_Node000016_Node000017"><a xlink:title=" ">
<path fill="none" stroke="#63b8ff" d="M525.03,-670.75C522.64,-663.72 519.21,-653.62 516.23,-644.84"/>
<polygon fill="#63b8ff" stroke="#63b8ff" points="519.45,-643.43 512.92,-635.09 512.82,-645.68 519.45,-643.43"/>
</a>
</g>
</g>
<!-- Node17&#45;&gt;Node11 -->
<g id="edge62_Node000017_Node000011" class="edge">
<title>Node17&#45;&gt;Node11</title>
<g id="a_edge62_Node000017_Node000011"><a xlink:title=" ">
<path fill="none" stroke="#63b8ff" d="M472.97,-618.07C448.14,-612.03 416.22,-600.71 395,-580 327.83,-514.46 372.01,-458.77 314,-385 283.65,-346.4 234.64,-315.65 204.48,-299.04"/>
<polygon fill="#63b8ff" stroke="#63b8ff" points="205.86,-295.81 195.4,-294.16 202.55,-301.98 205.86,-295.81"/>
</a>
</g>
</g>
<!-- Node17&#45;&gt;Node14 -->
<g id="edge28_Node000017_Node000014" class="edge">
<title>Node17&#45;&gt;Node14</title>
<g id="a_edge28_Node000017_Node000014"><a xlink:title=" ">
<path fill="none" stroke="#63b8ff" d="M472.83,-619C433.67,-612.48 370.62,-599.91 319,-580 276.98,-563.79 231.96,-536.46 206.27,-519.79"/>
<polygon fill="#63b8ff" stroke="#63b8ff" points="208,-516.74 197.72,-514.17 204.15,-522.59 208,-516.74"/>
</a>
</g>
</g>
<!-- Node17&#45;&gt;Node15 -->
<g id="edge29_Node000017_Node000015" class="edge">
<title>Node17&#45;&gt;Node15</title>
<g id="a_edge29_Node000017_Node000015"><a xlink:title=" ">
<path fill="none" stroke="#63b8ff" d="M472.96,-621.72C439.47,-617.49 390.44,-606.84 357,-580 328.26,-556.92 282.03,-455.5 263.78,-413.65"/>
<polygon fill="#63b8ff" stroke="#63b8ff" points="266.95,-412.17 259.77,-404.38 260.52,-414.95 266.95,-412.17"/>
</a>
</g>
</g>
<!-- Node18 -->
<g id="Node000018" class="node">
<title>Node18</title>
<g id="a_Node000018"><a xlink:href="../../de/d76/Array_8hpp.html" target="_top" xlink:title=" ">
<polygon fill="white" stroke="#666666" points="963.5,-514 828.5,-514 828.5,-495 963.5,-495 963.5,-514"/>
<text text-anchor="middle" x="896" y="-502" font-family="Helvetica,sans-Serif" font-size="10.00">AH/Containers/Array.hpp</text>
</a>
</g>
</g>
<!-- Node17&#45;&gt;Node18 -->
<g id="edge30_Node000017_Node000018" class="edge">
<title>Node17&#45;&gt;Node18</title>
<g id="a_edge30_Node000017_Node000018"><a xlink:title=" ">
<path fill="none" stroke="#63b8ff" d="M547.36,-618.36C588.65,-611.12 656.89,-597.77 714,-580 770.47,-562.43 833.84,-534.53 868.93,-518.32"/>
<polygon fill="#63b8ff" stroke="#63b8ff" points="870.45,-521.47 878.04,-514.08 867.5,-515.13 870.45,-521.47"/>
</a>
</g>
</g>
<!-- Node26 -->
<g id="Node000026" class="node">
<title>Node26</title>
<g id="a_Node000026"><a xlink:title=" ">
<polygon fill="#e0e0e0" stroke="#999999" points="1173,-239 1117,-239 1117,-220 1173,-220 1173,-239"/>
<text text-anchor="middle" x="1145" y="-227" font-family="Helvetica,sans-Serif" font-size="10.00">stddef.h</text>
</a>
</g>
</g>
<!-- Node17&#45;&gt;Node26 -->
<g id="edge63_Node000017_Node000026" class="edge">
<title>Node17&#45;&gt;Node26</title>
<g id="a_edge63_Node000017_Node000026"><a xlink:title=" ">
<path fill="none" stroke="#63b8ff" d="M547.09,-621.73C685.65,-610.88 1165,-568.78 1165,-505.5 1165,-505.5 1165,-505.5 1165,-338.5 1165,-306.51 1156.41,-270.07 1150.49,-248.75"/>
<polygon fill="#63b8ff" stroke="#63b8ff" points="1153.84,-247.71 1147.7,-239.08 1147.11,-249.66 1153.84,-247.71"/>
</a>
</g>
</g>
<!-- Node27 -->
<g id="Node000027" class="node">
<title>Node27</title>
<g id="a_Node000027"><a xlink:title=" ">
<polygon fill="#e0e0e0" stroke="#999999" points="431.5,-239 378.5,-239 378.5,-220 431.5,-220 431.5,-239"/>
<text text-anchor="middle" x="405" y="-227" font-family="Helvetica,sans-Serif" font-size="10.00">stdint.h</text>
</a>
</g>
</g>
<!-- Node17&#45;&gt;Node27 -->
<g id="edge64_Node000017_Node000027" class="edge">
<title>Node17&#45;&gt;Node27</title>
<g id="a_edge64_Node000017_Node000027"><a xlink:title=" ">
<path fill="none" stroke="#63b8ff" d="M495.84,-615.71C484.34,-607.8 468.66,-595.13 460,-580 395.87,-468.02 399.95,-304.46 403.48,-249.39"/>
<polygon fill="#63b8ff" stroke="#63b8ff" points="407,-249.31 404.22,-239.08 400.02,-248.81 407,-249.31"/>
</a>
</g>
</g>
<!-- Node31 -->
<g id="Node000031" class="node">
<title>Node31</title>
<g id="a_Node000031"><a xlink:href="../../d4/d35/Hardware-Types_8hpp.html" target="_top" xlink:title=" ">
<polygon fill="white" stroke="#666666" points="704.5,-580 573.5,-580 573.5,-550 704.5,-550 704.5,-580"/>
<text text-anchor="start" x="581.5" y="-568" font-family="Helvetica,sans-Serif" font-size="10.00">AH/Hardware/Hardware</text>
<text text-anchor="middle" x="639" y="-557" font-family="Helvetica,sans-Serif" font-size="10.00">&#45;Types.hpp</text>
</a>
</g>
</g>
<!-- Node17&#45;&gt;Node31 -->
<g id="edge56_Node000017_Node000031" class="edge">
<title>Node17&#45;&gt;Node31</title>
<g id="a_edge56_Node000017_Node000031"><a xlink:title=" ">
<path fill="none" stroke="#63b8ff" d="M528.76,-615.99C546.94,-607.75 575.1,-594.98 598.42,-584.4"/>
<polygon fill="#63b8ff" stroke="#63b8ff" points="600.07,-587.5 607.74,-580.18 597.18,-581.12 600.07,-587.5"/>
</a>
</g>
</g>
<!-- Node32 -->
<g id="Node000032" class="node">
<title>Node32</title>
<g id="a_Node000032"><a xlink:title=" ">
<polygon fill="#e0e0e0" stroke="#999999" points="551,-574.5 469,-574.5 469,-555.5 551,-555.5 551,-574.5"/>
<text text-anchor="middle" x="510" y="-562.5" font-family="Helvetica,sans-Serif" font-size="10.00">AH/STL/limits</text>
</a>
</g>
</g>
<!-- Node17&#45;&gt;Node32 -->
<g id="edge61_Node000017_Node000032" class="edge">
<title>Node17&#45;&gt;Node32</title>
<g id="a_edge61_Node000017_Node000032"><a xlink:title=" ">
<path fill="none" stroke="#63b8ff" d="M510,-615.87C510,-607.75 510,-595.31 510,-584.89"/>
<polygon fill="#63b8ff" stroke="#63b8ff" points="513.5,-584.67 510,-574.67 506.5,-584.67 513.5,-584.67"/>
</a>
</g>
</g>
<!-- Node18&#45;&gt;Node5 -->
<g id="edge31_Node000018_Node000005" class="edge">
<title>Node18&#45;&gt;Node5</title>
<g id="a_edge31_Node000018_Node000005"><a xlink:title=" ">
<path fill="none" stroke="#63b8ff" d="M963.73,-497.42C1008.44,-491.59 1067.5,-480.37 1116,-459 1159.81,-439.7 1203,-443.37 1203,-395.5 1203,-395.5 1203,-395.5 1203,-118.5 1203,-51.63 1121.92,-26.11 1056.46,-16.4"/>
<polygon fill="#63b8ff" stroke="#63b8ff" points="1056.9,-12.93 1046.52,-15.03 1055.94,-19.86 1056.9,-12.93"/>
</a>
</g>
</g>
<!-- Node18&#45;&gt;Node9 -->
<g id="edge54_Node000018_Node000009" class="edge">
<title>Node18&#45;&gt;Node9</title>
<g id="a_edge54_Node000018_Node000009"><a xlink:title=" ">
<path fill="none" stroke="#63b8ff" d="M883.74,-494.77C871.35,-485.9 851.7,-471.69 835,-459 772.28,-411.33 755.9,-400.17 696,-349 605.82,-271.96 503.06,-173.75 464.1,-136.13"/>
<polygon fill="#63b8ff" stroke="#63b8ff" points="466.41,-133.49 456.79,-129.05 461.54,-138.52 466.41,-133.49"/>
</a>
</g>
</g>
<!-- Node19 -->
<g id="Node000019" class="node">
<title>Node19</title>
<g id="a_Node000019"><a xlink:href="../../d1/d93/Error_8hpp.html" target="_top" xlink:title=" ">
<polygon fill="white" stroke="#666666" points="948,-459 844,-459 844,-440 948,-440 948,-459"/>
<text text-anchor="middle" x="896" y="-447" font-family="Helvetica,sans-Serif" font-size="10.00">AH/Error/Error.hpp</text>
</a>
</g>
</g>
<!-- Node18&#45;&gt;Node19 -->
<g id="edge32_Node000018_Node000019" class="edge">
<title>Node18&#45;&gt;Node19</title>
<g id="a_edge32_Node000018_Node000019"><a xlink:title=" ">
<path fill="none" stroke="#63b8ff" d="M896,-494.75C896,-487.8 896,-477.85 896,-469.13"/>
<polygon fill="#63b8ff" stroke="#63b8ff" points="899.5,-469.09 896,-459.09 892.5,-469.09 899.5,-469.09"/>
</a>
</g>
</g>
<!-- Node18&#45;&gt;Node26 -->
<g id="edge55_Node000018_Node000026" class="edge">
<title>Node18&#45;&gt;Node26</title>
<g id="a_edge55_Node000018_Node000026"><a xlink:title=" ">
<path fill="none" stroke="#63b8ff" d="M963.75,-499.85C1031.91,-492.08 1127,-468.21 1127,-395.5 1127,-395.5 1127,-395.5 1127,-338.5 1127,-306.61 1134.73,-270.14 1140.06,-248.78"/>
<polygon fill="#63b8ff" stroke="#63b8ff" points="1143.45,-249.66 1142.57,-239.1 1136.67,-247.9 1143.45,-249.66"/>
</a>
</g>
</g>
<!-- Node30 -->
<g id="Node000030" class="node">
<title>Node30</title>
<g id="a_Node000030"><a xlink:title=" ">
<polygon fill="#e0e0e0" stroke="#999999" points="1056,-459 966,-459 966,-440 1056,-440 1056,-459"/>
<text text-anchor="middle" x="1011" y="-447" font-family="Helvetica,sans-Serif" font-size="10.00">AH/STL/iterator</text>
</a>
</g>
</g>
<!-- Node18&#45;&gt;Node30 -->
<g id="edge53_Node000018_Node000030" class="edge">
<title>Node18&#45;&gt;Node30</title>
<g id="a_edge53_Node000018_Node000030"><a xlink:title=" ">
<path fill="none" stroke="#63b8ff" d="M914.48,-494.98C932.98,-486.46 961.68,-473.23 982.98,-463.41"/>
<polygon fill="#63b8ff" stroke="#63b8ff" points="984.57,-466.53 992.19,-459.17 981.64,-460.18 984.57,-466.53"/>
</a>
</g>
</g>
<!-- Node19&#45;&gt;Node5 -->
<g id="edge33_Node000019_Node000005" class="edge">
<title>Node19&#45;&gt;Node5</title>
<g id="a_edge33_Node000019_Node000005"><a xlink:title=" ">
<path fill="none" stroke="#63b8ff" d="M941.16,-439.97C968.96,-433.27 1004.43,-421.98 1032,-404 1063.77,-383.29 1089,-378.42 1089,-340.5 1089,-340.5 1089,-340.5 1089,-118.5 1089,-88.33 1085.27,-77.35 1065,-55 1051.57,-40.18 1032.09,-29.71 1014.69,-22.66"/>
<polygon fill="#63b8ff" stroke="#63b8ff" points="1015.88,-19.37 1005.29,-19.09 1013.4,-25.91 1015.88,-19.37"/>
</a>
</g>
</g>
<!-- Node20 -->
<g id="Node000020" class="node">
<title>Node20</title>
<g id="a_Node000020"><a xlink:href="../../df/dee/Debug_8hpp.html" target="_top" xlink:title=" ">
<polygon fill="white" stroke="#666666" points="956.5,-404 835.5,-404 835.5,-385 956.5,-385 956.5,-404"/>
<text text-anchor="middle" x="896" y="-392" font-family="Helvetica,sans-Serif" font-size="10.00">AH/Debug/Debug.hpp</text>
</a>
</g>
</g>
<!-- Node19&#45;&gt;Node20 -->
<g id="edge34_Node000019_Node000020" class="edge">
<title>Node19&#45;&gt;Node20</title>
<g id="a_edge34_Node000019_Node000020"><a xlink:title=" ">
<path fill="none" stroke="#63b8ff" d="M896,-439.75C896,-432.8 896,-422.85 896,-414.13"/>
<polygon fill="#63b8ff" stroke="#63b8ff" points="899.5,-414.09 896,-404.09 892.5,-414.09 899.5,-414.09"/>
</a>
</g>
</g>
<!-- Node20&#45;&gt;Node5 -->
<g id="edge35_Node000020_Node000005" class="edge">
<title>Node20&#45;&gt;Node5</title>
<g id="a_edge35_Node000020_Node000005"><a xlink:title=" ">
<path fill="none" stroke="#63b8ff" d="M932.72,-384.92C953.39,-378.32 978.15,-367.16 994,-349 1013.37,-326.81 1013,-314.96 1013,-285.5 1013,-285.5 1013,-285.5 1013,-118.5 1013,-85.02 996.55,-48.84 985.3,-28.01"/>
<polygon fill="#63b8ff" stroke="#63b8ff" points="988.24,-26.1 980.28,-19.1 982.13,-29.53 988.24,-26.1"/>
</a>
</g>
</g>
<!-- Node20&#45;&gt;Node10 -->
<g id="edge36_Node000020_Node000010" class="edge">
<title>Node20&#45;&gt;Node10</title>
<g id="a_edge36_Node000020_Node000010"><a xlink:title=" ">
<path fill="none" stroke="#63b8ff" d="M836.23,-384.98C770.16,-375.57 663.87,-360.43 593.97,-350.47"/>
<polygon fill="#63b8ff" stroke="#63b8ff" points="594.32,-346.98 583.93,-349.04 593.33,-353.91 594.32,-346.98"/>
</a>
</g>
</g>
<!-- Node21 -->
<g id="Node000021" class="node">
<title>Node21</title>
<g id="a_Node000021"><a xlink:href="../../de/dd1/AH_2Settings_2SettingsWrapper_8hpp.html" target="_top" xlink:title=" ">
<polygon fill="white" stroke="#666666" points="985,-349 807,-349 807,-330 985,-330 985,-349"/>
<text text-anchor="middle" x="896" y="-337" font-family="Helvetica,sans-Serif" font-size="10.00">AH/Settings/SettingsWrapper.hpp</text>
</a>
</g>
</g>
<!-- Node20&#45;&gt;Node21 -->
<g id="edge37_Node000020_Node000021" class="edge">
<title>Node20&#45;&gt;Node21</title>
<g id="a_edge37_Node000020_Node000021"><a xlink:title=" ">
<path fill="none" stroke="#63b8ff" d="M890.83,-384.75C889.34,-377.8 888.9,-367.85 889.52,-359.13"/>
<polygon fill="#63b8ff" stroke="#63b8ff" points="893.01,-359.47 890.87,-349.09 886.07,-358.53 893.01,-359.47"/>
</a>
</g>
</g>
<!-- Node29 -->
<g id="Node000029" class="node">
<title>Node29</title>
<g id="a_Node000029"><a xlink:href="../../d7/d52/DebugVal_8hpp.html" target="_top" xlink:title=" ">
<polygon fill="white" stroke="#666666" points="789,-349 705,-349 705,-330 789,-330 789,-349"/>
<text text-anchor="middle" x="747" y="-337" font-family="Helvetica,sans-Serif" font-size="10.00">DebugVal.hpp</text>
</a>
</g>
</g>
<!-- Node20&#45;&gt;Node29 -->
<g id="edge52_Node000020_Node000029" class="edge">
<title>Node20&#45;&gt;Node29</title>
<g id="a_edge52_Node000020_Node000029"><a xlink:title=" ">
<path fill="none" stroke="#63b8ff" d="M872.06,-384.98C847.44,-376.23 808.88,-362.51 781.08,-352.62"/>
<polygon fill="#63b8ff" stroke="#63b8ff" points="781.97,-349.22 771.38,-349.17 779.62,-355.82 781.97,-349.22"/>
</a>
</g>
</g>
<!-- Node21&#45;&gt;Node5 -->
<g id="edge38_Node000021_Node000005" class="edge">
<title>Node21&#45;&gt;Node5</title>
<g id="a_edge38_Node000021_Node000005"><a xlink:title=" ">
<path fill="none" stroke="#63b8ff" d="M912.87,-329.97C926.4,-322.3 944.9,-309.82 956,-294 972.92,-269.88 975,-259.96 975,-230.5 975,-230.5 975,-230.5 975,-118.5 975,-87.19 975,-50.77 975,-29.23"/>
<polygon fill="#63b8ff" stroke="#63b8ff" points="978.5,-29.18 975,-19.18 971.5,-29.18 978.5,-29.18"/>
</a>
</g>
</g>
<!-- Node21&#45;&gt;Node8 -->
<g id="edge39_Node000021_Node000008" class="edge">
<title>Node21&#45;&gt;Node8</title>
<g id="a_edge39_Node000021_Node000008"><a xlink:title=" ">
<path fill="none" stroke="#63b8ff" d="M806.94,-330.29C752.78,-323.56 690.26,-312.13 670,-294 647.95,-274.27 650,-260.09 650,-230.5 650,-230.5 650,-230.5 650,-173.5 650,-142.16 652.13,-105.75 653.61,-84.22"/>
<polygon fill="#63b8ff" stroke="#63b8ff" points="657.1,-84.4 654.33,-74.17 650.12,-83.9 657.1,-84.4"/>
</a>
</g>
</g>
<!-- Node21&#45;&gt;Node20 -->
<g id="edge51_Node000021_Node000020" class="edge">
<title>Node21&#45;&gt;Node20</title>
<g id="a_edge51_Node000021_Node000020"><a xlink:title=" ">
<path fill="none" stroke="#63b8ff" d="M901.13,-349.09C902.64,-355.99 903.09,-365.93 902.49,-374.66"/>
<polygon fill="#63b8ff" stroke="#63b8ff" points="899,-374.38 901.17,-384.75 905.94,-375.29 899,-374.38"/>
</a>
</g>
</g>
<!-- Node22 -->
<g id="Node000022" class="node">
<title>Node22</title>
<g id="a_Node000022"><a xlink:href="../../d5/d4f/AH_2Settings_2Settings_8hpp.html" target="_top" xlink:title="All user settings and debugging options can be changed here.">
<polygon fill="white" stroke="#666666" points="755.5,-294 678.5,-294 678.5,-275 755.5,-275 755.5,-294"/>
<text text-anchor="middle" x="717" y="-282" font-family="Helvetica,sans-Serif" font-size="10.00">Settings.hpp</text>
</a>
</g>
</g>
<!-- Node21&#45;&gt;Node22 -->
<g id="edge40_Node000021_Node000022" class="edge">
<title>Node21&#45;&gt;Node22</title>
<g id="a_edge40_Node000021_Node000022"><a xlink:title=" ">
<path fill="none" stroke="#63b8ff" d="M867.24,-329.98C837.06,-321.05 789.43,-306.94 755.9,-297.02"/>
<polygon fill="#63b8ff" stroke="#63b8ff" points="756.57,-293.57 745.98,-294.08 754.58,-300.28 756.57,-293.57"/>
</a>
</g>
</g>
<!-- Node28 -->
<g id="Node000028" class="node">
<title>Node28</title>
<g id="a_Node000028"><a xlink:href="../../d9/d98/TeensyUSBTypes_8hpp.html" target="_top" xlink:title=" ">
<polygon fill="white" stroke="#666666" points="946.5,-294 773.5,-294 773.5,-275 946.5,-275 946.5,-294"/>
<text text-anchor="middle" x="860" y="-282" font-family="Helvetica,sans-Serif" font-size="10.00">AH/Teensy/TeensyUSBTypes.hpp</text>
</a>
</g>
</g>
<!-- Node21&#45;&gt;Node28 -->
<g id="edge50_Node000021_Node000028" class="edge">
<title>Node21&#45;&gt;Node28</title>
<g id="a_edge50_Node000021_Node000028"><a xlink:title=" ">
<path fill="none" stroke="#63b8ff" d="M890.06,-329.75C885.02,-322.34 877.66,-311.5 871.49,-302.41"/>
<polygon fill="#63b8ff" stroke="#63b8ff" points="874.35,-300.39 865.83,-294.09 868.56,-304.33 874.35,-300.39"/>
</a>
</g>
</g>
<!-- Node23 -->
<g id="Node000023" class="node">
<title>Node23</title>
<g id="a_Node000023"><a xlink:href="../../dc/d50/Frequency_8hpp.html" target="_top" xlink:title=" ">
<polygon fill="white" stroke="#666666" points="869,-129 735,-129 735,-110 869,-110 869,-129"/>
<text text-anchor="middle" x="802" y="-117" font-family="Helvetica,sans-Serif" font-size="10.00">AH/Types/Frequency.hpp</text>
</a>
</g>
</g>
<!-- Node22&#45;&gt;Node23 -->
<g id="edge41_Node000022_Node000023" class="edge">
<title>Node22&#45;&gt;Node23</title>
<g id="a_edge41_Node000022_Node000023"><a xlink:title=" ">
<path fill="none" stroke="#63b8ff" d="M755.54,-276.16C811.97,-265.23 910.95,-245.3 916,-239 949.01,-197.8 874.84,-154.28 831.11,-133.3"/>
<polygon fill="#63b8ff" stroke="#63b8ff" points="832.57,-130.12 822.03,-129.06 829.61,-136.46 832.57,-130.12"/>
</a>
</g>
</g>
<!-- Node24 -->
<g id="Node000024" class="node">
<title>Node24</title>
<g id="a_Node000024"><a xlink:href="../../d7/d7c/ADCConfig_8hpp.html" target="_top" xlink:title="This file contains the platform&#45;specific ADC resolutions.">
<polygon fill="white" stroke="#666666" points="835.5,-239 678.5,-239 678.5,-220 835.5,-220 835.5,-239"/>
<text text-anchor="middle" x="757" y="-227" font-family="Helvetica,sans-Serif" font-size="10.00">AH/Hardware/ADCConfig.hpp</text>
</a>
</g>
</g>
<!-- Node22&#45;&gt;Node24 -->
<g id="edge44_Node000022_Node000024" class="edge">
<title>Node22&#45;&gt;Node24</title>
<g id="a_edge44_Node000022_Node000024"><a xlink:title=" ">
<path fill="none" stroke="#63b8ff" d="M723.61,-274.75C729.26,-267.26 737.54,-256.28 744.45,-247.13"/>
<polygon fill="#63b8ff" stroke="#63b8ff" points="747.29,-249.18 750.52,-239.09 741.7,-244.96 747.29,-249.18"/>
</a>
</g>
</g>
<!-- Node25 -->
<g id="Node000025" class="node">
<title>Node25</title>
<g id="a_Node000025"><a xlink:title=" ">
<polygon fill="#e0e0e0" stroke="#999999" points="906.5,-239 853.5,-239 853.5,-220 906.5,-220 906.5,-239"/>
<text text-anchor="middle" x="880" y="-227" font-family="Helvetica,sans-Serif" font-size="10.00">limits.h</text>
</a>
</g>
</g>
<!-- Node22&#45;&gt;Node25 -->
<g id="edge47_Node000022_Node000025" class="edge">
<title>Node22&#45;&gt;Node25</title>
<g id="a_edge47_Node000022_Node000025"><a xlink:title=" ">
<path fill="none" stroke="#63b8ff" d="M743.19,-274.98C770.44,-266.13 813.3,-252.19 843.78,-242.28"/>
<polygon fill="#63b8ff" stroke="#63b8ff" points="845.18,-245.5 853.61,-239.08 843.01,-238.85 845.18,-245.5"/>
</a>
</g>
</g>
<!-- Node22&#45;&gt;Node26 -->
<g id="edge48_Node000022_Node000026" class="edge">
<title>Node22&#45;&gt;Node26</title>
<g id="a_edge48_Node000022_Node000026"><a xlink:title=" ">
<path fill="none" stroke="#63b8ff" d="M755.74,-276.44C758.87,-275.93 761.99,-275.44 765,-275 889.45,-256.71 1037.71,-241.13 1106.46,-234.26"/>
<polygon fill="#63b8ff" stroke="#63b8ff" points="1107.19,-237.7 1116.8,-233.23 1106.5,-230.74 1107.19,-237.7"/>
</a>
</g>
</g>
<!-- Node22&#45;&gt;Node27 -->
<g id="edge49_Node000022_Node000027" class="edge">
<title>Node22&#45;&gt;Node27</title>
<g id="a_edge49_Node000022_Node000027"><a xlink:title=" ">
<path fill="none" stroke="#63b8ff" d="M678.43,-276.95C617.83,-266.65 501.12,-246.83 441.7,-236.73"/>
<polygon fill="#63b8ff" stroke="#63b8ff" points="442.08,-233.25 431.64,-235.03 440.91,-240.15 442.08,-233.25"/>
</a>
</g>
</g>
<!-- Node23&#45;&gt;Node5 -->
<g id="edge42_Node000023_Node000005" class="edge">
<title>Node23&#45;&gt;Node5</title>
<g id="a_edge42_Node000023_Node000005"><a xlink:title=" ">
<path fill="none" stroke="#63b8ff" d="M811.47,-109.96C826.11,-97.05 855.41,-72.21 883,-55 902.78,-42.66 926.49,-31.27 944.88,-23.1"/>
<polygon fill="#63b8ff" stroke="#63b8ff" points="946.47,-26.22 954.23,-19.02 943.67,-19.81 946.47,-26.22"/>
</a>
</g>
</g>
<!-- Node23&#45;&gt;Node8 -->
<g id="edge43_Node000023_Node000008" class="edge">
<title>Node23&#45;&gt;Node8</title>
<g id="a_edge43_Node000023_Node000008"><a xlink:title=" ">
<path fill="none" stroke="#63b8ff" d="M778.38,-109.98C754.1,-101.23 716.05,-87.51 688.63,-77.62"/>
<polygon fill="#63b8ff" stroke="#63b8ff" points="689.64,-74.27 679.05,-74.17 687.27,-80.85 689.64,-74.27"/>
</a>
</g>
</g>
<!-- Node24&#45;&gt;Node3 -->
<g id="edge46_Node000024_Node000003" class="edge">
<title>Node24&#45;&gt;Node3</title>
<g id="a_edge46_Node000024_Node000003"><a xlink:title=" ">
<path fill="none" stroke="#63b8ff" d="M683.41,-219.98C597.52,-210.04 456.39,-193.71 371.13,-183.85"/>
<polygon fill="#63b8ff" stroke="#63b8ff" points="371.35,-180.35 361.01,-182.68 370.54,-187.3 371.35,-180.35"/>
</a>
</g>
</g>
<!-- Node24&#45;&gt;Node5 -->
<g id="edge45_Node000024_Node000005" class="edge">
<title>Node24&#45;&gt;Node5</title>
<g id="a_edge45_Node000024_Node000005"><a xlink:title=" ">
<path fill="none" stroke="#63b8ff" d="M768.99,-219.88C791.5,-203.45 841.12,-165.97 878,-129 911.49,-95.44 945.39,-51.13 962.88,-27.34"/>
<polygon fill="#63b8ff" stroke="#63b8ff" points="965.88,-29.16 968.94,-19.02 960.22,-25.04 965.88,-29.16"/>
</a>
</g>
</g>
<!-- Node31&#45;&gt;Node5 -->
<g id="edge57_Node000031_Node000005" class="edge">
<title>Node31&#45;&gt;Node5</title>
<g id="a_edge57_Node000031_Node000005"><a xlink:title=" ">
<path fill="none" stroke="#63b8ff" d="M657.15,-549.89C690.56,-524.53 764.84,-471.01 835,-440 890.23,-415.59 914.87,-436.11 966,-404 1020.89,-369.53 1051,-350.31 1051,-285.5 1051,-285.5 1051,-285.5 1051,-118.5 1051,-79.47 1017.39,-44.58 994.87,-25.6"/>
<polygon fill="#63b8ff" stroke="#63b8ff" points="996.85,-22.7 986.88,-19.12 992.44,-28.14 996.85,-22.7"/>
</a>
</g>
</g>
<!-- Node31&#45;&gt;Node8 -->
<g id="edge59_Node000031_Node000008" class="edge">
<title>Node31&#45;&gt;Node8</title>
<g id="a_edge59_Node000031_Node000008"><a xlink:title=" ">
<path fill="none" stroke="#63b8ff" d="M639,-549.67C639,-528.14 639,-486.17 639,-450.5 639,-450.5 639,-450.5 639,-393.5 639,-320.07 612,-303.93 612,-230.5 612,-230.5 612,-230.5 612,-173.5 612,-139.53 630.59,-103.53 643.33,-82.87"/>
<polygon fill="#63b8ff" stroke="#63b8ff" points="646.39,-84.58 648.84,-74.27 640.5,-80.8 646.39,-84.58"/>
</a>
</g>
</g>
<!-- Node31&#45;&gt;Node18 -->
<g id="edge58_Node000031_Node000018" class="edge">
<title>Node31&#45;&gt;Node18</title>
<g id="a_edge58_Node000031_Node000018"><a xlink:title=" ">
<path fill="none" stroke="#63b8ff" d="M700.56,-549.99C745.97,-539.65 806.85,-525.79 848.52,-516.31"/>
<polygon fill="#63b8ff" stroke="#63b8ff" points="849.45,-519.69 858.42,-514.05 847.9,-512.86 849.45,-519.69"/>
</a>
</g>
</g>
<!-- Node31&#45;&gt;Node27 -->
<g id="edge60_Node000031_Node000027" class="edge">
<title>Node31&#45;&gt;Node27</title>
<g id="a_edge60_Node000031_Node000027"><a xlink:title=" ">
<path fill="none" stroke="#63b8ff" d="M618.99,-549.95C576.52,-518.99 477.32,-440.31 429,-349 411.88,-316.65 406.95,-273.39 405.54,-249.09"/>
<polygon fill="#63b8ff" stroke="#63b8ff" points="409.04,-248.93 405.11,-239.09 402.05,-249.23 409.04,-248.93"/>
</a>
</g>
</g>
</g>
</svg>
