<?xml version="1.0" encoding="UTF-8" standalone="no"?>
<!DOCTYPE svg PUBLIC "-//W3C//DTD SVG 1.1//EN"
 "http://www.w3.org/Graphics/SVG/1.1/DTD/svg11.dtd">
<!-- Generated by graphviz version 2.43.0 (0)
 -->
<!-- Title: AH Pages: 1 -->
<svg width="348pt" height="479pt"
 viewBox="0.00 0.00 348.00 479.00" xmlns="http://www.w3.org/2000/svg" xmlns:xlink="http://www.w3.org/1999/xlink">
<g id="graph0" class="graph" transform="scale(1 1) rotate(0) translate(4 475)">
<title>AH</title>
<g id="clust1" class="cluster">
<title>clusterdir_68267d1309a1af8e8297ef4c3efbcdba</title>
<g id="a_clust1"><a xlink:href="dir_68267d1309a1af8e8297ef4c3efbcdba.html" target="_top" xlink:title="src">
<polygon fill="#eef0f6" stroke="#404040" stroke-dasharray="5,2" points="8,-8 8,-463 332,-463 332,-8 8,-8"/>
<text text-anchor="middle" x="170" y="-451" font-family="Helvetica,sans-Serif" font-size="10.00">src</text>
</a>
</g>
</g>
<g id="clust2" class="cluster">
<title>clusterdir_15b6432dff6a6d357bf70f8fbf2cdf14</title>
<g id="a_clust2"><a xlink:href="dir_15b6432dff6a6d357bf70f8fbf2cdf14.html" target="_top">
<polygon fill="#eef0f6" stroke="#404040" stroke-width="2" points="16,-16 16,-436 324,-436 324,-16 16,-16"/>
</a>
</g>
</g>
<!-- dir_15b6432dff6a6d357bf70f8fbf2cdf14 -->
<g id="node1" class="node">
<title>dir_15b6432dff6a6d357bf70f8fbf2cdf14</title>
<text text-anchor="middle" x="109" y="-416" font-family="Helvetica,sans-Serif" font-size="10.00">AH</text>
</g>
<!-- dir_17c5e84722ec43f18e2d8633178d0f79 -->
<g id="node7" class="node">
<title>dir_17c5e84722ec43f18e2d8633178d0f79</title>
<g id="a_node7"><a xlink:href="dir_17c5e84722ec43f18e2d8633178d0f79.html" target="_top" xlink:title="Math">
<polygon fill="#a7b5d1" stroke="#404040" points="129.5,-373 88.5,-373 88.5,-354 129.5,-354 129.5,-373"/>
<text text-anchor="middle" x="109" y="-361" font-family="Helvetica,sans-Serif" font-size="10.00">Math</text>
</a>
</g>
</g>
<!-- dir_15b6432dff6a6d357bf70f8fbf2cdf14&#45;&gt;dir_17c5e84722ec43f18e2d8633178d0f79 -->
<g id="edge1" class="edge">
<title>dir_15b6432dff6a6d357bf70f8fbf2cdf14&#45;&gt;dir_17c5e84722ec43f18e2d8633178d0f79</title>
<g id="a_edge1"><a xlink:href="dir_000002_000031.html" target="_top">
<path fill="none" stroke="#63b8ff" d="M109,-408.75C109,-401.8 109,-391.85 109,-383.13"/>
<polygon fill="#63b8ff" stroke="#63b8ff" points="112.5,-383.09 109,-373.09 105.5,-383.09 112.5,-383.09"/>
</a>
</g>
<g id="a_edge1&#45;headlabel"><a xlink:href="dir_000002_000031.html" target="_top" xlink:title="4">
<text text-anchor="middle" x="115.34" y="-384.18" font-family="Helvetica,sans-Serif" font-size="10.00" fill="#63b8ff">4</text>
</a>
</g>
</g>
<!-- dir_a47c593fc78d643c88f09a46c50bf78a -->
<g id="node2" class="node">
<title>dir_a47c593fc78d643c88f09a46c50bf78a</title>
<g id="a_node2"><a xlink:href="dir_a47c593fc78d643c88f09a46c50bf78a.html" target="_top" xlink:title="Containers">
<polygon fill="#a7b5d1" stroke="#404040" points="124.5,-153 55.5,-153 55.5,-134 124.5,-134 124.5,-153"/>
<text text-anchor="middle" x="90" y="-141" font-family="Helvetica,sans-Serif" font-size="10.00">Containers</text>
</a>
</g>
</g>
<!-- dir_54ed9a2f055393fe51924247a0779d9a -->
<g id="node3" class="node">
<title>dir_54ed9a2f055393fe51924247a0779d9a</title>
<g id="a_node3"><a xlink:href="dir_54ed9a2f055393fe51924247a0779d9a.html" target="_top" xlink:title="Debug">
<polygon fill="#a7b5d1" stroke="#404040" points="168,-43 120,-43 120,-24 168,-24 168,-43"/>
<text text-anchor="middle" x="144" y="-31" font-family="Helvetica,sans-Serif" font-size="10.00">Debug</text>
</a>
</g>
</g>
<!-- dir_a47c593fc78d643c88f09a46c50bf78a&#45;&gt;dir_54ed9a2f055393fe51924247a0779d9a -->
<g id="edge4" class="edge">
<title>dir_a47c593fc78d643c88f09a46c50bf78a&#45;&gt;dir_54ed9a2f055393fe51924247a0779d9a</title>
<g id="a_edge4"><a xlink:href="dir_000011_000013.html" target="_top">
<path fill="none" stroke="#63b8ff" d="M92.86,-133.63C97.02,-121.12 105.33,-97.74 115,-79 119.92,-69.47 126.35,-59.42 131.9,-51.29"/>
<polygon fill="#63b8ff" stroke="#63b8ff" points="134.8,-53.25 137.68,-43.05 129.07,-49.23 134.8,-53.25"/>
</a>
</g>
<g id="a_edge4&#45;headlabel"><a xlink:href="dir_000011_000013.html" target="_top" xlink:title="1">
<text text-anchor="middle" x="135.07" y="-55.32" font-family="Helvetica,sans-Serif" font-size="10.00" fill="#63b8ff">1</text>
</a>
</g>
</g>
<!-- dir_a084c16939eb8fb9f97e0d007826b989 -->
<g id="node4" class="node">
<title>dir_a084c16939eb8fb9f97e0d007826b989</title>
<g id="a_node4"><a xlink:href="dir_a084c16939eb8fb9f97e0d007826b989.html" target="_top" xlink:title="Error">
<polygon fill="#a7b5d1" stroke="#404040" points="164,-98 124,-98 124,-79 164,-79 164,-98"/>
<text text-anchor="middle" x="144" y="-86" font-family="Helvetica,sans-Serif" font-size="10.00">Error</text>
</a>
</g>
</g>
<!-- dir_a47c593fc78d643c88f09a46c50bf78a&#45;&gt;dir_a084c16939eb8fb9f97e0d007826b989 -->
<g id="edge5" class="edge">
<title>dir_a47c593fc78d643c88f09a46c50bf78a&#45;&gt;dir_a084c16939eb8fb9f97e0d007826b989</title>
<g id="a_edge5"><a xlink:href="dir_000011_000019.html" target="_top">
<path fill="none" stroke="#63b8ff" d="M98.92,-133.75C106.78,-126.03 118.43,-114.6 127.92,-105.28"/>
<polygon fill="#63b8ff" stroke="#63b8ff" points="130.56,-107.59 135.25,-98.09 125.66,-102.6 130.56,-107.59"/>
</a>
</g>
<g id="a_edge5&#45;headlabel"><a xlink:href="dir_000011_000019.html" target="_top" xlink:title="3">
<text text-anchor="middle" x="129.99" y="-109.64" font-family="Helvetica,sans-Serif" font-size="10.00" fill="#63b8ff">3</text>
</a>
</g>
</g>
<!-- dir_a47c593fc78d643c88f09a46c50bf78a&#45;&gt;dir_17c5e84722ec43f18e2d8633178d0f79 -->
<g id="edge2" class="edge">
<title>dir_a47c593fc78d643c88f09a46c50bf78a&#45;&gt;dir_17c5e84722ec43f18e2d8633178d0f79</title>
<g id="a_edge2"><a xlink:href="dir_000011_000031.html" target="_top">
<path fill="none" stroke="#63b8ff" d="M82.46,-153.32C60.82,-179.73 2.18,-259.96 35,-318 44.35,-334.53 62.57,-345.6 78.59,-352.56"/>
<polygon fill="#63b8ff" stroke="#63b8ff" points="77.6,-355.94 88.19,-356.38 80.19,-349.43 77.6,-355.94"/>
</a>
</g>
<g id="a_edge2&#45;headlabel"><a xlink:href="dir_000011_000031.html" target="_top" xlink:title="1">
<text text-anchor="middle" x="73.21" y="-354.75" font-family="Helvetica,sans-Serif" font-size="10.00" fill="#63b8ff">1</text>
</a>
</g>
</g>
<!-- dir_3c4018d305623b2abf46b1ad99013cf4 -->
<g id="node8" class="node">
<title>dir_3c4018d305623b2abf46b1ad99013cf4</title>
<g id="a_node8"><a xlink:href="dir_3c4018d305623b2abf46b1ad99013cf4.html" target="_top" xlink:title="PrintStream">
<polygon fill="#a7b5d1" stroke="#404040" points="118,-318 44,-318 44,-299 118,-299 118,-318"/>
<text text-anchor="middle" x="81" y="-306" font-family="Helvetica,sans-Serif" font-size="10.00">PrintStream</text>
</a>
</g>
</g>
<!-- dir_a47c593fc78d643c88f09a46c50bf78a&#45;&gt;dir_3c4018d305623b2abf46b1ad99013cf4 -->
<g id="edge3" class="edge">
<title>dir_a47c593fc78d643c88f09a46c50bf78a&#45;&gt;dir_3c4018d305623b2abf46b1ad99013cf4</title>
<g id="a_edge3"><a xlink:href="dir_000011_000044.html" target="_top">
<path fill="none" stroke="#63b8ff" d="M88.24,-153.32C86.54,-162.27 84.08,-176.53 83,-189 79.96,-224.07 80.09,-265.2 80.51,-288.62"/>
<polygon fill="#63b8ff" stroke="#63b8ff" points="77.02,-288.93 80.74,-298.86 84.02,-288.78 77.02,-288.93"/>
</a>
</g>
<g id="a_edge3&#45;headlabel"><a xlink:href="dir_000011_000044.html" target="_top" xlink:title="1">
<text text-anchor="middle" x="74.1" y="-282.9" font-family="Helvetica,sans-Serif" font-size="10.00" fill="#63b8ff">1</text>
</a>
</g>
</g>
<!-- dir_c93ba603db00711c7f5106968469b448 -->
<g id="node9" class="node">
<title>dir_c93ba603db00711c7f5106968469b448</title>
<g id="a_node9"><a xlink:href="dir_c93ba603db00711c7f5106968469b448.html" target="_top" xlink:title="Settings">
<polygon fill="#a7b5d1" stroke="#404040" points="233,-263 177,-263 177,-244 233,-244 233,-263"/>
<text text-anchor="middle" x="205" y="-251" font-family="Helvetica,sans-Serif" font-size="10.00">Settings</text>
</a>
</g>
</g>
<!-- dir_a47c593fc78d643c88f09a46c50bf78a&#45;&gt;dir_c93ba603db00711c7f5106968469b448 -->
<g id="edge6" class="edge">
<title>dir_a47c593fc78d643c88f09a46c50bf78a&#45;&gt;dir_c93ba603db00711c7f5106968469b448</title>
<g id="a_edge6"><a xlink:href="dir_000011_000046.html" target="_top">
<path fill="none" stroke="#63b8ff" d="M88.03,-153.28C85.59,-166.52 83.1,-191.77 95,-208 111.73,-230.83 142.18,-241.97 166.81,-247.39"/>
<polygon fill="#63b8ff" stroke="#63b8ff" points="166.46,-250.89 176.95,-249.39 167.81,-244.02 166.46,-250.89"/>
</a>
</g>
<g id="a_edge6&#45;headlabel"><a xlink:href="dir_000011_000046.html" target="_top" xlink:title="7">
<text text-anchor="middle" x="162.39" y="-250.49" font-family="Helvetica,sans-Serif" font-size="10.00" fill="#63b8ff">7</text>
</a>
</g>
</g>
<!-- dir_54ed9a2f055393fe51924247a0779d9a&#45;&gt;dir_3c4018d305623b2abf46b1ad99013cf4 -->
<g id="edge7" class="edge">
<title>dir_54ed9a2f055393fe51924247a0779d9a&#45;&gt;dir_3c4018d305623b2abf46b1ad99013cf4</title>
<g id="a_edge7"><a xlink:href="dir_000013_000044.html" target="_top">
<path fill="none" stroke="#63b8ff" d="M130.36,-43.18C107.92,-58.38 64,-92.21 47,-134 24.98,-188.13 54.52,-257.71 71.11,-289.82"/>
<polygon fill="#63b8ff" stroke="#63b8ff" points="68.14,-291.7 75.96,-298.86 74.31,-288.4 68.14,-291.7"/>
</a>
</g>
<g id="a_edge7&#45;headlabel"><a xlink:href="dir_000013_000044.html" target="_top" xlink:title="1">
<text text-anchor="middle" x="63.94" y="-287.38" font-family="Helvetica,sans-Serif" font-size="10.00" fill="#63b8ff">1</text>
</a>
</g>
</g>
<!-- dir_54ed9a2f055393fe51924247a0779d9a&#45;&gt;dir_c93ba603db00711c7f5106968469b448 -->
<g id="edge8" class="edge">
<title>dir_54ed9a2f055393fe51924247a0779d9a&#45;&gt;dir_c93ba603db00711c7f5106968469b448</title>
<g id="a_edge8"><a xlink:href="dir_000013_000046.html" target="_top">
<path fill="none" stroke="#63b8ff" d="M168.22,-40.81C204.75,-52.94 271.69,-82.92 300,-134 316.8,-164.31 308.83,-196.9 302,-208 289.54,-228.27 264.67,-239.65 243.1,-245.81"/>
<polygon fill="#63b8ff" stroke="#63b8ff" points="241.97,-242.49 233.16,-248.36 243.71,-249.27 241.97,-242.49"/>
</a>
</g>
<g id="a_edge8&#45;headlabel"><a xlink:href="dir_000013_000046.html" target="_top" xlink:title="2">
<text text-anchor="middle" x="244.75" y="-236.34" font-family="Helvetica,sans-Serif" font-size="10.00" fill="#63b8ff">2</text>
</a>
</g>
</g>
<!-- dir_a084c16939eb8fb9f97e0d007826b989&#45;&gt;dir_54ed9a2f055393fe51924247a0779d9a -->
<g id="edge9" class="edge">
<title>dir_a084c16939eb8fb9f97e0d007826b989&#45;&gt;dir_54ed9a2f055393fe51924247a0779d9a</title>
<g id="a_edge9"><a xlink:href="dir_000019_000013.html" target="_top">
<path fill="none" stroke="#63b8ff" d="M144,-78.75C144,-71.8 144,-61.85 144,-53.13"/>
<polygon fill="#63b8ff" stroke="#63b8ff" points="147.5,-53.09 144,-43.09 140.5,-53.09 147.5,-53.09"/>
</a>
</g>
<g id="a_edge9&#45;headlabel"><a xlink:href="dir_000019_000013.html" target="_top" xlink:title="1">
<text text-anchor="middle" x="150.34" y="-54.18" font-family="Helvetica,sans-Serif" font-size="10.00" fill="#63b8ff">1</text>
</a>
</g>
</g>
<!-- dir_a084c16939eb8fb9f97e0d007826b989&#45;&gt;dir_c93ba603db00711c7f5106968469b448 -->
<g id="edge10" class="edge">
<title>dir_a084c16939eb8fb9f97e0d007826b989&#45;&gt;dir_c93ba603db00711c7f5106968469b448</title>
<g id="a_edge10"><a xlink:href="dir_000019_000046.html" target="_top">
<path fill="none" stroke="#63b8ff" d="M164.15,-89.38C195.12,-90.41 253.8,-97.41 282,-134 300.37,-157.83 292.87,-194.61 285,-208 275.79,-223.66 258.86,-234.2 242.94,-241.08"/>
<polygon fill="#63b8ff" stroke="#63b8ff" points="241.26,-237.98 233.24,-244.9 243.82,-244.5 241.26,-237.98"/>
</a>
</g>
<g id="a_edge10&#45;headlabel"><a xlink:href="dir_000019_000046.html" target="_top" xlink:title="2">
<text text-anchor="middle" x="243.56" y="-231.52" font-family="Helvetica,sans-Serif" font-size="10.00" fill="#63b8ff">2</text>
</a>
</g>
</g>
<!-- dir_d61b814a793619a867cee0523d2eb6da -->
<g id="node5" class="node">
<title>dir_d61b814a793619a867cee0523d2eb6da</title>
<g id="a_node5"><a xlink:href="dir_d61b814a793619a867cee0523d2eb6da.html" target="_top" xlink:title="Filters">
<polygon fill="#a7b5d1" stroke="#404040" points="210.5,-153 163.5,-153 163.5,-134 210.5,-134 210.5,-153"/>
<text text-anchor="middle" x="187" y="-141" font-family="Helvetica,sans-Serif" font-size="10.00">Filters</text>
</a>
</g>
</g>
<!-- dir_d61b814a793619a867cee0523d2eb6da&#45;&gt;dir_c93ba603db00711c7f5106968469b448 -->
<g id="edge11" class="edge">
<title>dir_d61b814a793619a867cee0523d2eb6da&#45;&gt;dir_c93ba603db00711c7f5106968469b448</title>
<g id="a_edge11"><a xlink:href="dir_000024_000046.html" target="_top">
<path fill="none" stroke="#63b8ff" d="M188.44,-153.16C191.33,-170.5 197.89,-209.84 201.83,-233.48"/>
<polygon fill="#63b8ff" stroke="#63b8ff" points="198.43,-234.37 203.53,-243.66 205.34,-233.22 198.43,-234.37"/>
</a>
</g>
<g id="a_edge11&#45;headlabel"><a xlink:href="dir_000024_000046.html" target="_top" xlink:title="2">
<text text-anchor="middle" x="195.04" y="-228.79" font-family="Helvetica,sans-Serif" font-size="10.00" fill="#63b8ff">2</text>
</a>
</g>
</g>
<!-- dir_fe496568715fe26a65b354e6e2365ccd -->
<g id="node6" class="node">
<title>dir_fe496568715fe26a65b354e6e2365ccd</title>
<g id="a_node6"><a xlink:href="dir_fe496568715fe26a65b354e6e2365ccd.html" target="_top" xlink:title="Hardware">
<polygon fill="#a7b5d1" stroke="#404040" points="168,-208 104,-208 104,-189 168,-189 168,-208"/>
<text text-anchor="middle" x="136" y="-196" font-family="Helvetica,sans-Serif" font-size="10.00">Hardware</text>
</a>
</g>
</g>
<!-- dir_fe496568715fe26a65b354e6e2365ccd&#45;&gt;dir_a47c593fc78d643c88f09a46c50bf78a -->
<g id="edge14" class="edge">
<title>dir_fe496568715fe26a65b354e6e2365ccd&#45;&gt;dir_a47c593fc78d643c88f09a46c50bf78a</title>
<g id="a_edge14"><a xlink:href="dir_000025_000011.html" target="_top">
<path fill="none" stroke="#63b8ff" d="M128.4,-188.75C121.84,-181.18 112.18,-170.05 104.19,-160.84"/>
<polygon fill="#63b8ff" stroke="#63b8ff" points="106.65,-158.35 97.45,-153.09 101.37,-162.94 106.65,-158.35"/>
</a>
</g>
<g id="a_edge14&#45;headlabel"><a xlink:href="dir_000025_000011.html" target="_top" xlink:title="8">
<text text-anchor="middle" x="111.15" y="-156.7" font-family="Helvetica,sans-Serif" font-size="10.00" fill="#63b8ff">8</text>
</a>
</g>
</g>
<!-- dir_fe496568715fe26a65b354e6e2365ccd&#45;&gt;dir_a084c16939eb8fb9f97e0d007826b989 -->
<g id="edge13" class="edge">
<title>dir_fe496568715fe26a65b354e6e2365ccd&#45;&gt;dir_a084c16939eb8fb9f97e0d007826b989</title>
<g id="a_edge13"><a xlink:href="dir_000025_000019.html" target="_top">
<path fill="none" stroke="#63b8ff" d="M136.65,-188.66C137.95,-171.17 140.87,-131.8 142.61,-108.27"/>
<polygon fill="#63b8ff" stroke="#63b8ff" points="146.11,-108.39 143.36,-98.16 139.13,-107.87 146.11,-108.39"/>
</a>
</g>
<g id="a_edge13&#45;headlabel"><a xlink:href="dir_000025_000019.html" target="_top" xlink:title="2">
<text text-anchor="middle" x="148.68" y="-109.68" font-family="Helvetica,sans-Serif" font-size="10.00" fill="#63b8ff">2</text>
</a>
</g>
</g>
<!-- dir_fe496568715fe26a65b354e6e2365ccd&#45;&gt;dir_d61b814a793619a867cee0523d2eb6da -->
<g id="edge16" class="edge">
<title>dir_fe496568715fe26a65b354e6e2365ccd&#45;&gt;dir_d61b814a793619a867cee0523d2eb6da</title>
<g id="a_edge16"><a xlink:href="dir_000025_000024.html" target="_top">
<path fill="none" stroke="#63b8ff" d="M144.42,-188.75C151.77,-181.11 162.63,-169.82 171.54,-160.56"/>
<polygon fill="#63b8ff" stroke="#63b8ff" points="174.32,-162.72 178.74,-153.09 169.28,-157.87 174.32,-162.72"/>
</a>
</g>
<g id="a_edge16&#45;headlabel"><a xlink:href="dir_000025_000024.html" target="_top" xlink:title="2">
<text text-anchor="middle" x="173.88" y="-164.78" font-family="Helvetica,sans-Serif" font-size="10.00" fill="#63b8ff">2</text>
</a>
</g>
</g>
<!-- dir_fe496568715fe26a65b354e6e2365ccd&#45;&gt;dir_17c5e84722ec43f18e2d8633178d0f79 -->
<g id="edge12" class="edge">
<title>dir_fe496568715fe26a65b354e6e2365ccd&#45;&gt;dir_17c5e84722ec43f18e2d8633178d0f79</title>
<g id="a_edge12"><a xlink:href="dir_000025_000031.html" target="_top">
<path fill="none" stroke="#63b8ff" d="M136.25,-208.26C136.61,-228.1 136.41,-277.82 127,-318 124.89,-327.03 121.21,-336.61 117.73,-344.57"/>
<polygon fill="#63b8ff" stroke="#63b8ff" points="114.43,-343.35 113.41,-353.9 120.79,-346.29 114.43,-343.35"/>
</a>
</g>
<g id="a_edge12&#45;headlabel"><a xlink:href="dir_000025_000031.html" target="_top" xlink:title="2">
<text text-anchor="middle" x="113.37" y="-336.4" font-family="Helvetica,sans-Serif" font-size="10.00" fill="#63b8ff">2</text>
</a>
</g>
</g>
<!-- dir_fe496568715fe26a65b354e6e2365ccd&#45;&gt;dir_c93ba603db00711c7f5106968469b448 -->
<g id="edge15" class="edge">
<title>dir_fe496568715fe26a65b354e6e2365ccd&#45;&gt;dir_c93ba603db00711c7f5106968469b448</title>
<g id="a_edge15"><a xlink:href="dir_000025_000046.html" target="_top">
<path fill="none" stroke="#63b8ff" d="M152.44,-208.17C164.41,-216.06 180.14,-227.87 191.41,-237.32"/>
<polygon fill="#63b8ff" stroke="#63b8ff" points="189.2,-240.04 199.03,-243.98 193.8,-234.77 189.2,-240.04"/>
</a>
</g>
<g id="a_edge15&#45;headlabel"><a xlink:href="dir_000025_000046.html" target="_top" xlink:title="34">
<text text-anchor="middle" x="184.62" y="-237.31" font-family="Helvetica,sans-Serif" font-size="10.00" fill="#63b8ff">34</text>
</a>
</g>
</g>
<!-- dir_dbe54f2115b12050a4f51da0d7c3487b -->
<g id="node12" class="node">
<title>dir_dbe54f2115b12050a4f51da0d7c3487b</title>
<g id="a_node12"><a xlink:href="dir_dbe54f2115b12050a4f51da0d7c3487b.html" target="_top" xlink:title="Types">
<polygon fill="#a7b5d1" stroke="#404040" points="273,-153 229,-153 229,-134 273,-134 273,-153"/>
<text text-anchor="middle" x="251" y="-141" font-family="Helvetica,sans-Serif" font-size="10.00">Types</text>
</a>
</g>
</g>
<!-- dir_fe496568715fe26a65b354e6e2365ccd&#45;&gt;dir_dbe54f2115b12050a4f51da0d7c3487b -->
<g id="edge17" class="edge">
<title>dir_fe496568715fe26a65b354e6e2365ccd&#45;&gt;dir_dbe54f2115b12050a4f51da0d7c3487b</title>
<g id="a_edge17"><a xlink:href="dir_000025_000053.html" target="_top">
<path fill="none" stroke="#63b8ff" d="M154.48,-188.98C172.98,-180.46 201.68,-167.23 222.98,-157.41"/>
<polygon fill="#63b8ff" stroke="#63b8ff" points="224.57,-160.53 232.19,-153.17 221.64,-154.18 224.57,-160.53"/>
</a>
</g>
<g id="a_edge17&#45;headlabel"><a xlink:href="dir_000025_000053.html" target="_top" xlink:title="1">
<text text-anchor="middle" x="222.49" y="-162.12" font-family="Helvetica,sans-Serif" font-size="10.00" fill="#63b8ff">1</text>
</a>
</g>
</g>
<!-- dir_17c5e84722ec43f18e2d8633178d0f79&#45;&gt;dir_3c4018d305623b2abf46b1ad99013cf4 -->
<g id="edge18" class="edge">
<title>dir_17c5e84722ec43f18e2d8633178d0f79&#45;&gt;dir_3c4018d305623b2abf46b1ad99013cf4</title>
<g id="a_edge18"><a xlink:href="dir_000031_000044.html" target="_top">
<path fill="none" stroke="#63b8ff" d="M104.38,-353.75C100.54,-346.49 94.98,-335.95 90.24,-326.98"/>
<polygon fill="#63b8ff" stroke="#63b8ff" points="93.3,-325.3 85.54,-318.09 87.11,-328.57 93.3,-325.3"/>
</a>
</g>
<g id="a_edge18&#45;headlabel"><a xlink:href="dir_000031_000044.html" target="_top" xlink:title="2">
<text text-anchor="middle" x="97.49" y="-324.65" font-family="Helvetica,sans-Serif" font-size="10.00" fill="#63b8ff">2</text>
</a>
</g>
</g>
<!-- dir_17c5e84722ec43f18e2d8633178d0f79&#45;&gt;dir_c93ba603db00711c7f5106968469b448 -->
<g id="edge19" class="edge">
<title>dir_17c5e84722ec43f18e2d8633178d0f79&#45;&gt;dir_c93ba603db00711c7f5106968469b448</title>
<g id="a_edge19"><a xlink:href="dir_000031_000046.html" target="_top">
<path fill="none" stroke="#63b8ff" d="M116.86,-353.66C132.97,-335.54 169.97,-293.91 190.54,-270.77"/>
<polygon fill="#63b8ff" stroke="#63b8ff" points="193.28,-272.96 197.3,-263.16 188.04,-268.31 193.28,-272.96"/>
</a>
</g>
<g id="a_edge19&#45;headlabel"><a xlink:href="dir_000031_000046.html" target="_top" xlink:title="10">
<text text-anchor="middle" x="193.01" y="-275.03" font-family="Helvetica,sans-Serif" font-size="10.00" fill="#63b8ff">10</text>
</a>
</g>
</g>
<!-- dir_3c4018d305623b2abf46b1ad99013cf4&#45;&gt;dir_c93ba603db00711c7f5106968469b448 -->
<g id="edge20" class="edge">
<title>dir_3c4018d305623b2abf46b1ad99013cf4&#45;&gt;dir_c93ba603db00711c7f5106968469b448</title>
<g id="a_edge20"><a xlink:href="dir_000044_000046.html" target="_top">
<path fill="none" stroke="#63b8ff" d="M100.92,-298.98C121.05,-290.38 152.38,-276.99 175.41,-267.15"/>
<polygon fill="#63b8ff" stroke="#63b8ff" points="176.9,-270.32 184.71,-263.17 174.14,-263.88 176.9,-270.32"/>
</a>
</g>
<g id="a_edge20&#45;headlabel"><a xlink:href="dir_000044_000046.html" target="_top" xlink:title="2">
<text text-anchor="middle" x="174.71" y="-271.84" font-family="Helvetica,sans-Serif" font-size="10.00" fill="#63b8ff">2</text>
</a>
</g>
</g>
<!-- dir_c93ba603db00711c7f5106968469b448&#45;&gt;dir_54ed9a2f055393fe51924247a0779d9a -->
<g id="edge22" class="edge">
<title>dir_c93ba603db00711c7f5106968469b448&#45;&gt;dir_54ed9a2f055393fe51924247a0779d9a</title>
<g id="a_edge22"><a xlink:href="dir_000046_000013.html" target="_top">
<path fill="none" stroke="#63b8ff" d="M233.36,-243.94C251.21,-237.44 272.7,-226.38 284,-208 290.83,-196.9 298.8,-164.31 282,-134 257.84,-90.4 205.51,-62.17 172.54,-47.3"/>
<polygon fill="#63b8ff" stroke="#63b8ff" points="173.54,-43.91 162.98,-43.11 170.73,-50.33 173.54,-43.91"/>
</a>
</g>
<g id="a_edge22&#45;headlabel"><a xlink:href="dir_000046_000013.html" target="_top" xlink:title="1">
<text text-anchor="middle" x="177.98" y="-40.26" font-family="Helvetica,sans-Serif" font-size="10.00" fill="#63b8ff">1</text>
</a>
</g>
</g>
<!-- dir_c93ba603db00711c7f5106968469b448&#45;&gt;dir_fe496568715fe26a65b354e6e2365ccd -->
<g id="edge24" class="edge">
<title>dir_c93ba603db00711c7f5106968469b448&#45;&gt;dir_fe496568715fe26a65b354e6e2365ccd</title>
<g id="a_edge24"><a xlink:href="dir_000046_000025.html" target="_top">
<path fill="none" stroke="#63b8ff" d="M188.8,-243.98C176.87,-236.15 161.14,-224.34 149.81,-214.86"/>
<polygon fill="#63b8ff" stroke="#63b8ff" points="151.98,-212.11 142.14,-208.17 147.37,-217.38 151.98,-212.11"/>
</a>
</g>
<g id="a_edge24&#45;headlabel"><a xlink:href="dir_000046_000025.html" target="_top" xlink:title="1">
<text text-anchor="middle" x="156.55" y="-209.83" font-family="Helvetica,sans-Serif" font-size="10.00" fill="#63b8ff">1</text>
</a>
</g>
</g>
<!-- dir_22cc041e64085de06e5f66b2732f928a -->
<g id="node10" class="node">
<title>dir_22cc041e64085de06e5f66b2732f928a</title>
<g id="a_node10"><a xlink:href="dir_22cc041e64085de06e5f66b2732f928a.html" target="_top" xlink:title="Teensy">
<polygon fill="#a7b5d1" stroke="#404040" points="276,-208 226,-208 226,-189 276,-189 276,-208"/>
<text text-anchor="middle" x="251" y="-196" font-family="Helvetica,sans-Serif" font-size="10.00">Teensy</text>
</a>
</g>
</g>
<!-- dir_c93ba603db00711c7f5106968469b448&#45;&gt;dir_22cc041e64085de06e5f66b2732f928a -->
<g id="edge21" class="edge">
<title>dir_c93ba603db00711c7f5106968469b448&#45;&gt;dir_22cc041e64085de06e5f66b2732f928a</title>
<g id="a_edge21"><a xlink:href="dir_000046_000050.html" target="_top">
<path fill="none" stroke="#63b8ff" d="M212.6,-243.75C219.16,-236.18 228.82,-225.05 236.81,-215.84"/>
<polygon fill="#63b8ff" stroke="#63b8ff" points="239.63,-217.94 243.55,-208.09 234.35,-213.35 239.63,-217.94"/>
</a>
</g>
<g id="a_edge21&#45;headlabel"><a xlink:href="dir_000046_000050.html" target="_top" xlink:title="1">
<text text-anchor="middle" x="239.42" y="-220.01" font-family="Helvetica,sans-Serif" font-size="10.00" fill="#63b8ff">1</text>
</a>
</g>
</g>
<!-- dir_c93ba603db00711c7f5106968469b448&#45;&gt;dir_dbe54f2115b12050a4f51da0d7c3487b -->
<g id="edge23" class="edge">
<title>dir_c93ba603db00711c7f5106968469b448&#45;&gt;dir_dbe54f2115b12050a4f51da0d7c3487b</title>
<g id="a_edge23"><a xlink:href="dir_000046_000053.html" target="_top">
<path fill="none" stroke="#63b8ff" d="M199.5,-243.91C197.18,-231.34 199.77,-207.44 208,-189 212.63,-178.61 220.13,-168.42 227.77,-160.42"/>
<polygon fill="#63b8ff" stroke="#63b8ff" points="230.51,-162.65 235.35,-153.22 225.69,-157.57 230.51,-162.65"/>
</a>
</g>
<g id="a_edge23&#45;headlabel"><a xlink:href="dir_000046_000053.html" target="_top" xlink:title="1">
<text text-anchor="middle" x="229.86" y="-164.68" font-family="Helvetica,sans-Serif" font-size="10.00" fill="#63b8ff">1</text>
</a>
</g>
</g>
<!-- dir_a685bf69d461a29e99591549e2feaab1 -->
<g id="node11" class="node">
<title>dir_a685bf69d461a29e99591549e2feaab1</title>
<g id="a_node11"><a xlink:href="dir_a685bf69d461a29e99591549e2feaab1.html" target="_top" xlink:title="Timing">
<polygon fill="#a7b5d1" stroke="#404040" points="230,-318 180,-318 180,-299 230,-299 230,-318"/>
<text text-anchor="middle" x="205" y="-306" font-family="Helvetica,sans-Serif" font-size="10.00">Timing</text>
</a>
</g>
</g>
<!-- dir_a685bf69d461a29e99591549e2feaab1&#45;&gt;dir_c93ba603db00711c7f5106968469b448 -->
<g id="edge25" class="edge">
<title>dir_a685bf69d461a29e99591549e2feaab1&#45;&gt;dir_c93ba603db00711c7f5106968469b448</title>
<g id="a_edge25"><a xlink:href="dir_000052_000046.html" target="_top">
<path fill="none" stroke="#63b8ff" d="M205,-298.75C205,-291.8 205,-281.85 205,-273.13"/>
<polygon fill="#63b8ff" stroke="#63b8ff" points="208.5,-273.09 205,-263.09 201.5,-273.09 208.5,-273.09"/>
</a>
</g>
<g id="a_edge25&#45;headlabel"><a xlink:href="dir_000052_000046.html" target="_top" xlink:title="2">
<text text-anchor="middle" x="211.34" y="-274.18" font-family="Helvetica,sans-Serif" font-size="10.00" fill="#63b8ff">2</text>
</a>
</g>
</g>
<!-- dir_dbe54f2115b12050a4f51da0d7c3487b&#45;&gt;dir_c93ba603db00711c7f5106968469b448 -->
<g id="edge26" class="edge">
<title>dir_dbe54f2115b12050a4f51da0d7c3487b&#45;&gt;dir_c93ba603db00711c7f5106968469b448</title>
<g id="a_edge26"><a xlink:href="dir_000053_000046.html" target="_top">
<path fill="none" stroke="#63b8ff" d="M249.28,-153.22C243.45,-161.65 232.18,-175.15 226,-189 219.57,-203.41 216.59,-221.15 213.71,-234.21"/>
<polygon fill="#63b8ff" stroke="#63b8ff" points="210.31,-233.36 211.24,-243.91 217.1,-235.08 210.31,-233.36"/>
</a>
</g>
<g id="a_edge26&#45;headlabel"><a xlink:href="dir_000053_000046.html" target="_top" xlink:title="4">
<text text-anchor="middle" x="208.45" y="-226.67" font-family="Helvetica,sans-Serif" font-size="10.00" fill="#63b8ff">4</text>
</a>
</g>
</g>
</g>
</svg>
