<?xml version="1.0" encoding="UTF-8" standalone="no"?>
<!DOCTYPE svg PUBLIC "-//W3C//DTD SVG 1.1//EN"
 "http://www.w3.org/Graphics/SVG/1.1/DTD/svg11.dtd">
<!-- Generated by graphviz version 2.38.0 (20140413.2041)
 -->
<!-- Title: MIDIInputElementSysEx Pages: 1 -->
<svg width="306pt" height="523pt"
 viewBox="0.00 0.00 306.00 523.00" xmlns="http://www.w3.org/2000/svg" xmlns:xlink="http://www.w3.org/1999/xlink">
<g id="graph0" class="graph" transform="scale(1 1) rotate(0) translate(4 519)">
<title>MIDIInputElementSysEx</title>
<polygon fill="white" stroke="none" points="-4,4 -4,-519 302,-519 302,4 -4,4"/>
<!-- Node1 -->
<g id="node1" class="node"><title>Node1</title>
<g id="a_node1"><a xlink:title="Class for objects that listen for incoming MIDI SysEx events.">
<polygon fill="#bfbfbf" stroke="black" points="76,-336.5 76,-514.5 222,-514.5 222,-336.5 76,-336.5"/>
<text text-anchor="middle" x="149" y="-502.5" font-family="Helvetica,sans-Serif" font-size="10.00">MIDIInputElementSysEx</text>
<polyline fill="none" stroke="black" points="76,-495.5 222,-495.5 "/>
<text text-anchor="start" x="84" y="-483.5" font-family="Helvetica,sans-Serif" font-size="10.00">&#45; CN</text>
<polyline fill="none" stroke="black" points="76,-476.5 222,-476.5 "/>
<text text-anchor="start" x="84" y="-464.5" font-family="Helvetica,sans-Serif" font-size="10.00">+ ~MIDIInputElementSysEx()</text>
<text text-anchor="start" x="84" y="-453.5" font-family="Helvetica,sans-Serif" font-size="10.00">+ begin()</text>
<text text-anchor="start" x="84" y="-442.5" font-family="Helvetica,sans-Serif" font-size="10.00">+ reset()</text>
<text text-anchor="start" x="84" y="-431.5" font-family="Helvetica,sans-Serif" font-size="10.00">+ update()</text>
<text text-anchor="start" x="84" y="-420.5" font-family="Helvetica,sans-Serif" font-size="10.00">+ beginAll()</text>
<text text-anchor="start" x="84" y="-409.5" font-family="Helvetica,sans-Serif" font-size="10.00">+ updateAll()</text>
<text text-anchor="start" x="84" y="-398.5" font-family="Helvetica,sans-Serif" font-size="10.00">+ resetAll()</text>
<text text-anchor="start" x="84" y="-387.5" font-family="Helvetica,sans-Serif" font-size="10.00">+ updateAllWith()</text>
<text text-anchor="start" x="84" y="-376.5" font-family="Helvetica,sans-Serif" font-size="10.00"># MIDIInputElementSysEx()</text>
<text text-anchor="start" x="84" y="-365.5" font-family="Helvetica,sans-Serif" font-size="10.00">&#45; updateWith()</text>
<text text-anchor="start" x="84" y="-354.5" font-family="Helvetica,sans-Serif" font-size="10.00">&#45; updateImpl()</text>
<text text-anchor="start" x="84" y="-343.5" font-family="Helvetica,sans-Serif" font-size="10.00">&#45; moveDown()</text>
</a>
</g>
</g>
<!-- Node2 -->
<g id="node2" class="node"><title>Node2</title>
<g id="a_node2"><a xlink:href="../../d4/d23/classDoublyLinkable.html" target="_top" xlink:title=" ">
<polygon fill="white" stroke="black" points="0,-105 0,-173 136,-173 136,-105 0,-105"/>
<text text-anchor="start" x="8" y="-161" font-family="Helvetica,sans-Serif" font-size="10.00">DoublyLinkable&lt; MIDIInput</text>
<text text-anchor="middle" x="68" y="-150" font-family="Helvetica,sans-Serif" font-size="10.00">ElementSysEx &gt;</text>
<polyline fill="none" stroke="black" points="0,-143 136,-143 "/>
<text text-anchor="middle" x="68" y="-131" font-family="Helvetica,sans-Serif" font-size="10.00"> </text>
<polyline fill="none" stroke="black" points="0,-124 136,-124 "/>
<text text-anchor="start" x="8" y="-112" font-family="Helvetica,sans-Serif" font-size="10.00"># ~DoublyLinkable()</text>
</a>
</g>
</g>
<!-- Node1&#45;&gt;Node2 -->
<g id="edge2" class="edge"><title>Node1&#45;&gt;Node2</title>
<path fill="none" stroke="#404040" d="M76.7387,-336.463C73.7311,-330.421 71.104,-324.246 69,-318 54.4383,-274.774 56.3354,-222.223 60.553,-185.468"/>
<polygon fill="none" stroke="#404040" points="60.6034,-185.071 57.393,-178.614 62.1185,-173.167 65.329,-179.624 60.6034,-185.071"/>
<text text-anchor="middle" x="90.5" y="-310" font-family="Helvetica,sans-Serif" font-size="10.00"> #next</text>
<text text-anchor="middle" x="90.5" y="-299" font-family="Helvetica,sans-Serif" font-size="10.00">#previous</text>
</g>
<!-- Node3 -->
<g id="node3" class="node"><title>Node3</title>
<g id="a_node3"><a xlink:href="../../dd/d16/classDoublyLinkedList.html" target="_top" xlink:title=" ">
<polygon fill="white" stroke="black" points="154,-0.5 154,-277.5 298,-277.5 298,-0.5 154,-0.5"/>
<text text-anchor="start" x="162" y="-265.5" font-family="Helvetica,sans-Serif" font-size="10.00">DoublyLinkedList&lt; MIDIInput</text>
<text text-anchor="middle" x="226" y="-254.5" font-family="Helvetica,sans-Serif" font-size="10.00">ElementSysEx &gt;</text>
<polyline fill="none" stroke="black" points="154,-247.5 298,-247.5 "/>
<text text-anchor="middle" x="226" y="-235.5" font-family="Helvetica,sans-Serif" font-size="10.00"> </text>
<polyline fill="none" stroke="black" points="154,-228.5 298,-228.5 "/>
<text text-anchor="start" x="162" y="-216.5" font-family="Helvetica,sans-Serif" font-size="10.00">+ append()</text>
<text text-anchor="start" x="162" y="-205.5" font-family="Helvetica,sans-Serif" font-size="10.00">+ append()</text>
<text text-anchor="start" x="162" y="-194.5" font-family="Helvetica,sans-Serif" font-size="10.00">+ insertBefore()</text>
<text text-anchor="start" x="162" y="-183.5" font-family="Helvetica,sans-Serif" font-size="10.00">+ insertBefore()</text>
<text text-anchor="start" x="162" y="-172.5" font-family="Helvetica,sans-Serif" font-size="10.00">+ insertSorted()</text>
<text text-anchor="start" x="162" y="-161.5" font-family="Helvetica,sans-Serif" font-size="10.00">+ insertSorted()</text>
<text text-anchor="start" x="162" y="-150.5" font-family="Helvetica,sans-Serif" font-size="10.00">+ remove()</text>
<text text-anchor="start" x="162" y="-139.5" font-family="Helvetica,sans-Serif" font-size="10.00">+ remove()</text>
<text text-anchor="start" x="162" y="-128.5" font-family="Helvetica,sans-Serif" font-size="10.00">+ moveDown()</text>
<text text-anchor="start" x="162" y="-117.5" font-family="Helvetica,sans-Serif" font-size="10.00">+ couldContain()</text>
<text text-anchor="start" x="162" y="-106.5" font-family="Helvetica,sans-Serif" font-size="10.00">+ begin()</text>
<text text-anchor="start" x="162" y="-95.5" font-family="Helvetica,sans-Serif" font-size="10.00">+ begin()</text>
<text text-anchor="start" x="162" y="-84.5" font-family="Helvetica,sans-Serif" font-size="10.00">+ end()</text>
<text text-anchor="start" x="162" y="-73.5" font-family="Helvetica,sans-Serif" font-size="10.00">+ end()</text>
<text text-anchor="start" x="162" y="-62.5" font-family="Helvetica,sans-Serif" font-size="10.00">+ rbegin()</text>
<text text-anchor="start" x="162" y="-51.5" font-family="Helvetica,sans-Serif" font-size="10.00">+ rbegin()</text>
<text text-anchor="start" x="162" y="-40.5" font-family="Helvetica,sans-Serif" font-size="10.00">+ rend()</text>
<text text-anchor="start" x="162" y="-29.5" font-family="Helvetica,sans-Serif" font-size="10.00">+ rend()</text>
<text text-anchor="start" x="162" y="-18.5" font-family="Helvetica,sans-Serif" font-size="10.00">+ getFirst()</text>
<text text-anchor="start" x="162" y="-7.5" font-family="Helvetica,sans-Serif" font-size="10.00">+ getLast()</text>
</a>
</g>
</g>
<!-- Node1&#45;&gt;Node3 -->
<g id="edge4" class="edge"><title>Node1&#45;&gt;Node3</title>
<path fill="none" stroke="#404040" d="M159.558,-336.225C161.897,-322.66 164.69,-308.887 168,-296 168.555,-293.838 169.13,-291.664 169.722,-289.481"/>
<polygon fill="none" stroke="#404040" points="169.778,-289.283 167.565,-282.42 173.048,-277.737 175.262,-284.6 169.778,-289.283"/>
<text text-anchor="middle" x="179" y="-310" font-family="Helvetica,sans-Serif" font-size="10.00"> &#45;last</text>
<text text-anchor="middle" x="179" y="-299" font-family="Helvetica,sans-Serif" font-size="10.00">&#45;first</text>
</g>
<!-- Node2&#45;&gt;Node1 -->
<g id="edge1" class="edge"><title>Node2&#45;&gt;Node1</title>
<path fill="none" stroke="midnightblue" d="M81.7439,-182.734C91.6519,-213.994 105.136,-257.487 116,-296 119.658,-308.968 123.368,-322.72 126.914,-336.219"/>
<polygon fill="none" stroke="midnightblue" points="85.0261,-181.506 78.6606,-173.037 78.3552,-183.627 85.0261,-181.506"/>
</g>
<!-- Node3&#45;&gt;Node1 -->
<g id="edge3" class="edge"><title>Node3&#45;&gt;Node1</title>
<path fill="none" stroke="#404040" d="M204.392,-277.743C201.302,-291.442 197.846,-305.058 194,-318 193.325,-320.273 192.616,-322.563 191.878,-324.863"/>
<polygon fill="none" stroke="#404040" points="191.813,-325.056 193.68,-332.021 187.969,-336.424 186.102,-329.459 191.813,-325.056"/>
<text text-anchor="middle" x="222" y="-304.5" font-family="Helvetica,sans-Serif" font-size="10.00"> &#45;elements</text>
</g>
</g>
</svg>
