<?xml version="1.0" encoding="UTF-8" standalone="no"?>
<!DOCTYPE svg PUBLIC "-//W3C//DTD SVG 1.1//EN"
 "http://www.w3.org/Graphics/SVG/1.1/DTD/svg11.dtd">
<!-- Generated by graphviz version 2.38.0 (20140413.2041)
 -->
<!-- Title: ExtendedInputOutput.hpp Pages: 1 -->
<svg width="1316pt" height="543pt"
 viewBox="0.00 0.00 1316.00 543.00" xmlns="http://www.w3.org/2000/svg" xmlns:xlink="http://www.w3.org/1999/xlink">
<g id="graph0" class="graph" transform="scale(1 1) rotate(0) translate(4 539)">
<title>ExtendedInputOutput.hpp</title>
<polygon fill="white" stroke="none" points="-4,4 -4,-539 1312,-539 1312,4 -4,4"/>
<!-- Node1 -->
<g id="node1" class="node"><title>Node1</title>
<g id="a_node1"><a xlink:title=" ">
<polygon fill="#bfbfbf" stroke="black" points="396,-515.5 396,-534.5 524,-534.5 524,-515.5 396,-515.5"/>
<text text-anchor="middle" x="460" y="-522.5" font-family="Helvetica,sans-Serif" font-size="10.00">ExtendedInputOutput.hpp</text>
</a>
</g>
</g>
<!-- Node2 -->
<g id="node2" class="node"><title>Node2</title>
<g id="a_node2"><a xlink:href="../../d1/d65/Warnings_8hpp.html" target="_top" xlink:title=" ">
<polygon fill="white" stroke="black" points="231.5,-0.5 231.5,-19.5 364.5,-19.5 364.5,-0.5 231.5,-0.5"/>
<text text-anchor="middle" x="298" y="-7.5" font-family="Helvetica,sans-Serif" font-size="10.00">AH/Settings/Warnings.hpp</text>
</a>
</g>
</g>
<!-- Node1&#45;&gt;Node2 -->
<g id="edge1" class="edge"><title>Node1&#45;&gt;Node2</title>
<path fill="none" stroke="midnightblue" d="M395.555,-521.21C268.956,-513.965 0,-489.09 0,-408.5 0,-408.5 0,-408.5 0,-121 0,-84.0042 20.2397,-74.973 52,-56 80.0251,-39.2584 160.01,-26.6577 221.24,-19.11"/>
<polygon fill="midnightblue" stroke="midnightblue" points="221.771,-22.5713 231.279,-17.8966 220.931,-15.6218 221.771,-22.5713"/>
</g>
<!-- Node3 -->
<g id="node3" class="node"><title>Node3</title>
<g id="a_node3"><a xlink:title=" ">
<polygon fill="white" stroke="#bfbfbf" points="862,-0.5 862,-19.5 920,-19.5 920,-0.5 862,-0.5"/>
<text text-anchor="middle" x="891" y="-7.5" font-family="Helvetica,sans-Serif" font-size="10.00">Arduino.h</text>
</a>
</g>
</g>
<!-- Node1&#45;&gt;Node3 -->
<g id="edge2" class="edge"><title>Node1&#45;&gt;Node3</title>
<path fill="none" stroke="midnightblue" d="M524.322,-521.292C712.041,-512.541 1246,-481.255 1246,-408.5 1246,-408.5 1246,-408.5 1246,-121 1246,-82.5768 1222.71,-74.4338 1189,-56 1145.22,-32.0639 1001.29,-18.8172 930.721,-13.6173"/>
<polygon fill="midnightblue" stroke="midnightblue" points="930.682,-10.1055 920.456,-12.8797 930.18,-17.0875 930.682,-10.1055"/>
</g>
<!-- Node4 -->
<g id="node4" class="node"><title>Node4</title>
<g id="a_node4"><a xlink:href="../../d4/d57/ExtendedIOElement_8hpp.html" target="_top" xlink:title=" ">
<polygon fill="white" stroke="black" points="398.5,-459.5 398.5,-478.5 521.5,-478.5 521.5,-459.5 398.5,-459.5"/>
<text text-anchor="middle" x="460" y="-466.5" font-family="Helvetica,sans-Serif" font-size="10.00">ExtendedIOElement.hpp</text>
</a>
</g>
</g>
<!-- Node1&#45;&gt;Node4 -->
<g id="edge3" class="edge"><title>Node1&#45;&gt;Node4</title>
<path fill="none" stroke="midnightblue" d="M460,-515.083C460,-508.006 460,-497.861 460,-488.986"/>
<polygon fill="midnightblue" stroke="midnightblue" points="463.5,-488.751 460,-478.751 456.5,-488.751 463.5,-488.751"/>
</g>
<!-- Node4&#45;&gt;Node2 -->
<g id="edge4" class="edge"><title>Node4&#45;&gt;Node2</title>
<path fill="none" stroke="midnightblue" d="M398.186,-463.197C280.971,-452.378 38,-421.025 38,-347 38,-347 38,-347 38,-121 38,-40.6727 144.563,-18.1123 221.246,-12.2767"/>
<polygon fill="midnightblue" stroke="midnightblue" points="221.641,-15.758 231.381,-11.5881 221.167,-8.77409 221.641,-15.758"/>
</g>
<!-- Node5 -->
<g id="node5" class="node"><title>Node5</title>
<g id="a_node5"><a xlink:href="../../d4/d35/Hardware-Types_8hpp.html" target="_top" xlink:title=" ">
<polygon fill="white" stroke="black" points="399.5,-392.5 399.5,-422.5 520.5,-422.5 520.5,-392.5 399.5,-392.5"/>
<text text-anchor="start" x="407.5" y="-410.5" font-family="Helvetica,sans-Serif" font-size="10.00">AH/Hardware/Hardware</text>
<text text-anchor="middle" x="460" y="-399.5" font-family="Helvetica,sans-Serif" font-size="10.00">&#45;Types.hpp</text>
</a>
</g>
</g>
<!-- Node4&#45;&gt;Node5 -->
<g id="edge5" class="edge"><title>Node4&#45;&gt;Node5</title>
<path fill="none" stroke="midnightblue" d="M460,-459.475C460,-452.471 460,-442.192 460,-432.696"/>
<polygon fill="midnightblue" stroke="midnightblue" points="463.5,-432.523 460,-422.523 456.5,-432.523 463.5,-432.523"/>
</g>
<!-- Node22 -->
<g id="node22" class="node"><title>Node22</title>
<g id="a_node22"><a xlink:href="../../de/dd1/LinkedList_8hpp.html" target="_top" xlink:title=" ">
<polygon fill="white" stroke="black" points="604.5,-280.5 604.5,-299.5 751.5,-299.5 751.5,-280.5 604.5,-280.5"/>
<text text-anchor="middle" x="678" y="-287.5" font-family="Helvetica,sans-Serif" font-size="10.00">AH/Containers/LinkedList.hpp</text>
</a>
</g>
</g>
<!-- Node4&#45;&gt;Node22 -->
<g id="edge37" class="edge"><title>Node4&#45;&gt;Node22</title>
<path fill="none" stroke="midnightblue" d="M474.423,-459.453C488.679,-450.808 510.917,-436.788 529,-423 580.056,-384.071 635.48,-332.126 662.043,-306.559"/>
<polygon fill="midnightblue" stroke="midnightblue" points="664.57,-308.984 669.323,-299.515 659.703,-303.953 664.57,-308.984"/>
</g>
<!-- Node5&#45;&gt;Node2 -->
<g id="edge6" class="edge"><title>Node5&#45;&gt;Node2</title>
<path fill="none" stroke="midnightblue" d="M399.154,-400.893C290.876,-389.22 76,-357.658 76,-291 76,-291 76,-291 76,-121 76,-54.4483 157.093,-28.1614 221.255,-17.7784"/>
<polygon fill="midnightblue" stroke="midnightblue" points="222.029,-21.2014 231.393,-16.2449 220.982,-14.2801 222.029,-21.2014"/>
</g>
<!-- Node6 -->
<g id="node6" class="node"><title>Node6</title>
<g id="a_node6"><a xlink:href="../../de/d76/Array_8hpp.html" target="_top" xlink:title=" ">
<polygon fill="white" stroke="black" points="245,-336.5 245,-355.5 371,-355.5 371,-336.5 245,-336.5"/>
<text text-anchor="middle" x="308" y="-343.5" font-family="Helvetica,sans-Serif" font-size="10.00">AH/Containers/Array.hpp</text>
</a>
</g>
</g>
<!-- Node5&#45;&gt;Node6 -->
<g id="edge7" class="edge"><title>Node5&#45;&gt;Node6</title>
<path fill="none" stroke="midnightblue" d="M423.978,-392.399C398.361,-382.372 364.273,-369.028 339.69,-359.405"/>
<polygon fill="midnightblue" stroke="midnightblue" points="340.705,-356.044 330.117,-355.658 338.154,-362.562 340.705,-356.044"/>
</g>
<!-- Node11 -->
<g id="node11" class="node"><title>Node11</title>
<g id="a_node11"><a xlink:href="../../d6/db0/AH_2Settings_2NamespaceSettings_8hpp.html" target="_top" xlink:title=" ">
<polygon fill="white" stroke="black" points="1184,-0.5 1184,-19.5 1308,-19.5 1308,-0.5 1184,-0.5"/>
<text text-anchor="middle" x="1246" y="-7.5" font-family="Helvetica,sans-Serif" font-size="10.00">NamespaceSettings.hpp</text>
</a>
</g>
</g>
<!-- Node5&#45;&gt;Node11 -->
<g id="edge35" class="edge"><title>Node5&#45;&gt;Node11</title>
<path fill="none" stroke="midnightblue" d="M509.814,-392.493C627.833,-358.16 931.76,-262.965 1161,-132 1197.12,-111.364 1214.57,-111.658 1236,-76 1244.36,-62.0844 1246.52,-43.5749 1246.79,-29.8674"/>
<polygon fill="midnightblue" stroke="midnightblue" points="1250.28,-29.6445 1246.66,-19.6888 1243.28,-29.7316 1250.28,-29.6445"/>
</g>
<!-- Node17 -->
<g id="node17" class="node"><title>Node17</title>
<g id="a_node17"><a xlink:title=" ">
<polygon fill="white" stroke="#bfbfbf" points="918.5,-56.5 918.5,-75.5 967.5,-75.5 967.5,-56.5 918.5,-56.5"/>
<text text-anchor="middle" x="943" y="-63.5" font-family="Helvetica,sans-Serif" font-size="10.00">stdint.h</text>
</a>
</g>
</g>
<!-- Node5&#45;&gt;Node17 -->
<g id="edge36" class="edge"><title>Node5&#45;&gt;Node17</title>
<path fill="none" stroke="midnightblue" d="M471.299,-392.184C497.814,-359.27 567.232,-276.979 639,-224 730.031,-156.802 853.9,-102.683 911.342,-79.3829"/>
<polygon fill="midnightblue" stroke="midnightblue" points="912.652,-82.6286 920.626,-75.6519 910.042,-76.1336 912.652,-82.6286"/>
</g>
<!-- Node6&#45;&gt;Node2 -->
<g id="edge8" class="edge"><title>Node6&#45;&gt;Node2</title>
<path fill="none" stroke="midnightblue" d="M244.697,-343.733C207.662,-339.693 162.53,-328.58 133,-300 111.373,-279.068 114,-265.098 114,-235 114,-235 114,-235 114,-121 114,-63.1891 181.742,-35.0354 235.019,-21.833"/>
<polygon fill="midnightblue" stroke="midnightblue" points="235.846,-25.2341 244.78,-19.538 234.244,-18.4199 235.846,-25.2341"/>
</g>
<!-- Node7 -->
<g id="node7" class="node"><title>Node7</title>
<g id="a_node7"><a xlink:href="../../d1/d93/Error_8hpp.html" target="_top" xlink:title=" ">
<polygon fill="white" stroke="black" points="404,-280.5 404,-299.5 502,-299.5 502,-280.5 404,-280.5"/>
<text text-anchor="middle" x="453" y="-287.5" font-family="Helvetica,sans-Serif" font-size="10.00">AH/Error/Error.hpp</text>
</a>
</g>
</g>
<!-- Node6&#45;&gt;Node7 -->
<g id="edge9" class="edge"><title>Node6&#45;&gt;Node7</title>
<path fill="none" stroke="midnightblue" d="M330.976,-336.444C355.157,-327.438 393.418,-313.189 420.646,-303.049"/>
<polygon fill="midnightblue" stroke="midnightblue" points="421.982,-306.286 430.132,-299.516 419.539,-299.727 421.982,-306.286"/>
</g>
<!-- Node16 -->
<g id="node16" class="node"><title>Node16</title>
<g id="a_node16"><a xlink:title=" ">
<polygon fill="white" stroke="#bfbfbf" points="180,-56.5 180,-75.5 232,-75.5 232,-56.5 180,-56.5"/>
<text text-anchor="middle" x="206" y="-63.5" font-family="Helvetica,sans-Serif" font-size="10.00">stddef.h</text>
</a>
</g>
</g>
<!-- Node6&#45;&gt;Node16 -->
<g id="edge34" class="edge"><title>Node6&#45;&gt;Node16</title>
<path fill="none" stroke="midnightblue" d="M304.712,-336.384C301.266,-327.335 295.709,-312.683 291,-300 261.41,-220.301 226.903,-124.945 212.664,-85.4886"/>
<polygon fill="midnightblue" stroke="midnightblue" points="215.891,-84.121 209.206,-75.9017 209.307,-86.496 215.891,-84.121"/>
</g>
<!-- Node20 -->
<g id="node20" class="node"><title>Node20</title>
<g id="a_node20"><a xlink:title=" ">
<polygon fill="white" stroke="#bfbfbf" points="300.5,-280.5 300.5,-299.5 385.5,-299.5 385.5,-280.5 300.5,-280.5"/>
<text text-anchor="middle" x="343" y="-287.5" font-family="Helvetica,sans-Serif" font-size="10.00">AH/STL/iterator</text>
</a>
</g>
</g>
<!-- Node6&#45;&gt;Node20 -->
<g id="edge32" class="edge"><title>Node6&#45;&gt;Node20</title>
<path fill="none" stroke="midnightblue" d="M313.78,-336.083C318.672,-328.534 325.827,-317.495 331.833,-308.23"/>
<polygon fill="midnightblue" stroke="midnightblue" points="334.826,-310.046 337.328,-299.751 328.952,-306.239 334.826,-310.046"/>
</g>
<!-- Node21 -->
<g id="node21" class="node"><title>Node21</title>
<g id="a_node21"><a xlink:title=" ">
<polygon fill="white" stroke="#bfbfbf" points="142.5,-280.5 142.5,-299.5 243.5,-299.5 243.5,-280.5 142.5,-280.5"/>
<text text-anchor="middle" x="193" y="-287.5" font-family="Helvetica,sans-Serif" font-size="10.00">AH/STL/type_traits</text>
</a>
</g>
</g>
<!-- Node6&#45;&gt;Node21 -->
<g id="edge33" class="edge"><title>Node6&#45;&gt;Node21</title>
<path fill="none" stroke="midnightblue" d="M289.778,-336.444C271.104,-327.675 241.844,-313.935 220.383,-303.858"/>
<polygon fill="midnightblue" stroke="midnightblue" points="221.676,-300.599 211.137,-299.516 218.701,-306.935 221.676,-300.599"/>
</g>
<!-- Node7&#45;&gt;Node2 -->
<g id="edge10" class="edge"><title>Node7&#45;&gt;Node2</title>
<path fill="none" stroke="midnightblue" d="M427.222,-280.441C365.963,-258.395 213.605,-193.036 171,-76 160.512,-47.1906 189.858,-31.0446 222.969,-22.0513"/>
<polygon fill="midnightblue" stroke="midnightblue" points="223.991,-25.4038 232.85,-19.5919 222.3,-18.611 223.991,-25.4038"/>
</g>
<!-- Node8 -->
<g id="node8" class="node"><title>Node8</title>
<g id="a_node8"><a xlink:href="../../df/dee/Debug_8hpp.html" target="_top" xlink:title=" ">
<polygon fill="white" stroke="black" points="396.5,-224.5 396.5,-243.5 509.5,-243.5 509.5,-224.5 396.5,-224.5"/>
<text text-anchor="middle" x="453" y="-231.5" font-family="Helvetica,sans-Serif" font-size="10.00">AH/Debug/Debug.hpp</text>
</a>
</g>
</g>
<!-- Node7&#45;&gt;Node8 -->
<g id="edge11" class="edge"><title>Node7&#45;&gt;Node8</title>
<path fill="none" stroke="midnightblue" d="M453,-280.083C453,-273.006 453,-262.861 453,-253.986"/>
<polygon fill="midnightblue" stroke="midnightblue" points="456.5,-253.751 453,-243.751 449.5,-253.751 456.5,-253.751"/>
</g>
<!-- Node8&#45;&gt;Node2 -->
<g id="edge12" class="edge"><title>Node8&#45;&gt;Node2</title>
<path fill="none" stroke="midnightblue" d="M396.476,-225.9C351.368,-218.936 293.422,-206.627 279,-188 242.305,-140.608 272.112,-63.4392 288.721,-28.8084"/>
<polygon fill="midnightblue" stroke="midnightblue" points="292.03,-30.0171 293.364,-19.5066 285.767,-26.8911 292.03,-30.0171"/>
</g>
<!-- Node9 -->
<g id="node9" class="node"><title>Node9</title>
<g id="a_node9"><a xlink:href="../../dd/d80/PrintStream_8hpp.html" target="_top" xlink:title=" ">
<polygon fill="white" stroke="black" points="325.5,-56.5 325.5,-75.5 484.5,-75.5 484.5,-56.5 325.5,-56.5"/>
<text text-anchor="middle" x="405" y="-63.5" font-family="Helvetica,sans-Serif" font-size="10.00">AH/PrintStream/PrintStream.hpp</text>
</a>
</g>
</g>
<!-- Node8&#45;&gt;Node9 -->
<g id="edge13" class="edge"><title>Node8&#45;&gt;Node9</title>
<path fill="none" stroke="midnightblue" d="M443.573,-224.439C426.722,-208.351 392.239,-171.637 382,-132 377.753,-115.56 385.274,-97.3833 392.825,-84.4411"/>
<polygon fill="midnightblue" stroke="midnightblue" points="395.986,-85.9936 398.411,-75.6801 390.084,-82.2301 395.986,-85.9936"/>
</g>
<!-- Node10 -->
<g id="node10" class="node"><title>Node10</title>
<g id="a_node10"><a xlink:href="../../de/dd1/AH_2Settings_2SettingsWrapper_8hpp.html" target="_top" xlink:title=" ">
<polygon fill="white" stroke="black" points="422,-168.5 422,-187.5 586,-187.5 586,-168.5 422,-168.5"/>
<text text-anchor="middle" x="504" y="-175.5" font-family="Helvetica,sans-Serif" font-size="10.00">AH/Settings/SettingsWrapper.hpp</text>
</a>
</g>
</g>
<!-- Node8&#45;&gt;Node10 -->
<g id="edge16" class="edge"><title>Node8&#45;&gt;Node10</title>
<path fill="none" stroke="midnightblue" d="M456.255,-224.083C462.138,-216.062 473.099,-204.101 483.172,-194.515"/>
<polygon fill="midnightblue" stroke="midnightblue" points="485.564,-197.07 490.604,-187.751 480.853,-191.893 485.564,-197.07"/>
</g>
<!-- Node19 -->
<g id="node19" class="node"><title>Node19</title>
<g id="a_node19"><a xlink:href="../../d7/d52/DebugVal_8hpp.html" target="_top" xlink:title=" ">
<polygon fill="white" stroke="black" points="288,-168.5 288,-187.5 366,-187.5 366,-168.5 288,-168.5"/>
<text text-anchor="middle" x="327" y="-175.5" font-family="Helvetica,sans-Serif" font-size="10.00">DebugVal.hpp</text>
</a>
</g>
</g>
<!-- Node8&#45;&gt;Node19 -->
<g id="edge31" class="edge"><title>Node8&#45;&gt;Node19</title>
<path fill="none" stroke="midnightblue" d="M433.035,-224.444C412.391,-215.596 379.937,-201.687 356.368,-191.586"/>
<polygon fill="midnightblue" stroke="midnightblue" points="357.442,-188.239 346.872,-187.516 354.684,-194.673 357.442,-188.239"/>
</g>
<!-- Node9&#45;&gt;Node2 -->
<g id="edge14" class="edge"><title>Node9&#45;&gt;Node2</title>
<path fill="none" stroke="midnightblue" d="M387.809,-56.324C370.649,-47.6641 344.054,-34.2424 324.253,-24.249"/>
<polygon fill="midnightblue" stroke="midnightblue" points="325.653,-21.0354 315.149,-19.6545 322.499,-27.2847 325.653,-21.0354"/>
</g>
<!-- Node9&#45;&gt;Node3 -->
<g id="edge15" class="edge"><title>Node9&#45;&gt;Node3</title>
<path fill="none" stroke="midnightblue" d="M481.74,-56.4733C586.696,-44.8115 771.151,-24.3166 851.609,-15.3767"/>
<polygon fill="midnightblue" stroke="midnightblue" points="852.249,-18.8273 861.801,-14.2443 851.476,-11.8701 852.249,-18.8273"/>
</g>
<!-- Node10&#45;&gt;Node2 -->
<g id="edge17" class="edge"><title>Node10&#45;&gt;Node2</title>
<path fill="none" stroke="midnightblue" d="M466.089,-168.432C421.693,-156.198 349.919,-129.074 316,-76 307.034,-61.971 302.475,-43.474 300.193,-29.8001"/>
<polygon fill="midnightblue" stroke="midnightblue" points="303.625,-29.0672 298.766,-19.6524 296.693,-30.0425 303.625,-29.0672"/>
</g>
<!-- Node10&#45;&gt;Node8 -->
<g id="edge30" class="edge"><title>Node10&#45;&gt;Node8</title>
<path fill="none" stroke="midnightblue" d="M500.806,-187.834C494.927,-195.869 483.897,-207.909 473.773,-217.537"/>
<polygon fill="midnightblue" stroke="midnightblue" points="471.353,-215.007 466.309,-224.324 476.062,-220.186 471.353,-215.007"/>
</g>
<!-- Node10&#45;&gt;Node11 -->
<g id="edge18" class="edge"><title>Node10&#45;&gt;Node11</title>
<path fill="none" stroke="midnightblue" d="M586.047,-175.632C730.16,-172.463 1022.7,-162.395 1120,-132 1166.78,-117.386 1181.89,-112.141 1215,-76 1227.38,-62.4822 1235.75,-43.1261 1240.64,-29.054"/>
<polygon fill="midnightblue" stroke="midnightblue" points="1243.98,-30.0985 1243.71,-19.5071 1237.32,-27.9553 1243.98,-30.0985"/>
</g>
<!-- Node12 -->
<g id="node12" class="node"><title>Node12</title>
<g id="a_node12"><a xlink:href="../../d5/d4f/AH_2Settings_2Settings_8hpp.html" target="_top" xlink:title="All user settings and debugging options can be changed here.">
<polygon fill="white" stroke="black" points="615.5,-112.5 615.5,-131.5 686.5,-131.5 686.5,-112.5 615.5,-112.5"/>
<text text-anchor="middle" x="651" y="-119.5" font-family="Helvetica,sans-Serif" font-size="10.00">Settings.hpp</text>
</a>
</g>
</g>
<!-- Node10&#45;&gt;Node12 -->
<g id="edge19" class="edge"><title>Node10&#45;&gt;Node12</title>
<path fill="none" stroke="midnightblue" d="M527.293,-168.444C551.807,-159.438 590.596,-145.189 618.2,-135.049"/>
<polygon fill="midnightblue" stroke="midnightblue" points="619.637,-138.25 627.816,-131.516 617.223,-131.679 619.637,-138.25"/>
</g>
<!-- Node18 -->
<g id="node18" class="node"><title>Node18</title>
<g id="a_node18"><a xlink:href="../../d9/d98/TeensyUSBTypes_8hpp.html" target="_top" xlink:title=" ">
<polygon fill="white" stroke="black" points="391,-112.5 391,-131.5 559,-131.5 559,-112.5 391,-112.5"/>
<text text-anchor="middle" x="475" y="-119.5" font-family="Helvetica,sans-Serif" font-size="10.00">AH/Teensy/TeensyUSBTypes.hpp</text>
</a>
</g>
</g>
<!-- Node10&#45;&gt;Node18 -->
<g id="edge29" class="edge"><title>Node10&#45;&gt;Node18</title>
<path fill="none" stroke="midnightblue" d="M499.211,-168.083C495.242,-160.691 489.475,-149.953 484.565,-140.811"/>
<polygon fill="midnightblue" stroke="midnightblue" points="487.514,-138.905 479.7,-131.751 481.347,-142.217 487.514,-138.905"/>
</g>
<!-- Node13 -->
<g id="node13" class="node"><title>Node13</title>
<g id="a_node13"><a xlink:href="../../dc/d50/Frequency_8hpp.html" target="_top" xlink:title=" ">
<polygon fill="white" stroke="black" points="772,-56.5 772,-75.5 900,-75.5 900,-56.5 772,-56.5"/>
<text text-anchor="middle" x="836" y="-63.5" font-family="Helvetica,sans-Serif" font-size="10.00">AH/Types/Frequency.hpp</text>
</a>
</g>
</g>
<!-- Node12&#45;&gt;Node13 -->
<g id="edge20" class="edge"><title>Node12&#45;&gt;Node13</title>
<path fill="none" stroke="midnightblue" d="M680.314,-112.444C711.842,-103.241 762.131,-88.5617 796.986,-78.3879"/>
<polygon fill="midnightblue" stroke="midnightblue" points="798.205,-81.6783 806.823,-75.5164 796.243,-74.9587 798.205,-81.6783"/>
</g>
<!-- Node14 -->
<g id="node14" class="node"><title>Node14</title>
<g id="a_node14"><a xlink:href="../../d7/d7c/ADCConfig_8hpp.html" target="_top" xlink:title="This file contains the platform&#45;specific ADC resolutions. By default, the library automatically selec...">
<polygon fill="white" stroke="black" points="606,-56.5 606,-75.5 754,-75.5 754,-56.5 606,-56.5"/>
<text text-anchor="middle" x="680" y="-63.5" font-family="Helvetica,sans-Serif" font-size="10.00">AH/Hardware/ADCConfig.hpp</text>
</a>
</g>
</g>
<!-- Node12&#45;&gt;Node14 -->
<g id="edge23" class="edge"><title>Node12&#45;&gt;Node14</title>
<path fill="none" stroke="midnightblue" d="M655.789,-112.083C659.758,-104.691 665.525,-93.9533 670.435,-84.8111"/>
<polygon fill="midnightblue" stroke="midnightblue" points="673.653,-86.217 675.3,-75.7511 667.486,-82.9051 673.653,-86.217"/>
</g>
<!-- Node15 -->
<g id="node15" class="node"><title>Node15</title>
<g id="a_node15"><a xlink:title=" ">
<polygon fill="white" stroke="#bfbfbf" points="540,-56.5 540,-75.5 588,-75.5 588,-56.5 540,-56.5"/>
<text text-anchor="middle" x="564" y="-63.5" font-family="Helvetica,sans-Serif" font-size="10.00">limits.h</text>
</a>
</g>
</g>
<!-- Node12&#45;&gt;Node15 -->
<g id="edge26" class="edge"><title>Node12&#45;&gt;Node15</title>
<path fill="none" stroke="midnightblue" d="M637.022,-112.324C623.45,-103.9 602.62,-90.9709 586.675,-81.0741"/>
<polygon fill="midnightblue" stroke="midnightblue" points="588.286,-77.9544 577.943,-75.6545 584.594,-83.9019 588.286,-77.9544"/>
</g>
<!-- Node12&#45;&gt;Node16 -->
<g id="edge27" class="edge"><title>Node12&#45;&gt;Node16</title>
<path fill="none" stroke="midnightblue" d="M615.336,-116.672C532.168,-106.58 326.088,-81.5724 242.298,-71.4047"/>
<polygon fill="midnightblue" stroke="midnightblue" points="242.586,-67.9141 232.238,-70.1839 241.743,-74.8631 242.586,-67.9141"/>
</g>
<!-- Node12&#45;&gt;Node17 -->
<g id="edge28" class="edge"><title>Node12&#45;&gt;Node17</title>
<path fill="none" stroke="midnightblue" d="M686.504,-114.579C691.373,-113.707 696.31,-112.828 701,-112 790.323,-96.2313 815.677,-96.0191 908.383,-75.9751"/>
<polygon fill="midnightblue" stroke="midnightblue" points="909.154,-79.3894 918.178,-73.8384 907.662,-72.5502 909.154,-79.3894"/>
</g>
<!-- Node13&#45;&gt;Node2 -->
<g id="edge21" class="edge"><title>Node13&#45;&gt;Node2</title>
<path fill="none" stroke="midnightblue" d="M771.917,-57.003C768.903,-56.6573 765.919,-56.3212 763,-56 626.43,-40.9757 466.992,-26.1309 374.75,-17.8068"/>
<polygon fill="midnightblue" stroke="midnightblue" points="374.938,-14.3096 364.665,-16.8985 374.31,-21.2814 374.938,-14.3096"/>
</g>
<!-- Node13&#45;&gt;Node11 -->
<g id="edge22" class="edge"><title>Node13&#45;&gt;Node11</title>
<path fill="none" stroke="midnightblue" d="M900.062,-56.5625C974.209,-46.7969 1096.03,-30.7519 1173.56,-20.5405"/>
<polygon fill="midnightblue" stroke="midnightblue" points="1174.27,-23.9774 1183.73,-19.2014 1173.36,-17.0373 1174.27,-23.9774"/>
</g>
<!-- Node14&#45;&gt;Node2 -->
<g id="edge24" class="edge"><title>Node14&#45;&gt;Node2</title>
<path fill="none" stroke="midnightblue" d="M619.471,-56.4435C551.295,-46.8061 440.638,-31.1635 368.587,-20.9782"/>
<polygon fill="midnightblue" stroke="midnightblue" points="368.637,-17.4507 358.246,-19.5164 367.657,-24.3818 368.637,-17.4507"/>
</g>
<!-- Node14&#45;&gt;Node3 -->
<g id="edge25" class="edge"><title>Node14&#45;&gt;Node3</title>
<path fill="none" stroke="midnightblue" d="M713.434,-56.4435C751.062,-46.8136 812.119,-31.1876 851.919,-21.0018"/>
<polygon fill="midnightblue" stroke="midnightblue" points="852.98,-24.3431 861.8,-18.473 851.244,-17.5617 852.98,-24.3431"/>
</g>
<!-- Node22&#45;&gt;Node2 -->
<g id="edge38" class="edge"><title>Node22&#45;&gt;Node2</title>
<path fill="none" stroke="midnightblue" d="M669.307,-280.177C660.956,-271.436 648.274,-257.446 639,-244 601.178,-189.163 611.496,-162.455 568,-112 540.838,-80.4917 530.742,-73.4961 493,-56 455.976,-38.8366 411.876,-27.9498 374.988,-21.1932"/>
<polygon fill="midnightblue" stroke="midnightblue" points="375.242,-17.6841 364.787,-19.3952 374.027,-24.5779 375.242,-17.6841"/>
</g>
<!-- Node22&#45;&gt;Node8 -->
<g id="edge39" class="edge"><title>Node22&#45;&gt;Node8</title>
<path fill="none" stroke="midnightblue" d="M642.348,-280.444C603.344,-271.083 540.734,-256.056 498.283,-245.868"/>
<polygon fill="midnightblue" stroke="midnightblue" points="499.026,-242.447 488.485,-243.516 497.392,-249.254 499.026,-242.447"/>
</g>
<!-- Node23 -->
<g id="node23" class="node"><title>Node23</title>
<g id="a_node23"><a xlink:href="../../d7/d79/MinMaxFix_8hpp.html" target="_top" xlink:title=" ">
<polygon fill="white" stroke="black" points="986.5,-112.5 986.5,-131.5 1111.5,-131.5 1111.5,-112.5 986.5,-112.5"/>
<text text-anchor="middle" x="1049" y="-119.5" font-family="Helvetica,sans-Serif" font-size="10.00">AH/Math/MinMaxFix.hpp</text>
</a>
</g>
</g>
<!-- Node22&#45;&gt;Node23 -->
<g id="edge40" class="edge"><title>Node22&#45;&gt;Node23</title>
<path fill="none" stroke="midnightblue" d="M697.165,-280.425C758.102,-253.159 947.649,-168.348 1020.28,-135.851"/>
<polygon fill="midnightblue" stroke="midnightblue" points="1022.03,-138.903 1029.73,-131.624 1019.17,-132.513 1022.03,-138.903"/>
</g>
<!-- Node25 -->
<g id="node25" class="node"><title>Node25</title>
<g id="a_node25"><a xlink:title=" ">
<polygon fill="white" stroke="#bfbfbf" points="648,-224.5 648,-243.5 696,-243.5 696,-224.5 648,-224.5"/>
<text text-anchor="middle" x="672" y="-231.5" font-family="Helvetica,sans-Serif" font-size="10.00">stdlib.h</text>
</a>
</g>
</g>
<!-- Node22&#45;&gt;Node25 -->
<g id="edge46" class="edge"><title>Node22&#45;&gt;Node25</title>
<path fill="none" stroke="midnightblue" d="M677.009,-280.083C676.214,-272.927 675.071,-262.635 674.077,-253.691"/>
<polygon fill="midnightblue" stroke="midnightblue" points="677.555,-253.303 672.972,-243.751 670.598,-254.076 677.555,-253.303"/>
</g>
<!-- Node26 -->
<g id="node26" class="node"><title>Node26</title>
<g id="a_node26"><a xlink:title=" ">
<polygon fill="white" stroke="#bfbfbf" points="714.5,-224.5 714.5,-243.5 761.5,-243.5 761.5,-224.5 714.5,-224.5"/>
<text text-anchor="middle" x="738" y="-231.5" font-family="Helvetica,sans-Serif" font-size="10.00">iterator</text>
</a>
</g>
</g>
<!-- Node22&#45;&gt;Node26 -->
<g id="edge47" class="edge"><title>Node22&#45;&gt;Node26</title>
<path fill="none" stroke="midnightblue" d="M687.64,-280.324C696.51,-272.341 709.875,-260.313 720.608,-250.653"/>
<polygon fill="midnightblue" stroke="midnightblue" points="723.093,-253.125 728.185,-243.834 718.41,-247.922 723.093,-253.125"/>
</g>
<!-- Node23&#45;&gt;Node2 -->
<g id="edge41" class="edge"><title>Node23&#45;&gt;Node2</title>
<path fill="none" stroke="midnightblue" d="M1042.51,-112.288C1031,-97.6062 1005.42,-68.3319 976,-56 921.751,-33.2629 540.491,-18.64 374.696,-13.289"/>
<polygon fill="midnightblue" stroke="midnightblue" points="374.677,-9.78669 364.57,-12.9651 374.453,-16.7831 374.677,-9.78669"/>
</g>
<!-- Node23&#45;&gt;Node11 -->
<g id="edge45" class="edge"><title>Node23&#45;&gt;Node11</title>
<path fill="none" stroke="midnightblue" d="M1096.22,-112.496C1124.76,-105.795 1160.94,-94.4248 1189,-76 1207.94,-63.5671 1224.36,-43.1993 1234.65,-28.5754"/>
<polygon fill="midnightblue" stroke="midnightblue" points="1237.79,-30.1808 1240.49,-19.936 1231.99,-26.2603 1237.79,-30.1808"/>
</g>
<!-- Node24 -->
<g id="node24" class="node"><title>Node24</title>
<g id="a_node24"><a xlink:href="../../d6/d3b/FixArduinoMacros_8hpp.html" target="_top" xlink:title=" ">
<polygon fill="white" stroke="black" points="1024,-56.5 1024,-75.5 1180,-75.5 1180,-56.5 1024,-56.5"/>
<text text-anchor="middle" x="1102" y="-63.5" font-family="Helvetica,sans-Serif" font-size="10.00">AH/Math/FixArduinoMacros.hpp</text>
</a>
</g>
</g>
<!-- Node23&#45;&gt;Node24 -->
<g id="edge42" class="edge"><title>Node23&#45;&gt;Node24</title>
<path fill="none" stroke="midnightblue" d="M1057.75,-112.083C1065.47,-104.22 1076.9,-92.5688 1086.22,-83.0813"/>
<polygon fill="midnightblue" stroke="midnightblue" points="1088.9,-85.3396 1093.41,-75.7511 1083.91,-80.4363 1088.9,-85.3396"/>
</g>
<!-- Node24&#45;&gt;Node2 -->
<g id="edge43" class="edge"><title>Node24&#45;&gt;Node2</title>
<path fill="none" stroke="midnightblue" d="M1023.72,-57.1574C1019.08,-56.7498 1014.48,-56.3605 1010,-56 779.21,-37.4237 505.819,-21.9819 375.107,-15.0022"/>
<polygon fill="midnightblue" stroke="midnightblue" points="374.977,-11.4904 364.805,-14.4539 374.605,-18.4805 374.977,-11.4904"/>
</g>
<!-- Node24&#45;&gt;Node3 -->
<g id="edge44" class="edge"><title>Node24&#45;&gt;Node3</title>
<path fill="none" stroke="midnightblue" d="M1068.57,-56.4435C1030.94,-46.8136 969.881,-31.1876 930.081,-21.0018"/>
<polygon fill="midnightblue" stroke="midnightblue" points="930.756,-17.5617 920.2,-18.473 929.02,-24.3431 930.756,-17.5617"/>
</g>
</g>
</svg>
