<?xml version="1.0" encoding="UTF-8" standalone="no"?>
<!DOCTYPE svg PUBLIC "-//W3C//DTD SVG 1.1//EN"
 "http://www.w3.org/Graphics/SVG/1.1/DTD/svg11.dtd">
<!-- Generated by graphviz version 2.38.0 (20140413.2041)
 -->
<!-- Title: Bankable::TwoSingleAddresses Pages: 1 -->
<svg width="316pt" height="788pt"
 viewBox="0.00 0.00 316.00 788.00" xmlns="http://www.w3.org/2000/svg" xmlns:xlink="http://www.w3.org/1999/xlink">
<g id="graph0" class="graph" transform="scale(1 1) rotate(0) translate(4 784)">
<title>Bankable::TwoSingleAddresses</title>
<polygon fill="white" stroke="none" points="-4,4 -4,-784 312,-784 312,4 -4,4"/>
<!-- Node1 -->
<g id="node1" class="node"><title>Node1</title>
<g id="a_node1"><a xlink:title=" ">
<polygon fill="#bfbfbf" stroke="black" points="96.5,-0.5 96.5,-79.5 251.5,-79.5 251.5,-0.5 96.5,-0.5"/>
<text text-anchor="middle" x="174" y="-67.5" font-family="Helvetica,sans-Serif" font-size="10.00">Bankable::TwoSingleAddresses</text>
<polyline fill="none" stroke="black" points="96.5,-60.5 251.5,-60.5 "/>
<text text-anchor="middle" x="174" y="-48.5" font-family="Helvetica,sans-Serif" font-size="10.00"> </text>
<polyline fill="none" stroke="black" points="96.5,-41.5 251.5,-41.5 "/>
<text text-anchor="start" x="104.5" y="-29.5" font-family="Helvetica,sans-Serif" font-size="10.00">+ TwoSingleAddresses()</text>
<text text-anchor="start" x="104.5" y="-18.5" font-family="Helvetica,sans-Serif" font-size="10.00">+ getBaseAddress()</text>
<text text-anchor="start" x="104.5" y="-7.5" font-family="Helvetica,sans-Serif" font-size="10.00">+ getActiveAddress()</text>
</a>
</g>
</g>
<!-- Node2 -->
<g id="node2" class="node"><title>Node2</title>
<g id="a_node2"><a xlink:href="../../d3/d43/classBankableMIDIOutput.html" target="_top" xlink:title="A base class for all MIDIOutputElements that can be banked.">
<polygon fill="white" stroke="black" points="18.5,-177 18.5,-256 141.5,-256 141.5,-177 18.5,-177"/>
<text text-anchor="middle" x="80" y="-244" font-family="Helvetica,sans-Serif" font-size="10.00">BankableMIDIOutput</text>
<polyline fill="none" stroke="black" points="18.5,-237 141.5,-237 "/>
<text text-anchor="start" x="26.5" y="-225" font-family="Helvetica,sans-Serif" font-size="10.00">&#45; type</text>
<polyline fill="none" stroke="black" points="18.5,-218 141.5,-218 "/>
<text text-anchor="start" x="26.5" y="-206" font-family="Helvetica,sans-Serif" font-size="10.00">+ BankableMIDIOutput()</text>
<text text-anchor="start" x="26.5" y="-195" font-family="Helvetica,sans-Serif" font-size="10.00">+ BankableMIDIOutput()</text>
<text text-anchor="start" x="26.5" y="-184" font-family="Helvetica,sans-Serif" font-size="10.00">+ getAddressOffset()</text>
</a>
</g>
</g>
<!-- Node2&#45;&gt;Node1 -->
<g id="edge1" class="edge"><title>Node2&#45;&gt;Node1</title>
<path fill="none" stroke="midnightblue" d="M105.77,-167.661C120.686,-139.971 139.214,-105.576 153.197,-79.6189"/>
<polygon fill="none" stroke="midnightblue" points="102.523,-166.309 100.862,-176.773 108.686,-169.629 102.523,-166.309"/>
</g>
<!-- Node3 -->
<g id="node3" class="node"><title>Node3</title>
<g id="a_node3"><a xlink:href="../../d4/d6e/classBankableMIDIOutput__Base.html" target="_top" xlink:title=" ">
<polygon fill="white" stroke="black" points="0,-430.5 0,-542.5 150,-542.5 150,-430.5 0,-430.5"/>
<text text-anchor="middle" x="75" y="-530.5" font-family="Helvetica,sans-Serif" font-size="10.00">BankableMIDIOutput_Base</text>
<polyline fill="none" stroke="black" points="0,-523.5 150,-523.5 "/>
<text text-anchor="start" x="8" y="-511.5" font-family="Helvetica,sans-Serif" font-size="10.00">&#45; lockedSetting</text>
<text text-anchor="start" x="8" y="-500.5" font-family="Helvetica,sans-Serif" font-size="10.00">&#45; UNLOCKED</text>
<polyline fill="none" stroke="black" points="0,-493.5 150,-493.5 "/>
<text text-anchor="start" x="8" y="-481.5" font-family="Helvetica,sans-Serif" font-size="10.00">+ getRawBankSetting()</text>
<text text-anchor="start" x="8" y="-470.5" font-family="Helvetica,sans-Serif" font-size="10.00">+ getSelection()</text>
<text text-anchor="start" x="8" y="-459.5" font-family="Helvetica,sans-Serif" font-size="10.00">+ lock()</text>
<text text-anchor="start" x="8" y="-448.5" font-family="Helvetica,sans-Serif" font-size="10.00">+ unlock()</text>
<text text-anchor="start" x="8" y="-437.5" font-family="Helvetica,sans-Serif" font-size="10.00"># BankableMIDIOutput_Base()</text>
</a>
</g>
</g>
<!-- Node3&#45;&gt;Node2 -->
<g id="edge2" class="edge"><title>Node3&#45;&gt;Node2</title>
<path fill="none" stroke="midnightblue" d="M76.2168,-420.282C77.1751,-368.915 78.4786,-299.047 79.2785,-256.175"/>
<polygon fill="none" stroke="midnightblue" points="72.7172,-420.232 76.0299,-430.295 79.716,-420.362 72.7172,-420.232"/>
</g>
<!-- Node4 -->
<g id="node4" class="node"><title>Node4</title>
<g id="a_node4"><a xlink:href="../../d9/d36/classOutputBank.html" target="_top" xlink:title="A class for changing the address of BankableMIDIOutputs.">
<polygon fill="white" stroke="black" points="18.5,-667.5 18.5,-779.5 131.5,-779.5 131.5,-667.5 18.5,-667.5"/>
<text text-anchor="middle" x="75" y="-767.5" font-family="Helvetica,sans-Serif" font-size="10.00">OutputBank</text>
<polyline fill="none" stroke="black" points="18.5,-760.5 131.5,-760.5 "/>
<text text-anchor="start" x="26.5" y="-748.5" font-family="Helvetica,sans-Serif" font-size="10.00">&#45; tracksPerBank</text>
<text text-anchor="start" x="26.5" y="-737.5" font-family="Helvetica,sans-Serif" font-size="10.00">&#45; bankSetting</text>
<polyline fill="none" stroke="black" points="18.5,-730.5 131.5,-730.5 "/>
<text text-anchor="start" x="26.5" y="-718.5" font-family="Helvetica,sans-Serif" font-size="10.00">+ OutputBank()</text>
<text text-anchor="start" x="26.5" y="-707.5" font-family="Helvetica,sans-Serif" font-size="10.00">+ select()</text>
<text text-anchor="start" x="26.5" y="-696.5" font-family="Helvetica,sans-Serif" font-size="10.00">+ getSelection()</text>
<text text-anchor="start" x="26.5" y="-685.5" font-family="Helvetica,sans-Serif" font-size="10.00">+ getTracksPerBank()</text>
<text text-anchor="start" x="26.5" y="-674.5" font-family="Helvetica,sans-Serif" font-size="10.00">+ getOffset()</text>
</a>
</g>
</g>
<!-- Node4&#45;&gt;Node3 -->
<g id="edge3" class="edge"><title>Node4&#45;&gt;Node3</title>
<path fill="none" stroke="#404040" d="M75,-667.403C75,-633.788 75,-590.574 75,-554.924"/>
<polygon fill="none" stroke="#404040" points="75.0001,-554.659 71,-548.659 75,-542.659 79,-548.658 75.0001,-554.659"/>
<text text-anchor="middle" x="90" y="-641" font-family="Helvetica,sans-Serif" font-size="10.00"> #bank</text>
</g>
<!-- Node5 -->
<g id="node5" class="node"><title>Node5</title>
<g id="a_node5"><a xlink:href="../../d0/d32/structAH_1_1Array.html" target="_top" xlink:title=" ">
<polygon fill="white" stroke="black" points="166,-127.5 166,-305.5 308,-305.5 308,-127.5 166,-127.5"/>
<text text-anchor="start" x="174" y="-293.5" font-family="Helvetica,sans-Serif" font-size="10.00">AH::Array&lt; MIDICNChannel</text>
<text text-anchor="middle" x="237" y="-282.5" font-family="Helvetica,sans-Serif" font-size="10.00">Address, 2 &gt;</text>
<polyline fill="none" stroke="black" points="166,-275.5 308,-275.5 "/>
<text text-anchor="start" x="174" y="-263.5" font-family="Helvetica,sans-Serif" font-size="10.00">+ length</text>
<polyline fill="none" stroke="black" points="166,-256.5 308,-256.5 "/>
<text text-anchor="start" x="174" y="-244.5" font-family="Helvetica,sans-Serif" font-size="10.00">+ operator[]()</text>
<text text-anchor="start" x="174" y="-233.5" font-family="Helvetica,sans-Serif" font-size="10.00">+ operator[]()</text>
<text text-anchor="start" x="174" y="-222.5" font-family="Helvetica,sans-Serif" font-size="10.00">+ begin()</text>
<text text-anchor="start" x="174" y="-211.5" font-family="Helvetica,sans-Serif" font-size="10.00">+ begin()</text>
<text text-anchor="start" x="174" y="-200.5" font-family="Helvetica,sans-Serif" font-size="10.00">+ end()</text>
<text text-anchor="start" x="174" y="-189.5" font-family="Helvetica,sans-Serif" font-size="10.00">+ end()</text>
<text text-anchor="start" x="174" y="-178.5" font-family="Helvetica,sans-Serif" font-size="10.00">+ operator==()</text>
<text text-anchor="start" x="174" y="-167.5" font-family="Helvetica,sans-Serif" font-size="10.00">+ operator!=()</text>
<text text-anchor="start" x="174" y="-156.5" font-family="Helvetica,sans-Serif" font-size="10.00">+ slice()</text>
<text text-anchor="start" x="174" y="-145.5" font-family="Helvetica,sans-Serif" font-size="10.00">+ slice()</text>
<text text-anchor="start" x="174" y="-134.5" font-family="Helvetica,sans-Serif" font-size="10.00">+ cslice()</text>
</a>
</g>
</g>
<!-- Node5&#45;&gt;Node1 -->
<g id="edge4" class="edge"><title>Node5&#45;&gt;Node1</title>
<path fill="none" stroke="#404040" d="M205.223,-127.483C200.729,-115.036 196.243,-102.609 192.13,-91.217"/>
<polygon fill="none" stroke="#404040" points="192.069,-91.0488 186.269,-86.7637 187.994,-79.7619 193.794,-84.047 192.069,-91.0488"/>
<text text-anchor="middle" x="225" y="-101" font-family="Helvetica,sans-Serif" font-size="10.00"> &#45;addresses</text>
</g>
<!-- Node6 -->
<g id="node6" class="node"><title>Node6</title>
<g id="a_node6"><a xlink:href="../../d3/d10/classMIDICNChannelAddress.html" target="_top" xlink:title="A type&#45;safe utility class for saving a MIDI address consisting of a 7&#45;bit address,...">
<polygon fill="white" stroke="black" points="168,-353.5 168,-619.5 308,-619.5 308,-353.5 168,-353.5"/>
<text text-anchor="middle" x="238" y="-607.5" font-family="Helvetica,sans-Serif" font-size="10.00">MIDICNChannelAddress</text>
<polyline fill="none" stroke="black" points="168,-600.5 308,-600.5 "/>
<text text-anchor="start" x="176" y="-588.5" font-family="Helvetica,sans-Serif" font-size="10.00">&#45; addresses</text>
<polyline fill="none" stroke="black" points="168,-581.5 308,-581.5 "/>
<text text-anchor="start" x="176" y="-569.5" font-family="Helvetica,sans-Serif" font-size="10.00">+ MIDICNChannelAddress()</text>
<text text-anchor="start" x="176" y="-558.5" font-family="Helvetica,sans-Serif" font-size="10.00">+ MIDICNChannelAddress()</text>
<text text-anchor="start" x="176" y="-547.5" font-family="Helvetica,sans-Serif" font-size="10.00">+ MIDICNChannelAddress()</text>
<text text-anchor="start" x="176" y="-536.5" font-family="Helvetica,sans-Serif" font-size="10.00">+ MIDICNChannelAddress()</text>
<text text-anchor="start" x="176" y="-525.5" font-family="Helvetica,sans-Serif" font-size="10.00">+ MIDICNChannelAddress()</text>
<text text-anchor="start" x="176" y="-514.5" font-family="Helvetica,sans-Serif" font-size="10.00">+ operator+=()</text>
<text text-anchor="start" x="176" y="-503.5" font-family="Helvetica,sans-Serif" font-size="10.00">+ operator&#45;=()</text>
<text text-anchor="start" x="176" y="-492.5" font-family="Helvetica,sans-Serif" font-size="10.00">+ operator+()</text>
<text text-anchor="start" x="176" y="-481.5" font-family="Helvetica,sans-Serif" font-size="10.00">+ operator&#45;()</text>
<text text-anchor="start" x="176" y="-470.5" font-family="Helvetica,sans-Serif" font-size="10.00">+ operator==()</text>
<text text-anchor="start" x="176" y="-459.5" font-family="Helvetica,sans-Serif" font-size="10.00">+ operator!=()</text>
<text text-anchor="start" x="176" y="-448.5" font-family="Helvetica,sans-Serif" font-size="10.00">+ getAddress()</text>
<text text-anchor="start" x="176" y="-437.5" font-family="Helvetica,sans-Serif" font-size="10.00">+ getChannel()</text>
<text text-anchor="start" x="176" y="-426.5" font-family="Helvetica,sans-Serif" font-size="10.00">+ getRawChannel()</text>
<text text-anchor="start" x="176" y="-415.5" font-family="Helvetica,sans-Serif" font-size="10.00">+ getCableNumber()</text>
<text text-anchor="start" x="176" y="-404.5" font-family="Helvetica,sans-Serif" font-size="10.00">+ isValid()</text>
<text text-anchor="start" x="176" y="-393.5" font-family="Helvetica,sans-Serif" font-size="10.00">+ operator bool()</text>
<text text-anchor="start" x="176" y="-382.5" font-family="Helvetica,sans-Serif" font-size="10.00">+ matchSingle()</text>
<text text-anchor="start" x="176" y="-371.5" font-family="Helvetica,sans-Serif" font-size="10.00">+ matchAddressInRange()</text>
<text text-anchor="start" x="176" y="-360.5" font-family="Helvetica,sans-Serif" font-size="10.00">+ invalid()</text>
</a>
</g>
</g>
<!-- Node6&#45;&gt;Node5 -->
<g id="edge5" class="edge"><title>Node6&#45;&gt;Node5</title>
<path fill="none" stroke="#404040" d="M237.507,-353.463C237.462,-341.401 237.417,-329.319 237.374,-317.606"/>
<polygon fill="none" stroke="#404040" points="237.373,-317.55 233.351,-311.565 237.329,-305.55 241.351,-311.535 237.373,-317.55"/>
<text text-anchor="middle" x="251" y="-327" font-family="Helvetica,sans-Serif" font-size="10.00"> +data</text>
</g>
</g>
</svg>
