<?xml version="1.0" encoding="UTF-8" standalone="no"?>
<!DOCTYPE svg PUBLIC "-//W3C//DTD SVG 1.1//EN"
 "http://www.w3.org/Graphics/SVG/1.1/DTD/svg11.dtd">
<!-- Generated by graphviz version 2.38.0 (20140413.2041)
 -->
<!-- Title: USBMIDI_Parser.cpp Pages: 1 -->
<svg width="1266pt" height="655pt"
 viewBox="0.00 0.00 1266.00 655.00" xmlns="http://www.w3.org/2000/svg" xmlns:xlink="http://www.w3.org/1999/xlink">
<g id="graph0" class="graph" transform="scale(1 1) rotate(0) translate(4 651)">
<title>USBMIDI_Parser.cpp</title>
<polygon fill="white" stroke="none" points="-4,4 -4,-651 1262,-651 1262,4 -4,4"/>
<!-- Node1 -->
<g id="node1" class="node"><title>Node1</title>
<g id="a_node1"><a xlink:title=" ">
<polygon fill="#bfbfbf" stroke="black" points="1055.5,-627.5 1055.5,-646.5 1167.5,-646.5 1167.5,-627.5 1055.5,-627.5"/>
<text text-anchor="middle" x="1111.5" y="-634.5" font-family="Helvetica,sans-Serif" font-size="10.00">USBMIDI_Parser.cpp</text>
</a>
</g>
</g>
<!-- Node2 -->
<g id="node2" class="node"><title>Node2</title>
<g id="a_node2"><a xlink:href="../../d8/d21/USBMIDI__Parser_8hpp.html" target="_top" xlink:title=" ">
<polygon fill="white" stroke="black" points="925.5,-571.5 925.5,-590.5 1037.5,-590.5 1037.5,-571.5 925.5,-571.5"/>
<text text-anchor="middle" x="981.5" y="-578.5" font-family="Helvetica,sans-Serif" font-size="10.00">USBMIDI_Parser.hpp</text>
</a>
</g>
</g>
<!-- Node1&#45;&gt;Node2 -->
<g id="edge1" class="edge"><title>Node1&#45;&gt;Node2</title>
<path fill="none" stroke="midnightblue" d="M1090.9,-627.444C1069.51,-618.557 1035.82,-604.563 1011.48,-594.451"/>
<polygon fill="midnightblue" stroke="midnightblue" points="1012.58,-591.12 1002,-590.516 1009.89,-597.585 1012.58,-591.12"/>
</g>
<!-- Node26 -->
<g id="node26" class="node"><title>Node26</title>
<g id="a_node26"><a xlink:title=" ">
<polygon fill="white" stroke="#bfbfbf" points="1111,-459.5 1111,-478.5 1258,-478.5 1258,-459.5 1111,-459.5"/>
<text text-anchor="middle" x="1184.5" y="-466.5" font-family="Helvetica,sans-Serif" font-size="10.00">Settings/SettingsWrapper.hpp</text>
</a>
</g>
</g>
<!-- Node1&#45;&gt;Node26 -->
<g id="edge43" class="edge"><title>Node1&#45;&gt;Node26</title>
<path fill="none" stroke="midnightblue" d="M1115.42,-627.075C1126.97,-600.832 1160.95,-523.545 1176.53,-488.117"/>
<polygon fill="midnightblue" stroke="midnightblue" points="1179.91,-489.131 1180.73,-478.568 1173.5,-486.313 1179.91,-489.131"/>
</g>
<!-- Node3 -->
<g id="node3" class="node"><title>Node3</title>
<g id="a_node3"><a xlink:href="../../d7/d2d/MIDI__Parser_8hpp.html" target="_top" xlink:title=" ">
<polygon fill="white" stroke="black" points="871,-515.5 871,-534.5 962,-534.5 962,-515.5 871,-515.5"/>
<text text-anchor="middle" x="916.5" y="-522.5" font-family="Helvetica,sans-Serif" font-size="10.00">MIDI_Parser.hpp</text>
</a>
</g>
</g>
<!-- Node2&#45;&gt;Node3 -->
<g id="edge2" class="edge"><title>Node2&#45;&gt;Node3</title>
<path fill="none" stroke="midnightblue" d="M971.057,-571.324C961.354,-563.263 946.685,-551.077 935,-541.369"/>
<polygon fill="midnightblue" stroke="midnightblue" points="937.062,-538.532 927.133,-534.834 932.589,-543.916 937.062,-538.532"/>
</g>
<!-- Node10 -->
<g id="node10" class="node"><title>Node10</title>
<g id="a_node10"><a xlink:href="../../de/d76/Array_8hpp.html" target="_top" xlink:title=" ">
<polygon fill="white" stroke="black" points="522.5,-336.5 522.5,-355.5 648.5,-355.5 648.5,-336.5 522.5,-336.5"/>
<text text-anchor="middle" x="585.5" y="-343.5" font-family="Helvetica,sans-Serif" font-size="10.00">AH/Containers/Array.hpp</text>
</a>
</g>
</g>
<!-- Node2&#45;&gt;Node10 -->
<g id="edge42" class="edge"><title>Node2&#45;&gt;Node10</title>
<path fill="none" stroke="midnightblue" d="M925.306,-574.552C856.685,-565.34 740.186,-541.141 662.5,-479 624.456,-448.569 601.373,-393.88 591.361,-365.389"/>
<polygon fill="midnightblue" stroke="midnightblue" points="594.558,-363.915 588.061,-355.546 587.922,-366.14 594.558,-363.915"/>
</g>
<!-- Node27 -->
<g id="node27" class="node"><title>Node27</title>
<g id="a_node27"><a xlink:href="../../d0/dbb/SysExBuffer_8hpp.html" target="_top" xlink:title=" ">
<polygon fill="white" stroke="black" points="1006,-515.5 1006,-534.5 1097,-534.5 1097,-515.5 1006,-515.5"/>
<text text-anchor="middle" x="1051.5" y="-522.5" font-family="Helvetica,sans-Serif" font-size="10.00">SysExBuffer.hpp</text>
</a>
</g>
</g>
<!-- Node2&#45;&gt;Node27 -->
<g id="edge40" class="edge"><title>Node2&#45;&gt;Node27</title>
<path fill="none" stroke="midnightblue" d="M992.747,-571.324C1003.3,-563.185 1019.3,-550.839 1031.94,-541.087"/>
<polygon fill="midnightblue" stroke="midnightblue" points="1034.27,-543.713 1040.05,-534.834 1029.99,-538.171 1034.27,-543.713"/>
</g>
<!-- Node4 -->
<g id="node4" class="node"><title>Node4</title>
<g id="a_node4"><a xlink:title=" ">
<polygon fill="white" stroke="#bfbfbf" points="631.5,-56.5 631.5,-75.5 683.5,-75.5 683.5,-56.5 631.5,-56.5"/>
<text text-anchor="middle" x="657.5" y="-63.5" font-family="Helvetica,sans-Serif" font-size="10.00">stddef.h</text>
</a>
</g>
</g>
<!-- Node3&#45;&gt;Node4 -->
<g id="edge3" class="edge"><title>Node3&#45;&gt;Node4</title>
<path fill="none" stroke="midnightblue" d="M870.793,-521.969C801.159,-516.148 676.5,-493.814 676.5,-408.5 676.5,-408.5 676.5,-408.5 676.5,-177 676.5,-144.489 668.341,-107.35 662.716,-85.6103"/>
<polygon fill="midnightblue" stroke="midnightblue" points="666.041,-84.498 660.062,-75.7514 659.282,-86.3175 666.041,-84.498"/>
</g>
<!-- Node5 -->
<g id="node5" class="node"><title>Node5</title>
<g id="a_node5"><a xlink:title=" ">
<polygon fill="white" stroke="#bfbfbf" points="986,-56.5 986,-75.5 1035,-75.5 1035,-56.5 986,-56.5"/>
<text text-anchor="middle" x="1010.5" y="-63.5" font-family="Helvetica,sans-Serif" font-size="10.00">stdint.h</text>
</a>
</g>
</g>
<!-- Node3&#45;&gt;Node5 -->
<g id="edge4" class="edge"><title>Node3&#45;&gt;Node5</title>
<path fill="none" stroke="midnightblue" d="M935.671,-515.344C980.13,-493.812 1086.5,-433.279 1086.5,-347 1086.5,-347 1086.5,-347 1086.5,-177 1086.5,-137.276 1052.54,-101.504 1030.02,-82.1536"/>
<polygon fill="midnightblue" stroke="midnightblue" points="1031.98,-79.2364 1022.04,-75.5672 1027.52,-84.6337 1031.98,-79.2364"/>
</g>
<!-- Node6 -->
<g id="node6" class="node"><title>Node6</title>
<g id="a_node6"><a xlink:title=" ">
<polygon fill="white" stroke="#bfbfbf" points="812.5,-459.5 812.5,-478.5 860.5,-478.5 860.5,-459.5 812.5,-459.5"/>
<text text-anchor="middle" x="836.5" y="-466.5" font-family="Helvetica,sans-Serif" font-size="10.00">stdlib.h</text>
</a>
</g>
</g>
<!-- Node3&#45;&gt;Node6 -->
<g id="edge5" class="edge"><title>Node3&#45;&gt;Node6</title>
<path fill="none" stroke="midnightblue" d="M903.647,-515.324C891.284,-506.979 872.37,-494.212 857.763,-484.352"/>
<polygon fill="midnightblue" stroke="midnightblue" points="859.568,-481.348 849.321,-478.655 855.652,-487.15 859.568,-481.348"/>
</g>
<!-- Node7 -->
<g id="node7" class="node"><title>Node7</title>
<g id="a_node7"><a xlink:href="../../d0/d4e/Def_8hpp.html" target="_top" xlink:title=" ">
<polygon fill="white" stroke="black" points="878.5,-459.5 878.5,-478.5 948.5,-478.5 948.5,-459.5 878.5,-459.5"/>
<text text-anchor="middle" x="913.5" y="-466.5" font-family="Helvetica,sans-Serif" font-size="10.00">Def/Def.hpp</text>
</a>
</g>
</g>
<!-- Node3&#45;&gt;Node7 -->
<g id="edge6" class="edge"><title>Node3&#45;&gt;Node7</title>
<path fill="none" stroke="midnightblue" d="M916.005,-515.083C915.611,-508.006 915.048,-497.861 914.555,-488.986"/>
<polygon fill="midnightblue" stroke="midnightblue" points="918.036,-488.542 913.986,-478.751 911.046,-488.93 918.036,-488.542"/>
</g>
<!-- Node3&#45;&gt;Node26 -->
<g id="edge39" class="edge"><title>Node3&#45;&gt;Node26</title>
<path fill="none" stroke="midnightblue" d="M958.965,-515.444C1005.91,-505.984 1081.58,-490.738 1132.15,-480.547"/>
<polygon fill="midnightblue" stroke="midnightblue" points="1133.12,-483.923 1142.23,-478.516 1131.74,-477.061 1133.12,-483.923"/>
</g>
<!-- Node7&#45;&gt;Node4 -->
<g id="edge37" class="edge"><title>Node7&#45;&gt;Node4</title>
<path fill="none" stroke="midnightblue" d="M878.373,-460.193C827.474,-448.74 738.682,-428.182 733.5,-423 708.88,-398.38 714.5,-381.817 714.5,-347 714.5,-347 714.5,-347 714.5,-177 714.5,-140.3 689.179,-103.657 672.29,-83.2973"/>
<polygon fill="midnightblue" stroke="midnightblue" points="674.848,-80.9037 665.667,-75.6161 669.546,-85.475 674.848,-80.9037"/>
</g>
<!-- Node7&#45;&gt;Node5 -->
<g id="edge38" class="edge"><title>Node7&#45;&gt;Node5</title>
<path fill="none" stroke="midnightblue" d="M943.418,-459.394C963.755,-452.314 990.189,-440.556 1008.5,-423 1036.05,-396.584 1048.5,-385.171 1048.5,-347 1048.5,-347 1048.5,-347 1048.5,-177 1048.5,-142.813 1031.9,-105.764 1020.64,-84.5707"/>
<polygon fill="midnightblue" stroke="midnightblue" points="1023.68,-82.832 1015.78,-75.769 1017.55,-86.2151 1023.68,-82.832"/>
</g>
<!-- Node8 -->
<g id="node8" class="node"><title>Node8</title>
<g id="a_node8"><a xlink:href="../../d7/d42/Channel_8hpp.html" target="_top" xlink:title=" ">
<polygon fill="white" stroke="black" points="929,-398 929,-417 1000,-417 1000,-398 929,-398"/>
<text text-anchor="middle" x="964.5" y="-405" font-family="Helvetica,sans-Serif" font-size="10.00">Channel.hpp</text>
</a>
</g>
</g>
<!-- Node7&#45;&gt;Node8 -->
<g id="edge7" class="edge"><title>Node7&#45;&gt;Node8</title>
<path fill="none" stroke="midnightblue" d="M920.807,-459.475C928.533,-450.462 940.908,-436.025 950.518,-424.812"/>
<polygon fill="midnightblue" stroke="midnightblue" points="953.356,-426.879 957.206,-417.009 948.041,-422.324 953.356,-426.879"/>
</g>
<!-- Node9 -->
<g id="node9" class="node"><title>Node9</title>
<g id="a_node9"><a xlink:title=" ">
<polygon fill="white" stroke="#bfbfbf" points="819,-336.5 819,-355.5 982,-355.5 982,-336.5 819,-336.5"/>
<text text-anchor="middle" x="900.5" y="-343.5" font-family="Helvetica,sans-Serif" font-size="10.00">Settings/NamespaceSettings.hpp</text>
</a>
</g>
</g>
<!-- Node7&#45;&gt;Node9 -->
<g id="edge36" class="edge"><title>Node7&#45;&gt;Node9</title>
<path fill="none" stroke="midnightblue" d="M912.565,-459.298C910.476,-439.85 905.387,-392.49 902.531,-365.904"/>
<polygon fill="midnightblue" stroke="midnightblue" points="905.975,-365.192 901.426,-355.623 899.015,-365.94 905.975,-365.192"/>
</g>
<!-- Node7&#45;&gt;Node10 -->
<g id="edge10" class="edge"><title>Node7&#45;&gt;Node10</title>
<path fill="none" stroke="midnightblue" d="M878.214,-460.72C818.754,-448.429 704.619,-424.723 700.5,-423 663.243,-407.419 625.134,-379.356 603.486,-362.037"/>
<polygon fill="midnightblue" stroke="midnightblue" points="605.485,-359.151 595.521,-355.551 601.065,-364.579 605.485,-359.151"/>
</g>
<!-- Node25 -->
<g id="node25" class="node"><title>Node25</title>
<g id="a_node25"><a xlink:href="../../d4/d35/Hardware-Types_8hpp.html" target="_top" xlink:title=" ">
<polygon fill="white" stroke="black" points="743,-392.5 743,-422.5 864,-422.5 864,-392.5 743,-392.5"/>
<text text-anchor="start" x="751" y="-410.5" font-family="Helvetica,sans-Serif" font-size="10.00">AH/Hardware/Hardware</text>
<text text-anchor="middle" x="803.5" y="-399.5" font-family="Helvetica,sans-Serif" font-size="10.00">&#45;Types.hpp</text>
</a>
</g>
</g>
<!-- Node7&#45;&gt;Node25 -->
<g id="edge32" class="edge"><title>Node7&#45;&gt;Node25</title>
<path fill="none" stroke="midnightblue" d="M897.74,-459.475C882.285,-451.115 858.205,-438.09 838.255,-427.299"/>
<polygon fill="midnightblue" stroke="midnightblue" points="839.886,-424.202 829.425,-422.523 836.555,-430.359 839.886,-424.202"/>
</g>
<!-- Node8&#45;&gt;Node5 -->
<g id="edge8" class="edge"><title>Node8&#45;&gt;Node5</title>
<path fill="none" stroke="midnightblue" d="M970.514,-397.981C982.983,-379.458 1010.5,-333.736 1010.5,-291 1010.5,-291 1010.5,-291 1010.5,-177 1010.5,-144.948 1010.5,-107.643 1010.5,-85.7489"/>
<polygon fill="midnightblue" stroke="midnightblue" points="1014,-85.5577 1010.5,-75.5578 1007,-85.5578 1014,-85.5577"/>
</g>
<!-- Node8&#45;&gt;Node9 -->
<g id="edge9" class="edge"><title>Node8&#45;&gt;Node9</title>
<path fill="none" stroke="midnightblue" d="M955.33,-397.975C945.35,-388.697 929.188,-373.671 916.991,-362.331"/>
<polygon fill="midnightblue" stroke="midnightblue" points="919.36,-359.755 909.653,-355.509 914.593,-364.881 919.36,-359.755"/>
</g>
<!-- Node10&#45;&gt;Node4 -->
<g id="edge31" class="edge"><title>Node10&#45;&gt;Node4</title>
<path fill="none" stroke="midnightblue" d="M593.284,-336.278C600.668,-327.613 611.627,-313.678 618.5,-300 632.071,-272.992 638.5,-265.225 638.5,-235 638.5,-235 638.5,-235 638.5,-177 638.5,-144.489 646.659,-107.35 652.284,-85.6103"/>
<polygon fill="midnightblue" stroke="midnightblue" points="655.718,-86.3175 654.938,-75.7514 648.959,-84.498 655.718,-86.3175"/>
</g>
<!-- Node11 -->
<g id="node11" class="node"><title>Node11</title>
<g id="a_node11"><a xlink:href="../../d1/d93/Error_8hpp.html" target="_top" xlink:title=" ">
<polygon fill="white" stroke="black" points="224.5,-280.5 224.5,-299.5 322.5,-299.5 322.5,-280.5 224.5,-280.5"/>
<text text-anchor="middle" x="273.5" y="-287.5" font-family="Helvetica,sans-Serif" font-size="10.00">AH/Error/Error.hpp</text>
</a>
</g>
</g>
<!-- Node10&#45;&gt;Node11 -->
<g id="edge11" class="edge"><title>Node10&#45;&gt;Node11</title>
<path fill="none" stroke="midnightblue" d="M536.063,-336.444C480.836,-326.885 391.479,-311.419 332.605,-301.23"/>
<polygon fill="midnightblue" stroke="midnightblue" points="333.156,-297.773 322.706,-299.516 331.963,-304.671 333.156,-297.773"/>
</g>
<!-- Node23 -->
<g id="node23" class="node"><title>Node23</title>
<g id="a_node23"><a xlink:title=" ">
<polygon fill="white" stroke="#bfbfbf" points="406,-280.5 406,-299.5 507,-299.5 507,-280.5 406,-280.5"/>
<text text-anchor="middle" x="456.5" y="-287.5" font-family="Helvetica,sans-Serif" font-size="10.00">AH/STL/type_traits</text>
</a>
</g>
</g>
<!-- Node10&#45;&gt;Node23 -->
<g id="edge29" class="edge"><title>Node10&#45;&gt;Node23</title>
<path fill="none" stroke="midnightblue" d="M565.06,-336.444C543.83,-327.557 510.401,-313.563 486.245,-303.451"/>
<polygon fill="midnightblue" stroke="midnightblue" points="487.421,-300.149 476.845,-299.516 484.718,-306.606 487.421,-300.149"/>
</g>
<!-- Node24 -->
<g id="node24" class="node"><title>Node24</title>
<g id="a_node24"><a xlink:title=" ">
<polygon fill="white" stroke="#bfbfbf" points="525,-280.5 525,-299.5 610,-299.5 610,-280.5 525,-280.5"/>
<text text-anchor="middle" x="567.5" y="-287.5" font-family="Helvetica,sans-Serif" font-size="10.00">AH/STL/iterator</text>
</a>
</g>
</g>
<!-- Node10&#45;&gt;Node24 -->
<g id="edge30" class="edge"><title>Node10&#45;&gt;Node24</title>
<path fill="none" stroke="midnightblue" d="M582.528,-336.083C580.116,-328.849 576.636,-318.409 573.632,-309.397"/>
<polygon fill="midnightblue" stroke="midnightblue" points="576.9,-308.131 570.417,-299.751 570.259,-310.345 576.9,-308.131"/>
</g>
<!-- Node12 -->
<g id="node12" class="node"><title>Node12</title>
<g id="a_node12"><a xlink:href="../../df/dee/Debug_8hpp.html" target="_top" xlink:title=" ">
<polygon fill="white" stroke="black" points="210,-224.5 210,-243.5 323,-243.5 323,-224.5 210,-224.5"/>
<text text-anchor="middle" x="266.5" y="-231.5" font-family="Helvetica,sans-Serif" font-size="10.00">AH/Debug/Debug.hpp</text>
</a>
</g>
</g>
<!-- Node11&#45;&gt;Node12 -->
<g id="edge12" class="edge"><title>Node11&#45;&gt;Node12</title>
<path fill="none" stroke="midnightblue" d="M272.344,-280.083C271.416,-272.927 270.082,-262.635 268.923,-253.691"/>
<polygon fill="midnightblue" stroke="midnightblue" points="272.391,-253.218 267.634,-243.751 265.449,-254.118 272.391,-253.218"/>
</g>
<!-- Node13 -->
<g id="node13" class="node"><title>Node13</title>
<g id="a_node13"><a xlink:href="../../dd/d80/PrintStream_8hpp.html" target="_top" xlink:title=" ">
<polygon fill="white" stroke="black" points="0,-112.5 0,-131.5 159,-131.5 159,-112.5 0,-112.5"/>
<text text-anchor="middle" x="79.5" y="-119.5" font-family="Helvetica,sans-Serif" font-size="10.00">AH/PrintStream/PrintStream.hpp</text>
</a>
</g>
</g>
<!-- Node12&#45;&gt;Node13 -->
<g id="edge13" class="edge"><title>Node12&#45;&gt;Node13</title>
<path fill="none" stroke="midnightblue" d="M209.924,-224.811C165.856,-217.281 109.553,-204.747 93.5,-188 81.9026,-175.901 78.9568,-156.619 78.5796,-142.192"/>
<polygon fill="midnightblue" stroke="midnightblue" points="82.083,-141.938 78.7115,-131.894 75.0836,-141.848 82.083,-141.938"/>
</g>
<!-- Node14 -->
<g id="node14" class="node"><title>Node14</title>
<g id="a_node14"><a xlink:title=" ">
<polygon fill="white" stroke="#bfbfbf" points="103.5,-0.5 103.5,-19.5 161.5,-19.5 161.5,-0.5 103.5,-0.5"/>
<text text-anchor="middle" x="132.5" y="-7.5" font-family="Helvetica,sans-Serif" font-size="10.00">Arduino.h</text>
</a>
</g>
</g>
<!-- Node12&#45;&gt;Node14 -->
<g id="edge27" class="edge"><title>Node12&#45;&gt;Node14</title>
<path fill="none" stroke="midnightblue" d="M258.274,-224.186C237.45,-201.427 182.136,-138.119 151.5,-76 144.187,-61.172 139.175,-43.0209 136.143,-29.6719"/>
<polygon fill="midnightblue" stroke="midnightblue" points="139.542,-28.8293 134.054,-19.7665 132.693,-30.2735 139.542,-28.8293"/>
</g>
<!-- Node15 -->
<g id="node15" class="node"><title>Node15</title>
<g id="a_node15"><a xlink:href="../../de/dd1/AH_2Settings_2SettingsWrapper_8hpp.html" target="_top" xlink:title=" ">
<polygon fill="white" stroke="black" points="242.5,-168.5 242.5,-187.5 406.5,-187.5 406.5,-168.5 242.5,-168.5"/>
<text text-anchor="middle" x="324.5" y="-175.5" font-family="Helvetica,sans-Serif" font-size="10.00">AH/Settings/SettingsWrapper.hpp</text>
</a>
</g>
</g>
<!-- Node12&#45;&gt;Node15 -->
<g id="edge15" class="edge"><title>Node12&#45;&gt;Node15</title>
<path fill="none" stroke="midnightblue" d="M270.911,-224.083C277.902,-215.984 290.591,-203.866 301.994,-194.233"/>
<polygon fill="midnightblue" stroke="midnightblue" points="304.417,-196.774 309.97,-187.751 300.002,-191.342 304.417,-196.774"/>
</g>
<!-- Node22 -->
<g id="node22" class="node"><title>Node22</title>
<g id="a_node22"><a xlink:href="../../d7/d52/DebugVal_8hpp.html" target="_top" xlink:title=" ">
<polygon fill="white" stroke="black" points="102.5,-168.5 102.5,-187.5 180.5,-187.5 180.5,-168.5 102.5,-168.5"/>
<text text-anchor="middle" x="141.5" y="-175.5" font-family="Helvetica,sans-Serif" font-size="10.00">DebugVal.hpp</text>
</a>
</g>
</g>
<!-- Node12&#45;&gt;Node22 -->
<g id="edge28" class="edge"><title>Node12&#45;&gt;Node22</title>
<path fill="none" stroke="midnightblue" d="M246.693,-224.444C226.213,-215.596 194.017,-201.687 170.635,-191.586"/>
<polygon fill="midnightblue" stroke="midnightblue" points="171.782,-188.269 161.214,-187.516 169.006,-194.695 171.782,-188.269"/>
</g>
<!-- Node13&#45;&gt;Node14 -->
<g id="edge14" class="edge"><title>Node13&#45;&gt;Node14</title>
<path fill="none" stroke="midnightblue" d="M83.6588,-112.368C92.3279,-94.376 112.48,-52.5503 124.007,-28.6267"/>
<polygon fill="midnightblue" stroke="midnightblue" points="127.173,-30.1195 128.36,-19.5914 120.867,-27.081 127.173,-30.1195"/>
</g>
<!-- Node15&#45;&gt;Node12 -->
<g id="edge26" class="edge"><title>Node15&#45;&gt;Node12</title>
<path fill="none" stroke="midnightblue" d="M320.16,-187.834C313.172,-195.948 300.402,-208.145 288.944,-217.82"/>
<polygon fill="midnightblue" stroke="midnightblue" points="286.49,-215.303 280.934,-224.324 290.903,-220.737 286.49,-215.303"/>
</g>
<!-- Node16 -->
<g id="node16" class="node"><title>Node16</title>
<g id="a_node16"><a xlink:href="../../d6/db0/AH_2Settings_2NamespaceSettings_8hpp.html" target="_top" xlink:title=" ">
<polygon fill="white" stroke="black" points="432.5,-0.5 432.5,-19.5 556.5,-19.5 556.5,-0.5 432.5,-0.5"/>
<text text-anchor="middle" x="494.5" y="-7.5" font-family="Helvetica,sans-Serif" font-size="10.00">NamespaceSettings.hpp</text>
</a>
</g>
</g>
<!-- Node15&#45;&gt;Node16 -->
<g id="edge16" class="edge"><title>Node15&#45;&gt;Node16</title>
<path fill="none" stroke="midnightblue" d="M324.076,-168.364C323.493,-146.5 325.06,-88.3981 355.5,-56 372.979,-37.397 398.195,-26.466 422.365,-20.0499"/>
<polygon fill="midnightblue" stroke="midnightblue" points="423.38,-23.4054 432.273,-17.6467 421.73,-16.6026 423.38,-23.4054"/>
</g>
<!-- Node17 -->
<g id="node17" class="node"><title>Node17</title>
<g id="a_node17"><a xlink:href="../../d5/d4f/AH_2Settings_2Settings_8hpp.html" target="_top" xlink:title="All user settings and debugging options can be changed here.">
<polygon fill="white" stroke="black" points="353,-112.5 353,-131.5 424,-131.5 424,-112.5 353,-112.5"/>
<text text-anchor="middle" x="388.5" y="-119.5" font-family="Helvetica,sans-Serif" font-size="10.00">Settings.hpp</text>
</a>
</g>
</g>
<!-- Node15&#45;&gt;Node17 -->
<g id="edge17" class="edge"><title>Node15&#45;&gt;Node17</title>
<path fill="none" stroke="midnightblue" d="M334.783,-168.324C344.336,-160.263 358.78,-148.077 370.284,-138.369"/>
<polygon fill="midnightblue" stroke="midnightblue" points="372.644,-140.958 378.03,-131.834 368.13,-135.608 372.644,-140.958"/>
</g>
<!-- Node21 -->
<g id="node21" class="node"><title>Node21</title>
<g id="a_node21"><a xlink:href="../../d9/d98/TeensyUSBTypes_8hpp.html" target="_top" xlink:title=" ">
<polygon fill="white" stroke="black" points="442.5,-112.5 442.5,-131.5 610.5,-131.5 610.5,-112.5 442.5,-112.5"/>
<text text-anchor="middle" x="526.5" y="-119.5" font-family="Helvetica,sans-Serif" font-size="10.00">AH/Teensy/TeensyUSBTypes.hpp</text>
</a>
</g>
</g>
<!-- Node15&#45;&gt;Node21 -->
<g id="edge25" class="edge"><title>Node15&#45;&gt;Node21</title>
<path fill="none" stroke="midnightblue" d="M356.508,-168.444C391.229,-159.162 446.788,-144.309 484.877,-134.127"/>
<polygon fill="midnightblue" stroke="midnightblue" points="485.885,-137.48 494.642,-131.516 484.078,-130.718 485.885,-137.48"/>
</g>
<!-- Node17&#45;&gt;Node4 -->
<g id="edge23" class="edge"><title>Node17&#45;&gt;Node4</title>
<path fill="none" stroke="midnightblue" d="M424.221,-113.829C475.564,-103.522 569.706,-84.6241 621.309,-74.2652"/>
<polygon fill="midnightblue" stroke="midnightblue" points="622.225,-77.6512 631.34,-72.2514 620.847,-70.7881 622.225,-77.6512"/>
</g>
<!-- Node17&#45;&gt;Node5 -->
<g id="edge24" class="edge"><title>Node17&#45;&gt;Node5</title>
<path fill="none" stroke="midnightblue" d="M424.296,-113.44C427.401,-112.906 430.501,-112.415 433.5,-112 637.931,-83.6886 885.762,-71.8391 975.745,-68.261"/>
<polygon fill="midnightblue" stroke="midnightblue" points="976.066,-71.7512 985.923,-67.8651 975.794,-64.7565 976.066,-71.7512"/>
</g>
<!-- Node18 -->
<g id="node18" class="node"><title>Node18</title>
<g id="a_node18"><a xlink:href="../../dc/d50/Frequency_8hpp.html" target="_top" xlink:title=" ">
<polygon fill="white" stroke="black" points="430.5,-56.5 430.5,-75.5 558.5,-75.5 558.5,-56.5 430.5,-56.5"/>
<text text-anchor="middle" x="494.5" y="-63.5" font-family="Helvetica,sans-Serif" font-size="10.00">AH/Types/Frequency.hpp</text>
</a>
</g>
</g>
<!-- Node17&#45;&gt;Node18 -->
<g id="edge18" class="edge"><title>Node17&#45;&gt;Node18</title>
<path fill="none" stroke="midnightblue" d="M405.531,-112.324C422.53,-103.664 448.876,-90.2424 468.493,-80.249"/>
<polygon fill="midnightblue" stroke="midnightblue" points="470.19,-83.3125 477.512,-75.6545 467.012,-77.0752 470.19,-83.3125"/>
</g>
<!-- Node19 -->
<g id="node19" class="node"><title>Node19</title>
<g id="a_node19"><a xlink:href="../../d7/d7c/ADCConfig_8hpp.html" target="_top" xlink:title="This file contains the platform&#45;specific ADC resolutions. By default, the library automatically selec...">
<polygon fill="white" stroke="black" points="160.5,-56.5 160.5,-75.5 308.5,-75.5 308.5,-56.5 160.5,-56.5"/>
<text text-anchor="middle" x="234.5" y="-63.5" font-family="Helvetica,sans-Serif" font-size="10.00">AH/Hardware/ADCConfig.hpp</text>
</a>
</g>
</g>
<!-- Node17&#45;&gt;Node19 -->
<g id="edge20" class="edge"><title>Node17&#45;&gt;Node19</title>
<path fill="none" stroke="midnightblue" d="M364.098,-112.444C338.303,-103.399 297.423,-89.064 268.482,-78.9158"/>
<polygon fill="midnightblue" stroke="midnightblue" points="269.382,-75.5226 258.788,-75.5164 267.066,-82.1283 269.382,-75.5226"/>
</g>
<!-- Node20 -->
<g id="node20" class="node"><title>Node20</title>
<g id="a_node20"><a xlink:title=" ">
<polygon fill="white" stroke="#bfbfbf" points="364.5,-56.5 364.5,-75.5 412.5,-75.5 412.5,-56.5 364.5,-56.5"/>
<text text-anchor="middle" x="388.5" y="-63.5" font-family="Helvetica,sans-Serif" font-size="10.00">limits.h</text>
</a>
</g>
</g>
<!-- Node17&#45;&gt;Node20 -->
<g id="edge22" class="edge"><title>Node17&#45;&gt;Node20</title>
<path fill="none" stroke="midnightblue" d="M388.5,-112.083C388.5,-105.006 388.5,-94.8611 388.5,-85.9865"/>
<polygon fill="midnightblue" stroke="midnightblue" points="392,-85.751 388.5,-75.7511 385,-85.7511 392,-85.751"/>
</g>
<!-- Node18&#45;&gt;Node16 -->
<g id="edge19" class="edge"><title>Node18&#45;&gt;Node16</title>
<path fill="none" stroke="midnightblue" d="M494.5,-56.083C494.5,-49.0059 494.5,-38.8611 494.5,-29.9865"/>
<polygon fill="midnightblue" stroke="midnightblue" points="498,-29.751 494.5,-19.7511 491,-29.7511 498,-29.751"/>
</g>
<!-- Node19&#45;&gt;Node14 -->
<g id="edge21" class="edge"><title>Node19&#45;&gt;Node14</title>
<path fill="none" stroke="midnightblue" d="M218.112,-56.324C201.829,-47.7034 176.633,-34.3643 157.784,-24.3855"/>
<polygon fill="midnightblue" stroke="midnightblue" points="159.323,-21.2402 148.847,-19.6545 156.048,-27.4267 159.323,-21.2402"/>
</g>
<!-- Node25&#45;&gt;Node5 -->
<g id="edge35" class="edge"><title>Node25&#45;&gt;Node5</title>
<path fill="none" stroke="midnightblue" d="M800.869,-392.333C797.071,-370.609 790.5,-327.725 790.5,-291 790.5,-291 790.5,-291 790.5,-177 790.5,-95.256 913.511,-74.2559 975.568,-68.8626"/>
<polygon fill="midnightblue" stroke="midnightblue" points="975.993,-72.3403 985.691,-68.0746 975.449,-65.3614 975.993,-72.3403"/>
</g>
<!-- Node25&#45;&gt;Node10 -->
<g id="edge33" class="edge"><title>Node25&#45;&gt;Node10</title>
<path fill="none" stroke="midnightblue" d="M752.113,-392.475C713.847,-382.03 662.286,-367.958 626.707,-358.247"/>
<polygon fill="midnightblue" stroke="midnightblue" points="627.235,-354.763 616.666,-355.506 625.392,-361.516 627.235,-354.763"/>
</g>
<!-- Node25&#45;&gt;Node16 -->
<g id="edge34" class="edge"><title>Node25&#45;&gt;Node16</title>
<path fill="none" stroke="midnightblue" d="M792.684,-392.438C777.714,-371.528 752.5,-330.456 752.5,-291 752.5,-291 752.5,-291 752.5,-121 752.5,-39.7984 643.019,-17.7112 566.693,-12.1795"/>
<polygon fill="midnightblue" stroke="midnightblue" points="566.83,-8.68117 556.626,-11.5307 566.38,-15.6667 566.83,-8.68117"/>
</g>
<!-- Node27&#45;&gt;Node26 -->
<g id="edge41" class="edge"><title>Node27&#45;&gt;Node26</title>
<path fill="none" stroke="midnightblue" d="M1072.57,-515.444C1094.56,-506.517 1129.23,-492.439 1154.16,-482.317"/>
<polygon fill="midnightblue" stroke="midnightblue" points="1155.58,-485.521 1163.52,-478.516 1152.94,-479.035 1155.58,-485.521"/>
</g>
</g>
</svg>
