<?xml version="1.0" encoding="UTF-8" standalone="no"?>
<!DOCTYPE svg PUBLIC "-//W3C//DTD SVG 1.1//EN"
 "http://www.w3.org/Graphics/SVG/1.1/DTD/svg11.dtd">
<!-- Generated by graphviz version 2.43.0 (0)
 -->
<!-- Title: USBMIDI Pages: 1 -->
<svg width="208pt" height="231pt"
 viewBox="0.00 0.00 208.00 231.00" xmlns="http://www.w3.org/2000/svg" xmlns:xlink="http://www.w3.org/1999/xlink">
<g id="graph0" class="graph" transform="scale(1 1) rotate(0) translate(4 227)">
<title>USBMIDI</title>
<polygon fill="white" stroke="transparent" points="-4,4 -4,-227 204,-227 204,4 -4,4"/>
<g id="clust1" class="cluster">
<title>clusterdir_6a6436ad46e42aad24bc1ce93af4f420</title>
<g id="a_clust1"><a xlink:href="dir_6a6436ad46e42aad24bc1ce93af4f420.html" target="_top" xlink:title="MIDI_Interfaces">
<polygon fill="#eef0f6" stroke="#7f7f7f" stroke-dasharray="5,2" points="8,-56 8,-215 192,-215 192,-56 8,-56"/>
<text text-anchor="middle" x="100" y="-203" font-family="Helvetica,sans-Serif" font-size="10.00">MIDI_Interfaces</text>
</a>
</g>
</g>
<g id="clust2" class="cluster">
<title>clusterdir_47a45441f873e4a267459ef119a0ab30</title>
<g id="a_clust2"><a xlink:href="dir_47a45441f873e4a267459ef119a0ab30.html" target="_top">
<polygon fill="#eef0f6" stroke="#404040" stroke-width="2" points="16,-64 16,-188 184,-188 184,-64 16,-64"/>
</a>
</g>
</g>
<!-- dir_47a45441f873e4a267459ef119a0ab30 -->
<g id="node1" class="node">
<title>dir_47a45441f873e4a267459ef119a0ab30</title>
<text text-anchor="middle" x="146" y="-159.5" font-family="Helvetica,sans-Serif" font-size="10.00">USBMIDI</text>
</g>
<!-- dir_15fced6c4e489294c3637311906529d4 -->
<g id="node2" class="node">
<title>dir_15fced6c4e489294c3637311906529d4</title>
<g id="a_node2"><a xlink:href="dir_15fced6c4e489294c3637311906529d4.html" target="_top" xlink:title="mbed">
<polygon fill="#a7b5d1" stroke="#404040" points="94,-108 40,-108 40,-72 94,-72 94,-108"/>
<text text-anchor="middle" x="67" y="-87.5" font-family="Helvetica,sans-Serif" font-size="10.00">mbed</text>
</a>
</g>
</g>
<!-- dir_47a45441f873e4a267459ef119a0ab30&#45;&gt;dir_15fced6c4e489294c3637311906529d4 -->
<g id="edge2" class="edge">
<title>dir_47a45441f873e4a267459ef119a0ab30&#45;&gt;dir_15fced6c4e489294c3637311906529d4</title>
<path fill="none" stroke="black" d="M126.47,-143.7C116.62,-134.97 104.51,-124.24 93.8,-114.75"/>
<polygon fill="black" stroke="black" points="96.11,-112.12 86.3,-108.1 91.47,-117.36 96.11,-112.12"/>
<g id="a_edge2&#45;headlabel"><a xlink:href="dir_000051_000029.html" target="_top" xlink:title="1">
<text text-anchor="middle" x="100.68" y="-109.88" font-family="Helvetica,sans-Serif" font-size="10.00">1</text>
</a>
</g>
</g>
<!-- dir_5c09ab3fb24195ae446d3dd0056820b1 -->
<g id="node3" class="node">
<title>dir_5c09ab3fb24195ae446d3dd0056820b1</title>
<g id="a_node3"><a xlink:href="dir_5c09ab3fb24195ae446d3dd0056820b1.html" target="_top" xlink:title="mbed&#45;m0">
<polygon fill="#a7b5d1" stroke="#404040" points="176,-108 112,-108 112,-72 176,-72 176,-108"/>
<text text-anchor="middle" x="144" y="-87.5" font-family="Helvetica,sans-Serif" font-size="10.00">mbed&#45;m0</text>
</a>
</g>
</g>
<!-- dir_47a45441f873e4a267459ef119a0ab30&#45;&gt;dir_5c09ab3fb24195ae446d3dd0056820b1 -->
<g id="edge3" class="edge">
<title>dir_47a45441f873e4a267459ef119a0ab30&#45;&gt;dir_5c09ab3fb24195ae446d3dd0056820b1</title>
<path fill="none" stroke="black" d="M145.51,-143.7C145.29,-135.98 145.02,-126.71 144.77,-118.11"/>
<polygon fill="black" stroke="black" points="148.27,-118 144.49,-108.1 141.28,-118.2 148.27,-118"/>
<g id="a_edge3&#45;headlabel"><a xlink:href="dir_000051_000030.html" target="_top" xlink:title="1">
<text text-anchor="middle" x="151.21" y="-119.01" font-family="Helvetica,sans-Serif" font-size="10.00">1</text>
</a>
</g>
</g>
<!-- dir_15b6432dff6a6d357bf70f8fbf2cdf14 -->
<g id="node5" class="node">
<title>dir_15b6432dff6a6d357bf70f8fbf2cdf14</title>
<g id="a_node5"><a xlink:href="dir_15b6432dff6a6d357bf70f8fbf2cdf14.html" target="_top" xlink:title="AH">
<polygon fill="none" stroke="red" stroke-dasharray="5,2" points="171,-36 117,-36 117,0 171,0 171,-36"/>
<text text-anchor="middle" x="144" y="-15.5" font-family="Helvetica,sans-Serif" font-size="10.00">AH</text>
</a>
</g>
</g>
<!-- dir_47a45441f873e4a267459ef119a0ab30&#45;&gt;dir_15b6432dff6a6d357bf70f8fbf2cdf14 -->
<g id="edge1" class="edge">
<title>dir_47a45441f873e4a267459ef119a0ab30&#45;&gt;dir_15b6432dff6a6d357bf70f8fbf2cdf14</title>
<path fill="none" stroke="black" d="M162.89,-143.99C171.29,-134.31 180.58,-121.46 185,-108 192.21,-86.04 194.39,-77.12 185,-56 183.01,-51.53 180.18,-47.37 176.93,-43.57"/>
<polygon fill="black" stroke="black" points="179.3,-40.99 169.8,-36.31 174.31,-45.9 179.3,-40.99"/>
<g id="a_edge1&#45;headlabel"><a xlink:href="dir_000051_000002.html" target="_top" xlink:title="13">
<text text-anchor="middle" x="183.85" y="-39.06" font-family="Helvetica,sans-Serif" font-size="10.00">13</text>
</a>
</g>
</g>
<!-- dir_15fced6c4e489294c3637311906529d4&#45;&gt;dir_15b6432dff6a6d357bf70f8fbf2cdf14 -->
<g id="edge4" class="edge">
<title>dir_15fced6c4e489294c3637311906529d4&#45;&gt;dir_15b6432dff6a6d357bf70f8fbf2cdf14</title>
<path fill="none" stroke="black" d="M85.66,-71.84C91.23,-66.74 97.35,-61.13 103,-56 107.54,-51.87 112.38,-47.49 117.08,-43.24"/>
<polygon fill="black" stroke="black" points="119.7,-45.59 124.78,-36.29 115.01,-40.39 119.7,-45.59"/>
<g id="a_edge4&#45;headlabel"><a xlink:href="dir_000029_000002.html" target="_top" xlink:title="2">
<text text-anchor="middle" x="118.94" y="-47.6" font-family="Helvetica,sans-Serif" font-size="10.00">2</text>
</a>
</g>
</g>
<!-- dir_5c09ab3fb24195ae446d3dd0056820b1&#45;&gt;dir_15b6432dff6a6d357bf70f8fbf2cdf14 -->
<g id="edge5" class="edge">
<title>dir_5c09ab3fb24195ae446d3dd0056820b1&#45;&gt;dir_15b6432dff6a6d357bf70f8fbf2cdf14</title>
<path fill="none" stroke="black" d="M144,-71.7C144,-63.98 144,-54.71 144,-46.11"/>
<polygon fill="black" stroke="black" points="147.5,-46.1 144,-36.1 140.5,-46.1 147.5,-46.1"/>
<g id="a_edge5&#45;headlabel"><a xlink:href="dir_000030_000002.html" target="_top" xlink:title="2">
<text text-anchor="middle" x="150.34" y="-47.2" font-family="Helvetica,sans-Serif" font-size="10.00">2</text>
</a>
</g>
</g>
<!-- dir_d0764b545205c24cf5486bc7d53f686c -->
<g id="node4" class="node">
<title>dir_d0764b545205c24cf5486bc7d53f686c</title>
<g id="a_node4"><a xlink:href="dir_d0764b545205c24cf5486bc7d53f686c.html" target="_top" xlink:title="Teensy&#45;host">
<polygon fill="#a7b5d1" stroke="#404040" points="98.5,-180 23.5,-180 23.5,-144 98.5,-144 98.5,-180"/>
<text text-anchor="middle" x="61" y="-159.5" font-family="Helvetica,sans-Serif" font-size="10.00">Teensy&#45;host</text>
</a>
</g>
</g>
</g>
</svg>
