<?xml version="1.0" encoding="UTF-8" standalone="no"?>
<!DOCTYPE svg PUBLIC "-//W3C//DTD SVG 1.1//EN"
 "http://www.w3.org/Graphics/SVG/1.1/DTD/svg11.dtd">
<!-- Generated by graphviz version 2.38.0 (20140413.2041)
 -->
<!-- Title: MIDICNChannelAddress.cpp Pages: 1 -->
<svg width="1241pt" height="599pt"
 viewBox="0.00 0.00 1240.50 599.00" xmlns="http://www.w3.org/2000/svg" xmlns:xlink="http://www.w3.org/1999/xlink">
<g id="graph0" class="graph" transform="scale(1 1) rotate(0) translate(4 595)">
<title>MIDICNChannelAddress.cpp</title>
<polygon fill="white" stroke="none" points="-4,4 -4,-595 1236.5,-595 1236.5,4 -4,4"/>
<!-- Node1 -->
<g id="node1" class="node"><title>Node1</title>
<g id="a_node1"><a xlink:title=" ">
<polygon fill="#bfbfbf" stroke="black" points="201.5,-571.5 201.5,-590.5 345.5,-590.5 345.5,-571.5 201.5,-571.5"/>
<text text-anchor="middle" x="273.5" y="-578.5" font-family="Helvetica,sans-Serif" font-size="10.00">MIDICNChannelAddress.cpp</text>
</a>
</g>
</g>
<!-- Node2 -->
<g id="node2" class="node"><title>Node2</title>
<g id="a_node2"><a xlink:href="../../d8/d38/MIDICNChannelAddress_8hpp.html" target="_top" xlink:title=" ">
<polygon fill="white" stroke="black" points="201.5,-515.5 201.5,-534.5 345.5,-534.5 345.5,-515.5 201.5,-515.5"/>
<text text-anchor="middle" x="273.5" y="-522.5" font-family="Helvetica,sans-Serif" font-size="10.00">MIDICNChannelAddress.hpp</text>
</a>
</g>
</g>
<!-- Node1&#45;&gt;Node2 -->
<g id="edge1" class="edge"><title>Node1&#45;&gt;Node2</title>
<path fill="none" stroke="midnightblue" d="M273.5,-571.083C273.5,-564.006 273.5,-553.861 273.5,-544.986"/>
<polygon fill="midnightblue" stroke="midnightblue" points="277,-544.751 273.5,-534.751 270,-544.751 277,-544.751"/>
</g>
<!-- Node3 -->
<g id="node3" class="node"><title>Node3</title>
<g id="a_node3"><a xlink:href="../../d0/d4e/Def_8hpp.html" target="_top" xlink:title=" ">
<polygon fill="white" stroke="black" points="238.5,-459.5 238.5,-478.5 308.5,-478.5 308.5,-459.5 238.5,-459.5"/>
<text text-anchor="middle" x="273.5" y="-466.5" font-family="Helvetica,sans-Serif" font-size="10.00">Def/Def.hpp</text>
</a>
</g>
</g>
<!-- Node2&#45;&gt;Node3 -->
<g id="edge2" class="edge"><title>Node2&#45;&gt;Node3</title>
<path fill="none" stroke="midnightblue" d="M273.5,-515.083C273.5,-508.006 273.5,-497.861 273.5,-488.986"/>
<polygon fill="midnightblue" stroke="midnightblue" points="277,-488.751 273.5,-478.751 270,-488.751 277,-488.751"/>
</g>
<!-- Node4 -->
<g id="node4" class="node"><title>Node4</title>
<g id="a_node4"><a xlink:href="../../d7/d42/Channel_8hpp.html" target="_top" xlink:title=" ">
<polygon fill="white" stroke="black" points="130,-398 130,-417 201,-417 201,-398 130,-398"/>
<text text-anchor="middle" x="165.5" y="-405" font-family="Helvetica,sans-Serif" font-size="10.00">Channel.hpp</text>
</a>
</g>
</g>
<!-- Node3&#45;&gt;Node4 -->
<g id="edge3" class="edge"><title>Node3&#45;&gt;Node4</title>
<path fill="none" stroke="midnightblue" d="M258.026,-459.475C240.222,-449.666 210.759,-433.435 189.868,-421.925"/>
<polygon fill="midnightblue" stroke="midnightblue" points="191.393,-418.769 180.945,-417.009 188.015,-424.9 191.393,-418.769"/>
</g>
<!-- Node5 -->
<g id="node5" class="node"><title>Node5</title>
<g id="a_node5"><a xlink:title=" ">
<polygon fill="white" stroke="#bfbfbf" points="216,-56.5 216,-75.5 265,-75.5 265,-56.5 216,-56.5"/>
<text text-anchor="middle" x="240.5" y="-63.5" font-family="Helvetica,sans-Serif" font-size="10.00">stdint.h</text>
</a>
</g>
</g>
<!-- Node3&#45;&gt;Node5 -->
<g id="edge41" class="edge"><title>Node3&#45;&gt;Node5</title>
<path fill="none" stroke="midnightblue" d="M267.805,-459.373C262.204,-450.553 253.751,-436.3 248.5,-423 235.714,-390.615 229.5,-381.817 229.5,-347 229.5,-347 229.5,-347 229.5,-177 229.5,-144.788 234.228,-107.532 237.485,-85.692"/>
<polygon fill="midnightblue" stroke="midnightblue" points="240.987,-85.9472 239.062,-75.5287 234.07,-84.8736 240.987,-85.9472"/>
</g>
<!-- Node6 -->
<g id="node6" class="node"><title>Node6</title>
<g id="a_node6"><a xlink:title=" ">
<polygon fill="white" stroke="#bfbfbf" points="0,-336.5 0,-355.5 163,-355.5 163,-336.5 0,-336.5"/>
<text text-anchor="middle" x="81.5" y="-343.5" font-family="Helvetica,sans-Serif" font-size="10.00">Settings/NamespaceSettings.hpp</text>
</a>
</g>
</g>
<!-- Node3&#45;&gt;Node6 -->
<g id="edge39" class="edge"><title>Node3&#45;&gt;Node6</title>
<path fill="none" stroke="midnightblue" d="M238.218,-465.528C204.583,-461.496 154.201,-450.892 120.5,-423 102.599,-408.185 92.0016,-383.036 86.4727,-365.752"/>
<polygon fill="midnightblue" stroke="midnightblue" points="89.706,-364.338 83.5456,-355.718 82.986,-366.298 89.706,-364.338"/>
</g>
<!-- Node7 -->
<g id="node7" class="node"><title>Node7</title>
<g id="a_node7"><a xlink:href="../../de/d76/Array_8hpp.html" target="_top" xlink:title=" ">
<polygon fill="white" stroke="black" points="874.5,-336.5 874.5,-355.5 1000.5,-355.5 1000.5,-336.5 874.5,-336.5"/>
<text text-anchor="middle" x="937.5" y="-343.5" font-family="Helvetica,sans-Serif" font-size="10.00">AH/Containers/Array.hpp</text>
</a>
</g>
</g>
<!-- Node3&#45;&gt;Node7 -->
<g id="edge6" class="edge"><title>Node3&#45;&gt;Node7</title>
<path fill="none" stroke="midnightblue" d="M308.731,-461.58C417.303,-441.795 747.459,-381.631 880.772,-357.337"/>
<polygon fill="midnightblue" stroke="midnightblue" points="881.573,-360.749 890.784,-355.513 880.318,-353.863 881.573,-360.749"/>
</g>
<!-- Node19 -->
<g id="node19" class="node"><title>Node19</title>
<g id="a_node19"><a xlink:title=" ">
<polygon fill="white" stroke="#bfbfbf" points="1180.5,-56.5 1180.5,-75.5 1232.5,-75.5 1232.5,-56.5 1180.5,-56.5"/>
<text text-anchor="middle" x="1206.5" y="-63.5" font-family="Helvetica,sans-Serif" font-size="10.00">stddef.h</text>
</a>
</g>
</g>
<!-- Node3&#45;&gt;Node19 -->
<g id="edge40" class="edge"><title>Node3&#45;&gt;Node19</title>
<path fill="none" stroke="midnightblue" d="M308.511,-467.308C480.265,-463.463 1225.5,-441.341 1225.5,-347 1225.5,-347 1225.5,-347 1225.5,-177 1225.5,-144.489 1217.34,-107.35 1211.72,-85.6103"/>
<polygon fill="midnightblue" stroke="midnightblue" points="1215.04,-84.498 1209.06,-75.7514 1208.28,-86.3175 1215.04,-84.498"/>
</g>
<!-- Node24 -->
<g id="node24" class="node"><title>Node24</title>
<g id="a_node24"><a xlink:href="../../d4/d35/Hardware-Types_8hpp.html" target="_top" xlink:title=" ">
<polygon fill="white" stroke="black" points="258,-392.5 258,-422.5 379,-422.5 379,-392.5 258,-392.5"/>
<text text-anchor="start" x="266" y="-410.5" font-family="Helvetica,sans-Serif" font-size="10.00">AH/Hardware/Hardware</text>
<text text-anchor="middle" x="318.5" y="-399.5" font-family="Helvetica,sans-Serif" font-size="10.00">&#45;Types.hpp</text>
</a>
</g>
</g>
<!-- Node3&#45;&gt;Node24 -->
<g id="edge34" class="edge"><title>Node3&#45;&gt;Node24</title>
<path fill="none" stroke="midnightblue" d="M279.947,-459.475C285.643,-451.944 294.203,-440.626 301.811,-430.566"/>
<polygon fill="midnightblue" stroke="midnightblue" points="304.654,-432.61 307.894,-422.523 299.071,-428.388 304.654,-432.61"/>
</g>
<!-- Node4&#45;&gt;Node5 -->
<g id="edge4" class="edge"><title>Node4&#45;&gt;Node5</title>
<path fill="none" stroke="midnightblue" d="M168.793,-397.955C175.789,-379.007 191.5,-331.902 191.5,-291 191.5,-291 191.5,-291 191.5,-177 191.5,-141.466 213.1,-104.627 227.618,-83.8799"/>
<polygon fill="midnightblue" stroke="midnightblue" points="230.631,-85.6871 233.687,-75.5423 224.972,-81.5675 230.631,-85.6871"/>
</g>
<!-- Node4&#45;&gt;Node6 -->
<g id="edge5" class="edge"><title>Node4&#45;&gt;Node6</title>
<path fill="none" stroke="midnightblue" d="M153.465,-397.975C139.992,-388.431 117.934,-372.807 101.785,-361.368"/>
<polygon fill="midnightblue" stroke="midnightblue" points="103.696,-358.433 93.5128,-355.509 99.65,-364.145 103.696,-358.433"/>
</g>
<!-- Node8 -->
<g id="node8" class="node"><title>Node8</title>
<g id="a_node8"><a xlink:href="../../d1/d65/Warnings_8hpp.html" target="_top" xlink:title=" ">
<polygon fill="white" stroke="black" points="686,-0.5 686,-19.5 819,-19.5 819,-0.5 686,-0.5"/>
<text text-anchor="middle" x="752.5" y="-7.5" font-family="Helvetica,sans-Serif" font-size="10.00">AH/Settings/Warnings.hpp</text>
</a>
</g>
</g>
<!-- Node7&#45;&gt;Node8 -->
<g id="edge7" class="edge"><title>Node7&#45;&gt;Node8</title>
<path fill="none" stroke="midnightblue" d="M951.742,-336.392C1010.15,-300.091 1224.07,-156.741 1134.5,-56 1114.59,-33.61 934.871,-20.4974 829.183,-14.658"/>
<polygon fill="midnightblue" stroke="midnightblue" points="829.37,-11.163 819.195,-14.1155 828.99,-18.1527 829.37,-11.163"/>
</g>
<!-- Node9 -->
<g id="node9" class="node"><title>Node9</title>
<g id="a_node9"><a xlink:href="../../d1/d93/Error_8hpp.html" target="_top" xlink:title=" ">
<polygon fill="white" stroke="black" points="722.5,-280.5 722.5,-299.5 820.5,-299.5 820.5,-280.5 722.5,-280.5"/>
<text text-anchor="middle" x="771.5" y="-287.5" font-family="Helvetica,sans-Serif" font-size="10.00">AH/Error/Error.hpp</text>
</a>
</g>
</g>
<!-- Node7&#45;&gt;Node9 -->
<g id="edge8" class="edge"><title>Node7&#45;&gt;Node9</title>
<path fill="none" stroke="midnightblue" d="M911.197,-336.444C883.149,-327.32 838.556,-312.813 807.316,-302.651"/>
<polygon fill="midnightblue" stroke="midnightblue" points="808.272,-299.282 797.68,-299.516 806.107,-305.938 808.272,-299.282"/>
</g>
<!-- Node7&#45;&gt;Node19 -->
<g id="edge33" class="edge"><title>Node7&#45;&gt;Node19</title>
<path fill="none" stroke="midnightblue" d="M1000.68,-340.026C1060.42,-334.06 1144.39,-321.991 1168.5,-300 1190.74,-279.719 1187.5,-265.098 1187.5,-235 1187.5,-235 1187.5,-235 1187.5,-177 1187.5,-144.489 1195.66,-107.35 1201.28,-85.6103"/>
<polygon fill="midnightblue" stroke="midnightblue" points="1204.72,-86.3175 1203.94,-75.7514 1197.96,-84.498 1204.72,-86.3175"/>
</g>
<!-- Node22 -->
<g id="node22" class="node"><title>Node22</title>
<g id="a_node22"><a xlink:title=" ">
<polygon fill="white" stroke="#bfbfbf" points="1074,-280.5 1074,-299.5 1159,-299.5 1159,-280.5 1074,-280.5"/>
<text text-anchor="middle" x="1116.5" y="-287.5" font-family="Helvetica,sans-Serif" font-size="10.00">AH/STL/iterator</text>
</a>
</g>
</g>
<!-- Node7&#45;&gt;Node22 -->
<g id="edge31" class="edge"><title>Node7&#45;&gt;Node22</title>
<path fill="none" stroke="midnightblue" d="M965.863,-336.444C996.238,-327.28 1044.61,-312.688 1078.32,-302.519"/>
<polygon fill="midnightblue" stroke="midnightblue" points="1079.71,-305.756 1088.27,-299.516 1077.68,-299.054 1079.71,-305.756"/>
</g>
<!-- Node23 -->
<g id="node23" class="node"><title>Node23</title>
<g id="a_node23"><a xlink:title=" ">
<polygon fill="white" stroke="#bfbfbf" points="887,-280.5 887,-299.5 988,-299.5 988,-280.5 887,-280.5"/>
<text text-anchor="middle" x="937.5" y="-287.5" font-family="Helvetica,sans-Serif" font-size="10.00">AH/STL/type_traits</text>
</a>
</g>
</g>
<!-- Node7&#45;&gt;Node23 -->
<g id="edge32" class="edge"><title>Node7&#45;&gt;Node23</title>
<path fill="none" stroke="midnightblue" d="M937.5,-336.083C937.5,-329.006 937.5,-318.861 937.5,-309.986"/>
<polygon fill="midnightblue" stroke="midnightblue" points="941,-309.751 937.5,-299.751 934,-309.751 941,-309.751"/>
</g>
<!-- Node9&#45;&gt;Node8 -->
<g id="edge9" class="edge"><title>Node9&#45;&gt;Node8</title>
<path fill="none" stroke="midnightblue" d="M771.5,-280.442C771.5,-261.936 771.5,-216.812 771.5,-179 771.5,-179 771.5,-179 771.5,-121 771.5,-88.4885 763.341,-51.3503 757.716,-29.6103"/>
<polygon fill="midnightblue" stroke="midnightblue" points="761.041,-28.498 755.062,-19.7514 754.282,-30.3175 761.041,-28.498"/>
</g>
<!-- Node10 -->
<g id="node10" class="node"><title>Node10</title>
<g id="a_node10"><a xlink:href="../../df/dee/Debug_8hpp.html" target="_top" xlink:title=" ">
<polygon fill="white" stroke="black" points="620,-224.5 620,-243.5 733,-243.5 733,-224.5 620,-224.5"/>
<text text-anchor="middle" x="676.5" y="-231.5" font-family="Helvetica,sans-Serif" font-size="10.00">AH/Debug/Debug.hpp</text>
</a>
</g>
</g>
<!-- Node9&#45;&gt;Node10 -->
<g id="edge10" class="edge"><title>Node9&#45;&gt;Node10</title>
<path fill="none" stroke="midnightblue" d="M756.237,-280.324C741.279,-271.822 718.245,-258.729 700.773,-248.797"/>
<polygon fill="midnightblue" stroke="midnightblue" points="702.149,-245.553 691.726,-243.655 698.69,-251.639 702.149,-245.553"/>
</g>
<!-- Node10&#45;&gt;Node8 -->
<g id="edge11" class="edge"><title>Node10&#45;&gt;Node8</title>
<path fill="none" stroke="midnightblue" d="M686.147,-224.32C694.897,-215.897 707.47,-202.319 714.5,-188 740.767,-134.497 748.97,-63.1317 751.459,-29.7286"/>
<polygon fill="midnightblue" stroke="midnightblue" points="754.962,-29.795 752.12,-19.5882 747.976,-29.339 754.962,-29.795"/>
</g>
<!-- Node11 -->
<g id="node11" class="node"><title>Node11</title>
<g id="a_node11"><a xlink:href="../../dd/d80/PrintStream_8hpp.html" target="_top" xlink:title=" ">
<polygon fill="white" stroke="black" points="966,-56.5 966,-75.5 1125,-75.5 1125,-56.5 966,-56.5"/>
<text text-anchor="middle" x="1045.5" y="-63.5" font-family="Helvetica,sans-Serif" font-size="10.00">AH/PrintStream/PrintStream.hpp</text>
</a>
</g>
</g>
<!-- Node10&#45;&gt;Node11 -->
<g id="edge12" class="edge"><title>Node10&#45;&gt;Node11</title>
<path fill="none" stroke="midnightblue" d="M695.562,-224.425C756.171,-197.159 944.696,-112.348 1016.93,-79.8506"/>
<polygon fill="midnightblue" stroke="midnightblue" points="1018.65,-82.9182 1026.33,-75.6237 1015.77,-76.5344 1018.65,-82.9182"/>
</g>
<!-- Node13 -->
<g id="node13" class="node"><title>Node13</title>
<g id="a_node13"><a xlink:href="../../de/dd1/AH_2Settings_2SettingsWrapper_8hpp.html" target="_top" xlink:title=" ">
<polygon fill="white" stroke="black" points="445.5,-168.5 445.5,-187.5 609.5,-187.5 609.5,-168.5 445.5,-168.5"/>
<text text-anchor="middle" x="527.5" y="-175.5" font-family="Helvetica,sans-Serif" font-size="10.00">AH/Settings/SettingsWrapper.hpp</text>
</a>
</g>
</g>
<!-- Node10&#45;&gt;Node13 -->
<g id="edge15" class="edge"><title>Node10&#45;&gt;Node13</title>
<path fill="none" stroke="midnightblue" d="M647.802,-224.444C621.096,-215.478 581.794,-201.314 555.365,-191.183"/>
<polygon fill="midnightblue" stroke="midnightblue" points="556.508,-187.872 545.919,-187.516 553.975,-194.398 556.508,-187.872"/>
</g>
<!-- Node21 -->
<g id="node21" class="node"><title>Node21</title>
<g id="a_node21"><a xlink:href="../../d7/d52/DebugVal_8hpp.html" target="_top" xlink:title=" ">
<polygon fill="white" stroke="black" points="627.5,-168.5 627.5,-187.5 705.5,-187.5 705.5,-168.5 627.5,-168.5"/>
<text text-anchor="middle" x="666.5" y="-175.5" font-family="Helvetica,sans-Serif" font-size="10.00">DebugVal.hpp</text>
</a>
</g>
</g>
<!-- Node10&#45;&gt;Node21 -->
<g id="edge30" class="edge"><title>Node10&#45;&gt;Node21</title>
<path fill="none" stroke="midnightblue" d="M674.849,-224.083C673.524,-216.927 671.618,-206.635 669.961,-197.691"/>
<polygon fill="midnightblue" stroke="midnightblue" points="673.383,-196.947 668.121,-187.751 666.5,-198.221 673.383,-196.947"/>
</g>
<!-- Node11&#45;&gt;Node8 -->
<g id="edge13" class="edge"><title>Node11&#45;&gt;Node8</title>
<path fill="none" stroke="midnightblue" d="M999.073,-56.4435C947.424,-46.9246 863.988,-31.5472 808.693,-21.3563"/>
<polygon fill="midnightblue" stroke="midnightblue" points="809.178,-17.887 798.71,-19.5164 807.909,-24.771 809.178,-17.887"/>
</g>
<!-- Node12 -->
<g id="node12" class="node"><title>Node12</title>
<g id="a_node12"><a xlink:title=" ">
<polygon fill="white" stroke="#bfbfbf" points="930.5,-0.5 930.5,-19.5 988.5,-19.5 988.5,-0.5 930.5,-0.5"/>
<text text-anchor="middle" x="959.5" y="-7.5" font-family="Helvetica,sans-Serif" font-size="10.00">Arduino.h</text>
</a>
</g>
</g>
<!-- Node11&#45;&gt;Node12 -->
<g id="edge14" class="edge"><title>Node11&#45;&gt;Node12</title>
<path fill="none" stroke="midnightblue" d="M1031.68,-56.324C1018.27,-47.9002 997.676,-34.9709 981.914,-25.0741"/>
<polygon fill="midnightblue" stroke="midnightblue" points="983.613,-22.0081 973.283,-19.6545 979.891,-27.9364 983.613,-22.0081"/>
</g>
<!-- Node13&#45;&gt;Node8 -->
<g id="edge16" class="edge"><title>Node13&#45;&gt;Node8</title>
<path fill="none" stroke="midnightblue" d="M545.51,-168.485C567.842,-156.718 601.266,-134.393 586.5,-112 564.14,-78.0909 524.86,-109.909 502.5,-76 497.607,-68.5792 496.798,-62.8194 502.5,-56 524.282,-29.9466 610.338,-18.9541 675.449,-14.3306"/>
<polygon fill="midnightblue" stroke="midnightblue" points="675.963,-17.8041 685.706,-13.6419 675.494,-10.8198 675.963,-17.8041"/>
</g>
<!-- Node13&#45;&gt;Node10 -->
<g id="edge29" class="edge"><title>Node13&#45;&gt;Node10</title>
<path fill="none" stroke="midnightblue" d="M556.079,-187.516C582.747,-196.467 622.049,-210.629 648.517,-220.772"/>
<polygon fill="midnightblue" stroke="midnightblue" points="647.39,-224.089 657.979,-224.444 649.923,-217.563 647.39,-224.089"/>
</g>
<!-- Node14 -->
<g id="node14" class="node"><title>Node14</title>
<g id="a_node14"><a xlink:href="../../d6/db0/AH_2Settings_2NamespaceSettings_8hpp.html" target="_top" xlink:title=" ">
<polygon fill="white" stroke="black" points="319.5,-0.5 319.5,-19.5 443.5,-19.5 443.5,-0.5 319.5,-0.5"/>
<text text-anchor="middle" x="381.5" y="-7.5" font-family="Helvetica,sans-Serif" font-size="10.00">NamespaceSettings.hpp</text>
</a>
</g>
</g>
<!-- Node13&#45;&gt;Node14 -->
<g id="edge17" class="edge"><title>Node13&#45;&gt;Node14</title>
<path fill="none" stroke="midnightblue" d="M464.435,-168.493C441.068,-162.173 416.415,-151.166 400.5,-132 376.241,-102.787 376.581,-55.4525 379.006,-29.4929"/>
<polygon fill="midnightblue" stroke="midnightblue" points="382.489,-29.8328 380.146,-19.5004 375.535,-29.039 382.489,-29.8328"/>
</g>
<!-- Node15 -->
<g id="node15" class="node"><title>Node15</title>
<g id="a_node15"><a xlink:href="../../d5/d4f/AH_2Settings_2Settings_8hpp.html" target="_top" xlink:title="All user settings and debugging options can be changed here.">
<polygon fill="white" stroke="black" points="634,-112.5 634,-131.5 705,-131.5 705,-112.5 634,-112.5"/>
<text text-anchor="middle" x="669.5" y="-119.5" font-family="Helvetica,sans-Serif" font-size="10.00">Settings.hpp</text>
</a>
</g>
</g>
<!-- Node13&#45;&gt;Node15 -->
<g id="edge18" class="edge"><title>Node13&#45;&gt;Node15</title>
<path fill="none" stroke="midnightblue" d="M550,-168.444C573.577,-159.478 610.822,-145.314 637.464,-135.183"/>
<polygon fill="midnightblue" stroke="midnightblue" points="639.002,-138.342 647.105,-131.516 636.514,-131.8 639.002,-138.342"/>
</g>
<!-- Node20 -->
<g id="node20" class="node"><title>Node20</title>
<g id="a_node20"><a xlink:href="../../d9/d98/TeensyUSBTypes_8hpp.html" target="_top" xlink:title=" ">
<polygon fill="white" stroke="black" points="409.5,-112.5 409.5,-131.5 577.5,-131.5 577.5,-112.5 409.5,-112.5"/>
<text text-anchor="middle" x="493.5" y="-119.5" font-family="Helvetica,sans-Serif" font-size="10.00">AH/Teensy/TeensyUSBTypes.hpp</text>
</a>
</g>
</g>
<!-- Node13&#45;&gt;Node20 -->
<g id="edge28" class="edge"><title>Node13&#45;&gt;Node20</title>
<path fill="none" stroke="midnightblue" d="M521.886,-168.083C517.133,-160.534 510.182,-149.495 504.348,-140.23"/>
<polygon fill="midnightblue" stroke="midnightblue" points="507.3,-138.349 499.01,-131.751 501.376,-142.078 507.3,-138.349"/>
</g>
<!-- Node15&#45;&gt;Node5 -->
<g id="edge27" class="edge"><title>Node15&#45;&gt;Node5</title>
<path fill="none" stroke="midnightblue" d="M633.662,-116.489C552.428,-106.264 355.147,-81.4311 275.104,-71.3557"/>
<polygon fill="midnightblue" stroke="midnightblue" points="275.412,-67.8669 265.053,-70.0905 274.537,-74.8121 275.412,-67.8669"/>
</g>
<!-- Node16 -->
<g id="node16" class="node"><title>Node16</title>
<g id="a_node16"><a xlink:href="../../dc/d50/Frequency_8hpp.html" target="_top" xlink:title=" ">
<polygon fill="white" stroke="black" points="511.5,-56.5 511.5,-75.5 639.5,-75.5 639.5,-56.5 511.5,-56.5"/>
<text text-anchor="middle" x="575.5" y="-63.5" font-family="Helvetica,sans-Serif" font-size="10.00">AH/Types/Frequency.hpp</text>
</a>
</g>
</g>
<!-- Node15&#45;&gt;Node16 -->
<g id="edge19" class="edge"><title>Node15&#45;&gt;Node16</title>
<path fill="none" stroke="midnightblue" d="M654.397,-112.324C639.597,-103.822 616.806,-90.7288 599.518,-80.7975"/>
<polygon fill="midnightblue" stroke="midnightblue" points="600.98,-77.6009 590.565,-75.6545 597.493,-83.6707 600.98,-77.6009"/>
</g>
<!-- Node17 -->
<g id="node17" class="node"><title>Node17</title>
<g id="a_node17"><a xlink:href="../../d7/d7c/ADCConfig_8hpp.html" target="_top" xlink:title="This file contains the platform&#45;specific ADC resolutions. By default, the library automatically selec...">
<polygon fill="white" stroke="black" points="799.5,-56.5 799.5,-75.5 947.5,-75.5 947.5,-56.5 799.5,-56.5"/>
<text text-anchor="middle" x="873.5" y="-63.5" font-family="Helvetica,sans-Serif" font-size="10.00">AH/Hardware/ADCConfig.hpp</text>
</a>
</g>
</g>
<!-- Node15&#45;&gt;Node17 -->
<g id="edge22" class="edge"><title>Node15&#45;&gt;Node17</title>
<path fill="none" stroke="midnightblue" d="M701.824,-112.444C736.889,-103.162 792.998,-88.3093 831.465,-78.127"/>
<polygon fill="midnightblue" stroke="midnightblue" points="832.555,-81.4589 841.327,-75.5164 830.764,-74.692 832.555,-81.4589"/>
</g>
<!-- Node18 -->
<g id="node18" class="node"><title>Node18</title>
<g id="a_node18"><a xlink:title=" ">
<polygon fill="white" stroke="#bfbfbf" points="657.5,-56.5 657.5,-75.5 705.5,-75.5 705.5,-56.5 657.5,-56.5"/>
<text text-anchor="middle" x="681.5" y="-63.5" font-family="Helvetica,sans-Serif" font-size="10.00">limits.h</text>
</a>
</g>
</g>
<!-- Node15&#45;&gt;Node18 -->
<g id="edge25" class="edge"><title>Node15&#45;&gt;Node18</title>
<path fill="none" stroke="midnightblue" d="M671.482,-112.083C673.072,-104.927 675.359,-94.6353 677.346,-85.6911"/>
<polygon fill="midnightblue" stroke="midnightblue" points="680.803,-86.2722 679.555,-75.7511 673.969,-84.7537 680.803,-86.2722"/>
</g>
<!-- Node15&#45;&gt;Node19 -->
<g id="edge26" class="edge"><title>Node15&#45;&gt;Node19</title>
<path fill="none" stroke="midnightblue" d="M705.121,-117.894C783.046,-111.025 974.484,-93.7402 1134.5,-76 1146.1,-74.7141 1158.73,-73.1802 1170.13,-71.7463"/>
<polygon fill="midnightblue" stroke="midnightblue" points="1170.71,-75.201 1180.19,-70.4675 1169.83,-68.2569 1170.71,-75.201"/>
</g>
<!-- Node16&#45;&gt;Node8 -->
<g id="edge20" class="edge"><title>Node16&#45;&gt;Node8</title>
<path fill="none" stroke="midnightblue" d="M603.546,-56.4435C633.582,-47.2801 681.413,-32.6876 714.743,-22.5192"/>
<polygon fill="midnightblue" stroke="midnightblue" points="716.042,-25.7822 724.585,-19.5164 713.999,-19.0869 716.042,-25.7822"/>
</g>
<!-- Node16&#45;&gt;Node14 -->
<g id="edge21" class="edge"><title>Node16&#45;&gt;Node14</title>
<path fill="none" stroke="midnightblue" d="M544.76,-56.4435C511.556,-47.2011 458.509,-32.4356 421.943,-22.2572"/>
<polygon fill="midnightblue" stroke="midnightblue" points="422.668,-18.8262 412.096,-19.5164 420.791,-25.5699 422.668,-18.8262"/>
</g>
<!-- Node17&#45;&gt;Node8 -->
<g id="edge23" class="edge"><title>Node17&#45;&gt;Node8</title>
<path fill="none" stroke="midnightblue" d="M854.327,-56.4435C834.591,-47.6356 803.615,-33.8116 781.007,-23.722"/>
<polygon fill="midnightblue" stroke="midnightblue" points="782.141,-20.3957 771.583,-19.5164 779.289,-26.788 782.141,-20.3957"/>
</g>
<!-- Node17&#45;&gt;Node12 -->
<g id="edge24" class="edge"><title>Node17&#45;&gt;Node12</title>
<path fill="none" stroke="midnightblue" d="M887.317,-56.324C900.733,-47.9002 921.324,-34.9709 937.086,-25.0741"/>
<polygon fill="midnightblue" stroke="midnightblue" points="939.109,-27.9364 945.717,-19.6545 935.387,-22.0081 939.109,-27.9364"/>
</g>
<!-- Node24&#45;&gt;Node5 -->
<g id="edge38" class="edge"><title>Node24&#45;&gt;Node5</title>
<path fill="none" stroke="midnightblue" d="M307.684,-392.438C292.714,-371.528 267.5,-330.456 267.5,-291 267.5,-291 267.5,-291 267.5,-177 267.5,-143.861 255.799,-106.682 247.803,-85.1445"/>
<polygon fill="midnightblue" stroke="midnightblue" points="251.009,-83.7302 244.141,-75.6622 244.478,-86.2517 251.009,-83.7302"/>
</g>
<!-- Node24&#45;&gt;Node7 -->
<g id="edge36" class="edge"><title>Node24&#45;&gt;Node7</title>
<path fill="none" stroke="midnightblue" d="M379.262,-400.659C493.627,-389.666 740.44,-365.942 863.959,-354.069"/>
<polygon fill="midnightblue" stroke="midnightblue" points="864.459,-357.537 874.078,-353.096 863.789,-350.569 864.459,-357.537"/>
</g>
<!-- Node24&#45;&gt;Node8 -->
<g id="edge35" class="edge"><title>Node24&#45;&gt;Node8</title>
<path fill="none" stroke="midnightblue" d="M323.559,-392.487C330.864,-370.965 343.5,-328.34 343.5,-291 343.5,-291 343.5,-291 343.5,-177 343.5,-138.577 370.909,-136.51 400.5,-112 438.245,-80.7355 449.51,-72.9438 495.5,-56 553.877,-34.4928 623.588,-23.1103 675.669,-17.1793"/>
<polygon fill="midnightblue" stroke="midnightblue" points="676.283,-20.6331 685.842,-16.0644 675.52,-13.6748 676.283,-20.6331"/>
</g>
<!-- Node24&#45;&gt;Node14 -->
<g id="edge37" class="edge"><title>Node24&#45;&gt;Node14</title>
<path fill="none" stroke="midnightblue" d="M315.869,-392.333C312.071,-370.609 305.5,-327.725 305.5,-291 305.5,-291 305.5,-291 305.5,-121 305.5,-81.2757 339.464,-45.5045 361.982,-26.1536"/>
<polygon fill="midnightblue" stroke="midnightblue" points="364.476,-28.6337 369.957,-19.5672 360.018,-23.2364 364.476,-28.6337"/>
</g>
</g>
</svg>
