<?xml version="1.0" encoding="UTF-8" standalone="no"?>
<!DOCTYPE svg PUBLIC "-//W3C//DTD SVG 1.1//EN"
 "http://www.w3.org/Graphics/SVG/1.1/DTD/svg11.dtd">
<!-- Generated by graphviz version 2.43.0 (0)
 -->
<!-- Title: SelectorBase Pages: 1 -->
<svg width="101pt" height="72pt"
 viewBox="0.00 0.00 101.00 72.00" xmlns="http://www.w3.org/2000/svg" xmlns:xlink="http://www.w3.org/1999/xlink">
<g id="graph0" class="graph" transform="scale(1 1) rotate(0) translate(4 68)">
<title>SelectorBase</title>
<!-- Node1 -->
<g id="Node000001" class="node">
<title>Node1</title>
<g id="a_Node000001"><a xlink:title="Base class for all Selectors exposing the get method, so it can be used by display elements etc,...">
<polygon fill="#999999" stroke="transparent" points="93,-64 0,-64 0,0 93,0 93,-64"/>
<text text-anchor="start" x="15" y="-52" font-family="Helvetica,sans-Serif" font-size="10.00">SelectorBase</text>
<text text-anchor="start" x="4.5" y="-37" font-family="Helvetica,sans-Serif" font-size="10.00">#</text>
<text text-anchor="start" x="17.5" y="-37" font-family="Helvetica,sans-Serif" font-size="10.00">setting</text>
<text text-anchor="start" x="4.5" y="-22" font-family="Helvetica,sans-Serif" font-size="10.00">+</text>
<text text-anchor="start" x="17.5" y="-22" font-family="Helvetica,sans-Serif" font-size="10.00">get()</text>
<text text-anchor="start" x="4.5" y="-7" font-family="Helvetica,sans-Serif" font-size="10.00">#</text>
<text text-anchor="start" x="17.5" y="-7" font-family="Helvetica,sans-Serif" font-size="10.00">SelectorBase()</text>
<polygon fill="#666666" stroke="#666666" points="0.5,-47 0.5,-47 93.5,-47 93.5,-47 0.5,-47"/>
<polygon fill="#666666" stroke="#666666" points="0.5,-32 0.5,-32 15.5,-32 15.5,-32 0.5,-32"/>
<polygon fill="#666666" stroke="#666666" points="15.5,-32 15.5,-32 93.5,-32 93.5,-32 15.5,-32"/>
<polygon fill="none" stroke="#666666" points="0,0 0,-64 93,-64 93,0 0,0"/>
</a>
</g>
</g>
</g>
</svg>
