<?xml version="1.0" encoding="UTF-8" standalone="no"?>
<!DOCTYPE svg PUBLIC "-//W3C//DTD SVG 1.1//EN"
 "http://www.w3.org/Graphics/SVG/1.1/DTD/svg11.dtd">
<!-- Generated by graphviz version 2.38.0 (20140413.2041)
 -->
<!-- Title: SwitchSelector.hpp Pages: 1 -->
<svg width="1867pt" height="666pt"
 viewBox="0.00 0.00 1867.04 666.00" xmlns="http://www.w3.org/2000/svg" xmlns:xlink="http://www.w3.org/1999/xlink">
<g id="graph0" class="graph" transform="scale(1 1) rotate(0) translate(4 662)">
<title>SwitchSelector.hpp</title>
<polygon fill="white" stroke="none" points="-4,4 -4,-662 1863.04,-662 1863.04,4 -4,4"/>
<!-- Node1 -->
<g id="node1" class="node"><title>Node1</title>
<g id="a_node1"><a xlink:title=" ">
<polygon fill="#bfbfbf" stroke="black" points="1052,-638.5 1052,-657.5 1153,-657.5 1153,-638.5 1052,-638.5"/>
<text text-anchor="middle" x="1102.5" y="-645.5" font-family="Helvetica,sans-Serif" font-size="10.00">SwitchSelector.hpp</text>
</a>
</g>
</g>
<!-- Node2 -->
<g id="node2" class="node"><title>Node2</title>
<g id="a_node2"><a xlink:href="../../d6/d16/Selector_8hpp.html" target="_top" xlink:title=" ">
<polygon fill="white" stroke="black" points="859,-582.5 859,-601.5 930,-601.5 930,-582.5 859,-582.5"/>
<text text-anchor="middle" x="894.5" y="-589.5" font-family="Helvetica,sans-Serif" font-size="10.00">Selector.hpp</text>
</a>
</g>
</g>
<!-- Node1&#45;&gt;Node2 -->
<g id="edge1" class="edge"><title>Node1&#45;&gt;Node2</title>
<path fill="none" stroke="midnightblue" d="M1069.54,-638.444C1033.71,-629.142 976.337,-614.246 937.109,-604.062"/>
<polygon fill="midnightblue" stroke="midnightblue" points="937.863,-600.642 927.304,-601.516 936.104,-607.417 937.863,-600.642"/>
</g>
<!-- Node31 -->
<g id="node31" class="node"><title>Node31</title>
<g id="a_node31"><a xlink:href="../../d4/db3/Button_8hpp.html" target="_top" xlink:title=" ">
<polygon fill="white" stroke="black" points="1209.5,-582.5 1209.5,-601.5 1335.5,-601.5 1335.5,-582.5 1209.5,-582.5"/>
<text text-anchor="middle" x="1272.5" y="-589.5" font-family="Helvetica,sans-Serif" font-size="10.00">AH/Hardware/Button.hpp</text>
</a>
</g>
</g>
<!-- Node1&#45;&gt;Node31 -->
<g id="edge62" class="edge"><title>Node1&#45;&gt;Node31</title>
<path fill="none" stroke="midnightblue" d="M1129.44,-638.444C1158.16,-629.32 1203.83,-614.813 1235.82,-604.651"/>
<polygon fill="midnightblue" stroke="midnightblue" points="1237.22,-607.88 1245.69,-601.516 1235.1,-601.208 1237.22,-607.88"/>
</g>
<!-- Node3 -->
<g id="node3" class="node"><title>Node3</title>
<g id="a_node3"><a xlink:href="../../d9/d46/Selectable_8hpp.html" target="_top" xlink:title=" ">
<polygon fill="white" stroke="black" points="322,-521 322,-540 403,-540 403,-521 322,-521"/>
<text text-anchor="middle" x="362.5" y="-528" font-family="Helvetica,sans-Serif" font-size="10.00">Selectable.hpp</text>
</a>
</g>
</g>
<!-- Node2&#45;&gt;Node3 -->
<g id="edge2" class="edge"><title>Node2&#45;&gt;Node3</title>
<path fill="none" stroke="midnightblue" d="M858.768,-587.004C766.554,-576.69 520.319,-549.151 413.318,-537.184"/>
<polygon fill="midnightblue" stroke="midnightblue" points="413.43,-533.674 403.103,-536.041 412.652,-540.631 413.43,-533.674"/>
</g>
<!-- Node6 -->
<g id="node6" class="node"><title>Node6</title>
<g id="a_node6"><a xlink:href="../../df/dee/Debug_8hpp.html" target="_top" xlink:title=" ">
<polygon fill="white" stroke="black" points="978,-224.5 978,-243.5 1091,-243.5 1091,-224.5 978,-224.5"/>
<text text-anchor="middle" x="1034.5" y="-231.5" font-family="Helvetica,sans-Serif" font-size="10.00">AH/Debug/Debug.hpp</text>
</a>
</g>
</g>
<!-- Node2&#45;&gt;Node6 -->
<g id="edge60" class="edge"><title>Node2&#45;&gt;Node6</title>
<path fill="none" stroke="midnightblue" d="M897.961,-582.2C916.269,-535.645 1001.95,-317.775 1027.37,-253.127"/>
<polygon fill="midnightblue" stroke="midnightblue" points="1030.63,-254.398 1031.03,-243.811 1024.12,-251.836 1030.63,-254.398"/>
</g>
<!-- Node20 -->
<g id="node20" class="node"><title>Node20</title>
<g id="a_node20"><a xlink:href="../../d0/d4e/Def_8hpp.html" target="_top" xlink:title=" ">
<polygon fill="white" stroke="black" points="226.5,-459.5 226.5,-478.5 296.5,-478.5 296.5,-459.5 226.5,-459.5"/>
<text text-anchor="middle" x="261.5" y="-466.5" font-family="Helvetica,sans-Serif" font-size="10.00">Def/Def.hpp</text>
</a>
</g>
</g>
<!-- Node2&#45;&gt;Node20 -->
<g id="edge61" class="edge"><title>Node2&#45;&gt;Node20</title>
<path fill="none" stroke="midnightblue" d="M858.95,-590.045C739.837,-586.598 359.65,-573.529 312.5,-546 290.476,-533.141 276.021,-506.533 268.302,-488.47"/>
<polygon fill="midnightblue" stroke="midnightblue" points="271.479,-486.987 264.529,-478.991 264.975,-489.576 271.479,-486.987"/>
</g>
<!-- Node26 -->
<g id="node26" class="node"><title>Node26</title>
<g id="a_node26"><a xlink:href="../../d4/d93/Updatable_8hpp.html" target="_top" xlink:title=" ">
<polygon fill="white" stroke="black" points="821,-336.5 821,-355.5 968,-355.5 968,-336.5 821,-336.5"/>
<text text-anchor="middle" x="894.5" y="-343.5" font-family="Helvetica,sans-Serif" font-size="10.00">AH/Containers/Updatable.hpp</text>
</a>
</g>
</g>
<!-- Node2&#45;&gt;Node26 -->
<g id="edge46" class="edge"><title>Node2&#45;&gt;Node26</title>
<path fill="none" stroke="midnightblue" d="M894.5,-582.316C894.5,-547.185 894.5,-415.119 894.5,-365.763"/>
<polygon fill="midnightblue" stroke="midnightblue" points="898,-365.58 894.5,-355.58 891,-365.58 898,-365.58"/>
</g>
<!-- Node4 -->
<g id="node4" class="node"><title>Node4</title>
<g id="a_node4"><a xlink:href="../../d1/d93/Error_8hpp.html" target="_top" xlink:title=" ">
<polygon fill="white" stroke="black" points="785.5,-280.5 785.5,-299.5 883.5,-299.5 883.5,-280.5 785.5,-280.5"/>
<text text-anchor="middle" x="834.5" y="-287.5" font-family="Helvetica,sans-Serif" font-size="10.00">AH/Error/Error.hpp</text>
</a>
</g>
</g>
<!-- Node3&#45;&gt;Node4 -->
<g id="edge3" class="edge"><title>Node3&#45;&gt;Node4</title>
<path fill="none" stroke="midnightblue" d="M383.541,-520.94C440.981,-497.303 604.769,-428.091 733.5,-356 762.214,-339.92 793.912,-318.961 814.001,-305.251"/>
<polygon fill="midnightblue" stroke="midnightblue" points="816.102,-308.054 822.361,-299.505 812.138,-302.285 816.102,-308.054"/>
</g>
<!-- Node16 -->
<g id="node16" class="node"><title>Node16</title>
<g id="a_node16"><a xlink:title=" ">
<polygon fill="white" stroke="#bfbfbf" points="243,-56.5 243,-75.5 292,-75.5 292,-56.5 243,-56.5"/>
<text text-anchor="middle" x="267.5" y="-63.5" font-family="Helvetica,sans-Serif" font-size="10.00">stdint.h</text>
</a>
</g>
</g>
<!-- Node3&#45;&gt;Node16 -->
<g id="edge45" class="edge"><title>Node3&#45;&gt;Node16</title>
<path fill="none" stroke="midnightblue" d="M356.267,-520.902C335.132,-490.876 267.5,-387.272 267.5,-291 267.5,-291 267.5,-291 267.5,-177 267.5,-144.948 267.5,-107.643 267.5,-85.7489"/>
<polygon fill="midnightblue" stroke="midnightblue" points="271,-85.5577 267.5,-75.5578 264,-85.5578 271,-85.5577"/>
</g>
<!-- Node19 -->
<g id="node19" class="node"><title>Node19</title>
<g id="a_node19"><a xlink:title=" ">
<polygon fill="white" stroke="#bfbfbf" points="372,-280.5 372,-299.5 473,-299.5 473,-280.5 372,-280.5"/>
<text text-anchor="middle" x="422.5" y="-287.5" font-family="Helvetica,sans-Serif" font-size="10.00">AH/STL/type_traits</text>
</a>
</g>
</g>
<!-- Node3&#45;&gt;Node19 -->
<g id="edge26" class="edge"><title>Node3&#45;&gt;Node19</title>
<path fill="none" stroke="midnightblue" d="M364.707,-520.729C373.436,-486.029 405.672,-357.892 417.824,-309.588"/>
<polygon fill="midnightblue" stroke="midnightblue" points="421.291,-310.151 420.337,-299.599 414.503,-308.443 421.291,-310.151"/>
</g>
<!-- Node3&#45;&gt;Node20 -->
<g id="edge27" class="edge"><title>Node3&#45;&gt;Node20</title>
<path fill="none" stroke="midnightblue" d="M348.029,-520.975C331.529,-511.255 304.322,-495.227 284.819,-483.737"/>
<polygon fill="midnightblue" stroke="midnightblue" points="286.337,-480.569 275.944,-478.509 282.784,-486.601 286.337,-480.569"/>
</g>
<!-- Node5 -->
<g id="node5" class="node"><title>Node5</title>
<g id="a_node5"><a xlink:href="../../d1/d65/Warnings_8hpp.html" target="_top" xlink:title=" ">
<polygon fill="white" stroke="black" points="1138,-0.5 1138,-19.5 1271,-19.5 1271,-0.5 1138,-0.5"/>
<text text-anchor="middle" x="1204.5" y="-7.5" font-family="Helvetica,sans-Serif" font-size="10.00">AH/Settings/Warnings.hpp</text>
</a>
</g>
</g>
<!-- Node4&#45;&gt;Node5 -->
<g id="edge4" class="edge"><title>Node4&#45;&gt;Node5</title>
<path fill="none" stroke="midnightblue" d="M833.854,-280.266C832.694,-259.602 831.907,-206.554 850.5,-168 865.519,-136.857 875.283,-130.488 904.5,-112 981.374,-63.3571 1084.27,-35.3913 1147.39,-21.7006"/>
<polygon fill="midnightblue" stroke="midnightblue" points="1148.49,-25.0443 1157.55,-19.5457 1147.04,-18.1966 1148.49,-25.0443"/>
</g>
<!-- Node4&#45;&gt;Node6 -->
<g id="edge5" class="edge"><title>Node4&#45;&gt;Node6</title>
<path fill="none" stroke="midnightblue" d="M866.191,-280.444C900.568,-271.162 955.577,-256.309 993.289,-246.127"/>
<polygon fill="midnightblue" stroke="midnightblue" points="994.216,-249.502 1002.96,-243.516 992.391,-242.744 994.216,-249.502"/>
</g>
<!-- Node6&#45;&gt;Node5 -->
<g id="edge6" class="edge"><title>Node6&#45;&gt;Node5</title>
<path fill="none" stroke="midnightblue" d="M1067.76,-224.351C1087.89,-217.537 1112.64,-206.097 1128.5,-188 1169.17,-141.597 1143.35,-110.903 1171.5,-56 1176.63,-45.9973 1183.89,-35.8175 1190.29,-27.676"/>
<polygon fill="midnightblue" stroke="midnightblue" points="1193.15,-29.7066 1196.77,-19.7465 1187.73,-25.2801 1193.15,-29.7066"/>
</g>
<!-- Node7 -->
<g id="node7" class="node"><title>Node7</title>
<g id="a_node7"><a xlink:href="../../dd/d80/PrintStream_8hpp.html" target="_top" xlink:title=" ">
<polygon fill="white" stroke="black" points="1675,-56.5 1675,-75.5 1834,-75.5 1834,-56.5 1675,-56.5"/>
<text text-anchor="middle" x="1754.5" y="-63.5" font-family="Helvetica,sans-Serif" font-size="10.00">AH/PrintStream/PrintStream.hpp</text>
</a>
</g>
</g>
<!-- Node6&#45;&gt;Node7 -->
<g id="edge7" class="edge"><title>Node6&#45;&gt;Node7</title>
<path fill="none" stroke="midnightblue" d="M1071.44,-224.482C1191.97,-196.694 1573.66,-108.695 1707.54,-77.8273"/>
<polygon fill="midnightblue" stroke="midnightblue" points="1708.53,-81.1905 1717.49,-75.5332 1706.96,-74.3694 1708.53,-81.1905"/>
</g>
<!-- Node9 -->
<g id="node9" class="node"><title>Node9</title>
<g id="a_node9"><a xlink:href="../../de/dd1/AH_2Settings_2SettingsWrapper_8hpp.html" target="_top" xlink:title=" ">
<polygon fill="white" stroke="black" points="859.5,-168.5 859.5,-187.5 1023.5,-187.5 1023.5,-168.5 859.5,-168.5"/>
<text text-anchor="middle" x="941.5" y="-175.5" font-family="Helvetica,sans-Serif" font-size="10.00">AH/Settings/SettingsWrapper.hpp</text>
</a>
</g>
</g>
<!-- Node6&#45;&gt;Node9 -->
<g id="edge10" class="edge"><title>Node6&#45;&gt;Node9</title>
<path fill="none" stroke="midnightblue" d="M1014.44,-224.324C998.112,-215.9 975.546,-202.971 959.73,-193.074"/>
<polygon fill="midnightblue" stroke="midnightblue" points="961.6,-190.116 951.295,-187.655 957.816,-196.005 961.6,-190.116"/>
</g>
<!-- Node18 -->
<g id="node18" class="node"><title>Node18</title>
<g id="a_node18"><a xlink:href="../../d7/d52/DebugVal_8hpp.html" target="_top" xlink:title=" ">
<polygon fill="white" stroke="black" points="1041.5,-168.5 1041.5,-187.5 1119.5,-187.5 1119.5,-168.5 1041.5,-168.5"/>
<text text-anchor="middle" x="1080.5" y="-175.5" font-family="Helvetica,sans-Serif" font-size="10.00">DebugVal.hpp</text>
</a>
</g>
</g>
<!-- Node6&#45;&gt;Node18 -->
<g id="edge25" class="edge"><title>Node6&#45;&gt;Node18</title>
<path fill="none" stroke="midnightblue" d="M1042.1,-224.083C1048.73,-216.298 1058.52,-204.801 1066.56,-195.367"/>
<polygon fill="midnightblue" stroke="midnightblue" points="1069.23,-197.633 1073.05,-187.751 1063.9,-193.094 1069.23,-197.633"/>
</g>
<!-- Node7&#45;&gt;Node5 -->
<g id="edge8" class="edge"><title>Node7&#45;&gt;Node5</title>
<path fill="none" stroke="midnightblue" d="M1674.82,-57.1768C1569.51,-46.8377 1385.23,-28.7446 1281.36,-18.5462"/>
<polygon fill="midnightblue" stroke="midnightblue" points="1281.55,-15.0482 1271.26,-17.5542 1280.87,-22.0147 1281.55,-15.0482"/>
</g>
<!-- Node8 -->
<g id="node8" class="node"><title>Node8</title>
<g id="a_node8"><a xlink:title=" ">
<polygon fill="white" stroke="#bfbfbf" points="1582.5,-0.5 1582.5,-19.5 1640.5,-19.5 1640.5,-0.5 1582.5,-0.5"/>
<text text-anchor="middle" x="1611.5" y="-7.5" font-family="Helvetica,sans-Serif" font-size="10.00">Arduino.h</text>
</a>
</g>
</g>
<!-- Node7&#45;&gt;Node8 -->
<g id="edge9" class="edge"><title>Node7&#45;&gt;Node8</title>
<path fill="none" stroke="midnightblue" d="M1731.84,-56.4435C1708.1,-47.4776 1670.59,-33.314 1643.76,-23.1827"/>
<polygon fill="midnightblue" stroke="midnightblue" points="1644.64,-19.7749 1634.05,-19.5164 1642.17,-26.3235 1644.64,-19.7749"/>
</g>
<!-- Node9&#45;&gt;Node5 -->
<g id="edge11" class="edge"><title>Node9&#45;&gt;Node5</title>
<path fill="none" stroke="midnightblue" d="M1006.34,-168.5C1034.55,-162.172 1066.55,-151.156 1090.5,-132 1120.81,-107.76 1106.75,-84.1201 1133.5,-56 1145.88,-42.9889 1162.76,-32.0892 1176.95,-24.2772"/>
<polygon fill="midnightblue" stroke="midnightblue" points="1178.61,-27.3606 1185.82,-19.5983 1175.34,-21.1696 1178.61,-27.3606"/>
</g>
<!-- Node9&#45;&gt;Node6 -->
<g id="edge24" class="edge"><title>Node9&#45;&gt;Node6</title>
<path fill="none" stroke="midnightblue" d="M961.515,-187.655C977.836,-196.071 1000.4,-208.999 1016.23,-218.901"/>
<polygon fill="midnightblue" stroke="midnightblue" points="1014.37,-221.864 1024.67,-224.324 1018.15,-215.974 1014.37,-221.864"/>
</g>
<!-- Node10 -->
<g id="node10" class="node"><title>Node10</title>
<g id="a_node10"><a xlink:href="../../d6/db0/AH_2Settings_2NamespaceSettings_8hpp.html" target="_top" xlink:title=" ">
<polygon fill="white" stroke="black" points="646.5,-0.5 646.5,-19.5 770.5,-19.5 770.5,-0.5 646.5,-0.5"/>
<text text-anchor="middle" x="708.5" y="-7.5" font-family="Helvetica,sans-Serif" font-size="10.00">NamespaceSettings.hpp</text>
</a>
</g>
</g>
<!-- Node9&#45;&gt;Node10 -->
<g id="edge12" class="edge"><title>Node9&#45;&gt;Node10</title>
<path fill="none" stroke="midnightblue" d="M891.791,-168.43C858.123,-161.444 813.251,-149.782 776.5,-132 738.732,-113.726 719.423,-113.448 700.5,-76 693.136,-61.4267 696.552,-42.7489 700.97,-29.1577"/>
<polygon fill="midnightblue" stroke="midnightblue" points="704.347,-30.1171 704.542,-19.524 697.784,-27.6836 704.347,-30.1171"/>
</g>
<!-- Node11 -->
<g id="node11" class="node"><title>Node11</title>
<g id="a_node11"><a xlink:href="../../d5/d4f/AH_2Settings_2Settings_8hpp.html" target="_top" xlink:title="All user settings and debugging options can be changed here.">
<polygon fill="white" stroke="black" points="786,-112.5 786,-131.5 857,-131.5 857,-112.5 786,-112.5"/>
<text text-anchor="middle" x="821.5" y="-119.5" font-family="Helvetica,sans-Serif" font-size="10.00">Settings.hpp</text>
</a>
</g>
</g>
<!-- Node9&#45;&gt;Node11 -->
<g id="edge13" class="edge"><title>Node9&#45;&gt;Node11</title>
<path fill="none" stroke="midnightblue" d="M922.486,-168.444C902.912,-159.636 872.192,-145.812 849.771,-135.722"/>
<polygon fill="midnightblue" stroke="midnightblue" points="850.981,-132.428 840.425,-131.516 848.108,-138.812 850.981,-132.428"/>
</g>
<!-- Node17 -->
<g id="node17" class="node"><title>Node17</title>
<g id="a_node17"><a xlink:href="../../d9/d98/TeensyUSBTypes_8hpp.html" target="_top" xlink:title=" ">
<polygon fill="white" stroke="black" points="913.5,-112.5 913.5,-131.5 1081.5,-131.5 1081.5,-112.5 913.5,-112.5"/>
<text text-anchor="middle" x="997.5" y="-119.5" font-family="Helvetica,sans-Serif" font-size="10.00">AH/Teensy/TeensyUSBTypes.hpp</text>
</a>
</g>
</g>
<!-- Node9&#45;&gt;Node17 -->
<g id="edge23" class="edge"><title>Node9&#45;&gt;Node17</title>
<path fill="none" stroke="midnightblue" d="M950.497,-168.324C958.694,-160.42 971.006,-148.548 980.972,-138.938"/>
<polygon fill="midnightblue" stroke="midnightblue" points="983.57,-141.295 988.339,-131.834 978.711,-136.256 983.57,-141.295"/>
</g>
<!-- Node12 -->
<g id="node12" class="node"><title>Node12</title>
<g id="a_node12"><a xlink:href="../../dc/d50/Frequency_8hpp.html" target="_top" xlink:title=" ">
<polygon fill="white" stroke="black" points="709.5,-56.5 709.5,-75.5 837.5,-75.5 837.5,-56.5 709.5,-56.5"/>
<text text-anchor="middle" x="773.5" y="-63.5" font-family="Helvetica,sans-Serif" font-size="10.00">AH/Types/Frequency.hpp</text>
</a>
</g>
</g>
<!-- Node11&#45;&gt;Node12 -->
<g id="edge14" class="edge"><title>Node11&#45;&gt;Node12</title>
<path fill="none" stroke="midnightblue" d="M813.574,-112.083C806.654,-104.298 796.435,-92.8015 788.048,-83.3665"/>
<polygon fill="midnightblue" stroke="midnightblue" points="790.538,-80.8999 781.279,-75.7511 785.306,-85.5505 790.538,-80.8999"/>
</g>
<!-- Node13 -->
<g id="node13" class="node"><title>Node13</title>
<g id="a_node13"><a xlink:href="../../d7/d7c/ADCConfig_8hpp.html" target="_top" xlink:title="This file contains the platform&#45;specific ADC resolutions. By default, the library automatically selec...">
<polygon fill="white" stroke="black" points="1395.5,-56.5 1395.5,-75.5 1543.5,-75.5 1543.5,-56.5 1395.5,-56.5"/>
<text text-anchor="middle" x="1469.5" y="-63.5" font-family="Helvetica,sans-Serif" font-size="10.00">AH/Hardware/ADCConfig.hpp</text>
</a>
</g>
</g>
<!-- Node11&#45;&gt;Node13 -->
<g id="edge17" class="edge"><title>Node11&#45;&gt;Node13</title>
<path fill="none" stroke="midnightblue" d="M857.017,-116.886C871.704,-115.253 888.912,-113.428 904.5,-112 1114.75,-92.7383 1170.33,-95.3365 1385.28,-75.9872"/>
<polygon fill="midnightblue" stroke="midnightblue" points="1385.67,-79.467 1395.31,-75.0793 1385.03,-72.4956 1385.67,-79.467"/>
</g>
<!-- Node14 -->
<g id="node14" class="node"><title>Node14</title>
<g id="a_node14"><a xlink:title=" ">
<polygon fill="white" stroke="#bfbfbf" points="893.5,-56.5 893.5,-75.5 941.5,-75.5 941.5,-56.5 893.5,-56.5"/>
<text text-anchor="middle" x="917.5" y="-63.5" font-family="Helvetica,sans-Serif" font-size="10.00">limits.h</text>
</a>
</g>
</g>
<!-- Node11&#45;&gt;Node14 -->
<g id="edge20" class="edge"><title>Node11&#45;&gt;Node14</title>
<path fill="none" stroke="midnightblue" d="M836.924,-112.324C852.04,-103.822 875.315,-90.7288 892.971,-80.7975"/>
<polygon fill="midnightblue" stroke="midnightblue" points="895.114,-83.6077 902.114,-75.6545 891.683,-77.5066 895.114,-83.6077"/>
</g>
<!-- Node15 -->
<g id="node15" class="node"><title>Node15</title>
<g id="a_node15"><a xlink:title=" ">
<polygon fill="white" stroke="#bfbfbf" points="563.5,-56.5 563.5,-75.5 615.5,-75.5 615.5,-56.5 563.5,-56.5"/>
<text text-anchor="middle" x="589.5" y="-63.5" font-family="Helvetica,sans-Serif" font-size="10.00">stddef.h</text>
</a>
</g>
</g>
<!-- Node11&#45;&gt;Node15 -->
<g id="edge21" class="edge"><title>Node11&#45;&gt;Node15</title>
<path fill="none" stroke="midnightblue" d="M785.758,-112.681C742.22,-102.547 669.095,-85.5263 625.458,-75.3696"/>
<polygon fill="midnightblue" stroke="midnightblue" points="626.096,-71.9244 615.562,-73.0662 624.509,-78.7422 626.096,-71.9244"/>
</g>
<!-- Node11&#45;&gt;Node16 -->
<g id="edge22" class="edge"><title>Node11&#45;&gt;Node16</title>
<path fill="none" stroke="midnightblue" d="M785.577,-117.499C684.943,-107.689 401.162,-80.0284 302.124,-70.3749"/>
<polygon fill="midnightblue" stroke="midnightblue" points="302.344,-66.8798 292.051,-69.3931 301.664,-73.8468 302.344,-66.8798"/>
</g>
<!-- Node12&#45;&gt;Node5 -->
<g id="edge15" class="edge"><title>Node12&#45;&gt;Node5</title>
<path fill="none" stroke="midnightblue" d="M837.56,-56.974C914.997,-47.2718 1045.19,-30.9602 1127.87,-20.6009"/>
<polygon fill="midnightblue" stroke="midnightblue" points="1128.47,-24.0528 1137.96,-19.3367 1127.6,-17.1071 1128.47,-24.0528"/>
</g>
<!-- Node12&#45;&gt;Node10 -->
<g id="edge16" class="edge"><title>Node12&#45;&gt;Node10</title>
<path fill="none" stroke="midnightblue" d="M763.057,-56.324C753.354,-48.2631 738.685,-36.0765 727,-26.3695"/>
<polygon fill="midnightblue" stroke="midnightblue" points="729.062,-23.532 719.133,-19.8339 724.589,-28.9163 729.062,-23.532"/>
</g>
<!-- Node13&#45;&gt;Node5 -->
<g id="edge18" class="edge"><title>Node13&#45;&gt;Node5</title>
<path fill="none" stroke="midnightblue" d="M1427.51,-56.4435C1381.09,-46.9839 1306.27,-31.7384 1256.26,-21.5472"/>
<polygon fill="midnightblue" stroke="midnightblue" points="1256.79,-18.0837 1246.29,-19.5164 1255.39,-24.9427 1256.79,-18.0837"/>
</g>
<!-- Node13&#45;&gt;Node8 -->
<g id="edge19" class="edge"><title>Node13&#45;&gt;Node8</title>
<path fill="none" stroke="midnightblue" d="M1492,-56.4435C1515.58,-47.4776 1552.82,-33.314 1579.46,-23.1827"/>
<polygon fill="midnightblue" stroke="midnightblue" points="1581,-26.3424 1589.1,-19.5164 1578.51,-19.7995 1581,-26.3424"/>
</g>
<!-- Node20&#45;&gt;Node15 -->
<g id="edge43" class="edge"><title>Node20&#45;&gt;Node15</title>
<path fill="none" stroke="midnightblue" d="M265.251,-459.35C275.892,-434.002 305.5,-357.495 305.5,-291 305.5,-291 305.5,-291 305.5,-233 305.5,-119.547 476.518,-82.2116 553.134,-71.1782"/>
<polygon fill="midnightblue" stroke="midnightblue" points="553.857,-74.6121 563.291,-69.7907 552.909,-67.6765 553.857,-74.6121"/>
</g>
<!-- Node20&#45;&gt;Node16 -->
<g id="edge44" class="edge"><title>Node20&#45;&gt;Node16</title>
<path fill="none" stroke="midnightblue" d="M257.576,-459.402C249.031,-439.866 229.5,-390.458 229.5,-347 229.5,-347 229.5,-347 229.5,-177 229.5,-142.813 246.1,-105.764 257.357,-84.5707"/>
<polygon fill="midnightblue" stroke="midnightblue" points="260.447,-86.2151 262.216,-75.769 254.319,-82.832 260.447,-86.2151"/>
</g>
<!-- Node21 -->
<g id="node21" class="node"><title>Node21</title>
<g id="a_node21"><a xlink:href="../../d7/d42/Channel_8hpp.html" target="_top" xlink:title=" ">
<polygon fill="white" stroke="black" points="130,-398 130,-417 201,-417 201,-398 130,-398"/>
<text text-anchor="middle" x="165.5" y="-405" font-family="Helvetica,sans-Serif" font-size="10.00">Channel.hpp</text>
</a>
</g>
</g>
<!-- Node20&#45;&gt;Node21 -->
<g id="edge28" class="edge"><title>Node20&#45;&gt;Node21</title>
<path fill="none" stroke="midnightblue" d="M247.746,-459.475C232.134,-449.799 206.437,-433.872 187.917,-422.394"/>
<polygon fill="midnightblue" stroke="midnightblue" points="189.573,-419.302 179.229,-417.009 185.885,-425.252 189.573,-419.302"/>
</g>
<!-- Node22 -->
<g id="node22" class="node"><title>Node22</title>
<g id="a_node22"><a xlink:title=" ">
<polygon fill="white" stroke="#bfbfbf" points="0,-336.5 0,-355.5 163,-355.5 163,-336.5 0,-336.5"/>
<text text-anchor="middle" x="81.5" y="-343.5" font-family="Helvetica,sans-Serif" font-size="10.00">Settings/NamespaceSettings.hpp</text>
</a>
</g>
</g>
<!-- Node20&#45;&gt;Node22 -->
<g id="edge42" class="edge"><title>Node20&#45;&gt;Node22</title>
<path fill="none" stroke="midnightblue" d="M226.263,-464.396C195.294,-459.594 150.596,-448.494 120.5,-423 102.77,-407.981 92.134,-382.878 86.5498,-365.66"/>
<polygon fill="midnightblue" stroke="midnightblue" points="89.7856,-364.261 83.5859,-355.67 83.0747,-366.252 89.7856,-364.261"/>
</g>
<!-- Node23 -->
<g id="node23" class="node"><title>Node23</title>
<g id="a_node23"><a xlink:href="../../de/d76/Array_8hpp.html" target="_top" xlink:title=" ">
<polygon fill="white" stroke="black" points="529.5,-336.5 529.5,-355.5 655.5,-355.5 655.5,-336.5 529.5,-336.5"/>
<text text-anchor="middle" x="592.5" y="-343.5" font-family="Helvetica,sans-Serif" font-size="10.00">AH/Containers/Array.hpp</text>
</a>
</g>
</g>
<!-- Node20&#45;&gt;Node23 -->
<g id="edge31" class="edge"><title>Node20&#45;&gt;Node23</title>
<path fill="none" stroke="midnightblue" d="M296.63,-467.583C368.994,-465.998 531.271,-458.475 571.5,-423 587.671,-408.74 591.893,-383.26 592.748,-365.763"/>
<polygon fill="midnightblue" stroke="midnightblue" points="596.249,-365.672 592.915,-355.616 589.25,-365.557 596.249,-365.672"/>
</g>
<!-- Node25 -->
<g id="node25" class="node"><title>Node25</title>
<g id="a_node25"><a xlink:href="../../d4/d35/Hardware-Types_8hpp.html" target="_top" xlink:title=" ">
<polygon fill="white" stroke="black" points="442,-392.5 442,-422.5 563,-422.5 563,-392.5 442,-392.5"/>
<text text-anchor="start" x="450" y="-410.5" font-family="Helvetica,sans-Serif" font-size="10.00">AH/Hardware/Hardware</text>
<text text-anchor="middle" x="502.5" y="-399.5" font-family="Helvetica,sans-Serif" font-size="10.00">&#45;Types.hpp</text>
</a>
</g>
</g>
<!-- Node20&#45;&gt;Node25 -->
<g id="edge37" class="edge"><title>Node20&#45;&gt;Node25</title>
<path fill="none" stroke="midnightblue" d="M296.029,-459.475C332.406,-450.494 390.594,-436.128 435.94,-424.933"/>
<polygon fill="midnightblue" stroke="midnightblue" points="436.832,-428.318 445.701,-422.523 435.154,-421.522 436.832,-428.318"/>
</g>
<!-- Node21&#45;&gt;Node16 -->
<g id="edge29" class="edge"><title>Node21&#45;&gt;Node16</title>
<path fill="none" stroke="midnightblue" d="M168.793,-397.955C175.789,-379.007 191.5,-331.902 191.5,-291 191.5,-291 191.5,-291 191.5,-177 191.5,-146.205 197.97,-137.319 215.5,-112 223.676,-100.19 235.653,-89.5418 246.052,-81.5714"/>
<polygon fill="midnightblue" stroke="midnightblue" points="248.293,-84.2685 254.297,-75.5395 244.16,-78.6188 248.293,-84.2685"/>
</g>
<!-- Node21&#45;&gt;Node22 -->
<g id="edge30" class="edge"><title>Node21&#45;&gt;Node22</title>
<path fill="none" stroke="midnightblue" d="M153.465,-397.975C139.992,-388.431 117.934,-372.807 101.785,-361.368"/>
<polygon fill="midnightblue" stroke="midnightblue" points="103.696,-358.433 93.5128,-355.509 99.65,-364.145 103.696,-358.433"/>
</g>
<!-- Node23&#45;&gt;Node4 -->
<g id="edge33" class="edge"><title>Node23&#45;&gt;Node4</title>
<path fill="none" stroke="midnightblue" d="M630.846,-336.444C672.973,-327.043 740.706,-311.929 786.372,-301.739"/>
<polygon fill="midnightblue" stroke="midnightblue" points="787.336,-305.11 796.334,-299.516 785.812,-298.278 787.336,-305.11"/>
</g>
<!-- Node23&#45;&gt;Node5 -->
<g id="edge32" class="edge"><title>Node23&#45;&gt;Node5</title>
<path fill="none" stroke="midnightblue" d="M606.799,-336.401C631.958,-320.058 681.5,-281.92 681.5,-235 681.5,-235 681.5,-235 681.5,-121 681.5,-90.9022 677.244,-75.1056 700.5,-56 732.751,-29.505 994.884,-17.548 1127.81,-13.1456"/>
<polygon fill="midnightblue" stroke="midnightblue" points="1128.04,-16.6398 1137.93,-12.8168 1127.82,-9.64354 1128.04,-16.6398"/>
</g>
<!-- Node23&#45;&gt;Node15 -->
<g id="edge36" class="edge"><title>Node23&#45;&gt;Node15</title>
<path fill="none" stroke="midnightblue" d="M600.983,-336.234C608.554,-327.75 619.104,-314.131 623.5,-300 626.141,-291.512 624.203,-288.861 623.5,-280 617.758,-207.603 601.203,-122.655 593.514,-85.7212"/>
<polygon fill="midnightblue" stroke="midnightblue" points="596.924,-84.9291 591.434,-75.8676 590.075,-86.3749 596.924,-84.9291"/>
</g>
<!-- Node23&#45;&gt;Node19 -->
<g id="edge35" class="edge"><title>Node23&#45;&gt;Node19</title>
<path fill="none" stroke="midnightblue" d="M565.563,-336.444C536.84,-327.32 491.171,-312.813 459.179,-302.651"/>
<polygon fill="midnightblue" stroke="midnightblue" points="459.901,-299.208 449.311,-299.516 457.782,-305.88 459.901,-299.208"/>
</g>
<!-- Node24 -->
<g id="node24" class="node"><title>Node24</title>
<g id="a_node24"><a xlink:title=" ">
<polygon fill="white" stroke="#bfbfbf" points="530,-280.5 530,-299.5 615,-299.5 615,-280.5 530,-280.5"/>
<text text-anchor="middle" x="572.5" y="-287.5" font-family="Helvetica,sans-Serif" font-size="10.00">AH/STL/iterator</text>
</a>
</g>
</g>
<!-- Node23&#45;&gt;Node24 -->
<g id="edge34" class="edge"><title>Node23&#45;&gt;Node24</title>
<path fill="none" stroke="midnightblue" d="M589.197,-336.083C586.518,-328.849 582.651,-318.409 579.314,-309.397"/>
<polygon fill="midnightblue" stroke="midnightblue" points="582.496,-307.913 575.741,-299.751 575.932,-310.344 582.496,-307.913"/>
</g>
<!-- Node25&#45;&gt;Node5 -->
<g id="edge38" class="edge"><title>Node25&#45;&gt;Node5</title>
<path fill="none" stroke="midnightblue" d="M563.235,-400.122C627.431,-389.625 719.5,-362.165 719.5,-291 719.5,-291 719.5,-291 719.5,-233 719.5,-173.554 735.202,-154.759 776.5,-112 800.804,-86.8361 815.465,-92.1471 846.5,-76 863.431,-67.1912 866.337,-61.8602 884.5,-56 964.956,-30.042 1061.57,-19.0515 1127.44,-14.4019"/>
<polygon fill="midnightblue" stroke="midnightblue" points="1128,-17.8723 1137.74,-13.7088 1127.53,-10.8881 1128,-17.8723"/>
</g>
<!-- Node25&#45;&gt;Node10 -->
<g id="edge40" class="edge"><title>Node25&#45;&gt;Node10</title>
<path fill="none" stroke="midnightblue" d="M502.298,-392.275C502.005,-370.477 501.5,-327.496 501.5,-291 501.5,-291 501.5,-291 501.5,-121 501.5,-58.2924 576.492,-31.221 636.201,-19.6049"/>
<polygon fill="midnightblue" stroke="midnightblue" points="637.186,-22.9829 646.393,-17.7401 635.927,-16.0972 637.186,-22.9829"/>
</g>
<!-- Node25&#45;&gt;Node16 -->
<g id="edge41" class="edge"><title>Node25&#45;&gt;Node16</title>
<path fill="none" stroke="midnightblue" d="M474.55,-392.384C442.78,-374.929 391.572,-342.274 362.5,-300 345.445,-275.201 343.5,-265.098 343.5,-235 343.5,-235 343.5,-235 343.5,-177 343.5,-137.276 309.536,-101.504 287.018,-82.1536"/>
<polygon fill="midnightblue" stroke="midnightblue" points="288.982,-79.2364 279.043,-75.5672 284.524,-84.6337 288.982,-79.2364"/>
</g>
<!-- Node25&#45;&gt;Node23 -->
<g id="edge39" class="edge"><title>Node25&#45;&gt;Node23</title>
<path fill="none" stroke="midnightblue" d="M523.829,-392.399C537.985,-383.04 556.511,-370.792 570.753,-361.377"/>
<polygon fill="midnightblue" stroke="midnightblue" points="572.993,-364.092 579.404,-355.658 569.132,-358.253 572.993,-364.092"/>
</g>
<!-- Node26&#45;&gt;Node4 -->
<g id="edge57" class="edge"><title>Node26&#45;&gt;Node4</title>
<path fill="none" stroke="midnightblue" d="M884.86,-336.324C875.99,-328.341 862.625,-316.313 851.892,-306.653"/>
<polygon fill="midnightblue" stroke="midnightblue" points="854.09,-303.922 844.315,-299.834 849.407,-309.125 854.09,-303.922"/>
</g>
<!-- Node26&#45;&gt;Node5 -->
<g id="edge47" class="edge"><title>Node26&#45;&gt;Node5</title>
<path fill="none" stroke="midnightblue" d="M925.224,-336.425C981.19,-318.987 1098.66,-273.6 1149.5,-188 1180.66,-135.533 1195.84,-63.6686 1201.61,-29.9374"/>
<polygon fill="midnightblue" stroke="midnightblue" points="1205.13,-30.122 1203.27,-19.6908 1198.22,-29.002 1205.13,-30.122"/>
</g>
<!-- Node26&#45;&gt;Node9 -->
<g id="edge58" class="edge"><title>Node26&#45;&gt;Node9</title>
<path fill="none" stroke="midnightblue" d="M897.027,-336.075C904.425,-309.945 926.151,-233.211 936.24,-197.577"/>
<polygon fill="midnightblue" stroke="midnightblue" points="939.717,-198.143 939.074,-187.568 932.982,-196.236 939.717,-198.143"/>
</g>
<!-- Node26&#45;&gt;Node15 -->
<g id="edge59" class="edge"><title>Node26&#45;&gt;Node15</title>
<path fill="none" stroke="midnightblue" d="M857.99,-336.484C833.337,-329.496 800.959,-317.811 776.5,-300 732.573,-268.012 635.279,-132.298 601.405,-84.0823"/>
<polygon fill="midnightblue" stroke="midnightblue" points="604.113,-81.8473 595.511,-75.6626 598.379,-85.8619 604.113,-81.8473"/>
</g>
<!-- Node27 -->
<g id="node27" class="node"><title>Node27</title>
<g id="a_node27"><a xlink:href="../../de/dd1/LinkedList_8hpp.html" target="_top" xlink:title=" ">
<polygon fill="white" stroke="black" points="1164,-280.5 1164,-299.5 1311,-299.5 1311,-280.5 1164,-280.5"/>
<text text-anchor="middle" x="1237.5" y="-287.5" font-family="Helvetica,sans-Serif" font-size="10.00">AH/Containers/LinkedList.hpp</text>
</a>
</g>
</g>
<!-- Node26&#45;&gt;Node27 -->
<g id="edge48" class="edge"><title>Node26&#45;&gt;Node27</title>
<path fill="none" stroke="midnightblue" d="M948.849,-336.444C1009.81,-326.846 1108.61,-311.292 1173.32,-301.104"/>
<polygon fill="midnightblue" stroke="midnightblue" points="1174.07,-304.529 1183.4,-299.516 1172.98,-297.614 1174.07,-304.529"/>
</g>
<!-- Node27&#45;&gt;Node5 -->
<g id="edge49" class="edge"><title>Node27&#45;&gt;Node5</title>
<path fill="none" stroke="midnightblue" d="M1246.52,-280.34C1254.57,-271.932 1265.8,-258.363 1270.5,-244 1273.27,-235.552 1271.83,-232.789 1270.5,-224 1259.26,-149.765 1227.17,-65.7635 1212.27,-29.3972"/>
<polygon fill="midnightblue" stroke="midnightblue" points="1215.32,-27.5943 1208.25,-19.7039 1208.85,-30.2814 1215.32,-27.5943"/>
</g>
<!-- Node27&#45;&gt;Node6 -->
<g id="edge50" class="edge"><title>Node27&#45;&gt;Node6</title>
<path fill="none" stroke="midnightblue" d="M1205.33,-280.444C1170.44,-271.162 1114.61,-256.309 1076.33,-246.127"/>
<polygon fill="midnightblue" stroke="midnightblue" points="1077.08,-242.705 1066.52,-243.516 1075.28,-249.47 1077.08,-242.705"/>
</g>
<!-- Node28 -->
<g id="node28" class="node"><title>Node28</title>
<g id="a_node28"><a xlink:href="../../d7/d79/MinMaxFix_8hpp.html" target="_top" xlink:title=" ">
<polygon fill="white" stroke="black" points="1252,-56.5 1252,-75.5 1377,-75.5 1377,-56.5 1252,-56.5"/>
<text text-anchor="middle" x="1314.5" y="-63.5" font-family="Helvetica,sans-Serif" font-size="10.00">AH/Math/MinMaxFix.hpp</text>
</a>
</g>
</g>
<!-- Node27&#45;&gt;Node28 -->
<g id="edge51" class="edge"><title>Node27&#45;&gt;Node28</title>
<path fill="none" stroke="midnightblue" d="M1259.31,-280.36C1274.52,-273.09 1293.76,-261.117 1303.5,-244 1332.5,-193.028 1324.43,-119.924 1318.41,-85.8367"/>
<polygon fill="midnightblue" stroke="midnightblue" points="1321.81,-85.0245 1316.5,-75.861 1314.94,-86.3407 1321.81,-85.0245"/>
</g>
<!-- Node29 -->
<g id="node29" class="node"><title>Node29</title>
<g id="a_node29"><a xlink:title=" ">
<polygon fill="white" stroke="#bfbfbf" points="1213.5,-224.5 1213.5,-243.5 1261.5,-243.5 1261.5,-224.5 1213.5,-224.5"/>
<text text-anchor="middle" x="1237.5" y="-231.5" font-family="Helvetica,sans-Serif" font-size="10.00">stdlib.h</text>
</a>
</g>
</g>
<!-- Node27&#45;&gt;Node29 -->
<g id="edge55" class="edge"><title>Node27&#45;&gt;Node29</title>
<path fill="none" stroke="midnightblue" d="M1237.5,-280.083C1237.5,-273.006 1237.5,-262.861 1237.5,-253.986"/>
<polygon fill="midnightblue" stroke="midnightblue" points="1241,-253.751 1237.5,-243.751 1234,-253.751 1241,-253.751"/>
</g>
<!-- Node30 -->
<g id="node30" class="node"><title>Node30</title>
<g id="a_node30"><a xlink:title=" ">
<polygon fill="white" stroke="#bfbfbf" points="1148,-224.5 1148,-243.5 1195,-243.5 1195,-224.5 1148,-224.5"/>
<text text-anchor="middle" x="1171.5" y="-231.5" font-family="Helvetica,sans-Serif" font-size="10.00">iterator</text>
</a>
</g>
</g>
<!-- Node27&#45;&gt;Node30 -->
<g id="edge56" class="edge"><title>Node27&#45;&gt;Node30</title>
<path fill="none" stroke="midnightblue" d="M1226.9,-280.324C1217.04,-272.263 1202.15,-260.077 1190.28,-250.369"/>
<polygon fill="midnightblue" stroke="midnightblue" points="1192.25,-247.457 1182.3,-243.834 1187.82,-252.875 1192.25,-247.457"/>
</g>
<!-- Node28&#45;&gt;Node5 -->
<g id="edge52" class="edge"><title>Node28&#45;&gt;Node5</title>
<path fill="none" stroke="midnightblue" d="M1296.83,-56.324C1279.11,-47.6247 1251.6,-34.1202 1231.21,-24.113"/>
<polygon fill="midnightblue" stroke="midnightblue" points="1232.65,-20.9195 1222.13,-19.6545 1229.56,-27.2031 1232.65,-20.9195"/>
</g>
<!-- Node28&#45;&gt;Node8 -->
<g id="edge53" class="edge"><title>Node28&#45;&gt;Node8</title>
<path fill="none" stroke="midnightblue" d="M1361.56,-56.4435C1419.8,-45.8548 1517.91,-28.0166 1572.27,-18.1324"/>
<polygon fill="midnightblue" stroke="midnightblue" points="1573,-21.557 1582.22,-16.3245 1571.75,-14.6699 1573,-21.557"/>
</g>
<!-- Node28&#45;&gt;Node10 -->
<g id="edge54" class="edge"><title>Node28&#45;&gt;Node10</title>
<path fill="none" stroke="midnightblue" d="M1251.93,-59.4244C1138.8,-49.3436 900.873,-28.1422 780.912,-17.4526"/>
<polygon fill="midnightblue" stroke="midnightblue" points="781.001,-13.9467 770.73,-16.5452 780.38,-20.9191 781.001,-13.9467"/>
</g>
<!-- Node31&#45;&gt;Node5 -->
<g id="edge63" class="edge"><title>Node31&#45;&gt;Node5</title>
<path fill="none" stroke="midnightblue" d="M1335.56,-589.643C1426.45,-586.625 1588.7,-576.941 1637.5,-546 1671.24,-524.607 1685.5,-509.951 1685.5,-470 1685.5,-470 1685.5,-470 1685.5,-289 1685.5,-178.769 1688.45,-122.457 1600.5,-56 1551.8,-19.1985 1382.12,-11.7496 1281.36,-10.6741"/>
<polygon fill="midnightblue" stroke="midnightblue" points="1281.26,-7.17315 1271.23,-10.5849 1281.2,-14.1729 1281.26,-7.17315"/>
</g>
<!-- Node31&#45;&gt;Node9 -->
<g id="edge71" class="edge"><title>Node31&#45;&gt;Node9</title>
<path fill="none" stroke="midnightblue" d="M1263.73,-582.366C1229.19,-548.15 1099.82,-418.183 1006.5,-300 987.86,-276.394 982.787,-270.469 968.5,-244 960.256,-228.727 952.849,-210.394 947.888,-197.097"/>
<polygon fill="midnightblue" stroke="midnightblue" points="951.167,-195.872 944.464,-187.667 944.587,-198.261 951.167,-195.872"/>
</g>
<!-- Node32 -->
<g id="node32" class="node"><title>Node32</title>
<g id="a_node32"><a xlink:href="../../dd/ddf/ExtendedInputOutput_8hpp.html" target="_top" xlink:title=" ">
<polygon fill="white" stroke="black" points="1468.5,-515.5 1468.5,-545.5 1628.5,-545.5 1628.5,-515.5 1468.5,-515.5"/>
<text text-anchor="start" x="1476.5" y="-533.5" font-family="Helvetica,sans-Serif" font-size="10.00">AH/Hardware/ExtendedInput</text>
<text text-anchor="middle" x="1548.5" y="-522.5" font-family="Helvetica,sans-Serif" font-size="10.00">Output/ExtendedInputOutput.hpp</text>
</a>
</g>
</g>
<!-- Node31&#45;&gt;Node32 -->
<g id="edge64" class="edge"><title>Node31&#45;&gt;Node32</title>
<path fill="none" stroke="midnightblue" d="M1312.04,-582.475C1354.05,-573.419 1421.46,-558.887 1473.58,-547.652"/>
<polygon fill="midnightblue" stroke="midnightblue" points="1474.41,-551.052 1483.45,-545.523 1472.94,-544.209 1474.41,-551.052"/>
</g>
<!-- Node32&#45;&gt;Node5 -->
<g id="edge65" class="edge"><title>Node32&#45;&gt;Node5</title>
<path fill="none" stroke="midnightblue" d="M1561.14,-515.393C1579.01,-493.937 1609.5,-451.081 1609.5,-408.5 1609.5,-408.5 1609.5,-408.5 1609.5,-121 1609.5,-88.1893 1601.6,-74.4976 1574.5,-56 1528.22,-24.4093 1375.22,-14.9665 1281.07,-12.163"/>
<polygon fill="midnightblue" stroke="midnightblue" points="1281.12,-8.66302 1271.02,-11.8823 1280.92,-15.6603 1281.12,-8.66302"/>
</g>
<!-- Node32&#45;&gt;Node8 -->
<g id="edge66" class="edge"><title>Node32&#45;&gt;Node8</title>
<path fill="none" stroke="midnightblue" d="M1578.32,-515.396C1593.71,-506.79 1611.67,-494.458 1623.5,-479 1643.61,-452.714 1647.5,-441.599 1647.5,-408.5 1647.5,-408.5 1647.5,-408.5 1647.5,-289 1647.5,-153.963 1928.37,-160.215 1842.5,-56 1818.66,-27.0717 1710.33,-16.4943 1650.87,-12.8231"/>
<polygon fill="midnightblue" stroke="midnightblue" points="1650.9,-9.31925 1640.71,-12.2341 1650.5,-16.3075 1650.9,-9.31925"/>
</g>
<!-- Node33 -->
<g id="node33" class="node"><title>Node33</title>
<g id="a_node33"><a xlink:href="../../d4/d57/ExtendedIOElement_8hpp.html" target="_top" xlink:title=" ">
<polygon fill="white" stroke="black" points="1317,-459.5 1317,-478.5 1440,-478.5 1440,-459.5 1317,-459.5"/>
<text text-anchor="middle" x="1378.5" y="-466.5" font-family="Helvetica,sans-Serif" font-size="10.00">ExtendedIOElement.hpp</text>
</a>
</g>
</g>
<!-- Node32&#45;&gt;Node33 -->
<g id="edge67" class="edge"><title>Node32&#45;&gt;Node33</title>
<path fill="none" stroke="midnightblue" d="M1508.21,-515.399C1479.18,-505.238 1440.42,-491.672 1412.85,-482.022"/>
<polygon fill="midnightblue" stroke="midnightblue" points="1413.83,-478.658 1403.24,-478.658 1411.52,-485.265 1413.83,-478.658"/>
</g>
<!-- Node33&#45;&gt;Node5 -->
<g id="edge68" class="edge"><title>Node33&#45;&gt;Node5</title>
<path fill="none" stroke="midnightblue" d="M1427.2,-459.437C1484.38,-446.261 1571.5,-415.022 1571.5,-347 1571.5,-347 1571.5,-347 1571.5,-121 1571.5,-90.9022 1575.37,-75.5617 1552.5,-56 1512.94,-22.1643 1371.09,-13.4502 1281.16,-11.3954"/>
<polygon fill="midnightblue" stroke="midnightblue" points="1281.08,-7.89299 1271.01,-11.1865 1280.93,-14.8915 1281.08,-7.89299"/>
</g>
<!-- Node33&#45;&gt;Node25 -->
<g id="edge69" class="edge"><title>Node33&#45;&gt;Node25</title>
<path fill="none" stroke="midnightblue" d="M1316.9,-463.816C1159.07,-453.096 740.855,-424.69 573.345,-413.312"/>
<polygon fill="midnightblue" stroke="midnightblue" points="573.372,-409.806 563.157,-412.62 572.897,-416.79 573.372,-409.806"/>
</g>
<!-- Node33&#45;&gt;Node27 -->
<g id="edge70" class="edge"><title>Node33&#45;&gt;Node27</title>
<path fill="none" stroke="midnightblue" d="M1371.7,-459.463C1349.7,-431.845 1280.19,-344.584 1250.81,-307.709"/>
<polygon fill="midnightblue" stroke="midnightblue" points="1253.53,-305.509 1244.56,-299.868 1248.06,-309.871 1253.53,-305.509"/>
</g>
</g>
</svg>
