<?xml version="1.0" encoding="UTF-8" standalone="no"?>
<!DOCTYPE svg PUBLIC "-//W3C//DTD SVG 1.1//EN"
 "http://www.w3.org/Graphics/SVG/1.1/DTD/svg11.dtd">
<!-- Generated by graphviz version 2.43.0 (0)
 -->
<!-- Title: AHEncoder.cpp Pages: 1 -->
<svg width="1430pt" height="808pt"
 viewBox="0.00 0.00 1430.45 808.00" xmlns="http://www.w3.org/2000/svg" xmlns:xlink="http://www.w3.org/1999/xlink">
<g id="graph0" class="graph" transform="scale(1 1) rotate(0) translate(4 804)">
<title>AHEncoder.cpp</title>
<!-- Node1 -->
<g id="Node000001" class="node">
<title>Node1</title>
<g id="a_Node000001"><a xlink:title=" ">
<polygon fill="#999999" stroke="#666666" points="409.5,-800 320.5,-800 320.5,-781 409.5,-781 409.5,-800"/>
<text text-anchor="middle" x="365" y="-788" font-family="Helvetica,sans-Serif" font-size="10.00">AHEncoder.cpp</text>
</a>
</g>
</g>
<!-- Node2 -->
<g id="Node000002" class="node">
<title>Node2</title>
<g id="a_Node000002"><a xlink:href="../../d8/ddd/AHEncoder_8hpp.html" target="_top" xlink:title=" ">
<polygon fill="white" stroke="#666666" points="358,-745 268,-745 268,-726 358,-726 358,-745"/>
<text text-anchor="middle" x="313" y="-733" font-family="Helvetica,sans-Serif" font-size="10.00">AHEncoder.hpp</text>
</a>
</g>
</g>
<!-- Node1&#45;&gt;Node2 -->
<g id="edge1_Node000001_Node000002" class="edge">
<title>Node1&#45;&gt;Node2</title>
<g id="a_edge1_Node000001_Node000002"><a xlink:title=" ">
<path fill="none" stroke="#63b8ff" d="M356.41,-780.75C348.84,-773.03 337.62,-761.6 328.49,-752.28"/>
<polygon fill="#63b8ff" stroke="#63b8ff" points="330.93,-749.78 321.43,-745.09 325.93,-754.68 330.93,-749.78"/>
</a>
</g>
</g>
<!-- Node35 -->
<g id="Node000035" class="node">
<title>Node35</title>
<g id="a_Node000035"><a xlink:title=" ">
<polygon fill="#e0e0e0" stroke="#999999" points="459.5,-745 376.5,-745 376.5,-726 459.5,-726 459.5,-745"/>
<text text-anchor="middle" x="418" y="-733" font-family="Helvetica,sans-Serif" font-size="10.00">AH/STL/utility</text>
</a>
</g>
</g>
<!-- Node1&#45;&gt;Node35 -->
<g id="edge69_Node000001_Node000035" class="edge">
<title>Node1&#45;&gt;Node35</title>
<g id="a_edge69_Node000001_Node000035"><a xlink:title=" ">
<path fill="none" stroke="#63b8ff" d="M373.75,-780.75C381.47,-773.03 392.9,-761.6 402.22,-752.28"/>
<polygon fill="#63b8ff" stroke="#63b8ff" points="404.81,-754.64 409.41,-745.09 399.86,-749.69 404.81,-754.64"/>
</a>
</g>
</g>
<!-- Node3 -->
<g id="Node000003" class="node">
<title>Node3</title>
<g id="a_Node000003"><a xlink:href="../../da/dad/AtomicPosition_8hpp.html" target="_top" xlink:title=" ">
<polygon fill="white" stroke="#666666" points="139.5,-349 28.5,-349 28.5,-330 139.5,-330 139.5,-349"/>
<text text-anchor="middle" x="84" y="-337" font-family="Helvetica,sans-Serif" font-size="10.00">AtomicPosition.hpp</text>
</a>
</g>
</g>
<!-- Node2&#45;&gt;Node3 -->
<g id="edge2_Node000002_Node000003" class="edge">
<title>Node2&#45;&gt;Node3</title>
<g id="a_edge2_Node000002_Node000003"><a xlink:title=" ">
<path fill="none" stroke="#63b8ff" d="M267.76,-732.79C201.02,-727.56 84,-706.94 84,-626.5 84,-626.5 84,-626.5 84,-448.5 84,-417.19 84,-380.77 84,-359.23"/>
<polygon fill="#63b8ff" stroke="#63b8ff" points="87.5,-359.18 84,-349.18 80.5,-359.18 87.5,-359.18"/>
</a>
</g>
</g>
<!-- Node13 -->
<g id="Node000013" class="node">
<title>Node13</title>
<g id="a_Node000013"><a xlink:href="../../db/d5c/DirectPinRead_8hpp.html" target="_top" xlink:title=" ">
<polygon fill="white" stroke="#666666" points="366.5,-690 259.5,-690 259.5,-671 366.5,-671 366.5,-690"/>
<text text-anchor="middle" x="313" y="-678" font-family="Helvetica,sans-Serif" font-size="10.00">DirectPinRead.hpp</text>
</a>
</g>
</g>
<!-- Node2&#45;&gt;Node13 -->
<g id="edge14_Node000002_Node000013" class="edge">
<title>Node2&#45;&gt;Node13</title>
<g id="a_edge14_Node000002_Node000013"><a xlink:title=" ">
<path fill="none" stroke="#63b8ff" d="M313,-725.75C313,-718.8 313,-708.85 313,-700.13"/>
<polygon fill="#63b8ff" stroke="#63b8ff" points="316.5,-700.09 313,-690.09 309.5,-700.09 316.5,-700.09"/>
</a>
</g>
</g>
<!-- Node17 -->
<g id="Node000017" class="node">
<title>Node17</title>
<g id="a_Node000017"><a xlink:href="../../de/d76/Array_8hpp.html" target="_top" xlink:title=" ">
<polygon fill="white" stroke="#666666" points="1189.5,-514 1054.5,-514 1054.5,-495 1189.5,-495 1189.5,-514"/>
<text text-anchor="middle" x="1122" y="-502" font-family="Helvetica,sans-Serif" font-size="10.00">AH/Containers/Array.hpp</text>
</a>
</g>
</g>
<!-- Node2&#45;&gt;Node17 -->
<g id="edge67_Node000002_Node000017" class="edge">
<title>Node2&#45;&gt;Node17</title>
<g id="a_edge67_Node000002_Node000017"><a xlink:title=" ">
<path fill="none" stroke="#63b8ff" d="M358.11,-726.03C460.29,-706.68 706.82,-659.07 788,-635 904.16,-600.57 1036.94,-543.55 1093.78,-518.26"/>
<polygon fill="#63b8ff" stroke="#63b8ff" points="1095.48,-521.34 1103.18,-514.06 1092.62,-514.94 1095.48,-521.34"/>
</a>
</g>
</g>
<!-- Node33 -->
<g id="Node000033" class="node">
<title>Node33</title>
<g id="a_Node000033"><a xlink:href="../../d0/d8c/NumInterrupts_8hpp.html" target="_top" xlink:title=" ">
<polygon fill="white" stroke="#666666" points="266,-349 158,-349 158,-330 266,-330 266,-349"/>
<text text-anchor="middle" x="212" y="-337" font-family="Helvetica,sans-Serif" font-size="10.00">NumInterrupts.hpp</text>
</a>
</g>
</g>
<!-- Node2&#45;&gt;Node33 -->
<g id="edge64_Node000002_Node000033" class="edge">
<title>Node2&#45;&gt;Node33</title>
<g id="a_edge64_Node000002_Node000033"><a xlink:title=" ">
<path fill="none" stroke="#63b8ff" d="M276.74,-725.99C231.5,-712.97 160,-683.4 160,-626.5 160,-626.5 160,-626.5 160,-448.5 160,-413.15 182.89,-377.16 198.3,-356.95"/>
<polygon fill="#63b8ff" stroke="#63b8ff" points="201.08,-359.07 204.55,-349.06 195.6,-354.73 201.08,-359.07"/>
</a>
</g>
</g>
<!-- Node34 -->
<g id="Node000034" class="node">
<title>Node34</title>
<g id="a_Node000034"><a xlink:title=" ">
<polygon fill="#e0e0e0" stroke="#999999" points="1281.5,-690 1194.5,-690 1194.5,-671 1281.5,-671 1281.5,-690"/>
<text text-anchor="middle" x="1238" y="-678" font-family="Helvetica,sans-Serif" font-size="10.00">AHEncoder.ipp</text>
</a>
</g>
</g>
<!-- Node2&#45;&gt;Node34 -->
<g id="edge68_Node000002_Node000034" class="edge">
<title>Node2&#45;&gt;Node34</title>
<g id="a_edge68_Node000002_Node000034"><a xlink:title=" ">
<path fill="none" stroke="#63b8ff" d="M358.03,-727.03C361.06,-726.64 364.07,-726.29 367,-726 726.87,-689.82 819.94,-724.27 1180,-690 1181.46,-689.86 1182.93,-689.71 1184.42,-689.55"/>
<polygon fill="#63b8ff" stroke="#63b8ff" points="1184.83,-693.03 1194.35,-688.38 1184.01,-686.08 1184.83,-693.03"/>
</a>
</g>
</g>
<!-- Node4 -->
<g id="Node000004" class="node">
<title>Node4</title>
<g id="a_Node000004"><a xlink:href="../../d6/ddf/Arduino-Wrapper_8h.html" target="_top" xlink:title=" ">
<polygon fill="white" stroke="#666666" points="489,-184 365,-184 365,-165 489,-165 489,-184"/>
<text text-anchor="middle" x="427" y="-172" font-family="Helvetica,sans-Serif" font-size="10.00">AH/Arduino&#45;Wrapper.h</text>
</a>
</g>
</g>
<!-- Node3&#45;&gt;Node4 -->
<g id="edge3_Node000003_Node000004" class="edge">
<title>Node3&#45;&gt;Node4</title>
<g id="a_edge3_Node000003_Node000004"><a xlink:title=" ">
<path fill="none" stroke="#63b8ff" d="M91.07,-329.68C109.42,-307.41 161.15,-248.66 218,-220 260.54,-198.56 312.99,-187.43 354.7,-181.66"/>
<polygon fill="#63b8ff" stroke="#63b8ff" points="355.33,-185.11 364.79,-180.34 354.42,-178.17 355.33,-185.11"/>
</a>
</g>
</g>
<!-- Node11 -->
<g id="Node000011" class="node">
<title>Node11</title>
<g id="a_Node000011"><a xlink:title=" ">
<polygon fill="#e0e0e0" stroke="#999999" points="454,-294 276,-294 276,-275 454,-275 454,-294"/>
<text text-anchor="middle" x="365" y="-282" font-family="Helvetica,sans-Serif" font-size="10.00">Settings/NamespaceSettings.hpp</text>
</a>
</g>
</g>
<!-- Node3&#45;&gt;Node11 -->
<g id="edge12_Node000003_Node000011" class="edge">
<title>Node3&#45;&gt;Node11</title>
<g id="a_edge12_Node000003_Node000011"><a xlink:title=" ">
<path fill="none" stroke="#63b8ff" d="M129.15,-329.98C178.26,-320.72 256.82,-305.9 309.62,-295.94"/>
<polygon fill="#63b8ff" stroke="#63b8ff" points="310.32,-299.37 319.5,-294.08 309.02,-292.5 310.32,-299.37"/>
</a>
</g>
</g>
<!-- Node12 -->
<g id="Node000012" class="node">
<title>Node12</title>
<g id="a_Node000012"><a xlink:title=" ">
<polygon fill="#e0e0e0" stroke="#999999" points="109,-294 59,-294 59,-275 109,-275 109,-294"/>
<text text-anchor="middle" x="84" y="-282" font-family="Helvetica,sans-Serif" font-size="10.00">atomic</text>
</a>
</g>
</g>
<!-- Node3&#45;&gt;Node12 -->
<g id="edge13_Node000003_Node000012" class="edge">
<title>Node3&#45;&gt;Node12</title>
<g id="a_edge13_Node000003_Node000012"><a xlink:title=" ">
<path fill="none" stroke="#63b8ff" d="M84,-329.75C84,-322.8 84,-312.85 84,-304.13"/>
<polygon fill="#63b8ff" stroke="#63b8ff" points="87.5,-304.09 84,-294.09 80.5,-304.09 87.5,-304.09"/>
</a>
</g>
</g>
<!-- Node5 -->
<g id="Node000005" class="node">
<title>Node5</title>
<g id="a_Node000005"><a xlink:href="../../d7/d79/MinMaxFix_8hpp.html" target="_top" xlink:title=" ">
<polygon fill="white" stroke="#666666" points="580,-129 444,-129 444,-110 580,-110 580,-129"/>
<text text-anchor="middle" x="512" y="-117" font-family="Helvetica,sans-Serif" font-size="10.00">AH/Math/MinMaxFix.hpp</text>
</a>
</g>
</g>
<!-- Node4&#45;&gt;Node5 -->
<g id="edge4_Node000004_Node000005" class="edge">
<title>Node4&#45;&gt;Node5</title>
<g id="a_edge4_Node000004_Node000005"><a xlink:title=" ">
<path fill="none" stroke="#63b8ff" d="M440.66,-164.98C453.84,-156.77 474.03,-144.18 489.57,-134.49"/>
<polygon fill="#63b8ff" stroke="#63b8ff" points="491.46,-137.43 498.09,-129.17 487.76,-131.49 491.46,-137.43"/>
</a>
</g>
</g>
<!-- Node8 -->
<g id="Node000008" class="node">
<title>Node8</title>
<g id="a_Node000008"><a xlink:title=" ">
<polygon fill="#e0e0e0" stroke="#999999" points="459.5,-19 396.5,-19 396.5,0 459.5,0 459.5,-19"/>
<text text-anchor="middle" x="428" y="-7" font-family="Helvetica,sans-Serif" font-size="10.00">Arduino.h</text>
</a>
</g>
</g>
<!-- Node4&#45;&gt;Node8 -->
<g id="edge11_Node000004_Node000008" class="edge">
<title>Node4&#45;&gt;Node8</title>
<g id="a_edge11_Node000004_Node000008"><a xlink:title=" ">
<path fill="none" stroke="#63b8ff" d="M420.32,-164.78C406.06,-145.02 375.08,-95.44 390,-55 394.06,-43.99 402.19,-33.86 409.9,-26.05"/>
<polygon fill="#63b8ff" stroke="#63b8ff" points="412.42,-28.48 417.29,-19.07 407.61,-23.39 412.42,-28.48"/>
</a>
</g>
</g>
<!-- Node10 -->
<g id="Node000010" class="node">
<title>Node10</title>
<g id="a_Node000010"><a xlink:title=" ">
<polygon fill="#e0e0e0" stroke="#999999" points="342.5,-129 235.5,-129 235.5,-110 342.5,-110 342.5,-129"/>
<text text-anchor="middle" x="289" y="-117" font-family="Helvetica,sans-Serif" font-size="10.00">AH/STL/type_traits</text>
</a>
</g>
</g>
<!-- Node4&#45;&gt;Node10 -->
<g id="edge10_Node000004_Node000010" class="edge">
<title>Node4&#45;&gt;Node10</title>
<g id="a_edge10_Node000004_Node000010"><a xlink:title=" ">
<path fill="none" stroke="#63b8ff" d="M404.83,-164.98C382.23,-156.3 346.94,-142.75 321.25,-132.88"/>
<polygon fill="#63b8ff" stroke="#63b8ff" points="322.17,-129.49 311.58,-129.17 319.66,-136.02 322.17,-129.49"/>
</a>
</g>
</g>
<!-- Node6 -->
<g id="Node000006" class="node">
<title>Node6</title>
<g id="a_Node000006"><a xlink:href="../../d1/d65/Warnings_8hpp.html" target="_top" xlink:title=" ">
<polygon fill="white" stroke="#666666" points="815.5,-19 672.5,-19 672.5,0 815.5,0 815.5,-19"/>
<text text-anchor="middle" x="744" y="-7" font-family="Helvetica,sans-Serif" font-size="10.00">AH/Settings/Warnings.hpp</text>
</a>
</g>
</g>
<!-- Node5&#45;&gt;Node6 -->
<g id="edge5_Node000005_Node000006" class="edge">
<title>Node5&#45;&gt;Node6</title>
<g id="a_edge5_Node000005_Node000006"><a xlink:title=" ">
<path fill="none" stroke="#63b8ff" d="M525.01,-109.88C545.03,-96.85 584.89,-71.88 621,-55 648.84,-41.98 681.63,-30.29 706.35,-22.16"/>
<polygon fill="#63b8ff" stroke="#63b8ff" points="707.63,-25.42 716.07,-19.01 705.48,-18.76 707.63,-25.42"/>
</a>
</g>
</g>
<!-- Node7 -->
<g id="Node000007" class="node">
<title>Node7</title>
<g id="a_Node000007"><a xlink:href="../../d6/d3b/FixArduinoMacros_8hpp.html" target="_top" xlink:title=" ">
<polygon fill="white" stroke="#666666" points="569,-74 399,-74 399,-55 569,-55 569,-74"/>
<text text-anchor="middle" x="484" y="-62" font-family="Helvetica,sans-Serif" font-size="10.00">AH/Math/FixArduinoMacros.hpp</text>
</a>
</g>
</g>
<!-- Node5&#45;&gt;Node7 -->
<g id="edge6_Node000005_Node000007" class="edge">
<title>Node5&#45;&gt;Node7</title>
<g id="a_edge6_Node000005_Node000007"><a xlink:title=" ">
<path fill="none" stroke="#63b8ff" d="M507.38,-109.75C503.54,-102.49 497.98,-91.95 493.24,-82.98"/>
<polygon fill="#63b8ff" stroke="#63b8ff" points="496.3,-81.3 488.54,-74.09 490.11,-84.57 496.3,-81.3"/>
</a>
</g>
</g>
<!-- Node9 -->
<g id="Node000009" class="node">
<title>Node9</title>
<g id="a_Node000009"><a xlink:href="../../d6/db0/AH_2Settings_2NamespaceSettings_8hpp.html" target="_top" xlink:title=" ">
<polygon fill="white" stroke="#666666" points="1030.5,-74 835.5,-74 835.5,-55 1030.5,-55 1030.5,-74"/>
<text text-anchor="middle" x="933" y="-62" font-family="Helvetica,sans-Serif" font-size="10.00">AH/Settings/NamespaceSettings.hpp</text>
</a>
</g>
</g>
<!-- Node5&#45;&gt;Node9 -->
<g id="edge9_Node000005_Node000009" class="edge">
<title>Node5&#45;&gt;Node9</title>
<g id="a_edge9_Node000005_Node000009"><a xlink:title=" ">
<path fill="none" stroke="#63b8ff" d="M579.64,-109.98C654.72,-100.53 775.7,-85.3 854.79,-75.35"/>
<polygon fill="#63b8ff" stroke="#63b8ff" points="855.69,-78.76 865.18,-74.04 854.82,-71.81 855.69,-78.76"/>
</a>
</g>
</g>
<!-- Node7&#45;&gt;Node6 -->
<g id="edge7_Node000007_Node000006" class="edge">
<title>Node7&#45;&gt;Node6</title>
<g id="a_edge7_Node000007_Node000006"><a xlink:title=" ">
<path fill="none" stroke="#63b8ff" d="M525.77,-54.98C570.94,-45.78 643,-31.09 691.85,-21.13"/>
<polygon fill="#63b8ff" stroke="#63b8ff" points="692.8,-24.51 701.9,-19.08 691.4,-17.65 692.8,-24.51"/>
</a>
</g>
</g>
<!-- Node7&#45;&gt;Node8 -->
<g id="edge8_Node000007_Node000008" class="edge">
<title>Node7&#45;&gt;Node8</title>
<g id="a_edge8_Node000007_Node000008"><a xlink:title=" ">
<path fill="none" stroke="#63b8ff" d="M475,-54.98C466.81,-47.23 454.49,-35.58 444.53,-26.14"/>
<polygon fill="#63b8ff" stroke="#63b8ff" points="446.83,-23.5 437.16,-19.17 442.02,-28.59 446.83,-23.5"/>
</a>
</g>
</g>
<!-- Node13&#45;&gt;Node4 -->
<g id="edge15_Node000013_Node000004" class="edge">
<title>Node13&#45;&gt;Node4</title>
<g id="a_edge15_Node000013_Node000004"><a xlink:title=" ">
<path fill="none" stroke="#63b8ff" d="M310.52,-670.75C305.37,-651.82 294,-605.56 294,-566 294,-566 294,-566 294,-393.5 294,-347.68 273.05,-339.42 267,-294 265.88,-285.63 262.9,-282.38 267,-275 292.53,-229.07 349.02,-201.6 387.57,-187.51"/>
<polygon fill="#63b8ff" stroke="#63b8ff" points="389.15,-190.66 397.43,-184.05 386.84,-184.06 389.15,-190.66"/>
</a>
</g>
</g>
<!-- Node13&#45;&gt;Node10 -->
<g id="edge17_Node000013_Node000010" class="edge">
<title>Node13&#45;&gt;Node10</title>
<g id="a_edge17_Node000013_Node000010"><a xlink:title=" ">
<path fill="none" stroke="#63b8ff" d="M297.9,-670.76C235.38,-633.31 0,-479.44 0,-285.5 0,-285.5 0,-285.5 0,-228.5 0,-180.5 141.63,-146.78 226.6,-130.87"/>
<polygon fill="#63b8ff" stroke="#63b8ff" points="227.46,-134.27 236.66,-129.01 226.2,-127.38 227.46,-134.27"/>
</a>
</g>
</g>
<!-- Node13&#45;&gt;Node11 -->
<g id="edge16_Node000013_Node000011" class="edge">
<title>Node13&#45;&gt;Node11</title>
<g id="a_edge16_Node000013_Node000011"><a xlink:title=" ">
<path fill="none" stroke="#63b8ff" d="M315.48,-670.75C320.63,-651.82 332,-605.56 332,-566 332,-566 332,-566 332,-393.5 332,-360.63 346.16,-324.49 355.93,-303.46"/>
<polygon fill="#63b8ff" stroke="#63b8ff" points="359.21,-304.71 360.41,-294.18 352.91,-301.66 359.21,-304.71"/>
</a>
</g>
</g>
<!-- Node14 -->
<g id="Node000014" class="node">
<title>Node14</title>
<g id="a_Node000014"><a xlink:href="../../d0/d4e/Def_8hpp.html" target="_top" xlink:title=" ">
<polygon fill="white" stroke="#666666" points="779,-635 705,-635 705,-616 779,-616 779,-635"/>
<text text-anchor="middle" x="742" y="-623" font-family="Helvetica,sans-Serif" font-size="10.00">Def/Def.hpp</text>
</a>
</g>
</g>
<!-- Node13&#45;&gt;Node14 -->
<g id="edge18_Node000013_Node000014" class="edge">
<title>Node13&#45;&gt;Node14</title>
<g id="a_edge18_Node000013_Node000014"><a xlink:title=" ">
<path fill="none" stroke="#63b8ff" d="M366.9,-672.84C451.54,-662.38 614.24,-642.28 694.65,-632.35"/>
<polygon fill="#63b8ff" stroke="#63b8ff" points="695.47,-635.78 704.96,-631.08 694.61,-628.83 695.47,-635.78"/>
</a>
</g>
</g>
<!-- Node14&#45;&gt;Node11 -->
<g id="edge61_Node000014_Node000011" class="edge">
<title>Node14&#45;&gt;Node11</title>
<g id="a_edge61_Node000014_Node000011"><a xlink:title=" ">
<path fill="none" stroke="#63b8ff" d="M704.89,-623.84C663.34,-621.43 595.59,-612.33 548,-580 443.41,-508.95 387.25,-356.21 370.46,-303.68"/>
<polygon fill="#63b8ff" stroke="#63b8ff" points="373.78,-302.57 367.47,-294.06 367.09,-304.65 373.78,-302.57"/>
</a>
</g>
</g>
<!-- Node15 -->
<g id="Node000015" class="node">
<title>Node15</title>
<g id="a_Node000015"><a xlink:href="../../d2/dbc/Cable_8hpp.html" target="_top" xlink:title=" ">
<polygon fill="white" stroke="#666666" points="463.5,-349 398.5,-349 398.5,-330 463.5,-330 463.5,-349"/>
<text text-anchor="middle" x="431" y="-337" font-family="Helvetica,sans-Serif" font-size="10.00">Cable.hpp</text>
</a>
</g>
</g>
<!-- Node14&#45;&gt;Node15 -->
<g id="edge19_Node000014_Node000015" class="edge">
<title>Node14&#45;&gt;Node15</title>
<g id="a_edge19_Node000014_Node000015"><a xlink:title=" ">
<path fill="none" stroke="#63b8ff" d="M704.98,-619.34C618.02,-606.2 408,-567.98 408,-505.5 408,-505.5 408,-505.5 408,-448.5 408,-416.34 417.88,-379.95 424.69,-358.69"/>
<polygon fill="#63b8ff" stroke="#63b8ff" points="428.06,-359.64 427.9,-349.05 421.42,-357.43 428.06,-359.64"/>
</a>
</g>
</g>
<!-- Node16 -->
<g id="Node000016" class="node">
<title>Node16</title>
<g id="a_Node000016"><a xlink:href="../../d7/d42/Channel_8hpp.html" target="_top" xlink:title=" ">
<polygon fill="white" stroke="#666666" points="558.5,-349 481.5,-349 481.5,-330 558.5,-330 558.5,-349"/>
<text text-anchor="middle" x="520" y="-337" font-family="Helvetica,sans-Serif" font-size="10.00">Channel.hpp</text>
</a>
</g>
</g>
<!-- Node14&#45;&gt;Node16 -->
<g id="edge22_Node000014_Node000016" class="edge">
<title>Node14&#45;&gt;Node16</title>
<g id="a_edge22_Node000014_Node000016"><a xlink:title=" ">
<path fill="none" stroke="#63b8ff" d="M704.81,-620.18C644.99,-610.93 534,-583.3 534,-505.5 534,-505.5 534,-505.5 534,-448.5 534,-416.93 528.04,-380.59 523.9,-359.14"/>
<polygon fill="#63b8ff" stroke="#63b8ff" points="527.29,-358.24 521.89,-349.13 520.43,-359.62 527.29,-358.24"/>
</a>
</g>
</g>
<!-- Node14&#45;&gt;Node17 -->
<g id="edge25_Node000014_Node000017" class="edge">
<title>Node14&#45;&gt;Node17</title>
<g id="a_edge25_Node000014_Node000017"><a xlink:title=" ">
<path fill="none" stroke="#63b8ff" d="M741.35,-615.79C740.71,-600.03 741.86,-566.85 761,-550 801.77,-514.1 950.8,-506.36 1044.15,-505.14"/>
<polygon fill="#63b8ff" stroke="#63b8ff" points="1044.45,-508.63 1054.41,-505.03 1044.37,-501.63 1044.45,-508.63"/>
</a>
</g>
</g>
<!-- Node26 -->
<g id="Node000026" class="node">
<title>Node26</title>
<g id="a_Node000026"><a xlink:title=" ">
<polygon fill="#e0e0e0" stroke="#999999" points="1237,-239 1181,-239 1181,-220 1237,-220 1237,-239"/>
<text text-anchor="middle" x="1209" y="-227" font-family="Helvetica,sans-Serif" font-size="10.00">stddef.h</text>
</a>
</g>
</g>
<!-- Node14&#45;&gt;Node26 -->
<g id="edge62_Node000014_Node000026" class="edge">
<title>Node14&#45;&gt;Node26</title>
<g id="a_edge62_Node000014_Node000026"><a xlink:title=" ">
<path fill="none" stroke="#63b8ff" d="M779.34,-625.21C899.28,-625.39 1267,-608.55 1267,-395.5 1267,-395.5 1267,-395.5 1267,-338.5 1267,-302.37 1241.5,-266.67 1224.31,-246.71"/>
<polygon fill="#63b8ff" stroke="#63b8ff" points="1226.84,-244.28 1217.56,-239.17 1221.62,-248.95 1226.84,-244.28"/>
</a>
</g>
</g>
<!-- Node27 -->
<g id="Node000027" class="node">
<title>Node27</title>
<g id="a_Node000027"><a xlink:title=" ">
<polygon fill="#e0e0e0" stroke="#999999" points="1384.5,-239 1331.5,-239 1331.5,-220 1384.5,-220 1384.5,-239"/>
<text text-anchor="middle" x="1358" y="-227" font-family="Helvetica,sans-Serif" font-size="10.00">stdint.h</text>
</a>
</g>
</g>
<!-- Node14&#45;&gt;Node27 -->
<g id="edge63_Node000014_Node000027" class="edge">
<title>Node14&#45;&gt;Node27</title>
<g id="a_edge63_Node000014_Node000027"><a xlink:title=" ">
<path fill="none" stroke="#63b8ff" d="M779.05,-624.78C909.07,-625.4 1338.92,-624.05 1380,-580 1468.62,-484.99 1393.96,-305.06 1366.86,-248.19"/>
<polygon fill="#63b8ff" stroke="#63b8ff" points="1369.94,-246.51 1362.41,-239.05 1363.64,-249.58 1369.94,-246.51"/>
</a>
</g>
</g>
<!-- Node31 -->
<g id="Node000031" class="node">
<title>Node31</title>
<g id="a_Node000031"><a xlink:href="../../d4/d35/Hardware-Types_8hpp.html" target="_top" xlink:title=" ">
<polygon fill="white" stroke="#666666" points="1370.5,-580 1239.5,-580 1239.5,-550 1370.5,-550 1370.5,-580"/>
<text text-anchor="start" x="1247.5" y="-568" font-family="Helvetica,sans-Serif" font-size="10.00">AH/Hardware/Hardware</text>
<text text-anchor="middle" x="1305" y="-557" font-family="Helvetica,sans-Serif" font-size="10.00">&#45;Types.hpp</text>
</a>
</g>
</g>
<!-- Node14&#45;&gt;Node31 -->
<g id="edge55_Node000014_Node000031" class="edge">
<title>Node14&#45;&gt;Node31</title>
<g id="a_edge55_Node000014_Node000031"><a xlink:title=" ">
<path fill="none" stroke="#63b8ff" d="M779.38,-620.62C870.75,-611.12 1106.86,-586.59 1229.13,-573.88"/>
<polygon fill="#63b8ff" stroke="#63b8ff" points="1229.58,-577.36 1239.16,-572.84 1228.85,-570.39 1229.58,-577.36"/>
</a>
</g>
</g>
<!-- Node32 -->
<g id="Node000032" class="node">
<title>Node32</title>
<g id="a_Node000032"><a xlink:title=" ">
<polygon fill="#e0e0e0" stroke="#999999" points="852,-574.5 770,-574.5 770,-555.5 852,-555.5 852,-574.5"/>
<text text-anchor="middle" x="811" y="-562.5" font-family="Helvetica,sans-Serif" font-size="10.00">AH/STL/limits</text>
</a>
</g>
</g>
<!-- Node14&#45;&gt;Node32 -->
<g id="edge60_Node000014_Node000032" class="edge">
<title>Node14&#45;&gt;Node32</title>
<g id="a_edge60_Node000014_Node000032"><a xlink:title=" ">
<path fill="none" stroke="#63b8ff" d="M752.18,-615.87C762.88,-606.8 779.94,-592.34 792.93,-581.32"/>
<polygon fill="#63b8ff" stroke="#63b8ff" points="795.41,-583.8 800.78,-574.67 790.89,-578.46 795.41,-583.8"/>
</a>
</g>
</g>
<!-- Node15&#45;&gt;Node4 -->
<g id="edge20_Node000015_Node000004" class="edge">
<title>Node15&#45;&gt;Node4</title>
<g id="a_edge20_Node000015_Node000004"><a xlink:title=" ">
<path fill="none" stroke="#63b8ff" d="M439.75,-329.9C447.56,-321.56 458.45,-308.13 463,-294 474.59,-258.03 453.29,-215.58 438.8,-192.52"/>
<polygon fill="#63b8ff" stroke="#63b8ff" points="441.72,-190.59 433.31,-184.15 435.87,-194.43 441.72,-190.59"/>
</a>
</g>
</g>
<!-- Node15&#45;&gt;Node11 -->
<g id="edge21_Node000015_Node000011" class="edge">
<title>Node15&#45;&gt;Node11</title>
<g id="a_edge21_Node000015_Node000011"><a xlink:title=" ">
<path fill="none" stroke="#63b8ff" d="M420.4,-329.98C410.54,-322.07 395.65,-310.11 383.78,-300.58"/>
<polygon fill="#63b8ff" stroke="#63b8ff" points="385.79,-297.7 375.8,-294.17 381.4,-303.16 385.79,-297.7"/>
</a>
</g>
</g>
<!-- Node16&#45;&gt;Node4 -->
<g id="edge23_Node000016_Node000004" class="edge">
<title>Node16&#45;&gt;Node4</title>
<g id="a_edge23_Node000016_Node000004"><a xlink:title=" ">
<path fill="none" stroke="#63b8ff" d="M517.81,-329.89C512.38,-309.52 496.87,-257.31 472,-220 464.72,-209.08 454.44,-198.66 445.54,-190.66"/>
<polygon fill="#63b8ff" stroke="#63b8ff" points="447.74,-187.93 437.88,-184.04 443.16,-193.22 447.74,-187.93"/>
</a>
</g>
</g>
<!-- Node16&#45;&gt;Node11 -->
<g id="edge24_Node000016_Node000011" class="edge">
<title>Node16&#45;&gt;Node11</title>
<g id="a_edge24_Node000016_Node000011"><a xlink:title=" ">
<path fill="none" stroke="#63b8ff" d="M495.1,-329.98C469.3,-321.16 428.78,-307.31 399.82,-297.41"/>
<polygon fill="#63b8ff" stroke="#63b8ff" points="400.69,-294.01 390.1,-294.08 398.43,-300.63 400.69,-294.01"/>
</a>
</g>
</g>
<!-- Node17&#45;&gt;Node6 -->
<g id="edge26_Node000017_Node000006" class="edge">
<title>Node17&#45;&gt;Node6</title>
<g id="a_edge26_Node000017_Node000006"><a xlink:title=" ">
<path fill="none" stroke="#63b8ff" d="M1141.13,-494.95C1171.91,-479.73 1229,-444.86 1229,-395.5 1229,-395.5 1229,-395.5 1229,-338.5 1229,-258.94 1303,-255.06 1303,-175.5 1303,-175.5 1303,-175.5 1303,-118.5 1303,-22.54 981.44,-10.02 826.09,-9.56"/>
<polygon fill="#63b8ff" stroke="#63b8ff" points="825.65,-6.06 815.65,-9.55 825.65,-13.06 825.65,-6.06"/>
</a>
</g>
</g>
<!-- Node17&#45;&gt;Node10 -->
<g id="edge53_Node000017_Node000010" class="edge">
<title>Node17&#45;&gt;Node10</title>
<g id="a_edge53_Node000017_Node000010"><a xlink:title=" ">
<path fill="none" stroke="#63b8ff" d="M1054.04,-497.85C931.37,-486.44 679.33,-457.11 611,-404 564.62,-367.95 544.07,-201.46 498,-165 475.79,-147.43 405.75,-134.99 352.82,-127.81"/>
<polygon fill="#63b8ff" stroke="#63b8ff" points="353.19,-124.33 342.82,-126.49 352.27,-131.27 353.19,-124.33"/>
</a>
</g>
</g>
<!-- Node18 -->
<g id="Node000018" class="node">
<title>Node18</title>
<g id="a_Node000018"><a xlink:href="../../d1/d93/Error_8hpp.html" target="_top" xlink:title=" ">
<polygon fill="white" stroke="#666666" points="1126,-459 1022,-459 1022,-440 1126,-440 1126,-459"/>
<text text-anchor="middle" x="1074" y="-447" font-family="Helvetica,sans-Serif" font-size="10.00">AH/Error/Error.hpp</text>
</a>
</g>
</g>
<!-- Node17&#45;&gt;Node18 -->
<g id="edge27_Node000017_Node000018" class="edge">
<title>Node17&#45;&gt;Node18</title>
<g id="a_edge27_Node000017_Node000018"><a xlink:title=" ">
<path fill="none" stroke="#63b8ff" d="M1114.07,-494.75C1107.15,-487.11 1096.93,-475.82 1088.55,-466.56"/>
<polygon fill="#63b8ff" stroke="#63b8ff" points="1091.09,-464.15 1081.78,-459.09 1085.9,-468.85 1091.09,-464.15"/>
</a>
</g>
</g>
<!-- Node17&#45;&gt;Node26 -->
<g id="edge54_Node000017_Node000026" class="edge">
<title>Node17&#45;&gt;Node26</title>
<g id="a_edge54_Node000017_Node000026"><a xlink:title=" ">
<path fill="none" stroke="#63b8ff" d="M1132.48,-494.9C1151.78,-478.02 1191,-438.44 1191,-395.5 1191,-395.5 1191,-395.5 1191,-338.5 1191,-306.61 1198.73,-270.14 1204.06,-248.78"/>
<polygon fill="#63b8ff" stroke="#63b8ff" points="1207.45,-249.66 1206.57,-239.1 1200.67,-247.9 1207.45,-249.66"/>
</a>
</g>
</g>
<!-- Node30 -->
<g id="Node000030" class="node">
<title>Node30</title>
<g id="a_Node000030"><a xlink:title=" ">
<polygon fill="#e0e0e0" stroke="#999999" points="1004,-459 914,-459 914,-440 1004,-440 1004,-459"/>
<text text-anchor="middle" x="959" y="-447" font-family="Helvetica,sans-Serif" font-size="10.00">AH/STL/iterator</text>
</a>
</g>
</g>
<!-- Node17&#45;&gt;Node30 -->
<g id="edge52_Node000017_Node000030" class="edge">
<title>Node17&#45;&gt;Node30</title>
<g id="a_edge52_Node000017_Node000030"><a xlink:title=" ">
<path fill="none" stroke="#63b8ff" d="M1095.81,-494.98C1068.56,-486.13 1025.7,-472.19 995.22,-462.28"/>
<polygon fill="#63b8ff" stroke="#63b8ff" points="995.99,-458.85 985.39,-459.08 993.82,-465.5 995.99,-458.85"/>
</a>
</g>
</g>
<!-- Node18&#45;&gt;Node6 -->
<g id="edge28_Node000018_Node000006" class="edge">
<title>Node18&#45;&gt;Node6</title>
<g id="a_edge28_Node000018_Node000006"><a xlink:title=" ">
<path fill="none" stroke="#63b8ff" d="M1021.83,-440.13C912.54,-422.08 667.63,-378.73 644,-349 562.01,-245.87 599.96,-158.09 682,-55 691.86,-42.61 706.03,-32.09 718.34,-24.39"/>
<polygon fill="#63b8ff" stroke="#63b8ff" points="720.47,-27.19 727.28,-19.07 716.89,-21.17 720.47,-27.19"/>
</a>
</g>
</g>
<!-- Node19 -->
<g id="Node000019" class="node">
<title>Node19</title>
<g id="a_Node000019"><a xlink:href="../../df/dee/Debug_8hpp.html" target="_top" xlink:title=" ">
<polygon fill="white" stroke="#666666" points="1096.5,-404 975.5,-404 975.5,-385 1096.5,-385 1096.5,-404"/>
<text text-anchor="middle" x="1036" y="-392" font-family="Helvetica,sans-Serif" font-size="10.00">AH/Debug/Debug.hpp</text>
</a>
</g>
</g>
<!-- Node18&#45;&gt;Node19 -->
<g id="edge29_Node000018_Node000019" class="edge">
<title>Node18&#45;&gt;Node19</title>
<g id="a_edge29_Node000018_Node000019"><a xlink:title=" ">
<path fill="none" stroke="#63b8ff" d="M1067.73,-439.75C1062.41,-432.34 1054.64,-421.5 1048.12,-412.41"/>
<polygon fill="#63b8ff" stroke="#63b8ff" points="1050.83,-410.18 1042.16,-404.09 1045.14,-414.26 1050.83,-410.18"/>
</a>
</g>
</g>
<!-- Node19&#45;&gt;Node6 -->
<g id="edge30_Node000019_Node000006" class="edge">
<title>Node19&#45;&gt;Node6</title>
<g id="a_edge30_Node000019_Node000006"><a xlink:title=" ">
<path fill="none" stroke="#63b8ff" d="M1072.72,-384.92C1093.39,-378.32 1118.15,-367.16 1134,-349 1153.37,-326.81 1153,-314.96 1153,-285.5 1153,-285.5 1153,-285.5 1153,-118.5 1153,-51.51 945.29,-25.15 825.92,-15.53"/>
<polygon fill="#63b8ff" stroke="#63b8ff" points="825.95,-12.03 815.71,-14.74 825.41,-19 825.95,-12.03"/>
</a>
</g>
</g>
<!-- Node20 -->
<g id="Node000020" class="node">
<title>Node20</title>
<g id="a_Node000020"><a xlink:href="../../dd/d80/PrintStream_8hpp.html" target="_top" xlink:title=" ">
<polygon fill="white" stroke="#666666" points="826.5,-349 653.5,-349 653.5,-330 826.5,-330 826.5,-349"/>
<text text-anchor="middle" x="740" y="-337" font-family="Helvetica,sans-Serif" font-size="10.00">AH/PrintStream/PrintStream.hpp</text>
</a>
</g>
</g>
<!-- Node19&#45;&gt;Node20 -->
<g id="edge31_Node000019_Node000020" class="edge">
<title>Node19&#45;&gt;Node20</title>
<g id="a_edge31_Node000019_Node000020"><a xlink:title=" ">
<path fill="none" stroke="#63b8ff" d="M988.44,-384.98C936.6,-375.7 853.61,-360.84 797.99,-350.88"/>
<polygon fill="#63b8ff" stroke="#63b8ff" points="798.39,-347.4 787.93,-349.08 797.16,-354.29 798.39,-347.4"/>
</a>
</g>
</g>
<!-- Node21 -->
<g id="Node000021" class="node">
<title>Node21</title>
<g id="a_Node000021"><a xlink:href="../../de/dd1/AH_2Settings_2SettingsWrapper_8hpp.html" target="_top" xlink:title=" ">
<polygon fill="white" stroke="#666666" points="1125,-349 947,-349 947,-330 1125,-330 1125,-349"/>
<text text-anchor="middle" x="1036" y="-337" font-family="Helvetica,sans-Serif" font-size="10.00">AH/Settings/SettingsWrapper.hpp</text>
</a>
</g>
</g>
<!-- Node19&#45;&gt;Node21 -->
<g id="edge36_Node000019_Node000021" class="edge">
<title>Node19&#45;&gt;Node21</title>
<g id="a_edge36_Node000019_Node000021"><a xlink:title=" ">
<path fill="none" stroke="#63b8ff" d="M1030.83,-384.75C1029.34,-377.8 1028.9,-367.85 1029.52,-359.13"/>
<polygon fill="#63b8ff" stroke="#63b8ff" points="1033.01,-359.47 1030.87,-349.09 1026.07,-358.53 1033.01,-359.47"/>
</a>
</g>
</g>
<!-- Node29 -->
<g id="Node000029" class="node">
<title>Node29</title>
<g id="a_Node000029"><a xlink:href="../../d7/d52/DebugVal_8hpp.html" target="_top" xlink:title=" ">
<polygon fill="white" stroke="#666666" points="929,-349 845,-349 845,-330 929,-330 929,-349"/>
<text text-anchor="middle" x="887" y="-337" font-family="Helvetica,sans-Serif" font-size="10.00">DebugVal.hpp</text>
</a>
</g>
</g>
<!-- Node19&#45;&gt;Node29 -->
<g id="edge51_Node000019_Node000029" class="edge">
<title>Node19&#45;&gt;Node29</title>
<g id="a_edge51_Node000019_Node000029"><a xlink:title=" ">
<path fill="none" stroke="#63b8ff" d="M1012.06,-384.98C987.44,-376.23 948.88,-362.51 921.08,-352.62"/>
<polygon fill="#63b8ff" stroke="#63b8ff" points="921.97,-349.22 911.38,-349.17 919.62,-355.82 921.97,-349.22"/>
</a>
</g>
</g>
<!-- Node20&#45;&gt;Node4 -->
<g id="edge34_Node000020_Node000004" class="edge">
<title>Node20&#45;&gt;Node4</title>
<g id="a_edge34_Node000020_Node000004"><a xlink:title=" ">
<path fill="none" stroke="#63b8ff" d="M723.61,-329.97C672.39,-303.29 515.02,-221.34 452.75,-188.91"/>
<polygon fill="#63b8ff" stroke="#63b8ff" points="454.09,-185.66 443.6,-184.15 450.86,-191.87 454.09,-185.66"/>
</a>
</g>
</g>
<!-- Node20&#45;&gt;Node6 -->
<g id="edge33_Node000020_Node000006" class="edge">
<title>Node20&#45;&gt;Node6</title>
<g id="a_edge33_Node000020_Node000006"><a xlink:title=" ">
<path fill="none" stroke="#63b8ff" d="M729.55,-329.91C719.98,-321.58 705.97,-308.16 697,-294 680.85,-268.52 673,-260.67 673,-230.5 673,-230.5 673,-230.5 673,-118.5 673,-88.33 680.29,-80.12 697,-55 704.34,-43.97 714.89,-33.66 724.13,-25.75"/>
<polygon fill="#63b8ff" stroke="#63b8ff" points="726.61,-28.25 732.13,-19.2 722.17,-22.83 726.61,-28.25"/>
</a>
</g>
</g>
<!-- Node20&#45;&gt;Node9 -->
<g id="edge32_Node000020_Node000009" class="edge">
<title>Node20&#45;&gt;Node9</title>
<g id="a_edge32_Node000020_Node000009"><a xlink:title=" ">
<path fill="none" stroke="#63b8ff" d="M747.25,-329.98C759,-316.63 783.48,-290.69 809,-275 847.82,-251.13 876.13,-274.26 905,-239 941.99,-193.82 939.32,-119.24 935.62,-84.45"/>
<polygon fill="#63b8ff" stroke="#63b8ff" points="939.06,-83.79 934.38,-74.28 932.12,-84.63 939.06,-83.79"/>
</a>
</g>
</g>
<!-- Node20&#45;&gt;Node11 -->
<g id="edge35_Node000020_Node000011" class="edge">
<title>Node20&#45;&gt;Node11</title>
<g id="a_edge35_Node000020_Node000011"><a xlink:title=" ">
<path fill="none" stroke="#63b8ff" d="M679.75,-329.98C613.15,-320.57 505.99,-305.43 435.53,-295.47"/>
<polygon fill="#63b8ff" stroke="#63b8ff" points="435.8,-291.97 425.41,-294.04 434.82,-298.9 435.8,-291.97"/>
</a>
</g>
</g>
<!-- Node21&#45;&gt;Node6 -->
<g id="edge37_Node000021_Node000006" class="edge">
<title>Node21&#45;&gt;Node6</title>
<g id="a_edge37_Node000021_Node000006"><a xlink:title=" ">
<path fill="none" stroke="#63b8ff" d="M968.66,-329.98C873.47,-316.02 711,-284.31 711,-230.5 711,-230.5 711,-230.5 711,-118.5 711,-85.63 725.16,-49.49 734.93,-28.46"/>
<polygon fill="#63b8ff" stroke="#63b8ff" points="738.21,-29.71 739.41,-19.18 731.91,-26.66 738.21,-29.71"/>
</a>
</g>
</g>
<!-- Node21&#45;&gt;Node9 -->
<g id="edge38_Node000021_Node000009" class="edge">
<title>Node21&#45;&gt;Node9</title>
<g id="a_edge38_Node000021_Node000009"><a xlink:title=" ">
<path fill="none" stroke="#63b8ff" d="M1055.27,-329.9C1069.12,-322.55 1086.76,-310.54 1095,-294 1098.77,-286.44 1097.71,-283 1095,-275 1093.63,-270.94 1011.45,-166.96 982,-129 969.65,-113.09 955.62,-94.89 945.74,-82.06"/>
<polygon fill="#63b8ff" stroke="#63b8ff" points="948.52,-79.93 939.64,-74.14 942.97,-84.2 948.52,-79.93"/>
</a>
</g>
</g>
<!-- Node21&#45;&gt;Node19 -->
<g id="edge50_Node000021_Node000019" class="edge">
<title>Node21&#45;&gt;Node19</title>
<g id="a_edge50_Node000021_Node000019"><a xlink:title=" ">
<path fill="none" stroke="#63b8ff" d="M1041.13,-349.09C1042.64,-355.99 1043.09,-365.93 1042.49,-374.66"/>
<polygon fill="#63b8ff" stroke="#63b8ff" points="1039,-374.38 1041.17,-384.75 1045.94,-375.29 1039,-374.38"/>
</a>
</g>
</g>
<!-- Node22 -->
<g id="Node000022" class="node">
<title>Node22</title>
<g id="a_Node000022"><a xlink:href="../../d5/d4f/AH_2Settings_2Settings_8hpp.html" target="_top" xlink:title="All user settings and debugging options can be changed here.">
<polygon fill="white" stroke="#666666" points="895.5,-294 818.5,-294 818.5,-275 895.5,-275 895.5,-294"/>
<text text-anchor="middle" x="857" y="-282" font-family="Helvetica,sans-Serif" font-size="10.00">Settings.hpp</text>
</a>
</g>
</g>
<!-- Node21&#45;&gt;Node22 -->
<g id="edge39_Node000021_Node000022" class="edge">
<title>Node21&#45;&gt;Node22</title>
<g id="a_edge39_Node000021_Node000022"><a xlink:title=" ">
<path fill="none" stroke="#63b8ff" d="M1007.24,-329.98C977.06,-321.05 929.43,-306.94 895.9,-297.02"/>
<polygon fill="#63b8ff" stroke="#63b8ff" points="896.57,-293.57 885.98,-294.08 894.58,-300.28 896.57,-293.57"/>
</a>
</g>
</g>
<!-- Node28 -->
<g id="Node000028" class="node">
<title>Node28</title>
<g id="a_Node000028"><a xlink:href="../../d9/d98/TeensyUSBTypes_8hpp.html" target="_top" xlink:title=" ">
<polygon fill="white" stroke="#666666" points="1086.5,-294 913.5,-294 913.5,-275 1086.5,-275 1086.5,-294"/>
<text text-anchor="middle" x="1000" y="-282" font-family="Helvetica,sans-Serif" font-size="10.00">AH/Teensy/TeensyUSBTypes.hpp</text>
</a>
</g>
</g>
<!-- Node21&#45;&gt;Node28 -->
<g id="edge49_Node000021_Node000028" class="edge">
<title>Node21&#45;&gt;Node28</title>
<g id="a_edge49_Node000021_Node000028"><a xlink:title=" ">
<path fill="none" stroke="#63b8ff" d="M1030.06,-329.75C1025.02,-322.34 1017.66,-311.5 1011.49,-302.41"/>
<polygon fill="#63b8ff" stroke="#63b8ff" points="1014.35,-300.39 1005.83,-294.09 1008.56,-304.33 1014.35,-300.39"/>
</a>
</g>
</g>
<!-- Node23 -->
<g id="Node000023" class="node">
<title>Node23</title>
<g id="a_Node000023"><a xlink:href="../../dc/d50/Frequency_8hpp.html" target="_top" xlink:title=" ">
<polygon fill="white" stroke="#666666" points="1125,-129 991,-129 991,-110 1125,-110 1125,-129"/>
<text text-anchor="middle" x="1058" y="-117" font-family="Helvetica,sans-Serif" font-size="10.00">AH/Types/Frequency.hpp</text>
</a>
</g>
</g>
<!-- Node22&#45;&gt;Node23 -->
<g id="edge40_Node000022_Node000023" class="edge">
<title>Node22&#45;&gt;Node23</title>
<g id="a_edge40_Node000022_Node000023"><a xlink:title=" ">
<path fill="none" stroke="#63b8ff" d="M876.49,-274.88C893.72,-266.81 919.13,-253.8 939,-239 981.27,-207.51 1023.19,-161.39 1044.17,-137.02"/>
<polygon fill="#63b8ff" stroke="#63b8ff" points="1047.1,-138.97 1050.91,-129.09 1041.77,-134.44 1047.1,-138.97"/>
</a>
</g>
</g>
<!-- Node24 -->
<g id="Node000024" class="node">
<title>Node24</title>
<g id="a_Node000024"><a xlink:href="../../d7/d7c/ADCConfig_8hpp.html" target="_top" xlink:title="This file contains the platform&#45;specific ADC resolutions.">
<polygon fill="white" stroke="#666666" points="896.5,-239 739.5,-239 739.5,-220 896.5,-220 896.5,-239"/>
<text text-anchor="middle" x="818" y="-227" font-family="Helvetica,sans-Serif" font-size="10.00">AH/Hardware/ADCConfig.hpp</text>
</a>
</g>
</g>
<!-- Node22&#45;&gt;Node24 -->
<g id="edge43_Node000022_Node000024" class="edge">
<title>Node22&#45;&gt;Node24</title>
<g id="a_edge43_Node000022_Node000024"><a xlink:title=" ">
<path fill="none" stroke="#63b8ff" d="M850.56,-274.75C845.11,-267.34 837.14,-256.5 830.44,-247.41"/>
<polygon fill="#63b8ff" stroke="#63b8ff" points="833.07,-245.07 824.32,-239.09 827.43,-249.22 833.07,-245.07"/>
</a>
</g>
</g>
<!-- Node25 -->
<g id="Node000025" class="node">
<title>Node25</title>
<g id="a_Node000025"><a xlink:title=" ">
<polygon fill="#e0e0e0" stroke="#999999" points="1044.5,-239 991.5,-239 991.5,-220 1044.5,-220 1044.5,-239"/>
<text text-anchor="middle" x="1018" y="-227" font-family="Helvetica,sans-Serif" font-size="10.00">limits.h</text>
</a>
</g>
</g>
<!-- Node22&#45;&gt;Node25 -->
<g id="edge46_Node000022_Node000025" class="edge">
<title>Node22&#45;&gt;Node25</title>
<g id="a_edge46_Node000022_Node000025"><a xlink:title=" ">
<path fill="none" stroke="#63b8ff" d="M882.87,-274.98C909.78,-266.13 952.12,-252.19 982.23,-242.28"/>
<polygon fill="#63b8ff" stroke="#63b8ff" points="983.53,-245.53 991.93,-239.08 981.34,-238.88 983.53,-245.53"/>
</a>
</g>
</g>
<!-- Node22&#45;&gt;Node26 -->
<g id="edge47_Node000022_Node000026" class="edge">
<title>Node22&#45;&gt;Node26</title>
<g id="a_edge47_Node000022_Node000026"><a xlink:title=" ">
<path fill="none" stroke="#63b8ff" d="M895.71,-276.39C898.51,-275.91 901.3,-275.44 904,-275 999.71,-259.37 1112.75,-243.57 1170.63,-235.67"/>
<polygon fill="#63b8ff" stroke="#63b8ff" points="1171.34,-239.11 1180.78,-234.29 1170.4,-232.17 1171.34,-239.11"/>
</a>
</g>
</g>
<!-- Node22&#45;&gt;Node27 -->
<g id="edge48_Node000022_Node000027" class="edge">
<title>Node22&#45;&gt;Node27</title>
<g id="a_edge48_Node000022_Node000027"><a xlink:title=" ">
<path fill="none" stroke="#63b8ff" d="M895.69,-276.25C898.5,-275.8 901.29,-275.38 904,-275 984.53,-263.79 1227.96,-241.93 1321.16,-233.72"/>
<polygon fill="#63b8ff" stroke="#63b8ff" points="1321.59,-237.2 1331.24,-232.83 1320.98,-230.22 1321.59,-237.2"/>
</a>
</g>
</g>
<!-- Node23&#45;&gt;Node6 -->
<g id="edge41_Node000023_Node000006" class="edge">
<title>Node23&#45;&gt;Node6</title>
<g id="a_edge41_Node000023_Node000006"><a xlink:title=" ">
<path fill="none" stroke="#63b8ff" d="M1058.13,-109.55C1057.81,-95.61 1054.99,-68.88 1039,-55 1007.93,-28.03 901.81,-17.4 825.76,-13.21"/>
<polygon fill="#63b8ff" stroke="#63b8ff" points="825.88,-9.71 815.71,-12.68 825.51,-16.7 825.88,-9.71"/>
</a>
</g>
</g>
<!-- Node23&#45;&gt;Node9 -->
<g id="edge42_Node000023_Node000009" class="edge">
<title>Node23&#45;&gt;Node9</title>
<g id="a_edge42_Node000023_Node000009"><a xlink:title=" ">
<path fill="none" stroke="#63b8ff" d="M1037.92,-109.98C1017.63,-101.38 986.04,-87.99 962.83,-78.15"/>
<polygon fill="#63b8ff" stroke="#63b8ff" points="964.02,-74.85 953.45,-74.17 961.29,-81.3 964.02,-74.85"/>
</a>
</g>
</g>
<!-- Node24&#45;&gt;Node4 -->
<g id="edge45_Node000024_Node000004" class="edge">
<title>Node24&#45;&gt;Node4</title>
<g id="a_edge45_Node000024_Node000004"><a xlink:title=" ">
<path fill="none" stroke="#63b8ff" d="M755.18,-219.98C685.29,-210.51 572.55,-195.23 499.11,-185.27"/>
<polygon fill="#63b8ff" stroke="#63b8ff" points="499.4,-181.78 489.02,-183.91 498.46,-188.72 499.4,-181.78"/>
</a>
</g>
</g>
<!-- Node24&#45;&gt;Node6 -->
<g id="edge44_Node000024_Node000006" class="edge">
<title>Node24&#45;&gt;Node6</title>
<g id="a_edge44_Node000024_Node000006"><a xlink:title=" ">
<path fill="none" stroke="#63b8ff" d="M815.1,-219.95C804.19,-187.81 765.46,-73.72 750.22,-28.83"/>
<polygon fill="#63b8ff" stroke="#63b8ff" points="753.49,-27.57 746.96,-19.22 746.86,-29.82 753.49,-27.57"/>
</a>
</g>
</g>
<!-- Node31&#45;&gt;Node6 -->
<g id="edge56_Node000031_Node000006" class="edge">
<title>Node31&#45;&gt;Node6</title>
<g id="a_edge56_Node000031_Node000006"><a xlink:title=" ">
<path fill="none" stroke="#63b8ff" d="M1318.52,-549.61C1348.72,-515.9 1419,-428.05 1419,-340.5 1419,-340.5 1419,-340.5 1419,-118.5 1419,-47.74 1341.61,-72.31 1273,-55 1190.67,-34.23 952.8,-20.31 825.95,-14.13"/>
<polygon fill="#63b8ff" stroke="#63b8ff" points="826.05,-10.63 815.89,-13.65 825.71,-17.63 826.05,-10.63"/>
</a>
</g>
</g>
<!-- Node31&#45;&gt;Node9 -->
<g id="edge58_Node000031_Node000009" class="edge">
<title>Node31&#45;&gt;Node9</title>
<g id="a_edge58_Node000031_Node000009"><a xlink:title=" ">
<path fill="none" stroke="#63b8ff" d="M1305,-549.67C1305,-528.14 1305,-486.17 1305,-450.5 1305,-450.5 1305,-450.5 1305,-338.5 1305,-211.66 1245.49,-170.49 1134,-110 1102.41,-92.86 1064.61,-82.32 1030.37,-75.83"/>
<polygon fill="#63b8ff" stroke="#63b8ff" points="1030.8,-72.36 1020.34,-74.03 1029.56,-79.25 1030.8,-72.36"/>
</a>
</g>
</g>
<!-- Node31&#45;&gt;Node17 -->
<g id="edge57_Node000031_Node000017" class="edge">
<title>Node31&#45;&gt;Node17</title>
<g id="a_edge57_Node000031_Node000017"><a xlink:title=" ">
<path fill="none" stroke="#63b8ff" d="M1261.17,-549.99C1229.86,-539.98 1188.22,-526.67 1158.67,-517.22"/>
<polygon fill="#63b8ff" stroke="#63b8ff" points="1159.35,-513.76 1148.76,-514.05 1157.22,-520.43 1159.35,-513.76"/>
</a>
</g>
</g>
<!-- Node31&#45;&gt;Node27 -->
<g id="edge59_Node000031_Node000027" class="edge">
<title>Node31&#45;&gt;Node27</title>
<g id="a_edge59_Node000031_Node000027"><a xlink:title=" ">
<path fill="none" stroke="#63b8ff" d="M1313.06,-549.82C1324.21,-528.82 1343,-487.9 1343,-450.5 1343,-450.5 1343,-450.5 1343,-338.5 1343,-306.89 1349.38,-270.56 1353.82,-249.13"/>
<polygon fill="#63b8ff" stroke="#63b8ff" points="1357.29,-249.64 1355.98,-239.12 1350.45,-248.16 1357.29,-249.64"/>
</a>
</g>
</g>
<!-- Node33&#45;&gt;Node4 -->
<g id="edge65_Node000033_Node000004" class="edge">
<title>Node33&#45;&gt;Node4</title>
<g id="a_edge65_Node000033_Node000004"><a xlink:title=" ">
<path fill="none" stroke="#63b8ff" d="M210.74,-329.95C208.07,-308.33 204.33,-250.98 234,-220 250.71,-202.55 307.22,-190.85 354.8,-183.85"/>
<polygon fill="#63b8ff" stroke="#63b8ff" points="355.4,-187.3 364.8,-182.42 354.41,-180.37 355.4,-187.3"/>
</a>
</g>
</g>
<!-- Node33&#45;&gt;Node11 -->
<g id="edge66_Node000033_Node000011" class="edge">
<title>Node33&#45;&gt;Node11</title>
<g id="a_edge66_Node000033_Node000011"><a xlink:title=" ">
<path fill="none" stroke="#63b8ff" d="M236.58,-329.98C262.05,-321.16 302.04,-307.31 330.63,-297.41"/>
<polygon fill="#63b8ff" stroke="#63b8ff" points="331.92,-300.66 340.23,-294.08 329.63,-294.05 331.92,-300.66"/>
</a>
</g>
</g>
</g>
</svg>
