<?xml version="1.0" encoding="UTF-8" standalone="no"?>
<!DOCTYPE svg PUBLIC "-//W3C//DTD SVG 1.1//EN"
 "http://www.w3.org/Graphics/SVG/1.1/DTD/svg11.dtd">
<!-- Generated by graphviz version 2.38.0 (20140413.2041)
 -->
<!-- Title: AH::MAX7219 Pages: 1 -->
<svg width="718pt" height="782pt"
 viewBox="0.00 0.00 718.00 782.00" xmlns="http://www.w3.org/2000/svg" xmlns:xlink="http://www.w3.org/1999/xlink">
<g id="graph0" class="graph" transform="scale(1 1) rotate(0) translate(4 778)">
<title>AH::MAX7219</title>
<polygon fill="white" stroke="none" points="-4,4 -4,-778 714,-778 714,4 -4,4"/>
<!-- Node1 -->
<g id="node1" class="node"><title>Node1</title>
<g id="a_node1"><a xlink:title="A class for LED outputs using the MAX7219 LED display driver.">
<polygon fill="#bfbfbf" stroke="black" points="169,-0.5 169,-134.5 252,-134.5 252,-0.5 169,-0.5"/>
<text text-anchor="middle" x="210.5" y="-122.5" font-family="Helvetica,sans-Serif" font-size="10.00">AH::MAX7219</text>
<polyline fill="none" stroke="black" points="169,-115.5 252,-115.5 "/>
<text text-anchor="middle" x="210.5" y="-103.5" font-family="Helvetica,sans-Serif" font-size="10.00"> </text>
<polyline fill="none" stroke="black" points="169,-96.5 252,-96.5 "/>
<text text-anchor="start" x="177" y="-84.5" font-family="Helvetica,sans-Serif" font-size="10.00">+ MAX7219()</text>
<text text-anchor="start" x="177" y="-73.5" font-family="Helvetica,sans-Serif" font-size="10.00">+ begin()</text>
<text text-anchor="start" x="177" y="-62.5" font-family="Helvetica,sans-Serif" font-size="10.00">+ pinMode()</text>
<text text-anchor="start" x="177" y="-51.5" font-family="Helvetica,sans-Serif" font-size="10.00">+ digitalWrite()</text>
<text text-anchor="start" x="177" y="-40.5" font-family="Helvetica,sans-Serif" font-size="10.00">+ digitalRead()</text>
<text text-anchor="start" x="177" y="-29.5" font-family="Helvetica,sans-Serif" font-size="10.00">+ analogRead()</text>
<text text-anchor="start" x="177" y="-18.5" font-family="Helvetica,sans-Serif" font-size="10.00">+ analogWrite()</text>
<text text-anchor="start" x="177" y="-7.5" font-family="Helvetica,sans-Serif" font-size="10.00">+ update()</text>
</a>
</g>
</g>
<!-- Node2 -->
<g id="node2" class="node"><title>Node2</title>
<g id="a_node2"><a xlink:href="../../dd/de5/classAH_1_1MAX7219__Base.html" target="_top" xlink:title="A base class for classes that control MAX7219 LED drivers.">
<polygon fill="white" stroke="black" points="0,-232 0,-410 107,-410 107,-232 0,-232"/>
<text text-anchor="middle" x="53.5" y="-398" font-family="Helvetica,sans-Serif" font-size="10.00">AH::MAX7219_Base</text>
<polyline fill="none" stroke="black" points="0,-391 107,-391 "/>
<text text-anchor="start" x="8" y="-379" font-family="Helvetica,sans-Serif" font-size="10.00">+ DECODEMODE</text>
<text text-anchor="start" x="8" y="-368" font-family="Helvetica,sans-Serif" font-size="10.00">+ INTENSITY</text>
<text text-anchor="start" x="8" y="-357" font-family="Helvetica,sans-Serif" font-size="10.00">+ SCANLIMIT</text>
<text text-anchor="start" x="8" y="-346" font-family="Helvetica,sans-Serif" font-size="10.00">+ SHUTDOWN</text>
<text text-anchor="start" x="8" y="-335" font-family="Helvetica,sans-Serif" font-size="10.00">+ DISPLAYTEST</text>
<text text-anchor="start" x="8" y="-324" font-family="Helvetica,sans-Serif" font-size="10.00">&#45; loadPin</text>
<text text-anchor="start" x="8" y="-313" font-family="Helvetica,sans-Serif" font-size="10.00">&#45; settings</text>
<polyline fill="none" stroke="black" points="0,-306 107,-306 "/>
<text text-anchor="start" x="8" y="-294" font-family="Helvetica,sans-Serif" font-size="10.00">+ MAX7219_Base()</text>
<text text-anchor="start" x="8" y="-283" font-family="Helvetica,sans-Serif" font-size="10.00">+ init()</text>
<text text-anchor="start" x="8" y="-272" font-family="Helvetica,sans-Serif" font-size="10.00">+ clear()</text>
<text text-anchor="start" x="8" y="-261" font-family="Helvetica,sans-Serif" font-size="10.00">+ send()</text>
<text text-anchor="start" x="8" y="-250" font-family="Helvetica,sans-Serif" font-size="10.00">+ sendRaw()</text>
<text text-anchor="start" x="8" y="-239" font-family="Helvetica,sans-Serif" font-size="10.00">+ setIntensity()</text>
</a>
</g>
</g>
<!-- Node2&#45;&gt;Node1 -->
<g id="edge1" class="edge"><title>Node2&#45;&gt;Node1</title>
<path fill="none" stroke="midnightblue" d="M94.0617,-222.544C100.977,-208.621 108.524,-194.722 116.5,-182 131.653,-157.83 151.438,-133.183 168.946,-113.06"/>
<polygon fill="none" stroke="midnightblue" points="90.8423,-221.16 89.6108,-231.683 97.1358,-224.225 90.8423,-221.16"/>
</g>
<!-- Node3 -->
<g id="node3" class="node"><title>Node3</title>
<g id="a_node3"><a xlink:href="../../d6/d57/classAH_1_1StaticSizeExtendedIOElement.html" target="_top" xlink:title=" ">
<polygon fill="white" stroke="black" points="125.5,-276 125.5,-366 295.5,-366 295.5,-276 125.5,-276"/>
<text text-anchor="start" x="133.5" y="-354" font-family="Helvetica,sans-Serif" font-size="10.00">AH::StaticSizeExtendedIOElement</text>
<text text-anchor="middle" x="210.5" y="-343" font-family="Helvetica,sans-Serif" font-size="10.00">&lt; 8 *8 &gt;</text>
<polyline fill="none" stroke="black" points="125.5,-336 295.5,-336 "/>
<text text-anchor="middle" x="210.5" y="-324" font-family="Helvetica,sans-Serif" font-size="10.00"> </text>
<polyline fill="none" stroke="black" points="125.5,-317 295.5,-317 "/>
<text text-anchor="start" x="133.5" y="-305" font-family="Helvetica,sans-Serif" font-size="10.00">+ pins()</text>
<text text-anchor="start" x="133.5" y="-294" font-family="Helvetica,sans-Serif" font-size="10.00">+ length()</text>
<text text-anchor="start" x="133.5" y="-283" font-family="Helvetica,sans-Serif" font-size="10.00"># StaticSizeExtendedIOElement()</text>
</a>
</g>
</g>
<!-- Node3&#45;&gt;Node1 -->
<g id="edge2" class="edge"><title>Node3&#45;&gt;Node1</title>
<path fill="none" stroke="midnightblue" d="M210.5,-265.454C210.5,-227.093 210.5,-175.546 210.5,-134.808"/>
<polygon fill="none" stroke="midnightblue" points="207,-265.904 210.5,-275.904 214,-265.904 207,-265.904"/>
</g>
<!-- Node4 -->
<g id="node4" class="node"><title>Node4</title>
<g id="a_node4"><a xlink:href="../../d2/dda/classAH_1_1ExtendedIOElement.html" target="_top" xlink:title="An abstract base class for Extended Input/Output elements.">
<polygon fill="white" stroke="black" points="376,-518.5 376,-773.5 501,-773.5 501,-518.5 376,-518.5"/>
<text text-anchor="middle" x="438.5" y="-761.5" font-family="Helvetica,sans-Serif" font-size="10.00">AH::ExtendedIOElement</text>
<polyline fill="none" stroke="black" points="376,-754.5 501,-754.5 "/>
<text text-anchor="start" x="384" y="-742.5" font-family="Helvetica,sans-Serif" font-size="10.00">&#45; length</text>
<text text-anchor="start" x="384" y="-731.5" font-family="Helvetica,sans-Serif" font-size="10.00">&#45; start</text>
<text text-anchor="start" x="384" y="-720.5" font-family="Helvetica,sans-Serif" font-size="10.00">&#45; end</text>
<text text-anchor="start" x="384" y="-709.5" font-family="Helvetica,sans-Serif" font-size="10.00">&#45; offset</text>
<polyline fill="none" stroke="black" points="376,-702.5 501,-702.5 "/>
<text text-anchor="start" x="384" y="-690.5" font-family="Helvetica,sans-Serif" font-size="10.00">+ ~ExtendedIOElement()</text>
<text text-anchor="start" x="384" y="-679.5" font-family="Helvetica,sans-Serif" font-size="10.00">+ pinMode()</text>
<text text-anchor="start" x="384" y="-668.5" font-family="Helvetica,sans-Serif" font-size="10.00">+ digitalWrite()</text>
<text text-anchor="start" x="384" y="-657.5" font-family="Helvetica,sans-Serif" font-size="10.00">+ digitalRead()</text>
<text text-anchor="start" x="384" y="-646.5" font-family="Helvetica,sans-Serif" font-size="10.00">+ analogWrite()</text>
<text text-anchor="start" x="384" y="-635.5" font-family="Helvetica,sans-Serif" font-size="10.00">+ analogRead()</text>
<text text-anchor="start" x="384" y="-624.5" font-family="Helvetica,sans-Serif" font-size="10.00">+ begin()</text>
<text text-anchor="start" x="384" y="-613.5" font-family="Helvetica,sans-Serif" font-size="10.00">+ update()</text>
<text text-anchor="start" x="384" y="-602.5" font-family="Helvetica,sans-Serif" font-size="10.00">+ pin()</text>
<text text-anchor="start" x="384" y="-591.5" font-family="Helvetica,sans-Serif" font-size="10.00">+ operator[]()</text>
<text text-anchor="start" x="384" y="-580.5" font-family="Helvetica,sans-Serif" font-size="10.00">+ getLength()</text>
<text text-anchor="start" x="384" y="-569.5" font-family="Helvetica,sans-Serif" font-size="10.00">+ getEnd()</text>
<text text-anchor="start" x="384" y="-558.5" font-family="Helvetica,sans-Serif" font-size="10.00">+ getStart()</text>
<text text-anchor="start" x="384" y="-547.5" font-family="Helvetica,sans-Serif" font-size="10.00">+ beginAll()</text>
<text text-anchor="start" x="384" y="-536.5" font-family="Helvetica,sans-Serif" font-size="10.00">+ getAll()</text>
<text text-anchor="start" x="384" y="-525.5" font-family="Helvetica,sans-Serif" font-size="10.00"># ExtendedIOElement()</text>
</a>
</g>
</g>
<!-- Node4&#45;&gt;Node3 -->
<g id="edge3" class="edge"><title>Node4&#45;&gt;Node3</title>
<path fill="none" stroke="midnightblue" d="M370.023,-551.567C348.84,-522.369 325.547,-489.959 304.5,-460 282.587,-428.808 258.383,-393.249 240.024,-366.039"/>
<polygon fill="none" stroke="midnightblue" points="367.23,-553.677 375.938,-559.712 372.894,-549.564 367.23,-553.677"/>
</g>
<!-- Node5 -->
<g id="node5" class="node"><title>Node5</title>
<g id="a_node5"><a xlink:href="../../d4/d23/classDoublyLinkable.html" target="_top" xlink:title=" ">
<polygon fill="white" stroke="black" points="313.5,-287 313.5,-355 447.5,-355 447.5,-287 313.5,-287"/>
<text text-anchor="start" x="321.5" y="-343" font-family="Helvetica,sans-Serif" font-size="10.00">DoublyLinkable&lt; Extended</text>
<text text-anchor="middle" x="380.5" y="-332" font-family="Helvetica,sans-Serif" font-size="10.00">IOElement &gt;</text>
<polyline fill="none" stroke="black" points="313.5,-325 447.5,-325 "/>
<text text-anchor="middle" x="380.5" y="-313" font-family="Helvetica,sans-Serif" font-size="10.00"> </text>
<polyline fill="none" stroke="black" points="313.5,-306 447.5,-306 "/>
<text text-anchor="start" x="321.5" y="-294" font-family="Helvetica,sans-Serif" font-size="10.00"># ~DoublyLinkable()</text>
</a>
</g>
</g>
<!-- Node4&#45;&gt;Node5 -->
<g id="edge5" class="edge"><title>Node4&#45;&gt;Node5</title>
<path fill="none" stroke="#404040" d="M381.864,-518.197C380.188,-512.108 378.715,-506.023 377.5,-500 368.532,-455.554 370.827,-403.594 374.422,-367.327"/>
<polygon fill="none" stroke="#404040" points="374.444,-367.123 371.111,-360.728 375.732,-355.192 379.065,-361.587 374.444,-367.123"/>
<text text-anchor="middle" x="399" y="-492" font-family="Helvetica,sans-Serif" font-size="10.00"> #next</text>
<text text-anchor="middle" x="399" y="-481" font-family="Helvetica,sans-Serif" font-size="10.00">#previous</text>
</g>
<!-- Node6 -->
<g id="node6" class="node"><title>Node6</title>
<g id="a_node6"><a xlink:href="../../dd/d16/classDoublyLinkedList.html" target="_top" xlink:title=" ">
<polygon fill="white" stroke="black" points="466,-182.5 466,-459.5 585,-459.5 585,-182.5 466,-182.5"/>
<text text-anchor="start" x="474" y="-447.5" font-family="Helvetica,sans-Serif" font-size="10.00">DoublyLinkedList&lt; AH</text>
<text text-anchor="middle" x="525.5" y="-436.5" font-family="Helvetica,sans-Serif" font-size="10.00">::ExtendedIOElement &gt;</text>
<polyline fill="none" stroke="black" points="466,-429.5 585,-429.5 "/>
<text text-anchor="middle" x="525.5" y="-417.5" font-family="Helvetica,sans-Serif" font-size="10.00"> </text>
<polyline fill="none" stroke="black" points="466,-410.5 585,-410.5 "/>
<text text-anchor="start" x="474" y="-398.5" font-family="Helvetica,sans-Serif" font-size="10.00">+ append()</text>
<text text-anchor="start" x="474" y="-387.5" font-family="Helvetica,sans-Serif" font-size="10.00">+ append()</text>
<text text-anchor="start" x="474" y="-376.5" font-family="Helvetica,sans-Serif" font-size="10.00">+ insertBefore()</text>
<text text-anchor="start" x="474" y="-365.5" font-family="Helvetica,sans-Serif" font-size="10.00">+ insertBefore()</text>
<text text-anchor="start" x="474" y="-354.5" font-family="Helvetica,sans-Serif" font-size="10.00">+ insertSorted()</text>
<text text-anchor="start" x="474" y="-343.5" font-family="Helvetica,sans-Serif" font-size="10.00">+ insertSorted()</text>
<text text-anchor="start" x="474" y="-332.5" font-family="Helvetica,sans-Serif" font-size="10.00">+ remove()</text>
<text text-anchor="start" x="474" y="-321.5" font-family="Helvetica,sans-Serif" font-size="10.00">+ remove()</text>
<text text-anchor="start" x="474" y="-310.5" font-family="Helvetica,sans-Serif" font-size="10.00">+ moveDown()</text>
<text text-anchor="start" x="474" y="-299.5" font-family="Helvetica,sans-Serif" font-size="10.00">+ couldContain()</text>
<text text-anchor="start" x="474" y="-288.5" font-family="Helvetica,sans-Serif" font-size="10.00">+ begin()</text>
<text text-anchor="start" x="474" y="-277.5" font-family="Helvetica,sans-Serif" font-size="10.00">+ begin()</text>
<text text-anchor="start" x="474" y="-266.5" font-family="Helvetica,sans-Serif" font-size="10.00">+ end()</text>
<text text-anchor="start" x="474" y="-255.5" font-family="Helvetica,sans-Serif" font-size="10.00">+ end()</text>
<text text-anchor="start" x="474" y="-244.5" font-family="Helvetica,sans-Serif" font-size="10.00">+ rbegin()</text>
<text text-anchor="start" x="474" y="-233.5" font-family="Helvetica,sans-Serif" font-size="10.00">+ rbegin()</text>
<text text-anchor="start" x="474" y="-222.5" font-family="Helvetica,sans-Serif" font-size="10.00">+ rend()</text>
<text text-anchor="start" x="474" y="-211.5" font-family="Helvetica,sans-Serif" font-size="10.00">+ rend()</text>
<text text-anchor="start" x="474" y="-200.5" font-family="Helvetica,sans-Serif" font-size="10.00">+ getFirst()</text>
<text text-anchor="start" x="474" y="-189.5" font-family="Helvetica,sans-Serif" font-size="10.00">+ getLast()</text>
</a>
</g>
</g>
<!-- Node4&#45;&gt;Node6 -->
<g id="edge7" class="edge"><title>Node4&#45;&gt;Node6</title>
<path fill="none" stroke="#404040" d="M464.346,-518.374C467.569,-504.698 470.977,-491.027 474.5,-478 475.114,-475.731 475.741,-473.446 476.38,-471.148"/>
<polygon fill="none" stroke="#404040" points="476.389,-471.117 474.18,-464.253 479.668,-459.574 481.876,-466.439 476.389,-471.117"/>
<text text-anchor="middle" x="485.5" y="-492" font-family="Helvetica,sans-Serif" font-size="10.00"> &#45;last</text>
<text text-anchor="middle" x="485.5" y="-481" font-family="Helvetica,sans-Serif" font-size="10.00">&#45;first</text>
</g>
<!-- Node5&#45;&gt;Node4 -->
<g id="edge4" class="edge"><title>Node5&#45;&gt;Node4</title>
<path fill="none" stroke="midnightblue" d="M394.926,-364.678C404.838,-395.744 417.437,-439.023 424.5,-478 426.861,-491.026 428.824,-504.697 430.458,-518.372"/>
<polygon fill="none" stroke="midnightblue" points="398.218,-363.481 391.813,-355.041 391.557,-365.633 398.218,-363.481"/>
</g>
<!-- Node6&#45;&gt;Node4 -->
<g id="edge6" class="edge"><title>Node6&#45;&gt;Node4</title>
<path fill="none" stroke="#404040" d="M509.861,-459.776C507.2,-473.468 504.102,-487.074 500.5,-500 499.866,-502.275 499.204,-504.561 498.518,-506.855"/>
<polygon fill="none" stroke="#404040" points="498.494,-506.93 500.506,-513.855 494.887,-518.376 492.876,-511.451 498.494,-506.93"/>
<text text-anchor="middle" x="528.5" y="-486.5" font-family="Helvetica,sans-Serif" font-size="10.00"> &#45;elements</text>
</g>
<!-- Node7 -->
<g id="node7" class="node"><title>Node7</title>
<g id="a_node7"><a xlink:href="../../d6/da4/classAH_1_1BitArray.html" target="_top" xlink:title=" ">
<polygon fill="white" stroke="black" points="603,-237.5 603,-404.5 710,-404.5 710,-237.5 603,-237.5"/>
<text text-anchor="middle" x="656.5" y="-392.5" font-family="Helvetica,sans-Serif" font-size="10.00">AH::BitArray&lt; 8 *8 &gt;</text>
<polyline fill="none" stroke="black" points="603,-385.5 710,-385.5 "/>
<text text-anchor="start" x="611" y="-373.5" font-family="Helvetica,sans-Serif" font-size="10.00">&#45; buffer</text>
<text text-anchor="start" x="611" y="-362.5" font-family="Helvetica,sans-Serif" font-size="10.00">&#45; bufferLength</text>
<polyline fill="none" stroke="black" points="603,-355.5 710,-355.5 "/>
<text text-anchor="start" x="611" y="-343.5" font-family="Helvetica,sans-Serif" font-size="10.00">+ get()</text>
<text text-anchor="start" x="611" y="-332.5" font-family="Helvetica,sans-Serif" font-size="10.00">+ set()</text>
<text text-anchor="start" x="611" y="-321.5" font-family="Helvetica,sans-Serif" font-size="10.00">+ set()</text>
<text text-anchor="start" x="611" y="-310.5" font-family="Helvetica,sans-Serif" font-size="10.00">+ clear()</text>
<text text-anchor="start" x="611" y="-299.5" font-family="Helvetica,sans-Serif" font-size="10.00">+ safeIndex()</text>
<text text-anchor="start" x="611" y="-288.5" font-family="Helvetica,sans-Serif" font-size="10.00">+ getByte()</text>
<text text-anchor="start" x="611" y="-277.5" font-family="Helvetica,sans-Serif" font-size="10.00">+ getBufferLength()</text>
<text text-anchor="start" x="611" y="-266.5" font-family="Helvetica,sans-Serif" font-size="10.00">&#45; getBufferIndex()</text>
<text text-anchor="start" x="611" y="-255.5" font-family="Helvetica,sans-Serif" font-size="10.00">&#45; getBufferBit()</text>
<text text-anchor="start" x="611" y="-244.5" font-family="Helvetica,sans-Serif" font-size="10.00">&#45; getBufferMask()</text>
</a>
</g>
</g>
<!-- Node7&#45;&gt;Node1 -->
<g id="edge8" class="edge"><title>Node7&#45;&gt;Node1</title>
<path fill="none" stroke="#404040" d="M632.344,-237.191C623.022,-216.828 610.399,-196.682 593.5,-182 498.336,-99.3204 345.214,-76.8307 264.421,-70.7399"/>
<polygon fill="none" stroke="#404040" points="264.067,-70.7158 257.808,-74.2968 252.095,-69.8965 258.354,-66.3155 264.067,-70.7158"/>
<text text-anchor="middle" x="584" y="-156" font-family="Helvetica,sans-Serif" font-size="10.00"> &#45;buffer</text>
</g>
</g>
</svg>
