<?xml version="1.0" encoding="UTF-8" standalone="no"?>
<!DOCTYPE svg PUBLIC "-//W3C//DTD SVG 1.1//EN"
 "http://www.w3.org/Graphics/SVG/1.1/DTD/svg11.dtd">
<!-- Generated by graphviz version 2.43.0 (0)
 -->
<!-- Title: DisplayElement Pages: 1 -->
<svg width="354pt" height="1033pt"
 viewBox="0.00 0.00 353.50 1033.00" xmlns="http://www.w3.org/2000/svg" xmlns:xlink="http://www.w3.org/1999/xlink">
<g id="graph0" class="graph" transform="scale(1 1) rotate(0) translate(4 1029)">
<title>DisplayElement</title>
<!-- Node1 -->
<g id="Node000001" class="node">
<title>Node1</title>
<g id="a_Node000001"><a xlink:title="An interface for elements that draw to a display.">
<polygon fill="#999999" stroke="transparent" points="258,-567 143,-567 143,-293 258,-293 258,-567"/>
<text text-anchor="start" x="162" y="-555" font-family="Helvetica,sans-Serif" font-size="10.00">DisplayElement</text>
<text text-anchor="start" x="199" y="-540" font-family="Helvetica,sans-Serif" font-size="10.00"> </text>
<text text-anchor="start" x="147.5" y="-525" font-family="Helvetica,sans-Serif" font-size="10.00">+</text>
<text text-anchor="start" x="160.5" y="-525" font-family="Helvetica,sans-Serif" font-size="10.00">~DisplayElement()</text>
<text text-anchor="start" x="147.5" y="-510" font-family="Helvetica,sans-Serif" font-size="10.00">+</text>
<text text-anchor="start" x="160.5" y="-510" font-family="Helvetica,sans-Serif" font-size="10.00">draw()</text>
<text text-anchor="start" x="147.5" y="-495" font-family="Helvetica,sans-Serif" font-size="10.00">+</text>
<text text-anchor="start" x="160.5" y="-495" font-family="Helvetica,sans-Serif" font-size="10.00">getDirty()</text>
<text text-anchor="start" x="147.5" y="-480" font-family="Helvetica,sans-Serif" font-size="10.00">+</text>
<text text-anchor="start" x="160.5" y="-480" font-family="Helvetica,sans-Serif" font-size="10.00">getDisplay()</text>
<text text-anchor="start" x="147.5" y="-465" font-family="Helvetica,sans-Serif" font-size="10.00">+</text>
<text text-anchor="start" x="160.5" y="-465" font-family="Helvetica,sans-Serif" font-size="10.00">getDisplay()</text>
<text text-anchor="start" x="147.5" y="-450" font-family="Helvetica,sans-Serif" font-size="10.00">+</text>
<text text-anchor="start" x="160.5" y="-450" font-family="Helvetica,sans-Serif" font-size="10.00">getAll()</text>
<text text-anchor="start" x="147.5" y="-435" font-family="Helvetica,sans-Serif" font-size="10.00">#</text>
<text text-anchor="start" x="160.5" y="-435" font-family="Helvetica,sans-Serif" font-size="10.00">DisplayElement()</text>
<text text-anchor="start" x="149" y="-420" font-family="Helvetica,sans-Serif" font-size="10.00">*</text>
<text text-anchor="start" x="160.5" y="-420" font-family="Helvetica,sans-Serif" font-size="10.00">enable()</text>
<text text-anchor="start" x="149" y="-405" font-family="Helvetica,sans-Serif" font-size="10.00">*</text>
<text text-anchor="start" x="160.5" y="-405" font-family="Helvetica,sans-Serif" font-size="10.00">disable()</text>
<text text-anchor="start" x="149" y="-390" font-family="Helvetica,sans-Serif" font-size="10.00">*</text>
<text text-anchor="start" x="160.5" y="-390" font-family="Helvetica,sans-Serif" font-size="10.00">isEnabled()</text>
<text text-anchor="start" x="149" y="-375" font-family="Helvetica,sans-Serif" font-size="10.00">*</text>
<text text-anchor="start" x="160.5" y="-375" font-family="Helvetica,sans-Serif" font-size="10.00">enable()</text>
<text text-anchor="start" x="149" y="-360" font-family="Helvetica,sans-Serif" font-size="10.00">*</text>
<text text-anchor="start" x="160.5" y="-360" font-family="Helvetica,sans-Serif" font-size="10.00">enable()</text>
<text text-anchor="start" x="149" y="-345" font-family="Helvetica,sans-Serif" font-size="10.00">*</text>
<text text-anchor="start" x="160.5" y="-345" font-family="Helvetica,sans-Serif" font-size="10.00">enable()</text>
<text text-anchor="start" x="149" y="-330" font-family="Helvetica,sans-Serif" font-size="10.00">*</text>
<text text-anchor="start" x="160.5" y="-330" font-family="Helvetica,sans-Serif" font-size="10.00">disable()</text>
<text text-anchor="start" x="149" y="-315" font-family="Helvetica,sans-Serif" font-size="10.00">*</text>
<text text-anchor="start" x="160.5" y="-315" font-family="Helvetica,sans-Serif" font-size="10.00">disable()</text>
<text text-anchor="start" x="149" y="-300" font-family="Helvetica,sans-Serif" font-size="10.00">*</text>
<text text-anchor="start" x="160.5" y="-300" font-family="Helvetica,sans-Serif" font-size="10.00">disable()</text>
<polygon fill="#666666" stroke="#666666" points="143.5,-550 143.5,-550 258.5,-550 258.5,-550 143.5,-550"/>
<polygon fill="#666666" stroke="#666666" points="143.5,-535 143.5,-535 258.5,-535 258.5,-535 143.5,-535"/>
<polygon fill="none" stroke="#666666" points="143,-293 143,-567 258,-567 258,-293 143,-293"/>
</a>
</g>
</g>
<!-- Node2 -->
<g id="Node000002" class="node">
<title>Node2</title>
<g id="a_Node000002"><a xlink:href="../../d4/d23/classDoublyLinkable.html" target="_top" xlink:title=" ">
<polygon fill="white" stroke="transparent" points="185,-152 0,-152 0,-73 185,-73 185,-152"/>
<text text-anchor="start" x="5.5" y="-139.5" font-family="Helvetica,sans-Serif" font-size="10.00">DoublyLinkable&lt; DisplayElement &gt;</text>
<text text-anchor="start" x="91" y="-124.5" font-family="Helvetica,sans-Serif" font-size="10.00"> </text>
<text text-anchor="start" x="22.5" y="-109.5" font-family="Helvetica,sans-Serif" font-size="10.00">#</text>
<text text-anchor="start" x="53.5" y="-109.5" font-family="Helvetica,sans-Serif" font-size="10.00">~DoublyLinkable()</text>
<text text-anchor="start" x="22.5" y="-94.5" font-family="Helvetica,sans-Serif" font-size="10.00">#</text>
<text text-anchor="start" x="53.5" y="-94.5" font-family="Helvetica,sans-Serif" font-size="10.00">DoublyLinkable()</text>
<text text-anchor="start" x="22.5" y="-79.5" font-family="Helvetica,sans-Serif" font-size="10.00">#</text>
<text text-anchor="start" x="53.5" y="-79.5" font-family="Helvetica,sans-Serif" font-size="10.00">operator=()</text>
<polygon fill="#666666" stroke="#666666" points="0.5,-134.5 0.5,-134.5 185.5,-134.5 185.5,-134.5 0.5,-134.5"/>
<polygon fill="#666666" stroke="#666666" points="0.5,-119.5 0.5,-119.5 185.5,-119.5 185.5,-119.5 0.5,-119.5"/>
<polygon fill="none" stroke="#666666" points="0,-73 0,-152 185,-152 185,-73 0,-73"/>
</a>
</g>
</g>
<!-- Node1&#45;&gt;Node2 -->
<g id="edge2_Node000002_Node000001" class="edge">
<title>Node1&#45;&gt;Node2</title>
<g id="a_edge2_Node000002_Node000001"><a xlink:title=" ">
<path fill="none" stroke="#63b8ff" d="M142.86,-352.72C127.79,-328.99 113.31,-301.95 104.5,-275 92.82,-239.26 90.07,-196.78 90.11,-164.36"/>
<polygon fill="none" stroke="#63b8ff" points="90.11,-164.02 86.18,-157.97 90.25,-152.02 94.18,-158.07 90.11,-164.02"/>
</a>
</g>
<text text-anchor="start" x="108" y="-264" font-family="Helvetica,sans-Serif" font-size="10.00" fill="grey">#next</text>
<text text-anchor="start" x="108" y="-249" font-family="Helvetica,sans-Serif" font-size="10.00" fill="grey">#previous</text>
</g>
<!-- Node5 -->
<g id="Node000005" class="node">
<title>Node5</title>
<g id="a_Node000005"><a xlink:href="../../dd/d16/classDoublyLinkedList.html" target="_top" xlink:title=" ">
<polygon fill="white" stroke="transparent" points="345.5,-225 203.5,-225 203.5,0 345.5,0 345.5,-225"/>
<text text-anchor="start" x="208.5" y="-212.5" font-family="Helvetica,sans-Serif" font-size="10.00">DoublyLinkedList&lt; Display</text>
<text text-anchor="start" x="248.5" y="-201.5" font-family="Helvetica,sans-Serif" font-size="10.00">Element &gt;</text>
<text text-anchor="start" x="272.5" y="-186.5" font-family="Helvetica,sans-Serif" font-size="10.00"> </text>
<text text-anchor="start" x="219.5" y="-171.5" font-family="Helvetica,sans-Serif" font-size="10.00">+</text>
<text text-anchor="start" x="244.5" y="-171.5" font-family="Helvetica,sans-Serif" font-size="10.00">append()</text>
<text text-anchor="start" x="219.5" y="-156.5" font-family="Helvetica,sans-Serif" font-size="10.00">+</text>
<text text-anchor="start" x="244.5" y="-156.5" font-family="Helvetica,sans-Serif" font-size="10.00">insertBefore()</text>
<text text-anchor="start" x="219.5" y="-141.5" font-family="Helvetica,sans-Serif" font-size="10.00">+</text>
<text text-anchor="start" x="244.5" y="-141.5" font-family="Helvetica,sans-Serif" font-size="10.00">insertSorted()</text>
<text text-anchor="start" x="219.5" y="-126.5" font-family="Helvetica,sans-Serif" font-size="10.00">+</text>
<text text-anchor="start" x="244.5" y="-126.5" font-family="Helvetica,sans-Serif" font-size="10.00">remove()</text>
<text text-anchor="start" x="219.5" y="-111.5" font-family="Helvetica,sans-Serif" font-size="10.00">+</text>
<text text-anchor="start" x="244.5" y="-111.5" font-family="Helvetica,sans-Serif" font-size="10.00">moveDown()</text>
<text text-anchor="start" x="219.5" y="-96.5" font-family="Helvetica,sans-Serif" font-size="10.00">+</text>
<text text-anchor="start" x="244.5" y="-96.5" font-family="Helvetica,sans-Serif" font-size="10.00">couldContain()</text>
<text text-anchor="start" x="219.5" y="-81.5" font-family="Helvetica,sans-Serif" font-size="10.00">+</text>
<text text-anchor="start" x="244.5" y="-81.5" font-family="Helvetica,sans-Serif" font-size="10.00">begin()</text>
<text text-anchor="start" x="219.5" y="-66.5" font-family="Helvetica,sans-Serif" font-size="10.00">+</text>
<text text-anchor="start" x="244.5" y="-66.5" font-family="Helvetica,sans-Serif" font-size="10.00">end()</text>
<text text-anchor="start" x="219.5" y="-51.5" font-family="Helvetica,sans-Serif" font-size="10.00">+</text>
<text text-anchor="start" x="244.5" y="-51.5" font-family="Helvetica,sans-Serif" font-size="10.00">rbegin()</text>
<text text-anchor="start" x="219.5" y="-36.5" font-family="Helvetica,sans-Serif" font-size="10.00">+</text>
<text text-anchor="start" x="244.5" y="-36.5" font-family="Helvetica,sans-Serif" font-size="10.00">rend()</text>
<text text-anchor="start" x="219.5" y="-21.5" font-family="Helvetica,sans-Serif" font-size="10.00">+</text>
<text text-anchor="start" x="244.5" y="-21.5" font-family="Helvetica,sans-Serif" font-size="10.00">getFirst()</text>
<text text-anchor="start" x="219.5" y="-6.5" font-family="Helvetica,sans-Serif" font-size="10.00">+</text>
<text text-anchor="start" x="244.5" y="-6.5" font-family="Helvetica,sans-Serif" font-size="10.00">getLast()</text>
<polygon fill="#666666" stroke="#666666" points="203.5,-196.5 203.5,-196.5 345.5,-196.5 345.5,-196.5 203.5,-196.5"/>
<polygon fill="#666666" stroke="#666666" points="203.5,-181.5 203.5,-181.5 345.5,-181.5 345.5,-181.5 203.5,-181.5"/>
<polygon fill="none" stroke="#666666" points="203.5,0 203.5,-225 345.5,-225 345.5,0 203.5,0"/>
</a>
</g>
</g>
<!-- Node1&#45;&gt;Node5 -->
<g id="edge6_Node000005_Node000001" class="edge">
<title>Node1&#45;&gt;Node5</title>
<g id="a_edge6_Node000005_Node000001"><a xlink:title=" ">
<path fill="none" stroke="#63b8ff" d="M207.86,-292.51C210.26,-275.69 213.4,-258.85 217.5,-243 218.05,-240.86 218.64,-238.72 219.25,-236.56"/>
<polygon fill="none" stroke="#63b8ff" points="219.27,-236.49 217.2,-229.58 222.78,-225.01 224.85,-231.92 219.27,-236.49"/>
</a>
</g>
<text text-anchor="start" x="221" y="-264" font-family="Helvetica,sans-Serif" font-size="10.00" fill="grey">&#45;first</text>
<text text-anchor="start" x="221" y="-249" font-family="Helvetica,sans-Serif" font-size="10.00" fill="grey">&#45;last</text>
</g>
<!-- Node2&#45;&gt;Node1 -->
<g id="edge1_Node000001_Node000002" class="edge">
<title>Node2&#45;&gt;Node1</title>
<g id="a_edge1_Node000001_Node000002"><a xlink:title=" ">
<path fill="none" stroke="#63b8ff" d="M124.2,-160.92C138.76,-184.67 155.07,-214.4 165.5,-243 171.3,-258.9 176.18,-275.93 180.28,-292.99"/>
<polygon fill="none" stroke="#63b8ff" points="126.98,-158.76 118.72,-152.12 121.04,-162.46 126.98,-158.76"/>
</a>
</g>
</g>
<!-- Node3 -->
<g id="Node000003" class="node">
<title>Node3</title>
<g id="a_Node000003"><a xlink:href="../../df/d42/classDisplayInterface.html" target="_top" xlink:title="An interface for displays.">
<polygon fill="white" stroke="transparent" points="278,-939 123,-939 123,-620 278,-620 278,-939"/>
<text text-anchor="start" x="160.5" y="-926.5" font-family="Helvetica,sans-Serif" font-size="10.00">DisplayInterface</text>
<text text-anchor="start" x="199" y="-911.5" font-family="Helvetica,sans-Serif" font-size="10.00"> </text>
<text text-anchor="start" x="127.5" y="-896.5" font-family="Helvetica,sans-Serif" font-size="10.00">+</text>
<text text-anchor="start" x="140.5" y="-896.5" font-family="Helvetica,sans-Serif" font-size="10.00">~DisplayInterface()</text>
<text text-anchor="start" x="127.5" y="-881.5" font-family="Helvetica,sans-Serif" font-size="10.00">+</text>
<text text-anchor="start" x="140.5" y="-881.5" font-family="Helvetica,sans-Serif" font-size="10.00">begin()</text>
<text text-anchor="start" x="127.5" y="-866.5" font-family="Helvetica,sans-Serif" font-size="10.00">+</text>
<text text-anchor="start" x="140.5" y="-866.5" font-family="Helvetica,sans-Serif" font-size="10.00">clear()</text>
<text text-anchor="start" x="127.5" y="-851.5" font-family="Helvetica,sans-Serif" font-size="10.00">+</text>
<text text-anchor="start" x="140.5" y="-851.5" font-family="Helvetica,sans-Serif" font-size="10.00">drawBackground()</text>
<text text-anchor="start" x="127.5" y="-836.5" font-family="Helvetica,sans-Serif" font-size="10.00">+</text>
<text text-anchor="start" x="140.5" y="-836.5" font-family="Helvetica,sans-Serif" font-size="10.00">display()</text>
<text text-anchor="start" x="127.5" y="-821.5" font-family="Helvetica,sans-Serif" font-size="10.00">+</text>
<text text-anchor="start" x="140.5" y="-821.5" font-family="Helvetica,sans-Serif" font-size="10.00">drawPixel()</text>
<text text-anchor="start" x="127.5" y="-806.5" font-family="Helvetica,sans-Serif" font-size="10.00">+</text>
<text text-anchor="start" x="140.5" y="-806.5" font-family="Helvetica,sans-Serif" font-size="10.00">setTextColor()</text>
<text text-anchor="start" x="127.5" y="-791.5" font-family="Helvetica,sans-Serif" font-size="10.00">+</text>
<text text-anchor="start" x="140.5" y="-791.5" font-family="Helvetica,sans-Serif" font-size="10.00">setTextSize()</text>
<text text-anchor="start" x="127.5" y="-776.5" font-family="Helvetica,sans-Serif" font-size="10.00">+</text>
<text text-anchor="start" x="140.5" y="-776.5" font-family="Helvetica,sans-Serif" font-size="10.00">setCursor()</text>
<text text-anchor="start" x="127.5" y="-761.5" font-family="Helvetica,sans-Serif" font-size="10.00">+</text>
<text text-anchor="start" x="140.5" y="-761.5" font-family="Helvetica,sans-Serif" font-size="10.00">write()</text>
<text text-anchor="start" x="127.5" y="-746.5" font-family="Helvetica,sans-Serif" font-size="10.00">+</text>
<text text-anchor="start" x="140.5" y="-746.5" font-family="Helvetica,sans-Serif" font-size="10.00">drawLine()</text>
<text text-anchor="start" x="127.5" y="-731.5" font-family="Helvetica,sans-Serif" font-size="10.00">+</text>
<text text-anchor="start" x="140.5" y="-731.5" font-family="Helvetica,sans-Serif" font-size="10.00">drawFastVLine()</text>
<text text-anchor="start" x="127.5" y="-716.5" font-family="Helvetica,sans-Serif" font-size="10.00">+</text>
<text text-anchor="start" x="140.5" y="-716.5" font-family="Helvetica,sans-Serif" font-size="10.00">drawFastHLine()</text>
<text text-anchor="start" x="127.5" y="-701.5" font-family="Helvetica,sans-Serif" font-size="10.00">+</text>
<text text-anchor="start" x="140.5" y="-701.5" font-family="Helvetica,sans-Serif" font-size="10.00">drawXBitmap()</text>
<text text-anchor="start" x="127.5" y="-686.5" font-family="Helvetica,sans-Serif" font-size="10.00">+</text>
<text text-anchor="start" x="140.5" y="-686.5" font-family="Helvetica,sans-Serif" font-size="10.00">fillRect()</text>
<text text-anchor="start" x="127.5" y="-671.5" font-family="Helvetica,sans-Serif" font-size="10.00">+</text>
<text text-anchor="start" x="140.5" y="-671.5" font-family="Helvetica,sans-Serif" font-size="10.00">drawCircle()</text>
<text text-anchor="start" x="127.5" y="-656.5" font-family="Helvetica,sans-Serif" font-size="10.00">+</text>
<text text-anchor="start" x="140.5" y="-656.5" font-family="Helvetica,sans-Serif" font-size="10.00">fillCircle()</text>
<text text-anchor="start" x="127.5" y="-641.5" font-family="Helvetica,sans-Serif" font-size="10.00">+</text>
<text text-anchor="start" x="140.5" y="-641.5" font-family="Helvetica,sans-Serif" font-size="10.00">clearAndDrawBackground()</text>
<text text-anchor="start" x="127.5" y="-626.5" font-family="Helvetica,sans-Serif" font-size="10.00">#</text>
<text text-anchor="start" x="140.5" y="-626.5" font-family="Helvetica,sans-Serif" font-size="10.00">DisplayInterface()</text>
<polygon fill="#666666" stroke="#666666" points="123.5,-921.5 123.5,-921.5 278.5,-921.5 278.5,-921.5 123.5,-921.5"/>
<polygon fill="#666666" stroke="#666666" points="123.5,-906.5 123.5,-906.5 278.5,-906.5 278.5,-906.5 123.5,-906.5"/>
<polygon fill="none" stroke="#666666" points="123,-620 123,-939 278,-939 278,-620 123,-620"/>
</a>
</g>
</g>
<!-- Node3&#45;&gt;Node1 -->
<g id="edge3_Node000001_Node000003" class="edge">
<title>Node3&#45;&gt;Node1</title>
<g id="a_edge3_Node000001_Node000003"><a xlink:title=" ">
<path fill="none" stroke="#63b8ff" d="M200.5,-619.75C200.5,-606.26 200.5,-592.65 200.5,-579.25"/>
<polygon fill="none" stroke="#63b8ff" points="200.5,-579.01 196.5,-573.01 200.5,-567.01 204.5,-573.01 200.5,-579.01"/>
</a>
</g>
<text text-anchor="start" x="203.5" y="-590.5" font-family="Helvetica,sans-Serif" font-size="10.00" fill="grey">#display</text>
</g>
<!-- Node4 -->
<g id="Node000004" class="node">
<title>Node4</title>
<g id="a_Node000004"><a xlink:title=" ">
<polygon fill="white" stroke="transparent" points="217,-1025 184,-1025 184,-976 217,-976 217,-1025"/>
<text text-anchor="start" x="189.5" y="-1012.5" font-family="Helvetica,sans-Serif" font-size="10.00">Print</text>
<text text-anchor="start" x="199" y="-997.5" font-family="Helvetica,sans-Serif" font-size="10.00"> </text>
<text text-anchor="start" x="199" y="-982.5" font-family="Helvetica,sans-Serif" font-size="10.00"> </text>
<polygon fill="#666666" stroke="#666666" points="184.5,-1007.5 184.5,-1007.5 217.5,-1007.5 217.5,-1007.5 184.5,-1007.5"/>
<polygon fill="#666666" stroke="#666666" points="184.5,-992.5 184.5,-992.5 217.5,-992.5 217.5,-992.5 184.5,-992.5"/>
<polygon fill="none" stroke="#666666" points="184,-976 184,-1025 217,-1025 217,-976 184,-976"/>
</a>
</g>
</g>
<!-- Node4&#45;&gt;Node3 -->
<g id="edge4_Node000003_Node000004" class="edge">
<title>Node4&#45;&gt;Node3</title>
<g id="a_edge4_Node000003_Node000004"><a xlink:title=" ">
<path fill="none" stroke="#63b8ff" d="M200.5,-965.59C200.5,-957.73 200.5,-948.85 200.5,-939.34"/>
<polygon fill="none" stroke="#63b8ff" points="197,-965.65 200.5,-975.65 204,-965.65 197,-965.65"/>
</a>
</g>
</g>
<!-- Node5&#45;&gt;Node1 -->
<g id="edge5_Node000001_Node000005" class="edge">
<title>Node5&#45;&gt;Node1</title>
<g id="a_edge5_Node000001_Node000005"><a xlink:title=" ">
<path fill="none" stroke="#63b8ff" d="M260.39,-225.16C257.55,-241.95 254.26,-258.99 250.5,-275 250.02,-277.02 249.54,-279.06 249.03,-281.1"/>
<polygon fill="none" stroke="#63b8ff" points="248.99,-281.26 251.38,-288.06 246.02,-292.89 243.63,-286.08 248.99,-281.26"/>
</a>
</g>
<text text-anchor="start" x="261" y="-256" font-family="Helvetica,sans-Serif" font-size="10.00" fill="grey">#elements</text>
</g>
</g>
</svg>
