<?xml version="1.0" encoding="UTF-8" standalone="no"?>
<!DOCTYPE svg PUBLIC "-//W3C//DTD SVG 1.1//EN"
 "http://www.w3.org/Graphics/SVG/1.1/DTD/svg11.dtd">
<!-- Generated by graphviz version 2.43.0 (0)
 -->
<!-- Title: MIDIBLEState Pages: 1 -->
<svg width="127pt" height="269pt"
 viewBox="0.00 0.00 127.00 269.00" xmlns="http://www.w3.org/2000/svg" xmlns:xlink="http://www.w3.org/1999/xlink">
<g id="graph0" class="graph" transform="scale(1 1) rotate(0) translate(4 265)">
<title>MIDIBLEState</title>
<!-- Node1 -->
<g id="Node000001" class="node">
<title>Node1</title>
<g id="a_Node000001"><a xlink:title=" ">
<polygon fill="#999999" stroke="transparent" points="117,-90 2,-90 2,0 117,0 117,-90"/>
<text text-anchor="start" x="26.5" y="-78" font-family="Helvetica,sans-Serif" font-size="10.00">MIDIBLEState</text>
<text text-anchor="start" x="6.5" y="-63" font-family="Helvetica,sans-Serif" font-size="10.00">+</text>
<text text-anchor="start" x="19.5" y="-63" font-family="Helvetica,sans-Serif" font-size="10.00">midi_characteristic</text>
<text text-anchor="start" x="19.5" y="-52" font-family="Helvetica,sans-Serif" font-size="10.00">_handle</text>
<text text-anchor="start" x="6.5" y="-37" font-family="Helvetica,sans-Serif" font-size="10.00">+</text>
<text text-anchor="start" x="19.5" y="-37" font-family="Helvetica,sans-Serif" font-size="10.00">address_type</text>
<text text-anchor="start" x="6.5" y="-22" font-family="Helvetica,sans-Serif" font-size="10.00">+</text>
<text text-anchor="start" x="19.5" y="-22" font-family="Helvetica,sans-Serif" font-size="10.00">invalid_handle</text>
<text text-anchor="start" x="58" y="-7" font-family="Helvetica,sans-Serif" font-size="10.00"> </text>
<polygon fill="#666666" stroke="#666666" points="2.5,-73 2.5,-73 117.5,-73 117.5,-73 2.5,-73"/>
<polygon fill="#666666" stroke="#666666" points="2.5,-17 2.5,-17 17.5,-17 17.5,-17 2.5,-17"/>
<polygon fill="#666666" stroke="#666666" points="17.5,-17 17.5,-17 117.5,-17 117.5,-17 17.5,-17"/>
<polygon fill="none" stroke="#666666" points="2,0 2,-90 117,-90 117,0 2,0"/>
</a>
</g>
</g>
<!-- Node2 -->
<g id="Node000002" class="node">
<title>Node2</title>
<g id="a_Node000002"><a xlink:href="../../dd/da4/classMIDIBLEInstance.html" target="_top" xlink:title="Defines the interface for callback functions registered by the low&#45;level BLE code.">
<polygon fill="white" stroke="transparent" points="119,-261 0,-261 0,-137 119,-137 119,-261"/>
<text text-anchor="start" x="19" y="-249" font-family="Helvetica,sans-Serif" font-size="10.00">MIDIBLEInstance</text>
<text text-anchor="start" x="58" y="-234" font-family="Helvetica,sans-Serif" font-size="10.00"> </text>
<text text-anchor="start" x="4.5" y="-219" font-family="Helvetica,sans-Serif" font-size="10.00">+</text>
<text text-anchor="start" x="17.5" y="-219" font-family="Helvetica,sans-Serif" font-size="10.00">~MIDIBLEInstance()</text>
<text text-anchor="start" x="4.5" y="-204" font-family="Helvetica,sans-Serif" font-size="10.00">+</text>
<text text-anchor="start" x="17.5" y="-204" font-family="Helvetica,sans-Serif" font-size="10.00">handleConnect()</text>
<text text-anchor="start" x="4.5" y="-189" font-family="Helvetica,sans-Serif" font-size="10.00">+</text>
<text text-anchor="start" x="17.5" y="-189" font-family="Helvetica,sans-Serif" font-size="10.00">handleDisconnect()</text>
<text text-anchor="start" x="4.5" y="-174" font-family="Helvetica,sans-Serif" font-size="10.00">+</text>
<text text-anchor="start" x="17.5" y="-174" font-family="Helvetica,sans-Serif" font-size="10.00">handleMTU()</text>
<text text-anchor="start" x="4.5" y="-159" font-family="Helvetica,sans-Serif" font-size="10.00">+</text>
<text text-anchor="start" x="17.5" y="-159" font-family="Helvetica,sans-Serif" font-size="10.00">handleSubscribe()</text>
<text text-anchor="start" x="4.5" y="-144" font-family="Helvetica,sans-Serif" font-size="10.00">+</text>
<text text-anchor="start" x="17.5" y="-144" font-family="Helvetica,sans-Serif" font-size="10.00">handleData()</text>
<polygon fill="#666666" stroke="#666666" points="0.5,-244 0.5,-244 119.5,-244 119.5,-244 0.5,-244"/>
<polygon fill="#666666" stroke="#666666" points="0.5,-229 0.5,-229 119.5,-229 119.5,-229 0.5,-229"/>
<polygon fill="none" stroke="#666666" points="0,-137 0,-261 119,-261 119,-137 0,-137"/>
</a>
</g>
</g>
<!-- Node2&#45;&gt;Node1 -->
<g id="edge1_Node000001_Node000002" class="edge">
<title>Node2&#45;&gt;Node1</title>
<g id="a_edge1_Node000001_Node000002"><a xlink:title=" ">
<path fill="none" stroke="#63b8ff" d="M59.5,-136.61C59.5,-125.36 59.5,-113.66 59.5,-102.56"/>
<polygon fill="none" stroke="#63b8ff" points="59.5,-102.33 55.5,-96.33 59.5,-90.33 63.5,-96.33 59.5,-102.33"/>
</a>
</g>
<text text-anchor="middle" x="86" y="-111" font-family="Helvetica,sans-Serif" font-size="10.00" fill="grey"> +instance</text>
</g>
</g>
</svg>
