<?xml version="1.0" encoding="UTF-8" standalone="no"?>
<!DOCTYPE svg PUBLIC "-//W3C//DTD SVG 1.1//EN"
 "http://www.w3.org/Graphics/SVG/1.1/DTD/svg11.dtd">
<!-- Generated by graphviz version 2.38.0 (20140413.2041)
 -->
<!-- Title: ExtendedInputOutput.hpp Pages: 1 -->
<svg width="1516pt" height="308pt"
 viewBox="0.00 0.00 1516.00 308.00" xmlns="http://www.w3.org/2000/svg" xmlns:xlink="http://www.w3.org/1999/xlink">
<g id="graph0" class="graph" transform="scale(1 1) rotate(0) translate(4 304)">
<title>ExtendedInputOutput.hpp</title>
<polygon fill="white" stroke="none" points="-4,4 -4,-304 1512,-304 1512,4 -4,4"/>
<!-- Node1 -->
<g id="node1" class="node"><title>Node1</title>
<g id="a_node1"><a xlink:title=" ">
<polygon fill="#bfbfbf" stroke="black" points="865,-280.5 865,-299.5 993,-299.5 993,-280.5 865,-280.5"/>
<text text-anchor="middle" x="929" y="-287.5" font-family="Helvetica,sans-Serif" font-size="10.00">ExtendedInputOutput.hpp</text>
</a>
</g>
</g>
<!-- Node2 -->
<g id="node2" class="node"><title>Node2</title>
<g id="a_node2"><a xlink:href="../../d4/db3/Button_8hpp.html" target="_top" xlink:title=" ">
<polygon fill="white" stroke="black" points="180,-224.5 180,-243.5 244,-243.5 244,-224.5 180,-224.5"/>
<text text-anchor="middle" x="212" y="-231.5" font-family="Helvetica,sans-Serif" font-size="10.00">Button.hpp</text>
</a>
</g>
</g>
<!-- Node1&#45;&gt;Node2 -->
<g id="edge1" class="edge"><title>Node1&#45;&gt;Node2</title>
<path fill="none" stroke="midnightblue" d="M854.428,-283.384C700.29,-271.775 352.007,-245.544 244.334,-237.435"/>
<polygon fill="midnightblue" stroke="midnightblue" points="854.505,-286.899 864.74,-284.16 855.031,-279.919 854.505,-286.899"/>
</g>
<!-- Node8 -->
<g id="node8" class="node"><title>Node8</title>
<g id="a_node8"><a xlink:href="../../d5/d41/ButtonMatrix_8ipp.html" target="_top" xlink:title=" ">
<polygon fill="white" stroke="black" points="388,-224.5 388,-243.5 476,-243.5 476,-224.5 388,-224.5"/>
<text text-anchor="middle" x="432" y="-231.5" font-family="Helvetica,sans-Serif" font-size="10.00">ButtonMatrix.ipp</text>
</a>
</g>
</g>
<!-- Node1&#45;&gt;Node8 -->
<g id="edge7" class="edge"><title>Node1&#45;&gt;Node8</title>
<path fill="none" stroke="midnightblue" d="M854.798,-282.414C767.763,-274.444 619.192,-260.079 492,-244 486.879,-243.353 481.521,-242.623 476.203,-241.867"/>
<polygon fill="midnightblue" stroke="midnightblue" points="854.565,-285.907 864.842,-283.33 855.201,-278.936 854.565,-285.907"/>
</g>
<!-- Node10 -->
<g id="node10" class="node"><title>Node10</title>
<g id="a_node10"><a xlink:href="../../d7/def/AnalogMultiplex_8hpp.html" target="_top" xlink:title=" ">
<polygon fill="white" stroke="black" points="731,-112.5 731,-131.5 835,-131.5 835,-112.5 731,-112.5"/>
<text text-anchor="middle" x="783" y="-119.5" font-family="Helvetica,sans-Serif" font-size="10.00">AnalogMultiplex.hpp</text>
</a>
</g>
</g>
<!-- Node1&#45;&gt;Node10 -->
<g id="edge10" class="edge"><title>Node1&#45;&gt;Node10</title>
<path fill="none" stroke="midnightblue" d="M866.305,-278.706C780.279,-263.156 632.662,-230.879 601,-188 595.72,-180.849 595.521,-174.999 601,-168 609.402,-157.268 684.724,-141.315 735.798,-131.568"/>
<polygon fill="midnightblue" stroke="midnightblue" points="865.764,-282.164 876.223,-280.474 866.992,-275.273 865.764,-282.164"/>
</g>
<!-- Node11 -->
<g id="node11" class="node"><title>Node11</title>
<g id="a_node11"><a xlink:href="../../d4/d57/ExtendedIOElement_8hpp.html" target="_top" xlink:title=" ">
<polygon fill="white" stroke="black" points="809.5,-224.5 809.5,-243.5 932.5,-243.5 932.5,-224.5 809.5,-224.5"/>
<text text-anchor="middle" x="871" y="-231.5" font-family="Helvetica,sans-Serif" font-size="10.00">ExtendedIOElement.hpp</text>
</a>
</g>
</g>
<!-- Node1&#45;&gt;Node11 -->
<g id="edge11" class="edge"><title>Node1&#45;&gt;Node11</title>
<path fill="none" stroke="midnightblue" d="M912.087,-273.253C901.797,-263.673 889.034,-251.791 880.488,-243.834"/>
<polygon fill="midnightblue" stroke="midnightblue" points="909.977,-276.071 919.681,-280.324 914.747,-270.948 909.977,-276.071"/>
</g>
<!-- Node14 -->
<g id="node14" class="node"><title>Node14</title>
<g id="a_node14"><a xlink:href="../../d8/d93/ShiftRegisterOutBase_8hpp.html" target="_top" xlink:title=" ">
<polygon fill="white" stroke="black" points="581.5,-112.5 581.5,-131.5 712.5,-131.5 712.5,-112.5 581.5,-112.5"/>
<text text-anchor="middle" x="647" y="-119.5" font-family="Helvetica,sans-Serif" font-size="10.00">ShiftRegisterOutBase.hpp</text>
</a>
</g>
</g>
<!-- Node1&#45;&gt;Node14 -->
<g id="edge27" class="edge"><title>Node1&#45;&gt;Node14</title>
<path fill="none" stroke="midnightblue" d="M854.644,-288.271C797.241,-285.07 717.211,-274.725 654,-244 620.9,-227.911 607.807,-221.693 593,-188 582.73,-164.63 611.367,-143 630.767,-131.541"/>
<polygon fill="midnightblue" stroke="midnightblue" points="854.569,-291.771 864.73,-288.773 854.917,-284.78 854.569,-291.771"/>
</g>
<!-- Node16 -->
<g id="node16" class="node"><title>Node16</title>
<g id="a_node16"><a xlink:href="../../de/d95/ShiftRegisterOut_8ipp.html" target="_top" xlink:title=" ">
<polygon fill="white" stroke="black" points="535.5,-0.5 535.5,-19.5 640.5,-19.5 640.5,-0.5 535.5,-0.5"/>
<text text-anchor="middle" x="588" y="-7.5" font-family="Helvetica,sans-Serif" font-size="10.00">ShiftRegisterOut.ipp</text>
</a>
</g>
</g>
<!-- Node1&#45;&gt;Node16 -->
<g id="edge29" class="edge"><title>Node1&#45;&gt;Node16</title>
<path fill="none" stroke="midnightblue" d="M854.416,-284.872C732.998,-276.088 506,-250.15 506,-179 506,-179 506,-179 506,-121 506,-90.9022 507.574,-80.5402 525,-56 536.517,-39.7804 555.774,-27.2744 569.972,-19.6092"/>
<polygon fill="midnightblue" stroke="midnightblue" points="854.535,-288.389 864.755,-285.597 855.025,-281.406 854.535,-288.389"/>
</g>
<!-- Node17 -->
<g id="node17" class="node"><title>Node17</title>
<g id="a_node17"><a xlink:href="../../d5/d47/ShiftRegisterOutBase_8ipp.html" target="_top" xlink:title=" ">
<polygon fill="white" stroke="black" points="804,-56.5 804,-75.5 932,-75.5 932,-56.5 804,-56.5"/>
<text text-anchor="middle" x="868" y="-63.5" font-family="Helvetica,sans-Serif" font-size="10.00">ShiftRegisterOutBase.ipp</text>
</a>
</g>
</g>
<!-- Node1&#45;&gt;Node17 -->
<g id="edge28" class="edge"><title>Node1&#45;&gt;Node17</title>
<path fill="none" stroke="midnightblue" d="M1001.96,-278.971C1123.37,-260.709 1349.76,-219.152 1309,-168 1262.62,-109.798 1043.26,-82.4196 932.425,-72.123"/>
<polygon fill="midnightblue" stroke="midnightblue" points="1001.35,-275.522 991.977,-280.455 1002.38,-282.446 1001.35,-275.522"/>
</g>
<!-- Node19 -->
<g id="node19" class="node"><title>Node19</title>
<g id="a_node19"><a xlink:href="../../da/d45/SPIShiftRegisterOut_8ipp.html" target="_top" xlink:title=" ">
<polygon fill="white" stroke="black" points="662,-0.5 662,-19.5 784,-19.5 784,-0.5 662,-0.5"/>
<text text-anchor="middle" x="723" y="-7.5" font-family="Helvetica,sans-Serif" font-size="10.00">SPIShiftRegisterOut.ipp</text>
</a>
</g>
</g>
<!-- Node1&#45;&gt;Node19 -->
<g id="edge30" class="edge"><title>Node1&#45;&gt;Node19</title>
<path fill="none" stroke="midnightblue" d="M1003.25,-286.765C1143.01,-281.992 1434.62,-269.132 1473,-244 1500.45,-226.027 1508,-211.811 1508,-179 1508,-179 1508,-179 1508,-121 1508,-48.0204 969.019,-20.4585 784.271,-13.1547"/>
<polygon fill="midnightblue" stroke="midnightblue" points="1002.93,-283.274 993.05,-287.108 1003.16,-290.27 1002.93,-283.274"/>
</g>
<!-- Node20 -->
<g id="node20" class="node"><title>Node20</title>
<g id="a_node20"><a xlink:href="../../d6/d3c/ExtendedInputOutput_8cpp.html" target="_top" xlink:title=" ">
<polygon fill="white" stroke="black" points="938,-168.5 938,-187.5 1066,-187.5 1066,-168.5 938,-168.5"/>
<text text-anchor="middle" x="1002" y="-175.5" font-family="Helvetica,sans-Serif" font-size="10.00">ExtendedInputOutput.cpp</text>
</a>
</g>
</g>
<!-- Node1&#45;&gt;Node20 -->
<g id="edge26" class="edge"><title>Node1&#45;&gt;Node20</title>
<path fill="none" stroke="midnightblue" d="M940.31,-271.957C956.131,-248.118 984.275,-205.709 996.298,-187.591"/>
<polygon fill="midnightblue" stroke="midnightblue" points="937.341,-270.101 934.728,-280.368 943.174,-273.972 937.341,-270.101"/>
</g>
<!-- Node22 -->
<g id="node22" class="node"><title>Node22</title>
<g id="a_node22"><a xlink:href="../../d8/df3/FilteredAnalog_8hpp.html" target="_top" xlink:title=" ">
<polygon fill="white" stroke="black" points="1288,-224.5 1288,-243.5 1386,-243.5 1386,-224.5 1288,-224.5"/>
<text text-anchor="middle" x="1337" y="-231.5" font-family="Helvetica,sans-Serif" font-size="10.00">FilteredAnalog.hpp</text>
</a>
</g>
</g>
<!-- Node1&#45;&gt;Node22 -->
<g id="edge31" class="edge"><title>Node1&#45;&gt;Node22</title>
<path fill="none" stroke="midnightblue" d="M1003.28,-279.577C1073.18,-270.647 1180.74,-256.744 1274,-244 1278.49,-243.387 1283.15,-242.739 1287.83,-242.084"/>
<polygon fill="midnightblue" stroke="midnightblue" points="1002.73,-276.119 993.252,-280.857 1003.61,-283.063 1002.73,-276.119"/>
</g>
<!-- Node23 -->
<g id="node23" class="node"><title>Node23</title>
<g id="a_node23"><a xlink:href="../../d9/d4f/LEDs_8hpp.html" target="_top" xlink:title=" ">
<polygon fill="white" stroke="black" points="1404,-224.5 1404,-243.5 1464,-243.5 1464,-224.5 1404,-224.5"/>
<text text-anchor="middle" x="1434" y="-231.5" font-family="Helvetica,sans-Serif" font-size="10.00">LEDs.hpp</text>
</a>
</g>
</g>
<!-- Node1&#45;&gt;Node23 -->
<g id="edge32" class="edge"><title>Node1&#45;&gt;Node23</title>
<path fill="none" stroke="midnightblue" d="M1003.11,-284.838C1095.36,-278.97 1257.56,-266.396 1395,-244 1397.88,-243.531 1400.87,-242.973 1403.84,-242.369"/>
<polygon fill="midnightblue" stroke="midnightblue" points="1002.79,-281.351 993.032,-285.47 1003.23,-288.337 1002.79,-281.351"/>
</g>
<!-- Node25 -->
<g id="node25" class="node"><title>Node25</title>
<g id="a_node25"><a xlink:href="../../d7/d13/MAX7219__Base_8hpp.html" target="_top" xlink:title=" ">
<polygon fill="white" stroke="black" points="1041,-224.5 1041,-243.5 1147,-243.5 1147,-224.5 1041,-224.5"/>
<text text-anchor="middle" x="1094" y="-231.5" font-family="Helvetica,sans-Serif" font-size="10.00">MAX7219_Base.hpp</text>
</a>
</g>
</g>
<!-- Node1&#45;&gt;Node25 -->
<g id="edge34" class="edge"><title>Node1&#45;&gt;Node25</title>
<path fill="none" stroke="midnightblue" d="M964.736,-277.304C995.827,-267.129 1040.15,-252.625 1067.98,-243.516"/>
<polygon fill="midnightblue" stroke="midnightblue" points="963.56,-274.007 955.145,-280.444 965.737,-280.659 963.56,-274.007"/>
</g>
<!-- Node3 -->
<g id="node3" class="node"><title>Node3</title>
<g id="a_node3"><a xlink:href="../../de/dd1/Button_8cpp.html" target="_top" xlink:title=" ">
<polygon fill="white" stroke="black" points="0,-168.5 0,-187.5 64,-187.5 64,-168.5 0,-168.5"/>
<text text-anchor="middle" x="32" y="-175.5" font-family="Helvetica,sans-Serif" font-size="10.00">Button.cpp</text>
</a>
</g>
</g>
<!-- Node2&#45;&gt;Node3 -->
<g id="edge2" class="edge"><title>Node2&#45;&gt;Node3</title>
<path fill="none" stroke="midnightblue" d="M173.892,-221.568C139.937,-211.381 91.0115,-196.703 60.3881,-187.516"/>
<polygon fill="midnightblue" stroke="midnightblue" points="172.894,-224.922 183.478,-224.444 174.906,-218.218 172.894,-224.922"/>
</g>
<!-- Node4 -->
<g id="node4" class="node"><title>Node4</title>
<g id="a_node4"><a xlink:href="../../d5/d04/IncrementButton_8hpp.html" target="_top" xlink:title=" ">
<polygon fill="white" stroke="black" points="82.5,-168.5 82.5,-187.5 189.5,-187.5 189.5,-168.5 82.5,-168.5"/>
<text text-anchor="middle" x="136" y="-175.5" font-family="Helvetica,sans-Serif" font-size="10.00">IncrementButton.hpp</text>
</a>
</g>
</g>
<!-- Node2&#45;&gt;Node4 -->
<g id="edge3" class="edge"><title>Node2&#45;&gt;Node4</title>
<path fill="none" stroke="midnightblue" d="M191.424,-218.38C177.688,-208.62 160.075,-196.106 148.433,-187.834"/>
<polygon fill="midnightblue" stroke="midnightblue" points="189.61,-221.385 199.789,-224.324 193.665,-215.679 189.61,-221.385"/>
</g>
<!-- Node6 -->
<g id="node6" class="node"><title>Node6</title>
<g id="a_node6"><a xlink:href="../../df/df5/IncrementDecrementButtons_8hpp.html" target="_top" xlink:title=" ">
<polygon fill="white" stroke="black" points="207.5,-168.5 207.5,-187.5 368.5,-187.5 368.5,-168.5 207.5,-168.5"/>
<text text-anchor="middle" x="288" y="-175.5" font-family="Helvetica,sans-Serif" font-size="10.00">IncrementDecrementButtons.hpp</text>
</a>
</g>
</g>
<!-- Node2&#45;&gt;Node6 -->
<g id="edge5" class="edge"><title>Node2&#45;&gt;Node6</title>
<path fill="none" stroke="midnightblue" d="M232.576,-218.38C246.312,-208.62 263.925,-196.106 275.567,-187.834"/>
<polygon fill="midnightblue" stroke="midnightblue" points="230.335,-215.679 224.211,-224.324 234.39,-221.385 230.335,-215.679"/>
</g>
<!-- Node5 -->
<g id="node5" class="node"><title>Node5</title>
<g id="a_node5"><a xlink:href="../../db/d9d/IncrementButton_8cpp.html" target="_top" xlink:title=" ">
<polygon fill="white" stroke="black" points="82.5,-112.5 82.5,-131.5 189.5,-131.5 189.5,-112.5 82.5,-112.5"/>
<text text-anchor="middle" x="136" y="-119.5" font-family="Helvetica,sans-Serif" font-size="10.00">IncrementButton.cpp</text>
</a>
</g>
</g>
<!-- Node4&#45;&gt;Node5 -->
<g id="edge4" class="edge"><title>Node4&#45;&gt;Node5</title>
<path fill="none" stroke="midnightblue" d="M136,-157.805C136,-148.91 136,-138.78 136,-131.751"/>
<polygon fill="midnightblue" stroke="midnightblue" points="132.5,-158.083 136,-168.083 139.5,-158.083 132.5,-158.083"/>
</g>
<!-- Node7 -->
<g id="node7" class="node"><title>Node7</title>
<g id="a_node7"><a xlink:href="../../da/d66/IncrementDecrementButtons_8cpp.html" target="_top" xlink:title=" ">
<polygon fill="white" stroke="black" points="207.5,-112.5 207.5,-131.5 368.5,-131.5 368.5,-112.5 207.5,-112.5"/>
<text text-anchor="middle" x="288" y="-119.5" font-family="Helvetica,sans-Serif" font-size="10.00">IncrementDecrementButtons.cpp</text>
</a>
</g>
</g>
<!-- Node6&#45;&gt;Node7 -->
<g id="edge6" class="edge"><title>Node6&#45;&gt;Node7</title>
<path fill="none" stroke="midnightblue" d="M288,-157.805C288,-148.91 288,-138.78 288,-131.751"/>
<polygon fill="midnightblue" stroke="midnightblue" points="284.5,-158.083 288,-168.083 291.5,-158.083 284.5,-158.083"/>
</g>
<!-- Node9 -->
<g id="node9" class="node"><title>Node9</title>
<g id="a_node9"><a xlink:href="../../d9/d4b/ButtonMatrix_8hpp.html" target="_top" xlink:title=" ">
<polygon fill="white" stroke="black" points="386.5,-168.5 386.5,-187.5 477.5,-187.5 477.5,-168.5 386.5,-168.5"/>
<text text-anchor="middle" x="432" y="-175.5" font-family="Helvetica,sans-Serif" font-size="10.00">ButtonMatrix.hpp</text>
</a>
</g>
</g>
<!-- Node8&#45;&gt;Node9 -->
<g id="edge8" class="edge"><title>Node8&#45;&gt;Node9</title>
<path fill="none" stroke="midnightblue" d="M425.528,-214.101C424.896,-205.136 425.343,-194.858 426.869,-187.751"/>
<polygon fill="midnightblue" stroke="midnightblue" points="422.066,-214.622 426.834,-224.083 429.007,-213.713 422.066,-214.622"/>
</g>
<!-- Node9&#45;&gt;Node8 -->
<g id="edge9" class="edge"><title>Node9&#45;&gt;Node8</title>
<path fill="none" stroke="midnightblue" d="M438.458,-197.691C439.106,-206.635 438.676,-216.927 437.166,-224.083"/>
<polygon fill="midnightblue" stroke="midnightblue" points="441.923,-197.2 437.131,-187.751 434.985,-198.126 441.923,-197.2"/>
</g>
<!-- Node12 -->
<g id="node12" class="node"><title>Node12</title>
<g id="a_node12"><a xlink:href="../../d2/d05/StaticSizeExtendedIOElement_8hpp.html" target="_top" xlink:title=" ">
<polygon fill="white" stroke="black" points="610,-168.5 610,-187.5 778,-187.5 778,-168.5 610,-168.5"/>
<text text-anchor="middle" x="694" y="-175.5" font-family="Helvetica,sans-Serif" font-size="10.00">StaticSizeExtendedIOElement.hpp</text>
</a>
</g>
</g>
<!-- Node11&#45;&gt;Node12 -->
<g id="edge12" class="edge"><title>Node11&#45;&gt;Node12</title>
<path fill="none" stroke="midnightblue" d="M833.097,-221.436C799.725,-211.255 751.899,-196.664 721.915,-187.516"/>
<polygon fill="midnightblue" stroke="midnightblue" points="832.368,-224.873 842.954,-224.444 834.41,-218.178 832.368,-224.873"/>
</g>
<!-- Node11&#45;&gt;Node20 -->
<g id="edge24" class="edge"><title>Node11&#45;&gt;Node20</title>
<path fill="none" stroke="midnightblue" d="M901.317,-220.503C925.876,-210.38 959.818,-196.388 981.34,-187.516"/>
<polygon fill="midnightblue" stroke="midnightblue" points="899.669,-217.397 891.757,-224.444 902.337,-223.868 899.669,-217.397"/>
</g>
<!-- Node21 -->
<g id="node21" class="node"><title>Node21</title>
<g id="a_node21"><a xlink:href="../../da/d1f/ExtendedIOElement_8cpp.html" target="_top" xlink:title=" ">
<polygon fill="white" stroke="black" points="796.5,-168.5 796.5,-187.5 919.5,-187.5 919.5,-168.5 796.5,-168.5"/>
<text text-anchor="middle" x="858" y="-175.5" font-family="Helvetica,sans-Serif" font-size="10.00">ExtendedIOElement.cpp</text>
</a>
</g>
</g>
<!-- Node11&#45;&gt;Node21 -->
<g id="edge25" class="edge"><title>Node11&#45;&gt;Node21</title>
<path fill="none" stroke="midnightblue" d="M866.45,-214.101C864.292,-205.136 861.818,-194.858 860.107,-187.751"/>
<polygon fill="midnightblue" stroke="midnightblue" points="863.11,-215.18 868.853,-224.083 869.915,-213.542 863.11,-215.18"/>
</g>
<!-- Node12&#45;&gt;Node10 -->
<g id="edge13" class="edge"><title>Node12&#45;&gt;Node10</title>
<path fill="none" stroke="midnightblue" d="M717.238,-162.901C733.558,-152.999 754.865,-140.071 768.736,-131.655"/>
<polygon fill="midnightblue" stroke="midnightblue" points="715.033,-160.144 708.299,-168.324 718.664,-166.129 715.033,-160.144"/>
</g>
<!-- Node13 -->
<g id="node13" class="node"><title>Node13</title>
<g id="a_node13"><a xlink:href="../../d2/d25/MAX7219_8hpp.html" target="_top" xlink:title=" ">
<polygon fill="white" stroke="black" points="954,-112.5 954,-131.5 1032,-131.5 1032,-112.5 954,-112.5"/>
<text text-anchor="middle" x="993" y="-119.5" font-family="Helvetica,sans-Serif" font-size="10.00">MAX7219.hpp</text>
</a>
</g>
</g>
<!-- Node12&#45;&gt;Node13 -->
<g id="edge14" class="edge"><title>Node12&#45;&gt;Node13</title>
<path fill="none" stroke="midnightblue" d="M751.37,-166.639C810.874,-155.892 902.293,-139.382 953.943,-130.054"/>
<polygon fill="midnightblue" stroke="midnightblue" points="750.596,-163.222 741.377,-168.444 751.84,-170.11 750.596,-163.222"/>
</g>
<!-- Node12&#45;&gt;Node14 -->
<g id="edge15" class="edge"><title>Node12&#45;&gt;Node14</title>
<path fill="none" stroke="midnightblue" d="M679.579,-160.431C671.342,-150.967 661.346,-139.483 654.617,-131.751"/>
<polygon fill="midnightblue" stroke="midnightblue" points="677.034,-162.838 686.239,-168.083 682.314,-158.242 677.034,-162.838"/>
</g>
<!-- Node15 -->
<g id="node15" class="node"><title>Node15</title>
<g id="a_node15"><a xlink:href="../../d0/db4/ShiftRegisterOut_8hpp.html" target="_top" xlink:title=" ">
<polygon fill="white" stroke="black" points="534,-56.5 534,-75.5 642,-75.5 642,-56.5 534,-56.5"/>
<text text-anchor="middle" x="588" y="-63.5" font-family="Helvetica,sans-Serif" font-size="10.00">ShiftRegisterOut.hpp</text>
</a>
</g>
</g>
<!-- Node14&#45;&gt;Node15 -->
<g id="edge16" class="edge"><title>Node14&#45;&gt;Node15</title>
<path fill="none" stroke="midnightblue" d="M630.105,-105.537C619.585,-95.9087 606.431,-83.8694 597.652,-75.8339"/>
<polygon fill="midnightblue" stroke="midnightblue" points="627.781,-108.154 637.521,-112.324 632.507,-102.99 627.781,-108.154"/>
</g>
<!-- Node14&#45;&gt;Node17 -->
<g id="edge19" class="edge"><title>Node14&#45;&gt;Node17</title>
<path fill="none" stroke="midnightblue" d="M686.619,-109.959C726.635,-99.7598 787.933,-84.8217 828.066,-75.5164"/>
<polygon fill="midnightblue" stroke="midnightblue" points="685.747,-106.569 676.929,-112.444 687.485,-113.35 685.747,-106.569"/>
</g>
<!-- Node18 -->
<g id="node18" class="node"><title>Node18</title>
<g id="a_node18"><a xlink:href="../../d7/d88/SPIShiftRegisterOut_8hpp.html" target="_top" xlink:title=" ">
<polygon fill="white" stroke="black" points="660.5,-56.5 660.5,-75.5 785.5,-75.5 785.5,-56.5 660.5,-56.5"/>
<text text-anchor="middle" x="723" y="-63.5" font-family="Helvetica,sans-Serif" font-size="10.00">SPIShiftRegisterOut.hpp</text>
</a>
</g>
</g>
<!-- Node14&#45;&gt;Node18 -->
<g id="edge21" class="edge"><title>Node14&#45;&gt;Node18</title>
<path fill="none" stroke="midnightblue" d="M667.576,-106.38C681.312,-96.6204 698.925,-84.1057 710.567,-75.8339"/>
<polygon fill="midnightblue" stroke="midnightblue" points="665.335,-103.679 659.211,-112.324 669.39,-109.385 665.335,-103.679"/>
</g>
<!-- Node15&#45;&gt;Node16 -->
<g id="edge17" class="edge"><title>Node15&#45;&gt;Node16</title>
<path fill="none" stroke="midnightblue" d="M581.528,-46.1005C580.896,-37.1357 581.343,-26.8579 582.869,-19.7511"/>
<polygon fill="midnightblue" stroke="midnightblue" points="578.066,-46.6216 582.834,-56.083 585.007,-45.7134 578.066,-46.6216"/>
</g>
<!-- Node16&#45;&gt;Node15 -->
<g id="edge18" class="edge"><title>Node16&#45;&gt;Node15</title>
<path fill="none" stroke="midnightblue" d="M594.458,-29.6911C595.106,-38.6353 594.676,-48.9272 593.166,-56.083"/>
<polygon fill="midnightblue" stroke="midnightblue" points="597.923,-29.2002 593.131,-19.7511 590.985,-30.1262 597.923,-29.2002"/>
</g>
<!-- Node17&#45;&gt;Node14 -->
<g id="edge20" class="edge"><title>Node17&#45;&gt;Node14</title>
<path fill="none" stroke="midnightblue" d="M828.299,-78.062C788.339,-88.246 727.215,-103.142 687.107,-112.444"/>
<polygon fill="midnightblue" stroke="midnightblue" points="829.409,-81.3908 838.226,-75.5164 827.67,-74.6102 829.409,-81.3908"/>
</g>
<!-- Node18&#45;&gt;Node19 -->
<g id="edge22" class="edge"><title>Node18&#45;&gt;Node19</title>
<path fill="none" stroke="midnightblue" d="M716.528,-46.1005C715.896,-37.1357 716.343,-26.8579 717.869,-19.7511"/>
<polygon fill="midnightblue" stroke="midnightblue" points="713.066,-46.6216 717.834,-56.083 720.007,-45.7134 713.066,-46.6216"/>
</g>
<!-- Node19&#45;&gt;Node18 -->
<g id="edge23" class="edge"><title>Node19&#45;&gt;Node18</title>
<path fill="none" stroke="midnightblue" d="M729.458,-29.6911C730.106,-38.6353 729.676,-48.9272 728.166,-56.083"/>
<polygon fill="midnightblue" stroke="midnightblue" points="732.923,-29.2002 728.131,-19.7511 725.985,-30.1262 732.923,-29.2002"/>
</g>
<!-- Node24 -->
<g id="node24" class="node"><title>Node24</title>
<g id="a_node24"><a xlink:href="../../d6/d3a/DotBarDisplayLEDs_8hpp.html" target="_top" xlink:title=" ">
<polygon fill="white" stroke="black" points="1356,-168.5 1356,-187.5 1480,-187.5 1480,-168.5 1356,-168.5"/>
<text text-anchor="middle" x="1418" y="-175.5" font-family="Helvetica,sans-Serif" font-size="10.00">DotBarDisplayLEDs.hpp</text>
</a>
</g>
</g>
<!-- Node23&#45;&gt;Node24 -->
<g id="edge33" class="edge"><title>Node23&#45;&gt;Node24</title>
<path fill="none" stroke="midnightblue" d="M1428.49,-214.396C1425.81,-205.362 1422.72,-194.936 1420.59,-187.751"/>
<polygon fill="midnightblue" stroke="midnightblue" points="1425.16,-215.489 1431.36,-224.083 1431.87,-213.501 1425.16,-215.489"/>
</g>
<!-- Node25&#45;&gt;Node13 -->
<g id="edge35" class="edge"><title>Node25&#45;&gt;Node13</title>
<path fill="none" stroke="midnightblue" d="M1092.41,-214.488C1090.36,-200.429 1085.69,-181.309 1075,-168 1060.87,-150.401 1037.91,-138.647 1019.87,-131.579"/>
<polygon fill="midnightblue" stroke="midnightblue" points="1088.94,-214.932 1093.55,-224.47 1095.89,-214.137 1088.94,-214.932"/>
</g>
<!-- Node26 -->
<g id="node26" class="node"><title>Node26</title>
<g id="a_node26"><a xlink:href="../../d5/d0c/MAX7219SevenSegmentDisplay_8hpp.html" target="_top" xlink:title=" ">
<polygon fill="white" stroke="black" points="1122,-168.5 1122,-187.5 1300,-187.5 1300,-168.5 1122,-168.5"/>
<text text-anchor="middle" x="1211" y="-175.5" font-family="Helvetica,sans-Serif" font-size="10.00">MAX7219SevenSegmentDisplay.hpp</text>
</a>
</g>
</g>
<!-- Node25&#45;&gt;Node26 -->
<g id="edge36" class="edge"><title>Node25&#45;&gt;Node26</title>
<path fill="none" stroke="midnightblue" d="M1121.66,-220.232C1143.55,-210.131 1173.5,-196.309 1192.55,-187.516"/>
<polygon fill="midnightblue" stroke="midnightblue" points="1120.15,-217.075 1112.54,-224.444 1123.09,-223.431 1120.15,-217.075"/>
</g>
</g>
</svg>
