<?xml version="1.0" encoding="UTF-8" standalone="no"?>
<!DOCTYPE svg PUBLIC "-//W3C//DTD SVG 1.1//EN"
 "http://www.w3.org/Graphics/SVG/1.1/DTD/svg11.dtd">
<!-- Generated by graphviz version 2.43.0 (0)
 -->
<!-- Title: ButtonMatrix&lt; Derived, NumRows, NumCols &gt; Pages: 1 -->
<svg width="1169pt" height="635pt"
 viewBox="0.00 0.00 1168.50 635.00" xmlns="http://www.w3.org/2000/svg" xmlns:xlink="http://www.w3.org/1999/xlink">
<g id="graph0" class="graph" transform="scale(1 1) rotate(0) translate(4 631)">
<title>ButtonMatrix&lt; Derived, NumRows, NumCols &gt;</title>
<!-- Node1 -->
<g id="Node000001" class="node">
<title>Node1</title>
<g id="a_Node000001"><a xlink:title="A class that reads the states of a button matrix.">
<polygon fill="#999999" stroke="transparent" points="640.5,-627 513.5,-627 513.5,-357 640.5,-357 640.5,-627"/>
<text text-anchor="start" x="519" y="-615" font-family="Helvetica,sans-Serif" font-size="10.00">ButtonMatrix&lt; Derived,</text>
<text text-anchor="start" x="520" y="-604" font-family="Helvetica,sans-Serif" font-size="10.00"> NumRows, NumCols &gt;</text>
<text text-anchor="start" x="522.5" y="-589" font-family="Helvetica,sans-Serif" font-size="10.00">&#45;</text>
<text text-anchor="start" x="535" y="-589" font-family="Helvetica,sans-Serif" font-size="10.00">debounceTime</text>
<text text-anchor="start" x="522.5" y="-574" font-family="Helvetica,sans-Serif" font-size="10.00">&#45;</text>
<text text-anchor="start" x="535" y="-574" font-family="Helvetica,sans-Serif" font-size="10.00">prevRefresh</text>
<text text-anchor="start" x="522.5" y="-559" font-family="Helvetica,sans-Serif" font-size="10.00">&#45;</text>
<text text-anchor="start" x="535" y="-559" font-family="Helvetica,sans-Serif" font-size="10.00">prevStates</text>
<text text-anchor="start" x="522.5" y="-544" font-family="Helvetica,sans-Serif" font-size="10.00">&#45;</text>
<text text-anchor="start" x="535" y="-544" font-family="Helvetica,sans-Serif" font-size="10.00">rowPins</text>
<text text-anchor="start" x="522.5" y="-529" font-family="Helvetica,sans-Serif" font-size="10.00">&#45;</text>
<text text-anchor="start" x="535" y="-529" font-family="Helvetica,sans-Serif" font-size="10.00">colPins</text>
<text text-anchor="start" x="520" y="-514" font-family="Helvetica,sans-Serif" font-size="10.00">+</text>
<text text-anchor="start" x="535" y="-514" font-family="Helvetica,sans-Serif" font-size="10.00">ButtonMatrix()</text>
<text text-anchor="start" x="520" y="-499" font-family="Helvetica,sans-Serif" font-size="10.00">+</text>
<text text-anchor="start" x="535" y="-499" font-family="Helvetica,sans-Serif" font-size="10.00">begin()</text>
<text text-anchor="start" x="520" y="-484" font-family="Helvetica,sans-Serif" font-size="10.00">+</text>
<text text-anchor="start" x="535" y="-484" font-family="Helvetica,sans-Serif" font-size="10.00">update()</text>
<text text-anchor="start" x="520" y="-469" font-family="Helvetica,sans-Serif" font-size="10.00">+</text>
<text text-anchor="start" x="535" y="-469" font-family="Helvetica,sans-Serif" font-size="10.00">getPrevState()</text>
<text text-anchor="start" x="520" y="-454" font-family="Helvetica,sans-Serif" font-size="10.00">+</text>
<text text-anchor="start" x="535" y="-454" font-family="Helvetica,sans-Serif" font-size="10.00">setDebounceTime()</text>
<text text-anchor="start" x="520" y="-439" font-family="Helvetica,sans-Serif" font-size="10.00">+</text>
<text text-anchor="start" x="535" y="-439" font-family="Helvetica,sans-Serif" font-size="10.00">getDebounceTime()</text>
<text text-anchor="start" x="520" y="-424" font-family="Helvetica,sans-Serif" font-size="10.00">#</text>
<text text-anchor="start" x="535" y="-424" font-family="Helvetica,sans-Serif" font-size="10.00">onButtonChanged()</text>
<text text-anchor="start" x="522.5" y="-409" font-family="Helvetica,sans-Serif" font-size="10.00">&#45;</text>
<text text-anchor="start" x="535" y="-409" font-family="Helvetica,sans-Serif" font-size="10.00">setPrevState()</text>
<text text-anchor="start" x="522.5" y="-394" font-family="Helvetica,sans-Serif" font-size="10.00">&#45;</text>
<text text-anchor="start" x="535" y="-394" font-family="Helvetica,sans-Serif" font-size="10.00">positionToBits()</text>
<text text-anchor="start" x="522.5" y="-379" font-family="Helvetica,sans-Serif" font-size="10.00">&#45;</text>
<text text-anchor="start" x="535" y="-379" font-family="Helvetica,sans-Serif" font-size="10.00">bitsToIndex()</text>
<text text-anchor="start" x="522.5" y="-364" font-family="Helvetica,sans-Serif" font-size="10.00">&#45;</text>
<text text-anchor="start" x="535" y="-364" font-family="Helvetica,sans-Serif" font-size="10.00">bitsToBitmask()</text>
<polygon fill="#666666" stroke="#666666" points="514,-599 514,-599 641,-599 641,-599 514,-599"/>
<polygon fill="#666666" stroke="#666666" points="514,-524 514,-524 533,-524 533,-524 514,-524"/>
<polygon fill="#666666" stroke="#666666" points="533,-524 533,-524 641,-524 641,-524 533,-524"/>
<polygon fill="none" stroke="#666666" points="513.5,-357 513.5,-627 640.5,-627 640.5,-357 513.5,-357"/>
</a>
</g>
</g>
<!-- Node2 -->
<g id="Node000002" class="node">
<title>Node2</title>
<g id="a_Node000002"><a xlink:href="../../d3/d65/classBankable_1_1MIDIButtonMatrix.html" target="_top" xlink:title=" ">
<polygon fill="white" stroke="transparent" points="166,-302 0,-302 0,-145 166,-145 166,-302"/>
<text text-anchor="start" x="5" y="-289.5" font-family="Helvetica,sans-Serif" font-size="10.00">MIDIButtonMatrix&lt; Matrix</text>
<text text-anchor="start" x="5" y="-278.5" font-family="Helvetica,sans-Serif" font-size="10.00">Address&lt; NumRows, NumCols</text>
<text text-anchor="start" x="5" y="-267.5" font-family="Helvetica,sans-Serif" font-size="10.00"> &gt;, DigitalCCSender, NumRows,</text>
<text text-anchor="start" x="53.5" y="-256.5" font-family="Helvetica,sans-Serif" font-size="10.00"> NumCols &gt;</text>
<text text-anchor="start" x="16.5" y="-241.5" font-family="Helvetica,sans-Serif" font-size="10.00">+</text>
<text text-anchor="start" x="42" y="-241.5" font-family="Helvetica,sans-Serif" font-size="10.00">sender</text>
<text text-anchor="start" x="16.5" y="-226.5" font-family="Helvetica,sans-Serif" font-size="10.00">#</text>
<text text-anchor="start" x="42" y="-226.5" font-family="Helvetica,sans-Serif" font-size="10.00">address</text>
<text text-anchor="start" x="16.5" y="-211.5" font-family="Helvetica,sans-Serif" font-size="10.00">#</text>
<text text-anchor="start" x="42" y="-211.5" font-family="Helvetica,sans-Serif" font-size="10.00">activeButtons</text>
<text text-anchor="start" x="16.5" y="-196.5" font-family="Helvetica,sans-Serif" font-size="10.00">+</text>
<text text-anchor="start" x="42" y="-196.5" font-family="Helvetica,sans-Serif" font-size="10.00">begin()</text>
<text text-anchor="start" x="16.5" y="-181.5" font-family="Helvetica,sans-Serif" font-size="10.00">+</text>
<text text-anchor="start" x="42" y="-181.5" font-family="Helvetica,sans-Serif" font-size="10.00">update()</text>
<text text-anchor="start" x="16.5" y="-166.5" font-family="Helvetica,sans-Serif" font-size="10.00">#</text>
<text text-anchor="start" x="42" y="-166.5" font-family="Helvetica,sans-Serif" font-size="10.00">MIDIButtonMatrix()</text>
<text text-anchor="start" x="19" y="-151.5" font-family="Helvetica,sans-Serif" font-size="10.00">&#45;</text>
<text text-anchor="start" x="42" y="-151.5" font-family="Helvetica,sans-Serif" font-size="10.00">onButtonChanged()</text>
<polygon fill="#666666" stroke="#666666" points="0,-251.5 0,-251.5 166,-251.5 166,-251.5 0,-251.5"/>
<polygon fill="#666666" stroke="#666666" points="0,-206.5 0,-206.5 40,-206.5 40,-206.5 0,-206.5"/>
<polygon fill="#666666" stroke="#666666" points="40,-206.5 40,-206.5 166,-206.5 166,-206.5 40,-206.5"/>
<polygon fill="none" stroke="#666666" points="0,-145 0,-302 166,-302 166,-145 0,-145"/>
</a>
</g>
</g>
<!-- Node1&#45;&gt;Node2 -->
<g id="edge1_Node000001_Node000002" class="edge">
<title>Node1&#45;&gt;Node2</title>
<g id="a_edge1_Node000001_Node000002"><a xlink:title=" ">
<path fill="none" stroke="#63b8ff" d="M503.7,-470.02C419.48,-443.73 279.49,-393.2 175,-321 166.91,-315.41 158.97,-309.01 151.35,-302.23"/>
<polygon fill="none" stroke="#63b8ff" points="502.84,-473.42 513.43,-473.03 504.91,-466.73 502.84,-473.42"/>
</a>
</g>
</g>
<!-- Node4 -->
<g id="Node000004" class="node">
<title>Node4</title>
<g id="a_Node000004"><a xlink:href="../../d3/d65/classBankable_1_1MIDIButtonMatrix.html" target="_top" xlink:title=" ">
<polygon fill="white" stroke="transparent" points="368,-302 184,-302 184,-145 368,-145 368,-302"/>
<text text-anchor="start" x="189" y="-289.5" font-family="Helvetica,sans-Serif" font-size="10.00">MIDIButtonMatrix&lt; ManyMatrix</text>
<text text-anchor="start" x="189" y="-278.5" font-family="Helvetica,sans-Serif" font-size="10.00">Addresses&lt; NumBanks, NumRows,</text>
<text text-anchor="start" x="189" y="-267.5" font-family="Helvetica,sans-Serif" font-size="10.00"> NumCols &gt;, DigitalCCSender,</text>
<text text-anchor="start" x="218.5" y="-256.5" font-family="Helvetica,sans-Serif" font-size="10.00"> NumRows, NumCols &gt;</text>
<text text-anchor="start" x="205" y="-241.5" font-family="Helvetica,sans-Serif" font-size="10.00">+</text>
<text text-anchor="start" x="235" y="-241.5" font-family="Helvetica,sans-Serif" font-size="10.00">sender</text>
<text text-anchor="start" x="205" y="-226.5" font-family="Helvetica,sans-Serif" font-size="10.00">#</text>
<text text-anchor="start" x="235" y="-226.5" font-family="Helvetica,sans-Serif" font-size="10.00">address</text>
<text text-anchor="start" x="205" y="-211.5" font-family="Helvetica,sans-Serif" font-size="10.00">#</text>
<text text-anchor="start" x="235" y="-211.5" font-family="Helvetica,sans-Serif" font-size="10.00">activeButtons</text>
<text text-anchor="start" x="205" y="-196.5" font-family="Helvetica,sans-Serif" font-size="10.00">+</text>
<text text-anchor="start" x="235" y="-196.5" font-family="Helvetica,sans-Serif" font-size="10.00">begin()</text>
<text text-anchor="start" x="205" y="-181.5" font-family="Helvetica,sans-Serif" font-size="10.00">+</text>
<text text-anchor="start" x="235" y="-181.5" font-family="Helvetica,sans-Serif" font-size="10.00">update()</text>
<text text-anchor="start" x="205" y="-166.5" font-family="Helvetica,sans-Serif" font-size="10.00">#</text>
<text text-anchor="start" x="235" y="-166.5" font-family="Helvetica,sans-Serif" font-size="10.00">MIDIButtonMatrix()</text>
<text text-anchor="start" x="207.5" y="-151.5" font-family="Helvetica,sans-Serif" font-size="10.00">&#45;</text>
<text text-anchor="start" x="235" y="-151.5" font-family="Helvetica,sans-Serif" font-size="10.00">onButtonChanged()</text>
<polygon fill="#666666" stroke="#666666" points="184,-251.5 184,-251.5 368,-251.5 368,-251.5 184,-251.5"/>
<polygon fill="#666666" stroke="#666666" points="184,-206.5 184,-206.5 233,-206.5 233,-206.5 184,-206.5"/>
<polygon fill="#666666" stroke="#666666" points="233,-206.5 233,-206.5 368,-206.5 368,-206.5 233,-206.5"/>
<polygon fill="none" stroke="#666666" points="184,-145 184,-302 368,-302 368,-145 184,-145"/>
</a>
</g>
</g>
<!-- Node1&#45;&gt;Node4 -->
<g id="edge3_Node000001_Node000004" class="edge">
<title>Node1&#45;&gt;Node4</title>
<g id="a_edge3_Node000001_Node000004"><a xlink:title=" ">
<path fill="none" stroke="#63b8ff" d="M505.08,-431.59C466.61,-399.39 418.71,-358.6 377,-321 370.24,-314.91 363.3,-308.54 356.37,-302.09"/>
<polygon fill="none" stroke="#63b8ff" points="503.22,-434.6 513.14,-438.33 507.71,-429.23 503.22,-434.6"/>
</a>
</g>
</g>
<!-- Node6 -->
<g id="Node000006" class="node">
<title>Node6</title>
<g id="a_Node000006"><a xlink:href="../../d3/d65/classBankable_1_1MIDIButtonMatrix.html" target="_top" xlink:title=" ">
<polygon fill="white" stroke="transparent" points="570,-302 386,-302 386,-145 570,-145 570,-302"/>
<text text-anchor="start" x="391" y="-289.5" font-family="Helvetica,sans-Serif" font-size="10.00">MIDIButtonMatrix&lt; ManyMatrix</text>
<text text-anchor="start" x="391" y="-278.5" font-family="Helvetica,sans-Serif" font-size="10.00">Addresses&lt; NumBanks, NumRows,</text>
<text text-anchor="start" x="391" y="-267.5" font-family="Helvetica,sans-Serif" font-size="10.00"> NumCols &gt;, DigitalNoteSender,</text>
<text text-anchor="start" x="420.5" y="-256.5" font-family="Helvetica,sans-Serif" font-size="10.00"> NumRows, NumCols &gt;</text>
<text text-anchor="start" x="407" y="-241.5" font-family="Helvetica,sans-Serif" font-size="10.00">+</text>
<text text-anchor="start" x="437" y="-241.5" font-family="Helvetica,sans-Serif" font-size="10.00">sender</text>
<text text-anchor="start" x="407" y="-226.5" font-family="Helvetica,sans-Serif" font-size="10.00">#</text>
<text text-anchor="start" x="437" y="-226.5" font-family="Helvetica,sans-Serif" font-size="10.00">address</text>
<text text-anchor="start" x="407" y="-211.5" font-family="Helvetica,sans-Serif" font-size="10.00">#</text>
<text text-anchor="start" x="437" y="-211.5" font-family="Helvetica,sans-Serif" font-size="10.00">activeButtons</text>
<text text-anchor="start" x="407" y="-196.5" font-family="Helvetica,sans-Serif" font-size="10.00">+</text>
<text text-anchor="start" x="437" y="-196.5" font-family="Helvetica,sans-Serif" font-size="10.00">begin()</text>
<text text-anchor="start" x="407" y="-181.5" font-family="Helvetica,sans-Serif" font-size="10.00">+</text>
<text text-anchor="start" x="437" y="-181.5" font-family="Helvetica,sans-Serif" font-size="10.00">update()</text>
<text text-anchor="start" x="407" y="-166.5" font-family="Helvetica,sans-Serif" font-size="10.00">#</text>
<text text-anchor="start" x="437" y="-166.5" font-family="Helvetica,sans-Serif" font-size="10.00">MIDIButtonMatrix()</text>
<text text-anchor="start" x="409.5" y="-151.5" font-family="Helvetica,sans-Serif" font-size="10.00">&#45;</text>
<text text-anchor="start" x="437" y="-151.5" font-family="Helvetica,sans-Serif" font-size="10.00">onButtonChanged()</text>
<polygon fill="#666666" stroke="#666666" points="386,-251.5 386,-251.5 570,-251.5 570,-251.5 386,-251.5"/>
<polygon fill="#666666" stroke="#666666" points="386,-206.5 386,-206.5 435,-206.5 435,-206.5 386,-206.5"/>
<polygon fill="#666666" stroke="#666666" points="435,-206.5 435,-206.5 570,-206.5 570,-206.5 435,-206.5"/>
<polygon fill="none" stroke="#666666" points="386,-145 386,-302 570,-302 570,-145 386,-145"/>
</a>
</g>
</g>
<!-- Node1&#45;&gt;Node6 -->
<g id="edge5_Node000001_Node000006" class="edge">
<title>Node1&#45;&gt;Node6</title>
<g id="a_edge5_Node000001_Node000006"><a xlink:title=" ">
<path fill="none" stroke="#63b8ff" d="M523.61,-347.29C517.85,-331.77 512.15,-316.44 506.84,-302.14"/>
<polygon fill="none" stroke="#63b8ff" points="520.45,-348.81 527.21,-356.97 527.01,-346.38 520.45,-348.81"/>
</a>
</g>
</g>
<!-- Node8 -->
<g id="Node000008" class="node">
<title>Node8</title>
<g id="a_Node000008"><a xlink:href="../../d3/d65/classBankable_1_1MIDIButtonMatrix.html" target="_top" xlink:title=" ">
<polygon fill="white" stroke="transparent" points="764,-302 588,-302 588,-145 764,-145 764,-302"/>
<text text-anchor="start" x="593" y="-289.5" font-family="Helvetica,sans-Serif" font-size="10.00">MIDIButtonMatrix&lt; Matrix</text>
<text text-anchor="start" x="593" y="-278.5" font-family="Helvetica,sans-Serif" font-size="10.00">Address&lt; NumRows, NumCols</text>
<text text-anchor="start" x="593" y="-267.5" font-family="Helvetica,sans-Serif" font-size="10.00"> &gt;, DigitalNoteSender, NumRows,</text>
<text text-anchor="start" x="646.5" y="-256.5" font-family="Helvetica,sans-Serif" font-size="10.00"> NumCols &gt;</text>
<text text-anchor="start" x="607" y="-241.5" font-family="Helvetica,sans-Serif" font-size="10.00">+</text>
<text text-anchor="start" x="635" y="-241.5" font-family="Helvetica,sans-Serif" font-size="10.00">sender</text>
<text text-anchor="start" x="607" y="-226.5" font-family="Helvetica,sans-Serif" font-size="10.00">#</text>
<text text-anchor="start" x="635" y="-226.5" font-family="Helvetica,sans-Serif" font-size="10.00">address</text>
<text text-anchor="start" x="607" y="-211.5" font-family="Helvetica,sans-Serif" font-size="10.00">#</text>
<text text-anchor="start" x="635" y="-211.5" font-family="Helvetica,sans-Serif" font-size="10.00">activeButtons</text>
<text text-anchor="start" x="607" y="-196.5" font-family="Helvetica,sans-Serif" font-size="10.00">+</text>
<text text-anchor="start" x="635" y="-196.5" font-family="Helvetica,sans-Serif" font-size="10.00">begin()</text>
<text text-anchor="start" x="607" y="-181.5" font-family="Helvetica,sans-Serif" font-size="10.00">+</text>
<text text-anchor="start" x="635" y="-181.5" font-family="Helvetica,sans-Serif" font-size="10.00">update()</text>
<text text-anchor="start" x="607" y="-166.5" font-family="Helvetica,sans-Serif" font-size="10.00">#</text>
<text text-anchor="start" x="635" y="-166.5" font-family="Helvetica,sans-Serif" font-size="10.00">MIDIButtonMatrix()</text>
<text text-anchor="start" x="609.5" y="-151.5" font-family="Helvetica,sans-Serif" font-size="10.00">&#45;</text>
<text text-anchor="start" x="635" y="-151.5" font-family="Helvetica,sans-Serif" font-size="10.00">onButtonChanged()</text>
<polygon fill="#666666" stroke="#666666" points="588,-251.5 588,-251.5 764,-251.5 764,-251.5 588,-251.5"/>
<polygon fill="#666666" stroke="#666666" points="588,-206.5 588,-206.5 633,-206.5 633,-206.5 588,-206.5"/>
<polygon fill="#666666" stroke="#666666" points="633,-206.5 633,-206.5 764,-206.5 764,-206.5 633,-206.5"/>
<polygon fill="none" stroke="#666666" points="588,-145 588,-302 764,-302 764,-145 588,-145"/>
</a>
</g>
</g>
<!-- Node1&#45;&gt;Node8 -->
<g id="edge7_Node000001_Node000008" class="edge">
<title>Node1&#45;&gt;Node8</title>
<g id="a_edge7_Node000001_Node000008"><a xlink:title=" ">
<path fill="none" stroke="#63b8ff" d="M630.39,-347.29C636.15,-331.77 641.85,-316.44 647.16,-302.14"/>
<polygon fill="none" stroke="#63b8ff" points="626.99,-346.38 626.79,-356.97 633.55,-348.81 626.99,-346.38"/>
</a>
</g>
</g>
<!-- Node10 -->
<g id="Node000010" class="node">
<title>Node10</title>
<g id="a_Node000010"><a xlink:href="../../d0/d54/classMIDIButtonMatrix.html" target="_top" xlink:title=" ">
<polygon fill="white" stroke="transparent" points="957.5,-321 782.5,-321 782.5,-126 957.5,-126 957.5,-321"/>
<text text-anchor="start" x="788" y="-308.5" font-family="Helvetica,sans-Serif" font-size="10.00">MIDIButtonMatrix&lt; Digital</text>
<text text-anchor="start" x="788" y="-297.5" font-family="Helvetica,sans-Serif" font-size="10.00">CCSender, NumRows, NumCols &gt;</text>
<text text-anchor="start" x="794" y="-282.5" font-family="Helvetica,sans-Serif" font-size="10.00">+</text>
<text text-anchor="start" x="814" y="-282.5" font-family="Helvetica,sans-Serif" font-size="10.00">sender</text>
<text text-anchor="start" x="796.5" y="-267.5" font-family="Helvetica,sans-Serif" font-size="10.00">&#45;</text>
<text text-anchor="start" x="814" y="-267.5" font-family="Helvetica,sans-Serif" font-size="10.00">addresses</text>
<text text-anchor="start" x="796.5" y="-252.5" font-family="Helvetica,sans-Serif" font-size="10.00">&#45;</text>
<text text-anchor="start" x="814" y="-252.5" font-family="Helvetica,sans-Serif" font-size="10.00">baseChannelCN</text>
<text text-anchor="start" x="794" y="-237.5" font-family="Helvetica,sans-Serif" font-size="10.00">+</text>
<text text-anchor="start" x="814" y="-237.5" font-family="Helvetica,sans-Serif" font-size="10.00">begin()</text>
<text text-anchor="start" x="794" y="-222.5" font-family="Helvetica,sans-Serif" font-size="10.00">+</text>
<text text-anchor="start" x="814" y="-222.5" font-family="Helvetica,sans-Serif" font-size="10.00">update()</text>
<text text-anchor="start" x="794" y="-207.5" font-family="Helvetica,sans-Serif" font-size="10.00">+</text>
<text text-anchor="start" x="814" y="-207.5" font-family="Helvetica,sans-Serif" font-size="10.00">getAddress()</text>
<text text-anchor="start" x="794" y="-192.5" font-family="Helvetica,sans-Serif" font-size="10.00">+</text>
<text text-anchor="start" x="814" y="-192.5" font-family="Helvetica,sans-Serif" font-size="10.00">setAddressUnsafe()</text>
<text text-anchor="start" x="794" y="-177.5" font-family="Helvetica,sans-Serif" font-size="10.00">+</text>
<text text-anchor="start" x="814" y="-177.5" font-family="Helvetica,sans-Serif" font-size="10.00">getChannelCable()</text>
<text text-anchor="start" x="794" y="-162.5" font-family="Helvetica,sans-Serif" font-size="10.00">+</text>
<text text-anchor="start" x="814" y="-162.5" font-family="Helvetica,sans-Serif" font-size="10.00">setChannelCableUnsafe()</text>
<text text-anchor="start" x="794" y="-147.5" font-family="Helvetica,sans-Serif" font-size="10.00">#</text>
<text text-anchor="start" x="814" y="-147.5" font-family="Helvetica,sans-Serif" font-size="10.00">MIDIButtonMatrix()</text>
<text text-anchor="start" x="796.5" y="-132.5" font-family="Helvetica,sans-Serif" font-size="10.00">&#45;</text>
<text text-anchor="start" x="814" y="-132.5" font-family="Helvetica,sans-Serif" font-size="10.00">onButtonChanged()</text>
<polygon fill="#666666" stroke="#666666" points="783,-292.5 783,-292.5 958,-292.5 958,-292.5 783,-292.5"/>
<polygon fill="#666666" stroke="#666666" points="783,-247.5 783,-247.5 812,-247.5 812,-247.5 783,-247.5"/>
<polygon fill="#666666" stroke="#666666" points="812,-247.5 812,-247.5 958,-247.5 958,-247.5 812,-247.5"/>
<polygon fill="none" stroke="#666666" points="782.5,-126 782.5,-321 957.5,-321 957.5,-126 782.5,-126"/>
</a>
</g>
</g>
<!-- Node1&#45;&gt;Node10 -->
<g id="edge9_Node000001_Node000010" class="edge">
<title>Node1&#45;&gt;Node10</title>
<g id="a_edge9_Node000001_Node000010"><a xlink:title=" ">
<path fill="none" stroke="#63b8ff" d="M648.52,-431.01C686.11,-398.97 732.64,-358.5 773,-321 776.13,-318.09 779.3,-315.11 782.49,-312.09"/>
<polygon fill="none" stroke="#63b8ff" points="645.98,-428.57 640.64,-437.71 650.52,-433.9 645.98,-428.57"/>
</a>
</g>
</g>
<!-- Node12 -->
<g id="Node000012" class="node">
<title>Node12</title>
<g id="a_Node000012"><a xlink:href="../../d0/d54/classMIDIButtonMatrix.html" target="_top" xlink:title=" ">
<polygon fill="white" stroke="transparent" points="1160.5,-321 975.5,-321 975.5,-126 1160.5,-126 1160.5,-321"/>
<text text-anchor="start" x="981" y="-308.5" font-family="Helvetica,sans-Serif" font-size="10.00">MIDIButtonMatrix&lt; Digital</text>
<text text-anchor="start" x="981" y="-297.5" font-family="Helvetica,sans-Serif" font-size="10.00">NoteSender, NumRows, NumCols &gt;</text>
<text text-anchor="start" x="989.5" y="-282.5" font-family="Helvetica,sans-Serif" font-size="10.00">+</text>
<text text-anchor="start" x="1012" y="-282.5" font-family="Helvetica,sans-Serif" font-size="10.00">sender</text>
<text text-anchor="start" x="992" y="-267.5" font-family="Helvetica,sans-Serif" font-size="10.00">&#45;</text>
<text text-anchor="start" x="1012" y="-267.5" font-family="Helvetica,sans-Serif" font-size="10.00">addresses</text>
<text text-anchor="start" x="992" y="-252.5" font-family="Helvetica,sans-Serif" font-size="10.00">&#45;</text>
<text text-anchor="start" x="1012" y="-252.5" font-family="Helvetica,sans-Serif" font-size="10.00">baseChannelCN</text>
<text text-anchor="start" x="989.5" y="-237.5" font-family="Helvetica,sans-Serif" font-size="10.00">+</text>
<text text-anchor="start" x="1012" y="-237.5" font-family="Helvetica,sans-Serif" font-size="10.00">begin()</text>
<text text-anchor="start" x="989.5" y="-222.5" font-family="Helvetica,sans-Serif" font-size="10.00">+</text>
<text text-anchor="start" x="1012" y="-222.5" font-family="Helvetica,sans-Serif" font-size="10.00">update()</text>
<text text-anchor="start" x="989.5" y="-207.5" font-family="Helvetica,sans-Serif" font-size="10.00">+</text>
<text text-anchor="start" x="1012" y="-207.5" font-family="Helvetica,sans-Serif" font-size="10.00">getAddress()</text>
<text text-anchor="start" x="989.5" y="-192.5" font-family="Helvetica,sans-Serif" font-size="10.00">+</text>
<text text-anchor="start" x="1012" y="-192.5" font-family="Helvetica,sans-Serif" font-size="10.00">setAddressUnsafe()</text>
<text text-anchor="start" x="989.5" y="-177.5" font-family="Helvetica,sans-Serif" font-size="10.00">+</text>
<text text-anchor="start" x="1012" y="-177.5" font-family="Helvetica,sans-Serif" font-size="10.00">getChannelCable()</text>
<text text-anchor="start" x="989.5" y="-162.5" font-family="Helvetica,sans-Serif" font-size="10.00">+</text>
<text text-anchor="start" x="1012" y="-162.5" font-family="Helvetica,sans-Serif" font-size="10.00">setChannelCableUnsafe()</text>
<text text-anchor="start" x="989.5" y="-147.5" font-family="Helvetica,sans-Serif" font-size="10.00">#</text>
<text text-anchor="start" x="1012" y="-147.5" font-family="Helvetica,sans-Serif" font-size="10.00">MIDIButtonMatrix()</text>
<text text-anchor="start" x="992" y="-132.5" font-family="Helvetica,sans-Serif" font-size="10.00">&#45;</text>
<text text-anchor="start" x="1012" y="-132.5" font-family="Helvetica,sans-Serif" font-size="10.00">onButtonChanged()</text>
<polygon fill="#666666" stroke="#666666" points="976,-292.5 976,-292.5 1161,-292.5 1161,-292.5 976,-292.5"/>
<polygon fill="#666666" stroke="#666666" points="976,-247.5 976,-247.5 1010,-247.5 1010,-247.5 976,-247.5"/>
<polygon fill="#666666" stroke="#666666" points="1010,-247.5 1010,-247.5 1161,-247.5 1161,-247.5 1010,-247.5"/>
<polygon fill="none" stroke="#666666" points="975.5,-126 975.5,-321 1160.5,-321 1160.5,-126 975.5,-126"/>
</a>
</g>
</g>
<!-- Node1&#45;&gt;Node12 -->
<g id="edge11_Node000001_Node000012" class="edge">
<title>Node1&#45;&gt;Node12</title>
<g id="a_edge11_Node000001_Node000012"><a xlink:title=" ">
<path fill="none" stroke="#63b8ff" d="M650.21,-467.79C731.61,-440.07 865.05,-388.8 967,-321 969.83,-319.12 972.65,-317.16 975.45,-315.13"/>
<polygon fill="none" stroke="#63b8ff" points="648.9,-464.54 640.55,-471.06 651.14,-471.17 648.9,-464.54"/>
</a>
</g>
</g>
<!-- Node3 -->
<g id="Node000003" class="node">
<title>Node3</title>
<g id="a_Node000003"><a xlink:href="../../db/d2b/classBankable_1_1CCButtonMatrix.html" target="_top" xlink:title="A class of MIDIOutputElements that read the input from a matrix of momentary push buttons or switches...">
<polygon fill="white" stroke="transparent" points="159,-75 7,-75 7,-15 159,-15 159,-75"/>
<text text-anchor="start" x="12" y="-63" font-family="Helvetica,sans-Serif" font-size="10.00">CCButtonMatrix&lt; NumRows,</text>
<text text-anchor="start" x="53.5" y="-52" font-family="Helvetica,sans-Serif" font-size="10.00"> NumCols &gt;</text>
<text text-anchor="start" x="81" y="-37" font-family="Helvetica,sans-Serif" font-size="10.00"> </text>
<text text-anchor="start" x="22.5" y="-22" font-family="Helvetica,sans-Serif" font-size="10.00">+</text>
<text text-anchor="start" x="47" y="-22" font-family="Helvetica,sans-Serif" font-size="10.00">CCButtonMatrix()</text>
<polygon fill="#666666" stroke="#666666" points="7,-47 7,-47 159,-47 159,-47 7,-47"/>
<polygon fill="#666666" stroke="#666666" points="7,-32 7,-32 159,-32 159,-32 7,-32"/>
<polygon fill="none" stroke="#666666" points="7,-15 7,-75 159,-75 159,-15 7,-15"/>
</a>
</g>
</g>
<!-- Node2&#45;&gt;Node3 -->
<g id="edge2_Node000002_Node000003" class="edge">
<title>Node2&#45;&gt;Node3</title>
<g id="a_edge2_Node000002_Node000003"><a xlink:title=" ">
<path fill="none" stroke="#63b8ff" d="M83,-134.62C83,-113.08 83,-91.52 83,-75.05"/>
<polygon fill="none" stroke="#63b8ff" points="79.5,-134.83 83,-144.83 86.5,-134.83 79.5,-134.83"/>
</a>
</g>
</g>
<!-- Node5 -->
<g id="Node000005" class="node">
<title>Node5</title>
<g id="a_Node000005"><a xlink:href="../../d7/d2b/classBankable_1_1ManyAddresses_1_1CCButtonMatrix.html" target="_top" xlink:title="A class of MIDIOutputElements that read the input from a matrix of momentary push buttons or switches...">
<polygon fill="white" stroke="transparent" points="353.5,-75 198.5,-75 198.5,-15 353.5,-15 353.5,-75"/>
<text text-anchor="start" x="204" y="-63" font-family="Helvetica,sans-Serif" font-size="10.00">CCButtonMatrix&lt; NumBanks,</text>
<text text-anchor="start" x="219" y="-52" font-family="Helvetica,sans-Serif" font-size="10.00"> NumRows, NumCols &gt;</text>
<text text-anchor="start" x="274.5" y="-37" font-family="Helvetica,sans-Serif" font-size="10.00"> </text>
<text text-anchor="start" x="215" y="-22" font-family="Helvetica,sans-Serif" font-size="10.00">+</text>
<text text-anchor="start" x="240" y="-22" font-family="Helvetica,sans-Serif" font-size="10.00">CCButtonMatrix()</text>
<polygon fill="#666666" stroke="#666666" points="199,-47 199,-47 354,-47 354,-47 199,-47"/>
<polygon fill="#666666" stroke="#666666" points="199,-32 199,-32 354,-32 354,-32 199,-32"/>
<polygon fill="none" stroke="#666666" points="198.5,-15 198.5,-75 353.5,-75 353.5,-15 198.5,-15"/>
</a>
</g>
</g>
<!-- Node4&#45;&gt;Node5 -->
<g id="edge4_Node000004_Node000005" class="edge">
<title>Node4&#45;&gt;Node5</title>
<g id="a_edge4_Node000004_Node000005"><a xlink:title=" ">
<path fill="none" stroke="#63b8ff" d="M276,-134.62C276,-113.08 276,-91.52 276,-75.05"/>
<polygon fill="none" stroke="#63b8ff" points="272.5,-134.83 276,-144.83 279.5,-134.83 272.5,-134.83"/>
</a>
</g>
</g>
<!-- Node7 -->
<g id="Node000007" class="node">
<title>Node7</title>
<g id="a_Node000007"><a xlink:href="../../d3/d39/classBankable_1_1ManyAddresses_1_1NoteButtonMatrix.html" target="_top" xlink:title="A class of MIDIOutputElements that read the input from a matrix of momentary push buttons or switches...">
<polygon fill="white" stroke="transparent" points="560.5,-90 395.5,-90 395.5,0 560.5,0 560.5,-90"/>
<text text-anchor="start" x="401" y="-78" font-family="Helvetica,sans-Serif" font-size="10.00">NoteButtonMatrix&lt; NumBanks,</text>
<text text-anchor="start" x="421" y="-67" font-family="Helvetica,sans-Serif" font-size="10.00"> NumRows, NumCols &gt;</text>
<text text-anchor="start" x="476.5" y="-52" font-family="Helvetica,sans-Serif" font-size="10.00"> </text>
<text text-anchor="start" x="412" y="-37" font-family="Helvetica,sans-Serif" font-size="10.00">+</text>
<text text-anchor="start" x="437" y="-37" font-family="Helvetica,sans-Serif" font-size="10.00">NoteButtonMatrix()</text>
<text text-anchor="start" x="412" y="-22" font-family="Helvetica,sans-Serif" font-size="10.00">+</text>
<text text-anchor="start" x="437" y="-22" font-family="Helvetica,sans-Serif" font-size="10.00">setVelocity()</text>
<text text-anchor="start" x="412" y="-7" font-family="Helvetica,sans-Serif" font-size="10.00">+</text>
<text text-anchor="start" x="437" y="-7" font-family="Helvetica,sans-Serif" font-size="10.00">getVelocity()</text>
<polygon fill="#666666" stroke="#666666" points="396,-62 396,-62 561,-62 561,-62 396,-62"/>
<polygon fill="#666666" stroke="#666666" points="396,-47 396,-47 561,-47 561,-47 396,-47"/>
<polygon fill="none" stroke="#666666" points="395.5,0 395.5,-90 560.5,-90 560.5,0 395.5,0"/>
</a>
</g>
</g>
<!-- Node6&#45;&gt;Node7 -->
<g id="edge6_Node000006_Node000007" class="edge">
<title>Node6&#45;&gt;Node7</title>
<g id="a_edge6_Node000006_Node000007"><a xlink:title=" ">
<path fill="none" stroke="#63b8ff" d="M478,-134.71C478,-119.29 478,-103.85 478,-90.27"/>
<polygon fill="none" stroke="#63b8ff" points="474.5,-134.83 478,-144.83 481.5,-134.83 474.5,-134.83"/>
</a>
</g>
</g>
<!-- Node9 -->
<g id="Node000009" class="node">
<title>Node9</title>
<g id="a_Node000009"><a xlink:href="../../d2/d2b/classBankable_1_1NoteButtonMatrix.html" target="_top" xlink:title="A class of MIDIOutputElements that read the input from a matrix of momentary push buttons or switches...">
<polygon fill="white" stroke="transparent" points="756.5,-90 595.5,-90 595.5,0 756.5,0 756.5,-90"/>
<text text-anchor="start" x="601" y="-78" font-family="Helvetica,sans-Serif" font-size="10.00">NoteButtonMatrix&lt; NumRows,</text>
<text text-anchor="start" x="647" y="-67" font-family="Helvetica,sans-Serif" font-size="10.00"> NumCols &gt;</text>
<text text-anchor="start" x="674.5" y="-52" font-family="Helvetica,sans-Serif" font-size="10.00"> </text>
<text text-anchor="start" x="611" y="-37" font-family="Helvetica,sans-Serif" font-size="10.00">+</text>
<text text-anchor="start" x="635" y="-37" font-family="Helvetica,sans-Serif" font-size="10.00">NoteButtonMatrix()</text>
<text text-anchor="start" x="611" y="-22" font-family="Helvetica,sans-Serif" font-size="10.00">+</text>
<text text-anchor="start" x="635" y="-22" font-family="Helvetica,sans-Serif" font-size="10.00">setVelocity()</text>
<text text-anchor="start" x="611" y="-7" font-family="Helvetica,sans-Serif" font-size="10.00">+</text>
<text text-anchor="start" x="635" y="-7" font-family="Helvetica,sans-Serif" font-size="10.00">getVelocity()</text>
<polygon fill="#666666" stroke="#666666" points="596,-62 596,-62 757,-62 757,-62 596,-62"/>
<polygon fill="#666666" stroke="#666666" points="596,-47 596,-47 757,-47 757,-47 596,-47"/>
<polygon fill="none" stroke="#666666" points="595.5,0 595.5,-90 756.5,-90 756.5,0 595.5,0"/>
</a>
</g>
</g>
<!-- Node8&#45;&gt;Node9 -->
<g id="edge8_Node000008_Node000009" class="edge">
<title>Node8&#45;&gt;Node9</title>
<g id="a_edge8_Node000008_Node000009"><a xlink:title=" ">
<path fill="none" stroke="#63b8ff" d="M676,-134.71C676,-119.29 676,-103.85 676,-90.27"/>
<polygon fill="none" stroke="#63b8ff" points="672.5,-134.83 676,-144.83 679.5,-134.83 672.5,-134.83"/>
</a>
</g>
</g>
<!-- Node11 -->
<g id="Node000011" class="node">
<title>Node11</title>
<g id="a_Node000011"><a xlink:href="../../d3/d2a/classCCButtonMatrix.html" target="_top" xlink:title="A class of MIDIOutputElements that read the input from a matrix of momentary push buttons or switches...">
<polygon fill="white" stroke="transparent" points="946,-75 794,-75 794,-15 946,-15 946,-75"/>
<text text-anchor="start" x="799" y="-63" font-family="Helvetica,sans-Serif" font-size="10.00">CCButtonMatrix&lt; NumRows,</text>
<text text-anchor="start" x="840.5" y="-52" font-family="Helvetica,sans-Serif" font-size="10.00"> NumCols &gt;</text>
<text text-anchor="start" x="868" y="-37" font-family="Helvetica,sans-Serif" font-size="10.00"> </text>
<text text-anchor="start" x="809.5" y="-22" font-family="Helvetica,sans-Serif" font-size="10.00">+</text>
<text text-anchor="start" x="834" y="-22" font-family="Helvetica,sans-Serif" font-size="10.00">CCButtonMatrix()</text>
<polygon fill="#666666" stroke="#666666" points="794,-47 794,-47 946,-47 946,-47 794,-47"/>
<polygon fill="#666666" stroke="#666666" points="794,-32 794,-32 946,-32 946,-32 794,-32"/>
<polygon fill="none" stroke="#666666" points="794,-15 794,-75 946,-75 946,-15 794,-15"/>
</a>
</g>
</g>
<!-- Node10&#45;&gt;Node11 -->
<g id="edge10_Node000010_Node000011" class="edge">
<title>Node10&#45;&gt;Node11</title>
<g id="a_edge10_Node000010_Node000011"><a xlink:title=" ">
<path fill="none" stroke="#63b8ff" d="M870,-115.65C870,-100.85 870,-86.79 870,-75.22"/>
<polygon fill="none" stroke="#63b8ff" points="866.5,-115.99 870,-125.99 873.5,-115.99 866.5,-115.99"/>
</a>
</g>
</g>
<!-- Node13 -->
<g id="Node000013" class="node">
<title>Node13</title>
<g id="a_Node000013"><a xlink:href="../../d2/daf/classNoteButtonMatrix.html" target="_top" xlink:title="A class of MIDIOutputElements that read the input from a matrix of momentary push buttons or switches...">
<polygon fill="white" stroke="transparent" points="1148.5,-90 987.5,-90 987.5,0 1148.5,0 1148.5,-90"/>
<text text-anchor="start" x="993" y="-78" font-family="Helvetica,sans-Serif" font-size="10.00">NoteButtonMatrix&lt; NumRows,</text>
<text text-anchor="start" x="1039" y="-67" font-family="Helvetica,sans-Serif" font-size="10.00"> NumCols &gt;</text>
<text text-anchor="start" x="1066.5" y="-52" font-family="Helvetica,sans-Serif" font-size="10.00"> </text>
<text text-anchor="start" x="1003" y="-37" font-family="Helvetica,sans-Serif" font-size="10.00">+</text>
<text text-anchor="start" x="1027" y="-37" font-family="Helvetica,sans-Serif" font-size="10.00">NoteButtonMatrix()</text>
<text text-anchor="start" x="1003" y="-22" font-family="Helvetica,sans-Serif" font-size="10.00">+</text>
<text text-anchor="start" x="1027" y="-22" font-family="Helvetica,sans-Serif" font-size="10.00">setVelocity()</text>
<text text-anchor="start" x="1003" y="-7" font-family="Helvetica,sans-Serif" font-size="10.00">+</text>
<text text-anchor="start" x="1027" y="-7" font-family="Helvetica,sans-Serif" font-size="10.00">getVelocity()</text>
<polygon fill="#666666" stroke="#666666" points="988,-62 988,-62 1149,-62 1149,-62 988,-62"/>
<polygon fill="#666666" stroke="#666666" points="988,-47 988,-47 1149,-47 1149,-47 988,-47"/>
<polygon fill="none" stroke="#666666" points="987.5,0 987.5,-90 1148.5,-90 1148.5,0 987.5,0"/>
</a>
</g>
</g>
<!-- Node12&#45;&gt;Node13 -->
<g id="edge12_Node000012_Node000013" class="edge">
<title>Node12&#45;&gt;Node13</title>
<g id="a_edge12_Node000012_Node000013"><a xlink:title=" ">
<path fill="none" stroke="#63b8ff" d="M1068,-115.76C1068,-106.78 1068,-98.07 1068,-90.03"/>
<polygon fill="none" stroke="#63b8ff" points="1064.5,-115.99 1068,-125.99 1071.5,-115.99 1064.5,-115.99"/>
</a>
</g>
</g>
</g>
</svg>
