<?xml version="1.0" encoding="UTF-8" standalone="no"?>
<!DOCTYPE svg PUBLIC "-//W3C//DTD SVG 1.1//EN"
 "http://www.w3.org/Graphics/SVG/1.1/DTD/svg11.dtd">
<!-- Generated by graphviz version 2.43.0 (0)
 -->
<!-- Title: ManyMatrixAddresses&lt; NumBanks, NumRows, NumCols &gt; Pages: 1 -->
<svg width="497pt" height="777pt"
 viewBox="0.00 0.00 497.00 777.00" xmlns="http://www.w3.org/2000/svg" xmlns:xlink="http://www.w3.org/1999/xlink">
<g id="graph0" class="graph" transform="scale(1 1) rotate(0) translate(4 773)">
<title>ManyMatrixAddresses&lt; NumBanks, NumRows, NumCols &gt;</title>
<polygon fill="white" stroke="transparent" points="-4,4 -4,-773 493,-773 493,4 -4,4"/>
<!-- Node1 -->
<g id="node1" class="node">
<title>Node1</title>
<g id="a_node1"><a xlink:title=" ">
<polygon fill="#bfbfbf" stroke="black" points="180.5,-0.5 180.5,-90.5 324.5,-90.5 324.5,-0.5 180.5,-0.5"/>
<text text-anchor="start" x="188.5" y="-78.5" font-family="Helvetica,sans-Serif" font-size="10.00">ManyMatrixAddresses</text>
<text text-anchor="start" x="188.5" y="-67.5" font-family="Helvetica,sans-Serif" font-size="10.00">&lt; NumBanks, NumRows,</text>
<text text-anchor="middle" x="252.5" y="-56.5" font-family="Helvetica,sans-Serif" font-size="10.00"> NumCols &gt;</text>
<polyline fill="none" stroke="black" points="180.5,-49.5 324.5,-49.5 "/>
<text text-anchor="middle" x="252.5" y="-37.5" font-family="Helvetica,sans-Serif" font-size="10.00"> </text>
<polyline fill="none" stroke="black" points="180.5,-30.5 324.5,-30.5 "/>
<text text-anchor="start" x="188.5" y="-18.5" font-family="Helvetica,sans-Serif" font-size="10.00">+ ManyMatrixAddresses()</text>
<text text-anchor="start" x="188.5" y="-7.5" font-family="Helvetica,sans-Serif" font-size="10.00">+ getActiveAddress()</text>
</a>
</g>
</g>
<!-- Node2 -->
<g id="node2" class="node">
<title>Node2</title>
<g id="a_node2"><a xlink:href="../../dd/d3a/classManyAddresses__Base.html" target="_top" xlink:title="A base class for all MIDIOutputElements that can have one of many addresses.">
<polygon fill="white" stroke="black" points="21.5,-210 21.5,-267 163.5,-267 163.5,-210 21.5,-210"/>
<text text-anchor="middle" x="92.5" y="-255" font-family="Helvetica,sans-Serif" font-size="10.00">ManyAddresses_Base</text>
<polyline fill="none" stroke="black" points="21.5,-248 163.5,-248 "/>
<text text-anchor="middle" x="92.5" y="-236" font-family="Helvetica,sans-Serif" font-size="10.00"> </text>
<polyline fill="none" stroke="black" points="21.5,-229 163.5,-229 "/>
<text text-anchor="start" x="29.5" y="-217" font-family="Helvetica,sans-Serif" font-size="10.00">+ ManyAddresses_Base()</text>
</a>
</g>
</g>
<!-- Node2&#45;&gt;Node1 -->
<g id="edge1" class="edge">
<title>Node2&#45;&gt;Node1</title>
<path fill="none" stroke="midnightblue" d="M120.52,-201.93C135.71,-182.82 154.93,-158.95 172.5,-138 185.52,-122.48 200.02,-105.73 213.07,-90.86"/>
<polygon fill="none" stroke="midnightblue" points="117.74,-199.79 114.27,-209.8 123.23,-204.14 117.74,-199.79"/>
</g>
<!-- Node3 -->
<g id="node3" class="node">
<title>Node3</title>
<g id="a_node3"><a xlink:href="../../d2/d4e/classOutputBankableMIDIAddress__Base.html" target="_top" xlink:title="Class for keeping track of the active bank, and allows locking of the bank setting.">
<polygon fill="white" stroke="black" points="0,-419.5 0,-542.5 185,-542.5 185,-419.5 0,-419.5"/>
<text text-anchor="middle" x="92.5" y="-530.5" font-family="Helvetica,sans-Serif" font-size="10.00">OutputBankableMIDIAddress_Base</text>
<polyline fill="none" stroke="black" points="0,-523.5 185,-523.5 "/>
<text text-anchor="start" x="8" y="-511.5" font-family="Helvetica,sans-Serif" font-size="10.00">&#45; lockedSetting</text>
<text text-anchor="start" x="8" y="-500.5" font-family="Helvetica,sans-Serif" font-size="10.00">&#45; UNLOCKED</text>
<polyline fill="none" stroke="black" points="0,-493.5 185,-493.5 "/>
<text text-anchor="start" x="8" y="-481.5" font-family="Helvetica,sans-Serif" font-size="10.00">+ getRawBankSetting()</text>
<text text-anchor="start" x="8" y="-470.5" font-family="Helvetica,sans-Serif" font-size="10.00">+ getSelection()</text>
<text text-anchor="start" x="8" y="-459.5" font-family="Helvetica,sans-Serif" font-size="10.00">+ lock()</text>
<text text-anchor="start" x="8" y="-448.5" font-family="Helvetica,sans-Serif" font-size="10.00">+ unlock()</text>
<text text-anchor="start" x="8" y="-437.5" font-family="Helvetica,sans-Serif" font-size="10.00"># OutputBankableMIDIAddress</text>
<text text-anchor="start" x="8" y="-426.5" font-family="Helvetica,sans-Serif" font-size="10.00">_Base()</text>
</a>
</g>
</g>
<!-- Node3&#45;&gt;Node2 -->
<g id="edge2" class="edge">
<title>Node3&#45;&gt;Node2</title>
<path fill="none" stroke="midnightblue" d="M92.5,-409.06C92.5,-361.53 92.5,-301.56 92.5,-267.17"/>
<polygon fill="none" stroke="midnightblue" points="89,-409.31 92.5,-419.31 96,-409.31 89,-409.31"/>
</g>
<!-- Node4 -->
<g id="node4" class="node">
<title>Node4</title>
<g id="a_node4"><a xlink:href="../../d9/d36/classOutputBank.html" target="_top" xlink:title="A class for changing the address of BankableMIDIOutputs.">
<polygon fill="white" stroke="black" points="29.5,-623.5 29.5,-768.5 155.5,-768.5 155.5,-623.5 29.5,-623.5"/>
<text text-anchor="middle" x="92.5" y="-756.5" font-family="Helvetica,sans-Serif" font-size="10.00">OutputBank</text>
<polyline fill="none" stroke="black" points="29.5,-749.5 155.5,-749.5 "/>
<text text-anchor="start" x="37.5" y="-737.5" font-family="Helvetica,sans-Serif" font-size="10.00">&#45; tracksPerBank</text>
<text text-anchor="start" x="37.5" y="-726.5" font-family="Helvetica,sans-Serif" font-size="10.00">&#45; bankSetting</text>
<text text-anchor="start" x="37.5" y="-715.5" font-family="Helvetica,sans-Serif" font-size="10.00">&#45; selectionOffset</text>
<polyline fill="none" stroke="black" points="29.5,-708.5 155.5,-708.5 "/>
<text text-anchor="start" x="37.5" y="-696.5" font-family="Helvetica,sans-Serif" font-size="10.00">+ OutputBank()</text>
<text text-anchor="start" x="37.5" y="-685.5" font-family="Helvetica,sans-Serif" font-size="10.00">+ select()</text>
<text text-anchor="start" x="37.5" y="-674.5" font-family="Helvetica,sans-Serif" font-size="10.00">+ getSelection()</text>
<text text-anchor="start" x="37.5" y="-663.5" font-family="Helvetica,sans-Serif" font-size="10.00">+ getSelectionOffset()</text>
<text text-anchor="start" x="37.5" y="-652.5" font-family="Helvetica,sans-Serif" font-size="10.00">+ getTracksPerBank()</text>
<text text-anchor="start" x="37.5" y="-641.5" font-family="Helvetica,sans-Serif" font-size="10.00">+ getOffsetOfSetting()</text>
<text text-anchor="start" x="37.5" y="-630.5" font-family="Helvetica,sans-Serif" font-size="10.00">+ getOffset()</text>
</a>
</g>
</g>
<!-- Node4&#45;&gt;Node3 -->
<g id="edge3" class="edge">
<title>Node4&#45;&gt;Node3</title>
<path fill="none" stroke="#404040" d="M92.5,-623.48C92.5,-601.35 92.5,-576.96 92.5,-554.75"/>
<polygon fill="none" stroke="#404040" points="92.5,-554.66 88.5,-548.66 92.5,-542.66 96.5,-548.66 92.5,-554.66"/>
<text text-anchor="middle" x="110.5" y="-597" font-family="Helvetica,sans-Serif" font-size="10.00"> #bank</text>
</g>
<!-- Node5 -->
<g id="node5" class="node">
<title>Node5</title>
<g id="a_node5"><a xlink:href="../../d0/d32/structAH_1_1Array.html" target="_top" xlink:title=" ">
<polygon fill="white" stroke="black" points="181.5,-138.5 181.5,-338.5 323.5,-338.5 323.5,-138.5 181.5,-138.5"/>
<text text-anchor="start" x="189.5" y="-326.5" font-family="Helvetica,sans-Serif" font-size="10.00">Array&lt; AddressMatrix</text>
<text text-anchor="start" x="189.5" y="-315.5" font-family="Helvetica,sans-Serif" font-size="10.00">&lt; NumRows, NumCols &gt;,</text>
<text text-anchor="middle" x="252.5" y="-304.5" font-family="Helvetica,sans-Serif" font-size="10.00"> NumBanks &gt;</text>
<polyline fill="none" stroke="black" points="181.5,-297.5 323.5,-297.5 "/>
<text text-anchor="start" x="189.5" y="-285.5" font-family="Helvetica,sans-Serif" font-size="10.00">+ data</text>
<text text-anchor="start" x="189.5" y="-274.5" font-family="Helvetica,sans-Serif" font-size="10.00">+ length</text>
<polyline fill="none" stroke="black" points="181.5,-267.5 323.5,-267.5 "/>
<text text-anchor="start" x="189.5" y="-255.5" font-family="Helvetica,sans-Serif" font-size="10.00">+ operator[]()</text>
<text text-anchor="start" x="189.5" y="-244.5" font-family="Helvetica,sans-Serif" font-size="10.00">+ operator[]()</text>
<text text-anchor="start" x="189.5" y="-233.5" font-family="Helvetica,sans-Serif" font-size="10.00">+ begin()</text>
<text text-anchor="start" x="189.5" y="-222.5" font-family="Helvetica,sans-Serif" font-size="10.00">+ begin()</text>
<text text-anchor="start" x="189.5" y="-211.5" font-family="Helvetica,sans-Serif" font-size="10.00">+ end()</text>
<text text-anchor="start" x="189.5" y="-200.5" font-family="Helvetica,sans-Serif" font-size="10.00">+ end()</text>
<text text-anchor="start" x="189.5" y="-189.5" font-family="Helvetica,sans-Serif" font-size="10.00">+ operator==()</text>
<text text-anchor="start" x="189.5" y="-178.5" font-family="Helvetica,sans-Serif" font-size="10.00">+ operator!=()</text>
<text text-anchor="start" x="189.5" y="-167.5" font-family="Helvetica,sans-Serif" font-size="10.00">+ slice()</text>
<text text-anchor="start" x="189.5" y="-156.5" font-family="Helvetica,sans-Serif" font-size="10.00">+ slice()</text>
<text text-anchor="start" x="189.5" y="-145.5" font-family="Helvetica,sans-Serif" font-size="10.00">+ cslice()</text>
</a>
</g>
</g>
<!-- Node5&#45;&gt;Node1 -->
<g id="edge4" class="edge">
<title>Node5&#45;&gt;Node1</title>
<path fill="none" stroke="#404040" d="M252.5,-138.36C252.5,-126.22 252.5,-114.16 252.5,-102.96"/>
<polygon fill="none" stroke="#404040" points="252.5,-102.72 248.5,-96.72 252.5,-90.72 256.5,-96.72 252.5,-102.72"/>
<text text-anchor="middle" x="281" y="-112" font-family="Helvetica,sans-Serif" font-size="10.00"> &#45;addresses</text>
</g>
<!-- Node6 -->
<g id="node6" class="node">
<title>Node6</title>
<g id="a_node6"><a xlink:href="../../d0/d32/structAH_1_1Array.html" target="_top" xlink:title=" ">
<polygon fill="white" stroke="black" points="342,-149.5 342,-327.5 489,-327.5 489,-149.5 342,-149.5"/>
<text text-anchor="start" x="350" y="-315.5" font-family="Helvetica,sans-Serif" font-size="10.00">Array&lt; MIDIChannelCable,</text>
<text text-anchor="middle" x="415.5" y="-304.5" font-family="Helvetica,sans-Serif" font-size="10.00"> NumBanks &gt;</text>
<polyline fill="none" stroke="black" points="342,-297.5 489,-297.5 "/>
<text text-anchor="start" x="350" y="-285.5" font-family="Helvetica,sans-Serif" font-size="10.00">+ length</text>
<polyline fill="none" stroke="black" points="342,-278.5 489,-278.5 "/>
<text text-anchor="start" x="350" y="-266.5" font-family="Helvetica,sans-Serif" font-size="10.00">+ operator[]()</text>
<text text-anchor="start" x="350" y="-255.5" font-family="Helvetica,sans-Serif" font-size="10.00">+ operator[]()</text>
<text text-anchor="start" x="350" y="-244.5" font-family="Helvetica,sans-Serif" font-size="10.00">+ begin()</text>
<text text-anchor="start" x="350" y="-233.5" font-family="Helvetica,sans-Serif" font-size="10.00">+ begin()</text>
<text text-anchor="start" x="350" y="-222.5" font-family="Helvetica,sans-Serif" font-size="10.00">+ end()</text>
<text text-anchor="start" x="350" y="-211.5" font-family="Helvetica,sans-Serif" font-size="10.00">+ end()</text>
<text text-anchor="start" x="350" y="-200.5" font-family="Helvetica,sans-Serif" font-size="10.00">+ operator==()</text>
<text text-anchor="start" x="350" y="-189.5" font-family="Helvetica,sans-Serif" font-size="10.00">+ operator!=()</text>
<text text-anchor="start" x="350" y="-178.5" font-family="Helvetica,sans-Serif" font-size="10.00">+ slice()</text>
<text text-anchor="start" x="350" y="-167.5" font-family="Helvetica,sans-Serif" font-size="10.00">+ slice()</text>
<text text-anchor="start" x="350" y="-156.5" font-family="Helvetica,sans-Serif" font-size="10.00">+ cslice()</text>
</a>
</g>
</g>
<!-- Node6&#45;&gt;Node1 -->
<g id="edge5" class="edge">
<title>Node6&#45;&gt;Node1</title>
<path fill="none" stroke="#404040" d="M347.55,-149.42C336.4,-135.7 324.8,-121.82 313.5,-109 310.76,-105.89 307.91,-102.73 305.01,-99.57"/>
<polygon fill="none" stroke="#404040" points="304.91,-99.47 297.89,-97.81 296.72,-90.7 303.74,-92.35 304.91,-99.47"/>
<text text-anchor="middle" x="355" y="-112" font-family="Helvetica,sans-Serif" font-size="10.00"> &#45;channelCNs</text>
</g>
<!-- Node7 -->
<g id="node7" class="node">
<title>Node7</title>
<g id="a_node7"><a xlink:href="../../d7/d46/classMIDIChannelCable.html" target="_top" xlink:title="A class for saving a MIDI channel and cable number.">
<polygon fill="white" stroke="black" points="347.5,-386.5 347.5,-575.5 483.5,-575.5 483.5,-386.5 347.5,-386.5"/>
<text text-anchor="middle" x="415.5" y="-563.5" font-family="Helvetica,sans-Serif" font-size="10.00">MIDIChannelCable</text>
<polyline fill="none" stroke="black" points="347.5,-556.5 483.5,-556.5 "/>
<text text-anchor="start" x="355.5" y="-544.5" font-family="Helvetica,sans-Serif" font-size="10.00">&#45; addresses</text>
<polyline fill="none" stroke="black" points="347.5,-537.5 483.5,-537.5 "/>
<text text-anchor="start" x="355.5" y="-525.5" font-family="Helvetica,sans-Serif" font-size="10.00"># MIDIChannelCable()</text>
<text text-anchor="start" x="355.5" y="-514.5" font-family="Helvetica,sans-Serif" font-size="10.00">* MIDIChannelCable()</text>
<text text-anchor="start" x="355.5" y="-503.5" font-family="Helvetica,sans-Serif" font-size="10.00">* MIDIChannelCable()</text>
<text text-anchor="start" x="355.5" y="-492.5" font-family="Helvetica,sans-Serif" font-size="10.00">* invalid()</text>
<text text-anchor="start" x="355.5" y="-481.5" font-family="Helvetica,sans-Serif" font-size="10.00">* getChannel()</text>
<text text-anchor="start" x="355.5" y="-470.5" font-family="Helvetica,sans-Serif" font-size="10.00">* getRawChannel()</text>
<text text-anchor="start" x="355.5" y="-459.5" font-family="Helvetica,sans-Serif" font-size="10.00">* getCableNumber()</text>
<text text-anchor="start" x="355.5" y="-448.5" font-family="Helvetica,sans-Serif" font-size="10.00">* getRawCableNumber()</text>
<text text-anchor="start" x="355.5" y="-437.5" font-family="Helvetica,sans-Serif" font-size="10.00">* operator==()</text>
<text text-anchor="start" x="355.5" y="-426.5" font-family="Helvetica,sans-Serif" font-size="10.00">* operator!=()</text>
<text text-anchor="start" x="355.5" y="-415.5" font-family="Helvetica,sans-Serif" font-size="10.00">* isValid()</text>
<text text-anchor="start" x="355.5" y="-404.5" font-family="Helvetica,sans-Serif" font-size="10.00">* operator bool()</text>
<text text-anchor="start" x="355.5" y="-393.5" font-family="Helvetica,sans-Serif" font-size="10.00">* matchSingle()</text>
</a>
</g>
</g>
<!-- Node7&#45;&gt;Node6 -->
<g id="edge6" class="edge">
<title>Node7&#45;&gt;Node6</title>
<path fill="none" stroke="#404040" d="M415.5,-386.33C415.5,-371.13 415.5,-355.34 415.5,-339.99"/>
<polygon fill="none" stroke="#404040" points="415.5,-339.8 411.5,-333.8 415.5,-327.8 419.5,-333.8 415.5,-339.8"/>
<text text-anchor="middle" x="432.5" y="-360" font-family="Helvetica,sans-Serif" font-size="10.00"> +data</text>
</g>
</g>
</svg>
