<?xml version="1.0" encoding="UTF-8" standalone="no"?>
<!DOCTYPE svg PUBLIC "-//W3C//DTD SVG 1.1//EN"
 "http://www.w3.org/Graphics/SVG/1.1/DTD/svg11.dtd">
<!-- Generated by graphviz version 2.43.0 (0)
 -->
<!-- Title: FilteredAnalog.hpp Pages: 1 -->
<svg width="1757pt" height="775pt"
 viewBox="0.00 0.00 1756.50 775.00" xmlns="http://www.w3.org/2000/svg" xmlns:xlink="http://www.w3.org/1999/xlink">
<g id="graph0" class="graph" transform="scale(1 1) rotate(0) translate(4 771)">
<title>FilteredAnalog.hpp</title>
<!-- Node1 -->
<g id="Node000001" class="node">
<title>Node1</title>
<g id="a_Node000001"><a xlink:title=" ">
<polygon fill="#999999" stroke="#666666" points="887,-767 779,-767 779,-748 887,-748 887,-767"/>
<text text-anchor="middle" x="833" y="-755" font-family="Helvetica,sans-Serif" font-size="10.00">FilteredAnalog.hpp</text>
</a>
</g>
</g>
<!-- Node2 -->
<g id="Node000002" class="node">
<title>Node2</title>
<g id="a_Node000002"><a xlink:href="../../d1/d65/Warnings_8hpp.html" target="_top" xlink:title=" ">
<polygon fill="white" stroke="#666666" points="730.5,-19 587.5,-19 587.5,0 730.5,0 730.5,-19"/>
<text text-anchor="middle" x="659" y="-7" font-family="Helvetica,sans-Serif" font-size="10.00">AH/Settings/Warnings.hpp</text>
</a>
</g>
</g>
<!-- Node1&#45;&gt;Node2 -->
<g id="edge1_Node000001_Node000002" class="edge">
<title>Node1&#45;&gt;Node2</title>
<g id="a_edge1_Node000001_Node000002"><a xlink:title=" ">
<path fill="none" stroke="#63b8ff" d="M778.91,-755.79C639.75,-753.52 272.07,-744.53 155,-712 80.31,-691.25 0,-709.52 0,-632 0,-632 0,-632 0,-118.5 0,-42.41 84.99,-72.67 159,-55 303.44,-20.51 477.12,-12.22 577.12,-10.53"/>
<polygon fill="#63b8ff" stroke="#63b8ff" points="577.21,-14.03 587.16,-10.38 577.11,-7.03 577.21,-14.03"/>
</a>
</g>
</g>
<!-- Node3 -->
<g id="Node000003" class="node">
<title>Node3</title>
<g id="a_Node000003"><a xlink:href="../../d3/df0/EMA_8hpp.html" target="_top" xlink:title=" ">
<polygon fill="white" stroke="#666666" points="138,-294 28,-294 28,-275 138,-275 138,-294"/>
<text text-anchor="middle" x="83" y="-282" font-family="Helvetica,sans-Serif" font-size="10.00">AH/Filters/EMA.hpp</text>
</a>
</g>
</g>
<!-- Node1&#45;&gt;Node3 -->
<g id="edge2_Node000001_Node000003" class="edge">
<title>Node1&#45;&gt;Node3</title>
<g id="a_edge2_Node000001_Node000003"><a xlink:title=" ">
<path fill="none" stroke="#63b8ff" d="M778.57,-755.12C657.59,-751.57 369.73,-740.32 277,-712 207.72,-690.84 135,-704.44 135,-632 135,-632 135,-632 135,-393.5 135,-358.15 112.11,-322.16 96.7,-301.95"/>
<polygon fill="#63b8ff" stroke="#63b8ff" points="99.4,-299.73 90.45,-294.06 93.92,-304.07 99.4,-299.73"/>
</a>
</g>
</g>
<!-- Node6 -->
<g id="Node000006" class="node">
<title>Node6</title>
<g id="a_Node000006"><a xlink:title=" ">
<polygon fill="#e0e0e0" stroke="#999999" points="630.5,-129 523.5,-129 523.5,-110 630.5,-110 630.5,-129"/>
<text text-anchor="middle" x="577" y="-117" font-family="Helvetica,sans-Serif" font-size="10.00">AH/STL/type_traits</text>
</a>
</g>
</g>
<!-- Node1&#45;&gt;Node6 -->
<g id="edge71_Node000001_Node000006" class="edge">
<title>Node1&#45;&gt;Node6</title>
<g id="a_edge71_Node000001_Node000006"><a xlink:title=" ">
<path fill="none" stroke="#63b8ff" d="M778.98,-753.38C656.85,-744.84 370,-715.86 370,-632 370,-632 370,-632 370,-564 370,-381.32 516,-192.67 562.77,-136.93"/>
<polygon fill="#63b8ff" stroke="#63b8ff" points="565.58,-139.03 569.39,-129.14 560.24,-134.5 565.58,-139.03"/>
</a>
</g>
</g>
<!-- Node7 -->
<g id="Node000007" class="node">
<title>Node7</title>
<g id="a_Node000007"><a xlink:href="../../d3/d09/Hysteresis_8hpp.html" target="_top" xlink:title=" ">
<polygon fill="white" stroke="#666666" points="296,-294 156,-294 156,-275 296,-275 296,-294"/>
<text text-anchor="middle" x="226" y="-282" font-family="Helvetica,sans-Serif" font-size="10.00">AH/Filters/Hysteresis.hpp</text>
</a>
</g>
</g>
<!-- Node1&#45;&gt;Node7 -->
<g id="edge7_Node000001_Node000007" class="edge">
<title>Node1&#45;&gt;Node7</title>
<g id="a_edge7_Node000001_Node000007"><a xlink:title=" ">
<path fill="none" stroke="#63b8ff" d="M778.72,-755.33C670.42,-752.37 431.48,-742.49 356,-712 303.23,-690.68 256,-688.92 256,-632 256,-632 256,-632 256,-393.5 256,-360.87 243.13,-324.65 234.25,-303.55"/>
<polygon fill="#63b8ff" stroke="#63b8ff" points="237.39,-301.99 230.17,-294.23 230.98,-304.8 237.39,-301.99"/>
</a>
</g>
</g>
<!-- Node8 -->
<g id="Node000008" class="node">
<title>Node8</title>
<g id="a_Node000008"><a xlink:href="../../dd/ddf/ExtendedInputOutput_8hpp.html" target="_top" xlink:title=" ">
<polygon fill="white" stroke="#666666" points="988.5,-712 811.5,-712 811.5,-682 988.5,-682 988.5,-712"/>
<text text-anchor="start" x="819.5" y="-700" font-family="Helvetica,sans-Serif" font-size="10.00">AH/Hardware/ExtendedInput</text>
<text text-anchor="middle" x="900" y="-689" font-family="Helvetica,sans-Serif" font-size="10.00">Output/ExtendedInputOutput.hpp</text>
</a>
</g>
</g>
<!-- Node1&#45;&gt;Node8 -->
<g id="edge10_Node000001_Node000008" class="edge">
<title>Node1&#45;&gt;Node8</title>
<g id="a_edge10_Node000001_Node000008"><a xlink:title=" ">
<path fill="none" stroke="#63b8ff" d="M842.89,-747.87C851.64,-740.22 864.77,-728.76 876.24,-718.75"/>
<polygon fill="#63b8ff" stroke="#63b8ff" points="878.6,-721.33 883.83,-712.11 874,-716.06 878.6,-721.33"/>
</a>
</g>
</g>
<!-- Node10 -->
<g id="Node000010" class="node">
<title>Node10</title>
<g id="a_Node000010"><a xlink:href="../../d4/d35/Hardware-Types_8hpp.html" target="_top" xlink:title=" ">
<polygon fill="white" stroke="#666666" points="813.5,-580 682.5,-580 682.5,-550 813.5,-550 813.5,-580"/>
<text text-anchor="start" x="690.5" y="-568" font-family="Helvetica,sans-Serif" font-size="10.00">AH/Hardware/Hardware</text>
<text text-anchor="middle" x="748" y="-557" font-family="Helvetica,sans-Serif" font-size="10.00">&#45;Types.hpp</text>
</a>
</g>
</g>
<!-- Node1&#45;&gt;Node10 -->
<g id="edge64_Node000001_Node000010" class="edge">
<title>Node1&#45;&gt;Node10</title>
<g id="a_edge64_Node000001_Node000010"><a xlink:title=" ">
<path fill="none" stroke="#63b8ff" d="M826.15,-747.68C819.6,-738.97 809.76,-725.08 803,-712 781.75,-670.85 764.35,-619.53 755.13,-589.99"/>
<polygon fill="#63b8ff" stroke="#63b8ff" points="758.4,-588.68 752.12,-580.15 751.7,-590.74 758.4,-588.68"/>
</a>
</g>
</g>
<!-- Node17 -->
<g id="Node000017" class="node">
<title>Node17</title>
<g id="a_Node000017"><a xlink:href="../../d7/d79/MinMaxFix_8hpp.html" target="_top" xlink:title=" ">
<polygon fill="white" stroke="#666666" points="1502,-129 1366,-129 1366,-110 1502,-110 1502,-129"/>
<text text-anchor="middle" x="1434" y="-117" font-family="Helvetica,sans-Serif" font-size="10.00">AH/Math/MinMaxFix.hpp</text>
</a>
</g>
</g>
<!-- Node1&#45;&gt;Node17 -->
<g id="edge70_Node000001_Node000017" class="edge">
<title>Node1&#45;&gt;Node17</title>
<g id="a_edge70_Node000001_Node000017"><a xlink:title=" ">
<path fill="none" stroke="#63b8ff" d="M887,-753.85C1067.27,-744.3 1637,-708.1 1637,-632 1637,-632 1637,-632 1637,-503.5 1637,-430.79 1623,-413.21 1623,-340.5 1623,-340.5 1623,-340.5 1623,-228.5 1623,-171.4 1557.16,-144.08 1503.2,-131.28"/>
<polygon fill="#63b8ff" stroke="#63b8ff" points="1503.81,-127.83 1493.28,-129.05 1502.27,-134.66 1503.81,-127.83"/>
</a>
</g>
</g>
<!-- Node21 -->
<g id="Node000021" class="node">
<title>Node21</title>
<g id="a_Node000021"><a xlink:href="../../de/dd1/AH_2Settings_2SettingsWrapper_8hpp.html" target="_top" xlink:title=" ">
<polygon fill="white" stroke="#666666" points="1106,-349 928,-349 928,-330 1106,-330 1106,-349"/>
<text text-anchor="middle" x="1017" y="-337" font-family="Helvetica,sans-Serif" font-size="10.00">AH/Settings/SettingsWrapper.hpp</text>
</a>
</g>
</g>
<!-- Node1&#45;&gt;Node21 -->
<g id="edge73_Node000001_Node000021" class="edge">
<title>Node1&#45;&gt;Node21</title>
<g id="a_edge73_Node000001_Node000021"><a xlink:title=" ">
<path fill="none" stroke="#63b8ff" d="M887.15,-754.6C1017.69,-748.55 1339,-724.28 1339,-632 1339,-632 1339,-632 1339,-448.5 1339,-396.82 1188.02,-365.28 1092.83,-350.52"/>
<polygon fill="#63b8ff" stroke="#63b8ff" points="1093.35,-347.06 1082.94,-349.02 1092.3,-353.98 1093.35,-347.06"/>
</a>
</g>
</g>
<!-- Node34 -->
<g id="Node000034" class="node">
<title>Node34</title>
<g id="a_Node000034"><a xlink:href="../../d5/dee/IncreaseBitDepth_8hpp.html" target="_top" xlink:title=" ">
<polygon fill="white" stroke="#666666" points="1495.5,-294 1328.5,-294 1328.5,-275 1495.5,-275 1495.5,-294"/>
<text text-anchor="middle" x="1412" y="-282" font-family="Helvetica,sans-Serif" font-size="10.00">AH/Math/IncreaseBitDepth.hpp</text>
</a>
</g>
</g>
<!-- Node1&#45;&gt;Node34 -->
<g id="edge65_Node000001_Node000034" class="edge">
<title>Node1&#45;&gt;Node34</title>
<g id="a_edge65_Node000001_Node000034"><a xlink:title=" ">
<path fill="none" stroke="#63b8ff" d="M887.14,-755.93C1027.99,-752.98 1395,-735.37 1395,-632 1395,-632 1395,-632 1395,-393.5 1395,-361.8 1402.23,-325.51 1407.26,-304.09"/>
<polygon fill="#63b8ff" stroke="#63b8ff" points="1410.73,-304.65 1409.71,-294.11 1403.93,-302.99 1410.73,-304.65"/>
</a>
</g>
</g>
<!-- Node35 -->
<g id="Node000035" class="node">
<title>Node35</title>
<g id="a_Node000035"><a xlink:title=" ">
<polygon fill="#e0e0e0" stroke="#999999" points="1748.5,-706.5 1665.5,-706.5 1665.5,-687.5 1748.5,-687.5 1748.5,-706.5"/>
<text text-anchor="middle" x="1707" y="-694.5" font-family="Helvetica,sans-Serif" font-size="10.00">AH/STL/utility</text>
</a>
</g>
</g>
<!-- Node1&#45;&gt;Node35 -->
<g id="edge72_Node000001_Node000035" class="edge">
<title>Node1&#45;&gt;Node35</title>
<g id="a_edge72_Node000001_Node000035"><a xlink:title=" ">
<path fill="none" stroke="#63b8ff" d="M887.44,-757.11C1019.29,-757.8 1365.86,-755 1651,-712 1656.39,-711.19 1662.01,-710.09 1667.53,-708.86"/>
<polygon fill="#63b8ff" stroke="#63b8ff" points="1668.36,-712.26 1677.28,-706.55 1666.74,-705.45 1668.36,-712.26"/>
</a>
</g>
</g>
<!-- Node3&#45;&gt;Node2 -->
<g id="edge3_Node000003_Node000002" class="edge">
<title>Node3&#45;&gt;Node2</title>
<g id="a_edge3_Node000003_Node000002"><a xlink:title=" ">
<path fill="none" stroke="#63b8ff" d="M91.88,-274.71C99.98,-266.24 111.77,-252.71 119,-239 132.75,-212.95 138,-204.96 138,-175.5 138,-175.5 138,-175.5 138,-118.5 138,-77.47 167.68,-72.03 205,-55 269.28,-25.66 464.51,-15.6 576.91,-12.2"/>
<polygon fill="#63b8ff" stroke="#63b8ff" points="577.3,-15.69 587.19,-11.9 577.1,-8.69 577.3,-15.69"/>
</a>
</g>
</g>
<!-- Node4 -->
<g id="Node000004" class="node">
<title>Node4</title>
<g id="a_Node000004"><a xlink:title=" ">
<polygon fill="#e0e0e0" stroke="#999999" points="295.5,-239 242.5,-239 242.5,-220 295.5,-220 295.5,-239"/>
<text text-anchor="middle" x="269" y="-227" font-family="Helvetica,sans-Serif" font-size="10.00">stdint.h</text>
</a>
</g>
</g>
<!-- Node3&#45;&gt;Node4 -->
<g id="edge4_Node000003_Node000004" class="edge">
<title>Node3&#45;&gt;Node4</title>
<g id="a_edge4_Node000003_Node000004"><a xlink:title=" ">
<path fill="none" stroke="#63b8ff" d="M112.88,-274.98C145.41,-265.72 197.44,-250.89 232.39,-240.93"/>
<polygon fill="#63b8ff" stroke="#63b8ff" points="233.55,-244.24 242.21,-238.13 231.63,-237.51 233.55,-244.24"/>
</a>
</g>
</g>
<!-- Node5 -->
<g id="Node000005" class="node">
<title>Node5</title>
<g id="a_Node000005"><a xlink:title=" ">
<polygon fill="#e0e0e0" stroke="#999999" points="110,-239 28,-239 28,-220 110,-220 110,-239"/>
<text text-anchor="middle" x="69" y="-227" font-family="Helvetica,sans-Serif" font-size="10.00">AH/STL/limits</text>
</a>
</g>
</g>
<!-- Node3&#45;&gt;Node5 -->
<g id="edge5_Node000003_Node000005" class="edge">
<title>Node3&#45;&gt;Node5</title>
<g id="a_edge5_Node000003_Node000005"><a xlink:title=" ">
<path fill="none" stroke="#63b8ff" d="M80.69,-274.75C78.83,-267.72 76.16,-257.62 73.85,-248.84"/>
<polygon fill="#63b8ff" stroke="#63b8ff" points="77.21,-247.86 71.27,-239.09 70.44,-249.65 77.21,-247.86"/>
</a>
</g>
</g>
<!-- Node3&#45;&gt;Node6 -->
<g id="edge6_Node000003_Node000006" class="edge">
<title>Node3&#45;&gt;Node6</title>
<g id="a_edge6_Node000003_Node000006"><a xlink:title=" ">
<path fill="none" stroke="#63b8ff" d="M101.33,-274.98C129.47,-262.08 185.21,-237.27 234,-220 339.42,-182.69 466.54,-148.56 532.46,-131.66"/>
<polygon fill="#63b8ff" stroke="#63b8ff" points="533.68,-134.96 542.51,-129.09 531.95,-128.17 533.68,-134.96"/>
</a>
</g>
</g>
<!-- Node7&#45;&gt;Node2 -->
<g id="edge8_Node000007_Node000002" class="edge">
<title>Node7&#45;&gt;Node2</title>
<g id="a_edge8_Node000007_Node000002"><a xlink:title=" ">
<path fill="none" stroke="#63b8ff" d="M218.84,-274.89C205.01,-257.36 176,-215.79 176,-175.5 176,-175.5 176,-175.5 176,-118.5 176,-37.24 439.66,-17.1 577.38,-12.12"/>
<polygon fill="#63b8ff" stroke="#63b8ff" points="577.6,-15.62 587.47,-11.78 577.36,-8.62 577.6,-15.62"/>
</a>
</g>
</g>
<!-- Node7&#45;&gt;Node4 -->
<g id="edge9_Node000007_Node000004" class="edge">
<title>Node7&#45;&gt;Node4</title>
<g id="a_edge9_Node000007_Node000004"><a xlink:title=" ">
<path fill="none" stroke="#63b8ff" d="M233.1,-274.75C239.17,-267.26 248.09,-256.28 255.51,-247.13"/>
<polygon fill="#63b8ff" stroke="#63b8ff" points="258.45,-249.06 262.03,-239.09 253.01,-244.65 258.45,-249.06"/>
</a>
</g>
</g>
<!-- Node8&#45;&gt;Node2 -->
<g id="edge63_Node000008_Node000002" class="edge">
<title>Node8&#45;&gt;Node2</title>
<g id="a_edge63_Node000008_Node000002"><a xlink:title=" ">
<path fill="none" stroke="#63b8ff" d="M811.25,-693.9C651.5,-687.68 332,-663.11 332,-566 332,-566 332,-566 332,-503.5 332,-429.84 362,-414.16 362,-340.5 362,-340.5 362,-340.5 362,-118.5 362,-82.3 381.89,-73.5 413,-55 440.3,-38.77 516.78,-26.55 577.29,-19.06"/>
<polygon fill="#63b8ff" stroke="#63b8ff" points="577.74,-22.54 587.24,-17.86 576.89,-15.59 577.74,-22.54"/>
</a>
</g>
</g>
<!-- Node9 -->
<g id="Node000009" class="node">
<title>Node9</title>
<g id="a_Node000009"><a xlink:href="../../d2/d3c/Arduino-Hardware-Types_8hpp.html" target="_top" xlink:title=" ">
<polygon fill="white" stroke="#666666" points="1584,-646 1462,-646 1462,-616 1584,-616 1584,-646"/>
<text text-anchor="start" x="1470" y="-634" font-family="Helvetica,sans-Serif" font-size="10.00">AH/Hardware/Arduino</text>
<text text-anchor="middle" x="1523" y="-623" font-family="Helvetica,sans-Serif" font-size="10.00">&#45;Hardware&#45;Types.hpp</text>
</a>
</g>
</g>
<!-- Node8&#45;&gt;Node9 -->
<g id="edge11_Node000008_Node000009" class="edge">
<title>Node8&#45;&gt;Node9</title>
<g id="a_edge11_Node000008_Node000009"><a xlink:title=" ">
<path fill="none" stroke="#63b8ff" d="M988.6,-686.9C1113.17,-674.1 1337.6,-651.05 1451.92,-639.3"/>
<polygon fill="#63b8ff" stroke="#63b8ff" points="1452.37,-642.77 1461.96,-638.27 1451.65,-635.81 1452.37,-642.77"/>
</a>
</g>
</g>
<!-- Node15 -->
<g id="Node000015" class="node">
<title>Node15</title>
<g id="a_Node000015"><a xlink:href="../../d6/db0/AH_2Settings_2NamespaceSettings_8hpp.html" target="_top" xlink:title=" ">
<polygon fill="white" stroke="#666666" points="1011.5,-74 816.5,-74 816.5,-55 1011.5,-55 1011.5,-74"/>
<text text-anchor="middle" x="914" y="-62" font-family="Helvetica,sans-Serif" font-size="10.00">AH/Settings/NamespaceSettings.hpp</text>
</a>
</g>
</g>
<!-- Node8&#45;&gt;Node15 -->
<g id="edge62_Node000008_Node000015" class="edge">
<title>Node8&#45;&gt;Node15</title>
<g id="a_edge62_Node000008_Node000015"><a xlink:title=" ">
<path fill="none" stroke="#63b8ff" d="M900,-681.96C900,-658.12 900,-608.2 900,-566 900,-566 900,-566 900,-338.5 900,-245.26 906.36,-222.12 911,-129 911.75,-113.98 912.55,-96.95 913.14,-84.32"/>
<polygon fill="#63b8ff" stroke="#63b8ff" points="916.64,-84.28 913.61,-74.13 909.65,-83.96 916.64,-84.28"/>
</a>
</g>
</g>
<!-- Node33 -->
<g id="Node000033" class="node">
<title>Node33</title>
<g id="a_Node000033"><a xlink:title=" ">
<polygon fill="#e0e0e0" stroke="#999999" points="1015.5,-640.5 928.5,-640.5 928.5,-621.5 1015.5,-621.5 1015.5,-640.5"/>
<text text-anchor="middle" x="972" y="-628.5" font-family="Helvetica,sans-Serif" font-size="10.00">AH/STL/climits</text>
</a>
</g>
</g>
<!-- Node8&#45;&gt;Node33 -->
<g id="edge61_Node000008_Node000033" class="edge">
<title>Node8&#45;&gt;Node33</title>
<g id="a_edge61_Node000008_Node000033"><a xlink:title=" ">
<path fill="none" stroke="#63b8ff" d="M915.98,-681.8C927.31,-671.72 942.53,-658.19 954.25,-647.78"/>
<polygon fill="#63b8ff" stroke="#63b8ff" points="956.9,-650.1 962.05,-640.84 952.25,-644.87 956.9,-650.1"/>
</a>
</g>
</g>
<!-- Node9&#45;&gt;Node2 -->
<g id="edge12_Node000009_Node000002" class="edge">
<title>Node9&#45;&gt;Node2</title>
<g id="a_edge12_Node000009_Node000002"><a xlink:title=" ">
<path fill="none" stroke="#63b8ff" d="M1535.49,-615.79C1569.46,-575.62 1661,-456.59 1661,-340.5 1661,-340.5 1661,-340.5 1661,-118.5 1661,-74.82 1626.64,-71.01 1586,-55 1508.61,-24.51 952.94,-14.26 740.91,-11.43"/>
<polygon fill="#63b8ff" stroke="#63b8ff" points="740.82,-7.93 730.78,-11.3 740.73,-14.93 740.82,-7.93"/>
</a>
</g>
</g>
<!-- Node9&#45;&gt;Node10 -->
<g id="edge13_Node000009_Node000010" class="edge">
<title>Node9&#45;&gt;Node10</title>
<g id="a_edge13_Node000009_Node000010"><a xlink:title=" ">
<path fill="none" stroke="#63b8ff" d="M1461.86,-624.95C1321.67,-613.37 977.32,-584.94 823.89,-572.27"/>
<polygon fill="#63b8ff" stroke="#63b8ff" points="823.88,-568.75 813.62,-571.42 823.3,-575.73 823.88,-568.75"/>
</a>
</g>
</g>
<!-- Node16 -->
<g id="Node000016" class="node">
<title>Node16</title>
<g id="a_Node000016"><a xlink:href="../../d6/ddf/Arduino-Wrapper_8h.html" target="_top" xlink:title=" ">
<polygon fill="white" stroke="#666666" points="1424,-184 1300,-184 1300,-165 1424,-165 1424,-184"/>
<text text-anchor="middle" x="1362" y="-172" font-family="Helvetica,sans-Serif" font-size="10.00">AH/Arduino&#45;Wrapper.h</text>
</a>
</g>
</g>
<!-- Node9&#45;&gt;Node16 -->
<g id="edge60_Node000009_Node000016" class="edge">
<title>Node9&#45;&gt;Node16</title>
<g id="a_edge60_Node000009_Node000016"><a xlink:title=" ">
<path fill="none" stroke="#63b8ff" d="M1523,-615.81C1523,-592.7 1523,-545.49 1523,-505.5 1523,-505.5 1523,-505.5 1523,-338.5 1523,-276.17 1498.64,-256.34 1448,-220 1430.53,-207.46 1409.05,-196.35 1391.93,-188.36"/>
<polygon fill="#63b8ff" stroke="#63b8ff" points="1392.97,-184.99 1382.41,-184.03 1390.07,-191.36 1392.97,-184.99"/>
</a>
</g>
</g>
<!-- Node30 -->
<g id="Node000030" class="node">
<title>Node30</title>
<g id="a_Node000030"><a xlink:href="../../d0/db1/FunctionTraits_8hpp.html" target="_top" xlink:title=" ">
<polygon fill="white" stroke="#666666" points="1347.5,-129 1194.5,-129 1194.5,-110 1347.5,-110 1347.5,-129"/>
<text text-anchor="middle" x="1271" y="-117" font-family="Helvetica,sans-Serif" font-size="10.00">AH/Types/FunctionTraits.hpp</text>
</a>
</g>
</g>
<!-- Node9&#45;&gt;Node30 -->
<g id="edge55_Node000009_Node000030" class="edge">
<title>Node9&#45;&gt;Node30</title>
<g id="a_edge55_Node000009_Node000030"><a xlink:title=" ">
<path fill="none" stroke="#63b8ff" d="M1528.1,-615.78C1531.37,-605.89 1535.31,-592.32 1537,-580 1555.46,-445.62 1584.95,-397.16 1526,-275 1498.18,-217.34 1486.95,-199.47 1433,-165 1406.84,-148.28 1374.42,-137.78 1345.48,-131.2"/>
<polygon fill="#63b8ff" stroke="#63b8ff" points="1345.91,-127.72 1335.4,-129.04 1344.44,-134.56 1345.91,-127.72"/>
</a>
</g>
</g>
<!-- Node10&#45;&gt;Node2 -->
<g id="edge14_Node000010_Node000002" class="edge">
<title>Node10&#45;&gt;Node2</title>
<g id="a_edge14_Node000010_Node000002"><a xlink:title=" ">
<path fill="none" stroke="#63b8ff" d="M682.22,-559.08C563.12,-546.22 324,-500.47 324,-340.5 324,-340.5 324,-340.5 324,-118.5 324,-88.33 324.46,-73.87 348,-55 382.38,-27.44 497.27,-16.94 577.33,-12.95"/>
<polygon fill="#63b8ff" stroke="#63b8ff" points="577.58,-16.44 587.4,-12.47 577.25,-9.45 577.58,-16.44"/>
</a>
</g>
</g>
<!-- Node10&#45;&gt;Node4 -->
<g id="edge54_Node000010_Node000004" class="edge">
<title>Node10&#45;&gt;Node4</title>
<g id="a_edge54_Node000010_Node000004"><a xlink:title=" ">
<path fill="none" stroke="#63b8ff" d="M682.47,-552.98C593.65,-536.15 446,-500.63 446,-450.5 446,-450.5 446,-450.5 446,-393.5 446,-315.79 352.55,-264.95 301.45,-242.96"/>
<polygon fill="#63b8ff" stroke="#63b8ff" points="302.72,-239.7 292.14,-239.07 300.02,-246.16 302.72,-239.7"/>
</a>
</g>
</g>
<!-- Node11 -->
<g id="Node000011" class="node">
<title>Node11</title>
<g id="a_Node000011"><a xlink:href="../../de/d76/Array_8hpp.html" target="_top" xlink:title=" ">
<polygon fill="white" stroke="#666666" points="787.5,-514 652.5,-514 652.5,-495 787.5,-495 787.5,-514"/>
<text text-anchor="middle" x="720" y="-502" font-family="Helvetica,sans-Serif" font-size="10.00">AH/Containers/Array.hpp</text>
</a>
</g>
</g>
<!-- Node10&#45;&gt;Node11 -->
<g id="edge15_Node000010_Node000011" class="edge">
<title>Node10&#45;&gt;Node11</title>
<g id="a_edge15_Node000010_Node000011"><a xlink:title=" ">
<path fill="none" stroke="#63b8ff" d="M741.22,-549.84C737.41,-541.87 732.61,-531.84 728.54,-523.33"/>
<polygon fill="#63b8ff" stroke="#63b8ff" points="731.67,-521.77 724.2,-514.27 725.36,-524.8 731.67,-521.77"/>
</a>
</g>
</g>
<!-- Node10&#45;&gt;Node15 -->
<g id="edge53_Node000010_Node000015" class="edge">
<title>Node10&#45;&gt;Node15</title>
<g id="a_edge53_Node000010_Node000015"><a xlink:title=" ">
<path fill="none" stroke="#63b8ff" d="M778.55,-549.94C812.32,-532.04 862,-497.7 862,-450.5 862,-450.5 862,-450.5 862,-338.5 862,-241.09 894.34,-127.53 908.01,-83.88"/>
<polygon fill="#63b8ff" stroke="#63b8ff" points="911.35,-84.93 911.06,-74.34 904.68,-82.8 911.35,-84.93"/>
</a>
</g>
</g>
<!-- Node11&#45;&gt;Node2 -->
<g id="edge16_Node000011_Node000002" class="edge">
<title>Node11&#45;&gt;Node2</title>
<g id="a_edge16_Node000011_Node000002"><a xlink:title=" ">
<path fill="none" stroke="#63b8ff" d="M662.63,-494.98C634.46,-488.62 601.24,-477.68 576,-459 516.39,-414.89 400,-249.65 400,-175.5 400,-175.5 400,-175.5 400,-118.5 400,-40.52 501.25,-17.83 577.14,-11.78"/>
<polygon fill="#63b8ff" stroke="#63b8ff" points="577.47,-15.27 587.2,-11.06 576.97,-8.28 577.47,-15.27"/>
</a>
</g>
</g>
<!-- Node11&#45;&gt;Node6 -->
<g id="edge51_Node000011_Node000006" class="edge">
<title>Node11&#45;&gt;Node6</title>
<g id="a_edge51_Node000011_Node000006"><a xlink:title=" ">
<path fill="none" stroke="#63b8ff" d="M652.33,-495.46C629.57,-489.22 606.34,-478.24 592,-459 517.86,-359.48 555.73,-194.1 571.35,-139"/>
<polygon fill="#63b8ff" stroke="#63b8ff" points="574.75,-139.82 574.21,-129.24 568.04,-137.85 574.75,-139.82"/>
</a>
</g>
</g>
<!-- Node12 -->
<g id="Node000012" class="node">
<title>Node12</title>
<g id="a_Node000012"><a xlink:href="../../d1/d93/Error_8hpp.html" target="_top" xlink:title=" ">
<polygon fill="white" stroke="#666666" points="705,-459 601,-459 601,-440 705,-440 705,-459"/>
<text text-anchor="middle" x="653" y="-447" font-family="Helvetica,sans-Serif" font-size="10.00">AH/Error/Error.hpp</text>
</a>
</g>
</g>
<!-- Node11&#45;&gt;Node12 -->
<g id="edge17_Node000011_Node000012" class="edge">
<title>Node11&#45;&gt;Node12</title>
<g id="a_edge17_Node000011_Node000012"><a xlink:title=" ">
<path fill="none" stroke="#63b8ff" d="M709.24,-494.98C699.23,-487.07 684.11,-475.11 672.07,-465.58"/>
<polygon fill="#63b8ff" stroke="#63b8ff" points="673.97,-462.63 663.96,-459.17 669.63,-468.12 673.97,-462.63"/>
</a>
</g>
</g>
<!-- Node26 -->
<g id="Node000026" class="node">
<title>Node26</title>
<g id="a_Node000026"><a xlink:title=" ">
<polygon fill="#e0e0e0" stroke="#999999" points="1154,-239 1098,-239 1098,-220 1154,-220 1154,-239"/>
<text text-anchor="middle" x="1126" y="-227" font-family="Helvetica,sans-Serif" font-size="10.00">stddef.h</text>
</a>
</g>
</g>
<!-- Node11&#45;&gt;Node26 -->
<g id="edge52_Node000011_Node000026" class="edge">
<title>Node11&#45;&gt;Node26</title>
<g id="a_edge52_Node000011_Node000026"><a xlink:title=" ">
<path fill="none" stroke="#63b8ff" d="M787.5,-497.95C940.6,-484.46 1301,-447.21 1301,-395.5 1301,-395.5 1301,-395.5 1301,-338.5 1301,-309.04 1302.96,-295.7 1282,-275 1277.69,-270.75 1208.76,-252.12 1163.98,-240.36"/>
<polygon fill="#63b8ff" stroke="#63b8ff" points="1164.83,-236.96 1154.27,-237.81 1163.06,-243.73 1164.83,-236.96"/>
</a>
</g>
</g>
<!-- Node29 -->
<g id="Node000029" class="node">
<title>Node29</title>
<g id="a_Node000029"><a xlink:title=" ">
<polygon fill="#e0e0e0" stroke="#999999" points="813,-459 723,-459 723,-440 813,-440 813,-459"/>
<text text-anchor="middle" x="768" y="-447" font-family="Helvetica,sans-Serif" font-size="10.00">AH/STL/iterator</text>
</a>
</g>
</g>
<!-- Node11&#45;&gt;Node29 -->
<g id="edge50_Node000011_Node000029" class="edge">
<title>Node11&#45;&gt;Node29</title>
<g id="a_edge50_Node000011_Node000029"><a xlink:title=" ">
<path fill="none" stroke="#63b8ff" d="M727.93,-494.75C734.85,-487.11 745.07,-475.82 753.45,-466.56"/>
<polygon fill="#63b8ff" stroke="#63b8ff" points="756.1,-468.85 760.22,-459.09 750.91,-464.15 756.1,-468.85"/>
</a>
</g>
</g>
<!-- Node12&#45;&gt;Node2 -->
<g id="edge18_Node000012_Node000002" class="edge">
<title>Node12&#45;&gt;Node2</title>
<g id="a_edge18_Node000012_Node000002"><a xlink:title=" ">
<path fill="none" stroke="#63b8ff" d="M638.56,-439.93C590.35,-410.09 438,-305.51 438,-175.5 438,-175.5 438,-175.5 438,-118.5 438,-54.25 514.33,-28.22 577.27,-17.67"/>
<polygon fill="#63b8ff" stroke="#63b8ff" points="577.91,-21.12 587.25,-16.11 576.83,-14.2 577.91,-21.12"/>
</a>
</g>
</g>
<!-- Node13 -->
<g id="Node000013" class="node">
<title>Node13</title>
<g id="a_Node000013"><a xlink:href="../../df/dee/Debug_8hpp.html" target="_top" xlink:title=" ">
<polygon fill="white" stroke="#666666" points="772.5,-404 651.5,-404 651.5,-385 772.5,-385 772.5,-404"/>
<text text-anchor="middle" x="712" y="-392" font-family="Helvetica,sans-Serif" font-size="10.00">AH/Debug/Debug.hpp</text>
</a>
</g>
</g>
<!-- Node12&#45;&gt;Node13 -->
<g id="edge19_Node000012_Node000013" class="edge">
<title>Node12&#45;&gt;Node13</title>
<g id="a_edge19_Node000012_Node000013"><a xlink:title=" ">
<path fill="none" stroke="#63b8ff" d="M662.48,-439.98C671.2,-432.15 684.34,-420.34 694.9,-410.86"/>
<polygon fill="#63b8ff" stroke="#63b8ff" points="697.25,-413.46 702.35,-404.17 692.57,-408.25 697.25,-413.46"/>
</a>
</g>
</g>
<!-- Node13&#45;&gt;Node2 -->
<g id="edge20_Node000013_Node000002" class="edge">
<title>Node13&#45;&gt;Node2</title>
<g id="a_edge20_Node000013_Node000002"><a xlink:title=" ">
<path fill="none" stroke="#63b8ff" d="M692.61,-384.86C676.81,-377.14 654.65,-364.62 639,-349 559.56,-269.71 537.08,-239.05 515,-129 503.97,-74.03 573.76,-39.2 620.08,-22.42"/>
<polygon fill="#63b8ff" stroke="#63b8ff" points="621.27,-25.71 629.56,-19.11 618.97,-19.1 621.27,-25.71"/>
</a>
</g>
</g>
<!-- Node14 -->
<g id="Node000014" class="node">
<title>Node14</title>
<g id="a_Node000014"><a xlink:href="../../dd/d80/PrintStream_8hpp.html" target="_top" xlink:title=" ">
<polygon fill="white" stroke="#666666" points="846.5,-239 673.5,-239 673.5,-220 846.5,-220 846.5,-239"/>
<text text-anchor="middle" x="760" y="-227" font-family="Helvetica,sans-Serif" font-size="10.00">AH/PrintStream/PrintStream.hpp</text>
</a>
</g>
</g>
<!-- Node13&#45;&gt;Node14 -->
<g id="edge21_Node000013_Node000014" class="edge">
<title>Node13&#45;&gt;Node14</title>
<g id="a_edge21_Node000013_Node000014"><a xlink:title=" ">
<path fill="none" stroke="#63b8ff" d="M719.19,-384.9C725.94,-376.36 735.75,-362.59 741,-349 753.96,-315.42 758.08,-273.21 759.39,-249.3"/>
<polygon fill="#63b8ff" stroke="#63b8ff" points="762.89,-249.29 759.83,-239.15 755.9,-248.99 762.89,-249.29"/>
</a>
</g>
</g>
<!-- Node13&#45;&gt;Node21 -->
<g id="edge34_Node000013_Node000021" class="edge">
<title>Node13&#45;&gt;Node21</title>
<g id="a_edge34_Node000013_Node000021"><a xlink:title=" ">
<path fill="none" stroke="#63b8ff" d="M755.89,-384.98C807.55,-375.65 893.61,-360.67 952.76,-350.71"/>
<polygon fill="#63b8ff" stroke="#63b8ff" points="953.46,-354.15 962.75,-349.04 952.3,-347.24 953.46,-354.15"/>
</a>
</g>
</g>
<!-- Node28 -->
<g id="Node000028" class="node">
<title>Node28</title>
<g id="a_Node000028"><a xlink:href="../../d7/d52/DebugVal_8hpp.html" target="_top" xlink:title=" ">
<polygon fill="white" stroke="#666666" points="732,-349 648,-349 648,-330 732,-330 732,-349"/>
<text text-anchor="middle" x="690" y="-337" font-family="Helvetica,sans-Serif" font-size="10.00">DebugVal.hpp</text>
</a>
</g>
</g>
<!-- Node13&#45;&gt;Node28 -->
<g id="edge49_Node000013_Node000028" class="edge">
<title>Node13&#45;&gt;Node28</title>
<g id="a_edge49_Node000013_Node000028"><a xlink:title=" ">
<path fill="none" stroke="#63b8ff" d="M708.37,-384.75C705.42,-377.65 701.17,-367.4 697.49,-358.56"/>
<polygon fill="#63b8ff" stroke="#63b8ff" points="700.63,-356.98 693.57,-349.09 694.17,-359.67 700.63,-356.98"/>
</a>
</g>
</g>
<!-- Node14&#45;&gt;Node2 -->
<g id="edge23_Node000014_Node000002" class="edge">
<title>Node14&#45;&gt;Node2</title>
<g id="a_edge23_Node000014_Node000002"><a xlink:title=" ">
<path fill="none" stroke="#63b8ff" d="M673.21,-222.21C648.57,-215.92 624.3,-204.46 609,-184 592.2,-161.53 628.18,-154.45 640,-129 655.16,-96.36 658.52,-53.82 659.09,-29.59"/>
<polygon fill="#63b8ff" stroke="#63b8ff" points="662.59,-29.33 659.19,-19.3 655.59,-29.27 662.59,-29.33"/>
</a>
</g>
</g>
<!-- Node14&#45;&gt;Node15 -->
<g id="edge22_Node000014_Node000015" class="edge">
<title>Node14&#45;&gt;Node15</title>
<g id="a_edge22_Node000014_Node000015"><a xlink:title=" ">
<path fill="none" stroke="#63b8ff" d="M769.09,-219.76C778.27,-210.87 792.8,-196.65 805,-184 839.57,-148.16 878.8,-104.83 899.47,-81.78"/>
<polygon fill="#63b8ff" stroke="#63b8ff" points="902.14,-84.04 906.21,-74.25 896.93,-79.37 902.14,-84.04"/>
</a>
</g>
</g>
<!-- Node14&#45;&gt;Node16 -->
<g id="edge24_Node000014_Node000016" class="edge">
<title>Node14&#45;&gt;Node16</title>
<g id="a_edge24_Node000014_Node000016"><a xlink:title=" ">
<path fill="none" stroke="#63b8ff" d="M846.57,-220.88C965.84,-210.38 1178.52,-191.65 1289.72,-181.86"/>
<polygon fill="#63b8ff" stroke="#63b8ff" points="1290.18,-185.34 1299.84,-180.97 1289.57,-178.36 1290.18,-185.34"/>
</a>
</g>
</g>
<!-- Node20 -->
<g id="Node000020" class="node">
<title>Node20</title>
<g id="a_Node000020"><a xlink:title=" ">
<polygon fill="#e0e0e0" stroke="#999999" points="796,-184 618,-184 618,-165 796,-165 796,-184"/>
<text text-anchor="middle" x="707" y="-172" font-family="Helvetica,sans-Serif" font-size="10.00">Settings/NamespaceSettings.hpp</text>
</a>
</g>
</g>
<!-- Node14&#45;&gt;Node20 -->
<g id="edge33_Node000014_Node000020" class="edge">
<title>Node14&#45;&gt;Node20</title>
<g id="a_edge33_Node000014_Node000020"><a xlink:title=" ">
<path fill="none" stroke="#63b8ff" d="M751.25,-219.75C743.53,-212.03 732.1,-200.6 722.78,-191.28"/>
<polygon fill="#63b8ff" stroke="#63b8ff" points="725.14,-188.69 715.59,-184.09 720.19,-193.64 725.14,-188.69"/>
</a>
</g>
</g>
<!-- Node16&#45;&gt;Node6 -->
<g id="edge31_Node000016_Node000006" class="edge">
<title>Node16&#45;&gt;Node6</title>
<g id="a_edge31_Node000016_Node000006"><a xlink:title=" ">
<path fill="none" stroke="#63b8ff" d="M1299.75,-169.3C1153.4,-159.42 788.73,-134.8 640.83,-124.81"/>
<polygon fill="#63b8ff" stroke="#63b8ff" points="640.78,-121.3 630.56,-124.12 640.3,-128.28 640.78,-121.3"/>
</a>
</g>
</g>
<!-- Node16&#45;&gt;Node17 -->
<g id="edge25_Node000016_Node000017" class="edge">
<title>Node16&#45;&gt;Node17</title>
<g id="a_edge25_Node000016_Node000017"><a xlink:title=" ">
<path fill="none" stroke="#63b8ff" d="M1373.57,-164.98C1384.42,-157 1400.88,-144.88 1413.88,-135.31"/>
<polygon fill="#63b8ff" stroke="#63b8ff" points="1416.24,-137.92 1422.22,-129.17 1412.09,-132.28 1416.24,-137.92"/>
</a>
</g>
</g>
<!-- Node19 -->
<g id="Node000019" class="node">
<title>Node19</title>
<g id="a_Node000019"><a xlink:title=" ">
<polygon fill="#e0e0e0" stroke="#999999" points="1559.5,-19 1496.5,-19 1496.5,0 1559.5,0 1559.5,-19"/>
<text text-anchor="middle" x="1528" y="-7" font-family="Helvetica,sans-Serif" font-size="10.00">Arduino.h</text>
</a>
</g>
</g>
<!-- Node16&#45;&gt;Node19 -->
<g id="edge32_Node000016_Node000019" class="edge">
<title>Node16&#45;&gt;Node19</title>
<g id="a_edge32_Node000016_Node000019"><a xlink:title=" ">
<path fill="none" stroke="#63b8ff" d="M1412.16,-164.99C1442.32,-158.34 1480.63,-147.12 1511,-129 1540.69,-111.29 1552.77,-105.94 1566,-74 1573.17,-56.7 1559.85,-38.52 1547.06,-26.06"/>
<polygon fill="#63b8ff" stroke="#63b8ff" points="1549.12,-23.21 1539.35,-19.11 1544.43,-28.4 1549.12,-23.21"/>
</a>
</g>
</g>
<!-- Node17&#45;&gt;Node2 -->
<g id="edge26_Node000017_Node000002" class="edge">
<title>Node17&#45;&gt;Node2</title>
<g id="a_edge26_Node000017_Node000002"><a xlink:title=" ">
<path fill="none" stroke="#63b8ff" d="M1422.99,-109.97C1402.28,-94.12 1357.98,-61.15 1340,-55 1231.34,-17.82 896.7,-11.43 740.67,-10.52"/>
<polygon fill="#63b8ff" stroke="#63b8ff" points="740.67,-7.02 730.65,-10.47 740.63,-14.02 740.67,-7.02"/>
</a>
</g>
</g>
<!-- Node17&#45;&gt;Node15 -->
<g id="edge30_Node000017_Node000015" class="edge">
<title>Node17&#45;&gt;Node15</title>
<g id="a_edge30_Node000017_Node000015"><a xlink:title=" ">
<path fill="none" stroke="#63b8ff" d="M1365.98,-110.96C1362.95,-110.63 1359.94,-110.31 1357,-110 1238.2,-97.48 1101.39,-83.86 1011.61,-75.03"/>
<polygon fill="#63b8ff" stroke="#63b8ff" points="1011.74,-71.52 1001.44,-74.03 1011.05,-78.49 1011.74,-71.52"/>
</a>
</g>
</g>
<!-- Node18 -->
<g id="Node000018" class="node">
<title>Node18</title>
<g id="a_Node000018"><a xlink:href="../../d6/d3b/FixArduinoMacros_8hpp.html" target="_top" xlink:title=" ">
<polygon fill="white" stroke="#666666" points="1557,-74 1387,-74 1387,-55 1557,-55 1557,-74"/>
<text text-anchor="middle" x="1472" y="-62" font-family="Helvetica,sans-Serif" font-size="10.00">AH/Math/FixArduinoMacros.hpp</text>
</a>
</g>
</g>
<!-- Node17&#45;&gt;Node18 -->
<g id="edge27_Node000017_Node000018" class="edge">
<title>Node17&#45;&gt;Node18</title>
<g id="a_edge27_Node000017_Node000018"><a xlink:title=" ">
<path fill="none" stroke="#63b8ff" d="M1440.27,-109.75C1445.59,-102.34 1453.36,-91.5 1459.88,-82.41"/>
<polygon fill="#63b8ff" stroke="#63b8ff" points="1462.86,-84.26 1465.84,-74.09 1457.17,-80.18 1462.86,-84.26"/>
</a>
</g>
</g>
<!-- Node18&#45;&gt;Node2 -->
<g id="edge28_Node000018_Node000002" class="edge">
<title>Node18&#45;&gt;Node2</title>
<g id="a_edge28_Node000018_Node000002"><a xlink:title=" ">
<path fill="none" stroke="#63b8ff" d="M1386.95,-56.07C1382.23,-55.7 1377.56,-55.34 1373,-55 1144.09,-38.04 873.58,-22.38 740.83,-14.98"/>
<polygon fill="#63b8ff" stroke="#63b8ff" points="740.92,-11.48 730.74,-14.41 740.53,-18.46 740.92,-11.48"/>
</a>
</g>
</g>
<!-- Node18&#45;&gt;Node19 -->
<g id="edge29_Node000018_Node000019" class="edge">
<title>Node18&#45;&gt;Node19</title>
<g id="a_edge29_Node000018_Node000019"><a xlink:title=" ">
<path fill="none" stroke="#63b8ff" d="M1481,-54.98C1489.19,-47.23 1501.51,-35.58 1511.47,-26.14"/>
<polygon fill="#63b8ff" stroke="#63b8ff" points="1513.98,-28.59 1518.84,-19.17 1509.17,-23.5 1513.98,-28.59"/>
</a>
</g>
</g>
<!-- Node21&#45;&gt;Node2 -->
<g id="edge35_Node000021_Node000002" class="edge">
<title>Node21&#45;&gt;Node2</title>
<g id="a_edge35_Node000021_Node000002"><a xlink:title=" ">
<path fill="none" stroke="#63b8ff" d="M1007.42,-329.73C958.79,-285.17 739,-83.8 675.95,-26.03"/>
<polygon fill="#63b8ff" stroke="#63b8ff" points="678.18,-23.32 668.44,-19.15 673.45,-28.48 678.18,-23.32"/>
</a>
</g>
</g>
<!-- Node21&#45;&gt;Node13 -->
<g id="edge48_Node000021_Node000013" class="edge">
<title>Node21&#45;&gt;Node13</title>
<g id="a_edge48_Node000021_Node000013"><a xlink:title=" ">
<path fill="none" stroke="#63b8ff" d="M972.74,-349.08C920.99,-358.43 835.09,-373.38 776.08,-383.31"/>
<polygon fill="#63b8ff" stroke="#63b8ff" points="775.4,-379.88 766.12,-384.98 776.56,-386.78 775.4,-379.88"/>
</a>
</g>
</g>
<!-- Node21&#45;&gt;Node15 -->
<g id="edge36_Node000021_Node000015" class="edge">
<title>Node21&#45;&gt;Node15</title>
<g id="a_edge36_Node000021_Node000015"><a xlink:title=" ">
<path fill="none" stroke="#63b8ff" d="M1011.56,-329.69C1006.49,-320.98 999.26,-307.1 996,-294 982.15,-238.3 1008.36,-219.38 990,-165 978.44,-130.76 949.84,-99.03 931.21,-80.99"/>
<polygon fill="#63b8ff" stroke="#63b8ff" points="933.6,-78.43 923.92,-74.13 928.8,-83.53 933.6,-78.43"/>
</a>
</g>
</g>
<!-- Node22 -->
<g id="Node000022" class="node">
<title>Node22</title>
<g id="a_Node000022"><a xlink:href="../../d5/d4f/AH_2Settings_2Settings_8hpp.html" target="_top" xlink:title="All user settings and debugging options can be changed here.">
<polygon fill="white" stroke="#666666" points="1272.5,-294 1195.5,-294 1195.5,-275 1272.5,-275 1272.5,-294"/>
<text text-anchor="middle" x="1234" y="-282" font-family="Helvetica,sans-Serif" font-size="10.00">Settings.hpp</text>
</a>
</g>
</g>
<!-- Node21&#45;&gt;Node22 -->
<g id="edge37_Node000021_Node000022" class="edge">
<title>Node21&#45;&gt;Node22</title>
<g id="a_edge37_Node000021_Node000022"><a xlink:title=" ">
<path fill="none" stroke="#63b8ff" d="M1051.86,-329.98C1089.09,-320.89 1148.2,-306.46 1188.93,-296.51"/>
<polygon fill="#63b8ff" stroke="#63b8ff" points="1189.98,-299.85 1198.86,-294.08 1188.32,-293.05 1189.98,-299.85"/>
</a>
</g>
</g>
<!-- Node27 -->
<g id="Node000027" class="node">
<title>Node27</title>
<g id="a_Node000027"><a xlink:href="../../d9/d98/TeensyUSBTypes_8hpp.html" target="_top" xlink:title=" ">
<polygon fill="white" stroke="#666666" points="1177.5,-294 1004.5,-294 1004.5,-275 1177.5,-275 1177.5,-294"/>
<text text-anchor="middle" x="1091" y="-282" font-family="Helvetica,sans-Serif" font-size="10.00">AH/Teensy/TeensyUSBTypes.hpp</text>
</a>
</g>
</g>
<!-- Node21&#45;&gt;Node27 -->
<g id="edge47_Node000021_Node000027" class="edge">
<title>Node21&#45;&gt;Node27</title>
<g id="a_edge47_Node000021_Node000027"><a xlink:title=" ">
<path fill="none" stroke="#63b8ff" d="M1028.89,-329.98C1040.15,-321.92 1057.29,-309.65 1070.71,-300.03"/>
<polygon fill="#63b8ff" stroke="#63b8ff" points="1072.8,-302.84 1078.89,-294.17 1068.73,-297.15 1072.8,-302.84"/>
</a>
</g>
</g>
<!-- Node22&#45;&gt;Node4 -->
<g id="edge46_Node000022_Node000004" class="edge">
<title>Node22&#45;&gt;Node4</title>
<g id="a_edge46_Node000022_Node000004"><a xlink:title=" ">
<path fill="none" stroke="#63b8ff" d="M1195.33,-276.09C1192.52,-275.68 1189.72,-275.31 1187,-275 1011.85,-255 455.11,-236.37 306.02,-231.65"/>
<polygon fill="#63b8ff" stroke="#63b8ff" points="305.71,-228.14 295.61,-231.32 305.49,-235.13 305.71,-228.14"/>
</a>
</g>
</g>
<!-- Node23 -->
<g id="Node000023" class="node">
<title>Node23</title>
<g id="a_Node000023"><a xlink:href="../../dc/d50/Frequency_8hpp.html" target="_top" xlink:title=" ">
<polygon fill="white" stroke="#666666" points="1138,-129 1004,-129 1004,-110 1138,-110 1138,-129"/>
<text text-anchor="middle" x="1071" y="-117" font-family="Helvetica,sans-Serif" font-size="10.00">AH/Types/Frequency.hpp</text>
</a>
</g>
</g>
<!-- Node22&#45;&gt;Node23 -->
<g id="edge38_Node000022_Node000023" class="edge">
<title>Node22&#45;&gt;Node23</title>
<g id="a_edge38_Node000022_Node000023"><a xlink:title=" ">
<path fill="none" stroke="#63b8ff" d="M1195.34,-276.44C1157.3,-268.68 1102.93,-255.15 1089,-239 1064.95,-211.13 1065.54,-165.19 1068.21,-139.46"/>
<polygon fill="#63b8ff" stroke="#63b8ff" points="1071.72,-139.56 1069.49,-129.2 1064.78,-138.69 1071.72,-139.56"/>
</a>
</g>
</g>
<!-- Node24 -->
<g id="Node000024" class="node">
<title>Node24</title>
<g id="a_Node000024"><a xlink:href="../../d7/d7c/ADCConfig_8hpp.html" target="_top" xlink:title="This file contains the platform&#45;specific ADC resolutions.">
<polygon fill="white" stroke="#666666" points="1367.5,-239 1210.5,-239 1210.5,-220 1367.5,-220 1367.5,-239"/>
<text text-anchor="middle" x="1289" y="-227" font-family="Helvetica,sans-Serif" font-size="10.00">AH/Hardware/ADCConfig.hpp</text>
</a>
</g>
</g>
<!-- Node22&#45;&gt;Node24 -->
<g id="edge41_Node000022_Node000024" class="edge">
<title>Node22&#45;&gt;Node24</title>
<g id="a_edge41_Node000022_Node000024"><a xlink:title=" ">
<path fill="none" stroke="#63b8ff" d="M1243.08,-274.75C1251.09,-267.03 1262.96,-255.6 1272.62,-246.28"/>
<polygon fill="#63b8ff" stroke="#63b8ff" points="1275.31,-248.55 1280.09,-239.09 1270.46,-243.51 1275.31,-248.55"/>
</a>
</g>
</g>
<!-- Node25 -->
<g id="Node000025" class="node">
<title>Node25</title>
<g id="a_Node000025"><a xlink:title=" ">
<polygon fill="#e0e0e0" stroke="#999999" points="1438.5,-239 1385.5,-239 1385.5,-220 1438.5,-220 1438.5,-239"/>
<text text-anchor="middle" x="1412" y="-227" font-family="Helvetica,sans-Serif" font-size="10.00">limits.h</text>
</a>
</g>
</g>
<!-- Node22&#45;&gt;Node25 -->
<g id="edge44_Node000022_Node000025" class="edge">
<title>Node22&#45;&gt;Node25</title>
<g id="a_edge44_Node000022_Node000025"><a xlink:title=" ">
<path fill="none" stroke="#63b8ff" d="M1262.6,-274.98C1293.24,-265.86 1341.95,-251.36 1375.37,-241.41"/>
<polygon fill="#63b8ff" stroke="#63b8ff" points="1376.63,-244.68 1385.22,-238.47 1374.64,-237.97 1376.63,-244.68"/>
</a>
</g>
</g>
<!-- Node22&#45;&gt;Node26 -->
<g id="edge45_Node000022_Node000026" class="edge">
<title>Node22&#45;&gt;Node26</title>
<g id="a_edge45_Node000022_Node000026"><a xlink:title=" ">
<path fill="none" stroke="#63b8ff" d="M1216.65,-274.98C1199.43,-266.54 1172.8,-253.47 1152.85,-243.68"/>
<polygon fill="#63b8ff" stroke="#63b8ff" points="1154.19,-240.43 1143.67,-239.17 1151.1,-246.72 1154.19,-240.43"/>
</a>
</g>
</g>
<!-- Node23&#45;&gt;Node2 -->
<g id="edge39_Node000023_Node000002" class="edge">
<title>Node23&#45;&gt;Node2</title>
<g id="a_edge39_Node000023_Node000002"><a xlink:title=" ">
<path fill="none" stroke="#63b8ff" d="M1066.93,-109.73C1059.83,-95.53 1043.74,-67.81 1021,-55 974.54,-28.83 832.51,-17.83 740.78,-13.37"/>
<polygon fill="#63b8ff" stroke="#63b8ff" points="740.83,-9.87 730.68,-12.9 740.51,-16.86 740.83,-9.87"/>
</a>
</g>
</g>
<!-- Node23&#45;&gt;Node15 -->
<g id="edge40_Node000023_Node000015" class="edge">
<title>Node23&#45;&gt;Node15</title>
<g id="a_edge40_Node000023_Node000015"><a xlink:title=" ">
<path fill="none" stroke="#63b8ff" d="M1045.78,-109.98C1019.64,-101.16 978.6,-87.31 949.27,-77.41"/>
<polygon fill="#63b8ff" stroke="#63b8ff" points="950.02,-73.96 939.42,-74.08 947.78,-80.6 950.02,-73.96"/>
</a>
</g>
</g>
<!-- Node24&#45;&gt;Node2 -->
<g id="edge42_Node000024_Node000002" class="edge">
<title>Node24&#45;&gt;Node2</title>
<g id="a_edge42_Node000024_Node000002"><a xlink:title=" ">
<path fill="none" stroke="#63b8ff" d="M1279.88,-219.76C1258.07,-199.12 1200.72,-146.35 1147,-110 1125.67,-95.57 1069.57,-62.72 1045,-55 943.54,-23.1 820.63,-13.61 741.19,-11.03"/>
<polygon fill="#63b8ff" stroke="#63b8ff" points="740.85,-7.52 730.76,-10.72 740.65,-14.52 740.85,-7.52"/>
</a>
</g>
</g>
<!-- Node24&#45;&gt;Node16 -->
<g id="edge43_Node000024_Node000016" class="edge">
<title>Node24&#45;&gt;Node16</title>
<g id="a_edge43_Node000024_Node000016"><a xlink:title=" ">
<path fill="none" stroke="#63b8ff" d="M1300.73,-219.98C1311.73,-212 1328.42,-199.88 1341.6,-190.31"/>
<polygon fill="#63b8ff" stroke="#63b8ff" points="1344.02,-192.88 1350.06,-184.17 1339.91,-187.21 1344.02,-192.88"/>
</a>
</g>
</g>
<!-- Node30&#45;&gt;Node2 -->
<g id="edge58_Node000030_Node000002" class="edge">
<title>Node30&#45;&gt;Node2</title>
<g id="a_edge58_Node000030_Node000002"><a xlink:title=" ">
<path fill="none" stroke="#63b8ff" d="M1241.84,-109.97C1213.89,-101.58 1170.68,-88.02 1134,-74 1114.48,-66.54 1111.19,-60.36 1091,-55 971.83,-23.38 828.64,-14 740.74,-11.35"/>
<polygon fill="#63b8ff" stroke="#63b8ff" points="740.65,-7.84 730.56,-11.06 740.46,-14.84 740.65,-7.84"/>
</a>
</g>
</g>
<!-- Node30&#45;&gt;Node15 -->
<g id="edge59_Node000030_Node000015" class="edge">
<title>Node30&#45;&gt;Node15</title>
<g id="a_edge59_Node000030_Node000015"><a xlink:title=" ">
<path fill="none" stroke="#63b8ff" d="M1213.64,-109.98C1150.37,-100.59 1048.64,-85.49 981.56,-75.53"/>
<polygon fill="#63b8ff" stroke="#63b8ff" points="981.92,-72.04 971.51,-74.04 980.89,-78.97 981.92,-72.04"/>
</a>
</g>
</g>
<!-- Node31 -->
<g id="Node000031" class="node">
<title>Node31</title>
<g id="a_Node000031"><a xlink:title=" ">
<polygon fill="#e0e0e0" stroke="#999999" points="1233,-74 1143,-74 1143,-55 1233,-55 1233,-74"/>
<text text-anchor="middle" x="1188" y="-62" font-family="Helvetica,sans-Serif" font-size="10.00">AH/STL/cstddef</text>
</a>
</g>
</g>
<!-- Node30&#45;&gt;Node31 -->
<g id="edge56_Node000030_Node000031" class="edge">
<title>Node30&#45;&gt;Node31</title>
<g id="a_edge56_Node000030_Node000031"><a xlink:title=" ">
<path fill="none" stroke="#63b8ff" d="M1257.66,-109.98C1244.91,-101.84 1225.45,-89.41 1210.33,-79.76"/>
<polygon fill="#63b8ff" stroke="#63b8ff" points="1211.89,-76.6 1201.58,-74.17 1208.12,-82.5 1211.89,-76.6"/>
</a>
</g>
</g>
<!-- Node32 -->
<g id="Node000032" class="node">
<title>Node32</title>
<g id="a_Node000032"><a xlink:title=" ">
<polygon fill="#e0e0e0" stroke="#999999" points="1330.5,-74 1251.5,-74 1251.5,-55 1330.5,-55 1330.5,-74"/>
<text text-anchor="middle" x="1291" y="-62" font-family="Helvetica,sans-Serif" font-size="10.00">AH/STL/tuple</text>
</a>
</g>
</g>
<!-- Node30&#45;&gt;Node32 -->
<g id="edge57_Node000030_Node000032" class="edge">
<title>Node30&#45;&gt;Node32</title>
<g id="a_edge57_Node000030_Node000032"><a xlink:title=" ">
<path fill="none" stroke="#63b8ff" d="M1274.3,-109.75C1276.98,-102.65 1280.85,-92.4 1284.19,-83.56"/>
<polygon fill="#63b8ff" stroke="#63b8ff" points="1287.5,-84.68 1287.76,-74.09 1280.95,-82.21 1287.5,-84.68"/>
</a>
</g>
</g>
<!-- Node34&#45;&gt;Node2 -->
<g id="edge66_Node000034_Node000002" class="edge">
<title>Node34&#45;&gt;Node2</title>
<g id="a_edge66_Node000034_Node000002"><a xlink:title=" ">
<path fill="none" stroke="#63b8ff" d="M1425.93,-274.88C1475.67,-243.12 1637.91,-130.53 1566,-55 1537.77,-25.36 958.3,-14.52 740.65,-11.49"/>
<polygon fill="#63b8ff" stroke="#63b8ff" points="740.61,-7.99 730.57,-11.35 740.52,-14.99 740.61,-7.99"/>
</a>
</g>
</g>
<!-- Node34&#45;&gt;Node6 -->
<g id="edge67_Node000034_Node000006" class="edge">
<title>Node34&#45;&gt;Node6</title>
<g id="a_edge67_Node000034_Node000006"><a xlink:title=" ">
<path fill="none" stroke="#63b8ff" d="M1353.03,-274.97C1310.35,-267.85 1251.69,-256.08 1202,-239 1183.77,-232.73 1181.36,-225.9 1163,-220 978.83,-160.85 750.17,-134.97 640.93,-125.36"/>
<polygon fill="#63b8ff" stroke="#63b8ff" points="641,-121.85 630.74,-124.48 640.4,-128.83 641,-121.85"/>
</a>
</g>
</g>
<!-- Node34&#45;&gt;Node25 -->
<g id="edge68_Node000034_Node000025" class="edge">
<title>Node34&#45;&gt;Node25</title>
<g id="a_edge68_Node000034_Node000025"><a xlink:title=" ">
<path fill="none" stroke="#63b8ff" d="M1412,-274.75C1412,-267.8 1412,-257.85 1412,-249.13"/>
<polygon fill="#63b8ff" stroke="#63b8ff" points="1415.5,-249.09 1412,-239.09 1408.5,-249.09 1415.5,-249.09"/>
</a>
</g>
</g>
<!-- Node34&#45;&gt;Node26 -->
<g id="edge69_Node000034_Node000026" class="edge">
<title>Node34&#45;&gt;Node26</title>
<g id="a_edge69_Node000034_Node000026"><a xlink:title=" ">
<path fill="none" stroke="#63b8ff" d="M1363.8,-274.99C1314.54,-266.23 1235.87,-252.05 1168,-239 1166.9,-238.79 1165.79,-238.57 1164.67,-238.36"/>
<polygon fill="#63b8ff" stroke="#63b8ff" points="1164.94,-234.84 1154.45,-236.34 1163.58,-241.71 1164.94,-234.84"/>
</a>
</g>
</g>
</g>
</svg>
