<?xml version="1.0" encoding="UTF-8" standalone="no"?>
<!DOCTYPE svg PUBLIC "-//W3C//DTD SVG 1.1//EN"
 "http://www.w3.org/Graphics/SVG/1.1/DTD/svg11.dtd">
<!-- Generated by graphviz version 2.43.0 (0)
 -->
<!-- Title: CCButtons&lt; NumButtons &gt; Pages: 1 -->
<svg width="179pt" height="895pt"
 viewBox="0.00 0.00 179.00 895.00" xmlns="http://www.w3.org/2000/svg" xmlns:xlink="http://www.w3.org/1999/xlink">
<g id="graph0" class="graph" transform="scale(1 1) rotate(0) translate(4 891)">
<title>CCButtons&lt; NumButtons &gt;</title>
<!-- Node1 -->
<g id="Node000001" class="node">
<title>Node1</title>
<g id="a_Node000001"><a xlink:title="A class of MIDIOutputElements that read the input of a collection of momentary push buttons or switch...">
<polygon fill="#999999" stroke="transparent" points="158,-49 13,-49 13,0 158,0 158,-49"/>
<text text-anchor="start" x="18.5" y="-36.5" font-family="Helvetica,sans-Serif" font-size="10.00">CCButtons&lt; NumButtons &gt;</text>
<text text-anchor="start" x="84" y="-21.5" font-family="Helvetica,sans-Serif" font-size="10.00"> </text>
<text text-anchor="start" x="33.5" y="-6.5" font-family="Helvetica,sans-Serif" font-size="10.00">+</text>
<text text-anchor="start" x="62.5" y="-6.5" font-family="Helvetica,sans-Serif" font-size="10.00">CCButtons()</text>
<polygon fill="#666666" stroke="#666666" points="13.5,-31.5 13.5,-31.5 158.5,-31.5 158.5,-31.5 13.5,-31.5"/>
<polygon fill="#666666" stroke="#666666" points="13.5,-16.5 13.5,-16.5 158.5,-16.5 158.5,-16.5 13.5,-16.5"/>
<polygon fill="none" stroke="#666666" points="13,0 13,-49 158,-49 158,0 13,0"/>
</a>
</g>
</g>
<!-- Node2 -->
<g id="Node000002" class="node">
<title>Node2</title>
<g id="a_Node000002"><a xlink:href="../../dc/d22/classBankable_1_1MIDIButtons.html" target="_top" xlink:title=" ">
<polygon fill="white" stroke="transparent" points="171,-400 0,-400 0,-85 171,-85 171,-400"/>
<text text-anchor="start" x="5.5" y="-387.5" font-family="Helvetica,sans-Serif" font-size="10.00">MIDIButtons&lt; SingleAddress,</text>
<text text-anchor="start" x="5.5" y="-376.5" font-family="Helvetica,sans-Serif" font-size="10.00"> DigitalCCSender, NumButtons &gt;</text>
<text text-anchor="start" x="19.5" y="-361.5" font-family="Helvetica,sans-Serif" font-size="10.00">+</text>
<text text-anchor="start" x="47.5" y="-361.5" font-family="Helvetica,sans-Serif" font-size="10.00">sender</text>
<text text-anchor="start" x="19.5" y="-346.5" font-family="Helvetica,sans-Serif" font-size="10.00">#</text>
<text text-anchor="start" x="47.5" y="-346.5" font-family="Helvetica,sans-Serif" font-size="10.00">address</text>
<text text-anchor="start" x="19.5" y="-331.5" font-family="Helvetica,sans-Serif" font-size="10.00">#</text>
<text text-anchor="start" x="47.5" y="-331.5" font-family="Helvetica,sans-Serif" font-size="10.00">buttons</text>
<text text-anchor="start" x="19.5" y="-316.5" font-family="Helvetica,sans-Serif" font-size="10.00">#</text>
<text text-anchor="start" x="47.5" y="-316.5" font-family="Helvetica,sans-Serif" font-size="10.00">incrementAddress</text>
<text text-anchor="start" x="19.5" y="-301.5" font-family="Helvetica,sans-Serif" font-size="10.00">#</text>
<text text-anchor="start" x="47.5" y="-301.5" font-family="Helvetica,sans-Serif" font-size="10.00">activeButtons</text>
<text text-anchor="start" x="19.5" y="-286.5" font-family="Helvetica,sans-Serif" font-size="10.00">#</text>
<text text-anchor="start" x="47.5" y="-286.5" font-family="Helvetica,sans-Serif" font-size="10.00">next</text>
<text text-anchor="start" x="19.5" y="-271.5" font-family="Helvetica,sans-Serif" font-size="10.00">#</text>
<text text-anchor="start" x="47.5" y="-271.5" font-family="Helvetica,sans-Serif" font-size="10.00">previous</text>
<text text-anchor="start" x="19.5" y="-256.5" font-family="Helvetica,sans-Serif" font-size="10.00">#</text>
<text text-anchor="start" x="47.5" y="-256.5" font-family="Helvetica,sans-Serif" font-size="10.00">updatables</text>
<text text-anchor="start" x="19.5" y="-241.5" font-family="Helvetica,sans-Serif" font-size="10.00">+</text>
<text text-anchor="start" x="47.5" y="-241.5" font-family="Helvetica,sans-Serif" font-size="10.00">begin()</text>
<text text-anchor="start" x="19.5" y="-226.5" font-family="Helvetica,sans-Serif" font-size="10.00">+</text>
<text text-anchor="start" x="47.5" y="-226.5" font-family="Helvetica,sans-Serif" font-size="10.00">update()</text>
<text text-anchor="start" x="19.5" y="-211.5" font-family="Helvetica,sans-Serif" font-size="10.00">+</text>
<text text-anchor="start" x="47.5" y="-211.5" font-family="Helvetica,sans-Serif" font-size="10.00">invert()</text>
<text text-anchor="start" x="19.5" y="-196.5" font-family="Helvetica,sans-Serif" font-size="10.00">+</text>
<text text-anchor="start" x="47.5" y="-196.5" font-family="Helvetica,sans-Serif" font-size="10.00">getButtonState()</text>
<text text-anchor="start" x="19.5" y="-181.5" font-family="Helvetica,sans-Serif" font-size="10.00">#</text>
<text text-anchor="start" x="47.5" y="-181.5" font-family="Helvetica,sans-Serif" font-size="10.00">MIDIButtons()</text>
<text text-anchor="start" x="21" y="-166.5" font-family="Helvetica,sans-Serif" font-size="10.00">*</text>
<text text-anchor="start" x="47.5" y="-166.5" font-family="Helvetica,sans-Serif" font-size="10.00">enable()</text>
<text text-anchor="start" x="21" y="-151.5" font-family="Helvetica,sans-Serif" font-size="10.00">*</text>
<text text-anchor="start" x="47.5" y="-151.5" font-family="Helvetica,sans-Serif" font-size="10.00">disable()</text>
<text text-anchor="start" x="21" y="-136.5" font-family="Helvetica,sans-Serif" font-size="10.00">*</text>
<text text-anchor="start" x="47.5" y="-136.5" font-family="Helvetica,sans-Serif" font-size="10.00">isEnabled()</text>
<text text-anchor="start" x="21" y="-121.5" font-family="Helvetica,sans-Serif" font-size="10.00">*</text>
<text text-anchor="start" x="47.5" y="-121.5" font-family="Helvetica,sans-Serif" font-size="10.00">moveDown()</text>
<text text-anchor="start" x="21" y="-106.5" font-family="Helvetica,sans-Serif" font-size="10.00">*</text>
<text text-anchor="start" x="47.5" y="-106.5" font-family="Helvetica,sans-Serif" font-size="10.00">beginAll()</text>
<text text-anchor="start" x="21" y="-91.5" font-family="Helvetica,sans-Serif" font-size="10.00">*</text>
<text text-anchor="start" x="47.5" y="-91.5" font-family="Helvetica,sans-Serif" font-size="10.00">updateAll()</text>
<polygon fill="#666666" stroke="#666666" points="0.5,-371.5 0.5,-371.5 171.5,-371.5 171.5,-371.5 0.5,-371.5"/>
<polygon fill="#666666" stroke="#666666" points="0.5,-251.5 0.5,-251.5 45.5,-251.5 45.5,-251.5 0.5,-251.5"/>
<polygon fill="#666666" stroke="#666666" points="45.5,-251.5 45.5,-251.5 171.5,-251.5 171.5,-251.5 45.5,-251.5"/>
<polygon fill="none" stroke="#666666" points="0,-85 0,-400 171,-400 171,-85 0,-85"/>
</a>
</g>
</g>
<!-- Node2&#45;&gt;Node1 -->
<g id="edge1_Node000001_Node000002" class="edge">
<title>Node2&#45;&gt;Node1</title>
<g id="a_edge1_Node000001_Node000002"><a xlink:title=" ">
<path fill="none" stroke="#63b8ff" d="M85.5,-74.62C85.5,-65.12 85.5,-56.5 85.5,-49.23"/>
<polygon fill="none" stroke="#63b8ff" points="82,-74.81 85.5,-84.81 89,-74.81 82,-74.81"/>
</a>
</g>
</g>
<!-- Node3 -->
<g id="Node000003" class="node">
<title>Node3</title>
<g id="a_Node000003"><a xlink:href="../../d1/d55/classAH_1_1Updatable.html" target="_top" xlink:title="A super class for object that have to be updated regularly.">
<polygon fill="white" stroke="transparent" points="139,-530 32,-530 32,-436 139,-436 139,-530"/>
<text text-anchor="start" x="37.5" y="-518" font-family="Helvetica,sans-Serif" font-size="10.00">MIDIOutputElement</text>
<text text-anchor="start" x="84" y="-503" font-family="Helvetica,sans-Serif" font-size="10.00"> </text>
<text text-anchor="start" x="45" y="-488" font-family="Helvetica,sans-Serif" font-size="10.00">*</text>
<text text-anchor="start" x="63.5" y="-488" font-family="Helvetica,sans-Serif" font-size="10.00">begin()</text>
<text text-anchor="start" x="45" y="-473" font-family="Helvetica,sans-Serif" font-size="10.00">*</text>
<text text-anchor="start" x="63.5" y="-473" font-family="Helvetica,sans-Serif" font-size="10.00">update()</text>
<text text-anchor="start" x="45" y="-458" font-family="Helvetica,sans-Serif" font-size="10.00">*</text>
<text text-anchor="start" x="63.5" y="-458" font-family="Helvetica,sans-Serif" font-size="10.00">beginAll()</text>
<text text-anchor="start" x="45" y="-443" font-family="Helvetica,sans-Serif" font-size="10.00">*</text>
<text text-anchor="start" x="63.5" y="-443" font-family="Helvetica,sans-Serif" font-size="10.00">updateAll()</text>
<polygon fill="#666666" stroke="#666666" points="32.5,-513 32.5,-513 139.5,-513 139.5,-513 32.5,-513"/>
<polygon fill="#666666" stroke="#666666" points="32.5,-498 32.5,-498 139.5,-498 139.5,-498 32.5,-498"/>
<polygon fill="none" stroke="#666666" points="32,-436 32,-530 139,-530 139,-436 32,-436"/>
</a>
</g>
</g>
<!-- Node3&#45;&gt;Node2 -->
<g id="edge2_Node000002_Node000003" class="edge">
<title>Node3&#45;&gt;Node2</title>
<g id="a_edge2_Node000002_Node000003"><a xlink:title=" ">
<path fill="none" stroke="#63b8ff" d="M85.5,-425.61C85.5,-417.67 85.5,-409.22 85.5,-400.45"/>
<polygon fill="none" stroke="#63b8ff" points="82,-425.73 85.5,-435.73 89,-425.73 82,-425.73"/>
</a>
</g>
</g>
<!-- Node4 -->
<g id="Node000004" class="node">
<title>Node4</title>
<g id="a_Node000004"><a xlink:href="../../d8/d1a/classAH_1_1UpdatableCRTP.html" target="_top" xlink:title=" ">
<polygon fill="white" stroke="transparent" points="159,-746 12,-746 12,-566 159,-566 159,-746"/>
<text text-anchor="start" x="17.5" y="-734" font-family="Helvetica,sans-Serif" font-size="10.00">UpdatableCRTP&lt; Updatable</text>
<text text-anchor="start" x="25.5" y="-723" font-family="Helvetica,sans-Serif" font-size="10.00">&lt; NormalUpdatable &gt; &gt;</text>
<text text-anchor="start" x="25" y="-708" font-family="Helvetica,sans-Serif" font-size="10.00">#</text>
<text text-anchor="start" x="46.5" y="-708" font-family="Helvetica,sans-Serif" font-size="10.00">next</text>
<text text-anchor="start" x="25" y="-693" font-family="Helvetica,sans-Serif" font-size="10.00">#</text>
<text text-anchor="start" x="46.5" y="-693" font-family="Helvetica,sans-Serif" font-size="10.00">previous</text>
<text text-anchor="start" x="25" y="-678" font-family="Helvetica,sans-Serif" font-size="10.00">#</text>
<text text-anchor="start" x="46.5" y="-678" font-family="Helvetica,sans-Serif" font-size="10.00">updatables</text>
<text text-anchor="start" x="25" y="-663" font-family="Helvetica,sans-Serif" font-size="10.00">+</text>
<text text-anchor="start" x="46.5" y="-663" font-family="Helvetica,sans-Serif" font-size="10.00">~UpdatableCRTP()</text>
<text text-anchor="start" x="25" y="-648" font-family="Helvetica,sans-Serif" font-size="10.00">#</text>
<text text-anchor="start" x="46.5" y="-648" font-family="Helvetica,sans-Serif" font-size="10.00">UpdatableCRTP()</text>
<text text-anchor="start" x="25" y="-633" font-family="Helvetica,sans-Serif" font-size="10.00">#</text>
<text text-anchor="start" x="46.5" y="-633" font-family="Helvetica,sans-Serif" font-size="10.00">operator=()</text>
<text text-anchor="start" x="26.5" y="-618" font-family="Helvetica,sans-Serif" font-size="10.00">*</text>
<text text-anchor="start" x="46.5" y="-618" font-family="Helvetica,sans-Serif" font-size="10.00">enable()</text>
<text text-anchor="start" x="26.5" y="-603" font-family="Helvetica,sans-Serif" font-size="10.00">*</text>
<text text-anchor="start" x="46.5" y="-603" font-family="Helvetica,sans-Serif" font-size="10.00">disable()</text>
<text text-anchor="start" x="26.5" y="-588" font-family="Helvetica,sans-Serif" font-size="10.00">*</text>
<text text-anchor="start" x="46.5" y="-588" font-family="Helvetica,sans-Serif" font-size="10.00">isEnabled()</text>
<text text-anchor="start" x="26.5" y="-573" font-family="Helvetica,sans-Serif" font-size="10.00">*</text>
<text text-anchor="start" x="46.5" y="-573" font-family="Helvetica,sans-Serif" font-size="10.00">moveDown()</text>
<polygon fill="#666666" stroke="#666666" points="12.5,-718 12.5,-718 159.5,-718 159.5,-718 12.5,-718"/>
<polygon fill="#666666" stroke="#666666" points="12.5,-673 12.5,-673 44.5,-673 44.5,-673 12.5,-673"/>
<polygon fill="#666666" stroke="#666666" points="44.5,-673 44.5,-673 159.5,-673 159.5,-673 44.5,-673"/>
<polygon fill="none" stroke="#666666" points="12,-566 12,-746 159,-746 159,-566 12,-566"/>
</a>
</g>
</g>
<!-- Node4&#45;&gt;Node3 -->
<g id="edge3_Node000003_Node000004" class="edge">
<title>Node4&#45;&gt;Node3</title>
<g id="a_edge3_Node000003_Node000004"><a xlink:title=" ">
<path fill="none" stroke="#63b8ff" d="M85.5,-555.92C85.5,-547.05 85.5,-538.38 85.5,-530.31"/>
<polygon fill="none" stroke="#63b8ff" points="82,-555.99 85.5,-565.99 89,-555.99 82,-555.99"/>
</a>
</g>
</g>
<!-- Node5 -->
<g id="Node000005" class="node">
<title>Node5</title>
<g id="a_Node000005"><a xlink:href="../../d4/d23/classDoublyLinkable.html" target="_top" xlink:title=" ">
<polygon fill="white" stroke="transparent" points="159,-887 12,-887 12,-782 159,-782 159,-887"/>
<text text-anchor="start" x="17.5" y="-874.5" font-family="Helvetica,sans-Serif" font-size="10.00">DoublyLinkable&lt; Updatable</text>
<text text-anchor="start" x="25.5" y="-863.5" font-family="Helvetica,sans-Serif" font-size="10.00">&lt; NormalUpdatable &gt; &gt;</text>
<text text-anchor="start" x="25" y="-848.5" font-family="Helvetica,sans-Serif" font-size="10.00">#</text>
<text text-anchor="start" x="46.5" y="-848.5" font-family="Helvetica,sans-Serif" font-size="10.00">next</text>
<text text-anchor="start" x="25" y="-833.5" font-family="Helvetica,sans-Serif" font-size="10.00">#</text>
<text text-anchor="start" x="46.5" y="-833.5" font-family="Helvetica,sans-Serif" font-size="10.00">previous</text>
<text text-anchor="start" x="25" y="-818.5" font-family="Helvetica,sans-Serif" font-size="10.00">#</text>
<text text-anchor="start" x="46.5" y="-818.5" font-family="Helvetica,sans-Serif" font-size="10.00">~DoublyLinkable()</text>
<text text-anchor="start" x="25" y="-803.5" font-family="Helvetica,sans-Serif" font-size="10.00">#</text>
<text text-anchor="start" x="46.5" y="-803.5" font-family="Helvetica,sans-Serif" font-size="10.00">DoublyLinkable()</text>
<text text-anchor="start" x="25" y="-788.5" font-family="Helvetica,sans-Serif" font-size="10.00">#</text>
<text text-anchor="start" x="46.5" y="-788.5" font-family="Helvetica,sans-Serif" font-size="10.00">operator=()</text>
<polygon fill="#666666" stroke="#666666" points="12.5,-858.5 12.5,-858.5 159.5,-858.5 159.5,-858.5 12.5,-858.5"/>
<polygon fill="#666666" stroke="#666666" points="12.5,-828.5 12.5,-828.5 44.5,-828.5 44.5,-828.5 12.5,-828.5"/>
<polygon fill="#666666" stroke="#666666" points="44.5,-828.5 44.5,-828.5 159.5,-828.5 159.5,-828.5 44.5,-828.5"/>
<polygon fill="none" stroke="#666666" points="12,-782 12,-887 159,-887 159,-782 12,-782"/>
</a>
</g>
</g>
<!-- Node5&#45;&gt;Node4 -->
<g id="edge4_Node000004_Node000005" class="edge">
<title>Node5&#45;&gt;Node4</title>
<g id="a_edge4_Node000004_Node000005"><a xlink:title=" ">
<path fill="none" stroke="#63b8ff" d="M85.5,-771.96C85.5,-763.58 85.5,-754.86 85.5,-746.12"/>
<polygon fill="none" stroke="#63b8ff" points="82,-771.97 85.5,-781.97 89,-771.97 82,-771.97"/>
</a>
</g>
</g>
</g>
</svg>
