<?xml version="1.0" encoding="UTF-8" standalone="no"?>
<!DOCTYPE svg PUBLIC "-//W3C//DTD SVG 1.1//EN"
 "http://www.w3.org/Graphics/SVG/1.1/DTD/svg11.dtd">
<!-- Generated by graphviz version 2.43.0 (0)
 -->
<!-- Title: AudioVU Pages: 1 -->
<svg width="115pt" height="542pt"
 viewBox="0.00 0.00 115.00 542.00" xmlns="http://www.w3.org/2000/svg" xmlns:xlink="http://www.w3.org/1999/xlink">
<g id="graph0" class="graph" transform="scale(1 1) rotate(0) translate(4 538)">
<title>AudioVU</title>
<!-- Node1 -->
<g id="Node000001" class="node">
<title>Node1</title>
<g id="a_Node000001"><a xlink:title="A VU meter that reads from an Audio stream using the Analyzer class.">
<polygon fill="#999999" stroke="transparent" points="102,-329 5,-329 5,-175 102,-175 102,-329"/>
<text text-anchor="start" x="32.5" y="-317" font-family="Helvetica,sans-Serif" font-size="10.00">AudioVU</text>
<text text-anchor="start" x="12" y="-302" font-family="Helvetica,sans-Serif" font-size="10.00">&#45;</text>
<text text-anchor="start" x="22.5" y="-302" font-family="Helvetica,sans-Serif" font-size="10.00">ballistics</text>
<text text-anchor="start" x="12" y="-287" font-family="Helvetica,sans-Serif" font-size="10.00">&#45;</text>
<text text-anchor="start" x="22.5" y="-287" font-family="Helvetica,sans-Serif" font-size="10.00">level</text>
<text text-anchor="start" x="12" y="-272" font-family="Helvetica,sans-Serif" font-size="10.00">&#45;</text>
<text text-anchor="start" x="22.5" y="-272" font-family="Helvetica,sans-Serif" font-size="10.00">gain</text>
<text text-anchor="start" x="9.5" y="-257" font-family="Helvetica,sans-Serif" font-size="10.00">+</text>
<text text-anchor="start" x="22.5" y="-257" font-family="Helvetica,sans-Serif" font-size="10.00">AudioVU()</text>
<text text-anchor="start" x="9.5" y="-242" font-family="Helvetica,sans-Serif" font-size="10.00">+</text>
<text text-anchor="start" x="22.5" y="-242" font-family="Helvetica,sans-Serif" font-size="10.00">AudioVU()</text>
<text text-anchor="start" x="9.5" y="-227" font-family="Helvetica,sans-Serif" font-size="10.00">+</text>
<text text-anchor="start" x="22.5" y="-227" font-family="Helvetica,sans-Serif" font-size="10.00">getValue()</text>
<text text-anchor="start" x="9.5" y="-212" font-family="Helvetica,sans-Serif" font-size="10.00">+</text>
<text text-anchor="start" x="22.5" y="-212" font-family="Helvetica,sans-Serif" font-size="10.00">getFloatValue()</text>
<text text-anchor="start" x="9.5" y="-197" font-family="Helvetica,sans-Serif" font-size="10.00">+</text>
<text text-anchor="start" x="22.5" y="-197" font-family="Helvetica,sans-Serif" font-size="10.00">getOverload()</text>
<text text-anchor="start" x="9.5" y="-182" font-family="Helvetica,sans-Serif" font-size="10.00">+</text>
<text text-anchor="start" x="22.5" y="-182" font-family="Helvetica,sans-Serif" font-size="10.00">setGain()</text>
<polygon fill="#666666" stroke="#666666" points="5.5,-312 5.5,-312 102.5,-312 102.5,-312 5.5,-312"/>
<polygon fill="#666666" stroke="#666666" points="5.5,-267 5.5,-267 20.5,-267 20.5,-267 5.5,-267"/>
<polygon fill="#666666" stroke="#666666" points="20.5,-267 20.5,-267 102.5,-267 102.5,-267 20.5,-267"/>
<polygon fill="none" stroke="#666666" points="5,-175 5,-329 102,-329 102,-175 5,-175"/>
</a>
</g>
</g>
<!-- Node3 -->
<g id="Node000003" class="node">
<title>Node3</title>
<g id="a_Node000003"><a xlink:href="../../d9/dbf/classAudioVULEDs.html" target="_top" xlink:title="A VU meter that reads from an Audio stream using the AudioAnalyzePeak class, and displays it on an LE...">
<polygon fill="white" stroke="transparent" points="107,-139 0,-139 0,0 107,0 107,-139"/>
<text text-anchor="start" x="5.5" y="-126.5" font-family="Helvetica,sans-Serif" font-size="10.00">AudioVULEDs&lt; N &gt;</text>
<text text-anchor="start" x="10" y="-111.5" font-family="Helvetica,sans-Serif" font-size="10.00">&#45;</text>
<text text-anchor="start" x="23.5" y="-111.5" font-family="Helvetica,sans-Serif" font-size="10.00">vuleds</text>
<text text-anchor="start" x="10" y="-96.5" font-family="Helvetica,sans-Serif" font-size="10.00">&#45;</text>
<text text-anchor="start" x="23.5" y="-96.5" font-family="Helvetica,sans-Serif" font-size="10.00">previousValue</text>
<text text-anchor="start" x="7.5" y="-81.5" font-family="Helvetica,sans-Serif" font-size="10.00">+</text>
<text text-anchor="start" x="23.5" y="-81.5" font-family="Helvetica,sans-Serif" font-size="10.00">AudioVULEDs()</text>
<text text-anchor="start" x="7.5" y="-66.5" font-family="Helvetica,sans-Serif" font-size="10.00">+</text>
<text text-anchor="start" x="23.5" y="-66.5" font-family="Helvetica,sans-Serif" font-size="10.00">begin()</text>
<text text-anchor="start" x="7.5" y="-51.5" font-family="Helvetica,sans-Serif" font-size="10.00">+</text>
<text text-anchor="start" x="23.5" y="-51.5" font-family="Helvetica,sans-Serif" font-size="10.00">update()</text>
<text text-anchor="start" x="7.5" y="-36.5" font-family="Helvetica,sans-Serif" font-size="10.00">+</text>
<text text-anchor="start" x="23.5" y="-36.5" font-family="Helvetica,sans-Serif" font-size="10.00">setMode()</text>
<text text-anchor="start" x="7.5" y="-21.5" font-family="Helvetica,sans-Serif" font-size="10.00">+</text>
<text text-anchor="start" x="23.5" y="-21.5" font-family="Helvetica,sans-Serif" font-size="10.00">dotMode()</text>
<text text-anchor="start" x="7.5" y="-6.5" font-family="Helvetica,sans-Serif" font-size="10.00">+</text>
<text text-anchor="start" x="23.5" y="-6.5" font-family="Helvetica,sans-Serif" font-size="10.00">barMode()</text>
<polygon fill="#666666" stroke="#666666" points="0.5,-121.5 0.5,-121.5 107.5,-121.5 107.5,-121.5 0.5,-121.5"/>
<polygon fill="#666666" stroke="#666666" points="0.5,-91.5 0.5,-91.5 21.5,-91.5 21.5,-91.5 0.5,-91.5"/>
<polygon fill="#666666" stroke="#666666" points="21.5,-91.5 21.5,-91.5 107.5,-91.5 107.5,-91.5 21.5,-91.5"/>
<polygon fill="none" stroke="#666666" points="0,0 0,-139 107,-139 107,0 0,0"/>
</a>
</g>
</g>
<!-- Node1&#45;&gt;Node3 -->
<g id="edge2_Node000001_Node000003" class="edge">
<title>Node1&#45;&gt;Node3</title>
<g id="a_edge2_Node000001_Node000003"><a xlink:title=" ">
<path fill="none" stroke="#63b8ff" d="M53.5,-164.92C53.5,-156.31 53.5,-147.65 53.5,-139.26"/>
<polygon fill="none" stroke="#63b8ff" points="50,-164.97 53.5,-174.97 57,-164.97 50,-164.97"/>
</a>
</g>
</g>
<!-- Node2 -->
<g id="Node000002" class="node">
<title>Node2</title>
<g id="a_Node000002"><a xlink:href="../../dc/d25/classInterfaces_1_1MCU_1_1IVU.html" target="_top" xlink:title="An abstract interface for VU meters.">
<polygon fill="white" stroke="transparent" points="102,-534 5,-534 5,-365 102,-365 102,-534"/>
<text text-anchor="start" x="45" y="-521.5" font-family="Helvetica,sans-Serif" font-size="10.00">IVU</text>
<text text-anchor="start" x="9.5" y="-506.5" font-family="Helvetica,sans-Serif" font-size="10.00">#</text>
<text text-anchor="start" x="22.5" y="-506.5" font-family="Helvetica,sans-Serif" font-size="10.00">max</text>
<text text-anchor="start" x="9.5" y="-491.5" font-family="Helvetica,sans-Serif" font-size="10.00">#</text>
<text text-anchor="start" x="22.5" y="-491.5" font-family="Helvetica,sans-Serif" font-size="10.00">alwaysDirty</text>
<text text-anchor="start" x="9.5" y="-476.5" font-family="Helvetica,sans-Serif" font-size="10.00">#</text>
<text text-anchor="start" x="22.5" y="-476.5" font-family="Helvetica,sans-Serif" font-size="10.00">dirty</text>
<text text-anchor="start" x="9.5" y="-461.5" font-family="Helvetica,sans-Serif" font-size="10.00">+</text>
<text text-anchor="start" x="22.5" y="-461.5" font-family="Helvetica,sans-Serif" font-size="10.00">IVU()</text>
<text text-anchor="start" x="9.5" y="-446.5" font-family="Helvetica,sans-Serif" font-size="10.00">+</text>
<text text-anchor="start" x="22.5" y="-446.5" font-family="Helvetica,sans-Serif" font-size="10.00">getValue()</text>
<text text-anchor="start" x="9.5" y="-431.5" font-family="Helvetica,sans-Serif" font-size="10.00">+</text>
<text text-anchor="start" x="22.5" y="-431.5" font-family="Helvetica,sans-Serif" font-size="10.00">getOverload()</text>
<text text-anchor="start" x="9.5" y="-416.5" font-family="Helvetica,sans-Serif" font-size="10.00">+</text>
<text text-anchor="start" x="22.5" y="-416.5" font-family="Helvetica,sans-Serif" font-size="10.00">getFloatValue()</text>
<text text-anchor="start" x="9.5" y="-401.5" font-family="Helvetica,sans-Serif" font-size="10.00">+</text>
<text text-anchor="start" x="22.5" y="-401.5" font-family="Helvetica,sans-Serif" font-size="10.00">getMax()</text>
<text text-anchor="start" x="11" y="-386.5" font-family="Helvetica,sans-Serif" font-size="10.00">*</text>
<text text-anchor="start" x="22.5" y="-386.5" font-family="Helvetica,sans-Serif" font-size="10.00">getDirty()</text>
<text text-anchor="start" x="11" y="-371.5" font-family="Helvetica,sans-Serif" font-size="10.00">*</text>
<text text-anchor="start" x="22.5" y="-371.5" font-family="Helvetica,sans-Serif" font-size="10.00">clearDirty()</text>
<polygon fill="#666666" stroke="#666666" points="5.5,-516.5 5.5,-516.5 102.5,-516.5 102.5,-516.5 5.5,-516.5"/>
<polygon fill="#666666" stroke="#666666" points="5.5,-471.5 5.5,-471.5 20.5,-471.5 20.5,-471.5 5.5,-471.5"/>
<polygon fill="#666666" stroke="#666666" points="20.5,-471.5 20.5,-471.5 102.5,-471.5 102.5,-471.5 20.5,-471.5"/>
<polygon fill="none" stroke="#666666" points="5,-365 5,-534 102,-534 102,-365 5,-365"/>
</a>
</g>
</g>
<!-- Node2&#45;&gt;Node1 -->
<g id="edge1_Node000001_Node000002" class="edge">
<title>Node2&#45;&gt;Node1</title>
<g id="a_edge1_Node000001_Node000002"><a xlink:title=" ">
<path fill="none" stroke="#63b8ff" d="M53.5,-354.72C53.5,-346.16 53.5,-337.55 53.5,-329.17"/>
<polygon fill="none" stroke="#63b8ff" points="50,-354.74 53.5,-364.74 57,-354.74 50,-354.74"/>
</a>
</g>
</g>
</g>
</svg>
