<?xml version="1.0" encoding="UTF-8" standalone="no"?>
<!DOCTYPE svg PUBLIC "-//W3C//DTD SVG 1.1//EN"
 "http://www.w3.org/Graphics/SVG/1.1/DTD/svg11.dtd">
<!-- Generated by graphviz version 2.43.0 (0)
 -->
<!-- Title: MatrixAddress&lt; nb_rows, nb_cols &gt; Pages: 1 -->
<svg width="212pt" height="386pt"
 viewBox="0.00 0.00 212.00 386.00" xmlns="http://www.w3.org/2000/svg" xmlns:xlink="http://www.w3.org/1999/xlink">
<g id="graph0" class="graph" transform="scale(1 1) rotate(0) translate(4 382)">
<title>MatrixAddress&lt; nb_rows, nb_cols &gt;</title>
<polygon fill="white" stroke="transparent" points="-4,4 -4,-382 208,-382 208,4 -4,4"/>
<!-- Node1 -->
<g id="node1" class="node">
<title>Node1</title>
<g id="a_node1"><a xlink:title=" ">
<polygon fill="#bfbfbf" stroke="black" points="31,-0.5 31,-101.5 173,-101.5 173,-0.5 31,-0.5"/>
<text text-anchor="start" x="39" y="-89.5" font-family="Helvetica,sans-Serif" font-size="10.00">MatrixAddress&lt; nb_rows,</text>
<text text-anchor="middle" x="102" y="-78.5" font-family="Helvetica,sans-Serif" font-size="10.00"> nb_cols &gt;</text>
<polyline fill="none" stroke="black" points="31,-71.5 173,-71.5 "/>
<text text-anchor="start" x="39" y="-59.5" font-family="Helvetica,sans-Serif" font-size="10.00">&#45; addresses</text>
<text text-anchor="start" x="39" y="-48.5" font-family="Helvetica,sans-Serif" font-size="10.00">&#45; channelCN</text>
<polyline fill="none" stroke="black" points="31,-41.5 173,-41.5 "/>
<text text-anchor="start" x="39" y="-29.5" font-family="Helvetica,sans-Serif" font-size="10.00">+ MatrixAddress()</text>
<text text-anchor="start" x="39" y="-18.5" font-family="Helvetica,sans-Serif" font-size="10.00">+ getBaseAddress()</text>
<text text-anchor="start" x="39" y="-7.5" font-family="Helvetica,sans-Serif" font-size="10.00">+ getActiveAddress()</text>
</a>
</g>
</g>
<!-- Node2 -->
<g id="node2" class="node">
<title>Node2</title>
<g id="a_node2"><a xlink:href="../../d2/d97/classOutputBankableMIDIAddress.html" target="_top" xlink:title="A base class for all MIDIOutputElements that can be banked.">
<polygon fill="white" stroke="black" points="14.5,-138.5 14.5,-217.5 189.5,-217.5 189.5,-138.5 14.5,-138.5"/>
<text text-anchor="middle" x="102" y="-205.5" font-family="Helvetica,sans-Serif" font-size="10.00">OutputBankableMIDIAddress</text>
<polyline fill="none" stroke="black" points="14.5,-198.5 189.5,-198.5 "/>
<text text-anchor="start" x="22.5" y="-186.5" font-family="Helvetica,sans-Serif" font-size="10.00">&#45; type</text>
<polyline fill="none" stroke="black" points="14.5,-179.5 189.5,-179.5 "/>
<text text-anchor="start" x="22.5" y="-167.5" font-family="Helvetica,sans-Serif" font-size="10.00">+ OutputBankableMIDIAddress()</text>
<text text-anchor="start" x="22.5" y="-156.5" font-family="Helvetica,sans-Serif" font-size="10.00">+ OutputBankableMIDIAddress()</text>
<text text-anchor="start" x="22.5" y="-145.5" font-family="Helvetica,sans-Serif" font-size="10.00">+ getAddressOffset()</text>
</a>
</g>
</g>
<!-- Node2&#45;&gt;Node1 -->
<g id="edge1" class="edge">
<title>Node2&#45;&gt;Node1</title>
<path fill="none" stroke="midnightblue" d="M102,-128.41C102,-119.64 102,-110.49 102,-101.69"/>
<polygon fill="none" stroke="midnightblue" points="98.5,-128.48 102,-138.48 105.5,-128.48 98.5,-128.48"/>
</g>
<!-- Node3 -->
<g id="node3" class="node">
<title>Node3</title>
<g id="a_node3"><a xlink:href="../../d2/d4e/classOutputBankableMIDIAddress__Base.html" target="_top" xlink:title=" ">
<polygon fill="white" stroke="black" points="0,-254.5 0,-377.5 204,-377.5 204,-254.5 0,-254.5"/>
<text text-anchor="middle" x="102" y="-365.5" font-family="Helvetica,sans-Serif" font-size="10.00">OutputBankableMIDIAddress_Base</text>
<polyline fill="none" stroke="black" points="0,-358.5 204,-358.5 "/>
<text text-anchor="start" x="8" y="-346.5" font-family="Helvetica,sans-Serif" font-size="10.00"># bank</text>
<text text-anchor="start" x="8" y="-335.5" font-family="Helvetica,sans-Serif" font-size="10.00">&#45; lockedSetting</text>
<text text-anchor="start" x="8" y="-324.5" font-family="Helvetica,sans-Serif" font-size="10.00">&#45; UNLOCKED</text>
<polyline fill="none" stroke="black" points="0,-317.5 204,-317.5 "/>
<text text-anchor="start" x="8" y="-305.5" font-family="Helvetica,sans-Serif" font-size="10.00">+ getRawBankSetting()</text>
<text text-anchor="start" x="8" y="-294.5" font-family="Helvetica,sans-Serif" font-size="10.00">+ getSelection()</text>
<text text-anchor="start" x="8" y="-283.5" font-family="Helvetica,sans-Serif" font-size="10.00">+ lock()</text>
<text text-anchor="start" x="8" y="-272.5" font-family="Helvetica,sans-Serif" font-size="10.00">+ unlock()</text>
<text text-anchor="start" x="8" y="-261.5" font-family="Helvetica,sans-Serif" font-size="10.00"># OutputBankableMIDIAddress_Base()</text>
</a>
</g>
</g>
<!-- Node3&#45;&gt;Node2 -->
<g id="edge2" class="edge">
<title>Node3&#45;&gt;Node2</title>
<path fill="none" stroke="midnightblue" d="M102,-243.91C102,-234.83 102,-225.82 102,-217.54"/>
<polygon fill="none" stroke="midnightblue" points="98.5,-244.16 102,-254.16 105.5,-244.16 98.5,-244.16"/>
</g>
</g>
</svg>
