<?xml version="1.0" encoding="UTF-8" standalone="no"?>
<!DOCTYPE svg PUBLIC "-//W3C//DTD SVG 1.1//EN"
 "http://www.w3.org/Graphics/SVG/1.1/DTD/svg11.dtd">
<!-- Generated by graphviz version 2.38.0 (20140413.2041)
 -->
<!-- Title: DisplayElement Pages: 1 -->
<svg width="587pt" height="1042pt"
 viewBox="0.00 0.00 587.00 1042.00" xmlns="http://www.w3.org/2000/svg" xmlns:xlink="http://www.w3.org/1999/xlink">
<g id="graph0" class="graph" transform="scale(1 1) rotate(0) translate(4 1038)">
<title>DisplayElement</title>
<polygon fill="white" stroke="none" points="-4,4 -4,-1038 583,-1038 583,4 -4,4"/>
<!-- Node1 -->
<g id="node1" class="node"><title>Node1</title>
<g id="a_node1"><a xlink:title="An interface for elements that draw to a display.">
<polygon fill="#bfbfbf" stroke="black" points="128.5,-419 128.5,-531 235.5,-531 235.5,-419 128.5,-419"/>
<text text-anchor="middle" x="182" y="-519" font-family="Helvetica,sans-Serif" font-size="10.00">DisplayElement</text>
<polyline fill="none" stroke="black" points="128.5,-512 235.5,-512 "/>
<text text-anchor="middle" x="182" y="-500" font-family="Helvetica,sans-Serif" font-size="10.00"> </text>
<polyline fill="none" stroke="black" points="128.5,-493 235.5,-493 "/>
<text text-anchor="start" x="136.5" y="-481" font-family="Helvetica,sans-Serif" font-size="10.00">+ ~DisplayElement()</text>
<text text-anchor="start" x="136.5" y="-470" font-family="Helvetica,sans-Serif" font-size="10.00">+ draw()</text>
<text text-anchor="start" x="136.5" y="-459" font-family="Helvetica,sans-Serif" font-size="10.00">+ getDisplay()</text>
<text text-anchor="start" x="136.5" y="-448" font-family="Helvetica,sans-Serif" font-size="10.00">+ getDisplay()</text>
<text text-anchor="start" x="136.5" y="-437" font-family="Helvetica,sans-Serif" font-size="10.00">+ getAll()</text>
<text text-anchor="start" x="136.5" y="-426" font-family="Helvetica,sans-Serif" font-size="10.00"># DisplayElement()</text>
</a>
</g>
</g>
<!-- Node2 -->
<g id="node2" class="node"><title>Node2</title>
<g id="a_node2"><a xlink:href="../../d4/d23/classDoublyLinkable.html" target="_top" xlink:title=" ">
<polygon fill="white" stroke="black" points="0,-110.5 0,-167.5 170,-167.5 170,-110.5 0,-110.5"/>
<text text-anchor="middle" x="85" y="-155.5" font-family="Helvetica,sans-Serif" font-size="10.00">DoublyLinkable&lt; DisplayElement &gt;</text>
<polyline fill="none" stroke="black" points="0,-148.5 170,-148.5 "/>
<text text-anchor="middle" x="85" y="-136.5" font-family="Helvetica,sans-Serif" font-size="10.00"> </text>
<polyline fill="none" stroke="black" points="0,-129.5 170,-129.5 "/>
<text text-anchor="start" x="8" y="-117.5" font-family="Helvetica,sans-Serif" font-size="10.00"># ~DoublyLinkable()</text>
</a>
</g>
</g>
<!-- Node1&#45;&gt;Node2 -->
<g id="edge2" class="edge"><title>Node1&#45;&gt;Node2</title>
<path fill="none" stroke="#404040" d="M138.431,-418.953C118.655,-390.534 97.3961,-354.275 87,-318 73.8237,-272.025 75.8469,-216.588 79.5081,-179.929"/>
<polygon fill="none" stroke="#404040" points="79.5312,-179.719 76.2144,-173.316 80.8493,-167.792 84.1661,-174.195 79.5312,-179.719"/>
<text text-anchor="middle" x="108.5" y="-310" font-family="Helvetica,sans-Serif" font-size="10.00"> #next</text>
<text text-anchor="middle" x="108.5" y="-299" font-family="Helvetica,sans-Serif" font-size="10.00">#previous</text>
</g>
<!-- Node3 -->
<g id="node3" class="node"><title>Node3</title>
<g id="a_node3"><a xlink:href="../../dd/d16/classDoublyLinkedList.html" target="_top" xlink:title=" ">
<polygon fill="white" stroke="black" points="188,-0.5 188,-277.5 322,-277.5 322,-0.5 188,-0.5"/>
<text text-anchor="start" x="196" y="-265.5" font-family="Helvetica,sans-Serif" font-size="10.00">DoublyLinkedList&lt; Display</text>
<text text-anchor="middle" x="255" y="-254.5" font-family="Helvetica,sans-Serif" font-size="10.00">Element &gt;</text>
<polyline fill="none" stroke="black" points="188,-247.5 322,-247.5 "/>
<text text-anchor="middle" x="255" y="-235.5" font-family="Helvetica,sans-Serif" font-size="10.00"> </text>
<polyline fill="none" stroke="black" points="188,-228.5 322,-228.5 "/>
<text text-anchor="start" x="196" y="-216.5" font-family="Helvetica,sans-Serif" font-size="10.00">+ append()</text>
<text text-anchor="start" x="196" y="-205.5" font-family="Helvetica,sans-Serif" font-size="10.00">+ append()</text>
<text text-anchor="start" x="196" y="-194.5" font-family="Helvetica,sans-Serif" font-size="10.00">+ insertBefore()</text>
<text text-anchor="start" x="196" y="-183.5" font-family="Helvetica,sans-Serif" font-size="10.00">+ insertBefore()</text>
<text text-anchor="start" x="196" y="-172.5" font-family="Helvetica,sans-Serif" font-size="10.00">+ insertSorted()</text>
<text text-anchor="start" x="196" y="-161.5" font-family="Helvetica,sans-Serif" font-size="10.00">+ insertSorted()</text>
<text text-anchor="start" x="196" y="-150.5" font-family="Helvetica,sans-Serif" font-size="10.00">+ remove()</text>
<text text-anchor="start" x="196" y="-139.5" font-family="Helvetica,sans-Serif" font-size="10.00">+ remove()</text>
<text text-anchor="start" x="196" y="-128.5" font-family="Helvetica,sans-Serif" font-size="10.00">+ moveDown()</text>
<text text-anchor="start" x="196" y="-117.5" font-family="Helvetica,sans-Serif" font-size="10.00">+ couldContain()</text>
<text text-anchor="start" x="196" y="-106.5" font-family="Helvetica,sans-Serif" font-size="10.00">+ begin()</text>
<text text-anchor="start" x="196" y="-95.5" font-family="Helvetica,sans-Serif" font-size="10.00">+ begin()</text>
<text text-anchor="start" x="196" y="-84.5" font-family="Helvetica,sans-Serif" font-size="10.00">+ end()</text>
<text text-anchor="start" x="196" y="-73.5" font-family="Helvetica,sans-Serif" font-size="10.00">+ end()</text>
<text text-anchor="start" x="196" y="-62.5" font-family="Helvetica,sans-Serif" font-size="10.00">+ rbegin()</text>
<text text-anchor="start" x="196" y="-51.5" font-family="Helvetica,sans-Serif" font-size="10.00">+ rbegin()</text>
<text text-anchor="start" x="196" y="-40.5" font-family="Helvetica,sans-Serif" font-size="10.00">+ rend()</text>
<text text-anchor="start" x="196" y="-29.5" font-family="Helvetica,sans-Serif" font-size="10.00">+ rend()</text>
<text text-anchor="start" x="196" y="-18.5" font-family="Helvetica,sans-Serif" font-size="10.00">+ getFirst()</text>
<text text-anchor="start" x="196" y="-7.5" font-family="Helvetica,sans-Serif" font-size="10.00">+ getLast()</text>
</a>
</g>
</g>
<!-- Node1&#45;&gt;Node3 -->
<g id="edge4" class="edge"><title>Node1&#45;&gt;Node3</title>
<path fill="none" stroke="#404040" d="M185.574,-418.981C188.589,-383.558 193.917,-336.696 203,-296 203.48,-293.847 203.979,-291.682 204.495,-289.508"/>
<polygon fill="none" stroke="#404040" points="204.509,-289.45 202.075,-282.662 207.404,-277.804 209.839,-284.592 204.509,-289.45"/>
<text text-anchor="middle" x="214" y="-310" font-family="Helvetica,sans-Serif" font-size="10.00"> &#45;last</text>
<text text-anchor="middle" x="214" y="-299" font-family="Helvetica,sans-Serif" font-size="10.00">&#45;first</text>
</g>
<!-- Node2&#45;&gt;Node1 -->
<g id="edge1" class="edge"><title>Node2&#45;&gt;Node1</title>
<path fill="none" stroke="midnightblue" d="M97.1547,-177.197C107.342,-208.721 122.091,-255.18 134,-296 145.967,-337.019 158.506,-383.663 167.767,-418.91"/>
<polygon fill="none" stroke="midnightblue" points="100.429,-175.946 94.0166,-167.512 93.7697,-178.104 100.429,-175.946"/>
</g>
<!-- Node3&#45;&gt;Node1 -->
<g id="edge3" class="edge"><title>Node3&#45;&gt;Node1</title>
<path fill="none" stroke="#404040" d="M236.924,-277.876C234.523,-291.483 231.882,-305.044 229,-318 222.391,-347.717 213.032,-380.019 204.403,-407.481"/>
<polygon fill="none" stroke="#404040" points="204.398,-407.497 206.391,-414.427 200.76,-418.932 198.768,-412.002 204.398,-407.497"/>
<text text-anchor="middle" x="257.5" y="-304.5" font-family="Helvetica,sans-Serif" font-size="10.00"> #elements</text>
</g>
<!-- Node4 -->
<g id="node4" class="node"><title>Node4</title>
<g id="a_node4"><a xlink:href="../../df/d42/classDisplayInterface.html" target="_top" xlink:title="An interface for displays.">
<polygon fill="white" stroke="black" points="325.5,-672.5 325.5,-938.5 470.5,-938.5 470.5,-672.5 325.5,-672.5"/>
<text text-anchor="middle" x="398" y="-926.5" font-family="Helvetica,sans-Serif" font-size="10.00">DisplayInterface</text>
<polyline fill="none" stroke="black" points="325.5,-919.5 470.5,-919.5 "/>
<text text-anchor="middle" x="398" y="-907.5" font-family="Helvetica,sans-Serif" font-size="10.00"> </text>
<polyline fill="none" stroke="black" points="325.5,-900.5 470.5,-900.5 "/>
<text text-anchor="start" x="333.5" y="-888.5" font-family="Helvetica,sans-Serif" font-size="10.00">+ ~DisplayInterface()</text>
<text text-anchor="start" x="333.5" y="-877.5" font-family="Helvetica,sans-Serif" font-size="10.00">+ begin()</text>
<text text-anchor="start" x="333.5" y="-866.5" font-family="Helvetica,sans-Serif" font-size="10.00">+ clear()</text>
<text text-anchor="start" x="333.5" y="-855.5" font-family="Helvetica,sans-Serif" font-size="10.00">+ drawBackground()</text>
<text text-anchor="start" x="333.5" y="-844.5" font-family="Helvetica,sans-Serif" font-size="10.00">+ display()</text>
<text text-anchor="start" x="333.5" y="-833.5" font-family="Helvetica,sans-Serif" font-size="10.00">+ drawPixel()</text>
<text text-anchor="start" x="333.5" y="-822.5" font-family="Helvetica,sans-Serif" font-size="10.00">+ setTextColor()</text>
<text text-anchor="start" x="333.5" y="-811.5" font-family="Helvetica,sans-Serif" font-size="10.00">+ setTextSize()</text>
<text text-anchor="start" x="333.5" y="-800.5" font-family="Helvetica,sans-Serif" font-size="10.00">+ setCursor()</text>
<text text-anchor="start" x="333.5" y="-789.5" font-family="Helvetica,sans-Serif" font-size="10.00">+ write()</text>
<text text-anchor="start" x="333.5" y="-778.5" font-family="Helvetica,sans-Serif" font-size="10.00">+ drawLine()</text>
<text text-anchor="start" x="333.5" y="-767.5" font-family="Helvetica,sans-Serif" font-size="10.00">+ drawFastVLine()</text>
<text text-anchor="start" x="333.5" y="-756.5" font-family="Helvetica,sans-Serif" font-size="10.00">+ drawFastHLine()</text>
<text text-anchor="start" x="333.5" y="-745.5" font-family="Helvetica,sans-Serif" font-size="10.00">+ drawXBitmap()</text>
<text text-anchor="start" x="333.5" y="-734.5" font-family="Helvetica,sans-Serif" font-size="10.00">+ fillRect()</text>
<text text-anchor="start" x="333.5" y="-723.5" font-family="Helvetica,sans-Serif" font-size="10.00">+ drawCircle()</text>
<text text-anchor="start" x="333.5" y="-712.5" font-family="Helvetica,sans-Serif" font-size="10.00">+ fillCircle()</text>
<text text-anchor="start" x="333.5" y="-701.5" font-family="Helvetica,sans-Serif" font-size="10.00">+ clearAndDrawBackground()</text>
<text text-anchor="start" x="333.5" y="-690.5" font-family="Helvetica,sans-Serif" font-size="10.00">+ beginAll()</text>
<text text-anchor="start" x="333.5" y="-679.5" font-family="Helvetica,sans-Serif" font-size="10.00"># DisplayInterface()</text>
</a>
</g>
</g>
<!-- Node4&#45;&gt;Node1 -->
<g id="edge5" class="edge"><title>Node4&#45;&gt;Node1</title>
<path fill="none" stroke="#404040" d="M325.263,-724.028C297.775,-691.299 267.491,-652.226 244,-614 230.232,-591.596 217.75,-565.61 207.654,-542.269"/>
<polygon fill="none" stroke="#404040" points="207.582,-542.097 201.556,-538.136 202.895,-531.05 208.92,-535.012 207.582,-542.097"/>
<text text-anchor="middle" x="290" y="-640.5" font-family="Helvetica,sans-Serif" font-size="10.00"> #display</text>
</g>
<!-- Node6 -->
<g id="node6" class="node"><title>Node6</title>
<g id="a_node6"><a xlink:href="../../d4/d23/classDoublyLinkable.html" target="_top" xlink:title=" ">
<polygon fill="white" stroke="black" points="253.5,-446.5 253.5,-503.5 426.5,-503.5 426.5,-446.5 253.5,-446.5"/>
<text text-anchor="middle" x="340" y="-491.5" font-family="Helvetica,sans-Serif" font-size="10.00">DoublyLinkable&lt; DisplayInterface &gt;</text>
<polyline fill="none" stroke="black" points="253.5,-484.5 426.5,-484.5 "/>
<text text-anchor="middle" x="340" y="-472.5" font-family="Helvetica,sans-Serif" font-size="10.00"> </text>
<polyline fill="none" stroke="black" points="253.5,-465.5 426.5,-465.5 "/>
<text text-anchor="start" x="261.5" y="-453.5" font-family="Helvetica,sans-Serif" font-size="10.00"># ~DoublyLinkable()</text>
</a>
</g>
</g>
<!-- Node4&#45;&gt;Node6 -->
<g id="edge8" class="edge"><title>Node4&#45;&gt;Node6</title>
<path fill="none" stroke="#404040" d="M341.249,-672.403C339.62,-666.241 338.187,-660.088 337,-654 327.874,-607.189 330.84,-552.139 334.636,-515.789"/>
<polygon fill="none" stroke="#404040" points="334.648,-515.68 331.347,-509.269 335.995,-503.756 339.296,-510.167 334.648,-515.68"/>
<text text-anchor="middle" x="358.5" y="-646" font-family="Helvetica,sans-Serif" font-size="10.00"> #next</text>
<text text-anchor="middle" x="358.5" y="-635" font-family="Helvetica,sans-Serif" font-size="10.00">#previous</text>
</g>
<!-- Node7 -->
<g id="node7" class="node"><title>Node7</title>
<g id="a_node7"><a xlink:href="../../dd/d16/classDoublyLinkedList.html" target="_top" xlink:title=" ">
<polygon fill="white" stroke="black" points="445,-336.5 445,-613.5 579,-613.5 579,-336.5 445,-336.5"/>
<text text-anchor="start" x="453" y="-601.5" font-family="Helvetica,sans-Serif" font-size="10.00">DoublyLinkedList&lt; Display</text>
<text text-anchor="middle" x="512" y="-590.5" font-family="Helvetica,sans-Serif" font-size="10.00">Interface &gt;</text>
<polyline fill="none" stroke="black" points="445,-583.5 579,-583.5 "/>
<text text-anchor="middle" x="512" y="-571.5" font-family="Helvetica,sans-Serif" font-size="10.00"> </text>
<polyline fill="none" stroke="black" points="445,-564.5 579,-564.5 "/>
<text text-anchor="start" x="453" y="-552.5" font-family="Helvetica,sans-Serif" font-size="10.00">+ append()</text>
<text text-anchor="start" x="453" y="-541.5" font-family="Helvetica,sans-Serif" font-size="10.00">+ append()</text>
<text text-anchor="start" x="453" y="-530.5" font-family="Helvetica,sans-Serif" font-size="10.00">+ insertBefore()</text>
<text text-anchor="start" x="453" y="-519.5" font-family="Helvetica,sans-Serif" font-size="10.00">+ insertBefore()</text>
<text text-anchor="start" x="453" y="-508.5" font-family="Helvetica,sans-Serif" font-size="10.00">+ insertSorted()</text>
<text text-anchor="start" x="453" y="-497.5" font-family="Helvetica,sans-Serif" font-size="10.00">+ insertSorted()</text>
<text text-anchor="start" x="453" y="-486.5" font-family="Helvetica,sans-Serif" font-size="10.00">+ remove()</text>
<text text-anchor="start" x="453" y="-475.5" font-family="Helvetica,sans-Serif" font-size="10.00">+ remove()</text>
<text text-anchor="start" x="453" y="-464.5" font-family="Helvetica,sans-Serif" font-size="10.00">+ moveDown()</text>
<text text-anchor="start" x="453" y="-453.5" font-family="Helvetica,sans-Serif" font-size="10.00">+ couldContain()</text>
<text text-anchor="start" x="453" y="-442.5" font-family="Helvetica,sans-Serif" font-size="10.00">+ begin()</text>
<text text-anchor="start" x="453" y="-431.5" font-family="Helvetica,sans-Serif" font-size="10.00">+ begin()</text>
<text text-anchor="start" x="453" y="-420.5" font-family="Helvetica,sans-Serif" font-size="10.00">+ end()</text>
<text text-anchor="start" x="453" y="-409.5" font-family="Helvetica,sans-Serif" font-size="10.00">+ end()</text>
<text text-anchor="start" x="453" y="-398.5" font-family="Helvetica,sans-Serif" font-size="10.00">+ rbegin()</text>
<text text-anchor="start" x="453" y="-387.5" font-family="Helvetica,sans-Serif" font-size="10.00">+ rbegin()</text>
<text text-anchor="start" x="453" y="-376.5" font-family="Helvetica,sans-Serif" font-size="10.00">+ rend()</text>
<text text-anchor="start" x="453" y="-365.5" font-family="Helvetica,sans-Serif" font-size="10.00">+ rend()</text>
<text text-anchor="start" x="453" y="-354.5" font-family="Helvetica,sans-Serif" font-size="10.00">+ getFirst()</text>
<text text-anchor="start" x="453" y="-343.5" font-family="Helvetica,sans-Serif" font-size="10.00">+ getLast()</text>
</a>
</g>
</g>
<!-- Node4&#45;&gt;Node7 -->
<g id="edge10" class="edge"><title>Node4&#45;&gt;Node7</title>
<path fill="none" stroke="#404040" d="M435.687,-672.229C439.997,-658.584 444.474,-644.974 449,-632 449.827,-629.63 450.669,-627.243 451.525,-624.844"/>
<polygon fill="none" stroke="#404040" points="451.534,-624.817 449.817,-617.813 455.621,-613.534 457.339,-620.537 451.534,-624.817"/>
<text text-anchor="middle" x="460" y="-646" font-family="Helvetica,sans-Serif" font-size="10.00"> &#45;last</text>
<text text-anchor="middle" x="460" y="-635" font-family="Helvetica,sans-Serif" font-size="10.00">&#45;first</text>
</g>
<!-- Node5 -->
<g id="node5" class="node"><title>Node5</title>
<g id="a_node5"><a xlink:title=" ">
<polygon fill="white" stroke="#bfbfbf" points="379.5,-976.5 379.5,-1033.5 416.5,-1033.5 416.5,-976.5 379.5,-976.5"/>
<text text-anchor="middle" x="398" y="-1021.5" font-family="Helvetica,sans-Serif" font-size="10.00">Print</text>
<polyline fill="none" stroke="#bfbfbf" points="379.5,-1014.5 416.5,-1014.5 "/>
<text text-anchor="middle" x="398" y="-1002.5" font-family="Helvetica,sans-Serif" font-size="10.00"> </text>
<polyline fill="none" stroke="#bfbfbf" points="379.5,-995.5 416.5,-995.5 "/>
<text text-anchor="middle" x="398" y="-983.5" font-family="Helvetica,sans-Serif" font-size="10.00"> </text>
</a>
</g>
</g>
<!-- Node5&#45;&gt;Node4 -->
<g id="edge6" class="edge"><title>Node5&#45;&gt;Node4</title>
<path fill="none" stroke="midnightblue" d="M398,-966.074C398,-957.711 398,-948.396 398,-938.583"/>
<polygon fill="none" stroke="midnightblue" points="394.5,-966.122 398,-976.122 401.5,-966.122 394.5,-966.122"/>
</g>
<!-- Node6&#45;&gt;Node4 -->
<g id="edge7" class="edge"><title>Node6&#45;&gt;Node4</title>
<path fill="none" stroke="midnightblue" d="M352.676,-513.137C362.828,-544.448 376.561,-590.64 384,-632 386.34,-645.012 388.289,-658.646 389.913,-672.306"/>
<polygon fill="none" stroke="midnightblue" points="355.963,-511.928 349.518,-503.518 349.312,-514.111 355.963,-511.928"/>
</g>
<!-- Node7&#45;&gt;Node4 -->
<g id="edge9" class="edge"><title>Node7&#45;&gt;Node4</title>
<path fill="none" stroke="#404040" d="M487.278,-613.562C483.647,-627.363 479.565,-641.051 475,-654 474.161,-656.379 473.292,-658.767 472.396,-661.163"/>
<polygon fill="none" stroke="#404040" points="472.371,-661.227 473.917,-668.27 468.011,-672.407 466.464,-665.364 472.371,-661.227"/>
<text text-anchor="middle" x="505" y="-640.5" font-family="Helvetica,sans-Serif" font-size="10.00"> &#45;elements</text>
</g>
</g>
</svg>
