<?xml version="1.0" encoding="UTF-8" standalone="no"?>
<!DOCTYPE svg PUBLIC "-//W3C//DTD SVG 1.1//EN"
 "http://www.w3.org/Graphics/SVG/1.1/DTD/svg11.dtd">
<!-- Generated by graphviz version 2.43.0 (0)
 -->
<!-- Title: NoteCCKPLEDPWM&lt; Type, BankSize &gt; Pages: 1 -->
<svg width="360pt" height="1360pt"
 viewBox="0.00 0.00 359.50 1360.00" xmlns="http://www.w3.org/2000/svg" xmlns:xlink="http://www.w3.org/1999/xlink">
<g id="graph0" class="graph" transform="scale(1 1) rotate(0) translate(4 1356)">
<title>NoteCCKPLEDPWM&lt; Type, BankSize &gt;</title>
<!-- Node1 -->
<g id="Node000001" class="node">
<title>Node1</title>
<g id="a_Node000001"><a xlink:title="Generic base class for classes that listen for MIDI Note, Control Change and Key Pressure events on a...">
<polygon fill="#999999" stroke="transparent" points="310,-165 170,-165 170,0 310,0 310,-165"/>
<text text-anchor="start" x="175" y="-152.5" font-family="Helvetica,sans-Serif" font-size="10.00">NoteCCKPLEDPWM&lt; Type,</text>
<text text-anchor="start" x="210" y="-141.5" font-family="Helvetica,sans-Serif" font-size="10.00"> BankSize &gt;</text>
<text text-anchor="start" x="177" y="-126.5" font-family="Helvetica,sans-Serif" font-size="10.00">&#45;</text>
<text text-anchor="start" x="188" y="-126.5" font-family="Helvetica,sans-Serif" font-size="10.00">ledPin</text>
<text text-anchor="start" x="174.5" y="-111.5" font-family="Helvetica,sans-Serif" font-size="10.00">+</text>
<text text-anchor="start" x="188" y="-111.5" font-family="Helvetica,sans-Serif" font-size="10.00">NoteCCKPLEDPWM()</text>
<text text-anchor="start" x="174.5" y="-96.5" font-family="Helvetica,sans-Serif" font-size="10.00">+</text>
<text text-anchor="start" x="188" y="-96.5" font-family="Helvetica,sans-Serif" font-size="10.00">begin()</text>
<text text-anchor="start" x="174.5" y="-81.5" font-family="Helvetica,sans-Serif" font-size="10.00">+</text>
<text text-anchor="start" x="188" y="-81.5" font-family="Helvetica,sans-Serif" font-size="10.00">reset()</text>
<text text-anchor="start" x="174.5" y="-66.5" font-family="Helvetica,sans-Serif" font-size="10.00">+</text>
<text text-anchor="start" x="188" y="-66.5" font-family="Helvetica,sans-Serif" font-size="10.00">getValue()</text>
<text text-anchor="start" x="174.5" y="-51.5" font-family="Helvetica,sans-Serif" font-size="10.00">+</text>
<text text-anchor="start" x="188" y="-51.5" font-family="Helvetica,sans-Serif" font-size="10.00">getValue()</text>
<text text-anchor="start" x="174.5" y="-36.5" font-family="Helvetica,sans-Serif" font-size="10.00">#</text>
<text text-anchor="start" x="188" y="-36.5" font-family="Helvetica,sans-Serif" font-size="10.00">handleUpdate()</text>
<text text-anchor="start" x="174.5" y="-21.5" font-family="Helvetica,sans-Serif" font-size="10.00">#</text>
<text text-anchor="start" x="188" y="-21.5" font-family="Helvetica,sans-Serif" font-size="10.00">display()</text>
<text text-anchor="start" x="174.5" y="-6.5" font-family="Helvetica,sans-Serif" font-size="10.00">#</text>
<text text-anchor="start" x="188" y="-6.5" font-family="Helvetica,sans-Serif" font-size="10.00">onBankSettingChange()</text>
<polygon fill="#666666" stroke="#666666" points="170,-136.5 170,-136.5 310,-136.5 310,-136.5 170,-136.5"/>
<polygon fill="#666666" stroke="#666666" points="170,-121.5 170,-121.5 186,-121.5 186,-121.5 170,-121.5"/>
<polygon fill="#666666" stroke="#666666" points="186,-121.5 186,-121.5 310,-121.5 310,-121.5 186,-121.5"/>
<polygon fill="none" stroke="#666666" points="170,0 170,-165 310,-165 310,0 170,0"/>
</a>
</g>
</g>
<!-- Node2 -->
<g id="Node000002" class="node">
<title>Node2</title>
<g id="a_Node000002"><a xlink:href="../../d5/dcd/classBankable_1_1NoteCCKPValue.html" target="_top" xlink:title="Generic base class for classes that listen for MIDI Note, Control Change and Key Pressure events on a...">
<polygon fill="white" stroke="transparent" points="308.5,-351 171.5,-351 171.5,-201 308.5,-201 308.5,-351"/>
<text text-anchor="start" x="183.5" y="-339" font-family="Helvetica,sans-Serif" font-size="10.00">NoteCCKPValue&lt; Type,</text>
<text text-anchor="start" x="210.5" y="-328" font-family="Helvetica,sans-Serif" font-size="10.00"> BankSize &gt;</text>
<text text-anchor="start" x="178.5" y="-313" font-family="Helvetica,sans-Serif" font-size="10.00">&#45;</text>
<text text-anchor="start" x="189" y="-313" font-family="Helvetica,sans-Serif" font-size="10.00">values</text>
<text text-anchor="start" x="176" y="-298" font-family="Helvetica,sans-Serif" font-size="10.00">+</text>
<text text-anchor="start" x="189" y="-298" font-family="Helvetica,sans-Serif" font-size="10.00">NoteCCKPValue()</text>
<text text-anchor="start" x="176" y="-283" font-family="Helvetica,sans-Serif" font-size="10.00">+</text>
<text text-anchor="start" x="189" y="-283" font-family="Helvetica,sans-Serif" font-size="10.00">reset()</text>
<text text-anchor="start" x="176" y="-268" font-family="Helvetica,sans-Serif" font-size="10.00">#</text>
<text text-anchor="start" x="189" y="-268" font-family="Helvetica,sans-Serif" font-size="10.00">handleUpdateImpl()</text>
<text text-anchor="start" x="176" y="-253" font-family="Helvetica,sans-Serif" font-size="10.00">#</text>
<text text-anchor="start" x="189" y="-253" font-family="Helvetica,sans-Serif" font-size="10.00">handleUpdate()</text>
<text text-anchor="start" x="176" y="-238" font-family="Helvetica,sans-Serif" font-size="10.00">#</text>
<text text-anchor="start" x="189" y="-238" font-family="Helvetica,sans-Serif" font-size="10.00">onBankSettingChange()</text>
<text text-anchor="start" x="177.5" y="-223" font-family="Helvetica,sans-Serif" font-size="10.00">*</text>
<text text-anchor="start" x="189" y="-223" font-family="Helvetica,sans-Serif" font-size="10.00">getValue()</text>
<text text-anchor="start" x="177.5" y="-208" font-family="Helvetica,sans-Serif" font-size="10.00">*</text>
<text text-anchor="start" x="189" y="-208" font-family="Helvetica,sans-Serif" font-size="10.00">getValue()</text>
<polygon fill="#666666" stroke="#666666" points="172,-323 172,-323 309,-323 309,-323 172,-323"/>
<polygon fill="#666666" stroke="#666666" points="172,-308 172,-308 187,-308 187,-308 172,-308"/>
<polygon fill="#666666" stroke="#666666" points="187,-308 187,-308 309,-308 309,-308 187,-308"/>
<polygon fill="none" stroke="#666666" points="171.5,-201 171.5,-351 308.5,-351 308.5,-201 171.5,-201"/>
</a>
</g>
</g>
<!-- Node2&#45;&gt;Node1 -->
<g id="edge1_Node000001_Node000002" class="edge">
<title>Node2&#45;&gt;Node1</title>
<g id="a_edge1_Node000001_Node000002"><a xlink:title=" ">
<path fill="none" stroke="#63b8ff" d="M240,-190.73C240,-182.29 240,-173.72 240,-165.29"/>
<polygon fill="none" stroke="#63b8ff" points="236.5,-190.96 240,-200.96 243.5,-190.96 236.5,-190.96"/>
</a>
</g>
</g>
<!-- Node3 -->
<g id="Node000003" class="node">
<title>Node3</title>
<g id="a_Node000003"><a xlink:href="../../d9/dc0/classBankableMatchingMIDIInputElement.html" target="_top" xlink:title=" ">
<polygon fill="white" stroke="transparent" points="256.5,-510 79.5,-510 79.5,-387 256.5,-387 256.5,-510"/>
<text text-anchor="start" x="85" y="-497.5" font-family="Helvetica,sans-Serif" font-size="10.00">BankableMatchingMIDIInput</text>
<text text-anchor="start" x="85" y="-486.5" font-family="Helvetica,sans-Serif" font-size="10.00">Element&lt; Type, BankableTwoByte</text>
<text text-anchor="start" x="97.5" y="-475.5" font-family="Helvetica,sans-Serif" font-size="10.00">MIDIMatcher&lt; BankSize &gt; &gt;</text>
<text text-anchor="start" x="166.5" y="-460.5" font-family="Helvetica,sans-Serif" font-size="10.00"> </text>
<text text-anchor="start" x="86.5" y="-445.5" font-family="Helvetica,sans-Serif" font-size="10.00">+</text>
<text text-anchor="start" x="102" y="-445.5" font-family="Helvetica,sans-Serif" font-size="10.00">~BankableMatchingMIDIInput</text>
<text text-anchor="start" x="102" y="-434.5" font-family="Helvetica,sans-Serif" font-size="10.00">Element()</text>
<text text-anchor="start" x="86.5" y="-419.5" font-family="Helvetica,sans-Serif" font-size="10.00">#</text>
<text text-anchor="start" x="102" y="-419.5" font-family="Helvetica,sans-Serif" font-size="10.00">BankableMatchingMIDIInput</text>
<text text-anchor="start" x="102" y="-408.5" font-family="Helvetica,sans-Serif" font-size="10.00">Element()</text>
<text text-anchor="start" x="86.5" y="-393.5" font-family="Helvetica,sans-Serif" font-size="10.00">#</text>
<text text-anchor="start" x="102" y="-393.5" font-family="Helvetica,sans-Serif" font-size="10.00">getActiveBank()</text>
<polygon fill="#666666" stroke="#666666" points="80,-470.5 80,-470.5 257,-470.5 257,-470.5 80,-470.5"/>
<polygon fill="#666666" stroke="#666666" points="80,-455.5 80,-455.5 257,-455.5 257,-455.5 80,-455.5"/>
<polygon fill="none" stroke="#666666" points="79.5,-387 79.5,-510 256.5,-510 256.5,-387 79.5,-387"/>
</a>
</g>
</g>
<!-- Node3&#45;&gt;Node2 -->
<g id="edge2_Node000002_Node000003" class="edge">
<title>Node3&#45;&gt;Node2</title>
<g id="a_edge2_Node000002_Node000003"><a xlink:title=" ">
<path fill="none" stroke="#63b8ff" d="M197.54,-377.56C201.22,-368.84 204.99,-359.91 208.7,-351.13"/>
<polygon fill="none" stroke="#63b8ff" points="194.25,-376.33 193.59,-386.91 200.7,-379.06 194.25,-376.33"/>
</a>
</g>
</g>
<!-- Node4 -->
<g id="Node000004" class="node">
<title>Node4</title>
<g id="a_Node000004"><a xlink:href="../../d5/dae/classMatchingMIDIInputElement.html" target="_top" xlink:title="The MIDIInputElement base class is very general: you give it a MIDI message, and it calls the updateW...">
<polygon fill="white" stroke="transparent" points="162,-636 0,-636 0,-546 162,-546 162,-636"/>
<text text-anchor="start" x="14.5" y="-624" font-family="Helvetica,sans-Serif" font-size="10.00">MatchingMIDIInputElement</text>
<text text-anchor="start" x="35.5" y="-613" font-family="Helvetica,sans-Serif" font-size="10.00">&lt; Type, Matcher &gt;</text>
<text text-anchor="start" x="4" y="-598" font-family="Helvetica,sans-Serif" font-size="10.00">#</text>
<text text-anchor="start" x="17" y="-598" font-family="Helvetica,sans-Serif" font-size="10.00">matcher</text>
<text text-anchor="start" x="4" y="-583" font-family="Helvetica,sans-Serif" font-size="10.00">+</text>
<text text-anchor="start" x="17" y="-583" font-family="Helvetica,sans-Serif" font-size="10.00">updateWith()</text>
<text text-anchor="start" x="4" y="-568" font-family="Helvetica,sans-Serif" font-size="10.00">+</text>
<text text-anchor="start" x="17" y="-568" font-family="Helvetica,sans-Serif" font-size="10.00">handleUpdate()</text>
<text text-anchor="start" x="4" y="-553" font-family="Helvetica,sans-Serif" font-size="10.00">#</text>
<text text-anchor="start" x="17" y="-553" font-family="Helvetica,sans-Serif" font-size="10.00">MatchingMIDIInputElement()</text>
<polygon fill="#666666" stroke="#666666" points="0,-608 0,-608 162,-608 162,-608 0,-608"/>
<polygon fill="#666666" stroke="#666666" points="0,-593 0,-593 15,-593 15,-593 0,-593"/>
<polygon fill="#666666" stroke="#666666" points="15,-593 15,-593 162,-593 162,-593 15,-593"/>
<polygon fill="none" stroke="#666666" points="0,-546 0,-636 162,-636 162,-546 0,-546"/>
</a>
</g>
</g>
<!-- Node4&#45;&gt;Node3 -->
<g id="edge3_Node000003_Node000004" class="edge">
<title>Node4&#45;&gt;Node3</title>
<g id="a_edge3_Node000003_Node000004"><a xlink:title=" ">
<path fill="none" stroke="#63b8ff" d="M113.67,-537.24C119.14,-528.4 124.86,-519.17 130.45,-510.14"/>
<polygon fill="none" stroke="#63b8ff" points="110.58,-535.59 108.29,-545.93 116.53,-539.27 110.58,-535.59"/>
</a>
</g>
</g>
<!-- Node5 -->
<g id="Node000005" class="node">
<title>Node5</title>
<g id="a_Node000005"><a xlink:href="../../d9/db1/classMIDIInputElement.html" target="_top" xlink:title="A class for objects that listen for incoming MIDI events.">
<polygon fill="white" stroke="transparent" points="152.5,-856 9.5,-856 9.5,-672 152.5,-672 152.5,-856"/>
<text text-anchor="start" x="15" y="-844" font-family="Helvetica,sans-Serif" font-size="10.00">MIDIInputElement&lt; Type &gt;</text>
<text text-anchor="start" x="79.5" y="-829" font-family="Helvetica,sans-Serif" font-size="10.00"> </text>
<text text-anchor="start" x="18.5" y="-814" font-family="Helvetica,sans-Serif" font-size="10.00">+</text>
<text text-anchor="start" x="36" y="-814" font-family="Helvetica,sans-Serif" font-size="10.00">~MIDIInputElement()</text>
<text text-anchor="start" x="18.5" y="-799" font-family="Helvetica,sans-Serif" font-size="10.00">+</text>
<text text-anchor="start" x="36" y="-799" font-family="Helvetica,sans-Serif" font-size="10.00">begin()</text>
<text text-anchor="start" x="18.5" y="-784" font-family="Helvetica,sans-Serif" font-size="10.00">+</text>
<text text-anchor="start" x="36" y="-784" font-family="Helvetica,sans-Serif" font-size="10.00">reset()</text>
<text text-anchor="start" x="18.5" y="-769" font-family="Helvetica,sans-Serif" font-size="10.00">+</text>
<text text-anchor="start" x="36" y="-769" font-family="Helvetica,sans-Serif" font-size="10.00">update()</text>
<text text-anchor="start" x="18.5" y="-754" font-family="Helvetica,sans-Serif" font-size="10.00">+</text>
<text text-anchor="start" x="36" y="-754" font-family="Helvetica,sans-Serif" font-size="10.00">updateWith()</text>
<text text-anchor="start" x="18.5" y="-739" font-family="Helvetica,sans-Serif" font-size="10.00">+</text>
<text text-anchor="start" x="36" y="-739" font-family="Helvetica,sans-Serif" font-size="10.00">updateAllWith()</text>
<text text-anchor="start" x="18.5" y="-724" font-family="Helvetica,sans-Serif" font-size="10.00">+</text>
<text text-anchor="start" x="36" y="-724" font-family="Helvetica,sans-Serif" font-size="10.00">updateAll()</text>
<text text-anchor="start" x="18.5" y="-709" font-family="Helvetica,sans-Serif" font-size="10.00">+</text>
<text text-anchor="start" x="36" y="-709" font-family="Helvetica,sans-Serif" font-size="10.00">beginAll()</text>
<text text-anchor="start" x="18.5" y="-694" font-family="Helvetica,sans-Serif" font-size="10.00">+</text>
<text text-anchor="start" x="36" y="-694" font-family="Helvetica,sans-Serif" font-size="10.00">resetAll()</text>
<text text-anchor="start" x="18.5" y="-679" font-family="Helvetica,sans-Serif" font-size="10.00">#</text>
<text text-anchor="start" x="36" y="-679" font-family="Helvetica,sans-Serif" font-size="10.00">MIDIInputElement()</text>
<polygon fill="#666666" stroke="#666666" points="10,-839 10,-839 153,-839 153,-839 10,-839"/>
<polygon fill="#666666" stroke="#666666" points="10,-824 10,-824 153,-824 153,-824 10,-824"/>
<polygon fill="none" stroke="#666666" points="9.5,-672 9.5,-856 152.5,-856 152.5,-672 9.5,-672"/>
</a>
</g>
</g>
<!-- Node5&#45;&gt;Node4 -->
<g id="edge4_Node000004_Node000005" class="edge">
<title>Node5&#45;&gt;Node4</title>
<g id="a_edge4_Node000004_Node000005"><a xlink:title=" ">
<path fill="none" stroke="#63b8ff" d="M81,-661.84C81,-652.92 81,-644.24 81,-636.19"/>
<polygon fill="none" stroke="#63b8ff" points="77.5,-661.99 81,-671.99 84.5,-661.99 77.5,-661.99"/>
</a>
</g>
</g>
<!-- Node6 -->
<g id="Node000006" class="node">
<title>Node6</title>
<g id="a_Node000006"><a xlink:href="../../d8/d1a/classAH_1_1UpdatableCRTP.html" target="_top" xlink:title=" ">
<polygon fill="white" stroke="transparent" points="153,-1177 9,-1177 9,-892 153,-892 153,-1177"/>
<text text-anchor="start" x="14" y="-1164.5" font-family="Helvetica,sans-Serif" font-size="10.00">UpdatableCRTP&lt; MIDIInput</text>
<text text-anchor="start" x="32.5" y="-1153.5" font-family="Helvetica,sans-Serif" font-size="10.00">Element&lt; Type &gt; &gt;</text>
<text text-anchor="start" x="21" y="-1138.5" font-family="Helvetica,sans-Serif" font-size="10.00">#</text>
<text text-anchor="start" x="42" y="-1138.5" font-family="Helvetica,sans-Serif" font-size="10.00">updatables</text>
<text text-anchor="start" x="21" y="-1123.5" font-family="Helvetica,sans-Serif" font-size="10.00">+</text>
<text text-anchor="start" x="42" y="-1123.5" font-family="Helvetica,sans-Serif" font-size="10.00">~UpdatableCRTP()</text>
<text text-anchor="start" x="21" y="-1108.5" font-family="Helvetica,sans-Serif" font-size="10.00">#</text>
<text text-anchor="start" x="42" y="-1108.5" font-family="Helvetica,sans-Serif" font-size="10.00">UpdatableCRTP()</text>
<text text-anchor="start" x="21" y="-1093.5" font-family="Helvetica,sans-Serif" font-size="10.00">#</text>
<text text-anchor="start" x="42" y="-1093.5" font-family="Helvetica,sans-Serif" font-size="10.00">UpdatableCRTP()</text>
<text text-anchor="start" x="21" y="-1078.5" font-family="Helvetica,sans-Serif" font-size="10.00">#</text>
<text text-anchor="start" x="42" y="-1078.5" font-family="Helvetica,sans-Serif" font-size="10.00">UpdatableCRTP()</text>
<text text-anchor="start" x="21" y="-1063.5" font-family="Helvetica,sans-Serif" font-size="10.00">#</text>
<text text-anchor="start" x="42" y="-1063.5" font-family="Helvetica,sans-Serif" font-size="10.00">operator=()</text>
<text text-anchor="start" x="21" y="-1048.5" font-family="Helvetica,sans-Serif" font-size="10.00">#</text>
<text text-anchor="start" x="42" y="-1048.5" font-family="Helvetica,sans-Serif" font-size="10.00">operator=()</text>
<text text-anchor="start" x="22.5" y="-1033.5" font-family="Helvetica,sans-Serif" font-size="10.00">*</text>
<text text-anchor="start" x="42" y="-1033.5" font-family="Helvetica,sans-Serif" font-size="10.00">enable()</text>
<text text-anchor="start" x="22.5" y="-1018.5" font-family="Helvetica,sans-Serif" font-size="10.00">*</text>
<text text-anchor="start" x="42" y="-1018.5" font-family="Helvetica,sans-Serif" font-size="10.00">disable()</text>
<text text-anchor="start" x="22.5" y="-1003.5" font-family="Helvetica,sans-Serif" font-size="10.00">*</text>
<text text-anchor="start" x="42" y="-1003.5" font-family="Helvetica,sans-Serif" font-size="10.00">isEnabled()</text>
<text text-anchor="start" x="22.5" y="-988.5" font-family="Helvetica,sans-Serif" font-size="10.00">*</text>
<text text-anchor="start" x="42" y="-988.5" font-family="Helvetica,sans-Serif" font-size="10.00">moveDown()</text>
<text text-anchor="start" x="22.5" y="-973.5" font-family="Helvetica,sans-Serif" font-size="10.00">*</text>
<text text-anchor="start" x="42" y="-973.5" font-family="Helvetica,sans-Serif" font-size="10.00">enable()</text>
<text text-anchor="start" x="22.5" y="-958.5" font-family="Helvetica,sans-Serif" font-size="10.00">*</text>
<text text-anchor="start" x="42" y="-958.5" font-family="Helvetica,sans-Serif" font-size="10.00">enable()</text>
<text text-anchor="start" x="22.5" y="-943.5" font-family="Helvetica,sans-Serif" font-size="10.00">*</text>
<text text-anchor="start" x="42" y="-943.5" font-family="Helvetica,sans-Serif" font-size="10.00">enable()</text>
<text text-anchor="start" x="22.5" y="-928.5" font-family="Helvetica,sans-Serif" font-size="10.00">*</text>
<text text-anchor="start" x="42" y="-928.5" font-family="Helvetica,sans-Serif" font-size="10.00">disable()</text>
<text text-anchor="start" x="22.5" y="-913.5" font-family="Helvetica,sans-Serif" font-size="10.00">*</text>
<text text-anchor="start" x="42" y="-913.5" font-family="Helvetica,sans-Serif" font-size="10.00">disable()</text>
<text text-anchor="start" x="22.5" y="-898.5" font-family="Helvetica,sans-Serif" font-size="10.00">*</text>
<text text-anchor="start" x="42" y="-898.5" font-family="Helvetica,sans-Serif" font-size="10.00">disable()</text>
<polygon fill="#666666" stroke="#666666" points="9,-1148.5 9,-1148.5 153,-1148.5 153,-1148.5 9,-1148.5"/>
<polygon fill="#666666" stroke="#666666" points="9,-1133.5 9,-1133.5 40,-1133.5 40,-1133.5 9,-1133.5"/>
<polygon fill="#666666" stroke="#666666" points="40,-1133.5 40,-1133.5 153,-1133.5 153,-1133.5 40,-1133.5"/>
<polygon fill="none" stroke="#666666" points="9,-892 9,-1177 153,-1177 153,-892 9,-892"/>
</a>
</g>
</g>
<!-- Node6&#45;&gt;Node5 -->
<g id="edge5_Node000005_Node000006" class="edge">
<title>Node6&#45;&gt;Node5</title>
<g id="a_edge5_Node000005_Node000006"><a xlink:title=" ">
<path fill="none" stroke="#63b8ff" d="M81,-881.6C81,-872.95 81,-864.41 81,-856.11"/>
<polygon fill="none" stroke="#63b8ff" points="77.5,-881.78 81,-891.78 84.5,-881.78 77.5,-881.78"/>
</a>
</g>
</g>
<!-- Node7 -->
<g id="Node000007" class="node">
<title>Node7</title>
<g id="a_Node000007"><a xlink:href="../../d4/d23/classDoublyLinkable.html" target="_top" xlink:title="A class that can be inherited from to allow inserting into a DoublyLinkedList.">
<polygon fill="white" stroke="transparent" points="148,-1352 14,-1352 14,-1213 148,-1213 148,-1352"/>
<text text-anchor="start" x="19" y="-1339.5" font-family="Helvetica,sans-Serif" font-size="10.00">DoublyLinkable&lt; Node &gt;</text>
<text text-anchor="start" x="23.5" y="-1324.5" font-family="Helvetica,sans-Serif" font-size="10.00">#</text>
<text text-anchor="start" x="42" y="-1324.5" font-family="Helvetica,sans-Serif" font-size="10.00">next</text>
<text text-anchor="start" x="23.5" y="-1309.5" font-family="Helvetica,sans-Serif" font-size="10.00">#</text>
<text text-anchor="start" x="42" y="-1309.5" font-family="Helvetica,sans-Serif" font-size="10.00">previous</text>
<text text-anchor="start" x="23.5" y="-1294.5" font-family="Helvetica,sans-Serif" font-size="10.00">#</text>
<text text-anchor="start" x="42" y="-1294.5" font-family="Helvetica,sans-Serif" font-size="10.00">~DoublyLinkable()</text>
<text text-anchor="start" x="23.5" y="-1279.5" font-family="Helvetica,sans-Serif" font-size="10.00">#</text>
<text text-anchor="start" x="42" y="-1279.5" font-family="Helvetica,sans-Serif" font-size="10.00">DoublyLinkable()</text>
<text text-anchor="start" x="23.5" y="-1264.5" font-family="Helvetica,sans-Serif" font-size="10.00">#</text>
<text text-anchor="start" x="42" y="-1264.5" font-family="Helvetica,sans-Serif" font-size="10.00">DoublyLinkable()</text>
<text text-anchor="start" x="23.5" y="-1249.5" font-family="Helvetica,sans-Serif" font-size="10.00">#</text>
<text text-anchor="start" x="42" y="-1249.5" font-family="Helvetica,sans-Serif" font-size="10.00">operator=()</text>
<text text-anchor="start" x="23.5" y="-1234.5" font-family="Helvetica,sans-Serif" font-size="10.00">#</text>
<text text-anchor="start" x="42" y="-1234.5" font-family="Helvetica,sans-Serif" font-size="10.00">DoublyLinkable()</text>
<text text-anchor="start" x="23.5" y="-1219.5" font-family="Helvetica,sans-Serif" font-size="10.00">#</text>
<text text-anchor="start" x="42" y="-1219.5" font-family="Helvetica,sans-Serif" font-size="10.00">operator=()</text>
<polygon fill="#666666" stroke="#666666" points="14,-1334.5 14,-1334.5 148,-1334.5 148,-1334.5 14,-1334.5"/>
<polygon fill="#666666" stroke="#666666" points="14,-1304.5 14,-1304.5 40,-1304.5 40,-1304.5 14,-1304.5"/>
<polygon fill="#666666" stroke="#666666" points="40,-1304.5 40,-1304.5 148,-1304.5 148,-1304.5 40,-1304.5"/>
<polygon fill="none" stroke="#666666" points="14,-1213 14,-1352 148,-1352 148,-1213 14,-1213"/>
</a>
</g>
</g>
<!-- Node7&#45;&gt;Node6 -->
<g id="edge6_Node000006_Node000007" class="edge">
<title>Node7&#45;&gt;Node6</title>
<g id="a_edge6_Node000006_Node000007"><a xlink:title=" ">
<path fill="none" stroke="#63b8ff" d="M81,-1202.93C81,-1194.55 81,-1185.86 81,-1177.04"/>
<polygon fill="none" stroke="#63b8ff" points="77.5,-1202.98 81,-1212.98 84.5,-1202.98 77.5,-1202.98"/>
</a>
</g>
</g>
<!-- Node8 -->
<g id="Node000008" class="node">
<title>Node8</title>
<g id="a_Node000008"><a xlink:href="../../d2/dbf/classBankSettingChangeCallback.html" target="_top" xlink:title="Callback class for Bankable objects that need to be notified when the active setting of their Bank ch...">
<polygon fill="white" stroke="transparent" points="329.5,-615.5 180.5,-615.5 180.5,-566.5 329.5,-566.5 329.5,-615.5"/>
<text text-anchor="start" x="186" y="-603" font-family="Helvetica,sans-Serif" font-size="10.00">BankSettingChangeCallback</text>
<text text-anchor="start" x="253.5" y="-588" font-family="Helvetica,sans-Serif" font-size="10.00"> </text>
<text text-anchor="start" x="189" y="-573" font-family="Helvetica,sans-Serif" font-size="10.00">&#45;</text>
<text text-anchor="start" x="201" y="-573" font-family="Helvetica,sans-Serif" font-size="10.00">onBankSettingChange()</text>
<polygon fill="#666666" stroke="#666666" points="181,-598 181,-598 330,-598 330,-598 181,-598"/>
<polygon fill="#666666" stroke="#666666" points="181,-583 181,-583 330,-583 330,-583 181,-583"/>
<polygon fill="none" stroke="#666666" points="180.5,-566.5 180.5,-615.5 329.5,-615.5 329.5,-566.5 180.5,-566.5"/>
</a>
</g>
</g>
<!-- Node8&#45;&gt;Node3 -->
<g id="edge7_Node000003_Node000008" class="edge">
<title>Node8&#45;&gt;Node3</title>
<g id="a_edge7_Node000003_Node000008"><a xlink:title=" ">
<path fill="none" stroke="#63b8ff" d="M234.97,-557.65C226.21,-543.5 215.64,-526.43 205.51,-510.08"/>
<polygon fill="none" stroke="#63b8ff" points="232.2,-559.82 240.44,-566.48 238.15,-556.14 232.2,-559.82"/>
</a>
</g>
</g>
<!-- Node9 -->
<g id="Node000009" class="node">
<title>Node9</title>
<g id="a_Node000009"><a xlink:href="../../d4/d23/classDoublyLinkable.html" target="_top" xlink:title=" ">
<polygon fill="white" stroke="transparent" points="333,-839 177,-839 177,-689 333,-689 333,-839"/>
<text text-anchor="start" x="182" y="-827" font-family="Helvetica,sans-Serif" font-size="10.00">DoublyLinkable&lt; BankSetting</text>
<text text-anchor="start" x="209.5" y="-816" font-family="Helvetica,sans-Serif" font-size="10.00">ChangeCallback &gt;</text>
<text text-anchor="start" x="192" y="-801" font-family="Helvetica,sans-Serif" font-size="10.00">#</text>
<text text-anchor="start" x="216" y="-801" font-family="Helvetica,sans-Serif" font-size="10.00">next</text>
<text text-anchor="start" x="192" y="-786" font-family="Helvetica,sans-Serif" font-size="10.00">#</text>
<text text-anchor="start" x="216" y="-786" font-family="Helvetica,sans-Serif" font-size="10.00">previous</text>
<text text-anchor="start" x="192" y="-771" font-family="Helvetica,sans-Serif" font-size="10.00">#</text>
<text text-anchor="start" x="216" y="-771" font-family="Helvetica,sans-Serif" font-size="10.00">~DoublyLinkable()</text>
<text text-anchor="start" x="192" y="-756" font-family="Helvetica,sans-Serif" font-size="10.00">#</text>
<text text-anchor="start" x="216" y="-756" font-family="Helvetica,sans-Serif" font-size="10.00">DoublyLinkable()</text>
<text text-anchor="start" x="192" y="-741" font-family="Helvetica,sans-Serif" font-size="10.00">#</text>
<text text-anchor="start" x="216" y="-741" font-family="Helvetica,sans-Serif" font-size="10.00">DoublyLinkable()</text>
<text text-anchor="start" x="192" y="-726" font-family="Helvetica,sans-Serif" font-size="10.00">#</text>
<text text-anchor="start" x="216" y="-726" font-family="Helvetica,sans-Serif" font-size="10.00">DoublyLinkable()</text>
<text text-anchor="start" x="192" y="-711" font-family="Helvetica,sans-Serif" font-size="10.00">#</text>
<text text-anchor="start" x="216" y="-711" font-family="Helvetica,sans-Serif" font-size="10.00">operator=()</text>
<text text-anchor="start" x="192" y="-696" font-family="Helvetica,sans-Serif" font-size="10.00">#</text>
<text text-anchor="start" x="216" y="-696" font-family="Helvetica,sans-Serif" font-size="10.00">operator=()</text>
<polygon fill="#666666" stroke="#666666" points="177,-811 177,-811 333,-811 333,-811 177,-811"/>
<polygon fill="#666666" stroke="#666666" points="177,-781 177,-781 214,-781 214,-781 177,-781"/>
<polygon fill="#666666" stroke="#666666" points="214,-781 214,-781 333,-781 333,-781 214,-781"/>
<polygon fill="none" stroke="#666666" points="177,-689 177,-839 333,-839 333,-689 177,-689"/>
</a>
</g>
</g>
<!-- Node9&#45;&gt;Node8 -->
<g id="edge8_Node000008_Node000009" class="edge">
<title>Node9&#45;&gt;Node8</title>
<g id="a_edge8_Node000008_Node000009"><a xlink:title=" ">
<path fill="none" stroke="#63b8ff" d="M255,-678.75C255,-655.6 255,-632.34 255,-615.73"/>
<polygon fill="none" stroke="#63b8ff" points="251.5,-678.99 255,-688.99 258.5,-678.99 251.5,-678.99"/>
</a>
</g>
</g>
<!-- Node10 -->
<g id="Node000010" class="node">
<title>Node10</title>
<g id="a_Node000010"><a xlink:href="../../d8/d87/classInterfaces_1_1IValue.html" target="_top" xlink:title="Abstract interface for MIDI input elements that receive and store a 7&#45;bit value.">
<polygon fill="white" stroke="transparent" points="351.5,-488 274.5,-488 274.5,-409 351.5,-409 351.5,-488"/>
<text text-anchor="start" x="298" y="-475.5" font-family="Helvetica,sans-Serif" font-size="10.00">IValue</text>
<text text-anchor="start" x="279" y="-460.5" font-family="Helvetica,sans-Serif" font-size="10.00">#</text>
<text text-anchor="start" x="292" y="-460.5" font-family="Helvetica,sans-Serif" font-size="10.00">dirty</text>
<text text-anchor="start" x="279" y="-445.5" font-family="Helvetica,sans-Serif" font-size="10.00">+</text>
<text text-anchor="start" x="292" y="-445.5" font-family="Helvetica,sans-Serif" font-size="10.00">getValue()</text>
<text text-anchor="start" x="280.5" y="-430.5" font-family="Helvetica,sans-Serif" font-size="10.00">*</text>
<text text-anchor="start" x="292" y="-430.5" font-family="Helvetica,sans-Serif" font-size="10.00">getDirty()</text>
<text text-anchor="start" x="280.5" y="-415.5" font-family="Helvetica,sans-Serif" font-size="10.00">*</text>
<text text-anchor="start" x="292" y="-415.5" font-family="Helvetica,sans-Serif" font-size="10.00">clearDirty()</text>
<polygon fill="#666666" stroke="#666666" points="275,-470.5 275,-470.5 352,-470.5 352,-470.5 275,-470.5"/>
<polygon fill="#666666" stroke="#666666" points="275,-455.5 275,-455.5 290,-455.5 290,-455.5 275,-455.5"/>
<polygon fill="#666666" stroke="#666666" points="290,-455.5 290,-455.5 352,-455.5 352,-455.5 290,-455.5"/>
<polygon fill="none" stroke="#666666" points="274.5,-409 274.5,-488 351.5,-488 351.5,-409 274.5,-409"/>
</a>
</g>
</g>
<!-- Node10&#45;&gt;Node2 -->
<g id="edge9_Node000002_Node000010" class="edge">
<title>Node10&#45;&gt;Node2</title>
<g id="a_edge9_Node000002_Node000010"><a xlink:title=" ">
<path fill="none" stroke="#63b8ff" d="M292.35,-399.27C285.94,-384.3 278.72,-367.44 271.74,-351.14"/>
<polygon fill="none" stroke="#63b8ff" points="289.28,-401 296.44,-408.81 295.72,-398.24 289.28,-401"/>
</a>
</g>
</g>
</g>
</svg>
