<?xml version="1.0" encoding="UTF-8" standalone="no"?>
<!DOCTYPE svg PUBLIC "-//W3C//DTD SVG 1.1//EN"
 "http://www.w3.org/Graphics/SVG/1.1/DTD/svg11.dtd">
<!-- Generated by graphviz version 2.38.0 (20140413.2041)
 -->
<!-- Title: VPotRing.hpp Pages: 1 -->
<svg width="230pt" height="140pt"
 viewBox="0.00 0.00 229.75 140.00" xmlns="http://www.w3.org/2000/svg" xmlns:xlink="http://www.w3.org/1999/xlink">
<g id="graph0" class="graph" transform="scale(1 1) rotate(0) translate(4 136)">
<title>VPotRing.hpp</title>
<polygon fill="white" stroke="none" points="-4,4 -4,-136 225.754,-136 225.754,4 -4,4"/>
<!-- Node1 -->
<g id="node1" class="node"><title>Node1</title>
<g id="a_node1"><a xlink:title=" ">
<polygon fill="#bfbfbf" stroke="black" points="24.2538,-112.5 24.2538,-131.5 101.254,-131.5 101.254,-112.5 24.2538,-112.5"/>
<text text-anchor="middle" x="62.7538" y="-119.5" font-family="Helvetica,sans-Serif" font-size="10.00">VPotRing.hpp</text>
</a>
</g>
</g>
<!-- Node2 -->
<g id="node2" class="node"><title>Node2</title>
<g id="a_node2"><a xlink:href="../../db/dbf/Control__Surface_8h.html" target="_top" xlink:title="The main header file that includes all Control&#45;Surface header files.">
<polygon fill="white" stroke="black" points="15.2538,-0.5 15.2538,-19.5 110.254,-19.5 110.254,-0.5 15.2538,-0.5"/>
<text text-anchor="middle" x="62.7538" y="-7.5" font-family="Helvetica,sans-Serif" font-size="10.00">Control_Surface.h</text>
</a>
</g>
</g>
<!-- Node1&#45;&gt;Node2 -->
<g id="edge1" class="edge"><title>Node1&#45;&gt;Node2</title>
<path fill="none" stroke="midnightblue" d="M34.4656,-107.379C22.3601,-99.9335 9.48224,-89.4568 2.75384,-76 -9.12792,-52.2365 22.4501,-30.9066 44.1754,-19.5735"/>
<polygon fill="midnightblue" stroke="midnightblue" points="33.0327,-110.59 43.4575,-112.48 36.487,-104.502 33.0327,-110.59"/>
</g>
<!-- Node3 -->
<g id="node3" class="node"><title>Node3</title>
<g id="a_node3"><a xlink:href="../../d0/dbf/VPotDisplay_8hpp.html" target="_top" xlink:title=" ">
<polygon fill="white" stroke="black" points="131.754,-56.5 131.754,-75.5 221.754,-75.5 221.754,-56.5 131.754,-56.5"/>
<text text-anchor="middle" x="176.754" y="-63.5" font-family="Helvetica,sans-Serif" font-size="10.00">VPotDisplay.hpp</text>
</a>
</g>
</g>
<!-- Node1&#45;&gt;Node3 -->
<g id="edge2" class="edge"><title>Node1&#45;&gt;Node3</title>
<path fill="none" stroke="midnightblue" d="M89.9956,-108.096C111.294,-98.0073 140.296,-84.2697 158.775,-75.5164"/>
<polygon fill="midnightblue" stroke="midnightblue" points="88.3565,-105 80.8175,-112.444 91.3532,-111.326 88.3565,-105"/>
</g>
<!-- Node5 -->
<g id="node5" class="node"><title>Node5</title>
<g id="a_node5"><a xlink:href="../../dc/d48/VPotRingLEDs_8hpp.html" target="_top" xlink:title=" ">
<polygon fill="white" stroke="black" points="11.7538,-56.5 11.7538,-75.5 113.754,-75.5 113.754,-56.5 11.7538,-56.5"/>
<text text-anchor="middle" x="62.7538" y="-63.5" font-family="Helvetica,sans-Serif" font-size="10.00">VPotRingLEDs.hpp</text>
</a>
</g>
</g>
<!-- Node1&#45;&gt;Node5 -->
<g id="edge5" class="edge"><title>Node1&#45;&gt;Node5</title>
<path fill="none" stroke="midnightblue" d="M62.7538,-101.805C62.7538,-92.9102 62.7538,-82.7798 62.7538,-75.7511"/>
<polygon fill="midnightblue" stroke="midnightblue" points="59.2539,-102.083 62.7538,-112.083 66.2539,-102.083 59.2539,-102.083"/>
</g>
<!-- Node3&#45;&gt;Node2 -->
<g id="edge3" class="edge"><title>Node3&#45;&gt;Node2</title>
<path fill="none" stroke="midnightblue" d="M149.512,-52.096C128.214,-42.0073 99.2121,-28.2697 80.733,-19.5164"/>
<polygon fill="midnightblue" stroke="midnightblue" points="148.154,-55.3257 158.69,-56.4435 151.151,-48.9995 148.154,-55.3257"/>
</g>
<!-- Node4 -->
<g id="node4" class="node"><title>Node4</title>
<g id="a_node4"><a xlink:href="../../d7/db9/VPotDisplay_8cpp.html" target="_top" xlink:title=" ">
<polygon fill="white" stroke="black" points="131.754,-0.5 131.754,-19.5 221.754,-19.5 221.754,-0.5 131.754,-0.5"/>
<text text-anchor="middle" x="176.754" y="-7.5" font-family="Helvetica,sans-Serif" font-size="10.00">VPotDisplay.cpp</text>
</a>
</g>
</g>
<!-- Node3&#45;&gt;Node4 -->
<g id="edge4" class="edge"><title>Node3&#45;&gt;Node4</title>
<path fill="none" stroke="midnightblue" d="M176.754,-45.8045C176.754,-36.9102 176.754,-26.7798 176.754,-19.7511"/>
<polygon fill="midnightblue" stroke="midnightblue" points="173.254,-46.083 176.754,-56.083 180.254,-46.083 173.254,-46.083"/>
</g>
<!-- Node5&#45;&gt;Node2 -->
<g id="edge6" class="edge"><title>Node5&#45;&gt;Node2</title>
<path fill="none" stroke="midnightblue" d="M62.7538,-45.8045C62.7538,-36.9102 62.7538,-26.7798 62.7538,-19.7511"/>
<polygon fill="midnightblue" stroke="midnightblue" points="59.2539,-46.083 62.7538,-56.083 66.2539,-46.083 59.2539,-46.083"/>
</g>
</g>
</svg>
