<?xml version="1.0" encoding="UTF-8" standalone="no"?>
<!DOCTYPE svg PUBLIC "-//W3C//DTD SVG 1.1//EN"
 "http://www.w3.org/Graphics/SVG/1.1/DTD/svg11.dtd">
<!-- Generated by graphviz version 2.43.0 (0)
 -->
<!-- Title: BLEMIDIPacketBuilder.hpp Pages: 1 -->
<svg width="1300pt" height="885pt"
 viewBox="0.00 0.00 1300.00 885.00" xmlns="http://www.w3.org/2000/svg" xmlns:xlink="http://www.w3.org/1999/xlink">
<g id="graph0" class="graph" transform="scale(1 1) rotate(0) translate(4 881)">
<title>BLEMIDIPacketBuilder.hpp</title>
<!-- Node1 -->
<g id="Node000001" class="node">
<title>Node1</title>
<g id="a_Node000001"><a xlink:title=" ">
<polygon fill="#999999" stroke="#666666" points="353.5,-877 210.5,-877 210.5,-858 353.5,-858 353.5,-877"/>
<text text-anchor="middle" x="282" y="-865" font-family="Helvetica,sans-Serif" font-size="10.00">BLEMIDIPacketBuilder.hpp</text>
</a>
</g>
</g>
<!-- Node2 -->
<g id="Node000002" class="node">
<title>Node2</title>
<g id="a_Node000002"><a xlink:href="../../dc/d40/MIDI__MessageTypes_8hpp.html" target="_top" xlink:title=" ">
<polygon fill="white" stroke="#666666" points="307,-822 153,-822 153,-792 307,-792 307,-822"/>
<text text-anchor="start" x="161" y="-810" font-family="Helvetica,sans-Serif" font-size="10.00">MIDI_Parsers/MIDI_Message</text>
<text text-anchor="middle" x="230" y="-799" font-family="Helvetica,sans-Serif" font-size="10.00">Types.hpp</text>
</a>
</g>
</g>
<!-- Node1&#45;&gt;Node2 -->
<g id="edge1_Node000001_Node000002" class="edge">
<title>Node1&#45;&gt;Node2</title>
<g id="a_edge1_Node000001_Node000002"><a xlink:title=" ">
<path fill="none" stroke="#63b8ff" d="M274.33,-857.87C267.73,-850.44 257.93,-839.42 249.22,-829.62"/>
<polygon fill="#63b8ff" stroke="#63b8ff" points="251.81,-827.26 242.55,-822.11 246.57,-831.91 251.81,-827.26"/>
</a>
</g>
</g>
<!-- Node13 -->
<g id="Node000013" class="node">
<title>Node13</title>
<g id="a_Node000013"><a xlink:title=" ">
<polygon fill="#e0e0e0" stroke="#999999" points="518.5,-756 433.5,-756 433.5,-737 518.5,-737 518.5,-756"/>
<text text-anchor="middle" x="476" y="-744" font-family="Helvetica,sans-Serif" font-size="10.00">AH/STL/vector</text>
</a>
</g>
</g>
<!-- Node1&#45;&gt;Node13 -->
<g id="edge67_Node000001_Node000013" class="edge">
<title>Node1&#45;&gt;Node13</title>
<g id="a_edge67_Node000001_Node000013"><a xlink:title=" ">
<path fill="none" stroke="#63b8ff" d="M295.95,-857.94C329.08,-837.62 412.72,-786.31 453.27,-761.44"/>
<polygon fill="#63b8ff" stroke="#63b8ff" points="455.22,-764.35 461.91,-756.14 451.56,-758.39 455.22,-764.35"/>
</a>
</g>
</g>
<!-- Node3 -->
<g id="Node000003" class="node">
<title>Node3</title>
<g id="a_Node000003"><a xlink:href="../../d6/ddf/Arduino-Wrapper_8h.html" target="_top" xlink:title=" ">
<polygon fill="white" stroke="#666666" points="302,-184 178,-184 178,-165 302,-165 302,-184"/>
<text text-anchor="middle" x="240" y="-172" font-family="Helvetica,sans-Serif" font-size="10.00">AH/Arduino&#45;Wrapper.h</text>
</a>
</g>
</g>
<!-- Node2&#45;&gt;Node3 -->
<g id="edge2_Node000002_Node000003" class="edge">
<title>Node2&#45;&gt;Node3</title>
<g id="a_edge2_Node000002_Node000003"><a xlink:title=" ">
<path fill="none" stroke="#63b8ff" d="M152.77,-799.47C85.96,-789.09 0,-762.19 0,-692.5 0,-692.5 0,-692.5 0,-283.5 0,-209.14 97,-185.68 167.66,-178.45"/>
<polygon fill="#63b8ff" stroke="#63b8ff" points="168.25,-181.91 177.88,-177.5 167.6,-174.94 168.25,-181.91"/>
</a>
</g>
</g>
<!-- Node10 -->
<g id="Node000010" class="node">
<title>Node10</title>
<g id="a_Node000010"><a xlink:href="../../dd/d80/PrintStream_8hpp.html" target="_top" xlink:title=" ">
<polygon fill="white" stroke="#666666" points="613.5,-349 440.5,-349 440.5,-330 613.5,-330 613.5,-349"/>
<text text-anchor="middle" x="527" y="-337" font-family="Helvetica,sans-Serif" font-size="10.00">AH/PrintStream/PrintStream.hpp</text>
</a>
</g>
</g>
<!-- Node2&#45;&gt;Node10 -->
<g id="edge11_Node000002_Node000010" class="edge">
<title>Node2&#45;&gt;Node10</title>
<g id="a_edge11_Node000002_Node000010"><a xlink:title=" ">
<path fill="none" stroke="#63b8ff" d="M230,-791.67C230,-770.14 230,-728.17 230,-692.5 230,-692.5 230,-692.5 230,-564 230,-439.36 399.07,-375.57 482.08,-351.76"/>
<polygon fill="#63b8ff" stroke="#63b8ff" points="483.08,-355.12 491.76,-349.05 481.19,-348.38 483.08,-355.12"/>
</a>
</g>
</g>
<!-- Node11 -->
<g id="Node000011" class="node">
<title>Node11</title>
<g id="a_Node000011"><a xlink:href="../../d0/da7/Settings_2NamespaceSettings_8hpp.html" target="_top" xlink:title=" ">
<polygon fill="white" stroke="#666666" points="316,-294 138,-294 138,-275 316,-275 316,-294"/>
<text text-anchor="middle" x="227" y="-282" font-family="Helvetica,sans-Serif" font-size="10.00">Settings/NamespaceSettings.hpp</text>
</a>
</g>
</g>
<!-- Node2&#45;&gt;Node11 -->
<g id="edge18_Node000002_Node000011" class="edge">
<title>Node2&#45;&gt;Node11</title>
<g id="a_edge18_Node000002_Node000011"><a xlink:title=" ">
<path fill="none" stroke="#63b8ff" d="M179.57,-791.91C134.66,-775.91 76,-744.98 76,-692.5 76,-692.5 76,-692.5 76,-503.5 76,-412.59 165.83,-332.23 206.92,-300.23"/>
<polygon fill="#63b8ff" stroke="#63b8ff" points="209.07,-302.99 214.9,-294.14 204.82,-297.42 209.07,-302.99"/>
</a>
</g>
</g>
<!-- Node12 -->
<g id="Node000012" class="node">
<title>Node12</title>
<g id="a_Node000012"><a xlink:title=" ">
<polygon fill="#e0e0e0" stroke="#999999" points="462,-514 372,-514 372,-495 462,-495 462,-514"/>
<text text-anchor="middle" x="417" y="-502" font-family="Helvetica,sans-Serif" font-size="10.00">AH/STL/cstddef</text>
</a>
</g>
</g>
<!-- Node2&#45;&gt;Node12 -->
<g id="edge16_Node000002_Node000012" class="edge">
<title>Node2&#45;&gt;Node12</title>
<g id="a_edge16_Node000002_Node000012"><a xlink:title=" ">
<path fill="none" stroke="#63b8ff" d="M238.77,-791.91C269.49,-742.53 372.25,-577.41 406.09,-523.03"/>
<polygon fill="#63b8ff" stroke="#63b8ff" points="409.26,-524.56 411.58,-514.22 403.32,-520.86 409.26,-524.56"/>
</a>
</g>
</g>
<!-- Node2&#45;&gt;Node13 -->
<g id="edge17_Node000002_Node000013" class="edge">
<title>Node2&#45;&gt;Node13</title>
<g id="a_edge17_Node000002_Node000013"><a xlink:title=" ">
<path fill="none" stroke="#63b8ff" d="M288.92,-791.99C332.2,-781.7 390.17,-767.91 430.05,-758.43"/>
<polygon fill="#63b8ff" stroke="#63b8ff" points="431.11,-761.77 440.03,-756.05 429.49,-754.96 431.11,-761.77"/>
</a>
</g>
</g>
<!-- Node14 -->
<g id="Node000014" class="node">
<title>Node14</title>
<g id="a_Node000014"><a xlink:href="../../d2/dbc/Cable_8hpp.html" target="_top" xlink:title=" ">
<polygon fill="white" stroke="#666666" points="224,-404 138,-404 138,-385 224,-385 224,-404"/>
<text text-anchor="middle" x="181" y="-392" font-family="Helvetica,sans-Serif" font-size="10.00">Def/Cable.hpp</text>
</a>
</g>
</g>
<!-- Node2&#45;&gt;Node14 -->
<g id="edge19_Node000002_Node000014" class="edge">
<title>Node2&#45;&gt;Node14</title>
<g id="a_edge19_Node000002_Node000014"><a xlink:title=" ">
<path fill="none" stroke="#63b8ff" d="M152.9,-792.3C114.34,-783.72 73.46,-771.37 62,-756 18.99,-698.33 135.89,-476.83 171.23,-412.88"/>
<polygon fill="#63b8ff" stroke="#63b8ff" points="174.36,-414.46 176.16,-404.02 168.24,-411.05 174.36,-414.46"/>
</a>
</g>
</g>
<!-- Node15 -->
<g id="Node000015" class="node">
<title>Node15</title>
<g id="a_Node000015"><a xlink:href="../../d7/d42/Channel_8hpp.html" target="_top" xlink:title=" ">
<polygon fill="white" stroke="#666666" points="202,-640.5 104,-640.5 104,-621.5 202,-621.5 202,-640.5"/>
<text text-anchor="middle" x="153" y="-628.5" font-family="Helvetica,sans-Serif" font-size="10.00">Def/Channel.hpp</text>
</a>
</g>
</g>
<!-- Node2&#45;&gt;Node15 -->
<g id="edge22_Node000002_Node000015" class="edge">
<title>Node2&#45;&gt;Node15</title>
<g id="a_edge22_Node000002_Node000015"><a xlink:title=" ">
<path fill="none" stroke="#63b8ff" d="M223.7,-791.76C209.77,-760.28 176.37,-684.81 160.99,-650.07"/>
<polygon fill="#63b8ff" stroke="#63b8ff" points="164.09,-648.41 156.84,-640.68 157.69,-651.25 164.09,-648.41"/>
</a>
</g>
</g>
<!-- Node16 -->
<g id="Node000016" class="node">
<title>Node16</title>
<g id="a_Node000016"><a xlink:href="../../db/dd6/MIDIAddress_8hpp.html" target="_top" xlink:title=" ">
<polygon fill="white" stroke="#666666" points="415.5,-756 296.5,-756 296.5,-737 415.5,-737 415.5,-756"/>
<text text-anchor="middle" x="356" y="-744" font-family="Helvetica,sans-Serif" font-size="10.00">Def/MIDIAddress.hpp</text>
</a>
</g>
</g>
<!-- Node2&#45;&gt;Node16 -->
<g id="edge25_Node000002_Node000016" class="edge">
<title>Node2&#45;&gt;Node16</title>
<g id="a_edge25_Node000002_Node000016"><a xlink:title=" ">
<path fill="none" stroke="#63b8ff" d="M260.18,-791.99C280.83,-782.4 308,-769.79 328.13,-760.44"/>
<polygon fill="#63b8ff" stroke="#63b8ff" points="329.8,-763.52 337.39,-756.14 326.85,-757.18 329.8,-763.52"/>
</a>
</g>
</g>
<!-- Node4 -->
<g id="Node000004" class="node">
<title>Node4</title>
<g id="a_Node000004"><a xlink:href="../../d7/d79/MinMaxFix_8hpp.html" target="_top" xlink:title=" ">
<polygon fill="white" stroke="#666666" points="308,-129 172,-129 172,-110 308,-110 308,-129"/>
<text text-anchor="middle" x="240" y="-117" font-family="Helvetica,sans-Serif" font-size="10.00">AH/Math/MinMaxFix.hpp</text>
</a>
</g>
</g>
<!-- Node3&#45;&gt;Node4 -->
<g id="edge3_Node000003_Node000004" class="edge">
<title>Node3&#45;&gt;Node4</title>
<g id="a_edge3_Node000003_Node000004"><a xlink:title=" ">
<path fill="none" stroke="#63b8ff" d="M240,-164.75C240,-157.8 240,-147.85 240,-139.13"/>
<polygon fill="#63b8ff" stroke="#63b8ff" points="243.5,-139.09 240,-129.09 236.5,-139.09 243.5,-139.09"/>
</a>
</g>
</g>
<!-- Node7 -->
<g id="Node000007" class="node">
<title>Node7</title>
<g id="a_Node000007"><a xlink:title=" ">
<polygon fill="#e0e0e0" stroke="#999999" points="202.5,-19 139.5,-19 139.5,0 202.5,0 202.5,-19"/>
<text text-anchor="middle" x="171" y="-7" font-family="Helvetica,sans-Serif" font-size="10.00">Arduino.h</text>
</a>
</g>
</g>
<!-- Node3&#45;&gt;Node7 -->
<g id="edge10_Node000003_Node000007" class="edge">
<title>Node3&#45;&gt;Node7</title>
<g id="a_edge10_Node000003_Node000007"><a xlink:title=" ">
<path fill="none" stroke="#63b8ff" d="M217.68,-164.95C200.85,-157.56 178.16,-145.47 163,-129 144.69,-109.11 142.92,-100.38 137,-74 135.15,-65.76 134.29,-63 137,-55 140.56,-44.47 147.72,-34.48 154.55,-26.63"/>
<polygon fill="#63b8ff" stroke="#63b8ff" points="157.13,-29.01 161.39,-19.31 152.01,-24.23 157.13,-29.01"/>
</a>
</g>
</g>
<!-- Node9 -->
<g id="Node000009" class="node">
<title>Node9</title>
<g id="a_Node000009"><a xlink:title=" ">
<polygon fill="#e0e0e0" stroke="#999999" points="643.5,-129 536.5,-129 536.5,-110 643.5,-110 643.5,-129"/>
<text text-anchor="middle" x="590" y="-117" font-family="Helvetica,sans-Serif" font-size="10.00">AH/STL/type_traits</text>
</a>
</g>
</g>
<!-- Node3&#45;&gt;Node9 -->
<g id="edge9_Node000003_Node000009" class="edge">
<title>Node3&#45;&gt;Node9</title>
<g id="a_edge9_Node000003_Node000009"><a xlink:title=" ">
<path fill="none" stroke="#63b8ff" d="M296.23,-164.98C359.06,-155.47 460.54,-140.1 526.26,-130.15"/>
<polygon fill="#63b8ff" stroke="#63b8ff" points="527.13,-133.56 536.49,-128.6 526.08,-126.64 527.13,-133.56"/>
</a>
</g>
</g>
<!-- Node5 -->
<g id="Node000005" class="node">
<title>Node5</title>
<g id="a_Node000005"><a xlink:href="../../d6/d3b/FixArduinoMacros_8hpp.html" target="_top" xlink:title=" ">
<polygon fill="white" stroke="#666666" points="316,-74 146,-74 146,-55 316,-55 316,-74"/>
<text text-anchor="middle" x="231" y="-62" font-family="Helvetica,sans-Serif" font-size="10.00">AH/Math/FixArduinoMacros.hpp</text>
</a>
</g>
</g>
<!-- Node4&#45;&gt;Node5 -->
<g id="edge4_Node000004_Node000005" class="edge">
<title>Node4&#45;&gt;Node5</title>
<g id="a_edge4_Node000004_Node000005"><a xlink:title=" ">
<path fill="none" stroke="#63b8ff" d="M238.51,-109.75C237.33,-102.8 235.64,-92.85 234.16,-84.13"/>
<polygon fill="#63b8ff" stroke="#63b8ff" points="237.58,-83.36 232.46,-74.09 230.68,-84.53 237.58,-83.36"/>
</a>
</g>
</g>
<!-- Node8 -->
<g id="Node000008" class="node">
<title>Node8</title>
<g id="a_Node000008"><a xlink:href="../../d6/db0/AH_2Settings_2NamespaceSettings_8hpp.html" target="_top" xlink:title=" ">
<polygon fill="white" stroke="#666666" points="769.5,-74 574.5,-74 574.5,-55 769.5,-55 769.5,-74"/>
<text text-anchor="middle" x="672" y="-62" font-family="Helvetica,sans-Serif" font-size="10.00">AH/Settings/NamespaceSettings.hpp</text>
</a>
</g>
</g>
<!-- Node4&#45;&gt;Node8 -->
<g id="edge7_Node000004_Node000008" class="edge">
<title>Node4&#45;&gt;Node8</title>
<g id="a_edge7_Node000004_Node000008"><a xlink:title=" ">
<path fill="none" stroke="#63b8ff" d="M308.45,-110.1C385.57,-100.64 510.75,-85.28 592.23,-75.29"/>
<polygon fill="#63b8ff" stroke="#63b8ff" points="592.94,-78.73 602.44,-74.03 592.09,-71.78 592.94,-78.73"/>
</a>
</g>
</g>
<!-- Node6 -->
<g id="Node000006" class="node">
<title>Node6</title>
<g id="a_Node000006"><a xlink:href="../../d1/d65/Warnings_8hpp.html" target="_top" xlink:title=" ">
<polygon fill="white" stroke="#666666" points="415.5,-19 272.5,-19 272.5,0 415.5,0 415.5,-19"/>
<text text-anchor="middle" x="344" y="-7" font-family="Helvetica,sans-Serif" font-size="10.00">AH/Settings/Warnings.hpp</text>
</a>
</g>
</g>
<!-- Node5&#45;&gt;Node6 -->
<g id="edge5_Node000005_Node000006" class="edge">
<title>Node5&#45;&gt;Node6</title>
<g id="a_edge5_Node000005_Node000006"><a xlink:title=" ">
<path fill="none" stroke="#63b8ff" d="M249.16,-54.98C267.25,-46.5 295.28,-33.35 316.19,-23.54"/>
<polygon fill="#63b8ff" stroke="#63b8ff" points="317.95,-26.59 325.51,-19.17 314.97,-20.25 317.95,-26.59"/>
</a>
</g>
</g>
<!-- Node5&#45;&gt;Node7 -->
<g id="edge6_Node000005_Node000007" class="edge">
<title>Node5&#45;&gt;Node7</title>
<g id="a_edge6_Node000005_Node000007"><a xlink:title=" ">
<path fill="none" stroke="#63b8ff" d="M221.36,-54.98C212.49,-47.15 199.13,-35.34 188.39,-25.86"/>
<polygon fill="#63b8ff" stroke="#63b8ff" points="190.63,-23.17 180.82,-19.17 185.99,-28.41 190.63,-23.17"/>
</a>
</g>
</g>
<!-- Node8&#45;&gt;Node6 -->
<g id="edge8_Node000008_Node000006" class="edge">
<title>Node8&#45;&gt;Node6</title>
<g id="a_edge8_Node000008_Node000006"><a xlink:title=" ">
<path fill="none" stroke="#63b8ff" d="M619.3,-54.98C561.41,-45.63 468.47,-30.61 406.83,-20.65"/>
<polygon fill="#63b8ff" stroke="#63b8ff" points="407.27,-17.18 396.84,-19.04 406.15,-24.09 407.27,-17.18"/>
</a>
</g>
</g>
<!-- Node10&#45;&gt;Node3 -->
<g id="edge12_Node000010_Node000003" class="edge">
<title>Node10&#45;&gt;Node3</title>
<g id="a_edge12_Node000010_Node000003"><a xlink:title=" ">
<path fill="none" stroke="#63b8ff" d="M511.97,-329.81C477.9,-310.13 392.13,-260.7 320,-220 301.55,-209.59 280.61,-197.95 264.79,-189.19"/>
<polygon fill="#63b8ff" stroke="#63b8ff" points="266.11,-185.92 255.67,-184.14 262.72,-192.04 266.11,-185.92"/>
</a>
</g>
</g>
<!-- Node10&#45;&gt;Node8 -->
<g id="edge13_Node000010_Node000008" class="edge">
<title>Node10&#45;&gt;Node8</title>
<g id="a_edge13_Node000010_Node000008"><a xlink:title=" ">
<path fill="none" stroke="#63b8ff" d="M536.84,-329.87C554.74,-313.7 592.79,-277.04 615,-239 645.17,-187.32 661.84,-117.53 668.51,-84.43"/>
<polygon fill="#63b8ff" stroke="#63b8ff" points="672,-84.83 670.46,-74.34 665.13,-83.5 672,-84.83"/>
</a>
</g>
</g>
<!-- Node10&#45;&gt;Node11 -->
<g id="edge14_Node000010_Node000011" class="edge">
<title>Node10&#45;&gt;Node11</title>
<g id="a_edge14_Node000010_Node000011"><a xlink:title=" ">
<path fill="none" stroke="#63b8ff" d="M478.8,-329.98C426.25,-320.7 342.15,-305.84 285.77,-295.88"/>
<polygon fill="#63b8ff" stroke="#63b8ff" points="286.03,-292.38 275.58,-294.08 284.82,-299.27 286.03,-292.38"/>
</a>
</g>
</g>
<!-- Node11&#45;&gt;Node6 -->
<g id="edge15_Node000011_Node000006" class="edge">
<title>Node11&#45;&gt;Node6</title>
<g id="a_edge15_Node000011_Node000006"><a xlink:title=" ">
<path fill="none" stroke="#63b8ff" d="M249.01,-274.99C282.9,-260.27 344,-226.64 344,-175.5 344,-175.5 344,-175.5 344,-118.5 344,-87.19 344,-50.77 344,-29.23"/>
<polygon fill="#63b8ff" stroke="#63b8ff" points="347.5,-29.18 344,-19.18 340.5,-29.18 347.5,-29.18"/>
</a>
</g>
</g>
<!-- Node14&#45;&gt;Node3 -->
<g id="edge20_Node000014_Node000003" class="edge">
<title>Node14&#45;&gt;Node3</title>
<g id="a_edge20_Node000014_Node000003"><a xlink:title=" ">
<path fill="none" stroke="#63b8ff" d="M171.99,-384.86C152.72,-365.28 110.68,-316.03 129,-275 146.46,-235.89 187.73,-205.77 214.73,-189.35"/>
<polygon fill="#63b8ff" stroke="#63b8ff" points="216.78,-192.21 223.63,-184.13 213.23,-186.18 216.78,-192.21"/>
</a>
</g>
</g>
<!-- Node14&#45;&gt;Node11 -->
<g id="edge21_Node000014_Node000011" class="edge">
<title>Node14&#45;&gt;Node11</title>
<g id="a_edge21_Node000014_Node000011"><a xlink:title=" ">
<path fill="none" stroke="#63b8ff" d="M184.76,-384.66C192.28,-367.01 209.29,-327.09 219.28,-303.64"/>
<polygon fill="#63b8ff" stroke="#63b8ff" points="222.61,-304.73 223.31,-294.16 216.17,-301.99 222.61,-304.73"/>
</a>
</g>
</g>
<!-- Node15&#45;&gt;Node3 -->
<g id="edge23_Node000015_Node000003" class="edge">
<title>Node15&#45;&gt;Node3</title>
<g id="a_edge23_Node000015_Node000003"><a xlink:title=" ">
<path fill="none" stroke="#63b8ff" d="M148.65,-621.25C131.82,-586.6 72,-455.32 72,-340.5 72,-340.5 72,-340.5 72,-283.5 72,-228.52 136.46,-200.21 185.53,-186.63"/>
<polygon fill="#63b8ff" stroke="#63b8ff" points="186.64,-189.96 195.42,-184.03 184.86,-183.19 186.64,-189.96"/>
</a>
</g>
</g>
<!-- Node15&#45;&gt;Node11 -->
<g id="edge24_Node000015_Node000011" class="edge">
<title>Node15&#45;&gt;Node11</title>
<g id="a_edge24_Node000015_Node000011"><a xlink:title=" ">
<path fill="none" stroke="#63b8ff" d="M157.33,-621.25C171.72,-591.66 217.85,-492.2 233,-404 234.43,-395.68 233.25,-393.44 233,-385 232.15,-356.8 229.95,-324.17 228.46,-304.19"/>
<polygon fill="#63b8ff" stroke="#63b8ff" points="231.94,-303.71 227.69,-294.01 224.96,-304.25 231.94,-303.71"/>
</a>
</g>
</g>
<!-- Node17 -->
<g id="Node000017" class="node">
<title>Node17</title>
<g id="a_Node000017"><a xlink:href="../../d0/d4e/Def_8hpp.html" target="_top" xlink:title=" ">
<polygon fill="white" stroke="#666666" points="673,-701 599,-701 599,-682 673,-682 673,-701"/>
<text text-anchor="middle" x="636" y="-689" font-family="Helvetica,sans-Serif" font-size="10.00">Def/Def.hpp</text>
</a>
</g>
</g>
<!-- Node16&#45;&gt;Node17 -->
<g id="edge26_Node000016_Node000017" class="edge">
<title>Node16&#45;&gt;Node17</title>
<g id="a_edge26_Node000016_Node000017"><a xlink:title=" ">
<path fill="none" stroke="#63b8ff" d="M400.99,-736.98C452.44,-727.25 536.3,-711.37 588.7,-701.45"/>
<polygon fill="#63b8ff" stroke="#63b8ff" points="589.56,-704.85 598.74,-699.55 588.26,-697.97 589.56,-704.85"/>
</a>
</g>
</g>
<!-- Node17&#45;&gt;Node11 -->
<g id="edge64_Node000017_Node000011" class="edge">
<title>Node17&#45;&gt;Node11</title>
<g id="a_edge64_Node000017_Node000011"><a xlink:title=" ">
<path fill="none" stroke="#63b8ff" d="M598.79,-687.06C512.48,-676.85 306,-638.5 306,-505.5 306,-505.5 306,-505.5 306,-393.5 306,-353.78 270.75,-318.93 247.34,-300.17"/>
<polygon fill="#63b8ff" stroke="#63b8ff" points="249.4,-297.34 239.34,-294.01 245.13,-302.89 249.4,-297.34"/>
</a>
</g>
</g>
<!-- Node17&#45;&gt;Node14 -->
<g id="edge27_Node000017_Node000014" class="edge">
<title>Node17&#45;&gt;Node14</title>
<g id="a_edge27_Node000017_Node000014"><a xlink:title=" ">
<path fill="none" stroke="#63b8ff" d="M598.74,-689.04C527.09,-685.6 373.35,-674.98 330,-646 243.54,-588.2 199.87,-461.75 186.01,-414.13"/>
<polygon fill="#63b8ff" stroke="#63b8ff" points="189.32,-412.96 183.24,-404.28 182.58,-414.85 189.32,-412.96"/>
</a>
</g>
</g>
<!-- Node17&#45;&gt;Node15 -->
<g id="edge28_Node000017_Node000015" class="edge">
<title>Node17&#45;&gt;Node15</title>
<g id="a_edge28_Node000017_Node000015"><a xlink:title=" ">
<path fill="none" stroke="#63b8ff" d="M598.9,-686.01C515.61,-675.92 313.17,-651.4 212.24,-639.18"/>
<polygon fill="#63b8ff" stroke="#63b8ff" points="212.56,-635.69 202.21,-637.96 211.72,-642.64 212.56,-635.69"/>
</a>
</g>
</g>
<!-- Node18 -->
<g id="Node000018" class="node">
<title>Node18</title>
<g id="a_Node000018"><a xlink:href="../../de/d76/Array_8hpp.html" target="_top" xlink:title=" ">
<polygon fill="white" stroke="#666666" points="1043.5,-514 908.5,-514 908.5,-495 1043.5,-495 1043.5,-514"/>
<text text-anchor="middle" x="976" y="-502" font-family="Helvetica,sans-Serif" font-size="10.00">AH/Containers/Array.hpp</text>
</a>
</g>
</g>
<!-- Node17&#45;&gt;Node18 -->
<g id="edge29_Node000017_Node000018" class="edge">
<title>Node17&#45;&gt;Node18</title>
<g id="a_edge29_Node000017_Node000018"><a xlink:title=" ">
<path fill="none" stroke="#63b8ff" d="M673.01,-687.94C735.56,-683.01 858.8,-670.42 894,-646 937.4,-615.88 961.15,-554.78 970.8,-524.04"/>
<polygon fill="#63b8ff" stroke="#63b8ff" points="974.23,-524.79 973.73,-514.2 967.52,-522.79 974.23,-524.79"/>
</a>
</g>
</g>
<!-- Node26 -->
<g id="Node000026" class="node">
<title>Node26</title>
<g id="a_Node000026"><a xlink:title=" ">
<polygon fill="#e0e0e0" stroke="#999999" points="945,-239 889,-239 889,-220 945,-220 945,-239"/>
<text text-anchor="middle" x="917" y="-227" font-family="Helvetica,sans-Serif" font-size="10.00">stddef.h</text>
</a>
</g>
</g>
<!-- Node17&#45;&gt;Node26 -->
<g id="edge65_Node000017_Node000026" class="edge">
<title>Node17&#45;&gt;Node26</title>
<g id="a_edge65_Node000017_Node000026"><a xlink:title=" ">
<path fill="none" stroke="#63b8ff" d="M673.06,-688.27C741.32,-681.94 880,-657.78 880,-566 880,-566 880,-566 880,-393.5 880,-339.74 899.37,-278.43 910.08,-248.65"/>
<polygon fill="#63b8ff" stroke="#63b8ff" points="913.4,-249.77 913.59,-239.18 906.84,-247.34 913.4,-249.77"/>
</a>
</g>
</g>
<!-- Node27 -->
<g id="Node000027" class="node">
<title>Node27</title>
<g id="a_Node000027"><a xlink:title=" ">
<polygon fill="#e0e0e0" stroke="#999999" points="1280.5,-239 1227.5,-239 1227.5,-220 1280.5,-220 1280.5,-239"/>
<text text-anchor="middle" x="1254" y="-227" font-family="Helvetica,sans-Serif" font-size="10.00">stdint.h</text>
</a>
</g>
</g>
<!-- Node17&#45;&gt;Node27 -->
<g id="edge66_Node000017_Node000027" class="edge">
<title>Node17&#45;&gt;Node27</title>
<g id="a_edge66_Node000017_Node000027"><a xlink:title=" ">
<path fill="none" stroke="#63b8ff" d="M673.15,-687.43C811.92,-675.46 1292,-629.47 1292,-566 1292,-566 1292,-566 1292,-338.5 1292,-305.02 1275.55,-268.84 1264.3,-248.01"/>
<polygon fill="#63b8ff" stroke="#63b8ff" points="1267.24,-246.1 1259.28,-239.1 1261.13,-249.53 1267.24,-246.1"/>
</a>
</g>
</g>
<!-- Node31 -->
<g id="Node000031" class="node">
<title>Node31</title>
<g id="a_Node000031"><a xlink:href="../../d2/d3c/Arduino-Hardware-Types_8hpp.html" target="_top" xlink:title=" ">
<polygon fill="white" stroke="#666666" points="653,-646 531,-646 531,-616 653,-616 653,-646"/>
<text text-anchor="start" x="539" y="-634" font-family="Helvetica,sans-Serif" font-size="10.00">AH/Hardware/Arduino</text>
<text text-anchor="middle" x="592" y="-623" font-family="Helvetica,sans-Serif" font-size="10.00">&#45;Hardware&#45;Types.hpp</text>
</a>
</g>
</g>
<!-- Node17&#45;&gt;Node31 -->
<g id="edge49_Node000017_Node000031" class="edge">
<title>Node17&#45;&gt;Node31</title>
<g id="a_edge49_Node000017_Node000031"><a xlink:title=" ">
<path fill="none" stroke="#63b8ff" d="M629.51,-681.87C624.03,-674.59 615.96,-663.85 608.7,-654.2"/>
<polygon fill="#63b8ff" stroke="#63b8ff" points="611.42,-652 602.62,-646.11 605.83,-656.21 611.42,-652"/>
</a>
</g>
</g>
<!-- Node32 -->
<g id="Node000032" class="node">
<title>Node32</title>
<g id="a_Node000032"><a xlink:href="../../d4/d35/Hardware-Types_8hpp.html" target="_top" xlink:title=" ">
<polygon fill="white" stroke="#666666" points="840.5,-580 709.5,-580 709.5,-550 840.5,-550 840.5,-580"/>
<text text-anchor="start" x="717.5" y="-568" font-family="Helvetica,sans-Serif" font-size="10.00">AH/Hardware/Hardware</text>
<text text-anchor="middle" x="775" y="-557" font-family="Helvetica,sans-Serif" font-size="10.00">&#45;Types.hpp</text>
</a>
</g>
</g>
<!-- Node17&#45;&gt;Node32 -->
<g id="edge62_Node000017_Node000032" class="edge">
<title>Node17&#45;&gt;Node32</title>
<g id="a_edge62_Node000017_Node000032"><a xlink:title=" ">
<path fill="none" stroke="#63b8ff" d="M648.59,-681.78C660.81,-673.14 679.7,-659.3 695,-646 716.4,-627.39 739.11,-604.33 754.84,-587.75"/>
<polygon fill="#63b8ff" stroke="#63b8ff" points="757.66,-589.86 761.97,-580.18 752.56,-585.06 757.66,-589.86"/>
</a>
</g>
</g>
<!-- Node33 -->
<g id="Node000033" class="node">
<title>Node33</title>
<g id="a_Node000033"><a xlink:title=" ">
<polygon fill="#e0e0e0" stroke="#999999" points="736,-514 654,-514 654,-495 736,-495 736,-514"/>
<text text-anchor="middle" x="695" y="-502" font-family="Helvetica,sans-Serif" font-size="10.00">AH/STL/limits</text>
</a>
</g>
</g>
<!-- Node17&#45;&gt;Node33 -->
<g id="edge63_Node000017_Node000033" class="edge">
<title>Node17&#45;&gt;Node33</title>
<g id="a_edge63_Node000017_Node000033"><a xlink:title=" ">
<path fill="none" stroke="#63b8ff" d="M642.21,-681.7C648.08,-673 656.76,-659.13 662,-646 678.66,-604.26 688.17,-552.03 692.38,-524.51"/>
<polygon fill="#63b8ff" stroke="#63b8ff" points="695.88,-524.73 693.86,-514.33 688.96,-523.72 695.88,-524.73"/>
</a>
</g>
</g>
<!-- Node18&#45;&gt;Node9 -->
<g id="edge47_Node000018_Node000009" class="edge">
<title>Node18&#45;&gt;Node9</title>
<g id="a_edge47_Node000018_Node000009"><a xlink:title=" ">
<path fill="none" stroke="#63b8ff" d="M958.3,-494.87C917.62,-474.36 816.08,-419.08 752,-349 688.61,-279.68 709.61,-235.91 648,-165 637.88,-153.36 624.3,-142.74 612.83,-134.8"/>
<polygon fill="#63b8ff" stroke="#63b8ff" points="614.44,-131.67 604.18,-129.04 610.56,-137.5 614.44,-131.67"/>
</a>
</g>
</g>
<!-- Node19 -->
<g id="Node000019" class="node">
<title>Node19</title>
<g id="a_Node000019"><a xlink:href="../../d1/d93/Error_8hpp.html" target="_top" xlink:title=" ">
<polygon fill="white" stroke="#666666" points="1158,-459 1054,-459 1054,-440 1158,-440 1158,-459"/>
<text text-anchor="middle" x="1106" y="-447" font-family="Helvetica,sans-Serif" font-size="10.00">AH/Error/Error.hpp</text>
</a>
</g>
</g>
<!-- Node18&#45;&gt;Node19 -->
<g id="edge30_Node000018_Node000019" class="edge">
<title>Node18&#45;&gt;Node19</title>
<g id="a_edge30_Node000018_Node000019"><a xlink:title=" ">
<path fill="none" stroke="#63b8ff" d="M996.89,-494.98C1018.08,-486.34 1051.13,-472.87 1075.3,-463.02"/>
<polygon fill="#63b8ff" stroke="#63b8ff" points="1076.79,-466.19 1084.73,-459.17 1074.15,-459.7 1076.79,-466.19"/>
</a>
</g>
</g>
<!-- Node18&#45;&gt;Node26 -->
<g id="edge48_Node000018_Node000026" class="edge">
<title>Node18&#45;&gt;Node26</title>
<g id="a_edge48_Node000018_Node000026"><a xlink:title=" ">
<path fill="none" stroke="#63b8ff" d="M965.32,-494.87C956.06,-486.7 943.21,-473.55 937,-459 906.06,-386.51 911.01,-289.52 914.84,-249.25"/>
<polygon fill="#63b8ff" stroke="#63b8ff" points="918.33,-249.57 915.89,-239.26 911.37,-248.84 918.33,-249.57"/>
</a>
</g>
</g>
<!-- Node30 -->
<g id="Node000030" class="node">
<title>Node30</title>
<g id="a_Node000030"><a xlink:title=" ">
<polygon fill="#e0e0e0" stroke="#999999" points="1036,-459 946,-459 946,-440 1036,-440 1036,-459"/>
<text text-anchor="middle" x="991" y="-447" font-family="Helvetica,sans-Serif" font-size="10.00">AH/STL/iterator</text>
</a>
</g>
</g>
<!-- Node18&#45;&gt;Node30 -->
<g id="edge46_Node000018_Node000030" class="edge">
<title>Node18&#45;&gt;Node30</title>
<g id="a_edge46_Node000018_Node000030"><a xlink:title=" ">
<path fill="none" stroke="#63b8ff" d="M978.48,-494.75C980.46,-487.72 983.32,-477.62 985.81,-468.84"/>
<polygon fill="#63b8ff" stroke="#63b8ff" points="989.21,-469.66 988.57,-459.09 982.48,-467.76 989.21,-469.66"/>
</a>
</g>
</g>
<!-- Node20 -->
<g id="Node000020" class="node">
<title>Node20</title>
<g id="a_Node000020"><a xlink:href="../../df/dee/Debug_8hpp.html" target="_top" xlink:title=" ">
<polygon fill="white" stroke="#666666" points="1095.5,-404 974.5,-404 974.5,-385 1095.5,-385 1095.5,-404"/>
<text text-anchor="middle" x="1035" y="-392" font-family="Helvetica,sans-Serif" font-size="10.00">AH/Debug/Debug.hpp</text>
</a>
</g>
</g>
<!-- Node19&#45;&gt;Node20 -->
<g id="edge31_Node000019_Node000020" class="edge">
<title>Node19&#45;&gt;Node20</title>
<g id="a_edge31_Node000019_Node000020"><a xlink:title=" ">
<path fill="none" stroke="#63b8ff" d="M1094.59,-439.98C1083.89,-432 1067.66,-419.88 1054.84,-410.31"/>
<polygon fill="#63b8ff" stroke="#63b8ff" points="1056.72,-407.35 1046.61,-404.17 1052.53,-412.96 1056.72,-407.35"/>
</a>
</g>
</g>
<!-- Node20&#45;&gt;Node10 -->
<g id="edge32_Node000020_Node000010" class="edge">
<title>Node20&#45;&gt;Node10</title>
<g id="a_edge32_Node000020_Node000010"><a xlink:title=" ">
<path fill="none" stroke="#63b8ff" d="M974.48,-387.19C886.38,-377.99 722.12,-360.86 619,-350.1"/>
<polygon fill="#63b8ff" stroke="#63b8ff" points="619.22,-346.6 608.91,-349.05 618.49,-353.56 619.22,-346.6"/>
</a>
</g>
</g>
<!-- Node21 -->
<g id="Node000021" class="node">
<title>Node21</title>
<g id="a_Node000021"><a xlink:href="../../de/dd1/AH_2Settings_2SettingsWrapper_8hpp.html" target="_top" xlink:title=" ">
<polygon fill="white" stroke="#666666" points="1124,-349 946,-349 946,-330 1124,-330 1124,-349"/>
<text text-anchor="middle" x="1035" y="-337" font-family="Helvetica,sans-Serif" font-size="10.00">AH/Settings/SettingsWrapper.hpp</text>
</a>
</g>
</g>
<!-- Node20&#45;&gt;Node21 -->
<g id="edge33_Node000020_Node000021" class="edge">
<title>Node20&#45;&gt;Node21</title>
<g id="a_edge33_Node000020_Node000021"><a xlink:title=" ">
<path fill="none" stroke="#63b8ff" d="M1029.83,-384.75C1028.34,-377.8 1027.9,-367.85 1028.52,-359.13"/>
<polygon fill="#63b8ff" stroke="#63b8ff" points="1032.01,-359.47 1029.87,-349.09 1025.07,-358.53 1032.01,-359.47"/>
</a>
</g>
</g>
<!-- Node29 -->
<g id="Node000029" class="node">
<title>Node29</title>
<g id="a_Node000029"><a xlink:href="../../d7/d52/DebugVal_8hpp.html" target="_top" xlink:title=" ">
<polygon fill="white" stroke="#666666" points="1226,-349 1142,-349 1142,-330 1226,-330 1226,-349"/>
<text text-anchor="middle" x="1184" y="-337" font-family="Helvetica,sans-Serif" font-size="10.00">DebugVal.hpp</text>
</a>
</g>
</g>
<!-- Node20&#45;&gt;Node29 -->
<g id="edge45_Node000020_Node000029" class="edge">
<title>Node20&#45;&gt;Node29</title>
<g id="a_edge45_Node000020_Node000029"><a xlink:title=" ">
<path fill="none" stroke="#63b8ff" d="M1058.94,-384.98C1083.56,-376.23 1122.12,-362.51 1149.92,-352.62"/>
<polygon fill="#63b8ff" stroke="#63b8ff" points="1151.38,-355.82 1159.62,-349.17 1149.03,-349.22 1151.38,-355.82"/>
</a>
</g>
</g>
<!-- Node21&#45;&gt;Node8 -->
<g id="edge34_Node000021_Node000008" class="edge">
<title>Node21&#45;&gt;Node8</title>
<g id="a_edge34_Node000021_Node000008"><a xlink:title=" ">
<path fill="none" stroke="#63b8ff" d="M1070.51,-329.89C1090.85,-323.25 1115.37,-312.05 1131,-294 1150.29,-271.73 1150,-259.96 1150,-230.5 1150,-230.5 1150,-230.5 1150,-173.5 1150,-98.05 920.54,-75.31 779.59,-68.45"/>
<polygon fill="#63b8ff" stroke="#63b8ff" points="779.75,-64.96 769.6,-67.99 779.42,-71.95 779.75,-64.96"/>
</a>
</g>
</g>
<!-- Node21&#45;&gt;Node20 -->
<g id="edge44_Node000021_Node000020" class="edge">
<title>Node21&#45;&gt;Node20</title>
<g id="a_edge44_Node000021_Node000020"><a xlink:title=" ">
<path fill="none" stroke="#63b8ff" d="M1040.13,-349.09C1041.64,-355.99 1042.09,-365.93 1041.49,-374.66"/>
<polygon fill="#63b8ff" stroke="#63b8ff" points="1038,-374.38 1040.17,-384.75 1044.94,-375.29 1038,-374.38"/>
</a>
</g>
</g>
<!-- Node22 -->
<g id="Node000022" class="node">
<title>Node22</title>
<g id="a_Node000022"><a xlink:href="../../d5/d4f/AH_2Settings_2Settings_8hpp.html" target="_top" xlink:title="All user settings and debugging options can be changed here.">
<polygon fill="white" stroke="#666666" points="853.5,-294 776.5,-294 776.5,-275 853.5,-275 853.5,-294"/>
<text text-anchor="middle" x="815" y="-282" font-family="Helvetica,sans-Serif" font-size="10.00">Settings.hpp</text>
</a>
</g>
</g>
<!-- Node21&#45;&gt;Node22 -->
<g id="edge35_Node000021_Node000022" class="edge">
<title>Node21&#45;&gt;Node22</title>
<g id="a_edge35_Node000021_Node000022"><a xlink:title=" ">
<path fill="none" stroke="#63b8ff" d="M999.65,-329.98C961.84,-320.87 901.74,-306.4 860.43,-296.45"/>
<polygon fill="#63b8ff" stroke="#63b8ff" points="861.17,-293.02 850.62,-294.08 859.53,-299.83 861.17,-293.02"/>
</a>
</g>
</g>
<!-- Node28 -->
<g id="Node000028" class="node">
<title>Node28</title>
<g id="a_Node000028"><a xlink:href="../../d9/d98/TeensyUSBTypes_8hpp.html" target="_top" xlink:title=" ">
<polygon fill="white" stroke="#666666" points="1121.5,-294 948.5,-294 948.5,-275 1121.5,-275 1121.5,-294"/>
<text text-anchor="middle" x="1035" y="-282" font-family="Helvetica,sans-Serif" font-size="10.00">AH/Teensy/TeensyUSBTypes.hpp</text>
</a>
</g>
</g>
<!-- Node21&#45;&gt;Node28 -->
<g id="edge43_Node000021_Node000028" class="edge">
<title>Node21&#45;&gt;Node28</title>
<g id="a_edge43_Node000021_Node000028"><a xlink:title=" ">
<path fill="none" stroke="#63b8ff" d="M1035,-329.75C1035,-322.8 1035,-312.85 1035,-304.13"/>
<polygon fill="#63b8ff" stroke="#63b8ff" points="1038.5,-304.09 1035,-294.09 1031.5,-304.09 1038.5,-304.09"/>
</a>
</g>
</g>
<!-- Node23 -->
<g id="Node000023" class="node">
<title>Node23</title>
<g id="a_Node000023"><a xlink:href="../../dc/d50/Frequency_8hpp.html" target="_top" xlink:title=" ">
<polygon fill="white" stroke="#666666" points="910,-184 776,-184 776,-165 910,-165 910,-184"/>
<text text-anchor="middle" x="843" y="-172" font-family="Helvetica,sans-Serif" font-size="10.00">AH/Types/Frequency.hpp</text>
</a>
</g>
</g>
<!-- Node22&#45;&gt;Node23 -->
<g id="edge36_Node000022_Node000023" class="edge">
<title>Node22&#45;&gt;Node23</title>
<g id="a_edge36_Node000022_Node000023"><a xlink:title=" ">
<path fill="none" stroke="#63b8ff" d="M811.91,-274.61C808.05,-262.08 802.68,-238.67 809,-220 812.56,-209.47 819.72,-199.48 826.55,-191.63"/>
<polygon fill="#63b8ff" stroke="#63b8ff" points="829.13,-194.01 833.39,-184.31 824.01,-189.23 829.13,-194.01"/>
</a>
</g>
</g>
<!-- Node24 -->
<g id="Node000024" class="node">
<title>Node24</title>
<g id="a_Node000024"><a xlink:href="../../d7/d7c/ADCConfig_8hpp.html" target="_top" xlink:title="This file contains the platform&#45;specific ADC resolutions.">
<polygon fill="white" stroke="#666666" points="605.5,-239 448.5,-239 448.5,-220 605.5,-220 605.5,-239"/>
<text text-anchor="middle" x="527" y="-227" font-family="Helvetica,sans-Serif" font-size="10.00">AH/Hardware/ADCConfig.hpp</text>
</a>
</g>
</g>
<!-- Node22&#45;&gt;Node24 -->
<g id="edge38_Node000022_Node000024" class="edge">
<title>Node22&#45;&gt;Node24</title>
<g id="a_edge38_Node000022_Node000024"><a xlink:title=" ">
<path fill="none" stroke="#63b8ff" d="M776.46,-276.41C726.86,-267.28 640.32,-251.35 583.34,-240.87"/>
<polygon fill="#63b8ff" stroke="#63b8ff" points="583.88,-237.41 573.41,-239.04 582.61,-244.29 583.88,-237.41"/>
</a>
</g>
</g>
<!-- Node25 -->
<g id="Node000025" class="node">
<title>Node25</title>
<g id="a_Node000025"><a xlink:title=" ">
<polygon fill="#e0e0e0" stroke="#999999" points="870.5,-239 817.5,-239 817.5,-220 870.5,-220 870.5,-239"/>
<text text-anchor="middle" x="844" y="-227" font-family="Helvetica,sans-Serif" font-size="10.00">limits.h</text>
</a>
</g>
</g>
<!-- Node22&#45;&gt;Node25 -->
<g id="edge40_Node000022_Node000025" class="edge">
<title>Node22&#45;&gt;Node25</title>
<g id="a_edge40_Node000022_Node000025"><a xlink:title=" ">
<path fill="none" stroke="#63b8ff" d="M819.79,-274.75C823.76,-267.49 829.53,-256.95 834.43,-247.98"/>
<polygon fill="#63b8ff" stroke="#63b8ff" points="837.57,-249.54 839.3,-239.09 831.43,-246.18 837.57,-249.54"/>
</a>
</g>
</g>
<!-- Node22&#45;&gt;Node26 -->
<g id="edge41_Node000022_Node000026" class="edge">
<title>Node22&#45;&gt;Node26</title>
<g id="a_edge41_Node000022_Node000026"><a xlink:title=" ">
<path fill="none" stroke="#63b8ff" d="M831.39,-274.98C847.57,-266.57 872.57,-253.59 891.38,-243.81"/>
<polygon fill="#63b8ff" stroke="#63b8ff" points="893.05,-246.89 900.31,-239.17 889.83,-240.68 893.05,-246.89"/>
</a>
</g>
</g>
<!-- Node22&#45;&gt;Node27 -->
<g id="edge42_Node000022_Node000027" class="edge">
<title>Node22&#45;&gt;Node27</title>
<g id="a_edge42_Node000022_Node000027"><a xlink:title=" ">
<path fill="none" stroke="#63b8ff" d="M853.57,-278.84C937.36,-268.73 1135.03,-244.86 1217.19,-234.94"/>
<polygon fill="#63b8ff" stroke="#63b8ff" points="1217.8,-238.4 1227.31,-233.72 1216.96,-231.45 1217.8,-238.4"/>
</a>
</g>
</g>
<!-- Node23&#45;&gt;Node8 -->
<g id="edge37_Node000023_Node000008" class="edge">
<title>Node23&#45;&gt;Node8</title>
<g id="a_edge37_Node000023_Node000008"><a xlink:title=" ">
<path fill="none" stroke="#63b8ff" d="M833.51,-164.99C818.85,-152.11 789.52,-127.33 762,-110 742.71,-97.85 719.64,-86.5 701.69,-78.31"/>
<polygon fill="#63b8ff" stroke="#63b8ff" points="702.85,-74.99 692.3,-74.09 699.99,-81.38 702.85,-74.99"/>
</a>
</g>
</g>
<!-- Node24&#45;&gt;Node3 -->
<g id="edge39_Node000024_Node000003" class="edge">
<title>Node24&#45;&gt;Node3</title>
<g id="a_edge39_Node000024_Node000003"><a xlink:title=" ">
<path fill="none" stroke="#63b8ff" d="M480.89,-219.98C430.72,-210.72 350.49,-195.9 296.56,-185.94"/>
<polygon fill="#63b8ff" stroke="#63b8ff" points="296.94,-182.46 286.47,-184.08 295.67,-189.34 296.94,-182.46"/>
</a>
</g>
</g>
<!-- Node31&#45;&gt;Node3 -->
<g id="edge60_Node000031_Node000003" class="edge">
<title>Node31&#45;&gt;Node3</title>
<g id="a_edge60_Node000031_Node000003"><a xlink:title=" ">
<path fill="none" stroke="#63b8ff" d="M530.92,-617.13C500.75,-609.17 464.58,-597.14 435,-580 374.13,-544.73 344,-520.84 344,-450.5 344,-450.5 344,-450.5 344,-338.5 344,-275.6 288.28,-217.45 258.41,-190.8"/>
<polygon fill="#63b8ff" stroke="#63b8ff" points="260.58,-188.05 250.74,-184.14 255.99,-193.34 260.58,-188.05"/>
</a>
</g>
</g>
<!-- Node31&#45;&gt;Node9 -->
<g id="edge61_Node000031_Node000009" class="edge">
<title>Node31&#45;&gt;Node9</title>
<g id="a_edge61_Node000031_Node000009"><a xlink:title=" ">
<path fill="none" stroke="#63b8ff" d="M596.81,-615.73C599.96,-605.83 603.86,-592.25 606,-580 633.59,-422.35 640.4,-378.02 615,-220 610.39,-191.35 601.52,-158.86 595.68,-139.03"/>
<polygon fill="#63b8ff" stroke="#63b8ff" points="598.95,-137.75 592.72,-129.18 592.25,-139.76 598.95,-137.75"/>
</a>
</g>
</g>
<!-- Node31&#45;&gt;Node32 -->
<g id="edge50_Node000031_Node000032" class="edge">
<title>Node31&#45;&gt;Node32</title>
<g id="a_edge50_Node000031_Node000032"><a xlink:title=" ">
<path fill="none" stroke="#63b8ff" d="M632.16,-615.95C659.57,-606.37 696.08,-593.6 725.32,-583.37"/>
<polygon fill="#63b8ff" stroke="#63b8ff" points="726.65,-586.62 734.93,-580.01 724.34,-580.01 726.65,-586.62"/>
</a>
</g>
</g>
<!-- Node34 -->
<g id="Node000034" class="node">
<title>Node34</title>
<g id="a_Node000034"><a xlink:href="../../d0/db1/FunctionTraits_8hpp.html" target="_top" xlink:title=" ">
<polygon fill="white" stroke="#666666" points="596.5,-574.5 443.5,-574.5 443.5,-555.5 596.5,-555.5 596.5,-574.5"/>
<text text-anchor="middle" x="520" y="-562.5" font-family="Helvetica,sans-Serif" font-size="10.00">AH/Types/FunctionTraits.hpp</text>
</a>
</g>
</g>
<!-- Node31&#45;&gt;Node34 -->
<g id="edge56_Node000031_Node000034" class="edge">
<title>Node31&#45;&gt;Node34</title>
<g id="a_edge56_Node000031_Node000034"><a xlink:title=" ">
<path fill="none" stroke="#63b8ff" d="M576.02,-615.8C564.69,-605.72 549.47,-592.19 537.75,-581.78"/>
<polygon fill="#63b8ff" stroke="#63b8ff" points="539.75,-578.87 529.95,-574.84 535.1,-584.1 539.75,-578.87"/>
</a>
</g>
</g>
<!-- Node32&#45;&gt;Node8 -->
<g id="edge54_Node000032_Node000008" class="edge">
<title>Node32&#45;&gt;Node8</title>
<g id="a_edge54_Node000032_Node000008"><a xlink:title=" ">
<path fill="none" stroke="#63b8ff" d="M773.55,-549.86C767.94,-494.77 748,-294.4 748,-230.5 748,-230.5 748,-230.5 748,-173.5 748,-134.47 714.39,-99.58 691.87,-80.6"/>
<polygon fill="#63b8ff" stroke="#63b8ff" points="693.85,-77.7 683.88,-74.12 689.44,-83.14 693.85,-77.7"/>
</a>
</g>
</g>
<!-- Node32&#45;&gt;Node10 -->
<g id="edge52_Node000032_Node000010" class="edge">
<title>Node32&#45;&gt;Node10</title>
<g id="a_edge52_Node000032_Node000010"><a xlink:title=" ">
<path fill="none" stroke="#63b8ff" d="M771.31,-549.84C766.92,-534.98 758.42,-511.53 745,-495 715.81,-459.06 599.57,-385.22 549.81,-354.44"/>
<polygon fill="#63b8ff" stroke="#63b8ff" points="551.4,-351.32 541.05,-349.05 547.73,-357.28 551.4,-351.32"/>
</a>
</g>
</g>
<!-- Node32&#45;&gt;Node18 -->
<g id="edge51_Node000032_Node000018" class="edge">
<title>Node32&#45;&gt;Node18</title>
<g id="a_edge51_Node000032_Node000018"><a xlink:title=" ">
<path fill="none" stroke="#63b8ff" d="M823.14,-549.99C857.98,-539.85 904.47,-526.32 936.99,-516.85"/>
<polygon fill="#63b8ff" stroke="#63b8ff" points="937.99,-520.21 946.61,-514.05 936.03,-513.49 937.99,-520.21"/>
</a>
</g>
</g>
<!-- Node32&#45;&gt;Node27 -->
<g id="edge55_Node000032_Node000027" class="edge">
<title>Node32&#45;&gt;Node27</title>
<g id="a_edge55_Node000032_Node000027"><a xlink:title=" ">
<path fill="none" stroke="#63b8ff" d="M840.6,-562.06C971.78,-556.4 1254,-534.47 1254,-450.5 1254,-450.5 1254,-450.5 1254,-338.5 1254,-307.19 1254,-270.77 1254,-249.23"/>
<polygon fill="#63b8ff" stroke="#63b8ff" points="1257.5,-249.18 1254,-239.18 1250.5,-249.18 1257.5,-249.18"/>
</a>
</g>
</g>
<!-- Node32&#45;&gt;Node33 -->
<g id="edge53_Node000032_Node000033" class="edge">
<title>Node32&#45;&gt;Node33</title>
<g id="a_edge53_Node000032_Node000033"><a xlink:title=" ">
<path fill="none" stroke="#63b8ff" d="M755.63,-549.84C743.43,-540.91 727.69,-529.41 715.31,-520.35"/>
<polygon fill="#63b8ff" stroke="#63b8ff" points="717.13,-517.34 706.99,-514.27 712.99,-522.99 717.13,-517.34"/>
</a>
</g>
</g>
<!-- Node34&#45;&gt;Node8 -->
<g id="edge59_Node000034_Node000008" class="edge">
<title>Node34&#45;&gt;Node8</title>
<g id="a_edge59_Node000034_Node000008"><a xlink:title=" ">
<path fill="none" stroke="#63b8ff" d="M533.55,-555.46C551.17,-543.18 578.62,-519.32 569,-495 536.26,-412.26 468.87,-429.98 432,-349 410.06,-300.82 420,-283.44 420,-230.5 420,-230.5 420,-230.5 420,-173.5 420,-106.7 495.74,-80.68 564.18,-70.81"/>
<polygon fill="#63b8ff" stroke="#63b8ff" points="564.76,-74.26 574.21,-69.47 563.83,-67.32 564.76,-74.26"/>
</a>
</g>
</g>
<!-- Node34&#45;&gt;Node12 -->
<g id="edge57_Node000034_Node000012" class="edge">
<title>Node34&#45;&gt;Node12</title>
<g id="a_edge57_Node000034_Node000012"><a xlink:title=" ">
<path fill="none" stroke="#63b8ff" d="M504.8,-555.37C487.99,-545.82 460.68,-530.31 440.98,-519.12"/>
<polygon fill="#63b8ff" stroke="#63b8ff" points="442.68,-516.06 432.26,-514.17 439.23,-522.15 442.68,-516.06"/>
</a>
</g>
</g>
<!-- Node35 -->
<g id="Node000035" class="node">
<title>Node35</title>
<g id="a_Node000035"><a xlink:title=" ">
<polygon fill="#e0e0e0" stroke="#999999" points="559.5,-514 480.5,-514 480.5,-495 559.5,-495 559.5,-514"/>
<text text-anchor="middle" x="520" y="-502" font-family="Helvetica,sans-Serif" font-size="10.00">AH/STL/tuple</text>
</a>
</g>
</g>
<!-- Node34&#45;&gt;Node35 -->
<g id="edge58_Node000034_Node000035" class="edge">
<title>Node34&#45;&gt;Node35</title>
<g id="a_edge58_Node000034_Node000035"><a xlink:title=" ">
<path fill="none" stroke="#63b8ff" d="M520,-555.37C520,-547.25 520,-534.81 520,-524.39"/>
<polygon fill="#63b8ff" stroke="#63b8ff" points="523.5,-524.17 520,-514.17 516.5,-524.17 523.5,-524.17"/>
</a>
</g>
</g>
</g>
</svg>
