<?xml version="1.0" encoding="UTF-8" standalone="no"?>
<!DOCTYPE svg PUBLIC "-//W3C//DTD SVG 1.1//EN"
 "http://www.w3.org/Graphics/SVG/1.1/DTD/svg11.dtd">
<!-- Generated by graphviz version 2.43.0 (0)
 -->
<!-- Title: MIDIButtonLatching&lt; BankAddress, Sender &gt; Pages: 1 -->
<svg width="155pt" height="630pt"
 viewBox="0.00 0.00 155.00 630.00" xmlns="http://www.w3.org/2000/svg" xmlns:xlink="http://www.w3.org/1999/xlink">
<g id="graph0" class="graph" transform="scale(1 1) rotate(0) translate(4 626)">
<title>MIDIButtonLatching&lt; BankAddress, Sender &gt;</title>
<!-- Node1 -->
<g id="Node000001" class="node">
<title>Node1</title>
<g id="a_Node000001"><a xlink:title="A class for latching buttons and switches that send MIDI events.">
<polygon fill="#999999" stroke="transparent" points="142,-135 5,-135 5,0 142,0 142,-135"/>
<text text-anchor="start" x="10.5" y="-122.5" font-family="Helvetica,sans-Serif" font-size="10.00">MIDIButtonLatching</text>
<text text-anchor="start" x="10.5" y="-111.5" font-family="Helvetica,sans-Serif" font-size="10.00">&lt; BankAddress, Sender &gt;</text>
<text text-anchor="start" x="12.5" y="-96.5" font-family="Helvetica,sans-Serif" font-size="10.00">+</text>
<text text-anchor="start" x="28.5" y="-96.5" font-family="Helvetica,sans-Serif" font-size="10.00">sender</text>
<text text-anchor="start" x="12.5" y="-81.5" font-family="Helvetica,sans-Serif" font-size="10.00">#</text>
<text text-anchor="start" x="28.5" y="-81.5" font-family="Helvetica,sans-Serif" font-size="10.00">address</text>
<text text-anchor="start" x="12.5" y="-66.5" font-family="Helvetica,sans-Serif" font-size="10.00">#</text>
<text text-anchor="start" x="28.5" y="-66.5" font-family="Helvetica,sans-Serif" font-size="10.00">button</text>
<text text-anchor="start" x="12.5" y="-51.5" font-family="Helvetica,sans-Serif" font-size="10.00">+</text>
<text text-anchor="start" x="28.5" y="-51.5" font-family="Helvetica,sans-Serif" font-size="10.00">begin()</text>
<text text-anchor="start" x="12.5" y="-36.5" font-family="Helvetica,sans-Serif" font-size="10.00">+</text>
<text text-anchor="start" x="28.5" y="-36.5" font-family="Helvetica,sans-Serif" font-size="10.00">update()</text>
<text text-anchor="start" x="12.5" y="-21.5" font-family="Helvetica,sans-Serif" font-size="10.00">+</text>
<text text-anchor="start" x="28.5" y="-21.5" font-family="Helvetica,sans-Serif" font-size="10.00">getButtonState()</text>
<text text-anchor="start" x="12.5" y="-6.5" font-family="Helvetica,sans-Serif" font-size="10.00">#</text>
<text text-anchor="start" x="28.5" y="-6.5" font-family="Helvetica,sans-Serif" font-size="10.00">MIDIButtonLatching()</text>
<polygon fill="#666666" stroke="#666666" points="5.5,-106.5 5.5,-106.5 142.5,-106.5 142.5,-106.5 5.5,-106.5"/>
<polygon fill="#666666" stroke="#666666" points="5.5,-61.5 5.5,-61.5 26.5,-61.5 26.5,-61.5 5.5,-61.5"/>
<polygon fill="#666666" stroke="#666666" points="26.5,-61.5 26.5,-61.5 142.5,-61.5 142.5,-61.5 26.5,-61.5"/>
<polygon fill="none" stroke="#666666" points="5,0 5,-135 142,-135 142,0 5,0"/>
</a>
</g>
</g>
<!-- Node2 -->
<g id="Node000002" class="node">
<title>Node2</title>
<g id="a_Node000002"><a xlink:href="../../d1/d55/classAH_1_1Updatable.html" target="_top" xlink:title="A super class for object that have to be updated regularly.">
<polygon fill="white" stroke="transparent" points="127,-265 20,-265 20,-171 127,-171 127,-265"/>
<text text-anchor="start" x="25.5" y="-253" font-family="Helvetica,sans-Serif" font-size="10.00">MIDIOutputElement</text>
<text text-anchor="start" x="72" y="-238" font-family="Helvetica,sans-Serif" font-size="10.00"> </text>
<text text-anchor="start" x="33" y="-223" font-family="Helvetica,sans-Serif" font-size="10.00">*</text>
<text text-anchor="start" x="51.5" y="-223" font-family="Helvetica,sans-Serif" font-size="10.00">begin()</text>
<text text-anchor="start" x="33" y="-208" font-family="Helvetica,sans-Serif" font-size="10.00">*</text>
<text text-anchor="start" x="51.5" y="-208" font-family="Helvetica,sans-Serif" font-size="10.00">update()</text>
<text text-anchor="start" x="33" y="-193" font-family="Helvetica,sans-Serif" font-size="10.00">*</text>
<text text-anchor="start" x="51.5" y="-193" font-family="Helvetica,sans-Serif" font-size="10.00">beginAll()</text>
<text text-anchor="start" x="33" y="-178" font-family="Helvetica,sans-Serif" font-size="10.00">*</text>
<text text-anchor="start" x="51.5" y="-178" font-family="Helvetica,sans-Serif" font-size="10.00">updateAll()</text>
<polygon fill="#666666" stroke="#666666" points="20.5,-248 20.5,-248 127.5,-248 127.5,-248 20.5,-248"/>
<polygon fill="#666666" stroke="#666666" points="20.5,-233 20.5,-233 127.5,-233 127.5,-233 20.5,-233"/>
<polygon fill="none" stroke="#666666" points="20,-171 20,-265 127,-265 127,-171 20,-171"/>
</a>
</g>
</g>
<!-- Node2&#45;&gt;Node1 -->
<g id="edge1_Node000001_Node000002" class="edge">
<title>Node2&#45;&gt;Node1</title>
<g id="a_edge1_Node000001_Node000002"><a xlink:title=" ">
<path fill="none" stroke="#63b8ff" d="M73.5,-160.78C73.5,-152.39 73.5,-143.67 73.5,-135.09"/>
<polygon fill="none" stroke="#63b8ff" points="70,-160.83 73.5,-170.83 77,-160.83 70,-160.83"/>
</a>
</g>
</g>
<!-- Node3 -->
<g id="Node000003" class="node">
<title>Node3</title>
<g id="a_Node000003"><a xlink:href="../../d8/d1a/classAH_1_1UpdatableCRTP.html" target="_top" xlink:title=" ">
<polygon fill="white" stroke="transparent" points="147,-481 0,-481 0,-301 147,-301 147,-481"/>
<text text-anchor="start" x="5.5" y="-469" font-family="Helvetica,sans-Serif" font-size="10.00">UpdatableCRTP&lt; Updatable</text>
<text text-anchor="start" x="13.5" y="-458" font-family="Helvetica,sans-Serif" font-size="10.00">&lt; NormalUpdatable &gt; &gt;</text>
<text text-anchor="start" x="13" y="-443" font-family="Helvetica,sans-Serif" font-size="10.00">#</text>
<text text-anchor="start" x="34.5" y="-443" font-family="Helvetica,sans-Serif" font-size="10.00">next</text>
<text text-anchor="start" x="13" y="-428" font-family="Helvetica,sans-Serif" font-size="10.00">#</text>
<text text-anchor="start" x="34.5" y="-428" font-family="Helvetica,sans-Serif" font-size="10.00">previous</text>
<text text-anchor="start" x="13" y="-413" font-family="Helvetica,sans-Serif" font-size="10.00">#</text>
<text text-anchor="start" x="34.5" y="-413" font-family="Helvetica,sans-Serif" font-size="10.00">updatables</text>
<text text-anchor="start" x="13" y="-398" font-family="Helvetica,sans-Serif" font-size="10.00">+</text>
<text text-anchor="start" x="34.5" y="-398" font-family="Helvetica,sans-Serif" font-size="10.00">~UpdatableCRTP()</text>
<text text-anchor="start" x="13" y="-383" font-family="Helvetica,sans-Serif" font-size="10.00">#</text>
<text text-anchor="start" x="34.5" y="-383" font-family="Helvetica,sans-Serif" font-size="10.00">UpdatableCRTP()</text>
<text text-anchor="start" x="13" y="-368" font-family="Helvetica,sans-Serif" font-size="10.00">#</text>
<text text-anchor="start" x="34.5" y="-368" font-family="Helvetica,sans-Serif" font-size="10.00">operator=()</text>
<text text-anchor="start" x="14.5" y="-353" font-family="Helvetica,sans-Serif" font-size="10.00">*</text>
<text text-anchor="start" x="34.5" y="-353" font-family="Helvetica,sans-Serif" font-size="10.00">enable()</text>
<text text-anchor="start" x="14.5" y="-338" font-family="Helvetica,sans-Serif" font-size="10.00">*</text>
<text text-anchor="start" x="34.5" y="-338" font-family="Helvetica,sans-Serif" font-size="10.00">disable()</text>
<text text-anchor="start" x="14.5" y="-323" font-family="Helvetica,sans-Serif" font-size="10.00">*</text>
<text text-anchor="start" x="34.5" y="-323" font-family="Helvetica,sans-Serif" font-size="10.00">isEnabled()</text>
<text text-anchor="start" x="14.5" y="-308" font-family="Helvetica,sans-Serif" font-size="10.00">*</text>
<text text-anchor="start" x="34.5" y="-308" font-family="Helvetica,sans-Serif" font-size="10.00">moveDown()</text>
<polygon fill="#666666" stroke="#666666" points="0.5,-453 0.5,-453 147.5,-453 147.5,-453 0.5,-453"/>
<polygon fill="#666666" stroke="#666666" points="0.5,-408 0.5,-408 32.5,-408 32.5,-408 0.5,-408"/>
<polygon fill="#666666" stroke="#666666" points="32.5,-408 32.5,-408 147.5,-408 147.5,-408 32.5,-408"/>
<polygon fill="none" stroke="#666666" points="0,-301 0,-481 147,-481 147,-301 0,-301"/>
</a>
</g>
</g>
<!-- Node3&#45;&gt;Node2 -->
<g id="edge2_Node000002_Node000003" class="edge">
<title>Node3&#45;&gt;Node2</title>
<g id="a_edge2_Node000002_Node000003"><a xlink:title=" ">
<path fill="none" stroke="#63b8ff" d="M73.5,-290.92C73.5,-282.05 73.5,-273.38 73.5,-265.31"/>
<polygon fill="none" stroke="#63b8ff" points="70,-290.99 73.5,-300.99 77,-290.99 70,-290.99"/>
</a>
</g>
</g>
<!-- Node4 -->
<g id="Node000004" class="node">
<title>Node4</title>
<g id="a_Node000004"><a xlink:href="../../d4/d23/classDoublyLinkable.html" target="_top" xlink:title=" ">
<polygon fill="white" stroke="transparent" points="147,-622 0,-622 0,-517 147,-517 147,-622"/>
<text text-anchor="start" x="5.5" y="-609.5" font-family="Helvetica,sans-Serif" font-size="10.00">DoublyLinkable&lt; Updatable</text>
<text text-anchor="start" x="13.5" y="-598.5" font-family="Helvetica,sans-Serif" font-size="10.00">&lt; NormalUpdatable &gt; &gt;</text>
<text text-anchor="start" x="13" y="-583.5" font-family="Helvetica,sans-Serif" font-size="10.00">#</text>
<text text-anchor="start" x="34.5" y="-583.5" font-family="Helvetica,sans-Serif" font-size="10.00">next</text>
<text text-anchor="start" x="13" y="-568.5" font-family="Helvetica,sans-Serif" font-size="10.00">#</text>
<text text-anchor="start" x="34.5" y="-568.5" font-family="Helvetica,sans-Serif" font-size="10.00">previous</text>
<text text-anchor="start" x="13" y="-553.5" font-family="Helvetica,sans-Serif" font-size="10.00">#</text>
<text text-anchor="start" x="34.5" y="-553.5" font-family="Helvetica,sans-Serif" font-size="10.00">~DoublyLinkable()</text>
<text text-anchor="start" x="13" y="-538.5" font-family="Helvetica,sans-Serif" font-size="10.00">#</text>
<text text-anchor="start" x="34.5" y="-538.5" font-family="Helvetica,sans-Serif" font-size="10.00">DoublyLinkable()</text>
<text text-anchor="start" x="13" y="-523.5" font-family="Helvetica,sans-Serif" font-size="10.00">#</text>
<text text-anchor="start" x="34.5" y="-523.5" font-family="Helvetica,sans-Serif" font-size="10.00">operator=()</text>
<polygon fill="#666666" stroke="#666666" points="0.5,-593.5 0.5,-593.5 147.5,-593.5 147.5,-593.5 0.5,-593.5"/>
<polygon fill="#666666" stroke="#666666" points="0.5,-563.5 0.5,-563.5 32.5,-563.5 32.5,-563.5 0.5,-563.5"/>
<polygon fill="#666666" stroke="#666666" points="32.5,-563.5 32.5,-563.5 147.5,-563.5 147.5,-563.5 32.5,-563.5"/>
<polygon fill="none" stroke="#666666" points="0,-517 0,-622 147,-622 147,-517 0,-517"/>
</a>
</g>
</g>
<!-- Node4&#45;&gt;Node3 -->
<g id="edge3_Node000003_Node000004" class="edge">
<title>Node4&#45;&gt;Node3</title>
<g id="a_edge3_Node000003_Node000004"><a xlink:title=" ">
<path fill="none" stroke="#63b8ff" d="M73.5,-506.96C73.5,-498.58 73.5,-489.86 73.5,-481.12"/>
<polygon fill="none" stroke="#63b8ff" points="70,-506.97 73.5,-516.97 77,-506.97 70,-506.97"/>
</a>
</g>
</g>
</g>
</svg>
