<?xml version="1.0" encoding="UTF-8" standalone="no"?>
<!DOCTYPE svg PUBLIC "-//W3C//DTD SVG 1.1//EN"
 "http://www.w3.org/Graphics/SVG/1.1/DTD/svg11.dtd">
<!-- Generated by graphviz version 2.38.0 (20140413.2041)
 -->
<!-- Title: CCPotentiometer Pages: 1 -->
<svg width="772pt" height="1297pt"
 viewBox="0.00 0.00 772.00 1297.00" xmlns="http://www.w3.org/2000/svg" xmlns:xlink="http://www.w3.org/1999/xlink">
<g id="graph0" class="graph" transform="scale(1 1) rotate(0) translate(4 1293)">
<title>CCPotentiometer</title>
<polygon fill="white" stroke="none" points="-4,4 -4,-1293 768,-1293 768,4 -4,4"/>
<!-- Node1 -->
<g id="node1" class="node"><title>Node1</title>
<g id="a_node1"><a xlink:title="A class of MIDIOutputElements that read the analog input from a potentiometer or fader,...">
<polygon fill="#bfbfbf" stroke="black" points="214,-0.5 214,-57.5 321,-57.5 321,-0.5 214,-0.5"/>
<text text-anchor="middle" x="267.5" y="-45.5" font-family="Helvetica,sans-Serif" font-size="10.00">CCPotentiometer</text>
<polyline fill="none" stroke="black" points="214,-38.5 321,-38.5 "/>
<text text-anchor="middle" x="267.5" y="-26.5" font-family="Helvetica,sans-Serif" font-size="10.00"> </text>
<polyline fill="none" stroke="black" points="214,-19.5 321,-19.5 "/>
<text text-anchor="start" x="222" y="-7.5" font-family="Helvetica,sans-Serif" font-size="10.00">+ CCPotentiometer()</text>
</a>
</g>
</g>
<!-- Node2 -->
<g id="node2" class="node"><title>Node2</title>
<g id="a_node2"><a xlink:href="../../d0/dd2/classMIDIFilteredAnalogAddressable.html" target="_top" xlink:title=" ">
<polygon fill="white" stroke="black" points="183,-95.5 183,-229.5 352,-229.5 352,-95.5 183,-95.5"/>
<text text-anchor="start" x="191" y="-217.5" font-family="Helvetica,sans-Serif" font-size="10.00">MIDIFilteredAnalogAddressable</text>
<text text-anchor="middle" x="267.5" y="-206.5" font-family="Helvetica,sans-Serif" font-size="10.00">&lt; ContinuousCCSender &gt;</text>
<polyline fill="none" stroke="black" points="183,-199.5 352,-199.5 "/>
<text text-anchor="middle" x="267.5" y="-187.5" font-family="Helvetica,sans-Serif" font-size="10.00"> </text>
<polyline fill="none" stroke="black" points="183,-180.5 352,-180.5 "/>
<text text-anchor="start" x="191" y="-168.5" font-family="Helvetica,sans-Serif" font-size="10.00">+ begin()</text>
<text text-anchor="start" x="191" y="-157.5" font-family="Helvetica,sans-Serif" font-size="10.00">+ update()</text>
<text text-anchor="start" x="191" y="-146.5" font-family="Helvetica,sans-Serif" font-size="10.00">+ map()</text>
<text text-anchor="start" x="191" y="-135.5" font-family="Helvetica,sans-Serif" font-size="10.00">+ invert()</text>
<text text-anchor="start" x="191" y="-124.5" font-family="Helvetica,sans-Serif" font-size="10.00">+ getRawValue()</text>
<text text-anchor="start" x="191" y="-113.5" font-family="Helvetica,sans-Serif" font-size="10.00">+ getValue()</text>
<text text-anchor="start" x="191" y="-102.5" font-family="Helvetica,sans-Serif" font-size="10.00"># MIDIFilteredAnalogAddressable()</text>
</a>
</g>
</g>
<!-- Node2&#45;&gt;Node1 -->
<g id="edge1" class="edge"><title>Node2&#45;&gt;Node1</title>
<path fill="none" stroke="midnightblue" d="M267.5,-85.1172C267.5,-75.3593 267.5,-65.9224 267.5,-57.697"/>
<polygon fill="none" stroke="midnightblue" points="264,-85.3647 267.5,-95.3647 271,-85.3648 264,-85.3647"/>
</g>
<!-- Node3 -->
<g id="node3" class="node"><title>Node3</title>
<g id="a_node3"><a xlink:href="../../d1/d55/classAH_1_1Updatable.html" target="_top" xlink:title=" ">
<polygon fill="white" stroke="black" points="3.5,-305 3.5,-516 107.5,-516 107.5,-305 3.5,-305"/>
<text text-anchor="middle" x="55.5" y="-504" font-family="Helvetica,sans-Serif" font-size="10.00">MIDIOutputElement</text>
<polyline fill="none" stroke="black" points="3.5,-497 107.5,-497 "/>
<text text-anchor="middle" x="55.5" y="-485" font-family="Helvetica,sans-Serif" font-size="10.00"> </text>
<polyline fill="none" stroke="black" points="3.5,-478 107.5,-478 "/>
<text text-anchor="start" x="11.5" y="-466" font-family="Helvetica,sans-Serif" font-size="10.00">+ ~Updatable()</text>
<text text-anchor="start" x="11.5" y="-455" font-family="Helvetica,sans-Serif" font-size="10.00">+ update()</text>
<text text-anchor="start" x="11.5" y="-444" font-family="Helvetica,sans-Serif" font-size="10.00">+ begin()</text>
<text text-anchor="start" x="11.5" y="-433" font-family="Helvetica,sans-Serif" font-size="10.00">+ enable()</text>
<text text-anchor="start" x="11.5" y="-422" font-family="Helvetica,sans-Serif" font-size="10.00">+ disable()</text>
<text text-anchor="start" x="11.5" y="-411" font-family="Helvetica,sans-Serif" font-size="10.00">+ isEnabled()</text>
<text text-anchor="start" x="11.5" y="-400" font-family="Helvetica,sans-Serif" font-size="10.00">+ enable()</text>
<text text-anchor="start" x="11.5" y="-389" font-family="Helvetica,sans-Serif" font-size="10.00">+ enable()</text>
<text text-anchor="start" x="11.5" y="-378" font-family="Helvetica,sans-Serif" font-size="10.00">+ enable()</text>
<text text-anchor="start" x="11.5" y="-367" font-family="Helvetica,sans-Serif" font-size="10.00">+ disable()</text>
<text text-anchor="start" x="11.5" y="-356" font-family="Helvetica,sans-Serif" font-size="10.00">+ disable()</text>
<text text-anchor="start" x="11.5" y="-345" font-family="Helvetica,sans-Serif" font-size="10.00">+ disable()</text>
<text text-anchor="start" x="11.5" y="-334" font-family="Helvetica,sans-Serif" font-size="10.00">+ beginAll()</text>
<text text-anchor="start" x="11.5" y="-323" font-family="Helvetica,sans-Serif" font-size="10.00">+ updateAll()</text>
<text text-anchor="start" x="11.5" y="-312" font-family="Helvetica,sans-Serif" font-size="10.00"># Updatable()</text>
</a>
</g>
</g>
<!-- Node3&#45;&gt;Node2 -->
<g id="edge2" class="edge"><title>Node3&#45;&gt;Node2</title>
<path fill="none" stroke="midnightblue" d="M102.784,-296.244C107.065,-289.508 111.637,-283.028 116.5,-277 135.033,-254.028 159.198,-233.18 182.744,-215.802"/>
<polygon fill="none" stroke="midnightblue" points="99.725,-294.538 97.5169,-304.9 105.705,-298.176 99.725,-294.538"/>
</g>
<!-- Node4 -->
<g id="node4" class="node"><title>Node4</title>
<g id="a_node4"><a xlink:href="../../d4/d23/classDoublyLinkable.html" target="_top" xlink:title=" ">
<polygon fill="white" stroke="black" points="0,-1209.5 0,-1288.5 137,-1288.5 137,-1209.5 0,-1209.5"/>
<text text-anchor="start" x="8" y="-1276.5" font-family="Helvetica,sans-Serif" font-size="10.00">DoublyLinkable&lt; Updatable</text>
<text text-anchor="middle" x="68.5" y="-1265.5" font-family="Helvetica,sans-Serif" font-size="10.00">&lt; NormalUpdatable &gt; &gt;</text>
<polyline fill="none" stroke="black" points="0,-1258.5 137,-1258.5 "/>
<text text-anchor="start" x="8" y="-1246.5" font-family="Helvetica,sans-Serif" font-size="10.00"># next</text>
<text text-anchor="start" x="8" y="-1235.5" font-family="Helvetica,sans-Serif" font-size="10.00"># previous</text>
<polyline fill="none" stroke="black" points="0,-1228.5 137,-1228.5 "/>
<text text-anchor="start" x="8" y="-1216.5" font-family="Helvetica,sans-Serif" font-size="10.00"># ~DoublyLinkable()</text>
</a>
</g>
</g>
<!-- Node4&#45;&gt;Node3 -->
<g id="edge3" class="edge"><title>Node4&#45;&gt;Node3</title>
<path fill="none" stroke="midnightblue" d="M56.6743,-1199.22C54.9369,-1190.22 53.4233,-1180.87 52.5,-1172 25.758,-915.166 50.3424,-849.213 52.5,-591 52.7018,-566.846 53.0564,-540.866 53.4527,-516.378"/>
<polygon fill="none" stroke="midnightblue" points="53.2798,-1200.1 58.7115,-1209.19 60.138,-1198.69 53.2798,-1200.1"/>
</g>
<!-- Node6 -->
<g id="node6" class="node"><title>Node6</title>
<g id="a_node6"><a xlink:href="../../d1/d55/classAH_1_1Updatable.html" target="_top" xlink:title=" ">
<polygon fill="white" stroke="black" points="62,-960.5 62,-1171.5 237,-1171.5 237,-960.5 62,-960.5"/>
<text text-anchor="middle" x="149.5" y="-1159.5" font-family="Helvetica,sans-Serif" font-size="10.00">AH::Updatable&lt; NormalUpdatable &gt;</text>
<polyline fill="none" stroke="black" points="62,-1152.5 237,-1152.5 "/>
<text text-anchor="middle" x="149.5" y="-1140.5" font-family="Helvetica,sans-Serif" font-size="10.00"> </text>
<polyline fill="none" stroke="black" points="62,-1133.5 237,-1133.5 "/>
<text text-anchor="start" x="70" y="-1121.5" font-family="Helvetica,sans-Serif" font-size="10.00">+ ~Updatable()</text>
<text text-anchor="start" x="70" y="-1110.5" font-family="Helvetica,sans-Serif" font-size="10.00">+ update()</text>
<text text-anchor="start" x="70" y="-1099.5" font-family="Helvetica,sans-Serif" font-size="10.00">+ begin()</text>
<text text-anchor="start" x="70" y="-1088.5" font-family="Helvetica,sans-Serif" font-size="10.00">+ enable()</text>
<text text-anchor="start" x="70" y="-1077.5" font-family="Helvetica,sans-Serif" font-size="10.00">+ disable()</text>
<text text-anchor="start" x="70" y="-1066.5" font-family="Helvetica,sans-Serif" font-size="10.00">+ isEnabled()</text>
<text text-anchor="start" x="70" y="-1055.5" font-family="Helvetica,sans-Serif" font-size="10.00">+ enable()</text>
<text text-anchor="start" x="70" y="-1044.5" font-family="Helvetica,sans-Serif" font-size="10.00">+ enable()</text>
<text text-anchor="start" x="70" y="-1033.5" font-family="Helvetica,sans-Serif" font-size="10.00">+ enable()</text>
<text text-anchor="start" x="70" y="-1022.5" font-family="Helvetica,sans-Serif" font-size="10.00">+ disable()</text>
<text text-anchor="start" x="70" y="-1011.5" font-family="Helvetica,sans-Serif" font-size="10.00">+ disable()</text>
<text text-anchor="start" x="70" y="-1000.5" font-family="Helvetica,sans-Serif" font-size="10.00">+ disable()</text>
<text text-anchor="start" x="70" y="-989.5" font-family="Helvetica,sans-Serif" font-size="10.00">+ beginAll()</text>
<text text-anchor="start" x="70" y="-978.5" font-family="Helvetica,sans-Serif" font-size="10.00">+ updateAll()</text>
<text text-anchor="start" x="70" y="-967.5" font-family="Helvetica,sans-Serif" font-size="10.00"># Updatable()</text>
</a>
</g>
</g>
<!-- Node4&#45;&gt;Node6 -->
<g id="edge6" class="edge"><title>Node4&#45;&gt;Node6</title>
<path fill="none" stroke="midnightblue" d="M90.0578,-1199.83C94.0342,-1190.94 98.3251,-1181.35 102.717,-1171.54"/>
<polygon fill="none" stroke="midnightblue" points="86.7667,-1198.61 85.8765,-1209.17 93.1561,-1201.47 86.7667,-1198.61"/>
</g>
<!-- Node5 -->
<g id="node5" class="node"><title>Node5</title>
<g id="a_node5"><a xlink:href="../../dd/d16/classDoublyLinkedList.html" target="_top" xlink:title=" ">
<polygon fill="white" stroke="black" points="61.5,-591.5 61.5,-868.5 231.5,-868.5 231.5,-591.5 61.5,-591.5"/>
<text text-anchor="start" x="69.5" y="-856.5" font-family="Helvetica,sans-Serif" font-size="10.00">DoublyLinkedList&lt; AH</text>
<text text-anchor="middle" x="146.5" y="-845.5" font-family="Helvetica,sans-Serif" font-size="10.00">::Updatable&lt; NormalUpdatable &gt; &gt;</text>
<polyline fill="none" stroke="black" points="61.5,-838.5 231.5,-838.5 "/>
<text text-anchor="middle" x="146.5" y="-826.5" font-family="Helvetica,sans-Serif" font-size="10.00"> </text>
<polyline fill="none" stroke="black" points="61.5,-819.5 231.5,-819.5 "/>
<text text-anchor="start" x="69.5" y="-807.5" font-family="Helvetica,sans-Serif" font-size="10.00">+ append()</text>
<text text-anchor="start" x="69.5" y="-796.5" font-family="Helvetica,sans-Serif" font-size="10.00">+ append()</text>
<text text-anchor="start" x="69.5" y="-785.5" font-family="Helvetica,sans-Serif" font-size="10.00">+ insertBefore()</text>
<text text-anchor="start" x="69.5" y="-774.5" font-family="Helvetica,sans-Serif" font-size="10.00">+ insertBefore()</text>
<text text-anchor="start" x="69.5" y="-763.5" font-family="Helvetica,sans-Serif" font-size="10.00">+ insertSorted()</text>
<text text-anchor="start" x="69.5" y="-752.5" font-family="Helvetica,sans-Serif" font-size="10.00">+ insertSorted()</text>
<text text-anchor="start" x="69.5" y="-741.5" font-family="Helvetica,sans-Serif" font-size="10.00">+ remove()</text>
<text text-anchor="start" x="69.5" y="-730.5" font-family="Helvetica,sans-Serif" font-size="10.00">+ remove()</text>
<text text-anchor="start" x="69.5" y="-719.5" font-family="Helvetica,sans-Serif" font-size="10.00">+ moveDown()</text>
<text text-anchor="start" x="69.5" y="-708.5" font-family="Helvetica,sans-Serif" font-size="10.00">+ couldContain()</text>
<text text-anchor="start" x="69.5" y="-697.5" font-family="Helvetica,sans-Serif" font-size="10.00">+ begin()</text>
<text text-anchor="start" x="69.5" y="-686.5" font-family="Helvetica,sans-Serif" font-size="10.00">+ begin()</text>
<text text-anchor="start" x="69.5" y="-675.5" font-family="Helvetica,sans-Serif" font-size="10.00">+ end()</text>
<text text-anchor="start" x="69.5" y="-664.5" font-family="Helvetica,sans-Serif" font-size="10.00">+ end()</text>
<text text-anchor="start" x="69.5" y="-653.5" font-family="Helvetica,sans-Serif" font-size="10.00">+ rbegin()</text>
<text text-anchor="start" x="69.5" y="-642.5" font-family="Helvetica,sans-Serif" font-size="10.00">+ rbegin()</text>
<text text-anchor="start" x="69.5" y="-631.5" font-family="Helvetica,sans-Serif" font-size="10.00">+ rend()</text>
<text text-anchor="start" x="69.5" y="-620.5" font-family="Helvetica,sans-Serif" font-size="10.00">+ rend()</text>
<text text-anchor="start" x="69.5" y="-609.5" font-family="Helvetica,sans-Serif" font-size="10.00">+ getFirst()</text>
<text text-anchor="start" x="69.5" y="-598.5" font-family="Helvetica,sans-Serif" font-size="10.00">+ getLast()</text>
</a>
</g>
</g>
<!-- Node5&#45;&gt;Node3 -->
<g id="edge4" class="edge"><title>Node5&#45;&gt;Node3</title>
<path fill="none" stroke="#404040" d="M106.983,-591.125C100.941,-570.043 94.7548,-548.46 88.862,-527.9"/>
<polygon fill="none" stroke="#404040" points="88.8322,-527.796 83.3338,-523.13 85.5258,-516.26 91.0242,-520.926 88.8322,-527.796"/>
<text text-anchor="middle" x="128.5" y="-565" font-family="Helvetica,sans-Serif" font-size="10.00"> &#45;updatables</text>
</g>
<!-- Node5&#45;&gt;Node6 -->
<g id="edge7" class="edge"><title>Node5&#45;&gt;Node6</title>
<path fill="none" stroke="#404040" d="M148.321,-868.806C148.385,-874.955 148.445,-881.041 148.5,-887 148.681,-906.669 148.834,-927.561 148.962,-947.852"/>
<polygon fill="none" stroke="#404040" points="148.963,-948.053 152.999,-954.028 149.036,-960.053 145,-954.077 148.963,-948.053"/>
<text text-anchor="middle" x="176.5" y="-912" font-family="Helvetica,sans-Serif" font-size="10.00"> &#45;updatables</text>
</g>
<!-- Node6&#45;&gt;Node5 -->
<g id="edge5" class="edge"><title>Node6&#45;&gt;Node5</title>
<path fill="none" stroke="#404040" d="M128.557,-960.171C127.75,-954.039 127.051,-947.949 126.5,-942 124.662,-922.168 124.495,-901.29 125.375,-880.695"/>
<polygon fill="none" stroke="#404040" points="125.38,-880.595 121.7,-874.393 126.009,-868.611 129.689,-874.813 125.38,-880.595"/>
<text text-anchor="middle" x="137.5" y="-917.5" font-family="Helvetica,sans-Serif" font-size="10.00"> &#45;last</text>
<text text-anchor="middle" x="137.5" y="-906.5" font-family="Helvetica,sans-Serif" font-size="10.00">&#45;first</text>
</g>
<!-- Node7 -->
<g id="node7" class="node"><title>Node7</title>
<g id="a_node7"><a xlink:href="../../d3/d10/classMIDICNChannelAddress.html" target="_top" xlink:title="A type&#45;safe utility class for saving a MIDI address consisting of a 7&#45;bit address,...">
<polygon fill="white" stroke="black" points="125.5,-277.5 125.5,-543.5 265.5,-543.5 265.5,-277.5 125.5,-277.5"/>
<text text-anchor="middle" x="195.5" y="-531.5" font-family="Helvetica,sans-Serif" font-size="10.00">MIDICNChannelAddress</text>
<polyline fill="none" stroke="black" points="125.5,-524.5 265.5,-524.5 "/>
<text text-anchor="start" x="133.5" y="-512.5" font-family="Helvetica,sans-Serif" font-size="10.00">&#45; addresses</text>
<polyline fill="none" stroke="black" points="125.5,-505.5 265.5,-505.5 "/>
<text text-anchor="start" x="133.5" y="-493.5" font-family="Helvetica,sans-Serif" font-size="10.00">+ MIDICNChannelAddress()</text>
<text text-anchor="start" x="133.5" y="-482.5" font-family="Helvetica,sans-Serif" font-size="10.00">+ MIDICNChannelAddress()</text>
<text text-anchor="start" x="133.5" y="-471.5" font-family="Helvetica,sans-Serif" font-size="10.00">+ MIDICNChannelAddress()</text>
<text text-anchor="start" x="133.5" y="-460.5" font-family="Helvetica,sans-Serif" font-size="10.00">+ MIDICNChannelAddress()</text>
<text text-anchor="start" x="133.5" y="-449.5" font-family="Helvetica,sans-Serif" font-size="10.00">+ MIDICNChannelAddress()</text>
<text text-anchor="start" x="133.5" y="-438.5" font-family="Helvetica,sans-Serif" font-size="10.00">+ operator+=()</text>
<text text-anchor="start" x="133.5" y="-427.5" font-family="Helvetica,sans-Serif" font-size="10.00">+ operator&#45;=()</text>
<text text-anchor="start" x="133.5" y="-416.5" font-family="Helvetica,sans-Serif" font-size="10.00">+ operator+()</text>
<text text-anchor="start" x="133.5" y="-405.5" font-family="Helvetica,sans-Serif" font-size="10.00">+ operator&#45;()</text>
<text text-anchor="start" x="133.5" y="-394.5" font-family="Helvetica,sans-Serif" font-size="10.00">+ operator==()</text>
<text text-anchor="start" x="133.5" y="-383.5" font-family="Helvetica,sans-Serif" font-size="10.00">+ operator!=()</text>
<text text-anchor="start" x="133.5" y="-372.5" font-family="Helvetica,sans-Serif" font-size="10.00">+ getAddress()</text>
<text text-anchor="start" x="133.5" y="-361.5" font-family="Helvetica,sans-Serif" font-size="10.00">+ getChannel()</text>
<text text-anchor="start" x="133.5" y="-350.5" font-family="Helvetica,sans-Serif" font-size="10.00">+ getRawChannel()</text>
<text text-anchor="start" x="133.5" y="-339.5" font-family="Helvetica,sans-Serif" font-size="10.00">+ getCableNumber()</text>
<text text-anchor="start" x="133.5" y="-328.5" font-family="Helvetica,sans-Serif" font-size="10.00">+ isValid()</text>
<text text-anchor="start" x="133.5" y="-317.5" font-family="Helvetica,sans-Serif" font-size="10.00">+ operator bool()</text>
<text text-anchor="start" x="133.5" y="-306.5" font-family="Helvetica,sans-Serif" font-size="10.00">+ matchSingle()</text>
<text text-anchor="start" x="133.5" y="-295.5" font-family="Helvetica,sans-Serif" font-size="10.00">+ matchAddressInRange()</text>
<text text-anchor="start" x="133.5" y="-284.5" font-family="Helvetica,sans-Serif" font-size="10.00">+ invalid()</text>
</a>
</g>
</g>
<!-- Node7&#45;&gt;Node2 -->
<g id="edge8" class="edge"><title>Node7&#45;&gt;Node2</title>
<path fill="none" stroke="#404040" d="M234.135,-277.498C237.725,-265.232 241.28,-253.086 244.656,-241.551"/>
<polygon fill="none" stroke="#404040" points="244.732,-241.29 242.579,-234.408 248.103,-229.773 250.257,-236.655 244.732,-241.29"/>
<text text-anchor="middle" x="263" y="-251" font-family="Helvetica,sans-Serif" font-size="10.00"> &#45;address</text>
</g>
<!-- Node8 -->
<g id="node8" class="node"><title>Node8</title>
<g id="a_node8"><a xlink:href="../../da/d07/classContinuousCCSender.html" target="_top" xlink:title=" ">
<polygon fill="white" stroke="black" points="283.5,-376.5 283.5,-444.5 395.5,-444.5 395.5,-376.5 283.5,-376.5"/>
<text text-anchor="middle" x="339.5" y="-432.5" font-family="Helvetica,sans-Serif" font-size="10.00">ContinuousCCSender</text>
<polyline fill="none" stroke="black" points="283.5,-425.5 395.5,-425.5 "/>
<text text-anchor="middle" x="339.5" y="-413.5" font-family="Helvetica,sans-Serif" font-size="10.00"> </text>
<polyline fill="none" stroke="black" points="283.5,-406.5 395.5,-406.5 "/>
<text text-anchor="start" x="291.5" y="-394.5" font-family="Helvetica,sans-Serif" font-size="10.00">+ send()</text>
<text text-anchor="start" x="291.5" y="-383.5" font-family="Helvetica,sans-Serif" font-size="10.00">+ precision()</text>
</a>
</g>
</g>
<!-- Node8&#45;&gt;Node2 -->
<g id="edge9" class="edge"><title>Node8&#45;&gt;Node2</title>
<path fill="none" stroke="#404040" d="M329.79,-376.323C319.726,-341.939 303.636,-286.964 290.33,-241.502"/>
<polygon fill="none" stroke="#404040" points="290.295,-241.383 284.771,-236.748 286.924,-229.866 292.449,-234.501 290.295,-241.383"/>
<text text-anchor="middle" x="315" y="-251" font-family="Helvetica,sans-Serif" font-size="10.00"> +sender</text>
</g>
<!-- Node9 -->
<g id="node9" class="node"><title>Node9</title>
<g id="a_node9"><a xlink:href="../../d3/d6e/classAH_1_1FilteredAnalog.html" target="_top" xlink:title=" ">
<polygon fill="white" stroke="black" points="414,-332.5 414,-488.5 535,-488.5 535,-332.5 414,-332.5"/>
<text text-anchor="start" x="422" y="-476.5" font-family="Helvetica,sans-Serif" font-size="10.00">AH::FilteredAnalog</text>
<text text-anchor="start" x="422" y="-465.5" font-family="Helvetica,sans-Serif" font-size="10.00">&lt; ContinuousCCSender</text>
<text text-anchor="middle" x="474.5" y="-454.5" font-family="Helvetica,sans-Serif" font-size="10.00"> ::precision()&gt;</text>
<polyline fill="none" stroke="black" points="414,-447.5 535,-447.5 "/>
<text text-anchor="middle" x="474.5" y="-435.5" font-family="Helvetica,sans-Serif" font-size="10.00"> </text>
<polyline fill="none" stroke="black" points="414,-428.5 535,-428.5 "/>
<text text-anchor="start" x="422" y="-416.5" font-family="Helvetica,sans-Serif" font-size="10.00">+ FilteredAnalog()</text>
<text text-anchor="start" x="422" y="-405.5" font-family="Helvetica,sans-Serif" font-size="10.00">+ map()</text>
<text text-anchor="start" x="422" y="-394.5" font-family="Helvetica,sans-Serif" font-size="10.00">+ invert()</text>
<text text-anchor="start" x="422" y="-383.5" font-family="Helvetica,sans-Serif" font-size="10.00">+ update()</text>
<text text-anchor="start" x="422" y="-372.5" font-family="Helvetica,sans-Serif" font-size="10.00">+ getValue()</text>
<text text-anchor="start" x="422" y="-361.5" font-family="Helvetica,sans-Serif" font-size="10.00">+ getFloatValue()</text>
<text text-anchor="start" x="422" y="-350.5" font-family="Helvetica,sans-Serif" font-size="10.00">+ getRawValue()</text>
<text text-anchor="start" x="422" y="-339.5" font-family="Helvetica,sans-Serif" font-size="10.00">+ setupADC()</text>
</a>
</g>
</g>
<!-- Node9&#45;&gt;Node2 -->
<g id="edge10" class="edge"><title>Node9&#45;&gt;Node2</title>
<path fill="none" stroke="#404040" d="M440.278,-332.364C430.12,-313.337 418.038,-293.656 404.5,-277 391.798,-261.372 376.679,-246.342 361.198,-232.619"/>
<polygon fill="none" stroke="#404040" points="361.124,-232.555 353.97,-231.648 352.056,-224.695 359.21,-225.603 361.124,-232.555"/>
<text text-anchor="middle" x="422.5" y="-251" font-family="Helvetica,sans-Serif" font-size="10.00"> &#45;filteredAnalog</text>
</g>
<!-- Node10 -->
<g id="node10" class="node"><title>Node10</title>
<g id="a_node10"><a xlink:href="../../d7/d40/classEMA.html" target="_top" xlink:title=" ">
<polygon fill="white" stroke="black" points="271,-679.5 271,-780.5 416,-780.5 416,-679.5 271,-679.5"/>
<text text-anchor="start" x="279" y="-768.5" font-family="Helvetica,sans-Serif" font-size="10.00">EMA&lt; ANALOG_FILTER</text>
<text text-anchor="start" x="279" y="-757.5" font-family="Helvetica,sans-Serif" font-size="10.00">_SHIFT_FACTOR, ANALOG</text>
<text text-anchor="middle" x="343.5" y="-746.5" font-family="Helvetica,sans-Serif" font-size="10.00">_FILTER_TYPE &gt;</text>
<polyline fill="none" stroke="black" points="271,-739.5 416,-739.5 "/>
<text text-anchor="start" x="279" y="-727.5" font-family="Helvetica,sans-Serif" font-size="10.00">&#45; filtered</text>
<text text-anchor="start" x="279" y="-716.5" font-family="Helvetica,sans-Serif" font-size="10.00">&#45; fixedPointAHalf</text>
<polyline fill="none" stroke="black" points="271,-709.5 416,-709.5 "/>
<text text-anchor="start" x="279" y="-697.5" font-family="Helvetica,sans-Serif" font-size="10.00">+ filter()</text>
<text text-anchor="start" x="279" y="-686.5" font-family="Helvetica,sans-Serif" font-size="10.00">+ operator()()</text>
</a>
</g>
</g>
<!-- Node10&#45;&gt;Node9 -->
<g id="edge11" class="edge"><title>Node10&#45;&gt;Node9</title>
<path fill="none" stroke="#404040" d="M363.969,-679.391C383.735,-631.483 414.107,-557.873 438.015,-499.928"/>
<polygon fill="none" stroke="#404040" points="438.128,-499.653 436.719,-492.581 442.705,-488.56 444.114,-495.633 438.128,-499.653"/>
<text text-anchor="middle" x="422" y="-565" font-family="Helvetica,sans-Serif" font-size="10.00"> &#45;filter</text>
</g>
<!-- Node11 -->
<g id="node11" class="node"><title>Node11</title>
<g id="a_node11"><a xlink:title=" ">
<polygon fill="white" stroke="#bfbfbf" points="434.5,-701.5 434.5,-758.5 472.5,-758.5 472.5,-701.5 434.5,-701.5"/>
<text text-anchor="middle" x="453.5" y="-746.5" font-family="Helvetica,sans-Serif" font-size="10.00">pin_t</text>
<polyline fill="none" stroke="#bfbfbf" points="434.5,-739.5 472.5,-739.5 "/>
<text text-anchor="middle" x="453.5" y="-727.5" font-family="Helvetica,sans-Serif" font-size="10.00"> </text>
<polyline fill="none" stroke="#bfbfbf" points="434.5,-720.5 472.5,-720.5 "/>
<text text-anchor="middle" x="453.5" y="-708.5" font-family="Helvetica,sans-Serif" font-size="10.00"> </text>
</a>
</g>
</g>
<!-- Node11&#45;&gt;Node9 -->
<g id="edge12" class="edge"><title>Node11&#45;&gt;Node9</title>
<path fill="none" stroke="#404040" d="M452.604,-701.478C451.77,-668.342 451.109,-611.027 454.5,-562 455.877,-542.091 458.189,-520.793 460.762,-500.67"/>
<polygon fill="none" stroke="#404040" points="460.779,-500.545 457.597,-494.073 462.347,-488.648 465.529,-495.119 460.779,-500.545"/>
<text text-anchor="middle" x="479" y="-565" font-family="Helvetica,sans-Serif" font-size="10.00"> &#45;analogPin</text>
</g>
<!-- Node12 -->
<g id="node12" class="node"><title>Node12</title>
<g id="a_node12"><a xlink:href="../../d2/dcb/classHysteresis.html" target="_top" xlink:title=" ">
<polygon fill="white" stroke="black" points="573,-663 573,-797 764,-797 764,-663 573,-663"/>
<text text-anchor="start" x="581" y="-785" font-family="Helvetica,sans-Serif" font-size="10.00">Hysteresis&lt; ADC_BITS</text>
<text text-anchor="start" x="581" y="-774" font-family="Helvetica,sans-Serif" font-size="10.00">+min(sizeof(ANALOG_FILTER</text>
<text text-anchor="start" x="581" y="-763" font-family="Helvetica,sans-Serif" font-size="10.00">_TYPE) *CHAR_BIT &#45; ADC_BITS</text>
<text text-anchor="start" x="581" y="-752" font-family="Helvetica,sans-Serif" font-size="10.00"> &#45; ANALOG_FILTER_SHIFT_FACTOR,</text>
<text text-anchor="start" x="581" y="-741" font-family="Helvetica,sans-Serif" font-size="10.00"> sizeof(analog_t) *CHAR_BIT </text>
<text text-anchor="start" x="581" y="-730" font-family="Helvetica,sans-Serif" font-size="10.00">&#45; ADC_BITS) &#45; Precision, analog</text>
<text text-anchor="middle" x="668.5" y="-719" font-family="Helvetica,sans-Serif" font-size="10.00">_t, analog_t &gt;</text>
<polyline fill="none" stroke="black" points="573,-712 764,-712 "/>
<text text-anchor="middle" x="668.5" y="-700" font-family="Helvetica,sans-Serif" font-size="10.00"> </text>
<polyline fill="none" stroke="black" points="573,-693 764,-693 "/>
<text text-anchor="start" x="581" y="-681" font-family="Helvetica,sans-Serif" font-size="10.00">+ update()</text>
<text text-anchor="start" x="581" y="-670" font-family="Helvetica,sans-Serif" font-size="10.00">+ getValue()</text>
</a>
</g>
</g>
<!-- Node12&#45;&gt;Node9 -->
<g id="edge13" class="edge"><title>Node12&#45;&gt;Node9</title>
<path fill="none" stroke="#404040" d="M628.067,-662.828C599.082,-615.391 559.739,-551.002 528.132,-499.273"/>
<polygon fill="none" stroke="#404040" points="527.972,-499.012 521.43,-495.977 521.715,-488.772 528.257,-491.806 527.972,-499.012"/>
<text text-anchor="middle" x="597.5" y="-565" font-family="Helvetica,sans-Serif" font-size="10.00"> &#45;hysteresis</text>
</g>
<!-- Node13 -->
<g id="node13" class="node"><title>Node13</title>
<g id="a_node13"><a xlink:title=" ">
<polygon fill="white" stroke="#bfbfbf" points="537,-1037.5 537,-1094.5 590,-1094.5 590,-1037.5 537,-1037.5"/>
<text text-anchor="middle" x="563.5" y="-1082.5" font-family="Helvetica,sans-Serif" font-size="10.00">analog_t</text>
<polyline fill="none" stroke="#bfbfbf" points="537,-1075.5 590,-1075.5 "/>
<text text-anchor="middle" x="563.5" y="-1063.5" font-family="Helvetica,sans-Serif" font-size="10.00"> </text>
<polyline fill="none" stroke="#bfbfbf" points="537,-1056.5 590,-1056.5 "/>
<text text-anchor="middle" x="563.5" y="-1044.5" font-family="Helvetica,sans-Serif" font-size="10.00"> </text>
</a>
</g>
</g>
<!-- Node13&#45;&gt;Node9 -->
<g id="edge15" class="edge"><title>Node13&#45;&gt;Node9</title>
<path fill="none" stroke="#404040" d="M557.46,-1037.23C549.443,-999.377 535.383,-929.378 527.5,-869 509.781,-733.291 521.81,-697.63 503.5,-562 500.805,-542.034 497.167,-520.713 493.38,-500.586"/>
<polygon fill="none" stroke="#404040" points="493.334,-500.348 488.276,-495.209 491.075,-488.563 496.133,-493.703 493.334,-500.348"/>
<text text-anchor="middle" x="546" y="-727.5" font-family="Helvetica,sans-Serif" font-size="10.00"> &#45;mapFn</text>
</g>
<!-- Node13&#45;&gt;Node12 -->
<g id="edge14" class="edge"><title>Node13&#45;&gt;Node12</title>
<path fill="none" stroke="#404040" d="M572.182,-1037.38C587.783,-987.758 621.076,-881.854 644.118,-808.558"/>
<polygon fill="none" stroke="#404040" points="644.125,-808.535 642.109,-801.612 647.724,-797.088 649.74,-804.011 644.125,-808.535"/>
<text text-anchor="middle" x="641.5" y="-934" font-family="Helvetica,sans-Serif" font-size="10.00"> &#45;max_in</text>
<text text-anchor="middle" x="641.5" y="-923" font-family="Helvetica,sans-Serif" font-size="10.00">&#45;max_out</text>
<text text-anchor="middle" x="641.5" y="-912" font-family="Helvetica,sans-Serif" font-size="10.00">&#45;offset</text>
<text text-anchor="middle" x="641.5" y="-901" font-family="Helvetica,sans-Serif" font-size="10.00">&#45;prevLevel</text>
<text text-anchor="middle" x="641.5" y="-890" font-family="Helvetica,sans-Serif" font-size="10.00">&#45;margin</text>
</g>
</g>
</svg>
