<?xml version="1.0" encoding="UTF-8" standalone="no"?>
<!DOCTYPE svg PUBLIC "-//W3C//DTD SVG 1.1//EN"
 "http://www.w3.org/Graphics/SVG/1.1/DTD/svg11.dtd">
<!-- Generated by graphviz version 2.43.0 (0)
 -->
<!-- Title: VPotRingLEDsDriver Pages: 1 -->
<svg width="135pt" height="500pt"
 viewBox="0.00 0.00 135.00 500.00" xmlns="http://www.w3.org/2000/svg" xmlns:xlink="http://www.w3.org/1999/xlink">
<g id="graph0" class="graph" transform="scale(1 1) rotate(0) translate(4 496)">
<title>VPotRingLEDsDriver</title>
<!-- Node1 -->
<g id="Node000001" class="node">
<title>Node1</title>
<g id="a_Node000001"><a xlink:title=" ">
<polygon fill="#999999" stroke="transparent" points="127,-64 0,-64 0,0 127,0 127,-64"/>
<text text-anchor="start" x="14.5" y="-52" font-family="Helvetica,sans-Serif" font-size="10.00">VPotRingLEDsDriver</text>
<text text-anchor="start" x="62" y="-37" font-family="Helvetica,sans-Serif" font-size="10.00"> </text>
<text text-anchor="start" x="4.5" y="-22" font-family="Helvetica,sans-Serif" font-size="10.00">+</text>
<text text-anchor="start" x="17.5" y="-22" font-family="Helvetica,sans-Serif" font-size="10.00">VPotRingLEDsDriver()</text>
<text text-anchor="start" x="4.5" y="-7" font-family="Helvetica,sans-Serif" font-size="10.00">+</text>
<text text-anchor="start" x="17.5" y="-7" font-family="Helvetica,sans-Serif" font-size="10.00">displayVPot()</text>
<polygon fill="#666666" stroke="#666666" points="0.5,-47 0.5,-47 127.5,-47 127.5,-47 0.5,-47"/>
<polygon fill="#666666" stroke="#666666" points="0.5,-32 0.5,-32 127.5,-32 127.5,-32 0.5,-32"/>
<polygon fill="none" stroke="#666666" points="0,0 0,-64 127,-64 127,0 0,0"/>
</a>
</g>
</g>
<!-- Node2 -->
<g id="Node000002" class="node">
<title>Node2</title>
<g id="a_Node000002"><a xlink:href="../../df/d06/classAH_1_1LEDs.html" target="_top" xlink:title=" ">
<polygon fill="white" stroke="transparent" points="111,-225 16,-225 16,-101 111,-101 111,-225"/>
<text text-anchor="start" x="34.5" y="-213" font-family="Helvetica,sans-Serif" font-size="10.00">LEDs&lt; 11 &gt;</text>
<text text-anchor="start" x="62" y="-198" font-family="Helvetica,sans-Serif" font-size="10.00"> </text>
<text text-anchor="start" x="20.5" y="-183" font-family="Helvetica,sans-Serif" font-size="10.00">+</text>
<text text-anchor="start" x="33.5" y="-183" font-family="Helvetica,sans-Serif" font-size="10.00">LEDs()</text>
<text text-anchor="start" x="20.5" y="-168" font-family="Helvetica,sans-Serif" font-size="10.00">+</text>
<text text-anchor="start" x="33.5" y="-168" font-family="Helvetica,sans-Serif" font-size="10.00">begin()</text>
<text text-anchor="start" x="20.5" y="-153" font-family="Helvetica,sans-Serif" font-size="10.00">+</text>
<text text-anchor="start" x="33.5" y="-153" font-family="Helvetica,sans-Serif" font-size="10.00">displayRange()</text>
<text text-anchor="start" x="20.5" y="-138" font-family="Helvetica,sans-Serif" font-size="10.00">+</text>
<text text-anchor="start" x="33.5" y="-138" font-family="Helvetica,sans-Serif" font-size="10.00">set()</text>
<text text-anchor="start" x="20.5" y="-123" font-family="Helvetica,sans-Serif" font-size="10.00">+</text>
<text text-anchor="start" x="33.5" y="-123" font-family="Helvetica,sans-Serif" font-size="10.00">clear()</text>
<text text-anchor="start" x="20.5" y="-108" font-family="Helvetica,sans-Serif" font-size="10.00">+</text>
<text text-anchor="start" x="33.5" y="-108" font-family="Helvetica,sans-Serif" font-size="10.00">displayDot()</text>
<polygon fill="#666666" stroke="#666666" points="16.5,-208 16.5,-208 111.5,-208 111.5,-208 16.5,-208"/>
<polygon fill="#666666" stroke="#666666" points="16.5,-193 16.5,-193 111.5,-193 111.5,-193 16.5,-193"/>
<polygon fill="none" stroke="#666666" points="16,-101 16,-225 111,-225 111,-101 16,-101"/>
</a>
</g>
</g>
<!-- Node2&#45;&gt;Node1 -->
<g id="edge1_Node000001_Node000002" class="edge">
<title>Node2&#45;&gt;Node1</title>
<g id="a_edge1_Node000001_Node000002"><a xlink:title=" ">
<path fill="none" stroke="#63b8ff" d="M63.5,-90.73C63.5,-81.39 63.5,-72.24 63.5,-64.08"/>
<polygon fill="none" stroke="#63b8ff" points="60,-90.9 63.5,-100.9 67,-90.9 60,-90.9"/>
</a>
</g>
</g>
<!-- Node3 -->
<g id="Node000003" class="node">
<title>Node3</title>
<g id="a_Node000003"><a xlink:href="../../d0/d32/structAH_1_1Array.html" target="_top" xlink:title=" ">
<polygon fill="white" stroke="transparent" points="127,-492 0,-492 0,-278 127,-278 127,-492"/>
<text text-anchor="start" x="5.5" y="-480" font-family="Helvetica,sans-Serif" font-size="10.00">Array&lt; pin_t, N &gt;&lt; N &gt;</text>
<text text-anchor="start" x="14.5" y="-465" font-family="Helvetica,sans-Serif" font-size="10.00">+</text>
<text text-anchor="start" x="37.5" y="-465" font-family="Helvetica,sans-Serif" font-size="10.00">data</text>
<text text-anchor="start" x="14.5" y="-450" font-family="Helvetica,sans-Serif" font-size="10.00">+</text>
<text text-anchor="start" x="37.5" y="-450" font-family="Helvetica,sans-Serif" font-size="10.00">length</text>
<text text-anchor="start" x="14.5" y="-435" font-family="Helvetica,sans-Serif" font-size="10.00">+</text>
<text text-anchor="start" x="37.5" y="-435" font-family="Helvetica,sans-Serif" font-size="10.00">operator[]()</text>
<text text-anchor="start" x="14.5" y="-420" font-family="Helvetica,sans-Serif" font-size="10.00">+</text>
<text text-anchor="start" x="37.5" y="-420" font-family="Helvetica,sans-Serif" font-size="10.00">operator[]()</text>
<text text-anchor="start" x="14.5" y="-405" font-family="Helvetica,sans-Serif" font-size="10.00">+</text>
<text text-anchor="start" x="37.5" y="-405" font-family="Helvetica,sans-Serif" font-size="10.00">begin()</text>
<text text-anchor="start" x="14.5" y="-390" font-family="Helvetica,sans-Serif" font-size="10.00">+</text>
<text text-anchor="start" x="37.5" y="-390" font-family="Helvetica,sans-Serif" font-size="10.00">begin()</text>
<text text-anchor="start" x="14.5" y="-375" font-family="Helvetica,sans-Serif" font-size="10.00">+</text>
<text text-anchor="start" x="37.5" y="-375" font-family="Helvetica,sans-Serif" font-size="10.00">end()</text>
<text text-anchor="start" x="14.5" y="-360" font-family="Helvetica,sans-Serif" font-size="10.00">+</text>
<text text-anchor="start" x="37.5" y="-360" font-family="Helvetica,sans-Serif" font-size="10.00">end()</text>
<text text-anchor="start" x="14.5" y="-345" font-family="Helvetica,sans-Serif" font-size="10.00">+</text>
<text text-anchor="start" x="37.5" y="-345" font-family="Helvetica,sans-Serif" font-size="10.00">operator==()</text>
<text text-anchor="start" x="14.5" y="-330" font-family="Helvetica,sans-Serif" font-size="10.00">+</text>
<text text-anchor="start" x="37.5" y="-330" font-family="Helvetica,sans-Serif" font-size="10.00">operator!=()</text>
<text text-anchor="start" x="14.5" y="-315" font-family="Helvetica,sans-Serif" font-size="10.00">+</text>
<text text-anchor="start" x="37.5" y="-315" font-family="Helvetica,sans-Serif" font-size="10.00">slice()</text>
<text text-anchor="start" x="14.5" y="-300" font-family="Helvetica,sans-Serif" font-size="10.00">+</text>
<text text-anchor="start" x="37.5" y="-300" font-family="Helvetica,sans-Serif" font-size="10.00">slice()</text>
<text text-anchor="start" x="14.5" y="-285" font-family="Helvetica,sans-Serif" font-size="10.00">+</text>
<text text-anchor="start" x="37.5" y="-285" font-family="Helvetica,sans-Serif" font-size="10.00">cslice()</text>
<polygon fill="#666666" stroke="#666666" points="0.5,-475 0.5,-475 127.5,-475 127.5,-475 0.5,-475"/>
<polygon fill="#666666" stroke="#666666" points="0.5,-445 0.5,-445 35.5,-445 35.5,-445 0.5,-445"/>
<polygon fill="#666666" stroke="#666666" points="35.5,-445 35.5,-445 127.5,-445 127.5,-445 35.5,-445"/>
<polygon fill="none" stroke="#666666" points="0,-278 0,-492 127,-492 127,-278 0,-278"/>
</a>
</g>
</g>
<!-- Node3&#45;&gt;Node2 -->
<g id="edge2_Node000002_Node000003" class="edge">
<title>Node3&#45;&gt;Node2</title>
<g id="a_edge2_Node000002_Node000003"><a xlink:title=" ">
<path fill="none" stroke="#63b8ff" d="M63.5,-277.87C63.5,-264.13 63.5,-250.31 63.5,-237.27"/>
<polygon fill="none" stroke="#63b8ff" points="63.5,-237.03 59.5,-231.03 63.5,-225.03 67.5,-231.03 63.5,-237.03"/>
</a>
</g>
<text text-anchor="start" x="66.5" y="-248.5" font-family="Helvetica,sans-Serif" font-size="10.00" fill="grey">&#45;ledPins</text>
</g>
</g>
</svg>
