<?xml version="1.0" encoding="UTF-8" standalone="no"?>
<!DOCTYPE svg PUBLIC "-//W3C//DTD SVG 1.1//EN"
 "http://www.w3.org/Graphics/SVG/1.1/DTD/svg11.dtd">
<!-- Generated by graphviz version 2.43.0 (0)
 -->
<!-- Title: SerialMIDI_Parser Pages: 1 -->
<svg width="406pt" height="997pt"
 viewBox="0.00 0.00 406.00 997.00" xmlns="http://www.w3.org/2000/svg" xmlns:xlink="http://www.w3.org/1999/xlink">
<g id="graph0" class="graph" transform="scale(1 1) rotate(0) translate(4 993)">
<title>SerialMIDI_Parser</title>
<polygon fill="white" stroke="transparent" points="-4,4 -4,-993 402,-993 402,4 -4,4"/>
<!-- Node1 -->
<g id="node1" class="node">
<title>Node1</title>
<g id="a_node1"><a xlink:title="Parser for Serial MIDI streams (and BLE&#45;MIDI).">
<polygon fill="#bfbfbf" stroke="black" points="205,-0.5 205,-277.5 398,-277.5 398,-0.5 205,-0.5"/>
<text text-anchor="middle" x="301.5" y="-265.5" font-family="Helvetica,sans-Serif" font-size="10.00">SerialMIDI_Parser</text>
<polyline fill="none" stroke="black" points="205,-258.5 398,-258.5 "/>
<text text-anchor="start" x="213" y="-246.5" font-family="Helvetica,sans-Serif" font-size="10.00">&#45; sysCommonCancelsRunningStatus</text>
<text text-anchor="start" x="213" y="-235.5" font-family="Helvetica,sans-Serif" font-size="10.00">&#45; thirdByte</text>
<text text-anchor="start" x="213" y="-224.5" font-family="Helvetica,sans-Serif" font-size="10.00">&#45; currentHeader</text>
<text text-anchor="start" x="213" y="-213.5" font-family="Helvetica,sans-Serif" font-size="10.00">&#45; runningHeader</text>
<text text-anchor="start" x="213" y="-202.5" font-family="Helvetica,sans-Serif" font-size="10.00">&#45; storedByte</text>
<polyline fill="none" stroke="black" points="205,-195.5 398,-195.5 "/>
<text text-anchor="start" x="213" y="-183.5" font-family="Helvetica,sans-Serif" font-size="10.00">+ SerialMIDI_Parser()</text>
<text text-anchor="start" x="213" y="-172.5" font-family="Helvetica,sans-Serif" font-size="10.00">+ pull()</text>
<text text-anchor="start" x="213" y="-161.5" font-family="Helvetica,sans-Serif" font-size="10.00">+ getSysExMessage()</text>
<text text-anchor="start" x="213" y="-150.5" font-family="Helvetica,sans-Serif" font-size="10.00">+ cancelRunningStatus()</text>
<text text-anchor="start" x="213" y="-139.5" font-family="Helvetica,sans-Serif" font-size="10.00"># feed()</text>
<text text-anchor="start" x="213" y="-128.5" font-family="Helvetica,sans-Serif" font-size="10.00"># resume()</text>
<text text-anchor="start" x="213" y="-117.5" font-family="Helvetica,sans-Serif" font-size="10.00"># addSysExByte()</text>
<text text-anchor="start" x="213" y="-106.5" font-family="Helvetica,sans-Serif" font-size="10.00"># hasSysExSpace()</text>
<text text-anchor="start" x="213" y="-95.5" font-family="Helvetica,sans-Serif" font-size="10.00"># startSysEx()</text>
<text text-anchor="start" x="213" y="-84.5" font-family="Helvetica,sans-Serif" font-size="10.00"># endSysEx()</text>
<text text-anchor="start" x="213" y="-73.5" font-family="Helvetica,sans-Serif" font-size="10.00"># handleRealTime()</text>
<text text-anchor="start" x="213" y="-62.5" font-family="Helvetica,sans-Serif" font-size="10.00"># handleNonRealTimeStatus()</text>
<text text-anchor="start" x="213" y="-51.5" font-family="Helvetica,sans-Serif" font-size="10.00"># handleStatus()</text>
<text text-anchor="start" x="213" y="-40.5" font-family="Helvetica,sans-Serif" font-size="10.00"># handleData()</text>
<text text-anchor="start" x="213" y="-29.5" font-family="Helvetica,sans-Serif" font-size="10.00"># storeByte()</text>
<text text-anchor="start" x="213" y="-18.5" font-family="Helvetica,sans-Serif" font-size="10.00"># hasStoredByte()</text>
<text text-anchor="start" x="213" y="-7.5" font-family="Helvetica,sans-Serif" font-size="10.00"># popStoredByte()</text>
</a>
</g>
</g>
<!-- Node2 -->
<g id="node2" class="node">
<title>Node2</title>
<g id="a_node2"><a xlink:href="../../df/d0c/classMIDI__Parser.html" target="_top" xlink:title="Base class for MIDI parsers.">
<polygon fill="white" stroke="black" points="114.5,-353 114.5,-454 270.5,-454 270.5,-353 114.5,-353"/>
<text text-anchor="middle" x="192.5" y="-442" font-family="Helvetica,sans-Serif" font-size="10.00">MIDI_Parser</text>
<polyline fill="none" stroke="black" points="114.5,-435 270.5,-435 "/>
<text text-anchor="middle" x="192.5" y="-423" font-family="Helvetica,sans-Serif" font-size="10.00"> </text>
<polyline fill="none" stroke="black" points="114.5,-416 270.5,-416 "/>
<text text-anchor="start" x="122.5" y="-404" font-family="Helvetica,sans-Serif" font-size="10.00">+ getChannelMessage()</text>
<text text-anchor="start" x="122.5" y="-393" font-family="Helvetica,sans-Serif" font-size="10.00">+ getSysCommonMessage()</text>
<text text-anchor="start" x="122.5" y="-382" font-family="Helvetica,sans-Serif" font-size="10.00">+ getRealTimeMessage()</text>
<text text-anchor="start" x="122.5" y="-371" font-family="Helvetica,sans-Serif" font-size="10.00">+ isStatus()</text>
<text text-anchor="start" x="122.5" y="-360" font-family="Helvetica,sans-Serif" font-size="10.00">+ isData()</text>
</a>
</g>
</g>
<!-- Node2&#45;&gt;Node1 -->
<g id="edge1" class="edge">
<title>Node2&#45;&gt;Node1</title>
<path fill="none" stroke="midnightblue" d="M217.05,-343.38C225.25,-323.62 234.77,-300.69 244.4,-277.5"/>
<polygon fill="none" stroke="midnightblue" points="213.73,-342.24 213.13,-352.82 220.2,-344.92 213.73,-342.24"/>
</g>
<!-- Node3 -->
<g id="node3" class="node">
<title>Node3</title>
<g id="a_node3"><a xlink:href="../../d4/d61/structMIDIMessage.html" target="_top" xlink:title=" ">
<polygon fill="white" stroke="black" points="0,-529.5 0,-784.5 195,-784.5 195,-529.5 0,-529.5"/>
<text text-anchor="middle" x="97.5" y="-772.5" font-family="Helvetica,sans-Serif" font-size="10.00">MIDIMessage</text>
<polyline fill="none" stroke="black" points="0,-765.5 195,-765.5 "/>
<text text-anchor="start" x="8" y="-753.5" font-family="Helvetica,sans-Serif" font-size="10.00">+ header</text>
<text text-anchor="start" x="8" y="-742.5" font-family="Helvetica,sans-Serif" font-size="10.00">+ data1</text>
<text text-anchor="start" x="8" y="-731.5" font-family="Helvetica,sans-Serif" font-size="10.00">+ data2</text>
<polyline fill="none" stroke="black" points="0,-724.5 195,-724.5 "/>
<text text-anchor="start" x="8" y="-712.5" font-family="Helvetica,sans-Serif" font-size="10.00">+ MIDIMessage()</text>
<text text-anchor="start" x="8" y="-701.5" font-family="Helvetica,sans-Serif" font-size="10.00">+ MIDIMessage()</text>
<text text-anchor="start" x="8" y="-690.5" font-family="Helvetica,sans-Serif" font-size="10.00">+ operator==()</text>
<text text-anchor="start" x="8" y="-679.5" font-family="Helvetica,sans-Serif" font-size="10.00">+ operator!=()</text>
<text text-anchor="start" x="8" y="-668.5" font-family="Helvetica,sans-Serif" font-size="10.00">+ getMessageType()</text>
<text text-anchor="start" x="8" y="-657.5" font-family="Helvetica,sans-Serif" font-size="10.00">+ setMessageType()</text>
<text text-anchor="start" x="8" y="-646.5" font-family="Helvetica,sans-Serif" font-size="10.00">+ getData1()</text>
<text text-anchor="start" x="8" y="-635.5" font-family="Helvetica,sans-Serif" font-size="10.00">+ getData2()</text>
<text text-anchor="start" x="8" y="-624.5" font-family="Helvetica,sans-Serif" font-size="10.00">+ setData1()</text>
<text text-anchor="start" x="8" y="-613.5" font-family="Helvetica,sans-Serif" font-size="10.00">+ setData2()</text>
<text text-anchor="start" x="8" y="-602.5" font-family="Helvetica,sans-Serif" font-size="10.00">+ getCable()</text>
<text text-anchor="start" x="8" y="-591.5" font-family="Helvetica,sans-Serif" font-size="10.00">+ setCable()</text>
<text text-anchor="start" x="8" y="-580.5" font-family="Helvetica,sans-Serif" font-size="10.00">+ hasValidChannelMessageHeader()</text>
<text text-anchor="start" x="8" y="-569.5" font-family="Helvetica,sans-Serif" font-size="10.00">+ hasValidSystemCommonHeader()</text>
<text text-anchor="start" x="8" y="-558.5" font-family="Helvetica,sans-Serif" font-size="10.00">+ getData14bit()</text>
<text text-anchor="start" x="8" y="-547.5" font-family="Helvetica,sans-Serif" font-size="10.00">+ setData14bit()</text>
<text text-anchor="start" x="8" y="-536.5" font-family="Helvetica,sans-Serif" font-size="10.00">+ sanitize()</text>
</a>
</g>
</g>
<!-- Node3&#45;&gt;Node2 -->
<g id="edge2" class="edge">
<title>Node3&#45;&gt;Node2</title>
<path fill="none" stroke="#404040" d="M145.42,-529.14C153.78,-507 162.13,-484.9 169.42,-465.6"/>
<polygon fill="none" stroke="#404040" points="169.46,-465.5 167.84,-458.47 173.7,-454.27 175.32,-461.3 169.46,-465.5"/>
<text text-anchor="middle" x="184" y="-503" font-family="Helvetica,sans-Serif" font-size="10.00"> #midimsg</text>
</g>
<!-- Node4 -->
<g id="node4" class="node">
<title>Node4</title>
<g id="a_node4"><a xlink:href="../../d2/d75/classCable.html" target="_top" xlink:title="A type&#45;safe class for MIDI USB Cable numbers.">
<polygon fill="white" stroke="black" points="141.5,-832.5 141.5,-988.5 243.5,-988.5 243.5,-832.5 141.5,-832.5"/>
<text text-anchor="middle" x="192.5" y="-976.5" font-family="Helvetica,sans-Serif" font-size="10.00">Cable</text>
<polyline fill="none" stroke="black" points="141.5,-969.5 243.5,-969.5 "/>
<text text-anchor="start" x="149.5" y="-957.5" font-family="Helvetica,sans-Serif" font-size="10.00">&#45; zeroBasedCable</text>
<polyline fill="none" stroke="black" points="141.5,-950.5 243.5,-950.5 "/>
<text text-anchor="start" x="149.5" y="-938.5" font-family="Helvetica,sans-Serif" font-size="10.00">+ Cable()</text>
<text text-anchor="start" x="149.5" y="-927.5" font-family="Helvetica,sans-Serif" font-size="10.00">+ getRaw()</text>
<text text-anchor="start" x="149.5" y="-916.5" font-family="Helvetica,sans-Serif" font-size="10.00">+ getOneBased()</text>
<text text-anchor="start" x="149.5" y="-905.5" font-family="Helvetica,sans-Serif" font-size="10.00">+ operator==()</text>
<text text-anchor="start" x="149.5" y="-894.5" font-family="Helvetica,sans-Serif" font-size="10.00">+ operator!=()</text>
<text text-anchor="start" x="149.5" y="-883.5" font-family="Helvetica,sans-Serif" font-size="10.00">+ operator+=()</text>
<text text-anchor="start" x="149.5" y="-872.5" font-family="Helvetica,sans-Serif" font-size="10.00">+ operator+()</text>
<text text-anchor="start" x="149.5" y="-861.5" font-family="Helvetica,sans-Serif" font-size="10.00">+ operator&#45;=()</text>
<text text-anchor="start" x="149.5" y="-850.5" font-family="Helvetica,sans-Serif" font-size="10.00">+ operator&#45;()</text>
<text text-anchor="start" x="149.5" y="-839.5" font-family="Helvetica,sans-Serif" font-size="10.00">+ createCable()</text>
</a>
</g>
</g>
<!-- Node4&#45;&gt;Node3 -->
<g id="edge3" class="edge">
<title>Node4&#45;&gt;Node3</title>
<path fill="none" stroke="#404040" d="M163.35,-832.33C158.97,-820.72 154.34,-808.46 149.64,-796.04"/>
<polygon fill="none" stroke="#404040" points="149.56,-795.83 143.7,-791.63 145.32,-784.6 151.18,-788.8 149.56,-795.83"/>
<text text-anchor="middle" x="175.5" y="-806" font-family="Helvetica,sans-Serif" font-size="10.00"> +cable</text>
</g>
<!-- Node5 -->
<g id="node5" class="node">
<title>Node5</title>
<g id="a_node5"><a xlink:href="../../d6/d99/structRealTimeMessage.html" target="_top" xlink:title=" ">
<polygon fill="white" stroke="black" points="213,-540.5 213,-773.5 364,-773.5 364,-540.5 213,-540.5"/>
<text text-anchor="middle" x="288.5" y="-761.5" font-family="Helvetica,sans-Serif" font-size="10.00">RealTimeMessage</text>
<polyline fill="none" stroke="black" points="213,-754.5 364,-754.5 "/>
<text text-anchor="start" x="221" y="-742.5" font-family="Helvetica,sans-Serif" font-size="10.00">+ message</text>
<text text-anchor="start" x="221" y="-731.5" font-family="Helvetica,sans-Serif" font-size="10.00">+ TIMING_CLOCK</text>
<text text-anchor="start" x="221" y="-720.5" font-family="Helvetica,sans-Serif" font-size="10.00">+ UNDEFINED_REALTIME_1</text>
<text text-anchor="start" x="221" y="-709.5" font-family="Helvetica,sans-Serif" font-size="10.00">+ START</text>
<text text-anchor="start" x="221" y="-698.5" font-family="Helvetica,sans-Serif" font-size="10.00">+ CONTINUE</text>
<text text-anchor="start" x="221" y="-687.5" font-family="Helvetica,sans-Serif" font-size="10.00">+ STOP</text>
<text text-anchor="start" x="221" y="-676.5" font-family="Helvetica,sans-Serif" font-size="10.00">+ UNDEFINED_REALTIME_2</text>
<text text-anchor="start" x="221" y="-665.5" font-family="Helvetica,sans-Serif" font-size="10.00">+ ACTIVE_SENSING</text>
<text text-anchor="start" x="221" y="-654.5" font-family="Helvetica,sans-Serif" font-size="10.00">+ RESET</text>
<polyline fill="none" stroke="black" points="213,-647.5 364,-647.5 "/>
<text text-anchor="start" x="221" y="-635.5" font-family="Helvetica,sans-Serif" font-size="10.00">+ RealTimeMessage()</text>
<text text-anchor="start" x="221" y="-624.5" font-family="Helvetica,sans-Serif" font-size="10.00">+ RealTimeMessage()</text>
<text text-anchor="start" x="221" y="-613.5" font-family="Helvetica,sans-Serif" font-size="10.00">+ operator==()</text>
<text text-anchor="start" x="221" y="-602.5" font-family="Helvetica,sans-Serif" font-size="10.00">+ operator!=()</text>
<text text-anchor="start" x="221" y="-591.5" font-family="Helvetica,sans-Serif" font-size="10.00">+ setMessageType()</text>
<text text-anchor="start" x="221" y="-580.5" font-family="Helvetica,sans-Serif" font-size="10.00">+ getMessageType()</text>
<text text-anchor="start" x="221" y="-569.5" font-family="Helvetica,sans-Serif" font-size="10.00">+ getCable()</text>
<text text-anchor="start" x="221" y="-558.5" font-family="Helvetica,sans-Serif" font-size="10.00">+ setCable()</text>
<text text-anchor="start" x="221" y="-547.5" font-family="Helvetica,sans-Serif" font-size="10.00">+ isValid()</text>
</a>
</g>
</g>
<!-- Node4&#45;&gt;Node5 -->
<g id="edge5" class="edge">
<title>Node4&#45;&gt;Node5</title>
<path fill="none" stroke="#404040" d="M221.96,-832.33C227.63,-817.46 233.72,-801.52 239.82,-785.53"/>
<polygon fill="none" stroke="#404040" points="239.98,-785.12 238.38,-778.08 244.26,-773.9 245.86,-780.94 239.98,-785.12"/>
<text text-anchor="middle" x="251.5" y="-806" font-family="Helvetica,sans-Serif" font-size="10.00"> +cable</text>
</g>
<!-- Node5&#45;&gt;Node2 -->
<g id="edge4" class="edge">
<title>Node5&#45;&gt;Node2</title>
<path fill="none" stroke="#404040" d="M244.29,-540.19C234.45,-514.39 224.38,-488.03 215.78,-465.49"/>
<polygon fill="none" stroke="#404040" points="215.7,-465.28 209.82,-461.1 211.42,-454.07 217.3,-458.25 215.7,-465.28"/>
<text text-anchor="middle" x="252.5" y="-503" font-family="Helvetica,sans-Serif" font-size="10.00"> #rtmsg</text>
</g>
<!-- Node6 -->
<g id="node6" class="node">
<title>Node6</title>
<g id="a_node6"><a xlink:href="../../d1/db1/classSysExBuffer.html" target="_top" xlink:title="Helper for storing the System Exclusive messages being received by a MIDI parser.">
<polygon fill="white" stroke="black" points="288.5,-325.5 288.5,-481.5 388.5,-481.5 388.5,-325.5 288.5,-325.5"/>
<text text-anchor="middle" x="338.5" y="-469.5" font-family="Helvetica,sans-Serif" font-size="10.00">SysExBuffer</text>
<polyline fill="none" stroke="black" points="288.5,-462.5 388.5,-462.5 "/>
<text text-anchor="start" x="296.5" y="-450.5" font-family="Helvetica,sans-Serif" font-size="10.00">&#45; buffer</text>
<text text-anchor="start" x="296.5" y="-439.5" font-family="Helvetica,sans-Serif" font-size="10.00">&#45; length</text>
<text text-anchor="start" x="296.5" y="-428.5" font-family="Helvetica,sans-Serif" font-size="10.00">&#45; receiving</text>
<polyline fill="none" stroke="black" points="288.5,-421.5 388.5,-421.5 "/>
<text text-anchor="start" x="296.5" y="-409.5" font-family="Helvetica,sans-Serif" font-size="10.00">+ start()</text>
<text text-anchor="start" x="296.5" y="-398.5" font-family="Helvetica,sans-Serif" font-size="10.00">+ end()</text>
<text text-anchor="start" x="296.5" y="-387.5" font-family="Helvetica,sans-Serif" font-size="10.00">+ add()</text>
<text text-anchor="start" x="296.5" y="-376.5" font-family="Helvetica,sans-Serif" font-size="10.00">+ add()</text>
<text text-anchor="start" x="296.5" y="-365.5" font-family="Helvetica,sans-Serif" font-size="10.00">+ hasSpaceLeft()</text>
<text text-anchor="start" x="296.5" y="-354.5" font-family="Helvetica,sans-Serif" font-size="10.00">+ isReceiving()</text>
<text text-anchor="start" x="296.5" y="-343.5" font-family="Helvetica,sans-Serif" font-size="10.00">+ getBuffer()</text>
<text text-anchor="start" x="296.5" y="-332.5" font-family="Helvetica,sans-Serif" font-size="10.00">+ getLength()</text>
</a>
</g>
</g>
<!-- Node6&#45;&gt;Node1 -->
<g id="edge6" class="edge">
<title>Node6&#45;&gt;Node1</title>
<path fill="none" stroke="#404040" d="M327.6,-325.16C326.02,-313.93 324.34,-302.07 322.64,-289.98"/>
<polygon fill="none" stroke="#404040" points="322.6,-289.73 317.81,-284.34 320.93,-277.84 325.73,-283.23 322.6,-289.73"/>
<text text-anchor="middle" x="358" y="-299" font-family="Helvetica,sans-Serif" font-size="10.00"> #sysexbuffer</text>
</g>
</g>
</svg>
