<?xml version="1.0" encoding="UTF-8" standalone="no"?>
<!DOCTYPE svg PUBLIC "-//W3C//DTD SVG 1.1//EN"
 "http://www.w3.org/Graphics/SVG/1.1/DTD/svg11.dtd">
<!-- Generated by graphviz version 2.43.0 (0)
 -->
<!-- Title: MIDI_Parser.hpp Pages: 1 -->
<svg width="1246pt" height="874pt"
 viewBox="0.00 0.00 1246.00 874.00" xmlns="http://www.w3.org/2000/svg" xmlns:xlink="http://www.w3.org/1999/xlink">
<g id="graph0" class="graph" transform="scale(1 1) rotate(0) translate(4 870)">
<title>MIDI_Parser.hpp</title>
<!-- Node1 -->
<g id="Node000001" class="node">
<title>Node1</title>
<g id="a_Node000001"><a xlink:title=" ">
<polygon fill="#999999" stroke="#666666" points="396.5,-866 301.5,-866 301.5,-847 396.5,-847 396.5,-866"/>
<text text-anchor="middle" x="349" y="-854" font-family="Helvetica,sans-Serif" font-size="10.00">MIDI_Parser.hpp</text>
</a>
</g>
</g>
<!-- Node2 -->
<g id="Node000002" class="node">
<title>Node2</title>
<g id="a_Node000002"><a xlink:title=" ">
<polygon fill="#e0e0e0" stroke="#999999" points="1142,-239 1086,-239 1086,-220 1142,-220 1142,-239"/>
<text text-anchor="middle" x="1114" y="-227" font-family="Helvetica,sans-Serif" font-size="10.00">stddef.h</text>
</a>
</g>
</g>
<!-- Node1&#45;&gt;Node2 -->
<g id="edge1_Node000001_Node000002" class="edge">
<title>Node1&#45;&gt;Node2</title>
<g id="a_edge1_Node000001_Node000002"><a xlink:title=" ">
<path fill="none" stroke="#63b8ff" d="M396.5,-854.3C571.77,-849.27 1172,-826.26 1172,-747.5 1172,-747.5 1172,-747.5 1172,-503.5 1172,-400.95 1173.87,-371.79 1140,-275 1136.64,-265.41 1131.15,-255.57 1126.07,-247.59"/>
<polygon fill="#63b8ff" stroke="#63b8ff" points="1128.93,-245.57 1120.46,-239.2 1123.11,-249.46 1128.93,-245.57"/>
</a>
</g>
</g>
<!-- Node3 -->
<g id="Node000003" class="node">
<title>Node3</title>
<g id="a_Node000003"><a xlink:title=" ">
<polygon fill="#e0e0e0" stroke="#999999" points="470.5,-239 417.5,-239 417.5,-220 470.5,-220 470.5,-239"/>
<text text-anchor="middle" x="444" y="-227" font-family="Helvetica,sans-Serif" font-size="10.00">stdint.h</text>
</a>
</g>
</g>
<!-- Node1&#45;&gt;Node3 -->
<g id="edge2_Node000001_Node000003" class="edge">
<title>Node1&#45;&gt;Node3</title>
<g id="a_edge2_Node000001_Node000003"><a xlink:title=" ">
<path fill="none" stroke="#63b8ff" d="M301.3,-853.88C237.02,-850.58 127.76,-840.65 103,-811 -0.99,-686.51 160,-612.71 160,-450.5 160,-450.5 160,-450.5 160,-338.5 160,-309.04 156.92,-294.5 179,-275 212.29,-245.61 342.65,-235.32 407.27,-231.98"/>
<polygon fill="#63b8ff" stroke="#63b8ff" points="407.61,-235.47 417.43,-231.48 407.27,-228.47 407.61,-235.47"/>
</a>
</g>
</g>
<!-- Node4 -->
<g id="Node000004" class="node">
<title>Node4</title>
<g id="a_Node000004"><a xlink:title=" ">
<polygon fill="#e0e0e0" stroke="#999999" points="320.5,-811 267.5,-811 267.5,-792 320.5,-792 320.5,-811"/>
<text text-anchor="middle" x="294" y="-799" font-family="Helvetica,sans-Serif" font-size="10.00">stdlib.h</text>
</a>
</g>
</g>
<!-- Node1&#45;&gt;Node4 -->
<g id="edge3_Node000001_Node000004" class="edge">
<title>Node1&#45;&gt;Node4</title>
<g id="a_edge3_Node000001_Node000004"><a xlink:title=" ">
<path fill="none" stroke="#63b8ff" d="M339.92,-846.75C331.91,-839.03 320.04,-827.6 310.38,-818.28"/>
<polygon fill="#63b8ff" stroke="#63b8ff" points="312.54,-815.51 302.91,-811.09 307.69,-820.55 312.54,-815.51"/>
</a>
</g>
</g>
<!-- Node5 -->
<g id="Node000005" class="node">
<title>Node5</title>
<g id="a_Node000005"><a xlink:href="../../d0/d4e/Def_8hpp.html" target="_top" xlink:title=" ">
<polygon fill="white" stroke="#666666" points="483,-701 409,-701 409,-682 483,-682 483,-701"/>
<text text-anchor="middle" x="446" y="-689" font-family="Helvetica,sans-Serif" font-size="10.00">Def/Def.hpp</text>
</a>
</g>
</g>
<!-- Node1&#45;&gt;Node5 -->
<g id="edge4_Node000001_Node000005" class="edge">
<title>Node1&#45;&gt;Node5</title>
<g id="a_edge4_Node000001_Node000005"><a xlink:title=" ">
<path fill="none" stroke="#63b8ff" d="M396.79,-851.57C449.52,-846.12 529.41,-834.21 548,-811 579.34,-771.87 512.37,-727.52 472.63,-705.85"/>
<polygon fill="#63b8ff" stroke="#63b8ff" points="474.13,-702.69 463.66,-701.09 470.85,-708.87 474.13,-702.69"/>
</a>
</g>
</g>
<!-- Node34 -->
<g id="Node000034" class="node">
<title>Node34</title>
<g id="a_Node000034"><a xlink:title=" ">
<polygon fill="#e0e0e0" stroke="#999999" points="538.5,-811 377.5,-811 377.5,-792 538.5,-792 538.5,-811"/>
<text text-anchor="middle" x="458" y="-799" font-family="Helvetica,sans-Serif" font-size="10.00">Settings/SettingsWrapper.hpp</text>
</a>
</g>
</g>
<!-- Node1&#45;&gt;Node34 -->
<g id="edge59_Node000001_Node000034" class="edge">
<title>Node1&#45;&gt;Node34</title>
<g id="a_edge59_Node000001_Node000034"><a xlink:title=" ">
<path fill="none" stroke="#63b8ff" d="M366.51,-846.98C383.97,-838.5 411.01,-825.35 431.17,-815.54"/>
<polygon fill="#63b8ff" stroke="#63b8ff" points="432.71,-818.69 440.17,-811.17 429.64,-812.4 432.71,-818.69"/>
</a>
</g>
</g>
<!-- Node35 -->
<g id="Node000035" class="node">
<title>Node35</title>
<g id="a_Node000035"><a xlink:href="../../d1/d70/MIDIReadEvent_8hpp.html" target="_top" xlink:title=" ">
<polygon fill="white" stroke="#666666" points="415.5,-404 302.5,-404 302.5,-385 415.5,-385 415.5,-404"/>
<text text-anchor="middle" x="359" y="-392" font-family="Helvetica,sans-Serif" font-size="10.00">MIDIReadEvent.hpp</text>
</a>
</g>
</g>
<!-- Node1&#45;&gt;Node35 -->
<g id="edge60_Node000001_Node000035" class="edge">
<title>Node1&#45;&gt;Node35</title>
<g id="a_edge60_Node000001_Node000035"><a xlink:title=" ">
<path fill="none" stroke="#63b8ff" d="M348.13,-846.99C344.67,-812.18 332,-677.27 332,-566 332,-566 332,-566 332,-503.5 332,-471.09 343.58,-434.81 351.58,-413.63"/>
<polygon fill="#63b8ff" stroke="#63b8ff" points="354.85,-414.86 355.25,-404.27 348.33,-412.3 354.85,-414.86"/>
</a>
</g>
</g>
<!-- Node36 -->
<g id="Node000036" class="node">
<title>Node36</title>
<g id="a_Node000036"><a xlink:href="../../dc/d40/MIDI__MessageTypes_8hpp.html" target="_top" xlink:title=" ">
<polygon fill="white" stroke="#666666" points="249.5,-811 112.5,-811 112.5,-792 249.5,-792 249.5,-811"/>
<text text-anchor="middle" x="181" y="-799" font-family="Helvetica,sans-Serif" font-size="10.00">MIDI_MessageTypes.hpp</text>
</a>
</g>
</g>
<!-- Node1&#45;&gt;Node36 -->
<g id="edge64_Node000001_Node000036" class="edge">
<title>Node1&#45;&gt;Node36</title>
<g id="a_edge64_Node000001_Node000036"><a xlink:title=" ">
<path fill="none" stroke="#63b8ff" d="M322.01,-846.98C293.8,-838.09 249.36,-824.07 217.92,-814.15"/>
<polygon fill="#63b8ff" stroke="#63b8ff" points="218.79,-810.75 208.2,-811.08 216.69,-817.43 218.79,-810.75"/>
</a>
</g>
</g>
<!-- Node5&#45;&gt;Node2 -->
<g id="edge57_Node000005_Node000002" class="edge">
<title>Node5&#45;&gt;Node2</title>
<g id="a_edge57_Node000005_Node000002"><a xlink:title=" ">
<path fill="none" stroke="#63b8ff" d="M483.24,-690.31C580.12,-688.44 845.93,-674.42 1040,-580 1079.93,-560.58 1096.71,-554.46 1115,-514 1156.48,-422.24 1131.02,-296.07 1119.12,-249.1"/>
<polygon fill="#63b8ff" stroke="#63b8ff" points="1122.5,-248.17 1116.56,-239.39 1115.73,-249.95 1122.5,-248.17"/>
</a>
</g>
</g>
<!-- Node5&#45;&gt;Node3 -->
<g id="edge58_Node000005_Node000003" class="edge">
<title>Node5&#45;&gt;Node3</title>
<g id="a_edge58_Node000005_Node000003"><a xlink:title=" ">
<path fill="none" stroke="#63b8ff" d="M445.05,-681.7C442.34,-655.95 434.55,-578.5 432,-514 428.06,-414.38 437.85,-295.09 442.12,-249.49"/>
<polygon fill="#63b8ff" stroke="#63b8ff" points="445.63,-249.61 443.1,-239.32 438.66,-248.94 445.63,-249.61"/>
</a>
</g>
</g>
<!-- Node6 -->
<g id="Node000006" class="node">
<title>Node6</title>
<g id="a_Node000006"><a xlink:href="../../d2/dbc/Cable_8hpp.html" target="_top" xlink:title=" ">
<polygon fill="white" stroke="#666666" points="93.5,-574.5 28.5,-574.5 28.5,-555.5 93.5,-555.5 93.5,-574.5"/>
<text text-anchor="middle" x="61" y="-562.5" font-family="Helvetica,sans-Serif" font-size="10.00">Cable.hpp</text>
</a>
</g>
</g>
<!-- Node5&#45;&gt;Node6 -->
<g id="edge5_Node000005_Node000006" class="edge">
<title>Node5&#45;&gt;Node6</title>
<g id="a_edge5_Node000005_Node000006"><a xlink:title=" ">
<path fill="none" stroke="#63b8ff" d="M408.91,-688.64C357.69,-685.06 263.11,-674.83 188,-646 146.15,-629.94 103.2,-599.34 79.52,-580.99"/>
<polygon fill="#63b8ff" stroke="#63b8ff" points="81.45,-578.06 71.43,-574.62 77.12,-583.56 81.45,-578.06"/>
</a>
</g>
</g>
<!-- Node14 -->
<g id="Node000014" class="node">
<title>Node14</title>
<g id="a_Node000014"><a xlink:title=" ">
<polygon fill="#e0e0e0" stroke="#999999" points="366,-294 188,-294 188,-275 366,-275 366,-294"/>
<text text-anchor="middle" x="277" y="-282" font-family="Helvetica,sans-Serif" font-size="10.00">Settings/NamespaceSettings.hpp</text>
</a>
</g>
</g>
<!-- Node5&#45;&gt;Node14 -->
<g id="edge56_Node000005_Node000014" class="edge">
<title>Node5&#45;&gt;Node14</title>
<g id="a_edge56_Node000005_Node000014"><a xlink:title=" ">
<path fill="none" stroke="#63b8ff" d="M432.94,-681.98C421.4,-673.89 404.77,-660.79 394,-646 325.42,-551.77 323.5,-516.48 293,-404 283.66,-369.56 279.65,-327.95 278.02,-304.32"/>
<polygon fill="#63b8ff" stroke="#63b8ff" points="281.51,-304.04 277.4,-294.28 274.53,-304.47 281.51,-304.04"/>
</a>
</g>
</g>
<!-- Node15 -->
<g id="Node000015" class="node">
<title>Node15</title>
<g id="a_Node000015"><a xlink:href="../../d7/d42/Channel_8hpp.html" target="_top" xlink:title=" ">
<polygon fill="white" stroke="#666666" points="274.5,-640.5 197.5,-640.5 197.5,-621.5 274.5,-621.5 274.5,-640.5"/>
<text text-anchor="middle" x="236" y="-628.5" font-family="Helvetica,sans-Serif" font-size="10.00">Channel.hpp</text>
</a>
</g>
</g>
<!-- Node5&#45;&gt;Node15 -->
<g id="edge16_Node000005_Node000015" class="edge">
<title>Node5&#45;&gt;Node15</title>
<g id="a_edge16_Node000005_Node000015"><a xlink:title=" ">
<path fill="none" stroke="#63b8ff" d="M415.46,-681.99C378.76,-671.77 317.05,-654.58 276.42,-643.26"/>
<polygon fill="#63b8ff" stroke="#63b8ff" points="277.15,-639.83 266.57,-640.52 275.27,-646.57 277.15,-639.83"/>
</a>
</g>
</g>
<!-- Node16 -->
<g id="Node000016" class="node">
<title>Node16</title>
<g id="a_Node000016"><a xlink:href="../../de/d76/Array_8hpp.html" target="_top" xlink:title=" ">
<polygon fill="white" stroke="#666666" points="823.5,-514 688.5,-514 688.5,-495 823.5,-495 823.5,-514"/>
<text text-anchor="middle" x="756" y="-502" font-family="Helvetica,sans-Serif" font-size="10.00">AH/Containers/Array.hpp</text>
</a>
</g>
</g>
<!-- Node5&#45;&gt;Node16 -->
<g id="edge19_Node000005_Node000016" class="edge">
<title>Node5&#45;&gt;Node16</title>
<g id="a_edge19_Node000005_Node000016"><a xlink:title=" ">
<path fill="none" stroke="#63b8ff" d="M483.08,-687.07C520.13,-682.31 577.65,-671.23 621,-646 676.4,-613.75 723.75,-552.26 744.62,-522.49"/>
<polygon fill="#63b8ff" stroke="#63b8ff" points="747.66,-524.24 750.44,-514.02 741.89,-520.28 747.66,-524.24"/>
</a>
</g>
</g>
<!-- Node28 -->
<g id="Node000028" class="node">
<title>Node28</title>
<g id="a_Node000028"><a xlink:href="../../d2/d3c/Arduino-Hardware-Types_8hpp.html" target="_top" xlink:title=" ">
<polygon fill="white" stroke="#666666" points="596,-646 474,-646 474,-616 596,-616 596,-646"/>
<text text-anchor="start" x="482" y="-634" font-family="Helvetica,sans-Serif" font-size="10.00">AH/Hardware/Arduino</text>
<text text-anchor="middle" x="535" y="-623" font-family="Helvetica,sans-Serif" font-size="10.00">&#45;Hardware&#45;Types.hpp</text>
</a>
</g>
</g>
<!-- Node5&#45;&gt;Node28 -->
<g id="edge42_Node000005_Node000028" class="edge">
<title>Node5&#45;&gt;Node28</title>
<g id="a_edge42_Node000005_Node000028"><a xlink:title=" ">
<path fill="none" stroke="#63b8ff" d="M459.13,-681.87C471.1,-674 489.22,-662.09 504.75,-651.89"/>
<polygon fill="#63b8ff" stroke="#63b8ff" points="507.09,-654.53 513.53,-646.11 503.25,-648.68 507.09,-654.53"/>
</a>
</g>
</g>
<!-- Node29 -->
<g id="Node000029" class="node">
<title>Node29</title>
<g id="a_Node000029"><a xlink:href="../../d4/d35/Hardware-Types_8hpp.html" target="_top" xlink:title=" ">
<polygon fill="white" stroke="#666666" points="643.5,-580 512.5,-580 512.5,-550 643.5,-550 643.5,-580"/>
<text text-anchor="start" x="520.5" y="-568" font-family="Helvetica,sans-Serif" font-size="10.00">AH/Hardware/Hardware</text>
<text text-anchor="middle" x="578" y="-557" font-family="Helvetica,sans-Serif" font-size="10.00">&#45;Types.hpp</text>
</a>
</g>
</g>
<!-- Node5&#45;&gt;Node29 -->
<g id="edge54_Node000005_Node000029" class="edge">
<title>Node5&#45;&gt;Node29</title>
<g id="a_edge54_Node000005_Node000029"><a xlink:title=" ">
<path fill="none" stroke="#63b8ff" d="M483.16,-685.32C525.37,-678.59 590.32,-665.36 605,-646 617.82,-629.09 607.51,-605.73 596.13,-588.61"/>
<polygon fill="#63b8ff" stroke="#63b8ff" points="598.85,-586.4 590.19,-580.3 593.15,-590.47 598.85,-586.4"/>
</a>
</g>
</g>
<!-- Node30 -->
<g id="Node000030" class="node">
<title>Node30</title>
<g id="a_Node000030"><a xlink:title=" ">
<polygon fill="#e0e0e0" stroke="#999999" points="556,-514 474,-514 474,-495 556,-495 556,-514"/>
<text text-anchor="middle" x="515" y="-502" font-family="Helvetica,sans-Serif" font-size="10.00">AH/STL/limits</text>
</a>
</g>
</g>
<!-- Node5&#45;&gt;Node30 -->
<g id="edge55_Node000005_Node000030" class="edge">
<title>Node5&#45;&gt;Node30</title>
<g id="a_edge55_Node000005_Node000030"><a xlink:title=" ">
<path fill="none" stroke="#63b8ff" d="M447.73,-681.64C450.61,-667.52 456.87,-639.18 465,-616 476.85,-582.21 495.02,-544.55 505.89,-523.07"/>
<polygon fill="#63b8ff" stroke="#63b8ff" points="509,-524.66 510.44,-514.17 502.77,-521.47 509,-524.66"/>
</a>
</g>
</g>
<!-- Node7 -->
<g id="Node000007" class="node">
<title>Node7</title>
<g id="a_Node000007"><a xlink:href="../../d6/ddf/Arduino-Wrapper_8h.html" target="_top" xlink:title=" ">
<polygon fill="white" stroke="#666666" points="582,-184 458,-184 458,-165 582,-165 582,-184"/>
<text text-anchor="middle" x="520" y="-172" font-family="Helvetica,sans-Serif" font-size="10.00">AH/Arduino&#45;Wrapper.h</text>
</a>
</g>
</g>
<!-- Node6&#45;&gt;Node7 -->
<g id="edge6_Node000006_Node000007" class="edge">
<title>Node6&#45;&gt;Node7</title>
<g id="a_edge6_Node000006_Node000007"><a xlink:title=" ">
<path fill="none" stroke="#63b8ff" d="M59.04,-555.22C54.97,-536.23 46,-489.85 46,-450.5 46,-450.5 46,-450.5 46,-283.5 46,-244.06 72.53,-237.24 108,-220 166.18,-191.72 345.91,-181.21 447.72,-177.46"/>
<polygon fill="#63b8ff" stroke="#63b8ff" points="448.06,-180.95 457.93,-177.1 447.81,-173.96 448.06,-180.95"/>
</a>
</g>
</g>
<!-- Node6&#45;&gt;Node14 -->
<g id="edge15_Node000006_Node000014" class="edge">
<title>Node6&#45;&gt;Node14</title>
<g id="a_edge15_Node000006_Node000014"><a xlink:title=" ">
<path fill="none" stroke="#63b8ff" d="M64.01,-555.29C70.24,-536.43 84,-490.31 84,-450.5 84,-450.5 84,-450.5 84,-393.5 84,-336.12 149.77,-308.93 204.53,-296.23"/>
<polygon fill="#63b8ff" stroke="#63b8ff" points="205.58,-299.58 214.6,-294.03 204.09,-292.75 205.58,-299.58"/>
</a>
</g>
</g>
<!-- Node8 -->
<g id="Node000008" class="node">
<title>Node8</title>
<g id="a_Node000008"><a xlink:href="../../d7/d79/MinMaxFix_8hpp.html" target="_top" xlink:title=" ">
<polygon fill="white" stroke="#666666" points="636,-129 500,-129 500,-110 636,-110 636,-129"/>
<text text-anchor="middle" x="568" y="-117" font-family="Helvetica,sans-Serif" font-size="10.00">AH/Math/MinMaxFix.hpp</text>
</a>
</g>
</g>
<!-- Node7&#45;&gt;Node8 -->
<g id="edge7_Node000007_Node000008" class="edge">
<title>Node7&#45;&gt;Node8</title>
<g id="a_edge7_Node000007_Node000008"><a xlink:title=" ">
<path fill="none" stroke="#63b8ff" d="M527.93,-164.75C534.85,-157.11 545.07,-145.82 553.45,-136.56"/>
<polygon fill="#63b8ff" stroke="#63b8ff" points="556.1,-138.85 560.22,-129.09 550.91,-134.15 556.1,-138.85"/>
</a>
</g>
</g>
<!-- Node11 -->
<g id="Node000011" class="node">
<title>Node11</title>
<g id="a_Node000011"><a xlink:title=" ">
<polygon fill="#e0e0e0" stroke="#999999" points="559.5,-19 496.5,-19 496.5,0 559.5,0 559.5,-19"/>
<text text-anchor="middle" x="528" y="-7" font-family="Helvetica,sans-Serif" font-size="10.00">Arduino.h</text>
</a>
</g>
</g>
<!-- Node7&#45;&gt;Node11 -->
<g id="edge14_Node000007_Node000011" class="edge">
<title>Node7&#45;&gt;Node11</title>
<g id="a_edge14_Node000007_Node000011"><a xlink:title=" ">
<path fill="none" stroke="#63b8ff" d="M512.06,-164.75C504.97,-156.3 495.1,-142.79 491,-129 481.63,-97.47 479.82,-85.93 491,-55 494.94,-44.09 502.86,-33.96 510.36,-26.14"/>
<polygon fill="#63b8ff" stroke="#63b8ff" points="512.84,-28.61 517.56,-19.13 507.95,-23.6 512.84,-28.61"/>
</a>
</g>
</g>
<!-- Node13 -->
<g id="Node000013" class="node">
<title>Node13</title>
<g id="a_Node000013"><a xlink:title=" ">
<polygon fill="#e0e0e0" stroke="#999999" points="761.5,-129 654.5,-129 654.5,-110 761.5,-110 761.5,-129"/>
<text text-anchor="middle" x="708" y="-117" font-family="Helvetica,sans-Serif" font-size="10.00">AH/STL/type_traits</text>
</a>
</g>
</g>
<!-- Node7&#45;&gt;Node13 -->
<g id="edge13_Node000007_Node000013" class="edge">
<title>Node7&#45;&gt;Node13</title>
<g id="a_edge13_Node000007_Node000013"><a xlink:title=" ">
<path fill="none" stroke="#63b8ff" d="M550.21,-164.98C582.04,-156.01 632.36,-141.82 667.6,-131.89"/>
<polygon fill="#63b8ff" stroke="#63b8ff" points="668.88,-135.16 677.56,-129.08 666.98,-128.43 668.88,-135.16"/>
</a>
</g>
</g>
<!-- Node9 -->
<g id="Node000009" class="node">
<title>Node9</title>
<g id="a_Node000009"><a xlink:href="../../d6/d3b/FixArduinoMacros_8hpp.html" target="_top" xlink:title=" ">
<polygon fill="white" stroke="#666666" points="670,-74 500,-74 500,-55 670,-55 670,-74"/>
<text text-anchor="middle" x="585" y="-62" font-family="Helvetica,sans-Serif" font-size="10.00">AH/Math/FixArduinoMacros.hpp</text>
</a>
</g>
</g>
<!-- Node8&#45;&gt;Node9 -->
<g id="edge8_Node000008_Node000009" class="edge">
<title>Node8&#45;&gt;Node9</title>
<g id="a_edge8_Node000008_Node000009"><a xlink:title=" ">
<path fill="none" stroke="#63b8ff" d="M570.81,-109.75C573.06,-102.72 576.3,-92.62 579.12,-83.84"/>
<polygon fill="#63b8ff" stroke="#63b8ff" points="582.52,-84.68 582.25,-74.09 575.86,-82.54 582.52,-84.68"/>
</a>
</g>
</g>
<!-- Node12 -->
<g id="Node000012" class="node">
<title>Node12</title>
<g id="a_Node000012"><a xlink:href="../../d6/db0/AH_2Settings_2NamespaceSettings_8hpp.html" target="_top" xlink:title=" ">
<polygon fill="white" stroke="#666666" points="1047.5,-74 852.5,-74 852.5,-55 1047.5,-55 1047.5,-74"/>
<text text-anchor="middle" x="950" y="-62" font-family="Helvetica,sans-Serif" font-size="10.00">AH/Settings/NamespaceSettings.hpp</text>
</a>
</g>
</g>
<!-- Node8&#45;&gt;Node12 -->
<g id="edge11_Node000008_Node000012" class="edge">
<title>Node8&#45;&gt;Node12</title>
<g id="a_edge11_Node000008_Node000012"><a xlink:title=" ">
<path fill="none" stroke="#63b8ff" d="M629.37,-109.98C697.22,-100.57 806.37,-85.43 878.15,-75.47"/>
<polygon fill="#63b8ff" stroke="#63b8ff" points="879.04,-78.88 888.46,-74.04 878.07,-71.95 879.04,-78.88"/>
</a>
</g>
</g>
<!-- Node10 -->
<g id="Node000010" class="node">
<title>Node10</title>
<g id="a_Node000010"><a xlink:href="../../d1/d65/Warnings_8hpp.html" target="_top" xlink:title=" ">
<polygon fill="white" stroke="#666666" points="862.5,-19 719.5,-19 719.5,0 862.5,0 862.5,-19"/>
<text text-anchor="middle" x="791" y="-7" font-family="Helvetica,sans-Serif" font-size="10.00">AH/Settings/Warnings.hpp</text>
</a>
</g>
</g>
<!-- Node9&#45;&gt;Node10 -->
<g id="edge9_Node000009_Node000010" class="edge">
<title>Node9&#45;&gt;Node10</title>
<g id="a_edge9_Node000009_Node000010"><a xlink:title=" ">
<path fill="none" stroke="#63b8ff" d="M618.1,-54.98C653.28,-45.93 709.07,-31.58 747.72,-21.64"/>
<polygon fill="#63b8ff" stroke="#63b8ff" points="748.83,-24.96 757.64,-19.08 747.09,-18.18 748.83,-24.96"/>
</a>
</g>
</g>
<!-- Node9&#45;&gt;Node11 -->
<g id="edge10_Node000009_Node000011" class="edge">
<title>Node9&#45;&gt;Node11</title>
<g id="a_edge10_Node000009_Node000011"><a xlink:title=" ">
<path fill="none" stroke="#63b8ff" d="M575.84,-54.98C567.5,-47.23 554.97,-35.58 544.82,-26.14"/>
<polygon fill="#63b8ff" stroke="#63b8ff" points="547.03,-23.42 537.32,-19.17 542.26,-28.54 547.03,-23.42"/>
</a>
</g>
</g>
<!-- Node12&#45;&gt;Node10 -->
<g id="edge12_Node000012_Node000010" class="edge">
<title>Node12&#45;&gt;Node10</title>
<g id="a_edge12_Node000012_Node000010"><a xlink:title=" ">
<path fill="none" stroke="#63b8ff" d="M924.45,-54.98C897.88,-46.13 856.06,-32.19 826.33,-22.28"/>
<polygon fill="#63b8ff" stroke="#63b8ff" points="827.34,-18.92 816.75,-19.08 825.13,-25.56 827.34,-18.92"/>
</a>
</g>
</g>
<!-- Node15&#45;&gt;Node7 -->
<g id="edge17_Node000015_Node000007" class="edge">
<title>Node15&#45;&gt;Node7</title>
<g id="a_edge17_Node000015_Node000007"><a xlink:title=" ">
<path fill="none" stroke="#63b8ff" d="M225.07,-621.19C196.54,-597.12 122,-526.92 122,-450.5 122,-450.5 122,-450.5 122,-283.5 122,-216.78 332.95,-189.97 447.69,-180.32"/>
<polygon fill="#63b8ff" stroke="#63b8ff" points="448.13,-183.79 457.81,-179.49 447.56,-176.81 448.13,-183.79"/>
</a>
</g>
</g>
<!-- Node15&#45;&gt;Node14 -->
<g id="edge18_Node000015_Node000014" class="edge">
<title>Node15&#45;&gt;Node14</title>
<g id="a_edge18_Node000015_Node000014"><a xlink:title=" ">
<path fill="none" stroke="#63b8ff" d="M236,-621.25C236,-600.92 236,-548.95 236,-505.5 236,-505.5 236,-505.5 236,-393.5 236,-359.57 253.91,-323.31 266.06,-302.62"/>
<polygon fill="#63b8ff" stroke="#63b8ff" points="269.07,-304.4 271.3,-294.04 263.1,-300.75 269.07,-304.4"/>
</a>
</g>
</g>
<!-- Node16&#45;&gt;Node2 -->
<g id="edge41_Node000016_Node000002" class="edge">
<title>Node16&#45;&gt;Node2</title>
<g id="a_edge41_Node000016_Node000002"><a xlink:title=" ">
<path fill="none" stroke="#63b8ff" d="M823.93,-496.29C861.82,-490.2 908.91,-479.1 947,-459 1010.99,-425.24 1025.96,-408.58 1067,-349 1088.99,-317.07 1102.89,-273.36 1109.48,-248.93"/>
<polygon fill="#63b8ff" stroke="#63b8ff" points="1112.89,-249.74 1111.99,-239.18 1106.11,-247.99 1112.89,-249.74"/>
</a>
</g>
</g>
<!-- Node16&#45;&gt;Node13 -->
<g id="edge40_Node000016_Node000013" class="edge">
<title>Node16&#45;&gt;Node13</title>
<g id="a_edge40_Node000016_Node000013"><a xlink:title=" ">
<path fill="none" stroke="#63b8ff" d="M764.48,-494.85C772.05,-486.47 782.6,-473.01 787,-459 789.53,-450.94 788.97,-448.21 787,-440 774.2,-386.65 762.34,-375.02 731,-330 699.55,-284.83 667.04,-290.26 647,-239 632,-200.64 667.36,-158.33 690.29,-136.11"/>
<polygon fill="#63b8ff" stroke="#63b8ff" points="692.85,-138.51 697.78,-129.13 688.08,-133.39 692.85,-138.51"/>
</a>
</g>
</g>
<!-- Node17 -->
<g id="Node000017" class="node">
<title>Node17</title>
<g id="a_Node000017"><a xlink:href="../../d1/d93/Error_8hpp.html" target="_top" xlink:title=" ">
<polygon fill="white" stroke="#666666" points="938,-459 834,-459 834,-440 938,-440 938,-459"/>
<text text-anchor="middle" x="886" y="-447" font-family="Helvetica,sans-Serif" font-size="10.00">AH/Error/Error.hpp</text>
</a>
</g>
</g>
<!-- Node16&#45;&gt;Node17 -->
<g id="edge20_Node000016_Node000017" class="edge">
<title>Node16&#45;&gt;Node17</title>
<g id="a_edge20_Node000016_Node000017"><a xlink:title=" ">
<path fill="none" stroke="#63b8ff" d="M776.89,-494.98C798.08,-486.34 831.13,-472.87 855.3,-463.02"/>
<polygon fill="#63b8ff" stroke="#63b8ff" points="856.79,-466.19 864.73,-459.17 854.15,-459.7 856.79,-466.19"/>
</a>
</g>
</g>
<!-- Node27 -->
<g id="Node000027" class="node">
<title>Node27</title>
<g id="a_Node000027"><a xlink:title=" ">
<polygon fill="#e0e0e0" stroke="#999999" points="778,-459 688,-459 688,-440 778,-440 778,-459"/>
<text text-anchor="middle" x="733" y="-447" font-family="Helvetica,sans-Serif" font-size="10.00">AH/STL/iterator</text>
</a>
</g>
</g>
<!-- Node16&#45;&gt;Node27 -->
<g id="edge39_Node000016_Node000027" class="edge">
<title>Node16&#45;&gt;Node27</title>
<g id="a_edge39_Node000016_Node000027"><a xlink:title=" ">
<path fill="none" stroke="#63b8ff" d="M752.2,-494.75C749.09,-487.57 744.58,-477.18 740.71,-468.27"/>
<polygon fill="#63b8ff" stroke="#63b8ff" points="743.92,-466.87 736.73,-459.09 737.5,-469.66 743.92,-466.87"/>
</a>
</g>
</g>
<!-- Node18 -->
<g id="Node000018" class="node">
<title>Node18</title>
<g id="a_Node000018"><a xlink:href="../../df/dee/Debug_8hpp.html" target="_top" xlink:title=" ">
<polygon fill="white" stroke="#666666" points="946.5,-404 825.5,-404 825.5,-385 946.5,-385 946.5,-404"/>
<text text-anchor="middle" x="886" y="-392" font-family="Helvetica,sans-Serif" font-size="10.00">AH/Debug/Debug.hpp</text>
</a>
</g>
</g>
<!-- Node17&#45;&gt;Node18 -->
<g id="edge21_Node000017_Node000018" class="edge">
<title>Node17&#45;&gt;Node18</title>
<g id="a_edge21_Node000017_Node000018"><a xlink:title=" ">
<path fill="none" stroke="#63b8ff" d="M886,-439.75C886,-432.8 886,-422.85 886,-414.13"/>
<polygon fill="#63b8ff" stroke="#63b8ff" points="889.5,-414.09 886,-404.09 882.5,-414.09 889.5,-414.09"/>
</a>
</g>
</g>
<!-- Node19 -->
<g id="Node000019" class="node">
<title>Node19</title>
<g id="a_Node000019"><a xlink:href="../../dd/d80/PrintStream_8hpp.html" target="_top" xlink:title=" ">
<polygon fill="white" stroke="#666666" points="721.5,-349 548.5,-349 548.5,-330 721.5,-330 721.5,-349"/>
<text text-anchor="middle" x="635" y="-337" font-family="Helvetica,sans-Serif" font-size="10.00">AH/PrintStream/PrintStream.hpp</text>
</a>
</g>
</g>
<!-- Node18&#45;&gt;Node19 -->
<g id="edge22_Node000018_Node000019" class="edge">
<title>Node18&#45;&gt;Node19</title>
<g id="a_edge22_Node000018_Node000019"><a xlink:title=" ">
<path fill="none" stroke="#63b8ff" d="M845.67,-384.98C802.16,-375.8 732.8,-361.15 685.65,-351.19"/>
<polygon fill="#63b8ff" stroke="#63b8ff" points="686.15,-347.72 675.64,-349.08 684.7,-354.57 686.15,-347.72"/>
</a>
</g>
</g>
<!-- Node20 -->
<g id="Node000020" class="node">
<title>Node20</title>
<g id="a_Node000020"><a xlink:href="../../de/dd1/AH_2Settings_2SettingsWrapper_8hpp.html" target="_top" xlink:title=" ">
<polygon fill="white" stroke="#666666" points="1058,-349 880,-349 880,-330 1058,-330 1058,-349"/>
<text text-anchor="middle" x="969" y="-337" font-family="Helvetica,sans-Serif" font-size="10.00">AH/Settings/SettingsWrapper.hpp</text>
</a>
</g>
</g>
<!-- Node18&#45;&gt;Node20 -->
<g id="edge26_Node000018_Node000020" class="edge">
<title>Node18&#45;&gt;Node20</title>
<g id="a_edge26_Node000018_Node000020"><a xlink:title=" ">
<path fill="none" stroke="#63b8ff" d="M894.22,-384.98C905.38,-376.69 925.05,-363.94 941.52,-354.22"/>
<polygon fill="#63b8ff" stroke="#63b8ff" points="943.36,-357.2 950.27,-349.17 939.86,-351.13 943.36,-357.2"/>
</a>
</g>
</g>
<!-- Node26 -->
<g id="Node000026" class="node">
<title>Node26</title>
<g id="a_Node000026"><a xlink:href="../../d7/d52/DebugVal_8hpp.html" target="_top" xlink:title=" ">
<polygon fill="white" stroke="#666666" points="862,-349 778,-349 778,-330 862,-330 862,-349"/>
<text text-anchor="middle" x="820" y="-337" font-family="Helvetica,sans-Serif" font-size="10.00">DebugVal.hpp</text>
</a>
</g>
</g>
<!-- Node18&#45;&gt;Node26 -->
<g id="edge38_Node000018_Node000026" class="edge">
<title>Node18&#45;&gt;Node26</title>
<g id="a_edge38_Node000018_Node000026"><a xlink:title=" ">
<path fill="none" stroke="#63b8ff" d="M875.4,-384.98C865.54,-377.07 850.65,-365.11 838.78,-355.58"/>
<polygon fill="#63b8ff" stroke="#63b8ff" points="840.79,-352.7 830.8,-349.17 836.4,-358.16 840.79,-352.7"/>
</a>
</g>
</g>
<!-- Node19&#45;&gt;Node7 -->
<g id="edge23_Node000019_Node000007" class="edge">
<title>Node19&#45;&gt;Node7</title>
<g id="a_edge23_Node000019_Node000007"><a xlink:title=" ">
<path fill="none" stroke="#63b8ff" d="M628.82,-329.74C610.57,-303.87 556.67,-227.48 532.26,-192.88"/>
<polygon fill="#63b8ff" stroke="#63b8ff" points="534.84,-190.46 526.21,-184.31 529.12,-194.5 534.84,-190.46"/>
</a>
</g>
</g>
<!-- Node19&#45;&gt;Node12 -->
<g id="edge24_Node000019_Node000012" class="edge">
<title>Node19&#45;&gt;Node12</title>
<g id="a_edge24_Node000019_Node000012"><a xlink:title=" ">
<path fill="none" stroke="#63b8ff" d="M675.14,-329.96C708.78,-322.25 757.79,-309.71 799,-294 800.6,-293.39 907.84,-240.26 909,-239 949.29,-195.21 952.19,-119.33 951.13,-84.26"/>
<polygon fill="#63b8ff" stroke="#63b8ff" points="954.62,-83.87 950.67,-74.04 947.63,-84.19 954.62,-83.87"/>
</a>
</g>
</g>
<!-- Node19&#45;&gt;Node14 -->
<g id="edge25_Node000019_Node000014" class="edge">
<title>Node19&#45;&gt;Node14</title>
<g id="a_edge25_Node000019_Node000014"><a xlink:title=" ">
<path fill="none" stroke="#63b8ff" d="M577.48,-329.98C514.03,-320.59 412.02,-305.49 344.75,-295.53"/>
<polygon fill="#63b8ff" stroke="#63b8ff" points="345.08,-292.04 334.67,-294.04 344.05,-298.96 345.08,-292.04"/>
</a>
</g>
</g>
<!-- Node20&#45;&gt;Node12 -->
<g id="edge27_Node000020_Node000012" class="edge">
<title>Node20&#45;&gt;Node12</title>
<g id="a_edge27_Node000020_Node000012"><a xlink:title=" ">
<path fill="none" stroke="#63b8ff" d="M985.87,-329.97C999.4,-322.3 1017.9,-309.82 1029,-294 1045.92,-269.88 1048,-259.96 1048,-230.5 1048,-230.5 1048,-230.5 1048,-173.5 1048,-130.55 1004.97,-97.1 975.93,-79.42"/>
<polygon fill="#63b8ff" stroke="#63b8ff" points="977.47,-76.26 967.07,-74.24 973.94,-82.3 977.47,-76.26"/>
</a>
</g>
</g>
<!-- Node20&#45;&gt;Node18 -->
<g id="edge37_Node000020_Node000018" class="edge">
<title>Node20&#45;&gt;Node18</title>
<g id="a_edge37_Node000020_Node000018"><a xlink:title=" ">
<path fill="none" stroke="#63b8ff" d="M960.57,-349.17C949.3,-357.52 929.6,-370.28 913.17,-379.97"/>
<polygon fill="#63b8ff" stroke="#63b8ff" points="911.37,-376.96 904.45,-384.98 914.86,-383.03 911.37,-376.96"/>
</a>
</g>
</g>
<!-- Node21 -->
<g id="Node000021" class="node">
<title>Node21</title>
<g id="a_Node000021"><a xlink:href="../../d5/d4f/AH_2Settings_2Settings_8hpp.html" target="_top" xlink:title="All user settings and debugging options can be changed here.">
<polygon fill="white" stroke="#666666" points="789.5,-294 712.5,-294 712.5,-275 789.5,-275 789.5,-294"/>
<text text-anchor="middle" x="751" y="-282" font-family="Helvetica,sans-Serif" font-size="10.00">Settings.hpp</text>
</a>
</g>
</g>
<!-- Node20&#45;&gt;Node21 -->
<g id="edge28_Node000020_Node000021" class="edge">
<title>Node20&#45;&gt;Node21</title>
<g id="a_edge28_Node000020_Node000021"><a xlink:title=" ">
<path fill="none" stroke="#63b8ff" d="M933.97,-329.98C896.5,-320.87 836.95,-306.4 796.02,-296.45"/>
<polygon fill="#63b8ff" stroke="#63b8ff" points="796.84,-293.04 786.3,-294.08 795.19,-299.85 796.84,-293.04"/>
</a>
</g>
</g>
<!-- Node25 -->
<g id="Node000025" class="node">
<title>Node25</title>
<g id="a_Node000025"><a xlink:href="../../d9/d98/TeensyUSBTypes_8hpp.html" target="_top" xlink:title=" ">
<polygon fill="white" stroke="#666666" points="1019.5,-294 846.5,-294 846.5,-275 1019.5,-275 1019.5,-294"/>
<text text-anchor="middle" x="933" y="-282" font-family="Helvetica,sans-Serif" font-size="10.00">AH/Teensy/TeensyUSBTypes.hpp</text>
</a>
</g>
</g>
<!-- Node20&#45;&gt;Node25 -->
<g id="edge36_Node000020_Node000025" class="edge">
<title>Node20&#45;&gt;Node25</title>
<g id="a_edge36_Node000020_Node000025"><a xlink:title=" ">
<path fill="none" stroke="#63b8ff" d="M963.06,-329.75C958.02,-322.34 950.66,-311.5 944.49,-302.41"/>
<polygon fill="#63b8ff" stroke="#63b8ff" points="947.35,-300.39 938.83,-294.09 941.56,-304.33 947.35,-300.39"/>
</a>
</g>
</g>
<!-- Node21&#45;&gt;Node2 -->
<g id="edge34_Node000021_Node000002" class="edge">
<title>Node21&#45;&gt;Node2</title>
<g id="a_edge34_Node000021_Node000002"><a xlink:title=" ">
<path fill="none" stroke="#63b8ff" d="M789.5,-277.88C859.27,-267.69 1005.82,-246.3 1075.55,-236.11"/>
<polygon fill="#63b8ff" stroke="#63b8ff" points="1076.27,-239.55 1085.66,-234.64 1075.26,-232.62 1076.27,-239.55"/>
</a>
</g>
</g>
<!-- Node21&#45;&gt;Node3 -->
<g id="edge35_Node000021_Node000003" class="edge">
<title>Node21&#45;&gt;Node3</title>
<g id="a_edge35_Node000021_Node000003"><a xlink:title=" ">
<path fill="none" stroke="#63b8ff" d="M712.43,-276.84C652.72,-266.53 538.74,-246.86 480.39,-236.78"/>
<polygon fill="#63b8ff" stroke="#63b8ff" points="480.95,-233.33 470.5,-235.08 479.76,-240.23 480.95,-233.33"/>
</a>
</g>
</g>
<!-- Node22 -->
<g id="Node000022" class="node">
<title>Node22</title>
<g id="a_Node000022"><a xlink:href="../../dc/d50/Frequency_8hpp.html" target="_top" xlink:title=" ">
<polygon fill="white" stroke="#666666" points="922,-184 788,-184 788,-165 922,-165 922,-184"/>
<text text-anchor="middle" x="855" y="-172" font-family="Helvetica,sans-Serif" font-size="10.00">AH/Types/Frequency.hpp</text>
</a>
</g>
</g>
<!-- Node21&#45;&gt;Node22 -->
<g id="edge29_Node000021_Node000022" class="edge">
<title>Node21&#45;&gt;Node22</title>
<g id="a_edge29_Node000021_Node000022"><a xlink:title=" ">
<path fill="none" stroke="#63b8ff" d="M789.71,-276.66C827.37,-269.12 880.65,-255.81 893,-239 904.55,-223.27 889.02,-203.86 874.48,-190.67"/>
<polygon fill="#63b8ff" stroke="#63b8ff" points="876.57,-187.85 866.68,-184.04 872.03,-193.18 876.57,-187.85"/>
</a>
</g>
</g>
<!-- Node23 -->
<g id="Node000023" class="node">
<title>Node23</title>
<g id="a_Node000023"><a xlink:href="../../d7/d7c/ADCConfig_8hpp.html" target="_top" xlink:title="This file contains the platform&#45;specific ADC resolutions.">
<polygon fill="white" stroke="#666666" points="812.5,-239 655.5,-239 655.5,-220 812.5,-220 812.5,-239"/>
<text text-anchor="middle" x="734" y="-227" font-family="Helvetica,sans-Serif" font-size="10.00">AH/Hardware/ADCConfig.hpp</text>
</a>
</g>
</g>
<!-- Node21&#45;&gt;Node23 -->
<g id="edge31_Node000021_Node000023" class="edge">
<title>Node21&#45;&gt;Node23</title>
<g id="a_edge31_Node000021_Node000023"><a xlink:title=" ">
<path fill="none" stroke="#63b8ff" d="M748.19,-274.75C745.94,-267.72 742.7,-257.62 739.88,-248.84"/>
<polygon fill="#63b8ff" stroke="#63b8ff" points="743.14,-247.54 736.75,-239.09 736.48,-249.68 743.14,-247.54"/>
</a>
</g>
</g>
<!-- Node24 -->
<g id="Node000024" class="node">
<title>Node24</title>
<g id="a_Node000024"><a xlink:title=" ">
<polygon fill="#e0e0e0" stroke="#999999" points="883.5,-239 830.5,-239 830.5,-220 883.5,-220 883.5,-239"/>
<text text-anchor="middle" x="857" y="-227" font-family="Helvetica,sans-Serif" font-size="10.00">limits.h</text>
</a>
</g>
</g>
<!-- Node21&#45;&gt;Node24 -->
<g id="edge33_Node000021_Node000024" class="edge">
<title>Node21&#45;&gt;Node24</title>
<g id="a_edge33_Node000021_Node000024"><a xlink:title=" ">
<path fill="none" stroke="#63b8ff" d="M768.03,-274.98C784.93,-266.54 811.06,-253.47 830.64,-243.68"/>
<polygon fill="#63b8ff" stroke="#63b8ff" points="832.28,-246.77 839.66,-239.17 829.15,-240.51 832.28,-246.77"/>
</a>
</g>
</g>
<!-- Node22&#45;&gt;Node12 -->
<g id="edge30_Node000022_Node000012" class="edge">
<title>Node22&#45;&gt;Node12</title>
<g id="a_edge30_Node000022_Node000012"><a xlink:title=" ">
<path fill="none" stroke="#63b8ff" d="M862.77,-164.66C878.72,-146.54 915.33,-104.91 935.69,-81.77"/>
<polygon fill="#63b8ff" stroke="#63b8ff" points="938.41,-83.98 942.38,-74.16 933.15,-79.36 938.41,-83.98"/>
</a>
</g>
</g>
<!-- Node23&#45;&gt;Node7 -->
<g id="edge32_Node000023_Node000007" class="edge">
<title>Node23&#45;&gt;Node7</title>
<g id="a_edge32_Node000023_Node000007"><a xlink:title=" ">
<path fill="none" stroke="#63b8ff" d="M699.62,-219.98C662.91,-210.89 604.62,-196.46 564.45,-186.51"/>
<polygon fill="#63b8ff" stroke="#63b8ff" points="565.2,-183.09 554.65,-184.08 563.52,-189.88 565.2,-183.09"/>
</a>
</g>
</g>
<!-- Node28&#45;&gt;Node7 -->
<g id="edge53_Node000028_Node000007" class="edge">
<title>Node28&#45;&gt;Node7</title>
<g id="a_edge53_Node000028_Node000007"><a xlink:title=" ">
<path fill="none" stroke="#63b8ff" d="M522.82,-615.85C505.9,-595.14 476.1,-554.61 465,-514 452.06,-466.67 520,-426.18 520,-395.5 520,-395.5 520,-395.5 520,-283.5 520,-252.19 520,-215.77 520,-194.23"/>
<polygon fill="#63b8ff" stroke="#63b8ff" points="523.5,-194.18 520,-184.18 516.5,-194.18 523.5,-194.18"/>
</a>
</g>
</g>
<!-- Node28&#45;&gt;Node29 -->
<g id="edge43_Node000028_Node000029" class="edge">
<title>Node28&#45;&gt;Node29</title>
<g id="a_edge43_Node000028_Node000029"><a xlink:title=" ">
<path fill="none" stroke="#63b8ff" d="M544.54,-615.8C549.89,-607.84 556.68,-597.74 562.74,-588.71"/>
<polygon fill="#63b8ff" stroke="#63b8ff" points="565.81,-590.42 568.48,-580.16 560,-586.51 565.81,-590.42"/>
</a>
</g>
</g>
<!-- Node31 -->
<g id="Node000031" class="node">
<title>Node31</title>
<g id="a_Node000031"><a xlink:href="../../d0/db1/FunctionTraits_8hpp.html" target="_top" xlink:title=" ">
<polygon fill="white" stroke="#666666" points="1030.5,-574.5 877.5,-574.5 877.5,-555.5 1030.5,-555.5 1030.5,-574.5"/>
<text text-anchor="middle" x="954" y="-562.5" font-family="Helvetica,sans-Serif" font-size="10.00">AH/Types/FunctionTraits.hpp</text>
</a>
</g>
</g>
<!-- Node28&#45;&gt;Node31 -->
<g id="edge49_Node000028_Node000031" class="edge">
<title>Node28&#45;&gt;Node31</title>
<g id="a_edge49_Node000028_Node000031"><a xlink:title=" ">
<path fill="none" stroke="#63b8ff" d="M596.37,-620.63C674.3,-608.72 808.22,-588.27 888.2,-576.05"/>
<polygon fill="#63b8ff" stroke="#63b8ff" points="888.8,-579.5 898.16,-574.53 887.74,-572.58 888.8,-579.5"/>
</a>
</g>
</g>
<!-- Node29&#45;&gt;Node3 -->
<g id="edge48_Node000029_Node000003" class="edge">
<title>Node29&#45;&gt;Node3</title>
<g id="a_edge48_Node000029_Node000003"><a xlink:title=" ">
<path fill="none" stroke="#63b8ff" d="M577.42,-549.88C576.36,-535.47 573.37,-512.75 565,-495 540.43,-442.91 482,-453.09 482,-395.5 482,-395.5 482,-395.5 482,-338.5 482,-305.02 465.55,-268.84 454.3,-248.01"/>
<polygon fill="#63b8ff" stroke="#63b8ff" points="457.24,-246.1 449.28,-239.1 451.13,-249.53 457.24,-246.1"/>
</a>
</g>
</g>
<!-- Node29&#45;&gt;Node12 -->
<g id="edge47_Node000029_Node000012" class="edge">
<title>Node29&#45;&gt;Node12</title>
<g id="a_edge47_Node000029_Node000012"><a xlink:title=" ">
<path fill="none" stroke="#63b8ff" d="M643.66,-555.91C695.88,-548.35 770.34,-535.01 833,-514 851.28,-507.87 854.18,-502.36 872,-495 946.46,-464.23 1200,-421.07 1200,-340.5 1200,-340.5 1200,-340.5 1200,-173.5 1200,-107.37 1125.37,-81.26 1057.66,-71.18"/>
<polygon fill="#63b8ff" stroke="#63b8ff" points="1058.12,-67.71 1047.73,-69.81 1057.16,-74.65 1058.12,-67.71"/>
</a>
</g>
</g>
<!-- Node29&#45;&gt;Node16 -->
<g id="edge44_Node000029_Node000016" class="edge">
<title>Node29&#45;&gt;Node16</title>
<g id="a_edge44_Node000029_Node000016"><a xlink:title=" ">
<path fill="none" stroke="#63b8ff" d="M620.64,-549.99C651.09,-539.98 691.59,-526.67 720.33,-517.22"/>
<polygon fill="#63b8ff" stroke="#63b8ff" points="721.57,-520.5 729.97,-514.05 719.38,-513.85 721.57,-520.5"/>
</a>
</g>
</g>
<!-- Node29&#45;&gt;Node19 -->
<g id="edge45_Node000029_Node000019" class="edge">
<title>Node29&#45;&gt;Node19</title>
<g id="a_edge45_Node000029_Node000019"><a xlink:title=" ">
<path fill="none" stroke="#63b8ff" d="M584.44,-549.79C588.73,-539.91 594.25,-526.34 598,-514 614.76,-458.89 626.78,-391.7 632.04,-359.49"/>
<polygon fill="#63b8ff" stroke="#63b8ff" points="635.55,-359.73 633.67,-349.3 628.64,-358.62 635.55,-359.73"/>
</a>
</g>
</g>
<!-- Node29&#45;&gt;Node30 -->
<g id="edge46_Node000029_Node000030" class="edge">
<title>Node29&#45;&gt;Node30</title>
<g id="a_edge46_Node000029_Node000030"><a xlink:title=" ">
<path fill="none" stroke="#63b8ff" d="M562.75,-549.84C553.42,-541.17 541.47,-530.08 531.85,-521.15"/>
<polygon fill="#63b8ff" stroke="#63b8ff" points="534.15,-518.51 524.44,-514.27 529.39,-523.64 534.15,-518.51"/>
</a>
</g>
</g>
<!-- Node31&#45;&gt;Node12 -->
<g id="edge52_Node000031_Node000012" class="edge">
<title>Node31&#45;&gt;Node12</title>
<g id="a_edge52_Node000031_Node000012"><a xlink:title=" ">
<path fill="none" stroke="#63b8ff" d="M958.61,-555.04C966.57,-540.43 984.23,-511.46 1007,-495 1046.3,-466.59 1065.55,-478.39 1110,-459 1157.93,-438.09 1179.41,-443.21 1214,-404 1233.96,-381.37 1238,-370.67 1238,-340.5 1238,-340.5 1238,-340.5 1238,-173.5 1238,-143.33 1237.3,-129.16 1214,-110 1190.15,-90.39 1119.96,-79.15 1057.94,-72.87"/>
<polygon fill="#63b8ff" stroke="#63b8ff" points="1057.96,-69.36 1047.67,-71.87 1057.28,-76.32 1057.96,-69.36"/>
</a>
</g>
</g>
<!-- Node32 -->
<g id="Node000032" class="node">
<title>Node32</title>
<g id="a_Node000032"><a xlink:title=" ">
<polygon fill="#e0e0e0" stroke="#999999" points="1106,-514 1016,-514 1016,-495 1106,-495 1106,-514"/>
<text text-anchor="middle" x="1061" y="-502" font-family="Helvetica,sans-Serif" font-size="10.00">AH/STL/cstddef</text>
</a>
</g>
</g>
<!-- Node31&#45;&gt;Node32 -->
<g id="edge50_Node000031_Node000032" class="edge">
<title>Node31&#45;&gt;Node32</title>
<g id="a_edge50_Node000031_Node000032"><a xlink:title=" ">
<path fill="none" stroke="#63b8ff" d="M969.79,-555.37C987.33,-545.78 1015.88,-530.17 1036.37,-518.97"/>
<polygon fill="#63b8ff" stroke="#63b8ff" points="1038.05,-522.04 1045.15,-514.17 1034.69,-515.89 1038.05,-522.04"/>
</a>
</g>
</g>
<!-- Node33 -->
<g id="Node000033" class="node">
<title>Node33</title>
<g id="a_Node000033"><a xlink:title=" ">
<polygon fill="#e0e0e0" stroke="#999999" points="959.5,-514 880.5,-514 880.5,-495 959.5,-495 959.5,-514"/>
<text text-anchor="middle" x="920" y="-502" font-family="Helvetica,sans-Serif" font-size="10.00">AH/STL/tuple</text>
</a>
</g>
</g>
<!-- Node31&#45;&gt;Node33 -->
<g id="edge51_Node000031_Node000033" class="edge">
<title>Node31&#45;&gt;Node33</title>
<g id="a_edge51_Node000031_Node000033"><a xlink:title=" ">
<path fill="none" stroke="#63b8ff" d="M948.98,-555.37C944.06,-546.9 936.41,-533.74 930.21,-523.07"/>
<polygon fill="#63b8ff" stroke="#63b8ff" points="933.09,-521.05 925.04,-514.17 927.04,-524.57 933.09,-521.05"/>
</a>
</g>
</g>
<!-- Node35&#45;&gt;Node3 -->
<g id="edge61_Node000035_Node000003" class="edge">
<title>Node35&#45;&gt;Node3</title>
<g id="a_edge61_Node000035_Node000003"><a xlink:title=" ">
<path fill="none" stroke="#63b8ff" d="M363.57,-384.74C377,-358.98 416.55,-283.13 434.7,-248.33"/>
<polygon fill="#63b8ff" stroke="#63b8ff" points="437.89,-249.79 439.41,-239.31 431.68,-246.56 437.89,-249.79"/>
</a>
</g>
</g>
<!-- Node35&#45;&gt;Node14 -->
<g id="edge63_Node000035_Node000014" class="edge">
<title>Node35&#45;&gt;Node14</title>
<g id="a_edge63_Node000035_Node000014"><a xlink:title=" ">
<path fill="none" stroke="#63b8ff" d="M352.29,-384.66C338.65,-366.69 307.48,-325.64 289.82,-302.38"/>
<polygon fill="#63b8ff" stroke="#63b8ff" points="292.41,-300.01 283.57,-294.16 286.83,-304.24 292.41,-300.01"/>
</a>
</g>
</g>
<!-- Node35&#45;&gt;Node19 -->
<g id="edge62_Node000035_Node000019" class="edge">
<title>Node35&#45;&gt;Node19</title>
<g id="a_edge62_Node000035_Node000019"><a xlink:title=" ">
<path fill="none" stroke="#63b8ff" d="M403.34,-384.98C451.49,-375.74 528.42,-360.97 580.29,-351.01"/>
<polygon fill="#63b8ff" stroke="#63b8ff" points="581.15,-354.41 590.31,-349.08 579.83,-347.53 581.15,-354.41"/>
</a>
</g>
</g>
<!-- Node36&#45;&gt;Node6 -->
<g id="edge70_Node000036_Node000006" class="edge">
<title>Node36&#45;&gt;Node6</title>
<g id="a_edge70_Node000036_Node000006"><a xlink:title=" ">
<path fill="none" stroke="#63b8ff" d="M175.64,-791.74C170.25,-782.84 161.79,-768.6 155,-756 121.47,-693.75 85.32,-617.92 69.37,-583.96"/>
<polygon fill="#63b8ff" stroke="#63b8ff" points="72.51,-582.39 65.1,-574.82 66.17,-585.36 72.51,-582.39"/>
</a>
</g>
</g>
<!-- Node36&#45;&gt;Node7 -->
<g id="edge65_Node000036_Node000007" class="edge">
<title>Node36&#45;&gt;Node7</title>
<g id="a_edge65_Node000036_Node000007"><a xlink:title=" ">
<path fill="none" stroke="#63b8ff" d="M170.49,-791.82C131.86,-758.87 0,-636.79 0,-505.5 0,-505.5 0,-505.5 0,-283.5 0,-242.47 29.68,-237.04 67,-220 133.05,-189.85 337.69,-180.05 447.93,-176.93"/>
<polygon fill="#63b8ff" stroke="#63b8ff" points="448.07,-180.42 457.97,-176.65 447.87,-173.43 448.07,-180.42"/>
</a>
</g>
</g>
<!-- Node36&#45;&gt;Node14 -->
<g id="edge69_Node000036_Node000014" class="edge">
<title>Node36&#45;&gt;Node14</title>
<g id="a_edge69_Node000036_Node000014"><a xlink:title=" ">
<path fill="none" stroke="#63b8ff" d="M181.17,-791.66C181.72,-765.07 183.67,-683.5 188,-616 191.16,-566.79 198,-554.81 198,-505.5 198,-505.5 198,-505.5 198,-393.5 198,-353.78 233.25,-318.93 256.66,-300.17"/>
<polygon fill="#63b8ff" stroke="#63b8ff" points="258.87,-302.89 264.66,-294.01 254.6,-297.34 258.87,-302.89"/>
</a>
</g>
</g>
<!-- Node36&#45;&gt;Node15 -->
<g id="edge71_Node000036_Node000015" class="edge">
<title>Node36&#45;&gt;Node15</title>
<g id="a_edge71_Node000036_Node000015"><a xlink:title=" ">
<path fill="none" stroke="#63b8ff" d="M183.8,-791.91C192.33,-765.78 218.12,-686.79 229.95,-650.54"/>
<polygon fill="#63b8ff" stroke="#63b8ff" points="233.36,-651.36 233.14,-640.77 226.71,-649.19 233.36,-651.36"/>
</a>
</g>
</g>
<!-- Node36&#45;&gt;Node19 -->
<g id="edge66_Node000036_Node000019" class="edge">
<title>Node36&#45;&gt;Node19</title>
<g id="a_edge66_Node000036_Node000019"><a xlink:title=" ">
<path fill="none" stroke="#63b8ff" d="M249.61,-792.59C330.81,-782.99 461.06,-766.74 509,-756 600.42,-735.52 710,-786.19 710,-692.5 710,-692.5 710,-692.5 710,-630 710,-629.56 656.36,-422.81 639.81,-359.02"/>
<polygon fill="#63b8ff" stroke="#63b8ff" points="643.14,-357.95 637.24,-349.15 636.37,-359.71 643.14,-357.95"/>
</a>
</g>
</g>
<!-- Node36&#45;&gt;Node32 -->
<g id="edge67_Node000036_Node000032" class="edge">
<title>Node36&#45;&gt;Node32</title>
<g id="a_edge67_Node000036_Node000032"><a xlink:title=" ">
<path fill="none" stroke="#63b8ff" d="M249.84,-792.79C252.59,-792.52 255.32,-792.25 258,-792 355.53,-782.85 1134,-790.46 1134,-692.5 1134,-692.5 1134,-692.5 1134,-630 1134,-585.82 1099.36,-543.43 1077.8,-521.33"/>
<polygon fill="#63b8ff" stroke="#63b8ff" points="1080.11,-518.69 1070.54,-514.14 1075.19,-523.66 1080.11,-518.69"/>
</a>
</g>
</g>
<!-- Node37 -->
<g id="Node000037" class="node">
<title>Node37</title>
<g id="a_Node000037"><a xlink:title=" ">
<polygon fill="#e0e0e0" stroke="#999999" points="320.5,-756 235.5,-756 235.5,-737 320.5,-737 320.5,-756"/>
<text text-anchor="middle" x="278" y="-744" font-family="Helvetica,sans-Serif" font-size="10.00">AH/STL/vector</text>
</a>
</g>
</g>
<!-- Node36&#45;&gt;Node37 -->
<g id="edge68_Node000036_Node000037" class="edge">
<title>Node36&#45;&gt;Node37</title>
<g id="a_edge68_Node000036_Node000037"><a xlink:title=" ">
<path fill="none" stroke="#63b8ff" d="M196.58,-791.98C211.77,-783.69 235.1,-770.94 252.9,-761.22"/>
<polygon fill="#63b8ff" stroke="#63b8ff" points="255.03,-764.04 262.13,-756.17 251.68,-757.89 255.03,-764.04"/>
</a>
</g>
</g>
<!-- Node38 -->
<g id="Node000038" class="node">
<title>Node38</title>
<g id="a_Node000038"><a xlink:href="../../db/dd6/MIDIAddress_8hpp.html" target="_top" xlink:title=" ">
<polygon fill="white" stroke="#666666" points="499.5,-756 380.5,-756 380.5,-737 499.5,-737 499.5,-756"/>
<text text-anchor="middle" x="440" y="-744" font-family="Helvetica,sans-Serif" font-size="10.00">Def/MIDIAddress.hpp</text>
</a>
</g>
</g>
<!-- Node36&#45;&gt;Node38 -->
<g id="edge72_Node000036_Node000038" class="edge">
<title>Node36&#45;&gt;Node38</title>
<g id="a_edge72_Node000036_Node000038"><a xlink:title=" ">
<path fill="none" stroke="#63b8ff" d="M222.61,-791.98C267.6,-782.78 339.39,-768.09 388.05,-758.13"/>
<polygon fill="#63b8ff" stroke="#63b8ff" points="388.97,-761.52 398.06,-756.08 387.56,-754.66 388.97,-761.52"/>
</a>
</g>
</g>
<!-- Node38&#45;&gt;Node5 -->
<g id="edge73_Node000038_Node000005" class="edge">
<title>Node38&#45;&gt;Node5</title>
<g id="a_edge73_Node000038_Node000005"><a xlink:title=" ">
<path fill="none" stroke="#63b8ff" d="M440.99,-736.75C441.78,-729.8 442.9,-719.85 443.89,-711.13"/>
<polygon fill="#63b8ff" stroke="#63b8ff" points="447.38,-711.42 445.03,-701.09 440.42,-710.63 447.38,-711.42"/>
</a>
</g>
</g>
</g>
</svg>
