<?xml version="1.0" encoding="UTF-8" standalone="no"?>
<!DOCTYPE svg PUBLIC "-//W3C//DTD SVG 1.1//EN"
 "http://www.w3.org/Graphics/SVG/1.1/DTD/svg11.dtd">
<!-- Generated by graphviz version 2.38.0 (20140413.2041)
 -->
<!-- Title: StaticSizeExtendedIOElement.hpp Pages: 1 -->
<svg width="1237pt" height="543pt"
 viewBox="0.00 0.00 1237.00 543.00" xmlns="http://www.w3.org/2000/svg" xmlns:xlink="http://www.w3.org/1999/xlink">
<g id="graph0" class="graph" transform="scale(1 1) rotate(0) translate(4 539)">
<title>StaticSizeExtendedIOElement.hpp</title>
<polygon fill="white" stroke="none" points="-4,4 -4,-539 1233,-539 1233,4 -4,4"/>
<!-- Node1 -->
<g id="node1" class="node"><title>Node1</title>
<g id="a_node1"><a xlink:title=" ">
<polygon fill="#bfbfbf" stroke="black" points="24,-515.5 24,-534.5 192,-534.5 192,-515.5 24,-515.5"/>
<text text-anchor="middle" x="108" y="-522.5" font-family="Helvetica,sans-Serif" font-size="10.00">StaticSizeExtendedIOElement.hpp</text>
</a>
</g>
</g>
<!-- Node2 -->
<g id="node2" class="node"><title>Node2</title>
<g id="a_node2"><a xlink:href="../../d1/d65/Warnings_8hpp.html" target="_top" xlink:title=" ">
<polygon fill="white" stroke="black" points="275.5,-0.5 275.5,-19.5 408.5,-19.5 408.5,-0.5 275.5,-0.5"/>
<text text-anchor="middle" x="342" y="-7.5" font-family="Helvetica,sans-Serif" font-size="10.00">AH/Settings/Warnings.hpp</text>
</a>
</g>
</g>
<!-- Node1&#45;&gt;Node2 -->
<g id="edge1" class="edge"><title>Node1&#45;&gt;Node2</title>
<path fill="none" stroke="midnightblue" d="M90.166,-515.328C59.491,-499.017 0,-460.66 0,-408.5 0,-408.5 0,-408.5 0,-121 0,-65.675 164.244,-34.2032 265.09,-20.0937"/>
<polygon fill="midnightblue" stroke="midnightblue" points="265.815,-23.5272 275.247,-18.7012 264.864,-16.5921 265.815,-23.5272"/>
</g>
<!-- Node3 -->
<g id="node3" class="node"><title>Node3</title>
<g id="a_node3"><a xlink:href="../../d4/d57/ExtendedIOElement_8hpp.html" target="_top" xlink:title=" ">
<polygon fill="white" stroke="black" points="214.5,-459.5 214.5,-478.5 337.5,-478.5 337.5,-459.5 214.5,-459.5"/>
<text text-anchor="middle" x="276" y="-466.5" font-family="Helvetica,sans-Serif" font-size="10.00">ExtendedIOElement.hpp</text>
</a>
</g>
</g>
<!-- Node1&#45;&gt;Node3 -->
<g id="edge2" class="edge"><title>Node1&#45;&gt;Node3</title>
<path fill="none" stroke="midnightblue" d="M134.62,-515.444C163.006,-506.32 208.137,-491.813 239.753,-481.651"/>
<polygon fill="midnightblue" stroke="midnightblue" points="241.055,-484.909 249.504,-478.516 238.913,-478.244 241.055,-484.909"/>
</g>
<!-- Node26 -->
<g id="node26" class="node"><title>Node26</title>
<g id="a_node26"><a xlink:href="../../d5/db6/ArrayHelpers_8hpp.html" target="_top" xlink:title=" ">
<polygon fill="white" stroke="black" points="28,-398 28,-417 188,-417 188,-398 28,-398"/>
<text text-anchor="middle" x="108" y="-405" font-family="Helvetica,sans-Serif" font-size="10.00">AH/Containers/ArrayHelpers.hpp</text>
</a>
</g>
</g>
<!-- Node1&#45;&gt;Node26 -->
<g id="edge45" class="edge"><title>Node1&#45;&gt;Node26</title>
<path fill="none" stroke="midnightblue" d="M108,-515.319C108,-496.757 108,-452.839 108,-427.473"/>
<polygon fill="midnightblue" stroke="midnightblue" points="111.5,-427.282 108,-417.282 104.5,-427.282 111.5,-427.282"/>
</g>
<!-- Node3&#45;&gt;Node2 -->
<g id="edge3" class="edge"><title>Node3&#45;&gt;Node2</title>
<path fill="none" stroke="midnightblue" d="M268.063,-459.16C246.773,-434.496 190,-362.062 190,-291 190,-291 190,-291 190,-121 190,-67.4368 252.712,-37.2997 297.573,-22.5935"/>
<polygon fill="midnightblue" stroke="midnightblue" points="298.63,-25.9301 307.128,-19.6023 296.539,-19.2497 298.63,-25.9301"/>
</g>
<!-- Node4 -->
<g id="node4" class="node"><title>Node4</title>
<g id="a_node4"><a xlink:href="../../d4/d35/Hardware-Types_8hpp.html" target="_top" xlink:title=" ">
<polygon fill="white" stroke="black" points="331.5,-392.5 331.5,-422.5 452.5,-422.5 452.5,-392.5 331.5,-392.5"/>
<text text-anchor="start" x="339.5" y="-410.5" font-family="Helvetica,sans-Serif" font-size="10.00">AH/Hardware/Hardware</text>
<text text-anchor="middle" x="392" y="-399.5" font-family="Helvetica,sans-Serif" font-size="10.00">&#45;Types.hpp</text>
</a>
</g>
</g>
<!-- Node3&#45;&gt;Node4 -->
<g id="edge4" class="edge"><title>Node3&#45;&gt;Node4</title>
<path fill="none" stroke="midnightblue" d="M292.62,-459.475C308.991,-451.078 334.541,-437.973 355.634,-427.153"/>
<polygon fill="midnightblue" stroke="midnightblue" points="357.361,-430.201 364.661,-422.523 354.166,-423.973 357.361,-430.201"/>
</g>
<!-- Node22 -->
<g id="node22" class="node"><title>Node22</title>
<g id="a_node22"><a xlink:href="../../de/dd1/LinkedList_8hpp.html" target="_top" xlink:title=" ">
<polygon fill="white" stroke="black" points="1037.5,-280.5 1037.5,-299.5 1184.5,-299.5 1184.5,-280.5 1037.5,-280.5"/>
<text text-anchor="middle" x="1111" y="-287.5" font-family="Helvetica,sans-Serif" font-size="10.00">AH/Containers/LinkedList.hpp</text>
</a>
</g>
</g>
<!-- Node3&#45;&gt;Node22 -->
<g id="edge36" class="edge"><title>Node3&#45;&gt;Node22</title>
<path fill="none" stroke="midnightblue" d="M337.708,-468.647C469.027,-467.938 783.7,-455.067 1023,-356 1050.8,-344.493 1077.88,-322.342 1094.5,-307.124"/>
<polygon fill="midnightblue" stroke="midnightblue" points="1097.3,-309.294 1102.18,-299.891 1092.5,-304.198 1097.3,-309.294"/>
</g>
<!-- Node4&#45;&gt;Node2 -->
<g id="edge5" class="edge"><title>Node4&#45;&gt;Node2</title>
<path fill="none" stroke="midnightblue" d="M336.934,-392.418C289.29,-376.531 228,-345.501 228,-291 228,-291 228,-291 228,-121 228,-74.1149 278.552,-40.8944 312.329,-23.9302"/>
<polygon fill="midnightblue" stroke="midnightblue" points="313.868,-27.0742 321.355,-19.5787 310.828,-20.7687 313.868,-27.0742"/>
</g>
<!-- Node5 -->
<g id="node5" class="node"><title>Node5</title>
<g id="a_node5"><a xlink:href="../../de/d76/Array_8hpp.html" target="_top" xlink:title=" ">
<polygon fill="white" stroke="black" points="329,-336.5 329,-355.5 455,-355.5 455,-336.5 329,-336.5"/>
<text text-anchor="middle" x="392" y="-343.5" font-family="Helvetica,sans-Serif" font-size="10.00">AH/Containers/Array.hpp</text>
</a>
</g>
</g>
<!-- Node4&#45;&gt;Node5 -->
<g id="edge6" class="edge"><title>Node4&#45;&gt;Node5</title>
<path fill="none" stroke="midnightblue" d="M392,-392.399C392,-384.466 392,-374.458 392,-365.858"/>
<polygon fill="midnightblue" stroke="midnightblue" points="395.5,-365.658 392,-355.658 388.5,-365.658 395.5,-365.658"/>
</g>
<!-- Node11 -->
<g id="node11" class="node"><title>Node11</title>
<g id="a_node11"><a xlink:href="../../dc/dc7/NamespaceSettings_8hpp.html" target="_top" xlink:title=" ">
<polygon fill="white" stroke="black" points="1083,-0.5 1083,-19.5 1207,-19.5 1207,-0.5 1083,-0.5"/>
<text text-anchor="middle" x="1145" y="-7.5" font-family="Helvetica,sans-Serif" font-size="10.00">NamespaceSettings.hpp</text>
</a>
</g>
</g>
<!-- Node4&#45;&gt;Node11 -->
<g id="edge34" class="edge"><title>Node4&#45;&gt;Node11</title>
<path fill="none" stroke="midnightblue" d="M452.532,-404.518C644.795,-397.429 1229,-369.433 1229,-291 1229,-291 1229,-291 1229,-121 1229,-79.7307 1191.19,-44.3249 1166.31,-25.4905"/>
<polygon fill="midnightblue" stroke="midnightblue" points="1168.27,-22.5916 1158.12,-19.5372 1164.15,-28.2514 1168.27,-22.5916"/>
</g>
<!-- Node17 -->
<g id="node17" class="node"><title>Node17</title>
<g id="a_node17"><a xlink:title=" ">
<polygon fill="white" stroke="#bfbfbf" points="970.5,-56.5 970.5,-75.5 1019.5,-75.5 1019.5,-56.5 970.5,-56.5"/>
<text text-anchor="middle" x="995" y="-63.5" font-family="Helvetica,sans-Serif" font-size="10.00">stdint.h</text>
</a>
</g>
</g>
<!-- Node4&#45;&gt;Node17 -->
<g id="edge35" class="edge"><title>Node4&#45;&gt;Node17</title>
<path fill="none" stroke="midnightblue" d="M452.566,-401.501C608.023,-387.86 1009,-347.226 1009,-291 1009,-291 1009,-291 1009,-177 1009,-144.541 1002.93,-107.121 998.781,-85.3564"/>
<polygon fill="midnightblue" stroke="midnightblue" points="1002.21,-84.6401 996.83,-75.5108 995.34,-86.0003 1002.21,-84.6401"/>
</g>
<!-- Node5&#45;&gt;Node2 -->
<g id="edge7" class="edge"><title>Node5&#45;&gt;Node2</title>
<path fill="none" stroke="midnightblue" d="M349.794,-336.475C327.675,-329.965 301.771,-318.796 285,-300 264.962,-277.543 266,-265.098 266,-235 266,-235 266,-235 266,-121 266,-81.2757 299.964,-45.5045 322.482,-26.1536"/>
<polygon fill="midnightblue" stroke="midnightblue" points="324.976,-28.6337 330.457,-19.5672 320.518,-23.2364 324.976,-28.6337"/>
</g>
<!-- Node6 -->
<g id="node6" class="node"><title>Node6</title>
<g id="a_node6"><a xlink:href="../../d1/d93/Error_8hpp.html" target="_top" xlink:title=" ">
<polygon fill="white" stroke="black" points="517,-280.5 517,-299.5 615,-299.5 615,-280.5 517,-280.5"/>
<text text-anchor="middle" x="566" y="-287.5" font-family="Helvetica,sans-Serif" font-size="10.00">AH/Error/Error.hpp</text>
</a>
</g>
</g>
<!-- Node5&#45;&gt;Node6 -->
<g id="edge8" class="edge"><title>Node5&#45;&gt;Node6</title>
<path fill="none" stroke="midnightblue" d="M419.571,-336.444C449.097,-327.28 496.118,-312.688 528.883,-302.519"/>
<polygon fill="midnightblue" stroke="midnightblue" points="530.045,-305.823 538.558,-299.516 527.97,-299.138 530.045,-305.823"/>
</g>
<!-- Node16 -->
<g id="node16" class="node"><title>Node16</title>
<g id="a_node16"><a xlink:title=" ">
<polygon fill="white" stroke="#bfbfbf" points="522,-56.5 522,-75.5 574,-75.5 574,-56.5 522,-56.5"/>
<text text-anchor="middle" x="548" y="-63.5" font-family="Helvetica,sans-Serif" font-size="10.00">stddef.h</text>
</a>
</g>
</g>
<!-- Node5&#45;&gt;Node16 -->
<g id="edge33" class="edge"><title>Node5&#45;&gt;Node16</title>
<path fill="none" stroke="midnightblue" d="M455.013,-343.29C550.727,-336.763 728.819,-308.2 797,-188 813.671,-158.61 820.841,-137.782 799,-112 769.266,-76.9004 645.271,-84.9885 584.244,-75.8059"/>
<polygon fill="midnightblue" stroke="midnightblue" points="584.776,-72.3455 574.316,-74.0271 583.542,-79.2358 584.776,-72.3455"/>
</g>
<!-- Node20 -->
<g id="node20" class="node"><title>Node20</title>
<g id="a_node20"><a xlink:title=" ">
<polygon fill="white" stroke="#bfbfbf" points="294.5,-280.5 294.5,-299.5 379.5,-299.5 379.5,-280.5 294.5,-280.5"/>
<text text-anchor="middle" x="337" y="-287.5" font-family="Helvetica,sans-Serif" font-size="10.00">AH/STL/iterator</text>
</a>
</g>
</g>
<!-- Node5&#45;&gt;Node20 -->
<g id="edge31" class="edge"><title>Node5&#45;&gt;Node20</title>
<path fill="none" stroke="midnightblue" d="M382.918,-336.083C374.829,-328.141 362.805,-316.335 353.09,-306.797"/>
<polygon fill="midnightblue" stroke="midnightblue" points="355.501,-304.26 345.913,-299.751 350.597,-309.254 355.501,-304.26"/>
</g>
<!-- Node21 -->
<g id="node21" class="node"><title>Node21</title>
<g id="a_node21"><a xlink:title=" ">
<polygon fill="white" stroke="#bfbfbf" points="397.5,-280.5 397.5,-299.5 498.5,-299.5 498.5,-280.5 397.5,-280.5"/>
<text text-anchor="middle" x="448" y="-287.5" font-family="Helvetica,sans-Serif" font-size="10.00">AH/STL/type_traits</text>
</a>
</g>
</g>
<!-- Node5&#45;&gt;Node21 -->
<g id="edge32" class="edge"><title>Node5&#45;&gt;Node21</title>
<path fill="none" stroke="midnightblue" d="M400.997,-336.324C409.194,-328.42 421.506,-316.548 431.472,-306.938"/>
<polygon fill="midnightblue" stroke="midnightblue" points="434.07,-309.295 438.839,-299.834 429.211,-304.256 434.07,-309.295"/>
</g>
<!-- Node6&#45;&gt;Node2 -->
<g id="edge9" class="edge"><title>Node6&#45;&gt;Node2</title>
<path fill="none" stroke="midnightblue" d="M516.915,-281.313C466.334,-272.802 391.396,-258.378 366,-244 331.258,-224.331 304,-218.923 304,-179 304,-179 304,-179 304,-121 304,-86.8131 320.6,-49.7639 331.857,-28.5707"/>
<polygon fill="midnightblue" stroke="midnightblue" points="334.947,-30.2151 336.716,-19.769 328.819,-26.832 334.947,-30.2151"/>
</g>
<!-- Node7 -->
<g id="node7" class="node"><title>Node7</title>
<g id="a_node7"><a xlink:href="../../df/dee/Debug_8hpp.html" target="_top" xlink:title=" ">
<polygon fill="white" stroke="black" points="510.5,-224.5 510.5,-243.5 623.5,-243.5 623.5,-224.5 510.5,-224.5"/>
<text text-anchor="middle" x="567" y="-231.5" font-family="Helvetica,sans-Serif" font-size="10.00">AH/Debug/Debug.hpp</text>
</a>
</g>
</g>
<!-- Node6&#45;&gt;Node7 -->
<g id="edge10" class="edge"><title>Node6&#45;&gt;Node7</title>
<path fill="none" stroke="midnightblue" d="M566.165,-280.083C566.296,-273.006 566.484,-262.861 566.648,-253.986"/>
<polygon fill="midnightblue" stroke="midnightblue" points="570.152,-253.814 566.838,-243.751 563.153,-253.685 570.152,-253.814"/>
</g>
<!-- Node7&#45;&gt;Node2 -->
<g id="edge11" class="edge"><title>Node7&#45;&gt;Node2</title>
<path fill="none" stroke="midnightblue" d="M543.818,-224.388C508.223,-210.128 439.843,-178.495 398,-132 383.52,-115.91 360.307,-58.745 348.851,-29.1114"/>
<polygon fill="midnightblue" stroke="midnightblue" points="352.041,-27.6561 345.2,-19.5664 345.503,-30.1569 352.041,-27.6561"/>
</g>
<!-- Node8 -->
<g id="node8" class="node"><title>Node8</title>
<g id="a_node8"><a xlink:href="../../dd/d80/PrintStream_8hpp.html" target="_top" xlink:title=" ">
<polygon fill="white" stroke="black" points="407.5,-112.5 407.5,-131.5 566.5,-131.5 566.5,-112.5 407.5,-112.5"/>
<text text-anchor="middle" x="487" y="-119.5" font-family="Helvetica,sans-Serif" font-size="10.00">AH/PrintStream/PrintStream.hpp</text>
</a>
</g>
</g>
<!-- Node7&#45;&gt;Node8 -->
<g id="edge12" class="edge"><title>Node7&#45;&gt;Node8</title>
<path fill="none" stroke="midnightblue" d="M555.605,-224.32C545.111,-215.897 529.607,-202.319 519,-188 508.248,-173.485 499.489,-154.8 493.871,-141.192"/>
<polygon fill="midnightblue" stroke="midnightblue" points="496.989,-139.558 490.06,-131.543 490.478,-142.129 496.989,-139.558"/>
</g>
<!-- Node10 -->
<g id="node10" class="node"><title>Node10</title>
<g id="a_node10"><a xlink:href="../../d2/dd5/SettingsWrapper_8hpp.html" target="_top" xlink:title=" ">
<polygon fill="white" stroke="black" points="624,-168.5 624,-187.5 788,-187.5 788,-168.5 624,-168.5"/>
<text text-anchor="middle" x="706" y="-175.5" font-family="Helvetica,sans-Serif" font-size="10.00">AH/Settings/SettingsWrapper.hpp</text>
</a>
</g>
</g>
<!-- Node7&#45;&gt;Node10 -->
<g id="edge15" class="edge"><title>Node7&#45;&gt;Node10</title>
<path fill="none" stroke="midnightblue" d="M583.936,-224.444C605.142,-215.438 641.606,-201.189 669.255,-191.049"/>
<polygon fill="midnightblue" stroke="midnightblue" points="670.79,-194.215 678.998,-187.516 668.404,-187.635 670.79,-194.215"/>
</g>
<!-- Node19 -->
<g id="node19" class="node"><title>Node19</title>
<g id="a_node19"><a xlink:href="../../d7/d52/DebugVal_8hpp.html" target="_top" xlink:title=" ">
<polygon fill="white" stroke="black" points="528,-168.5 528,-187.5 606,-187.5 606,-168.5 528,-168.5"/>
<text text-anchor="middle" x="567" y="-175.5" font-family="Helvetica,sans-Serif" font-size="10.00">DebugVal.hpp</text>
</a>
</g>
</g>
<!-- Node7&#45;&gt;Node19 -->
<g id="edge30" class="edge"><title>Node7&#45;&gt;Node19</title>
<path fill="none" stroke="midnightblue" d="M567,-224.083C567,-217.006 567,-206.861 567,-197.986"/>
<polygon fill="midnightblue" stroke="midnightblue" points="570.5,-197.751 567,-187.751 563.5,-197.751 570.5,-197.751"/>
</g>
<!-- Node8&#45;&gt;Node2 -->
<g id="edge13" class="edge"><title>Node8&#45;&gt;Node2</title>
<path fill="none" stroke="midnightblue" d="M475.622,-112.368C450.952,-93.6531 392.29,-49.1509 361.552,-25.8324"/>
<polygon fill="midnightblue" stroke="midnightblue" points="363.407,-22.8469 353.325,-19.5914 359.177,-28.4237 363.407,-22.8469"/>
</g>
<!-- Node9 -->
<g id="node9" class="node"><title>Node9</title>
<g id="a_node9"><a xlink:title=" ">
<polygon fill="white" stroke="#bfbfbf" points="703,-0.5 703,-19.5 761,-19.5 761,-0.5 703,-0.5"/>
<text text-anchor="middle" x="732" y="-7.5" font-family="Helvetica,sans-Serif" font-size="10.00">Arduino.h</text>
</a>
</g>
</g>
<!-- Node8&#45;&gt;Node9 -->
<g id="edge14" class="edge"><title>Node8&#45;&gt;Node9</title>
<path fill="none" stroke="midnightblue" d="M487.879,-112.331C489.791,-98.2441 495.658,-70.5024 513,-56 539.784,-33.6012 637.079,-20.4603 692.554,-14.6271"/>
<polygon fill="midnightblue" stroke="midnightblue" points="693.135,-18.0861 702.728,-13.5898 692.425,-11.1222 693.135,-18.0861"/>
</g>
<!-- Node10&#45;&gt;Node2 -->
<g id="edge16" class="edge"><title>Node10&#45;&gt;Node2</title>
<path fill="none" stroke="midnightblue" d="M687.734,-168.386C668.916,-159.459 638.778,-145.016 613,-132 595.963,-123.398 592.212,-120.246 575,-112 503.472,-77.7339 417.414,-41.7519 372.569,-23.3864"/>
<polygon fill="midnightblue" stroke="midnightblue" points="373.706,-20.0702 363.125,-19.5301 371.06,-26.5508 373.706,-20.0702"/>
</g>
<!-- Node10&#45;&gt;Node7 -->
<g id="edge29" class="edge"><title>Node10&#45;&gt;Node7</title>
<path fill="none" stroke="midnightblue" d="M689.158,-187.516C667.998,-196.506 631.543,-210.754 603.868,-220.906"/>
<polygon fill="midnightblue" stroke="midnightblue" points="602.321,-217.744 594.114,-224.444 604.708,-224.324 602.321,-217.744"/>
</g>
<!-- Node10&#45;&gt;Node11 -->
<g id="edge17" class="edge"><title>Node10&#45;&gt;Node11</title>
<path fill="none" stroke="midnightblue" d="M788.027,-171.363C908.713,-161.162 1124.95,-134.964 1172,-76 1183.49,-61.6042 1172.09,-41.6289 1160.77,-27.6339"/>
<polygon fill="midnightblue" stroke="midnightblue" points="1163.15,-25.0351 1153.94,-19.7961 1157.87,-29.6344 1163.15,-25.0351"/>
</g>
<!-- Node12 -->
<g id="node12" class="node"><title>Node12</title>
<g id="a_node12"><a xlink:href="../../db/d02/Settings_8hpp.html" target="_top" xlink:title="All user settings and debugging options can be changed here.">
<polygon fill="white" stroke="black" points="846.5,-112.5 846.5,-131.5 917.5,-131.5 917.5,-112.5 846.5,-112.5"/>
<text text-anchor="middle" x="882" y="-119.5" font-family="Helvetica,sans-Serif" font-size="10.00">Settings.hpp</text>
</a>
</g>
</g>
<!-- Node10&#45;&gt;Node12 -->
<g id="edge18" class="edge"><title>Node10&#45;&gt;Node12</title>
<path fill="none" stroke="midnightblue" d="M733.888,-168.444C763.754,-159.28 811.315,-144.688 844.456,-134.519"/>
<polygon fill="midnightblue" stroke="midnightblue" points="845.709,-137.796 854.243,-131.516 843.656,-131.104 845.709,-137.796"/>
</g>
<!-- Node18 -->
<g id="node18" class="node"><title>Node18</title>
<g id="a_node18"><a xlink:href="../../d9/d98/TeensyUSBTypes_8hpp.html" target="_top" xlink:title=" ">
<polygon fill="white" stroke="black" points="622,-112.5 622,-131.5 790,-131.5 790,-112.5 622,-112.5"/>
<text text-anchor="middle" x="706" y="-119.5" font-family="Helvetica,sans-Serif" font-size="10.00">AH/Teensy/TeensyUSBTypes.hpp</text>
</a>
</g>
</g>
<!-- Node10&#45;&gt;Node18 -->
<g id="edge28" class="edge"><title>Node10&#45;&gt;Node18</title>
<path fill="none" stroke="midnightblue" d="M706,-168.083C706,-161.006 706,-150.861 706,-141.986"/>
<polygon fill="midnightblue" stroke="midnightblue" points="709.5,-141.751 706,-131.751 702.5,-141.751 709.5,-141.751"/>
</g>
<!-- Node13 -->
<g id="node13" class="node"><title>Node13</title>
<g id="a_node13"><a xlink:href="../../dc/d50/Frequency_8hpp.html" target="_top" xlink:title=" ">
<polygon fill="white" stroke="black" points="824,-56.5 824,-75.5 952,-75.5 952,-56.5 824,-56.5"/>
<text text-anchor="middle" x="888" y="-63.5" font-family="Helvetica,sans-Serif" font-size="10.00">AH/Types/Frequency.hpp</text>
</a>
</g>
</g>
<!-- Node12&#45;&gt;Node13 -->
<g id="edge19" class="edge"><title>Node12&#45;&gt;Node13</title>
<path fill="none" stroke="midnightblue" d="M882.991,-112.083C883.786,-104.927 884.929,-94.6353 885.923,-85.6911"/>
<polygon fill="midnightblue" stroke="midnightblue" points="889.402,-86.0765 887.028,-75.7511 882.445,-85.3034 889.402,-86.0765"/>
</g>
<!-- Node14 -->
<g id="node14" class="node"><title>Node14</title>
<g id="a_node14"><a xlink:href="../../d7/d7c/ADCConfig_8hpp.html" target="_top" xlink:title="This file contains the platform&#45;specific ADC resolutions. By default, the library automatically selec...">
<polygon fill="white" stroke="black" points="658,-56.5 658,-75.5 806,-75.5 806,-56.5 658,-56.5"/>
<text text-anchor="middle" x="732" y="-63.5" font-family="Helvetica,sans-Serif" font-size="10.00">AH/Hardware/ADCConfig.hpp</text>
</a>
</g>
</g>
<!-- Node12&#45;&gt;Node14 -->
<g id="edge22" class="edge"><title>Node12&#45;&gt;Node14</title>
<path fill="none" stroke="midnightblue" d="M858.232,-112.444C833.107,-103.399 793.289,-89.064 765.1,-78.9158"/>
<polygon fill="midnightblue" stroke="midnightblue" points="766.251,-75.6106 755.657,-75.5164 763.88,-82.1968 766.251,-75.6106"/>
</g>
<!-- Node15 -->
<g id="node15" class="node"><title>Node15</title>
<g id="a_node15"><a xlink:title=" ">
<polygon fill="white" stroke="#bfbfbf" points="592,-56.5 592,-75.5 640,-75.5 640,-56.5 592,-56.5"/>
<text text-anchor="middle" x="616" y="-63.5" font-family="Helvetica,sans-Serif" font-size="10.00">limits.h</text>
</a>
</g>
</g>
<!-- Node12&#45;&gt;Node15 -->
<g id="edge25" class="edge"><title>Node12&#45;&gt;Node15</title>
<path fill="none" stroke="midnightblue" d="M846.289,-114.445C794.393,-104.864 699.705,-87.1682 649.991,-76.0621"/>
<polygon fill="midnightblue" stroke="midnightblue" points="650.626,-72.617 640.097,-73.7975 649.064,-79.4405 650.626,-72.617"/>
</g>
<!-- Node12&#45;&gt;Node16 -->
<g id="edge26" class="edge"><title>Node12&#45;&gt;Node16</title>
<path fill="none" stroke="midnightblue" d="M846.246,-114.41C841.461,-113.573 836.614,-112.749 832,-112 724.752,-94.6001 694.348,-97.7543 584.146,-76.0508"/>
<polygon fill="midnightblue" stroke="midnightblue" points="584.794,-72.6113 574.303,-74.0887 583.426,-79.4762 584.794,-72.6113"/>
</g>
<!-- Node12&#45;&gt;Node17 -->
<g id="edge27" class="edge"><title>Node12&#45;&gt;Node17</title>
<path fill="none" stroke="midnightblue" d="M899.905,-112.444C918.254,-103.675 947.005,-89.9355 968.094,-79.8579"/>
<polygon fill="midnightblue" stroke="midnightblue" points="969.665,-82.9862 977.179,-75.5164 966.647,-76.6703 969.665,-82.9862"/>
</g>
<!-- Node13&#45;&gt;Node2 -->
<g id="edge20" class="edge"><title>Node13&#45;&gt;Node2</title>
<path fill="none" stroke="midnightblue" d="M823.918,-56.9972C820.904,-56.653 817.92,-56.3188 815,-56 675.497,-40.7675 512.521,-25.9076 418.876,-17.6519"/>
<polygon fill="midnightblue" stroke="midnightblue" points="418.91,-14.1415 408.642,-16.7517 418.297,-21.1146 418.91,-14.1415"/>
</g>
<!-- Node13&#45;&gt;Node11 -->
<g id="edge21" class="edge"><title>Node13&#45;&gt;Node11</title>
<path fill="none" stroke="midnightblue" d="M928.722,-56.4435C973.649,-47.0036 1046,-31.802 1094.5,-21.6111"/>
<polygon fill="midnightblue" stroke="midnightblue" points="1095.4,-24.998 1104.47,-19.5164 1093.96,-18.1476 1095.4,-24.998"/>
</g>
<!-- Node14&#45;&gt;Node2 -->
<g id="edge23" class="edge"><title>Node14&#45;&gt;Node2</title>
<path fill="none" stroke="midnightblue" d="M670.203,-56.4435C600.457,-46.7864 487.162,-31.0993 413.613,-20.9157"/>
<polygon fill="midnightblue" stroke="midnightblue" points="413.893,-17.4211 403.508,-19.5164 412.933,-24.355 413.893,-17.4211"/>
</g>
<!-- Node14&#45;&gt;Node9 -->
<g id="edge24" class="edge"><title>Node14&#45;&gt;Node9</title>
<path fill="none" stroke="midnightblue" d="M732,-56.083C732,-49.0059 732,-38.8611 732,-29.9865"/>
<polygon fill="midnightblue" stroke="midnightblue" points="735.5,-29.751 732,-19.7511 728.5,-29.7511 735.5,-29.751"/>
</g>
<!-- Node22&#45;&gt;Node2 -->
<g id="edge37" class="edge"><title>Node22&#45;&gt;Node2</title>
<path fill="none" stroke="midnightblue" d="M1037.44,-289.355C896.95,-289.092 595.963,-283.729 501,-244 410.278,-206.045 388.247,-169.246 357,-76 351.877,-60.7122 347.89,-42.8288 345.318,-29.6941"/>
<polygon fill="midnightblue" stroke="midnightblue" points="348.702,-28.7483 343.43,-19.5586 341.821,-30.0305 348.702,-28.7483"/>
</g>
<!-- Node22&#45;&gt;Node7 -->
<g id="edge38" class="edge"><title>Node22&#45;&gt;Node7</title>
<path fill="none" stroke="midnightblue" d="M1037.35,-281.689C931.134,-271.146 736.485,-251.824 634.067,-241.657"/>
<polygon fill="midnightblue" stroke="midnightblue" points="634.146,-238.148 623.849,-240.643 633.454,-245.114 634.146,-238.148"/>
</g>
<!-- Node23 -->
<g id="node23" class="node"><title>Node23</title>
<g id="a_node23"><a xlink:href="../../d7/d79/MinMaxFix_8hpp.html" target="_top" xlink:title=" ">
<polygon fill="white" stroke="black" points="1037.5,-56.5 1037.5,-75.5 1162.5,-75.5 1162.5,-56.5 1037.5,-56.5"/>
<text text-anchor="middle" x="1100" y="-63.5" font-family="Helvetica,sans-Serif" font-size="10.00">AH/Math/MinMaxFix.hpp</text>
</a>
</g>
</g>
<!-- Node22&#45;&gt;Node23 -->
<g id="edge39" class="edge"><title>Node22&#45;&gt;Node23</title>
<path fill="none" stroke="midnightblue" d="M1101.98,-280.34C1093.93,-271.932 1082.7,-258.363 1078,-244 1059.74,-188.212 1080.59,-117.988 1092.64,-85.3002"/>
<polygon fill="midnightblue" stroke="midnightblue" points="1095.99,-86.3186 1096.32,-75.7286 1089.46,-83.8065 1095.99,-86.3186"/>
</g>
<!-- Node24 -->
<g id="node24" class="node"><title>Node24</title>
<g id="a_node24"><a xlink:title=" ">
<polygon fill="white" stroke="#bfbfbf" points="1087,-224.5 1087,-243.5 1135,-243.5 1135,-224.5 1087,-224.5"/>
<text text-anchor="middle" x="1111" y="-231.5" font-family="Helvetica,sans-Serif" font-size="10.00">stdlib.h</text>
</a>
</g>
</g>
<!-- Node22&#45;&gt;Node24 -->
<g id="edge43" class="edge"><title>Node22&#45;&gt;Node24</title>
<path fill="none" stroke="midnightblue" d="M1111,-280.083C1111,-273.006 1111,-262.861 1111,-253.986"/>
<polygon fill="midnightblue" stroke="midnightblue" points="1114.5,-253.751 1111,-243.751 1107.5,-253.751 1114.5,-253.751"/>
</g>
<!-- Node25 -->
<g id="node25" class="node"><title>Node25</title>
<g id="a_node25"><a xlink:title=" ">
<polygon fill="white" stroke="#bfbfbf" points="1153.5,-224.5 1153.5,-243.5 1200.5,-243.5 1200.5,-224.5 1153.5,-224.5"/>
<text text-anchor="middle" x="1177" y="-231.5" font-family="Helvetica,sans-Serif" font-size="10.00">iterator</text>
</a>
</g>
</g>
<!-- Node22&#45;&gt;Node25 -->
<g id="edge44" class="edge"><title>Node22&#45;&gt;Node25</title>
<path fill="none" stroke="midnightblue" d="M1121.6,-280.324C1131.46,-272.263 1146.35,-260.077 1158.22,-250.369"/>
<polygon fill="midnightblue" stroke="midnightblue" points="1160.68,-252.875 1166.2,-243.834 1156.25,-247.457 1160.68,-252.875"/>
</g>
<!-- Node23&#45;&gt;Node2 -->
<g id="edge40" class="edge"><title>Node23&#45;&gt;Node2</title>
<path fill="none" stroke="midnightblue" d="M1037.2,-56.9286C1034.09,-56.5985 1031.01,-56.2866 1028,-56 807.335,-34.9892 545.795,-20.78 418.825,-14.5618"/>
<polygon fill="midnightblue" stroke="midnightblue" points="418.967,-11.0647 408.809,-14.0742 418.627,-18.0564 418.967,-11.0647"/>
</g>
<!-- Node23&#45;&gt;Node9 -->
<g id="edge41" class="edge"><title>Node23&#45;&gt;Node9</title>
<path fill="none" stroke="midnightblue" d="M1041.69,-56.4435C966.049,-45.3441 836.126,-26.2793 771.251,-16.7597"/>
<polygon fill="midnightblue" stroke="midnightblue" points="771.444,-13.2506 761.042,-15.2616 770.428,-20.1764 771.444,-13.2506"/>
</g>
<!-- Node23&#45;&gt;Node11 -->
<g id="edge42" class="edge"><title>Node23&#45;&gt;Node11</title>
<path fill="none" stroke="midnightblue" d="M1107.43,-56.083C1113.85,-48.3768 1123.31,-37.0333 1131.12,-27.6531"/>
<polygon fill="midnightblue" stroke="midnightblue" points="1133.99,-29.674 1137.71,-19.7511 1128.62,-25.1927 1133.99,-29.674"/>
</g>
<!-- Node26&#45;&gt;Node2 -->
<g id="edge46" class="edge"><title>Node26&#45;&gt;Node2</title>
<path fill="none" stroke="midnightblue" d="M113.752,-397.943C125.679,-379.344 152,-333.487 152,-291 152,-291 152,-291 152,-121 152,-90.2048 153.278,-76.7855 176,-56 200.254,-33.8133 234.345,-22.3868 265.328,-16.569"/>
<polygon fill="midnightblue" stroke="midnightblue" points="265.995,-20.0059 275.262,-14.8706 264.815,-13.106 265.995,-20.0059"/>
</g>
<!-- Node26&#45;&gt;Node5 -->
<g id="edge47" class="edge"><title>Node26&#45;&gt;Node5</title>
<path fill="none" stroke="midnightblue" d="M148.69,-397.975C199.515,-387.327 286.471,-369.109 341.498,-357.581"/>
<polygon fill="midnightblue" stroke="midnightblue" points="342.315,-360.985 351.385,-355.509 340.88,-354.134 342.315,-360.985"/>
</g>
<!-- Node26&#45;&gt;Node8 -->
<g id="edge49" class="edge"><title>Node26&#45;&gt;Node8</title>
<path fill="none" stroke="midnightblue" d="M188.14,-402.744C320.303,-394.593 574.346,-369.987 624,-300 629.143,-292.75 629.33,-287.114 624,-280 589.845,-234.416 537.722,-287.542 501,-244 476.654,-215.132 479.461,-167.662 483.386,-141.588"/>
<polygon fill="midnightblue" stroke="midnightblue" points="486.867,-141.997 485.118,-131.548 479.969,-140.807 486.867,-141.997"/>
</g>
<!-- Node27 -->
<g id="node27" class="node"><title>Node27</title>
<g id="a_node27"><a xlink:title=" ">
<polygon fill="white" stroke="#bfbfbf" points="28.5,-336.5 28.5,-355.5 123.5,-355.5 123.5,-336.5 28.5,-336.5"/>
<text text-anchor="middle" x="76" y="-343.5" font-family="Helvetica,sans-Serif" font-size="10.00">AH/STL/algorithm</text>
</a>
</g>
</g>
<!-- Node26&#45;&gt;Node27 -->
<g id="edge48" class="edge"><title>Node26&#45;&gt;Node27</title>
<path fill="none" stroke="midnightblue" d="M103.415,-397.975C98.7577,-389.315 91.4076,-375.649 85.4899,-364.645"/>
<polygon fill="midnightblue" stroke="midnightblue" points="88.3954,-362.658 80.5763,-355.509 82.2305,-365.974 88.3954,-362.658"/>
</g>
</g>
</svg>
