<?xml version="1.0" encoding="UTF-8" standalone="no"?>
<!DOCTYPE svg PUBLIC "-//W3C//DTD SVG 1.1//EN"
 "http://www.w3.org/Graphics/SVG/1.1/DTD/svg11.dtd">
<!-- Generated by graphviz version 2.38.0 (20140413.2041)
 -->
<!-- Title: Many Addresses MIDI Output Elements Pages: 1 -->
<svg width="274pt" height="38pt"
 viewBox="0.00 0.00 274.00 38.00" xmlns="http://www.w3.org/2000/svg" xmlns:xlink="http://www.w3.org/1999/xlink">
<g id="graph0" class="graph" transform="scale(1 1) rotate(0) translate(4 34)">
<title>Many Addresses MIDI Output Elements</title>
<polygon fill="white" stroke="none" points="-4,4 -4,-34 270,-34 270,4 -4,4"/>
<!-- Node2 -->
<g id="node1" class="node"><title>Node2</title>
<g id="a_node1"><a xlink:href="../../d7/dcd/group__MIDIOutputElements.html" target="_top" xlink:title="All Elements that send out MIDI events. &#160;&#160;This includes potentiometers, faders, buttons,...">
<polygon fill="white" stroke="black" points="115,-24.5 7.10543e-15,-24.5 7.10543e-15,-5.5 115,-5.5 115,-24.5"/>
<text text-anchor="middle" x="57.5" y="-12.5" font-family="Helvetica,sans-Serif" font-size="10.00">MIDI Output Elements</text>
</a>
</g>
</g>
<!-- Node1 -->
<g id="node2" class="node"><title>Node1</title>
<g id="a_node2"><a xlink:title="All Elements that send out MIDI events, and that can banked, with a list of arbitrary addresses....">
<polygon fill="#bfbfbf" stroke="black" points="266,-30 151,-30 151,-1.77636e-15 266,-1.77636e-15 266,-30"/>
<text text-anchor="start" x="159" y="-18" font-family="Helvetica,sans-Serif" font-size="10.00">Many Addresses MIDI</text>
<text text-anchor="middle" x="208.5" y="-7" font-family="Helvetica,sans-Serif" font-size="10.00"> Output Elements</text>
</a>
</g>
</g>
<!-- Node2&#45;&gt;Node1 -->
<g id="edge1" class="edge"><title>Node2&#45;&gt;Node1</title>
<path fill="none" stroke="black" d="M125.508,-15C133.99,-15 142.604,-15 150.902,-15"/>
<polygon fill="black" stroke="black" points="125.256,-11.5001 115.256,-15 125.256,-18.5001 125.256,-11.5001"/>
</g>
</g>
</svg>
