<?xml version="1.0" encoding="UTF-8" standalone="no"?>
<!DOCTYPE svg PUBLIC "-//W3C//DTD SVG 1.1//EN"
 "http://www.w3.org/Graphics/SVG/1.1/DTD/svg11.dtd">
<!-- Generated by graphviz version 2.40.1 (20161225.0304)
 -->
<!-- Title: ExtendedInputOutput Pages: 1 -->
<svg width="213pt" height="295pt"
 viewBox="0.00 0.00 213.00 295.00" xmlns="http://www.w3.org/2000/svg" xmlns:xlink="http://www.w3.org/1999/xlink">
<g id="graph0" class="graph" transform="scale(1 1) rotate(0) translate(4 291)">
<title>ExtendedInputOutput</title>
<polygon fill="#ffffff" stroke="transparent" points="-4,4 -4,-291 209,-291 209,4 -4,4"/>
<g id="clust1" class="cluster">
<title>clusterdir_fe496568715fe26a65b354e6e2365ccd</title>
<g id="a_clust1"><a xlink:href="dir_fe496568715fe26a65b354e6e2365ccd.html" target="_top" xlink:title="Hardware">
<polygon fill="#ddddee" stroke="#000000" points="8,-208 8,-279 134,-279 134,-208 8,-208"/>
<text text-anchor="middle" x="71" y="-267" font-family="Helvetica,sans-Serif" font-size="10.00" fill="#000000">Hardware</text>
</a>
</g>
</g>
<!-- dir_6d0023d18521cff94ce9c6d6e763c3b1 -->
<g id="node1" class="node">
<title>dir_6d0023d18521cff94ce9c6d6e763c3b1</title>
<g id="a_node1"><a xlink:href="dir_6d0023d18521cff94ce9c6d6e763c3b1.html" target="_top" xlink:title="ExtendedInputOutput">
<polygon fill="#eeeeff" stroke="#000000" points="125.5,-252 16.5,-252 16.5,-216 125.5,-216 125.5,-252"/>
<text text-anchor="middle" x="71" y="-231.5" font-family="Helvetica,sans-Serif" font-size="10.00" fill="#000000">ExtendedInputOutput</text>
</a>
</g>
</g>
<!-- dir_a084c16939eb8fb9f97e0d007826b989 -->
<g id="node2" class="node">
<title>dir_a084c16939eb8fb9f97e0d007826b989</title>
<g id="a_node2"><a xlink:href="dir_a084c16939eb8fb9f97e0d007826b989.html" target="_top" xlink:title="Error">
<polygon fill="none" stroke="#000000" points="85,-108 31,-108 31,-72 85,-72 85,-108"/>
<text text-anchor="middle" x="58" y="-87.5" font-family="Helvetica,sans-Serif" font-size="10.00" fill="#000000">Error</text>
</a>
</g>
</g>
<!-- dir_6d0023d18521cff94ce9c6d6e763c3b1&#45;&gt;dir_a084c16939eb8fb9f97e0d007826b989 -->
<g id="edge4" class="edge">
<title>dir_6d0023d18521cff94ce9c6d6e763c3b1&#45;&gt;dir_a084c16939eb8fb9f97e0d007826b989</title>
<path fill="none" stroke="#000000" d="M66.4096,-215.6353C64.0281,-205.2487 61.3424,-191.9801 60,-180 57.6976,-159.4527 57.2408,-136.1073 57.3368,-118.3429"/>
<polygon fill="#000000" stroke="#000000" points="60.8366,-118.3751 57.452,-108.3354 53.8371,-118.2945 60.8366,-118.3751"/>
<g id="a_edge4&#45;headlabel"><a xlink:href="dir_000003_000010.html" target="_top" xlink:title="2">
<text text-anchor="middle" x="63.6344" y="-119.5021" font-family="Helvetica,sans-Serif" font-size="10.00" fill="#000000">2</text>
</a>
</g>
</g>
<!-- dir_c93ba603db00711c7f5106968469b448 -->
<g id="node3" class="node">
<title>dir_c93ba603db00711c7f5106968469b448</title>
<g id="a_node3"><a xlink:href="dir_c93ba603db00711c7f5106968469b448.html" target="_top" xlink:title="Settings">
<polygon fill="none" stroke="#000000" points="112,-36 58,-36 58,0 112,0 112,-36"/>
<text text-anchor="middle" x="85" y="-15.5" font-family="Helvetica,sans-Serif" font-size="10.00" fill="#000000">Settings</text>
</a>
</g>
</g>
<!-- dir_6d0023d18521cff94ce9c6d6e763c3b1&#45;&gt;dir_c93ba603db00711c7f5106968469b448 -->
<g id="edge5" class="edge">
<title>dir_6d0023d18521cff94ce9c6d6e763c3b1&#45;&gt;dir_c93ba603db00711c7f5106968469b448</title>
<path fill="none" stroke="#000000" d="M57.2359,-215.9173C35.7688,-185.3507 -.96,-121.92 22,-72 27.948,-59.0678 38.6904,-48.0737 49.6398,-39.4482"/>
<polygon fill="#000000" stroke="#000000" points="51.9919,-42.0633 57.9774,-33.3211 47.8466,-36.4226 51.9919,-42.0633"/>
<g id="a_edge5&#45;headlabel"><a xlink:href="dir_000003_000014.html" target="_top" xlink:title="13">
<text text-anchor="middle" x="50.7767" y="-43.9798" font-family="Helvetica,sans-Serif" font-size="10.00" fill="#000000">13</text>
</a>
</g>
</g>
<!-- dir_242b6e8526387d642d81914582ef5537 -->
<g id="node4" class="node">
<title>dir_242b6e8526387d642d81914582ef5537</title>
<g id="a_node4"><a xlink:href="dir_242b6e8526387d642d81914582ef5537.html" target="_top" xlink:title="LEDs">
<polygon fill="none" stroke="#000000" points="205,-180 151,-180 151,-144 205,-144 205,-180"/>
<text text-anchor="middle" x="178" y="-159.5" font-family="Helvetica,sans-Serif" font-size="10.00" fill="#000000">LEDs</text>
</a>
</g>
</g>
<!-- dir_6d0023d18521cff94ce9c6d6e763c3b1&#45;&gt;dir_242b6e8526387d642d81914582ef5537 -->
<g id="edge6" class="edge">
<title>dir_6d0023d18521cff94ce9c6d6e763c3b1&#45;&gt;dir_242b6e8526387d642d81914582ef5537</title>
<path fill="none" stroke="#000000" d="M92.0482,-215.8314C106.301,-205.5676 125.3393,-192.7168 141.9309,-182.1454"/>
<polygon fill="#000000" stroke="#000000" points="144.2476,-184.8232 150.8508,-176.5378 140.5219,-178.897 144.2476,-184.8232"/>
<g id="a_edge6&#45;headlabel"><a xlink:href="dir_000003_000008.html" target="_top" xlink:title="1">
<text text-anchor="middle" x="142.7155" y="-186.64" font-family="Helvetica,sans-Serif" font-size="10.00" fill="#000000">1</text>
</a>
</g>
</g>
<!-- dir_a47c593fc78d643c88f09a46c50bf78a -->
<g id="node5" class="node">
<title>dir_a47c593fc78d643c88f09a46c50bf78a</title>
<g id="a_node5"><a xlink:href="dir_a47c593fc78d643c88f09a46c50bf78a.html" target="_top" xlink:title="Containers">
<polygon fill="none" stroke="#000000" points="133,-180 69,-180 69,-144 133,-144 133,-180"/>
<text text-anchor="middle" x="101" y="-159.5" font-family="Helvetica,sans-Serif" font-size="10.00" fill="#000000">Containers</text>
</a>
</g>
</g>
<!-- dir_6d0023d18521cff94ce9c6d6e763c3b1&#45;&gt;dir_a47c593fc78d643c88f09a46c50bf78a -->
<g id="edge7" class="edge">
<title>dir_6d0023d18521cff94ce9c6d6e763c3b1&#45;&gt;dir_a47c593fc78d643c88f09a46c50bf78a</title>
<path fill="none" stroke="#000000" d="M78.5703,-215.8314C81.8493,-207.9617 85.762,-198.5712 89.3945,-189.8533"/>
<polygon fill="#000000" stroke="#000000" points="92.7124,-190.9902 93.3278,-180.4133 86.2508,-188.2979 92.7124,-190.9902"/>
<g id="a_edge7&#45;headlabel"><a xlink:href="dir_000003_000004.html" target="_top" xlink:title="6">
<text text-anchor="middle" x="93.9507" y="-192.9003" font-family="Helvetica,sans-Serif" font-size="10.00" fill="#000000">6</text>
</a>
</g>
</g>
<!-- dir_a084c16939eb8fb9f97e0d007826b989&#45;&gt;dir_c93ba603db00711c7f5106968469b448 -->
<g id="edge1" class="edge">
<title>dir_a084c16939eb8fb9f97e0d007826b989&#45;&gt;dir_c93ba603db00711c7f5106968469b448</title>
<path fill="none" stroke="#000000" d="M64.8132,-71.8314C67.7644,-63.9617 71.2858,-54.5712 74.555,-45.8533"/>
<polygon fill="#000000" stroke="#000000" points="77.8609,-47.0055 78.095,-36.4133 71.3066,-44.5476 77.8609,-47.0055"/>
<g id="a_edge1&#45;headlabel"><a xlink:href="dir_000010_000014.html" target="_top" xlink:title="2">
<text text-anchor="middle" x="79.2573" y="-48.8682" font-family="Helvetica,sans-Serif" font-size="10.00" fill="#000000">2</text>
</a>
</g>
</g>
<!-- dir_242b6e8526387d642d81914582ef5537&#45;&gt;dir_6d0023d18521cff94ce9c6d6e763c3b1 -->
<g id="edge3" class="edge">
<title>dir_242b6e8526387d642d81914582ef5537&#45;&gt;dir_6d0023d18521cff94ce9c6d6e763c3b1</title>
<path fill="none" stroke="#000000" d="M156.9598,-180.1628C144.2914,-189.2859 127.8402,-200.4541 112.6868,-210.2489"/>
<polygon fill="#000000" stroke="#000000" points="110.4939,-207.4966 103.953,-215.8314 114.2639,-213.3947 110.4939,-207.4966"/>
<g id="a_edge3&#45;headlabel"><a xlink:href="dir_000008_000003.html" target="_top" xlink:title="2">
<text text-anchor="middle" x="111.9935" y="-200.6684" font-family="Helvetica,sans-Serif" font-size="10.00" fill="#000000">2</text>
</a>
</g>
</g>
<!-- dir_242b6e8526387d642d81914582ef5537&#45;&gt;dir_c93ba603db00711c7f5106968469b448 -->
<g id="edge2" class="edge">
<title>dir_242b6e8526387d642d81914582ef5537&#45;&gt;dir_c93ba603db00711c7f5106968469b448</title>
<path fill="none" stroke="#000000" d="M166.2215,-143.7623C150.0795,-118.7682 120.968,-73.6924 102.3347,-44.8409"/>
<polygon fill="#000000" stroke="#000000" points="105.0483,-42.5912 96.6829,-36.0896 99.168,-46.3889 105.0483,-42.5912"/>
<g id="a_edge2&#45;headlabel"><a xlink:href="dir_000008_000014.html" target="_top" xlink:title="4">
<text text-anchor="middle" x="109.3835" y="-41.5704" font-family="Helvetica,sans-Serif" font-size="10.00" fill="#000000">4</text>
</a>
</g>
</g>
<!-- dir_a47c593fc78d643c88f09a46c50bf78a&#45;&gt;dir_a084c16939eb8fb9f97e0d007826b989 -->
<g id="edge8" class="edge">
<title>dir_a47c593fc78d643c88f09a46c50bf78a&#45;&gt;dir_a084c16939eb8fb9f97e0d007826b989</title>
<path fill="none" stroke="#000000" d="M90.1493,-143.8314C85.2977,-135.7079 79.4783,-125.9637 74.132,-117.0118"/>
<polygon fill="#000000" stroke="#000000" points="77.1292,-115.2041 68.9968,-108.4133 71.1194,-118.7933 77.1292,-115.2041"/>
<g id="a_edge8&#45;headlabel"><a xlink:href="dir_000004_000010.html" target="_top" xlink:title="3">
<text text-anchor="middle" x="81.4099" y="-114.3344" font-family="Helvetica,sans-Serif" font-size="10.00" fill="#000000">3</text>
</a>
</g>
</g>
<!-- dir_a47c593fc78d643c88f09a46c50bf78a&#45;&gt;dir_c93ba603db00711c7f5106968469b448 -->
<g id="edge9" class="edge">
<title>dir_a47c593fc78d643c88f09a46c50bf78a&#45;&gt;dir_c93ba603db00711c7f5106968469b448</title>
<path fill="none" stroke="#000000" d="M100.0462,-143.6818C98.9869,-125.463 97.0173,-96.7354 94,-72 92.9804,-63.6417 91.5887,-54.6013 90.2044,-46.3518"/>
<polygon fill="#000000" stroke="#000000" points="93.6421,-45.6907 88.4837,-36.4365 86.7452,-46.8877 93.6421,-45.6907"/>
<g id="a_edge9&#45;headlabel"><a xlink:href="dir_000004_000014.html" target="_top" xlink:title="8">
<text text-anchor="middle" x="97.0541" y="-46.2469" font-family="Helvetica,sans-Serif" font-size="10.00" fill="#000000">8</text>
</a>
</g>
</g>
</g>
</svg>
