<?xml version="1.0" encoding="UTF-8" standalone="no"?>
<!DOCTYPE svg PUBLIC "-//W3C//DTD SVG 1.1//EN"
 "http://www.w3.org/Graphics/SVG/1.1/DTD/svg11.dtd">
<!-- Generated by graphviz version 2.38.0 (20140413.2041)
 -->
<!-- Title: LEDs Pages: 1 -->
<svg width="117pt" height="151pt"
 viewBox="0.00 0.00 117.00 151.00" xmlns="http://www.w3.org/2000/svg" xmlns:xlink="http://www.w3.org/1999/xlink">
<g id="graph0" class="graph" transform="scale(1 1) rotate(0) translate(4 147)">
<title>LEDs</title>
<polygon fill="white" stroke="none" points="-4,4 -4,-147 113,-147 113,4 -4,4"/>
<g id="clust1" class="cluster"><title>clusterdir_fe496568715fe26a65b354e6e2365ccd</title>
<g id="a_clust1"><a xlink:href="dir_fe496568715fe26a65b354e6e2365ccd.html" target="_top" xlink:title="Hardware">
<polygon fill="#ddddee" stroke="black" points="19.5,-64 19.5,-135 89.5,-135 89.5,-64 19.5,-64"/>
<text text-anchor="middle" x="54.5" y="-123" font-family="Helvetica,sans-Serif" font-size="10.00">Hardware</text>
</a>
</g>
</g>
<!-- dir_242b6e8526387d642d81914582ef5537 -->
<g id="node1" class="node"><title>dir_242b6e8526387d642d81914582ef5537</title>
<g id="a_node1"><a xlink:href="dir_242b6e8526387d642d81914582ef5537.html" target="_top" xlink:title="LEDs">
<polygon fill="#eeeeff" stroke="black" points="81.5,-108 27.5,-108 27.5,-72 81.5,-72 81.5,-108"/>
<text text-anchor="middle" x="54.5" y="-87.5" font-family="Helvetica,sans-Serif" font-size="10.00">LEDs</text>
</a>
</g>
</g>
<!-- dir_6d0023d18521cff94ce9c6d6e763c3b1 -->
<g id="node2" class="node"><title>dir_6d0023d18521cff94ce9c6d6e763c3b1</title>
<g id="a_node2"><a xlink:href="dir_6d0023d18521cff94ce9c6d6e763c3b1.html" target="_top" xlink:title="ExtendedInputOutput">
<polygon fill="none" stroke="black" points="109,-36 0,-36 0,-0 109,-0 109,-36"/>
<text text-anchor="middle" x="54.5" y="-15.5" font-family="Helvetica,sans-Serif" font-size="10.00">ExtendedInputOutput</text>
</a>
</g>
</g>
<!-- dir_242b6e8526387d642d81914582ef5537&#45;&gt;dir_6d0023d18521cff94ce9c6d6e763c3b1 -->
<g id="edge1" class="edge"><title>dir_242b6e8526387d642d81914582ef5537&#45;&gt;dir_6d0023d18521cff94ce9c6d6e763c3b1</title>
<path fill="none" stroke="black" d="M48.5843,-71.6966C47.7886,-63.9827 47.5621,-54.7125 47.9047,-46.1124"/>
<polygon fill="black" stroke="black" points="51.3984,-46.3243 48.605,-36.1043 44.4154,-45.8356 51.3984,-46.3243"/>
<g id="a_edge1&#45;headlabel"><a xlink:href="dir_000007_000003.html" target="_top" xlink:title="2">
<text text-anchor="middle" x="53.9799" y="-47.6083" font-family="Helvetica,sans-Serif" font-size="10.00">2</text>
</a>
</g>
</g>
<!-- dir_6d0023d18521cff94ce9c6d6e763c3b1&#45;&gt;dir_242b6e8526387d642d81914582ef5537 -->
<g id="edge2" class="edge"><title>dir_6d0023d18521cff94ce9c6d6e763c3b1&#45;&gt;dir_242b6e8526387d642d81914582ef5537</title>
<path fill="none" stroke="black" d="M60.395,-36.1043C61.2005,-43.7913 61.4369,-53.0537 61.104,-61.6651"/>
<polygon fill="black" stroke="black" points="57.6085,-61.4805 60.4157,-71.6966 64.5921,-61.9597 57.6085,-61.4805"/>
<g id="a_edge2&#45;headlabel"><a xlink:href="dir_000003_000007.html" target="_top" xlink:title="1">
<text text-anchor="middle" x="55.0219" y="-55.2" font-family="Helvetica,sans-Serif" font-size="10.00">1</text>
</a>
</g>
</g>
</g>
</svg>
