<?xml version="1.0" encoding="UTF-8" standalone="no"?>
<!DOCTYPE svg PUBLIC "-//W3C//DTD SVG 1.1//EN"
 "http://www.w3.org/Graphics/SVG/1.1/DTD/svg11.dtd">
<!-- Generated by graphviz version 2.43.0 (0)
 -->
<!-- Title: CCPotentiometer Pages: 1 -->
<svg width="848pt" height="1396pt"
 viewBox="0.00 0.00 847.50 1396.00" xmlns="http://www.w3.org/2000/svg" xmlns:xlink="http://www.w3.org/1999/xlink">
<g id="graph0" class="graph" transform="scale(1 1) rotate(0) translate(4 1392)">
<title>CCPotentiometer</title>
<polygon fill="white" stroke="transparent" points="-4,4 -4,-1392 843.5,-1392 843.5,4 -4,4"/>
<!-- Node1 -->
<g id="node1" class="node">
<title>Node1</title>
<g id="a_node1"><a xlink:title="A class of MIDIOutputElements that read the analog input from a potentiometer or fader,...">
<polygon fill="#bfbfbf" stroke="black" points="510,-0.5 510,-57.5 629,-57.5 629,-0.5 510,-0.5"/>
<text text-anchor="middle" x="569.5" y="-45.5" font-family="Helvetica,sans-Serif" font-size="10.00">CCPotentiometer</text>
<polyline fill="none" stroke="black" points="510,-38.5 629,-38.5 "/>
<text text-anchor="middle" x="569.5" y="-26.5" font-family="Helvetica,sans-Serif" font-size="10.00"> </text>
<polyline fill="none" stroke="black" points="510,-19.5 629,-19.5 "/>
<text text-anchor="start" x="518" y="-7.5" font-family="Helvetica,sans-Serif" font-size="10.00">+ CCPotentiometer()</text>
</a>
</g>
</g>
<!-- Node2 -->
<g id="node2" class="node">
<title>Node2</title>
<g id="a_node2"><a xlink:href="../../d0/dd2/classMIDIFilteredAnalogAddressable.html" target="_top" xlink:title=" ">
<polygon fill="white" stroke="black" points="475.5,-95.5 475.5,-229.5 663.5,-229.5 663.5,-95.5 475.5,-95.5"/>
<text text-anchor="start" x="483.5" y="-217.5" font-family="Helvetica,sans-Serif" font-size="10.00">MIDIFilteredAnalogAddressable</text>
<text text-anchor="middle" x="569.5" y="-206.5" font-family="Helvetica,sans-Serif" font-size="10.00">&lt; ContinuousCCSender &gt;</text>
<polyline fill="none" stroke="black" points="475.5,-199.5 663.5,-199.5 "/>
<text text-anchor="middle" x="569.5" y="-187.5" font-family="Helvetica,sans-Serif" font-size="10.00"> </text>
<polyline fill="none" stroke="black" points="475.5,-180.5 663.5,-180.5 "/>
<text text-anchor="start" x="483.5" y="-168.5" font-family="Helvetica,sans-Serif" font-size="10.00">+ begin()</text>
<text text-anchor="start" x="483.5" y="-157.5" font-family="Helvetica,sans-Serif" font-size="10.00">+ update()</text>
<text text-anchor="start" x="483.5" y="-146.5" font-family="Helvetica,sans-Serif" font-size="10.00">+ map()</text>
<text text-anchor="start" x="483.5" y="-135.5" font-family="Helvetica,sans-Serif" font-size="10.00">+ invert()</text>
<text text-anchor="start" x="483.5" y="-124.5" font-family="Helvetica,sans-Serif" font-size="10.00">+ getRawValue()</text>
<text text-anchor="start" x="483.5" y="-113.5" font-family="Helvetica,sans-Serif" font-size="10.00">+ getValue()</text>
<text text-anchor="start" x="483.5" y="-102.5" font-family="Helvetica,sans-Serif" font-size="10.00"># MIDIFilteredAnalogAddressable()</text>
</a>
</g>
</g>
<!-- Node2&#45;&gt;Node1 -->
<g id="edge1" class="edge">
<title>Node2&#45;&gt;Node1</title>
<path fill="none" stroke="midnightblue" d="M569.5,-85.12C569.5,-75.36 569.5,-65.92 569.5,-57.7"/>
<polygon fill="none" stroke="midnightblue" points="566,-85.36 569.5,-95.36 573,-85.36 566,-85.36"/>
</g>
<!-- Node3 -->
<g id="node3" class="node">
<title>Node3</title>
<g id="a_node3"><a xlink:href="../../d1/d55/classAH_1_1Updatable.html" target="_top" xlink:title=" ">
<polygon fill="white" stroke="black" points="261,-376.5 261,-466.5 374,-466.5 374,-376.5 261,-376.5"/>
<text text-anchor="middle" x="317.5" y="-454.5" font-family="Helvetica,sans-Serif" font-size="10.00">MIDIOutputElement</text>
<polyline fill="none" stroke="black" points="261,-447.5 374,-447.5 "/>
<text text-anchor="middle" x="317.5" y="-435.5" font-family="Helvetica,sans-Serif" font-size="10.00"> </text>
<polyline fill="none" stroke="black" points="261,-428.5 374,-428.5 "/>
<text text-anchor="start" x="269" y="-416.5" font-family="Helvetica,sans-Serif" font-size="10.00">* begin()</text>
<text text-anchor="start" x="269" y="-405.5" font-family="Helvetica,sans-Serif" font-size="10.00">* update()</text>
<text text-anchor="start" x="269" y="-394.5" font-family="Helvetica,sans-Serif" font-size="10.00">* beginAll()</text>
<text text-anchor="start" x="269" y="-383.5" font-family="Helvetica,sans-Serif" font-size="10.00">* updateAll()</text>
</a>
</g>
</g>
<!-- Node3&#45;&gt;Node2 -->
<g id="edge2" class="edge">
<title>Node3&#45;&gt;Node2</title>
<path fill="none" stroke="midnightblue" d="M341.01,-367.16C355.42,-338.34 375.84,-303.37 400.5,-277 422.11,-253.9 449.26,-233.07 475.44,-215.76"/>
<polygon fill="none" stroke="midnightblue" points="337.8,-365.77 336.54,-376.29 344.08,-368.84 337.8,-365.77"/>
</g>
<!-- Node4 -->
<g id="node4" class="node">
<title>Node4</title>
<g id="a_node4"><a xlink:href="../../d8/d1a/classAH_1_1UpdatableCRTP.html" target="_top" xlink:title=" ">
<polygon fill="white" stroke="black" points="192,-603.5 192,-880.5 345,-880.5 345,-603.5 192,-603.5"/>
<text text-anchor="start" x="200" y="-868.5" font-family="Helvetica,sans-Serif" font-size="10.00">UpdatableCRTP&lt; Updatable</text>
<text text-anchor="start" x="200" y="-857.5" font-family="Helvetica,sans-Serif" font-size="10.00">&lt; NormalUpdatable, false</text>
<text text-anchor="middle" x="268.5" y="-846.5" font-family="Helvetica,sans-Serif" font-size="10.00"> &gt;, false &gt;</text>
<polyline fill="none" stroke="black" points="192,-839.5 345,-839.5 "/>
<text text-anchor="start" x="200" y="-827.5" font-family="Helvetica,sans-Serif" font-size="10.00"># mutex</text>
<polyline fill="none" stroke="black" points="192,-820.5 345,-820.5 "/>
<text text-anchor="start" x="200" y="-808.5" font-family="Helvetica,sans-Serif" font-size="10.00">+ ~UpdatableCRTP()</text>
<text text-anchor="start" x="200" y="-797.5" font-family="Helvetica,sans-Serif" font-size="10.00">+ getMutex()</text>
<text text-anchor="start" x="200" y="-786.5" font-family="Helvetica,sans-Serif" font-size="10.00"># UpdatableCRTP()</text>
<text text-anchor="start" x="200" y="-775.5" font-family="Helvetica,sans-Serif" font-size="10.00">* enable()</text>
<text text-anchor="start" x="200" y="-764.5" font-family="Helvetica,sans-Serif" font-size="10.00">* enable()</text>
<text text-anchor="start" x="200" y="-753.5" font-family="Helvetica,sans-Serif" font-size="10.00">* disable()</text>
<text text-anchor="start" x="200" y="-742.5" font-family="Helvetica,sans-Serif" font-size="10.00">* disable()</text>
<text text-anchor="start" x="200" y="-731.5" font-family="Helvetica,sans-Serif" font-size="10.00">* isEnabled()</text>
<text text-anchor="start" x="200" y="-720.5" font-family="Helvetica,sans-Serif" font-size="10.00">* isEnabled()</text>
<text text-anchor="start" x="200" y="-709.5" font-family="Helvetica,sans-Serif" font-size="10.00">* moveDown()</text>
<text text-anchor="start" x="200" y="-698.5" font-family="Helvetica,sans-Serif" font-size="10.00">* moveDown()</text>
<text text-anchor="start" x="200" y="-687.5" font-family="Helvetica,sans-Serif" font-size="10.00">* enable()</text>
<text text-anchor="start" x="200" y="-676.5" font-family="Helvetica,sans-Serif" font-size="10.00">* enable()</text>
<text text-anchor="start" x="200" y="-665.5" font-family="Helvetica,sans-Serif" font-size="10.00">* enable()</text>
<text text-anchor="start" x="200" y="-654.5" font-family="Helvetica,sans-Serif" font-size="10.00">* disable()</text>
<text text-anchor="start" x="200" y="-643.5" font-family="Helvetica,sans-Serif" font-size="10.00">* disable()</text>
<text text-anchor="start" x="200" y="-632.5" font-family="Helvetica,sans-Serif" font-size="10.00">* disable()</text>
<text text-anchor="start" x="200" y="-621.5" font-family="Helvetica,sans-Serif" font-size="10.00">* applyToAll()</text>
<text text-anchor="start" x="200" y="-610.5" font-family="Helvetica,sans-Serif" font-size="10.00">* applyToAll()</text>
</a>
</g>
</g>
<!-- Node4&#45;&gt;Node3 -->
<g id="edge3" class="edge">
<title>Node4&#45;&gt;Node3</title>
<path fill="none" stroke="midnightblue" d="M291.26,-593.05C298.34,-547.05 305.61,-499.78 310.7,-466.71"/>
<polygon fill="none" stroke="midnightblue" points="287.77,-592.74 289.71,-603.15 294.69,-593.8 287.77,-592.74"/>
</g>
<!-- Node5 -->
<g id="node5" class="node">
<title>Node5</title>
<g id="a_node5"><a xlink:href="../../d4/d23/classDoublyLinkable.html" target="_top" xlink:title=" ">
<polygon fill="white" stroke="black" points="0,-1044 0,-1123 167,-1123 167,-1044 0,-1044"/>
<text text-anchor="start" x="8" y="-1111" font-family="Helvetica,sans-Serif" font-size="10.00">DoublyLinkable&lt; Updatable</text>
<text text-anchor="middle" x="83.5" y="-1100" font-family="Helvetica,sans-Serif" font-size="10.00">&lt; NormalUpdatable, false &gt; &gt;</text>
<polyline fill="none" stroke="black" points="0,-1093 167,-1093 "/>
<text text-anchor="start" x="8" y="-1081" font-family="Helvetica,sans-Serif" font-size="10.00"># next</text>
<text text-anchor="start" x="8" y="-1070" font-family="Helvetica,sans-Serif" font-size="10.00"># previous</text>
<polyline fill="none" stroke="black" points="0,-1063 167,-1063 "/>
<text text-anchor="start" x="8" y="-1051" font-family="Helvetica,sans-Serif" font-size="10.00"># ~DoublyLinkable()</text>
</a>
</g>
</g>
<!-- Node5&#45;&gt;Node4 -->
<g id="edge4" class="edge">
<title>Node5&#45;&gt;Node4</title>
<path fill="none" stroke="midnightblue" d="M109.45,-1034.88C131.28,-994.81 163.64,-935.43 193.48,-880.68"/>
<polygon fill="none" stroke="midnightblue" points="106.25,-1033.43 104.54,-1043.89 112.4,-1036.78 106.25,-1033.43"/>
</g>
<!-- Node6 -->
<g id="node6" class="node">
<title>Node6</title>
<g id="a_node6"><a xlink:href="../../dd/d16/classDoublyLinkedList.html" target="_top" xlink:title=" ">
<polygon fill="white" stroke="black" points="185,-928.5 185,-1238.5 352,-1238.5 352,-928.5 185,-928.5"/>
<text text-anchor="start" x="193" y="-1226.5" font-family="Helvetica,sans-Serif" font-size="10.00">DoublyLinkedList&lt; Updatable</text>
<text text-anchor="middle" x="268.5" y="-1215.5" font-family="Helvetica,sans-Serif" font-size="10.00">&lt; NormalUpdatable, false &gt; &gt;</text>
<polyline fill="none" stroke="black" points="185,-1208.5 352,-1208.5 "/>
<text text-anchor="start" x="193" y="-1196.5" font-family="Helvetica,sans-Serif" font-size="10.00">&#45; first</text>
<text text-anchor="start" x="193" y="-1185.5" font-family="Helvetica,sans-Serif" font-size="10.00">&#45; last</text>
<polyline fill="none" stroke="black" points="185,-1178.5 352,-1178.5 "/>
<text text-anchor="start" x="193" y="-1166.5" font-family="Helvetica,sans-Serif" font-size="10.00">+ append()</text>
<text text-anchor="start" x="193" y="-1155.5" font-family="Helvetica,sans-Serif" font-size="10.00">+ append()</text>
<text text-anchor="start" x="193" y="-1144.5" font-family="Helvetica,sans-Serif" font-size="10.00">+ insertBefore()</text>
<text text-anchor="start" x="193" y="-1133.5" font-family="Helvetica,sans-Serif" font-size="10.00">+ insertBefore()</text>
<text text-anchor="start" x="193" y="-1122.5" font-family="Helvetica,sans-Serif" font-size="10.00">+ insertSorted()</text>
<text text-anchor="start" x="193" y="-1111.5" font-family="Helvetica,sans-Serif" font-size="10.00">+ insertSorted()</text>
<text text-anchor="start" x="193" y="-1100.5" font-family="Helvetica,sans-Serif" font-size="10.00">+ remove()</text>
<text text-anchor="start" x="193" y="-1089.5" font-family="Helvetica,sans-Serif" font-size="10.00">+ remove()</text>
<text text-anchor="start" x="193" y="-1078.5" font-family="Helvetica,sans-Serif" font-size="10.00">+ moveDown()</text>
<text text-anchor="start" x="193" y="-1067.5" font-family="Helvetica,sans-Serif" font-size="10.00">+ moveDown()</text>
<text text-anchor="start" x="193" y="-1056.5" font-family="Helvetica,sans-Serif" font-size="10.00">+ couldContain()</text>
<text text-anchor="start" x="193" y="-1045.5" font-family="Helvetica,sans-Serif" font-size="10.00">+ couldContain()</text>
<text text-anchor="start" x="193" y="-1034.5" font-family="Helvetica,sans-Serif" font-size="10.00">+ begin()</text>
<text text-anchor="start" x="193" y="-1023.5" font-family="Helvetica,sans-Serif" font-size="10.00">+ begin()</text>
<text text-anchor="start" x="193" y="-1012.5" font-family="Helvetica,sans-Serif" font-size="10.00">+ end()</text>
<text text-anchor="start" x="193" y="-1001.5" font-family="Helvetica,sans-Serif" font-size="10.00">+ end()</text>
<text text-anchor="start" x="193" y="-990.5" font-family="Helvetica,sans-Serif" font-size="10.00">+ rbegin()</text>
<text text-anchor="start" x="193" y="-979.5" font-family="Helvetica,sans-Serif" font-size="10.00">+ rbegin()</text>
<text text-anchor="start" x="193" y="-968.5" font-family="Helvetica,sans-Serif" font-size="10.00">+ rend()</text>
<text text-anchor="start" x="193" y="-957.5" font-family="Helvetica,sans-Serif" font-size="10.00">+ rend()</text>
<text text-anchor="start" x="193" y="-946.5" font-family="Helvetica,sans-Serif" font-size="10.00">+ getFirst()</text>
<text text-anchor="start" x="193" y="-935.5" font-family="Helvetica,sans-Serif" font-size="10.00">+ getLast()</text>
</a>
</g>
</g>
<!-- Node6&#45;&gt;Node4 -->
<g id="edge5" class="edge">
<title>Node6&#45;&gt;Node4</title>
<path fill="none" stroke="#404040" d="M268.5,-928.15C268.5,-916.38 268.5,-904.52 268.5,-892.78"/>
<polygon fill="none" stroke="#404040" points="268.5,-892.61 264.5,-886.61 268.5,-880.61 272.5,-886.61 268.5,-892.61"/>
<text text-anchor="middle" x="301.5" y="-902" font-family="Helvetica,sans-Serif" font-size="10.00"> #updatables</text>
</g>
<!-- Node7 -->
<g id="node7" class="node">
<title>Node7</title>
<g id="a_node7"><a xlink:href="../../d3/d6e/classAH_1_1FilteredAnalog.html" target="_top" xlink:title=" ">
<polygon fill="white" stroke="black" points="409.5,-382 409.5,-461 541.5,-461 541.5,-382 409.5,-382"/>
<text text-anchor="start" x="417.5" y="-449" font-family="Helvetica,sans-Serif" font-size="10.00">FilteredAnalog&lt; Sender</text>
<text text-anchor="middle" x="475.5" y="-438" font-family="Helvetica,sans-Serif" font-size="10.00">::precision()&gt;</text>
<polyline fill="none" stroke="black" points="409.5,-431 541.5,-431 "/>
<text text-anchor="middle" x="475.5" y="-419" font-family="Helvetica,sans-Serif" font-size="10.00"> </text>
<polyline fill="none" stroke="black" points="409.5,-412 541.5,-412 "/>
<text text-anchor="start" x="417.5" y="-400" font-family="Helvetica,sans-Serif" font-size="10.00">+ FilteredAnalog()</text>
<text text-anchor="start" x="417.5" y="-389" font-family="Helvetica,sans-Serif" font-size="10.00">+ invert()</text>
</a>
</g>
</g>
<!-- Node7&#45;&gt;Node2 -->
<g id="edge6" class="edge">
<title>Node7&#45;&gt;Node2</title>
<path fill="none" stroke="#404040" d="M477.38,-381.69C480.28,-345.73 487.67,-291.41 506.5,-248 507.64,-245.38 508.87,-242.76 510.18,-240.16"/>
<polygon fill="none" stroke="#404040" points="510.22,-240.1 509.59,-232.92 515.98,-229.58 516.61,-236.76 510.22,-240.1"/>
<text text-anchor="middle" x="544.5" y="-251" font-family="Helvetica,sans-Serif" font-size="10.00"> &#45;filteredAnalog</text>
</g>
<!-- Node8 -->
<g id="node8" class="node">
<title>Node8</title>
<g id="a_node8"><a xlink:href="../../da/d36/classAH_1_1GenericFilteredAnalog.html" target="_top" xlink:title=" ">
<polygon fill="white" stroke="black" points="380.5,-609 380.5,-875 604.5,-875 604.5,-609 380.5,-609"/>
<text text-anchor="start" x="388.5" y="-863" font-family="Helvetica,sans-Serif" font-size="10.00">GenericFilteredAnalog</text>
<text text-anchor="start" x="388.5" y="-852" font-family="Helvetica,sans-Serif" font-size="10.00">&lt; analog_t(*)(analog</text>
<text text-anchor="start" x="388.5" y="-841" font-family="Helvetica,sans-Serif" font-size="10.00">_t), Precision, ANALOG</text>
<text text-anchor="start" x="388.5" y="-830" font-family="Helvetica,sans-Serif" font-size="10.00">_FILTER_SHIFT_FACTOR, ANALOG</text>
<text text-anchor="start" x="388.5" y="-819" font-family="Helvetica,sans-Serif" font-size="10.00">_FILTER_TYPE, analog_t, MaximumFiltered</text>
<text text-anchor="start" x="388.5" y="-808" font-family="Helvetica,sans-Serif" font-size="10.00">AnalogIncRes&lt; ANALOG_FILTER_SHIFT</text>
<text text-anchor="start" x="388.5" y="-797" font-family="Helvetica,sans-Serif" font-size="10.00">_FACTOR, ANALOG_FILTER_TYPE, analog</text>
<text text-anchor="middle" x="492.5" y="-786" font-family="Helvetica,sans-Serif" font-size="10.00">_t &gt;::value &gt;</text>
<polyline fill="none" stroke="black" points="380.5,-779 604.5,-779 "/>
<text text-anchor="start" x="388.5" y="-767" font-family="Helvetica,sans-Serif" font-size="10.00">&#45; analogPin</text>
<polyline fill="none" stroke="black" points="380.5,-760 604.5,-760 "/>
<text text-anchor="start" x="388.5" y="-748" font-family="Helvetica,sans-Serif" font-size="10.00">+ GenericFilteredAnalog()</text>
<text text-anchor="start" x="388.5" y="-737" font-family="Helvetica,sans-Serif" font-size="10.00">+ reset()</text>
<text text-anchor="start" x="388.5" y="-726" font-family="Helvetica,sans-Serif" font-size="10.00">+ map()</text>
<text text-anchor="start" x="388.5" y="-715" font-family="Helvetica,sans-Serif" font-size="10.00">+ getMappingFunction()</text>
<text text-anchor="start" x="388.5" y="-704" font-family="Helvetica,sans-Serif" font-size="10.00">+ getMappingFunction()</text>
<text text-anchor="start" x="388.5" y="-693" font-family="Helvetica,sans-Serif" font-size="10.00">+ update()</text>
<text text-anchor="start" x="388.5" y="-682" font-family="Helvetica,sans-Serif" font-size="10.00">+ getValue()</text>
<text text-anchor="start" x="388.5" y="-671" font-family="Helvetica,sans-Serif" font-size="10.00">+ getFloatValue()</text>
<text text-anchor="start" x="388.5" y="-660" font-family="Helvetica,sans-Serif" font-size="10.00">+ getRawValue()</text>
<text text-anchor="start" x="388.5" y="-649" font-family="Helvetica,sans-Serif" font-size="10.00">+ getMaxRawValue()</text>
<text text-anchor="start" x="388.5" y="-638" font-family="Helvetica,sans-Serif" font-size="10.00">+ setupADC()</text>
<text text-anchor="start" x="388.5" y="-627" font-family="Helvetica,sans-Serif" font-size="10.00">&#45; mapFnHelper()</text>
<text text-anchor="start" x="388.5" y="-616" font-family="Helvetica,sans-Serif" font-size="10.00">&#45; mapFnHelper()</text>
</a>
</g>
</g>
<!-- Node8&#45;&gt;Node7 -->
<g id="edge7" class="edge">
<title>Node8&#45;&gt;Node7</title>
<path fill="none" stroke="midnightblue" d="M484.9,-598.65C482.21,-548.27 479.4,-495.6 477.56,-461.13"/>
<polygon fill="none" stroke="midnightblue" points="481.41,-598.9 485.44,-608.69 488.4,-598.52 481.41,-598.9"/>
</g>
<!-- Node9 -->
<g id="node9" class="node">
<title>Node9</title>
<g id="a_node9"><a xlink:href="../../d2/dcb/classHysteresis.html" target="_top" xlink:title=" ">
<polygon fill="white" stroke="black" points="446.5,-1038.5 446.5,-1128.5 574.5,-1128.5 574.5,-1038.5 446.5,-1038.5"/>
<text text-anchor="start" x="454.5" y="-1116.5" font-family="Helvetica,sans-Serif" font-size="10.00">Hysteresis&lt; ADC_BITS</text>
<text text-anchor="start" x="454.5" y="-1105.5" font-family="Helvetica,sans-Serif" font-size="10.00">+IncRes &#45; Precision,</text>
<text text-anchor="middle" x="510.5" y="-1094.5" font-family="Helvetica,sans-Serif" font-size="10.00"> analog_t, analog_t &gt;</text>
<polyline fill="none" stroke="black" points="446.5,-1087.5 574.5,-1087.5 "/>
<text text-anchor="middle" x="510.5" y="-1075.5" font-family="Helvetica,sans-Serif" font-size="10.00"> </text>
<polyline fill="none" stroke="black" points="446.5,-1068.5 574.5,-1068.5 "/>
<text text-anchor="start" x="454.5" y="-1056.5" font-family="Helvetica,sans-Serif" font-size="10.00">+ update()</text>
<text text-anchor="start" x="454.5" y="-1045.5" font-family="Helvetica,sans-Serif" font-size="10.00">+ getValue()</text>
</a>
</g>
</g>
<!-- Node9&#45;&gt;Node8 -->
<g id="edge8" class="edge">
<title>Node9&#45;&gt;Node8</title>
<path fill="none" stroke="#404040" d="M508.17,-1038.46C506.13,-1000.02 503.05,-941.99 500.16,-887.52"/>
<polygon fill="none" stroke="#404040" points="500.15,-887.21 495.83,-881.43 499.51,-875.23 503.82,-881.01 500.15,-887.21"/>
<text text-anchor="middle" x="530.5" y="-902" font-family="Helvetica,sans-Serif" font-size="10.00"> &#45;hysteresis</text>
</g>
<!-- Node10 -->
<g id="node10" class="node">
<title>Node10</title>
<g id="a_node10"><a xlink:title=" ">
<polygon fill="white" stroke="#bfbfbf" points="374,-1330.5 374,-1387.5 433,-1387.5 433,-1330.5 374,-1330.5"/>
<text text-anchor="middle" x="403.5" y="-1375.5" font-family="Helvetica,sans-Serif" font-size="10.00">analog_t</text>
<polyline fill="none" stroke="#bfbfbf" points="374,-1368.5 433,-1368.5 "/>
<text text-anchor="middle" x="403.5" y="-1356.5" font-family="Helvetica,sans-Serif" font-size="10.00"> </text>
<polyline fill="none" stroke="#bfbfbf" points="374,-1349.5 433,-1349.5 "/>
<text text-anchor="middle" x="403.5" y="-1337.5" font-family="Helvetica,sans-Serif" font-size="10.00"> </text>
</a>
</g>
</g>
<!-- Node10&#45;&gt;Node8 -->
<g id="edge11" class="edge">
<title>Node10&#45;&gt;Node8</title>
<path fill="none" stroke="#404040" d="M398.28,-1330.3C386.28,-1261.17 360.39,-1075.97 396.5,-928 399.87,-914.2 404.46,-900.28 409.82,-886.61"/>
<polygon fill="none" stroke="#404040" points="409.95,-886.29 408.52,-879.22 414.5,-875.18 415.93,-882.25 409.95,-886.29"/>
<text text-anchor="middle" x="417" y="-1081" font-family="Helvetica,sans-Serif" font-size="10.00"> &#45;mapFn</text>
</g>
<!-- Node10&#45;&gt;Node9 -->
<g id="edge9" class="edge">
<title>Node10&#45;&gt;Node9</title>
<path fill="none" stroke="#404040" d="M414.35,-1330.27C431.7,-1285.93 466.02,-1198.19 488.61,-1140.44"/>
<polygon fill="none" stroke="#404040" points="488.74,-1140.13 487.2,-1133.09 493.11,-1128.96 494.65,-1136 488.74,-1140.13"/>
<text text-anchor="middle" x="467.5" y="-1304" font-family="Helvetica,sans-Serif" font-size="10.00"> &#45;margin</text>
<text text-anchor="middle" x="467.5" y="-1293" font-family="Helvetica,sans-Serif" font-size="10.00">&#45;max_in</text>
<text text-anchor="middle" x="467.5" y="-1282" font-family="Helvetica,sans-Serif" font-size="10.00">&#45;max_out</text>
<text text-anchor="middle" x="467.5" y="-1271" font-family="Helvetica,sans-Serif" font-size="10.00">&#45;offset</text>
<text text-anchor="middle" x="467.5" y="-1260" font-family="Helvetica,sans-Serif" font-size="10.00">&#45;prevLevel</text>
</g>
<!-- Node11 -->
<g id="node11" class="node">
<title>Node11</title>
<g id="a_node11"><a xlink:href="../../d7/d40/classEMA.html" target="_top" xlink:title=" ">
<polygon fill="white" stroke="black" points="593,-1027.5 593,-1139.5 732,-1139.5 732,-1027.5 593,-1027.5"/>
<text text-anchor="start" x="601" y="-1127.5" font-family="Helvetica,sans-Serif" font-size="10.00">EMA&lt; FilterShiftFactor,</text>
<text text-anchor="middle" x="662.5" y="-1116.5" font-family="Helvetica,sans-Serif" font-size="10.00"> ANALOG_FILTER_TYPE &gt;</text>
<polyline fill="none" stroke="black" points="593,-1109.5 732,-1109.5 "/>
<text text-anchor="start" x="601" y="-1097.5" font-family="Helvetica,sans-Serif" font-size="10.00">&#45; filtered</text>
<text text-anchor="start" x="601" y="-1086.5" font-family="Helvetica,sans-Serif" font-size="10.00">&#45; fixedPointAHalf</text>
<polyline fill="none" stroke="black" points="593,-1079.5 732,-1079.5 "/>
<text text-anchor="start" x="601" y="-1067.5" font-family="Helvetica,sans-Serif" font-size="10.00">+ EMA()</text>
<text text-anchor="start" x="601" y="-1056.5" font-family="Helvetica,sans-Serif" font-size="10.00">+ reset()</text>
<text text-anchor="start" x="601" y="-1045.5" font-family="Helvetica,sans-Serif" font-size="10.00">+ filter()</text>
<text text-anchor="start" x="601" y="-1034.5" font-family="Helvetica,sans-Serif" font-size="10.00">+ operator()()</text>
</a>
</g>
</g>
<!-- Node11&#45;&gt;Node8 -->
<g id="edge10" class="edge">
<title>Node11&#45;&gt;Node8</title>
<path fill="none" stroke="#404040" d="M634.81,-1027.2C615.61,-988.86 589.12,-935.95 564.19,-886.17"/>
<polygon fill="none" stroke="#404040" points="564.1,-885.99 557.84,-882.42 558.73,-875.26 564.99,-878.84 564.1,-885.99"/>
<text text-anchor="middle" x="586.5" y="-902" font-family="Helvetica,sans-Serif" font-size="10.00"> &#45;filter</text>
</g>
<!-- Node12 -->
<g id="node12" class="node">
<title>Node12</title>
<g id="a_node12"><a xlink:href="../../da/d07/classContinuousCCSender.html" target="_top" xlink:title="Class that sends continuous MIDI control change messages with a resolution of 7 bits.">
<polygon fill="white" stroke="black" points="560,-387.5 560,-455.5 679,-455.5 679,-387.5 560,-387.5"/>
<text text-anchor="middle" x="619.5" y="-443.5" font-family="Helvetica,sans-Serif" font-size="10.00">ContinuousCCSender</text>
<polyline fill="none" stroke="black" points="560,-436.5 679,-436.5 "/>
<text text-anchor="middle" x="619.5" y="-424.5" font-family="Helvetica,sans-Serif" font-size="10.00"> </text>
<polyline fill="none" stroke="black" points="560,-417.5 679,-417.5 "/>
<text text-anchor="start" x="568" y="-405.5" font-family="Helvetica,sans-Serif" font-size="10.00">+ send()</text>
<text text-anchor="start" x="568" y="-394.5" font-family="Helvetica,sans-Serif" font-size="10.00">+ precision()</text>
</a>
</g>
</g>
<!-- Node12&#45;&gt;Node2 -->
<g id="edge12" class="edge">
<title>Node12&#45;&gt;Node2</title>
<path fill="none" stroke="#404040" d="M613.07,-387.43C605.93,-350.73 594.16,-290.25 584.65,-241.39"/>
<polygon fill="none" stroke="#404040" points="584.64,-241.34 579.57,-236.21 582.35,-229.56 587.42,-234.68 584.64,-241.34"/>
<text text-anchor="middle" x="609" y="-251" font-family="Helvetica,sans-Serif" font-size="10.00"> +sender</text>
</g>
<!-- Node13 -->
<g id="node13" class="node">
<title>Node13</title>
<g id="a_node13"><a xlink:href="../../d7/d0f/classMIDIAddress.html" target="_top" xlink:title="A type&#45;safe utility class for saving a MIDI address consisting of a 7&#45;bit address,...">
<polygon fill="white" stroke="black" points="697.5,-277.5 697.5,-565.5 839.5,-565.5 839.5,-277.5 697.5,-277.5"/>
<text text-anchor="middle" x="768.5" y="-553.5" font-family="Helvetica,sans-Serif" font-size="10.00">MIDIAddress</text>
<polyline fill="none" stroke="black" points="697.5,-546.5 839.5,-546.5 "/>
<text text-anchor="start" x="705.5" y="-534.5" font-family="Helvetica,sans-Serif" font-size="10.00">&#45; addresses</text>
<polyline fill="none" stroke="black" points="697.5,-527.5 839.5,-527.5 "/>
<text text-anchor="start" x="705.5" y="-515.5" font-family="Helvetica,sans-Serif" font-size="10.00">* MIDIAddress()</text>
<text text-anchor="start" x="705.5" y="-504.5" font-family="Helvetica,sans-Serif" font-size="10.00">* MIDIAddress()</text>
<text text-anchor="start" x="705.5" y="-493.5" font-family="Helvetica,sans-Serif" font-size="10.00">* MIDIAddress()</text>
<text text-anchor="start" x="705.5" y="-482.5" font-family="Helvetica,sans-Serif" font-size="10.00">* MIDIAddress()</text>
<text text-anchor="start" x="705.5" y="-471.5" font-family="Helvetica,sans-Serif" font-size="10.00">* MIDIAddress()</text>
<text text-anchor="start" x="705.5" y="-460.5" font-family="Helvetica,sans-Serif" font-size="10.00">* MIDIAddress()</text>
<text text-anchor="start" x="705.5" y="-449.5" font-family="Helvetica,sans-Serif" font-size="10.00">* invalid()</text>
<text text-anchor="start" x="705.5" y="-438.5" font-family="Helvetica,sans-Serif" font-size="10.00">* operator+=()</text>
<text text-anchor="start" x="705.5" y="-427.5" font-family="Helvetica,sans-Serif" font-size="10.00">* operator&#45;=()</text>
<text text-anchor="start" x="705.5" y="-416.5" font-family="Helvetica,sans-Serif" font-size="10.00">* operator+()</text>
<text text-anchor="start" x="705.5" y="-405.5" font-family="Helvetica,sans-Serif" font-size="10.00">* operator&#45;()</text>
<text text-anchor="start" x="705.5" y="-394.5" font-family="Helvetica,sans-Serif" font-size="10.00">* getAddress()</text>
<text text-anchor="start" x="705.5" y="-383.5" font-family="Helvetica,sans-Serif" font-size="10.00">* getChannel()</text>
<text text-anchor="start" x="705.5" y="-372.5" font-family="Helvetica,sans-Serif" font-size="10.00">* getRawChannel()</text>
<text text-anchor="start" x="705.5" y="-361.5" font-family="Helvetica,sans-Serif" font-size="10.00">* getCableNumber()</text>
<text text-anchor="start" x="705.5" y="-350.5" font-family="Helvetica,sans-Serif" font-size="10.00">* getRawCableNumber()</text>
<text text-anchor="start" x="705.5" y="-339.5" font-family="Helvetica,sans-Serif" font-size="10.00">* operator==()</text>
<text text-anchor="start" x="705.5" y="-328.5" font-family="Helvetica,sans-Serif" font-size="10.00">* operator!=()</text>
<text text-anchor="start" x="705.5" y="-317.5" font-family="Helvetica,sans-Serif" font-size="10.00">* isValid()</text>
<text text-anchor="start" x="705.5" y="-306.5" font-family="Helvetica,sans-Serif" font-size="10.00">* operator bool()</text>
<text text-anchor="start" x="705.5" y="-295.5" font-family="Helvetica,sans-Serif" font-size="10.00">* matchSingle()</text>
<text text-anchor="start" x="705.5" y="-284.5" font-family="Helvetica,sans-Serif" font-size="10.00">* matchAddressInRange()</text>
</a>
</g>
</g>
<!-- Node13&#45;&gt;Node2 -->
<g id="edge13" class="edge">
<title>Node13&#45;&gt;Node2</title>
<path fill="none" stroke="#404040" d="M697.27,-288.84C694.4,-284.79 691.47,-280.83 688.5,-277 678.3,-263.83 666.57,-250.77 654.54,-238.45"/>
<polygon fill="none" stroke="#404040" points="654.21,-238.12 647.14,-236.69 645.74,-229.62 652.81,-231.05 654.21,-238.12"/>
<text text-anchor="middle" x="693.5" y="-251" font-family="Helvetica,sans-Serif" font-size="10.00"> &#45;address</text>
</g>
</g>
</svg>
