<?xml version="1.0" encoding="UTF-8" standalone="no"?>
<!DOCTYPE svg PUBLIC "-//W3C//DTD SVG 1.1//EN"
 "http://www.w3.org/Graphics/SVG/1.1/DTD/svg11.dtd">
<!-- Generated by graphviz version 2.43.0 (0)
 -->
<!-- Title: AnalogMultiplex&lt; N &gt; Pages: 1 -->
<svg width="189pt" height="472pt"
 viewBox="0.00 0.00 189.00 472.00" xmlns="http://www.w3.org/2000/svg" xmlns:xlink="http://www.w3.org/1999/xlink">
<g id="graph0" class="graph" transform="scale(1 1) rotate(0) translate(4 468)">
<title>AnalogMultiplex&lt; N &gt;</title>
<!-- Node1 -->
<g id="Node000001" class="node">
<title>Node1</title>
<g id="a_Node000001"><a xlink:title="A class for reading multiplexed analog inputs.">
<polygon fill="#999999" stroke="transparent" points="161.5,-379 19.5,-379 19.5,0 161.5,0 161.5,-379"/>
<text text-anchor="start" x="35.5" y="-366.5" font-family="Helvetica,sans-Serif" font-size="10.00">AnalogMultiplex&lt; N &gt;</text>
<text text-anchor="start" x="23.5" y="-351.5" font-family="Helvetica,sans-Serif" font-size="10.00">#</text>
<text text-anchor="start" x="36.5" y="-351.5" font-family="Helvetica,sans-Serif" font-size="10.00">analogPin</text>
<text text-anchor="start" x="23.5" y="-336.5" font-family="Helvetica,sans-Serif" font-size="10.00">#</text>
<text text-anchor="start" x="36.5" y="-336.5" font-family="Helvetica,sans-Serif" font-size="10.00">addressPins</text>
<text text-anchor="start" x="23.5" y="-321.5" font-family="Helvetica,sans-Serif" font-size="10.00">#</text>
<text text-anchor="start" x="36.5" y="-321.5" font-family="Helvetica,sans-Serif" font-size="10.00">enablePin</text>
<text text-anchor="start" x="23.5" y="-306.5" font-family="Helvetica,sans-Serif" font-size="10.00">#</text>
<text text-anchor="start" x="36.5" y="-306.5" font-family="Helvetica,sans-Serif" font-size="10.00">discardFirstReading_</text>
<text text-anchor="start" x="23.5" y="-291.5" font-family="Helvetica,sans-Serif" font-size="10.00">#</text>
<text text-anchor="start" x="36.5" y="-291.5" font-family="Helvetica,sans-Serif" font-size="10.00">MUX_ENABLED</text>
<text text-anchor="start" x="23.5" y="-276.5" font-family="Helvetica,sans-Serif" font-size="10.00">#</text>
<text text-anchor="start" x="36.5" y="-276.5" font-family="Helvetica,sans-Serif" font-size="10.00">MUX_DISABLED</text>
<text text-anchor="start" x="23.5" y="-261.5" font-family="Helvetica,sans-Serif" font-size="10.00">+</text>
<text text-anchor="start" x="36.5" y="-261.5" font-family="Helvetica,sans-Serif" font-size="10.00">AnalogMultiplex()</text>
<text text-anchor="start" x="23.5" y="-246.5" font-family="Helvetica,sans-Serif" font-size="10.00">+</text>
<text text-anchor="start" x="36.5" y="-246.5" font-family="Helvetica,sans-Serif" font-size="10.00">pinMode()</text>
<text text-anchor="start" x="23.5" y="-231.5" font-family="Helvetica,sans-Serif" font-size="10.00">+</text>
<text text-anchor="start" x="36.5" y="-231.5" font-family="Helvetica,sans-Serif" font-size="10.00">pinModeBuffered()</text>
<text text-anchor="start" x="23.5" y="-216.5" font-family="Helvetica,sans-Serif" font-size="10.00">+</text>
<text text-anchor="start" x="36.5" y="-216.5" font-family="Helvetica,sans-Serif" font-size="10.00">digitalWrite()</text>
<text text-anchor="start" x="23.5" y="-201.5" font-family="Helvetica,sans-Serif" font-size="10.00">+</text>
<text text-anchor="start" x="36.5" y="-201.5" font-family="Helvetica,sans-Serif" font-size="10.00">digitalWriteBuffered()</text>
<text text-anchor="start" x="23.5" y="-186.5" font-family="Helvetica,sans-Serif" font-size="10.00">+</text>
<text text-anchor="start" x="36.5" y="-186.5" font-family="Helvetica,sans-Serif" font-size="10.00">digitalRead()</text>
<text text-anchor="start" x="23.5" y="-171.5" font-family="Helvetica,sans-Serif" font-size="10.00">+</text>
<text text-anchor="start" x="36.5" y="-171.5" font-family="Helvetica,sans-Serif" font-size="10.00">digitalReadBuffered()</text>
<text text-anchor="start" x="23.5" y="-156.5" font-family="Helvetica,sans-Serif" font-size="10.00">+</text>
<text text-anchor="start" x="36.5" y="-156.5" font-family="Helvetica,sans-Serif" font-size="10.00">analogRead()</text>
<text text-anchor="start" x="23.5" y="-141.5" font-family="Helvetica,sans-Serif" font-size="10.00">+</text>
<text text-anchor="start" x="36.5" y="-141.5" font-family="Helvetica,sans-Serif" font-size="10.00">analogReadBuffered()</text>
<text text-anchor="start" x="23.5" y="-126.5" font-family="Helvetica,sans-Serif" font-size="10.00">+</text>
<text text-anchor="start" x="36.5" y="-126.5" font-family="Helvetica,sans-Serif" font-size="10.00">analogWrite()</text>
<text text-anchor="start" x="23.5" y="-111.5" font-family="Helvetica,sans-Serif" font-size="10.00">+</text>
<text text-anchor="start" x="36.5" y="-111.5" font-family="Helvetica,sans-Serif" font-size="10.00">analogWriteBuffered()</text>
<text text-anchor="start" x="23.5" y="-96.5" font-family="Helvetica,sans-Serif" font-size="10.00">+</text>
<text text-anchor="start" x="36.5" y="-96.5" font-family="Helvetica,sans-Serif" font-size="10.00">begin()</text>
<text text-anchor="start" x="23.5" y="-81.5" font-family="Helvetica,sans-Serif" font-size="10.00">+</text>
<text text-anchor="start" x="36.5" y="-81.5" font-family="Helvetica,sans-Serif" font-size="10.00">updateBufferedOutputs()</text>
<text text-anchor="start" x="23.5" y="-66.5" font-family="Helvetica,sans-Serif" font-size="10.00">+</text>
<text text-anchor="start" x="36.5" y="-66.5" font-family="Helvetica,sans-Serif" font-size="10.00">updateBufferedInputs()</text>
<text text-anchor="start" x="23.5" y="-51.5" font-family="Helvetica,sans-Serif" font-size="10.00">+</text>
<text text-anchor="start" x="36.5" y="-51.5" font-family="Helvetica,sans-Serif" font-size="10.00">discardFirstReading()</text>
<text text-anchor="start" x="23.5" y="-36.5" font-family="Helvetica,sans-Serif" font-size="10.00">#</text>
<text text-anchor="start" x="36.5" y="-36.5" font-family="Helvetica,sans-Serif" font-size="10.00">setMuxAddress()</text>
<text text-anchor="start" x="23.5" y="-21.5" font-family="Helvetica,sans-Serif" font-size="10.00">#</text>
<text text-anchor="start" x="36.5" y="-21.5" font-family="Helvetica,sans-Serif" font-size="10.00">prepareReading()</text>
<text text-anchor="start" x="23.5" y="-6.5" font-family="Helvetica,sans-Serif" font-size="10.00">#</text>
<text text-anchor="start" x="36.5" y="-6.5" font-family="Helvetica,sans-Serif" font-size="10.00">afterReading()</text>
<polygon fill="#666666" stroke="#666666" points="19.5,-361.5 19.5,-361.5 161.5,-361.5 161.5,-361.5 19.5,-361.5"/>
<polygon fill="#666666" stroke="#666666" points="19.5,-271.5 19.5,-271.5 34.5,-271.5 34.5,-271.5 19.5,-271.5"/>
<polygon fill="#666666" stroke="#666666" points="34.5,-271.5 34.5,-271.5 161.5,-271.5 161.5,-271.5 34.5,-271.5"/>
<polygon fill="none" stroke="#666666" points="19.5,0 19.5,-379 161.5,-379 161.5,0 19.5,0"/>
</a>
</g>
</g>
<!-- Node2 -->
<g id="Node000002" class="node">
<title>Node2</title>
<g id="a_Node000002"><a xlink:title=" ">
<polygon fill="white" stroke="transparent" points="181,-464 0,-464 0,-415 181,-415 181,-464"/>
<text text-anchor="start" x="5.5" y="-451.5" font-family="Helvetica,sans-Serif" font-size="10.00">StaticSizeExtendedIOElement&lt; 1&lt;</text>
<text text-anchor="start" x="89" y="-436.5" font-family="Helvetica,sans-Serif" font-size="10.00"> </text>
<text text-anchor="start" x="89" y="-421.5" font-family="Helvetica,sans-Serif" font-size="10.00"> </text>
<polygon fill="#666666" stroke="#666666" points="0.5,-446.5 0.5,-446.5 181.5,-446.5 181.5,-446.5 0.5,-446.5"/>
<polygon fill="#666666" stroke="#666666" points="0.5,-431.5 0.5,-431.5 181.5,-431.5 181.5,-431.5 0.5,-431.5"/>
<polygon fill="none" stroke="#666666" points="0,-415 0,-464 181,-464 181,-415 0,-415"/>
</a>
</g>
</g>
<!-- Node2&#45;&gt;Node1 -->
<g id="edge1_Node000001_Node000002" class="edge">
<title>Node2&#45;&gt;Node1</title>
<g id="a_edge1_Node000001_Node000002"><a xlink:title=" ">
<path fill="none" stroke="#63b8ff" d="M90.5,-404.61C90.5,-396.98 90.5,-388.34 90.5,-379.04"/>
<polygon fill="none" stroke="#63b8ff" points="87,-404.72 90.5,-414.72 94,-404.72 87,-404.72"/>
</a>
</g>
</g>
</g>
</svg>
