<?xml version="1.0" encoding="UTF-8" standalone="no"?>
<!DOCTYPE svg PUBLIC "-//W3C//DTD SVG 1.1//EN"
 "http://www.w3.org/Graphics/SVG/1.1/DTD/svg11.dtd">
<!-- Generated by graphviz version 2.38.0 (20140413.2041)
 -->
<!-- Title: AudioVU.hpp Pages: 1 -->
<svg width="1199pt" height="845pt"
 viewBox="0.00 0.00 1198.50 845.00" xmlns="http://www.w3.org/2000/svg" xmlns:xlink="http://www.w3.org/1999/xlink">
<g id="graph0" class="graph" transform="scale(1 1) rotate(0) translate(4 841)">
<title>AudioVU.hpp</title>
<polygon fill="white" stroke="none" points="-4,4 -4,-841 1194.5,-841 1194.5,4 -4,4"/>
<!-- Node1 -->
<g id="node1" class="node"><title>Node1</title>
<g id="a_node1"><a xlink:title=" ">
<polygon fill="#bfbfbf" stroke="black" points="313,-817.5 313,-836.5 387,-836.5 387,-817.5 313,-817.5"/>
<text text-anchor="middle" x="350" y="-824.5" font-family="Helvetica,sans-Serif" font-size="10.00">AudioVU.hpp</text>
</a>
</g>
</g>
<!-- Node2 -->
<g id="node2" class="node"><title>Node2</title>
<g id="a_node2"><a xlink:title=" ">
<polygon fill="white" stroke="#bfbfbf" points="215,-761.5 215,-780.5 265,-780.5 265,-761.5 215,-761.5"/>
<text text-anchor="middle" x="240" y="-768.5" font-family="Helvetica,sans-Serif" font-size="10.00">Audio.h</text>
</a>
</g>
</g>
<!-- Node1&#45;&gt;Node2 -->
<g id="edge1" class="edge"><title>Node1&#45;&gt;Node2</title>
<path fill="none" stroke="midnightblue" d="M332.327,-817.324C314.606,-808.625 287.097,-795.12 266.712,-785.113"/>
<polygon fill="midnightblue" stroke="midnightblue" points="268.149,-781.919 257.63,-780.655 265.064,-788.203 268.149,-781.919"/>
</g>
<!-- Node3 -->
<g id="node3" class="node"><title>Node3</title>
<g id="a_node3"><a xlink:href="../../db/dda/VU_8hpp.html" target="_top" xlink:title=" ">
<polygon fill="white" stroke="black" points="283.5,-761.5 283.5,-780.5 416.5,-780.5 416.5,-761.5 283.5,-761.5"/>
<text text-anchor="middle" x="350" y="-768.5" font-family="Helvetica,sans-Serif" font-size="10.00">MIDI_Inputs/MCU/VU.hpp</text>
</a>
</g>
</g>
<!-- Node1&#45;&gt;Node3 -->
<g id="edge2" class="edge"><title>Node1&#45;&gt;Node3</title>
<path fill="none" stroke="midnightblue" d="M350,-817.083C350,-810.006 350,-799.861 350,-790.986"/>
<polygon fill="midnightblue" stroke="midnightblue" points="353.5,-790.751 350,-780.751 346.5,-790.751 353.5,-790.751"/>
</g>
<!-- Node42 -->
<g id="node42" class="node"><title>Node42</title>
<g id="a_node42"><a xlink:href="../../d9/d4f/MovingCoilBallistics_8hpp.html" target="_top" xlink:title=" ">
<polygon fill="white" stroke="black" points="808,-700 808,-719 932,-719 932,-700 808,-700"/>
<text text-anchor="middle" x="870" y="-707" font-family="Helvetica,sans-Serif" font-size="10.00">MovingCoilBallistics.hpp</text>
</a>
</g>
</g>
<!-- Node1&#45;&gt;Node42 -->
<g id="edge76" class="edge"><title>Node1&#45;&gt;Node42</title>
<path fill="none" stroke="midnightblue" d="M387.397,-817.694C479.798,-797.17 718.827,-744.078 821.723,-721.223"/>
<polygon fill="midnightblue" stroke="midnightblue" points="822.536,-724.628 831.539,-719.043 821.018,-717.794 822.536,-724.628"/>
</g>
<!-- Node4 -->
<g id="node4" class="node"><title>Node4</title>
<g id="a_node4"><a xlink:href="../../de/d6e/BankableMIDIInput_8hpp.html" target="_top" xlink:title=" ">
<polygon fill="white" stroke="black" points="248,-633 248,-652 398,-652 398,-633 248,-633"/>
<text text-anchor="middle" x="323" y="-640" font-family="Helvetica,sans-Serif" font-size="10.00">Banks/BankableMIDIInput.hpp</text>
</a>
</g>
</g>
<!-- Node3&#45;&gt;Node4 -->
<g id="edge3" class="edge"><title>Node3&#45;&gt;Node4</title>
<path fill="none" stroke="midnightblue" d="M348.144,-761.305C343.809,-740.994 332.936,-690.053 327.008,-662.277"/>
<polygon fill="midnightblue" stroke="midnightblue" points="330.379,-661.305 324.869,-652.256 323.533,-662.766 330.379,-661.305"/>
</g>
<!-- Node21 -->
<g id="node21" class="node"><title>Node21</title>
<g id="a_node21"><a xlink:href="../../d7/d79/MinMaxFix_8hpp.html" target="_top" xlink:title=" ">
<polygon fill="white" stroke="black" points="38.5,-224.5 38.5,-243.5 163.5,-243.5 163.5,-224.5 38.5,-224.5"/>
<text text-anchor="middle" x="101" y="-231.5" font-family="Helvetica,sans-Serif" font-size="10.00">AH/Math/MinMaxFix.hpp</text>
</a>
</g>
</g>
<!-- Node3&#45;&gt;Node21 -->
<g id="edge63" class="edge"><title>Node3&#45;&gt;Node21</title>
<path fill="none" stroke="midnightblue" d="M304.633,-761.447C218.1,-743.832 38,-700.342 38,-643.5 38,-643.5 38,-643.5 38,-345 38,-307.475 65.9479,-271.139 84.6145,-251.055"/>
<polygon fill="midnightblue" stroke="midnightblue" points="87.272,-253.341 91.7041,-243.718 82.2382,-248.477 87.272,-253.341"/>
</g>
<!-- Node34 -->
<g id="node34" class="node"><title>Node34</title>
<g id="a_node34"><a xlink:href="../../dd/ddf/ExtendedInputOutput_8hpp.html" target="_top" xlink:title=" ">
<polygon fill="white" stroke="black" points="70,-627.5 70,-657.5 230,-657.5 230,-627.5 70,-627.5"/>
<text text-anchor="start" x="78" y="-645.5" font-family="Helvetica,sans-Serif" font-size="10.00">AH/Hardware/ExtendedInput</text>
<text text-anchor="middle" x="150" y="-634.5" font-family="Helvetica,sans-Serif" font-size="10.00">Output/ExtendedInputOutput.hpp</text>
</a>
</g>
</g>
<!-- Node3&#45;&gt;Node34 -->
<g id="edge58" class="edge"><title>Node3&#45;&gt;Node34</title>
<path fill="none" stroke="midnightblue" d="M336.253,-761.305C304.466,-741.2 225.227,-691.081 181.031,-663.127"/>
<polygon fill="midnightblue" stroke="midnightblue" points="182.745,-660.07 172.422,-657.682 179.003,-665.986 182.745,-660.07"/>
</g>
<!-- Node36 -->
<g id="node36" class="node"><title>Node36</title>
<g id="a_node36"><a xlink:href="../../d8/d4f/MIDIInputElementChannelPressure_8hpp.html" target="_top" xlink:title=" ">
<polygon fill="white" stroke="black" points="426.5,-694.5 426.5,-724.5 579.5,-724.5 579.5,-694.5 426.5,-694.5"/>
<text text-anchor="start" x="434.5" y="-712.5" font-family="Helvetica,sans-Serif" font-size="10.00">MIDI_Inputs/MIDIInputElement</text>
<text text-anchor="middle" x="503" y="-701.5" font-family="Helvetica,sans-Serif" font-size="10.00">ChannelPressure.hpp</text>
</a>
</g>
</g>
<!-- Node3&#45;&gt;Node36 -->
<g id="edge64" class="edge"><title>Node3&#45;&gt;Node36</title>
<path fill="none" stroke="midnightblue" d="M371.921,-761.475C394.095,-752.852 429.035,-739.264 457.267,-728.285"/>
<polygon fill="midnightblue" stroke="midnightblue" points="458.889,-731.41 466.941,-724.523 456.352,-724.885 458.889,-731.41"/>
</g>
<!-- Node41 -->
<g id="node41" class="node"><title>Node41</title>
<g id="a_node41"><a xlink:title=" ">
<polygon fill="white" stroke="#bfbfbf" points="351.5,-700 351.5,-719 400.5,-719 400.5,-700 351.5,-700"/>
<text text-anchor="middle" x="376" y="-707" font-family="Helvetica,sans-Serif" font-size="10.00">string.h</text>
</a>
</g>
</g>
<!-- Node3&#45;&gt;Node41 -->
<g id="edge75" class="edge"><title>Node3&#45;&gt;Node41</title>
<path fill="none" stroke="midnightblue" d="M353.725,-761.475C357.471,-752.904 363.36,-739.427 368.142,-728.483"/>
<polygon fill="midnightblue" stroke="midnightblue" points="371.485,-729.574 372.282,-719.009 365.07,-726.771 371.485,-729.574"/>
</g>
<!-- Node5 -->
<g id="node5" class="node"><title>Node5</title>
<g id="a_node5"><a xlink:href="../../d4/d57/Bank_8hpp.html" target="_top" xlink:title=" ">
<polygon fill="white" stroke="black" points="199,-571.5 199,-590.5 257,-590.5 257,-571.5 199,-571.5"/>
<text text-anchor="middle" x="228" y="-578.5" font-family="Helvetica,sans-Serif" font-size="10.00">Bank.hpp</text>
</a>
</g>
</g>
<!-- Node4&#45;&gt;Node5 -->
<g id="edge4" class="edge"><title>Node4&#45;&gt;Node5</title>
<path fill="none" stroke="midnightblue" d="M304.488,-632.975C287.169,-623.431 261.898,-607.807 245.067,-596.368"/>
<polygon fill="midnightblue" stroke="midnightblue" points="246.89,-593.372 236.689,-590.509 242.878,-599.108 246.89,-593.372"/>
</g>
<!-- Node6 -->
<g id="node6" class="node"><title>Node6</title>
<g id="a_node6"><a xlink:href="../../df/dee/Debug_8hpp.html" target="_top" xlink:title=" ">
<polygon fill="white" stroke="black" points="201.5,-224.5 201.5,-243.5 314.5,-243.5 314.5,-224.5 201.5,-224.5"/>
<text text-anchor="middle" x="258" y="-231.5" font-family="Helvetica,sans-Serif" font-size="10.00">AH/Debug/Debug.hpp</text>
</a>
</g>
</g>
<!-- Node4&#45;&gt;Node6 -->
<g id="edge56" class="edge"><title>Node4&#45;&gt;Node6</title>
<path fill="none" stroke="midnightblue" d="M315.814,-632.555C287.081,-596.43 182,-460.746 182,-408.5 182,-408.5 182,-408.5 182,-345 182,-305.276 215.964,-269.504 238.482,-250.154"/>
<polygon fill="midnightblue" stroke="midnightblue" points="240.976,-252.634 246.457,-243.567 236.518,-247.236 240.976,-252.634"/>
</g>
<!-- Node20 -->
<g id="node20" class="node"><title>Node20</title>
<g id="a_node20"><a xlink:href="../../de/dd1/LinkedList_8hpp.html" target="_top" xlink:title=" ">
<polygon fill="white" stroke="black" points="298.5,-515.5 298.5,-534.5 445.5,-534.5 445.5,-515.5 298.5,-515.5"/>
<text text-anchor="middle" x="372" y="-522.5" font-family="Helvetica,sans-Serif" font-size="10.00">AH/Containers/LinkedList.hpp</text>
</a>
</g>
</g>
<!-- Node4&#45;&gt;Node20 -->
<g id="edge57" class="edge"><title>Node4&#45;&gt;Node20</title>
<path fill="none" stroke="midnightblue" d="M324.569,-632.969C327.245,-619.42 333.36,-592.332 343,-571 347.449,-561.154 353.838,-550.971 359.487,-542.787"/>
<polygon fill="midnightblue" stroke="midnightblue" points="362.43,-544.689 365.408,-534.521 356.739,-540.613 362.43,-544.689"/>
</g>
<!-- Node32 -->
<g id="node32" class="node"><title>Node32</title>
<g id="a_node32"><a xlink:href="../../dd/d1f/BankConfig_8hpp.html" target="_top" xlink:title=" ">
<polygon fill="white" stroke="black" points="609,-515.5 609,-534.5 695,-534.5 695,-515.5 609,-515.5"/>
<text text-anchor="middle" x="652" y="-522.5" font-family="Helvetica,sans-Serif" font-size="10.00">BankConfig.hpp</text>
</a>
</g>
</g>
<!-- Node4&#45;&gt;Node32 -->
<g id="edge52" class="edge"><title>Node4&#45;&gt;Node32</title>
<path fill="none" stroke="midnightblue" d="M352.273,-632.944C384.682,-623.327 438.376,-606.962 484,-591 532.554,-574.012 588.07,-552.021 621.557,-538.468"/>
<polygon fill="midnightblue" stroke="midnightblue" points="623.261,-541.553 631.21,-534.548 620.628,-535.068 623.261,-541.553"/>
</g>
<!-- Node33 -->
<g id="node33" class="node"><title>Node33</title>
<g id="a_node33"><a xlink:href="../../d8/d38/MIDICNChannelAddress_8hpp.html" target="_top" xlink:title=" ">
<polygon fill="white" stroke="black" points="630.5,-571.5 630.5,-590.5 793.5,-590.5 793.5,-571.5 630.5,-571.5"/>
<text text-anchor="middle" x="712" y="-578.5" font-family="Helvetica,sans-Serif" font-size="10.00">Def/MIDICNChannelAddress.hpp</text>
</a>
</g>
</g>
<!-- Node4&#45;&gt;Node33 -->
<g id="edge54" class="edge"><title>Node4&#45;&gt;Node33</title>
<path fill="none" stroke="midnightblue" d="M378.734,-632.975C449.361,-622.172 570.924,-603.578 646.082,-592.083"/>
<polygon fill="midnightblue" stroke="midnightblue" points="647.013,-595.481 656.369,-590.509 645.955,-588.561 647.013,-595.481"/>
</g>
<!-- Node5&#45;&gt;Node4 -->
<g id="edge51" class="edge"><title>Node5&#45;&gt;Node4</title>
<path fill="none" stroke="midnightblue" d="M246.483,-590.509C263.794,-600.046 289.064,-615.669 305.905,-627.113"/>
<polygon fill="midnightblue" stroke="midnightblue" points="304.088,-630.113 314.289,-632.975 308.1,-624.376 304.088,-630.113"/>
</g>
<!-- Node5&#45;&gt;Node6 -->
<g id="edge5" class="edge"><title>Node5&#45;&gt;Node6</title>
<path fill="none" stroke="midnightblue" d="M214.875,-571.463C191.25,-554.943 144,-516.135 144,-470 144,-470 144,-470 144,-345 144,-314.205 147.454,-302.939 168,-280 181.473,-264.958 201.128,-254.325 218.636,-247.187"/>
<polygon fill="midnightblue" stroke="midnightblue" points="219.997,-250.414 228.089,-243.574 217.499,-243.875 219.997,-250.414"/>
</g>
<!-- Node19 -->
<g id="node19" class="node"><title>Node19</title>
<g id="a_node19"><a xlink:href="../../d1/d93/Error_8hpp.html" target="_top" xlink:title=" ">
<polygon fill="white" stroke="black" points="292,-280.5 292,-299.5 390,-299.5 390,-280.5 292,-280.5"/>
<text text-anchor="middle" x="341" y="-287.5" font-family="Helvetica,sans-Serif" font-size="10.00">AH/Error/Error.hpp</text>
</a>
</g>
</g>
<!-- Node5&#45;&gt;Node19 -->
<g id="edge22" class="edge"><title>Node5&#45;&gt;Node19</title>
<path fill="none" stroke="midnightblue" d="M231.382,-571.351C246.977,-531.465 312.12,-364.861 333.884,-309.198"/>
<polygon fill="midnightblue" stroke="midnightblue" points="337.249,-310.203 337.631,-299.615 330.73,-307.654 337.249,-310.203"/>
</g>
<!-- Node5&#45;&gt;Node20 -->
<g id="edge24" class="edge"><title>Node5&#45;&gt;Node20</title>
<path fill="none" stroke="midnightblue" d="M250.817,-571.444C274.832,-562.438 312.829,-548.189 339.869,-538.049"/>
<polygon fill="midnightblue" stroke="midnightblue" points="341.155,-541.305 349.29,-534.516 338.697,-534.751 341.155,-541.305"/>
</g>
<!-- Node24 -->
<g id="node24" class="node"><title>Node24</title>
<g id="a_node24"><a xlink:href="../../d9/d46/Selectable_8hpp.html" target="_top" xlink:title=" ">
<polygon fill="white" stroke="black" points="463.5,-515.5 463.5,-534.5 588.5,-534.5 588.5,-515.5 463.5,-515.5"/>
<text text-anchor="middle" x="526" y="-522.5" font-family="Helvetica,sans-Serif" font-size="10.00">Selectors/Selectable.hpp</text>
</a>
</g>
</g>
<!-- Node5&#45;&gt;Node24 -->
<g id="edge31" class="edge"><title>Node5&#45;&gt;Node24</title>
<path fill="none" stroke="midnightblue" d="M257.116,-574.724C306.019,-565.862 405.499,-547.836 468.787,-536.367"/>
<polygon fill="midnightblue" stroke="midnightblue" points="469.789,-539.743 479.005,-534.516 468.541,-532.855 469.789,-539.743"/>
</g>
<!-- Node7 -->
<g id="node7" class="node"><title>Node7</title>
<g id="a_node7"><a xlink:href="../../dd/d80/PrintStream_8hpp.html" target="_top" xlink:title=" ">
<polygon fill="white" stroke="black" points="65.5,-112.5 65.5,-131.5 224.5,-131.5 224.5,-112.5 65.5,-112.5"/>
<text text-anchor="middle" x="145" y="-119.5" font-family="Helvetica,sans-Serif" font-size="10.00">AH/PrintStream/PrintStream.hpp</text>
</a>
</g>
</g>
<!-- Node6&#45;&gt;Node7 -->
<g id="edge6" class="edge"><title>Node6&#45;&gt;Node7</title>
<path fill="none" stroke="midnightblue" d="M249.133,-224.368C230.155,-205.894 185.364,-162.293 161.173,-138.744"/>
<polygon fill="midnightblue" stroke="midnightblue" points="163.433,-136.059 153.826,-131.591 158.55,-141.075 163.433,-136.059"/>
</g>
<!-- Node8 -->
<g id="node8" class="node"><title>Node8</title>
<g id="a_node8"><a xlink:title=" ">
<polygon fill="white" stroke="#bfbfbf" points="9,-0.5 9,-19.5 67,-19.5 67,-0.5 9,-0.5"/>
<text text-anchor="middle" x="38" y="-7.5" font-family="Helvetica,sans-Serif" font-size="10.00">Arduino.h</text>
</a>
</g>
</g>
<!-- Node6&#45;&gt;Node8 -->
<g id="edge20" class="edge"><title>Node6&#45;&gt;Node8</title>
<path fill="none" stroke="midnightblue" d="M216.929,-224.413C170.026,-212.318 94.7847,-185.484 56,-132 33.9435,-101.584 33.7752,-55.4234 35.7766,-29.8033"/>
<polygon fill="midnightblue" stroke="midnightblue" points="39.2837,-29.9019 36.7781,-19.6076 32.3172,-29.2176 39.2837,-29.9019"/>
</g>
<!-- Node9 -->
<g id="node9" class="node"><title>Node9</title>
<g id="a_node9"><a xlink:href="../../de/dd1/AH_2Settings_2SettingsWrapper_8hpp.html" target="_top" xlink:title=" ">
<polygon fill="white" stroke="black" points="320,-168.5 320,-187.5 484,-187.5 484,-168.5 320,-168.5"/>
<text text-anchor="middle" x="402" y="-175.5" font-family="Helvetica,sans-Serif" font-size="10.00">AH/Settings/SettingsWrapper.hpp</text>
</a>
</g>
</g>
<!-- Node6&#45;&gt;Node9 -->
<g id="edge8" class="edge"><title>Node6&#45;&gt;Node9</title>
<path fill="none" stroke="midnightblue" d="M275.728,-224.444C297.864,-215.399 335.883,-201.064 364.515,-190.916"/>
<polygon fill="midnightblue" stroke="midnightblue" points="365.931,-194.128 374.21,-187.516 363.615,-187.523 365.931,-194.128"/>
</g>
<!-- Node18 -->
<g id="node18" class="node"><title>Node18</title>
<g id="a_node18"><a xlink:href="../../d7/d52/DebugVal_8hpp.html" target="_top" xlink:title=" ">
<polygon fill="white" stroke="black" points="224,-168.5 224,-187.5 302,-187.5 302,-168.5 224,-168.5"/>
<text text-anchor="middle" x="263" y="-175.5" font-family="Helvetica,sans-Serif" font-size="10.00">DebugVal.hpp</text>
</a>
</g>
</g>
<!-- Node6&#45;&gt;Node18 -->
<g id="edge21" class="edge"><title>Node6&#45;&gt;Node18</title>
<path fill="none" stroke="midnightblue" d="M258.826,-224.083C259.481,-217.006 260.42,-206.861 261.242,-197.986"/>
<polygon fill="midnightblue" stroke="midnightblue" points="264.753,-198.031 262.19,-187.751 257.783,-197.386 264.753,-198.031"/>
</g>
<!-- Node7&#45;&gt;Node8 -->
<g id="edge7" class="edge"><title>Node7&#45;&gt;Node8</title>
<path fill="none" stroke="midnightblue" d="M136.604,-112.368C118.711,-93.9744 76.5893,-50.6712 53.6141,-27.0519"/>
<polygon fill="midnightblue" stroke="midnightblue" points="55.8386,-24.3192 46.3571,-19.5914 50.8209,-29.2 55.8386,-24.3192"/>
</g>
<!-- Node9&#45;&gt;Node6 -->
<g id="edge19" class="edge"><title>Node9&#45;&gt;Node6</title>
<path fill="none" stroke="midnightblue" d="M384.369,-187.516C362.281,-196.546 324.272,-210.879 295.612,-221.039"/>
<polygon fill="midnightblue" stroke="midnightblue" points="294.184,-217.831 285.906,-224.444 296.501,-224.436 294.184,-217.831"/>
</g>
<!-- Node10 -->
<g id="node10" class="node"><title>Node10</title>
<g id="a_node10"><a xlink:href="../../d6/db0/AH_2Settings_2NamespaceSettings_8hpp.html" target="_top" xlink:title=" ">
<polygon fill="white" stroke="black" points="390,-0.5 390,-19.5 514,-19.5 514,-0.5 390,-0.5"/>
<text text-anchor="middle" x="452" y="-7.5" font-family="Helvetica,sans-Serif" font-size="10.00">NamespaceSettings.hpp</text>
</a>
</g>
</g>
<!-- Node9&#45;&gt;Node10 -->
<g id="edge9" class="edge"><title>Node9&#45;&gt;Node10</title>
<path fill="none" stroke="midnightblue" d="M362.745,-168.475C343.004,-161.99 320.816,-150.843 309,-132 291.056,-103.383 289.019,-83.2343 309,-56 325.45,-33.5779 353.08,-22.0336 379.691,-16.1928"/>
<polygon fill="midnightblue" stroke="midnightblue" points="380.668,-19.5685 389.815,-14.2228 379.331,-12.6974 380.668,-19.5685"/>
</g>
<!-- Node11 -->
<g id="node11" class="node"><title>Node11</title>
<g id="a_node11"><a xlink:href="../../d5/d4f/AH_2Settings_2Settings_8hpp.html" target="_top" xlink:title="All user settings and debugging options can be changed here.">
<polygon fill="white" stroke="black" points="504.5,-112.5 504.5,-131.5 575.5,-131.5 575.5,-112.5 504.5,-112.5"/>
<text text-anchor="middle" x="540" y="-119.5" font-family="Helvetica,sans-Serif" font-size="10.00">Settings.hpp</text>
</a>
</g>
</g>
<!-- Node9&#45;&gt;Node11 -->
<g id="edge10" class="edge"><title>Node9&#45;&gt;Node11</title>
<path fill="none" stroke="midnightblue" d="M423.867,-168.444C446.779,-159.478 482.975,-145.314 508.866,-135.183"/>
<polygon fill="midnightblue" stroke="midnightblue" points="510.199,-138.42 518.236,-131.516 507.648,-131.901 510.199,-138.42"/>
</g>
<!-- Node17 -->
<g id="node17" class="node"><title>Node17</title>
<g id="a_node17"><a xlink:href="../../d9/d98/TeensyUSBTypes_8hpp.html" target="_top" xlink:title=" ">
<polygon fill="white" stroke="black" points="318,-112.5 318,-131.5 486,-131.5 486,-112.5 318,-112.5"/>
<text text-anchor="middle" x="402" y="-119.5" font-family="Helvetica,sans-Serif" font-size="10.00">AH/Teensy/TeensyUSBTypes.hpp</text>
</a>
</g>
</g>
<!-- Node9&#45;&gt;Node17 -->
<g id="edge18" class="edge"><title>Node9&#45;&gt;Node17</title>
<path fill="none" stroke="midnightblue" d="M402,-168.083C402,-161.006 402,-150.861 402,-141.986"/>
<polygon fill="midnightblue" stroke="midnightblue" points="405.5,-141.751 402,-131.751 398.5,-141.751 405.5,-141.751"/>
</g>
<!-- Node12 -->
<g id="node12" class="node"><title>Node12</title>
<g id="a_node12"><a xlink:href="../../dc/d50/Frequency_8hpp.html" target="_top" xlink:title=" ">
<polygon fill="white" stroke="black" points="550,-56.5 550,-75.5 678,-75.5 678,-56.5 550,-56.5"/>
<text text-anchor="middle" x="614" y="-63.5" font-family="Helvetica,sans-Serif" font-size="10.00">AH/Types/Frequency.hpp</text>
</a>
</g>
</g>
<!-- Node11&#45;&gt;Node12 -->
<g id="edge11" class="edge"><title>Node11&#45;&gt;Node12</title>
<path fill="none" stroke="midnightblue" d="M551.889,-112.324C563.15,-104.107 580.287,-91.6017 593.709,-81.8069"/>
<polygon fill="midnightblue" stroke="midnightblue" points="595.88,-84.5559 601.894,-75.8339 591.753,-78.9014 595.88,-84.5559"/>
</g>
<!-- Node13 -->
<g id="node13" class="node"><title>Node13</title>
<g id="a_node13"><a xlink:href="../../d7/d7c/ADCConfig_8hpp.html" target="_top" xlink:title="This file contains the platform&#45;specific ADC resolutions. By default, the library automatically selec...">
<polygon fill="white" stroke="black" points="318,-56.5 318,-75.5 466,-75.5 466,-56.5 318,-56.5"/>
<text text-anchor="middle" x="392" y="-63.5" font-family="Helvetica,sans-Serif" font-size="10.00">AH/Hardware/ADCConfig.hpp</text>
</a>
</g>
</g>
<!-- Node11&#45;&gt;Node13 -->
<g id="edge13" class="edge"><title>Node11&#45;&gt;Node13</title>
<path fill="none" stroke="midnightblue" d="M516.549,-112.444C491.867,-103.438 452.815,-89.1891 425.023,-79.049"/>
<polygon fill="midnightblue" stroke="midnightblue" points="425.935,-75.6561 415.341,-75.5164 423.536,-82.2321 425.935,-75.6561"/>
</g>
<!-- Node14 -->
<g id="node14" class="node"><title>Node14</title>
<g id="a_node14"><a xlink:title=" ">
<polygon fill="white" stroke="#bfbfbf" points="484,-56.5 484,-75.5 532,-75.5 532,-56.5 484,-56.5"/>
<text text-anchor="middle" x="508" y="-63.5" font-family="Helvetica,sans-Serif" font-size="10.00">limits.h</text>
</a>
</g>
</g>
<!-- Node11&#45;&gt;Node14 -->
<g id="edge15" class="edge"><title>Node11&#45;&gt;Node14</title>
<path fill="none" stroke="midnightblue" d="M534.716,-112.083C530.289,-104.613 523.837,-93.7244 518.382,-84.5199"/>
<polygon fill="midnightblue" stroke="midnightblue" points="521.295,-82.5697 513.186,-75.7511 515.273,-86.1383 521.295,-82.5697"/>
</g>
<!-- Node15 -->
<g id="node15" class="node"><title>Node15</title>
<g id="a_node15"><a xlink:title=" ">
<polygon fill="white" stroke="#bfbfbf" points="696,-56.5 696,-75.5 748,-75.5 748,-56.5 696,-56.5"/>
<text text-anchor="middle" x="722" y="-63.5" font-family="Helvetica,sans-Serif" font-size="10.00">stddef.h</text>
</a>
</g>
</g>
<!-- Node11&#45;&gt;Node15 -->
<g id="edge16" class="edge"><title>Node11&#45;&gt;Node15</title>
<path fill="none" stroke="midnightblue" d="M568.838,-112.444C600.677,-102.997 651.961,-87.7807 686.309,-77.5897"/>
<polygon fill="midnightblue" stroke="midnightblue" points="687.359,-80.929 695.95,-74.729 685.368,-74.2182 687.359,-80.929"/>
</g>
<!-- Node16 -->
<g id="node16" class="node"><title>Node16</title>
<g id="a_node16"><a xlink:title=" ">
<polygon fill="white" stroke="#bfbfbf" points="824.5,-56.5 824.5,-75.5 873.5,-75.5 873.5,-56.5 824.5,-56.5"/>
<text text-anchor="middle" x="849" y="-63.5" font-family="Helvetica,sans-Serif" font-size="10.00">stdint.h</text>
</a>
</g>
</g>
<!-- Node11&#45;&gt;Node16 -->
<g id="edge17" class="edge"><title>Node11&#45;&gt;Node16</title>
<path fill="none" stroke="midnightblue" d="M575.748,-114.753C635.545,-104.303 755.102,-83.4094 814.236,-73.0753"/>
<polygon fill="midnightblue" stroke="midnightblue" points="814.959,-76.502 824.208,-71.3326 813.754,-69.6065 814.959,-76.502"/>
</g>
<!-- Node12&#45;&gt;Node10 -->
<g id="edge12" class="edge"><title>Node12&#45;&gt;Node10</title>
<path fill="none" stroke="midnightblue" d="M588.331,-56.4435C561.077,-47.3591 517.816,-32.9388 487.349,-22.7831"/>
<polygon fill="midnightblue" stroke="midnightblue" points="488.143,-19.3584 477.549,-19.5164 485.929,-25.9992 488.143,-19.3584"/>
</g>
<!-- Node13&#45;&gt;Node8 -->
<g id="edge14" class="edge"><title>Node13&#45;&gt;Node8</title>
<path fill="none" stroke="midnightblue" d="M335.908,-56.4435C263.699,-45.4287 140.064,-26.5692 77.1944,-16.9788"/>
<polygon fill="midnightblue" stroke="midnightblue" points="77.6922,-13.5143 67.2787,-15.4662 76.6366,-20.4343 77.6922,-13.5143"/>
</g>
<!-- Node19&#45;&gt;Node6 -->
<g id="edge23" class="edge"><title>Node19&#45;&gt;Node6</title>
<path fill="none" stroke="midnightblue" d="M327.665,-280.324C314.838,-271.979 295.215,-259.212 280.06,-249.352"/>
<polygon fill="midnightblue" stroke="midnightblue" points="281.593,-246.174 271.302,-243.655 277.776,-252.042 281.593,-246.174"/>
</g>
<!-- Node20&#45;&gt;Node6 -->
<g id="edge25" class="edge"><title>Node20&#45;&gt;Node6</title>
<path fill="none" stroke="midnightblue" d="M352.919,-515.476C320.466,-499.526 258,-461.89 258,-408.5 258,-408.5 258,-408.5 258,-345 258,-312.948 258,-275.643 258,-253.749"/>
<polygon fill="midnightblue" stroke="midnightblue" points="261.5,-253.558 258,-243.558 254.5,-253.558 261.5,-253.558"/>
</g>
<!-- Node20&#45;&gt;Node21 -->
<g id="edge26" class="edge"><title>Node20&#45;&gt;Node21</title>
<path fill="none" stroke="midnightblue" d="M345.795,-515.37C325.434,-507.841 297.19,-495.529 276,-479 195.052,-415.856 183.829,-387.419 130,-300 120.798,-285.055 112.88,-266.686 107.654,-253.292"/>
<polygon fill="midnightblue" stroke="midnightblue" points="110.869,-251.899 104.067,-243.777 104.319,-254.369 110.869,-251.899"/>
</g>
<!-- Node22 -->
<g id="node22" class="node"><title>Node22</title>
<g id="a_node22"><a xlink:title=" ">
<polygon fill="white" stroke="#bfbfbf" points="623,-459.5 623,-478.5 671,-478.5 671,-459.5 623,-459.5"/>
<text text-anchor="middle" x="647" y="-466.5" font-family="Helvetica,sans-Serif" font-size="10.00">stdlib.h</text>
</a>
</g>
</g>
<!-- Node20&#45;&gt;Node22 -->
<g id="edge29" class="edge"><title>Node20&#45;&gt;Node22</title>
<path fill="none" stroke="midnightblue" d="M415.575,-515.444C470.294,-504.699 563.028,-486.489 612.877,-476.701"/>
<polygon fill="midnightblue" stroke="midnightblue" points="613.696,-480.107 622.834,-474.745 612.347,-473.238 613.696,-480.107"/>
</g>
<!-- Node23 -->
<g id="node23" class="node"><title>Node23</title>
<g id="a_node23"><a xlink:title=" ">
<polygon fill="white" stroke="#bfbfbf" points="324.5,-459.5 324.5,-478.5 371.5,-478.5 371.5,-459.5 324.5,-459.5"/>
<text text-anchor="middle" x="348" y="-466.5" font-family="Helvetica,sans-Serif" font-size="10.00">iterator</text>
</a>
</g>
</g>
<!-- Node20&#45;&gt;Node23 -->
<g id="edge30" class="edge"><title>Node20&#45;&gt;Node23</title>
<path fill="none" stroke="midnightblue" d="M368.037,-515.083C364.787,-507.77 360.081,-497.181 356.046,-488.103"/>
<polygon fill="midnightblue" stroke="midnightblue" points="359.149,-486.468 351.889,-478.751 352.752,-489.311 359.149,-486.468"/>
</g>
<!-- Node21&#45;&gt;Node8 -->
<g id="edge27" class="edge"><title>Node21&#45;&gt;Node8</title>
<path fill="none" stroke="midnightblue" d="M90.7385,-224.307C72.7593,-208.284 36.3043,-172.046 24,-132 14.0793,-99.7119 18.9253,-89.3944 24,-56 25.3675,-47.001 28.1904,-37.3251 30.9455,-29.2601"/>
<polygon fill="midnightblue" stroke="midnightblue" points="34.2653,-30.3722 34.4,-19.7782 27.6882,-27.9759 34.2653,-30.3722"/>
</g>
<!-- Node21&#45;&gt;Node10 -->
<g id="edge28" class="edge"><title>Node21&#45;&gt;Node10</title>
<path fill="none" stroke="midnightblue" d="M114.195,-224.478C138.936,-208.172 193.372,-170.718 233,-132 263.98,-101.731 257.913,-79.9516 294,-56 319.615,-38.9989 351.671,-28.3367 380.203,-21.6893"/>
<polygon fill="midnightblue" stroke="midnightblue" points="381.119,-25.0715 390.131,-19.5017 379.612,-18.2355 381.119,-25.0715"/>
</g>
<!-- Node24&#45;&gt;Node16 -->
<g id="edge50" class="edge"><title>Node24&#45;&gt;Node16</title>
<path fill="none" stroke="midnightblue" d="M535.079,-515.426C559.086,-493.054 626.814,-431.888 691,-392 723.087,-372.06 743.864,-385.062 768,-356 803.779,-312.919 813.565,-165.217 831,-112 833.984,-102.892 837.876,-92.98 841.277,-84.7829"/>
<polygon fill="midnightblue" stroke="midnightblue" points="844.53,-86.0789 845.218,-75.5065 838.087,-83.3419 844.53,-86.0789"/>
</g>
<!-- Node24&#45;&gt;Node19 -->
<g id="edge32" class="edge"><title>Node24&#45;&gt;Node19</title>
<path fill="none" stroke="midnightblue" d="M502.725,-515.471C468.304,-501.61 404.318,-470.835 371,-423 346.789,-388.24 341.799,-336.989 340.966,-309.702"/>
<polygon fill="midnightblue" stroke="midnightblue" points="344.464,-309.541 340.82,-299.593 337.465,-309.643 344.464,-309.541"/>
</g>
<!-- Node25 -->
<g id="node25" class="node"><title>Node25</title>
<g id="a_node25"><a xlink:title=" ">
<polygon fill="white" stroke="#bfbfbf" points="499.5,-280.5 499.5,-299.5 600.5,-299.5 600.5,-280.5 499.5,-280.5"/>
<text text-anchor="middle" x="550" y="-287.5" font-family="Helvetica,sans-Serif" font-size="10.00">AH/STL/type_traits</text>
</a>
</g>
</g>
<!-- Node24&#45;&gt;Node25 -->
<g id="edge33" class="edge"><title>Node24&#45;&gt;Node25</title>
<path fill="none" stroke="midnightblue" d="M516.202,-515.227C486.333,-487.413 400.951,-399.301 443,-336 453.775,-319.779 471.662,-309.392 489.755,-302.746"/>
<polygon fill="midnightblue" stroke="midnightblue" points="491.104,-305.986 499.491,-299.513 488.898,-299.343 491.104,-305.986"/>
</g>
<!-- Node26 -->
<g id="node26" class="node"><title>Node26</title>
<g id="a_node26"><a xlink:href="../../d0/d4e/Def_8hpp.html" target="_top" xlink:title=" ">
<polygon fill="white" stroke="black" points="689,-459.5 689,-478.5 759,-478.5 759,-459.5 689,-459.5"/>
<text text-anchor="middle" x="724" y="-466.5" font-family="Helvetica,sans-Serif" font-size="10.00">Def/Def.hpp</text>
</a>
</g>
</g>
<!-- Node24&#45;&gt;Node26 -->
<g id="edge34" class="edge"><title>Node24&#45;&gt;Node26</title>
<path fill="none" stroke="midnightblue" d="M557.374,-515.444C591.263,-506.201 645.403,-491.436 682.724,-481.257"/>
<polygon fill="midnightblue" stroke="midnightblue" points="684.046,-484.524 692.773,-478.516 682.205,-477.771 684.046,-484.524"/>
</g>
<!-- Node26&#45;&gt;Node15 -->
<g id="edge48" class="edge"><title>Node26&#45;&gt;Node15</title>
<path fill="none" stroke="midnightblue" d="M689.611,-459.499C621.036,-441.767 471.414,-398.912 443,-356 408.495,-303.889 534.139,-212.657 655,-112 668.822,-100.488 685.63,-89.2062 698.953,-80.818"/>
<polygon fill="midnightblue" stroke="midnightblue" points="700.878,-83.7432 707.541,-75.5059 697.195,-77.7901 700.878,-83.7432"/>
</g>
<!-- Node26&#45;&gt;Node16 -->
<g id="edge49" class="edge"><title>Node26&#45;&gt;Node16</title>
<path fill="none" stroke="midnightblue" d="M738.093,-459.428C773.431,-436.734 863,-371.293 863,-291 863,-291 863,-291 863,-233 863,-179.401 855.663,-116.41 851.612,-85.7151"/>
<polygon fill="midnightblue" stroke="midnightblue" points="855.055,-85.0578 850.242,-75.619 848.119,-85.9988 855.055,-85.0578"/>
</g>
<!-- Node27 -->
<g id="node27" class="node"><title>Node27</title>
<g id="a_node27"><a xlink:href="../../d7/d42/Channel_8hpp.html" target="_top" xlink:title=" ">
<polygon fill="white" stroke="black" points="699.5,-398 699.5,-417 770.5,-417 770.5,-398 699.5,-398"/>
<text text-anchor="middle" x="735" y="-405" font-family="Helvetica,sans-Serif" font-size="10.00">Channel.hpp</text>
</a>
</g>
</g>
<!-- Node26&#45;&gt;Node27 -->
<g id="edge35" class="edge"><title>Node26&#45;&gt;Node27</title>
<path fill="none" stroke="midnightblue" d="M725.576,-459.475C727.128,-451.08 729.55,-437.981 731.55,-427.163"/>
<polygon fill="midnightblue" stroke="midnightblue" points="735.051,-427.479 733.427,-417.009 728.167,-426.206 735.051,-427.479"/>
</g>
<!-- Node28 -->
<g id="node28" class="node"><title>Node28</title>
<g id="a_node28"><a xlink:title=" ">
<polygon fill="white" stroke="#bfbfbf" points="451.5,-336.5 451.5,-355.5 614.5,-355.5 614.5,-336.5 451.5,-336.5"/>
<text text-anchor="middle" x="533" y="-343.5" font-family="Helvetica,sans-Serif" font-size="10.00">Settings/NamespaceSettings.hpp</text>
</a>
</g>
</g>
<!-- Node26&#45;&gt;Node28 -->
<g id="edge47" class="edge"><title>Node26&#45;&gt;Node28</title>
<path fill="none" stroke="midnightblue" d="M710.569,-459.492C678.113,-438.93 595.154,-386.375 555.185,-361.054"/>
<polygon fill="midnightblue" stroke="midnightblue" points="556.992,-358.056 546.672,-355.661 553.246,-363.969 556.992,-358.056"/>
</g>
<!-- Node29 -->
<g id="node29" class="node"><title>Node29</title>
<g id="a_node29"><a xlink:href="../../de/d76/Array_8hpp.html" target="_top" xlink:title=" ">
<polygon fill="white" stroke="black" points="633,-336.5 633,-355.5 759,-355.5 759,-336.5 633,-336.5"/>
<text text-anchor="middle" x="696" y="-343.5" font-family="Helvetica,sans-Serif" font-size="10.00">AH/Containers/Array.hpp</text>
</a>
</g>
</g>
<!-- Node26&#45;&gt;Node29 -->
<g id="edge38" class="edge"><title>Node26&#45;&gt;Node29</title>
<path fill="none" stroke="midnightblue" d="M714.98,-459.34C706.928,-450.932 695.702,-437.363 691,-423 684.843,-404.191 687.594,-381.397 690.942,-365.707"/>
<polygon fill="midnightblue" stroke="midnightblue" points="694.414,-366.24 693.367,-355.697 687.611,-364.592 694.414,-366.24"/>
</g>
<!-- Node31 -->
<g id="node31" class="node"><title>Node31</title>
<g id="a_node31"><a xlink:href="../../d4/d35/Hardware-Types_8hpp.html" target="_top" xlink:title=" ">
<polygon fill="white" stroke="black" points="827.5,-392.5 827.5,-422.5 948.5,-422.5 948.5,-392.5 827.5,-392.5"/>
<text text-anchor="start" x="835.5" y="-410.5" font-family="Helvetica,sans-Serif" font-size="10.00">AH/Hardware/Hardware</text>
<text text-anchor="middle" x="888" y="-399.5" font-family="Helvetica,sans-Serif" font-size="10.00">&#45;Types.hpp</text>
</a>
</g>
</g>
<!-- Node26&#45;&gt;Node31 -->
<g id="edge43" class="edge"><title>Node26&#45;&gt;Node31</title>
<path fill="none" stroke="midnightblue" d="M747.497,-459.475C771.473,-450.776 809.373,-437.026 839.77,-425.998"/>
<polygon fill="midnightblue" stroke="midnightblue" points="841.142,-429.224 849.348,-422.523 838.754,-422.643 841.142,-429.224"/>
</g>
<!-- Node27&#45;&gt;Node16 -->
<g id="edge36" class="edge"><title>Node27&#45;&gt;Node16</title>
<path fill="none" stroke="midnightblue" d="M750.943,-397.862C765.775,-389.091 787.551,-374.227 801,-356 819.284,-331.22 825,-321.795 825,-291 825,-291 825,-291 825,-233 825,-179.035 837.578,-116.208 844.522,-85.6315"/>
<polygon fill="midnightblue" stroke="midnightblue" points="848.004,-86.1113 846.87,-75.5773 841.188,-84.5194 848.004,-86.1113"/>
</g>
<!-- Node27&#45;&gt;Node28 -->
<g id="edge37" class="edge"><title>Node27&#45;&gt;Node28</title>
<path fill="none" stroke="midnightblue" d="M706.058,-397.975C670.733,-387.57 610.869,-369.937 571.635,-358.38"/>
<polygon fill="midnightblue" stroke="midnightblue" points="572.469,-354.977 561.888,-355.509 570.492,-361.692 572.469,-354.977"/>
</g>
<!-- Node29&#45;&gt;Node15 -->
<g id="edge42" class="edge"><title>Node29&#45;&gt;Node15</title>
<path fill="none" stroke="midnightblue" d="M688.693,-336.231C674.591,-318.385 645,-276.047 645,-235 645,-235 645,-235 645,-177 645,-136.93 679.715,-101.077 702.526,-81.8437"/>
<polygon fill="midnightblue" stroke="midnightblue" points="704.745,-84.5508 710.305,-75.5325 700.334,-79.1148 704.745,-84.5508"/>
</g>
<!-- Node29&#45;&gt;Node19 -->
<g id="edge39" class="edge"><title>Node29&#45;&gt;Node19</title>
<path fill="none" stroke="midnightblue" d="M639.749,-336.444C574.29,-326.486 466.69,-310.119 400.055,-299.983"/>
<polygon fill="midnightblue" stroke="midnightblue" points="400.541,-296.517 390.128,-298.473 399.488,-303.437 400.541,-296.517"/>
</g>
<!-- Node29&#45;&gt;Node25 -->
<g id="edge40" class="edge"><title>Node29&#45;&gt;Node25</title>
<path fill="none" stroke="midnightblue" d="M672.866,-336.444C648.518,-327.438 609.993,-313.189 582.577,-303.049"/>
<polygon fill="midnightblue" stroke="midnightblue" points="583.619,-299.703 573.026,-299.516 581.191,-306.268 583.619,-299.703"/>
</g>
<!-- Node30 -->
<g id="node30" class="node"><title>Node30</title>
<g id="a_node30"><a xlink:title=" ">
<polygon fill="white" stroke="#bfbfbf" points="673.5,-280.5 673.5,-299.5 758.5,-299.5 758.5,-280.5 673.5,-280.5"/>
<text text-anchor="middle" x="716" y="-287.5" font-family="Helvetica,sans-Serif" font-size="10.00">AH/STL/iterator</text>
</a>
</g>
</g>
<!-- Node29&#45;&gt;Node30 -->
<g id="edge41" class="edge"><title>Node29&#45;&gt;Node30</title>
<path fill="none" stroke="midnightblue" d="M699.303,-336.083C701.982,-328.849 705.849,-318.409 709.186,-309.397"/>
<polygon fill="midnightblue" stroke="midnightblue" points="712.568,-310.344 712.759,-299.751 706.004,-307.913 712.568,-310.344"/>
</g>
<!-- Node31&#45;&gt;Node10 -->
<g id="edge45" class="edge"><title>Node31&#45;&gt;Node10</title>
<path fill="none" stroke="midnightblue" d="M902.817,-392.351C936.318,-358.754 1015,-270.147 1015,-179 1015,-179 1015,-179 1015,-121 1015,-22.1245 676.294,-10.4546 524.306,-10.1952"/>
<polygon fill="midnightblue" stroke="midnightblue" points="524.132,-6.69533 514.131,-10.1945 524.131,-13.6953 524.132,-6.69533"/>
</g>
<!-- Node31&#45;&gt;Node16 -->
<g id="edge46" class="edge"><title>Node31&#45;&gt;Node16</title>
<path fill="none" stroke="midnightblue" d="M890.611,-392.491C898.07,-349.264 916.778,-214.685 882,-112 878.402,-101.376 871.308,-91.157 864.617,-83.15"/>
<polygon fill="midnightblue" stroke="midnightblue" points="867.223,-80.8131 857.953,-75.6822 862,-85.4738 867.223,-80.8131"/>
</g>
<!-- Node31&#45;&gt;Node29 -->
<g id="edge44" class="edge"><title>Node31&#45;&gt;Node29</title>
<path fill="none" stroke="midnightblue" d="M842.499,-392.399C809.178,-382.073 764.51,-368.231 733.29,-358.556"/>
<polygon fill="midnightblue" stroke="midnightblue" points="734.245,-355.188 723.657,-355.571 732.173,-361.874 734.245,-355.188"/>
</g>
<!-- Node32&#45;&gt;Node26 -->
<g id="edge53" class="edge"><title>Node32&#45;&gt;Node26</title>
<path fill="none" stroke="midnightblue" d="M663.568,-515.324C674.42,-507.185 690.881,-494.839 703.883,-485.087"/>
<polygon fill="midnightblue" stroke="midnightblue" points="706.321,-487.634 712.221,-478.834 702.121,-482.034 706.321,-487.634"/>
</g>
<!-- Node33&#45;&gt;Node26 -->
<g id="edge55" class="edge"><title>Node33&#45;&gt;Node26</title>
<path fill="none" stroke="midnightblue" d="M712.942,-571.368C714.878,-553.617 719.345,-512.666 721.971,-488.597"/>
<polygon fill="midnightblue" stroke="midnightblue" points="725.458,-488.912 723.063,-478.591 718.499,-488.153 725.458,-488.912"/>
</g>
<!-- Node34&#45;&gt;Node8 -->
<g id="edge62" class="edge"><title>Node34&#45;&gt;Node8</title>
<path fill="none" stroke="midnightblue" d="M136.689,-627.492C99.9779,-587.323 0,-466.921 0,-347 0,-347 0,-347 0,-121 0,-86.8131 16.6005,-49.7639 27.8573,-28.5707"/>
<polygon fill="midnightblue" stroke="midnightblue" points="30.9473,-30.2151 32.7163,-19.769 24.8191,-26.832 30.9473,-30.2151"/>
</g>
<!-- Node35 -->
<g id="node35" class="node"><title>Node35</title>
<g id="a_node35"><a xlink:href="../../d4/d57/ExtendedIOElement_8hpp.html" target="_top" xlink:title=" ">
<polygon fill="white" stroke="black" points="351.5,-571.5 351.5,-590.5 474.5,-590.5 474.5,-571.5 351.5,-571.5"/>
<text text-anchor="middle" x="413" y="-578.5" font-family="Helvetica,sans-Serif" font-size="10.00">ExtendedIOElement.hpp</text>
</a>
</g>
</g>
<!-- Node34&#45;&gt;Node35 -->
<g id="edge59" class="edge"><title>Node34&#45;&gt;Node35</title>
<path fill="none" stroke="midnightblue" d="M211.994,-627.475C258.952,-616.851 322.504,-602.473 365.48,-592.751"/>
<polygon fill="midnightblue" stroke="midnightblue" points="366.419,-596.127 375.4,-590.506 364.875,-589.299 366.419,-596.127"/>
</g>
<!-- Node35&#45;&gt;Node20 -->
<g id="edge61" class="edge"><title>Node35&#45;&gt;Node20</title>
<path fill="none" stroke="midnightblue" d="M406.23,-571.083C400.438,-563.455 391.942,-552.264 384.862,-542.941"/>
<polygon fill="midnightblue" stroke="midnightblue" points="387.479,-540.599 378.644,-534.751 381.904,-544.832 387.479,-540.599"/>
</g>
<!-- Node35&#45;&gt;Node31 -->
<g id="edge60" class="edge"><title>Node35&#45;&gt;Node31</title>
<path fill="none" stroke="midnightblue" d="M474.707,-578.398C535.083,-575.02 628.689,-564.893 704,-535 768.107,-509.554 831.983,-458.374 864.983,-429.523"/>
<polygon fill="midnightblue" stroke="midnightblue" points="867.523,-431.948 872.689,-422.698 862.882,-426.708 867.523,-431.948"/>
</g>
<!-- Node36&#45;&gt;Node20 -->
<g id="edge74" class="edge"><title>Node36&#45;&gt;Node20</title>
<path fill="none" stroke="midnightblue" d="M505.315,-694.277C508.889,-667.193 512.627,-607.656 484,-571 471.256,-554.682 451.665,-544.256 432.411,-537.606"/>
<polygon fill="midnightblue" stroke="midnightblue" points="433.305,-534.218 422.715,-534.548 431.199,-540.894 433.305,-534.218"/>
</g>
<!-- Node37 -->
<g id="node37" class="node"><title>Node37</title>
<g id="a_node37"><a xlink:href="../../dc/d90/MIDIInputElement_8hpp.html" target="_top" xlink:title=" ">
<polygon fill="white" stroke="black" points="654.5,-633 654.5,-652 769.5,-652 769.5,-633 654.5,-633"/>
<text text-anchor="middle" x="712" y="-640" font-family="Helvetica,sans-Serif" font-size="10.00">MIDIInputElement.hpp</text>
</a>
</g>
</g>
<!-- Node36&#45;&gt;Node37 -->
<g id="edge65" class="edge"><title>Node36&#45;&gt;Node37</title>
<path fill="none" stroke="midnightblue" d="M548.093,-694.476C585.882,-682.723 639.193,-666.143 674.636,-655.12"/>
<polygon fill="midnightblue" stroke="midnightblue" points="676.068,-658.341 684.577,-652.029 673.989,-651.656 676.068,-658.341"/>
</g>
<!-- Node37&#45;&gt;Node33 -->
<g id="edge73" class="edge"><title>Node37&#45;&gt;Node33</title>
<path fill="none" stroke="midnightblue" d="M712,-632.975C712,-624.58 712,-611.481 712,-600.663"/>
<polygon fill="midnightblue" stroke="midnightblue" points="715.5,-600.509 712,-590.509 708.5,-600.509 715.5,-600.509"/>
</g>
<!-- Node38 -->
<g id="node38" class="node"><title>Node38</title>
<g id="a_node38"><a xlink:href="../../db/df6/ChannelMessageMatcher_8hpp.html" target="_top" xlink:title=" ">
<polygon fill="white" stroke="black" points="820,-571.5 820,-590.5 966,-590.5 966,-571.5 820,-571.5"/>
<text text-anchor="middle" x="893" y="-578.5" font-family="Helvetica,sans-Serif" font-size="10.00">ChannelMessageMatcher.hpp</text>
</a>
</g>
</g>
<!-- Node37&#45;&gt;Node38 -->
<g id="edge66" class="edge"><title>Node37&#45;&gt;Node38</title>
<path fill="none" stroke="midnightblue" d="M737.933,-632.975C769.25,-622.68 822.09,-605.31 857.256,-593.75"/>
<polygon fill="midnightblue" stroke="midnightblue" points="858.708,-596.957 867.115,-590.509 856.522,-590.307 858.708,-596.957"/>
</g>
<!-- Node39 -->
<g id="node39" class="node"><title>Node39</title>
<g id="a_node39"><a xlink:href="../../d7/d2d/MIDI__Parser_8hpp.html" target="_top" xlink:title=" ">
<polygon fill="white" stroke="black" points="848.5,-515.5 848.5,-534.5 1003.5,-534.5 1003.5,-515.5 848.5,-515.5"/>
<text text-anchor="middle" x="926" y="-522.5" font-family="Helvetica,sans-Serif" font-size="10.00">MIDI_Parsers/MIDI_Parser.hpp</text>
</a>
</g>
</g>
<!-- Node38&#45;&gt;Node39 -->
<g id="edge67" class="edge"><title>Node38&#45;&gt;Node39</title>
<path fill="none" stroke="midnightblue" d="M898.449,-571.083C903.014,-563.613 909.668,-552.724 915.293,-543.52"/>
<polygon fill="midnightblue" stroke="midnightblue" points="918.424,-545.109 920.652,-534.751 912.451,-541.459 918.424,-545.109"/>
</g>
<!-- Node39&#45;&gt;Node15 -->
<g id="edge68" class="edge"><title>Node39&#45;&gt;Node15</title>
<path fill="none" stroke="midnightblue" d="M932.878,-515.304C946.799,-496.801 977,-451.682 977,-408.5 977,-408.5 977,-408.5 977,-345 977,-211.415 815.122,-114.22 749.32,-80.2289"/>
<polygon fill="midnightblue" stroke="midnightblue" points="750.841,-77.076 740.339,-75.6757 747.675,-83.3194 750.841,-77.076"/>
</g>
<!-- Node39&#45;&gt;Node16 -->
<g id="edge69" class="edge"><title>Node39&#45;&gt;Node16</title>
<path fill="none" stroke="midnightblue" d="M944.41,-515.387C958.948,-507.719 978.76,-495.212 991,-479 1010.94,-452.584 1015,-441.599 1015,-408.5 1015,-408.5 1015,-408.5 1015,-345 1015,-283.353 929.691,-152.269 898,-112 889.382,-101.049 878.002,-90.4243 868.379,-82.2513"/>
<polygon fill="midnightblue" stroke="midnightblue" points="870.433,-79.4083 860.488,-75.7534 865.983,-84.812 870.433,-79.4083"/>
</g>
<!-- Node39&#45;&gt;Node22 -->
<g id="edge70" class="edge"><title>Node39&#45;&gt;Node22</title>
<path fill="none" stroke="midnightblue" d="M871.984,-515.481C824.208,-507.64 752.427,-495.111 681.143,-479.106"/>
<polygon fill="midnightblue" stroke="midnightblue" points="681.618,-475.625 671.091,-476.825 680.068,-482.452 681.618,-475.625"/>
</g>
<!-- Node39&#45;&gt;Node26 -->
<g id="edge71" class="edge"><title>Node39&#45;&gt;Node26</title>
<path fill="none" stroke="midnightblue" d="M893.992,-515.444C859.271,-506.162 803.712,-491.309 765.623,-481.127"/>
<polygon fill="midnightblue" stroke="midnightblue" points="766.422,-477.718 755.858,-478.516 764.615,-484.48 766.422,-477.718"/>
</g>
<!-- Node40 -->
<g id="node40" class="node"><title>Node40</title>
<g id="a_node40"><a xlink:title=" ">
<polygon fill="white" stroke="#bfbfbf" points="1043.5,-459.5 1043.5,-478.5 1190.5,-478.5 1190.5,-459.5 1043.5,-459.5"/>
<text text-anchor="middle" x="1117" y="-466.5" font-family="Helvetica,sans-Serif" font-size="10.00">Settings/SettingsWrapper.hpp</text>
</a>
</g>
</g>
<!-- Node39&#45;&gt;Node40 -->
<g id="edge72" class="edge"><title>Node39&#45;&gt;Node40</title>
<path fill="none" stroke="midnightblue" d="M956.265,-515.444C988.955,-506.201 1041.18,-491.436 1077.18,-481.257"/>
<polygon fill="midnightblue" stroke="midnightblue" points="1078.21,-484.605 1086.88,-478.516 1076.3,-477.869 1078.21,-484.605"/>
</g>
<!-- Node42&#45;&gt;Node40 -->
<g id="edge77" class="edge"><title>Node42&#45;&gt;Node40</title>
<path fill="none" stroke="midnightblue" d="M879.084,-699.729C915.779,-664.297 1053.37,-531.444 1100.8,-485.639"/>
<polygon fill="midnightblue" stroke="midnightblue" points="1103.33,-488.063 1108.09,-478.599 1098.47,-483.028 1103.33,-488.063"/>
</g>
</g>
</svg>
