<?xml version="1.0" encoding="UTF-8" standalone="no"?>
<!DOCTYPE svg PUBLIC "-//W3C//DTD SVG 1.1//EN"
 "http://www.w3.org/Graphics/SVG/1.1/DTD/svg11.dtd">
<!-- Generated by graphviz version 2.43.0 (0)
 -->
<!-- Title: Channel.cpp Pages: 1 -->
<svg width="621pt" height="302pt"
 viewBox="0.00 0.00 620.50 302.00" xmlns="http://www.w3.org/2000/svg" xmlns:xlink="http://www.w3.org/1999/xlink">
<g id="graph0" class="graph" transform="scale(1 1) rotate(0) translate(4 298)">
<title>Channel.cpp</title>
<!-- Node1 -->
<g id="Node000001" class="node">
<title>Node1</title>
<g id="a_Node000001"><a xlink:title=" ">
<polygon fill="#999999" stroke="#666666" points="464,-294 387,-294 387,-275 464,-275 464,-294"/>
<text text-anchor="middle" x="425.5" y="-282" font-family="Helvetica,sans-Serif" font-size="10.00">Channel.cpp</text>
</a>
</g>
</g>
<!-- Node2 -->
<g id="Node000002" class="node">
<title>Node2</title>
<g id="a_Node000002"><a xlink:href="../../d7/d42/Channel_8hpp.html" target="_top" xlink:title=" ">
<polygon fill="white" stroke="#666666" points="536,-239 459,-239 459,-220 536,-220 536,-239"/>
<text text-anchor="middle" x="497.5" y="-227" font-family="Helvetica,sans-Serif" font-size="10.00">Channel.hpp</text>
</a>
</g>
</g>
<!-- Node1&#45;&gt;Node2 -->
<g id="edge1_Node000001_Node000002" class="edge">
<title>Node1&#45;&gt;Node2</title>
<g id="a_edge1_Node000001_Node000002"><a xlink:title=" ">
<path fill="none" stroke="#63b8ff" d="M437.07,-274.98C447.92,-267 464.38,-254.88 477.38,-245.31"/>
<polygon fill="#63b8ff" stroke="#63b8ff" points="479.74,-247.92 485.72,-239.17 475.59,-242.28 479.74,-247.92"/>
</a>
</g>
</g>
<!-- Node11 -->
<g id="Node000011" class="node">
<title>Node11</title>
<g id="a_Node000011"><a xlink:href="../../dd/d80/PrintStream_8hpp.html" target="_top" xlink:title=" ">
<polygon fill="white" stroke="#666666" points="441,-239 268,-239 268,-220 441,-220 441,-239"/>
<text text-anchor="middle" x="354.5" y="-227" font-family="Helvetica,sans-Serif" font-size="10.00">AH/PrintStream/PrintStream.hpp</text>
</a>
</g>
</g>
<!-- Node1&#45;&gt;Node11 -->
<g id="edge12_Node000001_Node000011" class="edge">
<title>Node1&#45;&gt;Node11</title>
<g id="a_edge12_Node000001_Node000011"><a xlink:title=" ">
<path fill="none" stroke="#63b8ff" d="M414.09,-274.98C403.39,-267 387.16,-254.88 374.34,-245.31"/>
<polygon fill="#63b8ff" stroke="#63b8ff" points="376.22,-242.35 366.11,-239.17 372.03,-247.96 376.22,-242.35"/>
</a>
</g>
</g>
<!-- Node3 -->
<g id="Node000003" class="node">
<title>Node3</title>
<g id="a_Node000003"><a xlink:href="../../d6/ddf/Arduino-Wrapper_8h.html" target="_top" xlink:title=" ">
<polygon fill="white" stroke="#666666" points="416.5,-184 292.5,-184 292.5,-165 416.5,-165 416.5,-184"/>
<text text-anchor="middle" x="354.5" y="-172" font-family="Helvetica,sans-Serif" font-size="10.00">AH/Arduino&#45;Wrapper.h</text>
</a>
</g>
</g>
<!-- Node2&#45;&gt;Node3 -->
<g id="edge2_Node000002_Node000003" class="edge">
<title>Node2&#45;&gt;Node3</title>
<g id="a_edge2_Node000002_Node000003"><a xlink:title=" ">
<path fill="none" stroke="#63b8ff" d="M474.52,-219.98C451,-211.27 414.21,-197.63 387.56,-187.75"/>
<polygon fill="#63b8ff" stroke="#63b8ff" points="388.49,-184.36 377.89,-184.17 386.05,-190.93 388.49,-184.36"/>
</a>
</g>
</g>
<!-- Node10 -->
<g id="Node000010" class="node">
<title>Node10</title>
<g id="a_Node000010"><a xlink:title=" ">
<polygon fill="#e0e0e0" stroke="#999999" points="612.5,-184 434.5,-184 434.5,-165 612.5,-165 612.5,-184"/>
<text text-anchor="middle" x="523.5" y="-172" font-family="Helvetica,sans-Serif" font-size="10.00">Settings/NamespaceSettings.hpp</text>
</a>
</g>
</g>
<!-- Node2&#45;&gt;Node10 -->
<g id="edge11_Node000002_Node000010" class="edge">
<title>Node2&#45;&gt;Node10</title>
<g id="a_edge11_Node000002_Node000010"><a xlink:title=" ">
<path fill="none" stroke="#63b8ff" d="M501.79,-219.75C505.31,-212.57 510.41,-202.18 514.78,-193.27"/>
<polygon fill="#63b8ff" stroke="#63b8ff" points="518.02,-194.61 519.29,-184.09 511.74,-191.53 518.02,-194.61"/>
</a>
</g>
</g>
<!-- Node4 -->
<g id="Node000004" class="node">
<title>Node4</title>
<g id="a_Node000004"><a xlink:href="../../d7/d79/MinMaxFix_8hpp.html" target="_top" xlink:title=" ">
<polygon fill="white" stroke="#666666" points="366.5,-129 230.5,-129 230.5,-110 366.5,-110 366.5,-129"/>
<text text-anchor="middle" x="298.5" y="-117" font-family="Helvetica,sans-Serif" font-size="10.00">AH/Math/MinMaxFix.hpp</text>
</a>
</g>
</g>
<!-- Node3&#45;&gt;Node4 -->
<g id="edge3_Node000003_Node000004" class="edge">
<title>Node3&#45;&gt;Node4</title>
<g id="a_edge3_Node000003_Node000004"><a xlink:title=" ">
<path fill="none" stroke="#63b8ff" d="M345.5,-164.98C337.31,-157.23 324.99,-145.58 315.03,-136.14"/>
<polygon fill="#63b8ff" stroke="#63b8ff" points="317.33,-133.5 307.66,-129.17 312.52,-138.59 317.33,-133.5"/>
</a>
</g>
</g>
<!-- Node7 -->
<g id="Node000007" class="node">
<title>Node7</title>
<g id="a_Node000007"><a xlink:title=" ">
<polygon fill="#e0e0e0" stroke="#999999" points="386,-19 323,-19 323,0 386,0 386,-19"/>
<text text-anchor="middle" x="354.5" y="-7" font-family="Helvetica,sans-Serif" font-size="10.00">Arduino.h</text>
</a>
</g>
</g>
<!-- Node3&#45;&gt;Node7 -->
<g id="edge10_Node000003_Node000007" class="edge">
<title>Node3&#45;&gt;Node7</title>
<g id="a_edge10_Node000003_Node000007"><a xlink:title=" ">
<path fill="none" stroke="#63b8ff" d="M361.31,-164.79C375.85,-145.06 407.45,-95.54 392.5,-55 388.44,-43.99 380.31,-33.86 372.6,-26.05"/>
<polygon fill="#63b8ff" stroke="#63b8ff" points="374.89,-23.39 365.21,-19.07 370.08,-28.48 374.89,-23.39"/>
</a>
</g>
</g>
<!-- Node9 -->
<g id="Node000009" class="node">
<title>Node9</title>
<g id="a_Node000009"><a xlink:title=" ">
<polygon fill="#e0e0e0" stroke="#999999" points="547,-129 440,-129 440,-110 547,-110 547,-129"/>
<text text-anchor="middle" x="493.5" y="-117" font-family="Helvetica,sans-Serif" font-size="10.00">AH/STL/type_traits</text>
</a>
</g>
</g>
<!-- Node3&#45;&gt;Node9 -->
<g id="edge9_Node000003_Node000009" class="edge">
<title>Node3&#45;&gt;Node9</title>
<g id="a_edge9_Node000003_Node000009"><a xlink:title=" ">
<path fill="none" stroke="#63b8ff" d="M376.83,-164.98C399.7,-156.27 435.46,-142.63 461.36,-132.75"/>
<polygon fill="#63b8ff" stroke="#63b8ff" points="462.66,-136 470.76,-129.17 460.17,-129.46 462.66,-136"/>
</a>
</g>
</g>
<!-- Node5 -->
<g id="Node000005" class="node">
<title>Node5</title>
<g id="a_Node000005"><a xlink:href="../../d6/d3b/FixArduinoMacros_8hpp.html" target="_top" xlink:title=" ">
<polygon fill="white" stroke="#666666" points="383.5,-74 213.5,-74 213.5,-55 383.5,-55 383.5,-74"/>
<text text-anchor="middle" x="298.5" y="-62" font-family="Helvetica,sans-Serif" font-size="10.00">AH/Math/FixArduinoMacros.hpp</text>
</a>
</g>
</g>
<!-- Node4&#45;&gt;Node5 -->
<g id="edge4_Node000004_Node000005" class="edge">
<title>Node4&#45;&gt;Node5</title>
<g id="a_edge4_Node000004_Node000005"><a xlink:title=" ">
<path fill="none" stroke="#63b8ff" d="M298.5,-109.75C298.5,-102.8 298.5,-92.85 298.5,-84.13"/>
<polygon fill="#63b8ff" stroke="#63b8ff" points="302,-84.09 298.5,-74.09 295,-84.09 302,-84.09"/>
</a>
</g>
</g>
<!-- Node8 -->
<g id="Node000008" class="node">
<title>Node8</title>
<g id="a_Node000008"><a xlink:href="../../d6/db0/AH_2Settings_2NamespaceSettings_8hpp.html" target="_top" xlink:title=" ">
<polygon fill="white" stroke="#666666" points="195,-74 0,-74 0,-55 195,-55 195,-74"/>
<text text-anchor="middle" x="97.5" y="-62" font-family="Helvetica,sans-Serif" font-size="10.00">AH/Settings/NamespaceSettings.hpp</text>
</a>
</g>
</g>
<!-- Node4&#45;&gt;Node8 -->
<g id="edge7_Node000004_Node000008" class="edge">
<title>Node4&#45;&gt;Node8</title>
<g id="a_edge7_Node000004_Node000008"><a xlink:title=" ">
<path fill="none" stroke="#63b8ff" d="M266.21,-109.98C231.88,-100.93 177.44,-86.58 139.73,-76.64"/>
<polygon fill="#63b8ff" stroke="#63b8ff" points="140.61,-73.25 130.05,-74.08 138.82,-80.02 140.61,-73.25"/>
</a>
</g>
</g>
<!-- Node6 -->
<g id="Node000006" class="node">
<title>Node6</title>
<g id="a_Node000006"><a xlink:href="../../d1/d65/Warnings_8hpp.html" target="_top" xlink:title=" ">
<polygon fill="white" stroke="#666666" points="265,-19 122,-19 122,0 265,0 265,-19"/>
<text text-anchor="middle" x="193.5" y="-7" font-family="Helvetica,sans-Serif" font-size="10.00">AH/Settings/Warnings.hpp</text>
</a>
</g>
</g>
<!-- Node5&#45;&gt;Node6 -->
<g id="edge5_Node000005_Node000006" class="edge">
<title>Node5&#45;&gt;Node6</title>
<g id="a_edge5_Node000005_Node000006"><a xlink:title=" ">
<path fill="none" stroke="#63b8ff" d="M281.63,-54.98C264.89,-46.54 239,-33.47 219.61,-23.68"/>
<polygon fill="#63b8ff" stroke="#63b8ff" points="221.18,-20.55 210.68,-19.17 218.03,-26.8 221.18,-20.55"/>
</a>
</g>
</g>
<!-- Node5&#45;&gt;Node7 -->
<g id="edge6_Node000005_Node000007" class="edge">
<title>Node5&#45;&gt;Node7</title>
<g id="a_edge6_Node000005_Node000007"><a xlink:title=" ">
<path fill="none" stroke="#63b8ff" d="M307.5,-54.98C315.69,-47.23 328.01,-35.58 337.97,-26.14"/>
<polygon fill="#63b8ff" stroke="#63b8ff" points="340.48,-28.59 345.34,-19.17 335.67,-23.5 340.48,-28.59"/>
</a>
</g>
</g>
<!-- Node8&#45;&gt;Node6 -->
<g id="edge8_Node000008_Node000006" class="edge">
<title>Node8&#45;&gt;Node6</title>
<g id="a_edge8_Node000008_Node000006"><a xlink:title=" ">
<path fill="none" stroke="#63b8ff" d="M112.92,-54.98C127.95,-46.69 151.04,-33.94 168.66,-24.22"/>
<polygon fill="#63b8ff" stroke="#63b8ff" points="170.73,-27.07 177.8,-19.17 167.35,-20.94 170.73,-27.07"/>
</a>
</g>
</g>
<!-- Node11&#45;&gt;Node3 -->
<g id="edge13_Node000011_Node000003" class="edge">
<title>Node11&#45;&gt;Node3</title>
<g id="a_edge13_Node000011_Node000003"><a xlink:title=" ">
<path fill="none" stroke="#63b8ff" d="M354.5,-219.75C354.5,-212.8 354.5,-202.85 354.5,-194.13"/>
<polygon fill="#63b8ff" stroke="#63b8ff" points="358,-194.09 354.5,-184.09 351,-194.09 358,-194.09"/>
</a>
</g>
</g>
<!-- Node11&#45;&gt;Node8 -->
<g id="edge14_Node000011_Node000008" class="edge">
<title>Node11&#45;&gt;Node8</title>
<g id="a_edge14_Node000011_Node000008"><a xlink:title=" ">
<path fill="none" stroke="#63b8ff" d="M340.87,-220C326.56,-211.07 303.42,-196.59 283.5,-184 224.08,-146.45 154.22,-101.81 119.46,-79.56"/>
<polygon fill="#63b8ff" stroke="#63b8ff" points="121.32,-76.6 111.01,-74.16 117.55,-82.5 121.32,-76.6"/>
</a>
</g>
</g>
<!-- Node11&#45;&gt;Node10 -->
<g id="edge15_Node000011_Node000010" class="edge">
<title>Node11&#45;&gt;Node10</title>
<g id="a_edge15_Node000011_Node000010"><a xlink:title=" ">
<path fill="none" stroke="#63b8ff" d="M381.65,-219.98C410.03,-211.09 454.73,-197.07 486.36,-187.15"/>
<polygon fill="#63b8ff" stroke="#63b8ff" points="487.64,-190.41 496.13,-184.08 485.55,-183.73 487.64,-190.41"/>
</a>
</g>
</g>
</g>
</svg>
