<?xml version="1.0" encoding="UTF-8" standalone="no"?>
<!DOCTYPE svg PUBLIC "-//W3C//DTD SVG 1.1//EN"
 "http://www.w3.org/Graphics/SVG/1.1/DTD/svg11.dtd">
<!-- Generated by graphviz version 2.43.0 (0)
 -->
<!-- Title: CCButtonLatching Pages: 1 -->
<svg width="691pt" height="1214pt"
 viewBox="0.00 0.00 690.50 1214.00" xmlns="http://www.w3.org/2000/svg" xmlns:xlink="http://www.w3.org/1999/xlink">
<g id="graph0" class="graph" transform="scale(1 1) rotate(0) translate(4 1210)">
<title>CCButtonLatching</title>
<polygon fill="white" stroke="transparent" points="-4,4 -4,-1210 686.5,-1210 686.5,4 -4,4"/>
<!-- Node1 -->
<g id="node1" class="node">
<title>Node1</title>
<g id="a_node1"><a xlink:title="A class of MIDIOutputElements that read the input of a latching push button or toggle switch,...">
<polygon fill="#bfbfbf" stroke="black" points="330.5,-0.5 330.5,-57.5 452.5,-57.5 452.5,-0.5 330.5,-0.5"/>
<text text-anchor="middle" x="391.5" y="-45.5" font-family="Helvetica,sans-Serif" font-size="10.00">CCButtonLatching</text>
<polyline fill="none" stroke="black" points="330.5,-38.5 452.5,-38.5 "/>
<text text-anchor="middle" x="391.5" y="-26.5" font-family="Helvetica,sans-Serif" font-size="10.00"> </text>
<polyline fill="none" stroke="black" points="330.5,-19.5 452.5,-19.5 "/>
<text text-anchor="start" x="338.5" y="-7.5" font-family="Helvetica,sans-Serif" font-size="10.00">+ CCButtonLatching()</text>
</a>
</g>
</g>
<!-- Node2 -->
<g id="node2" class="node">
<title>Node2</title>
<g id="a_node2"><a xlink:href="../../d8/de1/classMIDIButtonLatching.html" target="_top" xlink:title=" ">
<polygon fill="white" stroke="black" points="326,-95.5 326,-196.5 457,-196.5 457,-95.5 326,-95.5"/>
<text text-anchor="start" x="334" y="-184.5" font-family="Helvetica,sans-Serif" font-size="10.00">MIDIButtonLatching</text>
<text text-anchor="middle" x="391.5" y="-173.5" font-family="Helvetica,sans-Serif" font-size="10.00">&lt; DigitalCCSender &gt;</text>
<polyline fill="none" stroke="black" points="326,-166.5 457,-166.5 "/>
<text text-anchor="middle" x="391.5" y="-154.5" font-family="Helvetica,sans-Serif" font-size="10.00"> </text>
<polyline fill="none" stroke="black" points="326,-147.5 457,-147.5 "/>
<text text-anchor="start" x="334" y="-135.5" font-family="Helvetica,sans-Serif" font-size="10.00">+ begin()</text>
<text text-anchor="start" x="334" y="-124.5" font-family="Helvetica,sans-Serif" font-size="10.00">+ update()</text>
<text text-anchor="start" x="334" y="-113.5" font-family="Helvetica,sans-Serif" font-size="10.00">+ getButtonState()</text>
<text text-anchor="start" x="334" y="-102.5" font-family="Helvetica,sans-Serif" font-size="10.00"># MIDIButtonLatching()</text>
</a>
</g>
</g>
<!-- Node2&#45;&gt;Node1 -->
<g id="edge1" class="edge">
<title>Node2&#45;&gt;Node1</title>
<path fill="none" stroke="midnightblue" d="M391.5,-85.22C391.5,-75.59 391.5,-66.06 391.5,-57.68"/>
<polygon fill="none" stroke="midnightblue" points="388,-85.23 391.5,-95.23 395,-85.23 388,-85.23"/>
</g>
<!-- Node3 -->
<g id="node3" class="node">
<title>Node3</title>
<g id="a_node3"><a xlink:href="../../d1/d55/classAH_1_1Updatable.html" target="_top" xlink:title=" ">
<polygon fill="white" stroke="black" points="119,-343.5 119,-433.5 232,-433.5 232,-343.5 119,-343.5"/>
<text text-anchor="middle" x="175.5" y="-421.5" font-family="Helvetica,sans-Serif" font-size="10.00">MIDIOutputElement</text>
<polyline fill="none" stroke="black" points="119,-414.5 232,-414.5 "/>
<text text-anchor="middle" x="175.5" y="-402.5" font-family="Helvetica,sans-Serif" font-size="10.00"> </text>
<polyline fill="none" stroke="black" points="119,-395.5 232,-395.5 "/>
<text text-anchor="start" x="127" y="-383.5" font-family="Helvetica,sans-Serif" font-size="10.00">* begin()</text>
<text text-anchor="start" x="127" y="-372.5" font-family="Helvetica,sans-Serif" font-size="10.00">* update()</text>
<text text-anchor="start" x="127" y="-361.5" font-family="Helvetica,sans-Serif" font-size="10.00">* beginAll()</text>
<text text-anchor="start" x="127" y="-350.5" font-family="Helvetica,sans-Serif" font-size="10.00">* updateAll()</text>
</a>
</g>
</g>
<!-- Node3&#45;&gt;Node2 -->
<g id="edge2" class="edge">
<title>Node3&#45;&gt;Node2</title>
<path fill="none" stroke="midnightblue" d="M191.94,-333.81C202.71,-304.91 219,-269.98 241.5,-244 264.75,-217.16 297.21,-194.93 325.99,-178.55"/>
<polygon fill="none" stroke="midnightblue" points="188.6,-332.76 188.5,-343.36 195.19,-335.13 188.6,-332.76"/>
</g>
<!-- Node4 -->
<g id="node4" class="node">
<title>Node4</title>
<g id="a_node4"><a xlink:href="../../d8/d1a/classAH_1_1UpdatableCRTP.html" target="_top" xlink:title=" ">
<polygon fill="white" stroke="black" points="99,-570.5 99,-847.5 252,-847.5 252,-570.5 99,-570.5"/>
<text text-anchor="start" x="107" y="-835.5" font-family="Helvetica,sans-Serif" font-size="10.00">UpdatableCRTP&lt; Updatable</text>
<text text-anchor="start" x="107" y="-824.5" font-family="Helvetica,sans-Serif" font-size="10.00">&lt; NormalUpdatable, false</text>
<text text-anchor="middle" x="175.5" y="-813.5" font-family="Helvetica,sans-Serif" font-size="10.00"> &gt;, false &gt;</text>
<polyline fill="none" stroke="black" points="99,-806.5 252,-806.5 "/>
<text text-anchor="start" x="107" y="-794.5" font-family="Helvetica,sans-Serif" font-size="10.00"># mutex</text>
<polyline fill="none" stroke="black" points="99,-787.5 252,-787.5 "/>
<text text-anchor="start" x="107" y="-775.5" font-family="Helvetica,sans-Serif" font-size="10.00">+ ~UpdatableCRTP()</text>
<text text-anchor="start" x="107" y="-764.5" font-family="Helvetica,sans-Serif" font-size="10.00">+ getMutex()</text>
<text text-anchor="start" x="107" y="-753.5" font-family="Helvetica,sans-Serif" font-size="10.00"># UpdatableCRTP()</text>
<text text-anchor="start" x="107" y="-742.5" font-family="Helvetica,sans-Serif" font-size="10.00">* enable()</text>
<text text-anchor="start" x="107" y="-731.5" font-family="Helvetica,sans-Serif" font-size="10.00">* enable()</text>
<text text-anchor="start" x="107" y="-720.5" font-family="Helvetica,sans-Serif" font-size="10.00">* disable()</text>
<text text-anchor="start" x="107" y="-709.5" font-family="Helvetica,sans-Serif" font-size="10.00">* disable()</text>
<text text-anchor="start" x="107" y="-698.5" font-family="Helvetica,sans-Serif" font-size="10.00">* isEnabled()</text>
<text text-anchor="start" x="107" y="-687.5" font-family="Helvetica,sans-Serif" font-size="10.00">* isEnabled()</text>
<text text-anchor="start" x="107" y="-676.5" font-family="Helvetica,sans-Serif" font-size="10.00">* moveDown()</text>
<text text-anchor="start" x="107" y="-665.5" font-family="Helvetica,sans-Serif" font-size="10.00">* moveDown()</text>
<text text-anchor="start" x="107" y="-654.5" font-family="Helvetica,sans-Serif" font-size="10.00">* enable()</text>
<text text-anchor="start" x="107" y="-643.5" font-family="Helvetica,sans-Serif" font-size="10.00">* enable()</text>
<text text-anchor="start" x="107" y="-632.5" font-family="Helvetica,sans-Serif" font-size="10.00">* enable()</text>
<text text-anchor="start" x="107" y="-621.5" font-family="Helvetica,sans-Serif" font-size="10.00">* disable()</text>
<text text-anchor="start" x="107" y="-610.5" font-family="Helvetica,sans-Serif" font-size="10.00">* disable()</text>
<text text-anchor="start" x="107" y="-599.5" font-family="Helvetica,sans-Serif" font-size="10.00">* disable()</text>
<text text-anchor="start" x="107" y="-588.5" font-family="Helvetica,sans-Serif" font-size="10.00">* applyToAll()</text>
<text text-anchor="start" x="107" y="-577.5" font-family="Helvetica,sans-Serif" font-size="10.00">* applyToAll()</text>
</a>
</g>
</g>
<!-- Node4&#45;&gt;Node3 -->
<g id="edge3" class="edge">
<title>Node4&#45;&gt;Node3</title>
<path fill="none" stroke="midnightblue" d="M175.5,-560.05C175.5,-514.05 175.5,-466.78 175.5,-433.71"/>
<polygon fill="none" stroke="midnightblue" points="172,-560.15 175.5,-570.15 179,-560.15 172,-560.15"/>
</g>
<!-- Node5 -->
<g id="node5" class="node">
<title>Node5</title>
<g id="a_node5"><a xlink:href="../../d4/d23/classDoublyLinkable.html" target="_top" xlink:title=" ">
<polygon fill="white" stroke="black" points="0,-1011 0,-1090 167,-1090 167,-1011 0,-1011"/>
<text text-anchor="start" x="8" y="-1078" font-family="Helvetica,sans-Serif" font-size="10.00">DoublyLinkable&lt; Updatable</text>
<text text-anchor="middle" x="83.5" y="-1067" font-family="Helvetica,sans-Serif" font-size="10.00">&lt; NormalUpdatable, false &gt; &gt;</text>
<polyline fill="none" stroke="black" points="0,-1060 167,-1060 "/>
<text text-anchor="start" x="8" y="-1048" font-family="Helvetica,sans-Serif" font-size="10.00"># next</text>
<text text-anchor="start" x="8" y="-1037" font-family="Helvetica,sans-Serif" font-size="10.00"># previous</text>
<polyline fill="none" stroke="black" points="0,-1030 167,-1030 "/>
<text text-anchor="start" x="8" y="-1018" font-family="Helvetica,sans-Serif" font-size="10.00"># ~DoublyLinkable()</text>
</a>
</g>
</g>
<!-- Node5&#45;&gt;Node4 -->
<g id="edge4" class="edge">
<title>Node5&#45;&gt;Node4</title>
<path fill="none" stroke="midnightblue" d="M96.61,-1001.12C107.47,-961.06 123.45,-902.09 138.19,-847.68"/>
<polygon fill="none" stroke="midnightblue" points="93.2,-1000.32 93.96,-1010.89 99.96,-1002.15 93.2,-1000.32"/>
</g>
<!-- Node6 -->
<g id="node6" class="node">
<title>Node6</title>
<g id="a_node6"><a xlink:href="../../dd/d16/classDoublyLinkedList.html" target="_top" xlink:title=" ">
<polygon fill="white" stroke="black" points="185,-895.5 185,-1205.5 352,-1205.5 352,-895.5 185,-895.5"/>
<text text-anchor="start" x="193" y="-1193.5" font-family="Helvetica,sans-Serif" font-size="10.00">DoublyLinkedList&lt; Updatable</text>
<text text-anchor="middle" x="268.5" y="-1182.5" font-family="Helvetica,sans-Serif" font-size="10.00">&lt; NormalUpdatable, false &gt; &gt;</text>
<polyline fill="none" stroke="black" points="185,-1175.5 352,-1175.5 "/>
<text text-anchor="start" x="193" y="-1163.5" font-family="Helvetica,sans-Serif" font-size="10.00">&#45; first</text>
<text text-anchor="start" x="193" y="-1152.5" font-family="Helvetica,sans-Serif" font-size="10.00">&#45; last</text>
<polyline fill="none" stroke="black" points="185,-1145.5 352,-1145.5 "/>
<text text-anchor="start" x="193" y="-1133.5" font-family="Helvetica,sans-Serif" font-size="10.00">+ append()</text>
<text text-anchor="start" x="193" y="-1122.5" font-family="Helvetica,sans-Serif" font-size="10.00">+ append()</text>
<text text-anchor="start" x="193" y="-1111.5" font-family="Helvetica,sans-Serif" font-size="10.00">+ insertBefore()</text>
<text text-anchor="start" x="193" y="-1100.5" font-family="Helvetica,sans-Serif" font-size="10.00">+ insertBefore()</text>
<text text-anchor="start" x="193" y="-1089.5" font-family="Helvetica,sans-Serif" font-size="10.00">+ insertSorted()</text>
<text text-anchor="start" x="193" y="-1078.5" font-family="Helvetica,sans-Serif" font-size="10.00">+ insertSorted()</text>
<text text-anchor="start" x="193" y="-1067.5" font-family="Helvetica,sans-Serif" font-size="10.00">+ remove()</text>
<text text-anchor="start" x="193" y="-1056.5" font-family="Helvetica,sans-Serif" font-size="10.00">+ remove()</text>
<text text-anchor="start" x="193" y="-1045.5" font-family="Helvetica,sans-Serif" font-size="10.00">+ moveDown()</text>
<text text-anchor="start" x="193" y="-1034.5" font-family="Helvetica,sans-Serif" font-size="10.00">+ moveDown()</text>
<text text-anchor="start" x="193" y="-1023.5" font-family="Helvetica,sans-Serif" font-size="10.00">+ couldContain()</text>
<text text-anchor="start" x="193" y="-1012.5" font-family="Helvetica,sans-Serif" font-size="10.00">+ couldContain()</text>
<text text-anchor="start" x="193" y="-1001.5" font-family="Helvetica,sans-Serif" font-size="10.00">+ begin()</text>
<text text-anchor="start" x="193" y="-990.5" font-family="Helvetica,sans-Serif" font-size="10.00">+ begin()</text>
<text text-anchor="start" x="193" y="-979.5" font-family="Helvetica,sans-Serif" font-size="10.00">+ end()</text>
<text text-anchor="start" x="193" y="-968.5" font-family="Helvetica,sans-Serif" font-size="10.00">+ end()</text>
<text text-anchor="start" x="193" y="-957.5" font-family="Helvetica,sans-Serif" font-size="10.00">+ rbegin()</text>
<text text-anchor="start" x="193" y="-946.5" font-family="Helvetica,sans-Serif" font-size="10.00">+ rbegin()</text>
<text text-anchor="start" x="193" y="-935.5" font-family="Helvetica,sans-Serif" font-size="10.00">+ rend()</text>
<text text-anchor="start" x="193" y="-924.5" font-family="Helvetica,sans-Serif" font-size="10.00">+ rend()</text>
<text text-anchor="start" x="193" y="-913.5" font-family="Helvetica,sans-Serif" font-size="10.00">+ getFirst()</text>
<text text-anchor="start" x="193" y="-902.5" font-family="Helvetica,sans-Serif" font-size="10.00">+ getLast()</text>
</a>
</g>
</g>
<!-- Node6&#45;&gt;Node4 -->
<g id="edge5" class="edge">
<title>Node6&#45;&gt;Node4</title>
<path fill="none" stroke="#404040" d="M226.22,-895.15C222.96,-883.26 219.68,-871.27 216.43,-859.41"/>
<polygon fill="none" stroke="#404040" points="216.37,-859.18 210.92,-854.45 213.2,-847.61 218.64,-852.34 216.37,-859.18"/>
<text text-anchor="middle" x="252.5" y="-869" font-family="Helvetica,sans-Serif" font-size="10.00"> #updatables</text>
</g>
<!-- Node7 -->
<g id="node7" class="node">
<title>Node7</title>
<g id="a_node7"><a xlink:href="../../de/d0d/classAH_1_1Button.html" target="_top" xlink:title="A class for reading and debouncing buttons and switches.">
<polygon fill="white" stroke="black" points="250.5,-272 250.5,-505 388.5,-505 388.5,-272 250.5,-272"/>
<text text-anchor="middle" x="319.5" y="-493" font-family="Helvetica,sans-Serif" font-size="10.00">Button</text>
<polyline fill="none" stroke="black" points="250.5,-486 388.5,-486 "/>
<text text-anchor="start" x="258.5" y="-474" font-family="Helvetica,sans-Serif" font-size="10.00">&#45; pin</text>
<text text-anchor="start" x="258.5" y="-463" font-family="Helvetica,sans-Serif" font-size="10.00">&#45; prevInput</text>
<text text-anchor="start" x="258.5" y="-452" font-family="Helvetica,sans-Serif" font-size="10.00">&#45; debouncedState</text>
<text text-anchor="start" x="258.5" y="-441" font-family="Helvetica,sans-Serif" font-size="10.00">&#45; prevBounceTime</text>
<text text-anchor="start" x="258.5" y="-430" font-family="Helvetica,sans-Serif" font-size="10.00">&#45; invertState</text>
<text text-anchor="start" x="258.5" y="-419" font-family="Helvetica,sans-Serif" font-size="10.00">&#45; debounceTime</text>
<polyline fill="none" stroke="black" points="250.5,-412 388.5,-412 "/>
<text text-anchor="start" x="258.5" y="-400" font-family="Helvetica,sans-Serif" font-size="10.00">+ Button()</text>
<text text-anchor="start" x="258.5" y="-389" font-family="Helvetica,sans-Serif" font-size="10.00">+ Button()</text>
<text text-anchor="start" x="258.5" y="-378" font-family="Helvetica,sans-Serif" font-size="10.00">+ begin()</text>
<text text-anchor="start" x="258.5" y="-367" font-family="Helvetica,sans-Serif" font-size="10.00">+ invert()</text>
<text text-anchor="start" x="258.5" y="-356" font-family="Helvetica,sans-Serif" font-size="10.00">+ update()</text>
<text text-anchor="start" x="258.5" y="-345" font-family="Helvetica,sans-Serif" font-size="10.00">+ getState()</text>
<text text-anchor="start" x="258.5" y="-334" font-family="Helvetica,sans-Serif" font-size="10.00">+ previousBounceTime()</text>
<text text-anchor="start" x="258.5" y="-323" font-family="Helvetica,sans-Serif" font-size="10.00">+ stableTime()</text>
<text text-anchor="start" x="258.5" y="-312" font-family="Helvetica,sans-Serif" font-size="10.00">+ stableTime()</text>
<text text-anchor="start" x="258.5" y="-301" font-family="Helvetica,sans-Serif" font-size="10.00">+ getName()</text>
<text text-anchor="start" x="258.5" y="-290" font-family="Helvetica,sans-Serif" font-size="10.00">+ setDebounceTime()</text>
<text text-anchor="start" x="258.5" y="-279" font-family="Helvetica,sans-Serif" font-size="10.00">+ getDebounceTime()</text>
</a>
</g>
</g>
<!-- Node7&#45;&gt;Node2 -->
<g id="edge6" class="edge">
<title>Node7&#45;&gt;Node2</title>
<path fill="none" stroke="#404040" d="M354.13,-271.83C360.69,-249.91 367.32,-227.78 373.13,-208.37"/>
<polygon fill="none" stroke="#404040" points="373.19,-208.16 371.08,-201.26 376.63,-196.66 378.74,-203.56 373.19,-208.16"/>
<text text-anchor="middle" x="390" y="-218" font-family="Helvetica,sans-Serif" font-size="10.00"> &#45;button</text>
</g>
<!-- Node8 -->
<g id="node8" class="node">
<title>Node8</title>
<g id="a_node8"><a xlink:href="../../d5/db5/classDigitalCCSender.html" target="_top" xlink:title="Class that sends MIDI control change messages signifying either &quot;on&quot; or &quot;off&quot;.">
<polygon fill="white" stroke="black" points="407,-321.5 407,-455.5 522,-455.5 522,-321.5 407,-321.5"/>
<text text-anchor="middle" x="464.5" y="-443.5" font-family="Helvetica,sans-Serif" font-size="10.00">DigitalCCSender</text>
<polyline fill="none" stroke="black" points="407,-436.5 522,-436.5 "/>
<text text-anchor="start" x="415" y="-424.5" font-family="Helvetica,sans-Serif" font-size="10.00">&#45; onValue</text>
<text text-anchor="start" x="415" y="-413.5" font-family="Helvetica,sans-Serif" font-size="10.00">&#45; offValue</text>
<polyline fill="none" stroke="black" points="407,-406.5 522,-406.5 "/>
<text text-anchor="start" x="415" y="-394.5" font-family="Helvetica,sans-Serif" font-size="10.00">+ DigitalCCSender()</text>
<text text-anchor="start" x="415" y="-383.5" font-family="Helvetica,sans-Serif" font-size="10.00">+ sendOn()</text>
<text text-anchor="start" x="415" y="-372.5" font-family="Helvetica,sans-Serif" font-size="10.00">+ sendOff()</text>
<text text-anchor="start" x="415" y="-361.5" font-family="Helvetica,sans-Serif" font-size="10.00">+ getOnValue()</text>
<text text-anchor="start" x="415" y="-350.5" font-family="Helvetica,sans-Serif" font-size="10.00">+ setOnValue()</text>
<text text-anchor="start" x="415" y="-339.5" font-family="Helvetica,sans-Serif" font-size="10.00">+ getOffValue()</text>
<text text-anchor="start" x="415" y="-328.5" font-family="Helvetica,sans-Serif" font-size="10.00">+ setOffValue()</text>
</a>
</g>
</g>
<!-- Node8&#45;&gt;Node2 -->
<g id="edge7" class="edge">
<title>Node8&#45;&gt;Node2</title>
<path fill="none" stroke="#404040" d="M445.4,-321.44C435.98,-289.27 424.35,-250.05 413.5,-215 412.81,-212.78 412.11,-210.52 411.39,-208.23"/>
<polygon fill="none" stroke="#404040" points="411.37,-208.16 405.74,-203.65 407.75,-196.72 413.37,-201.23 411.37,-208.16"/>
<text text-anchor="middle" x="439" y="-218" font-family="Helvetica,sans-Serif" font-size="10.00"> +sender</text>
</g>
<!-- Node9 -->
<g id="node9" class="node">
<title>Node9</title>
<g id="a_node9"><a xlink:href="../../d7/d0f/classMIDIAddress.html" target="_top" xlink:title="A type&#45;safe utility class for saving a MIDI address consisting of a 7&#45;bit address,...">
<polygon fill="white" stroke="black" points="540.5,-244.5 540.5,-532.5 682.5,-532.5 682.5,-244.5 540.5,-244.5"/>
<text text-anchor="middle" x="611.5" y="-520.5" font-family="Helvetica,sans-Serif" font-size="10.00">MIDIAddress</text>
<polyline fill="none" stroke="black" points="540.5,-513.5 682.5,-513.5 "/>
<text text-anchor="start" x="548.5" y="-501.5" font-family="Helvetica,sans-Serif" font-size="10.00">&#45; addresses</text>
<polyline fill="none" stroke="black" points="540.5,-494.5 682.5,-494.5 "/>
<text text-anchor="start" x="548.5" y="-482.5" font-family="Helvetica,sans-Serif" font-size="10.00">* MIDIAddress()</text>
<text text-anchor="start" x="548.5" y="-471.5" font-family="Helvetica,sans-Serif" font-size="10.00">* MIDIAddress()</text>
<text text-anchor="start" x="548.5" y="-460.5" font-family="Helvetica,sans-Serif" font-size="10.00">* MIDIAddress()</text>
<text text-anchor="start" x="548.5" y="-449.5" font-family="Helvetica,sans-Serif" font-size="10.00">* MIDIAddress()</text>
<text text-anchor="start" x="548.5" y="-438.5" font-family="Helvetica,sans-Serif" font-size="10.00">* MIDIAddress()</text>
<text text-anchor="start" x="548.5" y="-427.5" font-family="Helvetica,sans-Serif" font-size="10.00">* MIDIAddress()</text>
<text text-anchor="start" x="548.5" y="-416.5" font-family="Helvetica,sans-Serif" font-size="10.00">* invalid()</text>
<text text-anchor="start" x="548.5" y="-405.5" font-family="Helvetica,sans-Serif" font-size="10.00">* operator+=()</text>
<text text-anchor="start" x="548.5" y="-394.5" font-family="Helvetica,sans-Serif" font-size="10.00">* operator&#45;=()</text>
<text text-anchor="start" x="548.5" y="-383.5" font-family="Helvetica,sans-Serif" font-size="10.00">* operator+()</text>
<text text-anchor="start" x="548.5" y="-372.5" font-family="Helvetica,sans-Serif" font-size="10.00">* operator&#45;()</text>
<text text-anchor="start" x="548.5" y="-361.5" font-family="Helvetica,sans-Serif" font-size="10.00">* getAddress()</text>
<text text-anchor="start" x="548.5" y="-350.5" font-family="Helvetica,sans-Serif" font-size="10.00">* getChannel()</text>
<text text-anchor="start" x="548.5" y="-339.5" font-family="Helvetica,sans-Serif" font-size="10.00">* getRawChannel()</text>
<text text-anchor="start" x="548.5" y="-328.5" font-family="Helvetica,sans-Serif" font-size="10.00">* getCableNumber()</text>
<text text-anchor="start" x="548.5" y="-317.5" font-family="Helvetica,sans-Serif" font-size="10.00">* getRawCableNumber()</text>
<text text-anchor="start" x="548.5" y="-306.5" font-family="Helvetica,sans-Serif" font-size="10.00">* operator==()</text>
<text text-anchor="start" x="548.5" y="-295.5" font-family="Helvetica,sans-Serif" font-size="10.00">* operator!=()</text>
<text text-anchor="start" x="548.5" y="-284.5" font-family="Helvetica,sans-Serif" font-size="10.00">* isValid()</text>
<text text-anchor="start" x="548.5" y="-273.5" font-family="Helvetica,sans-Serif" font-size="10.00">* operator bool()</text>
<text text-anchor="start" x="548.5" y="-262.5" font-family="Helvetica,sans-Serif" font-size="10.00">* matchSingle()</text>
<text text-anchor="start" x="548.5" y="-251.5" font-family="Helvetica,sans-Serif" font-size="10.00">* matchAddressInRange()</text>
</a>
</g>
</g>
<!-- Node9&#45;&gt;Node2 -->
<g id="edge8" class="edge">
<title>Node9&#45;&gt;Node2</title>
<path fill="none" stroke="#404040" d="M540.48,-254.52C537.56,-250.9 534.57,-247.38 531.5,-244 513.15,-223.77 489.82,-205.52 467.49,-190.44"/>
<polygon fill="none" stroke="#404040" points="467.34,-190.34 460.13,-190.38 457.32,-183.74 464.53,-183.7 467.34,-190.34"/>
<text text-anchor="middle" x="534.5" y="-218" font-family="Helvetica,sans-Serif" font-size="10.00"> &#45;address</text>
</g>
</g>
</svg>
