<?xml version="1.0" encoding="UTF-8" standalone="no"?>
<!DOCTYPE svg PUBLIC "-//W3C//DTD SVG 1.1//EN"
 "http://www.w3.org/Graphics/SVG/1.1/DTD/svg11.dtd">
<!-- Generated by graphviz version 2.43.0 (0)
 -->
<!-- Title: PrintStream.hpp Pages: 1 -->
<svg width="681pt" height="247pt"
 viewBox="0.00 0.00 681.09 247.00" xmlns="http://www.w3.org/2000/svg" xmlns:xlink="http://www.w3.org/1999/xlink">
<g id="graph0" class="graph" transform="scale(1 1) rotate(0) translate(4 243)">
<title>PrintStream.hpp</title>
<!-- Node1 -->
<g id="Node000001" class="node">
<title>Node1</title>
<g id="a_Node000001"><a xlink:title=" ">
<polygon fill="#999999" stroke="#666666" points="390.59,-239 295.59,-239 295.59,-220 390.59,-220 390.59,-239"/>
<text text-anchor="middle" x="343.09" y="-227" font-family="Helvetica,sans-Serif" font-size="10.00">PrintStream.hpp</text>
</a>
</g>
</g>
<!-- Node2 -->
<g id="Node000002" class="node">
<title>Node2</title>
<g id="a_Node000002"><a xlink:href="../../d6/db0/AH_2Settings_2NamespaceSettings_8hpp.html" target="_top" xlink:title=" ">
<polygon fill="white" stroke="#666666" points="212.59,-74 17.59,-74 17.59,-55 212.59,-55 212.59,-74"/>
<text text-anchor="middle" x="115.09" y="-62" font-family="Helvetica,sans-Serif" font-size="10.00">AH/Settings/NamespaceSettings.hpp</text>
</a>
</g>
</g>
<!-- Node1&#45;&gt;Node2 -->
<g id="edge1_Node000001_Node000002" class="edge">
<title>Node1&#45;&gt;Node2</title>
<g id="a_edge1_Node000001_Node000002"><a xlink:title=" ">
<path fill="none" stroke="#63b8ff" d="M333.21,-219.94C309.63,-199.69 247.85,-147.71 192.09,-110 175.35,-98.68 155.61,-87.31 140.31,-78.89"/>
<polygon fill="#63b8ff" stroke="#63b8ff" points="141.88,-75.76 131.42,-74.06 138.53,-81.91 141.88,-75.76"/>
</a>
</g>
</g>
<!-- Node3 -->
<g id="Node000003" class="node">
<title>Node3</title>
<g id="a_Node000003"><a xlink:href="../../d1/d65/Warnings_8hpp.html" target="_top" xlink:title=" ">
<polygon fill="white" stroke="#666666" points="500.59,-19 357.59,-19 357.59,0 500.59,0 500.59,-19"/>
<text text-anchor="middle" x="429.09" y="-7" font-family="Helvetica,sans-Serif" font-size="10.00">AH/Settings/Warnings.hpp</text>
</a>
</g>
</g>
<!-- Node1&#45;&gt;Node3 -->
<g id="edge2_Node000001_Node000003" class="edge">
<title>Node1&#45;&gt;Node3</title>
<g id="a_edge2_Node000001_Node000003"><a xlink:title=" ">
<path fill="none" stroke="#63b8ff" d="M350.09,-219.8C367.64,-197.34 413.28,-134.91 429.09,-74 432.86,-59.46 432.62,-42.4 431.56,-29.63"/>
<polygon fill="#63b8ff" stroke="#63b8ff" points="435,-28.87 430.46,-19.3 428.04,-29.62 435,-28.87"/>
</a>
</g>
</g>
<!-- Node4 -->
<g id="Node000004" class="node">
<title>Node4</title>
<g id="a_Node000004"><a xlink:href="../../d6/ddf/Arduino-Wrapper_8h.html" target="_top" xlink:title=" ">
<polygon fill="white" stroke="#666666" points="192.09,-184 68.09,-184 68.09,-165 192.09,-165 192.09,-184"/>
<text text-anchor="middle" x="130.09" y="-172" font-family="Helvetica,sans-Serif" font-size="10.00">AH/Arduino&#45;Wrapper.h</text>
</a>
</g>
</g>
<!-- Node1&#45;&gt;Node4 -->
<g id="edge3_Node000001_Node000004" class="edge">
<title>Node1&#45;&gt;Node4</title>
<g id="a_edge3_Node000001_Node000004"><a xlink:title=" ">
<path fill="none" stroke="#63b8ff" d="M308.87,-219.98C272.33,-210.89 214.31,-196.46 174.33,-186.51"/>
<polygon fill="#63b8ff" stroke="#63b8ff" points="175.13,-183.1 164.58,-184.08 173.44,-189.89 175.13,-183.1"/>
</a>
</g>
</g>
<!-- Node9 -->
<g id="Node000009" class="node">
<title>Node9</title>
<g id="a_Node000009"><a xlink:title=" ">
<polygon fill="#e0e0e0" stroke="#999999" points="673.09,-184 495.09,-184 495.09,-165 673.09,-165 673.09,-184"/>
<text text-anchor="middle" x="584.09" y="-172" font-family="Helvetica,sans-Serif" font-size="10.00">Settings/NamespaceSettings.hpp</text>
</a>
</g>
</g>
<!-- Node1&#45;&gt;Node9 -->
<g id="edge12_Node000001_Node000009" class="edge">
<title>Node1&#45;&gt;Node9</title>
<g id="a_edge12_Node000001_Node000009"><a xlink:title=" ">
<path fill="none" stroke="#63b8ff" d="M381.81,-219.98C423.5,-210.82 489.91,-196.21 535.18,-186.26"/>
<polygon fill="#63b8ff" stroke="#63b8ff" points="536.05,-189.65 545.06,-184.08 534.55,-182.81 536.05,-189.65"/>
</a>
</g>
</g>
<!-- Node5 -->
<g id="Node000005" class="node">
<title>Node5</title>
<g id="a_Node000005"><a xlink:href="../../d7/d79/MinMaxFix_8hpp.html" target="_top" xlink:title=" ">
<polygon fill="white" stroke="#666666" points="384.09,-129 248.09,-129 248.09,-110 384.09,-110 384.09,-129"/>
<text text-anchor="middle" x="316.09" y="-117" font-family="Helvetica,sans-Serif" font-size="10.00">AH/Math/MinMaxFix.hpp</text>
</a>
</g>
</g>
<!-- Node4&#45;&gt;Node5 -->
<g id="edge4_Node000004_Node000005" class="edge">
<title>Node4&#45;&gt;Node5</title>
<g id="a_edge4_Node000004_Node000005"><a xlink:title=" ">
<path fill="none" stroke="#63b8ff" d="M159.97,-164.98C191.47,-156.01 241.26,-141.82 276.12,-131.89"/>
<polygon fill="#63b8ff" stroke="#63b8ff" points="277.31,-135.19 285.97,-129.08 275.39,-128.46 277.31,-135.19"/>
</a>
</g>
</g>
<!-- Node7 -->
<g id="Node000007" class="node">
<title>Node7</title>
<g id="a_Node000007"><a xlink:title=" ">
<polygon fill="#e0e0e0" stroke="#999999" points="180.59,-19 117.59,-19 117.59,0 180.59,0 180.59,-19"/>
<text text-anchor="middle" x="149.09" y="-7" font-family="Helvetica,sans-Serif" font-size="10.00">Arduino.h</text>
</a>
</g>
</g>
<!-- Node4&#45;&gt;Node7 -->
<g id="edge11_Node000004_Node000007" class="edge">
<title>Node4&#45;&gt;Node7</title>
<g id="a_edge11_Node000004_Node000007"><a xlink:title=" ">
<path fill="none" stroke="#63b8ff" d="M108.16,-164.99C64.48,-146.8 -26.3,-101.91 8.09,-55 30.61,-24.27 74.42,-14.21 107.26,-11.19"/>
<polygon fill="#63b8ff" stroke="#63b8ff" points="107.78,-14.66 117.49,-10.44 107.26,-7.68 107.78,-14.66"/>
</a>
</g>
</g>
<!-- Node8 -->
<g id="Node000008" class="node">
<title>Node8</title>
<g id="a_Node000008"><a xlink:title=" ">
<polygon fill="#e0e0e0" stroke="#999999" points="183.59,-129 76.59,-129 76.59,-110 183.59,-110 183.59,-129"/>
<text text-anchor="middle" x="130.09" y="-117" font-family="Helvetica,sans-Serif" font-size="10.00">AH/STL/type_traits</text>
</a>
</g>
</g>
<!-- Node4&#45;&gt;Node8 -->
<g id="edge10_Node000004_Node000008" class="edge">
<title>Node4&#45;&gt;Node8</title>
<g id="a_edge10_Node000004_Node000008"><a xlink:title=" ">
<path fill="none" stroke="#63b8ff" d="M130.09,-164.75C130.09,-157.8 130.09,-147.85 130.09,-139.13"/>
<polygon fill="#63b8ff" stroke="#63b8ff" points="133.59,-139.09 130.09,-129.09 126.59,-139.09 133.59,-139.09"/>
</a>
</g>
</g>
<!-- Node5&#45;&gt;Node2 -->
<g id="edge9_Node000005_Node000002" class="edge">
<title>Node5&#45;&gt;Node2</title>
<g id="a_edge9_Node000005_Node000002"><a xlink:title=" ">
<path fill="none" stroke="#63b8ff" d="M283.79,-109.98C249.46,-100.93 195.03,-86.58 157.32,-76.64"/>
<polygon fill="#63b8ff" stroke="#63b8ff" points="158.2,-73.25 147.64,-74.08 156.41,-80.02 158.2,-73.25"/>
</a>
</g>
</g>
<!-- Node5&#45;&gt;Node3 -->
<g id="edge5_Node000005_Node000003" class="edge">
<title>Node5&#45;&gt;Node3</title>
<g id="a_edge5_Node000005_Node000003"><a xlink:title=" ">
<path fill="none" stroke="#63b8ff" d="M350.41,-109.87C370.42,-103.17 394.68,-91.94 410.09,-74 420.75,-61.59 425.43,-43.38 427.48,-29.63"/>
<polygon fill="#63b8ff" stroke="#63b8ff" points="431,-29.7 428.66,-19.37 424.04,-28.9 431,-29.7"/>
</a>
</g>
</g>
<!-- Node6 -->
<g id="Node000006" class="node">
<title>Node6</title>
<g id="a_Node000006"><a xlink:href="../../d6/d3b/FixArduinoMacros_8hpp.html" target="_top" xlink:title=" ">
<polygon fill="white" stroke="#666666" points="401.09,-74 231.09,-74 231.09,-55 401.09,-55 401.09,-74"/>
<text text-anchor="middle" x="316.09" y="-62" font-family="Helvetica,sans-Serif" font-size="10.00">AH/Math/FixArduinoMacros.hpp</text>
</a>
</g>
</g>
<!-- Node5&#45;&gt;Node6 -->
<g id="edge6_Node000005_Node000006" class="edge">
<title>Node5&#45;&gt;Node6</title>
<g id="a_edge6_Node000005_Node000006"><a xlink:title=" ">
<path fill="none" stroke="#63b8ff" d="M316.09,-109.75C316.09,-102.8 316.09,-92.85 316.09,-84.13"/>
<polygon fill="#63b8ff" stroke="#63b8ff" points="319.59,-84.09 316.09,-74.09 312.59,-84.09 319.59,-84.09"/>
</a>
</g>
</g>
<!-- Node6&#45;&gt;Node3 -->
<g id="edge7_Node000006_Node000003" class="edge">
<title>Node6&#45;&gt;Node3</title>
<g id="a_edge7_Node000006_Node000003"><a xlink:title=" ">
<path fill="none" stroke="#63b8ff" d="M334.24,-54.98C352.34,-46.5 380.37,-33.35 401.28,-23.54"/>
<polygon fill="#63b8ff" stroke="#63b8ff" points="403.04,-26.59 410.6,-19.17 400.06,-20.25 403.04,-26.59"/>
</a>
</g>
</g>
<!-- Node6&#45;&gt;Node7 -->
<g id="edge8_Node000006_Node000007" class="edge">
<title>Node6&#45;&gt;Node7</title>
<g id="a_edge8_Node000006_Node000007"><a xlink:title=" ">
<path fill="none" stroke="#63b8ff" d="M289.26,-54.98C261.22,-46.09 217.04,-32.07 185.79,-22.15"/>
<polygon fill="#63b8ff" stroke="#63b8ff" points="186.72,-18.77 176.13,-19.08 184.6,-25.44 186.72,-18.77"/>
</a>
</g>
</g>
</g>
</svg>
