<?xml version="1.0" encoding="UTF-8" standalone="no"?>
<!DOCTYPE svg PUBLIC "-//W3C//DTD SVG 1.1//EN"
 "http://www.w3.org/Graphics/SVG/1.1/DTD/svg11.dtd">
<!-- Generated by graphviz version 2.43.0 (0)
 -->
<!-- Title: MIDIOutputElement.hpp Pages: 1 -->
<svg width="1445pt" height="819pt"
 viewBox="0.00 0.00 1444.53 819.00" xmlns="http://www.w3.org/2000/svg" xmlns:xlink="http://www.w3.org/1999/xlink">
<g id="graph0" class="graph" transform="scale(1 1) rotate(0) translate(4 815)">
<title>MIDIOutputElement.hpp</title>
<!-- Node1 -->
<g id="Node000001" class="node">
<title>Node1</title>
<g id="a_Node000001"><a xlink:title=" ">
<polygon fill="#999999" stroke="#666666" points="841.53,-811 707.53,-811 707.53,-792 841.53,-792 841.53,-811"/>
<text text-anchor="middle" x="774.53" y="-799" font-family="Helvetica,sans-Serif" font-size="10.00">MIDIOutputElement.hpp</text>
</a>
</g>
</g>
<!-- Node2 -->
<g id="Node000002" class="node">
<title>Node2</title>
<g id="a_Node000002"><a xlink:href="../../d4/d93/Updatable_8hpp.html" target="_top" xlink:title=" ">
<polygon fill="white" stroke="#666666" points="411.03,-514 250.03,-514 250.03,-495 411.03,-495 411.03,-514"/>
<text text-anchor="middle" x="330.53" y="-502" font-family="Helvetica,sans-Serif" font-size="10.00">AH/Containers/Updatable.hpp</text>
</a>
</g>
</g>
<!-- Node1&#45;&gt;Node2 -->
<g id="edge1_Node000001_Node000002" class="edge">
<title>Node1&#45;&gt;Node2</title>
<g id="a_edge1_Node000001_Node000002"><a xlink:title=" ">
<path fill="none" stroke="#63b8ff" d="M761.22,-791.83C747.5,-782.89 725.49,-768.52 706.53,-756 571.37,-666.75 409.61,-558.49 352.11,-519.96"/>
<polygon fill="#63b8ff" stroke="#63b8ff" points="353.75,-516.85 343.5,-514.19 349.86,-522.67 353.75,-516.85"/>
</a>
</g>
</g>
<!-- Node28 -->
<g id="Node000028" class="node">
<title>Node28</title>
<g id="a_Node000028"><a xlink:href="../../d0/d4e/Def_8hpp.html" target="_top" xlink:title=" ">
<polygon fill="white" stroke="#666666" points="899.53,-701 825.53,-701 825.53,-682 899.53,-682 899.53,-701"/>
<text text-anchor="middle" x="862.53" y="-689" font-family="Helvetica,sans-Serif" font-size="10.00">Def/Def.hpp</text>
</a>
</g>
</g>
<!-- Node1&#45;&gt;Node28 -->
<g id="edge40_Node000001_Node000028" class="edge">
<title>Node1&#45;&gt;Node28</title>
<g id="a_edge40_Node000001_Node000028"><a xlink:title=" ">
<path fill="none" stroke="#63b8ff" d="M795.2,-791.98C810.63,-784.61 831.12,-772.52 843.53,-756 853.36,-742.92 858.13,-724.78 860.44,-711.24"/>
<polygon fill="#63b8ff" stroke="#63b8ff" points="863.93,-711.54 861.84,-701.15 856.99,-710.57 863.93,-711.54"/>
</a>
</g>
</g>
<!-- Node38 -->
<g id="Node000038" class="node">
<title>Node38</title>
<g id="a_Node000038"><a xlink:href="../../db/dd6/MIDIAddress_8hpp.html" target="_top" xlink:title=" ">
<polygon fill="white" stroke="#666666" points="834.03,-756 715.03,-756 715.03,-737 834.03,-737 834.03,-756"/>
<text text-anchor="middle" x="774.53" y="-744" font-family="Helvetica,sans-Serif" font-size="10.00">Def/MIDIAddress.hpp</text>
</a>
</g>
</g>
<!-- Node1&#45;&gt;Node38 -->
<g id="edge70_Node000001_Node000038" class="edge">
<title>Node1&#45;&gt;Node38</title>
<g id="a_edge70_Node000001_Node000038"><a xlink:title=" ">
<path fill="none" stroke="#63b8ff" d="M774.53,-791.75C774.53,-784.8 774.53,-774.85 774.53,-766.13"/>
<polygon fill="#63b8ff" stroke="#63b8ff" points="778.03,-766.09 774.53,-756.09 771.03,-766.09 778.03,-766.09"/>
</a>
</g>
</g>
<!-- Node3 -->
<g id="Node000003" class="node">
<title>Node3</title>
<g id="a_Node000003"><a xlink:href="../../d4/dba/CRTP_8hpp.html" target="_top" xlink:title=" ">
<polygon fill="white" stroke="#666666" points="283.53,-459 149.53,-459 149.53,-440 283.53,-440 283.53,-459"/>
<text text-anchor="middle" x="216.53" y="-447" font-family="Helvetica,sans-Serif" font-size="10.00">AH/Containers/CRTP.hpp</text>
</a>
</g>
</g>
<!-- Node2&#45;&gt;Node3 -->
<g id="edge2_Node000002_Node000003" class="edge">
<title>Node2&#45;&gt;Node3</title>
<g id="a_edge2_Node000002_Node000003"><a xlink:title=" ">
<path fill="none" stroke="#63b8ff" d="M312.22,-494.98C293.88,-486.46 265.42,-473.23 244.31,-463.41"/>
<polygon fill="#63b8ff" stroke="#63b8ff" points="245.73,-460.21 235.18,-459.17 242.78,-466.56 245.73,-460.21"/>
</a>
</g>
</g>
<!-- Node4 -->
<g id="Node000004" class="node">
<title>Node4</title>
<g id="a_Node000004"><a xlink:href="../../de/dd1/LinkedList_8hpp.html" target="_top" xlink:title=" ">
<polygon fill="white" stroke="#666666" points="536.03,-459 377.03,-459 377.03,-440 536.03,-440 536.03,-459"/>
<text text-anchor="middle" x="456.53" y="-447" font-family="Helvetica,sans-Serif" font-size="10.00">AH/Containers/LinkedList.hpp</text>
</a>
</g>
</g>
<!-- Node2&#45;&gt;Node4 -->
<g id="edge3_Node000002_Node000004" class="edge">
<title>Node2&#45;&gt;Node4</title>
<g id="a_edge3_Node000002_Node000004"><a xlink:title=" ">
<path fill="none" stroke="#63b8ff" d="M350.78,-494.98C371.23,-486.38 403.07,-472.99 426.47,-463.15"/>
<polygon fill="#63b8ff" stroke="#63b8ff" points="428.06,-466.27 435.92,-459.17 425.35,-459.82 428.06,-466.27"/>
</a>
</g>
</g>
<!-- Node13 -->
<g id="Node000013" class="node">
<title>Node13</title>
<g id="a_Node000013"><a xlink:title=" ">
<polygon fill="#e0e0e0" stroke="#999999" points="1027.03,-129 920.03,-129 920.03,-110 1027.03,-110 1027.03,-129"/>
<text text-anchor="middle" x="973.53" y="-117" font-family="Helvetica,sans-Serif" font-size="10.00">AH/STL/type_traits</text>
</a>
</g>
</g>
<!-- Node2&#45;&gt;Node13 -->
<g id="edge36_Node000002_Node000013" class="edge">
<title>Node2&#45;&gt;Node13</title>
<g id="a_edge36_Node000002_Node000013"><a xlink:title=" ">
<path fill="none" stroke="#63b8ff" d="M394.32,-494.93C437.75,-487.98 496.11,-476.44 545.53,-459 562.97,-452.85 565.09,-446.11 582.53,-440 725.31,-389.98 806.86,-459.17 910.53,-349 930.72,-327.55 929.53,-314.96 929.53,-285.5 929.53,-285.5 929.53,-285.5 929.53,-228.5 929.53,-194.42 948.56,-158.46 961.59,-137.83"/>
<polygon fill="#63b8ff" stroke="#63b8ff" points="964.66,-139.53 967.23,-129.25 958.81,-135.68 964.66,-139.53"/>
</a>
</g>
</g>
<!-- Node15 -->
<g id="Node000015" class="node">
<title>Node15</title>
<g id="a_Node000015"><a xlink:href="../../de/dd1/AH_2Settings_2SettingsWrapper_8hpp.html" target="_top" xlink:title=" ">
<polygon fill="white" stroke="#666666" points="493.53,-349 315.53,-349 315.53,-330 493.53,-330 493.53,-349"/>
<text text-anchor="middle" x="404.53" y="-337" font-family="Helvetica,sans-Serif" font-size="10.00">AH/Settings/SettingsWrapper.hpp</text>
</a>
</g>
</g>
<!-- Node2&#45;&gt;Node15 -->
<g id="edge38_Node000002_Node000015" class="edge">
<title>Node2&#45;&gt;Node15</title>
<g id="a_edge38_Node000002_Node000015"><a xlink:title=" ">
<path fill="none" stroke="#63b8ff" d="M334.51,-494.74C346.16,-469.09 380.34,-393.78 396.24,-358.78"/>
<polygon fill="#63b8ff" stroke="#63b8ff" points="399.59,-359.86 400.54,-349.31 393.22,-356.97 399.59,-359.86"/>
</a>
</g>
</g>
<!-- Node20 -->
<g id="Node000020" class="node">
<title>Node20</title>
<g id="a_Node000020"><a xlink:title=" ">
<polygon fill="#e0e0e0" stroke="#999999" points="590.53,-239 534.53,-239 534.53,-220 590.53,-220 590.53,-239"/>
<text text-anchor="middle" x="562.53" y="-227" font-family="Helvetica,sans-Serif" font-size="10.00">stddef.h</text>
</a>
</g>
</g>
<!-- Node2&#45;&gt;Node20 -->
<g id="edge39_Node000002_Node000020" class="edge">
<title>Node2&#45;&gt;Node20</title>
<g id="a_edge39_Node000002_Node000020"><a xlink:title=" ">
<path fill="none" stroke="#63b8ff" d="M327.78,-494.94C319.37,-469.27 292.73,-390.87 261.53,-330 249.45,-306.42 221.12,-294.97 238.53,-275 243.21,-269.63 439.56,-245.35 524.28,-235.09"/>
<polygon fill="#63b8ff" stroke="#63b8ff" points="524.77,-238.56 534.27,-233.88 523.93,-231.61 524.77,-238.56"/>
</a>
</g>
</g>
<!-- Node26 -->
<g id="Node000026" class="node">
<title>Node26</title>
<g id="a_Node000026"><a xlink:href="../../d1/d93/Error_8hpp.html" target="_top" xlink:title=" ">
<polygon fill="white" stroke="#666666" points="695.53,-459 591.53,-459 591.53,-440 695.53,-440 695.53,-459"/>
<text text-anchor="middle" x="643.53" y="-447" font-family="Helvetica,sans-Serif" font-size="10.00">AH/Error/Error.hpp</text>
</a>
</g>
</g>
<!-- Node2&#45;&gt;Node26 -->
<g id="edge34_Node000002_Node000026" class="edge">
<title>Node2&#45;&gt;Node26</title>
<g id="a_edge34_Node000002_Node000026"><a xlink:title=" ">
<path fill="none" stroke="#63b8ff" d="M380.82,-494.98C435.96,-485.65 524.39,-470.67 583.21,-460.71"/>
<polygon fill="#63b8ff" stroke="#63b8ff" points="583.84,-464.16 593.11,-459.04 582.67,-457.26 583.84,-464.16"/>
</a>
</g>
</g>
<!-- Node27 -->
<g id="Node000027" class="node">
<title>Node27</title>
<g id="a_Node000027"><a xlink:title=" ">
<polygon fill="#e0e0e0" stroke="#999999" points="131.03,-459 48.03,-459 48.03,-440 131.03,-440 131.03,-459"/>
<text text-anchor="middle" x="89.53" y="-447" font-family="Helvetica,sans-Serif" font-size="10.00">AH/STL/utility</text>
</a>
</g>
</g>
<!-- Node2&#45;&gt;Node27 -->
<g id="edge37_Node000002_Node000027" class="edge">
<title>Node2&#45;&gt;Node27</title>
<g id="a_edge37_Node000002_Node000027"><a xlink:title=" ">
<path fill="none" stroke="#63b8ff" d="M291.81,-494.98C250.13,-485.82 183.71,-471.21 138.45,-461.26"/>
<polygon fill="#63b8ff" stroke="#63b8ff" points="139.08,-457.81 128.56,-459.08 137.57,-464.65 139.08,-457.81"/>
</a>
</g>
</g>
<!-- Node5 -->
<g id="Node000005" class="node">
<title>Node5</title>
<g id="a_Node000005"><a xlink:href="../../df/dee/Debug_8hpp.html" target="_top" xlink:title=" ">
<polygon fill="white" stroke="#666666" points="605.03,-404 484.03,-404 484.03,-385 605.03,-385 605.03,-404"/>
<text text-anchor="middle" x="544.53" y="-392" font-family="Helvetica,sans-Serif" font-size="10.00">AH/Debug/Debug.hpp</text>
</a>
</g>
</g>
<!-- Node4&#45;&gt;Node5 -->
<g id="edge4_Node000004_Node000005" class="edge">
<title>Node4&#45;&gt;Node5</title>
<g id="a_edge4_Node000004_Node000005"><a xlink:title=" ">
<path fill="none" stroke="#63b8ff" d="M470.67,-439.98C484.32,-431.77 505.22,-419.18 521.31,-409.49"/>
<polygon fill="#63b8ff" stroke="#63b8ff" points="523.38,-412.33 530.14,-404.17 519.77,-406.33 523.38,-412.33"/>
</a>
</g>
</g>
<!-- Node8 -->
<g id="Node000008" class="node">
<title>Node8</title>
<g id="a_Node000008"><a xlink:href="../../d7/d79/MinMaxFix_8hpp.html" target="_top" xlink:title=" ">
<polygon fill="white" stroke="#666666" points="501.53,-129 365.53,-129 365.53,-110 501.53,-110 501.53,-129"/>
<text text-anchor="middle" x="433.53" y="-117" font-family="Helvetica,sans-Serif" font-size="10.00">AH/Math/MinMaxFix.hpp</text>
</a>
</g>
</g>
<!-- Node4&#45;&gt;Node8 -->
<g id="edge31_Node000004_Node000008" class="edge">
<title>Node4&#45;&gt;Node8</title>
<g id="a_edge31_Node000004_Node000008"><a xlink:title=" ">
<path fill="none" stroke="#63b8ff" d="M376.75,-443.1C260.31,-432.99 57.53,-405.98 57.53,-340.5 57.53,-340.5 57.53,-340.5 57.53,-228.5 57.53,-167.08 245.19,-138.54 355.36,-127.08"/>
<polygon fill="#63b8ff" stroke="#63b8ff" points="355.85,-130.55 365.44,-126.05 355.14,-123.58 355.85,-130.55"/>
</a>
</g>
</g>
<!-- Node24 -->
<g id="Node000024" class="node">
<title>Node24</title>
<g id="a_Node000024"><a xlink:title=" ">
<polygon fill="#e0e0e0" stroke="#999999" points="466.03,-404 413.03,-404 413.03,-385 466.03,-385 466.03,-404"/>
<text text-anchor="middle" x="439.53" y="-392" font-family="Helvetica,sans-Serif" font-size="10.00">stdlib.h</text>
</a>
</g>
</g>
<!-- Node4&#45;&gt;Node24 -->
<g id="edge32_Node000004_Node000024" class="edge">
<title>Node4&#45;&gt;Node24</title>
<g id="a_edge32_Node000004_Node000024"><a xlink:title=" ">
<path fill="none" stroke="#63b8ff" d="M453.73,-439.75C451.47,-432.72 448.23,-422.62 445.42,-413.84"/>
<polygon fill="#63b8ff" stroke="#63b8ff" points="448.68,-412.54 442.29,-404.09 442.01,-414.68 448.68,-412.54"/>
</a>
</g>
</g>
<!-- Node25 -->
<g id="Node000025" class="node">
<title>Node25</title>
<g id="a_Node000025"><a xlink:title=" ">
<polygon fill="#e0e0e0" stroke="#999999" points="751.53,-404 661.53,-404 661.53,-385 751.53,-385 751.53,-404"/>
<text text-anchor="middle" x="706.53" y="-392" font-family="Helvetica,sans-Serif" font-size="10.00">AH/STL/iterator</text>
</a>
</g>
</g>
<!-- Node4&#45;&gt;Node25 -->
<g id="edge33_Node000004_Node000025" class="edge">
<title>Node4&#45;&gt;Node25</title>
<g id="a_edge33_Node000004_Node000025"><a xlink:title=" ">
<path fill="none" stroke="#63b8ff" d="M496.7,-439.98C540.04,-430.8 609.13,-416.15 656.09,-406.19"/>
<polygon fill="#63b8ff" stroke="#63b8ff" points="657,-409.58 666.05,-404.08 655.54,-402.73 657,-409.58"/>
</a>
</g>
</g>
<!-- Node6 -->
<g id="Node000006" class="node">
<title>Node6</title>
<g id="a_Node000006"><a xlink:href="../../dd/d80/PrintStream_8hpp.html" target="_top" xlink:title=" ">
<polygon fill="white" stroke="#666666" points="901.03,-349 728.03,-349 728.03,-330 901.03,-330 901.03,-349"/>
<text text-anchor="middle" x="814.53" y="-337" font-family="Helvetica,sans-Serif" font-size="10.00">AH/PrintStream/PrintStream.hpp</text>
</a>
</g>
</g>
<!-- Node5&#45;&gt;Node6 -->
<g id="edge5_Node000005_Node000006" class="edge">
<title>Node5&#45;&gt;Node6</title>
<g id="a_edge5_Node000005_Node000006"><a xlink:title=" ">
<path fill="none" stroke="#63b8ff" d="M587.91,-384.98C634.91,-375.76 709.96,-361.03 760.69,-351.07"/>
<polygon fill="#63b8ff" stroke="#63b8ff" points="761.68,-354.44 770.81,-349.08 760.33,-347.57 761.68,-354.44"/>
</a>
</g>
</g>
<!-- Node5&#45;&gt;Node15 -->
<g id="edge18_Node000005_Node000015" class="edge">
<title>Node5&#45;&gt;Node15</title>
<g id="a_edge18_Node000005_Node000015"><a xlink:title=" ">
<path fill="none" stroke="#63b8ff" d="M516.93,-384.98C492.19,-376.34 456.37,-362.87 431.76,-353.02"/>
<polygon fill="#63b8ff" stroke="#63b8ff" points="432.87,-349.69 422.29,-349.17 430.24,-356.17 432.87,-349.69"/>
</a>
</g>
</g>
<!-- Node23 -->
<g id="Node000023" class="node">
<title>Node23</title>
<g id="a_Node000023"><a xlink:href="../../d7/d52/DebugVal_8hpp.html" target="_top" xlink:title=" ">
<polygon fill="white" stroke="#666666" points="595.53,-349 511.53,-349 511.53,-330 595.53,-330 595.53,-349"/>
<text text-anchor="middle" x="553.53" y="-337" font-family="Helvetica,sans-Serif" font-size="10.00">DebugVal.hpp</text>
</a>
</g>
</g>
<!-- Node5&#45;&gt;Node23 -->
<g id="edge30_Node000005_Node000023" class="edge">
<title>Node5&#45;&gt;Node23</title>
<g id="a_edge30_Node000005_Node000023"><a xlink:title=" ">
<path fill="none" stroke="#63b8ff" d="M546.02,-384.75C547.2,-377.8 548.89,-367.85 550.37,-359.13"/>
<polygon fill="#63b8ff" stroke="#63b8ff" points="553.85,-359.53 552.08,-349.09 546.95,-358.36 553.85,-359.53"/>
</a>
</g>
</g>
<!-- Node7 -->
<g id="Node000007" class="node">
<title>Node7</title>
<g id="a_Node000007"><a xlink:href="../../d6/ddf/Arduino-Wrapper_8h.html" target="_top" xlink:title=" ">
<polygon fill="white" stroke="#666666" points="390.53,-184 266.53,-184 266.53,-165 390.53,-165 390.53,-184"/>
<text text-anchor="middle" x="328.53" y="-172" font-family="Helvetica,sans-Serif" font-size="10.00">AH/Arduino&#45;Wrapper.h</text>
</a>
</g>
</g>
<!-- Node6&#45;&gt;Node7 -->
<g id="edge6_Node000006_Node000007" class="edge">
<title>Node6&#45;&gt;Node7</title>
<g id="a_edge6_Node000006_Node000007"><a xlink:title=" ">
<path fill="none" stroke="#63b8ff" d="M814.61,-329.79C814.24,-316.17 811.47,-289.88 796.53,-275 741.62,-220.3 518.07,-192.48 400.93,-181.41"/>
<polygon fill="#63b8ff" stroke="#63b8ff" points="400.9,-177.89 390.62,-180.45 400.26,-184.86 400.9,-177.89"/>
</a>
</g>
</g>
<!-- Node12 -->
<g id="Node000012" class="node">
<title>Node12</title>
<g id="a_Node000012"><a xlink:href="../../d6/db0/AH_2Settings_2NamespaceSettings_8hpp.html" target="_top" xlink:title=" ">
<polygon fill="white" stroke="#666666" points="989.03,-74 794.03,-74 794.03,-55 989.03,-55 989.03,-74"/>
<text text-anchor="middle" x="891.53" y="-62" font-family="Helvetica,sans-Serif" font-size="10.00">AH/Settings/NamespaceSettings.hpp</text>
</a>
</g>
</g>
<!-- Node6&#45;&gt;Node12 -->
<g id="edge15_Node000006_Node000012" class="edge">
<title>Node6&#45;&gt;Node12</title>
<g id="a_edge15_Node000006_Node000012"><a xlink:title=" ">
<path fill="none" stroke="#63b8ff" d="M828.44,-329.81C840.27,-321.79 856.97,-308.9 867.53,-294 884.99,-269.39 891.53,-260.67 891.53,-230.5 891.53,-230.5 891.53,-230.5 891.53,-173.5 891.53,-142.19 891.53,-105.77 891.53,-84.23"/>
<polygon fill="#63b8ff" stroke="#63b8ff" points="895.03,-84.18 891.53,-74.18 888.03,-84.18 895.03,-84.18"/>
</a>
</g>
</g>
<!-- Node14 -->
<g id="Node000014" class="node">
<title>Node14</title>
<g id="a_Node000014"><a xlink:href="../../d0/da7/Settings_2NamespaceSettings_8hpp.html" target="_top" xlink:title=" ">
<polygon fill="white" stroke="#666666" points="787.53,-294 609.53,-294 609.53,-275 787.53,-275 787.53,-294"/>
<text text-anchor="middle" x="698.53" y="-282" font-family="Helvetica,sans-Serif" font-size="10.00">Settings/NamespaceSettings.hpp</text>
</a>
</g>
</g>
<!-- Node6&#45;&gt;Node14 -->
<g id="edge16_Node000006_Node000014" class="edge">
<title>Node6&#45;&gt;Node14</title>
<g id="a_edge16_Node000006_Node000014"><a xlink:title=" ">
<path fill="none" stroke="#63b8ff" d="M795.9,-329.98C777.24,-321.46 748.28,-308.23 726.79,-298.41"/>
<polygon fill="#63b8ff" stroke="#63b8ff" points="728.06,-295.14 717.51,-294.17 725.15,-301.51 728.06,-295.14"/>
</a>
</g>
</g>
<!-- Node7&#45;&gt;Node8 -->
<g id="edge7_Node000007_Node000008" class="edge">
<title>Node7&#45;&gt;Node8</title>
<g id="a_edge7_Node000007_Node000008"><a xlink:title=" ">
<path fill="none" stroke="#63b8ff" d="M345.4,-164.98C362.14,-156.54 388.03,-143.47 407.43,-133.68"/>
<polygon fill="#63b8ff" stroke="#63b8ff" points="409.01,-136.8 416.36,-129.17 405.85,-130.55 409.01,-136.8"/>
</a>
</g>
</g>
<!-- Node11 -->
<g id="Node000011" class="node">
<title>Node11</title>
<g id="a_Node000011"><a xlink:title=" ">
<polygon fill="#e0e0e0" stroke="#999999" points="417.03,-19 354.03,-19 354.03,0 417.03,0 417.03,-19"/>
<text text-anchor="middle" x="385.53" y="-7" font-family="Helvetica,sans-Serif" font-size="10.00">Arduino.h</text>
</a>
</g>
</g>
<!-- Node7&#45;&gt;Node11 -->
<g id="edge14_Node000007_Node000011" class="edge">
<title>Node7&#45;&gt;Node11</title>
<g id="a_edge14_Node000007_Node000011"><a xlink:title=" ">
<path fill="none" stroke="#63b8ff" d="M328.36,-164.71C328.27,-144.39 329.97,-93.02 347.53,-55 352.46,-44.35 360.67,-34.25 368.21,-26.37"/>
<polygon fill="#63b8ff" stroke="#63b8ff" points="370.71,-28.82 375.37,-19.3 365.8,-23.84 370.71,-28.82"/>
</a>
</g>
</g>
<!-- Node7&#45;&gt;Node13 -->
<g id="edge13_Node000007_Node000013" class="edge">
<title>Node7&#45;&gt;Node13</title>
<g id="a_edge13_Node000007_Node000013"><a xlink:title=" ">
<path fill="none" stroke="#63b8ff" d="M390.67,-168.39C513.36,-158.31 785.54,-135.95 909.64,-125.75"/>
<polygon fill="#63b8ff" stroke="#63b8ff" points="910.07,-129.23 919.75,-124.92 909.5,-122.25 910.07,-129.23"/>
</a>
</g>
</g>
<!-- Node9 -->
<g id="Node000009" class="node">
<title>Node9</title>
<g id="a_Node000009"><a xlink:href="../../d6/d3b/FixArduinoMacros_8hpp.html" target="_top" xlink:title=" ">
<polygon fill="white" stroke="#666666" points="526.53,-74 356.53,-74 356.53,-55 526.53,-55 526.53,-74"/>
<text text-anchor="middle" x="441.53" y="-62" font-family="Helvetica,sans-Serif" font-size="10.00">AH/Math/FixArduinoMacros.hpp</text>
</a>
</g>
</g>
<!-- Node8&#45;&gt;Node9 -->
<g id="edge8_Node000008_Node000009" class="edge">
<title>Node8&#45;&gt;Node9</title>
<g id="a_edge8_Node000008_Node000009"><a xlink:title=" ">
<path fill="none" stroke="#63b8ff" d="M434.86,-109.75C435.9,-102.8 437.41,-92.85 438.72,-84.13"/>
<polygon fill="#63b8ff" stroke="#63b8ff" points="442.21,-84.5 440.24,-74.09 435.28,-83.45 442.21,-84.5"/>
</a>
</g>
</g>
<!-- Node8&#45;&gt;Node12 -->
<g id="edge11_Node000008_Node000012" class="edge">
<title>Node8&#45;&gt;Node12</title>
<g id="a_edge11_Node000008_Node000012"><a xlink:title=" ">
<path fill="none" stroke="#63b8ff" d="M501.61,-110.62C583.19,-101.18 719.86,-85.37 807.82,-75.19"/>
<polygon fill="#63b8ff" stroke="#63b8ff" points="808.24,-78.66 817.77,-74.04 807.43,-71.71 808.24,-78.66"/>
</a>
</g>
</g>
<!-- Node10 -->
<g id="Node000010" class="node">
<title>Node10</title>
<g id="a_Node000010"><a xlink:href="../../d1/d65/Warnings_8hpp.html" target="_top" xlink:title=" ">
<polygon fill="white" stroke="#666666" points="838.03,-19 695.03,-19 695.03,0 838.03,0 838.03,-19"/>
<text text-anchor="middle" x="766.53" y="-7" font-family="Helvetica,sans-Serif" font-size="10.00">AH/Settings/Warnings.hpp</text>
</a>
</g>
</g>
<!-- Node9&#45;&gt;Node10 -->
<g id="edge9_Node000009_Node000010" class="edge">
<title>Node9&#45;&gt;Node10</title>
<g id="a_edge9_Node000009_Node000010"><a xlink:title=" ">
<path fill="none" stroke="#63b8ff" d="M493.75,-54.98C551.12,-45.63 643.2,-30.61 704.28,-20.65"/>
<polygon fill="#63b8ff" stroke="#63b8ff" points="704.87,-24.1 714.18,-19.04 703.74,-17.19 704.87,-24.1"/>
</a>
</g>
</g>
<!-- Node9&#45;&gt;Node11 -->
<g id="edge10_Node000009_Node000011" class="edge">
<title>Node9&#45;&gt;Node11</title>
<g id="a_edge10_Node000009_Node000011"><a xlink:title=" ">
<path fill="none" stroke="#63b8ff" d="M432.54,-54.98C424.34,-47.23 412.03,-35.58 402.06,-26.14"/>
<polygon fill="#63b8ff" stroke="#63b8ff" points="404.36,-23.5 394.7,-19.17 399.55,-28.59 404.36,-23.5"/>
</a>
</g>
</g>
<!-- Node12&#45;&gt;Node10 -->
<g id="edge12_Node000012_Node000010" class="edge">
<title>Node12&#45;&gt;Node10</title>
<g id="a_edge12_Node000012_Node000010"><a xlink:title=" ">
<path fill="none" stroke="#63b8ff" d="M871.45,-54.98C851.16,-46.38 819.58,-32.99 796.36,-23.15"/>
<polygon fill="#63b8ff" stroke="#63b8ff" points="797.56,-19.85 786.98,-19.17 794.82,-26.3 797.56,-19.85"/>
</a>
</g>
</g>
<!-- Node14&#45;&gt;Node10 -->
<g id="edge17_Node000014_Node000010" class="edge">
<title>Node14&#45;&gt;Node10</title>
<g id="a_edge17_Node000014_Node000010"><a xlink:title=" ">
<path fill="none" stroke="#63b8ff" d="M708.86,-274.87C727.88,-257.93 766.53,-218.26 766.53,-175.5 766.53,-175.5 766.53,-175.5 766.53,-118.5 766.53,-87.19 766.53,-50.77 766.53,-29.23"/>
<polygon fill="#63b8ff" stroke="#63b8ff" points="770.03,-29.18 766.53,-19.18 763.03,-29.18 770.03,-29.18"/>
</a>
</g>
</g>
<!-- Node15&#45;&gt;Node5 -->
<g id="edge29_Node000015_Node000005" class="edge">
<title>Node15&#45;&gt;Node5</title>
<g id="a_edge29_Node000015_Node000005"><a xlink:title=" ">
<path fill="none" stroke="#63b8ff" d="M432.33,-349.08C457.2,-357.77 493.16,-371.3 517.72,-381.15"/>
<polygon fill="#63b8ff" stroke="#63b8ff" points="516.57,-384.46 527.16,-384.98 519.21,-377.98 516.57,-384.46"/>
</a>
</g>
</g>
<!-- Node15&#45;&gt;Node12 -->
<g id="edge19_Node000015_Node000012" class="edge">
<title>Node15&#45;&gt;Node12</title>
<g id="a_edge19_Node000015_Node000012"><a xlink:title=" ">
<path fill="none" stroke="#63b8ff" d="M493.91,-329.97C605.44,-319.09 783.24,-300.86 796.53,-294 830.24,-276.62 853.53,-268.42 853.53,-230.5 853.53,-230.5 853.53,-230.5 853.53,-173.5 853.53,-140.02 869.98,-103.84 881.24,-83.01"/>
<polygon fill="#63b8ff" stroke="#63b8ff" points="884.4,-84.53 886.25,-74.1 878.3,-81.1 884.4,-84.53"/>
</a>
</g>
</g>
<!-- Node16 -->
<g id="Node000016" class="node">
<title>Node16</title>
<g id="a_Node000016"><a xlink:href="../../d5/d4f/AH_2Settings_2Settings_8hpp.html" target="_top" xlink:title="All user settings and debugging options can be changed here.">
<polygon fill="white" stroke="#666666" points="515.03,-294 438.03,-294 438.03,-275 515.03,-275 515.03,-294"/>
<text text-anchor="middle" x="476.53" y="-282" font-family="Helvetica,sans-Serif" font-size="10.00">Settings.hpp</text>
</a>
</g>
</g>
<!-- Node15&#45;&gt;Node16 -->
<g id="edge20_Node000015_Node000016" class="edge">
<title>Node15&#45;&gt;Node16</title>
<g id="a_edge20_Node000015_Node000016"><a xlink:title=" ">
<path fill="none" stroke="#63b8ff" d="M416.1,-329.98C426.95,-322 443.42,-309.88 456.42,-300.31"/>
<polygon fill="#63b8ff" stroke="#63b8ff" points="458.78,-302.92 464.76,-294.17 454.63,-297.28 458.78,-302.92"/>
</a>
</g>
</g>
<!-- Node22 -->
<g id="Node000022" class="node">
<title>Node22</title>
<g id="a_Node000022"><a xlink:href="../../d9/d98/TeensyUSBTypes_8hpp.html" target="_top" xlink:title=" ">
<polygon fill="white" stroke="#666666" points="420.03,-294 247.03,-294 247.03,-275 420.03,-275 420.03,-294"/>
<text text-anchor="middle" x="333.53" y="-282" font-family="Helvetica,sans-Serif" font-size="10.00">AH/Teensy/TeensyUSBTypes.hpp</text>
</a>
</g>
</g>
<!-- Node15&#45;&gt;Node22 -->
<g id="edge28_Node000015_Node000022" class="edge">
<title>Node15&#45;&gt;Node22</title>
<g id="a_edge28_Node000015_Node000022"><a xlink:title=" ">
<path fill="none" stroke="#63b8ff" d="M393.13,-329.98C382.43,-322 366.19,-309.88 353.37,-300.31"/>
<polygon fill="#63b8ff" stroke="#63b8ff" points="355.26,-297.35 345.15,-294.17 351.07,-302.96 355.26,-297.35"/>
</a>
</g>
</g>
<!-- Node17 -->
<g id="Node000017" class="node">
<title>Node17</title>
<g id="a_Node000017"><a xlink:href="../../dc/d50/Frequency_8hpp.html" target="_top" xlink:title=" ">
<polygon fill="white" stroke="#666666" points="646.53,-184 512.53,-184 512.53,-165 646.53,-165 646.53,-184"/>
<text text-anchor="middle" x="579.53" y="-172" font-family="Helvetica,sans-Serif" font-size="10.00">AH/Types/Frequency.hpp</text>
</a>
</g>
</g>
<!-- Node16&#45;&gt;Node17 -->
<g id="edge21_Node000016_Node000017" class="edge">
<title>Node16&#45;&gt;Node17</title>
<g id="a_edge21_Node000016_Node000017"><a xlink:title=" ">
<path fill="none" stroke="#63b8ff" d="M482.32,-274.79C490.96,-262.08 508.1,-238.01 525.53,-220 535.97,-209.23 548.89,-198.5 559.48,-190.27"/>
<polygon fill="#63b8ff" stroke="#63b8ff" points="561.88,-192.85 567.72,-184.01 557.64,-187.28 561.88,-192.85"/>
</a>
</g>
</g>
<!-- Node18 -->
<g id="Node000018" class="node">
<title>Node18</title>
<g id="a_Node000018"><a xlink:href="../../d7/d7c/ADCConfig_8hpp.html" target="_top" xlink:title="This file contains the platform&#45;specific ADC resolutions.">
<polygon fill="white" stroke="#666666" points="407.03,-239 250.03,-239 250.03,-220 407.03,-220 407.03,-239"/>
<text text-anchor="middle" x="328.53" y="-227" font-family="Helvetica,sans-Serif" font-size="10.00">AH/Hardware/ADCConfig.hpp</text>
</a>
</g>
</g>
<!-- Node16&#45;&gt;Node18 -->
<g id="edge23_Node000016_Node000018" class="edge">
<title>Node16&#45;&gt;Node18</title>
<g id="a_edge23_Node000016_Node000018"><a xlink:title=" ">
<path fill="none" stroke="#63b8ff" d="M452.76,-274.98C428.3,-266.23 390,-252.51 362.39,-242.62"/>
<polygon fill="#63b8ff" stroke="#63b8ff" points="363.34,-239.25 352.75,-239.17 360.98,-245.84 363.34,-239.25"/>
</a>
</g>
</g>
<!-- Node19 -->
<g id="Node000019" class="node">
<title>Node19</title>
<g id="a_Node000019"><a xlink:title=" ">
<polygon fill="#e0e0e0" stroke="#999999" points="478.03,-239 425.03,-239 425.03,-220 478.03,-220 478.03,-239"/>
<text text-anchor="middle" x="451.53" y="-227" font-family="Helvetica,sans-Serif" font-size="10.00">limits.h</text>
</a>
</g>
</g>
<!-- Node16&#45;&gt;Node19 -->
<g id="edge25_Node000016_Node000019" class="edge">
<title>Node16&#45;&gt;Node19</title>
<g id="a_edge25_Node000016_Node000019"><a xlink:title=" ">
<path fill="none" stroke="#63b8ff" d="M472.41,-274.75C469.02,-267.57 464.12,-257.18 459.92,-248.27"/>
<polygon fill="#63b8ff" stroke="#63b8ff" points="463.02,-246.64 455.59,-239.09 456.69,-249.63 463.02,-246.64"/>
</a>
</g>
</g>
<!-- Node16&#45;&gt;Node20 -->
<g id="edge26_Node000016_Node000020" class="edge">
<title>Node16&#45;&gt;Node20</title>
<g id="a_edge26_Node000016_Node000020"><a xlink:title=" ">
<path fill="none" stroke="#63b8ff" d="M490.35,-274.98C503.69,-266.77 524.12,-254.18 539.84,-244.49"/>
<polygon fill="#63b8ff" stroke="#63b8ff" points="541.79,-247.4 548.47,-239.17 538.12,-241.44 541.79,-247.4"/>
</a>
</g>
</g>
<!-- Node21 -->
<g id="Node000021" class="node">
<title>Node21</title>
<g id="a_Node000021"><a xlink:title=" ">
<polygon fill="#e0e0e0" stroke="#999999" points="1049.03,-239 996.03,-239 996.03,-220 1049.03,-220 1049.03,-239"/>
<text text-anchor="middle" x="1022.53" y="-227" font-family="Helvetica,sans-Serif" font-size="10.00">stdint.h</text>
</a>
</g>
</g>
<!-- Node16&#45;&gt;Node21 -->
<g id="edge27_Node000016_Node000021" class="edge">
<title>Node16&#45;&gt;Node21</title>
<g id="a_edge27_Node000016_Node000021"><a xlink:title=" ">
<path fill="none" stroke="#63b8ff" d="M515.36,-279.73C616.44,-269.92 886.73,-243.68 985.62,-234.08"/>
<polygon fill="#63b8ff" stroke="#63b8ff" points="986.12,-237.55 995.74,-233.1 985.44,-230.58 986.12,-237.55"/>
</a>
</g>
</g>
<!-- Node17&#45;&gt;Node12 -->
<g id="edge22_Node000017_Node000012" class="edge">
<title>Node17&#45;&gt;Node12</title>
<g id="a_edge22_Node000017_Node000012"><a xlink:title=" ">
<path fill="none" stroke="#63b8ff" d="M604.28,-164.94C659.69,-145.76 793.83,-99.32 857.24,-77.37"/>
<polygon fill="#63b8ff" stroke="#63b8ff" points="858.48,-80.64 866.79,-74.07 856.19,-74.03 858.48,-80.64"/>
</a>
</g>
</g>
<!-- Node18&#45;&gt;Node7 -->
<g id="edge24_Node000018_Node000007" class="edge">
<title>Node18&#45;&gt;Node7</title>
<g id="a_edge24_Node000018_Node000007"><a xlink:title=" ">
<path fill="none" stroke="#63b8ff" d="M328.53,-219.75C328.53,-212.8 328.53,-202.85 328.53,-194.13"/>
<polygon fill="#63b8ff" stroke="#63b8ff" points="332.03,-194.09 328.53,-184.09 325.03,-194.09 332.03,-194.09"/>
</a>
</g>
</g>
<!-- Node26&#45;&gt;Node5 -->
<g id="edge35_Node000026_Node000005" class="edge">
<title>Node26&#45;&gt;Node5</title>
<g id="a_edge35_Node000026_Node000005"><a xlink:title=" ">
<path fill="none" stroke="#63b8ff" d="M627.63,-439.98C611.99,-431.61 587.88,-418.7 569.65,-408.95"/>
<polygon fill="#63b8ff" stroke="#63b8ff" points="571.2,-405.8 560.73,-404.17 567.89,-411.98 571.2,-405.8"/>
</a>
</g>
</g>
<!-- Node28&#45;&gt;Node14 -->
<g id="edge67_Node000028_Node000014" class="edge">
<title>Node28&#45;&gt;Node14</title>
<g id="a_edge67_Node000028_Node000014"><a xlink:title=" ">
<path fill="none" stroke="#63b8ff" d="M865.43,-681.95C874.42,-654.01 899.73,-563.27 874.53,-495 852.27,-434.67 829.79,-426.35 780.53,-385 756.42,-364.76 739.29,-373.51 719.53,-349 709.17,-336.15 703.84,-317.98 701.15,-304.37"/>
<polygon fill="#63b8ff" stroke="#63b8ff" points="704.56,-303.51 699.46,-294.23 697.65,-304.67 704.56,-303.51"/>
</a>
</g>
</g>
<!-- Node28&#45;&gt;Node20 -->
<g id="edge68_Node000028_Node000020" class="edge">
<title>Node28&#45;&gt;Node20</title>
<g id="a_edge68_Node000028_Node000020"><a xlink:title=" ">
<path fill="none" stroke="#63b8ff" d="M853.26,-681.96C827.92,-658.06 757.01,-587.46 721.53,-514 706.86,-483.61 723.46,-467.94 704.53,-440 688.77,-416.73 672.09,-424.2 652.53,-404 651.27,-402.69 582.3,-295.65 581.53,-294 574.9,-279.61 569.91,-262.34 566.71,-249.44"/>
<polygon fill="#63b8ff" stroke="#63b8ff" points="570.05,-248.35 564.36,-239.41 563.23,-249.95 570.05,-248.35"/>
</a>
</g>
</g>
<!-- Node28&#45;&gt;Node21 -->
<g id="edge69_Node000028_Node000021" class="edge">
<title>Node28&#45;&gt;Node21</title>
<g id="a_edge69_Node000028_Node000021"><a xlink:title=" ">
<path fill="none" stroke="#63b8ff" d="M869.29,-681.72C875.72,-673.04 885.31,-659.17 891.53,-646 960.61,-499.85 1005.65,-308.13 1018.65,-248.79"/>
<polygon fill="#63b8ff" stroke="#63b8ff" points="1022.07,-249.53 1020.76,-239.02 1015.23,-248.05 1022.07,-249.53"/>
</a>
</g>
</g>
<!-- Node29 -->
<g id="Node000029" class="node">
<title>Node29</title>
<g id="a_Node000029"><a xlink:href="../../d2/dbc/Cable_8hpp.html" target="_top" xlink:title=" ">
<polygon fill="white" stroke="#666666" points="157.03,-349 92.03,-349 92.03,-330 157.03,-330 157.03,-349"/>
<text text-anchor="middle" x="124.53" y="-337" font-family="Helvetica,sans-Serif" font-size="10.00">Cable.hpp</text>
</a>
</g>
</g>
<!-- Node28&#45;&gt;Node29 -->
<g id="edge41_Node000028_Node000029" class="edge">
<title>Node28&#45;&gt;Node29</title>
<g id="a_edge41_Node000028_Node000029"><a xlink:title=" ">
<path fill="none" stroke="#63b8ff" d="M825.35,-690.72C694.04,-691.11 252.95,-689.13 119.53,-646 67.44,-629.16 45.44,-625.86 15.53,-580 -5.24,-548.14 -0.15,-532.61 5.53,-495 9.35,-469.7 9.63,-462.09 22.53,-440 39.5,-410.95 50.39,-408.43 74.53,-385 84.85,-374.99 96.88,-364.25 106.55,-355.84"/>
<polygon fill="#63b8ff" stroke="#63b8ff" points="109.06,-358.3 114.34,-349.12 104.49,-353 109.06,-358.3"/>
</a>
</g>
</g>
<!-- Node30 -->
<g id="Node000030" class="node">
<title>Node30</title>
<g id="a_Node000030"><a xlink:href="../../d7/d42/Channel_8hpp.html" target="_top" xlink:title=" ">
<polygon fill="white" stroke="#666666" points="252.03,-349 175.03,-349 175.03,-330 252.03,-330 252.03,-349"/>
<text text-anchor="middle" x="213.53" y="-337" font-family="Helvetica,sans-Serif" font-size="10.00">Channel.hpp</text>
</a>
</g>
</g>
<!-- Node28&#45;&gt;Node30 -->
<g id="edge44_Node000028_Node000030" class="edge">
<title>Node28&#45;&gt;Node30</title>
<g id="a_edge44_Node000028_Node000030"><a xlink:title=" ">
<path fill="none" stroke="#63b8ff" d="M825.5,-689C662.8,-681.92 19.53,-648.71 19.53,-566 19.53,-566 19.53,-566 19.53,-503.5 19.53,-473.91 20.97,-463.04 39.53,-440 75.46,-395.41 137.1,-367.03 176.54,-352.45"/>
<polygon fill="#63b8ff" stroke="#63b8ff" points="177.83,-355.71 186.06,-349.04 175.47,-349.12 177.83,-355.71"/>
</a>
</g>
</g>
<!-- Node31 -->
<g id="Node000031" class="node">
<title>Node31</title>
<g id="a_Node000031"><a xlink:href="../../de/d76/Array_8hpp.html" target="_top" xlink:title=" ">
<polygon fill="white" stroke="#666666" points="865.03,-514 730.03,-514 730.03,-495 865.03,-495 865.03,-514"/>
<text text-anchor="middle" x="797.53" y="-502" font-family="Helvetica,sans-Serif" font-size="10.00">AH/Containers/Array.hpp</text>
</a>
</g>
</g>
<!-- Node28&#45;&gt;Node31 -->
<g id="edge47_Node000028_Node000031" class="edge">
<title>Node28&#45;&gt;Node31</title>
<g id="a_edge47_Node000028_Node000031"><a xlink:title=" ">
<path fill="none" stroke="#63b8ff" d="M859.4,-681.58C849.34,-652.94 817.73,-562.98 804,-523.91"/>
<polygon fill="#63b8ff" stroke="#63b8ff" points="807.26,-522.61 800.64,-514.33 800.65,-524.93 807.26,-522.61"/>
</a>
</g>
</g>
<!-- Node32 -->
<g id="Node000032" class="node">
<title>Node32</title>
<g id="a_Node000032"><a xlink:href="../../d2/d3c/Arduino-Hardware-Types_8hpp.html" target="_top" xlink:title=" ">
<polygon fill="white" stroke="#666666" points="1115.53,-646 993.53,-646 993.53,-616 1115.53,-616 1115.53,-646"/>
<text text-anchor="start" x="1001.53" y="-634" font-family="Helvetica,sans-Serif" font-size="10.00">AH/Hardware/Arduino</text>
<text text-anchor="middle" x="1054.53" y="-623" font-family="Helvetica,sans-Serif" font-size="10.00">&#45;Hardware&#45;Types.hpp</text>
</a>
</g>
</g>
<!-- Node28&#45;&gt;Node32 -->
<g id="edge52_Node000028_Node000032" class="edge">
<title>Node28&#45;&gt;Node32</title>
<g id="a_edge52_Node000028_Node000032"><a xlink:title=" ">
<path fill="none" stroke="#63b8ff" d="M890.45,-681.99C918.69,-673.39 963.11,-659.86 998.62,-649.04"/>
<polygon fill="#63b8ff" stroke="#63b8ff" points="999.83,-652.33 1008.37,-646.06 997.79,-645.63 999.83,-652.33"/>
</a>
</g>
</g>
<!-- Node33 -->
<g id="Node000033" class="node">
<title>Node33</title>
<g id="a_Node000033"><a xlink:href="../../d4/d35/Hardware-Types_8hpp.html" target="_top" xlink:title=" ">
<polygon fill="white" stroke="#666666" points="1120.03,-580 989.03,-580 989.03,-550 1120.03,-550 1120.03,-580"/>
<text text-anchor="start" x="997.03" y="-568" font-family="Helvetica,sans-Serif" font-size="10.00">AH/Hardware/Hardware</text>
<text text-anchor="middle" x="1054.53" y="-557" font-family="Helvetica,sans-Serif" font-size="10.00">&#45;Types.hpp</text>
</a>
</g>
</g>
<!-- Node28&#45;&gt;Node33 -->
<g id="edge65_Node000028_Node000033" class="edge">
<title>Node28&#45;&gt;Node33</title>
<g id="a_edge65_Node000028_Node000033"><a xlink:title=" ">
<path fill="none" stroke="#63b8ff" d="M877.42,-681.87C892.47,-673.07 916.32,-658.92 936.53,-646 967.55,-626.18 1002.36,-602.38 1026.08,-585.93"/>
<polygon fill="#63b8ff" stroke="#63b8ff" points="1028.08,-588.8 1034.29,-580.21 1024.09,-583.05 1028.08,-588.8"/>
</a>
</g>
</g>
<!-- Node34 -->
<g id="Node000034" class="node">
<title>Node34</title>
<g id="a_Node000034"><a xlink:title=" ">
<polygon fill="#e0e0e0" stroke="#999999" points="1164.53,-514 1082.53,-514 1082.53,-495 1164.53,-495 1164.53,-514"/>
<text text-anchor="middle" x="1123.53" y="-502" font-family="Helvetica,sans-Serif" font-size="10.00">AH/STL/limits</text>
</a>
</g>
</g>
<!-- Node28&#45;&gt;Node34 -->
<g id="edge66_Node000028_Node000034" class="edge">
<title>Node28&#45;&gt;Node34</title>
<g id="a_edge66_Node000028_Node000034"><a xlink:title=" ">
<path fill="none" stroke="#63b8ff" d="M899.65,-689.62C964.65,-687.24 1094.97,-678.44 1124.53,-646 1155.12,-612.44 1140.7,-553.4 1130.55,-523.68"/>
<polygon fill="#63b8ff" stroke="#63b8ff" points="1133.8,-522.37 1127.1,-514.16 1127.22,-524.75 1133.8,-522.37"/>
</a>
</g>
</g>
<!-- Node29&#45;&gt;Node7 -->
<g id="edge42_Node000029_Node000007" class="edge">
<title>Node29&#45;&gt;Node7</title>
<g id="a_edge42_Node000029_Node000007"><a xlink:title=" ">
<path fill="none" stroke="#63b8ff" d="M129.28,-329.79C141.42,-308.29 175.64,-252.09 218.53,-220 238.42,-205.12 263.96,-194.39 285.43,-187.2"/>
<polygon fill="#63b8ff" stroke="#63b8ff" points="286.52,-190.53 294.97,-184.14 284.38,-183.86 286.52,-190.53"/>
</a>
</g>
</g>
<!-- Node29&#45;&gt;Node14 -->
<g id="edge43_Node000029_Node000014" class="edge">
<title>Node29&#45;&gt;Node14</title>
<g id="a_edge43_Node000029_Node000014"><a xlink:title=" ">
<path fill="none" stroke="#63b8ff" d="M157.49,-331.45C160.54,-330.92 163.59,-330.42 166.53,-330 316.53,-308.62 491.9,-296.4 599.07,-290.36"/>
<polygon fill="#63b8ff" stroke="#63b8ff" points="599.44,-293.84 609.23,-289.79 599.05,-286.86 599.44,-293.84"/>
</a>
</g>
</g>
<!-- Node30&#45;&gt;Node7 -->
<g id="edge45_Node000030_Node000007" class="edge">
<title>Node30&#45;&gt;Node7</title>
<g id="a_edge45_Node000030_Node000007"><a xlink:title=" ">
<path fill="none" stroke="#63b8ff" d="M209.93,-329.69C205.36,-317.25 198.75,-293.96 204.53,-275 213.13,-246.82 219.5,-239.55 241.53,-220 256.92,-206.35 277.24,-195.65 294.37,-188.17"/>
<polygon fill="#63b8ff" stroke="#63b8ff" points="296.15,-191.22 304.03,-184.14 293.45,-184.76 296.15,-191.22"/>
</a>
</g>
</g>
<!-- Node30&#45;&gt;Node14 -->
<g id="edge46_Node000030_Node000014" class="edge">
<title>Node30&#45;&gt;Node14</title>
<g id="a_edge46_Node000030_Node000014"><a xlink:title=" ">
<path fill="none" stroke="#63b8ff" d="M252.4,-334.25C329.6,-325.82 503.95,-306.76 610.4,-295.13"/>
<polygon fill="#63b8ff" stroke="#63b8ff" points="610.92,-298.6 620.48,-294.03 610.16,-291.64 610.92,-298.6"/>
</a>
</g>
</g>
<!-- Node31&#45;&gt;Node13 -->
<g id="edge50_Node000031_Node000013" class="edge">
<title>Node31&#45;&gt;Node13</title>
<g id="a_edge50_Node000031_Node000013"><a xlink:title=" ">
<path fill="none" stroke="#63b8ff" d="M811.74,-494.86C852.59,-468.81 967.53,-386.53 967.53,-285.5 967.53,-285.5 967.53,-285.5 967.53,-228.5 967.53,-197.14 970.09,-160.74 971.86,-139.22"/>
<polygon fill="#63b8ff" stroke="#63b8ff" points="975.36,-139.43 972.73,-129.17 968.38,-138.83 975.36,-139.43"/>
</a>
</g>
</g>
<!-- Node31&#45;&gt;Node20 -->
<g id="edge51_Node000031_Node000020" class="edge">
<title>Node31&#45;&gt;Node20</title>
<g id="a_edge51_Node000031_Node000020"><a xlink:title=" ">
<path fill="none" stroke="#63b8ff" d="M797.13,-494.94C795.71,-473.76 789.29,-418.26 760.53,-385 736.35,-357.03 717.79,-367.08 685.53,-349 646.28,-327 631.79,-326.37 600.53,-294 587.59,-280.6 577.12,-262 570.47,-248.39"/>
<polygon fill="#63b8ff" stroke="#63b8ff" points="573.55,-246.72 566.15,-239.13 567.2,-249.68 573.55,-246.72"/>
</a>
</g>
</g>
<!-- Node31&#45;&gt;Node25 -->
<g id="edge49_Node000031_Node000025" class="edge">
<title>Node31&#45;&gt;Node25</title>
<g id="a_edge49_Node000031_Node000025"><a xlink:title=" ">
<path fill="none" stroke="#63b8ff" d="M790.09,-494.66C774.88,-476.61 740.05,-435.28 720.5,-412.08"/>
<polygon fill="#63b8ff" stroke="#63b8ff" points="722.95,-409.55 713.83,-404.16 717.6,-414.06 722.95,-409.55"/>
</a>
</g>
</g>
<!-- Node31&#45;&gt;Node26 -->
<g id="edge48_Node000031_Node000026" class="edge">
<title>Node31&#45;&gt;Node26</title>
<g id="a_edge48_Node000031_Node000026"><a xlink:title=" ">
<path fill="none" stroke="#63b8ff" d="M772.79,-494.98C747.16,-486.16 706.9,-472.31 678.13,-462.41"/>
<polygon fill="#63b8ff" stroke="#63b8ff" points="679.07,-459.03 668.47,-459.08 676.79,-465.65 679.07,-459.03"/>
</a>
</g>
</g>
<!-- Node32&#45;&gt;Node7 -->
<g id="edge63_Node000032_Node000007" class="edge">
<title>Node32&#45;&gt;Node7</title>
<g id="a_edge63_Node000032_Node000007"><a xlink:title=" ">
<path fill="none" stroke="#63b8ff" d="M993.39,-629.99C792.07,-628.49 156.1,-611.55 39.53,-459 -37.19,-358.59 85.93,-286.25 193.53,-220 218.88,-204.4 250.3,-193.62 276.45,-186.58"/>
<polygon fill="#63b8ff" stroke="#63b8ff" points="277.39,-189.96 286.19,-184.07 275.64,-183.18 277.39,-189.96"/>
</a>
</g>
</g>
<!-- Node32&#45;&gt;Node13 -->
<g id="edge64_Node000032_Node000013" class="edge">
<title>Node32&#45;&gt;Node13</title>
<g id="a_edge64_Node000032_Node000013"><a xlink:title=" ">
<path fill="none" stroke="#63b8ff" d="M1082.7,-615.95C1121.27,-594.48 1184.6,-550.14 1173.53,-495 1147.47,-365.11 1127.95,-332.84 1058.53,-220 1038.53,-187.49 1008.18,-154.8 989.67,-136.16"/>
<polygon fill="#63b8ff" stroke="#63b8ff" points="992.09,-133.64 982.53,-129.08 987.16,-138.61 992.09,-133.64"/>
</a>
</g>
</g>
<!-- Node32&#45;&gt;Node33 -->
<g id="edge53_Node000032_Node000033" class="edge">
<title>Node32&#45;&gt;Node33</title>
<g id="a_edge53_Node000032_Node000033"><a xlink:title=" ">
<path fill="none" stroke="#63b8ff" d="M1054.53,-615.8C1054.53,-608.34 1054.53,-598.99 1054.53,-590.41"/>
<polygon fill="#63b8ff" stroke="#63b8ff" points="1058.03,-590.16 1054.53,-580.16 1051.03,-590.16 1058.03,-590.16"/>
</a>
</g>
</g>
<!-- Node35 -->
<g id="Node000035" class="node">
<title>Node35</title>
<g id="a_Node000035"><a xlink:href="../../d0/db1/FunctionTraits_8hpp.html" target="_top" xlink:title=" ">
<polygon fill="white" stroke="#666666" points="1426.03,-574.5 1273.03,-574.5 1273.03,-555.5 1426.03,-555.5 1426.03,-574.5"/>
<text text-anchor="middle" x="1349.53" y="-562.5" font-family="Helvetica,sans-Serif" font-size="10.00">AH/Types/FunctionTraits.hpp</text>
</a>
</g>
</g>
<!-- Node32&#45;&gt;Node35 -->
<g id="edge59_Node000032_Node000035" class="edge">
<title>Node32&#45;&gt;Node35</title>
<g id="a_edge59_Node000032_Node000035"><a xlink:title=" ">
<path fill="none" stroke="#63b8ff" d="M1115.66,-616.74C1170.29,-604.89 1249.32,-587.74 1300.07,-576.73"/>
<polygon fill="#63b8ff" stroke="#63b8ff" points="1301.11,-580.09 1310.14,-574.55 1299.62,-573.25 1301.11,-580.09"/>
</a>
</g>
</g>
<!-- Node33&#45;&gt;Node6 -->
<g id="edge55_Node000033_Node000006" class="edge">
<title>Node33&#45;&gt;Node6</title>
<g id="a_edge55_Node000033_Node000006"><a xlink:title=" ">
<path fill="none" stroke="#63b8ff" d="M1038.37,-549.78C1027.74,-540.12 1013.76,-526.81 1002.53,-514 955.59,-460.46 962.4,-430.39 907.53,-385 890.58,-370.98 868.47,-360.16 850.06,-352.71"/>
<polygon fill="#63b8ff" stroke="#63b8ff" points="851.14,-349.37 840.55,-349.01 848.6,-355.89 851.14,-349.37"/>
</a>
</g>
</g>
<!-- Node33&#45;&gt;Node12 -->
<g id="edge57_Node000033_Node000012" class="edge">
<title>Node33&#45;&gt;Node12</title>
<g id="a_edge57_Node000033_Node000012"><a xlink:title=" ">
<path fill="none" stroke="#63b8ff" d="M1058.03,-549.92C1071.53,-495.05 1119.53,-295.39 1119.53,-230.5 1119.53,-230.5 1119.53,-230.5 1119.53,-173.5 1119.53,-115.21 1057.91,-88.33 998.74,-75.97"/>
<polygon fill="#63b8ff" stroke="#63b8ff" points="999.38,-72.53 988.89,-74.04 998.03,-79.4 999.38,-72.53"/>
</a>
</g>
</g>
<!-- Node33&#45;&gt;Node21 -->
<g id="edge58_Node000033_Node000021" class="edge">
<title>Node33&#45;&gt;Node21</title>
<g id="a_edge58_Node000033_Node000021"><a xlink:title=" ">
<path fill="none" stroke="#63b8ff" d="M1049.68,-549.74C1046.52,-539.84 1042.62,-526.26 1040.53,-514 1023.82,-415.6 1022.29,-295.6 1022.37,-249.65"/>
<polygon fill="#63b8ff" stroke="#63b8ff" points="1025.87,-249.41 1022.42,-239.4 1018.87,-249.38 1025.87,-249.41"/>
</a>
</g>
</g>
<!-- Node33&#45;&gt;Node31 -->
<g id="edge54_Node000033_Node000031" class="edge">
<title>Node33&#45;&gt;Node31</title>
<g id="a_edge54_Node000033_Node000031"><a xlink:title=" ">
<path fill="none" stroke="#63b8ff" d="M992.98,-549.99C947.57,-539.65 886.69,-525.79 845.01,-516.31"/>
<polygon fill="#63b8ff" stroke="#63b8ff" points="845.64,-512.86 835.11,-514.05 844.09,-519.69 845.64,-512.86"/>
</a>
</g>
</g>
<!-- Node33&#45;&gt;Node34 -->
<g id="edge56_Node000033_Node000034" class="edge">
<title>Node33&#45;&gt;Node34</title>
<g id="a_edge56_Node000033_Node000034"><a xlink:title=" ">
<path fill="none" stroke="#63b8ff" d="M1071.24,-549.84C1081.56,-541.09 1094.81,-529.85 1105.39,-520.88"/>
<polygon fill="#63b8ff" stroke="#63b8ff" points="1107.83,-523.4 1113.2,-514.27 1103.3,-518.06 1107.83,-523.4"/>
</a>
</g>
</g>
<!-- Node35&#45;&gt;Node12 -->
<g id="edge62_Node000035_Node000012" class="edge">
<title>Node35&#45;&gt;Node12</title>
<g id="a_edge62_Node000035_Node000012"><a xlink:title=" ">
<path fill="none" stroke="#63b8ff" d="M1366.83,-555.46C1382.28,-546.98 1404.45,-532.57 1417.53,-514 1434.5,-489.92 1436.53,-479.96 1436.53,-450.5 1436.53,-450.5 1436.53,-450.5 1436.53,-173.5 1436.53,-85.31 1158.46,-68 999.57,-65.31"/>
<polygon fill="#63b8ff" stroke="#63b8ff" points="999.34,-61.81 989.28,-65.16 999.23,-68.81 999.34,-61.81"/>
</a>
</g>
</g>
<!-- Node36 -->
<g id="Node000036" class="node">
<title>Node36</title>
<g id="a_Node000036"><a xlink:title=" ">
<polygon fill="#e0e0e0" stroke="#999999" points="1408.53,-514 1318.53,-514 1318.53,-495 1408.53,-495 1408.53,-514"/>
<text text-anchor="middle" x="1363.53" y="-502" font-family="Helvetica,sans-Serif" font-size="10.00">AH/STL/cstddef</text>
</a>
</g>
</g>
<!-- Node35&#45;&gt;Node36 -->
<g id="edge60_Node000035_Node000036" class="edge">
<title>Node35&#45;&gt;Node36</title>
<g id="a_edge60_Node000035_Node000036"><a xlink:title=" ">
<path fill="none" stroke="#63b8ff" d="M1351.6,-555.37C1353.56,-547.16 1356.58,-534.54 1359.09,-524.05"/>
<polygon fill="#63b8ff" stroke="#63b8ff" points="1362.54,-524.71 1361.46,-514.17 1355.73,-523.08 1362.54,-524.71"/>
</a>
</g>
</g>
<!-- Node37 -->
<g id="Node000037" class="node">
<title>Node37</title>
<g id="a_Node000037"><a xlink:title=" ">
<polygon fill="#e0e0e0" stroke="#999999" points="1300.03,-514 1221.03,-514 1221.03,-495 1300.03,-495 1300.03,-514"/>
<text text-anchor="middle" x="1260.53" y="-502" font-family="Helvetica,sans-Serif" font-size="10.00">AH/STL/tuple</text>
</a>
</g>
</g>
<!-- Node35&#45;&gt;Node37 -->
<g id="edge61_Node000035_Node000037" class="edge">
<title>Node35&#45;&gt;Node37</title>
<g id="a_edge61_Node000035_Node000037"><a xlink:title=" ">
<path fill="none" stroke="#63b8ff" d="M1336.4,-555.37C1322.2,-546.04 1299.34,-531.01 1282.42,-519.88"/>
<polygon fill="#63b8ff" stroke="#63b8ff" points="1284,-516.74 1273.72,-514.17 1280.15,-522.58 1284,-516.74"/>
</a>
</g>
</g>
<!-- Node38&#45;&gt;Node28 -->
<g id="edge71_Node000038_Node000028" class="edge">
<title>Node38&#45;&gt;Node28</title>
<g id="a_edge71_Node000038_Node000028"><a xlink:title=" ">
<path fill="none" stroke="#63b8ff" d="M788.67,-736.98C802.32,-728.77 823.22,-716.18 839.31,-706.49"/>
<polygon fill="#63b8ff" stroke="#63b8ff" points="841.38,-709.33 848.14,-701.17 837.77,-703.33 841.38,-709.33"/>
</a>
</g>
</g>
</g>
</svg>
