<?xml version="1.0" encoding="UTF-8" standalone="no"?>
<!DOCTYPE svg PUBLIC "-//W3C//DTD SVG 1.1//EN"
 "http://www.w3.org/Graphics/SVG/1.1/DTD/svg11.dtd">
<!-- Generated by graphviz version 2.38.0 (20140413.2041)
 -->
<!-- Title: MIDI Output Elements Pages: 1 -->
<svg width="274pt" height="86pt"
 viewBox="0.00 0.00 274.00 86.00" xmlns="http://www.w3.org/2000/svg" xmlns:xlink="http://www.w3.org/1999/xlink">
<g id="graph0" class="graph" transform="scale(1 1) rotate(0) translate(4 82)">
<title>MIDI Output Elements</title>
<polygon fill="white" stroke="none" points="-4,4 -4,-82 270,-82 270,4 -4,4"/>
<!-- Node1 -->
<g id="node1" class="node"><title>Node1</title>
<g id="a_node1"><a xlink:title="All Elements that send out MIDI events. &#160;&#160;This includes potentiometers, faders, buttons,...">
<polygon fill="#bfbfbf" stroke="black" points="115,-48.5 7.10543e-15,-48.5 7.10543e-15,-29.5 115,-29.5 115,-48.5"/>
<text text-anchor="middle" x="57.5" y="-36.5" font-family="Helvetica,sans-Serif" font-size="10.00">MIDI Output Elements</text>
</a>
</g>
</g>
<!-- Node2 -->
<g id="node2" class="node"><title>Node2</title>
<g id="a_node2"><a xlink:href="../../d2/d00/group__BankableMIDIOutputElements.html" target="_top" xlink:title="All Elements that send out MIDI events, and that can be banked. &#160;&#160;This includes the bankable versions...">
<polygon fill="white" stroke="black" points="265.5,-78 151.5,-78 151.5,-48 265.5,-48 265.5,-78"/>
<text text-anchor="start" x="159.5" y="-66" font-family="Helvetica,sans-Serif" font-size="10.00">Bankable MIDI Output</text>
<text text-anchor="middle" x="208.5" y="-55" font-family="Helvetica,sans-Serif" font-size="10.00"> Elements</text>
</a>
</g>
</g>
<!-- Node1&#45;&gt;Node2 -->
<g id="edge1" class="edge"><title>Node1&#45;&gt;Node2</title>
<path fill="none" stroke="black" d="M125.37,-49.771C134.065,-51.1715 142.9,-52.5947 151.395,-53.963"/>
<polygon fill="black" stroke="black" points="125.685,-46.2767 115.256,-48.1418 124.572,-53.1876 125.685,-46.2767"/>
</g>
<!-- Node3 -->
<g id="node3" class="node"><title>Node3</title>
<g id="a_node3"><a xlink:href="../../d3/dc0/group__ManyAddressesMIDIOutputElements.html" target="_top" xlink:title="All Elements that send out MIDI events, and that can banked, with a list of arbitrary addresses....">
<polygon fill="white" stroke="black" points="266,-30 151,-30 151,-1.77636e-15 266,-1.77636e-15 266,-30"/>
<text text-anchor="start" x="159" y="-18" font-family="Helvetica,sans-Serif" font-size="10.00">Many Addresses MIDI</text>
<text text-anchor="middle" x="208.5" y="-7" font-family="Helvetica,sans-Serif" font-size="10.00"> Output Elements</text>
</a>
</g>
</g>
<!-- Node1&#45;&gt;Node3 -->
<g id="edge2" class="edge"><title>Node1&#45;&gt;Node3</title>
<path fill="none" stroke="black" d="M125.228,-28.2519C133.801,-26.871 142.513,-25.4678 150.902,-24.1164"/>
<polygon fill="black" stroke="black" points="124.572,-24.8124 115.256,-29.8582 125.685,-31.7233 124.572,-24.8124"/>
</g>
</g>
</svg>
