<?xml version="1.0" encoding="UTF-8" standalone="no"?>
<!DOCTYPE svg PUBLIC "-//W3C//DTD SVG 1.1//EN"
 "http://www.w3.org/Graphics/SVG/1.1/DTD/svg11.dtd">
<!-- Generated by graphviz version 2.43.0 (0)
 -->
<!-- Title: SSD1306_DisplayInterface Pages: 1 -->
<svg width="166pt" height="677pt"
 viewBox="0.00 0.00 166.00 677.00" xmlns="http://www.w3.org/2000/svg" xmlns:xlink="http://www.w3.org/1999/xlink">
<g id="graph0" class="graph" transform="scale(1 1) rotate(0) translate(4 673)">
<title>SSD1306_DisplayInterface</title>
<!-- Node1 -->
<g id="Node000001" class="node">
<title>Node1</title>
<g id="a_Node000001"><a xlink:title="This class creates a mapping between the Adafruit_SSD1306 display driver and the general display inte...">
<polygon fill="#999999" stroke="transparent" points="158,-229 0,-229 0,0 158,0 158,-229"/>
<text text-anchor="start" x="14" y="-216.5" font-family="Helvetica,sans-Serif" font-size="10.00">SSD1306_DisplayInterface</text>
<text text-anchor="start" x="4" y="-201.5" font-family="Helvetica,sans-Serif" font-size="10.00">#</text>
<text text-anchor="start" x="17" y="-201.5" font-family="Helvetica,sans-Serif" font-size="10.00">disp</text>
<text text-anchor="start" x="4" y="-186.5" font-family="Helvetica,sans-Serif" font-size="10.00">+</text>
<text text-anchor="start" x="17" y="-186.5" font-family="Helvetica,sans-Serif" font-size="10.00">clear()</text>
<text text-anchor="start" x="4" y="-171.5" font-family="Helvetica,sans-Serif" font-size="10.00">+</text>
<text text-anchor="start" x="17" y="-171.5" font-family="Helvetica,sans-Serif" font-size="10.00">drawBackground()</text>
<text text-anchor="start" x="4" y="-156.5" font-family="Helvetica,sans-Serif" font-size="10.00">+</text>
<text text-anchor="start" x="17" y="-156.5" font-family="Helvetica,sans-Serif" font-size="10.00">display()</text>
<text text-anchor="start" x="4" y="-141.5" font-family="Helvetica,sans-Serif" font-size="10.00">+</text>
<text text-anchor="start" x="17" y="-141.5" font-family="Helvetica,sans-Serif" font-size="10.00">drawPixel()</text>
<text text-anchor="start" x="4" y="-126.5" font-family="Helvetica,sans-Serif" font-size="10.00">+</text>
<text text-anchor="start" x="17" y="-126.5" font-family="Helvetica,sans-Serif" font-size="10.00">setTextColor()</text>
<text text-anchor="start" x="4" y="-111.5" font-family="Helvetica,sans-Serif" font-size="10.00">+</text>
<text text-anchor="start" x="17" y="-111.5" font-family="Helvetica,sans-Serif" font-size="10.00">setTextSize()</text>
<text text-anchor="start" x="4" y="-96.5" font-family="Helvetica,sans-Serif" font-size="10.00">+</text>
<text text-anchor="start" x="17" y="-96.5" font-family="Helvetica,sans-Serif" font-size="10.00">setCursor()</text>
<text text-anchor="start" x="4" y="-81.5" font-family="Helvetica,sans-Serif" font-size="10.00">+</text>
<text text-anchor="start" x="17" y="-81.5" font-family="Helvetica,sans-Serif" font-size="10.00">write()</text>
<text text-anchor="start" x="4" y="-66.5" font-family="Helvetica,sans-Serif" font-size="10.00">+</text>
<text text-anchor="start" x="17" y="-66.5" font-family="Helvetica,sans-Serif" font-size="10.00">drawLine()</text>
<text text-anchor="start" x="4" y="-51.5" font-family="Helvetica,sans-Serif" font-size="10.00">+</text>
<text text-anchor="start" x="17" y="-51.5" font-family="Helvetica,sans-Serif" font-size="10.00">drawFastVLine()</text>
<text text-anchor="start" x="4" y="-36.5" font-family="Helvetica,sans-Serif" font-size="10.00">+</text>
<text text-anchor="start" x="17" y="-36.5" font-family="Helvetica,sans-Serif" font-size="10.00">drawFastHLine()</text>
<text text-anchor="start" x="4" y="-21.5" font-family="Helvetica,sans-Serif" font-size="10.00">+</text>
<text text-anchor="start" x="17" y="-21.5" font-family="Helvetica,sans-Serif" font-size="10.00">drawXBitmap()</text>
<text text-anchor="start" x="4" y="-6.5" font-family="Helvetica,sans-Serif" font-size="10.00">#</text>
<text text-anchor="start" x="17" y="-6.5" font-family="Helvetica,sans-Serif" font-size="10.00">SSD1306_DisplayInterface()</text>
<polygon fill="#666666" stroke="#666666" points="0,-211.5 0,-211.5 158,-211.5 158,-211.5 0,-211.5"/>
<polygon fill="#666666" stroke="#666666" points="0,-196.5 0,-196.5 15,-196.5 15,-196.5 0,-196.5"/>
<polygon fill="#666666" stroke="#666666" points="15,-196.5 15,-196.5 158,-196.5 158,-196.5 15,-196.5"/>
<polygon fill="none" stroke="#666666" points="0,0 0,-229 158,-229 158,0 0,0"/>
</a>
</g>
</g>
<!-- Node2 -->
<g id="Node000002" class="node">
<title>Node2</title>
<g id="a_Node000002"><a xlink:href="../../df/d42/classDisplayInterface.html" target="_top" xlink:title="An interface for displays.">
<polygon fill="white" stroke="transparent" points="156.5,-584 1.5,-584 1.5,-265 156.5,-265 156.5,-584"/>
<text text-anchor="start" x="39" y="-571.5" font-family="Helvetica,sans-Serif" font-size="10.00">DisplayInterface</text>
<text text-anchor="start" x="77.5" y="-556.5" font-family="Helvetica,sans-Serif" font-size="10.00"> </text>
<text text-anchor="start" x="6" y="-541.5" font-family="Helvetica,sans-Serif" font-size="10.00">+</text>
<text text-anchor="start" x="19" y="-541.5" font-family="Helvetica,sans-Serif" font-size="10.00">~DisplayInterface()</text>
<text text-anchor="start" x="6" y="-526.5" font-family="Helvetica,sans-Serif" font-size="10.00">+</text>
<text text-anchor="start" x="19" y="-526.5" font-family="Helvetica,sans-Serif" font-size="10.00">begin()</text>
<text text-anchor="start" x="6" y="-511.5" font-family="Helvetica,sans-Serif" font-size="10.00">+</text>
<text text-anchor="start" x="19" y="-511.5" font-family="Helvetica,sans-Serif" font-size="10.00">clear()</text>
<text text-anchor="start" x="6" y="-496.5" font-family="Helvetica,sans-Serif" font-size="10.00">+</text>
<text text-anchor="start" x="19" y="-496.5" font-family="Helvetica,sans-Serif" font-size="10.00">drawBackground()</text>
<text text-anchor="start" x="6" y="-481.5" font-family="Helvetica,sans-Serif" font-size="10.00">+</text>
<text text-anchor="start" x="19" y="-481.5" font-family="Helvetica,sans-Serif" font-size="10.00">display()</text>
<text text-anchor="start" x="6" y="-466.5" font-family="Helvetica,sans-Serif" font-size="10.00">+</text>
<text text-anchor="start" x="19" y="-466.5" font-family="Helvetica,sans-Serif" font-size="10.00">drawPixel()</text>
<text text-anchor="start" x="6" y="-451.5" font-family="Helvetica,sans-Serif" font-size="10.00">+</text>
<text text-anchor="start" x="19" y="-451.5" font-family="Helvetica,sans-Serif" font-size="10.00">setTextColor()</text>
<text text-anchor="start" x="6" y="-436.5" font-family="Helvetica,sans-Serif" font-size="10.00">+</text>
<text text-anchor="start" x="19" y="-436.5" font-family="Helvetica,sans-Serif" font-size="10.00">setTextSize()</text>
<text text-anchor="start" x="6" y="-421.5" font-family="Helvetica,sans-Serif" font-size="10.00">+</text>
<text text-anchor="start" x="19" y="-421.5" font-family="Helvetica,sans-Serif" font-size="10.00">setCursor()</text>
<text text-anchor="start" x="6" y="-406.5" font-family="Helvetica,sans-Serif" font-size="10.00">+</text>
<text text-anchor="start" x="19" y="-406.5" font-family="Helvetica,sans-Serif" font-size="10.00">write()</text>
<text text-anchor="start" x="6" y="-391.5" font-family="Helvetica,sans-Serif" font-size="10.00">+</text>
<text text-anchor="start" x="19" y="-391.5" font-family="Helvetica,sans-Serif" font-size="10.00">drawLine()</text>
<text text-anchor="start" x="6" y="-376.5" font-family="Helvetica,sans-Serif" font-size="10.00">+</text>
<text text-anchor="start" x="19" y="-376.5" font-family="Helvetica,sans-Serif" font-size="10.00">drawFastVLine()</text>
<text text-anchor="start" x="6" y="-361.5" font-family="Helvetica,sans-Serif" font-size="10.00">+</text>
<text text-anchor="start" x="19" y="-361.5" font-family="Helvetica,sans-Serif" font-size="10.00">drawFastHLine()</text>
<text text-anchor="start" x="6" y="-346.5" font-family="Helvetica,sans-Serif" font-size="10.00">+</text>
<text text-anchor="start" x="19" y="-346.5" font-family="Helvetica,sans-Serif" font-size="10.00">drawXBitmap()</text>
<text text-anchor="start" x="6" y="-331.5" font-family="Helvetica,sans-Serif" font-size="10.00">+</text>
<text text-anchor="start" x="19" y="-331.5" font-family="Helvetica,sans-Serif" font-size="10.00">fillRect()</text>
<text text-anchor="start" x="6" y="-316.5" font-family="Helvetica,sans-Serif" font-size="10.00">+</text>
<text text-anchor="start" x="19" y="-316.5" font-family="Helvetica,sans-Serif" font-size="10.00">drawCircle()</text>
<text text-anchor="start" x="6" y="-301.5" font-family="Helvetica,sans-Serif" font-size="10.00">+</text>
<text text-anchor="start" x="19" y="-301.5" font-family="Helvetica,sans-Serif" font-size="10.00">fillCircle()</text>
<text text-anchor="start" x="6" y="-286.5" font-family="Helvetica,sans-Serif" font-size="10.00">+</text>
<text text-anchor="start" x="19" y="-286.5" font-family="Helvetica,sans-Serif" font-size="10.00">clearAndDrawBackground()</text>
<text text-anchor="start" x="6" y="-271.5" font-family="Helvetica,sans-Serif" font-size="10.00">#</text>
<text text-anchor="start" x="19" y="-271.5" font-family="Helvetica,sans-Serif" font-size="10.00">DisplayInterface()</text>
<polygon fill="#666666" stroke="#666666" points="2,-566.5 2,-566.5 157,-566.5 157,-566.5 2,-566.5"/>
<polygon fill="#666666" stroke="#666666" points="2,-551.5 2,-551.5 157,-551.5 157,-551.5 2,-551.5"/>
<polygon fill="none" stroke="#666666" points="1.5,-265 1.5,-584 156.5,-584 156.5,-265 1.5,-265"/>
</a>
</g>
</g>
<!-- Node2&#45;&gt;Node1 -->
<g id="edge1_Node000001_Node000002" class="edge">
<title>Node2&#45;&gt;Node1</title>
<g id="a_edge1_Node000001_Node000002"><a xlink:title=" ">
<path fill="none" stroke="#63b8ff" d="M79,-254.81C79,-246.15 79,-237.56 79,-229.14"/>
<polygon fill="none" stroke="#63b8ff" points="75.5,-254.99 79,-264.99 82.5,-254.99 75.5,-254.99"/>
</a>
</g>
</g>
<!-- Node3 -->
<g id="Node000003" class="node">
<title>Node3</title>
<g id="a_Node000003"><a xlink:title=" ">
<polygon fill="white" stroke="transparent" points="95.5,-669 62.5,-669 62.5,-620 95.5,-620 95.5,-669"/>
<text text-anchor="start" x="68" y="-656.5" font-family="Helvetica,sans-Serif" font-size="10.00">Print</text>
<text text-anchor="start" x="77.5" y="-641.5" font-family="Helvetica,sans-Serif" font-size="10.00"> </text>
<text text-anchor="start" x="77.5" y="-626.5" font-family="Helvetica,sans-Serif" font-size="10.00"> </text>
<polygon fill="#666666" stroke="#666666" points="63,-651.5 63,-651.5 96,-651.5 96,-651.5 63,-651.5"/>
<polygon fill="#666666" stroke="#666666" points="63,-636.5 63,-636.5 96,-636.5 96,-636.5 63,-636.5"/>
<polygon fill="none" stroke="#666666" points="62.5,-620 62.5,-669 95.5,-669 95.5,-620 62.5,-620"/>
</a>
</g>
</g>
<!-- Node3&#45;&gt;Node2 -->
<g id="edge2_Node000002_Node000003" class="edge">
<title>Node3&#45;&gt;Node2</title>
<g id="a_edge2_Node000002_Node000003"><a xlink:title=" ">
<path fill="none" stroke="#63b8ff" d="M79,-609.6C79,-601.94 79,-593.31 79,-584.08"/>
<polygon fill="none" stroke="#63b8ff" points="75.5,-609.76 79,-619.76 82.5,-609.76 75.5,-609.76"/>
</a>
</g>
</g>
</g>
</svg>
