<?xml version="1.0" encoding="UTF-8" standalone="no"?>
<!DOCTYPE svg PUBLIC "-//W3C//DTD SVG 1.1//EN"
 "http://www.w3.org/Graphics/SVG/1.1/DTD/svg11.dtd">
<!-- Generated by graphviz version 2.38.0 (20140413.2041)
 -->
<!-- Title: Bankable::CCButtonLatched Pages: 1 -->
<svg width="185pt" height="634pt"
 viewBox="0.00 0.00 185.00 634.00" xmlns="http://www.w3.org/2000/svg" xmlns:xlink="http://www.w3.org/1999/xlink">
<g id="graph0" class="graph" transform="scale(1 1) rotate(0) translate(4 630)">
<title>Bankable::CCButtonLatched</title>
<polygon fill="white" stroke="none" points="-4,4 -4,-630 181,-630 181,4 -4,4"/>
<!-- Node1 -->
<g id="node1" class="node"><title>Node1</title>
<g id="a_node1"><a xlink:title="A class of MIDIOutputElements that read the input of a momentary push button, and send out MIDI Contr...">
<polygon fill="#bfbfbf" stroke="black" points="18,-0.5 18,-57.5 159,-57.5 159,-0.5 18,-0.5"/>
<text text-anchor="middle" x="88.5" y="-45.5" font-family="Helvetica,sans-Serif" font-size="10.00">Bankable::CCButtonLatched</text>
<polyline fill="none" stroke="black" points="18,-38.5 159,-38.5 "/>
<text text-anchor="middle" x="88.5" y="-26.5" font-family="Helvetica,sans-Serif" font-size="10.00"> </text>
<polyline fill="none" stroke="black" points="18,-19.5 159,-19.5 "/>
<text text-anchor="start" x="26" y="-7.5" font-family="Helvetica,sans-Serif" font-size="10.00">+ CCButtonLatched()</text>
</a>
</g>
</g>
<!-- Node2 -->
<g id="node2" class="node"><title>Node2</title>
<g id="a_node2"><a xlink:href="../../df/dca/classBankable_1_1MIDIButtonLatched.html" target="_top" xlink:title=" ">
<polygon fill="white" stroke="black" points="-1.42109e-14,-94.5 -1.42109e-14,-261.5 177,-261.5 177,-94.5 -1.42109e-14,-94.5"/>
<text text-anchor="start" x="8" y="-249.5" font-family="Helvetica,sans-Serif" font-size="10.00">Bankable::MIDIButtonLatched</text>
<text text-anchor="middle" x="88.5" y="-238.5" font-family="Helvetica,sans-Serif" font-size="10.00">&lt; SingleAddress, DigitalCCSender &gt;</text>
<polyline fill="none" stroke="black" points="-1.42109e-14,-231.5 177,-231.5 "/>
<text text-anchor="start" x="8" y="-219.5" font-family="Helvetica,sans-Serif" font-size="10.00">+ sender</text>
<text text-anchor="start" x="8" y="-208.5" font-family="Helvetica,sans-Serif" font-size="10.00">&#45; address</text>
<text text-anchor="start" x="8" y="-197.5" font-family="Helvetica,sans-Serif" font-size="10.00">&#45; button</text>
<text text-anchor="start" x="8" y="-186.5" font-family="Helvetica,sans-Serif" font-size="10.00">&#45; state</text>
<polyline fill="none" stroke="black" points="-1.42109e-14,-179.5 177,-179.5 "/>
<text text-anchor="start" x="8" y="-167.5" font-family="Helvetica,sans-Serif" font-size="10.00">+ begin()</text>
<text text-anchor="start" x="8" y="-156.5" font-family="Helvetica,sans-Serif" font-size="10.00">+ update()</text>
<text text-anchor="start" x="8" y="-145.5" font-family="Helvetica,sans-Serif" font-size="10.00">+ toggleState()</text>
<text text-anchor="start" x="8" y="-134.5" font-family="Helvetica,sans-Serif" font-size="10.00">+ getState()</text>
<text text-anchor="start" x="8" y="-123.5" font-family="Helvetica,sans-Serif" font-size="10.00">+ setState()</text>
<text text-anchor="start" x="8" y="-112.5" font-family="Helvetica,sans-Serif" font-size="10.00">+ getButtonState()</text>
<text text-anchor="start" x="8" y="-101.5" font-family="Helvetica,sans-Serif" font-size="10.00"># MIDIButtonLatched()</text>
</a>
</g>
</g>
<!-- Node2&#45;&gt;Node1 -->
<g id="edge1" class="edge"><title>Node2&#45;&gt;Node1</title>
<path fill="none" stroke="midnightblue" d="M88.5,-84.3602C88.5,-74.7858 88.5,-65.6772 88.5,-57.7481"/>
<polygon fill="none" stroke="midnightblue" points="85.0001,-84.4763 88.5,-94.4763 92.0001,-84.4764 85.0001,-84.4763"/>
</g>
<!-- Node3 -->
<g id="node3" class="node"><title>Node3</title>
<g id="a_node3"><a xlink:href="../../d1/d55/classAH_1_1Updatable.html" target="_top" xlink:title=" ">
<polygon fill="white" stroke="black" points="36.5,-298.5 36.5,-509.5 140.5,-509.5 140.5,-298.5 36.5,-298.5"/>
<text text-anchor="middle" x="88.5" y="-497.5" font-family="Helvetica,sans-Serif" font-size="10.00">MIDIOutputElement</text>
<polyline fill="none" stroke="black" points="36.5,-490.5 140.5,-490.5 "/>
<text text-anchor="start" x="44.5" y="-478.5" font-family="Helvetica,sans-Serif" font-size="10.00">&#45; updatables</text>
<polyline fill="none" stroke="black" points="36.5,-471.5 140.5,-471.5 "/>
<text text-anchor="start" x="44.5" y="-459.5" font-family="Helvetica,sans-Serif" font-size="10.00">+ ~Updatable()</text>
<text text-anchor="start" x="44.5" y="-448.5" font-family="Helvetica,sans-Serif" font-size="10.00">+ update()</text>
<text text-anchor="start" x="44.5" y="-437.5" font-family="Helvetica,sans-Serif" font-size="10.00">+ begin()</text>
<text text-anchor="start" x="44.5" y="-426.5" font-family="Helvetica,sans-Serif" font-size="10.00">+ enable()</text>
<text text-anchor="start" x="44.5" y="-415.5" font-family="Helvetica,sans-Serif" font-size="10.00">+ disable()</text>
<text text-anchor="start" x="44.5" y="-404.5" font-family="Helvetica,sans-Serif" font-size="10.00">+ isEnabled()</text>
<text text-anchor="start" x="44.5" y="-393.5" font-family="Helvetica,sans-Serif" font-size="10.00">+ enable()</text>
<text text-anchor="start" x="44.5" y="-382.5" font-family="Helvetica,sans-Serif" font-size="10.00">+ enable()</text>
<text text-anchor="start" x="44.5" y="-371.5" font-family="Helvetica,sans-Serif" font-size="10.00">+ enable()</text>
<text text-anchor="start" x="44.5" y="-360.5" font-family="Helvetica,sans-Serif" font-size="10.00">+ disable()</text>
<text text-anchor="start" x="44.5" y="-349.5" font-family="Helvetica,sans-Serif" font-size="10.00">+ disable()</text>
<text text-anchor="start" x="44.5" y="-338.5" font-family="Helvetica,sans-Serif" font-size="10.00">+ disable()</text>
<text text-anchor="start" x="44.5" y="-327.5" font-family="Helvetica,sans-Serif" font-size="10.00">+ beginAll()</text>
<text text-anchor="start" x="44.5" y="-316.5" font-family="Helvetica,sans-Serif" font-size="10.00">+ updateAll()</text>
<text text-anchor="start" x="44.5" y="-305.5" font-family="Helvetica,sans-Serif" font-size="10.00"># Updatable()</text>
</a>
</g>
</g>
<!-- Node3&#45;&gt;Node2 -->
<g id="edge2" class="edge"><title>Node3&#45;&gt;Node2</title>
<path fill="none" stroke="midnightblue" d="M88.5,-288.113C88.5,-279.164 88.5,-270.24 88.5,-261.569"/>
<polygon fill="none" stroke="midnightblue" points="85.0001,-288.214 88.5,-298.214 92.0001,-288.214 85.0001,-288.214"/>
</g>
<!-- Node4 -->
<g id="node4" class="node"><title>Node4</title>
<g id="a_node4"><a xlink:href="../../d4/d23/classDoublyLinkable.html" target="_top" xlink:title=" ">
<polygon fill="white" stroke="black" points="20,-546.5 20,-625.5 157,-625.5 157,-546.5 20,-546.5"/>
<text text-anchor="start" x="28" y="-613.5" font-family="Helvetica,sans-Serif" font-size="10.00">DoublyLinkable&lt; Updatable</text>
<text text-anchor="middle" x="88.5" y="-602.5" font-family="Helvetica,sans-Serif" font-size="10.00">&lt; NormalUpdatable &gt; &gt;</text>
<polyline fill="none" stroke="black" points="20,-595.5 157,-595.5 "/>
<text text-anchor="start" x="28" y="-583.5" font-family="Helvetica,sans-Serif" font-size="10.00"># next</text>
<text text-anchor="start" x="28" y="-572.5" font-family="Helvetica,sans-Serif" font-size="10.00"># previous</text>
<polyline fill="none" stroke="black" points="20,-565.5 157,-565.5 "/>
<text text-anchor="start" x="28" y="-553.5" font-family="Helvetica,sans-Serif" font-size="10.00"># ~DoublyLinkable()</text>
</a>
</g>
</g>
<!-- Node4&#45;&gt;Node3 -->
<g id="edge3" class="edge"><title>Node4&#45;&gt;Node3</title>
<path fill="none" stroke="midnightblue" d="M88.5,-536.16C88.5,-527.809 88.5,-518.856 88.5,-509.694"/>
<polygon fill="none" stroke="midnightblue" points="85.0001,-536.385 88.5,-546.385 92.0001,-536.386 85.0001,-536.385"/>
</g>
</g>
</svg>
