<?xml version="1.0" encoding="UTF-8" standalone="no"?>
<!DOCTYPE svg PUBLIC "-//W3C//DTD SVG 1.1//EN"
 "http://www.w3.org/Graphics/SVG/1.1/DTD/svg11.dtd">
<!-- Generated by graphviz version 2.43.0 (0)
 -->
<!-- Title: Abstract Pages: 1 -->
<svg width="590pt" height="151pt"
 viewBox="0.00 0.00 589.50 151.00" xmlns="http://www.w3.org/2000/svg" xmlns:xlink="http://www.w3.org/1999/xlink">
<g id="graph0" class="graph" transform="scale(1 1) rotate(0) translate(4 147)">
<title>Abstract</title>
<polygon fill="white" stroke="transparent" points="-4,4 -4,-147 585.5,-147 585.5,4 -4,4"/>
<g id="clust1" class="cluster">
<title>clusterdir_44ddf4232b360beb1a0694523e04aed4</title>
<g id="a_clust1"><a xlink:href="dir_44ddf4232b360beb1a0694523e04aed4.html" target="_top" xlink:title="Bankable">
<polygon fill="#eef0f6" stroke="#7f7f7f" stroke-dasharray="5,2" points="210,-64 210,-135 284,-135 284,-64 210,-64"/>
<text text-anchor="middle" x="247" y="-123" font-family="Helvetica,sans-Serif" font-size="10.00">Bankable</text>
</a>
</g>
</g>
<!-- dir_17c7570321f71b5574e9cb129eeda335 -->
<g id="node1" class="node">
<title>dir_17c7570321f71b5574e9cb129eeda335</title>
<g id="a_node1"><a xlink:href="dir_17c7570321f71b5574e9cb129eeda335.html" target="_top" xlink:title="Abstract">
<polygon fill="#eef0f6" stroke="#404040" stroke-width="2" points="275.5,-108 218.5,-108 218.5,-72 275.5,-72 275.5,-108"/>
<text text-anchor="middle" x="247" y="-87.5" font-family="Helvetica,sans-Serif" font-size="10.00">Abstract</text>
</a>
</g>
</g>
<!-- dir_15b6432dff6a6d357bf70f8fbf2cdf14 -->
<g id="node2" class="node">
<title>dir_15b6432dff6a6d357bf70f8fbf2cdf14</title>
<g id="a_node2"><a xlink:href="dir_15b6432dff6a6d357bf70f8fbf2cdf14.html" target="_top" xlink:title="AH">
<polygon fill="none" stroke="red" stroke-dasharray="5,2" points="54,-36 0,-36 0,0 54,0 54,-36"/>
<text text-anchor="middle" x="27" y="-15.5" font-family="Helvetica,sans-Serif" font-size="10.00">AH</text>
</a>
</g>
</g>
<!-- dir_17c7570321f71b5574e9cb129eeda335&#45;&gt;dir_15b6432dff6a6d357bf70f8fbf2cdf14 -->
<g id="edge1" class="edge">
<title>dir_17c7570321f71b5574e9cb129eeda335&#45;&gt;dir_15b6432dff6a6d357bf70f8fbf2cdf14</title>
<path fill="none" stroke="black" d="M218.49,-82.3C183.78,-73.82 123.35,-58.02 63.86,-36.04"/>
<polygon fill="black" stroke="black" points="64.91,-32.7 54.32,-32.46 62.45,-39.25 64.91,-32.7"/>
<g id="a_edge1&#45;headlabel"><a xlink:href="dir_000001_000002.html" target="_top" xlink:title="13">
<text text-anchor="middle" x="69.28" y="-28.8" font-family="Helvetica,sans-Serif" font-size="10.00">13</text>
</a>
</g>
</g>
<!-- dir_4c1305a51ad6ea1ac7063bb4084ac14b -->
<g id="node3" class="node">
<title>dir_4c1305a51ad6ea1ac7063bb4084ac14b</title>
<g id="a_node3"><a xlink:href="dir_4c1305a51ad6ea1ac7063bb4084ac14b.html" target="_top" xlink:title="Abstract">
<polygon fill="none" stroke="#7f7f7f" points="129.5,-36 72.5,-36 72.5,0 129.5,0 129.5,-36"/>
<text text-anchor="middle" x="101" y="-15.5" font-family="Helvetica,sans-Serif" font-size="10.00">Abstract</text>
</a>
</g>
</g>
<!-- dir_17c7570321f71b5574e9cb129eeda335&#45;&gt;dir_4c1305a51ad6ea1ac7063bb4084ac14b -->
<g id="edge2" class="edge">
<title>dir_17c7570321f71b5574e9cb129eeda335&#45;&gt;dir_4c1305a51ad6ea1ac7063bb4084ac14b</title>
<path fill="none" stroke="black" d="M218.16,-75.17C195.46,-64.29 163.64,-49.03 138.89,-37.17"/>
<polygon fill="black" stroke="black" points="140.32,-33.97 129.78,-32.8 137.29,-40.28 140.32,-33.97"/>
<g id="a_edge2&#45;headlabel"><a xlink:href="dir_000001_000000.html" target="_top" xlink:title="13">
<text text-anchor="middle" x="144.78" y="-30.46" font-family="Helvetica,sans-Serif" font-size="10.00">13</text>
</a>
</g>
</g>
<!-- dir_96809ae32da64306a703eb7e36380126 -->
<g id="node4" class="node">
<title>dir_96809ae32da64306a703eb7e36380126</title>
<g id="a_node4"><a xlink:href="dir_96809ae32da64306a703eb7e36380126.html" target="_top" xlink:title="Banks">
<polygon fill="none" stroke="#7f7f7f" points="202,-36 148,-36 148,0 202,0 202,-36"/>
<text text-anchor="middle" x="175" y="-15.5" font-family="Helvetica,sans-Serif" font-size="10.00">Banks</text>
</a>
</g>
</g>
<!-- dir_17c7570321f71b5574e9cb129eeda335&#45;&gt;dir_96809ae32da64306a703eb7e36380126 -->
<g id="edge3" class="edge">
<title>dir_17c7570321f71b5574e9cb129eeda335&#45;&gt;dir_96809ae32da64306a703eb7e36380126</title>
<path fill="none" stroke="black" d="M229.2,-71.7C220.4,-63.14 209.62,-52.66 200,-43.3"/>
<polygon fill="black" stroke="black" points="202.2,-40.57 192.59,-36.1 197.32,-45.58 202.2,-40.57"/>
<g id="a_edge3&#45;headlabel"><a xlink:href="dir_000001_000005.html" target="_top" xlink:title="11">
<text text-anchor="middle" x="206.76" y="-38.54" font-family="Helvetica,sans-Serif" font-size="10.00">11</text>
</a>
</g>
</g>
<!-- dir_c90f87021e89d05236fc514cb49c4dcf -->
<g id="node5" class="node">
<title>dir_c90f87021e89d05236fc514cb49c4dcf</title>
<g id="a_node5"><a xlink:href="dir_c90f87021e89d05236fc514cb49c4dcf.html" target="_top" xlink:title="Def">
<polygon fill="none" stroke="#7f7f7f" points="274,-36 220,-36 220,0 274,0 274,-36"/>
<text text-anchor="middle" x="247" y="-15.5" font-family="Helvetica,sans-Serif" font-size="10.00">Def</text>
</a>
</g>
</g>
<!-- dir_17c7570321f71b5574e9cb129eeda335&#45;&gt;dir_c90f87021e89d05236fc514cb49c4dcf -->
<g id="edge4" class="edge">
<title>dir_17c7570321f71b5574e9cb129eeda335&#45;&gt;dir_c90f87021e89d05236fc514cb49c4dcf</title>
<path fill="none" stroke="black" d="M247,-71.7C247,-63.98 247,-54.71 247,-46.11"/>
<polygon fill="black" stroke="black" points="250.5,-46.1 247,-36.1 243.5,-46.1 250.5,-46.1"/>
<g id="a_edge4&#45;headlabel"><a xlink:href="dir_000001_000012.html" target="_top" xlink:title="13">
<text text-anchor="middle" x="253.34" y="-47.2" font-family="Helvetica,sans-Serif" font-size="10.00">13</text>
</a>
</g>
</g>
<!-- dir_d1912c7983f599f589f0119eae45b817 -->
<g id="node6" class="node">
<title>dir_d1912c7983f599f589f0119eae45b817</title>
<g id="a_node6"><a xlink:href="dir_d1912c7983f599f589f0119eae45b817.html" target="_top" xlink:title="MIDI_Constants">
<polygon fill="none" stroke="red" stroke-dasharray="5,2" points="385.5,-36 292.5,-36 292.5,0 385.5,0 385.5,-36"/>
<text text-anchor="middle" x="339" y="-15.5" font-family="Helvetica,sans-Serif" font-size="10.00">MIDI_Constants</text>
</a>
</g>
</g>
<!-- dir_17c7570321f71b5574e9cb129eeda335&#45;&gt;dir_d1912c7983f599f589f0119eae45b817 -->
<g id="edge5" class="edge">
<title>dir_17c7570321f71b5574e9cb129eeda335&#45;&gt;dir_d1912c7983f599f589f0119eae45b817</title>
<path fill="none" stroke="black" d="M269.74,-71.7C281.44,-62.8 295.86,-51.82 308.51,-42.2"/>
<polygon fill="black" stroke="black" points="310.68,-44.94 316.52,-36.1 306.44,-39.37 310.68,-44.94"/>
<g id="a_edge5&#45;headlabel"><a xlink:href="dir_000001_000034.html" target="_top" xlink:title="1">
<text text-anchor="middle" x="309.54" y="-46.88" font-family="Helvetica,sans-Serif" font-size="10.00">1</text>
</a>
</g>
</g>
<!-- dir_f5601f71f9b8dfdd9adc4acfaf93276a -->
<g id="node7" class="node">
<title>dir_f5601f71f9b8dfdd9adc4acfaf93276a</title>
<g id="a_node7"><a xlink:href="dir_f5601f71f9b8dfdd9adc4acfaf93276a.html" target="_top" xlink:title="MIDI_Senders">
<polygon fill="none" stroke="#7f7f7f" points="486.5,-36 403.5,-36 403.5,0 486.5,0 486.5,-36"/>
<text text-anchor="middle" x="445" y="-15.5" font-family="Helvetica,sans-Serif" font-size="10.00">MIDI_Senders</text>
</a>
</g>
</g>
<!-- dir_17c7570321f71b5574e9cb129eeda335&#45;&gt;dir_f5601f71f9b8dfdd9adc4acfaf93276a -->
<g id="edge6" class="edge">
<title>dir_17c7570321f71b5574e9cb129eeda335&#45;&gt;dir_f5601f71f9b8dfdd9adc4acfaf93276a</title>
<path fill="none" stroke="black" d="M275.79,-78.82C306.61,-67.93 356.13,-50.42 393.65,-37.15"/>
<polygon fill="black" stroke="black" points="395.14,-40.34 403.4,-33.71 392.8,-33.74 395.14,-40.34"/>
<g id="a_edge6&#45;headlabel"><a xlink:href="dir_000001_000039.html" target="_top" xlink:title="1">
<text text-anchor="middle" x="392.7" y="-41.72" font-family="Helvetica,sans-Serif" font-size="10.00">1</text>
</a>
</g>
</g>
<!-- dir_fa6aac357b09690b09adfbf9999fddaa -->
<g id="node8" class="node">
<title>dir_fa6aac357b09690b09adfbf9999fddaa</title>
<g id="a_node8"><a xlink:href="dir_fa6aac357b09690b09adfbf9999fddaa.html" target="_top" xlink:title="Submodules">
<polygon fill="none" stroke="red" stroke-dasharray="5,2" points="581.5,-36 504.5,-36 504.5,0 581.5,0 581.5,-36"/>
<text text-anchor="middle" x="543" y="-15.5" font-family="Helvetica,sans-Serif" font-size="10.00">Submodules</text>
</a>
</g>
</g>
<!-- dir_17c7570321f71b5574e9cb129eeda335&#45;&gt;dir_fa6aac357b09690b09adfbf9999fddaa -->
<g id="edge7" class="edge">
<title>dir_17c7570321f71b5574e9cb129eeda335&#45;&gt;dir_fa6aac357b09690b09adfbf9999fddaa</title>
<path fill="none" stroke="black" d="M275.69,-84.22C320.62,-76.44 410.4,-59.77 494.69,-36.19"/>
<polygon fill="black" stroke="black" points="495.74,-39.53 504.41,-33.43 493.83,-32.8 495.74,-39.53"/>
<g id="a_edge7&#45;headlabel"><a xlink:href="dir_000001_000046.html" target="_top" xlink:title="2">
<text text-anchor="middle" x="493.06" y="-40.74" font-family="Helvetica,sans-Serif" font-size="10.00">2</text>
</a>
</g>
</g>
</g>
</svg>
