<?xml version="1.0" encoding="UTF-8" standalone="no"?>
<!DOCTYPE svg PUBLIC "-//W3C//DTD SVG 1.1//EN"
 "http://www.w3.org/Graphics/SVG/1.1/DTD/svg11.dtd">
<!-- Generated by graphviz version 2.43.0 (0)
 -->
<!-- Title: MIDI_Inputs Pages: 1 -->
<svg width="490pt" height="196pt"
 viewBox="0.00 0.00 490.00 196.00" xmlns="http://www.w3.org/2000/svg" xmlns:xlink="http://www.w3.org/1999/xlink">
<g id="graph0" class="graph" transform="scale(1 1) rotate(0) translate(4 192)">
<title>MIDI_Inputs</title>
<g id="clust1" class="cluster">
<title>clusterdir_68267d1309a1af8e8297ef4c3efbcdba</title>
<g id="a_clust1"><a xlink:href="dir_68267d1309a1af8e8297ef4c3efbcdba.html" target="_top" xlink:title="src">
<polygon fill="#eef0f6" stroke="#404040" stroke-dasharray="5,2" points="8,-8 8,-180 474,-180 474,-8 8,-8"/>
<text text-anchor="middle" x="241" y="-168" font-family="Helvetica,sans-Serif" font-size="10.00">src</text>
</a>
</g>
</g>
<g id="clust2" class="cluster">
<title>clusterdir_4b65e0e927a600dbbefc4f76cc5a7f7c</title>
<g id="a_clust2"><a xlink:href="dir_4b65e0e927a600dbbefc4f76cc5a7f7c.html" target="_top">
<polygon fill="#eef0f6" stroke="#404040" stroke-width="2" points="16,-63 16,-153 166,-153 166,-63 16,-63"/>
</a>
</g>
</g>
<!-- dir_15b6432dff6a6d357bf70f8fbf2cdf14 -->
<g id="node1" class="node">
<title>dir_15b6432dff6a6d357bf70f8fbf2cdf14</title>
<g id="a_node1"><a xlink:href="dir_15b6432dff6a6d357bf70f8fbf2cdf14.html" target="_top" xlink:title="AH">
<polygon fill="#a7b5d1" stroke="red" points="99.5,-35 68.5,-35 68.5,-16 99.5,-16 99.5,-35"/>
<text text-anchor="middle" x="84" y="-23" font-family="Helvetica,sans-Serif" font-size="10.00">AH</text>
</a>
</g>
</g>
<!-- dir_87225e6cbcb4cf5309991212c88ac25b -->
<g id="node2" class="node">
<title>dir_87225e6cbcb4cf5309991212c88ac25b</title>
<g id="a_node2"><a xlink:href="dir_87225e6cbcb4cf5309991212c88ac25b.html" target="_top" xlink:title="Settings">
<polygon fill="#a7b5d1" stroke="#404040" points="230,-90 174,-90 174,-71 230,-71 230,-90"/>
<text text-anchor="middle" x="202" y="-78" font-family="Helvetica,sans-Serif" font-size="10.00">Settings</text>
</a>
</g>
</g>
<!-- dir_96809ae32da64306a703eb7e36380126 -->
<g id="node3" class="node">
<title>dir_96809ae32da64306a703eb7e36380126</title>
<g id="a_node3"><a xlink:href="dir_96809ae32da64306a703eb7e36380126.html" target="_top" xlink:title="Banks">
<polygon fill="#a7b5d1" stroke="#404040" points="367.5,-90 320.5,-90 320.5,-71 367.5,-71 367.5,-90"/>
<text text-anchor="middle" x="344" y="-78" font-family="Helvetica,sans-Serif" font-size="10.00">Banks</text>
</a>
</g>
</g>
<!-- dir_9c9f4aef8027530753ea2ed5df8d4f38 -->
<g id="node4" class="node">
<title>dir_9c9f4aef8027530753ea2ed5df8d4f38</title>
<g id="a_node4"><a xlink:href="dir_9c9f4aef8027530753ea2ed5df8d4f38.html" target="_top" xlink:title="MIDI_Parsers">
<polygon fill="#a7b5d1" stroke="#404040" points="466,-90 386,-90 386,-71 466,-71 466,-90"/>
<text text-anchor="middle" x="426" y="-78" font-family="Helvetica,sans-Serif" font-size="10.00">MIDI_Parsers</text>
</a>
</g>
</g>
<!-- dir_c90f87021e89d05236fc514cb49c4dcf -->
<g id="node5" class="node">
<title>dir_c90f87021e89d05236fc514cb49c4dcf</title>
<g id="a_node5"><a xlink:href="dir_c90f87021e89d05236fc514cb49c4dcf.html" target="_top" xlink:title="Def">
<polygon fill="#a7b5d1" stroke="#404040" points="282,-90 248,-90 248,-71 282,-71 282,-90"/>
<text text-anchor="middle" x="265" y="-78" font-family="Helvetica,sans-Serif" font-size="10.00">Def</text>
</a>
</g>
</g>
<!-- dir_4b65e0e927a600dbbefc4f76cc5a7f7c -->
<g id="node6" class="node">
<title>dir_4b65e0e927a600dbbefc4f76cc5a7f7c</title>
<text text-anchor="middle" x="121" y="-133" font-family="Helvetica,sans-Serif" font-size="10.00">MIDI_Inputs</text>
</g>
<!-- dir_4b65e0e927a600dbbefc4f76cc5a7f7c&#45;&gt;dir_15b6432dff6a6d357bf70f8fbf2cdf14 -->
<g id="edge1" class="edge">
<title>dir_4b65e0e927a600dbbefc4f76cc5a7f7c&#45;&gt;dir_15b6432dff6a6d357bf70f8fbf2cdf14</title>
<g id="a_edge1"><a xlink:href="dir_000039_000002.html" target="_top">
<path fill="none" stroke="#63b8ff" d="M158.32,-131.85C219.29,-126.15 329.79,-109.23 291,-63 268.11,-35.72 159.8,-28.82 109.62,-27.08"/>
<polygon fill="#63b8ff" stroke="#63b8ff" points="109.68,-23.58 99.58,-26.78 109.46,-30.58 109.68,-23.58"/>
</a>
</g>
<g id="a_edge1&#45;headlabel"><a xlink:href="dir_000039_000002.html" target="_top" xlink:title="15">
<text text-anchor="middle" x="113.36" y="-18.35" font-family="Helvetica,sans-Serif" font-size="10.00" fill="#63b8ff">15</text>
</a>
</g>
</g>
<!-- dir_4b65e0e927a600dbbefc4f76cc5a7f7c&#45;&gt;dir_87225e6cbcb4cf5309991212c88ac25b -->
<g id="edge2" class="edge">
<title>dir_4b65e0e927a600dbbefc4f76cc5a7f7c&#45;&gt;dir_87225e6cbcb4cf5309991212c88ac25b</title>
<g id="a_edge2"><a xlink:href="dir_000039_000048.html" target="_top">
<path fill="none" stroke="#63b8ff" d="M134.01,-125.98C146.46,-117.84 165.46,-105.41 180.21,-95.76"/>
<polygon fill="#63b8ff" stroke="#63b8ff" points="182.3,-98.57 188.75,-90.17 178.46,-92.72 182.3,-98.57"/>
</a>
</g>
<g id="a_edge2&#45;headlabel"><a xlink:href="dir_000039_000048.html" target="_top" xlink:title="2">
<text text-anchor="middle" x="180.84" y="-100.42" font-family="Helvetica,sans-Serif" font-size="10.00" fill="#63b8ff">2</text>
</a>
</g>
</g>
<!-- dir_4b65e0e927a600dbbefc4f76cc5a7f7c&#45;&gt;dir_96809ae32da64306a703eb7e36380126 -->
<g id="edge3" class="edge">
<title>dir_4b65e0e927a600dbbefc4f76cc5a7f7c&#45;&gt;dir_96809ae32da64306a703eb7e36380126</title>
<g id="a_edge3"><a xlink:href="dir_000039_000006.html" target="_top">
<path fill="none" stroke="#63b8ff" d="M156.83,-125.98C199.16,-115.92 269.06,-99.31 310.4,-89.49"/>
<polygon fill="#63b8ff" stroke="#63b8ff" points="311.34,-92.86 320.26,-87.14 309.72,-86.05 311.34,-92.86"/>
</a>
</g>
<g id="a_edge3&#45;headlabel"><a xlink:href="dir_000039_000006.html" target="_top" xlink:title="3">
<text text-anchor="middle" x="308.5" y="-93.95" font-family="Helvetica,sans-Serif" font-size="10.00" fill="#63b8ff">3</text>
</a>
</g>
</g>
<!-- dir_4b65e0e927a600dbbefc4f76cc5a7f7c&#45;&gt;dir_9c9f4aef8027530753ea2ed5df8d4f38 -->
<g id="edge4" class="edge">
<title>dir_4b65e0e927a600dbbefc4f76cc5a7f7c&#45;&gt;dir_9c9f4aef8027530753ea2ed5df8d4f38</title>
<g id="a_edge4"><a xlink:href="dir_000039_000042.html" target="_top">
<path fill="none" stroke="#63b8ff" d="M158.09,-128.05C212.57,-118.59 314.36,-100.9 375.58,-90.26"/>
<polygon fill="#63b8ff" stroke="#63b8ff" points="376.53,-93.65 385.78,-88.49 375.33,-86.75 376.53,-93.65"/>
</a>
</g>
<g id="a_edge4&#45;headlabel"><a xlink:href="dir_000039_000042.html" target="_top" xlink:title="1">
<text text-anchor="middle" x="373.47" y="-94.56" font-family="Helvetica,sans-Serif" font-size="10.00" fill="#63b8ff">1</text>
</a>
</g>
</g>
<!-- dir_4b65e0e927a600dbbefc4f76cc5a7f7c&#45;&gt;dir_c90f87021e89d05236fc514cb49c4dcf -->
<g id="edge5" class="edge">
<title>dir_4b65e0e927a600dbbefc4f76cc5a7f7c&#45;&gt;dir_c90f87021e89d05236fc514cb49c4dcf</title>
<g id="a_edge5"><a xlink:href="dir_000039_000014.html" target="_top">
<path fill="none" stroke="#63b8ff" d="M144.14,-125.98C169.8,-116.54 211.14,-101.32 238.19,-91.37"/>
<polygon fill="#63b8ff" stroke="#63b8ff" points="239.62,-94.57 247.8,-87.83 237.2,-88 239.62,-94.57"/>
</a>
</g>
<g id="a_edge5&#45;headlabel"><a xlink:href="dir_000039_000014.html" target="_top" xlink:title="2">
<text text-anchor="middle" x="237.23" y="-95.98" font-family="Helvetica,sans-Serif" font-size="10.00" fill="#63b8ff">2</text>
</a>
</g>
</g>
<!-- dir_99d6f7b7d8bb8b10aff5b424c27eafa5 -->
<g id="node7" class="node">
<title>dir_99d6f7b7d8bb8b10aff5b424c27eafa5</title>
<g id="a_node7"><a xlink:href="dir_99d6f7b7d8bb8b10aff5b424c27eafa5.html" target="_top" xlink:title="LEDs">
<polygon fill="#a7b5d1" stroke="#404040" points="65.5,-145 24.5,-145 24.5,-126 65.5,-126 65.5,-145"/>
<text text-anchor="middle" x="45" y="-133" font-family="Helvetica,sans-Serif" font-size="10.00">LEDs</text>
</a>
</g>
</g>
<!-- dir_99d6f7b7d8bb8b10aff5b424c27eafa5&#45;&gt;dir_15b6432dff6a6d357bf70f8fbf2cdf14 -->
<g id="edge6" class="edge">
<title>dir_99d6f7b7d8bb8b10aff5b424c27eafa5&#45;&gt;dir_15b6432dff6a6d357bf70f8fbf2cdf14</title>
<g id="a_edge6"><a xlink:href="dir_000029_000002.html" target="_top">
<path fill="none" stroke="#63b8ff" d="M52.2,-125.91C58.95,-117.36 68.77,-103.6 74,-90 79.57,-75.5 82.04,-57.99 83.13,-45.03"/>
<polygon fill="#63b8ff" stroke="#63b8ff" points="86.63,-45.21 83.78,-35.01 79.65,-44.76 86.63,-45.21"/>
</a>
</g>
<g id="a_edge6&#45;headlabel"><a xlink:href="dir_000029_000002.html" target="_top" xlink:title="10">
<text text-anchor="middle" x="89.23" y="-46.48" font-family="Helvetica,sans-Serif" font-size="10.00" fill="#63b8ff">10</text>
</a>
</g>
</g>
<!-- dir_99d6f7b7d8bb8b10aff5b424c27eafa5&#45;&gt;dir_87225e6cbcb4cf5309991212c88ac25b -->
<g id="edge7" class="edge">
<title>dir_99d6f7b7d8bb8b10aff5b424c27eafa5&#45;&gt;dir_87225e6cbcb4cf5309991212c88ac25b</title>
<g id="a_edge7"><a xlink:href="dir_000029_000048.html" target="_top">
<path fill="none" stroke="#63b8ff" d="M65.53,-127.57C91.33,-118.86 136,-103.78 167.19,-93.25"/>
<polygon fill="#63b8ff" stroke="#63b8ff" points="168.44,-96.52 176.8,-90.01 166.2,-89.89 168.44,-96.52"/>
</a>
</g>
<g id="a_edge7&#45;headlabel"><a xlink:href="dir_000029_000048.html" target="_top" xlink:title="1">
<text text-anchor="middle" x="165.94" y="-97.86" font-family="Helvetica,sans-Serif" font-size="10.00" fill="#63b8ff">1</text>
</a>
</g>
</g>
<!-- dir_046483ea20191d09651a99698d6396a9 -->
<g id="node8" class="node">
<title>dir_046483ea20191d09651a99698d6396a9</title>
<g id="a_node8"><a xlink:href="dir_046483ea20191d09651a99698d6396a9.html" target="_top" xlink:title="MCU">
<polygon fill="#a7b5d1" stroke="#404040" points="65,-90 25,-90 25,-71 65,-71 65,-90"/>
<text text-anchor="middle" x="45" y="-78" font-family="Helvetica,sans-Serif" font-size="10.00">MCU</text>
</a>
</g>
</g>
<!-- dir_99d6f7b7d8bb8b10aff5b424c27eafa5&#45;&gt;dir_046483ea20191d09651a99698d6396a9 -->
<g id="edge8" class="edge">
<title>dir_99d6f7b7d8bb8b10aff5b424c27eafa5&#45;&gt;dir_046483ea20191d09651a99698d6396a9</title>
<g id="a_edge8"><a xlink:href="dir_000029_000037.html" target="_top">
<path fill="none" stroke="#63b8ff" d="M45,-125.75C45,-118.8 45,-108.85 45,-100.13"/>
<polygon fill="#63b8ff" stroke="#63b8ff" points="48.5,-100.09 45,-90.09 41.5,-100.09 48.5,-100.09"/>
</a>
</g>
<g id="a_edge8&#45;headlabel"><a xlink:href="dir_000029_000037.html" target="_top" xlink:title="2">
<text text-anchor="middle" x="51.34" y="-101.18" font-family="Helvetica,sans-Serif" font-size="10.00" fill="#63b8ff">2</text>
</a>
</g>
</g>
<!-- dir_046483ea20191d09651a99698d6396a9&#45;&gt;dir_15b6432dff6a6d357bf70f8fbf2cdf14 -->
<g id="edge9" class="edge">
<title>dir_046483ea20191d09651a99698d6396a9&#45;&gt;dir_15b6432dff6a6d357bf70f8fbf2cdf14</title>
<g id="a_edge9"><a xlink:href="dir_000037_000002.html" target="_top">
<path fill="none" stroke="#63b8ff" d="M51.44,-70.75C56.89,-63.34 64.86,-52.5 71.56,-43.41"/>
<polygon fill="#63b8ff" stroke="#63b8ff" points="74.57,-45.22 77.68,-35.09 68.93,-41.07 74.57,-45.22"/>
</a>
</g>
<g id="a_edge9&#45;headlabel"><a xlink:href="dir_000037_000002.html" target="_top" xlink:title="4">
<text text-anchor="middle" x="74.73" y="-47.3" font-family="Helvetica,sans-Serif" font-size="10.00" fill="#63b8ff">4</text>
</a>
</g>
</g>
</g>
</svg>
