<?xml version="1.0" encoding="UTF-8" standalone="no"?>
<!DOCTYPE svg PUBLIC "-//W3C//DTD SVG 1.1//EN"
 "http://www.w3.org/Graphics/SVG/1.1/DTD/svg11.dtd">
<!-- Generated by graphviz version 2.43.0 (0)
 -->
<!-- Title: PBValue Pages: 1 -->
<svg width="422pt" height="1247pt"
 viewBox="0.00 0.00 421.50 1247.00" xmlns="http://www.w3.org/2000/svg" xmlns:xlink="http://www.w3.org/1999/xlink">
<g id="graph0" class="graph" transform="scale(1 1) rotate(0) translate(4 1243)">
<title>PBValue</title>
<!-- Node1 -->
<g id="Node000001" class="node">
<title>Node1</title>
<g id="a_Node000001"><a xlink:title="Class that listens for MIDI Pitch Bend events on a single address and saves their value.">
<polygon fill="#999999" stroke="transparent" points="352.5,-94 255.5,-94 255.5,0 352.5,0 352.5,-94"/>
<text text-anchor="start" x="284.5" y="-82" font-family="Helvetica,sans-Serif" font-size="10.00">PBValue</text>
<text text-anchor="start" x="262.5" y="-67" font-family="Helvetica,sans-Serif" font-size="10.00">&#45;</text>
<text text-anchor="start" x="273" y="-67" font-family="Helvetica,sans-Serif" font-size="10.00">value</text>
<text text-anchor="start" x="260" y="-52" font-family="Helvetica,sans-Serif" font-size="10.00">+</text>
<text text-anchor="start" x="273" y="-52" font-family="Helvetica,sans-Serif" font-size="10.00">PBValue()</text>
<text text-anchor="start" x="260" y="-37" font-family="Helvetica,sans-Serif" font-size="10.00">+</text>
<text text-anchor="start" x="273" y="-37" font-family="Helvetica,sans-Serif" font-size="10.00">reset()</text>
<text text-anchor="start" x="260" y="-22" font-family="Helvetica,sans-Serif" font-size="10.00">#</text>
<text text-anchor="start" x="273" y="-22" font-family="Helvetica,sans-Serif" font-size="10.00">handleUpdate()</text>
<text text-anchor="start" x="261.5" y="-7" font-family="Helvetica,sans-Serif" font-size="10.00">*</text>
<text text-anchor="start" x="273" y="-7" font-family="Helvetica,sans-Serif" font-size="10.00">getValue()</text>
<polygon fill="#666666" stroke="#666666" points="256,-77 256,-77 353,-77 353,-77 256,-77"/>
<polygon fill="#666666" stroke="#666666" points="256,-62 256,-62 271,-62 271,-62 256,-62"/>
<polygon fill="#666666" stroke="#666666" points="271,-62 271,-62 353,-62 353,-62 271,-62"/>
<polygon fill="none" stroke="#666666" points="255.5,0 255.5,-94 352.5,-94 352.5,0 255.5,0"/>
</a>
</g>
</g>
<!-- Node2 -->
<g id="Node000002" class="node">
<title>Node2</title>
<g id="a_Node000002"><a xlink:href="../../d5/dae/classMatchingMIDIInputElement.html" target="_top" xlink:title=" ">
<polygon fill="white" stroke="transparent" points="318,-427 150,-427 150,-131 318,-131 318,-427"/>
<text text-anchor="start" x="155" y="-415" font-family="Helvetica,sans-Serif" font-size="10.00">MatchingMIDIInputElement</text>
<text text-anchor="start" x="155" y="-404" font-family="Helvetica,sans-Serif" font-size="10.00">&lt; MIDIMessageType::PitchBend,</text>
<text text-anchor="start" x="171" y="-393" font-family="Helvetica,sans-Serif" font-size="10.00"> PitchBendMIDIMatcher &gt;</text>
<text text-anchor="start" x="155.5" y="-378" font-family="Helvetica,sans-Serif" font-size="10.00">#</text>
<text text-anchor="start" x="170" y="-378" font-family="Helvetica,sans-Serif" font-size="10.00">next</text>
<text text-anchor="start" x="155.5" y="-363" font-family="Helvetica,sans-Serif" font-size="10.00">#</text>
<text text-anchor="start" x="170" y="-363" font-family="Helvetica,sans-Serif" font-size="10.00">previous</text>
<text text-anchor="start" x="155.5" y="-348" font-family="Helvetica,sans-Serif" font-size="10.00">#</text>
<text text-anchor="start" x="170" y="-348" font-family="Helvetica,sans-Serif" font-size="10.00">updatables</text>
<text text-anchor="start" x="155.5" y="-333" font-family="Helvetica,sans-Serif" font-size="10.00">+</text>
<text text-anchor="start" x="170" y="-333" font-family="Helvetica,sans-Serif" font-size="10.00">updateWith()</text>
<text text-anchor="start" x="155.5" y="-318" font-family="Helvetica,sans-Serif" font-size="10.00">+</text>
<text text-anchor="start" x="170" y="-318" font-family="Helvetica,sans-Serif" font-size="10.00">handleUpdate()</text>
<text text-anchor="start" x="155.5" y="-303" font-family="Helvetica,sans-Serif" font-size="10.00">+</text>
<text text-anchor="start" x="170" y="-303" font-family="Helvetica,sans-Serif" font-size="10.00">begin()</text>
<text text-anchor="start" x="155.5" y="-288" font-family="Helvetica,sans-Serif" font-size="10.00">+</text>
<text text-anchor="start" x="170" y="-288" font-family="Helvetica,sans-Serif" font-size="10.00">reset()</text>
<text text-anchor="start" x="155.5" y="-273" font-family="Helvetica,sans-Serif" font-size="10.00">+</text>
<text text-anchor="start" x="170" y="-273" font-family="Helvetica,sans-Serif" font-size="10.00">update()</text>
<text text-anchor="start" x="155.5" y="-258" font-family="Helvetica,sans-Serif" font-size="10.00">+</text>
<text text-anchor="start" x="170" y="-258" font-family="Helvetica,sans-Serif" font-size="10.00">updateAllWith()</text>
<text text-anchor="start" x="155.5" y="-243" font-family="Helvetica,sans-Serif" font-size="10.00">+</text>
<text text-anchor="start" x="170" y="-243" font-family="Helvetica,sans-Serif" font-size="10.00">updateAll()</text>
<text text-anchor="start" x="155.5" y="-228" font-family="Helvetica,sans-Serif" font-size="10.00">+</text>
<text text-anchor="start" x="170" y="-228" font-family="Helvetica,sans-Serif" font-size="10.00">beginAll()</text>
<text text-anchor="start" x="155.5" y="-213" font-family="Helvetica,sans-Serif" font-size="10.00">+</text>
<text text-anchor="start" x="170" y="-213" font-family="Helvetica,sans-Serif" font-size="10.00">resetAll()</text>
<text text-anchor="start" x="155.5" y="-198" font-family="Helvetica,sans-Serif" font-size="10.00">#</text>
<text text-anchor="start" x="170" y="-198" font-family="Helvetica,sans-Serif" font-size="10.00">MatchingMIDIInputElement()</text>
<text text-anchor="start" x="157" y="-183" font-family="Helvetica,sans-Serif" font-size="10.00">*</text>
<text text-anchor="start" x="170" y="-183" font-family="Helvetica,sans-Serif" font-size="10.00">enable()</text>
<text text-anchor="start" x="157" y="-168" font-family="Helvetica,sans-Serif" font-size="10.00">*</text>
<text text-anchor="start" x="170" y="-168" font-family="Helvetica,sans-Serif" font-size="10.00">disable()</text>
<text text-anchor="start" x="157" y="-153" font-family="Helvetica,sans-Serif" font-size="10.00">*</text>
<text text-anchor="start" x="170" y="-153" font-family="Helvetica,sans-Serif" font-size="10.00">isEnabled()</text>
<text text-anchor="start" x="157" y="-138" font-family="Helvetica,sans-Serif" font-size="10.00">*</text>
<text text-anchor="start" x="170" y="-138" font-family="Helvetica,sans-Serif" font-size="10.00">moveDown()</text>
<polygon fill="#666666" stroke="#666666" points="150,-388 150,-388 318,-388 318,-388 150,-388"/>
<polygon fill="#666666" stroke="#666666" points="150,-343 150,-343 168,-343 168,-343 150,-343"/>
<polygon fill="#666666" stroke="#666666" points="168,-343 168,-343 318,-343 318,-343 168,-343"/>
<polygon fill="none" stroke="#666666" points="150,-131 150,-427 318,-427 318,-131 150,-131"/>
</a>
</g>
</g>
<!-- Node2&#45;&gt;Node1 -->
<g id="edge1_Node000001_Node000002" class="edge">
<title>Node2&#45;&gt;Node1</title>
<g id="a_edge1_Node000001_Node000002"><a xlink:title=" ">
<path fill="none" stroke="#63b8ff" d="M281.75,-121.09C284.64,-111.61 287.39,-102.57 289.92,-94.28"/>
<polygon fill="none" stroke="#63b8ff" points="278.39,-120.12 278.83,-130.71 285.09,-122.16 278.39,-120.12"/>
</a>
</g>
</g>
<!-- Node3 -->
<g id="Node000003" class="node">
<title>Node3</title>
<g id="a_Node000003"><a xlink:href="../../d9/db1/classMIDIInputElement.html" target="_top" xlink:title="A class for objects that listen for incoming MIDI events.">
<polygon fill="white" stroke="transparent" points="226.5,-664 83.5,-664 83.5,-480 226.5,-480 226.5,-664"/>
<text text-anchor="start" x="89" y="-652" font-family="Helvetica,sans-Serif" font-size="10.00">MIDIInputElement&lt; Type &gt;</text>
<text text-anchor="start" x="153.5" y="-637" font-family="Helvetica,sans-Serif" font-size="10.00"> </text>
<text text-anchor="start" x="92.5" y="-622" font-family="Helvetica,sans-Serif" font-size="10.00">+</text>
<text text-anchor="start" x="110" y="-622" font-family="Helvetica,sans-Serif" font-size="10.00">~MIDIInputElement()</text>
<text text-anchor="start" x="92.5" y="-607" font-family="Helvetica,sans-Serif" font-size="10.00">+</text>
<text text-anchor="start" x="110" y="-607" font-family="Helvetica,sans-Serif" font-size="10.00">begin()</text>
<text text-anchor="start" x="92.5" y="-592" font-family="Helvetica,sans-Serif" font-size="10.00">+</text>
<text text-anchor="start" x="110" y="-592" font-family="Helvetica,sans-Serif" font-size="10.00">reset()</text>
<text text-anchor="start" x="92.5" y="-577" font-family="Helvetica,sans-Serif" font-size="10.00">+</text>
<text text-anchor="start" x="110" y="-577" font-family="Helvetica,sans-Serif" font-size="10.00">update()</text>
<text text-anchor="start" x="92.5" y="-562" font-family="Helvetica,sans-Serif" font-size="10.00">+</text>
<text text-anchor="start" x="110" y="-562" font-family="Helvetica,sans-Serif" font-size="10.00">updateWith()</text>
<text text-anchor="start" x="92.5" y="-547" font-family="Helvetica,sans-Serif" font-size="10.00">+</text>
<text text-anchor="start" x="110" y="-547" font-family="Helvetica,sans-Serif" font-size="10.00">updateAllWith()</text>
<text text-anchor="start" x="92.5" y="-532" font-family="Helvetica,sans-Serif" font-size="10.00">+</text>
<text text-anchor="start" x="110" y="-532" font-family="Helvetica,sans-Serif" font-size="10.00">updateAll()</text>
<text text-anchor="start" x="92.5" y="-517" font-family="Helvetica,sans-Serif" font-size="10.00">+</text>
<text text-anchor="start" x="110" y="-517" font-family="Helvetica,sans-Serif" font-size="10.00">beginAll()</text>
<text text-anchor="start" x="92.5" y="-502" font-family="Helvetica,sans-Serif" font-size="10.00">+</text>
<text text-anchor="start" x="110" y="-502" font-family="Helvetica,sans-Serif" font-size="10.00">resetAll()</text>
<text text-anchor="start" x="92.5" y="-487" font-family="Helvetica,sans-Serif" font-size="10.00">#</text>
<text text-anchor="start" x="110" y="-487" font-family="Helvetica,sans-Serif" font-size="10.00">MIDIInputElement()</text>
<polygon fill="#666666" stroke="#666666" points="84,-647 84,-647 227,-647 227,-647 84,-647"/>
<polygon fill="#666666" stroke="#666666" points="84,-632 84,-632 227,-632 227,-632 84,-632"/>
<polygon fill="none" stroke="#666666" points="83.5,-480 83.5,-664 226.5,-664 226.5,-480 83.5,-480"/>
</a>
</g>
</g>
<!-- Node3&#45;&gt;Node2 -->
<g id="edge2_Node000002_Node000003" class="edge">
<title>Node3&#45;&gt;Node2</title>
<g id="a_edge2_Node000002_Node000003"><a xlink:title=" ">
<path fill="none" stroke="#63b8ff" d="M182.48,-469.79C186.22,-455.99 190.13,-441.61 194.04,-427.2"/>
<polygon fill="none" stroke="#63b8ff" points="179.02,-469.16 179.78,-479.72 185.78,-470.99 179.02,-469.16"/>
</a>
</g>
</g>
<!-- Node4 -->
<g id="Node000004" class="node">
<title>Node4</title>
<g id="a_Node000004"><a xlink:href="../../d8/d1a/classAH_1_1UpdatableCRTP.html" target="_top" xlink:title=" ">
<polygon fill="white" stroke="transparent" points="227,-914 83,-914 83,-749 227,-749 227,-914"/>
<text text-anchor="start" x="88" y="-901.5" font-family="Helvetica,sans-Serif" font-size="10.00">UpdatableCRTP&lt; MIDIInput</text>
<text text-anchor="start" x="106.5" y="-890.5" font-family="Helvetica,sans-Serif" font-size="10.00">Element&lt; Type &gt; &gt;</text>
<text text-anchor="start" x="95" y="-875.5" font-family="Helvetica,sans-Serif" font-size="10.00">#</text>
<text text-anchor="start" x="116" y="-875.5" font-family="Helvetica,sans-Serif" font-size="10.00">next</text>
<text text-anchor="start" x="95" y="-860.5" font-family="Helvetica,sans-Serif" font-size="10.00">#</text>
<text text-anchor="start" x="116" y="-860.5" font-family="Helvetica,sans-Serif" font-size="10.00">previous</text>
<text text-anchor="start" x="95" y="-845.5" font-family="Helvetica,sans-Serif" font-size="10.00">+</text>
<text text-anchor="start" x="116" y="-845.5" font-family="Helvetica,sans-Serif" font-size="10.00">~UpdatableCRTP()</text>
<text text-anchor="start" x="95" y="-830.5" font-family="Helvetica,sans-Serif" font-size="10.00">#</text>
<text text-anchor="start" x="116" y="-830.5" font-family="Helvetica,sans-Serif" font-size="10.00">UpdatableCRTP()</text>
<text text-anchor="start" x="95" y="-815.5" font-family="Helvetica,sans-Serif" font-size="10.00">#</text>
<text text-anchor="start" x="116" y="-815.5" font-family="Helvetica,sans-Serif" font-size="10.00">operator=()</text>
<text text-anchor="start" x="96.5" y="-800.5" font-family="Helvetica,sans-Serif" font-size="10.00">*</text>
<text text-anchor="start" x="116" y="-800.5" font-family="Helvetica,sans-Serif" font-size="10.00">enable()</text>
<text text-anchor="start" x="96.5" y="-785.5" font-family="Helvetica,sans-Serif" font-size="10.00">*</text>
<text text-anchor="start" x="116" y="-785.5" font-family="Helvetica,sans-Serif" font-size="10.00">disable()</text>
<text text-anchor="start" x="96.5" y="-770.5" font-family="Helvetica,sans-Serif" font-size="10.00">*</text>
<text text-anchor="start" x="116" y="-770.5" font-family="Helvetica,sans-Serif" font-size="10.00">isEnabled()</text>
<text text-anchor="start" x="96.5" y="-755.5" font-family="Helvetica,sans-Serif" font-size="10.00">*</text>
<text text-anchor="start" x="116" y="-755.5" font-family="Helvetica,sans-Serif" font-size="10.00">moveDown()</text>
<polygon fill="#666666" stroke="#666666" points="83,-885.5 83,-885.5 227,-885.5 227,-885.5 83,-885.5"/>
<polygon fill="#666666" stroke="#666666" points="83,-855.5 83,-855.5 114,-855.5 114,-855.5 83,-855.5"/>
<polygon fill="#666666" stroke="#666666" points="114,-855.5 114,-855.5 227,-855.5 227,-855.5 114,-855.5"/>
<polygon fill="none" stroke="#666666" points="83,-749 83,-914 227,-914 227,-749 83,-749"/>
</a>
</g>
</g>
<!-- Node4&#45;&gt;Node3 -->
<g id="edge3_Node000003_Node000004" class="edge">
<title>Node4&#45;&gt;Node3</title>
<g id="a_edge3_Node000003_Node000004"><a xlink:title=" ">
<path fill="none" stroke="#63b8ff" d="M155,-738.43C155,-714.23 155,-688.15 155,-664"/>
<polygon fill="none" stroke="#63b8ff" points="151.5,-738.67 155,-748.67 158.5,-738.67 151.5,-738.67"/>
</a>
</g>
</g>
<!-- Node5 -->
<g id="Node000005" class="node">
<title>Node5</title>
<g id="a_Node000005"><a xlink:href="../../d4/d23/classDoublyLinkable.html" target="_top" xlink:title=" ">
<polygon fill="white" stroke="transparent" points="144,-1171.5 0,-1171.5 0,-1066.5 144,-1066.5 144,-1171.5"/>
<text text-anchor="start" x="5" y="-1159" font-family="Helvetica,sans-Serif" font-size="10.00">DoublyLinkable&lt; MIDIInput</text>
<text text-anchor="start" x="23.5" y="-1148" font-family="Helvetica,sans-Serif" font-size="10.00">Element&lt; Type &gt; &gt;</text>
<text text-anchor="start" x="12" y="-1133" font-family="Helvetica,sans-Serif" font-size="10.00">#</text>
<text text-anchor="start" x="33" y="-1133" font-family="Helvetica,sans-Serif" font-size="10.00">next</text>
<text text-anchor="start" x="12" y="-1118" font-family="Helvetica,sans-Serif" font-size="10.00">#</text>
<text text-anchor="start" x="33" y="-1118" font-family="Helvetica,sans-Serif" font-size="10.00">previous</text>
<text text-anchor="start" x="12" y="-1103" font-family="Helvetica,sans-Serif" font-size="10.00">#</text>
<text text-anchor="start" x="33" y="-1103" font-family="Helvetica,sans-Serif" font-size="10.00">~DoublyLinkable()</text>
<text text-anchor="start" x="12" y="-1088" font-family="Helvetica,sans-Serif" font-size="10.00">#</text>
<text text-anchor="start" x="33" y="-1088" font-family="Helvetica,sans-Serif" font-size="10.00">DoublyLinkable()</text>
<text text-anchor="start" x="12" y="-1073" font-family="Helvetica,sans-Serif" font-size="10.00">#</text>
<text text-anchor="start" x="33" y="-1073" font-family="Helvetica,sans-Serif" font-size="10.00">operator=()</text>
<polygon fill="#666666" stroke="#666666" points="0,-1143 0,-1143 144,-1143 144,-1143 0,-1143"/>
<polygon fill="#666666" stroke="#666666" points="0,-1113 0,-1113 31,-1113 31,-1113 0,-1113"/>
<polygon fill="#666666" stroke="#666666" points="31,-1113 31,-1113 144,-1113 144,-1113 31,-1113"/>
<polygon fill="none" stroke="#666666" points="0,-1066.5 0,-1171.5 144,-1171.5 144,-1066.5 0,-1066.5"/>
</a>
</g>
</g>
<!-- Node5&#45;&gt;Node4 -->
<g id="edge4_Node000004_Node000005" class="edge">
<title>Node5&#45;&gt;Node4</title>
<g id="a_edge4_Node000004_Node000005"><a xlink:title=" ">
<path fill="none" stroke="#63b8ff" d="M89.86,-1056.56C101.97,-1014.91 118.11,-959.41 131.29,-914.06"/>
<polygon fill="none" stroke="#63b8ff" points="86.46,-1055.72 87.03,-1066.3 93.18,-1057.67 86.46,-1055.72"/>
</a>
</g>
</g>
<!-- Node6 -->
<g id="Node000006" class="node">
<title>Node6</title>
<g id="a_Node000006"><a xlink:href="../../dd/d16/classDoublyLinkedList.html" target="_top" xlink:title=" ">
<polygon fill="white" stroke="transparent" points="314,-1239 162,-1239 162,-999 314,-999 314,-1239"/>
<text text-anchor="start" x="167" y="-1227" font-family="Helvetica,sans-Serif" font-size="10.00">DoublyLinkedList&lt; MIDIInput</text>
<text text-anchor="start" x="189.5" y="-1216" font-family="Helvetica,sans-Serif" font-size="10.00">Element&lt; Type &gt; &gt;</text>
<text text-anchor="start" x="183" y="-1201" font-family="Helvetica,sans-Serif" font-size="10.00">&#45;</text>
<text text-anchor="start" x="208" y="-1201" font-family="Helvetica,sans-Serif" font-size="10.00">first</text>
<text text-anchor="start" x="183" y="-1186" font-family="Helvetica,sans-Serif" font-size="10.00">&#45;</text>
<text text-anchor="start" x="208" y="-1186" font-family="Helvetica,sans-Serif" font-size="10.00">last</text>
<text text-anchor="start" x="180.5" y="-1171" font-family="Helvetica,sans-Serif" font-size="10.00">+</text>
<text text-anchor="start" x="208" y="-1171" font-family="Helvetica,sans-Serif" font-size="10.00">append()</text>
<text text-anchor="start" x="180.5" y="-1156" font-family="Helvetica,sans-Serif" font-size="10.00">+</text>
<text text-anchor="start" x="208" y="-1156" font-family="Helvetica,sans-Serif" font-size="10.00">insertBefore()</text>
<text text-anchor="start" x="180.5" y="-1141" font-family="Helvetica,sans-Serif" font-size="10.00">+</text>
<text text-anchor="start" x="208" y="-1141" font-family="Helvetica,sans-Serif" font-size="10.00">insertSorted()</text>
<text text-anchor="start" x="180.5" y="-1126" font-family="Helvetica,sans-Serif" font-size="10.00">+</text>
<text text-anchor="start" x="208" y="-1126" font-family="Helvetica,sans-Serif" font-size="10.00">remove()</text>
<text text-anchor="start" x="180.5" y="-1111" font-family="Helvetica,sans-Serif" font-size="10.00">+</text>
<text text-anchor="start" x="208" y="-1111" font-family="Helvetica,sans-Serif" font-size="10.00">moveDown()</text>
<text text-anchor="start" x="180.5" y="-1096" font-family="Helvetica,sans-Serif" font-size="10.00">+</text>
<text text-anchor="start" x="208" y="-1096" font-family="Helvetica,sans-Serif" font-size="10.00">couldContain()</text>
<text text-anchor="start" x="180.5" y="-1081" font-family="Helvetica,sans-Serif" font-size="10.00">+</text>
<text text-anchor="start" x="208" y="-1081" font-family="Helvetica,sans-Serif" font-size="10.00">begin()</text>
<text text-anchor="start" x="180.5" y="-1066" font-family="Helvetica,sans-Serif" font-size="10.00">+</text>
<text text-anchor="start" x="208" y="-1066" font-family="Helvetica,sans-Serif" font-size="10.00">end()</text>
<text text-anchor="start" x="180.5" y="-1051" font-family="Helvetica,sans-Serif" font-size="10.00">+</text>
<text text-anchor="start" x="208" y="-1051" font-family="Helvetica,sans-Serif" font-size="10.00">rbegin()</text>
<text text-anchor="start" x="180.5" y="-1036" font-family="Helvetica,sans-Serif" font-size="10.00">+</text>
<text text-anchor="start" x="208" y="-1036" font-family="Helvetica,sans-Serif" font-size="10.00">rend()</text>
<text text-anchor="start" x="180.5" y="-1021" font-family="Helvetica,sans-Serif" font-size="10.00">+</text>
<text text-anchor="start" x="208" y="-1021" font-family="Helvetica,sans-Serif" font-size="10.00">getFirst()</text>
<text text-anchor="start" x="180.5" y="-1006" font-family="Helvetica,sans-Serif" font-size="10.00">+</text>
<text text-anchor="start" x="208" y="-1006" font-family="Helvetica,sans-Serif" font-size="10.00">getLast()</text>
<polygon fill="#666666" stroke="#666666" points="162,-1211 162,-1211 314,-1211 314,-1211 162,-1211"/>
<polygon fill="#666666" stroke="#666666" points="162,-1181 162,-1181 206,-1181 206,-1181 162,-1181"/>
<polygon fill="#666666" stroke="#666666" points="206,-1181 206,-1181 314,-1181 314,-1181 206,-1181"/>
<polygon fill="none" stroke="#666666" points="162,-999 162,-1239 314,-1239 314,-999 162,-999"/>
</a>
</g>
</g>
<!-- Node6&#45;&gt;Node4 -->
<g id="edge5_Node000004_Node000006" class="edge">
<title>Node6&#45;&gt;Node4</title>
<g id="a_edge5_Node000004_Node000006"><a xlink:title=" ">
<path fill="none" stroke="#63b8ff" d="M203.4,-998.99C196.29,-974.51 188.89,-949.08 182.09,-925.67"/>
<polygon fill="none" stroke="#63b8ff" points="182.04,-925.52 176.53,-920.88 178.69,-914 184.21,-918.64 182.04,-925.52"/>
</a>
</g>
<text text-anchor="start" x="200.5" y="-969.5" font-family="Helvetica,sans-Serif" font-size="10.00" fill="grey">#updatables</text>
</g>
<!-- Node7 -->
<g id="Node000007" class="node">
<title>Node7</title>
<g id="a_Node000007"><a xlink:href="../../d7/d37/structPitchBendMIDIMatcher.html" target="_top" xlink:title="Matcher for MIDI Pitch Bend messages. Matches a single address.">
<polygon fill="white" stroke="transparent" points="385,-604 245,-604 245,-540 385,-540 385,-604"/>
<text text-anchor="start" x="259" y="-592" font-family="Helvetica,sans-Serif" font-size="10.00">PitchBendMIDIMatcher</text>
<text text-anchor="start" x="313" y="-577" font-family="Helvetica,sans-Serif" font-size="10.00"> </text>
<text text-anchor="start" x="249" y="-562" font-family="Helvetica,sans-Serif" font-size="10.00">+</text>
<text text-anchor="start" x="262" y="-562" font-family="Helvetica,sans-Serif" font-size="10.00">PitchBendMIDIMatcher()</text>
<text text-anchor="start" x="249" y="-547" font-family="Helvetica,sans-Serif" font-size="10.00">+</text>
<text text-anchor="start" x="262" y="-547" font-family="Helvetica,sans-Serif" font-size="10.00">operator()()</text>
<polygon fill="#666666" stroke="#666666" points="245,-587 245,-587 385,-587 385,-587 245,-587"/>
<polygon fill="#666666" stroke="#666666" points="245,-572 245,-572 385,-572 385,-572 245,-572"/>
<polygon fill="none" stroke="#666666" points="245,-540 245,-604 385,-604 385,-540 245,-540"/>
</a>
</g>
</g>
<!-- Node7&#45;&gt;Node2 -->
<g id="edge6_Node000002_Node000007" class="edge">
<title>Node7&#45;&gt;Node2</title>
<g id="a_edge6_Node000002_Node000007"><a xlink:title=" ">
<path fill="none" stroke="#63b8ff" d="M306.33,-539.86C299.36,-514.81 288.99,-477.55 278.26,-439.01"/>
<polygon fill="none" stroke="#63b8ff" points="278.14,-438.59 272.68,-433.88 274.92,-427.03 280.39,-431.73 278.14,-438.59"/>
</a>
</g>
<text text-anchor="start" x="288.5" y="-450.5" font-family="Helvetica,sans-Serif" font-size="10.00" fill="grey">#matcher</text>
</g>
<!-- Node8 -->
<g id="Node000008" class="node">
<title>Node8</title>
<g id="a_Node000008"><a xlink:href="../../d7/d46/classMIDIChannelCable.html" target="_top" xlink:title="A class for saving a MIDI channel and cable number.">
<polygon fill="white" stroke="transparent" points="381.5,-946 248.5,-946 248.5,-717 381.5,-717 381.5,-946"/>
<text text-anchor="start" x="270" y="-933.5" font-family="Helvetica,sans-Serif" font-size="10.00">MIDIChannelCable</text>
<text text-anchor="start" x="255.5" y="-918.5" font-family="Helvetica,sans-Serif" font-size="10.00">&#45;</text>
<text text-anchor="start" x="266" y="-918.5" font-family="Helvetica,sans-Serif" font-size="10.00">addresses</text>
<text text-anchor="start" x="253" y="-903.5" font-family="Helvetica,sans-Serif" font-size="10.00">#</text>
<text text-anchor="start" x="266" y="-903.5" font-family="Helvetica,sans-Serif" font-size="10.00">MIDIChannelCable()</text>
<text text-anchor="start" x="254.5" y="-888.5" font-family="Helvetica,sans-Serif" font-size="10.00">*</text>
<text text-anchor="start" x="266" y="-888.5" font-family="Helvetica,sans-Serif" font-size="10.00">MIDIChannelCable()</text>
<text text-anchor="start" x="254.5" y="-873.5" font-family="Helvetica,sans-Serif" font-size="10.00">*</text>
<text text-anchor="start" x="266" y="-873.5" font-family="Helvetica,sans-Serif" font-size="10.00">MIDIChannelCable()</text>
<text text-anchor="start" x="254.5" y="-858.5" font-family="Helvetica,sans-Serif" font-size="10.00">*</text>
<text text-anchor="start" x="266" y="-858.5" font-family="Helvetica,sans-Serif" font-size="10.00">invalid()</text>
<text text-anchor="start" x="254.5" y="-843.5" font-family="Helvetica,sans-Serif" font-size="10.00">*</text>
<text text-anchor="start" x="266" y="-843.5" font-family="Helvetica,sans-Serif" font-size="10.00">getChannel()</text>
<text text-anchor="start" x="254.5" y="-828.5" font-family="Helvetica,sans-Serif" font-size="10.00">*</text>
<text text-anchor="start" x="266" y="-828.5" font-family="Helvetica,sans-Serif" font-size="10.00">getRawChannel()</text>
<text text-anchor="start" x="254.5" y="-813.5" font-family="Helvetica,sans-Serif" font-size="10.00">*</text>
<text text-anchor="start" x="266" y="-813.5" font-family="Helvetica,sans-Serif" font-size="10.00">getCableNumber()</text>
<text text-anchor="start" x="254.5" y="-798.5" font-family="Helvetica,sans-Serif" font-size="10.00">*</text>
<text text-anchor="start" x="266" y="-798.5" font-family="Helvetica,sans-Serif" font-size="10.00">getRawCableNumber()</text>
<text text-anchor="start" x="254.5" y="-783.5" font-family="Helvetica,sans-Serif" font-size="10.00">*</text>
<text text-anchor="start" x="266" y="-783.5" font-family="Helvetica,sans-Serif" font-size="10.00">operator==()</text>
<text text-anchor="start" x="254.5" y="-768.5" font-family="Helvetica,sans-Serif" font-size="10.00">*</text>
<text text-anchor="start" x="266" y="-768.5" font-family="Helvetica,sans-Serif" font-size="10.00">operator!=()</text>
<text text-anchor="start" x="254.5" y="-753.5" font-family="Helvetica,sans-Serif" font-size="10.00">*</text>
<text text-anchor="start" x="266" y="-753.5" font-family="Helvetica,sans-Serif" font-size="10.00">isValid()</text>
<text text-anchor="start" x="254.5" y="-738.5" font-family="Helvetica,sans-Serif" font-size="10.00">*</text>
<text text-anchor="start" x="266" y="-738.5" font-family="Helvetica,sans-Serif" font-size="10.00">operator bool()</text>
<text text-anchor="start" x="254.5" y="-723.5" font-family="Helvetica,sans-Serif" font-size="10.00">*</text>
<text text-anchor="start" x="266" y="-723.5" font-family="Helvetica,sans-Serif" font-size="10.00">matchSingle()</text>
<polygon fill="#666666" stroke="#666666" points="249,-928.5 249,-928.5 382,-928.5 382,-928.5 249,-928.5"/>
<polygon fill="#666666" stroke="#666666" points="249,-913.5 249,-913.5 264,-913.5 264,-913.5 249,-913.5"/>
<polygon fill="#666666" stroke="#666666" points="264,-913.5 264,-913.5 382,-913.5 382,-913.5 264,-913.5"/>
<polygon fill="none" stroke="#666666" points="248.5,-717 248.5,-946 381.5,-946 381.5,-717 248.5,-717"/>
</a>
</g>
</g>
<!-- Node8&#45;&gt;Node7 -->
<g id="edge7_Node000007_Node000008" class="edge">
<title>Node8&#45;&gt;Node7</title>
<g id="a_edge7_Node000007_Node000008"><a xlink:title=" ">
<path fill="none" stroke="#63b8ff" d="M315,-716.81C315,-681.22 315,-644.07 315,-616.45"/>
<polygon fill="none" stroke="#63b8ff" points="315,-616.08 311,-610.08 315,-604.08 319,-610.08 315,-616.08"/>
</a>
</g>
<text text-anchor="start" x="318.5" y="-687.5" font-family="Helvetica,sans-Serif" font-size="10.00" fill="grey">+address</text>
</g>
<!-- Node9 -->
<g id="Node000009" class="node">
<title>Node9</title>
<g id="a_Node000009"><a xlink:href="../../dd/d7f/classInterfaces_1_1IValue14.html" target="_top" xlink:title="Abstract interface for MIDI input elements that receive and store a 14&#45;bit value.">
<polygon fill="white" stroke="transparent" points="413.5,-318.5 336.5,-318.5 336.5,-239.5 413.5,-239.5 413.5,-318.5"/>
<text text-anchor="start" x="354" y="-306" font-family="Helvetica,sans-Serif" font-size="10.00">IValue14</text>
<text text-anchor="start" x="341" y="-291" font-family="Helvetica,sans-Serif" font-size="10.00">#</text>
<text text-anchor="start" x="354" y="-291" font-family="Helvetica,sans-Serif" font-size="10.00">dirty</text>
<text text-anchor="start" x="341" y="-276" font-family="Helvetica,sans-Serif" font-size="10.00">+</text>
<text text-anchor="start" x="354" y="-276" font-family="Helvetica,sans-Serif" font-size="10.00">getValue()</text>
<text text-anchor="start" x="342.5" y="-261" font-family="Helvetica,sans-Serif" font-size="10.00">*</text>
<text text-anchor="start" x="354" y="-261" font-family="Helvetica,sans-Serif" font-size="10.00">getDirty()</text>
<text text-anchor="start" x="342.5" y="-246" font-family="Helvetica,sans-Serif" font-size="10.00">*</text>
<text text-anchor="start" x="354" y="-246" font-family="Helvetica,sans-Serif" font-size="10.00">clearDirty()</text>
<polygon fill="#666666" stroke="#666666" points="337,-301 337,-301 414,-301 414,-301 337,-301"/>
<polygon fill="#666666" stroke="#666666" points="337,-286 337,-286 352,-286 352,-286 337,-286"/>
<polygon fill="#666666" stroke="#666666" points="352,-286 352,-286 414,-286 414,-286 352,-286"/>
<polygon fill="none" stroke="#666666" points="336.5,-239.5 336.5,-318.5 413.5,-318.5 413.5,-239.5 336.5,-239.5"/>
</a>
</g>
</g>
<!-- Node9&#45;&gt;Node1 -->
<g id="edge8_Node000001_Node000009" class="edge">
<title>Node9&#45;&gt;Node1</title>
<g id="a_edge8_Node000001_Node000009"><a xlink:title=" ">
<path fill="none" stroke="#63b8ff" d="M360.02,-229.46C347.69,-189.52 330.33,-133.3 318.22,-94.05"/>
<polygon fill="none" stroke="#63b8ff" points="356.74,-230.72 363.04,-239.24 363.43,-228.66 356.74,-230.72"/>
</a>
</g>
</g>
</g>
</svg>
