<?xml version="1.0" encoding="UTF-8" standalone="no"?>
<!DOCTYPE svg PUBLIC "-//W3C//DTD SVG 1.1//EN"
 "http://www.w3.org/Graphics/SVG/1.1/DTD/svg11.dtd">
<!-- Generated by graphviz version 2.43.0 (0)
 -->
<!-- Title: MIDI_Callbacks.hpp Pages: 1 -->
<svg width="1294pt" height="885pt"
 viewBox="0.00 0.00 1294.00 885.00" xmlns="http://www.w3.org/2000/svg" xmlns:xlink="http://www.w3.org/1999/xlink">
<g id="graph0" class="graph" transform="scale(1 1) rotate(0) translate(4 881)">
<title>MIDI_Callbacks.hpp</title>
<!-- Node1 -->
<g id="Node000001" class="node">
<title>Node1</title>
<g id="a_Node000001"><a xlink:title=" ">
<polygon fill="#999999" stroke="#666666" points="204.5,-877 91.5,-877 91.5,-858 204.5,-858 204.5,-877"/>
<text text-anchor="middle" x="148" y="-865" font-family="Helvetica,sans-Serif" font-size="10.00">MIDI_Callbacks.hpp</text>
</a>
</g>
</g>
<!-- Node2 -->
<g id="Node000002" class="node">
<title>Node2</title>
<g id="a_Node000002"><a xlink:href="../../d4/dba/CRTP_8hpp.html" target="_top" xlink:title=" ">
<polygon fill="white" stroke="#666666" points="134,-816.5 0,-816.5 0,-797.5 134,-797.5 134,-816.5"/>
<text text-anchor="middle" x="67" y="-804.5" font-family="Helvetica,sans-Serif" font-size="10.00">AH/Containers/CRTP.hpp</text>
</a>
</g>
</g>
<!-- Node1&#45;&gt;Node2 -->
<g id="edge1_Node000001_Node000002" class="edge">
<title>Node1&#45;&gt;Node2</title>
<g id="a_edge1_Node000001_Node000002"><a xlink:title=" ">
<path fill="none" stroke="#63b8ff" d="M136.05,-857.87C123.25,-848.62 102.7,-833.78 87.35,-822.69"/>
<polygon fill="#63b8ff" stroke="#63b8ff" points="89.16,-819.68 79,-816.67 85.06,-825.36 89.16,-819.68"/>
</a>
</g>
</g>
<!-- Node3 -->
<g id="Node000003" class="node">
<title>Node3</title>
<g id="a_Node000003"><a xlink:href="../../dc/d40/MIDI__MessageTypes_8hpp.html" target="_top" xlink:title=" ">
<polygon fill="white" stroke="#666666" points="306,-822 152,-822 152,-792 306,-792 306,-822"/>
<text text-anchor="start" x="160" y="-810" font-family="Helvetica,sans-Serif" font-size="10.00">MIDI_Parsers/MIDI_Message</text>
<text text-anchor="middle" x="229" y="-799" font-family="Helvetica,sans-Serif" font-size="10.00">Types.hpp</text>
</a>
</g>
</g>
<!-- Node1&#45;&gt;Node3 -->
<g id="edge2_Node000001_Node000003" class="edge">
<title>Node1&#45;&gt;Node3</title>
<g id="a_edge2_Node000001_Node000003"><a xlink:title=" ">
<path fill="none" stroke="#63b8ff" d="M159.95,-857.87C170.74,-850.08 187.02,-838.32 201.07,-828.17"/>
<polygon fill="#63b8ff" stroke="#63b8ff" points="203.4,-830.81 209.46,-822.11 199.3,-825.13 203.4,-830.81"/>
</a>
</g>
</g>
<!-- Node4 -->
<g id="Node000004" class="node">
<title>Node4</title>
<g id="a_Node000004"><a xlink:href="../../d6/ddf/Arduino-Wrapper_8h.html" target="_top" xlink:title=" ">
<polygon fill="white" stroke="#666666" points="446,-184 322,-184 322,-165 446,-165 446,-184"/>
<text text-anchor="middle" x="384" y="-172" font-family="Helvetica,sans-Serif" font-size="10.00">AH/Arduino&#45;Wrapper.h</text>
</a>
</g>
</g>
<!-- Node3&#45;&gt;Node4 -->
<g id="edge3_Node000003_Node000004" class="edge">
<title>Node3&#45;&gt;Node4</title>
<g id="a_edge3_Node000003_Node000004"><a xlink:title=" ">
<path fill="none" stroke="#63b8ff" d="M181.45,-791.89C137.84,-775.66 80,-744.37 80,-692.5 80,-692.5 80,-692.5 80,-283.5 80,-233.82 226,-201.13 315.64,-185.74"/>
<polygon fill="#63b8ff" stroke="#63b8ff" points="316.47,-189.15 325.75,-184.04 315.3,-182.25 316.47,-189.15"/>
</a>
</g>
</g>
<!-- Node11 -->
<g id="Node000011" class="node">
<title>Node11</title>
<g id="a_Node000011"><a xlink:href="../../dd/d80/PrintStream_8hpp.html" target="_top" xlink:title=" ">
<polygon fill="white" stroke="#666666" points="703.5,-349 530.5,-349 530.5,-330 703.5,-330 703.5,-349"/>
<text text-anchor="middle" x="617" y="-337" font-family="Helvetica,sans-Serif" font-size="10.00">AH/PrintStream/PrintStream.hpp</text>
</a>
</g>
</g>
<!-- Node3&#45;&gt;Node11 -->
<g id="edge12_Node000003_Node000011" class="edge">
<title>Node3&#45;&gt;Node11</title>
<g id="a_edge12_Node000003_Node000011"><a xlink:title=" ">
<path fill="none" stroke="#63b8ff" d="M266.8,-791.83C283.96,-783.69 303.23,-771.89 316,-756 334.54,-732.94 336,-722.09 336,-692.5 336,-692.5 336,-692.5 336,-564 336,-442.9 497.83,-376.89 575.87,-352.09"/>
<polygon fill="#63b8ff" stroke="#63b8ff" points="577.34,-355.3 585.85,-349 575.27,-348.62 577.34,-355.3"/>
</a>
</g>
</g>
<!-- Node12 -->
<g id="Node000012" class="node">
<title>Node12</title>
<g id="a_Node000012"><a xlink:href="../../d0/da7/Settings_2NamespaceSettings_8hpp.html" target="_top" xlink:title=" ">
<polygon fill="white" stroke="#666666" points="422,-294 244,-294 244,-275 422,-275 422,-294"/>
<text text-anchor="middle" x="333" y="-282" font-family="Helvetica,sans-Serif" font-size="10.00">Settings/NamespaceSettings.hpp</text>
</a>
</g>
</g>
<!-- Node3&#45;&gt;Node12 -->
<g id="edge19_Node000003_Node000012" class="edge">
<title>Node3&#45;&gt;Node12</title>
<g id="a_edge19_Node000003_Node000012"><a xlink:title=" ">
<path fill="none" stroke="#63b8ff" d="M212.07,-791.76C190.5,-771.92 156,-733.73 156,-692.5 156,-692.5 156,-692.5 156,-503.5 156,-407.32 261.12,-329.91 309.34,-299.46"/>
<polygon fill="#63b8ff" stroke="#63b8ff" points="311.24,-302.4 317.91,-294.17 307.56,-296.45 311.24,-302.4"/>
</a>
</g>
</g>
<!-- Node13 -->
<g id="Node000013" class="node">
<title>Node13</title>
<g id="a_Node000013"><a xlink:title=" ">
<polygon fill="#e0e0e0" stroke="#999999" points="568,-514 478,-514 478,-495 568,-495 568,-514"/>
<text text-anchor="middle" x="523" y="-502" font-family="Helvetica,sans-Serif" font-size="10.00">AH/STL/cstddef</text>
</a>
</g>
</g>
<!-- Node3&#45;&gt;Node13 -->
<g id="edge17_Node000003_Node000013" class="edge">
<title>Node3&#45;&gt;Node13</title>
<g id="a_edge17_Node000003_Node000013"><a xlink:title=" ">
<path fill="none" stroke="#63b8ff" d="M280.78,-791.94C303.64,-783.97 329.84,-772.28 350,-756 434.14,-688.08 494.29,-568.72 515.05,-523.53"/>
<polygon fill="#63b8ff" stroke="#63b8ff" points="518.36,-524.71 519.28,-514.15 511.98,-521.83 518.36,-524.71"/>
</a>
</g>
</g>
<!-- Node14 -->
<g id="Node000014" class="node">
<title>Node14</title>
<g id="a_Node000014"><a xlink:title=" ">
<polygon fill="#e0e0e0" stroke="#999999" points="307.5,-756 222.5,-756 222.5,-737 307.5,-737 307.5,-756"/>
<text text-anchor="middle" x="265" y="-744" font-family="Helvetica,sans-Serif" font-size="10.00">AH/STL/vector</text>
</a>
</g>
</g>
<!-- Node3&#45;&gt;Node14 -->
<g id="edge18_Node000003_Node000014" class="edge">
<title>Node3&#45;&gt;Node14</title>
<g id="a_edge18_Node000003_Node000014"><a xlink:title=" ">
<path fill="none" stroke="#63b8ff" d="M237.71,-791.84C242.67,-783.78 248.93,-773.62 254.2,-765.06"/>
<polygon fill="#63b8ff" stroke="#63b8ff" points="257.35,-766.62 259.61,-756.27 251.38,-762.95 257.35,-766.62"/>
</a>
</g>
</g>
<!-- Node15 -->
<g id="Node000015" class="node">
<title>Node15</title>
<g id="a_Node000015"><a xlink:href="../../d2/dbc/Cable_8hpp.html" target="_top" xlink:title=" ">
<polygon fill="white" stroke="#666666" points="330,-404 244,-404 244,-385 330,-385 330,-404"/>
<text text-anchor="middle" x="287" y="-392" font-family="Helvetica,sans-Serif" font-size="10.00">Def/Cable.hpp</text>
</a>
</g>
</g>
<!-- Node3&#45;&gt;Node15 -->
<g id="edge20_Node000003_Node000015" class="edge">
<title>Node3&#45;&gt;Node15</title>
<g id="a_edge20_Node000003_Node000015"><a xlink:title=" ">
<path fill="none" stroke="#63b8ff" d="M185.75,-791.95C169.01,-784.15 151.6,-772.59 142,-756 137.77,-748.69 140.47,-745.31 142,-737 166.28,-604.83 247.28,-461.28 276.44,-412.68"/>
<polygon fill="#63b8ff" stroke="#63b8ff" points="279.49,-414.38 281.69,-404.02 273.51,-410.75 279.49,-414.38"/>
</a>
</g>
</g>
<!-- Node16 -->
<g id="Node000016" class="node">
<title>Node16</title>
<g id="a_Node000016"><a xlink:href="../../d7/d42/Channel_8hpp.html" target="_top" xlink:title=" ">
<polygon fill="white" stroke="#666666" points="295,-640.5 197,-640.5 197,-621.5 295,-621.5 295,-640.5"/>
<text text-anchor="middle" x="246" y="-628.5" font-family="Helvetica,sans-Serif" font-size="10.00">Def/Channel.hpp</text>
</a>
</g>
</g>
<!-- Node3&#45;&gt;Node16 -->
<g id="edge23_Node000003_Node000016" class="edge">
<title>Node3&#45;&gt;Node16</title>
<g id="a_edge23_Node000003_Node000016"><a xlink:title=" ">
<path fill="none" stroke="#63b8ff" d="M223.17,-791.84C219.44,-781.99 214.94,-768.43 213,-756 206.98,-717.46 224.63,-673.63 236.39,-649.78"/>
<polygon fill="#63b8ff" stroke="#63b8ff" points="239.66,-651.08 241.13,-640.59 233.44,-647.87 239.66,-651.08"/>
</a>
</g>
</g>
<!-- Node17 -->
<g id="Node000017" class="node">
<title>Node17</title>
<g id="a_Node000017"><a xlink:href="../../db/dd6/MIDIAddress_8hpp.html" target="_top" xlink:title=" ">
<polygon fill="white" stroke="#666666" points="633.5,-756 514.5,-756 514.5,-737 633.5,-737 633.5,-756"/>
<text text-anchor="middle" x="574" y="-744" font-family="Helvetica,sans-Serif" font-size="10.00">Def/MIDIAddress.hpp</text>
</a>
</g>
</g>
<!-- Node3&#45;&gt;Node17 -->
<g id="edge26_Node000003_Node000017" class="edge">
<title>Node3&#45;&gt;Node17</title>
<g id="a_edge26_Node000003_Node000017"><a xlink:title=" ">
<path fill="none" stroke="#63b8ff" d="M306.42,-792.87C369.11,-782.24 456.17,-767.48 513.74,-757.72"/>
<polygon fill="#63b8ff" stroke="#63b8ff" points="514.51,-761.14 523.78,-756.02 513.34,-754.24 514.51,-761.14"/>
</a>
</g>
</g>
<!-- Node5 -->
<g id="Node000005" class="node">
<title>Node5</title>
<g id="a_Node000005"><a xlink:href="../../d7/d79/MinMaxFix_8hpp.html" target="_top" xlink:title=" ">
<polygon fill="white" stroke="#666666" points="452,-129 316,-129 316,-110 452,-110 452,-129"/>
<text text-anchor="middle" x="384" y="-117" font-family="Helvetica,sans-Serif" font-size="10.00">AH/Math/MinMaxFix.hpp</text>
</a>
</g>
</g>
<!-- Node4&#45;&gt;Node5 -->
<g id="edge4_Node000004_Node000005" class="edge">
<title>Node4&#45;&gt;Node5</title>
<g id="a_edge4_Node000004_Node000005"><a xlink:title=" ">
<path fill="none" stroke="#63b8ff" d="M384,-164.75C384,-157.8 384,-147.85 384,-139.13"/>
<polygon fill="#63b8ff" stroke="#63b8ff" points="387.5,-139.09 384,-129.09 380.5,-139.09 387.5,-139.09"/>
</a>
</g>
</g>
<!-- Node8 -->
<g id="Node000008" class="node">
<title>Node8</title>
<g id="a_Node000008"><a xlink:title=" ">
<polygon fill="#e0e0e0" stroke="#999999" points="346.5,-19 283.5,-19 283.5,0 346.5,0 346.5,-19"/>
<text text-anchor="middle" x="315" y="-7" font-family="Helvetica,sans-Serif" font-size="10.00">Arduino.h</text>
</a>
</g>
</g>
<!-- Node4&#45;&gt;Node8 -->
<g id="edge11_Node000004_Node000008" class="edge">
<title>Node4&#45;&gt;Node8</title>
<g id="a_edge11_Node000004_Node000008"><a xlink:title=" ">
<path fill="none" stroke="#63b8ff" d="M361.68,-164.95C344.85,-157.56 322.16,-145.47 307,-129 288.69,-109.11 286.92,-100.38 281,-74 279.15,-65.76 278.29,-63 281,-55 284.56,-44.47 291.72,-34.48 298.55,-26.63"/>
<polygon fill="#63b8ff" stroke="#63b8ff" points="301.13,-29.01 305.39,-19.31 296.01,-24.23 301.13,-29.01"/>
</a>
</g>
</g>
<!-- Node10 -->
<g id="Node000010" class="node">
<title>Node10</title>
<g id="a_Node000010"><a xlink:title=" ">
<polygon fill="#e0e0e0" stroke="#999999" points="701.5,-129 594.5,-129 594.5,-110 701.5,-110 701.5,-129"/>
<text text-anchor="middle" x="648" y="-117" font-family="Helvetica,sans-Serif" font-size="10.00">AH/STL/type_traits</text>
</a>
</g>
</g>
<!-- Node4&#45;&gt;Node10 -->
<g id="edge10_Node000004_Node000010" class="edge">
<title>Node4&#45;&gt;Node10</title>
<g id="a_edge10_Node000004_Node000010"><a xlink:title=" ">
<path fill="none" stroke="#63b8ff" d="M426.42,-164.98C472.37,-155.76 545.75,-141.03 595.35,-131.07"/>
<polygon fill="#63b8ff" stroke="#63b8ff" points="596.14,-134.48 605.25,-129.08 594.76,-127.62 596.14,-134.48"/>
</a>
</g>
</g>
<!-- Node6 -->
<g id="Node000006" class="node">
<title>Node6</title>
<g id="a_Node000006"><a xlink:href="../../d6/d3b/FixArduinoMacros_8hpp.html" target="_top" xlink:title=" ">
<polygon fill="white" stroke="#666666" points="460,-74 290,-74 290,-55 460,-55 460,-74"/>
<text text-anchor="middle" x="375" y="-62" font-family="Helvetica,sans-Serif" font-size="10.00">AH/Math/FixArduinoMacros.hpp</text>
</a>
</g>
</g>
<!-- Node5&#45;&gt;Node6 -->
<g id="edge5_Node000005_Node000006" class="edge">
<title>Node5&#45;&gt;Node6</title>
<g id="a_edge5_Node000005_Node000006"><a xlink:title=" ">
<path fill="none" stroke="#63b8ff" d="M382.51,-109.75C381.33,-102.8 379.64,-92.85 378.16,-84.13"/>
<polygon fill="#63b8ff" stroke="#63b8ff" points="381.58,-83.36 376.46,-74.09 374.68,-84.53 381.58,-83.36"/>
</a>
</g>
</g>
<!-- Node9 -->
<g id="Node000009" class="node">
<title>Node9</title>
<g id="a_Node000009"><a xlink:href="../../d6/db0/AH_2Settings_2NamespaceSettings_8hpp.html" target="_top" xlink:title=" ">
<polygon fill="white" stroke="#666666" points="827.5,-74 632.5,-74 632.5,-55 827.5,-55 827.5,-74"/>
<text text-anchor="middle" x="730" y="-62" font-family="Helvetica,sans-Serif" font-size="10.00">AH/Settings/NamespaceSettings.hpp</text>
</a>
</g>
</g>
<!-- Node5&#45;&gt;Node9 -->
<g id="edge8_Node000005_Node000009" class="edge">
<title>Node5&#45;&gt;Node9</title>
<g id="a_edge8_Node000005_Node000009"><a xlink:title=" ">
<path fill="none" stroke="#63b8ff" d="M439.59,-109.98C500.79,-100.61 599.1,-85.55 664.12,-75.59"/>
<polygon fill="#63b8ff" stroke="#63b8ff" points="664.91,-79.01 674.26,-74.04 663.85,-72.09 664.91,-79.01"/>
</a>
</g>
</g>
<!-- Node7 -->
<g id="Node000007" class="node">
<title>Node7</title>
<g id="a_Node000007"><a xlink:href="../../d1/d65/Warnings_8hpp.html" target="_top" xlink:title=" ">
<polygon fill="white" stroke="#666666" points="559.5,-19 416.5,-19 416.5,0 559.5,0 559.5,-19"/>
<text text-anchor="middle" x="488" y="-7" font-family="Helvetica,sans-Serif" font-size="10.00">AH/Settings/Warnings.hpp</text>
</a>
</g>
</g>
<!-- Node6&#45;&gt;Node7 -->
<g id="edge6_Node000006_Node000007" class="edge">
<title>Node6&#45;&gt;Node7</title>
<g id="a_edge6_Node000006_Node000007"><a xlink:title=" ">
<path fill="none" stroke="#63b8ff" d="M393.16,-54.98C411.25,-46.5 439.28,-33.35 460.19,-23.54"/>
<polygon fill="#63b8ff" stroke="#63b8ff" points="461.95,-26.59 469.51,-19.17 458.97,-20.25 461.95,-26.59"/>
</a>
</g>
</g>
<!-- Node6&#45;&gt;Node8 -->
<g id="edge7_Node000006_Node000008" class="edge">
<title>Node6&#45;&gt;Node8</title>
<g id="a_edge7_Node000006_Node000008"><a xlink:title=" ">
<path fill="none" stroke="#63b8ff" d="M365.36,-54.98C356.49,-47.15 343.13,-35.34 332.39,-25.86"/>
<polygon fill="#63b8ff" stroke="#63b8ff" points="334.63,-23.17 324.82,-19.17 329.99,-28.41 334.63,-23.17"/>
</a>
</g>
</g>
<!-- Node9&#45;&gt;Node7 -->
<g id="edge9_Node000009_Node000007" class="edge">
<title>Node9&#45;&gt;Node7</title>
<g id="a_edge9_Node000009_Node000007"><a xlink:title=" ">
<path fill="none" stroke="#63b8ff" d="M691.12,-54.98C649.26,-45.82 582.57,-31.21 537.12,-21.26"/>
<polygon fill="#63b8ff" stroke="#63b8ff" points="537.7,-17.8 527.19,-19.08 536.21,-24.64 537.7,-17.8"/>
</a>
</g>
</g>
<!-- Node11&#45;&gt;Node4 -->
<g id="edge13_Node000011_Node000004" class="edge">
<title>Node11&#45;&gt;Node4</title>
<g id="a_edge13_Node000011_Node000004"><a xlink:title=" ">
<path fill="none" stroke="#63b8ff" d="M607.01,-329.9C583.16,-309.55 520.64,-257.38 464,-220 446.75,-208.62 426.39,-197.32 410.52,-188.96"/>
<polygon fill="#63b8ff" stroke="#63b8ff" points="411.78,-185.66 401.3,-184.15 408.55,-191.87 411.78,-185.66"/>
</a>
</g>
</g>
<!-- Node11&#45;&gt;Node9 -->
<g id="edge14_Node000011_Node000009" class="edge">
<title>Node11&#45;&gt;Node9</title>
<g id="a_edge14_Node000011_Node000009"><a xlink:title=" ">
<path fill="none" stroke="#63b8ff" d="M621.36,-329.89C635.55,-301.63 681.25,-208.95 711,-129 716.53,-114.15 721.6,-96.91 725.12,-84.14"/>
<polygon fill="#63b8ff" stroke="#63b8ff" points="728.56,-84.81 727.77,-74.25 721.8,-83 728.56,-84.81"/>
</a>
</g>
</g>
<!-- Node11&#45;&gt;Node12 -->
<g id="edge15_Node000011_Node000012" class="edge">
<title>Node11&#45;&gt;Node12</title>
<g id="a_edge15_Node000011_Node000012"><a xlink:title=" ">
<path fill="none" stroke="#63b8ff" d="M571.37,-329.98C521.73,-320.72 442.34,-305.9 388.97,-295.94"/>
<polygon fill="#63b8ff" stroke="#63b8ff" points="389.46,-292.48 378.99,-294.08 388.18,-299.36 389.46,-292.48"/>
</a>
</g>
</g>
<!-- Node12&#45;&gt;Node7 -->
<g id="edge16_Node000012_Node000007" class="edge">
<title>Node12&#45;&gt;Node7</title>
<g id="a_edge16_Node000012_Node000007"><a xlink:title=" ">
<path fill="none" stroke="#63b8ff" d="M370.52,-274.92C416.39,-261.95 488,-232.57 488,-175.5 488,-175.5 488,-175.5 488,-118.5 488,-87.19 488,-50.77 488,-29.23"/>
<polygon fill="#63b8ff" stroke="#63b8ff" points="491.5,-29.18 488,-19.18 484.5,-29.18 491.5,-29.18"/>
</a>
</g>
</g>
<!-- Node15&#45;&gt;Node4 -->
<g id="edge21_Node000015_Node000004" class="edge">
<title>Node15&#45;&gt;Node4</title>
<g id="a_edge21_Node000015_Node000004"><a xlink:title=" ">
<path fill="none" stroke="#63b8ff" d="M277.88,-384.96C257.91,-365.16 213.71,-314.82 235,-275 258.8,-230.49 312.28,-202.44 348.26,-187.85"/>
<polygon fill="#63b8ff" stroke="#63b8ff" points="349.86,-190.99 357.91,-184.1 347.32,-184.46 349.86,-190.99"/>
</a>
</g>
</g>
<!-- Node15&#45;&gt;Node12 -->
<g id="edge22_Node000015_Node000012" class="edge">
<title>Node15&#45;&gt;Node12</title>
<g id="a_edge22_Node000015_Node000012"><a xlink:title=" ">
<path fill="none" stroke="#63b8ff" d="M290.76,-384.66C298.28,-367.01 315.29,-327.09 325.28,-303.64"/>
<polygon fill="#63b8ff" stroke="#63b8ff" points="328.61,-304.73 329.31,-294.16 322.17,-301.99 328.61,-304.73"/>
</a>
</g>
</g>
<!-- Node16&#45;&gt;Node4 -->
<g id="edge24_Node000016_Node000004" class="edge">
<title>Node16&#45;&gt;Node4</title>
<g id="a_edge24_Node000016_Node000004"><a xlink:title=" ">
<path fill="none" stroke="#63b8ff" d="M242.34,-621.17C228.22,-586.25 178,-454.08 178,-340.5 178,-340.5 178,-340.5 178,-283.5 178,-221.37 252.4,-194.91 311.78,-183.69"/>
<polygon fill="#63b8ff" stroke="#63b8ff" points="312.68,-187.08 321.91,-181.89 311.46,-180.19 312.68,-187.08"/>
</a>
</g>
</g>
<!-- Node16&#45;&gt;Node12 -->
<g id="edge25_Node000016_Node000012" class="edge">
<title>Node16&#45;&gt;Node12</title>
<g id="a_edge25_Node000016_Node000012"><a xlink:title=" ">
<path fill="none" stroke="#63b8ff" d="M251.03,-621.35C267.74,-592.07 321.31,-493.49 339,-404 345.87,-369.27 340.81,-327.76 336.74,-304.23"/>
<polygon fill="#63b8ff" stroke="#63b8ff" points="340.15,-303.42 334.88,-294.23 333.27,-304.7 340.15,-303.42"/>
</a>
</g>
</g>
<!-- Node18 -->
<g id="Node000018" class="node">
<title>Node18</title>
<g id="a_Node000018"><a xlink:href="../../d0/d4e/Def_8hpp.html" target="_top" xlink:title=" ">
<polygon fill="white" stroke="#666666" points="778,-701 704,-701 704,-682 778,-682 778,-701"/>
<text text-anchor="middle" x="741" y="-689" font-family="Helvetica,sans-Serif" font-size="10.00">Def/Def.hpp</text>
</a>
</g>
</g>
<!-- Node17&#45;&gt;Node18 -->
<g id="edge27_Node000017_Node000018" class="edge">
<title>Node17&#45;&gt;Node18</title>
<g id="a_edge27_Node000017_Node000018"><a xlink:title=" ">
<path fill="none" stroke="#63b8ff" d="M600.83,-736.98C628.87,-728.09 673.05,-714.07 704.3,-704.15"/>
<polygon fill="#63b8ff" stroke="#63b8ff" points="705.49,-707.44 713.96,-701.08 703.37,-700.77 705.49,-707.44"/>
</a>
</g>
</g>
<!-- Node18&#45;&gt;Node12 -->
<g id="edge65_Node000018_Node000012" class="edge">
<title>Node18&#45;&gt;Node12</title>
<g id="a_edge65_Node000018_Node000012"><a xlink:title=" ">
<path fill="none" stroke="#63b8ff" d="M703.9,-687.02C617.86,-676.72 412,-638.2 412,-505.5 412,-505.5 412,-505.5 412,-393.5 412,-353.78 376.75,-318.93 353.34,-300.17"/>
<polygon fill="#63b8ff" stroke="#63b8ff" points="355.4,-297.34 345.34,-294.01 351.13,-302.89 355.4,-297.34"/>
</a>
</g>
</g>
<!-- Node18&#45;&gt;Node15 -->
<g id="edge28_Node000018_Node000015" class="edge">
<title>Node18&#45;&gt;Node15</title>
<g id="a_edge28_Node000018_Node000015"><a xlink:title=" ">
<path fill="none" stroke="#63b8ff" d="M703.86,-689.03C632.45,-685.56 479.2,-674.9 436,-646 349.56,-588.18 305.88,-461.74 292.01,-414.13"/>
<polygon fill="#63b8ff" stroke="#63b8ff" points="295.32,-412.96 289.25,-404.28 288.58,-414.85 295.32,-412.96"/>
</a>
</g>
</g>
<!-- Node18&#45;&gt;Node16 -->
<g id="edge29_Node000018_Node000016" class="edge">
<title>Node18&#45;&gt;Node16</title>
<g id="a_edge29_Node000018_Node000016"><a xlink:title=" ">
<path fill="none" stroke="#63b8ff" d="M703.79,-686.1C618.5,-676.02 408.27,-651.18 305.07,-638.98"/>
<polygon fill="#63b8ff" stroke="#63b8ff" points="305.47,-635.5 295.13,-637.81 304.65,-642.46 305.47,-635.5"/>
</a>
</g>
</g>
<!-- Node19 -->
<g id="Node000019" class="node">
<title>Node19</title>
<g id="a_Node000019"><a xlink:href="../../de/d76/Array_8hpp.html" target="_top" xlink:title=" ">
<polygon fill="white" stroke="#666666" points="1071.5,-514 936.5,-514 936.5,-495 1071.5,-495 1071.5,-514"/>
<text text-anchor="middle" x="1004" y="-502" font-family="Helvetica,sans-Serif" font-size="10.00">AH/Containers/Array.hpp</text>
</a>
</g>
</g>
<!-- Node18&#45;&gt;Node19 -->
<g id="edge30_Node000018_Node000019" class="edge">
<title>Node18&#45;&gt;Node19</title>
<g id="a_edge30_Node000018_Node000019"><a xlink:title=" ">
<path fill="none" stroke="#63b8ff" d="M767.32,-681.94C810.5,-666.88 897.35,-632.2 955,-580 972.87,-563.82 987.13,-539.77 995.56,-523.4"/>
<polygon fill="#63b8ff" stroke="#63b8ff" points="998.74,-524.86 1000.03,-514.34 992.46,-521.76 998.74,-524.86"/>
</a>
</g>
</g>
<!-- Node27 -->
<g id="Node000027" class="node">
<title>Node27</title>
<g id="a_Node000027"><a xlink:title=" ">
<polygon fill="#e0e0e0" stroke="#999999" points="1256,-239 1200,-239 1200,-220 1256,-220 1256,-239"/>
<text text-anchor="middle" x="1228" y="-227" font-family="Helvetica,sans-Serif" font-size="10.00">stddef.h</text>
</a>
</g>
</g>
<!-- Node18&#45;&gt;Node27 -->
<g id="edge66_Node000018_Node000027" class="edge">
<title>Node18&#45;&gt;Node27</title>
<g id="a_edge66_Node000018_Node000027"><a xlink:title=" ">
<path fill="none" stroke="#63b8ff" d="M778.03,-689.98C900.7,-687.27 1286,-670.46 1286,-566 1286,-566 1286,-566 1286,-503.5 1286,-405.68 1249.93,-292.36 1234.68,-248.82"/>
<polygon fill="#63b8ff" stroke="#63b8ff" points="1237.94,-247.55 1231.28,-239.31 1231.35,-249.9 1237.94,-247.55"/>
</a>
</g>
</g>
<!-- Node28 -->
<g id="Node000028" class="node">
<title>Node28</title>
<g id="a_Node000028"><a xlink:title=" ">
<polygon fill="#e0e0e0" stroke="#999999" points="855.5,-239 802.5,-239 802.5,-220 855.5,-220 855.5,-239"/>
<text text-anchor="middle" x="829" y="-227" font-family="Helvetica,sans-Serif" font-size="10.00">stdint.h</text>
</a>
</g>
</g>
<!-- Node18&#45;&gt;Node28 -->
<g id="edge67_Node000018_Node000028" class="edge">
<title>Node18&#45;&gt;Node28</title>
<g id="a_edge67_Node000018_Node000028"><a xlink:title=" ">
<path fill="none" stroke="#63b8ff" d="M778.19,-687.04C877.96,-676.75 1144,-642.16 1144,-566 1144,-566 1144,-566 1144,-393.5 1144,-364.04 1143.78,-352.69 1125,-330 1120.77,-324.89 1025.22,-277.3 1019,-275 956.03,-251.72 935.29,-254.73 865.86,-239.15"/>
<polygon fill="#63b8ff" stroke="#63b8ff" points="866.26,-235.65 855.73,-236.82 864.7,-242.47 866.26,-235.65"/>
</a>
</g>
</g>
<!-- Node32 -->
<g id="Node000032" class="node">
<title>Node32</title>
<g id="a_Node000032"><a xlink:href="../../d2/d3c/Arduino-Hardware-Types_8hpp.html" target="_top" xlink:title=" ">
<polygon fill="white" stroke="#666666" points="758,-646 636,-646 636,-616 758,-616 758,-646"/>
<text text-anchor="start" x="644" y="-634" font-family="Helvetica,sans-Serif" font-size="10.00">AH/Hardware/Arduino</text>
<text text-anchor="middle" x="697" y="-623" font-family="Helvetica,sans-Serif" font-size="10.00">&#45;Hardware&#45;Types.hpp</text>
</a>
</g>
</g>
<!-- Node18&#45;&gt;Node32 -->
<g id="edge50_Node000018_Node000032" class="edge">
<title>Node18&#45;&gt;Node32</title>
<g id="a_edge50_Node000018_Node000032"><a xlink:title=" ">
<path fill="none" stroke="#63b8ff" d="M734.51,-681.87C729.03,-674.59 720.96,-663.85 713.7,-654.2"/>
<polygon fill="#63b8ff" stroke="#63b8ff" points="716.42,-652 707.62,-646.11 710.83,-656.21 716.42,-652"/>
</a>
</g>
</g>
<!-- Node33 -->
<g id="Node000033" class="node">
<title>Node33</title>
<g id="a_Node000033"><a xlink:href="../../d4/d35/Hardware-Types_8hpp.html" target="_top" xlink:title=" ">
<polygon fill="white" stroke="#666666" points="945.5,-580 814.5,-580 814.5,-550 945.5,-550 945.5,-580"/>
<text text-anchor="start" x="822.5" y="-568" font-family="Helvetica,sans-Serif" font-size="10.00">AH/Hardware/Hardware</text>
<text text-anchor="middle" x="880" y="-557" font-family="Helvetica,sans-Serif" font-size="10.00">&#45;Types.hpp</text>
</a>
</g>
</g>
<!-- Node18&#45;&gt;Node33 -->
<g id="edge63_Node000018_Node000033" class="edge">
<title>Node18&#45;&gt;Node33</title>
<g id="a_edge63_Node000018_Node000033"><a xlink:title=" ">
<path fill="none" stroke="#63b8ff" d="M753.59,-681.78C765.81,-673.14 784.7,-659.3 800,-646 821.4,-627.39 844.11,-604.33 859.84,-587.75"/>
<polygon fill="#63b8ff" stroke="#63b8ff" points="862.66,-589.86 866.97,-580.18 857.56,-585.06 862.66,-589.86"/>
</a>
</g>
</g>
<!-- Node34 -->
<g id="Node000034" class="node">
<title>Node34</title>
<g id="a_Node000034"><a xlink:title=" ">
<polygon fill="#e0e0e0" stroke="#999999" points="842,-514 760,-514 760,-495 842,-495 842,-514"/>
<text text-anchor="middle" x="801" y="-502" font-family="Helvetica,sans-Serif" font-size="10.00">AH/STL/limits</text>
</a>
</g>
</g>
<!-- Node18&#45;&gt;Node34 -->
<g id="edge64_Node000018_Node000034" class="edge">
<title>Node18&#45;&gt;Node34</title>
<g id="a_edge64_Node000018_Node000034"><a xlink:title=" ">
<path fill="none" stroke="#63b8ff" d="M747.19,-681.69C753.05,-672.99 761.72,-659.11 767,-646 783.83,-604.25 793.77,-552.03 798.21,-524.5"/>
<polygon fill="#63b8ff" stroke="#63b8ff" points="801.71,-524.74 799.78,-514.33 794.79,-523.67 801.71,-524.74"/>
</a>
</g>
</g>
<!-- Node19&#45;&gt;Node10 -->
<g id="edge48_Node000019_Node000010" class="edge">
<title>Node19&#45;&gt;Node10</title>
<g id="a_edge48_Node000019_Node000010"><a xlink:title=" ">
<path fill="none" stroke="#63b8ff" d="M967.97,-494.95C944.55,-488.08 914.34,-476.63 892,-459 818,-400.6 770,-379.77 770,-285.5 770,-285.5 770,-285.5 770,-228.5 770,-180.85 717.18,-149.15 681.05,-133.04"/>
<polygon fill="#63b8ff" stroke="#63b8ff" points="682.38,-129.8 671.81,-129.09 679.63,-136.24 682.38,-129.8"/>
</a>
</g>
</g>
<!-- Node20 -->
<g id="Node000020" class="node">
<title>Node20</title>
<g id="a_Node000020"><a xlink:href="../../d1/d93/Error_8hpp.html" target="_top" xlink:title=" ">
<polygon fill="white" stroke="#666666" points="1005,-459 901,-459 901,-440 1005,-440 1005,-459"/>
<text text-anchor="middle" x="953" y="-447" font-family="Helvetica,sans-Serif" font-size="10.00">AH/Error/Error.hpp</text>
</a>
</g>
</g>
<!-- Node19&#45;&gt;Node20 -->
<g id="edge31_Node000019_Node000020" class="edge">
<title>Node19&#45;&gt;Node20</title>
<g id="a_edge31_Node000019_Node000020"><a xlink:title=" ">
<path fill="none" stroke="#63b8ff" d="M995.58,-494.75C988.23,-487.11 977.37,-475.82 968.46,-466.56"/>
<polygon fill="#63b8ff" stroke="#63b8ff" points="970.72,-463.87 961.26,-459.09 965.68,-468.72 970.72,-463.87"/>
</a>
</g>
</g>
<!-- Node19&#45;&gt;Node27 -->
<g id="edge49_Node000019_Node000027" class="edge">
<title>Node19&#45;&gt;Node27</title>
<g id="a_edge49_Node000019_Node000027"><a xlink:title=" ">
<path fill="none" stroke="#63b8ff" d="M1071.74,-496.14C1131.78,-485.4 1210,-459.2 1210,-395.5 1210,-395.5 1210,-395.5 1210,-338.5 1210,-306.61 1217.73,-270.14 1223.06,-248.78"/>
<polygon fill="#63b8ff" stroke="#63b8ff" points="1226.45,-249.66 1225.57,-239.1 1219.67,-247.9 1226.45,-249.66"/>
</a>
</g>
</g>
<!-- Node31 -->
<g id="Node000031" class="node">
<title>Node31</title>
<g id="a_Node000031"><a xlink:title=" ">
<polygon fill="#e0e0e0" stroke="#999999" points="1113,-459 1023,-459 1023,-440 1113,-440 1113,-459"/>
<text text-anchor="middle" x="1068" y="-447" font-family="Helvetica,sans-Serif" font-size="10.00">AH/STL/iterator</text>
</a>
</g>
</g>
<!-- Node19&#45;&gt;Node31 -->
<g id="edge47_Node000019_Node000031" class="edge">
<title>Node19&#45;&gt;Node31</title>
<g id="a_edge47_Node000019_Node000031"><a xlink:title=" ">
<path fill="none" stroke="#63b8ff" d="M1014.28,-494.98C1023.84,-487.07 1038.28,-475.11 1049.78,-465.58"/>
<polygon fill="#63b8ff" stroke="#63b8ff" points="1052.06,-468.24 1057.53,-459.17 1047.6,-462.85 1052.06,-468.24"/>
</a>
</g>
</g>
<!-- Node21 -->
<g id="Node000021" class="node">
<title>Node21</title>
<g id="a_Node000021"><a xlink:href="../../df/dee/Debug_8hpp.html" target="_top" xlink:title=" ">
<polygon fill="white" stroke="#666666" points="1013.5,-404 892.5,-404 892.5,-385 1013.5,-385 1013.5,-404"/>
<text text-anchor="middle" x="953" y="-392" font-family="Helvetica,sans-Serif" font-size="10.00">AH/Debug/Debug.hpp</text>
</a>
</g>
</g>
<!-- Node20&#45;&gt;Node21 -->
<g id="edge32_Node000020_Node000021" class="edge">
<title>Node20&#45;&gt;Node21</title>
<g id="a_edge32_Node000020_Node000021"><a xlink:title=" ">
<path fill="none" stroke="#63b8ff" d="M953,-439.75C953,-432.8 953,-422.85 953,-414.13"/>
<polygon fill="#63b8ff" stroke="#63b8ff" points="956.5,-414.09 953,-404.09 949.5,-414.09 956.5,-414.09"/>
</a>
</g>
</g>
<!-- Node21&#45;&gt;Node11 -->
<g id="edge33_Node000021_Node000011" class="edge">
<title>Node21&#45;&gt;Node11</title>
<g id="a_edge33_Node000021_Node000011"><a xlink:title=" ">
<path fill="none" stroke="#63b8ff" d="M899.02,-384.98C839.71,-375.63 744.51,-360.61 681.36,-350.65"/>
<polygon fill="#63b8ff" stroke="#63b8ff" points="681.55,-347.14 671.13,-349.04 680.46,-354.05 681.55,-347.14"/>
</a>
</g>
</g>
<!-- Node22 -->
<g id="Node000022" class="node">
<title>Node22</title>
<g id="a_Node000022"><a xlink:href="../../de/dd1/AH_2Settings_2SettingsWrapper_8hpp.html" target="_top" xlink:title=" ">
<polygon fill="white" stroke="#666666" points="1116,-349 938,-349 938,-330 1116,-330 1116,-349"/>
<text text-anchor="middle" x="1027" y="-337" font-family="Helvetica,sans-Serif" font-size="10.00">AH/Settings/SettingsWrapper.hpp</text>
</a>
</g>
</g>
<!-- Node21&#45;&gt;Node22 -->
<g id="edge34_Node000021_Node000022" class="edge">
<title>Node21&#45;&gt;Node22</title>
<g id="a_edge34_Node000021_Node000022"><a xlink:title=" ">
<path fill="none" stroke="#63b8ff" d="M959.77,-384.98C969.35,-376.84 986.39,-364.41 1001.03,-354.76"/>
<polygon fill="#63b8ff" stroke="#63b8ff" points="1003.22,-357.51 1009.75,-349.17 999.44,-351.62 1003.22,-357.51"/>
</a>
</g>
</g>
<!-- Node30 -->
<g id="Node000030" class="node">
<title>Node30</title>
<g id="a_Node000030"><a xlink:href="../../d7/d52/DebugVal_8hpp.html" target="_top" xlink:title=" ">
<polygon fill="white" stroke="#666666" points="920,-349 836,-349 836,-330 920,-330 920,-349"/>
<text text-anchor="middle" x="878" y="-337" font-family="Helvetica,sans-Serif" font-size="10.00">DebugVal.hpp</text>
</a>
</g>
</g>
<!-- Node21&#45;&gt;Node30 -->
<g id="edge46_Node000021_Node000030" class="edge">
<title>Node21&#45;&gt;Node30</title>
<g id="a_edge46_Node000021_Node000030"><a xlink:title=" ">
<path fill="none" stroke="#63b8ff" d="M940.95,-384.98C929.54,-376.92 912.17,-364.65 898.57,-355.03"/>
<polygon fill="#63b8ff" stroke="#63b8ff" points="900.46,-352.08 890.27,-349.17 896.42,-357.8 900.46,-352.08"/>
</a>
</g>
</g>
<!-- Node22&#45;&gt;Node9 -->
<g id="edge35_Node000022_Node000009" class="edge">
<title>Node22&#45;&gt;Node9</title>
<g id="a_edge35_Node000022_Node000009"><a xlink:title=" ">
<path fill="none" stroke="#63b8ff" d="M1084.74,-329.96C1108.72,-323.68 1135.08,-312.82 1153,-294 1173.32,-272.67 1172,-259.96 1172,-230.5 1172,-230.5 1172,-230.5 1172,-173.5 1172,-104.88 968.45,-79.66 837.62,-70.53"/>
<polygon fill="#63b8ff" stroke="#63b8ff" points="837.76,-67.04 827.55,-69.85 837.29,-74.02 837.76,-67.04"/>
</a>
</g>
</g>
<!-- Node22&#45;&gt;Node21 -->
<g id="edge45_Node000022_Node000021" class="edge">
<title>Node22&#45;&gt;Node21</title>
<g id="a_edge45_Node000022_Node000021"><a xlink:title=" ">
<path fill="none" stroke="#63b8ff" d="M1020.04,-349.17C1010.38,-357.37 993.31,-369.81 978.7,-379.42"/>
<polygon fill="#63b8ff" stroke="#63b8ff" points="976.54,-376.65 970,-384.98 980.31,-382.54 976.54,-376.65"/>
</a>
</g>
</g>
<!-- Node23 -->
<g id="Node000023" class="node">
<title>Node23</title>
<g id="a_Node000023"><a xlink:href="../../d5/d4f/AH_2Settings_2Settings_8hpp.html" target="_top" xlink:title="All user settings and debugging options can be changed here.">
<polygon fill="white" stroke="#666666" points="1143.5,-294 1066.5,-294 1066.5,-275 1143.5,-275 1143.5,-294"/>
<text text-anchor="middle" x="1105" y="-282" font-family="Helvetica,sans-Serif" font-size="10.00">Settings.hpp</text>
</a>
</g>
</g>
<!-- Node22&#45;&gt;Node23 -->
<g id="edge36_Node000022_Node000023" class="edge">
<title>Node22&#45;&gt;Node23</title>
<g id="a_edge36_Node000022_Node000023"><a xlink:title=" ">
<path fill="none" stroke="#63b8ff" d="M1039.53,-329.98C1051.4,-321.92 1069.46,-309.65 1083.61,-300.03"/>
<polygon fill="#63b8ff" stroke="#63b8ff" points="1085.94,-302.69 1092.24,-294.17 1082,-296.9 1085.94,-302.69"/>
</a>
</g>
</g>
<!-- Node29 -->
<g id="Node000029" class="node">
<title>Node29</title>
<g id="a_Node000029"><a xlink:href="../../d9/d98/TeensyUSBTypes_8hpp.html" target="_top" xlink:title=" ">
<polygon fill="white" stroke="#666666" points="1009.5,-294 836.5,-294 836.5,-275 1009.5,-275 1009.5,-294"/>
<text text-anchor="middle" x="923" y="-282" font-family="Helvetica,sans-Serif" font-size="10.00">AH/Teensy/TeensyUSBTypes.hpp</text>
</a>
</g>
</g>
<!-- Node22&#45;&gt;Node29 -->
<g id="edge44_Node000022_Node000029" class="edge">
<title>Node22&#45;&gt;Node29</title>
<g id="a_edge44_Node000022_Node000029"><a xlink:title=" ">
<path fill="none" stroke="#63b8ff" d="M1010.29,-329.98C993.79,-321.57 968.3,-308.59 949.12,-298.81"/>
<polygon fill="#63b8ff" stroke="#63b8ff" points="950.51,-295.59 940.01,-294.17 947.33,-301.83 950.51,-295.59"/>
</a>
</g>
</g>
<!-- Node24 -->
<g id="Node000024" class="node">
<title>Node24</title>
<g id="a_Node000024"><a xlink:href="../../dc/d50/Frequency_8hpp.html" target="_top" xlink:title=" ">
<polygon fill="white" stroke="#666666" points="1038,-184 904,-184 904,-165 1038,-165 1038,-184"/>
<text text-anchor="middle" x="971" y="-172" font-family="Helvetica,sans-Serif" font-size="10.00">AH/Types/Frequency.hpp</text>
</a>
</g>
</g>
<!-- Node23&#45;&gt;Node24 -->
<g id="edge37_Node000023_Node000024" class="edge">
<title>Node23&#45;&gt;Node24</title>
<g id="a_edge37_Node000023_Node000024"><a xlink:title=" ">
<path fill="none" stroke="#63b8ff" d="M1109.2,-274.73C1114.85,-261.5 1122.9,-236.27 1111,-220 1096.18,-199.74 1072.06,-188.48 1047.98,-182.29"/>
<polygon fill="#63b8ff" stroke="#63b8ff" points="1048.58,-178.84 1038.05,-180.02 1047.01,-185.66 1048.58,-178.84"/>
</a>
</g>
</g>
<!-- Node25 -->
<g id="Node000025" class="node">
<title>Node25</title>
<g id="a_Node000025"><a xlink:href="../../d7/d7c/ADCConfig_8hpp.html" target="_top" xlink:title="This file contains the platform&#45;specific ADC resolutions.">
<polygon fill="white" stroke="#666666" points="1030.5,-239 873.5,-239 873.5,-220 1030.5,-220 1030.5,-239"/>
<text text-anchor="middle" x="952" y="-227" font-family="Helvetica,sans-Serif" font-size="10.00">AH/Hardware/ADCConfig.hpp</text>
</a>
</g>
</g>
<!-- Node23&#45;&gt;Node25 -->
<g id="edge39_Node000023_Node000025" class="edge">
<title>Node23&#45;&gt;Node25</title>
<g id="a_edge39_Node000023_Node000025"><a xlink:title=" ">
<path fill="none" stroke="#63b8ff" d="M1080.42,-274.98C1054.95,-266.16 1014.96,-252.31 986.37,-242.41"/>
<polygon fill="#63b8ff" stroke="#63b8ff" points="987.37,-239.05 976.77,-239.08 985.08,-245.66 987.37,-239.05"/>
</a>
</g>
</g>
<!-- Node26 -->
<g id="Node000026" class="node">
<title>Node26</title>
<g id="a_Node000026"><a xlink:title=" ">
<polygon fill="#e0e0e0" stroke="#999999" points="1101.5,-239 1048.5,-239 1048.5,-220 1101.5,-220 1101.5,-239"/>
<text text-anchor="middle" x="1075" y="-227" font-family="Helvetica,sans-Serif" font-size="10.00">limits.h</text>
</a>
</g>
</g>
<!-- Node23&#45;&gt;Node26 -->
<g id="edge41_Node000023_Node000026" class="edge">
<title>Node23&#45;&gt;Node26</title>
<g id="a_edge41_Node000023_Node000026"><a xlink:title=" ">
<path fill="none" stroke="#63b8ff" d="M1100.05,-274.75C1095.94,-267.49 1089.97,-256.95 1084.9,-247.98"/>
<polygon fill="#63b8ff" stroke="#63b8ff" points="1087.83,-246.07 1079.86,-239.09 1081.74,-249.52 1087.83,-246.07"/>
</a>
</g>
</g>
<!-- Node23&#45;&gt;Node27 -->
<g id="edge42_Node000023_Node000027" class="edge">
<title>Node23&#45;&gt;Node27</title>
<g id="a_edge42_Node000023_Node000027"><a xlink:title=" ">
<path fill="none" stroke="#63b8ff" d="M1124.76,-274.98C1144.73,-266.38 1175.8,-252.99 1198.65,-243.15"/>
<polygon fill="#63b8ff" stroke="#63b8ff" points="1200.08,-246.34 1207.88,-239.17 1197.31,-239.91 1200.08,-246.34"/>
</a>
</g>
</g>
<!-- Node23&#45;&gt;Node28 -->
<g id="edge43_Node000023_Node000028" class="edge">
<title>Node23&#45;&gt;Node28</title>
<g id="a_edge43_Node000023_Node000028"><a xlink:title=" ">
<path fill="none" stroke="#63b8ff" d="M1066.23,-276.91C1020.63,-269.02 942.45,-255.09 865.56,-239.03"/>
<polygon fill="#63b8ff" stroke="#63b8ff" points="866.21,-235.59 855.7,-236.96 864.77,-242.44 866.21,-235.59"/>
</a>
</g>
</g>
<!-- Node24&#45;&gt;Node9 -->
<g id="edge38_Node000024_Node000009" class="edge">
<title>Node24&#45;&gt;Node9</title>
<g id="a_edge38_Node000024_Node000009"><a xlink:title=" ">
<path fill="none" stroke="#63b8ff" d="M951.69,-164.84C909.28,-145.84 807.85,-100.39 758.27,-78.17"/>
<polygon fill="#63b8ff" stroke="#63b8ff" points="759.63,-74.94 749.07,-74.05 756.77,-81.33 759.63,-74.94"/>
</a>
</g>
</g>
<!-- Node25&#45;&gt;Node4 -->
<g id="edge40_Node000025_Node000004" class="edge">
<title>Node25&#45;&gt;Node4</title>
<g id="a_edge40_Node000025_Node000004"><a xlink:title=" ">
<path fill="none" stroke="#63b8ff" d="M873.28,-220.79C870.49,-220.52 867.72,-220.26 865,-220 720.01,-206.21 550.37,-190.65 456.26,-182.07"/>
<polygon fill="#63b8ff" stroke="#63b8ff" points="456.55,-178.58 446.27,-181.16 455.92,-185.55 456.55,-178.58"/>
</a>
</g>
</g>
<!-- Node32&#45;&gt;Node4 -->
<g id="edge61_Node000032_Node000004" class="edge">
<title>Node32&#45;&gt;Node4</title>
<g id="a_edge61_Node000032_Node000004"><a xlink:title=" ">
<path fill="none" stroke="#63b8ff" d="M635.93,-616.97C606.03,-608.99 570.27,-596.99 541,-580 480.17,-544.68 450,-520.84 450,-450.5 450,-450.5 450,-450.5 450,-283.5 450,-246.23 421.02,-210.93 401.47,-191.36"/>
<polygon fill="#63b8ff" stroke="#63b8ff" points="403.66,-188.61 394.02,-184.2 398.81,-193.65 403.66,-188.61"/>
</a>
</g>
</g>
<!-- Node32&#45;&gt;Node10 -->
<g id="edge62_Node000032_Node000010" class="edge">
<title>Node32&#45;&gt;Node10</title>
<g id="a_edge62_Node000032_Node000010"><a xlink:title=" ">
<path fill="none" stroke="#63b8ff" d="M703.75,-615.8C713.92,-593.06 732,-546.81 732,-505.5 732,-505.5 732,-505.5 732,-338.5 732,-259.16 682.96,-173.79 659.82,-137.93"/>
<polygon fill="#63b8ff" stroke="#63b8ff" points="662.47,-135.59 654.04,-129.17 656.63,-139.44 662.47,-135.59"/>
</a>
</g>
</g>
<!-- Node32&#45;&gt;Node33 -->
<g id="edge51_Node000032_Node000033" class="edge">
<title>Node32&#45;&gt;Node33</title>
<g id="a_edge51_Node000032_Node000033"><a xlink:title=" ">
<path fill="none" stroke="#63b8ff" d="M737.16,-615.95C764.57,-606.37 801.08,-593.6 830.32,-583.37"/>
<polygon fill="#63b8ff" stroke="#63b8ff" points="831.65,-586.62 839.93,-580.01 829.34,-580.01 831.65,-586.62"/>
</a>
</g>
</g>
<!-- Node35 -->
<g id="Node000035" class="node">
<title>Node35</title>
<g id="a_Node000035"><a xlink:href="../../d0/db1/FunctionTraits_8hpp.html" target="_top" xlink:title=" ">
<polygon fill="white" stroke="#666666" points="702.5,-574.5 549.5,-574.5 549.5,-555.5 702.5,-555.5 702.5,-574.5"/>
<text text-anchor="middle" x="626" y="-562.5" font-family="Helvetica,sans-Serif" font-size="10.00">AH/Types/FunctionTraits.hpp</text>
</a>
</g>
</g>
<!-- Node32&#45;&gt;Node35 -->
<g id="edge57_Node000032_Node000035" class="edge">
<title>Node32&#45;&gt;Node35</title>
<g id="a_edge57_Node000032_Node000035"><a xlink:title=" ">
<path fill="none" stroke="#63b8ff" d="M681.24,-615.8C670.07,-605.72 655.06,-592.19 643.51,-581.78"/>
<polygon fill="#63b8ff" stroke="#63b8ff" points="645.58,-578.94 635.81,-574.84 640.9,-584.14 645.58,-578.94"/>
</a>
</g>
</g>
<!-- Node33&#45;&gt;Node9 -->
<g id="edge55_Node000033_Node000009" class="edge">
<title>Node33&#45;&gt;Node9</title>
<g id="a_edge55_Node000033_Node000009"><a xlink:title=" ">
<path fill="none" stroke="#63b8ff" d="M945.68,-557.75C1060.59,-542.83 1286,-493.98 1286,-340.5 1286,-340.5 1286,-340.5 1286,-173.5 1286,-83.23 1000.04,-66.89 838.27,-64.87"/>
<polygon fill="#63b8ff" stroke="#63b8ff" points="837.84,-61.36 827.8,-64.76 837.76,-68.36 837.84,-61.36"/>
</a>
</g>
</g>
<!-- Node33&#45;&gt;Node11 -->
<g id="edge53_Node000033_Node000011" class="edge">
<title>Node33&#45;&gt;Node11</title>
<g id="a_edge53_Node000033_Node000011"><a xlink:title=" ">
<path fill="none" stroke="#63b8ff" d="M876.65,-549.75C872.58,-534.82 864.52,-511.3 851,-495 835.13,-475.87 695.71,-388.97 639.93,-354.57"/>
<polygon fill="#63b8ff" stroke="#63b8ff" points="641.47,-351.42 631.12,-349.16 637.8,-357.38 641.47,-351.42"/>
</a>
</g>
</g>
<!-- Node33&#45;&gt;Node19 -->
<g id="edge52_Node000033_Node000019" class="edge">
<title>Node33&#45;&gt;Node19</title>
<g id="a_edge52_Node000033_Node000019"><a xlink:title=" ">
<path fill="none" stroke="#63b8ff" d="M909.7,-549.99C930.02,-540.4 956.76,-527.79 976.58,-518.44"/>
<polygon fill="#63b8ff" stroke="#63b8ff" points="978.14,-521.57 985.69,-514.14 975.15,-515.24 978.14,-521.57"/>
</a>
</g>
</g>
<!-- Node33&#45;&gt;Node28 -->
<g id="edge56_Node000033_Node000028" class="edge">
<title>Node33&#45;&gt;Node28</title>
<g id="a_edge56_Node000033_Node000028"><a xlink:title=" ">
<path fill="none" stroke="#63b8ff" d="M878.55,-549.89C876.97,-535.87 874.11,-513.8 870,-495 855.56,-428.92 836.65,-415.95 827,-349 825.79,-340.64 826.92,-338.44 827,-330 827.26,-301.84 828,-269.2 828.5,-249.2"/>
<polygon fill="#63b8ff" stroke="#63b8ff" points="832,-249.1 828.77,-239.02 825.01,-248.92 832,-249.1"/>
</a>
</g>
</g>
<!-- Node33&#45;&gt;Node34 -->
<g id="edge54_Node000033_Node000034" class="edge">
<title>Node33&#45;&gt;Node34</title>
<g id="a_edge54_Node000033_Node000034"><a xlink:title=" ">
<path fill="none" stroke="#63b8ff" d="M860.88,-549.84C848.82,-540.91 833.29,-529.41 821.06,-520.35"/>
<polygon fill="#63b8ff" stroke="#63b8ff" points="822.96,-517.4 812.84,-514.27 818.79,-523.03 822.96,-517.4"/>
</a>
</g>
</g>
<!-- Node35&#45;&gt;Node9 -->
<g id="edge60_Node000035_Node000009" class="edge">
<title>Node35&#45;&gt;Node9</title>
<g id="a_edge60_Node000035_Node000009"><a xlink:title=" ">
<path fill="none" stroke="#63b8ff" d="M639.74,-555.38C657.58,-543.01 685.29,-519.04 675,-495 638.02,-408.59 558.98,-435.41 522,-349 518.68,-341.24 520.32,-338.28 522,-330 531.52,-282.95 564,-278.5 564,-230.5 564,-230.5 564,-230.5 564,-173.5 564,-143.63 564.53,-130.76 586,-110 602.96,-93.6 625.84,-83.24 648.36,-76.69"/>
<polygon fill="#63b8ff" stroke="#63b8ff" points="649.55,-79.99 658.31,-74.02 647.74,-73.23 649.55,-79.99"/>
</a>
</g>
</g>
<!-- Node35&#45;&gt;Node13 -->
<g id="edge58_Node000035_Node000013" class="edge">
<title>Node35&#45;&gt;Node13</title>
<g id="a_edge58_Node000035_Node000013"><a xlink:title=" ">
<path fill="none" stroke="#63b8ff" d="M610.8,-555.37C593.99,-545.82 566.68,-530.31 546.98,-519.12"/>
<polygon fill="#63b8ff" stroke="#63b8ff" points="548.68,-516.06 538.26,-514.17 545.23,-522.15 548.68,-516.06"/>
</a>
</g>
</g>
<!-- Node36 -->
<g id="Node000036" class="node">
<title>Node36</title>
<g id="a_Node000036"><a xlink:title=" ">
<polygon fill="#e0e0e0" stroke="#999999" points="665.5,-514 586.5,-514 586.5,-495 665.5,-495 665.5,-514"/>
<text text-anchor="middle" x="626" y="-502" font-family="Helvetica,sans-Serif" font-size="10.00">AH/STL/tuple</text>
</a>
</g>
</g>
<!-- Node35&#45;&gt;Node36 -->
<g id="edge59_Node000035_Node000036" class="edge">
<title>Node35&#45;&gt;Node36</title>
<g id="a_edge59_Node000035_Node000036"><a xlink:title=" ">
<path fill="none" stroke="#63b8ff" d="M626,-555.37C626,-547.25 626,-534.81 626,-524.39"/>
<polygon fill="#63b8ff" stroke="#63b8ff" points="629.5,-524.17 626,-514.17 622.5,-524.17 629.5,-524.17"/>
</a>
</g>
</g>
</g>
</svg>
