<?xml version="1.0" encoding="UTF-8" standalone="no"?>
<!DOCTYPE svg PUBLIC "-//W3C//DTD SVG 1.1//EN"
 "http://www.w3.org/Graphics/SVG/1.1/DTD/svg11.dtd">
<!-- Generated by graphviz version 2.38.0 (20140413.2041)
 -->
<!-- Title: USBMIDI_Teensy3.ipp Pages: 1 -->
<svg width="270pt" height="84pt"
 viewBox="0.00 0.00 269.50 84.00" xmlns="http://www.w3.org/2000/svg" xmlns:xlink="http://www.w3.org/1999/xlink">
<g id="graph0" class="graph" transform="scale(1 1) rotate(0) translate(4 80)">
<title>USBMIDI_Teensy3.ipp</title>
<polygon fill="white" stroke="none" points="-4,4 -4,-80 265.5,-80 265.5,4 -4,4"/>
<!-- Node1 -->
<g id="node1" class="node"><title>Node1</title>
<g id="a_node1"><a xlink:title=" ">
<polygon fill="#bfbfbf" stroke="black" points="70,-56.5 70,-75.5 188,-75.5 188,-56.5 70,-56.5"/>
<text text-anchor="middle" x="129" y="-63.5" font-family="Helvetica,sans-Serif" font-size="10.00">USBMIDI_Teensy3.ipp</text>
</a>
</g>
</g>
<!-- Node2 -->
<g id="node2" class="node"><title>Node2</title>
<g id="a_node2"><a xlink:href="../../db/d79/USBMIDI__Teensy4_8ipp.html" target="_top" xlink:title=" ">
<polygon fill="white" stroke="black" points="0,-0.5 0,-19.5 118,-19.5 118,-0.5 0,-0.5"/>
<text text-anchor="middle" x="59" y="-7.5" font-family="Helvetica,sans-Serif" font-size="10.00">USBMIDI_Teensy4.ipp</text>
</a>
</g>
</g>
<!-- Node1&#45;&gt;Node2 -->
<g id="edge1" class="edge"><title>Node1&#45;&gt;Node2</title>
<path fill="none" stroke="midnightblue" d="M109.686,-50.1008C97.0883,-40.3824 81.0719,-28.0269 70.4513,-19.8339"/>
<polygon fill="midnightblue" stroke="midnightblue" points="107.698,-52.9871 117.753,-56.324 111.973,-47.4446 107.698,-52.9871"/>
</g>
<!-- Node3 -->
<g id="node3" class="node"><title>Node3</title>
<g id="a_node3"><a xlink:href="../../db/dd1/USBMIDI__TeensyLC_8ipp.html" target="_top" xlink:title=" ">
<polygon fill="white" stroke="black" points="136.5,-0.5 136.5,-19.5 261.5,-19.5 261.5,-0.5 136.5,-0.5"/>
<text text-anchor="middle" x="199" y="-7.5" font-family="Helvetica,sans-Serif" font-size="10.00">USBMIDI_TeensyLC.ipp</text>
</a>
</g>
</g>
<!-- Node1&#45;&gt;Node3 -->
<g id="edge2" class="edge"><title>Node1&#45;&gt;Node3</title>
<path fill="none" stroke="midnightblue" d="M148.314,-50.1008C160.912,-40.3824 176.928,-28.0269 187.549,-19.8339"/>
<polygon fill="midnightblue" stroke="midnightblue" points="146.027,-47.4446 140.247,-56.324 150.302,-52.9871 146.027,-47.4446"/>
</g>
</g>
</svg>
