<?xml version="1.0" encoding="UTF-8" standalone="no"?>
<!DOCTYPE svg PUBLIC "-//W3C//DTD SVG 1.1//EN"
 "http://www.w3.org/Graphics/SVG/1.1/DTD/svg11.dtd">
<!-- Generated by graphviz version 2.43.0 (0)
 -->
<!-- Title: Arduino&#45;Hardware&#45;Types.hpp Pages: 1 -->
<svg width="1286pt" height="655pt"
 viewBox="0.00 0.00 1286.00 655.00" xmlns="http://www.w3.org/2000/svg" xmlns:xlink="http://www.w3.org/1999/xlink">
<g id="graph0" class="graph" transform="scale(1 1) rotate(0) translate(4 651)">
<title>Arduino&#45;Hardware&#45;Types.hpp</title>
<polygon fill="white" stroke="transparent" points="-4,4 -4,-651 1282,-651 1282,4 -4,4"/>
<!-- Node1 -->
<g id="node1" class="node">
<title>Node1</title>
<g id="a_node1"><a xlink:title=" ">
<polygon fill="#bfbfbf" stroke="black" points="899,-627.5 899,-646.5 1056,-646.5 1056,-627.5 899,-627.5"/>
<text text-anchor="middle" x="977.5" y="-634.5" font-family="Helvetica,sans-Serif" font-size="10.00">Arduino&#45;Hardware&#45;Types.hpp</text>
</a>
</g>
</g>
<!-- Node2 -->
<g id="node2" class="node">
<title>Node2</title>
<g id="a_node2"><a xlink:href="../../d1/d65/Warnings_8hpp.html" target="_top" xlink:title=" ">
<polygon fill="white" stroke="black" points="495,-0.5 495,-19.5 638,-19.5 638,-0.5 495,-0.5"/>
<text text-anchor="middle" x="566.5" y="-7.5" font-family="Helvetica,sans-Serif" font-size="10.00">AH/Settings/Warnings.hpp</text>
</a>
</g>
</g>
<!-- Node1&#45;&gt;Node2 -->
<g id="edge1" class="edge">
<title>Node1&#45;&gt;Node2</title>
<path fill="none" stroke="midnightblue" d="M983.65,-627.43C989.71,-618.65 998.84,-604.43 1004.5,-591 1018.07,-558.81 1024.5,-549.93 1024.5,-515 1024.5,-515 1024.5,-515 1024.5,-121 1024.5,-44.49 779.79,-21.06 648.12,-13.99"/>
<polygon fill="midnightblue" stroke="midnightblue" points="648.23,-10.49 638.06,-13.47 647.87,-17.48 648.23,-10.49"/>
</g>
<!-- Node3 -->
<g id="node3" class="node">
<title>Node3</title>
<g id="a_node3"><a xlink:href="../../d4/d35/Hardware-Types_8hpp.html" target="_top" xlink:title=" ">
<polygon fill="white" stroke="black" points="865,-560.5 865,-590.5 996,-590.5 996,-560.5 865,-560.5"/>
<text text-anchor="start" x="873" y="-578.5" font-family="Helvetica,sans-Serif" font-size="10.00">AH/Hardware/Hardware</text>
<text text-anchor="middle" x="930.5" y="-567.5" font-family="Helvetica,sans-Serif" font-size="10.00">&#45;Types.hpp</text>
</a>
</g>
</g>
<!-- Node1&#45;&gt;Node3 -->
<g id="edge2" class="edge">
<title>Node1&#45;&gt;Node3</title>
<path fill="none" stroke="midnightblue" d="M970.77,-627.48C964.82,-619.94 955.88,-608.63 947.93,-598.57"/>
<polygon fill="midnightblue" stroke="midnightblue" points="950.52,-596.2 941.58,-590.52 945.03,-600.54 950.52,-596.2"/>
</g>
<!-- Node9 -->
<g id="node9" class="node">
<title>Node9</title>
<g id="a_node9"><a xlink:href="../../d6/ddf/Arduino-Wrapper_8h.html" target="_top" xlink:title=" ">
<polygon fill="white" stroke="black" points="254.5,-168.5 254.5,-187.5 378.5,-187.5 378.5,-168.5 254.5,-168.5"/>
<text text-anchor="middle" x="316.5" y="-175.5" font-family="Helvetica,sans-Serif" font-size="10.00">AH/Arduino&#45;Wrapper.h</text>
</a>
</g>
</g>
<!-- Node1&#45;&gt;Node9 -->
<g id="edge48" class="edge">
<title>Node1&#45;&gt;Node9</title>
<path fill="none" stroke="midnightblue" d="M898.94,-634.31C669.66,-628.35 17.5,-603.61 17.5,-515 17.5,-515 17.5,-515 17.5,-289 17.5,-239.34 164.63,-205.22 252.47,-189.28"/>
<polygon fill="midnightblue" stroke="midnightblue" points="253.12,-192.72 262.35,-187.52 251.89,-185.83 253.12,-192.72"/>
</g>
<!-- Node24 -->
<g id="node24" class="node">
<title>Node24</title>
<g id="a_node24"><a xlink:href="../../d0/db1/FunctionTraits_8hpp.html" target="_top" xlink:title=" ">
<polygon fill="white" stroke="black" points="1053,-112.5 1053,-131.5 1206,-131.5 1206,-112.5 1053,-112.5"/>
<text text-anchor="middle" x="1129.5" y="-119.5" font-family="Helvetica,sans-Serif" font-size="10.00">AH/Types/FunctionTraits.hpp</text>
</a>
</g>
</g>
<!-- Node1&#45;&gt;Node24 -->
<g id="edge43" class="edge">
<title>Node1&#45;&gt;Node24</title>
<path fill="none" stroke="midnightblue" d="M996.46,-627.4C1029.81,-610.82 1095.5,-571.04 1095.5,-515 1095.5,-515 1095.5,-515 1095.5,-233 1095.5,-199.16 1110.37,-161.97 1120.44,-140.66"/>
<polygon fill="midnightblue" stroke="midnightblue" points="1123.64,-142.08 1124.91,-131.56 1117.36,-138.99 1123.64,-142.08"/>
</g>
<!-- Node3&#45;&gt;Node2 -->
<g id="edge3" class="edge">
<title>Node3&#45;&gt;Node2</title>
<path fill="none" stroke="midnightblue" d="M942.65,-560.26C959.12,-539.46 986.5,-498.89 986.5,-459 986.5,-459 986.5,-459 986.5,-121 986.5,-51.81 770.5,-25.29 648.3,-15.82"/>
<polygon fill="midnightblue" stroke="midnightblue" points="648.46,-12.32 638.22,-15.06 647.93,-19.3 648.46,-12.32"/>
</g>
<!-- Node4 -->
<g id="node4" class="node">
<title>Node4</title>
<g id="a_node4"><a xlink:href="../../de/d76/Array_8hpp.html" target="_top" xlink:title=" ">
<polygon fill="white" stroke="black" points="219,-504.5 219,-523.5 354,-523.5 354,-504.5 219,-504.5"/>
<text text-anchor="middle" x="286.5" y="-511.5" font-family="Helvetica,sans-Serif" font-size="10.00">AH/Containers/Array.hpp</text>
</a>
</g>
</g>
<!-- Node3&#45;&gt;Node4 -->
<g id="edge4" class="edge">
<title>Node3&#45;&gt;Node4</title>
<path fill="none" stroke="midnightblue" d="M864.91,-568.44C745.36,-557.39 492.56,-534.04 364.44,-522.2"/>
<polygon fill="midnightblue" stroke="midnightblue" points="364.59,-518.7 354.31,-521.27 363.95,-525.67 364.59,-518.7"/>
</g>
<!-- Node8 -->
<g id="node8" class="node">
<title>Node8</title>
<g id="a_node8"><a xlink:href="../../dc/dc7/NamespaceSettings_8hpp.html" target="_top" xlink:title=" ">
<polygon fill="white" stroke="black" points="613,-56.5 613,-75.5 808,-75.5 808,-56.5 613,-56.5"/>
<text text-anchor="middle" x="710.5" y="-63.5" font-family="Helvetica,sans-Serif" font-size="10.00">AH/Settings/NamespaceSettings.hpp</text>
</a>
</g>
</g>
<!-- Node3&#45;&gt;Node8 -->
<g id="edge41" class="edge">
<title>Node3&#45;&gt;Node8</title>
<path fill="none" stroke="midnightblue" d="M934.14,-560.39C939.4,-538.73 948.5,-495.94 948.5,-459 948.5,-459 948.5,-459 948.5,-233 948.5,-142.13 830.34,-96.9 760.53,-78.11"/>
<polygon fill="midnightblue" stroke="midnightblue" points="761.16,-74.66 750.6,-75.53 759.4,-81.43 761.16,-74.66"/>
</g>
<!-- Node20 -->
<g id="node20" class="node">
<title>Node20</title>
<g id="a_node20"><a xlink:title=" ">
<polygon fill="white" stroke="#bfbfbf" points="561,-224.5 561,-243.5 614,-243.5 614,-224.5 561,-224.5"/>
<text text-anchor="middle" x="587.5" y="-231.5" font-family="Helvetica,sans-Serif" font-size="10.00">stdint.h</text>
</a>
</g>
</g>
<!-- Node3&#45;&gt;Node20 -->
<g id="edge42" class="edge">
<title>Node3&#45;&gt;Node20</title>
<path fill="none" stroke="midnightblue" d="M920.11,-560.37C905.72,-539.38 881.5,-498.21 881.5,-459 881.5,-459 881.5,-459 881.5,-401 881.5,-284.04 702.88,-248.56 624.09,-238.59"/>
<polygon fill="midnightblue" stroke="midnightblue" points="624.45,-235.11 614.11,-237.4 623.62,-242.06 624.45,-235.11"/>
</g>
<!-- Node4&#45;&gt;Node2 -->
<g id="edge5" class="edge">
<title>Node4&#45;&gt;Node2</title>
<path fill="none" stroke="midnightblue" d="M354.2,-506.7C485.66,-490.36 772.86,-433.59 890.5,-244 925.27,-187.97 1068.54,-256.44 836.5,-56 808.86,-32.13 717.1,-20.7 648.16,-15.38"/>
<polygon fill="midnightblue" stroke="midnightblue" points="648.4,-11.89 638.17,-14.64 647.88,-18.87 648.4,-11.89"/>
</g>
<!-- Node5 -->
<g id="node5" class="node">
<title>Node5</title>
<g id="a_node5"><a xlink:href="../../d1/d93/Error_8hpp.html" target="_top" xlink:title=" ">
<polygon fill="white" stroke="black" points="83.5,-448.5 83.5,-467.5 187.5,-467.5 187.5,-448.5 83.5,-448.5"/>
<text text-anchor="middle" x="135.5" y="-455.5" font-family="Helvetica,sans-Serif" font-size="10.00">AH/Error/Error.hpp</text>
</a>
</g>
</g>
<!-- Node4&#45;&gt;Node5 -->
<g id="edge6" class="edge">
<title>Node4&#45;&gt;Node5</title>
<path fill="none" stroke="midnightblue" d="M262.57,-504.44C237.28,-495.4 197.2,-481.06 168.82,-470.92"/>
<polygon fill="midnightblue" stroke="midnightblue" points="169.91,-467.59 159.31,-467.52 167.55,-474.18 169.91,-467.59"/>
</g>
<!-- Node13 -->
<g id="node13" class="node">
<title>Node13</title>
<g id="a_node13"><a xlink:title=" ">
<polygon fill="white" stroke="#bfbfbf" points="0,-112.5 0,-131.5 107,-131.5 107,-112.5 0,-112.5"/>
<text text-anchor="middle" x="53.5" y="-119.5" font-family="Helvetica,sans-Serif" font-size="10.00">AH/STL/type_traits</text>
</a>
</g>
</g>
<!-- Node4&#45;&gt;Node13 -->
<g id="edge39" class="edge">
<title>Node4&#45;&gt;Node13</title>
<path fill="none" stroke="midnightblue" d="M218.74,-506.18C164.88,-499.42 95.26,-487.25 74.5,-468 52.43,-447.53 55.5,-433.1 55.5,-403 55.5,-403 55.5,-403 55.5,-233 55.5,-200.94 54.64,-163.64 54.05,-141.75"/>
<polygon fill="midnightblue" stroke="midnightblue" points="57.54,-141.45 53.76,-131.56 50.54,-141.65 57.54,-141.45"/>
</g>
<!-- Node19 -->
<g id="node19" class="node">
<title>Node19</title>
<g id="a_node19"><a xlink:title=" ">
<polygon fill="white" stroke="#bfbfbf" points="201.5,-224.5 201.5,-243.5 257.5,-243.5 257.5,-224.5 201.5,-224.5"/>
<text text-anchor="middle" x="229.5" y="-231.5" font-family="Helvetica,sans-Serif" font-size="10.00">stddef.h</text>
</a>
</g>
</g>
<!-- Node4&#45;&gt;Node19 -->
<g id="edge40" class="edge">
<title>Node4&#45;&gt;Node19</title>
<path fill="none" stroke="midnightblue" d="M291.12,-504.34C295.56,-495.49 301.95,-481.22 304.5,-468 306.18,-459.27 306,-456.76 304.5,-448 291.64,-372.73 254.93,-288.7 238.11,-252.81"/>
<polygon fill="midnightblue" stroke="midnightblue" points="241.21,-251.17 233.75,-243.64 234.89,-254.17 241.21,-251.17"/>
</g>
<!-- Node23 -->
<g id="node23" class="node">
<title>Node23</title>
<g id="a_node23"><a xlink:title=" ">
<polygon fill="white" stroke="#bfbfbf" points="205.5,-448.5 205.5,-467.5 295.5,-467.5 295.5,-448.5 205.5,-448.5"/>
<text text-anchor="middle" x="250.5" y="-455.5" font-family="Helvetica,sans-Serif" font-size="10.00">AH/STL/iterator</text>
</a>
</g>
</g>
<!-- Node4&#45;&gt;Node23 -->
<g id="edge38" class="edge">
<title>Node4&#45;&gt;Node23</title>
<path fill="none" stroke="midnightblue" d="M280.56,-504.08C275.52,-496.53 268.16,-485.49 261.99,-476.23"/>
<polygon fill="midnightblue" stroke="midnightblue" points="264.79,-474.13 256.33,-467.75 258.97,-478.01 264.79,-474.13"/>
</g>
<!-- Node5&#45;&gt;Node2 -->
<g id="edge7" class="edge">
<title>Node5&#45;&gt;Node2</title>
<path fill="none" stroke="midnightblue" d="M135.5,-448.44C135.5,-429.94 135.5,-384.81 135.5,-347 135.5,-347 135.5,-347 135.5,-121 135.5,-82.58 158.51,-73.92 192.5,-56 241.62,-30.1 390.13,-18.76 484.57,-14.06"/>
<polygon fill="midnightblue" stroke="midnightblue" points="484.85,-17.55 494.67,-13.57 484.51,-10.56 484.85,-17.55"/>
</g>
<!-- Node6 -->
<g id="node6" class="node">
<title>Node6</title>
<g id="a_node6"><a xlink:href="../../df/dee/Debug_8hpp.html" target="_top" xlink:title=" ">
<polygon fill="white" stroke="black" points="395,-392.5 395,-411.5 516,-411.5 516,-392.5 395,-392.5"/>
<text text-anchor="middle" x="455.5" y="-399.5" font-family="Helvetica,sans-Serif" font-size="10.00">AH/Debug/Debug.hpp</text>
</a>
</g>
</g>
<!-- Node5&#45;&gt;Node6 -->
<g id="edge8" class="edge">
<title>Node5&#45;&gt;Node6</title>
<path fill="none" stroke="midnightblue" d="M186.2,-448.44C242.85,-438.89 334.5,-423.42 394.88,-413.23"/>
<polygon fill="midnightblue" stroke="midnightblue" points="395.75,-416.63 405.03,-411.52 394.59,-409.73 395.75,-416.63"/>
</g>
<!-- Node6&#45;&gt;Node2 -->
<g id="edge9" class="edge">
<title>Node6&#45;&gt;Node2</title>
<path fill="none" stroke="midnightblue" d="M409.3,-392.44C325.93,-374.37 161.69,-325.37 192.5,-224 209.92,-166.68 219.61,-148 267.5,-112 309.63,-80.33 331.48,-95.38 380.5,-76 399.73,-68.4 403.25,-63.55 422.5,-56 456.31,-42.74 495.74,-30.65 524.78,-22.34"/>
<polygon fill="midnightblue" stroke="midnightblue" points="525.92,-25.66 534.59,-19.57 524.02,-18.92 525.92,-25.66"/>
</g>
<!-- Node7 -->
<g id="node7" class="node">
<title>Node7</title>
<g id="a_node7"><a xlink:href="../../dd/d80/PrintStream_8hpp.html" target="_top" xlink:title=" ">
<polygon fill="white" stroke="black" points="709,-224.5 709,-243.5 882,-243.5 882,-224.5 709,-224.5"/>
<text text-anchor="middle" x="795.5" y="-231.5" font-family="Helvetica,sans-Serif" font-size="10.00">AH/PrintStream/PrintStream.hpp</text>
</a>
</g>
</g>
<!-- Node6&#45;&gt;Node7 -->
<g id="edge10" class="edge">
<title>Node6&#45;&gt;Node7</title>
<path fill="none" stroke="midnightblue" d="M503.45,-392.46C562.18,-380.11 662.48,-352.73 732.5,-300 751.42,-285.75 769.9,-265.75 781.9,-251.71"/>
<polygon fill="midnightblue" stroke="midnightblue" points="784.75,-253.76 788.48,-243.84 779.38,-249.27 784.75,-253.76"/>
</g>
<!-- Node14 -->
<g id="node14" class="node">
<title>Node14</title>
<g id="a_node14"><a xlink:href="../../d2/dd5/SettingsWrapper_8hpp.html" target="_top" xlink:title=" ">
<polygon fill="white" stroke="black" points="440.5,-336.5 440.5,-355.5 618.5,-355.5 618.5,-336.5 440.5,-336.5"/>
<text text-anchor="middle" x="529.5" y="-343.5" font-family="Helvetica,sans-Serif" font-size="10.00">AH/Settings/SettingsWrapper.hpp</text>
</a>
</g>
</g>
<!-- Node6&#45;&gt;Node14 -->
<g id="edge22" class="edge">
<title>Node6&#45;&gt;Node14</title>
<path fill="none" stroke="midnightblue" d="M462.27,-392.32C471.9,-383.98 489.09,-371.21 503.79,-361.35"/>
<polygon fill="midnightblue" stroke="midnightblue" points="506.06,-364.05 512.53,-355.65 502.24,-358.18 506.06,-364.05"/>
</g>
<!-- Node22 -->
<g id="node22" class="node">
<title>Node22</title>
<g id="a_node22"><a xlink:href="../../d7/d52/DebugVal_8hpp.html" target="_top" xlink:title=" ">
<polygon fill="white" stroke="black" points="338.5,-336.5 338.5,-355.5 422.5,-355.5 422.5,-336.5 338.5,-336.5"/>
<text text-anchor="middle" x="380.5" y="-343.5" font-family="Helvetica,sans-Serif" font-size="10.00">DebugVal.hpp</text>
</a>
</g>
</g>
<!-- Node6&#45;&gt;Node22 -->
<g id="edge37" class="edge">
<title>Node6&#45;&gt;Node22</title>
<path fill="none" stroke="midnightblue" d="M443.45,-392.32C432.04,-384.11 414.67,-371.6 401.07,-361.81"/>
<polygon fill="midnightblue" stroke="midnightblue" points="402.93,-358.84 392.77,-355.83 398.84,-364.52 402.93,-358.84"/>
</g>
<!-- Node7&#45;&gt;Node2 -->
<g id="edge12" class="edge">
<title>Node7&#45;&gt;Node2</title>
<path fill="none" stroke="midnightblue" d="M800.44,-224.37C815.76,-196.36 858.98,-106.8 816.5,-56 795.25,-30.59 712.87,-19.51 648.4,-14.68"/>
<polygon fill="midnightblue" stroke="midnightblue" points="648.45,-11.18 638.22,-13.96 647.95,-18.16 648.45,-11.18"/>
</g>
<!-- Node7&#45;&gt;Node8 -->
<g id="edge11" class="edge">
<title>Node7&#45;&gt;Node8</title>
<path fill="none" stroke="midnightblue" d="M790.93,-224.08C777.43,-197.72 737.58,-119.88 719.54,-84.66"/>
<polygon fill="midnightblue" stroke="midnightblue" points="722.56,-82.87 714.89,-75.57 716.33,-86.06 722.56,-82.87"/>
</g>
<!-- Node7&#45;&gt;Node9 -->
<g id="edge13" class="edge">
<title>Node7&#45;&gt;Node9</title>
<path fill="none" stroke="midnightblue" d="M719.87,-224.47C629.11,-214.24 478.06,-197.21 388.81,-187.15"/>
<polygon fill="midnightblue" stroke="midnightblue" points="389.1,-183.66 378.78,-186.02 388.32,-190.62 389.1,-183.66"/>
</g>
<!-- Node10 -->
<g id="node10" class="node">
<title>Node10</title>
<g id="a_node10"><a xlink:href="../../d7/d79/MinMaxFix_8hpp.html" target="_top" xlink:title=" ">
<polygon fill="white" stroke="black" points="276.5,-112.5 276.5,-131.5 412.5,-131.5 412.5,-112.5 276.5,-112.5"/>
<text text-anchor="middle" x="344.5" y="-119.5" font-family="Helvetica,sans-Serif" font-size="10.00">AH/Math/MinMaxFix.hpp</text>
</a>
</g>
</g>
<!-- Node9&#45;&gt;Node10 -->
<g id="edge14" class="edge">
<title>Node9&#45;&gt;Node10</title>
<path fill="none" stroke="midnightblue" d="M321.12,-168.08C324.96,-160.69 330.52,-149.95 335.26,-140.81"/>
<polygon fill="midnightblue" stroke="midnightblue" points="338.47,-142.24 339.96,-131.75 332.25,-139.02 338.47,-142.24"/>
</g>
<!-- Node12 -->
<g id="node12" class="node">
<title>Node12</title>
<g id="a_node12"><a xlink:title=" ">
<polygon fill="white" stroke="#bfbfbf" points="199,-0.5 199,-19.5 262,-19.5 262,-0.5 199,-0.5"/>
<text text-anchor="middle" x="230.5" y="-7.5" font-family="Helvetica,sans-Serif" font-size="10.00">Arduino.h</text>
</a>
</g>
</g>
<!-- Node9&#45;&gt;Node12 -->
<g id="edge21" class="edge">
<title>Node9&#45;&gt;Node12</title>
<path fill="none" stroke="midnightblue" d="M297.8,-168.48C268.89,-154.13 214.43,-122.14 192.5,-76 184.15,-58.43 198.35,-39.33 211.7,-26.41"/>
<polygon fill="midnightblue" stroke="midnightblue" points="214.2,-28.87 219.29,-19.57 209.51,-23.66 214.2,-28.87"/>
</g>
<!-- Node9&#45;&gt;Node13 -->
<g id="edge20" class="edge">
<title>Node9&#45;&gt;Node13</title>
<path fill="none" stroke="midnightblue" d="M274.83,-168.44C228.75,-158.98 154.5,-143.74 104.87,-133.55"/>
<polygon fill="midnightblue" stroke="midnightblue" points="105.48,-130.1 94.98,-131.52 104.07,-136.96 105.48,-130.1"/>
</g>
<!-- Node10&#45;&gt;Node2 -->
<g id="edge15" class="edge">
<title>Node10&#45;&gt;Node2</title>
<path fill="none" stroke="midnightblue" d="M359.02,-112.3C380.89,-99.35 423.74,-74.52 461.5,-56 485.94,-44.01 514.36,-31.94 535.46,-23.33"/>
<polygon fill="midnightblue" stroke="midnightblue" points="536.94,-26.5 544.89,-19.51 534.31,-20.02 536.94,-26.5"/>
</g>
<!-- Node10&#45;&gt;Node8 -->
<g id="edge19" class="edge">
<title>Node10&#45;&gt;Node8</title>
<path fill="none" stroke="midnightblue" d="M402.49,-112.44C467.81,-102.81 573.84,-87.16 642.87,-76.98"/>
<polygon fill="midnightblue" stroke="midnightblue" points="643.4,-80.44 652.78,-75.52 642.37,-73.51 643.4,-80.44"/>
</g>
<!-- Node11 -->
<g id="node11" class="node">
<title>Node11</title>
<g id="a_node11"><a xlink:href="../../d6/d3b/FixArduinoMacros_8hpp.html" target="_top" xlink:title=" ">
<polygon fill="white" stroke="black" points="201.5,-56.5 201.5,-75.5 371.5,-75.5 371.5,-56.5 201.5,-56.5"/>
<text text-anchor="middle" x="286.5" y="-63.5" font-family="Helvetica,sans-Serif" font-size="10.00">AH/Math/FixArduinoMacros.hpp</text>
</a>
</g>
</g>
<!-- Node10&#45;&gt;Node11 -->
<g id="edge16" class="edge">
<title>Node10&#45;&gt;Node11</title>
<path fill="none" stroke="midnightblue" d="M335.18,-112.32C326.61,-104.34 313.69,-92.31 303.31,-82.65"/>
<polygon fill="midnightblue" stroke="midnightblue" points="305.69,-80.09 295.99,-75.83 300.92,-85.21 305.69,-80.09"/>
</g>
<!-- Node11&#45;&gt;Node2 -->
<g id="edge17" class="edge">
<title>Node11&#45;&gt;Node2</title>
<path fill="none" stroke="midnightblue" d="M330.87,-56.44C380.12,-46.94 459.63,-31.61 512.47,-21.42"/>
<polygon fill="midnightblue" stroke="midnightblue" points="513.18,-24.85 522.34,-19.52 511.86,-17.97 513.18,-24.85"/>
</g>
<!-- Node11&#45;&gt;Node12 -->
<g id="edge18" class="edge">
<title>Node11&#45;&gt;Node12</title>
<path fill="none" stroke="midnightblue" d="M277.5,-56.32C269.31,-48.42 256.99,-36.55 247.03,-26.94"/>
<polygon fill="midnightblue" stroke="midnightblue" points="249.29,-24.26 239.66,-19.83 244.43,-29.29 249.29,-24.26"/>
</g>
<!-- Node14&#45;&gt;Node2 -->
<g id="edge23" class="edge">
<title>Node14&#45;&gt;Node2</title>
<path fill="none" stroke="midnightblue" d="M565.81,-336.42C587.53,-329.67 614.35,-318.28 632.5,-300 651.58,-280.79 651.06,-270.53 656.5,-244 666.22,-196.63 633.75,-136.23 623.5,-112 622.58,-109.83 592.61,-56.96 576.5,-28.6"/>
<polygon fill="midnightblue" stroke="midnightblue" points="579.44,-26.68 571.45,-19.72 573.35,-30.14 579.44,-26.68"/>
</g>
<!-- Node14&#45;&gt;Node6 -->
<g id="edge36" class="edge">
<title>Node14&#45;&gt;Node6</title>
<path fill="none" stroke="midnightblue" d="M522.54,-355.83C512.88,-364.18 495.81,-376.86 481.2,-386.66"/>
<polygon fill="midnightblue" stroke="midnightblue" points="478.97,-383.93 472.5,-392.32 482.79,-389.79 478.97,-383.93"/>
</g>
<!-- Node14&#45;&gt;Node8 -->
<g id="edge24" class="edge">
<title>Node14&#45;&gt;Node8</title>
<path fill="none" stroke="midnightblue" d="M549.7,-336.49C582.2,-321.29 642.5,-286.2 642.5,-235 642.5,-235 642.5,-235 642.5,-177 642.5,-138.55 672.93,-102.31 693.08,-82.54"/>
<polygon fill="midnightblue" stroke="midnightblue" points="695.6,-84.98 700.47,-75.57 690.79,-79.89 695.6,-84.98"/>
</g>
<!-- Node15 -->
<g id="node15" class="node">
<title>Node15</title>
<g id="a_node15"><a xlink:href="../../db/d02/Settings_8hpp.html" target="_top" xlink:title="All user settings and debugging options can be changed here.">
<polygon fill="white" stroke="black" points="491,-280.5 491,-299.5 568,-299.5 568,-280.5 491,-280.5"/>
<text text-anchor="middle" x="529.5" y="-287.5" font-family="Helvetica,sans-Serif" font-size="10.00">Settings.hpp</text>
</a>
</g>
</g>
<!-- Node14&#45;&gt;Node15 -->
<g id="edge25" class="edge">
<title>Node14&#45;&gt;Node15</title>
<path fill="none" stroke="midnightblue" d="M529.5,-336.08C529.5,-329.01 529.5,-318.86 529.5,-309.99"/>
<polygon fill="midnightblue" stroke="midnightblue" points="533,-309.75 529.5,-299.75 526,-309.75 533,-309.75"/>
</g>
<!-- Node21 -->
<g id="node21" class="node">
<title>Node21</title>
<g id="a_node21"><a xlink:href="../../d9/d98/TeensyUSBTypes_8hpp.html" target="_top" xlink:title=" ">
<polygon fill="white" stroke="black" points="300,-280.5 300,-299.5 473,-299.5 473,-280.5 300,-280.5"/>
<text text-anchor="middle" x="386.5" y="-287.5" font-family="Helvetica,sans-Serif" font-size="10.00">AH/Teensy/TeensyUSBTypes.hpp</text>
</a>
</g>
</g>
<!-- Node14&#45;&gt;Node21 -->
<g id="edge35" class="edge">
<title>Node14&#45;&gt;Node21</title>
<path fill="none" stroke="midnightblue" d="M506.84,-336.44C483.1,-327.48 445.59,-313.31 418.76,-303.18"/>
<polygon fill="midnightblue" stroke="midnightblue" points="419.64,-299.77 409.05,-299.52 417.17,-306.32 419.64,-299.77"/>
</g>
<!-- Node16 -->
<g id="node16" class="node">
<title>Node16</title>
<g id="a_node16"><a xlink:href="../../dc/d50/Frequency_8hpp.html" target="_top" xlink:title=" ">
<polygon fill="white" stroke="black" points="480.5,-112.5 480.5,-131.5 614.5,-131.5 614.5,-112.5 480.5,-112.5"/>
<text text-anchor="middle" x="547.5" y="-119.5" font-family="Helvetica,sans-Serif" font-size="10.00">AH/Types/Frequency.hpp</text>
</a>
</g>
</g>
<!-- Node15&#45;&gt;Node16 -->
<g id="edge26" class="edge">
<title>Node15&#45;&gt;Node16</title>
<path fill="none" stroke="midnightblue" d="M530.47,-280.08C533.3,-253.95 541.62,-177.21 545.49,-141.58"/>
<polygon fill="midnightblue" stroke="midnightblue" points="548.97,-141.89 546.57,-131.57 542.01,-141.13 548.97,-141.89"/>
</g>
<!-- Node17 -->
<g id="node17" class="node">
<title>Node17</title>
<g id="a_node17"><a xlink:href="../../d7/d7c/ADCConfig_8hpp.html" target="_top" xlink:title="This file contains the platform&#45;specific ADC resolutions.">
<polygon fill="white" stroke="black" points="347,-224.5 347,-243.5 504,-243.5 504,-224.5 347,-224.5"/>
<text text-anchor="middle" x="425.5" y="-231.5" font-family="Helvetica,sans-Serif" font-size="10.00">AH/Hardware/ADCConfig.hpp</text>
</a>
</g>
</g>
<!-- Node15&#45;&gt;Node17 -->
<g id="edge29" class="edge">
<title>Node15&#45;&gt;Node17</title>
<path fill="none" stroke="midnightblue" d="M512.79,-280.32C496.19,-271.7 470.5,-258.36 451.28,-248.39"/>
<polygon fill="midnightblue" stroke="midnightblue" points="452.66,-245.16 442.17,-243.65 449.43,-251.37 452.66,-245.16"/>
</g>
<!-- Node18 -->
<g id="node18" class="node">
<title>Node18</title>
<g id="a_node18"><a xlink:title=" ">
<polygon fill="white" stroke="#bfbfbf" points="276,-224.5 276,-243.5 329,-243.5 329,-224.5 276,-224.5"/>
<text text-anchor="middle" x="302.5" y="-231.5" font-family="Helvetica,sans-Serif" font-size="10.00">limits.h</text>
</a>
</g>
</g>
<!-- Node15&#45;&gt;Node18 -->
<g id="edge32" class="edge">
<title>Node15&#45;&gt;Node18</title>
<path fill="none" stroke="midnightblue" d="M491.92,-280.44C455.21,-272.03 397.52,-258.66 339.01,-244.34"/>
<polygon fill="midnightblue" stroke="midnightblue" points="339.78,-240.92 329.24,-241.94 338.12,-247.72 339.78,-240.92"/>
</g>
<!-- Node15&#45;&gt;Node19 -->
<g id="edge33" class="edge">
<title>Node15&#45;&gt;Node19</title>
<path fill="none" stroke="midnightblue" d="M491,-281.71C487.79,-281.13 484.59,-280.55 481.5,-280 389.27,-263.63 363.13,-263.46 267.81,-244.15"/>
<polygon fill="midnightblue" stroke="midnightblue" points="268.23,-240.66 257.73,-242.09 266.83,-247.52 268.23,-240.66"/>
</g>
<!-- Node15&#45;&gt;Node20 -->
<g id="edge34" class="edge">
<title>Node15&#45;&gt;Node20</title>
<path fill="none" stroke="midnightblue" d="M538.82,-280.32C547.39,-272.34 560.31,-260.31 570.69,-250.65"/>
<polygon fill="midnightblue" stroke="midnightblue" points="573.08,-253.21 578.01,-243.83 568.31,-248.09 573.08,-253.21"/>
</g>
<!-- Node16&#45;&gt;Node2 -->
<g id="edge27" class="edge">
<title>Node16&#45;&gt;Node2</title>
<path fill="none" stroke="midnightblue" d="M548.99,-112.37C552.06,-94.62 559.13,-53.67 563.29,-29.6"/>
<polygon fill="midnightblue" stroke="midnightblue" points="566.76,-30.04 565.02,-19.59 559.86,-28.85 566.76,-30.04"/>
</g>
<!-- Node16&#45;&gt;Node8 -->
<g id="edge28" class="edge">
<title>Node16&#45;&gt;Node8</title>
<path fill="none" stroke="midnightblue" d="M573.33,-112.44C600.75,-103.36 644.28,-88.94 674.93,-78.78"/>
<polygon fill="midnightblue" stroke="midnightblue" points="676.4,-81.98 684.79,-75.52 674.2,-75.34 676.4,-81.98"/>
</g>
<!-- Node17&#45;&gt;Node2 -->
<g id="edge30" class="edge">
<title>Node17&#45;&gt;Node2</title>
<path fill="none" stroke="midnightblue" d="M427.56,-224.26C432.7,-203.57 447.42,-150.49 471.5,-112 493.03,-77.59 527.41,-44.69 548.38,-26.24"/>
<polygon fill="midnightblue" stroke="midnightblue" points="550.68,-28.88 555.95,-19.69 546.1,-23.58 550.68,-28.88"/>
</g>
<!-- Node17&#45;&gt;Node9 -->
<g id="edge31" class="edge">
<title>Node17&#45;&gt;Node9</title>
<path fill="none" stroke="midnightblue" d="M407.99,-224.32C390.43,-215.62 363.17,-202.12 342.97,-192.11"/>
<polygon fill="midnightblue" stroke="midnightblue" points="344.48,-188.96 333.97,-187.65 341.38,-195.23 344.48,-188.96"/>
</g>
<!-- Node24&#45;&gt;Node2 -->
<g id="edge46" class="edge">
<title>Node24&#45;&gt;Node2</title>
<path fill="none" stroke="midnightblue" d="M1120.89,-112.38C1105.74,-97.84 1072.69,-68.78 1038.5,-56 969.17,-30.09 764.35,-18.38 648.59,-13.7"/>
<polygon fill="midnightblue" stroke="midnightblue" points="648.49,-10.19 638.36,-13.3 648.21,-17.19 648.49,-10.19"/>
</g>
<!-- Node24&#45;&gt;Node8 -->
<g id="edge47" class="edge">
<title>Node24&#45;&gt;Node8</title>
<path fill="none" stroke="midnightblue" d="M1063.11,-112.44C988.02,-102.77 865.96,-87.04 786.95,-76.85"/>
<polygon fill="midnightblue" stroke="midnightblue" points="786.95,-73.32 776.58,-75.52 786.05,-80.27 786.95,-73.32"/>
</g>
<!-- Node25 -->
<g id="node25" class="node">
<title>Node25</title>
<g id="a_node25"><a xlink:title=" ">
<polygon fill="white" stroke="#bfbfbf" points="1090.5,-56.5 1090.5,-75.5 1180.5,-75.5 1180.5,-56.5 1090.5,-56.5"/>
<text text-anchor="middle" x="1135.5" y="-63.5" font-family="Helvetica,sans-Serif" font-size="10.00">AH/STL/cstddef</text>
</a>
</g>
</g>
<!-- Node24&#45;&gt;Node25 -->
<g id="edge44" class="edge">
<title>Node24&#45;&gt;Node25</title>
<path fill="none" stroke="midnightblue" d="M1130.49,-112.08C1131.29,-104.93 1132.43,-94.64 1133.42,-85.69"/>
<polygon fill="midnightblue" stroke="midnightblue" points="1136.9,-86.08 1134.53,-75.75 1129.94,-85.3 1136.9,-86.08"/>
</g>
<!-- Node26 -->
<g id="node26" class="node">
<title>Node26</title>
<g id="a_node26"><a xlink:title=" ">
<polygon fill="white" stroke="#bfbfbf" points="1199,-56.5 1199,-75.5 1278,-75.5 1278,-56.5 1199,-56.5"/>
<text text-anchor="middle" x="1238.5" y="-63.5" font-family="Helvetica,sans-Serif" font-size="10.00">AH/STL/tuple</text>
</a>
</g>
</g>
<!-- Node24&#45;&gt;Node26 -->
<g id="edge45" class="edge">
<title>Node24&#45;&gt;Node26</title>
<path fill="none" stroke="midnightblue" d="M1147.01,-112.32C1164.57,-103.62 1191.83,-90.12 1212.03,-80.11"/>
<polygon fill="midnightblue" stroke="midnightblue" points="1213.62,-83.23 1221.03,-75.65 1210.52,-76.96 1213.62,-83.23"/>
</g>
</g>
</svg>
