<?xml version="1.0" encoding="UTF-8" standalone="no"?>
<!DOCTYPE svg PUBLIC "-//W3C//DTD SVG 1.1//EN"
 "http://www.w3.org/Graphics/SVG/1.1/DTD/svg11.dtd">
<!-- Generated by graphviz version 2.43.0 (0)
 -->
<!-- Title: USBMIDI_Parser Pages: 1 -->
<svg width="149pt" height="303pt"
 viewBox="0.00 0.00 149.00 303.00" xmlns="http://www.w3.org/2000/svg" xmlns:xlink="http://www.w3.org/1999/xlink">
<g id="graph0" class="graph" transform="scale(1 1) rotate(0) translate(4 299)">
<title>USBMIDI_Parser</title>
<polygon fill="white" stroke="transparent" points="-4,4 -4,-299 145,-299 145,4 -4,4"/>
<!-- Node1 -->
<g id="node1" class="node">
<title>Node1</title>
<g id="a_node1"><a xlink:title=" ">
<polygon fill="#bfbfbf" stroke="black" points="8.5,-0.5 8.5,-123.5 132.5,-123.5 132.5,-0.5 8.5,-0.5"/>
<text text-anchor="middle" x="70.5" y="-111.5" font-family="Helvetica,sans-Serif" font-size="10.00">USBMIDI_Parser</text>
<polyline fill="none" stroke="black" points="8.5,-104.5 132.5,-104.5 "/>
<text text-anchor="start" x="16.5" y="-92.5" font-family="Helvetica,sans-Serif" font-size="10.00"># activeSysExCN</text>
<text text-anchor="start" x="16.5" y="-81.5" font-family="Helvetica,sans-Serif" font-size="10.00">&#45; sysexbuffers</text>
<polyline fill="none" stroke="black" points="8.5,-74.5 132.5,-74.5 "/>
<text text-anchor="start" x="16.5" y="-62.5" font-family="Helvetica,sans-Serif" font-size="10.00">+ parse()</text>
<text text-anchor="start" x="16.5" y="-51.5" font-family="Helvetica,sans-Serif" font-size="10.00">+ getSysExMessage()</text>
<text text-anchor="start" x="16.5" y="-40.5" font-family="Helvetica,sans-Serif" font-size="10.00"># startSysEx()</text>
<text text-anchor="start" x="16.5" y="-29.5" font-family="Helvetica,sans-Serif" font-size="10.00"># endSysEx()</text>
<text text-anchor="start" x="16.5" y="-18.5" font-family="Helvetica,sans-Serif" font-size="10.00"># addSysExByte()</text>
<text text-anchor="start" x="16.5" y="-7.5" font-family="Helvetica,sans-Serif" font-size="10.00"># receivingSysEx()</text>
</a>
</g>
</g>
<!-- Node2 -->
<g id="node2" class="node">
<title>Node2</title>
<g id="a_node2"><a xlink:href="../../df/d0c/classMIDI__Parser.html" target="_top" xlink:title=" ">
<polygon fill="white" stroke="black" points="0,-160.5 0,-294.5 141,-294.5 141,-160.5 0,-160.5"/>
<text text-anchor="middle" x="70.5" y="-282.5" font-family="Helvetica,sans-Serif" font-size="10.00">MIDI_Parser</text>
<polyline fill="none" stroke="black" points="0,-275.5 141,-275.5 "/>
<text text-anchor="start" x="8" y="-263.5" font-family="Helvetica,sans-Serif" font-size="10.00"># midimsg</text>
<text text-anchor="start" x="8" y="-252.5" font-family="Helvetica,sans-Serif" font-size="10.00"># rtmsg</text>
<polyline fill="none" stroke="black" points="0,-245.5 141,-245.5 "/>
<text text-anchor="start" x="8" y="-233.5" font-family="Helvetica,sans-Serif" font-size="10.00">+ getChannelMessage()</text>
<text text-anchor="start" x="8" y="-222.5" font-family="Helvetica,sans-Serif" font-size="10.00">+ getRealTimeMessage()</text>
<text text-anchor="start" x="8" y="-211.5" font-family="Helvetica,sans-Serif" font-size="10.00">+ getSysExMessage()</text>
<text text-anchor="start" x="8" y="-200.5" font-family="Helvetica,sans-Serif" font-size="10.00">+ getSysExBuffer()</text>
<text text-anchor="start" x="8" y="-189.5" font-family="Helvetica,sans-Serif" font-size="10.00">+ getSysExLength()</text>
<text text-anchor="start" x="8" y="-178.5" font-family="Helvetica,sans-Serif" font-size="10.00">+ isStatus()</text>
<text text-anchor="start" x="8" y="-167.5" font-family="Helvetica,sans-Serif" font-size="10.00">+ isData()</text>
</a>
</g>
</g>
<!-- Node2&#45;&gt;Node1 -->
<g id="edge1" class="edge">
<title>Node2&#45;&gt;Node1</title>
<path fill="none" stroke="midnightblue" d="M70.5,-150.42C70.5,-141.47 70.5,-132.43 70.5,-123.73"/>
<polygon fill="none" stroke="midnightblue" points="67,-150.47 70.5,-160.47 74,-150.47 67,-150.47"/>
</g>
</g>
</svg>
