<?xml version="1.0" encoding="UTF-8" standalone="no"?>
<!DOCTYPE svg PUBLIC "-//W3C//DTD SVG 1.1//EN"
 "http://www.w3.org/Graphics/SVG/1.1/DTD/svg11.dtd">
<!-- Generated by graphviz version 2.43.0 (0)
 -->
<!-- Title: IncrementSelector&lt; N &gt; Pages: 1 -->
<svg width="250pt" height="965pt"
 viewBox="0.00 0.00 250.00 965.00" xmlns="http://www.w3.org/2000/svg" xmlns:xlink="http://www.w3.org/1999/xlink">
<g id="graph0" class="graph" transform="scale(1 1) rotate(0) translate(4 961)">
<title>IncrementSelector&lt; N &gt;</title>
<polygon fill="white" stroke="transparent" points="-4,4 -4,-961 246,-961 246,4 -4,4"/>
<!-- Node1 -->
<g id="node1" class="node">
<title>Node1</title>
<g id="a_node1"><a xlink:title="Selector with one button that increments the selection.">
<polygon fill="#bfbfbf" stroke="black" points="35.5,-0.5 35.5,-68.5 171.5,-68.5 171.5,-0.5 35.5,-0.5"/>
<text text-anchor="middle" x="103.5" y="-56.5" font-family="Helvetica,sans-Serif" font-size="10.00">IncrementSelector&lt; N &gt;</text>
<polyline fill="none" stroke="black" points="35.5,-49.5 171.5,-49.5 "/>
<text text-anchor="middle" x="103.5" y="-37.5" font-family="Helvetica,sans-Serif" font-size="10.00"> </text>
<polyline fill="none" stroke="black" points="35.5,-30.5 171.5,-30.5 "/>
<text text-anchor="start" x="43.5" y="-18.5" font-family="Helvetica,sans-Serif" font-size="10.00">+ IncrementSelector()</text>
<text text-anchor="start" x="43.5" y="-7.5" font-family="Helvetica,sans-Serif" font-size="10.00">+ IncrementSelector()</text>
</a>
</g>
</g>
<!-- Node2 -->
<g id="node2" class="node">
<title>Node2</title>
<g id="a_node2"><a xlink:href="../../d1/d94/classGenericIncrementSelector.html" target="_top" xlink:title=" ">
<polygon fill="white" stroke="black" points="17,-105.5 17,-206.5 190,-206.5 190,-105.5 17,-105.5"/>
<text text-anchor="middle" x="103.5" y="-194.5" font-family="Helvetica,sans-Serif" font-size="10.00">GenericIncrementSelector&lt; N &gt;</text>
<polyline fill="none" stroke="black" points="17,-187.5 190,-187.5 "/>
<text text-anchor="start" x="25" y="-175.5" font-family="Helvetica,sans-Serif" font-size="10.00">&#45; button</text>
<polyline fill="none" stroke="black" points="17,-168.5 190,-168.5 "/>
<text text-anchor="start" x="25" y="-156.5" font-family="Helvetica,sans-Serif" font-size="10.00">+ GenericIncrementSelector()</text>
<text text-anchor="start" x="25" y="-145.5" font-family="Helvetica,sans-Serif" font-size="10.00">+ begin()</text>
<text text-anchor="start" x="25" y="-134.5" font-family="Helvetica,sans-Serif" font-size="10.00">+ update()</text>
<text text-anchor="start" x="25" y="-123.5" font-family="Helvetica,sans-Serif" font-size="10.00">+ getButtonState()</text>
<text text-anchor="start" x="25" y="-112.5" font-family="Helvetica,sans-Serif" font-size="10.00">+ invert()</text>
</a>
</g>
</g>
<!-- Node2&#45;&gt;Node1 -->
<g id="edge1" class="edge">
<title>Node2&#45;&gt;Node1</title>
<path fill="none" stroke="midnightblue" d="M103.5,-95.17C103.5,-86.11 103.5,-77.05 103.5,-68.83"/>
<polygon fill="none" stroke="midnightblue" points="100,-95.36 103.5,-105.36 107,-95.36 100,-95.36"/>
</g>
<!-- Node3 -->
<g id="node3" class="node">
<title>Node3</title>
<g id="a_node3"><a xlink:href="../../d0/d04/classGenericSelector.html" target="_top" xlink:title=" ">
<polygon fill="white" stroke="black" points="31.5,-243.5 31.5,-388.5 175.5,-388.5 175.5,-243.5 31.5,-243.5"/>
<text text-anchor="start" x="39.5" y="-376.5" font-family="Helvetica,sans-Serif" font-size="10.00">GenericSelector&lt; N,</text>
<text text-anchor="middle" x="103.5" y="-365.5" font-family="Helvetica,sans-Serif" font-size="10.00"> EmptySelectorCallback &gt;</text>
<polyline fill="none" stroke="black" points="31.5,-358.5 175.5,-358.5 "/>
<text text-anchor="start" x="39.5" y="-346.5" font-family="Helvetica,sans-Serif" font-size="10.00">+ callback</text>
<text text-anchor="start" x="39.5" y="-335.5" font-family="Helvetica,sans-Serif" font-size="10.00">&#45; selectable</text>
<polyline fill="none" stroke="black" points="31.5,-328.5 175.5,-328.5 "/>
<text text-anchor="start" x="39.5" y="-316.5" font-family="Helvetica,sans-Serif" font-size="10.00">+ GenericSelector()</text>
<text text-anchor="start" x="39.5" y="-305.5" font-family="Helvetica,sans-Serif" font-size="10.00">+ begin()</text>
<text text-anchor="start" x="39.5" y="-294.5" font-family="Helvetica,sans-Serif" font-size="10.00">+ update()</text>
<text text-anchor="start" x="39.5" y="-283.5" font-family="Helvetica,sans-Serif" font-size="10.00">+ reset()</text>
<text text-anchor="start" x="39.5" y="-272.5" font-family="Helvetica,sans-Serif" font-size="10.00">+ set()</text>
<text text-anchor="start" x="39.5" y="-261.5" font-family="Helvetica,sans-Serif" font-size="10.00">+ increment()</text>
<text text-anchor="start" x="39.5" y="-250.5" font-family="Helvetica,sans-Serif" font-size="10.00">+ decrement()</text>
</a>
</g>
</g>
<!-- Node3&#45;&gt;Node2 -->
<g id="edge2" class="edge">
<title>Node3&#45;&gt;Node2</title>
<path fill="none" stroke="midnightblue" d="M103.5,-233.19C103.5,-224.14 103.5,-215.14 103.5,-206.67"/>
<polygon fill="none" stroke="midnightblue" points="100,-233.4 103.5,-243.4 107,-233.4 100,-233.4"/>
</g>
<!-- Node4 -->
<g id="node4" class="node">
<title>Node4</title>
<g id="a_node4"><a xlink:href="../../dc/d77/classSelectorBase.html" target="_top" xlink:title="Base class for all Selectors exposing the get method, so it can be used by display elements etc,...">
<polygon fill="white" stroke="black" points="0,-436.5 0,-504.5 99,-504.5 99,-436.5 0,-436.5"/>
<text text-anchor="middle" x="49.5" y="-492.5" font-family="Helvetica,sans-Serif" font-size="10.00">SelectorBase</text>
<polyline fill="none" stroke="black" points="0,-485.5 99,-485.5 "/>
<text text-anchor="start" x="8" y="-473.5" font-family="Helvetica,sans-Serif" font-size="10.00"># setting</text>
<polyline fill="none" stroke="black" points="0,-466.5 99,-466.5 "/>
<text text-anchor="start" x="8" y="-454.5" font-family="Helvetica,sans-Serif" font-size="10.00">+ get()</text>
<text text-anchor="start" x="8" y="-443.5" font-family="Helvetica,sans-Serif" font-size="10.00"># SelectorBase()</text>
</a>
</g>
</g>
<!-- Node4&#45;&gt;Node3 -->
<g id="edge3" class="edge">
<title>Node4&#45;&gt;Node3</title>
<path fill="none" stroke="midnightblue" d="M64.63,-426.77C68.85,-414.87 73.54,-401.6 78.17,-388.53"/>
<polygon fill="none" stroke="midnightblue" points="61.26,-425.82 61.22,-436.41 67.85,-428.15 61.26,-425.82"/>
</g>
<!-- Node5 -->
<g id="node5" class="node">
<title>Node5</title>
<g id="a_node5"><a xlink:href="../../d1/d55/classAH_1_1Updatable.html" target="_top" xlink:title=" ">
<polygon fill="white" stroke="black" points="117,-425.5 117,-515.5 200,-515.5 200,-425.5 117,-425.5"/>
<text text-anchor="middle" x="158.5" y="-503.5" font-family="Helvetica,sans-Serif" font-size="10.00">Updatable&lt;&gt;</text>
<polyline fill="none" stroke="black" points="117,-496.5 200,-496.5 "/>
<text text-anchor="middle" x="158.5" y="-484.5" font-family="Helvetica,sans-Serif" font-size="10.00"> </text>
<polyline fill="none" stroke="black" points="117,-477.5 200,-477.5 "/>
<text text-anchor="start" x="125" y="-465.5" font-family="Helvetica,sans-Serif" font-size="10.00">* begin()</text>
<text text-anchor="start" x="125" y="-454.5" font-family="Helvetica,sans-Serif" font-size="10.00">* update()</text>
<text text-anchor="start" x="125" y="-443.5" font-family="Helvetica,sans-Serif" font-size="10.00">* beginAll()</text>
<text text-anchor="start" x="125" y="-432.5" font-family="Helvetica,sans-Serif" font-size="10.00">* updateAll()</text>
</a>
</g>
</g>
<!-- Node5&#45;&gt;Node3 -->
<g id="edge4" class="edge">
<title>Node5&#45;&gt;Node3</title>
<path fill="none" stroke="midnightblue" d="M139.2,-415.98C136,-407.12 132.64,-397.81 129.32,-388.59"/>
<polygon fill="none" stroke="midnightblue" points="135.91,-417.17 142.59,-425.39 142.49,-414.8 135.91,-417.17"/>
</g>
<!-- Node6 -->
<g id="node6" class="node">
<title>Node6</title>
<g id="a_node6"><a xlink:href="../../d8/d1a/classAH_1_1UpdatableCRTP.html" target="_top" xlink:title=" ">
<polygon fill="white" stroke="black" points="82,-552.5 82,-840.5 235,-840.5 235,-552.5 82,-552.5"/>
<text text-anchor="start" x="90" y="-828.5" font-family="Helvetica,sans-Serif" font-size="10.00">UpdatableCRTP&lt; Updatable</text>
<text text-anchor="start" x="90" y="-817.5" font-family="Helvetica,sans-Serif" font-size="10.00">&lt; NormalUpdatable, false</text>
<text text-anchor="middle" x="158.5" y="-806.5" font-family="Helvetica,sans-Serif" font-size="10.00"> &gt;, false &gt;</text>
<polyline fill="none" stroke="black" points="82,-799.5 235,-799.5 "/>
<text text-anchor="start" x="90" y="-787.5" font-family="Helvetica,sans-Serif" font-size="10.00"># updatables</text>
<text text-anchor="start" x="90" y="-776.5" font-family="Helvetica,sans-Serif" font-size="10.00"># mutex</text>
<polyline fill="none" stroke="black" points="82,-769.5 235,-769.5 "/>
<text text-anchor="start" x="90" y="-757.5" font-family="Helvetica,sans-Serif" font-size="10.00">+ ~UpdatableCRTP()</text>
<text text-anchor="start" x="90" y="-746.5" font-family="Helvetica,sans-Serif" font-size="10.00">+ getMutex()</text>
<text text-anchor="start" x="90" y="-735.5" font-family="Helvetica,sans-Serif" font-size="10.00"># UpdatableCRTP()</text>
<text text-anchor="start" x="90" y="-724.5" font-family="Helvetica,sans-Serif" font-size="10.00">* enable()</text>
<text text-anchor="start" x="90" y="-713.5" font-family="Helvetica,sans-Serif" font-size="10.00">* enable()</text>
<text text-anchor="start" x="90" y="-702.5" font-family="Helvetica,sans-Serif" font-size="10.00">* disable()</text>
<text text-anchor="start" x="90" y="-691.5" font-family="Helvetica,sans-Serif" font-size="10.00">* disable()</text>
<text text-anchor="start" x="90" y="-680.5" font-family="Helvetica,sans-Serif" font-size="10.00">* isEnabled()</text>
<text text-anchor="start" x="90" y="-669.5" font-family="Helvetica,sans-Serif" font-size="10.00">* isEnabled()</text>
<text text-anchor="start" x="90" y="-658.5" font-family="Helvetica,sans-Serif" font-size="10.00">* moveDown()</text>
<text text-anchor="start" x="90" y="-647.5" font-family="Helvetica,sans-Serif" font-size="10.00">* moveDown()</text>
<text text-anchor="start" x="90" y="-636.5" font-family="Helvetica,sans-Serif" font-size="10.00">* enable()</text>
<text text-anchor="start" x="90" y="-625.5" font-family="Helvetica,sans-Serif" font-size="10.00">* enable()</text>
<text text-anchor="start" x="90" y="-614.5" font-family="Helvetica,sans-Serif" font-size="10.00">* enable()</text>
<text text-anchor="start" x="90" y="-603.5" font-family="Helvetica,sans-Serif" font-size="10.00">* disable()</text>
<text text-anchor="start" x="90" y="-592.5" font-family="Helvetica,sans-Serif" font-size="10.00">* disable()</text>
<text text-anchor="start" x="90" y="-581.5" font-family="Helvetica,sans-Serif" font-size="10.00">* disable()</text>
<text text-anchor="start" x="90" y="-570.5" font-family="Helvetica,sans-Serif" font-size="10.00">* applyToAll()</text>
<text text-anchor="start" x="90" y="-559.5" font-family="Helvetica,sans-Serif" font-size="10.00">* applyToAll()</text>
</a>
</g>
</g>
<!-- Node6&#45;&gt;Node5 -->
<g id="edge5" class="edge">
<title>Node6&#45;&gt;Node5</title>
<path fill="none" stroke="midnightblue" d="M158.5,-542.13C158.5,-532.84 158.5,-523.99 158.5,-515.89"/>
<polygon fill="none" stroke="midnightblue" points="155,-542.37 158.5,-552.37 162,-542.37 155,-542.37"/>
</g>
<!-- Node7 -->
<g id="node7" class="node">
<title>Node7</title>
<g id="a_node7"><a xlink:href="../../d4/d23/classDoublyLinkable.html" target="_top" xlink:title=" ">
<polygon fill="white" stroke="black" points="75,-877.5 75,-956.5 242,-956.5 242,-877.5 75,-877.5"/>
<text text-anchor="start" x="83" y="-944.5" font-family="Helvetica,sans-Serif" font-size="10.00">DoublyLinkable&lt; Updatable</text>
<text text-anchor="middle" x="158.5" y="-933.5" font-family="Helvetica,sans-Serif" font-size="10.00">&lt; NormalUpdatable, false &gt; &gt;</text>
<polyline fill="none" stroke="black" points="75,-926.5 242,-926.5 "/>
<text text-anchor="start" x="83" y="-914.5" font-family="Helvetica,sans-Serif" font-size="10.00"># next</text>
<text text-anchor="start" x="83" y="-903.5" font-family="Helvetica,sans-Serif" font-size="10.00"># previous</text>
<polyline fill="none" stroke="black" points="75,-896.5 242,-896.5 "/>
<text text-anchor="start" x="83" y="-884.5" font-family="Helvetica,sans-Serif" font-size="10.00"># ~DoublyLinkable()</text>
</a>
</g>
</g>
<!-- Node7&#45;&gt;Node6 -->
<g id="edge6" class="edge">
<title>Node7&#45;&gt;Node6</title>
<path fill="none" stroke="midnightblue" d="M158.5,-867.32C158.5,-859.02 158.5,-850.04 158.5,-840.69"/>
<polygon fill="none" stroke="midnightblue" points="155,-867.44 158.5,-877.44 162,-867.44 155,-867.44"/>
</g>
</g>
</svg>
