<?xml version="1.0" encoding="UTF-8" standalone="no"?>
<!DOCTYPE svg PUBLIC "-//W3C//DTD SVG 1.1//EN"
 "http://www.w3.org/Graphics/SVG/1.1/DTD/svg11.dtd">
<!-- Generated by graphviz version 2.38.0 (20140413.2041)
 -->
<!-- Title: SelectorDisplay Pages: 1 -->
<svg width="682pt" height="1042pt"
 viewBox="0.00 0.00 681.50 1042.00" xmlns="http://www.w3.org/2000/svg" xmlns:xlink="http://www.w3.org/1999/xlink">
<g id="graph0" class="graph" transform="scale(1 1) rotate(0) translate(4 1038)">
<title>SelectorDisplay</title>
<polygon fill="white" stroke="none" points="-4,4 -4,-1038 677.5,-1038 677.5,4 -4,4"/>
<!-- Node1 -->
<g id="node1" class="node"><title>Node1</title>
<g id="a_node1"><a xlink:title="A class for displaying the setting of a Selector object.">
<polygon fill="#bfbfbf" stroke="black" points="493.5,-77.5 493.5,-200.5 594.5,-200.5 594.5,-77.5 493.5,-77.5"/>
<text text-anchor="middle" x="544" y="-188.5" font-family="Helvetica,sans-Serif" font-size="10.00">SelectorDisplay</text>
<polyline fill="none" stroke="black" points="493.5,-181.5 594.5,-181.5 "/>
<text text-anchor="start" x="501.5" y="-169.5" font-family="Helvetica,sans-Serif" font-size="10.00">&#45; offset</text>
<text text-anchor="start" x="501.5" y="-158.5" font-family="Helvetica,sans-Serif" font-size="10.00">&#45; multiplier</text>
<text text-anchor="start" x="501.5" y="-147.5" font-family="Helvetica,sans-Serif" font-size="10.00">&#45; x</text>
<text text-anchor="start" x="501.5" y="-136.5" font-family="Helvetica,sans-Serif" font-size="10.00">&#45; y</text>
<text text-anchor="start" x="501.5" y="-125.5" font-family="Helvetica,sans-Serif" font-size="10.00">&#45; size</text>
<text text-anchor="start" x="501.5" y="-114.5" font-family="Helvetica,sans-Serif" font-size="10.00">&#45; color</text>
<polyline fill="none" stroke="black" points="493.5,-107.5 594.5,-107.5 "/>
<text text-anchor="start" x="501.5" y="-95.5" font-family="Helvetica,sans-Serif" font-size="10.00">+ SelectorDisplay()</text>
<text text-anchor="start" x="501.5" y="-84.5" font-family="Helvetica,sans-Serif" font-size="10.00">+ draw()</text>
</a>
</g>
</g>
<!-- Node2 -->
<g id="node2" class="node"><title>Node2</title>
<g id="a_node2"><a xlink:href="../../d8/d43/classDisplayElement.html" target="_top" xlink:title="An interface for elements that draw to a display.">
<polygon fill="white" stroke="black" points="115.5,-419 115.5,-531 222.5,-531 222.5,-419 115.5,-419"/>
<text text-anchor="middle" x="169" y="-519" font-family="Helvetica,sans-Serif" font-size="10.00">DisplayElement</text>
<polyline fill="none" stroke="black" points="115.5,-512 222.5,-512 "/>
<text text-anchor="middle" x="169" y="-500" font-family="Helvetica,sans-Serif" font-size="10.00"> </text>
<polyline fill="none" stroke="black" points="115.5,-493 222.5,-493 "/>
<text text-anchor="start" x="123.5" y="-481" font-family="Helvetica,sans-Serif" font-size="10.00">+ ~DisplayElement()</text>
<text text-anchor="start" x="123.5" y="-470" font-family="Helvetica,sans-Serif" font-size="10.00">+ draw()</text>
<text text-anchor="start" x="123.5" y="-459" font-family="Helvetica,sans-Serif" font-size="10.00">+ getDisplay()</text>
<text text-anchor="start" x="123.5" y="-448" font-family="Helvetica,sans-Serif" font-size="10.00">+ getDisplay()</text>
<text text-anchor="start" x="123.5" y="-437" font-family="Helvetica,sans-Serif" font-size="10.00">+ getAll()</text>
<text text-anchor="start" x="123.5" y="-426" font-family="Helvetica,sans-Serif" font-size="10.00"># DisplayElement()</text>
</a>
</g>
</g>
<!-- Node2&#45;&gt;Node1 -->
<g id="edge1" class="edge"><title>Node2&#45;&gt;Node1</title>
<path fill="none" stroke="midnightblue" d="M186.67,-409.249C196.312,-383.771 210.568,-355.912 231,-336 245.838,-321.54 255.716,-327.744 274,-318 354.02,-275.355 440.533,-215.675 493.5,-177.425"/>
<polygon fill="none" stroke="midnightblue" points="183.299,-408.281 183.198,-418.876 189.883,-410.657 183.299,-408.281"/>
</g>
<!-- Node3 -->
<g id="node3" class="node"><title>Node3</title>
<g id="a_node3"><a xlink:href="../../d4/d23/classDoublyLinkable.html" target="_top" xlink:title=" ">
<polygon fill="white" stroke="black" points="0,-110.5 0,-167.5 170,-167.5 170,-110.5 0,-110.5"/>
<text text-anchor="middle" x="85" y="-155.5" font-family="Helvetica,sans-Serif" font-size="10.00">DoublyLinkable&lt; DisplayElement &gt;</text>
<polyline fill="none" stroke="black" points="0,-148.5 170,-148.5 "/>
<text text-anchor="middle" x="85" y="-136.5" font-family="Helvetica,sans-Serif" font-size="10.00"> </text>
<polyline fill="none" stroke="black" points="0,-129.5 170,-129.5 "/>
<text text-anchor="start" x="8" y="-117.5" font-family="Helvetica,sans-Serif" font-size="10.00"># ~DoublyLinkable()</text>
</a>
</g>
</g>
<!-- Node2&#45;&gt;Node3 -->
<g id="edge3" class="edge"><title>Node2&#45;&gt;Node3</title>
<path fill="none" stroke="#404040" d="M131.78,-418.836C114.578,-390.099 95.9981,-353.597 87,-318 75.2792,-271.632 76.9982,-216.277 80.1911,-179.745"/>
<polygon fill="none" stroke="#404040" points="80.2053,-179.598 76.8025,-173.24 81.3624,-167.654 84.7652,-174.011 80.2053,-179.598"/>
<text text-anchor="middle" x="108.5" y="-310" font-family="Helvetica,sans-Serif" font-size="10.00"> #next</text>
<text text-anchor="middle" x="108.5" y="-299" font-family="Helvetica,sans-Serif" font-size="10.00">#previous</text>
</g>
<!-- Node4 -->
<g id="node4" class="node"><title>Node4</title>
<g id="a_node4"><a xlink:href="../../dd/d16/classDoublyLinkedList.html" target="_top" xlink:title=" ">
<polygon fill="white" stroke="black" points="188,-0.5 188,-277.5 322,-277.5 322,-0.5 188,-0.5"/>
<text text-anchor="start" x="196" y="-265.5" font-family="Helvetica,sans-Serif" font-size="10.00">DoublyLinkedList&lt; Display</text>
<text text-anchor="middle" x="255" y="-254.5" font-family="Helvetica,sans-Serif" font-size="10.00">Element &gt;</text>
<polyline fill="none" stroke="black" points="188,-247.5 322,-247.5 "/>
<text text-anchor="middle" x="255" y="-235.5" font-family="Helvetica,sans-Serif" font-size="10.00"> </text>
<polyline fill="none" stroke="black" points="188,-228.5 322,-228.5 "/>
<text text-anchor="start" x="196" y="-216.5" font-family="Helvetica,sans-Serif" font-size="10.00">+ append()</text>
<text text-anchor="start" x="196" y="-205.5" font-family="Helvetica,sans-Serif" font-size="10.00">+ append()</text>
<text text-anchor="start" x="196" y="-194.5" font-family="Helvetica,sans-Serif" font-size="10.00">+ insertBefore()</text>
<text text-anchor="start" x="196" y="-183.5" font-family="Helvetica,sans-Serif" font-size="10.00">+ insertBefore()</text>
<text text-anchor="start" x="196" y="-172.5" font-family="Helvetica,sans-Serif" font-size="10.00">+ insertSorted()</text>
<text text-anchor="start" x="196" y="-161.5" font-family="Helvetica,sans-Serif" font-size="10.00">+ insertSorted()</text>
<text text-anchor="start" x="196" y="-150.5" font-family="Helvetica,sans-Serif" font-size="10.00">+ remove()</text>
<text text-anchor="start" x="196" y="-139.5" font-family="Helvetica,sans-Serif" font-size="10.00">+ remove()</text>
<text text-anchor="start" x="196" y="-128.5" font-family="Helvetica,sans-Serif" font-size="10.00">+ moveDown()</text>
<text text-anchor="start" x="196" y="-117.5" font-family="Helvetica,sans-Serif" font-size="10.00">+ couldContain()</text>
<text text-anchor="start" x="196" y="-106.5" font-family="Helvetica,sans-Serif" font-size="10.00">+ begin()</text>
<text text-anchor="start" x="196" y="-95.5" font-family="Helvetica,sans-Serif" font-size="10.00">+ begin()</text>
<text text-anchor="start" x="196" y="-84.5" font-family="Helvetica,sans-Serif" font-size="10.00">+ end()</text>
<text text-anchor="start" x="196" y="-73.5" font-family="Helvetica,sans-Serif" font-size="10.00">+ end()</text>
<text text-anchor="start" x="196" y="-62.5" font-family="Helvetica,sans-Serif" font-size="10.00">+ rbegin()</text>
<text text-anchor="start" x="196" y="-51.5" font-family="Helvetica,sans-Serif" font-size="10.00">+ rbegin()</text>
<text text-anchor="start" x="196" y="-40.5" font-family="Helvetica,sans-Serif" font-size="10.00">+ rend()</text>
<text text-anchor="start" x="196" y="-29.5" font-family="Helvetica,sans-Serif" font-size="10.00">+ rend()</text>
<text text-anchor="start" x="196" y="-18.5" font-family="Helvetica,sans-Serif" font-size="10.00">+ getFirst()</text>
<text text-anchor="start" x="196" y="-7.5" font-family="Helvetica,sans-Serif" font-size="10.00">+ getLast()</text>
</a>
</g>
</g>
<!-- Node2&#45;&gt;Node4 -->
<g id="edge5" class="edge"><title>Node2&#45;&gt;Node4</title>
<path fill="none" stroke="#404040" d="M171.565,-418.736C174.179,-383.216 179.437,-336.337 190,-296 190.599,-293.712 191.225,-291.413 191.876,-289.106"/>
<polygon fill="none" stroke="#404040" points="191.9,-289.025 189.776,-282.133 195.321,-277.523 197.444,-284.414 191.9,-289.025"/>
<text text-anchor="middle" x="201" y="-310" font-family="Helvetica,sans-Serif" font-size="10.00"> &#45;last</text>
<text text-anchor="middle" x="201" y="-299" font-family="Helvetica,sans-Serif" font-size="10.00">&#45;first</text>
</g>
<!-- Node3&#45;&gt;Node2 -->
<g id="edge2" class="edge"><title>Node3&#45;&gt;Node2</title>
<path fill="none" stroke="midnightblue" d="M97.9843,-177.28C108.611,-208.678 123.542,-254.916 134,-296 144.372,-336.746 153.444,-383.401 159.752,-418.722"/>
<polygon fill="none" stroke="midnightblue" points="101.235,-175.969 94.6964,-167.633 94.6094,-178.228 101.235,-175.969"/>
</g>
<!-- Node4&#45;&gt;Node2 -->
<g id="edge4" class="edge"><title>Node4&#45;&gt;Node2</title>
<path fill="none" stroke="#404040" d="M225.922,-277.758C222.714,-291.388 219.381,-304.987 216,-318 208.346,-347.465 198.82,-379.727 190.35,-407.227"/>
<polygon fill="none" stroke="#404040" points="190.347,-407.237 192.39,-414.153 186.793,-418.699 184.749,-411.784 190.347,-407.237"/>
<text text-anchor="middle" x="245.5" y="-304.5" font-family="Helvetica,sans-Serif" font-size="10.00"> #elements</text>
</g>
<!-- Node5 -->
<g id="node5" class="node"><title>Node5</title>
<g id="a_node5"><a xlink:href="../../df/d42/classDisplayInterface.html" target="_top" xlink:title="An interface for displays.">
<polygon fill="white" stroke="black" points="312.5,-672.5 312.5,-938.5 457.5,-938.5 457.5,-672.5 312.5,-672.5"/>
<text text-anchor="middle" x="385" y="-926.5" font-family="Helvetica,sans-Serif" font-size="10.00">DisplayInterface</text>
<polyline fill="none" stroke="black" points="312.5,-919.5 457.5,-919.5 "/>
<text text-anchor="middle" x="385" y="-907.5" font-family="Helvetica,sans-Serif" font-size="10.00"> </text>
<polyline fill="none" stroke="black" points="312.5,-900.5 457.5,-900.5 "/>
<text text-anchor="start" x="320.5" y="-888.5" font-family="Helvetica,sans-Serif" font-size="10.00">+ ~DisplayInterface()</text>
<text text-anchor="start" x="320.5" y="-877.5" font-family="Helvetica,sans-Serif" font-size="10.00">+ begin()</text>
<text text-anchor="start" x="320.5" y="-866.5" font-family="Helvetica,sans-Serif" font-size="10.00">+ clear()</text>
<text text-anchor="start" x="320.5" y="-855.5" font-family="Helvetica,sans-Serif" font-size="10.00">+ drawBackground()</text>
<text text-anchor="start" x="320.5" y="-844.5" font-family="Helvetica,sans-Serif" font-size="10.00">+ display()</text>
<text text-anchor="start" x="320.5" y="-833.5" font-family="Helvetica,sans-Serif" font-size="10.00">+ drawPixel()</text>
<text text-anchor="start" x="320.5" y="-822.5" font-family="Helvetica,sans-Serif" font-size="10.00">+ setTextColor()</text>
<text text-anchor="start" x="320.5" y="-811.5" font-family="Helvetica,sans-Serif" font-size="10.00">+ setTextSize()</text>
<text text-anchor="start" x="320.5" y="-800.5" font-family="Helvetica,sans-Serif" font-size="10.00">+ setCursor()</text>
<text text-anchor="start" x="320.5" y="-789.5" font-family="Helvetica,sans-Serif" font-size="10.00">+ write()</text>
<text text-anchor="start" x="320.5" y="-778.5" font-family="Helvetica,sans-Serif" font-size="10.00">+ drawLine()</text>
<text text-anchor="start" x="320.5" y="-767.5" font-family="Helvetica,sans-Serif" font-size="10.00">+ drawFastVLine()</text>
<text text-anchor="start" x="320.5" y="-756.5" font-family="Helvetica,sans-Serif" font-size="10.00">+ drawFastHLine()</text>
<text text-anchor="start" x="320.5" y="-745.5" font-family="Helvetica,sans-Serif" font-size="10.00">+ drawXBitmap()</text>
<text text-anchor="start" x="320.5" y="-734.5" font-family="Helvetica,sans-Serif" font-size="10.00">+ fillRect()</text>
<text text-anchor="start" x="320.5" y="-723.5" font-family="Helvetica,sans-Serif" font-size="10.00">+ drawCircle()</text>
<text text-anchor="start" x="320.5" y="-712.5" font-family="Helvetica,sans-Serif" font-size="10.00">+ fillCircle()</text>
<text text-anchor="start" x="320.5" y="-701.5" font-family="Helvetica,sans-Serif" font-size="10.00">+ clearAndDrawBackground()</text>
<text text-anchor="start" x="320.5" y="-690.5" font-family="Helvetica,sans-Serif" font-size="10.00">+ beginAll()</text>
<text text-anchor="start" x="320.5" y="-679.5" font-family="Helvetica,sans-Serif" font-size="10.00"># DisplayInterface()</text>
</a>
</g>
</g>
<!-- Node5&#45;&gt;Node2 -->
<g id="edge6" class="edge"><title>Node5&#45;&gt;Node2</title>
<path fill="none" stroke="#404040" d="M312.263,-724.028C284.775,-691.299 254.491,-652.226 231,-614 217.232,-591.596 204.75,-565.61 194.654,-542.269"/>
<polygon fill="none" stroke="#404040" points="194.582,-542.097 188.556,-538.136 189.895,-531.05 195.92,-535.012 194.582,-542.097"/>
<text text-anchor="middle" x="277" y="-640.5" font-family="Helvetica,sans-Serif" font-size="10.00"> #display</text>
</g>
<!-- Node7 -->
<g id="node7" class="node"><title>Node7</title>
<g id="a_node7"><a xlink:href="../../d4/d23/classDoublyLinkable.html" target="_top" xlink:title=" ">
<polygon fill="white" stroke="black" points="240.5,-446.5 240.5,-503.5 413.5,-503.5 413.5,-446.5 240.5,-446.5"/>
<text text-anchor="middle" x="327" y="-491.5" font-family="Helvetica,sans-Serif" font-size="10.00">DoublyLinkable&lt; DisplayInterface &gt;</text>
<polyline fill="none" stroke="black" points="240.5,-484.5 413.5,-484.5 "/>
<text text-anchor="middle" x="327" y="-472.5" font-family="Helvetica,sans-Serif" font-size="10.00"> </text>
<polyline fill="none" stroke="black" points="240.5,-465.5 413.5,-465.5 "/>
<text text-anchor="start" x="248.5" y="-453.5" font-family="Helvetica,sans-Serif" font-size="10.00"># ~DoublyLinkable()</text>
</a>
</g>
</g>
<!-- Node5&#45;&gt;Node7 -->
<g id="edge9" class="edge"><title>Node5&#45;&gt;Node7</title>
<path fill="none" stroke="#404040" d="M328.249,-672.403C326.62,-666.241 325.187,-660.088 324,-654 314.874,-607.189 317.84,-552.139 321.636,-515.789"/>
<polygon fill="none" stroke="#404040" points="321.648,-515.68 318.347,-509.269 322.995,-503.756 326.296,-510.167 321.648,-515.68"/>
<text text-anchor="middle" x="345.5" y="-646" font-family="Helvetica,sans-Serif" font-size="10.00"> #next</text>
<text text-anchor="middle" x="345.5" y="-635" font-family="Helvetica,sans-Serif" font-size="10.00">#previous</text>
</g>
<!-- Node8 -->
<g id="node8" class="node"><title>Node8</title>
<g id="a_node8"><a xlink:href="../../dd/d16/classDoublyLinkedList.html" target="_top" xlink:title=" ">
<polygon fill="white" stroke="black" points="432,-336.5 432,-613.5 566,-613.5 566,-336.5 432,-336.5"/>
<text text-anchor="start" x="440" y="-601.5" font-family="Helvetica,sans-Serif" font-size="10.00">DoublyLinkedList&lt; Display</text>
<text text-anchor="middle" x="499" y="-590.5" font-family="Helvetica,sans-Serif" font-size="10.00">Interface &gt;</text>
<polyline fill="none" stroke="black" points="432,-583.5 566,-583.5 "/>
<text text-anchor="middle" x="499" y="-571.5" font-family="Helvetica,sans-Serif" font-size="10.00"> </text>
<polyline fill="none" stroke="black" points="432,-564.5 566,-564.5 "/>
<text text-anchor="start" x="440" y="-552.5" font-family="Helvetica,sans-Serif" font-size="10.00">+ append()</text>
<text text-anchor="start" x="440" y="-541.5" font-family="Helvetica,sans-Serif" font-size="10.00">+ append()</text>
<text text-anchor="start" x="440" y="-530.5" font-family="Helvetica,sans-Serif" font-size="10.00">+ insertBefore()</text>
<text text-anchor="start" x="440" y="-519.5" font-family="Helvetica,sans-Serif" font-size="10.00">+ insertBefore()</text>
<text text-anchor="start" x="440" y="-508.5" font-family="Helvetica,sans-Serif" font-size="10.00">+ insertSorted()</text>
<text text-anchor="start" x="440" y="-497.5" font-family="Helvetica,sans-Serif" font-size="10.00">+ insertSorted()</text>
<text text-anchor="start" x="440" y="-486.5" font-family="Helvetica,sans-Serif" font-size="10.00">+ remove()</text>
<text text-anchor="start" x="440" y="-475.5" font-family="Helvetica,sans-Serif" font-size="10.00">+ remove()</text>
<text text-anchor="start" x="440" y="-464.5" font-family="Helvetica,sans-Serif" font-size="10.00">+ moveDown()</text>
<text text-anchor="start" x="440" y="-453.5" font-family="Helvetica,sans-Serif" font-size="10.00">+ couldContain()</text>
<text text-anchor="start" x="440" y="-442.5" font-family="Helvetica,sans-Serif" font-size="10.00">+ begin()</text>
<text text-anchor="start" x="440" y="-431.5" font-family="Helvetica,sans-Serif" font-size="10.00">+ begin()</text>
<text text-anchor="start" x="440" y="-420.5" font-family="Helvetica,sans-Serif" font-size="10.00">+ end()</text>
<text text-anchor="start" x="440" y="-409.5" font-family="Helvetica,sans-Serif" font-size="10.00">+ end()</text>
<text text-anchor="start" x="440" y="-398.5" font-family="Helvetica,sans-Serif" font-size="10.00">+ rbegin()</text>
<text text-anchor="start" x="440" y="-387.5" font-family="Helvetica,sans-Serif" font-size="10.00">+ rbegin()</text>
<text text-anchor="start" x="440" y="-376.5" font-family="Helvetica,sans-Serif" font-size="10.00">+ rend()</text>
<text text-anchor="start" x="440" y="-365.5" font-family="Helvetica,sans-Serif" font-size="10.00">+ rend()</text>
<text text-anchor="start" x="440" y="-354.5" font-family="Helvetica,sans-Serif" font-size="10.00">+ getFirst()</text>
<text text-anchor="start" x="440" y="-343.5" font-family="Helvetica,sans-Serif" font-size="10.00">+ getLast()</text>
</a>
</g>
</g>
<!-- Node5&#45;&gt;Node8 -->
<g id="edge11" class="edge"><title>Node5&#45;&gt;Node8</title>
<path fill="none" stroke="#404040" d="M422.687,-672.229C426.997,-658.584 431.474,-644.974 436,-632 436.827,-629.63 437.669,-627.243 438.525,-624.844"/>
<polygon fill="none" stroke="#404040" points="438.534,-624.817 436.817,-617.813 442.621,-613.534 444.339,-620.537 438.534,-624.817"/>
<text text-anchor="middle" x="447" y="-646" font-family="Helvetica,sans-Serif" font-size="10.00"> &#45;last</text>
<text text-anchor="middle" x="447" y="-635" font-family="Helvetica,sans-Serif" font-size="10.00">&#45;first</text>
</g>
<!-- Node6 -->
<g id="node6" class="node"><title>Node6</title>
<g id="a_node6"><a xlink:title=" ">
<polygon fill="white" stroke="#bfbfbf" points="366.5,-976.5 366.5,-1033.5 403.5,-1033.5 403.5,-976.5 366.5,-976.5"/>
<text text-anchor="middle" x="385" y="-1021.5" font-family="Helvetica,sans-Serif" font-size="10.00">Print</text>
<polyline fill="none" stroke="#bfbfbf" points="366.5,-1014.5 403.5,-1014.5 "/>
<text text-anchor="middle" x="385" y="-1002.5" font-family="Helvetica,sans-Serif" font-size="10.00"> </text>
<polyline fill="none" stroke="#bfbfbf" points="366.5,-995.5 403.5,-995.5 "/>
<text text-anchor="middle" x="385" y="-983.5" font-family="Helvetica,sans-Serif" font-size="10.00"> </text>
</a>
</g>
</g>
<!-- Node6&#45;&gt;Node5 -->
<g id="edge7" class="edge"><title>Node6&#45;&gt;Node5</title>
<path fill="none" stroke="midnightblue" d="M385,-966.074C385,-957.711 385,-948.396 385,-938.583"/>
<polygon fill="none" stroke="midnightblue" points="381.5,-966.122 385,-976.122 388.5,-966.122 381.5,-966.122"/>
</g>
<!-- Node7&#45;&gt;Node5 -->
<g id="edge8" class="edge"><title>Node7&#45;&gt;Node5</title>
<path fill="none" stroke="midnightblue" d="M339.676,-513.137C349.828,-544.448 363.561,-590.64 371,-632 373.34,-645.012 375.289,-658.646 376.913,-672.306"/>
<polygon fill="none" stroke="midnightblue" points="342.963,-511.928 336.518,-503.518 336.312,-514.111 342.963,-511.928"/>
</g>
<!-- Node8&#45;&gt;Node5 -->
<g id="edge10" class="edge"><title>Node8&#45;&gt;Node5</title>
<path fill="none" stroke="#404040" d="M474.278,-613.562C470.647,-627.363 466.565,-641.051 462,-654 461.161,-656.379 460.292,-658.767 459.396,-661.163"/>
<polygon fill="none" stroke="#404040" points="459.371,-661.227 460.917,-668.27 455.011,-672.407 453.464,-665.364 459.371,-661.227"/>
<text text-anchor="middle" x="492" y="-640.5" font-family="Helvetica,sans-Serif" font-size="10.00"> &#45;elements</text>
</g>
<!-- Node9 -->
<g id="node9" class="node"><title>Node9</title>
<g id="a_node9"><a xlink:href="../../dc/d77/classSelectorBase.html" target="_top" xlink:title="Base class for all Selectors exposing the get method, so it can be used by display elements etc,...">
<polygon fill="white" stroke="black" points="584.5,-441 584.5,-509 673.5,-509 673.5,-441 584.5,-441"/>
<text text-anchor="middle" x="629" y="-497" font-family="Helvetica,sans-Serif" font-size="10.00">SelectorBase</text>
<polyline fill="none" stroke="black" points="584.5,-490 673.5,-490 "/>
<text text-anchor="start" x="592.5" y="-478" font-family="Helvetica,sans-Serif" font-size="10.00"># setting</text>
<polyline fill="none" stroke="black" points="584.5,-471 673.5,-471 "/>
<text text-anchor="start" x="592.5" y="-459" font-family="Helvetica,sans-Serif" font-size="10.00">+ get()</text>
<text text-anchor="start" x="592.5" y="-448" font-family="Helvetica,sans-Serif" font-size="10.00"># SelectorBase()</text>
</a>
</g>
</g>
<!-- Node9&#45;&gt;Node1 -->
<g id="edge12" class="edge"><title>Node9&#45;&gt;Node1</title>
<path fill="none" stroke="#404040" d="M620.539,-440.754C607.082,-387.877 580.487,-283.371 562.471,-212.579"/>
<polygon fill="none" stroke="#404040" points="562.394,-212.278 557.038,-207.449 559.434,-200.648 564.791,-205.476 562.394,-212.278"/>
<text text-anchor="middle" x="610.5" y="-304.5" font-family="Helvetica,sans-Serif" font-size="10.00"> &#45;selector</text>
</g>
</g>
</svg>
