<?xml version="1.0" encoding="UTF-8" standalone="no"?>
<!DOCTYPE svg PUBLIC "-//W3C//DTD SVG 1.1//EN"
 "http://www.w3.org/Graphics/SVG/1.1/DTD/svg11.dtd">
<!-- Generated by graphviz version 2.43.0 (0)
 -->
<!-- Title: ButtonMatrix.ipp Pages: 1 -->
<svg width="1390pt" height="789pt"
 viewBox="0.00 0.00 1390.00 789.00" xmlns="http://www.w3.org/2000/svg" xmlns:xlink="http://www.w3.org/1999/xlink">
<g id="graph0" class="graph" transform="scale(1 1) rotate(0) translate(4 785)">
<title>ButtonMatrix.ipp</title>
<polygon fill="white" stroke="transparent" points="-4,4 -4,-785 1386,-785 1386,4 -4,4"/>
<!-- Node1 -->
<g id="node1" class="node">
<title>Node1</title>
<g id="a_node1"><a xlink:title=" ">
<polygon fill="#bfbfbf" stroke="black" points="723.5,-761.5 723.5,-780.5 821.5,-780.5 821.5,-761.5 723.5,-761.5"/>
<text text-anchor="middle" x="772.5" y="-768.5" font-family="Helvetica,sans-Serif" font-size="10.00">ButtonMatrix.ipp</text>
</a>
</g>
</g>
<!-- Node2 -->
<g id="node2" class="node">
<title>Node2</title>
<g id="a_node2"><a xlink:href="../../d9/d4b/ButtonMatrix_8hpp.html" target="_top" xlink:title=" ">
<polygon fill="white" stroke="black" points="0,-633 0,-652 101,-652 101,-633 0,-633"/>
<text text-anchor="middle" x="50.5" y="-640" font-family="Helvetica,sans-Serif" font-size="10.00">ButtonMatrix.hpp</text>
</a>
</g>
</g>
<!-- Node1&#45;&gt;Node2 -->
<g id="edge1" class="edge">
<title>Node1&#45;&gt;Node2</title>
<path fill="none" stroke="midnightblue" d="M723.17,-763.17C612.31,-746.76 335.84,-703.1 106.5,-658 100.61,-656.84 94.44,-655.56 88.42,-654.25"/>
<polygon fill="midnightblue" stroke="midnightblue" points="89.02,-650.79 78.5,-652.03 87.49,-657.63 89.02,-650.79"/>
</g>
<!-- Node25 -->
<g id="node25" class="node">
<title>Node25</title>
<g id="a_node25"><a xlink:href="../../d4/dba/CRTP_8hpp.html" target="_top" xlink:title=" ">
<polygon fill="white" stroke="black" points="879.5,-700 879.5,-719 1013.5,-719 1013.5,-700 879.5,-700"/>
<text text-anchor="middle" x="946.5" y="-707" font-family="Helvetica,sans-Serif" font-size="10.00">AH/Containers/CRTP.hpp</text>
</a>
</g>
</g>
<!-- Node1&#45;&gt;Node25 -->
<g id="edge45" class="edge">
<title>Node1&#45;&gt;Node25</title>
<path fill="none" stroke="midnightblue" d="M797.43,-761.48C827.54,-751.18 878.33,-733.81 912.14,-722.25"/>
<polygon fill="midnightblue" stroke="midnightblue" points="913.29,-725.56 921.62,-719.01 911.02,-718.93 913.29,-725.56"/>
</g>
<!-- Node26 -->
<g id="node26" class="node">
<title>Node26</title>
<g id="a_node26"><a xlink:href="../../dd/ddf/ExtendedInputOutput_8hpp.html" target="_top" xlink:title=" ">
<polygon fill="white" stroke="black" points="684,-694.5 684,-724.5 861,-724.5 861,-694.5 684,-694.5"/>
<text text-anchor="start" x="692" y="-712.5" font-family="Helvetica,sans-Serif" font-size="10.00">AH/Hardware/ExtendedInput</text>
<text text-anchor="middle" x="772.5" y="-701.5" font-family="Helvetica,sans-Serif" font-size="10.00">Output/ExtendedInputOutput.hpp</text>
</a>
</g>
</g>
<!-- Node1&#45;&gt;Node26 -->
<g id="edge46" class="edge">
<title>Node1&#45;&gt;Node26</title>
<path fill="none" stroke="midnightblue" d="M772.5,-761.48C772.5,-754.47 772.5,-744.19 772.5,-734.7"/>
<polygon fill="midnightblue" stroke="midnightblue" points="776,-734.52 772.5,-724.52 769,-734.52 776,-734.52"/>
</g>
<!-- Node32 -->
<g id="node32" class="node">
<title>Node32</title>
<g id="a_node32"><a xlink:title=" ">
<polygon fill="white" stroke="#bfbfbf" points="1032,-700 1032,-719 1085,-719 1085,-700 1032,-700"/>
<text text-anchor="middle" x="1058.5" y="-707" font-family="Helvetica,sans-Serif" font-size="10.00">string.h</text>
</a>
</g>
</g>
<!-- Node1&#45;&gt;Node32 -->
<g id="edge59" class="edge">
<title>Node1&#45;&gt;Node32</title>
<path fill="none" stroke="midnightblue" d="M821.57,-764.19C872.48,-757.47 954.06,-744.72 1022.5,-725 1024.94,-724.3 1027.43,-723.49 1029.92,-722.62"/>
<polygon fill="midnightblue" stroke="midnightblue" points="1031.21,-725.88 1039.32,-719.07 1028.73,-719.33 1031.21,-725.88"/>
</g>
<!-- Node2&#45;&gt;Node1 -->
<g id="edge44" class="edge">
<title>Node2&#45;&gt;Node1</title>
<path fill="none" stroke="midnightblue" d="M95.93,-652.03C105.43,-654.08 115.31,-656.19 124.5,-658 340.78,-700.53 598.99,-741.78 713.25,-760.11"/>
<polygon fill="midnightblue" stroke="midnightblue" points="712.77,-763.58 723.19,-761.7 713.88,-756.66 712.77,-763.58"/>
</g>
<!-- Node3 -->
<g id="node3" class="node">
<title>Node3</title>
<g id="a_node3"><a xlink:href="../../d1/d65/Warnings_8hpp.html" target="_top" xlink:title=" ">
<polygon fill="white" stroke="black" points="345,-0.5 345,-19.5 488,-19.5 488,-0.5 345,-0.5"/>
<text text-anchor="middle" x="416.5" y="-7.5" font-family="Helvetica,sans-Serif" font-size="10.00">AH/Settings/Warnings.hpp</text>
</a>
</g>
</g>
<!-- Node2&#45;&gt;Node3 -->
<g id="edge2" class="edge">
<title>Node2&#45;&gt;Node3</title>
<path fill="none" stroke="midnightblue" d="M50.5,-632.91C50.5,-612.48 50.5,-559.36 50.5,-515 50.5,-515 50.5,-515 50.5,-121 50.5,-90.2 50.44,-75.22 74.5,-56 113.43,-24.9 246.26,-15.22 334.47,-12.25"/>
<polygon fill="midnightblue" stroke="midnightblue" points="334.84,-15.74 344.72,-11.93 334.62,-8.74 334.84,-15.74"/>
</g>
<!-- Node4 -->
<g id="node4" class="node">
<title>Node4</title>
<g id="a_node4"><a xlink:href="../../d4/d35/Hardware-Types_8hpp.html" target="_top" xlink:title=" ">
<polygon fill="white" stroke="black" points="862,-560.5 862,-590.5 993,-590.5 993,-560.5 862,-560.5"/>
<text text-anchor="start" x="870" y="-578.5" font-family="Helvetica,sans-Serif" font-size="10.00">AH/Hardware/Hardware</text>
<text text-anchor="middle" x="927.5" y="-567.5" font-family="Helvetica,sans-Serif" font-size="10.00">&#45;Types.hpp</text>
</a>
</g>
</g>
<!-- Node2&#45;&gt;Node4 -->
<g id="edge3" class="edge">
<title>Node2&#45;&gt;Node4</title>
<path fill="none" stroke="midnightblue" d="M101.12,-637.75C248.29,-626.84 676.67,-595.09 851.68,-582.12"/>
<polygon fill="midnightblue" stroke="midnightblue" points="852.12,-585.6 861.83,-581.37 851.6,-578.62 852.12,-585.6"/>
</g>
<!-- Node4&#45;&gt;Node3 -->
<g id="edge4" class="edge">
<title>Node4&#45;&gt;Node3</title>
<path fill="none" stroke="midnightblue" d="M944.99,-560.15C955.4,-550.8 968.17,-537.81 976.5,-524 1032.76,-430.73 1052.5,-399.93 1052.5,-291 1052.5,-291 1052.5,-291 1052.5,-121 1052.5,-90.9 1056.91,-74.92 1033.5,-56 992.81,-23.12 656.63,-14.22 498.34,-11.85"/>
<polygon fill="midnightblue" stroke="midnightblue" points="498.22,-8.35 488.17,-11.7 498.12,-15.35 498.22,-8.35"/>
</g>
<!-- Node5 -->
<g id="node5" class="node">
<title>Node5</title>
<g id="a_node5"><a xlink:href="../../de/d76/Array_8hpp.html" target="_top" xlink:title=" ">
<polygon fill="white" stroke="black" points="245,-504.5 245,-523.5 380,-523.5 380,-504.5 245,-504.5"/>
<text text-anchor="middle" x="312.5" y="-511.5" font-family="Helvetica,sans-Serif" font-size="10.00">AH/Containers/Array.hpp</text>
</a>
</g>
</g>
<!-- Node4&#45;&gt;Node5 -->
<g id="edge5" class="edge">
<title>Node4&#45;&gt;Node5</title>
<path fill="none" stroke="midnightblue" d="M861.98,-568.16C747.73,-557.11 512.62,-534.36 390.3,-522.53"/>
<polygon fill="midnightblue" stroke="midnightblue" points="390.54,-519.03 380.25,-521.55 389.87,-526 390.54,-519.03"/>
</g>
<!-- Node9 -->
<g id="node9" class="node">
<title>Node9</title>
<g id="a_node9"><a xlink:href="../../dc/dc7/NamespaceSettings_8hpp.html" target="_top" xlink:title=" ">
<polygon fill="white" stroke="black" points="604,-56.5 604,-75.5 799,-75.5 799,-56.5 604,-56.5"/>
<text text-anchor="middle" x="701.5" y="-63.5" font-family="Helvetica,sans-Serif" font-size="10.00">AH/Settings/NamespaceSettings.hpp</text>
</a>
</g>
</g>
<!-- Node4&#45;&gt;Node9 -->
<g id="edge42" class="edge">
<title>Node4&#45;&gt;Node9</title>
<path fill="none" stroke="midnightblue" d="M937.89,-560.37C952.28,-539.38 976.5,-498.21 976.5,-459 976.5,-459 976.5,-459 976.5,-345 976.5,-265.88 1044.44,-230.17 995.5,-168 953.36,-114.47 910.91,-154.2 846.5,-132 826.19,-125 822.09,-120.82 802.5,-112 778.13,-101.03 750.4,-88.69 730.16,-79.7"/>
<polygon fill="midnightblue" stroke="midnightblue" points="731.44,-76.44 720.88,-75.58 728.6,-82.84 731.44,-76.44"/>
</g>
<!-- Node21 -->
<g id="node21" class="node">
<title>Node21</title>
<g id="a_node21"><a xlink:title=" ">
<polygon fill="white" stroke="#bfbfbf" points="627,-224.5 627,-243.5 680,-243.5 680,-224.5 627,-224.5"/>
<text text-anchor="middle" x="653.5" y="-231.5" font-family="Helvetica,sans-Serif" font-size="10.00">stdint.h</text>
</a>
</g>
</g>
<!-- Node4&#45;&gt;Node21 -->
<g id="edge43" class="edge">
<title>Node4&#45;&gt;Node21</title>
<path fill="none" stroke="midnightblue" d="M916.08,-560.34C872.15,-505.91 714.21,-310.22 666.95,-251.67"/>
<polygon fill="midnightblue" stroke="midnightblue" points="669.58,-249.35 660.58,-243.77 664.14,-253.75 669.58,-249.35"/>
</g>
<!-- Node5&#45;&gt;Node3 -->
<g id="edge6" class="edge">
<title>Node5&#45;&gt;Node3</title>
<path fill="none" stroke="midnightblue" d="M244.65,-509.98C210.83,-505.05 171.68,-493.63 145.5,-468 123.99,-446.94 126.5,-433.1 126.5,-403 126.5,-403 126.5,-403 126.5,-121 126.5,-84 146.8,-75.07 178.5,-56 225.52,-27.72 286.43,-16.58 334.86,-12.45"/>
<polygon fill="midnightblue" stroke="midnightblue" points="335.29,-15.93 344.99,-11.67 334.76,-8.95 335.29,-15.93"/>
</g>
<!-- Node6 -->
<g id="node6" class="node">
<title>Node6</title>
<g id="a_node6"><a xlink:href="../../d1/d93/Error_8hpp.html" target="_top" xlink:title=" ">
<polygon fill="white" stroke="black" points="300.5,-448.5 300.5,-467.5 404.5,-467.5 404.5,-448.5 300.5,-448.5"/>
<text text-anchor="middle" x="352.5" y="-455.5" font-family="Helvetica,sans-Serif" font-size="10.00">AH/Error/Error.hpp</text>
</a>
</g>
</g>
<!-- Node5&#45;&gt;Node6 -->
<g id="edge7" class="edge">
<title>Node5&#45;&gt;Node6</title>
<path fill="none" stroke="midnightblue" d="M319.11,-504.08C324.76,-496.46 333.04,-485.26 339.95,-475.94"/>
<polygon fill="midnightblue" stroke="midnightblue" points="342.88,-477.87 346.02,-467.75 337.25,-473.7 342.88,-477.87"/>
</g>
<!-- Node14 -->
<g id="node14" class="node">
<title>Node14</title>
<g id="a_node14"><a xlink:title=" ">
<polygon fill="white" stroke="#bfbfbf" points="687,-112.5 687,-131.5 794,-131.5 794,-112.5 687,-112.5"/>
<text text-anchor="middle" x="740.5" y="-119.5" font-family="Helvetica,sans-Serif" font-size="10.00">AH/STL/type_traits</text>
</a>
</g>
</g>
<!-- Node5&#45;&gt;Node14 -->
<g id="edge40" class="edge">
<title>Node5&#45;&gt;Node14</title>
<path fill="none" stroke="midnightblue" d="M380.24,-506.28C511.16,-489.24 796.69,-431.34 918.5,-244 923.35,-236.55 923.01,-231.66 918.5,-224 901.73,-195.55 882.26,-204.23 853.5,-188 822.49,-170.5 786.92,-149.96 764.1,-136.73"/>
<polygon fill="midnightblue" stroke="midnightblue" points="765.85,-133.69 755.44,-131.7 762.34,-139.75 765.85,-133.69"/>
</g>
<!-- Node20 -->
<g id="node20" class="node">
<title>Node20</title>
<g id="a_node20"><a xlink:title=" ">
<polygon fill="white" stroke="#bfbfbf" points="230.5,-224.5 230.5,-243.5 286.5,-243.5 286.5,-224.5 230.5,-224.5"/>
<text text-anchor="middle" x="258.5" y="-231.5" font-family="Helvetica,sans-Serif" font-size="10.00">stddef.h</text>
</a>
</g>
</g>
<!-- Node5&#45;&gt;Node20 -->
<g id="edge41" class="edge">
<title>Node5&#45;&gt;Node20</title>
<path fill="none" stroke="midnightblue" d="M307.51,-504.34C302.65,-495.5 295.43,-481.22 291.5,-468 268.53,-390.65 261.36,-293.97 259.28,-253.82"/>
<polygon fill="midnightblue" stroke="midnightblue" points="262.77,-253.48 258.81,-243.66 255.78,-253.81 262.77,-253.48"/>
</g>
<!-- Node24 -->
<g id="node24" class="node">
<title>Node24</title>
<g id="a_node24"><a xlink:title=" ">
<polygon fill="white" stroke="#bfbfbf" points="154.5,-448.5 154.5,-467.5 244.5,-467.5 244.5,-448.5 154.5,-448.5"/>
<text text-anchor="middle" x="199.5" y="-455.5" font-family="Helvetica,sans-Serif" font-size="10.00">AH/STL/iterator</text>
</a>
</g>
</g>
<!-- Node5&#45;&gt;Node24 -->
<g id="edge39" class="edge">
<title>Node5&#45;&gt;Node24</title>
<path fill="none" stroke="midnightblue" d="M294.59,-504.44C276.25,-495.68 247.49,-481.94 226.41,-471.86"/>
<polygon fill="midnightblue" stroke="midnightblue" points="227.85,-468.67 217.32,-467.52 224.83,-474.99 227.85,-468.67"/>
</g>
<!-- Node6&#45;&gt;Node3 -->
<g id="edge8" class="edge">
<title>Node6&#45;&gt;Node3</title>
<path fill="none" stroke="midnightblue" d="M327.54,-448.43C276.4,-429.1 164.5,-376.99 164.5,-291 164.5,-291 164.5,-291 164.5,-121 164.5,-45.32 261.15,-21.19 334.74,-13.78"/>
<polygon fill="midnightblue" stroke="midnightblue" points="335.32,-17.24 344.96,-12.85 334.68,-10.27 335.32,-17.24"/>
</g>
<!-- Node7 -->
<g id="node7" class="node">
<title>Node7</title>
<g id="a_node7"><a xlink:href="../../df/dee/Debug_8hpp.html" target="_top" xlink:title=" ">
<polygon fill="white" stroke="black" points="371,-392.5 371,-411.5 492,-411.5 492,-392.5 371,-392.5"/>
<text text-anchor="middle" x="431.5" y="-399.5" font-family="Helvetica,sans-Serif" font-size="10.00">AH/Debug/Debug.hpp</text>
</a>
</g>
</g>
<!-- Node6&#45;&gt;Node7 -->
<g id="edge9" class="edge">
<title>Node6&#45;&gt;Node7</title>
<path fill="none" stroke="midnightblue" d="M365.19,-448.32C377.4,-439.98 396.08,-427.21 410.5,-417.35"/>
<polygon fill="midnightblue" stroke="midnightblue" points="412.56,-420.19 418.84,-411.65 408.61,-414.41 412.56,-420.19"/>
</g>
<!-- Node7&#45;&gt;Node3 -->
<g id="edge10" class="edge">
<title>Node7&#45;&gt;Node3</title>
<path fill="none" stroke="midnightblue" d="M370.73,-397.42C302.89,-389.74 202.5,-365.76 202.5,-291 202.5,-291 202.5,-291 202.5,-121 202.5,-58.97 274.49,-31.89 334.97,-20.09"/>
<polygon fill="midnightblue" stroke="midnightblue" points="335.74,-23.5 344.94,-18.25 334.48,-16.62 335.74,-23.5"/>
</g>
<!-- Node8 -->
<g id="node8" class="node">
<title>Node8</title>
<g id="a_node8"><a xlink:href="../../dd/d80/PrintStream_8hpp.html" target="_top" xlink:title=" ">
<polygon fill="white" stroke="black" points="737,-224.5 737,-243.5 910,-243.5 910,-224.5 737,-224.5"/>
<text text-anchor="middle" x="823.5" y="-231.5" font-family="Helvetica,sans-Serif" font-size="10.00">AH/PrintStream/PrintStream.hpp</text>
</a>
</g>
</g>
<!-- Node7&#45;&gt;Node8 -->
<g id="edge11" class="edge">
<title>Node7&#45;&gt;Node8</title>
<path fill="none" stroke="midnightblue" d="M465.41,-392.42C520.94,-377.67 633.96,-344.74 722.5,-300 752.03,-285.08 783.76,-263.68 803.62,-249.56"/>
<polygon fill="midnightblue" stroke="midnightblue" points="805.78,-252.32 811.85,-243.64 801.69,-246.64 805.78,-252.32"/>
</g>
<!-- Node15 -->
<g id="node15" class="node">
<title>Node15</title>
<g id="a_node15"><a xlink:href="../../d2/dd5/SettingsWrapper_8hpp.html" target="_top" xlink:title=" ">
<polygon fill="white" stroke="black" points="388.5,-336.5 388.5,-355.5 566.5,-355.5 566.5,-336.5 388.5,-336.5"/>
<text text-anchor="middle" x="477.5" y="-343.5" font-family="Helvetica,sans-Serif" font-size="10.00">AH/Settings/SettingsWrapper.hpp</text>
</a>
</g>
</g>
<!-- Node7&#45;&gt;Node15 -->
<g id="edge23" class="edge">
<title>Node7&#45;&gt;Node15</title>
<path fill="none" stroke="midnightblue" d="M433.93,-392.08C438.97,-384.22 448.54,-372.57 457.57,-363.08"/>
<polygon fill="midnightblue" stroke="midnightblue" points="460.31,-365.29 464.91,-355.75 455.36,-360.34 460.31,-365.29"/>
</g>
<!-- Node23 -->
<g id="node23" class="node">
<title>Node23</title>
<g id="a_node23"><a xlink:href="../../d7/d52/DebugVal_8hpp.html" target="_top" xlink:title=" ">
<polygon fill="white" stroke="black" points="286.5,-336.5 286.5,-355.5 370.5,-355.5 370.5,-336.5 286.5,-336.5"/>
<text text-anchor="middle" x="328.5" y="-343.5" font-family="Helvetica,sans-Serif" font-size="10.00">DebugVal.hpp</text>
</a>
</g>
</g>
<!-- Node7&#45;&gt;Node23 -->
<g id="edge38" class="edge">
<title>Node7&#45;&gt;Node23</title>
<path fill="none" stroke="midnightblue" d="M414.95,-392.32C398.51,-383.7 373.07,-370.36 354.03,-360.39"/>
<polygon fill="midnightblue" stroke="midnightblue" points="355.49,-357.2 345.01,-355.65 352.24,-363.4 355.49,-357.2"/>
</g>
<!-- Node8&#45;&gt;Node3 -->
<g id="edge13" class="edge">
<title>Node8&#45;&gt;Node3</title>
<path fill="none" stroke="midnightblue" d="M796.18,-224.44C771.44,-216.3 734.27,-203.08 703.5,-188 598.53,-136.55 482.7,-57.67 436.81,-25.46"/>
<polygon fill="midnightblue" stroke="midnightblue" points="438.78,-22.56 428.59,-19.66 434.75,-28.28 438.78,-22.56"/>
</g>
<!-- Node8&#45;&gt;Node9 -->
<g id="edge12" class="edge">
<title>Node8&#45;&gt;Node9</title>
<path fill="none" stroke="midnightblue" d="M799.06,-224.46C764.63,-210.94 703.19,-181 677.5,-132 669.33,-116.42 678.33,-97.43 687.55,-84"/>
<polygon fill="midnightblue" stroke="midnightblue" points="690.56,-85.82 693.75,-75.71 684.96,-81.62 690.56,-85.82"/>
</g>
<!-- Node10 -->
<g id="node10" class="node">
<title>Node10</title>
<g id="a_node10"><a xlink:href="../../d6/ddf/Arduino-Wrapper_8h.html" target="_top" xlink:title=" ">
<polygon fill="white" stroke="black" points="862.5,-168.5 862.5,-187.5 986.5,-187.5 986.5,-168.5 862.5,-168.5"/>
<text text-anchor="middle" x="924.5" y="-175.5" font-family="Helvetica,sans-Serif" font-size="10.00">AH/Arduino&#45;Wrapper.h</text>
</a>
</g>
</g>
<!-- Node8&#45;&gt;Node10 -->
<g id="edge14" class="edge">
<title>Node8&#45;&gt;Node10</title>
<path fill="none" stroke="midnightblue" d="M839.73,-224.32C855.85,-215.7 880.8,-202.36 899.46,-192.39"/>
<polygon fill="midnightblue" stroke="midnightblue" points="901.14,-195.46 908.31,-187.65 897.84,-189.28 901.14,-195.46"/>
</g>
<!-- Node11 -->
<g id="node11" class="node">
<title>Node11</title>
<g id="a_node11"><a xlink:href="../../d7/d79/MinMaxFix_8hpp.html" target="_top" xlink:title=" ">
<polygon fill="white" stroke="black" points="888.5,-112.5 888.5,-131.5 1024.5,-131.5 1024.5,-112.5 888.5,-112.5"/>
<text text-anchor="middle" x="956.5" y="-119.5" font-family="Helvetica,sans-Serif" font-size="10.00">AH/Math/MinMaxFix.hpp</text>
</a>
</g>
</g>
<!-- Node10&#45;&gt;Node11 -->
<g id="edge15" class="edge">
<title>Node10&#45;&gt;Node11</title>
<path fill="none" stroke="midnightblue" d="M929.78,-168.08C934.21,-160.61 940.66,-149.72 946.12,-140.52"/>
<polygon fill="midnightblue" stroke="midnightblue" points="949.23,-142.14 951.31,-131.75 943.21,-138.57 949.23,-142.14"/>
</g>
<!-- Node13 -->
<g id="node13" class="node">
<title>Node13</title>
<g id="a_node13"><a xlink:title=" ">
<polygon fill="white" stroke="#bfbfbf" points="1021,-0.5 1021,-19.5 1084,-19.5 1084,-0.5 1021,-0.5"/>
<text text-anchor="middle" x="1052.5" y="-7.5" font-family="Helvetica,sans-Serif" font-size="10.00">Arduino.h</text>
</a>
</g>
</g>
<!-- Node10&#45;&gt;Node13 -->
<g id="edge22" class="edge">
<title>Node10&#45;&gt;Node13</title>
<path fill="none" stroke="midnightblue" d="M972.06,-168.49C994.01,-162.11 1018.48,-151.05 1033.5,-132 1056.89,-102.32 1056.96,-55.54 1054.82,-29.7"/>
<polygon fill="midnightblue" stroke="midnightblue" points="1058.3,-29.32 1053.79,-19.73 1051.34,-30.04 1058.3,-29.32"/>
</g>
<!-- Node10&#45;&gt;Node14 -->
<g id="edge21" class="edge">
<title>Node10&#45;&gt;Node14</title>
<path fill="none" stroke="midnightblue" d="M895.34,-168.44C863.99,-159.24 813.97,-144.56 779.3,-134.39"/>
<polygon fill="midnightblue" stroke="midnightblue" points="780.1,-130.97 769.52,-131.52 778.13,-137.69 780.1,-130.97"/>
</g>
<!-- Node11&#45;&gt;Node3 -->
<g id="edge16" class="edge">
<title>Node11&#45;&gt;Node3</title>
<path fill="none" stroke="midnightblue" d="M933.25,-112.35C910.6,-103.74 875.3,-89.84 845.5,-76 828.19,-67.96 825.74,-61.63 807.5,-56 703.88,-24 578.46,-14.38 498.09,-11.69"/>
<polygon fill="midnightblue" stroke="midnightblue" points="498.14,-8.19 488.03,-11.38 497.92,-15.19 498.14,-8.19"/>
</g>
<!-- Node11&#45;&gt;Node9 -->
<g id="edge20" class="edge">
<title>Node11&#45;&gt;Node9</title>
<path fill="none" stroke="midnightblue" d="M916.09,-112.44C871.52,-103 799.73,-87.8 751.61,-77.61"/>
<polygon fill="midnightblue" stroke="midnightblue" points="752.22,-74.16 741.72,-75.52 750.77,-81.01 752.22,-74.16"/>
</g>
<!-- Node12 -->
<g id="node12" class="node">
<title>Node12</title>
<g id="a_node12"><a xlink:href="../../d6/d3b/FixArduinoMacros_8hpp.html" target="_top" xlink:title=" ">
<polygon fill="white" stroke="black" points="854.5,-56.5 854.5,-75.5 1024.5,-75.5 1024.5,-56.5 854.5,-56.5"/>
<text text-anchor="middle" x="939.5" y="-63.5" font-family="Helvetica,sans-Serif" font-size="10.00">AH/Math/FixArduinoMacros.hpp</text>
</a>
</g>
</g>
<!-- Node11&#45;&gt;Node12 -->
<g id="edge17" class="edge">
<title>Node11&#45;&gt;Node12</title>
<path fill="none" stroke="midnightblue" d="M953.69,-112.08C951.42,-104.85 948.13,-94.41 945.29,-85.4"/>
<polygon fill="midnightblue" stroke="midnightblue" points="948.6,-84.24 942.25,-75.75 941.92,-86.34 948.6,-84.24"/>
</g>
<!-- Node12&#45;&gt;Node3 -->
<g id="edge18" class="edge">
<title>Node12&#45;&gt;Node3</title>
<path fill="none" stroke="midnightblue" d="M856.92,-56.47C758.78,-46.34 596.06,-29.54 498.27,-19.44"/>
<polygon fill="midnightblue" stroke="midnightblue" points="498.45,-15.94 488.14,-18.4 497.73,-22.91 498.45,-15.94"/>
</g>
<!-- Node12&#45;&gt;Node13 -->
<g id="edge19" class="edge">
<title>Node12&#45;&gt;Node13</title>
<path fill="none" stroke="midnightblue" d="M957.41,-56.44C975.75,-47.68 1004.51,-33.94 1025.59,-23.86"/>
<polygon fill="midnightblue" stroke="midnightblue" points="1027.17,-26.99 1034.68,-19.52 1024.15,-20.67 1027.17,-26.99"/>
</g>
<!-- Node15&#45;&gt;Node3 -->
<g id="edge24" class="edge">
<title>Node15&#45;&gt;Node3</title>
<path fill="none" stroke="midnightblue" d="M404.18,-336.44C378.88,-330.08 352.22,-319.07 333.5,-300 312.42,-278.52 314.5,-265.1 314.5,-235 314.5,-235 314.5,-235 314.5,-121 314.5,-76.39 360.16,-42.23 390.38,-24.51"/>
<polygon fill="midnightblue" stroke="midnightblue" points="392.2,-27.5 399.2,-19.55 388.77,-21.4 392.2,-27.5"/>
</g>
<!-- Node15&#45;&gt;Node7 -->
<g id="edge37" class="edge">
<title>Node15&#45;&gt;Node7</title>
<path fill="none" stroke="midnightblue" d="M475.12,-355.83C470.04,-363.79 460.27,-375.67 451.11,-385.25"/>
<polygon fill="midnightblue" stroke="midnightblue" points="448.63,-382.79 444.01,-392.32 453.56,-387.75 448.63,-382.79"/>
</g>
<!-- Node15&#45;&gt;Node9 -->
<g id="edge25" class="edge">
<title>Node15&#45;&gt;Node9</title>
<path fill="none" stroke="midnightblue" d="M539,-336.46C591.17,-325.38 661.69,-300.28 688.5,-244 713.96,-190.54 652.91,-168.54 670.5,-112 673.73,-101.62 680.28,-91.52 686.52,-83.53"/>
<polygon fill="midnightblue" stroke="midnightblue" points="689.29,-85.68 693.02,-75.77 683.92,-81.19 689.29,-85.68"/>
</g>
<!-- Node16 -->
<g id="node16" class="node">
<title>Node16</title>
<g id="a_node16"><a xlink:href="../../db/d02/Settings_8hpp.html" target="_top" xlink:title="All user settings and debugging options can be changed here.">
<polygon fill="white" stroke="black" points="534,-280.5 534,-299.5 611,-299.5 611,-280.5 534,-280.5"/>
<text text-anchor="middle" x="572.5" y="-287.5" font-family="Helvetica,sans-Serif" font-size="10.00">Settings.hpp</text>
</a>
</g>
</g>
<!-- Node15&#45;&gt;Node16 -->
<g id="edge26" class="edge">
<title>Node15&#45;&gt;Node16</title>
<path fill="none" stroke="midnightblue" d="M492.76,-336.32C507.72,-327.82 530.75,-314.73 548.23,-304.8"/>
<polygon fill="midnightblue" stroke="midnightblue" points="550.31,-307.64 557.27,-299.65 546.85,-301.55 550.31,-307.64"/>
</g>
<!-- Node22 -->
<g id="node22" class="node">
<title>Node22</title>
<g id="a_node22"><a xlink:href="../../d9/d98/TeensyUSBTypes_8hpp.html" target="_top" xlink:title=" ">
<polygon fill="white" stroke="black" points="343,-280.5 343,-299.5 516,-299.5 516,-280.5 343,-280.5"/>
<text text-anchor="middle" x="429.5" y="-287.5" font-family="Helvetica,sans-Serif" font-size="10.00">AH/Teensy/TeensyUSBTypes.hpp</text>
</a>
</g>
</g>
<!-- Node15&#45;&gt;Node22 -->
<g id="edge36" class="edge">
<title>Node15&#45;&gt;Node22</title>
<path fill="none" stroke="midnightblue" d="M469.57,-336.08C462.65,-328.3 452.43,-316.8 444.05,-307.37"/>
<polygon fill="midnightblue" stroke="midnightblue" points="446.54,-304.9 437.28,-299.75 441.31,-309.55 446.54,-304.9"/>
</g>
<!-- Node17 -->
<g id="node17" class="node">
<title>Node17</title>
<g id="a_node17"><a xlink:href="../../dc/d50/Frequency_8hpp.html" target="_top" xlink:title=" ">
<polygon fill="white" stroke="black" points="420.5,-112.5 420.5,-131.5 554.5,-131.5 554.5,-112.5 420.5,-112.5"/>
<text text-anchor="middle" x="487.5" y="-119.5" font-family="Helvetica,sans-Serif" font-size="10.00">AH/Types/Frequency.hpp</text>
</a>
</g>
</g>
<!-- Node16&#45;&gt;Node17 -->
<g id="edge27" class="edge">
<title>Node16&#45;&gt;Node17</title>
<path fill="none" stroke="midnightblue" d="M533.57,-281.58C476.58,-270.53 376.6,-250.37 371.5,-244 337.77,-201.89 413.74,-157.31 458.2,-135.92"/>
<polygon fill="midnightblue" stroke="midnightblue" points="459.85,-139.02 467.42,-131.6 456.88,-132.68 459.85,-139.02"/>
</g>
<!-- Node18 -->
<g id="node18" class="node">
<title>Node18</title>
<g id="a_node18"><a xlink:href="../../d7/d7c/ADCConfig_8hpp.html" target="_top" xlink:title="This file contains the platform&#45;specific ADC resolutions.">
<polygon fill="white" stroke="black" points="452,-224.5 452,-243.5 609,-243.5 609,-224.5 452,-224.5"/>
<text text-anchor="middle" x="530.5" y="-231.5" font-family="Helvetica,sans-Serif" font-size="10.00">AH/Hardware/ADCConfig.hpp</text>
</a>
</g>
</g>
<!-- Node16&#45;&gt;Node18 -->
<g id="edge30" class="edge">
<title>Node16&#45;&gt;Node18</title>
<path fill="none" stroke="midnightblue" d="M565.56,-280.08C559.57,-272.38 550.75,-261.03 543.45,-251.65"/>
<polygon fill="midnightblue" stroke="midnightblue" points="546.21,-249.5 537.31,-243.75 540.68,-253.79 546.21,-249.5"/>
</g>
<!-- Node19 -->
<g id="node19" class="node">
<title>Node19</title>
<g id="a_node19"><a xlink:title=" ">
<polygon fill="white" stroke="#bfbfbf" points="381,-224.5 381,-243.5 434,-243.5 434,-224.5 381,-224.5"/>
<text text-anchor="middle" x="407.5" y="-231.5" font-family="Helvetica,sans-Serif" font-size="10.00">limits.h</text>
</a>
</g>
</g>
<!-- Node16&#45;&gt;Node19 -->
<g id="edge33" class="edge">
<title>Node16&#45;&gt;Node19</title>
<path fill="none" stroke="midnightblue" d="M546.36,-280.44C518.48,-271.32 474.15,-256.81 443.1,-246.65"/>
<polygon fill="midnightblue" stroke="midnightblue" points="444.12,-243.3 433.52,-243.52 441.94,-249.95 444.12,-243.3"/>
</g>
<!-- Node16&#45;&gt;Node20 -->
<g id="edge34" class="edge">
<title>Node16&#45;&gt;Node20</title>
<path fill="none" stroke="midnightblue" d="M534,-281.72C530.79,-281.13 527.59,-280.55 524.5,-280 443.62,-265.58 348.69,-249.79 296.94,-241.28"/>
<polygon fill="midnightblue" stroke="midnightblue" points="297.31,-237.8 286.87,-239.63 296.17,-244.7 297.31,-237.8"/>
</g>
<!-- Node16&#45;&gt;Node21 -->
<g id="edge35" class="edge">
<title>Node16&#45;&gt;Node21</title>
<path fill="none" stroke="midnightblue" d="M585.51,-280.32C598.03,-271.98 617.18,-259.21 631.97,-249.35"/>
<polygon fill="midnightblue" stroke="midnightblue" points="634.14,-252.11 640.52,-243.65 630.26,-246.29 634.14,-252.11"/>
</g>
<!-- Node17&#45;&gt;Node3 -->
<g id="edge28" class="edge">
<title>Node17&#45;&gt;Node3</title>
<path fill="none" stroke="midnightblue" d="M481.93,-112.37C470.26,-94.3 443.08,-52.18 427.67,-28.31"/>
<polygon fill="midnightblue" stroke="midnightblue" points="430.41,-26.1 422.05,-19.59 424.53,-29.89 430.41,-26.1"/>
</g>
<!-- Node17&#45;&gt;Node9 -->
<g id="edge29" class="edge">
<title>Node17&#45;&gt;Node9</title>
<path fill="none" stroke="midnightblue" d="M521.41,-112.44C558.35,-103.12 617.55,-88.18 657.92,-78"/>
<polygon fill="midnightblue" stroke="midnightblue" points="658.91,-81.36 667.75,-75.52 657.2,-74.57 658.91,-81.36"/>
</g>
<!-- Node18&#45;&gt;Node3 -->
<g id="edge31" class="edge">
<title>Node18&#45;&gt;Node3</title>
<path fill="none" stroke="midnightblue" d="M512.53,-224.26C484.76,-209.63 432.44,-177.25 411.5,-132 396.03,-98.58 404.07,-54.24 410.69,-29.57"/>
<polygon fill="midnightblue" stroke="midnightblue" points="414.12,-30.31 413.55,-19.74 407.4,-28.37 414.12,-30.31"/>
</g>
<!-- Node18&#45;&gt;Node10 -->
<g id="edge32" class="edge">
<title>Node18&#45;&gt;Node10</title>
<path fill="none" stroke="midnightblue" d="M592.93,-224.44C663.39,-214.79 777.85,-199.1 852.15,-188.92"/>
<polygon fill="midnightblue" stroke="midnightblue" points="852.93,-192.34 862.36,-187.52 851.98,-185.41 852.93,-192.34"/>
</g>
<!-- Node26&#45;&gt;Node3 -->
<g id="edge58" class="edge">
<title>Node26&#45;&gt;Node3</title>
<path fill="none" stroke="midnightblue" d="M683.78,-708.24C498.71,-702.54 88.5,-660.84 88.5,-403 88.5,-403 88.5,-403 88.5,-121 88.5,-82.87 111.25,-74.67 144.5,-56 176.3,-38.13 266.66,-25.59 334.57,-18.36"/>
<polygon fill="midnightblue" stroke="midnightblue" points="335.26,-21.81 344.84,-17.29 334.53,-14.85 335.26,-21.81"/>
</g>
<!-- Node26&#45;&gt;Node9 -->
<g id="edge57" class="edge">
<title>Node26&#45;&gt;Node9</title>
<path fill="none" stroke="midnightblue" d="M861.34,-695.35C962.04,-680.44 1112.37,-658.15 1112.5,-658 1121.5,-647.57 1113.17,-640.76 1112.5,-627 1107.61,-527.09 1090.5,-503.03 1090.5,-403 1090.5,-403 1090.5,-403 1090.5,-233 1090.5,-188.89 1054.49,-188.62 1015.5,-168 960.23,-138.77 938.1,-153.81 879.5,-132 860.5,-124.93 857.29,-119.63 838.5,-112 806.27,-98.92 768.67,-86.78 741.02,-78.42"/>
<polygon fill="midnightblue" stroke="midnightblue" points="741.9,-75.03 731.32,-75.51 739.89,-81.73 741.9,-75.03"/>
</g>
<!-- Node27 -->
<g id="node27" class="node">
<title>Node27</title>
<g id="a_node27"><a xlink:href="../../d2/d3c/Arduino-Hardware-Types_8hpp.html" target="_top" xlink:title=" ">
<polygon fill="white" stroke="black" points="875.5,-627.5 875.5,-657.5 997.5,-657.5 997.5,-627.5 875.5,-627.5"/>
<text text-anchor="start" x="883.5" y="-645.5" font-family="Helvetica,sans-Serif" font-size="10.00">AH/Hardware/Arduino</text>
<text text-anchor="middle" x="936.5" y="-634.5" font-family="Helvetica,sans-Serif" font-size="10.00">&#45;Hardware&#45;Types.hpp</text>
</a>
</g>
</g>
<!-- Node26&#45;&gt;Node27 -->
<g id="edge47" class="edge">
<title>Node26&#45;&gt;Node27</title>
<path fill="none" stroke="midnightblue" d="M808.09,-694.4C832.59,-684.69 865.33,-671.71 891.62,-661.29"/>
<polygon fill="midnightblue" stroke="midnightblue" points="892.98,-664.51 900.98,-657.58 890.4,-658.01 892.98,-664.51"/>
</g>
<!-- Node31 -->
<g id="node31" class="node">
<title>Node31</title>
<g id="a_node31"><a xlink:title=" ">
<polygon fill="white" stroke="#bfbfbf" points="1016,-633 1016,-652 1103,-652 1103,-633 1016,-633"/>
<text text-anchor="middle" x="1059.5" y="-640" font-family="Helvetica,sans-Serif" font-size="10.00">AH/STL/climits</text>
</a>
</g>
</g>
<!-- Node26&#45;&gt;Node31 -->
<g id="edge56" class="edge">
<title>Node26&#45;&gt;Node31</title>
<path fill="none" stroke="midnightblue" d="M842.35,-694.46C888.99,-684.84 951.6,-671.42 1006.5,-658 1010.67,-656.98 1015.01,-655.87 1019.34,-654.74"/>
<polygon fill="midnightblue" stroke="midnightblue" points="1020.55,-658.03 1029.3,-652.07 1018.74,-651.27 1020.55,-658.03"/>
</g>
<!-- Node27&#45;&gt;Node3 -->
<g id="edge48" class="edge">
<title>Node27&#45;&gt;Node3</title>
<path fill="none" stroke="midnightblue" d="M981.39,-627.48C1001.47,-619.4 1024.22,-607.51 1040.5,-591 1105.27,-525.3 1128.5,-495.26 1128.5,-403 1128.5,-403 1128.5,-403 1128.5,-177 1128.5,-113.96 1108.37,-88.74 1054.5,-56 1008.11,-27.8 660.21,-16.42 498.59,-12.62"/>
<polygon fill="midnightblue" stroke="midnightblue" points="498.29,-9.12 488.21,-12.38 498.13,-16.11 498.29,-9.12"/>
</g>
<!-- Node27&#45;&gt;Node4 -->
<g id="edge49" class="edge">
<title>Node27&#45;&gt;Node4</title>
<path fill="none" stroke="midnightblue" d="M934.55,-627.4C933.46,-619.56 932.08,-609.6 930.83,-600.57"/>
<polygon fill="midnightblue" stroke="midnightblue" points="934.29,-600 929.45,-590.58 927.35,-600.96 934.29,-600"/>
</g>
<!-- Node27&#45;&gt;Node10 -->
<g id="edge55" class="edge">
<title>Node27&#45;&gt;Node10</title>
<path fill="none" stroke="midnightblue" d="M963.7,-627.35C997.98,-607.34 1052.5,-567.29 1052.5,-515 1052.5,-515 1052.5,-515 1052.5,-457 1052.5,-349.09 971.94,-237.42 938.64,-195.88"/>
<polygon fill="midnightblue" stroke="midnightblue" points="941.16,-193.43 932.12,-187.9 935.74,-197.86 941.16,-193.43"/>
</g>
<!-- Node28 -->
<g id="node28" class="node">
<title>Node28</title>
<g id="a_node28"><a xlink:href="../../d0/db1/FunctionTraits_8hpp.html" target="_top" xlink:title=" ">
<polygon fill="white" stroke="black" points="1157,-112.5 1157,-131.5 1310,-131.5 1310,-112.5 1157,-112.5"/>
<text text-anchor="middle" x="1233.5" y="-119.5" font-family="Helvetica,sans-Serif" font-size="10.00">AH/Types/FunctionTraits.hpp</text>
</a>
</g>
</g>
<!-- Node27&#45;&gt;Node28 -->
<g id="edge50" class="edge">
<title>Node27&#45;&gt;Node28</title>
<path fill="none" stroke="midnightblue" d="M997.91,-628.57C1038.93,-618.92 1088.24,-605.03 1104.5,-591 1153.58,-548.66 1166.5,-523.82 1166.5,-459 1166.5,-459 1166.5,-459 1166.5,-233 1166.5,-194.7 1196.49,-158.42 1216.34,-138.59"/>
<polygon fill="midnightblue" stroke="midnightblue" points="1218.83,-141.05 1223.61,-131.6 1213.98,-136 1218.83,-141.05"/>
</g>
<!-- Node28&#45;&gt;Node3 -->
<g id="edge53" class="edge">
<title>Node28&#45;&gt;Node3</title>
<path fill="none" stroke="midnightblue" d="M1220.66,-112.3C1198.24,-97.64 1149.99,-68.4 1104.5,-56 992.48,-25.48 655.17,-15.37 498.33,-12.27"/>
<polygon fill="midnightblue" stroke="midnightblue" points="498.33,-8.77 488.26,-12.07 498.19,-15.77 498.33,-8.77"/>
</g>
<!-- Node28&#45;&gt;Node9 -->
<g id="edge54" class="edge">
<title>Node28&#45;&gt;Node9</title>
<path fill="none" stroke="midnightblue" d="M1156.99,-113.23C1061.55,-103.55 898.4,-86.99 795.46,-76.54"/>
<polygon fill="midnightblue" stroke="midnightblue" points="795.69,-73.04 785.38,-75.51 794.98,-80.01 795.69,-73.04"/>
</g>
<!-- Node29 -->
<g id="node29" class="node">
<title>Node29</title>
<g id="a_node29"><a xlink:title=" ">
<polygon fill="white" stroke="#bfbfbf" points="1194.5,-56.5 1194.5,-75.5 1284.5,-75.5 1284.5,-56.5 1194.5,-56.5"/>
<text text-anchor="middle" x="1239.5" y="-63.5" font-family="Helvetica,sans-Serif" font-size="10.00">AH/STL/cstddef</text>
</a>
</g>
</g>
<!-- Node28&#45;&gt;Node29 -->
<g id="edge51" class="edge">
<title>Node28&#45;&gt;Node29</title>
<path fill="none" stroke="midnightblue" d="M1234.49,-112.08C1235.29,-104.93 1236.43,-94.64 1237.42,-85.69"/>
<polygon fill="midnightblue" stroke="midnightblue" points="1240.9,-86.08 1238.53,-75.75 1233.94,-85.3 1240.9,-86.08"/>
</g>
<!-- Node30 -->
<g id="node30" class="node">
<title>Node30</title>
<g id="a_node30"><a xlink:title=" ">
<polygon fill="white" stroke="#bfbfbf" points="1303,-56.5 1303,-75.5 1382,-75.5 1382,-56.5 1303,-56.5"/>
<text text-anchor="middle" x="1342.5" y="-63.5" font-family="Helvetica,sans-Serif" font-size="10.00">AH/STL/tuple</text>
</a>
</g>
</g>
<!-- Node28&#45;&gt;Node30 -->
<g id="edge52" class="edge">
<title>Node28&#45;&gt;Node30</title>
<path fill="none" stroke="midnightblue" d="M1251.01,-112.32C1268.57,-103.62 1295.83,-90.12 1316.03,-80.11"/>
<polygon fill="midnightblue" stroke="midnightblue" points="1317.62,-83.23 1325.03,-75.65 1314.52,-76.96 1317.62,-83.23"/>
</g>
</g>
</svg>
