<?xml version="1.0" encoding="UTF-8" standalone="no"?>
<!DOCTYPE svg PUBLIC "-//W3C//DTD SVG 1.1//EN"
 "http://www.w3.org/Graphics/SVG/1.1/DTD/svg11.dtd">
<!-- Generated by graphviz version 2.38.0 (20140413.2041)
 -->
<!-- Title: MCU::VULEDsCallback&lt; NumLEDs &gt; Pages: 1 -->
<svg width="138pt" height="751pt"
 viewBox="0.00 0.00 138.00 751.00" xmlns="http://www.w3.org/2000/svg" xmlns:xlink="http://www.w3.org/1999/xlink">
<g id="graph0" class="graph" transform="scale(1 1) rotate(0) translate(4 747)">
<title>MCU::VULEDsCallback&lt; NumLEDs &gt;</title>
<polygon fill="white" stroke="none" points="-4,4 -4,-747 134,-747 134,4 -4,4"/>
<!-- Node1 -->
<g id="node1" class="node"><title>Node1</title>
<g id="a_node1"><a xlink:title=" ">
<polygon fill="#bfbfbf" stroke="black" points="0,-0.5 0,-90.5 130,-90.5 130,-0.5 0,-0.5"/>
<text text-anchor="start" x="8" y="-78.5" font-family="Helvetica,sans-Serif" font-size="10.00">MCU::VULEDsCallback</text>
<text text-anchor="middle" x="65" y="-67.5" font-family="Helvetica,sans-Serif" font-size="10.00">&lt; NumLEDs &gt;</text>
<polyline fill="none" stroke="black" points="0,-60.5 130,-60.5 "/>
<text text-anchor="start" x="8" y="-48.5" font-family="Helvetica,sans-Serif" font-size="10.00">&#45; FLOOR_CORRECTION</text>
<polyline fill="none" stroke="black" points="0,-41.5 130,-41.5 "/>
<text text-anchor="start" x="8" y="-29.5" font-family="Helvetica,sans-Serif" font-size="10.00">+ VULEDsCallback()</text>
<text text-anchor="start" x="8" y="-18.5" font-family="Helvetica,sans-Serif" font-size="10.00">+ begin()</text>
<text text-anchor="start" x="8" y="-7.5" font-family="Helvetica,sans-Serif" font-size="10.00">+ update()</text>
</a>
</g>
</g>
<!-- Node2 -->
<g id="node2" class="node"><title>Node2</title>
<g id="a_node2"><a xlink:href="../../d9/d89/classAH_1_1DotBarDisplayLEDs.html" target="_top" xlink:title=" ">
<polygon fill="white" stroke="black" points="2.5,-138.5 2.5,-261.5 127.5,-261.5 127.5,-138.5 2.5,-138.5"/>
<text text-anchor="start" x="10.5" y="-249.5" font-family="Helvetica,sans-Serif" font-size="10.00">AH::DotBarDisplayLEDs</text>
<text text-anchor="middle" x="65" y="-238.5" font-family="Helvetica,sans-Serif" font-size="10.00">&lt; NumLEDs &gt;</text>
<polyline fill="none" stroke="black" points="2.5,-231.5 127.5,-231.5 "/>
<text text-anchor="start" x="10.5" y="-219.5" font-family="Helvetica,sans-Serif" font-size="10.00">&#45; mode</text>
<polyline fill="none" stroke="black" points="2.5,-212.5 127.5,-212.5 "/>
<text text-anchor="start" x="10.5" y="-200.5" font-family="Helvetica,sans-Serif" font-size="10.00">+ DotBarDisplayLEDs()</text>
<text text-anchor="start" x="10.5" y="-189.5" font-family="Helvetica,sans-Serif" font-size="10.00">+ display()</text>
<text text-anchor="start" x="10.5" y="-178.5" font-family="Helvetica,sans-Serif" font-size="10.00">+ display()</text>
<text text-anchor="start" x="10.5" y="-167.5" font-family="Helvetica,sans-Serif" font-size="10.00">+ setMode()</text>
<text text-anchor="start" x="10.5" y="-156.5" font-family="Helvetica,sans-Serif" font-size="10.00">+ dotMode()</text>
<text text-anchor="start" x="10.5" y="-145.5" font-family="Helvetica,sans-Serif" font-size="10.00">+ barMode()</text>
</a>
</g>
</g>
<!-- Node2&#45;&gt;Node1 -->
<g id="edge1" class="edge"><title>Node2&#45;&gt;Node1</title>
<path fill="none" stroke="#404040" d="M65,-138.29C65,-126.578 65,-114.356 65,-102.792"/>
<polygon fill="none" stroke="#404040" points="65.0001,-102.558 61,-96.5582 65,-90.5581 69,-96.5581 65.0001,-102.558"/>
<text text-anchor="middle" x="77.5" y="-112" font-family="Helvetica,sans-Serif" font-size="10.00"> &#45;leds</text>
</g>
<!-- Node3 -->
<g id="node3" class="node"><title>Node3</title>
<g id="a_node3"><a xlink:href="../../df/d06/classAH_1_1LEDs.html" target="_top" xlink:title="A class for collections of LEDs that can display ranges.">
<polygon fill="white" stroke="black" points="19.5,-299.5 19.5,-422.5 110.5,-422.5 110.5,-299.5 19.5,-299.5"/>
<text text-anchor="middle" x="65" y="-410.5" font-family="Helvetica,sans-Serif" font-size="10.00">AH::LEDs&lt; N &gt;</text>
<polyline fill="none" stroke="black" points="19.5,-403.5 110.5,-403.5 "/>
<text text-anchor="middle" x="65" y="-391.5" font-family="Helvetica,sans-Serif" font-size="10.00"> </text>
<polyline fill="none" stroke="black" points="19.5,-384.5 110.5,-384.5 "/>
<text text-anchor="start" x="27.5" y="-372.5" font-family="Helvetica,sans-Serif" font-size="10.00">+ LEDs()</text>
<text text-anchor="start" x="27.5" y="-361.5" font-family="Helvetica,sans-Serif" font-size="10.00">+ begin()</text>
<text text-anchor="start" x="27.5" y="-350.5" font-family="Helvetica,sans-Serif" font-size="10.00">+ displayRange()</text>
<text text-anchor="start" x="27.5" y="-339.5" font-family="Helvetica,sans-Serif" font-size="10.00">+ set()</text>
<text text-anchor="start" x="27.5" y="-328.5" font-family="Helvetica,sans-Serif" font-size="10.00">+ clear()</text>
<text text-anchor="start" x="27.5" y="-317.5" font-family="Helvetica,sans-Serif" font-size="10.00">+ displayDot()</text>
<text text-anchor="start" x="27.5" y="-306.5" font-family="Helvetica,sans-Serif" font-size="10.00">+ clear()</text>
</a>
</g>
</g>
<!-- Node3&#45;&gt;Node2 -->
<g id="edge2" class="edge"><title>Node3&#45;&gt;Node2</title>
<path fill="none" stroke="midnightblue" d="M65,-289.165C65,-279.987 65,-270.653 65,-261.66"/>
<polygon fill="none" stroke="midnightblue" points="61.5001,-289.435 65,-299.435 68.5001,-289.435 61.5001,-289.435"/>
</g>
<!-- Node4 -->
<g id="node4" class="node"><title>Node4</title>
<g id="a_node4"><a xlink:href="../../d0/d32/structAH_1_1Array.html" target="_top" xlink:title=" ">
<polygon fill="white" stroke="black" points="22,-470.5 22,-637.5 108,-637.5 108,-470.5 22,-470.5"/>
<text text-anchor="middle" x="65" y="-625.5" font-family="Helvetica,sans-Serif" font-size="10.00">AH::Array&lt; N &gt;</text>
<polyline fill="none" stroke="black" points="22,-618.5 108,-618.5 "/>
<text text-anchor="start" x="30" y="-606.5" font-family="Helvetica,sans-Serif" font-size="10.00">+ length</text>
<polyline fill="none" stroke="black" points="22,-599.5 108,-599.5 "/>
<text text-anchor="start" x="30" y="-587.5" font-family="Helvetica,sans-Serif" font-size="10.00">+ operator[]()</text>
<text text-anchor="start" x="30" y="-576.5" font-family="Helvetica,sans-Serif" font-size="10.00">+ operator[]()</text>
<text text-anchor="start" x="30" y="-565.5" font-family="Helvetica,sans-Serif" font-size="10.00">+ begin()</text>
<text text-anchor="start" x="30" y="-554.5" font-family="Helvetica,sans-Serif" font-size="10.00">+ begin()</text>
<text text-anchor="start" x="30" y="-543.5" font-family="Helvetica,sans-Serif" font-size="10.00">+ end()</text>
<text text-anchor="start" x="30" y="-532.5" font-family="Helvetica,sans-Serif" font-size="10.00">+ end()</text>
<text text-anchor="start" x="30" y="-521.5" font-family="Helvetica,sans-Serif" font-size="10.00">+ operator==()</text>
<text text-anchor="start" x="30" y="-510.5" font-family="Helvetica,sans-Serif" font-size="10.00">+ operator!=()</text>
<text text-anchor="start" x="30" y="-499.5" font-family="Helvetica,sans-Serif" font-size="10.00">+ slice()</text>
<text text-anchor="start" x="30" y="-488.5" font-family="Helvetica,sans-Serif" font-size="10.00">+ slice()</text>
<text text-anchor="start" x="30" y="-477.5" font-family="Helvetica,sans-Serif" font-size="10.00">+ cslice()</text>
</a>
</g>
</g>
<!-- Node4&#45;&gt;Node3 -->
<g id="edge3" class="edge"><title>Node4&#45;&gt;Node3</title>
<path fill="none" stroke="#404040" d="M65,-470.335C65,-458.563 65,-446.526 65,-434.957"/>
<polygon fill="none" stroke="#404040" points="65.0001,-434.621 61,-428.621 65,-422.621 69,-428.621 65.0001,-434.621"/>
<text text-anchor="middle" x="84.5" y="-444" font-family="Helvetica,sans-Serif" font-size="10.00"> &#45;ledPins</text>
</g>
<!-- Node5 -->
<g id="node5" class="node"><title>Node5</title>
<g id="a_node5"><a xlink:title=" ">
<polygon fill="white" stroke="#bfbfbf" points="50.5,-685.5 50.5,-742.5 79.5,-742.5 79.5,-685.5 50.5,-685.5"/>
<text text-anchor="middle" x="65" y="-730.5" font-family="Helvetica,sans-Serif" font-size="10.00">N</text>
<polyline fill="none" stroke="#bfbfbf" points="50.5,-723.5 79.5,-723.5 "/>
<text text-anchor="middle" x="65" y="-711.5" font-family="Helvetica,sans-Serif" font-size="10.00"> </text>
<polyline fill="none" stroke="#bfbfbf" points="50.5,-704.5 79.5,-704.5 "/>
<text text-anchor="middle" x="65" y="-692.5" font-family="Helvetica,sans-Serif" font-size="10.00"> </text>
</a>
</g>
</g>
<!-- Node5&#45;&gt;Node4 -->
<g id="edge4" class="edge"><title>Node5&#45;&gt;Node4</title>
<path fill="none" stroke="#404040" d="M65,-685.479C65,-675.122 65,-662.674 65,-649.634"/>
<polygon fill="none" stroke="#404040" points="65.0001,-649.536 61,-643.536 65,-637.536 69,-643.536 65.0001,-649.536"/>
<text text-anchor="middle" x="79" y="-659" font-family="Helvetica,sans-Serif" font-size="10.00"> +data</text>
</g>
</g>
</svg>
