<?xml version="1.0" encoding="UTF-8" standalone="no"?>
<!DOCTYPE svg PUBLIC "-//W3C//DTD SVG 1.1//EN"
 "http://www.w3.org/Graphics/SVG/1.1/DTD/svg11.dtd">
<!-- Generated by graphviz version 2.43.0 (0)
 -->
<!-- Title: BulkRX&lt; Derived, MessageTypeT, MaxPacketSizeV &gt; Pages: 1 -->
<svg width="414pt" height="602pt"
 viewBox="0.00 0.00 414.00 602.00" xmlns="http://www.w3.org/2000/svg" xmlns:xlink="http://www.w3.org/1999/xlink">
<g id="graph0" class="graph" transform="scale(1 1) rotate(0) translate(4 598)">
<title>BulkRX&lt; Derived, MessageTypeT, MaxPacketSizeV &gt;</title>
<!-- Node1 -->
<g id="Node000001" class="node">
<title>Node1</title>
<g id="a_Node000001"><a xlink:title="Receives Bulk packets (OUT for device mode, IN for host mode).">
<polygon fill="#999999" stroke="transparent" points="220.5,-225 75.5,-225 75.5,0 220.5,0 220.5,-225"/>
<text text-anchor="start" x="81" y="-212.5" font-family="Helvetica,sans-Serif" font-size="10.00">BulkRX&lt; Derived, Message</text>
<text text-anchor="start" x="85.5" y="-201.5" font-family="Helvetica,sans-Serif" font-size="10.00">TypeT, MaxPacketSizeV &gt;</text>
<text text-anchor="start" x="95" y="-186.5" font-family="Helvetica,sans-Serif" font-size="10.00">&#45;</text>
<text text-anchor="start" x="118" y="-186.5" font-family="Helvetica,sans-Serif" font-size="10.00">MaxPacketSize</text>
<text text-anchor="start" x="95" y="-171.5" font-family="Helvetica,sans-Serif" font-size="10.00">&#45;</text>
<text text-anchor="start" x="118" y="-171.5" font-family="Helvetica,sans-Serif" font-size="10.00">SizeReserved</text>
<text text-anchor="start" x="95" y="-156.5" font-family="Helvetica,sans-Serif" font-size="10.00">&#45;</text>
<text text-anchor="start" x="118" y="-156.5" font-family="Helvetica,sans-Serif" font-size="10.00">NumRxPackets</text>
<text text-anchor="start" x="95" y="-141.5" font-family="Helvetica,sans-Serif" font-size="10.00">&#45;</text>
<text text-anchor="start" x="118" y="-141.5" font-family="Helvetica,sans-Serif" font-size="10.00">mo_seq</text>
<text text-anchor="start" x="95" y="-126.5" font-family="Helvetica,sans-Serif" font-size="10.00">&#45;</text>
<text text-anchor="start" x="118" y="-126.5" font-family="Helvetica,sans-Serif" font-size="10.00">mo_rel</text>
<text text-anchor="start" x="95" y="-111.5" font-family="Helvetica,sans-Serif" font-size="10.00">&#45;</text>
<text text-anchor="start" x="118" y="-111.5" font-family="Helvetica,sans-Serif" font-size="10.00">mo_acq</text>
<text text-anchor="start" x="95" y="-96.5" font-family="Helvetica,sans-Serif" font-size="10.00">&#45;</text>
<text text-anchor="start" x="118" y="-96.5" font-family="Helvetica,sans-Serif" font-size="10.00">mo_rlx</text>
<text text-anchor="start" x="95" y="-81.5" font-family="Helvetica,sans-Serif" font-size="10.00">&#45;</text>
<text text-anchor="start" x="118" y="-81.5" font-family="Helvetica,sans-Serif" font-size="10.00">mo_acq_rel</text>
<text text-anchor="start" x="92.5" y="-66.5" font-family="Helvetica,sans-Serif" font-size="10.00">+</text>
<text text-anchor="start" x="118" y="-66.5" font-family="Helvetica,sans-Serif" font-size="10.00">read()</text>
<text text-anchor="start" x="92.5" y="-51.5" font-family="Helvetica,sans-Serif" font-size="10.00">#</text>
<text text-anchor="start" x="118" y="-51.5" font-family="Helvetica,sans-Serif" font-size="10.00">reset()</text>
<text text-anchor="start" x="92.5" y="-36.5" font-family="Helvetica,sans-Serif" font-size="10.00">#</text>
<text text-anchor="start" x="118" y="-36.5" font-family="Helvetica,sans-Serif" font-size="10.00">rx_start()</text>
<text text-anchor="start" x="92.5" y="-21.5" font-family="Helvetica,sans-Serif" font-size="10.00">#</text>
<text text-anchor="start" x="118" y="-21.5" font-family="Helvetica,sans-Serif" font-size="10.00">rx_start_isr()</text>
<text text-anchor="start" x="92.5" y="-6.5" font-family="Helvetica,sans-Serif" font-size="10.00">#</text>
<text text-anchor="start" x="118" y="-6.5" font-family="Helvetica,sans-Serif" font-size="10.00">rx_callback()</text>
<polygon fill="#666666" stroke="#666666" points="76,-196.5 76,-196.5 221,-196.5 221,-196.5 76,-196.5"/>
<polygon fill="#666666" stroke="#666666" points="76,-76.5 76,-76.5 116,-76.5 116,-76.5 76,-76.5"/>
<polygon fill="#666666" stroke="#666666" points="116,-76.5 116,-76.5 221,-76.5 221,-76.5 116,-76.5"/>
<polygon fill="none" stroke="#666666" points="75.5,0 75.5,-225 220.5,-225 220.5,0 75.5,0"/>
</a>
</g>
</g>
<!-- Node2 -->
<g id="Node000002" class="node">
<title>Node2</title>
<g id="a_Node000002"><a xlink:href="../../d2/da9/structBulkRX_1_1Reading.html" target="_top" xlink:title="State for reading incoming USB data.">
<polygon fill="white" stroke="transparent" points="187.5,-342 108.5,-342 108.5,-278 187.5,-278 187.5,-342"/>
<text text-anchor="start" x="128.5" y="-330" font-family="Helvetica,sans-Serif" font-size="10.00">Reading</text>
<text text-anchor="start" x="113" y="-315" font-family="Helvetica,sans-Serif" font-size="10.00">+</text>
<text text-anchor="start" x="126" y="-315" font-family="Helvetica,sans-Serif" font-size="10.00">read_idx</text>
<text text-anchor="start" x="113" y="-300" font-family="Helvetica,sans-Serif" font-size="10.00">+</text>
<text text-anchor="start" x="126" y="-300" font-family="Helvetica,sans-Serif" font-size="10.00">packet_size</text>
<text text-anchor="start" x="146.5" y="-285" font-family="Helvetica,sans-Serif" font-size="10.00"> </text>
<polygon fill="#666666" stroke="#666666" points="109,-325 109,-325 188,-325 188,-325 109,-325"/>
<polygon fill="#666666" stroke="#666666" points="109,-295 109,-295 124,-295 124,-295 109,-295"/>
<polygon fill="#666666" stroke="#666666" points="124,-295 124,-295 188,-295 188,-295 124,-295"/>
<polygon fill="none" stroke="#666666" points="108.5,-278 108.5,-342 187.5,-342 187.5,-278 108.5,-278"/>
</a>
</g>
</g>
<!-- Node2&#45;&gt;Node1 -->
<g id="edge1_Node000001_Node000002" class="edge">
<title>Node2&#45;&gt;Node1</title>
<g id="a_edge1_Node000001_Node000002"><a xlink:title=" ">
<path fill="none" stroke="#63b8ff" d="M148,-277.59C148,-266.01 148,-252.07 148,-237.28"/>
<polygon fill="none" stroke="#63b8ff" points="148,-237.26 144,-231.26 148,-225.26 152,-231.26 148,-237.26"/>
</a>
</g>
<text text-anchor="start" x="151.5" y="-248.5" font-family="Helvetica,sans-Serif" font-size="10.00" fill="grey">&#45;reading</text>
</g>
<!-- Node3 -->
<g id="Node000003" class="node">
<title>Node3</title>
<g id="a_Node000003"><a xlink:href="../../de/dc6/structBulkRX_1_1Reading_1_1Buffer.html" target="_top" xlink:title=" ">
<polygon fill="white" stroke="transparent" points="50,-541.5 0,-541.5 0,-462.5 50,-462.5 50,-541.5"/>
<text text-anchor="start" x="10" y="-529" font-family="Helvetica,sans-Serif" font-size="10.00">Buffer</text>
<text text-anchor="start" x="4" y="-514" font-family="Helvetica,sans-Serif" font-size="10.00">+</text>
<text text-anchor="start" x="17" y="-514" font-family="Helvetica,sans-Serif" font-size="10.00">size</text>
<text text-anchor="start" x="4" y="-499" font-family="Helvetica,sans-Serif" font-size="10.00">+</text>
<text text-anchor="start" x="17" y="-499" font-family="Helvetica,sans-Serif" font-size="10.00">index</text>
<text text-anchor="start" x="4" y="-484" font-family="Helvetica,sans-Serif" font-size="10.00">+</text>
<text text-anchor="start" x="17" y="-484" font-family="Helvetica,sans-Serif" font-size="10.00">buffer</text>
<text text-anchor="start" x="23" y="-469" font-family="Helvetica,sans-Serif" font-size="10.00"> </text>
<polygon fill="#666666" stroke="#666666" points="0,-524 0,-524 50,-524 50,-524 0,-524"/>
<polygon fill="#666666" stroke="#666666" points="0,-479 0,-479 15,-479 15,-479 0,-479"/>
<polygon fill="#666666" stroke="#666666" points="15,-479 15,-479 50,-479 50,-479 15,-479"/>
<polygon fill="none" stroke="#666666" points="0,-462.5 0,-541.5 50,-541.5 50,-462.5 0,-462.5"/>
</a>
</g>
</g>
<!-- Node3&#45;&gt;Node2 -->
<g id="edge2_Node000002_Node000003" class="edge">
<title>Node3&#45;&gt;Node2</title>
<g id="a_edge2_Node000002_Node000003"><a xlink:title=" ">
<path fill="none" stroke="#63b8ff" d="M36.87,-462.38C42.61,-445.81 50.18,-426.51 59,-410 71.91,-385.85 76.86,-380.51 95,-360 97.74,-356.9 100.65,-353.79 103.65,-350.72"/>
<polygon fill="none" stroke="#63b8ff" points="103.72,-350.65 105.17,-343.59 112.25,-342.21 110.8,-349.27 103.72,-350.65"/>
</a>
</g>
<text text-anchor="start" x="98.5" y="-373" font-family="Helvetica,sans-Serif" font-size="10.00" fill="grey">+buffers</text>
</g>
<!-- Node4 -->
<g id="Node000004" class="node">
<title>Node4</title>
<g id="a_Node000004"><a xlink:href="../../de/df5/classinterrupt__atomic.html" target="_top" xlink:title=" ">
<polygon fill="white" stroke="transparent" points="228,-594 68,-594 68,-410 228,-410 228,-594"/>
<text text-anchor="start" x="76" y="-582" font-family="Helvetica,sans-Serif" font-size="10.00">interrupt_atomic&lt; uint32_t &gt;</text>
<text text-anchor="start" x="74.5" y="-567" font-family="Helvetica,sans-Serif" font-size="10.00">&#45;</text>
<text text-anchor="start" x="85" y="-567" font-family="Helvetica,sans-Serif" font-size="10.00">value</text>
<text text-anchor="start" x="72" y="-552" font-family="Helvetica,sans-Serif" font-size="10.00">+</text>
<text text-anchor="start" x="85" y="-552" font-family="Helvetica,sans-Serif" font-size="10.00">interrupt_atomic()</text>
<text text-anchor="start" x="72" y="-537" font-family="Helvetica,sans-Serif" font-size="10.00">+</text>
<text text-anchor="start" x="85" y="-537" font-family="Helvetica,sans-Serif" font-size="10.00">load()</text>
<text text-anchor="start" x="72" y="-522" font-family="Helvetica,sans-Serif" font-size="10.00">+</text>
<text text-anchor="start" x="85" y="-522" font-family="Helvetica,sans-Serif" font-size="10.00">store()</text>
<text text-anchor="start" x="72" y="-507" font-family="Helvetica,sans-Serif" font-size="10.00">+</text>
<text text-anchor="start" x="85" y="-507" font-family="Helvetica,sans-Serif" font-size="10.00">exchange()</text>
<text text-anchor="start" x="72" y="-492" font-family="Helvetica,sans-Serif" font-size="10.00">+</text>
<text text-anchor="start" x="85" y="-492" font-family="Helvetica,sans-Serif" font-size="10.00">compare_exchange_strong()</text>
<text text-anchor="start" x="72" y="-477" font-family="Helvetica,sans-Serif" font-size="10.00">+</text>
<text text-anchor="start" x="85" y="-477" font-family="Helvetica,sans-Serif" font-size="10.00">compare_exchange_weak()</text>
<text text-anchor="start" x="72" y="-462" font-family="Helvetica,sans-Serif" font-size="10.00">+</text>
<text text-anchor="start" x="85" y="-462" font-family="Helvetica,sans-Serif" font-size="10.00">fetch_add()</text>
<text text-anchor="start" x="72" y="-447" font-family="Helvetica,sans-Serif" font-size="10.00">+</text>
<text text-anchor="start" x="85" y="-447" font-family="Helvetica,sans-Serif" font-size="10.00">fetch_sub()</text>
<text text-anchor="start" x="72" y="-432" font-family="Helvetica,sans-Serif" font-size="10.00">+</text>
<text text-anchor="start" x="85" y="-432" font-family="Helvetica,sans-Serif" font-size="10.00">after_load_fence()</text>
<text text-anchor="start" x="72" y="-417" font-family="Helvetica,sans-Serif" font-size="10.00">+</text>
<text text-anchor="start" x="85" y="-417" font-family="Helvetica,sans-Serif" font-size="10.00">before_store_fence()</text>
<polygon fill="#666666" stroke="#666666" points="68,-577 68,-577 228,-577 228,-577 68,-577"/>
<polygon fill="#666666" stroke="#666666" points="68,-562 68,-562 83,-562 83,-562 68,-562"/>
<polygon fill="#666666" stroke="#666666" points="83,-562 83,-562 228,-562 228,-562 83,-562"/>
<polygon fill="none" stroke="#666666" points="68,-410 68,-594 228,-594 228,-410 68,-410"/>
</a>
</g>
</g>
<!-- Node4&#45;&gt;Node2 -->
<g id="edge3_Node000002_Node000004" class="edge">
<title>Node4&#45;&gt;Node2</title>
<g id="a_edge3_Node000002_Node000004"><a xlink:title=" ">
<path fill="none" stroke="#63b8ff" d="M148,-409.9C148,-390.47 148,-370.82 148,-354.21"/>
<polygon fill="none" stroke="#63b8ff" points="148,-354.16 144,-348.16 148,-342.16 152,-348.16 148,-354.16"/>
</a>
</g>
<text text-anchor="start" x="151" y="-381" font-family="Helvetica,sans-Serif" font-size="10.00" fill="grey">+available</text>
<text text-anchor="start" x="151" y="-366" font-family="Helvetica,sans-Serif" font-size="10.00" fill="grey">+write_idx</text>
</g>
<!-- Node5 -->
<g id="Node000005" class="node">
<title>Node5</title>
<g id="a_Node000005"><a xlink:href="../../de/df5/classinterrupt__atomic.html" target="_top" xlink:title=" ">
<polygon fill="white" stroke="transparent" points="406,-594 246,-594 246,-410 406,-410 406,-594"/>
<text text-anchor="start" x="263.5" y="-582" font-family="Helvetica,sans-Serif" font-size="10.00">interrupt_atomic&lt; bool &gt;</text>
<text text-anchor="start" x="252.5" y="-567" font-family="Helvetica,sans-Serif" font-size="10.00">&#45;</text>
<text text-anchor="start" x="263" y="-567" font-family="Helvetica,sans-Serif" font-size="10.00">value</text>
<text text-anchor="start" x="250" y="-552" font-family="Helvetica,sans-Serif" font-size="10.00">+</text>
<text text-anchor="start" x="263" y="-552" font-family="Helvetica,sans-Serif" font-size="10.00">interrupt_atomic()</text>
<text text-anchor="start" x="250" y="-537" font-family="Helvetica,sans-Serif" font-size="10.00">+</text>
<text text-anchor="start" x="263" y="-537" font-family="Helvetica,sans-Serif" font-size="10.00">load()</text>
<text text-anchor="start" x="250" y="-522" font-family="Helvetica,sans-Serif" font-size="10.00">+</text>
<text text-anchor="start" x="263" y="-522" font-family="Helvetica,sans-Serif" font-size="10.00">store()</text>
<text text-anchor="start" x="250" y="-507" font-family="Helvetica,sans-Serif" font-size="10.00">+</text>
<text text-anchor="start" x="263" y="-507" font-family="Helvetica,sans-Serif" font-size="10.00">exchange()</text>
<text text-anchor="start" x="250" y="-492" font-family="Helvetica,sans-Serif" font-size="10.00">+</text>
<text text-anchor="start" x="263" y="-492" font-family="Helvetica,sans-Serif" font-size="10.00">compare_exchange_strong()</text>
<text text-anchor="start" x="250" y="-477" font-family="Helvetica,sans-Serif" font-size="10.00">+</text>
<text text-anchor="start" x="263" y="-477" font-family="Helvetica,sans-Serif" font-size="10.00">compare_exchange_weak()</text>
<text text-anchor="start" x="250" y="-462" font-family="Helvetica,sans-Serif" font-size="10.00">+</text>
<text text-anchor="start" x="263" y="-462" font-family="Helvetica,sans-Serif" font-size="10.00">fetch_add()</text>
<text text-anchor="start" x="250" y="-447" font-family="Helvetica,sans-Serif" font-size="10.00">+</text>
<text text-anchor="start" x="263" y="-447" font-family="Helvetica,sans-Serif" font-size="10.00">fetch_sub()</text>
<text text-anchor="start" x="250" y="-432" font-family="Helvetica,sans-Serif" font-size="10.00">+</text>
<text text-anchor="start" x="263" y="-432" font-family="Helvetica,sans-Serif" font-size="10.00">after_load_fence()</text>
<text text-anchor="start" x="250" y="-417" font-family="Helvetica,sans-Serif" font-size="10.00">+</text>
<text text-anchor="start" x="263" y="-417" font-family="Helvetica,sans-Serif" font-size="10.00">before_store_fence()</text>
<polygon fill="#666666" stroke="#666666" points="246,-577 246,-577 406,-577 406,-577 246,-577"/>
<polygon fill="#666666" stroke="#666666" points="246,-562 246,-562 261,-562 261,-562 246,-562"/>
<polygon fill="#666666" stroke="#666666" points="261,-562 261,-562 406,-562 406,-562 261,-562"/>
<polygon fill="none" stroke="#666666" points="246,-410 246,-594 406,-594 406,-410 246,-410"/>
</a>
</g>
</g>
<!-- Node5&#45;&gt;Node2 -->
<g id="edge4_Node000002_Node000005" class="edge">
<title>Node5&#45;&gt;Node2</title>
<g id="a_edge4_Node000002_Node000005"><a xlink:title=" ">
<path fill="none" stroke="#63b8ff" d="M257.6,-409.84C243.24,-392.63 227.67,-375.26 212,-360 207.36,-355.48 202.31,-351 197.15,-346.69"/>
<polygon fill="none" stroke="#63b8ff" points="197.13,-346.67 189.95,-346.01 187.8,-339.13 194.98,-339.79 197.13,-346.67"/>
</a>
</g>
<text text-anchor="start" x="242" y="-373" font-family="Helvetica,sans-Serif" font-size="10.00" fill="grey">+reading</text>
</g>
</g>
</svg>
