<?xml version="1.0" encoding="UTF-8" standalone="no"?>
<!DOCTYPE svg PUBLIC "-//W3C//DTD SVG 1.1//EN"
 "http://www.w3.org/Graphics/SVG/1.1/DTD/svg11.dtd">
<!-- Generated by graphviz version 2.43.0 (0)
 -->
<!-- Title: SerialMIDI_Parser.hpp Pages: 1 -->
<svg width="1133pt" height="863pt"
 viewBox="0.00 0.00 1133.00 863.00" xmlns="http://www.w3.org/2000/svg" xmlns:xlink="http://www.w3.org/1999/xlink">
<g id="graph0" class="graph" transform="scale(1 1) rotate(0) translate(4 859)">
<title>SerialMIDI_Parser.hpp</title>
<!-- Node1 -->
<g id="Node000001" class="node">
<title>Node1</title>
<g id="a_Node000001"><a xlink:title=" ">
<polygon fill="#999999" stroke="#666666" points="729,-855 607,-855 607,-836 729,-836 729,-855"/>
<text text-anchor="middle" x="668" y="-843" font-family="Helvetica,sans-Serif" font-size="10.00">SerialMIDI_Parser.hpp</text>
</a>
</g>
</g>
<!-- Node2 -->
<g id="Node000002" class="node">
<title>Node2</title>
<g id="a_Node000002"><a xlink:href="../../d7/d2d/MIDI__Parser_8hpp.html" target="_top" xlink:title=" ">
<polygon fill="white" stroke="#666666" points="659.5,-800 564.5,-800 564.5,-781 659.5,-781 659.5,-800"/>
<text text-anchor="middle" x="612" y="-788" font-family="Helvetica,sans-Serif" font-size="10.00">MIDI_Parser.hpp</text>
</a>
</g>
</g>
<!-- Node1&#45;&gt;Node2 -->
<g id="edge1_Node000001_Node000002" class="edge">
<title>Node1&#45;&gt;Node2</title>
<g id="a_edge1_Node000001_Node000002"><a xlink:title=" ">
<path fill="none" stroke="#63b8ff" d="M659,-835.98C650.81,-828.23 638.49,-816.58 628.53,-807.14"/>
<polygon fill="#63b8ff" stroke="#63b8ff" points="630.83,-804.5 621.16,-800.17 626.02,-809.59 630.83,-804.5"/>
</a>
</g>
</g>
<!-- Node37 -->
<g id="Node000037" class="node">
<title>Node37</title>
<g id="a_Node000037"><a xlink:href="../../d0/dbb/SysExBuffer_8hpp.html" target="_top" xlink:title=" ">
<polygon fill="white" stroke="#666666" points="910.5,-800 815.5,-800 815.5,-781 910.5,-781 910.5,-800"/>
<text text-anchor="middle" x="863" y="-788" font-family="Helvetica,sans-Serif" font-size="10.00">SysExBuffer.hpp</text>
</a>
</g>
</g>
<!-- Node1&#45;&gt;Node37 -->
<g id="edge66_Node000001_Node000037" class="edge">
<title>Node1&#45;&gt;Node37</title>
<g id="a_edge66_Node000001_Node000037"><a xlink:title=" ">
<path fill="none" stroke="#63b8ff" d="M699.33,-835.98C732.49,-826.97 785,-812.7 821.56,-802.76"/>
<polygon fill="#63b8ff" stroke="#63b8ff" points="822.69,-806.08 831.42,-800.08 820.86,-799.33 822.69,-806.08"/>
</a>
</g>
</g>
<!-- Node3 -->
<g id="Node000003" class="node">
<title>Node3</title>
<g id="a_Node000003"><a xlink:title=" ">
<polygon fill="#e0e0e0" stroke="#999999" points="575,-239 519,-239 519,-220 575,-220 575,-239"/>
<text text-anchor="middle" x="547" y="-227" font-family="Helvetica,sans-Serif" font-size="10.00">stddef.h</text>
</a>
</g>
</g>
<!-- Node2&#45;&gt;Node3 -->
<g id="edge2_Node000002_Node000003" class="edge">
<title>Node2&#45;&gt;Node3</title>
<g id="a_edge2_Node000002_Node000003"><a xlink:title=" ">
<path fill="none" stroke="#63b8ff" d="M564.25,-789.21C439.6,-787.17 114,-773.06 114,-681.5 114,-681.5 114,-681.5 114,-564 114,-553.51 123.74,-554.93 133,-550 239.24,-493.48 286.6,-523.8 388,-459 445.73,-422.1 457.81,-405.88 496,-349 517.87,-316.43 533.69,-272.95 541.5,-248.74"/>
<polygon fill="#63b8ff" stroke="#63b8ff" points="544.88,-249.67 544.52,-239.08 538.19,-247.58 544.88,-249.67"/>
</a>
</g>
</g>
<!-- Node4 -->
<g id="Node000004" class="node">
<title>Node4</title>
<g id="a_Node000004"><a xlink:title=" ">
<polygon fill="#e0e0e0" stroke="#999999" points="140.5,-239 87.5,-239 87.5,-220 140.5,-220 140.5,-239"/>
<text text-anchor="middle" x="114" y="-227" font-family="Helvetica,sans-Serif" font-size="10.00">stdint.h</text>
</a>
</g>
</g>
<!-- Node2&#45;&gt;Node4 -->
<g id="edge3_Node000002_Node000004" class="edge">
<title>Node2&#45;&gt;Node4</title>
<g id="a_edge3_Node000002_Node000004"><a xlink:title=" ">
<path fill="none" stroke="#63b8ff" d="M564.31,-787.6C461.5,-783.08 222.04,-770.13 145,-745 92.43,-727.85 38,-736.8 38,-681.5 38,-681.5 38,-681.5 38,-338.5 38,-299.47 71.61,-264.58 94.13,-245.6"/>
<polygon fill="#63b8ff" stroke="#63b8ff" points="96.56,-248.14 102.12,-239.12 92.15,-242.7 96.56,-248.14"/>
</a>
</g>
</g>
<!-- Node5 -->
<g id="Node000005" class="node">
<title>Node5</title>
<g id="a_Node000005"><a xlink:title=" ">
<polygon fill="#e0e0e0" stroke="#999999" points="666.5,-745 613.5,-745 613.5,-726 666.5,-726 666.5,-745"/>
<text text-anchor="middle" x="640" y="-733" font-family="Helvetica,sans-Serif" font-size="10.00">stdlib.h</text>
</a>
</g>
</g>
<!-- Node2&#45;&gt;Node5 -->
<g id="edge4_Node000002_Node000005" class="edge">
<title>Node2&#45;&gt;Node5</title>
<g id="a_edge4_Node000002_Node000005"><a xlink:title=" ">
<path fill="none" stroke="#63b8ff" d="M616.62,-780.75C620.46,-773.49 626.02,-762.95 630.76,-753.98"/>
<polygon fill="#63b8ff" stroke="#63b8ff" points="633.89,-755.57 635.46,-745.09 627.7,-752.3 633.89,-755.57"/>
</a>
</g>
</g>
<!-- Node6 -->
<g id="Node000006" class="node">
<title>Node6</title>
<g id="a_Node000006"><a xlink:href="../../d0/d4e/Def_8hpp.html" target="_top" xlink:title=" ">
<polygon fill="white" stroke="#666666" points="618,-635 544,-635 544,-616 618,-616 618,-635"/>
<text text-anchor="middle" x="581" y="-623" font-family="Helvetica,sans-Serif" font-size="10.00">Def/Def.hpp</text>
</a>
</g>
</g>
<!-- Node2&#45;&gt;Node6 -->
<g id="edge5_Node000002_Node000006" class="edge">
<title>Node2&#45;&gt;Node6</title>
<g id="a_edge5_Node000002_Node000006"><a xlink:title=" ">
<path fill="none" stroke="#63b8ff" d="M600.07,-780.8C590.17,-772.77 576.81,-759.87 571,-745 557.91,-711.48 567.28,-668.67 574.6,-644.76"/>
<polygon fill="#63b8ff" stroke="#63b8ff" points="577.94,-645.8 577.72,-635.21 571.29,-643.62 577.94,-645.8"/>
</a>
</g>
</g>
<!-- Node31 -->
<g id="Node000031" class="node">
<title>Node31</title>
<g id="a_Node000031"><a xlink:title=" ">
<polygon fill="#e0e0e0" stroke="#999999" points="1081.5,-745 920.5,-745 920.5,-726 1081.5,-726 1081.5,-745"/>
<text text-anchor="middle" x="1001" y="-733" font-family="Helvetica,sans-Serif" font-size="10.00">Settings/SettingsWrapper.hpp</text>
</a>
</g>
</g>
<!-- Node2&#45;&gt;Node31 -->
<g id="edge51_Node000002_Node000031" class="edge">
<title>Node2&#45;&gt;Node31</title>
<g id="a_edge51_Node000002_Node000031"><a xlink:title=" ">
<path fill="none" stroke="#63b8ff" d="M659.7,-783C726.78,-773.86 849.57,-757.13 928.13,-746.43"/>
<polygon fill="#63b8ff" stroke="#63b8ff" points="929,-749.84 938.43,-745.02 928.05,-742.91 929,-749.84"/>
</a>
</g>
</g>
<!-- Node32 -->
<g id="Node000032" class="node">
<title>Node32</title>
<g id="a_Node000032"><a xlink:href="../../d1/d70/MIDIReadEvent_8hpp.html" target="_top" xlink:title=" ">
<polygon fill="white" stroke="#666666" points="770.5,-404 657.5,-404 657.5,-385 770.5,-385 770.5,-404"/>
<text text-anchor="middle" x="714" y="-392" font-family="Helvetica,sans-Serif" font-size="10.00">MIDIReadEvent.hpp</text>
</a>
</g>
</g>
<!-- Node2&#45;&gt;Node32 -->
<g id="edge52_Node000002_Node000032" class="edge">
<title>Node2&#45;&gt;Node32</title>
<g id="a_edge52_Node000002_Node000032"><a xlink:title=" ">
<path fill="none" stroke="#63b8ff" d="M609.36,-780.93C603.69,-761.07 591.79,-710.61 604,-671 607.6,-659.31 660.94,-591.14 666,-580 692.07,-522.6 705.92,-448.48 711.3,-414.3"/>
<polygon fill="#63b8ff" stroke="#63b8ff" points="714.77,-414.73 712.8,-404.32 707.85,-413.68 714.77,-414.73"/>
</a>
</g>
</g>
<!-- Node33 -->
<g id="Node000033" class="node">
<title>Node33</title>
<g id="a_Node000033"><a xlink:href="../../dc/d40/MIDI__MessageTypes_8hpp.html" target="_top" xlink:title=" ">
<polygon fill="white" stroke="#666666" points="902.5,-745 765.5,-745 765.5,-726 902.5,-726 902.5,-745"/>
<text text-anchor="middle" x="834" y="-733" font-family="Helvetica,sans-Serif" font-size="10.00">MIDI_MessageTypes.hpp</text>
</a>
</g>
</g>
<!-- Node2&#45;&gt;Node33 -->
<g id="edge56_Node000002_Node000033" class="edge">
<title>Node2&#45;&gt;Node33</title>
<g id="a_edge56_Node000002_Node000033"><a xlink:title=" ">
<path fill="none" stroke="#63b8ff" d="M647.67,-780.98C685.83,-771.87 746.47,-757.4 788.15,-747.45"/>
<polygon fill="#63b8ff" stroke="#63b8ff" points="789.14,-750.81 798.05,-745.08 787.51,-744 789.14,-750.81"/>
</a>
</g>
</g>
<!-- Node6&#45;&gt;Node3 -->
<g id="edge49_Node000006_Node000003" class="edge">
<title>Node6&#45;&gt;Node3</title>
<g id="a_edge49_Node000006_Node000003"><a xlink:title=" ">
<path fill="none" stroke="#63b8ff" d="M577.14,-615.85C573.44,-607.04 568.11,-592.87 566,-580 563.84,-566.84 563.32,-563.06 566,-550 580.91,-477.36 629,-469.66 629,-395.5 629,-395.5 629,-395.5 629,-338.5 629,-298.45 592.79,-263.94 568.5,-245.29"/>
<polygon fill="#63b8ff" stroke="#63b8ff" points="570.3,-242.27 560.17,-239.16 566.15,-247.91 570.3,-242.27"/>
</a>
</g>
</g>
<!-- Node6&#45;&gt;Node4 -->
<g id="edge50_Node000006_Node000004" class="edge">
<title>Node6&#45;&gt;Node4</title>
<g id="a_edge50_Node000006_Node000004"><a xlink:title=" ">
<path fill="none" stroke="#63b8ff" d="M558.34,-616C504.13,-594.96 364.17,-536.54 266,-459 191.42,-400.1 170.29,-380.07 130,-294 123.29,-279.67 119.15,-262.14 116.76,-249.14"/>
<polygon fill="#63b8ff" stroke="#63b8ff" points="120.18,-248.36 115.1,-239.07 113.27,-249.5 120.18,-248.36"/>
</a>
</g>
</g>
<!-- Node7 -->
<g id="Node000007" class="node">
<title>Node7</title>
<g id="a_Node000007"><a xlink:href="../../d2/dbc/Cable_8hpp.html" target="_top" xlink:title=" ">
<polygon fill="white" stroke="#666666" points="1057.5,-514 992.5,-514 992.5,-495 1057.5,-495 1057.5,-514"/>
<text text-anchor="middle" x="1025" y="-502" font-family="Helvetica,sans-Serif" font-size="10.00">Cable.hpp</text>
</a>
</g>
</g>
<!-- Node6&#45;&gt;Node7 -->
<g id="edge6_Node000006_Node000007" class="edge">
<title>Node6&#45;&gt;Node7</title>
<g id="a_edge6_Node000006_Node000007"><a xlink:title=" ">
<path fill="none" stroke="#63b8ff" d="M618.13,-616.51C656.73,-608.05 718.83,-594.01 772,-580 849.3,-559.63 938.83,-532.4 987.96,-517.13"/>
<polygon fill="#63b8ff" stroke="#63b8ff" points="989.31,-520.38 997.81,-514.06 987.23,-513.7 989.31,-520.38"/>
</a>
</g>
</g>
<!-- Node15 -->
<g id="Node000015" class="node">
<title>Node15</title>
<g id="a_Node000015"><a xlink:title=" ">
<polygon fill="#e0e0e0" stroke="#999999" points="1004,-294 826,-294 826,-275 1004,-275 1004,-294"/>
<text text-anchor="middle" x="915" y="-282" font-family="Helvetica,sans-Serif" font-size="10.00">Settings/NamespaceSettings.hpp</text>
</a>
</g>
</g>
<!-- Node6&#45;&gt;Node15 -->
<g id="edge48_Node000006_Node000015" class="edge">
<title>Node6&#45;&gt;Node15</title>
<g id="a_edge48_Node000006_Node000015"><a xlink:title=" ">
<path fill="none" stroke="#63b8ff" d="M602.57,-615.9C620.58,-608.1 646.39,-595.49 666,-580 776.09,-493.05 872.78,-351.14 904.25,-302.49"/>
<polygon fill="#63b8ff" stroke="#63b8ff" points="907.21,-304.36 909.66,-294.05 901.32,-300.58 907.21,-304.36"/>
</a>
</g>
</g>
<!-- Node16 -->
<g id="Node000016" class="node">
<title>Node16</title>
<g id="a_Node000016"><a xlink:href="../../d7/d42/Channel_8hpp.html" target="_top" xlink:title=" ">
<polygon fill="white" stroke="#666666" points="973.5,-514 896.5,-514 896.5,-495 973.5,-495 973.5,-514"/>
<text text-anchor="middle" x="935" y="-502" font-family="Helvetica,sans-Serif" font-size="10.00">Channel.hpp</text>
</a>
</g>
</g>
<!-- Node6&#45;&gt;Node16 -->
<g id="edge17_Node000006_Node000016" class="edge">
<title>Node6&#45;&gt;Node16</title>
<g id="a_edge17_Node000006_Node000016"><a xlink:title=" ">
<path fill="none" stroke="#63b8ff" d="M606.46,-615.94C668.56,-595.07 827.96,-541.48 899.41,-517.46"/>
<polygon fill="#63b8ff" stroke="#63b8ff" points="900.93,-520.64 909.3,-514.14 898.7,-514.01 900.93,-520.64"/>
</a>
</g>
</g>
<!-- Node17 -->
<g id="Node000017" class="node">
<title>Node17</title>
<g id="a_Node000017"><a xlink:href="../../de/d76/Array_8hpp.html" target="_top" xlink:title=" ">
<polygon fill="white" stroke="#666666" points="561.5,-514 426.5,-514 426.5,-495 561.5,-495 561.5,-514"/>
<text text-anchor="middle" x="494" y="-502" font-family="Helvetica,sans-Serif" font-size="10.00">AH/Containers/Array.hpp</text>
</a>
</g>
</g>
<!-- Node6&#45;&gt;Node17 -->
<g id="edge20_Node000006_Node000017" class="edge">
<title>Node6&#45;&gt;Node17</title>
<g id="a_edge20_Node000006_Node000017"><a xlink:title=" ">
<path fill="none" stroke="#63b8ff" d="M569.68,-615.88C559.24,-607.53 543.77,-594.08 533,-580 519.6,-562.47 508.43,-539.68 501.53,-523.94"/>
<polygon fill="#63b8ff" stroke="#63b8ff" points="504.58,-522.17 497.45,-514.33 498.13,-524.9 504.58,-522.17"/>
</a>
</g>
</g>
<!-- Node29 -->
<g id="Node000029" class="node">
<title>Node29</title>
<g id="a_Node000029"><a xlink:href="../../d4/d35/Hardware-Types_8hpp.html" target="_top" xlink:title=" ">
<polygon fill="white" stroke="#666666" points="273.5,-580 142.5,-580 142.5,-550 273.5,-550 273.5,-580"/>
<text text-anchor="start" x="150.5" y="-568" font-family="Helvetica,sans-Serif" font-size="10.00">AH/Hardware/Hardware</text>
<text text-anchor="middle" x="208" y="-557" font-family="Helvetica,sans-Serif" font-size="10.00">&#45;Types.hpp</text>
</a>
</g>
</g>
<!-- Node6&#45;&gt;Node29 -->
<g id="edge43_Node000006_Node000029" class="edge">
<title>Node6&#45;&gt;Node29</title>
<g id="a_edge43_Node000006_Node000029"><a xlink:title=" ">
<path fill="none" stroke="#63b8ff" d="M543.96,-619.15C488.32,-611.05 379.91,-595.02 288,-580 286.71,-579.79 285.41,-579.57 284.09,-579.36"/>
<polygon fill="#63b8ff" stroke="#63b8ff" points="284.34,-575.85 273.9,-577.65 283.19,-582.76 284.34,-575.85"/>
</a>
</g>
</g>
<!-- Node30 -->
<g id="Node000030" class="node">
<title>Node30</title>
<g id="a_Node000030"><a xlink:title=" ">
<polygon fill="#e0e0e0" stroke="#999999" points="657,-574.5 575,-574.5 575,-555.5 657,-555.5 657,-574.5"/>
<text text-anchor="middle" x="616" y="-562.5" font-family="Helvetica,sans-Serif" font-size="10.00">AH/STL/limits</text>
</a>
</g>
</g>
<!-- Node6&#45;&gt;Node30 -->
<g id="edge47_Node000006_Node000030" class="edge">
<title>Node6&#45;&gt;Node30</title>
<g id="a_edge47_Node000006_Node000030"><a xlink:title=" ">
<path fill="none" stroke="#63b8ff" d="M586.16,-615.87C591.23,-607.4 599.1,-594.24 605.49,-583.57"/>
<polygon fill="#63b8ff" stroke="#63b8ff" points="608.68,-585.05 610.81,-574.67 602.68,-581.45 608.68,-585.05"/>
</a>
</g>
</g>
<!-- Node8 -->
<g id="Node000008" class="node">
<title>Node8</title>
<g id="a_Node000008"><a xlink:href="../../d6/ddf/Arduino-Wrapper_8h.html" target="_top" xlink:title=" ">
<polygon fill="white" stroke="#666666" points="848,-184 724,-184 724,-165 848,-165 848,-184"/>
<text text-anchor="middle" x="786" y="-172" font-family="Helvetica,sans-Serif" font-size="10.00">AH/Arduino&#45;Wrapper.h</text>
</a>
</g>
</g>
<!-- Node7&#45;&gt;Node8 -->
<g id="edge7_Node000007_Node000008" class="edge">
<title>Node7&#45;&gt;Node8</title>
<g id="a_edge7_Node000007_Node000008"><a xlink:title=" ">
<path fill="none" stroke="#63b8ff" d="M1034.15,-494.94C1051.39,-477.84 1087,-437.44 1087,-395.5 1087,-395.5 1087,-395.5 1087,-283.5 1087,-248.91 1071.25,-238.47 1042,-220 1012.13,-201.14 922.99,-188.7 858.28,-181.88"/>
<polygon fill="#63b8ff" stroke="#63b8ff" points="858.42,-178.38 848.12,-180.84 857.71,-185.34 858.42,-178.38"/>
</a>
</g>
</g>
<!-- Node7&#45;&gt;Node15 -->
<g id="edge16_Node000007_Node000015" class="edge">
<title>Node7&#45;&gt;Node15</title>
<g id="a_edge16_Node000007_Node000015"><a xlink:title=" ">
<path fill="none" stroke="#63b8ff" d="M1019.1,-494.82C1013.2,-485.99 1004.02,-471.81 997,-459 966.78,-403.88 936.56,-335.77 922.76,-303.75"/>
<polygon fill="#63b8ff" stroke="#63b8ff" points="925.89,-302.16 918.73,-294.35 919.45,-304.92 925.89,-302.16"/>
</a>
</g>
</g>
<!-- Node9 -->
<g id="Node000009" class="node">
<title>Node9</title>
<g id="a_Node000009"><a xlink:href="../../d7/d79/MinMaxFix_8hpp.html" target="_top" xlink:title=" ">
<polygon fill="white" stroke="#666666" points="843,-129 707,-129 707,-110 843,-110 843,-129"/>
<text text-anchor="middle" x="775" y="-117" font-family="Helvetica,sans-Serif" font-size="10.00">AH/Math/MinMaxFix.hpp</text>
</a>
</g>
</g>
<!-- Node8&#45;&gt;Node9 -->
<g id="edge8_Node000008_Node000009" class="edge">
<title>Node8&#45;&gt;Node9</title>
<g id="a_edge8_Node000008_Node000009"><a xlink:title=" ">
<path fill="none" stroke="#63b8ff" d="M784.18,-164.75C782.74,-157.8 780.68,-147.85 778.87,-139.13"/>
<polygon fill="#63b8ff" stroke="#63b8ff" points="782.24,-138.17 776.78,-129.09 775.39,-139.59 782.24,-138.17"/>
</a>
</g>
</g>
<!-- Node12 -->
<g id="Node000012" class="node">
<title>Node12</title>
<g id="a_Node000012"><a xlink:title=" ">
<polygon fill="#e0e0e0" stroke="#999999" points="845.5,-19 782.5,-19 782.5,0 845.5,0 845.5,-19"/>
<text text-anchor="middle" x="814" y="-7" font-family="Helvetica,sans-Serif" font-size="10.00">Arduino.h</text>
</a>
</g>
</g>
<!-- Node8&#45;&gt;Node12 -->
<g id="edge15_Node000008_Node000012" class="edge">
<title>Node8&#45;&gt;Node12</title>
<g id="a_edge15_Node000008_Node000012"><a xlink:title=" ">
<path fill="none" stroke="#63b8ff" d="M808.78,-164.89C824.03,-157.79 842.92,-146.08 852,-129 867.44,-99.96 863.38,-85.86 852,-55 847.94,-43.99 839.81,-33.86 832.1,-26.05"/>
<polygon fill="#63b8ff" stroke="#63b8ff" points="834.39,-23.39 824.71,-19.07 829.58,-28.48 834.39,-23.39"/>
</a>
</g>
</g>
<!-- Node14 -->
<g id="Node000014" class="node">
<title>Node14</title>
<g id="a_Node000014"><a xlink:title=" ">
<polygon fill="#e0e0e0" stroke="#999999" points="650.5,-129 543.5,-129 543.5,-110 650.5,-110 650.5,-129"/>
<text text-anchor="middle" x="597" y="-117" font-family="Helvetica,sans-Serif" font-size="10.00">AH/STL/type_traits</text>
</a>
</g>
</g>
<!-- Node8&#45;&gt;Node14 -->
<g id="edge14_Node000008_Node000014" class="edge">
<title>Node8&#45;&gt;Node14</title>
<g id="a_edge14_Node000008_Node000014"><a xlink:title=" ">
<path fill="none" stroke="#63b8ff" d="M755.63,-164.98C723.63,-156.01 673.04,-141.82 637.62,-131.89"/>
<polygon fill="#63b8ff" stroke="#63b8ff" points="638.18,-128.41 627.6,-129.08 636.29,-135.15 638.18,-128.41"/>
</a>
</g>
</g>
<!-- Node10 -->
<g id="Node000010" class="node">
<title>Node10</title>
<g id="a_Node000010"><a xlink:href="../../d6/d3b/FixArduinoMacros_8hpp.html" target="_top" xlink:title=" ">
<polygon fill="white" stroke="#666666" points="843,-74 673,-74 673,-55 843,-55 843,-74"/>
<text text-anchor="middle" x="758" y="-62" font-family="Helvetica,sans-Serif" font-size="10.00">AH/Math/FixArduinoMacros.hpp</text>
</a>
</g>
</g>
<!-- Node9&#45;&gt;Node10 -->
<g id="edge9_Node000009_Node000010" class="edge">
<title>Node9&#45;&gt;Node10</title>
<g id="a_edge9_Node000009_Node000010"><a xlink:title=" ">
<path fill="none" stroke="#63b8ff" d="M772.19,-109.75C769.94,-102.72 766.7,-92.62 763.88,-83.84"/>
<polygon fill="#63b8ff" stroke="#63b8ff" points="767.14,-82.54 760.75,-74.09 760.48,-84.68 767.14,-82.54"/>
</a>
</g>
</g>
<!-- Node13 -->
<g id="Node000013" class="node">
<title>Node13</title>
<g id="a_Node000013"><a xlink:href="../../d6/db0/AH_2Settings_2NamespaceSettings_8hpp.html" target="_top" xlink:title=" ">
<polygon fill="white" stroke="#666666" points="604.5,-74 409.5,-74 409.5,-55 604.5,-55 604.5,-74"/>
<text text-anchor="middle" x="507" y="-62" font-family="Helvetica,sans-Serif" font-size="10.00">AH/Settings/NamespaceSettings.hpp</text>
</a>
</g>
</g>
<!-- Node9&#45;&gt;Node13 -->
<g id="edge12_Node000009_Node000013" class="edge">
<title>Node9&#45;&gt;Node13</title>
<g id="a_edge12_Node000009_Node000013"><a xlink:title=" ">
<path fill="none" stroke="#63b8ff" d="M731.94,-109.98C685.29,-100.76 610.8,-86.03 560.44,-76.07"/>
<polygon fill="#63b8ff" stroke="#63b8ff" points="560.89,-72.59 550.4,-74.08 559.53,-79.46 560.89,-72.59"/>
</a>
</g>
</g>
<!-- Node11 -->
<g id="Node000011" class="node">
<title>Node11</title>
<g id="a_Node000011"><a xlink:href="../../d1/d65/Warnings_8hpp.html" target="_top" xlink:title=" ">
<polygon fill="white" stroke="#666666" points="724.5,-19 581.5,-19 581.5,0 724.5,0 724.5,-19"/>
<text text-anchor="middle" x="653" y="-7" font-family="Helvetica,sans-Serif" font-size="10.00">AH/Settings/Warnings.hpp</text>
</a>
</g>
</g>
<!-- Node10&#45;&gt;Node11 -->
<g id="edge10_Node000010_Node000011" class="edge">
<title>Node10&#45;&gt;Node11</title>
<g id="a_edge10_Node000010_Node000011"><a xlink:title=" ">
<path fill="none" stroke="#63b8ff" d="M741.13,-54.98C724.39,-46.54 698.5,-33.47 679.11,-23.68"/>
<polygon fill="#63b8ff" stroke="#63b8ff" points="680.68,-20.55 670.18,-19.17 677.53,-26.8 680.68,-20.55"/>
</a>
</g>
</g>
<!-- Node10&#45;&gt;Node12 -->
<g id="edge11_Node000010_Node000012" class="edge">
<title>Node10&#45;&gt;Node12</title>
<g id="a_edge11_Node000010_Node000012"><a xlink:title=" ">
<path fill="none" stroke="#63b8ff" d="M767,-54.98C775.19,-47.23 787.51,-35.58 797.47,-26.14"/>
<polygon fill="#63b8ff" stroke="#63b8ff" points="799.98,-28.59 804.84,-19.17 795.17,-23.5 799.98,-28.59"/>
</a>
</g>
</g>
<!-- Node13&#45;&gt;Node11 -->
<g id="edge13_Node000013_Node000011" class="edge">
<title>Node13&#45;&gt;Node11</title>
<g id="a_edge13_Node000013_Node000011"><a xlink:title=" ">
<path fill="none" stroke="#63b8ff" d="M530.46,-54.98C554.58,-46.23 592.37,-32.51 619.6,-22.62"/>
<polygon fill="#63b8ff" stroke="#63b8ff" points="620.91,-25.87 629.12,-19.17 618.52,-19.29 620.91,-25.87"/>
</a>
</g>
</g>
<!-- Node16&#45;&gt;Node8 -->
<g id="edge18_Node000016_Node000008" class="edge">
<title>Node16&#45;&gt;Node8</title>
<g id="a_edge18_Node000016_Node000008"><a xlink:title=" ">
<path fill="none" stroke="#63b8ff" d="M956.18,-494.95C989.14,-480.06 1049,-446.07 1049,-395.5 1049,-395.5 1049,-395.5 1049,-283.5 1049,-200.83 936.43,-180.11 858.59,-175.66"/>
<polygon fill="#63b8ff" stroke="#63b8ff" points="858.49,-172.15 848.33,-175.15 858.14,-179.14 858.49,-172.15"/>
</a>
</g>
</g>
<!-- Node16&#45;&gt;Node15 -->
<g id="edge19_Node000016_Node000015" class="edge">
<title>Node16&#45;&gt;Node15</title>
<g id="a_edge19_Node000016_Node000015"><a xlink:title=" ">
<path fill="none" stroke="#63b8ff" d="M934.22,-494.95C931.28,-462.95 920.89,-349.68 916.73,-304.4"/>
<polygon fill="#63b8ff" stroke="#63b8ff" points="920.2,-303.86 915.8,-294.22 913.23,-304.5 920.2,-303.86"/>
</a>
</g>
</g>
<!-- Node17&#45;&gt;Node3 -->
<g id="edge42_Node000017_Node000003" class="edge">
<title>Node17&#45;&gt;Node3</title>
<g id="a_edge42_Node000017_Node000003"><a xlink:title=" ">
<path fill="none" stroke="#63b8ff" d="M503.91,-494.9C512.95,-486.56 526.07,-473.13 534,-459 548.42,-433.31 553,-424.96 553,-395.5 553,-395.5 553,-395.5 553,-338.5 553,-307.14 550.45,-270.74 548.67,-249.22"/>
<polygon fill="#63b8ff" stroke="#63b8ff" points="552.15,-248.83 547.81,-239.17 545.18,-249.43 552.15,-248.83"/>
</a>
</g>
</g>
<!-- Node17&#45;&gt;Node14 -->
<g id="edge41_Node000017_Node000014" class="edge">
<title>Node17&#45;&gt;Node14</title>
<g id="a_edge41_Node000017_Node000014"><a xlink:title=" ">
<path fill="none" stroke="#63b8ff" d="M510.45,-494.97C538.13,-479.3 591,-443.13 591,-395.5 591,-395.5 591,-395.5 591,-338.5 591,-264.73 594.48,-176.97 596.14,-139.25"/>
<polygon fill="#63b8ff" stroke="#63b8ff" points="599.63,-139.37 596.59,-129.22 592.64,-139.05 599.63,-139.37"/>
</a>
</g>
</g>
<!-- Node18 -->
<g id="Node000018" class="node">
<title>Node18</title>
<g id="a_Node000018"><a xlink:href="../../d1/d93/Error_8hpp.html" target="_top" xlink:title=" ">
<polygon fill="white" stroke="#666666" points="379,-459 275,-459 275,-440 379,-440 379,-459"/>
<text text-anchor="middle" x="327" y="-447" font-family="Helvetica,sans-Serif" font-size="10.00">AH/Error/Error.hpp</text>
</a>
</g>
</g>
<!-- Node17&#45;&gt;Node18 -->
<g id="edge21_Node000017_Node000018" class="edge">
<title>Node17&#45;&gt;Node18</title>
<g id="a_edge21_Node000017_Node000018"><a xlink:title=" ">
<path fill="none" stroke="#63b8ff" d="M467.17,-494.98C439.13,-486.09 394.95,-472.07 363.7,-462.15"/>
<polygon fill="#63b8ff" stroke="#63b8ff" points="364.63,-458.77 354.04,-459.08 362.51,-465.44 364.63,-458.77"/>
</a>
</g>
</g>
<!-- Node28 -->
<g id="Node000028" class="node">
<title>Node28</title>
<g id="a_Node000028"><a xlink:title=" ">
<polygon fill="#e0e0e0" stroke="#999999" points="525,-459 435,-459 435,-440 525,-440 525,-459"/>
<text text-anchor="middle" x="480" y="-447" font-family="Helvetica,sans-Serif" font-size="10.00">AH/STL/iterator</text>
</a>
</g>
</g>
<!-- Node17&#45;&gt;Node28 -->
<g id="edge40_Node000017_Node000028" class="edge">
<title>Node17&#45;&gt;Node28</title>
<g id="a_edge40_Node000017_Node000028"><a xlink:title=" ">
<path fill="none" stroke="#63b8ff" d="M491.69,-494.75C489.83,-487.72 487.16,-477.62 484.85,-468.84"/>
<polygon fill="#63b8ff" stroke="#63b8ff" points="488.21,-467.86 482.27,-459.09 481.44,-469.65 488.21,-467.86"/>
</a>
</g>
</g>
<!-- Node19 -->
<g id="Node000019" class="node">
<title>Node19</title>
<g id="a_Node000019"><a xlink:href="../../df/dee/Debug_8hpp.html" target="_top" xlink:title=" ">
<polygon fill="white" stroke="#666666" points="387.5,-404 266.5,-404 266.5,-385 387.5,-385 387.5,-404"/>
<text text-anchor="middle" x="327" y="-392" font-family="Helvetica,sans-Serif" font-size="10.00">AH/Debug/Debug.hpp</text>
</a>
</g>
</g>
<!-- Node18&#45;&gt;Node19 -->
<g id="edge22_Node000018_Node000019" class="edge">
<title>Node18&#45;&gt;Node19</title>
<g id="a_edge22_Node000018_Node000019"><a xlink:title=" ">
<path fill="none" stroke="#63b8ff" d="M327,-439.75C327,-432.8 327,-422.85 327,-414.13"/>
<polygon fill="#63b8ff" stroke="#63b8ff" points="330.5,-414.09 327,-404.09 323.5,-414.09 330.5,-414.09"/>
</a>
</g>
</g>
<!-- Node20 -->
<g id="Node000020" class="node">
<title>Node20</title>
<g id="a_Node000020"><a xlink:href="../../dd/d80/PrintStream_8hpp.html" target="_top" xlink:title=" ">
<polygon fill="white" stroke="#666666" points="830.5,-349 657.5,-349 657.5,-330 830.5,-330 830.5,-349"/>
<text text-anchor="middle" x="744" y="-337" font-family="Helvetica,sans-Serif" font-size="10.00">AH/PrintStream/PrintStream.hpp</text>
</a>
</g>
</g>
<!-- Node19&#45;&gt;Node20 -->
<g id="edge23_Node000019_Node000020" class="edge">
<title>Node19&#45;&gt;Node20</title>
<g id="a_edge23_Node000019_Node000020"><a xlink:title=" ">
<path fill="none" stroke="#63b8ff" d="M387.64,-385.79C461.5,-376.4 586.39,-360.53 666.98,-350.29"/>
<polygon fill="#63b8ff" stroke="#63b8ff" points="667.6,-353.74 677.08,-349.01 666.71,-346.79 667.6,-353.74"/>
</a>
</g>
</g>
<!-- Node21 -->
<g id="Node000021" class="node">
<title>Node21</title>
<g id="a_Node000021"><a xlink:href="../../de/dd1/AH_2Settings_2SettingsWrapper_8hpp.html" target="_top" xlink:title=" ">
<polygon fill="white" stroke="#666666" points="385,-349 207,-349 207,-330 385,-330 385,-349"/>
<text text-anchor="middle" x="296" y="-337" font-family="Helvetica,sans-Serif" font-size="10.00">AH/Settings/SettingsWrapper.hpp</text>
</a>
</g>
</g>
<!-- Node19&#45;&gt;Node21 -->
<g id="edge27_Node000019_Node000021" class="edge">
<title>Node19&#45;&gt;Node21</title>
<g id="a_edge27_Node000019_Node000021"><a xlink:title=" ">
<path fill="none" stroke="#63b8ff" d="M316.71,-384.75C310.97,-377.57 304.48,-367.18 299.98,-358.27"/>
<polygon fill="#63b8ff" stroke="#63b8ff" points="303.16,-356.8 295.89,-349.09 296.76,-359.65 303.16,-356.8"/>
</a>
</g>
</g>
<!-- Node27 -->
<g id="Node000027" class="node">
<title>Node27</title>
<g id="a_Node000027"><a xlink:href="../../d7/d52/DebugVal_8hpp.html" target="_top" xlink:title=" ">
<polygon fill="white" stroke="#666666" points="487,-349 403,-349 403,-330 487,-330 487,-349"/>
<text text-anchor="middle" x="445" y="-337" font-family="Helvetica,sans-Serif" font-size="10.00">DebugVal.hpp</text>
</a>
</g>
</g>
<!-- Node19&#45;&gt;Node27 -->
<g id="edge39_Node000019_Node000027" class="edge">
<title>Node19&#45;&gt;Node27</title>
<g id="a_edge39_Node000019_Node000027"><a xlink:title=" ">
<path fill="none" stroke="#63b8ff" d="M345.96,-384.98C365.03,-376.42 394.66,-363.11 416.55,-353.28"/>
<polygon fill="#63b8ff" stroke="#63b8ff" points="418.01,-356.46 425.7,-349.17 415.14,-350.07 418.01,-356.46"/>
</a>
</g>
</g>
<!-- Node20&#45;&gt;Node8 -->
<g id="edge24_Node000020_Node000008" class="edge">
<title>Node20&#45;&gt;Node8</title>
<g id="a_edge24_Node000020_Node000008"><a xlink:title=" ">
<path fill="none" stroke="#63b8ff" d="M746.26,-329.74C752.84,-304.2 772.1,-229.43 781.17,-194.23"/>
<polygon fill="#63b8ff" stroke="#63b8ff" points="784.62,-194.86 783.73,-184.31 777.85,-193.12 784.62,-194.86"/>
</a>
</g>
</g>
<!-- Node20&#45;&gt;Node13 -->
<g id="edge25_Node000020_Node000013" class="edge">
<title>Node20&#45;&gt;Node13</title>
<g id="a_edge25_Node000020_Node000013"><a xlink:title=" ">
<path fill="none" stroke="#63b8ff" d="M734.13,-329.77C715.94,-312.67 679,-272.74 679,-230.5 679,-230.5 679,-230.5 679,-173.5 679,-143.91 680.13,-130.71 659,-110 642.41,-93.74 620.21,-83.36 597.91,-76.76"/>
<polygon fill="#63b8ff" stroke="#63b8ff" points="598.59,-73.32 588.02,-74.07 596.75,-80.07 598.59,-73.32"/>
</a>
</g>
</g>
<!-- Node20&#45;&gt;Node15 -->
<g id="edge26_Node000020_Node000015" class="edge">
<title>Node20&#45;&gt;Node15</title>
<g id="a_edge26_Node000020_Node000015"><a xlink:title=" ">
<path fill="none" stroke="#63b8ff" d="M771.47,-329.98C800.18,-321.09 845.42,-307.07 877.42,-297.15"/>
<polygon fill="#63b8ff" stroke="#63b8ff" points="878.8,-300.39 887.31,-294.08 876.72,-293.7 878.8,-300.39"/>
</a>
</g>
</g>
<!-- Node21&#45;&gt;Node13 -->
<g id="edge28_Node000021_Node000013" class="edge">
<title>Node21&#45;&gt;Node13</title>
<g id="a_edge28_Node000021_Node000013"><a xlink:title=" ">
<path fill="none" stroke="#63b8ff" d="M265.89,-329.87C247.05,-323.01 223.66,-311.6 209,-294 190.15,-271.36 190,-259.96 190,-230.5 190,-230.5 190,-230.5 190,-173.5 190,-122.38 339.56,-90.53 433.23,-75.6"/>
<polygon fill="#63b8ff" stroke="#63b8ff" points="433.89,-79.04 443.23,-74.03 432.81,-72.12 433.89,-79.04"/>
</a>
</g>
</g>
<!-- Node21&#45;&gt;Node19 -->
<g id="edge38_Node000021_Node000019" class="edge">
<title>Node21&#45;&gt;Node19</title>
<g id="a_edge38_Node000021_Node000019"><a xlink:title=" ">
<path fill="none" stroke="#63b8ff" d="M306.15,-349.09C311.88,-356.22 318.39,-366.6 322.92,-375.53"/>
<polygon fill="#63b8ff" stroke="#63b8ff" points="319.77,-377.05 327.05,-384.75 326.15,-374.19 319.77,-377.05"/>
</a>
</g>
</g>
<!-- Node22 -->
<g id="Node000022" class="node">
<title>Node22</title>
<g id="a_Node000022"><a xlink:href="../../d5/d4f/AH_2Settings_2Settings_8hpp.html" target="_top" xlink:title="All user settings and debugging options can be changed here.">
<polygon fill="white" stroke="#666666" points="486.5,-294 409.5,-294 409.5,-275 486.5,-275 486.5,-294"/>
<text text-anchor="middle" x="448" y="-282" font-family="Helvetica,sans-Serif" font-size="10.00">Settings.hpp</text>
</a>
</g>
</g>
<!-- Node21&#45;&gt;Node22 -->
<g id="edge29_Node000021_Node000022" class="edge">
<title>Node21&#45;&gt;Node22</title>
<g id="a_edge29_Node000021_Node000022"><a xlink:title=" ">
<path fill="none" stroke="#63b8ff" d="M320.42,-329.98C345.72,-321.16 385.45,-307.31 413.86,-297.41"/>
<polygon fill="#63b8ff" stroke="#63b8ff" points="415.1,-300.68 423.39,-294.08 412.79,-294.07 415.1,-300.68"/>
</a>
</g>
</g>
<!-- Node26 -->
<g id="Node000026" class="node">
<title>Node26</title>
<g id="a_Node000026"><a xlink:href="../../d9/d98/TeensyUSBTypes_8hpp.html" target="_top" xlink:title=" ">
<polygon fill="white" stroke="#666666" points="391.5,-294 218.5,-294 218.5,-275 391.5,-275 391.5,-294"/>
<text text-anchor="middle" x="305" y="-282" font-family="Helvetica,sans-Serif" font-size="10.00">AH/Teensy/TeensyUSBTypes.hpp</text>
</a>
</g>
</g>
<!-- Node21&#45;&gt;Node26 -->
<g id="edge37_Node000021_Node000026" class="edge">
<title>Node21&#45;&gt;Node26</title>
<g id="a_edge37_Node000021_Node000026"><a xlink:title=" ">
<path fill="none" stroke="#63b8ff" d="M297.49,-329.75C298.67,-322.8 300.36,-312.85 301.84,-304.13"/>
<polygon fill="#63b8ff" stroke="#63b8ff" points="305.32,-304.53 303.54,-294.09 298.42,-303.36 305.32,-304.53"/>
</a>
</g>
</g>
<!-- Node22&#45;&gt;Node3 -->
<g id="edge35_Node000022_Node000003" class="edge">
<title>Node22&#45;&gt;Node3</title>
<g id="a_edge35_Node000022_Node000003"><a xlink:title=" ">
<path fill="none" stroke="#63b8ff" d="M463.91,-274.98C479.55,-266.61 503.66,-253.7 521.88,-243.95"/>
<polygon fill="#63b8ff" stroke="#63b8ff" points="523.64,-246.98 530.8,-239.17 520.34,-240.8 523.64,-246.98"/>
</a>
</g>
</g>
<!-- Node22&#45;&gt;Node4 -->
<g id="edge36_Node000022_Node000004" class="edge">
<title>Node22&#45;&gt;Node4</title>
<g id="a_edge36_Node000022_Node000004"><a xlink:title=" ">
<path fill="none" stroke="#63b8ff" d="M409.5,-276.61C406.29,-276.06 403.09,-275.51 400,-275 310.78,-260.16 205.63,-244.19 151.06,-236.01"/>
<polygon fill="#63b8ff" stroke="#63b8ff" points="151.25,-232.5 140.84,-234.49 150.21,-239.43 151.25,-232.5"/>
</a>
</g>
</g>
<!-- Node23 -->
<g id="Node000023" class="node">
<title>Node23</title>
<g id="a_Node000023"><a xlink:href="../../dc/d50/Frequency_8hpp.html" target="_top" xlink:title=" ">
<polygon fill="white" stroke="#666666" points="466,-184 332,-184 332,-165 466,-165 466,-184"/>
<text text-anchor="middle" x="399" y="-172" font-family="Helvetica,sans-Serif" font-size="10.00">AH/Types/Frequency.hpp</text>
</a>
</g>
</g>
<!-- Node22&#45;&gt;Node23 -->
<g id="edge30_Node000022_Node000023" class="edge">
<title>Node22&#45;&gt;Node23</title>
<g id="a_edge30_Node000022_Node000023"><a xlink:title=" ">
<path fill="none" stroke="#63b8ff" d="M409.1,-275.42C356.2,-264.25 267.57,-244.81 263,-239 241.15,-211.28 280.5,-195.11 322.4,-186.04"/>
<polygon fill="#63b8ff" stroke="#63b8ff" points="323.1,-189.47 332.21,-184.05 321.71,-182.61 323.1,-189.47"/>
</a>
</g>
</g>
<!-- Node24 -->
<g id="Node000024" class="node">
<title>Node24</title>
<g id="a_Node000024"><a xlink:href="../../d7/d7c/ADCConfig_8hpp.html" target="_top" xlink:title="This file contains the platform&#45;specific ADC resolutions.">
<polygon fill="white" stroke="#666666" points="500.5,-239 343.5,-239 343.5,-220 500.5,-220 500.5,-239"/>
<text text-anchor="middle" x="422" y="-227" font-family="Helvetica,sans-Serif" font-size="10.00">AH/Hardware/ADCConfig.hpp</text>
</a>
</g>
</g>
<!-- Node22&#45;&gt;Node24 -->
<g id="edge32_Node000022_Node000024" class="edge">
<title>Node22&#45;&gt;Node24</title>
<g id="a_edge32_Node000022_Node000024"><a xlink:title=" ">
<path fill="none" stroke="#63b8ff" d="M443.71,-274.75C440.19,-267.57 435.09,-257.18 430.72,-248.27"/>
<polygon fill="#63b8ff" stroke="#63b8ff" points="433.76,-246.53 426.21,-239.09 427.48,-249.61 433.76,-246.53"/>
</a>
</g>
</g>
<!-- Node25 -->
<g id="Node000025" class="node">
<title>Node25</title>
<g id="a_Node000025"><a xlink:title=" ">
<polygon fill="#e0e0e0" stroke="#999999" points="325.5,-239 272.5,-239 272.5,-220 325.5,-220 325.5,-239"/>
<text text-anchor="middle" x="299" y="-227" font-family="Helvetica,sans-Serif" font-size="10.00">limits.h</text>
</a>
</g>
</g>
<!-- Node22&#45;&gt;Node25 -->
<g id="edge34_Node000022_Node000025" class="edge">
<title>Node22&#45;&gt;Node25</title>
<g id="a_edge34_Node000022_Node000025"><a xlink:title=" ">
<path fill="none" stroke="#63b8ff" d="M424.06,-274.98C399.44,-266.23 360.88,-252.51 333.08,-242.62"/>
<polygon fill="#63b8ff" stroke="#63b8ff" points="333.97,-239.22 323.38,-239.17 331.62,-245.82 333.97,-239.22"/>
</a>
</g>
</g>
<!-- Node23&#45;&gt;Node13 -->
<g id="edge31_Node000023_Node000013" class="edge">
<title>Node23&#45;&gt;Node13</title>
<g id="a_edge31_Node000023_Node000013"><a xlink:title=" ">
<path fill="none" stroke="#63b8ff" d="M407.84,-164.66C426.04,-146.46 467.95,-104.55 491.03,-81.47"/>
<polygon fill="#63b8ff" stroke="#63b8ff" points="493.75,-83.7 498.34,-74.16 488.8,-78.75 493.75,-83.7"/>
</a>
</g>
</g>
<!-- Node24&#45;&gt;Node8 -->
<g id="edge33_Node000024_Node000008" class="edge">
<title>Node24&#45;&gt;Node8</title>
<g id="a_edge33_Node000024_Node000008"><a xlink:title=" ">
<path fill="none" stroke="#63b8ff" d="M480.48,-219.98C545,-210.59 648.72,-195.49 717.12,-185.53"/>
<polygon fill="#63b8ff" stroke="#63b8ff" points="717.97,-188.94 727.36,-184.04 716.96,-182.02 717.97,-188.94"/>
</a>
</g>
</g>
<!-- Node29&#45;&gt;Node4 -->
<g id="edge46_Node000029_Node000004" class="edge">
<title>Node29&#45;&gt;Node4</title>
<g id="a_edge46_Node000029_Node000004"><a xlink:title=" ">
<path fill="none" stroke="#63b8ff" d="M197.87,-549.81C174.9,-516.64 119.37,-430.7 100,-349 92.41,-317 95.01,-307.51 100,-275 101.35,-266.19 104.13,-256.74 106.85,-248.82"/>
<polygon fill="#63b8ff" stroke="#63b8ff" points="110.23,-249.77 110.4,-239.18 103.66,-247.35 110.23,-249.77"/>
</a>
</g>
</g>
<!-- Node29&#45;&gt;Node13 -->
<g id="edge45_Node000029_Node000013" class="edge">
<title>Node29&#45;&gt;Node13</title>
<g id="a_edge45_Node000029_Node000013"><a xlink:title=" ">
<path fill="none" stroke="#63b8ff" d="M162.61,-549.92C101.41,-527.79 0,-478.57 0,-395.5 0,-395.5 0,-395.5 0,-173.5 0,-92.56 250.28,-72.05 399.15,-67"/>
<polygon fill="#63b8ff" stroke="#63b8ff" points="399.36,-70.49 409.25,-66.68 399.14,-63.5 399.36,-70.49"/>
</a>
</g>
</g>
<!-- Node29&#45;&gt;Node17 -->
<g id="edge44_Node000029_Node000017" class="edge">
<title>Node29&#45;&gt;Node17</title>
<g id="a_edge44_Node000029_Node000017"><a xlink:title=" ">
<path fill="none" stroke="#63b8ff" d="M273.61,-550.58C324.78,-540.11 394.85,-525.78 442.14,-516.11"/>
<polygon fill="#63b8ff" stroke="#63b8ff" points="443.07,-519.49 452.16,-514.06 441.66,-512.63 443.07,-519.49"/>
</a>
</g>
</g>
<!-- Node32&#45;&gt;Node4 -->
<g id="edge53_Node000032_Node000004" class="edge">
<title>Node32&#45;&gt;Node4</title>
<g id="a_edge53_Node000032_Node000004"><a xlink:title=" ">
<path fill="none" stroke="#63b8ff" d="M657.27,-391.29C531.48,-386.01 237.11,-371.4 198,-349 158.01,-326.1 132.31,-275.51 120.88,-248.43"/>
<polygon fill="#63b8ff" stroke="#63b8ff" points="124.06,-246.98 117.08,-239.01 117.57,-249.59 124.06,-246.98"/>
</a>
</g>
</g>
<!-- Node32&#45;&gt;Node15 -->
<g id="edge55_Node000032_Node000015" class="edge">
<title>Node32&#45;&gt;Node15</title>
<g id="a_edge55_Node000032_Node000015"><a xlink:title=" ">
<path fill="none" stroke="#63b8ff" d="M748.61,-384.95C774.78,-377.63 811.03,-365.63 840,-349 862.76,-335.94 885.24,-315.65 899.57,-301.53"/>
<polygon fill="#63b8ff" stroke="#63b8ff" points="902.45,-303.6 907,-294.04 897.47,-298.67 902.45,-303.6"/>
</a>
</g>
</g>
<!-- Node32&#45;&gt;Node20 -->
<g id="edge54_Node000032_Node000020" class="edge">
<title>Node32&#45;&gt;Node20</title>
<g id="a_edge54_Node000032_Node000020"><a xlink:title=" ">
<path fill="none" stroke="#63b8ff" d="M718.95,-384.75C723.06,-377.49 729.03,-366.95 734.1,-357.98"/>
<polygon fill="#63b8ff" stroke="#63b8ff" points="737.26,-359.52 739.14,-349.09 731.17,-356.07 737.26,-359.52"/>
</a>
</g>
</g>
<!-- Node33&#45;&gt;Node7 -->
<g id="edge62_Node000033_Node000007" class="edge">
<title>Node33&#45;&gt;Node7</title>
<g id="a_edge62_Node000033_Node000007"><a xlink:title=" ">
<path fill="none" stroke="#63b8ff" d="M898.33,-725.93C942.26,-718.69 995.11,-706.81 1010,-690 1051.52,-643.13 1038.53,-560.73 1029.95,-524.03"/>
<polygon fill="#63b8ff" stroke="#63b8ff" points="1033.31,-523.06 1027.49,-514.2 1026.52,-524.75 1033.31,-523.06"/>
</a>
</g>
</g>
<!-- Node33&#45;&gt;Node8 -->
<g id="edge57_Node000033_Node000008" class="edge">
<title>Node33&#45;&gt;Node8</title>
<g id="a_edge57_Node000033_Node000008"><a xlink:title=" ">
<path fill="none" stroke="#63b8ff" d="M898.69,-725.96C955.26,-717.74 1032.52,-704.45 1060,-690 1095.75,-671.2 1125,-666.89 1125,-626.5 1125,-626.5 1125,-626.5 1125,-283.5 1125,-245.87 1101.99,-238.11 1069,-220 1033.73,-200.64 930,-187.98 858.44,-181.28"/>
<polygon fill="#63b8ff" stroke="#63b8ff" points="858.4,-177.76 848.12,-180.33 857.76,-184.73 858.4,-177.76"/>
</a>
</g>
</g>
<!-- Node33&#45;&gt;Node15 -->
<g id="edge61_Node000033_Node000015" class="edge">
<title>Node33&#45;&gt;Node15</title>
<g id="a_edge61_Node000033_Node000015"><a xlink:title=" ">
<path fill="none" stroke="#63b8ff" d="M888.2,-725.99C937.58,-717.56 1006.31,-703.92 1030,-690 1062.7,-670.79 1087,-664.42 1087,-626.5 1087,-626.5 1087,-626.5 1087,-564 1087,-447.88 977.42,-339.7 933.19,-300.76"/>
<polygon fill="#63b8ff" stroke="#63b8ff" points="935.35,-298.01 925.5,-294.12 930.78,-303.3 935.35,-298.01"/>
</a>
</g>
</g>
<!-- Node33&#45;&gt;Node16 -->
<g id="edge63_Node000033_Node000016" class="edge">
<title>Node33&#45;&gt;Node16</title>
<g id="a_edge63_Node000033_Node000016"><a xlink:title=" ">
<path fill="none" stroke="#63b8ff" d="M890.32,-725.95C930.49,-718.56 979.53,-706.47 992,-690 1031.76,-637.5 976.93,-556.93 949.27,-522.28"/>
<polygon fill="#63b8ff" stroke="#63b8ff" points="951.65,-519.66 942.6,-514.15 946.24,-524.1 951.65,-519.66"/>
</a>
</g>
</g>
<!-- Node33&#45;&gt;Node20 -->
<g id="edge58_Node000033_Node000020" class="edge">
<title>Node33&#45;&gt;Node20</title>
<g id="a_edge58_Node000033_Node000020"><a xlink:title=" ">
<path fill="none" stroke="#63b8ff" d="M817.11,-725.95C804.29,-718.43 787.62,-706.15 780,-690 776.4,-682.36 779.52,-679.43 780,-671 784.23,-597.08 799,-579.54 799,-505.5 799,-505.5 799,-505.5 799,-448.5 799,-418.91 792.82,-411.17 779,-385 773.62,-374.81 765.82,-364.62 758.95,-356.56"/>
<polygon fill="#63b8ff" stroke="#63b8ff" points="761.53,-354.19 752.27,-349.03 756.29,-358.84 761.53,-354.19"/>
</a>
</g>
</g>
<!-- Node34 -->
<g id="Node000034" class="node">
<title>Node34</title>
<g id="a_Node000034"><a xlink:title=" ">
<polygon fill="#e0e0e0" stroke="#999999" points="879,-690 789,-690 789,-671 879,-671 879,-690"/>
<text text-anchor="middle" x="834" y="-678" font-family="Helvetica,sans-Serif" font-size="10.00">AH/STL/cstddef</text>
</a>
</g>
</g>
<!-- Node33&#45;&gt;Node34 -->
<g id="edge59_Node000033_Node000034" class="edge">
<title>Node33&#45;&gt;Node34</title>
<g id="a_edge59_Node000033_Node000034"><a xlink:title=" ">
<path fill="none" stroke="#63b8ff" d="M834,-725.75C834,-718.8 834,-708.85 834,-700.13"/>
<polygon fill="#63b8ff" stroke="#63b8ff" points="837.5,-700.09 834,-690.09 830.5,-700.09 837.5,-700.09"/>
</a>
</g>
</g>
<!-- Node35 -->
<g id="Node000035" class="node">
<title>Node35</title>
<g id="a_Node000035"><a xlink:title=" ">
<polygon fill="#e0e0e0" stroke="#999999" points="982.5,-690 897.5,-690 897.5,-671 982.5,-671 982.5,-690"/>
<text text-anchor="middle" x="940" y="-678" font-family="Helvetica,sans-Serif" font-size="10.00">AH/STL/vector</text>
</a>
</g>
</g>
<!-- Node33&#45;&gt;Node35 -->
<g id="edge60_Node000033_Node000035" class="edge">
<title>Node33&#45;&gt;Node35</title>
<g id="a_edge60_Node000033_Node000035"><a xlink:title=" ">
<path fill="none" stroke="#63b8ff" d="M851.03,-725.98C867.93,-717.54 894.06,-704.47 913.64,-694.68"/>
<polygon fill="#63b8ff" stroke="#63b8ff" points="915.28,-697.77 922.66,-690.17 912.15,-691.51 915.28,-697.77"/>
</a>
</g>
</g>
<!-- Node36 -->
<g id="Node000036" class="node">
<title>Node36</title>
<g id="a_Node000036"><a xlink:href="../../db/dd6/MIDIAddress_8hpp.html" target="_top" xlink:title=" ">
<polygon fill="white" stroke="#666666" points="732.5,-690 613.5,-690 613.5,-671 732.5,-671 732.5,-690"/>
<text text-anchor="middle" x="673" y="-678" font-family="Helvetica,sans-Serif" font-size="10.00">Def/MIDIAddress.hpp</text>
</a>
</g>
</g>
<!-- Node33&#45;&gt;Node36 -->
<g id="edge64_Node000033_Node000036" class="edge">
<title>Node33&#45;&gt;Node36</title>
<g id="a_edge64_Node000033_Node000036"><a xlink:title=" ">
<path fill="none" stroke="#63b8ff" d="M808.13,-725.98C781.22,-717.13 738.88,-703.19 708.77,-693.28"/>
<polygon fill="#63b8ff" stroke="#63b8ff" points="709.66,-689.88 699.07,-690.08 707.47,-696.53 709.66,-689.88"/>
</a>
</g>
</g>
<!-- Node36&#45;&gt;Node6 -->
<g id="edge65_Node000036_Node000006" class="edge">
<title>Node36&#45;&gt;Node6</title>
<g id="a_edge65_Node000036_Node000006"><a xlink:title=" ">
<path fill="none" stroke="#63b8ff" d="M658.22,-670.98C643.82,-662.69 621.69,-649.94 604.81,-640.22"/>
<polygon fill="#63b8ff" stroke="#63b8ff" points="606.46,-637.13 596.05,-635.17 602.97,-643.19 606.46,-637.13"/>
</a>
</g>
</g>
<!-- Node37&#45;&gt;Node31 -->
<g id="edge67_Node000037_Node000031" class="edge">
<title>Node37&#45;&gt;Node31</title>
<g id="a_edge67_Node000037_Node000031"><a xlink:title=" ">
<path fill="none" stroke="#63b8ff" d="M885.17,-780.98C907.77,-772.3 943.06,-758.75 968.75,-748.88"/>
<polygon fill="#63b8ff" stroke="#63b8ff" points="970.34,-752.02 978.42,-745.17 967.83,-745.49 970.34,-752.02"/>
</a>
</g>
</g>
</g>
</svg>
