<?xml version="1.0" encoding="UTF-8" standalone="no"?>
<!DOCTYPE svg PUBLIC "-//W3C//DTD SVG 1.1//EN"
 "http://www.w3.org/Graphics/SVG/1.1/DTD/svg11.dtd">
<!-- Generated by graphviz version 2.43.0 (0)
 -->
<!-- Title: MIDIChordButton&lt; Sender &gt; Pages: 1 -->
<svg width="802pt" height="1257pt"
 viewBox="0.00 0.00 801.50 1257.00" xmlns="http://www.w3.org/2000/svg" xmlns:xlink="http://www.w3.org/1999/xlink">
<g id="graph0" class="graph" transform="scale(1 1) rotate(0) translate(4 1253)">
<title>MIDIChordButton&lt; Sender &gt;</title>
<polygon fill="white" stroke="transparent" points="-4,4 -4,-1253 797.5,-1253 797.5,4 -4,4"/>
<!-- Node1 -->
<g id="node1" class="node">
<title>Node1</title>
<g id="a_node1"><a xlink:title="An abstract class for momentary push buttons that send multiple MIDI events.">
<polygon fill="#bfbfbf" stroke="black" points="493.5,-83 493.5,-217 649.5,-217 649.5,-83 493.5,-83"/>
<text text-anchor="middle" x="571.5" y="-205" font-family="Helvetica,sans-Serif" font-size="10.00">MIDIChordButton&lt; Sender &gt;</text>
<polyline fill="none" stroke="black" points="493.5,-198 649.5,-198 "/>
<text text-anchor="start" x="501.5" y="-186" font-family="Helvetica,sans-Serif" font-size="10.00">+ sender</text>
<text text-anchor="start" x="501.5" y="-175" font-family="Helvetica,sans-Serif" font-size="10.00">&#45; chord</text>
<text text-anchor="start" x="501.5" y="-164" font-family="Helvetica,sans-Serif" font-size="10.00">&#45; newChord</text>
<polyline fill="none" stroke="black" points="493.5,-157 649.5,-157 "/>
<text text-anchor="start" x="501.5" y="-145" font-family="Helvetica,sans-Serif" font-size="10.00">+ MIDIChordButton()</text>
<text text-anchor="start" x="501.5" y="-134" font-family="Helvetica,sans-Serif" font-size="10.00">+ begin()</text>
<text text-anchor="start" x="501.5" y="-123" font-family="Helvetica,sans-Serif" font-size="10.00">+ update()</text>
<text text-anchor="start" x="501.5" y="-112" font-family="Helvetica,sans-Serif" font-size="10.00">+ invert()</text>
<text text-anchor="start" x="501.5" y="-101" font-family="Helvetica,sans-Serif" font-size="10.00">+ getButtonState()</text>
<text text-anchor="start" x="501.5" y="-90" font-family="Helvetica,sans-Serif" font-size="10.00">+ setChord()</text>
</a>
</g>
</g>
<!-- Node2 -->
<g id="node2" class="node">
<title>Node2</title>
<g id="a_node2"><a xlink:href="../../d1/d55/classAH_1_1Updatable.html" target="_top" xlink:title="A super class for object that have to be updated regularly.">
<polygon fill="white" stroke="black" points="371,-408 371,-498 484,-498 484,-408 371,-408"/>
<text text-anchor="middle" x="427.5" y="-486" font-family="Helvetica,sans-Serif" font-size="10.00">MIDIOutputElement</text>
<polyline fill="none" stroke="black" points="371,-479 484,-479 "/>
<text text-anchor="middle" x="427.5" y="-467" font-family="Helvetica,sans-Serif" font-size="10.00"> </text>
<polyline fill="none" stroke="black" points="371,-460 484,-460 "/>
<text text-anchor="start" x="379" y="-448" font-family="Helvetica,sans-Serif" font-size="10.00">* begin()</text>
<text text-anchor="start" x="379" y="-437" font-family="Helvetica,sans-Serif" font-size="10.00">* update()</text>
<text text-anchor="start" x="379" y="-426" font-family="Helvetica,sans-Serif" font-size="10.00">* beginAll()</text>
<text text-anchor="start" x="379" y="-415" font-family="Helvetica,sans-Serif" font-size="10.00">* updateAll()</text>
</a>
</g>
</g>
<!-- Node2&#45;&gt;Node1 -->
<g id="edge1" class="edge">
<title>Node2&#45;&gt;Node1</title>
<path fill="none" stroke="midnightblue" d="M452.97,-398.76C477.2,-348.11 513.74,-271.74 539.84,-217.18"/>
<polygon fill="none" stroke="midnightblue" points="449.75,-397.38 448.59,-407.91 456.07,-400.4 449.75,-397.38"/>
</g>
<!-- Node3 -->
<g id="node3" class="node">
<title>Node3</title>
<g id="a_node3"><a xlink:href="../../d8/d1a/classAH_1_1UpdatableCRTP.html" target="_top" xlink:title=" ">
<polygon fill="white" stroke="black" points="147,-628.5 147,-861.5 300,-861.5 300,-628.5 147,-628.5"/>
<text text-anchor="start" x="155" y="-849.5" font-family="Helvetica,sans-Serif" font-size="10.00">UpdatableCRTP&lt; Updatable</text>
<text text-anchor="middle" x="223.5" y="-838.5" font-family="Helvetica,sans-Serif" font-size="10.00">&lt; NormalUpdatable &gt; &gt;</text>
<polyline fill="none" stroke="black" points="147,-831.5 300,-831.5 "/>
<text text-anchor="middle" x="223.5" y="-819.5" font-family="Helvetica,sans-Serif" font-size="10.00"> </text>
<polyline fill="none" stroke="black" points="147,-812.5 300,-812.5 "/>
<text text-anchor="start" x="155" y="-800.5" font-family="Helvetica,sans-Serif" font-size="10.00">+ ~UpdatableCRTP()</text>
<text text-anchor="start" x="155" y="-789.5" font-family="Helvetica,sans-Serif" font-size="10.00"># UpdatableCRTP()</text>
<text text-anchor="start" x="155" y="-778.5" font-family="Helvetica,sans-Serif" font-size="10.00"># UpdatableCRTP()</text>
<text text-anchor="start" x="155" y="-767.5" font-family="Helvetica,sans-Serif" font-size="10.00"># UpdatableCRTP()</text>
<text text-anchor="start" x="155" y="-756.5" font-family="Helvetica,sans-Serif" font-size="10.00"># operator=()</text>
<text text-anchor="start" x="155" y="-745.5" font-family="Helvetica,sans-Serif" font-size="10.00"># operator=()</text>
<text text-anchor="start" x="155" y="-734.5" font-family="Helvetica,sans-Serif" font-size="10.00">* enable()</text>
<text text-anchor="start" x="155" y="-723.5" font-family="Helvetica,sans-Serif" font-size="10.00">* disable()</text>
<text text-anchor="start" x="155" y="-712.5" font-family="Helvetica,sans-Serif" font-size="10.00">* isEnabled()</text>
<text text-anchor="start" x="155" y="-701.5" font-family="Helvetica,sans-Serif" font-size="10.00">* moveDown()</text>
<text text-anchor="start" x="155" y="-690.5" font-family="Helvetica,sans-Serif" font-size="10.00">* enable()</text>
<text text-anchor="start" x="155" y="-679.5" font-family="Helvetica,sans-Serif" font-size="10.00">* enable()</text>
<text text-anchor="start" x="155" y="-668.5" font-family="Helvetica,sans-Serif" font-size="10.00">* enable()</text>
<text text-anchor="start" x="155" y="-657.5" font-family="Helvetica,sans-Serif" font-size="10.00">* disable()</text>
<text text-anchor="start" x="155" y="-646.5" font-family="Helvetica,sans-Serif" font-size="10.00">* disable()</text>
<text text-anchor="start" x="155" y="-635.5" font-family="Helvetica,sans-Serif" font-size="10.00">* disable()</text>
</a>
</g>
</g>
<!-- Node3&#45;&gt;Node2 -->
<g id="edge2" class="edge">
<title>Node3&#45;&gt;Node2</title>
<path fill="none" stroke="midnightblue" d="M284.71,-620.25C291.97,-611.07 299.9,-602.49 308.5,-595 324.74,-580.85 337.09,-590.96 353.5,-577 378.37,-555.85 397.16,-524.14 409.59,-498.21"/>
<polygon fill="none" stroke="midnightblue" points="281.74,-618.37 278.49,-628.46 287.32,-622.6 281.74,-618.37"/>
</g>
<!-- Node5 -->
<g id="node5" class="node">
<title>Node5</title>
<g id="a_node5"><a xlink:href="../../d1/d55/classAH_1_1Updatable.html" target="_top" xlink:title=" ">
<polygon fill="white" stroke="black" points="135.5,-408 135.5,-498 311.5,-498 311.5,-408 135.5,-408"/>
<text text-anchor="middle" x="223.5" y="-486" font-family="Helvetica,sans-Serif" font-size="10.00">Updatable&lt; NormalUpdatable &gt;</text>
<polyline fill="none" stroke="black" points="135.5,-479 311.5,-479 "/>
<text text-anchor="middle" x="223.5" y="-467" font-family="Helvetica,sans-Serif" font-size="10.00"> </text>
<polyline fill="none" stroke="black" points="135.5,-460 311.5,-460 "/>
<text text-anchor="start" x="143.5" y="-448" font-family="Helvetica,sans-Serif" font-size="10.00">* begin()</text>
<text text-anchor="start" x="143.5" y="-437" font-family="Helvetica,sans-Serif" font-size="10.00">* update()</text>
<text text-anchor="start" x="143.5" y="-426" font-family="Helvetica,sans-Serif" font-size="10.00">* beginAll()</text>
<text text-anchor="start" x="143.5" y="-415" font-family="Helvetica,sans-Serif" font-size="10.00">* updateAll()</text>
</a>
</g>
</g>
<!-- Node3&#45;&gt;Node5 -->
<g id="edge5" class="edge">
<title>Node3&#45;&gt;Node5</title>
<path fill="none" stroke="midnightblue" d="M223.5,-617.89C223.5,-575.08 223.5,-530.03 223.5,-498.02"/>
<polygon fill="none" stroke="midnightblue" points="220,-618.13 223.5,-628.13 227,-618.13 220,-618.13"/>
</g>
<!-- Node4 -->
<g id="node4" class="node">
<title>Node4</title>
<g id="a_node4"><a xlink:href="../../d4/d23/classDoublyLinkable.html" target="_top" xlink:title=" ">
<polygon fill="white" stroke="black" points="235,-88.5 235,-211.5 388,-211.5 388,-88.5 235,-88.5"/>
<text text-anchor="start" x="243" y="-199.5" font-family="Helvetica,sans-Serif" font-size="10.00">DoublyLinkable&lt; Updatable</text>
<text text-anchor="middle" x="311.5" y="-188.5" font-family="Helvetica,sans-Serif" font-size="10.00">&lt; NormalUpdatable &gt; &gt;</text>
<polyline fill="none" stroke="black" points="235,-181.5 388,-181.5 "/>
<text text-anchor="middle" x="311.5" y="-169.5" font-family="Helvetica,sans-Serif" font-size="10.00"> </text>
<polyline fill="none" stroke="black" points="235,-162.5 388,-162.5 "/>
<text text-anchor="start" x="243" y="-150.5" font-family="Helvetica,sans-Serif" font-size="10.00"># ~DoublyLinkable()</text>
<text text-anchor="start" x="243" y="-139.5" font-family="Helvetica,sans-Serif" font-size="10.00"># DoublyLinkable()</text>
<text text-anchor="start" x="243" y="-128.5" font-family="Helvetica,sans-Serif" font-size="10.00"># DoublyLinkable()</text>
<text text-anchor="start" x="243" y="-117.5" font-family="Helvetica,sans-Serif" font-size="10.00"># DoublyLinkable()</text>
<text text-anchor="start" x="243" y="-106.5" font-family="Helvetica,sans-Serif" font-size="10.00"># operator=()</text>
<text text-anchor="start" x="243" y="-95.5" font-family="Helvetica,sans-Serif" font-size="10.00"># operator=()</text>
</a>
</g>
</g>
<!-- Node4&#45;&gt;Node3 -->
<g id="edge3" class="edge">
<title>Node4&#45;&gt;Node3</title>
<path fill="none" stroke="midnightblue" d="M323.64,-221.83C334.99,-302.1 346.63,-436.31 320.5,-548 314.17,-575.08 303.51,-602.71 291.54,-628.36"/>
<polygon fill="none" stroke="midnightblue" points="327.09,-221.22 322.19,-211.83 320.16,-222.23 327.09,-221.22"/>
</g>
<!-- Node5&#45;&gt;Node4 -->
<g id="edge4" class="edge">
<title>Node5&#45;&gt;Node4</title>
<path fill="none" stroke="#404040" d="M236.39,-407.91C250.57,-359.41 273.58,-280.71 290.4,-223.18"/>
<polygon fill="none" stroke="#404040" points="290.41,-223.13 288.26,-216.25 293.78,-211.61 295.94,-218.49 290.41,-223.13"/>
<text text-anchor="middle" x="288" y="-332" font-family="Helvetica,sans-Serif" font-size="10.00"> #next</text>
<text text-anchor="middle" x="288" y="-321" font-family="Helvetica,sans-Serif" font-size="10.00">#previous</text>
</g>
<!-- Node6 -->
<g id="node6" class="node">
<title>Node6</title>
<g id="a_node6"><a xlink:href="../../dd/d16/classDoublyLinkedList.html" target="_top" xlink:title=" ">
<polygon fill="white" stroke="black" points="0,-0.5 0,-299.5 161,-299.5 161,-0.5 0,-0.5"/>
<text text-anchor="start" x="8" y="-287.5" font-family="Helvetica,sans-Serif" font-size="10.00">DoublyLinkedList&lt; Updatable</text>
<text text-anchor="middle" x="80.5" y="-276.5" font-family="Helvetica,sans-Serif" font-size="10.00">&lt; NormalUpdatable &gt; &gt;</text>
<polyline fill="none" stroke="black" points="0,-269.5 161,-269.5 "/>
<text text-anchor="middle" x="80.5" y="-257.5" font-family="Helvetica,sans-Serif" font-size="10.00"> </text>
<polyline fill="none" stroke="black" points="0,-250.5 161,-250.5 "/>
<text text-anchor="start" x="8" y="-238.5" font-family="Helvetica,sans-Serif" font-size="10.00">+ append()</text>
<text text-anchor="start" x="8" y="-227.5" font-family="Helvetica,sans-Serif" font-size="10.00">+ append()</text>
<text text-anchor="start" x="8" y="-216.5" font-family="Helvetica,sans-Serif" font-size="10.00">+ insertBefore()</text>
<text text-anchor="start" x="8" y="-205.5" font-family="Helvetica,sans-Serif" font-size="10.00">+ insertBefore()</text>
<text text-anchor="start" x="8" y="-194.5" font-family="Helvetica,sans-Serif" font-size="10.00">+ insertSorted()</text>
<text text-anchor="start" x="8" y="-183.5" font-family="Helvetica,sans-Serif" font-size="10.00">+ insertSorted()</text>
<text text-anchor="start" x="8" y="-172.5" font-family="Helvetica,sans-Serif" font-size="10.00">+ remove()</text>
<text text-anchor="start" x="8" y="-161.5" font-family="Helvetica,sans-Serif" font-size="10.00">+ remove()</text>
<text text-anchor="start" x="8" y="-150.5" font-family="Helvetica,sans-Serif" font-size="10.00">+ moveDown()</text>
<text text-anchor="start" x="8" y="-139.5" font-family="Helvetica,sans-Serif" font-size="10.00">+ moveDown()</text>
<text text-anchor="start" x="8" y="-128.5" font-family="Helvetica,sans-Serif" font-size="10.00">+ couldContain()</text>
<text text-anchor="start" x="8" y="-117.5" font-family="Helvetica,sans-Serif" font-size="10.00">+ couldContain()</text>
<text text-anchor="start" x="8" y="-106.5" font-family="Helvetica,sans-Serif" font-size="10.00">+ begin()</text>
<text text-anchor="start" x="8" y="-95.5" font-family="Helvetica,sans-Serif" font-size="10.00">+ begin()</text>
<text text-anchor="start" x="8" y="-84.5" font-family="Helvetica,sans-Serif" font-size="10.00">+ end()</text>
<text text-anchor="start" x="8" y="-73.5" font-family="Helvetica,sans-Serif" font-size="10.00">+ end()</text>
<text text-anchor="start" x="8" y="-62.5" font-family="Helvetica,sans-Serif" font-size="10.00">+ rbegin()</text>
<text text-anchor="start" x="8" y="-51.5" font-family="Helvetica,sans-Serif" font-size="10.00">+ rbegin()</text>
<text text-anchor="start" x="8" y="-40.5" font-family="Helvetica,sans-Serif" font-size="10.00">+ rend()</text>
<text text-anchor="start" x="8" y="-29.5" font-family="Helvetica,sans-Serif" font-size="10.00">+ rend()</text>
<text text-anchor="start" x="8" y="-18.5" font-family="Helvetica,sans-Serif" font-size="10.00">+ getFirst()</text>
<text text-anchor="start" x="8" y="-7.5" font-family="Helvetica,sans-Serif" font-size="10.00">+ getLast()</text>
</a>
</g>
</g>
<!-- Node5&#45;&gt;Node6 -->
<g id="edge7" class="edge">
<title>Node5&#45;&gt;Node6</title>
<path fill="none" stroke="#404040" d="M202.55,-407.91C190.07,-381.64 173.39,-346.52 156.37,-310.7"/>
<polygon fill="none" stroke="#404040" points="156.23,-310.41 150.05,-306.71 151.08,-299.57 157.27,-303.28 156.23,-310.41"/>
<text text-anchor="middle" x="182.5" y="-332" font-family="Helvetica,sans-Serif" font-size="10.00"> &#45;first</text>
<text text-anchor="middle" x="182.5" y="-321" font-family="Helvetica,sans-Serif" font-size="10.00">&#45;last</text>
</g>
<!-- Node6&#45;&gt;Node3 -->
<g id="edge6" class="edge">
<title>Node6&#45;&gt;Node3</title>
<path fill="none" stroke="#404040" d="M46.07,-299.78C35.04,-376.1 32.05,-469.31 60.5,-548 76.52,-592.32 107.42,-633.68 138.04,-666.88"/>
<polygon fill="none" stroke="#404040" points="138.43,-667.29 145.46,-668.91 146.66,-676.02 139.63,-674.4 138.43,-667.29"/>
<text text-anchor="middle" x="93.5" y="-450.5" font-family="Helvetica,sans-Serif" font-size="10.00"> #updatables</text>
</g>
<!-- Node7 -->
<g id="node7" class="node">
<title>Node7</title>
<g id="a_node7"><a xlink:href="../../df/de5/classBankable_1_1SingleAddress.html" target="_top" xlink:title=" ">
<polygon fill="white" stroke="black" points="511,-413.5 511,-492.5 632,-492.5 632,-413.5 511,-413.5"/>
<text text-anchor="middle" x="571.5" y="-480.5" font-family="Helvetica,sans-Serif" font-size="10.00">SingleAddress</text>
<polyline fill="none" stroke="black" points="511,-473.5 632,-473.5 "/>
<text text-anchor="middle" x="571.5" y="-461.5" font-family="Helvetica,sans-Serif" font-size="10.00"> </text>
<polyline fill="none" stroke="black" points="511,-454.5 632,-454.5 "/>
<text text-anchor="start" x="519" y="-442.5" font-family="Helvetica,sans-Serif" font-size="10.00">+ SingleAddress()</text>
<text text-anchor="start" x="519" y="-431.5" font-family="Helvetica,sans-Serif" font-size="10.00">+ getBaseAddress()</text>
<text text-anchor="start" x="519" y="-420.5" font-family="Helvetica,sans-Serif" font-size="10.00">+ getActiveAddress()</text>
</a>
</g>
</g>
<!-- Node7&#45;&gt;Node1 -->
<g id="edge8" class="edge">
<title>Node7&#45;&gt;Node1</title>
<path fill="none" stroke="#404040" d="M571.5,-413.27C571.5,-367.02 571.5,-288.51 571.5,-229.41"/>
<polygon fill="none" stroke="#404040" points="571.5,-229.11 567.5,-223.11 571.5,-217.11 575.5,-223.11 571.5,-229.11"/>
<text text-anchor="middle" x="594.5" y="-326.5" font-family="Helvetica,sans-Serif" font-size="10.00"> &#45;address</text>
</g>
<!-- Node8 -->
<g id="node8" class="node">
<title>Node8</title>
<g id="a_node8"><a xlink:href="../../d2/d97/classOutputBankableMIDIAddress.html" target="_top" xlink:title="A base class for all MIDIOutputElements that can be banked.">
<polygon fill="white" stroke="black" points="318,-700 318,-790 493,-790 493,-700 318,-700"/>
<text text-anchor="middle" x="405.5" y="-778" font-family="Helvetica,sans-Serif" font-size="10.00">OutputBankableMIDIAddress</text>
<polyline fill="none" stroke="black" points="318,-771 493,-771 "/>
<text text-anchor="start" x="326" y="-759" font-family="Helvetica,sans-Serif" font-size="10.00">&#45; type</text>
<polyline fill="none" stroke="black" points="318,-752 493,-752 "/>
<text text-anchor="start" x="326" y="-740" font-family="Helvetica,sans-Serif" font-size="10.00">+ OutputBankableMIDIAddress()</text>
<text text-anchor="start" x="326" y="-729" font-family="Helvetica,sans-Serif" font-size="10.00">+ OutputBankableMIDIAddress()</text>
<text text-anchor="start" x="326" y="-718" font-family="Helvetica,sans-Serif" font-size="10.00">+ getAddressOffset()</text>
<text text-anchor="start" x="326" y="-707" font-family="Helvetica,sans-Serif" font-size="10.00">+ getAddressOffset()</text>
</a>
</g>
</g>
<!-- Node8&#45;&gt;Node7 -->
<g id="edge9" class="edge">
<title>Node8&#45;&gt;Node7</title>
<path fill="none" stroke="midnightblue" d="M435.8,-691.06C468.57,-633.82 520.02,-543.94 549.25,-492.88"/>
<polygon fill="none" stroke="midnightblue" points="432.64,-689.54 430.71,-699.96 438.72,-693.02 432.64,-689.54"/>
</g>
<!-- Node9 -->
<g id="node9" class="node">
<title>Node9</title>
<g id="a_node9"><a xlink:href="../../d2/d4e/classOutputBankableMIDIAddress__Base.html" target="_top" xlink:title="Class for keeping track of the active bank, and allows locking of the bank setting.">
<polygon fill="white" stroke="black" points="313,-932.5 313,-1055.5 498,-1055.5 498,-932.5 313,-932.5"/>
<text text-anchor="middle" x="405.5" y="-1043.5" font-family="Helvetica,sans-Serif" font-size="10.00">OutputBankableMIDIAddress_Base</text>
<polyline fill="none" stroke="black" points="313,-1036.5 498,-1036.5 "/>
<text text-anchor="start" x="321" y="-1024.5" font-family="Helvetica,sans-Serif" font-size="10.00">&#45; lockedSetting</text>
<text text-anchor="start" x="321" y="-1013.5" font-family="Helvetica,sans-Serif" font-size="10.00">&#45; UNLOCKED</text>
<polyline fill="none" stroke="black" points="313,-1006.5 498,-1006.5 "/>
<text text-anchor="start" x="321" y="-994.5" font-family="Helvetica,sans-Serif" font-size="10.00">+ getRawBankSetting()</text>
<text text-anchor="start" x="321" y="-983.5" font-family="Helvetica,sans-Serif" font-size="10.00">+ getSelection()</text>
<text text-anchor="start" x="321" y="-972.5" font-family="Helvetica,sans-Serif" font-size="10.00">+ lock()</text>
<text text-anchor="start" x="321" y="-961.5" font-family="Helvetica,sans-Serif" font-size="10.00">+ unlock()</text>
<text text-anchor="start" x="321" y="-950.5" font-family="Helvetica,sans-Serif" font-size="10.00"># OutputBankableMIDIAddress</text>
<text text-anchor="start" x="321" y="-939.5" font-family="Helvetica,sans-Serif" font-size="10.00">_Base()</text>
</a>
</g>
</g>
<!-- Node9&#45;&gt;Node8 -->
<g id="edge10" class="edge">
<title>Node9&#45;&gt;Node8</title>
<path fill="none" stroke="midnightblue" d="M405.5,-922.24C405.5,-879.69 405.5,-826.86 405.5,-790.19"/>
<polygon fill="none" stroke="midnightblue" points="402,-922.26 405.5,-932.26 409,-922.26 402,-922.26"/>
</g>
<!-- Node10 -->
<g id="node10" class="node">
<title>Node10</title>
<g id="a_node10"><a xlink:href="../../d9/d36/classOutputBank.html" target="_top" xlink:title="A class for changing the address of BankableMIDIOutputs.">
<polygon fill="white" stroke="black" points="342.5,-1103.5 342.5,-1248.5 468.5,-1248.5 468.5,-1103.5 342.5,-1103.5"/>
<text text-anchor="middle" x="405.5" y="-1236.5" font-family="Helvetica,sans-Serif" font-size="10.00">OutputBank</text>
<polyline fill="none" stroke="black" points="342.5,-1229.5 468.5,-1229.5 "/>
<text text-anchor="start" x="350.5" y="-1217.5" font-family="Helvetica,sans-Serif" font-size="10.00">&#45; tracksPerBank</text>
<text text-anchor="start" x="350.5" y="-1206.5" font-family="Helvetica,sans-Serif" font-size="10.00">&#45; bankSetting</text>
<text text-anchor="start" x="350.5" y="-1195.5" font-family="Helvetica,sans-Serif" font-size="10.00">&#45; selectionOffset</text>
<polyline fill="none" stroke="black" points="342.5,-1188.5 468.5,-1188.5 "/>
<text text-anchor="start" x="350.5" y="-1176.5" font-family="Helvetica,sans-Serif" font-size="10.00">+ OutputBank()</text>
<text text-anchor="start" x="350.5" y="-1165.5" font-family="Helvetica,sans-Serif" font-size="10.00">+ select()</text>
<text text-anchor="start" x="350.5" y="-1154.5" font-family="Helvetica,sans-Serif" font-size="10.00">+ getSelection()</text>
<text text-anchor="start" x="350.5" y="-1143.5" font-family="Helvetica,sans-Serif" font-size="10.00">+ getSelectionOffset()</text>
<text text-anchor="start" x="350.5" y="-1132.5" font-family="Helvetica,sans-Serif" font-size="10.00">+ getTracksPerBank()</text>
<text text-anchor="start" x="350.5" y="-1121.5" font-family="Helvetica,sans-Serif" font-size="10.00">+ getOffsetOfSetting()</text>
<text text-anchor="start" x="350.5" y="-1110.5" font-family="Helvetica,sans-Serif" font-size="10.00">+ getOffset()</text>
</a>
</g>
</g>
<!-- Node10&#45;&gt;Node9 -->
<g id="edge11" class="edge">
<title>Node10&#45;&gt;Node9</title>
<path fill="none" stroke="#404040" d="M405.5,-1103.34C405.5,-1091.63 405.5,-1079.48 405.5,-1067.74"/>
<polygon fill="none" stroke="#404040" points="405.5,-1067.69 401.5,-1061.69 405.5,-1055.69 409.5,-1061.69 405.5,-1067.69"/>
<text text-anchor="middle" x="423.5" y="-1077" font-family="Helvetica,sans-Serif" font-size="10.00"> #bank</text>
</g>
<!-- Node11 -->
<g id="node11" class="node">
<title>Node11</title>
<g id="a_node11"><a xlink:href="../../d7/d0f/classMIDIAddress.html" target="_top" xlink:title="A type&#45;safe utility class for saving a MIDI address consisting of a 7&#45;bit address,...">
<polygon fill="white" stroke="black" points="511.5,-595.5 511.5,-894.5 653.5,-894.5 653.5,-595.5 511.5,-595.5"/>
<text text-anchor="middle" x="582.5" y="-882.5" font-family="Helvetica,sans-Serif" font-size="10.00">MIDIAddress</text>
<polyline fill="none" stroke="black" points="511.5,-875.5 653.5,-875.5 "/>
<text text-anchor="start" x="519.5" y="-863.5" font-family="Helvetica,sans-Serif" font-size="10.00">&#45; addresses</text>
<polyline fill="none" stroke="black" points="511.5,-856.5 653.5,-856.5 "/>
<text text-anchor="start" x="519.5" y="-844.5" font-family="Helvetica,sans-Serif" font-size="10.00">* MIDIAddress()</text>
<text text-anchor="start" x="519.5" y="-833.5" font-family="Helvetica,sans-Serif" font-size="10.00">* MIDIAddress()</text>
<text text-anchor="start" x="519.5" y="-822.5" font-family="Helvetica,sans-Serif" font-size="10.00">* MIDIAddress()</text>
<text text-anchor="start" x="519.5" y="-811.5" font-family="Helvetica,sans-Serif" font-size="10.00">* MIDIAddress()</text>
<text text-anchor="start" x="519.5" y="-800.5" font-family="Helvetica,sans-Serif" font-size="10.00">* MIDIAddress()</text>
<text text-anchor="start" x="519.5" y="-789.5" font-family="Helvetica,sans-Serif" font-size="10.00">* MIDIAddress()</text>
<text text-anchor="start" x="519.5" y="-778.5" font-family="Helvetica,sans-Serif" font-size="10.00">* invalid()</text>
<text text-anchor="start" x="519.5" y="-767.5" font-family="Helvetica,sans-Serif" font-size="10.00">* operator+=()</text>
<text text-anchor="start" x="519.5" y="-756.5" font-family="Helvetica,sans-Serif" font-size="10.00">* operator&#45;=()</text>
<text text-anchor="start" x="519.5" y="-745.5" font-family="Helvetica,sans-Serif" font-size="10.00">* operator+()</text>
<text text-anchor="start" x="519.5" y="-734.5" font-family="Helvetica,sans-Serif" font-size="10.00">* operator&#45;()</text>
<text text-anchor="start" x="519.5" y="-723.5" font-family="Helvetica,sans-Serif" font-size="10.00">* getAddress()</text>
<text text-anchor="start" x="519.5" y="-712.5" font-family="Helvetica,sans-Serif" font-size="10.00">* getChannel()</text>
<text text-anchor="start" x="519.5" y="-701.5" font-family="Helvetica,sans-Serif" font-size="10.00">* getRawChannel()</text>
<text text-anchor="start" x="519.5" y="-690.5" font-family="Helvetica,sans-Serif" font-size="10.00">* getCableNumber()</text>
<text text-anchor="start" x="519.5" y="-679.5" font-family="Helvetica,sans-Serif" font-size="10.00">* getRawCableNumber()</text>
<text text-anchor="start" x="519.5" y="-668.5" font-family="Helvetica,sans-Serif" font-size="10.00">* getChannelCable()</text>
<text text-anchor="start" x="519.5" y="-657.5" font-family="Helvetica,sans-Serif" font-size="10.00">* operator==()</text>
<text text-anchor="start" x="519.5" y="-646.5" font-family="Helvetica,sans-Serif" font-size="10.00">* operator!=()</text>
<text text-anchor="start" x="519.5" y="-635.5" font-family="Helvetica,sans-Serif" font-size="10.00">* isValid()</text>
<text text-anchor="start" x="519.5" y="-624.5" font-family="Helvetica,sans-Serif" font-size="10.00">* operator bool()</text>
<text text-anchor="start" x="519.5" y="-613.5" font-family="Helvetica,sans-Serif" font-size="10.00">* matchSingle()</text>
<text text-anchor="start" x="519.5" y="-602.5" font-family="Helvetica,sans-Serif" font-size="10.00">* matchAddressInRange()</text>
</a>
</g>
</g>
<!-- Node11&#45;&gt;Node7 -->
<g id="edge12" class="edge">
<title>Node11&#45;&gt;Node7</title>
<path fill="none" stroke="#404040" d="M576.85,-595.18C575.62,-562.7 574.4,-530.48 573.44,-505.03"/>
<polygon fill="none" stroke="#404040" points="573.42,-504.74 569.2,-498.9 572.97,-492.75 577.19,-498.59 573.42,-504.74"/>
<text text-anchor="middle" x="599.5" y="-569" font-family="Helvetica,sans-Serif" font-size="10.00"> &#45;address</text>
</g>
<!-- Node12 -->
<g id="node12" class="node">
<title>Node12</title>
<g id="a_node12"><a xlink:href="../../de/d0d/classAH_1_1Button.html" target="_top" xlink:title="A class for reading and debouncing buttons and switches.">
<polygon fill="white" stroke="black" points="655.5,-358.5 655.5,-547.5 793.5,-547.5 793.5,-358.5 655.5,-358.5"/>
<text text-anchor="middle" x="724.5" y="-535.5" font-family="Helvetica,sans-Serif" font-size="10.00">Button</text>
<polyline fill="none" stroke="black" points="655.5,-528.5 793.5,-528.5 "/>
<text text-anchor="start" x="663.5" y="-516.5" font-family="Helvetica,sans-Serif" font-size="10.00">&#45; pin</text>
<text text-anchor="start" x="663.5" y="-505.5" font-family="Helvetica,sans-Serif" font-size="10.00">&#45; debounceTime</text>
<polyline fill="none" stroke="black" points="655.5,-498.5 793.5,-498.5 "/>
<text text-anchor="start" x="663.5" y="-486.5" font-family="Helvetica,sans-Serif" font-size="10.00">+ Button()</text>
<text text-anchor="start" x="663.5" y="-475.5" font-family="Helvetica,sans-Serif" font-size="10.00">+ Button()</text>
<text text-anchor="start" x="663.5" y="-464.5" font-family="Helvetica,sans-Serif" font-size="10.00">+ begin()</text>
<text text-anchor="start" x="663.5" y="-453.5" font-family="Helvetica,sans-Serif" font-size="10.00">+ invert()</text>
<text text-anchor="start" x="663.5" y="-442.5" font-family="Helvetica,sans-Serif" font-size="10.00">+ update()</text>
<text text-anchor="start" x="663.5" y="-431.5" font-family="Helvetica,sans-Serif" font-size="10.00">+ getState()</text>
<text text-anchor="start" x="663.5" y="-420.5" font-family="Helvetica,sans-Serif" font-size="10.00">+ previousBounceTime()</text>
<text text-anchor="start" x="663.5" y="-409.5" font-family="Helvetica,sans-Serif" font-size="10.00">+ stableTime()</text>
<text text-anchor="start" x="663.5" y="-398.5" font-family="Helvetica,sans-Serif" font-size="10.00">+ stableTime()</text>
<text text-anchor="start" x="663.5" y="-387.5" font-family="Helvetica,sans-Serif" font-size="10.00">+ getName()</text>
<text text-anchor="start" x="663.5" y="-376.5" font-family="Helvetica,sans-Serif" font-size="10.00">+ setDebounceTime()</text>
<text text-anchor="start" x="663.5" y="-365.5" font-family="Helvetica,sans-Serif" font-size="10.00">+ getDebounceTime()</text>
</a>
</g>
</g>
<!-- Node12&#45;&gt;Node1 -->
<g id="edge13" class="edge">
<title>Node12&#45;&gt;Node1</title>
<path fill="none" stroke="#404040" d="M676.93,-358.41C655.68,-316.61 630.94,-267.94 610.77,-228.25"/>
<polygon fill="none" stroke="#404040" points="610.64,-228.01 604.36,-224.47 605.21,-217.31 611.49,-220.85 610.64,-228.01"/>
<text text-anchor="middle" x="686" y="-326.5" font-family="Helvetica,sans-Serif" font-size="10.00"> &#45;button</text>
</g>
<!-- Node13 -->
<g id="node13" class="node">
<title>Node13</title>
<g id="a_node13"><a xlink:href="../../dc/db4/structAH_1_1Button_1_1InternalState.html" target="_top" xlink:title=" ">
<polygon fill="white" stroke="black" points="671.5,-694.5 671.5,-795.5 781.5,-795.5 781.5,-694.5 671.5,-694.5"/>
<text text-anchor="middle" x="726.5" y="-783.5" font-family="Helvetica,sans-Serif" font-size="10.00">InternalState</text>
<polyline fill="none" stroke="black" points="671.5,-776.5 781.5,-776.5 "/>
<text text-anchor="start" x="679.5" y="-764.5" font-family="Helvetica,sans-Serif" font-size="10.00">+ debounced</text>
<text text-anchor="start" x="679.5" y="-753.5" font-family="Helvetica,sans-Serif" font-size="10.00">+ bouncing</text>
<text text-anchor="start" x="679.5" y="-742.5" font-family="Helvetica,sans-Serif" font-size="10.00">+ prevInput</text>
<text text-anchor="start" x="679.5" y="-731.5" font-family="Helvetica,sans-Serif" font-size="10.00">+ invert</text>
<text text-anchor="start" x="679.5" y="-720.5" font-family="Helvetica,sans-Serif" font-size="10.00">+ prevBounceTime</text>
<polyline fill="none" stroke="black" points="671.5,-713.5 781.5,-713.5 "/>
<text text-anchor="start" x="679.5" y="-701.5" font-family="Helvetica,sans-Serif" font-size="10.00">+ InternalState()</text>
</a>
</g>
</g>
<!-- Node13&#45;&gt;Node12 -->
<g id="edge14" class="edge">
<title>Node13&#45;&gt;Node12</title>
<path fill="none" stroke="#404040" d="M726.16,-694.48C725.9,-657.57 725.55,-605.82 725.23,-559.77"/>
<polygon fill="none" stroke="#404040" points="725.23,-559.58 721.19,-553.61 725.15,-547.58 729.19,-553.55 725.23,-559.58"/>
<text text-anchor="middle" x="741.5" y="-569" font-family="Helvetica,sans-Serif" font-size="10.00"> &#45;state</text>
</g>
</g>
</svg>
