<?xml version="1.0" encoding="UTF-8" standalone="no"?>
<!DOCTYPE svg PUBLIC "-//W3C//DTD SVG 1.1//EN"
 "http://www.w3.org/Graphics/SVG/1.1/DTD/svg11.dtd">
<!-- Generated by graphviz version 2.43.0 (0)
 -->
<!-- Title: PrintStream.cpp Pages: 1 -->
<svg width="510pt" height="308pt"
 viewBox="0.00 0.00 510.40 308.00" xmlns="http://www.w3.org/2000/svg" xmlns:xlink="http://www.w3.org/1999/xlink">
<g id="graph0" class="graph" transform="scale(1 1) rotate(0) translate(4 304)">
<title>PrintStream.cpp</title>
<polygon fill="white" stroke="transparent" points="-4,4 -4,-304 506.4,-304 506.4,4 -4,4"/>
<!-- Node1 -->
<g id="node1" class="node">
<title>Node1</title>
<g id="a_node1"><a xlink:title=" ">
<polygon fill="#bfbfbf" stroke="black" points="131.4,-280.5 131.4,-299.5 226.4,-299.5 226.4,-280.5 131.4,-280.5"/>
<text text-anchor="middle" x="178.9" y="-287.5" font-family="Helvetica,sans-Serif" font-size="10.00">PrintStream.cpp</text>
</a>
</g>
</g>
<!-- Node2 -->
<g id="node2" class="node">
<title>Node2</title>
<g id="a_node2"><a xlink:href="../../dd/d80/PrintStream_8hpp.html" target="_top" xlink:title=" ">
<polygon fill="white" stroke="black" points="131.4,-224.5 131.4,-243.5 226.4,-243.5 226.4,-224.5 131.4,-224.5"/>
<text text-anchor="middle" x="178.9" y="-231.5" font-family="Helvetica,sans-Serif" font-size="10.00">PrintStream.hpp</text>
</a>
</g>
</g>
<!-- Node1&#45;&gt;Node2 -->
<g id="edge1" class="edge">
<title>Node1&#45;&gt;Node2</title>
<path fill="none" stroke="midnightblue" d="M178.9,-280.08C178.9,-273.01 178.9,-262.86 178.9,-253.99"/>
<polygon fill="midnightblue" stroke="midnightblue" points="182.4,-253.75 178.9,-243.75 175.4,-253.75 182.4,-253.75"/>
</g>
<!-- Node3 -->
<g id="node3" class="node">
<title>Node3</title>
<g id="a_node3"><a xlink:href="../../dc/dc7/NamespaceSettings_8hpp.html" target="_top" xlink:title=" ">
<polygon fill="white" stroke="black" points="19.4,-56.5 19.4,-75.5 214.4,-75.5 214.4,-56.5 19.4,-56.5"/>
<text text-anchor="middle" x="116.9" y="-63.5" font-family="Helvetica,sans-Serif" font-size="10.00">AH/Settings/NamespaceSettings.hpp</text>
</a>
</g>
</g>
<!-- Node2&#45;&gt;Node3 -->
<g id="edge2" class="edge">
<title>Node2&#45;&gt;Node3</title>
<path fill="none" stroke="midnightblue" d="M178.15,-224.39C176.11,-203.98 169.34,-151.46 150.9,-112 146.04,-101.6 138.49,-91.28 131.75,-83.16"/>
<polygon fill="midnightblue" stroke="midnightblue" points="134.35,-80.82 125.15,-75.57 129.07,-85.42 134.35,-80.82"/>
</g>
<!-- Node4 -->
<g id="node4" class="node">
<title>Node4</title>
<g id="a_node4"><a xlink:href="../../d1/d65/Warnings_8hpp.html" target="_top" xlink:title=" ">
<polygon fill="white" stroke="black" points="359.4,-0.5 359.4,-19.5 502.4,-19.5 502.4,-0.5 359.4,-0.5"/>
<text text-anchor="middle" x="430.9" y="-7.5" font-family="Helvetica,sans-Serif" font-size="10.00">AH/Settings/Warnings.hpp</text>
</a>
</g>
</g>
<!-- Node2&#45;&gt;Node4 -->
<g id="edge3" class="edge">
<title>Node2&#45;&gt;Node4</title>
<path fill="none" stroke="midnightblue" d="M213.77,-224.43C272.92,-207.7 390.41,-164.33 430.9,-76 437.51,-61.57 436.86,-43.38 434.93,-29.92"/>
<polygon fill="midnightblue" stroke="midnightblue" points="438.34,-29.13 433.14,-19.9 431.45,-30.36 438.34,-29.13"/>
</g>
<!-- Node5 -->
<g id="node5" class="node">
<title>Node5</title>
<g id="a_node5"><a xlink:href="../../d6/ddf/Arduino-Wrapper_8h.html" target="_top" xlink:title=" ">
<polygon fill="white" stroke="black" points="26.9,-168.5 26.9,-187.5 150.9,-187.5 150.9,-168.5 26.9,-168.5"/>
<text text-anchor="middle" x="88.9" y="-175.5" font-family="Helvetica,sans-Serif" font-size="10.00">AH/Arduino&#45;Wrapper.h</text>
</a>
</g>
</g>
<!-- Node2&#45;&gt;Node5 -->
<g id="edge4" class="edge">
<title>Node2&#45;&gt;Node5</title>
<path fill="none" stroke="midnightblue" d="M164.44,-224.32C150.4,-215.9 128.85,-202.97 112.35,-193.07"/>
<polygon fill="midnightblue" stroke="midnightblue" points="113.7,-189.8 103.32,-187.65 110.1,-195.8 113.7,-189.8"/>
</g>
<!-- Node6 -->
<g id="node6" class="node">
<title>Node6</title>
<g id="a_node6"><a xlink:href="../../d7/d79/MinMaxFix_8hpp.html" target="_top" xlink:title=" ">
<polygon fill="white" stroke="black" points="220.9,-112.5 220.9,-131.5 356.9,-131.5 356.9,-112.5 220.9,-112.5"/>
<text text-anchor="middle" x="288.9" y="-119.5" font-family="Helvetica,sans-Serif" font-size="10.00">AH/Math/MinMaxFix.hpp</text>
</a>
</g>
</g>
<!-- Node5&#45;&gt;Node6 -->
<g id="edge5" class="edge">
<title>Node5&#45;&gt;Node6</title>
<path fill="none" stroke="midnightblue" d="M120.59,-168.44C154.97,-159.16 209.97,-144.31 247.69,-134.13"/>
<polygon fill="midnightblue" stroke="midnightblue" points="248.61,-137.5 257.36,-131.52 246.79,-130.74 248.61,-137.5"/>
</g>
<!-- Node8 -->
<g id="node8" class="node">
<title>Node8</title>
<g id="a_node8"><a xlink:title=" ">
<polygon fill="white" stroke="#bfbfbf" points="119.4,-0.5 119.4,-19.5 182.4,-19.5 182.4,-0.5 119.4,-0.5"/>
<text text-anchor="middle" x="150.9" y="-7.5" font-family="Helvetica,sans-Serif" font-size="10.00">Arduino.h</text>
</a>
</g>
</g>
<!-- Node5&#45;&gt;Node8 -->
<g id="edge12" class="edge">
<title>Node5&#45;&gt;Node8</title>
<path fill="none" stroke="midnightblue" d="M70.84,-168.41C56.63,-160.76 37.37,-148.25 25.9,-132 6,-103.79 -10.46,-83.87 9.9,-56 32.4,-25.2 76.21,-14.99 109.05,-11.85"/>
<polygon fill="midnightblue" stroke="midnightblue" points="109.59,-15.31 119.29,-11.06 109.05,-8.34 109.59,-15.31"/>
</g>
<!-- Node9 -->
<g id="node9" class="node">
<title>Node9</title>
<g id="a_node9"><a xlink:title=" ">
<polygon fill="white" stroke="#bfbfbf" points="35.4,-112.5 35.4,-131.5 142.4,-131.5 142.4,-112.5 35.4,-112.5"/>
<text text-anchor="middle" x="88.9" y="-119.5" font-family="Helvetica,sans-Serif" font-size="10.00">AH/STL/type_traits</text>
</a>
</g>
</g>
<!-- Node5&#45;&gt;Node9 -->
<g id="edge11" class="edge">
<title>Node5&#45;&gt;Node9</title>
<path fill="none" stroke="midnightblue" d="M88.9,-168.08C88.9,-161.01 88.9,-150.86 88.9,-141.99"/>
<polygon fill="midnightblue" stroke="midnightblue" points="92.4,-141.75 88.9,-131.75 85.4,-141.75 92.4,-141.75"/>
</g>
<!-- Node6&#45;&gt;Node3 -->
<g id="edge10" class="edge">
<title>Node6&#45;&gt;Node3</title>
<path fill="none" stroke="midnightblue" d="M261.64,-112.44C232.46,-103.28 185.98,-88.69 153.59,-78.52"/>
<polygon fill="midnightblue" stroke="midnightblue" points="154.61,-75.17 144.02,-75.52 152.52,-81.85 154.61,-75.17"/>
</g>
<!-- Node6&#45;&gt;Node4 -->
<g id="edge6" class="edge">
<title>Node6&#45;&gt;Node4</title>
<path fill="none" stroke="midnightblue" d="M343.47,-112.46C367.4,-106.11 394.03,-95.09 411.9,-76 423.56,-63.54 428.11,-44.3 429.86,-29.99"/>
<polygon fill="midnightblue" stroke="midnightblue" points="433.36,-30.05 430.74,-19.78 426.39,-29.44 433.36,-30.05"/>
</g>
<!-- Node7 -->
<g id="node7" class="node">
<title>Node7</title>
<g id="a_node7"><a xlink:href="../../d6/d3b/FixArduinoMacros_8hpp.html" target="_top" xlink:title=" ">
<polygon fill="white" stroke="black" points="232.9,-56.5 232.9,-75.5 402.9,-75.5 402.9,-56.5 232.9,-56.5"/>
<text text-anchor="middle" x="317.9" y="-63.5" font-family="Helvetica,sans-Serif" font-size="10.00">AH/Math/FixArduinoMacros.hpp</text>
</a>
</g>
</g>
<!-- Node6&#45;&gt;Node7 -->
<g id="edge7" class="edge">
<title>Node6&#45;&gt;Node7</title>
<path fill="none" stroke="midnightblue" d="M293.69,-112.08C297.66,-104.69 303.42,-93.95 308.33,-84.81"/>
<polygon fill="midnightblue" stroke="midnightblue" points="311.55,-86.22 313.2,-75.75 305.38,-82.91 311.55,-86.22"/>
</g>
<!-- Node7&#45;&gt;Node4 -->
<g id="edge8" class="edge">
<title>Node7&#45;&gt;Node4</title>
<path fill="none" stroke="midnightblue" d="M335.8,-56.44C354.15,-47.68 382.9,-33.94 403.99,-23.86"/>
<polygon fill="midnightblue" stroke="midnightblue" points="405.56,-26.99 413.08,-19.52 402.54,-20.67 405.56,-26.99"/>
</g>
<!-- Node7&#45;&gt;Node8 -->
<g id="edge9" class="edge">
<title>Node7&#45;&gt;Node8</title>
<path fill="none" stroke="midnightblue" d="M291.44,-56.44C263.22,-47.32 218.36,-32.81 186.93,-22.65"/>
<polygon fill="midnightblue" stroke="midnightblue" points="187.83,-19.26 177.24,-19.52 185.67,-25.92 187.83,-19.26"/>
</g>
</g>
</svg>
