<?xml version="1.0" encoding="UTF-8" standalone="no"?>
<!DOCTYPE svg PUBLIC "-//W3C//DTD SVG 1.1//EN"
 "http://www.w3.org/Graphics/SVG/1.1/DTD/svg11.dtd">
<!-- Generated by graphviz version 2.43.0 (0)
 -->
<!-- Title: CCButtonLatching Pages: 1 -->
<svg width="196pt" height="843pt"
 viewBox="0.00 0.00 196.00 843.00" xmlns="http://www.w3.org/2000/svg" xmlns:xlink="http://www.w3.org/1999/xlink">
<g id="graph0" class="graph" transform="scale(1 1) rotate(0) translate(4 839)">
<title>CCButtonLatching</title>
<!-- Node1 -->
<g id="Node000001" class="node">
<title>Node1</title>
<g id="a_Node000001"><a xlink:title="A class of MIDIOutputElements that read the input of a latching push button or toggle switch,...">
<polygon fill="#999999" stroke="transparent" points="152,-49 36,-49 36,0 152,0 152,-49"/>
<text text-anchor="start" x="50" y="-36.5" font-family="Helvetica,sans-Serif" font-size="10.00">CCButtonLatching</text>
<text text-anchor="start" x="92" y="-21.5" font-family="Helvetica,sans-Serif" font-size="10.00"> </text>
<text text-anchor="start" x="40" y="-6.5" font-family="Helvetica,sans-Serif" font-size="10.00">+</text>
<text text-anchor="start" x="53" y="-6.5" font-family="Helvetica,sans-Serif" font-size="10.00">CCButtonLatching()</text>
<polygon fill="#666666" stroke="#666666" points="36,-31.5 36,-31.5 152,-31.5 152,-31.5 36,-31.5"/>
<polygon fill="#666666" stroke="#666666" points="36,-16.5 36,-16.5 152,-16.5 152,-16.5 36,-16.5"/>
<polygon fill="none" stroke="#666666" points="36,0 36,-49 152,-49 152,0 36,0"/>
</a>
</g>
</g>
<!-- Node2 -->
<g id="Node000002" class="node">
<title>Node2</title>
<g id="a_Node000002"><a xlink:href="../../d3/d0b/classBankable_1_1MIDIButtonLatching.html" target="_top" xlink:title=" ">
<polygon fill="white" stroke="transparent" points="188,-220 0,-220 0,-85 188,-85 188,-220"/>
<text text-anchor="start" x="5" y="-207.5" font-family="Helvetica,sans-Serif" font-size="10.00">MIDIButtonLatching</text>
<text text-anchor="start" x="5" y="-196.5" font-family="Helvetica,sans-Serif" font-size="10.00">&lt; SingleAddress, DigitalCCSender &gt;</text>
<text text-anchor="start" x="19.5" y="-181.5" font-family="Helvetica,sans-Serif" font-size="10.00">+</text>
<text text-anchor="start" x="48" y="-181.5" font-family="Helvetica,sans-Serif" font-size="10.00">sender</text>
<text text-anchor="start" x="19.5" y="-166.5" font-family="Helvetica,sans-Serif" font-size="10.00">#</text>
<text text-anchor="start" x="48" y="-166.5" font-family="Helvetica,sans-Serif" font-size="10.00">address</text>
<text text-anchor="start" x="19.5" y="-151.5" font-family="Helvetica,sans-Serif" font-size="10.00">#</text>
<text text-anchor="start" x="48" y="-151.5" font-family="Helvetica,sans-Serif" font-size="10.00">button</text>
<text text-anchor="start" x="19.5" y="-136.5" font-family="Helvetica,sans-Serif" font-size="10.00">+</text>
<text text-anchor="start" x="48" y="-136.5" font-family="Helvetica,sans-Serif" font-size="10.00">begin()</text>
<text text-anchor="start" x="19.5" y="-121.5" font-family="Helvetica,sans-Serif" font-size="10.00">+</text>
<text text-anchor="start" x="48" y="-121.5" font-family="Helvetica,sans-Serif" font-size="10.00">update()</text>
<text text-anchor="start" x="19.5" y="-106.5" font-family="Helvetica,sans-Serif" font-size="10.00">+</text>
<text text-anchor="start" x="48" y="-106.5" font-family="Helvetica,sans-Serif" font-size="10.00">getButtonState()</text>
<text text-anchor="start" x="19.5" y="-91.5" font-family="Helvetica,sans-Serif" font-size="10.00">#</text>
<text text-anchor="start" x="48" y="-91.5" font-family="Helvetica,sans-Serif" font-size="10.00">MIDIButtonLatching()</text>
<polygon fill="#666666" stroke="#666666" points="0,-191.5 0,-191.5 188,-191.5 188,-191.5 0,-191.5"/>
<polygon fill="#666666" stroke="#666666" points="0,-146.5 0,-146.5 46,-146.5 46,-146.5 0,-146.5"/>
<polygon fill="#666666" stroke="#666666" points="46,-146.5 46,-146.5 188,-146.5 188,-146.5 46,-146.5"/>
<polygon fill="none" stroke="#666666" points="0,-85 0,-220 188,-220 188,-85 0,-85"/>
</a>
</g>
</g>
<!-- Node2&#45;&gt;Node1 -->
<g id="edge1_Node000001_Node000002" class="edge">
<title>Node2&#45;&gt;Node1</title>
<g id="a_edge1_Node000001_Node000002"><a xlink:title=" ">
<path fill="none" stroke="#63b8ff" d="M94,-74.73C94,-65.56 94,-56.79 94,-49.26"/>
<polygon fill="none" stroke="#63b8ff" points="90.5,-74.81 94,-84.81 97.5,-74.81 90.5,-74.81"/>
</a>
</g>
</g>
<!-- Node3 -->
<g id="Node000003" class="node">
<title>Node3</title>
<g id="a_Node000003"><a xlink:href="../../d1/d55/classAH_1_1Updatable.html" target="_top" xlink:title="A super class for object that have to be updated regularly.">
<polygon fill="white" stroke="transparent" points="147.5,-350 40.5,-350 40.5,-256 147.5,-256 147.5,-350"/>
<text text-anchor="start" x="46" y="-338" font-family="Helvetica,sans-Serif" font-size="10.00">MIDIOutputElement</text>
<text text-anchor="start" x="92.5" y="-323" font-family="Helvetica,sans-Serif" font-size="10.00"> </text>
<text text-anchor="start" x="53.5" y="-308" font-family="Helvetica,sans-Serif" font-size="10.00">*</text>
<text text-anchor="start" x="72" y="-308" font-family="Helvetica,sans-Serif" font-size="10.00">begin()</text>
<text text-anchor="start" x="53.5" y="-293" font-family="Helvetica,sans-Serif" font-size="10.00">*</text>
<text text-anchor="start" x="72" y="-293" font-family="Helvetica,sans-Serif" font-size="10.00">update()</text>
<text text-anchor="start" x="53.5" y="-278" font-family="Helvetica,sans-Serif" font-size="10.00">*</text>
<text text-anchor="start" x="72" y="-278" font-family="Helvetica,sans-Serif" font-size="10.00">beginAll()</text>
<text text-anchor="start" x="53.5" y="-263" font-family="Helvetica,sans-Serif" font-size="10.00">*</text>
<text text-anchor="start" x="72" y="-263" font-family="Helvetica,sans-Serif" font-size="10.00">updateAll()</text>
<polygon fill="#666666" stroke="#666666" points="41,-333 41,-333 148,-333 148,-333 41,-333"/>
<polygon fill="#666666" stroke="#666666" points="41,-318 41,-318 148,-318 148,-318 41,-318"/>
<polygon fill="none" stroke="#666666" points="40.5,-256 40.5,-350 147.5,-350 147.5,-256 40.5,-256"/>
</a>
</g>
</g>
<!-- Node3&#45;&gt;Node2 -->
<g id="edge2_Node000002_Node000003" class="edge">
<title>Node3&#45;&gt;Node2</title>
<g id="a_edge2_Node000002_Node000003"><a xlink:title=" ">
<path fill="none" stroke="#63b8ff" d="M94,-245.78C94,-237.39 94,-228.67 94,-220.09"/>
<polygon fill="none" stroke="#63b8ff" points="90.5,-245.83 94,-255.83 97.5,-245.83 90.5,-245.83"/>
</a>
</g>
</g>
<!-- Node4 -->
<g id="Node000004" class="node">
<title>Node4</title>
<g id="a_Node000004"><a xlink:href="../../d8/d1a/classAH_1_1UpdatableCRTP.html" target="_top" xlink:title="A super class for object that have to be updated regularly.">
<polygon fill="white" stroke="transparent" points="167,-660 21,-660 21,-386 167,-386 167,-660"/>
<text text-anchor="start" x="26" y="-648" font-family="Helvetica,sans-Serif" font-size="10.00">UpdatableCRTP&lt; Derived &gt;</text>
<text text-anchor="start" x="33.5" y="-633" font-family="Helvetica,sans-Serif" font-size="10.00">#</text>
<text text-anchor="start" x="55" y="-633" font-family="Helvetica,sans-Serif" font-size="10.00">updatables</text>
<text text-anchor="start" x="33.5" y="-618" font-family="Helvetica,sans-Serif" font-size="10.00">+</text>
<text text-anchor="start" x="55" y="-618" font-family="Helvetica,sans-Serif" font-size="10.00">~UpdatableCRTP()</text>
<text text-anchor="start" x="33.5" y="-603" font-family="Helvetica,sans-Serif" font-size="10.00">#</text>
<text text-anchor="start" x="55" y="-603" font-family="Helvetica,sans-Serif" font-size="10.00">UpdatableCRTP()</text>
<text text-anchor="start" x="33.5" y="-588" font-family="Helvetica,sans-Serif" font-size="10.00">#</text>
<text text-anchor="start" x="55" y="-588" font-family="Helvetica,sans-Serif" font-size="10.00">UpdatableCRTP()</text>
<text text-anchor="start" x="33.5" y="-573" font-family="Helvetica,sans-Serif" font-size="10.00">#</text>
<text text-anchor="start" x="55" y="-573" font-family="Helvetica,sans-Serif" font-size="10.00">operator=()</text>
<text text-anchor="start" x="33.5" y="-558" font-family="Helvetica,sans-Serif" font-size="10.00">#</text>
<text text-anchor="start" x="55" y="-558" font-family="Helvetica,sans-Serif" font-size="10.00">UpdatableCRTP()</text>
<text text-anchor="start" x="33.5" y="-543" font-family="Helvetica,sans-Serif" font-size="10.00">#</text>
<text text-anchor="start" x="55" y="-543" font-family="Helvetica,sans-Serif" font-size="10.00">operator=()</text>
<text text-anchor="start" x="35" y="-528" font-family="Helvetica,sans-Serif" font-size="10.00">*</text>
<text text-anchor="start" x="55" y="-528" font-family="Helvetica,sans-Serif" font-size="10.00">enable()</text>
<text text-anchor="start" x="35" y="-513" font-family="Helvetica,sans-Serif" font-size="10.00">*</text>
<text text-anchor="start" x="55" y="-513" font-family="Helvetica,sans-Serif" font-size="10.00">disable()</text>
<text text-anchor="start" x="35" y="-498" font-family="Helvetica,sans-Serif" font-size="10.00">*</text>
<text text-anchor="start" x="55" y="-498" font-family="Helvetica,sans-Serif" font-size="10.00">isEnabled()</text>
<text text-anchor="start" x="35" y="-483" font-family="Helvetica,sans-Serif" font-size="10.00">*</text>
<text text-anchor="start" x="55" y="-483" font-family="Helvetica,sans-Serif" font-size="10.00">moveDown()</text>
<text text-anchor="start" x="35" y="-468" font-family="Helvetica,sans-Serif" font-size="10.00">*</text>
<text text-anchor="start" x="55" y="-468" font-family="Helvetica,sans-Serif" font-size="10.00">enable()</text>
<text text-anchor="start" x="35" y="-453" font-family="Helvetica,sans-Serif" font-size="10.00">*</text>
<text text-anchor="start" x="55" y="-453" font-family="Helvetica,sans-Serif" font-size="10.00">enable()</text>
<text text-anchor="start" x="35" y="-438" font-family="Helvetica,sans-Serif" font-size="10.00">*</text>
<text text-anchor="start" x="55" y="-438" font-family="Helvetica,sans-Serif" font-size="10.00">enable()</text>
<text text-anchor="start" x="35" y="-423" font-family="Helvetica,sans-Serif" font-size="10.00">*</text>
<text text-anchor="start" x="55" y="-423" font-family="Helvetica,sans-Serif" font-size="10.00">disable()</text>
<text text-anchor="start" x="35" y="-408" font-family="Helvetica,sans-Serif" font-size="10.00">*</text>
<text text-anchor="start" x="55" y="-408" font-family="Helvetica,sans-Serif" font-size="10.00">disable()</text>
<text text-anchor="start" x="35" y="-393" font-family="Helvetica,sans-Serif" font-size="10.00">*</text>
<text text-anchor="start" x="55" y="-393" font-family="Helvetica,sans-Serif" font-size="10.00">disable()</text>
<polygon fill="#666666" stroke="#666666" points="21,-643 21,-643 167,-643 167,-643 21,-643"/>
<polygon fill="#666666" stroke="#666666" points="21,-628 21,-628 53,-628 53,-628 21,-628"/>
<polygon fill="#666666" stroke="#666666" points="53,-628 53,-628 167,-628 167,-628 53,-628"/>
<polygon fill="none" stroke="#666666" points="21,-386 21,-660 167,-660 167,-386 21,-386"/>
</a>
</g>
</g>
<!-- Node4&#45;&gt;Node3 -->
<g id="edge3_Node000003_Node000004" class="edge">
<title>Node4&#45;&gt;Node3</title>
<g id="a_edge3_Node000003_Node000004"><a xlink:title=" ">
<path fill="none" stroke="#63b8ff" d="M94,-375.62C94,-366.73 94,-358.22 94,-350.37"/>
<polygon fill="none" stroke="#63b8ff" points="90.5,-375.8 94,-385.8 97.5,-375.8 90.5,-375.8"/>
</a>
</g>
</g>
<!-- Node5 -->
<g id="Node000005" class="node">
<title>Node5</title>
<g id="a_Node000005"><a xlink:href="../../d4/d23/classDoublyLinkable.html" target="_top" xlink:title=" ">
<polygon fill="white" stroke="transparent" points="167,-835 21,-835 21,-696 167,-696 167,-835"/>
<text text-anchor="start" x="26" y="-822.5" font-family="Helvetica,sans-Serif" font-size="10.00">DoublyLinkable&lt; Derived &gt;</text>
<text text-anchor="start" x="33.5" y="-807.5" font-family="Helvetica,sans-Serif" font-size="10.00">#</text>
<text text-anchor="start" x="55" y="-807.5" font-family="Helvetica,sans-Serif" font-size="10.00">next</text>
<text text-anchor="start" x="33.5" y="-792.5" font-family="Helvetica,sans-Serif" font-size="10.00">#</text>
<text text-anchor="start" x="55" y="-792.5" font-family="Helvetica,sans-Serif" font-size="10.00">previous</text>
<text text-anchor="start" x="33.5" y="-777.5" font-family="Helvetica,sans-Serif" font-size="10.00">#</text>
<text text-anchor="start" x="55" y="-777.5" font-family="Helvetica,sans-Serif" font-size="10.00">~DoublyLinkable()</text>
<text text-anchor="start" x="33.5" y="-762.5" font-family="Helvetica,sans-Serif" font-size="10.00">#</text>
<text text-anchor="start" x="55" y="-762.5" font-family="Helvetica,sans-Serif" font-size="10.00">DoublyLinkable()</text>
<text text-anchor="start" x="33.5" y="-747.5" font-family="Helvetica,sans-Serif" font-size="10.00">#</text>
<text text-anchor="start" x="55" y="-747.5" font-family="Helvetica,sans-Serif" font-size="10.00">DoublyLinkable()</text>
<text text-anchor="start" x="33.5" y="-732.5" font-family="Helvetica,sans-Serif" font-size="10.00">#</text>
<text text-anchor="start" x="55" y="-732.5" font-family="Helvetica,sans-Serif" font-size="10.00">DoublyLinkable()</text>
<text text-anchor="start" x="33.5" y="-717.5" font-family="Helvetica,sans-Serif" font-size="10.00">#</text>
<text text-anchor="start" x="55" y="-717.5" font-family="Helvetica,sans-Serif" font-size="10.00">operator=()</text>
<text text-anchor="start" x="33.5" y="-702.5" font-family="Helvetica,sans-Serif" font-size="10.00">#</text>
<text text-anchor="start" x="55" y="-702.5" font-family="Helvetica,sans-Serif" font-size="10.00">operator=()</text>
<polygon fill="#666666" stroke="#666666" points="21,-817.5 21,-817.5 167,-817.5 167,-817.5 21,-817.5"/>
<polygon fill="#666666" stroke="#666666" points="21,-787.5 21,-787.5 53,-787.5 53,-787.5 21,-787.5"/>
<polygon fill="#666666" stroke="#666666" points="53,-787.5 53,-787.5 167,-787.5 167,-787.5 53,-787.5"/>
<polygon fill="none" stroke="#666666" points="21,-696 21,-835 167,-835 167,-696 21,-696"/>
</a>
</g>
</g>
<!-- Node5&#45;&gt;Node4 -->
<g id="edge4_Node000004_Node000005" class="edge">
<title>Node5&#45;&gt;Node4</title>
<g id="a_edge4_Node000004_Node000005"><a xlink:title=" ">
<path fill="none" stroke="#63b8ff" d="M94,-685.71C94,-677.52 94,-669.04 94,-660.45"/>
<polygon fill="none" stroke="#63b8ff" points="90.5,-685.9 94,-695.9 97.5,-685.9 90.5,-685.9"/>
</a>
</g>
</g>
</g>
</svg>
