<?xml version="1.0" encoding="UTF-8" standalone="no"?>
<!DOCTYPE svg PUBLIC "-//W3C//DTD SVG 1.1//EN"
 "http://www.w3.org/Graphics/SVG/1.1/DTD/svg11.dtd">
<!-- Generated by graphviz version 2.38.0 (20140413.2041)
 -->
<!-- Title: SerialMIDI_Parser.hpp Pages: 1 -->
<svg width="312pt" height="196pt"
 viewBox="0.00 0.00 312.00 196.00" xmlns="http://www.w3.org/2000/svg" xmlns:xlink="http://www.w3.org/1999/xlink">
<g id="graph0" class="graph" transform="scale(1 1) rotate(0) translate(4 192)">
<title>SerialMIDI_Parser.hpp</title>
<polygon fill="white" stroke="none" points="-4,4 -4,-192 308,-192 308,4 -4,4"/>
<!-- Node1 -->
<g id="node1" class="node"><title>Node1</title>
<g id="a_node1"><a xlink:title=" ">
<polygon fill="#bfbfbf" stroke="black" points="96.5,-168.5 96.5,-187.5 212.5,-187.5 212.5,-168.5 96.5,-168.5"/>
<text text-anchor="middle" x="154.5" y="-175.5" font-family="Helvetica,sans-Serif" font-size="10.00">SerialMIDI_Parser.hpp</text>
</a>
</g>
</g>
<!-- Node2 -->
<g id="node2" class="node"><title>Node2</title>
<g id="a_node2"><a xlink:href="../../d1/d23/SerialMIDI__Interface_8hpp.html" target="_top" xlink:title=" ">
<polygon fill="white" stroke="black" points="23,-112.5 23,-131.5 148,-131.5 148,-112.5 23,-112.5"/>
<text text-anchor="middle" x="85.5" y="-119.5" font-family="Helvetica,sans-Serif" font-size="10.00">SerialMIDI_Interface.hpp</text>
</a>
</g>
</g>
<!-- Node1&#45;&gt;Node2 -->
<g id="edge1" class="edge"><title>Node1&#45;&gt;Node2</title>
<path fill="none" stroke="midnightblue" d="M135.462,-162.101C123.044,-152.382 107.257,-140.027 96.7878,-131.834"/>
<polygon fill="midnightblue" stroke="midnightblue" points="133.382,-164.917 143.414,-168.324 137.696,-159.405 133.382,-164.917"/>
</g>
<!-- Node7 -->
<g id="node7" class="node"><title>Node7</title>
<g id="a_node7"><a xlink:href="../../d1/d49/SerialMIDI__Parser_8cpp.html" target="_top" xlink:title=" ">
<polygon fill="white" stroke="black" points="166.5,-112.5 166.5,-131.5 282.5,-131.5 282.5,-112.5 166.5,-112.5"/>
<text text-anchor="middle" x="224.5" y="-119.5" font-family="Helvetica,sans-Serif" font-size="10.00">SerialMIDI_Parser.cpp</text>
</a>
</g>
</g>
<!-- Node1&#45;&gt;Node7 -->
<g id="edge7" class="edge"><title>Node1&#45;&gt;Node7</title>
<path fill="none" stroke="midnightblue" d="M173.814,-162.101C186.412,-152.382 202.428,-140.027 213.049,-131.834"/>
<polygon fill="midnightblue" stroke="midnightblue" points="171.527,-159.445 165.747,-168.324 175.802,-164.987 171.527,-159.445"/>
</g>
<!-- Node3 -->
<g id="node3" class="node"><title>Node3</title>
<g id="a_node3"><a xlink:href="../../db/dbf/Control__Surface_8h.html" target="_top" xlink:title="The main header file that includes all Control&#45;Surface header files.">
<polygon fill="white" stroke="black" points="0,-0.5 0,-19.5 95,-19.5 95,-0.5 0,-0.5"/>
<text text-anchor="middle" x="47.5" y="-7.5" font-family="Helvetica,sans-Serif" font-size="10.00">Control_Surface.h</text>
</a>
</g>
</g>
<!-- Node2&#45;&gt;Node3 -->
<g id="edge2" class="edge"><title>Node2&#45;&gt;Node3</title>
<path fill="none" stroke="midnightblue" d="M45.8121,-108.576C30.4053,-101.594 14.3607,-91.1505 5.5,-76 -6.57351,-55.3561 18.448,-31.9953 34.8163,-19.6762"/>
<polygon fill="midnightblue" stroke="midnightblue" points="44.6745,-111.894 55.2527,-112.488 47.3539,-105.427 44.6745,-111.894"/>
</g>
<!-- Node4 -->
<g id="node4" class="node"><title>Node4</title>
<g id="a_node4"><a xlink:href="../../df/ded/BluetoothMIDI__Interface_8hpp.html" target="_top" xlink:title=" ">
<polygon fill="white" stroke="black" points="14.5,-56.5 14.5,-75.5 156.5,-75.5 156.5,-56.5 14.5,-56.5"/>
<text text-anchor="middle" x="85.5" y="-63.5" font-family="Helvetica,sans-Serif" font-size="10.00">BluetoothMIDI_Interface.hpp</text>
</a>
</g>
</g>
<!-- Node2&#45;&gt;Node4 -->
<g id="edge3" class="edge"><title>Node2&#45;&gt;Node4</title>
<path fill="none" stroke="midnightblue" d="M85.5,-101.805C85.5,-92.9102 85.5,-82.7798 85.5,-75.7511"/>
<polygon fill="midnightblue" stroke="midnightblue" points="82.0001,-102.083 85.5,-112.083 89.0001,-102.083 82.0001,-102.083"/>
</g>
<!-- Node5 -->
<g id="node5" class="node"><title>Node5</title>
<g id="a_node5"><a xlink:href="../../db/d55/DebugMIDI__Interface_8hpp.html" target="_top" xlink:title=" ">
<polygon fill="white" stroke="black" points="175,-56.5 175,-75.5 304,-75.5 304,-56.5 175,-56.5"/>
<text text-anchor="middle" x="239.5" y="-63.5" font-family="Helvetica,sans-Serif" font-size="10.00">DebugMIDI_Interface.hpp</text>
</a>
</g>
</g>
<!-- Node2&#45;&gt;Node5 -->
<g id="edge4" class="edge"><title>Node2&#45;&gt;Node5</title>
<path fill="none" stroke="midnightblue" d="M119.611,-109.039C148.587,-98.8786 189.462,-84.5457 215.212,-75.5164"/>
<polygon fill="midnightblue" stroke="midnightblue" points="118.18,-105.832 109.902,-112.444 120.497,-112.437 118.18,-105.832"/>
</g>
<!-- Node5&#45;&gt;Node3 -->
<g id="edge5" class="edge"><title>Node5&#45;&gt;Node3</title>
<path fill="none" stroke="midnightblue" d="M199.317,-53.6986C163.081,-43.507 110.586,-28.7429 77.7806,-19.5164"/>
<polygon fill="midnightblue" stroke="midnightblue" points="198.503,-57.1053 209.077,-56.4435 200.398,-50.3667 198.503,-57.1053"/>
</g>
<!-- Node6 -->
<g id="node6" class="node"><title>Node6</title>
<g id="a_node6"><a xlink:href="../../d1/d40/DebugMIDI__Interface_8cpp.html" target="_top" xlink:title=" ">
<polygon fill="white" stroke="black" points="175,-0.5 175,-19.5 304,-19.5 304,-0.5 175,-0.5"/>
<text text-anchor="middle" x="239.5" y="-7.5" font-family="Helvetica,sans-Serif" font-size="10.00">DebugMIDI_Interface.cpp</text>
</a>
</g>
</g>
<!-- Node5&#45;&gt;Node6 -->
<g id="edge6" class="edge"><title>Node5&#45;&gt;Node6</title>
<path fill="none" stroke="midnightblue" d="M239.5,-45.8045C239.5,-36.9102 239.5,-26.7798 239.5,-19.7511"/>
<polygon fill="midnightblue" stroke="midnightblue" points="236,-46.083 239.5,-56.083 243,-46.083 236,-46.083"/>
</g>
</g>
</svg>
