<?xml version="1.0" encoding="UTF-8" standalone="no"?>
<!DOCTYPE svg PUBLIC "-//W3C//DTD SVG 1.1//EN"
 "http://www.w3.org/Graphics/SVG/1.1/DTD/svg11.dtd">
<!-- Generated by graphviz version 2.43.0 (0)
 -->
<!-- Title: MIDIButtonLatching&lt; Sender &gt; Pages: 1 -->
<svg width="155pt" height="660pt"
 viewBox="0.00 0.00 155.00 660.00" xmlns="http://www.w3.org/2000/svg" xmlns:xlink="http://www.w3.org/1999/xlink">
<g id="graph0" class="graph" transform="scale(1 1) rotate(0) translate(4 656)">
<title>MIDIButtonLatching&lt; Sender &gt;</title>
<!-- Node1 -->
<g id="Node000001" class="node">
<title>Node1</title>
<g id="a_Node000001"><a xlink:title="A class for latching buttons and switches that send MIDI events.">
<polygon fill="#999999" stroke="transparent" points="136,-165 11,-165 11,0 136,0 136,-165"/>
<text text-anchor="start" x="25.5" y="-152.5" font-family="Helvetica,sans-Serif" font-size="10.00">MIDIButtonLatching</text>
<text text-anchor="start" x="45.5" y="-141.5" font-family="Helvetica,sans-Serif" font-size="10.00">&lt; Sender &gt;</text>
<text text-anchor="start" x="15.5" y="-126.5" font-family="Helvetica,sans-Serif" font-size="10.00">+</text>
<text text-anchor="start" x="28.5" y="-126.5" font-family="Helvetica,sans-Serif" font-size="10.00">sender</text>
<text text-anchor="start" x="18" y="-111.5" font-family="Helvetica,sans-Serif" font-size="10.00">&#45;</text>
<text text-anchor="start" x="28.5" y="-111.5" font-family="Helvetica,sans-Serif" font-size="10.00">button</text>
<text text-anchor="start" x="18" y="-96.5" font-family="Helvetica,sans-Serif" font-size="10.00">&#45;</text>
<text text-anchor="start" x="28.5" y="-96.5" font-family="Helvetica,sans-Serif" font-size="10.00">address</text>
<text text-anchor="start" x="15.5" y="-81.5" font-family="Helvetica,sans-Serif" font-size="10.00">+</text>
<text text-anchor="start" x="28.5" y="-81.5" font-family="Helvetica,sans-Serif" font-size="10.00">begin()</text>
<text text-anchor="start" x="15.5" y="-66.5" font-family="Helvetica,sans-Serif" font-size="10.00">+</text>
<text text-anchor="start" x="28.5" y="-66.5" font-family="Helvetica,sans-Serif" font-size="10.00">update()</text>
<text text-anchor="start" x="15.5" y="-51.5" font-family="Helvetica,sans-Serif" font-size="10.00">+</text>
<text text-anchor="start" x="28.5" y="-51.5" font-family="Helvetica,sans-Serif" font-size="10.00">getButtonState()</text>
<text text-anchor="start" x="15.5" y="-36.5" font-family="Helvetica,sans-Serif" font-size="10.00">+</text>
<text text-anchor="start" x="28.5" y="-36.5" font-family="Helvetica,sans-Serif" font-size="10.00">getAddress()</text>
<text text-anchor="start" x="15.5" y="-21.5" font-family="Helvetica,sans-Serif" font-size="10.00">+</text>
<text text-anchor="start" x="28.5" y="-21.5" font-family="Helvetica,sans-Serif" font-size="10.00">setAddress()</text>
<text text-anchor="start" x="15.5" y="-6.5" font-family="Helvetica,sans-Serif" font-size="10.00">#</text>
<text text-anchor="start" x="28.5" y="-6.5" font-family="Helvetica,sans-Serif" font-size="10.00">MIDIButtonLatching()</text>
<polygon fill="#666666" stroke="#666666" points="11.5,-136.5 11.5,-136.5 136.5,-136.5 136.5,-136.5 11.5,-136.5"/>
<polygon fill="#666666" stroke="#666666" points="11.5,-91.5 11.5,-91.5 26.5,-91.5 26.5,-91.5 11.5,-91.5"/>
<polygon fill="#666666" stroke="#666666" points="26.5,-91.5 26.5,-91.5 136.5,-91.5 136.5,-91.5 26.5,-91.5"/>
<polygon fill="none" stroke="#666666" points="11,0 11,-165 136,-165 136,0 11,0"/>
</a>
</g>
</g>
<!-- Node2 -->
<g id="Node000002" class="node">
<title>Node2</title>
<g id="a_Node000002"><a xlink:href="../../d1/d55/classAH_1_1Updatable.html" target="_top" xlink:title="A super class for object that have to be updated regularly.">
<polygon fill="white" stroke="transparent" points="127,-295 20,-295 20,-201 127,-201 127,-295"/>
<text text-anchor="start" x="25.5" y="-283" font-family="Helvetica,sans-Serif" font-size="10.00">MIDIOutputElement</text>
<text text-anchor="start" x="72" y="-268" font-family="Helvetica,sans-Serif" font-size="10.00"> </text>
<text text-anchor="start" x="33" y="-253" font-family="Helvetica,sans-Serif" font-size="10.00">*</text>
<text text-anchor="start" x="51.5" y="-253" font-family="Helvetica,sans-Serif" font-size="10.00">begin()</text>
<text text-anchor="start" x="33" y="-238" font-family="Helvetica,sans-Serif" font-size="10.00">*</text>
<text text-anchor="start" x="51.5" y="-238" font-family="Helvetica,sans-Serif" font-size="10.00">update()</text>
<text text-anchor="start" x="33" y="-223" font-family="Helvetica,sans-Serif" font-size="10.00">*</text>
<text text-anchor="start" x="51.5" y="-223" font-family="Helvetica,sans-Serif" font-size="10.00">beginAll()</text>
<text text-anchor="start" x="33" y="-208" font-family="Helvetica,sans-Serif" font-size="10.00">*</text>
<text text-anchor="start" x="51.5" y="-208" font-family="Helvetica,sans-Serif" font-size="10.00">updateAll()</text>
<polygon fill="#666666" stroke="#666666" points="20.5,-278 20.5,-278 127.5,-278 127.5,-278 20.5,-278"/>
<polygon fill="#666666" stroke="#666666" points="20.5,-263 20.5,-263 127.5,-263 127.5,-263 20.5,-263"/>
<polygon fill="none" stroke="#666666" points="20,-201 20,-295 127,-295 127,-201 20,-201"/>
</a>
</g>
</g>
<!-- Node2&#45;&gt;Node1 -->
<g id="edge1_Node000001_Node000002" class="edge">
<title>Node2&#45;&gt;Node1</title>
<g id="a_edge1_Node000001_Node000002"><a xlink:title=" ">
<path fill="none" stroke="#63b8ff" d="M73.5,-190.4C73.5,-182.19 73.5,-173.59 73.5,-165"/>
<polygon fill="none" stroke="#63b8ff" points="70,-190.58 73.5,-200.58 77,-190.58 70,-190.58"/>
</a>
</g>
</g>
<!-- Node3 -->
<g id="Node000003" class="node">
<title>Node3</title>
<g id="a_Node000003"><a xlink:href="../../d8/d1a/classAH_1_1UpdatableCRTP.html" target="_top" xlink:title=" ">
<polygon fill="white" stroke="transparent" points="147,-511 0,-511 0,-331 147,-331 147,-511"/>
<text text-anchor="start" x="5.5" y="-499" font-family="Helvetica,sans-Serif" font-size="10.00">UpdatableCRTP&lt; Updatable</text>
<text text-anchor="start" x="13.5" y="-488" font-family="Helvetica,sans-Serif" font-size="10.00">&lt; NormalUpdatable &gt; &gt;</text>
<text text-anchor="start" x="13" y="-473" font-family="Helvetica,sans-Serif" font-size="10.00">#</text>
<text text-anchor="start" x="34.5" y="-473" font-family="Helvetica,sans-Serif" font-size="10.00">next</text>
<text text-anchor="start" x="13" y="-458" font-family="Helvetica,sans-Serif" font-size="10.00">#</text>
<text text-anchor="start" x="34.5" y="-458" font-family="Helvetica,sans-Serif" font-size="10.00">previous</text>
<text text-anchor="start" x="13" y="-443" font-family="Helvetica,sans-Serif" font-size="10.00">#</text>
<text text-anchor="start" x="34.5" y="-443" font-family="Helvetica,sans-Serif" font-size="10.00">updatables</text>
<text text-anchor="start" x="13" y="-428" font-family="Helvetica,sans-Serif" font-size="10.00">+</text>
<text text-anchor="start" x="34.5" y="-428" font-family="Helvetica,sans-Serif" font-size="10.00">~UpdatableCRTP()</text>
<text text-anchor="start" x="13" y="-413" font-family="Helvetica,sans-Serif" font-size="10.00">#</text>
<text text-anchor="start" x="34.5" y="-413" font-family="Helvetica,sans-Serif" font-size="10.00">UpdatableCRTP()</text>
<text text-anchor="start" x="13" y="-398" font-family="Helvetica,sans-Serif" font-size="10.00">#</text>
<text text-anchor="start" x="34.5" y="-398" font-family="Helvetica,sans-Serif" font-size="10.00">operator=()</text>
<text text-anchor="start" x="14.5" y="-383" font-family="Helvetica,sans-Serif" font-size="10.00">*</text>
<text text-anchor="start" x="34.5" y="-383" font-family="Helvetica,sans-Serif" font-size="10.00">enable()</text>
<text text-anchor="start" x="14.5" y="-368" font-family="Helvetica,sans-Serif" font-size="10.00">*</text>
<text text-anchor="start" x="34.5" y="-368" font-family="Helvetica,sans-Serif" font-size="10.00">disable()</text>
<text text-anchor="start" x="14.5" y="-353" font-family="Helvetica,sans-Serif" font-size="10.00">*</text>
<text text-anchor="start" x="34.5" y="-353" font-family="Helvetica,sans-Serif" font-size="10.00">isEnabled()</text>
<text text-anchor="start" x="14.5" y="-338" font-family="Helvetica,sans-Serif" font-size="10.00">*</text>
<text text-anchor="start" x="34.5" y="-338" font-family="Helvetica,sans-Serif" font-size="10.00">moveDown()</text>
<polygon fill="#666666" stroke="#666666" points="0.5,-483 0.5,-483 147.5,-483 147.5,-483 0.5,-483"/>
<polygon fill="#666666" stroke="#666666" points="0.5,-438 0.5,-438 32.5,-438 32.5,-438 0.5,-438"/>
<polygon fill="#666666" stroke="#666666" points="32.5,-438 32.5,-438 147.5,-438 147.5,-438 32.5,-438"/>
<polygon fill="none" stroke="#666666" points="0,-331 0,-511 147,-511 147,-331 0,-331"/>
</a>
</g>
</g>
<!-- Node3&#45;&gt;Node2 -->
<g id="edge2_Node000002_Node000003" class="edge">
<title>Node3&#45;&gt;Node2</title>
<g id="a_edge2_Node000002_Node000003"><a xlink:title=" ">
<path fill="none" stroke="#63b8ff" d="M73.5,-320.92C73.5,-312.05 73.5,-303.38 73.5,-295.31"/>
<polygon fill="none" stroke="#63b8ff" points="70,-320.99 73.5,-330.99 77,-320.99 70,-320.99"/>
</a>
</g>
</g>
<!-- Node4 -->
<g id="Node000004" class="node">
<title>Node4</title>
<g id="a_Node000004"><a xlink:href="../../d4/d23/classDoublyLinkable.html" target="_top" xlink:title=" ">
<polygon fill="white" stroke="transparent" points="147,-652 0,-652 0,-547 147,-547 147,-652"/>
<text text-anchor="start" x="5.5" y="-639.5" font-family="Helvetica,sans-Serif" font-size="10.00">DoublyLinkable&lt; Updatable</text>
<text text-anchor="start" x="13.5" y="-628.5" font-family="Helvetica,sans-Serif" font-size="10.00">&lt; NormalUpdatable &gt; &gt;</text>
<text text-anchor="start" x="13" y="-613.5" font-family="Helvetica,sans-Serif" font-size="10.00">#</text>
<text text-anchor="start" x="34.5" y="-613.5" font-family="Helvetica,sans-Serif" font-size="10.00">next</text>
<text text-anchor="start" x="13" y="-598.5" font-family="Helvetica,sans-Serif" font-size="10.00">#</text>
<text text-anchor="start" x="34.5" y="-598.5" font-family="Helvetica,sans-Serif" font-size="10.00">previous</text>
<text text-anchor="start" x="13" y="-583.5" font-family="Helvetica,sans-Serif" font-size="10.00">#</text>
<text text-anchor="start" x="34.5" y="-583.5" font-family="Helvetica,sans-Serif" font-size="10.00">~DoublyLinkable()</text>
<text text-anchor="start" x="13" y="-568.5" font-family="Helvetica,sans-Serif" font-size="10.00">#</text>
<text text-anchor="start" x="34.5" y="-568.5" font-family="Helvetica,sans-Serif" font-size="10.00">DoublyLinkable()</text>
<text text-anchor="start" x="13" y="-553.5" font-family="Helvetica,sans-Serif" font-size="10.00">#</text>
<text text-anchor="start" x="34.5" y="-553.5" font-family="Helvetica,sans-Serif" font-size="10.00">operator=()</text>
<polygon fill="#666666" stroke="#666666" points="0.5,-623.5 0.5,-623.5 147.5,-623.5 147.5,-623.5 0.5,-623.5"/>
<polygon fill="#666666" stroke="#666666" points="0.5,-593.5 0.5,-593.5 32.5,-593.5 32.5,-593.5 0.5,-593.5"/>
<polygon fill="#666666" stroke="#666666" points="32.5,-593.5 32.5,-593.5 147.5,-593.5 147.5,-593.5 32.5,-593.5"/>
<polygon fill="none" stroke="#666666" points="0,-547 0,-652 147,-652 147,-547 0,-547"/>
</a>
</g>
</g>
<!-- Node4&#45;&gt;Node3 -->
<g id="edge3_Node000003_Node000004" class="edge">
<title>Node4&#45;&gt;Node3</title>
<g id="a_edge3_Node000003_Node000004"><a xlink:title=" ">
<path fill="none" stroke="#63b8ff" d="M73.5,-536.96C73.5,-528.58 73.5,-519.86 73.5,-511.12"/>
<polygon fill="none" stroke="#63b8ff" points="70,-536.97 73.5,-546.97 77,-536.97 70,-536.97"/>
</a>
</g>
</g>
</g>
</svg>
