<?xml version="1.0" encoding="UTF-8" standalone="no"?>
<!DOCTYPE svg PUBLIC "-//W3C//DTD SVG 1.1//EN"
 "http://www.w3.org/Graphics/SVG/1.1/DTD/svg11.dtd">
<!-- Generated by graphviz version 2.43.0 (0)
 -->
<!-- Title: CCRotaryEncoder&lt; NumBanks &gt; Pages: 1 -->
<svg width="179pt" height="899pt"
 viewBox="0.00 0.00 179.00 899.00" xmlns="http://www.w3.org/2000/svg" xmlns:xlink="http://www.w3.org/1999/xlink">
<g id="graph0" class="graph" transform="scale(1 1) rotate(0) translate(4 895)">
<title>CCRotaryEncoder&lt; NumBanks &gt;</title>
<!-- Node1 -->
<g id="Node000001" class="node">
<title>Node1</title>
<g id="a_Node000001"><a xlink:title="A class of MIDIOutputElements that read the input of a quadrature (rotary) encoder and send out relat...">
<polygon fill="#999999" stroke="transparent" points="171,-49 0,-49 0,0 171,0 171,-49"/>
<text text-anchor="start" x="5.5" y="-36.5" font-family="Helvetica,sans-Serif" font-size="10.00">CCRotaryEncoder&lt; NumBanks &gt;</text>
<text text-anchor="start" x="84" y="-21.5" font-family="Helvetica,sans-Serif" font-size="10.00"> </text>
<text text-anchor="start" x="18.5" y="-6.5" font-family="Helvetica,sans-Serif" font-size="10.00">+</text>
<text text-anchor="start" x="45.5" y="-6.5" font-family="Helvetica,sans-Serif" font-size="10.00">CCRotaryEncoder()</text>
<polygon fill="#666666" stroke="#666666" points="0.5,-31.5 0.5,-31.5 171.5,-31.5 171.5,-31.5 0.5,-31.5"/>
<polygon fill="#666666" stroke="#666666" points="0.5,-16.5 0.5,-16.5 171.5,-16.5 171.5,-16.5 0.5,-16.5"/>
<polygon fill="none" stroke="#666666" points="0,0 0,-49 171,-49 171,0 0,0"/>
</a>
</g>
</g>
<!-- Node2 -->
<g id="Node000002" class="node">
<title>Node2</title>
<g id="a_Node000002"><a xlink:href="../../d6/dcd/classBankable_1_1GenericMIDIRotaryEncoder.html" target="_top" xlink:title="An abstract class for rotary encoders that send MIDI events and that can be added to a Bank.">
<polygon fill="white" stroke="transparent" points="165.5,-276 5.5,-276 5.5,-85 165.5,-85 165.5,-276"/>
<text text-anchor="start" x="13" y="-263.5" font-family="Helvetica,sans-Serif" font-size="10.00">MIDIRotaryEncoder&lt;</text>
<text text-anchor="start" x="13" y="-252.5" font-family="Helvetica,sans-Serif" font-size="10.00"> ManyAddresses&lt; NumBanks</text>
<text text-anchor="start" x="27" y="-241.5" font-family="Helvetica,sans-Serif" font-size="10.00"> &gt;, RelativeCCSender &gt;</text>
<text text-anchor="start" x="9.5" y="-226.5" font-family="Helvetica,sans-Serif" font-size="10.00">+</text>
<text text-anchor="start" x="22.5" y="-226.5" font-family="Helvetica,sans-Serif" font-size="10.00">sender</text>
<text text-anchor="start" x="9.5" y="-211.5" font-family="Helvetica,sans-Serif" font-size="10.00">#</text>
<text text-anchor="start" x="22.5" y="-211.5" font-family="Helvetica,sans-Serif" font-size="10.00">address</text>
<text text-anchor="start" x="9.5" y="-196.5" font-family="Helvetica,sans-Serif" font-size="10.00">#</text>
<text text-anchor="start" x="22.5" y="-196.5" font-family="Helvetica,sans-Serif" font-size="10.00">encoder</text>
<text text-anchor="start" x="9.5" y="-181.5" font-family="Helvetica,sans-Serif" font-size="10.00">#</text>
<text text-anchor="start" x="22.5" y="-181.5" font-family="Helvetica,sans-Serif" font-size="10.00">encstate</text>
<text text-anchor="start" x="9.5" y="-166.5" font-family="Helvetica,sans-Serif" font-size="10.00">+</text>
<text text-anchor="start" x="22.5" y="-166.5" font-family="Helvetica,sans-Serif" font-size="10.00">begin()</text>
<text text-anchor="start" x="9.5" y="-151.5" font-family="Helvetica,sans-Serif" font-size="10.00">+</text>
<text text-anchor="start" x="22.5" y="-151.5" font-family="Helvetica,sans-Serif" font-size="10.00">update()</text>
<text text-anchor="start" x="9.5" y="-136.5" font-family="Helvetica,sans-Serif" font-size="10.00">+</text>
<text text-anchor="start" x="22.5" y="-136.5" font-family="Helvetica,sans-Serif" font-size="10.00">setSpeedMultiply()</text>
<text text-anchor="start" x="9.5" y="-121.5" font-family="Helvetica,sans-Serif" font-size="10.00">+</text>
<text text-anchor="start" x="22.5" y="-121.5" font-family="Helvetica,sans-Serif" font-size="10.00">getSpeedMultiply()</text>
<text text-anchor="start" x="9.5" y="-106.5" font-family="Helvetica,sans-Serif" font-size="10.00">+</text>
<text text-anchor="start" x="22.5" y="-106.5" font-family="Helvetica,sans-Serif" font-size="10.00">resetPositionOffset()</text>
<text text-anchor="start" x="9.5" y="-91.5" font-family="Helvetica,sans-Serif" font-size="10.00">#</text>
<text text-anchor="start" x="22.5" y="-91.5" font-family="Helvetica,sans-Serif" font-size="10.00">GenericMIDIRotaryEncoder()</text>
<polygon fill="#666666" stroke="#666666" points="5.5,-236.5 5.5,-236.5 165.5,-236.5 165.5,-236.5 5.5,-236.5"/>
<polygon fill="#666666" stroke="#666666" points="5.5,-176.5 5.5,-176.5 20.5,-176.5 20.5,-176.5 5.5,-176.5"/>
<polygon fill="#666666" stroke="#666666" points="20.5,-176.5 20.5,-176.5 165.5,-176.5 165.5,-176.5 20.5,-176.5"/>
<polygon fill="none" stroke="#666666" points="5.5,-85 5.5,-276 165.5,-276 165.5,-85 5.5,-85"/>
</a>
</g>
</g>
<!-- Node2&#45;&gt;Node1 -->
<g id="edge1_Node000001_Node000002" class="edge">
<title>Node2&#45;&gt;Node1</title>
<g id="a_edge1_Node000001_Node000002"><a xlink:title=" ">
<path fill="none" stroke="#63b8ff" d="M85.5,-74.33C85.5,-65.06 85.5,-56.43 85.5,-49.08"/>
<polygon fill="none" stroke="#63b8ff" points="82,-74.6 85.5,-84.6 89,-74.6 82,-74.6"/>
</a>
</g>
</g>
<!-- Node3 -->
<g id="Node000003" class="node">
<title>Node3</title>
<g id="a_Node000003"><a xlink:href="../../d1/d55/classAH_1_1Updatable.html" target="_top" xlink:title="A super class for object that have to be updated regularly.">
<polygon fill="white" stroke="transparent" points="139,-406 32,-406 32,-312 139,-312 139,-406"/>
<text text-anchor="start" x="37.5" y="-394" font-family="Helvetica,sans-Serif" font-size="10.00">MIDIOutputElement</text>
<text text-anchor="start" x="84" y="-379" font-family="Helvetica,sans-Serif" font-size="10.00"> </text>
<text text-anchor="start" x="45" y="-364" font-family="Helvetica,sans-Serif" font-size="10.00">*</text>
<text text-anchor="start" x="63.5" y="-364" font-family="Helvetica,sans-Serif" font-size="10.00">begin()</text>
<text text-anchor="start" x="45" y="-349" font-family="Helvetica,sans-Serif" font-size="10.00">*</text>
<text text-anchor="start" x="63.5" y="-349" font-family="Helvetica,sans-Serif" font-size="10.00">update()</text>
<text text-anchor="start" x="45" y="-334" font-family="Helvetica,sans-Serif" font-size="10.00">*</text>
<text text-anchor="start" x="63.5" y="-334" font-family="Helvetica,sans-Serif" font-size="10.00">beginAll()</text>
<text text-anchor="start" x="45" y="-319" font-family="Helvetica,sans-Serif" font-size="10.00">*</text>
<text text-anchor="start" x="63.5" y="-319" font-family="Helvetica,sans-Serif" font-size="10.00">updateAll()</text>
<polygon fill="#666666" stroke="#666666" points="32.5,-389 32.5,-389 139.5,-389 139.5,-389 32.5,-389"/>
<polygon fill="#666666" stroke="#666666" points="32.5,-374 32.5,-374 139.5,-374 139.5,-374 32.5,-374"/>
<polygon fill="none" stroke="#666666" points="32,-312 32,-406 139,-406 139,-312 32,-312"/>
</a>
</g>
</g>
<!-- Node3&#45;&gt;Node2 -->
<g id="edge2_Node000002_Node000003" class="edge">
<title>Node3&#45;&gt;Node2</title>
<g id="a_edge2_Node000002_Node000003"><a xlink:title=" ">
<path fill="none" stroke="#63b8ff" d="M85.5,-301.53C85.5,-293.36 85.5,-284.77 85.5,-276.1"/>
<polygon fill="none" stroke="#63b8ff" points="82,-301.63 85.5,-311.63 89,-301.63 82,-301.63"/>
</a>
</g>
</g>
<!-- Node4 -->
<g id="Node000004" class="node">
<title>Node4</title>
<g id="a_Node000004"><a xlink:href="../../d8/d1a/classAH_1_1UpdatableCRTP.html" target="_top" xlink:title="A super class for object that have to be updated regularly.">
<polygon fill="white" stroke="transparent" points="158.5,-716 12.5,-716 12.5,-442 158.5,-442 158.5,-716"/>
<text text-anchor="start" x="17.5" y="-704" font-family="Helvetica,sans-Serif" font-size="10.00">UpdatableCRTP&lt; Derived &gt;</text>
<text text-anchor="start" x="25" y="-689" font-family="Helvetica,sans-Serif" font-size="10.00">#</text>
<text text-anchor="start" x="46.5" y="-689" font-family="Helvetica,sans-Serif" font-size="10.00">updatables</text>
<text text-anchor="start" x="25" y="-674" font-family="Helvetica,sans-Serif" font-size="10.00">+</text>
<text text-anchor="start" x="46.5" y="-674" font-family="Helvetica,sans-Serif" font-size="10.00">~UpdatableCRTP()</text>
<text text-anchor="start" x="25" y="-659" font-family="Helvetica,sans-Serif" font-size="10.00">#</text>
<text text-anchor="start" x="46.5" y="-659" font-family="Helvetica,sans-Serif" font-size="10.00">UpdatableCRTP()</text>
<text text-anchor="start" x="25" y="-644" font-family="Helvetica,sans-Serif" font-size="10.00">#</text>
<text text-anchor="start" x="46.5" y="-644" font-family="Helvetica,sans-Serif" font-size="10.00">UpdatableCRTP()</text>
<text text-anchor="start" x="25" y="-629" font-family="Helvetica,sans-Serif" font-size="10.00">#</text>
<text text-anchor="start" x="46.5" y="-629" font-family="Helvetica,sans-Serif" font-size="10.00">operator=()</text>
<text text-anchor="start" x="25" y="-614" font-family="Helvetica,sans-Serif" font-size="10.00">#</text>
<text text-anchor="start" x="46.5" y="-614" font-family="Helvetica,sans-Serif" font-size="10.00">UpdatableCRTP()</text>
<text text-anchor="start" x="25" y="-599" font-family="Helvetica,sans-Serif" font-size="10.00">#</text>
<text text-anchor="start" x="46.5" y="-599" font-family="Helvetica,sans-Serif" font-size="10.00">operator=()</text>
<text text-anchor="start" x="26.5" y="-584" font-family="Helvetica,sans-Serif" font-size="10.00">*</text>
<text text-anchor="start" x="46.5" y="-584" font-family="Helvetica,sans-Serif" font-size="10.00">enable()</text>
<text text-anchor="start" x="26.5" y="-569" font-family="Helvetica,sans-Serif" font-size="10.00">*</text>
<text text-anchor="start" x="46.5" y="-569" font-family="Helvetica,sans-Serif" font-size="10.00">disable()</text>
<text text-anchor="start" x="26.5" y="-554" font-family="Helvetica,sans-Serif" font-size="10.00">*</text>
<text text-anchor="start" x="46.5" y="-554" font-family="Helvetica,sans-Serif" font-size="10.00">isEnabled()</text>
<text text-anchor="start" x="26.5" y="-539" font-family="Helvetica,sans-Serif" font-size="10.00">*</text>
<text text-anchor="start" x="46.5" y="-539" font-family="Helvetica,sans-Serif" font-size="10.00">moveDown()</text>
<text text-anchor="start" x="26.5" y="-524" font-family="Helvetica,sans-Serif" font-size="10.00">*</text>
<text text-anchor="start" x="46.5" y="-524" font-family="Helvetica,sans-Serif" font-size="10.00">enable()</text>
<text text-anchor="start" x="26.5" y="-509" font-family="Helvetica,sans-Serif" font-size="10.00">*</text>
<text text-anchor="start" x="46.5" y="-509" font-family="Helvetica,sans-Serif" font-size="10.00">enable()</text>
<text text-anchor="start" x="26.5" y="-494" font-family="Helvetica,sans-Serif" font-size="10.00">*</text>
<text text-anchor="start" x="46.5" y="-494" font-family="Helvetica,sans-Serif" font-size="10.00">enable()</text>
<text text-anchor="start" x="26.5" y="-479" font-family="Helvetica,sans-Serif" font-size="10.00">*</text>
<text text-anchor="start" x="46.5" y="-479" font-family="Helvetica,sans-Serif" font-size="10.00">disable()</text>
<text text-anchor="start" x="26.5" y="-464" font-family="Helvetica,sans-Serif" font-size="10.00">*</text>
<text text-anchor="start" x="46.5" y="-464" font-family="Helvetica,sans-Serif" font-size="10.00">disable()</text>
<text text-anchor="start" x="26.5" y="-449" font-family="Helvetica,sans-Serif" font-size="10.00">*</text>
<text text-anchor="start" x="46.5" y="-449" font-family="Helvetica,sans-Serif" font-size="10.00">disable()</text>
<polygon fill="#666666" stroke="#666666" points="12.5,-699 12.5,-699 158.5,-699 158.5,-699 12.5,-699"/>
<polygon fill="#666666" stroke="#666666" points="12.5,-684 12.5,-684 44.5,-684 44.5,-684 12.5,-684"/>
<polygon fill="#666666" stroke="#666666" points="44.5,-684 44.5,-684 158.5,-684 158.5,-684 44.5,-684"/>
<polygon fill="none" stroke="#666666" points="12.5,-442 12.5,-716 158.5,-716 158.5,-442 12.5,-442"/>
</a>
</g>
</g>
<!-- Node4&#45;&gt;Node3 -->
<g id="edge3_Node000003_Node000004" class="edge">
<title>Node4&#45;&gt;Node3</title>
<g id="a_edge3_Node000003_Node000004"><a xlink:title=" ">
<path fill="none" stroke="#63b8ff" d="M85.5,-431.62C85.5,-422.73 85.5,-414.22 85.5,-406.37"/>
<polygon fill="none" stroke="#63b8ff" points="82,-431.8 85.5,-441.8 89,-431.8 82,-431.8"/>
</a>
</g>
</g>
<!-- Node5 -->
<g id="Node000005" class="node">
<title>Node5</title>
<g id="a_Node000005"><a xlink:href="../../d4/d23/classDoublyLinkable.html" target="_top" xlink:title=" ">
<polygon fill="white" stroke="transparent" points="158.5,-891 12.5,-891 12.5,-752 158.5,-752 158.5,-891"/>
<text text-anchor="start" x="17.5" y="-878.5" font-family="Helvetica,sans-Serif" font-size="10.00">DoublyLinkable&lt; Derived &gt;</text>
<text text-anchor="start" x="25" y="-863.5" font-family="Helvetica,sans-Serif" font-size="10.00">#</text>
<text text-anchor="start" x="46.5" y="-863.5" font-family="Helvetica,sans-Serif" font-size="10.00">next</text>
<text text-anchor="start" x="25" y="-848.5" font-family="Helvetica,sans-Serif" font-size="10.00">#</text>
<text text-anchor="start" x="46.5" y="-848.5" font-family="Helvetica,sans-Serif" font-size="10.00">previous</text>
<text text-anchor="start" x="25" y="-833.5" font-family="Helvetica,sans-Serif" font-size="10.00">#</text>
<text text-anchor="start" x="46.5" y="-833.5" font-family="Helvetica,sans-Serif" font-size="10.00">~DoublyLinkable()</text>
<text text-anchor="start" x="25" y="-818.5" font-family="Helvetica,sans-Serif" font-size="10.00">#</text>
<text text-anchor="start" x="46.5" y="-818.5" font-family="Helvetica,sans-Serif" font-size="10.00">DoublyLinkable()</text>
<text text-anchor="start" x="25" y="-803.5" font-family="Helvetica,sans-Serif" font-size="10.00">#</text>
<text text-anchor="start" x="46.5" y="-803.5" font-family="Helvetica,sans-Serif" font-size="10.00">DoublyLinkable()</text>
<text text-anchor="start" x="25" y="-788.5" font-family="Helvetica,sans-Serif" font-size="10.00">#</text>
<text text-anchor="start" x="46.5" y="-788.5" font-family="Helvetica,sans-Serif" font-size="10.00">DoublyLinkable()</text>
<text text-anchor="start" x="25" y="-773.5" font-family="Helvetica,sans-Serif" font-size="10.00">#</text>
<text text-anchor="start" x="46.5" y="-773.5" font-family="Helvetica,sans-Serif" font-size="10.00">operator=()</text>
<text text-anchor="start" x="25" y="-758.5" font-family="Helvetica,sans-Serif" font-size="10.00">#</text>
<text text-anchor="start" x="46.5" y="-758.5" font-family="Helvetica,sans-Serif" font-size="10.00">operator=()</text>
<polygon fill="#666666" stroke="#666666" points="12.5,-873.5 12.5,-873.5 158.5,-873.5 158.5,-873.5 12.5,-873.5"/>
<polygon fill="#666666" stroke="#666666" points="12.5,-843.5 12.5,-843.5 44.5,-843.5 44.5,-843.5 12.5,-843.5"/>
<polygon fill="#666666" stroke="#666666" points="44.5,-843.5 44.5,-843.5 158.5,-843.5 158.5,-843.5 44.5,-843.5"/>
<polygon fill="none" stroke="#666666" points="12.5,-752 12.5,-891 158.5,-891 158.5,-752 12.5,-752"/>
</a>
</g>
</g>
<!-- Node5&#45;&gt;Node4 -->
<g id="edge4_Node000004_Node000005" class="edge">
<title>Node5&#45;&gt;Node4</title>
<g id="a_edge4_Node000004_Node000005"><a xlink:title=" ">
<path fill="none" stroke="#63b8ff" d="M85.5,-741.71C85.5,-733.52 85.5,-725.04 85.5,-716.45"/>
<polygon fill="none" stroke="#63b8ff" points="82,-741.9 85.5,-751.9 89,-741.9 82,-741.9"/>
</a>
</g>
</g>
</g>
</svg>
