<?xml version="1.0" encoding="UTF-8" standalone="no"?>
<!DOCTYPE svg PUBLIC "-//W3C//DTD SVG 1.1//EN"
 "http://www.w3.org/Graphics/SVG/1.1/DTD/svg11.dtd">
<!-- Generated by graphviz version 2.43.0 (0)
 -->
<!-- Title: DualAddresses Pages: 1 -->
<svg width="349pt" height="822pt"
 viewBox="0.00 0.00 348.50 822.00" xmlns="http://www.w3.org/2000/svg" xmlns:xlink="http://www.w3.org/1999/xlink">
<g id="graph0" class="graph" transform="scale(1 1) rotate(0) translate(4 818)">
<title>DualAddresses</title>
<polygon fill="white" stroke="transparent" points="-4,4 -4,-818 344.5,-818 344.5,4 -4,4"/>
<!-- Node1 -->
<g id="node1" class="node">
<title>Node1</title>
<g id="a_node1"><a xlink:title=" ">
<polygon fill="#bfbfbf" stroke="black" points="102.5,-0.5 102.5,-101.5 258.5,-101.5 258.5,-0.5 102.5,-0.5"/>
<text text-anchor="middle" x="180.5" y="-89.5" font-family="Helvetica,sans-Serif" font-size="10.00">DualAddresses</text>
<polyline fill="none" stroke="black" points="102.5,-82.5 258.5,-82.5 "/>
<text text-anchor="middle" x="180.5" y="-70.5" font-family="Helvetica,sans-Serif" font-size="10.00"> </text>
<polyline fill="none" stroke="black" points="102.5,-63.5 258.5,-63.5 "/>
<text text-anchor="start" x="110.5" y="-51.5" font-family="Helvetica,sans-Serif" font-size="10.00">+ DualAddresses()</text>
<text text-anchor="start" x="110.5" y="-40.5" font-family="Helvetica,sans-Serif" font-size="10.00">+ getFirstBaseAddress()</text>
<text text-anchor="start" x="110.5" y="-29.5" font-family="Helvetica,sans-Serif" font-size="10.00">+ getSecondBaseAddress()</text>
<text text-anchor="start" x="110.5" y="-18.5" font-family="Helvetica,sans-Serif" font-size="10.00">+ getFirstActiveAddress()</text>
<text text-anchor="start" x="110.5" y="-7.5" font-family="Helvetica,sans-Serif" font-size="10.00">+ getSecondActiveAddress()</text>
</a>
</g>
</g>
<!-- Node2 -->
<g id="node2" class="node">
<title>Node2</title>
<g id="a_node2"><a xlink:href="../../d2/d97/classOutputBankableMIDIAddress.html" target="_top" xlink:title="A base class for all MIDIOutputElements that can be banked.">
<polygon fill="white" stroke="black" points="5,-265 5,-355 180,-355 180,-265 5,-265"/>
<text text-anchor="middle" x="92.5" y="-343" font-family="Helvetica,sans-Serif" font-size="10.00">OutputBankableMIDIAddress</text>
<polyline fill="none" stroke="black" points="5,-336 180,-336 "/>
<text text-anchor="start" x="13" y="-324" font-family="Helvetica,sans-Serif" font-size="10.00">&#45; type</text>
<polyline fill="none" stroke="black" points="5,-317 180,-317 "/>
<text text-anchor="start" x="13" y="-305" font-family="Helvetica,sans-Serif" font-size="10.00">+ OutputBankableMIDIAddress()</text>
<text text-anchor="start" x="13" y="-294" font-family="Helvetica,sans-Serif" font-size="10.00">+ OutputBankableMIDIAddress()</text>
<text text-anchor="start" x="13" y="-283" font-family="Helvetica,sans-Serif" font-size="10.00">+ getAddressOffset()</text>
<text text-anchor="start" x="13" y="-272" font-family="Helvetica,sans-Serif" font-size="10.00">+ getAddressOffset()</text>
</a>
</g>
</g>
<!-- Node2&#45;&gt;Node1 -->
<g id="edge1" class="edge">
<title>Node2&#45;&gt;Node1</title>
<path fill="none" stroke="midnightblue" d="M110.93,-255.18C126.42,-209.95 148.38,-145.8 163.47,-101.75"/>
<polygon fill="none" stroke="midnightblue" points="107.56,-254.23 107.63,-264.82 114.18,-256.49 107.56,-254.23"/>
</g>
<!-- Node3 -->
<g id="node3" class="node">
<title>Node3</title>
<g id="a_node3"><a xlink:href="../../d2/d4e/classOutputBankableMIDIAddress__Base.html" target="_top" xlink:title="Class for keeping track of the active bank, and allows locking of the bank setting.">
<polygon fill="white" stroke="black" points="0,-497.5 0,-620.5 185,-620.5 185,-497.5 0,-497.5"/>
<text text-anchor="middle" x="92.5" y="-608.5" font-family="Helvetica,sans-Serif" font-size="10.00">OutputBankableMIDIAddress_Base</text>
<polyline fill="none" stroke="black" points="0,-601.5 185,-601.5 "/>
<text text-anchor="start" x="8" y="-589.5" font-family="Helvetica,sans-Serif" font-size="10.00">&#45; lockedSetting</text>
<text text-anchor="start" x="8" y="-578.5" font-family="Helvetica,sans-Serif" font-size="10.00">&#45; UNLOCKED</text>
<polyline fill="none" stroke="black" points="0,-571.5 185,-571.5 "/>
<text text-anchor="start" x="8" y="-559.5" font-family="Helvetica,sans-Serif" font-size="10.00">+ getRawBankSetting()</text>
<text text-anchor="start" x="8" y="-548.5" font-family="Helvetica,sans-Serif" font-size="10.00">+ getSelection()</text>
<text text-anchor="start" x="8" y="-537.5" font-family="Helvetica,sans-Serif" font-size="10.00">+ lock()</text>
<text text-anchor="start" x="8" y="-526.5" font-family="Helvetica,sans-Serif" font-size="10.00">+ unlock()</text>
<text text-anchor="start" x="8" y="-515.5" font-family="Helvetica,sans-Serif" font-size="10.00"># OutputBankableMIDIAddress</text>
<text text-anchor="start" x="8" y="-504.5" font-family="Helvetica,sans-Serif" font-size="10.00">_Base()</text>
</a>
</g>
</g>
<!-- Node3&#45;&gt;Node2 -->
<g id="edge2" class="edge">
<title>Node3&#45;&gt;Node2</title>
<path fill="none" stroke="midnightblue" d="M92.5,-487.24C92.5,-444.69 92.5,-391.86 92.5,-355.19"/>
<polygon fill="none" stroke="midnightblue" points="89,-487.26 92.5,-497.26 96,-487.26 89,-487.26"/>
</g>
<!-- Node4 -->
<g id="node4" class="node">
<title>Node4</title>
<g id="a_node4"><a xlink:href="../../d9/d36/classOutputBank.html" target="_top" xlink:title="A class for changing the address of BankableMIDIOutputs.">
<polygon fill="white" stroke="black" points="29.5,-668.5 29.5,-813.5 155.5,-813.5 155.5,-668.5 29.5,-668.5"/>
<text text-anchor="middle" x="92.5" y="-801.5" font-family="Helvetica,sans-Serif" font-size="10.00">OutputBank</text>
<polyline fill="none" stroke="black" points="29.5,-794.5 155.5,-794.5 "/>
<text text-anchor="start" x="37.5" y="-782.5" font-family="Helvetica,sans-Serif" font-size="10.00">&#45; tracksPerBank</text>
<text text-anchor="start" x="37.5" y="-771.5" font-family="Helvetica,sans-Serif" font-size="10.00">&#45; bankSetting</text>
<text text-anchor="start" x="37.5" y="-760.5" font-family="Helvetica,sans-Serif" font-size="10.00">&#45; selectionOffset</text>
<polyline fill="none" stroke="black" points="29.5,-753.5 155.5,-753.5 "/>
<text text-anchor="start" x="37.5" y="-741.5" font-family="Helvetica,sans-Serif" font-size="10.00">+ OutputBank()</text>
<text text-anchor="start" x="37.5" y="-730.5" font-family="Helvetica,sans-Serif" font-size="10.00">+ select()</text>
<text text-anchor="start" x="37.5" y="-719.5" font-family="Helvetica,sans-Serif" font-size="10.00">+ getSelection()</text>
<text text-anchor="start" x="37.5" y="-708.5" font-family="Helvetica,sans-Serif" font-size="10.00">+ getSelectionOffset()</text>
<text text-anchor="start" x="37.5" y="-697.5" font-family="Helvetica,sans-Serif" font-size="10.00">+ getTracksPerBank()</text>
<text text-anchor="start" x="37.5" y="-686.5" font-family="Helvetica,sans-Serif" font-size="10.00">+ getOffsetOfSetting()</text>
<text text-anchor="start" x="37.5" y="-675.5" font-family="Helvetica,sans-Serif" font-size="10.00">+ getOffset()</text>
</a>
</g>
</g>
<!-- Node4&#45;&gt;Node3 -->
<g id="edge3" class="edge">
<title>Node4&#45;&gt;Node3</title>
<path fill="none" stroke="#404040" d="M92.5,-668.34C92.5,-656.63 92.5,-644.48 92.5,-632.74"/>
<polygon fill="none" stroke="#404040" points="92.5,-632.69 88.5,-626.69 92.5,-620.69 96.5,-626.69 92.5,-632.69"/>
<text text-anchor="middle" x="110.5" y="-642" font-family="Helvetica,sans-Serif" font-size="10.00"> #bank</text>
</g>
<!-- Node5 -->
<g id="node5" class="node">
<title>Node5</title>
<g id="a_node5"><a xlink:href="../../d7/d0f/classMIDIAddress.html" target="_top" xlink:title="A type&#45;safe utility class for saving a MIDI address consisting of a 7&#45;bit address,...">
<polygon fill="white" stroke="black" points="198.5,-160.5 198.5,-459.5 340.5,-459.5 340.5,-160.5 198.5,-160.5"/>
<text text-anchor="middle" x="269.5" y="-447.5" font-family="Helvetica,sans-Serif" font-size="10.00">MIDIAddress</text>
<polyline fill="none" stroke="black" points="198.5,-440.5 340.5,-440.5 "/>
<text text-anchor="start" x="206.5" y="-428.5" font-family="Helvetica,sans-Serif" font-size="10.00">&#45; addresses</text>
<polyline fill="none" stroke="black" points="198.5,-421.5 340.5,-421.5 "/>
<text text-anchor="start" x="206.5" y="-409.5" font-family="Helvetica,sans-Serif" font-size="10.00">* MIDIAddress()</text>
<text text-anchor="start" x="206.5" y="-398.5" font-family="Helvetica,sans-Serif" font-size="10.00">* MIDIAddress()</text>
<text text-anchor="start" x="206.5" y="-387.5" font-family="Helvetica,sans-Serif" font-size="10.00">* MIDIAddress()</text>
<text text-anchor="start" x="206.5" y="-376.5" font-family="Helvetica,sans-Serif" font-size="10.00">* MIDIAddress()</text>
<text text-anchor="start" x="206.5" y="-365.5" font-family="Helvetica,sans-Serif" font-size="10.00">* MIDIAddress()</text>
<text text-anchor="start" x="206.5" y="-354.5" font-family="Helvetica,sans-Serif" font-size="10.00">* MIDIAddress()</text>
<text text-anchor="start" x="206.5" y="-343.5" font-family="Helvetica,sans-Serif" font-size="10.00">* invalid()</text>
<text text-anchor="start" x="206.5" y="-332.5" font-family="Helvetica,sans-Serif" font-size="10.00">* operator+=()</text>
<text text-anchor="start" x="206.5" y="-321.5" font-family="Helvetica,sans-Serif" font-size="10.00">* operator&#45;=()</text>
<text text-anchor="start" x="206.5" y="-310.5" font-family="Helvetica,sans-Serif" font-size="10.00">* operator+()</text>
<text text-anchor="start" x="206.5" y="-299.5" font-family="Helvetica,sans-Serif" font-size="10.00">* operator&#45;()</text>
<text text-anchor="start" x="206.5" y="-288.5" font-family="Helvetica,sans-Serif" font-size="10.00">* getAddress()</text>
<text text-anchor="start" x="206.5" y="-277.5" font-family="Helvetica,sans-Serif" font-size="10.00">* getChannel()</text>
<text text-anchor="start" x="206.5" y="-266.5" font-family="Helvetica,sans-Serif" font-size="10.00">* getRawChannel()</text>
<text text-anchor="start" x="206.5" y="-255.5" font-family="Helvetica,sans-Serif" font-size="10.00">* getCableNumber()</text>
<text text-anchor="start" x="206.5" y="-244.5" font-family="Helvetica,sans-Serif" font-size="10.00">* getRawCableNumber()</text>
<text text-anchor="start" x="206.5" y="-233.5" font-family="Helvetica,sans-Serif" font-size="10.00">* getChannelCable()</text>
<text text-anchor="start" x="206.5" y="-222.5" font-family="Helvetica,sans-Serif" font-size="10.00">* operator==()</text>
<text text-anchor="start" x="206.5" y="-211.5" font-family="Helvetica,sans-Serif" font-size="10.00">* operator!=()</text>
<text text-anchor="start" x="206.5" y="-200.5" font-family="Helvetica,sans-Serif" font-size="10.00">* isValid()</text>
<text text-anchor="start" x="206.5" y="-189.5" font-family="Helvetica,sans-Serif" font-size="10.00">* operator bool()</text>
<text text-anchor="start" x="206.5" y="-178.5" font-family="Helvetica,sans-Serif" font-size="10.00">* matchSingle()</text>
<text text-anchor="start" x="206.5" y="-167.5" font-family="Helvetica,sans-Serif" font-size="10.00">* matchAddressInRange()</text>
</a>
</g>
</g>
<!-- Node5&#45;&gt;Node1 -->
<g id="edge4" class="edge">
<title>Node5&#45;&gt;Node1</title>
<path fill="none" stroke="#404040" d="M217.99,-160.25C212.28,-143.77 206.73,-127.75 201.73,-113.3"/>
<polygon fill="none" stroke="#404040" points="201.59,-112.9 195.85,-108.54 197.66,-101.56 203.41,-105.92 201.59,-112.9"/>
<text text-anchor="middle" x="229" y="-134" font-family="Helvetica,sans-Serif" font-size="10.00"> &#45;first</text>
<text text-anchor="middle" x="229" y="-123" font-family="Helvetica,sans-Serif" font-size="10.00">&#45;second</text>
</g>
</g>
</svg>
