<?xml version="1.0" encoding="UTF-8" standalone="no"?>
<!DOCTYPE svg PUBLIC "-//W3C//DTD SVG 1.1//EN"
 "http://www.w3.org/Graphics/SVG/1.1/DTD/svg11.dtd">
<!-- Generated by graphviz version 2.38.0 (20140413.2041)
 -->
<!-- Title: MIDIButton.hpp Pages: 1 -->
<svg width="584pt" height="140pt"
 viewBox="0.00 0.00 583.50 140.00" xmlns="http://www.w3.org/2000/svg" xmlns:xlink="http://www.w3.org/1999/xlink">
<g id="graph0" class="graph" transform="scale(1 1) rotate(0) translate(4 136)">
<title>MIDIButton.hpp</title>
<polygon fill="white" stroke="none" points="-4,4 -4,-136 579.5,-136 579.5,4 -4,4"/>
<!-- Node1 -->
<g id="node1" class="node"><title>Node1</title>
<g id="a_node1"><a xlink:title=" ">
<polygon fill="#bfbfbf" stroke="black" points="244.5,-112.5 244.5,-131.5 330.5,-131.5 330.5,-112.5 244.5,-112.5"/>
<text text-anchor="middle" x="287.5" y="-119.5" font-family="Helvetica,sans-Serif" font-size="10.00">MIDIButton.hpp</text>
</a>
</g>
</g>
<!-- Node2 -->
<g id="node2" class="node"><title>Node2</title>
<g id="a_node2"><a xlink:href="../../db/d15/Bankable_2CCButton_8hpp.html" target="_top" xlink:title=" ">
<polygon fill="white" stroke="black" points="0,-56.5 0,-75.5 79,-75.5 79,-56.5 0,-56.5"/>
<text text-anchor="middle" x="39.5" y="-63.5" font-family="Helvetica,sans-Serif" font-size="10.00">CCButton.hpp</text>
</a>
</g>
</g>
<!-- Node1&#45;&gt;Node2 -->
<g id="edge1" class="edge"><title>Node1&#45;&gt;Node2</title>
<path fill="none" stroke="midnightblue" d="M238.274,-110.281C191.409,-100.077 121.801,-84.9203 78.6125,-75.5164"/>
<polygon fill="midnightblue" stroke="midnightblue" points="237.688,-113.736 248.204,-112.444 239.177,-106.896 237.688,-113.736"/>
</g>
<!-- Node4 -->
<g id="node4" class="node"><title>Node4</title>
<g id="a_node4"><a xlink:href="../../d5/d8e/Bankable_2NoteButton_8hpp.html" target="_top" xlink:title=" ">
<polygon fill="white" stroke="black" points="97,-56.5 97,-75.5 182,-75.5 182,-56.5 97,-56.5"/>
<text text-anchor="middle" x="139.5" y="-63.5" font-family="Helvetica,sans-Serif" font-size="10.00">NoteButton.hpp</text>
</a>
</g>
</g>
<!-- Node1&#45;&gt;Node4 -->
<g id="edge3" class="edge"><title>Node1&#45;&gt;Node4</title>
<path fill="none" stroke="midnightblue" d="M254.353,-108.906C226.528,-98.7536 187.48,-84.5063 162.841,-75.5164"/>
<polygon fill="midnightblue" stroke="midnightblue" points="253.455,-112.304 264.049,-112.444 255.854,-105.728 253.455,-112.304"/>
</g>
<!-- Node5 -->
<g id="node5" class="node"><title>Node5</title>
<g id="a_node5"><a xlink:href="../../d0/d52/Bankable_2PCButton_8hpp.html" target="_top" xlink:title=" ">
<polygon fill="white" stroke="black" points="200.5,-56.5 200.5,-75.5 278.5,-75.5 278.5,-56.5 200.5,-56.5"/>
<text text-anchor="middle" x="239.5" y="-63.5" font-family="Helvetica,sans-Serif" font-size="10.00">PCButton.hpp</text>
</a>
</g>
</g>
<!-- Node1&#45;&gt;Node5 -->
<g id="edge5" class="edge"><title>Node1&#45;&gt;Node5</title>
<path fill="none" stroke="midnightblue" d="M272.772,-104.431C264.36,-94.9673 254.151,-83.4827 247.279,-75.7511"/>
<polygon fill="midnightblue" stroke="midnightblue" points="270.314,-106.934 279.574,-112.083 275.546,-102.284 270.314,-106.934"/>
</g>
<!-- Node6 -->
<g id="node6" class="node"><title>Node6</title>
<g id="a_node6"><a xlink:href="../../de/da8/ManyAddresses_2CCButton_8hpp.html" target="_top" xlink:title=" ">
<polygon fill="white" stroke="black" points="297,-56.5 297,-75.5 376,-75.5 376,-56.5 297,-56.5"/>
<text text-anchor="middle" x="336.5" y="-63.5" font-family="Helvetica,sans-Serif" font-size="10.00">CCButton.hpp</text>
</a>
</g>
</g>
<!-- Node1&#45;&gt;Node6 -->
<g id="edge7" class="edge"><title>Node1&#45;&gt;Node6</title>
<path fill="none" stroke="midnightblue" d="M302.534,-104.431C311.122,-94.9673 321.543,-83.4827 328.559,-75.7511"/>
<polygon fill="midnightblue" stroke="midnightblue" points="299.719,-102.325 295.591,-112.083 304.903,-107.029 299.719,-102.325"/>
</g>
<!-- Node7 -->
<g id="node7" class="node"><title>Node7</title>
<g id="a_node7"><a xlink:href="../../de/d14/ManyAddresses_2NoteButton_8hpp.html" target="_top" xlink:title=" ">
<polygon fill="white" stroke="black" points="394,-56.5 394,-75.5 479,-75.5 479,-56.5 394,-56.5"/>
<text text-anchor="middle" x="436.5" y="-63.5" font-family="Helvetica,sans-Serif" font-size="10.00">NoteButton.hpp</text>
</a>
</g>
</g>
<!-- Node1&#45;&gt;Node7 -->
<g id="edge9" class="edge"><title>Node1&#45;&gt;Node7</title>
<path fill="none" stroke="midnightblue" d="M320.871,-108.906C348.884,-98.7536 388.196,-84.5063 413.001,-75.5164"/>
<polygon fill="midnightblue" stroke="midnightblue" points="319.319,-105.746 311.109,-112.444 321.704,-112.327 319.319,-105.746"/>
</g>
<!-- Node8 -->
<g id="node8" class="node"><title>Node8</title>
<g id="a_node8"><a xlink:href="../../df/de2/ManyAddresses_2PCButton_8hpp.html" target="_top" xlink:title=" ">
<polygon fill="white" stroke="black" points="497.5,-56.5 497.5,-75.5 575.5,-75.5 575.5,-56.5 497.5,-56.5"/>
<text text-anchor="middle" x="536.5" y="-63.5" font-family="Helvetica,sans-Serif" font-size="10.00">PCButton.hpp</text>
</a>
</g>
</g>
<!-- Node1&#45;&gt;Node8 -->
<g id="edge11" class="edge"><title>Node1&#45;&gt;Node8</title>
<path fill="none" stroke="midnightblue" d="M336.924,-110.281C383.979,-100.077 453.867,-84.9203 497.23,-75.5164"/>
<polygon fill="midnightblue" stroke="midnightblue" points="335.986,-106.904 326.955,-112.444 337.469,-113.745 335.986,-106.904"/>
</g>
<!-- Node3 -->
<g id="node3" class="node"><title>Node3</title>
<g id="a_node3"><a xlink:href="../../db/dbf/Control__Surface_8h.html" target="_top" xlink:title="The main header file that includes all Control&#45;Surface header files.">
<polygon fill="white" stroke="black" points="240,-0.5 240,-19.5 335,-19.5 335,-0.5 240,-0.5"/>
<text text-anchor="middle" x="287.5" y="-7.5" font-family="Helvetica,sans-Serif" font-size="10.00">Control_Surface.h</text>
</a>
</g>
</g>
<!-- Node2&#45;&gt;Node3 -->
<g id="edge2" class="edge"><title>Node2&#45;&gt;Node3</title>
<path fill="none" stroke="midnightblue" d="M88.7258,-54.2815C135.591,-44.0769 205.199,-28.9203 248.388,-19.5164"/>
<polygon fill="midnightblue" stroke="midnightblue" points="87.8227,-50.896 78.7963,-56.4435 89.3121,-57.7358 87.8227,-50.896"/>
</g>
<!-- Node4&#45;&gt;Node3 -->
<g id="edge4" class="edge"><title>Node4&#45;&gt;Node3</title>
<path fill="none" stroke="midnightblue" d="M172.647,-52.9058C200.472,-42.7536 239.52,-28.5063 264.159,-19.5164"/>
<polygon fill="midnightblue" stroke="midnightblue" points="171.146,-49.7279 162.951,-56.4435 173.545,-56.3038 171.146,-49.7279"/>
</g>
<!-- Node5&#45;&gt;Node3 -->
<g id="edge6" class="edge"><title>Node5&#45;&gt;Node3</title>
<path fill="none" stroke="midnightblue" d="M254.228,-48.4314C262.64,-38.9673 272.849,-27.4827 279.721,-19.7511"/>
<polygon fill="midnightblue" stroke="midnightblue" points="251.454,-46.2836 247.426,-56.083 256.686,-50.9342 251.454,-46.2836"/>
</g>
<!-- Node6&#45;&gt;Node3 -->
<g id="edge8" class="edge"><title>Node6&#45;&gt;Node3</title>
<path fill="none" stroke="midnightblue" d="M321.466,-48.4314C312.878,-38.9673 302.457,-27.4827 295.441,-19.7511"/>
<polygon fill="midnightblue" stroke="midnightblue" points="319.097,-51.0293 328.409,-56.083 324.281,-46.3254 319.097,-51.0293"/>
</g>
<!-- Node7&#45;&gt;Node3 -->
<g id="edge10" class="edge"><title>Node7&#45;&gt;Node3</title>
<path fill="none" stroke="midnightblue" d="M403.129,-52.9058C375.116,-42.7536 335.804,-28.5063 310.999,-19.5164"/>
<polygon fill="midnightblue" stroke="midnightblue" points="402.296,-56.3267 412.891,-56.4435 404.681,-49.7456 402.296,-56.3267"/>
</g>
<!-- Node8&#45;&gt;Node3 -->
<g id="edge12" class="edge"><title>Node8&#45;&gt;Node3</title>
<path fill="none" stroke="midnightblue" d="M487.36,-54.3431C440.336,-44.1453 370.319,-28.9607 326.862,-19.5364"/>
<polygon fill="midnightblue" stroke="midnightblue" points="486.805,-57.8041 497.32,-56.5031 488.289,-50.9631 486.805,-57.8041"/>
</g>
</g>
</svg>
