<?xml version="1.0" encoding="UTF-8" standalone="no"?>
<!DOCTYPE svg PUBLIC "-//W3C//DTD SVG 1.1//EN"
 "http://www.w3.org/Graphics/SVG/1.1/DTD/svg11.dtd">
<!-- Generated by graphviz version 2.38.0 (20140413.2041)
 -->
<!-- Title: SettingsWrapper.hpp Pages: 1 -->
<svg width="1555pt" height="532pt"
 viewBox="0.00 0.00 1554.50 532.00" xmlns="http://www.w3.org/2000/svg" xmlns:xlink="http://www.w3.org/1999/xlink">
<g id="graph0" class="graph" transform="scale(1 1) rotate(0) translate(4 528)">
<title>SettingsWrapper.hpp</title>
<polygon fill="white" stroke="none" points="-4,4 -4,-528 1550.5,-528 1550.5,4 -4,4"/>
<!-- Node1 -->
<g id="node1" class="node"><title>Node1</title>
<g id="a_node1"><a xlink:title=" ">
<polygon fill="#bfbfbf" stroke="black" points="644,-504.5 644,-523.5 752,-523.5 752,-504.5 644,-504.5"/>
<text text-anchor="middle" x="698" y="-511.5" font-family="Helvetica,sans-Serif" font-size="10.00">SettingsWrapper.hpp</text>
</a>
</g>
</g>
<!-- Node2 -->
<g id="node2" class="node"><title>Node2</title>
<g id="a_node2"><a xlink:href="../../d4/d93/Updatable_8hpp.html" target="_top" xlink:title=" ">
<polygon fill="white" stroke="black" points="692,-336.5 692,-355.5 772,-355.5 772,-336.5 692,-336.5"/>
<text text-anchor="middle" x="732" y="-343.5" font-family="Helvetica,sans-Serif" font-size="10.00">Updatable.hpp</text>
</a>
</g>
</g>
<!-- Node1&#45;&gt;Node2 -->
<g id="edge1" class="edge"><title>Node1&#45;&gt;Node2</title>
<path fill="none" stroke="midnightblue" d="M690.124,-494.912C680.718,-470.489 668.018,-426.101 683,-392 689.969,-376.138 705.594,-363.415 717.339,-355.598"/>
<polygon fill="midnightblue" stroke="midnightblue" points="686.958,-496.415 693.983,-504.345 693.436,-493.765 686.958,-496.415"/>
</g>
<!-- Node3 -->
<g id="node3" class="node"><title>Node3</title>
<g id="a_node3"><a xlink:href="../../df/dee/Debug_8hpp.html" target="_top" xlink:title=" ">
<polygon fill="white" stroke="black" points="700,-448.5 700,-467.5 764,-467.5 764,-448.5 700,-448.5"/>
<text text-anchor="middle" x="732" y="-455.5" font-family="Helvetica,sans-Serif" font-size="10.00">Debug.hpp</text>
</a>
</g>
</g>
<!-- Node1&#45;&gt;Node3 -->
<g id="edge2" class="edge"><title>Node1&#45;&gt;Node3</title>
<path fill="none" stroke="midnightblue" d="M702.938,-494.983C707.983,-485.817 715.16,-475.092 721.359,-467.751"/>
<polygon fill="midnightblue" stroke="midnightblue" points="699.734,-493.566 698.448,-504.083 706.011,-496.664 699.734,-493.566"/>
</g>
<!-- Node7 -->
<g id="node7" class="node"><title>Node7</title>
<g id="a_node7"><a xlink:href="../../d4/db3/Button_8hpp.html" target="_top" xlink:title=" ">
<polygon fill="white" stroke="black" points="253,-112.5 253,-131.5 317,-131.5 317,-112.5 253,-112.5"/>
<text text-anchor="middle" x="285" y="-119.5" font-family="Helvetica,sans-Serif" font-size="10.00">Button.hpp</text>
</a>
</g>
</g>
<!-- Node1&#45;&gt;Node7 -->
<g id="edge60" class="edge"><title>Node1&#45;&gt;Node7</title>
<path fill="none" stroke="midnightblue" d="M633.644,-507.489C526.214,-496.495 322,-467.159 322,-403 322,-403 322,-403 322,-233 322,-193.307 300.089,-149.564 289.99,-131.51"/>
<polygon fill="midnightblue" stroke="midnightblue" points="633.43,-510.985 643.728,-508.496 634.125,-504.02 633.43,-510.985"/>
</g>
<!-- Node23 -->
<g id="node23" class="node"><title>Node23</title>
<g id="a_node23"><a xlink:href="../../d8/df3/FilteredAnalog_8hpp.html" target="_top" xlink:title=" ">
<polygon fill="white" stroke="black" points="335,-112.5 335,-131.5 433,-131.5 433,-112.5 335,-112.5"/>
<text text-anchor="middle" x="384" y="-119.5" font-family="Helvetica,sans-Serif" font-size="10.00">FilteredAnalog.hpp</text>
</a>
</g>
</g>
<!-- Node1&#45;&gt;Node23 -->
<g id="edge64" class="edge"><title>Node1&#45;&gt;Node23</title>
<path fill="none" stroke="midnightblue" d="M633.446,-513.031C555.003,-509.276 433,-489.526 433,-403 433,-403 433,-403 433,-233 433,-192.024 404.277,-149.312 390.813,-131.542"/>
<polygon fill="midnightblue" stroke="midnightblue" points="633.601,-516.54 643.734,-513.445 633.883,-509.546 633.601,-516.54"/>
</g>
<!-- Node38 -->
<g id="node38" class="node"><title>Node38</title>
<g id="a_node38"><a xlink:href="../../d1/d1f/ShiftRegisterOutRGB_8hpp.html" target="_top" xlink:title=" ">
<polygon fill="white" stroke="black" points="1136,-448.5 1136,-467.5 1266,-467.5 1266,-448.5 1136,-448.5"/>
<text text-anchor="middle" x="1201" y="-455.5" font-family="Helvetica,sans-Serif" font-size="10.00">ShiftRegisterOutRGB.hpp</text>
</a>
</g>
</g>
<!-- Node1&#45;&gt;Node38 -->
<g id="edge61" class="edge"><title>Node1&#45;&gt;Node38</title>
<path fill="none" stroke="midnightblue" d="M762.492,-506.076C858.794,-495.738 1039.17,-476.373 1135.85,-465.994"/>
<polygon fill="midnightblue" stroke="midnightblue" points="761.877,-502.622 752.308,-507.17 762.624,-509.582 761.877,-502.622"/>
</g>
<!-- Node3&#45;&gt;Node1 -->
<g id="edge59" class="edge"><title>Node3&#45;&gt;Node1</title>
<path fill="none" stroke="midnightblue" d="M727.175,-476.811C722.163,-485.953 714.994,-496.691 708.781,-504.083"/>
<polygon fill="midnightblue" stroke="midnightblue" points="730.358,-478.27 731.621,-467.751 724.074,-475.187 730.358,-478.27"/>
</g>
<!-- Node4 -->
<g id="node4" class="node"><title>Node4</title>
<g id="a_node4"><a xlink:href="../../de/dd1/LinkedList_8hpp.html" target="_top" xlink:title=" ">
<polygon fill="white" stroke="black" points="692,-392.5 692,-411.5 772,-411.5 772,-392.5 692,-392.5"/>
<text text-anchor="middle" x="732" y="-399.5" font-family="Helvetica,sans-Serif" font-size="10.00">LinkedList.hpp</text>
</a>
</g>
</g>
<!-- Node3&#45;&gt;Node4 -->
<g id="edge3" class="edge"><title>Node3&#45;&gt;Node4</title>
<path fill="none" stroke="midnightblue" d="M732,-437.805C732,-428.91 732,-418.78 732,-411.751"/>
<polygon fill="midnightblue" stroke="midnightblue" points="728.5,-438.083 732,-448.083 735.5,-438.083 728.5,-438.083"/>
</g>
<!-- Node31 -->
<g id="node31" class="node"><title>Node31</title>
<g id="a_node31"><a xlink:href="../../df/d66/Debug_8cpp.html" target="_top" xlink:title=" ">
<polygon fill="white" stroke="black" points="790,-392.5 790,-411.5 854,-411.5 854,-392.5 790,-392.5"/>
<text text-anchor="middle" x="822" y="-399.5" font-family="Helvetica,sans-Serif" font-size="10.00">Debug.cpp</text>
</a>
</g>
</g>
<!-- Node3&#45;&gt;Node31 -->
<g id="edge41" class="edge"><title>Node3&#45;&gt;Node31</title>
<path fill="none" stroke="midnightblue" d="M755.038,-443.177C771.599,-433.241 793.418,-420.149 807.576,-411.655"/>
<polygon fill="midnightblue" stroke="midnightblue" points="753.234,-440.178 746.46,-448.324 756.836,-446.18 753.234,-440.178"/>
</g>
<!-- Node32 -->
<g id="node32" class="node"><title>Node32</title>
<g id="a_node32"><a xlink:href="../../d1/d93/Error_8hpp.html" target="_top" xlink:title=" ">
<polygon fill="white" stroke="black" points="883,-392.5 883,-411.5 939,-411.5 939,-392.5 883,-392.5"/>
<text text-anchor="middle" x="911" y="-399.5" font-family="Helvetica,sans-Serif" font-size="10.00">Error.hpp</text>
</a>
</g>
</g>
<!-- Node3&#45;&gt;Node32 -->
<g id="edge42" class="edge"><title>Node3&#45;&gt;Node32</title>
<path fill="none" stroke="midnightblue" d="M770.331,-445.436C804.08,-435.255 852.447,-420.664 882.77,-411.516"/>
<polygon fill="midnightblue" stroke="midnightblue" points="768.926,-442.204 760.363,-448.444 770.948,-448.906 768.926,-442.204"/>
</g>
<!-- Node4&#45;&gt;Node2 -->
<g id="edge4" class="edge"><title>Node4&#45;&gt;Node2</title>
<path fill="none" stroke="midnightblue" d="M732,-381.805C732,-372.91 732,-362.78 732,-355.751"/>
<polygon fill="midnightblue" stroke="midnightblue" points="728.5,-382.083 732,-392.083 735.5,-382.083 728.5,-382.083"/>
</g>
<!-- Node5 -->
<g id="node5" class="node"><title>Node5</title>
<g id="a_node5"><a xlink:href="../../d4/d57/ExtendedIOElement_8hpp.html" target="_top" xlink:title=" ">
<polygon fill="white" stroke="black" points="828.5,-224.5 828.5,-243.5 951.5,-243.5 951.5,-224.5 828.5,-224.5"/>
<text text-anchor="middle" x="890" y="-231.5" font-family="Helvetica,sans-Serif" font-size="10.00">ExtendedIOElement.hpp</text>
</a>
</g>
</g>
<!-- Node4&#45;&gt;Node5 -->
<g id="edge5" class="edge"><title>Node4&#45;&gt;Node5</title>
<path fill="none" stroke="midnightblue" d="M708.713,-386.581C691.055,-373.745 671.61,-354.231 683,-336 717.429,-280.892 791.556,-255.05 841.11,-243.524"/>
<polygon fill="midnightblue" stroke="midnightblue" points="706.864,-389.557 717.095,-392.311 710.815,-383.778 706.864,-389.557"/>
</g>
<!-- Node6 -->
<g id="node6" class="node"><title>Node6</title>
<g id="a_node6"><a xlink:href="../../dd/ddf/ExtendedInputOutput_8hpp.html" target="_top" xlink:title=" ">
<polygon fill="white" stroke="black" points="619,-168.5 619,-187.5 747,-187.5 747,-168.5 619,-168.5"/>
<text text-anchor="middle" x="683" y="-175.5" font-family="Helvetica,sans-Serif" font-size="10.00">ExtendedInputOutput.hpp</text>
</a>
</g>
</g>
<!-- Node5&#45;&gt;Node6 -->
<g id="edge6" class="edge"><title>Node5&#45;&gt;Node6</title>
<path fill="none" stroke="midnightblue" d="M847.178,-221.829C808.094,-211.633 751.165,-196.782 715.646,-187.516"/>
<polygon fill="midnightblue" stroke="midnightblue" points="846.641,-225.306 857.2,-224.444 848.408,-218.533 846.641,-225.306"/>
</g>
<!-- Node16 -->
<g id="node16" class="node"><title>Node16</title>
<g id="a_node16"><a xlink:href="../../d6/d3c/ExtendedInputOutput_8cpp.html" target="_top" xlink:title=" ">
<polygon fill="white" stroke="black" points="873,-112.5 873,-131.5 1001,-131.5 1001,-112.5 873,-112.5"/>
<text text-anchor="middle" x="937" y="-119.5" font-family="Helvetica,sans-Serif" font-size="10.00">ExtendedInputOutput.cpp</text>
</a>
</g>
</g>
<!-- Node5&#45;&gt;Node16 -->
<g id="edge39" class="edge"><title>Node5&#45;&gt;Node16</title>
<path fill="none" stroke="midnightblue" d="M897.692,-214.998C907.947,-190.997 925.691,-149.468 933.329,-131.591"/>
<polygon fill="midnightblue" stroke="midnightblue" points="894.399,-213.798 893.688,-224.368 900.836,-216.548 894.399,-213.798"/>
</g>
<!-- Node29 -->
<g id="node29" class="node"><title>Node29</title>
<g id="a_node29"><a xlink:href="../../d2/d05/StaticSizeExtendedIOElement_8hpp.html" target="_top" xlink:title=" ">
<polygon fill="white" stroke="black" points="1046,-168.5 1046,-187.5 1214,-187.5 1214,-168.5 1046,-168.5"/>
<text text-anchor="middle" x="1130" y="-175.5" font-family="Helvetica,sans-Serif" font-size="10.00">StaticSizeExtendedIOElement.hpp</text>
</a>
</g>
</g>
<!-- Node5&#45;&gt;Node29 -->
<g id="edge35" class="edge"><title>Node5&#45;&gt;Node29</title>
<path fill="none" stroke="midnightblue" d="M937.923,-222.217C983.274,-212.013 1050.44,-196.901 1092.15,-187.516"/>
<polygon fill="midnightblue" stroke="midnightblue" points="937.016,-218.834 928.029,-224.444 938.553,-225.663 937.016,-218.834"/>
</g>
<!-- Node30 -->
<g id="node30" class="node"><title>Node30</title>
<g id="a_node30"><a xlink:href="../../da/d1f/ExtendedIOElement_8cpp.html" target="_top" xlink:title=" ">
<polygon fill="white" stroke="black" points="1232.5,-168.5 1232.5,-187.5 1355.5,-187.5 1355.5,-168.5 1232.5,-168.5"/>
<text text-anchor="middle" x="1294" y="-175.5" font-family="Helvetica,sans-Serif" font-size="10.00">ExtendedIOElement.cpp</text>
</a>
</g>
</g>
<!-- Node5&#45;&gt;Node30 -->
<g id="edge40" class="edge"><title>Node5&#45;&gt;Node30</title>
<path fill="none" stroke="midnightblue" d="M961.882,-223.392C1038.77,-213.115 1159.44,-196.986 1232.21,-187.259"/>
<polygon fill="midnightblue" stroke="midnightblue" points="961.247,-219.946 951.799,-224.74 962.174,-226.884 961.247,-219.946"/>
</g>
<!-- Node6&#45;&gt;Node7 -->
<g id="edge7" class="edge"><title>Node6&#45;&gt;Node7</title>
<path fill="none" stroke="midnightblue" d="M608.512,-169.601C536.089,-161.938 423.108,-148.743 326,-132 323.127,-131.505 320.151,-130.944 317.175,-130.352"/>
<polygon fill="midnightblue" stroke="midnightblue" points="608.586,-173.128 618.896,-170.691 609.317,-166.166 608.586,-173.128"/>
</g>
<!-- Node13 -->
<g id="node13" class="node"><title>Node13</title>
<g id="a_node13"><a xlink:href="../../d5/d41/ButtonMatrix_8ipp.html" target="_top" xlink:title=" ">
<polygon fill="white" stroke="black" points="567,-112.5 567,-131.5 655,-131.5 655,-112.5 567,-112.5"/>
<text text-anchor="middle" x="611" y="-119.5" font-family="Helvetica,sans-Serif" font-size="10.00">ButtonMatrix.ipp</text>
</a>
</g>
</g>
<!-- Node6&#45;&gt;Node13 -->
<g id="edge13" class="edge"><title>Node6&#45;&gt;Node13</title>
<path fill="none" stroke="midnightblue" d="M663.134,-162.101C650.177,-152.382 633.703,-140.027 622.779,-131.834"/>
<polygon fill="midnightblue" stroke="midnightblue" points="661.332,-165.124 671.432,-168.324 665.532,-159.524 661.332,-165.124"/>
</g>
<!-- Node15 -->
<g id="node15" class="node"><title>Node15</title>
<g id="a_node15"><a xlink:href="../../d7/def/AnalogMultiplex_8hpp.html" target="_top" xlink:title=" ">
<polygon fill="white" stroke="black" points="1057,-112.5 1057,-131.5 1161,-131.5 1161,-112.5 1057,-112.5"/>
<text text-anchor="middle" x="1109" y="-119.5" font-family="Helvetica,sans-Serif" font-size="10.00">AnalogMultiplex.hpp</text>
</a>
</g>
</g>
<!-- Node6&#45;&gt;Node15 -->
<g id="edge16" class="edge"><title>Node6&#45;&gt;Node15</title>
<path fill="none" stroke="midnightblue" d="M757.417,-167.567C843.097,-156.706 981.643,-139.144 1056.68,-129.632"/>
<polygon fill="midnightblue" stroke="midnightblue" points="756.718,-164.127 747.238,-168.857 757.599,-171.072 756.718,-164.127"/>
</g>
<!-- Node6&#45;&gt;Node16 -->
<g id="edge17" class="edge"><title>Node6&#45;&gt;Node16</title>
<path fill="none" stroke="midnightblue" d="M733.115,-166.346C781.117,-156.141 852.615,-140.94 896.941,-131.516"/>
<polygon fill="midnightblue" stroke="midnightblue" points="732.301,-162.94 723.247,-168.444 733.756,-169.787 732.301,-162.94"/>
</g>
<!-- Node17 -->
<g id="node17" class="node"><title>Node17</title>
<g id="a_node17"><a xlink:href="../../d5/d47/ShiftRegisterOutBase_8ipp.html" target="_top" xlink:title=" ">
<polygon fill="white" stroke="black" points="1275,-56.5 1275,-75.5 1403,-75.5 1403,-56.5 1275,-56.5"/>
<text text-anchor="middle" x="1339" y="-63.5" font-family="Helvetica,sans-Serif" font-size="10.00">ShiftRegisterOutBase.ipp</text>
</a>
</g>
</g>
<!-- Node6&#45;&gt;Node17 -->
<g id="edge18" class="edge"><title>Node6&#45;&gt;Node17</title>
<path fill="none" stroke="midnightblue" d="M725.721,-165.732C754.522,-157.61 793.118,-145.697 826,-132 843.618,-124.662 845.695,-117.401 864,-112 1036.05,-61.2392 1087.63,-94.9773 1266,-76 1268.92,-75.6893 1271.91,-75.3618 1274.92,-75.0229"/>
<polygon fill="midnightblue" stroke="midnightblue" points="724.664,-162.393 715.967,-168.444 726.539,-169.137 724.664,-162.393"/>
</g>
<!-- Node20 -->
<g id="node20" class="node"><title>Node20</title>
<g id="a_node20"><a xlink:href="../../de/d95/ShiftRegisterOut_8ipp.html" target="_top" xlink:title=" ">
<polygon fill="white" stroke="black" points="1150.5,-0.5 1150.5,-19.5 1255.5,-19.5 1255.5,-0.5 1150.5,-0.5"/>
<text text-anchor="middle" x="1203" y="-7.5" font-family="Helvetica,sans-Serif" font-size="10.00">ShiftRegisterOut.ipp</text>
</a>
</g>
</g>
<!-- Node6&#45;&gt;Node20 -->
<g id="edge27" class="edge"><title>Node6&#45;&gt;Node20</title>
<path fill="none" stroke="midnightblue" d="M680.35,-158.288C677.702,-131.31 677.45,-81.8929 706,-56 738.409,-26.6077 1029.11,-15.5822 1150.31,-12.2387"/>
<polygon fill="midnightblue" stroke="midnightblue" points="676.89,-158.83 681.555,-168.342 683.84,-157.997 676.89,-158.83"/>
</g>
<!-- Node22 -->
<g id="node22" class="node"><title>Node22</title>
<g id="a_node22"><a xlink:href="../../da/d45/SPIShiftRegisterOut_8ipp.html" target="_top" xlink:title=" ">
<polygon fill="white" stroke="black" points="1423,-0.5 1423,-19.5 1545,-19.5 1545,-0.5 1423,-0.5"/>
<text text-anchor="middle" x="1484" y="-7.5" font-family="Helvetica,sans-Serif" font-size="10.00">SPIShiftRegisterOut.ipp</text>
</a>
</g>
</g>
<!-- Node6&#45;&gt;Node22 -->
<g id="edge28" class="edge"><title>Node6&#45;&gt;Node22</title>
<path fill="none" stroke="midnightblue" d="M608.976,-166.343C589.21,-159.743 570.024,-149.109 558,-132 538.577,-104.365 534.702,-80.4573 558,-56 561.742,-52.0713 1216.88,-22.8026 1422.8,-13.6961"/>
<polygon fill="midnightblue" stroke="midnightblue" points="608.113,-169.739 618.698,-169.27 610.131,-163.036 608.113,-169.739"/>
</g>
<!-- Node6&#45;&gt;Node23 -->
<g id="edge29" class="edge"><title>Node6&#45;&gt;Node23</title>
<path fill="none" stroke="midnightblue" d="M625.77,-166.664C569.265,-156.459 483.88,-141.039 431.156,-131.516"/>
<polygon fill="midnightblue" stroke="midnightblue" points="625.16,-170.11 635.623,-168.444 626.404,-163.222 625.16,-170.11"/>
</g>
<!-- Node24 -->
<g id="node24" class="node"><title>Node24</title>
<g id="a_node24"><a xlink:href="../../d9/d4f/LEDs_8hpp.html" target="_top" xlink:title=" ">
<polygon fill="white" stroke="black" points="451,-112.5 451,-131.5 511,-131.5 511,-112.5 451,-112.5"/>
<text text-anchor="middle" x="481" y="-119.5" font-family="Helvetica,sans-Serif" font-size="10.00">LEDs.hpp</text>
</a>
</g>
</g>
<!-- Node6&#45;&gt;Node24 -->
<g id="edge30" class="edge"><title>Node6&#45;&gt;Node24</title>
<path fill="none" stroke="midnightblue" d="M641.062,-165.789C602.315,-155.431 545.69,-140.293 511.208,-131.075"/>
<polygon fill="midnightblue" stroke="midnightblue" points="640.428,-169.242 650.992,-168.444 642.236,-162.48 640.428,-169.242"/>
</g>
<!-- Node26 -->
<g id="node26" class="node"><title>Node26</title>
<g id="a_node26"><a xlink:href="../../d7/d13/MAX7219__Base_8hpp.html" target="_top" xlink:title=" ">
<polygon fill="white" stroke="black" points="711,-112.5 711,-131.5 817,-131.5 817,-112.5 711,-112.5"/>
<text text-anchor="middle" x="764" y="-119.5" font-family="Helvetica,sans-Serif" font-size="10.00">MAX7219_Base.hpp</text>
</a>
</g>
</g>
<!-- Node6&#45;&gt;Node26 -->
<g id="edge32" class="edge"><title>Node6&#45;&gt;Node26</title>
<path fill="none" stroke="midnightblue" d="M704.567,-162.622C719.364,-152.757 738.512,-139.992 751.018,-131.655"/>
<polygon fill="midnightblue" stroke="midnightblue" points="702.393,-159.865 696.014,-168.324 706.276,-165.689 702.393,-159.865"/>
</g>
<!-- Node8 -->
<g id="node8" class="node"><title>Node8</title>
<g id="a_node8"><a xlink:href="../../de/dd1/Button_8cpp.html" target="_top" xlink:title=" ">
<polygon fill="white" stroke="black" points="0,-56.5 0,-75.5 64,-75.5 64,-56.5 0,-56.5"/>
<text text-anchor="middle" x="32" y="-63.5" font-family="Helvetica,sans-Serif" font-size="10.00">Button.cpp</text>
</a>
</g>
</g>
<!-- Node7&#45;&gt;Node8 -->
<g id="edge8" class="edge"><title>Node7&#45;&gt;Node8</title>
<path fill="none" stroke="midnightblue" d="M242.604,-112.091C199.795,-103.074 131.78,-88.6897 73,-76 70.1506,-75.3849 67.1907,-74.7422 64.2244,-74.0957"/>
<polygon fill="midnightblue" stroke="midnightblue" points="242.154,-115.573 252.66,-114.208 243.596,-108.723 242.154,-115.573"/>
</g>
<!-- Node9 -->
<g id="node9" class="node"><title>Node9</title>
<g id="a_node9"><a xlink:href="../../d5/d04/IncrementButton_8hpp.html" target="_top" xlink:title=" ">
<polygon fill="white" stroke="black" points="82.5,-56.5 82.5,-75.5 189.5,-75.5 189.5,-56.5 82.5,-56.5"/>
<text text-anchor="middle" x="136" y="-63.5" font-family="Helvetica,sans-Serif" font-size="10.00">IncrementButton.hpp</text>
</a>
</g>
</g>
<!-- Node7&#45;&gt;Node9 -->
<g id="edge9" class="edge"><title>Node7&#45;&gt;Node9</title>
<path fill="none" stroke="midnightblue" d="M251.629,-108.906C223.616,-98.7536 184.304,-84.5063 159.499,-75.5164"/>
<polygon fill="midnightblue" stroke="midnightblue" points="250.796,-112.327 261.391,-112.444 253.181,-105.746 250.796,-112.327"/>
</g>
<!-- Node11 -->
<g id="node11" class="node"><title>Node11</title>
<g id="a_node11"><a xlink:href="../../df/df5/IncrementDecrementButtons_8hpp.html" target="_top" xlink:title=" ">
<polygon fill="white" stroke="black" points="207.5,-56.5 207.5,-75.5 368.5,-75.5 368.5,-56.5 207.5,-56.5"/>
<text text-anchor="middle" x="288" y="-63.5" font-family="Helvetica,sans-Serif" font-size="10.00">IncrementDecrementButtons.hpp</text>
</a>
</g>
</g>
<!-- Node7&#45;&gt;Node11 -->
<g id="edge11" class="edge"><title>Node7&#45;&gt;Node11</title>
<path fill="none" stroke="midnightblue" d="M286.066,-101.805C286.561,-92.9102 287.123,-82.7798 287.514,-75.7511"/>
<polygon fill="midnightblue" stroke="midnightblue" points="282.556,-101.904 285.495,-112.083 289.545,-102.293 282.556,-101.904"/>
</g>
<!-- Node10 -->
<g id="node10" class="node"><title>Node10</title>
<g id="a_node10"><a xlink:href="../../db/d9d/IncrementButton_8cpp.html" target="_top" xlink:title=" ">
<polygon fill="white" stroke="black" points="82.5,-0.5 82.5,-19.5 189.5,-19.5 189.5,-0.5 82.5,-0.5"/>
<text text-anchor="middle" x="136" y="-7.5" font-family="Helvetica,sans-Serif" font-size="10.00">IncrementButton.cpp</text>
</a>
</g>
</g>
<!-- Node9&#45;&gt;Node10 -->
<g id="edge10" class="edge"><title>Node9&#45;&gt;Node10</title>
<path fill="none" stroke="midnightblue" d="M136,-45.8045C136,-36.9102 136,-26.7798 136,-19.7511"/>
<polygon fill="midnightblue" stroke="midnightblue" points="132.5,-46.083 136,-56.083 139.5,-46.083 132.5,-46.083"/>
</g>
<!-- Node12 -->
<g id="node12" class="node"><title>Node12</title>
<g id="a_node12"><a xlink:href="../../da/d66/IncrementDecrementButtons_8cpp.html" target="_top" xlink:title=" ">
<polygon fill="white" stroke="black" points="207.5,-0.5 207.5,-19.5 368.5,-19.5 368.5,-0.5 207.5,-0.5"/>
<text text-anchor="middle" x="288" y="-7.5" font-family="Helvetica,sans-Serif" font-size="10.00">IncrementDecrementButtons.cpp</text>
</a>
</g>
</g>
<!-- Node11&#45;&gt;Node12 -->
<g id="edge12" class="edge"><title>Node11&#45;&gt;Node12</title>
<path fill="none" stroke="midnightblue" d="M288,-45.8045C288,-36.9102 288,-26.7798 288,-19.7511"/>
<polygon fill="midnightblue" stroke="midnightblue" points="284.5,-46.083 288,-56.083 291.5,-46.083 284.5,-46.083"/>
</g>
<!-- Node14 -->
<g id="node14" class="node"><title>Node14</title>
<g id="a_node14"><a xlink:href="../../d9/d4b/ButtonMatrix_8hpp.html" target="_top" xlink:title=" ">
<polygon fill="white" stroke="black" points="567.5,-56.5 567.5,-75.5 658.5,-75.5 658.5,-56.5 567.5,-56.5"/>
<text text-anchor="middle" x="613" y="-63.5" font-family="Helvetica,sans-Serif" font-size="10.00">ButtonMatrix.hpp</text>
</a>
</g>
</g>
<!-- Node13&#45;&gt;Node14 -->
<g id="edge14" class="edge"><title>Node13&#45;&gt;Node14</title>
<path fill="none" stroke="midnightblue" d="M605.228,-102.101C604.928,-93.1357 605.755,-82.8579 607.545,-75.7511"/>
<polygon fill="midnightblue" stroke="midnightblue" points="601.745,-102.454 606.164,-112.083 608.715,-101.8 601.745,-102.454"/>
</g>
<!-- Node14&#45;&gt;Node13 -->
<g id="edge15" class="edge"><title>Node14&#45;&gt;Node13</title>
<path fill="none" stroke="midnightblue" d="M618.775,-85.9865C619.065,-94.8611 618.252,-105.006 616.497,-112.083"/>
<polygon fill="midnightblue" stroke="midnightblue" points="622.233,-85.3769 617.807,-75.7511 615.264,-86.0363 622.233,-85.3769"/>
</g>
<!-- Node18 -->
<g id="node18" class="node"><title>Node18</title>
<g id="a_node18"><a xlink:href="../../d8/d93/ShiftRegisterOutBase_8hpp.html" target="_top" xlink:title=" ">
<polygon fill="white" stroke="black" points="1273.5,-112.5 1273.5,-131.5 1404.5,-131.5 1404.5,-112.5 1273.5,-112.5"/>
<text text-anchor="middle" x="1339" y="-119.5" font-family="Helvetica,sans-Serif" font-size="10.00">ShiftRegisterOutBase.hpp</text>
</a>
</g>
</g>
<!-- Node17&#45;&gt;Node18 -->
<g id="edge19" class="edge"><title>Node17&#45;&gt;Node18</title>
<path fill="none" stroke="midnightblue" d="M1345.46,-85.6911C1346.11,-94.6353 1345.68,-104.927 1344.17,-112.083"/>
<polygon fill="midnightblue" stroke="midnightblue" points="1348.92,-85.2002 1344.13,-75.7511 1341.98,-86.1262 1348.92,-85.2002"/>
</g>
<!-- Node18&#45;&gt;Node17 -->
<g id="edge23" class="edge"><title>Node18&#45;&gt;Node17</title>
<path fill="none" stroke="midnightblue" d="M1332.53,-102.101C1331.9,-93.1357 1332.34,-82.8579 1333.87,-75.7511"/>
<polygon fill="midnightblue" stroke="midnightblue" points="1329.07,-102.622 1333.83,-112.083 1336.01,-101.713 1329.07,-102.622"/>
</g>
<!-- Node19 -->
<g id="node19" class="node"><title>Node19</title>
<g id="a_node19"><a xlink:href="../../d0/db4/ShiftRegisterOut_8hpp.html" target="_top" xlink:title=" ">
<polygon fill="white" stroke="black" points="1149,-56.5 1149,-75.5 1257,-75.5 1257,-56.5 1149,-56.5"/>
<text text-anchor="middle" x="1203" y="-63.5" font-family="Helvetica,sans-Serif" font-size="10.00">ShiftRegisterOut.hpp</text>
</a>
</g>
</g>
<!-- Node18&#45;&gt;Node19 -->
<g id="edge20" class="edge"><title>Node18&#45;&gt;Node19</title>
<path fill="none" stroke="midnightblue" d="M1307.87,-108.638C1282.34,-98.504 1246.89,-84.4274 1224.45,-75.5164"/>
<polygon fill="midnightblue" stroke="midnightblue" points="1306.86,-112.006 1317.45,-112.444 1309.45,-105.5 1306.86,-112.006"/>
</g>
<!-- Node21 -->
<g id="node21" class="node"><title>Node21</title>
<g id="a_node21"><a xlink:href="../../d7/d88/SPIShiftRegisterOut_8hpp.html" target="_top" xlink:title=" ">
<polygon fill="white" stroke="black" points="1421.5,-56.5 1421.5,-75.5 1546.5,-75.5 1546.5,-56.5 1421.5,-56.5"/>
<text text-anchor="middle" x="1484" y="-63.5" font-family="Helvetica,sans-Serif" font-size="10.00">SPIShiftRegisterOut.hpp</text>
</a>
</g>
</g>
<!-- Node18&#45;&gt;Node21 -->
<g id="edge24" class="edge"><title>Node18&#45;&gt;Node21</title>
<path fill="none" stroke="midnightblue" d="M1371.48,-108.906C1398.74,-98.7536 1436.99,-84.5063 1461.13,-75.5164"/>
<polygon fill="midnightblue" stroke="midnightblue" points="1370.13,-105.674 1361.98,-112.444 1372.57,-112.233 1370.13,-105.674"/>
</g>
<!-- Node19&#45;&gt;Node20 -->
<g id="edge21" class="edge"><title>Node19&#45;&gt;Node20</title>
<path fill="none" stroke="midnightblue" d="M1196.53,-46.1005C1195.9,-37.1357 1196.34,-26.8579 1197.87,-19.7511"/>
<polygon fill="midnightblue" stroke="midnightblue" points="1193.07,-46.6216 1197.83,-56.083 1200.01,-45.7134 1193.07,-46.6216"/>
</g>
<!-- Node20&#45;&gt;Node19 -->
<g id="edge22" class="edge"><title>Node20&#45;&gt;Node19</title>
<path fill="none" stroke="midnightblue" d="M1209.46,-29.6911C1210.11,-38.6353 1209.68,-48.9272 1208.17,-56.083"/>
<polygon fill="midnightblue" stroke="midnightblue" points="1212.92,-29.2002 1208.13,-19.7511 1205.98,-30.1262 1212.92,-29.2002"/>
</g>
<!-- Node21&#45;&gt;Node22 -->
<g id="edge25" class="edge"><title>Node21&#45;&gt;Node22</title>
<path fill="none" stroke="midnightblue" d="M1477.53,-46.1005C1476.9,-37.1357 1477.34,-26.8579 1478.87,-19.7511"/>
<polygon fill="midnightblue" stroke="midnightblue" points="1474.07,-46.6216 1478.83,-56.083 1481.01,-45.7134 1474.07,-46.6216"/>
</g>
<!-- Node22&#45;&gt;Node21 -->
<g id="edge26" class="edge"><title>Node22&#45;&gt;Node21</title>
<path fill="none" stroke="midnightblue" d="M1490.46,-29.6911C1491.11,-38.6353 1490.68,-48.9272 1489.17,-56.083"/>
<polygon fill="midnightblue" stroke="midnightblue" points="1493.92,-29.2002 1489.13,-19.7511 1486.98,-30.1262 1493.92,-29.2002"/>
</g>
<!-- Node25 -->
<g id="node25" class="node"><title>Node25</title>
<g id="a_node25"><a xlink:href="../../d6/d3a/DotBarDisplayLEDs_8hpp.html" target="_top" xlink:title=" ">
<polygon fill="white" stroke="black" points="387,-56.5 387,-75.5 511,-75.5 511,-56.5 387,-56.5"/>
<text text-anchor="middle" x="449" y="-63.5" font-family="Helvetica,sans-Serif" font-size="10.00">DotBarDisplayLEDs.hpp</text>
</a>
</g>
</g>
<!-- Node24&#45;&gt;Node25 -->
<g id="edge31" class="edge"><title>Node24&#45;&gt;Node25</title>
<path fill="none" stroke="midnightblue" d="M470.496,-103.275C465.027,-94.0454 458.582,-83.1703 454.186,-75.7511"/>
<polygon fill="midnightblue" stroke="midnightblue" points="467.607,-105.264 475.716,-112.083 473.629,-101.696 467.607,-105.264"/>
</g>
<!-- Node27 -->
<g id="node27" class="node"><title>Node27</title>
<g id="a_node27"><a xlink:href="../../d2/d25/MAX7219_8hpp.html" target="_top" xlink:title=" ">
<polygon fill="white" stroke="black" points="1053,-56.5 1053,-75.5 1131,-75.5 1131,-56.5 1053,-56.5"/>
<text text-anchor="middle" x="1092" y="-63.5" font-family="Helvetica,sans-Serif" font-size="10.00">MAX7219.hpp</text>
</a>
</g>
</g>
<!-- Node26&#45;&gt;Node27 -->
<g id="edge33" class="edge"><title>Node26&#45;&gt;Node27</title>
<path fill="none" stroke="midnightblue" d="M825.922,-110.806C892.515,-99.842 996.386,-82.7414 1052.62,-73.4826"/>
<polygon fill="midnightblue" stroke="midnightblue" points="825.271,-107.365 815.973,-112.444 826.408,-114.272 825.271,-107.365"/>
</g>
<!-- Node28 -->
<g id="node28" class="node"><title>Node28</title>
<g id="a_node28"><a xlink:href="../../d5/d0c/MAX7219SevenSegmentDisplay_8hpp.html" target="_top" xlink:title=" ">
<polygon fill="white" stroke="black" points="715,-56.5 715,-75.5 893,-75.5 893,-56.5 715,-56.5"/>
<text text-anchor="middle" x="804" y="-63.5" font-family="Helvetica,sans-Serif" font-size="10.00">MAX7219SevenSegmentDisplay.hpp</text>
</a>
</g>
</g>
<!-- Node26&#45;&gt;Node28 -->
<g id="edge34" class="edge"><title>Node26&#45;&gt;Node28</title>
<path fill="none" stroke="midnightblue" d="M776.7,-103.855C783.626,-94.5048 791.906,-83.3265 797.518,-75.7511"/>
<polygon fill="midnightblue" stroke="midnightblue" points="773.745,-101.964 770.605,-112.083 779.37,-106.131 773.745,-101.964"/>
</g>
<!-- Node29&#45;&gt;Node15 -->
<g id="edge36" class="edge"><title>Node29&#45;&gt;Node15</title>
<path fill="none" stroke="midnightblue" d="M1122.88,-158.69C1119.34,-149.589 1115.23,-139.014 1112.4,-131.751"/>
<polygon fill="midnightblue" stroke="midnightblue" points="1119.65,-160.032 1126.53,-168.083 1126.17,-157.494 1119.65,-160.032"/>
</g>
<!-- Node29&#45;&gt;Node18 -->
<g id="edge38" class="edge"><title>Node29&#45;&gt;Node18</title>
<path fill="none" stroke="midnightblue" d="M1172.98,-165.894C1212.45,-155.697 1270.1,-140.802 1306.04,-131.516"/>
<polygon fill="midnightblue" stroke="midnightblue" points="1171.92,-162.553 1163.12,-168.444 1173.67,-169.331 1171.92,-162.553"/>
</g>
<!-- Node29&#45;&gt;Node27 -->
<g id="edge37" class="edge"><title>Node29&#45;&gt;Node27</title>
<path fill="none" stroke="midnightblue" d="M1149.71,-161.918C1164.29,-148.835 1180.01,-129.329 1170,-112 1159.52,-93.8592 1138.64,-82.3801 1121.12,-75.5592"/>
<polygon fill="midnightblue" stroke="midnightblue" points="1147.31,-159.361 1141.9,-168.47 1151.81,-164.724 1147.31,-159.361"/>
</g>
<!-- Node32&#45;&gt;Node2 -->
<g id="edge55" class="edge"><title>Node32&#45;&gt;Node2</title>
<path fill="none" stroke="midnightblue" d="M872.669,-389.436C838.92,-379.255 790.553,-364.664 760.23,-355.516"/>
<polygon fill="midnightblue" stroke="midnightblue" points="872.052,-392.906 882.637,-392.444 874.074,-386.204 872.052,-392.906"/>
</g>
<!-- Node32&#45;&gt;Node16 -->
<g id="edge57" class="edge"><title>Node32&#45;&gt;Node16</title>
<path fill="none" stroke="midnightblue" d="M881.952,-387.774C849.063,-370.574 800,-337.176 800,-291 800,-291 800,-291 800,-233 800,-177.79 868.485,-145.662 908.614,-131.576"/>
<polygon fill="midnightblue" stroke="midnightblue" points="880.648,-391.036 891.155,-392.391 883.786,-384.779 880.648,-391.036"/>
</g>
<!-- Node32&#45;&gt;Node30 -->
<g id="edge58" class="edge"><title>Node32&#45;&gt;Node30</title>
<path fill="none" stroke="midnightblue" d="M948.963,-389.801C973.808,-381.826 1006.62,-370.054 1034,-356 1137.48,-302.888 1248.75,-215.625 1283.22,-187.808"/>
<polygon fill="midnightblue" stroke="midnightblue" points="947.672,-386.538 939.183,-392.877 949.772,-393.215 947.672,-386.538"/>
</g>
<!-- Node33 -->
<g id="node33" class="node"><title>Node33</title>
<g id="a_node33"><a xlink:href="../../de/d76/Array_8hpp.html" target="_top" xlink:title=" ">
<polygon fill="white" stroke="black" points="966.5,-336.5 966.5,-355.5 1025.5,-355.5 1025.5,-336.5 966.5,-336.5"/>
<text text-anchor="middle" x="996" y="-343.5" font-family="Helvetica,sans-Serif" font-size="10.00">Array.hpp</text>
</a>
</g>
</g>
<!-- Node32&#45;&gt;Node33 -->
<g id="edge43" class="edge"><title>Node32&#45;&gt;Node33</title>
<path fill="none" stroke="midnightblue" d="M933.194,-386.901C948.78,-376.999 969.13,-364.071 982.377,-355.655"/>
<polygon fill="midnightblue" stroke="midnightblue" points="931.221,-384.007 924.657,-392.324 934.974,-389.916 931.221,-384.007"/>
</g>
<!-- Node36 -->
<g id="node36" class="node"><title>Node36</title>
<g id="a_node36"><a xlink:href="../../d1/d40/BitArray_8hpp.html" target="_top" xlink:title=" ">
<polygon fill="white" stroke="black" points="1373.5,-168.5 1373.5,-187.5 1444.5,-187.5 1444.5,-168.5 1373.5,-168.5"/>
<text text-anchor="middle" x="1409" y="-175.5" font-family="Helvetica,sans-Serif" font-size="10.00">BitArray.hpp</text>
</a>
</g>
</g>
<!-- Node32&#45;&gt;Node36 -->
<g id="edge51" class="edge"><title>Node32&#45;&gt;Node36</title>
<path fill="none" stroke="midnightblue" d="M948.804,-392.104C980.401,-384.162 1026.37,-371.419 1065,-356 1198.18,-302.845 1348.48,-215.242 1394.72,-187.62"/>
<polygon fill="midnightblue" stroke="midnightblue" points="947.944,-388.712 939.078,-394.512 949.626,-395.507 947.944,-388.712"/>
</g>
<!-- Node37 -->
<g id="node37" class="node"><title>Node37</title>
<g id="a_node37"><a xlink:href="../../d6/df4/Exit_8cpp.html" target="_top" xlink:title=" ">
<polygon fill="white" stroke="black" points="884.5,-336.5 884.5,-355.5 937.5,-355.5 937.5,-336.5 884.5,-336.5"/>
<text text-anchor="middle" x="911" y="-343.5" font-family="Helvetica,sans-Serif" font-size="10.00">Exit.cpp</text>
</a>
</g>
</g>
<!-- Node32&#45;&gt;Node37 -->
<g id="edge56" class="edge"><title>Node32&#45;&gt;Node37</title>
<path fill="none" stroke="midnightblue" d="M911,-381.805C911,-372.91 911,-362.78 911,-355.751"/>
<polygon fill="midnightblue" stroke="midnightblue" points="907.5,-382.083 911,-392.083 914.5,-382.083 907.5,-382.083"/>
</g>
<!-- Node33&#45;&gt;Node15 -->
<g id="edge46" class="edge"><title>Node33&#45;&gt;Node15</title>
<path fill="none" stroke="midnightblue" d="M995.815,-326.245C996.382,-291.716 1001.93,-217.131 1037,-168 1049.25,-150.843 1070.28,-138.812 1086.46,-131.535"/>
<polygon fill="midnightblue" stroke="midnightblue" points="992.314,-326.312 995.778,-336.325 999.314,-326.338 992.314,-326.312"/>
</g>
<!-- Node34 -->
<g id="node34" class="node"><title>Node34</title>
<g id="a_node34"><a xlink:href="../../d5/db6/ArrayHelpers_8hpp.html" target="_top" xlink:title=" ">
<polygon fill="white" stroke="black" points="1065,-224.5 1065,-243.5 1157,-243.5 1157,-224.5 1065,-224.5"/>
<text text-anchor="middle" x="1111" y="-231.5" font-family="Helvetica,sans-Serif" font-size="10.00">ArrayHelpers.hpp</text>
</a>
</g>
</g>
<!-- Node33&#45;&gt;Node34 -->
<g id="edge44" class="edge"><title>Node33&#45;&gt;Node34</title>
<path fill="none" stroke="midnightblue" d="M1012.51,-329.205C1037.16,-305.627 1082.74,-262.029 1102.02,-243.591"/>
<polygon fill="midnightblue" stroke="midnightblue" points="1009.83,-326.927 1005.02,-336.368 1014.67,-331.985 1009.83,-326.927"/>
</g>
<!-- Node35 -->
<g id="node35" class="node"><title>Node35</title>
<g id="a_node35"><a xlink:href="../../d4/d35/Hardware-Types_8hpp.html" target="_top" xlink:title=" ">
<polygon fill="white" stroke="black" points="859.5,-280.5 859.5,-299.5 966.5,-299.5 966.5,-280.5 859.5,-280.5"/>
<text text-anchor="middle" x="913" y="-287.5" font-family="Helvetica,sans-Serif" font-size="10.00">Hardware&#45;Types.hpp</text>
</a>
</g>
</g>
<!-- Node33&#45;&gt;Node35 -->
<g id="edge47" class="edge"><title>Node33&#45;&gt;Node35</title>
<path fill="none" stroke="midnightblue" d="M973.901,-330.622C958.738,-320.757 939.117,-307.992 926.302,-299.655"/>
<polygon fill="midnightblue" stroke="midnightblue" points="972.374,-333.804 982.665,-336.324 976.191,-327.937 972.374,-333.804"/>
</g>
<!-- Node34&#45;&gt;Node29 -->
<g id="edge45" class="edge"><title>Node34&#45;&gt;Node29</title>
<path fill="none" stroke="midnightblue" d="M1117.55,-214.396C1120.72,-205.362 1124.39,-194.936 1126.92,-187.751"/>
<polygon fill="midnightblue" stroke="midnightblue" points="1114.15,-213.488 1114.14,-224.083 1120.76,-215.812 1114.15,-213.488"/>
</g>
<!-- Node35&#45;&gt;Node5 -->
<g id="edge49" class="edge"><title>Node35&#45;&gt;Node5</title>
<path fill="none" stroke="midnightblue" d="M905.201,-270.69C901.325,-261.589 896.821,-251.014 893.727,-243.751"/>
<polygon fill="midnightblue" stroke="midnightblue" points="902.063,-272.254 909.202,-280.083 908.503,-269.511 902.063,-272.254"/>
</g>
<!-- Node35&#45;&gt;Node14 -->
<g id="edge48" class="edge"><title>Node35&#45;&gt;Node14</title>
<path fill="none" stroke="midnightblue" d="M932.531,-274.045C972.545,-241.676 1056.32,-163.864 1010,-112 1004.18,-105.484 761.565,-81.3464 658.527,-71.3642"/>
<polygon fill="midnightblue" stroke="midnightblue" points="930.164,-271.455 924.499,-280.408 934.511,-276.942 930.164,-271.455"/>
</g>
<!-- Node35&#45;&gt;Node23 -->
<g id="edge50" class="edge"><title>Node35&#45;&gt;Node23</title>
<path fill="none" stroke="midnightblue" d="M875.948,-277.373C775.384,-245.816 498.988,-159.083 411.164,-131.524"/>
<polygon fill="midnightblue" stroke="midnightblue" points="875.083,-280.77 885.673,-280.425 877.179,-274.091 875.083,-280.77"/>
</g>
<!-- Node36&#45;&gt;Node18 -->
<g id="edge53" class="edge"><title>Node36&#45;&gt;Node18</title>
<path fill="none" stroke="midnightblue" d="M1389.69,-162.101C1377.09,-152.382 1361.07,-140.027 1350.45,-131.834"/>
<polygon fill="midnightblue" stroke="midnightblue" points="1387.7,-164.987 1397.75,-168.324 1391.97,-159.445 1387.7,-164.987"/>
</g>
<!-- Node36&#45;&gt;Node21 -->
<g id="edge54" class="edge"><title>Node36&#45;&gt;Node21</title>
<path fill="none" stroke="midnightblue" d="M1420.62,-159.957C1436.87,-136.118 1465.79,-93.7088 1478.14,-75.5914"/>
<polygon fill="midnightblue" stroke="midnightblue" points="1417.63,-158.135 1414.89,-168.368 1423.41,-162.078 1417.63,-158.135"/>
</g>
<!-- Node36&#45;&gt;Node27 -->
<g id="edge52" class="edge"><title>Node36&#45;&gt;Node27</title>
<path fill="none" stroke="midnightblue" d="M1369.82,-165.54C1340.53,-156.802 1299.56,-144.226 1264,-132 1209.21,-113.164 1145.65,-88.364 1113.3,-75.5249"/>
<polygon fill="midnightblue" stroke="midnightblue" points="1369.09,-168.973 1379.67,-168.464 1371.08,-162.263 1369.09,-168.973"/>
</g>
<!-- Node38&#45;&gt;Node17 -->
<g id="edge62" class="edge"><title>Node38&#45;&gt;Node17</title>
<path fill="none" stroke="midnightblue" d="M1255.77,-446.417C1335.21,-429.477 1473,-393.406 1473,-347 1473,-347 1473,-347 1473,-177 1473,-122.221 1405.27,-89.7333 1366.12,-75.5286"/>
<polygon fill="midnightblue" stroke="midnightblue" points="1254.98,-443.006 1245.92,-448.485 1256.42,-449.857 1254.98,-443.006"/>
</g>
<!-- Node39 -->
<g id="node39" class="node"><title>Node39</title>
<g id="a_node39"><a xlink:href="../../db/d0b/ShiftRegisterOutRGB_8cpp.html" target="_top" xlink:title=" ">
<polygon fill="white" stroke="black" points="1136,-392.5 1136,-411.5 1266,-411.5 1266,-392.5 1136,-392.5"/>
<text text-anchor="middle" x="1201" y="-399.5" font-family="Helvetica,sans-Serif" font-size="10.00">ShiftRegisterOutRGB.cpp</text>
</a>
</g>
</g>
<!-- Node38&#45;&gt;Node39 -->
<g id="edge63" class="edge"><title>Node38&#45;&gt;Node39</title>
<path fill="none" stroke="midnightblue" d="M1201,-437.805C1201,-428.91 1201,-418.78 1201,-411.751"/>
<polygon fill="midnightblue" stroke="midnightblue" points="1197.5,-438.083 1201,-448.083 1204.5,-438.083 1197.5,-438.083"/>
</g>
</g>
</svg>
