<?xml version="1.0" encoding="UTF-8" standalone="no"?>
<!DOCTYPE svg PUBLIC "-//W3C//DTD SVG 1.1//EN"
 "http://www.w3.org/Graphics/SVG/1.1/DTD/svg11.dtd">
<!-- Generated by graphviz version 2.38.0 (20140413.2041)
 -->
<!-- Title: SettingsWrapper.hpp Pages: 1 -->
<svg width="892pt" height="252pt"
 viewBox="0.00 0.00 892.12 252.00" xmlns="http://www.w3.org/2000/svg" xmlns:xlink="http://www.w3.org/1999/xlink">
<g id="graph0" class="graph" transform="scale(1 1) rotate(0) translate(4 248)">
<title>SettingsWrapper.hpp</title>
<polygon fill="white" stroke="none" points="-4,4 -4,-248 888.123,-248 888.123,4 -4,4"/>
<!-- Node1 -->
<g id="node1" class="node"><title>Node1</title>
<g id="a_node1"><a xlink:title=" ">
<polygon fill="#bfbfbf" stroke="black" points="435,-224.5 435,-243.5 543,-243.5 543,-224.5 435,-224.5"/>
<text text-anchor="middle" x="489" y="-231.5" font-family="Helvetica,sans-Serif" font-size="10.00">SettingsWrapper.hpp</text>
</a>
</g>
</g>
<!-- Node2 -->
<g id="node2" class="node"><title>Node2</title>
<g id="a_node2"><a xlink:title=" ">
<polygon fill="white" stroke="#bfbfbf" points="311,-168.5 311,-187.5 435,-187.5 435,-168.5 311,-168.5"/>
<text text-anchor="middle" x="373" y="-175.5" font-family="Helvetica,sans-Serif" font-size="10.00">NamespaceSettings.hpp</text>
</a>
</g>
</g>
<!-- Node1&#45;&gt;Node2 -->
<g id="edge1" class="edge"><title>Node1&#45;&gt;Node2</title>
<path fill="none" stroke="midnightblue" d="M470.619,-224.444C451.784,-215.675 422.269,-201.935 400.621,-191.858"/>
<polygon fill="midnightblue" stroke="midnightblue" points="401.838,-188.564 391.295,-187.516 398.883,-194.91 401.838,-188.564"/>
</g>
<!-- Node3 -->
<g id="node3" class="node"><title>Node3</title>
<g id="a_node3"><a xlink:title=" ">
<polygon fill="white" stroke="#bfbfbf" points="453.5,-168.5 453.5,-187.5 524.5,-187.5 524.5,-168.5 453.5,-168.5"/>
<text text-anchor="middle" x="489" y="-175.5" font-family="Helvetica,sans-Serif" font-size="10.00">Settings.hpp</text>
</a>
</g>
</g>
<!-- Node1&#45;&gt;Node3 -->
<g id="edge2" class="edge"><title>Node1&#45;&gt;Node3</title>
<path fill="none" stroke="midnightblue" d="M489,-224.083C489,-217.006 489,-206.861 489,-197.986"/>
<polygon fill="midnightblue" stroke="midnightblue" points="492.5,-197.751 489,-187.751 485.5,-197.751 492.5,-197.751"/>
</g>
<!-- Node4 -->
<g id="node4" class="node"><title>Node4</title>
<g id="a_node4"><a xlink:href="../../de/dd1/AH_2Settings_2SettingsWrapper_8hpp.html" target="_top" xlink:title=" ">
<polygon fill="white" stroke="black" points="543,-168.5 543,-187.5 707,-187.5 707,-168.5 543,-168.5"/>
<text text-anchor="middle" x="625" y="-175.5" font-family="Helvetica,sans-Serif" font-size="10.00">AH/Settings/SettingsWrapper.hpp</text>
</a>
</g>
</g>
<!-- Node1&#45;&gt;Node4 -->
<g id="edge3" class="edge"><title>Node1&#45;&gt;Node4</title>
<path fill="none" stroke="midnightblue" d="M510.55,-224.444C533.031,-215.517 568.488,-201.439 593.98,-191.317"/>
<polygon fill="midnightblue" stroke="midnightblue" points="595.549,-194.46 603.551,-187.516 592.965,-187.954 595.549,-194.46"/>
</g>
<!-- Node5 -->
<g id="node5" class="node"><title>Node5</title>
<g id="a_node5"><a xlink:href="../../d1/d65/Warnings_8hpp.html" target="_top" xlink:title=" ">
<polygon fill="white" stroke="black" points="573.5,-0.5 573.5,-19.5 706.5,-19.5 706.5,-0.5 573.5,-0.5"/>
<text text-anchor="middle" x="640" y="-7.5" font-family="Helvetica,sans-Serif" font-size="10.00">AH/Settings/Warnings.hpp</text>
</a>
</g>
</g>
<!-- Node4&#45;&gt;Node5 -->
<g id="edge4" class="edge"><title>Node4&#45;&gt;Node5</title>
<path fill="none" stroke="midnightblue" d="M707.181,-173.436C772.21,-168.687 855.531,-157.642 877,-132 898.768,-106.001 864.357,-71.3 843,-56 806.479,-29.8364 757.49,-18.4763 716.788,-13.7097"/>
<polygon fill="midnightblue" stroke="midnightblue" points="716.944,-10.2068 706.631,-12.635 716.207,-17.1679 716.944,-10.2068"/>
</g>
<!-- Node6 -->
<g id="node6" class="node"><title>Node6</title>
<g id="a_node6"><a xlink:href="../../d6/db0/AH_2Settings_2NamespaceSettings_8hpp.html" target="_top" xlink:title=" ">
<polygon fill="white" stroke="black" points="0,-0.5 0,-19.5 124,-19.5 124,-0.5 0,-0.5"/>
<text text-anchor="middle" x="62" y="-7.5" font-family="Helvetica,sans-Serif" font-size="10.00">NamespaceSettings.hpp</text>
</a>
</g>
</g>
<!-- Node4&#45;&gt;Node6 -->
<g id="edge5" class="edge"><title>Node4&#45;&gt;Node6</title>
<path fill="none" stroke="midnightblue" d="M542.845,-168.993C388.133,-153.057 66.2152,-115.489 35,-76 23.579,-61.5518 34.9648,-41.5858 46.2615,-27.6073"/>
<polygon fill="midnightblue" stroke="midnightblue" points="49.1502,-29.6197 53.079,-19.7803 43.8717,-25.0221 49.1502,-29.6197"/>
</g>
<!-- Node7 -->
<g id="node7" class="node"><title>Node7</title>
<g id="a_node7"><a xlink:href="../../d5/d4f/AH_2Settings_2Settings_8hpp.html" target="_top" xlink:title="All user settings and debugging options can be changed here.">
<polygon fill="white" stroke="black" points="280.5,-112.5 280.5,-131.5 351.5,-131.5 351.5,-112.5 280.5,-112.5"/>
<text text-anchor="middle" x="316" y="-119.5" font-family="Helvetica,sans-Serif" font-size="10.00">Settings.hpp</text>
</a>
</g>
</g>
<!-- Node4&#45;&gt;Node7 -->
<g id="edge6" class="edge"><title>Node4&#45;&gt;Node7</title>
<path fill="none" stroke="midnightblue" d="M576.038,-168.444C517.121,-158.147 418.983,-140.997 361.605,-130.97"/>
<polygon fill="midnightblue" stroke="midnightblue" points="362.181,-127.518 351.728,-129.244 360.976,-134.413 362.181,-127.518"/>
</g>
<!-- Node14 -->
<g id="node14" class="node"><title>Node14</title>
<g id="a_node14"><a xlink:href="../../d9/d98/TeensyUSBTypes_8hpp.html" target="_top" xlink:title=" ">
<polygon fill="white" stroke="black" points="700,-112.5 700,-131.5 868,-131.5 868,-112.5 700,-112.5"/>
<text text-anchor="middle" x="784" y="-119.5" font-family="Helvetica,sans-Serif" font-size="10.00">AH/Teensy/TeensyUSBTypes.hpp</text>
</a>
</g>
</g>
<!-- Node4&#45;&gt;Node14 -->
<g id="edge16" class="edge"><title>Node4&#45;&gt;Node14</title>
<path fill="none" stroke="midnightblue" d="M650.194,-168.444C676.943,-159.359 719.403,-144.939 749.305,-134.783"/>
<polygon fill="midnightblue" stroke="midnightblue" points="750.581,-138.046 758.924,-131.516 748.329,-131.418 750.581,-138.046"/>
</g>
<!-- Node15 -->
<g id="node15" class="node"><title>Node15</title>
<g id="a_node15"><a xlink:href="../../df/dee/Debug_8hpp.html" target="_top" xlink:title=" ">
<polygon fill="white" stroke="black" points="568.5,-112.5 568.5,-131.5 681.5,-131.5 681.5,-112.5 568.5,-112.5"/>
<text text-anchor="middle" x="625" y="-119.5" font-family="Helvetica,sans-Serif" font-size="10.00">AH/Debug/Debug.hpp</text>
</a>
</g>
</g>
<!-- Node4&#45;&gt;Node15 -->
<g id="edge17" class="edge"><title>Node4&#45;&gt;Node15</title>
<path fill="none" stroke="midnightblue" d="M619.834,-168.083C618.324,-160.927 617.894,-150.635 618.542,-141.691"/>
<polygon fill="midnightblue" stroke="midnightblue" points="622.015,-142.126 619.869,-131.751 615.077,-141.2 622.015,-142.126"/>
</g>
<!-- Node8 -->
<g id="node8" class="node"><title>Node8</title>
<g id="a_node8"><a xlink:href="../../dc/d50/Frequency_8hpp.html" target="_top" xlink:title=" ">
<polygon fill="white" stroke="black" points="44,-56.5 44,-75.5 172,-75.5 172,-56.5 44,-56.5"/>
<text text-anchor="middle" x="108" y="-63.5" font-family="Helvetica,sans-Serif" font-size="10.00">AH/Types/Frequency.hpp</text>
</a>
</g>
</g>
<!-- Node7&#45;&gt;Node8 -->
<g id="edge7" class="edge"><title>Node7&#45;&gt;Node8</title>
<path fill="none" stroke="midnightblue" d="M283.042,-112.444C247.213,-103.142 189.837,-88.246 150.609,-78.062"/>
<polygon fill="midnightblue" stroke="midnightblue" points="151.363,-74.6417 140.804,-75.5164 149.604,-81.4171 151.363,-74.6417"/>
</g>
<!-- Node9 -->
<g id="node9" class="node"><title>Node9</title>
<g id="a_node9"><a xlink:href="../../d7/d7c/ADCConfig_8hpp.html" target="_top" xlink:title="This file contains the platform&#45;specific ADC resolutions. By default, the library automatically selec...">
<polygon fill="white" stroke="black" points="394,-56.5 394,-75.5 542,-75.5 542,-56.5 394,-56.5"/>
<text text-anchor="middle" x="468" y="-63.5" font-family="Helvetica,sans-Serif" font-size="10.00">AH/Hardware/ADCConfig.hpp</text>
</a>
</g>
</g>
<!-- Node7&#45;&gt;Node9 -->
<g id="edge10" class="edge"><title>Node7&#45;&gt;Node9</title>
<path fill="none" stroke="midnightblue" d="M340.085,-112.444C365.545,-103.399 405.894,-89.064 434.459,-78.9158"/>
<polygon fill="midnightblue" stroke="midnightblue" points="435.777,-82.1622 444.028,-75.5164 433.433,-75.5661 435.777,-82.1622"/>
</g>
<!-- Node11 -->
<g id="node11" class="node"><title>Node11</title>
<g id="a_node11"><a xlink:title=" ">
<polygon fill="white" stroke="#bfbfbf" points="190,-56.5 190,-75.5 238,-75.5 238,-56.5 190,-56.5"/>
<text text-anchor="middle" x="214" y="-63.5" font-family="Helvetica,sans-Serif" font-size="10.00">limits.h</text>
</a>
</g>
</g>
<!-- Node7&#45;&gt;Node11 -->
<g id="edge13" class="edge"><title>Node7&#45;&gt;Node11</title>
<path fill="none" stroke="midnightblue" d="M299.612,-112.324C283.329,-103.703 258.133,-90.3643 239.284,-80.3855"/>
<polygon fill="midnightblue" stroke="midnightblue" points="240.823,-77.2402 230.347,-75.6545 237.548,-83.4267 240.823,-77.2402"/>
</g>
<!-- Node12 -->
<g id="node12" class="node"><title>Node12</title>
<g id="a_node12"><a xlink:title=" ">
<polygon fill="white" stroke="#bfbfbf" points="256,-56.5 256,-75.5 308,-75.5 308,-56.5 256,-56.5"/>
<text text-anchor="middle" x="282" y="-63.5" font-family="Helvetica,sans-Serif" font-size="10.00">stddef.h</text>
</a>
</g>
</g>
<!-- Node7&#45;&gt;Node12 -->
<g id="edge14" class="edge"><title>Node7&#45;&gt;Node12</title>
<path fill="none" stroke="midnightblue" d="M310.386,-112.083C305.633,-104.534 298.682,-93.4948 292.848,-84.2298"/>
<polygon fill="midnightblue" stroke="midnightblue" points="295.8,-82.3486 287.51,-75.7511 289.876,-86.0783 295.8,-82.3486"/>
</g>
<!-- Node13 -->
<g id="node13" class="node"><title>Node13</title>
<g id="a_node13"><a xlink:title=" ">
<polygon fill="white" stroke="#bfbfbf" points="326.5,-56.5 326.5,-75.5 375.5,-75.5 375.5,-56.5 326.5,-56.5"/>
<text text-anchor="middle" x="351" y="-63.5" font-family="Helvetica,sans-Serif" font-size="10.00">stdint.h</text>
</a>
</g>
</g>
<!-- Node7&#45;&gt;Node13 -->
<g id="edge15" class="edge"><title>Node7&#45;&gt;Node13</title>
<path fill="none" stroke="midnightblue" d="M321.78,-112.083C326.672,-104.534 333.827,-93.4948 339.833,-84.2298"/>
<polygon fill="midnightblue" stroke="midnightblue" points="342.826,-86.0463 345.328,-75.7511 336.952,-82.239 342.826,-86.0463"/>
</g>
<!-- Node8&#45;&gt;Node5 -->
<g id="edge8" class="edge"><title>Node8&#45;&gt;Node5</title>
<path fill="none" stroke="midnightblue" d="M172.084,-57.0076C175.097,-56.6606 178.081,-56.323 181,-56 315.431,-41.1257 472.298,-26.2884 563.464,-17.9152"/>
<polygon fill="midnightblue" stroke="midnightblue" points="563.796,-21.3995 573.435,-17.0012 563.157,-14.4288 563.796,-21.3995"/>
</g>
<!-- Node8&#45;&gt;Node6 -->
<g id="edge9" class="edge"><title>Node8&#45;&gt;Node6</title>
<path fill="none" stroke="midnightblue" d="M100.404,-56.083C93.7725,-48.2982 83.979,-36.8015 75.9419,-27.3665"/>
<polygon fill="midnightblue" stroke="midnightblue" points="78.6037,-25.0939 69.4546,-19.7511 73.275,-29.6332 78.6037,-25.0939"/>
</g>
<!-- Node9&#45;&gt;Node5 -->
<g id="edge11" class="edge"><title>Node9&#45;&gt;Node5</title>
<path fill="none" stroke="midnightblue" d="M495.254,-56.4435C524.441,-47.2801 570.921,-32.6876 603.309,-22.5192"/>
<polygon fill="midnightblue" stroke="midnightblue" points="604.381,-25.8512 612.874,-19.5164 602.284,-19.1726 604.381,-25.8512"/>
</g>
<!-- Node10 -->
<g id="node10" class="node"><title>Node10</title>
<g id="a_node10"><a xlink:title=" ">
<polygon fill="white" stroke="#bfbfbf" points="468,-0.5 468,-19.5 526,-19.5 526,-0.5 468,-0.5"/>
<text text-anchor="middle" x="497" y="-7.5" font-family="Helvetica,sans-Serif" font-size="10.00">Arduino.h</text>
</a>
</g>
</g>
<!-- Node9&#45;&gt;Node10 -->
<g id="edge12" class="edge"><title>Node9&#45;&gt;Node10</title>
<path fill="none" stroke="midnightblue" d="M472.789,-56.083C476.758,-48.6913 482.525,-37.9533 487.435,-28.8111"/>
<polygon fill="midnightblue" stroke="midnightblue" points="490.653,-30.217 492.3,-19.7511 484.486,-26.9051 490.653,-30.217"/>
</g>
<!-- Node15&#45;&gt;Node4 -->
<g id="edge22" class="edge"><title>Node15&#45;&gt;Node4</title>
<path fill="none" stroke="midnightblue" d="M630.131,-131.751C631.657,-138.858 632.104,-149.136 631.472,-158.101"/>
<polygon fill="midnightblue" stroke="midnightblue" points="627.993,-157.713 630.166,-168.083 634.934,-158.622 627.993,-157.713"/>
</g>
<!-- Node15&#45;&gt;Node5 -->
<g id="edge18" class="edge"><title>Node15&#45;&gt;Node5</title>
<path fill="none" stroke="midnightblue" d="M678.609,-112.459C734.663,-102.984 815.787,-87.516 825,-76 858.358,-34.3024 781.382,-19.3 716.757,-13.9339"/>
<polygon fill="midnightblue" stroke="midnightblue" points="716.747,-10.423 706.51,-13.1527 716.215,-17.4028 716.747,-10.423"/>
</g>
<!-- Node16 -->
<g id="node16" class="node"><title>Node16</title>
<g id="a_node16"><a xlink:href="../../dd/d80/PrintStream_8hpp.html" target="_top" xlink:title=" ">
<polygon fill="white" stroke="black" points="560.5,-56.5 560.5,-75.5 719.5,-75.5 719.5,-56.5 560.5,-56.5"/>
<text text-anchor="middle" x="640" y="-63.5" font-family="Helvetica,sans-Serif" font-size="10.00">AH/PrintStream/PrintStream.hpp</text>
</a>
</g>
</g>
<!-- Node15&#45;&gt;Node16 -->
<g id="edge19" class="edge"><title>Node15&#45;&gt;Node16</title>
<path fill="none" stroke="midnightblue" d="M627.477,-112.083C629.486,-104.849 632.386,-94.4087 634.89,-85.3968"/>
<polygon fill="midnightblue" stroke="midnightblue" points="638.265,-86.323 637.569,-75.7511 631.52,-84.4495 638.265,-86.323"/>
</g>
<!-- Node17 -->
<g id="node17" class="node"><title>Node17</title>
<g id="a_node17"><a xlink:href="../../d7/d52/DebugVal_8hpp.html" target="_top" xlink:title=" ">
<polygon fill="white" stroke="black" points="738,-56.5 738,-75.5 816,-75.5 816,-56.5 738,-56.5"/>
<text text-anchor="middle" x="777" y="-63.5" font-family="Helvetica,sans-Serif" font-size="10.00">DebugVal.hpp</text>
</a>
</g>
</g>
<!-- Node15&#45;&gt;Node17 -->
<g id="edge23" class="edge"><title>Node15&#45;&gt;Node17</title>
<path fill="none" stroke="midnightblue" d="M649.085,-112.444C674.545,-103.399 714.894,-89.064 743.459,-78.9158"/>
<polygon fill="midnightblue" stroke="midnightblue" points="744.777,-82.1622 753.028,-75.5164 742.433,-75.5661 744.777,-82.1622"/>
</g>
<!-- Node16&#45;&gt;Node5 -->
<g id="edge20" class="edge"><title>Node16&#45;&gt;Node5</title>
<path fill="none" stroke="midnightblue" d="M640,-56.083C640,-49.0059 640,-38.8611 640,-29.9865"/>
<polygon fill="midnightblue" stroke="midnightblue" points="643.5,-29.751 640,-19.7511 636.5,-29.7511 643.5,-29.751"/>
</g>
<!-- Node16&#45;&gt;Node10 -->
<g id="edge21" class="edge"><title>Node16&#45;&gt;Node10</title>
<path fill="none" stroke="midnightblue" d="M617.341,-56.4435C593.598,-47.4776 556.091,-33.314 529.262,-23.1827"/>
<polygon fill="midnightblue" stroke="midnightblue" points="530.144,-19.7749 519.553,-19.5164 527.671,-26.3235 530.144,-19.7749"/>
</g>
</g>
</svg>
