<?xml version="1.0" encoding="UTF-8" standalone="no"?>
<!DOCTYPE svg PUBLIC "-//W3C//DTD SVG 1.1//EN"
 "http://www.w3.org/Graphics/SVG/1.1/DTD/svg11.dtd">
<!-- Generated by graphviz version 2.38.0 (20140413.2041)
 -->
<!-- Title: NoteValueFastLED&lt; BankSize, ColorMapper &gt; Pages: 1 -->
<svg width="729pt" height="1353pt"
 viewBox="0.00 0.00 728.50 1353.00" xmlns="http://www.w3.org/2000/svg" xmlns:xlink="http://www.w3.org/1999/xlink">
<g id="graph0" class="graph" transform="scale(1 1) rotate(0) translate(4 1349)">
<title>NoteValueFastLED&lt; BankSize, ColorMapper &gt;</title>
<polygon fill="white" stroke="none" points="-4,4 -4,-1349 724.5,-1349 724.5,4 -4,4"/>
<!-- Node1 -->
<g id="node1" class="node"><title>Node1</title>
<g id="a_node1"><a xlink:title=" ">
<polygon fill="#bfbfbf" stroke="black" points="474.5,-0.5 474.5,-90.5 629.5,-90.5 629.5,-0.5 474.5,-0.5"/>
<text text-anchor="start" x="482.5" y="-78.5" font-family="Helvetica,sans-Serif" font-size="10.00">NoteValueFastLED&lt; BankSize,</text>
<text text-anchor="middle" x="552" y="-67.5" font-family="Helvetica,sans-Serif" font-size="10.00"> ColorMapper &gt;</text>
<polyline fill="none" stroke="black" points="474.5,-60.5 629.5,-60.5 "/>
<text text-anchor="middle" x="552" y="-48.5" font-family="Helvetica,sans-Serif" font-size="10.00"> </text>
<polyline fill="none" stroke="black" points="474.5,-41.5 629.5,-41.5 "/>
<text text-anchor="start" x="482.5" y="-29.5" font-family="Helvetica,sans-Serif" font-size="10.00">+ NoteValueFastLED()</text>
<text text-anchor="start" x="482.5" y="-18.5" font-family="Helvetica,sans-Serif" font-size="10.00">+ setBrightness()</text>
<text text-anchor="start" x="482.5" y="-7.5" font-family="Helvetica,sans-Serif" font-size="10.00">+ getBrightness()</text>
</a>
</g>
</g>
<!-- Node2 -->
<g id="node2" class="node"><title>Node2</title>
<g id="a_node2"><a xlink:href="../../da/df0/classBankable_1_1GenericNoteCCRange.html" target="_top" xlink:title=" ">
<polygon fill="white" stroke="black" points="456,-128.5 456,-273.5 648,-273.5 648,-128.5 456,-128.5"/>
<text text-anchor="start" x="464" y="-261.5" font-family="Helvetica,sans-Serif" font-size="10.00">GenericNoteCCRange</text>
<text text-anchor="start" x="464" y="-250.5" font-family="Helvetica,sans-Serif" font-size="10.00">&lt; MIDIInputElementNote,</text>
<text text-anchor="start" x="464" y="-239.5" font-family="Helvetica,sans-Serif" font-size="10.00"> 1, BankSize, NoteCCFastLEDCallback</text>
<text text-anchor="middle" x="552" y="-228.5" font-family="Helvetica,sans-Serif" font-size="10.00">&lt; ColorMapper &gt; &gt;</text>
<polyline fill="none" stroke="black" points="456,-221.5 648,-221.5 "/>
<text text-anchor="middle" x="552" y="-209.5" font-family="Helvetica,sans-Serif" font-size="10.00"> </text>
<polyline fill="none" stroke="black" points="456,-202.5 648,-202.5 "/>
<text text-anchor="start" x="464" y="-190.5" font-family="Helvetica,sans-Serif" font-size="10.00">+ GenericNoteCCRange()</text>
<text text-anchor="start" x="464" y="-179.5" font-family="Helvetica,sans-Serif" font-size="10.00">&#45; match()</text>
<text text-anchor="start" x="464" y="-168.5" font-family="Helvetica,sans-Serif" font-size="10.00">&#45; getSelection()</text>
<text text-anchor="start" x="464" y="-157.5" font-family="Helvetica,sans-Serif" font-size="10.00">&#45; getBankIndex()</text>
<text text-anchor="start" x="464" y="-146.5" font-family="Helvetica,sans-Serif" font-size="10.00">&#45; getRangeIndex()</text>
<text text-anchor="start" x="464" y="-135.5" font-family="Helvetica,sans-Serif" font-size="10.00">&#45; onBankSettingChange()</text>
</a>
</g>
</g>
<!-- Node2&#45;&gt;Node1 -->
<g id="edge1" class="edge"><title>Node2&#45;&gt;Node1</title>
<path fill="none" stroke="midnightblue" d="M552,-117.984C552,-108.589 552,-99.2999 552,-90.683"/>
<polygon fill="none" stroke="midnightblue" points="548.5,-118.194 552,-128.194 555.5,-118.194 548.5,-118.194"/>
</g>
<!-- Node3 -->
<g id="node3" class="node"><title>Node3</title>
<g id="a_node3"><a xlink:href="../../d2/df4/classNoteCCRange.html" target="_top" xlink:title=" ">
<polygon fill="white" stroke="black" points="316.5,-350 316.5,-550 531.5,-550 531.5,-350 316.5,-350"/>
<text text-anchor="start" x="324.5" y="-538" font-family="Helvetica,sans-Serif" font-size="10.00">NoteCCRange&lt; MIDIInputElement</text>
<text text-anchor="start" x="324.5" y="-527" font-family="Helvetica,sans-Serif" font-size="10.00">Note, RangeLen, NumBanks,</text>
<text text-anchor="middle" x="424" y="-516" font-family="Helvetica,sans-Serif" font-size="10.00"> NoteCCFastLEDCallback&lt; ColorMapper &gt; &gt;</text>
<polyline fill="none" stroke="black" points="316.5,-509 531.5,-509 "/>
<text text-anchor="start" x="324.5" y="-497" font-family="Helvetica,sans-Serif" font-size="10.00">+ callback</text>
<polyline fill="none" stroke="black" points="316.5,-490 531.5,-490 "/>
<text text-anchor="start" x="324.5" y="-478" font-family="Helvetica,sans-Serif" font-size="10.00">+ NoteCCRange()</text>
<text text-anchor="start" x="324.5" y="-467" font-family="Helvetica,sans-Serif" font-size="10.00">+ getValue()</text>
<text text-anchor="start" x="324.5" y="-456" font-family="Helvetica,sans-Serif" font-size="10.00">+ getValue()</text>
<text text-anchor="start" x="324.5" y="-445" font-family="Helvetica,sans-Serif" font-size="10.00">+ getValue()</text>
<text text-anchor="start" x="324.5" y="-434" font-family="Helvetica,sans-Serif" font-size="10.00">+ begin()</text>
<text text-anchor="start" x="324.5" y="-423" font-family="Helvetica,sans-Serif" font-size="10.00">+ reset()</text>
<text text-anchor="start" x="324.5" y="-412" font-family="Helvetica,sans-Serif" font-size="10.00">+ length()</text>
<text text-anchor="start" x="324.5" y="-401" font-family="Helvetica,sans-Serif" font-size="10.00">&#45; updateImpl()</text>
<text text-anchor="start" x="324.5" y="-390" font-family="Helvetica,sans-Serif" font-size="10.00">&#45; getSelection()</text>
<text text-anchor="start" x="324.5" y="-379" font-family="Helvetica,sans-Serif" font-size="10.00">&#45; getBankIndex()</text>
<text text-anchor="start" x="324.5" y="-368" font-family="Helvetica,sans-Serif" font-size="10.00">&#45; getRangeIndex()</text>
<text text-anchor="start" x="324.5" y="-357" font-family="Helvetica,sans-Serif" font-size="10.00">&#45; getValueFromMIDIMessage()</text>
</a>
</g>
</g>
<!-- Node3&#45;&gt;Node2 -->
<g id="edge2" class="edge"><title>Node3&#45;&gt;Node2</title>
<path fill="none" stroke="midnightblue" d="M479.998,-340.941C491.791,-318.185 503.952,-294.718 514.845,-273.697"/>
<polygon fill="none" stroke="midnightblue" points="476.819,-339.47 475.325,-349.959 483.034,-342.691 476.819,-339.47"/>
</g>
<!-- Node4 -->
<g id="node4" class="node"><title>Node4</title>
<g id="a_node4"><a xlink:href="../../db/d4b/classMIDIInputElementNote.html" target="_top" xlink:title="Class for objects that listen for incoming MIDI Note events.">
<polygon fill="white" stroke="black" points="112,-680.5 112,-803.5 250,-803.5 250,-680.5 112,-680.5"/>
<text text-anchor="middle" x="181" y="-791.5" font-family="Helvetica,sans-Serif" font-size="10.00">MIDIInputElementNote</text>
<polyline fill="none" stroke="black" points="112,-784.5 250,-784.5 "/>
<text text-anchor="middle" x="181" y="-772.5" font-family="Helvetica,sans-Serif" font-size="10.00"> </text>
<polyline fill="none" stroke="black" points="112,-765.5 250,-765.5 "/>
<text text-anchor="start" x="120" y="-753.5" font-family="Helvetica,sans-Serif" font-size="10.00">+ ~MIDIInputElementNote()</text>
<text text-anchor="start" x="120" y="-742.5" font-family="Helvetica,sans-Serif" font-size="10.00">+ beginAll()</text>
<text text-anchor="start" x="120" y="-731.5" font-family="Helvetica,sans-Serif" font-size="10.00">+ updateAll()</text>
<text text-anchor="start" x="120" y="-720.5" font-family="Helvetica,sans-Serif" font-size="10.00">+ resetAll()</text>
<text text-anchor="start" x="120" y="-709.5" font-family="Helvetica,sans-Serif" font-size="10.00">+ updateAllWith()</text>
<text text-anchor="start" x="120" y="-698.5" font-family="Helvetica,sans-Serif" font-size="10.00"># MIDIInputElementNote()</text>
<text text-anchor="start" x="120" y="-687.5" font-family="Helvetica,sans-Serif" font-size="10.00">&#45; moveDown()</text>
</a>
</g>
</g>
<!-- Node4&#45;&gt;Node3 -->
<g id="edge3" class="edge"><title>Node4&#45;&gt;Node3</title>
<path fill="none" stroke="midnightblue" d="M238.729,-672.106C269.234,-635.7 307.225,-590.361 340.849,-550.233"/>
<polygon fill="none" stroke="midnightblue" points="235.681,-670.294 231.941,-680.206 241.046,-674.79 235.681,-670.294"/>
</g>
<!-- Node7 -->
<g id="node7" class="node"><title>Node7</title>
<g id="a_node7"><a xlink:href="../../d4/d23/classDoublyLinkable.html" target="_top" xlink:title=" ">
<polygon fill="white" stroke="black" points="0,-416 0,-484 136,-484 136,-416 0,-416"/>
<text text-anchor="start" x="8" y="-472" font-family="Helvetica,sans-Serif" font-size="10.00">DoublyLinkable&lt; MIDIInput</text>
<text text-anchor="middle" x="68" y="-461" font-family="Helvetica,sans-Serif" font-size="10.00">ElementNote &gt;</text>
<polyline fill="none" stroke="black" points="0,-454 136,-454 "/>
<text text-anchor="middle" x="68" y="-442" font-family="Helvetica,sans-Serif" font-size="10.00"> </text>
<polyline fill="none" stroke="black" points="0,-435 136,-435 "/>
<text text-anchor="start" x="8" y="-423" font-family="Helvetica,sans-Serif" font-size="10.00"># ~DoublyLinkable()</text>
</a>
</g>
</g>
<!-- Node4&#45;&gt;Node7 -->
<g id="edge7" class="edge"><title>Node4&#45;&gt;Node7</title>
<path fill="none" stroke="#404040" d="M117.392,-680.221C104.626,-664.737 92.7641,-647.266 85,-629 67.0217,-586.704 64.1518,-533.799 64.9284,-496.7"/>
<polygon fill="none" stroke="#404040" points="64.9423,-496.274 61.1415,-490.146 65.3364,-484.28 69.1372,-490.409 64.9423,-496.274"/>
<text text-anchor="middle" x="106.5" y="-621" font-family="Helvetica,sans-Serif" font-size="10.00"> #next</text>
<text text-anchor="middle" x="106.5" y="-610" font-family="Helvetica,sans-Serif" font-size="10.00">#previous</text>
</g>
<!-- Node8 -->
<g id="node8" class="node"><title>Node8</title>
<g id="a_node8"><a xlink:href="../../dd/d16/classDoublyLinkedList.html" target="_top" xlink:title=" ">
<polygon fill="white" stroke="black" points="154,-311.5 154,-588.5 298,-588.5 298,-311.5 154,-311.5"/>
<text text-anchor="start" x="162" y="-576.5" font-family="Helvetica,sans-Serif" font-size="10.00">DoublyLinkedList&lt; MIDIInput</text>
<text text-anchor="middle" x="226" y="-565.5" font-family="Helvetica,sans-Serif" font-size="10.00">ElementNote &gt;</text>
<polyline fill="none" stroke="black" points="154,-558.5 298,-558.5 "/>
<text text-anchor="middle" x="226" y="-546.5" font-family="Helvetica,sans-Serif" font-size="10.00"> </text>
<polyline fill="none" stroke="black" points="154,-539.5 298,-539.5 "/>
<text text-anchor="start" x="162" y="-527.5" font-family="Helvetica,sans-Serif" font-size="10.00">+ append()</text>
<text text-anchor="start" x="162" y="-516.5" font-family="Helvetica,sans-Serif" font-size="10.00">+ append()</text>
<text text-anchor="start" x="162" y="-505.5" font-family="Helvetica,sans-Serif" font-size="10.00">+ insertBefore()</text>
<text text-anchor="start" x="162" y="-494.5" font-family="Helvetica,sans-Serif" font-size="10.00">+ insertBefore()</text>
<text text-anchor="start" x="162" y="-483.5" font-family="Helvetica,sans-Serif" font-size="10.00">+ insertSorted()</text>
<text text-anchor="start" x="162" y="-472.5" font-family="Helvetica,sans-Serif" font-size="10.00">+ insertSorted()</text>
<text text-anchor="start" x="162" y="-461.5" font-family="Helvetica,sans-Serif" font-size="10.00">+ remove()</text>
<text text-anchor="start" x="162" y="-450.5" font-family="Helvetica,sans-Serif" font-size="10.00">+ remove()</text>
<text text-anchor="start" x="162" y="-439.5" font-family="Helvetica,sans-Serif" font-size="10.00">+ moveDown()</text>
<text text-anchor="start" x="162" y="-428.5" font-family="Helvetica,sans-Serif" font-size="10.00">+ couldContain()</text>
<text text-anchor="start" x="162" y="-417.5" font-family="Helvetica,sans-Serif" font-size="10.00">+ begin()</text>
<text text-anchor="start" x="162" y="-406.5" font-family="Helvetica,sans-Serif" font-size="10.00">+ begin()</text>
<text text-anchor="start" x="162" y="-395.5" font-family="Helvetica,sans-Serif" font-size="10.00">+ end()</text>
<text text-anchor="start" x="162" y="-384.5" font-family="Helvetica,sans-Serif" font-size="10.00">+ end()</text>
<text text-anchor="start" x="162" y="-373.5" font-family="Helvetica,sans-Serif" font-size="10.00">+ rbegin()</text>
<text text-anchor="start" x="162" y="-362.5" font-family="Helvetica,sans-Serif" font-size="10.00">+ rbegin()</text>
<text text-anchor="start" x="162" y="-351.5" font-family="Helvetica,sans-Serif" font-size="10.00">+ rend()</text>
<text text-anchor="start" x="162" y="-340.5" font-family="Helvetica,sans-Serif" font-size="10.00">+ rend()</text>
<text text-anchor="start" x="162" y="-329.5" font-family="Helvetica,sans-Serif" font-size="10.00">+ getFirst()</text>
<text text-anchor="start" x="162" y="-318.5" font-family="Helvetica,sans-Serif" font-size="10.00">+ getLast()</text>
</a>
</g>
</g>
<!-- Node4&#45;&gt;Node8 -->
<g id="edge9" class="edge"><title>Node4&#45;&gt;Node8</title>
<path fill="none" stroke="#404040" d="M179.077,-680.264C178.631,-663.644 178.223,-645.629 178,-629 177.869,-619.223 176.546,-616.669 178,-607 178.311,-604.929 178.645,-602.848 178.999,-600.758"/>
<polygon fill="none" stroke="#404040" points="179.044,-600.516 176.209,-593.885 181.239,-588.718 184.074,-595.349 179.044,-600.516"/>
<text text-anchor="middle" x="189" y="-621" font-family="Helvetica,sans-Serif" font-size="10.00"> &#45;last</text>
<text text-anchor="middle" x="189" y="-610" font-family="Helvetica,sans-Serif" font-size="10.00">&#45;first</text>
</g>
<!-- Node5 -->
<g id="node5" class="node"><title>Node5</title>
<g id="a_node5"><a xlink:href="../../d9/db1/classMIDIInputElement.html" target="_top" xlink:title="A class for objects that listen for incoming MIDI events.">
<polygon fill="white" stroke="black" points="122.5,-874.5 122.5,-1030.5 239.5,-1030.5 239.5,-874.5 122.5,-874.5"/>
<text text-anchor="middle" x="181" y="-1018.5" font-family="Helvetica,sans-Serif" font-size="10.00">MIDIInputElement</text>
<polyline fill="none" stroke="black" points="122.5,-1011.5 239.5,-1011.5 "/>
<text text-anchor="middle" x="181" y="-999.5" font-family="Helvetica,sans-Serif" font-size="10.00"> </text>
<polyline fill="none" stroke="black" points="122.5,-992.5 239.5,-992.5 "/>
<text text-anchor="start" x="130.5" y="-980.5" font-family="Helvetica,sans-Serif" font-size="10.00">+ ~MIDIInputElement()</text>
<text text-anchor="start" x="130.5" y="-969.5" font-family="Helvetica,sans-Serif" font-size="10.00">+ begin()</text>
<text text-anchor="start" x="130.5" y="-958.5" font-family="Helvetica,sans-Serif" font-size="10.00">+ reset()</text>
<text text-anchor="start" x="130.5" y="-947.5" font-family="Helvetica,sans-Serif" font-size="10.00">+ update()</text>
<text text-anchor="start" x="130.5" y="-936.5" font-family="Helvetica,sans-Serif" font-size="10.00">+ updateWith()</text>
<text text-anchor="start" x="130.5" y="-925.5" font-family="Helvetica,sans-Serif" font-size="10.00"># MIDIInputElement()</text>
<text text-anchor="start" x="130.5" y="-914.5" font-family="Helvetica,sans-Serif" font-size="10.00"># MIDIInputElement()</text>
<text text-anchor="start" x="130.5" y="-903.5" font-family="Helvetica,sans-Serif" font-size="10.00">&#45; updateImpl()</text>
<text text-anchor="start" x="130.5" y="-892.5" font-family="Helvetica,sans-Serif" font-size="10.00">&#45; getTarget()</text>
<text text-anchor="start" x="130.5" y="-881.5" font-family="Helvetica,sans-Serif" font-size="10.00">&#45; match()</text>
</a>
</g>
</g>
<!-- Node5&#45;&gt;Node4 -->
<g id="edge4" class="edge"><title>Node5&#45;&gt;Node4</title>
<path fill="none" stroke="midnightblue" d="M181,-864.238C181,-843.9 181,-822.676 181,-803.774"/>
<polygon fill="none" stroke="midnightblue" points="177.5,-864.455 181,-874.455 184.5,-864.455 177.5,-864.455"/>
</g>
<!-- Node6 -->
<g id="node6" class="node"><title>Node6</title>
<g id="a_node6"><a xlink:href="../../d3/d10/classMIDICNChannelAddress.html" target="_top" xlink:title="A type&#45;safe utility class for saving a MIDI address consisting of a 7&#45;bit address,...">
<polygon fill="white" stroke="black" points="111,-1078.5 111,-1344.5 251,-1344.5 251,-1078.5 111,-1078.5"/>
<text text-anchor="middle" x="181" y="-1332.5" font-family="Helvetica,sans-Serif" font-size="10.00">MIDICNChannelAddress</text>
<polyline fill="none" stroke="black" points="111,-1325.5 251,-1325.5 "/>
<text text-anchor="start" x="119" y="-1313.5" font-family="Helvetica,sans-Serif" font-size="10.00">&#45; addresses</text>
<polyline fill="none" stroke="black" points="111,-1306.5 251,-1306.5 "/>
<text text-anchor="start" x="119" y="-1294.5" font-family="Helvetica,sans-Serif" font-size="10.00">+ MIDICNChannelAddress()</text>
<text text-anchor="start" x="119" y="-1283.5" font-family="Helvetica,sans-Serif" font-size="10.00">+ MIDICNChannelAddress()</text>
<text text-anchor="start" x="119" y="-1272.5" font-family="Helvetica,sans-Serif" font-size="10.00">+ MIDICNChannelAddress()</text>
<text text-anchor="start" x="119" y="-1261.5" font-family="Helvetica,sans-Serif" font-size="10.00">+ MIDICNChannelAddress()</text>
<text text-anchor="start" x="119" y="-1250.5" font-family="Helvetica,sans-Serif" font-size="10.00">+ MIDICNChannelAddress()</text>
<text text-anchor="start" x="119" y="-1239.5" font-family="Helvetica,sans-Serif" font-size="10.00">+ operator+=()</text>
<text text-anchor="start" x="119" y="-1228.5" font-family="Helvetica,sans-Serif" font-size="10.00">+ operator&#45;=()</text>
<text text-anchor="start" x="119" y="-1217.5" font-family="Helvetica,sans-Serif" font-size="10.00">+ operator+()</text>
<text text-anchor="start" x="119" y="-1206.5" font-family="Helvetica,sans-Serif" font-size="10.00">+ operator&#45;()</text>
<text text-anchor="start" x="119" y="-1195.5" font-family="Helvetica,sans-Serif" font-size="10.00">+ operator==()</text>
<text text-anchor="start" x="119" y="-1184.5" font-family="Helvetica,sans-Serif" font-size="10.00">+ operator!=()</text>
<text text-anchor="start" x="119" y="-1173.5" font-family="Helvetica,sans-Serif" font-size="10.00">+ getAddress()</text>
<text text-anchor="start" x="119" y="-1162.5" font-family="Helvetica,sans-Serif" font-size="10.00">+ getChannel()</text>
<text text-anchor="start" x="119" y="-1151.5" font-family="Helvetica,sans-Serif" font-size="10.00">+ getRawChannel()</text>
<text text-anchor="start" x="119" y="-1140.5" font-family="Helvetica,sans-Serif" font-size="10.00">+ getCableNumber()</text>
<text text-anchor="start" x="119" y="-1129.5" font-family="Helvetica,sans-Serif" font-size="10.00">+ isValid()</text>
<text text-anchor="start" x="119" y="-1118.5" font-family="Helvetica,sans-Serif" font-size="10.00">+ operator bool()</text>
<text text-anchor="start" x="119" y="-1107.5" font-family="Helvetica,sans-Serif" font-size="10.00">+ matchSingle()</text>
<text text-anchor="start" x="119" y="-1096.5" font-family="Helvetica,sans-Serif" font-size="10.00">+ matchAddressInRange()</text>
<text text-anchor="start" x="119" y="-1085.5" font-family="Helvetica,sans-Serif" font-size="10.00">+ invalid()</text>
</a>
</g>
</g>
<!-- Node6&#45;&gt;Node5 -->
<g id="edge5" class="edge"><title>Node6&#45;&gt;Node5</title>
<path fill="none" stroke="#404040" d="M181,-1078.24C181,-1066.31 181,-1054.43 181,-1043.01"/>
<polygon fill="none" stroke="#404040" points="181,-1042.81 177,-1036.81 181,-1030.81 185,-1036.81 181,-1042.81"/>
<text text-anchor="middle" x="202.5" y="-1052" font-family="Helvetica,sans-Serif" font-size="10.00"> #address</text>
</g>
<!-- Node7&#45;&gt;Node4 -->
<g id="edge6" class="edge"><title>Node7&#45;&gt;Node4</title>
<path fill="none" stroke="midnightblue" d="M84.6,-493.602C103.793,-542.857 135.53,-624.307 157.311,-680.206"/>
<polygon fill="none" stroke="midnightblue" points="87.8273,-492.244 80.9354,-484.197 81.305,-494.786 87.8273,-492.244"/>
</g>
<!-- Node8&#45;&gt;Node4 -->
<g id="edge8" class="edge"><title>Node8&#45;&gt;Node4</title>
<path fill="none" stroke="#404040" d="M210.092,-588.663C208.183,-602.313 206.144,-615.941 204,-629 201.894,-641.822 199.362,-655.41 196.758,-668.534"/>
<polygon fill="none" stroke="#404040" points="196.733,-668.658 199.466,-675.332 194.357,-680.421 191.624,-673.748 196.733,-668.658"/>
<text text-anchor="middle" x="231" y="-615.5" font-family="Helvetica,sans-Serif" font-size="10.00"> &#45;elements</text>
</g>
<!-- Node9 -->
<g id="node9" class="node"><title>Node9</title>
<g id="a_node9"><a xlink:href="../../d7/dab/classINoteCCValue.html" target="_top" xlink:title="Interface for NoteCCValue objects: provides getters for the velocity or controller values.">
<polygon fill="white" stroke="black" points="282.5,-697 282.5,-787 377.5,-787 377.5,-697 282.5,-697"/>
<text text-anchor="middle" x="330" y="-775" font-family="Helvetica,sans-Serif" font-size="10.00">INoteCCValue</text>
<polyline fill="none" stroke="black" points="282.5,-768 377.5,-768 "/>
<text text-anchor="start" x="290.5" y="-756" font-family="Helvetica,sans-Serif" font-size="10.00">&#45; rangeLength</text>
<polyline fill="none" stroke="black" points="282.5,-749 377.5,-749 "/>
<text text-anchor="start" x="290.5" y="-737" font-family="Helvetica,sans-Serif" font-size="10.00">+ length()</text>
<text text-anchor="start" x="290.5" y="-726" font-family="Helvetica,sans-Serif" font-size="10.00">+ getValue()</text>
<text text-anchor="start" x="290.5" y="-715" font-family="Helvetica,sans-Serif" font-size="10.00">+ getValue()</text>
<text text-anchor="start" x="290.5" y="-704" font-family="Helvetica,sans-Serif" font-size="10.00"># INoteCCValue()</text>
</a>
</g>
</g>
<!-- Node9&#45;&gt;Node3 -->
<g id="edge10" class="edge"><title>Node9&#45;&gt;Node3</title>
<path fill="none" stroke="midnightblue" d="M347.494,-687.03C359.926,-648.676 376.983,-596.054 391.836,-550.228"/>
<polygon fill="none" stroke="midnightblue" points="344.031,-686.363 344.277,-696.955 350.69,-688.522 344.031,-686.363"/>
</g>
<!-- Node10 -->
<g id="node10" class="node"><title>Node10</title>
<g id="a_node10"><a xlink:href="../../d0/d32/structAH_1_1Array.html" target="_top" xlink:title=" ">
<polygon fill="white" stroke="black" points="396,-647.5 396,-836.5 544,-836.5 544,-647.5 396,-647.5"/>
<text text-anchor="start" x="404" y="-824.5" font-family="Helvetica,sans-Serif" font-size="10.00">Array&lt; Array&lt; uint8</text>
<text text-anchor="middle" x="470" y="-813.5" font-family="Helvetica,sans-Serif" font-size="10.00">_t, RangeLen &gt;, NumBanks &gt;</text>
<polyline fill="none" stroke="black" points="396,-806.5 544,-806.5 "/>
<text text-anchor="start" x="404" y="-794.5" font-family="Helvetica,sans-Serif" font-size="10.00">+ data</text>
<text text-anchor="start" x="404" y="-783.5" font-family="Helvetica,sans-Serif" font-size="10.00">+ length</text>
<polyline fill="none" stroke="black" points="396,-776.5 544,-776.5 "/>
<text text-anchor="start" x="404" y="-764.5" font-family="Helvetica,sans-Serif" font-size="10.00">+ operator[]()</text>
<text text-anchor="start" x="404" y="-753.5" font-family="Helvetica,sans-Serif" font-size="10.00">+ operator[]()</text>
<text text-anchor="start" x="404" y="-742.5" font-family="Helvetica,sans-Serif" font-size="10.00">+ begin()</text>
<text text-anchor="start" x="404" y="-731.5" font-family="Helvetica,sans-Serif" font-size="10.00">+ begin()</text>
<text text-anchor="start" x="404" y="-720.5" font-family="Helvetica,sans-Serif" font-size="10.00">+ end()</text>
<text text-anchor="start" x="404" y="-709.5" font-family="Helvetica,sans-Serif" font-size="10.00">+ end()</text>
<text text-anchor="start" x="404" y="-698.5" font-family="Helvetica,sans-Serif" font-size="10.00">+ operator==()</text>
<text text-anchor="start" x="404" y="-687.5" font-family="Helvetica,sans-Serif" font-size="10.00">+ operator!=()</text>
<text text-anchor="start" x="404" y="-676.5" font-family="Helvetica,sans-Serif" font-size="10.00">+ slice()</text>
<text text-anchor="start" x="404" y="-665.5" font-family="Helvetica,sans-Serif" font-size="10.00">+ slice()</text>
<text text-anchor="start" x="404" y="-654.5" font-family="Helvetica,sans-Serif" font-size="10.00">+ cslice()</text>
</a>
</g>
</g>
<!-- Node10&#45;&gt;Node3 -->
<g id="edge11" class="edge"><title>Node10&#45;&gt;Node3</title>
<path fill="none" stroke="#404040" d="M455.129,-647.246C450.822,-620.096 446.079,-590.196 441.622,-562.095"/>
<polygon fill="none" stroke="#404040" points="441.611,-562.027 436.721,-556.728 439.731,-550.175 444.622,-555.475 441.611,-562.027"/>
<text text-anchor="middle" x="469.5" y="-615.5" font-family="Helvetica,sans-Serif" font-size="10.00"> &#45;values</text>
</g>
<!-- Node11 -->
<g id="node11" class="node"><title>Node11</title>
<g id="a_node11"><a xlink:href="../../db/d6e/classBankableMIDIInput.html" target="_top" xlink:title=" ">
<polygon fill="white" stroke="black" points="549.5,-350 549.5,-550 720.5,-550 720.5,-350 549.5,-350"/>
<text text-anchor="start" x="557.5" y="-538" font-family="Helvetica,sans-Serif" font-size="10.00">BankableMIDIInput&lt;</text>
<text text-anchor="middle" x="635" y="-527" font-family="Helvetica,sans-Serif" font-size="10.00"> NumBanks &gt;</text>
<polyline fill="none" stroke="black" points="549.5,-520 720.5,-520 "/>
<text text-anchor="start" x="557.5" y="-508" font-family="Helvetica,sans-Serif" font-size="10.00">&#45; bank</text>
<text text-anchor="start" x="557.5" y="-497" font-family="Helvetica,sans-Serif" font-size="10.00">&#45; type</text>
<polyline fill="none" stroke="black" points="549.5,-490 720.5,-490 "/>
<text text-anchor="start" x="557.5" y="-478" font-family="Helvetica,sans-Serif" font-size="10.00">+ ~BankableMIDIInput()</text>
<text text-anchor="start" x="557.5" y="-467" font-family="Helvetica,sans-Serif" font-size="10.00">+ getSelection()</text>
<text text-anchor="start" x="557.5" y="-456" font-family="Helvetica,sans-Serif" font-size="10.00">+ getBankIndex()</text>
<text text-anchor="start" x="557.5" y="-445" font-family="Helvetica,sans-Serif" font-size="10.00"># BankableMIDIInput()</text>
<text text-anchor="start" x="557.5" y="-434" font-family="Helvetica,sans-Serif" font-size="10.00"># BankableMIDIInput()</text>
<text text-anchor="start" x="557.5" y="-423" font-family="Helvetica,sans-Serif" font-size="10.00"># matchBankable()</text>
<text text-anchor="start" x="557.5" y="-412" font-family="Helvetica,sans-Serif" font-size="10.00"># matchBankable()</text>
<text text-anchor="start" x="557.5" y="-401" font-family="Helvetica,sans-Serif" font-size="10.00"># matchBankableInRange()</text>
<text text-anchor="start" x="557.5" y="-390" font-family="Helvetica,sans-Serif" font-size="10.00"># getRangeIndex()</text>
<text text-anchor="start" x="557.5" y="-379" font-family="Helvetica,sans-Serif" font-size="10.00"># matchBankableAddressInRange()</text>
<text text-anchor="start" x="557.5" y="-368" font-family="Helvetica,sans-Serif" font-size="10.00"># inRange()</text>
<text text-anchor="start" x="557.5" y="-357" font-family="Helvetica,sans-Serif" font-size="10.00">&#45; onBankSettingChange()</text>
</a>
</g>
</g>
<!-- Node11&#45;&gt;Node2 -->
<g id="edge12" class="edge"><title>Node11&#45;&gt;Node2</title>
<path fill="none" stroke="midnightblue" d="M598.486,-340.337C590.902,-317.77 583.094,-294.532 576.092,-273.697"/>
<polygon fill="none" stroke="midnightblue" points="595.216,-341.595 601.719,-349.959 601.851,-339.365 595.216,-341.595"/>
</g>
<!-- Node12 -->
<g id="node12" class="node"><title>Node12</title>
<g id="a_node12"><a xlink:href="../../d4/d23/classDoublyLinkable.html" target="_top" xlink:title=" ">
<polygon fill="white" stroke="black" points="568.5,-702.5 568.5,-781.5 701.5,-781.5 701.5,-702.5 568.5,-702.5"/>
<text text-anchor="start" x="576.5" y="-769.5" font-family="Helvetica,sans-Serif" font-size="10.00">DoublyLinkable&lt; Bankable</text>
<text text-anchor="middle" x="635" y="-758.5" font-family="Helvetica,sans-Serif" font-size="10.00">MIDIInput&lt; N &gt; &gt;</text>
<polyline fill="none" stroke="black" points="568.5,-751.5 701.5,-751.5 "/>
<text text-anchor="start" x="576.5" y="-739.5" font-family="Helvetica,sans-Serif" font-size="10.00"># next</text>
<text text-anchor="start" x="576.5" y="-728.5" font-family="Helvetica,sans-Serif" font-size="10.00"># previous</text>
<polyline fill="none" stroke="black" points="568.5,-721.5 701.5,-721.5 "/>
<text text-anchor="start" x="576.5" y="-709.5" font-family="Helvetica,sans-Serif" font-size="10.00"># ~DoublyLinkable()</text>
</a>
</g>
</g>
<!-- Node12&#45;&gt;Node11 -->
<g id="edge13" class="edge"><title>Node12&#45;&gt;Node11</title>
<path fill="none" stroke="midnightblue" d="M635,-692.041C635,-653.365 635,-598.124 635,-550.28"/>
<polygon fill="none" stroke="midnightblue" points="631.5,-692.49 635,-702.49 638.5,-692.49 631.5,-692.49"/>
</g>
</g>
</svg>
