<?xml version="1.0" encoding="UTF-8" standalone="no"?>
<!DOCTYPE svg PUBLIC "-//W3C//DTD SVG 1.1//EN"
 "http://www.w3.org/Graphics/SVG/1.1/DTD/svg11.dtd">
<!-- Generated by graphviz version 2.43.0 (0)
 -->
<!-- Title: CCButton Pages: 1 -->
<svg width="651pt" height="1406pt"
 viewBox="0.00 0.00 650.50 1406.00" xmlns="http://www.w3.org/2000/svg" xmlns:xlink="http://www.w3.org/1999/xlink">
<g id="graph0" class="graph" transform="scale(1 1) rotate(0) translate(4 1402)">
<title>CCButton</title>
<!-- Node1 -->
<g id="Node000001" class="node">
<title>Node1</title>
<g id="a_Node000001"><a xlink:title="A class of MIDIOutputElements that read the input of a momentary push button or switch,...">
<polygon fill="#999999" stroke="transparent" points="446.5,-49 371.5,-49 371.5,0 446.5,0 446.5,-49"/>
<text text-anchor="start" x="386.5" y="-36.5" font-family="Helvetica,sans-Serif" font-size="10.00">CCButton</text>
<text text-anchor="start" x="407.5" y="-21.5" font-family="Helvetica,sans-Serif" font-size="10.00"> </text>
<text text-anchor="start" x="376" y="-6.5" font-family="Helvetica,sans-Serif" font-size="10.00">+</text>
<text text-anchor="start" x="389" y="-6.5" font-family="Helvetica,sans-Serif" font-size="10.00">CCButton()</text>
<polygon fill="#666666" stroke="#666666" points="372,-31.5 372,-31.5 447,-31.5 447,-31.5 372,-31.5"/>
<polygon fill="#666666" stroke="#666666" points="372,-16.5 372,-16.5 447,-16.5 447,-16.5 372,-16.5"/>
<polygon fill="none" stroke="#666666" points="371.5,0 371.5,-49 446.5,-49 446.5,0 371.5,0"/>
</a>
</g>
</g>
<!-- Node2 -->
<g id="Node000002" class="node">
<title>Node2</title>
<g id="a_Node000002"><a xlink:href="../../d6/d72/classMIDIButton.html" target="_top" xlink:title=" ">
<polygon fill="white" stroke="transparent" points="492.5,-225 325.5,-225 325.5,-86 492.5,-86 492.5,-225"/>
<text text-anchor="start" x="331" y="-212.5" font-family="Helvetica,sans-Serif" font-size="10.00">MIDIButton&lt; DigitalCCSender &gt;</text>
<text text-anchor="start" x="407.5" y="-197.5" font-family="Helvetica,sans-Serif" font-size="10.00"> </text>
<text text-anchor="start" x="342" y="-182.5" font-family="Helvetica,sans-Serif" font-size="10.00">+</text>
<text text-anchor="start" x="367" y="-182.5" font-family="Helvetica,sans-Serif" font-size="10.00">MIDIButton()</text>
<text text-anchor="start" x="342" y="-167.5" font-family="Helvetica,sans-Serif" font-size="10.00">+</text>
<text text-anchor="start" x="367" y="-167.5" font-family="Helvetica,sans-Serif" font-size="10.00">begin()</text>
<text text-anchor="start" x="342" y="-152.5" font-family="Helvetica,sans-Serif" font-size="10.00">+</text>
<text text-anchor="start" x="367" y="-152.5" font-family="Helvetica,sans-Serif" font-size="10.00">update()</text>
<text text-anchor="start" x="342" y="-137.5" font-family="Helvetica,sans-Serif" font-size="10.00">+</text>
<text text-anchor="start" x="367" y="-137.5" font-family="Helvetica,sans-Serif" font-size="10.00">invert()</text>
<text text-anchor="start" x="342" y="-122.5" font-family="Helvetica,sans-Serif" font-size="10.00">+</text>
<text text-anchor="start" x="367" y="-122.5" font-family="Helvetica,sans-Serif" font-size="10.00">getButtonState()</text>
<text text-anchor="start" x="342" y="-107.5" font-family="Helvetica,sans-Serif" font-size="10.00">+</text>
<text text-anchor="start" x="367" y="-107.5" font-family="Helvetica,sans-Serif" font-size="10.00">getAddress()</text>
<text text-anchor="start" x="342" y="-92.5" font-family="Helvetica,sans-Serif" font-size="10.00">+</text>
<text text-anchor="start" x="367" y="-92.5" font-family="Helvetica,sans-Serif" font-size="10.00">setAddressUnsafe()</text>
<polygon fill="#666666" stroke="#666666" points="326,-207.5 326,-207.5 493,-207.5 493,-207.5 326,-207.5"/>
<polygon fill="#666666" stroke="#666666" points="326,-192.5 326,-192.5 493,-192.5 493,-192.5 326,-192.5"/>
<polygon fill="none" stroke="#666666" points="325.5,-86 325.5,-225 492.5,-225 492.5,-86 325.5,-86"/>
</a>
</g>
</g>
<!-- Node2&#45;&gt;Node1 -->
<g id="edge1_Node000001_Node000002" class="edge">
<title>Node2&#45;&gt;Node1</title>
<g id="a_edge1_Node000001_Node000002"><a xlink:title=" ">
<path fill="none" stroke="#63b8ff" d="M409,-75.69C409,-66.07 409,-56.89 409,-49.08"/>
<polygon fill="none" stroke="#63b8ff" points="405.5,-75.85 409,-85.85 412.5,-75.85 405.5,-75.85"/>
</a>
</g>
</g>
<!-- Node3 -->
<g id="Node000003" class="node">
<title>Node3</title>
<g id="a_Node000003"><a xlink:href="../../d1/d55/classAH_1_1Updatable.html" target="_top" xlink:title="A super class for object that have to be updated regularly.">
<polygon fill="white" stroke="transparent" points="210.5,-508.5 103.5,-508.5 103.5,-414.5 210.5,-414.5 210.5,-508.5"/>
<text text-anchor="start" x="109" y="-496.5" font-family="Helvetica,sans-Serif" font-size="10.00">MIDIOutputElement</text>
<text text-anchor="start" x="155.5" y="-481.5" font-family="Helvetica,sans-Serif" font-size="10.00"> </text>
<text text-anchor="start" x="116.5" y="-466.5" font-family="Helvetica,sans-Serif" font-size="10.00">*</text>
<text text-anchor="start" x="135" y="-466.5" font-family="Helvetica,sans-Serif" font-size="10.00">begin()</text>
<text text-anchor="start" x="116.5" y="-451.5" font-family="Helvetica,sans-Serif" font-size="10.00">*</text>
<text text-anchor="start" x="135" y="-451.5" font-family="Helvetica,sans-Serif" font-size="10.00">update()</text>
<text text-anchor="start" x="116.5" y="-436.5" font-family="Helvetica,sans-Serif" font-size="10.00">*</text>
<text text-anchor="start" x="135" y="-436.5" font-family="Helvetica,sans-Serif" font-size="10.00">beginAll()</text>
<text text-anchor="start" x="116.5" y="-421.5" font-family="Helvetica,sans-Serif" font-size="10.00">*</text>
<text text-anchor="start" x="135" y="-421.5" font-family="Helvetica,sans-Serif" font-size="10.00">updateAll()</text>
<polygon fill="#666666" stroke="#666666" points="104,-491.5 104,-491.5 211,-491.5 211,-491.5 104,-491.5"/>
<polygon fill="#666666" stroke="#666666" points="104,-476.5 104,-476.5 211,-476.5 211,-476.5 104,-476.5"/>
<polygon fill="none" stroke="#666666" points="103.5,-414.5 103.5,-508.5 210.5,-508.5 210.5,-414.5 103.5,-414.5"/>
</a>
</g>
</g>
<!-- Node3&#45;&gt;Node2 -->
<g id="edge2_Node000002_Node000003" class="edge">
<title>Node3&#45;&gt;Node2</title>
<g id="a_edge2_Node000002_Node000003"><a xlink:title=" ">
<path fill="none" stroke="#63b8ff" d="M165.2,-404.43C173.44,-364.11 189.49,-310.32 220,-272 247.54,-237.4 288.48,-210.58 325.22,-191.53"/>
<polygon fill="none" stroke="#63b8ff" points="161.74,-403.89 163.27,-414.37 168.61,-405.22 161.74,-403.89"/>
</a>
</g>
</g>
<!-- Node4 -->
<g id="Node000004" class="node">
<title>Node4</title>
<g id="a_Node000004"><a xlink:href="../../d8/d1a/classAH_1_1UpdatableCRTP.html" target="_top" xlink:title="A super class for object that have to be updated regularly.">
<polygon fill="white" stroke="transparent" points="230,-972 84,-972 84,-698 230,-698 230,-972"/>
<text text-anchor="start" x="89" y="-960" font-family="Helvetica,sans-Serif" font-size="10.00">UpdatableCRTP&lt; Derived &gt;</text>
<text text-anchor="start" x="155" y="-945" font-family="Helvetica,sans-Serif" font-size="10.00"> </text>
<text text-anchor="start" x="96.5" y="-930" font-family="Helvetica,sans-Serif" font-size="10.00">+</text>
<text text-anchor="start" x="118" y="-930" font-family="Helvetica,sans-Serif" font-size="10.00">~UpdatableCRTP()</text>
<text text-anchor="start" x="96.5" y="-915" font-family="Helvetica,sans-Serif" font-size="10.00">#</text>
<text text-anchor="start" x="118" y="-915" font-family="Helvetica,sans-Serif" font-size="10.00">UpdatableCRTP()</text>
<text text-anchor="start" x="96.5" y="-900" font-family="Helvetica,sans-Serif" font-size="10.00">#</text>
<text text-anchor="start" x="118" y="-900" font-family="Helvetica,sans-Serif" font-size="10.00">UpdatableCRTP()</text>
<text text-anchor="start" x="96.5" y="-885" font-family="Helvetica,sans-Serif" font-size="10.00">#</text>
<text text-anchor="start" x="118" y="-885" font-family="Helvetica,sans-Serif" font-size="10.00">operator=()</text>
<text text-anchor="start" x="96.5" y="-870" font-family="Helvetica,sans-Serif" font-size="10.00">#</text>
<text text-anchor="start" x="118" y="-870" font-family="Helvetica,sans-Serif" font-size="10.00">UpdatableCRTP()</text>
<text text-anchor="start" x="96.5" y="-855" font-family="Helvetica,sans-Serif" font-size="10.00">#</text>
<text text-anchor="start" x="118" y="-855" font-family="Helvetica,sans-Serif" font-size="10.00">operator=()</text>
<text text-anchor="start" x="98" y="-840" font-family="Helvetica,sans-Serif" font-size="10.00">*</text>
<text text-anchor="start" x="118" y="-840" font-family="Helvetica,sans-Serif" font-size="10.00">enable()</text>
<text text-anchor="start" x="98" y="-825" font-family="Helvetica,sans-Serif" font-size="10.00">*</text>
<text text-anchor="start" x="118" y="-825" font-family="Helvetica,sans-Serif" font-size="10.00">disable()</text>
<text text-anchor="start" x="98" y="-810" font-family="Helvetica,sans-Serif" font-size="10.00">*</text>
<text text-anchor="start" x="118" y="-810" font-family="Helvetica,sans-Serif" font-size="10.00">isEnabled()</text>
<text text-anchor="start" x="98" y="-795" font-family="Helvetica,sans-Serif" font-size="10.00">*</text>
<text text-anchor="start" x="118" y="-795" font-family="Helvetica,sans-Serif" font-size="10.00">moveDown()</text>
<text text-anchor="start" x="98" y="-780" font-family="Helvetica,sans-Serif" font-size="10.00">*</text>
<text text-anchor="start" x="118" y="-780" font-family="Helvetica,sans-Serif" font-size="10.00">enable()</text>
<text text-anchor="start" x="98" y="-765" font-family="Helvetica,sans-Serif" font-size="10.00">*</text>
<text text-anchor="start" x="118" y="-765" font-family="Helvetica,sans-Serif" font-size="10.00">enable()</text>
<text text-anchor="start" x="98" y="-750" font-family="Helvetica,sans-Serif" font-size="10.00">*</text>
<text text-anchor="start" x="118" y="-750" font-family="Helvetica,sans-Serif" font-size="10.00">enable()</text>
<text text-anchor="start" x="98" y="-735" font-family="Helvetica,sans-Serif" font-size="10.00">*</text>
<text text-anchor="start" x="118" y="-735" font-family="Helvetica,sans-Serif" font-size="10.00">disable()</text>
<text text-anchor="start" x="98" y="-720" font-family="Helvetica,sans-Serif" font-size="10.00">*</text>
<text text-anchor="start" x="118" y="-720" font-family="Helvetica,sans-Serif" font-size="10.00">disable()</text>
<text text-anchor="start" x="98" y="-705" font-family="Helvetica,sans-Serif" font-size="10.00">*</text>
<text text-anchor="start" x="118" y="-705" font-family="Helvetica,sans-Serif" font-size="10.00">disable()</text>
<polygon fill="#666666" stroke="#666666" points="84,-955 84,-955 230,-955 230,-955 84,-955"/>
<polygon fill="#666666" stroke="#666666" points="84,-940 84,-940 230,-940 230,-940 84,-940"/>
<polygon fill="none" stroke="#666666" points="84,-698 84,-972 230,-972 230,-698 84,-698"/>
</a>
</g>
</g>
<!-- Node4&#45;&gt;Node3 -->
<g id="edge3_Node000003_Node000004" class="edge">
<title>Node4&#45;&gt;Node3</title>
<g id="a_edge3_Node000003_Node000004"><a xlink:title=" ">
<path fill="none" stroke="#63b8ff" d="M157,-687.58C157,-623.7 157,-553.31 157,-508.55"/>
<polygon fill="none" stroke="#63b8ff" points="153.5,-687.78 157,-697.78 160.5,-687.78 153.5,-687.78"/>
</a>
</g>
</g>
<!-- Node5 -->
<g id="Node000005" class="node">
<title>Node5</title>
<g id="a_Node000005"><a xlink:href="../../d4/d23/classDoublyLinkable.html" target="_top" xlink:title=" ">
<polygon fill="white" stroke="transparent" points="146,-1278 0,-1278 0,-1139 146,-1139 146,-1278"/>
<text text-anchor="start" x="5" y="-1265.5" font-family="Helvetica,sans-Serif" font-size="10.00">DoublyLinkable&lt; Derived &gt;</text>
<text text-anchor="start" x="12.5" y="-1250.5" font-family="Helvetica,sans-Serif" font-size="10.00">#</text>
<text text-anchor="start" x="34" y="-1250.5" font-family="Helvetica,sans-Serif" font-size="10.00">next</text>
<text text-anchor="start" x="12.5" y="-1235.5" font-family="Helvetica,sans-Serif" font-size="10.00">#</text>
<text text-anchor="start" x="34" y="-1235.5" font-family="Helvetica,sans-Serif" font-size="10.00">previous</text>
<text text-anchor="start" x="12.5" y="-1220.5" font-family="Helvetica,sans-Serif" font-size="10.00">#</text>
<text text-anchor="start" x="34" y="-1220.5" font-family="Helvetica,sans-Serif" font-size="10.00">~DoublyLinkable()</text>
<text text-anchor="start" x="12.5" y="-1205.5" font-family="Helvetica,sans-Serif" font-size="10.00">#</text>
<text text-anchor="start" x="34" y="-1205.5" font-family="Helvetica,sans-Serif" font-size="10.00">DoublyLinkable()</text>
<text text-anchor="start" x="12.5" y="-1190.5" font-family="Helvetica,sans-Serif" font-size="10.00">#</text>
<text text-anchor="start" x="34" y="-1190.5" font-family="Helvetica,sans-Serif" font-size="10.00">DoublyLinkable()</text>
<text text-anchor="start" x="12.5" y="-1175.5" font-family="Helvetica,sans-Serif" font-size="10.00">#</text>
<text text-anchor="start" x="34" y="-1175.5" font-family="Helvetica,sans-Serif" font-size="10.00">DoublyLinkable()</text>
<text text-anchor="start" x="12.5" y="-1160.5" font-family="Helvetica,sans-Serif" font-size="10.00">#</text>
<text text-anchor="start" x="34" y="-1160.5" font-family="Helvetica,sans-Serif" font-size="10.00">operator=()</text>
<text text-anchor="start" x="12.5" y="-1145.5" font-family="Helvetica,sans-Serif" font-size="10.00">#</text>
<text text-anchor="start" x="34" y="-1145.5" font-family="Helvetica,sans-Serif" font-size="10.00">operator=()</text>
<polygon fill="#666666" stroke="#666666" points="0,-1260.5 0,-1260.5 146,-1260.5 146,-1260.5 0,-1260.5"/>
<polygon fill="#666666" stroke="#666666" points="0,-1230.5 0,-1230.5 32,-1230.5 32,-1230.5 0,-1230.5"/>
<polygon fill="#666666" stroke="#666666" points="32,-1230.5 32,-1230.5 146,-1230.5 146,-1230.5 32,-1230.5"/>
<polygon fill="none" stroke="#666666" points="0,-1139 0,-1278 146,-1278 146,-1139 0,-1139"/>
</a>
</g>
</g>
<!-- Node5&#45;&gt;Node4 -->
<g id="edge4_Node000004_Node000005" class="edge">
<title>Node5&#45;&gt;Node4</title>
<g id="a_edge4_Node000004_Node000005"><a xlink:title=" ">
<path fill="none" stroke="#63b8ff" d="M90.72,-1129.14C101,-1083.66 114.24,-1025.09 126.18,-972.28"/>
<polygon fill="none" stroke="#63b8ff" points="87.3,-1128.4 88.5,-1138.93 94.12,-1129.95 87.3,-1128.4"/>
</a>
</g>
</g>
<!-- Node6 -->
<g id="Node000006" class="node">
<title>Node6</title>
<g id="a_Node000006"><a xlink:href="../../dd/d16/classDoublyLinkedList.html" target="_top" xlink:title=" ">
<polygon fill="white" stroke="transparent" points="319.5,-1398 164.5,-1398 164.5,-1019 319.5,-1019 319.5,-1398"/>
<text text-anchor="start" x="170" y="-1385.5" font-family="Helvetica,sans-Serif" font-size="10.00">DoublyLinkedList&lt; Derived &gt;</text>
<text text-anchor="start" x="187" y="-1370.5" font-family="Helvetica,sans-Serif" font-size="10.00">&#45;</text>
<text text-anchor="start" x="213" y="-1370.5" font-family="Helvetica,sans-Serif" font-size="10.00">first</text>
<text text-anchor="start" x="187" y="-1355.5" font-family="Helvetica,sans-Serif" font-size="10.00">&#45;</text>
<text text-anchor="start" x="213" y="-1355.5" font-family="Helvetica,sans-Serif" font-size="10.00">last</text>
<text text-anchor="start" x="184.5" y="-1340.5" font-family="Helvetica,sans-Serif" font-size="10.00">+</text>
<text text-anchor="start" x="213" y="-1340.5" font-family="Helvetica,sans-Serif" font-size="10.00">append()</text>
<text text-anchor="start" x="184.5" y="-1325.5" font-family="Helvetica,sans-Serif" font-size="10.00">+</text>
<text text-anchor="start" x="213" y="-1325.5" font-family="Helvetica,sans-Serif" font-size="10.00">append()</text>
<text text-anchor="start" x="184.5" y="-1310.5" font-family="Helvetica,sans-Serif" font-size="10.00">+</text>
<text text-anchor="start" x="213" y="-1310.5" font-family="Helvetica,sans-Serif" font-size="10.00">insertBefore()</text>
<text text-anchor="start" x="184.5" y="-1295.5" font-family="Helvetica,sans-Serif" font-size="10.00">+</text>
<text text-anchor="start" x="213" y="-1295.5" font-family="Helvetica,sans-Serif" font-size="10.00">insertBefore()</text>
<text text-anchor="start" x="184.5" y="-1280.5" font-family="Helvetica,sans-Serif" font-size="10.00">+</text>
<text text-anchor="start" x="213" y="-1280.5" font-family="Helvetica,sans-Serif" font-size="10.00">insertSorted()</text>
<text text-anchor="start" x="184.5" y="-1265.5" font-family="Helvetica,sans-Serif" font-size="10.00">+</text>
<text text-anchor="start" x="213" y="-1265.5" font-family="Helvetica,sans-Serif" font-size="10.00">insertSorted()</text>
<text text-anchor="start" x="184.5" y="-1250.5" font-family="Helvetica,sans-Serif" font-size="10.00">+</text>
<text text-anchor="start" x="213" y="-1250.5" font-family="Helvetica,sans-Serif" font-size="10.00">remove()</text>
<text text-anchor="start" x="184.5" y="-1235.5" font-family="Helvetica,sans-Serif" font-size="10.00">+</text>
<text text-anchor="start" x="213" y="-1235.5" font-family="Helvetica,sans-Serif" font-size="10.00">remove()</text>
<text text-anchor="start" x="184.5" y="-1220.5" font-family="Helvetica,sans-Serif" font-size="10.00">+</text>
<text text-anchor="start" x="213" y="-1220.5" font-family="Helvetica,sans-Serif" font-size="10.00">moveDown()</text>
<text text-anchor="start" x="184.5" y="-1205.5" font-family="Helvetica,sans-Serif" font-size="10.00">+</text>
<text text-anchor="start" x="213" y="-1205.5" font-family="Helvetica,sans-Serif" font-size="10.00">moveDown()</text>
<text text-anchor="start" x="184.5" y="-1190.5" font-family="Helvetica,sans-Serif" font-size="10.00">+</text>
<text text-anchor="start" x="213" y="-1190.5" font-family="Helvetica,sans-Serif" font-size="10.00">couldContain()</text>
<text text-anchor="start" x="184.5" y="-1175.5" font-family="Helvetica,sans-Serif" font-size="10.00">+</text>
<text text-anchor="start" x="213" y="-1175.5" font-family="Helvetica,sans-Serif" font-size="10.00">couldContain()</text>
<text text-anchor="start" x="184.5" y="-1160.5" font-family="Helvetica,sans-Serif" font-size="10.00">+</text>
<text text-anchor="start" x="213" y="-1160.5" font-family="Helvetica,sans-Serif" font-size="10.00">begin()</text>
<text text-anchor="start" x="184.5" y="-1145.5" font-family="Helvetica,sans-Serif" font-size="10.00">+</text>
<text text-anchor="start" x="213" y="-1145.5" font-family="Helvetica,sans-Serif" font-size="10.00">begin()</text>
<text text-anchor="start" x="184.5" y="-1130.5" font-family="Helvetica,sans-Serif" font-size="10.00">+</text>
<text text-anchor="start" x="213" y="-1130.5" font-family="Helvetica,sans-Serif" font-size="10.00">end()</text>
<text text-anchor="start" x="184.5" y="-1115.5" font-family="Helvetica,sans-Serif" font-size="10.00">+</text>
<text text-anchor="start" x="213" y="-1115.5" font-family="Helvetica,sans-Serif" font-size="10.00">end()</text>
<text text-anchor="start" x="184.5" y="-1100.5" font-family="Helvetica,sans-Serif" font-size="10.00">+</text>
<text text-anchor="start" x="213" y="-1100.5" font-family="Helvetica,sans-Serif" font-size="10.00">rbegin()</text>
<text text-anchor="start" x="184.5" y="-1085.5" font-family="Helvetica,sans-Serif" font-size="10.00">+</text>
<text text-anchor="start" x="213" y="-1085.5" font-family="Helvetica,sans-Serif" font-size="10.00">rbegin()</text>
<text text-anchor="start" x="184.5" y="-1070.5" font-family="Helvetica,sans-Serif" font-size="10.00">+</text>
<text text-anchor="start" x="213" y="-1070.5" font-family="Helvetica,sans-Serif" font-size="10.00">rend()</text>
<text text-anchor="start" x="184.5" y="-1055.5" font-family="Helvetica,sans-Serif" font-size="10.00">+</text>
<text text-anchor="start" x="213" y="-1055.5" font-family="Helvetica,sans-Serif" font-size="10.00">rend()</text>
<text text-anchor="start" x="184.5" y="-1040.5" font-family="Helvetica,sans-Serif" font-size="10.00">+</text>
<text text-anchor="start" x="213" y="-1040.5" font-family="Helvetica,sans-Serif" font-size="10.00">getFirst()</text>
<text text-anchor="start" x="184.5" y="-1025.5" font-family="Helvetica,sans-Serif" font-size="10.00">+</text>
<text text-anchor="start" x="213" y="-1025.5" font-family="Helvetica,sans-Serif" font-size="10.00">getLast()</text>
<polygon fill="#666666" stroke="#666666" points="165,-1380.5 165,-1380.5 320,-1380.5 320,-1380.5 165,-1380.5"/>
<polygon fill="#666666" stroke="#666666" points="165,-1350.5 165,-1350.5 211,-1350.5 211,-1350.5 165,-1350.5"/>
<polygon fill="#666666" stroke="#666666" points="211,-1350.5 211,-1350.5 320,-1350.5 320,-1350.5 211,-1350.5"/>
<polygon fill="none" stroke="#666666" points="164.5,-1019 164.5,-1398 319.5,-1398 319.5,-1019 164.5,-1019"/>
</a>
</g>
</g>
<!-- Node6&#45;&gt;Node4 -->
<g id="edge5_Node000004_Node000006" class="edge">
<title>Node6&#45;&gt;Node4</title>
<g id="a_edge5_Node000004_Node000006"><a xlink:title=" ">
<path fill="none" stroke="#63b8ff" d="M198.82,-1018.76C196.15,-1007.1 193.49,-995.47 190.87,-984.03"/>
<polygon fill="none" stroke="#63b8ff" points="190.84,-983.89 185.6,-978.93 188.16,-972.19 193.4,-977.15 190.84,-983.89"/>
</a>
</g>
<text text-anchor="middle" x="228" y="-993" font-family="Helvetica,sans-Serif" font-size="10.00" fill="grey"> #updatables</text>
</g>
<!-- Node7 -->
<g id="Node000007" class="node">
<title>Node7</title>
<g id="a_Node000007"><a xlink:href="../../de/d0d/classAH_1_1Button.html" target="_top" xlink:title="A class for reading and debouncing buttons and switches.">
<polygon fill="white" stroke="transparent" points="361,-576 229,-576 229,-347 361,-347 361,-576"/>
<text text-anchor="start" x="278.5" y="-563.5" font-family="Helvetica,sans-Serif" font-size="10.00">Button</text>
<text text-anchor="start" x="235.5" y="-548.5" font-family="Helvetica,sans-Serif" font-size="10.00">&#45;</text>
<text text-anchor="start" x="246" y="-548.5" font-family="Helvetica,sans-Serif" font-size="10.00">debounceTime</text>
<text text-anchor="start" x="233" y="-533.5" font-family="Helvetica,sans-Serif" font-size="10.00">+</text>
<text text-anchor="start" x="246" y="-533.5" font-family="Helvetica,sans-Serif" font-size="10.00">Button()</text>
<text text-anchor="start" x="233" y="-518.5" font-family="Helvetica,sans-Serif" font-size="10.00">+</text>
<text text-anchor="start" x="246" y="-518.5" font-family="Helvetica,sans-Serif" font-size="10.00">Button()</text>
<text text-anchor="start" x="233" y="-503.5" font-family="Helvetica,sans-Serif" font-size="10.00">+</text>
<text text-anchor="start" x="246" y="-503.5" font-family="Helvetica,sans-Serif" font-size="10.00">Button()</text>
<text text-anchor="start" x="233" y="-488.5" font-family="Helvetica,sans-Serif" font-size="10.00">+</text>
<text text-anchor="start" x="246" y="-488.5" font-family="Helvetica,sans-Serif" font-size="10.00">begin()</text>
<text text-anchor="start" x="233" y="-473.5" font-family="Helvetica,sans-Serif" font-size="10.00">+</text>
<text text-anchor="start" x="246" y="-473.5" font-family="Helvetica,sans-Serif" font-size="10.00">invert()</text>
<text text-anchor="start" x="233" y="-458.5" font-family="Helvetica,sans-Serif" font-size="10.00">+</text>
<text text-anchor="start" x="246" y="-458.5" font-family="Helvetica,sans-Serif" font-size="10.00">update()</text>
<text text-anchor="start" x="233" y="-443.5" font-family="Helvetica,sans-Serif" font-size="10.00">+</text>
<text text-anchor="start" x="246" y="-443.5" font-family="Helvetica,sans-Serif" font-size="10.00">getState()</text>
<text text-anchor="start" x="233" y="-428.5" font-family="Helvetica,sans-Serif" font-size="10.00">+</text>
<text text-anchor="start" x="246" y="-428.5" font-family="Helvetica,sans-Serif" font-size="10.00">previousBounceTime()</text>
<text text-anchor="start" x="233" y="-413.5" font-family="Helvetica,sans-Serif" font-size="10.00">+</text>
<text text-anchor="start" x="246" y="-413.5" font-family="Helvetica,sans-Serif" font-size="10.00">stableTime()</text>
<text text-anchor="start" x="233" y="-398.5" font-family="Helvetica,sans-Serif" font-size="10.00">+</text>
<text text-anchor="start" x="246" y="-398.5" font-family="Helvetica,sans-Serif" font-size="10.00">stableTime()</text>
<text text-anchor="start" x="233" y="-383.5" font-family="Helvetica,sans-Serif" font-size="10.00">+</text>
<text text-anchor="start" x="246" y="-383.5" font-family="Helvetica,sans-Serif" font-size="10.00">getName()</text>
<text text-anchor="start" x="233" y="-368.5" font-family="Helvetica,sans-Serif" font-size="10.00">+</text>
<text text-anchor="start" x="246" y="-368.5" font-family="Helvetica,sans-Serif" font-size="10.00">setDebounceTime()</text>
<text text-anchor="start" x="233" y="-353.5" font-family="Helvetica,sans-Serif" font-size="10.00">+</text>
<text text-anchor="start" x="246" y="-353.5" font-family="Helvetica,sans-Serif" font-size="10.00">getDebounceTime()</text>
<polygon fill="#666666" stroke="#666666" points="229,-558.5 229,-558.5 361,-558.5 361,-558.5 229,-558.5"/>
<polygon fill="#666666" stroke="#666666" points="229,-543.5 229,-543.5 244,-543.5 244,-543.5 229,-543.5"/>
<polygon fill="#666666" stroke="#666666" points="244,-543.5 244,-543.5 361,-543.5 361,-543.5 244,-543.5"/>
<polygon fill="none" stroke="#666666" points="229,-347 229,-576 361,-576 361,-347 229,-347"/>
</a>
</g>
</g>
<!-- Node7&#45;&gt;Node2 -->
<g id="edge6_Node000002_Node000007" class="edge">
<title>Node7&#45;&gt;Node2</title>
<g id="a_edge6_Node000002_Node000007"><a xlink:title=" ">
<path fill="none" stroke="#63b8ff" d="M337.61,-346.87C351.3,-310.36 366.18,-270.69 378.79,-237.06"/>
<polygon fill="none" stroke="#63b8ff" points="378.94,-236.67 377.3,-229.65 383.15,-225.44 384.79,-232.46 378.94,-236.67"/>
</a>
</g>
<text text-anchor="middle" x="395.5" y="-246" font-family="Helvetica,sans-Serif" font-size="10.00" fill="grey"> &#45;button</text>
</g>
<!-- Node8 -->
<g id="Node000008" class="node">
<title>Node8</title>
<g id="a_Node000008"><a xlink:href="../../d7/de2/structAH_1_1ExtIO_1_1pin__t.html" target="_top" xlink:title="Type for storing pin numbers of Extended Input/Output elements.">
<polygon fill="white" stroke="transparent" points="336.5,-912 249.5,-912 249.5,-758 336.5,-758 336.5,-912"/>
<text text-anchor="start" x="281" y="-900" font-family="Helvetica,sans-Serif" font-size="10.00">pin_t</text>
<text text-anchor="start" x="254" y="-885" font-family="Helvetica,sans-Serif" font-size="10.00">+</text>
<text text-anchor="start" x="267" y="-885" font-family="Helvetica,sans-Serif" font-size="10.00">pin</text>
<text text-anchor="start" x="254" y="-870" font-family="Helvetica,sans-Serif" font-size="10.00">+</text>
<text text-anchor="start" x="267" y="-870" font-family="Helvetica,sans-Serif" font-size="10.00">pin_t()</text>
<text text-anchor="start" x="254" y="-855" font-family="Helvetica,sans-Serif" font-size="10.00">+</text>
<text text-anchor="start" x="267" y="-855" font-family="Helvetica,sans-Serif" font-size="10.00">pin_t()</text>
<text text-anchor="start" x="254" y="-840" font-family="Helvetica,sans-Serif" font-size="10.00">+</text>
<text text-anchor="start" x="267" y="-840" font-family="Helvetica,sans-Serif" font-size="10.00">operator+=()</text>
<text text-anchor="start" x="254" y="-825" font-family="Helvetica,sans-Serif" font-size="10.00">+</text>
<text text-anchor="start" x="267" y="-825" font-family="Helvetica,sans-Serif" font-size="10.00">operator++()</text>
<text text-anchor="start" x="254" y="-810" font-family="Helvetica,sans-Serif" font-size="10.00">+</text>
<text text-anchor="start" x="267" y="-810" font-family="Helvetica,sans-Serif" font-size="10.00">operator++()</text>
<text text-anchor="start" x="254" y="-795" font-family="Helvetica,sans-Serif" font-size="10.00">+</text>
<text text-anchor="start" x="267" y="-795" font-family="Helvetica,sans-Serif" font-size="10.00">operator&#45;=()</text>
<text text-anchor="start" x="254" y="-780" font-family="Helvetica,sans-Serif" font-size="10.00">+</text>
<text text-anchor="start" x="267" y="-780" font-family="Helvetica,sans-Serif" font-size="10.00">operator&#45;&#45;()</text>
<text text-anchor="start" x="254" y="-765" font-family="Helvetica,sans-Serif" font-size="10.00">+</text>
<text text-anchor="start" x="267" y="-765" font-family="Helvetica,sans-Serif" font-size="10.00">operator&#45;&#45;()</text>
<polygon fill="#666666" stroke="#666666" points="250,-895 250,-895 337,-895 337,-895 250,-895"/>
<polygon fill="#666666" stroke="#666666" points="250,-880 250,-880 265,-880 265,-880 250,-880"/>
<polygon fill="#666666" stroke="#666666" points="265,-880 265,-880 337,-880 337,-880 265,-880"/>
<polygon fill="none" stroke="#666666" points="249.5,-758 249.5,-912 336.5,-912 336.5,-758 249.5,-758"/>
</a>
</g>
</g>
<!-- Node8&#45;&gt;Node7 -->
<g id="edge7_Node000007_Node000008" class="edge">
<title>Node8&#45;&gt;Node7</title>
<g id="a_edge7_Node000007_Node000008"><a xlink:title=" ">
<path fill="none" stroke="#63b8ff" d="M293.41,-757.92C293.67,-709.18 294.02,-644.72 294.32,-588.46"/>
<polygon fill="none" stroke="#63b8ff" points="294.32,-588.22 290.36,-582.2 294.39,-576.22 298.36,-582.24 294.32,-588.22"/>
</a>
</g>
<text text-anchor="middle" x="305" y="-672" font-family="Helvetica,sans-Serif" font-size="10.00" fill="grey"> &#45;pin</text>
</g>
<!-- Node9 -->
<g id="Node000009" class="node">
<title>Node9</title>
<g id="a_Node000009"><a xlink:href="../../dc/db4/structAH_1_1Button_1_1InternalState.html" target="_top" xlink:title=" ">
<polygon fill="white" stroke="transparent" points="459,-889.5 355,-889.5 355,-780.5 459,-780.5 459,-889.5"/>
<text text-anchor="start" x="375" y="-877" font-family="Helvetica,sans-Serif" font-size="10.00">InternalState</text>
<text text-anchor="start" x="359" y="-862" font-family="Helvetica,sans-Serif" font-size="10.00">+</text>
<text text-anchor="start" x="372" y="-862" font-family="Helvetica,sans-Serif" font-size="10.00">debounced</text>
<text text-anchor="start" x="359" y="-847" font-family="Helvetica,sans-Serif" font-size="10.00">+</text>
<text text-anchor="start" x="372" y="-847" font-family="Helvetica,sans-Serif" font-size="10.00">bouncing</text>
<text text-anchor="start" x="359" y="-832" font-family="Helvetica,sans-Serif" font-size="10.00">+</text>
<text text-anchor="start" x="372" y="-832" font-family="Helvetica,sans-Serif" font-size="10.00">prevInput</text>
<text text-anchor="start" x="359" y="-817" font-family="Helvetica,sans-Serif" font-size="10.00">+</text>
<text text-anchor="start" x="372" y="-817" font-family="Helvetica,sans-Serif" font-size="10.00">invert</text>
<text text-anchor="start" x="359" y="-802" font-family="Helvetica,sans-Serif" font-size="10.00">+</text>
<text text-anchor="start" x="372" y="-802" font-family="Helvetica,sans-Serif" font-size="10.00">prevBounceTime</text>
<text text-anchor="start" x="359" y="-787" font-family="Helvetica,sans-Serif" font-size="10.00">+</text>
<text text-anchor="start" x="372" y="-787" font-family="Helvetica,sans-Serif" font-size="10.00">InternalState()</text>
<polygon fill="#666666" stroke="#666666" points="355,-872 355,-872 459,-872 459,-872 355,-872"/>
<polygon fill="#666666" stroke="#666666" points="355,-797 355,-797 370,-797 370,-797 355,-797"/>
<polygon fill="#666666" stroke="#666666" points="370,-797 370,-797 459,-797 459,-797 370,-797"/>
<polygon fill="none" stroke="#666666" points="355,-780.5 355,-889.5 459,-889.5 459,-780.5 355,-780.5"/>
</a>
</g>
</g>
<!-- Node9&#45;&gt;Node7 -->
<g id="edge8_Node000007_Node000009" class="edge">
<title>Node9&#45;&gt;Node7</title>
<g id="a_edge8_Node000007_Node000009"><a xlink:title=" ">
<path fill="none" stroke="#63b8ff" d="M390.83,-780.38C375.72,-730.24 352.58,-653.47 332.82,-587.94"/>
<polygon fill="none" stroke="#63b8ff" points="332.76,-587.76 327.2,-583.17 329.3,-576.27 334.86,-580.86 332.76,-587.76"/>
</a>
</g>
<text text-anchor="middle" x="374" y="-672" font-family="Helvetica,sans-Serif" font-size="10.00" fill="grey"> &#45;state</text>
</g>
<!-- Node10 -->
<g id="Node000010" class="node">
<title>Node10</title>
<g id="a_Node000010"><a xlink:href="../../d7/d0f/classMIDIAddress.html" target="_top" xlink:title="A type&#45;safe utility class for saving a MIDI address consisting of a 7&#45;bit address,...">
<polygon fill="white" stroke="transparent" points="515,-651 379,-651 379,-272 515,-272 515,-651"/>
<text text-anchor="start" x="416" y="-638.5" font-family="Helvetica,sans-Serif" font-size="10.00">MIDIAddress</text>
<text text-anchor="start" x="384" y="-623.5" font-family="Helvetica,sans-Serif" font-size="10.00">&#45;</text>
<text text-anchor="start" x="393" y="-623.5" font-family="Helvetica,sans-Serif" font-size="10.00">addresses</text>
<text text-anchor="start" x="383" y="-608.5" font-family="Helvetica,sans-Serif" font-size="10.00">*</text>
<text text-anchor="start" x="393" y="-608.5" font-family="Helvetica,sans-Serif" font-size="10.00">MIDIAddress()</text>
<text text-anchor="start" x="383" y="-593.5" font-family="Helvetica,sans-Serif" font-size="10.00">*</text>
<text text-anchor="start" x="393" y="-593.5" font-family="Helvetica,sans-Serif" font-size="10.00">MIDIAddress()</text>
<text text-anchor="start" x="383" y="-578.5" font-family="Helvetica,sans-Serif" font-size="10.00">*</text>
<text text-anchor="start" x="393" y="-578.5" font-family="Helvetica,sans-Serif" font-size="10.00">MIDIAddress()</text>
<text text-anchor="start" x="383" y="-563.5" font-family="Helvetica,sans-Serif" font-size="10.00">*</text>
<text text-anchor="start" x="393" y="-563.5" font-family="Helvetica,sans-Serif" font-size="10.00">MIDIAddress()</text>
<text text-anchor="start" x="383" y="-548.5" font-family="Helvetica,sans-Serif" font-size="10.00">*</text>
<text text-anchor="start" x="393" y="-548.5" font-family="Helvetica,sans-Serif" font-size="10.00">MIDIAddress()</text>
<text text-anchor="start" x="383" y="-533.5" font-family="Helvetica,sans-Serif" font-size="10.00">*</text>
<text text-anchor="start" x="393" y="-533.5" font-family="Helvetica,sans-Serif" font-size="10.00">MIDIAddress()</text>
<text text-anchor="start" x="383" y="-518.5" font-family="Helvetica,sans-Serif" font-size="10.00">*</text>
<text text-anchor="start" x="393" y="-518.5" font-family="Helvetica,sans-Serif" font-size="10.00">invalid()</text>
<text text-anchor="start" x="383" y="-503.5" font-family="Helvetica,sans-Serif" font-size="10.00">*</text>
<text text-anchor="start" x="393" y="-503.5" font-family="Helvetica,sans-Serif" font-size="10.00">operator+=()</text>
<text text-anchor="start" x="383" y="-488.5" font-family="Helvetica,sans-Serif" font-size="10.00">*</text>
<text text-anchor="start" x="393" y="-488.5" font-family="Helvetica,sans-Serif" font-size="10.00">operator&#45;=()</text>
<text text-anchor="start" x="383" y="-473.5" font-family="Helvetica,sans-Serif" font-size="10.00">*</text>
<text text-anchor="start" x="393" y="-473.5" font-family="Helvetica,sans-Serif" font-size="10.00">operator+()</text>
<text text-anchor="start" x="383" y="-458.5" font-family="Helvetica,sans-Serif" font-size="10.00">*</text>
<text text-anchor="start" x="393" y="-458.5" font-family="Helvetica,sans-Serif" font-size="10.00">operator&#45;()</text>
<text text-anchor="start" x="383" y="-443.5" font-family="Helvetica,sans-Serif" font-size="10.00">*</text>
<text text-anchor="start" x="393" y="-443.5" font-family="Helvetica,sans-Serif" font-size="10.00">getAddress()</text>
<text text-anchor="start" x="383" y="-428.5" font-family="Helvetica,sans-Serif" font-size="10.00">*</text>
<text text-anchor="start" x="393" y="-428.5" font-family="Helvetica,sans-Serif" font-size="10.00">getChannel()</text>
<text text-anchor="start" x="383" y="-413.5" font-family="Helvetica,sans-Serif" font-size="10.00">*</text>
<text text-anchor="start" x="393" y="-413.5" font-family="Helvetica,sans-Serif" font-size="10.00">getRawChannel()</text>
<text text-anchor="start" x="383" y="-398.5" font-family="Helvetica,sans-Serif" font-size="10.00">*</text>
<text text-anchor="start" x="393" y="-398.5" font-family="Helvetica,sans-Serif" font-size="10.00">getCableNumber()</text>
<text text-anchor="start" x="383" y="-383.5" font-family="Helvetica,sans-Serif" font-size="10.00">*</text>
<text text-anchor="start" x="393" y="-383.5" font-family="Helvetica,sans-Serif" font-size="10.00">getRawCableNumber()</text>
<text text-anchor="start" x="383" y="-368.5" font-family="Helvetica,sans-Serif" font-size="10.00">*</text>
<text text-anchor="start" x="393" y="-368.5" font-family="Helvetica,sans-Serif" font-size="10.00">getChannelCable()</text>
<text text-anchor="start" x="383" y="-353.5" font-family="Helvetica,sans-Serif" font-size="10.00">*</text>
<text text-anchor="start" x="393" y="-353.5" font-family="Helvetica,sans-Serif" font-size="10.00">operator==()</text>
<text text-anchor="start" x="383" y="-338.5" font-family="Helvetica,sans-Serif" font-size="10.00">*</text>
<text text-anchor="start" x="393" y="-338.5" font-family="Helvetica,sans-Serif" font-size="10.00">operator!=()</text>
<text text-anchor="start" x="383" y="-323.5" font-family="Helvetica,sans-Serif" font-size="10.00">*</text>
<text text-anchor="start" x="393" y="-323.5" font-family="Helvetica,sans-Serif" font-size="10.00">isValid()</text>
<text text-anchor="start" x="383" y="-308.5" font-family="Helvetica,sans-Serif" font-size="10.00">*</text>
<text text-anchor="start" x="393" y="-308.5" font-family="Helvetica,sans-Serif" font-size="10.00">operator bool()</text>
<text text-anchor="start" x="383" y="-293.5" font-family="Helvetica,sans-Serif" font-size="10.00">*</text>
<text text-anchor="start" x="393" y="-293.5" font-family="Helvetica,sans-Serif" font-size="10.00">matchSingle()</text>
<text text-anchor="start" x="383" y="-278.5" font-family="Helvetica,sans-Serif" font-size="10.00">*</text>
<text text-anchor="start" x="393" y="-278.5" font-family="Helvetica,sans-Serif" font-size="10.00">matchAddressInRange()</text>
<polygon fill="#666666" stroke="#666666" points="379,-633.5 379,-633.5 515,-633.5 515,-633.5 379,-633.5"/>
<polygon fill="#666666" stroke="#666666" points="379,-618.5 379,-618.5 391,-618.5 391,-618.5 379,-618.5"/>
<polygon fill="#666666" stroke="#666666" points="391,-618.5 391,-618.5 515,-618.5 515,-618.5 391,-618.5"/>
<polygon fill="none" stroke="#666666" points="379,-272 379,-651 515,-651 515,-272 379,-272"/>
</a>
</g>
</g>
<!-- Node10&#45;&gt;Node2 -->
<g id="edge9_Node000002_Node000010" class="edge">
<title>Node10&#45;&gt;Node2</title>
<g id="a_edge9_Node000002_Node000010"><a xlink:title=" ">
<path fill="none" stroke="#63b8ff" d="M423.42,-271.86C421.92,-259.9 420.47,-248.25 419.09,-237.25"/>
<polygon fill="none" stroke="#63b8ff" points="419.07,-237.03 414.35,-231.57 417.58,-225.12 422.29,-230.58 419.07,-237.03"/>
</a>
</g>
<text text-anchor="middle" x="444" y="-246" font-family="Helvetica,sans-Serif" font-size="10.00" fill="grey"> &#45;address</text>
</g>
<!-- Node11 -->
<g id="Node000011" class="node">
<title>Node11</title>
<g id="a_Node000011"><a xlink:href="../../d5/db5/classDigitalCCSender.html" target="_top" xlink:title="Class that sends MIDI control change messages signifying either &quot;on&quot; or &quot;off&quot;.">
<polygon fill="white" stroke="transparent" points="642.5,-538.5 533.5,-538.5 533.5,-384.5 642.5,-384.5 642.5,-538.5"/>
<text text-anchor="start" x="548.5" y="-526.5" font-family="Helvetica,sans-Serif" font-size="10.00">DigitalCCSender</text>
<text text-anchor="start" x="540.5" y="-511.5" font-family="Helvetica,sans-Serif" font-size="10.00">&#45;</text>
<text text-anchor="start" x="551" y="-511.5" font-family="Helvetica,sans-Serif" font-size="10.00">onValue</text>
<text text-anchor="start" x="540.5" y="-496.5" font-family="Helvetica,sans-Serif" font-size="10.00">&#45;</text>
<text text-anchor="start" x="551" y="-496.5" font-family="Helvetica,sans-Serif" font-size="10.00">offValue</text>
<text text-anchor="start" x="538" y="-481.5" font-family="Helvetica,sans-Serif" font-size="10.00">+</text>
<text text-anchor="start" x="551" y="-481.5" font-family="Helvetica,sans-Serif" font-size="10.00">DigitalCCSender()</text>
<text text-anchor="start" x="538" y="-466.5" font-family="Helvetica,sans-Serif" font-size="10.00">+</text>
<text text-anchor="start" x="551" y="-466.5" font-family="Helvetica,sans-Serif" font-size="10.00">sendOn()</text>
<text text-anchor="start" x="538" y="-451.5" font-family="Helvetica,sans-Serif" font-size="10.00">+</text>
<text text-anchor="start" x="551" y="-451.5" font-family="Helvetica,sans-Serif" font-size="10.00">sendOff()</text>
<text text-anchor="start" x="538" y="-436.5" font-family="Helvetica,sans-Serif" font-size="10.00">+</text>
<text text-anchor="start" x="551" y="-436.5" font-family="Helvetica,sans-Serif" font-size="10.00">getOnValue()</text>
<text text-anchor="start" x="538" y="-421.5" font-family="Helvetica,sans-Serif" font-size="10.00">+</text>
<text text-anchor="start" x="551" y="-421.5" font-family="Helvetica,sans-Serif" font-size="10.00">setOnValue()</text>
<text text-anchor="start" x="538" y="-406.5" font-family="Helvetica,sans-Serif" font-size="10.00">+</text>
<text text-anchor="start" x="551" y="-406.5" font-family="Helvetica,sans-Serif" font-size="10.00">getOffValue()</text>
<text text-anchor="start" x="538" y="-391.5" font-family="Helvetica,sans-Serif" font-size="10.00">+</text>
<text text-anchor="start" x="551" y="-391.5" font-family="Helvetica,sans-Serif" font-size="10.00">setOffValue()</text>
<polygon fill="#666666" stroke="#666666" points="534,-521.5 534,-521.5 643,-521.5 643,-521.5 534,-521.5"/>
<polygon fill="#666666" stroke="#666666" points="534,-491.5 534,-491.5 549,-491.5 549,-491.5 534,-491.5"/>
<polygon fill="#666666" stroke="#666666" points="549,-491.5 549,-491.5 643,-491.5 643,-491.5 549,-491.5"/>
<polygon fill="none" stroke="#666666" points="533.5,-384.5 533.5,-538.5 642.5,-538.5 642.5,-384.5 533.5,-384.5"/>
</a>
</g>
</g>
<!-- Node11&#45;&gt;Node2 -->
<g id="edge10_Node000002_Node000011" class="edge">
<title>Node11&#45;&gt;Node2</title>
<g id="a_edge10_Node000002_Node000011"><a xlink:title=" ">
<path fill="none" stroke="#63b8ff" d="M570.61,-384.06C560.39,-348.33 545.23,-306.21 524,-272 515.86,-258.87 505.96,-246.1 495.42,-234.11"/>
<polygon fill="none" stroke="#63b8ff" points="495.32,-234 488.33,-232.24 487.26,-225.11 494.25,-226.87 495.32,-234"/>
</a>
</g>
<text text-anchor="middle" x="533.5" y="-246" font-family="Helvetica,sans-Serif" font-size="10.00" fill="grey"> +sender</text>
</g>
</g>
</svg>
