<?xml version="1.0" encoding="UTF-8" standalone="no"?>
<!DOCTYPE svg PUBLIC "-//W3C//DTD SVG 1.1//EN"
 "http://www.w3.org/Graphics/SVG/1.1/DTD/svg11.dtd">
<!-- Generated by graphviz version 2.38.0 (20140413.2041)
 -->
<!-- Title: ButtonMatrix.hpp Pages: 1 -->
<svg width="1262pt" height="666pt"
 viewBox="0.00 0.00 1262.00 666.00" xmlns="http://www.w3.org/2000/svg" xmlns:xlink="http://www.w3.org/1999/xlink">
<g id="graph0" class="graph" transform="scale(1 1) rotate(0) translate(4 662)">
<title>ButtonMatrix.hpp</title>
<polygon fill="white" stroke="none" points="-4,4 -4,-662 1258,-662 1258,4 -4,4"/>
<!-- Node1 -->
<g id="node1" class="node"><title>Node1</title>
<g id="a_node1"><a xlink:title=" ">
<polygon fill="#bfbfbf" stroke="black" points="123.5,-638.5 123.5,-657.5 214.5,-657.5 214.5,-638.5 123.5,-638.5"/>
<text text-anchor="middle" x="169" y="-645.5" font-family="Helvetica,sans-Serif" font-size="10.00">ButtonMatrix.hpp</text>
</a>
</g>
</g>
<!-- Node2 -->
<g id="node2" class="node"><title>Node2</title>
<g id="a_node2"><a xlink:href="../../d1/d65/Warnings_8hpp.html" target="_top" xlink:title=" ">
<polygon fill="white" stroke="black" points="443.5,-0.5 443.5,-19.5 576.5,-19.5 576.5,-0.5 443.5,-0.5"/>
<text text-anchor="middle" x="510" y="-7.5" font-family="Helvetica,sans-Serif" font-size="10.00">AH/Settings/Warnings.hpp</text>
</a>
</g>
</g>
<!-- Node1&#45;&gt;Node2 -->
<g id="edge1" class="edge"><title>Node1&#45;&gt;Node2</title>
<path fill="none" stroke="midnightblue" d="M129.377,-638.422C79.4257,-625.006 0,-593.869 0,-531.5 0,-531.5 0,-531.5 0,-233 0,-145.344 15.1514,-106.213 87,-56 114.691,-36.6477 318.898,-21.9703 433.143,-15.1716"/>
<polygon fill="midnightblue" stroke="midnightblue" points="433.456,-18.6593 443.233,-14.5777 433.045,-11.6714 433.456,-18.6593"/>
</g>
<!-- Node3 -->
<g id="node3" class="node"><title>Node3</title>
<g id="a_node3"><a xlink:href="../../d4/d35/Hardware-Types_8hpp.html" target="_top" xlink:title=" ">
<polygon fill="white" stroke="black" points="657.5,-392.5 657.5,-422.5 778.5,-422.5 778.5,-392.5 657.5,-392.5"/>
<text text-anchor="start" x="665.5" y="-410.5" font-family="Helvetica,sans-Serif" font-size="10.00">AH/Hardware/Hardware</text>
<text text-anchor="middle" x="718" y="-399.5" font-family="Helvetica,sans-Serif" font-size="10.00">&#45;Types.hpp</text>
</a>
</g>
</g>
<!-- Node1&#45;&gt;Node3 -->
<g id="edge2" class="edge"><title>Node1&#45;&gt;Node3</title>
<path fill="none" stroke="midnightblue" d="M188.864,-638.371C268.45,-603.796 565.299,-474.837 676.015,-426.739"/>
<polygon fill="midnightblue" stroke="midnightblue" points="677.743,-429.805 685.52,-422.61 674.954,-423.385 677.743,-429.805"/>
</g>
<!-- Node21 -->
<g id="node21" class="node"><title>Node21</title>
<g id="a_node21"><a xlink:href="../../d5/d41/ButtonMatrix_8ipp.html" target="_top" xlink:title=" ">
<polygon fill="white" stroke="black" points="125,-582.5 125,-601.5 213,-601.5 213,-582.5 125,-582.5"/>
<text text-anchor="middle" x="169" y="-589.5" font-family="Helvetica,sans-Serif" font-size="10.00">ButtonMatrix.ipp</text>
</a>
</g>
</g>
<!-- Node1&#45;&gt;Node21 -->
<g id="edge34" class="edge"><title>Node1&#45;&gt;Node21</title>
<path fill="none" stroke="midnightblue" d="M163.834,-638.083C162.324,-630.927 161.894,-620.635 162.542,-611.691"/>
<polygon fill="midnightblue" stroke="midnightblue" points="166.015,-612.126 163.869,-601.751 159.077,-611.2 166.015,-612.126"/>
</g>
<!-- Node3&#45;&gt;Node2 -->
<g id="edge3" class="edge"><title>Node3&#45;&gt;Node2</title>
<path fill="none" stroke="midnightblue" d="M778.61,-403.927C903.52,-396.968 1178,-372.414 1178,-291 1178,-291 1178,-291 1178,-121 1178,-87.0792 1167,-73.5949 1138,-56 1091.91,-28.0345 743.863,-16.4463 586.659,-12.6021"/>
<polygon fill="midnightblue" stroke="midnightblue" points="586.666,-9.10136 576.585,-12.36 586.498,-16.0993 586.666,-9.10136"/>
</g>
<!-- Node4 -->
<g id="node4" class="node"><title>Node4</title>
<g id="a_node4"><a xlink:href="../../de/d76/Array_8hpp.html" target="_top" xlink:title=" ">
<polygon fill="white" stroke="black" points="817,-336.5 817,-355.5 943,-355.5 943,-336.5 817,-336.5"/>
<text text-anchor="middle" x="880" y="-343.5" font-family="Helvetica,sans-Serif" font-size="10.00">AH/Containers/Array.hpp</text>
</a>
</g>
</g>
<!-- Node3&#45;&gt;Node4 -->
<g id="edge4" class="edge"><title>Node3&#45;&gt;Node4</title>
<path fill="none" stroke="midnightblue" d="M756.392,-392.399C783.937,-382.283 820.671,-368.791 846.921,-359.149"/>
<polygon fill="midnightblue" stroke="midnightblue" points="848.247,-362.391 856.428,-355.658 845.834,-355.82 848.247,-362.391"/>
</g>
<!-- Node10 -->
<g id="node10" class="node"><title>Node10</title>
<g id="a_node10"><a xlink:href="../../dc/dc7/NamespaceSettings_8hpp.html" target="_top" xlink:title=" ">
<polygon fill="white" stroke="black" points="1032,-0.5 1032,-19.5 1156,-19.5 1156,-0.5 1032,-0.5"/>
<text text-anchor="middle" x="1094" y="-7.5" font-family="Helvetica,sans-Serif" font-size="10.00">NamespaceSettings.hpp</text>
</a>
</g>
</g>
<!-- Node3&#45;&gt;Node10 -->
<g id="edge32" class="edge"><title>Node3&#45;&gt;Node10</title>
<path fill="none" stroke="midnightblue" d="M778.704,-406.099C919.036,-403.533 1254,-387.322 1254,-291 1254,-291 1254,-291 1254,-121 1254,-66.241 1189.58,-36.6847 1142.49,-22.3953"/>
<polygon fill="midnightblue" stroke="midnightblue" points="1143.31,-18.99 1132.73,-19.5742 1141.37,-25.7145 1143.31,-18.99"/>
</g>
<!-- Node16 -->
<g id="node16" class="node"><title>Node16</title>
<g id="a_node16"><a xlink:title=" ">
<polygon fill="white" stroke="#bfbfbf" points="538.5,-56.5 538.5,-75.5 587.5,-75.5 587.5,-56.5 538.5,-56.5"/>
<text text-anchor="middle" x="563" y="-63.5" font-family="Helvetica,sans-Serif" font-size="10.00">stdint.h</text>
</a>
</g>
</g>
<!-- Node3&#45;&gt;Node16 -->
<g id="edge33" class="edge"><title>Node3&#45;&gt;Node16</title>
<path fill="none" stroke="midnightblue" d="M664.056,-392.371C616.93,-376.385 556,-345.23 556,-291 556,-291 556,-291 556,-177 556,-144.883 559.009,-107.598 561.081,-85.7258"/>
<polygon fill="midnightblue" stroke="midnightblue" points="564.587,-85.8412 562.085,-75.546 557.62,-85.1543 564.587,-85.8412"/>
</g>
<!-- Node4&#45;&gt;Node2 -->
<g id="edge5" class="edge"><title>Node4&#45;&gt;Node2</title>
<path fill="none" stroke="midnightblue" d="M886.946,-336.376C909.617,-308.044 982.976,-214.898 1035,-132 1054.3,-101.241 1089.62,-82.6954 1065,-56 1033.26,-21.5823 731.734,-13.4856 586.914,-11.5831"/>
<polygon fill="midnightblue" stroke="midnightblue" points="586.806,-8.08158 576.763,-11.4565 586.719,-15.081 586.806,-8.08158"/>
</g>
<!-- Node5 -->
<g id="node5" class="node"><title>Node5</title>
<g id="a_node5"><a xlink:href="../../d1/d93/Error_8hpp.html" target="_top" xlink:title=" ">
<polygon fill="white" stroke="black" points="1052,-280.5 1052,-299.5 1150,-299.5 1150,-280.5 1052,-280.5"/>
<text text-anchor="middle" x="1101" y="-287.5" font-family="Helvetica,sans-Serif" font-size="10.00">AH/Error/Error.hpp</text>
</a>
</g>
</g>
<!-- Node4&#45;&gt;Node5 -->
<g id="edge6" class="edge"><title>Node4&#45;&gt;Node5</title>
<path fill="none" stroke="midnightblue" d="M915.018,-336.444C953.248,-327.102 1014.57,-312.119 1056.26,-301.933"/>
<polygon fill="midnightblue" stroke="midnightblue" points="1057.26,-305.29 1066.15,-299.516 1055.6,-298.49 1057.26,-305.29"/>
</g>
<!-- Node15 -->
<g id="node15" class="node"><title>Node15</title>
<g id="a_node15"><a xlink:title=" ">
<polygon fill="white" stroke="#bfbfbf" points="606,-56.5 606,-75.5 658,-75.5 658,-56.5 606,-56.5"/>
<text text-anchor="middle" x="632" y="-63.5" font-family="Helvetica,sans-Serif" font-size="10.00">stddef.h</text>
</a>
</g>
</g>
<!-- Node4&#45;&gt;Node15 -->
<g id="edge31" class="edge"><title>Node4&#45;&gt;Node15</title>
<path fill="none" stroke="midnightblue" d="M816.777,-343.36C743.301,-337.693 632,-315.778 632,-235 632,-235 632,-235 632,-177 632,-144.948 632,-107.643 632,-85.7489"/>
<polygon fill="midnightblue" stroke="midnightblue" points="635.5,-85.5577 632,-75.5578 628.5,-85.5578 635.5,-85.5577"/>
</g>
<!-- Node19 -->
<g id="node19" class="node"><title>Node19</title>
<g id="a_node19"><a xlink:title=" ">
<polygon fill="white" stroke="#bfbfbf" points="948.5,-280.5 948.5,-299.5 1033.5,-299.5 1033.5,-280.5 948.5,-280.5"/>
<text text-anchor="middle" x="991" y="-287.5" font-family="Helvetica,sans-Serif" font-size="10.00">AH/STL/iterator</text>
</a>
</g>
</g>
<!-- Node4&#45;&gt;Node19 -->
<g id="edge29" class="edge"><title>Node4&#45;&gt;Node19</title>
<path fill="none" stroke="midnightblue" d="M897.834,-336.324C915.716,-327.625 943.475,-314.12 964.046,-304.113"/>
<polygon fill="midnightblue" stroke="midnightblue" points="965.749,-307.177 973.21,-299.655 962.687,-300.882 965.749,-307.177"/>
</g>
<!-- Node20 -->
<g id="node20" class="node"><title>Node20</title>
<g id="a_node20"><a xlink:title=" ">
<polygon fill="white" stroke="#bfbfbf" points="790.5,-280.5 790.5,-299.5 891.5,-299.5 891.5,-280.5 790.5,-280.5"/>
<text text-anchor="middle" x="841" y="-287.5" font-family="Helvetica,sans-Serif" font-size="10.00">AH/STL/type_traits</text>
</a>
</g>
</g>
<!-- Node4&#45;&gt;Node20 -->
<g id="edge30" class="edge"><title>Node4&#45;&gt;Node20</title>
<path fill="none" stroke="midnightblue" d="M873.56,-336.083C868.051,-328.455 859.969,-317.264 853.235,-307.941"/>
<polygon fill="midnightblue" stroke="midnightblue" points="856.013,-305.809 847.32,-299.751 850.338,-309.907 856.013,-305.809"/>
</g>
<!-- Node5&#45;&gt;Node2 -->
<g id="edge7" class="edge"><title>Node5&#45;&gt;Node2</title>
<path fill="none" stroke="midnightblue" d="M1106.42,-280.25C1117.14,-262.096 1140,-218.713 1140,-179 1140,-179 1140,-179 1140,-121 1140,-90.2048 1140.6,-74.529 1116,-56 1074.66,-24.8583 740.599,-15.0179 586.89,-12.1207"/>
<polygon fill="midnightblue" stroke="midnightblue" points="586.649,-8.61574 576.586,-11.9318 586.521,-15.6146 586.649,-8.61574"/>
</g>
<!-- Node6 -->
<g id="node6" class="node"><title>Node6</title>
<g id="a_node6"><a xlink:href="../../df/dee/Debug_8hpp.html" target="_top" xlink:title=" ">
<polygon fill="white" stroke="black" points="709.5,-224.5 709.5,-243.5 822.5,-243.5 822.5,-224.5 709.5,-224.5"/>
<text text-anchor="middle" x="766" y="-231.5" font-family="Helvetica,sans-Serif" font-size="10.00">AH/Debug/Debug.hpp</text>
</a>
</g>
</g>
<!-- Node5&#45;&gt;Node6 -->
<g id="edge8" class="edge"><title>Node5&#45;&gt;Node6</title>
<path fill="none" stroke="midnightblue" d="M1051.93,-281.09C992.845,-271.566 893.51,-255.554 828.863,-245.133"/>
<polygon fill="midnightblue" stroke="midnightblue" points="829.227,-241.647 818.797,-243.511 828.113,-248.557 829.227,-241.647"/>
</g>
<!-- Node6&#45;&gt;Node2 -->
<g id="edge9" class="edge"><title>Node6&#45;&gt;Node2</title>
<path fill="none" stroke="midnightblue" d="M765.752,-224.3C764.911,-210.664 761.393,-184.15 747,-168 677.033,-89.4891 598.967,-154.511 529,-76 517.643,-63.2565 513.057,-44.0607 511.214,-29.8301"/>
<polygon fill="midnightblue" stroke="midnightblue" points="514.682,-29.3225 510.248,-19.7001 507.714,-29.9874 514.682,-29.3225"/>
</g>
<!-- Node7 -->
<g id="node7" class="node"><title>Node7</title>
<g id="a_node7"><a xlink:href="../../dd/d80/PrintStream_8hpp.html" target="_top" xlink:title=" ">
<polygon fill="white" stroke="black" points="141.5,-56.5 141.5,-75.5 300.5,-75.5 300.5,-56.5 141.5,-56.5"/>
<text text-anchor="middle" x="221" y="-63.5" font-family="Helvetica,sans-Serif" font-size="10.00">AH/PrintStream/PrintStream.hpp</text>
</a>
</g>
</g>
<!-- Node6&#45;&gt;Node7 -->
<g id="edge10" class="edge"><title>Node6&#45;&gt;Node7</title>
<path fill="none" stroke="midnightblue" d="M737.846,-224.425C647.034,-196.764 361.786,-109.882 258.667,-78.473"/>
<polygon fill="midnightblue" stroke="midnightblue" points="259.572,-75.0897 248.986,-75.5241 257.532,-81.786 259.572,-75.0897"/>
</g>
<!-- Node9 -->
<g id="node9" class="node"><title>Node9</title>
<g id="a_node9"><a xlink:href="../../d2/dd5/SettingsWrapper_8hpp.html" target="_top" xlink:title=" ">
<polygon fill="white" stroke="black" points="800,-168.5 800,-187.5 964,-187.5 964,-168.5 800,-168.5"/>
<text text-anchor="middle" x="882" y="-175.5" font-family="Helvetica,sans-Serif" font-size="10.00">AH/Settings/SettingsWrapper.hpp</text>
</a>
</g>
</g>
<!-- Node6&#45;&gt;Node9 -->
<g id="edge13" class="edge"><title>Node6&#45;&gt;Node9</title>
<path fill="none" stroke="midnightblue" d="M779.523,-224.324C796.555,-215.507 825.862,-201.753 848.875,-191.707"/>
<polygon fill="midnightblue" stroke="midnightblue" points="850.495,-194.821 858.299,-187.655 847.729,-188.39 850.495,-194.821"/>
</g>
<!-- Node18 -->
<g id="node18" class="node"><title>Node18</title>
<g id="a_node18"><a xlink:href="../../d7/d52/DebugVal_8hpp.html" target="_top" xlink:title=" ">
<polygon fill="white" stroke="black" points="660,-168.5 660,-187.5 738,-187.5 738,-168.5 660,-168.5"/>
<text text-anchor="middle" x="699" y="-175.5" font-family="Helvetica,sans-Serif" font-size="10.00">DebugVal.hpp</text>
</a>
</g>
</g>
<!-- Node6&#45;&gt;Node18 -->
<g id="edge28" class="edge"><title>Node6&#45;&gt;Node18</title>
<path fill="none" stroke="midnightblue" d="M755.235,-224.324C745.234,-216.263 730.113,-204.077 718.07,-194.369"/>
<polygon fill="midnightblue" stroke="midnightblue" points="719.943,-191.384 709.961,-187.834 715.55,-196.834 719.943,-191.384"/>
</g>
<!-- Node7&#45;&gt;Node2 -->
<g id="edge11" class="edge"><title>Node7&#45;&gt;Node2</title>
<path fill="none" stroke="midnightblue" d="M266.793,-56.4435C317.737,-46.9246 400.034,-31.5472 454.574,-21.3563"/>
<polygon fill="midnightblue" stroke="midnightblue" points="455.234,-24.7937 464.421,-19.5164 453.949,-17.9128 455.234,-24.7937"/>
</g>
<!-- Node8 -->
<g id="node8" class="node"><title>Node8</title>
<g id="a_node8"><a xlink:title=" ">
<polygon fill="white" stroke="#bfbfbf" points="279,-0.5 279,-19.5 337,-19.5 337,-0.5 279,-0.5"/>
<text text-anchor="middle" x="308" y="-7.5" font-family="Helvetica,sans-Serif" font-size="10.00">Arduino.h</text>
</a>
</g>
</g>
<!-- Node7&#45;&gt;Node8 -->
<g id="edge12" class="edge"><title>Node7&#45;&gt;Node8</title>
<path fill="none" stroke="midnightblue" d="M234.978,-56.324C248.55,-47.9002 269.38,-34.9709 285.325,-25.0741"/>
<polygon fill="midnightblue" stroke="midnightblue" points="287.406,-27.9019 294.057,-19.6545 283.714,-21.9544 287.406,-27.9019"/>
</g>
<!-- Node9&#45;&gt;Node2 -->
<g id="edge14" class="edge"><title>Node9&#45;&gt;Node2</title>
<path fill="none" stroke="midnightblue" d="M912.822,-168.419C971.981,-150.54 1091.63,-106.721 1045,-56 1014.65,-22.9898 727.627,-14.1798 586.961,-11.8399"/>
<polygon fill="midnightblue" stroke="midnightblue" points="586.737,-8.33594 576.682,-11.6761 586.625,-15.3351 586.737,-8.33594"/>
</g>
<!-- Node9&#45;&gt;Node6 -->
<g id="edge27" class="edge"><title>Node9&#45;&gt;Node6</title>
<path fill="none" stroke="midnightblue" d="M868.785,-187.516C851.758,-196.349 822.13,-210.255 798.952,-220.368"/>
<polygon fill="midnightblue" stroke="midnightblue" points="797.275,-217.279 789.469,-224.444 800.039,-223.71 797.275,-217.279"/>
</g>
<!-- Node9&#45;&gt;Node10 -->
<g id="edge15" class="edge"><title>Node9&#45;&gt;Node10</title>
<path fill="none" stroke="midnightblue" d="M958.205,-168.488C1006.1,-161.502 1061.79,-149.817 1078,-132 1103.47,-104.013 1101.19,-56.1944 1097.48,-29.8295"/>
<polygon fill="midnightblue" stroke="midnightblue" points="1100.89,-28.9757 1095.83,-19.668 1093.98,-30.1005 1100.89,-28.9757"/>
</g>
<!-- Node11 -->
<g id="node11" class="node"><title>Node11</title>
<g id="a_node11"><a xlink:href="../../db/d02/Settings_8hpp.html" target="_top" xlink:title="All user settings and debugging options can be changed here.">
<polygon fill="white" stroke="black" points="714.5,-112.5 714.5,-131.5 785.5,-131.5 785.5,-112.5 714.5,-112.5"/>
<text text-anchor="middle" x="750" y="-119.5" font-family="Helvetica,sans-Serif" font-size="10.00">Settings.hpp</text>
</a>
</g>
</g>
<!-- Node9&#45;&gt;Node11 -->
<g id="edge16" class="edge"><title>Node9&#45;&gt;Node11</title>
<path fill="none" stroke="midnightblue" d="M861.084,-168.444C839.264,-159.517 804.85,-145.439 780.108,-135.317"/>
<polygon fill="midnightblue" stroke="midnightblue" points="781.399,-132.063 770.818,-131.516 778.748,-138.542 781.399,-132.063"/>
</g>
<!-- Node17 -->
<g id="node17" class="node"><title>Node17</title>
<g id="a_node17"><a xlink:href="../../d9/d98/TeensyUSBTypes_8hpp.html" target="_top" xlink:title=" ">
<polygon fill="white" stroke="black" points="804,-112.5 804,-131.5 972,-131.5 972,-112.5 804,-112.5"/>
<text text-anchor="middle" x="888" y="-119.5" font-family="Helvetica,sans-Serif" font-size="10.00">AH/Teensy/TeensyUSBTypes.hpp</text>
</a>
</g>
</g>
<!-- Node9&#45;&gt;Node17 -->
<g id="edge26" class="edge"><title>Node9&#45;&gt;Node17</title>
<path fill="none" stroke="midnightblue" d="M882.991,-168.083C883.786,-160.927 884.929,-150.635 885.923,-141.691"/>
<polygon fill="midnightblue" stroke="midnightblue" points="889.402,-142.076 887.028,-131.751 882.445,-141.303 889.402,-142.076"/>
</g>
<!-- Node12 -->
<g id="node12" class="node"><title>Node12</title>
<g id="a_node12"><a xlink:href="../../dc/d50/Frequency_8hpp.html" target="_top" xlink:title=" ">
<polygon fill="white" stroke="black" points="908,-56.5 908,-75.5 1036,-75.5 1036,-56.5 908,-56.5"/>
<text text-anchor="middle" x="972" y="-63.5" font-family="Helvetica,sans-Serif" font-size="10.00">AH/Types/Frequency.hpp</text>
</a>
</g>
</g>
<!-- Node11&#45;&gt;Node12 -->
<g id="edge17" class="edge"><title>Node11&#45;&gt;Node12</title>
<path fill="none" stroke="midnightblue" d="M785.177,-112.444C823.579,-103.102 885.176,-88.1194 927.055,-77.9326"/>
<polygon fill="midnightblue" stroke="midnightblue" points="928.099,-81.2809 936.988,-75.5164 926.444,-74.4792 928.099,-81.2809"/>
</g>
<!-- Node13 -->
<g id="node13" class="node"><title>Node13</title>
<g id="a_node13"><a xlink:href="../../d7/d7c/ADCConfig_8hpp.html" target="_top" xlink:title="This file contains the platform&#45;specific ADC resolutions. By default, the library automatically selec...">
<polygon fill="white" stroke="black" points="676,-56.5 676,-75.5 824,-75.5 824,-56.5 676,-56.5"/>
<text text-anchor="middle" x="750" y="-63.5" font-family="Helvetica,sans-Serif" font-size="10.00">AH/Hardware/ADCConfig.hpp</text>
</a>
</g>
</g>
<!-- Node11&#45;&gt;Node13 -->
<g id="edge20" class="edge"><title>Node11&#45;&gt;Node13</title>
<path fill="none" stroke="midnightblue" d="M750,-112.083C750,-105.006 750,-94.8611 750,-85.9865"/>
<polygon fill="midnightblue" stroke="midnightblue" points="753.5,-85.751 750,-75.7511 746.5,-85.7511 753.5,-85.751"/>
</g>
<!-- Node14 -->
<g id="node14" class="node"><title>Node14</title>
<g id="a_node14"><a xlink:title=" ">
<polygon fill="white" stroke="#bfbfbf" points="842,-56.5 842,-75.5 890,-75.5 890,-56.5 842,-56.5"/>
<text text-anchor="middle" x="866" y="-63.5" font-family="Helvetica,sans-Serif" font-size="10.00">limits.h</text>
</a>
</g>
</g>
<!-- Node11&#45;&gt;Node14 -->
<g id="edge23" class="edge"><title>Node11&#45;&gt;Node14</title>
<path fill="none" stroke="midnightblue" d="M768.381,-112.444C787.216,-103.675 816.731,-89.9355 838.379,-79.8579"/>
<polygon fill="midnightblue" stroke="midnightblue" points="840.117,-82.9098 847.705,-75.5164 837.162,-76.5637 840.117,-82.9098"/>
</g>
<!-- Node11&#45;&gt;Node15 -->
<g id="edge24" class="edge"><title>Node11&#45;&gt;Node15</title>
<path fill="none" stroke="midnightblue" d="M731.303,-112.444C712.056,-103.636 681.848,-89.8116 659.8,-79.722"/>
<polygon fill="midnightblue" stroke="midnightblue" points="661.16,-76.4951 650.61,-75.5164 658.247,-82.8603 661.16,-76.4951"/>
</g>
<!-- Node11&#45;&gt;Node16 -->
<g id="edge25" class="edge"><title>Node11&#45;&gt;Node16</title>
<path fill="none" stroke="midnightblue" d="M720.369,-112.444C687,-102.808 632.841,-87.168 597.569,-76.9826"/>
<polygon fill="midnightblue" stroke="midnightblue" points="598.293,-73.5486 587.715,-74.1368 596.351,-80.2738 598.293,-73.5486"/>
</g>
<!-- Node12&#45;&gt;Node2 -->
<g id="edge18" class="edge"><title>Node12&#45;&gt;Node2</title>
<path fill="none" stroke="midnightblue" d="M907.909,-57.0708C904.898,-56.7069 901.916,-56.3484 899,-56 790.788,-43.0705 665.568,-28.6887 587.071,-19.7432"/>
<polygon fill="midnightblue" stroke="midnightblue" points="587.118,-16.226 576.786,-18.5718 586.326,-23.1811 587.118,-16.226"/>
</g>
<!-- Node12&#45;&gt;Node10 -->
<g id="edge19" class="edge"><title>Node12&#45;&gt;Node10</title>
<path fill="none" stroke="midnightblue" d="M991.331,-56.4435C1011.32,-47.5961 1042.74,-33.6875 1065.56,-23.5865"/>
<polygon fill="midnightblue" stroke="midnightblue" points="1067.03,-26.7645 1074.76,-19.5164 1064.2,-20.3635 1067.03,-26.7645"/>
</g>
<!-- Node13&#45;&gt;Node2 -->
<g id="edge21" class="edge"><title>Node13&#45;&gt;Node2</title>
<path fill="none" stroke="midnightblue" d="M711.971,-56.4435C670.192,-47.0431 603.018,-31.9291 557.73,-21.7393"/>
<polygon fill="midnightblue" stroke="midnightblue" points="558.375,-18.297 547.851,-19.5164 556.839,-25.1263 558.375,-18.297"/>
</g>
<!-- Node13&#45;&gt;Node8 -->
<g id="edge22" class="edge"><title>Node13&#45;&gt;Node8</title>
<path fill="none" stroke="midnightblue" d="M679.964,-56.4435C585.999,-44.9637 422.289,-24.963 347.413,-15.8151"/>
<polygon fill="midnightblue" stroke="midnightblue" points="347.38,-12.2851 337.029,-14.5465 346.531,-19.2335 347.38,-12.2851"/>
</g>
<!-- Node21&#45;&gt;Node1 -->
<g id="edge35" class="edge"><title>Node21&#45;&gt;Node1</title>
<path fill="none" stroke="midnightblue" d="M174.131,-601.751C175.657,-608.858 176.104,-619.136 175.472,-628.101"/>
<polygon fill="midnightblue" stroke="midnightblue" points="171.993,-627.713 174.166,-638.083 178.934,-628.622 171.993,-627.713"/>
</g>
<!-- Node22 -->
<g id="node22" class="node"><title>Node22</title>
<g id="a_node22"><a xlink:href="../../dd/ddf/ExtendedInputOutput_8hpp.html" target="_top" xlink:title=" ">
<polygon fill="white" stroke="black" points="28,-515.5 28,-545.5 188,-545.5 188,-515.5 28,-515.5"/>
<text text-anchor="start" x="36" y="-533.5" font-family="Helvetica,sans-Serif" font-size="10.00">AH/Hardware/ExtendedInput</text>
<text text-anchor="middle" x="108" y="-522.5" font-family="Helvetica,sans-Serif" font-size="10.00">Output/ExtendedInputOutput.hpp</text>
</a>
</g>
</g>
<!-- Node21&#45;&gt;Node22 -->
<g id="edge36" class="edge"><title>Node21&#45;&gt;Node22</title>
<path fill="none" stroke="midnightblue" d="M160.26,-582.475C152.307,-574.718 140.236,-562.943 129.698,-552.665"/>
<polygon fill="midnightblue" stroke="midnightblue" points="131.979,-550 122.376,-545.523 127.091,-555.011 131.979,-550"/>
</g>
<!-- Node28 -->
<g id="node28" class="node"><title>Node28</title>
<g id="a_node28"><a xlink:title=" ">
<polygon fill="white" stroke="#bfbfbf" points="206.5,-521 206.5,-540 255.5,-540 255.5,-521 206.5,-521"/>
<text text-anchor="middle" x="231" y="-528" font-family="Helvetica,sans-Serif" font-size="10.00">string.h</text>
</a>
</g>
</g>
<!-- Node21&#45;&gt;Node28 -->
<g id="edge51" class="edge"><title>Node21&#45;&gt;Node28</title>
<path fill="none" stroke="midnightblue" d="M177.883,-582.475C187.459,-573.285 202.911,-558.456 214.686,-547.156"/>
<polygon fill="midnightblue" stroke="midnightblue" points="217.342,-549.458 222.133,-540.009 212.495,-544.408 217.342,-549.458"/>
</g>
<!-- Node22&#45;&gt;Node2 -->
<g id="edge37" class="edge"><title>Node22&#45;&gt;Node2</title>
<path fill="none" stroke="midnightblue" d="M101.678,-515.294C92.3521,-493.009 76,-448.264 76,-408.5 76,-408.5 76,-408.5 76,-121 76,-87.5366 85.9626,-74.2676 114,-56 140.115,-38.9849 325.652,-23.6285 433.252,-16.0254"/>
<polygon fill="midnightblue" stroke="midnightblue" points="433.683,-19.5039 443.414,-15.314 433.194,-12.521 433.683,-19.5039"/>
</g>
<!-- Node22&#45;&gt;Node8 -->
<g id="edge38" class="edge"><title>Node22&#45;&gt;Node8</title>
<path fill="none" stroke="midnightblue" d="M92.1219,-515.347C82.3057,-505.878 70.0811,-492.683 62,-479 45.1686,-450.5 38,-441.599 38,-408.5 38,-408.5 38,-408.5 38,-233 38,-153.613 7.17553,-113.415 62,-56 89.7772,-26.9102 206.207,-16.3562 268.413,-12.7451"/>
<polygon fill="midnightblue" stroke="midnightblue" points="268.843,-16.2269 278.637,-12.1859 268.461,-9.23737 268.843,-16.2269"/>
</g>
<!-- Node23 -->
<g id="node23" class="node"><title>Node23</title>
<g id="a_node23"><a xlink:href="../../d4/d57/ExtendedIOElement_8hpp.html" target="_top" xlink:title=" ">
<polygon fill="white" stroke="black" points="161.5,-459.5 161.5,-478.5 284.5,-478.5 284.5,-459.5 161.5,-459.5"/>
<text text-anchor="middle" x="223" y="-466.5" font-family="Helvetica,sans-Serif" font-size="10.00">ExtendedIOElement.hpp</text>
</a>
</g>
</g>
<!-- Node22&#45;&gt;Node23 -->
<g id="edge39" class="edge"><title>Node22&#45;&gt;Node23</title>
<path fill="none" stroke="midnightblue" d="M135.253,-515.399C154.032,-505.684 178.826,-492.855 197.268,-483.314"/>
<polygon fill="midnightblue" stroke="midnightblue" points="198.993,-486.362 206.266,-478.658 195.776,-480.145 198.993,-486.362"/>
</g>
<!-- Node23&#45;&gt;Node2 -->
<g id="edge40" class="edge"><title>Node23&#45;&gt;Node2</title>
<path fill="none" stroke="midnightblue" d="M205.969,-459.272C175.312,-442.205 114,-401.285 114,-347 114,-347 114,-347 114,-121 114,-91.0239 109.259,-75.5296 132,-56 154.381,-36.78 329.429,-22.4797 433.292,-15.5863"/>
<polygon fill="midnightblue" stroke="midnightblue" points="433.674,-19.069 443.423,-14.9224 433.216,-12.0839 433.674,-19.069"/>
</g>
<!-- Node23&#45;&gt;Node3 -->
<g id="edge41" class="edge"><title>Node23&#45;&gt;Node3</title>
<path fill="none" stroke="midnightblue" d="M284.691,-460.585C376.93,-449.497 550.309,-428.657 647.452,-416.98"/>
<polygon fill="midnightblue" stroke="midnightblue" points="647.962,-420.444 657.473,-415.776 647.126,-413.494 647.962,-420.444"/>
</g>
<!-- Node24 -->
<g id="node24" class="node"><title>Node24</title>
<g id="a_node24"><a xlink:href="../../de/dd1/LinkedList_8hpp.html" target="_top" xlink:title=" ">
<polygon fill="white" stroke="black" points="328.5,-280.5 328.5,-299.5 475.5,-299.5 475.5,-280.5 328.5,-280.5"/>
<text text-anchor="middle" x="402" y="-287.5" font-family="Helvetica,sans-Serif" font-size="10.00">AH/Containers/LinkedList.hpp</text>
</a>
</g>
</g>
<!-- Node23&#45;&gt;Node24 -->
<g id="edge42" class="edge"><title>Node23&#45;&gt;Node24</title>
<path fill="none" stroke="midnightblue" d="M231.634,-459.463C259.681,-431.729 348.556,-343.846 385.572,-307.245"/>
<polygon fill="midnightblue" stroke="midnightblue" points="388.382,-309.388 393.031,-299.868 383.46,-304.411 388.382,-309.388"/>
</g>
<!-- Node24&#45;&gt;Node2 -->
<g id="edge43" class="edge"><title>Node24&#45;&gt;Node2</title>
<path fill="none" stroke="midnightblue" d="M390.761,-280.364C370.06,-263.385 328,-223.422 328,-179 328,-179 328,-179 328,-121 328,-90.9022 325.558,-77.1219 347,-56 369.83,-33.5106 402.827,-22.0184 433.17,-16.234"/>
<polygon fill="midnightblue" stroke="midnightblue" points="434.079,-19.6292 443.34,-14.4835 432.891,-12.7306 434.079,-19.6292"/>
</g>
<!-- Node24&#45;&gt;Node6 -->
<g id="edge44" class="edge"><title>Node24&#45;&gt;Node6</title>
<path fill="none" stroke="midnightblue" d="M459.677,-280.444C524.793,-270.783 630.58,-255.09 699.224,-244.906"/>
<polygon fill="midnightblue" stroke="midnightblue" points="700.113,-248.313 709.491,-243.383 699.085,-241.389 700.113,-248.313"/>
</g>
<!-- Node25 -->
<g id="node25" class="node"><title>Node25</title>
<g id="a_node25"><a xlink:href="../../d7/d79/MinMaxFix_8hpp.html" target="_top" xlink:title=" ">
<polygon fill="white" stroke="black" points="356.5,-56.5 356.5,-75.5 481.5,-75.5 481.5,-56.5 356.5,-56.5"/>
<text text-anchor="middle" x="419" y="-63.5" font-family="Helvetica,sans-Serif" font-size="10.00">AH/Math/MinMaxFix.hpp</text>
</a>
</g>
</g>
<!-- Node24&#45;&gt;Node25 -->
<g id="edge45" class="edge"><title>Node24&#45;&gt;Node25</title>
<path fill="none" stroke="midnightblue" d="M400.261,-280.419C398.528,-271.399 395.987,-256.77 395,-244 390.51,-185.92 405.532,-117.771 413.849,-85.6037"/>
<polygon fill="midnightblue" stroke="midnightblue" points="417.268,-86.3664 416.468,-75.8018 410.505,-84.5594 417.268,-86.3664"/>
</g>
<!-- Node26 -->
<g id="node26" class="node"><title>Node26</title>
<g id="a_node26"><a xlink:title=" ">
<polygon fill="white" stroke="#bfbfbf" points="404,-224.5 404,-243.5 452,-243.5 452,-224.5 404,-224.5"/>
<text text-anchor="middle" x="428" y="-231.5" font-family="Helvetica,sans-Serif" font-size="10.00">stdlib.h</text>
</a>
</g>
</g>
<!-- Node24&#45;&gt;Node26 -->
<g id="edge49" class="edge"><title>Node24&#45;&gt;Node26</title>
<path fill="none" stroke="midnightblue" d="M406.293,-280.083C409.852,-272.691 415.022,-261.953 419.424,-252.811"/>
<polygon fill="midnightblue" stroke="midnightblue" points="422.602,-254.279 423.787,-243.751 416.295,-251.243 422.602,-254.279"/>
</g>
<!-- Node27 -->
<g id="node27" class="node"><title>Node27</title>
<g id="a_node27"><a xlink:title=" ">
<polygon fill="white" stroke="#bfbfbf" points="470.5,-224.5 470.5,-243.5 517.5,-243.5 517.5,-224.5 470.5,-224.5"/>
<text text-anchor="middle" x="494" y="-231.5" font-family="Helvetica,sans-Serif" font-size="10.00">iterator</text>
</a>
</g>
</g>
<!-- Node24&#45;&gt;Node27 -->
<g id="edge50" class="edge"><title>Node24&#45;&gt;Node27</title>
<path fill="none" stroke="midnightblue" d="M416.781,-280.324C431.267,-271.822 453.573,-258.729 470.493,-248.797"/>
<polygon fill="midnightblue" stroke="midnightblue" points="472.403,-251.735 479.255,-243.655 468.859,-245.698 472.403,-251.735"/>
</g>
<!-- Node25&#45;&gt;Node2 -->
<g id="edge46" class="edge"><title>Node25&#45;&gt;Node2</title>
<path fill="none" stroke="midnightblue" d="M433.621,-56.324C447.949,-47.8215 470.013,-34.7288 486.749,-24.7975"/>
<polygon fill="midnightblue" stroke="midnightblue" points="488.602,-27.7677 495.416,-19.6545 485.03,-21.7478 488.602,-27.7677"/>
</g>
<!-- Node25&#45;&gt;Node8 -->
<g id="edge47" class="edge"><title>Node25&#45;&gt;Node8</title>
<path fill="none" stroke="midnightblue" d="M401.166,-56.324C383.284,-47.6247 355.525,-34.1202 334.954,-24.113"/>
<polygon fill="midnightblue" stroke="midnightblue" points="336.313,-20.8819 325.79,-19.6545 333.251,-27.1765 336.313,-20.8819"/>
</g>
<!-- Node25&#45;&gt;Node10 -->
<g id="edge48" class="edge"><title>Node25&#45;&gt;Node10</title>
<path fill="none" stroke="midnightblue" d="M481.533,-59.8601C497.043,-58.5918 513.625,-57.2412 529,-56 705.969,-41.713 914.144,-25.2114 1021.63,-16.7139"/>
<polygon fill="midnightblue" stroke="midnightblue" points="1022.02,-20.1941 1031.71,-15.9169 1021.47,-13.2159 1022.02,-20.1941"/>
</g>
</g>
</svg>
