<?xml version="1.0" encoding="UTF-8" standalone="no"?>
<!DOCTYPE svg PUBLIC "-//W3C//DTD SVG 1.1//EN"
 "http://www.w3.org/Graphics/SVG/1.1/DTD/svg11.dtd">
<!-- Generated by graphviz version 2.43.0 (0)
 -->
<!-- Title: VPotMatcher Pages: 1 -->
<svg width="144pt" height="590pt"
 viewBox="0.00 0.00 144.00 590.00" xmlns="http://www.w3.org/2000/svg" xmlns:xlink="http://www.w3.org/1999/xlink">
<g id="graph0" class="graph" transform="scale(1 1) rotate(0) translate(4 586)">
<title>VPotMatcher</title>
<!-- Node1 -->
<g id="Node000001" class="node">
<title>Node1</title>
<g id="a_Node000001"><a xlink:title="MIDI Input matcher for Mackie Control Universal VPot LED rings.">
<polygon fill="#999999" stroke="transparent" points="113.5,-49 22.5,-49 22.5,0 113.5,0 113.5,-49"/>
<text text-anchor="start" x="37" y="-36.5" font-family="Helvetica,sans-Serif" font-size="10.00">VPotMatcher</text>
<text text-anchor="start" x="66.5" y="-21.5" font-family="Helvetica,sans-Serif" font-size="10.00"> </text>
<text text-anchor="start" x="27" y="-6.5" font-family="Helvetica,sans-Serif" font-size="10.00">+</text>
<text text-anchor="start" x="40" y="-6.5" font-family="Helvetica,sans-Serif" font-size="10.00">VPotMatcher()</text>
<polygon fill="#666666" stroke="#666666" points="23,-31.5 23,-31.5 114,-31.5 114,-31.5 23,-31.5"/>
<polygon fill="#666666" stroke="#666666" points="23,-16.5 23,-16.5 114,-16.5 114,-16.5 23,-16.5"/>
<polygon fill="none" stroke="#666666" points="22.5,0 22.5,-49 113.5,-49 113.5,0 22.5,0"/>
</a>
</g>
</g>
<!-- Node2 -->
<g id="Node000002" class="node">
<title>Node2</title>
<g id="a_Node000002"><a xlink:href="../../d8/d6b/structTwoByteMIDIMatcher.html" target="_top" xlink:title="Matcher for MIDI messages with 2 data bytes, such as Note On/Off, Control Change, Key Pressure (but n...">
<polygon fill="white" stroke="transparent" points="134.5,-150 1.5,-150 1.5,-86 134.5,-86 134.5,-150"/>
<text text-anchor="start" x="16.5" y="-138" font-family="Helvetica,sans-Serif" font-size="10.00">TwoByteMIDIMatcher</text>
<text text-anchor="start" x="66.5" y="-123" font-family="Helvetica,sans-Serif" font-size="10.00"> </text>
<text text-anchor="start" x="6" y="-108" font-family="Helvetica,sans-Serif" font-size="10.00">+</text>
<text text-anchor="start" x="19" y="-108" font-family="Helvetica,sans-Serif" font-size="10.00">TwoByteMIDIMatcher()</text>
<text text-anchor="start" x="6" y="-93" font-family="Helvetica,sans-Serif" font-size="10.00">+</text>
<text text-anchor="start" x="19" y="-93" font-family="Helvetica,sans-Serif" font-size="10.00">operator()()</text>
<polygon fill="#666666" stroke="#666666" points="2,-133 2,-133 135,-133 135,-133 2,-133"/>
<polygon fill="#666666" stroke="#666666" points="2,-118 2,-118 135,-118 135,-118 2,-118"/>
<polygon fill="none" stroke="#666666" points="1.5,-86 1.5,-150 134.5,-150 134.5,-86 1.5,-86"/>
</a>
</g>
</g>
<!-- Node2&#45;&gt;Node1 -->
<g id="edge1_Node000001_Node000002" class="edge">
<title>Node2&#45;&gt;Node1</title>
<g id="a_edge1_Node000001_Node000002"><a xlink:title=" ">
<path fill="none" stroke="#63b8ff" d="M68,-75.66C68,-66.55 68,-57.2 68,-49.08"/>
<polygon fill="none" stroke="#63b8ff" points="64.5,-75.77 68,-85.77 71.5,-75.77 64.5,-75.77"/>
</a>
</g>
</g>
<!-- Node3 -->
<g id="Node000003" class="node">
<title>Node3</title>
<g id="a_Node000003"><a xlink:href="../../d7/d0f/classMIDIAddress.html" target="_top" xlink:title="A type&#45;safe utility class for saving a MIDI address consisting of a 7&#45;bit address,...">
<polygon fill="white" stroke="transparent" points="136,-582 0,-582 0,-203 136,-203 136,-582"/>
<text text-anchor="start" x="37" y="-569.5" font-family="Helvetica,sans-Serif" font-size="10.00">MIDIAddress</text>
<text text-anchor="start" x="5" y="-554.5" font-family="Helvetica,sans-Serif" font-size="10.00">&#45;</text>
<text text-anchor="start" x="14" y="-554.5" font-family="Helvetica,sans-Serif" font-size="10.00">addresses</text>
<text text-anchor="start" x="4" y="-539.5" font-family="Helvetica,sans-Serif" font-size="10.00">*</text>
<text text-anchor="start" x="14" y="-539.5" font-family="Helvetica,sans-Serif" font-size="10.00">MIDIAddress()</text>
<text text-anchor="start" x="4" y="-524.5" font-family="Helvetica,sans-Serif" font-size="10.00">*</text>
<text text-anchor="start" x="14" y="-524.5" font-family="Helvetica,sans-Serif" font-size="10.00">MIDIAddress()</text>
<text text-anchor="start" x="4" y="-509.5" font-family="Helvetica,sans-Serif" font-size="10.00">*</text>
<text text-anchor="start" x="14" y="-509.5" font-family="Helvetica,sans-Serif" font-size="10.00">MIDIAddress()</text>
<text text-anchor="start" x="4" y="-494.5" font-family="Helvetica,sans-Serif" font-size="10.00">*</text>
<text text-anchor="start" x="14" y="-494.5" font-family="Helvetica,sans-Serif" font-size="10.00">MIDIAddress()</text>
<text text-anchor="start" x="4" y="-479.5" font-family="Helvetica,sans-Serif" font-size="10.00">*</text>
<text text-anchor="start" x="14" y="-479.5" font-family="Helvetica,sans-Serif" font-size="10.00">MIDIAddress()</text>
<text text-anchor="start" x="4" y="-464.5" font-family="Helvetica,sans-Serif" font-size="10.00">*</text>
<text text-anchor="start" x="14" y="-464.5" font-family="Helvetica,sans-Serif" font-size="10.00">MIDIAddress()</text>
<text text-anchor="start" x="4" y="-449.5" font-family="Helvetica,sans-Serif" font-size="10.00">*</text>
<text text-anchor="start" x="14" y="-449.5" font-family="Helvetica,sans-Serif" font-size="10.00">invalid()</text>
<text text-anchor="start" x="4" y="-434.5" font-family="Helvetica,sans-Serif" font-size="10.00">*</text>
<text text-anchor="start" x="14" y="-434.5" font-family="Helvetica,sans-Serif" font-size="10.00">operator+=()</text>
<text text-anchor="start" x="4" y="-419.5" font-family="Helvetica,sans-Serif" font-size="10.00">*</text>
<text text-anchor="start" x="14" y="-419.5" font-family="Helvetica,sans-Serif" font-size="10.00">operator&#45;=()</text>
<text text-anchor="start" x="4" y="-404.5" font-family="Helvetica,sans-Serif" font-size="10.00">*</text>
<text text-anchor="start" x="14" y="-404.5" font-family="Helvetica,sans-Serif" font-size="10.00">operator+()</text>
<text text-anchor="start" x="4" y="-389.5" font-family="Helvetica,sans-Serif" font-size="10.00">*</text>
<text text-anchor="start" x="14" y="-389.5" font-family="Helvetica,sans-Serif" font-size="10.00">operator&#45;()</text>
<text text-anchor="start" x="4" y="-374.5" font-family="Helvetica,sans-Serif" font-size="10.00">*</text>
<text text-anchor="start" x="14" y="-374.5" font-family="Helvetica,sans-Serif" font-size="10.00">getAddress()</text>
<text text-anchor="start" x="4" y="-359.5" font-family="Helvetica,sans-Serif" font-size="10.00">*</text>
<text text-anchor="start" x="14" y="-359.5" font-family="Helvetica,sans-Serif" font-size="10.00">getChannel()</text>
<text text-anchor="start" x="4" y="-344.5" font-family="Helvetica,sans-Serif" font-size="10.00">*</text>
<text text-anchor="start" x="14" y="-344.5" font-family="Helvetica,sans-Serif" font-size="10.00">getRawChannel()</text>
<text text-anchor="start" x="4" y="-329.5" font-family="Helvetica,sans-Serif" font-size="10.00">*</text>
<text text-anchor="start" x="14" y="-329.5" font-family="Helvetica,sans-Serif" font-size="10.00">getCableNumber()</text>
<text text-anchor="start" x="4" y="-314.5" font-family="Helvetica,sans-Serif" font-size="10.00">*</text>
<text text-anchor="start" x="14" y="-314.5" font-family="Helvetica,sans-Serif" font-size="10.00">getRawCableNumber()</text>
<text text-anchor="start" x="4" y="-299.5" font-family="Helvetica,sans-Serif" font-size="10.00">*</text>
<text text-anchor="start" x="14" y="-299.5" font-family="Helvetica,sans-Serif" font-size="10.00">getChannelCable()</text>
<text text-anchor="start" x="4" y="-284.5" font-family="Helvetica,sans-Serif" font-size="10.00">*</text>
<text text-anchor="start" x="14" y="-284.5" font-family="Helvetica,sans-Serif" font-size="10.00">operator==()</text>
<text text-anchor="start" x="4" y="-269.5" font-family="Helvetica,sans-Serif" font-size="10.00">*</text>
<text text-anchor="start" x="14" y="-269.5" font-family="Helvetica,sans-Serif" font-size="10.00">operator!=()</text>
<text text-anchor="start" x="4" y="-254.5" font-family="Helvetica,sans-Serif" font-size="10.00">*</text>
<text text-anchor="start" x="14" y="-254.5" font-family="Helvetica,sans-Serif" font-size="10.00">isValid()</text>
<text text-anchor="start" x="4" y="-239.5" font-family="Helvetica,sans-Serif" font-size="10.00">*</text>
<text text-anchor="start" x="14" y="-239.5" font-family="Helvetica,sans-Serif" font-size="10.00">operator bool()</text>
<text text-anchor="start" x="4" y="-224.5" font-family="Helvetica,sans-Serif" font-size="10.00">*</text>
<text text-anchor="start" x="14" y="-224.5" font-family="Helvetica,sans-Serif" font-size="10.00">matchSingle()</text>
<text text-anchor="start" x="4" y="-209.5" font-family="Helvetica,sans-Serif" font-size="10.00">*</text>
<text text-anchor="start" x="14" y="-209.5" font-family="Helvetica,sans-Serif" font-size="10.00">matchAddressInRange()</text>
<polygon fill="#666666" stroke="#666666" points="0,-564.5 0,-564.5 136,-564.5 136,-564.5 0,-564.5"/>
<polygon fill="#666666" stroke="#666666" points="0,-549.5 0,-549.5 12,-549.5 12,-549.5 0,-549.5"/>
<polygon fill="#666666" stroke="#666666" points="12,-549.5 12,-549.5 136,-549.5 136,-549.5 12,-549.5"/>
<polygon fill="none" stroke="#666666" points="0,-203 0,-582 136,-582 136,-203 0,-203"/>
</a>
</g>
</g>
<!-- Node3&#45;&gt;Node2 -->
<g id="edge2_Node000002_Node000003" class="edge">
<title>Node3&#45;&gt;Node2</title>
<g id="a_edge2_Node000002_Node000003"><a xlink:title=" ">
<path fill="none" stroke="#63b8ff" d="M68,-202.98C68,-188.2 68,-174.38 68,-162.4"/>
<polygon fill="none" stroke="#63b8ff" points="68,-162.15 64,-156.15 68,-150.15 72,-156.15 68,-162.15"/>
</a>
</g>
<text text-anchor="start" x="71.5" y="-173.5" font-family="Helvetica,sans-Serif" font-size="10.00" fill="grey">+address</text>
</g>
</g>
</svg>
