<?xml version="1.0" encoding="UTF-8" standalone="no"?>
<!DOCTYPE svg PUBLIC "-//W3C//DTD SVG 1.1//EN"
 "http://www.w3.org/Graphics/SVG/1.1/DTD/svg11.dtd">
<!-- Generated by graphviz version 2.43.0 (0)
 -->
<!-- Title: SwitchSelectorLED Pages: 1 -->
<svg width="884pt" height="1321pt"
 viewBox="0.00 0.00 884.00 1321.00" xmlns="http://www.w3.org/2000/svg" xmlns:xlink="http://www.w3.org/1999/xlink">
<g id="graph0" class="graph" transform="scale(1 1) rotate(0) translate(4 1317)">
<title>SwitchSelectorLED</title>
<!-- Node1 -->
<g id="Node000001" class="node">
<title>Node1</title>
<g id="a_Node000001"><a xlink:title="Selector that selects one of two settings, based on the state of a toggle or momentary switch....">
<polygon fill="#999999" stroke="transparent" points="191,-49 71,-49 71,0 191,0 191,-49"/>
<text text-anchor="start" x="85.5" y="-36.5" font-family="Helvetica,sans-Serif" font-size="10.00">SwitchSelectorLED</text>
<text text-anchor="start" x="129" y="-21.5" font-family="Helvetica,sans-Serif" font-size="10.00"> </text>
<text text-anchor="start" x="75" y="-6.5" font-family="Helvetica,sans-Serif" font-size="10.00">+</text>
<text text-anchor="start" x="88" y="-6.5" font-family="Helvetica,sans-Serif" font-size="10.00">SwitchSelectorLED()</text>
<polygon fill="#666666" stroke="#666666" points="71,-31.5 71,-31.5 191,-31.5 191,-31.5 71,-31.5"/>
<polygon fill="#666666" stroke="#666666" points="71,-16.5 71,-16.5 191,-16.5 191,-16.5 71,-16.5"/>
<polygon fill="none" stroke="#666666" points="71,0 71,-49 191,-49 191,0 71,0"/>
</a>
</g>
</g>
<!-- Node2 -->
<g id="Node000002" class="node">
<title>Node2</title>
<g id="a_Node000002"><a xlink:href="../../d2/d1c/classGenericSwitchSelector.html" target="_top" xlink:title=" ">
<polygon fill="white" stroke="transparent" points="213,-446 49,-446 49,-86 213,-86 213,-446"/>
<text text-anchor="start" x="54" y="-434" font-family="Helvetica,sans-Serif" font-size="10.00">GenericSwitchSelector</text>
<text text-anchor="start" x="54" y="-423" font-family="Helvetica,sans-Serif" font-size="10.00">&lt; SelectorSingleLEDCallback &gt;</text>
<text text-anchor="start" x="59" y="-408" font-family="Helvetica,sans-Serif" font-size="10.00">+</text>
<text text-anchor="start" x="78" y="-408" font-family="Helvetica,sans-Serif" font-size="10.00">callback</text>
<text text-anchor="start" x="59" y="-393" font-family="Helvetica,sans-Serif" font-size="10.00">#</text>
<text text-anchor="start" x="78" y="-393" font-family="Helvetica,sans-Serif" font-size="10.00">setting</text>
<text text-anchor="start" x="59" y="-378" font-family="Helvetica,sans-Serif" font-size="10.00">#</text>
<text text-anchor="start" x="78" y="-378" font-family="Helvetica,sans-Serif" font-size="10.00">next</text>
<text text-anchor="start" x="59" y="-363" font-family="Helvetica,sans-Serif" font-size="10.00">#</text>
<text text-anchor="start" x="78" y="-363" font-family="Helvetica,sans-Serif" font-size="10.00">previous</text>
<text text-anchor="start" x="59" y="-348" font-family="Helvetica,sans-Serif" font-size="10.00">#</text>
<text text-anchor="start" x="78" y="-348" font-family="Helvetica,sans-Serif" font-size="10.00">updatables</text>
<text text-anchor="start" x="61.5" y="-333" font-family="Helvetica,sans-Serif" font-size="10.00">&#45;</text>
<text text-anchor="start" x="78" y="-333" font-family="Helvetica,sans-Serif" font-size="10.00">selectable</text>
<text text-anchor="start" x="59" y="-318" font-family="Helvetica,sans-Serif" font-size="10.00">+</text>
<text text-anchor="start" x="78" y="-318" font-family="Helvetica,sans-Serif" font-size="10.00">GenericSwitchSelector()</text>
<text text-anchor="start" x="59" y="-303" font-family="Helvetica,sans-Serif" font-size="10.00">+</text>
<text text-anchor="start" x="78" y="-303" font-family="Helvetica,sans-Serif" font-size="10.00">begin()</text>
<text text-anchor="start" x="59" y="-288" font-family="Helvetica,sans-Serif" font-size="10.00">+</text>
<text text-anchor="start" x="78" y="-288" font-family="Helvetica,sans-Serif" font-size="10.00">update()</text>
<text text-anchor="start" x="59" y="-273" font-family="Helvetica,sans-Serif" font-size="10.00">+</text>
<text text-anchor="start" x="78" y="-273" font-family="Helvetica,sans-Serif" font-size="10.00">getButtonState()</text>
<text text-anchor="start" x="59" y="-258" font-family="Helvetica,sans-Serif" font-size="10.00">+</text>
<text text-anchor="start" x="78" y="-258" font-family="Helvetica,sans-Serif" font-size="10.00">invert()</text>
<text text-anchor="start" x="59" y="-243" font-family="Helvetica,sans-Serif" font-size="10.00">+</text>
<text text-anchor="start" x="78" y="-243" font-family="Helvetica,sans-Serif" font-size="10.00">reset()</text>
<text text-anchor="start" x="59" y="-228" font-family="Helvetica,sans-Serif" font-size="10.00">+</text>
<text text-anchor="start" x="78" y="-228" font-family="Helvetica,sans-Serif" font-size="10.00">set()</text>
<text text-anchor="start" x="59" y="-213" font-family="Helvetica,sans-Serif" font-size="10.00">+</text>
<text text-anchor="start" x="78" y="-213" font-family="Helvetica,sans-Serif" font-size="10.00">increment()</text>
<text text-anchor="start" x="59" y="-198" font-family="Helvetica,sans-Serif" font-size="10.00">+</text>
<text text-anchor="start" x="78" y="-198" font-family="Helvetica,sans-Serif" font-size="10.00">decrement()</text>
<text text-anchor="start" x="59" y="-183" font-family="Helvetica,sans-Serif" font-size="10.00">+</text>
<text text-anchor="start" x="78" y="-183" font-family="Helvetica,sans-Serif" font-size="10.00">get()</text>
<text text-anchor="start" x="60.5" y="-168" font-family="Helvetica,sans-Serif" font-size="10.00">*</text>
<text text-anchor="start" x="78" y="-168" font-family="Helvetica,sans-Serif" font-size="10.00">enable()</text>
<text text-anchor="start" x="60.5" y="-153" font-family="Helvetica,sans-Serif" font-size="10.00">*</text>
<text text-anchor="start" x="78" y="-153" font-family="Helvetica,sans-Serif" font-size="10.00">disable()</text>
<text text-anchor="start" x="60.5" y="-138" font-family="Helvetica,sans-Serif" font-size="10.00">*</text>
<text text-anchor="start" x="78" y="-138" font-family="Helvetica,sans-Serif" font-size="10.00">isEnabled()</text>
<text text-anchor="start" x="60.5" y="-123" font-family="Helvetica,sans-Serif" font-size="10.00">*</text>
<text text-anchor="start" x="78" y="-123" font-family="Helvetica,sans-Serif" font-size="10.00">moveDown()</text>
<text text-anchor="start" x="60.5" y="-108" font-family="Helvetica,sans-Serif" font-size="10.00">*</text>
<text text-anchor="start" x="78" y="-108" font-family="Helvetica,sans-Serif" font-size="10.00">beginAll()</text>
<text text-anchor="start" x="60.5" y="-93" font-family="Helvetica,sans-Serif" font-size="10.00">*</text>
<text text-anchor="start" x="78" y="-93" font-family="Helvetica,sans-Serif" font-size="10.00">updateAll()</text>
<polygon fill="#666666" stroke="#666666" points="49,-418 49,-418 213,-418 213,-418 49,-418"/>
<polygon fill="#666666" stroke="#666666" points="49,-328 49,-328 76,-328 76,-328 49,-328"/>
<polygon fill="#666666" stroke="#666666" points="76,-328 76,-328 213,-328 213,-328 76,-328"/>
<polygon fill="none" stroke="#666666" points="49,-86 49,-446 213,-446 213,-86 49,-86"/>
</a>
</g>
</g>
<!-- Node2&#45;&gt;Node1 -->
<g id="edge1_Node000001_Node000002" class="edge">
<title>Node2&#45;&gt;Node1</title>
<g id="a_edge1_Node000001_Node000002"><a xlink:title=" ">
<path fill="none" stroke="#63b8ff" d="M131,-75.67C131,-65.71 131,-56.74 131,-49.23"/>
<polygon fill="none" stroke="#63b8ff" points="127.5,-75.94 131,-85.94 134.5,-75.94 127.5,-75.94"/>
</a>
</g>
</g>
<!-- Node3 -->
<g id="Node000003" class="node">
<title>Node3</title>
<g id="a_Node000003"><a xlink:href="../../d0/d04/classGenericSelector.html" target="_top" xlink:title=" ">
<polygon fill="white" stroke="transparent" points="369.5,-798 214.5,-798 214.5,-483 369.5,-483 369.5,-798"/>
<text text-anchor="start" x="220" y="-785.5" font-family="Helvetica,sans-Serif" font-size="10.00">GenericSelector&lt; 2,</text>
<text text-anchor="start" x="220" y="-774.5" font-family="Helvetica,sans-Serif" font-size="10.00"> SelectorSingleLEDCallback &gt;</text>
<text text-anchor="start" x="231" y="-759.5" font-family="Helvetica,sans-Serif" font-size="10.00">#</text>
<text text-anchor="start" x="256" y="-759.5" font-family="Helvetica,sans-Serif" font-size="10.00">setting</text>
<text text-anchor="start" x="231" y="-744.5" font-family="Helvetica,sans-Serif" font-size="10.00">#</text>
<text text-anchor="start" x="256" y="-744.5" font-family="Helvetica,sans-Serif" font-size="10.00">next</text>
<text text-anchor="start" x="231" y="-729.5" font-family="Helvetica,sans-Serif" font-size="10.00">#</text>
<text text-anchor="start" x="256" y="-729.5" font-family="Helvetica,sans-Serif" font-size="10.00">previous</text>
<text text-anchor="start" x="231" y="-714.5" font-family="Helvetica,sans-Serif" font-size="10.00">#</text>
<text text-anchor="start" x="256" y="-714.5" font-family="Helvetica,sans-Serif" font-size="10.00">updatables</text>
<text text-anchor="start" x="233.5" y="-699.5" font-family="Helvetica,sans-Serif" font-size="10.00">&#45;</text>
<text text-anchor="start" x="256" y="-699.5" font-family="Helvetica,sans-Serif" font-size="10.00">selectable</text>
<text text-anchor="start" x="231" y="-684.5" font-family="Helvetica,sans-Serif" font-size="10.00">+</text>
<text text-anchor="start" x="256" y="-684.5" font-family="Helvetica,sans-Serif" font-size="10.00">GenericSelector()</text>
<text text-anchor="start" x="231" y="-669.5" font-family="Helvetica,sans-Serif" font-size="10.00">+</text>
<text text-anchor="start" x="256" y="-669.5" font-family="Helvetica,sans-Serif" font-size="10.00">begin()</text>
<text text-anchor="start" x="231" y="-654.5" font-family="Helvetica,sans-Serif" font-size="10.00">+</text>
<text text-anchor="start" x="256" y="-654.5" font-family="Helvetica,sans-Serif" font-size="10.00">update()</text>
<text text-anchor="start" x="231" y="-639.5" font-family="Helvetica,sans-Serif" font-size="10.00">+</text>
<text text-anchor="start" x="256" y="-639.5" font-family="Helvetica,sans-Serif" font-size="10.00">reset()</text>
<text text-anchor="start" x="231" y="-624.5" font-family="Helvetica,sans-Serif" font-size="10.00">+</text>
<text text-anchor="start" x="256" y="-624.5" font-family="Helvetica,sans-Serif" font-size="10.00">set()</text>
<text text-anchor="start" x="231" y="-609.5" font-family="Helvetica,sans-Serif" font-size="10.00">+</text>
<text text-anchor="start" x="256" y="-609.5" font-family="Helvetica,sans-Serif" font-size="10.00">increment()</text>
<text text-anchor="start" x="231" y="-594.5" font-family="Helvetica,sans-Serif" font-size="10.00">+</text>
<text text-anchor="start" x="256" y="-594.5" font-family="Helvetica,sans-Serif" font-size="10.00">decrement()</text>
<text text-anchor="start" x="231" y="-579.5" font-family="Helvetica,sans-Serif" font-size="10.00">+</text>
<text text-anchor="start" x="256" y="-579.5" font-family="Helvetica,sans-Serif" font-size="10.00">get()</text>
<text text-anchor="start" x="232.5" y="-564.5" font-family="Helvetica,sans-Serif" font-size="10.00">*</text>
<text text-anchor="start" x="256" y="-564.5" font-family="Helvetica,sans-Serif" font-size="10.00">enable()</text>
<text text-anchor="start" x="232.5" y="-549.5" font-family="Helvetica,sans-Serif" font-size="10.00">*</text>
<text text-anchor="start" x="256" y="-549.5" font-family="Helvetica,sans-Serif" font-size="10.00">disable()</text>
<text text-anchor="start" x="232.5" y="-534.5" font-family="Helvetica,sans-Serif" font-size="10.00">*</text>
<text text-anchor="start" x="256" y="-534.5" font-family="Helvetica,sans-Serif" font-size="10.00">isEnabled()</text>
<text text-anchor="start" x="232.5" y="-519.5" font-family="Helvetica,sans-Serif" font-size="10.00">*</text>
<text text-anchor="start" x="256" y="-519.5" font-family="Helvetica,sans-Serif" font-size="10.00">moveDown()</text>
<text text-anchor="start" x="232.5" y="-504.5" font-family="Helvetica,sans-Serif" font-size="10.00">*</text>
<text text-anchor="start" x="256" y="-504.5" font-family="Helvetica,sans-Serif" font-size="10.00">beginAll()</text>
<text text-anchor="start" x="232.5" y="-489.5" font-family="Helvetica,sans-Serif" font-size="10.00">*</text>
<text text-anchor="start" x="256" y="-489.5" font-family="Helvetica,sans-Serif" font-size="10.00">updateAll()</text>
<polygon fill="#666666" stroke="#666666" points="215,-769.5 215,-769.5 370,-769.5 370,-769.5 215,-769.5"/>
<polygon fill="#666666" stroke="#666666" points="215,-694.5 215,-694.5 254,-694.5 254,-694.5 215,-694.5"/>
<polygon fill="#666666" stroke="#666666" points="254,-694.5 254,-694.5 370,-694.5 370,-694.5 254,-694.5"/>
<polygon fill="none" stroke="#666666" points="214.5,-483 214.5,-798 369.5,-798 369.5,-483 214.5,-483"/>
</a>
</g>
</g>
<!-- Node3&#45;&gt;Node2 -->
<g id="edge2_Node000002_Node000003" class="edge">
<title>Node3&#45;&gt;Node2</title>
<g id="a_edge2_Node000002_Node000003"><a xlink:title=" ">
<path fill="none" stroke="#63b8ff" d="M220.23,-473.46C216.32,-464.39 212.37,-455.27 208.44,-446.16"/>
<polygon fill="none" stroke="#63b8ff" points="217.12,-475.09 224.3,-482.88 223.55,-472.31 217.12,-475.09"/>
</a>
</g>
</g>
<!-- Node4 -->
<g id="Node000004" class="node">
<title>Node4</title>
<g id="a_Node000004"><a xlink:href="../../dc/d77/classSelectorBase.html" target="_top" xlink:title="Base class for all Selectors exposing the get method, so it can be used by display elements etc,...">
<polygon fill="white" stroke="transparent" points="243.5,-1012.5 150.5,-1012.5 150.5,-948.5 243.5,-948.5 243.5,-1012.5"/>
<text text-anchor="start" x="165.5" y="-1000.5" font-family="Helvetica,sans-Serif" font-size="10.00">SelectorBase</text>
<text text-anchor="start" x="155" y="-985.5" font-family="Helvetica,sans-Serif" font-size="10.00">#</text>
<text text-anchor="start" x="168" y="-985.5" font-family="Helvetica,sans-Serif" font-size="10.00">setting</text>
<text text-anchor="start" x="155" y="-970.5" font-family="Helvetica,sans-Serif" font-size="10.00">+</text>
<text text-anchor="start" x="168" y="-970.5" font-family="Helvetica,sans-Serif" font-size="10.00">get()</text>
<text text-anchor="start" x="155" y="-955.5" font-family="Helvetica,sans-Serif" font-size="10.00">#</text>
<text text-anchor="start" x="168" y="-955.5" font-family="Helvetica,sans-Serif" font-size="10.00">SelectorBase()</text>
<polygon fill="#666666" stroke="#666666" points="151,-995.5 151,-995.5 244,-995.5 244,-995.5 151,-995.5"/>
<polygon fill="#666666" stroke="#666666" points="151,-980.5 151,-980.5 166,-980.5 166,-980.5 151,-980.5"/>
<polygon fill="#666666" stroke="#666666" points="166,-980.5 166,-980.5 244,-980.5 244,-980.5 166,-980.5"/>
<polygon fill="none" stroke="#666666" points="150.5,-948.5 150.5,-1012.5 243.5,-1012.5 243.5,-948.5 150.5,-948.5"/>
</a>
</g>
</g>
<!-- Node4&#45;&gt;Node3 -->
<g id="edge3_Node000003_Node000004" class="edge">
<title>Node4&#45;&gt;Node3</title>
<g id="a_edge3_Node000003_Node000004"><a xlink:title=" ">
<path fill="none" stroke="#63b8ff" d="M208.55,-938.41C218.46,-903.15 233.4,-850.01 247.91,-798.38"/>
<polygon fill="none" stroke="#63b8ff" points="205.1,-937.73 205.77,-948.31 211.84,-939.63 205.1,-937.73"/>
</a>
</g>
</g>
<!-- Node5 -->
<g id="Node000005" class="node">
<title>Node5</title>
<g id="a_Node000005"><a xlink:href="../../d1/d55/classAH_1_1Updatable.html" target="_top" xlink:title="A super class for object that have to be updated regularly.">
<polygon fill="white" stroke="transparent" points="529.5,-1027.5 440.5,-1027.5 440.5,-933.5 529.5,-933.5 529.5,-1027.5"/>
<text text-anchor="start" x="446" y="-1015.5" font-family="Helvetica,sans-Serif" font-size="10.00">Updatable&lt; T &gt;</text>
<text text-anchor="start" x="483.5" y="-1000.5" font-family="Helvetica,sans-Serif" font-size="10.00"> </text>
<text text-anchor="start" x="449" y="-985.5" font-family="Helvetica,sans-Serif" font-size="10.00">*</text>
<text text-anchor="start" x="463" y="-985.5" font-family="Helvetica,sans-Serif" font-size="10.00">begin()</text>
<text text-anchor="start" x="449" y="-970.5" font-family="Helvetica,sans-Serif" font-size="10.00">*</text>
<text text-anchor="start" x="463" y="-970.5" font-family="Helvetica,sans-Serif" font-size="10.00">update()</text>
<text text-anchor="start" x="449" y="-955.5" font-family="Helvetica,sans-Serif" font-size="10.00">*</text>
<text text-anchor="start" x="463" y="-955.5" font-family="Helvetica,sans-Serif" font-size="10.00">beginAll()</text>
<text text-anchor="start" x="449" y="-940.5" font-family="Helvetica,sans-Serif" font-size="10.00">*</text>
<text text-anchor="start" x="463" y="-940.5" font-family="Helvetica,sans-Serif" font-size="10.00">updateAll()</text>
<polygon fill="#666666" stroke="#666666" points="441,-1010.5 441,-1010.5 530,-1010.5 530,-1010.5 441,-1010.5"/>
<polygon fill="#666666" stroke="#666666" points="441,-995.5 441,-995.5 530,-995.5 530,-995.5 441,-995.5"/>
<polygon fill="none" stroke="#666666" points="440.5,-933.5 440.5,-1027.5 529.5,-1027.5 529.5,-933.5 440.5,-933.5"/>
</a>
</g>
</g>
<!-- Node5&#45;&gt;Node3 -->
<g id="edge4_Node000003_Node000005" class="edge">
<title>Node5&#45;&gt;Node3</title>
<g id="a_edge4_Node000003_Node000005"><a xlink:title=" ">
<path fill="none" stroke="#63b8ff" d="M460.14,-924.1C451.36,-905.42 441.14,-884.6 431,-866 412.13,-831.39 390.25,-794.69 369.51,-761.23"/>
<polygon fill="none" stroke="#63b8ff" points="457.06,-925.78 464.45,-933.36 463.4,-922.82 457.06,-925.78"/>
</a>
</g>
</g>
<!-- Node6 -->
<g id="Node000006" class="node">
<title>Node6</title>
<g id="a_Node000006"><a xlink:href="../../d8/d1a/classAH_1_1UpdatableCRTP.html" target="_top" xlink:title=" ">
<polygon fill="white" stroke="transparent" points="666.5,-1313 519.5,-1313 519.5,-1148 666.5,-1148 666.5,-1313"/>
<text text-anchor="start" x="525" y="-1300.5" font-family="Helvetica,sans-Serif" font-size="10.00">UpdatableCRTP&lt; Updatable</text>
<text text-anchor="start" x="533" y="-1289.5" font-family="Helvetica,sans-Serif" font-size="10.00">&lt; NormalUpdatable &gt; &gt;</text>
<text text-anchor="start" x="532.5" y="-1274.5" font-family="Helvetica,sans-Serif" font-size="10.00">#</text>
<text text-anchor="start" x="554" y="-1274.5" font-family="Helvetica,sans-Serif" font-size="10.00">next</text>
<text text-anchor="start" x="532.5" y="-1259.5" font-family="Helvetica,sans-Serif" font-size="10.00">#</text>
<text text-anchor="start" x="554" y="-1259.5" font-family="Helvetica,sans-Serif" font-size="10.00">previous</text>
<text text-anchor="start" x="532.5" y="-1244.5" font-family="Helvetica,sans-Serif" font-size="10.00">+</text>
<text text-anchor="start" x="554" y="-1244.5" font-family="Helvetica,sans-Serif" font-size="10.00">~UpdatableCRTP()</text>
<text text-anchor="start" x="532.5" y="-1229.5" font-family="Helvetica,sans-Serif" font-size="10.00">#</text>
<text text-anchor="start" x="554" y="-1229.5" font-family="Helvetica,sans-Serif" font-size="10.00">UpdatableCRTP()</text>
<text text-anchor="start" x="532.5" y="-1214.5" font-family="Helvetica,sans-Serif" font-size="10.00">#</text>
<text text-anchor="start" x="554" y="-1214.5" font-family="Helvetica,sans-Serif" font-size="10.00">operator=()</text>
<text text-anchor="start" x="534" y="-1199.5" font-family="Helvetica,sans-Serif" font-size="10.00">*</text>
<text text-anchor="start" x="554" y="-1199.5" font-family="Helvetica,sans-Serif" font-size="10.00">enable()</text>
<text text-anchor="start" x="534" y="-1184.5" font-family="Helvetica,sans-Serif" font-size="10.00">*</text>
<text text-anchor="start" x="554" y="-1184.5" font-family="Helvetica,sans-Serif" font-size="10.00">disable()</text>
<text text-anchor="start" x="534" y="-1169.5" font-family="Helvetica,sans-Serif" font-size="10.00">*</text>
<text text-anchor="start" x="554" y="-1169.5" font-family="Helvetica,sans-Serif" font-size="10.00">isEnabled()</text>
<text text-anchor="start" x="534" y="-1154.5" font-family="Helvetica,sans-Serif" font-size="10.00">*</text>
<text text-anchor="start" x="554" y="-1154.5" font-family="Helvetica,sans-Serif" font-size="10.00">moveDown()</text>
<polygon fill="#666666" stroke="#666666" points="520,-1284.5 520,-1284.5 667,-1284.5 667,-1284.5 520,-1284.5"/>
<polygon fill="#666666" stroke="#666666" points="520,-1254.5 520,-1254.5 552,-1254.5 552,-1254.5 520,-1254.5"/>
<polygon fill="#666666" stroke="#666666" points="552,-1254.5 552,-1254.5 667,-1254.5 667,-1254.5 552,-1254.5"/>
<polygon fill="none" stroke="#666666" points="519.5,-1148 519.5,-1313 666.5,-1313 666.5,-1148 519.5,-1148"/>
</a>
</g>
</g>
<!-- Node6&#45;&gt;Node5 -->
<g id="edge5_Node000005_Node000006" class="edge">
<title>Node6&#45;&gt;Node5</title>
<g id="a_edge5_Node000005_Node000006"><a xlink:title=" ">
<path fill="none" stroke="#63b8ff" d="M547.84,-1138.53C546.53,-1135.66 545.25,-1132.81 544,-1130 528.97,-1096.15 513.57,-1057.22 502.28,-1027.72"/>
<polygon fill="none" stroke="#63b8ff" points="544.73,-1140.14 552.1,-1147.75 551.09,-1137.21 544.73,-1140.14"/>
</a>
</g>
</g>
<!-- Node8 -->
<g id="Node000008" class="node">
<title>Node8</title>
<g id="a_Node000008"><a xlink:href="../../d1/d55/classAH_1_1Updatable.html" target="_top" xlink:title=" ">
<polygon fill="white" stroke="transparent" points="756,-1072.5 586,-1072.5 586,-888.5 756,-888.5 756,-1072.5"/>
<text text-anchor="start" x="591" y="-1060.5" font-family="Helvetica,sans-Serif" font-size="10.00">Updatable&lt; NormalUpdatable &gt;</text>
<text text-anchor="start" x="611" y="-1045.5" font-family="Helvetica,sans-Serif" font-size="10.00">#</text>
<text text-anchor="start" x="645" y="-1045.5" font-family="Helvetica,sans-Serif" font-size="10.00">next</text>
<text text-anchor="start" x="611" y="-1030.5" font-family="Helvetica,sans-Serif" font-size="10.00">#</text>
<text text-anchor="start" x="645" y="-1030.5" font-family="Helvetica,sans-Serif" font-size="10.00">previous</text>
<text text-anchor="start" x="611" y="-1015.5" font-family="Helvetica,sans-Serif" font-size="10.00">#</text>
<text text-anchor="start" x="645" y="-1015.5" font-family="Helvetica,sans-Serif" font-size="10.00">updatables</text>
<text text-anchor="start" x="612.5" y="-1000.5" font-family="Helvetica,sans-Serif" font-size="10.00">*</text>
<text text-anchor="start" x="645" y="-1000.5" font-family="Helvetica,sans-Serif" font-size="10.00">begin()</text>
<text text-anchor="start" x="612.5" y="-985.5" font-family="Helvetica,sans-Serif" font-size="10.00">*</text>
<text text-anchor="start" x="645" y="-985.5" font-family="Helvetica,sans-Serif" font-size="10.00">update()</text>
<text text-anchor="start" x="612.5" y="-970.5" font-family="Helvetica,sans-Serif" font-size="10.00">*</text>
<text text-anchor="start" x="645" y="-970.5" font-family="Helvetica,sans-Serif" font-size="10.00">beginAll()</text>
<text text-anchor="start" x="612.5" y="-955.5" font-family="Helvetica,sans-Serif" font-size="10.00">*</text>
<text text-anchor="start" x="645" y="-955.5" font-family="Helvetica,sans-Serif" font-size="10.00">updateAll()</text>
<text text-anchor="start" x="612.5" y="-940.5" font-family="Helvetica,sans-Serif" font-size="10.00">*</text>
<text text-anchor="start" x="645" y="-940.5" font-family="Helvetica,sans-Serif" font-size="10.00">enable()</text>
<text text-anchor="start" x="612.5" y="-925.5" font-family="Helvetica,sans-Serif" font-size="10.00">*</text>
<text text-anchor="start" x="645" y="-925.5" font-family="Helvetica,sans-Serif" font-size="10.00">disable()</text>
<text text-anchor="start" x="612.5" y="-910.5" font-family="Helvetica,sans-Serif" font-size="10.00">*</text>
<text text-anchor="start" x="645" y="-910.5" font-family="Helvetica,sans-Serif" font-size="10.00">isEnabled()</text>
<text text-anchor="start" x="612.5" y="-895.5" font-family="Helvetica,sans-Serif" font-size="10.00">*</text>
<text text-anchor="start" x="645" y="-895.5" font-family="Helvetica,sans-Serif" font-size="10.00">moveDown()</text>
<polygon fill="#666666" stroke="#666666" points="586,-1055.5 586,-1055.5 756,-1055.5 756,-1055.5 586,-1055.5"/>
<polygon fill="#666666" stroke="#666666" points="586,-1010.5 586,-1010.5 643,-1010.5 643,-1010.5 586,-1010.5"/>
<polygon fill="#666666" stroke="#666666" points="643,-1010.5 643,-1010.5 756,-1010.5 756,-1010.5 643,-1010.5"/>
<polygon fill="none" stroke="#666666" points="586,-888.5 586,-1072.5 756,-1072.5 756,-888.5 586,-888.5"/>
</a>
</g>
</g>
<!-- Node6&#45;&gt;Node8 -->
<g id="edge8_Node000008_Node000006" class="edge">
<title>Node6&#45;&gt;Node8</title>
<g id="a_edge8_Node000008_Node000006"><a xlink:title=" ">
<path fill="none" stroke="#63b8ff" d="M621.71,-1138.21C628.45,-1116.78 635.63,-1093.95 642.37,-1072.53"/>
<polygon fill="none" stroke="#63b8ff" points="618.31,-1137.36 618.65,-1147.95 624.99,-1139.46 618.31,-1137.36"/>
</a>
</g>
</g>
<!-- Node7 -->
<g id="Node000007" class="node">
<title>Node7</title>
<g id="a_Node000007"><a xlink:href="../../d4/d23/classDoublyLinkable.html" target="_top" xlink:title=" ">
<polygon fill="white" stroke="transparent" points="657.5,-685.5 510.5,-685.5 510.5,-595.5 657.5,-595.5 657.5,-685.5"/>
<text text-anchor="start" x="516" y="-673.5" font-family="Helvetica,sans-Serif" font-size="10.00">DoublyLinkable&lt; Updatable</text>
<text text-anchor="start" x="524" y="-662.5" font-family="Helvetica,sans-Serif" font-size="10.00">&lt; NormalUpdatable &gt; &gt;</text>
<text text-anchor="start" x="582.5" y="-647.5" font-family="Helvetica,sans-Serif" font-size="10.00"> </text>
<text text-anchor="start" x="523.5" y="-632.5" font-family="Helvetica,sans-Serif" font-size="10.00">#</text>
<text text-anchor="start" x="545" y="-632.5" font-family="Helvetica,sans-Serif" font-size="10.00">~DoublyLinkable()</text>
<text text-anchor="start" x="523.5" y="-617.5" font-family="Helvetica,sans-Serif" font-size="10.00">#</text>
<text text-anchor="start" x="545" y="-617.5" font-family="Helvetica,sans-Serif" font-size="10.00">DoublyLinkable()</text>
<text text-anchor="start" x="523.5" y="-602.5" font-family="Helvetica,sans-Serif" font-size="10.00">#</text>
<text text-anchor="start" x="545" y="-602.5" font-family="Helvetica,sans-Serif" font-size="10.00">operator=()</text>
<polygon fill="#666666" stroke="#666666" points="511,-657.5 511,-657.5 658,-657.5 658,-657.5 511,-657.5"/>
<polygon fill="#666666" stroke="#666666" points="511,-642.5 511,-642.5 658,-642.5 658,-642.5 511,-642.5"/>
<polygon fill="none" stroke="#666666" points="510.5,-595.5 510.5,-685.5 657.5,-685.5 657.5,-595.5 510.5,-595.5"/>
</a>
</g>
</g>
<!-- Node7&#45;&gt;Node6 -->
<g id="edge6_Node000006_Node000007" class="edge">
<title>Node7&#45;&gt;Node6</title>
<g id="a_edge6_Node000006_Node000007"><a xlink:title=" ">
<path fill="none" stroke="#63b8ff" d="M580.55,-695.85C575.72,-781.01 568.47,-951.07 577,-1095 578.02,-1112.14 579.75,-1130.44 581.72,-1147.84"/>
<polygon fill="none" stroke="#63b8ff" points="584.05,-695.83 581.14,-685.64 577.06,-695.43 584.05,-695.83"/>
</a>
</g>
</g>
<!-- Node8&#45;&gt;Node7 -->
<g id="edge7_Node000007_Node000008" class="edge">
<title>Node8&#45;&gt;Node7</title>
<g id="a_edge7_Node000007_Node000008"><a xlink:title=" ">
<path fill="none" stroke="#63b8ff" d="M647.57,-888.48C631.88,-827.53 611.73,-749.25 598.37,-697.33"/>
<polygon fill="none" stroke="#63b8ff" points="598.37,-697.32 593,-692.51 595.38,-685.7 600.75,-690.51 598.37,-697.32"/>
</a>
</g>
<text text-anchor="start" x="638.5" y="-837" font-family="Helvetica,sans-Serif" font-size="10.00" fill="grey">#next</text>
<text text-anchor="start" x="638.5" y="-822" font-family="Helvetica,sans-Serif" font-size="10.00" fill="grey">#previous</text>
</g>
<!-- Node9 -->
<g id="Node000009" class="node">
<title>Node9</title>
<g id="a_Node000009"><a xlink:href="../../dd/d16/classDoublyLinkedList.html" target="_top" xlink:title=" ">
<polygon fill="white" stroke="transparent" points="850.5,-753 695.5,-753 695.5,-528 850.5,-528 850.5,-753"/>
<text text-anchor="start" x="701" y="-740.5" font-family="Helvetica,sans-Serif" font-size="10.00">DoublyLinkedList&lt; Updatable</text>
<text text-anchor="start" x="713" y="-729.5" font-family="Helvetica,sans-Serif" font-size="10.00">&lt; NormalUpdatable &gt; &gt;</text>
<text text-anchor="start" x="771.5" y="-714.5" font-family="Helvetica,sans-Serif" font-size="10.00"> </text>
<text text-anchor="start" x="715.5" y="-699.5" font-family="Helvetica,sans-Serif" font-size="10.00">+</text>
<text text-anchor="start" x="744" y="-699.5" font-family="Helvetica,sans-Serif" font-size="10.00">append()</text>
<text text-anchor="start" x="715.5" y="-684.5" font-family="Helvetica,sans-Serif" font-size="10.00">+</text>
<text text-anchor="start" x="744" y="-684.5" font-family="Helvetica,sans-Serif" font-size="10.00">insertBefore()</text>
<text text-anchor="start" x="715.5" y="-669.5" font-family="Helvetica,sans-Serif" font-size="10.00">+</text>
<text text-anchor="start" x="744" y="-669.5" font-family="Helvetica,sans-Serif" font-size="10.00">insertSorted()</text>
<text text-anchor="start" x="715.5" y="-654.5" font-family="Helvetica,sans-Serif" font-size="10.00">+</text>
<text text-anchor="start" x="744" y="-654.5" font-family="Helvetica,sans-Serif" font-size="10.00">remove()</text>
<text text-anchor="start" x="715.5" y="-639.5" font-family="Helvetica,sans-Serif" font-size="10.00">+</text>
<text text-anchor="start" x="744" y="-639.5" font-family="Helvetica,sans-Serif" font-size="10.00">moveDown()</text>
<text text-anchor="start" x="715.5" y="-624.5" font-family="Helvetica,sans-Serif" font-size="10.00">+</text>
<text text-anchor="start" x="744" y="-624.5" font-family="Helvetica,sans-Serif" font-size="10.00">couldContain()</text>
<text text-anchor="start" x="715.5" y="-609.5" font-family="Helvetica,sans-Serif" font-size="10.00">+</text>
<text text-anchor="start" x="744" y="-609.5" font-family="Helvetica,sans-Serif" font-size="10.00">begin()</text>
<text text-anchor="start" x="715.5" y="-594.5" font-family="Helvetica,sans-Serif" font-size="10.00">+</text>
<text text-anchor="start" x="744" y="-594.5" font-family="Helvetica,sans-Serif" font-size="10.00">end()</text>
<text text-anchor="start" x="715.5" y="-579.5" font-family="Helvetica,sans-Serif" font-size="10.00">+</text>
<text text-anchor="start" x="744" y="-579.5" font-family="Helvetica,sans-Serif" font-size="10.00">rbegin()</text>
<text text-anchor="start" x="715.5" y="-564.5" font-family="Helvetica,sans-Serif" font-size="10.00">+</text>
<text text-anchor="start" x="744" y="-564.5" font-family="Helvetica,sans-Serif" font-size="10.00">rend()</text>
<text text-anchor="start" x="715.5" y="-549.5" font-family="Helvetica,sans-Serif" font-size="10.00">+</text>
<text text-anchor="start" x="744" y="-549.5" font-family="Helvetica,sans-Serif" font-size="10.00">getFirst()</text>
<text text-anchor="start" x="715.5" y="-534.5" font-family="Helvetica,sans-Serif" font-size="10.00">+</text>
<text text-anchor="start" x="744" y="-534.5" font-family="Helvetica,sans-Serif" font-size="10.00">getLast()</text>
<polygon fill="#666666" stroke="#666666" points="696,-724.5 696,-724.5 851,-724.5 851,-724.5 696,-724.5"/>
<polygon fill="#666666" stroke="#666666" points="696,-709.5 696,-709.5 851,-709.5 851,-709.5 696,-709.5"/>
<polygon fill="none" stroke="#666666" points="695.5,-528 695.5,-753 850.5,-753 850.5,-528 695.5,-528"/>
</a>
</g>
</g>
<!-- Node8&#45;&gt;Node9 -->
<g id="edge10_Node000009_Node000008" class="edge">
<title>Node8&#45;&gt;Node9</title>
<g id="a_edge10_Node000009_Node000008"><a xlink:title=" ">
<path fill="none" stroke="#63b8ff" d="M698.47,-888.48C709.93,-850.49 723.43,-805.77 735.76,-764.9"/>
<polygon fill="none" stroke="#63b8ff" points="735.82,-764.69 733.73,-757.79 739.29,-753.2 741.39,-760.1 735.82,-764.69"/>
</a>
</g>
<text text-anchor="start" x="721.5" y="-837" font-family="Helvetica,sans-Serif" font-size="10.00" fill="grey">&#45;first</text>
<text text-anchor="start" x="721.5" y="-822" font-family="Helvetica,sans-Serif" font-size="10.00" fill="grey">&#45;last</text>
</g>
<!-- Node9&#45;&gt;Node6 -->
<g id="edge9_Node000006_Node000009" class="edge">
<title>Node9&#45;&gt;Node6</title>
<g id="a_edge9_Node000006_Node000009"><a xlink:title=" ">
<path fill="none" stroke="#63b8ff" d="M796.69,-753.13C811.25,-849.01 818.22,-988.23 765,-1095 746.07,-1132.97 710.82,-1163.45 677.13,-1185.73"/>
<polygon fill="none" stroke="#63b8ff" points="676.86,-1185.91 673.96,-1192.51 666.75,-1192.38 669.65,-1185.77 676.86,-1185.91"/>
</a>
</g>
<text text-anchor="start" x="810.5" y="-977.5" font-family="Helvetica,sans-Serif" font-size="10.00" fill="grey">#updatables</text>
</g>
<!-- Node10 -->
<g id="Node000010" class="node">
<title>Node10</title>
<g id="a_Node000010"><a xlink:href="../../d9/d15/classSelectorSingleLEDCallback.html" target="_top" xlink:title=" ">
<polygon fill="white" stroke="transparent" points="422,-1027.5 262,-1027.5 262,-933.5 422,-933.5 422,-1027.5"/>
<text text-anchor="start" x="276.5" y="-1015.5" font-family="Helvetica,sans-Serif" font-size="10.00">SelectorSingleLEDCallback</text>
<text text-anchor="start" x="340" y="-1000.5" font-family="Helvetica,sans-Serif" font-size="10.00"> </text>
<text text-anchor="start" x="266" y="-985.5" font-family="Helvetica,sans-Serif" font-size="10.00">+</text>
<text text-anchor="start" x="279" y="-985.5" font-family="Helvetica,sans-Serif" font-size="10.00">SelectorSingleLEDCallback()</text>
<text text-anchor="start" x="266" y="-970.5" font-family="Helvetica,sans-Serif" font-size="10.00">+</text>
<text text-anchor="start" x="279" y="-970.5" font-family="Helvetica,sans-Serif" font-size="10.00">begin()</text>
<text text-anchor="start" x="266" y="-955.5" font-family="Helvetica,sans-Serif" font-size="10.00">+</text>
<text text-anchor="start" x="279" y="-955.5" font-family="Helvetica,sans-Serif" font-size="10.00">update()</text>
<text text-anchor="start" x="266" y="-940.5" font-family="Helvetica,sans-Serif" font-size="10.00">+</text>
<text text-anchor="start" x="279" y="-940.5" font-family="Helvetica,sans-Serif" font-size="10.00">update()</text>
<polygon fill="#666666" stroke="#666666" points="262,-1010.5 262,-1010.5 422,-1010.5 422,-1010.5 262,-1010.5"/>
<polygon fill="#666666" stroke="#666666" points="262,-995.5 262,-995.5 422,-995.5 422,-995.5 262,-995.5"/>
<polygon fill="none" stroke="#666666" points="262,-933.5 262,-1027.5 422,-1027.5 422,-933.5 262,-933.5"/>
</a>
</g>
</g>
<!-- Node10&#45;&gt;Node3 -->
<g id="edge11_Node000003_Node000010" class="edge">
<title>Node10&#45;&gt;Node3</title>
<g id="a_edge11_Node000003_Node000010"><a xlink:title=" ">
<path fill="none" stroke="#63b8ff" d="M335.15,-933.21C330.38,-900.93 323.68,-855.69 316.99,-810.45"/>
<polygon fill="none" stroke="#63b8ff" points="316.96,-810.21 312.12,-804.86 315.2,-798.34 320.04,-803.69 316.96,-810.21"/>
</a>
</g>
<text text-anchor="start" x="324.5" y="-829" font-family="Helvetica,sans-Serif" font-size="10.00" fill="grey">+callback</text>
</g>
<!-- Node11 -->
<g id="Node000011" class="node">
<title>Node11</title>
<g id="a_Node000011"><a xlink:href="../../d7/de2/structAH_1_1ExtIO_1_1pin__t.html" target="_top" xlink:title="Type for storing pin numbers of Extended Input/Output elements.">
<polygon fill="white" stroke="transparent" points="264.5,-1307.5 177.5,-1307.5 177.5,-1153.5 264.5,-1153.5 264.5,-1307.5"/>
<text text-anchor="start" x="209" y="-1295.5" font-family="Helvetica,sans-Serif" font-size="10.00">pin_t</text>
<text text-anchor="start" x="182" y="-1280.5" font-family="Helvetica,sans-Serif" font-size="10.00">+</text>
<text text-anchor="start" x="195" y="-1280.5" font-family="Helvetica,sans-Serif" font-size="10.00">pin</text>
<text text-anchor="start" x="182" y="-1265.5" font-family="Helvetica,sans-Serif" font-size="10.00">+</text>
<text text-anchor="start" x="195" y="-1265.5" font-family="Helvetica,sans-Serif" font-size="10.00">pin_t()</text>
<text text-anchor="start" x="182" y="-1250.5" font-family="Helvetica,sans-Serif" font-size="10.00">+</text>
<text text-anchor="start" x="195" y="-1250.5" font-family="Helvetica,sans-Serif" font-size="10.00">pin_t()</text>
<text text-anchor="start" x="182" y="-1235.5" font-family="Helvetica,sans-Serif" font-size="10.00">+</text>
<text text-anchor="start" x="195" y="-1235.5" font-family="Helvetica,sans-Serif" font-size="10.00">operator+=()</text>
<text text-anchor="start" x="182" y="-1220.5" font-family="Helvetica,sans-Serif" font-size="10.00">+</text>
<text text-anchor="start" x="195" y="-1220.5" font-family="Helvetica,sans-Serif" font-size="10.00">operator++()</text>
<text text-anchor="start" x="182" y="-1205.5" font-family="Helvetica,sans-Serif" font-size="10.00">+</text>
<text text-anchor="start" x="195" y="-1205.5" font-family="Helvetica,sans-Serif" font-size="10.00">operator++()</text>
<text text-anchor="start" x="182" y="-1190.5" font-family="Helvetica,sans-Serif" font-size="10.00">+</text>
<text text-anchor="start" x="195" y="-1190.5" font-family="Helvetica,sans-Serif" font-size="10.00">operator&#45;=()</text>
<text text-anchor="start" x="182" y="-1175.5" font-family="Helvetica,sans-Serif" font-size="10.00">+</text>
<text text-anchor="start" x="195" y="-1175.5" font-family="Helvetica,sans-Serif" font-size="10.00">operator&#45;&#45;()</text>
<text text-anchor="start" x="182" y="-1160.5" font-family="Helvetica,sans-Serif" font-size="10.00">+</text>
<text text-anchor="start" x="195" y="-1160.5" font-family="Helvetica,sans-Serif" font-size="10.00">operator&#45;&#45;()</text>
<polygon fill="#666666" stroke="#666666" points="178,-1290.5 178,-1290.5 265,-1290.5 265,-1290.5 178,-1290.5"/>
<polygon fill="#666666" stroke="#666666" points="178,-1275.5 178,-1275.5 193,-1275.5 193,-1275.5 178,-1275.5"/>
<polygon fill="#666666" stroke="#666666" points="193,-1275.5 193,-1275.5 265,-1275.5 265,-1275.5 193,-1275.5"/>
<polygon fill="none" stroke="#666666" points="177.5,-1153.5 177.5,-1307.5 264.5,-1307.5 264.5,-1153.5 177.5,-1153.5"/>
</a>
</g>
</g>
<!-- Node11&#45;&gt;Node10 -->
<g id="edge12_Node000010_Node000011" class="edge">
<title>Node11&#45;&gt;Node10</title>
<g id="a_edge12_Node000010_Node000011"><a xlink:title=" ">
<path fill="none" stroke="#63b8ff" d="M258.13,-1153.41C276.16,-1116.44 297.48,-1072.75 314.11,-1038.67"/>
<polygon fill="none" stroke="#63b8ff" points="314.29,-1038.29 313.33,-1031.15 319.55,-1027.51 320.52,-1034.65 314.29,-1038.29"/>
</a>
</g>
<text text-anchor="start" x="277" y="-1118.5" font-family="Helvetica,sans-Serif" font-size="10.00" fill="grey">&#45;ledPin</text>
</g>
<!-- Node12 -->
<g id="Node000012" class="node">
<title>Node12</title>
<g id="a_Node000012"><a xlink:href="../../de/d0d/classAH_1_1Button.html" target="_top" xlink:title="A class for reading and debouncing buttons and switches.">
<polygon fill="white" stroke="transparent" points="132,-1095 0,-1095 0,-866 132,-866 132,-1095"/>
<text text-anchor="start" x="49.5" y="-1082.5" font-family="Helvetica,sans-Serif" font-size="10.00">Button</text>
<text text-anchor="start" x="6.5" y="-1067.5" font-family="Helvetica,sans-Serif" font-size="10.00">&#45;</text>
<text text-anchor="start" x="17" y="-1067.5" font-family="Helvetica,sans-Serif" font-size="10.00">debounceTime</text>
<text text-anchor="start" x="4" y="-1052.5" font-family="Helvetica,sans-Serif" font-size="10.00">+</text>
<text text-anchor="start" x="17" y="-1052.5" font-family="Helvetica,sans-Serif" font-size="10.00">Button()</text>
<text text-anchor="start" x="4" y="-1037.5" font-family="Helvetica,sans-Serif" font-size="10.00">+</text>
<text text-anchor="start" x="17" y="-1037.5" font-family="Helvetica,sans-Serif" font-size="10.00">Button()</text>
<text text-anchor="start" x="4" y="-1022.5" font-family="Helvetica,sans-Serif" font-size="10.00">+</text>
<text text-anchor="start" x="17" y="-1022.5" font-family="Helvetica,sans-Serif" font-size="10.00">Button()</text>
<text text-anchor="start" x="4" y="-1007.5" font-family="Helvetica,sans-Serif" font-size="10.00">+</text>
<text text-anchor="start" x="17" y="-1007.5" font-family="Helvetica,sans-Serif" font-size="10.00">begin()</text>
<text text-anchor="start" x="4" y="-992.5" font-family="Helvetica,sans-Serif" font-size="10.00">+</text>
<text text-anchor="start" x="17" y="-992.5" font-family="Helvetica,sans-Serif" font-size="10.00">invert()</text>
<text text-anchor="start" x="4" y="-977.5" font-family="Helvetica,sans-Serif" font-size="10.00">+</text>
<text text-anchor="start" x="17" y="-977.5" font-family="Helvetica,sans-Serif" font-size="10.00">update()</text>
<text text-anchor="start" x="4" y="-962.5" font-family="Helvetica,sans-Serif" font-size="10.00">+</text>
<text text-anchor="start" x="17" y="-962.5" font-family="Helvetica,sans-Serif" font-size="10.00">getState()</text>
<text text-anchor="start" x="4" y="-947.5" font-family="Helvetica,sans-Serif" font-size="10.00">+</text>
<text text-anchor="start" x="17" y="-947.5" font-family="Helvetica,sans-Serif" font-size="10.00">previousBounceTime()</text>
<text text-anchor="start" x="4" y="-932.5" font-family="Helvetica,sans-Serif" font-size="10.00">+</text>
<text text-anchor="start" x="17" y="-932.5" font-family="Helvetica,sans-Serif" font-size="10.00">stableTime()</text>
<text text-anchor="start" x="4" y="-917.5" font-family="Helvetica,sans-Serif" font-size="10.00">+</text>
<text text-anchor="start" x="17" y="-917.5" font-family="Helvetica,sans-Serif" font-size="10.00">stableTime()</text>
<text text-anchor="start" x="4" y="-902.5" font-family="Helvetica,sans-Serif" font-size="10.00">+</text>
<text text-anchor="start" x="17" y="-902.5" font-family="Helvetica,sans-Serif" font-size="10.00">getName()</text>
<text text-anchor="start" x="4" y="-887.5" font-family="Helvetica,sans-Serif" font-size="10.00">+</text>
<text text-anchor="start" x="17" y="-887.5" font-family="Helvetica,sans-Serif" font-size="10.00">setDebounceTime()</text>
<text text-anchor="start" x="4" y="-872.5" font-family="Helvetica,sans-Serif" font-size="10.00">+</text>
<text text-anchor="start" x="17" y="-872.5" font-family="Helvetica,sans-Serif" font-size="10.00">getDebounceTime()</text>
<polygon fill="#666666" stroke="#666666" points="0,-1077.5 0,-1077.5 132,-1077.5 132,-1077.5 0,-1077.5"/>
<polygon fill="#666666" stroke="#666666" points="0,-1062.5 0,-1062.5 15,-1062.5 15,-1062.5 0,-1062.5"/>
<polygon fill="#666666" stroke="#666666" points="15,-1062.5 15,-1062.5 132,-1062.5 132,-1062.5 15,-1062.5"/>
<polygon fill="none" stroke="#666666" points="0,-866 0,-1095 132,-1095 132,-866 0,-866"/>
</a>
</g>
</g>
<!-- Node11&#45;&gt;Node12 -->
<g id="edge14_Node000012_Node000011" class="edge">
<title>Node11&#45;&gt;Node12</title>
<g id="a_edge14_Node000012_Node000011"><a xlink:title=" ">
<path fill="none" stroke="#63b8ff" d="M177.41,-1159.76C165.33,-1140.43 151.88,-1118.91 138.62,-1097.69"/>
<polygon fill="none" stroke="#63b8ff" points="138.49,-1097.49 131.92,-1094.52 132.13,-1087.31 138.71,-1090.28 138.49,-1097.49"/>
</a>
</g>
<text text-anchor="start" x="160.5" y="-1118.5" font-family="Helvetica,sans-Serif" font-size="10.00" fill="grey">&#45;pin</text>
</g>
<!-- Node12&#45;&gt;Node2 -->
<g id="edge13_Node000002_Node000012" class="edge">
<title>Node12&#45;&gt;Node2</title>
<g id="a_edge13_Node000002_Node000012"><a xlink:title=" ">
<path fill="none" stroke="#63b8ff" d="M76.37,-865.81C86.36,-756.28 101.67,-588.48 113.54,-458.35"/>
<polygon fill="none" stroke="#63b8ff" points="113.55,-458.22 110.12,-451.89 114.65,-446.27 118.08,-452.61 113.55,-458.22"/>
</a>
</g>
<text text-anchor="start" x="115" y="-637.5" font-family="Helvetica,sans-Serif" font-size="10.00" fill="grey">&#45;button</text>
</g>
<!-- Node13 -->
<g id="Node000013" class="node">
<title>Node13</title>
<g id="a_Node000013"><a xlink:href="../../dc/db4/structAH_1_1Button_1_1InternalState.html" target="_top" xlink:title=" ">
<polygon fill="white" stroke="transparent" points="118,-1285 14,-1285 14,-1176 118,-1176 118,-1285"/>
<text text-anchor="start" x="34" y="-1272.5" font-family="Helvetica,sans-Serif" font-size="10.00">InternalState</text>
<text text-anchor="start" x="18" y="-1257.5" font-family="Helvetica,sans-Serif" font-size="10.00">+</text>
<text text-anchor="start" x="31" y="-1257.5" font-family="Helvetica,sans-Serif" font-size="10.00">debounced</text>
<text text-anchor="start" x="18" y="-1242.5" font-family="Helvetica,sans-Serif" font-size="10.00">+</text>
<text text-anchor="start" x="31" y="-1242.5" font-family="Helvetica,sans-Serif" font-size="10.00">bouncing</text>
<text text-anchor="start" x="18" y="-1227.5" font-family="Helvetica,sans-Serif" font-size="10.00">+</text>
<text text-anchor="start" x="31" y="-1227.5" font-family="Helvetica,sans-Serif" font-size="10.00">prevInput</text>
<text text-anchor="start" x="18" y="-1212.5" font-family="Helvetica,sans-Serif" font-size="10.00">+</text>
<text text-anchor="start" x="31" y="-1212.5" font-family="Helvetica,sans-Serif" font-size="10.00">invert</text>
<text text-anchor="start" x="18" y="-1197.5" font-family="Helvetica,sans-Serif" font-size="10.00">+</text>
<text text-anchor="start" x="31" y="-1197.5" font-family="Helvetica,sans-Serif" font-size="10.00">prevBounceTime</text>
<text text-anchor="start" x="18" y="-1182.5" font-family="Helvetica,sans-Serif" font-size="10.00">+</text>
<text text-anchor="start" x="31" y="-1182.5" font-family="Helvetica,sans-Serif" font-size="10.00">InternalState()</text>
<polygon fill="#666666" stroke="#666666" points="14,-1267.5 14,-1267.5 118,-1267.5 118,-1267.5 14,-1267.5"/>
<polygon fill="#666666" stroke="#666666" points="14,-1192.5 14,-1192.5 29,-1192.5 29,-1192.5 14,-1192.5"/>
<polygon fill="#666666" stroke="#666666" points="29,-1192.5 29,-1192.5 118,-1192.5 118,-1192.5 29,-1192.5"/>
<polygon fill="none" stroke="#666666" points="14,-1176 14,-1285 118,-1285 118,-1176 14,-1176"/>
</a>
</g>
</g>
<!-- Node13&#45;&gt;Node12 -->
<g id="edge15_Node000012_Node000013" class="edge">
<title>Node13&#45;&gt;Node12</title>
<g id="a_edge15_Node000012_Node000013"><a xlink:title=" ">
<path fill="none" stroke="#63b8ff" d="M66,-1175.99C66,-1155.65 66,-1131.52 66,-1107.29"/>
<polygon fill="none" stroke="#63b8ff" points="66,-1107.02 62,-1101.02 66,-1095.02 70,-1101.02 66,-1107.02"/>
</a>
</g>
<text text-anchor="start" x="69.5" y="-1118.5" font-family="Helvetica,sans-Serif" font-size="10.00" fill="grey">&#45;state</text>
</g>
</g>
</svg>
