<?xml version="1.0" encoding="UTF-8" standalone="no"?>
<!DOCTYPE svg PUBLIC "-//W3C//DTD SVG 1.1//EN"
 "http://www.w3.org/Graphics/SVG/1.1/DTD/svg11.dtd">
<!-- Generated by graphviz version 2.43.0 (0)
 -->
<!-- Title: MIDIButtonMatrix&lt; Sender, NumRows, NumCols &gt; Pages: 1 -->
<svg width="340pt" height="877pt"
 viewBox="0.00 0.00 339.50 877.00" xmlns="http://www.w3.org/2000/svg" xmlns:xlink="http://www.w3.org/1999/xlink">
<g id="graph0" class="graph" transform="scale(1 1) rotate(0) translate(4 873)">
<title>MIDIButtonMatrix&lt; Sender, NumRows, NumCols &gt;</title>
<!-- Node1 -->
<g id="Node000001" class="node">
<title>Node1</title>
<g id="a_Node000001"><a xlink:title="MIDIButtonMatrix.">
<polygon fill="#999999" stroke="transparent" points="228.5,-195 82.5,-195 82.5,0 228.5,0 228.5,-195"/>
<text text-anchor="start" x="88" y="-182.5" font-family="Helvetica,sans-Serif" font-size="10.00">MIDIButtonMatrix&lt; Sender,</text>
<text text-anchor="start" x="98" y="-171.5" font-family="Helvetica,sans-Serif" font-size="10.00"> NumRows, NumCols &gt;</text>
<text text-anchor="start" x="86.5" y="-156.5" font-family="Helvetica,sans-Serif" font-size="10.00">+</text>
<text text-anchor="start" x="99.5" y="-156.5" font-family="Helvetica,sans-Serif" font-size="10.00">sender</text>
<text text-anchor="start" x="89" y="-141.5" font-family="Helvetica,sans-Serif" font-size="10.00">&#45;</text>
<text text-anchor="start" x="99.5" y="-141.5" font-family="Helvetica,sans-Serif" font-size="10.00">addresses</text>
<text text-anchor="start" x="89" y="-126.5" font-family="Helvetica,sans-Serif" font-size="10.00">&#45;</text>
<text text-anchor="start" x="99.5" y="-126.5" font-family="Helvetica,sans-Serif" font-size="10.00">baseChannelCN</text>
<text text-anchor="start" x="86.5" y="-111.5" font-family="Helvetica,sans-Serif" font-size="10.00">+</text>
<text text-anchor="start" x="99.5" y="-111.5" font-family="Helvetica,sans-Serif" font-size="10.00">begin()</text>
<text text-anchor="start" x="86.5" y="-96.5" font-family="Helvetica,sans-Serif" font-size="10.00">+</text>
<text text-anchor="start" x="99.5" y="-96.5" font-family="Helvetica,sans-Serif" font-size="10.00">update()</text>
<text text-anchor="start" x="86.5" y="-81.5" font-family="Helvetica,sans-Serif" font-size="10.00">+</text>
<text text-anchor="start" x="99.5" y="-81.5" font-family="Helvetica,sans-Serif" font-size="10.00">getAddress()</text>
<text text-anchor="start" x="86.5" y="-66.5" font-family="Helvetica,sans-Serif" font-size="10.00">+</text>
<text text-anchor="start" x="99.5" y="-66.5" font-family="Helvetica,sans-Serif" font-size="10.00">setAddressUnsafe()</text>
<text text-anchor="start" x="86.5" y="-51.5" font-family="Helvetica,sans-Serif" font-size="10.00">+</text>
<text text-anchor="start" x="99.5" y="-51.5" font-family="Helvetica,sans-Serif" font-size="10.00">getChannelCable()</text>
<text text-anchor="start" x="86.5" y="-36.5" font-family="Helvetica,sans-Serif" font-size="10.00">+</text>
<text text-anchor="start" x="99.5" y="-36.5" font-family="Helvetica,sans-Serif" font-size="10.00">setChannelCableUnsafe()</text>
<text text-anchor="start" x="86.5" y="-21.5" font-family="Helvetica,sans-Serif" font-size="10.00">#</text>
<text text-anchor="start" x="99.5" y="-21.5" font-family="Helvetica,sans-Serif" font-size="10.00">MIDIButtonMatrix()</text>
<text text-anchor="start" x="89" y="-6.5" font-family="Helvetica,sans-Serif" font-size="10.00">&#45;</text>
<text text-anchor="start" x="99.5" y="-6.5" font-family="Helvetica,sans-Serif" font-size="10.00">onButtonChanged()</text>
<polygon fill="#666666" stroke="#666666" points="82.5,-166.5 82.5,-166.5 228.5,-166.5 228.5,-166.5 82.5,-166.5"/>
<polygon fill="#666666" stroke="#666666" points="82.5,-121.5 82.5,-121.5 97.5,-121.5 97.5,-121.5 82.5,-121.5"/>
<polygon fill="#666666" stroke="#666666" points="97.5,-121.5 97.5,-121.5 228.5,-121.5 228.5,-121.5 97.5,-121.5"/>
<polygon fill="none" stroke="#666666" points="82.5,0 82.5,-195 228.5,-195 228.5,0 82.5,0"/>
</a>
</g>
</g>
<!-- Node2 -->
<g id="Node000002" class="node">
<title>Node2</title>
<g id="a_Node000002"><a xlink:href="../../d1/d55/classAH_1_1Updatable.html" target="_top" xlink:title="A super class for object that have to be updated regularly.">
<polygon fill="white" stroke="transparent" points="127,-418.5 20,-418.5 20,-324.5 127,-324.5 127,-418.5"/>
<text text-anchor="start" x="25.5" y="-406.5" font-family="Helvetica,sans-Serif" font-size="10.00">MIDIOutputElement</text>
<text text-anchor="start" x="72" y="-391.5" font-family="Helvetica,sans-Serif" font-size="10.00"> </text>
<text text-anchor="start" x="33" y="-376.5" font-family="Helvetica,sans-Serif" font-size="10.00">*</text>
<text text-anchor="start" x="51.5" y="-376.5" font-family="Helvetica,sans-Serif" font-size="10.00">begin()</text>
<text text-anchor="start" x="33" y="-361.5" font-family="Helvetica,sans-Serif" font-size="10.00">*</text>
<text text-anchor="start" x="51.5" y="-361.5" font-family="Helvetica,sans-Serif" font-size="10.00">update()</text>
<text text-anchor="start" x="33" y="-346.5" font-family="Helvetica,sans-Serif" font-size="10.00">*</text>
<text text-anchor="start" x="51.5" y="-346.5" font-family="Helvetica,sans-Serif" font-size="10.00">beginAll()</text>
<text text-anchor="start" x="33" y="-331.5" font-family="Helvetica,sans-Serif" font-size="10.00">*</text>
<text text-anchor="start" x="51.5" y="-331.5" font-family="Helvetica,sans-Serif" font-size="10.00">updateAll()</text>
<polygon fill="#666666" stroke="#666666" points="20.5,-401.5 20.5,-401.5 127.5,-401.5 127.5,-401.5 20.5,-401.5"/>
<polygon fill="#666666" stroke="#666666" points="20.5,-386.5 20.5,-386.5 127.5,-386.5 127.5,-386.5 20.5,-386.5"/>
<polygon fill="none" stroke="#666666" points="20,-324.5 20,-418.5 127,-418.5 127,-324.5 20,-324.5"/>
</a>
</g>
</g>
<!-- Node2&#45;&gt;Node1 -->
<g id="edge1_Node000001_Node000002" class="edge">
<title>Node2&#45;&gt;Node1</title>
<g id="a_edge1_Node000001_Node000002"><a xlink:title=" ">
<path fill="none" stroke="#63b8ff" d="M90.38,-314.5C100.75,-280.12 114.3,-235.15 126.36,-195.15"/>
<polygon fill="none" stroke="#63b8ff" points="86.95,-313.77 87.41,-324.36 93.65,-315.79 86.95,-313.77"/>
</a>
</g>
</g>
<!-- Node3 -->
<g id="Node000003" class="node">
<title>Node3</title>
<g id="a_Node000003"><a xlink:href="../../d8/d1a/classAH_1_1UpdatableCRTP.html" target="_top" xlink:title=" ">
<polygon fill="white" stroke="transparent" points="147,-728 0,-728 0,-548 147,-548 147,-728"/>
<text text-anchor="start" x="5.5" y="-716" font-family="Helvetica,sans-Serif" font-size="10.00">UpdatableCRTP&lt; Updatable</text>
<text text-anchor="start" x="13.5" y="-705" font-family="Helvetica,sans-Serif" font-size="10.00">&lt; NormalUpdatable &gt; &gt;</text>
<text text-anchor="start" x="13" y="-690" font-family="Helvetica,sans-Serif" font-size="10.00">#</text>
<text text-anchor="start" x="34.5" y="-690" font-family="Helvetica,sans-Serif" font-size="10.00">next</text>
<text text-anchor="start" x="13" y="-675" font-family="Helvetica,sans-Serif" font-size="10.00">#</text>
<text text-anchor="start" x="34.5" y="-675" font-family="Helvetica,sans-Serif" font-size="10.00">previous</text>
<text text-anchor="start" x="13" y="-660" font-family="Helvetica,sans-Serif" font-size="10.00">#</text>
<text text-anchor="start" x="34.5" y="-660" font-family="Helvetica,sans-Serif" font-size="10.00">updatables</text>
<text text-anchor="start" x="13" y="-645" font-family="Helvetica,sans-Serif" font-size="10.00">+</text>
<text text-anchor="start" x="34.5" y="-645" font-family="Helvetica,sans-Serif" font-size="10.00">~UpdatableCRTP()</text>
<text text-anchor="start" x="13" y="-630" font-family="Helvetica,sans-Serif" font-size="10.00">#</text>
<text text-anchor="start" x="34.5" y="-630" font-family="Helvetica,sans-Serif" font-size="10.00">UpdatableCRTP()</text>
<text text-anchor="start" x="13" y="-615" font-family="Helvetica,sans-Serif" font-size="10.00">#</text>
<text text-anchor="start" x="34.5" y="-615" font-family="Helvetica,sans-Serif" font-size="10.00">operator=()</text>
<text text-anchor="start" x="14.5" y="-600" font-family="Helvetica,sans-Serif" font-size="10.00">*</text>
<text text-anchor="start" x="34.5" y="-600" font-family="Helvetica,sans-Serif" font-size="10.00">enable()</text>
<text text-anchor="start" x="14.5" y="-585" font-family="Helvetica,sans-Serif" font-size="10.00">*</text>
<text text-anchor="start" x="34.5" y="-585" font-family="Helvetica,sans-Serif" font-size="10.00">disable()</text>
<text text-anchor="start" x="14.5" y="-570" font-family="Helvetica,sans-Serif" font-size="10.00">*</text>
<text text-anchor="start" x="34.5" y="-570" font-family="Helvetica,sans-Serif" font-size="10.00">isEnabled()</text>
<text text-anchor="start" x="14.5" y="-555" font-family="Helvetica,sans-Serif" font-size="10.00">*</text>
<text text-anchor="start" x="34.5" y="-555" font-family="Helvetica,sans-Serif" font-size="10.00">moveDown()</text>
<polygon fill="#666666" stroke="#666666" points="0.5,-700 0.5,-700 147.5,-700 147.5,-700 0.5,-700"/>
<polygon fill="#666666" stroke="#666666" points="0.5,-655 0.5,-655 32.5,-655 32.5,-655 0.5,-655"/>
<polygon fill="#666666" stroke="#666666" points="32.5,-655 32.5,-655 147.5,-655 147.5,-655 32.5,-655"/>
<polygon fill="none" stroke="#666666" points="0,-548 0,-728 147,-728 147,-548 0,-548"/>
</a>
</g>
</g>
<!-- Node3&#45;&gt;Node2 -->
<g id="edge2_Node000002_Node000003" class="edge">
<title>Node3&#45;&gt;Node2</title>
<g id="a_edge2_Node000002_Node000003"><a xlink:title=" ">
<path fill="none" stroke="#63b8ff" d="M73.5,-537.81C73.5,-496.91 73.5,-451.5 73.5,-418.64"/>
<polygon fill="none" stroke="#63b8ff" points="70,-537.82 73.5,-547.82 77,-537.82 70,-537.82"/>
</a>
</g>
</g>
<!-- Node4 -->
<g id="Node000004" class="node">
<title>Node4</title>
<g id="a_Node000004"><a xlink:href="../../d4/d23/classDoublyLinkable.html" target="_top" xlink:title=" ">
<polygon fill="white" stroke="transparent" points="147,-869 0,-869 0,-764 147,-764 147,-869"/>
<text text-anchor="start" x="5.5" y="-856.5" font-family="Helvetica,sans-Serif" font-size="10.00">DoublyLinkable&lt; Updatable</text>
<text text-anchor="start" x="13.5" y="-845.5" font-family="Helvetica,sans-Serif" font-size="10.00">&lt; NormalUpdatable &gt; &gt;</text>
<text text-anchor="start" x="13" y="-830.5" font-family="Helvetica,sans-Serif" font-size="10.00">#</text>
<text text-anchor="start" x="34.5" y="-830.5" font-family="Helvetica,sans-Serif" font-size="10.00">next</text>
<text text-anchor="start" x="13" y="-815.5" font-family="Helvetica,sans-Serif" font-size="10.00">#</text>
<text text-anchor="start" x="34.5" y="-815.5" font-family="Helvetica,sans-Serif" font-size="10.00">previous</text>
<text text-anchor="start" x="13" y="-800.5" font-family="Helvetica,sans-Serif" font-size="10.00">#</text>
<text text-anchor="start" x="34.5" y="-800.5" font-family="Helvetica,sans-Serif" font-size="10.00">~DoublyLinkable()</text>
<text text-anchor="start" x="13" y="-785.5" font-family="Helvetica,sans-Serif" font-size="10.00">#</text>
<text text-anchor="start" x="34.5" y="-785.5" font-family="Helvetica,sans-Serif" font-size="10.00">DoublyLinkable()</text>
<text text-anchor="start" x="13" y="-770.5" font-family="Helvetica,sans-Serif" font-size="10.00">#</text>
<text text-anchor="start" x="34.5" y="-770.5" font-family="Helvetica,sans-Serif" font-size="10.00">operator=()</text>
<polygon fill="#666666" stroke="#666666" points="0.5,-840.5 0.5,-840.5 147.5,-840.5 147.5,-840.5 0.5,-840.5"/>
<polygon fill="#666666" stroke="#666666" points="0.5,-810.5 0.5,-810.5 32.5,-810.5 32.5,-810.5 0.5,-810.5"/>
<polygon fill="#666666" stroke="#666666" points="32.5,-810.5 32.5,-810.5 147.5,-810.5 147.5,-810.5 32.5,-810.5"/>
<polygon fill="none" stroke="#666666" points="0,-764 0,-869 147,-869 147,-764 0,-764"/>
</a>
</g>
</g>
<!-- Node4&#45;&gt;Node3 -->
<g id="edge3_Node000003_Node000004" class="edge">
<title>Node4&#45;&gt;Node3</title>
<g id="a_edge3_Node000003_Node000004"><a xlink:title=" ">
<path fill="none" stroke="#63b8ff" d="M73.5,-753.96C73.5,-745.58 73.5,-736.86 73.5,-728.12"/>
<polygon fill="none" stroke="#63b8ff" points="70,-753.97 73.5,-763.97 77,-753.97 70,-753.97"/>
</a>
</g>
</g>
<!-- Node5 -->
<g id="Node000005" class="node">
<title>Node5</title>
<g id="a_Node000005"><a xlink:href="../../dd/d29/classAH_1_1ButtonMatrix.html" target="_top" xlink:title=" ">
<polygon fill="white" stroke="transparent" points="331.5,-512 145.5,-512 145.5,-231 331.5,-231 331.5,-512"/>
<text text-anchor="start" x="150.5" y="-499.5" font-family="Helvetica,sans-Serif" font-size="10.00">ButtonMatrix&lt; MIDIButton</text>
<text text-anchor="start" x="150.5" y="-488.5" font-family="Helvetica,sans-Serif" font-size="10.00">Matrix&lt; Sender, NumRows,</text>
<text text-anchor="start" x="150.5" y="-477.5" font-family="Helvetica,sans-Serif" font-size="10.00"> NumCols &gt;, NumRows, NumCols &gt;</text>
<text text-anchor="start" x="169" y="-462.5" font-family="Helvetica,sans-Serif" font-size="10.00">&#45;</text>
<text text-anchor="start" x="196.5" y="-462.5" font-family="Helvetica,sans-Serif" font-size="10.00">debounceTime</text>
<text text-anchor="start" x="169" y="-447.5" font-family="Helvetica,sans-Serif" font-size="10.00">&#45;</text>
<text text-anchor="start" x="196.5" y="-447.5" font-family="Helvetica,sans-Serif" font-size="10.00">prevRefresh</text>
<text text-anchor="start" x="169" y="-432.5" font-family="Helvetica,sans-Serif" font-size="10.00">&#45;</text>
<text text-anchor="start" x="196.5" y="-432.5" font-family="Helvetica,sans-Serif" font-size="10.00">prevStates</text>
<text text-anchor="start" x="169" y="-417.5" font-family="Helvetica,sans-Serif" font-size="10.00">&#45;</text>
<text text-anchor="start" x="196.5" y="-417.5" font-family="Helvetica,sans-Serif" font-size="10.00">rowPins</text>
<text text-anchor="start" x="169" y="-402.5" font-family="Helvetica,sans-Serif" font-size="10.00">&#45;</text>
<text text-anchor="start" x="196.5" y="-402.5" font-family="Helvetica,sans-Serif" font-size="10.00">colPins</text>
<text text-anchor="start" x="166.5" y="-387.5" font-family="Helvetica,sans-Serif" font-size="10.00">+</text>
<text text-anchor="start" x="196.5" y="-387.5" font-family="Helvetica,sans-Serif" font-size="10.00">ButtonMatrix()</text>
<text text-anchor="start" x="166.5" y="-372.5" font-family="Helvetica,sans-Serif" font-size="10.00">+</text>
<text text-anchor="start" x="196.5" y="-372.5" font-family="Helvetica,sans-Serif" font-size="10.00">begin()</text>
<text text-anchor="start" x="166.5" y="-357.5" font-family="Helvetica,sans-Serif" font-size="10.00">+</text>
<text text-anchor="start" x="196.5" y="-357.5" font-family="Helvetica,sans-Serif" font-size="10.00">update()</text>
<text text-anchor="start" x="166.5" y="-342.5" font-family="Helvetica,sans-Serif" font-size="10.00">+</text>
<text text-anchor="start" x="196.5" y="-342.5" font-family="Helvetica,sans-Serif" font-size="10.00">getPrevState()</text>
<text text-anchor="start" x="166.5" y="-327.5" font-family="Helvetica,sans-Serif" font-size="10.00">+</text>
<text text-anchor="start" x="196.5" y="-327.5" font-family="Helvetica,sans-Serif" font-size="10.00">setDebounceTime()</text>
<text text-anchor="start" x="166.5" y="-312.5" font-family="Helvetica,sans-Serif" font-size="10.00">+</text>
<text text-anchor="start" x="196.5" y="-312.5" font-family="Helvetica,sans-Serif" font-size="10.00">getDebounceTime()</text>
<text text-anchor="start" x="166.5" y="-297.5" font-family="Helvetica,sans-Serif" font-size="10.00">#</text>
<text text-anchor="start" x="196.5" y="-297.5" font-family="Helvetica,sans-Serif" font-size="10.00">onButtonChanged()</text>
<text text-anchor="start" x="169" y="-282.5" font-family="Helvetica,sans-Serif" font-size="10.00">&#45;</text>
<text text-anchor="start" x="196.5" y="-282.5" font-family="Helvetica,sans-Serif" font-size="10.00">setPrevState()</text>
<text text-anchor="start" x="169" y="-267.5" font-family="Helvetica,sans-Serif" font-size="10.00">&#45;</text>
<text text-anchor="start" x="196.5" y="-267.5" font-family="Helvetica,sans-Serif" font-size="10.00">positionToBits()</text>
<text text-anchor="start" x="169" y="-252.5" font-family="Helvetica,sans-Serif" font-size="10.00">&#45;</text>
<text text-anchor="start" x="196.5" y="-252.5" font-family="Helvetica,sans-Serif" font-size="10.00">bitsToIndex()</text>
<text text-anchor="start" x="169" y="-237.5" font-family="Helvetica,sans-Serif" font-size="10.00">&#45;</text>
<text text-anchor="start" x="196.5" y="-237.5" font-family="Helvetica,sans-Serif" font-size="10.00">bitsToBitmask()</text>
<polygon fill="#666666" stroke="#666666" points="145.5,-472.5 145.5,-472.5 331.5,-472.5 331.5,-472.5 145.5,-472.5"/>
<polygon fill="#666666" stroke="#666666" points="145.5,-397.5 145.5,-397.5 194.5,-397.5 194.5,-397.5 145.5,-397.5"/>
<polygon fill="#666666" stroke="#666666" points="194.5,-397.5 194.5,-397.5 331.5,-397.5 331.5,-397.5 194.5,-397.5"/>
<polygon fill="none" stroke="#666666" points="145.5,-231 145.5,-512 331.5,-512 331.5,-231 145.5,-231"/>
</a>
</g>
</g>
<!-- Node5&#45;&gt;Node1 -->
<g id="edge4_Node000001_Node000005" class="edge">
<title>Node5&#45;&gt;Node1</title>
<g id="a_edge4_Node000001_Node000005"><a xlink:title=" ">
<path fill="none" stroke="#63b8ff" d="M192.96,-221.26C190.25,-212.39 187.57,-203.59 184.95,-195.02"/>
<polygon fill="none" stroke="#63b8ff" points="189.64,-222.37 195.91,-230.91 196.33,-220.33 189.64,-222.37"/>
</a>
</g>
</g>
</g>
</svg>
