<?xml version="1.0" encoding="UTF-8" standalone="no"?>
<!DOCTYPE svg PUBLIC "-//W3C//DTD SVG 1.1//EN"
 "http://www.w3.org/Graphics/SVG/1.1/DTD/svg11.dtd">
<!-- Generated by graphviz version 2.43.0 (0)
 -->
<!-- Title: DirectPinRead.hpp Pages: 1 -->
<svg width="1132pt" height="698pt"
 viewBox="0.00 0.00 1132.00 698.00" xmlns="http://www.w3.org/2000/svg" xmlns:xlink="http://www.w3.org/1999/xlink">
<g id="graph0" class="graph" transform="scale(1 1) rotate(0) translate(4 694)">
<title>DirectPinRead.hpp</title>
<!-- Node1 -->
<g id="Node000001" class="node">
<title>Node1</title>
<g id="a_Node000001"><a xlink:title=" ">
<polygon fill="#999999" stroke="#666666" points="158.5,-690 51.5,-690 51.5,-671 158.5,-671 158.5,-690"/>
<text text-anchor="middle" x="105" y="-678" font-family="Helvetica,sans-Serif" font-size="10.00">DirectPinRead.hpp</text>
</a>
</g>
</g>
<!-- Node2 -->
<g id="Node000002" class="node">
<title>Node2</title>
<g id="a_Node000002"><a xlink:href="../../d6/ddf/Arduino-Wrapper_8h.html" target="_top" xlink:title=" ">
<polygon fill="white" stroke="#666666" points="380,-184 256,-184 256,-165 380,-165 380,-184"/>
<text text-anchor="middle" x="318" y="-172" font-family="Helvetica,sans-Serif" font-size="10.00">AH/Arduino&#45;Wrapper.h</text>
</a>
</g>
</g>
<!-- Node1&#45;&gt;Node2 -->
<g id="edge1_Node000001_Node000002" class="edge">
<title>Node1&#45;&gt;Node2</title>
<g id="a_edge1_Node000001_Node000002"><a xlink:title=" ">
<path fill="none" stroke="#63b8ff" d="M95.4,-670.84C76.87,-653.12 38,-610.62 38,-566 38,-566 38,-566 38,-283.5 38,-235.27 82.09,-239.95 126,-220 163.73,-202.86 208.73,-191.98 245.68,-185.27"/>
<polygon fill="#63b8ff" stroke="#63b8ff" points="246.63,-188.66 255.88,-183.48 245.43,-181.76 246.63,-188.66"/>
</a>
</g>
</g>
<!-- Node8 -->
<g id="Node000008" class="node">
<title>Node8</title>
<g id="a_Node000008"><a xlink:title=" ">
<polygon fill="#e0e0e0" stroke="#999999" points="379.5,-129 272.5,-129 272.5,-110 379.5,-110 379.5,-129"/>
<text text-anchor="middle" x="326" y="-117" font-family="Helvetica,sans-Serif" font-size="10.00">AH/STL/type_traits</text>
</a>
</g>
</g>
<!-- Node1&#45;&gt;Node8 -->
<g id="edge11_Node000001_Node000008" class="edge">
<title>Node1&#45;&gt;Node8</title>
<g id="a_edge11_Node000001_Node000008"><a xlink:title=" ">
<path fill="none" stroke="#63b8ff" d="M87.66,-670.93C57.84,-654.82 0,-617 0,-566 0,-566 0,-566 0,-228.5 0,-173.85 167.17,-142.09 262.09,-128.46"/>
<polygon fill="#63b8ff" stroke="#63b8ff" points="262.75,-131.9 272.17,-127.04 261.78,-124.97 262.75,-131.9"/>
</a>
</g>
</g>
<!-- Node9 -->
<g id="Node000009" class="node">
<title>Node9</title>
<g id="a_Node000009"><a xlink:title=" ">
<polygon fill="#e0e0e0" stroke="#999999" points="282,-294 104,-294 104,-275 282,-275 282,-294"/>
<text text-anchor="middle" x="193" y="-282" font-family="Helvetica,sans-Serif" font-size="10.00">Settings/NamespaceSettings.hpp</text>
</a>
</g>
</g>
<!-- Node1&#45;&gt;Node9 -->
<g id="edge10_Node000001_Node000009" class="edge">
<title>Node1&#45;&gt;Node9</title>
<g id="a_edge10_Node000001_Node000009"><a xlink:title=" ">
<path fill="none" stroke="#63b8ff" d="M114.6,-670.84C133.13,-653.12 172,-610.62 172,-566 172,-566 172,-566 172,-393.5 172,-361.46 181.02,-325.03 187.23,-303.73"/>
<polygon fill="#63b8ff" stroke="#63b8ff" points="190.61,-304.65 190.17,-294.07 183.91,-302.62 190.61,-304.65"/>
</a>
</g>
</g>
<!-- Node10 -->
<g id="Node000010" class="node">
<title>Node10</title>
<g id="a_Node000010"><a xlink:href="../../d0/d4e/Def_8hpp.html" target="_top" xlink:title=" ">
<polygon fill="white" stroke="#666666" points="385,-635 311,-635 311,-616 385,-616 385,-635"/>
<text text-anchor="middle" x="348" y="-623" font-family="Helvetica,sans-Serif" font-size="10.00">Def/Def.hpp</text>
</a>
</g>
</g>
<!-- Node1&#45;&gt;Node10 -->
<g id="edge12_Node000001_Node000010" class="edge">
<title>Node1&#45;&gt;Node10</title>
<g id="a_edge12_Node000001_Node000010"><a xlink:title=" ">
<path fill="none" stroke="#63b8ff" d="M144.04,-670.98C186.7,-661.68 255.03,-646.78 300.7,-636.82"/>
<polygon fill="#63b8ff" stroke="#63b8ff" points="301.63,-640.2 310.65,-634.65 300.13,-633.36 301.63,-640.2"/>
</a>
</g>
</g>
<!-- Node3 -->
<g id="Node000003" class="node">
<title>Node3</title>
<g id="a_Node000003"><a xlink:href="../../d7/d79/MinMaxFix_8hpp.html" target="_top" xlink:title=" ">
<polygon fill="white" stroke="#666666" points="534,-129 398,-129 398,-110 534,-110 534,-129"/>
<text text-anchor="middle" x="466" y="-117" font-family="Helvetica,sans-Serif" font-size="10.00">AH/Math/MinMaxFix.hpp</text>
</a>
</g>
</g>
<!-- Node2&#45;&gt;Node3 -->
<g id="edge2_Node000002_Node000003" class="edge">
<title>Node2&#45;&gt;Node3</title>
<g id="a_edge2_Node000002_Node000003"><a xlink:title=" ">
<path fill="none" stroke="#63b8ff" d="M341.78,-164.98C366.23,-156.23 404.53,-142.51 432.15,-132.62"/>
<polygon fill="#63b8ff" stroke="#63b8ff" points="433.55,-135.84 441.79,-129.17 431.19,-129.25 433.55,-135.84"/>
</a>
</g>
</g>
<!-- Node6 -->
<g id="Node000006" class="node">
<title>Node6</title>
<g id="a_Node000006"><a xlink:title=" ">
<polygon fill="#e0e0e0" stroke="#999999" points="356.5,-19 293.5,-19 293.5,0 356.5,0 356.5,-19"/>
<text text-anchor="middle" x="325" y="-7" font-family="Helvetica,sans-Serif" font-size="10.00">Arduino.h</text>
</a>
</g>
</g>
<!-- Node2&#45;&gt;Node6 -->
<g id="edge9_Node000002_Node000006" class="edge">
<title>Node2&#45;&gt;Node6</title>
<g id="a_edge9_Node000002_Node000006"><a xlink:title=" ">
<path fill="none" stroke="#63b8ff" d="M300.54,-164.88C287.53,-157.38 270.72,-145.18 263,-129 259.36,-121.38 260.68,-118.12 263,-110 272.28,-77.57 295.53,-45.42 310.78,-26.79"/>
<polygon fill="#63b8ff" stroke="#63b8ff" points="313.57,-28.91 317.33,-19 308.21,-24.4 313.57,-28.91"/>
</a>
</g>
</g>
<!-- Node2&#45;&gt;Node8 -->
<g id="edge8_Node000002_Node000008" class="edge">
<title>Node2&#45;&gt;Node8</title>
<g id="a_edge8_Node000002_Node000008"><a xlink:title=" ">
<path fill="none" stroke="#63b8ff" d="M319.32,-164.75C320.37,-157.8 321.87,-147.85 323.19,-139.13"/>
<polygon fill="#63b8ff" stroke="#63b8ff" points="326.67,-139.5 324.7,-129.09 319.75,-138.45 326.67,-139.5"/>
</a>
</g>
</g>
<!-- Node4 -->
<g id="Node000004" class="node">
<title>Node4</title>
<g id="a_Node000004"><a xlink:href="../../d6/d3b/FixArduinoMacros_8hpp.html" target="_top" xlink:title=" ">
<polygon fill="white" stroke="#666666" points="551,-74 381,-74 381,-55 551,-55 551,-74"/>
<text text-anchor="middle" x="466" y="-62" font-family="Helvetica,sans-Serif" font-size="10.00">AH/Math/FixArduinoMacros.hpp</text>
</a>
</g>
</g>
<!-- Node3&#45;&gt;Node4 -->
<g id="edge3_Node000003_Node000004" class="edge">
<title>Node3&#45;&gt;Node4</title>
<g id="a_edge3_Node000003_Node000004"><a xlink:title=" ">
<path fill="none" stroke="#63b8ff" d="M466,-109.75C466,-102.8 466,-92.85 466,-84.13"/>
<polygon fill="#63b8ff" stroke="#63b8ff" points="469.5,-84.09 466,-74.09 462.5,-84.09 469.5,-84.09"/>
</a>
</g>
</g>
<!-- Node7 -->
<g id="Node000007" class="node">
<title>Node7</title>
<g id="a_Node000007"><a xlink:href="../../d6/db0/AH_2Settings_2NamespaceSettings_8hpp.html" target="_top" xlink:title=" ">
<polygon fill="white" stroke="#666666" points="771.5,-74 576.5,-74 576.5,-55 771.5,-55 771.5,-74"/>
<text text-anchor="middle" x="674" y="-62" font-family="Helvetica,sans-Serif" font-size="10.00">AH/Settings/NamespaceSettings.hpp</text>
</a>
</g>
</g>
<!-- Node3&#45;&gt;Node7 -->
<g id="edge6_Node000003_Node000007" class="edge">
<title>Node3&#45;&gt;Node7</title>
<g id="a_edge6_Node000003_Node000007"><a xlink:title=" ">
<path fill="none" stroke="#63b8ff" d="M499.42,-109.98C534.94,-100.93 591.27,-86.58 630.3,-76.64"/>
<polygon fill="#63b8ff" stroke="#63b8ff" points="631.49,-79.94 640.32,-74.08 629.76,-73.16 631.49,-79.94"/>
</a>
</g>
</g>
<!-- Node5 -->
<g id="Node000005" class="node">
<title>Node5</title>
<g id="a_Node000005"><a xlink:href="../../d1/d65/Warnings_8hpp.html" target="_top" xlink:title=" ">
<polygon fill="white" stroke="#666666" points="597.5,-19 454.5,-19 454.5,0 597.5,0 597.5,-19"/>
<text text-anchor="middle" x="526" y="-7" font-family="Helvetica,sans-Serif" font-size="10.00">AH/Settings/Warnings.hpp</text>
</a>
</g>
</g>
<!-- Node4&#45;&gt;Node5 -->
<g id="edge4_Node000004_Node000005" class="edge">
<title>Node4&#45;&gt;Node5</title>
<g id="a_edge4_Node000004_Node000005"><a xlink:title=" ">
<path fill="none" stroke="#63b8ff" d="M475.64,-54.98C484.51,-47.15 497.87,-35.34 508.61,-25.86"/>
<polygon fill="#63b8ff" stroke="#63b8ff" points="511.01,-28.41 516.18,-19.17 506.37,-23.17 511.01,-28.41"/>
</a>
</g>
</g>
<!-- Node4&#45;&gt;Node6 -->
<g id="edge5_Node000004_Node000006" class="edge">
<title>Node4&#45;&gt;Node6</title>
<g id="a_edge5_Node000004_Node000006"><a xlink:title=" ">
<path fill="none" stroke="#63b8ff" d="M443.35,-54.98C420.15,-46.27 383.88,-32.63 357.6,-22.75"/>
<polygon fill="#63b8ff" stroke="#63b8ff" points="358.66,-19.41 348.07,-19.17 356.2,-25.97 358.66,-19.41"/>
</a>
</g>
</g>
<!-- Node7&#45;&gt;Node5 -->
<g id="edge7_Node000007_Node000005" class="edge">
<title>Node7&#45;&gt;Node5</title>
<g id="a_edge7_Node000007_Node000005"><a xlink:title=" ">
<path fill="none" stroke="#63b8ff" d="M650.22,-54.98C625.77,-46.23 587.47,-32.51 559.85,-22.62"/>
<polygon fill="#63b8ff" stroke="#63b8ff" points="560.81,-19.25 550.21,-19.17 558.45,-25.84 560.81,-19.25"/>
</a>
</g>
</g>
<!-- Node10&#45;&gt;Node9 -->
<g id="edge47_Node000010_Node000009" class="edge">
<title>Node10&#45;&gt;Node9</title>
<g id="a_edge47_Node000010_Node000009"><a xlink:title=" ">
<path fill="none" stroke="#63b8ff" d="M348.21,-615.98C348.68,-578.15 345.99,-423.27 274,-330 262.88,-315.59 245.71,-305.21 230.03,-298.12"/>
<polygon fill="#63b8ff" stroke="#63b8ff" points="231.1,-294.78 220.53,-294.13 228.39,-301.23 231.1,-294.78"/>
</a>
</g>
</g>
<!-- Node11 -->
<g id="Node000011" class="node">
<title>Node11</title>
<g id="a_Node000011"><a xlink:href="../../d2/dbc/Cable_8hpp.html" target="_top" xlink:title=" ">
<polygon fill="white" stroke="#666666" points="265.5,-349 200.5,-349 200.5,-330 265.5,-330 265.5,-349"/>
<text text-anchor="middle" x="233" y="-337" font-family="Helvetica,sans-Serif" font-size="10.00">Cable.hpp</text>
</a>
</g>
</g>
<!-- Node10&#45;&gt;Node11 -->
<g id="edge13_Node000010_Node000011" class="edge">
<title>Node10&#45;&gt;Node11</title>
<g id="a_edge13_Node000010_Node000011"><a xlink:title=" ">
<path fill="none" stroke="#63b8ff" d="M310.95,-619.81C284.49,-614.53 249.99,-603.39 229,-580 206.18,-554.57 210,-539.67 210,-505.5 210,-505.5 210,-505.5 210,-448.5 210,-416.34 219.88,-379.95 226.69,-358.69"/>
<polygon fill="#63b8ff" stroke="#63b8ff" points="230.06,-359.64 229.9,-349.05 223.42,-357.43 230.06,-359.64"/>
</a>
</g>
</g>
<!-- Node12 -->
<g id="Node000012" class="node">
<title>Node12</title>
<g id="a_Node000012"><a xlink:href="../../d7/d42/Channel_8hpp.html" target="_top" xlink:title=" ">
<polygon fill="white" stroke="#666666" points="143.5,-349 66.5,-349 66.5,-330 143.5,-330 143.5,-349"/>
<text text-anchor="middle" x="105" y="-337" font-family="Helvetica,sans-Serif" font-size="10.00">Channel.hpp</text>
</a>
</g>
</g>
<!-- Node10&#45;&gt;Node12 -->
<g id="edge16_Node000010_Node000012" class="edge">
<title>Node10&#45;&gt;Node12</title>
<g id="a_edge16_Node000010_Node000012"><a xlink:title=" ">
<path fill="none" stroke="#63b8ff" d="M310.86,-621.82C246.25,-614.92 120,-590.56 120,-505.5 120,-505.5 120,-505.5 120,-448.5 120,-416.89 113.62,-380.56 109.18,-359.13"/>
<polygon fill="#63b8ff" stroke="#63b8ff" points="112.55,-358.16 107.02,-349.12 105.71,-359.64 112.55,-358.16"/>
</a>
</g>
</g>
<!-- Node13 -->
<g id="Node000013" class="node">
<title>Node13</title>
<g id="a_Node000013"><a xlink:href="../../de/d76/Array_8hpp.html" target="_top" xlink:title=" ">
<polygon fill="white" stroke="#666666" points="679.5,-514 544.5,-514 544.5,-495 679.5,-495 679.5,-514"/>
<text text-anchor="middle" x="612" y="-502" font-family="Helvetica,sans-Serif" font-size="10.00">AH/Containers/Array.hpp</text>
</a>
</g>
</g>
<!-- Node10&#45;&gt;Node13 -->
<g id="edge19_Node000010_Node000013" class="edge">
<title>Node10&#45;&gt;Node13</title>
<g id="a_edge19_Node000010_Node000013"><a xlink:title=" ">
<path fill="none" stroke="#63b8ff" d="M366.99,-615.94C412.73,-595.32 529.26,-542.8 583.47,-518.36"/>
<polygon fill="#63b8ff" stroke="#63b8ff" points="585.15,-521.44 592.83,-514.14 582.28,-515.06 585.15,-521.44"/>
</a>
</g>
</g>
<!-- Node22 -->
<g id="Node000022" class="node">
<title>Node22</title>
<g id="a_Node000022"><a xlink:title=" ">
<polygon fill="#e0e0e0" stroke="#999999" points="1093,-239 1037,-239 1037,-220 1093,-220 1093,-239"/>
<text text-anchor="middle" x="1065" y="-227" font-family="Helvetica,sans-Serif" font-size="10.00">stddef.h</text>
</a>
</g>
</g>
<!-- Node10&#45;&gt;Node22 -->
<g id="edge48_Node000010_Node000022" class="edge">
<title>Node10&#45;&gt;Node22</title>
<g id="a_edge48_Node000010_Node000022"><a xlink:title=" ">
<path fill="none" stroke="#63b8ff" d="M385.1,-624.11C501.03,-622.51 855.26,-614.85 964,-580 1024.5,-560.61 1086,-569.03 1086,-505.5 1086,-505.5 1086,-505.5 1086,-338.5 1086,-306.46 1076.98,-270.03 1070.77,-248.73"/>
<polygon fill="#63b8ff" stroke="#63b8ff" points="1074.09,-247.62 1067.83,-239.07 1067.39,-249.65 1074.09,-247.62"/>
</a>
</g>
</g>
<!-- Node23 -->
<g id="Node000023" class="node">
<title>Node23</title>
<g id="a_Node000023"><a xlink:title=" ">
<polygon fill="#e0e0e0" stroke="#999999" points="1018.5,-239 965.5,-239 965.5,-220 1018.5,-220 1018.5,-239"/>
<text text-anchor="middle" x="992" y="-227" font-family="Helvetica,sans-Serif" font-size="10.00">stdint.h</text>
</a>
</g>
</g>
<!-- Node10&#45;&gt;Node23 -->
<g id="edge49_Node000010_Node000023" class="edge">
<title>Node10&#45;&gt;Node23</title>
<g id="a_edge49_Node000010_Node000023"><a xlink:title=" ">
<path fill="none" stroke="#63b8ff" d="M385.1,-625.29C471.62,-626.27 692.94,-623.88 871,-580 953.87,-559.58 1048,-590.85 1048,-505.5 1048,-505.5 1048,-505.5 1048,-338.5 1048,-302.65 1023.38,-266.86 1006.79,-246.81"/>
<polygon fill="#63b8ff" stroke="#63b8ff" points="1009.44,-244.52 1000.26,-239.23 1004.13,-249.09 1009.44,-244.52"/>
</a>
</g>
</g>
<!-- Node27 -->
<g id="Node000027" class="node">
<title>Node27</title>
<g id="a_Node000027"><a xlink:href="../../d4/d35/Hardware-Types_8hpp.html" target="_top" xlink:title=" ">
<polygon fill="white" stroke="#666666" points="861.5,-580 730.5,-580 730.5,-550 861.5,-550 861.5,-580"/>
<text text-anchor="start" x="738.5" y="-568" font-family="Helvetica,sans-Serif" font-size="10.00">AH/Hardware/Hardware</text>
<text text-anchor="middle" x="796" y="-557" font-family="Helvetica,sans-Serif" font-size="10.00">&#45;Types.hpp</text>
</a>
</g>
</g>
<!-- Node10&#45;&gt;Node27 -->
<g id="edge42_Node000010_Node000027" class="edge">
<title>Node10&#45;&gt;Node27</title>
<g id="a_edge42_Node000010_Node000027"><a xlink:title=" ">
<path fill="none" stroke="#63b8ff" d="M385.04,-619.66C458.34,-610.09 623.16,-588.57 720.34,-575.88"/>
<polygon fill="#63b8ff" stroke="#63b8ff" points="720.93,-579.33 730.39,-574.57 720.02,-572.39 720.93,-579.33"/>
</a>
</g>
</g>
<!-- Node28 -->
<g id="Node000028" class="node">
<title>Node28</title>
<g id="a_Node000028"><a xlink:title=" ">
<polygon fill="#e0e0e0" stroke="#999999" points="320,-574.5 238,-574.5 238,-555.5 320,-555.5 320,-574.5"/>
<text text-anchor="middle" x="279" y="-562.5" font-family="Helvetica,sans-Serif" font-size="10.00">AH/STL/limits</text>
</a>
</g>
</g>
<!-- Node10&#45;&gt;Node28 -->
<g id="edge46_Node000010_Node000028" class="edge">
<title>Node10&#45;&gt;Node28</title>
<g id="a_edge46_Node000010_Node000028"><a xlink:title=" ">
<path fill="none" stroke="#63b8ff" d="M337.82,-615.87C327.12,-606.8 310.06,-592.34 297.07,-581.32"/>
<polygon fill="#63b8ff" stroke="#63b8ff" points="299.11,-578.46 289.22,-574.67 294.59,-583.8 299.11,-578.46"/>
</a>
</g>
</g>
<!-- Node11&#45;&gt;Node2 -->
<g id="edge14_Node000011_Node000002" class="edge">
<title>Node11&#45;&gt;Node2</title>
<g id="a_edge14_Node000011_Node000002"><a xlink:title=" ">
<path fill="none" stroke="#63b8ff" d="M249.84,-329.87C263.06,-322.21 280.86,-309.81 291,-294 310.86,-263.03 316.19,-219.26 317.57,-194.51"/>
<polygon fill="#63b8ff" stroke="#63b8ff" points="321.08,-194.43 317.97,-184.3 314.08,-194.16 321.08,-194.43"/>
</a>
</g>
</g>
<!-- Node11&#45;&gt;Node9 -->
<g id="edge15_Node000011_Node000009" class="edge">
<title>Node11&#45;&gt;Node9</title>
<g id="a_edge15_Node000011_Node000009"><a xlink:title=" ">
<path fill="none" stroke="#63b8ff" d="M226.39,-329.75C220.74,-322.26 212.46,-311.28 205.55,-302.13"/>
<polygon fill="#63b8ff" stroke="#63b8ff" points="208.3,-299.96 199.48,-294.09 202.71,-304.18 208.3,-299.96"/>
</a>
</g>
</g>
<!-- Node12&#45;&gt;Node2 -->
<g id="edge17_Node000012_Node000002" class="edge">
<title>Node12&#45;&gt;Node2</title>
<g id="a_edge17_Node000012_Node000002"><a xlink:title=" ">
<path fill="none" stroke="#63b8ff" d="M100.21,-329.92C93.66,-316.95 83.94,-292.04 95,-275 128.6,-223.21 196.13,-198.15 248.11,-186.16"/>
<polygon fill="#63b8ff" stroke="#63b8ff" points="248.94,-189.56 257.96,-184 247.44,-182.72 248.94,-189.56"/>
</a>
</g>
</g>
<!-- Node12&#45;&gt;Node9 -->
<g id="edge18_Node000012_Node000009" class="edge">
<title>Node12&#45;&gt;Node9</title>
<g id="a_edge18_Node000012_Node000009"><a xlink:title=" ">
<path fill="none" stroke="#63b8ff" d="M119.14,-329.98C132.79,-321.77 153.69,-309.18 169.78,-299.49"/>
<polygon fill="#63b8ff" stroke="#63b8ff" points="171.84,-302.33 178.6,-294.17 168.23,-296.33 171.84,-302.33"/>
</a>
</g>
</g>
<!-- Node13&#45;&gt;Node8 -->
<g id="edge40_Node000013_Node000008" class="edge">
<title>Node13&#45;&gt;Node8</title>
<g id="a_edge40_Node000013_Node000008"><a xlink:title=" ">
<path fill="none" stroke="#63b8ff" d="M617.58,-494.72C622.74,-486.03 630.05,-472.17 633,-459 645.54,-403.05 652.42,-383.94 633,-330 591.46,-214.61 442.38,-155.08 368.34,-132.07"/>
<polygon fill="#63b8ff" stroke="#63b8ff" points="369,-128.61 358.41,-129.06 366.97,-135.31 369,-128.61"/>
</a>
</g>
</g>
<!-- Node14 -->
<g id="Node000014" class="node">
<title>Node14</title>
<g id="a_Node000014"><a xlink:href="../../d1/d93/Error_8hpp.html" target="_top" xlink:title=" ">
<polygon fill="white" stroke="#666666" points="624,-459 520,-459 520,-440 624,-440 624,-459"/>
<text text-anchor="middle" x="572" y="-447" font-family="Helvetica,sans-Serif" font-size="10.00">AH/Error/Error.hpp</text>
</a>
</g>
</g>
<!-- Node13&#45;&gt;Node14 -->
<g id="edge20_Node000013_Node000014" class="edge">
<title>Node13&#45;&gt;Node14</title>
<g id="a_edge20_Node000013_Node000014"><a xlink:title=" ">
<path fill="none" stroke="#63b8ff" d="M605.39,-494.75C599.74,-487.26 591.46,-476.28 584.55,-467.13"/>
<polygon fill="#63b8ff" stroke="#63b8ff" points="587.3,-464.96 578.48,-459.09 581.71,-469.18 587.3,-464.96"/>
</a>
</g>
</g>
<!-- Node13&#45;&gt;Node22 -->
<g id="edge41_Node000013_Node000022" class="edge">
<title>Node13&#45;&gt;Node22</title>
<g id="a_edge41_Node000013_Node000022"><a xlink:title=" ">
<path fill="none" stroke="#63b8ff" d="M626.31,-494.88C691.48,-455.6 960.64,-293.39 1041.76,-244.51"/>
<polygon fill="#63b8ff" stroke="#63b8ff" points="1043.93,-247.28 1050.69,-239.12 1040.32,-241.29 1043.93,-247.28"/>
</a>
</g>
</g>
<!-- Node26 -->
<g id="Node000026" class="node">
<title>Node26</title>
<g id="a_Node000026"><a xlink:title=" ">
<polygon fill="#e0e0e0" stroke="#999999" points="502,-459 412,-459 412,-440 502,-440 502,-459"/>
<text text-anchor="middle" x="457" y="-447" font-family="Helvetica,sans-Serif" font-size="10.00">AH/STL/iterator</text>
</a>
</g>
</g>
<!-- Node13&#45;&gt;Node26 -->
<g id="edge39_Node000013_Node000026" class="edge">
<title>Node13&#45;&gt;Node26</title>
<g id="a_edge39_Node000013_Node000026"><a xlink:title=" ">
<path fill="none" stroke="#63b8ff" d="M587.1,-494.98C561.3,-486.16 520.78,-472.31 491.82,-462.41"/>
<polygon fill="#63b8ff" stroke="#63b8ff" points="492.69,-459.01 482.1,-459.08 490.43,-465.63 492.69,-459.01"/>
</a>
</g>
</g>
<!-- Node15 -->
<g id="Node000015" class="node">
<title>Node15</title>
<g id="a_Node000015"><a xlink:href="../../df/dee/Debug_8hpp.html" target="_top" xlink:title=" ">
<polygon fill="white" stroke="#666666" points="623.5,-404 502.5,-404 502.5,-385 623.5,-385 623.5,-404"/>
<text text-anchor="middle" x="563" y="-392" font-family="Helvetica,sans-Serif" font-size="10.00">AH/Debug/Debug.hpp</text>
</a>
</g>
</g>
<!-- Node14&#45;&gt;Node15 -->
<g id="edge21_Node000014_Node000015" class="edge">
<title>Node14&#45;&gt;Node15</title>
<g id="a_edge21_Node000014_Node000015"><a xlink:title=" ">
<path fill="none" stroke="#63b8ff" d="M570.51,-439.75C569.33,-432.8 567.64,-422.85 566.16,-414.13"/>
<polygon fill="#63b8ff" stroke="#63b8ff" points="569.58,-413.36 564.46,-404.09 562.68,-414.53 569.58,-413.36"/>
</a>
</g>
</g>
<!-- Node16 -->
<g id="Node000016" class="node">
<title>Node16</title>
<g id="a_Node000016"><a xlink:href="../../dd/d80/PrintStream_8hpp.html" target="_top" xlink:title=" ">
<polygon fill="white" stroke="#666666" points="623.5,-349 450.5,-349 450.5,-330 623.5,-330 623.5,-349"/>
<text text-anchor="middle" x="537" y="-337" font-family="Helvetica,sans-Serif" font-size="10.00">AH/PrintStream/PrintStream.hpp</text>
</a>
</g>
</g>
<!-- Node15&#45;&gt;Node16 -->
<g id="edge22_Node000015_Node000016" class="edge">
<title>Node15&#45;&gt;Node16</title>
<g id="a_edge22_Node000015_Node000016"><a xlink:title=" ">
<path fill="none" stroke="#63b8ff" d="M558.71,-384.75C555.19,-377.57 550.09,-367.18 545.72,-358.27"/>
<polygon fill="#63b8ff" stroke="#63b8ff" points="548.76,-356.53 541.21,-349.09 542.48,-359.61 548.76,-356.53"/>
</a>
</g>
</g>
<!-- Node17 -->
<g id="Node000017" class="node">
<title>Node17</title>
<g id="a_Node000017"><a xlink:href="../../de/dd1/AH_2Settings_2SettingsWrapper_8hpp.html" target="_top" xlink:title=" ">
<polygon fill="white" stroke="#666666" points="858,-349 680,-349 680,-330 858,-330 858,-349"/>
<text text-anchor="middle" x="769" y="-337" font-family="Helvetica,sans-Serif" font-size="10.00">AH/Settings/SettingsWrapper.hpp</text>
</a>
</g>
</g>
<!-- Node15&#45;&gt;Node17 -->
<g id="edge26_Node000015_Node000017" class="edge">
<title>Node15&#45;&gt;Node17</title>
<g id="a_edge26_Node000015_Node000017"><a xlink:title=" ">
<path fill="none" stroke="#63b8ff" d="M590.98,-384.98C624.31,-375.89 680.26,-361.46 720.61,-351.51"/>
<polygon fill="#63b8ff" stroke="#63b8ff" points="721.63,-354.86 730.51,-349.08 719.97,-348.06 721.63,-354.86"/>
</a>
</g>
</g>
<!-- Node25 -->
<g id="Node000025" class="node">
<title>Node25</title>
<g id="a_Node000025"><a xlink:href="../../d7/d52/DebugVal_8hpp.html" target="_top" xlink:title=" ">
<polygon fill="white" stroke="#666666" points="432,-349 348,-349 348,-330 432,-330 432,-349"/>
<text text-anchor="middle" x="390" y="-337" font-family="Helvetica,sans-Serif" font-size="10.00">DebugVal.hpp</text>
</a>
</g>
</g>
<!-- Node15&#45;&gt;Node25 -->
<g id="edge38_Node000015_Node000025" class="edge">
<title>Node15&#45;&gt;Node25</title>
<g id="a_edge38_Node000015_Node000025"><a xlink:title=" ">
<path fill="none" stroke="#63b8ff" d="M535.2,-384.98C506.03,-376.05 460,-361.94 427.6,-352.02"/>
<polygon fill="#63b8ff" stroke="#63b8ff" points="428.6,-348.66 418.01,-349.08 426.55,-355.36 428.6,-348.66"/>
</a>
</g>
</g>
<!-- Node16&#45;&gt;Node2 -->
<g id="edge23_Node000016_Node000002" class="edge">
<title>Node16&#45;&gt;Node2</title>
<g id="a_edge23_Node000016_Node000002"><a xlink:title=" ">
<path fill="none" stroke="#63b8ff" d="M517.07,-329.92C483.59,-314.86 415.01,-281.24 367,-239 351.54,-225.4 337.59,-206.32 328.57,-192.64"/>
<polygon fill="#63b8ff" stroke="#63b8ff" points="331.48,-190.7 323.15,-184.15 325.58,-194.46 331.48,-190.7"/>
</a>
</g>
</g>
<!-- Node16&#45;&gt;Node7 -->
<g id="edge24_Node000016_Node000007" class="edge">
<title>Node16&#45;&gt;Node7</title>
<g id="a_edge24_Node000016_Node000007"><a xlink:title=" ">
<path fill="none" stroke="#63b8ff" d="M540.37,-329.98C547.2,-311.93 562,-268.41 562,-230.5 562,-230.5 562,-230.5 562,-173.5 562,-127.77 610.98,-95.29 644.16,-78.54"/>
<polygon fill="#63b8ff" stroke="#63b8ff" points="645.98,-81.54 653.46,-74.04 642.93,-75.24 645.98,-81.54"/>
</a>
</g>
</g>
<!-- Node16&#45;&gt;Node9 -->
<g id="edge25_Node000016_Node000009" class="edge">
<title>Node16&#45;&gt;Node9</title>
<g id="a_edge25_Node000016_Node000009"><a xlink:title=" ">
<path fill="none" stroke="#63b8ff" d="M481.73,-329.98C420.89,-320.61 323.14,-305.55 258.5,-295.59"/>
<polygon fill="#63b8ff" stroke="#63b8ff" points="258.83,-292.1 248.42,-294.04 257.77,-299.02 258.83,-292.1"/>
</a>
</g>
</g>
<!-- Node17&#45;&gt;Node7 -->
<g id="edge27_Node000017_Node000007" class="edge">
<title>Node17&#45;&gt;Node7</title>
<g id="a_edge27_Node000017_Node000007"><a xlink:title=" ">
<path fill="none" stroke="#63b8ff" d="M836.61,-329.92C861.31,-323.64 887.65,-312.78 906,-294 926.59,-272.93 925,-259.96 925,-230.5 925,-230.5 925,-230.5 925,-173.5 925,-107.03 849.82,-80.97 781.74,-71"/>
<polygon fill="#63b8ff" stroke="#63b8ff" points="782.14,-67.52 771.76,-69.64 781.2,-74.45 782.14,-67.52"/>
</a>
</g>
</g>
<!-- Node17&#45;&gt;Node15 -->
<g id="edge37_Node000017_Node000015" class="edge">
<title>Node17&#45;&gt;Node15</title>
<g id="a_edge37_Node000017_Node000015"><a xlink:title=" ">
<path fill="none" stroke="#63b8ff" d="M740.77,-349.08C707.33,-358.2 651.36,-372.64 611.09,-382.56"/>
<polygon fill="#63b8ff" stroke="#63b8ff" points="610.09,-379.21 601.21,-384.98 611.76,-386 610.09,-379.21"/>
</a>
</g>
</g>
<!-- Node18 -->
<g id="Node000018" class="node">
<title>Node18</title>
<g id="a_Node000018"><a xlink:href="../../d5/d4f/AH_2Settings_2Settings_8hpp.html" target="_top" xlink:title="All user settings and debugging options can be changed here.">
<polygon fill="white" stroke="#666666" points="705.5,-294 628.5,-294 628.5,-275 705.5,-275 705.5,-294"/>
<text text-anchor="middle" x="667" y="-282" font-family="Helvetica,sans-Serif" font-size="10.00">Settings.hpp</text>
</a>
</g>
</g>
<!-- Node17&#45;&gt;Node18 -->
<g id="edge28_Node000017_Node000018" class="edge">
<title>Node17&#45;&gt;Node18</title>
<g id="a_edge28_Node000017_Node000018"><a xlink:title=" ">
<path fill="none" stroke="#63b8ff" d="M752.61,-329.98C736.43,-321.57 711.43,-308.59 692.62,-298.81"/>
<polygon fill="#63b8ff" stroke="#63b8ff" points="694.17,-295.68 683.69,-294.17 690.95,-301.89 694.17,-295.68"/>
</a>
</g>
</g>
<!-- Node24 -->
<g id="Node000024" class="node">
<title>Node24</title>
<g id="a_Node000024"><a xlink:href="../../d9/d98/TeensyUSBTypes_8hpp.html" target="_top" xlink:title=" ">
<polygon fill="white" stroke="#666666" points="896.5,-294 723.5,-294 723.5,-275 896.5,-275 896.5,-294"/>
<text text-anchor="middle" x="810" y="-282" font-family="Helvetica,sans-Serif" font-size="10.00">AH/Teensy/TeensyUSBTypes.hpp</text>
</a>
</g>
</g>
<!-- Node17&#45;&gt;Node24 -->
<g id="edge36_Node000017_Node000024" class="edge">
<title>Node17&#45;&gt;Node24</title>
<g id="a_edge36_Node000017_Node000024"><a xlink:title=" ">
<path fill="none" stroke="#63b8ff" d="M775.77,-329.75C781.56,-322.26 790.06,-311.28 797.14,-302.13"/>
<polygon fill="#63b8ff" stroke="#63b8ff" points="800.01,-304.14 803.36,-294.09 794.47,-299.86 800.01,-304.14"/>
</a>
</g>
</g>
<!-- Node19 -->
<g id="Node000019" class="node">
<title>Node19</title>
<g id="a_Node000019"><a xlink:href="../../dc/d50/Frequency_8hpp.html" target="_top" xlink:title=" ">
<polygon fill="white" stroke="#666666" points="762,-184 628,-184 628,-165 762,-165 762,-184"/>
<text text-anchor="middle" x="695" y="-172" font-family="Helvetica,sans-Serif" font-size="10.00">AH/Types/Frequency.hpp</text>
</a>
</g>
</g>
<!-- Node18&#45;&gt;Node19 -->
<g id="edge29_Node000018_Node000019" class="edge">
<title>Node18&#45;&gt;Node19</title>
<g id="a_edge29_Node000018_Node000019"><a xlink:title=" ">
<path fill="none" stroke="#63b8ff" d="M669.29,-274.66C673.85,-257.09 684.12,-217.45 690.22,-193.95"/>
<polygon fill="#63b8ff" stroke="#63b8ff" points="693.63,-194.72 692.76,-184.16 686.86,-192.96 693.63,-194.72"/>
</a>
</g>
</g>
<!-- Node20 -->
<g id="Node000020" class="node">
<title>Node20</title>
<g id="a_Node000020"><a xlink:href="../../d7/d7c/ADCConfig_8hpp.html" target="_top" xlink:title="This file contains the platform&#45;specific ADC resolutions.">
<polygon fill="white" stroke="#666666" points="533.5,-239 376.5,-239 376.5,-220 533.5,-220 533.5,-239"/>
<text text-anchor="middle" x="455" y="-227" font-family="Helvetica,sans-Serif" font-size="10.00">AH/Hardware/ADCConfig.hpp</text>
</a>
</g>
</g>
<!-- Node18&#45;&gt;Node20 -->
<g id="edge31_Node000018_Node000020" class="edge">
<title>Node18&#45;&gt;Node20</title>
<g id="a_edge31_Node000018_Node000020"><a xlink:title=" ">
<path fill="none" stroke="#63b8ff" d="M632.94,-274.98C596.58,-265.89 538.83,-251.46 499.03,-241.51"/>
<polygon fill="#63b8ff" stroke="#63b8ff" points="499.88,-238.11 489.33,-239.08 498.18,-244.9 499.88,-238.11"/>
</a>
</g>
</g>
<!-- Node21 -->
<g id="Node000021" class="node">
<title>Node21</title>
<g id="a_Node000021"><a xlink:title=" ">
<polygon fill="#e0e0e0" stroke="#999999" points="748.5,-239 695.5,-239 695.5,-220 748.5,-220 748.5,-239"/>
<text text-anchor="middle" x="722" y="-227" font-family="Helvetica,sans-Serif" font-size="10.00">limits.h</text>
</a>
</g>
</g>
<!-- Node18&#45;&gt;Node21 -->
<g id="edge33_Node000018_Node000021" class="edge">
<title>Node18&#45;&gt;Node21</title>
<g id="a_edge33_Node000018_Node000021"><a xlink:title=" ">
<path fill="none" stroke="#63b8ff" d="M676.08,-274.75C684.09,-267.03 695.96,-255.6 705.62,-246.28"/>
<polygon fill="#63b8ff" stroke="#63b8ff" points="708.31,-248.55 713.09,-239.09 703.46,-243.51 708.31,-248.55"/>
</a>
</g>
</g>
<!-- Node18&#45;&gt;Node22 -->
<g id="edge34_Node000018_Node000022" class="edge">
<title>Node18&#45;&gt;Node22</title>
<g id="a_edge34_Node000018_Node000022"><a xlink:title=" ">
<path fill="none" stroke="#63b8ff" d="M705.74,-276.43C708.87,-275.92 711.99,-275.44 715,-275 850.31,-255.26 888.23,-262.36 1026.64,-239.05"/>
<polygon fill="#63b8ff" stroke="#63b8ff" points="1027.52,-242.46 1036.78,-237.32 1026.34,-235.56 1027.52,-242.46"/>
</a>
</g>
</g>
<!-- Node18&#45;&gt;Node23 -->
<g id="edge35_Node000018_Node000023" class="edge">
<title>Node18&#45;&gt;Node23</title>
<g id="a_edge35_Node000018_Node000023"><a xlink:title=" ">
<path fill="none" stroke="#63b8ff" d="M705.5,-276.63C708.71,-276.07 711.91,-275.52 715,-275 801,-260.48 902.21,-244.5 955.28,-236.21"/>
<polygon fill="#63b8ff" stroke="#63b8ff" points="955.9,-239.65 965.24,-234.65 954.82,-232.74 955.9,-239.65"/>
</a>
</g>
</g>
<!-- Node19&#45;&gt;Node7 -->
<g id="edge30_Node000019_Node000007" class="edge">
<title>Node19&#45;&gt;Node7</title>
<g id="a_edge30_Node000019_Node000007"><a xlink:title=" ">
<path fill="none" stroke="#63b8ff" d="M693.28,-164.66C689.88,-147.17 682.23,-107.8 677.65,-84.27"/>
<polygon fill="#63b8ff" stroke="#63b8ff" points="681.03,-83.31 675.68,-74.16 674.16,-84.64 681.03,-83.31"/>
</a>
</g>
</g>
<!-- Node20&#45;&gt;Node2 -->
<g id="edge32_Node000020_Node000002" class="edge">
<title>Node20&#45;&gt;Node2</title>
<g id="a_edge32_Node000020_Node000002"><a xlink:title=" ">
<path fill="none" stroke="#63b8ff" d="M432.99,-219.98C410.55,-211.3 375.52,-197.75 350.01,-187.88"/>
<polygon fill="#63b8ff" stroke="#63b8ff" points="351,-184.51 340.41,-184.17 348.48,-191.04 351,-184.51"/>
</a>
</g>
</g>
<!-- Node27&#45;&gt;Node7 -->
<g id="edge44_Node000027_Node000007" class="edge">
<title>Node27&#45;&gt;Node7</title>
<g id="a_edge44_Node000027_Node000007"><a xlink:title=" ">
<path fill="none" stroke="#63b8ff" d="M855.06,-549.97C894.69,-539.81 942.68,-525.85 960,-514 989.65,-493.72 1010,-486.42 1010,-450.5 1010,-450.5 1010,-450.5 1010,-393.5 1010,-305.1 1124,-318.9 1124,-230.5 1124,-230.5 1124,-230.5 1124,-173.5 1124,-103.42 915.02,-78.7 781.89,-70.06"/>
<polygon fill="#63b8ff" stroke="#63b8ff" points="781.84,-66.55 771.64,-69.42 781.4,-73.54 781.84,-66.55"/>
</a>
</g>
</g>
<!-- Node27&#45;&gt;Node13 -->
<g id="edge43_Node000027_Node000013" class="edge">
<title>Node27&#45;&gt;Node13</title>
<g id="a_edge43_Node000027_Node000013"><a xlink:title=" ">
<path fill="none" stroke="#63b8ff" d="M751.93,-549.99C720.31,-539.94 678.22,-526.55 648.48,-517.1"/>
<polygon fill="#63b8ff" stroke="#63b8ff" points="649.49,-513.75 638.9,-514.05 647.37,-520.42 649.49,-513.75"/>
</a>
</g>
</g>
<!-- Node27&#45;&gt;Node23 -->
<g id="edge45_Node000027_Node000023" class="edge">
<title>Node27&#45;&gt;Node23</title>
<g id="a_edge45_Node000027_Node000023"><a xlink:title=" ">
<path fill="none" stroke="#63b8ff" d="M861.04,-549.94C911.17,-534.83 972,-505.22 972,-450.5 972,-450.5 972,-450.5 972,-393.5 972,-340.92 982.38,-279.49 988.19,-249.26"/>
<polygon fill="#63b8ff" stroke="#63b8ff" points="991.65,-249.78 990.15,-239.29 984.78,-248.42 991.65,-249.78"/>
</a>
</g>
</g>
</g>
</svg>
