<?xml version="1.0" encoding="UTF-8" standalone="no"?>
<!DOCTYPE svg PUBLIC "-//W3C//DTD SVG 1.1//EN"
 "http://www.w3.org/Graphics/SVG/1.1/DTD/svg11.dtd">
<!-- Generated by graphviz version 2.43.0 (0)
 -->
<!-- Title: EncoderSelectorLEDs&lt; N &gt; Pages: 1 -->
<svg width="360pt" height="1254pt"
 viewBox="0.00 0.00 360.00 1254.00" xmlns="http://www.w3.org/2000/svg" xmlns:xlink="http://www.w3.org/1999/xlink">
<g id="graph0" class="graph" transform="scale(1 1) rotate(0) translate(4 1250)">
<title>EncoderSelectorLEDs&lt; N &gt;</title>
<polygon fill="white" stroke="transparent" points="-4,4 -4,-1250 356,-1250 356,4 -4,4"/>
<!-- Node1 -->
<g id="node1" class="node">
<title>Node1</title>
<g id="a_node1"><a xlink:title="Selector that reads from a rotary encoder. This version displays the setting using LEDs.">
<polygon fill="#bfbfbf" stroke="black" points="54,-0.5 54,-57.5 203,-57.5 203,-0.5 54,-0.5"/>
<text text-anchor="middle" x="128.5" y="-45.5" font-family="Helvetica,sans-Serif" font-size="10.00">EncoderSelectorLEDs&lt; N &gt;</text>
<polyline fill="none" stroke="black" points="54,-38.5 203,-38.5 "/>
<text text-anchor="middle" x="128.5" y="-26.5" font-family="Helvetica,sans-Serif" font-size="10.00"> </text>
<polyline fill="none" stroke="black" points="54,-19.5 203,-19.5 "/>
<text text-anchor="start" x="62" y="-7.5" font-family="Helvetica,sans-Serif" font-size="10.00">+ EncoderSelectorLEDs()</text>
</a>
</g>
</g>
<!-- Node2 -->
<g id="node2" class="node">
<title>Node2</title>
<g id="a_node2"><a xlink:href="../../da/dbf/classGenericEncoderSelector.html" target="_top" xlink:title=" ">
<polygon fill="white" stroke="black" points="52.5,-95.5 52.5,-240.5 204.5,-240.5 204.5,-95.5 52.5,-95.5"/>
<text text-anchor="start" x="60.5" y="-228.5" font-family="Helvetica,sans-Serif" font-size="10.00">GenericEncoderSelector</text>
<text text-anchor="start" x="60.5" y="-217.5" font-family="Helvetica,sans-Serif" font-size="10.00">&lt; N, SelectorLEDsCallback</text>
<text text-anchor="middle" x="128.5" y="-206.5" font-family="Helvetica,sans-Serif" font-size="10.00">&lt; N &gt; &gt;</text>
<polyline fill="none" stroke="black" points="52.5,-199.5 204.5,-199.5 "/>
<text text-anchor="start" x="60.5" y="-187.5" font-family="Helvetica,sans-Serif" font-size="10.00">&#45; encoder</text>
<text text-anchor="start" x="60.5" y="-176.5" font-family="Helvetica,sans-Serif" font-size="10.00">&#45; pulsesPerStep</text>
<text text-anchor="start" x="60.5" y="-165.5" font-family="Helvetica,sans-Serif" font-size="10.00">&#45; wrap</text>
<text text-anchor="start" x="60.5" y="-154.5" font-family="Helvetica,sans-Serif" font-size="10.00">&#45; previousPosition</text>
<text text-anchor="start" x="60.5" y="-143.5" font-family="Helvetica,sans-Serif" font-size="10.00">&#45; previousSwitchState</text>
<polyline fill="none" stroke="black" points="52.5,-136.5 204.5,-136.5 "/>
<text text-anchor="start" x="60.5" y="-124.5" font-family="Helvetica,sans-Serif" font-size="10.00">+ GenericEncoderSelector()</text>
<text text-anchor="start" x="60.5" y="-113.5" font-family="Helvetica,sans-Serif" font-size="10.00">+ begin()</text>
<text text-anchor="start" x="60.5" y="-102.5" font-family="Helvetica,sans-Serif" font-size="10.00">+ update()</text>
</a>
</g>
</g>
<!-- Node2&#45;&gt;Node1 -->
<g id="edge1" class="edge">
<title>Node2&#45;&gt;Node1</title>
<path fill="none" stroke="midnightblue" d="M128.5,-85.04C128.5,-75.31 128.5,-65.95 128.5,-57.8"/>
<polygon fill="none" stroke="midnightblue" points="125,-85.29 128.5,-95.29 132,-85.29 125,-85.29"/>
</g>
<!-- Node3 -->
<g id="node3" class="node">
<title>Node3</title>
<g id="a_node3"><a xlink:href="../../d0/d04/classGenericSelector.html" target="_top" xlink:title=" ">
<polygon fill="white" stroke="black" points="16,-288.5 16,-444.5 141,-444.5 141,-288.5 16,-288.5"/>
<text text-anchor="start" x="24" y="-432.5" font-family="Helvetica,sans-Serif" font-size="10.00">GenericSelector&lt; N,</text>
<text text-anchor="start" x="24" y="-421.5" font-family="Helvetica,sans-Serif" font-size="10.00"> SelectorLEDsCallback</text>
<text text-anchor="middle" x="78.5" y="-410.5" font-family="Helvetica,sans-Serif" font-size="10.00">&lt; N &gt; &gt;</text>
<polyline fill="none" stroke="black" points="16,-403.5 141,-403.5 "/>
<text text-anchor="start" x="24" y="-391.5" font-family="Helvetica,sans-Serif" font-size="10.00">+ callback</text>
<text text-anchor="start" x="24" y="-380.5" font-family="Helvetica,sans-Serif" font-size="10.00">&#45; selectable</text>
<polyline fill="none" stroke="black" points="16,-373.5 141,-373.5 "/>
<text text-anchor="start" x="24" y="-361.5" font-family="Helvetica,sans-Serif" font-size="10.00">+ GenericSelector()</text>
<text text-anchor="start" x="24" y="-350.5" font-family="Helvetica,sans-Serif" font-size="10.00">+ begin()</text>
<text text-anchor="start" x="24" y="-339.5" font-family="Helvetica,sans-Serif" font-size="10.00">+ update()</text>
<text text-anchor="start" x="24" y="-328.5" font-family="Helvetica,sans-Serif" font-size="10.00">+ reset()</text>
<text text-anchor="start" x="24" y="-317.5" font-family="Helvetica,sans-Serif" font-size="10.00">+ set()</text>
<text text-anchor="start" x="24" y="-306.5" font-family="Helvetica,sans-Serif" font-size="10.00">+ increment()</text>
<text text-anchor="start" x="24" y="-295.5" font-family="Helvetica,sans-Serif" font-size="10.00">+ decrement()</text>
</a>
</g>
</g>
<!-- Node3&#45;&gt;Node2 -->
<g id="edge2" class="edge">
<title>Node3&#45;&gt;Node2</title>
<path fill="none" stroke="midnightblue" d="M100.67,-278.38C103.87,-265.8 107.13,-252.98 110.24,-240.75"/>
<polygon fill="none" stroke="midnightblue" points="97.19,-277.85 98.12,-288.4 103.98,-279.57 97.19,-277.85"/>
</g>
<!-- Node4 -->
<g id="node4" class="node">
<title>Node4</title>
<g id="a_node4"><a xlink:href="../../dc/d77/classSelectorBase.html" target="_top" xlink:title="Base class for all Selectors exposing the get method, so it can be used by display elements etc,...">
<polygon fill="white" stroke="black" points="17,-493.5 17,-561.5 116,-561.5 116,-493.5 17,-493.5"/>
<text text-anchor="middle" x="66.5" y="-549.5" font-family="Helvetica,sans-Serif" font-size="10.00">SelectorBase</text>
<polyline fill="none" stroke="black" points="17,-542.5 116,-542.5 "/>
<text text-anchor="start" x="25" y="-530.5" font-family="Helvetica,sans-Serif" font-size="10.00"># setting</text>
<polyline fill="none" stroke="black" points="17,-523.5 116,-523.5 "/>
<text text-anchor="start" x="25" y="-511.5" font-family="Helvetica,sans-Serif" font-size="10.00">+ get()</text>
<text text-anchor="start" x="25" y="-500.5" font-family="Helvetica,sans-Serif" font-size="10.00"># SelectorBase()</text>
</a>
</g>
</g>
<!-- Node4&#45;&gt;Node3 -->
<g id="edge3" class="edge">
<title>Node4&#45;&gt;Node3</title>
<path fill="none" stroke="midnightblue" d="M69.78,-483.09C70.68,-471.17 71.68,-457.88 72.68,-444.67"/>
<polygon fill="none" stroke="midnightblue" points="66.28,-482.93 69.02,-493.17 73.26,-483.46 66.28,-482.93"/>
</g>
<!-- Node5 -->
<g id="node5" class="node">
<title>Node5</title>
<g id="a_node5"><a xlink:href="../../d1/d55/classAH_1_1Updatable.html" target="_top" xlink:title=" ">
<polygon fill="white" stroke="black" points="134,-482.5 134,-572.5 217,-572.5 217,-482.5 134,-482.5"/>
<text text-anchor="middle" x="175.5" y="-560.5" font-family="Helvetica,sans-Serif" font-size="10.00">Updatable&lt;&gt;</text>
<polyline fill="none" stroke="black" points="134,-553.5 217,-553.5 "/>
<text text-anchor="middle" x="175.5" y="-541.5" font-family="Helvetica,sans-Serif" font-size="10.00"> </text>
<polyline fill="none" stroke="black" points="134,-534.5 217,-534.5 "/>
<text text-anchor="start" x="142" y="-522.5" font-family="Helvetica,sans-Serif" font-size="10.00">* begin()</text>
<text text-anchor="start" x="142" y="-511.5" font-family="Helvetica,sans-Serif" font-size="10.00">* update()</text>
<text text-anchor="start" x="142" y="-500.5" font-family="Helvetica,sans-Serif" font-size="10.00">* beginAll()</text>
<text text-anchor="start" x="142" y="-489.5" font-family="Helvetica,sans-Serif" font-size="10.00">* updateAll()</text>
</a>
</g>
</g>
<!-- Node5&#45;&gt;Node3 -->
<g id="edge4" class="edge">
<title>Node5&#45;&gt;Node3</title>
<path fill="none" stroke="midnightblue" d="M143.18,-473.53C137.54,-464.28 131.57,-454.49 125.62,-444.74"/>
<polygon fill="none" stroke="midnightblue" points="140.28,-475.5 148.48,-482.21 146.26,-471.85 140.28,-475.5"/>
</g>
<!-- Node6 -->
<g id="node6" class="node">
<title>Node6</title>
<g id="a_node6"><a xlink:href="../../d8/d1a/classAH_1_1UpdatableCRTP.html" target="_top" xlink:title=" ">
<polygon fill="white" stroke="black" points="99,-610.5 99,-887.5 252,-887.5 252,-610.5 99,-610.5"/>
<text text-anchor="start" x="107" y="-875.5" font-family="Helvetica,sans-Serif" font-size="10.00">UpdatableCRTP&lt; Updatable</text>
<text text-anchor="start" x="107" y="-864.5" font-family="Helvetica,sans-Serif" font-size="10.00">&lt; NormalUpdatable, false</text>
<text text-anchor="middle" x="175.5" y="-853.5" font-family="Helvetica,sans-Serif" font-size="10.00"> &gt;, false &gt;</text>
<polyline fill="none" stroke="black" points="99,-846.5 252,-846.5 "/>
<text text-anchor="start" x="107" y="-834.5" font-family="Helvetica,sans-Serif" font-size="10.00"># mutex</text>
<polyline fill="none" stroke="black" points="99,-827.5 252,-827.5 "/>
<text text-anchor="start" x="107" y="-815.5" font-family="Helvetica,sans-Serif" font-size="10.00">+ ~UpdatableCRTP()</text>
<text text-anchor="start" x="107" y="-804.5" font-family="Helvetica,sans-Serif" font-size="10.00">+ getMutex()</text>
<text text-anchor="start" x="107" y="-793.5" font-family="Helvetica,sans-Serif" font-size="10.00"># UpdatableCRTP()</text>
<text text-anchor="start" x="107" y="-782.5" font-family="Helvetica,sans-Serif" font-size="10.00">* enable()</text>
<text text-anchor="start" x="107" y="-771.5" font-family="Helvetica,sans-Serif" font-size="10.00">* enable()</text>
<text text-anchor="start" x="107" y="-760.5" font-family="Helvetica,sans-Serif" font-size="10.00">* disable()</text>
<text text-anchor="start" x="107" y="-749.5" font-family="Helvetica,sans-Serif" font-size="10.00">* disable()</text>
<text text-anchor="start" x="107" y="-738.5" font-family="Helvetica,sans-Serif" font-size="10.00">* isEnabled()</text>
<text text-anchor="start" x="107" y="-727.5" font-family="Helvetica,sans-Serif" font-size="10.00">* isEnabled()</text>
<text text-anchor="start" x="107" y="-716.5" font-family="Helvetica,sans-Serif" font-size="10.00">* moveDown()</text>
<text text-anchor="start" x="107" y="-705.5" font-family="Helvetica,sans-Serif" font-size="10.00">* moveDown()</text>
<text text-anchor="start" x="107" y="-694.5" font-family="Helvetica,sans-Serif" font-size="10.00">* enable()</text>
<text text-anchor="start" x="107" y="-683.5" font-family="Helvetica,sans-Serif" font-size="10.00">* enable()</text>
<text text-anchor="start" x="107" y="-672.5" font-family="Helvetica,sans-Serif" font-size="10.00">* enable()</text>
<text text-anchor="start" x="107" y="-661.5" font-family="Helvetica,sans-Serif" font-size="10.00">* disable()</text>
<text text-anchor="start" x="107" y="-650.5" font-family="Helvetica,sans-Serif" font-size="10.00">* disable()</text>
<text text-anchor="start" x="107" y="-639.5" font-family="Helvetica,sans-Serif" font-size="10.00">* disable()</text>
<text text-anchor="start" x="107" y="-628.5" font-family="Helvetica,sans-Serif" font-size="10.00">* applyToAll()</text>
<text text-anchor="start" x="107" y="-617.5" font-family="Helvetica,sans-Serif" font-size="10.00">* applyToAll()</text>
</a>
</g>
</g>
<!-- Node6&#45;&gt;Node5 -->
<g id="edge5" class="edge">
<title>Node6&#45;&gt;Node5</title>
<path fill="none" stroke="midnightblue" d="M175.5,-599.98C175.5,-590.28 175.5,-581.03 175.5,-572.61"/>
<polygon fill="none" stroke="midnightblue" points="172,-600.23 175.5,-610.23 179,-600.23 172,-600.23"/>
</g>
<!-- Node7 -->
<g id="node7" class="node">
<title>Node7</title>
<g id="a_node7"><a xlink:href="../../d4/d23/classDoublyLinkable.html" target="_top" xlink:title=" ">
<polygon fill="white" stroke="black" points="0,-1051 0,-1130 167,-1130 167,-1051 0,-1051"/>
<text text-anchor="start" x="8" y="-1118" font-family="Helvetica,sans-Serif" font-size="10.00">DoublyLinkable&lt; Updatable</text>
<text text-anchor="middle" x="83.5" y="-1107" font-family="Helvetica,sans-Serif" font-size="10.00">&lt; NormalUpdatable, false &gt; &gt;</text>
<polyline fill="none" stroke="black" points="0,-1100 167,-1100 "/>
<text text-anchor="start" x="8" y="-1088" font-family="Helvetica,sans-Serif" font-size="10.00"># next</text>
<text text-anchor="start" x="8" y="-1077" font-family="Helvetica,sans-Serif" font-size="10.00"># previous</text>
<polyline fill="none" stroke="black" points="0,-1070 167,-1070 "/>
<text text-anchor="start" x="8" y="-1058" font-family="Helvetica,sans-Serif" font-size="10.00"># ~DoublyLinkable()</text>
</a>
</g>
</g>
<!-- Node7&#45;&gt;Node6 -->
<g id="edge6" class="edge">
<title>Node7&#45;&gt;Node6</title>
<path fill="none" stroke="midnightblue" d="M96.61,-1041.12C107.47,-1001.06 123.45,-942.09 138.19,-887.68"/>
<polygon fill="none" stroke="midnightblue" points="93.2,-1040.32 93.96,-1050.89 99.96,-1042.15 93.2,-1040.32"/>
</g>
<!-- Node8 -->
<g id="node8" class="node">
<title>Node8</title>
<g id="a_node8"><a xlink:href="../../dd/d16/classDoublyLinkedList.html" target="_top" xlink:title=" ">
<polygon fill="white" stroke="black" points="185,-935.5 185,-1245.5 352,-1245.5 352,-935.5 185,-935.5"/>
<text text-anchor="start" x="193" y="-1233.5" font-family="Helvetica,sans-Serif" font-size="10.00">DoublyLinkedList&lt; Updatable</text>
<text text-anchor="middle" x="268.5" y="-1222.5" font-family="Helvetica,sans-Serif" font-size="10.00">&lt; NormalUpdatable, false &gt; &gt;</text>
<polyline fill="none" stroke="black" points="185,-1215.5 352,-1215.5 "/>
<text text-anchor="start" x="193" y="-1203.5" font-family="Helvetica,sans-Serif" font-size="10.00">&#45; first</text>
<text text-anchor="start" x="193" y="-1192.5" font-family="Helvetica,sans-Serif" font-size="10.00">&#45; last</text>
<polyline fill="none" stroke="black" points="185,-1185.5 352,-1185.5 "/>
<text text-anchor="start" x="193" y="-1173.5" font-family="Helvetica,sans-Serif" font-size="10.00">+ append()</text>
<text text-anchor="start" x="193" y="-1162.5" font-family="Helvetica,sans-Serif" font-size="10.00">+ append()</text>
<text text-anchor="start" x="193" y="-1151.5" font-family="Helvetica,sans-Serif" font-size="10.00">+ insertBefore()</text>
<text text-anchor="start" x="193" y="-1140.5" font-family="Helvetica,sans-Serif" font-size="10.00">+ insertBefore()</text>
<text text-anchor="start" x="193" y="-1129.5" font-family="Helvetica,sans-Serif" font-size="10.00">+ insertSorted()</text>
<text text-anchor="start" x="193" y="-1118.5" font-family="Helvetica,sans-Serif" font-size="10.00">+ insertSorted()</text>
<text text-anchor="start" x="193" y="-1107.5" font-family="Helvetica,sans-Serif" font-size="10.00">+ remove()</text>
<text text-anchor="start" x="193" y="-1096.5" font-family="Helvetica,sans-Serif" font-size="10.00">+ remove()</text>
<text text-anchor="start" x="193" y="-1085.5" font-family="Helvetica,sans-Serif" font-size="10.00">+ moveDown()</text>
<text text-anchor="start" x="193" y="-1074.5" font-family="Helvetica,sans-Serif" font-size="10.00">+ moveDown()</text>
<text text-anchor="start" x="193" y="-1063.5" font-family="Helvetica,sans-Serif" font-size="10.00">+ couldContain()</text>
<text text-anchor="start" x="193" y="-1052.5" font-family="Helvetica,sans-Serif" font-size="10.00">+ couldContain()</text>
<text text-anchor="start" x="193" y="-1041.5" font-family="Helvetica,sans-Serif" font-size="10.00">+ begin()</text>
<text text-anchor="start" x="193" y="-1030.5" font-family="Helvetica,sans-Serif" font-size="10.00">+ begin()</text>
<text text-anchor="start" x="193" y="-1019.5" font-family="Helvetica,sans-Serif" font-size="10.00">+ end()</text>
<text text-anchor="start" x="193" y="-1008.5" font-family="Helvetica,sans-Serif" font-size="10.00">+ end()</text>
<text text-anchor="start" x="193" y="-997.5" font-family="Helvetica,sans-Serif" font-size="10.00">+ rbegin()</text>
<text text-anchor="start" x="193" y="-986.5" font-family="Helvetica,sans-Serif" font-size="10.00">+ rbegin()</text>
<text text-anchor="start" x="193" y="-975.5" font-family="Helvetica,sans-Serif" font-size="10.00">+ rend()</text>
<text text-anchor="start" x="193" y="-964.5" font-family="Helvetica,sans-Serif" font-size="10.00">+ rend()</text>
<text text-anchor="start" x="193" y="-953.5" font-family="Helvetica,sans-Serif" font-size="10.00">+ getFirst()</text>
<text text-anchor="start" x="193" y="-942.5" font-family="Helvetica,sans-Serif" font-size="10.00">+ getLast()</text>
</a>
</g>
</g>
<!-- Node8&#45;&gt;Node6 -->
<g id="edge7" class="edge">
<title>Node8&#45;&gt;Node6</title>
<path fill="none" stroke="#404040" d="M226.22,-935.15C222.96,-923.26 219.68,-911.27 216.43,-899.41"/>
<polygon fill="none" stroke="#404040" points="216.37,-899.18 210.92,-894.45 213.2,-887.61 218.64,-892.34 216.37,-899.18"/>
<text text-anchor="middle" x="251.5" y="-909" font-family="Helvetica,sans-Serif" font-size="10.00"> #updatables</text>
</g>
<!-- Node9 -->
<g id="node9" class="node">
<title>Node9</title>
<g id="a_node9"><a xlink:title=" ">
<polygon fill="white" stroke="#bfbfbf" points="159,-338 159,-395 200,-395 200,-338 159,-338"/>
<text text-anchor="middle" x="179.5" y="-383" font-family="Helvetica,sans-Serif" font-size="10.00">pin_t</text>
<polyline fill="none" stroke="#bfbfbf" points="159,-376 200,-376 "/>
<text text-anchor="middle" x="179.5" y="-364" font-family="Helvetica,sans-Serif" font-size="10.00"> </text>
<polyline fill="none" stroke="#bfbfbf" points="159,-357 200,-357 "/>
<text text-anchor="middle" x="179.5" y="-345" font-family="Helvetica,sans-Serif" font-size="10.00"> </text>
</a>
</g>
</g>
<!-- Node9&#45;&gt;Node2 -->
<g id="edge8" class="edge">
<title>Node9&#45;&gt;Node2</title>
<path fill="none" stroke="#404040" d="M172.3,-337.76C166.53,-315.54 158.12,-283.13 150.21,-252.64"/>
<polygon fill="none" stroke="#404040" points="150.11,-252.25 144.73,-247.45 147.09,-240.63 152.47,-245.44 150.11,-252.25"/>
<text text-anchor="middle" x="181.5" y="-262" font-family="Helvetica,sans-Serif" font-size="10.00"> &#45;switchPin</text>
</g>
</g>
</svg>
