<?xml version="1.0" encoding="UTF-8" standalone="no"?>
<!DOCTYPE svg PUBLIC "-//W3C//DTD SVG 1.1//EN"
 "http://www.w3.org/Graphics/SVG/1.1/DTD/svg11.dtd">
<!-- Generated by graphviz version 2.43.0 (0)
 -->
<!-- Title: Hardware Pages: 1 -->
<svg width="396pt" height="204pt"
 viewBox="0.00 0.00 396.00 204.00" xmlns="http://www.w3.org/2000/svg" xmlns:xlink="http://www.w3.org/1999/xlink">
<g id="graph0" class="graph" transform="scale(1 1) rotate(0) translate(4 200)">
<title>Hardware</title>
<g id="clust1" class="cluster">
<title>clusterdir_15b6432dff6a6d357bf70f8fbf2cdf14</title>
<g id="a_clust1"><a xlink:href="dir_15b6432dff6a6d357bf70f8fbf2cdf14.html" target="_top" xlink:title="AH">
<polygon fill="#eef0f6" stroke="#7f7f7f" stroke-dasharray="5,2" points="8,-8 8,-188 380,-188 380,-8 8,-8"/>
<text text-anchor="middle" x="194" y="-176" font-family="Helvetica,sans-Serif" font-size="10.00">AH</text>
</a>
</g>
</g>
<g id="clust2" class="cluster">
<title>clusterdir_fe496568715fe26a65b354e6e2365ccd</title>
<g id="a_clust2"><a xlink:href="dir_fe496568715fe26a65b354e6e2365ccd.html" target="_top">
<polygon fill="#eef0f6" stroke="#404040" stroke-width="2" points="16,-16 16,-161 152,-161 152,-16 16,-16"/>
</a>
</g>
</g>
<!-- dir_17c5e84722ec43f18e2d8633178d0f79 -->
<g id="node1" class="node">
<title>dir_17c5e84722ec43f18e2d8633178d0f79</title>
<g id="a_node1"><a xlink:href="dir_17c5e84722ec43f18e2d8633178d0f79.html" target="_top" xlink:title="Math">
<polygon fill="#a7b5d1" stroke="#404040" points="351.5,-98 310.5,-98 310.5,-79 351.5,-79 351.5,-98"/>
<text text-anchor="middle" x="331" y="-86" font-family="Helvetica,sans-Serif" font-size="10.00">Math</text>
</a>
</g>
</g>
<!-- dir_a084c16939eb8fb9f97e0d007826b989 -->
<g id="node2" class="node">
<title>dir_a084c16939eb8fb9f97e0d007826b989</title>
<g id="a_node2"><a xlink:href="dir_a084c16939eb8fb9f97e0d007826b989.html" target="_top" xlink:title="Error">
<polygon fill="#a7b5d1" stroke="#404040" points="200,-43 160,-43 160,-24 200,-24 200,-43"/>
<text text-anchor="middle" x="180" y="-31" font-family="Helvetica,sans-Serif" font-size="10.00">Error</text>
</a>
</g>
</g>
<!-- dir_a47c593fc78d643c88f09a46c50bf78a -->
<g id="node3" class="node">
<title>dir_a47c593fc78d643c88f09a46c50bf78a</title>
<g id="a_node3"><a xlink:href="dir_a47c593fc78d643c88f09a46c50bf78a.html" target="_top" xlink:title="Containers">
<polygon fill="#a7b5d1" stroke="#404040" points="366.5,-43 297.5,-43 297.5,-24 366.5,-24 366.5,-43"/>
<text text-anchor="middle" x="332" y="-31" font-family="Helvetica,sans-Serif" font-size="10.00">Containers</text>
</a>
</g>
</g>
<!-- dir_c93ba603db00711c7f5106968469b448 -->
<g id="node4" class="node">
<title>dir_c93ba603db00711c7f5106968469b448</title>
<g id="a_node4"><a xlink:href="dir_c93ba603db00711c7f5106968469b448.html" target="_top" xlink:title="Settings">
<polygon fill="#a7b5d1" stroke="#404040" points="274,-43 218,-43 218,-24 274,-24 274,-43"/>
<text text-anchor="middle" x="246" y="-31" font-family="Helvetica,sans-Serif" font-size="10.00">Settings</text>
</a>
</g>
</g>
<!-- dir_d61b814a793619a867cee0523d2eb6da -->
<g id="node5" class="node">
<title>dir_d61b814a793619a867cee0523d2eb6da</title>
<g id="a_node5"><a xlink:href="dir_d61b814a793619a867cee0523d2eb6da.html" target="_top" xlink:title="Filters">
<polygon fill="#a7b5d1" stroke="#404040" points="229.5,-98 182.5,-98 182.5,-79 229.5,-79 229.5,-98"/>
<text text-anchor="middle" x="206" y="-86" font-family="Helvetica,sans-Serif" font-size="10.00">Filters</text>
</a>
</g>
</g>
<!-- dir_dbe54f2115b12050a4f51da0d7c3487b -->
<g id="node6" class="node">
<title>dir_dbe54f2115b12050a4f51da0d7c3487b</title>
<g id="a_node6"><a xlink:href="dir_dbe54f2115b12050a4f51da0d7c3487b.html" target="_top" xlink:title="Types">
<polygon fill="#a7b5d1" stroke="#404040" points="292,-98 248,-98 248,-79 292,-79 292,-98"/>
<text text-anchor="middle" x="270" y="-86" font-family="Helvetica,sans-Serif" font-size="10.00">Types</text>
</a>
</g>
</g>
<!-- dir_fe496568715fe26a65b354e6e2365ccd -->
<g id="node7" class="node">
<title>dir_fe496568715fe26a65b354e6e2365ccd</title>
<text text-anchor="middle" x="112" y="-141" font-family="Helvetica,sans-Serif" font-size="10.00">Hardware</text>
</g>
<!-- dir_fe496568715fe26a65b354e6e2365ccd&#45;&gt;dir_17c5e84722ec43f18e2d8633178d0f79 -->
<g id="edge1" class="edge">
<title>dir_fe496568715fe26a65b354e6e2365ccd&#45;&gt;dir_17c5e84722ec43f18e2d8633178d0f79</title>
<g id="a_edge1"><a xlink:href="dir_000025_000032.html" target="_top">
<path fill="none" stroke="#63b8ff" d="M144.21,-135.38C180,-127.36 239.72,-113.69 300.6,-98.01"/>
<polygon fill="#63b8ff" stroke="#63b8ff" points="301.57,-101.37 310.38,-95.47 299.82,-94.6 301.57,-101.37"/>
</a>
</g>
<g id="a_edge1&#45;headlabel"><a xlink:href="dir_000025_000032.html" target="_top" xlink:title="2">
<text text-anchor="middle" x="298.81" y="-102.52" font-family="Helvetica,sans-Serif" font-size="10.00" fill="#63b8ff">2</text>
</a>
</g>
</g>
<!-- dir_fe496568715fe26a65b354e6e2365ccd&#45;&gt;dir_a47c593fc78d643c88f09a46c50bf78a -->
<g id="edge3" class="edge">
<title>dir_fe496568715fe26a65b354e6e2365ccd&#45;&gt;dir_a47c593fc78d643c88f09a46c50bf78a</title>
<g id="a_edge3"><a xlink:href="dir_000025_000011.html" target="_top">
<path fill="none" stroke="#63b8ff" d="M144.4,-141.66C205.42,-139.33 333.73,-130.58 361,-98 372.84,-83.86 360.36,-64.1 348.29,-50.39"/>
<polygon fill="#63b8ff" stroke="#63b8ff" points="350.83,-47.98 341.42,-43.11 345.74,-52.79 350.83,-47.98"/>
</a>
</g>
<g id="a_edge3&#45;headlabel"><a xlink:href="dir_000025_000011.html" target="_top" xlink:title="8">
<text text-anchor="middle" x="355.36" y="-46.15" font-family="Helvetica,sans-Serif" font-size="10.00" fill="#63b8ff">8</text>
</a>
</g>
</g>
<!-- dir_fe496568715fe26a65b354e6e2365ccd&#45;&gt;dir_c93ba603db00711c7f5106968469b448 -->
<g id="edge4" class="edge">
<title>dir_fe496568715fe26a65b354e6e2365ccd&#45;&gt;dir_c93ba603db00711c7f5106968469b448</title>
<g id="a_edge4"><a xlink:href="dir_000025_000046.html" target="_top">
<path fill="none" stroke="#63b8ff" d="M119.81,-133.83C133.56,-118.67 161.68,-88.09 173,-79 187.72,-67.19 205.82,-56.13 220.32,-47.99"/>
<polygon fill="#63b8ff" stroke="#63b8ff" points="222.17,-50.97 229.25,-43.09 218.8,-44.83 222.17,-50.97"/>
</a>
</g>
<g id="a_edge4&#45;headlabel"><a xlink:href="dir_000025_000046.html" target="_top" xlink:title="7">
<text text-anchor="middle" x="220.39" y="-52.69" font-family="Helvetica,sans-Serif" font-size="10.00" fill="#63b8ff">7</text>
</a>
</g>
</g>
<!-- dir_fe496568715fe26a65b354e6e2365ccd&#45;&gt;dir_d61b814a793619a867cee0523d2eb6da -->
<g id="edge5" class="edge">
<title>dir_fe496568715fe26a65b354e6e2365ccd&#45;&gt;dir_d61b814a793619a867cee0523d2eb6da</title>
<g id="a_edge5"><a xlink:href="dir_000025_000024.html" target="_top">
<path fill="none" stroke="#63b8ff" d="M127.1,-133.98C141.82,-125.69 164.42,-112.94 181.67,-103.22"/>
<polygon fill="#63b8ff" stroke="#63b8ff" points="183.63,-106.13 190.62,-98.17 180.19,-100.03 183.63,-106.13"/>
</a>
</g>
<g id="a_edge5&#45;headlabel"><a xlink:href="dir_000025_000024.html" target="_top" xlink:title="2">
<text text-anchor="middle" x="181.89" y="-107.87" font-family="Helvetica,sans-Serif" font-size="10.00" fill="#63b8ff">2</text>
</a>
</g>
</g>
<!-- dir_fe496568715fe26a65b354e6e2365ccd&#45;&gt;dir_dbe54f2115b12050a4f51da0d7c3487b -->
<g id="edge6" class="edge">
<title>dir_fe496568715fe26a65b354e6e2365ccd&#45;&gt;dir_dbe54f2115b12050a4f51da0d7c3487b</title>
<g id="a_edge6"><a xlink:href="dir_000025_000053.html" target="_top">
<path fill="none" stroke="#63b8ff" d="M137.39,-133.98C164.77,-124.8 208.44,-110.15 238.12,-100.19"/>
<polygon fill="#63b8ff" stroke="#63b8ff" points="239.62,-103.38 247.99,-96.88 237.4,-96.74 239.62,-103.38"/>
</a>
</g>
<g id="a_edge6&#45;headlabel"><a xlink:href="dir_000025_000053.html" target="_top" xlink:title="1">
<text text-anchor="middle" x="237.12" y="-104.72" font-family="Helvetica,sans-Serif" font-size="10.00" fill="#63b8ff">1</text>
</a>
</g>
</g>
<!-- dir_6d0023d18521cff94ce9c6d6e763c3b1 -->
<g id="node8" class="node">
<title>dir_6d0023d18521cff94ce9c6d6e763c3b1</title>
<g id="a_node8"><a xlink:href="dir_6d0023d18521cff94ce9c6d6e763c3b1.html" target="_top" xlink:title="ExtendedInputOutput">
<polygon fill="#a7b5d1" stroke="#404040" points="144,-98 24,-98 24,-79 144,-79 144,-98"/>
<text text-anchor="middle" x="84" y="-86" font-family="Helvetica,sans-Serif" font-size="10.00">ExtendedInputOutput</text>
</a>
</g>
</g>
<!-- dir_fe496568715fe26a65b354e6e2365ccd&#45;&gt;dir_6d0023d18521cff94ce9c6d6e763c3b1 -->
<g id="edge2" class="edge">
<title>dir_fe496568715fe26a65b354e6e2365ccd&#45;&gt;dir_6d0023d18521cff94ce9c6d6e763c3b1</title>
<g id="a_edge2"><a xlink:href="dir_000025_000023.html" target="_top">
<path fill="none" stroke="#63b8ff" d="M107.38,-133.75C103.54,-126.49 97.98,-115.95 93.24,-106.98"/>
<polygon fill="#63b8ff" stroke="#63b8ff" points="96.3,-105.3 88.54,-98.09 90.11,-108.57 96.3,-105.3"/>
</a>
</g>
<g id="a_edge2&#45;headlabel"><a xlink:href="dir_000025_000023.html" target="_top" xlink:title="5">
<text text-anchor="middle" x="100.49" y="-104.65" font-family="Helvetica,sans-Serif" font-size="10.00" fill="#63b8ff">5</text>
</a>
</g>
</g>
<!-- dir_6d0023d18521cff94ce9c6d6e763c3b1&#45;&gt;dir_a084c16939eb8fb9f97e0d007826b989 -->
<g id="edge8" class="edge">
<title>dir_6d0023d18521cff94ce9c6d6e763c3b1&#45;&gt;dir_a084c16939eb8fb9f97e0d007826b989</title>
<g id="a_edge8"><a xlink:href="dir_000023_000019.html" target="_top">
<path fill="none" stroke="#63b8ff" d="M99.42,-78.98C114.45,-70.69 137.54,-57.94 155.16,-48.22"/>
<polygon fill="#63b8ff" stroke="#63b8ff" points="157.23,-51.07 164.3,-43.17 153.85,-44.94 157.23,-51.07"/>
</a>
</g>
<g id="a_edge8&#45;headlabel"><a xlink:href="dir_000023_000019.html" target="_top" xlink:title="2">
<text text-anchor="middle" x="155.46" y="-52.79" font-family="Helvetica,sans-Serif" font-size="10.00" fill="#63b8ff">2</text>
</a>
</g>
</g>
<!-- dir_6d0023d18521cff94ce9c6d6e763c3b1&#45;&gt;dir_a47c593fc78d643c88f09a46c50bf78a -->
<g id="edge9" class="edge">
<title>dir_6d0023d18521cff94ce9c6d6e763c3b1&#45;&gt;dir_a47c593fc78d643c88f09a46c50bf78a</title>
<g id="a_edge9"><a xlink:href="dir_000023_000011.html" target="_top">
<path fill="none" stroke="#63b8ff" d="M123.85,-78.98C168.62,-69.42 241.11,-53.92 287.65,-43.98"/>
<polygon fill="#63b8ff" stroke="#63b8ff" points="288.41,-47.4 297.45,-41.88 286.94,-40.55 288.41,-47.4"/>
</a>
</g>
<g id="a_edge9&#45;headlabel"><a xlink:href="dir_000023_000011.html" target="_top" xlink:title="6">
<text text-anchor="middle" x="285.48" y="-48.42" font-family="Helvetica,sans-Serif" font-size="10.00" fill="#63b8ff">6</text>
</a>
</g>
</g>
<!-- dir_6d0023d18521cff94ce9c6d6e763c3b1&#45;&gt;dir_c93ba603db00711c7f5106968469b448 -->
<g id="edge10" class="edge">
<title>dir_6d0023d18521cff94ce9c6d6e763c3b1&#45;&gt;dir_c93ba603db00711c7f5106968469b448</title>
<g id="a_edge10"><a xlink:href="dir_000023_000046.html" target="_top">
<path fill="none" stroke="#63b8ff" d="M110.03,-78.98C137.11,-70.13 179.71,-56.19 210.01,-46.28"/>
<polygon fill="#63b8ff" stroke="#63b8ff" points="211.35,-49.52 219.77,-43.08 209.18,-42.87 211.35,-49.52"/>
</a>
</g>
<g id="a_edge10&#45;headlabel"><a xlink:href="dir_000023_000046.html" target="_top" xlink:title="2">
<text text-anchor="middle" x="208.82" y="-50.83" font-family="Helvetica,sans-Serif" font-size="10.00" fill="#63b8ff">2</text>
</a>
</g>
</g>
<!-- dir_242b6e8526387d642d81914582ef5537 -->
<g id="node9" class="node">
<title>dir_242b6e8526387d642d81914582ef5537</title>
<g id="a_node9"><a xlink:href="dir_242b6e8526387d642d81914582ef5537.html" target="_top" xlink:title="LEDs">
<polygon fill="#a7b5d1" stroke="#404040" points="104.5,-43 63.5,-43 63.5,-24 104.5,-24 104.5,-43"/>
<text text-anchor="middle" x="84" y="-31" font-family="Helvetica,sans-Serif" font-size="10.00">LEDs</text>
</a>
</g>
</g>
<!-- dir_6d0023d18521cff94ce9c6d6e763c3b1&#45;&gt;dir_242b6e8526387d642d81914582ef5537 -->
<g id="edge7" class="edge">
<title>dir_6d0023d18521cff94ce9c6d6e763c3b1&#45;&gt;dir_242b6e8526387d642d81914582ef5537</title>
<g id="a_edge7"><a xlink:href="dir_000023_000027.html" target="_top">
<path fill="none" stroke="#63b8ff" d="M78.83,-78.75C77.34,-71.8 76.9,-61.85 77.52,-53.13"/>
<polygon fill="#63b8ff" stroke="#63b8ff" points="81.01,-53.47 78.87,-43.09 74.07,-52.53 81.01,-53.47"/>
</a>
</g>
<g id="a_edge7&#45;headlabel"><a xlink:href="dir_000023_000027.html" target="_top" xlink:title="1">
<text text-anchor="middle" x="83.34" y="-54.91" font-family="Helvetica,sans-Serif" font-size="10.00" fill="#63b8ff">1</text>
</a>
</g>
</g>
<!-- dir_242b6e8526387d642d81914582ef5537&#45;&gt;dir_6d0023d18521cff94ce9c6d6e763c3b1 -->
<g id="edge11" class="edge">
<title>dir_242b6e8526387d642d81914582ef5537&#45;&gt;dir_6d0023d18521cff94ce9c6d6e763c3b1</title>
<g id="a_edge11"><a xlink:href="dir_000027_000023.html" target="_top">
<path fill="none" stroke="#63b8ff" d="M89.13,-43.09C90.64,-49.99 91.09,-59.93 90.49,-68.66"/>
<polygon fill="#63b8ff" stroke="#63b8ff" points="87,-68.38 89.17,-78.75 93.94,-69.29 87,-68.38"/>
</a>
</g>
<g id="a_edge11&#45;headlabel"><a xlink:href="dir_000027_000023.html" target="_top" xlink:title="2">
<text text-anchor="middle" x="84.65" y="-61.94" font-family="Helvetica,sans-Serif" font-size="10.00" fill="#63b8ff">2</text>
</a>
</g>
</g>
</g>
</svg>
