<?xml version="1.0" encoding="UTF-8" standalone="no"?>
<!DOCTYPE svg PUBLIC "-//W3C//DTD SVG 1.1//EN"
 "http://www.w3.org/Graphics/SVG/1.1/DTD/svg11.dtd">
<!-- Generated by graphviz version 2.43.0 (0)
 -->
<!-- Title: Graphical Class Hierarchy Pages: 1 -->
<svg width="591pt" height="258pt"
 viewBox="0.00 0.00 591.00 257.50" xmlns="http://www.w3.org/2000/svg" xmlns:xlink="http://www.w3.org/1999/xlink">
<g id="graph0" class="graph" transform="scale(1 1) rotate(0) translate(4 253.5)">
<title>Graphical Class Hierarchy</title>
<!-- Node0 -->
<g id="Node000000" class="node">
<title>Node0</title>
<g id="a_Node000000"><a xlink:href="d2/d4e/classOutputBankableMIDIAddress__Base.html" target="_top" xlink:title="Class for keeping track of the active bank, and allows locking of the bank setting.">
<polygon fill="white" stroke="#666666" points="185,-108 0,-108 0,-89 185,-89 185,-108"/>
<text text-anchor="middle" x="92.5" y="-96" font-family="Helvetica,sans-Serif" font-size="10.00">OutputBankableMIDIAddress_Base</text>
</a>
</g>
</g>
<!-- Node1 -->
<g id="Node000001" class="node">
<title>Node1</title>
<g id="a_Node000001"><a xlink:href="dd/d3a/classManyAddresses__Base.html" target="_top" xlink:title="A base class for all MIDIOutputElements that can have one of many addresses.">
<polygon fill="white" stroke="#666666" points="360.5,-177 237.5,-177 237.5,-158 360.5,-158 360.5,-177"/>
<text text-anchor="middle" x="299" y="-165" font-family="Helvetica,sans-Serif" font-size="10.00">ManyAddresses_Base</text>
</a>
</g>
</g>
<!-- Node0&#45;&gt;Node1 -->
<g id="edge366_Node000000_Node000001" class="edge">
<title>Node0&#45;&gt;Node1</title>
<g id="a_edge366_Node000000_Node000001"><a xlink:title=" ">
<path fill="none" stroke="#63b8ff" d="M131.63,-111.36C171.73,-124.9 233.91,-145.87 269.81,-157.99"/>
<polygon fill="#63b8ff" stroke="#63b8ff" points="132.53,-107.97 121.93,-108.09 130.29,-114.61 132.53,-107.97"/>
</a>
</g>
</g>
<!-- Node5 -->
<g id="Node000005" class="node">
<title>Node5</title>
<g id="a_Node000005"><a xlink:href="d2/d97/classOutputBankableMIDIAddress.html" target="_top" xlink:title="A base class for all MIDIOutputElements that can be banked.">
<polygon fill="white" stroke="#666666" points="377,-84 221,-84 221,-65 377,-65 377,-84"/>
<text text-anchor="middle" x="299" y="-72" font-family="Helvetica,sans-Serif" font-size="10.00">OutputBankableMIDIAddress</text>
</a>
</g>
</g>
<!-- Node0&#45;&gt;Node5 -->
<g id="edge370_Node000000_Node000005" class="edge">
<title>Node0&#45;&gt;Node5</title>
<g id="a_edge370_Node000000_Node000005"><a xlink:title=" ">
<path fill="none" stroke="#63b8ff" d="M184.72,-87.79C196.83,-86.37 209.14,-84.93 220.98,-83.54"/>
<polygon fill="#63b8ff" stroke="#63b8ff" points="184.14,-84.34 174.62,-88.98 184.96,-91.29 184.14,-84.34"/>
</a>
</g>
</g>
<!-- Node2 -->
<g id="Node000002" class="node">
<title>Node2</title>
<g id="a_Node000002"><a xlink:href="d1/da6/classBankable_1_1ManyAddresses_1_1DualManyAddresses.html" target="_top" xlink:title=" ">
<polygon fill="white" stroke="#666666" points="560.5,-249.5 435.5,-249.5 435.5,-219.5 560.5,-219.5 560.5,-249.5"/>
<text text-anchor="start" x="443.5" y="-237.5" font-family="Helvetica,sans-Serif" font-size="10.00">DualManyAddresses&lt;</text>
<text text-anchor="middle" x="498" y="-226.5" font-family="Helvetica,sans-Serif" font-size="10.00"> NumBanks &gt;</text>
</a>
</g>
</g>
<!-- Node1&#45;&gt;Node2 -->
<g id="edge367_Node000001_Node000002" class="edge">
<title>Node1&#45;&gt;Node2</title>
<g id="a_edge367_Node000001_Node000002"><a xlink:title=" ">
<path fill="none" stroke="#63b8ff" d="M332.98,-180.9C355.37,-189.79 385.76,-201.44 413,-210.5 422.21,-213.56 432.07,-216.59 441.67,-219.42"/>
<polygon fill="#63b8ff" stroke="#63b8ff" points="334.18,-177.61 323.6,-177.15 331.58,-184.11 334.18,-177.61"/>
</a>
</g>
</g>
<!-- Node3 -->
<g id="Node000003" class="node">
<title>Node3</title>
<g id="a_Node000003"><a xlink:href="d8/d58/classBankable_1_1ManyAddresses_1_1ManyAddresses.html" target="_top" xlink:title=" ">
<polygon fill="white" stroke="#666666" points="583,-201 413,-201 413,-182 583,-182 583,-201"/>
<text text-anchor="middle" x="498" y="-189" font-family="Helvetica,sans-Serif" font-size="10.00">ManyAddresses&lt; NumBanks &gt;</text>
</a>
</g>
</g>
<!-- Node1&#45;&gt;Node3 -->
<g id="edge368_Node000001_Node000003" class="edge">
<title>Node1&#45;&gt;Node3</title>
<g id="a_edge368_Node000001_Node000003"><a xlink:title=" ">
<path fill="none" stroke="#63b8ff" d="M370.77,-176.12C386.31,-178.02 402.86,-180.03 418.69,-181.96"/>
<polygon fill="#63b8ff" stroke="#63b8ff" points="371.06,-172.63 360.71,-174.9 370.22,-179.58 371.06,-172.63"/>
</a>
</g>
</g>
<!-- Node4 -->
<g id="Node000004" class="node">
<title>Node4</title>
<g id="a_Node000004"><a xlink:href="d7/dc9/classBankable_1_1ManyAddresses_1_1ManyMatrixAddresses.html" target="_top" xlink:title=" ">
<polygon fill="white" stroke="#666666" points="568,-164 428,-164 428,-123 568,-123 568,-164"/>
<text text-anchor="start" x="436" y="-152" font-family="Helvetica,sans-Serif" font-size="10.00">ManyMatrixAddresses</text>
<text text-anchor="start" x="436" y="-141" font-family="Helvetica,sans-Serif" font-size="10.00">&lt; NumBanks, NumRows,</text>
<text text-anchor="middle" x="498" y="-130" font-family="Helvetica,sans-Serif" font-size="10.00"> NumCols &gt;</text>
</a>
</g>
</g>
<!-- Node1&#45;&gt;Node4 -->
<g id="edge369_Node000001_Node000004" class="edge">
<title>Node1&#45;&gt;Node4</title>
<g id="a_edge369_Node000001_Node000004"><a xlink:title=" ">
<path fill="none" stroke="#63b8ff" d="M370.86,-158.87C389.42,-156.61 409.41,-154.17 427.88,-151.92"/>
<polygon fill="#63b8ff" stroke="#63b8ff" points="370.22,-155.42 360.71,-160.1 371.06,-162.37 370.22,-155.42"/>
</a>
</g>
</g>
<!-- Node6 -->
<g id="Node000006" class="node">
<title>Node6</title>
<g id="a_Node000006"><a xlink:href="dc/d06/classBankable_1_1DualAddresses.html" target="_top" xlink:title=" ">
<polygon fill="white" stroke="#666666" points="542.5,-105 453.5,-105 453.5,-86 542.5,-86 542.5,-105"/>
<text text-anchor="middle" x="498" y="-93" font-family="Helvetica,sans-Serif" font-size="10.00">DualAddresses</text>
</a>
</g>
</g>
<!-- Node5&#45;&gt;Node6 -->
<g id="edge371_Node000005_Node000006" class="edge">
<title>Node5&#45;&gt;Node6</title>
<g id="a_edge371_Node000005_Node000006"><a xlink:title=" ">
<path fill="none" stroke="#63b8ff" d="M387.12,-83.79C410.03,-86.23 433.79,-88.76 453.32,-90.84"/>
<polygon fill="#63b8ff" stroke="#63b8ff" points="387.33,-80.29 377.01,-82.71 386.58,-87.25 387.33,-80.29"/>
</a>
</g>
</g>
<!-- Node7 -->
<g id="Node000007" class="node">
<title>Node7</title>
<g id="a_Node000007"><a xlink:href="d7/db5/classBankable_1_1MatrixAddress.html" target="_top" xlink:title=" ">
<polygon fill="white" stroke="#666666" points="573.5,-67.5 422.5,-67.5 422.5,-37.5 573.5,-37.5 573.5,-67.5"/>
<text text-anchor="start" x="430.5" y="-55.5" font-family="Helvetica,sans-Serif" font-size="10.00">MatrixAddress&lt; NumRows,</text>
<text text-anchor="middle" x="498" y="-44.5" font-family="Helvetica,sans-Serif" font-size="10.00"> NumCols &gt;</text>
</a>
</g>
</g>
<!-- Node5&#45;&gt;Node7 -->
<g id="edge372_Node000005_Node000007" class="edge">
<title>Node5&#45;&gt;Node7</title>
<g id="a_edge372_Node000005_Node000007"><a xlink:title=" ">
<path fill="none" stroke="#63b8ff" d="M387.22,-64.76C398.93,-63.45 410.84,-62.12 422.3,-60.84"/>
<polygon fill="#63b8ff" stroke="#63b8ff" points="386.56,-61.31 377.01,-65.9 387.34,-68.27 386.56,-61.31"/>
</a>
</g>
</g>
<!-- Node8 -->
<g id="Node000008" class="node">
<title>Node8</title>
<g id="a_Node000008"><a xlink:href="df/de5/classBankable_1_1SingleAddress.html" target="_top" xlink:title=" ">
<polygon fill="white" stroke="#666666" points="541,-19 455,-19 455,0 541,0 541,-19"/>
<text text-anchor="middle" x="498" y="-7" font-family="Helvetica,sans-Serif" font-size="10.00">SingleAddress</text>
</a>
</g>
</g>
<!-- Node5&#45;&gt;Node8 -->
<g id="edge373_Node000005_Node000008" class="edge">
<title>Node5&#45;&gt;Node8</title>
<g id="a_edge373_Node000005_Node000008"><a xlink:title=" ">
<path fill="none" stroke="#63b8ff" d="M329.79,-60.8C352.29,-50.84 384.13,-37.57 413,-28.5 426.41,-24.29 441.29,-20.6 454.77,-17.63"/>
<polygon fill="#63b8ff" stroke="#63b8ff" points="328.15,-57.7 320.45,-64.98 331.01,-64.09 328.15,-57.7"/>
</a>
</g>
</g>
</g>
</svg>
