<?xml version="1.0" encoding="UTF-8" standalone="no"?>
<!DOCTYPE svg PUBLIC "-//W3C//DTD SVG 1.1//EN"
 "http://www.w3.org/Graphics/SVG/1.1/DTD/svg11.dtd">
<!-- Generated by graphviz version 2.43.0 (0)
 -->
<!-- Title: NoteButtonMatrix&lt; NumRows, NumCols &gt; Pages: 1 -->
<svg width="838pt" height="1211pt"
 viewBox="0.00 0.00 837.96 1211.00" xmlns="http://www.w3.org/2000/svg" xmlns:xlink="http://www.w3.org/1999/xlink">
<g id="graph0" class="graph" transform="scale(1 1) rotate(0) translate(4 1207)">
<title>NoteButtonMatrix&lt; NumRows, NumCols &gt;</title>
<!-- Node1 -->
<g id="Node000001" class="node">
<title>Node1</title>
<g id="a_Node000001"><a xlink:title="A class of MIDIOutputElements that read the input from a matrix of momentary push buttons or switches...">
<polygon fill="#999999" stroke="transparent" points="609.96,-90 448.96,-90 448.96,0 609.96,0 609.96,-90"/>
<text text-anchor="start" x="454.46" y="-78" font-family="Helvetica,sans-Serif" font-size="10.00">NoteButtonMatrix&lt; NumRows,</text>
<text text-anchor="start" x="500.46" y="-67" font-family="Helvetica,sans-Serif" font-size="10.00"> NumCols &gt;</text>
<text text-anchor="start" x="527.96" y="-52" font-family="Helvetica,sans-Serif" font-size="10.00"> </text>
<text text-anchor="start" x="464.46" y="-37" font-family="Helvetica,sans-Serif" font-size="10.00">+</text>
<text text-anchor="start" x="488.46" y="-37" font-family="Helvetica,sans-Serif" font-size="10.00">NoteButtonMatrix()</text>
<text text-anchor="start" x="464.46" y="-22" font-family="Helvetica,sans-Serif" font-size="10.00">+</text>
<text text-anchor="start" x="488.46" y="-22" font-family="Helvetica,sans-Serif" font-size="10.00">setVelocity()</text>
<text text-anchor="start" x="464.46" y="-7" font-family="Helvetica,sans-Serif" font-size="10.00">+</text>
<text text-anchor="start" x="488.46" y="-7" font-family="Helvetica,sans-Serif" font-size="10.00">getVelocity()</text>
<polygon fill="#666666" stroke="#666666" points="449.46,-62 449.46,-62 610.46,-62 610.46,-62 449.46,-62"/>
<polygon fill="#666666" stroke="#666666" points="449.46,-47 449.46,-47 610.46,-47 610.46,-47 449.46,-47"/>
<polygon fill="none" stroke="#666666" points="448.96,0 448.96,-90 609.96,-90 609.96,0 448.96,0"/>
</a>
</g>
</g>
<!-- Node2 -->
<g id="Node000002" class="node">
<title>Node2</title>
<g id="a_Node000002"><a xlink:href="../../d3/d65/classBankable_1_1MIDIButtonMatrix.html" target="_top" xlink:title=" ">
<polygon fill="white" stroke="transparent" points="617.46,-584 441.46,-584 441.46,-127 617.46,-127 617.46,-584"/>
<text text-anchor="start" x="446.46" y="-571.5" font-family="Helvetica,sans-Serif" font-size="10.00">MIDIButtonMatrix&lt; Matrix</text>
<text text-anchor="start" x="446.46" y="-560.5" font-family="Helvetica,sans-Serif" font-size="10.00">Address&lt; NumRows, NumCols</text>
<text text-anchor="start" x="446.46" y="-549.5" font-family="Helvetica,sans-Serif" font-size="10.00"> &gt;, DigitalNoteSender, NumRows,</text>
<text text-anchor="start" x="499.96" y="-538.5" font-family="Helvetica,sans-Serif" font-size="10.00"> NumCols &gt;</text>
<text text-anchor="start" x="459.96" y="-523.5" font-family="Helvetica,sans-Serif" font-size="10.00">#</text>
<text text-anchor="start" x="487.46" y="-523.5" font-family="Helvetica,sans-Serif" font-size="10.00">address</text>
<text text-anchor="start" x="459.96" y="-508.5" font-family="Helvetica,sans-Serif" font-size="10.00">#</text>
<text text-anchor="start" x="487.46" y="-508.5" font-family="Helvetica,sans-Serif" font-size="10.00">activeButtons</text>
<text text-anchor="start" x="459.96" y="-493.5" font-family="Helvetica,sans-Serif" font-size="10.00">#</text>
<text text-anchor="start" x="487.46" y="-493.5" font-family="Helvetica,sans-Serif" font-size="10.00">next</text>
<text text-anchor="start" x="459.96" y="-478.5" font-family="Helvetica,sans-Serif" font-size="10.00">#</text>
<text text-anchor="start" x="487.46" y="-478.5" font-family="Helvetica,sans-Serif" font-size="10.00">previous</text>
<text text-anchor="start" x="459.96" y="-463.5" font-family="Helvetica,sans-Serif" font-size="10.00">#</text>
<text text-anchor="start" x="487.46" y="-463.5" font-family="Helvetica,sans-Serif" font-size="10.00">updatables</text>
<text text-anchor="start" x="462.46" y="-448.5" font-family="Helvetica,sans-Serif" font-size="10.00">&#45;</text>
<text text-anchor="start" x="487.46" y="-448.5" font-family="Helvetica,sans-Serif" font-size="10.00">debounceTime</text>
<text text-anchor="start" x="462.46" y="-433.5" font-family="Helvetica,sans-Serif" font-size="10.00">&#45;</text>
<text text-anchor="start" x="487.46" y="-433.5" font-family="Helvetica,sans-Serif" font-size="10.00">prevRefresh</text>
<text text-anchor="start" x="462.46" y="-418.5" font-family="Helvetica,sans-Serif" font-size="10.00">&#45;</text>
<text text-anchor="start" x="487.46" y="-418.5" font-family="Helvetica,sans-Serif" font-size="10.00">prevStates</text>
<text text-anchor="start" x="462.46" y="-403.5" font-family="Helvetica,sans-Serif" font-size="10.00">&#45;</text>
<text text-anchor="start" x="487.46" y="-403.5" font-family="Helvetica,sans-Serif" font-size="10.00">rowPins</text>
<text text-anchor="start" x="462.46" y="-388.5" font-family="Helvetica,sans-Serif" font-size="10.00">&#45;</text>
<text text-anchor="start" x="487.46" y="-388.5" font-family="Helvetica,sans-Serif" font-size="10.00">colPins</text>
<text text-anchor="start" x="459.96" y="-373.5" font-family="Helvetica,sans-Serif" font-size="10.00">+</text>
<text text-anchor="start" x="487.46" y="-373.5" font-family="Helvetica,sans-Serif" font-size="10.00">begin()</text>
<text text-anchor="start" x="459.96" y="-358.5" font-family="Helvetica,sans-Serif" font-size="10.00">+</text>
<text text-anchor="start" x="487.46" y="-358.5" font-family="Helvetica,sans-Serif" font-size="10.00">update()</text>
<text text-anchor="start" x="459.96" y="-343.5" font-family="Helvetica,sans-Serif" font-size="10.00">+</text>
<text text-anchor="start" x="487.46" y="-343.5" font-family="Helvetica,sans-Serif" font-size="10.00">getPrevState()</text>
<text text-anchor="start" x="459.96" y="-328.5" font-family="Helvetica,sans-Serif" font-size="10.00">+</text>
<text text-anchor="start" x="487.46" y="-328.5" font-family="Helvetica,sans-Serif" font-size="10.00">setDebounceTime()</text>
<text text-anchor="start" x="459.96" y="-313.5" font-family="Helvetica,sans-Serif" font-size="10.00">+</text>
<text text-anchor="start" x="487.46" y="-313.5" font-family="Helvetica,sans-Serif" font-size="10.00">getDebounceTime()</text>
<text text-anchor="start" x="459.96" y="-298.5" font-family="Helvetica,sans-Serif" font-size="10.00">#</text>
<text text-anchor="start" x="487.46" y="-298.5" font-family="Helvetica,sans-Serif" font-size="10.00">MIDIButtonMatrix()</text>
<text text-anchor="start" x="462.46" y="-283.5" font-family="Helvetica,sans-Serif" font-size="10.00">&#45;</text>
<text text-anchor="start" x="487.46" y="-283.5" font-family="Helvetica,sans-Serif" font-size="10.00">onButtonChanged()</text>
<text text-anchor="start" x="462.46" y="-268.5" font-family="Helvetica,sans-Serif" font-size="10.00">&#45;</text>
<text text-anchor="start" x="487.46" y="-268.5" font-family="Helvetica,sans-Serif" font-size="10.00">setPrevState()</text>
<text text-anchor="start" x="462.46" y="-253.5" font-family="Helvetica,sans-Serif" font-size="10.00">&#45;</text>
<text text-anchor="start" x="487.46" y="-253.5" font-family="Helvetica,sans-Serif" font-size="10.00">positionToBits()</text>
<text text-anchor="start" x="462.46" y="-238.5" font-family="Helvetica,sans-Serif" font-size="10.00">&#45;</text>
<text text-anchor="start" x="487.46" y="-238.5" font-family="Helvetica,sans-Serif" font-size="10.00">bitsToIndex()</text>
<text text-anchor="start" x="462.46" y="-223.5" font-family="Helvetica,sans-Serif" font-size="10.00">&#45;</text>
<text text-anchor="start" x="487.46" y="-223.5" font-family="Helvetica,sans-Serif" font-size="10.00">bitsToBitmask()</text>
<text text-anchor="start" x="461.46" y="-208.5" font-family="Helvetica,sans-Serif" font-size="10.00">*</text>
<text text-anchor="start" x="487.46" y="-208.5" font-family="Helvetica,sans-Serif" font-size="10.00">enable()</text>
<text text-anchor="start" x="461.46" y="-193.5" font-family="Helvetica,sans-Serif" font-size="10.00">*</text>
<text text-anchor="start" x="487.46" y="-193.5" font-family="Helvetica,sans-Serif" font-size="10.00">disable()</text>
<text text-anchor="start" x="461.46" y="-178.5" font-family="Helvetica,sans-Serif" font-size="10.00">*</text>
<text text-anchor="start" x="487.46" y="-178.5" font-family="Helvetica,sans-Serif" font-size="10.00">isEnabled()</text>
<text text-anchor="start" x="461.46" y="-163.5" font-family="Helvetica,sans-Serif" font-size="10.00">*</text>
<text text-anchor="start" x="487.46" y="-163.5" font-family="Helvetica,sans-Serif" font-size="10.00">moveDown()</text>
<text text-anchor="start" x="461.46" y="-148.5" font-family="Helvetica,sans-Serif" font-size="10.00">*</text>
<text text-anchor="start" x="487.46" y="-148.5" font-family="Helvetica,sans-Serif" font-size="10.00">beginAll()</text>
<text text-anchor="start" x="461.46" y="-133.5" font-family="Helvetica,sans-Serif" font-size="10.00">*</text>
<text text-anchor="start" x="487.46" y="-133.5" font-family="Helvetica,sans-Serif" font-size="10.00">updateAll()</text>
<polygon fill="#666666" stroke="#666666" points="441.46,-533.5 441.46,-533.5 617.46,-533.5 617.46,-533.5 441.46,-533.5"/>
<polygon fill="#666666" stroke="#666666" points="441.46,-383.5 441.46,-383.5 485.46,-383.5 485.46,-383.5 441.46,-383.5"/>
<polygon fill="#666666" stroke="#666666" points="485.46,-383.5 485.46,-383.5 617.46,-383.5 617.46,-383.5 485.46,-383.5"/>
<polygon fill="none" stroke="#666666" points="441.46,-127 441.46,-584 617.46,-584 617.46,-127 441.46,-127"/>
</a>
</g>
</g>
<!-- Node2&#45;&gt;Node1 -->
<g id="edge1_Node000001_Node000002" class="edge">
<title>Node2&#45;&gt;Node1</title>
<g id="a_edge1_Node000001_Node000002"><a xlink:title=" ">
<path fill="none" stroke="#63b8ff" d="M529.46,-116.56C529.46,-107.07 529.46,-98.2 529.46,-90.15"/>
<polygon fill="none" stroke="#63b8ff" points="525.96,-116.65 529.46,-126.65 532.96,-116.65 525.96,-116.65"/>
</a>
</g>
</g>
<!-- Node3 -->
<g id="Node000003" class="node">
<title>Node3</title>
<g id="a_Node000003"><a xlink:href="../../d1/d55/classAH_1_1Updatable.html" target="_top" xlink:title="A super class for object that have to be updated regularly.">
<polygon fill="white" stroke="transparent" points="451.96,-835.5 344.96,-835.5 344.96,-741.5 451.96,-741.5 451.96,-835.5"/>
<text text-anchor="start" x="350.46" y="-823.5" font-family="Helvetica,sans-Serif" font-size="10.00">MIDIOutputElement</text>
<text text-anchor="start" x="396.96" y="-808.5" font-family="Helvetica,sans-Serif" font-size="10.00"> </text>
<text text-anchor="start" x="357.96" y="-793.5" font-family="Helvetica,sans-Serif" font-size="10.00">*</text>
<text text-anchor="start" x="376.46" y="-793.5" font-family="Helvetica,sans-Serif" font-size="10.00">begin()</text>
<text text-anchor="start" x="357.96" y="-778.5" font-family="Helvetica,sans-Serif" font-size="10.00">*</text>
<text text-anchor="start" x="376.46" y="-778.5" font-family="Helvetica,sans-Serif" font-size="10.00">update()</text>
<text text-anchor="start" x="357.96" y="-763.5" font-family="Helvetica,sans-Serif" font-size="10.00">*</text>
<text text-anchor="start" x="376.46" y="-763.5" font-family="Helvetica,sans-Serif" font-size="10.00">beginAll()</text>
<text text-anchor="start" x="357.96" y="-748.5" font-family="Helvetica,sans-Serif" font-size="10.00">*</text>
<text text-anchor="start" x="376.46" y="-748.5" font-family="Helvetica,sans-Serif" font-size="10.00">updateAll()</text>
<polygon fill="#666666" stroke="#666666" points="345.46,-818.5 345.46,-818.5 452.46,-818.5 452.46,-818.5 345.46,-818.5"/>
<polygon fill="#666666" stroke="#666666" points="345.46,-803.5 345.46,-803.5 452.46,-803.5 452.46,-803.5 345.46,-803.5"/>
<polygon fill="none" stroke="#666666" points="344.96,-741.5 344.96,-835.5 451.96,-835.5 451.96,-741.5 344.96,-741.5"/>
</a>
</g>
</g>
<!-- Node3&#45;&gt;Node2 -->
<g id="edge2_Node000002_Node000003" class="edge">
<title>Node3&#45;&gt;Node2</title>
<g id="a_edge2_Node000002_Node000003"><a xlink:title=" ">
<path fill="none" stroke="#63b8ff" d="M415.5,-731.43C427.2,-692.93 443.59,-639.02 460.29,-584.06"/>
<polygon fill="none" stroke="#63b8ff" points="412.04,-730.79 412.48,-741.38 418.74,-732.83 412.04,-730.79"/>
</a>
</g>
</g>
<!-- Node4 -->
<g id="Node000004" class="node">
<title>Node4</title>
<g id="a_Node000004"><a xlink:href="../../d8/d1a/classAH_1_1UpdatableCRTP.html" target="_top" xlink:title=" ">
<polygon fill="white" stroke="transparent" points="333.96,-1173 186.96,-1173 186.96,-1008 333.96,-1008 333.96,-1173"/>
<text text-anchor="start" x="192.46" y="-1160.5" font-family="Helvetica,sans-Serif" font-size="10.00">UpdatableCRTP&lt; Updatable</text>
<text text-anchor="start" x="200.46" y="-1149.5" font-family="Helvetica,sans-Serif" font-size="10.00">&lt; NormalUpdatable &gt; &gt;</text>
<text text-anchor="start" x="199.96" y="-1134.5" font-family="Helvetica,sans-Serif" font-size="10.00">#</text>
<text text-anchor="start" x="221.46" y="-1134.5" font-family="Helvetica,sans-Serif" font-size="10.00">next</text>
<text text-anchor="start" x="199.96" y="-1119.5" font-family="Helvetica,sans-Serif" font-size="10.00">#</text>
<text text-anchor="start" x="221.46" y="-1119.5" font-family="Helvetica,sans-Serif" font-size="10.00">previous</text>
<text text-anchor="start" x="199.96" y="-1104.5" font-family="Helvetica,sans-Serif" font-size="10.00">+</text>
<text text-anchor="start" x="221.46" y="-1104.5" font-family="Helvetica,sans-Serif" font-size="10.00">~UpdatableCRTP()</text>
<text text-anchor="start" x="199.96" y="-1089.5" font-family="Helvetica,sans-Serif" font-size="10.00">#</text>
<text text-anchor="start" x="221.46" y="-1089.5" font-family="Helvetica,sans-Serif" font-size="10.00">UpdatableCRTP()</text>
<text text-anchor="start" x="199.96" y="-1074.5" font-family="Helvetica,sans-Serif" font-size="10.00">#</text>
<text text-anchor="start" x="221.46" y="-1074.5" font-family="Helvetica,sans-Serif" font-size="10.00">operator=()</text>
<text text-anchor="start" x="201.46" y="-1059.5" font-family="Helvetica,sans-Serif" font-size="10.00">*</text>
<text text-anchor="start" x="221.46" y="-1059.5" font-family="Helvetica,sans-Serif" font-size="10.00">enable()</text>
<text text-anchor="start" x="201.46" y="-1044.5" font-family="Helvetica,sans-Serif" font-size="10.00">*</text>
<text text-anchor="start" x="221.46" y="-1044.5" font-family="Helvetica,sans-Serif" font-size="10.00">disable()</text>
<text text-anchor="start" x="201.46" y="-1029.5" font-family="Helvetica,sans-Serif" font-size="10.00">*</text>
<text text-anchor="start" x="221.46" y="-1029.5" font-family="Helvetica,sans-Serif" font-size="10.00">isEnabled()</text>
<text text-anchor="start" x="201.46" y="-1014.5" font-family="Helvetica,sans-Serif" font-size="10.00">*</text>
<text text-anchor="start" x="221.46" y="-1014.5" font-family="Helvetica,sans-Serif" font-size="10.00">moveDown()</text>
<polygon fill="#666666" stroke="#666666" points="187.46,-1144.5 187.46,-1144.5 334.46,-1144.5 334.46,-1144.5 187.46,-1144.5"/>
<polygon fill="#666666" stroke="#666666" points="187.46,-1114.5 187.46,-1114.5 219.46,-1114.5 219.46,-1114.5 187.46,-1114.5"/>
<polygon fill="#666666" stroke="#666666" points="219.46,-1114.5 219.46,-1114.5 334.46,-1114.5 334.46,-1114.5 219.46,-1114.5"/>
<polygon fill="none" stroke="#666666" points="186.96,-1008 186.96,-1173 333.96,-1173 333.96,-1008 186.96,-1008"/>
</a>
</g>
</g>
<!-- Node4&#45;&gt;Node3 -->
<g id="edge3_Node000003_Node000004" class="edge">
<title>Node4&#45;&gt;Node3</title>
<g id="a_edge3_Node000003_Node000004"><a xlink:title=" ">
<path fill="none" stroke="#63b8ff" d="M311.2,-998.8C317.91,-985.9 324.52,-972.7 330.46,-960 349.77,-918.72 368.72,-870.36 381.7,-835.71"/>
<polygon fill="none" stroke="#63b8ff" points="308.09,-997.2 306.54,-1007.68 314.29,-1000.45 308.09,-997.2"/>
</a>
</g>
</g>
<!-- Node6 -->
<g id="Node000006" class="node">
<title>Node6</title>
<g id="a_Node000006"><a xlink:href="../../d1/d55/classAH_1_1Updatable.html" target="_top" xlink:title=" ">
<polygon fill="white" stroke="transparent" points="288.46,-880.5 118.46,-880.5 118.46,-696.5 288.46,-696.5 288.46,-880.5"/>
<text text-anchor="start" x="123.46" y="-868.5" font-family="Helvetica,sans-Serif" font-size="10.00">Updatable&lt; NormalUpdatable &gt;</text>
<text text-anchor="start" x="143.46" y="-853.5" font-family="Helvetica,sans-Serif" font-size="10.00">#</text>
<text text-anchor="start" x="177.46" y="-853.5" font-family="Helvetica,sans-Serif" font-size="10.00">next</text>
<text text-anchor="start" x="143.46" y="-838.5" font-family="Helvetica,sans-Serif" font-size="10.00">#</text>
<text text-anchor="start" x="177.46" y="-838.5" font-family="Helvetica,sans-Serif" font-size="10.00">previous</text>
<text text-anchor="start" x="143.46" y="-823.5" font-family="Helvetica,sans-Serif" font-size="10.00">#</text>
<text text-anchor="start" x="177.46" y="-823.5" font-family="Helvetica,sans-Serif" font-size="10.00">updatables</text>
<text text-anchor="start" x="144.96" y="-808.5" font-family="Helvetica,sans-Serif" font-size="10.00">*</text>
<text text-anchor="start" x="177.46" y="-808.5" font-family="Helvetica,sans-Serif" font-size="10.00">begin()</text>
<text text-anchor="start" x="144.96" y="-793.5" font-family="Helvetica,sans-Serif" font-size="10.00">*</text>
<text text-anchor="start" x="177.46" y="-793.5" font-family="Helvetica,sans-Serif" font-size="10.00">update()</text>
<text text-anchor="start" x="144.96" y="-778.5" font-family="Helvetica,sans-Serif" font-size="10.00">*</text>
<text text-anchor="start" x="177.46" y="-778.5" font-family="Helvetica,sans-Serif" font-size="10.00">beginAll()</text>
<text text-anchor="start" x="144.96" y="-763.5" font-family="Helvetica,sans-Serif" font-size="10.00">*</text>
<text text-anchor="start" x="177.46" y="-763.5" font-family="Helvetica,sans-Serif" font-size="10.00">updateAll()</text>
<text text-anchor="start" x="144.96" y="-748.5" font-family="Helvetica,sans-Serif" font-size="10.00">*</text>
<text text-anchor="start" x="177.46" y="-748.5" font-family="Helvetica,sans-Serif" font-size="10.00">enable()</text>
<text text-anchor="start" x="144.96" y="-733.5" font-family="Helvetica,sans-Serif" font-size="10.00">*</text>
<text text-anchor="start" x="177.46" y="-733.5" font-family="Helvetica,sans-Serif" font-size="10.00">disable()</text>
<text text-anchor="start" x="144.96" y="-718.5" font-family="Helvetica,sans-Serif" font-size="10.00">*</text>
<text text-anchor="start" x="177.46" y="-718.5" font-family="Helvetica,sans-Serif" font-size="10.00">isEnabled()</text>
<text text-anchor="start" x="144.96" y="-703.5" font-family="Helvetica,sans-Serif" font-size="10.00">*</text>
<text text-anchor="start" x="177.46" y="-703.5" font-family="Helvetica,sans-Serif" font-size="10.00">moveDown()</text>
<polygon fill="#666666" stroke="#666666" points="118.46,-863.5 118.46,-863.5 288.46,-863.5 288.46,-863.5 118.46,-863.5"/>
<polygon fill="#666666" stroke="#666666" points="118.46,-818.5 118.46,-818.5 175.46,-818.5 175.46,-818.5 118.46,-818.5"/>
<polygon fill="#666666" stroke="#666666" points="175.46,-818.5 175.46,-818.5 288.46,-818.5 288.46,-818.5 175.46,-818.5"/>
<polygon fill="none" stroke="#666666" points="118.46,-696.5 118.46,-880.5 288.46,-880.5 288.46,-696.5 118.46,-696.5"/>
</a>
</g>
</g>
<!-- Node4&#45;&gt;Node6 -->
<g id="edge6_Node000006_Node000004" class="edge">
<title>Node4&#45;&gt;Node6</title>
<g id="a_edge6_Node000006_Node000004"><a xlink:title=" ">
<path fill="none" stroke="#63b8ff" d="M243.09,-998.07C236.01,-960.8 227.84,-917.81 220.76,-880.58"/>
<polygon fill="none" stroke="#63b8ff" points="239.65,-998.75 244.96,-1007.92 246.53,-997.44 239.65,-998.75"/>
</a>
</g>
</g>
<!-- Node5 -->
<g id="Node000005" class="node">
<title>Node5</title>
<g id="a_Node000005"><a xlink:href="../../d4/d23/classDoublyLinkable.html" target="_top" xlink:title=" ">
<polygon fill="white" stroke="transparent" points="333.96,-400.5 186.96,-400.5 186.96,-310.5 333.96,-310.5 333.96,-400.5"/>
<text text-anchor="start" x="192.46" y="-388.5" font-family="Helvetica,sans-Serif" font-size="10.00">DoublyLinkable&lt; Updatable</text>
<text text-anchor="start" x="200.46" y="-377.5" font-family="Helvetica,sans-Serif" font-size="10.00">&lt; NormalUpdatable &gt; &gt;</text>
<text text-anchor="start" x="258.96" y="-362.5" font-family="Helvetica,sans-Serif" font-size="10.00"> </text>
<text text-anchor="start" x="199.96" y="-347.5" font-family="Helvetica,sans-Serif" font-size="10.00">#</text>
<text text-anchor="start" x="221.46" y="-347.5" font-family="Helvetica,sans-Serif" font-size="10.00">~DoublyLinkable()</text>
<text text-anchor="start" x="199.96" y="-332.5" font-family="Helvetica,sans-Serif" font-size="10.00">#</text>
<text text-anchor="start" x="221.46" y="-332.5" font-family="Helvetica,sans-Serif" font-size="10.00">DoublyLinkable()</text>
<text text-anchor="start" x="199.96" y="-317.5" font-family="Helvetica,sans-Serif" font-size="10.00">#</text>
<text text-anchor="start" x="221.46" y="-317.5" font-family="Helvetica,sans-Serif" font-size="10.00">operator=()</text>
<polygon fill="#666666" stroke="#666666" points="187.46,-372.5 187.46,-372.5 334.46,-372.5 334.46,-372.5 187.46,-372.5"/>
<polygon fill="#666666" stroke="#666666" points="187.46,-357.5 187.46,-357.5 334.46,-357.5 334.46,-357.5 187.46,-357.5"/>
<polygon fill="none" stroke="#666666" points="186.96,-310.5 186.96,-400.5 333.96,-400.5 333.96,-310.5 186.96,-310.5"/>
</a>
</g>
</g>
<!-- Node5&#45;&gt;Node4 -->
<g id="edge4_Node000004_Node000005" class="edge">
<title>Node5&#45;&gt;Node4</title>
<g id="a_edge4_Node000004_Node000005"><a xlink:title=" ">
<path fill="none" stroke="#63b8ff" d="M270.32,-410.85C287.32,-512.2 318.36,-736.82 297.46,-925 294.44,-952.2 288.69,-981.48 282.61,-1007.68"/>
<polygon fill="none" stroke="#63b8ff" points="273.75,-410.12 268.63,-400.85 266.85,-411.29 273.75,-410.12"/>
</a>
</g>
</g>
<!-- Node6&#45;&gt;Node5 -->
<g id="edge5_Node000005_Node000006" class="edge">
<title>Node6&#45;&gt;Node5</title>
<g id="a_edge5_Node000005_Node000006"><a xlink:title=" ">
<path fill="none" stroke="#63b8ff" d="M215.51,-696.36C226.86,-610.54 243.5,-484.71 253.03,-412.68"/>
<polygon fill="none" stroke="#63b8ff" points="253.04,-412.63 249.86,-406.16 254.61,-400.74 257.79,-407.21 253.04,-412.63"/>
</a>
</g>
<text text-anchor="start" x="230.96" y="-623" font-family="Helvetica,sans-Serif" font-size="10.00" fill="grey">#next</text>
<text text-anchor="start" x="230.96" y="-608" font-family="Helvetica,sans-Serif" font-size="10.00" fill="grey">#previous</text>
</g>
<!-- Node7 -->
<g id="Node000007" class="node">
<title>Node7</title>
<g id="a_Node000007"><a xlink:href="../../dd/d16/classDoublyLinkedList.html" target="_top" xlink:title=" ">
<polygon fill="white" stroke="transparent" points="167.96,-468 12.96,-468 12.96,-243 167.96,-243 167.96,-468"/>
<text text-anchor="start" x="18.46" y="-455.5" font-family="Helvetica,sans-Serif" font-size="10.00">DoublyLinkedList&lt; Updatable</text>
<text text-anchor="start" x="30.46" y="-444.5" font-family="Helvetica,sans-Serif" font-size="10.00">&lt; NormalUpdatable &gt; &gt;</text>
<text text-anchor="start" x="88.96" y="-429.5" font-family="Helvetica,sans-Serif" font-size="10.00"> </text>
<text text-anchor="start" x="32.96" y="-414.5" font-family="Helvetica,sans-Serif" font-size="10.00">+</text>
<text text-anchor="start" x="61.46" y="-414.5" font-family="Helvetica,sans-Serif" font-size="10.00">append()</text>
<text text-anchor="start" x="32.96" y="-399.5" font-family="Helvetica,sans-Serif" font-size="10.00">+</text>
<text text-anchor="start" x="61.46" y="-399.5" font-family="Helvetica,sans-Serif" font-size="10.00">insertBefore()</text>
<text text-anchor="start" x="32.96" y="-384.5" font-family="Helvetica,sans-Serif" font-size="10.00">+</text>
<text text-anchor="start" x="61.46" y="-384.5" font-family="Helvetica,sans-Serif" font-size="10.00">insertSorted()</text>
<text text-anchor="start" x="32.96" y="-369.5" font-family="Helvetica,sans-Serif" font-size="10.00">+</text>
<text text-anchor="start" x="61.46" y="-369.5" font-family="Helvetica,sans-Serif" font-size="10.00">remove()</text>
<text text-anchor="start" x="32.96" y="-354.5" font-family="Helvetica,sans-Serif" font-size="10.00">+</text>
<text text-anchor="start" x="61.46" y="-354.5" font-family="Helvetica,sans-Serif" font-size="10.00">moveDown()</text>
<text text-anchor="start" x="32.96" y="-339.5" font-family="Helvetica,sans-Serif" font-size="10.00">+</text>
<text text-anchor="start" x="61.46" y="-339.5" font-family="Helvetica,sans-Serif" font-size="10.00">couldContain()</text>
<text text-anchor="start" x="32.96" y="-324.5" font-family="Helvetica,sans-Serif" font-size="10.00">+</text>
<text text-anchor="start" x="61.46" y="-324.5" font-family="Helvetica,sans-Serif" font-size="10.00">begin()</text>
<text text-anchor="start" x="32.96" y="-309.5" font-family="Helvetica,sans-Serif" font-size="10.00">+</text>
<text text-anchor="start" x="61.46" y="-309.5" font-family="Helvetica,sans-Serif" font-size="10.00">end()</text>
<text text-anchor="start" x="32.96" y="-294.5" font-family="Helvetica,sans-Serif" font-size="10.00">+</text>
<text text-anchor="start" x="61.46" y="-294.5" font-family="Helvetica,sans-Serif" font-size="10.00">rbegin()</text>
<text text-anchor="start" x="32.96" y="-279.5" font-family="Helvetica,sans-Serif" font-size="10.00">+</text>
<text text-anchor="start" x="61.46" y="-279.5" font-family="Helvetica,sans-Serif" font-size="10.00">rend()</text>
<text text-anchor="start" x="32.96" y="-264.5" font-family="Helvetica,sans-Serif" font-size="10.00">+</text>
<text text-anchor="start" x="61.46" y="-264.5" font-family="Helvetica,sans-Serif" font-size="10.00">getFirst()</text>
<text text-anchor="start" x="32.96" y="-249.5" font-family="Helvetica,sans-Serif" font-size="10.00">+</text>
<text text-anchor="start" x="61.46" y="-249.5" font-family="Helvetica,sans-Serif" font-size="10.00">getLast()</text>
<polygon fill="#666666" stroke="#666666" points="13.46,-439.5 13.46,-439.5 168.46,-439.5 168.46,-439.5 13.46,-439.5"/>
<polygon fill="#666666" stroke="#666666" points="13.46,-424.5 13.46,-424.5 168.46,-424.5 168.46,-424.5 13.46,-424.5"/>
<polygon fill="none" stroke="#666666" points="12.96,-243 12.96,-468 167.96,-468 167.96,-243 12.96,-243"/>
</a>
</g>
</g>
<!-- Node6&#45;&gt;Node7 -->
<g id="edge8_Node000007_Node000006" class="edge">
<title>Node6&#45;&gt;Node7</title>
<g id="a_edge8_Node000007_Node000006"><a xlink:title=" ">
<path fill="none" stroke="#63b8ff" d="M179.56,-696.36C163.06,-633.42 140.92,-548.97 122.84,-480"/>
<polygon fill="none" stroke="#63b8ff" points="122.79,-479.8 117.4,-475.01 119.74,-468.2 125.14,-472.98 122.79,-479.8"/>
</a>
</g>
<text text-anchor="start" x="163.96" y="-623" font-family="Helvetica,sans-Serif" font-size="10.00" fill="grey">&#45;first</text>
<text text-anchor="start" x="163.96" y="-608" font-family="Helvetica,sans-Serif" font-size="10.00" fill="grey">&#45;last</text>
</g>
<!-- Node7&#45;&gt;Node4 -->
<g id="edge7_Node000004_Node000007" class="edge">
<title>Node7&#45;&gt;Node4</title>
<g id="a_edge7_Node000004_Node000007"><a xlink:title=" ">
<path fill="none" stroke="#63b8ff" d="M47.35,-468.25C8.55,-587.85 -32.2,-779.94 40.46,-925 68.77,-981.51 126.72,-1023.6 176.05,-1051.05"/>
<polygon fill="none" stroke="#63b8ff" points="176.2,-1051.13 183.38,-1050.48 186.75,-1056.86 179.57,-1057.51 176.2,-1051.13"/>
</a>
</g>
<text text-anchor="start" x="43.96" y="-785.5" font-family="Helvetica,sans-Serif" font-size="10.00" fill="grey">#updatables</text>
</g>
<!-- Node8 -->
<g id="Node000008" class="node">
<title>Node8</title>
<g id="a_Node000008"><a xlink:href="../../dd/d29/classAH_1_1ButtonMatrix.html" target="_top" xlink:title=" ">
<polygon fill="white" stroke="transparent" points="826.46,-925 606.46,-925 606.46,-652 826.46,-652 826.46,-925"/>
<text text-anchor="start" x="611.46" y="-912.5" font-family="Helvetica,sans-Serif" font-size="10.00">ButtonMatrix&lt; MIDIButton</text>
<text text-anchor="start" x="611.46" y="-901.5" font-family="Helvetica,sans-Serif" font-size="10.00">Matrix&lt; MatrixAddress</text>
<text text-anchor="start" x="611.46" y="-890.5" font-family="Helvetica,sans-Serif" font-size="10.00">&lt; NumRows, NumCols &gt;, DigitalNote</text>
<text text-anchor="start" x="611.46" y="-879.5" font-family="Helvetica,sans-Serif" font-size="10.00">Sender, NumRows, NumCols &gt;, NumRows,</text>
<text text-anchor="start" x="686.96" y="-868.5" font-family="Helvetica,sans-Serif" font-size="10.00"> NumCols &gt;</text>
<text text-anchor="start" x="638.46" y="-853.5" font-family="Helvetica,sans-Serif" font-size="10.00">&#45;</text>
<text text-anchor="start" x="674.46" y="-853.5" font-family="Helvetica,sans-Serif" font-size="10.00">debounceTime</text>
<text text-anchor="start" x="638.46" y="-838.5" font-family="Helvetica,sans-Serif" font-size="10.00">&#45;</text>
<text text-anchor="start" x="674.46" y="-838.5" font-family="Helvetica,sans-Serif" font-size="10.00">prevRefresh</text>
<text text-anchor="start" x="638.46" y="-823.5" font-family="Helvetica,sans-Serif" font-size="10.00">&#45;</text>
<text text-anchor="start" x="674.46" y="-823.5" font-family="Helvetica,sans-Serif" font-size="10.00">prevStates</text>
<text text-anchor="start" x="635.96" y="-808.5" font-family="Helvetica,sans-Serif" font-size="10.00">+</text>
<text text-anchor="start" x="674.46" y="-808.5" font-family="Helvetica,sans-Serif" font-size="10.00">ButtonMatrix()</text>
<text text-anchor="start" x="635.96" y="-793.5" font-family="Helvetica,sans-Serif" font-size="10.00">+</text>
<text text-anchor="start" x="674.46" y="-793.5" font-family="Helvetica,sans-Serif" font-size="10.00">begin()</text>
<text text-anchor="start" x="635.96" y="-778.5" font-family="Helvetica,sans-Serif" font-size="10.00">+</text>
<text text-anchor="start" x="674.46" y="-778.5" font-family="Helvetica,sans-Serif" font-size="10.00">update()</text>
<text text-anchor="start" x="635.96" y="-763.5" font-family="Helvetica,sans-Serif" font-size="10.00">+</text>
<text text-anchor="start" x="674.46" y="-763.5" font-family="Helvetica,sans-Serif" font-size="10.00">getPrevState()</text>
<text text-anchor="start" x="635.96" y="-748.5" font-family="Helvetica,sans-Serif" font-size="10.00">+</text>
<text text-anchor="start" x="674.46" y="-748.5" font-family="Helvetica,sans-Serif" font-size="10.00">setDebounceTime()</text>
<text text-anchor="start" x="635.96" y="-733.5" font-family="Helvetica,sans-Serif" font-size="10.00">+</text>
<text text-anchor="start" x="674.46" y="-733.5" font-family="Helvetica,sans-Serif" font-size="10.00">getDebounceTime()</text>
<text text-anchor="start" x="635.96" y="-718.5" font-family="Helvetica,sans-Serif" font-size="10.00">#</text>
<text text-anchor="start" x="674.46" y="-718.5" font-family="Helvetica,sans-Serif" font-size="10.00">onButtonChanged()</text>
<text text-anchor="start" x="638.46" y="-703.5" font-family="Helvetica,sans-Serif" font-size="10.00">&#45;</text>
<text text-anchor="start" x="674.46" y="-703.5" font-family="Helvetica,sans-Serif" font-size="10.00">setPrevState()</text>
<text text-anchor="start" x="638.46" y="-688.5" font-family="Helvetica,sans-Serif" font-size="10.00">&#45;</text>
<text text-anchor="start" x="674.46" y="-688.5" font-family="Helvetica,sans-Serif" font-size="10.00">positionToBits()</text>
<text text-anchor="start" x="638.46" y="-673.5" font-family="Helvetica,sans-Serif" font-size="10.00">&#45;</text>
<text text-anchor="start" x="674.46" y="-673.5" font-family="Helvetica,sans-Serif" font-size="10.00">bitsToIndex()</text>
<text text-anchor="start" x="638.46" y="-658.5" font-family="Helvetica,sans-Serif" font-size="10.00">&#45;</text>
<text text-anchor="start" x="674.46" y="-658.5" font-family="Helvetica,sans-Serif" font-size="10.00">bitsToBitmask()</text>
<polygon fill="#666666" stroke="#666666" points="606.46,-863.5 606.46,-863.5 826.46,-863.5 826.46,-863.5 606.46,-863.5"/>
<polygon fill="#666666" stroke="#666666" points="606.46,-818.5 606.46,-818.5 672.46,-818.5 672.46,-818.5 606.46,-818.5"/>
<polygon fill="#666666" stroke="#666666" points="672.46,-818.5 672.46,-818.5 826.46,-818.5 826.46,-818.5 672.46,-818.5"/>
<polygon fill="none" stroke="#666666" points="606.46,-652 606.46,-925 826.46,-925 826.46,-652 606.46,-652"/>
</a>
</g>
</g>
<!-- Node8&#45;&gt;Node2 -->
<g id="edge9_Node000002_Node000008" class="edge">
<title>Node8&#45;&gt;Node2</title>
<g id="a_edge9_Node000002_Node000008"><a xlink:title=" ">
<path fill="none" stroke="#63b8ff" d="M653.49,-642.36C641.91,-615.68 629.64,-587.39 617.49,-559.39"/>
<polygon fill="none" stroke="#63b8ff" points="650.36,-643.94 657.55,-651.72 656.78,-641.15 650.36,-643.94"/>
</a>
</g>
</g>
<!-- Node9 -->
<g id="Node000009" class="node">
<title>Node9</title>
<g id="a_Node000009"><a xlink:href="../../d0/d32/structAH_1_1Array.html" target="_top" xlink:title=" ">
<polygon fill="white" stroke="transparent" points="829.96,-1203 724.96,-1203 724.96,-978 829.96,-978 829.96,-1203"/>
<text text-anchor="start" x="730.46" y="-1190.5" font-family="Helvetica,sans-Serif" font-size="10.00">Array&lt; pin_t, N &gt;&lt;</text>
<text text-anchor="start" x="745.96" y="-1179.5" font-family="Helvetica,sans-Serif" font-size="10.00"> NumRows &gt;</text>
<text text-anchor="start" x="733.96" y="-1164.5" font-family="Helvetica,sans-Serif" font-size="10.00">+</text>
<text text-anchor="start" x="751.46" y="-1164.5" font-family="Helvetica,sans-Serif" font-size="10.00">data</text>
<text text-anchor="start" x="733.96" y="-1149.5" font-family="Helvetica,sans-Serif" font-size="10.00">+</text>
<text text-anchor="start" x="751.46" y="-1149.5" font-family="Helvetica,sans-Serif" font-size="10.00">length</text>
<text text-anchor="start" x="733.96" y="-1134.5" font-family="Helvetica,sans-Serif" font-size="10.00">+</text>
<text text-anchor="start" x="751.46" y="-1134.5" font-family="Helvetica,sans-Serif" font-size="10.00">operator[]()</text>
<text text-anchor="start" x="733.96" y="-1119.5" font-family="Helvetica,sans-Serif" font-size="10.00">+</text>
<text text-anchor="start" x="751.46" y="-1119.5" font-family="Helvetica,sans-Serif" font-size="10.00">operator[]()</text>
<text text-anchor="start" x="733.96" y="-1104.5" font-family="Helvetica,sans-Serif" font-size="10.00">+</text>
<text text-anchor="start" x="751.46" y="-1104.5" font-family="Helvetica,sans-Serif" font-size="10.00">begin()</text>
<text text-anchor="start" x="733.96" y="-1089.5" font-family="Helvetica,sans-Serif" font-size="10.00">+</text>
<text text-anchor="start" x="751.46" y="-1089.5" font-family="Helvetica,sans-Serif" font-size="10.00">begin()</text>
<text text-anchor="start" x="733.96" y="-1074.5" font-family="Helvetica,sans-Serif" font-size="10.00">+</text>
<text text-anchor="start" x="751.46" y="-1074.5" font-family="Helvetica,sans-Serif" font-size="10.00">end()</text>
<text text-anchor="start" x="733.96" y="-1059.5" font-family="Helvetica,sans-Serif" font-size="10.00">+</text>
<text text-anchor="start" x="751.46" y="-1059.5" font-family="Helvetica,sans-Serif" font-size="10.00">end()</text>
<text text-anchor="start" x="733.96" y="-1044.5" font-family="Helvetica,sans-Serif" font-size="10.00">+</text>
<text text-anchor="start" x="751.46" y="-1044.5" font-family="Helvetica,sans-Serif" font-size="10.00">operator==()</text>
<text text-anchor="start" x="733.96" y="-1029.5" font-family="Helvetica,sans-Serif" font-size="10.00">+</text>
<text text-anchor="start" x="751.46" y="-1029.5" font-family="Helvetica,sans-Serif" font-size="10.00">operator!=()</text>
<text text-anchor="start" x="733.96" y="-1014.5" font-family="Helvetica,sans-Serif" font-size="10.00">+</text>
<text text-anchor="start" x="751.46" y="-1014.5" font-family="Helvetica,sans-Serif" font-size="10.00">slice()</text>
<text text-anchor="start" x="733.96" y="-999.5" font-family="Helvetica,sans-Serif" font-size="10.00">+</text>
<text text-anchor="start" x="751.46" y="-999.5" font-family="Helvetica,sans-Serif" font-size="10.00">slice()</text>
<text text-anchor="start" x="733.96" y="-984.5" font-family="Helvetica,sans-Serif" font-size="10.00">+</text>
<text text-anchor="start" x="751.46" y="-984.5" font-family="Helvetica,sans-Serif" font-size="10.00">cslice()</text>
<polygon fill="#666666" stroke="#666666" points="725.46,-1174.5 725.46,-1174.5 830.46,-1174.5 830.46,-1174.5 725.46,-1174.5"/>
<polygon fill="#666666" stroke="#666666" points="725.46,-1144.5 725.46,-1144.5 749.46,-1144.5 749.46,-1144.5 725.46,-1144.5"/>
<polygon fill="#666666" stroke="#666666" points="749.46,-1144.5 749.46,-1144.5 830.46,-1144.5 830.46,-1144.5 749.46,-1144.5"/>
<polygon fill="none" stroke="#666666" points="724.96,-978 724.96,-1203 829.96,-1203 829.96,-978 724.96,-978"/>
</a>
</g>
</g>
<!-- Node9&#45;&gt;Node8 -->
<g id="edge10_Node000008_Node000009" class="edge">
<title>Node9&#45;&gt;Node8</title>
<g id="a_edge10_Node000008_Node000009"><a xlink:title=" ">
<path fill="none" stroke="#63b8ff" d="M754.75,-977.79C752.05,-964.52 749.26,-950.82 746.48,-937.15"/>
<polygon fill="none" stroke="#63b8ff" points="746.43,-936.91 741.32,-931.82 744.04,-925.15 749.16,-930.23 746.43,-936.91"/>
</a>
</g>
<text text-anchor="start" x="753.96" y="-948.5" font-family="Helvetica,sans-Serif" font-size="10.00" fill="grey">&#45;rowPins</text>
</g>
<!-- Node10 -->
<g id="Node000010" class="node">
<title>Node10</title>
<g id="a_Node000010"><a xlink:href="../../d0/d32/structAH_1_1Array.html" target="_top" xlink:title=" ">
<polygon fill="white" stroke="transparent" points="706.96,-1203 601.96,-1203 601.96,-978 706.96,-978 706.96,-1203"/>
<text text-anchor="start" x="607.46" y="-1190.5" font-family="Helvetica,sans-Serif" font-size="10.00">Array&lt; pin_t, N &gt;&lt;</text>
<text text-anchor="start" x="625.46" y="-1179.5" font-family="Helvetica,sans-Serif" font-size="10.00"> NumCols &gt;</text>
<text text-anchor="start" x="610.96" y="-1164.5" font-family="Helvetica,sans-Serif" font-size="10.00">+</text>
<text text-anchor="start" x="628.46" y="-1164.5" font-family="Helvetica,sans-Serif" font-size="10.00">data</text>
<text text-anchor="start" x="610.96" y="-1149.5" font-family="Helvetica,sans-Serif" font-size="10.00">+</text>
<text text-anchor="start" x="628.46" y="-1149.5" font-family="Helvetica,sans-Serif" font-size="10.00">length</text>
<text text-anchor="start" x="610.96" y="-1134.5" font-family="Helvetica,sans-Serif" font-size="10.00">+</text>
<text text-anchor="start" x="628.46" y="-1134.5" font-family="Helvetica,sans-Serif" font-size="10.00">operator[]()</text>
<text text-anchor="start" x="610.96" y="-1119.5" font-family="Helvetica,sans-Serif" font-size="10.00">+</text>
<text text-anchor="start" x="628.46" y="-1119.5" font-family="Helvetica,sans-Serif" font-size="10.00">operator[]()</text>
<text text-anchor="start" x="610.96" y="-1104.5" font-family="Helvetica,sans-Serif" font-size="10.00">+</text>
<text text-anchor="start" x="628.46" y="-1104.5" font-family="Helvetica,sans-Serif" font-size="10.00">begin()</text>
<text text-anchor="start" x="610.96" y="-1089.5" font-family="Helvetica,sans-Serif" font-size="10.00">+</text>
<text text-anchor="start" x="628.46" y="-1089.5" font-family="Helvetica,sans-Serif" font-size="10.00">begin()</text>
<text text-anchor="start" x="610.96" y="-1074.5" font-family="Helvetica,sans-Serif" font-size="10.00">+</text>
<text text-anchor="start" x="628.46" y="-1074.5" font-family="Helvetica,sans-Serif" font-size="10.00">end()</text>
<text text-anchor="start" x="610.96" y="-1059.5" font-family="Helvetica,sans-Serif" font-size="10.00">+</text>
<text text-anchor="start" x="628.46" y="-1059.5" font-family="Helvetica,sans-Serif" font-size="10.00">end()</text>
<text text-anchor="start" x="610.96" y="-1044.5" font-family="Helvetica,sans-Serif" font-size="10.00">+</text>
<text text-anchor="start" x="628.46" y="-1044.5" font-family="Helvetica,sans-Serif" font-size="10.00">operator==()</text>
<text text-anchor="start" x="610.96" y="-1029.5" font-family="Helvetica,sans-Serif" font-size="10.00">+</text>
<text text-anchor="start" x="628.46" y="-1029.5" font-family="Helvetica,sans-Serif" font-size="10.00">operator!=()</text>
<text text-anchor="start" x="610.96" y="-1014.5" font-family="Helvetica,sans-Serif" font-size="10.00">+</text>
<text text-anchor="start" x="628.46" y="-1014.5" font-family="Helvetica,sans-Serif" font-size="10.00">slice()</text>
<text text-anchor="start" x="610.96" y="-999.5" font-family="Helvetica,sans-Serif" font-size="10.00">+</text>
<text text-anchor="start" x="628.46" y="-999.5" font-family="Helvetica,sans-Serif" font-size="10.00">slice()</text>
<text text-anchor="start" x="610.96" y="-984.5" font-family="Helvetica,sans-Serif" font-size="10.00">+</text>
<text text-anchor="start" x="628.46" y="-984.5" font-family="Helvetica,sans-Serif" font-size="10.00">cslice()</text>
<polygon fill="#666666" stroke="#666666" points="602.46,-1174.5 602.46,-1174.5 707.46,-1174.5 707.46,-1174.5 602.46,-1174.5"/>
<polygon fill="#666666" stroke="#666666" points="602.46,-1144.5 602.46,-1144.5 626.46,-1144.5 626.46,-1144.5 602.46,-1144.5"/>
<polygon fill="#666666" stroke="#666666" points="626.46,-1144.5 626.46,-1144.5 707.46,-1144.5 707.46,-1144.5 626.46,-1144.5"/>
<polygon fill="none" stroke="#666666" points="601.96,-978 601.96,-1203 706.96,-1203 706.96,-978 601.96,-978"/>
</a>
</g>
</g>
<!-- Node10&#45;&gt;Node8 -->
<g id="edge11_Node000008_Node000010" class="edge">
<title>Node10&#45;&gt;Node8</title>
<g id="a_edge11_Node000008_Node000010"><a xlink:title=" ">
<path fill="none" stroke="#63b8ff" d="M677.55,-977.79C680.29,-964.52 683.12,-950.82 685.95,-937.15"/>
<polygon fill="none" stroke="#63b8ff" points="686,-936.9 683.29,-930.21 688.43,-925.15 691.13,-931.83 686,-936.9"/>
</a>
</g>
<text text-anchor="start" x="686.96" y="-948.5" font-family="Helvetica,sans-Serif" font-size="10.00" fill="grey">&#45;colPins</text>
</g>
<!-- Node11 -->
<g id="Node000011" class="node">
<title>Node11</title>
<g id="a_Node000011"><a xlink:href="../../dc/dd4/classDigitalNoteSender.html" target="_top" xlink:title="Class that sends MIDI note on and off messages.">
<polygon fill="white" stroke="transparent" points="588.46,-843 470.46,-843 470.46,-734 588.46,-734 588.46,-843"/>
<text text-anchor="start" x="484.46" y="-830.5" font-family="Helvetica,sans-Serif" font-size="10.00">DigitalNoteSender</text>
<text text-anchor="start" x="476.96" y="-815.5" font-family="Helvetica,sans-Serif" font-size="10.00">&#45;</text>
<text text-anchor="start" x="487.46" y="-815.5" font-family="Helvetica,sans-Serif" font-size="10.00">velocity</text>
<text text-anchor="start" x="474.46" y="-800.5" font-family="Helvetica,sans-Serif" font-size="10.00">+</text>
<text text-anchor="start" x="487.46" y="-800.5" font-family="Helvetica,sans-Serif" font-size="10.00">DigitalNoteSender()</text>
<text text-anchor="start" x="474.46" y="-785.5" font-family="Helvetica,sans-Serif" font-size="10.00">+</text>
<text text-anchor="start" x="487.46" y="-785.5" font-family="Helvetica,sans-Serif" font-size="10.00">sendOn()</text>
<text text-anchor="start" x="474.46" y="-770.5" font-family="Helvetica,sans-Serif" font-size="10.00">+</text>
<text text-anchor="start" x="487.46" y="-770.5" font-family="Helvetica,sans-Serif" font-size="10.00">sendOff()</text>
<text text-anchor="start" x="474.46" y="-755.5" font-family="Helvetica,sans-Serif" font-size="10.00">+</text>
<text text-anchor="start" x="487.46" y="-755.5" font-family="Helvetica,sans-Serif" font-size="10.00">setVelocity()</text>
<text text-anchor="start" x="474.46" y="-740.5" font-family="Helvetica,sans-Serif" font-size="10.00">+</text>
<text text-anchor="start" x="487.46" y="-740.5" font-family="Helvetica,sans-Serif" font-size="10.00">getVelocity()</text>
<polygon fill="#666666" stroke="#666666" points="470.46,-825.5 470.46,-825.5 588.46,-825.5 588.46,-825.5 470.46,-825.5"/>
<polygon fill="#666666" stroke="#666666" points="470.46,-810.5 470.46,-810.5 485.46,-810.5 485.46,-810.5 470.46,-810.5"/>
<polygon fill="#666666" stroke="#666666" points="485.46,-810.5 485.46,-810.5 588.46,-810.5 588.46,-810.5 485.46,-810.5"/>
<polygon fill="none" stroke="#666666" points="470.46,-734 470.46,-843 588.46,-843 588.46,-734 470.46,-734"/>
</a>
</g>
</g>
<!-- Node11&#45;&gt;Node2 -->
<g id="edge12_Node000002_Node000011" class="edge">
<title>Node11&#45;&gt;Node2</title>
<g id="a_edge12_Node000002_Node000011"><a xlink:title=" ">
<path fill="none" stroke="#63b8ff" d="M529.46,-733.79C529.46,-697.99 529.46,-648.15 529.46,-596.41"/>
<polygon fill="none" stroke="#63b8ff" points="529.46,-596.29 525.46,-590.29 529.46,-584.29 533.46,-590.29 529.46,-596.29"/>
</a>
</g>
<text text-anchor="start" x="532.46" y="-615" font-family="Helvetica,sans-Serif" font-size="10.00" fill="grey">+sender</text>
</g>
</g>
</svg>
