<?xml version="1.0" encoding="UTF-8" standalone="no"?>
<!DOCTYPE svg PUBLIC "-//W3C//DTD SVG 1.1//EN"
 "http://www.w3.org/Graphics/SVG/1.1/DTD/svg11.dtd">
<!-- Generated by graphviz version 2.38.0 (20140413.2041)
 -->
<!-- Title: IncrementSelectorLEDs&lt; N &gt; Pages: 1 -->
<svg width="349pt" height="1380pt"
 viewBox="0.00 0.00 349.00 1380.00" xmlns="http://www.w3.org/2000/svg" xmlns:xlink="http://www.w3.org/1999/xlink">
<g id="graph0" class="graph" transform="scale(1 1) rotate(0) translate(4 1376)">
<title>IncrementSelectorLEDs&lt; N &gt;</title>
<polygon fill="white" stroke="none" points="-4,4 -4,-1376 345,-1376 345,4 -4,4"/>
<!-- Node1 -->
<g id="node1" class="node"><title>Node1</title>
<g id="a_node1"><a xlink:title="Selector with one button that increments the selection. This version displays the setting using LEDs.">
<polygon fill="#bfbfbf" stroke="black" points="143.5,-0.5 143.5,-57.5 289.5,-57.5 289.5,-0.5 143.5,-0.5"/>
<text text-anchor="middle" x="216.5" y="-45.5" font-family="Helvetica,sans-Serif" font-size="10.00">IncrementSelectorLEDs&lt; N &gt;</text>
<polyline fill="none" stroke="black" points="143.5,-38.5 289.5,-38.5 "/>
<text text-anchor="middle" x="216.5" y="-26.5" font-family="Helvetica,sans-Serif" font-size="10.00"> </text>
<polyline fill="none" stroke="black" points="143.5,-19.5 289.5,-19.5 "/>
<text text-anchor="start" x="151.5" y="-7.5" font-family="Helvetica,sans-Serif" font-size="10.00">+ IncrementSelectorLEDs()</text>
</a>
</g>
</g>
<!-- Node2 -->
<g id="node2" class="node"><title>Node2</title>
<g id="a_node2"><a xlink:href="../../d1/d94/classGenericIncrementSelector.html" target="_top" xlink:title=" ">
<polygon fill="white" stroke="black" points="130,-95.5 130,-196.5 303,-196.5 303,-95.5 130,-95.5"/>
<text text-anchor="start" x="138" y="-184.5" font-family="Helvetica,sans-Serif" font-size="10.00">GenericIncrementSelector</text>
<text text-anchor="middle" x="216.5" y="-173.5" font-family="Helvetica,sans-Serif" font-size="10.00">&lt; N, SelectorLEDsCallback&lt; N &gt; &gt;</text>
<polyline fill="none" stroke="black" points="130,-166.5 303,-166.5 "/>
<text text-anchor="start" x="138" y="-154.5" font-family="Helvetica,sans-Serif" font-size="10.00">&#45; wrap</text>
<polyline fill="none" stroke="black" points="130,-147.5 303,-147.5 "/>
<text text-anchor="start" x="138" y="-135.5" font-family="Helvetica,sans-Serif" font-size="10.00">+ GenericIncrementSelector()</text>
<text text-anchor="start" x="138" y="-124.5" font-family="Helvetica,sans-Serif" font-size="10.00">+ begin()</text>
<text text-anchor="start" x="138" y="-113.5" font-family="Helvetica,sans-Serif" font-size="10.00">+ update()</text>
<text text-anchor="start" x="138" y="-102.5" font-family="Helvetica,sans-Serif" font-size="10.00">+ getButtonState()</text>
</a>
</g>
</g>
<!-- Node2&#45;&gt;Node1 -->
<g id="edge1" class="edge"><title>Node2&#45;&gt;Node1</title>
<path fill="none" stroke="midnightblue" d="M216.5,-85.2151C216.5,-75.5929 216.5,-66.0561 216.5,-57.6848"/>
<polygon fill="none" stroke="midnightblue" points="213,-85.2281 216.5,-95.2282 220,-85.2282 213,-85.2281"/>
</g>
<!-- Node3 -->
<g id="node3" class="node"><title>Node3</title>
<g id="a_node3"><a xlink:href="../../d0/d04/classGenericSelector.html" target="_top" xlink:title=" ">
<polygon fill="white" stroke="black" points="73,-244.5 73,-400.5 192,-400.5 192,-244.5 73,-244.5"/>
<text text-anchor="start" x="81" y="-388.5" font-family="Helvetica,sans-Serif" font-size="10.00">GenericSelector&lt; N,</text>
<text text-anchor="start" x="81" y="-377.5" font-family="Helvetica,sans-Serif" font-size="10.00"> SelectorLEDsCallback</text>
<text text-anchor="middle" x="132.5" y="-366.5" font-family="Helvetica,sans-Serif" font-size="10.00">&lt; N &gt; &gt;</text>
<polyline fill="none" stroke="black" points="73,-359.5 192,-359.5 "/>
<text text-anchor="start" x="81" y="-347.5" font-family="Helvetica,sans-Serif" font-size="10.00">+ callback</text>
<text text-anchor="start" x="81" y="-336.5" font-family="Helvetica,sans-Serif" font-size="10.00">&#45; selectable</text>
<polyline fill="none" stroke="black" points="73,-329.5 192,-329.5 "/>
<text text-anchor="start" x="81" y="-317.5" font-family="Helvetica,sans-Serif" font-size="10.00">+ GenericSelector()</text>
<text text-anchor="start" x="81" y="-306.5" font-family="Helvetica,sans-Serif" font-size="10.00">+ begin()</text>
<text text-anchor="start" x="81" y="-295.5" font-family="Helvetica,sans-Serif" font-size="10.00">+ update()</text>
<text text-anchor="start" x="81" y="-284.5" font-family="Helvetica,sans-Serif" font-size="10.00">+ reset()</text>
<text text-anchor="start" x="81" y="-273.5" font-family="Helvetica,sans-Serif" font-size="10.00">+ set()</text>
<text text-anchor="start" x="81" y="-262.5" font-family="Helvetica,sans-Serif" font-size="10.00">+ increment()</text>
<text text-anchor="start" x="81" y="-251.5" font-family="Helvetica,sans-Serif" font-size="10.00">+ decrement()</text>
</a>
</g>
</g>
<!-- Node3&#45;&gt;Node2 -->
<g id="edge2" class="edge"><title>Node3&#45;&gt;Node2</title>
<path fill="none" stroke="midnightblue" d="M174.006,-235.277C180.401,-221.992 186.811,-208.676 192.643,-196.56"/>
<polygon fill="none" stroke="midnightblue" points="170.772,-233.925 169.588,-244.454 177.079,-236.962 170.772,-233.925"/>
</g>
<!-- Node4 -->
<g id="node4" class="node"><title>Node4</title>
<g id="a_node4"><a xlink:href="../../dc/d77/classSelectorBase.html" target="_top" xlink:title="Base class for all Selectors exposing the get method, so it can be used by display elements etc,...">
<polygon fill="white" stroke="black" points="0,-520 0,-588 89,-588 89,-520 0,-520"/>
<text text-anchor="middle" x="44.5" y="-576" font-family="Helvetica,sans-Serif" font-size="10.00">SelectorBase</text>
<polyline fill="none" stroke="black" points="0,-569 89,-569 "/>
<text text-anchor="start" x="8" y="-557" font-family="Helvetica,sans-Serif" font-size="10.00"># setting</text>
<polyline fill="none" stroke="black" points="0,-550 89,-550 "/>
<text text-anchor="start" x="8" y="-538" font-family="Helvetica,sans-Serif" font-size="10.00">+ get()</text>
<text text-anchor="start" x="8" y="-527" font-family="Helvetica,sans-Serif" font-size="10.00"># SelectorBase()</text>
</a>
</g>
</g>
<!-- Node4&#45;&gt;Node3 -->
<g id="edge3" class="edge"><title>Node4&#45;&gt;Node3</title>
<path fill="none" stroke="midnightblue" d="M60.959,-510.076C72.7441,-479.341 88.9378,-437.108 102.938,-400.596"/>
<polygon fill="none" stroke="midnightblue" points="57.6083,-509.038 57.296,-519.629 64.1443,-511.545 57.6083,-509.038"/>
</g>
<!-- Node5 -->
<g id="node5" class="node"><title>Node5</title>
<g id="a_node5"><a xlink:href="../../d1/d55/classAH_1_1Updatable.html" target="_top" xlink:title=" ">
<polygon fill="white" stroke="black" points="107,-448.5 107,-659.5 200,-659.5 200,-448.5 107,-448.5"/>
<text text-anchor="middle" x="153.5" y="-647.5" font-family="Helvetica,sans-Serif" font-size="10.00">AH::Updatable&lt;&gt;</text>
<polyline fill="none" stroke="black" points="107,-640.5 200,-640.5 "/>
<text text-anchor="middle" x="153.5" y="-628.5" font-family="Helvetica,sans-Serif" font-size="10.00"> </text>
<polyline fill="none" stroke="black" points="107,-621.5 200,-621.5 "/>
<text text-anchor="start" x="115" y="-609.5" font-family="Helvetica,sans-Serif" font-size="10.00">+ ~Updatable()</text>
<text text-anchor="start" x="115" y="-598.5" font-family="Helvetica,sans-Serif" font-size="10.00">+ update()</text>
<text text-anchor="start" x="115" y="-587.5" font-family="Helvetica,sans-Serif" font-size="10.00">+ begin()</text>
<text text-anchor="start" x="115" y="-576.5" font-family="Helvetica,sans-Serif" font-size="10.00">+ enable()</text>
<text text-anchor="start" x="115" y="-565.5" font-family="Helvetica,sans-Serif" font-size="10.00">+ disable()</text>
<text text-anchor="start" x="115" y="-554.5" font-family="Helvetica,sans-Serif" font-size="10.00">+ isEnabled()</text>
<text text-anchor="start" x="115" y="-543.5" font-family="Helvetica,sans-Serif" font-size="10.00">+ enable()</text>
<text text-anchor="start" x="115" y="-532.5" font-family="Helvetica,sans-Serif" font-size="10.00">+ enable()</text>
<text text-anchor="start" x="115" y="-521.5" font-family="Helvetica,sans-Serif" font-size="10.00">+ enable()</text>
<text text-anchor="start" x="115" y="-510.5" font-family="Helvetica,sans-Serif" font-size="10.00">+ disable()</text>
<text text-anchor="start" x="115" y="-499.5" font-family="Helvetica,sans-Serif" font-size="10.00">+ disable()</text>
<text text-anchor="start" x="115" y="-488.5" font-family="Helvetica,sans-Serif" font-size="10.00">+ disable()</text>
<text text-anchor="start" x="115" y="-477.5" font-family="Helvetica,sans-Serif" font-size="10.00">+ beginAll()</text>
<text text-anchor="start" x="115" y="-466.5" font-family="Helvetica,sans-Serif" font-size="10.00">+ updateAll()</text>
<text text-anchor="start" x="115" y="-455.5" font-family="Helvetica,sans-Serif" font-size="10.00"># Updatable()</text>
</a>
</g>
</g>
<!-- Node5&#45;&gt;Node3 -->
<g id="edge4" class="edge"><title>Node5&#45;&gt;Node3</title>
<path fill="none" stroke="midnightblue" d="M142.989,-438.126C141.824,-425.396 140.659,-412.668 139.552,-400.569"/>
<polygon fill="none" stroke="midnightblue" points="139.525,-438.684 143.922,-448.324 146.496,-438.047 139.525,-438.684"/>
</g>
<!-- Node6 -->
<g id="node6" class="node"><title>Node6</title>
<g id="a_node6"><a xlink:href="../../d4/d23/classDoublyLinkable.html" target="_top" xlink:title=" ">
<polygon fill="white" stroke="black" points="104,-1292.5 104,-1371.5 241,-1371.5 241,-1292.5 104,-1292.5"/>
<text text-anchor="start" x="112" y="-1359.5" font-family="Helvetica,sans-Serif" font-size="10.00">DoublyLinkable&lt; Updatable</text>
<text text-anchor="middle" x="172.5" y="-1348.5" font-family="Helvetica,sans-Serif" font-size="10.00">&lt; NormalUpdatable &gt; &gt;</text>
<polyline fill="none" stroke="black" points="104,-1341.5 241,-1341.5 "/>
<text text-anchor="start" x="112" y="-1329.5" font-family="Helvetica,sans-Serif" font-size="10.00"># next</text>
<text text-anchor="start" x="112" y="-1318.5" font-family="Helvetica,sans-Serif" font-size="10.00"># previous</text>
<polyline fill="none" stroke="black" points="104,-1311.5 241,-1311.5 "/>
<text text-anchor="start" x="112" y="-1299.5" font-family="Helvetica,sans-Serif" font-size="10.00"># ~DoublyLinkable()</text>
</a>
</g>
</g>
<!-- Node6&#45;&gt;Node5 -->
<g id="edge5" class="edge"><title>Node6&#45;&gt;Node5</title>
<path fill="none" stroke="midnightblue" d="M160.706,-1282.22C158.965,-1273.22 157.442,-1263.87 156.5,-1255 134.15,-1044.72 140.796,-796.909 147.347,-659.728"/>
<polygon fill="none" stroke="midnightblue" points="157.311,-1283.09 162.744,-1292.19 164.169,-1281.69 157.311,-1283.09"/>
</g>
<!-- Node8 -->
<g id="node8" class="node"><title>Node8</title>
<g id="a_node8"><a xlink:href="../../d1/d55/classAH_1_1Updatable.html" target="_top" xlink:title=" ">
<polygon fill="white" stroke="black" points="166,-1043.5 166,-1254.5 341,-1254.5 341,-1043.5 166,-1043.5"/>
<text text-anchor="middle" x="253.5" y="-1242.5" font-family="Helvetica,sans-Serif" font-size="10.00">AH::Updatable&lt; NormalUpdatable &gt;</text>
<polyline fill="none" stroke="black" points="166,-1235.5 341,-1235.5 "/>
<text text-anchor="middle" x="253.5" y="-1223.5" font-family="Helvetica,sans-Serif" font-size="10.00"> </text>
<polyline fill="none" stroke="black" points="166,-1216.5 341,-1216.5 "/>
<text text-anchor="start" x="174" y="-1204.5" font-family="Helvetica,sans-Serif" font-size="10.00">+ ~Updatable()</text>
<text text-anchor="start" x="174" y="-1193.5" font-family="Helvetica,sans-Serif" font-size="10.00">+ update()</text>
<text text-anchor="start" x="174" y="-1182.5" font-family="Helvetica,sans-Serif" font-size="10.00">+ begin()</text>
<text text-anchor="start" x="174" y="-1171.5" font-family="Helvetica,sans-Serif" font-size="10.00">+ enable()</text>
<text text-anchor="start" x="174" y="-1160.5" font-family="Helvetica,sans-Serif" font-size="10.00">+ disable()</text>
<text text-anchor="start" x="174" y="-1149.5" font-family="Helvetica,sans-Serif" font-size="10.00">+ isEnabled()</text>
<text text-anchor="start" x="174" y="-1138.5" font-family="Helvetica,sans-Serif" font-size="10.00">+ enable()</text>
<text text-anchor="start" x="174" y="-1127.5" font-family="Helvetica,sans-Serif" font-size="10.00">+ enable()</text>
<text text-anchor="start" x="174" y="-1116.5" font-family="Helvetica,sans-Serif" font-size="10.00">+ enable()</text>
<text text-anchor="start" x="174" y="-1105.5" font-family="Helvetica,sans-Serif" font-size="10.00">+ disable()</text>
<text text-anchor="start" x="174" y="-1094.5" font-family="Helvetica,sans-Serif" font-size="10.00">+ disable()</text>
<text text-anchor="start" x="174" y="-1083.5" font-family="Helvetica,sans-Serif" font-size="10.00">+ disable()</text>
<text text-anchor="start" x="174" y="-1072.5" font-family="Helvetica,sans-Serif" font-size="10.00">+ beginAll()</text>
<text text-anchor="start" x="174" y="-1061.5" font-family="Helvetica,sans-Serif" font-size="10.00">+ updateAll()</text>
<text text-anchor="start" x="174" y="-1050.5" font-family="Helvetica,sans-Serif" font-size="10.00"># Updatable()</text>
</a>
</g>
</g>
<!-- Node6&#45;&gt;Node8 -->
<g id="edge8" class="edge"><title>Node6&#45;&gt;Node8</title>
<path fill="none" stroke="midnightblue" d="M194.058,-1282.83C198.034,-1273.94 202.325,-1264.35 206.717,-1254.54"/>
<polygon fill="none" stroke="midnightblue" points="190.767,-1281.61 189.877,-1292.17 197.156,-1284.47 190.767,-1281.61"/>
</g>
<!-- Node7 -->
<g id="node7" class="node"><title>Node7</title>
<g id="a_node7"><a xlink:href="../../dd/d16/classDoublyLinkedList.html" target="_top" xlink:title=" ">
<polygon fill="white" stroke="black" points="165.5,-707.5 165.5,-984.5 335.5,-984.5 335.5,-707.5 165.5,-707.5"/>
<text text-anchor="start" x="173.5" y="-972.5" font-family="Helvetica,sans-Serif" font-size="10.00">DoublyLinkedList&lt; AH</text>
<text text-anchor="middle" x="250.5" y="-961.5" font-family="Helvetica,sans-Serif" font-size="10.00">::Updatable&lt; NormalUpdatable &gt; &gt;</text>
<polyline fill="none" stroke="black" points="165.5,-954.5 335.5,-954.5 "/>
<text text-anchor="middle" x="250.5" y="-942.5" font-family="Helvetica,sans-Serif" font-size="10.00"> </text>
<polyline fill="none" stroke="black" points="165.5,-935.5 335.5,-935.5 "/>
<text text-anchor="start" x="173.5" y="-923.5" font-family="Helvetica,sans-Serif" font-size="10.00">+ append()</text>
<text text-anchor="start" x="173.5" y="-912.5" font-family="Helvetica,sans-Serif" font-size="10.00">+ append()</text>
<text text-anchor="start" x="173.5" y="-901.5" font-family="Helvetica,sans-Serif" font-size="10.00">+ insertBefore()</text>
<text text-anchor="start" x="173.5" y="-890.5" font-family="Helvetica,sans-Serif" font-size="10.00">+ insertBefore()</text>
<text text-anchor="start" x="173.5" y="-879.5" font-family="Helvetica,sans-Serif" font-size="10.00">+ insertSorted()</text>
<text text-anchor="start" x="173.5" y="-868.5" font-family="Helvetica,sans-Serif" font-size="10.00">+ insertSorted()</text>
<text text-anchor="start" x="173.5" y="-857.5" font-family="Helvetica,sans-Serif" font-size="10.00">+ remove()</text>
<text text-anchor="start" x="173.5" y="-846.5" font-family="Helvetica,sans-Serif" font-size="10.00">+ remove()</text>
<text text-anchor="start" x="173.5" y="-835.5" font-family="Helvetica,sans-Serif" font-size="10.00">+ moveDown()</text>
<text text-anchor="start" x="173.5" y="-824.5" font-family="Helvetica,sans-Serif" font-size="10.00">+ couldContain()</text>
<text text-anchor="start" x="173.5" y="-813.5" font-family="Helvetica,sans-Serif" font-size="10.00">+ begin()</text>
<text text-anchor="start" x="173.5" y="-802.5" font-family="Helvetica,sans-Serif" font-size="10.00">+ begin()</text>
<text text-anchor="start" x="173.5" y="-791.5" font-family="Helvetica,sans-Serif" font-size="10.00">+ end()</text>
<text text-anchor="start" x="173.5" y="-780.5" font-family="Helvetica,sans-Serif" font-size="10.00">+ end()</text>
<text text-anchor="start" x="173.5" y="-769.5" font-family="Helvetica,sans-Serif" font-size="10.00">+ rbegin()</text>
<text text-anchor="start" x="173.5" y="-758.5" font-family="Helvetica,sans-Serif" font-size="10.00">+ rbegin()</text>
<text text-anchor="start" x="173.5" y="-747.5" font-family="Helvetica,sans-Serif" font-size="10.00">+ rend()</text>
<text text-anchor="start" x="173.5" y="-736.5" font-family="Helvetica,sans-Serif" font-size="10.00">+ rend()</text>
<text text-anchor="start" x="173.5" y="-725.5" font-family="Helvetica,sans-Serif" font-size="10.00">+ getFirst()</text>
<text text-anchor="start" x="173.5" y="-714.5" font-family="Helvetica,sans-Serif" font-size="10.00">+ getLast()</text>
</a>
</g>
</g>
<!-- Node7&#45;&gt;Node5 -->
<g id="edge6" class="edge"><title>Node7&#45;&gt;Node5</title>
<path fill="none" stroke="#404040" d="M204.415,-707.219C200.419,-695.272 196.401,-683.259 192.469,-671.507"/>
<polygon fill="none" stroke="#404040" points="192.378,-671.233 186.681,-666.812 188.571,-659.853 194.268,-664.274 192.378,-671.233"/>
<text text-anchor="middle" x="223.5" y="-681" font-family="Helvetica,sans-Serif" font-size="10.00"> &#45;updatables</text>
</g>
<!-- Node7&#45;&gt;Node8 -->
<g id="edge9" class="edge"><title>Node7&#45;&gt;Node8</title>
<path fill="none" stroke="#404040" d="M252.311,-984.806C252.378,-990.955 252.441,-997.041 252.5,-1003 252.591,-1012.2 252.676,-1021.74 252.755,-1031.32"/>
<polygon fill="none" stroke="#404040" points="252.756,-1031.45 256.804,-1037.42 252.853,-1043.45 248.805,-1037.49 252.756,-1031.45"/>
<text text-anchor="middle" x="280.5" y="-1011.5" font-family="Helvetica,sans-Serif" font-size="10.00"> &#45;updatables</text>
</g>
<!-- Node8&#45;&gt;Node7 -->
<g id="edge7" class="edge"><title>Node8&#45;&gt;Node7</title>
<path fill="none" stroke="#404040" d="M232.557,-1043.17C231.75,-1037.04 231.051,-1030.95 230.5,-1025 229.652,-1015.86 229.266,-1006.45 229.247,-996.972"/>
<polygon fill="none" stroke="#404040" points="229.247,-996.934 225.33,-990.88 229.411,-984.935 233.329,-990.989 229.247,-996.934"/>
<text text-anchor="middle" x="241.5" y="-1017" font-family="Helvetica,sans-Serif" font-size="10.00"> &#45;last</text>
<text text-anchor="middle" x="241.5" y="-1006" font-family="Helvetica,sans-Serif" font-size="10.00">&#45;first</text>
</g>
<!-- Node9 -->
<g id="node9" class="node"><title>Node9</title>
<g id="a_node9"><a xlink:href="../../d7/d83/classAH_1_1IncrementButton.html" target="_top" xlink:title="A class for buttons that increment some counter or setting.">
<polygon fill="white" stroke="black" points="210,-261 210,-384 337,-384 337,-261 210,-261"/>
<text text-anchor="middle" x="273.5" y="-372" font-family="Helvetica,sans-Serif" font-size="10.00">AH::IncrementButton</text>
<polyline fill="none" stroke="black" points="210,-365 337,-365 "/>
<text text-anchor="start" x="218" y="-353" font-family="Helvetica,sans-Serif" font-size="10.00">&#45; longPressState</text>
<text text-anchor="start" x="218" y="-342" font-family="Helvetica,sans-Serif" font-size="10.00">&#45; longPressRepeat</text>
<text text-anchor="start" x="218" y="-331" font-family="Helvetica,sans-Serif" font-size="10.00">&#45; state</text>
<polyline fill="none" stroke="black" points="210,-324 337,-324 "/>
<text text-anchor="start" x="218" y="-312" font-family="Helvetica,sans-Serif" font-size="10.00">+ IncrementButton()</text>
<text text-anchor="start" x="218" y="-301" font-family="Helvetica,sans-Serif" font-size="10.00">+ begin()</text>
<text text-anchor="start" x="218" y="-290" font-family="Helvetica,sans-Serif" font-size="10.00">+ update()</text>
<text text-anchor="start" x="218" y="-279" font-family="Helvetica,sans-Serif" font-size="10.00">+ getState()</text>
<text text-anchor="start" x="218" y="-268" font-family="Helvetica,sans-Serif" font-size="10.00"># updateImplementation()</text>
</a>
</g>
</g>
<!-- Node9&#45;&gt;Node2 -->
<g id="edge10" class="edge"><title>Node9&#45;&gt;Node2</title>
<path fill="none" stroke="#404040" d="M253.724,-260.958C248.159,-243.922 242.104,-225.383 236.525,-208.303"/>
<polygon fill="none" stroke="#404040" points="236.476,-208.155 230.811,-203.694 232.75,-196.748 238.416,-201.21 236.476,-208.155"/>
<text text-anchor="middle" x="259.5" y="-218" font-family="Helvetica,sans-Serif" font-size="10.00"> &#45;button</text>
</g>
<!-- Node10 -->
<g id="node10" class="node"><title>Node10</title>
<g id="a_node10"><a xlink:href="../../de/d0d/classAH_1_1Button.html" target="_top" xlink:title="A class for reading and debouncing buttons and switches.">
<polygon fill="white" stroke="black" points="225.5,-459.5 225.5,-648.5 321.5,-648.5 321.5,-459.5 225.5,-459.5"/>
<text text-anchor="middle" x="273.5" y="-636.5" font-family="Helvetica,sans-Serif" font-size="10.00">AH::Button</text>
<polyline fill="none" stroke="black" points="225.5,-629.5 321.5,-629.5 "/>
<text text-anchor="start" x="233.5" y="-617.5" font-family="Helvetica,sans-Serif" font-size="10.00">&#45; pin</text>
<text text-anchor="start" x="233.5" y="-606.5" font-family="Helvetica,sans-Serif" font-size="10.00">&#45; prevInput</text>
<text text-anchor="start" x="233.5" y="-595.5" font-family="Helvetica,sans-Serif" font-size="10.00">&#45; debouncedState</text>
<text text-anchor="start" x="233.5" y="-584.5" font-family="Helvetica,sans-Serif" font-size="10.00">&#45; prevBounceTime</text>
<text text-anchor="start" x="233.5" y="-573.5" font-family="Helvetica,sans-Serif" font-size="10.00">&#45; invertState</text>
<text text-anchor="start" x="233.5" y="-562.5" font-family="Helvetica,sans-Serif" font-size="10.00">&#45; debounceTime</text>
<polyline fill="none" stroke="black" points="225.5,-555.5 321.5,-555.5 "/>
<text text-anchor="start" x="233.5" y="-543.5" font-family="Helvetica,sans-Serif" font-size="10.00">+ Button()</text>
<text text-anchor="start" x="233.5" y="-532.5" font-family="Helvetica,sans-Serif" font-size="10.00">+ Button()</text>
<text text-anchor="start" x="233.5" y="-521.5" font-family="Helvetica,sans-Serif" font-size="10.00">+ begin()</text>
<text text-anchor="start" x="233.5" y="-510.5" font-family="Helvetica,sans-Serif" font-size="10.00">+ invert()</text>
<text text-anchor="start" x="233.5" y="-499.5" font-family="Helvetica,sans-Serif" font-size="10.00">+ update()</text>
<text text-anchor="start" x="233.5" y="-488.5" font-family="Helvetica,sans-Serif" font-size="10.00">+ getState()</text>
<text text-anchor="start" x="233.5" y="-477.5" font-family="Helvetica,sans-Serif" font-size="10.00">+ stableTime()</text>
<text text-anchor="start" x="233.5" y="-466.5" font-family="Helvetica,sans-Serif" font-size="10.00">+ getName()</text>
</a>
</g>
</g>
<!-- Node10&#45;&gt;Node9 -->
<g id="edge11" class="edge"><title>Node10&#45;&gt;Node9</title>
<path fill="none" stroke="#404040" d="M273.5,-459.323C273.5,-438.281 273.5,-416.261 273.5,-396.224"/>
<polygon fill="none" stroke="#404040" points="273.5,-396.031 269.5,-390.031 273.5,-384.031 277.5,-390.031 273.5,-396.031"/>
<text text-anchor="middle" x="290.5" y="-422" font-family="Helvetica,sans-Serif" font-size="10.00"> &#45;button</text>
</g>
</g>
</svg>
