<?xml version="1.0" encoding="UTF-8" standalone="no"?>
<!DOCTYPE svg PUBLIC "-//W3C//DTD SVG 1.1//EN"
 "http://www.w3.org/Graphics/SVG/1.1/DTD/svg11.dtd">
<!-- Generated by graphviz version 2.43.0 (0)
 -->
<!-- Title: NoteCCKPLEDPWM&lt; Type, BankSize &gt; Pages: 1 -->
<svg width="387pt" height="1727pt"
 viewBox="0.00 0.00 387.00 1727.00" xmlns="http://www.w3.org/2000/svg" xmlns:xlink="http://www.w3.org/1999/xlink">
<g id="graph0" class="graph" transform="scale(1 1) rotate(0) translate(4 1723)">
<title>NoteCCKPLEDPWM&lt; Type, BankSize &gt;</title>
<!-- Node1 -->
<g id="Node000001" class="node">
<title>Node1</title>
<g id="a_Node000001"><a xlink:title="Generic base class for classes that listen for MIDI Note, Control Change and Key Pressure events on a...">
<polygon fill="#999999" stroke="transparent" points="337.5,-165 197.5,-165 197.5,0 337.5,0 337.5,-165"/>
<text text-anchor="start" x="202.5" y="-152.5" font-family="Helvetica,sans-Serif" font-size="10.00">NoteCCKPLEDPWM&lt; Type,</text>
<text text-anchor="start" x="237.5" y="-141.5" font-family="Helvetica,sans-Serif" font-size="10.00"> BankSize &gt;</text>
<text text-anchor="start" x="204.5" y="-126.5" font-family="Helvetica,sans-Serif" font-size="10.00">&#45;</text>
<text text-anchor="start" x="215.5" y="-126.5" font-family="Helvetica,sans-Serif" font-size="10.00">ledPin</text>
<text text-anchor="start" x="202" y="-111.5" font-family="Helvetica,sans-Serif" font-size="10.00">+</text>
<text text-anchor="start" x="215.5" y="-111.5" font-family="Helvetica,sans-Serif" font-size="10.00">NoteCCKPLEDPWM()</text>
<text text-anchor="start" x="202" y="-96.5" font-family="Helvetica,sans-Serif" font-size="10.00">+</text>
<text text-anchor="start" x="215.5" y="-96.5" font-family="Helvetica,sans-Serif" font-size="10.00">begin()</text>
<text text-anchor="start" x="202" y="-81.5" font-family="Helvetica,sans-Serif" font-size="10.00">+</text>
<text text-anchor="start" x="215.5" y="-81.5" font-family="Helvetica,sans-Serif" font-size="10.00">reset()</text>
<text text-anchor="start" x="202" y="-66.5" font-family="Helvetica,sans-Serif" font-size="10.00">+</text>
<text text-anchor="start" x="215.5" y="-66.5" font-family="Helvetica,sans-Serif" font-size="10.00">getValue()</text>
<text text-anchor="start" x="202" y="-51.5" font-family="Helvetica,sans-Serif" font-size="10.00">+</text>
<text text-anchor="start" x="215.5" y="-51.5" font-family="Helvetica,sans-Serif" font-size="10.00">getValue()</text>
<text text-anchor="start" x="202" y="-36.5" font-family="Helvetica,sans-Serif" font-size="10.00">#</text>
<text text-anchor="start" x="215.5" y="-36.5" font-family="Helvetica,sans-Serif" font-size="10.00">handleUpdate()</text>
<text text-anchor="start" x="202" y="-21.5" font-family="Helvetica,sans-Serif" font-size="10.00">#</text>
<text text-anchor="start" x="215.5" y="-21.5" font-family="Helvetica,sans-Serif" font-size="10.00">display()</text>
<text text-anchor="start" x="202" y="-6.5" font-family="Helvetica,sans-Serif" font-size="10.00">#</text>
<text text-anchor="start" x="215.5" y="-6.5" font-family="Helvetica,sans-Serif" font-size="10.00">onBankSettingChange()</text>
<polygon fill="#666666" stroke="#666666" points="197.5,-136.5 197.5,-136.5 337.5,-136.5 337.5,-136.5 197.5,-136.5"/>
<polygon fill="#666666" stroke="#666666" points="197.5,-121.5 197.5,-121.5 213.5,-121.5 213.5,-121.5 197.5,-121.5"/>
<polygon fill="#666666" stroke="#666666" points="213.5,-121.5 213.5,-121.5 337.5,-121.5 337.5,-121.5 213.5,-121.5"/>
<polygon fill="none" stroke="#666666" points="197.5,0 197.5,-165 337.5,-165 337.5,0 197.5,0"/>
</a>
</g>
</g>
<!-- Node2 -->
<g id="Node000002" class="node">
<title>Node2</title>
<g id="a_Node000002"><a xlink:href="../../d5/dcd/classBankable_1_1NoteCCKPValue.html" target="_top" xlink:title="Generic base class for classes that listen for MIDI Note, Control Change and Key Pressure events on a...">
<polygon fill="white" stroke="transparent" points="336,-351 199,-351 199,-201 336,-201 336,-351"/>
<text text-anchor="start" x="211" y="-339" font-family="Helvetica,sans-Serif" font-size="10.00">NoteCCKPValue&lt; Type,</text>
<text text-anchor="start" x="238" y="-328" font-family="Helvetica,sans-Serif" font-size="10.00"> BankSize &gt;</text>
<text text-anchor="start" x="206" y="-313" font-family="Helvetica,sans-Serif" font-size="10.00">&#45;</text>
<text text-anchor="start" x="216.5" y="-313" font-family="Helvetica,sans-Serif" font-size="10.00">values</text>
<text text-anchor="start" x="203.5" y="-298" font-family="Helvetica,sans-Serif" font-size="10.00">+</text>
<text text-anchor="start" x="216.5" y="-298" font-family="Helvetica,sans-Serif" font-size="10.00">NoteCCKPValue()</text>
<text text-anchor="start" x="203.5" y="-283" font-family="Helvetica,sans-Serif" font-size="10.00">+</text>
<text text-anchor="start" x="216.5" y="-283" font-family="Helvetica,sans-Serif" font-size="10.00">reset()</text>
<text text-anchor="start" x="203.5" y="-268" font-family="Helvetica,sans-Serif" font-size="10.00">#</text>
<text text-anchor="start" x="216.5" y="-268" font-family="Helvetica,sans-Serif" font-size="10.00">handleUpdateImpl()</text>
<text text-anchor="start" x="203.5" y="-253" font-family="Helvetica,sans-Serif" font-size="10.00">#</text>
<text text-anchor="start" x="216.5" y="-253" font-family="Helvetica,sans-Serif" font-size="10.00">handleUpdate()</text>
<text text-anchor="start" x="203.5" y="-238" font-family="Helvetica,sans-Serif" font-size="10.00">#</text>
<text text-anchor="start" x="216.5" y="-238" font-family="Helvetica,sans-Serif" font-size="10.00">onBankSettingChange()</text>
<text text-anchor="start" x="205" y="-223" font-family="Helvetica,sans-Serif" font-size="10.00">*</text>
<text text-anchor="start" x="216.5" y="-223" font-family="Helvetica,sans-Serif" font-size="10.00">getValue()</text>
<text text-anchor="start" x="205" y="-208" font-family="Helvetica,sans-Serif" font-size="10.00">*</text>
<text text-anchor="start" x="216.5" y="-208" font-family="Helvetica,sans-Serif" font-size="10.00">getValue()</text>
<polygon fill="#666666" stroke="#666666" points="199.5,-323 199.5,-323 336.5,-323 336.5,-323 199.5,-323"/>
<polygon fill="#666666" stroke="#666666" points="199.5,-308 199.5,-308 214.5,-308 214.5,-308 199.5,-308"/>
<polygon fill="#666666" stroke="#666666" points="214.5,-308 214.5,-308 336.5,-308 336.5,-308 214.5,-308"/>
<polygon fill="none" stroke="#666666" points="199,-201 199,-351 336,-351 336,-201 199,-201"/>
</a>
</g>
</g>
<!-- Node2&#45;&gt;Node1 -->
<g id="edge1_Node000001_Node000002" class="edge">
<title>Node2&#45;&gt;Node1</title>
<g id="a_edge1_Node000001_Node000002"><a xlink:title=" ">
<path fill="none" stroke="#63b8ff" d="M267.5,-190.73C267.5,-182.29 267.5,-173.72 267.5,-165.29"/>
<polygon fill="none" stroke="#63b8ff" points="264,-190.96 267.5,-200.96 271,-190.96 264,-190.96"/>
</a>
</g>
</g>
<!-- Node3 -->
<g id="Node000003" class="node">
<title>Node3</title>
<g id="a_Node000003"><a xlink:href="../../d9/dc0/classBankableMatchingMIDIInputElement.html" target="_top" xlink:title=" ">
<polygon fill="white" stroke="transparent" points="284,-795 107,-795 107,-387 284,-387 284,-795"/>
<text text-anchor="start" x="112.5" y="-783" font-family="Helvetica,sans-Serif" font-size="10.00">BankableMatchingMIDIInput</text>
<text text-anchor="start" x="112.5" y="-772" font-family="Helvetica,sans-Serif" font-size="10.00">Element&lt; Type, BankableTwoByte</text>
<text text-anchor="start" x="125" y="-761" font-family="Helvetica,sans-Serif" font-size="10.00">MIDIMatcher&lt; BankSize &gt; &gt;</text>
<text text-anchor="start" x="114" y="-746" font-family="Helvetica,sans-Serif" font-size="10.00">#</text>
<text text-anchor="start" x="129.5" y="-746" font-family="Helvetica,sans-Serif" font-size="10.00">matcher</text>
<text text-anchor="start" x="114" y="-731" font-family="Helvetica,sans-Serif" font-size="10.00">#</text>
<text text-anchor="start" x="129.5" y="-731" font-family="Helvetica,sans-Serif" font-size="10.00">next</text>
<text text-anchor="start" x="114" y="-716" font-family="Helvetica,sans-Serif" font-size="10.00">#</text>
<text text-anchor="start" x="129.5" y="-716" font-family="Helvetica,sans-Serif" font-size="10.00">previous</text>
<text text-anchor="start" x="114" y="-701" font-family="Helvetica,sans-Serif" font-size="10.00">#</text>
<text text-anchor="start" x="129.5" y="-701" font-family="Helvetica,sans-Serif" font-size="10.00">next</text>
<text text-anchor="start" x="114" y="-686" font-family="Helvetica,sans-Serif" font-size="10.00">#</text>
<text text-anchor="start" x="129.5" y="-686" font-family="Helvetica,sans-Serif" font-size="10.00">previous</text>
<text text-anchor="start" x="114" y="-671" font-family="Helvetica,sans-Serif" font-size="10.00">#</text>
<text text-anchor="start" x="129.5" y="-671" font-family="Helvetica,sans-Serif" font-size="10.00">updatables</text>
<text text-anchor="start" x="114" y="-656" font-family="Helvetica,sans-Serif" font-size="10.00">+</text>
<text text-anchor="start" x="129.5" y="-656" font-family="Helvetica,sans-Serif" font-size="10.00">~BankableMatchingMIDIInput</text>
<text text-anchor="start" x="129.5" y="-645" font-family="Helvetica,sans-Serif" font-size="10.00">Element()</text>
<text text-anchor="start" x="114" y="-630" font-family="Helvetica,sans-Serif" font-size="10.00">+</text>
<text text-anchor="start" x="129.5" y="-630" font-family="Helvetica,sans-Serif" font-size="10.00">updateWith()</text>
<text text-anchor="start" x="114" y="-615" font-family="Helvetica,sans-Serif" font-size="10.00">+</text>
<text text-anchor="start" x="129.5" y="-615" font-family="Helvetica,sans-Serif" font-size="10.00">handleUpdate()</text>
<text text-anchor="start" x="114" y="-600" font-family="Helvetica,sans-Serif" font-size="10.00">+</text>
<text text-anchor="start" x="129.5" y="-600" font-family="Helvetica,sans-Serif" font-size="10.00">begin()</text>
<text text-anchor="start" x="114" y="-585" font-family="Helvetica,sans-Serif" font-size="10.00">+</text>
<text text-anchor="start" x="129.5" y="-585" font-family="Helvetica,sans-Serif" font-size="10.00">reset()</text>
<text text-anchor="start" x="114" y="-570" font-family="Helvetica,sans-Serif" font-size="10.00">+</text>
<text text-anchor="start" x="129.5" y="-570" font-family="Helvetica,sans-Serif" font-size="10.00">update()</text>
<text text-anchor="start" x="114" y="-555" font-family="Helvetica,sans-Serif" font-size="10.00">+</text>
<text text-anchor="start" x="129.5" y="-555" font-family="Helvetica,sans-Serif" font-size="10.00">updateAllWith()</text>
<text text-anchor="start" x="114" y="-540" font-family="Helvetica,sans-Serif" font-size="10.00">+</text>
<text text-anchor="start" x="129.5" y="-540" font-family="Helvetica,sans-Serif" font-size="10.00">updateAll()</text>
<text text-anchor="start" x="114" y="-525" font-family="Helvetica,sans-Serif" font-size="10.00">+</text>
<text text-anchor="start" x="129.5" y="-525" font-family="Helvetica,sans-Serif" font-size="10.00">beginAll()</text>
<text text-anchor="start" x="114" y="-510" font-family="Helvetica,sans-Serif" font-size="10.00">+</text>
<text text-anchor="start" x="129.5" y="-510" font-family="Helvetica,sans-Serif" font-size="10.00">resetAll()</text>
<text text-anchor="start" x="114" y="-495" font-family="Helvetica,sans-Serif" font-size="10.00">#</text>
<text text-anchor="start" x="129.5" y="-495" font-family="Helvetica,sans-Serif" font-size="10.00">BankableMatchingMIDIInput</text>
<text text-anchor="start" x="129.5" y="-484" font-family="Helvetica,sans-Serif" font-size="10.00">Element()</text>
<text text-anchor="start" x="114" y="-469" font-family="Helvetica,sans-Serif" font-size="10.00">#</text>
<text text-anchor="start" x="129.5" y="-469" font-family="Helvetica,sans-Serif" font-size="10.00">getActiveBank()</text>
<text text-anchor="start" x="116.5" y="-454" font-family="Helvetica,sans-Serif" font-size="10.00">&#45;</text>
<text text-anchor="start" x="129.5" y="-454" font-family="Helvetica,sans-Serif" font-size="10.00">onBankSettingChange()</text>
<text text-anchor="start" x="115.5" y="-439" font-family="Helvetica,sans-Serif" font-size="10.00">*</text>
<text text-anchor="start" x="129.5" y="-439" font-family="Helvetica,sans-Serif" font-size="10.00">enable()</text>
<text text-anchor="start" x="115.5" y="-424" font-family="Helvetica,sans-Serif" font-size="10.00">*</text>
<text text-anchor="start" x="129.5" y="-424" font-family="Helvetica,sans-Serif" font-size="10.00">disable()</text>
<text text-anchor="start" x="115.5" y="-409" font-family="Helvetica,sans-Serif" font-size="10.00">*</text>
<text text-anchor="start" x="129.5" y="-409" font-family="Helvetica,sans-Serif" font-size="10.00">isEnabled()</text>
<text text-anchor="start" x="115.5" y="-394" font-family="Helvetica,sans-Serif" font-size="10.00">*</text>
<text text-anchor="start" x="129.5" y="-394" font-family="Helvetica,sans-Serif" font-size="10.00">moveDown()</text>
<polygon fill="#666666" stroke="#666666" points="107.5,-756 107.5,-756 284.5,-756 284.5,-756 107.5,-756"/>
<polygon fill="#666666" stroke="#666666" points="107.5,-666 107.5,-666 127.5,-666 127.5,-666 107.5,-666"/>
<polygon fill="#666666" stroke="#666666" points="127.5,-666 127.5,-666 284.5,-666 284.5,-666 127.5,-666"/>
<polygon fill="none" stroke="#666666" points="107,-387 107,-795 284,-795 284,-387 107,-387"/>
</a>
</g>
</g>
<!-- Node3&#45;&gt;Node2 -->
<g id="edge2_Node000002_Node000003" class="edge">
<title>Node3&#45;&gt;Node2</title>
<g id="a_edge2_Node000002_Node000003"><a xlink:title=" ">
<path fill="none" stroke="#63b8ff" d="M244.47,-377.11C246.53,-368.18 248.51,-359.53 250.41,-351.31"/>
<polygon fill="none" stroke="#63b8ff" points="241.05,-376.38 242.22,-386.91 247.87,-377.95 241.05,-376.38"/>
</a>
</g>
</g>
<!-- Node4 -->
<g id="Node000004" class="node">
<title>Node4</title>
<g id="a_Node000004"><a xlink:href="../../d5/dae/classMatchingMIDIInputElement.html" target="_top" xlink:title=" ">
<polygon fill="white" stroke="transparent" points="199,-1142 0,-1142 0,-831 199,-831 199,-1142"/>
<text text-anchor="start" x="5.5" y="-1129.5" font-family="Helvetica,sans-Serif" font-size="10.00">MatchingMIDIInputElement</text>
<text text-anchor="start" x="5.5" y="-1118.5" font-family="Helvetica,sans-Serif" font-size="10.00">&lt; Type, BankableTwoByteMIDIMatcher</text>
<text text-anchor="start" x="60.5" y="-1107.5" font-family="Helvetica,sans-Serif" font-size="10.00">&lt; BankSize &gt; &gt;</text>
<text text-anchor="start" x="13.5" y="-1092.5" font-family="Helvetica,sans-Serif" font-size="10.00">#</text>
<text text-anchor="start" x="35.5" y="-1092.5" font-family="Helvetica,sans-Serif" font-size="10.00">matcher</text>
<text text-anchor="start" x="13.5" y="-1077.5" font-family="Helvetica,sans-Serif" font-size="10.00">#</text>
<text text-anchor="start" x="35.5" y="-1077.5" font-family="Helvetica,sans-Serif" font-size="10.00">next</text>
<text text-anchor="start" x="13.5" y="-1062.5" font-family="Helvetica,sans-Serif" font-size="10.00">#</text>
<text text-anchor="start" x="35.5" y="-1062.5" font-family="Helvetica,sans-Serif" font-size="10.00">previous</text>
<text text-anchor="start" x="13.5" y="-1047.5" font-family="Helvetica,sans-Serif" font-size="10.00">#</text>
<text text-anchor="start" x="35.5" y="-1047.5" font-family="Helvetica,sans-Serif" font-size="10.00">updatables</text>
<text text-anchor="start" x="13.5" y="-1032.5" font-family="Helvetica,sans-Serif" font-size="10.00">+</text>
<text text-anchor="start" x="35.5" y="-1032.5" font-family="Helvetica,sans-Serif" font-size="10.00">updateWith()</text>
<text text-anchor="start" x="13.5" y="-1017.5" font-family="Helvetica,sans-Serif" font-size="10.00">+</text>
<text text-anchor="start" x="35.5" y="-1017.5" font-family="Helvetica,sans-Serif" font-size="10.00">handleUpdate()</text>
<text text-anchor="start" x="13.5" y="-1002.5" font-family="Helvetica,sans-Serif" font-size="10.00">+</text>
<text text-anchor="start" x="35.5" y="-1002.5" font-family="Helvetica,sans-Serif" font-size="10.00">begin()</text>
<text text-anchor="start" x="13.5" y="-987.5" font-family="Helvetica,sans-Serif" font-size="10.00">+</text>
<text text-anchor="start" x="35.5" y="-987.5" font-family="Helvetica,sans-Serif" font-size="10.00">reset()</text>
<text text-anchor="start" x="13.5" y="-972.5" font-family="Helvetica,sans-Serif" font-size="10.00">+</text>
<text text-anchor="start" x="35.5" y="-972.5" font-family="Helvetica,sans-Serif" font-size="10.00">update()</text>
<text text-anchor="start" x="13.5" y="-957.5" font-family="Helvetica,sans-Serif" font-size="10.00">+</text>
<text text-anchor="start" x="35.5" y="-957.5" font-family="Helvetica,sans-Serif" font-size="10.00">updateAllWith()</text>
<text text-anchor="start" x="13.5" y="-942.5" font-family="Helvetica,sans-Serif" font-size="10.00">+</text>
<text text-anchor="start" x="35.5" y="-942.5" font-family="Helvetica,sans-Serif" font-size="10.00">updateAll()</text>
<text text-anchor="start" x="13.5" y="-927.5" font-family="Helvetica,sans-Serif" font-size="10.00">+</text>
<text text-anchor="start" x="35.5" y="-927.5" font-family="Helvetica,sans-Serif" font-size="10.00">beginAll()</text>
<text text-anchor="start" x="13.5" y="-912.5" font-family="Helvetica,sans-Serif" font-size="10.00">+</text>
<text text-anchor="start" x="35.5" y="-912.5" font-family="Helvetica,sans-Serif" font-size="10.00">resetAll()</text>
<text text-anchor="start" x="13.5" y="-897.5" font-family="Helvetica,sans-Serif" font-size="10.00">#</text>
<text text-anchor="start" x="35.5" y="-897.5" font-family="Helvetica,sans-Serif" font-size="10.00">MatchingMIDIInputElement()</text>
<text text-anchor="start" x="15" y="-882.5" font-family="Helvetica,sans-Serif" font-size="10.00">*</text>
<text text-anchor="start" x="35.5" y="-882.5" font-family="Helvetica,sans-Serif" font-size="10.00">enable()</text>
<text text-anchor="start" x="15" y="-867.5" font-family="Helvetica,sans-Serif" font-size="10.00">*</text>
<text text-anchor="start" x="35.5" y="-867.5" font-family="Helvetica,sans-Serif" font-size="10.00">disable()</text>
<text text-anchor="start" x="15" y="-852.5" font-family="Helvetica,sans-Serif" font-size="10.00">*</text>
<text text-anchor="start" x="35.5" y="-852.5" font-family="Helvetica,sans-Serif" font-size="10.00">isEnabled()</text>
<text text-anchor="start" x="15" y="-837.5" font-family="Helvetica,sans-Serif" font-size="10.00">*</text>
<text text-anchor="start" x="35.5" y="-837.5" font-family="Helvetica,sans-Serif" font-size="10.00">moveDown()</text>
<polygon fill="#666666" stroke="#666666" points="0.5,-1102.5 0.5,-1102.5 199.5,-1102.5 199.5,-1102.5 0.5,-1102.5"/>
<polygon fill="#666666" stroke="#666666" points="0.5,-1042.5 0.5,-1042.5 33.5,-1042.5 33.5,-1042.5 0.5,-1042.5"/>
<polygon fill="#666666" stroke="#666666" points="33.5,-1042.5 33.5,-1042.5 199.5,-1042.5 199.5,-1042.5 33.5,-1042.5"/>
<polygon fill="none" stroke="#666666" points="0,-831 0,-1142 199,-1142 199,-831 0,-831"/>
</a>
</g>
</g>
<!-- Node4&#45;&gt;Node3 -->
<g id="edge3_Node000003_Node000004" class="edge">
<title>Node4&#45;&gt;Node3</title>
<g id="a_edge3_Node000003_Node000004"><a xlink:title=" ">
<path fill="none" stroke="#63b8ff" d="M139.66,-820.88C141.74,-812.38 143.83,-803.79 145.93,-795.19"/>
<polygon fill="none" stroke="#63b8ff" points="136.2,-820.28 137.24,-830.83 143.01,-821.94 136.2,-820.28"/>
</a>
</g>
</g>
<!-- Node5 -->
<g id="Node000005" class="node">
<title>Node5</title>
<g id="a_Node000005"><a xlink:href="../../d9/db1/classMIDIInputElement.html" target="_top" xlink:title="A class for objects that listen for incoming MIDI events.">
<polygon fill="white" stroke="transparent" points="171,-1362 28,-1362 28,-1178 171,-1178 171,-1362"/>
<text text-anchor="start" x="33.5" y="-1350" font-family="Helvetica,sans-Serif" font-size="10.00">MIDIInputElement&lt; Type &gt;</text>
<text text-anchor="start" x="98" y="-1335" font-family="Helvetica,sans-Serif" font-size="10.00"> </text>
<text text-anchor="start" x="37" y="-1320" font-family="Helvetica,sans-Serif" font-size="10.00">+</text>
<text text-anchor="start" x="54.5" y="-1320" font-family="Helvetica,sans-Serif" font-size="10.00">~MIDIInputElement()</text>
<text text-anchor="start" x="37" y="-1305" font-family="Helvetica,sans-Serif" font-size="10.00">+</text>
<text text-anchor="start" x="54.5" y="-1305" font-family="Helvetica,sans-Serif" font-size="10.00">begin()</text>
<text text-anchor="start" x="37" y="-1290" font-family="Helvetica,sans-Serif" font-size="10.00">+</text>
<text text-anchor="start" x="54.5" y="-1290" font-family="Helvetica,sans-Serif" font-size="10.00">reset()</text>
<text text-anchor="start" x="37" y="-1275" font-family="Helvetica,sans-Serif" font-size="10.00">+</text>
<text text-anchor="start" x="54.5" y="-1275" font-family="Helvetica,sans-Serif" font-size="10.00">update()</text>
<text text-anchor="start" x="37" y="-1260" font-family="Helvetica,sans-Serif" font-size="10.00">+</text>
<text text-anchor="start" x="54.5" y="-1260" font-family="Helvetica,sans-Serif" font-size="10.00">updateWith()</text>
<text text-anchor="start" x="37" y="-1245" font-family="Helvetica,sans-Serif" font-size="10.00">+</text>
<text text-anchor="start" x="54.5" y="-1245" font-family="Helvetica,sans-Serif" font-size="10.00">updateAllWith()</text>
<text text-anchor="start" x="37" y="-1230" font-family="Helvetica,sans-Serif" font-size="10.00">+</text>
<text text-anchor="start" x="54.5" y="-1230" font-family="Helvetica,sans-Serif" font-size="10.00">updateAll()</text>
<text text-anchor="start" x="37" y="-1215" font-family="Helvetica,sans-Serif" font-size="10.00">+</text>
<text text-anchor="start" x="54.5" y="-1215" font-family="Helvetica,sans-Serif" font-size="10.00">beginAll()</text>
<text text-anchor="start" x="37" y="-1200" font-family="Helvetica,sans-Serif" font-size="10.00">+</text>
<text text-anchor="start" x="54.5" y="-1200" font-family="Helvetica,sans-Serif" font-size="10.00">resetAll()</text>
<text text-anchor="start" x="37" y="-1185" font-family="Helvetica,sans-Serif" font-size="10.00">#</text>
<text text-anchor="start" x="54.5" y="-1185" font-family="Helvetica,sans-Serif" font-size="10.00">MIDIInputElement()</text>
<polygon fill="#666666" stroke="#666666" points="28.5,-1345 28.5,-1345 171.5,-1345 171.5,-1345 28.5,-1345"/>
<polygon fill="#666666" stroke="#666666" points="28.5,-1330 28.5,-1330 171.5,-1330 171.5,-1330 28.5,-1330"/>
<polygon fill="none" stroke="#666666" points="28,-1178 28,-1362 171,-1362 171,-1178 28,-1178"/>
</a>
</g>
</g>
<!-- Node5&#45;&gt;Node4 -->
<g id="edge4_Node000004_Node000005" class="edge">
<title>Node5&#45;&gt;Node4</title>
<g id="a_edge4_Node000004_Node000005"><a xlink:title=" ">
<path fill="none" stroke="#63b8ff" d="M99.5,-1167.84C99.5,-1159.43 99.5,-1150.82 99.5,-1142.13"/>
<polygon fill="none" stroke="#63b8ff" points="96,-1167.99 99.5,-1177.99 103,-1167.99 96,-1167.99"/>
</a>
</g>
</g>
<!-- Node6 -->
<g id="Node000006" class="node">
<title>Node6</title>
<g id="a_Node000006"><a xlink:href="../../d8/d1a/classAH_1_1UpdatableCRTP.html" target="_top" xlink:title=" ">
<polygon fill="white" stroke="transparent" points="171.5,-1578 27.5,-1578 27.5,-1398 171.5,-1398 171.5,-1578"/>
<text text-anchor="start" x="32.5" y="-1566" font-family="Helvetica,sans-Serif" font-size="10.00">UpdatableCRTP&lt; MIDIInput</text>
<text text-anchor="start" x="51" y="-1555" font-family="Helvetica,sans-Serif" font-size="10.00">Element&lt; Type &gt; &gt;</text>
<text text-anchor="start" x="39.5" y="-1540" font-family="Helvetica,sans-Serif" font-size="10.00">#</text>
<text text-anchor="start" x="60.5" y="-1540" font-family="Helvetica,sans-Serif" font-size="10.00">next</text>
<text text-anchor="start" x="39.5" y="-1525" font-family="Helvetica,sans-Serif" font-size="10.00">#</text>
<text text-anchor="start" x="60.5" y="-1525" font-family="Helvetica,sans-Serif" font-size="10.00">previous</text>
<text text-anchor="start" x="39.5" y="-1510" font-family="Helvetica,sans-Serif" font-size="10.00">#</text>
<text text-anchor="start" x="60.5" y="-1510" font-family="Helvetica,sans-Serif" font-size="10.00">updatables</text>
<text text-anchor="start" x="39.5" y="-1495" font-family="Helvetica,sans-Serif" font-size="10.00">+</text>
<text text-anchor="start" x="60.5" y="-1495" font-family="Helvetica,sans-Serif" font-size="10.00">~UpdatableCRTP()</text>
<text text-anchor="start" x="39.5" y="-1480" font-family="Helvetica,sans-Serif" font-size="10.00">#</text>
<text text-anchor="start" x="60.5" y="-1480" font-family="Helvetica,sans-Serif" font-size="10.00">UpdatableCRTP()</text>
<text text-anchor="start" x="39.5" y="-1465" font-family="Helvetica,sans-Serif" font-size="10.00">#</text>
<text text-anchor="start" x="60.5" y="-1465" font-family="Helvetica,sans-Serif" font-size="10.00">operator=()</text>
<text text-anchor="start" x="41" y="-1450" font-family="Helvetica,sans-Serif" font-size="10.00">*</text>
<text text-anchor="start" x="60.5" y="-1450" font-family="Helvetica,sans-Serif" font-size="10.00">enable()</text>
<text text-anchor="start" x="41" y="-1435" font-family="Helvetica,sans-Serif" font-size="10.00">*</text>
<text text-anchor="start" x="60.5" y="-1435" font-family="Helvetica,sans-Serif" font-size="10.00">disable()</text>
<text text-anchor="start" x="41" y="-1420" font-family="Helvetica,sans-Serif" font-size="10.00">*</text>
<text text-anchor="start" x="60.5" y="-1420" font-family="Helvetica,sans-Serif" font-size="10.00">isEnabled()</text>
<text text-anchor="start" x="41" y="-1405" font-family="Helvetica,sans-Serif" font-size="10.00">*</text>
<text text-anchor="start" x="60.5" y="-1405" font-family="Helvetica,sans-Serif" font-size="10.00">moveDown()</text>
<polygon fill="#666666" stroke="#666666" points="27.5,-1550 27.5,-1550 171.5,-1550 171.5,-1550 27.5,-1550"/>
<polygon fill="#666666" stroke="#666666" points="27.5,-1505 27.5,-1505 58.5,-1505 58.5,-1505 27.5,-1505"/>
<polygon fill="#666666" stroke="#666666" points="58.5,-1505 58.5,-1505 171.5,-1505 171.5,-1505 58.5,-1505"/>
<polygon fill="none" stroke="#666666" points="27.5,-1398 27.5,-1578 171.5,-1578 171.5,-1398 27.5,-1398"/>
</a>
</g>
</g>
<!-- Node6&#45;&gt;Node5 -->
<g id="edge5_Node000005_Node000006" class="edge">
<title>Node6&#45;&gt;Node5</title>
<g id="a_edge5_Node000005_Node000006"><a xlink:title=" ">
<path fill="none" stroke="#63b8ff" d="M99.5,-1387.66C99.5,-1379.22 99.5,-1370.71 99.5,-1362.34"/>
<polygon fill="none" stroke="#63b8ff" points="96,-1387.9 99.5,-1397.9 103,-1387.9 96,-1387.9"/>
</a>
</g>
</g>
<!-- Node7 -->
<g id="Node000007" class="node">
<title>Node7</title>
<g id="a_Node000007"><a xlink:href="../../d4/d23/classDoublyLinkable.html" target="_top" xlink:title=" ">
<polygon fill="white" stroke="transparent" points="171.5,-1719 27.5,-1719 27.5,-1614 171.5,-1614 171.5,-1719"/>
<text text-anchor="start" x="32.5" y="-1706.5" font-family="Helvetica,sans-Serif" font-size="10.00">DoublyLinkable&lt; MIDIInput</text>
<text text-anchor="start" x="51" y="-1695.5" font-family="Helvetica,sans-Serif" font-size="10.00">Element&lt; Type &gt; &gt;</text>
<text text-anchor="start" x="39.5" y="-1680.5" font-family="Helvetica,sans-Serif" font-size="10.00">#</text>
<text text-anchor="start" x="60.5" y="-1680.5" font-family="Helvetica,sans-Serif" font-size="10.00">next</text>
<text text-anchor="start" x="39.5" y="-1665.5" font-family="Helvetica,sans-Serif" font-size="10.00">#</text>
<text text-anchor="start" x="60.5" y="-1665.5" font-family="Helvetica,sans-Serif" font-size="10.00">previous</text>
<text text-anchor="start" x="39.5" y="-1650.5" font-family="Helvetica,sans-Serif" font-size="10.00">#</text>
<text text-anchor="start" x="60.5" y="-1650.5" font-family="Helvetica,sans-Serif" font-size="10.00">~DoublyLinkable()</text>
<text text-anchor="start" x="39.5" y="-1635.5" font-family="Helvetica,sans-Serif" font-size="10.00">#</text>
<text text-anchor="start" x="60.5" y="-1635.5" font-family="Helvetica,sans-Serif" font-size="10.00">DoublyLinkable()</text>
<text text-anchor="start" x="39.5" y="-1620.5" font-family="Helvetica,sans-Serif" font-size="10.00">#</text>
<text text-anchor="start" x="60.5" y="-1620.5" font-family="Helvetica,sans-Serif" font-size="10.00">operator=()</text>
<polygon fill="#666666" stroke="#666666" points="27.5,-1690.5 27.5,-1690.5 171.5,-1690.5 171.5,-1690.5 27.5,-1690.5"/>
<polygon fill="#666666" stroke="#666666" points="27.5,-1660.5 27.5,-1660.5 58.5,-1660.5 58.5,-1660.5 27.5,-1660.5"/>
<polygon fill="#666666" stroke="#666666" points="58.5,-1660.5 58.5,-1660.5 171.5,-1660.5 171.5,-1660.5 58.5,-1660.5"/>
<polygon fill="none" stroke="#666666" points="27.5,-1614 27.5,-1719 171.5,-1719 171.5,-1614 27.5,-1614"/>
</a>
</g>
</g>
<!-- Node7&#45;&gt;Node6 -->
<g id="edge6_Node000006_Node000007" class="edge">
<title>Node7&#45;&gt;Node6</title>
<g id="a_edge6_Node000006_Node000007"><a xlink:title=" ">
<path fill="none" stroke="#63b8ff" d="M99.5,-1603.96C99.5,-1595.58 99.5,-1586.86 99.5,-1578.12"/>
<polygon fill="none" stroke="#63b8ff" points="96,-1603.97 99.5,-1613.97 103,-1603.97 96,-1603.97"/>
</a>
</g>
</g>
<!-- Node8 -->
<g id="Node000008" class="node">
<title>Node8</title>
<g id="a_Node000008"><a xlink:href="../../d2/dbf/classBankSettingChangeCallback.html" target="_top" xlink:title="Callback class for Bankable objects that need to be notified when the active setting of their Bank ch...">
<polygon fill="white" stroke="transparent" points="366,-1011 217,-1011 217,-962 366,-962 366,-1011"/>
<text text-anchor="start" x="222.5" y="-998.5" font-family="Helvetica,sans-Serif" font-size="10.00">BankSettingChangeCallback</text>
<text text-anchor="start" x="290" y="-983.5" font-family="Helvetica,sans-Serif" font-size="10.00"> </text>
<text text-anchor="start" x="225.5" y="-968.5" font-family="Helvetica,sans-Serif" font-size="10.00">&#45;</text>
<text text-anchor="start" x="237.5" y="-968.5" font-family="Helvetica,sans-Serif" font-size="10.00">onBankSettingChange()</text>
<polygon fill="#666666" stroke="#666666" points="217.5,-993.5 217.5,-993.5 366.5,-993.5 366.5,-993.5 217.5,-993.5"/>
<polygon fill="#666666" stroke="#666666" points="217.5,-978.5 217.5,-978.5 366.5,-978.5 366.5,-978.5 217.5,-978.5"/>
<polygon fill="none" stroke="#666666" points="217,-962 217,-1011 366,-1011 366,-962 217,-962"/>
</a>
</g>
</g>
<!-- Node8&#45;&gt;Node3 -->
<g id="edge7_Node000003_Node000008" class="edge">
<title>Node8&#45;&gt;Node3</title>
<g id="a_edge7_Node000003_Node000008"><a xlink:title=" ">
<path fill="none" stroke="#63b8ff" d="M283.29,-951.86C274.53,-915.95 259.9,-855.96 245.06,-795.15"/>
<polygon fill="none" stroke="#63b8ff" points="279.94,-952.89 285.71,-961.77 286.74,-951.23 279.94,-952.89"/>
</a>
</g>
</g>
<!-- Node9 -->
<g id="Node000009" class="node">
<title>Node9</title>
<g id="a_Node000009"><a xlink:href="../../d4/d23/classDoublyLinkable.html" target="_top" xlink:title=" ">
<polygon fill="white" stroke="transparent" points="369.5,-1322.5 213.5,-1322.5 213.5,-1217.5 369.5,-1217.5 369.5,-1322.5"/>
<text text-anchor="start" x="218.5" y="-1310" font-family="Helvetica,sans-Serif" font-size="10.00">DoublyLinkable&lt; BankSetting</text>
<text text-anchor="start" x="246" y="-1299" font-family="Helvetica,sans-Serif" font-size="10.00">ChangeCallback &gt;</text>
<text text-anchor="start" x="228.5" y="-1284" font-family="Helvetica,sans-Serif" font-size="10.00">#</text>
<text text-anchor="start" x="252.5" y="-1284" font-family="Helvetica,sans-Serif" font-size="10.00">next</text>
<text text-anchor="start" x="228.5" y="-1269" font-family="Helvetica,sans-Serif" font-size="10.00">#</text>
<text text-anchor="start" x="252.5" y="-1269" font-family="Helvetica,sans-Serif" font-size="10.00">previous</text>
<text text-anchor="start" x="228.5" y="-1254" font-family="Helvetica,sans-Serif" font-size="10.00">#</text>
<text text-anchor="start" x="252.5" y="-1254" font-family="Helvetica,sans-Serif" font-size="10.00">~DoublyLinkable()</text>
<text text-anchor="start" x="228.5" y="-1239" font-family="Helvetica,sans-Serif" font-size="10.00">#</text>
<text text-anchor="start" x="252.5" y="-1239" font-family="Helvetica,sans-Serif" font-size="10.00">DoublyLinkable()</text>
<text text-anchor="start" x="228.5" y="-1224" font-family="Helvetica,sans-Serif" font-size="10.00">#</text>
<text text-anchor="start" x="252.5" y="-1224" font-family="Helvetica,sans-Serif" font-size="10.00">operator=()</text>
<polygon fill="#666666" stroke="#666666" points="213.5,-1294 213.5,-1294 369.5,-1294 369.5,-1294 213.5,-1294"/>
<polygon fill="#666666" stroke="#666666" points="213.5,-1264 213.5,-1264 250.5,-1264 250.5,-1264 213.5,-1264"/>
<polygon fill="#666666" stroke="#666666" points="250.5,-1264 250.5,-1264 369.5,-1264 369.5,-1264 250.5,-1264"/>
<polygon fill="none" stroke="#666666" points="213.5,-1217.5 213.5,-1322.5 369.5,-1322.5 369.5,-1217.5 213.5,-1217.5"/>
</a>
</g>
</g>
<!-- Node9&#45;&gt;Node8 -->
<g id="edge8_Node000008_Node000009" class="edge">
<title>Node9&#45;&gt;Node8</title>
<g id="a_edge8_Node000008_Node000009"><a xlink:title=" ">
<path fill="none" stroke="#63b8ff" d="M291.5,-1206.99C291.5,-1145.38 291.5,-1054.09 291.5,-1011.28"/>
<polygon fill="none" stroke="#63b8ff" points="288,-1207.37 291.5,-1217.37 295,-1207.37 288,-1207.37"/>
</a>
</g>
</g>
<!-- Node10 -->
<g id="Node000010" class="node">
<title>Node10</title>
<g id="a_Node000010"><a xlink:href="../../d8/d87/classInterfaces_1_1IValue.html" target="_top" xlink:title="Abstract interface for MIDI input elements that receive and store a 7&#45;bit value.">
<polygon fill="white" stroke="transparent" points="379,-630.5 302,-630.5 302,-551.5 379,-551.5 379,-630.5"/>
<text text-anchor="start" x="325.5" y="-618" font-family="Helvetica,sans-Serif" font-size="10.00">IValue</text>
<text text-anchor="start" x="306.5" y="-603" font-family="Helvetica,sans-Serif" font-size="10.00">#</text>
<text text-anchor="start" x="319.5" y="-603" font-family="Helvetica,sans-Serif" font-size="10.00">dirty</text>
<text text-anchor="start" x="306.5" y="-588" font-family="Helvetica,sans-Serif" font-size="10.00">+</text>
<text text-anchor="start" x="319.5" y="-588" font-family="Helvetica,sans-Serif" font-size="10.00">getValue()</text>
<text text-anchor="start" x="308" y="-573" font-family="Helvetica,sans-Serif" font-size="10.00">*</text>
<text text-anchor="start" x="319.5" y="-573" font-family="Helvetica,sans-Serif" font-size="10.00">getDirty()</text>
<text text-anchor="start" x="308" y="-558" font-family="Helvetica,sans-Serif" font-size="10.00">*</text>
<text text-anchor="start" x="319.5" y="-558" font-family="Helvetica,sans-Serif" font-size="10.00">clearDirty()</text>
<polygon fill="#666666" stroke="#666666" points="302.5,-613 302.5,-613 379.5,-613 379.5,-613 302.5,-613"/>
<polygon fill="#666666" stroke="#666666" points="302.5,-598 302.5,-598 317.5,-598 317.5,-598 302.5,-598"/>
<polygon fill="#666666" stroke="#666666" points="317.5,-598 317.5,-598 379.5,-598 379.5,-598 317.5,-598"/>
<polygon fill="none" stroke="#666666" points="302,-551.5 302,-630.5 379,-630.5 379,-551.5 302,-551.5"/>
</a>
</g>
</g>
<!-- Node10&#45;&gt;Node2 -->
<g id="edge9_Node000002_Node000010" class="edge">
<title>Node10&#45;&gt;Node2</title>
<g id="a_edge9_Node000002_Node000010"><a xlink:title=" ">
<path fill="none" stroke="#63b8ff" d="M329.2,-541.54C317.33,-490.65 298.52,-409.99 284.78,-351.1"/>
<polygon fill="none" stroke="#63b8ff" points="325.8,-542.36 331.48,-551.31 332.61,-540.77 325.8,-542.36"/>
</a>
</g>
</g>
</g>
</svg>
