<?xml version="1.0" encoding="UTF-8" standalone="no"?>
<!DOCTYPE svg PUBLIC "-//W3C//DTD SVG 1.1//EN"
 "http://www.w3.org/Graphics/SVG/1.1/DTD/svg11.dtd">
<!-- Generated by graphviz version 2.43.0 (0)
 -->
<!-- Title: CCButtonMatrix&lt; NumRows, NumCols &gt; Pages: 1 -->
<svg width="847pt" height="1170pt"
 viewBox="0.00 0.00 846.53 1170.00" xmlns="http://www.w3.org/2000/svg" xmlns:xlink="http://www.w3.org/1999/xlink">
<g id="graph0" class="graph" transform="scale(1 1) rotate(0) translate(4 1166)">
<title>CCButtonMatrix&lt; NumRows, NumCols &gt;</title>
<!-- Node1 -->
<g id="Node000001" class="node">
<title>Node1</title>
<g id="a_Node000001"><a xlink:title="A class of MIDIOutputElements that read the input from a matrix of momentary push buttons or switches...">
<polygon fill="#999999" stroke="transparent" points="599.53,-60 447.53,-60 447.53,0 599.53,0 599.53,-60"/>
<text text-anchor="start" x="452.53" y="-48" font-family="Helvetica,sans-Serif" font-size="10.00">CCButtonMatrix&lt; NumRows,</text>
<text text-anchor="start" x="494.03" y="-37" font-family="Helvetica,sans-Serif" font-size="10.00"> NumCols &gt;</text>
<text text-anchor="start" x="521.53" y="-22" font-family="Helvetica,sans-Serif" font-size="10.00"> </text>
<text text-anchor="start" x="463.03" y="-7" font-family="Helvetica,sans-Serif" font-size="10.00">+</text>
<text text-anchor="start" x="487.53" y="-7" font-family="Helvetica,sans-Serif" font-size="10.00">CCButtonMatrix()</text>
<polygon fill="#666666" stroke="#666666" points="447.53,-32 447.53,-32 599.53,-32 599.53,-32 447.53,-32"/>
<polygon fill="#666666" stroke="#666666" points="447.53,-17 447.53,-17 599.53,-17 599.53,-17 447.53,-17"/>
<polygon fill="none" stroke="#666666" points="447.53,0 447.53,-60 599.53,-60 599.53,0 447.53,0"/>
</a>
</g>
</g>
<!-- Node2 -->
<g id="Node000002" class="node">
<title>Node2</title>
<g id="a_Node000002"><a xlink:href="../../d3/d65/classBankable_1_1MIDIButtonMatrix.html" target="_top" xlink:title=" ">
<polygon fill="white" stroke="transparent" points="606.53,-554 440.53,-554 440.53,-97 606.53,-97 606.53,-554"/>
<text text-anchor="start" x="445.53" y="-541.5" font-family="Helvetica,sans-Serif" font-size="10.00">MIDIButtonMatrix&lt; Matrix</text>
<text text-anchor="start" x="445.53" y="-530.5" font-family="Helvetica,sans-Serif" font-size="10.00">Address&lt; NumRows, NumCols</text>
<text text-anchor="start" x="445.53" y="-519.5" font-family="Helvetica,sans-Serif" font-size="10.00"> &gt;, DigitalCCSender, NumRows,</text>
<text text-anchor="start" x="494.03" y="-508.5" font-family="Helvetica,sans-Serif" font-size="10.00"> NumCols &gt;</text>
<text text-anchor="start" x="456.53" y="-493.5" font-family="Helvetica,sans-Serif" font-size="10.00">#</text>
<text text-anchor="start" x="481.53" y="-493.5" font-family="Helvetica,sans-Serif" font-size="10.00">address</text>
<text text-anchor="start" x="456.53" y="-478.5" font-family="Helvetica,sans-Serif" font-size="10.00">#</text>
<text text-anchor="start" x="481.53" y="-478.5" font-family="Helvetica,sans-Serif" font-size="10.00">activeButtons</text>
<text text-anchor="start" x="456.53" y="-463.5" font-family="Helvetica,sans-Serif" font-size="10.00">#</text>
<text text-anchor="start" x="481.53" y="-463.5" font-family="Helvetica,sans-Serif" font-size="10.00">next</text>
<text text-anchor="start" x="456.53" y="-448.5" font-family="Helvetica,sans-Serif" font-size="10.00">#</text>
<text text-anchor="start" x="481.53" y="-448.5" font-family="Helvetica,sans-Serif" font-size="10.00">previous</text>
<text text-anchor="start" x="456.53" y="-433.5" font-family="Helvetica,sans-Serif" font-size="10.00">#</text>
<text text-anchor="start" x="481.53" y="-433.5" font-family="Helvetica,sans-Serif" font-size="10.00">updatables</text>
<text text-anchor="start" x="459.03" y="-418.5" font-family="Helvetica,sans-Serif" font-size="10.00">&#45;</text>
<text text-anchor="start" x="481.53" y="-418.5" font-family="Helvetica,sans-Serif" font-size="10.00">debounceTime</text>
<text text-anchor="start" x="459.03" y="-403.5" font-family="Helvetica,sans-Serif" font-size="10.00">&#45;</text>
<text text-anchor="start" x="481.53" y="-403.5" font-family="Helvetica,sans-Serif" font-size="10.00">prevRefresh</text>
<text text-anchor="start" x="459.03" y="-388.5" font-family="Helvetica,sans-Serif" font-size="10.00">&#45;</text>
<text text-anchor="start" x="481.53" y="-388.5" font-family="Helvetica,sans-Serif" font-size="10.00">prevStates</text>
<text text-anchor="start" x="459.03" y="-373.5" font-family="Helvetica,sans-Serif" font-size="10.00">&#45;</text>
<text text-anchor="start" x="481.53" y="-373.5" font-family="Helvetica,sans-Serif" font-size="10.00">rowPins</text>
<text text-anchor="start" x="459.03" y="-358.5" font-family="Helvetica,sans-Serif" font-size="10.00">&#45;</text>
<text text-anchor="start" x="481.53" y="-358.5" font-family="Helvetica,sans-Serif" font-size="10.00">colPins</text>
<text text-anchor="start" x="456.53" y="-343.5" font-family="Helvetica,sans-Serif" font-size="10.00">+</text>
<text text-anchor="start" x="481.53" y="-343.5" font-family="Helvetica,sans-Serif" font-size="10.00">begin()</text>
<text text-anchor="start" x="456.53" y="-328.5" font-family="Helvetica,sans-Serif" font-size="10.00">+</text>
<text text-anchor="start" x="481.53" y="-328.5" font-family="Helvetica,sans-Serif" font-size="10.00">update()</text>
<text text-anchor="start" x="456.53" y="-313.5" font-family="Helvetica,sans-Serif" font-size="10.00">+</text>
<text text-anchor="start" x="481.53" y="-313.5" font-family="Helvetica,sans-Serif" font-size="10.00">getPrevState()</text>
<text text-anchor="start" x="456.53" y="-298.5" font-family="Helvetica,sans-Serif" font-size="10.00">+</text>
<text text-anchor="start" x="481.53" y="-298.5" font-family="Helvetica,sans-Serif" font-size="10.00">setDebounceTime()</text>
<text text-anchor="start" x="456.53" y="-283.5" font-family="Helvetica,sans-Serif" font-size="10.00">+</text>
<text text-anchor="start" x="481.53" y="-283.5" font-family="Helvetica,sans-Serif" font-size="10.00">getDebounceTime()</text>
<text text-anchor="start" x="456.53" y="-268.5" font-family="Helvetica,sans-Serif" font-size="10.00">#</text>
<text text-anchor="start" x="481.53" y="-268.5" font-family="Helvetica,sans-Serif" font-size="10.00">MIDIButtonMatrix()</text>
<text text-anchor="start" x="459.03" y="-253.5" font-family="Helvetica,sans-Serif" font-size="10.00">&#45;</text>
<text text-anchor="start" x="481.53" y="-253.5" font-family="Helvetica,sans-Serif" font-size="10.00">onButtonChanged()</text>
<text text-anchor="start" x="459.03" y="-238.5" font-family="Helvetica,sans-Serif" font-size="10.00">&#45;</text>
<text text-anchor="start" x="481.53" y="-238.5" font-family="Helvetica,sans-Serif" font-size="10.00">setPrevState()</text>
<text text-anchor="start" x="459.03" y="-223.5" font-family="Helvetica,sans-Serif" font-size="10.00">&#45;</text>
<text text-anchor="start" x="481.53" y="-223.5" font-family="Helvetica,sans-Serif" font-size="10.00">positionToBits()</text>
<text text-anchor="start" x="459.03" y="-208.5" font-family="Helvetica,sans-Serif" font-size="10.00">&#45;</text>
<text text-anchor="start" x="481.53" y="-208.5" font-family="Helvetica,sans-Serif" font-size="10.00">bitsToIndex()</text>
<text text-anchor="start" x="459.03" y="-193.5" font-family="Helvetica,sans-Serif" font-size="10.00">&#45;</text>
<text text-anchor="start" x="481.53" y="-193.5" font-family="Helvetica,sans-Serif" font-size="10.00">bitsToBitmask()</text>
<text text-anchor="start" x="458.03" y="-178.5" font-family="Helvetica,sans-Serif" font-size="10.00">*</text>
<text text-anchor="start" x="481.53" y="-178.5" font-family="Helvetica,sans-Serif" font-size="10.00">enable()</text>
<text text-anchor="start" x="458.03" y="-163.5" font-family="Helvetica,sans-Serif" font-size="10.00">*</text>
<text text-anchor="start" x="481.53" y="-163.5" font-family="Helvetica,sans-Serif" font-size="10.00">disable()</text>
<text text-anchor="start" x="458.03" y="-148.5" font-family="Helvetica,sans-Serif" font-size="10.00">*</text>
<text text-anchor="start" x="481.53" y="-148.5" font-family="Helvetica,sans-Serif" font-size="10.00">isEnabled()</text>
<text text-anchor="start" x="458.03" y="-133.5" font-family="Helvetica,sans-Serif" font-size="10.00">*</text>
<text text-anchor="start" x="481.53" y="-133.5" font-family="Helvetica,sans-Serif" font-size="10.00">moveDown()</text>
<text text-anchor="start" x="458.03" y="-118.5" font-family="Helvetica,sans-Serif" font-size="10.00">*</text>
<text text-anchor="start" x="481.53" y="-118.5" font-family="Helvetica,sans-Serif" font-size="10.00">beginAll()</text>
<text text-anchor="start" x="458.03" y="-103.5" font-family="Helvetica,sans-Serif" font-size="10.00">*</text>
<text text-anchor="start" x="481.53" y="-103.5" font-family="Helvetica,sans-Serif" font-size="10.00">updateAll()</text>
<polygon fill="#666666" stroke="#666666" points="440.53,-503.5 440.53,-503.5 606.53,-503.5 606.53,-503.5 440.53,-503.5"/>
<polygon fill="#666666" stroke="#666666" points="440.53,-353.5 440.53,-353.5 479.53,-353.5 479.53,-353.5 440.53,-353.5"/>
<polygon fill="#666666" stroke="#666666" points="479.53,-353.5 479.53,-353.5 606.53,-353.5 606.53,-353.5 479.53,-353.5"/>
<polygon fill="none" stroke="#666666" points="440.53,-97 440.53,-554 606.53,-554 606.53,-97 440.53,-97"/>
</a>
</g>
</g>
<!-- Node2&#45;&gt;Node1 -->
<g id="edge1_Node000001_Node000002" class="edge">
<title>Node2&#45;&gt;Node1</title>
<g id="a_edge1_Node000001_Node000002"><a xlink:title=" ">
<path fill="none" stroke="#63b8ff" d="M523.53,-86.72C523.53,-76.86 523.53,-67.9 523.53,-60.2"/>
<polygon fill="none" stroke="#63b8ff" points="520.03,-86.87 523.53,-96.87 527.03,-86.87 520.03,-86.87"/>
</a>
</g>
</g>
<!-- Node3 -->
<g id="Node000003" class="node">
<title>Node3</title>
<g id="a_Node000003"><a xlink:href="../../d1/d55/classAH_1_1Updatable.html" target="_top" xlink:title="A super class for object that have to be updated regularly.">
<polygon fill="white" stroke="transparent" points="451.03,-800 344.03,-800 344.03,-706 451.03,-706 451.03,-800"/>
<text text-anchor="start" x="349.53" y="-788" font-family="Helvetica,sans-Serif" font-size="10.00">MIDIOutputElement</text>
<text text-anchor="start" x="396.03" y="-773" font-family="Helvetica,sans-Serif" font-size="10.00"> </text>
<text text-anchor="start" x="357.03" y="-758" font-family="Helvetica,sans-Serif" font-size="10.00">*</text>
<text text-anchor="start" x="375.53" y="-758" font-family="Helvetica,sans-Serif" font-size="10.00">begin()</text>
<text text-anchor="start" x="357.03" y="-743" font-family="Helvetica,sans-Serif" font-size="10.00">*</text>
<text text-anchor="start" x="375.53" y="-743" font-family="Helvetica,sans-Serif" font-size="10.00">update()</text>
<text text-anchor="start" x="357.03" y="-728" font-family="Helvetica,sans-Serif" font-size="10.00">*</text>
<text text-anchor="start" x="375.53" y="-728" font-family="Helvetica,sans-Serif" font-size="10.00">beginAll()</text>
<text text-anchor="start" x="357.03" y="-713" font-family="Helvetica,sans-Serif" font-size="10.00">*</text>
<text text-anchor="start" x="375.53" y="-713" font-family="Helvetica,sans-Serif" font-size="10.00">updateAll()</text>
<polygon fill="#666666" stroke="#666666" points="344.53,-783 344.53,-783 451.53,-783 451.53,-783 344.53,-783"/>
<polygon fill="#666666" stroke="#666666" points="344.53,-768 344.53,-768 451.53,-768 451.53,-768 344.53,-768"/>
<polygon fill="none" stroke="#666666" points="344.03,-706 344.03,-800 451.03,-800 451.03,-706 344.03,-706"/>
</a>
</g>
</g>
<!-- Node3&#45;&gt;Node2 -->
<g id="edge2_Node000002_Node000003" class="edge">
<title>Node3&#45;&gt;Node2</title>
<g id="a_edge2_Node000002_Node000003"><a xlink:title=" ">
<path fill="none" stroke="#63b8ff" d="M414.11,-696.01C425.15,-658.73 440.46,-607.01 456.14,-554.06"/>
<polygon fill="none" stroke="#63b8ff" points="410.73,-695.07 411.25,-705.65 417.45,-697.06 410.73,-695.07"/>
</a>
</g>
</g>
<!-- Node4 -->
<g id="Node000004" class="node">
<title>Node4</title>
<g id="a_Node000004"><a xlink:href="../../d8/d1a/classAH_1_1UpdatableCRTP.html" target="_top" xlink:title=" ">
<polygon fill="white" stroke="transparent" points="333.03,-1132 186.03,-1132 186.03,-967 333.03,-967 333.03,-1132"/>
<text text-anchor="start" x="191.53" y="-1119.5" font-family="Helvetica,sans-Serif" font-size="10.00">UpdatableCRTP&lt; Updatable</text>
<text text-anchor="start" x="199.53" y="-1108.5" font-family="Helvetica,sans-Serif" font-size="10.00">&lt; NormalUpdatable &gt; &gt;</text>
<text text-anchor="start" x="199.03" y="-1093.5" font-family="Helvetica,sans-Serif" font-size="10.00">#</text>
<text text-anchor="start" x="220.53" y="-1093.5" font-family="Helvetica,sans-Serif" font-size="10.00">next</text>
<text text-anchor="start" x="199.03" y="-1078.5" font-family="Helvetica,sans-Serif" font-size="10.00">#</text>
<text text-anchor="start" x="220.53" y="-1078.5" font-family="Helvetica,sans-Serif" font-size="10.00">previous</text>
<text text-anchor="start" x="199.03" y="-1063.5" font-family="Helvetica,sans-Serif" font-size="10.00">+</text>
<text text-anchor="start" x="220.53" y="-1063.5" font-family="Helvetica,sans-Serif" font-size="10.00">~UpdatableCRTP()</text>
<text text-anchor="start" x="199.03" y="-1048.5" font-family="Helvetica,sans-Serif" font-size="10.00">#</text>
<text text-anchor="start" x="220.53" y="-1048.5" font-family="Helvetica,sans-Serif" font-size="10.00">UpdatableCRTP()</text>
<text text-anchor="start" x="199.03" y="-1033.5" font-family="Helvetica,sans-Serif" font-size="10.00">#</text>
<text text-anchor="start" x="220.53" y="-1033.5" font-family="Helvetica,sans-Serif" font-size="10.00">operator=()</text>
<text text-anchor="start" x="200.53" y="-1018.5" font-family="Helvetica,sans-Serif" font-size="10.00">*</text>
<text text-anchor="start" x="220.53" y="-1018.5" font-family="Helvetica,sans-Serif" font-size="10.00">enable()</text>
<text text-anchor="start" x="200.53" y="-1003.5" font-family="Helvetica,sans-Serif" font-size="10.00">*</text>
<text text-anchor="start" x="220.53" y="-1003.5" font-family="Helvetica,sans-Serif" font-size="10.00">disable()</text>
<text text-anchor="start" x="200.53" y="-988.5" font-family="Helvetica,sans-Serif" font-size="10.00">*</text>
<text text-anchor="start" x="220.53" y="-988.5" font-family="Helvetica,sans-Serif" font-size="10.00">isEnabled()</text>
<text text-anchor="start" x="200.53" y="-973.5" font-family="Helvetica,sans-Serif" font-size="10.00">*</text>
<text text-anchor="start" x="220.53" y="-973.5" font-family="Helvetica,sans-Serif" font-size="10.00">moveDown()</text>
<polygon fill="#666666" stroke="#666666" points="186.53,-1103.5 186.53,-1103.5 333.53,-1103.5 333.53,-1103.5 186.53,-1103.5"/>
<polygon fill="#666666" stroke="#666666" points="186.53,-1073.5 186.53,-1073.5 218.53,-1073.5 218.53,-1073.5 186.53,-1073.5"/>
<polygon fill="#666666" stroke="#666666" points="218.53,-1073.5 218.53,-1073.5 333.53,-1073.5 333.53,-1073.5 218.53,-1073.5"/>
<polygon fill="none" stroke="#666666" points="186.03,-967 186.03,-1132 333.03,-1132 333.03,-967 186.03,-967"/>
</a>
</g>
</g>
<!-- Node4&#45;&gt;Node3 -->
<g id="edge3_Node000003_Node000004" class="edge">
<title>Node4&#45;&gt;Node3</title>
<g id="a_edge3_Node000003_Node000004"><a xlink:title=" ">
<path fill="none" stroke="#63b8ff" d="M309.98,-958.02C316.77,-945.04 323.47,-931.76 329.53,-919 348.26,-879.54 366.99,-833.49 380.03,-800.08"/>
<polygon fill="none" stroke="#63b8ff" points="306.84,-956.48 305.28,-966.96 313.03,-959.74 306.84,-956.48"/>
</a>
</g>
</g>
<!-- Node6 -->
<g id="Node000006" class="node">
<title>Node6</title>
<g id="a_Node000006"><a xlink:href="../../d1/d55/classAH_1_1Updatable.html" target="_top" xlink:title=" ">
<polygon fill="white" stroke="transparent" points="287.53,-845 117.53,-845 117.53,-661 287.53,-661 287.53,-845"/>
<text text-anchor="start" x="122.53" y="-833" font-family="Helvetica,sans-Serif" font-size="10.00">Updatable&lt; NormalUpdatable &gt;</text>
<text text-anchor="start" x="142.53" y="-818" font-family="Helvetica,sans-Serif" font-size="10.00">#</text>
<text text-anchor="start" x="176.53" y="-818" font-family="Helvetica,sans-Serif" font-size="10.00">next</text>
<text text-anchor="start" x="142.53" y="-803" font-family="Helvetica,sans-Serif" font-size="10.00">#</text>
<text text-anchor="start" x="176.53" y="-803" font-family="Helvetica,sans-Serif" font-size="10.00">previous</text>
<text text-anchor="start" x="142.53" y="-788" font-family="Helvetica,sans-Serif" font-size="10.00">#</text>
<text text-anchor="start" x="176.53" y="-788" font-family="Helvetica,sans-Serif" font-size="10.00">updatables</text>
<text text-anchor="start" x="144.03" y="-773" font-family="Helvetica,sans-Serif" font-size="10.00">*</text>
<text text-anchor="start" x="176.53" y="-773" font-family="Helvetica,sans-Serif" font-size="10.00">begin()</text>
<text text-anchor="start" x="144.03" y="-758" font-family="Helvetica,sans-Serif" font-size="10.00">*</text>
<text text-anchor="start" x="176.53" y="-758" font-family="Helvetica,sans-Serif" font-size="10.00">update()</text>
<text text-anchor="start" x="144.03" y="-743" font-family="Helvetica,sans-Serif" font-size="10.00">*</text>
<text text-anchor="start" x="176.53" y="-743" font-family="Helvetica,sans-Serif" font-size="10.00">beginAll()</text>
<text text-anchor="start" x="144.03" y="-728" font-family="Helvetica,sans-Serif" font-size="10.00">*</text>
<text text-anchor="start" x="176.53" y="-728" font-family="Helvetica,sans-Serif" font-size="10.00">updateAll()</text>
<text text-anchor="start" x="144.03" y="-713" font-family="Helvetica,sans-Serif" font-size="10.00">*</text>
<text text-anchor="start" x="176.53" y="-713" font-family="Helvetica,sans-Serif" font-size="10.00">enable()</text>
<text text-anchor="start" x="144.03" y="-698" font-family="Helvetica,sans-Serif" font-size="10.00">*</text>
<text text-anchor="start" x="176.53" y="-698" font-family="Helvetica,sans-Serif" font-size="10.00">disable()</text>
<text text-anchor="start" x="144.03" y="-683" font-family="Helvetica,sans-Serif" font-size="10.00">*</text>
<text text-anchor="start" x="176.53" y="-683" font-family="Helvetica,sans-Serif" font-size="10.00">isEnabled()</text>
<text text-anchor="start" x="144.03" y="-668" font-family="Helvetica,sans-Serif" font-size="10.00">*</text>
<text text-anchor="start" x="176.53" y="-668" font-family="Helvetica,sans-Serif" font-size="10.00">moveDown()</text>
<polygon fill="#666666" stroke="#666666" points="117.53,-828 117.53,-828 287.53,-828 287.53,-828 117.53,-828"/>
<polygon fill="#666666" stroke="#666666" points="117.53,-783 117.53,-783 174.53,-783 174.53,-783 117.53,-783"/>
<polygon fill="#666666" stroke="#666666" points="174.53,-783 174.53,-783 287.53,-783 287.53,-783 174.53,-783"/>
<polygon fill="none" stroke="#666666" points="117.53,-661 117.53,-845 287.53,-845 287.53,-661 117.53,-661"/>
</a>
</g>
</g>
<!-- Node4&#45;&gt;Node6 -->
<g id="edge6_Node000006_Node000004" class="edge">
<title>Node4&#45;&gt;Node6</title>
<g id="a_edge6_Node000006_Node000004"><a xlink:title=" ">
<path fill="none" stroke="#63b8ff" d="M241.81,-956.96C234.92,-921.37 227.05,-880.69 220.17,-845.13"/>
<polygon fill="none" stroke="#63b8ff" points="238.39,-957.7 243.73,-966.86 245.26,-956.37 238.39,-957.7"/>
</a>
</g>
</g>
<!-- Node5 -->
<g id="Node000005" class="node">
<title>Node5</title>
<g id="a_Node000005"><a xlink:href="../../d4/d23/classDoublyLinkable.html" target="_top" xlink:title=" ">
<polygon fill="white" stroke="transparent" points="333.03,-370.5 186.03,-370.5 186.03,-280.5 333.03,-280.5 333.03,-370.5"/>
<text text-anchor="start" x="191.53" y="-358.5" font-family="Helvetica,sans-Serif" font-size="10.00">DoublyLinkable&lt; Updatable</text>
<text text-anchor="start" x="199.53" y="-347.5" font-family="Helvetica,sans-Serif" font-size="10.00">&lt; NormalUpdatable &gt; &gt;</text>
<text text-anchor="start" x="258.03" y="-332.5" font-family="Helvetica,sans-Serif" font-size="10.00"> </text>
<text text-anchor="start" x="199.03" y="-317.5" font-family="Helvetica,sans-Serif" font-size="10.00">#</text>
<text text-anchor="start" x="220.53" y="-317.5" font-family="Helvetica,sans-Serif" font-size="10.00">~DoublyLinkable()</text>
<text text-anchor="start" x="199.03" y="-302.5" font-family="Helvetica,sans-Serif" font-size="10.00">#</text>
<text text-anchor="start" x="220.53" y="-302.5" font-family="Helvetica,sans-Serif" font-size="10.00">DoublyLinkable()</text>
<text text-anchor="start" x="199.03" y="-287.5" font-family="Helvetica,sans-Serif" font-size="10.00">#</text>
<text text-anchor="start" x="220.53" y="-287.5" font-family="Helvetica,sans-Serif" font-size="10.00">operator=()</text>
<polygon fill="#666666" stroke="#666666" points="186.53,-342.5 186.53,-342.5 333.53,-342.5 333.53,-342.5 186.53,-342.5"/>
<polygon fill="#666666" stroke="#666666" points="186.53,-327.5 186.53,-327.5 333.53,-327.5 333.53,-327.5 186.53,-327.5"/>
<polygon fill="none" stroke="#666666" points="186.03,-280.5 186.03,-370.5 333.03,-370.5 333.03,-280.5 186.03,-280.5"/>
</a>
</g>
</g>
<!-- Node5&#45;&gt;Node4 -->
<g id="edge4_Node000004_Node000005" class="edge">
<title>Node5&#45;&gt;Node4</title>
<g id="a_edge4_Node000004_Node000005"><a xlink:title=" ">
<path fill="none" stroke="#63b8ff" d="M269.49,-380.85C286.4,-480.73 316.95,-700.1 296.53,-884 293.51,-911.2 287.76,-940.48 281.67,-966.68"/>
<polygon fill="none" stroke="#63b8ff" points="272.89,-379.97 267.75,-370.7 265.99,-381.15 272.89,-379.97"/>
</a>
</g>
</g>
<!-- Node6&#45;&gt;Node5 -->
<g id="edge5_Node000005_Node000006" class="edge">
<title>Node6&#45;&gt;Node5</title>
<g id="a_edge5_Node000005_Node000006"><a xlink:title=" ">
<path fill="none" stroke="#63b8ff" d="M214.72,-660.98C226.03,-576.57 242.5,-453.64 252,-382.7"/>
<polygon fill="none" stroke="#63b8ff" points="252.04,-382.4 248.87,-375.92 253.63,-370.51 256.8,-376.98 252.04,-382.4"/>
</a>
</g>
<text text-anchor="start" x="230.03" y="-593" font-family="Helvetica,sans-Serif" font-size="10.00" fill="grey">#next</text>
<text text-anchor="start" x="230.03" y="-578" font-family="Helvetica,sans-Serif" font-size="10.00" fill="grey">#previous</text>
</g>
<!-- Node7 -->
<g id="Node000007" class="node">
<title>Node7</title>
<g id="a_Node000007"><a xlink:href="../../dd/d16/classDoublyLinkedList.html" target="_top" xlink:title=" ">
<polygon fill="white" stroke="transparent" points="167.03,-438 12.03,-438 12.03,-213 167.03,-213 167.03,-438"/>
<text text-anchor="start" x="17.53" y="-425.5" font-family="Helvetica,sans-Serif" font-size="10.00">DoublyLinkedList&lt; Updatable</text>
<text text-anchor="start" x="29.53" y="-414.5" font-family="Helvetica,sans-Serif" font-size="10.00">&lt; NormalUpdatable &gt; &gt;</text>
<text text-anchor="start" x="88.03" y="-399.5" font-family="Helvetica,sans-Serif" font-size="10.00"> </text>
<text text-anchor="start" x="32.03" y="-384.5" font-family="Helvetica,sans-Serif" font-size="10.00">+</text>
<text text-anchor="start" x="60.53" y="-384.5" font-family="Helvetica,sans-Serif" font-size="10.00">append()</text>
<text text-anchor="start" x="32.03" y="-369.5" font-family="Helvetica,sans-Serif" font-size="10.00">+</text>
<text text-anchor="start" x="60.53" y="-369.5" font-family="Helvetica,sans-Serif" font-size="10.00">insertBefore()</text>
<text text-anchor="start" x="32.03" y="-354.5" font-family="Helvetica,sans-Serif" font-size="10.00">+</text>
<text text-anchor="start" x="60.53" y="-354.5" font-family="Helvetica,sans-Serif" font-size="10.00">insertSorted()</text>
<text text-anchor="start" x="32.03" y="-339.5" font-family="Helvetica,sans-Serif" font-size="10.00">+</text>
<text text-anchor="start" x="60.53" y="-339.5" font-family="Helvetica,sans-Serif" font-size="10.00">remove()</text>
<text text-anchor="start" x="32.03" y="-324.5" font-family="Helvetica,sans-Serif" font-size="10.00">+</text>
<text text-anchor="start" x="60.53" y="-324.5" font-family="Helvetica,sans-Serif" font-size="10.00">moveDown()</text>
<text text-anchor="start" x="32.03" y="-309.5" font-family="Helvetica,sans-Serif" font-size="10.00">+</text>
<text text-anchor="start" x="60.53" y="-309.5" font-family="Helvetica,sans-Serif" font-size="10.00">couldContain()</text>
<text text-anchor="start" x="32.03" y="-294.5" font-family="Helvetica,sans-Serif" font-size="10.00">+</text>
<text text-anchor="start" x="60.53" y="-294.5" font-family="Helvetica,sans-Serif" font-size="10.00">begin()</text>
<text text-anchor="start" x="32.03" y="-279.5" font-family="Helvetica,sans-Serif" font-size="10.00">+</text>
<text text-anchor="start" x="60.53" y="-279.5" font-family="Helvetica,sans-Serif" font-size="10.00">end()</text>
<text text-anchor="start" x="32.03" y="-264.5" font-family="Helvetica,sans-Serif" font-size="10.00">+</text>
<text text-anchor="start" x="60.53" y="-264.5" font-family="Helvetica,sans-Serif" font-size="10.00">rbegin()</text>
<text text-anchor="start" x="32.03" y="-249.5" font-family="Helvetica,sans-Serif" font-size="10.00">+</text>
<text text-anchor="start" x="60.53" y="-249.5" font-family="Helvetica,sans-Serif" font-size="10.00">rend()</text>
<text text-anchor="start" x="32.03" y="-234.5" font-family="Helvetica,sans-Serif" font-size="10.00">+</text>
<text text-anchor="start" x="60.53" y="-234.5" font-family="Helvetica,sans-Serif" font-size="10.00">getFirst()</text>
<text text-anchor="start" x="32.03" y="-219.5" font-family="Helvetica,sans-Serif" font-size="10.00">+</text>
<text text-anchor="start" x="60.53" y="-219.5" font-family="Helvetica,sans-Serif" font-size="10.00">getLast()</text>
<polygon fill="#666666" stroke="#666666" points="12.53,-409.5 12.53,-409.5 167.53,-409.5 167.53,-409.5 12.53,-409.5"/>
<polygon fill="#666666" stroke="#666666" points="12.53,-394.5 12.53,-394.5 167.53,-394.5 167.53,-394.5 12.53,-394.5"/>
<polygon fill="none" stroke="#666666" points="12.03,-213 12.03,-438 167.03,-438 167.03,-213 12.03,-213"/>
</a>
</g>
</g>
<!-- Node6&#45;&gt;Node7 -->
<g id="edge8_Node000007_Node000006" class="edge">
<title>Node6&#45;&gt;Node7</title>
<g id="a_edge8_Node000007_Node000006"><a xlink:title=" ">
<path fill="none" stroke="#63b8ff" d="M178.36,-660.98C162.03,-599.49 140.26,-517.55 122.37,-450.16"/>
<polygon fill="none" stroke="#63b8ff" points="122.27,-449.79 116.86,-445.02 119.19,-438.19 124.6,-442.96 122.27,-449.79"/>
</a>
</g>
<text text-anchor="start" x="167.03" y="-593" font-family="Helvetica,sans-Serif" font-size="10.00" fill="grey">&#45;first</text>
<text text-anchor="start" x="167.03" y="-578" font-family="Helvetica,sans-Serif" font-size="10.00" fill="grey">&#45;last</text>
</g>
<!-- Node7&#45;&gt;Node4 -->
<g id="edge7_Node000004_Node000007" class="edge">
<title>Node7&#45;&gt;Node4</title>
<g id="a_edge7_Node000004_Node000007"><a xlink:title=" ">
<path fill="none" stroke="#63b8ff" d="M46.26,-438.24C8.13,-555.66 -31.3,-742.59 39.53,-884 67.83,-940.51 125.79,-982.6 175.11,-1010.05"/>
<polygon fill="none" stroke="#63b8ff" points="175.27,-1010.13 182.45,-1009.48 185.82,-1015.86 178.64,-1016.51 175.27,-1010.13"/>
</a>
</g>
<text text-anchor="start" x="43.03" y="-750" font-family="Helvetica,sans-Serif" font-size="10.00" fill="grey">#updatables</text>
</g>
<!-- Node8 -->
<g id="Node000008" class="node">
<title>Node8</title>
<g id="a_Node000008"><a xlink:href="../../dd/d29/classAH_1_1ButtonMatrix.html" target="_top" xlink:title=" ">
<polygon fill="white" stroke="transparent" points="838.53,-884 596.53,-884 596.53,-622 838.53,-622 838.53,-884"/>
<text text-anchor="start" x="601.53" y="-872" font-family="Helvetica,sans-Serif" font-size="10.00">ButtonMatrix&lt; MIDIButton</text>
<text text-anchor="start" x="601.53" y="-861" font-family="Helvetica,sans-Serif" font-size="10.00">Matrix&lt; MatrixAddress</text>
<text text-anchor="start" x="601.53" y="-850" font-family="Helvetica,sans-Serif" font-size="10.00">&lt; NumRows, NumCols &gt;, DigitalCCSender,</text>
<text text-anchor="start" x="601.53" y="-839" font-family="Helvetica,sans-Serif" font-size="10.00"> NumRows, NumCols &gt;, NumRows, NumCols &gt;</text>
<text text-anchor="start" x="634.03" y="-824" font-family="Helvetica,sans-Serif" font-size="10.00">&#45;</text>
<text text-anchor="start" x="675.53" y="-824" font-family="Helvetica,sans-Serif" font-size="10.00">debounceTime</text>
<text text-anchor="start" x="634.03" y="-809" font-family="Helvetica,sans-Serif" font-size="10.00">&#45;</text>
<text text-anchor="start" x="675.53" y="-809" font-family="Helvetica,sans-Serif" font-size="10.00">prevRefresh</text>
<text text-anchor="start" x="634.03" y="-794" font-family="Helvetica,sans-Serif" font-size="10.00">&#45;</text>
<text text-anchor="start" x="675.53" y="-794" font-family="Helvetica,sans-Serif" font-size="10.00">prevStates</text>
<text text-anchor="start" x="631.53" y="-779" font-family="Helvetica,sans-Serif" font-size="10.00">+</text>
<text text-anchor="start" x="675.53" y="-779" font-family="Helvetica,sans-Serif" font-size="10.00">ButtonMatrix()</text>
<text text-anchor="start" x="631.53" y="-764" font-family="Helvetica,sans-Serif" font-size="10.00">+</text>
<text text-anchor="start" x="675.53" y="-764" font-family="Helvetica,sans-Serif" font-size="10.00">begin()</text>
<text text-anchor="start" x="631.53" y="-749" font-family="Helvetica,sans-Serif" font-size="10.00">+</text>
<text text-anchor="start" x="675.53" y="-749" font-family="Helvetica,sans-Serif" font-size="10.00">update()</text>
<text text-anchor="start" x="631.53" y="-734" font-family="Helvetica,sans-Serif" font-size="10.00">+</text>
<text text-anchor="start" x="675.53" y="-734" font-family="Helvetica,sans-Serif" font-size="10.00">getPrevState()</text>
<text text-anchor="start" x="631.53" y="-719" font-family="Helvetica,sans-Serif" font-size="10.00">+</text>
<text text-anchor="start" x="675.53" y="-719" font-family="Helvetica,sans-Serif" font-size="10.00">setDebounceTime()</text>
<text text-anchor="start" x="631.53" y="-704" font-family="Helvetica,sans-Serif" font-size="10.00">+</text>
<text text-anchor="start" x="675.53" y="-704" font-family="Helvetica,sans-Serif" font-size="10.00">getDebounceTime()</text>
<text text-anchor="start" x="631.53" y="-689" font-family="Helvetica,sans-Serif" font-size="10.00">#</text>
<text text-anchor="start" x="675.53" y="-689" font-family="Helvetica,sans-Serif" font-size="10.00">onButtonChanged()</text>
<text text-anchor="start" x="634.03" y="-674" font-family="Helvetica,sans-Serif" font-size="10.00">&#45;</text>
<text text-anchor="start" x="675.53" y="-674" font-family="Helvetica,sans-Serif" font-size="10.00">setPrevState()</text>
<text text-anchor="start" x="634.03" y="-659" font-family="Helvetica,sans-Serif" font-size="10.00">&#45;</text>
<text text-anchor="start" x="675.53" y="-659" font-family="Helvetica,sans-Serif" font-size="10.00">positionToBits()</text>
<text text-anchor="start" x="634.03" y="-644" font-family="Helvetica,sans-Serif" font-size="10.00">&#45;</text>
<text text-anchor="start" x="675.53" y="-644" font-family="Helvetica,sans-Serif" font-size="10.00">bitsToIndex()</text>
<text text-anchor="start" x="634.03" y="-629" font-family="Helvetica,sans-Serif" font-size="10.00">&#45;</text>
<text text-anchor="start" x="675.53" y="-629" font-family="Helvetica,sans-Serif" font-size="10.00">bitsToBitmask()</text>
<polygon fill="#666666" stroke="#666666" points="596.53,-834 596.53,-834 838.53,-834 838.53,-834 596.53,-834"/>
<polygon fill="#666666" stroke="#666666" points="596.53,-789 596.53,-789 673.53,-789 673.53,-789 596.53,-789"/>
<polygon fill="#666666" stroke="#666666" points="673.53,-789 673.53,-789 838.53,-789 838.53,-789 673.53,-789"/>
<polygon fill="none" stroke="#666666" points="596.53,-622 596.53,-884 838.53,-884 838.53,-622 596.53,-622"/>
</a>
</g>
</g>
<!-- Node8&#45;&gt;Node2 -->
<g id="edge9_Node000002_Node000008" class="edge">
<title>Node8&#45;&gt;Node2</title>
<g id="a_edge9_Node000002_Node000008"><a xlink:title=" ">
<path fill="none" stroke="#63b8ff" d="M653.91,-612.46C638.79,-579.31 622.45,-543.46 606.61,-508.72"/>
<polygon fill="none" stroke="#63b8ff" points="650.8,-614.09 658.13,-621.73 657.17,-611.18 650.8,-614.09"/>
</a>
</g>
</g>
<!-- Node9 -->
<g id="Node000009" class="node">
<title>Node9</title>
<g id="a_Node000009"><a xlink:href="../../d0/d32/structAH_1_1Array.html" target="_top" xlink:title=" ">
<polygon fill="white" stroke="transparent" points="831.03,-1162 726.03,-1162 726.03,-937 831.03,-937 831.03,-1162"/>
<text text-anchor="start" x="731.53" y="-1149.5" font-family="Helvetica,sans-Serif" font-size="10.00">Array&lt; pin_t, N &gt;&lt;</text>
<text text-anchor="start" x="747.03" y="-1138.5" font-family="Helvetica,sans-Serif" font-size="10.00"> NumRows &gt;</text>
<text text-anchor="start" x="735.03" y="-1123.5" font-family="Helvetica,sans-Serif" font-size="10.00">+</text>
<text text-anchor="start" x="752.53" y="-1123.5" font-family="Helvetica,sans-Serif" font-size="10.00">data</text>
<text text-anchor="start" x="735.03" y="-1108.5" font-family="Helvetica,sans-Serif" font-size="10.00">+</text>
<text text-anchor="start" x="752.53" y="-1108.5" font-family="Helvetica,sans-Serif" font-size="10.00">length</text>
<text text-anchor="start" x="735.03" y="-1093.5" font-family="Helvetica,sans-Serif" font-size="10.00">+</text>
<text text-anchor="start" x="752.53" y="-1093.5" font-family="Helvetica,sans-Serif" font-size="10.00">operator[]()</text>
<text text-anchor="start" x="735.03" y="-1078.5" font-family="Helvetica,sans-Serif" font-size="10.00">+</text>
<text text-anchor="start" x="752.53" y="-1078.5" font-family="Helvetica,sans-Serif" font-size="10.00">operator[]()</text>
<text text-anchor="start" x="735.03" y="-1063.5" font-family="Helvetica,sans-Serif" font-size="10.00">+</text>
<text text-anchor="start" x="752.53" y="-1063.5" font-family="Helvetica,sans-Serif" font-size="10.00">begin()</text>
<text text-anchor="start" x="735.03" y="-1048.5" font-family="Helvetica,sans-Serif" font-size="10.00">+</text>
<text text-anchor="start" x="752.53" y="-1048.5" font-family="Helvetica,sans-Serif" font-size="10.00">begin()</text>
<text text-anchor="start" x="735.03" y="-1033.5" font-family="Helvetica,sans-Serif" font-size="10.00">+</text>
<text text-anchor="start" x="752.53" y="-1033.5" font-family="Helvetica,sans-Serif" font-size="10.00">end()</text>
<text text-anchor="start" x="735.03" y="-1018.5" font-family="Helvetica,sans-Serif" font-size="10.00">+</text>
<text text-anchor="start" x="752.53" y="-1018.5" font-family="Helvetica,sans-Serif" font-size="10.00">end()</text>
<text text-anchor="start" x="735.03" y="-1003.5" font-family="Helvetica,sans-Serif" font-size="10.00">+</text>
<text text-anchor="start" x="752.53" y="-1003.5" font-family="Helvetica,sans-Serif" font-size="10.00">operator==()</text>
<text text-anchor="start" x="735.03" y="-988.5" font-family="Helvetica,sans-Serif" font-size="10.00">+</text>
<text text-anchor="start" x="752.53" y="-988.5" font-family="Helvetica,sans-Serif" font-size="10.00">operator!=()</text>
<text text-anchor="start" x="735.03" y="-973.5" font-family="Helvetica,sans-Serif" font-size="10.00">+</text>
<text text-anchor="start" x="752.53" y="-973.5" font-family="Helvetica,sans-Serif" font-size="10.00">slice()</text>
<text text-anchor="start" x="735.03" y="-958.5" font-family="Helvetica,sans-Serif" font-size="10.00">+</text>
<text text-anchor="start" x="752.53" y="-958.5" font-family="Helvetica,sans-Serif" font-size="10.00">slice()</text>
<text text-anchor="start" x="735.03" y="-943.5" font-family="Helvetica,sans-Serif" font-size="10.00">+</text>
<text text-anchor="start" x="752.53" y="-943.5" font-family="Helvetica,sans-Serif" font-size="10.00">cslice()</text>
<polygon fill="#666666" stroke="#666666" points="726.53,-1133.5 726.53,-1133.5 831.53,-1133.5 831.53,-1133.5 726.53,-1133.5"/>
<polygon fill="#666666" stroke="#666666" points="726.53,-1103.5 726.53,-1103.5 750.53,-1103.5 750.53,-1103.5 726.53,-1103.5"/>
<polygon fill="#666666" stroke="#666666" points="750.53,-1103.5 750.53,-1103.5 831.53,-1103.5 831.53,-1103.5 750.53,-1103.5"/>
<polygon fill="none" stroke="#666666" points="726.03,-937 726.03,-1162 831.03,-1162 831.03,-937 726.03,-937"/>
</a>
</g>
</g>
<!-- Node9&#45;&gt;Node8 -->
<g id="edge10_Node000008_Node000009" class="edge">
<title>Node9&#45;&gt;Node8</title>
<g id="a_edge10_Node000008_Node000009"><a xlink:title=" ">
<path fill="none" stroke="#63b8ff" d="M755.38,-936.74C752.64,-923.53 749.82,-909.91 747.01,-896.34"/>
<polygon fill="none" stroke="#63b8ff" points="746.98,-896.2 741.85,-891.14 744.55,-884.45 749.68,-889.51 746.98,-896.2"/>
</a>
</g>
<text text-anchor="start" x="755.03" y="-907.5" font-family="Helvetica,sans-Serif" font-size="10.00" fill="grey">&#45;rowPins</text>
</g>
<!-- Node10 -->
<g id="Node000010" class="node">
<title>Node10</title>
<g id="a_Node000010"><a xlink:href="../../d0/d32/structAH_1_1Array.html" target="_top" xlink:title=" ">
<polygon fill="white" stroke="transparent" points="708.03,-1162 603.03,-1162 603.03,-937 708.03,-937 708.03,-1162"/>
<text text-anchor="start" x="608.53" y="-1149.5" font-family="Helvetica,sans-Serif" font-size="10.00">Array&lt; pin_t, N &gt;&lt;</text>
<text text-anchor="start" x="626.53" y="-1138.5" font-family="Helvetica,sans-Serif" font-size="10.00"> NumCols &gt;</text>
<text text-anchor="start" x="612.03" y="-1123.5" font-family="Helvetica,sans-Serif" font-size="10.00">+</text>
<text text-anchor="start" x="629.53" y="-1123.5" font-family="Helvetica,sans-Serif" font-size="10.00">data</text>
<text text-anchor="start" x="612.03" y="-1108.5" font-family="Helvetica,sans-Serif" font-size="10.00">+</text>
<text text-anchor="start" x="629.53" y="-1108.5" font-family="Helvetica,sans-Serif" font-size="10.00">length</text>
<text text-anchor="start" x="612.03" y="-1093.5" font-family="Helvetica,sans-Serif" font-size="10.00">+</text>
<text text-anchor="start" x="629.53" y="-1093.5" font-family="Helvetica,sans-Serif" font-size="10.00">operator[]()</text>
<text text-anchor="start" x="612.03" y="-1078.5" font-family="Helvetica,sans-Serif" font-size="10.00">+</text>
<text text-anchor="start" x="629.53" y="-1078.5" font-family="Helvetica,sans-Serif" font-size="10.00">operator[]()</text>
<text text-anchor="start" x="612.03" y="-1063.5" font-family="Helvetica,sans-Serif" font-size="10.00">+</text>
<text text-anchor="start" x="629.53" y="-1063.5" font-family="Helvetica,sans-Serif" font-size="10.00">begin()</text>
<text text-anchor="start" x="612.03" y="-1048.5" font-family="Helvetica,sans-Serif" font-size="10.00">+</text>
<text text-anchor="start" x="629.53" y="-1048.5" font-family="Helvetica,sans-Serif" font-size="10.00">begin()</text>
<text text-anchor="start" x="612.03" y="-1033.5" font-family="Helvetica,sans-Serif" font-size="10.00">+</text>
<text text-anchor="start" x="629.53" y="-1033.5" font-family="Helvetica,sans-Serif" font-size="10.00">end()</text>
<text text-anchor="start" x="612.03" y="-1018.5" font-family="Helvetica,sans-Serif" font-size="10.00">+</text>
<text text-anchor="start" x="629.53" y="-1018.5" font-family="Helvetica,sans-Serif" font-size="10.00">end()</text>
<text text-anchor="start" x="612.03" y="-1003.5" font-family="Helvetica,sans-Serif" font-size="10.00">+</text>
<text text-anchor="start" x="629.53" y="-1003.5" font-family="Helvetica,sans-Serif" font-size="10.00">operator==()</text>
<text text-anchor="start" x="612.03" y="-988.5" font-family="Helvetica,sans-Serif" font-size="10.00">+</text>
<text text-anchor="start" x="629.53" y="-988.5" font-family="Helvetica,sans-Serif" font-size="10.00">operator!=()</text>
<text text-anchor="start" x="612.03" y="-973.5" font-family="Helvetica,sans-Serif" font-size="10.00">+</text>
<text text-anchor="start" x="629.53" y="-973.5" font-family="Helvetica,sans-Serif" font-size="10.00">slice()</text>
<text text-anchor="start" x="612.03" y="-958.5" font-family="Helvetica,sans-Serif" font-size="10.00">+</text>
<text text-anchor="start" x="629.53" y="-958.5" font-family="Helvetica,sans-Serif" font-size="10.00">slice()</text>
<text text-anchor="start" x="612.03" y="-943.5" font-family="Helvetica,sans-Serif" font-size="10.00">+</text>
<text text-anchor="start" x="629.53" y="-943.5" font-family="Helvetica,sans-Serif" font-size="10.00">cslice()</text>
<polygon fill="#666666" stroke="#666666" points="603.53,-1133.5 603.53,-1133.5 708.53,-1133.5 708.53,-1133.5 603.53,-1133.5"/>
<polygon fill="#666666" stroke="#666666" points="603.53,-1103.5 603.53,-1103.5 627.53,-1103.5 627.53,-1103.5 603.53,-1103.5"/>
<polygon fill="#666666" stroke="#666666" points="627.53,-1103.5 627.53,-1103.5 708.53,-1103.5 708.53,-1103.5 627.53,-1103.5"/>
<polygon fill="none" stroke="#666666" points="603.03,-937 603.03,-1162 708.03,-1162 708.03,-937 603.03,-937"/>
</a>
</g>
</g>
<!-- Node10&#45;&gt;Node8 -->
<g id="edge11_Node000008_Node000010" class="edge">
<title>Node10&#45;&gt;Node8</title>
<g id="a_edge11_Node000008_Node000010"><a xlink:title=" ">
<path fill="none" stroke="#63b8ff" d="M679.06,-936.74C681.84,-923.53 684.7,-909.91 687.56,-896.34"/>
<polygon fill="none" stroke="#63b8ff" points="687.59,-896.19 684.91,-889.5 690.06,-884.45 692.74,-891.14 687.59,-896.19"/>
</a>
</g>
<text text-anchor="start" x="688.03" y="-907.5" font-family="Helvetica,sans-Serif" font-size="10.00" fill="grey">&#45;colPins</text>
</g>
<!-- Node11 -->
<g id="Node000011" class="node">
<title>Node11</title>
<g id="a_Node000011"><a xlink:href="../../d5/db5/classDigitalCCSender.html" target="_top" xlink:title="Class that sends MIDI control change messages signifying either &quot;on&quot; or &quot;off&quot;.">
<polygon fill="white" stroke="transparent" points="578.03,-830 469.03,-830 469.03,-676 578.03,-676 578.03,-830"/>
<text text-anchor="start" x="484.03" y="-818" font-family="Helvetica,sans-Serif" font-size="10.00">DigitalCCSender</text>
<text text-anchor="start" x="476.03" y="-803" font-family="Helvetica,sans-Serif" font-size="10.00">&#45;</text>
<text text-anchor="start" x="486.53" y="-803" font-family="Helvetica,sans-Serif" font-size="10.00">onValue</text>
<text text-anchor="start" x="476.03" y="-788" font-family="Helvetica,sans-Serif" font-size="10.00">&#45;</text>
<text text-anchor="start" x="486.53" y="-788" font-family="Helvetica,sans-Serif" font-size="10.00">offValue</text>
<text text-anchor="start" x="473.53" y="-773" font-family="Helvetica,sans-Serif" font-size="10.00">+</text>
<text text-anchor="start" x="486.53" y="-773" font-family="Helvetica,sans-Serif" font-size="10.00">DigitalCCSender()</text>
<text text-anchor="start" x="473.53" y="-758" font-family="Helvetica,sans-Serif" font-size="10.00">+</text>
<text text-anchor="start" x="486.53" y="-758" font-family="Helvetica,sans-Serif" font-size="10.00">sendOn()</text>
<text text-anchor="start" x="473.53" y="-743" font-family="Helvetica,sans-Serif" font-size="10.00">+</text>
<text text-anchor="start" x="486.53" y="-743" font-family="Helvetica,sans-Serif" font-size="10.00">sendOff()</text>
<text text-anchor="start" x="473.53" y="-728" font-family="Helvetica,sans-Serif" font-size="10.00">+</text>
<text text-anchor="start" x="486.53" y="-728" font-family="Helvetica,sans-Serif" font-size="10.00">getOnValue()</text>
<text text-anchor="start" x="473.53" y="-713" font-family="Helvetica,sans-Serif" font-size="10.00">+</text>
<text text-anchor="start" x="486.53" y="-713" font-family="Helvetica,sans-Serif" font-size="10.00">setOnValue()</text>
<text text-anchor="start" x="473.53" y="-698" font-family="Helvetica,sans-Serif" font-size="10.00">+</text>
<text text-anchor="start" x="486.53" y="-698" font-family="Helvetica,sans-Serif" font-size="10.00">getOffValue()</text>
<text text-anchor="start" x="473.53" y="-683" font-family="Helvetica,sans-Serif" font-size="10.00">+</text>
<text text-anchor="start" x="486.53" y="-683" font-family="Helvetica,sans-Serif" font-size="10.00">setOffValue()</text>
<polygon fill="#666666" stroke="#666666" points="469.53,-813 469.53,-813 578.53,-813 578.53,-813 469.53,-813"/>
<polygon fill="#666666" stroke="#666666" points="469.53,-783 469.53,-783 484.53,-783 484.53,-783 469.53,-783"/>
<polygon fill="#666666" stroke="#666666" points="484.53,-783 484.53,-783 578.53,-783 578.53,-783 484.53,-783"/>
<polygon fill="none" stroke="#666666" points="469.03,-676 469.03,-830 578.03,-830 578.03,-676 469.03,-676"/>
</a>
</g>
</g>
<!-- Node11&#45;&gt;Node2 -->
<g id="edge12_Node000002_Node000011" class="edge">
<title>Node11&#45;&gt;Node2</title>
<g id="a_edge12_Node000002_Node000011"><a xlink:title=" ">
<path fill="none" stroke="#63b8ff" d="M523.53,-675.93C523.53,-644.45 523.53,-606.05 523.53,-566.37"/>
<polygon fill="none" stroke="#63b8ff" points="523.53,-566.3 519.53,-560.3 523.53,-554.3 527.53,-560.3 523.53,-566.3"/>
</a>
</g>
<text text-anchor="start" x="526.53" y="-585" font-family="Helvetica,sans-Serif" font-size="10.00" fill="grey">+sender</text>
</g>
</g>
</svg>
