<?xml version="1.0" encoding="UTF-8" standalone="no"?>
<!DOCTYPE svg PUBLIC "-//W3C//DTD SVG 1.1//EN"
 "http://www.w3.org/Graphics/SVG/1.1/DTD/svg11.dtd">
<!-- Generated by graphviz version 2.43.0 (0)
 -->
<!-- Title: SettingsWrapper.hpp Pages: 1 -->
<svg width="751pt" height="357pt"
 viewBox="0.00 0.00 751.00 357.00" xmlns="http://www.w3.org/2000/svg" xmlns:xlink="http://www.w3.org/1999/xlink">
<g id="graph0" class="graph" transform="scale(1 1) rotate(0) translate(4 353)">
<title>SettingsWrapper.hpp</title>
<!-- Node1 -->
<g id="Node000001" class="node">
<title>Node1</title>
<g id="a_Node000001"><a xlink:title=" ">
<polygon fill="#999999" stroke="#666666" points="518,-349 400,-349 400,-330 518,-330 518,-349"/>
<text text-anchor="middle" x="459" y="-337" font-family="Helvetica,sans-Serif" font-size="10.00">SettingsWrapper.hpp</text>
</a>
</g>
</g>
<!-- Node2 -->
<g id="Node000002" class="node">
<title>Node2</title>
<g id="a_Node000002"><a xlink:href="../../d6/db0/AH_2Settings_2NamespaceSettings_8hpp.html" target="_top" xlink:title=" ">
<polygon fill="white" stroke="#666666" points="257.5,-74 122.5,-74 122.5,-55 257.5,-55 257.5,-74"/>
<text text-anchor="middle" x="190" y="-62" font-family="Helvetica,sans-Serif" font-size="10.00">NamespaceSettings.hpp</text>
</a>
</g>
</g>
<!-- Node1&#45;&gt;Node2 -->
<g id="edge1_Node000001_Node000002" class="edge">
<title>Node1&#45;&gt;Node2</title>
<g id="a_edge1_Node000001_Node000002"><a xlink:title=" ">
<path fill="none" stroke="#63b8ff" d="M399.93,-336.9C275.96,-331.93 0,-311.75 0,-230.5 0,-230.5 0,-230.5 0,-173.5 0,-116.26 65.98,-88.98 120.18,-76.22"/>
<polygon fill="#63b8ff" stroke="#63b8ff" points="121.14,-79.59 130.14,-74.01 119.62,-72.76 121.14,-79.59"/>
</a>
</g>
</g>
<!-- Node4 -->
<g id="Node000004" class="node">
<title>Node4</title>
<g id="a_Node000004"><a xlink:href="../../d5/d4f/AH_2Settings_2Settings_8hpp.html" target="_top" xlink:title="All user settings and debugging options can be changed here.">
<polygon fill="white" stroke="#666666" points="249.5,-294 172.5,-294 172.5,-275 249.5,-275 249.5,-294"/>
<text text-anchor="middle" x="211" y="-282" font-family="Helvetica,sans-Serif" font-size="10.00">Settings.hpp</text>
</a>
</g>
</g>
<!-- Node1&#45;&gt;Node4 -->
<g id="edge3_Node000001_Node000004" class="edge">
<title>Node1&#45;&gt;Node4</title>
<g id="a_edge3_Node000001_Node000004"><a xlink:title=" ">
<path fill="none" stroke="#63b8ff" d="M419.15,-329.98C375.66,-320.69 306,-305.8 259.39,-295.84"/>
<polygon fill="#63b8ff" stroke="#63b8ff" points="260.03,-292.4 249.52,-293.73 258.57,-299.25 260.03,-292.4"/>
</a>
</g>
</g>
<!-- Node15 -->
<g id="Node000015" class="node">
<title>Node15</title>
<g id="a_Node000015"><a xlink:href="../../d9/d98/TeensyUSBTypes_8hpp.html" target="_top" xlink:title=" ">
<polygon fill="white" stroke="#666666" points="710.5,-294 537.5,-294 537.5,-275 710.5,-275 710.5,-294"/>
<text text-anchor="middle" x="624" y="-282" font-family="Helvetica,sans-Serif" font-size="10.00">AH/Teensy/TeensyUSBTypes.hpp</text>
</a>
</g>
</g>
<!-- Node1&#45;&gt;Node15 -->
<g id="edge18_Node000001_Node000015" class="edge">
<title>Node1&#45;&gt;Node15</title>
<g id="a_edge18_Node000001_Node000015"><a xlink:title=" ">
<path fill="none" stroke="#63b8ff" d="M485.51,-329.98C513.21,-321.09 556.86,-307.07 587.74,-297.15"/>
<polygon fill="#63b8ff" stroke="#63b8ff" points="588.83,-300.47 597.28,-294.08 586.69,-293.81 588.83,-300.47"/>
</a>
</g>
</g>
<!-- Node16 -->
<g id="Node000016" class="node">
<title>Node16</title>
<g id="a_Node000016"><a xlink:href="../../df/dee/Debug_8hpp.html" target="_top" xlink:title=" ">
<polygon fill="white" stroke="#666666" points="519.5,-294 398.5,-294 398.5,-275 519.5,-275 519.5,-294"/>
<text text-anchor="middle" x="459" y="-282" font-family="Helvetica,sans-Serif" font-size="10.00">AH/Debug/Debug.hpp</text>
</a>
</g>
</g>
<!-- Node1&#45;&gt;Node16 -->
<g id="edge19_Node000001_Node000016" class="edge">
<title>Node1&#45;&gt;Node16</title>
<g id="a_edge19_Node000001_Node000016"><a xlink:title=" ">
<path fill="none" stroke="#63b8ff" d="M453.83,-329.75C452.34,-322.8 451.9,-312.85 452.52,-304.13"/>
<polygon fill="#63b8ff" stroke="#63b8ff" points="456.01,-304.47 453.87,-294.09 449.07,-303.53 456.01,-304.47"/>
</a>
</g>
</g>
<!-- Node3 -->
<g id="Node000003" class="node">
<title>Node3</title>
<g id="a_Node000003"><a xlink:href="../../d1/d65/Warnings_8hpp.html" target="_top" xlink:title=" ">
<polygon fill="white" stroke="#666666" points="359.5,-19 216.5,-19 216.5,0 359.5,0 359.5,-19"/>
<text text-anchor="middle" x="288" y="-7" font-family="Helvetica,sans-Serif" font-size="10.00">AH/Settings/Warnings.hpp</text>
</a>
</g>
</g>
<!-- Node2&#45;&gt;Node3 -->
<g id="edge2_Node000002_Node000003" class="edge">
<title>Node2&#45;&gt;Node3</title>
<g id="a_edge2_Node000002_Node000003"><a xlink:title=" ">
<path fill="none" stroke="#63b8ff" d="M205.75,-54.98C221.23,-46.61 245.09,-33.7 263.14,-23.95"/>
<polygon fill="#63b8ff" stroke="#63b8ff" points="264.84,-27.01 271.97,-19.17 261.51,-20.85 264.84,-27.01"/>
</a>
</g>
</g>
<!-- Node5 -->
<g id="Node000005" class="node">
<title>Node5</title>
<g id="a_Node000005"><a xlink:href="../../dc/d50/Frequency_8hpp.html" target="_top" xlink:title=" ">
<polygon fill="white" stroke="#666666" points="162,-184 28,-184 28,-165 162,-165 162,-184"/>
<text text-anchor="middle" x="95" y="-172" font-family="Helvetica,sans-Serif" font-size="10.00">AH/Types/Frequency.hpp</text>
</a>
</g>
</g>
<!-- Node4&#45;&gt;Node5 -->
<g id="edge4_Node000004_Node000005" class="edge">
<title>Node4&#45;&gt;Node5</title>
<g id="a_edge4_Node000004_Node000005"><a xlink:title=" ">
<path fill="none" stroke="#63b8ff" d="M172.43,-283.51C138.3,-281.21 90.26,-271.82 66,-239 55.26,-224.47 66.86,-205.33 78.43,-191.88"/>
<polygon fill="#63b8ff" stroke="#63b8ff" points="81.19,-194.04 85.42,-184.33 76.06,-189.28 81.19,-194.04"/>
</a>
</g>
</g>
<!-- Node6 -->
<g id="Node000006" class="node">
<title>Node6</title>
<g id="a_Node000006"><a xlink:href="../../d7/d7c/ADCConfig_8hpp.html" target="_top" xlink:title="This file contains the platform&#45;specific ADC resolutions.">
<polygon fill="white" stroke="#666666" points="449.5,-239 292.5,-239 292.5,-220 449.5,-220 449.5,-239"/>
<text text-anchor="middle" x="371" y="-227" font-family="Helvetica,sans-Serif" font-size="10.00">AH/Hardware/ADCConfig.hpp</text>
</a>
</g>
</g>
<!-- Node4&#45;&gt;Node6 -->
<g id="edge6_Node000004_Node000006" class="edge">
<title>Node4&#45;&gt;Node6</title>
<g id="a_edge6_Node000004_Node000006"><a xlink:title=" ">
<path fill="none" stroke="#63b8ff" d="M236.71,-274.98C263.45,-266.13 305.53,-252.19 335.45,-242.28"/>
<polygon fill="#63b8ff" stroke="#63b8ff" points="336.7,-245.55 345.09,-239.08 334.5,-238.9 336.7,-245.55"/>
</a>
</g>
</g>
<!-- Node12 -->
<g id="Node000012" class="node">
<title>Node12</title>
<g id="a_Node000012"><a xlink:title=" ">
<polygon fill="#e0e0e0" stroke="#999999" points="128.5,-239 75.5,-239 75.5,-220 128.5,-220 128.5,-239"/>
<text text-anchor="middle" x="102" y="-227" font-family="Helvetica,sans-Serif" font-size="10.00">limits.h</text>
</a>
</g>
</g>
<!-- Node4&#45;&gt;Node12 -->
<g id="edge15_Node000004_Node000012" class="edge">
<title>Node4&#45;&gt;Node12</title>
<g id="a_edge15_Node000004_Node000012"><a xlink:title=" ">
<path fill="none" stroke="#63b8ff" d="M193.49,-274.98C176.03,-266.5 148.99,-253.35 128.83,-243.54"/>
<polygon fill="#63b8ff" stroke="#63b8ff" points="130.36,-240.4 119.83,-239.17 127.29,-246.69 130.36,-240.4"/>
</a>
</g>
</g>
<!-- Node13 -->
<g id="Node000013" class="node">
<title>Node13</title>
<g id="a_Node000013"><a xlink:title=" ">
<polygon fill="#e0e0e0" stroke="#999999" points="203,-239 147,-239 147,-220 203,-220 203,-239"/>
<text text-anchor="middle" x="175" y="-227" font-family="Helvetica,sans-Serif" font-size="10.00">stddef.h</text>
</a>
</g>
</g>
<!-- Node4&#45;&gt;Node13 -->
<g id="edge16_Node000004_Node000013" class="edge">
<title>Node4&#45;&gt;Node13</title>
<g id="a_edge16_Node000004_Node000013"><a xlink:title=" ">
<path fill="none" stroke="#63b8ff" d="M205.06,-274.75C200.02,-267.34 192.66,-256.5 186.49,-247.41"/>
<polygon fill="#63b8ff" stroke="#63b8ff" points="189.35,-245.39 180.83,-239.09 183.56,-249.33 189.35,-245.39"/>
</a>
</g>
</g>
<!-- Node14 -->
<g id="Node000014" class="node">
<title>Node14</title>
<g id="a_Node000014"><a xlink:title=" ">
<polygon fill="#e0e0e0" stroke="#999999" points="274.5,-239 221.5,-239 221.5,-220 274.5,-220 274.5,-239"/>
<text text-anchor="middle" x="248" y="-227" font-family="Helvetica,sans-Serif" font-size="10.00">stdint.h</text>
</a>
</g>
</g>
<!-- Node4&#45;&gt;Node14 -->
<g id="edge17_Node000004_Node000014" class="edge">
<title>Node4&#45;&gt;Node14</title>
<g id="a_edge17_Node000004_Node000014"><a xlink:title=" ">
<path fill="none" stroke="#63b8ff" d="M217.11,-274.75C222.28,-267.34 229.85,-256.5 236.19,-247.41"/>
<polygon fill="#63b8ff" stroke="#63b8ff" points="239.15,-249.29 242,-239.09 233.41,-245.29 239.15,-249.29"/>
</a>
</g>
</g>
<!-- Node5&#45;&gt;Node2 -->
<g id="edge5_Node000005_Node000002" class="edge">
<title>Node5&#45;&gt;Node2</title>
<g id="a_edge5_Node000005_Node000002"><a xlink:title=" ">
<path fill="none" stroke="#63b8ff" d="M102.77,-164.66C118.72,-146.54 155.33,-104.91 175.69,-81.77"/>
<polygon fill="#63b8ff" stroke="#63b8ff" points="178.41,-83.98 182.38,-74.16 173.15,-79.36 178.41,-83.98"/>
</a>
</g>
</g>
<!-- Node7 -->
<g id="Node000007" class="node">
<title>Node7</title>
<g id="a_Node000007"><a xlink:href="../../d6/ddf/Arduino-Wrapper_8h.html" target="_top" xlink:title=" ">
<polygon fill="white" stroke="#666666" points="456,-184 332,-184 332,-165 456,-165 456,-184"/>
<text text-anchor="middle" x="394" y="-172" font-family="Helvetica,sans-Serif" font-size="10.00">AH/Arduino&#45;Wrapper.h</text>
</a>
</g>
</g>
<!-- Node6&#45;&gt;Node7 -->
<g id="edge7_Node000006_Node000007" class="edge">
<title>Node6&#45;&gt;Node7</title>
<g id="a_edge7_Node000006_Node000007"><a xlink:title=" ">
<path fill="none" stroke="#63b8ff" d="M374.8,-219.75C377.91,-212.57 382.42,-202.18 386.29,-193.27"/>
<polygon fill="#63b8ff" stroke="#63b8ff" points="389.5,-194.66 390.27,-184.09 383.08,-191.87 389.5,-194.66"/>
</a>
</g>
</g>
<!-- Node8 -->
<g id="Node000008" class="node">
<title>Node8</title>
<g id="a_Node000008"><a xlink:href="../../d7/d79/MinMaxFix_8hpp.html" target="_top" xlink:title=" ">
<polygon fill="white" stroke="#666666" points="480,-129 344,-129 344,-110 480,-110 480,-129"/>
<text text-anchor="middle" x="412" y="-117" font-family="Helvetica,sans-Serif" font-size="10.00">AH/Math/MinMaxFix.hpp</text>
</a>
</g>
</g>
<!-- Node7&#45;&gt;Node8 -->
<g id="edge8_Node000007_Node000008" class="edge">
<title>Node7&#45;&gt;Node8</title>
<g id="a_edge8_Node000007_Node000008"><a xlink:title=" ">
<path fill="none" stroke="#63b8ff" d="M396.97,-164.75C399.36,-157.72 402.79,-147.62 405.77,-138.84"/>
<polygon fill="#63b8ff" stroke="#63b8ff" points="409.18,-139.68 409.08,-129.09 402.55,-137.43 409.18,-139.68"/>
</a>
</g>
</g>
<!-- Node10 -->
<g id="Node000010" class="node">
<title>Node10</title>
<g id="a_Node000010"><a xlink:title=" ">
<polygon fill="#e0e0e0" stroke="#999999" points="482.5,-19 419.5,-19 419.5,0 482.5,0 482.5,-19"/>
<text text-anchor="middle" x="451" y="-7" font-family="Helvetica,sans-Serif" font-size="10.00">Arduino.h</text>
</a>
</g>
</g>
<!-- Node7&#45;&gt;Node10 -->
<g id="edge14_Node000007_Node000010" class="edge">
<title>Node7&#45;&gt;Node10</title>
<g id="a_edge14_Node000007_Node000010"><a xlink:title=" ">
<path fill="none" stroke="#63b8ff" d="M435.53,-164.94C455.31,-158.55 477.18,-147.6 489,-129 506.65,-101.25 500.38,-85.86 489,-55 484.94,-43.99 476.81,-33.86 469.1,-26.05"/>
<polygon fill="#63b8ff" stroke="#63b8ff" points="471.39,-23.39 461.71,-19.07 466.58,-28.48 471.39,-23.39"/>
</a>
</g>
</g>
<!-- Node11 -->
<g id="Node000011" class="node">
<title>Node11</title>
<g id="a_Node000011"><a xlink:title=" ">
<polygon fill="#e0e0e0" stroke="#999999" points="325.5,-129 218.5,-129 218.5,-110 325.5,-110 325.5,-129"/>
<text text-anchor="middle" x="272" y="-117" font-family="Helvetica,sans-Serif" font-size="10.00">AH/STL/type_traits</text>
</a>
</g>
</g>
<!-- Node7&#45;&gt;Node11 -->
<g id="edge13_Node000007_Node000011" class="edge">
<title>Node7&#45;&gt;Node11</title>
<g id="a_edge13_Node000007_Node000011"><a xlink:title=" ">
<path fill="none" stroke="#63b8ff" d="M374.4,-164.98C354.68,-156.42 324.05,-143.11 301.42,-133.28"/>
<polygon fill="#63b8ff" stroke="#63b8ff" points="302.52,-129.94 291.96,-129.17 299.74,-136.37 302.52,-129.94"/>
</a>
</g>
</g>
<!-- Node8&#45;&gt;Node2 -->
<g id="edge12_Node000008_Node000002" class="edge">
<title>Node8&#45;&gt;Node2</title>
<g id="a_edge12_Node000008_Node000002"><a xlink:title=" ">
<path fill="none" stroke="#63b8ff" d="M376.33,-109.98C338.17,-100.87 277.53,-86.4 235.85,-76.45"/>
<polygon fill="#63b8ff" stroke="#63b8ff" points="236.49,-73 225.95,-74.08 234.86,-79.81 236.49,-73"/>
</a>
</g>
</g>
<!-- Node9 -->
<g id="Node000009" class="node">
<title>Node9</title>
<g id="a_Node000009"><a xlink:href="../../d6/d3b/FixArduinoMacros_8hpp.html" target="_top" xlink:title=" ">
<polygon fill="white" stroke="#666666" points="480,-74 310,-74 310,-55 480,-55 480,-74"/>
<text text-anchor="middle" x="395" y="-62" font-family="Helvetica,sans-Serif" font-size="10.00">AH/Math/FixArduinoMacros.hpp</text>
</a>
</g>
</g>
<!-- Node8&#45;&gt;Node9 -->
<g id="edge9_Node000008_Node000009" class="edge">
<title>Node8&#45;&gt;Node9</title>
<g id="a_edge9_Node000008_Node000009"><a xlink:title=" ">
<path fill="none" stroke="#63b8ff" d="M409.19,-109.75C406.94,-102.72 403.7,-92.62 400.88,-83.84"/>
<polygon fill="#63b8ff" stroke="#63b8ff" points="404.14,-82.54 397.75,-74.09 397.48,-84.68 404.14,-82.54"/>
</a>
</g>
</g>
<!-- Node9&#45;&gt;Node3 -->
<g id="edge10_Node000009_Node000003" class="edge">
<title>Node9&#45;&gt;Node3</title>
<g id="a_edge10_Node000009_Node000003"><a xlink:title=" ">
<path fill="none" stroke="#63b8ff" d="M377.81,-54.98C360.75,-46.54 334.37,-33.47 314.6,-23.68"/>
<polygon fill="#63b8ff" stroke="#63b8ff" points="316.02,-20.47 305.5,-19.17 312.91,-26.75 316.02,-20.47"/>
</a>
</g>
</g>
<!-- Node9&#45;&gt;Node10 -->
<g id="edge11_Node000009_Node000010" class="edge">
<title>Node9&#45;&gt;Node10</title>
<g id="a_edge11_Node000009_Node000010"><a xlink:title=" ">
<path fill="none" stroke="#63b8ff" d="M404,-54.98C412.19,-47.23 424.51,-35.58 434.47,-26.14"/>
<polygon fill="#63b8ff" stroke="#63b8ff" points="436.98,-28.59 441.84,-19.17 432.17,-23.5 436.98,-28.59"/>
</a>
</g>
</g>
<!-- Node16&#45;&gt;Node1 -->
<g id="edge24_Node000016_Node000001" class="edge">
<title>Node16&#45;&gt;Node1</title>
<g id="a_edge24_Node000016_Node000001"><a xlink:title=" ">
<path fill="none" stroke="#63b8ff" d="M464.13,-294.09C465.64,-300.99 466.09,-310.93 465.49,-319.66"/>
<polygon fill="#63b8ff" stroke="#63b8ff" points="462,-319.38 464.17,-329.75 468.94,-320.29 462,-319.38"/>
</a>
</g>
</g>
<!-- Node17 -->
<g id="Node000017" class="node">
<title>Node17</title>
<g id="a_Node000017"><a xlink:href="../../dd/d80/PrintStream_8hpp.html" target="_top" xlink:title=" ">
<polygon fill="white" stroke="#666666" points="640.5,-239 467.5,-239 467.5,-220 640.5,-220 640.5,-239"/>
<text text-anchor="middle" x="554" y="-227" font-family="Helvetica,sans-Serif" font-size="10.00">AH/PrintStream/PrintStream.hpp</text>
</a>
</g>
</g>
<!-- Node16&#45;&gt;Node17 -->
<g id="edge20_Node000016_Node000017" class="edge">
<title>Node16&#45;&gt;Node17</title>
<g id="a_edge20_Node000016_Node000017"><a xlink:title=" ">
<path fill="none" stroke="#63b8ff" d="M474.26,-274.98C489.13,-266.69 511.98,-253.94 529.42,-244.22"/>
<polygon fill="#63b8ff" stroke="#63b8ff" points="531.43,-247.1 538.46,-239.17 528.02,-240.99 531.43,-247.1"/>
</a>
</g>
</g>
<!-- Node19 -->
<g id="Node000019" class="node">
<title>Node19</title>
<g id="a_Node000019"><a xlink:href="../../d7/d52/DebugVal_8hpp.html" target="_top" xlink:title=" ">
<polygon fill="white" stroke="#666666" points="743,-239 659,-239 659,-220 743,-220 743,-239"/>
<text text-anchor="middle" x="701" y="-227" font-family="Helvetica,sans-Serif" font-size="10.00">DebugVal.hpp</text>
</a>
</g>
</g>
<!-- Node16&#45;&gt;Node19 -->
<g id="edge25_Node000016_Node000019" class="edge">
<title>Node16&#45;&gt;Node19</title>
<g id="a_edge25_Node000016_Node000019"><a xlink:title=" ">
<path fill="none" stroke="#63b8ff" d="M497.88,-274.98C539.74,-265.82 606.43,-251.21 651.88,-241.26"/>
<polygon fill="#63b8ff" stroke="#63b8ff" points="652.79,-244.64 661.81,-239.08 651.3,-237.8 652.79,-244.64"/>
</a>
</g>
</g>
<!-- Node17&#45;&gt;Node2 -->
<g id="edge22_Node000017_Node000002" class="edge">
<title>Node17&#45;&gt;Node2</title>
<g id="a_edge22_Node000017_Node000002"><a xlink:title=" ">
<path fill="none" stroke="#63b8ff" d="M485.09,-220C438.54,-213.1 376.11,-201.6 323,-184 269.6,-166.31 245.5,-171.81 209,-129 198.38,-116.55 193.7,-98.34 191.63,-84.61"/>
<polygon fill="#63b8ff" stroke="#63b8ff" points="195.07,-83.88 190.44,-74.36 188.12,-84.69 195.07,-83.88"/>
</a>
</g>
</g>
<!-- Node17&#45;&gt;Node7 -->
<g id="edge21_Node000017_Node000007" class="edge">
<title>Node17&#45;&gt;Node7</title>
<g id="a_edge21_Node000017_Node000007"><a xlink:title=" ">
<path fill="none" stroke="#63b8ff" d="M528.29,-219.98C501.55,-211.13 459.47,-197.19 429.55,-187.28"/>
<polygon fill="#63b8ff" stroke="#63b8ff" points="430.5,-183.9 419.91,-184.08 428.3,-190.55 430.5,-183.9"/>
</a>
</g>
</g>
<!-- Node18 -->
<g id="Node000018" class="node">
<title>Node18</title>
<g id="a_Node000018"><a xlink:title=" ">
<polygon fill="#e0e0e0" stroke="#999999" points="652,-184 474,-184 474,-165 652,-165 652,-184"/>
<text text-anchor="middle" x="563" y="-172" font-family="Helvetica,sans-Serif" font-size="10.00">Settings/NamespaceSettings.hpp</text>
</a>
</g>
</g>
<!-- Node17&#45;&gt;Node18 -->
<g id="edge23_Node000017_Node000018" class="edge">
<title>Node17&#45;&gt;Node18</title>
<g id="a_edge23_Node000017_Node000018"><a xlink:title=" ">
<path fill="none" stroke="#63b8ff" d="M555.49,-219.75C556.67,-212.8 558.36,-202.85 559.84,-194.13"/>
<polygon fill="#63b8ff" stroke="#63b8ff" points="563.32,-194.53 561.54,-184.09 556.42,-193.36 563.32,-194.53"/>
</a>
</g>
</g>
</g>
</svg>
