<?xml version="1.0" encoding="UTF-8" standalone="no"?>
<!DOCTYPE svg PUBLIC "-//W3C//DTD SVG 1.1//EN"
 "http://www.w3.org/Graphics/SVG/1.1/DTD/svg11.dtd">
<!-- Generated by graphviz version 2.43.0 (0)
 -->
<!-- Title: ManyButtonsSelector&lt; N &gt; Pages: 1 -->
<svg width="884pt" height="1082pt"
 viewBox="0.00 0.00 884.00 1082.00" xmlns="http://www.w3.org/2000/svg" xmlns:xlink="http://www.w3.org/1999/xlink">
<g id="graph0" class="graph" transform="scale(1 1) rotate(0) translate(4 1078)">
<title>ManyButtonsSelector&lt; N &gt;</title>
<!-- Node1 -->
<g id="Node000001" class="node">
<title>Node1</title>
<g id="a_Node000001"><a xlink:title="Selector that reads from &#160;buttons.">
<polygon fill="#999999" stroke="transparent" points="313,-49 168,-49 168,0 313,0 313,-49"/>
<text text-anchor="start" x="173.5" y="-36.5" font-family="Helvetica,sans-Serif" font-size="10.00">ManyButtonsSelector&lt; N &gt;</text>
<text text-anchor="start" x="239" y="-21.5" font-family="Helvetica,sans-Serif" font-size="10.00"> </text>
<text text-anchor="start" x="175.5" y="-6.5" font-family="Helvetica,sans-Serif" font-size="10.00">+</text>
<text text-anchor="start" x="191.5" y="-6.5" font-family="Helvetica,sans-Serif" font-size="10.00">ManyButtonsSelector()</text>
<polygon fill="#666666" stroke="#666666" points="168.5,-31.5 168.5,-31.5 313.5,-31.5 313.5,-31.5 168.5,-31.5"/>
<polygon fill="#666666" stroke="#666666" points="168.5,-16.5 168.5,-16.5 313.5,-16.5 313.5,-16.5 168.5,-16.5"/>
<polygon fill="none" stroke="#666666" points="168,0 168,-49 313,-49 313,0 168,0"/>
</a>
</g>
</g>
<!-- Node2 -->
<g id="Node000002" class="node">
<title>Node2</title>
<g id="a_Node000002"><a xlink:href="../../de/d1e/classGenericManyButtonsSelector.html" target="_top" xlink:title=" ">
<polygon fill="white" stroke="transparent" points="326,-191 155,-191 155,-86 326,-86 326,-191"/>
<text text-anchor="start" x="170" y="-178.5" font-family="Helvetica,sans-Serif" font-size="10.00">GenericManyButtonsSelector</text>
<text text-anchor="start" x="201.5" y="-167.5" font-family="Helvetica,sans-Serif" font-size="10.00">&lt; N, Callback &gt;</text>
<text text-anchor="start" x="239" y="-152.5" font-family="Helvetica,sans-Serif" font-size="10.00"> </text>
<text text-anchor="start" x="159.5" y="-137.5" font-family="Helvetica,sans-Serif" font-size="10.00">+</text>
<text text-anchor="start" x="172.5" y="-137.5" font-family="Helvetica,sans-Serif" font-size="10.00">GenericManyButtonsSelector()</text>
<text text-anchor="start" x="159.5" y="-122.5" font-family="Helvetica,sans-Serif" font-size="10.00">+</text>
<text text-anchor="start" x="172.5" y="-122.5" font-family="Helvetica,sans-Serif" font-size="10.00">begin()</text>
<text text-anchor="start" x="159.5" y="-107.5" font-family="Helvetica,sans-Serif" font-size="10.00">+</text>
<text text-anchor="start" x="172.5" y="-107.5" font-family="Helvetica,sans-Serif" font-size="10.00">update()</text>
<text text-anchor="start" x="159.5" y="-92.5" font-family="Helvetica,sans-Serif" font-size="10.00">+</text>
<text text-anchor="start" x="172.5" y="-92.5" font-family="Helvetica,sans-Serif" font-size="10.00">invert()</text>
<polygon fill="#666666" stroke="#666666" points="155.5,-162.5 155.5,-162.5 326.5,-162.5 326.5,-162.5 155.5,-162.5"/>
<polygon fill="#666666" stroke="#666666" points="155.5,-147.5 155.5,-147.5 326.5,-147.5 326.5,-147.5 155.5,-147.5"/>
<polygon fill="none" stroke="#666666" points="155,-86 155,-191 326,-191 326,-86 155,-86"/>
</a>
</g>
</g>
<!-- Node2&#45;&gt;Node1 -->
<g id="edge1_Node000001_Node000002" class="edge">
<title>Node2&#45;&gt;Node1</title>
<g id="a_edge1_Node000001_Node000002"><a xlink:title=" ">
<path fill="none" stroke="#63b8ff" d="M240.5,-75.52C240.5,-66.11 240.5,-56.94 240.5,-49.06"/>
<polygon fill="none" stroke="#63b8ff" points="237,-75.76 240.5,-85.76 244,-75.76 237,-75.76"/>
</a>
</g>
</g>
<!-- Node3 -->
<g id="Node000003" class="node">
<title>Node3</title>
<g id="a_Node000003"><a xlink:href="../../d0/d04/classGenericSelector.html" target="_top" xlink:title=" ">
<polygon fill="white" stroke="transparent" points="397.5,-559 259.5,-559 259.5,-244 397.5,-244 397.5,-559"/>
<text text-anchor="start" x="264.5" y="-546.5" font-family="Helvetica,sans-Serif" font-size="10.00">GenericSelector&lt; N,</text>
<text text-anchor="start" x="264.5" y="-535.5" font-family="Helvetica,sans-Serif" font-size="10.00"> EmptySelectorCallback &gt;</text>
<text text-anchor="start" x="271.5" y="-520.5" font-family="Helvetica,sans-Serif" font-size="10.00">#</text>
<text text-anchor="start" x="292.5" y="-520.5" font-family="Helvetica,sans-Serif" font-size="10.00">setting</text>
<text text-anchor="start" x="271.5" y="-505.5" font-family="Helvetica,sans-Serif" font-size="10.00">#</text>
<text text-anchor="start" x="292.5" y="-505.5" font-family="Helvetica,sans-Serif" font-size="10.00">next</text>
<text text-anchor="start" x="271.5" y="-490.5" font-family="Helvetica,sans-Serif" font-size="10.00">#</text>
<text text-anchor="start" x="292.5" y="-490.5" font-family="Helvetica,sans-Serif" font-size="10.00">previous</text>
<text text-anchor="start" x="271.5" y="-475.5" font-family="Helvetica,sans-Serif" font-size="10.00">#</text>
<text text-anchor="start" x="292.5" y="-475.5" font-family="Helvetica,sans-Serif" font-size="10.00">updatables</text>
<text text-anchor="start" x="274" y="-460.5" font-family="Helvetica,sans-Serif" font-size="10.00">&#45;</text>
<text text-anchor="start" x="292.5" y="-460.5" font-family="Helvetica,sans-Serif" font-size="10.00">selectable</text>
<text text-anchor="start" x="271.5" y="-445.5" font-family="Helvetica,sans-Serif" font-size="10.00">+</text>
<text text-anchor="start" x="292.5" y="-445.5" font-family="Helvetica,sans-Serif" font-size="10.00">GenericSelector()</text>
<text text-anchor="start" x="271.5" y="-430.5" font-family="Helvetica,sans-Serif" font-size="10.00">+</text>
<text text-anchor="start" x="292.5" y="-430.5" font-family="Helvetica,sans-Serif" font-size="10.00">begin()</text>
<text text-anchor="start" x="271.5" y="-415.5" font-family="Helvetica,sans-Serif" font-size="10.00">+</text>
<text text-anchor="start" x="292.5" y="-415.5" font-family="Helvetica,sans-Serif" font-size="10.00">update()</text>
<text text-anchor="start" x="271.5" y="-400.5" font-family="Helvetica,sans-Serif" font-size="10.00">+</text>
<text text-anchor="start" x="292.5" y="-400.5" font-family="Helvetica,sans-Serif" font-size="10.00">reset()</text>
<text text-anchor="start" x="271.5" y="-385.5" font-family="Helvetica,sans-Serif" font-size="10.00">+</text>
<text text-anchor="start" x="292.5" y="-385.5" font-family="Helvetica,sans-Serif" font-size="10.00">set()</text>
<text text-anchor="start" x="271.5" y="-370.5" font-family="Helvetica,sans-Serif" font-size="10.00">+</text>
<text text-anchor="start" x="292.5" y="-370.5" font-family="Helvetica,sans-Serif" font-size="10.00">increment()</text>
<text text-anchor="start" x="271.5" y="-355.5" font-family="Helvetica,sans-Serif" font-size="10.00">+</text>
<text text-anchor="start" x="292.5" y="-355.5" font-family="Helvetica,sans-Serif" font-size="10.00">decrement()</text>
<text text-anchor="start" x="271.5" y="-340.5" font-family="Helvetica,sans-Serif" font-size="10.00">+</text>
<text text-anchor="start" x="292.5" y="-340.5" font-family="Helvetica,sans-Serif" font-size="10.00">get()</text>
<text text-anchor="start" x="273" y="-325.5" font-family="Helvetica,sans-Serif" font-size="10.00">*</text>
<text text-anchor="start" x="292.5" y="-325.5" font-family="Helvetica,sans-Serif" font-size="10.00">enable()</text>
<text text-anchor="start" x="273" y="-310.5" font-family="Helvetica,sans-Serif" font-size="10.00">*</text>
<text text-anchor="start" x="292.5" y="-310.5" font-family="Helvetica,sans-Serif" font-size="10.00">disable()</text>
<text text-anchor="start" x="273" y="-295.5" font-family="Helvetica,sans-Serif" font-size="10.00">*</text>
<text text-anchor="start" x="292.5" y="-295.5" font-family="Helvetica,sans-Serif" font-size="10.00">isEnabled()</text>
<text text-anchor="start" x="273" y="-280.5" font-family="Helvetica,sans-Serif" font-size="10.00">*</text>
<text text-anchor="start" x="292.5" y="-280.5" font-family="Helvetica,sans-Serif" font-size="10.00">moveDown()</text>
<text text-anchor="start" x="273" y="-265.5" font-family="Helvetica,sans-Serif" font-size="10.00">*</text>
<text text-anchor="start" x="292.5" y="-265.5" font-family="Helvetica,sans-Serif" font-size="10.00">beginAll()</text>
<text text-anchor="start" x="273" y="-250.5" font-family="Helvetica,sans-Serif" font-size="10.00">*</text>
<text text-anchor="start" x="292.5" y="-250.5" font-family="Helvetica,sans-Serif" font-size="10.00">updateAll()</text>
<polygon fill="#666666" stroke="#666666" points="259.5,-530.5 259.5,-530.5 397.5,-530.5 397.5,-530.5 259.5,-530.5"/>
<polygon fill="#666666" stroke="#666666" points="259.5,-455.5 259.5,-455.5 290.5,-455.5 290.5,-455.5 259.5,-455.5"/>
<polygon fill="#666666" stroke="#666666" points="290.5,-455.5 290.5,-455.5 397.5,-455.5 397.5,-455.5 290.5,-455.5"/>
<polygon fill="none" stroke="#666666" points="259.5,-244 259.5,-559 397.5,-559 397.5,-244 259.5,-244"/>
</a>
</g>
</g>
<!-- Node3&#45;&gt;Node2 -->
<g id="edge2_Node000002_Node000003" class="edge">
<title>Node3&#45;&gt;Node2</title>
<g id="a_edge2_Node000002_Node000003"><a xlink:title=" ">
<path fill="none" stroke="#63b8ff" d="M279.36,-234.11C276.45,-225.59 273.49,-217.18 270.5,-209 268.38,-203.2 266.02,-197.19 263.59,-191.23"/>
<polygon fill="none" stroke="#63b8ff" points="276.11,-235.42 282.63,-243.77 282.74,-233.18 276.11,-235.42"/>
</a>
</g>
</g>
<!-- Node4 -->
<g id="Node000004" class="node">
<title>Node4</title>
<g id="a_Node000004"><a xlink:href="../../dc/d77/classSelectorBase.html" target="_top" xlink:title="Base class for all Selectors exposing the get method, so it can be used by display elements etc,...">
<polygon fill="white" stroke="transparent" points="527,-773.5 434,-773.5 434,-709.5 527,-709.5 527,-773.5"/>
<text text-anchor="start" x="449" y="-761.5" font-family="Helvetica,sans-Serif" font-size="10.00">SelectorBase</text>
<text text-anchor="start" x="438.5" y="-746.5" font-family="Helvetica,sans-Serif" font-size="10.00">#</text>
<text text-anchor="start" x="451.5" y="-746.5" font-family="Helvetica,sans-Serif" font-size="10.00">setting</text>
<text text-anchor="start" x="438.5" y="-731.5" font-family="Helvetica,sans-Serif" font-size="10.00">+</text>
<text text-anchor="start" x="451.5" y="-731.5" font-family="Helvetica,sans-Serif" font-size="10.00">get()</text>
<text text-anchor="start" x="438.5" y="-716.5" font-family="Helvetica,sans-Serif" font-size="10.00">#</text>
<text text-anchor="start" x="451.5" y="-716.5" font-family="Helvetica,sans-Serif" font-size="10.00">SelectorBase()</text>
<polygon fill="#666666" stroke="#666666" points="434.5,-756.5 434.5,-756.5 527.5,-756.5 527.5,-756.5 434.5,-756.5"/>
<polygon fill="#666666" stroke="#666666" points="434.5,-741.5 434.5,-741.5 449.5,-741.5 449.5,-741.5 434.5,-741.5"/>
<polygon fill="#666666" stroke="#666666" points="449.5,-741.5 449.5,-741.5 527.5,-741.5 527.5,-741.5 449.5,-741.5"/>
<polygon fill="none" stroke="#666666" points="434,-709.5 434,-773.5 527,-773.5 527,-709.5 434,-709.5"/>
</a>
</g>
</g>
<!-- Node4&#45;&gt;Node3 -->
<g id="edge3_Node000003_Node000004" class="edge">
<title>Node4&#45;&gt;Node3</title>
<g id="a_edge3_Node000003_Node000004"><a xlink:title=" ">
<path fill="none" stroke="#63b8ff" d="M462.35,-700.13C446.17,-664.16 421.43,-609.15 397.61,-556.17"/>
<polygon fill="none" stroke="#63b8ff" points="459.18,-701.62 466.47,-709.31 465.56,-698.75 459.18,-701.62"/>
</a>
</g>
</g>
<!-- Node5 -->
<g id="Node000005" class="node">
<title>Node5</title>
<g id="a_Node000005"><a xlink:href="../../d1/d55/classAH_1_1Updatable.html" target="_top" xlink:title="A super class for object that have to be updated regularly.">
<polygon fill="white" stroke="transparent" points="274,-788.5 185,-788.5 185,-694.5 274,-694.5 274,-788.5"/>
<text text-anchor="start" x="190.5" y="-776.5" font-family="Helvetica,sans-Serif" font-size="10.00">Updatable&lt; T &gt;</text>
<text text-anchor="start" x="228" y="-761.5" font-family="Helvetica,sans-Serif" font-size="10.00"> </text>
<text text-anchor="start" x="193.5" y="-746.5" font-family="Helvetica,sans-Serif" font-size="10.00">*</text>
<text text-anchor="start" x="207.5" y="-746.5" font-family="Helvetica,sans-Serif" font-size="10.00">begin()</text>
<text text-anchor="start" x="193.5" y="-731.5" font-family="Helvetica,sans-Serif" font-size="10.00">*</text>
<text text-anchor="start" x="207.5" y="-731.5" font-family="Helvetica,sans-Serif" font-size="10.00">update()</text>
<text text-anchor="start" x="193.5" y="-716.5" font-family="Helvetica,sans-Serif" font-size="10.00">*</text>
<text text-anchor="start" x="207.5" y="-716.5" font-family="Helvetica,sans-Serif" font-size="10.00">beginAll()</text>
<text text-anchor="start" x="193.5" y="-701.5" font-family="Helvetica,sans-Serif" font-size="10.00">*</text>
<text text-anchor="start" x="207.5" y="-701.5" font-family="Helvetica,sans-Serif" font-size="10.00">updateAll()</text>
<polygon fill="#666666" stroke="#666666" points="185.5,-771.5 185.5,-771.5 274.5,-771.5 274.5,-771.5 185.5,-771.5"/>
<polygon fill="#666666" stroke="#666666" points="185.5,-756.5 185.5,-756.5 274.5,-756.5 274.5,-756.5 185.5,-756.5"/>
<polygon fill="none" stroke="#666666" points="185,-694.5 185,-788.5 274,-788.5 274,-694.5 185,-694.5"/>
</a>
</g>
</g>
<!-- Node5&#45;&gt;Node3 -->
<g id="edge4_Node000003_Node000005" class="edge">
<title>Node5&#45;&gt;Node3</title>
<g id="a_edge4_Node000003_Node000005"><a xlink:title=" ">
<path fill="none" stroke="#63b8ff" d="M245.94,-684.37C256.01,-649.97 269.46,-604.08 282.56,-559.34"/>
<polygon fill="none" stroke="#63b8ff" points="242.51,-683.63 243.06,-694.21 249.23,-685.6 242.51,-683.63"/>
</a>
</g>
</g>
<!-- Node6 -->
<g id="Node000006" class="node">
<title>Node6</title>
<g id="a_Node000006"><a xlink:href="../../d8/d1a/classAH_1_1UpdatableCRTP.html" target="_top" xlink:title=" ">
<polygon fill="white" stroke="transparent" points="687,-1074 540,-1074 540,-909 687,-909 687,-1074"/>
<text text-anchor="start" x="545.5" y="-1061.5" font-family="Helvetica,sans-Serif" font-size="10.00">UpdatableCRTP&lt; Updatable</text>
<text text-anchor="start" x="553.5" y="-1050.5" font-family="Helvetica,sans-Serif" font-size="10.00">&lt; NormalUpdatable &gt; &gt;</text>
<text text-anchor="start" x="553" y="-1035.5" font-family="Helvetica,sans-Serif" font-size="10.00">#</text>
<text text-anchor="start" x="574.5" y="-1035.5" font-family="Helvetica,sans-Serif" font-size="10.00">next</text>
<text text-anchor="start" x="553" y="-1020.5" font-family="Helvetica,sans-Serif" font-size="10.00">#</text>
<text text-anchor="start" x="574.5" y="-1020.5" font-family="Helvetica,sans-Serif" font-size="10.00">previous</text>
<text text-anchor="start" x="553" y="-1005.5" font-family="Helvetica,sans-Serif" font-size="10.00">+</text>
<text text-anchor="start" x="574.5" y="-1005.5" font-family="Helvetica,sans-Serif" font-size="10.00">~UpdatableCRTP()</text>
<text text-anchor="start" x="553" y="-990.5" font-family="Helvetica,sans-Serif" font-size="10.00">#</text>
<text text-anchor="start" x="574.5" y="-990.5" font-family="Helvetica,sans-Serif" font-size="10.00">UpdatableCRTP()</text>
<text text-anchor="start" x="553" y="-975.5" font-family="Helvetica,sans-Serif" font-size="10.00">#</text>
<text text-anchor="start" x="574.5" y="-975.5" font-family="Helvetica,sans-Serif" font-size="10.00">operator=()</text>
<text text-anchor="start" x="554.5" y="-960.5" font-family="Helvetica,sans-Serif" font-size="10.00">*</text>
<text text-anchor="start" x="574.5" y="-960.5" font-family="Helvetica,sans-Serif" font-size="10.00">enable()</text>
<text text-anchor="start" x="554.5" y="-945.5" font-family="Helvetica,sans-Serif" font-size="10.00">*</text>
<text text-anchor="start" x="574.5" y="-945.5" font-family="Helvetica,sans-Serif" font-size="10.00">disable()</text>
<text text-anchor="start" x="554.5" y="-930.5" font-family="Helvetica,sans-Serif" font-size="10.00">*</text>
<text text-anchor="start" x="574.5" y="-930.5" font-family="Helvetica,sans-Serif" font-size="10.00">isEnabled()</text>
<text text-anchor="start" x="554.5" y="-915.5" font-family="Helvetica,sans-Serif" font-size="10.00">*</text>
<text text-anchor="start" x="574.5" y="-915.5" font-family="Helvetica,sans-Serif" font-size="10.00">moveDown()</text>
<polygon fill="#666666" stroke="#666666" points="540.5,-1045.5 540.5,-1045.5 687.5,-1045.5 687.5,-1045.5 540.5,-1045.5"/>
<polygon fill="#666666" stroke="#666666" points="540.5,-1015.5 540.5,-1015.5 572.5,-1015.5 572.5,-1015.5 540.5,-1015.5"/>
<polygon fill="#666666" stroke="#666666" points="572.5,-1015.5 572.5,-1015.5 687.5,-1015.5 687.5,-1015.5 572.5,-1015.5"/>
<polygon fill="none" stroke="#666666" points="540,-909 540,-1074 687,-1074 687,-909 540,-909"/>
</a>
</g>
</g>
<!-- Node6&#45;&gt;Node5 -->
<g id="edge5_Node000005_Node000006" class="edge">
<title>Node6&#45;&gt;Node5</title>
<g id="a_edge5_Node000005_Node000006"><a xlink:title=" ">
<path fill="none" stroke="#63b8ff" d="M529.69,-974.55C456.49,-956.78 351.42,-921.5 282.5,-856 263.43,-837.87 250.54,-811.52 242.26,-788.78"/>
<polygon fill="none" stroke="#63b8ff" points="529.27,-978.05 539.81,-976.94 530.88,-971.24 529.27,-978.05"/>
</a>
</g>
</g>
<!-- Node8 -->
<g id="Node000008" class="node">
<title>Node8</title>
<g id="a_Node000008"><a xlink:href="../../d1/d55/classAH_1_1Updatable.html" target="_top" xlink:title=" ">
<polygon fill="white" stroke="transparent" points="820.5,-833.5 650.5,-833.5 650.5,-649.5 820.5,-649.5 820.5,-833.5"/>
<text text-anchor="start" x="655.5" y="-821.5" font-family="Helvetica,sans-Serif" font-size="10.00">Updatable&lt; NormalUpdatable &gt;</text>
<text text-anchor="start" x="675.5" y="-806.5" font-family="Helvetica,sans-Serif" font-size="10.00">#</text>
<text text-anchor="start" x="709.5" y="-806.5" font-family="Helvetica,sans-Serif" font-size="10.00">next</text>
<text text-anchor="start" x="675.5" y="-791.5" font-family="Helvetica,sans-Serif" font-size="10.00">#</text>
<text text-anchor="start" x="709.5" y="-791.5" font-family="Helvetica,sans-Serif" font-size="10.00">previous</text>
<text text-anchor="start" x="675.5" y="-776.5" font-family="Helvetica,sans-Serif" font-size="10.00">#</text>
<text text-anchor="start" x="709.5" y="-776.5" font-family="Helvetica,sans-Serif" font-size="10.00">updatables</text>
<text text-anchor="start" x="677" y="-761.5" font-family="Helvetica,sans-Serif" font-size="10.00">*</text>
<text text-anchor="start" x="709.5" y="-761.5" font-family="Helvetica,sans-Serif" font-size="10.00">begin()</text>
<text text-anchor="start" x="677" y="-746.5" font-family="Helvetica,sans-Serif" font-size="10.00">*</text>
<text text-anchor="start" x="709.5" y="-746.5" font-family="Helvetica,sans-Serif" font-size="10.00">update()</text>
<text text-anchor="start" x="677" y="-731.5" font-family="Helvetica,sans-Serif" font-size="10.00">*</text>
<text text-anchor="start" x="709.5" y="-731.5" font-family="Helvetica,sans-Serif" font-size="10.00">beginAll()</text>
<text text-anchor="start" x="677" y="-716.5" font-family="Helvetica,sans-Serif" font-size="10.00">*</text>
<text text-anchor="start" x="709.5" y="-716.5" font-family="Helvetica,sans-Serif" font-size="10.00">updateAll()</text>
<text text-anchor="start" x="677" y="-701.5" font-family="Helvetica,sans-Serif" font-size="10.00">*</text>
<text text-anchor="start" x="709.5" y="-701.5" font-family="Helvetica,sans-Serif" font-size="10.00">enable()</text>
<text text-anchor="start" x="677" y="-686.5" font-family="Helvetica,sans-Serif" font-size="10.00">*</text>
<text text-anchor="start" x="709.5" y="-686.5" font-family="Helvetica,sans-Serif" font-size="10.00">disable()</text>
<text text-anchor="start" x="677" y="-671.5" font-family="Helvetica,sans-Serif" font-size="10.00">*</text>
<text text-anchor="start" x="709.5" y="-671.5" font-family="Helvetica,sans-Serif" font-size="10.00">isEnabled()</text>
<text text-anchor="start" x="677" y="-656.5" font-family="Helvetica,sans-Serif" font-size="10.00">*</text>
<text text-anchor="start" x="709.5" y="-656.5" font-family="Helvetica,sans-Serif" font-size="10.00">moveDown()</text>
<polygon fill="#666666" stroke="#666666" points="650.5,-816.5 650.5,-816.5 820.5,-816.5 820.5,-816.5 650.5,-816.5"/>
<polygon fill="#666666" stroke="#666666" points="650.5,-771.5 650.5,-771.5 707.5,-771.5 707.5,-771.5 650.5,-771.5"/>
<polygon fill="#666666" stroke="#666666" points="707.5,-771.5 707.5,-771.5 820.5,-771.5 820.5,-771.5 707.5,-771.5"/>
<polygon fill="none" stroke="#666666" points="650.5,-649.5 650.5,-833.5 820.5,-833.5 820.5,-649.5 650.5,-649.5"/>
</a>
</g>
</g>
<!-- Node6&#45;&gt;Node8 -->
<g id="edge8_Node000008_Node000006" class="edge">
<title>Node6&#45;&gt;Node8</title>
<g id="a_edge8_Node000008_Node000006"><a xlink:title=" ">
<path fill="none" stroke="#63b8ff" d="M658.12,-899.79C668.75,-878.19 680.09,-855.14 690.72,-833.53"/>
<polygon fill="none" stroke="#63b8ff" points="654.89,-898.43 653.62,-908.95 661.17,-901.52 654.89,-898.43"/>
</a>
</g>
</g>
<!-- Node7 -->
<g id="Node000007" class="node">
<title>Node7</title>
<g id="a_Node000007"><a xlink:href="../../d4/d23/classDoublyLinkable.html" target="_top" xlink:title=" ">
<polygon fill="white" stroke="transparent" points="876,-446.5 729,-446.5 729,-356.5 876,-356.5 876,-446.5"/>
<text text-anchor="start" x="734.5" y="-434.5" font-family="Helvetica,sans-Serif" font-size="10.00">DoublyLinkable&lt; Updatable</text>
<text text-anchor="start" x="742.5" y="-423.5" font-family="Helvetica,sans-Serif" font-size="10.00">&lt; NormalUpdatable &gt; &gt;</text>
<text text-anchor="start" x="801" y="-408.5" font-family="Helvetica,sans-Serif" font-size="10.00"> </text>
<text text-anchor="start" x="742" y="-393.5" font-family="Helvetica,sans-Serif" font-size="10.00">#</text>
<text text-anchor="start" x="763.5" y="-393.5" font-family="Helvetica,sans-Serif" font-size="10.00">~DoublyLinkable()</text>
<text text-anchor="start" x="742" y="-378.5" font-family="Helvetica,sans-Serif" font-size="10.00">#</text>
<text text-anchor="start" x="763.5" y="-378.5" font-family="Helvetica,sans-Serif" font-size="10.00">DoublyLinkable()</text>
<text text-anchor="start" x="742" y="-363.5" font-family="Helvetica,sans-Serif" font-size="10.00">#</text>
<text text-anchor="start" x="763.5" y="-363.5" font-family="Helvetica,sans-Serif" font-size="10.00">operator=()</text>
<polygon fill="#666666" stroke="#666666" points="729.5,-418.5 729.5,-418.5 876.5,-418.5 876.5,-418.5 729.5,-418.5"/>
<polygon fill="#666666" stroke="#666666" points="729.5,-403.5 729.5,-403.5 876.5,-403.5 876.5,-403.5 729.5,-403.5"/>
<polygon fill="none" stroke="#666666" points="729,-356.5 729,-446.5 876,-446.5 876,-356.5 729,-356.5"/>
</a>
</g>
</g>
<!-- Node7&#45;&gt;Node6 -->
<g id="edge6_Node000006_Node000007" class="edge">
<title>Node7&#45;&gt;Node6</title>
<g id="a_edge6_Node000006_Node000007"><a xlink:title=" ">
<path fill="none" stroke="#63b8ff" d="M823.18,-456.18C853.94,-545.47 900.92,-727.4 829.5,-856 799.31,-910.36 737.03,-945.6 687.06,-966.32"/>
<polygon fill="none" stroke="#63b8ff" points="826.41,-454.81 819.79,-446.54 819.8,-457.13 826.41,-454.81"/>
</a>
</g>
</g>
<!-- Node8&#45;&gt;Node7 -->
<g id="edge7_Node000007_Node000008" class="edge">
<title>Node8&#45;&gt;Node7</title>
<g id="a_edge7_Node000007_Node000008"><a xlink:title=" ">
<path fill="none" stroke="#63b8ff" d="M753.54,-649.48C765.6,-588.66 781.08,-510.58 791.37,-458.66"/>
<polygon fill="none" stroke="#63b8ff" points="791.41,-458.47 788.65,-451.81 793.74,-446.7 796.5,-453.36 791.41,-458.47"/>
</a>
</g>
<text text-anchor="start" x="770" y="-598" font-family="Helvetica,sans-Serif" font-size="10.00" fill="grey">#next</text>
<text text-anchor="start" x="770" y="-583" font-family="Helvetica,sans-Serif" font-size="10.00" fill="grey">#previous</text>
</g>
<!-- Node9 -->
<g id="Node000009" class="node">
<title>Node9</title>
<g id="a_Node000009"><a xlink:href="../../dd/d16/classDoublyLinkedList.html" target="_top" xlink:title=" ">
<polygon fill="white" stroke="transparent" points="676,-514 521,-514 521,-289 676,-289 676,-514"/>
<text text-anchor="start" x="526.5" y="-501.5" font-family="Helvetica,sans-Serif" font-size="10.00">DoublyLinkedList&lt; Updatable</text>
<text text-anchor="start" x="538.5" y="-490.5" font-family="Helvetica,sans-Serif" font-size="10.00">&lt; NormalUpdatable &gt; &gt;</text>
<text text-anchor="start" x="597" y="-475.5" font-family="Helvetica,sans-Serif" font-size="10.00"> </text>
<text text-anchor="start" x="541" y="-460.5" font-family="Helvetica,sans-Serif" font-size="10.00">+</text>
<text text-anchor="start" x="569.5" y="-460.5" font-family="Helvetica,sans-Serif" font-size="10.00">append()</text>
<text text-anchor="start" x="541" y="-445.5" font-family="Helvetica,sans-Serif" font-size="10.00">+</text>
<text text-anchor="start" x="569.5" y="-445.5" font-family="Helvetica,sans-Serif" font-size="10.00">insertBefore()</text>
<text text-anchor="start" x="541" y="-430.5" font-family="Helvetica,sans-Serif" font-size="10.00">+</text>
<text text-anchor="start" x="569.5" y="-430.5" font-family="Helvetica,sans-Serif" font-size="10.00">insertSorted()</text>
<text text-anchor="start" x="541" y="-415.5" font-family="Helvetica,sans-Serif" font-size="10.00">+</text>
<text text-anchor="start" x="569.5" y="-415.5" font-family="Helvetica,sans-Serif" font-size="10.00">remove()</text>
<text text-anchor="start" x="541" y="-400.5" font-family="Helvetica,sans-Serif" font-size="10.00">+</text>
<text text-anchor="start" x="569.5" y="-400.5" font-family="Helvetica,sans-Serif" font-size="10.00">moveDown()</text>
<text text-anchor="start" x="541" y="-385.5" font-family="Helvetica,sans-Serif" font-size="10.00">+</text>
<text text-anchor="start" x="569.5" y="-385.5" font-family="Helvetica,sans-Serif" font-size="10.00">couldContain()</text>
<text text-anchor="start" x="541" y="-370.5" font-family="Helvetica,sans-Serif" font-size="10.00">+</text>
<text text-anchor="start" x="569.5" y="-370.5" font-family="Helvetica,sans-Serif" font-size="10.00">begin()</text>
<text text-anchor="start" x="541" y="-355.5" font-family="Helvetica,sans-Serif" font-size="10.00">+</text>
<text text-anchor="start" x="569.5" y="-355.5" font-family="Helvetica,sans-Serif" font-size="10.00">end()</text>
<text text-anchor="start" x="541" y="-340.5" font-family="Helvetica,sans-Serif" font-size="10.00">+</text>
<text text-anchor="start" x="569.5" y="-340.5" font-family="Helvetica,sans-Serif" font-size="10.00">rbegin()</text>
<text text-anchor="start" x="541" y="-325.5" font-family="Helvetica,sans-Serif" font-size="10.00">+</text>
<text text-anchor="start" x="569.5" y="-325.5" font-family="Helvetica,sans-Serif" font-size="10.00">rend()</text>
<text text-anchor="start" x="541" y="-310.5" font-family="Helvetica,sans-Serif" font-size="10.00">+</text>
<text text-anchor="start" x="569.5" y="-310.5" font-family="Helvetica,sans-Serif" font-size="10.00">getFirst()</text>
<text text-anchor="start" x="541" y="-295.5" font-family="Helvetica,sans-Serif" font-size="10.00">+</text>
<text text-anchor="start" x="569.5" y="-295.5" font-family="Helvetica,sans-Serif" font-size="10.00">getLast()</text>
<polygon fill="#666666" stroke="#666666" points="521.5,-485.5 521.5,-485.5 676.5,-485.5 676.5,-485.5 521.5,-485.5"/>
<polygon fill="#666666" stroke="#666666" points="521.5,-470.5 521.5,-470.5 676.5,-470.5 676.5,-470.5 521.5,-470.5"/>
<polygon fill="none" stroke="#666666" points="521,-289 521,-514 676,-514 676,-289 521,-289"/>
</a>
</g>
</g>
<!-- Node8&#45;&gt;Node9 -->
<g id="edge10_Node000009_Node000008" class="edge">
<title>Node8&#45;&gt;Node9</title>
<g id="a_edge10_Node000009_Node000008"><a xlink:title=" ">
<path fill="none" stroke="#63b8ff" d="M698.61,-649.48C683.14,-611.33 664.93,-566.39 648.3,-525.37"/>
<polygon fill="none" stroke="#63b8ff" points="648.28,-525.32 642.32,-521.26 643.77,-514.2 649.74,-518.26 648.28,-525.32"/>
</a>
</g>
<text text-anchor="start" x="682" y="-598" font-family="Helvetica,sans-Serif" font-size="10.00" fill="grey">&#45;first</text>
<text text-anchor="start" x="682" y="-583" font-family="Helvetica,sans-Serif" font-size="10.00" fill="grey">&#45;last</text>
</g>
<!-- Node9&#45;&gt;Node6 -->
<g id="edge9_Node000006_Node000009" class="edge">
<title>Node9&#45;&gt;Node6</title>
<g id="a_edge9_Node000006_Node000009"><a xlink:title=" ">
<path fill="none" stroke="#63b8ff" d="M579.4,-514.43C566.71,-606.57 555.27,-740.36 572.5,-856 574.5,-869.45 577.58,-883.41 581.16,-897.02"/>
<polygon fill="none" stroke="#63b8ff" points="581.24,-897.31 586.68,-902.03 584.42,-908.88 578.97,-904.15 581.24,-897.31"/>
</a>
</g>
<text text-anchor="start" x="576" y="-738.5" font-family="Helvetica,sans-Serif" font-size="10.00" fill="grey">#updatables</text>
</g>
<!-- Node10 -->
<g id="Node000010" class="node">
<title>Node10</title>
<g id="a_Node000010"><a xlink:href="../../d3/d8b/structEmptySelectorCallback.html" target="_top" xlink:title="A callback for the GenericSelector class that does nothing.">
<polygon fill="white" stroke="transparent" points="415.5,-781 291.5,-781 291.5,-702 415.5,-702 415.5,-781"/>
<text text-anchor="start" x="296.5" y="-768.5" font-family="Helvetica,sans-Serif" font-size="10.00">EmptySelectorCallback</text>
<text text-anchor="start" x="351.5" y="-753.5" font-family="Helvetica,sans-Serif" font-size="10.00"> </text>
<text text-anchor="start" x="310.5" y="-738.5" font-family="Helvetica,sans-Serif" font-size="10.00">+</text>
<text text-anchor="start" x="338.5" y="-738.5" font-family="Helvetica,sans-Serif" font-size="10.00">begin()</text>
<text text-anchor="start" x="310.5" y="-723.5" font-family="Helvetica,sans-Serif" font-size="10.00">+</text>
<text text-anchor="start" x="338.5" y="-723.5" font-family="Helvetica,sans-Serif" font-size="10.00">update()</text>
<text text-anchor="start" x="310.5" y="-708.5" font-family="Helvetica,sans-Serif" font-size="10.00">+</text>
<text text-anchor="start" x="338.5" y="-708.5" font-family="Helvetica,sans-Serif" font-size="10.00">update()</text>
<polygon fill="#666666" stroke="#666666" points="291.5,-763.5 291.5,-763.5 415.5,-763.5 415.5,-763.5 291.5,-763.5"/>
<polygon fill="#666666" stroke="#666666" points="291.5,-748.5 291.5,-748.5 415.5,-748.5 415.5,-748.5 291.5,-748.5"/>
<polygon fill="none" stroke="#666666" points="291.5,-702 291.5,-781 415.5,-781 415.5,-702 291.5,-702"/>
</a>
</g>
</g>
<!-- Node10&#45;&gt;Node3 -->
<g id="edge11_Node000003_Node000010" class="edge">
<title>Node10&#45;&gt;Node3</title>
<g id="a_edge11_Node000003_Node000010"><a xlink:title=" ">
<path fill="none" stroke="#63b8ff" d="M350.63,-701.73C348.22,-669.13 344.6,-620.13 340.97,-571.16"/>
<polygon fill="none" stroke="#63b8ff" points="340.97,-571.03 336.53,-565.34 340.08,-559.06 344.51,-564.75 340.97,-571.03"/>
</a>
</g>
<text text-anchor="start" x="346" y="-590" font-family="Helvetica,sans-Serif" font-size="10.00" fill="grey">+callback</text>
</g>
<!-- Node11 -->
<g id="Node000011" class="node">
<title>Node11</title>
<g id="a_Node000011"><a xlink:href="../../d0/d32/structAH_1_1Array.html" target="_top" xlink:title=" ">
<polygon fill="white" stroke="transparent" points="228,-501 103,-501 103,-302 228,-302 228,-501"/>
<text text-anchor="start" x="108.5" y="-488.5" font-family="Helvetica,sans-Serif" font-size="10.00">Array&lt; AH::Button, N &gt;</text>
<text text-anchor="start" x="117" y="-473.5" font-family="Helvetica,sans-Serif" font-size="10.00">+</text>
<text text-anchor="start" x="139.5" y="-473.5" font-family="Helvetica,sans-Serif" font-size="10.00">length</text>
<text text-anchor="start" x="117" y="-458.5" font-family="Helvetica,sans-Serif" font-size="10.00">+</text>
<text text-anchor="start" x="139.5" y="-458.5" font-family="Helvetica,sans-Serif" font-size="10.00">operator[]()</text>
<text text-anchor="start" x="117" y="-443.5" font-family="Helvetica,sans-Serif" font-size="10.00">+</text>
<text text-anchor="start" x="139.5" y="-443.5" font-family="Helvetica,sans-Serif" font-size="10.00">operator[]()</text>
<text text-anchor="start" x="117" y="-428.5" font-family="Helvetica,sans-Serif" font-size="10.00">+</text>
<text text-anchor="start" x="139.5" y="-428.5" font-family="Helvetica,sans-Serif" font-size="10.00">begin()</text>
<text text-anchor="start" x="117" y="-413.5" font-family="Helvetica,sans-Serif" font-size="10.00">+</text>
<text text-anchor="start" x="139.5" y="-413.5" font-family="Helvetica,sans-Serif" font-size="10.00">begin()</text>
<text text-anchor="start" x="117" y="-398.5" font-family="Helvetica,sans-Serif" font-size="10.00">+</text>
<text text-anchor="start" x="139.5" y="-398.5" font-family="Helvetica,sans-Serif" font-size="10.00">end()</text>
<text text-anchor="start" x="117" y="-383.5" font-family="Helvetica,sans-Serif" font-size="10.00">+</text>
<text text-anchor="start" x="139.5" y="-383.5" font-family="Helvetica,sans-Serif" font-size="10.00">end()</text>
<text text-anchor="start" x="117" y="-368.5" font-family="Helvetica,sans-Serif" font-size="10.00">+</text>
<text text-anchor="start" x="139.5" y="-368.5" font-family="Helvetica,sans-Serif" font-size="10.00">operator==()</text>
<text text-anchor="start" x="117" y="-353.5" font-family="Helvetica,sans-Serif" font-size="10.00">+</text>
<text text-anchor="start" x="139.5" y="-353.5" font-family="Helvetica,sans-Serif" font-size="10.00">operator!=()</text>
<text text-anchor="start" x="117" y="-338.5" font-family="Helvetica,sans-Serif" font-size="10.00">+</text>
<text text-anchor="start" x="139.5" y="-338.5" font-family="Helvetica,sans-Serif" font-size="10.00">slice()</text>
<text text-anchor="start" x="117" y="-323.5" font-family="Helvetica,sans-Serif" font-size="10.00">+</text>
<text text-anchor="start" x="139.5" y="-323.5" font-family="Helvetica,sans-Serif" font-size="10.00">slice()</text>
<text text-anchor="start" x="117" y="-308.5" font-family="Helvetica,sans-Serif" font-size="10.00">+</text>
<text text-anchor="start" x="139.5" y="-308.5" font-family="Helvetica,sans-Serif" font-size="10.00">cslice()</text>
<polygon fill="#666666" stroke="#666666" points="103.5,-483.5 103.5,-483.5 228.5,-483.5 228.5,-483.5 103.5,-483.5"/>
<polygon fill="#666666" stroke="#666666" points="103.5,-468.5 103.5,-468.5 137.5,-468.5 137.5,-468.5 103.5,-468.5"/>
<polygon fill="#666666" stroke="#666666" points="137.5,-468.5 137.5,-468.5 228.5,-468.5 228.5,-468.5 137.5,-468.5"/>
<polygon fill="none" stroke="#666666" points="103,-302 103,-501 228,-501 228,-302 103,-302"/>
</a>
</g>
</g>
<!-- Node11&#45;&gt;Node2 -->
<g id="edge12_Node000002_Node000011" class="edge">
<title>Node11&#45;&gt;Node2</title>
<g id="a_edge12_Node000002_Node000011"><a xlink:title=" ">
<path fill="none" stroke="#63b8ff" d="M193.85,-301.83C203.37,-268.71 213.72,-232.69 222.25,-203"/>
<polygon fill="none" stroke="#63b8ff" points="222.35,-202.65 220.16,-195.78 225.67,-191.12 227.85,-197.99 222.35,-202.65"/>
</a>
</g>
<text text-anchor="start" x="223" y="-214.5" font-family="Helvetica,sans-Serif" font-size="10.00" fill="grey">&#45;buttons</text>
</g>
<!-- Node12 -->
<g id="Node000012" class="node">
<title>Node12</title>
<g id="a_Node000012"><a xlink:href="../../de/d0d/classAH_1_1Button.html" target="_top" xlink:title="A class for reading and debouncing buttons and switches.">
<polygon fill="white" stroke="transparent" points="166.5,-856 34.5,-856 34.5,-627 166.5,-627 166.5,-856"/>
<text text-anchor="start" x="84" y="-843.5" font-family="Helvetica,sans-Serif" font-size="10.00">Button</text>
<text text-anchor="start" x="41" y="-828.5" font-family="Helvetica,sans-Serif" font-size="10.00">&#45;</text>
<text text-anchor="start" x="51.5" y="-828.5" font-family="Helvetica,sans-Serif" font-size="10.00">debounceTime</text>
<text text-anchor="start" x="38.5" y="-813.5" font-family="Helvetica,sans-Serif" font-size="10.00">+</text>
<text text-anchor="start" x="51.5" y="-813.5" font-family="Helvetica,sans-Serif" font-size="10.00">Button()</text>
<text text-anchor="start" x="38.5" y="-798.5" font-family="Helvetica,sans-Serif" font-size="10.00">+</text>
<text text-anchor="start" x="51.5" y="-798.5" font-family="Helvetica,sans-Serif" font-size="10.00">Button()</text>
<text text-anchor="start" x="38.5" y="-783.5" font-family="Helvetica,sans-Serif" font-size="10.00">+</text>
<text text-anchor="start" x="51.5" y="-783.5" font-family="Helvetica,sans-Serif" font-size="10.00">Button()</text>
<text text-anchor="start" x="38.5" y="-768.5" font-family="Helvetica,sans-Serif" font-size="10.00">+</text>
<text text-anchor="start" x="51.5" y="-768.5" font-family="Helvetica,sans-Serif" font-size="10.00">begin()</text>
<text text-anchor="start" x="38.5" y="-753.5" font-family="Helvetica,sans-Serif" font-size="10.00">+</text>
<text text-anchor="start" x="51.5" y="-753.5" font-family="Helvetica,sans-Serif" font-size="10.00">invert()</text>
<text text-anchor="start" x="38.5" y="-738.5" font-family="Helvetica,sans-Serif" font-size="10.00">+</text>
<text text-anchor="start" x="51.5" y="-738.5" font-family="Helvetica,sans-Serif" font-size="10.00">update()</text>
<text text-anchor="start" x="38.5" y="-723.5" font-family="Helvetica,sans-Serif" font-size="10.00">+</text>
<text text-anchor="start" x="51.5" y="-723.5" font-family="Helvetica,sans-Serif" font-size="10.00">getState()</text>
<text text-anchor="start" x="38.5" y="-708.5" font-family="Helvetica,sans-Serif" font-size="10.00">+</text>
<text text-anchor="start" x="51.5" y="-708.5" font-family="Helvetica,sans-Serif" font-size="10.00">previousBounceTime()</text>
<text text-anchor="start" x="38.5" y="-693.5" font-family="Helvetica,sans-Serif" font-size="10.00">+</text>
<text text-anchor="start" x="51.5" y="-693.5" font-family="Helvetica,sans-Serif" font-size="10.00">stableTime()</text>
<text text-anchor="start" x="38.5" y="-678.5" font-family="Helvetica,sans-Serif" font-size="10.00">+</text>
<text text-anchor="start" x="51.5" y="-678.5" font-family="Helvetica,sans-Serif" font-size="10.00">stableTime()</text>
<text text-anchor="start" x="38.5" y="-663.5" font-family="Helvetica,sans-Serif" font-size="10.00">+</text>
<text text-anchor="start" x="51.5" y="-663.5" font-family="Helvetica,sans-Serif" font-size="10.00">getName()</text>
<text text-anchor="start" x="38.5" y="-648.5" font-family="Helvetica,sans-Serif" font-size="10.00">+</text>
<text text-anchor="start" x="51.5" y="-648.5" font-family="Helvetica,sans-Serif" font-size="10.00">setDebounceTime()</text>
<text text-anchor="start" x="38.5" y="-633.5" font-family="Helvetica,sans-Serif" font-size="10.00">+</text>
<text text-anchor="start" x="51.5" y="-633.5" font-family="Helvetica,sans-Serif" font-size="10.00">getDebounceTime()</text>
<polygon fill="#666666" stroke="#666666" points="34.5,-838.5 34.5,-838.5 166.5,-838.5 166.5,-838.5 34.5,-838.5"/>
<polygon fill="#666666" stroke="#666666" points="34.5,-823.5 34.5,-823.5 49.5,-823.5 49.5,-823.5 34.5,-823.5"/>
<polygon fill="#666666" stroke="#666666" points="49.5,-823.5 49.5,-823.5 166.5,-823.5 166.5,-823.5 49.5,-823.5"/>
<polygon fill="none" stroke="#666666" points="34.5,-627 34.5,-856 166.5,-856 166.5,-627 34.5,-627"/>
</a>
</g>
</g>
<!-- Node12&#45;&gt;Node11 -->
<g id="edge13_Node000011_Node000012" class="edge">
<title>Node12&#45;&gt;Node11</title>
<g id="a_edge13_Node000011_Node000012"><a xlink:title=" ">
<path fill="none" stroke="#63b8ff" d="M122.42,-626.54C129.44,-590.04 137.19,-549.69 144.17,-513.41"/>
<polygon fill="none" stroke="#63b8ff" points="144.24,-513.05 141.44,-506.4 146.51,-501.27 149.3,-507.92 144.24,-513.05"/>
</a>
</g>
<text text-anchor="start" x="134" y="-590" font-family="Helvetica,sans-Serif" font-size="10.00" fill="grey">+data</text>
</g>
<!-- Node13 -->
<g id="Node000013" class="node">
<title>Node13</title>
<g id="a_Node000013"><a xlink:href="../../d7/de2/structAH_1_1ExtIO_1_1pin__t.html" target="_top" xlink:title="Type for storing pin numbers of Extended Input/Output elements.">
<polygon fill="white" stroke="transparent" points="87,-1068.5 0,-1068.5 0,-914.5 87,-914.5 87,-1068.5"/>
<text text-anchor="start" x="31.5" y="-1056.5" font-family="Helvetica,sans-Serif" font-size="10.00">pin_t</text>
<text text-anchor="start" x="4.5" y="-1041.5" font-family="Helvetica,sans-Serif" font-size="10.00">+</text>
<text text-anchor="start" x="17.5" y="-1041.5" font-family="Helvetica,sans-Serif" font-size="10.00">pin</text>
<text text-anchor="start" x="4.5" y="-1026.5" font-family="Helvetica,sans-Serif" font-size="10.00">+</text>
<text text-anchor="start" x="17.5" y="-1026.5" font-family="Helvetica,sans-Serif" font-size="10.00">pin_t()</text>
<text text-anchor="start" x="4.5" y="-1011.5" font-family="Helvetica,sans-Serif" font-size="10.00">+</text>
<text text-anchor="start" x="17.5" y="-1011.5" font-family="Helvetica,sans-Serif" font-size="10.00">pin_t()</text>
<text text-anchor="start" x="4.5" y="-996.5" font-family="Helvetica,sans-Serif" font-size="10.00">+</text>
<text text-anchor="start" x="17.5" y="-996.5" font-family="Helvetica,sans-Serif" font-size="10.00">operator+=()</text>
<text text-anchor="start" x="4.5" y="-981.5" font-family="Helvetica,sans-Serif" font-size="10.00">+</text>
<text text-anchor="start" x="17.5" y="-981.5" font-family="Helvetica,sans-Serif" font-size="10.00">operator++()</text>
<text text-anchor="start" x="4.5" y="-966.5" font-family="Helvetica,sans-Serif" font-size="10.00">+</text>
<text text-anchor="start" x="17.5" y="-966.5" font-family="Helvetica,sans-Serif" font-size="10.00">operator++()</text>
<text text-anchor="start" x="4.5" y="-951.5" font-family="Helvetica,sans-Serif" font-size="10.00">+</text>
<text text-anchor="start" x="17.5" y="-951.5" font-family="Helvetica,sans-Serif" font-size="10.00">operator&#45;=()</text>
<text text-anchor="start" x="4.5" y="-936.5" font-family="Helvetica,sans-Serif" font-size="10.00">+</text>
<text text-anchor="start" x="17.5" y="-936.5" font-family="Helvetica,sans-Serif" font-size="10.00">operator&#45;&#45;()</text>
<text text-anchor="start" x="4.5" y="-921.5" font-family="Helvetica,sans-Serif" font-size="10.00">+</text>
<text text-anchor="start" x="17.5" y="-921.5" font-family="Helvetica,sans-Serif" font-size="10.00">operator&#45;&#45;()</text>
<polygon fill="#666666" stroke="#666666" points="0.5,-1051.5 0.5,-1051.5 87.5,-1051.5 87.5,-1051.5 0.5,-1051.5"/>
<polygon fill="#666666" stroke="#666666" points="0.5,-1036.5 0.5,-1036.5 15.5,-1036.5 15.5,-1036.5 0.5,-1036.5"/>
<polygon fill="#666666" stroke="#666666" points="15.5,-1036.5 15.5,-1036.5 87.5,-1036.5 87.5,-1036.5 15.5,-1036.5"/>
<polygon fill="none" stroke="#666666" points="0,-914.5 0,-1068.5 87,-1068.5 87,-914.5 0,-914.5"/>
</a>
</g>
</g>
<!-- Node13&#45;&gt;Node12 -->
<g id="edge14_Node000012_Node000013" class="edge">
<title>Node13&#45;&gt;Node12</title>
<g id="a_edge14_Node000012_Node000013"><a xlink:title=" ">
<path fill="none" stroke="#63b8ff" d="M60.99,-914.41C64.35,-899.77 67.96,-884.08 71.57,-868.35"/>
<polygon fill="none" stroke="#63b8ff" points="71.65,-868.03 69.09,-861.28 74.34,-856.33 76.89,-863.08 71.65,-868.03"/>
</a>
</g>
<text text-anchor="start" x="73" y="-879.5" font-family="Helvetica,sans-Serif" font-size="10.00" fill="grey">&#45;pin</text>
</g>
<!-- Node14 -->
<g id="Node000014" class="node">
<title>Node14</title>
<g id="a_Node000014"><a xlink:href="../../dc/db4/structAH_1_1Button_1_1InternalState.html" target="_top" xlink:title=" ">
<polygon fill="white" stroke="transparent" points="209.5,-1046 105.5,-1046 105.5,-937 209.5,-937 209.5,-1046"/>
<text text-anchor="start" x="125.5" y="-1033.5" font-family="Helvetica,sans-Serif" font-size="10.00">InternalState</text>
<text text-anchor="start" x="109.5" y="-1018.5" font-family="Helvetica,sans-Serif" font-size="10.00">+</text>
<text text-anchor="start" x="122.5" y="-1018.5" font-family="Helvetica,sans-Serif" font-size="10.00">debounced</text>
<text text-anchor="start" x="109.5" y="-1003.5" font-family="Helvetica,sans-Serif" font-size="10.00">+</text>
<text text-anchor="start" x="122.5" y="-1003.5" font-family="Helvetica,sans-Serif" font-size="10.00">bouncing</text>
<text text-anchor="start" x="109.5" y="-988.5" font-family="Helvetica,sans-Serif" font-size="10.00">+</text>
<text text-anchor="start" x="122.5" y="-988.5" font-family="Helvetica,sans-Serif" font-size="10.00">prevInput</text>
<text text-anchor="start" x="109.5" y="-973.5" font-family="Helvetica,sans-Serif" font-size="10.00">+</text>
<text text-anchor="start" x="122.5" y="-973.5" font-family="Helvetica,sans-Serif" font-size="10.00">invert</text>
<text text-anchor="start" x="109.5" y="-958.5" font-family="Helvetica,sans-Serif" font-size="10.00">+</text>
<text text-anchor="start" x="122.5" y="-958.5" font-family="Helvetica,sans-Serif" font-size="10.00">prevBounceTime</text>
<text text-anchor="start" x="109.5" y="-943.5" font-family="Helvetica,sans-Serif" font-size="10.00">+</text>
<text text-anchor="start" x="122.5" y="-943.5" font-family="Helvetica,sans-Serif" font-size="10.00">InternalState()</text>
<polygon fill="#666666" stroke="#666666" points="105.5,-1028.5 105.5,-1028.5 209.5,-1028.5 209.5,-1028.5 105.5,-1028.5"/>
<polygon fill="#666666" stroke="#666666" points="105.5,-953.5 105.5,-953.5 120.5,-953.5 120.5,-953.5 105.5,-953.5"/>
<polygon fill="#666666" stroke="#666666" points="120.5,-953.5 120.5,-953.5 209.5,-953.5 209.5,-953.5 120.5,-953.5"/>
<polygon fill="none" stroke="#666666" points="105.5,-937 105.5,-1046 209.5,-1046 209.5,-937 105.5,-937"/>
</a>
</g>
</g>
<!-- Node14&#45;&gt;Node12 -->
<g id="edge15_Node000012_Node000014" class="edge">
<title>Node14&#45;&gt;Node12</title>
<g id="a_edge15_Node000012_Node000014"><a xlink:title=" ">
<path fill="none" stroke="#63b8ff" d="M145.2,-936.99C140.51,-916.56 134.93,-892.3 129.34,-867.96"/>
<polygon fill="none" stroke="#63b8ff" points="129.28,-867.72 124.04,-862.77 126.59,-856.02 131.83,-860.98 129.28,-867.72"/>
</a>
</g>
<text text-anchor="start" x="137" y="-879.5" font-family="Helvetica,sans-Serif" font-size="10.00" fill="grey">&#45;state</text>
</g>
</g>
</svg>
