<?xml version="1.0" encoding="UTF-8" standalone="no"?>
<!DOCTYPE svg PUBLIC "-//W3C//DTD SVG 1.1//EN"
 "http://www.w3.org/Graphics/SVG/1.1/DTD/svg11.dtd">
<!-- Generated by graphviz version 2.43.0 (0)
 -->
<!-- Title: IncrementSelector&lt; N &gt; Pages: 1 -->
<svg width="237pt" height="1081pt"
 viewBox="0.00 0.00 237.00 1081.00" xmlns="http://www.w3.org/2000/svg" xmlns:xlink="http://www.w3.org/1999/xlink">
<g id="graph0" class="graph" transform="scale(1 1) rotate(0) translate(4 1077)">
<title>IncrementSelector&lt; N &gt;</title>
<!-- Node1 -->
<g id="Node000001" class="node">
<title>Node1</title>
<g id="a_Node000001"><a xlink:title="Selector with one button that increments the selection.">
<polygon fill="#999999" stroke="transparent" points="165.5,-64 35.5,-64 35.5,0 165.5,0 165.5,-64"/>
<text text-anchor="start" x="40.5" y="-52" font-family="Helvetica,sans-Serif" font-size="10.00">IncrementSelector&lt; N &gt;</text>
<text text-anchor="start" x="98.5" y="-37" font-family="Helvetica,sans-Serif" font-size="10.00"> </text>
<text text-anchor="start" x="42.5" y="-22" font-family="Helvetica,sans-Serif" font-size="10.00">+</text>
<text text-anchor="start" x="58.5" y="-22" font-family="Helvetica,sans-Serif" font-size="10.00">IncrementSelector()</text>
<text text-anchor="start" x="42.5" y="-7" font-family="Helvetica,sans-Serif" font-size="10.00">+</text>
<text text-anchor="start" x="58.5" y="-7" font-family="Helvetica,sans-Serif" font-size="10.00">IncrementSelector()</text>
<polygon fill="#666666" stroke="#666666" points="35.5,-47 35.5,-47 165.5,-47 165.5,-47 35.5,-47"/>
<polygon fill="#666666" stroke="#666666" points="35.5,-32 35.5,-32 165.5,-32 165.5,-32 35.5,-32"/>
<polygon fill="none" stroke="#666666" points="35.5,0 35.5,-64 165.5,-64 165.5,0 35.5,0"/>
</a>
</g>
</g>
<!-- Node2 -->
<g id="Node000002" class="node">
<title>Node2</title>
<g id="a_Node000002"><a xlink:href="../../d1/d94/classGenericIncrementSelector.html" target="_top" xlink:title=" ">
<polygon fill="white" stroke="transparent" points="178.5,-220 22.5,-220 22.5,-100 178.5,-100 178.5,-220"/>
<text text-anchor="start" x="37" y="-208" font-family="Helvetica,sans-Serif" font-size="10.00">GenericIncrementSelector</text>
<text text-anchor="start" x="61" y="-197" font-family="Helvetica,sans-Serif" font-size="10.00">&lt; N, Callback &gt;</text>
<text text-anchor="start" x="29" y="-182" font-family="Helvetica,sans-Serif" font-size="10.00">&#45;</text>
<text text-anchor="start" x="39.5" y="-182" font-family="Helvetica,sans-Serif" font-size="10.00">button</text>
<text text-anchor="start" x="26.5" y="-167" font-family="Helvetica,sans-Serif" font-size="10.00">+</text>
<text text-anchor="start" x="39.5" y="-167" font-family="Helvetica,sans-Serif" font-size="10.00">GenericIncrementSelector()</text>
<text text-anchor="start" x="26.5" y="-152" font-family="Helvetica,sans-Serif" font-size="10.00">+</text>
<text text-anchor="start" x="39.5" y="-152" font-family="Helvetica,sans-Serif" font-size="10.00">begin()</text>
<text text-anchor="start" x="26.5" y="-137" font-family="Helvetica,sans-Serif" font-size="10.00">+</text>
<text text-anchor="start" x="39.5" y="-137" font-family="Helvetica,sans-Serif" font-size="10.00">update()</text>
<text text-anchor="start" x="26.5" y="-122" font-family="Helvetica,sans-Serif" font-size="10.00">+</text>
<text text-anchor="start" x="39.5" y="-122" font-family="Helvetica,sans-Serif" font-size="10.00">getButtonState()</text>
<text text-anchor="start" x="26.5" y="-107" font-family="Helvetica,sans-Serif" font-size="10.00">+</text>
<text text-anchor="start" x="39.5" y="-107" font-family="Helvetica,sans-Serif" font-size="10.00">invert()</text>
<polygon fill="#666666" stroke="#666666" points="22.5,-192 22.5,-192 178.5,-192 178.5,-192 22.5,-192"/>
<polygon fill="#666666" stroke="#666666" points="22.5,-177 22.5,-177 37.5,-177 37.5,-177 22.5,-177"/>
<polygon fill="#666666" stroke="#666666" points="37.5,-177 37.5,-177 178.5,-177 178.5,-177 37.5,-177"/>
<polygon fill="none" stroke="#666666" points="22.5,-100 22.5,-220 178.5,-220 178.5,-100 22.5,-100"/>
</a>
</g>
</g>
<!-- Node2&#45;&gt;Node1 -->
<g id="edge1_Node000001_Node000002" class="edge">
<title>Node2&#45;&gt;Node1</title>
<g id="a_edge1_Node000001_Node000002"><a xlink:title=" ">
<path fill="none" stroke="#63b8ff" d="M100.5,-89.63C100.5,-80.76 100.5,-72.05 100.5,-64.23"/>
<polygon fill="none" stroke="#63b8ff" points="97,-89.69 100.5,-99.69 104,-89.69 97,-89.69"/>
</a>
</g>
</g>
<!-- Node3 -->
<g id="Node000003" class="node">
<title>Node3</title>
<g id="a_Node000003"><a xlink:href="../../d0/d04/classGenericSelector.html" target="_top" xlink:title=" ">
<polygon fill="white" stroke="transparent" points="169.5,-586 31.5,-586 31.5,-256 169.5,-256 169.5,-586"/>
<text text-anchor="start" x="36.5" y="-574" font-family="Helvetica,sans-Serif" font-size="10.00">GenericSelector&lt; N,</text>
<text text-anchor="start" x="36.5" y="-563" font-family="Helvetica,sans-Serif" font-size="10.00"> EmptySelectorCallback &gt;</text>
<text text-anchor="start" x="43.5" y="-548" font-family="Helvetica,sans-Serif" font-size="10.00">+</text>
<text text-anchor="start" x="64.5" y="-548" font-family="Helvetica,sans-Serif" font-size="10.00">callback</text>
<text text-anchor="start" x="43.5" y="-533" font-family="Helvetica,sans-Serif" font-size="10.00">#</text>
<text text-anchor="start" x="64.5" y="-533" font-family="Helvetica,sans-Serif" font-size="10.00">setting</text>
<text text-anchor="start" x="43.5" y="-518" font-family="Helvetica,sans-Serif" font-size="10.00">#</text>
<text text-anchor="start" x="64.5" y="-518" font-family="Helvetica,sans-Serif" font-size="10.00">next</text>
<text text-anchor="start" x="43.5" y="-503" font-family="Helvetica,sans-Serif" font-size="10.00">#</text>
<text text-anchor="start" x="64.5" y="-503" font-family="Helvetica,sans-Serif" font-size="10.00">previous</text>
<text text-anchor="start" x="43.5" y="-488" font-family="Helvetica,sans-Serif" font-size="10.00">#</text>
<text text-anchor="start" x="64.5" y="-488" font-family="Helvetica,sans-Serif" font-size="10.00">updatables</text>
<text text-anchor="start" x="46" y="-473" font-family="Helvetica,sans-Serif" font-size="10.00">&#45;</text>
<text text-anchor="start" x="64.5" y="-473" font-family="Helvetica,sans-Serif" font-size="10.00">selectable</text>
<text text-anchor="start" x="43.5" y="-458" font-family="Helvetica,sans-Serif" font-size="10.00">+</text>
<text text-anchor="start" x="64.5" y="-458" font-family="Helvetica,sans-Serif" font-size="10.00">GenericSelector()</text>
<text text-anchor="start" x="43.5" y="-443" font-family="Helvetica,sans-Serif" font-size="10.00">+</text>
<text text-anchor="start" x="64.5" y="-443" font-family="Helvetica,sans-Serif" font-size="10.00">begin()</text>
<text text-anchor="start" x="43.5" y="-428" font-family="Helvetica,sans-Serif" font-size="10.00">+</text>
<text text-anchor="start" x="64.5" y="-428" font-family="Helvetica,sans-Serif" font-size="10.00">update()</text>
<text text-anchor="start" x="43.5" y="-413" font-family="Helvetica,sans-Serif" font-size="10.00">+</text>
<text text-anchor="start" x="64.5" y="-413" font-family="Helvetica,sans-Serif" font-size="10.00">reset()</text>
<text text-anchor="start" x="43.5" y="-398" font-family="Helvetica,sans-Serif" font-size="10.00">+</text>
<text text-anchor="start" x="64.5" y="-398" font-family="Helvetica,sans-Serif" font-size="10.00">set()</text>
<text text-anchor="start" x="43.5" y="-383" font-family="Helvetica,sans-Serif" font-size="10.00">+</text>
<text text-anchor="start" x="64.5" y="-383" font-family="Helvetica,sans-Serif" font-size="10.00">increment()</text>
<text text-anchor="start" x="43.5" y="-368" font-family="Helvetica,sans-Serif" font-size="10.00">+</text>
<text text-anchor="start" x="64.5" y="-368" font-family="Helvetica,sans-Serif" font-size="10.00">decrement()</text>
<text text-anchor="start" x="43.5" y="-353" font-family="Helvetica,sans-Serif" font-size="10.00">+</text>
<text text-anchor="start" x="64.5" y="-353" font-family="Helvetica,sans-Serif" font-size="10.00">get()</text>
<text text-anchor="start" x="45" y="-338" font-family="Helvetica,sans-Serif" font-size="10.00">*</text>
<text text-anchor="start" x="64.5" y="-338" font-family="Helvetica,sans-Serif" font-size="10.00">enable()</text>
<text text-anchor="start" x="45" y="-323" font-family="Helvetica,sans-Serif" font-size="10.00">*</text>
<text text-anchor="start" x="64.5" y="-323" font-family="Helvetica,sans-Serif" font-size="10.00">disable()</text>
<text text-anchor="start" x="45" y="-308" font-family="Helvetica,sans-Serif" font-size="10.00">*</text>
<text text-anchor="start" x="64.5" y="-308" font-family="Helvetica,sans-Serif" font-size="10.00">isEnabled()</text>
<text text-anchor="start" x="45" y="-293" font-family="Helvetica,sans-Serif" font-size="10.00">*</text>
<text text-anchor="start" x="64.5" y="-293" font-family="Helvetica,sans-Serif" font-size="10.00">moveDown()</text>
<text text-anchor="start" x="45" y="-278" font-family="Helvetica,sans-Serif" font-size="10.00">*</text>
<text text-anchor="start" x="64.5" y="-278" font-family="Helvetica,sans-Serif" font-size="10.00">beginAll()</text>
<text text-anchor="start" x="45" y="-263" font-family="Helvetica,sans-Serif" font-size="10.00">*</text>
<text text-anchor="start" x="64.5" y="-263" font-family="Helvetica,sans-Serif" font-size="10.00">updateAll()</text>
<polygon fill="#666666" stroke="#666666" points="31.5,-558 31.5,-558 169.5,-558 169.5,-558 31.5,-558"/>
<polygon fill="#666666" stroke="#666666" points="31.5,-468 31.5,-468 62.5,-468 62.5,-468 31.5,-468"/>
<polygon fill="#666666" stroke="#666666" points="62.5,-468 62.5,-468 169.5,-468 169.5,-468 62.5,-468"/>
<polygon fill="none" stroke="#666666" points="31.5,-256 31.5,-586 169.5,-586 169.5,-256 31.5,-256"/>
</a>
</g>
</g>
<!-- Node3&#45;&gt;Node2 -->
<g id="edge2_Node000002_Node000003" class="edge">
<title>Node3&#45;&gt;Node2</title>
<g id="a_edge2_Node000002_Node000003"><a xlink:title=" ">
<path fill="none" stroke="#63b8ff" d="M100.5,-245.79C100.5,-236.89 100.5,-228.31 100.5,-220.24"/>
<polygon fill="none" stroke="#63b8ff" points="97,-245.97 100.5,-255.97 104,-245.97 97,-245.97"/>
</a>
</g>
</g>
<!-- Node4 -->
<g id="Node000004" class="node">
<title>Node4</title>
<g id="a_Node000004"><a xlink:href="../../dc/d77/classSelectorBase.html" target="_top" xlink:title="Base class for all Selectors exposing the get method, so it can be used by display elements etc,...">
<polygon fill="white" stroke="transparent" points="93,-701 0,-701 0,-637 93,-637 93,-701"/>
<text text-anchor="start" x="15" y="-689" font-family="Helvetica,sans-Serif" font-size="10.00">SelectorBase</text>
<text text-anchor="start" x="4.5" y="-674" font-family="Helvetica,sans-Serif" font-size="10.00">#</text>
<text text-anchor="start" x="17.5" y="-674" font-family="Helvetica,sans-Serif" font-size="10.00">setting</text>
<text text-anchor="start" x="4.5" y="-659" font-family="Helvetica,sans-Serif" font-size="10.00">+</text>
<text text-anchor="start" x="17.5" y="-659" font-family="Helvetica,sans-Serif" font-size="10.00">get()</text>
<text text-anchor="start" x="4.5" y="-644" font-family="Helvetica,sans-Serif" font-size="10.00">#</text>
<text text-anchor="start" x="17.5" y="-644" font-family="Helvetica,sans-Serif" font-size="10.00">SelectorBase()</text>
<polygon fill="#666666" stroke="#666666" points="0.5,-684 0.5,-684 93.5,-684 93.5,-684 0.5,-684"/>
<polygon fill="#666666" stroke="#666666" points="0.5,-669 0.5,-669 15.5,-669 15.5,-669 0.5,-669"/>
<polygon fill="#666666" stroke="#666666" points="15.5,-669 15.5,-669 93.5,-669 93.5,-669 15.5,-669"/>
<polygon fill="none" stroke="#666666" points="0,-637 0,-701 93,-701 93,-637 0,-637"/>
</a>
</g>
</g>
<!-- Node4&#45;&gt;Node3 -->
<g id="edge3_Node000003_Node000004" class="edge">
<title>Node4&#45;&gt;Node3</title>
<g id="a_edge3_Node000003_Node000004"><a xlink:title=" ">
<path fill="none" stroke="#63b8ff" d="M55.54,-626.81C58.17,-614.81 61.23,-600.91 64.47,-586.12"/>
<polygon fill="none" stroke="#63b8ff" points="52.06,-626.33 53.34,-636.84 58.9,-627.83 52.06,-626.33"/>
</a>
</g>
</g>
<!-- Node5 -->
<g id="Node000005" class="node">
<title>Node5</title>
<g id="a_Node000005"><a xlink:href="../../d1/d55/classAH_1_1Updatable.html" target="_top" xlink:title="A super class for object that have to be updated regularly.">
<polygon fill="white" stroke="transparent" points="200,-716 111,-716 111,-622 200,-622 200,-716"/>
<text text-anchor="start" x="116.5" y="-704" font-family="Helvetica,sans-Serif" font-size="10.00">Updatable&lt; T &gt;</text>
<text text-anchor="start" x="154" y="-689" font-family="Helvetica,sans-Serif" font-size="10.00"> </text>
<text text-anchor="start" x="119.5" y="-674" font-family="Helvetica,sans-Serif" font-size="10.00">*</text>
<text text-anchor="start" x="133.5" y="-674" font-family="Helvetica,sans-Serif" font-size="10.00">begin()</text>
<text text-anchor="start" x="119.5" y="-659" font-family="Helvetica,sans-Serif" font-size="10.00">*</text>
<text text-anchor="start" x="133.5" y="-659" font-family="Helvetica,sans-Serif" font-size="10.00">update()</text>
<text text-anchor="start" x="119.5" y="-644" font-family="Helvetica,sans-Serif" font-size="10.00">*</text>
<text text-anchor="start" x="133.5" y="-644" font-family="Helvetica,sans-Serif" font-size="10.00">beginAll()</text>
<text text-anchor="start" x="119.5" y="-629" font-family="Helvetica,sans-Serif" font-size="10.00">*</text>
<text text-anchor="start" x="133.5" y="-629" font-family="Helvetica,sans-Serif" font-size="10.00">updateAll()</text>
<polygon fill="#666666" stroke="#666666" points="111.5,-699 111.5,-699 200.5,-699 200.5,-699 111.5,-699"/>
<polygon fill="#666666" stroke="#666666" points="111.5,-684 111.5,-684 200.5,-684 200.5,-684 111.5,-684"/>
<polygon fill="none" stroke="#666666" points="111,-622 111,-716 200,-716 200,-622 111,-622"/>
</a>
</g>
</g>
<!-- Node5&#45;&gt;Node3 -->
<g id="edge4_Node000003_Node000005" class="edge">
<title>Node5&#45;&gt;Node3</title>
<g id="a_edge4_Node000003_Node000005"><a xlink:title=" ">
<path fill="none" stroke="#63b8ff" d="M142.95,-611.86C141.15,-603.82 139.23,-595.24 137.24,-586.33"/>
<polygon fill="none" stroke="#63b8ff" points="139.56,-612.73 145.15,-621.73 146.39,-611.21 139.56,-612.73"/>
</a>
</g>
</g>
<!-- Node6 -->
<g id="Node000006" class="node">
<title>Node6</title>
<g id="a_Node000006"><a xlink:href="../../d8/d1a/classAH_1_1UpdatableCRTP.html" target="_top" xlink:title=" ">
<polygon fill="white" stroke="transparent" points="229,-932 82,-932 82,-752 229,-752 229,-932"/>
<text text-anchor="start" x="87.5" y="-920" font-family="Helvetica,sans-Serif" font-size="10.00">UpdatableCRTP&lt; Updatable</text>
<text text-anchor="start" x="95.5" y="-909" font-family="Helvetica,sans-Serif" font-size="10.00">&lt; NormalUpdatable &gt; &gt;</text>
<text text-anchor="start" x="95" y="-894" font-family="Helvetica,sans-Serif" font-size="10.00">#</text>
<text text-anchor="start" x="116.5" y="-894" font-family="Helvetica,sans-Serif" font-size="10.00">next</text>
<text text-anchor="start" x="95" y="-879" font-family="Helvetica,sans-Serif" font-size="10.00">#</text>
<text text-anchor="start" x="116.5" y="-879" font-family="Helvetica,sans-Serif" font-size="10.00">previous</text>
<text text-anchor="start" x="95" y="-864" font-family="Helvetica,sans-Serif" font-size="10.00">#</text>
<text text-anchor="start" x="116.5" y="-864" font-family="Helvetica,sans-Serif" font-size="10.00">updatables</text>
<text text-anchor="start" x="95" y="-849" font-family="Helvetica,sans-Serif" font-size="10.00">+</text>
<text text-anchor="start" x="116.5" y="-849" font-family="Helvetica,sans-Serif" font-size="10.00">~UpdatableCRTP()</text>
<text text-anchor="start" x="95" y="-834" font-family="Helvetica,sans-Serif" font-size="10.00">#</text>
<text text-anchor="start" x="116.5" y="-834" font-family="Helvetica,sans-Serif" font-size="10.00">UpdatableCRTP()</text>
<text text-anchor="start" x="95" y="-819" font-family="Helvetica,sans-Serif" font-size="10.00">#</text>
<text text-anchor="start" x="116.5" y="-819" font-family="Helvetica,sans-Serif" font-size="10.00">operator=()</text>
<text text-anchor="start" x="96.5" y="-804" font-family="Helvetica,sans-Serif" font-size="10.00">*</text>
<text text-anchor="start" x="116.5" y="-804" font-family="Helvetica,sans-Serif" font-size="10.00">enable()</text>
<text text-anchor="start" x="96.5" y="-789" font-family="Helvetica,sans-Serif" font-size="10.00">*</text>
<text text-anchor="start" x="116.5" y="-789" font-family="Helvetica,sans-Serif" font-size="10.00">disable()</text>
<text text-anchor="start" x="96.5" y="-774" font-family="Helvetica,sans-Serif" font-size="10.00">*</text>
<text text-anchor="start" x="116.5" y="-774" font-family="Helvetica,sans-Serif" font-size="10.00">isEnabled()</text>
<text text-anchor="start" x="96.5" y="-759" font-family="Helvetica,sans-Serif" font-size="10.00">*</text>
<text text-anchor="start" x="116.5" y="-759" font-family="Helvetica,sans-Serif" font-size="10.00">moveDown()</text>
<polygon fill="#666666" stroke="#666666" points="82.5,-904 82.5,-904 229.5,-904 229.5,-904 82.5,-904"/>
<polygon fill="#666666" stroke="#666666" points="82.5,-859 82.5,-859 114.5,-859 114.5,-859 82.5,-859"/>
<polygon fill="#666666" stroke="#666666" points="114.5,-859 114.5,-859 229.5,-859 229.5,-859 114.5,-859"/>
<polygon fill="none" stroke="#666666" points="82,-752 82,-932 229,-932 229,-752 82,-752"/>
</a>
</g>
</g>
<!-- Node6&#45;&gt;Node5 -->
<g id="edge5_Node000005_Node000006" class="edge">
<title>Node6&#45;&gt;Node5</title>
<g id="a_edge5_Node000005_Node000006"><a xlink:title=" ">
<path fill="none" stroke="#63b8ff" d="M155.5,-741.92C155.5,-733.05 155.5,-724.38 155.5,-716.31"/>
<polygon fill="none" stroke="#63b8ff" points="152,-741.99 155.5,-751.99 159,-741.99 152,-741.99"/>
</a>
</g>
</g>
<!-- Node7 -->
<g id="Node000007" class="node">
<title>Node7</title>
<g id="a_Node000007"><a xlink:href="../../d4/d23/classDoublyLinkable.html" target="_top" xlink:title=" ">
<polygon fill="white" stroke="transparent" points="229,-1073 82,-1073 82,-968 229,-968 229,-1073"/>
<text text-anchor="start" x="87.5" y="-1060.5" font-family="Helvetica,sans-Serif" font-size="10.00">DoublyLinkable&lt; Updatable</text>
<text text-anchor="start" x="95.5" y="-1049.5" font-family="Helvetica,sans-Serif" font-size="10.00">&lt; NormalUpdatable &gt; &gt;</text>
<text text-anchor="start" x="95" y="-1034.5" font-family="Helvetica,sans-Serif" font-size="10.00">#</text>
<text text-anchor="start" x="116.5" y="-1034.5" font-family="Helvetica,sans-Serif" font-size="10.00">next</text>
<text text-anchor="start" x="95" y="-1019.5" font-family="Helvetica,sans-Serif" font-size="10.00">#</text>
<text text-anchor="start" x="116.5" y="-1019.5" font-family="Helvetica,sans-Serif" font-size="10.00">previous</text>
<text text-anchor="start" x="95" y="-1004.5" font-family="Helvetica,sans-Serif" font-size="10.00">#</text>
<text text-anchor="start" x="116.5" y="-1004.5" font-family="Helvetica,sans-Serif" font-size="10.00">~DoublyLinkable()</text>
<text text-anchor="start" x="95" y="-989.5" font-family="Helvetica,sans-Serif" font-size="10.00">#</text>
<text text-anchor="start" x="116.5" y="-989.5" font-family="Helvetica,sans-Serif" font-size="10.00">DoublyLinkable()</text>
<text text-anchor="start" x="95" y="-974.5" font-family="Helvetica,sans-Serif" font-size="10.00">#</text>
<text text-anchor="start" x="116.5" y="-974.5" font-family="Helvetica,sans-Serif" font-size="10.00">operator=()</text>
<polygon fill="#666666" stroke="#666666" points="82.5,-1044.5 82.5,-1044.5 229.5,-1044.5 229.5,-1044.5 82.5,-1044.5"/>
<polygon fill="#666666" stroke="#666666" points="82.5,-1014.5 82.5,-1014.5 114.5,-1014.5 114.5,-1014.5 82.5,-1014.5"/>
<polygon fill="#666666" stroke="#666666" points="114.5,-1014.5 114.5,-1014.5 229.5,-1014.5 229.5,-1014.5 114.5,-1014.5"/>
<polygon fill="none" stroke="#666666" points="82,-968 82,-1073 229,-1073 229,-968 82,-968"/>
</a>
</g>
</g>
<!-- Node7&#45;&gt;Node6 -->
<g id="edge6_Node000006_Node000007" class="edge">
<title>Node7&#45;&gt;Node6</title>
<g id="a_edge6_Node000006_Node000007"><a xlink:title=" ">
<path fill="none" stroke="#63b8ff" d="M155.5,-957.96C155.5,-949.58 155.5,-940.86 155.5,-932.12"/>
<polygon fill="none" stroke="#63b8ff" points="152,-957.97 155.5,-967.97 159,-957.97 152,-957.97"/>
</a>
</g>
</g>
</g>
</svg>
