<?xml version="1.0" encoding="UTF-8" standalone="no"?>
<!DOCTYPE svg PUBLIC "-//W3C//DTD SVG 1.1//EN"
 "http://www.w3.org/Graphics/SVG/1.1/DTD/svg11.dtd">
<!-- Generated by graphviz version 2.43.0 (0)
 -->
<!-- Title: BulkRX.hpp Pages: 1 -->
<svg width="342pt" height="148pt"
 viewBox="0.00 0.00 342.00 148.00" xmlns="http://www.w3.org/2000/svg" xmlns:xlink="http://www.w3.org/1999/xlink">
<g id="graph0" class="graph" transform="scale(1 1) rotate(0) translate(4 144)">
<title>BulkRX.hpp</title>
<!-- Node1 -->
<g id="Node000001" class="node">
<title>Node1</title>
<g id="a_Node000001"><a xlink:title=" ">
<polygon fill="#999999" stroke="#666666" points="223.5,-140 150.5,-140 150.5,-121 223.5,-121 223.5,-140"/>
<text text-anchor="middle" x="187" y="-128" font-family="Helvetica,sans-Serif" font-size="10.00">BulkRX.hpp</text>
</a>
</g>
</g>
<!-- Node2 -->
<g id="Node000002" class="node">
<title>Node2</title>
<g id="a_Node000002"><a xlink:title=" ">
<polygon fill="#e0e0e0" stroke="#999999" points="50,-79.5 0,-79.5 0,-60.5 50,-60.5 50,-79.5"/>
<text text-anchor="middle" x="25" y="-67.5" font-family="Helvetica,sans-Serif" font-size="10.00">cstdint</text>
</a>
</g>
</g>
<!-- Node1&#45;&gt;Node2 -->
<g id="edge1_Node000001_Node000002" class="edge">
<title>Node1&#45;&gt;Node2</title>
<g id="a_edge1_Node000001_Node000002"><a xlink:title=" ">
<path fill="none" stroke="#63b8ff" d="M160.86,-120.89C134.88,-112.22 93.98,-98.27 59,-85 57.62,-84.48 56.21,-83.93 54.79,-83.38"/>
<polygon fill="#63b8ff" stroke="#63b8ff" points="56.01,-80.09 45.42,-79.63 53.4,-86.59 56.01,-80.09"/>
</a>
</g>
</g>
<!-- Node3 -->
<g id="Node000003" class="node">
<title>Node3</title>
<g id="a_Node000003"><a xlink:href="../../df/d81/Atomic_8hpp.html" target="_top" xlink:title=" ">
<polygon fill="white" stroke="#666666" points="207.5,-85 68.5,-85 68.5,-55 207.5,-55 207.5,-85"/>
<text text-anchor="start" x="76.5" y="-73" font-family="Helvetica,sans-Serif" font-size="10.00">MIDI_Interfaces/USBMIDI</text>
<text text-anchor="middle" x="138" y="-62" font-family="Helvetica,sans-Serif" font-size="10.00">/util/Atomic.hpp</text>
</a>
</g>
</g>
<!-- Node1&#45;&gt;Node3 -->
<g id="edge2_Node000001_Node000003" class="edge">
<title>Node1&#45;&gt;Node3</title>
<g id="a_edge2_Node000001_Node000003"><a xlink:title=" ">
<path fill="none" stroke="#63b8ff" d="M179.77,-120.87C173.61,-113.52 164.5,-102.63 156.35,-92.91"/>
<polygon fill="#63b8ff" stroke="#63b8ff" points="158.93,-90.53 149.82,-85.11 153.56,-95.03 158.93,-90.53"/>
</a>
</g>
</g>
<!-- Node5 -->
<g id="Node000005" class="node">
<title>Node5</title>
<g id="a_Node000005"><a xlink:title=" ">
<polygon fill="#e0e0e0" stroke="#999999" points="325,-19 147,-19 147,0 325,0 325,-19"/>
<text text-anchor="middle" x="236" y="-7" font-family="Helvetica,sans-Serif" font-size="10.00">Settings/NamespaceSettings.hpp</text>
</a>
</g>
</g>
<!-- Node1&#45;&gt;Node5 -->
<g id="edge5_Node000001_Node000005" class="edge">
<title>Node1&#45;&gt;Node5</title>
<g id="a_edge5_Node000001_Node000005"><a xlink:title=" ">
<path fill="none" stroke="#63b8ff" d="M194.18,-120.83C200.96,-112.24 210.98,-98.43 217,-85 225.17,-66.77 230.28,-44.39 233.12,-28.95"/>
<polygon fill="#63b8ff" stroke="#63b8ff" points="236.57,-29.53 234.79,-19.08 229.67,-28.36 236.57,-29.53"/>
</a>
</g>
</g>
<!-- Node6 -->
<g id="Node000006" class="node">
<title>Node6</title>
<g id="a_Node000006"><a xlink:title=" ">
<polygon fill="#e0e0e0" stroke="#999999" points="334,-79.5 264,-79.5 264,-60.5 334,-60.5 334,-79.5"/>
<text text-anchor="middle" x="299" y="-67.5" font-family="Helvetica,sans-Serif" font-size="10.00">BulkRX.ipp</text>
</a>
</g>
</g>
<!-- Node1&#45;&gt;Node6 -->
<g id="edge6_Node000001_Node000006" class="edge">
<title>Node1&#45;&gt;Node6</title>
<g id="a_edge6_Node000001_Node000006"><a xlink:title=" ">
<path fill="none" stroke="#63b8ff" d="M203.53,-120.87C221.97,-111.23 252.04,-95.53 273.51,-84.31"/>
<polygon fill="#63b8ff" stroke="#63b8ff" points="275.16,-87.4 282.41,-79.67 271.92,-81.19 275.16,-87.4"/>
</a>
</g>
</g>
<!-- Node4 -->
<g id="Node000004" class="node">
<title>Node4</title>
<g id="a_Node000004"><a xlink:title=" ">
<polygon fill="#e0e0e0" stroke="#999999" points="129,-19 79,-19 79,0 129,0 129,-19"/>
<text text-anchor="middle" x="104" y="-7" font-family="Helvetica,sans-Serif" font-size="10.00">atomic</text>
</a>
</g>
</g>
<!-- Node3&#45;&gt;Node4 -->
<g id="edge3_Node000003_Node000004" class="edge">
<title>Node3&#45;&gt;Node4</title>
<g id="a_edge3_Node000003_Node000004"><a xlink:title=" ">
<path fill="none" stroke="#63b8ff" d="M129.77,-54.84C125.09,-46.78 119.18,-36.62 114.2,-28.06"/>
<polygon fill="#63b8ff" stroke="#63b8ff" points="117.15,-26.15 109.09,-19.27 111.09,-29.67 117.15,-26.15"/>
</a>
</g>
</g>
<!-- Node3&#45;&gt;Node5 -->
<g id="edge4_Node000003_Node000005" class="edge">
<title>Node3&#45;&gt;Node5</title>
<g id="a_edge4_Node000003_Node000005"><a xlink:title=" ">
<path fill="none" stroke="#63b8ff" d="M161.72,-54.84C177.2,-45.6 197.32,-33.59 212.71,-24.4"/>
<polygon fill="#63b8ff" stroke="#63b8ff" points="214.81,-27.23 221.6,-19.09 211.22,-21.21 214.81,-27.23"/>
</a>
</g>
</g>
</g>
</svg>
