<?xml version="1.0" encoding="UTF-8" standalone="no"?>
<!DOCTYPE svg PUBLIC "-//W3C//DTD SVG 1.1//EN"
 "http://www.w3.org/Graphics/SVG/1.1/DTD/svg11.dtd">
<!-- Generated by graphviz version 2.43.0 (0)
 -->
<!-- Title: CachedExtIOPin Pages: 1 -->
<svg width="505pt" height="1195pt"
 viewBox="0.00 0.00 505.47 1195.00" xmlns="http://www.w3.org/2000/svg" xmlns:xlink="http://www.w3.org/1999/xlink">
<g id="graph0" class="graph" transform="scale(1 1) rotate(0) translate(4 1191)">
<title>CachedExtIOPin</title>
<polygon fill="white" stroke="transparent" points="-4,4 -4,-1191 501.47,-1191 501.47,4 -4,4"/>
<!-- Node1 -->
<g id="node1" class="node">
<title>Node1</title>
<g id="a_node1"><a xlink:title=" ">
<polygon fill="#bfbfbf" stroke="black" points="0,-391.5 0,-448.5 113,-448.5 113,-391.5 0,-391.5"/>
<text text-anchor="middle" x="56.5" y="-436.5" font-family="Helvetica,sans-Serif" font-size="10.00">CachedExtIOPin</text>
<polyline fill="none" stroke="black" points="0,-429.5 113,-429.5 "/>
<text text-anchor="middle" x="56.5" y="-417.5" font-family="Helvetica,sans-Serif" font-size="10.00"> </text>
<polyline fill="none" stroke="black" points="0,-410.5 113,-410.5 "/>
<text text-anchor="start" x="8" y="-398.5" font-family="Helvetica,sans-Serif" font-size="10.00">+ CachedExtIOPin()</text>
</a>
</g>
</g>
<!-- Node2 -->
<g id="node2" class="node">
<title>Node2</title>
<g id="a_node2"><a xlink:href="../../d2/dda/classAH_1_1ExtendedIOElement.html" target="_top" xlink:title="An abstract base class for Extended Input/Output elements.">
<polygon fill="white" stroke="black" points="142,-628.5 142,-971.5 303,-971.5 303,-628.5 142,-628.5"/>
<text text-anchor="middle" x="222.5" y="-959.5" font-family="Helvetica,sans-Serif" font-size="10.00">ExtendedIOElement</text>
<polyline fill="none" stroke="black" points="142,-952.5 303,-952.5 "/>
<text text-anchor="middle" x="222.5" y="-940.5" font-family="Helvetica,sans-Serif" font-size="10.00"> </text>
<polyline fill="none" stroke="black" points="142,-933.5 303,-933.5 "/>
<text text-anchor="start" x="150" y="-921.5" font-family="Helvetica,sans-Serif" font-size="10.00">+ pinMode()</text>
<text text-anchor="start" x="150" y="-910.5" font-family="Helvetica,sans-Serif" font-size="10.00">+ pinModeBuffered()</text>
<text text-anchor="start" x="150" y="-899.5" font-family="Helvetica,sans-Serif" font-size="10.00">+ digitalWrite()</text>
<text text-anchor="start" x="150" y="-888.5" font-family="Helvetica,sans-Serif" font-size="10.00">+ digitalWriteBuffered()</text>
<text text-anchor="start" x="150" y="-877.5" font-family="Helvetica,sans-Serif" font-size="10.00">+ digitalRead()</text>
<text text-anchor="start" x="150" y="-866.5" font-family="Helvetica,sans-Serif" font-size="10.00">+ digitalReadBuffered()</text>
<text text-anchor="start" x="150" y="-855.5" font-family="Helvetica,sans-Serif" font-size="10.00">+ analogWrite()</text>
<text text-anchor="start" x="150" y="-844.5" font-family="Helvetica,sans-Serif" font-size="10.00">+ analogWriteBuffered()</text>
<text text-anchor="start" x="150" y="-833.5" font-family="Helvetica,sans-Serif" font-size="10.00">+ analogRead()</text>
<text text-anchor="start" x="150" y="-822.5" font-family="Helvetica,sans-Serif" font-size="10.00">+ analogReadBuffered()</text>
<text text-anchor="start" x="150" y="-811.5" font-family="Helvetica,sans-Serif" font-size="10.00">+ begin()</text>
<text text-anchor="start" x="150" y="-800.5" font-family="Helvetica,sans-Serif" font-size="10.00">+ updateBufferedOutputs()</text>
<text text-anchor="start" x="150" y="-789.5" font-family="Helvetica,sans-Serif" font-size="10.00">+ updateBufferedInputs()</text>
<text text-anchor="start" x="150" y="-778.5" font-family="Helvetica,sans-Serif" font-size="10.00">+ pin()</text>
<text text-anchor="start" x="150" y="-767.5" font-family="Helvetica,sans-Serif" font-size="10.00">+ operator[]()</text>
<text text-anchor="start" x="150" y="-756.5" font-family="Helvetica,sans-Serif" font-size="10.00">+ getLength()</text>
<text text-anchor="start" x="150" y="-745.5" font-family="Helvetica,sans-Serif" font-size="10.00">+ getEnd()</text>
<text text-anchor="start" x="150" y="-734.5" font-family="Helvetica,sans-Serif" font-size="10.00">+ getStart()</text>
<text text-anchor="start" x="150" y="-723.5" font-family="Helvetica,sans-Serif" font-size="10.00">+ beginAll()</text>
<text text-anchor="start" x="150" y="-712.5" font-family="Helvetica,sans-Serif" font-size="10.00">+ updateAllBufferedOutputs()</text>
<text text-anchor="start" x="150" y="-701.5" font-family="Helvetica,sans-Serif" font-size="10.00">+ updateAllBufferedInputs()</text>
<text text-anchor="start" x="150" y="-690.5" font-family="Helvetica,sans-Serif" font-size="10.00">+ getAll()</text>
<text text-anchor="start" x="150" y="-679.5" font-family="Helvetica,sans-Serif" font-size="10.00"># ExtendedIOElement()</text>
<text text-anchor="start" x="150" y="-668.5" font-family="Helvetica,sans-Serif" font-size="10.00"># ExtendedIOElement()</text>
<text text-anchor="start" x="150" y="-657.5" font-family="Helvetica,sans-Serif" font-size="10.00"># operator=()</text>
<text text-anchor="start" x="150" y="-646.5" font-family="Helvetica,sans-Serif" font-size="10.00"># ExtendedIOElement()</text>
<text text-anchor="start" x="150" y="-635.5" font-family="Helvetica,sans-Serif" font-size="10.00"># operator=()</text>
</a>
</g>
</g>
<!-- Node2&#45;&gt;Node1 -->
<g id="edge1" class="edge">
<title>Node2&#45;&gt;Node1</title>
<path fill="none" stroke="#404040" d="M147.51,-628.25C119.91,-565.39 91.11,-499.81 73.49,-459.68"/>
<polygon fill="none" stroke="#404040" points="73.43,-459.55 67.36,-455.67 68.61,-448.57 74.68,-452.45 73.43,-459.55"/>
<text text-anchor="middle" x="165.5" y="-596.5" font-family="Helvetica,sans-Serif" font-size="10.00"> +element</text>
</g>
<!-- Node4 -->
<g id="node4" class="node">
<title>Node4</title>
<g id="a_node4"><a xlink:href="../../d4/d23/classDoublyLinkable.html" target="_top" xlink:title=" ">
<polygon fill="white" stroke="black" points="131,-358.5 131,-481.5 280,-481.5 280,-358.5 131,-358.5"/>
<text text-anchor="start" x="139" y="-469.5" font-family="Helvetica,sans-Serif" font-size="10.00">DoublyLinkable&lt; Extended</text>
<text text-anchor="middle" x="205.5" y="-458.5" font-family="Helvetica,sans-Serif" font-size="10.00">IOElement &gt;</text>
<polyline fill="none" stroke="black" points="131,-451.5 280,-451.5 "/>
<text text-anchor="middle" x="205.5" y="-439.5" font-family="Helvetica,sans-Serif" font-size="10.00"> </text>
<polyline fill="none" stroke="black" points="131,-432.5 280,-432.5 "/>
<text text-anchor="start" x="139" y="-420.5" font-family="Helvetica,sans-Serif" font-size="10.00"># ~DoublyLinkable()</text>
<text text-anchor="start" x="139" y="-409.5" font-family="Helvetica,sans-Serif" font-size="10.00"># DoublyLinkable()</text>
<text text-anchor="start" x="139" y="-398.5" font-family="Helvetica,sans-Serif" font-size="10.00"># DoublyLinkable()</text>
<text text-anchor="start" x="139" y="-387.5" font-family="Helvetica,sans-Serif" font-size="10.00"># DoublyLinkable()</text>
<text text-anchor="start" x="139" y="-376.5" font-family="Helvetica,sans-Serif" font-size="10.00"># operator=()</text>
<text text-anchor="start" x="139" y="-365.5" font-family="Helvetica,sans-Serif" font-size="10.00"># operator=()</text>
</a>
</g>
</g>
<!-- Node2&#45;&gt;Node4 -->
<g id="edge4" class="edge">
<title>Node2&#45;&gt;Node4</title>
<path fill="none" stroke="#404040" d="M214.82,-628.25C212.69,-580.93 210.5,-532.08 208.77,-493.7"/>
<polygon fill="none" stroke="#404040" points="208.77,-493.61 204.5,-487.79 208.23,-481.62 212.49,-487.43 208.77,-493.61"/>
<text text-anchor="middle" x="239" y="-602" font-family="Helvetica,sans-Serif" font-size="10.00"> #next</text>
<text text-anchor="middle" x="239" y="-591" font-family="Helvetica,sans-Serif" font-size="10.00">#previous</text>
</g>
<!-- Node5 -->
<g id="node5" class="node">
<title>Node5</title>
<g id="a_node5"><a xlink:href="../../dd/d16/classDoublyLinkedList.html" target="_top" xlink:title=" ">
<polygon fill="white" stroke="black" points="298,-270.5 298,-569.5 455,-569.5 455,-270.5 298,-270.5"/>
<text text-anchor="start" x="306" y="-557.5" font-family="Helvetica,sans-Serif" font-size="10.00">DoublyLinkedList&lt; Extended</text>
<text text-anchor="middle" x="376.5" y="-546.5" font-family="Helvetica,sans-Serif" font-size="10.00">IOElement &gt;</text>
<polyline fill="none" stroke="black" points="298,-539.5 455,-539.5 "/>
<text text-anchor="middle" x="376.5" y="-527.5" font-family="Helvetica,sans-Serif" font-size="10.00"> </text>
<polyline fill="none" stroke="black" points="298,-520.5 455,-520.5 "/>
<text text-anchor="start" x="306" y="-508.5" font-family="Helvetica,sans-Serif" font-size="10.00">+ append()</text>
<text text-anchor="start" x="306" y="-497.5" font-family="Helvetica,sans-Serif" font-size="10.00">+ append()</text>
<text text-anchor="start" x="306" y="-486.5" font-family="Helvetica,sans-Serif" font-size="10.00">+ insertBefore()</text>
<text text-anchor="start" x="306" y="-475.5" font-family="Helvetica,sans-Serif" font-size="10.00">+ insertBefore()</text>
<text text-anchor="start" x="306" y="-464.5" font-family="Helvetica,sans-Serif" font-size="10.00">+ insertSorted()</text>
<text text-anchor="start" x="306" y="-453.5" font-family="Helvetica,sans-Serif" font-size="10.00">+ insertSorted()</text>
<text text-anchor="start" x="306" y="-442.5" font-family="Helvetica,sans-Serif" font-size="10.00">+ remove()</text>
<text text-anchor="start" x="306" y="-431.5" font-family="Helvetica,sans-Serif" font-size="10.00">+ remove()</text>
<text text-anchor="start" x="306" y="-420.5" font-family="Helvetica,sans-Serif" font-size="10.00">+ moveDown()</text>
<text text-anchor="start" x="306" y="-409.5" font-family="Helvetica,sans-Serif" font-size="10.00">+ moveDown()</text>
<text text-anchor="start" x="306" y="-398.5" font-family="Helvetica,sans-Serif" font-size="10.00">+ couldContain()</text>
<text text-anchor="start" x="306" y="-387.5" font-family="Helvetica,sans-Serif" font-size="10.00">+ couldContain()</text>
<text text-anchor="start" x="306" y="-376.5" font-family="Helvetica,sans-Serif" font-size="10.00">+ begin()</text>
<text text-anchor="start" x="306" y="-365.5" font-family="Helvetica,sans-Serif" font-size="10.00">+ begin()</text>
<text text-anchor="start" x="306" y="-354.5" font-family="Helvetica,sans-Serif" font-size="10.00">+ end()</text>
<text text-anchor="start" x="306" y="-343.5" font-family="Helvetica,sans-Serif" font-size="10.00">+ end()</text>
<text text-anchor="start" x="306" y="-332.5" font-family="Helvetica,sans-Serif" font-size="10.00">+ rbegin()</text>
<text text-anchor="start" x="306" y="-321.5" font-family="Helvetica,sans-Serif" font-size="10.00">+ rbegin()</text>
<text text-anchor="start" x="306" y="-310.5" font-family="Helvetica,sans-Serif" font-size="10.00">+ rend()</text>
<text text-anchor="start" x="306" y="-299.5" font-family="Helvetica,sans-Serif" font-size="10.00">+ rend()</text>
<text text-anchor="start" x="306" y="-288.5" font-family="Helvetica,sans-Serif" font-size="10.00">+ getFirst()</text>
<text text-anchor="start" x="306" y="-277.5" font-family="Helvetica,sans-Serif" font-size="10.00">+ getLast()</text>
</a>
</g>
</g>
<!-- Node2&#45;&gt;Node5 -->
<g id="edge6" class="edge">
<title>Node2&#45;&gt;Node5</title>
<path fill="none" stroke="#404040" d="M292.07,-628.25C298.48,-612.5 304.96,-596.59 311.34,-580.95"/>
<polygon fill="none" stroke="#404040" points="311.43,-580.72 309.99,-573.66 315.95,-569.61 317.4,-576.68 311.43,-580.72"/>
<text text-anchor="middle" x="316.5" y="-602" font-family="Helvetica,sans-Serif" font-size="10.00"> &#45;first</text>
<text text-anchor="middle" x="316.5" y="-591" font-family="Helvetica,sans-Serif" font-size="10.00">&#45;last</text>
</g>
<!-- Node3 -->
<g id="node3" class="node">
<title>Node3</title>
<g id="a_node3"><a xlink:href="../../d8/d1a/classAH_1_1UpdatableCRTP.html" target="_top" xlink:title=" ">
<polygon fill="white" stroke="black" points="271,-0.5 271,-222.5 482,-222.5 482,-0.5 271,-0.5"/>
<text text-anchor="middle" x="376.5" y="-210.5" font-family="Helvetica,sans-Serif" font-size="10.00">UpdatableCRTP&lt; ExtendedIOElement &gt;</text>
<polyline fill="none" stroke="black" points="271,-203.5 482,-203.5 "/>
<text text-anchor="middle" x="376.5" y="-191.5" font-family="Helvetica,sans-Serif" font-size="10.00"> </text>
<polyline fill="none" stroke="black" points="271,-184.5 482,-184.5 "/>
<text text-anchor="start" x="279" y="-172.5" font-family="Helvetica,sans-Serif" font-size="10.00">+ ~UpdatableCRTP()</text>
<text text-anchor="start" x="279" y="-161.5" font-family="Helvetica,sans-Serif" font-size="10.00"># UpdatableCRTP()</text>
<text text-anchor="start" x="279" y="-150.5" font-family="Helvetica,sans-Serif" font-size="10.00"># UpdatableCRTP()</text>
<text text-anchor="start" x="279" y="-139.5" font-family="Helvetica,sans-Serif" font-size="10.00"># UpdatableCRTP()</text>
<text text-anchor="start" x="279" y="-128.5" font-family="Helvetica,sans-Serif" font-size="10.00"># operator=()</text>
<text text-anchor="start" x="279" y="-117.5" font-family="Helvetica,sans-Serif" font-size="10.00"># operator=()</text>
<text text-anchor="start" x="279" y="-106.5" font-family="Helvetica,sans-Serif" font-size="10.00">* enable()</text>
<text text-anchor="start" x="279" y="-95.5" font-family="Helvetica,sans-Serif" font-size="10.00">* disable()</text>
<text text-anchor="start" x="279" y="-84.5" font-family="Helvetica,sans-Serif" font-size="10.00">* isEnabled()</text>
<text text-anchor="start" x="279" y="-73.5" font-family="Helvetica,sans-Serif" font-size="10.00">* moveDown()</text>
<text text-anchor="start" x="279" y="-62.5" font-family="Helvetica,sans-Serif" font-size="10.00">* enable()</text>
<text text-anchor="start" x="279" y="-51.5" font-family="Helvetica,sans-Serif" font-size="10.00">* enable()</text>
<text text-anchor="start" x="279" y="-40.5" font-family="Helvetica,sans-Serif" font-size="10.00">* enable()</text>
<text text-anchor="start" x="279" y="-29.5" font-family="Helvetica,sans-Serif" font-size="10.00">* disable()</text>
<text text-anchor="start" x="279" y="-18.5" font-family="Helvetica,sans-Serif" font-size="10.00">* disable()</text>
<text text-anchor="start" x="279" y="-7.5" font-family="Helvetica,sans-Serif" font-size="10.00">* disable()</text>
</a>
</g>
</g>
<!-- Node3&#45;&gt;Node2 -->
<g id="edge2" class="edge">
<title>Node3&#45;&gt;Node2</title>
<path fill="none" stroke="midnightblue" d="M451.28,-232.13C456.62,-244.58 461.2,-257.32 464.5,-270 498.1,-399.03 517.22,-447.53 464.5,-570 431.8,-645.97 360.12,-708.53 303.21,-748.94"/>
<polygon fill="none" stroke="midnightblue" points="454.33,-230.38 447.06,-222.68 447.94,-233.24 454.33,-230.38"/>
</g>
<!-- Node4&#45;&gt;Node3 -->
<g id="edge3" class="edge">
<title>Node4&#45;&gt;Node3</title>
<path fill="none" stroke="midnightblue" d="M244.21,-349.62C265.13,-312.12 291.45,-264.94 315.1,-222.55"/>
<polygon fill="none" stroke="midnightblue" points="241.1,-348.01 239.28,-358.45 247.21,-351.42 241.1,-348.01"/>
</g>
<!-- Node5&#45;&gt;Node3 -->
<g id="edge5" class="edge">
<title>Node5&#45;&gt;Node3</title>
<path fill="none" stroke="#404040" d="M376.5,-270.24C376.5,-258.35 376.5,-246.43 376.5,-234.76"/>
<polygon fill="none" stroke="#404040" points="376.5,-234.7 372.5,-228.7 376.5,-222.7 380.5,-228.7 376.5,-234.7"/>
<text text-anchor="middle" x="409.5" y="-244" font-family="Helvetica,sans-Serif" font-size="10.00"> #updatables</text>
</g>
<!-- Node6 -->
<g id="node6" class="node">
<title>Node6</title>
<g id="a_node6"><a xlink:href="../../d7/de2/structAH_1_1ExtIO_1_1pin__t.html" target="_top" xlink:title="Type for storing pin numbers of Extended Input/Output elements.">
<polygon fill="white" stroke="black" points="26,-1052.5 26,-1186.5 119,-1186.5 119,-1052.5 26,-1052.5"/>
<text text-anchor="middle" x="72.5" y="-1174.5" font-family="Helvetica,sans-Serif" font-size="10.00">pin_t</text>
<polyline fill="none" stroke="black" points="26,-1167.5 119,-1167.5 "/>
<text text-anchor="start" x="34" y="-1155.5" font-family="Helvetica,sans-Serif" font-size="10.00">+ pin</text>
<polyline fill="none" stroke="black" points="26,-1148.5 119,-1148.5 "/>
<text text-anchor="start" x="34" y="-1136.5" font-family="Helvetica,sans-Serif" font-size="10.00">+ pin_t()</text>
<text text-anchor="start" x="34" y="-1125.5" font-family="Helvetica,sans-Serif" font-size="10.00">+ pin_t()</text>
<text text-anchor="start" x="34" y="-1114.5" font-family="Helvetica,sans-Serif" font-size="10.00">+ operator+=()</text>
<text text-anchor="start" x="34" y="-1103.5" font-family="Helvetica,sans-Serif" font-size="10.00">+ operator++()</text>
<text text-anchor="start" x="34" y="-1092.5" font-family="Helvetica,sans-Serif" font-size="10.00">+ operator++()</text>
<text text-anchor="start" x="34" y="-1081.5" font-family="Helvetica,sans-Serif" font-size="10.00">+ operator&#45;=()</text>
<text text-anchor="start" x="34" y="-1070.5" font-family="Helvetica,sans-Serif" font-size="10.00">+ operator&#45;&#45;()</text>
<text text-anchor="start" x="34" y="-1059.5" font-family="Helvetica,sans-Serif" font-size="10.00">+ operator&#45;&#45;()</text>
</a>
</g>
</g>
<!-- Node6&#45;&gt;Node1 -->
<g id="edge8" class="edge">
<title>Node6&#45;&gt;Node1</title>
<path fill="none" stroke="#404040" d="M69.46,-1052.15C68.4,-1027.04 67.27,-998.21 66.5,-972 60.84,-780.39 57.91,-551.19 56.91,-460.61"/>
<polygon fill="none" stroke="#404040" points="56.91,-460.52 52.84,-454.57 56.78,-448.52 60.84,-454.48 56.91,-460.52"/>
<text text-anchor="middle" x="100" y="-797.5" font-family="Helvetica,sans-Serif" font-size="10.00"> +elementPin</text>
</g>
<!-- Node6&#45;&gt;Node2 -->
<g id="edge7" class="edge">
<title>Node6&#45;&gt;Node2</title>
<path fill="none" stroke="#404040" d="M103.76,-1052.33C113.6,-1031.51 124.98,-1007.43 136.71,-982.58"/>
<polygon fill="none" stroke="#404040" points="136.82,-982.36 135.76,-975.23 141.94,-971.51 143,-978.64 136.82,-982.36"/>
<text text-anchor="middle" x="147" y="-1026" font-family="Helvetica,sans-Serif" font-size="10.00"> &#45;end</text>
<text text-anchor="middle" x="147" y="-1015" font-family="Helvetica,sans-Serif" font-size="10.00">&#45;length</text>
<text text-anchor="middle" x="147" y="-1004" font-family="Helvetica,sans-Serif" font-size="10.00">&#45;offset</text>
<text text-anchor="middle" x="147" y="-993" font-family="Helvetica,sans-Serif" font-size="10.00">&#45;start</text>
</g>
</g>
</svg>
