<?xml version="1.0" encoding="UTF-8" standalone="no"?>
<!DOCTYPE svg PUBLIC "-//W3C//DTD SVG 1.1//EN"
 "http://www.w3.org/Graphics/SVG/1.1/DTD/svg11.dtd">
<!-- Generated by graphviz version 2.43.0 (0)
 -->
<!-- Title: PCButton Pages: 1 -->
<svg width="925pt" height="1029pt"
 viewBox="0.00 0.00 924.50 1029.00" xmlns="http://www.w3.org/2000/svg" xmlns:xlink="http://www.w3.org/1999/xlink">
<g id="graph0" class="graph" transform="scale(1 1) rotate(0) translate(4 1025)">
<title>PCButton</title>
<!-- Node1 -->
<g id="Node000001" class="node">
<title>Node1</title>
<g id="a_Node000001"><a xlink:title="A class of MIDIOutputElements that read the input of a momentary push button or switch,...">
<polygon fill="#999999" stroke="transparent" points="691.5,-49 617.5,-49 617.5,0 691.5,0 691.5,-49"/>
<text text-anchor="start" x="631.5" y="-36.5" font-family="Helvetica,sans-Serif" font-size="10.00">PCButton</text>
<text text-anchor="start" x="652.5" y="-21.5" font-family="Helvetica,sans-Serif" font-size="10.00"> </text>
<text text-anchor="start" x="621.5" y="-6.5" font-family="Helvetica,sans-Serif" font-size="10.00">+</text>
<text text-anchor="start" x="634.5" y="-6.5" font-family="Helvetica,sans-Serif" font-size="10.00">PCButton()</text>
<polygon fill="#666666" stroke="#666666" points="617.5,-31.5 617.5,-31.5 691.5,-31.5 691.5,-31.5 617.5,-31.5"/>
<polygon fill="#666666" stroke="#666666" points="617.5,-16.5 617.5,-16.5 691.5,-16.5 691.5,-16.5 617.5,-16.5"/>
<polygon fill="none" stroke="#666666" points="617.5,0 617.5,-49 691.5,-49 691.5,0 617.5,0"/>
</a>
</g>
</g>
<!-- Node2 -->
<g id="Node000002" class="node">
<title>Node2</title>
<g id="a_Node000002"><a xlink:href="../../d6/d72/classMIDIButton.html" target="_top" xlink:title=" ">
<polygon fill="white" stroke="transparent" points="732,-356 577,-356 577,-86 732,-86 732,-356"/>
<text text-anchor="start" x="582.5" y="-344" font-family="Helvetica,sans-Serif" font-size="10.00">MIDIButton&lt; ProgramChange</text>
<text text-anchor="start" x="632" y="-333" font-family="Helvetica,sans-Serif" font-size="10.00">Sender &gt;</text>
<text text-anchor="start" x="590.5" y="-318" font-family="Helvetica,sans-Serif" font-size="10.00">#</text>
<text text-anchor="start" x="612.5" y="-318" font-family="Helvetica,sans-Serif" font-size="10.00">next</text>
<text text-anchor="start" x="590.5" y="-303" font-family="Helvetica,sans-Serif" font-size="10.00">#</text>
<text text-anchor="start" x="612.5" y="-303" font-family="Helvetica,sans-Serif" font-size="10.00">previous</text>
<text text-anchor="start" x="590.5" y="-288" font-family="Helvetica,sans-Serif" font-size="10.00">#</text>
<text text-anchor="start" x="612.5" y="-288" font-family="Helvetica,sans-Serif" font-size="10.00">updatables</text>
<text text-anchor="start" x="590.5" y="-273" font-family="Helvetica,sans-Serif" font-size="10.00">+</text>
<text text-anchor="start" x="612.5" y="-273" font-family="Helvetica,sans-Serif" font-size="10.00">MIDIButton()</text>
<text text-anchor="start" x="590.5" y="-258" font-family="Helvetica,sans-Serif" font-size="10.00">+</text>
<text text-anchor="start" x="612.5" y="-258" font-family="Helvetica,sans-Serif" font-size="10.00">begin()</text>
<text text-anchor="start" x="590.5" y="-243" font-family="Helvetica,sans-Serif" font-size="10.00">+</text>
<text text-anchor="start" x="612.5" y="-243" font-family="Helvetica,sans-Serif" font-size="10.00">update()</text>
<text text-anchor="start" x="590.5" y="-228" font-family="Helvetica,sans-Serif" font-size="10.00">+</text>
<text text-anchor="start" x="612.5" y="-228" font-family="Helvetica,sans-Serif" font-size="10.00">invert()</text>
<text text-anchor="start" x="590.5" y="-213" font-family="Helvetica,sans-Serif" font-size="10.00">+</text>
<text text-anchor="start" x="612.5" y="-213" font-family="Helvetica,sans-Serif" font-size="10.00">getButtonState()</text>
<text text-anchor="start" x="590.5" y="-198" font-family="Helvetica,sans-Serif" font-size="10.00">+</text>
<text text-anchor="start" x="612.5" y="-198" font-family="Helvetica,sans-Serif" font-size="10.00">getAddress()</text>
<text text-anchor="start" x="590.5" y="-183" font-family="Helvetica,sans-Serif" font-size="10.00">+</text>
<text text-anchor="start" x="612.5" y="-183" font-family="Helvetica,sans-Serif" font-size="10.00">setAddressUnsafe()</text>
<text text-anchor="start" x="592" y="-168" font-family="Helvetica,sans-Serif" font-size="10.00">*</text>
<text text-anchor="start" x="612.5" y="-168" font-family="Helvetica,sans-Serif" font-size="10.00">enable()</text>
<text text-anchor="start" x="592" y="-153" font-family="Helvetica,sans-Serif" font-size="10.00">*</text>
<text text-anchor="start" x="612.5" y="-153" font-family="Helvetica,sans-Serif" font-size="10.00">disable()</text>
<text text-anchor="start" x="592" y="-138" font-family="Helvetica,sans-Serif" font-size="10.00">*</text>
<text text-anchor="start" x="612.5" y="-138" font-family="Helvetica,sans-Serif" font-size="10.00">isEnabled()</text>
<text text-anchor="start" x="592" y="-123" font-family="Helvetica,sans-Serif" font-size="10.00">*</text>
<text text-anchor="start" x="612.5" y="-123" font-family="Helvetica,sans-Serif" font-size="10.00">moveDown()</text>
<text text-anchor="start" x="592" y="-108" font-family="Helvetica,sans-Serif" font-size="10.00">*</text>
<text text-anchor="start" x="612.5" y="-108" font-family="Helvetica,sans-Serif" font-size="10.00">beginAll()</text>
<text text-anchor="start" x="592" y="-93" font-family="Helvetica,sans-Serif" font-size="10.00">*</text>
<text text-anchor="start" x="612.5" y="-93" font-family="Helvetica,sans-Serif" font-size="10.00">updateAll()</text>
<polygon fill="#666666" stroke="#666666" points="577.5,-328 577.5,-328 732.5,-328 732.5,-328 577.5,-328"/>
<polygon fill="#666666" stroke="#666666" points="577.5,-283 577.5,-283 610.5,-283 610.5,-283 577.5,-283"/>
<polygon fill="#666666" stroke="#666666" points="610.5,-283 610.5,-283 732.5,-283 732.5,-283 610.5,-283"/>
<polygon fill="none" stroke="#666666" points="577,-86 577,-356 732,-356 732,-86 577,-86"/>
</a>
</g>
</g>
<!-- Node2&#45;&gt;Node1 -->
<g id="edge1_Node000001_Node000002" class="edge">
<title>Node2&#45;&gt;Node1</title>
<g id="a_edge1_Node000001_Node000002"><a xlink:title=" ">
<path fill="none" stroke="#63b8ff" d="M654.5,-75.76C654.5,-65.8 654.5,-56.72 654.5,-49.09"/>
<polygon fill="none" stroke="#63b8ff" points="651,-75.97 654.5,-85.97 658,-75.97 651,-75.97"/>
</a>
</g>
</g>
<!-- Node3 -->
<g id="Node000003" class="node">
<title>Node3</title>
<g id="a_Node000003"><a xlink:href="../../d1/d55/classAH_1_1Updatable.html" target="_top" xlink:title="A super class for object that have to be updated regularly.">
<polygon fill="white" stroke="transparent" points="472,-660.5 365,-660.5 365,-566.5 472,-566.5 472,-660.5"/>
<text text-anchor="start" x="370.5" y="-648.5" font-family="Helvetica,sans-Serif" font-size="10.00">MIDIOutputElement</text>
<text text-anchor="start" x="417" y="-633.5" font-family="Helvetica,sans-Serif" font-size="10.00"> </text>
<text text-anchor="start" x="378" y="-618.5" font-family="Helvetica,sans-Serif" font-size="10.00">*</text>
<text text-anchor="start" x="396.5" y="-618.5" font-family="Helvetica,sans-Serif" font-size="10.00">begin()</text>
<text text-anchor="start" x="378" y="-603.5" font-family="Helvetica,sans-Serif" font-size="10.00">*</text>
<text text-anchor="start" x="396.5" y="-603.5" font-family="Helvetica,sans-Serif" font-size="10.00">update()</text>
<text text-anchor="start" x="378" y="-588.5" font-family="Helvetica,sans-Serif" font-size="10.00">*</text>
<text text-anchor="start" x="396.5" y="-588.5" font-family="Helvetica,sans-Serif" font-size="10.00">beginAll()</text>
<text text-anchor="start" x="378" y="-573.5" font-family="Helvetica,sans-Serif" font-size="10.00">*</text>
<text text-anchor="start" x="396.5" y="-573.5" font-family="Helvetica,sans-Serif" font-size="10.00">updateAll()</text>
<polygon fill="#666666" stroke="#666666" points="365.5,-643.5 365.5,-643.5 472.5,-643.5 472.5,-643.5 365.5,-643.5"/>
<polygon fill="#666666" stroke="#666666" points="365.5,-628.5 365.5,-628.5 472.5,-628.5 472.5,-628.5 365.5,-628.5"/>
<polygon fill="none" stroke="#666666" points="365,-566.5 365,-660.5 472,-660.5 472,-566.5 365,-566.5"/>
</a>
</g>
</g>
<!-- Node3&#45;&gt;Node2 -->
<g id="edge2_Node000002_Node000003" class="edge">
<title>Node3&#45;&gt;Node2</title>
<g id="a_edge2_Node000002_Node000003"><a xlink:title=" ">
<path fill="none" stroke="#63b8ff" d="M431.22,-556.2C441.41,-517.43 457.93,-465.62 481.5,-424 507.22,-378.6 543.94,-333.92 576.94,-298.18"/>
<polygon fill="none" stroke="#63b8ff" points="427.73,-555.7 428.64,-566.26 434.52,-557.44 427.73,-555.7"/>
</a>
</g>
</g>
<!-- Node4 -->
<g id="Node000004" class="node">
<title>Node4</title>
<g id="a_Node000004"><a xlink:href="../../d8/d1a/classAH_1_1UpdatableCRTP.html" target="_top" xlink:title=" ">
<polygon fill="white" stroke="transparent" points="291,-1021 144,-1021 144,-856 291,-856 291,-1021"/>
<text text-anchor="start" x="149.5" y="-1008.5" font-family="Helvetica,sans-Serif" font-size="10.00">UpdatableCRTP&lt; Updatable</text>
<text text-anchor="start" x="157.5" y="-997.5" font-family="Helvetica,sans-Serif" font-size="10.00">&lt; NormalUpdatable &gt; &gt;</text>
<text text-anchor="start" x="157" y="-982.5" font-family="Helvetica,sans-Serif" font-size="10.00">#</text>
<text text-anchor="start" x="178.5" y="-982.5" font-family="Helvetica,sans-Serif" font-size="10.00">next</text>
<text text-anchor="start" x="157" y="-967.5" font-family="Helvetica,sans-Serif" font-size="10.00">#</text>
<text text-anchor="start" x="178.5" y="-967.5" font-family="Helvetica,sans-Serif" font-size="10.00">previous</text>
<text text-anchor="start" x="157" y="-952.5" font-family="Helvetica,sans-Serif" font-size="10.00">+</text>
<text text-anchor="start" x="178.5" y="-952.5" font-family="Helvetica,sans-Serif" font-size="10.00">~UpdatableCRTP()</text>
<text text-anchor="start" x="157" y="-937.5" font-family="Helvetica,sans-Serif" font-size="10.00">#</text>
<text text-anchor="start" x="178.5" y="-937.5" font-family="Helvetica,sans-Serif" font-size="10.00">UpdatableCRTP()</text>
<text text-anchor="start" x="157" y="-922.5" font-family="Helvetica,sans-Serif" font-size="10.00">#</text>
<text text-anchor="start" x="178.5" y="-922.5" font-family="Helvetica,sans-Serif" font-size="10.00">operator=()</text>
<text text-anchor="start" x="158.5" y="-907.5" font-family="Helvetica,sans-Serif" font-size="10.00">*</text>
<text text-anchor="start" x="178.5" y="-907.5" font-family="Helvetica,sans-Serif" font-size="10.00">enable()</text>
<text text-anchor="start" x="158.5" y="-892.5" font-family="Helvetica,sans-Serif" font-size="10.00">*</text>
<text text-anchor="start" x="178.5" y="-892.5" font-family="Helvetica,sans-Serif" font-size="10.00">disable()</text>
<text text-anchor="start" x="158.5" y="-877.5" font-family="Helvetica,sans-Serif" font-size="10.00">*</text>
<text text-anchor="start" x="178.5" y="-877.5" font-family="Helvetica,sans-Serif" font-size="10.00">isEnabled()</text>
<text text-anchor="start" x="158.5" y="-862.5" font-family="Helvetica,sans-Serif" font-size="10.00">*</text>
<text text-anchor="start" x="178.5" y="-862.5" font-family="Helvetica,sans-Serif" font-size="10.00">moveDown()</text>
<polygon fill="#666666" stroke="#666666" points="144.5,-992.5 144.5,-992.5 291.5,-992.5 291.5,-992.5 144.5,-992.5"/>
<polygon fill="#666666" stroke="#666666" points="144.5,-962.5 144.5,-962.5 176.5,-962.5 176.5,-962.5 144.5,-962.5"/>
<polygon fill="#666666" stroke="#666666" points="176.5,-962.5 176.5,-962.5 291.5,-962.5 291.5,-962.5 176.5,-962.5"/>
<polygon fill="none" stroke="#666666" points="144,-856 144,-1021 291,-1021 291,-856 144,-856"/>
</a>
</g>
</g>
<!-- Node4&#45;&gt;Node3 -->
<g id="edge3_Node000003_Node000004" class="edge">
<title>Node4&#45;&gt;Node3</title>
<g id="a_edge3_Node000003_Node000004"><a xlink:title=" ">
<path fill="none" stroke="#63b8ff" d="M298.37,-867.13C317.31,-847.77 336.12,-825.78 350.5,-803 378.63,-758.43 397.28,-700.59 407.82,-660.81"/>
<polygon fill="none" stroke="#63b8ff" points="295.69,-864.87 291.12,-874.42 300.65,-869.8 295.69,-864.87"/>
</a>
</g>
</g>
<!-- Node6 -->
<g id="Node000006" class="node">
<title>Node6</title>
<g id="a_Node000006"><a xlink:href="../../d1/d55/classAH_1_1Updatable.html" target="_top" xlink:title=" ">
<polygon fill="white" stroke="transparent" points="241.5,-705.5 71.5,-705.5 71.5,-521.5 241.5,-521.5 241.5,-705.5"/>
<text text-anchor="start" x="76.5" y="-693.5" font-family="Helvetica,sans-Serif" font-size="10.00">Updatable&lt; NormalUpdatable &gt;</text>
<text text-anchor="start" x="96.5" y="-678.5" font-family="Helvetica,sans-Serif" font-size="10.00">#</text>
<text text-anchor="start" x="130.5" y="-678.5" font-family="Helvetica,sans-Serif" font-size="10.00">next</text>
<text text-anchor="start" x="96.5" y="-663.5" font-family="Helvetica,sans-Serif" font-size="10.00">#</text>
<text text-anchor="start" x="130.5" y="-663.5" font-family="Helvetica,sans-Serif" font-size="10.00">previous</text>
<text text-anchor="start" x="96.5" y="-648.5" font-family="Helvetica,sans-Serif" font-size="10.00">#</text>
<text text-anchor="start" x="130.5" y="-648.5" font-family="Helvetica,sans-Serif" font-size="10.00">updatables</text>
<text text-anchor="start" x="98" y="-633.5" font-family="Helvetica,sans-Serif" font-size="10.00">*</text>
<text text-anchor="start" x="130.5" y="-633.5" font-family="Helvetica,sans-Serif" font-size="10.00">begin()</text>
<text text-anchor="start" x="98" y="-618.5" font-family="Helvetica,sans-Serif" font-size="10.00">*</text>
<text text-anchor="start" x="130.5" y="-618.5" font-family="Helvetica,sans-Serif" font-size="10.00">update()</text>
<text text-anchor="start" x="98" y="-603.5" font-family="Helvetica,sans-Serif" font-size="10.00">*</text>
<text text-anchor="start" x="130.5" y="-603.5" font-family="Helvetica,sans-Serif" font-size="10.00">beginAll()</text>
<text text-anchor="start" x="98" y="-588.5" font-family="Helvetica,sans-Serif" font-size="10.00">*</text>
<text text-anchor="start" x="130.5" y="-588.5" font-family="Helvetica,sans-Serif" font-size="10.00">updateAll()</text>
<text text-anchor="start" x="98" y="-573.5" font-family="Helvetica,sans-Serif" font-size="10.00">*</text>
<text text-anchor="start" x="130.5" y="-573.5" font-family="Helvetica,sans-Serif" font-size="10.00">enable()</text>
<text text-anchor="start" x="98" y="-558.5" font-family="Helvetica,sans-Serif" font-size="10.00">*</text>
<text text-anchor="start" x="130.5" y="-558.5" font-family="Helvetica,sans-Serif" font-size="10.00">disable()</text>
<text text-anchor="start" x="98" y="-543.5" font-family="Helvetica,sans-Serif" font-size="10.00">*</text>
<text text-anchor="start" x="130.5" y="-543.5" font-family="Helvetica,sans-Serif" font-size="10.00">isEnabled()</text>
<text text-anchor="start" x="98" y="-528.5" font-family="Helvetica,sans-Serif" font-size="10.00">*</text>
<text text-anchor="start" x="130.5" y="-528.5" font-family="Helvetica,sans-Serif" font-size="10.00">moveDown()</text>
<polygon fill="#666666" stroke="#666666" points="71.5,-688.5 71.5,-688.5 241.5,-688.5 241.5,-688.5 71.5,-688.5"/>
<polygon fill="#666666" stroke="#666666" points="71.5,-643.5 71.5,-643.5 128.5,-643.5 128.5,-643.5 71.5,-643.5"/>
<polygon fill="#666666" stroke="#666666" points="128.5,-643.5 128.5,-643.5 241.5,-643.5 241.5,-643.5 128.5,-643.5"/>
<polygon fill="none" stroke="#666666" points="71.5,-521.5 71.5,-705.5 241.5,-705.5 241.5,-521.5 71.5,-521.5"/>
</a>
</g>
</g>
<!-- Node4&#45;&gt;Node6 -->
<g id="edge6_Node000006_Node000004" class="edge">
<title>Node4&#45;&gt;Node6</title>
<g id="a_edge6_Node000006_Node000004"><a xlink:title=" ">
<path fill="none" stroke="#63b8ff" d="M200.2,-845.9C191.91,-801.98 182,-749.53 173.72,-705.67"/>
<polygon fill="none" stroke="#63b8ff" points="196.81,-846.82 202.11,-855.99 203.69,-845.52 196.81,-846.82"/>
</a>
</g>
</g>
<!-- Node5 -->
<g id="Node000005" class="node">
<title>Node5</title>
<g id="a_Node000005"><a xlink:href="../../d4/d23/classDoublyLinkable.html" target="_top" xlink:title=" ">
<polygon fill="white" stroke="transparent" points="147,-266 0,-266 0,-176 147,-176 147,-266"/>
<text text-anchor="start" x="5.5" y="-254" font-family="Helvetica,sans-Serif" font-size="10.00">DoublyLinkable&lt; Updatable</text>
<text text-anchor="start" x="13.5" y="-243" font-family="Helvetica,sans-Serif" font-size="10.00">&lt; NormalUpdatable &gt; &gt;</text>
<text text-anchor="start" x="72" y="-228" font-family="Helvetica,sans-Serif" font-size="10.00"> </text>
<text text-anchor="start" x="13" y="-213" font-family="Helvetica,sans-Serif" font-size="10.00">#</text>
<text text-anchor="start" x="34.5" y="-213" font-family="Helvetica,sans-Serif" font-size="10.00">~DoublyLinkable()</text>
<text text-anchor="start" x="13" y="-198" font-family="Helvetica,sans-Serif" font-size="10.00">#</text>
<text text-anchor="start" x="34.5" y="-198" font-family="Helvetica,sans-Serif" font-size="10.00">DoublyLinkable()</text>
<text text-anchor="start" x="13" y="-183" font-family="Helvetica,sans-Serif" font-size="10.00">#</text>
<text text-anchor="start" x="34.5" y="-183" font-family="Helvetica,sans-Serif" font-size="10.00">operator=()</text>
<polygon fill="#666666" stroke="#666666" points="0.5,-238 0.5,-238 147.5,-238 147.5,-238 0.5,-238"/>
<polygon fill="#666666" stroke="#666666" points="0.5,-223 0.5,-223 147.5,-223 147.5,-223 0.5,-223"/>
<polygon fill="none" stroke="#666666" points="0,-176 0,-266 147,-266 147,-176 0,-176"/>
</a>
</g>
</g>
<!-- Node5&#45;&gt;Node4 -->
<g id="edge4_Node000004_Node000005" class="edge">
<title>Node5&#45;&gt;Node4</title>
<g id="a_edge4_Node000004_Node000005"><a xlink:title=" ">
<path fill="none" stroke="#63b8ff" d="M57.68,-276.01C29.58,-382.51 -18.84,-624.72 62.5,-803 79.51,-840.28 112.51,-871.2 143.71,-893.96"/>
<polygon fill="none" stroke="#63b8ff" points="61.12,-276.7 60.33,-266.13 54.36,-274.88 61.12,-276.7"/>
</a>
</g>
</g>
<!-- Node6&#45;&gt;Node5 -->
<g id="edge5_Node000005_Node000006" class="edge">
<title>Node6&#45;&gt;Node5</title>
<g id="a_edge5_Node000005_Node000006"><a xlink:title=" ">
<path fill="none" stroke="#63b8ff" d="M137.14,-521.44C121.12,-446.06 98.88,-341.39 85.37,-277.86"/>
<polygon fill="none" stroke="#63b8ff" points="85.37,-277.85 80.21,-272.81 82.88,-266.11 88.04,-271.15 85.37,-277.85"/>
</a>
</g>
<text text-anchor="start" x="117" y="-395" font-family="Helvetica,sans-Serif" font-size="10.00" fill="grey">#next</text>
<text text-anchor="start" x="117" y="-380" font-family="Helvetica,sans-Serif" font-size="10.00" fill="grey">#previous</text>
</g>
<!-- Node7 -->
<g id="Node000007" class="node">
<title>Node7</title>
<g id="a_Node000007"><a xlink:href="../../dd/d16/classDoublyLinkedList.html" target="_top" xlink:title=" ">
<polygon fill="white" stroke="transparent" points="330,-333.5 175,-333.5 175,-108.5 330,-108.5 330,-333.5"/>
<text text-anchor="start" x="180.5" y="-321" font-family="Helvetica,sans-Serif" font-size="10.00">DoublyLinkedList&lt; Updatable</text>
<text text-anchor="start" x="192.5" y="-310" font-family="Helvetica,sans-Serif" font-size="10.00">&lt; NormalUpdatable &gt; &gt;</text>
<text text-anchor="start" x="251" y="-295" font-family="Helvetica,sans-Serif" font-size="10.00"> </text>
<text text-anchor="start" x="195" y="-280" font-family="Helvetica,sans-Serif" font-size="10.00">+</text>
<text text-anchor="start" x="223.5" y="-280" font-family="Helvetica,sans-Serif" font-size="10.00">append()</text>
<text text-anchor="start" x="195" y="-265" font-family="Helvetica,sans-Serif" font-size="10.00">+</text>
<text text-anchor="start" x="223.5" y="-265" font-family="Helvetica,sans-Serif" font-size="10.00">insertBefore()</text>
<text text-anchor="start" x="195" y="-250" font-family="Helvetica,sans-Serif" font-size="10.00">+</text>
<text text-anchor="start" x="223.5" y="-250" font-family="Helvetica,sans-Serif" font-size="10.00">insertSorted()</text>
<text text-anchor="start" x="195" y="-235" font-family="Helvetica,sans-Serif" font-size="10.00">+</text>
<text text-anchor="start" x="223.5" y="-235" font-family="Helvetica,sans-Serif" font-size="10.00">remove()</text>
<text text-anchor="start" x="195" y="-220" font-family="Helvetica,sans-Serif" font-size="10.00">+</text>
<text text-anchor="start" x="223.5" y="-220" font-family="Helvetica,sans-Serif" font-size="10.00">moveDown()</text>
<text text-anchor="start" x="195" y="-205" font-family="Helvetica,sans-Serif" font-size="10.00">+</text>
<text text-anchor="start" x="223.5" y="-205" font-family="Helvetica,sans-Serif" font-size="10.00">couldContain()</text>
<text text-anchor="start" x="195" y="-190" font-family="Helvetica,sans-Serif" font-size="10.00">+</text>
<text text-anchor="start" x="223.5" y="-190" font-family="Helvetica,sans-Serif" font-size="10.00">begin()</text>
<text text-anchor="start" x="195" y="-175" font-family="Helvetica,sans-Serif" font-size="10.00">+</text>
<text text-anchor="start" x="223.5" y="-175" font-family="Helvetica,sans-Serif" font-size="10.00">end()</text>
<text text-anchor="start" x="195" y="-160" font-family="Helvetica,sans-Serif" font-size="10.00">+</text>
<text text-anchor="start" x="223.5" y="-160" font-family="Helvetica,sans-Serif" font-size="10.00">rbegin()</text>
<text text-anchor="start" x="195" y="-145" font-family="Helvetica,sans-Serif" font-size="10.00">+</text>
<text text-anchor="start" x="223.5" y="-145" font-family="Helvetica,sans-Serif" font-size="10.00">rend()</text>
<text text-anchor="start" x="195" y="-130" font-family="Helvetica,sans-Serif" font-size="10.00">+</text>
<text text-anchor="start" x="223.5" y="-130" font-family="Helvetica,sans-Serif" font-size="10.00">getFirst()</text>
<text text-anchor="start" x="195" y="-115" font-family="Helvetica,sans-Serif" font-size="10.00">+</text>
<text text-anchor="start" x="223.5" y="-115" font-family="Helvetica,sans-Serif" font-size="10.00">getLast()</text>
<polygon fill="#666666" stroke="#666666" points="175.5,-305 175.5,-305 330.5,-305 330.5,-305 175.5,-305"/>
<polygon fill="#666666" stroke="#666666" points="175.5,-290 175.5,-290 330.5,-290 330.5,-290 175.5,-290"/>
<polygon fill="none" stroke="#666666" points="175,-108.5 175,-333.5 330,-333.5 330,-108.5 175,-108.5"/>
</a>
</g>
</g>
<!-- Node6&#45;&gt;Node7 -->
<g id="edge8_Node000007_Node000006" class="edge">
<title>Node6&#45;&gt;Node7</title>
<g id="a_edge8_Node000007_Node000006"><a xlink:title=" ">
<path fill="none" stroke="#63b8ff" d="M178.89,-521.44C191.74,-469.15 208.06,-402.77 222.06,-345.8"/>
<polygon fill="none" stroke="#63b8ff" points="222.15,-345.45 219.7,-338.67 225.02,-333.8 227.47,-340.58 222.15,-345.45"/>
</a>
</g>
<text text-anchor="start" x="217" y="-395" font-family="Helvetica,sans-Serif" font-size="10.00" fill="grey">&#45;first</text>
<text text-anchor="start" x="217" y="-380" font-family="Helvetica,sans-Serif" font-size="10.00" fill="grey">&#45;last</text>
</g>
<!-- Node7&#45;&gt;Node4 -->
<g id="edge7_Node000004_Node000007" class="edge">
<title>Node7&#45;&gt;Node4</title>
<g id="a_edge7_Node000004_Node000007"><a xlink:title=" ">
<path fill="none" stroke="#63b8ff" d="M259.92,-333.6C265.9,-450.94 270.41,-640.68 250.5,-803 248.86,-816.38 246.35,-830.35 243.44,-844.02"/>
<polygon fill="none" stroke="#63b8ff" points="243.4,-844.21 246,-850.93 240.79,-855.92 238.19,-849.19 243.4,-844.21"/>
</a>
</g>
<text text-anchor="start" x="269" y="-610.5" font-family="Helvetica,sans-Serif" font-size="10.00" fill="grey">#updatables</text>
</g>
<!-- Node8 -->
<g id="Node000008" class="node">
<title>Node8</title>
<g id="a_Node000008"><a xlink:href="../../de/d0d/classAH_1_1Button.html" target="_top" xlink:title="A class for reading and debouncing buttons and switches.">
<polygon fill="white" stroke="transparent" points="622.5,-728 490.5,-728 490.5,-499 622.5,-499 622.5,-728"/>
<text text-anchor="start" x="540" y="-715.5" font-family="Helvetica,sans-Serif" font-size="10.00">Button</text>
<text text-anchor="start" x="497" y="-700.5" font-family="Helvetica,sans-Serif" font-size="10.00">&#45;</text>
<text text-anchor="start" x="507.5" y="-700.5" font-family="Helvetica,sans-Serif" font-size="10.00">debounceTime</text>
<text text-anchor="start" x="494.5" y="-685.5" font-family="Helvetica,sans-Serif" font-size="10.00">+</text>
<text text-anchor="start" x="507.5" y="-685.5" font-family="Helvetica,sans-Serif" font-size="10.00">Button()</text>
<text text-anchor="start" x="494.5" y="-670.5" font-family="Helvetica,sans-Serif" font-size="10.00">+</text>
<text text-anchor="start" x="507.5" y="-670.5" font-family="Helvetica,sans-Serif" font-size="10.00">Button()</text>
<text text-anchor="start" x="494.5" y="-655.5" font-family="Helvetica,sans-Serif" font-size="10.00">+</text>
<text text-anchor="start" x="507.5" y="-655.5" font-family="Helvetica,sans-Serif" font-size="10.00">Button()</text>
<text text-anchor="start" x="494.5" y="-640.5" font-family="Helvetica,sans-Serif" font-size="10.00">+</text>
<text text-anchor="start" x="507.5" y="-640.5" font-family="Helvetica,sans-Serif" font-size="10.00">begin()</text>
<text text-anchor="start" x="494.5" y="-625.5" font-family="Helvetica,sans-Serif" font-size="10.00">+</text>
<text text-anchor="start" x="507.5" y="-625.5" font-family="Helvetica,sans-Serif" font-size="10.00">invert()</text>
<text text-anchor="start" x="494.5" y="-610.5" font-family="Helvetica,sans-Serif" font-size="10.00">+</text>
<text text-anchor="start" x="507.5" y="-610.5" font-family="Helvetica,sans-Serif" font-size="10.00">update()</text>
<text text-anchor="start" x="494.5" y="-595.5" font-family="Helvetica,sans-Serif" font-size="10.00">+</text>
<text text-anchor="start" x="507.5" y="-595.5" font-family="Helvetica,sans-Serif" font-size="10.00">getState()</text>
<text text-anchor="start" x="494.5" y="-580.5" font-family="Helvetica,sans-Serif" font-size="10.00">+</text>
<text text-anchor="start" x="507.5" y="-580.5" font-family="Helvetica,sans-Serif" font-size="10.00">previousBounceTime()</text>
<text text-anchor="start" x="494.5" y="-565.5" font-family="Helvetica,sans-Serif" font-size="10.00">+</text>
<text text-anchor="start" x="507.5" y="-565.5" font-family="Helvetica,sans-Serif" font-size="10.00">stableTime()</text>
<text text-anchor="start" x="494.5" y="-550.5" font-family="Helvetica,sans-Serif" font-size="10.00">+</text>
<text text-anchor="start" x="507.5" y="-550.5" font-family="Helvetica,sans-Serif" font-size="10.00">stableTime()</text>
<text text-anchor="start" x="494.5" y="-535.5" font-family="Helvetica,sans-Serif" font-size="10.00">+</text>
<text text-anchor="start" x="507.5" y="-535.5" font-family="Helvetica,sans-Serif" font-size="10.00">getName()</text>
<text text-anchor="start" x="494.5" y="-520.5" font-family="Helvetica,sans-Serif" font-size="10.00">+</text>
<text text-anchor="start" x="507.5" y="-520.5" font-family="Helvetica,sans-Serif" font-size="10.00">setDebounceTime()</text>
<text text-anchor="start" x="494.5" y="-505.5" font-family="Helvetica,sans-Serif" font-size="10.00">+</text>
<text text-anchor="start" x="507.5" y="-505.5" font-family="Helvetica,sans-Serif" font-size="10.00">getDebounceTime()</text>
<polygon fill="#666666" stroke="#666666" points="490.5,-710.5 490.5,-710.5 622.5,-710.5 622.5,-710.5 490.5,-710.5"/>
<polygon fill="#666666" stroke="#666666" points="490.5,-695.5 490.5,-695.5 505.5,-695.5 505.5,-695.5 490.5,-695.5"/>
<polygon fill="#666666" stroke="#666666" points="505.5,-695.5 505.5,-695.5 622.5,-695.5 622.5,-695.5 505.5,-695.5"/>
<polygon fill="none" stroke="#666666" points="490.5,-499 490.5,-728 622.5,-728 622.5,-499 490.5,-499"/>
</a>
</g>
</g>
<!-- Node8&#45;&gt;Node2 -->
<g id="edge9_Node000002_Node000008" class="edge">
<title>Node8&#45;&gt;Node2</title>
<g id="a_edge9_Node000002_Node000008"><a xlink:title=" ">
<path fill="none" stroke="#63b8ff" d="M585.04,-498.76C595.29,-457.93 606.99,-411.29 617.84,-368.09"/>
<polygon fill="none" stroke="#63b8ff" points="617.87,-367.94 615.45,-361.15 620.8,-356.3 623.21,-363.1 617.87,-367.94"/>
</a>
</g>
<text text-anchor="start" x="617.5" y="-387" font-family="Helvetica,sans-Serif" font-size="10.00" fill="grey">&#45;button</text>
</g>
<!-- Node9 -->
<g id="Node000009" class="node">
<title>Node9</title>
<g id="a_Node000009"><a xlink:href="../../d7/de2/structAH_1_1ExtIO_1_1pin__t.html" target="_top" xlink:title="Type for storing pin numbers of Extended Input/Output elements.">
<polygon fill="white" stroke="transparent" points="517,-1015.5 430,-1015.5 430,-861.5 517,-861.5 517,-1015.5"/>
<text text-anchor="start" x="461.5" y="-1003.5" font-family="Helvetica,sans-Serif" font-size="10.00">pin_t</text>
<text text-anchor="start" x="434.5" y="-988.5" font-family="Helvetica,sans-Serif" font-size="10.00">+</text>
<text text-anchor="start" x="447.5" y="-988.5" font-family="Helvetica,sans-Serif" font-size="10.00">pin</text>
<text text-anchor="start" x="434.5" y="-973.5" font-family="Helvetica,sans-Serif" font-size="10.00">+</text>
<text text-anchor="start" x="447.5" y="-973.5" font-family="Helvetica,sans-Serif" font-size="10.00">pin_t()</text>
<text text-anchor="start" x="434.5" y="-958.5" font-family="Helvetica,sans-Serif" font-size="10.00">+</text>
<text text-anchor="start" x="447.5" y="-958.5" font-family="Helvetica,sans-Serif" font-size="10.00">pin_t()</text>
<text text-anchor="start" x="434.5" y="-943.5" font-family="Helvetica,sans-Serif" font-size="10.00">+</text>
<text text-anchor="start" x="447.5" y="-943.5" font-family="Helvetica,sans-Serif" font-size="10.00">operator+=()</text>
<text text-anchor="start" x="434.5" y="-928.5" font-family="Helvetica,sans-Serif" font-size="10.00">+</text>
<text text-anchor="start" x="447.5" y="-928.5" font-family="Helvetica,sans-Serif" font-size="10.00">operator++()</text>
<text text-anchor="start" x="434.5" y="-913.5" font-family="Helvetica,sans-Serif" font-size="10.00">+</text>
<text text-anchor="start" x="447.5" y="-913.5" font-family="Helvetica,sans-Serif" font-size="10.00">operator++()</text>
<text text-anchor="start" x="434.5" y="-898.5" font-family="Helvetica,sans-Serif" font-size="10.00">+</text>
<text text-anchor="start" x="447.5" y="-898.5" font-family="Helvetica,sans-Serif" font-size="10.00">operator&#45;=()</text>
<text text-anchor="start" x="434.5" y="-883.5" font-family="Helvetica,sans-Serif" font-size="10.00">+</text>
<text text-anchor="start" x="447.5" y="-883.5" font-family="Helvetica,sans-Serif" font-size="10.00">operator&#45;&#45;()</text>
<text text-anchor="start" x="434.5" y="-868.5" font-family="Helvetica,sans-Serif" font-size="10.00">+</text>
<text text-anchor="start" x="447.5" y="-868.5" font-family="Helvetica,sans-Serif" font-size="10.00">operator&#45;&#45;()</text>
<polygon fill="#666666" stroke="#666666" points="430.5,-998.5 430.5,-998.5 517.5,-998.5 517.5,-998.5 430.5,-998.5"/>
<polygon fill="#666666" stroke="#666666" points="430.5,-983.5 430.5,-983.5 445.5,-983.5 445.5,-983.5 430.5,-983.5"/>
<polygon fill="#666666" stroke="#666666" points="445.5,-983.5 445.5,-983.5 517.5,-983.5 517.5,-983.5 445.5,-983.5"/>
<polygon fill="none" stroke="#666666" points="430,-861.5 430,-1015.5 517,-1015.5 517,-861.5 430,-861.5"/>
</a>
</g>
</g>
<!-- Node9&#45;&gt;Node8 -->
<g id="edge10_Node000008_Node000009" class="edge">
<title>Node9&#45;&gt;Node8</title>
<g id="a_edge10_Node000008_Node000009"><a xlink:title=" ">
<path fill="none" stroke="#63b8ff" d="M493.06,-861.36C502.38,-825.13 513.75,-780.85 524.29,-739.84"/>
<polygon fill="none" stroke="#63b8ff" points="524.32,-739.72 521.94,-732.91 527.31,-728.09 529.69,-734.9 524.32,-739.72"/>
</a>
</g>
<text text-anchor="start" x="507" y="-826.5" font-family="Helvetica,sans-Serif" font-size="10.00" fill="grey">&#45;pin</text>
</g>
<!-- Node10 -->
<g id="Node000010" class="node">
<title>Node10</title>
<g id="a_Node000010"><a xlink:href="../../dc/db4/structAH_1_1Button_1_1InternalState.html" target="_top" xlink:title=" ">
<polygon fill="white" stroke="transparent" points="639.5,-993 535.5,-993 535.5,-884 639.5,-884 639.5,-993"/>
<text text-anchor="start" x="555.5" y="-980.5" font-family="Helvetica,sans-Serif" font-size="10.00">InternalState</text>
<text text-anchor="start" x="539.5" y="-965.5" font-family="Helvetica,sans-Serif" font-size="10.00">+</text>
<text text-anchor="start" x="552.5" y="-965.5" font-family="Helvetica,sans-Serif" font-size="10.00">debounced</text>
<text text-anchor="start" x="539.5" y="-950.5" font-family="Helvetica,sans-Serif" font-size="10.00">+</text>
<text text-anchor="start" x="552.5" y="-950.5" font-family="Helvetica,sans-Serif" font-size="10.00">bouncing</text>
<text text-anchor="start" x="539.5" y="-935.5" font-family="Helvetica,sans-Serif" font-size="10.00">+</text>
<text text-anchor="start" x="552.5" y="-935.5" font-family="Helvetica,sans-Serif" font-size="10.00">prevInput</text>
<text text-anchor="start" x="539.5" y="-920.5" font-family="Helvetica,sans-Serif" font-size="10.00">+</text>
<text text-anchor="start" x="552.5" y="-920.5" font-family="Helvetica,sans-Serif" font-size="10.00">invert</text>
<text text-anchor="start" x="539.5" y="-905.5" font-family="Helvetica,sans-Serif" font-size="10.00">+</text>
<text text-anchor="start" x="552.5" y="-905.5" font-family="Helvetica,sans-Serif" font-size="10.00">prevBounceTime</text>
<text text-anchor="start" x="539.5" y="-890.5" font-family="Helvetica,sans-Serif" font-size="10.00">+</text>
<text text-anchor="start" x="552.5" y="-890.5" font-family="Helvetica,sans-Serif" font-size="10.00">InternalState()</text>
<polygon fill="#666666" stroke="#666666" points="535.5,-975.5 535.5,-975.5 639.5,-975.5 639.5,-975.5 535.5,-975.5"/>
<polygon fill="#666666" stroke="#666666" points="535.5,-900.5 535.5,-900.5 550.5,-900.5 550.5,-900.5 535.5,-900.5"/>
<polygon fill="#666666" stroke="#666666" points="550.5,-900.5 550.5,-900.5 639.5,-900.5 639.5,-900.5 550.5,-900.5"/>
<polygon fill="none" stroke="#666666" points="535.5,-884 535.5,-993 639.5,-993 639.5,-884 535.5,-884"/>
</a>
</g>
</g>
<!-- Node10&#45;&gt;Node8 -->
<g id="edge11_Node000008_Node000010" class="edge">
<title>Node10&#45;&gt;Node8</title>
<g id="a_edge11_Node000008_Node000010"><a xlink:title=" ">
<path fill="none" stroke="#63b8ff" d="M582.35,-883.8C578.6,-844.77 573.37,-790.29 568.6,-740.53"/>
<polygon fill="none" stroke="#63b8ff" points="568.57,-740.27 564.02,-734.68 567.42,-728.33 571.98,-733.92 568.57,-740.27"/>
</a>
</g>
<text text-anchor="start" x="581" y="-826.5" font-family="Helvetica,sans-Serif" font-size="10.00" fill="grey">&#45;state</text>
</g>
<!-- Node11 -->
<g id="Node000011" class="node">
<title>Node11</title>
<g id="a_Node000011"><a xlink:href="../../d7/d0f/classMIDIAddress.html" target="_top" xlink:title="A type&#45;safe utility class for saving a MIDI address consisting of a 7&#45;bit address,...">
<polygon fill="white" stroke="transparent" points="776.5,-803 640.5,-803 640.5,-424 776.5,-424 776.5,-803"/>
<text text-anchor="start" x="677.5" y="-790.5" font-family="Helvetica,sans-Serif" font-size="10.00">MIDIAddress</text>
<text text-anchor="start" x="645.5" y="-775.5" font-family="Helvetica,sans-Serif" font-size="10.00">&#45;</text>
<text text-anchor="start" x="654.5" y="-775.5" font-family="Helvetica,sans-Serif" font-size="10.00">addresses</text>
<text text-anchor="start" x="644.5" y="-760.5" font-family="Helvetica,sans-Serif" font-size="10.00">*</text>
<text text-anchor="start" x="654.5" y="-760.5" font-family="Helvetica,sans-Serif" font-size="10.00">MIDIAddress()</text>
<text text-anchor="start" x="644.5" y="-745.5" font-family="Helvetica,sans-Serif" font-size="10.00">*</text>
<text text-anchor="start" x="654.5" y="-745.5" font-family="Helvetica,sans-Serif" font-size="10.00">MIDIAddress()</text>
<text text-anchor="start" x="644.5" y="-730.5" font-family="Helvetica,sans-Serif" font-size="10.00">*</text>
<text text-anchor="start" x="654.5" y="-730.5" font-family="Helvetica,sans-Serif" font-size="10.00">MIDIAddress()</text>
<text text-anchor="start" x="644.5" y="-715.5" font-family="Helvetica,sans-Serif" font-size="10.00">*</text>
<text text-anchor="start" x="654.5" y="-715.5" font-family="Helvetica,sans-Serif" font-size="10.00">MIDIAddress()</text>
<text text-anchor="start" x="644.5" y="-700.5" font-family="Helvetica,sans-Serif" font-size="10.00">*</text>
<text text-anchor="start" x="654.5" y="-700.5" font-family="Helvetica,sans-Serif" font-size="10.00">MIDIAddress()</text>
<text text-anchor="start" x="644.5" y="-685.5" font-family="Helvetica,sans-Serif" font-size="10.00">*</text>
<text text-anchor="start" x="654.5" y="-685.5" font-family="Helvetica,sans-Serif" font-size="10.00">MIDIAddress()</text>
<text text-anchor="start" x="644.5" y="-670.5" font-family="Helvetica,sans-Serif" font-size="10.00">*</text>
<text text-anchor="start" x="654.5" y="-670.5" font-family="Helvetica,sans-Serif" font-size="10.00">invalid()</text>
<text text-anchor="start" x="644.5" y="-655.5" font-family="Helvetica,sans-Serif" font-size="10.00">*</text>
<text text-anchor="start" x="654.5" y="-655.5" font-family="Helvetica,sans-Serif" font-size="10.00">operator+=()</text>
<text text-anchor="start" x="644.5" y="-640.5" font-family="Helvetica,sans-Serif" font-size="10.00">*</text>
<text text-anchor="start" x="654.5" y="-640.5" font-family="Helvetica,sans-Serif" font-size="10.00">operator&#45;=()</text>
<text text-anchor="start" x="644.5" y="-625.5" font-family="Helvetica,sans-Serif" font-size="10.00">*</text>
<text text-anchor="start" x="654.5" y="-625.5" font-family="Helvetica,sans-Serif" font-size="10.00">operator+()</text>
<text text-anchor="start" x="644.5" y="-610.5" font-family="Helvetica,sans-Serif" font-size="10.00">*</text>
<text text-anchor="start" x="654.5" y="-610.5" font-family="Helvetica,sans-Serif" font-size="10.00">operator&#45;()</text>
<text text-anchor="start" x="644.5" y="-595.5" font-family="Helvetica,sans-Serif" font-size="10.00">*</text>
<text text-anchor="start" x="654.5" y="-595.5" font-family="Helvetica,sans-Serif" font-size="10.00">getAddress()</text>
<text text-anchor="start" x="644.5" y="-580.5" font-family="Helvetica,sans-Serif" font-size="10.00">*</text>
<text text-anchor="start" x="654.5" y="-580.5" font-family="Helvetica,sans-Serif" font-size="10.00">getChannel()</text>
<text text-anchor="start" x="644.5" y="-565.5" font-family="Helvetica,sans-Serif" font-size="10.00">*</text>
<text text-anchor="start" x="654.5" y="-565.5" font-family="Helvetica,sans-Serif" font-size="10.00">getRawChannel()</text>
<text text-anchor="start" x="644.5" y="-550.5" font-family="Helvetica,sans-Serif" font-size="10.00">*</text>
<text text-anchor="start" x="654.5" y="-550.5" font-family="Helvetica,sans-Serif" font-size="10.00">getCableNumber()</text>
<text text-anchor="start" x="644.5" y="-535.5" font-family="Helvetica,sans-Serif" font-size="10.00">*</text>
<text text-anchor="start" x="654.5" y="-535.5" font-family="Helvetica,sans-Serif" font-size="10.00">getRawCableNumber()</text>
<text text-anchor="start" x="644.5" y="-520.5" font-family="Helvetica,sans-Serif" font-size="10.00">*</text>
<text text-anchor="start" x="654.5" y="-520.5" font-family="Helvetica,sans-Serif" font-size="10.00">getChannelCable()</text>
<text text-anchor="start" x="644.5" y="-505.5" font-family="Helvetica,sans-Serif" font-size="10.00">*</text>
<text text-anchor="start" x="654.5" y="-505.5" font-family="Helvetica,sans-Serif" font-size="10.00">operator==()</text>
<text text-anchor="start" x="644.5" y="-490.5" font-family="Helvetica,sans-Serif" font-size="10.00">*</text>
<text text-anchor="start" x="654.5" y="-490.5" font-family="Helvetica,sans-Serif" font-size="10.00">operator!=()</text>
<text text-anchor="start" x="644.5" y="-475.5" font-family="Helvetica,sans-Serif" font-size="10.00">*</text>
<text text-anchor="start" x="654.5" y="-475.5" font-family="Helvetica,sans-Serif" font-size="10.00">isValid()</text>
<text text-anchor="start" x="644.5" y="-460.5" font-family="Helvetica,sans-Serif" font-size="10.00">*</text>
<text text-anchor="start" x="654.5" y="-460.5" font-family="Helvetica,sans-Serif" font-size="10.00">operator bool()</text>
<text text-anchor="start" x="644.5" y="-445.5" font-family="Helvetica,sans-Serif" font-size="10.00">*</text>
<text text-anchor="start" x="654.5" y="-445.5" font-family="Helvetica,sans-Serif" font-size="10.00">matchSingle()</text>
<text text-anchor="start" x="644.5" y="-430.5" font-family="Helvetica,sans-Serif" font-size="10.00">*</text>
<text text-anchor="start" x="654.5" y="-430.5" font-family="Helvetica,sans-Serif" font-size="10.00">matchAddressInRange()</text>
<polygon fill="#666666" stroke="#666666" points="640.5,-785.5 640.5,-785.5 776.5,-785.5 776.5,-785.5 640.5,-785.5"/>
<polygon fill="#666666" stroke="#666666" points="640.5,-770.5 640.5,-770.5 652.5,-770.5 652.5,-770.5 640.5,-770.5"/>
<polygon fill="#666666" stroke="#666666" points="652.5,-770.5 652.5,-770.5 776.5,-770.5 776.5,-770.5 652.5,-770.5"/>
<polygon fill="none" stroke="#666666" points="640.5,-424 640.5,-803 776.5,-803 776.5,-424 640.5,-424"/>
</a>
</g>
</g>
<!-- Node11&#45;&gt;Node2 -->
<g id="edge12_Node000002_Node000011" class="edge">
<title>Node11&#45;&gt;Node2</title>
<g id="a_edge12_Node000002_Node000011"><a xlink:title=" ">
<path fill="none" stroke="#63b8ff" d="M682.41,-423.83C679.81,-405.05 677.2,-386.18 674.68,-367.93"/>
<polygon fill="none" stroke="#63b8ff" points="674.68,-367.93 669.9,-362.53 673.04,-356.04 677.82,-361.43 674.68,-367.93"/>
</a>
</g>
<text text-anchor="start" x="684" y="-387" font-family="Helvetica,sans-Serif" font-size="10.00" fill="grey">&#45;address</text>
</g>
<!-- Node12 -->
<g id="Node000012" class="node">
<title>Node12</title>
<g id="a_Node000012"><a xlink:href="../../db/d8b/classProgramChangeSender.html" target="_top" xlink:title="Class that sends MIDI program change messages.">
<polygon fill="white" stroke="transparent" points="916.5,-645.5 794.5,-645.5 794.5,-581.5 916.5,-581.5 916.5,-645.5"/>
<text text-anchor="start" x="799.5" y="-633.5" font-family="Helvetica,sans-Serif" font-size="10.00">ProgramChangeSender</text>
<text text-anchor="start" x="853.5" y="-618.5" font-family="Helvetica,sans-Serif" font-size="10.00"> </text>
<text text-anchor="start" x="812" y="-603.5" font-family="Helvetica,sans-Serif" font-size="10.00">+</text>
<text text-anchor="start" x="838.5" y="-603.5" font-family="Helvetica,sans-Serif" font-size="10.00">sendOn()</text>
<text text-anchor="start" x="812" y="-588.5" font-family="Helvetica,sans-Serif" font-size="10.00">+</text>
<text text-anchor="start" x="838.5" y="-588.5" font-family="Helvetica,sans-Serif" font-size="10.00">sendOff()</text>
<polygon fill="#666666" stroke="#666666" points="794.5,-628.5 794.5,-628.5 916.5,-628.5 916.5,-628.5 794.5,-628.5"/>
<polygon fill="#666666" stroke="#666666" points="794.5,-613.5 794.5,-613.5 916.5,-613.5 916.5,-613.5 794.5,-613.5"/>
<polygon fill="none" stroke="#666666" points="794.5,-581.5 794.5,-645.5 916.5,-645.5 916.5,-581.5 794.5,-581.5"/>
</a>
</g>
</g>
<!-- Node12&#45;&gt;Node2 -->
<g id="edge13_Node000002_Node000012" class="edge">
<title>Node12&#45;&gt;Node2</title>
<g id="a_edge13_Node000002_Node000012"><a xlink:title=" ">
<path fill="none" stroke="#63b8ff" d="M846.23,-581.26C834.39,-543.14 812.21,-477.19 785.5,-424 771.84,-396.8 755.34,-368.72 738.74,-342.47"/>
<polygon fill="none" stroke="#63b8ff" points="738.59,-342.23 731.99,-339.33 732.13,-332.12 738.73,-335.03 738.59,-342.23"/>
</a>
</g>
<text text-anchor="start" x="776.5" y="-387" font-family="Helvetica,sans-Serif" font-size="10.00" fill="grey">+sender</text>
</g>
</g>
</svg>
