<?xml version="1.0" encoding="UTF-8" standalone="no"?>
<!DOCTYPE svg PUBLIC "-//W3C//DTD SVG 1.1//EN"
 "http://www.w3.org/Graphics/SVG/1.1/DTD/svg11.dtd">
<!-- Generated by graphviz version 2.43.0 (0)
 -->
<!-- Title: CCValueLED&lt; BankSize &gt; Pages: 1 -->
<svg width="806pt" height="1364pt"
 viewBox="0.00 0.00 806.00 1364.00" xmlns="http://www.w3.org/2000/svg" xmlns:xlink="http://www.w3.org/1999/xlink">
<g id="graph0" class="graph" transform="scale(1 1) rotate(0) translate(4 1360)">
<title>CCValueLED&lt; BankSize &gt;</title>
<polygon fill="white" stroke="transparent" points="-4,4 -4,-1360 802,-1360 802,4 -4,4"/>
<!-- Node1 -->
<g id="node1" class="node">
<title>Node1</title>
<g id="a_node1"><a xlink:title=" ">
<polygon fill="#bfbfbf" stroke="black" points="513.5,-0.5 513.5,-57.5 656.5,-57.5 656.5,-0.5 513.5,-0.5"/>
<text text-anchor="middle" x="585" y="-45.5" font-family="Helvetica,sans-Serif" font-size="10.00">CCValueLED&lt; BankSize &gt;</text>
<polyline fill="none" stroke="black" points="513.5,-38.5 656.5,-38.5 "/>
<text text-anchor="middle" x="585" y="-26.5" font-family="Helvetica,sans-Serif" font-size="10.00"> </text>
<polyline fill="none" stroke="black" points="513.5,-19.5 656.5,-19.5 "/>
<text text-anchor="start" x="521.5" y="-7.5" font-family="Helvetica,sans-Serif" font-size="10.00">+ CCValueLED()</text>
</a>
</g>
</g>
<!-- Node2 -->
<g id="node2" class="node">
<title>Node2</title>
<g id="a_node2"><a xlink:href="../../da/df0/classBankable_1_1GenericNoteCCRange.html" target="_top" xlink:title=" ">
<polygon fill="white" stroke="black" points="515,-95.5 515,-240.5 655,-240.5 655,-95.5 515,-95.5"/>
<text text-anchor="start" x="523" y="-228.5" font-family="Helvetica,sans-Serif" font-size="10.00">GenericNoteCCRange</text>
<text text-anchor="start" x="523" y="-217.5" font-family="Helvetica,sans-Serif" font-size="10.00">&lt; MIDIInputElementCC,</text>
<text text-anchor="start" x="523" y="-206.5" font-family="Helvetica,sans-Serif" font-size="10.00"> 1, BankSize, NoteCCLED</text>
<text text-anchor="middle" x="585" y="-195.5" font-family="Helvetica,sans-Serif" font-size="10.00">&lt; 1 &gt; &gt;</text>
<polyline fill="none" stroke="black" points="515,-188.5 655,-188.5 "/>
<text text-anchor="middle" x="585" y="-176.5" font-family="Helvetica,sans-Serif" font-size="10.00"> </text>
<polyline fill="none" stroke="black" points="515,-169.5 655,-169.5 "/>
<text text-anchor="start" x="523" y="-157.5" font-family="Helvetica,sans-Serif" font-size="10.00">+ GenericNoteCCRange()</text>
<text text-anchor="start" x="523" y="-146.5" font-family="Helvetica,sans-Serif" font-size="10.00">&#45; match()</text>
<text text-anchor="start" x="523" y="-135.5" font-family="Helvetica,sans-Serif" font-size="10.00">&#45; getSelection()</text>
<text text-anchor="start" x="523" y="-124.5" font-family="Helvetica,sans-Serif" font-size="10.00">&#45; getBankIndex()</text>
<text text-anchor="start" x="523" y="-113.5" font-family="Helvetica,sans-Serif" font-size="10.00">&#45; getRangeIndex()</text>
<text text-anchor="start" x="523" y="-102.5" font-family="Helvetica,sans-Serif" font-size="10.00">&#45; onBankSettingChange()</text>
</a>
</g>
</g>
<!-- Node2&#45;&gt;Node1 -->
<g id="edge1" class="edge">
<title>Node2&#45;&gt;Node1</title>
<path fill="none" stroke="midnightblue" d="M585,-85.04C585,-75.31 585,-65.95 585,-57.8"/>
<polygon fill="none" stroke="midnightblue" points="581.5,-85.29 585,-95.29 588.5,-85.29 581.5,-85.29"/>
</g>
<!-- Node3 -->
<g id="node3" class="node">
<title>Node3</title>
<g id="a_node3"><a xlink:href="../../d2/df4/classNoteCCRange.html" target="_top" xlink:title=" ">
<polygon fill="white" stroke="black" points="344.5,-333.5 344.5,-522.5 589.5,-522.5 589.5,-333.5 344.5,-333.5"/>
<text text-anchor="start" x="352.5" y="-510.5" font-family="Helvetica,sans-Serif" font-size="10.00">NoteCCRange&lt; MIDIInputElement</text>
<text text-anchor="middle" x="467" y="-499.5" font-family="Helvetica,sans-Serif" font-size="10.00">CC, RangeLen, NumBanks, NoteCCLED&lt; 1 &gt; &gt;</text>
<polyline fill="none" stroke="black" points="344.5,-492.5 589.5,-492.5 "/>
<text text-anchor="middle" x="467" y="-480.5" font-family="Helvetica,sans-Serif" font-size="10.00"> </text>
<polyline fill="none" stroke="black" points="344.5,-473.5 589.5,-473.5 "/>
<text text-anchor="start" x="352.5" y="-461.5" font-family="Helvetica,sans-Serif" font-size="10.00">+ NoteCCRange()</text>
<text text-anchor="start" x="352.5" y="-450.5" font-family="Helvetica,sans-Serif" font-size="10.00">+ getValue()</text>
<text text-anchor="start" x="352.5" y="-439.5" font-family="Helvetica,sans-Serif" font-size="10.00">+ getValue()</text>
<text text-anchor="start" x="352.5" y="-428.5" font-family="Helvetica,sans-Serif" font-size="10.00">+ getValue()</text>
<text text-anchor="start" x="352.5" y="-417.5" font-family="Helvetica,sans-Serif" font-size="10.00">+ begin()</text>
<text text-anchor="start" x="352.5" y="-406.5" font-family="Helvetica,sans-Serif" font-size="10.00">+ reset()</text>
<text text-anchor="start" x="352.5" y="-395.5" font-family="Helvetica,sans-Serif" font-size="10.00">+ length()</text>
<text text-anchor="start" x="352.5" y="-384.5" font-family="Helvetica,sans-Serif" font-size="10.00">&#45; updateImpl()</text>
<text text-anchor="start" x="352.5" y="-373.5" font-family="Helvetica,sans-Serif" font-size="10.00">&#45; getSelection()</text>
<text text-anchor="start" x="352.5" y="-362.5" font-family="Helvetica,sans-Serif" font-size="10.00">&#45; getBankIndex()</text>
<text text-anchor="start" x="352.5" y="-351.5" font-family="Helvetica,sans-Serif" font-size="10.00">&#45; getRangeIndex()</text>
<text text-anchor="start" x="352.5" y="-340.5" font-family="Helvetica,sans-Serif" font-size="10.00">&#45; getValueFromMIDIMessage()</text>
</a>
</g>
</g>
<!-- Node3&#45;&gt;Node2 -->
<g id="edge2" class="edge">
<title>Node3&#45;&gt;Node2</title>
<path fill="none" stroke="midnightblue" d="M514.07,-324.1C526.84,-296.17 540.39,-266.55 552.18,-240.75"/>
<polygon fill="none" stroke="midnightblue" points="510.74,-322.94 509.77,-333.49 517.11,-325.85 510.74,-322.94"/>
</g>
<!-- Node4 -->
<g id="node4" class="node">
<title>Node4</title>
<g id="a_node4"><a xlink:href="../../d3/d96/classMIDIInputElementCC.html" target="_top" xlink:title="Class for objects that listen for incoming MIDI Controller Change events.">
<polygon fill="white" stroke="black" points="125.5,-669.5 125.5,-792.5 270.5,-792.5 270.5,-669.5 125.5,-669.5"/>
<text text-anchor="middle" x="198" y="-780.5" font-family="Helvetica,sans-Serif" font-size="10.00">MIDIInputElementCC</text>
<polyline fill="none" stroke="black" points="125.5,-773.5 270.5,-773.5 "/>
<text text-anchor="middle" x="198" y="-761.5" font-family="Helvetica,sans-Serif" font-size="10.00"> </text>
<polyline fill="none" stroke="black" points="125.5,-754.5 270.5,-754.5 "/>
<text text-anchor="start" x="133.5" y="-742.5" font-family="Helvetica,sans-Serif" font-size="10.00">+ MIDIInputElementCC()</text>
<text text-anchor="start" x="133.5" y="-731.5" font-family="Helvetica,sans-Serif" font-size="10.00">+ ~MIDIInputElementCC()</text>
<text text-anchor="start" x="133.5" y="-720.5" font-family="Helvetica,sans-Serif" font-size="10.00">+ beginAll()</text>
<text text-anchor="start" x="133.5" y="-709.5" font-family="Helvetica,sans-Serif" font-size="10.00">+ updateAll()</text>
<text text-anchor="start" x="133.5" y="-698.5" font-family="Helvetica,sans-Serif" font-size="10.00">+ resetAll()</text>
<text text-anchor="start" x="133.5" y="-687.5" font-family="Helvetica,sans-Serif" font-size="10.00">+ updateAllWith()</text>
<text text-anchor="start" x="133.5" y="-676.5" font-family="Helvetica,sans-Serif" font-size="10.00">&#45; moveDown()</text>
</a>
</g>
</g>
<!-- Node4&#45;&gt;Node3 -->
<g id="edge3" class="edge">
<title>Node4&#45;&gt;Node3</title>
<path fill="none" stroke="midnightblue" d="M259.67,-661.83C283.28,-635.66 310.44,-605.49 335,-578 351,-560.09 368.05,-540.92 384.39,-522.5"/>
<polygon fill="none" stroke="midnightblue" points="256.89,-659.69 252.78,-669.46 262.08,-664.38 256.89,-659.69"/>
</g>
<!-- Node7 -->
<g id="node7" class="node">
<title>Node7</title>
<g id="a_node7"><a xlink:href="../../d4/d23/classDoublyLinkable.html" target="_top" xlink:title=" ">
<polygon fill="white" stroke="black" points="0,-394 0,-462 150,-462 150,-394 0,-394"/>
<text text-anchor="start" x="8" y="-450" font-family="Helvetica,sans-Serif" font-size="10.00">DoublyLinkable&lt; MIDIInput</text>
<text text-anchor="middle" x="75" y="-439" font-family="Helvetica,sans-Serif" font-size="10.00">ElementCC &gt;</text>
<polyline fill="none" stroke="black" points="0,-432 150,-432 "/>
<text text-anchor="middle" x="75" y="-420" font-family="Helvetica,sans-Serif" font-size="10.00"> </text>
<polyline fill="none" stroke="black" points="0,-413 150,-413 "/>
<text text-anchor="start" x="8" y="-401" font-family="Helvetica,sans-Serif" font-size="10.00"># ~DoublyLinkable()</text>
</a>
</g>
</g>
<!-- Node4&#45;&gt;Node7 -->
<g id="edge7" class="edge">
<title>Node4&#45;&gt;Node7</title>
<path fill="none" stroke="#404040" d="M125.23,-670.25C110.85,-654.78 97.57,-637.05 89,-618 68.41,-572.25 67.38,-513.94 69.92,-474.27"/>
<polygon fill="none" stroke="#404040" points="69.93,-474.04 66.4,-467.76 70.85,-462.08 74.38,-468.37 69.93,-474.04"/>
<text text-anchor="middle" x="114.5" y="-610" font-family="Helvetica,sans-Serif" font-size="10.00"> #next</text>
<text text-anchor="middle" x="114.5" y="-599" font-family="Helvetica,sans-Serif" font-size="10.00">#previous</text>
</g>
<!-- Node8 -->
<g id="node8" class="node">
<title>Node8</title>
<g id="a_node8"><a xlink:href="../../dd/d16/classDoublyLinkedList.html" target="_top" xlink:title=" ">
<polygon fill="white" stroke="black" points="168,-278.5 168,-577.5 326,-577.5 326,-278.5 168,-278.5"/>
<text text-anchor="start" x="176" y="-565.5" font-family="Helvetica,sans-Serif" font-size="10.00">DoublyLinkedList&lt; MIDIInput</text>
<text text-anchor="middle" x="247" y="-554.5" font-family="Helvetica,sans-Serif" font-size="10.00">ElementCC &gt;</text>
<polyline fill="none" stroke="black" points="168,-547.5 326,-547.5 "/>
<text text-anchor="middle" x="247" y="-535.5" font-family="Helvetica,sans-Serif" font-size="10.00"> </text>
<polyline fill="none" stroke="black" points="168,-528.5 326,-528.5 "/>
<text text-anchor="start" x="176" y="-516.5" font-family="Helvetica,sans-Serif" font-size="10.00">+ append()</text>
<text text-anchor="start" x="176" y="-505.5" font-family="Helvetica,sans-Serif" font-size="10.00">+ append()</text>
<text text-anchor="start" x="176" y="-494.5" font-family="Helvetica,sans-Serif" font-size="10.00">+ insertBefore()</text>
<text text-anchor="start" x="176" y="-483.5" font-family="Helvetica,sans-Serif" font-size="10.00">+ insertBefore()</text>
<text text-anchor="start" x="176" y="-472.5" font-family="Helvetica,sans-Serif" font-size="10.00">+ insertSorted()</text>
<text text-anchor="start" x="176" y="-461.5" font-family="Helvetica,sans-Serif" font-size="10.00">+ insertSorted()</text>
<text text-anchor="start" x="176" y="-450.5" font-family="Helvetica,sans-Serif" font-size="10.00">+ remove()</text>
<text text-anchor="start" x="176" y="-439.5" font-family="Helvetica,sans-Serif" font-size="10.00">+ remove()</text>
<text text-anchor="start" x="176" y="-428.5" font-family="Helvetica,sans-Serif" font-size="10.00">+ moveDown()</text>
<text text-anchor="start" x="176" y="-417.5" font-family="Helvetica,sans-Serif" font-size="10.00">+ moveDown()</text>
<text text-anchor="start" x="176" y="-406.5" font-family="Helvetica,sans-Serif" font-size="10.00">+ couldContain()</text>
<text text-anchor="start" x="176" y="-395.5" font-family="Helvetica,sans-Serif" font-size="10.00">+ couldContain()</text>
<text text-anchor="start" x="176" y="-384.5" font-family="Helvetica,sans-Serif" font-size="10.00">+ begin()</text>
<text text-anchor="start" x="176" y="-373.5" font-family="Helvetica,sans-Serif" font-size="10.00">+ begin()</text>
<text text-anchor="start" x="176" y="-362.5" font-family="Helvetica,sans-Serif" font-size="10.00">+ end()</text>
<text text-anchor="start" x="176" y="-351.5" font-family="Helvetica,sans-Serif" font-size="10.00">+ end()</text>
<text text-anchor="start" x="176" y="-340.5" font-family="Helvetica,sans-Serif" font-size="10.00">+ rbegin()</text>
<text text-anchor="start" x="176" y="-329.5" font-family="Helvetica,sans-Serif" font-size="10.00">+ rbegin()</text>
<text text-anchor="start" x="176" y="-318.5" font-family="Helvetica,sans-Serif" font-size="10.00">+ rend()</text>
<text text-anchor="start" x="176" y="-307.5" font-family="Helvetica,sans-Serif" font-size="10.00">+ rend()</text>
<text text-anchor="start" x="176" y="-296.5" font-family="Helvetica,sans-Serif" font-size="10.00">+ getFirst()</text>
<text text-anchor="start" x="176" y="-285.5" font-family="Helvetica,sans-Serif" font-size="10.00">+ getLast()</text>
</a>
</g>
</g>
<!-- Node4&#45;&gt;Node8 -->
<g id="edge9" class="edge">
<title>Node4&#45;&gt;Node8</title>
<path fill="none" stroke="#404040" d="M196.08,-669.26C195.63,-652.64 195.22,-634.63 195,-618 194.87,-608.22 193.53,-605.67 195,-596 195.31,-593.94 195.65,-591.86 196,-589.78"/>
<polygon fill="none" stroke="#404040" points="196.04,-589.59 193.2,-582.96 198.23,-577.79 201.07,-584.42 196.04,-589.59"/>
<text text-anchor="middle" x="208" y="-610" font-family="Helvetica,sans-Serif" font-size="10.00"> &#45;first</text>
<text text-anchor="middle" x="208" y="-599" font-family="Helvetica,sans-Serif" font-size="10.00">&#45;last</text>
</g>
<!-- Node5 -->
<g id="node5" class="node">
<title>Node5</title>
<g id="a_node5"><a xlink:href="../../d9/db1/classMIDIInputElement.html" target="_top" xlink:title="A class for objects that listen for incoming MIDI events.">
<polygon fill="white" stroke="black" points="132.5,-863.5 132.5,-1019.5 263.5,-1019.5 263.5,-863.5 132.5,-863.5"/>
<text text-anchor="middle" x="198" y="-1007.5" font-family="Helvetica,sans-Serif" font-size="10.00">MIDIInputElement</text>
<polyline fill="none" stroke="black" points="132.5,-1000.5 263.5,-1000.5 "/>
<text text-anchor="middle" x="198" y="-988.5" font-family="Helvetica,sans-Serif" font-size="10.00"> </text>
<polyline fill="none" stroke="black" points="132.5,-981.5 263.5,-981.5 "/>
<text text-anchor="start" x="140.5" y="-969.5" font-family="Helvetica,sans-Serif" font-size="10.00">+ ~MIDIInputElement()</text>
<text text-anchor="start" x="140.5" y="-958.5" font-family="Helvetica,sans-Serif" font-size="10.00">+ begin()</text>
<text text-anchor="start" x="140.5" y="-947.5" font-family="Helvetica,sans-Serif" font-size="10.00">+ reset()</text>
<text text-anchor="start" x="140.5" y="-936.5" font-family="Helvetica,sans-Serif" font-size="10.00">+ update()</text>
<text text-anchor="start" x="140.5" y="-925.5" font-family="Helvetica,sans-Serif" font-size="10.00">+ updateWith()</text>
<text text-anchor="start" x="140.5" y="-914.5" font-family="Helvetica,sans-Serif" font-size="10.00"># MIDIInputElement()</text>
<text text-anchor="start" x="140.5" y="-903.5" font-family="Helvetica,sans-Serif" font-size="10.00"># MIDIInputElement()</text>
<text text-anchor="start" x="140.5" y="-892.5" font-family="Helvetica,sans-Serif" font-size="10.00">&#45; updateImpl()</text>
<text text-anchor="start" x="140.5" y="-881.5" font-family="Helvetica,sans-Serif" font-size="10.00">&#45; getTarget()</text>
<text text-anchor="start" x="140.5" y="-870.5" font-family="Helvetica,sans-Serif" font-size="10.00">&#45; match()</text>
</a>
</g>
</g>
<!-- Node5&#45;&gt;Node4 -->
<g id="edge4" class="edge">
<title>Node5&#45;&gt;Node4</title>
<path fill="none" stroke="midnightblue" d="M198,-853.24C198,-832.9 198,-811.68 198,-792.77"/>
<polygon fill="none" stroke="midnightblue" points="194.5,-853.45 198,-863.45 201.5,-853.45 194.5,-853.45"/>
</g>
<!-- Node6 -->
<g id="node6" class="node">
<title>Node6</title>
<g id="a_node6"><a xlink:href="../../d7/d0f/classMIDIAddress.html" target="_top" xlink:title="A type&#45;safe utility class for saving a MIDI address consisting of a 7&#45;bit address,...">
<polygon fill="white" stroke="black" points="127,-1067.5 127,-1355.5 269,-1355.5 269,-1067.5 127,-1067.5"/>
<text text-anchor="middle" x="198" y="-1343.5" font-family="Helvetica,sans-Serif" font-size="10.00">MIDIAddress</text>
<polyline fill="none" stroke="black" points="127,-1336.5 269,-1336.5 "/>
<text text-anchor="start" x="135" y="-1324.5" font-family="Helvetica,sans-Serif" font-size="10.00">&#45; addresses</text>
<polyline fill="none" stroke="black" points="127,-1317.5 269,-1317.5 "/>
<text text-anchor="start" x="135" y="-1305.5" font-family="Helvetica,sans-Serif" font-size="10.00">* MIDIAddress()</text>
<text text-anchor="start" x="135" y="-1294.5" font-family="Helvetica,sans-Serif" font-size="10.00">* MIDIAddress()</text>
<text text-anchor="start" x="135" y="-1283.5" font-family="Helvetica,sans-Serif" font-size="10.00">* MIDIAddress()</text>
<text text-anchor="start" x="135" y="-1272.5" font-family="Helvetica,sans-Serif" font-size="10.00">* MIDIAddress()</text>
<text text-anchor="start" x="135" y="-1261.5" font-family="Helvetica,sans-Serif" font-size="10.00">* MIDIAddress()</text>
<text text-anchor="start" x="135" y="-1250.5" font-family="Helvetica,sans-Serif" font-size="10.00">* MIDIAddress()</text>
<text text-anchor="start" x="135" y="-1239.5" font-family="Helvetica,sans-Serif" font-size="10.00">* invalid()</text>
<text text-anchor="start" x="135" y="-1228.5" font-family="Helvetica,sans-Serif" font-size="10.00">* operator+=()</text>
<text text-anchor="start" x="135" y="-1217.5" font-family="Helvetica,sans-Serif" font-size="10.00">* operator&#45;=()</text>
<text text-anchor="start" x="135" y="-1206.5" font-family="Helvetica,sans-Serif" font-size="10.00">* operator+()</text>
<text text-anchor="start" x="135" y="-1195.5" font-family="Helvetica,sans-Serif" font-size="10.00">* operator&#45;()</text>
<text text-anchor="start" x="135" y="-1184.5" font-family="Helvetica,sans-Serif" font-size="10.00">* getAddress()</text>
<text text-anchor="start" x="135" y="-1173.5" font-family="Helvetica,sans-Serif" font-size="10.00">* getChannel()</text>
<text text-anchor="start" x="135" y="-1162.5" font-family="Helvetica,sans-Serif" font-size="10.00">* getRawChannel()</text>
<text text-anchor="start" x="135" y="-1151.5" font-family="Helvetica,sans-Serif" font-size="10.00">* getCableNumber()</text>
<text text-anchor="start" x="135" y="-1140.5" font-family="Helvetica,sans-Serif" font-size="10.00">* getRawCableNumber()</text>
<text text-anchor="start" x="135" y="-1129.5" font-family="Helvetica,sans-Serif" font-size="10.00">* operator==()</text>
<text text-anchor="start" x="135" y="-1118.5" font-family="Helvetica,sans-Serif" font-size="10.00">* operator!=()</text>
<text text-anchor="start" x="135" y="-1107.5" font-family="Helvetica,sans-Serif" font-size="10.00">* isValid()</text>
<text text-anchor="start" x="135" y="-1096.5" font-family="Helvetica,sans-Serif" font-size="10.00">* operator bool()</text>
<text text-anchor="start" x="135" y="-1085.5" font-family="Helvetica,sans-Serif" font-size="10.00">* matchSingle()</text>
<text text-anchor="start" x="135" y="-1074.5" font-family="Helvetica,sans-Serif" font-size="10.00">* matchAddressInRange()</text>
</a>
</g>
</g>
<!-- Node6&#45;&gt;Node5 -->
<g id="edge5" class="edge">
<title>Node6&#45;&gt;Node5</title>
<path fill="none" stroke="#404040" d="M198,-1067.48C198,-1055.39 198,-1043.39 198,-1031.9"/>
<polygon fill="none" stroke="#404040" points="198,-1031.63 194,-1025.63 198,-1019.63 202,-1025.63 198,-1031.63"/>
<text text-anchor="middle" x="223" y="-1041" font-family="Helvetica,sans-Serif" font-size="10.00"> #address</text>
</g>
<!-- Node7&#45;&gt;Node4 -->
<g id="edge6" class="edge">
<title>Node7&#45;&gt;Node4</title>
<path fill="none" stroke="midnightblue" d="M92.55,-471.95C113.69,-523.68 149.33,-610.91 173.26,-669.45"/>
<polygon fill="none" stroke="midnightblue" points="95.67,-470.34 88.65,-462.41 89.19,-472.99 95.67,-470.34"/>
</g>
<!-- Node8&#45;&gt;Node4 -->
<g id="edge8" class="edge">
<title>Node8&#45;&gt;Node4</title>
<path fill="none" stroke="#404040" d="M231.43,-577.56C229.47,-591.26 227.33,-604.91 225,-618 222.72,-630.82 219.85,-644.35 216.84,-657.42"/>
<polygon fill="none" stroke="#404040" points="216.81,-657.57 219.33,-664.32 214.06,-669.25 211.54,-662.49 216.81,-657.57"/>
<text text-anchor="middle" x="255.5" y="-604.5" font-family="Helvetica,sans-Serif" font-size="10.00"> &#45;elements</text>
</g>
<!-- Node9 -->
<g id="node9" class="node">
<title>Node9</title>
<g id="a_node9"><a xlink:href="../../d7/dab/classINoteCCValue.html" target="_top" xlink:title="Interface for NoteCCValue objects: provides getters for the velocity or controller values.">
<polygon fill="white" stroke="black" points="296,-686 296,-776 398,-776 398,-686 296,-686"/>
<text text-anchor="middle" x="347" y="-764" font-family="Helvetica,sans-Serif" font-size="10.00">INoteCCValue</text>
<polyline fill="none" stroke="black" points="296,-757 398,-757 "/>
<text text-anchor="start" x="304" y="-745" font-family="Helvetica,sans-Serif" font-size="10.00">&#45; rangeLength</text>
<polyline fill="none" stroke="black" points="296,-738 398,-738 "/>
<text text-anchor="start" x="304" y="-726" font-family="Helvetica,sans-Serif" font-size="10.00">+ length()</text>
<text text-anchor="start" x="304" y="-715" font-family="Helvetica,sans-Serif" font-size="10.00">+ getValue()</text>
<text text-anchor="start" x="304" y="-704" font-family="Helvetica,sans-Serif" font-size="10.00">+ getValue()</text>
<text text-anchor="start" x="304" y="-693" font-family="Helvetica,sans-Serif" font-size="10.00"># INoteCCValue()</text>
</a>
</g>
</g>
<!-- Node9&#45;&gt;Node3 -->
<g id="edge10" class="edge">
<title>Node9&#45;&gt;Node3</title>
<path fill="none" stroke="midnightblue" d="M368.3,-676.57C385.28,-633.97 409.48,-573.28 429.66,-522.65"/>
<polygon fill="none" stroke="midnightblue" points="365.03,-675.32 364.58,-685.91 371.53,-677.92 365.03,-675.32"/>
</g>
<!-- Node10 -->
<g id="node10" class="node">
<title>Node10</title>
<g id="a_node10"><a xlink:href="../../d5/ddd/classNoteCCLED.html" target="_top" xlink:title=" ">
<polygon fill="white" stroke="black" points="416.5,-675 416.5,-787 517.5,-787 517.5,-675 416.5,-675"/>
<text text-anchor="middle" x="467" y="-775" font-family="Helvetica,sans-Serif" font-size="10.00">NoteCCLED&lt; 1 &gt;</text>
<polyline fill="none" stroke="black" points="416.5,-768 517.5,-768 "/>
<text text-anchor="start" x="424.5" y="-756" font-family="Helvetica,sans-Serif" font-size="10.00">&#45; ledPins</text>
<text text-anchor="start" x="424.5" y="-745" font-family="Helvetica,sans-Serif" font-size="10.00">&#45; threshold</text>
<polyline fill="none" stroke="black" points="416.5,-738 517.5,-738 "/>
<text text-anchor="start" x="424.5" y="-726" font-family="Helvetica,sans-Serif" font-size="10.00">+ NoteCCLED()</text>
<text text-anchor="start" x="424.5" y="-715" font-family="Helvetica,sans-Serif" font-size="10.00">+ setThreshold()</text>
<text text-anchor="start" x="424.5" y="-704" font-family="Helvetica,sans-Serif" font-size="10.00">+ getThreshold()</text>
<text text-anchor="start" x="424.5" y="-693" font-family="Helvetica,sans-Serif" font-size="10.00">+ begin()</text>
<text text-anchor="start" x="424.5" y="-682" font-family="Helvetica,sans-Serif" font-size="10.00">+ update()</text>
</a>
</g>
</g>
<!-- Node10&#45;&gt;Node3 -->
<g id="edge11" class="edge">
<title>Node10&#45;&gt;Node3</title>
<path fill="none" stroke="#404040" d="M467,-674.79C467,-635.68 467,-581.99 467,-534.76"/>
<polygon fill="none" stroke="#404040" points="467,-534.59 463,-528.59 467,-522.59 471,-528.59 467,-534.59"/>
<text text-anchor="middle" x="493" y="-604.5" font-family="Helvetica,sans-Serif" font-size="10.00"> +callback</text>
</g>
<!-- Node11 -->
<g id="node11" class="node">
<title>Node11</title>
<g id="a_node11"><a xlink:href="../../de/d07/structSimpleNoteCCValueCallback.html" target="_top" xlink:title="A callback for NoteCCRange with an action that can be implemented by the user.">
<polygon fill="white" stroke="black" points="379.5,-896.5 379.5,-986.5 554.5,-986.5 554.5,-896.5 379.5,-896.5"/>
<text text-anchor="middle" x="467" y="-974.5" font-family="Helvetica,sans-Serif" font-size="10.00">SimpleNoteCCValueCallback</text>
<polyline fill="none" stroke="black" points="379.5,-967.5 554.5,-967.5 "/>
<text text-anchor="middle" x="467" y="-955.5" font-family="Helvetica,sans-Serif" font-size="10.00"> </text>
<polyline fill="none" stroke="black" points="379.5,-948.5 554.5,-948.5 "/>
<text text-anchor="start" x="387.5" y="-936.5" font-family="Helvetica,sans-Serif" font-size="10.00">+ begin()</text>
<text text-anchor="start" x="387.5" y="-925.5" font-family="Helvetica,sans-Serif" font-size="10.00">+ update()</text>
<text text-anchor="start" x="387.5" y="-914.5" font-family="Helvetica,sans-Serif" font-size="10.00">+ updateAll()</text>
<text text-anchor="start" x="387.5" y="-903.5" font-family="Helvetica,sans-Serif" font-size="10.00"># SimpleNoteCCValueCallback()</text>
</a>
</g>
</g>
<!-- Node11&#45;&gt;Node10 -->
<g id="edge12" class="edge">
<title>Node11&#45;&gt;Node10</title>
<path fill="none" stroke="midnightblue" d="M467,-886.27C467,-855.82 467,-817.92 467,-787.31"/>
<polygon fill="none" stroke="midnightblue" points="463.5,-886.28 467,-896.28 470.5,-886.28 463.5,-886.28"/>
</g>
<!-- Node12 -->
<g id="node12" class="node">
<title>Node12</title>
<g id="a_node12"><a xlink:href="../../d0/d32/structAH_1_1Array.html" target="_top" xlink:title=" ">
<polygon fill="white" stroke="black" points="535.5,-636.5 535.5,-825.5 696.5,-825.5 696.5,-636.5 535.5,-636.5"/>
<text text-anchor="start" x="543.5" y="-813.5" font-family="Helvetica,sans-Serif" font-size="10.00">Array&lt; Array&lt; uint8</text>
<text text-anchor="middle" x="616" y="-802.5" font-family="Helvetica,sans-Serif" font-size="10.00">_t, RangeLen &gt;, NumBanks &gt;</text>
<polyline fill="none" stroke="black" points="535.5,-795.5 696.5,-795.5 "/>
<text text-anchor="start" x="543.5" y="-783.5" font-family="Helvetica,sans-Serif" font-size="10.00">+ data</text>
<text text-anchor="start" x="543.5" y="-772.5" font-family="Helvetica,sans-Serif" font-size="10.00">+ length</text>
<polyline fill="none" stroke="black" points="535.5,-765.5 696.5,-765.5 "/>
<text text-anchor="start" x="543.5" y="-753.5" font-family="Helvetica,sans-Serif" font-size="10.00">+ operator[]()</text>
<text text-anchor="start" x="543.5" y="-742.5" font-family="Helvetica,sans-Serif" font-size="10.00">+ operator[]()</text>
<text text-anchor="start" x="543.5" y="-731.5" font-family="Helvetica,sans-Serif" font-size="10.00">+ begin()</text>
<text text-anchor="start" x="543.5" y="-720.5" font-family="Helvetica,sans-Serif" font-size="10.00">+ begin()</text>
<text text-anchor="start" x="543.5" y="-709.5" font-family="Helvetica,sans-Serif" font-size="10.00">+ end()</text>
<text text-anchor="start" x="543.5" y="-698.5" font-family="Helvetica,sans-Serif" font-size="10.00">+ end()</text>
<text text-anchor="start" x="543.5" y="-687.5" font-family="Helvetica,sans-Serif" font-size="10.00">+ operator==()</text>
<text text-anchor="start" x="543.5" y="-676.5" font-family="Helvetica,sans-Serif" font-size="10.00">+ operator!=()</text>
<text text-anchor="start" x="543.5" y="-665.5" font-family="Helvetica,sans-Serif" font-size="10.00">+ slice()</text>
<text text-anchor="start" x="543.5" y="-654.5" font-family="Helvetica,sans-Serif" font-size="10.00">+ slice()</text>
<text text-anchor="start" x="543.5" y="-643.5" font-family="Helvetica,sans-Serif" font-size="10.00">+ cslice()</text>
</a>
</g>
</g>
<!-- Node12&#45;&gt;Node3 -->
<g id="edge13" class="edge">
<title>Node12&#45;&gt;Node3</title>
<path fill="none" stroke="#404040" d="M569.67,-636.41C553.55,-603.85 535.37,-567.12 518.84,-533.72"/>
<polygon fill="none" stroke="#404040" points="518.62,-533.28 512.38,-529.68 513.3,-522.53 519.55,-526.13 518.62,-533.28"/>
<text text-anchor="middle" x="579.5" y="-604.5" font-family="Helvetica,sans-Serif" font-size="10.00"> &#45;values</text>
</g>
<!-- Node13 -->
<g id="node13" class="node">
<title>Node13</title>
<g id="a_node13"><a xlink:href="../../db/d6e/classBankableMIDIInput.html" target="_top" xlink:title=" ">
<polygon fill="white" stroke="black" points="608,-328 608,-528 798,-528 798,-328 608,-328"/>
<text text-anchor="start" x="616" y="-516" font-family="Helvetica,sans-Serif" font-size="10.00">BankableMIDIInput&lt;</text>
<text text-anchor="middle" x="703" y="-505" font-family="Helvetica,sans-Serif" font-size="10.00"> NumBanks &gt;</text>
<polyline fill="none" stroke="black" points="608,-498 798,-498 "/>
<text text-anchor="start" x="616" y="-486" font-family="Helvetica,sans-Serif" font-size="10.00">&#45; bank</text>
<text text-anchor="start" x="616" y="-475" font-family="Helvetica,sans-Serif" font-size="10.00">&#45; type</text>
<polyline fill="none" stroke="black" points="608,-468 798,-468 "/>
<text text-anchor="start" x="616" y="-456" font-family="Helvetica,sans-Serif" font-size="10.00">+ ~BankableMIDIInput()</text>
<text text-anchor="start" x="616" y="-445" font-family="Helvetica,sans-Serif" font-size="10.00">+ getSelection()</text>
<text text-anchor="start" x="616" y="-434" font-family="Helvetica,sans-Serif" font-size="10.00">+ getBankIndex()</text>
<text text-anchor="start" x="616" y="-423" font-family="Helvetica,sans-Serif" font-size="10.00"># BankableMIDIInput()</text>
<text text-anchor="start" x="616" y="-412" font-family="Helvetica,sans-Serif" font-size="10.00"># BankableMIDIInput()</text>
<text text-anchor="start" x="616" y="-401" font-family="Helvetica,sans-Serif" font-size="10.00"># matchBankable()</text>
<text text-anchor="start" x="616" y="-390" font-family="Helvetica,sans-Serif" font-size="10.00"># matchBankable()</text>
<text text-anchor="start" x="616" y="-379" font-family="Helvetica,sans-Serif" font-size="10.00"># matchBankableInRange()</text>
<text text-anchor="start" x="616" y="-368" font-family="Helvetica,sans-Serif" font-size="10.00"># getRangeIndex()</text>
<text text-anchor="start" x="616" y="-357" font-family="Helvetica,sans-Serif" font-size="10.00"># matchBankableAddressInRange()</text>
<text text-anchor="start" x="616" y="-346" font-family="Helvetica,sans-Serif" font-size="10.00"># inRange()</text>
<text text-anchor="start" x="616" y="-335" font-family="Helvetica,sans-Serif" font-size="10.00">&#45; onBankSettingChange()</text>
</a>
</g>
</g>
<!-- Node13&#45;&gt;Node2 -->
<g id="edge14" class="edge">
<title>Node13&#45;&gt;Node2</title>
<path fill="none" stroke="midnightblue" d="M653.47,-318.71C641.39,-292.3 628.78,-264.71 617.71,-240.51"/>
<polygon fill="none" stroke="midnightblue" points="650.37,-320.35 657.72,-327.99 656.74,-317.44 650.37,-320.35"/>
</g>
</g>
</svg>
