<?xml version="1.0" encoding="UTF-8" standalone="no"?>
<!DOCTYPE svg PUBLIC "-//W3C//DTD SVG 1.1//EN"
 "http://www.w3.org/Graphics/SVG/1.1/DTD/svg11.dtd">
<!-- Generated by graphviz version 2.43.0 (0)
 -->
<!-- Title: IncrementDecrementSelectorLEDs&lt; N &gt; Pages: 1 -->
<svg width="737pt" height="1125pt"
 viewBox="0.00 0.00 736.50 1125.00" xmlns="http://www.w3.org/2000/svg" xmlns:xlink="http://www.w3.org/1999/xlink">
<g id="graph0" class="graph" transform="scale(1 1) rotate(0) translate(4 1121)">
<title>IncrementDecrementSelectorLEDs&lt; N &gt;</title>
<polygon fill="white" stroke="transparent" points="-4,4 -4,-1121 732.5,-1121 732.5,4 -4,4"/>
<!-- Node1 -->
<g id="node1" class="node">
<title>Node1</title>
<g id="a_node1"><a xlink:title="Selector with two buttons (one to increment, one to decrement). This version displays the setting usi...">
<polygon fill="#bfbfbf" stroke="black" points="291,-0.5 291,-79.5 462,-79.5 462,-0.5 291,-0.5"/>
<text text-anchor="start" x="299" y="-67.5" font-family="Helvetica,sans-Serif" font-size="10.00">IncrementDecrementSelector</text>
<text text-anchor="middle" x="376.5" y="-56.5" font-family="Helvetica,sans-Serif" font-size="10.00">LEDs&lt; N &gt;</text>
<polyline fill="none" stroke="black" points="291,-49.5 462,-49.5 "/>
<text text-anchor="middle" x="376.5" y="-37.5" font-family="Helvetica,sans-Serif" font-size="10.00"> </text>
<polyline fill="none" stroke="black" points="291,-30.5 462,-30.5 "/>
<text text-anchor="start" x="299" y="-18.5" font-family="Helvetica,sans-Serif" font-size="10.00">+ IncrementDecrementSelector</text>
<text text-anchor="start" x="299" y="-7.5" font-family="Helvetica,sans-Serif" font-size="10.00">LEDs()</text>
</a>
</g>
</g>
<!-- Node2 -->
<g id="node2" class="node">
<title>Node2</title>
<g id="a_node2"><a xlink:href="../../d3/d78/classGenericIncrementDecrementSelector.html" target="_top" xlink:title=" ">
<polygon fill="white" stroke="black" points="262.5,-117.5 262.5,-240.5 490.5,-240.5 490.5,-117.5 262.5,-117.5"/>
<text text-anchor="start" x="270.5" y="-228.5" font-family="Helvetica,sans-Serif" font-size="10.00">GenericIncrementDecrement</text>
<text text-anchor="middle" x="376.5" y="-217.5" font-family="Helvetica,sans-Serif" font-size="10.00">Selector&lt; N, SelectorLEDsCallback&lt; N &gt; &gt;</text>
<polyline fill="none" stroke="black" points="262.5,-210.5 490.5,-210.5 "/>
<text text-anchor="start" x="270.5" y="-198.5" font-family="Helvetica,sans-Serif" font-size="10.00">&#45; wrap</text>
<polyline fill="none" stroke="black" points="262.5,-191.5 490.5,-191.5 "/>
<text text-anchor="start" x="270.5" y="-179.5" font-family="Helvetica,sans-Serif" font-size="10.00">+ GenericIncrementDecrement</text>
<text text-anchor="start" x="270.5" y="-168.5" font-family="Helvetica,sans-Serif" font-size="10.00">Selector()</text>
<text text-anchor="start" x="270.5" y="-157.5" font-family="Helvetica,sans-Serif" font-size="10.00">+ begin()</text>
<text text-anchor="start" x="270.5" y="-146.5" font-family="Helvetica,sans-Serif" font-size="10.00">+ update()</text>
<text text-anchor="start" x="270.5" y="-135.5" font-family="Helvetica,sans-Serif" font-size="10.00">+ invert()</text>
<text text-anchor="start" x="270.5" y="-124.5" font-family="Helvetica,sans-Serif" font-size="10.00">+ getButtonsState()</text>
</a>
</g>
</g>
<!-- Node2&#45;&gt;Node1 -->
<g id="edge1" class="edge">
<title>Node2&#45;&gt;Node1</title>
<path fill="none" stroke="midnightblue" d="M376.5,-106.93C376.5,-97.55 376.5,-88.22 376.5,-79.67"/>
<polygon fill="none" stroke="midnightblue" points="373,-107.11 376.5,-117.11 380,-107.11 373,-107.11"/>
</g>
<!-- Node3 -->
<g id="node3" class="node">
<title>Node3</title>
<g id="a_node3"><a xlink:href="../../d0/d04/classGenericSelector.html" target="_top" xlink:title=" ">
<polygon fill="white" stroke="black" points="55,-360 55,-516 180,-516 180,-360 55,-360"/>
<text text-anchor="start" x="63" y="-504" font-family="Helvetica,sans-Serif" font-size="10.00">GenericSelector&lt; N,</text>
<text text-anchor="start" x="63" y="-493" font-family="Helvetica,sans-Serif" font-size="10.00"> SelectorLEDsCallback</text>
<text text-anchor="middle" x="117.5" y="-482" font-family="Helvetica,sans-Serif" font-size="10.00">&lt; N &gt; &gt;</text>
<polyline fill="none" stroke="black" points="55,-475 180,-475 "/>
<text text-anchor="start" x="63" y="-463" font-family="Helvetica,sans-Serif" font-size="10.00">+ callback</text>
<text text-anchor="start" x="63" y="-452" font-family="Helvetica,sans-Serif" font-size="10.00">&#45; selectable</text>
<polyline fill="none" stroke="black" points="55,-445 180,-445 "/>
<text text-anchor="start" x="63" y="-433" font-family="Helvetica,sans-Serif" font-size="10.00">+ GenericSelector()</text>
<text text-anchor="start" x="63" y="-422" font-family="Helvetica,sans-Serif" font-size="10.00">+ begin()</text>
<text text-anchor="start" x="63" y="-411" font-family="Helvetica,sans-Serif" font-size="10.00">+ update()</text>
<text text-anchor="start" x="63" y="-400" font-family="Helvetica,sans-Serif" font-size="10.00">+ reset()</text>
<text text-anchor="start" x="63" y="-389" font-family="Helvetica,sans-Serif" font-size="10.00">+ set()</text>
<text text-anchor="start" x="63" y="-378" font-family="Helvetica,sans-Serif" font-size="10.00">+ increment()</text>
<text text-anchor="start" x="63" y="-367" font-family="Helvetica,sans-Serif" font-size="10.00">+ decrement()</text>
</a>
</g>
</g>
<!-- Node3&#45;&gt;Node2 -->
<g id="edge2" class="edge">
<title>Node3&#45;&gt;Node2</title>
<path fill="none" stroke="midnightblue" d="M147.81,-350.83C158.35,-328.67 171.82,-306.02 188.5,-288 209.22,-265.63 235.64,-246.6 262.1,-231.04"/>
<polygon fill="none" stroke="midnightblue" points="144.61,-349.4 143.62,-359.95 150.97,-352.32 144.61,-349.4"/>
</g>
<!-- Node4 -->
<g id="node4" class="node">
<title>Node4</title>
<g id="a_node4"><a xlink:href="../../dc/d77/classSelectorBase.html" target="_top" xlink:title="Base class for all Selectors exposing the get method, so it can be used by display elements etc,...">
<polygon fill="white" stroke="black" points="113,-707 113,-775 212,-775 212,-707 113,-707"/>
<text text-anchor="middle" x="162.5" y="-763" font-family="Helvetica,sans-Serif" font-size="10.00">SelectorBase</text>
<polyline fill="none" stroke="black" points="113,-756 212,-756 "/>
<text text-anchor="start" x="121" y="-744" font-family="Helvetica,sans-Serif" font-size="10.00"># setting</text>
<polyline fill="none" stroke="black" points="113,-737 212,-737 "/>
<text text-anchor="start" x="121" y="-725" font-family="Helvetica,sans-Serif" font-size="10.00">+ get()</text>
<text text-anchor="start" x="121" y="-714" font-family="Helvetica,sans-Serif" font-size="10.00"># SelectorBase()</text>
</a>
</g>
</g>
<!-- Node4&#45;&gt;Node3 -->
<g id="edge3" class="edge">
<title>Node4&#45;&gt;Node3</title>
<path fill="none" stroke="midnightblue" d="M156.04,-696.77C149,-649.71 137.61,-573.5 129.03,-516.13"/>
<polygon fill="none" stroke="midnightblue" points="152.62,-697.55 157.56,-706.93 159.54,-696.52 152.62,-697.55"/>
</g>
<!-- Node5 -->
<g id="node5" class="node">
<title>Node5</title>
<g id="a_node5"><a xlink:href="../../d1/d55/classAH_1_1Updatable.html" target="_top" xlink:title="A super class for object that have to be updated regularly.">
<polygon fill="white" stroke="black" points="0,-696 0,-786 95,-786 95,-696 0,-696"/>
<text text-anchor="middle" x="47.5" y="-774" font-family="Helvetica,sans-Serif" font-size="10.00">Updatable&lt; T &gt;</text>
<polyline fill="none" stroke="black" points="0,-767 95,-767 "/>
<text text-anchor="middle" x="47.5" y="-755" font-family="Helvetica,sans-Serif" font-size="10.00"> </text>
<polyline fill="none" stroke="black" points="0,-748 95,-748 "/>
<text text-anchor="start" x="8" y="-736" font-family="Helvetica,sans-Serif" font-size="10.00">* begin()</text>
<text text-anchor="start" x="8" y="-725" font-family="Helvetica,sans-Serif" font-size="10.00">* update()</text>
<text text-anchor="start" x="8" y="-714" font-family="Helvetica,sans-Serif" font-size="10.00">* beginAll()</text>
<text text-anchor="start" x="8" y="-703" font-family="Helvetica,sans-Serif" font-size="10.00">* updateAll()</text>
</a>
</g>
</g>
<!-- Node5&#45;&gt;Node3 -->
<g id="edge4" class="edge">
<title>Node5&#45;&gt;Node3</title>
<path fill="none" stroke="midnightblue" d="M60.02,-686.16C71.02,-638.84 87.17,-569.42 99.55,-516.19"/>
<polygon fill="none" stroke="midnightblue" points="56.61,-685.38 57.75,-695.91 63.43,-686.96 56.61,-685.38"/>
</g>
<!-- Node6 -->
<g id="node6" class="node">
<title>Node6</title>
<g id="a_node6"><a xlink:href="../../d8/d1a/classAH_1_1UpdatableCRTP.html" target="_top" xlink:title=" ">
<polygon fill="white" stroke="black" points="200,-883.5 200,-1116.5 353,-1116.5 353,-883.5 200,-883.5"/>
<text text-anchor="start" x="208" y="-1104.5" font-family="Helvetica,sans-Serif" font-size="10.00">UpdatableCRTP&lt; Updatable</text>
<text text-anchor="middle" x="276.5" y="-1093.5" font-family="Helvetica,sans-Serif" font-size="10.00">&lt; NormalUpdatable &gt; &gt;</text>
<polyline fill="none" stroke="black" points="200,-1086.5 353,-1086.5 "/>
<text text-anchor="middle" x="276.5" y="-1074.5" font-family="Helvetica,sans-Serif" font-size="10.00"> </text>
<polyline fill="none" stroke="black" points="200,-1067.5 353,-1067.5 "/>
<text text-anchor="start" x="208" y="-1055.5" font-family="Helvetica,sans-Serif" font-size="10.00">+ ~UpdatableCRTP()</text>
<text text-anchor="start" x="208" y="-1044.5" font-family="Helvetica,sans-Serif" font-size="10.00"># UpdatableCRTP()</text>
<text text-anchor="start" x="208" y="-1033.5" font-family="Helvetica,sans-Serif" font-size="10.00"># UpdatableCRTP()</text>
<text text-anchor="start" x="208" y="-1022.5" font-family="Helvetica,sans-Serif" font-size="10.00"># UpdatableCRTP()</text>
<text text-anchor="start" x="208" y="-1011.5" font-family="Helvetica,sans-Serif" font-size="10.00"># operator=()</text>
<text text-anchor="start" x="208" y="-1000.5" font-family="Helvetica,sans-Serif" font-size="10.00"># operator=()</text>
<text text-anchor="start" x="208" y="-989.5" font-family="Helvetica,sans-Serif" font-size="10.00">* enable()</text>
<text text-anchor="start" x="208" y="-978.5" font-family="Helvetica,sans-Serif" font-size="10.00">* disable()</text>
<text text-anchor="start" x="208" y="-967.5" font-family="Helvetica,sans-Serif" font-size="10.00">* isEnabled()</text>
<text text-anchor="start" x="208" y="-956.5" font-family="Helvetica,sans-Serif" font-size="10.00">* moveDown()</text>
<text text-anchor="start" x="208" y="-945.5" font-family="Helvetica,sans-Serif" font-size="10.00">* enable()</text>
<text text-anchor="start" x="208" y="-934.5" font-family="Helvetica,sans-Serif" font-size="10.00">* enable()</text>
<text text-anchor="start" x="208" y="-923.5" font-family="Helvetica,sans-Serif" font-size="10.00">* enable()</text>
<text text-anchor="start" x="208" y="-912.5" font-family="Helvetica,sans-Serif" font-size="10.00">* disable()</text>
<text text-anchor="start" x="208" y="-901.5" font-family="Helvetica,sans-Serif" font-size="10.00">* disable()</text>
<text text-anchor="start" x="208" y="-890.5" font-family="Helvetica,sans-Serif" font-size="10.00">* disable()</text>
</a>
</g>
</g>
<!-- Node6&#45;&gt;Node5 -->
<g id="edge5" class="edge">
<title>Node6&#45;&gt;Node5</title>
<path fill="none" stroke="midnightblue" d="M192.08,-928.17C162.28,-901 129.69,-868.64 103.5,-836 91.25,-820.74 79.8,-802.54 70.48,-786.24"/>
<polygon fill="none" stroke="midnightblue" points="189.83,-930.86 199.59,-934.97 194.53,-925.66 189.83,-930.86"/>
</g>
<!-- Node8 -->
<g id="node8" class="node">
<title>Node8</title>
<g id="a_node8"><a xlink:href="../../d1/d55/classAH_1_1Updatable.html" target="_top" xlink:title=" ">
<polygon fill="white" stroke="black" points="268.5,-696 268.5,-786 444.5,-786 444.5,-696 268.5,-696"/>
<text text-anchor="middle" x="356.5" y="-774" font-family="Helvetica,sans-Serif" font-size="10.00">Updatable&lt; NormalUpdatable &gt;</text>
<polyline fill="none" stroke="black" points="268.5,-767 444.5,-767 "/>
<text text-anchor="middle" x="356.5" y="-755" font-family="Helvetica,sans-Serif" font-size="10.00"> </text>
<polyline fill="none" stroke="black" points="268.5,-748 444.5,-748 "/>
<text text-anchor="start" x="276.5" y="-736" font-family="Helvetica,sans-Serif" font-size="10.00">* begin()</text>
<text text-anchor="start" x="276.5" y="-725" font-family="Helvetica,sans-Serif" font-size="10.00">* update()</text>
<text text-anchor="start" x="276.5" y="-714" font-family="Helvetica,sans-Serif" font-size="10.00">* beginAll()</text>
<text text-anchor="start" x="276.5" y="-703" font-family="Helvetica,sans-Serif" font-size="10.00">* updateAll()</text>
</a>
</g>
</g>
<!-- Node6&#45;&gt;Node8 -->
<g id="edge8" class="edge">
<title>Node6&#45;&gt;Node8</title>
<path fill="none" stroke="midnightblue" d="M315.55,-873.55C325.33,-842.15 335.18,-810.5 342.77,-786.12"/>
<polygon fill="none" stroke="midnightblue" points="312.15,-872.69 312.52,-883.28 318.84,-874.77 312.15,-872.69"/>
</g>
<!-- Node7 -->
<g id="node7" class="node">
<title>Node7</title>
<g id="a_node7"><a xlink:href="../../d4/d23/classDoublyLinkable.html" target="_top" xlink:title=" ">
<polygon fill="white" stroke="black" points="198,-376.5 198,-499.5 351,-499.5 351,-376.5 198,-376.5"/>
<text text-anchor="start" x="206" y="-487.5" font-family="Helvetica,sans-Serif" font-size="10.00">DoublyLinkable&lt; Updatable</text>
<text text-anchor="middle" x="274.5" y="-476.5" font-family="Helvetica,sans-Serif" font-size="10.00">&lt; NormalUpdatable &gt; &gt;</text>
<polyline fill="none" stroke="black" points="198,-469.5 351,-469.5 "/>
<text text-anchor="middle" x="274.5" y="-457.5" font-family="Helvetica,sans-Serif" font-size="10.00"> </text>
<polyline fill="none" stroke="black" points="198,-450.5 351,-450.5 "/>
<text text-anchor="start" x="206" y="-438.5" font-family="Helvetica,sans-Serif" font-size="10.00"># ~DoublyLinkable()</text>
<text text-anchor="start" x="206" y="-427.5" font-family="Helvetica,sans-Serif" font-size="10.00"># DoublyLinkable()</text>
<text text-anchor="start" x="206" y="-416.5" font-family="Helvetica,sans-Serif" font-size="10.00"># DoublyLinkable()</text>
<text text-anchor="start" x="206" y="-405.5" font-family="Helvetica,sans-Serif" font-size="10.00"># DoublyLinkable()</text>
<text text-anchor="start" x="206" y="-394.5" font-family="Helvetica,sans-Serif" font-size="10.00"># operator=()</text>
<text text-anchor="start" x="206" y="-383.5" font-family="Helvetica,sans-Serif" font-size="10.00"># operator=()</text>
</a>
</g>
</g>
<!-- Node7&#45;&gt;Node6 -->
<g id="edge6" class="edge">
<title>Node7&#45;&gt;Node6</title>
<path fill="none" stroke="midnightblue" d="M268.1,-509.8C264.8,-549.75 261.14,-600.62 259.5,-646 256.45,-730.39 255.11,-751.67 259.5,-836 260.3,-851.34 261.52,-867.47 262.94,-883.36"/>
<polygon fill="none" stroke="midnightblue" points="271.6,-509.88 268.95,-499.62 264.63,-509.3 271.6,-509.88"/>
</g>
<!-- Node8&#45;&gt;Node7 -->
<g id="edge7" class="edge">
<title>Node8&#45;&gt;Node7</title>
<path fill="none" stroke="#404040" d="M342.01,-695.76C335.46,-675.23 327.8,-650.46 321.5,-628 310.81,-589.85 300.05,-547.02 291.54,-511.8"/>
<polygon fill="none" stroke="#404040" points="291.43,-511.34 286.14,-506.44 288.62,-499.67 293.91,-504.57 291.43,-511.34"/>
<text text-anchor="middle" x="347" y="-620" font-family="Helvetica,sans-Serif" font-size="10.00"> #next</text>
<text text-anchor="middle" x="347" y="-609" font-family="Helvetica,sans-Serif" font-size="10.00">#previous</text>
</g>
<!-- Node9 -->
<g id="node9" class="node">
<title>Node9</title>
<g id="a_node9"><a xlink:href="../../dd/d16/classDoublyLinkedList.html" target="_top" xlink:title=" ">
<polygon fill="white" stroke="black" points="369,-288.5 369,-587.5 530,-587.5 530,-288.5 369,-288.5"/>
<text text-anchor="start" x="377" y="-575.5" font-family="Helvetica,sans-Serif" font-size="10.00">DoublyLinkedList&lt; Updatable</text>
<text text-anchor="middle" x="449.5" y="-564.5" font-family="Helvetica,sans-Serif" font-size="10.00">&lt; NormalUpdatable &gt; &gt;</text>
<polyline fill="none" stroke="black" points="369,-557.5 530,-557.5 "/>
<text text-anchor="middle" x="449.5" y="-545.5" font-family="Helvetica,sans-Serif" font-size="10.00"> </text>
<polyline fill="none" stroke="black" points="369,-538.5 530,-538.5 "/>
<text text-anchor="start" x="377" y="-526.5" font-family="Helvetica,sans-Serif" font-size="10.00">+ append()</text>
<text text-anchor="start" x="377" y="-515.5" font-family="Helvetica,sans-Serif" font-size="10.00">+ append()</text>
<text text-anchor="start" x="377" y="-504.5" font-family="Helvetica,sans-Serif" font-size="10.00">+ insertBefore()</text>
<text text-anchor="start" x="377" y="-493.5" font-family="Helvetica,sans-Serif" font-size="10.00">+ insertBefore()</text>
<text text-anchor="start" x="377" y="-482.5" font-family="Helvetica,sans-Serif" font-size="10.00">+ insertSorted()</text>
<text text-anchor="start" x="377" y="-471.5" font-family="Helvetica,sans-Serif" font-size="10.00">+ insertSorted()</text>
<text text-anchor="start" x="377" y="-460.5" font-family="Helvetica,sans-Serif" font-size="10.00">+ remove()</text>
<text text-anchor="start" x="377" y="-449.5" font-family="Helvetica,sans-Serif" font-size="10.00">+ remove()</text>
<text text-anchor="start" x="377" y="-438.5" font-family="Helvetica,sans-Serif" font-size="10.00">+ moveDown()</text>
<text text-anchor="start" x="377" y="-427.5" font-family="Helvetica,sans-Serif" font-size="10.00">+ moveDown()</text>
<text text-anchor="start" x="377" y="-416.5" font-family="Helvetica,sans-Serif" font-size="10.00">+ couldContain()</text>
<text text-anchor="start" x="377" y="-405.5" font-family="Helvetica,sans-Serif" font-size="10.00">+ couldContain()</text>
<text text-anchor="start" x="377" y="-394.5" font-family="Helvetica,sans-Serif" font-size="10.00">+ begin()</text>
<text text-anchor="start" x="377" y="-383.5" font-family="Helvetica,sans-Serif" font-size="10.00">+ begin()</text>
<text text-anchor="start" x="377" y="-372.5" font-family="Helvetica,sans-Serif" font-size="10.00">+ end()</text>
<text text-anchor="start" x="377" y="-361.5" font-family="Helvetica,sans-Serif" font-size="10.00">+ end()</text>
<text text-anchor="start" x="377" y="-350.5" font-family="Helvetica,sans-Serif" font-size="10.00">+ rbegin()</text>
<text text-anchor="start" x="377" y="-339.5" font-family="Helvetica,sans-Serif" font-size="10.00">+ rbegin()</text>
<text text-anchor="start" x="377" y="-328.5" font-family="Helvetica,sans-Serif" font-size="10.00">+ rend()</text>
<text text-anchor="start" x="377" y="-317.5" font-family="Helvetica,sans-Serif" font-size="10.00">+ rend()</text>
<text text-anchor="start" x="377" y="-306.5" font-family="Helvetica,sans-Serif" font-size="10.00">+ getFirst()</text>
<text text-anchor="start" x="377" y="-295.5" font-family="Helvetica,sans-Serif" font-size="10.00">+ getLast()</text>
</a>
</g>
</g>
<!-- Node8&#45;&gt;Node9 -->
<g id="edge10" class="edge">
<title>Node8&#45;&gt;Node9</title>
<path fill="none" stroke="#404040" d="M370.12,-695.91C378.2,-669.76 389,-634.82 400.01,-599.17"/>
<polygon fill="none" stroke="#404040" points="400.05,-599.04 398,-592.12 403.6,-587.57 405.65,-594.49 400.05,-599.04"/>
<text text-anchor="middle" x="410.5" y="-620" font-family="Helvetica,sans-Serif" font-size="10.00"> &#45;first</text>
<text text-anchor="middle" x="410.5" y="-609" font-family="Helvetica,sans-Serif" font-size="10.00">&#45;last</text>
</g>
<!-- Node9&#45;&gt;Node6 -->
<g id="edge9" class="edge">
<title>Node9&#45;&gt;Node6</title>
<path fill="none" stroke="#404040" d="M479.35,-587.67C487.95,-664.83 487.34,-758.83 453.5,-836 434.56,-879.19 397.91,-915.98 362.84,-943.62"/>
<polygon fill="none" stroke="#404040" points="362.53,-943.87 360.21,-950.69 353.01,-951.18 355.34,-944.35 362.53,-943.87"/>
<text text-anchor="middle" x="517.5" y="-738.5" font-family="Helvetica,sans-Serif" font-size="10.00"> #updatables</text>
</g>
<!-- Node10 -->
<g id="node10" class="node">
<title>Node10</title>
<g id="a_node10"><a xlink:href="../../df/dc6/classAH_1_1IncrementDecrementButtons.html" target="_top" xlink:title="A class for buttons that increment and decrement some counter or setting.">
<polygon fill="white" stroke="black" points="548.5,-371 548.5,-505 724.5,-505 724.5,-371 548.5,-371"/>
<text text-anchor="middle" x="636.5" y="-493" font-family="Helvetica,sans-Serif" font-size="10.00">IncrementDecrementButtons</text>
<polyline fill="none" stroke="black" points="548.5,-486 724.5,-486 "/>
<text text-anchor="start" x="556.5" y="-474" font-family="Helvetica,sans-Serif" font-size="10.00">&#45; longPressState</text>
<text text-anchor="start" x="556.5" y="-463" font-family="Helvetica,sans-Serif" font-size="10.00">&#45; longPressRepeat</text>
<text text-anchor="start" x="556.5" y="-452" font-family="Helvetica,sans-Serif" font-size="10.00">&#45; state</text>
<polyline fill="none" stroke="black" points="548.5,-445 724.5,-445 "/>
<text text-anchor="start" x="556.5" y="-433" font-family="Helvetica,sans-Serif" font-size="10.00">+ IncrementDecrementButtons()</text>
<text text-anchor="start" x="556.5" y="-422" font-family="Helvetica,sans-Serif" font-size="10.00">+ begin()</text>
<text text-anchor="start" x="556.5" y="-411" font-family="Helvetica,sans-Serif" font-size="10.00">+ update()</text>
<text text-anchor="start" x="556.5" y="-400" font-family="Helvetica,sans-Serif" font-size="10.00">+ getState()</text>
<text text-anchor="start" x="556.5" y="-389" font-family="Helvetica,sans-Serif" font-size="10.00">+ invert()</text>
<text text-anchor="start" x="556.5" y="-378" font-family="Helvetica,sans-Serif" font-size="10.00"># updateImplementation()</text>
</a>
</g>
</g>
<!-- Node10&#45;&gt;Node2 -->
<g id="edge11" class="edge">
<title>Node10&#45;&gt;Node2</title>
<path fill="none" stroke="#404040" d="M600.89,-370.83C584.17,-343.35 562.62,-312.27 538.5,-288 524.26,-273.67 507.84,-260.14 491.03,-247.83"/>
<polygon fill="none" stroke="#404040" points="490.86,-247.71 483.65,-247.46 481.1,-240.72 488.31,-240.96 490.86,-247.71"/>
<text text-anchor="middle" x="537.5" y="-262" font-family="Helvetica,sans-Serif" font-size="10.00"> &#45;buttons</text>
</g>
<!-- Node11 -->
<g id="node11" class="node">
<title>Node11</title>
<g id="a_node11"><a xlink:href="../../de/d0d/classAH_1_1Button.html" target="_top" xlink:title="A class for reading and debouncing buttons and switches.">
<polygon fill="white" stroke="black" points="567.5,-646.5 567.5,-835.5 705.5,-835.5 705.5,-646.5 567.5,-646.5"/>
<text text-anchor="middle" x="636.5" y="-823.5" font-family="Helvetica,sans-Serif" font-size="10.00">Button</text>
<polyline fill="none" stroke="black" points="567.5,-816.5 705.5,-816.5 "/>
<text text-anchor="start" x="575.5" y="-804.5" font-family="Helvetica,sans-Serif" font-size="10.00">&#45; debounceTime</text>
<polyline fill="none" stroke="black" points="567.5,-797.5 705.5,-797.5 "/>
<text text-anchor="start" x="575.5" y="-785.5" font-family="Helvetica,sans-Serif" font-size="10.00">+ Button()</text>
<text text-anchor="start" x="575.5" y="-774.5" font-family="Helvetica,sans-Serif" font-size="10.00">+ Button()</text>
<text text-anchor="start" x="575.5" y="-763.5" font-family="Helvetica,sans-Serif" font-size="10.00">+ Button()</text>
<text text-anchor="start" x="575.5" y="-752.5" font-family="Helvetica,sans-Serif" font-size="10.00">+ begin()</text>
<text text-anchor="start" x="575.5" y="-741.5" font-family="Helvetica,sans-Serif" font-size="10.00">+ invert()</text>
<text text-anchor="start" x="575.5" y="-730.5" font-family="Helvetica,sans-Serif" font-size="10.00">+ update()</text>
<text text-anchor="start" x="575.5" y="-719.5" font-family="Helvetica,sans-Serif" font-size="10.00">+ getState()</text>
<text text-anchor="start" x="575.5" y="-708.5" font-family="Helvetica,sans-Serif" font-size="10.00">+ previousBounceTime()</text>
<text text-anchor="start" x="575.5" y="-697.5" font-family="Helvetica,sans-Serif" font-size="10.00">+ stableTime()</text>
<text text-anchor="start" x="575.5" y="-686.5" font-family="Helvetica,sans-Serif" font-size="10.00">+ stableTime()</text>
<text text-anchor="start" x="575.5" y="-675.5" font-family="Helvetica,sans-Serif" font-size="10.00">+ getName()</text>
<text text-anchor="start" x="575.5" y="-664.5" font-family="Helvetica,sans-Serif" font-size="10.00">+ setDebounceTime()</text>
<text text-anchor="start" x="575.5" y="-653.5" font-family="Helvetica,sans-Serif" font-size="10.00">+ getDebounceTime()</text>
</a>
</g>
</g>
<!-- Node11&#45;&gt;Node10 -->
<g id="edge12" class="edge">
<title>Node11&#45;&gt;Node10</title>
<path fill="none" stroke="#404040" d="M636.5,-646.41C636.5,-605.06 636.5,-556.98 636.5,-517.53"/>
<polygon fill="none" stroke="#404040" points="636.5,-517.31 632.5,-511.31 636.5,-505.31 640.5,-511.31 636.5,-517.31"/>
<text text-anchor="middle" x="682.5" y="-620" font-family="Helvetica,sans-Serif" font-size="10.00"> &#45;decrementButton</text>
<text text-anchor="middle" x="682.5" y="-609" font-family="Helvetica,sans-Serif" font-size="10.00">&#45;incrementButton</text>
</g>
<!-- Node12 -->
<g id="node12" class="node">
<title>Node12</title>
<g id="a_node12"><a xlink:href="../../d7/de2/structAH_1_1ExtIO_1_1pin__t.html" target="_top" xlink:title="Type for storing pin numbers of Extended Input/Output elements.">
<polygon fill="white" stroke="black" points="472,-933 472,-1067 565,-1067 565,-933 472,-933"/>
<text text-anchor="middle" x="518.5" y="-1055" font-family="Helvetica,sans-Serif" font-size="10.00">pin_t</text>
<polyline fill="none" stroke="black" points="472,-1048 565,-1048 "/>
<text text-anchor="start" x="480" y="-1036" font-family="Helvetica,sans-Serif" font-size="10.00">+ pin</text>
<polyline fill="none" stroke="black" points="472,-1029 565,-1029 "/>
<text text-anchor="start" x="480" y="-1017" font-family="Helvetica,sans-Serif" font-size="10.00">+ pin_t()</text>
<text text-anchor="start" x="480" y="-1006" font-family="Helvetica,sans-Serif" font-size="10.00">+ pin_t()</text>
<text text-anchor="start" x="480" y="-995" font-family="Helvetica,sans-Serif" font-size="10.00">+ operator+=()</text>
<text text-anchor="start" x="480" y="-984" font-family="Helvetica,sans-Serif" font-size="10.00">+ operator++()</text>
<text text-anchor="start" x="480" y="-973" font-family="Helvetica,sans-Serif" font-size="10.00">+ operator++()</text>
<text text-anchor="start" x="480" y="-962" font-family="Helvetica,sans-Serif" font-size="10.00">+ operator&#45;=()</text>
<text text-anchor="start" x="480" y="-951" font-family="Helvetica,sans-Serif" font-size="10.00">+ operator&#45;&#45;()</text>
<text text-anchor="start" x="480" y="-940" font-family="Helvetica,sans-Serif" font-size="10.00">+ operator&#45;&#45;()</text>
</a>
</g>
</g>
<!-- Node12&#45;&gt;Node11 -->
<g id="edge13" class="edge">
<title>Node12&#45;&gt;Node11</title>
<path fill="none" stroke="#404040" d="M548.89,-932.82C560.94,-906.57 575.09,-875.75 588.46,-846.63"/>
<polygon fill="none" stroke="#404040" points="588.53,-846.47 587.4,-839.35 593.54,-835.56 594.67,-842.69 588.53,-846.47"/>
<text text-anchor="middle" x="596.5" y="-857" font-family="Helvetica,sans-Serif" font-size="10.00"> &#45;pin</text>
</g>
<!-- Node13 -->
<g id="node13" class="node">
<title>Node13</title>
<g id="a_node13"><a xlink:href="../../dc/db4/structAH_1_1Button_1_1InternalState.html" target="_top" xlink:title=" ">
<polygon fill="white" stroke="black" points="583.5,-949.5 583.5,-1050.5 693.5,-1050.5 693.5,-949.5 583.5,-949.5"/>
<text text-anchor="middle" x="638.5" y="-1038.5" font-family="Helvetica,sans-Serif" font-size="10.00">InternalState</text>
<polyline fill="none" stroke="black" points="583.5,-1031.5 693.5,-1031.5 "/>
<text text-anchor="start" x="591.5" y="-1019.5" font-family="Helvetica,sans-Serif" font-size="10.00">+ debounced</text>
<text text-anchor="start" x="591.5" y="-1008.5" font-family="Helvetica,sans-Serif" font-size="10.00">+ bouncing</text>
<text text-anchor="start" x="591.5" y="-997.5" font-family="Helvetica,sans-Serif" font-size="10.00">+ prevInput</text>
<text text-anchor="start" x="591.5" y="-986.5" font-family="Helvetica,sans-Serif" font-size="10.00">+ invert</text>
<text text-anchor="start" x="591.5" y="-975.5" font-family="Helvetica,sans-Serif" font-size="10.00">+ prevBounceTime</text>
<polyline fill="none" stroke="black" points="583.5,-968.5 693.5,-968.5 "/>
<text text-anchor="start" x="591.5" y="-956.5" font-family="Helvetica,sans-Serif" font-size="10.00">+ InternalState()</text>
</a>
</g>
</g>
<!-- Node13&#45;&gt;Node11 -->
<g id="edge14" class="edge">
<title>Node13&#45;&gt;Node11</title>
<path fill="none" stroke="#404040" d="M638.11,-949.45C637.89,-920.61 637.6,-883.12 637.32,-847.95"/>
<polygon fill="none" stroke="#404040" points="637.32,-847.62 633.28,-841.65 637.23,-835.62 641.28,-841.59 637.32,-847.62"/>
<text text-anchor="middle" x="653.5" y="-857" font-family="Helvetica,sans-Serif" font-size="10.00"> &#45;state</text>
</g>
</g>
</svg>
