<?xml version="1.0" encoding="UTF-8" standalone="no"?>
<!DOCTYPE svg PUBLIC "-//W3C//DTD SVG 1.1//EN"
 "http://www.w3.org/Graphics/SVG/1.1/DTD/svg11.dtd">
<!-- Generated by graphviz version 2.43.0 (0)
 -->
<!-- Title: StaticSizeExtendedIOElement.hpp Pages: 1 -->
<svg width="1653pt" height="767pt"
 viewBox="0.00 0.00 1652.50 767.00" xmlns="http://www.w3.org/2000/svg" xmlns:xlink="http://www.w3.org/1999/xlink">
<g id="graph0" class="graph" transform="scale(1 1) rotate(0) translate(4 763)">
<title>StaticSizeExtendedIOElement.hpp</title>
<polygon fill="white" stroke="transparent" points="-4,4 -4,-763 1648.5,-763 1648.5,4 -4,4"/>
<!-- Node1 -->
<g id="node1" class="node">
<title>Node1</title>
<g id="a_node1"><a xlink:title=" ">
<polygon fill="#bfbfbf" stroke="black" points="937,-739.5 937,-758.5 1119,-758.5 1119,-739.5 937,-739.5"/>
<text text-anchor="middle" x="1028" y="-746.5" font-family="Helvetica,sans-Serif" font-size="10.00">StaticSizeExtendedIOElement.hpp</text>
</a>
</g>
</g>
<!-- Node2 -->
<g id="node2" class="node">
<title>Node2</title>
<g id="a_node2"><a xlink:href="../../d1/d65/Warnings_8hpp.html" target="_top" xlink:title=" ">
<polygon fill="white" stroke="black" points="337.5,-0.5 337.5,-19.5 480.5,-19.5 480.5,-0.5 337.5,-0.5"/>
<text text-anchor="middle" x="409" y="-7.5" font-family="Helvetica,sans-Serif" font-size="10.00">AH/Settings/Warnings.hpp</text>
</a>
</g>
</g>
<!-- Node1&#45;&gt;Node2 -->
<g id="edge1" class="edge">
<title>Node1&#45;&gt;Node2</title>
<path fill="none" stroke="midnightblue" d="M936.77,-747.72C685.18,-745.75 0,-731.78 0,-638 0,-638 0,-638 0,-121 0,-82.87 22.41,-74.05 56,-56 101.46,-31.57 237.91,-19.86 327.24,-14.67"/>
<polygon fill="midnightblue" stroke="midnightblue" points="327.57,-18.16 337.35,-14.1 327.17,-11.17 327.57,-18.16"/>
</g>
<!-- Node3 -->
<g id="node3" class="node">
<title>Node3</title>
<g id="a_node3"><a xlink:href="../../d4/d57/ExtendedIOElement_8hpp.html" target="_top" xlink:title=" ">
<polygon fill="white" stroke="black" points="961,-683.5 961,-702.5 1095,-702.5 1095,-683.5 961,-683.5"/>
<text text-anchor="middle" x="1028" y="-690.5" font-family="Helvetica,sans-Serif" font-size="10.00">ExtendedIOElement.hpp</text>
</a>
</g>
</g>
<!-- Node1&#45;&gt;Node3 -->
<g id="edge2" class="edge">
<title>Node1&#45;&gt;Node3</title>
<path fill="none" stroke="midnightblue" d="M1028,-739.08C1028,-732.01 1028,-721.86 1028,-712.99"/>
<polygon fill="midnightblue" stroke="midnightblue" points="1031.5,-712.75 1028,-702.75 1024.5,-712.75 1031.5,-712.75"/>
</g>
<!-- Node33 -->
<g id="node33" class="node">
<title>Node33</title>
<g id="a_node33"><a xlink:href="../../d5/db6/ArrayHelpers_8hpp.html" target="_top" xlink:title=" ">
<polygon fill="white" stroke="black" points="1428,-566 1428,-585 1602,-585 1602,-566 1428,-566"/>
<text text-anchor="middle" x="1515" y="-573" font-family="Helvetica,sans-Serif" font-size="10.00">AH/Containers/ArrayHelpers.hpp</text>
</a>
</g>
</g>
<!-- Node1&#45;&gt;Node33 -->
<g id="edge66" class="edge">
<title>Node1&#45;&gt;Node33</title>
<path fill="none" stroke="midnightblue" d="M1085.43,-739.5C1162.78,-726.61 1303.48,-698.04 1414,-647 1445.65,-632.38 1477.95,-607.79 1497.24,-591.86"/>
<polygon fill="midnightblue" stroke="midnightblue" points="1499.73,-594.33 1505.13,-585.21 1495.23,-588.97 1499.73,-594.33"/>
</g>
<!-- Node3&#45;&gt;Node2 -->
<g id="edge3" class="edge">
<title>Node3&#45;&gt;Node2</title>
<path fill="none" stroke="midnightblue" d="M1054.08,-683.41C1149.91,-650.03 1477,-519.36 1477,-291 1477,-291 1477,-291 1477,-121 1477,-76.55 1442.33,-72.34 1401,-56 1317.55,-23.01 713.73,-13.92 491.13,-11.67"/>
<polygon fill="midnightblue" stroke="midnightblue" points="490.85,-8.17 480.82,-11.57 490.78,-15.17 490.85,-8.17"/>
</g>
<!-- Node4 -->
<g id="node4" class="node">
<title>Node4</title>
<g id="a_node4"><a xlink:href="../../dd/ddf/ExtendedInputOutput_8hpp.html" target="_top" xlink:title=" ">
<polygon fill="white" stroke="black" points="137.5,-627.5 137.5,-646.5 278.5,-646.5 278.5,-627.5 137.5,-627.5"/>
<text text-anchor="middle" x="208" y="-634.5" font-family="Helvetica,sans-Serif" font-size="10.00">ExtendedInputOutput.hpp</text>
</a>
</g>
</g>
<!-- Node3&#45;&gt;Node4 -->
<g id="edge4" class="edge">
<title>Node3&#45;&gt;Node4</title>
<path fill="none" stroke="midnightblue" d="M960.9,-687.58C811.28,-677.73 450.82,-653.99 289.02,-643.34"/>
<polygon fill="midnightblue" stroke="midnightblue" points="288.86,-639.82 278.65,-642.65 288.4,-646.8 288.86,-639.82"/>
</g>
<!-- Node11 -->
<g id="node11" class="node">
<title>Node11</title>
<g id="a_node11"><a xlink:href="../../d4/d35/Hardware-Types_8hpp.html" target="_top" xlink:title=" ">
<polygon fill="white" stroke="black" points="142.5,-560.5 142.5,-590.5 273.5,-590.5 273.5,-560.5 142.5,-560.5"/>
<text text-anchor="start" x="150.5" y="-578.5" font-family="Helvetica,sans-Serif" font-size="10.00">AH/Hardware/Hardware</text>
<text text-anchor="middle" x="208" y="-567.5" font-family="Helvetica,sans-Serif" font-size="10.00">&#45;Types.hpp</text>
</a>
</g>
</g>
<!-- Node3&#45;&gt;Node11 -->
<g id="edge65" class="edge">
<title>Node3&#45;&gt;Node11</title>
<path fill="none" stroke="midnightblue" d="M967.37,-683.46C820.45,-662.77 445.6,-609.97 284.01,-587.21"/>
<polygon fill="midnightblue" stroke="midnightblue" points="284.07,-583.68 273.68,-585.75 283.1,-590.61 284.07,-583.68"/>
</g>
<!-- Node27 -->
<g id="node27" class="node">
<title>Node27</title>
<g id="a_node27"><a xlink:href="../../d4/d93/Updatable_8hpp.html" target="_top" xlink:title=" ">
<polygon fill="white" stroke="black" points="775.5,-504.5 775.5,-523.5 936.5,-523.5 936.5,-504.5 775.5,-504.5"/>
<text text-anchor="middle" x="856" y="-511.5" font-family="Helvetica,sans-Serif" font-size="10.00">AH/Containers/Updatable.hpp</text>
</a>
</g>
</g>
<!-- Node3&#45;&gt;Node27 -->
<g id="edge50" class="edge">
<title>Node3&#45;&gt;Node27</title>
<path fill="none" stroke="midnightblue" d="M1019.7,-683.46C992.75,-655.73 907.35,-567.85 871.79,-531.24"/>
<polygon fill="midnightblue" stroke="midnightblue" points="874.1,-528.6 864.62,-523.87 869.08,-533.48 874.1,-528.6"/>
</g>
<!-- Node4&#45;&gt;Node2 -->
<g id="edge6" class="edge">
<title>Node4&#45;&gt;Node2</title>
<path fill="none" stroke="midnightblue" d="M171.53,-627.46C121.58,-613.35 38,-580.03 38,-515 38,-515 38,-515 38,-121 38,-82.87 60.55,-74.31 94,-56 133.04,-34.64 247.7,-22.34 327.34,-16.16"/>
<polygon fill="midnightblue" stroke="midnightblue" points="327.65,-19.65 337.35,-15.4 327.12,-12.67 327.65,-19.65"/>
</g>
<!-- Node5 -->
<g id="node5" class="node">
<title>Node5</title>
<g id="a_node5"><a xlink:href="../../d6/db0/AH_2Settings_2NamespaceSettings_8hpp.html" target="_top" xlink:title=" ">
<polygon fill="white" stroke="black" points="536.5,-56.5 536.5,-75.5 731.5,-75.5 731.5,-56.5 536.5,-56.5"/>
<text text-anchor="middle" x="634" y="-63.5" font-family="Helvetica,sans-Serif" font-size="10.00">AH/Settings/NamespaceSettings.hpp</text>
</a>
</g>
</g>
<!-- Node4&#45;&gt;Node5 -->
<g id="edge5" class="edge">
<title>Node4&#45;&gt;Node5</title>
<path fill="none" stroke="midnightblue" d="M180.72,-627.45C163.71,-620.55 143.17,-608.97 133,-591 126.21,-579.01 129.79,-573.4 133,-560 172.08,-397.06 212.66,-364.47 304,-224 338.96,-170.23 339.9,-144.83 395,-112 434.29,-88.59 483.11,-76.94 526.38,-71.28"/>
<polygon fill="midnightblue" stroke="midnightblue" points="526.87,-74.75 536.38,-70.06 526.03,-67.8 526.87,-74.75"/>
</g>
<!-- Node6 -->
<g id="node6" class="node">
<title>Node6</title>
<g id="a_node6"><a xlink:href="../../d6/ddf/Arduino-Wrapper_8h.html" target="_top" xlink:title=" ">
<polygon fill="white" stroke="black" points="1015,-168.5 1015,-187.5 1139,-187.5 1139,-168.5 1015,-168.5"/>
<text text-anchor="middle" x="1077" y="-175.5" font-family="Helvetica,sans-Serif" font-size="10.00">AH/Arduino&#45;Wrapper.h</text>
</a>
</g>
</g>
<!-- Node4&#45;&gt;Node6 -->
<g id="edge7" class="edge">
<title>Node4&#45;&gt;Node6</title>
<path fill="none" stroke="midnightblue" d="M278.73,-635.17C512.13,-631.52 1243,-612.3 1243,-515 1243,-515 1243,-515 1243,-401 1243,-305.78 1143.83,-225.13 1098.79,-193.41"/>
<polygon fill="midnightblue" stroke="midnightblue" points="1100.52,-190.36 1090.3,-187.57 1096.55,-196.12 1100.52,-190.36"/>
</g>
<!-- Node4&#45;&gt;Node11 -->
<g id="edge16" class="edge">
<title>Node4&#45;&gt;Node11</title>
<path fill="none" stroke="midnightblue" d="M208,-627.48C208,-620.47 208,-610.19 208,-600.7"/>
<polygon fill="midnightblue" stroke="midnightblue" points="211.5,-600.52 208,-590.52 204.5,-600.52 211.5,-600.52"/>
</g>
<!-- Node7 -->
<g id="node7" class="node">
<title>Node7</title>
<g id="a_node7"><a xlink:href="../../d7/d79/MinMaxFix_8hpp.html" target="_top" xlink:title=" ">
<polygon fill="white" stroke="black" points="921,-112.5 921,-131.5 1057,-131.5 1057,-112.5 921,-112.5"/>
<text text-anchor="middle" x="989" y="-119.5" font-family="Helvetica,sans-Serif" font-size="10.00">AH/Math/MinMaxFix.hpp</text>
</a>
</g>
</g>
<!-- Node6&#45;&gt;Node7 -->
<g id="edge8" class="edge">
<title>Node6&#45;&gt;Node7</title>
<path fill="none" stroke="midnightblue" d="M1062.86,-168.32C1049.13,-159.9 1028.06,-146.97 1011.94,-137.07"/>
<polygon fill="midnightblue" stroke="midnightblue" points="1013.46,-133.9 1003.1,-131.65 1009.8,-139.87 1013.46,-133.9"/>
</g>
<!-- Node9 -->
<g id="node9" class="node">
<title>Node9</title>
<g id="a_node9"><a xlink:title=" ">
<polygon fill="white" stroke="#bfbfbf" points="1305.5,-0.5 1305.5,-19.5 1368.5,-19.5 1368.5,-0.5 1305.5,-0.5"/>
<text text-anchor="middle" x="1337" y="-7.5" font-family="Helvetica,sans-Serif" font-size="10.00">Arduino.h</text>
</a>
</g>
</g>
<!-- Node6&#45;&gt;Node9 -->
<g id="edge15" class="edge">
<title>Node6&#45;&gt;Node9</title>
<path fill="none" stroke="midnightblue" d="M1139.16,-175.86C1209.57,-170.83 1321.45,-150.7 1375,-76 1386.63,-59.78 1370.86,-39.78 1356.24,-26.28"/>
<polygon fill="midnightblue" stroke="midnightblue" points="1358.28,-23.41 1348.42,-19.52 1353.7,-28.71 1358.28,-23.41"/>
</g>
<!-- Node10 -->
<g id="node10" class="node">
<title>Node10</title>
<g id="a_node10"><a xlink:title=" ">
<polygon fill="white" stroke="#bfbfbf" points="795.5,-112.5 795.5,-131.5 902.5,-131.5 902.5,-112.5 795.5,-112.5"/>
<text text-anchor="middle" x="849" y="-119.5" font-family="Helvetica,sans-Serif" font-size="10.00">AH/STL/type_traits</text>
</a>
</g>
</g>
<!-- Node6&#45;&gt;Node10 -->
<g id="edge14" class="edge">
<title>Node6&#45;&gt;Node10</title>
<path fill="none" stroke="midnightblue" d="M1040.87,-168.44C1001.35,-159.08 937.9,-144.06 894.89,-133.87"/>
<polygon fill="midnightblue" stroke="midnightblue" points="895.5,-130.42 884.96,-131.52 893.88,-137.23 895.5,-130.42"/>
</g>
<!-- Node7&#45;&gt;Node2 -->
<g id="edge9" class="edge">
<title>Node7&#45;&gt;Node2</title>
<path fill="none" stroke="midnightblue" d="M960.88,-112.47C915.01,-98.84 821.08,-72.03 740,-56 655.72,-39.33 558.14,-26.89 490.87,-19.36"/>
<polygon fill="midnightblue" stroke="midnightblue" points="491.08,-15.86 480.76,-18.24 490.31,-22.82 491.08,-15.86"/>
</g>
<!-- Node7&#45;&gt;Node5 -->
<g id="edge13" class="edge">
<title>Node7&#45;&gt;Node5</title>
<path fill="none" stroke="midnightblue" d="M932.75,-112.44C869.52,-102.83 766.98,-87.23 700.01,-77.04"/>
<polygon fill="midnightblue" stroke="midnightblue" points="700.4,-73.56 689.99,-75.52 699.35,-80.48 700.4,-73.56"/>
</g>
<!-- Node8 -->
<g id="node8" class="node">
<title>Node8</title>
<g id="a_node8"><a xlink:href="../../d6/d3b/FixArduinoMacros_8hpp.html" target="_top" xlink:title=" ">
<polygon fill="white" stroke="black" points="1196,-56.5 1196,-75.5 1366,-75.5 1366,-56.5 1196,-56.5"/>
<text text-anchor="middle" x="1281" y="-63.5" font-family="Helvetica,sans-Serif" font-size="10.00">AH/Math/FixArduinoMacros.hpp</text>
</a>
</g>
</g>
<!-- Node7&#45;&gt;Node8 -->
<g id="edge10" class="edge">
<title>Node7&#45;&gt;Node8</title>
<path fill="none" stroke="midnightblue" d="M1035.27,-112.44C1086.74,-102.92 1169.89,-87.55 1225,-77.36"/>
<polygon fill="midnightblue" stroke="midnightblue" points="1225.75,-80.78 1234.95,-75.52 1224.48,-73.89 1225.75,-80.78"/>
</g>
<!-- Node8&#45;&gt;Node2 -->
<g id="edge11" class="edge">
<title>Node8&#45;&gt;Node2</title>
<path fill="none" stroke="midnightblue" d="M1195.96,-57.09C1191.24,-56.71 1186.56,-56.34 1182,-56 930.4,-37.25 632.25,-21.8 491.02,-14.9"/>
<polygon fill="midnightblue" stroke="midnightblue" points="490.88,-11.39 480.72,-14.39 490.54,-18.38 490.88,-11.39"/>
</g>
<!-- Node8&#45;&gt;Node9 -->
<g id="edge12" class="edge">
<title>Node8&#45;&gt;Node9</title>
<path fill="none" stroke="midnightblue" d="M1290,-56.32C1298.19,-48.42 1310.51,-36.55 1320.47,-26.94"/>
<polygon fill="midnightblue" stroke="midnightblue" points="1323.07,-29.29 1327.84,-19.83 1318.21,-24.26 1323.07,-29.29"/>
</g>
<!-- Node11&#45;&gt;Node2 -->
<g id="edge17" class="edge">
<title>Node11&#45;&gt;Node2</title>
<path fill="none" stroke="midnightblue" d="M170.53,-560.45C131.5,-543.11 76,-509.55 76,-459 76,-459 76,-459 76,-121 76,-82.87 98.73,-74.63 132,-56 164.67,-37.71 257.95,-25.16 327.29,-18.05"/>
<polygon fill="midnightblue" stroke="midnightblue" points="327.74,-21.53 337.34,-17.04 327.04,-14.56 327.74,-21.53"/>
</g>
<!-- Node11&#45;&gt;Node5 -->
<g id="edge48" class="edge">
<title>Node11&#45;&gt;Node5</title>
<path fill="none" stroke="midnightblue" d="M203.2,-560.07C182.2,-494 105.86,-218.92 252,-112 294.36,-81.01 428.72,-71.11 526.13,-68.09"/>
<polygon fill="midnightblue" stroke="midnightblue" points="526.43,-71.58 536.33,-67.79 526.23,-64.58 526.43,-71.58"/>
</g>
<!-- Node12 -->
<g id="node12" class="node">
<title>Node12</title>
<g id="a_node12"><a xlink:href="../../de/d76/Array_8hpp.html" target="_top" xlink:title=" ">
<polygon fill="white" stroke="black" points="236.5,-504.5 236.5,-523.5 371.5,-523.5 371.5,-504.5 236.5,-504.5"/>
<text text-anchor="middle" x="304" y="-511.5" font-family="Helvetica,sans-Serif" font-size="10.00">AH/Containers/Array.hpp</text>
</a>
</g>
</g>
<!-- Node11&#45;&gt;Node12 -->
<g id="edge18" class="edge">
<title>Node11&#45;&gt;Node12</title>
<path fill="none" stroke="midnightblue" d="M230.75,-560.4C245.99,-550.95 265.99,-538.56 281.24,-529.11"/>
<polygon fill="midnightblue" stroke="midnightblue" points="283.38,-531.9 290.03,-523.66 279.69,-525.95 283.38,-531.9"/>
</g>
<!-- Node23 -->
<g id="node23" class="node">
<title>Node23</title>
<g id="a_node23"><a xlink:title=" ">
<polygon fill="white" stroke="#bfbfbf" points="332.5,-224.5 332.5,-243.5 385.5,-243.5 385.5,-224.5 332.5,-224.5"/>
<text text-anchor="middle" x="359" y="-231.5" font-family="Helvetica,sans-Serif" font-size="10.00">stdint.h</text>
</a>
</g>
</g>
<!-- Node11&#45;&gt;Node23 -->
<g id="edge49" class="edge">
<title>Node11&#45;&gt;Node23</title>
<path fill="none" stroke="midnightblue" d="M209.67,-560.21C213.73,-528.69 225.77,-451.32 252,-392 264.17,-364.49 273.07,-360.86 290,-336 310.12,-306.45 333.61,-272.09 347.35,-252.02"/>
<polygon fill="midnightblue" stroke="midnightblue" points="350.32,-253.87 353.08,-243.64 344.55,-249.92 350.32,-253.87"/>
</g>
<!-- Node12&#45;&gt;Node2 -->
<g id="edge19" class="edge">
<title>Node12&#45;&gt;Node2</title>
<path fill="none" stroke="midnightblue" d="M292.11,-504.44C250.52,-473.4 114,-361.86 114,-235 114,-235 114,-235 114,-121 114,-84 134.26,-75.01 166,-56 214.56,-26.92 277.59,-15.86 327.29,-11.97"/>
<polygon fill="midnightblue" stroke="midnightblue" points="327.64,-15.46 337.37,-11.27 327.15,-8.47 327.64,-15.46"/>
</g>
<!-- Node12&#45;&gt;Node10 -->
<g id="edge46" class="edge">
<title>Node12&#45;&gt;Node10</title>
<path fill="none" stroke="midnightblue" d="M303.93,-504.39C304.04,-491.75 305.11,-467.56 311,-448 328.42,-390.16 340.49,-373.31 388,-336 415.83,-314.15 427.96,-316.98 459,-300 474.38,-291.59 476.6,-286.2 493,-280 571.76,-250.22 601.61,-277.17 679,-244 711.52,-230.06 793.39,-166.94 830.37,-137.81"/>
<polygon fill="midnightblue" stroke="midnightblue" points="832.67,-140.45 838.34,-131.51 828.33,-134.96 832.67,-140.45"/>
</g>
<!-- Node13 -->
<g id="node13" class="node">
<title>Node13</title>
<g id="a_node13"><a xlink:href="../../d1/d93/Error_8hpp.html" target="_top" xlink:title=" ">
<polygon fill="white" stroke="black" points="332,-448.5 332,-467.5 436,-467.5 436,-448.5 332,-448.5"/>
<text text-anchor="middle" x="384" y="-455.5" font-family="Helvetica,sans-Serif" font-size="10.00">AH/Error/Error.hpp</text>
</a>
</g>
</g>
<!-- Node12&#45;&gt;Node13 -->
<g id="edge20" class="edge">
<title>Node12&#45;&gt;Node13</title>
<path fill="none" stroke="midnightblue" d="M316.85,-504.32C329.22,-495.98 348.13,-483.21 362.74,-473.35"/>
<polygon fill="midnightblue" stroke="midnightblue" points="364.85,-476.15 371.18,-467.65 360.93,-470.35 364.85,-476.15"/>
</g>
<!-- Node22 -->
<g id="node22" class="node">
<title>Node22</title>
<g id="a_node22"><a xlink:title=" ">
<polygon fill="white" stroke="#bfbfbf" points="727,-224.5 727,-243.5 783,-243.5 783,-224.5 727,-224.5"/>
<text text-anchor="middle" x="755" y="-231.5" font-family="Helvetica,sans-Serif" font-size="10.00">stddef.h</text>
</a>
</g>
</g>
<!-- Node12&#45;&gt;Node22 -->
<g id="edge47" class="edge">
<title>Node12&#45;&gt;Node22</title>
<path fill="none" stroke="midnightblue" d="M305.4,-504.16C307.71,-491.23 313.06,-466.69 323,-448 353.37,-390.87 364.78,-375.53 416,-336 416.36,-335.72 535.56,-280.14 536,-280 612.24,-254.85 634.42,-260.41 713,-244 714.27,-243.73 715.57,-243.46 716.87,-243.19"/>
<polygon fill="midnightblue" stroke="midnightblue" points="717.94,-246.54 726.99,-241.04 716.49,-239.69 717.94,-246.54"/>
</g>
<!-- Node26 -->
<g id="node26" class="node">
<title>Node26</title>
<g id="a_node26"><a xlink:title=" ">
<polygon fill="white" stroke="#bfbfbf" points="632,-392.5 632,-411.5 722,-411.5 722,-392.5 632,-392.5"/>
<text text-anchor="middle" x="677" y="-399.5" font-family="Helvetica,sans-Serif" font-size="10.00">AH/STL/iterator</text>
</a>
</g>
</g>
<!-- Node12&#45;&gt;Node26 -->
<g id="edge45" class="edge">
<title>Node12&#45;&gt;Node26</title>
<path fill="none" stroke="midnightblue" d="M332.96,-504.46C399.41,-484.86 562.9,-436.65 638.06,-414.48"/>
<polygon fill="midnightblue" stroke="midnightblue" points="639.46,-417.72 648.06,-411.53 637.48,-411.01 639.46,-417.72"/>
</g>
<!-- Node13&#45;&gt;Node2 -->
<g id="edge21" class="edge">
<title>Node13&#45;&gt;Node2</title>
<path fill="none" stroke="midnightblue" d="M368.42,-448.5C316.4,-418.86 152,-314.47 152,-179 152,-179 152,-179 152,-121 152,-43.43 252.17,-19.84 327.44,-13.07"/>
<polygon fill="midnightblue" stroke="midnightblue" points="327.73,-16.55 337.41,-12.25 327.16,-9.58 327.73,-16.55"/>
</g>
<!-- Node14 -->
<g id="node14" class="node">
<title>Node14</title>
<g id="a_node14"><a xlink:href="../../df/dee/Debug_8hpp.html" target="_top" xlink:title=" ">
<polygon fill="white" stroke="black" points="492.5,-392.5 492.5,-411.5 613.5,-411.5 613.5,-392.5 492.5,-392.5"/>
<text text-anchor="middle" x="553" y="-399.5" font-family="Helvetica,sans-Serif" font-size="10.00">AH/Debug/Debug.hpp</text>
</a>
</g>
</g>
<!-- Node13&#45;&gt;Node14 -->
<g id="edge22" class="edge">
<title>Node13&#45;&gt;Node14</title>
<path fill="none" stroke="midnightblue" d="M410.78,-448.44C439.33,-439.32 484.73,-424.81 516.54,-414.65"/>
<polygon fill="midnightblue" stroke="midnightblue" points="517.89,-417.89 526.35,-411.52 515.76,-411.23 517.89,-417.89"/>
</g>
<!-- Node14&#45;&gt;Node2 -->
<g id="edge23" class="edge">
<title>Node14&#45;&gt;Node2</title>
<path fill="none" stroke="midnightblue" d="M508.87,-392.49C480.73,-385.67 444.35,-374.17 416,-356 337.62,-305.77 304,-272.09 304,-179 304,-179 304,-179 304,-121 304,-76.02 350.51,-42.19 381.62,-24.59"/>
<polygon fill="midnightblue" stroke="midnightblue" points="383.59,-27.5 390.71,-19.65 380.25,-21.35 383.59,-27.5"/>
</g>
<!-- Node15 -->
<g id="node15" class="node">
<title>Node15</title>
<g id="a_node15"><a xlink:href="../../dd/d80/PrintStream_8hpp.html" target="_top" xlink:title=" ">
<polygon fill="white" stroke="black" points="1234.5,-224.5 1234.5,-243.5 1407.5,-243.5 1407.5,-224.5 1234.5,-224.5"/>
<text text-anchor="middle" x="1321" y="-231.5" font-family="Helvetica,sans-Serif" font-size="10.00">AH/PrintStream/PrintStream.hpp</text>
</a>
</g>
</g>
<!-- Node14&#45;&gt;Node15 -->
<g id="edge24" class="edge">
<title>Node14&#45;&gt;Node15</title>
<path fill="none" stroke="midnightblue" d="M592.41,-392.48C721.1,-364.67 1128.92,-276.52 1271.34,-245.73"/>
<polygon fill="midnightblue" stroke="midnightblue" points="1272.49,-249.07 1281.52,-243.53 1271.01,-242.22 1272.49,-249.07"/>
</g>
<!-- Node17 -->
<g id="node17" class="node">
<title>Node17</title>
<g id="a_node17"><a xlink:href="../../de/dd1/AH_2Settings_2SettingsWrapper_8hpp.html" target="_top" xlink:title=" ">
<polygon fill="white" stroke="black" points="425,-336.5 425,-355.5 603,-355.5 603,-336.5 425,-336.5"/>
<text text-anchor="middle" x="514" y="-343.5" font-family="Helvetica,sans-Serif" font-size="10.00">AH/Settings/SettingsWrapper.hpp</text>
</a>
</g>
</g>
<!-- Node14&#45;&gt;Node17 -->
<g id="edge29" class="edge">
<title>Node14&#45;&gt;Node17</title>
<path fill="none" stroke="midnightblue" d="M541.39,-392.08C534.42,-384.61 526.16,-373.72 520.29,-364.52"/>
<polygon fill="midnightblue" stroke="midnightblue" points="523.24,-362.64 515.19,-355.75 517.19,-366.16 523.24,-362.64"/>
</g>
<!-- Node25 -->
<g id="node25" class="node">
<title>Node25</title>
<g id="a_node25"><a xlink:href="../../d7/d52/DebugVal_8hpp.html" target="_top" xlink:title=" ">
<polygon fill="white" stroke="black" points="621,-336.5 621,-355.5 705,-355.5 705,-336.5 621,-336.5"/>
<text text-anchor="middle" x="663" y="-343.5" font-family="Helvetica,sans-Serif" font-size="10.00">DebugVal.hpp</text>
</a>
</g>
</g>
<!-- Node14&#45;&gt;Node25 -->
<g id="edge44" class="edge">
<title>Node14&#45;&gt;Node25</title>
<path fill="none" stroke="midnightblue" d="M570.67,-392.32C588.39,-383.62 615.9,-370.12 636.29,-360.11"/>
<polygon fill="midnightblue" stroke="midnightblue" points="637.94,-363.2 645.37,-355.65 634.85,-356.92 637.94,-363.2"/>
</g>
<!-- Node15&#45;&gt;Node2 -->
<g id="edge26" class="edge">
<title>Node15&#45;&gt;Node2</title>
<path fill="none" stroke="midnightblue" d="M1365.01,-224.44C1385.4,-218.03 1407.79,-206.97 1420,-188 1447.24,-145.7 1476.08,-127.8 1375,-56 1339.24,-30.59 717.79,-16.67 490.99,-12.42"/>
<polygon fill="midnightblue" stroke="midnightblue" points="490.88,-8.92 480.81,-12.23 490.75,-15.92 490.88,-8.92"/>
</g>
<!-- Node15&#45;&gt;Node5 -->
<g id="edge25" class="edge">
<title>Node15&#45;&gt;Node5</title>
<path fill="none" stroke="midnightblue" d="M1302.37,-224.45C1282.81,-215.45 1251.19,-200.85 1224,-188 1153.54,-154.71 1140.97,-133.24 1066,-112 958.42,-81.52 830.52,-71.25 741.94,-68.01"/>
<polygon fill="midnightblue" stroke="midnightblue" points="742,-64.51 731.88,-67.66 741.76,-71.5 742,-64.51"/>
</g>
<!-- Node15&#45;&gt;Node6 -->
<g id="edge27" class="edge">
<title>Node15&#45;&gt;Node6</title>
<path fill="none" stroke="midnightblue" d="M1282.34,-224.44C1239.86,-215.04 1171.57,-199.93 1125.53,-189.74"/>
<polygon fill="midnightblue" stroke="midnightblue" points="1126,-186.26 1115.48,-187.52 1124.49,-193.09 1126,-186.26"/>
</g>
<!-- Node16 -->
<g id="node16" class="node">
<title>Node16</title>
<g id="a_node16"><a xlink:title=" ">
<polygon fill="white" stroke="#bfbfbf" points="1233,-168.5 1233,-187.5 1411,-187.5 1411,-168.5 1233,-168.5"/>
<text text-anchor="middle" x="1322" y="-175.5" font-family="Helvetica,sans-Serif" font-size="10.00">Settings/NamespaceSettings.hpp</text>
</a>
</g>
</g>
<!-- Node15&#45;&gt;Node16 -->
<g id="edge28" class="edge">
<title>Node15&#45;&gt;Node16</title>
<path fill="none" stroke="midnightblue" d="M1321.17,-224.08C1321.3,-217.01 1321.48,-206.86 1321.65,-197.99"/>
<polygon fill="midnightblue" stroke="midnightblue" points="1325.15,-197.81 1321.84,-187.75 1318.15,-197.68 1325.15,-197.81"/>
</g>
<!-- Node17&#45;&gt;Node2 -->
<g id="edge30" class="edge">
<title>Node17&#45;&gt;Node2</title>
<path fill="none" stroke="midnightblue" d="M455.27,-336.49C425.85,-330.08 390.87,-318.98 364,-300 315.27,-265.57 305.7,-245.56 290,-188 274.56,-131.4 256.65,-104.27 290,-56 301.23,-39.75 319.13,-29.36 337.67,-22.73"/>
<polygon fill="midnightblue" stroke="midnightblue" points="338.96,-25.99 347.4,-19.58 336.8,-19.33 338.96,-25.99"/>
</g>
<!-- Node17&#45;&gt;Node5 -->
<g id="edge31" class="edge">
<title>Node17&#45;&gt;Node5</title>
<path fill="none" stroke="midnightblue" d="M602.26,-336.47C641.92,-330.13 688.39,-319.12 727,-300 761.17,-283.08 776.11,-278.66 792,-244 825.44,-171.06 716.5,-106.63 662.5,-80"/>
<polygon fill="midnightblue" stroke="midnightblue" points="663.94,-76.81 653.41,-75.62 660.9,-83.12 663.94,-76.81"/>
</g>
<!-- Node17&#45;&gt;Node14 -->
<g id="edge43" class="edge">
<title>Node17&#45;&gt;Node14</title>
<path fill="none" stroke="midnightblue" d="M525.45,-355.75C532.4,-363.17 540.67,-374.05 546.58,-383.27"/>
<polygon fill="midnightblue" stroke="midnightblue" points="543.66,-385.21 551.73,-392.08 549.7,-381.68 543.66,-385.21"/>
</g>
<!-- Node18 -->
<g id="node18" class="node">
<title>Node18</title>
<g id="a_node18"><a xlink:href="../../d5/d4f/AH_2Settings_2Settings_8hpp.html" target="_top" xlink:title="All user settings and debugging options can be changed here.">
<polygon fill="white" stroke="black" points="373.5,-280.5 373.5,-299.5 450.5,-299.5 450.5,-280.5 373.5,-280.5"/>
<text text-anchor="middle" x="412" y="-287.5" font-family="Helvetica,sans-Serif" font-size="10.00">Settings.hpp</text>
</a>
</g>
</g>
<!-- Node17&#45;&gt;Node18 -->
<g id="edge32" class="edge">
<title>Node17&#45;&gt;Node18</title>
<path fill="none" stroke="midnightblue" d="M497.61,-336.32C481.33,-327.7 456.13,-314.36 437.28,-304.39"/>
<polygon fill="midnightblue" stroke="midnightblue" points="438.82,-301.24 428.35,-299.65 435.55,-307.43 438.82,-301.24"/>
</g>
<!-- Node24 -->
<g id="node24" class="node">
<title>Node24</title>
<g id="a_node24"><a xlink:href="../../d9/d98/TeensyUSBTypes_8hpp.html" target="_top" xlink:title=" ">
<polygon fill="white" stroke="black" points="545.5,-280.5 545.5,-299.5 718.5,-299.5 718.5,-280.5 545.5,-280.5"/>
<text text-anchor="middle" x="632" y="-287.5" font-family="Helvetica,sans-Serif" font-size="10.00">AH/Teensy/TeensyUSBTypes.hpp</text>
</a>
</g>
</g>
<!-- Node17&#45;&gt;Node24 -->
<g id="edge42" class="edge">
<title>Node17&#45;&gt;Node24</title>
<path fill="none" stroke="midnightblue" d="M532.7,-336.44C551.94,-327.64 582.15,-313.81 604.2,-303.72"/>
<polygon fill="midnightblue" stroke="midnightblue" points="605.75,-306.86 613.39,-299.52 602.84,-300.5 605.75,-306.86"/>
</g>
<!-- Node19 -->
<g id="node19" class="node">
<title>Node19</title>
<g id="a_node19"><a xlink:href="../../dc/d50/Frequency_8hpp.html" target="_top" xlink:title=" ">
<polygon fill="white" stroke="black" points="404,-112.5 404,-131.5 538,-131.5 538,-112.5 404,-112.5"/>
<text text-anchor="middle" x="471" y="-119.5" font-family="Helvetica,sans-Serif" font-size="10.00">AH/Types/Frequency.hpp</text>
</a>
</g>
</g>
<!-- Node18&#45;&gt;Node19 -->
<g id="edge33" class="edge">
<title>Node18&#45;&gt;Node19</title>
<path fill="none" stroke="midnightblue" d="M414.72,-280.12C418.6,-267.57 426.04,-243.93 433,-224 443.22,-194.77 456.08,-161.18 463.92,-141.04"/>
<polygon fill="midnightblue" stroke="midnightblue" points="467.23,-142.18 467.61,-131.6 460.71,-139.64 467.23,-142.18"/>
</g>
<!-- Node20 -->
<g id="node20" class="node">
<title>Node20</title>
<g id="a_node20"><a xlink:href="../../d7/d7c/ADCConfig_8hpp.html" target="_top" xlink:title="This file contains the platform&#45;specific ADC resolutions.">
<polygon fill="white" stroke="black" points="442.5,-224.5 442.5,-243.5 599.5,-243.5 599.5,-224.5 442.5,-224.5"/>
<text text-anchor="middle" x="521" y="-231.5" font-family="Helvetica,sans-Serif" font-size="10.00">AH/Hardware/ADCConfig.hpp</text>
</a>
</g>
</g>
<!-- Node18&#45;&gt;Node20 -->
<g id="edge36" class="edge">
<title>Node18&#45;&gt;Node20</title>
<path fill="none" stroke="midnightblue" d="M429.51,-280.32C447.07,-271.62 474.33,-258.12 494.53,-248.11"/>
<polygon fill="midnightblue" stroke="midnightblue" points="496.12,-251.23 503.53,-243.65 493.02,-244.96 496.12,-251.23"/>
</g>
<!-- Node21 -->
<g id="node21" class="node">
<title>Node21</title>
<g id="a_node21"><a xlink:title=" ">
<polygon fill="white" stroke="#bfbfbf" points="617.5,-224.5 617.5,-243.5 670.5,-243.5 670.5,-224.5 617.5,-224.5"/>
<text text-anchor="middle" x="644" y="-231.5" font-family="Helvetica,sans-Serif" font-size="10.00">limits.h</text>
</a>
</g>
</g>
<!-- Node18&#45;&gt;Node21 -->
<g id="edge39" class="edge">
<title>Node18&#45;&gt;Node21</title>
<path fill="none" stroke="midnightblue" d="M450.36,-280.42C487.9,-271.98 546.96,-258.56 607.54,-244.07"/>
<polygon fill="midnightblue" stroke="midnightblue" points="608.37,-247.48 617.28,-241.74 606.74,-240.67 608.37,-247.48"/>
</g>
<!-- Node18&#45;&gt;Node22 -->
<g id="edge40" class="edge">
<title>Node18&#45;&gt;Node22</title>
<path fill="none" stroke="midnightblue" d="M450.68,-282.91C516.87,-272.49 651.07,-251.36 716.87,-241"/>
<polygon fill="midnightblue" stroke="midnightblue" points="717.49,-244.45 726.83,-239.44 716.41,-237.53 717.49,-244.45"/>
</g>
<!-- Node18&#45;&gt;Node23 -->
<g id="edge41" class="edge">
<title>Node18&#45;&gt;Node23</title>
<path fill="none" stroke="midnightblue" d="M403.25,-280.08C395.53,-272.22 384.1,-260.57 374.78,-251.08"/>
<polygon fill="midnightblue" stroke="midnightblue" points="377.09,-248.44 367.59,-243.75 372.1,-253.34 377.09,-248.44"/>
</g>
<!-- Node19&#45;&gt;Node2 -->
<g id="edge34" class="edge">
<title>Node19&#45;&gt;Node2</title>
<path fill="none" stroke="midnightblue" d="M466.13,-112.37C455.95,-94.3 432.21,-52.18 418.76,-28.31"/>
<polygon fill="midnightblue" stroke="midnightblue" points="421.8,-26.58 413.84,-19.59 415.7,-30.02 421.8,-26.58"/>
</g>
<!-- Node19&#45;&gt;Node5 -->
<g id="edge35" class="edge">
<title>Node19&#45;&gt;Node5</title>
<path fill="none" stroke="midnightblue" d="M496.83,-112.44C524.25,-103.36 567.78,-88.94 598.43,-78.78"/>
<polygon fill="midnightblue" stroke="midnightblue" points="599.9,-81.98 608.29,-75.52 597.7,-75.34 599.9,-81.98"/>
</g>
<!-- Node20&#45;&gt;Node2 -->
<g id="edge37" class="edge">
<title>Node20&#45;&gt;Node2</title>
<path fill="none" stroke="midnightblue" d="M501.52,-224.33C472.05,-209.99 417.2,-178.25 395,-132 378.9,-98.45 391.54,-53.86 401.03,-29.25"/>
<polygon fill="midnightblue" stroke="midnightblue" points="404.37,-30.32 404.93,-19.74 397.9,-27.67 404.37,-30.32"/>
</g>
<!-- Node20&#45;&gt;Node6 -->
<g id="edge38" class="edge">
<title>Node20&#45;&gt;Node6</title>
<path fill="none" stroke="midnightblue" d="M599.72,-224.83C602.51,-224.55 605.28,-224.27 608,-224 748.43,-210 912.6,-194.43 1004.73,-185.77"/>
<polygon fill="midnightblue" stroke="midnightblue" points="1005.15,-189.24 1014.78,-184.82 1004.49,-182.27 1005.15,-189.24"/>
</g>
<!-- Node27&#45;&gt;Node2 -->
<g id="edge51" class="edge">
<title>Node27&#45;&gt;Node2</title>
<path fill="none" stroke="midnightblue" d="M936.58,-511.82C1022.06,-508.91 1149.69,-499.27 1186,-468 1208.81,-448.36 1205,-433.1 1205,-403 1205,-403 1205,-403 1205,-233 1205,-112.29 1113.01,-95.67 999,-56 907.42,-24.14 630.08,-14.8 490.74,-12.09"/>
<polygon fill="midnightblue" stroke="midnightblue" points="490.61,-8.58 480.54,-11.9 490.48,-15.58 490.61,-8.58"/>
</g>
<!-- Node27&#45;&gt;Node10 -->
<g id="edge61" class="edge">
<title>Node27&#45;&gt;Node10</title>
<path fill="none" stroke="midnightblue" d="M904.03,-504.44C944.17,-495.04 991.77,-477.27 971,-448 942.93,-408.46 901.39,-447.17 868,-412 847.28,-390.17 849,-377.1 849,-347 849,-347 849,-347 849,-233 849,-200.95 849,-163.64 849,-141.75"/>
<polygon fill="midnightblue" stroke="midnightblue" points="852.5,-141.56 849,-131.56 845.5,-141.56 852.5,-141.56"/>
</g>
<!-- Node27&#45;&gt;Node13 -->
<g id="edge60" class="edge">
<title>Node27&#45;&gt;Node13</title>
<path fill="none" stroke="midnightblue" d="M775.43,-504.67C693.46,-496.06 562.79,-481.94 450,-468 448.74,-467.84 447.47,-467.69 446.19,-467.52"/>
<polygon fill="midnightblue" stroke="midnightblue" points="446.59,-464.05 436.22,-466.24 445.7,-470.99 446.59,-464.05"/>
</g>
<!-- Node27&#45;&gt;Node17 -->
<g id="edge63" class="edge">
<title>Node27&#45;&gt;Node17</title>
<path fill="none" stroke="midnightblue" d="M775.43,-509.01C691.66,-503.64 567.14,-491.87 526,-468 498.86,-452.25 493.09,-441.71 483,-412 477.13,-394.71 488.04,-376 498.5,-363.11"/>
<polygon fill="midnightblue" stroke="midnightblue" points="501.16,-365.38 505.13,-355.56 495.9,-360.77 501.16,-365.38"/>
</g>
<!-- Node27&#45;&gt;Node22 -->
<g id="edge64" class="edge">
<title>Node27&#45;&gt;Node22</title>
<path fill="none" stroke="midnightblue" d="M775.33,-512.17C697.13,-509.45 586.41,-499.88 559,-468 553.2,-461.26 553.4,-454.9 559,-448 608.24,-387.38 677.79,-469.17 731,-412 771.8,-368.17 764.7,-289.75 758.75,-253.87"/>
<polygon fill="midnightblue" stroke="midnightblue" points="762.16,-253.02 756.93,-243.81 755.27,-254.27 762.16,-253.02"/>
</g>
<!-- Node28 -->
<g id="node28" class="node">
<title>Node28</title>
<g id="a_node28"><a xlink:href="../../d8/db4/AH_2Containers_2CRTP_8hpp.html" target="_top" xlink:title=" ">
<polygon fill="white" stroke="black" points="568,-448.5 568,-467.5 702,-467.5 702,-448.5 568,-448.5"/>
<text text-anchor="middle" x="635" y="-455.5" font-family="Helvetica,sans-Serif" font-size="10.00">AH/Containers/CRTP.hpp</text>
</a>
</g>
</g>
<!-- Node27&#45;&gt;Node28 -->
<g id="edge52" class="edge">
<title>Node27&#45;&gt;Node28</title>
<path fill="none" stroke="midnightblue" d="M820.98,-504.44C782.75,-495.1 721.43,-480.12 679.74,-469.93"/>
<polygon fill="midnightblue" stroke="midnightblue" points="680.4,-466.49 669.85,-467.52 678.74,-473.29 680.4,-466.49"/>
</g>
<!-- Node29 -->
<g id="node29" class="node">
<title>Node29</title>
<g id="a_node29"><a xlink:href="../../de/dd1/LinkedList_8hpp.html" target="_top" xlink:title=" ">
<polygon fill="white" stroke="black" points="1018.5,-448.5 1018.5,-467.5 1177.5,-467.5 1177.5,-448.5 1018.5,-448.5"/>
<text text-anchor="middle" x="1098" y="-455.5" font-family="Helvetica,sans-Serif" font-size="10.00">AH/Containers/LinkedList.hpp</text>
</a>
</g>
</g>
<!-- Node27&#45;&gt;Node29 -->
<g id="edge53" class="edge">
<title>Node27&#45;&gt;Node29</title>
<path fill="none" stroke="midnightblue" d="M894.35,-504.44C936.47,-495.04 1004.21,-479.93 1049.87,-469.74"/>
<polygon fill="midnightblue" stroke="midnightblue" points="1050.84,-473.11 1059.83,-467.52 1049.31,-466.28 1050.84,-473.11"/>
</g>
<!-- Node31 -->
<g id="node31" class="node">
<title>Node31</title>
<g id="a_node31"><a xlink:href="../../d4/d84/Mutex_8hpp.html" target="_top" xlink:title=" ">
<polygon fill="white" stroke="black" points="720.5,-448.5 720.5,-467.5 861.5,-467.5 861.5,-448.5 720.5,-448.5"/>
<text text-anchor="middle" x="791" y="-455.5" font-family="Helvetica,sans-Serif" font-size="10.00">AH/Containers/Mutex.hpp</text>
</a>
</g>
</g>
<!-- Node27&#45;&gt;Node31 -->
<g id="edge59" class="edge">
<title>Node27&#45;&gt;Node31</title>
<path fill="none" stroke="midnightblue" d="M845.56,-504.32C835.85,-496.26 821.18,-484.08 809.5,-474.37"/>
<polygon fill="midnightblue" stroke="midnightblue" points="811.56,-471.53 801.63,-467.83 807.09,-476.92 811.56,-471.53"/>
</g>
<!-- Node32 -->
<g id="node32" class="node">
<title>Node32</title>
<g id="a_node32"><a xlink:title=" ">
<polygon fill="white" stroke="#bfbfbf" points="879.5,-448.5 879.5,-467.5 962.5,-467.5 962.5,-448.5 879.5,-448.5"/>
<text text-anchor="middle" x="921" y="-455.5" font-family="Helvetica,sans-Serif" font-size="10.00">AH/STL/utility</text>
</a>
</g>
</g>
<!-- Node27&#45;&gt;Node32 -->
<g id="edge62" class="edge">
<title>Node27&#45;&gt;Node32</title>
<path fill="none" stroke="midnightblue" d="M866.44,-504.32C876.15,-496.26 890.82,-484.08 902.5,-474.37"/>
<polygon fill="midnightblue" stroke="midnightblue" points="904.91,-476.92 910.37,-467.83 900.44,-471.53 904.91,-476.92"/>
</g>
<!-- Node29&#45;&gt;Node2 -->
<g id="edge54" class="edge">
<title>Node29&#45;&gt;Node2</title>
<path fill="none" stroke="midnightblue" d="M1093.9,-448.45C1078.45,-415.68 1023.73,-294.63 1006,-188 1004.54,-179.23 1001.62,-175.74 1006,-168 1021.32,-140.94 1050.68,-159.06 1066,-132 1070.38,-124.26 1071.61,-118.89 1066,-112 994.94,-24.69 650.63,-11.8 490.81,-10.6"/>
<polygon fill="midnightblue" stroke="midnightblue" points="490.57,-7.1 480.55,-10.54 490.53,-14.1 490.57,-7.1"/>
</g>
<!-- Node29&#45;&gt;Node7 -->
<g id="edge56" class="edge">
<title>Node29&#45;&gt;Node7</title>
<path fill="none" stroke="midnightblue" d="M1041.84,-448.5C1019.89,-442.18 996.73,-431.18 983,-412 922.45,-327.4 963.91,-190.28 981.86,-141.2"/>
<polygon fill="midnightblue" stroke="midnightblue" points="985.22,-142.22 985.48,-131.63 978.67,-139.75 985.22,-142.22"/>
</g>
<!-- Node29&#45;&gt;Node14 -->
<g id="edge55" class="edge">
<title>Node29&#45;&gt;Node14</title>
<path fill="none" stroke="midnightblue" d="M1018.49,-450.29C926.21,-442.31 769.17,-428.16 623.7,-412.04"/>
<polygon fill="midnightblue" stroke="midnightblue" points="624.02,-408.56 613.69,-410.93 623.24,-415.51 624.02,-408.56"/>
</g>
<!-- Node29&#45;&gt;Node26 -->
<g id="edge58" class="edge">
<title>Node29&#45;&gt;Node26</title>
<path fill="none" stroke="midnightblue" d="M1031.29,-448.44C948.52,-437.83 808.95,-419.92 732.01,-410.06"/>
<polygon fill="midnightblue" stroke="midnightblue" points="732.4,-406.58 722.04,-408.78 731.51,-413.52 732.4,-406.58"/>
</g>
<!-- Node30 -->
<g id="node30" class="node">
<title>Node30</title>
<g id="a_node30"><a xlink:title=" ">
<polygon fill="white" stroke="#bfbfbf" points="877.5,-392.5 877.5,-411.5 930.5,-411.5 930.5,-392.5 877.5,-392.5"/>
<text text-anchor="middle" x="904" y="-399.5" font-family="Helvetica,sans-Serif" font-size="10.00">stdlib.h</text>
</a>
</g>
</g>
<!-- Node29&#45;&gt;Node30 -->
<g id="edge57" class="edge">
<title>Node29&#45;&gt;Node30</title>
<path fill="none" stroke="midnightblue" d="M1067.26,-448.44C1032.79,-438.85 976.92,-423.3 940.32,-413.11"/>
<polygon fill="midnightblue" stroke="midnightblue" points="941.12,-409.7 930.54,-410.39 939.24,-416.44 941.12,-409.7"/>
</g>
<!-- Node33&#45;&gt;Node2 -->
<g id="edge67" class="edge">
<title>Node33&#45;&gt;Node2</title>
<path fill="none" stroke="midnightblue" d="M1515,-565.81C1515,-546.56 1515,-498.9 1515,-459 1515,-459 1515,-459 1515,-121 1515,-90.2 1515.9,-74.13 1491,-56 1450.75,-26.7 736.26,-15.08 490.91,-11.94"/>
<polygon fill="midnightblue" stroke="midnightblue" points="490.68,-8.44 480.64,-11.81 490.59,-15.44 490.68,-8.44"/>
</g>
<!-- Node33&#45;&gt;Node12 -->
<g id="edge68" class="edge">
<title>Node33&#45;&gt;Node12</title>
<path fill="none" stroke="midnightblue" d="M1427.91,-570.22C1201.67,-559.1 597.97,-529.44 382.1,-518.84"/>
<polygon fill="midnightblue" stroke="midnightblue" points="381.97,-515.33 371.81,-518.33 381.63,-522.32 381.97,-515.33"/>
</g>
<!-- Node33&#45;&gt;Node15 -->
<g id="edge70" class="edge">
<title>Node33&#45;&gt;Node15</title>
<path fill="none" stroke="midnightblue" d="M1504.11,-565.92C1483.1,-548.32 1439,-505.81 1439,-459 1439,-459 1439,-459 1439,-345 1439,-297.51 1387.23,-264.67 1352.28,-247.91"/>
<polygon fill="midnightblue" stroke="midnightblue" points="1353.47,-244.61 1342.92,-243.61 1350.54,-250.97 1353.47,-244.61"/>
</g>
<!-- Node34 -->
<g id="node34" class="node">
<title>Node34</title>
<g id="a_node34"><a xlink:title=" ">
<polygon fill="white" stroke="#bfbfbf" points="1543.5,-504.5 1543.5,-523.5 1644.5,-523.5 1644.5,-504.5 1543.5,-504.5"/>
<text text-anchor="middle" x="1594" y="-511.5" font-family="Helvetica,sans-Serif" font-size="10.00">AH/STL/algorithm</text>
</a>
</g>
</g>
<!-- Node33&#45;&gt;Node34 -->
<g id="edge69" class="edge">
<title>Node33&#45;&gt;Node34</title>
<path fill="none" stroke="midnightblue" d="M1526.32,-565.98C1538.87,-556.52 1559.35,-541.1 1574.5,-529.69"/>
<polygon fill="midnightblue" stroke="midnightblue" points="1576.82,-532.32 1582.7,-523.51 1572.61,-526.73 1576.82,-532.32"/>
</g>
</g>
</svg>
