<?xml version="1.0" encoding="UTF-8" standalone="no"?>
<!DOCTYPE svg PUBLIC "-//W3C//DTD SVG 1.1//EN"
 "http://www.w3.org/Graphics/SVG/1.1/DTD/svg11.dtd">
<!-- Generated by graphviz version 2.40.1 (20161225.0304)
 -->
<!-- Title: AnalogMultiplex.hpp Pages: 1 -->
<svg width="1400pt" height="823pt"
 viewBox="0.00 0.00 1400.00 823.00" xmlns="http://www.w3.org/2000/svg" xmlns:xlink="http://www.w3.org/1999/xlink">
<g id="graph0" class="graph" transform="scale(1 1) rotate(0) translate(4 819)">
<title>AnalogMultiplex.hpp</title>
<polygon fill="#ffffff" stroke="transparent" points="-4,4 -4,-819 1396,-819 1396,4 -4,4"/>
<!-- Node1 -->
<g id="node1" class="node">
<title>Node1</title>
<g id="a_node1"><a xlink:title=" ">
<polygon fill="#bfbfbf" stroke="#000000" points="252,-795.5 252,-814.5 356,-814.5 356,-795.5 252,-795.5"/>
<text text-anchor="middle" x="304" y="-802.5" font-family="Helvetica,sans-Serif" font-size="10.00" fill="#000000">AnalogMultiplex.hpp</text>
</a>
</g>
</g>
<!-- Node2 -->
<g id="node2" class="node">
<title>Node2</title>
<g id="a_node2"><a xlink:href="../../d1/d65/Warnings_8hpp.html" target="_top" xlink:title=" ">
<polygon fill="#ffffff" stroke="#000000" points="928.5,-.5 928.5,-19.5 1061.5,-19.5 1061.5,-.5 928.5,-.5"/>
<text text-anchor="middle" x="995" y="-7.5" font-family="Helvetica,sans-Serif" font-size="10.00" fill="#000000">AH/Settings/Warnings.hpp</text>
</a>
</g>
</g>
<!-- Node1&#45;&gt;Node2 -->
<g id="edge1" class="edge">
<title>Node1&#45;&gt;Node2</title>
<path fill="none" stroke="#191970" d="M356.11,-802.4052C572.8869,-791.2736 1392,-745.7233 1392,-693 1392,-693 1392,-693 1392,-122 1392,-73.8193 1350.3641,-74.7939 1306,-56 1264.997,-38.63 1149.9126,-24.7145 1071.844,-16.9067"/>
<polygon fill="#191970" stroke="#191970" points="1071.8579,-13.3912 1061.5626,-15.8922 1071.1705,-20.3574 1071.8579,-13.3912"/>
</g>
<!-- Node3 -->
<g id="node3" class="node">
<title>Node3</title>
<g id="a_node3"><a xlink:href="../../dd/ddf/ExtendedInputOutput_8hpp.html" target="_top" xlink:title=" ">
<polygon fill="#ffffff" stroke="#000000" points="1062,-627.5 1062,-646.5 1190,-646.5 1190,-627.5 1062,-627.5"/>
<text text-anchor="middle" x="1126" y="-634.5" font-family="Helvetica,sans-Serif" font-size="10.00" fill="#000000">ExtendedInputOutput.hpp</text>
</a>
</g>
</g>
<!-- Node1&#45;&gt;Node3 -->
<g id="edge2" class="edge">
<title>Node1&#45;&gt;Node3</title>
<path fill="none" stroke="#191970" d="M356.2698,-801.5456C524.7622,-789.9747 1046.0621,-750.6171 1104,-703 1117.533,-691.8777 1122.7934,-672.1746 1124.811,-657.183"/>
<polygon fill="#191970" stroke="#191970" points="1128.3305,-657.1468 1125.805,-646.8574 1121.3628,-656.4759 1128.3305,-657.1468"/>
</g>
<!-- Node11 -->
<g id="node11" class="node">
<title>Node11</title>
<g id="a_node11"><a xlink:href="../../de/d76/Array_8hpp.html" target="_top" xlink:title=" ">
<polygon fill="#ffffff" stroke="#000000" points="860,-504.5 860,-523.5 986,-523.5 986,-504.5 860,-504.5"/>
<text text-anchor="middle" x="923" y="-511.5" font-family="Helvetica,sans-Serif" font-size="10.00" fill="#000000">AH/Containers/Array.hpp</text>
</a>
</g>
</g>
<!-- Node1&#45;&gt;Node11 -->
<g id="edge70" class="edge">
<title>Node1&#45;&gt;Node11</title>
<path fill="none" stroke="#191970" d="M304,-795.4116C304,-776.0538 304,-730.9167 304,-693 304,-693 304,-693 304,-637 304,-581.8982 686.2151,-537.4447 849.9608,-520.9285"/>
<polygon fill="#191970" stroke="#191970" points="850.3516,-524.407 859.9531,-519.928 849.6541,-517.4418 850.3516,-524.407"/>
</g>
<!-- Node25 -->
<g id="node25" class="node">
<title>Node25</title>
<g id="a_node25"><a xlink:href="../../d2/d05/StaticSizeExtendedIOElement_8hpp.html" target="_top" xlink:title=" ">
<polygon fill="#ffffff" stroke="#000000" points="70,-739.5 70,-758.5 238,-758.5 238,-739.5 70,-739.5"/>
<text text-anchor="middle" x="154" y="-746.5" font-family="Helvetica,sans-Serif" font-size="10.00" fill="#000000">StaticSizeExtendedIOElement.hpp</text>
</a>
</g>
</g>
<!-- Node1&#45;&gt;Node25 -->
<g id="edge46" class="edge">
<title>Node1&#45;&gt;Node25</title>
<path fill="none" stroke="#191970" d="M278.2141,-795.3733C253.5953,-786.1822 216.31,-772.2624 189.0125,-762.0713"/>
<polygon fill="#191970" stroke="#191970" points="190.042,-758.7198 179.4494,-758.5011 187.5937,-765.2777 190.042,-758.7198"/>
</g>
<!-- Node30 -->
<g id="node30" class="node">
<title>Node30</title>
<g id="a_node30"><a xlink:title=" ">
<polygon fill="#ffffff" stroke="#bfbfbf" points="256,-392.5 256,-411.5 304,-411.5 304,-392.5 256,-392.5"/>
<text text-anchor="middle" x="280" y="-399.5" font-family="Helvetica,sans-Serif" font-size="10.00" fill="#000000">stdlib.h</text>
</a>
</g>
</g>
<!-- Node1&#45;&gt;Node30 -->
<g id="edge71" class="edge">
<title>Node1&#45;&gt;Node30</title>
<path fill="none" stroke="#191970" d="M298.393,-795.4834C287.8226,-776.6141 266,-732.8343 266,-693 266,-693 266,-693 266,-514 266,-481.311 271.9446,-443.6669 276.0866,-421.4058"/>
<polygon fill="#191970" stroke="#191970" points="279.5324,-422.0207 277.9941,-411.5381 272.6597,-420.692 279.5324,-422.0207"/>
</g>
<!-- Node3&#45;&gt;Node2 -->
<g id="edge4" class="edge">
<title>Node3&#45;&gt;Node2</title>
<path fill="none" stroke="#191970" d="M1175.4243,-627.4242C1231.7204,-613.3123 1316,-580.9977 1316,-514 1316,-514 1316,-514 1316,-122 1316,-70.4613 1166.6187,-37.1188 1071.6644,-21.1307"/>
<polygon fill="#191970" stroke="#191970" points="1071.9484,-17.6302 1061.5114,-19.4521 1070.8065,-24.5365 1071.9484,-17.6302"/>
</g>
<!-- Node4 -->
<g id="node4" class="node">
<title>Node4</title>
<g id="a_node4"><a xlink:href="../../dc/dc7/NamespaceSettings_8hpp.html" target="_top" xlink:title=" ">
<polygon fill="#ffffff" stroke="#000000" points="741,-56.5 741,-75.5 921,-75.5 921,-56.5 741,-56.5"/>
<text text-anchor="middle" x="831" y="-63.5" font-family="Helvetica,sans-Serif" font-size="10.00" fill="#000000">AH/Settings/NamespaceSettings.hpp</text>
</a>
</g>
</g>
<!-- Node3&#45;&gt;Node4 -->
<g id="edge3" class="edge">
<title>Node3&#45;&gt;Node4</title>
<path fill="none" stroke="#191970" d="M1157.1263,-627.4664C1201.5959,-611.6878 1278,-575.6131 1278,-514 1278,-514 1278,-514 1278,-234 1278,-154.3917 1026.434,-99.678 900.7474,-77.3101"/>
<polygon fill="#191970" stroke="#191970" points="901.2757,-73.8494 890.8206,-75.5642 900.0631,-80.7436 901.2757,-73.8494"/>
</g>
<!-- Node5 -->
<g id="node5" class="node">
<title>Node5</title>
<g id="a_node5"><a xlink:href="../../d6/ddf/Arduino-Wrapper_8h.html" target="_top" xlink:title=" ">
<polygon fill="#ffffff" stroke="#000000" points="291.5,-168.5 291.5,-187.5 406.5,-187.5 406.5,-168.5 291.5,-168.5"/>
<text text-anchor="middle" x="349" y="-175.5" font-family="Helvetica,sans-Serif" font-size="10.00" fill="#000000">AH/Arduino&#45;Wrapper.h</text>
</a>
</g>
</g>
<!-- Node3&#45;&gt;Node5 -->
<g id="edge5" class="edge">
<title>Node3&#45;&gt;Node5</title>
<path fill="none" stroke="#191970" d="M1061.8122,-633.849C920.4264,-624.7725 574.1852,-590.7274 316,-468 274.7961,-448.4139 233.0325,-435.4315 247,-392 262.4065,-344.094 290.9023,-345.211 313,-300 329.7347,-265.7614 340.2665,-222.2449 345.3537,-197.5175"/>
<polygon fill="#191970" stroke="#191970" points="348.8126,-198.0671 347.3107,-187.5793 341.9445,-196.7146 348.8126,-198.0671"/>
</g>
<!-- Node10 -->
<g id="node10" class="node">
<title>Node10</title>
<g id="a_node10"><a xlink:href="../../d4/d35/Hardware-Types_8hpp.html" target="_top" xlink:title=" ">
<polygon fill="#ffffff" stroke="#000000" points="1065.5,-560.5 1065.5,-590.5 1186.5,-590.5 1186.5,-560.5 1065.5,-560.5"/>
<text text-anchor="start" x="1073.5" y="-578.5" font-family="Helvetica,sans-Serif" font-size="10.00" fill="#000000">AH/Hardware/Hardware</text>
<text text-anchor="middle" x="1126" y="-567.5" font-family="Helvetica,sans-Serif" font-size="10.00" fill="#000000">&#45;Types.hpp</text>
</a>
</g>
</g>
<!-- Node3&#45;&gt;Node10 -->
<g id="edge14" class="edge">
<title>Node3&#45;&gt;Node10</title>
<path fill="none" stroke="#191970" d="M1126,-627.3906C1126,-620.2234 1126,-610.0862 1126,-600.671"/>
<polygon fill="#191970" stroke="#191970" points="1129.5001,-600.5446 1126,-590.5446 1122.5001,-600.5446 1129.5001,-600.5446"/>
</g>
<!-- Node6 -->
<g id="node6" class="node">
<title>Node6</title>
<g id="a_node6"><a xlink:href="../../d7/d79/MinMaxFix_8hpp.html" target="_top" xlink:title=" ">
<polygon fill="#ffffff" stroke="#000000" points="277.5,-112.5 277.5,-131.5 402.5,-131.5 402.5,-112.5 277.5,-112.5"/>
<text text-anchor="middle" x="340" y="-119.5" font-family="Helvetica,sans-Serif" font-size="10.00" fill="#000000">AH/Math/MinMaxFix.hpp</text>
</a>
</g>
</g>
<!-- Node5&#45;&gt;Node6 -->
<g id="edge6" class="edge">
<title>Node5&#45;&gt;Node6</title>
<path fill="none" stroke="#191970" d="M347.4323,-168.2455C346.2579,-160.9382 344.6116,-150.6944 343.1668,-141.7046"/>
<polygon fill="#191970" stroke="#191970" points="346.5922,-140.9606 341.5497,-131.6427 339.6809,-142.0714 346.5922,-140.9606"/>
</g>
<!-- Node8 -->
<g id="node8" class="node">
<title>Node8</title>
<g id="a_node8"><a xlink:title=" ">
<polygon fill="#ffffff" stroke="#bfbfbf" points="179,-.5 179,-19.5 237,-19.5 237,-.5 179,-.5"/>
<text text-anchor="middle" x="208" y="-7.5" font-family="Helvetica,sans-Serif" font-size="10.00" fill="#000000">Arduino.h</text>
</a>
</g>
</g>
<!-- Node5&#45;&gt;Node8 -->
<g id="edge13" class="edge">
<title>Node5&#45;&gt;Node8</title>
<path fill="none" stroke="#191970" d="M323.7426,-168.3747C306.296,-160.6904 283.5268,-148.4779 268,-132 239.531,-101.7872 221.86,-55.5053 213.5872,-29.4936"/>
<polygon fill="#191970" stroke="#191970" points="216.8661,-28.2455 210.613,-19.6928 210.1677,-30.2782 216.8661,-28.2455"/>
</g>
<!-- Node9 -->
<g id="node9" class="node">
<title>Node9</title>
<g id="a_node9"><a xlink:title=" ">
<polygon fill="#ffffff" stroke="#bfbfbf" points="420.5,-112.5 420.5,-131.5 521.5,-131.5 521.5,-112.5 420.5,-112.5"/>
<text text-anchor="middle" x="471" y="-119.5" font-family="Helvetica,sans-Serif" font-size="10.00" fill="#000000">AH/STL/type_traits</text>
</a>
</g>
</g>
<!-- Node5&#45;&gt;Node9 -->
<g id="edge12" class="edge">
<title>Node5&#45;&gt;Node9</title>
<path fill="none" stroke="#191970" d="M369.9725,-168.3733C389.5567,-159.3838 418.9961,-145.8706 441.051,-135.7471"/>
<polygon fill="#191970" stroke="#191970" points="442.6729,-138.8538 450.3011,-131.5011 439.7527,-132.4919 442.6729,-138.8538"/>
</g>
<!-- Node6&#45;&gt;Node2 -->
<g id="edge7" class="edge">
<title>Node6&#45;&gt;Node2</title>
<path fill="none" stroke="#191970" d="M367.2196,-112.3917C409.4412,-97.8762 493.5186,-70.5138 567,-56 688.5315,-31.9955 832.1235,-19.7909 918.2534,-14.1695"/>
<polygon fill="#191970" stroke="#191970" points="918.7107,-17.6475 928.4669,-13.5163 918.2638,-10.6618 918.7107,-17.6475"/>
</g>
<!-- Node6&#45;&gt;Node4 -->
<g id="edge11" class="edge">
<title>Node6&#45;&gt;Node4</title>
<path fill="none" stroke="#191970" d="M402.7059,-113.0613C405.508,-112.6956 408.2826,-112.3401 411,-112 520.1091,-98.3445 645.4512,-84.9085 730.6024,-76.1172"/>
<polygon fill="#191970" stroke="#191970" points="731.195,-79.5748 740.7837,-75.0684 730.4776,-72.6116 731.195,-79.5748"/>
</g>
<!-- Node7 -->
<g id="node7" class="node">
<title>Node7</title>
<g id="a_node7"><a xlink:href="../../d6/d3b/FixArduinoMacros_8hpp.html" target="_top" xlink:title=" ">
<polygon fill="#ffffff" stroke="#000000" points="262,-56.5 262,-75.5 418,-75.5 418,-56.5 262,-56.5"/>
<text text-anchor="middle" x="340" y="-63.5" font-family="Helvetica,sans-Serif" font-size="10.00" fill="#000000">AH/Math/FixArduinoMacros.hpp</text>
</a>
</g>
</g>
<!-- Node6&#45;&gt;Node7 -->
<g id="edge8" class="edge">
<title>Node6&#45;&gt;Node7</title>
<path fill="none" stroke="#191970" d="M340,-112.2455C340,-104.9382 340,-94.6944 340,-85.7046"/>
<polygon fill="#191970" stroke="#191970" points="343.5001,-85.6426 340,-75.6427 336.5001,-85.6427 343.5001,-85.6426"/>
</g>
<!-- Node7&#45;&gt;Node2 -->
<g id="edge9" class="edge">
<title>Node7&#45;&gt;Node2</title>
<path fill="none" stroke="#191970" d="M418.0332,-59.3285C544.402,-48.5244 792.3218,-27.3282 918.0149,-16.5819"/>
<polygon fill="#191970" stroke="#191970" points="918.6548,-20.0401 928.3203,-15.7009 918.0584,-13.0655 918.6548,-20.0401"/>
</g>
<!-- Node7&#45;&gt;Node8 -->
<g id="edge10" class="edge">
<title>Node7&#45;&gt;Node8</title>
<path fill="none" stroke="#191970" d="M317.3084,-56.3733C295.9289,-47.3032 263.6943,-33.6279 239.7638,-23.4755"/>
<polygon fill="#191970" stroke="#191970" points="240.9683,-20.1846 230.3955,-19.5011 238.2344,-26.6287 240.9683,-20.1846"/>
</g>
<!-- Node10&#45;&gt;Node2 -->
<g id="edge15" class="edge">
<title>Node10&#45;&gt;Node2</title>
<path fill="none" stroke="#191970" d="M1156.85,-560.4878C1190.6116,-541.6434 1240,-505.892 1240,-458 1240,-458 1240,-458 1240,-122 1240,-85.1996 1220.8413,-76.077 1190,-56 1169.3846,-42.5798 1112.0246,-29.9472 1064.8156,-21.3284"/>
<polygon fill="#191970" stroke="#191970" points="1065.3737,-17.8728 1054.9127,-19.5514 1064.1372,-24.7627 1065.3737,-17.8728"/>
</g>
<!-- Node10&#45;&gt;Node4 -->
<g id="edge44" class="edge">
<title>Node10&#45;&gt;Node4</title>
<path fill="none" stroke="#191970" d="M1130.4982,-560.3372C1133.2764,-550.1632 1136.574,-536.4038 1138,-524 1141.9139,-489.9559 1137.5077,-479.9042 1125,-448 1060.6462,-283.8482 903.0888,-131.1546 849.3257,-82.2405"/>
<polygon fill="#191970" stroke="#191970" points="851.6643,-79.6364 841.8932,-75.5404 846.9773,-84.8357 851.6643,-79.6364"/>
</g>
<!-- Node10&#45;&gt;Node11 -->
<g id="edge16" class="edge">
<title>Node10&#45;&gt;Node11</title>
<path fill="none" stroke="#191970" d="M1076.3406,-560.4554C1041.8753,-550.0139 996.5091,-536.27 964.0802,-526.4455"/>
<polygon fill="#191970" stroke="#191970" points="965.0431,-523.0802 954.4578,-523.5303 963.0134,-529.7795 965.0431,-523.0802"/>
</g>
<!-- Node21 -->
<g id="node21" class="node">
<title>Node21</title>
<g id="a_node21"><a xlink:title=" ">
<polygon fill="#ffffff" stroke="#bfbfbf" points="879.5,-224.5 879.5,-243.5 928.5,-243.5 928.5,-224.5 879.5,-224.5"/>
<text text-anchor="middle" x="904" y="-231.5" font-family="Helvetica,sans-Serif" font-size="10.00" fill="#000000">stdint.h</text>
</a>
</g>
</g>
<!-- Node10&#45;&gt;Node21 -->
<g id="edge45" class="edge">
<title>Node10&#45;&gt;Node21</title>
<path fill="none" stroke="#191970" d="M1126.451,-560.1058C1126.5712,-535.227 1124.2564,-485.2144 1106,-448 1062.3047,-358.9301 968.6702,-281.8537 926.0007,-249.8255"/>
<polygon fill="#191970" stroke="#191970" points="927.8257,-246.8219 917.7053,-243.6867 923.6616,-252.4488 927.8257,-246.8219"/>
</g>
<!-- Node11&#45;&gt;Node2 -->
<g id="edge17" class="edge">
<title>Node11&#45;&gt;Node2</title>
<path fill="none" stroke="#191970" d="M973.5248,-504.4795C1053.9249,-487.8694 1202,-450.6715 1202,-402 1202,-402 1202,-402 1202,-122 1202,-60.5846 1130.6432,-32.678 1071.7207,-20.1034"/>
<polygon fill="#191970" stroke="#191970" points="1072.1298,-16.6156 1061.6355,-18.0715 1070.7472,-23.4777 1072.1298,-16.6156"/>
</g>
<!-- Node11&#45;&gt;Node9 -->
<g id="edge42" class="edge">
<title>Node11&#45;&gt;Node9</title>
<path fill="none" stroke="#191970" d="M895.6561,-504.3963C830.2133,-481.3505 668.2712,-423.9384 645,-412 605.57,-391.772 508.7034,-333.7642 480,-300 462.2268,-279.0931 459.917,-270.7951 454,-244 446.0823,-208.1447 456.4333,-165.504 464.1086,-141.3099"/>
<polygon fill="#191970" stroke="#191970" points="467.5096,-142.1763 467.3716,-131.5823 460.873,-139.9501 467.5096,-142.1763"/>
</g>
<!-- Node12 -->
<g id="node12" class="node">
<title>Node12</title>
<g id="a_node12"><a xlink:href="../../d1/d93/Error_8hpp.html" target="_top" xlink:title=" ">
<polygon fill="#ffffff" stroke="#000000" points="820,-448.5 820,-467.5 918,-467.5 918,-448.5 820,-448.5"/>
<text text-anchor="middle" x="869" y="-455.5" font-family="Helvetica,sans-Serif" font-size="10.00" fill="#000000">AH/Error/Error.hpp</text>
</a>
</g>
</g>
<!-- Node11&#45;&gt;Node12 -->
<g id="edge18" class="edge">
<title>Node11&#45;&gt;Node12</title>
<path fill="none" stroke="#191970" d="M913.5939,-504.2455C905.8507,-496.2155 894.688,-484.6394 885.4682,-475.0781"/>
<polygon fill="#191970" stroke="#191970" points="887.7591,-472.4117 878.2983,-467.6427 882.7202,-477.2706 887.7591,-472.4117"/>
</g>
<!-- Node20 -->
<g id="node20" class="node">
<title>Node20</title>
<g id="a_node20"><a xlink:title=" ">
<polygon fill="#ffffff" stroke="#bfbfbf" points="733,-224.5 733,-243.5 785,-243.5 785,-224.5 733,-224.5"/>
<text text-anchor="middle" x="759" y="-231.5" font-family="Helvetica,sans-Serif" font-size="10.00" fill="#000000">stddef.h</text>
</a>
</g>
</g>
<!-- Node11&#45;&gt;Node20 -->
<g id="edge43" class="edge">
<title>Node11&#45;&gt;Node20</title>
<path fill="none" stroke="#191970" d="M925.1179,-504.4905C927.6483,-491.5647 931.0623,-467.7911 927,-448 916.111,-394.9494 911.1505,-379.5808 879,-336 851.9926,-299.3908 809.4016,-267.2825 782.892,-249.2888"/>
<polygon fill="#191970" stroke="#191970" points="784.5017,-246.1558 774.2377,-243.5286 780.6231,-251.9831 784.5017,-246.1558"/>
</g>
<!-- Node24 -->
<g id="node24" class="node">
<title>Node24</title>
<g id="a_node24"><a xlink:title=" ">
<polygon fill="#ffffff" stroke="#bfbfbf" points="1012.5,-448.5 1012.5,-467.5 1097.5,-467.5 1097.5,-448.5 1012.5,-448.5"/>
<text text-anchor="middle" x="1055" y="-455.5" font-family="Helvetica,sans-Serif" font-size="10.00" fill="#000000">AH/STL/iterator</text>
</a>
</g>
</g>
<!-- Node11&#45;&gt;Node24 -->
<g id="edge41" class="edge">
<title>Node11&#45;&gt;Node24</title>
<path fill="none" stroke="#191970" d="M945.6916,-504.3733C967.0711,-495.3032 999.3057,-481.6279 1023.2362,-471.4755"/>
<polygon fill="#191970" stroke="#191970" points="1024.7656,-474.6287 1032.6045,-467.5011 1022.0317,-468.1846 1024.7656,-474.6287"/>
</g>
<!-- Node12&#45;&gt;Node2 -->
<g id="edge19" class="edge">
<title>Node12&#45;&gt;Node2</title>
<path fill="none" stroke="#191970" d="M877.5005,-448.1113C889.1853,-434.7557 911.1402,-410.4966 932,-392 983.0784,-346.7082 1024.4304,-361.0397 1055,-300 1067.2632,-275.5134 1178.9437,-335.4513 1047,-56 1041.1704,-43.6531 1030.3179,-33.226 1020.0293,-25.4374"/>
<polygon fill="#191970" stroke="#191970" points="1021.8335,-22.4272 1011.6422,-19.5313 1017.8032,-28.1506 1021.8335,-22.4272"/>
</g>
<!-- Node13 -->
<g id="node13" class="node">
<title>Node13</title>
<g id="a_node13"><a xlink:href="../../df/dee/Debug_8hpp.html" target="_top" xlink:title=" ">
<polygon fill="#ffffff" stroke="#000000" points="654.5,-392.5 654.5,-411.5 767.5,-411.5 767.5,-392.5 654.5,-392.5"/>
<text text-anchor="middle" x="711" y="-399.5" font-family="Helvetica,sans-Serif" font-size="10.00" fill="#000000">AH/Debug/Debug.hpp</text>
</a>
</g>
</g>
<!-- Node12&#45;&gt;Node13 -->
<g id="edge20" class="edge">
<title>Node12&#45;&gt;Node13</title>
<path fill="none" stroke="#191970" d="M841.8388,-448.3733C815.7933,-439.1419 776.2884,-425.1402 747.5021,-414.9375"/>
<polygon fill="#191970" stroke="#191970" points="748.4015,-411.5429 737.8067,-411.5011 746.063,-418.1408 748.4015,-411.5429"/>
</g>
<!-- Node13&#45;&gt;Node2 -->
<g id="edge21" class="edge">
<title>Node13&#45;&gt;Node2</title>
<path fill="none" stroke="#191970" d="M760.7991,-392.4471C803.2142,-383.5818 860.1885,-369.7229 879,-356 955.2862,-300.3496 995,-272.4274 995,-178 995,-178 995,-178 995,-122 995,-89.7116 995,-52.1872 995,-29.8048"/>
<polygon fill="#191970" stroke="#191970" points="998.5001,-29.5883 995,-19.5884 991.5001,-29.5884 998.5001,-29.5883"/>
</g>
<!-- Node14 -->
<g id="node14" class="node">
<title>Node14</title>
<g id="a_node14"><a xlink:href="../../dd/d80/PrintStream_8hpp.html" target="_top" xlink:title=" ">
<polygon fill="#ffffff" stroke="#000000" points="145.5,-280.5 145.5,-299.5 304.5,-299.5 304.5,-280.5 145.5,-280.5"/>
<text text-anchor="middle" x="225" y="-287.5" font-family="Helvetica,sans-Serif" font-size="10.00" fill="#000000">AH/PrintStream/PrintStream.hpp</text>
</a>
</g>
</g>
<!-- Node13&#45;&gt;Node14 -->
<g id="edge22" class="edge">
<title>Node13&#45;&gt;Node14</title>
<path fill="none" stroke="#191970" d="M669.5639,-392.4509C580.8832,-372.0142 372.9214,-324.0889 276.1745,-301.7933"/>
<polygon fill="#191970" stroke="#191970" points="276.8618,-298.36 266.3312,-299.5249 275.2898,-305.1812 276.8618,-298.36"/>
</g>
<!-- Node15 -->
<g id="node15" class="node">
<title>Node15</title>
<g id="a_node15"><a xlink:href="../../d2/dd5/SettingsWrapper_8hpp.html" target="_top" xlink:title=" ">
<polygon fill="#ffffff" stroke="#000000" points="706,-336.5 706,-355.5 870,-355.5 870,-336.5 706,-336.5"/>
<text text-anchor="middle" x="788" y="-343.5" font-family="Helvetica,sans-Serif" font-size="10.00" fill="#000000">AH/Settings/SettingsWrapper.hpp</text>
</a>
</g>
</g>
<!-- Node13&#45;&gt;Node15 -->
<g id="edge25" class="edge">
<title>Node13&#45;&gt;Node15</title>
<path fill="none" stroke="#191970" d="M719.1455,-392.2455C729.2057,-383.7337 746.1105,-371.2375 760.7529,-361.3801"/>
<polygon fill="#191970" stroke="#191970" points="763.0558,-364.0553 769.4962,-355.6427 759.2153,-358.2028 763.0558,-364.0553"/>
</g>
<!-- Node23 -->
<g id="node23" class="node">
<title>Node23</title>
<g id="a_node23"><a xlink:href="../../d7/d52/DebugVal_8hpp.html" target="_top" xlink:title=" ">
<polygon fill="#ffffff" stroke="#000000" points="610,-336.5 610,-355.5 688,-355.5 688,-336.5 610,-336.5"/>
<text text-anchor="middle" x="649" y="-343.5" font-family="Helvetica,sans-Serif" font-size="10.00" fill="#000000">DebugVal.hpp</text>
</a>
</g>
</g>
<!-- Node13&#45;&gt;Node23 -->
<g id="edge40" class="edge">
<title>Node13&#45;&gt;Node23</title>
<path fill="none" stroke="#191970" d="M700.2004,-392.2455C691.1322,-384.0549 677.9794,-372.1749 667.2755,-362.5069"/>
<polygon fill="#191970" stroke="#191970" points="669.4429,-359.7482 659.6758,-355.6427 664.7509,-364.9429 669.4429,-359.7482"/>
</g>
<!-- Node14&#45;&gt;Node2 -->
<g id="edge23" class="edge">
<title>Node14&#45;&gt;Node2</title>
<path fill="none" stroke="#191970" d="M225,-280.4116C225,-261.0538 225,-215.9167 225,-178 225,-178 225,-178 225,-122 225,-90.1361 226.988,-74.4034 253,-56 279.8376,-37.0124 734.0778,-19.1072 918.3029,-12.5917"/>
<polygon fill="#191970" stroke="#191970" points="918.5865,-16.084 928.4572,-12.2344 918.3403,-9.0883 918.5865,-16.084"/>
</g>
<!-- Node14&#45;&gt;Node5 -->
<g id="edge24" class="edge">
<title>Node14&#45;&gt;Node5</title>
<path fill="none" stroke="#191970" d="M235.5722,-280.4509C256.7115,-261.3574 304.4156,-218.2697 330.7251,-194.5063"/>
<polygon fill="#191970" stroke="#191970" points="333.3796,-196.8251 338.4546,-187.5249 328.6875,-191.6304 333.3796,-196.8251"/>
</g>
<!-- Node15&#45;&gt;Node2 -->
<g id="edge26" class="edge">
<title>Node15&#45;&gt;Node2</title>
<path fill="none" stroke="#191970" d="M795.0534,-336.2551C801.6655,-327.029 811.7418,-312.7328 820,-300 885.2857,-199.3406 957.666,-74.9244 984.3633,-28.5573"/>
<polygon fill="#191970" stroke="#191970" points="987.5332,-30.0658 989.4813,-19.6516 981.464,-26.5779 987.5332,-30.0658"/>
</g>
<!-- Node15&#45;&gt;Node4 -->
<g id="edge27" class="edge">
<title>Node15&#45;&gt;Node4</title>
<path fill="none" stroke="#191970" d="M791.6888,-336.2751C798.643,-317.0407 813,-272.6505 813,-234 813,-234 813,-234 813,-178 813,-145.1472 820.6431,-107.5528 825.9684,-85.3462"/>
<polygon fill="#191970" stroke="#191970" points="829.3987,-86.0551 828.421,-75.5055 822.6065,-84.3622 829.3987,-86.0551"/>
</g>
<!-- Node15&#45;&gt;Node13 -->
<g id="edge39" class="edge">
<title>Node15&#45;&gt;Node13</title>
<path fill="none" stroke="#191970" d="M779.9865,-355.6427C769.9865,-364.1194 753.102,-376.6096 738.4399,-386.49"/>
<polygon fill="#191970" stroke="#191970" points="736.1152,-383.8295 729.6792,-392.2455 739.9587,-389.6799 736.1152,-383.8295"/>
</g>
<!-- Node16 -->
<g id="node16" class="node">
<title>Node16</title>
<g id="a_node16"><a xlink:href="../../db/d02/Settings_8hpp.html" target="_top" xlink:title="All user settings and debugging options can be changed here.">
<polygon fill="#ffffff" stroke="#000000" points="489.5,-280.5 489.5,-299.5 560.5,-299.5 560.5,-280.5 489.5,-280.5"/>
<text text-anchor="middle" x="525" y="-287.5" font-family="Helvetica,sans-Serif" font-size="10.00" fill="#000000">Settings.hpp</text>
</a>
</g>
</g>
<!-- Node15&#45;&gt;Node16 -->
<g id="edge28" class="edge">
<title>Node15&#45;&gt;Node16</title>
<path fill="none" stroke="#191970" d="M743.0875,-336.4369C695.0116,-326.2002 619.1402,-310.0451 570.7459,-299.7406"/>
<polygon fill="#191970" stroke="#191970" points="571.3658,-296.2942 560.8561,-297.6348 569.9079,-303.1407 571.3658,-296.2942"/>
</g>
<!-- Node22 -->
<g id="node22" class="node">
<title>Node22</title>
<g id="a_node22"><a xlink:href="../../d9/d98/TeensyUSBTypes_8hpp.html" target="_top" xlink:title=" ">
<polygon fill="#ffffff" stroke="#000000" points="617,-280.5 617,-299.5 785,-299.5 785,-280.5 617,-280.5"/>
<text text-anchor="middle" x="701" y="-287.5" font-family="Helvetica,sans-Serif" font-size="10.00" fill="#000000">AH/Teensy/TeensyUSBTypes.hpp</text>
</a>
</g>
</g>
<!-- Node15&#45;&gt;Node22 -->
<g id="edge38" class="edge">
<title>Node15&#45;&gt;Node22</title>
<path fill="none" stroke="#191970" d="M772.8458,-336.2455C759.4973,-327.6534 739.8414,-315.0014 724.4617,-305.1018"/>
<polygon fill="#191970" stroke="#191970" points="726.2836,-302.1121 715.9806,-299.6427 722.4949,-307.9982 726.2836,-302.1121"/>
</g>
<!-- Node17 -->
<g id="node17" class="node">
<title>Node17</title>
<g id="a_node17"><a xlink:href="../../dc/d50/Frequency_8hpp.html" target="_top" xlink:title=" ">
<polygon fill="#ffffff" stroke="#000000" points="649,-112.5 649,-131.5 777,-131.5 777,-112.5 649,-112.5"/>
<text text-anchor="middle" x="713" y="-119.5" font-family="Helvetica,sans-Serif" font-size="10.00" fill="#000000">AH/Types/Frequency.hpp</text>
</a>
</g>
</g>
<!-- Node16&#45;&gt;Node17 -->
<g id="edge29" class="edge">
<title>Node16&#45;&gt;Node17</title>
<path fill="none" stroke="#191970" d="M560.5367,-281.8801C605.2485,-271.3562 677.2831,-253.2609 686,-244 712.2798,-216.0802 715.1416,-168.5571 714.395,-141.8094"/>
<polygon fill="#191970" stroke="#191970" points="717.887,-141.5565 713.9118,-131.7357 710.895,-141.8919 717.887,-141.5565"/>
</g>
<!-- Node18 -->
<g id="node18" class="node">
<title>Node18</title>
<g id="a_node18"><a xlink:href="../../d7/d7c/ADCConfig_8hpp.html" target="_top" xlink:title="This file contains the platform&#45;specific ADC resolutions. By default, the library automatically selec...">
<polygon fill="#ffffff" stroke="#000000" points="463,-224.5 463,-243.5 611,-243.5 611,-224.5 463,-224.5"/>
<text text-anchor="middle" x="537" y="-231.5" font-family="Helvetica,sans-Serif" font-size="10.00" fill="#000000">AH/Hardware/ADCConfig.hpp</text>
</a>
</g>
</g>
<!-- Node16&#45;&gt;Node18 -->
<g id="edge32" class="edge">
<title>Node16&#45;&gt;Node18</title>
<path fill="none" stroke="#191970" d="M527.0902,-280.2455C528.6561,-272.9382 530.8512,-262.6944 532.7776,-253.7046"/>
<polygon fill="#191970" stroke="#191970" points="536.2607,-254.1541 534.9337,-243.6427 529.416,-252.6873 536.2607,-254.1541"/>
</g>
<!-- Node19 -->
<g id="node19" class="node">
<title>Node19</title>
<g id="a_node19"><a xlink:title=" ">
<polygon fill="#ffffff" stroke="#bfbfbf" points="629,-224.5 629,-243.5 677,-243.5 677,-224.5 629,-224.5"/>
<text text-anchor="middle" x="653" y="-231.5" font-family="Helvetica,sans-Serif" font-size="10.00" fill="#000000">limits.h</text>
</a>
</g>
</g>
<!-- Node16&#45;&gt;Node19 -->
<g id="edge35" class="edge">
<title>Node16&#45;&gt;Node19</title>
<path fill="none" stroke="#191970" d="M547.004,-280.3733C567.6435,-271.3435 598.7158,-257.7494 621.8889,-247.6111"/>
<polygon fill="#191970" stroke="#191970" points="623.5245,-250.7159 631.2831,-243.5011 620.7187,-244.3028 623.5245,-250.7159"/>
</g>
<!-- Node16&#45;&gt;Node20 -->
<g id="edge36" class="edge">
<title>Node16&#45;&gt;Node20</title>
<path fill="none" stroke="#191970" d="M560.7871,-281.6519C599.7394,-272.5333 663.8446,-257.4329 719,-244 720.2519,-243.6951 721.5255,-243.3837 722.8115,-243.0681"/>
<polygon fill="#191970" stroke="#191970" points="723.8936,-246.406 732.7613,-240.6082 722.2135,-239.6106 723.8936,-246.406"/>
</g>
<!-- Node16&#45;&gt;Node21 -->
<g id="edge37" class="edge">
<title>Node16&#45;&gt;Node21</title>
<path fill="none" stroke="#191970" d="M560.6554,-284.7317C633.2186,-274.0099 797.263,-249.7712 869.1465,-239.1499"/>
<polygon fill="#191970" stroke="#191970" points="870.0825,-242.5496 879.4634,-237.6255 869.0592,-235.6248 870.0825,-242.5496"/>
</g>
<!-- Node17&#45;&gt;Node2 -->
<g id="edge30" class="edge">
<title>Node17&#45;&gt;Node2</title>
<path fill="none" stroke="#191970" d="M712.7979,-112.279C713.0632,-97.7421 715.8553,-70.5013 732,-56 758.8966,-31.8413 850.6667,-20.0447 918.2629,-14.5148"/>
<polygon fill="#191970" stroke="#191970" points="918.7752,-17.9854 928.4699,-13.7119 918.2262,-11.0069 918.7752,-17.9854"/>
</g>
<!-- Node17&#45;&gt;Node4 -->
<g id="edge31" class="edge">
<title>Node17&#45;&gt;Node4</title>
<path fill="none" stroke="#191970" d="M733.2849,-112.3733C752.1421,-103.4241 780.446,-89.9917 801.7455,-79.8835"/>
<polygon fill="#191970" stroke="#191970" points="803.4461,-82.9506 810.9798,-75.5011 800.4449,-76.6266 803.4461,-82.9506"/>
</g>
<!-- Node18&#45;&gt;Node2 -->
<g id="edge33" class="edge">
<title>Node18&#45;&gt;Node2</title>
<path fill="none" stroke="#191970" d="M542.8954,-224.1424C562.5621,-192.3467 629.5871,-92.4549 716,-56 751.5666,-40.9956 848.7259,-27.0663 918.3804,-18.5537"/>
<polygon fill="#191970" stroke="#191970" points="918.9391,-22.0118 928.4471,-17.3376 918.0994,-15.0623 918.9391,-22.0118"/>
</g>
<!-- Node18&#45;&gt;Node5 -->
<g id="edge34" class="edge">
<title>Node18&#45;&gt;Node5</title>
<path fill="none" stroke="#191970" d="M504.6816,-224.3733C473.1494,-214.9807 425.0379,-200.6496 390.6499,-190.4064"/>
<polygon fill="#191970" stroke="#191970" points="391.4797,-187.0016 380.8966,-187.5011 389.4813,-193.7103 391.4797,-187.0016"/>
</g>
<!-- Node25&#45;&gt;Node2 -->
<g id="edge47" class="edge">
<title>Node25&#45;&gt;Node2</title>
<path fill="none" stroke="#191970" d="M116.3274,-739.4724C70.7359,-725.413 0,-694.3576 0,-637 0,-637 0,-637 0,-122 0,-49.1653 79.1578,-72.9198 150,-56 294.5587,-21.4739 738.4159,-12.7893 918.1947,-10.6653"/>
<polygon fill="#191970" stroke="#191970" points="918.4027,-14.1632 928.3619,-10.5488 918.3225,-7.1637 918.4027,-14.1632"/>
</g>
<!-- Node26 -->
<g id="node26" class="node">
<title>Node26</title>
<g id="a_node26"><a xlink:href="../../d4/d57/ExtendedIOElement_8hpp.html" target="_top" xlink:title=" ">
<polygon fill="#ffffff" stroke="#000000" points="972.5,-683.5 972.5,-702.5 1095.5,-702.5 1095.5,-683.5 972.5,-683.5"/>
<text text-anchor="middle" x="1034" y="-690.5" font-family="Helvetica,sans-Serif" font-size="10.00" fill="#000000">ExtendedIOElement.hpp</text>
</a>
</g>
</g>
<!-- Node25&#45;&gt;Node26 -->
<g id="edge48" class="edge">
<title>Node25&#45;&gt;Node26</title>
<path fill="none" stroke="#191970" d="M238.3781,-743.6305C410.7559,-732.661 800.636,-707.8504 961.9938,-697.5822"/>
<polygon fill="#191970" stroke="#191970" points="962.5294,-701.0553 972.2869,-696.9272 962.0848,-694.0694 962.5294,-701.0553"/>
</g>
<!-- Node33 -->
<g id="node33" class="node">
<title>Node33</title>
<g id="a_node33"><a xlink:href="../../d5/db6/ArrayHelpers_8hpp.html" target="_top" xlink:title=" ">
<polygon fill="#ffffff" stroke="#000000" points="74,-566 74,-585 234,-585 234,-566 74,-566"/>
<text text-anchor="middle" x="154" y="-573" font-family="Helvetica,sans-Serif" font-size="10.00" fill="#000000">AH/Containers/ArrayHelpers.hpp</text>
</a>
</g>
</g>
<!-- Node25&#45;&gt;Node33 -->
<g id="edge65" class="edge">
<title>Node25&#45;&gt;Node33</title>
<path fill="none" stroke="#191970" d="M154,-739.4248C154,-711.999 154,-632.732 154,-595.3964"/>
<polygon fill="#191970" stroke="#191970" points="157.5001,-595.2595 154,-585.2595 150.5001,-595.2596 157.5001,-595.2595"/>
</g>
<!-- Node26&#45;&gt;Node2 -->
<g id="edge49" class="edge">
<title>Node26&#45;&gt;Node2</title>
<path fill="none" stroke="#191970" d="M1094.5658,-683.4655C1187.3371,-667.1279 1354,-630.1697 1354,-575.5 1354,-575.5 1354,-575.5 1354,-122 1354,-72.038 1309.0426,-75.398 1263,-56 1229.3266,-41.8132 1138.3803,-27.9635 1071.7401,-19.2307"/>
<polygon fill="#191970" stroke="#191970" points="1072.0474,-15.7414 1061.6804,-17.9269 1071.1476,-22.6833 1072.0474,-15.7414"/>
</g>
<!-- Node26&#45;&gt;Node3 -->
<g id="edge50" class="edge">
<title>Node26&#45;&gt;Node3</title>
<path fill="none" stroke="#191970" d="M1050.0252,-683.2455C1064.1408,-674.6534 1084.9263,-662.0014 1101.1899,-652.1018"/>
<polygon fill="#191970" stroke="#191970" points="1103.4363,-654.8319 1110.1585,-646.6427 1099.7966,-648.8525 1103.4363,-654.8319"/>
</g>
<!-- Node26&#45;&gt;Node10 -->
<g id="edge64" class="edge">
<title>Node26&#45;&gt;Node10</title>
<path fill="none" stroke="#191970" d="M1034.7902,-683.169C1036.3168,-669.447 1040.6965,-644.2942 1053,-627 1061.8393,-614.5751 1074.6556,-604.0981 1087.0907,-595.9053"/>
<polygon fill="#191970" stroke="#191970" points="1088.9558,-598.867 1095.5851,-590.6024 1085.2488,-592.9291 1088.9558,-598.867"/>
</g>
<!-- Node27 -->
<g id="node27" class="node">
<title>Node27</title>
<g id="a_node27"><a xlink:href="../../d4/d93/Updatable_8hpp.html" target="_top" xlink:title=" ">
<polygon fill="#ffffff" stroke="#000000" points="663.5,-504.5 663.5,-523.5 810.5,-523.5 810.5,-504.5 663.5,-504.5"/>
<text text-anchor="middle" x="737" y="-511.5" font-family="Helvetica,sans-Serif" font-size="10.00" fill="#000000">AH/Containers/Updatable.hpp</text>
</a>
</g>
</g>
<!-- Node26&#45;&gt;Node27 -->
<g id="edge51" class="edge">
<title>Node26&#45;&gt;Node27</title>
<path fill="none" stroke="#191970" d="M1018.032,-683.3762C969.0818,-653.8742 820.8703,-564.5481 761.7428,-528.9123"/>
<polygon fill="#191970" stroke="#191970" points="763.4184,-525.8357 753.047,-523.6714 759.805,-531.831 763.4184,-525.8357"/>
</g>
<!-- Node27&#45;&gt;Node2 -->
<g id="edge52" class="edge">
<title>Node27&#45;&gt;Node2</title>
<path fill="none" stroke="#191970" d="M810.9012,-505.8596C847.6131,-499.4571 891.5752,-488.0938 927,-468 1051.1627,-397.5719 1147,-376.7463 1147,-234 1147,-234 1147,-234 1147,-122 1147,-68.8635 1086.0521,-38.1127 1041.3436,-22.7035"/>
<polygon fill="#191970" stroke="#191970" points="1042.388,-19.3626 1031.795,-19.5566 1040.1969,-26.0108 1042.388,-19.3626"/>
</g>
<!-- Node27&#45;&gt;Node12 -->
<g id="edge60" class="edge">
<title>Node27&#45;&gt;Node12</title>
<path fill="none" stroke="#191970" d="M759.6916,-504.3733C781.0711,-495.3032 813.3057,-481.6279 837.2362,-471.4755"/>
<polygon fill="#191970" stroke="#191970" points="838.7656,-474.6287 846.6045,-467.5011 836.0317,-468.1846 838.7656,-474.6287"/>
</g>
<!-- Node27&#45;&gt;Node15 -->
<g id="edge62" class="edge">
<title>Node27&#45;&gt;Node15</title>
<path fill="none" stroke="#191970" d="M741.3809,-504.3569C749.3409,-486.4886 766.2532,-446.8745 776,-412 780.2672,-396.7317 783.3893,-379.0397 785.3775,-365.8185"/>
<polygon fill="#191970" stroke="#191970" points="788.8985,-365.9157 786.8332,-355.5242 781.9675,-364.9356 788.8985,-365.9157"/>
</g>
<!-- Node27&#45;&gt;Node20 -->
<g id="edge63" class="edge">
<title>Node27&#45;&gt;Node20</title>
<path fill="none" stroke="#191970" d="M663.3613,-511.056C550.4635,-505.7767 345.2461,-492.8548 323,-468 317.0718,-461.3766 318.5904,-455.718 323,-448 332.1177,-432.0415 591.1745,-287.3965 608,-280 645.9793,-263.3042 691.8449,-250.2685 722.9882,-242.4025"/>
<polygon fill="#191970" stroke="#191970" points="724.0871,-245.7362 732.9527,-239.9353 722.4046,-238.9414 724.0871,-245.7362"/>
</g>
<!-- Node28 -->
<g id="node28" class="node">
<title>Node28</title>
<g id="a_node28"><a xlink:href="../../d4/dba/CRTP_8hpp.html" target="_top" xlink:title=" ">
<polygon fill="#ffffff" stroke="#000000" points="332.5,-448.5 332.5,-467.5 463.5,-467.5 463.5,-448.5 332.5,-448.5"/>
<text text-anchor="middle" x="398" y="-455.5" font-family="Helvetica,sans-Serif" font-size="10.00" fill="#000000">AH/Containers/CRTP.hpp</text>
</a>
</g>
</g>
<!-- Node27&#45;&gt;Node28 -->
<g id="edge53" class="edge">
<title>Node27&#45;&gt;Node28</title>
<path fill="none" stroke="#191970" d="M679.109,-504.4369C619.9948,-494.6717 528.2773,-479.5207 465.8034,-469.2006"/>
<polygon fill="#191970" stroke="#191970" points="466.089,-465.7004 455.6522,-467.5237 464.948,-472.6068 466.089,-465.7004"/>
</g>
<!-- Node29 -->
<g id="node29" class="node">
<title>Node29</title>
<g id="a_node29"><a xlink:href="../../de/dd1/LinkedList_8hpp.html" target="_top" xlink:title=" ">
<polygon fill="#ffffff" stroke="#000000" points="578.5,-448.5 578.5,-467.5 725.5,-467.5 725.5,-448.5 578.5,-448.5"/>
<text text-anchor="middle" x="652" y="-455.5" font-family="Helvetica,sans-Serif" font-size="10.00" fill="#000000">AH/Containers/LinkedList.hpp</text>
</a>
</g>
</g>
<!-- Node27&#45;&gt;Node29 -->
<g id="edge54" class="edge">
<title>Node27&#45;&gt;Node29</title>
<path fill="none" stroke="#191970" d="M722.1941,-504.2455C709.2744,-495.7337 690.3069,-483.2375 675.3448,-473.3801"/>
<polygon fill="#191970" stroke="#191970" points="676.9124,-470.2216 666.6362,-467.6427 673.0613,-476.067 676.9124,-470.2216"/>
</g>
<!-- Node32 -->
<g id="node32" class="node">
<title>Node32</title>
<g id="a_node32"><a xlink:title=" ">
<polygon fill="#ffffff" stroke="#bfbfbf" points="482,-448.5 482,-467.5 560,-467.5 560,-448.5 482,-448.5"/>
<text text-anchor="middle" x="521" y="-455.5" font-family="Helvetica,sans-Serif" font-size="10.00" fill="#000000">AH/STL/utility</text>
</a>
</g>
</g>
<!-- Node27&#45;&gt;Node32 -->
<g id="edge61" class="edge">
<title>Node27&#45;&gt;Node32</title>
<path fill="none" stroke="#191970" d="M699.8683,-504.3733C663.1733,-494.8598 606.9361,-480.2797 567.3349,-470.0127"/>
<polygon fill="#191970" stroke="#191970" points="568.2056,-466.6228 557.6472,-467.5011 566.4488,-473.3988 568.2056,-466.6228"/>
</g>
<!-- Node29&#45;&gt;Node2 -->
<g id="edge55" class="edge">
<title>Node29&#45;&gt;Node2</title>
<path fill="none" stroke="#191970" d="M696.9173,-448.4576C766.5984,-431.2643 900.1818,-388.3384 972,-300 1041.1911,-214.893 1025.1437,-164.4896 1009,-56 1007.6673,-47.0439 1004.9506,-37.419 1002.2619,-29.3"/>
<polygon fill="#191970" stroke="#191970" points="1005.4936,-27.9402 998.8624,-19.6772 998.8933,-30.272 1005.4936,-27.9402"/>
</g>
<!-- Node29&#45;&gt;Node6 -->
<g id="edge57" class="edge">
<title>Node29&#45;&gt;Node6</title>
<path fill="none" stroke="#191970" d="M622.8865,-448.3927C580.0718,-433.3255 498.9413,-401.1267 441,-356 359.8921,-292.8304 320.0314,-283.5118 282,-188 278.7117,-179.7417 278.1325,-176.0034 282,-168 288.2828,-154.9981 300.2235,-144.5481 311.6451,-136.9145"/>
<polygon fill="#191970" stroke="#191970" points="313.5177,-139.8718 320.1759,-131.6305 309.8316,-133.9209 313.5177,-139.8718"/>
</g>
<!-- Node29&#45;&gt;Node13 -->
<g id="edge56" class="edge">
<title>Node29&#45;&gt;Node13</title>
<path fill="none" stroke="#191970" d="M662.277,-448.2455C670.8218,-440.1352 683.1778,-428.4075 693.3085,-418.7919"/>
<polygon fill="#191970" stroke="#191970" points="695.9972,-421.0655 700.8408,-411.6427 691.1782,-415.9884 695.9972,-421.0655"/>
</g>
<!-- Node29&#45;&gt;Node30 -->
<g id="edge58" class="edge">
<title>Node29&#45;&gt;Node30</title>
<path fill="none" stroke="#191970" d="M588.4736,-448.4369C509.2224,-436.5066 376.5704,-416.5375 314.2761,-407.1598"/>
<polygon fill="#191970" stroke="#191970" points="314.6047,-403.67 304.1951,-405.6423 313.5626,-410.592 314.6047,-403.67"/>
</g>
<!-- Node31 -->
<g id="node31" class="node">
<title>Node31</title>
<g id="a_node31"><a xlink:title=" ">
<polygon fill="#ffffff" stroke="#bfbfbf" points="550.5,-392.5 550.5,-411.5 597.5,-411.5 597.5,-392.5 550.5,-392.5"/>
<text text-anchor="middle" x="574" y="-399.5" font-family="Helvetica,sans-Serif" font-size="10.00" fill="#000000">iterator</text>
</a>
</g>
</g>
<!-- Node29&#45;&gt;Node31 -->
<g id="edge59" class="edge">
<title>Node29&#45;&gt;Node31</title>
<path fill="none" stroke="#191970" d="M638.4134,-448.2455C626.6695,-439.814 609.4801,-427.4729 595.8118,-417.6598"/>
<polygon fill="#191970" stroke="#191970" points="597.5954,-414.6316 587.4309,-411.6427 593.5129,-420.3179 597.5954,-414.6316"/>
</g>
<!-- Node33&#45;&gt;Node2 -->
<g id="edge66" class="edge">
<title>Node33&#45;&gt;Node2</title>
<path fill="none" stroke="#191970" d="M122.1986,-565.9589C100.858,-557.9967 73.6957,-544.5826 57,-524 37.7706,-500.2938 38,-488.5246 38,-458 38,-458 38,-458 38,-178 38,-76.8969 133.8109,-87.1365 230,-56 294.183,-35.2239 736.8147,-18.4956 917.9686,-12.4413"/>
<polygon fill="#191970" stroke="#191970" points="918.34,-15.931 928.2183,-12.1008 918.1076,-8.9349 918.34,-15.931"/>
</g>
<!-- Node33&#45;&gt;Node11 -->
<g id="edge67" class="edge">
<title>Node33&#45;&gt;Node11</title>
<path fill="none" stroke="#191970" d="M231.9684,-565.9966C250.9406,-563.8548 271.1853,-561.7115 290,-560 524.686,-538.652 584.1351,-543.2794 819,-524 828.8977,-523.1875 839.3187,-522.2652 849.5865,-521.3171"/>
<polygon fill="#191970" stroke="#191970" points="850.1476,-524.78 859.7781,-520.3636 849.4955,-517.8104 850.1476,-524.78"/>
</g>
<!-- Node33&#45;&gt;Node14 -->
<g id="edge69" class="edge">
<title>Node33&#45;&gt;Node14</title>
<path fill="none" stroke="#191970" d="M159.1579,-565.7517C169.1122,-546.0021 190,-499.6038 190,-458 190,-458 190,-458 190,-402 190,-367.8821 204.9795,-330.4701 215.3391,-308.676"/>
<polygon fill="#191970" stroke="#191970" points="218.5455,-310.0877 219.8356,-299.5717 212.2692,-306.9879 218.5455,-310.0877"/>
</g>
<!-- Node34 -->
<g id="node34" class="node">
<title>Node34</title>
<g id="a_node34"><a xlink:title=" ">
<polygon fill="#ffffff" stroke="#bfbfbf" points="66.5,-504.5 66.5,-523.5 161.5,-523.5 161.5,-504.5 66.5,-504.5"/>
<text text-anchor="middle" x="114" y="-511.5" font-family="Helvetica,sans-Serif" font-size="10.00" fill="#000000">AH/STL/algorithm</text>
</a>
</g>
</g>
<!-- Node33&#45;&gt;Node34 -->
<g id="edge68" class="edge">
<title>Node33&#45;&gt;Node34</title>
<path fill="none" stroke="#191970" d="M147.75,-565.8906C141.9135,-556.917 133.0491,-543.2879 125.8694,-532.2491"/>
<polygon fill="#191970" stroke="#191970" points="128.7245,-530.2194 120.3381,-523.7449 122.8564,-534.0361 128.7245,-530.2194"/>
</g>
</g>
</svg>
